<?xml version="1.0" encoding="UTF-8" standalone="no"?>
<!DOCTYPE svg PUBLIC "-//W3C//DTD SVG 1.1//EN"
 "http://www.w3.org/Graphics/SVG/1.1/DTD/svg11.dtd">
<!-- Generated by graphviz version 3.0.0 (20221109.1736)
 -->
<!-- Title: libs/SSystem/SComponent/c_angle.cpp Pages: 1 -->
<svg width="444pt" height="352pt"
 viewBox="0.00 0.00 443.50 352.00" xmlns="http://www.w3.org/2000/svg" xmlns:xlink="http://www.w3.org/1999/xlink">
<g id="graph0" class="graph" transform="scale(1 1) rotate(0) translate(4 348)">
<title>libs/SSystem/SComponent/c_angle.cpp</title>
<polygon fill="white" stroke="transparent" points="-4,4 -4,-348 439.5,-348 439.5,4 -4,4"/>
<!-- Node1 -->
<g id="node1" class="node">
<title>Node1</title>
<g id="a_node1"><a xlink:title=" ">
<polygon fill="#bfbfbf" stroke="black" points="236,-313.5 236,-343.5 370,-343.5 370,-313.5 236,-313.5"/>
<text text-anchor="start" x="244" y="-331.5" font-family="Helvetica,sans-Serif" font-size="10.00">libs/SSystem/SComponent</text>
<text text-anchor="middle" x="303" y="-320.5" font-family="Helvetica,sans-Serif" font-size="10.00">/c_angle.cpp</text>
</a>
</g>
</g>
<!-- Node2 -->
<g id="node2" class="node">
<title>Node2</title>
<g id="a_node2"><a xlink:href="c__angle_8h.html" target="_top" xlink:title=" ">
<polygon fill="white" stroke="black" points="202,-246.5 202,-276.5 318,-276.5 318,-246.5 202,-246.5"/>
<text text-anchor="start" x="210" y="-264.5" font-family="Helvetica,sans-Serif" font-size="10.00">SSystem/SComponent</text>
<text text-anchor="middle" x="260" y="-253.5" font-family="Helvetica,sans-Serif" font-size="10.00">/c_angle.h</text>
</a>
</g>
</g>
<!-- Node1&#45;&gt;Node2 -->
<g id="edge1" class="edge">
<title>Node1&#45;&gt;Node2</title>
<path fill="none" stroke="midnightblue" d="M293.67,-313.4C288.2,-305.13 281.17,-294.51 274.95,-285.1"/>
<polygon fill="midnightblue" stroke="midnightblue" points="277.75,-282.99 269.31,-276.58 271.91,-286.85 277.75,-282.99"/>
</g>
<!-- Node4 -->
<g id="node4" class="node">
<title>Node4</title>
<g id="a_node4"><a xlink:href="math_8h.html" target="_top" xlink:title=" ">
<polygon fill="white" stroke="black" points="50,-123.5 50,-142.5 132,-142.5 132,-123.5 50,-123.5"/>
<text text-anchor="middle" x="91" y="-130.5" font-family="Helvetica,sans-Serif" font-size="10.00">MSL_C/math.h</text>
</a>
</g>
</g>
<!-- Node1&#45;&gt;Node4 -->
<g id="edge13" class="edge">
<title>Node1&#45;&gt;Node4</title>
<path fill="none" stroke="midnightblue" d="M259.65,-313.5C238.13,-305.14 212.61,-293.02 193,-277 148.84,-240.94 114.78,-181.28 99.62,-151.72"/>
<polygon fill="midnightblue" stroke="midnightblue" points="102.67,-149.99 95.06,-142.61 96.41,-153.12 102.67,-149.99"/>
</g>
<!-- Node6 -->
<g id="node6" class="node">
<title>Node6</title>
<g id="a_node6"><a xlink:href="types_8h.html" target="_top" xlink:title=" ">
<polygon fill="white" stroke="black" points="187.5,-0.5 187.5,-19.5 268.5,-19.5 268.5,-0.5 187.5,-0.5"/>
<text text-anchor="middle" x="228" y="-7.5" font-family="Helvetica,sans-Serif" font-size="10.00">dolphin/types.h</text>
</a>
</g>
</g>
<!-- Node1&#45;&gt;Node6 -->
<g id="edge15" class="edge">
<title>Node1&#45;&gt;Node6</title>
<path fill="none" stroke="midnightblue" d="M310.89,-313.34C323.3,-289.7 346,-240.33 346,-195.5 346,-195.5 346,-195.5 346,-132 346,-94.03 333.25,-83.43 307,-56 293.8,-42.21 275.45,-31.41 259.76,-23.85"/>
<polygon fill="midnightblue" stroke="midnightblue" points="260.95,-20.55 250.4,-19.56 258.03,-26.91 260.95,-20.55"/>
</g>
<!-- Node10 -->
<g id="node10" class="node">
<title>Node10</title>
<g id="a_node10"><a xlink:href="dol2asm_8h.html" target="_top" xlink:title=" ">
<polygon fill="white" stroke="black" points="374.5,-252 374.5,-271 435.5,-271 435.5,-252 374.5,-252"/>
<text text-anchor="middle" x="405" y="-259" font-family="Helvetica,sans-Serif" font-size="10.00">dol2asm.h</text>
</a>
</g>
</g>
<!-- Node1&#45;&gt;Node10 -->
<g id="edge14" class="edge">
<title>Node1&#45;&gt;Node10</title>
<path fill="none" stroke="midnightblue" d="M325.13,-313.4C342.24,-302.5 365.8,-287.48 382.9,-276.58"/>
<polygon fill="midnightblue" stroke="midnightblue" points="385.1,-279.33 391.65,-271.01 381.34,-273.43 385.1,-279.33"/>
</g>
<!-- Node3 -->
<g id="node3" class="node">
<title>Node3</title>
<g id="a_node3"><a xlink:href="c__xyz_8h.html" target="_top" xlink:title=" ">
<polygon fill="white" stroke="black" points="153,-179.5 153,-209.5 269,-209.5 269,-179.5 153,-179.5"/>
<text text-anchor="start" x="161" y="-197.5" font-family="Helvetica,sans-Serif" font-size="10.00">SSystem/SComponent</text>
<text text-anchor="middle" x="211" y="-186.5" font-family="Helvetica,sans-Serif" font-size="10.00">/c_xyz.h</text>
</a>
</g>
</g>
<!-- Node2&#45;&gt;Node3 -->
<g id="edge2" class="edge">
<title>Node2&#45;&gt;Node3</title>
<path fill="none" stroke="midnightblue" d="M249.37,-246.4C243.08,-238.05 234.96,-227.29 227.82,-217.81"/>
<polygon fill="midnightblue" stroke="midnightblue" points="230.43,-215.45 221.61,-209.58 224.84,-219.67 230.43,-215.45"/>
</g>
<!-- Node2&#45;&gt;Node6 -->
<g id="edge12" class="edge">
<title>Node2&#45;&gt;Node6</title>
<path fill="none" stroke="midnightblue" d="M267.31,-246.44C284.17,-211.94 321.89,-121.14 289,-56 282.19,-42.52 269.23,-32.08 257,-24.67"/>
<polygon fill="midnightblue" stroke="midnightblue" points="258.34,-21.41 247.91,-19.59 254.93,-27.52 258.34,-21.41"/>
</g>
<!-- Node3&#45;&gt;Node4 -->
<g id="edge3" class="edge">
<title>Node3&#45;&gt;Node4</title>
<path fill="none" stroke="midnightblue" d="M182.56,-179.4C162.88,-169.64 136.86,-156.74 117.59,-147.18"/>
<polygon fill="midnightblue" stroke="midnightblue" points="118.98,-143.96 108.46,-142.66 115.87,-150.24 118.98,-143.96"/>
</g>
<!-- Node8 -->
<g id="node8" class="node">
<title>Node8</title>
<g id="a_node8"><a xlink:href="vec_8h.html" target="_top" xlink:title=" ">
<polygon fill="white" stroke="black" points="150,-123.5 150,-142.5 242,-142.5 242,-123.5 150,-123.5"/>
<text text-anchor="middle" x="196" y="-130.5" font-family="Helvetica,sans-Serif" font-size="10.00">dolphin/mtx/vec.h</text>
</a>
</g>
</g>
<!-- Node3&#45;&gt;Node8 -->
<g id="edge8" class="edge">
<title>Node3&#45;&gt;Node8</title>
<path fill="none" stroke="midnightblue" d="M207.45,-179.4C205.42,-171.38 202.87,-161.23 200.68,-152.57"/>
<polygon fill="midnightblue" stroke="midnightblue" points="204.02,-151.5 198.18,-142.66 197.23,-153.21 204.02,-151.5"/>
</g>
<!-- Node9 -->
<g id="node9" class="node">
<title>Node9</title>
<g id="a_node9"><a xlink:href="global_8h.html" target="_top" xlink:title=" ">
<polygon fill="white" stroke="black" points="230,-62 230,-81 280,-81 280,-62 230,-62"/>
<text text-anchor="middle" x="255" y="-69" font-family="Helvetica,sans-Serif" font-size="10.00">global.h</text>
</a>
</g>
</g>
<!-- Node3&#45;&gt;Node9 -->
<g id="edge10" class="edge">
<title>Node3&#45;&gt;Node9</title>
<path fill="none" stroke="midnightblue" d="M226.37,-179.15C235.28,-169.8 245.75,-156.8 251,-143 257.32,-126.36 257.76,-105.92 256.96,-91.34"/>
<polygon fill="midnightblue" stroke="midnightblue" points="260.42,-90.78 256.13,-81.09 253.44,-91.34 260.42,-90.78"/>
</g>
<!-- Node5 -->
<g id="node5" class="node">
<title>Node5</title>
<g id="a_node5"><a xlink:href="float_8h.html" target="_top" xlink:title=" ">
<polygon fill="white" stroke="black" points="0,-56.5 0,-86.5 136,-86.5 136,-56.5 0,-56.5"/>
<text text-anchor="start" x="8" y="-74.5" font-family="Helvetica,sans-Serif" font-size="10.00">MSL_C/MSL_Common/Src</text>
<text text-anchor="middle" x="68" y="-63.5" font-family="Helvetica,sans-Serif" font-size="10.00">/float.h</text>
</a>
</g>
</g>
<!-- Node4&#45;&gt;Node5 -->
<g id="edge4" class="edge">
<title>Node4&#45;&gt;Node5</title>
<path fill="none" stroke="midnightblue" d="M87.7,-123.48C84.94,-116.32 80.85,-105.75 77.12,-96.08"/>
<polygon fill="midnightblue" stroke="midnightblue" points="80.29,-94.59 73.42,-86.52 73.76,-97.11 80.29,-94.59"/>
</g>
<!-- Node4&#45;&gt;Node6 -->
<g id="edge7" class="edge">
<title>Node4&#45;&gt;Node6</title>
<path fill="none" stroke="midnightblue" d="M101.88,-123.18C112.88,-114.21 130.3,-99.85 145,-87 168.3,-66.64 194.54,-42.38 211.17,-26.84"/>
<polygon fill="midnightblue" stroke="midnightblue" points="214.01,-28.97 218.92,-19.58 209.23,-23.86 214.01,-28.97"/>
</g>
<!-- Node5&#45;&gt;Node6 -->
<g id="edge5" class="edge">
<title>Node5&#45;&gt;Node6</title>
<path fill="none" stroke="midnightblue" d="M105.92,-56.4C133.12,-46.28 169.4,-32.79 195.33,-23.15"/>
<polygon fill="midnightblue" stroke="midnightblue" points="196.57,-26.42 204.72,-19.66 194.13,-19.86 196.57,-26.42"/>
</g>
<!-- Node7 -->
<g id="node7" class="node">
<title>Node7</title>
<g id="a_node7"><a xlink:href="fdlibm_8h.html" target="_top" xlink:title=" ">
<polygon fill="white" stroke="black" points="43,-0.5 43,-19.5 93,-19.5 93,-0.5 43,-0.5"/>
<text text-anchor="middle" x="68" y="-7.5" font-family="Helvetica,sans-Serif" font-size="10.00">fdlibm.h</text>
</a>
</g>
</g>
<!-- Node5&#45;&gt;Node7 -->
<g id="edge6" class="edge">
<title>Node5&#45;&gt;Node7</title>
<path fill="none" stroke="midnightblue" d="M68,-56.4C68,-48.47 68,-38.46 68,-29.86"/>
<polygon fill="midnightblue" stroke="midnightblue" points="71.5,-29.66 68,-19.66 64.5,-29.66 71.5,-29.66"/>
</g>
<!-- Node8&#45;&gt;Node6 -->
<g id="edge9" class="edge">
<title>Node8&#45;&gt;Node6</title>
<path fill="none" stroke="midnightblue" d="M198.3,-123.3C203.47,-103.76 216.08,-56.06 223.09,-29.55"/>
<polygon fill="midnightblue" stroke="midnightblue" points="226.55,-30.19 225.72,-19.62 219.78,-28.4 226.55,-30.19"/>
</g>
<!-- Node9&#45;&gt;Node6 -->
<g id="edge11" class="edge">
<title>Node9&#45;&gt;Node6</title>
<path fill="none" stroke="midnightblue" d="M251.13,-61.98C247.2,-53.32 241,-39.65 236.01,-28.65"/>
<polygon fill="midnightblue" stroke="midnightblue" points="239.18,-27.17 231.86,-19.51 232.81,-30.06 239.18,-27.17"/>
</g>
</g>
</svg>
