<?xml version="1.0" encoding="UTF-8" standalone="no"?>
<!DOCTYPE svg PUBLIC "-//W3C//DTD SVG 1.1//EN"
 "http://www.w3.org/Graphics/SVG/1.1/DTD/svg11.dtd">
<!-- Generated by graphviz version 2.50.0 (20220203.2022)
 -->
<!-- Title: include/SSystem/SComponent/c_bg_s_gnd_chk.h Pages: 1 -->
<svg width="3889pt" height="642pt"
 viewBox="0.00 0.00 3888.50 642.00" xmlns="http://www.w3.org/2000/svg" xmlns:xlink="http://www.w3.org/1999/xlink">
<g id="graph0" class="graph" transform="scale(1 1) rotate(0) translate(4 638)">
<title>include/SSystem/SComponent/c_bg_s_gnd_chk.h</title>
<polygon fill="white" stroke="transparent" points="-4,4 -4,-638 3884.5,-638 3884.5,4 -4,4"/>
<!-- Node1 -->
<g id="node1" class="node">
<title>Node1</title>
<g id="a_node1"><a xlink:title=" ">
<polygon fill="#bfbfbf" stroke="black" points="1724,-603.5 1724,-633.5 1873,-633.5 1873,-603.5 1724,-603.5"/>
<text text-anchor="start" x="1732" y="-621.5" font-family="Helvetica,sans-Serif" font-size="10.00">include/SSystem/SComponent</text>
<text text-anchor="middle" x="1798.5" y="-610.5" font-family="Helvetica,sans-Serif" font-size="10.00">/c_bg_s_gnd_chk.h</text>
</a>
</g>
</g>
<!-- Node2 -->
<g id="node2" class="node">
<title>Node2</title>
<g id="a_node2"><a xlink:href="d__bg__s_8h.html" target="_top" xlink:title=" ">
<polygon fill="white" stroke="black" points="1721,-274 1721,-293 1832,-293 1832,-274 1721,-274"/>
<text text-anchor="middle" x="1776.5" y="-281" font-family="Helvetica,sans-Serif" font-size="10.00">include/d/bg/d_bg_s.h</text>
</a>
</g>
</g>
<!-- Node1&#45;&gt;Node2 -->
<g id="edge1" class="edge">
<title>Node1&#45;&gt;Node2</title>
<path fill="none" stroke="midnightblue" d="M1735.24,-600.1C1682.7,-581.35 1616.5,-545.76 1616.5,-485.5 1616.5,-485.5 1616.5,-485.5 1616.5,-416.5 1616.5,-348.62 1703.25,-309.14 1749,-293.03"/>
<polygon fill="midnightblue" stroke="midnightblue" points="1734.28,-603.47 1744.88,-603.41 1736.56,-596.85 1734.28,-603.47"/>
</g>
<!-- Node53 -->
<g id="node42" class="node">
<title>Node53</title>
<g id="a_node42"><a xlink:href="d__bg__s__gnd__chk_8h.html" target="_top" xlink:title=" ">
<polygon fill="white" stroke="black" points="1746.5,-536.5 1746.5,-566.5 1850.5,-566.5 1850.5,-536.5 1746.5,-536.5"/>
<text text-anchor="start" x="1754.5" y="-554.5" font-family="Helvetica,sans-Serif" font-size="10.00">include/d/bg/d_bg_s</text>
<text text-anchor="middle" x="1798.5" y="-543.5" font-family="Helvetica,sans-Serif" font-size="10.00">_gnd_chk.h</text>
</a>
</g>
</g>
<!-- Node1&#45;&gt;Node53 -->
<g id="edge52" class="edge">
<title>Node1&#45;&gt;Node53</title>
<path fill="none" stroke="midnightblue" d="M1798.5,-593.11C1798.5,-584.15 1798.5,-574.32 1798.5,-566.58"/>
<polygon fill="midnightblue" stroke="midnightblue" points="1795,-593.4 1798.5,-603.4 1802,-593.4 1795,-593.4"/>
</g>
<!-- Node55 -->
<g id="node44" class="node">
<title>Node55</title>
<g id="a_node44"><a xlink:href="d__bg__w_8h.html" target="_top" xlink:title=" ">
<polygon fill="white" stroke="black" points="1758,-341 1758,-360 1871,-360 1871,-341 1758,-341"/>
<text text-anchor="middle" x="1814.5" y="-348" font-family="Helvetica,sans-Serif" font-size="10.00">include/d/bg/d_bg_w.h</text>
</a>
</g>
</g>
<!-- Node1&#45;&gt;Node55 -->
<g id="edge65" class="edge">
<title>Node1&#45;&gt;Node55</title>
<path fill="none" stroke="midnightblue" d="M1761.61,-598.28C1716.69,-572.08 1649.67,-522.26 1674.5,-469 1699.98,-414.36 1764.75,-376.1 1796.46,-360.01"/>
<polygon fill="midnightblue" stroke="midnightblue" points="1760.12,-601.46 1770.55,-603.36 1763.58,-595.38 1760.12,-601.46"/>
</g>
<!-- Node57 -->
<g id="node46" class="node">
<title>Node57</title>
<g id="a_node46"><a xlink:href="d__bg__w__base_8h.html" target="_top" xlink:title=" ">
<polygon fill="white" stroke="black" points="1887.5,-402.5 1887.5,-432.5 1993.5,-432.5 1993.5,-402.5 1887.5,-402.5"/>
<text text-anchor="start" x="1895.5" y="-420.5" font-family="Helvetica,sans-Serif" font-size="10.00">include/d/bg/d_bg_w</text>
<text text-anchor="middle" x="1940.5" y="-409.5" font-family="Helvetica,sans-Serif" font-size="10.00">_base.h</text>
</a>
</g>
</g>
<!-- Node1&#45;&gt;Node57 -->
<g id="edge66" class="edge">
<title>Node1&#45;&gt;Node57</title>
<path fill="none" stroke="midnightblue" d="M1828.84,-597.38C1857.59,-576.58 1899.55,-541.37 1921.5,-500 1933.08,-478.18 1937.66,-449.4 1939.43,-432.53"/>
<polygon fill="midnightblue" stroke="midnightblue" points="1826.52,-594.73 1820.37,-603.37 1830.56,-600.45 1826.52,-594.73"/>
</g>
<!-- Node68 -->
<g id="node50" class="node">
<title>Node68</title>
<g id="a_node50"><a xlink:href="c__bg__s__gnd__chk_8cpp.html" target="_top" xlink:title=" ">
<polygon fill="white" stroke="black" points="1968.5,-536.5 1968.5,-566.5 2102.5,-566.5 2102.5,-536.5 1968.5,-536.5"/>
<text text-anchor="start" x="1976.5" y="-554.5" font-family="Helvetica,sans-Serif" font-size="10.00">libs/SSystem/SComponent</text>
<text text-anchor="middle" x="2035.5" y="-543.5" font-family="Helvetica,sans-Serif" font-size="10.00">/c_bg_s_gnd_chk.cpp</text>
</a>
</g>
</g>
<!-- Node1&#45;&gt;Node68 -->
<g id="edge67" class="edge">
<title>Node1&#45;&gt;Node68</title>
<path fill="none" stroke="midnightblue" d="M1859.7,-600.71C1898.27,-590.14 1947.5,-576.63 1984.05,-566.61"/>
<polygon fill="midnightblue" stroke="midnightblue" points="1858.35,-597.46 1849.63,-603.48 1860.2,-604.21 1858.35,-597.46"/>
</g>
<!-- Node3 -->
<g id="node3" class="node">
<title>Node3</title>
<g id="a_node3"><a xlink:href="d__a__alink_8h.html" target="_top" xlink:title=" ">
<polygon fill="white" stroke="black" points="1675.5,-207 1675.5,-226 1791.5,-226 1791.5,-207 1675.5,-207"/>
<text text-anchor="middle" x="1733.5" y="-214" font-family="Helvetica,sans-Serif" font-size="10.00">include/d/a/d_a_alink.h</text>
</a>
</g>
</g>
<!-- Node2&#45;&gt;Node3 -->
<g id="edge2" class="edge">
<title>Node2&#45;&gt;Node3</title>
<path fill="none" stroke="midnightblue" d="M1764.95,-265.03C1756.62,-252.45 1745.74,-236.01 1739.21,-226.13"/>
<polygon fill="midnightblue" stroke="midnightblue" points="1762.26,-267.32 1770.7,-273.73 1768.1,-263.46 1762.26,-267.32"/>
</g>
<!-- Node4 -->
<g id="node4" class="node">
<title>Node4</title>
<g id="a_node4"><a xlink:href="d__com__inf__game_8h.html" target="_top" xlink:title=" ">
<polygon fill="white" stroke="black" points="1678.5,-134.5 1678.5,-164.5 1788.5,-164.5 1788.5,-134.5 1678.5,-134.5"/>
<text text-anchor="start" x="1686.5" y="-152.5" font-family="Helvetica,sans-Serif" font-size="10.00">include/d/com/d_com</text>
<text text-anchor="middle" x="1733.5" y="-141.5" font-family="Helvetica,sans-Serif" font-size="10.00">_inf_game.h</text>
</a>
</g>
</g>
<!-- Node2&#45;&gt;Node4 -->
<g id="edge46" class="edge">
<title>Node2&#45;&gt;Node4</title>
<path fill="none" stroke="midnightblue" d="M1788.81,-265.18C1799.23,-248.22 1810.94,-221.94 1800.5,-201 1792.64,-185.23 1777.24,-173.08 1763.19,-164.66"/>
<polygon fill="midnightblue" stroke="midnightblue" points="1785.87,-263.28 1783.3,-273.56 1791.72,-267.13 1785.87,-263.28"/>
</g>
<!-- Node30 -->
<g id="node20" class="node">
<title>Node30</title>
<g id="a_node20"><a xlink:href="d__bg__s_8cpp.html" target="_top" xlink:title=" ">
<polygon fill="white" stroke="black" points="3506.5,-73 3506.5,-92 3610.5,-92 3610.5,-73 3506.5,-73"/>
<text text-anchor="middle" x="3558.5" y="-80" font-family="Helvetica,sans-Serif" font-size="10.00">src/d/bg/d_bg_s.cpp</text>
</a>
</g>
</g>
<!-- Node2&#45;&gt;Node30 -->
<g id="edge50" class="edge">
<title>Node2&#45;&gt;Node30</title>
<path fill="none" stroke="midnightblue" d="M1805.21,-269.76C1875.4,-239.34 2062,-162.88 2226.5,-134 2500.43,-85.92 3200.86,-126.58 3477.5,-98 3490.57,-96.65 3504.71,-94.4 3517.46,-92.06"/>
<polygon fill="midnightblue" stroke="midnightblue" points="1803.48,-266.7 1795.71,-273.9 1806.28,-273.11 1803.48,-266.7"/>
</g>
<!-- Node48 -->
<g id="node39" class="node">
<title>Node48</title>
<g id="a_node39"><a xlink:href="d__a__horse_8h.html" target="_top" xlink:title=" ">
<polygon fill="white" stroke="black" points="1556,-201.5 1556,-231.5 1657,-231.5 1657,-201.5 1556,-201.5"/>
<text text-anchor="start" x="1564" y="-219.5" font-family="Helvetica,sans-Serif" font-size="10.00">include/rel/d/a/d_a</text>
<text text-anchor="middle" x="1606.5" y="-208.5" font-family="Helvetica,sans-Serif" font-size="10.00">_horse/d_a_horse.h</text>
</a>
</g>
</g>
<!-- Node2&#45;&gt;Node48 -->
<g id="edge47" class="edge">
<title>Node2&#45;&gt;Node48</title>
<path fill="none" stroke="midnightblue" d="M1744.34,-270.2C1715.53,-259.19 1673.3,-243.04 1643.19,-231.53"/>
<polygon fill="midnightblue" stroke="midnightblue" points="1743.33,-273.57 1753.93,-273.87 1745.83,-267.03 1743.33,-273.57"/>
</g>
<!-- Node52 -->
<g id="node41" class="node">
<title>Node52</title>
<g id="a_node41"><a xlink:href="d__bg__s__acch_8cpp.html" target="_top" xlink:title=" ">
<polygon fill="white" stroke="black" points="1407,-207 1407,-226 1538,-226 1538,-207 1407,-207"/>
<text text-anchor="middle" x="1472.5" y="-214" font-family="Helvetica,sans-Serif" font-size="10.00">src/d/bg/d_bg_s_acch.cpp</text>
</a>
</g>
</g>
<!-- Node2&#45;&gt;Node52 -->
<g id="edge51" class="edge">
<title>Node2&#45;&gt;Node52</title>
<path fill="none" stroke="midnightblue" d="M1726.47,-271.8C1666.65,-259.01 1567.71,-237.86 1512.64,-226.08"/>
<polygon fill="midnightblue" stroke="midnightblue" points="1725.93,-275.27 1736.44,-273.94 1727.4,-268.42 1725.93,-275.27"/>
</g>
<!-- Node3&#45;&gt;Node4 -->
<g id="edge3" class="edge">
<title>Node3&#45;&gt;Node4</title>
<path fill="none" stroke="midnightblue" d="M1733.5,-196.41C1733.5,-186.22 1733.5,-173.9 1733.5,-164.59"/>
<polygon fill="midnightblue" stroke="midnightblue" points="1730,-196.73 1733.5,-206.73 1737,-196.73 1730,-196.73"/>
</g>
<!-- Node28 -->
<g id="node18" class="node">
<title>Node28</title>
<g id="a_node18"><a xlink:href="d__a__alink_8cpp.html" target="_top" xlink:title=" ">
<polygon fill="white" stroke="black" points="0,-73 0,-92 109,-92 109,-73 0,-73"/>
<text text-anchor="middle" x="54.5" y="-80" font-family="Helvetica,sans-Serif" font-size="10.00">src/d/a/d_a_alink.cpp</text>
</a>
</g>
</g>
<!-- Node3&#45;&gt;Node28 -->
<g id="edge45" class="edge">
<title>Node3&#45;&gt;Node28</title>
<path fill="none" stroke="midnightblue" d="M1714.09,-200.81C1685.2,-179.3 1631.9,-141 1609.5,-134 1451.22,-84.55 282.03,-118.7 117.5,-98 107.14,-96.7 96,-94.43 86,-92.06"/>
<polygon fill="midnightblue" stroke="midnightblue" points="1712.11,-203.7 1722.21,-206.9 1716.31,-198.1 1712.11,-203.7"/>
</g>
<!-- Node5 -->
<g id="node5" class="node">
<title>Node5</title>
<g id="a_node5"><a xlink:href="d__cc__uty_8h.html" target="_top" xlink:title=" ">
<polygon fill="white" stroke="red" points="3218,-73 3218,-92 3337,-92 3337,-73 3218,-73"/>
<text text-anchor="middle" x="3277.5" y="-80" font-family="Helvetica,sans-Serif" font-size="10.00">include/d/cc/d_cc_uty.h</text>
</a>
</g>
</g>
<!-- Node4&#45;&gt;Node5 -->
<g id="edge4" class="edge">
<title>Node4&#45;&gt;Node5</title>
<path fill="none" stroke="midnightblue" d="M1798.75,-145.51C1867.19,-142.41 1977.89,-137.55 2073.5,-134 2578.29,-115.24 2708.04,-158.92 3209.5,-98 3220.64,-96.65 3232.67,-94.36 3243.46,-92"/>
<polygon fill="midnightblue" stroke="midnightblue" points="1798.38,-142.02 1788.55,-145.97 1798.7,-149.01 1798.38,-142.02"/>
</g>
<!-- Node7 -->
<g id="node6" class="node">
<title>Node7</title>
<g id="a_node6"><a xlink:href="d__item_8h.html" target="_top" xlink:title=" ">
<polygon fill="white" stroke="red" points="3355,-73 3355,-92 3450,-92 3450,-73 3355,-73"/>
<text text-anchor="middle" x="3402.5" y="-80" font-family="Helvetica,sans-Serif" font-size="10.00">include/d/d_item.h</text>
</a>
</g>
</g>
<!-- Node4&#45;&gt;Node7 -->
<g id="edge5" class="edge">
<title>Node4&#45;&gt;Node7</title>
<path fill="none" stroke="midnightblue" d="M1798.75,-145.44C1867.19,-142.29 1977.89,-137.39 2073.5,-134 2356.32,-123.97 3066.3,-137.72 3346.5,-98 3355.75,-96.69 3365.67,-94.42 3374.55,-92.06"/>
<polygon fill="midnightblue" stroke="midnightblue" points="1798.38,-141.95 1788.55,-145.91 1798.7,-148.94 1798.38,-141.95"/>
</g>
<!-- Node8 -->
<g id="node7" class="node">
<title>Node8</title>
<g id="a_node7"><a xlink:href="d__com__inf__game_8cpp.html" target="_top" xlink:title=" ">
<polygon fill="white" stroke="black" points="3386.5,-0.5 3386.5,-30.5 3494.5,-30.5 3494.5,-0.5 3386.5,-0.5"/>
<text text-anchor="start" x="3394.5" y="-18.5" font-family="Helvetica,sans-Serif" font-size="10.00">src/d/com/d_com_inf</text>
<text text-anchor="middle" x="3440.5" y="-7.5" font-family="Helvetica,sans-Serif" font-size="10.00">_game.cpp</text>
</a>
</g>
</g>
<!-- Node4&#45;&gt;Node8 -->
<g id="edge24" class="edge">
<title>Node4&#45;&gt;Node8</title>
<path fill="none" stroke="midnightblue" d="M1798.75,-145.39C1867.19,-142.21 1977.88,-137.28 2073.5,-134 2111.99,-132.68 3432.62,-125.58 3459.5,-98 3477.14,-79.89 3462.02,-48.75 3450.53,-30.66"/>
<polygon fill="midnightblue" stroke="midnightblue" points="1798.38,-141.91 1788.55,-145.87 1798.7,-148.9 1798.38,-141.91"/>
</g>
<!-- Node11 -->
<g id="node8" class="node">
<title>Node11</title>
<g id="a_node8"><a xlink:href="d__kantera__icon__meter_8h.html" target="_top" xlink:title=" ">
<polygon fill="white" stroke="red" points="127,-67.5 127,-97.5 228,-97.5 228,-67.5 127,-67.5"/>
<text text-anchor="start" x="135" y="-85.5" font-family="Helvetica,sans-Serif" font-size="10.00">include/d/d_kantera</text>
<text text-anchor="middle" x="177.5" y="-74.5" font-family="Helvetica,sans-Serif" font-size="10.00">_icon_meter.h</text>
</a>
</g>
</g>
<!-- Node4&#45;&gt;Node11 -->
<g id="edge7" class="edge">
<title>Node4&#45;&gt;Node11</title>
<path fill="none" stroke="midnightblue" d="M1668.23,-134.84C1665.96,-134.53 1663.71,-134.25 1661.5,-134 1034.59,-63.46 868.65,-175.04 242.5,-98 237.8,-97.42 232.93,-96.66 228.08,-95.78"/>
<polygon fill="midnightblue" stroke="midnightblue" points="1667.81,-138.32 1678.23,-136.36 1668.87,-131.4 1667.81,-138.32"/>
</g>
<!-- Node13 -->
<g id="node9" class="node">
<title>Node13</title>
<g id="a_node9"><a xlink:href="d__meter2__draw_8cpp.html" target="_top" xlink:title=" ">
<polygon fill="white" stroke="black" points="201.5,-0.5 201.5,-30.5 311.5,-30.5 311.5,-0.5 201.5,-0.5"/>
<text text-anchor="start" x="209.5" y="-18.5" font-family="Helvetica,sans-Serif" font-size="10.00">src/d/meter/d_meter2</text>
<text text-anchor="middle" x="256.5" y="-7.5" font-family="Helvetica,sans-Serif" font-size="10.00">_draw.cpp</text>
</a>
</g>
</g>
<!-- Node4&#45;&gt;Node13 -->
<g id="edge36" class="edge">
<title>Node4&#45;&gt;Node13</title>
<path fill="none" stroke="midnightblue" d="M1668.22,-134.84C1665.96,-134.53 1663.71,-134.25 1661.5,-134 1584.96,-125.36 335.21,-146.66 275.5,-98 255.68,-81.84 254.13,-49.38 255.1,-30.67"/>
<polygon fill="midnightblue" stroke="midnightblue" points="1667.81,-138.32 1678.23,-136.37 1668.87,-131.4 1667.81,-138.32"/>
</g>
<!-- Node14 -->
<g id="node10" class="node">
<title>Node14</title>
<g id="a_node10"><a xlink:href="d__file__sel__info_8h.html" target="_top" xlink:title=" ">
<polygon fill="white" stroke="red" points="284.5,-67.5 284.5,-97.5 380.5,-97.5 380.5,-67.5 284.5,-67.5"/>
<text text-anchor="start" x="292.5" y="-85.5" font-family="Helvetica,sans-Serif" font-size="10.00">include/d/file/d_file</text>
<text text-anchor="middle" x="332.5" y="-74.5" font-family="Helvetica,sans-Serif" font-size="10.00">_sel_info.h</text>
</a>
</g>
</g>
<!-- Node4&#45;&gt;Node14 -->
<g id="edge9" class="edge">
<title>Node4&#45;&gt;Node14</title>
<path fill="none" stroke="midnightblue" d="M1668.22,-134.85C1665.96,-134.54 1663.71,-134.25 1661.5,-134 1099.58,-69.94 949.63,-176.19 389.5,-98 386.57,-97.59 383.57,-97.09 380.55,-96.52"/>
<polygon fill="midnightblue" stroke="midnightblue" points="1667.81,-138.33 1678.23,-136.38 1668.87,-131.41 1667.81,-138.33"/>
</g>
<!-- Node16 -->
<g id="node11" class="node">
<title>Node16</title>
<g id="a_node11"><a xlink:href="d__meter2_8h.html" target="_top" xlink:title=" ">
<polygon fill="white" stroke="red" points="398.5,-73 398.5,-92 532.5,-92 532.5,-73 398.5,-73"/>
<text text-anchor="middle" x="465.5" y="-80" font-family="Helvetica,sans-Serif" font-size="10.00">include/d/meter/d_meter2.h</text>
</a>
</g>
</g>
<!-- Node4&#45;&gt;Node16 -->
<g id="edge10" class="edge">
<title>Node4&#45;&gt;Node16</title>
<path fill="none" stroke="midnightblue" d="M1668.22,-134.86C1665.96,-134.55 1663.71,-134.26 1661.5,-134 1168.99,-76.86 1039.6,-149.82 546.5,-98 533.43,-96.63 519.29,-94.37 506.54,-92.04"/>
<polygon fill="midnightblue" stroke="midnightblue" points="1667.81,-138.34 1678.22,-136.4 1668.87,-131.42 1667.81,-138.34"/>
</g>
<!-- Node24 -->
<g id="node12" class="node">
<title>Node24</title>
<g id="a_node12"><a xlink:href="d__msg__object_8h.html" target="_top" xlink:title=" ">
<polygon fill="white" stroke="red" points="626.5,-67.5 626.5,-97.5 736.5,-97.5 736.5,-67.5 626.5,-67.5"/>
<text text-anchor="start" x="634.5" y="-85.5" font-family="Helvetica,sans-Serif" font-size="10.00">include/d/msg/d_msg</text>
<text text-anchor="middle" x="681.5" y="-74.5" font-family="Helvetica,sans-Serif" font-size="10.00">_object.h</text>
</a>
</g>
</g>
<!-- Node4&#45;&gt;Node24 -->
<g id="edge11" class="edge">
<title>Node4&#45;&gt;Node24</title>
<path fill="none" stroke="midnightblue" d="M1668.22,-134.88C1665.96,-134.56 1663.71,-134.26 1661.5,-134 1259.17,-85.85 1152.63,-147.84 750.5,-98 746.01,-97.44 741.37,-96.74 736.72,-95.96"/>
<polygon fill="midnightblue" stroke="midnightblue" points="1667.8,-138.36 1678.22,-136.44 1668.88,-131.44 1667.8,-138.36"/>
</g>
<!-- Node25 -->
<g id="node13" class="node">
<title>Node25</title>
<g id="a_node13"><a xlink:href="d__kankyo_8cpp.html" target="_top" xlink:title=" ">
<polygon fill="white" stroke="black" points="372.5,-6 372.5,-25 506.5,-25 506.5,-6 372.5,-6"/>
<text text-anchor="middle" x="439.5" y="-13" font-family="Helvetica,sans-Serif" font-size="10.00">src/d/kankyo/d_kankyo.cpp</text>
</a>
</g>
</g>
<!-- Node4&#45;&gt;Node25 -->
<g id="edge32" class="edge">
<title>Node4&#45;&gt;Node25</title>
<path fill="none" stroke="midnightblue" d="M1668.22,-134.87C1665.96,-134.55 1663.71,-134.26 1661.5,-134 1426.74,-106.58 826.55,-160.13 598.5,-98 570.68,-90.42 567.09,-80.29 541.5,-67 512.21,-51.79 477.73,-34.94 457.29,-25.05"/>
<polygon fill="midnightblue" stroke="midnightblue" points="1667.8,-138.34 1678.22,-136.41 1668.87,-131.43 1667.8,-138.34"/>
</g>
<!-- Node19 -->
<g id="node14" class="node">
<title>Node19</title>
<g id="a_node14"><a xlink:href="d__menu__window_8cpp.html" target="_top" xlink:title=" ">
<polygon fill="white" stroke="black" points="525,-6 525,-25 684,-25 684,-6 525,-6"/>
<text text-anchor="middle" x="604.5" y="-13" font-family="Helvetica,sans-Serif" font-size="10.00">src/d/menu/d_menu_window.cpp</text>
</a>
</g>
</g>
<!-- Node4&#45;&gt;Node19 -->
<g id="edge34" class="edge">
<title>Node4&#45;&gt;Node19</title>
<path fill="none" stroke="midnightblue" d="M1668.22,-134.87C1665.96,-134.55 1663.71,-134.26 1661.5,-134 1603.86,-127.25 660.99,-136.42 617.5,-98 596.56,-79.5 599.98,-41.9 602.8,-25.03"/>
<polygon fill="midnightblue" stroke="midnightblue" points="1667.8,-138.35 1678.22,-136.41 1668.87,-131.43 1667.8,-138.35"/>
</g>
<!-- Node21 -->
<g id="node15" class="node">
<title>Node21</title>
<g id="a_node15"><a xlink:href="d__meter2__info_8cpp.html" target="_top" xlink:title=" ">
<polygon fill="white" stroke="black" points="702.5,-0.5 702.5,-30.5 812.5,-30.5 812.5,-0.5 702.5,-0.5"/>
<text text-anchor="start" x="710.5" y="-18.5" font-family="Helvetica,sans-Serif" font-size="10.00">src/d/meter/d_meter2</text>
<text text-anchor="middle" x="757.5" y="-7.5" font-family="Helvetica,sans-Serif" font-size="10.00">_info.cpp</text>
</a>
</g>
</g>
<!-- Node4&#45;&gt;Node21 -->
<g id="edge37" class="edge">
<title>Node4&#45;&gt;Node21</title>
<path fill="none" stroke="midnightblue" d="M1668.22,-134.89C1665.96,-134.57 1663.71,-134.27 1661.5,-134 1567.66,-122.63 893.82,-144.47 811.5,-98 785.34,-83.23 769.54,-49.92 762.28,-30.77"/>
<polygon fill="midnightblue" stroke="midnightblue" points="1667.79,-138.37 1678.22,-136.46 1668.88,-131.45 1667.79,-138.37"/>
</g>
<!-- Node20 -->
<g id="node16" class="node">
<title>Node20</title>
<g id="a_node16"><a xlink:href="d__meter__map_8cpp.html" target="_top" xlink:title=" ">
<polygon fill="white" stroke="black" points="830.5,-0.5 830.5,-30.5 934.5,-30.5 934.5,-0.5 830.5,-0.5"/>
<text text-anchor="start" x="838.5" y="-18.5" font-family="Helvetica,sans-Serif" font-size="10.00">src/d/meter/d_meter</text>
<text text-anchor="middle" x="882.5" y="-7.5" font-family="Helvetica,sans-Serif" font-size="10.00">_map.cpp</text>
</a>
</g>
</g>
<!-- Node4&#45;&gt;Node20 -->
<g id="edge38" class="edge">
<title>Node4&#45;&gt;Node20</title>
<path fill="none" stroke="midnightblue" d="M1668.22,-134.89C1665.96,-134.57 1663.71,-134.27 1661.5,-134 1615.13,-128.37 853.81,-131.73 821.5,-98 800.71,-76.3 834.43,-47.48 859.44,-30.57"/>
<polygon fill="midnightblue" stroke="midnightblue" points="1667.79,-138.37 1678.22,-136.46 1668.88,-131.45 1667.79,-138.37"/>
</g>
<!-- Node27 -->
<g id="node17" class="node">
<title>Node27</title>
<g id="a_node17"><a xlink:href="d__s__play_8h.html" target="_top" xlink:title=" ">
<polygon fill="white" stroke="red" points="831,-73 831,-92 944,-92 944,-73 831,-73"/>
<text text-anchor="middle" x="887.5" y="-80" font-family="Helvetica,sans-Serif" font-size="10.00">include/d/s/d_s_play.h</text>
</a>
</g>
</g>
<!-- Node4&#45;&gt;Node27 -->
<g id="edge17" class="edge">
<title>Node4&#45;&gt;Node27</title>
<path fill="none" stroke="midnightblue" d="M1668.22,-134.92C1665.95,-134.58 1663.71,-134.28 1661.5,-134 1348.88,-94.79 1265.77,-139.95 953.5,-98 942.92,-96.58 931.52,-94.34 921.22,-92.03"/>
<polygon fill="midnightblue" stroke="midnightblue" points="1667.78,-138.39 1678.21,-136.51 1668.89,-131.48 1667.78,-138.39"/>
</g>
<!-- Node4&#45;&gt;Node28 -->
<g id="edge18" class="edge">
<title>Node4&#45;&gt;Node28</title>
<path fill="none" stroke="midnightblue" d="M1668.23,-134.84C1665.96,-134.53 1663.71,-134.25 1661.5,-134 979.32,-57.95 798.57,-183.42 117.5,-98 107.14,-96.7 96,-94.43 86,-92.07"/>
<polygon fill="midnightblue" stroke="midnightblue" points="1667.82,-138.31 1678.23,-136.35 1668.87,-131.39 1667.82,-138.31"/>
</g>
<!-- Node29 -->
<g id="node19" class="node">
<title>Node29</title>
<g id="a_node19"><a xlink:href="d__a__player_8cpp.html" target="_top" xlink:title=" ">
<polygon fill="white" stroke="black" points="962.5,-73 962.5,-92 1076.5,-92 1076.5,-73 962.5,-73"/>
<text text-anchor="middle" x="1019.5" y="-80" font-family="Helvetica,sans-Serif" font-size="10.00">src/d/a/d_a_player.cpp</text>
</a>
</g>
</g>
<!-- Node4&#45;&gt;Node29 -->
<g id="edge19" class="edge">
<title>Node4&#45;&gt;Node29</title>
<path fill="none" stroke="midnightblue" d="M1668.21,-134.95C1665.95,-134.61 1663.71,-134.29 1661.5,-134 1407.18,-100.6 1339.51,-133.63 1085.5,-98 1075.04,-96.53 1063.78,-94.31 1053.57,-92.03"/>
<polygon fill="midnightblue" stroke="midnightblue" points="1667.77,-138.42 1678.2,-136.57 1668.89,-131.51 1667.77,-138.42"/>
</g>
<!-- Node4&#45;&gt;Node30 -->
<g id="edge20" class="edge">
<title>Node4&#45;&gt;Node30</title>
<path fill="none" stroke="midnightblue" d="M1798.75,-145.38C1867.18,-142.19 1977.88,-137.25 2073.5,-134 2388.75,-123.28 3179.36,-136.02 3492.5,-98 3503.33,-96.69 3515,-94.41 3525.48,-92.05"/>
<polygon fill="midnightblue" stroke="midnightblue" points="1798.37,-141.9 1788.55,-145.86 1798.7,-148.89 1798.37,-141.9"/>
</g>
<!-- Node31 -->
<g id="node21" class="node">
<title>Node31</title>
<g id="a_node21"><a xlink:href="d__bg__s__movebg__actor_8cpp.html" target="_top" xlink:title=" ">
<polygon fill="white" stroke="black" points="3754.5,-67.5 3754.5,-97.5 3880.5,-97.5 3880.5,-67.5 3754.5,-67.5"/>
<text text-anchor="start" x="3762.5" y="-85.5" font-family="Helvetica,sans-Serif" font-size="10.00">src/d/bg/d_bg_s_movebg</text>
<text text-anchor="middle" x="3817.5" y="-74.5" font-family="Helvetica,sans-Serif" font-size="10.00">_actor.cpp</text>
</a>
</g>
</g>
<!-- Node4&#45;&gt;Node31 -->
<g id="edge21" class="edge">
<title>Node4&#45;&gt;Node31</title>
<path fill="none" stroke="midnightblue" d="M1798.84,-148.39C2099.91,-147.63 3355.37,-141.84 3745.5,-98 3748.41,-97.67 3751.39,-97.29 3754.38,-96.86"/>
<polygon fill="midnightblue" stroke="midnightblue" points="1798.53,-144.89 1788.54,-148.41 1798.54,-151.89 1798.53,-144.89"/>
</g>
<!-- Node32 -->
<g id="node22" class="node">
<title>Node32</title>
<g id="a_node22"><a xlink:href="d__bg__w_8cpp.html" target="_top" xlink:title=" ">
<polygon fill="white" stroke="black" points="3629,-73 3629,-92 3736,-92 3736,-73 3629,-73"/>
<text text-anchor="middle" x="3682.5" y="-80" font-family="Helvetica,sans-Serif" font-size="10.00">src/d/bg/d_bg_w.cpp</text>
</a>
</g>
</g>
<!-- Node4&#45;&gt;Node32 -->
<g id="edge22" class="edge">
<title>Node4&#45;&gt;Node32</title>
<path fill="none" stroke="midnightblue" d="M1798.83,-146.5C1893.22,-143.64 2073.25,-138.23 2226.5,-134 2536.04,-125.45 3312.3,-136.92 3619.5,-98 3629.86,-96.69 3641,-94.42 3651,-92.05"/>
<polygon fill="midnightblue" stroke="midnightblue" points="1798.47,-143.01 1788.58,-146.82 1798.68,-150.01 1798.47,-143.01"/>
</g>
<!-- Node33 -->
<g id="node23" class="node">
<title>Node33</title>
<g id="a_node23"><a xlink:href="d__cc__s_8cpp.html" target="_top" xlink:title=" ">
<polygon fill="white" stroke="black" points="1094.5,-73 1094.5,-92 1198.5,-92 1198.5,-73 1094.5,-73"/>
<text text-anchor="middle" x="1146.5" y="-80" font-family="Helvetica,sans-Serif" font-size="10.00">src/d/cc/d_cc_s.cpp</text>
</a>
</g>
</g>
<!-- Node4&#45;&gt;Node33 -->
<g id="edge23" class="edge">
<title>Node4&#45;&gt;Node33</title>
<path fill="none" stroke="midnightblue" d="M1668.21,-135C1665.95,-134.64 1663.71,-134.31 1661.5,-134 1461.04,-105.97 1407.45,-129.5 1207.5,-98 1197.93,-96.49 1187.64,-94.28 1178.29,-92.04"/>
<polygon fill="midnightblue" stroke="midnightblue" points="1667.75,-138.47 1678.19,-136.67 1668.9,-131.56 1667.75,-138.47"/>
</g>
<!-- Node34 -->
<g id="node24" class="node">
<title>Node34</title>
<g id="a_node24"><a xlink:href="d__eye__hl_8cpp.html" target="_top" xlink:title=" ">
<polygon fill="white" stroke="black" points="1216.5,-73 1216.5,-92 1314.5,-92 1314.5,-73 1216.5,-73"/>
<text text-anchor="middle" x="1265.5" y="-80" font-family="Helvetica,sans-Serif" font-size="10.00">src/d/d_eye_hl.cpp</text>
</a>
</g>
</g>
<!-- Node4&#45;&gt;Node34 -->
<g id="edge25" class="edge">
<title>Node4&#45;&gt;Node34</title>
<path fill="none" stroke="midnightblue" d="M1668.19,-135.07C1665.94,-134.7 1663.7,-134.34 1661.5,-134 1512.18,-111.06 1472.25,-124.38 1323.5,-98 1314.61,-96.42 1305.06,-94.24 1296.33,-92.05"/>
<polygon fill="midnightblue" stroke="midnightblue" points="1667.71,-138.54 1678.17,-136.82 1668.92,-131.65 1667.71,-138.54"/>
</g>
<!-- Node35 -->
<g id="node25" class="node">
<title>Node35</title>
<g id="a_node25"><a xlink:href="d__kyeff_8cpp.html" target="_top" xlink:title=" ">
<polygon fill="white" stroke="black" points="1332.5,-73 1332.5,-92 1422.5,-92 1422.5,-73 1332.5,-73"/>
<text text-anchor="middle" x="1377.5" y="-80" font-family="Helvetica,sans-Serif" font-size="10.00">src/d/d_kyeff.cpp</text>
</a>
</g>
</g>
<!-- Node4&#45;&gt;Node35 -->
<g id="edge26" class="edge">
<title>Node4&#45;&gt;Node35</title>
<path fill="none" stroke="midnightblue" d="M1668.17,-135.21C1665.92,-134.8 1663.69,-134.39 1661.5,-134 1559.65,-115.78 1532.72,-119.45 1431.5,-98 1423.52,-96.31 1414.97,-94.17 1407.07,-92.05"/>
<polygon fill="midnightblue" stroke="midnightblue" points="1667.64,-138.68 1678.12,-137.09 1668.94,-131.8 1667.64,-138.68"/>
</g>
<!-- Node36 -->
<g id="node26" class="node">
<title>Node36</title>
<g id="a_node26"><a xlink:href="d__resorce_8cpp.html" target="_top" xlink:title=" ">
<polygon fill="white" stroke="black" points="1440.5,-73 1440.5,-92 1542.5,-92 1542.5,-73 1440.5,-73"/>
<text text-anchor="middle" x="1491.5" y="-80" font-family="Helvetica,sans-Serif" font-size="10.00">src/d/d_resorce.cpp</text>
</a>
</g>
</g>
<!-- Node4&#45;&gt;Node36 -->
<g id="edge27" class="edge">
<title>Node4&#45;&gt;Node36</title>
<path fill="none" stroke="midnightblue" d="M1671.44,-131.83C1624.08,-119.11 1560.77,-102.11 1523.25,-92.03"/>
<polygon fill="midnightblue" stroke="midnightblue" points="1670.72,-135.26 1681.29,-134.48 1672.54,-128.5 1670.72,-135.26"/>
</g>
<!-- Node37 -->
<g id="node27" class="node">
<title>Node37</title>
<g id="a_node27"><a xlink:href="d__stage_8cpp.html" target="_top" xlink:title=" ">
<polygon fill="white" stroke="black" points="1560.5,-73 1560.5,-92 1654.5,-92 1654.5,-73 1560.5,-73"/>
<text text-anchor="middle" x="1607.5" y="-80" font-family="Helvetica,sans-Serif" font-size="10.00">src/d/d_stage.cpp</text>
</a>
</g>
</g>
<!-- Node4&#45;&gt;Node37 -->
<g id="edge28" class="edge">
<title>Node4&#45;&gt;Node37</title>
<path fill="none" stroke="midnightblue" d="M1697.26,-129.8C1673.1,-117.34 1642.5,-101.56 1623.99,-92.01"/>
<polygon fill="midnightblue" stroke="midnightblue" points="1695.67,-132.92 1706.16,-134.4 1698.88,-126.7 1695.67,-132.92"/>
</g>
<!-- Node38 -->
<g id="node28" class="node">
<title>Node38</title>
<g id="a_node28"><a xlink:href="d__event_8cpp.html" target="_top" xlink:title=" ">
<polygon fill="white" stroke="black" points="1673,-73 1673,-92 1794,-92 1794,-73 1673,-73"/>
<text text-anchor="middle" x="1733.5" y="-80" font-family="Helvetica,sans-Serif" font-size="10.00">src/d/event/d_event.cpp</text>
</a>
</g>
</g>
<!-- Node4&#45;&gt;Node38 -->
<g id="edge29" class="edge">
<title>Node4&#45;&gt;Node38</title>
<path fill="none" stroke="midnightblue" d="M1733.5,-124.25C1733.5,-113.02 1733.5,-100.38 1733.5,-92.19"/>
<polygon fill="midnightblue" stroke="midnightblue" points="1730,-124.4 1733.5,-134.4 1737,-124.4 1730,-124.4"/>
</g>
<!-- Node39 -->
<g id="node29" class="node">
<title>Node39</title>
<g id="a_node29"><a xlink:href="d__event__data_8cpp.html" target="_top" xlink:title=" ">
<polygon fill="white" stroke="black" points="1812,-67.5 1812,-97.5 1915,-97.5 1915,-67.5 1812,-67.5"/>
<text text-anchor="start" x="1820" y="-85.5" font-family="Helvetica,sans-Serif" font-size="10.00">src/d/event/d_event</text>
<text text-anchor="middle" x="1863.5" y="-74.5" font-family="Helvetica,sans-Serif" font-size="10.00">_data.cpp</text>
</a>
</g>
</g>
<!-- Node4&#45;&gt;Node39 -->
<g id="edge30" class="edge">
<title>Node4&#45;&gt;Node39</title>
<path fill="none" stroke="midnightblue" d="M1770.79,-129.85C1791.35,-119.58 1816.45,-107.03 1835.35,-97.58"/>
<polygon fill="midnightblue" stroke="midnightblue" points="1769.09,-126.79 1761.71,-134.4 1772.22,-133.05 1769.09,-126.79"/>
</g>
<!-- Node40 -->
<g id="node30" class="node">
<title>Node40</title>
<g id="a_node30"><a xlink:href="d__event__manager_8cpp.html" target="_top" xlink:title=" ">
<polygon fill="white" stroke="black" points="1933,-67.5 1933,-97.5 2036,-97.5 2036,-67.5 1933,-67.5"/>
<text text-anchor="start" x="1941" y="-85.5" font-family="Helvetica,sans-Serif" font-size="10.00">src/d/event/d_event</text>
<text text-anchor="middle" x="1984.5" y="-74.5" font-family="Helvetica,sans-Serif" font-size="10.00">_manager.cpp</text>
</a>
</g>
</g>
<!-- Node4&#45;&gt;Node40 -->
<g id="edge31" class="edge">
<title>Node4&#45;&gt;Node40</title>
<path fill="none" stroke="midnightblue" d="M1797.48,-131.93C1839.36,-121.09 1893.38,-107.1 1932.59,-96.94"/>
<polygon fill="midnightblue" stroke="midnightblue" points="1796.46,-128.58 1787.65,-134.48 1798.21,-135.36 1796.46,-128.58"/>
</g>
<!-- Node41 -->
<g id="node31" class="node">
<title>Node41</title>
<g id="a_node31"><a xlink:href="d__kankyo__wether_8cpp.html" target="_top" xlink:title=" ">
<polygon fill="white" stroke="black" points="2054.5,-67.5 2054.5,-97.5 2170.5,-97.5 2170.5,-67.5 2054.5,-67.5"/>
<text text-anchor="start" x="2062.5" y="-85.5" font-family="Helvetica,sans-Serif" font-size="10.00">src/d/kankyo/d_kankyo</text>
<text text-anchor="middle" x="2112.5" y="-74.5" font-family="Helvetica,sans-Serif" font-size="10.00">_wether.cpp</text>
</a>
</g>
</g>
<!-- Node4&#45;&gt;Node41 -->
<g id="edge33" class="edge">
<title>Node4&#45;&gt;Node41</title>
<path fill="none" stroke="midnightblue" d="M1798.83,-138.95C1862.08,-129.46 1960.59,-114.05 2045.5,-98 2048.42,-97.45 2051.42,-96.86 2054.43,-96.26"/>
<polygon fill="midnightblue" stroke="midnightblue" points="1797.98,-135.54 1788.6,-140.48 1799.01,-142.46 1797.98,-135.54"/>
</g>
<!-- Node42 -->
<g id="node32" class="node">
<title>Node42</title>
<g id="a_node32"><a xlink:href="d__menu__window__HIO_8cpp.html" target="_top" xlink:title=" ">
<polygon fill="white" stroke="black" points="2189,-67.5 2189,-97.5 2330,-97.5 2330,-67.5 2189,-67.5"/>
<text text-anchor="start" x="2197" y="-85.5" font-family="Helvetica,sans-Serif" font-size="10.00">src/d/menu/d_menu_window</text>
<text text-anchor="middle" x="2259.5" y="-74.5" font-family="Helvetica,sans-Serif" font-size="10.00">_HIO.cpp</text>
</a>
</g>
</g>
<!-- Node4&#45;&gt;Node42 -->
<g id="edge35" class="edge">
<title>Node4&#45;&gt;Node42</title>
<path fill="none" stroke="midnightblue" d="M1798.57,-142.5C1885.58,-134.17 2044.53,-117.85 2179.5,-98 2182.57,-97.55 2185.71,-97.07 2188.87,-96.56"/>
<polygon fill="midnightblue" stroke="midnightblue" points="1798.2,-139.02 1788.58,-143.45 1798.87,-145.99 1798.2,-139.02"/>
</g>
<!-- Node43 -->
<g id="node33" class="node">
<title>Node43</title>
<g id="a_node33"><a xlink:href="d__msg__flow_8cpp.html" target="_top" xlink:title=" ">
<polygon fill="white" stroke="black" points="2348,-73 2348,-92 2481,-92 2481,-73 2348,-73"/>
<text text-anchor="middle" x="2414.5" y="-80" font-family="Helvetica,sans-Serif" font-size="10.00">src/d/msg/d_msg_flow.cpp</text>
</a>
</g>
</g>
<!-- Node4&#45;&gt;Node43 -->
<g id="edge39" class="edge">
<title>Node4&#45;&gt;Node43</title>
<path fill="none" stroke="midnightblue" d="M1798.94,-145.37C1910.33,-139.51 2143.77,-125 2339.5,-98 2350.93,-96.42 2363.25,-94.24 2374.54,-92.05"/>
<polygon fill="midnightblue" stroke="midnightblue" points="1798.67,-141.87 1788.87,-145.89 1799.03,-148.86 1798.67,-141.87"/>
</g>
<!-- Node44 -->
<g id="node34" class="node">
<title>Node44</title>
<g id="a_node34"><a xlink:href="d__s__room_8cpp.html" target="_top" xlink:title=" ">
<polygon fill="white" stroke="black" points="2499.5,-73 2499.5,-92 2609.5,-92 2609.5,-73 2499.5,-73"/>
<text text-anchor="middle" x="2554.5" y="-80" font-family="Helvetica,sans-Serif" font-size="10.00">src/d/s/d_s_room.cpp</text>
</a>
</g>
</g>
<!-- Node4&#45;&gt;Node44 -->
<g id="edge40" class="edge">
<title>Node4&#45;&gt;Node44</title>
<path fill="none" stroke="midnightblue" d="M1798.58,-145.47C1956.67,-137.89 2357.7,-117.35 2490.5,-98 2500.65,-96.52 2511.57,-94.29 2521.47,-92.02"/>
<polygon fill="midnightblue" stroke="midnightblue" points="1798.34,-141.98 1788.52,-145.95 1798.68,-148.97 1798.34,-141.98"/>
</g>
<!-- Node22 -->
<g id="node35" class="node">
<title>Node22</title>
<g id="a_node35"><a xlink:href="d__save_8cpp.html" target="_top" xlink:title=" ">
<polygon fill="white" stroke="black" points="2628,-73 2628,-92 2743,-92 2743,-73 2628,-73"/>
<text text-anchor="middle" x="2685.5" y="-80" font-family="Helvetica,sans-Serif" font-size="10.00">src/d/save/d_save.cpp</text>
</a>
</g>
</g>
<!-- Node4&#45;&gt;Node22 -->
<g id="edge41" class="edge">
<title>Node4&#45;&gt;Node22</title>
<path fill="none" stroke="midnightblue" d="M1798.82,-145.36C1989.68,-136.12 2538.11,-108.92 2618.5,-98 2629.11,-96.56 2640.55,-94.34 2650.91,-92.06"/>
<polygon fill="midnightblue" stroke="midnightblue" points="1798.47,-141.88 1788.65,-145.86 1798.81,-148.87 1798.47,-141.88"/>
</g>
<!-- Node45 -->
<g id="node36" class="node">
<title>Node45</title>
<g id="a_node36"><a xlink:href="m__Do__graphic_8cpp.html" target="_top" xlink:title=" ">
<polygon fill="white" stroke="black" points="2761.5,-73 2761.5,-92 2903.5,-92 2903.5,-73 2761.5,-73"/>
<text text-anchor="middle" x="2832.5" y="-80" font-family="Helvetica,sans-Serif" font-size="10.00">src/m_Do/m_Do_graphic.cpp</text>
</a>
</g>
</g>
<!-- Node4&#45;&gt;Node45 -->
<g id="edge42" class="edge">
<title>Node4&#45;&gt;Node45</title>
<path fill="none" stroke="midnightblue" d="M1798.78,-145.76C2008.72,-136.87 2658.3,-108.83 2752.5,-98 2765.12,-96.55 2778.76,-94.33 2791.13,-92.05"/>
<polygon fill="midnightblue" stroke="midnightblue" points="1798.38,-142.27 1788.53,-146.19 1798.67,-149.27 1798.38,-142.27"/>
</g>
<!-- Node46 -->
<g id="node37" class="node">
<title>Node46</title>
<g id="a_node37"><a xlink:href="m__Do__machine__exception_8cpp.html" target="_top" xlink:title=" ">
<polygon fill="white" stroke="black" points="2922,-67.5 2922,-97.5 3051,-97.5 3051,-67.5 2922,-67.5"/>
<text text-anchor="start" x="2930" y="-85.5" font-family="Helvetica,sans-Serif" font-size="10.00">src/m_Do/m_Do_machine</text>
<text text-anchor="middle" x="2986.5" y="-74.5" font-family="Helvetica,sans-Serif" font-size="10.00">_exception.cpp</text>
</a>
</g>
</g>
<!-- Node4&#45;&gt;Node46 -->
<g id="edge43" class="edge">
<title>Node4&#45;&gt;Node46</title>
<path fill="none" stroke="midnightblue" d="M1798.97,-145.7C2046.42,-135.13 2910.76,-98.21 2912.5,-98 2915.49,-97.65 2918.54,-97.24 2921.62,-96.79"/>
<polygon fill="midnightblue" stroke="midnightblue" points="1798.53,-142.22 1788.69,-146.14 1798.83,-149.21 1798.53,-142.22"/>
</g>
<!-- Node47 -->
<g id="node38" class="node">
<title>Node47</title>
<g id="a_node38"><a xlink:href="m__Do__main_8cpp.html" target="_top" xlink:title=" ">
<polygon fill="white" stroke="black" points="3069,-73 3069,-92 3200,-92 3200,-73 3069,-73"/>
<text text-anchor="middle" x="3134.5" y="-80" font-family="Helvetica,sans-Serif" font-size="10.00">src/m_Do/m_Do_main.cpp</text>
</a>
</g>
</g>
<!-- Node4&#45;&gt;Node47 -->
<g id="edge44" class="edge">
<title>Node4&#45;&gt;Node47</title>
<path fill="none" stroke="midnightblue" d="M1798.76,-145.6C1867.2,-142.58 1977.9,-137.78 2073.5,-134 2512.12,-116.65 2624.44,-148.36 3060.5,-98 3072.46,-96.62 3085.39,-94.36 3097.03,-92.03"/>
<polygon fill="midnightblue" stroke="midnightblue" points="1798.39,-142.11 1788.56,-146.05 1798.7,-149.1 1798.39,-142.11"/>
</g>
<!-- Node7&#45;&gt;Node8 -->
<g id="edge6" class="edge">
<title>Node7&#45;&gt;Node8</title>
<path fill="none" stroke="midnightblue" d="M3412.71,-64.03C3418.84,-53.56 3426.53,-40.4 3432.26,-30.59"/>
<polygon fill="midnightblue" stroke="midnightblue" points="3409.65,-62.33 3407.62,-72.73 3415.69,-65.87 3409.65,-62.33"/>
</g>
<!-- Node11&#45;&gt;Node13 -->
<g id="edge8" class="edge">
<title>Node11&#45;&gt;Node13</title>
<path fill="none" stroke="midnightblue" d="M202.56,-60.88C214.56,-51.01 228.63,-39.43 239.39,-30.58"/>
<polygon fill="midnightblue" stroke="midnightblue" points="200.14,-58.34 194.64,-67.4 204.59,-63.75 200.14,-58.34"/>
</g>
<!-- Node24&#45;&gt;Node13 -->
<g id="edge14" class="edge">
<title>Node24&#45;&gt;Node13</title>
<path fill="none" stroke="midnightblue" d="M616.25,-71.52C532.8,-58.76 389.74,-36.88 311.53,-24.92"/>
<polygon fill="midnightblue" stroke="midnightblue" points="615.96,-75.02 626.37,-73.07 617.02,-68.1 615.96,-75.02"/>
</g>
<!-- Node24&#45;&gt;Node25 -->
<g id="edge12" class="edge">
<title>Node24&#45;&gt;Node25</title>
<path fill="none" stroke="midnightblue" d="M619.44,-64.83C572.08,-52.11 508.77,-35.11 471.25,-25.03"/>
<polygon fill="midnightblue" stroke="midnightblue" points="618.72,-68.26 629.29,-67.48 620.54,-61.5 618.72,-68.26"/>
</g>
<!-- Node24&#45;&gt;Node19 -->
<g id="edge13" class="edge">
<title>Node24&#45;&gt;Node19</title>
<path fill="none" stroke="midnightblue" d="M656.83,-60.67C642.61,-48.67 625.49,-34.22 614.8,-25.19"/>
<polygon fill="midnightblue" stroke="midnightblue" points="654.89,-63.62 664.79,-67.4 659.41,-58.27 654.89,-63.62"/>
</g>
<!-- Node24&#45;&gt;Node21 -->
<g id="edge15" class="edge">
<title>Node24&#45;&gt;Node21</title>
<path fill="none" stroke="midnightblue" d="M705.61,-60.88C717.16,-51.01 730.69,-39.43 741.04,-30.58"/>
<polygon fill="midnightblue" stroke="midnightblue" points="703.32,-58.24 697.99,-67.4 707.87,-63.56 703.32,-58.24"/>
</g>
<!-- Node24&#45;&gt;Node20 -->
<g id="edge16" class="edge">
<title>Node24&#45;&gt;Node20</title>
<path fill="none" stroke="midnightblue" d="M734.91,-64.23C767.43,-53.71 808.44,-40.45 838.97,-30.58"/>
<polygon fill="midnightblue" stroke="midnightblue" points="733.55,-60.99 725.11,-67.4 735.71,-67.65 733.55,-60.99"/>
</g>
<!-- Node48&#45;&gt;Node28 -->
<g id="edge49" class="edge">
<title>Node48&#45;&gt;Node28</title>
<path fill="none" stroke="midnightblue" d="M1608.11,-191.14C1607.88,-172.4 1604.08,-147.49 1587.5,-134 1524.14,-82.44 198.55,-108.21 117.5,-98 107.14,-96.7 96,-94.42 86,-92.06"/>
<polygon fill="midnightblue" stroke="midnightblue" points="1604.61,-191.26 1607.9,-201.33 1611.6,-191.4 1604.61,-191.26"/>
</g>
<!-- Node49 -->
<g id="node40" class="node">
<title>Node49</title>
<g id="a_node40"><a xlink:href="d__a__e__wb_8h.html" target="_top" xlink:title=" ">
<polygon fill="white" stroke="red" points="1468.5,-134.5 1468.5,-164.5 1578.5,-164.5 1578.5,-134.5 1468.5,-134.5"/>
<text text-anchor="start" x="1476.5" y="-152.5" font-family="Helvetica,sans-Serif" font-size="10.00">include/rel/d/a/e/d</text>
<text text-anchor="middle" x="1523.5" y="-141.5" font-family="Helvetica,sans-Serif" font-size="10.00">_a_e_wb/d_a_e_wb.h</text>
</a>
</g>
</g>
<!-- Node48&#45;&gt;Node49 -->
<g id="edge48" class="edge">
<title>Node48&#45;&gt;Node49</title>
<path fill="none" stroke="midnightblue" d="M1580.54,-195.17C1567.85,-185.23 1552.89,-173.51 1541.47,-164.58"/>
<polygon fill="midnightblue" stroke="midnightblue" points="1578.46,-197.99 1588.49,-201.4 1582.78,-192.47 1578.46,-197.99"/>
</g>
<!-- Node54 -->
<g id="node43" class="node">
<title>Node54</title>
<g id="a_node43"><a xlink:href="d__bg__s__acch_8h.html" target="_top" xlink:title=" ">
<polygon fill="white" stroke="red" points="1808.5,-469.5 1808.5,-499.5 1912.5,-499.5 1912.5,-469.5 1808.5,-469.5"/>
<text text-anchor="start" x="1816.5" y="-487.5" font-family="Helvetica,sans-Serif" font-size="10.00">include/d/bg/d_bg_s</text>
<text text-anchor="middle" x="1860.5" y="-476.5" font-family="Helvetica,sans-Serif" font-size="10.00">_acch.h</text>
</a>
</g>
</g>
<!-- Node53&#45;&gt;Node54 -->
<g id="edge53" class="edge">
<title>Node53&#45;&gt;Node54</title>
<path fill="none" stroke="midnightblue" d="M1818.98,-529.02C1828.22,-519.34 1838.87,-508.17 1847.07,-499.58"/>
<polygon fill="midnightblue" stroke="midnightblue" points="1816.32,-526.74 1811.95,-536.4 1821.39,-531.58 1816.32,-526.74"/>
</g>
<!-- Node67 -->
<g id="node49" class="node">
<title>Node67</title>
<g id="a_node49"><a xlink:href="d__bg__s__gnd__chk_8cpp.html" target="_top" xlink:title=" ">
<polygon fill="white" stroke="black" points="1683,-469.5 1683,-499.5 1790,-499.5 1790,-469.5 1683,-469.5"/>
<text text-anchor="start" x="1691" y="-487.5" font-family="Helvetica,sans-Serif" font-size="10.00">src/d/bg/d_bg_s_gnd</text>
<text text-anchor="middle" x="1736.5" y="-476.5" font-family="Helvetica,sans-Serif" font-size="10.00">_chk.cpp</text>
</a>
</g>
</g>
<!-- Node53&#45;&gt;Node67 -->
<g id="edge64" class="edge">
<title>Node53&#45;&gt;Node67</title>
<path fill="none" stroke="midnightblue" d="M1778.02,-529.02C1768.78,-519.34 1758.13,-508.17 1749.93,-499.58"/>
<polygon fill="midnightblue" stroke="midnightblue" points="1775.61,-531.58 1785.05,-536.4 1780.68,-526.74 1775.61,-531.58"/>
</g>
<!-- Node54&#45;&gt;Node52 -->
<g id="edge63" class="edge">
<title>Node54&#45;&gt;Node52</title>
<path fill="none" stroke="midnightblue" d="M1831.46,-463.59C1752.99,-409.8 1538.99,-263.08 1485,-226.07"/>
<polygon fill="midnightblue" stroke="midnightblue" points="1829.69,-466.62 1839.91,-469.39 1833.64,-460.85 1829.69,-466.62"/>
</g>
<!-- Node54&#45;&gt;Node55 -->
<g id="edge54" class="edge">
<title>Node54&#45;&gt;Node55</title>
<path fill="none" stroke="midnightblue" d="M1852.21,-459.71C1841.79,-429.81 1824.43,-380 1817.5,-360.1"/>
<polygon fill="midnightblue" stroke="midnightblue" points="1848.98,-461.08 1855.58,-469.37 1855.59,-458.78 1848.98,-461.08"/>
</g>
<!-- Node54&#45;&gt;Node57 -->
<g id="edge59" class="edge">
<title>Node54&#45;&gt;Node57</title>
<path fill="none" stroke="midnightblue" d="M1885.87,-462.88C1898.03,-453.01 1912.28,-441.43 1923.18,-432.58"/>
<polygon fill="midnightblue" stroke="midnightblue" points="1883.41,-460.37 1877.86,-469.4 1887.83,-465.81 1883.41,-460.37"/>
</g>
<!-- Node55&#45;&gt;Node2 -->
<g id="edge55" class="edge">
<title>Node55&#45;&gt;Node2</title>
<path fill="none" stroke="midnightblue" d="M1804.29,-332.03C1796.93,-319.45 1787.32,-303.01 1781.54,-293.13"/>
<polygon fill="midnightblue" stroke="midnightblue" points="1801.31,-333.87 1809.38,-340.73 1807.35,-330.33 1801.31,-333.87"/>
</g>
<!-- Node55&#45;&gt;Node32 -->
<g id="edge58" class="edge">
<title>Node55&#45;&gt;Node32</title>
<path fill="none" stroke="midnightblue" d="M1860.88,-338.82C1867.45,-337.45 1874.13,-336.13 1880.5,-335 2264.5,-266.77 3235.84,-168.14 3619.5,-98 3628.77,-96.3 3638.74,-94.16 3647.96,-92.04"/>
<polygon fill="midnightblue" stroke="midnightblue" points="1859.75,-335.48 1850.71,-340.99 1861.22,-342.32 1859.75,-335.48"/>
</g>
<!-- Node56 -->
<g id="node45" class="node">
<title>Node56</title>
<g id="a_node45"><a xlink:href="d__bg__s__movebg__actor_8h.html" target="_top" xlink:title=" ">
<polygon fill="white" stroke="black" points="2728.5,-268.5 2728.5,-298.5 2832.5,-298.5 2832.5,-268.5 2728.5,-268.5"/>
<text text-anchor="start" x="2736.5" y="-286.5" font-family="Helvetica,sans-Serif" font-size="10.00">include/d/bg/d_bg_s</text>
<text text-anchor="middle" x="2780.5" y="-275.5" font-family="Helvetica,sans-Serif" font-size="10.00">_movebg_actor.h</text>
</a>
</g>
</g>
<!-- Node55&#45;&gt;Node56 -->
<g id="edge56" class="edge">
<title>Node55&#45;&gt;Node56</title>
<path fill="none" stroke="midnightblue" d="M1858.15,-338.88C1865.57,-337.37 1873.23,-336 1880.5,-335 2200.67,-291.13 2589.92,-285.18 2728.48,-284.51"/>
<polygon fill="midnightblue" stroke="midnightblue" points="1857.28,-335.49 1848.23,-341 1858.74,-342.33 1857.28,-335.49"/>
</g>
<!-- Node56&#45;&gt;Node31 -->
<g id="edge57" class="edge">
<title>Node56&#45;&gt;Node31</title>
<path fill="none" stroke="midnightblue" d="M2842.75,-270.82C2996.21,-241.97 3404.97,-164.84 3745.5,-98 3748.38,-97.44 3751.32,-96.85 3754.29,-96.27"/>
<polygon fill="midnightblue" stroke="midnightblue" points="2841.76,-267.44 2832.58,-272.73 2843.05,-274.32 2841.76,-267.44"/>
</g>
<!-- Node57&#45;&gt;Node55 -->
<g id="edge60" class="edge">
<title>Node57&#45;&gt;Node55</title>
<path fill="none" stroke="midnightblue" d="M1904.26,-397.8C1880.1,-385.34 1849.5,-369.56 1830.99,-360.01"/>
<polygon fill="midnightblue" stroke="midnightblue" points="1902.67,-400.92 1913.16,-402.4 1905.88,-394.7 1902.67,-400.92"/>
</g>
<!-- Node58 -->
<g id="node47" class="node">
<title>Node58</title>
<g id="a_node47"><a xlink:href="d__bg__w__kcol_8h.html" target="_top" xlink:title=" ">
<polygon fill="white" stroke="red" points="2040.5,-335.5 2040.5,-365.5 2146.5,-365.5 2146.5,-335.5 2040.5,-335.5"/>
<text text-anchor="start" x="2048.5" y="-353.5" font-family="Helvetica,sans-Serif" font-size="10.00">include/d/bg/d_bg_w</text>
<text text-anchor="middle" x="2093.5" y="-342.5" font-family="Helvetica,sans-Serif" font-size="10.00">_kcol.h</text>
</a>
</g>
</g>
<!-- Node57&#45;&gt;Node58 -->
<g id="edge61" class="edge">
<title>Node57&#45;&gt;Node58</title>
<path fill="none" stroke="midnightblue" d="M1983.09,-398.41C2007.52,-388.03 2037.72,-375.2 2060.37,-365.58"/>
<polygon fill="midnightblue" stroke="midnightblue" points="1981.53,-395.26 1973.7,-402.4 1984.27,-401.71 1981.53,-395.26"/>
</g>
<!-- Node60 -->
<g id="node48" class="node">
<title>Node60</title>
<g id="a_node48"><a xlink:href="d__bg__w__base_8cpp.html" target="_top" xlink:title=" ">
<polygon fill="white" stroke="black" points="1889,-341 1889,-360 2022,-360 2022,-341 1889,-341"/>
<text text-anchor="middle" x="1955.5" y="-348" font-family="Helvetica,sans-Serif" font-size="10.00">src/d/bg/d_bg_w_base.cpp</text>
</a>
</g>
</g>
<!-- Node57&#45;&gt;Node60 -->
<g id="edge62" class="edge">
<title>Node57&#45;&gt;Node60</title>
<path fill="none" stroke="midnightblue" d="M1946.02,-392.6C1948.63,-381.28 1951.59,-368.46 1953.49,-360.19"/>
<polygon fill="midnightblue" stroke="midnightblue" points="1942.59,-391.87 1943.75,-402.4 1949.41,-393.44 1942.59,-391.87"/>
</g>
</g>
</svg>
