<?xml version="1.0" encoding="UTF-8" standalone="no"?>
<!DOCTYPE svg PUBLIC "-//W3C//DTD SVG 1.1//EN"
 "http://www.w3.org/Graphics/SVG/1.1/DTD/svg11.dtd">
<!-- Generated by graphviz version 3.0.0 (20221109.1736)
 -->
<!-- Title: include/SSystem/SComponent/c_bg_s_gnd_chk.h Pages: 1 -->
<svg width="502pt" height="285pt"
 viewBox="0.00 0.00 502.41 285.00" xmlns="http://www.w3.org/2000/svg" xmlns:xlink="http://www.w3.org/1999/xlink">
<g id="graph0" class="graph" transform="scale(1 1) rotate(0) translate(4 281)">
<title>include/SSystem/SComponent/c_bg_s_gnd_chk.h</title>
<polygon fill="white" stroke="transparent" points="-4,4 -4,-281 498.41,-281 498.41,4 -4,4"/>
<!-- Node1 -->
<g id="node1" class="node">
<title>Node1</title>
<g id="a_node1"><a xlink:title=" ">
<polygon fill="#bfbfbf" stroke="black" points="50.14,-246.5 50.14,-276.5 199.14,-276.5 199.14,-246.5 50.14,-246.5"/>
<text text-anchor="start" x="58.14" y="-264.5" font-family="Helvetica,sans-Serif" font-size="10.00">include/SSystem/SComponent</text>
<text text-anchor="middle" x="124.64" y="-253.5" font-family="Helvetica,sans-Serif" font-size="10.00">/c_bg_s_gnd_chk.h</text>
</a>
</g>
</g>
<!-- Node2 -->
<g id="node2" class="node">
<title>Node2</title>
<g id="a_node2"><a xlink:href="c__bg__s__chk_8h.html" target="_top" xlink:title=" ">
<polygon fill="white" stroke="black" points="23.64,-56.5 23.64,-86.5 139.64,-86.5 139.64,-56.5 23.64,-56.5"/>
<text text-anchor="start" x="31.64" y="-74.5" font-family="Helvetica,sans-Serif" font-size="10.00">SSystem/SComponent</text>
<text text-anchor="middle" x="81.64" y="-63.5" font-family="Helvetica,sans-Serif" font-size="10.00">/c_bg_s_chk.h</text>
</a>
</g>
</g>
<!-- Node1&#45;&gt;Node2 -->
<g id="edge1" class="edge">
<title>Node1&#45;&gt;Node2</title>
<path fill="none" stroke="midnightblue" d="M116.49,-246.38C111.15,-236.51 104.47,-222.83 100.64,-210 89.12,-171.48 84.55,-124.76 82.75,-96.89"/>
<polygon fill="midnightblue" stroke="midnightblue" points="86.25,-96.64 82.18,-86.86 79.26,-97.04 86.25,-96.64"/>
</g>
<!-- Node3 -->
<g id="node3" class="node">
<title>Node3</title>
<g id="a_node3"><a xlink:href="types_8h.html" target="_top" xlink:title=" ">
<polygon fill="white" stroke="black" points="165.14,-0.5 165.14,-19.5 246.14,-19.5 246.14,-0.5 165.14,-0.5"/>
<text text-anchor="middle" x="205.64" y="-7.5" font-family="Helvetica,sans-Serif" font-size="10.00">dolphin/types.h</text>
</a>
</g>
</g>
<!-- Node1&#45;&gt;Node3 -->
<g id="edge15" class="edge">
<title>Node1&#45;&gt;Node3</title>
<path fill="none" stroke="midnightblue" d="M106.23,-246.34C63.26,-211.6 -36.29,-120.32 14.64,-56 31.85,-34.26 104.4,-21.97 154.95,-15.91"/>
<polygon fill="midnightblue" stroke="midnightblue" points="155.53,-19.36 165.06,-14.74 154.73,-12.41 155.53,-19.36"/>
</g>
<!-- Node4 -->
<g id="node4" class="node">
<title>Node4</title>
<g id="a_node4"><a xlink:href="c__bg__s__poly__info_8h.html" target="_top" xlink:title=" ">
<polygon fill="white" stroke="black" points="109.64,-179.5 109.64,-209.5 225.64,-209.5 225.64,-179.5 109.64,-179.5"/>
<text text-anchor="start" x="117.64" y="-197.5" font-family="Helvetica,sans-Serif" font-size="10.00">SSystem/SComponent</text>
<text text-anchor="middle" x="167.64" y="-186.5" font-family="Helvetica,sans-Serif" font-size="10.00">/c_bg_s_poly_info.h</text>
</a>
</g>
</g>
<!-- Node1&#45;&gt;Node4 -->
<g id="edge3" class="edge">
<title>Node1&#45;&gt;Node4</title>
<path fill="none" stroke="midnightblue" d="M133.97,-246.4C139.43,-238.13 146.46,-227.51 152.69,-218.1"/>
<polygon fill="midnightblue" stroke="midnightblue" points="155.73,-219.85 158.32,-209.58 149.89,-215.99 155.73,-219.85"/>
</g>
<!-- Node5 -->
<g id="node5" class="node">
<title>Node5</title>
<g id="a_node5"><a xlink:href="c__xyz_8h.html" target="_top" xlink:title=" ">
<polygon fill="white" stroke="black" points="245.64,-179.5 245.64,-209.5 361.64,-209.5 361.64,-179.5 245.64,-179.5"/>
<text text-anchor="start" x="253.64" y="-197.5" font-family="Helvetica,sans-Serif" font-size="10.00">SSystem/SComponent</text>
<text text-anchor="middle" x="303.64" y="-186.5" font-family="Helvetica,sans-Serif" font-size="10.00">/c_xyz.h</text>
</a>
</g>
</g>
<!-- Node1&#45;&gt;Node5 -->
<g id="edge5" class="edge">
<title>Node1&#45;&gt;Node5</title>
<path fill="none" stroke="midnightblue" d="M163.48,-246.4C190.45,-236.6 226.58,-223.48 255.4,-213.02"/>
<polygon fill="midnightblue" stroke="midnightblue" points="256.67,-216.28 264.87,-209.58 254.28,-209.7 256.67,-216.28"/>
</g>
<!-- Node2&#45;&gt;Node3 -->
<g id="edge2" class="edge">
<title>Node2&#45;&gt;Node3</title>
<path fill="none" stroke="midnightblue" d="M111.02,-56.4C131.46,-46.59 158.5,-33.62 178.44,-24.05"/>
<polygon fill="midnightblue" stroke="midnightblue" points="180.09,-27.14 187.59,-19.66 177.06,-20.83 180.09,-27.14"/>
</g>
<!-- Node4&#45;&gt;Node3 -->
<g id="edge4" class="edge">
<title>Node4&#45;&gt;Node3</title>
<path fill="none" stroke="midnightblue" d="M170.56,-179.48C177.33,-146.96 194.11,-66.34 201.75,-29.68"/>
<polygon fill="midnightblue" stroke="midnightblue" points="205.19,-30.32 203.8,-19.82 198.34,-28.9 205.19,-30.32"/>
</g>
<!-- Node6 -->
<g id="node6" class="node">
<title>Node6</title>
<g id="a_node6"><a xlink:href="math_8h.html" target="_top" xlink:title=" ">
<polygon fill="white" stroke="black" points="195.64,-123.5 195.64,-142.5 277.64,-142.5 277.64,-123.5 195.64,-123.5"/>
<text text-anchor="middle" x="236.64" y="-130.5" font-family="Helvetica,sans-Serif" font-size="10.00">MSL_C/math.h</text>
</a>
</g>
</g>
<!-- Node5&#45;&gt;Node6 -->
<g id="edge6" class="edge">
<title>Node5&#45;&gt;Node6</title>
<path fill="none" stroke="midnightblue" d="M287.76,-179.4C277.62,-170.4 264.47,-158.72 254.05,-149.47"/>
<polygon fill="midnightblue" stroke="midnightblue" points="256.19,-146.68 246.39,-142.66 251.54,-151.92 256.19,-146.68"/>
</g>
<!-- Node9 -->
<g id="node9" class="node">
<title>Node9</title>
<g id="a_node9"><a xlink:href="vec_8h.html" target="_top" xlink:title=" ">
<polygon fill="white" stroke="black" points="233.64,-62 233.64,-81 325.64,-81 325.64,-62 233.64,-62"/>
<text text-anchor="middle" x="279.64" y="-69" font-family="Helvetica,sans-Serif" font-size="10.00">dolphin/mtx/vec.h</text>
</a>
</g>
</g>
<!-- Node5&#45;&gt;Node9 -->
<g id="edge11" class="edge">
<title>Node5&#45;&gt;Node9</title>
<path fill="none" stroke="midnightblue" d="M300.79,-179.14C296.44,-157.2 288.13,-115.33 283.32,-91.09"/>
<polygon fill="midnightblue" stroke="midnightblue" points="286.71,-90.18 281.33,-81.05 279.85,-91.54 286.71,-90.18"/>
</g>
<!-- Node10 -->
<g id="node10" class="node">
<title>Node10</title>
<g id="a_node10"><a xlink:href="global_8h.html" target="_top" xlink:title=" ">
<polygon fill="white" stroke="black" points="407.64,-123.5 407.64,-142.5 457.64,-142.5 457.64,-123.5 407.64,-123.5"/>
<text text-anchor="middle" x="432.64" y="-130.5" font-family="Helvetica,sans-Serif" font-size="10.00">global.h</text>
</a>
</g>
</g>
<!-- Node5&#45;&gt;Node10 -->
<g id="edge13" class="edge">
<title>Node5&#45;&gt;Node10</title>
<path fill="none" stroke="midnightblue" d="M334.21,-179.4C355.56,-169.55 383.85,-156.5 404.62,-146.92"/>
<polygon fill="midnightblue" stroke="midnightblue" points="406.25,-150.02 413.87,-142.66 403.32,-143.67 406.25,-150.02"/>
</g>
<!-- Node6&#45;&gt;Node3 -->
<g id="edge10" class="edge">
<title>Node6&#45;&gt;Node3</title>
<path fill="none" stroke="midnightblue" d="M234.3,-123.38C231.85,-114.33 227.91,-99.68 224.64,-87 219.6,-67.5 214.03,-45.14 210.24,-29.74"/>
<polygon fill="midnightblue" stroke="midnightblue" points="213.6,-28.78 207.82,-19.9 206.81,-30.45 213.6,-28.78"/>
</g>
<!-- Node7 -->
<g id="node7" class="node">
<title>Node7</title>
<g id="a_node7"><a xlink:href="float_8h.html" target="_top" xlink:title=" ">
<polygon fill="white" stroke="black" points="343.64,-56.5 343.64,-86.5 479.64,-86.5 479.64,-56.5 343.64,-56.5"/>
<text text-anchor="start" x="351.64" y="-74.5" font-family="Helvetica,sans-Serif" font-size="10.00">MSL_C/MSL_Common/Src</text>
<text text-anchor="middle" x="411.64" y="-63.5" font-family="Helvetica,sans-Serif" font-size="10.00">/float.h</text>
</a>
</g>
</g>
<!-- Node6&#45;&gt;Node7 -->
<g id="edge7" class="edge">
<title>Node6&#45;&gt;Node7</title>
<path fill="none" stroke="midnightblue" d="M261.71,-123.48C287.41,-114.74 328.09,-100.91 360.59,-89.86"/>
<polygon fill="midnightblue" stroke="midnightblue" points="362.05,-93.06 370.39,-86.52 359.8,-86.43 362.05,-93.06"/>
</g>
<!-- Node7&#45;&gt;Node3 -->
<g id="edge8" class="edge">
<title>Node7&#45;&gt;Node3</title>
<path fill="none" stroke="midnightblue" d="M363.08,-56.47C327.07,-46.08 278.61,-32.08 245.01,-22.37"/>
<polygon fill="midnightblue" stroke="midnightblue" points="245.67,-18.92 235.09,-19.51 243.72,-25.64 245.67,-18.92"/>
</g>
<!-- Node8 -->
<g id="node8" class="node">
<title>Node8</title>
<g id="a_node8"><a xlink:href="fdlibm_8h.html" target="_top" xlink:title=" ">
<polygon fill="white" stroke="black" points="386.64,-0.5 386.64,-19.5 436.64,-19.5 436.64,-0.5 386.64,-0.5"/>
<text text-anchor="middle" x="411.64" y="-7.5" font-family="Helvetica,sans-Serif" font-size="10.00">fdlibm.h</text>
</a>
</g>
</g>
<!-- Node7&#45;&gt;Node8 -->
<g id="edge9" class="edge">
<title>Node7&#45;&gt;Node8</title>
<path fill="none" stroke="midnightblue" d="M411.64,-56.4C411.64,-48.47 411.64,-38.46 411.64,-29.86"/>
<polygon fill="midnightblue" stroke="midnightblue" points="415.14,-29.66 411.64,-19.66 408.14,-29.66 415.14,-29.66"/>
</g>
<!-- Node9&#45;&gt;Node3 -->
<g id="edge12" class="edge">
<title>Node9&#45;&gt;Node3</title>
<path fill="none" stroke="midnightblue" d="M269.03,-61.98C257.39,-52.61 238.45,-37.38 224.3,-26.01"/>
<polygon fill="midnightblue" stroke="midnightblue" points="226.21,-23.05 216.22,-19.51 221.82,-28.5 226.21,-23.05"/>
</g>
<!-- Node10&#45;&gt;Node3 -->
<g id="edge14" class="edge">
<title>Node10&#45;&gt;Node3</title>
<path fill="none" stroke="midnightblue" d="M450.14,-123.46C463.42,-115.92 480.71,-103.53 488.64,-87 494.59,-74.58 497.58,-66.48 488.64,-56 459.39,-21.74 329.91,-13.43 256.63,-11.5"/>
<polygon fill="midnightblue" stroke="midnightblue" points="256.33,-8 246.25,-11.26 256.17,-14.99 256.33,-8"/>
</g>
</g>
</svg>
