<?xml version="1.0" encoding="UTF-8" standalone="no"?>
<!DOCTYPE svg PUBLIC "-//W3C//DTD SVG 1.1//EN"
 "http://www.w3.org/Graphics/SVG/1.1/DTD/svg11.dtd">
<!-- Generated by graphviz version 3.0.0 (20221109.1736)
 -->
<!-- Title: libs/SSystem/SComponent/c_bg_s_shdw_draw.cpp Pages: 1 -->
<svg width="734pt" height="419pt"
 viewBox="0.00 0.00 733.50 419.00" xmlns="http://www.w3.org/2000/svg" xmlns:xlink="http://www.w3.org/1999/xlink">
<g id="graph0" class="graph" transform="scale(1 1) rotate(0) translate(4 415)">
<title>libs/SSystem/SComponent/c_bg_s_shdw_draw.cpp</title>
<polygon fill="white" stroke="transparent" points="-4,4 -4,-415 729.5,-415 729.5,4 -4,4"/>
<!-- Node1 -->
<g id="node1" class="node">
<title>Node1</title>
<g id="a_node1"><a xlink:title=" ">
<polygon fill="#bfbfbf" stroke="black" points="251,-380.5 251,-410.5 385,-410.5 385,-380.5 251,-380.5"/>
<text text-anchor="start" x="259" y="-398.5" font-family="Helvetica,sans-Serif" font-size="10.00">libs/SSystem/SComponent</text>
<text text-anchor="middle" x="318" y="-387.5" font-family="Helvetica,sans-Serif" font-size="10.00">/c_bg_s_shdw_draw.cpp</text>
</a>
</g>
</g>
<!-- Node2 -->
<g id="node2" class="node">
<title>Node2</title>
<g id="a_node2"><a xlink:href="c__bg__s__shdw__draw_8h.html" target="_top" xlink:title=" ">
<polygon fill="white" stroke="black" points="127,-313.5 127,-343.5 243,-343.5 243,-313.5 127,-313.5"/>
<text text-anchor="start" x="135" y="-331.5" font-family="Helvetica,sans-Serif" font-size="10.00">SSystem/SComponent</text>
<text text-anchor="middle" x="185" y="-320.5" font-family="Helvetica,sans-Serif" font-size="10.00">/c_bg_s_shdw_draw.h</text>
</a>
</g>
</g>
<!-- Node1&#45;&gt;Node2 -->
<g id="edge1" class="edge">
<title>Node1&#45;&gt;Node2</title>
<path fill="none" stroke="midnightblue" d="M289.14,-380.4C269.71,-370.9 243.88,-358.28 222.81,-347.98"/>
<polygon fill="midnightblue" stroke="midnightblue" points="224.32,-344.82 213.8,-343.58 221.25,-351.11 224.32,-344.82"/>
</g>
<!-- Node4 -->
<g id="node4" class="node">
<title>Node4</title>
<g id="a_node4"><a xlink:href="types_8h.html" target="_top" xlink:title=" ">
<polygon fill="white" stroke="black" points="308.5,-0.5 308.5,-19.5 389.5,-19.5 389.5,-0.5 308.5,-0.5"/>
<text text-anchor="middle" x="349" y="-7.5" font-family="Helvetica,sans-Serif" font-size="10.00">dolphin/types.h</text>
</a>
</g>
</g>
<!-- Node1&#45;&gt;Node4 -->
<g id="edge28" class="edge">
<title>Node1&#45;&gt;Node4</title>
<path fill="none" stroke="midnightblue" d="M385.05,-394.97C478.35,-391.7 636,-370.25 636,-262.5 636,-262.5 636,-262.5 636,-132 636,-94.03 627.5,-78.61 597,-56 566.45,-33.35 463.05,-20.71 399.81,-14.93"/>
<polygon fill="midnightblue" stroke="midnightblue" points="399.92,-11.43 389.65,-14.03 399.3,-18.4 399.92,-11.43"/>
</g>
<!-- Node5 -->
<g id="node5" class="node">
<title>Node5</title>
<g id="a_node5"><a xlink:href="c__m3d__g__aab_8h.html" target="_top" xlink:title=" ">
<polygon fill="white" stroke="black" points="0,-246.5 0,-276.5 116,-276.5 116,-246.5 0,-246.5"/>
<text text-anchor="start" x="8" y="-264.5" font-family="Helvetica,sans-Serif" font-size="10.00">SSystem/SComponent</text>
<text text-anchor="middle" x="58" y="-253.5" font-family="Helvetica,sans-Serif" font-size="10.00">/c_m3d_g_aab.h</text>
</a>
</g>
</g>
<!-- Node1&#45;&gt;Node5 -->
<g id="edge24" class="edge">
<title>Node1&#45;&gt;Node5</title>
<path fill="none" stroke="midnightblue" d="M250.77,-389.06C209.58,-383.07 157.38,-370.47 118,-344 96.27,-329.39 79.51,-304.18 69.29,-285.65"/>
<polygon fill="midnightblue" stroke="midnightblue" points="72.31,-283.88 64.55,-276.66 66.12,-287.14 72.31,-283.88"/>
</g>
<!-- Node6 -->
<g id="node6" class="node">
<title>Node6</title>
<g id="a_node6"><a xlink:href="c__xyz_8h.html" target="_top" xlink:title=" ">
<polygon fill="white" stroke="black" points="217,-179.5 217,-209.5 333,-209.5 333,-179.5 217,-179.5"/>
<text text-anchor="start" x="225" y="-197.5" font-family="Helvetica,sans-Serif" font-size="10.00">SSystem/SComponent</text>
<text text-anchor="middle" x="275" y="-186.5" font-family="Helvetica,sans-Serif" font-size="10.00">/c_xyz.h</text>
</a>
</g>
</g>
<!-- Node1&#45;&gt;Node6 -->
<g id="edge26" class="edge">
<title>Node1&#45;&gt;Node6</title>
<path fill="none" stroke="midnightblue" d="M314.91,-380.19C307.61,-346.41 289.25,-261.44 280.2,-219.57"/>
<polygon fill="midnightblue" stroke="midnightblue" points="283.6,-218.72 278.06,-209.68 276.76,-220.2 283.6,-218.72"/>
</g>
<!-- Node12 -->
<g id="node12" class="node">
<title>Node12</title>
<g id="a_node12"><a xlink:href="c__m3d__g__pla_8h.html" target="_top" xlink:title=" ">
<polygon fill="white" stroke="black" points="303,-246.5 303,-276.5 419,-276.5 419,-246.5 303,-246.5"/>
<text text-anchor="start" x="311" y="-264.5" font-family="Helvetica,sans-Serif" font-size="10.00">SSystem/SComponent</text>
<text text-anchor="middle" x="361" y="-253.5" font-family="Helvetica,sans-Serif" font-size="10.00">/c_m3d_g_pla.h</text>
</a>
</g>
</g>
<!-- Node1&#45;&gt;Node12 -->
<g id="edge25" class="edge">
<title>Node1&#45;&gt;Node12</title>
<path fill="none" stroke="midnightblue" d="M322.6,-380.37C329.94,-357.85 344.38,-313.53 353.3,-286.12"/>
<polygon fill="midnightblue" stroke="midnightblue" points="356.66,-287.12 356.43,-276.52 350.01,-284.95 356.66,-287.12"/>
</g>
<!-- Node14 -->
<g id="node14" class="node">
<title>Node14</title>
<g id="a_node14"><a xlink:href="dol2asm_8h.html" target="_top" xlink:title=" ">
<polygon fill="white" stroke="black" points="664.5,-319 664.5,-338 725.5,-338 725.5,-319 664.5,-319"/>
<text text-anchor="middle" x="695" y="-326" font-family="Helvetica,sans-Serif" font-size="10.00">dol2asm.h</text>
</a>
</g>
</g>
<!-- Node1&#45;&gt;Node14 -->
<g id="edge27" class="edge">
<title>Node1&#45;&gt;Node14</title>
<path fill="none" stroke="midnightblue" d="M385.06,-387.51C452.55,-379.72 559.34,-365.35 650,-344 653.65,-343.14 657.43,-342.13 661.18,-341.04"/>
<polygon fill="midnightblue" stroke="midnightblue" points="662.38,-344.33 670.91,-338.05 660.33,-337.64 662.38,-344.33"/>
</g>
<!-- Node3 -->
<g id="node3" class="node">
<title>Node3</title>
<g id="a_node3"><a xlink:href="c__bg__s__chk_8h.html" target="_top" xlink:title=" ">
<polygon fill="white" stroke="black" points="38,-56.5 38,-86.5 154,-86.5 154,-56.5 38,-56.5"/>
<text text-anchor="start" x="46" y="-74.5" font-family="Helvetica,sans-Serif" font-size="10.00">SSystem/SComponent</text>
<text text-anchor="middle" x="96" y="-63.5" font-family="Helvetica,sans-Serif" font-size="10.00">/c_bg_s_chk.h</text>
</a>
</g>
</g>
<!-- Node2&#45;&gt;Node3 -->
<g id="edge2" class="edge">
<title>Node2&#45;&gt;Node3</title>
<path fill="none" stroke="midnightblue" d="M180.09,-313.43C165.53,-271.72 122.5,-148.43 104.29,-96.25"/>
<polygon fill="midnightblue" stroke="midnightblue" points="107.5,-94.82 100.9,-86.53 100.89,-97.12 107.5,-94.82"/>
</g>
<!-- Node2&#45;&gt;Node4 -->
<g id="edge23" class="edge">
<title>Node2&#45;&gt;Node4</title>
<path fill="none" stroke="midnightblue" d="M184.46,-313.24C183.6,-289.04 182,-238.37 182,-195.5 182,-195.5 182,-195.5 182,-132 182,-97.18 177.01,-81.23 201,-56 226.05,-29.66 265.98,-18.59 298.06,-14.01"/>
<polygon fill="midnightblue" stroke="midnightblue" points="298.68,-17.46 308.17,-12.74 297.81,-10.52 298.68,-17.46"/>
</g>
<!-- Node2&#45;&gt;Node5 -->
<g id="edge4" class="edge">
<title>Node2&#45;&gt;Node5</title>
<path fill="none" stroke="midnightblue" d="M157.44,-313.4C139.05,-303.98 114.67,-291.5 94.65,-281.26"/>
<polygon fill="midnightblue" stroke="midnightblue" points="96,-278.02 85.5,-276.58 92.81,-284.25 96,-278.02"/>
</g>
<!-- Node2&#45;&gt;Node6 -->
<g id="edge22" class="edge">
<title>Node2&#45;&gt;Node6</title>
<path fill="none" stroke="midnightblue" d="M194.63,-313.37C210.19,-290.55 241.01,-245.36 259.63,-218.04"/>
<polygon fill="midnightblue" stroke="midnightblue" points="262.7,-219.76 265.44,-209.52 256.91,-215.82 262.7,-219.76"/>
</g>
<!-- Node2&#45;&gt;Node12 -->
<g id="edge16" class="edge">
<title>Node2&#45;&gt;Node12</title>
<path fill="none" stroke="midnightblue" d="M223.19,-313.4C249.6,-303.64 284.93,-290.59 313.2,-280.15"/>
<polygon fill="midnightblue" stroke="midnightblue" points="314.72,-283.32 322.89,-276.58 312.29,-276.76 314.72,-283.32"/>
</g>
<!-- Node3&#45;&gt;Node4 -->
<g id="edge3" class="edge">
<title>Node3&#45;&gt;Node4</title>
<path fill="none" stroke="midnightblue" d="M154.04,-56.85C199.19,-46.23 260.99,-31.7 302.82,-21.86"/>
<polygon fill="midnightblue" stroke="midnightblue" points="303.8,-25.23 312.73,-19.53 302.2,-18.41 303.8,-25.23"/>
</g>
<!-- Node5&#45;&gt;Node4 -->
<g id="edge15" class="edge">
<title>Node5&#45;&gt;Node4</title>
<path fill="none" stroke="midnightblue" d="M49.42,-246.26C28.61,-209.72 -19.34,-111.62 29,-56 63.28,-16.56 217.11,-10.69 298.36,-10.42"/>
<polygon fill="midnightblue" stroke="midnightblue" points="298.37,-13.92 308.37,-10.41 298.36,-6.92 298.37,-13.92"/>
</g>
<!-- Node5&#45;&gt;Node6 -->
<g id="edge5" class="edge">
<title>Node5&#45;&gt;Node6</title>
<path fill="none" stroke="midnightblue" d="M104.82,-246.48C138.07,-236.51 182.9,-223.09 218.2,-212.51"/>
<polygon fill="midnightblue" stroke="midnightblue" points="219.32,-215.83 227.89,-209.61 217.31,-209.13 219.32,-215.83"/>
</g>
<!-- Node7 -->
<g id="node7" class="node">
<title>Node7</title>
<g id="a_node7"><a xlink:href="math_8h.html" target="_top" xlink:title=" ">
<polygon fill="white" stroke="black" points="405,-123.5 405,-142.5 487,-142.5 487,-123.5 405,-123.5"/>
<text text-anchor="middle" x="446" y="-130.5" font-family="Helvetica,sans-Serif" font-size="10.00">MSL_C/math.h</text>
</a>
</g>
</g>
<!-- Node6&#45;&gt;Node7 -->
<g id="edge6" class="edge">
<title>Node6&#45;&gt;Node7</title>
<path fill="none" stroke="midnightblue" d="M315.52,-179.4C344.73,-169.24 383.72,-155.67 411.45,-146.02"/>
<polygon fill="midnightblue" stroke="midnightblue" points="412.82,-149.25 421.12,-142.66 410.52,-142.64 412.82,-149.25"/>
</g>
<!-- Node10 -->
<g id="node10" class="node">
<title>Node10</title>
<g id="a_node10"><a xlink:href="vec_8h.html" target="_top" xlink:title=" ">
<polygon fill="white" stroke="black" points="210,-62 210,-81 302,-81 302,-62 210,-62"/>
<text text-anchor="middle" x="256" y="-69" font-family="Helvetica,sans-Serif" font-size="10.00">dolphin/mtx/vec.h</text>
</a>
</g>
</g>
<!-- Node6&#45;&gt;Node10 -->
<g id="edge11" class="edge">
<title>Node6&#45;&gt;Node10</title>
<path fill="none" stroke="midnightblue" d="M272.75,-179.14C269.3,-157.2 262.72,-115.33 258.92,-91.09"/>
<polygon fill="midnightblue" stroke="midnightblue" points="262.35,-90.39 257.34,-81.05 255.44,-91.47 262.35,-90.39"/>
</g>
<!-- Node11 -->
<g id="node11" class="node">
<title>Node11</title>
<g id="a_node11"><a xlink:href="global_8h.html" target="_top" xlink:title=" ">
<polygon fill="white" stroke="black" points="287,-123.5 287,-142.5 337,-142.5 337,-123.5 287,-123.5"/>
<text text-anchor="middle" x="312" y="-130.5" font-family="Helvetica,sans-Serif" font-size="10.00">global.h</text>
</a>
</g>
</g>
<!-- Node6&#45;&gt;Node11 -->
<g id="edge13" class="edge">
<title>Node6&#45;&gt;Node11</title>
<path fill="none" stroke="midnightblue" d="M283.77,-179.4C288.98,-171.02 295.63,-160.33 301.17,-151.42"/>
<polygon fill="midnightblue" stroke="midnightblue" points="304.31,-153 306.62,-142.66 298.36,-149.3 304.31,-153"/>
</g>
<!-- Node7&#45;&gt;Node4 -->
<g id="edge10" class="edge">
<title>Node7&#45;&gt;Node4</title>
<path fill="none" stroke="midnightblue" d="M439.02,-123.3C422.94,-103.24 383.06,-53.49 362.2,-27.46"/>
<polygon fill="midnightblue" stroke="midnightblue" points="364.9,-25.24 355.91,-19.62 359.44,-29.61 364.9,-25.24"/>
</g>
<!-- Node8 -->
<g id="node8" class="node">
<title>Node8</title>
<g id="a_node8"><a xlink:href="float_8h.html" target="_top" xlink:title=" ">
<polygon fill="white" stroke="black" points="434,-56.5 434,-86.5 570,-86.5 570,-56.5 434,-56.5"/>
<text text-anchor="start" x="442" y="-74.5" font-family="Helvetica,sans-Serif" font-size="10.00">MSL_C/MSL_Common/Src</text>
<text text-anchor="middle" x="502" y="-63.5" font-family="Helvetica,sans-Serif" font-size="10.00">/float.h</text>
</a>
</g>
</g>
<!-- Node7&#45;&gt;Node8 -->
<g id="edge7" class="edge">
<title>Node7&#45;&gt;Node8</title>
<path fill="none" stroke="midnightblue" d="M454.02,-123.48C461.25,-115.79 472.19,-104.17 481.8,-93.96"/>
<polygon fill="midnightblue" stroke="midnightblue" points="484.5,-96.2 488.8,-86.52 479.4,-91.41 484.5,-96.2"/>
</g>
<!-- Node8&#45;&gt;Node4 -->
<g id="edge8" class="edge">
<title>Node8&#45;&gt;Node4</title>
<path fill="none" stroke="midnightblue" d="M465.74,-56.4C439.96,-46.37 405.64,-33.03 380.9,-23.4"/>
<polygon fill="midnightblue" stroke="midnightblue" points="381.85,-20.02 371.26,-19.66 379.31,-26.54 381.85,-20.02"/>
</g>
<!-- Node9 -->
<g id="node9" class="node">
<title>Node9</title>
<g id="a_node9"><a xlink:href="fdlibm_8h.html" target="_top" xlink:title=" ">
<polygon fill="white" stroke="black" points="477,-0.5 477,-19.5 527,-19.5 527,-0.5 477,-0.5"/>
<text text-anchor="middle" x="502" y="-7.5" font-family="Helvetica,sans-Serif" font-size="10.00">fdlibm.h</text>
</a>
</g>
</g>
<!-- Node8&#45;&gt;Node9 -->
<g id="edge9" class="edge">
<title>Node8&#45;&gt;Node9</title>
<path fill="none" stroke="midnightblue" d="M502,-56.4C502,-48.47 502,-38.46 502,-29.86"/>
<polygon fill="midnightblue" stroke="midnightblue" points="505.5,-29.66 502,-19.66 498.5,-29.66 505.5,-29.66"/>
</g>
<!-- Node10&#45;&gt;Node4 -->
<g id="edge12" class="edge">
<title>Node10&#45;&gt;Node4</title>
<path fill="none" stroke="midnightblue" d="M269.32,-61.98C284.38,-52.34 309.12,-36.52 327.04,-25.05"/>
<polygon fill="midnightblue" stroke="midnightblue" points="329.16,-27.85 335.7,-19.51 325.39,-21.95 329.16,-27.85"/>
</g>
<!-- Node11&#45;&gt;Node4 -->
<g id="edge14" class="edge">
<title>Node11&#45;&gt;Node4</title>
<path fill="none" stroke="midnightblue" d="M314.66,-123.3C320.66,-103.68 335.35,-55.64 343.44,-29.19"/>
<polygon fill="midnightblue" stroke="midnightblue" points="346.79,-30.21 346.36,-19.62 340.09,-28.16 346.79,-30.21"/>
</g>
<!-- Node12&#45;&gt;Node4 -->
<g id="edge21" class="edge">
<title>Node12&#45;&gt;Node4</title>
<path fill="none" stroke="midnightblue" d="M360.32,-246.37C358.29,-204.09 352.25,-78.49 349.92,-30.21"/>
<polygon fill="midnightblue" stroke="midnightblue" points="353.41,-29.75 349.43,-19.93 346.41,-30.09 353.41,-29.75"/>
</g>
<!-- Node12&#45;&gt;Node6 -->
<g id="edge17" class="edge">
<title>Node12&#45;&gt;Node6</title>
<path fill="none" stroke="midnightblue" d="M342.34,-246.4C330.51,-237.45 315.01,-225.74 301.86,-215.8"/>
<polygon fill="midnightblue" stroke="midnightblue" points="303.71,-212.81 293.62,-209.58 299.49,-218.4 303.71,-212.81"/>
</g>
<!-- Node13 -->
<g id="node13" class="node">
<title>Node13</title>
<g id="a_node13"><a xlink:href="c__m3d_8h.html" target="_top" xlink:title=" ">
<polygon fill="white" stroke="black" points="396,-179.5 396,-209.5 512,-209.5 512,-179.5 396,-179.5"/>
<text text-anchor="start" x="404" y="-197.5" font-family="Helvetica,sans-Serif" font-size="10.00">SSystem/SComponent</text>
<text text-anchor="middle" x="454" y="-186.5" font-family="Helvetica,sans-Serif" font-size="10.00">/c_m3d.h</text>
</a>
</g>
</g>
<!-- Node12&#45;&gt;Node13 -->
<g id="edge18" class="edge">
<title>Node12&#45;&gt;Node13</title>
<path fill="none" stroke="midnightblue" d="M381.18,-246.4C394.1,-237.37 411.06,-225.51 425.36,-215.52"/>
<polygon fill="midnightblue" stroke="midnightblue" points="427.67,-218.17 433.86,-209.58 423.66,-212.44 427.67,-218.17"/>
</g>
<!-- Node13&#45;&gt;Node4 -->
<g id="edge20" class="edge">
<title>Node13&#45;&gt;Node4</title>
<path fill="none" stroke="midnightblue" d="M483.93,-179.46C532.07,-155.03 617.55,-102.82 579,-56 556.75,-28.98 460.53,-17.95 399.81,-13.63"/>
<polygon fill="midnightblue" stroke="midnightblue" points="399.86,-10.12 389.64,-12.94 399.39,-17.11 399.86,-10.12"/>
</g>
<!-- Node13&#45;&gt;Node7 -->
<g id="edge19" class="edge">
<title>Node13&#45;&gt;Node7</title>
<path fill="none" stroke="midnightblue" d="M452.1,-179.4C451.03,-171.38 449.66,-161.23 448.5,-152.57"/>
<polygon fill="midnightblue" stroke="midnightblue" points="451.97,-152.1 447.16,-142.66 445.03,-153.04 451.97,-152.1"/>
</g>
</g>
</svg>
