<?xml version="1.0" encoding="UTF-8" standalone="no"?>
<!DOCTYPE svg PUBLIC "-//W3C//DTD SVG 1.1//EN"
 "http://www.w3.org/Graphics/SVG/1.1/DTD/svg11.dtd">
<!-- Generated by graphviz version 7.0.4 (20221203.1631)
 -->
<!-- Title: include/SSystem/SComponent/c_cc_d.h Pages: 1 -->
<svg width="3637pt" height="456pt"
 viewBox="0.00 0.00 3636.67 456.00" xmlns="http://www.w3.org/2000/svg" xmlns:xlink="http://www.w3.org/1999/xlink">
<g id="graph0" class="graph" transform="scale(1 1) rotate(0) translate(4 452)">
<title>include/SSystem/SComponent/c_cc_d.h</title>
<!-- Node1 -->
<g id="node1" class="node">
<title>Node1</title>
<g id="a_node1"><a xlink:title=" ">
<polygon fill="#999999" stroke="#666666" points="1083.17,-448 934.17,-448 934.17,-418 1083.17,-418 1083.17,-448"/>
<text text-anchor="start" x="942.17" y="-436" font-family="Helvetica,sans-Serif" font-size="10.00">include/SSystem/SComponent</text>
<text text-anchor="middle" x="1008.67" y="-425" font-family="Helvetica,sans-Serif" font-size="10.00">/c_cc_d.h</text>
</a>
</g>
</g>
<!-- Node2 -->
<g id="node2" class="node">
<title>Node2</title>
<g id="a_node2"><a xlink:href="c__cc__s_8h.html" target="_top" xlink:title=" ">
<polygon fill="white" stroke="#666666" points="1165.17,-382 1016.17,-382 1016.17,-352 1165.17,-352 1165.17,-382"/>
<text text-anchor="start" x="1024.17" y="-370" font-family="Helvetica,sans-Serif" font-size="10.00">include/SSystem/SComponent</text>
<text text-anchor="middle" x="1090.67" y="-359" font-family="Helvetica,sans-Serif" font-size="10.00">/c_cc_s.h</text>
</a>
</g>
</g>
<!-- Node1&#45;&gt;Node2 -->
<g id="edge1" class="edge">
<title>Node1&#45;&gt;Node2</title>
<path fill="none" stroke="#63b8ff" d="M1035.61,-410.97C1047.61,-401.61 1061.44,-390.81 1072.24,-382.39"/>
<polygon fill="#63b8ff" stroke="#63b8ff" points="1033.79,-407.95 1028.06,-416.87 1038.1,-413.47 1033.79,-407.95"/>
</g>
<!-- Node110 -->
<g id="node35" class="node">
<title>Node110</title>
<g id="a_node35"><a xlink:href="d__cc__d_8h.html" target="_top" xlink:title=" ">
<polygon fill="white" stroke="#666666" points="759.17,-376.5 648.17,-376.5 648.17,-357.5 759.17,-357.5 759.17,-376.5"/>
<text text-anchor="middle" x="703.67" y="-364.5" font-family="Helvetica,sans-Serif" font-size="10.00">include/d/cc/d_cc_d.h</text>
</a>
</g>
</g>
<!-- Node1&#45;&gt;Node110 -->
<g id="edge39" class="edge">
<title>Node1&#45;&gt;Node110</title>
<path fill="none" stroke="#63b8ff" d="M928.8,-415.24C870.42,-402.99 793.52,-386.85 746.39,-376.96"/>
<polygon fill="#63b8ff" stroke="#63b8ff" points="927.86,-418.62 938.36,-417.25 929.29,-411.77 927.86,-418.62"/>
</g>
<!-- Node129 -->
<g id="node49" class="node">
<title>Node129</title>
<g id="a_node49"><a xlink:href="d__cc__mass__s_8h.html" target="_top" xlink:title=" ">
<polygon fill="white" stroke="#666666" points="997.67,-376.5 857.67,-376.5 857.67,-357.5 997.67,-357.5 997.67,-376.5"/>
<text text-anchor="middle" x="927.67" y="-364.5" font-family="Helvetica,sans-Serif" font-size="10.00">include/d/cc/d_cc_mass_s.h</text>
</a>
</g>
</g>
<!-- Node1&#45;&gt;Node129 -->
<g id="edge66" class="edge">
<title>Node1&#45;&gt;Node129</title>
<path fill="none" stroke="#63b8ff" d="M982.01,-410.93C967.35,-399.35 949.96,-385.61 938.87,-376.84"/>
<polygon fill="#63b8ff" stroke="#63b8ff" points="979.49,-413.4 989.51,-416.86 983.83,-407.91 979.49,-413.4"/>
</g>
<!-- Node130 -->
<g id="node50" class="node">
<title>Node130</title>
<g id="a_node50"><a xlink:href="c__cc__d_8cpp.html" target="_top" xlink:title=" ">
<polygon fill="white" stroke="#666666" points="1317.67,-382 1183.67,-382 1183.67,-352 1317.67,-352 1317.67,-382"/>
<text text-anchor="start" x="1191.67" y="-370" font-family="Helvetica,sans-Serif" font-size="10.00">libs/SSystem/SComponent</text>
<text text-anchor="middle" x="1250.67" y="-359" font-family="Helvetica,sans-Serif" font-size="10.00">/c_cc_d.cpp</text>
</a>
</g>
</g>
<!-- Node1&#45;&gt;Node130 -->
<g id="edge70" class="edge">
<title>Node1&#45;&gt;Node130</title>
<path fill="none" stroke="#63b8ff" d="M1074.31,-414.64C1112.53,-404.53 1160.14,-391.94 1196.26,-382.39"/>
<polygon fill="#63b8ff" stroke="#63b8ff" points="1073.52,-411.23 1064.75,-417.17 1075.31,-418 1073.52,-411.23"/>
</g>
<!-- Node3 -->
<g id="node3" class="node">
<title>Node3</title>
<g id="a_node3"><a xlink:href="d__cc__s_8h.html" target="_top" xlink:title=" ">
<polygon fill="white" stroke="#666666" points="1126.17,-310.5 1015.17,-310.5 1015.17,-291.5 1126.17,-291.5 1126.17,-310.5"/>
<text text-anchor="middle" x="1070.67" y="-298.5" font-family="Helvetica,sans-Serif" font-size="10.00">include/d/cc/d_cc_s.h</text>
</a>
</g>
</g>
<!-- Node2&#45;&gt;Node3 -->
<g id="edge2" class="edge">
<title>Node2&#45;&gt;Node3</title>
<path fill="none" stroke="#63b8ff" d="M1082.84,-340.93C1079.52,-330.31 1075.86,-318.61 1073.44,-310.84"/>
<polygon fill="#63b8ff" stroke="#63b8ff" points="1079.46,-341.85 1085.78,-350.35 1086.14,-339.76 1079.46,-341.85"/>
</g>
<!-- Node109 -->
<g id="node34" class="node">
<title>Node109</title>
<g id="a_node34"><a xlink:href="c__cc__s_8cpp.html" target="_top" xlink:title=" ">
<polygon fill="white" stroke="#666666" points="1278.67,-316 1144.67,-316 1144.67,-286 1278.67,-286 1278.67,-316"/>
<text text-anchor="start" x="1152.67" y="-304" font-family="Helvetica,sans-Serif" font-size="10.00">libs/SSystem/SComponent</text>
<text text-anchor="middle" x="1211.67" y="-293" font-family="Helvetica,sans-Serif" font-size="10.00">/c_cc_s.cpp</text>
</a>
</g>
</g>
<!-- Node2&#45;&gt;Node109 -->
<g id="edge38" class="edge">
<title>Node2&#45;&gt;Node109</title>
<path fill="none" stroke="#63b8ff" d="M1127.88,-346.32C1146.21,-336.63 1167.89,-325.16 1184.61,-316.31"/>
<polygon fill="#63b8ff" stroke="#63b8ff" points="1126.37,-343.16 1119.16,-350.93 1129.64,-349.35 1126.37,-343.16"/>
</g>
<!-- Node4 -->
<g id="node4" class="node">
<title>Node4</title>
<g id="a_node4"><a xlink:href="d__com__inf__game_8h.html" target="_top" xlink:title=" ">
<polygon fill="#fff0f0" stroke="red" points="1919.67,-178.5 1809.67,-178.5 1809.67,-148.5 1919.67,-148.5 1919.67,-178.5"/>
<text text-anchor="start" x="1817.67" y="-166.5" font-family="Helvetica,sans-Serif" font-size="10.00">include/d/com/d_com</text>
<text text-anchor="middle" x="1864.67" y="-155.5" font-family="Helvetica,sans-Serif" font-size="10.00">_inf_game.h</text>
</a>
</g>
</g>
<!-- Node3&#45;&gt;Node4 -->
<g id="edge3" class="edge">
<title>Node3&#45;&gt;Node4</title>
<path fill="none" stroke="#63b8ff" d="M1121.74,-288.76C1126.45,-287.8 1131.14,-286.86 1135.67,-286 1386.16,-238.18 1687.11,-191.38 1809.19,-172.84"/>
<polygon fill="#63b8ff" stroke="#63b8ff" points="1121.39,-285.26 1112.32,-290.73 1122.82,-292.11 1121.39,-285.26"/>
</g>
<!-- Node77 -->
<g id="node31" class="node">
<title>Node77</title>
<g id="a_node31"><a xlink:href="d__cc__s_8cpp.html" target="_top" xlink:title=" ">
<polygon fill="white" stroke="#666666" points="3628.67,-96 3524.67,-96 3524.67,-77 3628.67,-77 3628.67,-96"/>
<text text-anchor="middle" x="3576.67" y="-84" font-family="Helvetica,sans-Serif" font-size="10.00">src/d/cc/d_cc_s.cpp</text>
</a>
</g>
</g>
<!-- Node3&#45;&gt;Node77 -->
<g id="edge37" class="edge">
<title>Node3&#45;&gt;Node77</title>
<path fill="none" stroke="#63b8ff" d="M1119.2,-288.79C1124.74,-287.74 1130.31,-286.77 1135.67,-286 1660.6,-210.1 2995.06,-208.33 3515.67,-107 3528.33,-104.54 3542.04,-100.3 3553.25,-96.41"/>
<polygon fill="#63b8ff" stroke="#63b8ff" points="1118.57,-285.34 1109.46,-290.75 1119.96,-292.21 1118.57,-285.34"/>
</g>
<!-- Node5 -->
<g id="node5" class="node">
<title>Node5</title>
<g id="a_node5"><a xlink:href="d__a__npc_8h.html" target="_top" xlink:title=" ">
<polygon fill="#fff0f0" stroke="red" points="3132.17,-96 3021.17,-96 3021.17,-77 3132.17,-77 3132.17,-96"/>
<text text-anchor="middle" x="3076.67" y="-84" font-family="Helvetica,sans-Serif" font-size="10.00">include/d/a/d_a_npc.h</text>
</a>
</g>
</g>
<!-- Node4&#45;&gt;Node5 -->
<g id="edge4" class="edge">
<title>Node4&#45;&gt;Node5</title>
<path fill="none" stroke="#63b8ff" d="M1931.09,-161.4C2143.06,-157.58 2801.72,-143.02 3011.67,-107 3025.26,-104.67 3040,-100.4 3052.01,-96.44"/>
<polygon fill="#63b8ff" stroke="#63b8ff" points="1931.3,-157.9 1921.37,-161.58 1931.43,-164.9 1931.3,-157.9"/>
</g>
<!-- Node11 -->
<g id="node6" class="node">
<title>Node11</title>
<g id="a_node6"><a xlink:href="d__cc__uty_8h.html" target="_top" xlink:title=" ">
<polygon fill="#fff0f0" stroke="red" points="870.17,-96 751.17,-96 751.17,-77 870.17,-77 870.17,-96"/>
<text text-anchor="middle" x="810.67" y="-84" font-family="Helvetica,sans-Serif" font-size="10.00">include/d/cc/d_cc_uty.h</text>
</a>
</g>
</g>
<!-- Node4&#45;&gt;Node11 -->
<g id="edge5" class="edge">
<title>Node4&#45;&gt;Node11</title>
<path fill="none" stroke="#63b8ff" d="M1798.03,-160.69C1606.39,-155.16 1056.24,-137.07 878.67,-107 864.63,-104.62 849.35,-100.39 836.84,-96.48"/>
<polygon fill="#63b8ff" stroke="#63b8ff" points="1797.71,-164.18 1807.8,-160.97 1797.91,-157.18 1797.71,-164.18"/>
</g>
<!-- Node17 -->
<g id="node8" class="node">
<title>Node17</title>
<g id="a_node8"><a xlink:href="d__item_8h.html" target="_top" xlink:title=" ">
<polygon fill="#fff0f0" stroke="red" points="1912.17,-96 1817.17,-96 1817.17,-77 1912.17,-77 1912.17,-96"/>
<text text-anchor="middle" x="1864.67" y="-84" font-family="Helvetica,sans-Serif" font-size="10.00">include/d/d_item.h</text>
</a>
</g>
</g>
<!-- Node4&#45;&gt;Node17 -->
<g id="edge7" class="edge">
<title>Node4&#45;&gt;Node17</title>
<path fill="none" stroke="#63b8ff" d="M1864.67,-136.56C1864.67,-122.54 1864.67,-106.13 1864.67,-96.29"/>
<polygon fill="#63b8ff" stroke="#63b8ff" points="1861.17,-136.53 1864.67,-146.53 1868.17,-136.53 1861.17,-136.53"/>
</g>
<!-- Node14 -->
<g id="node9" class="node">
<title>Node14</title>
<g id="a_node9"><a xlink:href="d__a__alink_8cpp.html" target="_top" xlink:title=" ">
<polygon fill="white" stroke="#666666" points="393.17,-24.5 284.17,-24.5 284.17,-5.5 393.17,-5.5 393.17,-24.5"/>
<text text-anchor="middle" x="338.67" y="-12.5" font-family="Helvetica,sans-Serif" font-size="10.00">src/d/a/d_a_alink.cpp</text>
</a>
</g>
</g>
<!-- Node4&#45;&gt;Node14 -->
<g id="edge27" class="edge">
<title>Node4&#45;&gt;Node14</title>
<path fill="none" stroke="#63b8ff" d="M1798.22,-151.29C1761.35,-143 1715.79,-129.19 1679.67,-107 1658.24,-93.83 1663.59,-76.36 1640.67,-66 1525.94,-14.16 626.11,-14.67 393.44,-15.68"/>
<polygon fill="#63b8ff" stroke="#63b8ff" points="1797.37,-154.69 1807.89,-153.37 1798.85,-147.85 1797.37,-154.69"/>
</g>
<!-- Node18 -->
<g id="node10" class="node">
<title>Node18</title>
<g id="a_node10"><a xlink:href="d__a__obj__item_8cpp.html" target="_top" xlink:title=" ">
<polygon fill="white" stroke="#666666" points="2350.17,-24.5 2225.17,-24.5 2225.17,-5.5 2350.17,-5.5 2350.17,-24.5"/>
<text text-anchor="middle" x="2287.67" y="-12.5" font-family="Helvetica,sans-Serif" font-size="10.00">src/d/a/d_a_obj_item.cpp</text>
</a>
</g>
</g>
<!-- Node4&#45;&gt;Node18 -->
<g id="edge30" class="edge">
<title>Node4&#45;&gt;Node18</title>
<path fill="none" stroke="#63b8ff" d="M1931.22,-160.99C2138.76,-155.95 2762.21,-138.28 2791.67,-107 2804.17,-93.74 2803.9,-79.51 2791.67,-66 2762.56,-33.86 2479.1,-21.56 2350.52,-17.61"/>
<polygon fill="#63b8ff" stroke="#63b8ff" points="1931.32,-157.49 1921.41,-161.22 1931.49,-164.48 1931.32,-157.49"/>
</g>
<!-- Node22 -->
<g id="node11" class="node">
<title>Node22</title>
<g id="a_node11"><a xlink:href="d__kantera__icon__meter_8h.html" target="_top" xlink:title=" ">
<polygon fill="#fff0f0" stroke="red" points="3251.17,-101.5 3150.17,-101.5 3150.17,-71.5 3251.17,-71.5 3251.17,-101.5"/>
<text text-anchor="start" x="3158.17" y="-89.5" font-family="Helvetica,sans-Serif" font-size="10.00">include/d/d_kantera</text>
<text text-anchor="middle" x="3200.67" y="-78.5" font-family="Helvetica,sans-Serif" font-size="10.00">_icon_meter.h</text>
</a>
</g>
</g>
<!-- Node4&#45;&gt;Node22 -->
<g id="edge10" class="edge">
<title>Node4&#45;&gt;Node22</title>
<path fill="none" stroke="#63b8ff" d="M1931.21,-162.02C2158.93,-160.02 2905.94,-150.22 3141.67,-107 3148.36,-105.77 3155.33,-103.97 3162.03,-101.95"/>
<polygon fill="#63b8ff" stroke="#63b8ff" points="1931.29,-158.52 1921.32,-162.11 1931.35,-165.52 1931.29,-158.52"/>
</g>
<!-- Node25 -->
<g id="node12" class="node">
<title>Node25</title>
<g id="a_node12"><a xlink:href="d__model_8h.html" target="_top" xlink:title=" ">
<polygon fill="#fff0f0" stroke="red" points="3372.17,-96 3269.17,-96 3269.17,-77 3372.17,-77 3372.17,-96"/>
<text text-anchor="middle" x="3320.67" y="-84" font-family="Helvetica,sans-Serif" font-size="10.00">include/d/d_model.h</text>
</a>
</g>
</g>
<!-- Node4&#45;&gt;Node25 -->
<g id="edge11" class="edge">
<title>Node4&#45;&gt;Node25</title>
<path fill="none" stroke="#63b8ff" d="M1931.13,-160.93C2190.83,-154.64 3129.22,-130.51 3260.67,-107 3273.39,-104.72 3287.14,-100.4 3298.25,-96.41"/>
<polygon fill="#63b8ff" stroke="#63b8ff" points="1931.43,-157.42 1921.52,-161.16 1931.6,-164.42 1931.43,-157.42"/>
</g>
<!-- Node27 -->
<g id="node13" class="node">
<title>Node27</title>
<g id="a_node13"><a xlink:href="d__name_8h.html" target="_top" xlink:title=" ">
<polygon fill="#fff0f0" stroke="red" points="989.17,-96 888.17,-96 888.17,-77 989.17,-77 989.17,-96"/>
<text text-anchor="middle" x="938.67" y="-84" font-family="Helvetica,sans-Serif" font-size="10.00">include/d/d_name.h</text>
</a>
</g>
</g>
<!-- Node4&#45;&gt;Node27 -->
<g id="edge12" class="edge">
<title>Node4&#45;&gt;Node27</title>
<path fill="none" stroke="#63b8ff" d="M1798.1,-160.39C1622.84,-154.48 1151.71,-136.29 998.67,-107 986.19,-104.61 972.7,-100.38 961.68,-96.47"/>
<polygon fill="#63b8ff" stroke="#63b8ff" points="1797.83,-163.88 1807.94,-160.72 1798.06,-156.88 1797.83,-163.88"/>
</g>
<!-- Node29 -->
<g id="node14" class="node">
<title>Node29</title>
<g id="a_node14"><a xlink:href="d__file__sel__info_8h.html" target="_top" xlink:title=" ">
<polygon fill="#fff0f0" stroke="red" points="1103.67,-101.5 1007.67,-101.5 1007.67,-71.5 1103.67,-71.5 1103.67,-101.5"/>
<text text-anchor="start" x="1015.67" y="-89.5" font-family="Helvetica,sans-Serif" font-size="10.00">include/d/file/d_file</text>
<text text-anchor="middle" x="1055.67" y="-78.5" font-family="Helvetica,sans-Serif" font-size="10.00">_sel_info.h</text>
</a>
</g>
</g>
<!-- Node4&#45;&gt;Node29 -->
<g id="edge13" class="edge">
<title>Node4&#45;&gt;Node29</title>
<path fill="none" stroke="#63b8ff" d="M1797.78,-163.26C1665.49,-163.52 1361.67,-157.9 1112.67,-107 1106.42,-105.72 1099.91,-103.95 1093.63,-101.98"/>
<polygon fill="#63b8ff" stroke="#63b8ff" points="1797.78,-166.76 1807.77,-163.23 1797.76,-159.76 1797.78,-166.76"/>
</g>
<!-- Node32 -->
<g id="node15" class="node">
<title>Node32</title>
<g id="a_node15"><a xlink:href="d__file__sel__warning_8h.html" target="_top" xlink:title=" ">
<polygon fill="#fff0f0" stroke="red" points="1217.67,-101.5 1121.67,-101.5 1121.67,-71.5 1217.67,-71.5 1217.67,-101.5"/>
<text text-anchor="start" x="1129.67" y="-89.5" font-family="Helvetica,sans-Serif" font-size="10.00">include/d/file/d_file</text>
<text text-anchor="middle" x="1169.67" y="-78.5" font-family="Helvetica,sans-Serif" font-size="10.00">_sel_warning.h</text>
</a>
</g>
</g>
<!-- Node4&#45;&gt;Node32 -->
<g id="edge14" class="edge">
<title>Node4&#45;&gt;Node32</title>
<path fill="none" stroke="#63b8ff" d="M1798.17,-162C1681.29,-159.96 1431.96,-150.37 1226.67,-107 1220.43,-105.68 1213.93,-103.88 1207.64,-101.91"/>
<polygon fill="#63b8ff" stroke="#63b8ff" points="1797.83,-165.5 1807.88,-162.16 1797.94,-158.5 1797.83,-165.5"/>
</g>
<!-- Node34 -->
<g id="node16" class="node">
<title>Node34</title>
<g id="a_node16"><a xlink:href="d__meter2_8h.html" target="_top" xlink:title=" ">
<polygon fill="#fff0f0" stroke="red" points="1369.67,-96 1235.67,-96 1235.67,-77 1369.67,-77 1369.67,-96"/>
<text text-anchor="middle" x="1302.67" y="-84" font-family="Helvetica,sans-Serif" font-size="10.00">include/d/meter/d_meter2.h</text>
</a>
</g>
</g>
<!-- Node4&#45;&gt;Node34 -->
<g id="edge15" class="edge">
<title>Node4&#45;&gt;Node34</title>
<path fill="none" stroke="#63b8ff" d="M1797.95,-157.8C1703.89,-150.51 1527.19,-134.4 1378.67,-107 1363.67,-104.23 1347.25,-100.15 1333.52,-96.44"/>
<polygon fill="#63b8ff" stroke="#63b8ff" points="1797.53,-161.28 1807.77,-158.55 1798.07,-154.3 1797.53,-161.28"/>
</g>
<!-- Node42 -->
<g id="node17" class="node">
<title>Node42</title>
<g id="a_node17"><a xlink:href="d__msg__object_8h.html" target="_top" xlink:title=" ">
<polygon fill="#fff0f0" stroke="red" points="1798.67,-101.5 1688.67,-101.5 1688.67,-71.5 1798.67,-71.5 1798.67,-101.5"/>
<text text-anchor="start" x="1696.67" y="-89.5" font-family="Helvetica,sans-Serif" font-size="10.00">include/d/msg/d_msg</text>
<text text-anchor="middle" x="1743.67" y="-78.5" font-family="Helvetica,sans-Serif" font-size="10.00">_object.h</text>
</a>
</g>
</g>
<!-- Node4&#45;&gt;Node42 -->
<g id="edge16" class="edge">
<title>Node4&#45;&gt;Node42</title>
<path fill="none" stroke="#63b8ff" d="M1831.76,-142.1C1811.23,-129.38 1785.32,-113.32 1766.93,-101.92"/>
<polygon fill="#63b8ff" stroke="#63b8ff" points="1829.71,-144.95 1840.06,-147.24 1833.4,-139 1829.71,-144.95"/>
</g>
<!-- Node56 -->
<g id="node18" class="node">
<title>Node56</title>
<g id="a_node18"><a xlink:href="d__s__logo_8h.html" target="_top" xlink:title=" ">
<polygon fill="#fff0f0" stroke="red" points="1501.17,-96 1388.17,-96 1388.17,-77 1501.17,-77 1501.17,-96"/>
<text text-anchor="middle" x="1444.67" y="-84" font-family="Helvetica,sans-Serif" font-size="10.00">include/d/s/d_s_logo.h</text>
</a>
</g>
</g>
<!-- Node4&#45;&gt;Node56 -->
<g id="edge18" class="edge">
<title>Node4&#45;&gt;Node56</title>
<path fill="none" stroke="#63b8ff" d="M1798.08,-154.84C1726.36,-145.96 1609.13,-129.58 1509.67,-107 1497.03,-104.13 1483.26,-100.13 1471.65,-96.49"/>
<polygon fill="#63b8ff" stroke="#63b8ff" points="1797.34,-158.28 1807.69,-156.02 1798.19,-151.33 1797.34,-158.28"/>
</g>
<!-- Node58 -->
<g id="node19" class="node">
<title>Node58</title>
<g id="a_node19"><a xlink:href="d__s__play_8h.html" target="_top" xlink:title=" ">
<polygon fill="#fff0f0" stroke="red" points="1632.17,-96 1519.17,-96 1519.17,-77 1632.17,-77 1632.17,-96"/>
<text text-anchor="middle" x="1575.67" y="-84" font-family="Helvetica,sans-Serif" font-size="10.00">include/d/s/d_s_play.h</text>
</a>
</g>
</g>
<!-- Node4&#45;&gt;Node58 -->
<g id="edge19" class="edge">
<title>Node4&#45;&gt;Node58</title>
<path fill="none" stroke="#63b8ff" d="M1798.54,-146.01C1755.28,-135.13 1697.55,-120.46 1646.67,-107 1633.94,-103.63 1619.96,-99.82 1607.8,-96.46"/>
<polygon fill="#63b8ff" stroke="#63b8ff" points="1797.48,-149.35 1808.03,-148.39 1799.18,-142.56 1797.48,-149.35"/>
</g>
<!-- Node62 -->
<g id="node20" class="node">
<title>Node62</title>
<g id="a_node20"><a xlink:href="d__msg__scrn__base_8h.html" target="_top" xlink:title=" ">
<polygon fill="#fff0f0" stroke="red" points="2029.17,-101.5 1930.17,-101.5 1930.17,-71.5 2029.17,-71.5 2029.17,-101.5"/>
<text text-anchor="start" x="1938.17" y="-89.5" font-family="Helvetica,sans-Serif" font-size="10.00">include/msg/scrn/d</text>
<text text-anchor="middle" x="1979.67" y="-78.5" font-family="Helvetica,sans-Serif" font-size="10.00">_msg_scrn_base.h</text>
</a>
</g>
</g>
<!-- Node4&#45;&gt;Node62 -->
<g id="edge20" class="edge">
<title>Node4&#45;&gt;Node62</title>
<path fill="none" stroke="#63b8ff" d="M1896.49,-141.75C1915.91,-129.09 1940.24,-113.21 1957.57,-101.92"/>
<polygon fill="#63b8ff" stroke="#63b8ff" points="1894.58,-138.82 1888.11,-147.21 1898.4,-144.68 1894.58,-138.82"/>
</g>
<!-- Node66 -->
<g id="node21" class="node">
<title>Node66</title>
<g id="a_node21"><a xlink:href="d__a__b__zant_8h.html" target="_top" xlink:title=" ">
<polygon fill="white" stroke="#666666" points="2168.17,-101.5 2047.17,-101.5 2047.17,-71.5 2168.17,-71.5 2168.17,-101.5"/>
<text text-anchor="start" x="2055.17" y="-89.5" font-family="Helvetica,sans-Serif" font-size="10.00">include/rel/d/a/b/d</text>
<text text-anchor="middle" x="2107.67" y="-78.5" font-family="Helvetica,sans-Serif" font-size="10.00">_a_b_zant/d_a_b_zant.h</text>
</a>
</g>
</g>
<!-- Node4&#45;&gt;Node66 -->
<g id="edge21" class="edge">
<title>Node4&#45;&gt;Node66</title>
<path fill="none" stroke="#63b8ff" d="M1922.5,-144.65C1964.82,-131.59 2021.51,-114.09 2060.96,-101.92"/>
<polygon fill="#63b8ff" stroke="#63b8ff" points="1921.49,-141.3 1912.97,-147.59 1923.56,-147.99 1921.49,-141.3"/>
</g>
<!-- Node67 -->
<g id="node22" class="node">
<title>Node67</title>
<g id="a_node22"><a xlink:href="d__a__spinner_8h.html" target="_top" xlink:title=" ">
<polygon fill="white" stroke="#666666" points="3506.67,-101.5 3390.67,-101.5 3390.67,-71.5 3506.67,-71.5 3506.67,-101.5"/>
<text text-anchor="start" x="3398.67" y="-89.5" font-family="Helvetica,sans-Serif" font-size="10.00">include/rel/d/a/d_a</text>
<text text-anchor="middle" x="3448.67" y="-78.5" font-family="Helvetica,sans-Serif" font-size="10.00">_spinner/d_a_spinner.h</text>
</a>
</g>
</g>
<!-- Node4&#45;&gt;Node67 -->
<g id="edge22" class="edge">
<title>Node4&#45;&gt;Node67</title>
<path fill="none" stroke="#63b8ff" d="M1931.34,-161.03C2205.39,-154.85 3237.47,-130.26 3381.67,-107 3389.21,-105.78 3397.09,-103.99 3404.7,-101.97"/>
<polygon fill="#63b8ff" stroke="#63b8ff" points="1931.44,-157.53 1921.52,-161.25 1931.6,-164.52 1931.44,-157.53"/>
</g>
<!-- Node68 -->
<g id="node23" class="node">
<title>Node68</title>
<g id="a_node23"><a xlink:href="d__a__player_8cpp.html" target="_top" xlink:title=" ">
<polygon fill="white" stroke="#666666" points="3205.67,-24.5 3091.67,-24.5 3091.67,-5.5 3205.67,-5.5 3205.67,-24.5"/>
<text text-anchor="middle" x="3148.67" y="-12.5" font-family="Helvetica,sans-Serif" font-size="10.00">src/d/a/d_a_player.cpp</text>
</a>
</g>
</g>
<!-- Node4&#45;&gt;Node68 -->
<g id="edge31" class="edge">
<title>Node4&#45;&gt;Node68</title>
<path fill="none" stroke="#63b8ff" d="M1931.16,-160.71C2132.6,-154.99 2727.42,-135.82 2809.67,-107 2839.46,-96.56 2838.54,-78.17 2867.67,-66 2941.17,-35.3 3033.16,-23.44 3091.44,-18.86"/>
<polygon fill="#63b8ff" stroke="#63b8ff" points="1931.29,-157.2 1921.4,-160.98 1931.49,-164.2 1931.29,-157.2"/>
</g>
<!-- Node69 -->
<g id="node24" class="node">
<title>Node69</title>
<g id="a_node24"><a xlink:href="d__a__obj__yobikusa_8h.html" target="_top" xlink:title=" ">
<polygon fill="white" stroke="#666666" points="2291.17,-107 2186.17,-107 2186.17,-66 2291.17,-66 2291.17,-107"/>
<text text-anchor="start" x="2194.17" y="-95" font-family="Helvetica,sans-Serif" font-size="10.00">include/rel/d/a/obj</text>
<text text-anchor="start" x="2194.17" y="-84" font-family="Helvetica,sans-Serif" font-size="10.00">/d_a_obj_yobikusa/d</text>
<text text-anchor="middle" x="2238.67" y="-73" font-family="Helvetica,sans-Serif" font-size="10.00">_a_obj_yobikusa.h</text>
</a>
</g>
</g>
<!-- Node4&#45;&gt;Node69 -->
<g id="edge24" class="edge">
<title>Node4&#45;&gt;Node69</title>
<path fill="none" stroke="#63b8ff" d="M1931.13,-153.22C1994.65,-143.74 2092.87,-127.54 2176.67,-107 2179.63,-106.27 2182.66,-105.49 2185.7,-104.65"/>
<polygon fill="#63b8ff" stroke="#63b8ff" points="1930.95,-149.7 1921.57,-154.63 1931.97,-156.63 1930.95,-149.7"/>
</g>
<!-- Node70 -->
<g id="node25" class="node">
<title>Node70</title>
<g id="a_node25"><a xlink:href="d__a__tag__telop_8h.html" target="_top" xlink:title=" ">
<polygon fill="white" stroke="#666666" points="2427.67,-107 2309.67,-107 2309.67,-66 2427.67,-66 2427.67,-107"/>
<text text-anchor="start" x="2317.67" y="-95" font-family="Helvetica,sans-Serif" font-size="10.00">include/rel/d/a/tag</text>
<text text-anchor="start" x="2317.67" y="-84" font-family="Helvetica,sans-Serif" font-size="10.00">/d_a_tag_telop/d_a_tag</text>
<text text-anchor="middle" x="2368.67" y="-73" font-family="Helvetica,sans-Serif" font-size="10.00">_telop.h</text>
</a>
</g>
</g>
<!-- Node4&#45;&gt;Node70 -->
<g id="edge25" class="edge">
<title>Node4&#45;&gt;Node70</title>
<path fill="none" stroke="#63b8ff" d="M1931.43,-157.09C2017.25,-149.42 2170.58,-133.32 2299.67,-107 2302.84,-106.35 2306.08,-105.64 2309.34,-104.87"/>
<polygon fill="#63b8ff" stroke="#63b8ff" points="1931.2,-153.59 1921.55,-157.96 1931.81,-160.57 1931.2,-153.59"/>
</g>
<!-- Node71 -->
<g id="node26" class="node">
<title>Node71</title>
<g id="a_node26"><a xlink:href="c__dylink_8cpp.html" target="_top" xlink:title=" ">
<polygon fill="white" stroke="#666666" points="2541.17,-96 2446.17,-96 2446.17,-77 2541.17,-77 2541.17,-96"/>
<text text-anchor="middle" x="2493.67" y="-84" font-family="Helvetica,sans-Serif" font-size="10.00">src/c/c_dylink.cpp</text>
</a>
</g>
</g>
<!-- Node4&#45;&gt;Node71 -->
<g id="edge26" class="edge">
<title>Node4&#45;&gt;Node71</title>
<path fill="none" stroke="#63b8ff" d="M1931.46,-161.05C2039.01,-157.58 2256.73,-145.95 2436.67,-107 2448.43,-104.46 2461.12,-100.26 2471.54,-96.41"/>
<polygon fill="#63b8ff" stroke="#63b8ff" points="1931.55,-157.54 1921.66,-161.35 1931.76,-164.54 1931.55,-157.54"/>
</g>
<!-- Node72 -->
<g id="node27" class="node">
<title>Node72</title>
<g id="a_node27"><a xlink:href="d__a__itembase_8cpp.html" target="_top" xlink:title=" ">
<polygon fill="white" stroke="#666666" points="402.67,-96 274.67,-96 274.67,-77 402.67,-77 402.67,-96"/>
<text text-anchor="middle" x="338.67" y="-84" font-family="Helvetica,sans-Serif" font-size="10.00">src/d/a/d_a_itembase.cpp</text>
</a>
</g>
</g>
<!-- Node4&#45;&gt;Node72 -->
<g id="edge28" class="edge">
<title>Node4&#45;&gt;Node72</title>
<path fill="none" stroke="#63b8ff" d="M1797.84,-163.07C1594.62,-164.11 966.44,-162.27 449.67,-107 427.1,-104.59 402.2,-100.36 381.71,-96.45"/>
<polygon fill="#63b8ff" stroke="#63b8ff" points="1797.69,-166.57 1807.67,-163.01 1797.65,-159.57 1797.69,-166.57"/>
</g>
<!-- Node73 -->
<g id="node28" class="node">
<title>Node73</title>
<g id="a_node28"><a xlink:href="d__a__obj_8cpp.html" target="_top" xlink:title=" ">
<polygon fill="white" stroke="#666666" points="2660.17,-96 2559.17,-96 2559.17,-77 2660.17,-77 2660.17,-96"/>
<text text-anchor="middle" x="2609.67" y="-84" font-family="Helvetica,sans-Serif" font-size="10.00">src/d/a/d_a_obj.cpp</text>
</a>
</g>
</g>
<!-- Node4&#45;&gt;Node73 -->
<g id="edge29" class="edge">
<title>Node4&#45;&gt;Node73</title>
<path fill="none" stroke="#63b8ff" d="M1931.35,-162.24C2054.64,-160.61 2326.12,-151.74 2549.67,-107 2562.02,-104.53 2575.39,-100.34 2586.36,-96.48"/>
<polygon fill="#63b8ff" stroke="#63b8ff" points="1931.35,-158.73 1921.4,-162.35 1931.44,-165.73 1931.35,-158.73"/>
</g>
<!-- Node74 -->
<g id="node29" class="node">
<title>Node74</title>
<g id="a_node29"><a xlink:href="d__bg__s_8cpp.html" target="_top" xlink:title=" ">
<polygon fill="white" stroke="#666666" points="2782.67,-96 2678.67,-96 2678.67,-77 2782.67,-77 2782.67,-96"/>
<text text-anchor="middle" x="2730.67" y="-84" font-family="Helvetica,sans-Serif" font-size="10.00">src/d/bg/d_bg_s.cpp</text>
</a>
</g>
</g>
<!-- Node4&#45;&gt;Node74 -->
<g id="edge32" class="edge">
<title>Node4&#45;&gt;Node74</title>
<path fill="none" stroke="#63b8ff" d="M1931.05,-163.18C2069.48,-163.44 2398.55,-158.06 2668.67,-107 2681.53,-104.57 2695.47,-100.34 2706.87,-96.44"/>
<polygon fill="#63b8ff" stroke="#63b8ff" points="1931.36,-159.68 1921.34,-163.15 1931.33,-166.68 1931.36,-159.68"/>
</g>
<!-- Node75 -->
<g id="node30" class="node">
<title>Node75</title>
<g id="a_node30"><a xlink:href="d__bg__s__movebg__actor_8cpp.html" target="_top" xlink:title=" ">
<polygon fill="white" stroke="#666666" points="3002.67,-101.5 2876.67,-101.5 2876.67,-71.5 3002.67,-71.5 3002.67,-101.5"/>
<text text-anchor="start" x="2884.67" y="-89.5" font-family="Helvetica,sans-Serif" font-size="10.00">src/d/bg/d_bg_s_movebg</text>
<text text-anchor="middle" x="2939.67" y="-78.5" font-family="Helvetica,sans-Serif" font-size="10.00">_actor.cpp</text>
</a>
</g>
</g>
<!-- Node4&#45;&gt;Node75 -->
<g id="edge33" class="edge">
<title>Node4&#45;&gt;Node75</title>
<path fill="none" stroke="#63b8ff" d="M1931.09,-163.2C2091.95,-163.95 2514.87,-160.2 2862.67,-107 2870.99,-105.73 2879.71,-103.96 2888.18,-101.99"/>
<polygon fill="#63b8ff" stroke="#63b8ff" points="1931.49,-159.7 1921.47,-163.15 1931.46,-166.7 1931.49,-159.7"/>
</g>
<!-- Node4&#45;&gt;Node77 -->
<g id="edge34" class="edge">
<title>Node4&#45;&gt;Node77</title>
<path fill="none" stroke="#63b8ff" d="M1931.38,-160.77C2230.44,-152.96 3436.5,-120.71 3515.67,-107 3528.6,-104.76 3542.57,-100.44 3553.87,-96.44"/>
<polygon fill="#63b8ff" stroke="#63b8ff" points="1931.3,-157.27 1921.4,-161.03 1931.49,-164.27 1931.3,-157.27"/>
</g>
<!-- Node78 -->
<g id="node32" class="node">
<title>Node78</title>
<g id="a_node32"><a xlink:href="d__com__static_8cpp.html" target="_top" xlink:title=" ">
<polygon fill="white" stroke="#666666" points="732.67,-96 592.67,-96 592.67,-77 732.67,-77 732.67,-96"/>
<text text-anchor="middle" x="662.67" y="-84" font-family="Helvetica,sans-Serif" font-size="10.00">src/d/com/d_com_static.cpp</text>
</a>
</g>
</g>
<!-- Node4&#45;&gt;Node78 -->
<g id="edge35" class="edge">
<title>Node4&#45;&gt;Node78</title>
<path fill="none" stroke="#63b8ff" d="M1797.96,-160.89C1588.78,-155.58 947.45,-137.19 741.67,-107 725.46,-104.62 707.72,-100.39 693.16,-96.48"/>
<polygon fill="#63b8ff" stroke="#63b8ff" points="1797.75,-164.39 1807.84,-161.14 1797.93,-157.39 1797.75,-164.39"/>
</g>
<!-- Node40 -->
<g id="node33" class="node">
<title>Node40</title>
<g id="a_node33"><a xlink:href="d__save_8cpp.html" target="_top" xlink:title=" ">
<polygon fill="white" stroke="#666666" points="574.17,-96 459.17,-96 459.17,-77 574.17,-77 574.17,-96"/>
<text text-anchor="middle" x="516.67" y="-84" font-family="Helvetica,sans-Serif" font-size="10.00">src/d/save/d_save.cpp</text>
</a>
</g>
</g>
<!-- Node4&#45;&gt;Node40 -->
<g id="edge36" class="edge">
<title>Node4&#45;&gt;Node40</title>
<path fill="none" stroke="#63b8ff" d="M1797.98,-161.72C1569.73,-158.72 820.88,-146.07 583.67,-107 569.69,-104.7 554.49,-100.43 542.11,-96.47"/>
<polygon fill="#63b8ff" stroke="#63b8ff" points="1797.85,-165.22 1807.89,-161.85 1797.94,-158.22 1797.85,-165.22"/>
</g>
<!-- Node12 -->
<g id="node7" class="node">
<title>Node12</title>
<g id="a_node7"><a xlink:href="d__a__e__wb_8h.html" target="_top" xlink:title=" ">
<polygon fill="#fff0f0" stroke="red" points="237.67,-30 127.67,-30 127.67,0 237.67,0 237.67,-30"/>
<text text-anchor="start" x="135.67" y="-18" font-family="Helvetica,sans-Serif" font-size="10.00">include/rel/d/a/e/d</text>
<text text-anchor="middle" x="182.67" y="-7" font-family="Helvetica,sans-Serif" font-size="10.00">_a_e_wb/d_a_e_wb.h</text>
</a>
</g>
</g>
<!-- Node11&#45;&gt;Node12 -->
<g id="edge6" class="edge">
<title>Node11&#45;&gt;Node12</title>
<path fill="none" stroke="#63b8ff" d="M772.87,-73.36C762.82,-70.53 751.91,-67.82 741.67,-66 536.72,-29.51 481.49,-53.68 274.67,-30 262.79,-28.64 250.1,-26.9 238.04,-25.11"/>
<polygon fill="#63b8ff" stroke="#63b8ff" points="771.73,-76.67 782.31,-76.13 773.7,-69.95 771.73,-76.67"/>
</g>
<!-- Node17&#45;&gt;Node14 -->
<g id="edge8" class="edge">
<title>Node17&#45;&gt;Node14</title>
<path fill="none" stroke="#63b8ff" d="M1832.62,-72.69C1824.6,-70 1815.92,-67.52 1807.67,-66 1528.62,-14.69 625.92,-14.79 393.6,-15.71"/>
<polygon fill="#63b8ff" stroke="#63b8ff" points="1831.4,-75.97 1842,-76.04 1833.76,-69.38 1831.4,-75.97"/>
</g>
<!-- Node17&#45;&gt;Node18 -->
<g id="edge9" class="edge">
<title>Node17&#45;&gt;Node18</title>
<path fill="none" stroke="#63b8ff" d="M1897.8,-72.74C1905.24,-70.22 1913.16,-67.8 1920.67,-66 2025.88,-40.78 2151.32,-27.12 2224.96,-20.71"/>
<polygon fill="#63b8ff" stroke="#63b8ff" points="1896.66,-69.43 1888.41,-76.08 1899,-76.03 1896.66,-69.43"/>
</g>
<!-- Node42&#45;&gt;Node14 -->
<g id="edge17" class="edge">
<title>Node42&#45;&gt;Node14</title>
<path fill="none" stroke="#63b8ff" d="M1687.23,-68.38C1683.01,-67.46 1678.79,-66.65 1674.67,-66 1421.76,-26.11 612.49,-17.84 393.67,-16.32"/>
<polygon fill="#63b8ff" stroke="#63b8ff" points="1686.35,-71.77 1696.89,-70.69 1687.98,-64.96 1686.35,-71.77"/>
</g>
<!-- Node67&#45;&gt;Node68 -->
<g id="edge23" class="edge">
<title>Node67&#45;&gt;Node68</title>
<path fill="none" stroke="#63b8ff" d="M3389.53,-68.04C3386.88,-67.33 3384.25,-66.65 3381.67,-66 3317.49,-49.8 3242.52,-34.32 3195.32,-24.98"/>
<polygon fill="#63b8ff" stroke="#63b8ff" points="3388.45,-71.37 3399.02,-70.63 3390.29,-64.62 3388.45,-71.37"/>
</g>
<!-- Node110&#45;&gt;Node3 -->
<g id="edge51" class="edge">
<title>Node110&#45;&gt;Node3</title>
<path fill="none" stroke="#63b8ff" d="M766.15,-355.1C837.51,-342.66 952.95,-322.53 1019.31,-310.96"/>
<polygon fill="#63b8ff" stroke="#63b8ff" points="765.83,-351.61 756.58,-356.77 767.03,-358.5 765.83,-351.61"/>
</g>
<!-- Node36 -->
<g id="node36" class="node">
<title>Node36</title>
<g id="a_node36"><a xlink:href="d__a__alink_8h.html" target="_top" xlink:title=" ">
<polygon fill="white" stroke="#666666" points="948.67,-244.5 832.67,-244.5 832.67,-225.5 948.67,-225.5 948.67,-244.5"/>
<text text-anchor="middle" x="890.67" y="-232.5" font-family="Helvetica,sans-Serif" font-size="10.00">include/d/a/d_a_alink.h</text>
</a>
</g>
</g>
<!-- Node110&#45;&gt;Node36 -->
<g id="edge40" class="edge">
<title>Node110&#45;&gt;Node36</title>
<path fill="none" stroke="#63b8ff" d="M722.57,-349.68C742.41,-332.88 774.81,-306.35 804.67,-286 827.79,-270.24 856.09,-254.41 873.75,-244.9"/>
<polygon fill="#63b8ff" stroke="#63b8ff" points="720.39,-346.94 715.06,-356.1 724.94,-352.26 720.39,-346.94"/>
</g>
<!-- Node111 -->
<g id="node37" class="node">
<title>Node111</title>
<g id="a_node37"><a xlink:href="d__a__itembase_8h.html" target="_top" xlink:title=" ">
<polygon fill="white" stroke="#666666" points="631.17,-310.5 496.17,-310.5 496.17,-291.5 631.17,-291.5 631.17,-310.5"/>
<text text-anchor="middle" x="563.67" y="-298.5" font-family="Helvetica,sans-Serif" font-size="10.00">include/d/a/d_a_itembase.h</text>
</a>
</g>
</g>
<!-- Node110&#45;&gt;Node111 -->
<g id="edge43" class="edge">
<title>Node110&#45;&gt;Node111</title>
<path fill="none" stroke="#63b8ff" d="M674,-352.44C646.54,-339.88 606.51,-321.58 582.97,-310.82"/>
<polygon fill="#63b8ff" stroke="#63b8ff" points="672.28,-355.5 682.83,-356.47 675.19,-349.13 672.28,-355.5"/>
</g>
<!-- Node122 -->
<g id="node42" class="node">
<title>Node122</title>
<g id="a_node42"><a xlink:href="d__bomb_8h.html" target="_top" xlink:title=" ">
<polygon fill="white" stroke="#666666" points="185.17,-310.5 84.17,-310.5 84.17,-291.5 185.17,-291.5 185.17,-310.5"/>
<text text-anchor="middle" x="134.67" y="-298.5" font-family="Helvetica,sans-Serif" font-size="10.00">include/d/d_bomb.h</text>
</a>
</g>
</g>
<!-- Node110&#45;&gt;Node122 -->
<g id="edge52" class="edge">
<title>Node110&#45;&gt;Node122</title>
<path fill="none" stroke="#63b8ff" d="M636.47,-361.76C539.57,-355.11 355.14,-340.37 199.67,-316 190.89,-314.62 181.51,-312.81 172.69,-310.94"/>
<polygon fill="#63b8ff" stroke="#63b8ff" points="636.12,-365.25 646.34,-362.43 636.6,-358.26 636.12,-365.25"/>
</g>
<!-- Node124 -->
<g id="node44" class="node">
<title>Node124</title>
<g id="a_node44"><a xlink:href="d__a__crod_8h.html" target="_top" xlink:title=" ">
<polygon fill="white" stroke="#666666" points="261.67,-178.5 165.67,-178.5 165.67,-148.5 261.67,-148.5 261.67,-178.5"/>
<text text-anchor="start" x="173.67" y="-166.5" font-family="Helvetica,sans-Serif" font-size="10.00">include/rel/d/a/d_a</text>
<text text-anchor="middle" x="213.67" y="-155.5" font-family="Helvetica,sans-Serif" font-size="10.00">_crod/d_a_crod.h</text>
</a>
</g>
</g>
<!-- Node110&#45;&gt;Node124 -->
<g id="edge55" class="edge">
<title>Node110&#45;&gt;Node124</title>
<path fill="none" stroke="#63b8ff" d="M636.33,-364.35C537.15,-360.8 357.68,-349.78 303.67,-316 252.05,-283.72 226.3,-210.08 217.39,-178.89"/>
<polygon fill="#63b8ff" stroke="#63b8ff" points="636.1,-367.84 646.21,-364.68 636.33,-360.85 636.1,-367.84"/>
</g>
<!-- Node125 -->
<g id="node45" class="node">
<title>Node125</title>
<g id="a_node45"><a xlink:href="d__a__horse_8h.html" target="_top" xlink:title=" ">
<polygon fill="white" stroke="#666666" points="109.17,-101.5 8.17,-101.5 8.17,-71.5 109.17,-71.5 109.17,-101.5"/>
<text text-anchor="start" x="16.17" y="-89.5" font-family="Helvetica,sans-Serif" font-size="10.00">include/rel/d/a/d_a</text>
<text text-anchor="middle" x="58.67" y="-78.5" font-family="Helvetica,sans-Serif" font-size="10.00">_horse/d_a_horse.h</text>
</a>
</g>
</g>
<!-- Node110&#45;&gt;Node125 -->
<g id="edge57" class="edge">
<title>Node110&#45;&gt;Node125</title>
<path fill="none" stroke="#63b8ff" d="M636.52,-366.35C495.51,-366.16 173.45,-360.69 74.67,-316 36.3,-298.64 23.08,-288.79 6.67,-250 -15.83,-196.8 26.12,-130.36 47.39,-101.72"/>
<polygon fill="#63b8ff" stroke="#63b8ff" points="636.46,-369.85 646.46,-366.35 636.46,-362.85 636.46,-369.85"/>
</g>
<!-- Node126 -->
<g id="node46" class="node">
<title>Node126</title>
<g id="a_node46"><a xlink:href="d__a__obj__carry_8h.html" target="_top" xlink:title=" ">
<polygon fill="white" stroke="#666666" points="716.67,-184 600.67,-184 600.67,-143 716.67,-143 716.67,-184"/>
<text text-anchor="start" x="608.67" y="-172" font-family="Helvetica,sans-Serif" font-size="10.00">include/rel/d/a/obj</text>
<text text-anchor="start" x="608.67" y="-161" font-family="Helvetica,sans-Serif" font-size="10.00">/d_a_obj_carry/d_a_obj</text>
<text text-anchor="middle" x="658.67" y="-150" font-family="Helvetica,sans-Serif" font-size="10.00">_carry.h</text>
</a>
</g>
</g>
<!-- Node110&#45;&gt;Node126 -->
<g id="edge60" class="edge">
<title>Node110&#45;&gt;Node126</title>
<path fill="none" stroke="#63b8ff" d="M713.67,-347.37C727.64,-318.61 749.12,-262.31 728.67,-220 721.59,-205.34 708.54,-193.37 695.61,-184.35"/>
<polygon fill="#63b8ff" stroke="#63b8ff" points="710.73,-345.42 709.3,-355.92 716.97,-348.6 710.73,-345.42"/>
</g>
<!-- Node127 -->
<g id="node47" class="node">
<title>Node127</title>
<g id="a_node47"><a xlink:href="d__cc__d__nonmatching_8cpp.html" target="_top" xlink:title=" ">
<polygon fill="white" stroke="#666666" points="478.17,-310.5 313.17,-310.5 313.17,-291.5 478.17,-291.5 478.17,-310.5"/>
<text text-anchor="middle" x="395.67" y="-298.5" font-family="Helvetica,sans-Serif" font-size="10.00">src/d/cc/d_cc_d_nonmatching.cpp</text>
</a>
</g>
</g>
<!-- Node110&#45;&gt;Node127 -->
<g id="edge64" class="edge">
<title>Node110&#45;&gt;Node127</title>
<path fill="none" stroke="#63b8ff" d="M649.36,-354.71C589.25,-342.22 493.6,-322.35 438.53,-310.91"/>
<polygon fill="#63b8ff" stroke="#63b8ff" points="648.54,-358.12 659.04,-356.73 649.96,-351.26 648.54,-358.12"/>
</g>
<!-- Node128 -->
<g id="node48" class="node">
<title>Node128</title>
<g id="a_node48"><a xlink:href="d__cc__mass__s_8cpp.html" target="_top" xlink:title=" ">
<polygon fill="white" stroke="#666666" points="919.17,-316 814.17,-316 814.17,-286 919.17,-286 919.17,-316"/>
<text text-anchor="start" x="822.17" y="-304" font-family="Helvetica,sans-Serif" font-size="10.00">src/d/cc/d_cc_mass</text>
<text text-anchor="middle" x="866.67" y="-293" font-family="Helvetica,sans-Serif" font-size="10.00">_s.cpp</text>
</a>
</g>
</g>
<!-- Node110&#45;&gt;Node128 -->
<g id="edge65" class="edge">
<title>Node110&#45;&gt;Node128</title>
<path fill="none" stroke="#63b8ff" d="M736.8,-352.99C763.79,-342.4 801.85,-327.45 829.8,-316.48"/>
<polygon fill="#63b8ff" stroke="#63b8ff" points="735.77,-349.64 727.75,-356.55 738.33,-356.15 735.77,-349.64"/>
</g>
<!-- Node36&#45;&gt;Node4 -->
<g id="edge41" class="edge">
<title>Node36&#45;&gt;Node4</title>
<path fill="none" stroke="#63b8ff" d="M960.48,-229.02C1144.98,-215.85 1642.79,-180.33 1809.45,-168.44"/>
<polygon fill="#63b8ff" stroke="#63b8ff" points="960.28,-225.52 950.55,-229.73 960.78,-232.51 960.28,-225.52"/>
</g>
<!-- Node36&#45;&gt;Node14 -->
<g id="edge42" class="edge">
<title>Node36&#45;&gt;Node14</title>
<path fill="none" stroke="#63b8ff" d="M820.94,-223.68C760.19,-214.37 669.83,-199.75 591.67,-184 573.43,-180.32 277.22,-121.59 265.67,-107 254.36,-92.71 257.17,-82.12 265.67,-66 276.06,-46.3 298.1,-32.87 315.26,-24.94"/>
<polygon fill="#63b8ff" stroke="#63b8ff" points="820.39,-227.13 830.81,-225.18 821.45,-220.21 820.39,-227.13"/>
</g>
<!-- Node111&#45;&gt;Node72 -->
<g id="edge50" class="edge">
<title>Node111&#45;&gt;Node72</title>
<path fill="none" stroke="#63b8ff" d="M562.73,-279.93C561.02,-262.63 556.35,-237.72 543.67,-220 496.95,-154.69 407.07,-113.47 363.53,-96.46"/>
<polygon fill="#63b8ff" stroke="#63b8ff" points="559.22,-279.96 563.42,-289.69 566.2,-279.47 559.22,-279.96"/>
</g>
<!-- Node112 -->
<g id="node38" class="node">
<title>Node112</title>
<g id="a_node38"><a xlink:href="d__a__item__static_8h.html" target="_top" xlink:title=" ">
<polygon fill="#fff0f0" stroke="red" points="387.17,-178.5 280.17,-178.5 280.17,-148.5 387.17,-148.5 387.17,-178.5"/>
<text text-anchor="start" x="288.17" y="-166.5" font-family="Helvetica,sans-Serif" font-size="10.00">include/d/a/d_a_item</text>
<text text-anchor="middle" x="333.67" y="-155.5" font-family="Helvetica,sans-Serif" font-size="10.00">_static.h</text>
</a>
</g>
</g>
<!-- Node111&#45;&gt;Node112 -->
<g id="edge44" class="edge">
<title>Node111&#45;&gt;Node112</title>
<path fill="none" stroke="#63b8ff" d="M503.76,-289.02C497.99,-287.99 492.22,-286.97 486.67,-286 438.73,-277.65 302.13,-287.13 270.67,-250 250.41,-226.08 284.84,-196.23 310.26,-178.87"/>
<polygon fill="#63b8ff" stroke="#63b8ff" points="502.86,-292.41 513.32,-290.74 504.1,-285.52 502.86,-292.41"/>
</g>
<!-- Node115 -->
<g id="node39" class="node">
<title>Node115</title>
<g id="a_node39"><a xlink:href="d__a__itembase__static_8h.html" target="_top" xlink:title=" ">
<polygon fill="#fff0f0" stroke="red" points="407.67,-250 279.67,-250 279.67,-220 407.67,-220 407.67,-250"/>
<text text-anchor="start" x="287.67" y="-238" font-family="Helvetica,sans-Serif" font-size="10.00">include/d/a/d_a_itembase</text>
<text text-anchor="middle" x="343.67" y="-227" font-family="Helvetica,sans-Serif" font-size="10.00">_static.h</text>
</a>
</g>
</g>
<!-- Node111&#45;&gt;Node115 -->
<g id="edge45" class="edge">
<title>Node111&#45;&gt;Node115</title>
<path fill="none" stroke="#63b8ff" d="M522.31,-287.97C485.75,-277.33 432.33,-261.79 393.44,-250.48"/>
<polygon fill="#63b8ff" stroke="#63b8ff" points="521.05,-291.25 531.63,-290.68 523,-284.52 521.05,-291.25"/>
</g>
<!-- Node117 -->
<g id="node40" class="node">
<title>Node117</title>
<g id="a_node40"><a xlink:href="d__a__shop__item__static_8h.html" target="_top" xlink:title=" ">
<polygon fill="#fff0f0" stroke="red" points="535.17,-250 426.17,-250 426.17,-220 535.17,-220 535.17,-250"/>
<text text-anchor="start" x="434.17" y="-238" font-family="Helvetica,sans-Serif" font-size="10.00">include/d/a/d_a_shop</text>
<text text-anchor="middle" x="480.67" y="-227" font-family="Helvetica,sans-Serif" font-size="10.00">_item_static.h</text>
</a>
</g>
</g>
<!-- Node111&#45;&gt;Node117 -->
<g id="edge47" class="edge">
<title>Node111&#45;&gt;Node117</title>
<path fill="none" stroke="#63b8ff" d="M543.21,-284.22C529.83,-273.9 512.48,-260.52 499.45,-250.48"/>
<polygon fill="#63b8ff" stroke="#63b8ff" points="540.88,-286.84 550.93,-290.18 545.15,-281.3 540.88,-286.84"/>
</g>
<!-- Node121 -->
<g id="node41" class="node">
<title>Node121</title>
<g id="a_node41"><a xlink:href="d__event_8h.html" target="_top" xlink:title=" ">
<polygon fill="#fff0f0" stroke="red" points="719.67,-244.5 591.67,-244.5 591.67,-225.5 719.67,-225.5 719.67,-244.5"/>
<text text-anchor="middle" x="655.67" y="-232.5" font-family="Helvetica,sans-Serif" font-size="10.00">include/d/event/d_event.h</text>
</a>
</g>
</g>
<!-- Node111&#45;&gt;Node121 -->
<g id="edge48" class="edge">
<title>Node111&#45;&gt;Node121</title>
<path fill="none" stroke="#63b8ff" d="M585.86,-284.56C603.75,-272.12 628.28,-255.06 642.99,-244.82"/>
<polygon fill="#63b8ff" stroke="#63b8ff" points="583.92,-281.65 577.71,-290.24 587.91,-287.4 583.92,-281.65"/>
</g>
<!-- Node115&#45;&gt;Node112 -->
<g id="edge46" class="edge">
<title>Node115&#45;&gt;Node112</title>
<path fill="none" stroke="#63b8ff" d="M339.97,-208.26C338.54,-198.33 336.96,-187.36 335.74,-178.88"/>
<polygon fill="#63b8ff" stroke="#63b8ff" points="336.5,-208.7 341.38,-218.1 343.42,-207.7 336.5,-208.7"/>
</g>
<!-- Node121&#45;&gt;Node4 -->
<g id="edge49" class="edge">
<title>Node121&#45;&gt;Node4</title>
<path fill="none" stroke="#63b8ff" d="M731.13,-227.23C760.06,-224.76 793.38,-222.07 823.67,-220 1200.15,-194.28 1653.91,-173.64 1809.34,-166.87"/>
<polygon fill="#63b8ff" stroke="#63b8ff" points="731.03,-223.72 721.37,-228.07 731.63,-230.7 731.03,-223.72"/>
</g>
<!-- Node122&#45;&gt;Node14 -->
<g id="edge53" class="edge">
<title>Node122&#45;&gt;Node14</title>
<path fill="none" stroke="#63b8ff" d="M134.42,-279.87C134.7,-249.2 137.91,-189.44 156.67,-143 172.53,-103.77 179.24,-91.94 212.67,-66 238.8,-45.73 274.2,-32.65 300.82,-24.97"/>
<polygon fill="#63b8ff" stroke="#63b8ff" points="130.92,-279.6 134.44,-289.6 137.92,-279.59 130.92,-279.6"/>
</g>
<!-- Node123 -->
<g id="node43" class="node">
<title>Node123</title>
<g id="a_node43"><a xlink:href="d__bomb_8cpp.html" target="_top" xlink:title=" ">
<polygon fill="white" stroke="#666666" points="109.67,-244.5 15.67,-244.5 15.67,-225.5 109.67,-225.5 109.67,-244.5"/>
<text text-anchor="middle" x="62.67" y="-232.5" font-family="Helvetica,sans-Serif" font-size="10.00">src/d/d_bomb.cpp</text>
</a>
</g>
</g>
<!-- Node122&#45;&gt;Node123 -->
<g id="edge54" class="edge">
<title>Node122&#45;&gt;Node123</title>
<path fill="none" stroke="#63b8ff" d="M116.32,-283.69C102.42,-271.33 83.85,-254.82 72.6,-244.82"/>
<polygon fill="#63b8ff" stroke="#63b8ff" points="113.73,-286.07 123.53,-290.1 118.38,-280.84 113.73,-286.07"/>
</g>
<!-- Node124&#45;&gt;Node14 -->
<g id="edge56" class="edge">
<title>Node124&#45;&gt;Node14</title>
<path fill="none" stroke="#63b8ff" d="M212.65,-136.8C213.13,-115.71 216.96,-86.15 232.67,-66 249.19,-44.82 276.85,-32.19 299.78,-24.92"/>
<polygon fill="#63b8ff" stroke="#63b8ff" points="209.15,-136.6 212.69,-146.59 216.15,-136.58 209.15,-136.6"/>
</g>
<!-- Node125&#45;&gt;Node12 -->
<g id="edge58" class="edge">
<title>Node125&#45;&gt;Node12</title>
<path fill="none" stroke="#63b8ff" d="M94.37,-65.49C114.39,-54.27 138.9,-40.54 157.01,-30.38"/>
<polygon fill="#63b8ff" stroke="#63b8ff" points="92.7,-62.42 85.69,-70.36 96.12,-68.52 92.7,-62.42"/>
</g>
<!-- Node125&#45;&gt;Node14 -->
<g id="edge59" class="edge">
<title>Node125&#45;&gt;Node14</title>
<path fill="none" stroke="#63b8ff" d="M116.34,-67.99C118.82,-67.31 121.27,-66.64 123.67,-66 183.3,-50.14 252.96,-34.45 296.46,-24.99"/>
<polygon fill="#63b8ff" stroke="#63b8ff" points="115.56,-64.58 106.89,-70.67 117.47,-71.31 115.56,-64.58"/>
</g>
<!-- Node126&#45;&gt;Node14 -->
<g id="edge61" class="edge">
<title>Node126&#45;&gt;Node14</title>
<path fill="none" stroke="#63b8ff" d="M589.14,-145.02C530.76,-130.19 455.89,-110.74 449.67,-107 428.38,-94.2 430.48,-82.23 411.67,-66 392.95,-49.84 368.9,-34.23 353.63,-24.87"/>
<polygon fill="#63b8ff" stroke="#63b8ff" points="588.17,-148.38 598.73,-147.45 589.89,-141.6 588.17,-148.38"/>
</g>
<!-- Node126&#45;&gt;Node78 -->
<g id="edge62" class="edge">
<title>Node126&#45;&gt;Node78</title>
<path fill="none" stroke="#63b8ff" d="M660.32,-131.53C661.01,-118.74 661.74,-104.92 662.21,-96.24"/>
<polygon fill="#63b8ff" stroke="#63b8ff" points="656.84,-131.11 659.8,-141.28 663.83,-131.48 656.84,-131.11"/>
</g>
<!-- Node126&#45;&gt;Node40 -->
<g id="edge63" class="edge">
<title>Node126&#45;&gt;Node40</title>
<path fill="none" stroke="#63b8ff" d="M611.01,-137.33C584.24,-123.19 552.49,-106.42 533.49,-96.38"/>
<polygon fill="#63b8ff" stroke="#63b8ff" points="609.18,-140.32 619.65,-141.89 612.45,-134.13 609.18,-140.32"/>
</g>
<!-- Node129&#45;&gt;Node3 -->
<g id="edge68" class="edge">
<title>Node129&#45;&gt;Node3</title>
<path fill="none" stroke="#63b8ff" d="M957.98,-352.44C986.03,-339.88 1026.92,-321.58 1050.96,-310.82"/>
<polygon fill="#63b8ff" stroke="#63b8ff" points="956.64,-349.2 948.94,-356.48 959.49,-355.59 956.64,-349.2"/>
</g>
<!-- Node129&#45;&gt;Node36 -->
<g id="edge67" class="edge">
<title>Node129&#45;&gt;Node36</title>
<path fill="none" stroke="#63b8ff" d="M931.04,-346.33C933.08,-329.79 934.19,-305.76 927.67,-286 922.26,-269.59 909.16,-254.16 900.1,-244.9"/>
<polygon fill="#63b8ff" stroke="#63b8ff" points="927.63,-345.41 929.63,-355.82 934.56,-346.44 927.63,-345.41"/>
</g>
<!-- Node129&#45;&gt;Node128 -->
<g id="edge69" class="edge">
<title>Node129&#45;&gt;Node128</title>
<path fill="none" stroke="#63b8ff" d="M911.42,-348.95C901.68,-338.73 889.45,-325.9 880.24,-316.23"/>
<polygon fill="#63b8ff" stroke="#63b8ff" points="908.71,-351.18 918.15,-356.01 913.78,-346.35 908.71,-351.18"/>
</g>
</g>
</svg>
