<?xml version="1.0" encoding="UTF-8" standalone="no"?>
<!DOCTYPE svg PUBLIC "-//W3C//DTD SVG 1.1//EN"
 "http://www.w3.org/Graphics/SVG/1.1/DTD/svg11.dtd">
<!-- Generated by graphviz version 2.50.0 (20220203.2022)
 -->
<!-- Title: libs/SSystem/SComponent/c_m3d_g_tri.cpp Pages: 1 -->
<svg width="524pt" height="419pt"
 viewBox="0.00 0.00 524.00 419.00" xmlns="http://www.w3.org/2000/svg" xmlns:xlink="http://www.w3.org/1999/xlink">
<g id="graph0" class="graph" transform="scale(1 1) rotate(0) translate(4 415)">
<title>libs/SSystem/SComponent/c_m3d_g_tri.cpp</title>
<polygon fill="white" stroke="transparent" points="-4,4 -4,-415 520,-415 520,4 -4,4"/>
<!-- Node1 -->
<g id="node1" class="node">
<title>Node1</title>
<g id="a_node1"><a xlink:title=" ">
<polygon fill="#bfbfbf" stroke="black" points="55,-380.5 55,-410.5 189,-410.5 189,-380.5 55,-380.5"/>
<text text-anchor="start" x="63" y="-398.5" font-family="Helvetica,sans-Serif" font-size="10.00">libs/SSystem/SComponent</text>
<text text-anchor="middle" x="122" y="-387.5" font-family="Helvetica,sans-Serif" font-size="10.00">/c_m3d_g_tri.cpp</text>
</a>
</g>
</g>
<!-- Node2 -->
<g id="node2" class="node">
<title>Node2</title>
<g id="a_node2"><a xlink:href="c__m3d__g__tri_8h.html" target="_top" xlink:title=" ">
<polygon fill="white" stroke="black" points="126,-313.5 126,-343.5 242,-343.5 242,-313.5 126,-313.5"/>
<text text-anchor="start" x="134" y="-331.5" font-family="Helvetica,sans-Serif" font-size="10.00">SSystem/SComponent</text>
<text text-anchor="middle" x="184" y="-320.5" font-family="Helvetica,sans-Serif" font-size="10.00">/c_m3d_g_tri.h</text>
</a>
</g>
</g>
<!-- Node1&#45;&gt;Node2 -->
<g id="edge1" class="edge">
<title>Node1&#45;&gt;Node2</title>
<path fill="none" stroke="midnightblue" d="M135.45,-380.4C143.66,-371.79 154.31,-360.63 163.55,-350.94"/>
<polygon fill="midnightblue" stroke="midnightblue" points="166.2,-353.23 170.57,-343.58 161.14,-348.4 166.2,-353.23"/>
</g>
<!-- Node3 -->
<g id="node3" class="node">
<title>Node3</title>
<g id="a_node3"><a xlink:href="c__m3d_8h.html" target="_top" xlink:title=" ">
<polygon fill="white" stroke="black" points="28,-179.5 28,-209.5 144,-209.5 144,-179.5 28,-179.5"/>
<text text-anchor="start" x="36" y="-197.5" font-family="Helvetica,sans-Serif" font-size="10.00">SSystem/SComponent</text>
<text text-anchor="middle" x="86" y="-186.5" font-family="Helvetica,sans-Serif" font-size="10.00">/c_m3d.h</text>
</a>
</g>
</g>
<!-- Node1&#45;&gt;Node3 -->
<g id="edge22" class="edge">
<title>Node1&#45;&gt;Node3</title>
<path fill="none" stroke="midnightblue" d="M118.44,-380.48C112.97,-358.53 102.47,-314.68 96,-277 92.73,-257.94 90.12,-236.18 88.38,-219.95"/>
<polygon fill="midnightblue" stroke="midnightblue" points="91.83,-219.28 87.33,-209.69 84.87,-220 91.83,-219.28"/>
</g>
<!-- Node4 -->
<g id="node4" class="node">
<title>Node4</title>
<g id="a_node4"><a xlink:href="types_8h.html" target="_top" xlink:title=" ">
<polygon fill="white" stroke="black" points="193.5,-0.5 193.5,-19.5 274.5,-19.5 274.5,-0.5 193.5,-0.5"/>
<text text-anchor="middle" x="234" y="-7.5" font-family="Helvetica,sans-Serif" font-size="10.00">dolphin/types.h</text>
</a>
</g>
</g>
<!-- Node1&#45;&gt;Node4 -->
<g id="edge24" class="edge">
<title>Node1&#45;&gt;Node4</title>
<path fill="none" stroke="midnightblue" d="M94.32,-380.33C58.32,-359.69 0,-317.73 0,-262.5 0,-262.5 0,-262.5 0,-132 0,-50.22 114.17,-23.65 183.02,-15.06"/>
<polygon fill="midnightblue" stroke="midnightblue" points="183.71,-18.51 193.24,-13.88 182.9,-11.55 183.71,-18.51"/>
</g>
<!-- Node12 -->
<g id="node12" class="node">
<title>Node12</title>
<g id="a_node12"><a xlink:href="dol2asm_8h.html" target="_top" xlink:title=" ">
<polygon fill="white" stroke="black" points="260.5,-319 260.5,-338 321.5,-338 321.5,-319 260.5,-319"/>
<text text-anchor="middle" x="291" y="-326" font-family="Helvetica,sans-Serif" font-size="10.00">dol2asm.h</text>
</a>
</g>
</g>
<!-- Node1&#45;&gt;Node12 -->
<g id="edge23" class="edge">
<title>Node1&#45;&gt;Node12</title>
<path fill="none" stroke="midnightblue" d="M158.67,-380.4C188.72,-368.84 230.79,-352.66 259.38,-341.66"/>
<polygon fill="midnightblue" stroke="midnightblue" points="260.8,-344.86 268.88,-338.01 258.29,-338.33 260.8,-344.86"/>
</g>
<!-- Node2&#45;&gt;Node3 -->
<g id="edge2" class="edge">
<title>Node2&#45;&gt;Node3</title>
<path fill="none" stroke="midnightblue" d="M158.9,-313.43C144.95,-304.53 128.2,-291.91 117,-277 104.13,-259.86 96.01,-236.74 91.33,-219.51"/>
<polygon fill="midnightblue" stroke="midnightblue" points="94.68,-218.49 88.84,-209.64 87.89,-220.19 94.68,-218.49"/>
</g>
<!-- Node2&#45;&gt;Node4 -->
<g id="edge21" class="edge">
<title>Node2&#45;&gt;Node4</title>
<path fill="none" stroke="midnightblue" d="M242.24,-315.07C245.54,-314.37 248.81,-313.68 252,-313 377.64,-286.38 516,-323.93 516,-195.5 516,-195.5 516,-195.5 516,-132 516,-94.43 508.91,-78.73 479,-56 449.15,-33.32 347.39,-20.72 284.79,-14.95"/>
<polygon fill="midnightblue" stroke="midnightblue" points="284.99,-11.46 274.72,-14.05 284.37,-18.43 284.99,-11.46"/>
</g>
<!-- Node7 -->
<g id="node7" class="node">
<title>Node7</title>
<g id="a_node7"><a xlink:href="c__m3d__g__cyl_8h.html" target="_top" xlink:title=" ">
<polygon fill="white" stroke="black" points="126,-246.5 126,-276.5 242,-276.5 242,-246.5 126,-246.5"/>
<text text-anchor="start" x="134" y="-264.5" font-family="Helvetica,sans-Serif" font-size="10.00">SSystem/SComponent</text>
<text text-anchor="middle" x="184" y="-253.5" font-family="Helvetica,sans-Serif" font-size="10.00">/c_m3d_g_cyl.h</text>
</a>
</g>
</g>
<!-- Node2&#45;&gt;Node7 -->
<g id="edge8" class="edge">
<title>Node2&#45;&gt;Node7</title>
<path fill="none" stroke="midnightblue" d="M184,-313.4C184,-305.64 184,-295.81 184,-286.86"/>
<polygon fill="midnightblue" stroke="midnightblue" points="187.5,-286.58 184,-276.58 180.5,-286.58 187.5,-286.58"/>
</g>
<!-- Node8 -->
<g id="node8" class="node">
<title>Node8</title>
<g id="a_node8"><a xlink:href="c__xyz_8h.html" target="_top" xlink:title=" ">
<polygon fill="white" stroke="black" points="225,-179.5 225,-209.5 341,-209.5 341,-179.5 225,-179.5"/>
<text text-anchor="start" x="233" y="-197.5" font-family="Helvetica,sans-Serif" font-size="10.00">SSystem/SComponent</text>
<text text-anchor="middle" x="283" y="-186.5" font-family="Helvetica,sans-Serif" font-size="10.00">/c_xyz.h</text>
</a>
</g>
</g>
<!-- Node2&#45;&gt;Node8 -->
<g id="edge20" class="edge">
<title>Node2&#45;&gt;Node8</title>
<path fill="none" stroke="midnightblue" d="M209.04,-313.39C222.97,-304.47 239.72,-291.85 251,-277 264.02,-259.86 272.43,-236.74 277.34,-219.51"/>
<polygon fill="midnightblue" stroke="midnightblue" points="280.78,-220.21 279.96,-209.64 274.01,-218.41 280.78,-220.21"/>
</g>
<!-- Node11 -->
<g id="node11" class="node">
<title>Node11</title>
<g id="a_node11"><a xlink:href="c__m3d__g__pla_8h.html" target="_top" xlink:title=" ">
<polygon fill="white" stroke="black" points="298,-246.5 298,-276.5 414,-276.5 414,-246.5 298,-246.5"/>
<text text-anchor="start" x="306" y="-264.5" font-family="Helvetica,sans-Serif" font-size="10.00">SSystem/SComponent</text>
<text text-anchor="middle" x="356" y="-253.5" font-family="Helvetica,sans-Serif" font-size="10.00">/c_m3d_g_pla.h</text>
</a>
</g>
</g>
<!-- Node2&#45;&gt;Node11 -->
<g id="edge17" class="edge">
<title>Node2&#45;&gt;Node11</title>
<path fill="none" stroke="midnightblue" d="M221.32,-313.4C247.13,-303.64 281.66,-290.59 309.29,-280.15"/>
<polygon fill="midnightblue" stroke="midnightblue" points="310.63,-283.39 318.75,-276.58 308.16,-276.84 310.63,-283.39"/>
</g>
<!-- Node3&#45;&gt;Node4 -->
<g id="edge3" class="edge">
<title>Node3&#45;&gt;Node4</title>
<path fill="none" stroke="midnightblue" d="M81.02,-179.34C72.5,-152.37 58.57,-93.01 86,-56 108.17,-26.08 149.74,-15.37 183.2,-11.84"/>
<polygon fill="midnightblue" stroke="midnightblue" points="183.63,-15.32 193.29,-10.96 183.02,-8.34 183.63,-15.32"/>
</g>
<!-- Node5 -->
<g id="node5" class="node">
<title>Node5</title>
<g id="a_node5"><a xlink:href="math_8h.html" target="_top" xlink:title=" ">
<polygon fill="white" stroke="black" points="161,-123.5 161,-142.5 243,-142.5 243,-123.5 161,-123.5"/>
<text text-anchor="middle" x="202" y="-130.5" font-family="Helvetica,sans-Serif" font-size="10.00">MSL_C/math.h</text>
</a>
</g>
</g>
<!-- Node3&#45;&gt;Node5 -->
<g id="edge4" class="edge">
<title>Node3&#45;&gt;Node5</title>
<path fill="none" stroke="midnightblue" d="M113.49,-179.4C132.43,-169.68 157.44,-156.86 176.04,-147.31"/>
<polygon fill="midnightblue" stroke="midnightblue" points="177.82,-150.34 185.12,-142.66 174.63,-144.11 177.82,-150.34"/>
</g>
<!-- Node5&#45;&gt;Node4 -->
<g id="edge7" class="edge">
<title>Node5&#45;&gt;Node4</title>
<path fill="none" stroke="midnightblue" d="M188.94,-123.44C178.09,-115.47 163.43,-102.52 157,-87 151.73,-74.27 150.14,-67.95 157,-56 165.62,-40.99 181.39,-30.5 196.43,-23.46"/>
<polygon fill="midnightblue" stroke="midnightblue" points="197.82,-26.67 205.63,-19.51 195.06,-20.24 197.82,-26.67"/>
</g>
<!-- Node6 -->
<g id="node6" class="node">
<title>Node6</title>
<g id="a_node6"><a xlink:href="float_8h.html" target="_top" xlink:title=" ">
<polygon fill="white" stroke="black" points="166,-56.5 166,-86.5 302,-86.5 302,-56.5 166,-56.5"/>
<text text-anchor="start" x="174" y="-74.5" font-family="Helvetica,sans-Serif" font-size="10.00">MSL_C/MSL_Common/Src</text>
<text text-anchor="middle" x="234" y="-63.5" font-family="Helvetica,sans-Serif" font-size="10.00">/float.h</text>
</a>
</g>
</g>
<!-- Node5&#45;&gt;Node6 -->
<g id="edge5" class="edge">
<title>Node5&#45;&gt;Node6</title>
<path fill="none" stroke="midnightblue" d="M206.58,-123.48C210.51,-116.17 216.36,-105.3 221.64,-95.47"/>
<polygon fill="midnightblue" stroke="midnightblue" points="224.8,-96.99 226.46,-86.52 218.64,-93.67 224.8,-96.99"/>
</g>
<!-- Node6&#45;&gt;Node4 -->
<g id="edge6" class="edge">
<title>Node6&#45;&gt;Node4</title>
<path fill="none" stroke="midnightblue" d="M234,-56.4C234,-48.47 234,-38.46 234,-29.86"/>
<polygon fill="midnightblue" stroke="midnightblue" points="237.5,-29.66 234,-19.66 230.5,-29.66 237.5,-29.66"/>
</g>
<!-- Node7&#45;&gt;Node3 -->
<g id="edge9" class="edge">
<title>Node7&#45;&gt;Node3</title>
<path fill="none" stroke="midnightblue" d="M162.74,-246.4C148.99,-237.28 130.91,-225.29 115.76,-215.24"/>
<polygon fill="midnightblue" stroke="midnightblue" points="117.49,-212.19 107.22,-209.58 113.62,-218.02 117.49,-212.19"/>
</g>
<!-- Node7&#45;&gt;Node4 -->
<g id="edge16" class="edge">
<title>Node7&#45;&gt;Node4</title>
<path fill="none" stroke="midnightblue" d="M179.13,-246.49C165.36,-205.8 128.35,-88.46 148,-56 157.41,-40.46 174.15,-30.02 190.38,-23.15"/>
<polygon fill="midnightblue" stroke="midnightblue" points="191.75,-26.37 199.82,-19.51 189.23,-19.85 191.75,-26.37"/>
</g>
<!-- Node7&#45;&gt;Node8 -->
<g id="edge10" class="edge">
<title>Node7&#45;&gt;Node8</title>
<path fill="none" stroke="midnightblue" d="M205.48,-246.4C219.36,-237.28 237.63,-225.29 252.94,-215.24"/>
<polygon fill="midnightblue" stroke="midnightblue" points="255.12,-217.99 261.56,-209.58 251.28,-212.14 255.12,-217.99"/>
</g>
<!-- Node8&#45;&gt;Node5 -->
<g id="edge15" class="edge">
<title>Node8&#45;&gt;Node5</title>
<path fill="none" stroke="midnightblue" d="M263.8,-179.4C251.18,-170.13 234.71,-158.03 221.94,-148.65"/>
<polygon fill="midnightblue" stroke="midnightblue" points="223.92,-145.76 213.79,-142.66 219.77,-151.4 223.92,-145.76"/>
</g>
<!-- Node9 -->
<g id="node9" class="node">
<title>Node9</title>
<g id="a_node9"><a xlink:href="vec_8h.html" target="_top" xlink:title=" ">
<polygon fill="white" stroke="black" points="358,-62 358,-81 450,-81 450,-62 358,-62"/>
<text text-anchor="middle" x="404" y="-69" font-family="Helvetica,sans-Serif" font-size="10.00">dolphin/mtx/vec.h</text>
</a>
</g>
</g>
<!-- Node8&#45;&gt;Node9 -->
<g id="edge11" class="edge">
<title>Node8&#45;&gt;Node9</title>
<path fill="none" stroke="midnightblue" d="M300.87,-179.32C312.88,-169.52 328.85,-155.97 342,-143 359.68,-125.56 378.28,-103.9 390.44,-89.23"/>
<polygon fill="midnightblue" stroke="midnightblue" points="393.47,-91.05 397.11,-81.09 388.06,-86.61 393.47,-91.05"/>
</g>
<!-- Node10 -->
<g id="node10" class="node">
<title>Node10</title>
<g id="a_node10"><a xlink:href="global_8h.html" target="_top" xlink:title=" ">
<polygon fill="white" stroke="black" points="283,-123.5 283,-142.5 333,-142.5 333,-123.5 283,-123.5"/>
<text text-anchor="middle" x="308" y="-130.5" font-family="Helvetica,sans-Serif" font-size="10.00">global.h</text>
</a>
</g>
</g>
<!-- Node8&#45;&gt;Node10 -->
<g id="edge13" class="edge">
<title>Node8&#45;&gt;Node10</title>
<path fill="none" stroke="midnightblue" d="M288.92,-179.4C292.37,-171.2 296.75,-160.78 300.44,-151.99"/>
<polygon fill="midnightblue" stroke="midnightblue" points="303.72,-153.23 304.36,-142.66 297.26,-150.52 303.72,-153.23"/>
</g>
<!-- Node9&#45;&gt;Node4 -->
<g id="edge12" class="edge">
<title>Node9&#45;&gt;Node4</title>
<path fill="none" stroke="midnightblue" d="M379.64,-61.98C350.36,-51.72 301.03,-34.46 268,-22.9"/>
<polygon fill="midnightblue" stroke="midnightblue" points="268.91,-19.51 258.31,-19.51 266.59,-26.12 268.91,-19.51"/>
</g>
<!-- Node10&#45;&gt;Node4 -->
<g id="edge14" class="edge">
<title>Node10&#45;&gt;Node4</title>
<path fill="none" stroke="midnightblue" d="M311.14,-123.32C315.95,-108.43 323.36,-77.53 311,-56 302.38,-40.99 286.61,-30.5 271.57,-23.46"/>
<polygon fill="midnightblue" stroke="midnightblue" points="272.94,-20.24 262.37,-19.51 270.18,-26.67 272.94,-20.24"/>
</g>
<!-- Node11&#45;&gt;Node4 -->
<g id="edge19" class="edge">
<title>Node11&#45;&gt;Node4</title>
<path fill="none" stroke="midnightblue" d="M373.39,-246.38C414.48,-211.34 510.41,-118.71 459,-56 437.44,-29.7 344.54,-18.46 285.06,-13.9"/>
<polygon fill="midnightblue" stroke="midnightblue" points="284.96,-10.38 274.73,-13.15 284.45,-17.36 284.96,-10.38"/>
</g>
<!-- Node11&#45;&gt;Node8 -->
<g id="edge18" class="edge">
<title>Node11&#45;&gt;Node8</title>
<path fill="none" stroke="midnightblue" d="M340.16,-246.4C330.31,-237.62 317.46,-226.18 306.44,-216.37"/>
<polygon fill="midnightblue" stroke="midnightblue" points="308.6,-213.61 298.81,-209.58 303.95,-218.84 308.6,-213.61"/>
</g>
</g>
</svg>
