<?xml version="1.0" encoding="UTF-8" standalone="no"?>
<!DOCTYPE svg PUBLIC "-//W3C//DTD SVG 1.1//EN"
 "http://www.w3.org/Graphics/SVG/1.1/DTD/svg11.dtd">
<!-- Generated by graphviz version 3.0.0 (20221109.1736)
 -->
<!-- Title: include/SSystem/SComponent/c_math.h Pages: 1 -->
<svg width="2400pt" height="106pt"
 viewBox="0.00 0.00 2399.50 106.00" xmlns="http://www.w3.org/2000/svg" xmlns:xlink="http://www.w3.org/1999/xlink">
<g id="graph0" class="graph" transform="scale(1 1) rotate(0) translate(4 102)">
<title>include/SSystem/SComponent/c_math.h</title>
<polygon fill="white" stroke="transparent" points="-4,4 -4,-102 2395.5,-102 2395.5,4 -4,4"/>
<!-- Node1 -->
<g id="node1" class="node">
<title>Node1</title>
<g id="a_node1"><a xlink:title=" ">
<polygon fill="#bfbfbf" stroke="black" points="1114.5,-67.5 1114.5,-97.5 1263.5,-97.5 1263.5,-67.5 1114.5,-67.5"/>
<text text-anchor="start" x="1122.5" y="-85.5" font-family="Helvetica,sans-Serif" font-size="10.00">include/SSystem/SComponent</text>
<text text-anchor="middle" x="1189" y="-74.5" font-family="Helvetica,sans-Serif" font-size="10.00">/c_math.h</text>
</a>
</g>
</g>
<!-- Node2 -->
<g id="node2" class="node">
<title>Node2</title>
<g id="a_node2"><a xlink:href="c__lib_8cpp.html" target="_top" xlink:title=" ">
<polygon fill="white" stroke="black" points="0,-0.5 0,-30.5 134,-30.5 134,-0.5 0,-0.5"/>
<text text-anchor="start" x="8" y="-18.5" font-family="Helvetica,sans-Serif" font-size="10.00">libs/SSystem/SComponent</text>
<text text-anchor="middle" x="67" y="-7.5" font-family="Helvetica,sans-Serif" font-size="10.00">/c_lib.cpp</text>
</a>
</g>
</g>
<!-- Node1&#45;&gt;Node2 -->
<g id="edge1" class="edge">
<title>Node1&#45;&gt;Node2</title>
<path fill="none" stroke="midnightblue" d="M1104.07,-81.43C925.51,-80.39 498.3,-73.26 143,-31 140.07,-30.65 137.07,-30.25 134.06,-29.82"/>
<polygon fill="midnightblue" stroke="midnightblue" points="1104.17,-84.93 1114.19,-81.48 1104.21,-77.93 1104.17,-84.93"/>
</g>
<!-- Node3 -->
<g id="node3" class="node">
<title>Node3</title>
<g id="a_node3"><a xlink:href="c__m3d_8cpp.html" target="_top" xlink:title=" ">
<polygon fill="white" stroke="black" points="152,-0.5 152,-30.5 286,-30.5 286,-0.5 152,-0.5"/>
<text text-anchor="start" x="160" y="-18.5" font-family="Helvetica,sans-Serif" font-size="10.00">libs/SSystem/SComponent</text>
<text text-anchor="middle" x="219" y="-7.5" font-family="Helvetica,sans-Serif" font-size="10.00">/c_m3d.cpp</text>
</a>
</g>
</g>
<!-- Node1&#45;&gt;Node3 -->
<g id="edge2" class="edge">
<title>Node1&#45;&gt;Node3</title>
<path fill="none" stroke="midnightblue" d="M1104.03,-80.43C944.76,-77.6 590.73,-67.4 295,-31 292.07,-30.64 289.08,-30.23 286.06,-29.79"/>
<polygon fill="midnightblue" stroke="midnightblue" points="1104.18,-83.93 1114.23,-80.61 1104.3,-76.94 1104.18,-83.93"/>
</g>
<!-- Node4 -->
<g id="node4" class="node">
<title>Node4</title>
<g id="a_node4"><a xlink:href="c__math_8cpp.html" target="_top" xlink:title=" ">
<polygon fill="white" stroke="black" points="304,-0.5 304,-30.5 438,-30.5 438,-0.5 304,-0.5"/>
<text text-anchor="start" x="312" y="-18.5" font-family="Helvetica,sans-Serif" font-size="10.00">libs/SSystem/SComponent</text>
<text text-anchor="middle" x="371" y="-7.5" font-family="Helvetica,sans-Serif" font-size="10.00">/c_math.cpp</text>
</a>
</g>
</g>
<!-- Node1&#45;&gt;Node4 -->
<g id="edge3" class="edge">
<title>Node1&#45;&gt;Node4</title>
<path fill="none" stroke="midnightblue" d="M1104.37,-79.06C966.26,-74.33 684.06,-61.57 447,-31 444.07,-30.62 441.08,-30.2 438.07,-29.75"/>
<polygon fill="midnightblue" stroke="midnightblue" points="1104.35,-82.56 1114.46,-79.4 1104.58,-75.56 1104.35,-82.56"/>
</g>
<!-- Node5 -->
<g id="node5" class="node">
<title>Node5</title>
<g id="a_node5"><a xlink:href="c__xyz_8cpp.html" target="_top" xlink:title=" ">
<polygon fill="white" stroke="black" points="456,-0.5 456,-30.5 590,-30.5 590,-0.5 456,-0.5"/>
<text text-anchor="start" x="464" y="-18.5" font-family="Helvetica,sans-Serif" font-size="10.00">libs/SSystem/SComponent</text>
<text text-anchor="middle" x="523" y="-7.5" font-family="Helvetica,sans-Serif" font-size="10.00">/c_xyz.cpp</text>
</a>
</g>
</g>
<!-- Node1&#45;&gt;Node5 -->
<g id="edge4" class="edge">
<title>Node1&#45;&gt;Node5</title>
<path fill="none" stroke="midnightblue" d="M1104.08,-76.99C989.17,-70.26 777.93,-55.66 599,-31 596.07,-30.6 593.09,-30.16 590.07,-29.69"/>
<polygon fill="midnightblue" stroke="midnightblue" points="1104.03,-80.49 1114.22,-77.58 1104.44,-73.5 1104.03,-80.49"/>
</g>
<!-- Node6 -->
<g id="node6" class="node">
<title>Node6</title>
<g id="a_node6"><a xlink:href="d__a__alink_8cpp.html" target="_top" xlink:title=" ">
<polygon fill="white" stroke="black" points="608.5,-6 608.5,-25 717.5,-25 717.5,-6 608.5,-6"/>
<text text-anchor="middle" x="663" y="-13" font-family="Helvetica,sans-Serif" font-size="10.00">src/d/a/d_a_alink.cpp</text>
</a>
</g>
</g>
<!-- Node1&#45;&gt;Node6 -->
<g id="edge5" class="edge">
<title>Node1&#45;&gt;Node6</title>
<path fill="none" stroke="midnightblue" d="M1104.24,-75.26C1011.08,-67.71 857.22,-53.18 726,-31 716.48,-29.39 706.25,-27.23 696.86,-25.06"/>
<polygon fill="midnightblue" stroke="midnightblue" points="1104.21,-78.77 1114.45,-76.08 1104.77,-71.8 1104.21,-78.77"/>
</g>
<!-- Node7 -->
<g id="node7" class="node">
<title>Node7</title>
<g id="a_node7"><a xlink:href="d__a__obj__item_8cpp.html" target="_top" xlink:title=" ">
<polygon fill="white" stroke="black" points="735.5,-6 735.5,-25 860.5,-25 860.5,-6 735.5,-6"/>
<text text-anchor="middle" x="798" y="-13" font-family="Helvetica,sans-Serif" font-size="10.00">src/d/a/d_a_obj_item.cpp</text>
</a>
</g>
</g>
<!-- Node1&#45;&gt;Node7 -->
<g id="edge6" class="edge">
<title>Node1&#45;&gt;Node7</title>
<path fill="none" stroke="midnightblue" d="M1104.3,-69.08C1039.92,-59.39 949.23,-45.24 870,-31 859.83,-29.17 848.89,-27.05 838.69,-25"/>
<polygon fill="midnightblue" stroke="midnightblue" points="1104,-72.57 1114.41,-70.59 1105.04,-65.65 1104,-72.57"/>
</g>
<!-- Node8 -->
<g id="node8" class="node">
<title>Node8</title>
<g id="a_node8"><a xlink:href="d__a__player_8cpp.html" target="_top" xlink:title=" ">
<polygon fill="white" stroke="black" points="879,-6 879,-25 993,-25 993,-6 879,-6"/>
<text text-anchor="middle" x="936" y="-13" font-family="Helvetica,sans-Serif" font-size="10.00">src/d/a/d_a_player.cpp</text>
</a>
</g>
</g>
<!-- Node1&#45;&gt;Node8 -->
<g id="edge7" class="edge">
<title>Node1&#45;&gt;Node8</title>
<path fill="none" stroke="midnightblue" d="M1124.43,-64.91C1074.88,-52.18 1008.5,-35.13 969.2,-25.03"/>
<polygon fill="midnightblue" stroke="midnightblue" points="1123.86,-68.38 1134.41,-67.48 1125.6,-61.6 1123.86,-68.38"/>
</g>
<!-- Node9 -->
<g id="node9" class="node">
<title>Node9</title>
<g id="a_node9"><a xlink:href="d__bg__w_8cpp.html" target="_top" xlink:title=" ">
<polygon fill="white" stroke="black" points="1011.5,-6 1011.5,-25 1118.5,-25 1118.5,-6 1011.5,-6"/>
<text text-anchor="middle" x="1065" y="-13" font-family="Helvetica,sans-Serif" font-size="10.00">src/d/bg/d_bg_w.cpp</text>
</a>
</g>
</g>
<!-- Node1&#45;&gt;Node9 -->
<g id="edge8" class="edge">
<title>Node1&#45;&gt;Node9</title>
<path fill="none" stroke="midnightblue" d="M1153.02,-62.64C1129.29,-50.2 1099.36,-34.51 1081.23,-25.01"/>
<polygon fill="midnightblue" stroke="midnightblue" points="1151.61,-65.85 1162.09,-67.4 1154.86,-59.65 1151.61,-65.85"/>
</g>
<!-- Node10 -->
<g id="node10" class="node">
<title>Node10</title>
<g id="a_node10"><a xlink:href="d__cc__mass__s_8cpp.html" target="_top" xlink:title=" ">
<polygon fill="white" stroke="black" points="1136.5,-0.5 1136.5,-30.5 1241.5,-30.5 1241.5,-0.5 1136.5,-0.5"/>
<text text-anchor="start" x="1144.5" y="-18.5" font-family="Helvetica,sans-Serif" font-size="10.00">src/d/cc/d_cc_mass</text>
<text text-anchor="middle" x="1189" y="-7.5" font-family="Helvetica,sans-Serif" font-size="10.00">_s.cpp</text>
</a>
</g>
</g>
<!-- Node1&#45;&gt;Node10 -->
<g id="edge9" class="edge">
<title>Node1&#45;&gt;Node10</title>
<path fill="none" stroke="midnightblue" d="M1189,-57.11C1189,-48.15 1189,-38.32 1189,-30.58"/>
<polygon fill="midnightblue" stroke="midnightblue" points="1185.5,-57.4 1189,-67.4 1192.5,-57.4 1185.5,-57.4"/>
</g>
<!-- Node11 -->
<g id="node11" class="node">
<title>Node11</title>
<g id="a_node11"><a xlink:href="d__cc__uty_8cpp.html" target="_top" xlink:title=" ">
<polygon fill="white" stroke="black" points="1260,-6 1260,-25 1372,-25 1372,-6 1260,-6"/>
<text text-anchor="middle" x="1316" y="-13" font-family="Helvetica,sans-Serif" font-size="10.00">src/d/cc/d_cc_uty.cpp</text>
</a>
</g>
</g>
<!-- Node1&#45;&gt;Node11 -->
<g id="edge10" class="edge">
<title>Node1&#45;&gt;Node11</title>
<path fill="none" stroke="midnightblue" d="M1225.53,-62.8C1249.88,-50.34 1280.72,-34.56 1299.38,-25.01"/>
<polygon fill="midnightblue" stroke="midnightblue" points="1223.86,-59.72 1216.56,-67.4 1227.05,-65.96 1223.86,-59.72"/>
</g>
<!-- Node12 -->
<g id="node12" class="node">
<title>Node12</title>
<g id="a_node12"><a xlink:href="d__event__manager_8cpp.html" target="_top" xlink:title=" ">
<polygon fill="white" stroke="black" points="1390.5,-0.5 1390.5,-30.5 1493.5,-30.5 1493.5,-0.5 1390.5,-0.5"/>
<text text-anchor="start" x="1398.5" y="-18.5" font-family="Helvetica,sans-Serif" font-size="10.00">src/d/event/d_event</text>
<text text-anchor="middle" x="1442" y="-7.5" font-family="Helvetica,sans-Serif" font-size="10.00">_manager.cpp</text>
</a>
</g>
</g>
<!-- Node1&#45;&gt;Node12 -->
<g id="edge11" class="edge">
<title>Node1&#45;&gt;Node12</title>
<path fill="none" stroke="midnightblue" d="M1253.52,-64.92C1295.88,-54.04 1350.56,-39.99 1390.1,-29.83"/>
<polygon fill="midnightblue" stroke="midnightblue" points="1252.4,-61.6 1243.59,-67.48 1254.14,-68.38 1252.4,-61.6"/>
</g>
<!-- Node13 -->
<g id="node13" class="node">
<title>Node13</title>
<g id="a_node13"><a xlink:href="d__kankyo_8cpp.html" target="_top" xlink:title=" ">
<polygon fill="white" stroke="black" points="1512,-6 1512,-25 1646,-25 1646,-6 1512,-6"/>
<text text-anchor="middle" x="1579" y="-13" font-family="Helvetica,sans-Serif" font-size="10.00">src/d/kankyo/d_kankyo.cpp</text>
</a>
</g>
</g>
<!-- Node1&#45;&gt;Node13 -->
<g id="edge12" class="edge">
<title>Node1&#45;&gt;Node13</title>
<path fill="none" stroke="midnightblue" d="M1273.58,-68.58C1336.84,-58.75 1425.44,-44.63 1503,-31 1513.45,-29.16 1524.69,-27.08 1535.23,-25.08"/>
<polygon fill="midnightblue" stroke="midnightblue" points="1272.99,-65.13 1263.65,-70.12 1274.07,-72.05 1272.99,-65.13"/>
</g>
<!-- Node14 -->
<g id="node14" class="node">
<title>Node14</title>
<g id="a_node14"><a xlink:href="d__msg__flow_8cpp.html" target="_top" xlink:title=" ">
<polygon fill="white" stroke="black" points="1664.5,-6 1664.5,-25 1797.5,-25 1797.5,-6 1664.5,-6"/>
<text text-anchor="middle" x="1731" y="-13" font-family="Helvetica,sans-Serif" font-size="10.00">src/d/msg/d_msg_flow.cpp</text>
</a>
</g>
</g>
<!-- Node1&#45;&gt;Node14 -->
<g id="edge13" class="edge">
<title>Node1&#45;&gt;Node14</title>
<path fill="none" stroke="midnightblue" d="M1273.88,-74.37C1367.48,-66.03 1522.4,-50.8 1655,-31 1666.29,-29.31 1678.46,-27.15 1689.69,-25.01"/>
<polygon fill="midnightblue" stroke="midnightblue" points="1273.55,-70.89 1263.89,-75.26 1274.16,-77.86 1273.55,-70.89"/>
</g>
<!-- Node15 -->
<g id="node15" class="node">
<title>Node15</title>
<g id="a_node15"><a xlink:href="d__shop__system_8cpp.html" target="_top" xlink:title=" ">
<polygon fill="white" stroke="black" points="1816,-6 1816,-25 1968,-25 1968,-6 1816,-6"/>
<text text-anchor="middle" x="1892" y="-13" font-family="Helvetica,sans-Serif" font-size="10.00">src/d/shop/d_shop_system.cpp</text>
</a>
</g>
</g>
<!-- Node1&#45;&gt;Node15 -->
<g id="edge14" class="edge">
<title>Node1&#45;&gt;Node15</title>
<path fill="none" stroke="midnightblue" d="M1274.06,-76.91C1393.44,-69.93 1617.34,-54.88 1807,-31 1819.77,-29.39 1833.56,-27.23 1846.23,-25.06"/>
<polygon fill="midnightblue" stroke="midnightblue" points="1273.68,-73.43 1263.89,-77.5 1274.08,-80.41 1273.68,-73.43"/>
</g>
<!-- Node16 -->
<g id="node16" class="node">
<title>Node16</title>
<g id="a_node16"><a xlink:href="f__op__actor__mng_8cpp.html" target="_top" xlink:title=" ">
<polygon fill="white" stroke="black" points="1986.5,-0.5 1986.5,-30.5 2087.5,-30.5 2087.5,-0.5 1986.5,-0.5"/>
<text text-anchor="start" x="1994.5" y="-18.5" font-family="Helvetica,sans-Serif" font-size="10.00">src/f_op/f_op_actor</text>
<text text-anchor="middle" x="2037" y="-7.5" font-family="Helvetica,sans-Serif" font-size="10.00">_mng.cpp</text>
</a>
</g>
</g>
<!-- Node1&#45;&gt;Node16 -->
<g id="edge15" class="edge">
<title>Node1&#45;&gt;Node16</title>
<path fill="none" stroke="midnightblue" d="M1273.76,-80.86C1418.68,-78.71 1723.04,-69.53 1977,-31 1980.07,-30.53 1983.22,-29.99 1986.38,-29.38"/>
<polygon fill="midnightblue" stroke="midnightblue" points="1273.56,-77.37 1263.61,-81.01 1273.65,-84.37 1273.56,-77.37"/>
</g>
<!-- Node17 -->
<g id="node17" class="node">
<title>Node17</title>
<g id="a_node17"><a xlink:href="m__Do__lib_8cpp.html" target="_top" xlink:title=" ">
<polygon fill="white" stroke="black" points="2106,-6 2106,-25 2226,-25 2226,-6 2106,-6"/>
<text text-anchor="middle" x="2166" y="-13" font-family="Helvetica,sans-Serif" font-size="10.00">src/m_Do/m_Do_lib.cpp</text>
</a>
</g>
</g>
<!-- Node1&#45;&gt;Node17 -->
<g id="edge16" class="edge">
<title>Node1&#45;&gt;Node17</title>
<path fill="none" stroke="midnightblue" d="M1273.83,-81.06C1434.94,-79.28 1796.04,-70.76 2097,-31 2107.92,-29.56 2119.69,-27.34 2130.37,-25.06"/>
<polygon fill="midnightblue" stroke="midnightblue" points="1273.47,-77.56 1263.51,-81.17 1273.54,-84.56 1273.47,-77.56"/>
</g>
<!-- Node18 -->
<g id="node18" class="node">
<title>Node18</title>
<g id="a_node18"><a xlink:href="m__Do__machine_8cpp.html" target="_top" xlink:title=" ">
<polygon fill="white" stroke="black" points="2244.5,-6 2244.5,-25 2391.5,-25 2391.5,-6 2244.5,-6"/>
<text text-anchor="middle" x="2318" y="-13" font-family="Helvetica,sans-Serif" font-size="10.00">src/m_Do/m_Do_machine.cpp</text>
</a>
</g>
</g>
<!-- Node1&#45;&gt;Node18 -->
<g id="edge17" class="edge">
<title>Node1&#45;&gt;Node18</title>
<path fill="none" stroke="midnightblue" d="M1273.88,-80.98C1452.35,-79.11 1879.38,-70.49 2235,-31 2248.08,-29.55 2262.23,-27.32 2275.07,-25.05"/>
<polygon fill="midnightblue" stroke="midnightblue" points="1273.73,-77.48 1263.77,-81.08 1273.8,-84.48 1273.73,-77.48"/>
</g>
</g>
</svg>
