<?xml version="1.0" encoding="UTF-8" standalone="no"?>
<!DOCTYPE svg PUBLIC "-//W3C//DTD SVG 1.1//EN"
 "http://www.w3.org/Graphics/SVG/1.1/DTD/svg11.dtd">
<!-- Generated by graphviz version 2.49.3 (20211027.1534)
 -->
<!-- Title: dMeterMap_c Pages: 1 -->
<!--zoomable 693 -->
<svg id="main" version="1.1" xmlns="http://www.w3.org/2000/svg" xmlns:xlink="http://www.w3.org/1999/xlink" xml:space="preserve" onload="init(evt)">
<style type="text/css"><![CDATA[
.edge:hover path { stroke: red; }
.edge:hover polygon { stroke: red; fill: red; }
]]></style>
<script type="text/javascript"><![CDATA[
var edges = document.getElementsByTagName('g');
if (edges && edges.length) {
  for (var i=0;i<edges.length;i++) {
    if (edges[i].id.substr(0,4)=='edge') {
      edges[i].setAttribute('class','edge');
    }
  }
}
]]></script>
        <defs>
                <circle id="rim" cx="0" cy="0" r="7"/>
                <circle id="rim2" cx="0" cy="0" r="3.5"/>
                <g id="zoomPlus">
                        <use xlink:href="#rim" fill="#404040">
                                <set attributeName="fill" to="#808080" begin="zoomplus.mouseover" end="zoomplus.mouseout"/>
                        </use>
                        <path d="M-4,0h8M0,-4v8" fill="none" stroke="white" stroke-width="1.5" pointer-events="none"/>
                </g>
                <g id="zoomMin">
                        <use xlink:href="#rim" fill="#404040">
                                <set attributeName="fill" to="#808080" begin="zoomminus.mouseover" end="zoomminus.mouseout"/>
                        </use>
                        <path d="M-4,0h8" fill="none" stroke="white" stroke-width="1.5" pointer-events="none"/>
                </g>
                <g id="dirArrow">
                        <path fill="none" stroke="white" stroke-width="1.5" d="M0,-3.0v7 M-2.5,-0.5L0,-3.0L2.5,-0.5"/>
                </g>
               <g id="resetDef">
                       <use xlink:href="#rim2" fill="#404040">
                               <set attributeName="fill" to="#808080" begin="reset.mouseover" end="reset.mouseout"/>
                       </use>
               </g>
        </defs>

<script type="text/javascript">
var viewWidth = 670;
var viewHeight = 693;
var sectionId = 'dynsection-1';
</script>
<script xlink:href="svgpan.js"/>
<svg id="graph" class="graph">
<g id="viewport">
<title>dMeterMap_c</title>
<polygon fill="white" stroke="transparent" points="-4,4 -4,-689 666,-689 666,4 -4,4"/>
<!-- Node1 -->
<g id="node1" class="node">
<title>Node1</title>
<g id="a_node1"><a xlink:title=" ">
<polygon fill="#bfbfbf" stroke="black" points="190,-0.5 190,-19.5 266,-19.5 266,-0.5 190,-0.5"/>
<text text-anchor="middle" x="228" y="-7.5" font-family="Helvetica,sans-Serif" font-size="10.00">dMeterMap_c</text>
</a>
</g>
</g>
<!-- Node2 -->
<g id="node2" class="node">
<title>Node2</title>
<g id="a_node2"><a xlink:href="classdDlst__base__c.html" target="_top" xlink:title=" ">
<polygon fill="white" stroke="black" points="0,-665.5 0,-684.5 76,-684.5 76,-665.5 0,-665.5"/>
<text text-anchor="middle" x="38" y="-672.5" font-family="Helvetica,sans-Serif" font-size="10.00">dDlst_base_c</text>
</a>
</g>
</g>
<!-- Node2&#45;&gt;Node1 -->
<g id="edge1" class="edge">
<title>Node2&#45;&gt;Node1</title>
<path fill="none" stroke="midnightblue" d="M31.87,-655.43C28.91,-644.87 26,-631.33 26,-619 26,-619 26,-619 26,-76 26,-42.01 130.92,-23.25 189.53,-15.43"/>
<polygon fill="midnightblue" stroke="midnightblue" points="28.58,-656.63 34.85,-665.17 35.28,-654.59 28.58,-656.63"/>
</g>
<!-- Node23 -->
<g id="node23" class="node">
<title>Node23</title>
<g id="a_node23"><a xlink:href="classdDrawPath__c.html" target="_top" xlink:title=" ">
<polygon fill="white" stroke="black" points="74.5,-608.5 74.5,-627.5 149.5,-627.5 149.5,-608.5 74.5,-608.5"/>
<text text-anchor="middle" x="112" y="-615.5" font-family="Helvetica,sans-Serif" font-size="10.00">dDrawPath_c</text>
</a>
</g>
</g>
<!-- Node2&#45;&gt;Node23 -->
<g id="edge24" class="edge">
<title>Node2&#45;&gt;Node23</title>
<path fill="none" stroke="midnightblue" d="M57.8,-659.29C71.35,-649.21 88.88,-636.19 100.27,-627.71"/>
<polygon fill="midnightblue" stroke="midnightblue" points="55.5,-656.63 49.56,-665.41 59.68,-662.25 55.5,-656.63"/>
</g>
<!-- Node3 -->
<g id="node3" class="node">
<title>Node3</title>
<g id="a_node3"><a xlink:href="classJ2DPicture.html" target="_top" xlink:title=" ">
<polygon fill="white" stroke="black" points="195.5,-67.5 195.5,-86.5 260.5,-86.5 260.5,-67.5 195.5,-67.5"/>
<text text-anchor="middle" x="228" y="-74.5" font-family="Helvetica,sans-Serif" font-size="10.00">J2DPicture</text>
</a>
</g>
</g>
<!-- Node3&#45;&gt;Node1 -->
<g id="edge2" class="edge">
<title>Node3&#45;&gt;Node1</title>
<path fill="none" stroke="#9a32cd" stroke-dasharray="5,2" d="M228,-57.04C228,-44.67 228,-29.12 228,-19.63"/>
<polygon fill="#9a32cd" stroke="#9a32cd" points="224.5,-57.23 228,-67.23 231.5,-57.23 224.5,-57.23"/>
<text text-anchor="middle" x="267" y="-41" font-family="Helvetica,sans-Serif" font-size="10.00"> mMapJ2DPicture</text>
</g>
<!-- Node4 -->
<g id="node4" class="node">
<title>Node4</title>
<g id="a_node4"><a xlink:href="classJ2DPane.html" target="_top" xlink:title=" ">
<polygon fill="white" stroke="black" points="152,-178.5 152,-197.5 208,-197.5 208,-178.5 152,-178.5"/>
<text text-anchor="middle" x="180" y="-185.5" font-family="Helvetica,sans-Serif" font-size="10.00">J2DPane</text>
</a>
</g>
</g>
<!-- Node4&#45;&gt;Node3 -->
<g id="edge3" class="edge">
<title>Node4&#45;&gt;Node3</title>
<path fill="none" stroke="midnightblue" d="M187.86,-169.16C198.33,-145.38 216.45,-104.23 224.25,-86.51"/>
<polygon fill="midnightblue" stroke="midnightblue" points="184.59,-167.88 183.77,-178.45 191,-170.71 184.59,-167.88"/>
</g>
<!-- Node5 -->
<g id="node5" class="node">
<title>Node5</title>
<g id="a_node5"><a xlink:href="classJ2DAnmTransform.html" target="_top" xlink:title=" ">
<polygon fill="white" stroke="black" points="125,-256.5 125,-275.5 223,-275.5 223,-256.5 125,-256.5"/>
<text text-anchor="middle" x="174" y="-263.5" font-family="Helvetica,sans-Serif" font-size="10.00">J2DAnmTransform</text>
</a>
</g>
</g>
<!-- Node5&#45;&gt;Node4 -->
<g id="edge4" class="edge">
<title>Node5&#45;&gt;Node4</title>
<path fill="none" stroke="#9a32cd" stroke-dasharray="5,2" d="M173.67,-246.04C173.69,-236.94 173.99,-225.88 175,-216 175.62,-209.93 176.87,-203.18 177.96,-197.95"/>
<polygon fill="#9a32cd" stroke="#9a32cd" points="170.17,-246.33 173.75,-256.3 177.17,-246.27 170.17,-246.33"/>
<text text-anchor="middle" x="202.5" y="-224.5" font-family="Helvetica,sans-Serif" font-size="10.00"> mTransform</text>
</g>
<!-- Node6 -->
<g id="node6" class="node">
<title>Node6</title>
<g id="a_node6"><a xlink:href="classJ2DAnmBase.html" target="_top" xlink:title=" ">
<polygon fill="white" stroke="black" points="135.5,-323.5 135.5,-342.5 212.5,-342.5 212.5,-323.5 135.5,-323.5"/>
<text text-anchor="middle" x="174" y="-330.5" font-family="Helvetica,sans-Serif" font-size="10.00">J2DAnmBase</text>
</a>
</g>
</g>
<!-- Node6&#45;&gt;Node5 -->
<g id="edge5" class="edge">
<title>Node6&#45;&gt;Node5</title>
<path fill="none" stroke="midnightblue" d="M174,-313.04C174,-300.67 174,-285.12 174,-275.63"/>
<polygon fill="midnightblue" stroke="midnightblue" points="170.5,-313.23 174,-323.23 177.5,-313.23 170.5,-313.23"/>
</g>
<!-- Node7 -->
<g id="node7" class="node">
<title>Node7</title>
<g id="a_node7"><a xlink:href="classJUTTexture.html" target="_top" xlink:title=" ">
<polygon fill="white" stroke="black" points="319,-178.5 319,-197.5 387,-197.5 387,-178.5 319,-178.5"/>
<text text-anchor="middle" x="353" y="-185.5" font-family="Helvetica,sans-Serif" font-size="10.00">JUTTexture</text>
</a>
</g>
</g>
<!-- Node7&#45;&gt;Node3 -->
<g id="edge6" class="edge">
<title>Node7&#45;&gt;Node3</title>
<path fill="none" stroke="#9a32cd" stroke-dasharray="5,2" d="M335.4,-171.65C308.69,-148.36 258.81,-104.86 237.76,-86.51"/>
<polygon fill="#9a32cd" stroke="#9a32cd" points="333.35,-174.51 343.19,-178.45 337.95,-169.24 333.35,-174.51"/>
<text text-anchor="middle" x="341.5" y="-130" font-family="Helvetica,sans-Serif" font-size="10.00"> mTexture</text>
</g>
<!-- Node8 -->
<g id="node8" class="node">
<title>Node8</title>
<g id="a_node8"><a xlink:href="struct__GXTexObj.html" target="_top" xlink:title=" ">
<polygon fill="white" stroke="black" points="325.5,-256.5 325.5,-275.5 392.5,-275.5 392.5,-256.5 325.5,-256.5"/>
<text text-anchor="middle" x="359" y="-263.5" font-family="Helvetica,sans-Serif" font-size="10.00">_GXTexObj</text>
</a>
</g>
</g>
<!-- Node8&#45;&gt;Node7 -->
<g id="edge7" class="edge">
<title>Node8&#45;&gt;Node7</title>
<path fill="none" stroke="#9a32cd" stroke-dasharray="5,2" d="M357.52,-246.22C356.29,-230.7 354.61,-209.36 353.68,-197.62"/>
<polygon fill="#9a32cd" stroke="#9a32cd" points="354.04,-246.59 358.31,-256.28 361.01,-246.04 354.04,-246.59"/>
<text text-anchor="middle" x="378" y="-224.5" font-family="Helvetica,sans-Serif" font-size="10.00"> mTexObj</text>
</g>
<!-- Node9 -->
<g id="node9" class="node">
<title>Node9</title>
<g id="a_node9"><a xlink:href="structResTIMG.html" target="_top" xlink:title=" ">
<polygon fill="white" stroke="black" points="415.5,-256.5 415.5,-275.5 474.5,-275.5 474.5,-256.5 415.5,-256.5"/>
<text text-anchor="middle" x="445" y="-263.5" font-family="Helvetica,sans-Serif" font-size="10.00">ResTIMG</text>
</a>
</g>
</g>
<!-- Node9&#45;&gt;Node7 -->
<g id="edge8" class="edge">
<title>Node9&#45;&gt;Node7</title>
<path fill="none" stroke="#9a32cd" stroke-dasharray="5,2" d="M432.61,-248.12C424.63,-238 413.6,-225.32 402,-216 392.92,-208.7 381.58,-202.31 372.1,-197.58"/>
<polygon fill="#9a32cd" stroke="#9a32cd" points="429.93,-250.38 438.78,-256.21 435.5,-246.13 429.93,-250.38"/>
<text text-anchor="middle" x="444.5" y="-224.5" font-family="Helvetica,sans-Serif" font-size="10.00"> mTexInfo</text>
</g>
<!-- Node15 -->
<g id="node15" class="node">
<title>Node15</title>
<g id="a_node15"><a xlink:href="classdMap__c.html" target="_top" xlink:title=" ">
<polygon fill="white" stroke="black" points="456.5,-67.5 456.5,-86.5 507.5,-86.5 507.5,-67.5 456.5,-67.5"/>
<text text-anchor="middle" x="482" y="-74.5" font-family="Helvetica,sans-Serif" font-size="10.00">dMap_c</text>
</a>
</g>
</g>
<!-- Node9&#45;&gt;Node15 -->
<g id="edge25" class="edge">
<title>Node9&#45;&gt;Node15</title>
<path fill="none" stroke="#9a32cd" stroke-dasharray="5,2" d="M461.4,-248.92C464.02,-245.56 466.39,-241.85 468,-238 490.5,-184.24 485.59,-111.62 483.03,-86.76"/>
<polygon fill="#9a32cd" stroke="#9a32cd" points="458.71,-246.68 454.69,-256.49 463.94,-251.33 458.71,-246.68"/>
<text text-anchor="middle" x="508.5" y="-185.5" font-family="Helvetica,sans-Serif" font-size="10.00"> mResTIMG</text>
</g>
<!-- Node10 -->
<g id="node10" class="node">
<title>Node10</title>
<g id="a_node10"><a xlink:href="classJUTPalette.html" target="_top" xlink:title=" ">
<polygon fill="white" stroke="black" points="241,-256.5 241,-275.5 307,-275.5 307,-256.5 241,-256.5"/>
<text text-anchor="middle" x="274" y="-263.5" font-family="Helvetica,sans-Serif" font-size="10.00">JUTPalette</text>
</a>
</g>
</g>
<!-- Node10&#45;&gt;Node3 -->
<g id="edge12" class="edge">
<title>Node10&#45;&gt;Node3</title>
<path fill="none" stroke="#9a32cd" stroke-dasharray="5,2" d="M269.47,-246.6C259.74,-207.02 237.12,-115.06 230.11,-86.57"/>
<polygon fill="#9a32cd" stroke="#9a32cd" points="266.12,-247.6 271.9,-256.48 272.91,-245.93 266.12,-247.6"/>
<text text-anchor="middle" x="283.5" y="-185.5" font-family="Helvetica,sans-Serif" font-size="10.00"> field_0x12c</text>
</g>
<!-- Node10&#45;&gt;Node7 -->
<g id="edge9" class="edge">
<title>Node10&#45;&gt;Node7</title>
<path fill="none" stroke="#9a32cd" stroke-dasharray="5,2" d="M277.58,-246.45C280.34,-236.4 285.07,-224.36 293,-216 300.94,-207.63 311.95,-201.66 322.38,-197.5"/>
<polygon fill="#9a32cd" stroke="#9a32cd" points="274.14,-245.78 275.31,-256.31 280.97,-247.36 274.14,-245.78"/>
<text text-anchor="middle" x="322.5" y="-230" font-family="Helvetica,sans-Serif" font-size="10.00"> field_0x2c</text>
<text text-anchor="middle" x="322.5" y="-219" font-family="Helvetica,sans-Serif" font-size="10.00">mEmbPalette</text>
</g>
<!-- Node11 -->
<g id="node11" class="node">
<title>Node11</title>
<g id="a_node11"><a xlink:href="struct__GXTlutObj.html" target="_top" xlink:title=" ">
<polygon fill="white" stroke="black" points="315,-323.5 315,-342.5 383,-342.5 383,-323.5 315,-323.5"/>
<text text-anchor="middle" x="349" y="-330.5" font-family="Helvetica,sans-Serif" font-size="10.00">_GXTlutObj</text>
</a>
</g>
</g>
<!-- Node11&#45;&gt;Node10 -->
<g id="edge10" class="edge">
<title>Node11&#45;&gt;Node10</title>
<path fill="none" stroke="#9a32cd" stroke-dasharray="5,2" d="M341.25,-313.91C337.66,-307.05 332.87,-299.57 327,-294 318.68,-286.12 307.61,-279.99 297.74,-275.58"/>
<polygon fill="#9a32cd" stroke="#9a32cd" points="338.2,-315.65 345.64,-323.2 344.53,-312.66 338.2,-315.65"/>
<text text-anchor="middle" x="357.5" y="-297" font-family="Helvetica,sans-Serif" font-size="10.00"> mTlutObj</text>
</g>
<!-- Node12 -->
<g id="node12" class="node">
<title>Node12</title>
<g id="a_node12"><a xlink:href="structResTLUT.html" target="_top" xlink:title=" ">
<polygon fill="white" stroke="black" points="237.5,-323.5 237.5,-342.5 296.5,-342.5 296.5,-323.5 237.5,-323.5"/>
<text text-anchor="middle" x="267" y="-330.5" font-family="Helvetica,sans-Serif" font-size="10.00">ResTLUT</text>
</a>
</g>
</g>
<!-- Node12&#45;&gt;Node10 -->
<g id="edge11" class="edge">
<title>Node12&#45;&gt;Node10</title>
<path fill="none" stroke="#9a32cd" stroke-dasharray="5,2" d="M267.5,-313.21C267.8,-307.07 268.26,-300.23 269,-294 269.72,-287.94 270.97,-281.19 272.04,-275.96"/>
<polygon fill="#9a32cd" stroke="#9a32cd" points="264,-313.1 267.14,-323.22 271,-313.35 264,-313.1"/>
<text text-anchor="middle" x="298" y="-297" font-family="Helvetica,sans-Serif" font-size="10.00"> mColorTable</text>
</g>
<!-- Node13 -->
<g id="node13" class="node">
<title>Node13</title>
<g id="a_node13"><a xlink:href="structJUtility_1_1TColor.html" target="_top" xlink:title=" ">
<polygon fill="white" stroke="black" points="54,-178.5 54,-197.5 134,-197.5 134,-178.5 54,-178.5"/>
<text text-anchor="middle" x="94" y="-185.5" font-family="Helvetica,sans-Serif" font-size="10.00">JUtility::TColor</text>
</a>
</g>
</g>
<!-- Node13&#45;&gt;Node3 -->
<g id="edge13" class="edge">
<title>Node13&#45;&gt;Node3</title>
<path fill="none" stroke="#9a32cd" stroke-dasharray="5,2" d="M97.09,-168.41C101.17,-149.73 110.16,-121.41 129,-105 147.27,-89.08 174.06,-82.46 195.18,-79.74"/>
<polygon fill="#9a32cd" stroke="#9a32cd" points="93.63,-167.89 95.18,-178.37 100.5,-169.21 93.63,-167.89"/>
<text text-anchor="middle" x="159" y="-152" font-family="Helvetica,sans-Serif" font-size="10.00"> field_0x148</text>
<text text-anchor="middle" x="159" y="-141" font-family="Helvetica,sans-Serif" font-size="10.00">field_0x14c</text>
<text text-anchor="middle" x="159" y="-130" font-family="Helvetica,sans-Serif" font-size="10.00">mBlack</text>
<text text-anchor="middle" x="159" y="-119" font-family="Helvetica,sans-Serif" font-size="10.00">mCornerColor</text>
<text text-anchor="middle" x="159" y="-108" font-family="Helvetica,sans-Serif" font-size="10.00">mWhite</text>
</g>
<!-- Node14 -->
<g id="node14" class="node">
<title>Node14</title>
<g id="a_node14"><a xlink:href="struct__GXColor.html" target="_top" xlink:title=" ">
<polygon fill="white" stroke="black" points="54.5,-256.5 54.5,-275.5 107.5,-275.5 107.5,-256.5 54.5,-256.5"/>
<text text-anchor="middle" x="81" y="-263.5" font-family="Helvetica,sans-Serif" font-size="10.00">GXColor</text>
</a>
</g>
</g>
<!-- Node14&#45;&gt;Node13 -->
<g id="edge14" class="edge">
<title>Node14&#45;&gt;Node13</title>
<path fill="none" stroke="midnightblue" d="M84.21,-246.22C86.87,-230.7 90.52,-209.36 92.53,-197.62"/>
<polygon fill="midnightblue" stroke="midnightblue" points="80.73,-245.83 82.49,-256.28 87.63,-247.02 80.73,-245.83"/>
</g>
<!-- Node15&#45;&gt;Node1 -->
<g id="edge15" class="edge">
<title>Node15&#45;&gt;Node1</title>
<path fill="none" stroke="#9a32cd" stroke-dasharray="5,2" d="M446.38,-66.88C397.25,-54.31 309.35,-31.82 261.41,-19.55"/>
<polygon fill="#9a32cd" stroke="#9a32cd" points="445.69,-70.32 456.25,-69.41 447.43,-63.54 445.69,-70.32"/>
<text text-anchor="middle" x="385" y="-41" font-family="Helvetica,sans-Serif" font-size="10.00"> mMap</text>
</g>
<!-- Node16 -->
<g id="node16" class="node">
<title>Node16</title>
<g id="a_node16"><a xlink:href="classrenderingAmap__c.html" target="_top" xlink:title=" ">
<polygon fill="white" stroke="black" points="553,-178.5 553,-197.5 645,-197.5 645,-178.5 553,-178.5"/>
<text text-anchor="middle" x="599" y="-185.5" font-family="Helvetica,sans-Serif" font-size="10.00">renderingAmap_c</text>
</a>
</g>
</g>
<!-- Node16&#45;&gt;Node15 -->
<g id="edge16" class="edge">
<title>Node16&#45;&gt;Node15</title>
<path fill="none" stroke="midnightblue" d="M582.2,-171.35C557.12,-147.99 510.75,-104.78 491.14,-86.51"/>
<polygon fill="midnightblue" stroke="midnightblue" points="580.12,-174.19 589.82,-178.45 584.89,-169.07 580.12,-174.19"/>
</g>
<!-- Node17 -->
<g id="node17" class="node">
<title>Node17</title>
<g id="a_node17"><a xlink:href="classrenderingPlusDoorAndCursor__c.html" target="_top" xlink:title=" ">
<polygon fill="white" stroke="black" points="510,-256.5 510,-275.5 662,-275.5 662,-256.5 510,-256.5"/>
<text text-anchor="middle" x="586" y="-263.5" font-family="Helvetica,sans-Serif" font-size="10.00">renderingPlusDoorAndCursor_c</text>
</a>
</g>
</g>
<!-- Node17&#45;&gt;Node16 -->
<g id="edge17" class="edge">
<title>Node17&#45;&gt;Node16</title>
<path fill="none" stroke="midnightblue" d="M589.21,-246.22C591.87,-230.7 595.52,-209.36 597.53,-197.62"/>
<polygon fill="midnightblue" stroke="midnightblue" points="585.73,-245.83 587.49,-256.28 592.63,-247.02 585.73,-245.83"/>
</g>
<!-- Node18 -->
<g id="node18" class="node">
<title>Node18</title>
<g id="a_node18"><a xlink:href="classrenderingPlusDoor__c.html" target="_top" xlink:title=" ">
<polygon fill="white" stroke="black" points="473.5,-323.5 473.5,-342.5 580.5,-342.5 580.5,-323.5 473.5,-323.5"/>
<text text-anchor="middle" x="527" y="-330.5" font-family="Helvetica,sans-Serif" font-size="10.00">renderingPlusDoor_c</text>
</a>
</g>
</g>
<!-- Node18&#45;&gt;Node17 -->
<g id="edge18" class="edge">
<title>Node18&#45;&gt;Node17</title>
<path fill="none" stroke="midnightblue" d="M541.85,-315.63C553.39,-302.92 568.94,-285.8 578.17,-275.63"/>
<polygon fill="midnightblue" stroke="midnightblue" points="539.09,-313.48 534.96,-323.23 544.27,-318.18 539.09,-313.48"/>
</g>
<!-- Node19 -->
<g id="node19" class="node">
<title>Node19</title>
<g id="a_node19"><a xlink:href="classrenderingDAmap__c.html" target="_top" xlink:title=" ">
<polygon fill="white" stroke="black" points="464.5,-380.5 464.5,-399.5 563.5,-399.5 563.5,-380.5 464.5,-380.5"/>
<text text-anchor="middle" x="514" y="-387.5" font-family="Helvetica,sans-Serif" font-size="10.00">renderingDAmap_c</text>
</a>
</g>
</g>
<!-- Node19&#45;&gt;Node18 -->
<g id="edge19" class="edge">
<title>Node19&#45;&gt;Node18</title>
<path fill="none" stroke="midnightblue" d="M518.39,-370.42C520.61,-361.05 523.19,-350.14 524.94,-342.71"/>
<polygon fill="midnightblue" stroke="midnightblue" points="514.93,-369.87 516.03,-380.41 521.74,-371.48 514.93,-369.87"/>
</g>
<!-- Node20 -->
<g id="node20" class="node">
<title>Node20</title>
<g id="a_node20"><a xlink:href="classdRenderingFDAmap__c.html" target="_top" xlink:title=" ">
<polygon fill="white" stroke="black" points="425,-437.5 425,-456.5 539,-456.5 539,-437.5 425,-437.5"/>
<text text-anchor="middle" x="482" y="-444.5" font-family="Helvetica,sans-Serif" font-size="10.00">dRenderingFDAmap_c</text>
</a>
</g>
</g>
<!-- Node20&#45;&gt;Node19 -->
<g id="edge20" class="edge">
<title>Node20&#45;&gt;Node19</title>
<path fill="none" stroke="midnightblue" d="M492.1,-428.64C497.7,-419.01 504.42,-407.46 508.93,-399.71"/>
<polygon fill="midnightblue" stroke="midnightblue" points="489,-427 487,-437.41 495.05,-430.52 489,-427"/>
</g>
<!-- Node21 -->
<g id="node21" class="node">
<title>Node21</title>
<g id="a_node21"><a xlink:href="classdRenderingMap__c.html" target="_top" xlink:title=" ">
<polygon fill="white" stroke="black" points="370.5,-494.5 370.5,-513.5 465.5,-513.5 465.5,-494.5 370.5,-494.5"/>
<text text-anchor="middle" x="418" y="-501.5" font-family="Helvetica,sans-Serif" font-size="10.00">dRenderingMap_c</text>
</a>
</g>
</g>
<!-- Node21&#45;&gt;Node20 -->
<g id="edge21" class="edge">
<title>Node21&#45;&gt;Node20</title>
<path fill="none" stroke="midnightblue" d="M435.79,-487.71C447.42,-477.72 462.19,-465.02 471.86,-456.71"/>
<polygon fill="midnightblue" stroke="midnightblue" points="433.3,-485.23 428,-494.41 437.87,-490.54 433.3,-485.23"/>
</g>
<!-- Node22 -->
<g id="node22" class="node">
<title>Node22</title>
<g id="a_node22"><a xlink:href="classdDrawPathWithNormalPattern__c.html" target="_top" xlink:title=" ">
<polygon fill="white" stroke="black" points="211,-551.5 211,-570.5 369,-570.5 369,-551.5 211,-551.5"/>
<text text-anchor="middle" x="290" y="-558.5" font-family="Helvetica,sans-Serif" font-size="10.00">dDrawPathWithNormalPattern_c</text>
</a>
</g>
</g>
<!-- Node22&#45;&gt;Node21 -->
<g id="edge22" class="edge">
<title>Node22&#45;&gt;Node21</title>
<path fill="none" stroke="midnightblue" d="M319.39,-547.37C343.52,-537 377.06,-522.59 398.14,-513.53"/>
<polygon fill="midnightblue" stroke="midnightblue" points="317.81,-544.24 310,-551.41 320.57,-550.67 317.81,-544.24"/>
</g>
<!-- Node23&#45;&gt;Node22 -->
<g id="edge23" class="edge">
<title>Node23&#45;&gt;Node22</title>
<path fill="none" stroke="midnightblue" d="M149.77,-605.33C183.51,-594.9 232.16,-579.87 262.38,-570.53"/>
<polygon fill="midnightblue" stroke="midnightblue" points="148.33,-602.11 139.81,-608.41 150.4,-608.8 148.33,-602.11"/>
</g>
</g>
</svg>
        <g id="navigator" transform="translate(0 0)" fill="#404254">
                <rect fill="#f2f5e9" fill-opacity="0.5" stroke="#606060" stroke-width=".5" x="0" y="0" width="60" height="60"/>
                <use id="zoomplus" xlink:href="#zoomPlus" x="17" y="9" onmousedown="handleZoom(evt,'in')"/>
                <use id="zoomminus" xlink:href="#zoomMin" x="42" y="9" onmousedown="handleZoom(evt,'out')"/>
                <use id="reset" xlink:href="#resetDef" x="30" y="36" onmousedown="handleReset()"/>
                <g id="arrowUp" xlink:href="#dirArrow" transform="translate(30 24)" onmousedown="handlePan(0,-1)">
                  <use xlink:href="#rim" fill="#404040">
                        <set attributeName="fill" to="#808080" begin="arrowUp.mouseover" end="arrowUp.mouseout"/>
                  </use>
                  <path fill="none" stroke="white" stroke-width="1.5" d="M0,-3.0v7 M-2.5,-0.5L0,-3.0L2.5,-0.5"/>
                </g>
                <g id="arrowRight" xlink:href="#dirArrow" transform="rotate(90) translate(36 -43)" onmousedown="handlePan(1,0)">
                  <use xlink:href="#rim" fill="#404040">
                        <set attributeName="fill" to="#808080" begin="arrowRight.mouseover" end="arrowRight.mouseout"/>
                  </use>
                  <path fill="none" stroke="white" stroke-width="1.5" d="M0,-3.0v7 M-2.5,-0.5L0,-3.0L2.5,-0.5"/>
                </g>
                <g id="arrowDown" xlink:href="#dirArrow" transform="rotate(180) translate(-30 -48)" onmousedown="handlePan(0,1)">
                  <use xlink:href="#rim" fill="#404040">
                        <set attributeName="fill" to="#808080" begin="arrowDown.mouseover" end="arrowDown.mouseout"/>
                  </use>
                  <path fill="none" stroke="white" stroke-width="1.5" d="M0,-3.0v7 M-2.5,-0.5L0,-3.0L2.5,-0.5"/>
                </g>
                <g id="arrowLeft" xlink:href="#dirArrow" transform="rotate(270) translate(-36 17)" onmousedown="handlePan(-1,0)">
                  <use xlink:href="#rim" fill="#404040">
                        <set attributeName="fill" to="#808080" begin="arrowLeft.mouseover" end="arrowLeft.mouseout"/>
                  </use>
                  <path fill="none" stroke="white" stroke-width="1.5" d="M0,-3.0v7 M-2.5,-0.5L0,-3.0L2.5,-0.5"/>
                </g>
        </g>
        <svg viewBox="0 0 15 15" width="100%" height="30px" preserveAspectRatio="xMaxYMin meet">
         <g id="arrow_out" transform="scale(0.3 0.3)">
          <a xlink:href="classdMeterMap__c__coll__graph_org.svg" target="_base">
           <rect id="button" ry="5" rx="5" y="6" x="6" height="38" width="38"
                fill="#f2f5e9" fill-opacity="0.5" stroke="#606060" stroke-width="1.0"/>
           <path id="arrow"
             d="M 11.500037,31.436501 C 11.940474,20.09759 22.043105,11.32322 32.158766,21.979434 L 37.068811,17.246167 C 37.068811,17.246167 37.088388,32 37.088388,32 L 22.160133,31.978069 C 22.160133,31.978069 26.997745,27.140456 26.997745,27.140456 C 18.528582,18.264221 13.291696,25.230495 11.500037,31.436501 z"
             style="fill:#404040;"/>
          </a>
         </g>
        </svg>
</svg>
