<?xml version="1.0" encoding="UTF-8" standalone="no"?>
<!DOCTYPE svg PUBLIC "-//W3C//DTD SVG 1.1//EN"
 "http://www.w3.org/Graphics/SVG/1.1/DTD/svg11.dtd">
<!-- Generated by graphviz version 3.0.0 (20220413.0242)
 -->
<!-- Title: mDoDvdThd_mountXArchive_c Pages: 1 -->
<svg width="1486pt" height="340pt"
 viewBox="0.00 0.00 1486.00 340.00" xmlns="http://www.w3.org/2000/svg" xmlns:xlink="http://www.w3.org/1999/xlink">
<g id="graph0" class="graph" transform="scale(1 1) rotate(0) translate(4 336)">
<title>mDoDvdThd_mountXArchive_c</title>
<polygon fill="white" stroke="transparent" points="-4,4 -4,-336 1482,-336 1482,4 -4,4"/>
<!-- Node1 -->
<g id="node1" class="node">
<title>Node1</title>
<g id="a_node1"><a xlink:title=" ">
<polygon fill="#bfbfbf" stroke="black" points="1325,-174.5 1325,-193.5 1478,-193.5 1478,-174.5 1325,-174.5"/>
<text text-anchor="middle" x="1401.5" y="-181.5" font-family="Helvetica,sans-Serif" font-size="10.00">mDoDvdThd_mountXArchive_c</text>
</a>
</g>
</g>
<!-- Node2 -->
<g id="node2" class="node">
<title>Node2</title>
<g id="a_node2"><a xlink:href="classmDoDvdThd__command__c.html" target="_top" xlink:title=" ">
<polygon fill="white" stroke="black" points="1097.5,-240.5 1097.5,-259.5 1226.5,-259.5 1226.5,-240.5 1097.5,-240.5"/>
<text text-anchor="middle" x="1162" y="-247.5" font-family="Helvetica,sans-Serif" font-size="10.00">mDoDvdThd_command_c</text>
</a>
</g>
</g>
<!-- Node2&#45;&gt;Node1 -->
<g id="edge1" class="edge">
<title>Node2&#45;&gt;Node1</title>
<path fill="none" stroke="midnightblue" d="M1212.17,-238C1240.07,-231.04 1275.59,-221.9 1307,-213 1328.58,-206.88 1352.77,-199.36 1371.13,-193.52"/>
<polygon fill="midnightblue" stroke="midnightblue" points="1211.12,-234.66 1202.26,-240.47 1212.8,-241.45 1211.12,-234.66"/>
</g>
<!-- Node3 -->
<g id="node3" class="node">
<title>Node3</title>
<g id="a_node3"><a xlink:href="structnode__class.html" target="_top" xlink:title=" ">
<polygon fill="white" stroke="black" points="897.5,-272.5 897.5,-291.5 963.5,-291.5 963.5,-272.5 897.5,-272.5"/>
<text text-anchor="middle" x="930.5" y="-279.5" font-family="Helvetica,sans-Serif" font-size="10.00">node_class</text>
</a>
</g>
</g>
<!-- Node3&#45;&gt;Node2 -->
<g id="edge2" class="edge">
<title>Node3&#45;&gt;Node2</title>
<path fill="none" stroke="midnightblue" d="M974.12,-276.06C1008.65,-271.24 1057.86,-264.38 1097.11,-258.91"/>
<polygon fill="midnightblue" stroke="midnightblue" points="973.32,-272.64 963.89,-277.48 974.28,-279.57 973.32,-272.64"/>
</g>
<!-- Node3&#45;&gt;Node3 -->
<g id="edge3" class="edge">
<title>Node3&#45;&gt;Node3</title>
<path fill="none" stroke="#9a32cd" stroke-dasharray="5,2" d="M910.87,-301.4C912.18,-306.31 918.73,-310 930.5,-310 949.34,-310 954.79,-300.57 946.84,-291.76"/>
<polygon fill="#9a32cd" stroke="#9a32cd" points="914.24,-302.35 914.16,-291.76 907.62,-300.09 914.24,-302.35"/>
<text text-anchor="middle" x="930.5" y="-324" font-family="Helvetica,sans-Serif" font-size="10.00"> mpNextNode</text>
<text text-anchor="middle" x="930.5" y="-313" font-family="Helvetica,sans-Serif" font-size="10.00">mpPrevNode</text>
</g>
<!-- Node4 -->
<g id="node4" class="node">
<title>Node4</title>
<g id="a_node4"><a xlink:href="structJKRArchive.html" target="_top" xlink:title=" ">
<polygon fill="white" stroke="black" points="1128,-129.5 1128,-148.5 1196,-148.5 1196,-129.5 1128,-129.5"/>
<text text-anchor="middle" x="1162" y="-136.5" font-family="Helvetica,sans-Serif" font-size="10.00">JKRArchive</text>
</a>
</g>
</g>
<!-- Node4&#45;&gt;Node1 -->
<g id="edge4" class="edge">
<title>Node4&#45;&gt;Node1</title>
<path fill="none" stroke="#9a32cd" stroke-dasharray="5,2" d="M1205.86,-147.12C1246.34,-154.79 1307.08,-166.3 1349.92,-174.42"/>
<polygon fill="#9a32cd" stroke="#9a32cd" points="1206.5,-143.68 1196.02,-145.26 1205.2,-150.56 1206.5,-143.68"/>
<text text-anchor="middle" x="1276" y="-168" font-family="Helvetica,sans-Serif" font-size="10.00"> mArchive</text>
</g>
<!-- Node5 -->
<g id="node5" class="node">
<title>Node5</title>
<g id="a_node5"><a xlink:href="structJKRFileLoader.html" target="_top" xlink:title=" ">
<polygon fill="white" stroke="black" points="890,-76.5 890,-95.5 971,-95.5 971,-76.5 890,-76.5"/>
<text text-anchor="middle" x="930.5" y="-83.5" font-family="Helvetica,sans-Serif" font-size="10.00">JKRFileLoader</text>
</a>
</g>
</g>
<!-- Node5&#45;&gt;Node4 -->
<g id="edge5" class="edge">
<title>Node5&#45;&gt;Node4</title>
<path fill="none" stroke="midnightblue" d="M981.2,-97.48C1025.55,-107.72 1089.26,-122.43 1127.73,-131.32"/>
<polygon fill="midnightblue" stroke="midnightblue" points="981.74,-94.01 971.21,-95.17 980.17,-100.83 981.74,-94.01"/>
</g>
<!-- Node5&#45;&gt;Node5 -->
<g id="edge27" class="edge">
<title>Node5&#45;&gt;Node5</title>
<path fill="none" stroke="#9a32cd" stroke-dasharray="5,2" d="M910.87,-105.4C912.18,-110.31 918.73,-114 930.5,-114 949.34,-114 954.79,-104.57 946.84,-95.76"/>
<polygon fill="#9a32cd" stroke="#9a32cd" points="914.24,-106.35 914.16,-95.76 907.62,-104.09 914.24,-106.35"/>
<text text-anchor="middle" x="930.5" y="-117" font-family="Helvetica,sans-Serif" font-size="10.00"> sCurrentVolume</text>
</g>
<!-- Node6 -->
<g id="node6" class="node">
<title>Node6</title>
<g id="a_node6"><a xlink:href="structJKRDisposer.html" target="_top" xlink:title=" ">
<polygon fill="white" stroke="black" points="685,-121.5 685,-140.5 759,-140.5 759,-121.5 685,-121.5"/>
<text text-anchor="middle" x="722" y="-128.5" font-family="Helvetica,sans-Serif" font-size="10.00">JKRDisposer</text>
</a>
</g>
</g>
<!-- Node6&#45;&gt;Node5 -->
<g id="edge6" class="edge">
<title>Node6&#45;&gt;Node5</title>
<path fill="none" stroke="midnightblue" d="M769.29,-120.91C805.55,-113.01 855.47,-102.13 889.9,-94.63"/>
<polygon fill="midnightblue" stroke="midnightblue" points="768.47,-117.51 759.44,-123.06 769.96,-124.35 768.47,-117.51"/>
</g>
<!-- Node7 -->
<g id="node7" class="node">
<title>Node7</title>
<g id="a_node7"><a xlink:href="structJKRHeap.html" target="_top" xlink:title=" ">
<polygon fill="white" stroke="black" points="901,-183.5 901,-202.5 960,-202.5 960,-183.5 901,-183.5"/>
<text text-anchor="middle" x="930.5" y="-190.5" font-family="Helvetica,sans-Serif" font-size="10.00">JKRHeap</text>
</a>
</g>
</g>
<!-- Node6&#45;&gt;Node7 -->
<g id="edge8" class="edge">
<title>Node6&#45;&gt;Node7</title>
<path fill="none" stroke="midnightblue" d="M769.19,-130.08C794.24,-131.45 824.92,-136.3 849,-150 859.98,-156.25 856.61,-164.82 867,-172 877.08,-178.96 889.65,-183.77 900.87,-187.01"/>
<polygon fill="midnightblue" stroke="midnightblue" points="769.31,-126.58 759.18,-129.7 769.04,-133.58 769.31,-126.58"/>
</g>
<!-- Node7&#45;&gt;Node1 -->
<g id="edge33" class="edge">
<title>Node7&#45;&gt;Node1</title>
<path fill="none" stroke="#9a32cd" stroke-dasharray="5,2" d="M970.43,-192.25C1048.1,-190.76 1223.54,-187.4 1324.71,-185.45"/>
<polygon fill="#9a32cd" stroke="#9a32cd" points="970.06,-188.76 960.13,-192.45 970.2,-195.76 970.06,-188.76"/>
<text text-anchor="middle" x="1162" y="-192" font-family="Helvetica,sans-Serif" font-size="10.00"> mHeap</text>
</g>
<!-- Node7&#45;&gt;Node4 -->
<g id="edge28" class="edge">
<title>Node7&#45;&gt;Node4</title>
<path fill="none" stroke="#9a32cd" stroke-dasharray="5,2" d="M969.98,-183.91C983.29,-180.77 998.3,-177.23 1012,-174 1051.83,-164.62 1097.66,-153.86 1127.86,-146.77"/>
<polygon fill="#9a32cd" stroke="#9a32cd" points="969.11,-180.52 960.19,-186.22 970.72,-187.33 969.11,-180.52"/>
<text text-anchor="middle" x="1045.5" y="-177" font-family="Helvetica,sans-Serif" font-size="10.00"> mHeap</text>
</g>
<!-- Node7&#45;&gt;Node6 -->
<g id="edge7" class="edge">
<title>Node7&#45;&gt;Node6</title>
<path fill="none" stroke="#9a32cd" stroke-dasharray="5,2" d="M891.23,-181.51C851.96,-169.72 791.55,-151.58 754.81,-140.55"/>
<polygon fill="#9a32cd" stroke="#9a32cd" points="890.39,-184.91 900.98,-184.44 892.41,-178.21 890.39,-184.91"/>
<text text-anchor="middle" x="823" y="-170" font-family="Helvetica,sans-Serif" font-size="10.00"> mHeap</text>
</g>
<!-- Node7&#45;&gt;Node7 -->
<g id="edge9" class="edge">
<title>Node7&#45;&gt;Node7</title>
<path fill="none" stroke="#9a32cd" stroke-dasharray="5,2" d="M910.87,-212.4C912.18,-217.31 918.73,-221 930.5,-221 949.34,-221 954.79,-211.57 946.84,-202.76"/>
<polygon fill="#9a32cd" stroke="#9a32cd" points="914.24,-213.35 914.16,-202.76 907.62,-211.09 914.24,-213.35"/>
<text text-anchor="middle" x="930.5" y="-246" font-family="Helvetica,sans-Serif" font-size="10.00"> sCurrentHeap</text>
<text text-anchor="middle" x="930.5" y="-235" font-family="Helvetica,sans-Serif" font-size="10.00">sRootHeap</text>
<text text-anchor="middle" x="930.5" y="-224" font-family="Helvetica,sans-Serif" font-size="10.00">sSystemHeap</text>
</g>
<!-- Node8 -->
<g id="node8" class="node">
<title>Node8</title>
<g id="a_node8"><a xlink:href="structOSMutex.html" target="_top" xlink:title=" ">
<polygon fill="white" stroke="black" points="693.5,-222.5 693.5,-241.5 750.5,-241.5 750.5,-222.5 693.5,-222.5"/>
<text text-anchor="middle" x="722" y="-229.5" font-family="Helvetica,sans-Serif" font-size="10.00">OSMutex</text>
</a>
</g>
</g>
<!-- Node8&#45;&gt;Node7 -->
<g id="edge10" class="edge">
<title>Node8&#45;&gt;Node7</title>
<path fill="none" stroke="#9a32cd" stroke-dasharray="5,2" d="M760.85,-224.85C801.22,-217.23 864.28,-205.32 900.77,-198.43"/>
<polygon fill="#9a32cd" stroke="#9a32cd" points="760.03,-221.45 750.85,-226.74 761.33,-228.32 760.03,-221.45"/>
<text text-anchor="middle" x="823" y="-220" font-family="Helvetica,sans-Serif" font-size="10.00"> mMutex</text>
</g>
<!-- Node9 -->
<g id="node9" class="node">
<title>Node9</title>
<g id="a_node9"><a xlink:href="classJSUTree.html" target="_top" xlink:title=" ">
<polygon fill="white" stroke="black" points="665,-260.5 665,-279.5 779,-279.5 779,-260.5 665,-260.5"/>
<text text-anchor="middle" x="722" y="-267.5" font-family="Helvetica,sans-Serif" font-size="10.00">JSUTree&lt; JKRHeap &gt;</text>
</a>
</g>
</g>
<!-- Node9&#45;&gt;Node7 -->
<g id="edge11" class="edge">
<title>Node9&#45;&gt;Node7</title>
<path fill="none" stroke="#9a32cd" stroke-dasharray="5,2" d="M770.09,-257.71C794.02,-250.99 823.39,-241.99 849,-232 871.28,-223.31 895.88,-210.96 911.96,-202.5"/>
<polygon fill="#9a32cd" stroke="#9a32cd" points="768.89,-254.41 760.19,-260.45 770.76,-261.16 768.89,-254.41"/>
<text text-anchor="middle" x="823" y="-252" font-family="Helvetica,sans-Serif" font-size="10.00"> mChildTree</text>
</g>
<!-- Node10 -->
<g id="node10" class="node">
<title>Node10</title>
<g id="a_node10"><a xlink:href="structJSUList.html" target="_top" xlink:title=" ">
<polygon fill="white" stroke="black" points="228.5,-232.5 228.5,-251.5 339.5,-251.5 339.5,-232.5 228.5,-232.5"/>
<text text-anchor="middle" x="284" y="-239.5" font-family="Helvetica,sans-Serif" font-size="10.00">JSUList&lt; JKRHeap &gt;</text>
</a>
</g>
</g>
<!-- Node10&#45;&gt;Node9 -->
<g id="edge12" class="edge">
<title>Node10&#45;&gt;Node9</title>
<path fill="none" stroke="midnightblue" d="M349.87,-246.17C435.23,-251.65 583.88,-261.19 664.72,-266.39"/>
<polygon fill="midnightblue" stroke="midnightblue" points="349.98,-242.67 339.78,-245.52 349.53,-249.65 349.98,-242.67"/>
</g>
<!-- Node11 -->
<g id="node11" class="node">
<title>Node11</title>
<g id="a_node11"><a xlink:href="structJSUPtrList.html" target="_top" xlink:title=" ">
<polygon fill="white" stroke="black" points="0,-141.5 0,-160.5 65,-160.5 65,-141.5 0,-141.5"/>
<text text-anchor="middle" x="32.5" y="-148.5" font-family="Helvetica,sans-Serif" font-size="10.00">JSUPtrList</text>
</a>
</g>
</g>
<!-- Node11&#45;&gt;Node10 -->
<g id="edge13" class="edge">
<title>Node11&#45;&gt;Node10</title>
<path fill="none" stroke="midnightblue" d="M55.26,-166.39C63.65,-171.85 73.5,-177.7 83,-182 134.67,-205.42 197.91,-222.63 239.27,-232.47"/>
<polygon fill="midnightblue" stroke="midnightblue" points="57.07,-163.39 46.82,-160.72 53.16,-169.2 57.07,-163.39"/>
</g>
<!-- Node12 -->
<g id="node12" class="node">
<title>Node12</title>
<g id="a_node12"><a xlink:href="structJSUPtrLink.html" target="_top" xlink:title=" ">
<polygon fill="white" stroke="black" points="135,-107.5 135,-126.5 203,-126.5 203,-107.5 135,-107.5"/>
<text text-anchor="middle" x="169" y="-114.5" font-family="Helvetica,sans-Serif" font-size="10.00">JSUPtrLink</text>
</a>
</g>
</g>
<!-- Node11&#45;&gt;Node12 -->
<g id="edge15" class="edge">
<title>Node11&#45;&gt;Node12</title>
<path fill="none" stroke="#9a32cd" stroke-dasharray="5,2" d="M50.78,-134.77C59.68,-127.52 71.14,-119.77 83,-116 99.6,-110.73 118.95,-110.53 135,-111.84"/>
<polygon fill="#9a32cd" stroke="#9a32cd" points="48.36,-132.23 43.1,-141.43 52.95,-137.52 48.36,-132.23"/>
<text text-anchor="middle" x="100" y="-119" font-family="Helvetica,sans-Serif" font-size="10.00"> mList</text>
</g>
<!-- Node14 -->
<g id="node14" class="node">
<title>Node14</title>
<g id="a_node14"><a xlink:href="structJSUList.html" target="_top" xlink:title=" ">
<polygon fill="white" stroke="black" points="221,-184.5 221,-203.5 347,-203.5 347,-184.5 221,-184.5"/>
<text text-anchor="middle" x="284" y="-191.5" font-family="Helvetica,sans-Serif" font-size="10.00">JSUList&lt; JKRDisposer &gt;</text>
</a>
</g>
</g>
<!-- Node11&#45;&gt;Node14 -->
<g id="edge20" class="edge">
<title>Node11&#45;&gt;Node14</title>
<path fill="none" stroke="midnightblue" d="M74.97,-161.99C77.69,-162.68 80.38,-163.35 83,-164 106.03,-169.68 111.64,-171.9 135,-176 163.04,-180.93 194.31,-184.94 220.86,-187.92"/>
<polygon fill="midnightblue" stroke="midnightblue" points="75.71,-158.56 65.15,-159.46 73.96,-165.34 75.71,-158.56"/>
</g>
<!-- Node16 -->
<g id="node16" class="node">
<title>Node16</title>
<g id="a_node16"><a xlink:href="structJSUList.html" target="_top" xlink:title=" ">
<polygon fill="white" stroke="black" points="512,-29.5 512,-48.5 646,-48.5 646,-29.5 512,-29.5"/>
<text text-anchor="middle" x="579" y="-36.5" font-family="Helvetica,sans-Serif" font-size="10.00">JSUList&lt; JKRFileLoader &gt;</text>
</a>
</g>
</g>
<!-- Node11&#45;&gt;Node16 -->
<g id="edge24" class="edge">
<title>Node11&#45;&gt;Node16</title>
<path fill="none" stroke="midnightblue" d="M48.28,-133.82C57.34,-124.41 69.73,-113.39 83,-107 104.13,-96.82 111.82,-101.55 135,-98 268.45,-77.57 425.15,-57.66 511.84,-46.99"/>
<polygon fill="midnightblue" stroke="midnightblue" points="45.68,-131.47 41.5,-141.21 50.84,-136.2 45.68,-131.47"/>
</g>
<!-- Node12&#45;&gt;Node11 -->
<g id="edge14" class="edge">
<title>Node12&#45;&gt;Node11</title>
<path fill="none" stroke="#9a32cd" stroke-dasharray="5,2" d="M124.93,-127.89C105.47,-132.81 82.89,-138.52 65.03,-143.03"/>
<polygon fill="#9a32cd" stroke="#9a32cd" points="125.95,-131.24 134.79,-125.4 124.23,-124.45 125.95,-131.24"/>
<text text-anchor="middle" x="100" y="-152" font-family="Helvetica,sans-Serif" font-size="10.00"> mHead</text>
<text text-anchor="middle" x="100" y="-141" font-family="Helvetica,sans-Serif" font-size="10.00">mTail</text>
</g>
<!-- Node12&#45;&gt;Node12 -->
<g id="edge16" class="edge">
<title>Node12&#45;&gt;Node12</title>
<path fill="none" stroke="#9a32cd" stroke-dasharray="5,2" d="M156.48,-136.77C157.46,-141.5 161.64,-145 169,-145 181.09,-145 184.58,-135.57 179.48,-126.76"/>
<polygon fill="#9a32cd" stroke="#9a32cd" points="159.95,-137.25 158.52,-126.76 153.09,-135.86 159.95,-137.25"/>
<text text-anchor="middle" x="169" y="-159" font-family="Helvetica,sans-Serif" font-size="10.00"> mNext</text>
<text text-anchor="middle" x="169" y="-148" font-family="Helvetica,sans-Serif" font-size="10.00">mPrev</text>
</g>
<!-- Node13 -->
<g id="node13" class="node">
<title>Node13</title>
<g id="a_node13"><a xlink:href="structJSULink.html" target="_top" xlink:title=" ">
<polygon fill="white" stroke="black" points="372.5,-146.5 372.5,-165.5 485.5,-165.5 485.5,-146.5 372.5,-146.5"/>
<text text-anchor="middle" x="429" y="-153.5" font-family="Helvetica,sans-Serif" font-size="10.00">JSULink&lt; JKRHeap &gt;</text>
</a>
</g>
</g>
<!-- Node12&#45;&gt;Node13 -->
<g id="edge18" class="edge">
<title>Node12&#45;&gt;Node13</title>
<path fill="none" stroke="midnightblue" d="M211.79,-129C214.89,-129.73 217.99,-130.41 221,-131 271.79,-140.98 330.43,-147.61 372.3,-151.52"/>
<polygon fill="midnightblue" stroke="midnightblue" points="212.48,-125.57 201.93,-126.54 210.78,-132.36 212.48,-125.57"/>
</g>
<!-- Node15 -->
<g id="node15" class="node">
<title>Node15</title>
<g id="a_node15"><a xlink:href="structJSULink.html" target="_top" xlink:title=" ">
<polygon fill="white" stroke="black" points="365,-108.5 365,-127.5 493,-127.5 493,-108.5 365,-108.5"/>
<text text-anchor="middle" x="429" y="-115.5" font-family="Helvetica,sans-Serif" font-size="10.00">JSULink&lt; JKRDisposer &gt;</text>
</a>
</g>
</g>
<!-- Node12&#45;&gt;Node15 -->
<g id="edge22" class="edge">
<title>Node12&#45;&gt;Node15</title>
<path fill="none" stroke="midnightblue" d="M213.25,-117.17C254.69,-117.33 317.71,-117.57 364.78,-117.75"/>
<polygon fill="midnightblue" stroke="midnightblue" points="213.21,-113.67 203.2,-117.13 213.19,-120.67 213.21,-113.67"/>
</g>
<!-- Node17 -->
<g id="node17" class="node">
<title>Node17</title>
<g id="a_node17"><a xlink:href="structJSULink.html" target="_top" xlink:title=" ">
<polygon fill="white" stroke="black" points="511,-73.5 511,-92.5 647,-92.5 647,-73.5 511,-73.5"/>
<text text-anchor="middle" x="579" y="-80.5" font-family="Helvetica,sans-Serif" font-size="10.00">JSULink&lt; JKRFileLoader &gt;</text>
</a>
</g>
</g>
<!-- Node12&#45;&gt;Node17 -->
<g id="edge26" class="edge">
<title>Node12&#45;&gt;Node17</title>
<path fill="none" stroke="midnightblue" d="M213.18,-112.8C252.69,-109.01 312.75,-103.37 365,-99 413.78,-94.92 468.89,-90.79 510.82,-87.75"/>
<polygon fill="midnightblue" stroke="midnightblue" points="212.73,-109.33 203.11,-113.77 213.4,-116.3 212.73,-109.33"/>
</g>
<!-- Node13&#45;&gt;Node9 -->
<g id="edge17" class="edge">
<title>Node13&#45;&gt;Node9</title>
<path fill="none" stroke="midnightblue" d="M450.23,-171.68C466.04,-183.32 488.97,-198.87 511,-209 515.11,-210.89 629.39,-243.74 687.6,-260.43"/>
<polygon fill="midnightblue" stroke="midnightblue" points="452.32,-168.88 442.22,-165.68 448.12,-174.48 452.32,-168.88"/>
</g>
<!-- Node14&#45;&gt;Node7 -->
<g id="edge19" class="edge">
<title>Node14&#45;&gt;Node7</title>
<path fill="none" stroke="#9a32cd" stroke-dasharray="5,2" d="M357.38,-193.89C498.73,-193.67 805.94,-193.19 900.93,-193.04"/>
<polygon fill="#9a32cd" stroke="#9a32cd" points="357.08,-190.39 347.09,-193.9 357.1,-197.39 357.08,-190.39"/>
<text text-anchor="middle" x="579" y="-196" font-family="Helvetica,sans-Serif" font-size="10.00"> mDisposerList</text>
</g>
<!-- Node15&#45;&gt;Node6 -->
<g id="edge21" class="edge">
<title>Node15&#45;&gt;Node6</title>
<path fill="none" stroke="#9a32cd" stroke-dasharray="5,2" d="M503.36,-121.28C561.36,-123.87 639.84,-127.37 684.98,-129.39"/>
<polygon fill="#9a32cd" stroke="#9a32cd" points="503.29,-117.77 493.14,-120.82 502.98,-124.76 503.29,-117.77"/>
<text text-anchor="middle" x="579" y="-130" font-family="Helvetica,sans-Serif" font-size="10.00"> mLink</text>
</g>
<!-- Node16&#45;&gt;Node5 -->
<g id="edge23" class="edge">
<title>Node16&#45;&gt;Node5</title>
<path fill="none" stroke="#9a32cd" stroke-dasharray="5,2" d="M656.07,-49.23C727.98,-58.9 833.05,-73.03 889.73,-80.65"/>
<polygon fill="#9a32cd" stroke="#9a32cd" points="656.53,-45.76 646.15,-47.9 655.59,-52.7 656.53,-45.76"/>
<text text-anchor="middle" x="722" y="-69" font-family="Helvetica,sans-Serif" font-size="10.00"> sVolumeList</text>
</g>
<!-- Node17&#45;&gt;Node5 -->
<g id="edge25" class="edge">
<title>Node17&#45;&gt;Node5</title>
<path fill="none" stroke="#9a32cd" stroke-dasharray="5,2" d="M657.74,-83.67C729.51,-84.28 833.26,-85.17 889.54,-85.66"/>
<polygon fill="#9a32cd" stroke="#9a32cd" points="657.42,-80.16 647.39,-83.58 657.36,-87.16 657.42,-80.16"/>
<text text-anchor="middle" x="722" y="-88" font-family="Helvetica,sans-Serif" font-size="10.00"> mFileLoaderLink</text>
</g>
<!-- Node18 -->
<g id="node18" class="node">
<title>Node18</title>
<g id="a_node18"><a xlink:href="structSArcDataInfo.html" target="_top" xlink:title=" ">
<polygon fill="white" stroke="black" points="893,-0.5 893,-19.5 968,-19.5 968,-0.5 893,-0.5"/>
<text text-anchor="middle" x="930.5" y="-7.5" font-family="Helvetica,sans-Serif" font-size="10.00">SArcDataInfo</text>
</a>
</g>
</g>
<!-- Node18&#45;&gt;Node4 -->
<g id="edge29" class="edge">
<title>Node18&#45;&gt;Node4</title>
<path fill="none" stroke="#9a32cd" stroke-dasharray="5,2" d="M978.31,-9.36C1010.79,-11.49 1052.77,-19.75 1079,-46 1102.92,-69.94 1073.67,-95.48 1097,-120 1105.07,-128.48 1116.73,-133.23 1127.9,-135.87"/>
<polygon fill="#9a32cd" stroke="#9a32cd" points="978.29,-5.86 968.13,-8.87 977.95,-12.85 978.29,-5.86"/>
<text text-anchor="middle" x="1045.5" y="-49" font-family="Helvetica,sans-Serif" font-size="10.00"> mArcInfoBlock</text>
</g>
<!-- Node19 -->
<g id="node19" class="node">
<title>Node19</title>
<g id="a_node19"><a xlink:href="structJKRArchive_1_1SDIDirEntry.html" target="_top" xlink:title=" ">
<polygon fill="white" stroke="black" points="869,-143.5 869,-162.5 992,-162.5 992,-143.5 869,-143.5"/>
<text text-anchor="middle" x="930.5" y="-150.5" font-family="Helvetica,sans-Serif" font-size="10.00">JKRArchive::SDIDirEntry</text>
</a>
</g>
</g>
<!-- Node19&#45;&gt;Node4 -->
<g id="edge30" class="edge">
<title>Node19&#45;&gt;Node4</title>
<path fill="none" stroke="#9a32cd" stroke-dasharray="5,2" d="M992.93,-142.09C999.35,-141.24 1005.8,-140.52 1012,-140 1051.7,-136.68 1097.56,-136.99 1127.79,-137.77"/>
<polygon fill="#9a32cd" stroke="#9a32cd" points="992.3,-138.64 982.89,-143.5 993.28,-145.57 992.3,-138.64"/>
<text text-anchor="middle" x="1045.5" y="-143" font-family="Helvetica,sans-Serif" font-size="10.00"> mNodes</text>
</g>
<!-- Node20 -->
<g id="node20" class="node">
<title>Node20</title>
<g id="a_node20"><a xlink:href="structJKRArchive_1_1SDIFileEntry.html" target="_top" xlink:title=" ">
<polygon fill="white" stroke="black" points="867,-38.5 867,-57.5 994,-57.5 994,-38.5 867,-38.5"/>
<text text-anchor="middle" x="930.5" y="-45.5" font-family="Helvetica,sans-Serif" font-size="10.00">JKRArchive::SDIFileEntry</text>
</a>
</g>
</g>
<!-- Node20&#45;&gt;Node4 -->
<g id="edge31" class="edge">
<title>Node20&#45;&gt;Node4</title>
<path fill="none" stroke="#9a32cd" stroke-dasharray="5,2" d="M1004.37,-57.46C1029.91,-63.55 1057.54,-73.56 1079,-90 1091.34,-99.46 1084.71,-110.47 1097,-120 1105.89,-126.89 1117.23,-131.28 1127.88,-134.09"/>
<polygon fill="#9a32cd" stroke="#9a32cd" points="1004.85,-53.98 994.33,-55.24 1003.34,-60.82 1004.85,-53.98"/>
<text text-anchor="middle" x="1045.5" y="-93" font-family="Helvetica,sans-Serif" font-size="10.00"> mFiles</text>
</g>
<!-- Node21 -->
<g id="node21" class="node">
<title>Node21</title>
<g id="a_node21"><a xlink:href="structJKRArchive_1_1EMountMode.html" target="_top" xlink:title=" ">
<polygon fill="white" stroke="black" points="1097,-91.5 1097,-110.5 1227,-110.5 1227,-91.5 1097,-91.5"/>
<text text-anchor="middle" x="1162" y="-98.5" font-family="Helvetica,sans-Serif" font-size="10.00">JKRArchive::EMountMode</text>
</a>
</g>
</g>
<!-- Node21&#45;&gt;Node1 -->
<g id="edge32" class="edge">
<title>Node21&#45;&gt;Node1</title>
<path fill="none" stroke="#9a32cd" stroke-dasharray="5,2" d="M1217.85,-112.87C1245.04,-119.41 1278.16,-128.36 1307,-139 1334.38,-149.1 1364.55,-164.44 1383.01,-174.34"/>
<polygon fill="#9a32cd" stroke="#9a32cd" points="1218.65,-109.46 1208.12,-110.57 1217.04,-116.28 1218.65,-109.46"/>
<text text-anchor="middle" x="1276" y="-142" font-family="Helvetica,sans-Serif" font-size="10.00"> mMountMode</text>
</g>
</g>
</svg>
