<?xml version="1.0" encoding="UTF-8" standalone="no"?>
<!DOCTYPE svg PUBLIC "-//W3C//DTD SVG 1.1//EN"
 "http://www.w3.org/Graphics/SVG/1.1/DTD/svg11.dtd">
<!-- Generated by graphviz version 2.49.3 (20211027.1534)
 -->
<!-- Title: mDoCPd_c Pages: 1 -->
<svg width="552pt" height="395pt"
 viewBox="0.00 0.00 552.00 395.00" xmlns="http://www.w3.org/2000/svg" xmlns:xlink="http://www.w3.org/1999/xlink">
<g id="graph0" class="graph" transform="scale(1 1) rotate(0) translate(4 391)">
<title>mDoCPd_c</title>
<polygon fill="white" stroke="transparent" points="-4,4 -4,-391 548,-391 548,4 -4,4"/>
<!-- Node1 -->
<g id="node1" class="node">
<title>Node1</title>
<g id="a_node1"><a xlink:title=" ">
<polygon fill="#bfbfbf" stroke="black" points="478,-129.5 478,-148.5 544,-148.5 544,-129.5 478,-129.5"/>
<text text-anchor="middle" x="511" y="-136.5" font-family="Helvetica,sans-Serif" font-size="10.00">mDoCPd_c</text>
</a>
</g>
</g>
<!-- Node2 -->
<g id="node2" class="node">
<title>Node2</title>
<g id="a_node2"><a xlink:href="structJUTGamePad.html" target="_top" xlink:title=" ">
<polygon fill="white" stroke="black" points="277.5,-150.5 277.5,-169.5 356.5,-169.5 356.5,-150.5 277.5,-150.5"/>
<text text-anchor="middle" x="317" y="-157.5" font-family="Helvetica,sans-Serif" font-size="10.00">JUTGamePad</text>
</a>
</g>
</g>
<!-- Node2&#45;&gt;Node1 -->
<g id="edge1" class="edge">
<title>Node2&#45;&gt;Node1</title>
<path fill="none" stroke="#9a32cd" stroke-dasharray="5,2" d="M366.83,-154.66C401.68,-150.85 447.57,-145.83 477.89,-142.51"/>
<polygon fill="#9a32cd" stroke="#9a32cd" points="366.41,-151.18 356.85,-155.75 367.18,-158.14 366.41,-151.18"/>
<text text-anchor="middle" x="431" y="-153" font-family="Helvetica,sans-Serif" font-size="10.00"> m_gamePad</text>
</g>
<!-- Node3 -->
<g id="node3" class="node">
<title>Node3</title>
<g id="a_node3"><a xlink:href="classJKRDisposer.html" target="_top" xlink:title=" ">
<polygon fill="white" stroke="black" points="37.5,-290.5 37.5,-309.5 111.5,-309.5 111.5,-290.5 37.5,-290.5"/>
<text text-anchor="middle" x="74.5" y="-297.5" font-family="Helvetica,sans-Serif" font-size="10.00">JKRDisposer</text>
</a>
</g>
</g>
<!-- Node3&#45;&gt;Node2 -->
<g id="edge2" class="edge">
<title>Node3&#45;&gt;Node2</title>
<path fill="none" stroke="midnightblue" d="M120.56,-287.5C153.05,-277.31 197.14,-261.01 232,-239 263.82,-218.91 294.21,-185.72 308.1,-169.51"/>
<polygon fill="midnightblue" stroke="midnightblue" points="119.41,-284.19 110.88,-290.47 121.46,-290.89 119.41,-284.19"/>
</g>
<!-- Node4 -->
<g id="node4" class="node">
<title>Node4</title>
<g id="a_node4"><a xlink:href="classJKRHeap.html" target="_top" xlink:title=" ">
<polygon fill="white" stroke="black" points="287.5,-316.5 287.5,-335.5 346.5,-335.5 346.5,-316.5 287.5,-316.5"/>
<text text-anchor="middle" x="317" y="-323.5" font-family="Helvetica,sans-Serif" font-size="10.00">JKRHeap</text>
</a>
</g>
</g>
<!-- Node3&#45;&gt;Node4 -->
<g id="edge4" class="edge">
<title>Node3&#45;&gt;Node4</title>
<path fill="none" stroke="midnightblue" d="M121.75,-306.4C136.23,-308.32 152.27,-310.34 167,-312 208.83,-316.71 257.38,-321.06 287.4,-323.63"/>
<polygon fill="midnightblue" stroke="midnightblue" points="121.91,-302.89 111.53,-305.04 120.98,-309.83 121.91,-302.89"/>
</g>
<!-- Node4&#45;&gt;Node3 -->
<g id="edge3" class="edge">
<title>Node4&#45;&gt;Node3</title>
<path fill="none" stroke="#9a32cd" stroke-dasharray="5,2" d="M280.89,-313.14C266.03,-308.33 248.39,-303.44 232,-301 191.15,-294.92 143.64,-295.7 111.78,-297.35"/>
<polygon fill="#9a32cd" stroke="#9a32cd" points="280.1,-316.56 290.69,-316.42 282.32,-309.93 280.1,-316.56"/>
<text text-anchor="middle" x="199.5" y="-304" font-family="Helvetica,sans-Serif" font-size="10.00"> mHeap</text>
</g>
<!-- Node4&#45;&gt;Node4 -->
<g id="edge6" class="edge">
<title>Node4&#45;&gt;Node4</title>
<path fill="none" stroke="#9a32cd" stroke-dasharray="5,2" d="M295.89,-345.4C297.3,-350.31 304.34,-354 317,-354 337.26,-354 343.12,-344.57 334.57,-335.76"/>
<polygon fill="#9a32cd" stroke="#9a32cd" points="299.27,-346.35 299.43,-335.76 292.7,-343.94 299.27,-346.35"/>
<text text-anchor="middle" x="317" y="-379" font-family="Helvetica,sans-Serif" font-size="10.00"> sCurrentHeap</text>
<text text-anchor="middle" x="317" y="-368" font-family="Helvetica,sans-Serif" font-size="10.00">sRootHeap</text>
<text text-anchor="middle" x="317" y="-357" font-family="Helvetica,sans-Serif" font-size="10.00">sSystemHeap</text>
</g>
<!-- Node5 -->
<g id="node5" class="node">
<title>Node5</title>
<g id="a_node5"><a xlink:href="structOSMutex.html" target="_top" xlink:title=" ">
<polygon fill="white" stroke="black" points="46,-349.5 46,-368.5 103,-368.5 103,-349.5 46,-349.5"/>
<text text-anchor="middle" x="74.5" y="-356.5" font-family="Helvetica,sans-Serif" font-size="10.00">OSMutex</text>
</a>
</g>
</g>
<!-- Node5&#45;&gt;Node4 -->
<g id="edge5" class="edge">
<title>Node5&#45;&gt;Node4</title>
<path fill="none" stroke="#9a32cd" stroke-dasharray="5,2" d="M113.11,-353.84C161.3,-347.23 243.77,-335.91 287.24,-329.95"/>
<polygon fill="#9a32cd" stroke="#9a32cd" points="112.52,-350.39 103.09,-355.21 113.47,-357.32 112.52,-350.39"/>
<text text-anchor="middle" x="199.5" y="-349" font-family="Helvetica,sans-Serif" font-size="10.00"> mMutex</text>
</g>
<!-- Node6 -->
<g id="node6" class="node">
<title>Node6</title>
<g id="a_node6"><a xlink:href="structJUTGamePad_1_1CButton.html" target="_top" xlink:title=" ">
<polygon fill="white" stroke="black" points="15,-105.5 15,-124.5 134,-124.5 134,-105.5 15,-105.5"/>
<text text-anchor="middle" x="74.5" y="-112.5" font-family="Helvetica,sans-Serif" font-size="10.00">JUTGamePad::CButton</text>
</a>
</g>
</g>
<!-- Node6&#45;&gt;Node2 -->
<g id="edge7" class="edge">
<title>Node6&#45;&gt;Node2</title>
<path fill="none" stroke="#9a32cd" stroke-dasharray="5,2" d="M144.25,-116.03C172.02,-117.98 204.04,-122.21 232,-131 240.73,-133.74 241.55,-137.49 250,-141 258.7,-144.61 268.31,-147.81 277.45,-150.49"/>
<polygon fill="#9a32cd" stroke="#9a32cd" points="144.43,-112.53 134.23,-115.41 144,-119.52 144.43,-112.53"/>
<text text-anchor="middle" x="199.5" y="-145" font-family="Helvetica,sans-Serif" font-size="10.00"> mButton</text>
<text text-anchor="middle" x="199.5" y="-134" font-family="Helvetica,sans-Serif" font-size="10.00">mPadButton</text>
</g>
<!-- Node7 -->
<g id="node7" class="node">
<title>Node7</title>
<g id="a_node7"><a xlink:href="structJUTGamePad_1_1CStick.html" target="_top" xlink:title=" ">
<polygon fill="white" stroke="black" points="18,-38.5 18,-57.5 131,-57.5 131,-38.5 18,-38.5"/>
<text text-anchor="middle" x="74.5" y="-45.5" font-family="Helvetica,sans-Serif" font-size="10.00">JUTGamePad::CStick</text>
</a>
</g>
</g>
<!-- Node7&#45;&gt;Node2 -->
<g id="edge8" class="edge">
<title>Node7&#45;&gt;Node2</title>
<path fill="none" stroke="#9a32cd" stroke-dasharray="5,2" d="M141.43,-41.94C172.42,-42.68 207.79,-49.22 232,-71 255.88,-92.48 227.61,-117.96 250,-141 257.31,-148.52 267.4,-153.12 277.48,-155.91"/>
<polygon fill="#9a32cd" stroke="#9a32cd" points="141.13,-38.44 131.11,-41.9 141.1,-45.44 141.13,-38.44"/>
<text text-anchor="middle" x="199.5" y="-107" font-family="Helvetica,sans-Serif" font-size="10.00"> mMainStick</text>
<text text-anchor="middle" x="199.5" y="-96" font-family="Helvetica,sans-Serif" font-size="10.00">mPadMStick</text>
<text text-anchor="middle" x="199.5" y="-85" font-family="Helvetica,sans-Serif" font-size="10.00">mPadSStick</text>
<text text-anchor="middle" x="199.5" y="-74" font-family="Helvetica,sans-Serif" font-size="10.00">mSubStick</text>
</g>
<!-- Node8 -->
<g id="node8" class="node">
<title>Node8</title>
<g id="a_node8"><a xlink:href="structJUTGamePad_1_1CRumble.html" target="_top" xlink:title=" ">
<polygon fill="white" stroke="black" points="13,-0.5 13,-19.5 136,-19.5 136,-0.5 13,-0.5"/>
<text text-anchor="middle" x="74.5" y="-7.5" font-family="Helvetica,sans-Serif" font-size="10.00">JUTGamePad::CRumble</text>
</a>
</g>
</g>
<!-- Node8&#45;&gt;Node2 -->
<g id="edge9" class="edge">
<title>Node8&#45;&gt;Node2</title>
<path fill="none" stroke="#9a32cd" stroke-dasharray="5,2" d="M146.09,-1.6C176.27,-1.99 209.62,-8.36 232,-30 267.93,-64.74 216.83,-103.61 250,-141 257.04,-148.94 267.17,-153.65 277.38,-156.43"/>
<polygon fill="#9a32cd" stroke="#9a32cd" points="145.97,1.9 136,-1.69 146.03,-5.1 145.97,1.9"/>
<text text-anchor="middle" x="199.5" y="-33" font-family="Helvetica,sans-Serif" font-size="10.00"> mRumble</text>
</g>
<!-- Node9 -->
<g id="node9" class="node">
<title>Node9</title>
<g id="a_node9"><a xlink:href="structJUTGamePadRecordBase.html" target="_top" xlink:title=" ">
<polygon fill="white" stroke="black" points="8.5,-222.5 8.5,-241.5 140.5,-241.5 140.5,-222.5 8.5,-222.5"/>
<text text-anchor="middle" x="74.5" y="-229.5" font-family="Helvetica,sans-Serif" font-size="10.00">JUTGamePadRecordBase</text>
</a>
</g>
</g>
<!-- Node9&#45;&gt;Node2 -->
<g id="edge10" class="edge">
<title>Node9&#45;&gt;Node2</title>
<path fill="none" stroke="#9a32cd" stroke-dasharray="5,2" d="M137.59,-220.38C166.61,-214.28 201.42,-205.98 232,-196 254.62,-188.62 279.58,-177.52 296.36,-169.61"/>
<polygon fill="#9a32cd" stroke="#9a32cd" points="136.67,-217 127.59,-222.45 138.09,-223.85 136.67,-217"/>
<text text-anchor="middle" x="199.5" y="-227" font-family="Helvetica,sans-Serif" font-size="10.00"> mPadRecord</text>
<text text-anchor="middle" x="199.5" y="-216" font-family="Helvetica,sans-Serif" font-size="10.00">mPadReplay</text>
</g>
<!-- Node10 -->
<g id="node10" class="node">
<title>Node10</title>
<g id="a_node10"><a xlink:href="structJUTGamePad_1_1C3ButtonReset.html" target="_top" xlink:title=" ">
<polygon fill="white" stroke="black" points="0,-184.5 0,-203.5 149,-203.5 149,-184.5 0,-184.5"/>
<text text-anchor="middle" x="74.5" y="-191.5" font-family="Helvetica,sans-Serif" font-size="10.00">JUTGamePad::C3ButtonReset</text>
</a>
</g>
</g>
<!-- Node10&#45;&gt;Node2 -->
<g id="edge11" class="edge">
<title>Node10&#45;&gt;Node2</title>
<path fill="none" stroke="#9a32cd" stroke-dasharray="5,2" d="M153.83,-183.02C178.82,-179.51 206.57,-175.6 232,-172 246.73,-169.91 262.91,-167.6 277.11,-165.57"/>
<polygon fill="#9a32cd" stroke="#9a32cd" points="153.1,-179.59 143.68,-184.45 154.07,-186.52 153.1,-179.59"/>
<text text-anchor="middle" x="199.5" y="-184" font-family="Helvetica,sans-Serif" font-size="10.00"> mButtonReset</text>
</g>
<!-- Node11 -->
<g id="node11" class="node">
<title>Node11</title>
<g id="a_node11"><a xlink:href="structPADStatus.html" target="_top" xlink:title=" ">
<polygon fill="white" stroke="black" points="42,-146.5 42,-165.5 107,-165.5 107,-146.5 42,-146.5"/>
<text text-anchor="middle" x="74.5" y="-153.5" font-family="Helvetica,sans-Serif" font-size="10.00">PADStatus</text>
</a>
</g>
</g>
<!-- Node11&#45;&gt;Node2 -->
<g id="edge12" class="edge">
<title>Node11&#45;&gt;Node2</title>
<path fill="none" stroke="#9a32cd" stroke-dasharray="5,2" d="M117.46,-156.7C162.47,-157.45 233.38,-158.63 277.16,-159.35"/>
<polygon fill="#9a32cd" stroke="#9a32cd" points="117.49,-153.2 107.44,-156.53 117.38,-160.2 117.49,-153.2"/>
<text text-anchor="middle" x="199.5" y="-161" font-family="Helvetica,sans-Serif" font-size="10.00"> mPadStatus</text>
</g>
<!-- Node12 -->
<g id="node12" class="node">
<title>Node12</title>
<g id="a_node12"><a xlink:href="structinterface__of__controller__pad.html" target="_top" xlink:title=" ">
<polygon fill="white" stroke="black" points="250,-112.5 250,-131.5 384,-131.5 384,-112.5 250,-112.5"/>
<text text-anchor="middle" x="317" y="-119.5" font-family="Helvetica,sans-Serif" font-size="10.00">interface_of_controller_pad</text>
</a>
</g>
</g>
<!-- Node12&#45;&gt;Node1 -->
<g id="edge13" class="edge">
<title>Node12&#45;&gt;Node1</title>
<path fill="none" stroke="#9a32cd" stroke-dasharray="5,2" d="M394.06,-120.08C415.48,-120.5 438.73,-121.85 460,-125 466.78,-126 473.94,-127.65 480.66,-129.46"/>
<polygon fill="#9a32cd" stroke="#9a32cd" points="394.08,-116.58 384.04,-119.95 393.99,-123.58 394.08,-116.58"/>
<text text-anchor="middle" x="431" y="-128" font-family="Helvetica,sans-Serif" font-size="10.00"> m_cpadInfo</text>
</g>
</g>
</svg>
