<?xml version="1.0" encoding="UTF-8" standalone="no"?>
<!DOCTYPE svg PUBLIC "-//W3C//DTD SVG 1.1//EN"
 "http://www.w3.org/Graphics/SVG/1.1/DTD/svg11.dtd">
<!-- Generated by graphviz version 2.49.3 (20211027.1534)
 -->
<!-- Title: JKRFile Pages: 1 -->
<svg width="217pt" height="108pt"
 viewBox="0.00 0.00 217.00 108.00" xmlns="http://www.w3.org/2000/svg" xmlns:xlink="http://www.w3.org/1999/xlink">
<g id="graph0" class="graph" transform="scale(1 1) rotate(0) translate(4 104)">
<title>JKRFile</title>
<polygon fill="white" stroke="transparent" points="-4,4 -4,-104 213,-104 213,4 -4,4"/>
<!-- Node1 -->
<g id="node1" class="node">
<title>Node1</title>
<g id="a_node1"><a xlink:title=" ">
<polygon fill="#bfbfbf" stroke="black" points="0,-7 0,-26 51,-26 51,-7 0,-7"/>
<text text-anchor="middle" x="25.5" y="-14" font-family="Helvetica,sans-Serif" font-size="10.00">JKRFile</text>
</a>
</g>
</g>
<!-- Node2 -->
<g id="node2" class="node">
<title>Node2</title>
<g id="a_node2"><a xlink:href="classJKRDisposer.html" target="_top" xlink:title=" ">
<polygon fill="white" stroke="black" points="20.5,-80.5 20.5,-99.5 94.5,-99.5 94.5,-80.5 20.5,-80.5"/>
<text text-anchor="middle" x="57.5" y="-87.5" font-family="Helvetica,sans-Serif" font-size="10.00">JKRDisposer</text>
</a>
</g>
</g>
<!-- Node2&#45;&gt;Node1 -->
<g id="edge1" class="edge">
<title>Node2&#45;&gt;Node1</title>
<path fill="none" stroke="midnightblue" d="M47.92,-71.11C46.4,-68.09 44.87,-64.97 43.5,-62 37.86,-49.74 32.15,-35.17 28.72,-26.13"/>
<polygon fill="midnightblue" stroke="midnightblue" points="44.89,-72.86 52.62,-80.1 51.1,-69.62 44.89,-72.86"/>
</g>
<!-- Node3 -->
<g id="node3" class="node">
<title>Node3</title>
<g id="a_node3"><a xlink:href="classJKRHeap.html" target="_top" xlink:title=" ">
<polygon fill="white" stroke="black" points="69,-7 69,-26 128,-26 128,-7 69,-7"/>
<text text-anchor="middle" x="98.5" y="-14" font-family="Helvetica,sans-Serif" font-size="10.00">JKRHeap</text>
</a>
</g>
</g>
<!-- Node2&#45;&gt;Node3 -->
<g id="edge3" class="edge">
<title>Node2&#45;&gt;Node3</title>
<path fill="none" stroke="midnightblue" d="M62.99,-70.42C65.22,-64.06 68.08,-57.03 71.5,-51 76.73,-41.77 84.47,-32.47 90.32,-26.02"/>
<polygon fill="midnightblue" stroke="midnightblue" points="59.57,-69.6 59.85,-80.2 66.24,-71.74 59.57,-69.6"/>
</g>
<!-- Node3&#45;&gt;Node2 -->
<g id="edge2" class="edge">
<title>Node3&#45;&gt;Node2</title>
<path fill="none" stroke="#9a32cd" stroke-dasharray="5,2" d="M88.32,-35.25C80.12,-49.56 68.92,-69.08 62.53,-80.23"/>
<polygon fill="#9a32cd" stroke="#9a32cd" points="91.49,-36.76 93.43,-26.34 85.42,-33.27 91.49,-36.76"/>
<text text-anchor="middle" x="96.5" y="-54" font-family="Helvetica,sans-Serif" font-size="10.00"> mHeap</text>
</g>
<!-- Node3&#45;&gt;Node3 -->
<g id="edge5" class="edge">
<title>Node3&#45;&gt;Node3</title>
<path fill="none" stroke="#9a32cd" stroke-dasharray="5,2" d="M138.17,-22.95C142.91,-21.77 146,-19.62 146,-16.5 146,-11.5 138.08,-9 128.19,-9"/>
<polygon fill="#9a32cd" stroke="#9a32cd" points="137.76,-19.47 128.19,-24 138.5,-26.43 137.76,-19.47"/>
<text text-anchor="middle" x="177.5" y="-25" font-family="Helvetica,sans-Serif" font-size="10.00"> sCurrentHeap</text>
<text text-anchor="middle" x="177.5" y="-14" font-family="Helvetica,sans-Serif" font-size="10.00">sRootHeap</text>
<text text-anchor="middle" x="177.5" y="-3" font-family="Helvetica,sans-Serif" font-size="10.00">sSystemHeap</text>
</g>
<!-- Node4 -->
<g id="node4" class="node">
<title>Node4</title>
<g id="a_node4"><a xlink:href="structOSMutex.html" target="_top" xlink:title=" ">
<polygon fill="white" stroke="black" points="119,-80.5 119,-99.5 176,-99.5 176,-80.5 119,-80.5"/>
<text text-anchor="middle" x="147.5" y="-87.5" font-family="Helvetica,sans-Serif" font-size="10.00">OSMutex</text>
</a>
</g>
</g>
<!-- Node4&#45;&gt;Node3 -->
<g id="edge4" class="edge">
<title>Node4&#45;&gt;Node3</title>
<path fill="none" stroke="#9a32cd" stroke-dasharray="5,2" d="M135.68,-71.75C125.86,-57.43 112.3,-37.63 104.56,-26.34"/>
<polygon fill="#9a32cd" stroke="#9a32cd" points="132.95,-73.96 141.49,-80.23 138.73,-70.01 132.95,-73.96"/>
<text text-anchor="middle" x="148" y="-54" font-family="Helvetica,sans-Serif" font-size="10.00"> mMutex</text>
</g>
</g>
</svg>
