<?xml version="1.0" encoding="UTF-8" standalone="no"?>
<!DOCTYPE svg PUBLIC "-//W3C//DTD SVG 1.1//EN"
 "http://www.w3.org/Graphics/SVG/1.1/DTD/svg11.dtd">
<!-- Generated by graphviz version 2.49.3 (20211027.1534)
 -->
<!-- Title: mDoExt_morf_c Pages: 1 -->
<svg width="466pt" height="218pt"
 viewBox="0.00 0.00 465.50 218.00" xmlns="http://www.w3.org/2000/svg" xmlns:xlink="http://www.w3.org/1999/xlink">
<g id="graph0" class="graph" transform="scale(1 1) rotate(0) translate(4 214)">
<title>mDoExt_morf_c</title>
<polygon fill="white" stroke="transparent" points="-4,4 -4,-214 461.5,-214 461.5,4 -4,4"/>
<!-- Node1 -->
<g id="node1" class="node">
<title>Node1</title>
<g id="a_node1"><a xlink:title=" ">
<polygon fill="#bfbfbf" stroke="black" points="178.5,-0.5 178.5,-19.5 264.5,-19.5 264.5,-0.5 178.5,-0.5"/>
<text text-anchor="middle" x="221.5" y="-7.5" font-family="Helvetica,sans-Serif" font-size="10.00">mDoExt_morf_c</text>
</a>
</g>
</g>
<!-- Node2 -->
<g id="node2" class="node">
<title>Node2</title>
<g id="a_node2"><a xlink:href="classJ3DMtxCalcNoAnm.html" target="_top" xlink:title=" ">
<polygon fill="white" stroke="black" points="135.5,-56.5 135.5,-97.5 307.5,-97.5 307.5,-56.5 135.5,-56.5"/>
<text text-anchor="start" x="143.5" y="-85.5" font-family="Helvetica,sans-Serif" font-size="10.00">J3DMtxCalcNoAnm&lt; J3DMtxCalc</text>
<text text-anchor="start" x="143.5" y="-74.5" font-family="Helvetica,sans-Serif" font-size="10.00">CalcTransformMaya, J3DMtxCalcJ3</text>
<text text-anchor="middle" x="221.5" y="-63.5" font-family="Helvetica,sans-Serif" font-size="10.00">DSysInitMaya &gt;</text>
</a>
</g>
</g>
<!-- Node2&#45;&gt;Node1 -->
<g id="edge1" class="edge">
<title>Node2&#45;&gt;Node1</title>
<path fill="none" stroke="midnightblue" d="M221.5,-46.26C221.5,-36.56 221.5,-26.52 221.5,-19.65"/>
<polygon fill="midnightblue" stroke="midnightblue" points="218,-46.5 221.5,-56.5 225,-46.5 218,-46.5"/>
</g>
<!-- Node3 -->
<g id="node3" class="node">
<title>Node3</title>
<g id="a_node3"><a xlink:href="classJ3DMtxCalcNoAnmBase.html" target="_top" xlink:title=" ">
<polygon fill="white" stroke="black" points="0,-134.5 0,-153.5 125,-153.5 125,-134.5 0,-134.5"/>
<text text-anchor="middle" x="62.5" y="-141.5" font-family="Helvetica,sans-Serif" font-size="10.00">J3DMtxCalcNoAnmBase</text>
</a>
</g>
</g>
<!-- Node3&#45;&gt;Node2 -->
<g id="edge2" class="edge">
<title>Node3&#45;&gt;Node2</title>
<path fill="none" stroke="midnightblue" d="M93.1,-130.49C115.87,-121.18 147.38,-108.3 173.49,-97.63"/>
<polygon fill="midnightblue" stroke="midnightblue" points="91.55,-127.34 83.61,-134.37 94.19,-133.82 91.55,-127.34"/>
</g>
<!-- Node4 -->
<g id="node4" class="node">
<title>Node4</title>
<g id="a_node4"><a xlink:href="classJ3DMtxCalc.html" target="_top" xlink:title=" ">
<polygon fill="white" stroke="black" points="28,-190.5 28,-209.5 97,-209.5 97,-190.5 28,-190.5"/>
<text text-anchor="middle" x="62.5" y="-197.5" font-family="Helvetica,sans-Serif" font-size="10.00">J3DMtxCalc</text>
</a>
</g>
</g>
<!-- Node4&#45;&gt;Node3 -->
<g id="edge3" class="edge">
<title>Node4&#45;&gt;Node3</title>
<path fill="none" stroke="midnightblue" d="M62.5,-179.8C62.5,-170.91 62.5,-160.78 62.5,-153.75"/>
<polygon fill="midnightblue" stroke="midnightblue" points="59,-180.08 62.5,-190.08 66,-180.08 59,-180.08"/>
</g>
<!-- Node5 -->
<g id="node5" class="node">
<title>Node5</title>
<g id="a_node5"><a xlink:href="structJ3DMtxCalcCalcTransformMaya.html" target="_top" xlink:title=" ">
<polygon fill="white" stroke="black" points="143.5,-134.5 143.5,-153.5 299.5,-153.5 299.5,-134.5 143.5,-134.5"/>
<text text-anchor="middle" x="221.5" y="-141.5" font-family="Helvetica,sans-Serif" font-size="10.00">J3DMtxCalcCalcTransformMaya</text>
</a>
</g>
</g>
<!-- Node5&#45;&gt;Node2 -->
<g id="edge4" class="edge">
<title>Node5&#45;&gt;Node2</title>
<path fill="none" stroke="midnightblue" d="M221.5,-124.04C221.5,-115.71 221.5,-105.94 221.5,-97.54"/>
<polygon fill="midnightblue" stroke="midnightblue" points="218,-124.23 221.5,-134.23 225,-124.23 218,-124.23"/>
</g>
<!-- Node6 -->
<g id="node6" class="node">
<title>Node6</title>
<g id="a_node6"><a xlink:href="structJ3DMtxCalcJ3DSysInitMaya.html" target="_top" xlink:title=" ">
<polygon fill="white" stroke="black" points="317.5,-134.5 317.5,-153.5 457.5,-153.5 457.5,-134.5 317.5,-134.5"/>
<text text-anchor="middle" x="387.5" y="-141.5" font-family="Helvetica,sans-Serif" font-size="10.00">J3DMtxCalcJ3DSysInitMaya</text>
</a>
</g>
</g>
<!-- Node6&#45;&gt;Node2 -->
<g id="edge5" class="edge">
<title>Node6&#45;&gt;Node2</title>
<path fill="none" stroke="midnightblue" d="M355.87,-130.62C332.08,-121.3 299,-108.35 271.62,-97.63"/>
<polygon fill="midnightblue" stroke="midnightblue" points="354.87,-133.98 365.46,-134.37 357.42,-127.46 354.87,-133.98"/>
</g>
</g>
</svg>
