<?xml version="1.0" encoding="UTF-8" standalone="no"?>
<!DOCTYPE svg PUBLIC "-//W3C//DTD SVG 1.1//EN"
 "http://www.w3.org/Graphics/SVG/1.1/DTD/svg11.dtd">
<!-- Generated by graphviz version 7.0.4 (20221203.1631)
 -->
<!-- Title: JUTProcBar Pages: 1 -->
<!--zoomable 521 -->
<svg id="main" version="1.1" xmlns="http://www.w3.org/2000/svg" xmlns:xlink="http://www.w3.org/1999/xlink" xml:space="preserve" onload="init(evt)">
<style type="text/css"><![CDATA[
.edge:hover path { stroke: red; }
.edge:hover polygon { stroke: red; fill: red; }
]]></style>
<script type="text/javascript"><![CDATA[
var edges = document.getElementsByTagName('g');
if (edges && edges.length) {
  for (var i=0;i<edges.length;i++) {
    if (edges[i].id.substr(0,4)=='edge') {
      edges[i].setAttribute('class','edge');
    }
  }
}
]]></script>
        <defs>
                <circle id="rim" cx="0" cy="0" r="7"/>
                <circle id="rim2" cx="0" cy="0" r="3.5"/>
                <g id="zoomPlus">
                        <use xlink:href="#rim" fill="#404040">
                                <set attributeName="fill" to="#808080" begin="zoomplus.mouseover" end="zoomplus.mouseout"/>
                        </use>
                        <path d="M-4,0h8M0,-4v8" fill="none" stroke="white" stroke-width="1.5" pointer-events="none"/>
                </g>
                <g id="zoomMin">
                        <use xlink:href="#rim" fill="#404040">
                                <set attributeName="fill" to="#808080" begin="zoomminus.mouseover" end="zoomminus.mouseout"/>
                        </use>
                        <path d="M-4,0h8" fill="none" stroke="white" stroke-width="1.5" pointer-events="none"/>
                </g>
                <g id="dirArrow">
                        <path fill="none" stroke="white" stroke-width="1.5" d="M0,-3.0v7 M-2.5,-0.5L0,-3.0L2.5,-0.5"/>
                </g>
               <g id="resetDef">
                       <use xlink:href="#rim2" fill="#404040">
                               <set attributeName="fill" to="#808080" begin="reset.mouseover" end="reset.mouseout"/>
                       </use>
               </g>
        </defs>

<script type="text/javascript">
var viewWidth = 1297;
var viewHeight = 521;
var sectionId = 'dynsection-0';
</script>
<script xlink:href="svgpan.js"/>
<svg id="graph" class="graph">
<g id="viewport">
<title>JUTProcBar</title>
<!-- Node1 -->
<g id="node1" class="node">
<title>Node1</title>
<g id="a_node1"><a xlink:title=" ">
<polygon fill="#999999" stroke="#666666" points="1075.5,-429.45 1004.5,-429.45 1004.5,-410.45 1075.5,-410.45 1075.5,-429.45"/>
<text text-anchor="middle" x="1040" y="-417.45" font-family="Helvetica,sans-Serif" font-size="10.00">JUTProcBar</text>
</a>
</g>
</g>
<!-- Node1&#45;&gt;Node1 -->
<g id="edge1" class="edge">
<title>Node1&#45;&gt;Node1</title>
<path fill="none" stroke="#9a32cd" stroke-dasharray="5,2" d="M1023.76,-440.88C1025.79,-444.74 1031.2,-447.45 1040,-447.45 1056.08,-447.45 1060.86,-438.39 1054.32,-429.82"/>
<polygon fill="#9a32cd" stroke="#9a32cd" points="1027.16,-441.76 1025.42,-431.31 1020.26,-440.57 1027.16,-441.76"/>
<text text-anchor="middle" x="1040" y="-450.45" font-family="Helvetica,sans-Serif" font-size="10.00"> sManager</text>
</g>
<!-- Node2 -->
<g id="node2" class="node">
<title>Node2</title>
<g id="a_node2"><a xlink:href="classJUTProcBar_1_1CTime.html" target="_top" xlink:title=" ">
<polygon fill="white" stroke="#666666" points="883.5,-466.45 779.5,-466.45 779.5,-447.45 883.5,-447.45 883.5,-466.45"/>
<text text-anchor="middle" x="831.5" y="-454.45" font-family="Helvetica,sans-Serif" font-size="10.00">JUTProcBar::CTime</text>
</a>
</g>
</g>
<!-- Node2&#45;&gt;Node1 -->
<g id="edge2" class="edge">
<title>Node2&#45;&gt;Node1</title>
<path fill="none" stroke="#9a32cd" stroke-dasharray="5,2" d="M895.1,-449.75C922.79,-446.1 955.66,-441.11 985,-434.95 991.76,-433.53 998.92,-431.74 1005.75,-429.9"/>
<polygon fill="#9a32cd" stroke="#9a32cd" points="894.94,-446.24 885.47,-450.99 895.83,-453.19 894.94,-446.24"/>
<text text-anchor="middle" x="948.5" y="-504.95" font-family="Helvetica,sans-Serif" font-size="10.00"> field_0x64</text>
<text text-anchor="middle" x="948.5" y="-493.95" font-family="Helvetica,sans-Serif" font-size="10.00">mCpu</text>
<text text-anchor="middle" x="948.5" y="-482.95" font-family="Helvetica,sans-Serif" font-size="10.00">mGp</text>
<text text-anchor="middle" x="948.5" y="-471.95" font-family="Helvetica,sans-Serif" font-size="10.00">mGpWait</text>
<text text-anchor="middle" x="948.5" y="-460.95" font-family="Helvetica,sans-Serif" font-size="10.00">mIdle</text>
<text text-anchor="middle" x="948.5" y="-449.95" font-family="Helvetica,sans-Serif" font-size="10.00">mWholeLoop</text>
</g>
<!-- Node3 -->
<g id="node3" class="node">
<title>Node3</title>
<g id="a_node3"><a xlink:href="classJUTProcBar_1_1CParamSet.html" target="_top" xlink:title=" ">
<polygon fill="white" stroke="#666666" points="894,-429.45 769,-429.45 769,-410.45 894,-410.45 894,-429.45"/>
<text text-anchor="middle" x="831.5" y="-417.45" font-family="Helvetica,sans-Serif" font-size="10.00">JUTProcBar::CParamSet</text>
</a>
</g>
</g>
<!-- Node3&#45;&gt;Node1 -->
<g id="edge3" class="edge">
<title>Node3&#45;&gt;Node1</title>
<path fill="none" stroke="#9a32cd" stroke-dasharray="5,2" d="M905.61,-419.95C939.1,-419.95 977.22,-419.95 1004.11,-419.95"/>
<polygon fill="#9a32cd" stroke="#9a32cd" points="905.97,-416.45 895.97,-419.95 905.97,-423.45 905.97,-416.45"/>
<text text-anchor="middle" x="948.5" y="-422.95" font-family="Helvetica,sans-Serif" font-size="10.00"> field_0x114</text>
</g>
<!-- Node4 -->
<g id="node4" class="node">
<title>Node4</title>
<g id="a_node4"><a xlink:href="structJKRHeap.html" target="_top" xlink:title=" ">
<polygon fill="white" stroke="#666666" points="861,-341.45 802,-341.45 802,-322.45 861,-322.45 861,-341.45"/>
<text text-anchor="middle" x="831.5" y="-329.45" font-family="Helvetica,sans-Serif" font-size="10.00">JKRHeap</text>
</a>
</g>
</g>
<!-- Node4&#45;&gt;Node1 -->
<g id="edge4" class="edge">
<title>Node4&#45;&gt;Node1</title>
<path fill="none" stroke="#9a32cd" stroke-dasharray="5,2" d="M866.35,-346.38C908.49,-364.33 979.35,-394.53 1015.8,-410.06"/>
<polygon fill="#9a32cd" stroke="#9a32cd" points="867.75,-343.17 857.18,-342.47 865.01,-349.61 867.75,-343.17"/>
<text text-anchor="middle" x="948.5" y="-398.95" font-family="Helvetica,sans-Serif" font-size="10.00"> mWatchHeap</text>
</g>
<!-- Node4&#45;&gt;Node4 -->
<g id="edge12" class="edge">
<title>Node4&#45;&gt;Node4</title>
<path fill="none" stroke="#9a32cd" stroke-dasharray="5,2" d="M812.6,-352.88C814.96,-356.74 821.26,-359.45 831.5,-359.45 850.22,-359.45 855.78,-350.39 848.17,-341.82"/>
<polygon fill="#9a32cd" stroke="#9a32cd" points="815.98,-353.8 814.53,-343.3 809.12,-352.41 815.98,-353.8"/>
<text text-anchor="middle" x="831.5" y="-384.45" font-family="Helvetica,sans-Serif" font-size="10.00"> sCurrentHeap</text>
<text text-anchor="middle" x="831.5" y="-373.45" font-family="Helvetica,sans-Serif" font-size="10.00">sRootHeap</text>
<text text-anchor="middle" x="831.5" y="-362.45" font-family="Helvetica,sans-Serif" font-size="10.00">sSystemHeap</text>
</g>
<!-- Node5 -->
<g id="node5" class="node">
<title>Node5</title>
<g id="a_node5"><a xlink:href="structJKRDisposer.html" target="_top" xlink:title=" ">
<polygon fill="white" stroke="#666666" points="1077,-320.45 1003,-320.45 1003,-301.45 1077,-301.45 1077,-320.45"/>
<text text-anchor="middle" x="1040" y="-308.45" font-family="Helvetica,sans-Serif" font-size="10.00">JKRDisposer</text>
</a>
</g>
</g>
<!-- Node4&#45;&gt;Node5 -->
<g id="edge6" class="edge">
<title>Node4&#45;&gt;Node5</title>
<path fill="none" stroke="#9a32cd" stroke-dasharray="5,2" d="M872.44,-330.81C903.29,-329.57 946.99,-327.04 985,-321.95 990.69,-321.19 996.68,-320.18 1002.51,-319.08"/>
<polygon fill="#9a32cd" stroke="#9a32cd" points="872.66,-327.3 862.8,-331.17 872.92,-334.3 872.66,-327.3"/>
<text text-anchor="middle" x="948.5" y="-330.95" font-family="Helvetica,sans-Serif" font-size="10.00"> mHeap</text>
</g>
<!-- Node5&#45;&gt;Node4 -->
<g id="edge5" class="edge">
<title>Node5&#45;&gt;Node4</title>
<path fill="none" stroke="#63b8ff" d="M991.13,-315.82C950.92,-319.91 894.8,-325.62 861.21,-329.03"/>
<polygon fill="#63b8ff" stroke="#63b8ff" points="991.43,-319.31 1001.03,-314.81 990.73,-312.34 991.43,-319.31"/>
</g>
<!-- Node6 -->
<g id="node6" class="node">
<title>Node6</title>
<g id="a_node6"><a xlink:href="structJSULink.html" target="_top" xlink:title=" ">
<polygon fill="white" stroke="#666666" points="549,-296.45 421,-296.45 421,-277.45 549,-277.45 549,-296.45"/>
<text text-anchor="middle" x="485" y="-284.45" font-family="Helvetica,sans-Serif" font-size="10.00">JSULink&lt; JKRDisposer &gt;</text>
</a>
</g>
</g>
<!-- Node6&#45;&gt;Node5 -->
<g id="edge7" class="edge">
<title>Node6&#45;&gt;Node5</title>
<path fill="none" stroke="#9a32cd" stroke-dasharray="5,2" d="M560.72,-290.19C681.02,-295.41 913.2,-305.49 1002.64,-309.37"/>
<polygon fill="#9a32cd" stroke="#9a32cd" points="561.09,-286.71 550.95,-289.77 560.79,-293.7 561.09,-286.71"/>
<text text-anchor="middle" x="725" y="-300.95" font-family="Helvetica,sans-Serif" font-size="10.00"> mLink</text>
</g>
<!-- Node7 -->
<g id="node7" class="node">
<title>Node7</title>
<g id="a_node7"><a xlink:href="structJSUPtrLink.html" target="_top" xlink:title=" ">
<polygon fill="white" stroke="#666666" points="68,-356.45 0,-356.45 0,-337.45 68,-337.45 68,-356.45"/>
<text text-anchor="middle" x="34" y="-344.45" font-family="Helvetica,sans-Serif" font-size="10.00">JSUPtrLink</text>
</a>
</g>
</g>
<!-- Node7&#45;&gt;Node6 -->
<g id="edge8" class="edge">
<title>Node7&#45;&gt;Node6</title>
<path fill="none" stroke="#63b8ff" d="M55.78,-330.66C64.61,-324.64 75.31,-318.44 86,-314.95 199.43,-277.95 340.4,-278.07 420.5,-282.1"/>
<polygon fill="#63b8ff" stroke="#63b8ff" points="53.99,-327.64 47.94,-336.34 58.1,-333.31 53.99,-327.64"/>
</g>
<!-- Node7&#45;&gt;Node7 -->
<g id="edge11" class="edge">
<title>Node7&#45;&gt;Node7</title>
<path fill="none" stroke="#9a32cd" stroke-dasharray="5,2" d="M21.89,-368.21C23.52,-371.89 27.56,-374.45 34,-374.45 46.13,-374.45 49.73,-365.39 44.8,-356.82"/>
<polygon fill="#9a32cd" stroke="#9a32cd" points="25.36,-368.66 23.03,-358.32 18.41,-367.86 25.36,-368.66"/>
<text text-anchor="middle" x="34" y="-388.45" font-family="Helvetica,sans-Serif" font-size="10.00"> mNext</text>
<text text-anchor="middle" x="34" y="-377.45" font-family="Helvetica,sans-Serif" font-size="10.00">mPrev</text>
</g>
<!-- Node8 -->
<g id="node8" class="node">
<title>Node8</title>
<g id="a_node8"><a xlink:href="structJSUPtrList.html" target="_top" xlink:title=" ">
<polygon fill="white" stroke="#666666" points="203,-357.45 138,-357.45 138,-338.45 203,-338.45 203,-357.45"/>
<text text-anchor="middle" x="170.5" y="-345.45" font-family="Helvetica,sans-Serif" font-size="10.00">JSUPtrList</text>
</a>
</g>
</g>
<!-- Node7&#45;&gt;Node8 -->
<g id="edge10" class="edge">
<title>Node7&#45;&gt;Node8</title>
<path fill="none" stroke="#9a32cd" stroke-dasharray="5,2" d="M60.42,-331.68C68.34,-327.7 77.28,-323.97 86,-321.95 100.72,-318.54 105.33,-318.33 120,-321.95 132.63,-325.07 145.6,-332.04 155.09,-337.99"/>
<polygon fill="#9a32cd" stroke="#9a32cd" points="58.84,-328.55 51.71,-336.39 62.17,-334.71 58.84,-328.55"/>
<text text-anchor="middle" x="103" y="-335.95" font-family="Helvetica,sans-Serif" font-size="10.00"> mHead</text>
<text text-anchor="middle" x="103" y="-324.95" font-family="Helvetica,sans-Serif" font-size="10.00">mTail</text>
</g>
<!-- Node18 -->
<g id="node18" class="node">
<title>Node18</title>
<g id="a_node18"><a xlink:href="structJSULink.html" target="_top" xlink:title=" ">
<polygon fill="white" stroke="#666666" points="304,-408.45 221,-408.45 221,-389.45 304,-389.45 304,-408.45"/>
<text text-anchor="middle" x="262.5" y="-396.45" font-family="Helvetica,sans-Serif" font-size="10.00">JSULink&lt; A0 &gt;</text>
</a>
</g>
</g>
<!-- Node7&#45;&gt;Node18 -->
<g id="edge30" class="edge">
<title>Node7&#45;&gt;Node18</title>
<path fill="none" stroke="#63b8ff" d="M75.87,-360.17C79.28,-361.15 82.69,-362.1 86,-362.95 131.77,-374.79 185.06,-385.26 220.8,-391.82"/>
<polygon fill="#63b8ff" stroke="#63b8ff" points="77.09,-356.89 66.51,-357.37 75.08,-363.59 77.09,-356.89"/>
</g>
<!-- Node8&#45;&gt;Node7 -->
<g id="edge9" class="edge">
<title>Node8&#45;&gt;Node7</title>
<path fill="none" stroke="#9a32cd" stroke-dasharray="5,2" d="M126.31,-348.11C113.35,-348.12 99.1,-348.08 86,-347.95 80.33,-347.9 74.31,-347.81 68.47,-347.7"/>
<polygon fill="#9a32cd" stroke="#9a32cd" points="126.27,-351.61 136.27,-348.1 126.26,-344.61 126.27,-351.61"/>
<text text-anchor="middle" x="103" y="-350.95" font-family="Helvetica,sans-Serif" font-size="10.00"> mList</text>
</g>
<!-- Node17 -->
<g id="node17" class="node">
<title>Node17</title>
<g id="a_node17"><a xlink:href="structJSUList.html" target="_top" xlink:title=" ">
<polygon fill="white" stroke="#666666" points="403,-378.45 322,-378.45 322,-359.45 403,-359.45 403,-378.45"/>
<text text-anchor="middle" x="362.5" y="-366.45" font-family="Helvetica,sans-Serif" font-size="10.00">JSUList&lt; A0 &gt;</text>
</a>
</g>
</g>
<!-- Node8&#45;&gt;Node17 -->
<g id="edge28" class="edge">
<title>Node8&#45;&gt;Node17</title>
<path fill="none" stroke="#63b8ff" d="M214.58,-352.71C246.73,-356.27 290.33,-361.08 321.67,-364.55"/>
<polygon fill="#63b8ff" stroke="#63b8ff" points="215.13,-349.25 204.81,-351.63 214.36,-356.21 215.13,-349.25"/>
</g>
<!-- Node19 -->
<g id="node19" class="node">
<title>Node19</title>
<g id="a_node19"><a xlink:href="structJSUList.html" target="_top" xlink:title=" ">
<polygon fill="white" stroke="#666666" points="548,-340.45 422,-340.45 422,-321.45 548,-321.45 548,-340.45"/>
<text text-anchor="middle" x="485" y="-328.45" font-family="Helvetica,sans-Serif" font-size="10.00">JSUList&lt; JKRDisposer &gt;</text>
</a>
</g>
</g>
<!-- Node8&#45;&gt;Node19 -->
<g id="edge32" class="edge">
<title>Node8&#45;&gt;Node19</title>
<path fill="none" stroke="#63b8ff" d="M214.64,-345.6C268.33,-342.68 360.39,-337.68 421.72,-334.34"/>
<polygon fill="#63b8ff" stroke="#63b8ff" points="214.78,-342.09 204.99,-346.13 215.16,-349.08 214.78,-342.09"/>
</g>
<!-- Node9 -->
<g id="node9" class="node">
<title>Node9</title>
<g id="a_node9"><a xlink:href="structOSMutex.html" target="_top" xlink:title=" ">
<polygon fill="white" stroke="#666666" points="652.5,-134.45 595.5,-134.45 595.5,-115.45 652.5,-115.45 652.5,-134.45"/>
<text text-anchor="middle" x="624" y="-122.45" font-family="Helvetica,sans-Serif" font-size="10.00">OSMutex</text>
</a>
</g>
</g>
<!-- Node9&#45;&gt;Node4 -->
<g id="edge13" class="edge">
<title>Node9&#45;&gt;Node4</title>
<path fill="none" stroke="#9a32cd" stroke-dasharray="5,2" d="M634.67,-144.69C646.86,-167.82 669.8,-206.02 699,-229.95 718.54,-245.97 730.13,-238.7 751,-252.95 766.58,-263.6 804.2,-303.48 821.51,-322.17"/>
<polygon fill="#9a32cd" stroke="#9a32cd" points="637.91,-143.34 630.25,-136.02 631.67,-146.52 637.91,-143.34"/>
<text text-anchor="middle" x="725" y="-255.95" font-family="Helvetica,sans-Serif" font-size="10.00"> mMutex</text>
</g>
<!-- Node11 -->
<g id="node11" class="node">
<title>Node11</title>
<g id="a_node11"><a xlink:href="structOSThread.html" target="_top" xlink:title=" ">
<polygon fill="white" stroke="#666666" points="1070.5,-196.45 1009.5,-196.45 1009.5,-177.45 1070.5,-177.45 1070.5,-196.45"/>
<text text-anchor="middle" x="1040" y="-184.45" font-family="Helvetica,sans-Serif" font-size="10.00">OSThread</text>
</a>
</g>
</g>
<!-- Node9&#45;&gt;Node11 -->
<g id="edge20" class="edge">
<title>Node9&#45;&gt;Node11</title>
<path fill="none" stroke="#9a32cd" stroke-dasharray="5,2" d="M664.02,-122.16C731.65,-118.7 874.02,-117.52 985,-157.95 998.6,-162.9 1012.99,-170.78 1023.49,-177.07"/>
<polygon fill="#9a32cd" stroke="#9a32cd" points="663.97,-118.66 654.19,-122.72 664.37,-125.65 663.97,-118.66"/>
<text text-anchor="middle" x="831.5" y="-136.95" font-family="Helvetica,sans-Serif" font-size="10.00"> mutex</text>
</g>
<!-- Node14 -->
<g id="node14" class="node">
<title>Node14</title>
<g id="a_node14"><a xlink:href="structOSMutexQueue.html" target="_top" xlink:title=" ">
<polygon fill="white" stroke="#666666" points="874.5,-257.45 788.5,-257.45 788.5,-238.45 874.5,-238.45 874.5,-257.45"/>
<text text-anchor="middle" x="831.5" y="-245.45" font-family="Helvetica,sans-Serif" font-size="10.00">OSMutexQueue</text>
</a>
</g>
</g>
<!-- Node9&#45;&gt;Node14 -->
<g id="edge22" class="edge">
<title>Node9&#45;&gt;Node14</title>
<path fill="none" stroke="#9a32cd" stroke-dasharray="5,2" d="M643.92,-142.15C658.33,-154.71 679.04,-171.64 699,-183.95 720.66,-197.31 730.87,-192.37 751,-207.95 760.99,-215.68 758.47,-222.98 769,-229.95 774.84,-233.82 781.54,-236.88 788.3,-239.28"/>
<polygon fill="#9a32cd" stroke="#9a32cd" points="646.36,-139.64 636.56,-135.62 641.71,-144.87 646.36,-139.64"/>
<text text-anchor="middle" x="725" y="-221.95" font-family="Helvetica,sans-Serif" font-size="10.00"> next</text>
<text text-anchor="middle" x="725" y="-210.95" font-family="Helvetica,sans-Serif" font-size="10.00">prev</text>
</g>
<!-- Node15 -->
<g id="node15" class="node">
<title>Node15</title>
<g id="a_node15"><a xlink:href="structOSMutexLink.html" target="_top" xlink:title=" ">
<polygon fill="white" stroke="#666666" points="869.5,-34.45 793.5,-34.45 793.5,-15.45 869.5,-15.45 869.5,-34.45"/>
<text text-anchor="middle" x="831.5" y="-22.45" font-family="Helvetica,sans-Serif" font-size="10.00">OSMutexLink</text>
</a>
</g>
</g>
<!-- Node9&#45;&gt;Node15 -->
<g id="edge25" class="edge">
<title>Node9&#45;&gt;Node15</title>
<path fill="none" stroke="#9a32cd" stroke-dasharray="5,2" d="M631.28,-104.53C640.9,-77.26 662.15,-30.06 699,-9.95 733.69,8.98 781.13,-4.3 808.52,-15.05"/>
<polygon fill="#9a32cd" stroke="#9a32cd" points="628.05,-103.14 628.24,-113.74 634.7,-105.34 628.05,-103.14"/>
<text text-anchor="middle" x="725" y="-23.95" font-family="Helvetica,sans-Serif" font-size="10.00"> next</text>
<text text-anchor="middle" x="725" y="-12.95" font-family="Helvetica,sans-Serif" font-size="10.00">prev</text>
</g>
<!-- Node10 -->
<g id="node10" class="node">
<title>Node10</title>
<g id="a_node10"><a xlink:href="structOSThreadQueue.html" target="_top" xlink:title=" ">
<polygon fill="white" stroke="#666666" points="1289,-121.45 1200,-121.45 1200,-102.45 1289,-102.45 1289,-121.45"/>
<text text-anchor="middle" x="1244.5" y="-109.45" font-family="Helvetica,sans-Serif" font-size="10.00">OSThreadQueue</text>
</a>
</g>
</g>
<!-- Node10&#45;&gt;Node9 -->
<g id="edge14" class="edge">
<title>Node10&#45;&gt;Node9</title>
<path fill="none" stroke="#9a32cd" stroke-dasharray="5,2" d="M1200.64,-99.32C1194.43,-97.93 1188.09,-96.73 1182,-95.95 1143.65,-91.04 1133.65,-94.93 1095,-95.95 918.81,-100.62 874.68,-102.81 699,-116.95 683.67,-118.18 666.6,-120 652.73,-121.59"/>
<polygon fill="#9a32cd" stroke="#9a32cd" points="1199.55,-102.66 1210.1,-101.64 1201.22,-95.86 1199.55,-102.66"/>
<text text-anchor="middle" x="948.5" y="-105.95" font-family="Helvetica,sans-Serif" font-size="10.00"> queue</text>
</g>
<!-- Node10&#45;&gt;Node11 -->
<g id="edge17" class="edge">
<title>Node10&#45;&gt;Node11</title>
<path fill="none" stroke="#9a32cd" stroke-dasharray="5,2" d="M1206.81,-125.92C1198.66,-128.95 1190.05,-132.1 1182,-134.95 1143.57,-148.54 1133.11,-149.51 1095,-163.95 1084.42,-167.96 1072.87,-172.82 1063.17,-177.03"/>
<polygon fill="#9a32cd" stroke="#9a32cd" points="1207.99,-129.22 1216.12,-122.43 1205.53,-122.66 1207.99,-129.22"/>
<text text-anchor="middle" x="1138.5" y="-177.95" font-family="Helvetica,sans-Serif" font-size="10.00"> join_queue</text>
<text text-anchor="middle" x="1138.5" y="-166.95" font-family="Helvetica,sans-Serif" font-size="10.00">queue</text>
</g>
<!-- Node11&#45;&gt;Node9 -->
<g id="edge23" class="edge">
<title>Node11&#45;&gt;Node9</title>
<path fill="none" stroke="#9a32cd" stroke-dasharray="5,2" d="M998.14,-181.53C945.21,-174.43 850.12,-161.42 769,-148.95 728.54,-142.73 681.82,-134.81 652.84,-129.81"/>
<polygon fill="#9a32cd" stroke="#9a32cd" points="997.52,-184.98 1007.9,-182.83 998.45,-178.04 997.52,-184.98"/>
<text text-anchor="middle" x="831.5" y="-170.95" font-family="Helvetica,sans-Serif" font-size="10.00"> thread</text>
</g>
<!-- Node11&#45;&gt;Node10 -->
<g id="edge15" class="edge">
<title>Node11&#45;&gt;Node10</title>
<path fill="none" stroke="#9a32cd" stroke-dasharray="5,2" d="M1049.33,-166.75C1057.89,-148.96 1073.06,-124.2 1095,-112.95 1127.24,-96.43 1168.82,-97.74 1199.78,-102.29"/>
<polygon fill="#9a32cd" stroke="#9a32cd" points="1046.16,-165.27 1045.28,-175.83 1052.55,-168.13 1046.16,-165.27"/>
<text text-anchor="middle" x="1138.5" y="-126.95" font-family="Helvetica,sans-Serif" font-size="10.00"> head</text>
<text text-anchor="middle" x="1138.5" y="-115.95" font-family="Helvetica,sans-Serif" font-size="10.00">tail</text>
</g>
<!-- Node13 -->
<g id="node13" class="node">
<title>Node13</title>
<g id="a_node13"><a xlink:href="structOSThreadLink.html" target="_top" xlink:title=" ">
<polygon fill="white" stroke="#666666" points="1284.5,-233.45 1204.5,-233.45 1204.5,-214.45 1284.5,-214.45 1284.5,-233.45"/>
<text text-anchor="middle" x="1244.5" y="-221.45" font-family="Helvetica,sans-Serif" font-size="10.00">OSThreadLink</text>
</a>
</g>
</g>
<!-- Node11&#45;&gt;Node13 -->
<g id="edge19" class="edge">
<title>Node11&#45;&gt;Node13</title>
<path fill="none" stroke="#9a32cd" stroke-dasharray="5,2" d="M1059.12,-203.97C1068.94,-212.01 1081.75,-220.76 1095,-224.95 1130.64,-236.23 1173.55,-234.41 1204.06,-230.72"/>
<polygon fill="#9a32cd" stroke="#9a32cd" points="1061.69,-201.56 1051.85,-197.63 1057.09,-206.84 1061.69,-201.56"/>
<text text-anchor="middle" x="1138.5" y="-246.95" font-family="Helvetica,sans-Serif" font-size="10.00"> next</text>
<text text-anchor="middle" x="1138.5" y="-235.95" font-family="Helvetica,sans-Serif" font-size="10.00">prev</text>
</g>
<!-- Node12 -->
<g id="node12" class="node">
<title>Node12</title>
<g id="a_node12"><a xlink:href="structOSContext.html" target="_top" xlink:title=" ">
<polygon fill="white" stroke="#666666" points="863.5,-220.45 799.5,-220.45 799.5,-201.45 863.5,-201.45 863.5,-220.45"/>
<text text-anchor="middle" x="831.5" y="-208.45" font-family="Helvetica,sans-Serif" font-size="10.00">OSContext</text>
</a>
</g>
</g>
<!-- Node12&#45;&gt;Node11 -->
<g id="edge16" class="edge">
<title>Node12&#45;&gt;Node11</title>
<path fill="none" stroke="#9a32cd" stroke-dasharray="5,2" d="M875.11,-206C915.06,-201.36 973.79,-194.53 1009.02,-190.43"/>
<polygon fill="#9a32cd" stroke="#9a32cd" points="874.9,-202.5 865.37,-207.13 875.7,-209.45 874.9,-202.5"/>
<text text-anchor="middle" x="948.5" y="-203.95" font-family="Helvetica,sans-Serif" font-size="10.00"> context</text>
</g>
<!-- Node13&#45;&gt;Node11 -->
<g id="edge18" class="edge">
<title>Node13&#45;&gt;Node11</title>
<path fill="none" stroke="#9a32cd" stroke-dasharray="5,2" d="M1207.55,-210.23C1199.26,-207.47 1190.4,-204.84 1182,-202.95 1144.14,-194.44 1099.5,-190.35 1070.75,-188.46"/>
<polygon fill="#9a32cd" stroke="#9a32cd" points="1206.4,-213.53 1216.99,-213.52 1208.7,-206.92 1206.4,-213.53"/>
<text text-anchor="middle" x="1138.5" y="-216.95" font-family="Helvetica,sans-Serif" font-size="10.00"> active_threads_link</text>
<text text-anchor="middle" x="1138.5" y="-205.95" font-family="Helvetica,sans-Serif" font-size="10.00">link</text>
</g>
<!-- Node14&#45;&gt;Node11 -->
<g id="edge21" class="edge">
<title>Node14&#45;&gt;Node11</title>
<path fill="none" stroke="#9a32cd" stroke-dasharray="5,2" d="M885.83,-240.6C915.59,-235.56 953,-227.63 985,-215.95 998.6,-210.99 1012.99,-203.12 1023.49,-196.82"/>
<polygon fill="#9a32cd" stroke="#9a32cd" points="885.62,-237.09 876.32,-242.15 886.75,-244 885.62,-237.09"/>
<text text-anchor="middle" x="948.5" y="-237.95" font-family="Helvetica,sans-Serif" font-size="10.00"> owned_mutexes</text>
</g>
<!-- Node15&#45;&gt;Node9 -->
<g id="edge24" class="edge">
<title>Node15&#45;&gt;Node9</title>
<path fill="none" stroke="#9a32cd" stroke-dasharray="5,2" d="M781.79,-29.27C756,-33.1 724.48,-40.33 699,-53.95 669.79,-69.56 643.96,-99.97 632.02,-115.43"/>
<polygon fill="#9a32cd" stroke="#9a32cd" points="782.26,-32.74 791.7,-27.94 781.32,-25.8 782.26,-32.74"/>
<text text-anchor="middle" x="725" y="-56.95" font-family="Helvetica,sans-Serif" font-size="10.00"> link</text>
</g>
<!-- Node16 -->
<g id="node16" class="node">
<title>Node16</title>
<g id="a_node16"><a xlink:href="classJSUTree.html" target="_top" xlink:title=" ">
<polygon fill="white" stroke="#666666" points="681,-380.45 567,-380.45 567,-361.45 681,-361.45 681,-380.45"/>
<text text-anchor="middle" x="624" y="-368.45" font-family="Helvetica,sans-Serif" font-size="10.00">JSUTree&lt; JKRHeap &gt;</text>
</a>
</g>
</g>
<!-- Node16&#45;&gt;Node4 -->
<g id="edge26" class="edge">
<title>Node16&#45;&gt;Node4</title>
<path fill="none" stroke="#9a32cd" stroke-dasharray="5,2" d="M688.59,-358.88C726.41,-351.7 772.56,-342.95 801.75,-337.41"/>
<polygon fill="#9a32cd" stroke="#9a32cd" points="688.31,-355.37 679.14,-360.68 689.62,-362.25 688.31,-355.37"/>
<text text-anchor="middle" x="725" y="-358.95" font-family="Helvetica,sans-Serif" font-size="10.00"> mChildTree</text>
</g>
<!-- Node17&#45;&gt;Node16 -->
<g id="edge27" class="edge">
<title>Node17&#45;&gt;Node16</title>
<path fill="none" stroke="#63b8ff" d="M414.73,-369.35C458.51,-369.68 521.39,-370.17 566.6,-370.52"/>
<polygon fill="#63b8ff" stroke="#63b8ff" points="415.02,-365.85 404.99,-369.27 414.96,-372.85 415.02,-365.85"/>
</g>
<!-- Node18&#45;&gt;Node16 -->
<g id="edge29" class="edge">
<title>Node18&#45;&gt;Node16</title>
<path fill="none" stroke="#63b8ff" d="M315.57,-397.67C372.9,-395.88 467.74,-391.79 549,-382.95 554.69,-382.33 560.62,-381.57 566.52,-380.73"/>
<polygon fill="#63b8ff" stroke="#63b8ff" points="315.67,-394.17 305.78,-397.96 315.88,-401.16 315.67,-394.17"/>
</g>
<!-- Node19&#45;&gt;Node4 -->
<g id="edge31" class="edge">
<title>Node19&#45;&gt;Node4</title>
<path fill="none" stroke="#9a32cd" stroke-dasharray="5,2" d="M559.71,-331.16C635.25,-331.38 748.91,-331.71 801.68,-331.87"/>
<polygon fill="#9a32cd" stroke="#9a32cd" points="559.91,-327.67 549.9,-331.14 559.89,-334.67 559.91,-327.67"/>
<text text-anchor="middle" x="624" y="-333.95" font-family="Helvetica,sans-Serif" font-size="10.00"> mDisposerList</text>
</g>
</g>
</svg>
        <g id="navigator" transform="translate(0 0)" fill="#404254">
                <rect fill="#f2f5e9" fill-opacity="0.5" stroke="#606060" stroke-width=".5" x="0" y="0" width="60" height="60"/>
                <use id="zoomplus" xlink:href="#zoomPlus" x="17" y="9" onmousedown="handleZoom(evt,'in')"/>
                <use id="zoomminus" xlink:href="#zoomMin" x="42" y="9" onmousedown="handleZoom(evt,'out')"/>
                <use id="reset" xlink:href="#resetDef" x="30" y="36" onmousedown="handleReset()"/>
                <g id="arrowUp" xlink:href="#dirArrow" transform="translate(30 24)" onmousedown="handlePan(0,-1)">
                  <use xlink:href="#rim" fill="#404040">
                        <set attributeName="fill" to="#808080" begin="arrowUp.mouseover" end="arrowUp.mouseout"/>
                  </use>
                  <path fill="none" stroke="white" stroke-width="1.5" d="M0,-3.0v7 M-2.5,-0.5L0,-3.0L2.5,-0.5"/>
                </g>
                <g id="arrowRight" xlink:href="#dirArrow" transform="rotate(90) translate(36 -43)" onmousedown="handlePan(1,0)">
                  <use xlink:href="#rim" fill="#404040">
                        <set attributeName="fill" to="#808080" begin="arrowRight.mouseover" end="arrowRight.mouseout"/>
                  </use>
                  <path fill="none" stroke="white" stroke-width="1.5" d="M0,-3.0v7 M-2.5,-0.5L0,-3.0L2.5,-0.5"/>
                </g>
                <g id="arrowDown" xlink:href="#dirArrow" transform="rotate(180) translate(-30 -48)" onmousedown="handlePan(0,1)">
                  <use xlink:href="#rim" fill="#404040">
                        <set attributeName="fill" to="#808080" begin="arrowDown.mouseover" end="arrowDown.mouseout"/>
                  </use>
                  <path fill="none" stroke="white" stroke-width="1.5" d="M0,-3.0v7 M-2.5,-0.5L0,-3.0L2.5,-0.5"/>
                </g>
                <g id="arrowLeft" xlink:href="#dirArrow" transform="rotate(270) translate(-36 17)" onmousedown="handlePan(-1,0)">
                  <use xlink:href="#rim" fill="#404040">
                        <set attributeName="fill" to="#808080" begin="arrowLeft.mouseover" end="arrowLeft.mouseout"/>
                  </use>
                  <path fill="none" stroke="white" stroke-width="1.5" d="M0,-3.0v7 M-2.5,-0.5L0,-3.0L2.5,-0.5"/>
                </g>
        </g>
        <svg viewBox="0 0 15 15" width="100%" height="30px" preserveAspectRatio="xMaxYMin meet">
         <g id="arrow_out" transform="scale(0.3 0.3)">
          <a xlink:href="classJUTProcBar__coll__graph_org.svg" target="_base">
           <rect id="button" ry="5" rx="5" y="6" x="6" height="38" width="38"
                fill="#f2f5e9" fill-opacity="0.5" stroke="#606060" stroke-width="1.0"/>
           <path id="arrow"
             d="M 11.500037,31.436501 C 11.940474,20.09759 22.043105,11.32322 32.158766,21.979434 L 37.068811,17.246167 C 37.068811,17.246167 37.088388,32 37.088388,32 L 22.160133,31.978069 C 22.160133,31.978069 26.997745,27.140456 26.997745,27.140456 C 18.528582,18.264221 13.291696,25.230495 11.500037,31.436501 z"
             style="fill:#404040;"/>
          </a>
         </g>
        </svg>
</svg>
