<?xml version="1.0" encoding="UTF-8" standalone="no"?>
<!DOCTYPE svg PUBLIC "-//W3C//DTD SVG 1.1//EN"
 "http://www.w3.org/Graphics/SVG/1.1/DTD/svg11.dtd">
<!-- Generated by graphviz version 2.49.3 (20211027.1534)
 -->
<!-- Title: JUTException Pages: 1 -->
<!--zoomable 772 -->
<svg id="main" version="1.1" xmlns="http://www.w3.org/2000/svg" xmlns:xlink="http://www.w3.org/1999/xlink" xml:space="preserve" onload="init(evt)">
<style type="text/css"><![CDATA[
.edge:hover path { stroke: red; }
.edge:hover polygon { stroke: red; fill: red; }
]]></style>
<script type="text/javascript"><![CDATA[
var edges = document.getElementsByTagName('g');
if (edges && edges.length) {
  for (var i=0;i<edges.length;i++) {
    if (edges[i].id.substr(0,4)=='edge') {
      edges[i].setAttribute('class','edge');
    }
  }
}
]]></script>
        <defs>
                <circle id="rim" cx="0" cy="0" r="7"/>
                <circle id="rim2" cx="0" cy="0" r="3.5"/>
                <g id="zoomPlus">
                        <use xlink:href="#rim" fill="#404040">
                                <set attributeName="fill" to="#808080" begin="zoomplus.mouseover" end="zoomplus.mouseout"/>
                        </use>
                        <path d="M-4,0h8M0,-4v8" fill="none" stroke="white" stroke-width="1.5" pointer-events="none"/>
                </g>
                <g id="zoomMin">
                        <use xlink:href="#rim" fill="#404040">
                                <set attributeName="fill" to="#808080" begin="zoomminus.mouseover" end="zoomminus.mouseout"/>
                        </use>
                        <path d="M-4,0h8" fill="none" stroke="white" stroke-width="1.5" pointer-events="none"/>
                </g>
                <g id="dirArrow">
                        <path fill="none" stroke="white" stroke-width="1.5" d="M0,-3.0v7 M-2.5,-0.5L0,-3.0L2.5,-0.5"/>
                </g>
               <g id="resetDef">
                       <use xlink:href="#rim2" fill="#404040">
                               <set attributeName="fill" to="#808080" begin="reset.mouseover" end="reset.mouseout"/>
                       </use>
               </g>
        </defs>

<script type="text/javascript">
var viewWidth = 1267;
var viewHeight = 772;
var sectionId = 'dynsection-1';
</script>
<script xlink:href="svgpan.js"/>
<svg id="graph" class="graph">
<g id="viewport">
<title>JUTException</title>
<polygon fill="white" stroke="transparent" points="-4,4 -4,-768.07 1263,-768.07 1263,4 -4,4"/>
<!-- Node1 -->
<g id="node1" class="node">
<title>Node1</title>
<g id="a_node1"><a xlink:title=" ">
<polygon fill="#bfbfbf" stroke="black" points="1182,-322.57 1182,-341.57 1259,-341.57 1259,-322.57 1182,-322.57"/>
<text text-anchor="middle" x="1220.5" y="-329.57" font-family="Helvetica,sans-Serif" font-size="10.00">JUTException</text>
</a>
</g>
</g>
<!-- Node1&#45;&gt;Node1 -->
<g id="edge21" class="edge">
<title>Node1&#45;&gt;Node1</title>
<path fill="none" stroke="#9a32cd" stroke-dasharray="5,2" d="M1203.46,-351.47C1204.6,-356.39 1210.28,-360.07 1220.5,-360.07 1236.85,-360.07 1241.58,-350.64 1234.68,-341.83"/>
<polygon fill="#9a32cd" stroke="#9a32cd" points="1206.84,-352.41 1206.32,-341.83 1200.12,-350.43 1206.84,-352.41"/>
<text text-anchor="middle" x="1220.5" y="-363.07" font-family="Helvetica,sans-Serif" font-size="10.00"> sErrorManager</text>
</g>
<!-- Node2 -->
<g id="node2" class="node">
<title>Node2</title>
<g id="a_node2"><a xlink:href="classJKRThread.html" target="_top" xlink:title=" ">
<polygon fill="white" stroke="black" points="999,-627.57 999,-646.57 1064,-646.57 1064,-627.57 999,-627.57"/>
<text text-anchor="middle" x="1031.5" y="-634.57" font-family="Helvetica,sans-Serif" font-size="10.00">JKRThread</text>
</a>
</g>
</g>
<!-- Node2&#45;&gt;Node1 -->
<g id="edge1" class="edge">
<title>Node2&#45;&gt;Node1</title>
<path fill="none" stroke="midnightblue" d="M1043.92,-618.45C1079.44,-560.51 1187.19,-384.77 1213.61,-341.69"/>
<polygon fill="midnightblue" stroke="midnightblue" points="1040.75,-616.92 1038.51,-627.27 1046.72,-620.58 1040.75,-616.92"/>
</g>
<!-- Node3 -->
<g id="node3" class="node">
<title>Node3</title>
<g id="a_node3"><a xlink:href="classJKRDisposer.html" target="_top" xlink:title=" ">
<polygon fill="white" stroke="black" points="530.5,-480.57 530.5,-499.57 604.5,-499.57 604.5,-480.57 530.5,-480.57"/>
<text text-anchor="middle" x="567.5" y="-487.57" font-family="Helvetica,sans-Serif" font-size="10.00">JKRDisposer</text>
</a>
</g>
</g>
<!-- Node3&#45;&gt;Node2 -->
<g id="edge2" class="edge">
<title>Node3&#45;&gt;Node2</title>
<path fill="none" stroke="#8b1a1a" d="M589.21,-505.7C621.77,-529.39 687.76,-573.99 751,-596.07 837.35,-626.23 946.23,-634.21 998.98,-636.32"/>
<polygon fill="#8b1a1a" stroke="#8b1a1a" points="591.07,-502.72 580.95,-499.6 586.92,-508.36 591.07,-502.72"/>
</g>
<!-- Node4 -->
<g id="node4" class="node">
<title>Node4</title>
<g id="a_node4"><a xlink:href="classJKRHeap.html" target="_top" xlink:title=" ">
<polygon fill="white" stroke="black" points="782.5,-516.57 782.5,-535.57 841.5,-535.57 841.5,-516.57 782.5,-516.57"/>
<text text-anchor="middle" x="812" y="-523.57" font-family="Helvetica,sans-Serif" font-size="10.00">JKRHeap</text>
</a>
</g>
</g>
<!-- Node3&#45;&gt;Node4 -->
<g id="edge4" class="edge">
<title>Node3&#45;&gt;Node4</title>
<path fill="none" stroke="midnightblue" d="M615,-491.68C648.11,-493.39 693.56,-496.9 733,-504.07 749.61,-507.1 767.79,-512.12 782.41,-516.6"/>
<polygon fill="midnightblue" stroke="midnightblue" points="614.86,-488.16 604.7,-491.18 614.52,-495.16 614.86,-488.16"/>
</g>
<!-- Node13 -->
<g id="node13" class="node">
<title>Node13</title>
<g id="a_node13"><a xlink:href="classJUTConsole.html" target="_top" xlink:title=" ">
<polygon fill="white" stroke="black" points="996,-359.57 996,-378.57 1067,-378.57 1067,-359.57 996,-359.57"/>
<text text-anchor="middle" x="1031.5" y="-366.57" font-family="Helvetica,sans-Serif" font-size="10.00">JUTConsole</text>
</a>
</g>
</g>
<!-- Node3&#45;&gt;Node13 -->
<g id="edge23" class="edge">
<title>Node3&#45;&gt;Node13</title>
<path fill="none" stroke="midnightblue" d="M615.08,-489.17C693.1,-485.92 853.3,-471.7 972,-411.07 989.59,-402.09 1007.75,-388.2 1019.08,-378.88"/>
<polygon fill="midnightblue" stroke="midnightblue" points="614.49,-485.69 604.63,-489.56 614.76,-492.68 614.49,-485.69"/>
</g>
<!-- Node21 -->
<g id="node21" class="node">
<title>Node21</title>
<g id="a_node21"><a xlink:href="structJUTGamePad.html" target="_top" xlink:title=" ">
<polygon fill="white" stroke="black" points="772.5,-164.57 772.5,-183.57 851.5,-183.57 851.5,-164.57 772.5,-164.57"/>
<text text-anchor="middle" x="812" y="-171.57" font-family="Helvetica,sans-Serif" font-size="10.00">JUTGamePad</text>
</a>
</g>
</g>
<!-- Node3&#45;&gt;Node21 -->
<g id="edge36" class="edge">
<title>Node3&#45;&gt;Node21</title>
<path fill="none" stroke="midnightblue" d="M602.15,-476.44C640.39,-459.1 701.55,-425.35 733,-376.07 758.24,-336.53 734.46,-315.97 751,-272.07 764.23,-236.98 790.38,-200.58 803.35,-183.72"/>
<polygon fill="midnightblue" stroke="midnightblue" points="600.69,-473.26 592.96,-480.5 603.52,-479.66 600.69,-473.26"/>
</g>
<!-- Node4&#45;&gt;Node2 -->
<g id="edge7" class="edge">
<title>Node4&#45;&gt;Node2</title>
<path fill="none" stroke="#9a32cd" stroke-dasharray="5,2" d="M851.48,-534.43C885,-542.83 934.05,-557.9 972,-581.07 992.88,-593.83 1012.4,-615.11 1022.76,-627.44"/>
<polygon fill="#9a32cd" stroke="#9a32cd" points="852.15,-530.99 841.6,-532.04 850.5,-537.8 852.15,-530.99"/>
<text text-anchor="middle" x="931.5" y="-595.07" font-family="Helvetica,sans-Serif" font-size="10.00"> mCurrentHeap</text>
<text text-anchor="middle" x="931.5" y="-584.07" font-family="Helvetica,sans-Serif" font-size="10.00">mHeap</text>
</g>
<!-- Node4&#45;&gt;Node3 -->
<g id="edge3" class="edge">
<title>Node4&#45;&gt;Node3</title>
<path fill="none" stroke="#9a32cd" stroke-dasharray="5,2" d="M772.43,-520.35C726.26,-513.5 649.56,-502.11 604.54,-495.43"/>
<polygon fill="#9a32cd" stroke="#9a32cd" points="771.95,-523.82 782.35,-521.82 772.98,-516.89 771.95,-523.82"/>
<text text-anchor="middle" x="696.5" y="-517.07" font-family="Helvetica,sans-Serif" font-size="10.00"> mHeap</text>
</g>
<!-- Node4&#45;&gt;Node4 -->
<g id="edge6" class="edge">
<title>Node4&#45;&gt;Node4</title>
<path fill="none" stroke="#9a32cd" stroke-dasharray="5,2" d="M790.89,-545.47C792.3,-550.39 799.34,-554.07 812,-554.07 832.26,-554.07 838.12,-544.64 829.57,-535.83"/>
<polygon fill="#9a32cd" stroke="#9a32cd" points="794.27,-546.43 794.43,-535.83 787.7,-544.01 794.27,-546.43"/>
<text text-anchor="middle" x="812" y="-579.07" font-family="Helvetica,sans-Serif" font-size="10.00"> sCurrentHeap</text>
<text text-anchor="middle" x="812" y="-568.07" font-family="Helvetica,sans-Serif" font-size="10.00">sRootHeap</text>
<text text-anchor="middle" x="812" y="-557.07" font-family="Helvetica,sans-Serif" font-size="10.00">sSystemHeap</text>
</g>
<!-- Node5 -->
<g id="node5" class="node">
<title>Node5</title>
<g id="a_node5"><a xlink:href="structOSMutex.html" target="_top" xlink:title=" ">
<polygon fill="white" stroke="black" points="0,-625.57 0,-644.57 57,-644.57 57,-625.57 0,-625.57"/>
<text text-anchor="middle" x="28.5" y="-632.57" font-family="Helvetica,sans-Serif" font-size="10.00">OSMutex</text>
</a>
</g>
</g>
<!-- Node5&#45;&gt;Node4 -->
<g id="edge5" class="edge">
<title>Node5&#45;&gt;Node4</title>
<path fill="none" stroke="#9a32cd" stroke-dasharray="5,2" d="M43.13,-617.5C64.32,-592.35 107.78,-549.07 156,-549.07 156,-549.07 156,-549.07 568.5,-549.07 646.1,-549.07 737.05,-537.26 782.34,-530.56"/>
<polygon fill="#9a32cd" stroke="#9a32cd" points="40.18,-615.58 36.59,-625.54 45.61,-619.99 40.18,-615.58"/>
<text text-anchor="middle" x="339.5" y="-552.07" font-family="Helvetica,sans-Serif" font-size="10.00"> mMutex</text>
</g>
<!-- Node6 -->
<g id="node6" class="node">
<title>Node6</title>
<g id="a_node6"><a xlink:href="structOSThread.html" target="_top" xlink:title=" ">
<polygon fill="white" stroke="black" points="309,-645.57 309,-664.57 370,-664.57 370,-645.57 309,-645.57"/>
<text text-anchor="middle" x="339.5" y="-652.57" font-family="Helvetica,sans-Serif" font-size="10.00">OSThread</text>
</a>
</g>
</g>
<!-- Node5&#45;&gt;Node6 -->
<g id="edge14" class="edge">
<title>Node5&#45;&gt;Node6</title>
<path fill="none" stroke="#9a32cd" stroke-dasharray="5,2" d="M50.83,-650.17C58.15,-654.54 66.62,-658.75 75,-661.07 157.25,-683.84 259.51,-670.25 308.97,-661.2"/>
<polygon fill="#9a32cd" stroke="#9a32cd" points="52.57,-647.13 42.26,-644.68 48.79,-653.02 52.57,-647.13"/>
<text text-anchor="middle" x="157" y="-676.07" font-family="Helvetica,sans-Serif" font-size="10.00"> mutex</text>
</g>
<!-- Node10 -->
<g id="node10" class="node">
<title>Node10</title>
<g id="a_node10"><a xlink:href="structOSMutexQueue.html" target="_top" xlink:title=" ">
<polygon fill="white" stroke="black" points="114,-625.57 114,-644.57 200,-644.57 200,-625.57 114,-625.57"/>
<text text-anchor="middle" x="157" y="-632.57" font-family="Helvetica,sans-Serif" font-size="10.00">OSMutexQueue</text>
</a>
</g>
</g>
<!-- Node5&#45;&gt;Node10 -->
<g id="edge16" class="edge">
<title>Node5&#45;&gt;Node10</title>
<path fill="none" stroke="#9a32cd" stroke-dasharray="5,2" d="M67.47,-635.07C82.09,-635.07 98.88,-635.07 113.87,-635.07"/>
<polygon fill="#9a32cd" stroke="#9a32cd" points="67.26,-631.57 57.26,-635.07 67.26,-638.57 67.26,-631.57"/>
<text text-anchor="middle" x="85.5" y="-649.07" font-family="Helvetica,sans-Serif" font-size="10.00"> next</text>
<text text-anchor="middle" x="85.5" y="-638.07" font-family="Helvetica,sans-Serif" font-size="10.00">prev</text>
</g>
<!-- Node6&#45;&gt;Node2 -->
<g id="edge8" class="edge">
<title>Node6&#45;&gt;Node2</title>
<path fill="none" stroke="#9a32cd" stroke-dasharray="5,2" d="M380.34,-655.15C480.07,-655.14 748.54,-653.91 972,-642.07 980.75,-641.61 990.23,-640.89 998.95,-640.15"/>
<polygon fill="#9a32cd" stroke="#9a32cd" points="380.12,-651.65 370.12,-655.15 380.12,-658.65 380.12,-651.65"/>
<text text-anchor="middle" x="696.5" y="-655.07" font-family="Helvetica,sans-Serif" font-size="10.00"> mThreadRecord</text>
</g>
<!-- Node8 -->
<g id="node8" class="node">
<title>Node8</title>
<g id="a_node8"><a xlink:href="structOSThreadQueue.html" target="_top" xlink:title=" ">
<polygon fill="white" stroke="black" points="523,-727.57 523,-746.57 612,-746.57 612,-727.57 523,-727.57"/>
<text text-anchor="middle" x="567.5" y="-734.57" font-family="Helvetica,sans-Serif" font-size="10.00">OSThreadQueue</text>
</a>
</g>
</g>
<!-- Node6&#45;&gt;Node8 -->
<g id="edge11" class="edge">
<title>Node6&#45;&gt;Node8</title>
<path fill="none" stroke="#9a32cd" stroke-dasharray="5,2" d="M348.67,-673.66C356.44,-688.92 369.66,-709.64 388,-720.07 429.26,-743.55 484.71,-745.09 522.79,-742.5"/>
<polygon fill="#9a32cd" stroke="#9a32cd" points="351.81,-672.12 344.35,-664.59 345.49,-675.12 351.81,-672.12"/>
<text text-anchor="middle" x="431.5" y="-756.07" font-family="Helvetica,sans-Serif" font-size="10.00"> head</text>
<text text-anchor="middle" x="431.5" y="-745.07" font-family="Helvetica,sans-Serif" font-size="10.00">tail</text>
</g>
<!-- Node9 -->
<g id="node9" class="node">
<title>Node9</title>
<g id="a_node9"><a xlink:href="structOSThreadLink.html" target="_top" xlink:title=" ">
<polygon fill="white" stroke="black" points="527.5,-596.57 527.5,-615.57 607.5,-615.57 607.5,-596.57 527.5,-596.57"/>
<text text-anchor="middle" x="567.5" y="-603.57" font-family="Helvetica,sans-Serif" font-size="10.00">OSThreadLink</text>
</a>
</g>
</g>
<!-- Node6&#45;&gt;Node9 -->
<g id="edge13" class="edge">
<title>Node6&#45;&gt;Node9</title>
<path fill="none" stroke="#9a32cd" stroke-dasharray="5,2" d="M362.68,-640.07C370.39,-635.51 379.29,-630.96 388,-628.07 434.24,-612.76 490.41,-607.94 527.24,-606.51"/>
<polygon fill="#9a32cd" stroke="#9a32cd" points="360.58,-637.25 353.95,-645.51 364.29,-643.19 360.58,-637.25"/>
<text text-anchor="middle" x="431.5" y="-642.07" font-family="Helvetica,sans-Serif" font-size="10.00"> next</text>
<text text-anchor="middle" x="431.5" y="-631.07" font-family="Helvetica,sans-Serif" font-size="10.00">prev</text>
</g>
<!-- Node7 -->
<g id="node7" class="node">
<title>Node7</title>
<g id="a_node7"><a xlink:href="structOSContext.html" target="_top" xlink:title=" ">
<polygon fill="white" stroke="black" points="125,-587.57 125,-606.57 189,-606.57 189,-587.57 125,-587.57"/>
<text text-anchor="middle" x="157" y="-594.57" font-family="Helvetica,sans-Serif" font-size="10.00">OSContext</text>
</a>
</g>
</g>
<!-- Node7&#45;&gt;Node6 -->
<g id="edge9" class="edge">
<title>Node7&#45;&gt;Node6</title>
<path fill="none" stroke="#9a32cd" stroke-dasharray="5,2" d="M199.36,-602.99C226.12,-607.65 261.37,-615.34 291,-627.07 303.1,-631.87 315.75,-639.47 324.95,-645.55"/>
<polygon fill="#9a32cd" stroke="#9a32cd" points="199.62,-599.49 189.18,-601.3 198.47,-606.4 199.62,-599.49"/>
<text text-anchor="middle" x="254.5" y="-630.07" font-family="Helvetica,sans-Serif" font-size="10.00"> context</text>
</g>
<!-- Node8&#45;&gt;Node6 -->
<g id="edge10" class="edge">
<title>Node8&#45;&gt;Node6</title>
<path fill="none" stroke="#9a32cd" stroke-dasharray="5,2" d="M537.23,-723.32C519.47,-715.3 496.22,-705.36 475,-698.07 437.17,-685.09 425.86,-687.98 388,-675.07 379.19,-672.07 369.7,-668.21 361.54,-664.68"/>
<polygon fill="#9a32cd" stroke="#9a32cd" points="535.93,-726.57 546.48,-727.55 538.84,-720.21 535.93,-726.57"/>
<text text-anchor="middle" x="431.5" y="-712.07" font-family="Helvetica,sans-Serif" font-size="10.00"> join_queue</text>
<text text-anchor="middle" x="431.5" y="-701.07" font-family="Helvetica,sans-Serif" font-size="10.00">queue</text>
</g>
<!-- Node11 -->
<g id="node11" class="node">
<title>Node11</title>
<g id="a_node11"><a xlink:href="structOSMessageQueue.html" target="_top" xlink:title=" ">
<polygon fill="white" stroke="black" points="762.5,-727.57 762.5,-746.57 861.5,-746.57 861.5,-727.57 762.5,-727.57"/>
<text text-anchor="middle" x="812" y="-734.57" font-family="Helvetica,sans-Serif" font-size="10.00">OSMessageQueue</text>
</a>
</g>
</g>
<!-- Node8&#45;&gt;Node11 -->
<g id="edge18" class="edge">
<title>Node8&#45;&gt;Node11</title>
<path fill="none" stroke="#9a32cd" stroke-dasharray="5,2" d="M622.15,-737.07C664.04,-737.07 721.74,-737.07 762.3,-737.07"/>
<polygon fill="#9a32cd" stroke="#9a32cd" points="622.13,-733.57 612.13,-737.07 622.13,-740.57 622.13,-733.57"/>
<text text-anchor="middle" x="696.5" y="-751.07" font-family="Helvetica,sans-Serif" font-size="10.00"> receiving_queue</text>
<text text-anchor="middle" x="696.5" y="-740.07" font-family="Helvetica,sans-Serif" font-size="10.00">sending_queue</text>
</g>
<!-- Node9&#45;&gt;Node6 -->
<g id="edge12" class="edge">
<title>Node9&#45;&gt;Node6</title>
<path fill="none" stroke="#9a32cd" stroke-dasharray="5,2" d="M538,-592.56C501.1,-577.18 435.86,-557.31 388,-583.07 363.21,-596.42 349.21,-628.99 343.53,-645.36"/>
<polygon fill="#9a32cd" stroke="#9a32cd" points="536.61,-595.78 547.18,-596.54 539.39,-589.35 536.61,-595.78"/>
<text text-anchor="middle" x="431.5" y="-597.07" font-family="Helvetica,sans-Serif" font-size="10.00"> active_threads_link</text>
<text text-anchor="middle" x="431.5" y="-586.07" font-family="Helvetica,sans-Serif" font-size="10.00">link</text>
</g>
<!-- Node10&#45;&gt;Node6 -->
<g id="edge15" class="edge">
<title>Node10&#45;&gt;Node6</title>
<path fill="none" stroke="#9a32cd" stroke-dasharray="5,2" d="M210.41,-640.88C242.42,-644.43 282.19,-648.84 308.85,-651.79"/>
<polygon fill="#9a32cd" stroke="#9a32cd" points="210.64,-637.39 200.32,-639.76 209.87,-644.34 210.64,-637.39"/>
<text text-anchor="middle" x="254.5" y="-652.07" font-family="Helvetica,sans-Serif" font-size="10.00"> owned_mutexes</text>
</g>
<!-- Node11&#45;&gt;Node1 -->
<g id="edge20" class="edge">
<title>Node11&#45;&gt;Node1</title>
<path fill="none" stroke="#9a32cd" stroke-dasharray="5,2" d="M871.83,-745.18C902.51,-747.23 940.18,-746.27 972,-735.07 1025.76,-716.17 1035.65,-699.12 1073,-656.07 1163.23,-552.11 1207.43,-383.42 1217.32,-341.66"/>
<polygon fill="#9a32cd" stroke="#9a32cd" points="871.95,-741.68 861.71,-744.38 871.4,-748.66 871.95,-741.68"/>
<text text-anchor="middle" x="1031.5" y="-730.07" font-family="Helvetica,sans-Serif" font-size="10.00"> sMessageQueue</text>
</g>
<!-- Node11&#45;&gt;Node2 -->
<g id="edge17" class="edge">
<title>Node11&#45;&gt;Node2</title>
<path fill="none" stroke="#9a32cd" stroke-dasharray="5,2" d="M871.52,-726.72C909.47,-719.32 954.92,-708.96 972,-699.07 995.06,-685.73 1014.61,-660.5 1024.19,-646.7"/>
<polygon fill="#9a32cd" stroke="#9a32cd" points="870.71,-723.31 861.55,-728.63 872.03,-730.19 870.71,-723.31"/>
<text text-anchor="middle" x="931.5" y="-725.07" font-family="Helvetica,sans-Serif" font-size="10.00"> mMessageQueue</text>
</g>
<!-- Node12 -->
<g id="node12" class="node">
<title>Node12</title>
<g id="a_node12"><a xlink:href="classJKRThread_1_1TLoad.html" target="_top" xlink:title=" ">
<polygon fill="white" stroke="black" points="763,-684.57 763,-703.57 861,-703.57 861,-684.57 763,-684.57"/>
<text text-anchor="middle" x="812" y="-691.57" font-family="Helvetica,sans-Serif" font-size="10.00">JKRThread::TLoad</text>
</a>
</g>
</g>
<!-- Node12&#45;&gt;Node2 -->
<g id="edge19" class="edge">
<title>Node12&#45;&gt;Node2</title>
<path fill="none" stroke="#9a32cd" stroke-dasharray="5,2" d="M871.3,-688.5C901.84,-684.51 939.54,-677.87 972,-667.07 987.38,-661.96 1003.7,-653.29 1015.18,-646.58"/>
<polygon fill="#9a32cd" stroke="#9a32cd" points="870.73,-685.05 861.24,-689.76 871.59,-691.99 870.73,-685.05"/>
<text text-anchor="middle" x="931.5" y="-687.07" font-family="Helvetica,sans-Serif" font-size="10.00"> mLoadInfo</text>
</g>
<!-- Node13&#45;&gt;Node1 -->
<g id="edge22" class="edge">
<title>Node13&#45;&gt;Node1</title>
<path fill="none" stroke="#9a32cd" stroke-dasharray="5,2" d="M1077.19,-360.23C1109.1,-353.92 1151.53,-345.52 1181.74,-339.55"/>
<polygon fill="#9a32cd" stroke="#9a32cd" points="1076.37,-356.83 1067.24,-362.2 1077.72,-363.69 1076.37,-356.83"/>
<text text-anchor="middle" x="1127.5" y="-360.07" font-family="Helvetica,sans-Serif" font-size="10.00"> sConsole</text>
</g>
<!-- Node14 -->
<g id="node14" class="node">
<title>Node14</title>
<g id="a_node14"><a xlink:href="structJGadget_1_1TLinkListNode.html" target="_top" xlink:title=" ">
<polygon fill="white" stroke="black" points="751,-281.57 751,-300.57 873,-300.57 873,-281.57 751,-281.57"/>
<text text-anchor="middle" x="812" y="-288.57" font-family="Helvetica,sans-Serif" font-size="10.00">JGadget::TLinkListNode</text>
</a>
</g>
</g>
<!-- Node14&#45;&gt;Node13 -->
<g id="edge24" class="edge">
<title>Node14&#45;&gt;Node13</title>
<path fill="none" stroke="#9a32cd" stroke-dasharray="5,2" d="M849.32,-304.1C892.98,-319.76 965.19,-345.65 1003.95,-359.55"/>
<polygon fill="#9a32cd" stroke="#9a32cd" points="850.26,-300.72 839.67,-300.64 847.9,-307.31 850.26,-300.72"/>
<text text-anchor="middle" x="931.5" y="-348.07" font-family="Helvetica,sans-Serif" font-size="10.00"> mListNode</text>
</g>
<!-- Node14&#45;&gt;Node14 -->
<g id="edge25" class="edge">
<title>Node14&#45;&gt;Node14</title>
<path fill="none" stroke="#9a32cd" stroke-dasharray="5,2" d="M790.89,-310.47C792.3,-315.39 799.34,-319.07 812,-319.07 832.26,-319.07 838.12,-309.64 829.57,-300.83"/>
<polygon fill="#9a32cd" stroke="#9a32cd" points="794.27,-311.43 794.43,-300.83 787.7,-309.01 794.27,-311.43"/>
<text text-anchor="middle" x="812" y="-333.07" font-family="Helvetica,sans-Serif" font-size="10.00"> mNext</text>
<text text-anchor="middle" x="812" y="-322.07" font-family="Helvetica,sans-Serif" font-size="10.00">mPrev</text>
</g>
<!-- Node15 -->
<g id="node15" class="node">
<title>Node15</title>
<g id="a_node15"><a xlink:href="classJUTFont.html" target="_top" xlink:title=" ">
<polygon fill="white" stroke="black" points="784.5,-359.57 784.5,-378.57 839.5,-378.57 839.5,-359.57 784.5,-359.57"/>
<text text-anchor="middle" x="812" y="-366.57" font-family="Helvetica,sans-Serif" font-size="10.00">JUTFont</text>
</a>
</g>
</g>
<!-- Node15&#45;&gt;Node13 -->
<g id="edge26" class="edge">
<title>Node15&#45;&gt;Node13</title>
<path fill="none" stroke="#9a32cd" stroke-dasharray="5,2" d="M849.72,-369.07C890.47,-369.07 955.75,-369.07 995.71,-369.07"/>
<polygon fill="#9a32cd" stroke="#9a32cd" points="849.67,-365.57 839.67,-369.07 849.67,-372.57 849.67,-365.57"/>
<text text-anchor="middle" x="931.5" y="-372.07" font-family="Helvetica,sans-Serif" font-size="10.00"> mFont</text>
</g>
<!-- Node16 -->
<g id="node16" class="node">
<title>Node16</title>
<g id="a_node16"><a xlink:href="structJUtility_1_1TColor.html" target="_top" xlink:title=" ">
<polygon fill="white" stroke="black" points="527.5,-321.57 527.5,-340.57 607.5,-340.57 607.5,-321.57 527.5,-321.57"/>
<text text-anchor="middle" x="567.5" y="-328.57" font-family="Helvetica,sans-Serif" font-size="10.00">JUtility::TColor</text>
</a>
</g>
</g>
<!-- Node16&#45;&gt;Node13 -->
<g id="edge29" class="edge">
<title>Node16&#45;&gt;Node13</title>
<path fill="none" stroke="#9a32cd" stroke-dasharray="5,2" d="M584.17,-348.39C600.97,-365.55 629.39,-390.71 660,-401.07 782.91,-442.7 941.22,-399.23 1003.56,-378.64"/>
<polygon fill="#9a32cd" stroke="#9a32cd" points="586.32,-345.57 576.9,-340.71 581.24,-350.38 586.32,-345.57"/>
<text text-anchor="middle" x="812" y="-432.07" font-family="Helvetica,sans-Serif" font-size="10.00"> field_0x5c</text>
<text text-anchor="middle" x="812" y="-421.07" font-family="Helvetica,sans-Serif" font-size="10.00">field_0x60</text>
</g>
<!-- Node16&#45;&gt;Node15 -->
<g id="edge27" class="edge">
<title>Node16&#45;&gt;Node15</title>
<path fill="none" stroke="#9a32cd" stroke-dasharray="5,2" d="M617.73,-338.79C667.99,-346.67 744.16,-358.6 784.21,-364.88"/>
<polygon fill="#9a32cd" stroke="#9a32cd" points="618.15,-335.31 607.73,-337.22 617.07,-342.23 618.15,-335.31"/>
<text text-anchor="middle" x="696.5" y="-392.07" font-family="Helvetica,sans-Serif" font-size="10.00"> mColor1</text>
<text text-anchor="middle" x="696.5" y="-381.07" font-family="Helvetica,sans-Serif" font-size="10.00">mColor2</text>
<text text-anchor="middle" x="696.5" y="-370.07" font-family="Helvetica,sans-Serif" font-size="10.00">mColor3</text>
<text text-anchor="middle" x="696.5" y="-359.07" font-family="Helvetica,sans-Serif" font-size="10.00">mColor4</text>
</g>
<!-- Node20 -->
<g id="node20" class="node">
<title>Node20</title>
<g id="a_node20"><a xlink:href="classJUTDirectPrint.html" target="_top" xlink:title=" ">
<polygon fill="white" stroke="black" points="891,-255.57 891,-274.57 972,-274.57 972,-255.57 891,-255.57"/>
<text text-anchor="middle" x="931.5" y="-262.57" font-family="Helvetica,sans-Serif" font-size="10.00">JUTDirectPrint</text>
</a>
</g>
</g>
<!-- Node16&#45;&gt;Node20 -->
<g id="edge34" class="edge">
<title>Node16&#45;&gt;Node20</title>
<path fill="none" stroke="#9a32cd" stroke-dasharray="5,2" d="M600.49,-317.77C636.4,-303.53 696.76,-281.71 751,-272.07 798.59,-263.62 854.36,-262.84 890.95,-263.54"/>
<polygon fill="#9a32cd" stroke="#9a32cd" points="599.01,-314.59 591.03,-321.56 601.62,-321.09 599.01,-314.59"/>
<text text-anchor="middle" x="696.5" y="-298.07" font-family="Helvetica,sans-Serif" font-size="10.00"> mCharColor</text>
</g>
<!-- Node17 -->
<g id="node17" class="node">
<title>Node17</title>
<g id="a_node17"><a xlink:href="struct__GXColor.html" target="_top" xlink:title=" ">
<polygon fill="white" stroke="black" points="313,-321.57 313,-340.57 366,-340.57 366,-321.57 313,-321.57"/>
<text text-anchor="middle" x="339.5" y="-328.57" font-family="Helvetica,sans-Serif" font-size="10.00">GXColor</text>
</a>
</g>
</g>
<!-- Node17&#45;&gt;Node16 -->
<g id="edge28" class="edge">
<title>Node17&#45;&gt;Node16</title>
<path fill="none" stroke="midnightblue" d="M376.55,-331.07C417.72,-331.07 484.83,-331.07 527.28,-331.07"/>
<polygon fill="midnightblue" stroke="midnightblue" points="376.43,-327.57 366.43,-331.07 376.43,-334.57 376.43,-327.57"/>
</g>
<!-- Node18 -->
<g id="node18" class="node">
<title>Node18</title>
<g id="a_node18"><a xlink:href="classJUTExternalFB.html" target="_top" xlink:title=" ">
<polygon fill="white" stroke="black" points="990,-151.57 990,-170.57 1073,-170.57 1073,-151.57 990,-151.57"/>
<text text-anchor="middle" x="1031.5" y="-158.57" font-family="Helvetica,sans-Serif" font-size="10.00">JUTExternalFB</text>
</a>
</g>
</g>
<!-- Node18&#45;&gt;Node1 -->
<g id="edge30" class="edge">
<title>Node18&#45;&gt;Node1</title>
<path fill="none" stroke="#9a32cd" stroke-dasharray="5,2" d="M1083.11,-167.44C1109.92,-173.12 1141.8,-183.85 1164,-204.07 1200.53,-237.35 1214.08,-298.87 1218.08,-322.5"/>
<polygon fill="#9a32cd" stroke="#9a32cd" points="1083.59,-163.97 1073.11,-165.5 1082.26,-170.84 1083.59,-163.97"/>
<text text-anchor="middle" x="1127.5" y="-207.07" font-family="Helvetica,sans-Serif" font-size="10.00"> mFrameMemory</text>
</g>
<!-- Node19 -->
<g id="node19" class="node">
<title>Node19</title>
<g id="a_node19"><a xlink:href="struct__GXRenderModeObj.html" target="_top" xlink:title=" ">
<polygon fill="white" stroke="black" points="759,-126.57 759,-145.57 865,-145.57 865,-126.57 759,-126.57"/>
<text text-anchor="middle" x="812" y="-133.57" font-family="Helvetica,sans-Serif" font-size="10.00">_GXRenderModeObj</text>
</a>
</g>
</g>
<!-- Node19&#45;&gt;Node18 -->
<g id="edge31" class="edge">
<title>Node19&#45;&gt;Node18</title>
<path fill="none" stroke="#9a32cd" stroke-dasharray="5,2" d="M875.21,-143.23C911.98,-147.45 957.48,-152.68 989.7,-156.39"/>
<polygon fill="#9a32cd" stroke="#9a32cd" points="875.43,-139.73 865.1,-142.06 874.63,-146.68 875.43,-139.73"/>
<text text-anchor="middle" x="931.5" y="-156.07" font-family="Helvetica,sans-Serif" font-size="10.00"> mRenderMode</text>
</g>
<!-- Node20&#45;&gt;Node1 -->
<g id="edge32" class="edge">
<title>Node20&#45;&gt;Node1</title>
<path fill="none" stroke="#9a32cd" stroke-dasharray="5,2" d="M981.92,-276.61C1038.62,-289.85 1130.36,-311.27 1181.67,-323.24"/>
<polygon fill="#9a32cd" stroke="#9a32cd" points="982.64,-273.19 972.1,-274.32 981.05,-280 982.64,-273.19"/>
<text text-anchor="middle" x="1031.5" y="-300.07" font-family="Helvetica,sans-Serif" font-size="10.00"> mDirectPrint</text>
</g>
<!-- Node20&#45;&gt;Node20 -->
<g id="edge33" class="edge">
<title>Node20&#45;&gt;Node20</title>
<path fill="none" stroke="#9a32cd" stroke-dasharray="5,2" d="M912.98,-284.47C914.22,-289.39 920.39,-293.07 931.5,-293.07 949.27,-293.07 954.41,-283.64 946.91,-274.83"/>
<polygon fill="#9a32cd" stroke="#9a32cd" points="916.35,-285.42 916.09,-274.83 909.69,-283.28 916.35,-285.42"/>
<text text-anchor="middle" x="931.5" y="-296.07" font-family="Helvetica,sans-Serif" font-size="10.00"> sDirectPrint</text>
</g>
<!-- Node21&#45;&gt;Node1 -->
<g id="edge35" class="edge">
<title>Node21&#45;&gt;Node1</title>
<path fill="none" stroke="#9a32cd" stroke-dasharray="5,2" d="M858.16,-186.43C926.29,-205.86 1058.6,-246.69 1164,-298.07 1178.63,-305.21 1194.36,-315.07 1205.32,-322.34"/>
<polygon fill="#9a32cd" stroke="#9a32cd" points="858.76,-182.96 848.19,-183.61 856.86,-189.7 858.76,-182.96"/>
<text text-anchor="middle" x="1031.5" y="-260.07" font-family="Helvetica,sans-Serif" font-size="10.00"> mGamePad</text>
</g>
<!-- Node22 -->
<g id="node22" class="node">
<title>Node22</title>
<g id="a_node22"><a xlink:href="structJUTGamePad_1_1CButton.html" target="_top" xlink:title=" ">
<polygon fill="white" stroke="black" points="508,-4.57 508,-23.57 627,-23.57 627,-4.57 508,-4.57"/>
<text text-anchor="middle" x="567.5" y="-11.57" font-family="Helvetica,sans-Serif" font-size="10.00">JUTGamePad::CButton</text>
</a>
</g>
</g>
<!-- Node22&#45;&gt;Node21 -->
<g id="edge37" class="edge">
<title>Node22&#45;&gt;Node21</title>
<path fill="none" stroke="#9a32cd" stroke-dasharray="5,2" d="M617.11,-2.92C653.72,2.38 702.62,2.37 733,-26.07 775.26,-65.64 713.65,-110.85 751,-155.07 756.5,-161.59 764.22,-165.89 772.29,-168.73"/>
<polygon fill="#9a32cd" stroke="#9a32cd" points="616.45,0.52 607.14,-4.54 617.57,-6.39 616.45,0.52"/>
<text text-anchor="middle" x="696.5" y="-40.07" font-family="Helvetica,sans-Serif" font-size="10.00"> mButton</text>
<text text-anchor="middle" x="696.5" y="-29.07" font-family="Helvetica,sans-Serif" font-size="10.00">mPadButton</text>
</g>
<!-- Node23 -->
<g id="node23" class="node">
<title>Node23</title>
<g id="a_node23"><a xlink:href="structJUTGamePad_1_1CStick.html" target="_top" xlink:title=" ">
<polygon fill="white" stroke="black" points="511,-201.57 511,-220.57 624,-220.57 624,-201.57 511,-201.57"/>
<text text-anchor="middle" x="567.5" y="-208.57" font-family="Helvetica,sans-Serif" font-size="10.00">JUTGamePad::CStick</text>
</a>
</g>
</g>
<!-- Node23&#45;&gt;Node21 -->
<g id="edge38" class="edge">
<title>Node23&#45;&gt;Node21</title>
<path fill="none" stroke="#9a32cd" stroke-dasharray="5,2" d="M634.06,-201.14C664.2,-196.56 700.42,-191.06 733,-186.07 745.73,-184.13 759.63,-181.99 772.12,-180.07"/>
<polygon fill="#9a32cd" stroke="#9a32cd" points="633.45,-197.69 624.09,-202.65 634.5,-204.61 633.45,-197.69"/>
<text text-anchor="middle" x="696.5" y="-233.07" font-family="Helvetica,sans-Serif" font-size="10.00"> mMainStick</text>
<text text-anchor="middle" x="696.5" y="-222.07" font-family="Helvetica,sans-Serif" font-size="10.00">mPadMStick</text>
<text text-anchor="middle" x="696.5" y="-211.07" font-family="Helvetica,sans-Serif" font-size="10.00">mPadSStick</text>
<text text-anchor="middle" x="696.5" y="-200.07" font-family="Helvetica,sans-Serif" font-size="10.00">mSubStick</text>
</g>
<!-- Node24 -->
<g id="node24" class="node">
<title>Node24</title>
<g id="a_node24"><a xlink:href="structJUTGamePad_1_1CRumble.html" target="_top" xlink:title=" ">
<polygon fill="white" stroke="black" points="506,-163.57 506,-182.57 629,-182.57 629,-163.57 506,-163.57"/>
<text text-anchor="middle" x="567.5" y="-170.57" font-family="Helvetica,sans-Serif" font-size="10.00">JUTGamePad::CRumble</text>
</a>
</g>
</g>
<!-- Node24&#45;&gt;Node21 -->
<g id="edge39" class="edge">
<title>Node24&#45;&gt;Node21</title>
<path fill="none" stroke="#9a32cd" stroke-dasharray="5,2" d="M639.3,-173.37C682.73,-173.55 736.67,-173.77 772.37,-173.92"/>
<polygon fill="#9a32cd" stroke="#9a32cd" points="639.08,-169.87 629.07,-173.32 639.05,-176.87 639.08,-169.87"/>
<text text-anchor="middle" x="696.5" y="-176.07" font-family="Helvetica,sans-Serif" font-size="10.00"> mRumble</text>
</g>
<!-- Node25 -->
<g id="node25" class="node">
<title>Node25</title>
<g id="a_node25"><a xlink:href="structJUTGamePadRecordBase.html" target="_top" xlink:title=" ">
<polygon fill="white" stroke="black" points="501.5,-123.57 501.5,-142.57 633.5,-142.57 633.5,-123.57 501.5,-123.57"/>
<text text-anchor="middle" x="567.5" y="-130.57" font-family="Helvetica,sans-Serif" font-size="10.00">JUTGamePadRecordBase</text>
</a>
</g>
</g>
<!-- Node25&#45;&gt;Node21 -->
<g id="edge40" class="edge">
<title>Node25&#45;&gt;Node21</title>
<path fill="none" stroke="#9a32cd" stroke-dasharray="5,2" d="M644.01,-134.23C672.28,-136.03 704.44,-139.74 733,-147.07 741.48,-149.25 742.81,-151.97 751,-155.07 759.89,-158.45 769.67,-161.72 778.7,-164.57"/>
<polygon fill="#9a32cd" stroke="#9a32cd" points="643.97,-130.72 633.79,-133.65 643.57,-137.71 643.97,-130.72"/>
<text text-anchor="middle" x="696.5" y="-161.07" font-family="Helvetica,sans-Serif" font-size="10.00"> mPadRecord</text>
<text text-anchor="middle" x="696.5" y="-150.07" font-family="Helvetica,sans-Serif" font-size="10.00">mPadReplay</text>
</g>
<!-- Node26 -->
<g id="node26" class="node">
<title>Node26</title>
<g id="a_node26"><a xlink:href="structJUTGamePad_1_1C3ButtonReset.html" target="_top" xlink:title=" ">
<polygon fill="white" stroke="black" points="493,-85.57 493,-104.57 642,-104.57 642,-85.57 493,-85.57"/>
<text text-anchor="middle" x="567.5" y="-92.57" font-family="Helvetica,sans-Serif" font-size="10.00">JUTGamePad::C3ButtonReset</text>
</a>
</g>
</g>
<!-- Node26&#45;&gt;Node21 -->
<g id="edge41" class="edge">
<title>Node26&#45;&gt;Node21</title>
<path fill="none" stroke="#9a32cd" stroke-dasharray="5,2" d="M652.52,-92.97C680.27,-95.95 709.92,-103.48 733,-120.07 747.2,-130.29 737.64,-143.79 751,-155.07 757.09,-160.22 764.59,-163.98 772.2,-166.72"/>
<polygon fill="#9a32cd" stroke="#9a32cd" points="652.67,-89.47 642.4,-92.07 652.05,-96.44 652.67,-89.47"/>
<text text-anchor="middle" x="696.5" y="-123.07" font-family="Helvetica,sans-Serif" font-size="10.00"> mButtonReset</text>
</g>
<!-- Node27 -->
<g id="node27" class="node">
<title>Node27</title>
<g id="a_node27"><a xlink:href="structPADStatus.html" target="_top" xlink:title=" ">
<polygon fill="white" stroke="black" points="535,-47.57 535,-66.57 600,-66.57 600,-47.57 535,-47.57"/>
<text text-anchor="middle" x="567.5" y="-54.57" font-family="Helvetica,sans-Serif" font-size="10.00">PADStatus</text>
</a>
</g>
</g>
<!-- Node27&#45;&gt;Node21 -->
<g id="edge42" class="edge">
<title>Node27&#45;&gt;Node21</title>
<path fill="none" stroke="#9a32cd" stroke-dasharray="5,2" d="M610.51,-50.89C647.39,-47.97 700.16,-50.26 733,-80.07 758.38,-103.12 727.64,-129.99 751,-155.07 756.73,-161.23 764.45,-165.4 772.43,-168.23"/>
<polygon fill="#9a32cd" stroke="#9a32cd" points="609.7,-47.45 600.08,-51.89 610.37,-54.42 609.7,-47.45"/>
<text text-anchor="middle" x="696.5" y="-83.07" font-family="Helvetica,sans-Serif" font-size="10.00"> mPadStatus</text>
</g>
</g>
</svg>
        <g id="navigator" transform="translate(0 0)" fill="#404254">
                <rect fill="#f2f5e9" fill-opacity="0.5" stroke="#606060" stroke-width=".5" x="0" y="0" width="60" height="60"/>
                <use id="zoomplus" xlink:href="#zoomPlus" x="17" y="9" onmousedown="handleZoom(evt,'in')"/>
                <use id="zoomminus" xlink:href="#zoomMin" x="42" y="9" onmousedown="handleZoom(evt,'out')"/>
                <use id="reset" xlink:href="#resetDef" x="30" y="36" onmousedown="handleReset()"/>
                <g id="arrowUp" xlink:href="#dirArrow" transform="translate(30 24)" onmousedown="handlePan(0,-1)">
                  <use xlink:href="#rim" fill="#404040">
                        <set attributeName="fill" to="#808080" begin="arrowUp.mouseover" end="arrowUp.mouseout"/>
                  </use>
                  <path fill="none" stroke="white" stroke-width="1.5" d="M0,-3.0v7 M-2.5,-0.5L0,-3.0L2.5,-0.5"/>
                </g>
                <g id="arrowRight" xlink:href="#dirArrow" transform="rotate(90) translate(36 -43)" onmousedown="handlePan(1,0)">
                  <use xlink:href="#rim" fill="#404040">
                        <set attributeName="fill" to="#808080" begin="arrowRight.mouseover" end="arrowRight.mouseout"/>
                  </use>
                  <path fill="none" stroke="white" stroke-width="1.5" d="M0,-3.0v7 M-2.5,-0.5L0,-3.0L2.5,-0.5"/>
                </g>
                <g id="arrowDown" xlink:href="#dirArrow" transform="rotate(180) translate(-30 -48)" onmousedown="handlePan(0,1)">
                  <use xlink:href="#rim" fill="#404040">
                        <set attributeName="fill" to="#808080" begin="arrowDown.mouseover" end="arrowDown.mouseout"/>
                  </use>
                  <path fill="none" stroke="white" stroke-width="1.5" d="M0,-3.0v7 M-2.5,-0.5L0,-3.0L2.5,-0.5"/>
                </g>
                <g id="arrowLeft" xlink:href="#dirArrow" transform="rotate(270) translate(-36 17)" onmousedown="handlePan(-1,0)">
                  <use xlink:href="#rim" fill="#404040">
                        <set attributeName="fill" to="#808080" begin="arrowLeft.mouseover" end="arrowLeft.mouseout"/>
                  </use>
                  <path fill="none" stroke="white" stroke-width="1.5" d="M0,-3.0v7 M-2.5,-0.5L0,-3.0L2.5,-0.5"/>
                </g>
        </g>
        <svg viewBox="0 0 15 15" width="100%" height="30px" preserveAspectRatio="xMaxYMin meet">
         <g id="arrow_out" transform="scale(0.3 0.3)">
          <a xlink:href="classJUTException__coll__graph_org.svg" target="_base">
           <rect id="button" ry="5" rx="5" y="6" x="6" height="38" width="38"
                fill="#f2f5e9" fill-opacity="0.5" stroke="#606060" stroke-width="1.0"/>
           <path id="arrow"
             d="M 11.500037,31.436501 C 11.940474,20.09759 22.043105,11.32322 32.158766,21.979434 L 37.068811,17.246167 C 37.068811,17.246167 37.088388,32 37.088388,32 L 22.160133,31.978069 C 22.160133,31.978069 26.997745,27.140456 26.997745,27.140456 C 18.528582,18.264221 13.291696,25.230495 11.500037,31.436501 z"
             style="fill:#404040;"/>
          </a>
         </g>
        </svg>
</svg>
