<?xml version="1.0" encoding="UTF-8" standalone="no"?>
<!DOCTYPE svg PUBLIC "-//W3C//DTD SVG 1.1//EN"
 "http://www.w3.org/Graphics/SVG/1.1/DTD/svg11.dtd">
<!-- Generated by graphviz version 3.0.0 (20220413.0242)
 -->
<!-- Title: dStage_roomDt_c Pages: 1 -->
<!--zoomable 816 -->
<svg id="main" version="1.1" xmlns="http://www.w3.org/2000/svg" xmlns:xlink="http://www.w3.org/1999/xlink" xml:space="preserve" onload="init(evt)">
<style type="text/css"><![CDATA[
.edge:hover path { stroke: red; }
.edge:hover polygon { stroke: red; fill: red; }
]]></style>
<script type="text/javascript"><![CDATA[
var edges = document.getElementsByTagName('g');
if (edges && edges.length) {
  for (var i=0;i<edges.length;i++) {
    if (edges[i].id.substr(0,4)=='edge') {
      edges[i].setAttribute('class','edge');
    }
  }
}
]]></script>
        <defs>
                <circle id="rim" cx="0" cy="0" r="7"/>
                <circle id="rim2" cx="0" cy="0" r="3.5"/>
                <g id="zoomPlus">
                        <use xlink:href="#rim" fill="#404040">
                                <set attributeName="fill" to="#808080" begin="zoomplus.mouseover" end="zoomplus.mouseout"/>
                        </use>
                        <path d="M-4,0h8M0,-4v8" fill="none" stroke="white" stroke-width="1.5" pointer-events="none"/>
                </g>
                <g id="zoomMin">
                        <use xlink:href="#rim" fill="#404040">
                                <set attributeName="fill" to="#808080" begin="zoomminus.mouseover" end="zoomminus.mouseout"/>
                        </use>
                        <path d="M-4,0h8" fill="none" stroke="white" stroke-width="1.5" pointer-events="none"/>
                </g>
                <g id="dirArrow">
                        <path fill="none" stroke="white" stroke-width="1.5" d="M0,-3.0v7 M-2.5,-0.5L0,-3.0L2.5,-0.5"/>
                </g>
               <g id="resetDef">
                       <use xlink:href="#rim2" fill="#404040">
                               <set attributeName="fill" to="#808080" begin="reset.mouseover" end="reset.mouseout"/>
                       </use>
               </g>
        </defs>

<script type="text/javascript">
var viewWidth = 1133;
var viewHeight = 816;
var sectionId = 'dynsection-1';
</script>
<script xlink:href="svgpan.js"/>
<svg id="graph" class="graph">
<g id="viewport">
<title>dStage_roomDt_c</title>
<polygon fill="white" stroke="transparent" points="-4,4 -4,-812.21 1129,-812.21 1129,4 -4,4"/>
<!-- Node1 -->
<g id="node1" class="node">
<title>Node1</title>
<g id="a_node1"><a xlink:title=" ">
<polygon fill="#bfbfbf" stroke="black" points="1030,-376.71 1030,-395.71 1125,-395.71 1125,-376.71 1030,-376.71"/>
<text text-anchor="middle" x="1077.5" y="-383.71" font-family="Helvetica,sans-Serif" font-size="10.00">dStage_roomDt_c</text>
</a>
</g>
</g>
<!-- Node2 -->
<g id="node2" class="node">
<title>Node2</title>
<g id="a_node2"><a xlink:href="structdStage__dt__c.html" target="_top" xlink:title=" ">
<polygon fill="white" stroke="black" points="826,-788.71 826,-807.71 897,-807.71 897,-788.71 826,-788.71"/>
<text text-anchor="middle" x="861.5" y="-795.71" font-family="Helvetica,sans-Serif" font-size="10.00">dStage_dt_c</text>
</a>
</g>
</g>
<!-- Node2&#45;&gt;Node1 -->
<g id="edge1" class="edge">
<title>Node2&#45;&gt;Node1</title>
<path fill="none" stroke="midnightblue" d="M907.11,-801.06C940.67,-800.62 985.29,-794.09 1012,-766.21 1065.12,-710.77 1074.84,-449.33 1076.28,-395.8"/>
<polygon fill="midnightblue" stroke="midnightblue" points="907.1,-797.56 897.09,-801.02 907.07,-804.56 907.1,-797.56"/>
</g>
<!-- Node3 -->
<g id="node3" class="node">
<title>Node3</title>
<g id="a_node3"><a xlink:href="structstage__pure__lightvec__info__class.html" target="_top" xlink:title=" ">
<polygon fill="white" stroke="black" points="809.5,-739.21 809.5,-769.21 913.5,-769.21 913.5,-739.21 809.5,-739.21"/>
<text text-anchor="start" x="817.5" y="-757.21" font-family="Helvetica,sans-Serif" font-size="10.00">stage_pure_lightvec</text>
<text text-anchor="middle" x="861.5" y="-746.21" font-family="Helvetica,sans-Serif" font-size="10.00">_info_class</text>
</a>
</g>
</g>
<!-- Node3&#45;&gt;Node1 -->
<g id="edge2" class="edge">
<title>Node3&#45;&gt;Node1</title>
<path fill="none" stroke="#9a32cd" stroke-dasharray="5,2" d="M923.83,-754.76C954.33,-751.72 989.42,-742.68 1012,-719.21 1058.44,-670.94 1073.28,-445.48 1076.01,-395.88"/>
<polygon fill="#9a32cd" stroke="#9a32cd" points="923.37,-751.28 913.68,-755.57 923.93,-758.26 923.37,-751.28"/>
<text text-anchor="middle" x="976.5" y="-754.21" font-family="Helvetica,sans-Serif" font-size="10.00"> mLightVecInfo</text>
</g>
<!-- Node4 -->
<g id="node4" class="node">
<title>Node4</title>
<g id="a_node4"><a xlink:href="structstage__map__info__class.html" target="_top" xlink:title=" ">
<polygon fill="white" stroke="black" points="551,-670.71 551,-689.71 665,-689.71 665,-670.71 551,-670.71"/>
<text text-anchor="middle" x="608" y="-677.71" font-family="Helvetica,sans-Serif" font-size="10.00">stage_map_info_class</text>
</a>
</g>
</g>
<!-- Node4&#45;&gt;Node1 -->
<g id="edge3" class="edge">
<title>Node4&#45;&gt;Node1</title>
<path fill="none" stroke="#9a32cd" stroke-dasharray="5,2" d="M675.28,-675.5C783.14,-667.26 987.17,-648.99 1012,-627.21 1048.23,-595.44 1070.2,-436.84 1075.34,-395.88"/>
<polygon fill="#9a32cd" stroke="#9a32cd" points="674.86,-672.03 665.15,-676.27 675.39,-679.01 674.86,-672.03"/>
<text text-anchor="middle" x="861.5" y="-667.21" font-family="Helvetica,sans-Serif" font-size="10.00"> mMapInfo</text>
</g>
<!-- Node5 -->
<g id="node5" class="node">
<title>Node5</title>
<g id="a_node5"><a xlink:href="structstage__map__info__dummy__class.html" target="_top" xlink:title=" ">
<polygon fill="white" stroke="black" points="800.5,-690.21 800.5,-720.21 922.5,-720.21 922.5,-690.21 800.5,-690.21"/>
<text text-anchor="start" x="808.5" y="-708.21" font-family="Helvetica,sans-Serif" font-size="10.00">stage_map_info_dummy</text>
<text text-anchor="middle" x="861.5" y="-697.21" font-family="Helvetica,sans-Serif" font-size="10.00">_class</text>
</a>
</g>
</g>
<!-- Node4&#45;&gt;Node5 -->
<g id="edge5" class="edge">
<title>Node4&#45;&gt;Node5</title>
<path fill="none" stroke="#9a32cd" stroke-dasharray="5,2" d="M675.26,-686.8C713.99,-690.65 762.49,-695.47 800.15,-699.21"/>
<polygon fill="#9a32cd" stroke="#9a32cd" points="675.43,-683.3 665.13,-685.79 674.73,-690.26 675.43,-683.3"/>
<text text-anchor="middle" x="734" y="-699.21" font-family="Helvetica,sans-Serif" font-size="10.00"> mData</text>
</g>
<!-- Node5&#45;&gt;Node1 -->
<g id="edge4" class="edge">
<title>Node5&#45;&gt;Node1</title>
<path fill="none" stroke="#9a32cd" stroke-dasharray="5,2" d="M932.98,-706.38C960.95,-703.19 991.31,-694.58 1012,-674.21 1053.17,-633.69 1071.86,-441.09 1075.72,-395.77"/>
<polygon fill="#9a32cd" stroke="#9a32cd" points="932.45,-702.92 922.81,-707.32 933.09,-709.89 932.45,-702.92"/>
<text text-anchor="middle" x="976.5" y="-707.21" font-family="Helvetica,sans-Serif" font-size="10.00"> mMapInfoBase</text>
</g>
<!-- Node6 -->
<g id="node6" class="node">
<title>Node6</title>
<g id="a_node6"><a xlink:href="structstage__vrbox__info__class.html" target="_top" xlink:title=" ">
<polygon fill="white" stroke="black" points="802,-604.71 802,-623.71 921,-623.71 921,-604.71 802,-604.71"/>
<text text-anchor="middle" x="861.5" y="-611.71" font-family="Helvetica,sans-Serif" font-size="10.00">stage_vrbox_info_class</text>
</a>
</g>
</g>
<!-- Node6&#45;&gt;Node1 -->
<g id="edge6" class="edge">
<title>Node6&#45;&gt;Node1</title>
<path fill="none" stroke="#9a32cd" stroke-dasharray="5,2" d="M931.39,-613.94C959.38,-610.44 990.19,-601.8 1012,-582.21 1069.3,-530.74 1075.85,-427.48 1076.48,-395.72"/>
<polygon fill="#9a32cd" stroke="#9a32cd" points="930.8,-610.48 921.22,-615 931.53,-617.44 930.8,-610.48"/>
<text text-anchor="middle" x="976.5" y="-615.21" font-family="Helvetica,sans-Serif" font-size="10.00"> mVrboxInfo</text>
</g>
<!-- Node7 -->
<g id="node7" class="node">
<title>Node7</title>
<g id="a_node7"><a xlink:href="structstage__vrboxcol__info__class.html" target="_top" xlink:title=" ">
<polygon fill="white" stroke="black" points="810,-555.21 810,-585.21 913,-585.21 913,-555.21 810,-555.21"/>
<text text-anchor="start" x="818" y="-573.21" font-family="Helvetica,sans-Serif" font-size="10.00">stage_vrboxcol_info</text>
<text text-anchor="middle" x="861.5" y="-562.21" font-family="Helvetica,sans-Serif" font-size="10.00">_class</text>
</a>
</g>
</g>
<!-- Node7&#45;&gt;Node1 -->
<g id="edge7" class="edge">
<title>Node7&#45;&gt;Node1</title>
<path fill="none" stroke="#9a32cd" stroke-dasharray="5,2" d="M923.54,-570.35C953.12,-567.47 987.46,-559.39 1012,-539.21 1058.54,-500.95 1072.08,-423.18 1075.48,-395.92"/>
<polygon fill="#9a32cd" stroke="#9a32cd" points="923,-566.89 913.3,-571.17 923.55,-573.86 923,-566.89"/>
<text text-anchor="middle" x="976.5" y="-570.21" font-family="Helvetica,sans-Serif" font-size="10.00"> mVrboxcolInfo</text>
</g>
<!-- Node8 -->
<g id="node8" class="node">
<title>Node8</title>
<g id="a_node8"><a xlink:href="classdStage__FileList2__dt__c.html" target="_top" xlink:title=" ">
<polygon fill="white" stroke="black" points="804.5,-516.71 804.5,-535.71 918.5,-535.71 918.5,-516.71 804.5,-516.71"/>
<text text-anchor="middle" x="861.5" y="-523.71" font-family="Helvetica,sans-Serif" font-size="10.00">dStage_FileList2_dt_c</text>
</a>
</g>
</g>
<!-- Node8&#45;&gt;Node1 -->
<g id="edge8" class="edge">
<title>Node8&#45;&gt;Node1</title>
<path fill="none" stroke="#9a32cd" stroke-dasharray="5,2" d="M928.81,-526.88C956.63,-524.23 988.03,-517.11 1012,-500.21 1049.54,-473.74 1068,-418.07 1074.11,-395.76"/>
<polygon fill="#9a32cd" stroke="#9a32cd" points="928.43,-523.39 918.73,-527.66 928.98,-530.37 928.43,-523.39"/>
<text text-anchor="middle" x="976.5" y="-527.21" font-family="Helvetica,sans-Serif" font-size="10.00"> mFileList2Info</text>
</g>
<!-- Node9 -->
<g id="node9" class="node">
<title>Node9</title>
<g id="a_node9"><a xlink:href="classdStage__FileList__dt__c.html" target="_top" xlink:title=" ">
<polygon fill="white" stroke="black" points="807,-478.71 807,-497.71 916,-497.71 916,-478.71 807,-478.71"/>
<text text-anchor="middle" x="861.5" y="-485.71" font-family="Helvetica,sans-Serif" font-size="10.00">dStage_FileList_dt_c</text>
</a>
</g>
</g>
<!-- Node9&#45;&gt;Node1 -->
<g id="edge9" class="edge">
<title>Node9&#45;&gt;Node1</title>
<path fill="none" stroke="#9a32cd" stroke-dasharray="5,2" d="M926.09,-487.35C953.97,-484.59 986.16,-477.99 1012,-463.21 1040.61,-446.85 1062.13,-412.68 1071.44,-395.91"/>
<polygon fill="#9a32cd" stroke="#9a32cd" points="925.7,-483.87 916.03,-488.21 926.29,-490.85 925.7,-483.87"/>
<text text-anchor="middle" x="976.5" y="-488.21" font-family="Helvetica,sans-Serif" font-size="10.00"> mFileListInfo</text>
</g>
<!-- Node10 -->
<g id="node10" class="node">
<title>Node10</title>
<g id="a_node10"><a xlink:href="classstage__actor__class.html" target="_top" xlink:title=" ">
<polygon fill="white" stroke="black" points="686,-420.71 686,-439.71 782,-439.71 782,-420.71 686,-420.71"/>
<text text-anchor="middle" x="734" y="-427.71" font-family="Helvetica,sans-Serif" font-size="10.00">stage_actor_class</text>
</a>
</g>
</g>
<!-- Node10&#45;&gt;Node1 -->
<g id="edge10" class="edge">
<title>Node10&#45;&gt;Node1</title>
<path fill="none" stroke="#9a32cd" stroke-dasharray="5,2" d="M792.55,-432.15C849.23,-432.69 937.85,-429.86 1012,-411.21 1027.02,-407.43 1043.29,-401.11 1055.72,-395.77"/>
<polygon fill="#9a32cd" stroke="#9a32cd" points="792.4,-428.65 782.35,-432.01 792.31,-435.65 792.4,-428.65"/>
<text text-anchor="middle" x="861.5" y="-434.21" font-family="Helvetica,sans-Serif" font-size="10.00"> mPlayer</text>
</g>
<!-- Node11 -->
<g id="node11" class="node">
<title>Node11</title>
<g id="a_node11"><a xlink:href="classstage__actor__data__class.html" target="_top" xlink:title=" ">
<polygon fill="white" stroke="black" points="351,-247.71 351,-266.71 471,-266.71 471,-247.71 351,-247.71"/>
<text text-anchor="middle" x="411" y="-254.71" font-family="Helvetica,sans-Serif" font-size="10.00">stage_actor_data_class</text>
</a>
</g>
</g>
<!-- Node11&#45;&gt;Node10 -->
<g id="edge11" class="edge">
<title>Node11&#45;&gt;Node10</title>
<path fill="none" stroke="#9a32cd" stroke-dasharray="5,2" d="M431.64,-273.18C457.29,-293.53 504.13,-328.99 548,-353.21 601.14,-382.56 667.79,-407.67 704.85,-420.69"/>
<polygon fill="#9a32cd" stroke="#9a32cd" points="433.78,-270.41 423.78,-266.89 429.4,-275.87 433.78,-270.41"/>
<text text-anchor="middle" x="509.5" y="-344.21" font-family="Helvetica,sans-Serif" font-size="10.00"> mEntries</text>
</g>
<!-- Node29 -->
<g id="node29" class="node">
<title>Node29</title>
<g id="a_node29"><a xlink:href="structstage__tgsc__data__class.html" target="_top" xlink:title=" ">
<polygon fill="white" stroke="black" points="549.5,-274.71 549.5,-293.71 666.5,-293.71 666.5,-274.71 549.5,-274.71"/>
<text text-anchor="middle" x="608" y="-281.71" font-family="Helvetica,sans-Serif" font-size="10.00">stage_tgsc_data_class</text>
</a>
</g>
</g>
<!-- Node11&#45;&gt;Node29 -->
<g id="edge35" class="edge">
<title>Node11&#45;&gt;Node29</title>
<path fill="none" stroke="midnightblue" d="M481.1,-266.78C503.37,-269.86 527.8,-273.24 549.17,-276.2"/>
<polygon fill="midnightblue" stroke="midnightblue" points="481.42,-263.29 471.04,-265.38 480.46,-270.22 481.42,-263.29"/>
</g>
<!-- Node12 -->
<g id="node12" class="node">
<title>Node12</title>
<g id="a_node12"><a xlink:href="structcXyz.html" target="_top" xlink:title=" ">
<polygon fill="white" stroke="black" points="148,-99.71 148,-118.71 186,-118.71 186,-99.71 148,-99.71"/>
<text text-anchor="middle" x="167" y="-106.71" font-family="Helvetica,sans-Serif" font-size="10.00">cXyz</text>
</a>
</g>
</g>
<!-- Node12&#45;&gt;Node11 -->
<g id="edge12" class="edge">
<title>Node12&#45;&gt;Node11</title>
<path fill="none" stroke="#9a32cd" stroke-dasharray="5,2" d="M195.97,-116.15C239.97,-127.22 321.58,-148.42 333,-156.21 368.89,-180.68 395.14,-227.3 405.33,-247.49"/>
<polygon fill="#9a32cd" stroke="#9a32cd" points="196.71,-112.73 186.16,-113.69 195.01,-119.52 196.71,-112.73"/>
<text text-anchor="middle" x="281" y="-159.21" font-family="Helvetica,sans-Serif" font-size="10.00"> mSpawnPos</text>
</g>
<!-- Node12&#45;&gt;Node12 -->
<g id="edge14" class="edge">
<title>Node12&#45;&gt;Node12</title>
<path fill="none" stroke="#9a32cd" stroke-dasharray="5,2" d="M151.53,-128.98C152.75,-133.71 157.9,-137.21 167,-137.21 181.93,-137.21 186.25,-127.78 179.95,-118.97"/>
<polygon fill="#9a32cd" stroke="#9a32cd" points="155,-129.52 154.05,-118.97 148.22,-127.81 155,-129.52"/>
<text text-anchor="middle" x="167" y="-217.21" font-family="Helvetica,sans-Serif" font-size="10.00"> BaseX</text>
<text text-anchor="middle" x="167" y="-206.21" font-family="Helvetica,sans-Serif" font-size="10.00">BaseXY</text>
<text text-anchor="middle" x="167" y="-195.21" font-family="Helvetica,sans-Serif" font-size="10.00">BaseXYZ</text>
<text text-anchor="middle" x="167" y="-184.21" font-family="Helvetica,sans-Serif" font-size="10.00">BaseXZ</text>
<text text-anchor="middle" x="167" y="-173.21" font-family="Helvetica,sans-Serif" font-size="10.00">BaseY</text>
<text text-anchor="middle" x="167" y="-162.21" font-family="Helvetica,sans-Serif" font-size="10.00">BaseYZ</text>
<text text-anchor="middle" x="167" y="-151.21" font-family="Helvetica,sans-Serif" font-size="10.00">BaseZ</text>
<text text-anchor="middle" x="167" y="-140.21" font-family="Helvetica,sans-Serif" font-size="10.00">Zero</text>
</g>
<!-- Node20 -->
<g id="node20" class="node">
<title>Node20</title>
<g id="a_node20"><a xlink:href="structstage__arrow__class.html" target="_top" xlink:title=" ">
<polygon fill="white" stroke="black" points="362,-99.71 362,-118.71 460,-118.71 460,-99.71 362,-99.71"/>
<text text-anchor="middle" x="411" y="-106.71" font-family="Helvetica,sans-Serif" font-size="10.00">stage_arrow_class</text>
</a>
</g>
</g>
<!-- Node12&#45;&gt;Node20 -->
<g id="edge23" class="edge">
<title>Node12&#45;&gt;Node20</title>
<path fill="none" stroke="#9a32cd" stroke-dasharray="5,2" d="M196.2,-109.21C236.84,-109.21 312.4,-109.21 361.94,-109.21"/>
<polygon fill="#9a32cd" stroke="#9a32cd" points="196.19,-105.71 186.19,-109.21 196.19,-112.71 196.19,-105.71"/>
<text text-anchor="middle" x="281" y="-112.21" font-family="Helvetica,sans-Serif" font-size="10.00"> mPosition</text>
</g>
<!-- Node13 -->
<g id="node13" class="node">
<title>Node13</title>
<g id="a_node13"><a xlink:href="structVec.html" target="_top" xlink:title=" ">
<polygon fill="white" stroke="black" points="3.5,-77.71 3.5,-96.71 37.5,-96.71 37.5,-77.71 3.5,-77.71"/>
<text text-anchor="middle" x="20.5" y="-84.71" font-family="Helvetica,sans-Serif" font-size="10.00">Vec</text>
</a>
</g>
</g>
<!-- Node13&#45;&gt;Node12 -->
<g id="edge13" class="edge">
<title>Node13&#45;&gt;Node12</title>
<path fill="none" stroke="midnightblue" d="M47.69,-91.2C76.58,-95.6 122.34,-102.56 147.64,-106.42"/>
<polygon fill="midnightblue" stroke="midnightblue" points="47.93,-87.69 37.52,-89.65 46.88,-94.61 47.93,-87.69"/>
</g>
<!-- Node27 -->
<g id="node27" class="node">
<title>Node27</title>
<g id="a_node27"><a xlink:href="classstage__tresure__class.html" target="_top" xlink:title=" ">
<polygon fill="white" stroke="black" points="229,-41.71 229,-60.71 333,-60.71 333,-41.71 229,-41.71"/>
<text text-anchor="middle" x="281" y="-48.71" font-family="Helvetica,sans-Serif" font-size="10.00">stage_tresure_class</text>
</a>
</g>
</g>
<!-- Node13&#45;&gt;Node27 -->
<g id="edge32" class="edge">
<title>Node13&#45;&gt;Node27</title>
<path fill="none" stroke="#9a32cd" stroke-dasharray="5,2" d="M47.58,-80.55C51.4,-79.69 55.29,-78.88 59,-78.21 116.82,-67.78 183.89,-60.21 228.84,-55.79"/>
<polygon fill="#9a32cd" stroke="#9a32cd" points="46.76,-77.14 37.84,-82.86 48.38,-83.96 46.76,-77.14"/>
<text text-anchor="middle" x="82" y="-81.21" font-family="Helvetica,sans-Serif" font-size="10.00"> mPosition</text>
</g>
<!-- Node14 -->
<g id="node14" class="node">
<title>Node14</title>
<g id="a_node14"><a xlink:href="structcsXyz.html" target="_top" xlink:title=" ">
<polygon fill="white" stroke="black" points="145.5,-246.71 145.5,-265.71 188.5,-265.71 188.5,-246.71 145.5,-246.71"/>
<text text-anchor="middle" x="167" y="-253.71" font-family="Helvetica,sans-Serif" font-size="10.00">csXyz</text>
</a>
</g>
</g>
<!-- Node14&#45;&gt;Node11 -->
<g id="edge15" class="edge">
<title>Node14&#45;&gt;Node11</title>
<path fill="none" stroke="#9a32cd" stroke-dasharray="5,2" d="M199.1,-256.34C237.31,-256.5 302.95,-256.77 350.87,-256.97"/>
<polygon fill="#9a32cd" stroke="#9a32cd" points="198.65,-252.84 188.63,-256.3 198.62,-259.84 198.65,-252.84"/>
<text text-anchor="middle" x="281" y="-259.21" font-family="Helvetica,sans-Serif" font-size="10.00"> mAngle</text>
</g>
<!-- Node14&#45;&gt;Node14 -->
<g id="edge17" class="edge">
<title>Node14&#45;&gt;Node14</title>
<path fill="none" stroke="#9a32cd" stroke-dasharray="5,2" d="M151.53,-275.98C152.75,-280.71 157.9,-284.21 167,-284.21 181.93,-284.21 186.25,-274.78 179.95,-265.97"/>
<polygon fill="#9a32cd" stroke="#9a32cd" points="155,-276.52 154.05,-265.97 148.22,-274.81 155,-276.52"/>
<text text-anchor="middle" x="167" y="-287.21" font-family="Helvetica,sans-Serif" font-size="10.00"> Zero</text>
</g>
<!-- Node14&#45;&gt;Node20 -->
<g id="edge24" class="edge">
<title>Node14&#45;&gt;Node20</title>
<path fill="none" stroke="#9a32cd" stroke-dasharray="5,2" d="M196.09,-241.86C201.06,-239.31 206.18,-236.69 211,-234.21 265.27,-206.31 281.86,-204.52 333,-171.21 358.31,-154.73 385.21,-131.6 399.56,-118.76"/>
<polygon fill="#9a32cd" stroke="#9a32cd" points="194.15,-238.92 186.85,-246.59 197.34,-245.15 194.15,-238.92"/>
<text text-anchor="middle" x="281" y="-227.21" font-family="Helvetica,sans-Serif" font-size="10.00"> mAngle</text>
</g>
<!-- Node15 -->
<g id="node15" class="node">
<title>Node15</title>
<g id="a_node15"><a xlink:href="structSVec.html" target="_top" xlink:title=" ">
<polygon fill="white" stroke="black" points="0,-246.71 0,-265.71 41,-265.71 41,-246.71 0,-246.71"/>
<text text-anchor="middle" x="20.5" y="-253.71" font-family="Helvetica,sans-Serif" font-size="10.00">SVec</text>
</a>
</g>
</g>
<!-- Node15&#45;&gt;Node14 -->
<g id="edge16" class="edge">
<title>Node15&#45;&gt;Node14</title>
<path fill="none" stroke="midnightblue" d="M51.3,-256.21C79.27,-256.21 120.39,-256.21 145.05,-256.21"/>
<polygon fill="midnightblue" stroke="midnightblue" points="51.29,-252.71 41.29,-256.21 51.29,-259.71 51.29,-252.71"/>
</g>
<!-- Node16 -->
<g id="node16" class="node">
<title>Node16</title>
<g id="a_node16"><a xlink:href="structdStage__dPnt__c.html" target="_top" xlink:title=" ">
<polygon fill="white" stroke="black" points="820,-393.71 820,-412.71 903,-412.71 903,-393.71 820,-393.71"/>
<text text-anchor="middle" x="861.5" y="-400.71" font-family="Helvetica,sans-Serif" font-size="10.00">dStage_dPnt_c</text>
</a>
</g>
</g>
<!-- Node16&#45;&gt;Node1 -->
<g id="edge18" class="edge">
<title>Node16&#45;&gt;Node1</title>
<path fill="none" stroke="#9a32cd" stroke-dasharray="5,2" d="M913.12,-399.19C948.49,-396.38 995.37,-392.66 1029.83,-389.92"/>
<polygon fill="#9a32cd" stroke="#9a32cd" points="912.69,-395.71 903,-399.99 913.25,-402.69 912.69,-395.71"/>
<text text-anchor="middle" x="976.5" y="-399.21" font-family="Helvetica,sans-Serif" font-size="10.00"> mPnt2Info</text>
</g>
<!-- Node17 -->
<g id="node17" class="node">
<title>Node17</title>
<g id="a_node17"><a xlink:href="structdStage__dPath__c.html" target="_top" xlink:title=" ">
<polygon fill="white" stroke="black" points="817,-355.71 817,-374.71 906,-374.71 906,-355.71 817,-355.71"/>
<text text-anchor="middle" x="861.5" y="-362.71" font-family="Helvetica,sans-Serif" font-size="10.00">dStage_dPath_c</text>
</a>
</g>
</g>
<!-- Node17&#45;&gt;Node1 -->
<g id="edge19" class="edge">
<title>Node17&#45;&gt;Node1</title>
<path fill="none" stroke="#9a32cd" stroke-dasharray="5,2" d="M916.25,-368.12C944.75,-369.92 980.34,-372.6 1012,-376.21 1017.74,-376.87 1023.76,-377.66 1029.71,-378.5"/>
<polygon fill="#9a32cd" stroke="#9a32cd" points="916.29,-364.61 906.09,-367.49 915.86,-371.6 916.29,-364.61"/>
<text text-anchor="middle" x="976.5" y="-379.21" font-family="Helvetica,sans-Serif" font-size="10.00"> mPath2Info</text>
</g>
<!-- Node18 -->
<g id="node18" class="node">
<title>Node18</title>
<g id="a_node18"><a xlink:href="structstage__camera__class.html" target="_top" xlink:title=" ">
<polygon fill="white" stroke="black" points="808,-317.71 808,-336.71 915,-336.71 915,-317.71 808,-317.71"/>
<text text-anchor="middle" x="861.5" y="-324.71" font-family="Helvetica,sans-Serif" font-size="10.00">stage_camera_class</text>
</a>
</g>
</g>
<!-- Node18&#45;&gt;Node1 -->
<g id="edge20" class="edge">
<title>Node18&#45;&gt;Node1</title>
<path fill="none" stroke="#9a32cd" stroke-dasharray="5,2" d="M925.42,-334.55C952.5,-338.73 984.25,-345.03 1012,-354.21 1029.21,-359.91 1047.61,-369.42 1060.34,-376.59"/>
<polygon fill="#9a32cd" stroke="#9a32cd" points="925.7,-331.05 915.29,-333.05 924.67,-337.98 925.7,-331.05"/>
<text text-anchor="middle" x="976.5" y="-357.21" font-family="Helvetica,sans-Serif" font-size="10.00"> mCamera</text>
</g>
<!-- Node19 -->
<g id="node19" class="node">
<title>Node19</title>
<g id="a_node19"><a xlink:href="structstage__camera2__data__class.html" target="_top" xlink:title=" ">
<polygon fill="white" stroke="black" points="554.5,-313.21 554.5,-343.21 661.5,-343.21 661.5,-313.21 554.5,-313.21"/>
<text text-anchor="start" x="562.5" y="-331.21" font-family="Helvetica,sans-Serif" font-size="10.00">stage_camera2_data</text>
<text text-anchor="middle" x="608" y="-320.21" font-family="Helvetica,sans-Serif" font-size="10.00">_class</text>
</a>
</g>
</g>
<!-- Node19&#45;&gt;Node18 -->
<g id="edge21" class="edge">
<title>Node19&#45;&gt;Node18</title>
<path fill="none" stroke="#9a32cd" stroke-dasharray="5,2" d="M671.82,-327.96C713.73,-327.79 768.21,-327.58 807.85,-327.42"/>
<polygon fill="#9a32cd" stroke="#9a32cd" points="671.71,-324.46 661.72,-328 671.74,-331.46 671.71,-324.46"/>
<text text-anchor="middle" x="734" y="-330.21" font-family="Helvetica,sans-Serif" font-size="10.00"> field_0x4</text>
</g>
<!-- Node20&#45;&gt;Node1 -->
<g id="edge22" class="edge">
<title>Node20&#45;&gt;Node1</title>
<path fill="none" stroke="#9a32cd" stroke-dasharray="5,2" d="M470.33,-100.71C605.22,-82.44 933.19,-46.51 1012,-116.21 1052.52,-152.05 1071.58,-332.67 1075.65,-376.58"/>
<polygon fill="#9a32cd" stroke="#9a32cd" points="469.62,-97.27 460.19,-102.1 470.57,-104.21 469.62,-97.27"/>
<text text-anchor="middle" x="734" y="-82.21" font-family="Helvetica,sans-Serif" font-size="10.00"> mArrow</text>
</g>
<!-- Node21 -->
<g id="node21" class="node">
<title>Node21</title>
<g id="a_node21"><a xlink:href="structdStage__MapEventInfo__c.html" target="_top" xlink:title=" ">
<polygon fill="white" stroke="black" points="800,-241.71 800,-260.71 923,-260.71 923,-241.71 800,-241.71"/>
<text text-anchor="middle" x="861.5" y="-248.71" font-family="Helvetica,sans-Serif" font-size="10.00">dStage_MapEventInfo_c</text>
</a>
</g>
</g>
<!-- Node21&#45;&gt;Node1 -->
<g id="edge25" class="edge">
<title>Node21&#45;&gt;Node1</title>
<path fill="none" stroke="#9a32cd" stroke-dasharray="5,2" d="M933.37,-250.1C959.97,-252.73 989.23,-259.57 1012,-275.21 1048.93,-300.57 1067.63,-354.54 1073.96,-376.55"/>
<polygon fill="#9a32cd" stroke="#9a32cd" points="933.58,-246.6 923.33,-249.28 933.02,-253.58 933.58,-246.6"/>
<text text-anchor="middle" x="976.5" y="-278.21" font-family="Helvetica,sans-Serif" font-size="10.00"> mMapEventInfo</text>
</g>
<!-- Node22 -->
<g id="node22" class="node">
<title>Node22</title>
<g id="a_node22"><a xlink:href="structdStage__MapEvent__dt__c.html" target="_top" xlink:title=" ">
<polygon fill="white" stroke="black" points="548,-236.71 548,-255.71 668,-255.71 668,-236.71 548,-236.71"/>
<text text-anchor="middle" x="608" y="-243.71" font-family="Helvetica,sans-Serif" font-size="10.00">dStage_MapEvent_dt_c</text>
</a>
</g>
</g>
<!-- Node22&#45;&gt;Node21 -->
<g id="edge26" class="edge">
<title>Node22&#45;&gt;Node21</title>
<path fill="none" stroke="#9a32cd" stroke-dasharray="5,2" d="M678.76,-247.6C716.78,-248.35 763.38,-249.28 799.87,-250.01"/>
<polygon fill="#9a32cd" stroke="#9a32cd" points="678.35,-244.09 668.28,-247.39 678.21,-251.09 678.35,-244.09"/>
<text text-anchor="middle" x="734" y="-252.21" font-family="Helvetica,sans-Serif" font-size="10.00"> mData</text>
</g>
<!-- Node23 -->
<g id="node23" class="node">
<title>Node23</title>
<g id="a_node23"><a xlink:href="structdStage__SoundInfo__c.html" target="_top" xlink:title=" ">
<polygon fill="white" stroke="black" points="808,-203.71 808,-222.71 915,-222.71 915,-203.71 808,-203.71"/>
<text text-anchor="middle" x="861.5" y="-210.71" font-family="Helvetica,sans-Serif" font-size="10.00">dStage_SoundInfo_c</text>
</a>
</g>
</g>
<!-- Node23&#45;&gt;Node1 -->
<g id="edge27" class="edge">
<title>Node23&#45;&gt;Node1</title>
<path fill="none" stroke="#9a32cd" stroke-dasharray="5,2" d="M925.36,-203.99C954.29,-203.1 987.53,-207.18 1012,-225.21 1063.15,-262.89 1073.8,-347.83 1075.96,-376.53"/>
<polygon fill="#9a32cd" stroke="#9a32cd" points="925.15,-200.5 915.34,-204.5 925.5,-207.49 925.15,-200.5"/>
<text text-anchor="middle" x="976.5" y="-239.21" font-family="Helvetica,sans-Serif" font-size="10.00"> mSoundInf</text>
<text text-anchor="middle" x="976.5" y="-228.21" font-family="Helvetica,sans-Serif" font-size="10.00">mSoundInfCL</text>
</g>
<!-- Node24 -->
<g id="node24" class="node">
<title>Node24</title>
<g id="a_node24"><a xlink:href="structstage__scls__info__dummy__class.html" target="_top" xlink:title=" ">
<polygon fill="white" stroke="black" points="800.5,-154.21 800.5,-184.21 922.5,-184.21 922.5,-154.21 800.5,-154.21"/>
<text text-anchor="start" x="808.5" y="-172.21" font-family="Helvetica,sans-Serif" font-size="10.00">stage_scls_info_dummy</text>
<text text-anchor="middle" x="861.5" y="-161.21" font-family="Helvetica,sans-Serif" font-size="10.00">_class</text>
</a>
</g>
</g>
<!-- Node24&#45;&gt;Node1 -->
<g id="edge28" class="edge">
<title>Node24&#45;&gt;Node1</title>
<path fill="none" stroke="#9a32cd" stroke-dasharray="5,2" d="M933,-162.87C960.36,-164.03 990.28,-170.24 1012,-188.21 1071.89,-237.76 1076.68,-343.74 1076.68,-376.41"/>
<polygon fill="#9a32cd" stroke="#9a32cd" points="932.73,-159.36 922.66,-162.65 932.58,-166.36 932.73,-159.36"/>
<text text-anchor="middle" x="976.5" y="-191.21" font-family="Helvetica,sans-Serif" font-size="10.00"> mSclsInfo</text>
</g>
<!-- Node25 -->
<g id="node25" class="node">
<title>Node25</title>
<g id="a_node25"><a xlink:href="structstage__scls__info__class.html" target="_top" xlink:title=" ">
<polygon fill="white" stroke="black" points="551.5,-159.71 551.5,-178.71 664.5,-178.71 664.5,-159.71 551.5,-159.71"/>
<text text-anchor="middle" x="608" y="-166.71" font-family="Helvetica,sans-Serif" font-size="10.00">stage_scls_info_class</text>
</a>
</g>
</g>
<!-- Node25&#45;&gt;Node24 -->
<g id="edge29" class="edge">
<title>Node25&#45;&gt;Node24</title>
<path fill="none" stroke="#9a32cd" stroke-dasharray="5,2" d="M674.67,-169.21C713.54,-169.21 762.43,-169.21 800.3,-169.21"/>
<polygon fill="#9a32cd" stroke="#9a32cd" points="674.5,-165.71 664.5,-169.21 674.5,-172.71 674.5,-165.71"/>
<text text-anchor="middle" x="734" y="-172.21" font-family="Helvetica,sans-Serif" font-size="10.00"> mEntries</text>
</g>
<!-- Node26 -->
<g id="node26" class="node">
<title>Node26</title>
<g id="a_node26"><a xlink:href="structdStage__Lbnk__c.html" target="_top" xlink:title=" ">
<polygon fill="white" stroke="black" points="819,-115.71 819,-134.71 904,-134.71 904,-115.71 819,-115.71"/>
<text text-anchor="middle" x="861.5" y="-122.71" font-family="Helvetica,sans-Serif" font-size="10.00">dStage_Lbnk_c</text>
</a>
</g>
</g>
<!-- Node26&#45;&gt;Node1 -->
<g id="edge30" class="edge">
<title>Node26&#45;&gt;Node1</title>
<path fill="none" stroke="#9a32cd" stroke-dasharray="5,2" d="M914.12,-119.92C946.03,-119.56 985.76,-124.76 1012,-148.21 1047.51,-179.95 1070.02,-336.3 1075.3,-376.68"/>
<polygon fill="#9a32cd" stroke="#9a32cd" points="913.96,-116.43 904.07,-120.22 914.16,-123.43 913.96,-116.43"/>
<text text-anchor="middle" x="976.5" y="-151.21" font-family="Helvetica,sans-Serif" font-size="10.00"> mLbnk</text>
</g>
<!-- Node27&#45;&gt;Node1 -->
<g id="edge31" class="edge">
<title>Node27&#45;&gt;Node1</title>
<path fill="none" stroke="#9a32cd" stroke-dasharray="5,2" d="M343.29,-50.38C388.86,-49.83 452.56,-49.21 508.5,-49.21 508.5,-49.21 508.5,-49.21 862.5,-49.21 930.74,-49.21 964.22,-35.49 1012,-84.21 1054.42,-127.47 1072.21,-329.71 1075.8,-376.52"/>
<polygon fill="#9a32cd" stroke="#9a32cd" points="343.23,-46.88 333.27,-50.5 343.32,-53.88 343.23,-46.88"/>
<text text-anchor="middle" x="608" y="-52.21" font-family="Helvetica,sans-Serif" font-size="10.00"> mTreasure</text>
</g>
<!-- Node28 -->
<g id="node28" class="node">
<title>Node28</title>
<g id="a_node28"><a xlink:href="classstage__tgsc__class.html" target="_top" xlink:title=" ">
<polygon fill="white" stroke="black" points="815,-279.71 815,-298.71 908,-298.71 908,-279.71 815,-279.71"/>
<text text-anchor="middle" x="861.5" y="-286.71" font-family="Helvetica,sans-Serif" font-size="10.00">stage_tgsc_class</text>
</a>
</g>
</g>
<!-- Node28&#45;&gt;Node1 -->
<g id="edge33" class="edge">
<title>Node28&#45;&gt;Node1</title>
<path fill="none" stroke="#9a32cd" stroke-dasharray="5,2" d="M918.42,-288.23C947.86,-289.92 983.63,-295.59 1012,-311.21 1040.43,-326.87 1062.04,-360.28 1071.4,-376.71"/>
<polygon fill="#9a32cd" stroke="#9a32cd" points="918.44,-284.73 908.29,-287.79 918.13,-291.72 918.44,-284.73"/>
<text text-anchor="middle" x="976.5" y="-325.21" font-family="Helvetica,sans-Serif" font-size="10.00"> mDoor</text>
<text text-anchor="middle" x="976.5" y="-314.21" font-family="Helvetica,sans-Serif" font-size="10.00">mDrTg</text>
</g>
<!-- Node29&#45;&gt;Node28 -->
<g id="edge34" class="edge">
<title>Node29&#45;&gt;Node28</title>
<path fill="none" stroke="#9a32cd" stroke-dasharray="5,2" d="M676.97,-285.56C720.68,-286.43 776.3,-287.54 814.8,-288.3"/>
<polygon fill="#9a32cd" stroke="#9a32cd" points="676.77,-282.06 666.7,-285.36 676.63,-289.06 676.77,-282.06"/>
<text text-anchor="middle" x="734" y="-290.21" font-family="Helvetica,sans-Serif" font-size="10.00"> mData</text>
</g>
<!-- Node30 -->
<g id="node30" class="node">
<title>Node30</title>
<g id="a_node30"><a xlink:href="structdStage__FloorInfo__c.html" target="_top" xlink:title=" ">
<polygon fill="white" stroke="black" points="811,-1.71 811,-20.71 912,-20.71 912,-1.71 811,-1.71"/>
<text text-anchor="middle" x="861.5" y="-8.71" font-family="Helvetica,sans-Serif" font-size="10.00">dStage_FloorInfo_c</text>
</a>
</g>
</g>
<!-- Node30&#45;&gt;Node1 -->
<g id="edge36" class="edge">
<title>Node30&#45;&gt;Node1</title>
<path fill="none" stroke="#9a32cd" stroke-dasharray="5,2" d="M920.09,-0.74C951.04,1.45 987.73,-2.02 1012,-24.21 1065.95,-73.53 1074.99,-324.28 1076.3,-376.63"/>
<polygon fill="#9a32cd" stroke="#9a32cd" points="919.48,2.72 909.84,-1.68 920.11,-4.25 919.48,2.72"/>
<text text-anchor="middle" x="976.5" y="-27.21" font-family="Helvetica,sans-Serif" font-size="10.00"> mFloorInfo</text>
</g>
</g>
</svg>
        <g id="navigator" transform="translate(0 0)" fill="#404254">
                <rect fill="#f2f5e9" fill-opacity="0.5" stroke="#606060" stroke-width=".5" x="0" y="0" width="60" height="60"/>
                <use id="zoomplus" xlink:href="#zoomPlus" x="17" y="9" onmousedown="handleZoom(evt,'in')"/>
                <use id="zoomminus" xlink:href="#zoomMin" x="42" y="9" onmousedown="handleZoom(evt,'out')"/>
                <use id="reset" xlink:href="#resetDef" x="30" y="36" onmousedown="handleReset()"/>
                <g id="arrowUp" xlink:href="#dirArrow" transform="translate(30 24)" onmousedown="handlePan(0,-1)">
                  <use xlink:href="#rim" fill="#404040">
                        <set attributeName="fill" to="#808080" begin="arrowUp.mouseover" end="arrowUp.mouseout"/>
                  </use>
                  <path fill="none" stroke="white" stroke-width="1.5" d="M0,-3.0v7 M-2.5,-0.5L0,-3.0L2.5,-0.5"/>
                </g>
                <g id="arrowRight" xlink:href="#dirArrow" transform="rotate(90) translate(36 -43)" onmousedown="handlePan(1,0)">
                  <use xlink:href="#rim" fill="#404040">
                        <set attributeName="fill" to="#808080" begin="arrowRight.mouseover" end="arrowRight.mouseout"/>
                  </use>
                  <path fill="none" stroke="white" stroke-width="1.5" d="M0,-3.0v7 M-2.5,-0.5L0,-3.0L2.5,-0.5"/>
                </g>
                <g id="arrowDown" xlink:href="#dirArrow" transform="rotate(180) translate(-30 -48)" onmousedown="handlePan(0,1)">
                  <use xlink:href="#rim" fill="#404040">
                        <set attributeName="fill" to="#808080" begin="arrowDown.mouseover" end="arrowDown.mouseout"/>
                  </use>
                  <path fill="none" stroke="white" stroke-width="1.5" d="M0,-3.0v7 M-2.5,-0.5L0,-3.0L2.5,-0.5"/>
                </g>
                <g id="arrowLeft" xlink:href="#dirArrow" transform="rotate(270) translate(-36 17)" onmousedown="handlePan(-1,0)">
                  <use xlink:href="#rim" fill="#404040">
                        <set attributeName="fill" to="#808080" begin="arrowLeft.mouseover" end="arrowLeft.mouseout"/>
                  </use>
                  <path fill="none" stroke="white" stroke-width="1.5" d="M0,-3.0v7 M-2.5,-0.5L0,-3.0L2.5,-0.5"/>
                </g>
        </g>
        <svg viewBox="0 0 15 15" width="100%" height="30px" preserveAspectRatio="xMaxYMin meet">
         <g id="arrow_out" transform="scale(0.3 0.3)">
          <a xlink:href="classdStage__roomDt__c__coll__graph_org.svg" target="_base">
           <rect id="button" ry="5" rx="5" y="6" x="6" height="38" width="38"
                fill="#f2f5e9" fill-opacity="0.5" stroke="#606060" stroke-width="1.0"/>
           <path id="arrow"
             d="M 11.500037,31.436501 C 11.940474,20.09759 22.043105,11.32322 32.158766,21.979434 L 37.068811,17.246167 C 37.068811,17.246167 37.088388,32 37.088388,32 L 22.160133,31.978069 C 22.160133,31.978069 26.997745,27.140456 26.997745,27.140456 C 18.528582,18.264221 13.291696,25.230495 11.500037,31.436501 z"
             style="fill:#404040;"/>
          </a>
         </g>
        </svg>
</svg>
