<?xml version="1.0" encoding="UTF-8" standalone="no"?>
<!DOCTYPE svg PUBLIC "-//W3C//DTD SVG 1.1//EN"
 "http://www.w3.org/Graphics/SVG/1.1/DTD/svg11.dtd">
<!-- Generated by graphviz version 3.0.0 (20220413.0242)
 -->
<!-- Title: dKankyo_housi_Packet Pages: 1 -->
<svg width="328pt" height="322pt"
 viewBox="0.00 0.00 327.50 322.00" xmlns="http://www.w3.org/2000/svg" xmlns:xlink="http://www.w3.org/1999/xlink">
<g id="graph0" class="graph" transform="scale(1 1) rotate(0) translate(4 318)">
<title>dKankyo_housi_Packet</title>
<polygon fill="white" stroke="transparent" points="-4,4 -4,-318 323.5,-318 323.5,4 -4,4"/>
<!-- Node1 -->
<g id="node1" class="node">
<title>Node1</title>
<g id="a_node1"><a xlink:title=" ">
<polygon fill="#bfbfbf" stroke="black" points="124,-0.5 124,-19.5 243,-19.5 243,-0.5 124,-0.5"/>
<text text-anchor="middle" x="183.5" y="-7.5" font-family="Helvetica,sans-Serif" font-size="10.00">dKankyo_housi_Packet</text>
</a>
</g>
</g>
<!-- Node2 -->
<g id="node2" class="node">
<title>Node2</title>
<g id="a_node2"><a xlink:href="classJ3DPacket.html" target="_top" xlink:title=" ">
<polygon fill="white" stroke="black" points="0,-68.5 0,-87.5 65,-87.5 65,-68.5 0,-68.5"/>
<text text-anchor="middle" x="32.5" y="-75.5" font-family="Helvetica,sans-Serif" font-size="10.00">J3DPacket</text>
</a>
</g>
</g>
<!-- Node2&#45;&gt;Node1 -->
<g id="edge1" class="edge">
<title>Node2&#45;&gt;Node1</title>
<path fill="none" stroke="midnightblue" d="M61.77,-64.21C91.82,-51.07 137.75,-31 163.75,-19.63"/>
<polygon fill="midnightblue" stroke="midnightblue" points="60,-61.16 52.24,-68.37 62.81,-67.57 60,-61.16"/>
</g>
<!-- Node2&#45;&gt;Node2 -->
<g id="edge2" class="edge">
<title>Node2&#45;&gt;Node2</title>
<path fill="none" stroke="#9a32cd" stroke-dasharray="5,2" d="M75.14,-83.38C79.91,-82.37 83,-80.57 83,-78 83,-73.88 75.1,-71.76 65.04,-71.63"/>
<polygon fill="#9a32cd" stroke="#9a32cd" points="74.66,-79.91 65.04,-84.37 75.34,-86.88 74.66,-79.91"/>
<text text-anchor="middle" x="115" y="-81" font-family="Helvetica,sans-Serif" font-size="10.00"> mpFirstChild</text>
<text text-anchor="middle" x="115" y="-70" font-family="Helvetica,sans-Serif" font-size="10.00">mpNextSibling</text>
</g>
<!-- Node3 -->
<g id="node3" class="node">
<title>Node3</title>
<g id="a_node3"><a xlink:href="structcXyz.html" target="_top" xlink:title=" ">
<polygon fill="white" stroke="black" points="180.5,-203.5 180.5,-222.5 218.5,-222.5 218.5,-203.5 180.5,-203.5"/>
<text text-anchor="middle" x="199.5" y="-210.5" font-family="Helvetica,sans-Serif" font-size="10.00">cXyz</text>
</a>
</g>
</g>
<!-- Node3&#45;&gt;Node1 -->
<g id="edge3" class="edge">
<title>Node3&#45;&gt;Node1</title>
<path fill="none" stroke="#9a32cd" stroke-dasharray="5,2" d="M198.02,-193.38C194.67,-151.33 186.63,-50.28 184.2,-19.83"/>
<polygon fill="#9a32cd" stroke="#9a32cd" points="194.53,-193.67 198.81,-203.36 201.51,-193.12 194.53,-193.67"/>
<text text-anchor="middle" x="212.5" y="-75.5" font-family="Helvetica,sans-Serif" font-size="10.00"> field_0x10</text>
</g>
<!-- Node3&#45;&gt;Node3 -->
<g id="edge5" class="edge">
<title>Node3&#45;&gt;Node3</title>
<path fill="none" stroke="#9a32cd" stroke-dasharray="5,2" d="M222.37,-224.62C230.2,-224.71 236.5,-220.83 236.5,-213 236.5,-201.98 224.03,-198.8 212.39,-203.44"/>
<polygon fill="#9a32cd" stroke="#9a32cd" points="222.9,-221.16 212.39,-222.56 221.48,-228.01 222.9,-221.16"/>
<text text-anchor="middle" x="258" y="-249" font-family="Helvetica,sans-Serif" font-size="10.00"> BaseX</text>
<text text-anchor="middle" x="258" y="-238" font-family="Helvetica,sans-Serif" font-size="10.00">BaseXY</text>
<text text-anchor="middle" x="258" y="-227" font-family="Helvetica,sans-Serif" font-size="10.00">BaseXYZ</text>
<text text-anchor="middle" x="258" y="-216" font-family="Helvetica,sans-Serif" font-size="10.00">BaseXZ</text>
<text text-anchor="middle" x="258" y="-205" font-family="Helvetica,sans-Serif" font-size="10.00">BaseY</text>
<text text-anchor="middle" x="258" y="-194" font-family="Helvetica,sans-Serif" font-size="10.00">BaseYZ</text>
<text text-anchor="middle" x="258" y="-183" font-family="Helvetica,sans-Serif" font-size="10.00">BaseZ</text>
<text text-anchor="middle" x="258" y="-172" font-family="Helvetica,sans-Serif" font-size="10.00">Zero</text>
</g>
<!-- Node5 -->
<g id="node5" class="node">
<title>Node5</title>
<g id="a_node5"><a xlink:href="structHOUSI__EFF.html" target="_top" xlink:title=" ">
<polygon fill="white" stroke="black" points="247.5,-68.5 247.5,-87.5 319.5,-87.5 319.5,-68.5 247.5,-68.5"/>
<text text-anchor="middle" x="283.5" y="-75.5" font-family="Helvetica,sans-Serif" font-size="10.00">HOUSI_EFF</text>
</a>
</g>
</g>
<!-- Node3&#45;&gt;Node5 -->
<g id="edge7" class="edge">
<title>Node3&#45;&gt;Node5</title>
<path fill="none" stroke="#9a32cd" stroke-dasharray="5,2" d="M210.45,-194.66C228.65,-165.85 264.47,-109.14 278.08,-87.59"/>
<polygon fill="#9a32cd" stroke="#9a32cd" points="207.39,-192.95 205.01,-203.27 213.31,-196.69 207.39,-192.95"/>
<text text-anchor="middle" x="290" y="-143" font-family="Helvetica,sans-Serif" font-size="10.00"> mBasePos</text>
<text text-anchor="middle" x="290" y="-132" font-family="Helvetica,sans-Serif" font-size="10.00">mPosition</text>
<text text-anchor="middle" x="290" y="-121" font-family="Helvetica,sans-Serif" font-size="10.00">mScale</text>
<text text-anchor="middle" x="290" y="-110" font-family="Helvetica,sans-Serif" font-size="10.00">mSpeed</text>
</g>
<!-- Node4 -->
<g id="node4" class="node">
<title>Node4</title>
<g id="a_node4"><a xlink:href="structVec.html" target="_top" xlink:title=" ">
<polygon fill="white" stroke="black" points="182.5,-294.5 182.5,-313.5 216.5,-313.5 216.5,-294.5 182.5,-294.5"/>
<text text-anchor="middle" x="199.5" y="-301.5" font-family="Helvetica,sans-Serif" font-size="10.00">Vec</text>
</a>
</g>
</g>
<!-- Node4&#45;&gt;Node3 -->
<g id="edge4" class="edge">
<title>Node4&#45;&gt;Node3</title>
<path fill="none" stroke="midnightblue" d="M199.5,-284.35C199.5,-265.38 199.5,-236.83 199.5,-222.64"/>
<polygon fill="midnightblue" stroke="midnightblue" points="196,-284.47 199.5,-294.47 203,-284.47 196,-284.47"/>
</g>
<!-- Node5&#45;&gt;Node1 -->
<g id="edge6" class="edge">
<title>Node5&#45;&gt;Node1</title>
<path fill="none" stroke="#9a32cd" stroke-dasharray="5,2" d="M262,-62.81C242.12,-49.69 213.2,-30.6 196.58,-19.63"/>
<polygon fill="#9a32cd" stroke="#9a32cd" points="260.15,-65.78 270.43,-68.37 264.01,-59.94 260.15,-65.78"/>
<text text-anchor="middle" x="262.5" y="-41" font-family="Helvetica,sans-Serif" font-size="10.00"> mHousiEff</text>
</g>
</g>
</svg>
