<?xml version="1.0" encoding="UTF-8" standalone="no"?>
<!DOCTYPE svg PUBLIC "-//W3C//DTD SVG 1.1//EN"
 "http://www.w3.org/Graphics/SVG/1.1/DTD/svg11.dtd">
<!-- Generated by graphviz version 2.49.3 (20211027.1534)
 -->
<!-- Title: JStudio::stb::TObject_control Pages: 1 -->
<svg width="560pt" height="175pt"
 viewBox="0.00 0.00 559.50 175.00" xmlns="http://www.w3.org/2000/svg" xmlns:xlink="http://www.w3.org/1999/xlink">
<g id="graph0" class="graph" transform="scale(1 1) rotate(0) translate(4 171)">
<title>JStudio::stb::TObject_control</title>
<polygon fill="white" stroke="transparent" points="-4,4 -4,-171 555.5,-171 555.5,4 -4,4"/>
<!-- Node1 -->
<g id="node1" class="node">
<title>Node1</title>
<g id="a_node1"><a xlink:title=" ">
<polygon fill="#bfbfbf" stroke="black" points="0,-136.5 0,-166.5 107,-166.5 107,-136.5 0,-136.5"/>
<text text-anchor="start" x="8" y="-154.5" font-family="Helvetica,sans-Serif" font-size="10.00">JStudio::stb::TObject</text>
<text text-anchor="middle" x="53.5" y="-143.5" font-family="Helvetica,sans-Serif" font-size="10.00">_control</text>
</a>
</g>
</g>
<!-- Node6 -->
<g id="node6" class="node">
<title>Node6</title>
<g id="a_node6"><a xlink:href="classJStudio_1_1stb_1_1TControl.html" target="_top" xlink:title=" ">
<polygon fill="white" stroke="black" points="101,-68.5 101,-87.5 210,-87.5 210,-68.5 101,-68.5"/>
<text text-anchor="middle" x="155.5" y="-75.5" font-family="Helvetica,sans-Serif" font-size="10.00">JStudio::stb::TControl</text>
</a>
</g>
</g>
<!-- Node1&#45;&gt;Node6 -->
<g id="edge8" class="edge">
<title>Node1&#45;&gt;Node6</title>
<path fill="none" stroke="#9a32cd" stroke-dasharray="5,2" d="M67.62,-128C73.12,-120.57 79.93,-112.75 87.5,-107 98.79,-98.43 113.07,-92.03 125.63,-87.53"/>
<polygon fill="#9a32cd" stroke="#9a32cd" points="64.62,-126.18 61.79,-136.39 70.37,-130.17 64.62,-126.18"/>
<text text-anchor="middle" x="124.5" y="-110" font-family="Helvetica,sans-Serif" font-size="10.00"> mObject_control</text>
</g>
<!-- Node2 -->
<g id="node2" class="node">
<title>Node2</title>
<g id="a_node2"><a xlink:href="classJStudio_1_1stb_1_1TObject.html" target="_top" xlink:title=" ">
<polygon fill="white" stroke="black" points="150,-0.5 150,-19.5 257,-19.5 257,-0.5 150,-0.5"/>
<text text-anchor="middle" x="203.5" y="-7.5" font-family="Helvetica,sans-Serif" font-size="10.00">JStudio::stb::TObject</text>
</a>
</g>
</g>
<!-- Node2&#45;&gt;Node1 -->
<g id="edge1" class="edge">
<title>Node2&#45;&gt;Node1</title>
<path fill="none" stroke="midnightblue" d="M165.11,-22.94C141.44,-31.91 111.83,-46.26 91.5,-67 72.1,-86.79 61.52,-118.25 56.73,-136.38"/>
<polygon fill="midnightblue" stroke="midnightblue" points="166.31,-26.23 174.52,-19.53 163.92,-19.65 166.31,-26.23"/>
</g>
<!-- Node3 -->
<g id="node3" class="node">
<title>Node3</title>
<g id="a_node3"><a xlink:href="structJStudio_1_1object_1_1TObject__ID.html" target="_top" xlink:title=" ">
<polygon fill="white" stroke="black" points="228.5,-68.5 228.5,-87.5 362.5,-87.5 362.5,-68.5 228.5,-68.5"/>
<text text-anchor="middle" x="295.5" y="-75.5" font-family="Helvetica,sans-Serif" font-size="10.00">JStudio::object::TObject_ID</text>
</a>
</g>
</g>
<!-- Node3&#45;&gt;Node2 -->
<g id="edge2" class="edge">
<title>Node3&#45;&gt;Node2</title>
<path fill="none" stroke="midnightblue" d="M275.23,-62.46C256.95,-49.34 230.68,-30.5 215.53,-19.63"/>
<polygon fill="midnightblue" stroke="midnightblue" points="273.31,-65.39 283.47,-68.37 277.39,-59.7 273.31,-65.39"/>
</g>
<!-- Node4 -->
<g id="node4" class="node">
<title>Node4</title>
<g id="a_node4"><a xlink:href="structJStudio_1_1object_1_1TIDData.html" target="_top" xlink:title=" ">
<polygon fill="white" stroke="black" points="255,-142 255,-161 376,-161 376,-142 255,-142"/>
<text text-anchor="middle" x="315.5" y="-149" font-family="Helvetica,sans-Serif" font-size="10.00">JStudio::object::TIDData</text>
</a>
</g>
</g>
<!-- Node4&#45;&gt;Node3 -->
<g id="edge3" class="edge">
<title>Node4&#45;&gt;Node3</title>
<path fill="none" stroke="midnightblue" d="M310.33,-132.01C306.35,-117.8 301.04,-98.81 297.97,-87.84"/>
<polygon fill="midnightblue" stroke="midnightblue" points="306.98,-133.05 313.05,-141.73 313.72,-131.16 306.98,-133.05"/>
</g>
<!-- Node5 -->
<g id="node5" class="node">
<title>Node5</title>
<g id="a_node5"><a xlink:href="structJGadget_1_1TLinkListNode.html" target="_top" xlink:title=" ">
<polygon fill="white" stroke="black" points="380.5,-68.5 380.5,-87.5 502.5,-87.5 502.5,-68.5 380.5,-68.5"/>
<text text-anchor="middle" x="441.5" y="-75.5" font-family="Helvetica,sans-Serif" font-size="10.00">JGadget::TLinkListNode</text>
</a>
</g>
</g>
<!-- Node5&#45;&gt;Node2 -->
<g id="edge4" class="edge">
<title>Node5&#45;&gt;Node2</title>
<path fill="none" stroke="#9a32cd" stroke-dasharray="5,2" d="M400.48,-65.63C353.23,-52.52 276.66,-31.29 234.24,-19.53"/>
<polygon fill="#9a32cd" stroke="#9a32cd" points="399.81,-69.07 410.39,-68.37 401.68,-62.33 399.81,-69.07"/>
<text text-anchor="middle" x="360" y="-41" font-family="Helvetica,sans-Serif" font-size="10.00"> ocObject_</text>
</g>
<!-- Node5&#45;&gt;Node5 -->
<g id="edge5" class="edge">
<title>Node5&#45;&gt;Node5</title>
<path fill="none" stroke="#9a32cd" stroke-dasharray="5,2" d="M512.99,-82.54C517.67,-81.49 520.5,-79.97 520.5,-78 520.5,-74.85 513.25,-72.86 502.78,-72.05"/>
<polygon fill="#9a32cd" stroke="#9a32cd" points="512.21,-79.12 502.78,-83.95 513.16,-86.05 512.21,-79.12"/>
<text text-anchor="middle" x="536" y="-81" font-family="Helvetica,sans-Serif" font-size="10.00"> mNext</text>
<text text-anchor="middle" x="536" y="-70" font-family="Helvetica,sans-Serif" font-size="10.00">mPrev</text>
</g>
<!-- Node6&#45;&gt;Node2 -->
<g id="edge6" class="edge">
<title>Node6&#45;&gt;Node2</title>
<path fill="none" stroke="#9a32cd" stroke-dasharray="5,2" d="M167.91,-59.94C177.24,-47.11 189.64,-30.06 197.07,-19.84"/>
<polygon fill="#9a32cd" stroke="#9a32cd" points="164.83,-58.23 161.78,-68.37 170.49,-62.34 164.83,-58.23"/>
<text text-anchor="middle" x="203" y="-41" font-family="Helvetica,sans-Serif" font-size="10.00"> pControl</text>
</g>
<!-- Node7 -->
<g id="node7" class="node">
<title>Node7</title>
<g id="a_node7"><a xlink:href="classJStudio_1_1stb_1_1TFactory.html" target="_top" xlink:title=" ">
<polygon fill="white" stroke="black" points="126.5,-142 126.5,-161 236.5,-161 236.5,-142 126.5,-142"/>
<text text-anchor="middle" x="181.5" y="-149" font-family="Helvetica,sans-Serif" font-size="10.00">JStudio::stb::TFactory</text>
</a>
</g>
</g>
<!-- Node7&#45;&gt;Node6 -->
<g id="edge7" class="edge">
<title>Node7&#45;&gt;Node6</title>
<path fill="none" stroke="#9a32cd" stroke-dasharray="5,2" d="M174.78,-132.01C169.61,-117.8 162.7,-98.81 158.71,-87.84"/>
<polygon fill="#9a32cd" stroke="#9a32cd" points="171.61,-133.53 178.31,-141.73 178.18,-131.14 171.61,-133.53"/>
<text text-anchor="middle" x="188.5" y="-110" font-family="Helvetica,sans-Serif" font-size="10.00"> pFactory</text>
</g>
</g>
</svg>
