<?xml version="1.0" encoding="UTF-8" standalone="no"?>
<!DOCTYPE svg PUBLIC "-//W3C//DTD SVG 1.1//EN"
 "http://www.w3.org/Graphics/SVG/1.1/DTD/svg11.dtd">
<!-- Generated by graphviz version 3.0.0 (20221109.1736)
 -->
<!-- Title: mDoExt_zelAnime Pages: 1 -->
<svg width="470pt" height="346pt"
 viewBox="0.00 0.00 470.00 346.00" xmlns="http://www.w3.org/2000/svg" xmlns:xlink="http://www.w3.org/1999/xlink">
<g id="graph0" class="graph" transform="scale(1 1) rotate(0) translate(4 342)">
<title>mDoExt_zelAnime</title>
<polygon fill="white" stroke="transparent" points="-4,4 -4,-342 466,-342 466,4 -4,4"/>
<!-- Node1 -->
<g id="node1" class="node">
<title>Node1</title>
<g id="a_node1"><a xlink:title=" ">
<polygon fill="#bfbfbf" stroke="black" points="280.5,-0.5 280.5,-19.5 375.5,-19.5 375.5,-0.5 280.5,-0.5"/>
<text text-anchor="middle" x="328" y="-7.5" font-family="Helvetica,sans-Serif" font-size="10.00">mDoExt_zelAnime</text>
</a>
</g>
</g>
<!-- Node2 -->
<g id="node2" class="node">
<title>Node2</title>
<g id="a_node2"><a xlink:href="classZ2SoundObjAnime.html" target="_top" xlink:title=" ">
<polygon fill="white" stroke="black" points="279,-57.5 279,-76.5 377,-76.5 377,-57.5 279,-57.5"/>
<text text-anchor="middle" x="328" y="-64.5" font-family="Helvetica,sans-Serif" font-size="10.00">Z2SoundObjAnime</text>
</a>
</g>
</g>
<!-- Node2&#45;&gt;Node1 -->
<g id="edge1" class="edge">
<title>Node2&#45;&gt;Node1</title>
<path fill="none" stroke="midnightblue" d="M328,-47.12C328,-37.82 328,-27.06 328,-19.71"/>
<polygon fill="midnightblue" stroke="midnightblue" points="324.5,-47.41 328,-57.41 331.5,-47.41 324.5,-47.41"/>
</g>
<!-- Node3 -->
<g id="node3" class="node">
<title>Node3</title>
<g id="a_node3"><a xlink:href="classZ2SoundObjBase.html" target="_top" xlink:title=" ">
<polygon fill="white" stroke="black" points="281.5,-114.5 281.5,-133.5 374.5,-133.5 374.5,-114.5 281.5,-114.5"/>
<text text-anchor="middle" x="328" y="-121.5" font-family="Helvetica,sans-Serif" font-size="10.00">Z2SoundObjBase</text>
</a>
</g>
</g>
<!-- Node3&#45;&gt;Node2 -->
<g id="edge2" class="edge">
<title>Node3&#45;&gt;Node2</title>
<path fill="none" stroke="midnightblue" d="M328,-104.12C328,-94.82 328,-84.06 328,-76.71"/>
<polygon fill="midnightblue" stroke="midnightblue" points="324.5,-104.41 328,-114.41 331.5,-104.41 324.5,-104.41"/>
</g>
<!-- Node4 -->
<g id="node4" class="node">
<title>Node4</title>
<g id="a_node4"><a xlink:href="classZ2SoundHandles.html" target="_top" xlink:title=" ">
<polygon fill="white" stroke="black" points="140,-181.5 140,-200.5 232,-200.5 232,-181.5 140,-181.5"/>
<text text-anchor="middle" x="186" y="-188.5" font-family="Helvetica,sans-Serif" font-size="10.00">Z2SoundHandles</text>
</a>
</g>
</g>
<!-- Node4&#45;&gt;Node3 -->
<g id="edge3" class="edge">
<title>Node4&#45;&gt;Node3</title>
<path fill="none" stroke="darkgreen" d="M214.15,-177.11C242.28,-164.24 284.73,-144.81 309.07,-133.67"/>
<polygon fill="darkgreen" stroke="darkgreen" points="212.49,-174.02 204.86,-181.37 215.41,-180.39 212.49,-174.02"/>
</g>
<!-- Node5 -->
<g id="node5" class="node">
<title>Node5</title>
<g id="a_node5"><a xlink:href="structJSUList.html" target="_top" xlink:title=" ">
<polygon fill="white" stroke="black" points="0,-239.5 0,-258.5 158,-258.5 158,-239.5 0,-239.5"/>
<text text-anchor="middle" x="79" y="-246.5" font-family="Helvetica,sans-Serif" font-size="10.00">JSUList&lt; Z2SoundHandlePool &gt;</text>
</a>
</g>
</g>
<!-- Node5&#45;&gt;Node4 -->
<g id="edge4" class="edge">
<title>Node5&#45;&gt;Node4</title>
<path fill="none" stroke="darkgreen" d="M104.21,-234.81C124.41,-224.23 152.17,-209.7 169.6,-200.59"/>
<polygon fill="darkgreen" stroke="darkgreen" points="102.49,-231.76 95.25,-239.49 105.73,-237.96 102.49,-231.76"/>
</g>
<!-- Node6 -->
<g id="node6" class="node">
<title>Node6</title>
<g id="a_node6"><a xlink:href="structJSUPtrList.html" target="_top" xlink:title=" ">
<polygon fill="white" stroke="black" points="126.5,-318.5 126.5,-337.5 191.5,-337.5 191.5,-318.5 126.5,-318.5"/>
<text text-anchor="middle" x="159" y="-325.5" font-family="Helvetica,sans-Serif" font-size="10.00">JSUPtrList</text>
</a>
</g>
</g>
<!-- Node6&#45;&gt;Node5 -->
<g id="edge5" class="edge">
<title>Node6&#45;&gt;Node5</title>
<path fill="none" stroke="midnightblue" d="M142.82,-311.43C126.37,-295.6 101.47,-271.62 88.15,-258.81"/>
<polygon fill="midnightblue" stroke="midnightblue" points="140.5,-314.05 150.13,-318.47 145.36,-309.01 140.5,-314.05"/>
</g>
<!-- Node7 -->
<g id="node7" class="node">
<title>Node7</title>
<g id="a_node7"><a xlink:href="structJSUPtrLink.html" target="_top" xlink:title=" ">
<polygon fill="white" stroke="black" points="176,-239.5 176,-258.5 244,-258.5 244,-239.5 176,-239.5"/>
<text text-anchor="middle" x="210" y="-246.5" font-family="Helvetica,sans-Serif" font-size="10.00">JSUPtrLink</text>
</a>
</g>
</g>
<!-- Node6&#45;&gt;Node7 -->
<g id="edge7" class="edge">
<title>Node6&#45;&gt;Node7</title>
<path fill="none" stroke="#9a32cd" stroke-dasharray="5,2" d="M153.03,-308.44C151.04,-298.72 150.53,-287 156,-278 161.43,-269.07 170.74,-262.86 180.11,-258.6"/>
<polygon fill="#9a32cd" stroke="#9a32cd" points="149.7,-309.56 155.66,-318.32 156.47,-307.75 149.7,-309.56"/>
<text text-anchor="middle" x="170" y="-286.5" font-family="Helvetica,sans-Serif" font-size="10.00"> mList</text>
</g>
<!-- Node7&#45;&gt;Node6 -->
<g id="edge6" class="edge">
<title>Node7&#45;&gt;Node6</title>
<path fill="none" stroke="#9a32cd" stroke-dasharray="5,2" d="M203.99,-268.32C200.26,-278.22 194.86,-290.35 188,-300 183.06,-306.95 176.1,-313.51 170.24,-318.41"/>
<polygon fill="#9a32cd" stroke="#9a32cd" points="207.37,-269.28 207.38,-258.69 200.76,-266.96 207.37,-269.28"/>
<text text-anchor="middle" x="217" y="-292" font-family="Helvetica,sans-Serif" font-size="10.00"> mHead</text>
<text text-anchor="middle" x="217" y="-281" font-family="Helvetica,sans-Serif" font-size="10.00">mTail</text>
</g>
<!-- Node7&#45;&gt;Node7 -->
<g id="edge8" class="edge">
<title>Node7&#45;&gt;Node7</title>
<path fill="none" stroke="#9a32cd" stroke-dasharray="5,2" d="M254.15,-253.39C258.92,-252.55 262,-251.08 262,-249 262,-245.66 254.13,-243.92 244.01,-243.76"/>
<polygon fill="#9a32cd" stroke="#9a32cd" points="253.68,-249.92 244.01,-254.24 254.27,-256.89 253.68,-249.92"/>
<text text-anchor="middle" x="277.5" y="-252" font-family="Helvetica,sans-Serif" font-size="10.00"> mNext</text>
<text text-anchor="middle" x="277.5" y="-241" font-family="Helvetica,sans-Serif" font-size="10.00">mPrev</text>
</g>
<!-- Node8 -->
<g id="node8" class="node">
<title>Node8</title>
<g id="a_node8"><a xlink:href="structZ2SoundStarter.html" target="_top" xlink:title=" ">
<polygon fill="white" stroke="black" points="292.5,-181.5 292.5,-200.5 377.5,-200.5 377.5,-181.5 292.5,-181.5"/>
<text text-anchor="middle" x="335" y="-188.5" font-family="Helvetica,sans-Serif" font-size="10.00">Z2SoundStarter</text>
</a>
</g>
</g>
<!-- Node8&#45;&gt;Node3 -->
<g id="edge9" class="edge">
<title>Node8&#45;&gt;Node3</title>
<path fill="none" stroke="#9a32cd" stroke-dasharray="5,2" d="M330.34,-171.2C329.8,-168.46 329.33,-165.67 329,-163 327.77,-153.04 327.65,-141.51 327.75,-133.79"/>
<polygon fill="#9a32cd" stroke="#9a32cd" points="326.95,-172.09 332.56,-181.08 333.78,-170.55 326.95,-172.09"/>
<text text-anchor="middle" x="363" y="-155" font-family="Helvetica,sans-Serif" font-size="10.00"> mSoundStarter</text>
</g>
<!-- Node9 -->
<g id="node9" class="node">
<title>Node9</title>
<g id="a_node9"><a xlink:href="structJAISoundStarter.html" target="_top" xlink:title=" ">
<polygon fill="white" stroke="black" points="311.5,-239.5 311.5,-258.5 400.5,-258.5 400.5,-239.5 311.5,-239.5"/>
<text text-anchor="middle" x="356" y="-246.5" font-family="Helvetica,sans-Serif" font-size="10.00">JAISoundStarter</text>
</a>
</g>
</g>
<!-- Node9&#45;&gt;Node8 -->
<g id="edge10" class="edge">
<title>Node9&#45;&gt;Node8</title>
<path fill="none" stroke="midnightblue" d="M349.09,-229.58C345.42,-219.78 341.07,-208.19 338.19,-200.51"/>
<polygon fill="midnightblue" stroke="midnightblue" points="345.93,-231.12 352.72,-239.25 352.48,-228.66 345.93,-231.12"/>
</g>
<!-- Node10 -->
<g id="node10" class="node">
<title>Node10</title>
<g id="a_node10"><a xlink:href="structVec.html" target="_top" xlink:title=" ">
<polygon fill="white" stroke="black" points="402,-181.5 402,-200.5 436,-200.5 436,-181.5 402,-181.5"/>
<text text-anchor="middle" x="419" y="-188.5" font-family="Helvetica,sans-Serif" font-size="10.00">Vec</text>
</a>
</g>
</g>
<!-- Node10&#45;&gt;Node3 -->
<g id="edge11" class="edge">
<title>Node10&#45;&gt;Node3</title>
<path fill="none" stroke="#9a32cd" stroke-dasharray="5,2" d="M411.66,-171.86C408.09,-164.89 403.22,-157.34 397,-152 387.24,-143.62 374.58,-137.67 362.77,-133.52"/>
<polygon fill="#9a32cd" stroke="#9a32cd" points="408.63,-173.66 415.94,-181.33 415.01,-170.78 408.63,-173.66"/>
<text text-anchor="middle" x="434" y="-155" font-family="Helvetica,sans-Serif" font-size="10.00"> mSoundPos</text>
</g>
</g>
</svg>
