<?xml version="1.0" encoding="UTF-8" standalone="no"?>
<!DOCTYPE svg PUBLIC "-//W3C//DTD SVG 1.1//EN"
 "http://www.w3.org/Graphics/SVG/1.1/DTD/svg11.dtd">
<!-- Generated by graphviz version 2.49.3 (20211027.1534)
 -->
<!-- Title: JKRFileCache Pages: 1 -->
<svg width="338pt" height="175pt"
 viewBox="0.00 0.00 338.00 175.00" xmlns="http://www.w3.org/2000/svg" xmlns:xlink="http://www.w3.org/1999/xlink">
<g id="graph0" class="graph" transform="scale(1 1) rotate(0) translate(4 171)">
<title>JKRFileCache</title>
<polygon fill="white" stroke="transparent" points="-4,4 -4,-171 334,-171 334,4 -4,4"/>
<!-- Node1 -->
<g id="node1" class="node">
<title>Node1</title>
<g id="a_node1"><a xlink:title=" ">
<polygon fill="#bfbfbf" stroke="black" points="90,-0.5 90,-19.5 169,-19.5 169,-0.5 90,-0.5"/>
<text text-anchor="middle" x="129.5" y="-7.5" font-family="Helvetica,sans-Serif" font-size="10.00">JKRFileCache</text>
</a>
</g>
</g>
<!-- Node2 -->
<g id="node2" class="node">
<title>Node2</title>
<g id="a_node2"><a xlink:href="classJKRFileLoader.html" target="_top" xlink:title=" ">
<polygon fill="white" stroke="black" points="0,-74 0,-93 81,-93 81,-74 0,-74"/>
<text text-anchor="middle" x="40.5" y="-81" font-family="Helvetica,sans-Serif" font-size="10.00">JKRFileLoader</text>
</a>
</g>
</g>
<!-- Node2&#45;&gt;Node1 -->
<g id="edge1" class="edge">
<title>Node2&#45;&gt;Node1</title>
<path fill="none" stroke="midnightblue" d="M59.52,-67.22C77.59,-52.7 104.12,-31.39 118.78,-19.62"/>
<polygon fill="midnightblue" stroke="midnightblue" points="57.02,-64.74 51.41,-73.73 61.4,-70.2 57.02,-64.74"/>
</g>
<!-- Node2&#45;&gt;Node2 -->
<g id="edge7" class="edge">
<title>Node2&#45;&gt;Node2</title>
<path fill="none" stroke="#9a32cd" stroke-dasharray="5,2" d="M91.32,-89.49C96.03,-88.26 99,-86.26 99,-83.5 99,-79.09 91.4,-76.62 81.23,-76.1"/>
<polygon fill="#9a32cd" stroke="#9a32cd" points="90.66,-86.05 81.23,-90.9 91.62,-92.99 90.66,-86.05"/>
<text text-anchor="middle" x="135.5" y="-81" font-family="Helvetica,sans-Serif" font-size="10.00"> sCurrentVolume</text>
</g>
<!-- Node3 -->
<g id="node3" class="node">
<title>Node3</title>
<g id="a_node3"><a xlink:href="classJKRDisposer.html" target="_top" xlink:title=" ">
<polygon fill="white" stroke="black" points="120.5,-147.5 120.5,-166.5 194.5,-166.5 194.5,-147.5 120.5,-147.5"/>
<text text-anchor="middle" x="157.5" y="-154.5" font-family="Helvetica,sans-Serif" font-size="10.00">JKRDisposer</text>
</a>
</g>
</g>
<!-- Node3&#45;&gt;Node2 -->
<g id="edge2" class="edge">
<title>Node3&#45;&gt;Node2</title>
<path fill="none" stroke="midnightblue" d="M134.42,-141.9C110.66,-127.37 74.39,-105.21 54.6,-93.12"/>
<polygon fill="midnightblue" stroke="midnightblue" points="132.8,-145 143.15,-147.23 136.45,-139.03 132.8,-145"/>
</g>
<!-- Node4 -->
<g id="node4" class="node">
<title>Node4</title>
<g id="a_node4"><a xlink:href="classJKRHeap.html" target="_top" xlink:title=" ">
<polygon fill="white" stroke="black" points="190,-74 190,-93 249,-93 249,-74 190,-74"/>
<text text-anchor="middle" x="219.5" y="-81" font-family="Helvetica,sans-Serif" font-size="10.00">JKRHeap</text>
</a>
</g>
</g>
<!-- Node3&#45;&gt;Node4 -->
<g id="edge4" class="edge">
<title>Node3&#45;&gt;Node4</title>
<path fill="none" stroke="midnightblue" d="M165.21,-137.72C168.46,-131.14 172.64,-123.88 177.5,-118 185.58,-108.22 196.93,-99.38 205.8,-93.24"/>
<polygon fill="midnightblue" stroke="midnightblue" points="161.84,-136.69 160.88,-147.24 168.21,-139.59 161.84,-136.69"/>
</g>
<!-- Node4&#45;&gt;Node1 -->
<g id="edge8" class="edge">
<title>Node4&#45;&gt;Node1</title>
<path fill="none" stroke="#9a32cd" stroke-dasharray="5,2" d="M200.27,-67.22C182,-52.7 155.17,-31.39 140.34,-19.62"/>
<polygon fill="#9a32cd" stroke="#9a32cd" points="198.46,-70.25 208.46,-73.73 202.81,-64.77 198.46,-70.25"/>
<text text-anchor="middle" x="209" y="-41" font-family="Helvetica,sans-Serif" font-size="10.00"> mParentHeap</text>
</g>
<!-- Node4&#45;&gt;Node3 -->
<g id="edge3" class="edge">
<title>Node4&#45;&gt;Node3</title>
<path fill="none" stroke="#9a32cd" stroke-dasharray="5,2" d="M205.17,-101.02C192.68,-115.43 175.05,-135.76 165.1,-147.23"/>
<polygon fill="#9a32cd" stroke="#9a32cd" points="207.93,-103.19 211.84,-93.34 202.64,-98.6 207.93,-103.19"/>
<text text-anchor="middle" x="207.5" y="-121" font-family="Helvetica,sans-Serif" font-size="10.00"> mHeap</text>
</g>
<!-- Node4&#45;&gt;Node4 -->
<g id="edge6" class="edge">
<title>Node4&#45;&gt;Node4</title>
<path fill="none" stroke="#9a32cd" stroke-dasharray="5,2" d="M259.17,-89.95C263.91,-88.77 267,-86.62 267,-83.5 267,-78.5 259.08,-76 249.19,-76"/>
<polygon fill="#9a32cd" stroke="#9a32cd" points="258.76,-86.47 249.19,-91 259.5,-93.43 258.76,-86.47"/>
<text text-anchor="middle" x="298.5" y="-92" font-family="Helvetica,sans-Serif" font-size="10.00"> sCurrentHeap</text>
<text text-anchor="middle" x="298.5" y="-81" font-family="Helvetica,sans-Serif" font-size="10.00">sRootHeap</text>
<text text-anchor="middle" x="298.5" y="-70" font-family="Helvetica,sans-Serif" font-size="10.00">sSystemHeap</text>
</g>
<!-- Node5 -->
<g id="node5" class="node">
<title>Node5</title>
<g id="a_node5"><a xlink:href="structOSMutex.html" target="_top" xlink:title=" ">
<polygon fill="white" stroke="black" points="219,-147.5 219,-166.5 276,-166.5 276,-147.5 219,-147.5"/>
<text text-anchor="middle" x="247.5" y="-154.5" font-family="Helvetica,sans-Serif" font-size="10.00">OSMutex</text>
</a>
</g>
</g>
<!-- Node5&#45;&gt;Node4 -->
<g id="edge5" class="edge">
<title>Node5&#45;&gt;Node4</title>
<path fill="none" stroke="#9a32cd" stroke-dasharray="5,2" d="M240.26,-137.51C234.7,-123.3 227.26,-104.31 222.96,-93.34"/>
<polygon fill="#9a32cd" stroke="#9a32cd" points="237.16,-139.2 244.07,-147.23 243.68,-136.64 237.16,-139.2"/>
<text text-anchor="middle" x="256" y="-121" font-family="Helvetica,sans-Serif" font-size="10.00"> mMutex</text>
</g>
</g>
</svg>
