<?xml version="1.0" encoding="UTF-8" standalone="no"?>
<!DOCTYPE svg PUBLIC "-//W3C//DTD SVG 1.1//EN"
 "http://www.w3.org/Graphics/SVG/1.1/DTD/svg11.dtd">
<!-- Generated by graphviz version 7.0.4 (20221203.1631)
 -->
<!-- Title: Z2DopplerSoundObjBase Pages: 1 -->
<svg width="166pt" height="192pt"
 viewBox="0.00 0.00 166.00 192.00" xmlns="http://www.w3.org/2000/svg" xmlns:xlink="http://www.w3.org/1999/xlink">
<g id="graph0" class="graph" transform="scale(1 1) rotate(0) translate(4 188)">
<title>Z2DopplerSoundObjBase</title>
<!-- Node1 -->
<g id="node1" class="node">
<title>Node1</title>
<g id="a_node1"><a xlink:title=" ">
<polygon fill="#999999" stroke="#666666" points="142,-19 16,-19 16,0 142,0 142,-19"/>
<text text-anchor="middle" x="79" y="-7" font-family="Helvetica,sans-Serif" font-size="10.00">Z2DopplerSoundObjBase</text>
</a>
</g>
</g>
<!-- Node2 -->
<g id="node2" class="node">
<title>Node2</title>
<g id="a_node2"><a xlink:href="classZ2SoundHandles.html" target="_top" xlink:title=" ">
<polygon fill="white" stroke="#666666" points="125,-74 33,-74 33,-55 125,-55 125,-74"/>
<text text-anchor="middle" x="79" y="-62" font-family="Helvetica,sans-Serif" font-size="10.00">Z2SoundHandles</text>
</a>
</g>
</g>
<!-- Node2&#45;&gt;Node1 -->
<g id="edge1" class="edge">
<title>Node2&#45;&gt;Node1</title>
<path fill="none" stroke="#63b8ff" d="M79,-43.35C79,-35.1 79,-25.97 79,-19.44"/>
<polygon fill="#63b8ff" stroke="#63b8ff" points="75.5,-43.23 79,-53.23 82.5,-43.23 75.5,-43.23"/>
</g>
<!-- Node3 -->
<g id="node3" class="node">
<title>Node3</title>
<g id="a_node3"><a xlink:href="structJSUList.html" target="_top" xlink:title=" ">
<polygon fill="white" stroke="#666666" points="158,-129 0,-129 0,-110 158,-110 158,-129"/>
<text text-anchor="middle" x="79" y="-117" font-family="Helvetica,sans-Serif" font-size="10.00">JSUList&lt; Z2SoundHandlePool &gt;</text>
</a>
</g>
</g>
<!-- Node3&#45;&gt;Node2 -->
<g id="edge2" class="edge">
<title>Node3&#45;&gt;Node2</title>
<path fill="none" stroke="darkgreen" d="M79,-98.35C79,-90.1 79,-80.97 79,-74.44"/>
<polygon fill="darkgreen" stroke="darkgreen" points="75.5,-98.23 79,-108.23 82.5,-98.23 75.5,-98.23"/>
</g>
<!-- Node4 -->
<g id="node4" class="node">
<title>Node4</title>
<g id="a_node4"><a xlink:href="structJSUPtrList.html" target="_top" xlink:title=" ">
<polygon fill="white" stroke="#666666" points="111.5,-184 46.5,-184 46.5,-165 111.5,-165 111.5,-184"/>
<text text-anchor="middle" x="79" y="-172" font-family="Helvetica,sans-Serif" font-size="10.00">JSUPtrList</text>
</a>
</g>
</g>
<!-- Node4&#45;&gt;Node3 -->
<g id="edge3" class="edge">
<title>Node4&#45;&gt;Node3</title>
<path fill="none" stroke="#63b8ff" d="M79,-153.35C79,-145.1 79,-135.97 79,-129.44"/>
<polygon fill="#63b8ff" stroke="#63b8ff" points="75.5,-153.23 79,-163.23 82.5,-153.23 75.5,-153.23"/>
</g>
</g>
</svg>
