<?xml version="1.0" encoding="UTF-8" standalone="no"?>
<!DOCTYPE svg PUBLIC "-//W3C//DTD SVG 1.1//EN"
 "http://www.w3.org/Graphics/SVG/1.1/DTD/svg11.dtd">
<!-- Generated by graphviz version 3.0.0 (20221109.1736)
 -->
<!-- Title: daTagHstop_c Pages: 1 -->
<svg width="90pt" height="140pt"
 viewBox="0.00 0.00 90.00 140.00" xmlns="http://www.w3.org/2000/svg" xmlns:xlink="http://www.w3.org/1999/xlink">
<g id="graph0" class="graph" transform="scale(1 1) rotate(0) translate(4 136)">
<title>daTagHstop_c</title>
<polygon fill="white" stroke="transparent" points="-4,4 -4,-136 86,-136 86,4 -4,4"/>
<!-- Node1 -->
<g id="node1" class="node">
<title>Node1</title>
<g id="a_node1"><a xlink:title=" ">
<polygon fill="#bfbfbf" stroke="black" points="1,-0.5 1,-19.5 81,-19.5 81,-0.5 1,-0.5"/>
<text text-anchor="middle" x="41" y="-7.5" font-family="Helvetica,sans-Serif" font-size="10.00">daTagHstop_c</text>
</a>
</g>
</g>
<!-- Node2 -->
<g id="node2" class="node">
<title>Node2</title>
<g id="a_node2"><a xlink:href="structfopAc__ac__c.html" target="_top" xlink:title=" ">
<polygon fill="white" stroke="black" points="7,-56.5 7,-75.5 75,-75.5 75,-56.5 7,-56.5"/>
<text text-anchor="middle" x="41" y="-63.5" font-family="Helvetica,sans-Serif" font-size="10.00">fopAc_ac_c</text>
</a>
</g>
</g>
<!-- Node2&#45;&gt;Node1 -->
<g id="edge1" class="edge">
<title>Node2&#45;&gt;Node1</title>
<path fill="none" stroke="midnightblue" d="M34.53,-46.1C33.9,-37.14 34.34,-26.86 35.87,-19.75"/>
<polygon fill="midnightblue" stroke="midnightblue" points="31.07,-46.62 35.83,-56.08 38.01,-45.71 31.07,-46.62"/>
</g>
<!-- Node2&#45;&gt;Node1 -->
<g id="edge3" class="edge">
<title>Node2&#45;&gt;Node1</title>
<path fill="none" stroke="midnightblue" d="M47.47,-46.1C48.1,-37.14 47.66,-26.86 46.13,-19.75"/>
<polygon fill="midnightblue" stroke="midnightblue" points="43.99,-45.71 46.17,-56.08 50.93,-46.62 43.99,-45.71"/>
</g>
<!-- Node3 -->
<g id="node3" class="node">
<title>Node3</title>
<g id="a_node3"><a xlink:href="structleafdraw__class.html" target="_top" xlink:title=" ">
<polygon fill="white" stroke="black" points="0,-112.5 0,-131.5 82,-131.5 82,-112.5 0,-112.5"/>
<text text-anchor="middle" x="41" y="-119.5" font-family="Helvetica,sans-Serif" font-size="10.00">leafdraw_class</text>
</a>
</g>
</g>
<!-- Node3&#45;&gt;Node2 -->
<g id="edge2" class="edge">
<title>Node3&#45;&gt;Node2</title>
<path fill="none" stroke="midnightblue" d="M41,-101.8C41,-92.91 41,-82.78 41,-75.75"/>
<polygon fill="midnightblue" stroke="midnightblue" points="37.5,-102.08 41,-112.08 44.5,-102.08 37.5,-102.08"/>
</g>
</g>
</svg>
