<?xml version="1.0" encoding="UTF-8" standalone="no"?>
<!DOCTYPE svg PUBLIC "-//W3C//DTD SVG 1.1//EN"
 "http://www.w3.org/Graphics/SVG/1.1/DTD/svg11.dtd">
<!-- Generated by graphviz version 3.0.0 (20220413.0242)
 -->
<!-- Title: include/JSystem/JStudio/JStudio/ctb.h Pages: 1 -->
<svg width="452pt" height="162pt"
 viewBox="0.00 0.00 451.71 162.00" xmlns="http://www.w3.org/2000/svg" xmlns:xlink="http://www.w3.org/1999/xlink">
<g id="graph0" class="graph" transform="scale(1 1) rotate(0) translate(4 158)">
<title>include/JSystem/JStudio/JStudio/ctb.h</title>
<polygon fill="white" stroke="transparent" points="-4,4 -4,-158 447.71,-158 447.71,4 -4,4"/>
<!-- Node1 -->
<g id="node1" class="node">
<title>Node1</title>
<g id="a_node1"><a xlink:title=" ">
<polygon fill="#bfbfbf" stroke="black" points="94.71,-123.5 94.71,-153.5 219.71,-153.5 219.71,-123.5 94.71,-123.5"/>
<text text-anchor="start" x="102.71" y="-141.5" font-family="Helvetica,sans-Serif" font-size="10.00">include/JSystem/JStudio</text>
<text text-anchor="middle" x="157.21" y="-130.5" font-family="Helvetica,sans-Serif" font-size="10.00">/JStudio/ctb.h</text>
</a>
</g>
</g>
<!-- Node2 -->
<g id="node2" class="node">
<title>Node2</title>
<g id="a_node2"><a xlink:href="types_8h.html" target="_top" xlink:title=" ">
<polygon fill="white" stroke="black" points="116.71,-0.5 116.71,-19.5 197.71,-19.5 197.71,-0.5 116.71,-0.5"/>
<text text-anchor="middle" x="157.21" y="-7.5" font-family="Helvetica,sans-Serif" font-size="10.00">dolphin/types.h</text>
</a>
</g>
</g>
<!-- Node1&#45;&gt;Node2 -->
<g id="edge1" class="edge">
<title>Node1&#45;&gt;Node2</title>
<path fill="none" stroke="midnightblue" d="M94.55,-127.06C41.94,-115.46 -20.52,-93.27 7.21,-56 29.86,-25.56 72.4,-14.93 106.4,-11.57"/>
<polygon fill="midnightblue" stroke="midnightblue" points="106.96,-15.03 116.65,-10.74 106.4,-8.05 106.96,-15.03"/>
</g>
<!-- Node3 -->
<g id="node3" class="node">
<title>Node3</title>
<g id="a_node3"><a xlink:href="binary_8h.html" target="_top" xlink:title=" ">
<polygon fill="white" stroke="black" points="16.71,-62 16.71,-81 147.71,-81 147.71,-62 16.71,-62"/>
<text text-anchor="middle" x="82.21" y="-69" font-family="Helvetica,sans-Serif" font-size="10.00">JSystem/JGadget/binary.h</text>
</a>
</g>
</g>
<!-- Node1&#45;&gt;Node3 -->
<g id="edge2" class="edge">
<title>Node1&#45;&gt;Node3</title>
<path fill="none" stroke="midnightblue" d="M140.94,-123.4C128.89,-112.96 112.5,-98.75 100.09,-88"/>
<polygon fill="midnightblue" stroke="midnightblue" points="102.09,-85.1 92.24,-81.19 97.51,-90.39 102.09,-85.1"/>
</g>
<!-- Node4 -->
<g id="node4" class="node">
<title>Node4</title>
<g id="a_node4"><a xlink:href="linklist_8h.html" target="_top" xlink:title=" ">
<polygon fill="white" stroke="black" points="165.71,-62 165.71,-81 298.71,-81 298.71,-62 165.71,-62"/>
<text text-anchor="middle" x="232.21" y="-69" font-family="Helvetica,sans-Serif" font-size="10.00">JSystem/JGadget/linklist.h</text>
</a>
</g>
</g>
<!-- Node1&#45;&gt;Node4 -->
<g id="edge4" class="edge">
<title>Node1&#45;&gt;Node4</title>
<path fill="none" stroke="midnightblue" d="M173.48,-123.4C185.53,-112.96 201.92,-98.75 214.33,-88"/>
<polygon fill="midnightblue" stroke="midnightblue" points="216.91,-90.39 222.18,-81.19 212.33,-85.1 216.91,-90.39"/>
</g>
<!-- Node5 -->
<g id="node5" class="node">
<title>Node5</title>
<g id="a_node5"><a xlink:href="object-id_8h.html" target="_top" xlink:title=" ">
<polygon fill="white" stroke="black" points="316.71,-56.5 316.71,-86.5 443.71,-86.5 443.71,-56.5 316.71,-56.5"/>
<text text-anchor="start" x="324.71" y="-74.5" font-family="Helvetica,sans-Serif" font-size="10.00">JSystem/JStudio/JStudio</text>
<text text-anchor="middle" x="380.21" y="-63.5" font-family="Helvetica,sans-Serif" font-size="10.00">/object&#45;id.h</text>
</a>
</g>
</g>
<!-- Node1&#45;&gt;Node5 -->
<g id="edge6" class="edge">
<title>Node1&#45;&gt;Node5</title>
<path fill="none" stroke="midnightblue" d="M205.32,-123.48C239.5,-113.51 285.57,-100.09 321.84,-89.51"/>
<polygon fill="midnightblue" stroke="midnightblue" points="323.18,-92.77 331.8,-86.61 321.22,-86.05 323.18,-92.77"/>
</g>
<!-- Node3&#45;&gt;Node2 -->
<g id="edge3" class="edge">
<title>Node3&#45;&gt;Node2</title>
<path fill="none" stroke="midnightblue" d="M92.96,-61.98C104.76,-52.61 123.95,-37.38 138.29,-26.01"/>
<polygon fill="midnightblue" stroke="midnightblue" points="140.83,-28.47 146.48,-19.51 136.47,-22.98 140.83,-28.47"/>
</g>
<!-- Node4&#45;&gt;Node2 -->
<g id="edge5" class="edge">
<title>Node4&#45;&gt;Node2</title>
<path fill="none" stroke="midnightblue" d="M221.46,-61.98C209.66,-52.61 190.47,-37.38 176.13,-26.01"/>
<polygon fill="midnightblue" stroke="midnightblue" points="177.94,-22.98 167.94,-19.51 173.59,-28.47 177.94,-22.98"/>
</g>
<!-- Node5&#45;&gt;Node2 -->
<g id="edge7" class="edge">
<title>Node5&#45;&gt;Node2</title>
<path fill="none" stroke="midnightblue" d="M327.64,-56.47C288.33,-45.99 235.3,-31.84 198.89,-22.12"/>
<polygon fill="midnightblue" stroke="midnightblue" points="199.66,-18.7 189.09,-19.51 197.85,-25.47 199.66,-18.7"/>
</g>
</g>
</svg>
