<?xml version="1.0" encoding="UTF-8" standalone="no"?>
<!DOCTYPE svg PUBLIC "-//W3C//DTD SVG 1.1//EN"
 "http://www.w3.org/Graphics/SVG/1.1/DTD/svg11.dtd">
<!-- Generated by graphviz version 7.0.4 (20221203.1631)
 -->
<!-- Title: include/d/d_attention.h Pages: 1 -->
<svg width="5193pt" height="291pt"
 viewBox="0.00 0.00 5193.00 291.00" xmlns="http://www.w3.org/2000/svg" xmlns:xlink="http://www.w3.org/1999/xlink">
<g id="graph0" class="graph" transform="scale(1 1) rotate(0) translate(4 287)">
<title>include/d/d_attention.h</title>
<!-- Node1 -->
<g id="node1" class="node">
<title>Node1</title>
<g id="a_node1"><a xlink:title=" ">
<polygon fill="#999999" stroke="#666666" points="2436.5,-283 2322.5,-283 2322.5,-264 2436.5,-264 2436.5,-283"/>
<text text-anchor="middle" x="2379.5" y="-271" font-family="Helvetica,sans-Serif" font-size="10.00">include/d/d_attention.h</text>
</a>
</g>
</g>
<!-- Node2 -->
<g id="node2" class="node">
<title>Node2</title>
<g id="a_node2"><a xlink:href="d__a__alink_8h.html" target="_top" xlink:title=" ">
<polygon fill="white" stroke="#666666" points="2332.5,-228 2216.5,-228 2216.5,-209 2332.5,-209 2332.5,-228"/>
<text text-anchor="middle" x="2274.5" y="-216" font-family="Helvetica,sans-Serif" font-size="10.00">include/d/a/d_a_alink.h</text>
</a>
</g>
</g>
<!-- Node1&#45;&gt;Node2 -->
<g id="edge1" class="edge">
<title>Node1&#45;&gt;Node2</title>
<path fill="none" stroke="#63b8ff" d="M2351.57,-258.4C2332.66,-248.86 2308.28,-236.55 2292.05,-228.36"/>
<polygon fill="#63b8ff" stroke="#63b8ff" points="2349.83,-261.45 2360.34,-262.83 2352.99,-255.2 2349.83,-261.45"/>
</g>
<!-- Node3 -->
<g id="node3" class="node">
<title>Node3</title>
<g id="a_node3"><a xlink:href="d__com__inf__game_8h.html" target="_top" xlink:title=" ">
<polygon fill="#fff0f0" stroke="red" points="2350.5,-173 2240.5,-173 2240.5,-143 2350.5,-143 2350.5,-173"/>
<text text-anchor="start" x="2248.5" y="-161" font-family="Helvetica,sans-Serif" font-size="10.00">include/d/com/d_com</text>
<text text-anchor="middle" x="2295.5" y="-150" font-family="Helvetica,sans-Serif" font-size="10.00">_inf_game.h</text>
</a>
</g>
</g>
<!-- Node1&#45;&gt;Node3 -->
<g id="edge59" class="edge">
<title>Node1&#45;&gt;Node3</title>
<path fill="none" stroke="#63b8ff" d="M2369.43,-253.42C2362.27,-240.46 2352.08,-223.17 2341.5,-209 2331.9,-196.15 2319.52,-182.84 2310.02,-173.19"/>
<polygon fill="#63b8ff" stroke="#63b8ff" points="2366.33,-255.04 2374.16,-262.18 2372.49,-251.72 2366.33,-255.04"/>
</g>
<!-- Node77 -->
<g id="node37" class="node">
<title>Node77</title>
<g id="a_node37"><a xlink:href="d__attention_8cpp.html" target="_top" xlink:title=" ">
<polygon fill="white" stroke="#666666" points="5185,-96 5078,-96 5078,-77 5185,-77 5185,-96"/>
<text text-anchor="middle" x="5131.5" y="-84" font-family="Helvetica,sans-Serif" font-size="10.00">src/d/d_attention.cpp</text>
</a>
</g>
</g>
<!-- Node1&#45;&gt;Node77 -->
<g id="edge61" class="edge">
<title>Node1&#45;&gt;Node77</title>
<path fill="none" stroke="#63b8ff" d="M2385.49,-252.93C2391.17,-238.07 2401.28,-218.61 2417.5,-209 2671.08,-58.71 4777.94,-156.67 5068.5,-107 5081.82,-104.72 5096.24,-100.4 5107.93,-96.41"/>
<polygon fill="#63b8ff" stroke="#63b8ff" points="2382.26,-251.56 2382.35,-262.15 2388.89,-253.82 2382.26,-251.56"/>
</g>
<!-- Node107 -->
<g id="node50" class="node">
<title>Node107</title>
<g id="a_node50"><a xlink:href="d__att__dist_8cpp.html" target="_top" xlink:title=" ">
<polygon fill="white" stroke="#666666" points="2528.5,-228 2426.5,-228 2426.5,-209 2528.5,-209 2528.5,-228"/>
<text text-anchor="middle" x="2477.5" y="-216" font-family="Helvetica,sans-Serif" font-size="10.00">src/d/d_att_dist.cpp</text>
</a>
</g>
</g>
<!-- Node1&#45;&gt;Node107 -->
<g id="edge60" class="edge">
<title>Node1&#45;&gt;Node107</title>
<path fill="none" stroke="#63b8ff" d="M2405.82,-258.27C2423.42,-248.74 2446.05,-236.51 2461.12,-228.36"/>
<polygon fill="#63b8ff" stroke="#63b8ff" points="2404.59,-254.95 2397.46,-262.79 2407.92,-261.11 2404.59,-254.95"/>
</g>
<!-- Node2&#45;&gt;Node3 -->
<g id="edge2" class="edge">
<title>Node2&#45;&gt;Node3</title>
<path fill="none" stroke="#63b8ff" d="M2281.47,-198.08C2284.4,-189.92 2287.74,-180.6 2290.43,-173.11"/>
<polygon fill="#63b8ff" stroke="#63b8ff" points="2278.19,-196.85 2278.11,-207.44 2284.78,-199.21 2278.19,-196.85"/>
</g>
<!-- Node13 -->
<g id="node7" class="node">
<title>Node13</title>
<g id="a_node7"><a xlink:href="d__a__alink_8cpp.html" target="_top" xlink:title=" ">
<polygon fill="white" stroke="#666666" points="379,-24.5 270,-24.5 270,-5.5 379,-5.5 379,-24.5"/>
<text text-anchor="middle" x="324.5" y="-12.5" font-family="Helvetica,sans-Serif" font-size="10.00">src/d/a/d_a_alink.cpp</text>
</a>
</g>
</g>
<!-- Node2&#45;&gt;Node13 -->
<g id="edge58" class="edge">
<title>Node2&#45;&gt;Node13</title>
<path fill="none" stroke="#63b8ff" d="M2204.83,-216.22C1863.64,-209.63 382.69,-177.04 316.5,-107 295.15,-84.41 311.18,-43.07 319.87,-24.93"/>
<polygon fill="#63b8ff" stroke="#63b8ff" points="2204.67,-219.72 2214.74,-216.41 2204.8,-212.72 2204.67,-219.72"/>
</g>
<!-- Node4 -->
<g id="node4" class="node">
<title>Node4</title>
<g id="a_node4"><a xlink:href="d__a__npc_8h.html" target="_top" xlink:title=" ">
<polygon fill="#fff0f0" stroke="red" points="4788,-96 4677,-96 4677,-77 4788,-77 4788,-96"/>
<text text-anchor="middle" x="4732.5" y="-84" font-family="Helvetica,sans-Serif" font-size="10.00">include/d/a/d_a_npc.h</text>
</a>
</g>
</g>
<!-- Node3&#45;&gt;Node4 -->
<g id="edge3" class="edge">
<title>Node3&#45;&gt;Node4</title>
<path fill="none" stroke="#63b8ff" d="M2362.21,-145.47C2369.71,-144.48 2377.26,-143.62 2384.5,-143 2890.25,-99.45 4167.03,-185.75 4668.5,-107 4682.16,-104.86 4696.94,-100.49 4708.86,-96.43"/>
<polygon fill="#63b8ff" stroke="#63b8ff" points="2361.82,-141.99 2352.4,-146.85 2362.79,-148.92 2361.82,-141.99"/>
</g>
<!-- Node10 -->
<g id="node5" class="node">
<title>Node10</title>
<g id="a_node5"><a xlink:href="d__cc__uty_8h.html" target="_top" xlink:title=" ">
<polygon fill="#fff0f0" stroke="red" points="4925,-96 4806,-96 4806,-77 4925,-77 4925,-96"/>
<text text-anchor="middle" x="4865.5" y="-84" font-family="Helvetica,sans-Serif" font-size="10.00">include/d/cc/d_cc_uty.h</text>
</a>
</g>
</g>
<!-- Node3&#45;&gt;Node10 -->
<g id="edge4" class="edge">
<title>Node3&#45;&gt;Node10</title>
<path fill="none" stroke="#63b8ff" d="M2362.21,-145.46C2369.71,-144.48 2377.26,-143.62 2384.5,-143 2918.82,-97.22 4267.01,-185.6 4797.5,-107 4811.96,-104.86 4827.67,-100.49 4840.34,-96.44"/>
<polygon fill="#63b8ff" stroke="#63b8ff" points="2361.82,-141.98 2352.4,-146.84 2362.79,-148.92 2361.82,-141.98"/>
</g>
<!-- Node16 -->
<g id="node6" class="node">
<title>Node16</title>
<g id="a_node6"><a xlink:href="d__item_8h.html" target="_top" xlink:title=" ">
<polygon fill="#fff0f0" stroke="red" points="251,-96 156,-96 156,-77 251,-77 251,-96"/>
<text text-anchor="middle" x="203.5" y="-84" font-family="Helvetica,sans-Serif" font-size="10.00">include/d/d_item.h</text>
</a>
</g>
</g>
<!-- Node3&#45;&gt;Node16 -->
<g id="edge5" class="edge">
<title>Node3&#45;&gt;Node16</title>
<path fill="none" stroke="#63b8ff" d="M2228.94,-156.83C1927.58,-155.82 689.08,-149.13 303.5,-107 282.75,-104.73 259.88,-100.41 241.26,-96.41"/>
<polygon fill="#63b8ff" stroke="#63b8ff" points="2228.57,-160.33 2238.58,-156.86 2228.59,-153.33 2228.57,-160.33"/>
</g>
<!-- Node3&#45;&gt;Node13 -->
<g id="edge30" class="edge">
<title>Node3&#45;&gt;Node13</title>
<path fill="none" stroke="#63b8ff" d="M2228.78,-156.48C1889.75,-153.67 372.44,-139.33 336.5,-107 313.16,-86 318.64,-43.43 322.4,-24.93"/>
<polygon fill="#63b8ff" stroke="#63b8ff" points="2228.57,-159.97 2238.6,-156.56 2228.62,-152.98 2228.57,-159.97"/>
</g>
<!-- Node17 -->
<g id="node8" class="node">
<title>Node17</title>
<g id="a_node8"><a xlink:href="d__a__obj__item_8cpp.html" target="_top" xlink:title=" ">
<polygon fill="white" stroke="#666666" points="125,-24.5 0,-24.5 0,-5.5 125,-5.5 125,-24.5"/>
<text text-anchor="middle" x="62.5" y="-12.5" font-family="Helvetica,sans-Serif" font-size="10.00">src/d/a/d_a_obj_item.cpp</text>
</a>
</g>
</g>
<!-- Node3&#45;&gt;Node17 -->
<g id="edge33" class="edge">
<title>Node3&#45;&gt;Node17</title>
<path fill="none" stroke="#63b8ff" d="M2228.94,-157.04C1875.56,-157.03 231.51,-154.44 135.5,-107 99.37,-89.15 75.3,-44.06 66.37,-24.87"/>
<polygon fill="#63b8ff" stroke="#63b8ff" points="2228.72,-160.54 2238.72,-157.04 2228.72,-153.54 2228.72,-160.54"/>
</g>
<!-- Node18 -->
<g id="node9" class="node">
<title>Node18</title>
<g id="a_node9"><a xlink:href="d__com__inf__game_8cpp.html" target="_top" xlink:title=" ">
<polygon fill="white" stroke="#666666" points="251.5,-30 143.5,-30 143.5,0 251.5,0 251.5,-30"/>
<text text-anchor="start" x="151.5" y="-18" font-family="Helvetica,sans-Serif" font-size="10.00">src/d/com/d_com_inf</text>
<text text-anchor="middle" x="197.5" y="-7" font-family="Helvetica,sans-Serif" font-size="10.00">_game.cpp</text>
</a>
</g>
</g>
<!-- Node3&#45;&gt;Node18 -->
<g id="edge39" class="edge">
<title>Node3&#45;&gt;Node18</title>
<path fill="none" stroke="#63b8ff" d="M2228.71,-156.72C1869.69,-155.04 183.78,-145.16 146.5,-107 133.77,-93.97 139.44,-82.8 146.5,-66 152.55,-51.6 165,-39.26 176.08,-30.44"/>
<polygon fill="#63b8ff" stroke="#63b8ff" points="2228.65,-160.22 2238.67,-156.76 2228.68,-153.22 2228.65,-160.22"/>
</g>
<!-- Node21 -->
<g id="node10" class="node">
<title>Node21</title>
<g id="a_node10"><a xlink:href="d__kantera__icon__meter_8h.html" target="_top" xlink:title=" ">
<polygon fill="#fff0f0" stroke="red" points="447,-101.5 346,-101.5 346,-71.5 447,-71.5 447,-101.5"/>
<text text-anchor="start" x="354" y="-89.5" font-family="Helvetica,sans-Serif" font-size="10.00">include/d/d_kantera</text>
<text text-anchor="middle" x="396.5" y="-78.5" font-family="Helvetica,sans-Serif" font-size="10.00">_icon_meter.h</text>
</a>
</g>
</g>
<!-- Node3&#45;&gt;Node21 -->
<g id="edge9" class="edge">
<title>Node3&#45;&gt;Node21</title>
<path fill="none" stroke="#63b8ff" d="M2228.81,-156.34C1919.53,-153.12 632.55,-137.97 455.5,-107 448.7,-105.81 441.61,-104 434.8,-101.95"/>
<polygon fill="#63b8ff" stroke="#63b8ff" points="2228.7,-159.84 2238.73,-156.44 2228.77,-152.84 2228.7,-159.84"/>
</g>
<!-- Node24 -->
<g id="node11" class="node">
<title>Node24</title>
<g id="a_node11"><a xlink:href="d__model_8h.html" target="_top" xlink:title=" ">
<polygon fill="#fff0f0" stroke="red" points="568,-96 465,-96 465,-77 568,-77 568,-96"/>
<text text-anchor="middle" x="516.5" y="-84" font-family="Helvetica,sans-Serif" font-size="10.00">include/d/d_model.h</text>
</a>
</g>
</g>
<!-- Node3&#45;&gt;Node24 -->
<g id="edge10" class="edge">
<title>Node3&#45;&gt;Node24</title>
<path fill="none" stroke="#63b8ff" d="M2228.9,-156.18C1932.56,-152.4 741.15,-135.54 576.5,-107 563.77,-104.79 550.02,-100.48 538.91,-96.47"/>
<polygon fill="#63b8ff" stroke="#63b8ff" points="2228.73,-159.68 2238.78,-156.31 2228.82,-152.68 2228.73,-159.68"/>
</g>
<!-- Node26 -->
<g id="node12" class="node">
<title>Node26</title>
<g id="a_node12"><a xlink:href="d__name_8h.html" target="_top" xlink:title=" ">
<polygon fill="#fff0f0" stroke="red" points="687,-96 586,-96 586,-77 687,-77 687,-96"/>
<text text-anchor="middle" x="636.5" y="-84" font-family="Helvetica,sans-Serif" font-size="10.00">include/d/d_name.h</text>
</a>
</g>
</g>
<!-- Node3&#45;&gt;Node26 -->
<g id="edge11" class="edge">
<title>Node3&#45;&gt;Node26</title>
<path fill="none" stroke="#63b8ff" d="M2229.09,-157.42C1966.19,-158.69 998.11,-159.63 696.5,-107 683.77,-104.78 670.03,-100.46 658.91,-96.45"/>
<polygon fill="#63b8ff" stroke="#63b8ff" points="2228.84,-160.92 2238.82,-157.37 2228.81,-153.92 2228.84,-160.92"/>
</g>
<!-- Node28 -->
<g id="node13" class="node">
<title>Node28</title>
<g id="a_node13"><a xlink:href="d__file__sel__info_8h.html" target="_top" xlink:title=" ">
<polygon fill="#fff0f0" stroke="red" points="801.5,-101.5 705.5,-101.5 705.5,-71.5 801.5,-71.5 801.5,-101.5"/>
<text text-anchor="start" x="713.5" y="-89.5" font-family="Helvetica,sans-Serif" font-size="10.00">include/d/file/d_file</text>
<text text-anchor="middle" x="753.5" y="-78.5" font-family="Helvetica,sans-Serif" font-size="10.00">_sel_info.h</text>
</a>
</g>
</g>
<!-- Node3&#45;&gt;Node28 -->
<g id="edge12" class="edge">
<title>Node3&#45;&gt;Node28</title>
<path fill="none" stroke="#63b8ff" d="M2228.9,-157.37C1977.76,-158.34 1088.35,-158.03 810.5,-107 803.92,-105.79 797.06,-103.97 790.48,-101.91"/>
<polygon fill="#63b8ff" stroke="#63b8ff" points="2228.87,-160.87 2238.85,-157.32 2228.84,-153.87 2228.87,-160.87"/>
</g>
<!-- Node31 -->
<g id="node14" class="node">
<title>Node31</title>
<g id="a_node14"><a xlink:href="d__file__sel__warning_8h.html" target="_top" xlink:title=" ">
<polygon fill="#fff0f0" stroke="red" points="915.5,-101.5 819.5,-101.5 819.5,-71.5 915.5,-71.5 915.5,-101.5"/>
<text text-anchor="start" x="827.5" y="-89.5" font-family="Helvetica,sans-Serif" font-size="10.00">include/d/file/d_file</text>
<text text-anchor="middle" x="867.5" y="-78.5" font-family="Helvetica,sans-Serif" font-size="10.00">_sel_warning.h</text>
</a>
</g>
</g>
<!-- Node3&#45;&gt;Node31 -->
<g id="edge13" class="edge">
<title>Node3&#45;&gt;Node31</title>
<path fill="none" stroke="#63b8ff" d="M2228.88,-157.15C1990.29,-157.27 1179.12,-154.13 924.5,-107 918.02,-105.8 911.28,-104.01 904.8,-101.99"/>
<polygon fill="#63b8ff" stroke="#63b8ff" points="2228.63,-160.65 2238.63,-157.14 2228.62,-153.65 2228.63,-160.65"/>
</g>
<!-- Node33 -->
<g id="node15" class="node">
<title>Node33</title>
<g id="a_node15"><a xlink:href="d__meter2_8h.html" target="_top" xlink:title=" ">
<polygon fill="#fff0f0" stroke="red" points="1067.5,-96 933.5,-96 933.5,-77 1067.5,-77 1067.5,-96"/>
<text text-anchor="middle" x="1000.5" y="-84" font-family="Helvetica,sans-Serif" font-size="10.00">include/d/meter/d_meter2.h</text>
</a>
</g>
</g>
<!-- Node3&#45;&gt;Node33 -->
<g id="edge14" class="edge">
<title>Node3&#45;&gt;Node33</title>
<path fill="none" stroke="#63b8ff" d="M2228.67,-155.96C2008.29,-152.28 1305.86,-138.32 1081.5,-107 1064.74,-104.66 1046.38,-100.39 1031.38,-96.43"/>
<polygon fill="#63b8ff" stroke="#63b8ff" points="2228.46,-159.46 2238.52,-156.13 2228.58,-152.46 2228.46,-159.46"/>
</g>
<!-- Node40 -->
<g id="node16" class="node">
<title>Node40</title>
<g id="a_node16"><a xlink:href="d__msg__object_8h.html" target="_top" xlink:title=" ">
<polygon fill="#fff0f0" stroke="red" points="1233.5,-101.5 1123.5,-101.5 1123.5,-71.5 1233.5,-71.5 1233.5,-101.5"/>
<text text-anchor="start" x="1131.5" y="-89.5" font-family="Helvetica,sans-Serif" font-size="10.00">include/d/msg/d_msg</text>
<text text-anchor="middle" x="1178.5" y="-78.5" font-family="Helvetica,sans-Serif" font-size="10.00">_object.h</text>
</a>
</g>
</g>
<!-- Node3&#45;&gt;Node40 -->
<g id="edge15" class="edge">
<title>Node3&#45;&gt;Node40</title>
<path fill="none" stroke="#63b8ff" d="M2228.85,-155.8C2029.12,-151.9 1437.65,-137.99 1247.5,-107 1239.88,-105.76 1231.91,-103.97 1224.2,-101.98"/>
<polygon fill="#63b8ff" stroke="#63b8ff" points="2228.73,-159.3 2238.8,-156 2228.86,-152.3 2228.73,-159.3"/>
</g>
<!-- Node45 -->
<g id="node17" class="node">
<title>Node45</title>
<g id="a_node17"><a xlink:href="d__demo_8cpp.html" target="_top" xlink:title=" ">
<polygon fill="white" stroke="#666666" points="1120.5,-24.5 1026.5,-24.5 1026.5,-5.5 1120.5,-5.5 1120.5,-24.5"/>
<text text-anchor="middle" x="1073.5" y="-12.5" font-family="Helvetica,sans-Serif" font-size="10.00">src/d/d_demo.cpp</text>
</a>
</g>
</g>
<!-- Node3&#45;&gt;Node45 -->
<g id="edge44" class="edge">
<title>Node3&#45;&gt;Node45</title>
<path fill="none" stroke="#63b8ff" d="M2228.81,-156.1C1986,-152.59 1160.85,-138.37 1114.5,-107 1086.08,-87.77 1077.1,-43.85 1074.48,-24.94"/>
<polygon fill="#63b8ff" stroke="#63b8ff" points="2228.71,-159.6 2238.75,-156.24 2228.81,-152.6 2228.71,-159.6"/>
</g>
<!-- Node46 -->
<g id="node18" class="node">
<title>Node46</title>
<g id="a_node18"><a xlink:href="d__event_8cpp.html" target="_top" xlink:title=" ">
<polygon fill="white" stroke="#666666" points="1260,-24.5 1139,-24.5 1139,-5.5 1260,-5.5 1260,-24.5"/>
<text text-anchor="middle" x="1199.5" y="-12.5" font-family="Helvetica,sans-Serif" font-size="10.00">src/d/event/d_event.cpp</text>
</a>
</g>
</g>
<!-- Node3&#45;&gt;Node46 -->
<g id="edge53" class="edge">
<title>Node3&#45;&gt;Node46</title>
<path fill="none" stroke="#63b8ff" d="M2228.86,-156.15C2020.43,-153.13 1389.7,-141.25 1304.5,-107 1259.96,-89.09 1221.22,-44.04 1206.17,-24.86"/>
<polygon fill="#63b8ff" stroke="#63b8ff" points="2228.66,-159.64 2238.71,-156.29 2228.76,-152.65 2228.66,-159.64"/>
</g>
<!-- Node47 -->
<g id="node19" class="node">
<title>Node47</title>
<g id="a_node19"><a xlink:href="d__event__data_8cpp.html" target="_top" xlink:title=" ">
<polygon fill="white" stroke="#666666" points="1381,-30 1278,-30 1278,0 1381,0 1381,-30"/>
<text text-anchor="start" x="1286" y="-18" font-family="Helvetica,sans-Serif" font-size="10.00">src/d/event/d_event</text>
<text text-anchor="middle" x="1329.5" y="-7" font-family="Helvetica,sans-Serif" font-size="10.00">_data.cpp</text>
</a>
</g>
</g>
<!-- Node3&#45;&gt;Node47 -->
<g id="edge54" class="edge">
<title>Node3&#45;&gt;Node47</title>
<path fill="none" stroke="#63b8ff" d="M2228.69,-156.08C2013.39,-152.78 1349.84,-139.98 1318.5,-107 1298.99,-86.46 1311.93,-50.49 1321.62,-30.48"/>
<polygon fill="#63b8ff" stroke="#63b8ff" points="2228.55,-159.58 2238.6,-156.23 2228.65,-152.58 2228.55,-159.58"/>
</g>
<!-- Node48 -->
<g id="node20" class="node">
<title>Node48</title>
<g id="a_node20"><a xlink:href="d__kankyo_8cpp.html" target="_top" xlink:title=" ">
<polygon fill="white" stroke="#666666" points="1794.5,-24.5 1660.5,-24.5 1660.5,-5.5 1794.5,-5.5 1794.5,-24.5"/>
<text text-anchor="middle" x="1727.5" y="-12.5" font-family="Helvetica,sans-Serif" font-size="10.00">src/d/kankyo/d_kankyo.cpp</text>
</a>
</g>
</g>
<!-- Node3&#45;&gt;Node48 -->
<g id="edge57" class="edge">
<title>Node3&#45;&gt;Node48</title>
<path fill="none" stroke="#63b8ff" d="M2228.85,-157.26C2148.82,-155.61 2011.61,-146.51 1901.5,-107 1869.35,-95.47 1866.53,-82.27 1836.5,-66 1807.03,-50.04 1771.51,-34.38 1749.21,-24.95"/>
<polygon fill="#63b8ff" stroke="#63b8ff" points="2228.66,-160.75 2238.72,-157.42 2228.78,-153.75 2228.66,-160.75"/>
</g>
<!-- Node54 -->
<g id="node21" class="node">
<title>Node54</title>
<g id="a_node21"><a xlink:href="d__s__logo_8h.html" target="_top" xlink:title=" ">
<polygon fill="#fff0f0" stroke="red" points="1441,-96 1328,-96 1328,-77 1441,-77 1441,-96"/>
<text text-anchor="middle" x="1384.5" y="-84" font-family="Helvetica,sans-Serif" font-size="10.00">include/d/s/d_s_logo.h</text>
</a>
</g>
</g>
<!-- Node3&#45;&gt;Node54 -->
<g id="edge21" class="edge">
<title>Node3&#45;&gt;Node54</title>
<path fill="none" stroke="#63b8ff" d="M2228.71,-155.06C2056.21,-149.72 1598.82,-133.44 1449.5,-107 1436.04,-104.62 1421.44,-100.39 1409.48,-96.48"/>
<polygon fill="#63b8ff" stroke="#63b8ff" points="2228.53,-158.55 2238.63,-155.36 2228.75,-151.56 2228.53,-158.55"/>
</g>
<!-- Node56 -->
<g id="node22" class="node">
<title>Node56</title>
<g id="a_node22"><a xlink:href="d__s__play_8h.html" target="_top" xlink:title=" ">
<polygon fill="#fff0f0" stroke="red" points="1572,-96 1459,-96 1459,-77 1572,-77 1572,-96"/>
<text text-anchor="middle" x="1515.5" y="-84" font-family="Helvetica,sans-Serif" font-size="10.00">include/d/s/d_s_play.h</text>
</a>
</g>
</g>
<!-- Node3&#45;&gt;Node56 -->
<g id="edge22" class="edge">
<title>Node3&#45;&gt;Node56</title>
<path fill="none" stroke="#63b8ff" d="M2228.82,-157.24C2101.66,-156.62 1816.13,-150.03 1580.5,-107 1567.06,-104.54 1552.45,-100.31 1540.49,-96.41"/>
<polygon fill="#63b8ff" stroke="#63b8ff" points="2228.74,-160.74 2238.75,-157.28 2228.76,-153.74 2228.74,-160.74"/>
</g>
<!-- Node60 -->
<g id="node23" class="node">
<title>Node60</title>
<g id="a_node23"><a xlink:href="d__msg__scrn__base_8h.html" target="_top" xlink:title=" ">
<polygon fill="#fff0f0" stroke="red" points="1689,-101.5 1590,-101.5 1590,-71.5 1689,-71.5 1689,-101.5"/>
<text text-anchor="start" x="1598" y="-89.5" font-family="Helvetica,sans-Serif" font-size="10.00">include/msg/scrn/d</text>
<text text-anchor="middle" x="1639.5" y="-78.5" font-family="Helvetica,sans-Serif" font-size="10.00">_msg_scrn_base.h</text>
</a>
</g>
</g>
<!-- Node3&#45;&gt;Node60 -->
<g id="edge23" class="edge">
<title>Node3&#45;&gt;Node60</title>
<path fill="none" stroke="#63b8ff" d="M2228.67,-156.63C2117.36,-154.87 1887.43,-146.27 1697.5,-107 1691.15,-105.69 1684.54,-103.89 1678.14,-101.92"/>
<polygon fill="#63b8ff" stroke="#63b8ff" points="2228.48,-160.13 2238.53,-156.78 2228.58,-153.13 2228.48,-160.13"/>
</g>
<!-- Node64 -->
<g id="node24" class="node">
<title>Node64</title>
<g id="a_node24"><a xlink:href="d__a__b__zant_8h.html" target="_top" xlink:title=" ">
<polygon fill="white" stroke="#666666" points="1828,-101.5 1707,-101.5 1707,-71.5 1828,-71.5 1828,-101.5"/>
<text text-anchor="start" x="1715" y="-89.5" font-family="Helvetica,sans-Serif" font-size="10.00">include/rel/d/a/b/d</text>
<text text-anchor="middle" x="1767.5" y="-78.5" font-family="Helvetica,sans-Serif" font-size="10.00">_a_b_zant/d_a_b_zant.h</text>
</a>
</g>
</g>
<!-- Node3&#45;&gt;Node64 -->
<g id="edge24" class="edge">
<title>Node3&#45;&gt;Node64</title>
<path fill="none" stroke="#63b8ff" d="M2228.8,-152.67C2140.06,-146.21 1978.55,-132.06 1842.5,-107 1834.83,-105.59 1826.78,-103.81 1818.92,-101.91"/>
<polygon fill="#63b8ff" stroke="#63b8ff" points="2228.3,-156.14 2238.53,-153.36 2228.8,-149.16 2228.3,-156.14"/>
</g>
<!-- Node65 -->
<g id="node25" class="node">
<title>Node65</title>
<g id="a_node25"><a xlink:href="d__a__spinner_8h.html" target="_top" xlink:title=" ">
<polygon fill="white" stroke="#666666" points="5059.5,-101.5 4943.5,-101.5 4943.5,-71.5 5059.5,-71.5 5059.5,-101.5"/>
<text text-anchor="start" x="4951.5" y="-89.5" font-family="Helvetica,sans-Serif" font-size="10.00">include/rel/d/a/d_a</text>
<text text-anchor="middle" x="5001.5" y="-78.5" font-family="Helvetica,sans-Serif" font-size="10.00">_spinner/d_a_spinner.h</text>
</a>
</g>
</g>
<!-- Node3&#45;&gt;Node65 -->
<g id="edge25" class="edge">
<title>Node3&#45;&gt;Node65</title>
<path fill="none" stroke="#63b8ff" d="M2362.2,-145.46C2369.71,-144.47 2377.26,-143.62 2384.5,-143 2949.17,-94.85 4374.03,-190.94 4934.5,-107 4942.29,-105.83 4950.44,-104 4958.27,-101.92"/>
<polygon fill="#63b8ff" stroke="#63b8ff" points="2361.82,-141.98 2352.4,-146.83 2362.79,-148.91 2361.82,-141.98"/>
</g>
<!-- Node66 -->
<g id="node26" class="node">
<title>Node66</title>
<g id="a_node26"><a xlink:href="d__a__player_8cpp.html" target="_top" xlink:title=" ">
<polygon fill="white" stroke="#666666" points="2079.5,-24.5 1965.5,-24.5 1965.5,-5.5 2079.5,-5.5 2079.5,-24.5"/>
<text text-anchor="middle" x="2022.5" y="-12.5" font-family="Helvetica,sans-Serif" font-size="10.00">src/d/a/d_a_player.cpp</text>
</a>
</g>
</g>
<!-- Node3&#45;&gt;Node66 -->
<g id="edge34" class="edge">
<title>Node3&#45;&gt;Node66</title>
<path fill="none" stroke="#63b8ff" d="M2228.87,-152.99C2124.94,-146.06 1933.94,-130.29 1913.5,-107 1901.48,-93.3 1903.66,-81.34 1913.5,-66 1927.38,-44.36 1953.24,-31.96 1976.28,-24.92"/>
<polygon fill="#63b8ff" stroke="#63b8ff" points="2228.46,-156.48 2238.67,-153.64 2228.92,-149.49 2228.46,-156.48"/>
</g>
<!-- Node67 -->
<g id="node27" class="node">
<title>Node67</title>
<g id="a_node27"><a xlink:href="d__a__obj__yobikusa_8h.html" target="_top" xlink:title=" ">
<polygon fill="white" stroke="#666666" points="2028,-107 1923,-107 1923,-66 2028,-66 2028,-107"/>
<text text-anchor="start" x="1931" y="-95" font-family="Helvetica,sans-Serif" font-size="10.00">include/rel/d/a/obj</text>
<text text-anchor="start" x="1931" y="-84" font-family="Helvetica,sans-Serif" font-size="10.00">/d_a_obj_yobikusa/d</text>
<text text-anchor="middle" x="1975.5" y="-73" font-family="Helvetica,sans-Serif" font-size="10.00">_a_obj_yobikusa.h</text>
</a>
</g>
</g>
<!-- Node3&#45;&gt;Node67 -->
<g id="edge27" class="edge">
<title>Node3&#45;&gt;Node67</title>
<path fill="none" stroke="#63b8ff" d="M2229.08,-146.26C2176.71,-137.28 2101.99,-123.33 2037.5,-107 2034.55,-106.25 2031.53,-105.44 2028.49,-104.6"/>
<polygon fill="#63b8ff" stroke="#63b8ff" points="2228.3,-149.68 2238.75,-147.9 2229.48,-142.78 2228.3,-149.68"/>
</g>
<!-- Node68 -->
<g id="node28" class="node">
<title>Node68</title>
<g id="a_node28"><a xlink:href="d__a__tag__telop_8h.html" target="_top" xlink:title=" ">
<polygon fill="white" stroke="#666666" points="2164.5,-107 2046.5,-107 2046.5,-66 2164.5,-66 2164.5,-107"/>
<text text-anchor="start" x="2054.5" y="-95" font-family="Helvetica,sans-Serif" font-size="10.00">include/rel/d/a/tag</text>
<text text-anchor="start" x="2054.5" y="-84" font-family="Helvetica,sans-Serif" font-size="10.00">/d_a_tag_telop/d_a_tag</text>
<text text-anchor="middle" x="2105.5" y="-73" font-family="Helvetica,sans-Serif" font-size="10.00">_telop.h</text>
</a>
</g>
</g>
<!-- Node3&#45;&gt;Node68 -->
<g id="edge28" class="edge">
<title>Node3&#45;&gt;Node68</title>
<path fill="none" stroke="#63b8ff" d="M2245.62,-138.75C2219.29,-129.12 2186.93,-117.29 2159.95,-107.42"/>
<polygon fill="#63b8ff" stroke="#63b8ff" points="2244.12,-141.93 2254.71,-142.08 2246.52,-135.36 2244.12,-141.93"/>
</g>
<!-- Node69 -->
<g id="node29" class="node">
<title>Node69</title>
<g id="a_node29"><a xlink:href="c__dylink_8cpp.html" target="_top" xlink:title=" ">
<polygon fill="white" stroke="#666666" points="2278,-96 2183,-96 2183,-77 2278,-77 2278,-96"/>
<text text-anchor="middle" x="2230.5" y="-84" font-family="Helvetica,sans-Serif" font-size="10.00">src/c/c_dylink.cpp</text>
</a>
</g>
</g>
<!-- Node3&#45;&gt;Node69 -->
<g id="edge29" class="edge">
<title>Node3&#45;&gt;Node69</title>
<path fill="none" stroke="#63b8ff" d="M2274.45,-134.49C2262.23,-121.43 2247.54,-105.72 2238.62,-96.18"/>
<polygon fill="#63b8ff" stroke="#63b8ff" points="2271.61,-136.58 2281,-141.49 2276.72,-131.8 2271.61,-136.58"/>
</g>
<!-- Node70 -->
<g id="node30" class="node">
<title>Node70</title>
<g id="a_node30"><a xlink:href="d__a__itembase_8cpp.html" target="_top" xlink:title=" ">
<polygon fill="white" stroke="#666666" points="2424.5,-96 2296.5,-96 2296.5,-77 2424.5,-77 2424.5,-96"/>
<text text-anchor="middle" x="2360.5" y="-84" font-family="Helvetica,sans-Serif" font-size="10.00">src/d/a/d_a_itembase.cpp</text>
</a>
</g>
</g>
<!-- Node3&#45;&gt;Node70 -->
<g id="edge31" class="edge">
<title>Node3&#45;&gt;Node70</title>
<path fill="none" stroke="#63b8ff" d="M2316.55,-134.49C2328.77,-121.43 2343.46,-105.72 2352.38,-96.18"/>
<polygon fill="#63b8ff" stroke="#63b8ff" points="2314.28,-131.8 2310,-141.49 2319.39,-136.58 2314.28,-131.8"/>
</g>
<!-- Node71 -->
<g id="node31" class="node">
<title>Node71</title>
<g id="a_node31"><a xlink:href="d__a__obj_8cpp.html" target="_top" xlink:title=" ">
<polygon fill="white" stroke="#666666" points="2544,-96 2443,-96 2443,-77 2544,-77 2544,-96"/>
<text text-anchor="middle" x="2493.5" y="-84" font-family="Helvetica,sans-Serif" font-size="10.00">src/d/a/d_a_obj.cpp</text>
</a>
</g>
</g>
<!-- Node3&#45;&gt;Node71 -->
<g id="edge32" class="edge">
<title>Node3&#45;&gt;Node71</title>
<path fill="none" stroke="#63b8ff" d="M2347.11,-138.88C2385.94,-125.26 2437.49,-107.16 2467.92,-96.48"/>
<polygon fill="#63b8ff" stroke="#63b8ff" points="2346.23,-135.48 2337.95,-142.1 2348.55,-142.09 2346.23,-135.48"/>
</g>
<!-- Node72 -->
<g id="node32" class="node">
<title>Node72</title>
<g id="a_node32"><a xlink:href="d__bg__s_8cpp.html" target="_top" xlink:title=" ">
<polygon fill="white" stroke="#666666" points="2666.5,-96 2562.5,-96 2562.5,-77 2666.5,-77 2666.5,-96"/>
<text text-anchor="middle" x="2614.5" y="-84" font-family="Helvetica,sans-Serif" font-size="10.00">src/d/bg/d_bg_s.cpp</text>
</a>
</g>
</g>
<!-- Node3&#45;&gt;Node72 -->
<g id="edge35" class="edge">
<title>Node3&#45;&gt;Node72</title>
<path fill="none" stroke="#63b8ff" d="M2361.94,-146.35C2414.33,-137.41 2489.05,-123.48 2553.5,-107 2565.24,-104 2578.04,-100.02 2588.87,-96.43"/>
<polygon fill="#63b8ff" stroke="#63b8ff" points="2361.55,-142.86 2352.27,-147.98 2362.71,-149.76 2361.55,-142.86"/>
</g>
<!-- Node73 -->
<g id="node33" class="node">
<title>Node73</title>
<g id="a_node33"><a xlink:href="d__bg__s__movebg__actor_8cpp.html" target="_top" xlink:title=" ">
<polygon fill="white" stroke="#666666" points="2810.5,-101.5 2684.5,-101.5 2684.5,-71.5 2810.5,-71.5 2810.5,-101.5"/>
<text text-anchor="start" x="2692.5" y="-89.5" font-family="Helvetica,sans-Serif" font-size="10.00">src/d/bg/d_bg_s_movebg</text>
<text text-anchor="middle" x="2747.5" y="-78.5" font-family="Helvetica,sans-Serif" font-size="10.00">_actor.cpp</text>
</a>
</g>
</g>
<!-- Node3&#45;&gt;Node73 -->
<g id="edge36" class="edge">
<title>Node3&#45;&gt;Node73</title>
<path fill="none" stroke="#63b8ff" d="M2361.71,-146.34C2369.39,-145.18 2377.11,-144.04 2384.5,-143 2513.55,-124.87 2547.62,-132.1 2675.5,-107 2682.74,-105.58 2690.33,-103.82 2697.75,-101.95"/>
<polygon fill="#63b8ff" stroke="#63b8ff" points="2361.38,-142.85 2352.03,-147.82 2362.44,-149.77 2361.38,-142.85"/>
</g>
<!-- Node74 -->
<g id="node34" class="node">
<title>Node74</title>
<g id="a_node34"><a xlink:href="d__bg__w_8cpp.html" target="_top" xlink:title=" ">
<polygon fill="white" stroke="#666666" points="2936,-96 2829,-96 2829,-77 2936,-77 2936,-96"/>
<text text-anchor="middle" x="2882.5" y="-84" font-family="Helvetica,sans-Serif" font-size="10.00">src/d/bg/d_bg_w.cpp</text>
</a>
</g>
</g>
<!-- Node3&#45;&gt;Node74 -->
<g id="edge37" class="edge">
<title>Node3&#45;&gt;Node74</title>
<path fill="none" stroke="#63b8ff" d="M2362.26,-145.96C2369.75,-144.88 2377.28,-143.87 2384.5,-143 2577.12,-119.91 2629.05,-143.9 2819.5,-107 2832.43,-104.5 2846.45,-100.31 2857.98,-96.45"/>
<polygon fill="#63b8ff" stroke="#63b8ff" points="2361.84,-142.48 2352.46,-147.41 2362.86,-149.4 2361.84,-142.48"/>
</g>
<!-- Node75 -->
<g id="node35" class="node">
<title>Node75</title>
<g id="a_node35"><a xlink:href="d__cc__s_8cpp.html" target="_top" xlink:title=" ">
<polygon fill="white" stroke="#666666" points="3058.5,-96 2954.5,-96 2954.5,-77 3058.5,-77 3058.5,-96"/>
<text text-anchor="middle" x="3006.5" y="-84" font-family="Helvetica,sans-Serif" font-size="10.00">src/d/cc/d_cc_s.cpp</text>
</a>
</g>
</g>
<!-- Node3&#45;&gt;Node75 -->
<g id="edge38" class="edge">
<title>Node3&#45;&gt;Node75</title>
<path fill="none" stroke="#63b8ff" d="M2362.24,-145.82C2369.74,-144.77 2377.27,-143.8 2384.5,-143 2632.83,-115.56 2700,-153.39 2945.5,-107 2958.17,-104.61 2971.89,-100.38 2983.09,-96.47"/>
<polygon fill="#63b8ff" stroke="#63b8ff" points="2361.83,-142.34 2352.44,-147.25 2362.84,-149.27 2361.83,-142.34"/>
</g>
<!-- Node76 -->
<g id="node36" class="node">
<title>Node76</title>
<g id="a_node36"><a xlink:href="d__com__static_8cpp.html" target="_top" xlink:title=" ">
<polygon fill="white" stroke="#666666" points="3216.5,-96 3076.5,-96 3076.5,-77 3216.5,-77 3216.5,-96"/>
<text text-anchor="middle" x="3146.5" y="-84" font-family="Helvetica,sans-Serif" font-size="10.00">src/d/com/d_com_static.cpp</text>
</a>
</g>
</g>
<!-- Node3&#45;&gt;Node76 -->
<g id="edge40" class="edge">
<title>Node3&#45;&gt;Node76</title>
<path fill="none" stroke="#63b8ff" d="M2362.23,-145.74C2369.73,-144.7 2377.27,-143.76 2384.5,-143 2686.82,-111.34 2766.82,-151.62 3067.5,-107 3083.71,-104.59 3101.45,-100.37 3116.01,-96.46"/>
<polygon fill="#63b8ff" stroke="#63b8ff" points="2361.82,-142.26 2352.43,-147.16 2362.83,-149.19 2361.82,-142.26"/>
</g>
<!-- Node3&#45;&gt;Node77 -->
<g id="edge41" class="edge">
<title>Node3&#45;&gt;Node77</title>
<path fill="none" stroke="#63b8ff" d="M2362.2,-145.45C2369.71,-144.47 2377.26,-143.62 2384.5,-143 2681.68,-117.76 4773.91,-153.57 5068.5,-107 5081.96,-104.87 5096.52,-100.51 5108.25,-96.45"/>
<polygon fill="#63b8ff" stroke="#63b8ff" points="2361.82,-141.97 2352.4,-146.83 2362.79,-148.91 2361.82,-141.97"/>
</g>
<!-- Node78 -->
<g id="node38" class="node">
<title>Node78</title>
<g id="a_node38"><a xlink:href="d__cam__param_8cpp.html" target="_top" xlink:title=" ">
<polygon fill="white" stroke="#666666" points="3356,-96 3235,-96 3235,-77 3356,-77 3356,-96"/>
<text text-anchor="middle" x="3295.5" y="-84" font-family="Helvetica,sans-Serif" font-size="10.00">src/d/d_cam_param.cpp</text>
</a>
</g>
</g>
<!-- Node3&#45;&gt;Node78 -->
<g id="edge42" class="edge">
<title>Node3&#45;&gt;Node78</title>
<path fill="none" stroke="#63b8ff" d="M2362.22,-145.67C2369.72,-144.64 2377.27,-143.72 2384.5,-143 2756.77,-105.87 2855.99,-165.58 3225.5,-107 3240.08,-104.69 3255.95,-100.42 3268.89,-96.46"/>
<polygon fill="#63b8ff" stroke="#63b8ff" points="2361.82,-142.19 2352.42,-147.07 2362.82,-149.12 2361.82,-142.19"/>
</g>
<!-- Node79 -->
<g id="node39" class="node">
<title>Node79</title>
<g id="a_node39"><a xlink:href="d__camera_8cpp.html" target="_top" xlink:title=" ">
<polygon fill="white" stroke="#666666" points="3476.5,-96 3374.5,-96 3374.5,-77 3476.5,-77 3476.5,-96"/>
<text text-anchor="middle" x="3425.5" y="-84" font-family="Helvetica,sans-Serif" font-size="10.00">src/d/d_camera.cpp</text>
</a>
</g>
</g>
<!-- Node3&#45;&gt;Node79 -->
<g id="edge43" class="edge">
<title>Node3&#45;&gt;Node79</title>
<path fill="none" stroke="#63b8ff" d="M2362.22,-145.62C2369.72,-144.61 2377.26,-143.7 2384.5,-143 2818.77,-101.03 2935.9,-183.16 3365.5,-107 3378.23,-104.74 3391.97,-100.42 3403.09,-96.42"/>
<polygon fill="#63b8ff" stroke="#63b8ff" points="2361.82,-142.14 2352.42,-147.02 2362.81,-149.07 2361.82,-142.14"/>
</g>
<!-- Node80 -->
<g id="node40" class="node">
<title>Node80</title>
<g id="a_node40"><a xlink:href="d__eye__hl_8cpp.html" target="_top" xlink:title=" ">
<polygon fill="white" stroke="#666666" points="3592.5,-96 3494.5,-96 3494.5,-77 3592.5,-77 3592.5,-96"/>
<text text-anchor="middle" x="3543.5" y="-84" font-family="Helvetica,sans-Serif" font-size="10.00">src/d/d_eye_hl.cpp</text>
</a>
</g>
</g>
<!-- Node3&#45;&gt;Node80 -->
<g id="edge45" class="edge">
<title>Node3&#45;&gt;Node80</title>
<path fill="none" stroke="#63b8ff" d="M2362.22,-145.59C2369.72,-144.58 2377.26,-143.69 2384.5,-143 2628.21,-119.94 3244.59,-150.47 3485.5,-107 3497.84,-104.77 3511.12,-100.46 3521.86,-96.45"/>
<polygon fill="#63b8ff" stroke="#63b8ff" points="2361.82,-142.11 2352.41,-146.99 2362.81,-149.05 2361.82,-142.11"/>
</g>
<!-- Node81 -->
<g id="node41" class="node">
<title>Node81</title>
<g id="a_node41"><a xlink:href="d__kyeff_8cpp.html" target="_top" xlink:title=" ">
<polygon fill="white" stroke="#666666" points="3700.5,-96 3610.5,-96 3610.5,-77 3700.5,-77 3700.5,-96"/>
<text text-anchor="middle" x="3655.5" y="-84" font-family="Helvetica,sans-Serif" font-size="10.00">src/d/d_kyeff.cpp</text>
</a>
</g>
</g>
<!-- Node3&#45;&gt;Node81 -->
<g id="edge46" class="edge">
<title>Node3&#45;&gt;Node81</title>
<path fill="none" stroke="#63b8ff" d="M2362.22,-145.57C2369.72,-144.56 2377.26,-143.67 2384.5,-143 2653.9,-117.93 3335.71,-157.58 3601.5,-107 3613.05,-104.8 3625.43,-100.49 3635.42,-96.47"/>
<polygon fill="#63b8ff" stroke="#63b8ff" points="2361.82,-142.09 2352.41,-146.96 2362.8,-149.02 2361.82,-142.09"/>
</g>
<!-- Node82 -->
<g id="node42" class="node">
<title>Node82</title>
<g id="a_node42"><a xlink:href="d__path_8cpp.html" target="_top" xlink:title=" ">
<polygon fill="white" stroke="#666666" points="3808,-96 3719,-96 3719,-77 3808,-77 3808,-96"/>
<text text-anchor="middle" x="3763.5" y="-84" font-family="Helvetica,sans-Serif" font-size="10.00">src/d/d_path.cpp</text>
</a>
</g>
</g>
<!-- Node3&#45;&gt;Node82 -->
<g id="edge47" class="edge">
<title>Node3&#45;&gt;Node82</title>
<path fill="none" stroke="#63b8ff" d="M2362.21,-145.55C2369.71,-144.55 2377.26,-143.67 2384.5,-143 2677.82,-116.06 3420.07,-161.72 3709.5,-107 3721.06,-104.82 3733.43,-100.5 3743.42,-96.49"/>
<polygon fill="#63b8ff" stroke="#63b8ff" points="2361.82,-142.07 2352.41,-146.94 2362.8,-149.01 2361.82,-142.07"/>
</g>
<!-- Node83 -->
<g id="node43" class="node">
<title>Node83</title>
<g id="a_node43"><a xlink:href="d__resorce_8cpp.html" target="_top" xlink:title=" ">
<polygon fill="white" stroke="#666666" points="3928.5,-96 3826.5,-96 3826.5,-77 3928.5,-77 3928.5,-96"/>
<text text-anchor="middle" x="3877.5" y="-84" font-family="Helvetica,sans-Serif" font-size="10.00">src/d/d_resorce.cpp</text>
</a>
</g>
</g>
<!-- Node3&#45;&gt;Node83 -->
<g id="edge48" class="edge">
<title>Node3&#45;&gt;Node83</title>
<path fill="none" stroke="#63b8ff" d="M2362.21,-145.54C2369.71,-144.54 2377.26,-143.66 2384.5,-143 2701.74,-114.19 3503.53,-160.79 3817.5,-107 3830.24,-104.82 3843.98,-100.5 3855.1,-96.49"/>
<polygon fill="#63b8ff" stroke="#63b8ff" points="2361.82,-142.06 2352.41,-146.92 2362.8,-148.99 2361.82,-142.06"/>
</g>
<!-- Node84 -->
<g id="node44" class="node">
<title>Node84</title>
<g id="a_node44"><a xlink:href="d__simple__model_8cpp.html" target="_top" xlink:title=" ">
<polygon fill="white" stroke="#666666" points="4076.5,-96 3946.5,-96 3946.5,-77 4076.5,-77 4076.5,-96"/>
<text text-anchor="middle" x="4011.5" y="-84" font-family="Helvetica,sans-Serif" font-size="10.00">src/d/d_simple_model.cpp</text>
</a>
</g>
</g>
<!-- Node3&#45;&gt;Node84 -->
<g id="edge49" class="edge">
<title>Node3&#45;&gt;Node84</title>
<path fill="none" stroke="#63b8ff" d="M2362.21,-145.52C2369.71,-144.53 2377.26,-143.65 2384.5,-143 2728.32,-112.11 3595.69,-155.31 3937.5,-107 3953.02,-104.81 3969.96,-100.49 3983.71,-96.48"/>
<polygon fill="#63b8ff" stroke="#63b8ff" points="2361.82,-142.05 2352.4,-146.91 2362.8,-148.98 2361.82,-142.05"/>
</g>
<!-- Node85 -->
<g id="node45" class="node">
<title>Node85</title>
<g id="a_node45"><a xlink:href="d__stage_8cpp.html" target="_top" xlink:title=" ">
<polygon fill="white" stroke="#666666" points="4188.5,-96 4094.5,-96 4094.5,-77 4188.5,-77 4188.5,-96"/>
<text text-anchor="middle" x="4141.5" y="-84" font-family="Helvetica,sans-Serif" font-size="10.00">src/d/d_stage.cpp</text>
</a>
</g>
</g>
<!-- Node3&#45;&gt;Node85 -->
<g id="edge50" class="edge">
<title>Node3&#45;&gt;Node85</title>
<path fill="none" stroke="#63b8ff" d="M2362.21,-145.51C2369.71,-144.51 2377.26,-143.64 2384.5,-143 2761.1,-109.55 3713.4,-173.99 4085.5,-107 4097.56,-104.83 4110.51,-100.46 4120.91,-96.41"/>
<polygon fill="#63b8ff" stroke="#63b8ff" points="2361.82,-142.03 2352.4,-146.89 2362.79,-148.96 2361.82,-142.03"/>
</g>
<!-- Node86 -->
<g id="node46" class="node">
<title>Node86</title>
<g id="a_node46"><a xlink:href="d__timer_8cpp.html" target="_top" xlink:title=" ">
<polygon fill="white" stroke="#666666" points="4298.5,-96 4206.5,-96 4206.5,-77 4298.5,-77 4298.5,-96"/>
<text text-anchor="middle" x="4252.5" y="-84" font-family="Helvetica,sans-Serif" font-size="10.00">src/d/d_timer.cpp</text>
</a>
</g>
</g>
<!-- Node3&#45;&gt;Node86 -->
<g id="edge51" class="edge">
<title>Node3&#45;&gt;Node86</title>
<path fill="none" stroke="#63b8ff" d="M2362.21,-145.5C2369.71,-144.51 2377.26,-143.64 2384.5,-143 2785.91,-107.61 3801.06,-179.26 4197.5,-107 4209.36,-104.84 4222.08,-100.47 4232.29,-96.42"/>
<polygon fill="#63b8ff" stroke="#63b8ff" points="2361.82,-142.02 2352.4,-146.88 2362.79,-148.95 2361.82,-142.02"/>
</g>
<!-- Node87 -->
<g id="node47" class="node">
<title>Node87</title>
<g id="a_node47"><a xlink:href="d__tresure_8cpp.html" target="_top" xlink:title=" ">
<polygon fill="white" stroke="#666666" points="4416.5,-96 4316.5,-96 4316.5,-77 4416.5,-77 4416.5,-96"/>
<text text-anchor="middle" x="4366.5" y="-84" font-family="Helvetica,sans-Serif" font-size="10.00">src/d/d_tresure.cpp</text>
</a>
</g>
</g>
<!-- Node3&#45;&gt;Node87 -->
<g id="edge52" class="edge">
<title>Node3&#45;&gt;Node87</title>
<path fill="none" stroke="#63b8ff" d="M2362.21,-145.49C2369.71,-144.5 2377.26,-143.63 2384.5,-143 2810.28,-105.7 3886.18,-178.87 4307.5,-107 4320.15,-104.84 4333.79,-100.48 4344.77,-96.42"/>
<polygon fill="#63b8ff" stroke="#63b8ff" points="2361.82,-142.01 2352.4,-146.87 2362.79,-148.94 2361.82,-142.01"/>
</g>
<!-- Node88 -->
<g id="node48" class="node">
<title>Node88</title>
<g id="a_node48"><a xlink:href="d__event__lib_8cpp.html" target="_top" xlink:title=" ">
<polygon fill="white" stroke="#666666" points="4538,-101.5 4435,-101.5 4435,-71.5 4538,-71.5 4538,-101.5"/>
<text text-anchor="start" x="4443" y="-89.5" font-family="Helvetica,sans-Serif" font-size="10.00">src/d/event/d_event</text>
<text text-anchor="middle" x="4486.5" y="-78.5" font-family="Helvetica,sans-Serif" font-size="10.00">_lib.cpp</text>
</a>
</g>
</g>
<!-- Node3&#45;&gt;Node88 -->
<g id="edge55" class="edge">
<title>Node3&#45;&gt;Node88</title>
<path fill="none" stroke="#63b8ff" d="M2362.21,-145.48C2369.71,-144.49 2377.26,-143.63 2384.5,-143 2836.42,-103.66 3977.93,-180.85 4425.5,-107 4432.52,-105.84 4439.84,-104.04 4446.88,-102"/>
<polygon fill="#63b8ff" stroke="#63b8ff" points="2361.82,-142 2352.4,-146.86 2362.79,-148.94 2361.82,-142"/>
</g>
<!-- Node89 -->
<g id="node49" class="node">
<title>Node89</title>
<g id="a_node49"><a xlink:href="d__event__manager_8cpp.html" target="_top" xlink:title=" ">
<polygon fill="white" stroke="#666666" points="4659,-101.5 4556,-101.5 4556,-71.5 4659,-71.5 4659,-101.5"/>
<text text-anchor="start" x="4564" y="-89.5" font-family="Helvetica,sans-Serif" font-size="10.00">src/d/event/d_event</text>
<text text-anchor="middle" x="4607.5" y="-78.5" font-family="Helvetica,sans-Serif" font-size="10.00">_manager.cpp</text>
</a>
</g>
</g>
<!-- Node3&#45;&gt;Node89 -->
<g id="edge56" class="edge">
<title>Node3&#45;&gt;Node89</title>
<path fill="none" stroke="#63b8ff" d="M2362.21,-145.48C2369.71,-144.49 2377.26,-143.63 2384.5,-143 2863.44,-101.55 4073.33,-186.17 4547.5,-107 4554.52,-105.83 4561.85,-103.99 4568.87,-101.91"/>
<polygon fill="#63b8ff" stroke="#63b8ff" points="2361.82,-142 2352.4,-146.85 2362.79,-148.93 2361.82,-142"/>
</g>
<!-- Node16&#45;&gt;Node13 -->
<g id="edge6" class="edge">
<title>Node16&#45;&gt;Node13</title>
<path fill="none" stroke="#63b8ff" d="M228.71,-71.02C252.89,-57.13 288.62,-36.61 308.92,-24.95"/>
<polygon fill="#63b8ff" stroke="#63b8ff" points="227.07,-67.93 220.14,-75.94 230.55,-74 227.07,-67.93"/>
</g>
<!-- Node16&#45;&gt;Node17 -->
<g id="edge7" class="edge">
<title>Node16&#45;&gt;Node17</title>
<path fill="none" stroke="#63b8ff" d="M175.31,-71.61C147.1,-57.7 104.55,-36.72 80.57,-24.91"/>
<polygon fill="#63b8ff" stroke="#63b8ff" points="173.48,-74.61 184,-75.89 176.58,-68.33 173.48,-74.61"/>
</g>
<!-- Node16&#45;&gt;Node18 -->
<g id="edge8" class="edge">
<title>Node16&#45;&gt;Node18</title>
<path fill="none" stroke="#63b8ff" d="M201.76,-65.39C200.79,-54.15 199.61,-40.41 198.73,-30.27"/>
<polygon fill="#63b8ff" stroke="#63b8ff" points="198.26,-65.53 202.61,-75.19 205.24,-64.93 198.26,-65.53"/>
</g>
<!-- Node40&#45;&gt;Node13 -->
<g id="edge16" class="edge">
<title>Node40&#45;&gt;Node13</title>
<path fill="none" stroke="#63b8ff" d="M1111.98,-71.57C1100.2,-69.45 1088.02,-67.48 1076.5,-66 816.94,-32.69 503.96,-20.91 379.45,-17.35"/>
<polygon fill="#63b8ff" stroke="#63b8ff" points="1111.15,-74.97 1121.63,-73.36 1112.43,-68.09 1111.15,-74.97"/>
</g>
<!-- Node40&#45;&gt;Node45 -->
<g id="edge17" class="edge">
<title>Node40&#45;&gt;Node45</title>
<path fill="none" stroke="#63b8ff" d="M1147.34,-64.87C1127.22,-51.56 1102.06,-34.9 1086.91,-24.88"/>
<polygon fill="#63b8ff" stroke="#63b8ff" points="1145.21,-67.66 1155.48,-70.26 1149.07,-61.83 1145.21,-67.66"/>
</g>
<!-- Node40&#45;&gt;Node46 -->
<g id="edge18" class="edge">
<title>Node40&#45;&gt;Node46</title>
<path fill="none" stroke="#63b8ff" d="M1186.1,-60.34C1189.87,-47.86 1194.19,-33.58 1196.88,-24.68"/>
<polygon fill="#63b8ff" stroke="#63b8ff" points="1182.83,-59.07 1183.29,-69.65 1189.53,-61.09 1182.83,-59.07"/>
</g>
<!-- Node40&#45;&gt;Node47 -->
<g id="edge19" class="edge">
<title>Node40&#45;&gt;Node47</title>
<path fill="none" stroke="#63b8ff" d="M1219.97,-66.41C1244.7,-55.03 1275.59,-40.81 1298.25,-30.38"/>
<polygon fill="#63b8ff" stroke="#63b8ff" points="1218.78,-63.11 1211.16,-70.47 1221.71,-69.47 1218.78,-63.11"/>
</g>
<!-- Node40&#45;&gt;Node48 -->
<g id="edge20" class="edge">
<title>Node40&#45;&gt;Node48</title>
<path fill="none" stroke="#63b8ff" d="M1245.13,-75.99C1268.34,-72.74 1294.56,-69.13 1318.5,-66 1438.73,-50.28 1579.05,-33.46 1660.15,-23.88"/>
<polygon fill="#63b8ff" stroke="#63b8ff" points="1244.91,-72.48 1235.5,-77.34 1245.89,-79.42 1244.91,-72.48"/>
</g>
<!-- Node65&#45;&gt;Node66 -->
<g id="edge26" class="edge">
<title>Node65&#45;&gt;Node66</title>
<path fill="none" stroke="#63b8ff" d="M4946.92,-68.33C4942.75,-67.41 4938.57,-66.62 4934.5,-66 4642.82,-21.86 2462.92,-16.64 2079.88,-16.07"/>
<polygon fill="#63b8ff" stroke="#63b8ff" points="4945.89,-71.68 4956.43,-70.65 4947.55,-64.88 4945.89,-71.68"/>
</g>
</g>
</svg>
