<?xml version="1.0" encoding="UTF-8" standalone="no"?>
<!DOCTYPE svg PUBLIC "-//W3C//DTD SVG 1.1//EN"
 "http://www.w3.org/Graphics/SVG/1.1/DTD/svg11.dtd">
<!-- Generated by graphviz version 3.0.0 (20220413.0242)
 -->
<!-- Title: include/d/d_attention.h Pages: 1 -->
<!--zoomable 296 -->
<svg id="main" version="1.1" xmlns="http://www.w3.org/2000/svg" xmlns:xlink="http://www.w3.org/1999/xlink" xml:space="preserve" onload="init(evt)">
<style type="text/css"><![CDATA[
.edge:hover path { stroke: red; }
.edge:hover polygon { stroke: red; fill: red; }
]]></style>
<script type="text/javascript"><![CDATA[
var edges = document.getElementsByTagName('g');
if (edges && edges.length) {
  for (var i=0;i<edges.length;i++) {
    if (edges[i].id.substr(0,4)=='edge') {
      edges[i].setAttribute('class','edge');
    }
  }
}
]]></script>
        <defs>
                <circle id="rim" cx="0" cy="0" r="7"/>
                <circle id="rim2" cx="0" cy="0" r="3.5"/>
                <g id="zoomPlus">
                        <use xlink:href="#rim" fill="#404040">
                                <set attributeName="fill" to="#808080" begin="zoomplus.mouseover" end="zoomplus.mouseout"/>
                        </use>
                        <path d="M-4,0h8M0,-4v8" fill="none" stroke="white" stroke-width="1.5" pointer-events="none"/>
                </g>
                <g id="zoomMin">
                        <use xlink:href="#rim" fill="#404040">
                                <set attributeName="fill" to="#808080" begin="zoomminus.mouseover" end="zoomminus.mouseout"/>
                        </use>
                        <path d="M-4,0h8" fill="none" stroke="white" stroke-width="1.5" pointer-events="none"/>
                </g>
                <g id="dirArrow">
                        <path fill="none" stroke="white" stroke-width="1.5" d="M0,-3.0v7 M-2.5,-0.5L0,-3.0L2.5,-0.5"/>
                </g>
               <g id="resetDef">
                       <use xlink:href="#rim2" fill="#404040">
                               <set attributeName="fill" to="#808080" begin="reset.mouseover" end="reset.mouseout"/>
                       </use>
               </g>
        </defs>

<script type="text/javascript">
var viewWidth = 5145;
var viewHeight = 296;
var sectionId = 'dynsection-1';
</script>
<script xlink:href="svgpan.js"/>
<svg id="graph" class="graph">
<g id="viewport">
<title>include/d/d_attention.h</title>
<polygon fill="white" stroke="transparent" points="-4,4 -4,-292 5141.2,-292 5141.2,4 -4,4"/>
<!-- Node1 -->
<g id="node1" class="node">
<title>Node1</title>
<g id="a_node1"><a xlink:title=" ">
<polygon fill="#bfbfbf" stroke="black" points="2341.2,-268.5 2341.2,-287.5 2455.2,-287.5 2455.2,-268.5 2341.2,-268.5"/>
<text text-anchor="middle" x="2398.2" y="-275.5" font-family="Helvetica,sans-Serif" font-size="10.00">include/d/d_attention.h</text>
</a>
</g>
</g>
<!-- Node2 -->
<g id="node2" class="node">
<title>Node2</title>
<g id="a_node2"><a xlink:href="d__a__alink_8h.html" target="_top" xlink:title=" ">
<polygon fill="white" stroke="black" points="2215.2,-212.5 2215.2,-231.5 2331.2,-231.5 2331.2,-212.5 2215.2,-212.5"/>
<text text-anchor="middle" x="2273.2" y="-219.5" font-family="Helvetica,sans-Serif" font-size="10.00">include/d/a/d_a_alink.h</text>
</a>
</g>
</g>
<!-- Node1&#45;&gt;Node2 -->
<g id="edge1" class="edge">
<title>Node1&#45;&gt;Node2</title>
<path fill="none" stroke="midnightblue" d="M2368.96,-264.37C2345.55,-254.26 2313.36,-240.35 2292.91,-231.52"/>
<polygon fill="midnightblue" stroke="midnightblue" points="2367.83,-267.69 2378.39,-268.44 2370.6,-261.26 2367.83,-267.69"/>
</g>
<!-- Node3 -->
<g id="node3" class="node">
<title>Node3</title>
<g id="a_node3"><a xlink:href="d__com__inf__game_8h.html" target="_top" xlink:title=" ">
<polygon fill="white" stroke="red" points="2304.2,-145.5 2304.2,-175.5 2414.2,-175.5 2414.2,-145.5 2304.2,-145.5"/>
<text text-anchor="start" x="2312.2" y="-163.5" font-family="Helvetica,sans-Serif" font-size="10.00">include/d/com/d_com</text>
<text text-anchor="middle" x="2359.2" y="-152.5" font-family="Helvetica,sans-Serif" font-size="10.00">_inf_game.h</text>
</a>
</g>
</g>
<!-- Node1&#45;&gt;Node3 -->
<g id="edge57" class="edge">
<title>Node1&#45;&gt;Node3</title>
<path fill="none" stroke="midnightblue" d="M2389.42,-258.98C2385.67,-250.85 2381.41,-241.07 2378.2,-232 2371.42,-212.88 2365.7,-190.12 2362.35,-175.74"/>
<polygon fill="midnightblue" stroke="midnightblue" points="2386.35,-260.67 2393.8,-268.2 2392.67,-257.67 2386.35,-260.67"/>
</g>
<!-- Node102 -->
<g id="node49" class="node">
<title>Node102</title>
<g id="a_node49"><a xlink:href="d__att__dist_8cpp.html" target="_top" xlink:title=" ">
<polygon fill="white" stroke="black" points="2387.2,-212.5 2387.2,-231.5 2489.2,-231.5 2489.2,-212.5 2387.2,-212.5"/>
<text text-anchor="middle" x="2438.2" y="-219.5" font-family="Helvetica,sans-Serif" font-size="10.00">src/d/d_att_dist.cpp</text>
</a>
</g>
</g>
<!-- Node1&#45;&gt;Node102 -->
<g id="edge58" class="edge">
<title>Node1&#45;&gt;Node102</title>
<path fill="none" stroke="midnightblue" d="M2410.9,-259.86C2417.83,-250.5 2426.11,-239.33 2431.72,-231.75"/>
<polygon fill="midnightblue" stroke="midnightblue" points="2407.95,-257.96 2404.81,-268.08 2413.57,-262.13 2407.95,-257.96"/>
</g>
<!-- Node103 -->
<g id="node50" class="node">
<title>Node103</title>
<g id="a_node50"><a xlink:href="d__attention_8cpp.html" target="_top" xlink:title=" ">
<polygon fill="white" stroke="black" points="2506.7,-212.5 2506.7,-231.5 2613.7,-231.5 2613.7,-212.5 2506.7,-212.5"/>
<text text-anchor="middle" x="2560.2" y="-219.5" font-family="Helvetica,sans-Serif" font-size="10.00">src/d/d_attention.cpp</text>
</a>
</g>
</g>
<!-- Node1&#45;&gt;Node103 -->
<g id="edge59" class="edge">
<title>Node1&#45;&gt;Node103</title>
<path fill="none" stroke="midnightblue" d="M2433.68,-265.17C2464.19,-255 2507.45,-240.59 2534.65,-231.52"/>
<polygon fill="midnightblue" stroke="midnightblue" points="2432.25,-261.96 2423.87,-268.44 2434.46,-268.6 2432.25,-261.96"/>
</g>
<!-- Node2&#45;&gt;Node3 -->
<g id="edge2" class="edge">
<title>Node2&#45;&gt;Node3</title>
<path fill="none" stroke="midnightblue" d="M2293.81,-206.74C2307.48,-197.28 2325.33,-184.93 2338.93,-175.52"/>
<polygon fill="midnightblue" stroke="midnightblue" points="2291.75,-203.91 2285.52,-212.48 2295.74,-209.66 2291.75,-203.91"/>
</g>
<!-- Node13 -->
<g id="node7" class="node">
<title>Node13</title>
<g id="a_node7"><a xlink:href="d__a__alink_8cpp.html" target="_top" xlink:title=" ">
<polygon fill="white" stroke="black" points="149.7,-6 149.7,-25 258.7,-25 258.7,-6 149.7,-6"/>
<text text-anchor="middle" x="204.2" y="-13" font-family="Helvetica,sans-Serif" font-size="10.00">src/d/a/d_a_alink.cpp</text>
</a>
</g>
</g>
<!-- Node2&#45;&gt;Node13 -->
<g id="edge56" class="edge">
<title>Node2&#45;&gt;Node13</title>
<path fill="none" stroke="midnightblue" d="M2205.16,-220.24C1835.96,-215.82 86.84,-190.57 9.2,-109 -3.67,-95.48 -2.22,-81.76 9.2,-67 26.27,-44.95 97.77,-30.77 149.24,-23.22"/>
<polygon fill="midnightblue" stroke="midnightblue" points="2205.13,-223.74 2215.17,-220.36 2205.21,-216.74 2205.13,-223.74"/>
</g>
<!-- Node4 -->
<g id="node4" class="node">
<title>Node4</title>
<g id="a_node4"><a xlink:href="d__a__npc_8h.html" target="_top" xlink:title=" ">
<polygon fill="white" stroke="red" points="4752.7,-78.5 4752.7,-97.5 4863.7,-97.5 4863.7,-78.5 4752.7,-78.5"/>
<text text-anchor="middle" x="4808.2" y="-85.5" font-family="Helvetica,sans-Serif" font-size="10.00">include/d/a/d_a_npc.h</text>
</a>
</g>
</g>
<!-- Node3&#45;&gt;Node4 -->
<g id="edge3" class="edge">
<title>Node3&#45;&gt;Node4</title>
<path fill="none" stroke="midnightblue" d="M2424.52,-159.2C2783.53,-157.38 4509.04,-146.75 4743.2,-109 4757.77,-106.65 4773.61,-101.83 4786,-97.51"/>
<polygon fill="midnightblue" stroke="midnightblue" points="2424.28,-155.7 2414.3,-159.25 2424.32,-162.7 2424.28,-155.7"/>
</g>
<!-- Node10 -->
<g id="node5" class="node">
<title>Node10</title>
<g id="a_node5"><a xlink:href="d__cc__uty_8h.html" target="_top" xlink:title=" ">
<polygon fill="white" stroke="red" points="18.7,-78.5 18.7,-97.5 137.7,-97.5 137.7,-78.5 18.7,-78.5"/>
<text text-anchor="middle" x="78.2" y="-85.5" font-family="Helvetica,sans-Serif" font-size="10.00">include/d/cc/d_cc_uty.h</text>
</a>
</g>
</g>
<!-- Node3&#45;&gt;Node10 -->
<g id="edge4" class="edge">
<title>Node3&#45;&gt;Node10</title>
<path fill="none" stroke="midnightblue" d="M2293.87,-158.94C1951.15,-155.9 368.49,-140.23 152.2,-109 135.87,-106.64 118,-101.88 103.91,-97.59"/>
<polygon fill="midnightblue" stroke="midnightblue" points="2294.09,-162.45 2304.12,-159.03 2294.15,-155.45 2294.09,-162.45"/>
</g>
<!-- Node12 -->
<g id="node6" class="node">
<title>Node12</title>
<g id="a_node6"><a xlink:href="d__item_8h.html" target="_top" xlink:title=" ">
<polygon fill="white" stroke="red" points="194.7,-78.5 194.7,-97.5 289.7,-97.5 289.7,-78.5 194.7,-78.5"/>
<text text-anchor="middle" x="242.2" y="-85.5" font-family="Helvetica,sans-Serif" font-size="10.00">include/d/d_item.h</text>
</a>
</g>
</g>
<!-- Node3&#45;&gt;Node12 -->
<g id="edge5" class="edge">
<title>Node3&#45;&gt;Node12</title>
<path fill="none" stroke="midnightblue" d="M2293.69,-159.13C1964.4,-157.12 497.93,-146.12 298.2,-109 285.61,-106.66 272.08,-101.9 261.47,-97.6"/>
<polygon fill="midnightblue" stroke="midnightblue" points="2293.99,-162.63 2304.01,-159.19 2294.03,-155.63 2293.99,-162.63"/>
</g>
<!-- Node3&#45;&gt;Node13 -->
<g id="edge29" class="edge">
<title>Node3&#45;&gt;Node13</title>
<path fill="none" stroke="midnightblue" d="M2293.85,-159.23C1935.42,-157.58 222.99,-147.68 185.2,-109 162.52,-85.78 186.29,-43.15 198.22,-25.02"/>
<polygon fill="midnightblue" stroke="midnightblue" points="2294.04,-162.73 2304.05,-159.27 2294.07,-155.73 2294.04,-162.73"/>
</g>
<!-- Node14 -->
<g id="node8" class="node">
<title>Node14</title>
<g id="a_node8"><a xlink:href="d__a__obj__item_8cpp.html" target="_top" xlink:title=" ">
<polygon fill="white" stroke="black" points="519.7,-6 519.7,-25 644.7,-25 644.7,-6 519.7,-6"/>
<text text-anchor="middle" x="582.2" y="-13" font-family="Helvetica,sans-Serif" font-size="10.00">src/d/a/d_a_obj_item.cpp</text>
</a>
</g>
</g>
<!-- Node3&#45;&gt;Node14 -->
<g id="edge31" class="edge">
<title>Node3&#45;&gt;Node14</title>
<path fill="none" stroke="midnightblue" d="M2293.82,-159.88C2047.9,-160.9 1186.81,-160.72 1076.2,-109 1053.4,-98.34 1060.61,-78.46 1038.2,-67 971.01,-32.63 753.43,-21.47 644.92,-18"/>
<polygon fill="midnightblue" stroke="midnightblue" points="2294.05,-163.38 2304.03,-159.83 2294.02,-156.38 2294.05,-163.38"/>
</g>
<!-- Node15 -->
<g id="node9" class="node">
<title>Node15</title>
<g id="a_node9"><a xlink:href="d__com__inf__game_8cpp.html" target="_top" xlink:title=" ">
<polygon fill="white" stroke="black" points="933.2,-0.5 933.2,-30.5 1041.2,-30.5 1041.2,-0.5 933.2,-0.5"/>
<text text-anchor="start" x="941.2" y="-18.5" font-family="Helvetica,sans-Serif" font-size="10.00">src/d/com/d_com_inf</text>
<text text-anchor="middle" x="987.2" y="-7.5" font-family="Helvetica,sans-Serif" font-size="10.00">_game.cpp</text>
</a>
</g>
</g>
<!-- Node3&#45;&gt;Node15 -->
<g id="edge37" class="edge">
<title>Node3&#45;&gt;Node15</title>
<path fill="none" stroke="midnightblue" d="M2293.81,-158.38C2060.24,-154.16 1275.15,-137.94 1166.2,-109 1134.34,-100.54 1052.35,-54.38 1011.33,-30.64"/>
<polygon fill="midnightblue" stroke="midnightblue" points="2293.8,-161.88 2303.86,-158.56 2293.93,-154.88 2293.8,-161.88"/>
</g>
<!-- Node18 -->
<g id="node10" class="node">
<title>Node18</title>
<g id="a_node10"><a xlink:href="d__kantera__icon__meter_8h.html" target="_top" xlink:title=" ">
<polygon fill="white" stroke="red" points="307.7,-73 307.7,-103 408.7,-103 408.7,-73 307.7,-73"/>
<text text-anchor="start" x="315.7" y="-91" font-family="Helvetica,sans-Serif" font-size="10.00">include/d/d_kantera</text>
<text text-anchor="middle" x="358.2" y="-80" font-family="Helvetica,sans-Serif" font-size="10.00">_icon_meter.h</text>
</a>
</g>
</g>
<!-- Node3&#45;&gt;Node18 -->
<g id="edge9" class="edge">
<title>Node3&#45;&gt;Node18</title>
<path fill="none" stroke="midnightblue" d="M2293.41,-158.96C1975.38,-156.2 604.85,-142.45 417.2,-109 409.53,-107.63 401.51,-105.45 393.94,-103.03"/>
<polygon fill="midnightblue" stroke="midnightblue" points="2293.81,-162.47 2303.84,-159.05 2293.87,-155.47 2293.81,-162.47"/>
</g>
<!-- Node21 -->
<g id="node11" class="node">
<title>Node21</title>
<g id="a_node11"><a xlink:href="d__model_8h.html" target="_top" xlink:title=" ">
<polygon fill="white" stroke="red" points="426.7,-78.5 426.7,-97.5 529.7,-97.5 529.7,-78.5 426.7,-78.5"/>
<text text-anchor="middle" x="478.2" y="-85.5" font-family="Helvetica,sans-Serif" font-size="10.00">include/d/d_model.h</text>
</a>
</g>
</g>
<!-- Node3&#45;&gt;Node21 -->
<g id="edge10" class="edge">
<title>Node3&#45;&gt;Node21</title>
<path fill="none" stroke="midnightblue" d="M2293.6,-158.82C1988.23,-155.51 713.46,-139.94 538.2,-109 524.79,-106.63 510.3,-101.87 498.91,-97.58"/>
<polygon fill="midnightblue" stroke="midnightblue" points="2294.01,-162.33 2304.05,-158.93 2294.09,-155.33 2294.01,-162.33"/>
</g>
<!-- Node23 -->
<g id="node12" class="node">
<title>Node23</title>
<g id="a_node12"><a xlink:href="d__name_8h.html" target="_top" xlink:title=" ">
<polygon fill="white" stroke="red" points="547.7,-78.5 547.7,-97.5 648.7,-97.5 648.7,-78.5 547.7,-78.5"/>
<text text-anchor="middle" x="598.2" y="-85.5" font-family="Helvetica,sans-Serif" font-size="10.00">include/d/d_name.h</text>
</a>
</g>
</g>
<!-- Node3&#45;&gt;Node23 -->
<g id="edge11" class="edge">
<title>Node3&#45;&gt;Node23</title>
<path fill="none" stroke="midnightblue" d="M2294.11,-158.69C2002.23,-154.91 821.17,-137.93 658.2,-109 644.8,-106.62 630.3,-101.85 618.91,-97.57"/>
<polygon fill="midnightblue" stroke="midnightblue" points="2294.07,-162.19 2304.11,-158.82 2294.16,-155.19 2294.07,-162.19"/>
</g>
<!-- Node25 -->
<g id="node13" class="node">
<title>Node25</title>
<g id="a_node13"><a xlink:href="d__file__sel__info_8h.html" target="_top" xlink:title=" ">
<polygon fill="white" stroke="red" points="667.2,-73 667.2,-103 763.2,-103 763.2,-73 667.2,-73"/>
<text text-anchor="start" x="675.2" y="-91" font-family="Helvetica,sans-Serif" font-size="10.00">include/d/file/d_file</text>
<text text-anchor="middle" x="715.2" y="-80" font-family="Helvetica,sans-Serif" font-size="10.00">_sel_info.h</text>
</a>
</g>
</g>
<!-- Node3&#45;&gt;Node25 -->
<g id="edge12" class="edge">
<title>Node3&#45;&gt;Node25</title>
<path fill="none" stroke="midnightblue" d="M2293.93,-158.6C2014.11,-154.57 923.18,-137.2 772.2,-109 764.88,-107.63 757.24,-105.49 750.01,-103.1"/>
<polygon fill="midnightblue" stroke="midnightblue" points="2293.88,-162.1 2303.93,-158.74 2293.98,-155.1 2293.88,-162.1"/>
</g>
<!-- Node28 -->
<g id="node14" class="node">
<title>Node28</title>
<g id="a_node14"><a xlink:href="d__file__sel__warning_8h.html" target="_top" xlink:title=" ">
<polygon fill="white" stroke="red" points="781.2,-73 781.2,-103 877.2,-103 877.2,-73 781.2,-73"/>
<text text-anchor="start" x="789.2" y="-91" font-family="Helvetica,sans-Serif" font-size="10.00">include/d/file/d_file</text>
<text text-anchor="middle" x="829.2" y="-80" font-family="Helvetica,sans-Serif" font-size="10.00">_sel_warning.h</text>
</a>
</g>
</g>
<!-- Node3&#45;&gt;Node28 -->
<g id="edge13" class="edge">
<title>Node3&#45;&gt;Node28</title>
<path fill="none" stroke="midnightblue" d="M2293.81,-159.88C2045.6,-160.92 1161.85,-160.83 886.2,-109 878.88,-107.62 871.24,-105.47 864.01,-103.08"/>
<polygon fill="midnightblue" stroke="midnightblue" points="2294.13,-163.38 2304.11,-159.84 2294.1,-156.38 2294.13,-163.38"/>
</g>
<!-- Node30 -->
<g id="node15" class="node">
<title>Node30</title>
<g id="a_node15"><a xlink:href="d__meter2_8h.html" target="_top" xlink:title=" ">
<polygon fill="white" stroke="red" points="895.2,-78.5 895.2,-97.5 1029.2,-97.5 1029.2,-78.5 895.2,-78.5"/>
<text text-anchor="middle" x="962.2" y="-85.5" font-family="Helvetica,sans-Serif" font-size="10.00">include/d/meter/d_meter2.h</text>
</a>
</g>
</g>
<!-- Node3&#45;&gt;Node30 -->
<g id="edge14" class="edge">
<title>Node3&#45;&gt;Node30</title>
<path fill="none" stroke="midnightblue" d="M2293.71,-158.75C2063.02,-155.84 1288.75,-143.66 1043.2,-109 1025.56,-106.51 1006.17,-101.8 990.79,-97.57"/>
<polygon fill="midnightblue" stroke="midnightblue" points="2293.92,-162.25 2303.96,-158.88 2294.01,-155.25 2293.92,-162.25"/>
</g>
<!-- Node37 -->
<g id="node16" class="node">
<title>Node37</title>
<g id="a_node16"><a xlink:href="d__msg__object_8h.html" target="_top" xlink:title=" ">
<polygon fill="white" stroke="red" points="4882.2,-73 4882.2,-103 4992.2,-103 4992.2,-73 4882.2,-73"/>
<text text-anchor="start" x="4890.2" y="-91" font-family="Helvetica,sans-Serif" font-size="10.00">include/d/msg/d_msg</text>
<text text-anchor="middle" x="4937.2" y="-80" font-family="Helvetica,sans-Serif" font-size="10.00">_object.h</text>
</a>
</g>
</g>
<!-- Node3&#45;&gt;Node37 -->
<g id="edge15" class="edge">
<title>Node3&#45;&gt;Node37</title>
<path fill="none" stroke="midnightblue" d="M2424.5,-159.29C2795.04,-157.95 4625.55,-149.34 4873.2,-109 4881.47,-107.65 4890.15,-105.48 4898.36,-103.06"/>
<polygon fill="midnightblue" stroke="midnightblue" points="2424.46,-155.79 2414.48,-159.33 2424.49,-162.79 2424.46,-155.79"/>
</g>
<!-- Node42 -->
<g id="node17" class="node">
<title>Node42</title>
<g id="a_node17"><a xlink:href="d__demo_8cpp.html" target="_top" xlink:title=" ">
<polygon fill="white" stroke="black" points="1194.2,-6 1194.2,-25 1288.2,-25 1288.2,-6 1194.2,-6"/>
<text text-anchor="middle" x="1241.2" y="-13" font-family="Helvetica,sans-Serif" font-size="10.00">src/d/d_demo.cpp</text>
</a>
</g>
</g>
<!-- Node3&#45;&gt;Node42 -->
<g id="edge41" class="edge">
<title>Node3&#45;&gt;Node42</title>
<path fill="none" stroke="midnightblue" d="M2293.82,-159.18C2051.43,-157.67 1216.05,-149.55 1177.2,-109 1164.29,-95.52 1169.06,-83.8 1177.2,-67 1186.59,-47.64 1207.39,-33.47 1222.74,-25.15"/>
<polygon fill="midnightblue" stroke="midnightblue" points="2293.87,-162.68 2303.89,-159.24 2293.91,-155.68 2293.87,-162.68"/>
</g>
<!-- Node43 -->
<g id="node18" class="node">
<title>Node43</title>
<g id="a_node18"><a xlink:href="d__event_8cpp.html" target="_top" xlink:title=" ">
<polygon fill="white" stroke="black" points="2972.7,-6 2972.7,-25 3093.7,-25 3093.7,-6 2972.7,-6"/>
<text text-anchor="middle" x="3033.2" y="-13" font-family="Helvetica,sans-Serif" font-size="10.00">src/d/event/d_event.cpp</text>
</a>
</g>
</g>
<!-- Node3&#45;&gt;Node43 -->
<g id="edge50" class="edge">
<title>Node3&#45;&gt;Node43</title>
<path fill="none" stroke="midnightblue" d="M2293.77,-159.15C2053.06,-157.53 1228.58,-149.07 1190.2,-109 1177.29,-95.52 1177.18,-80.38 1190.2,-67 1221.99,-34.33 2657.47,-19.81 2972.5,-17.01"/>
<polygon fill="midnightblue" stroke="midnightblue" points="2294.09,-162.65 2304.12,-159.21 2294.14,-155.65 2294.09,-162.65"/>
</g>
<!-- Node44 -->
<g id="node19" class="node">
<title>Node44</title>
<g id="a_node19"><a xlink:href="d__event__data_8cpp.html" target="_top" xlink:title=" ">
<polygon fill="white" stroke="black" points="4881.7,-0.5 4881.7,-30.5 4984.7,-30.5 4984.7,-0.5 4881.7,-0.5"/>
<text text-anchor="start" x="4889.7" y="-18.5" font-family="Helvetica,sans-Serif" font-size="10.00">src/d/event/d_event</text>
<text text-anchor="middle" x="4933.2" y="-7.5" font-family="Helvetica,sans-Serif" font-size="10.00">_data.cpp</text>
</a>
</g>
</g>
<!-- Node3&#45;&gt;Node44 -->
<g id="edge51" class="edge">
<title>Node3&#45;&gt;Node44</title>
<path fill="none" stroke="midnightblue" d="M2424.24,-159.5C2826.03,-159.37 4954.65,-156.45 5001.2,-109 5014.27,-95.68 5009.59,-83.68 5001.2,-67 4993.21,-51.1 4977.58,-38.95 4963.32,-30.56"/>
<polygon fill="midnightblue" stroke="midnightblue" points="2424.24,-156 2414.24,-159.51 2424.24,-163 2424.24,-156"/>
</g>
<!-- Node45 -->
<g id="node20" class="node">
<title>Node45</title>
<g id="a_node20"><a xlink:href="d__kankyo_8cpp.html" target="_top" xlink:title=" ">
<polygon fill="white" stroke="black" points="5003.2,-6 5003.2,-25 5137.2,-25 5137.2,-6 5003.2,-6"/>
<text text-anchor="middle" x="5070.2" y="-13" font-family="Helvetica,sans-Serif" font-size="10.00">src/d/kankyo/d_kankyo.cpp</text>
</a>
</g>
</g>
<!-- Node3&#45;&gt;Node45 -->
<g id="edge54" class="edge">
<title>Node3&#45;&gt;Node45</title>
<path fill="none" stroke="midnightblue" d="M2424.41,-159.16C2827.24,-156.94 4961.9,-143.58 5019.2,-109 5050.6,-90.05 5064.07,-44.25 5068.46,-25.12"/>
<polygon fill="midnightblue" stroke="midnightblue" points="2424.36,-155.66 2414.38,-159.21 2424.4,-162.66 2424.36,-155.66"/>
</g>
<!-- Node51 -->
<g id="node21" class="node">
<title>Node51</title>
<g id="a_node21"><a xlink:href="d__s__logo_8h.html" target="_top" xlink:title=" ">
<polygon fill="white" stroke="red" points="1199.7,-78.5 1199.7,-97.5 1312.7,-97.5 1312.7,-78.5 1199.7,-78.5"/>
<text text-anchor="middle" x="1256.2" y="-85.5" font-family="Helvetica,sans-Serif" font-size="10.00">include/d/s/d_s_logo.h</text>
</a>
</g>
</g>
<!-- Node3&#45;&gt;Node51 -->
<g id="edge21" class="edge">
<title>Node3&#45;&gt;Node51</title>
<path fill="none" stroke="midnightblue" d="M2293.98,-158.46C2096.89,-154.96 1509.43,-142 1321.2,-109 1306.9,-106.49 1291.33,-101.78 1279.02,-97.55"/>
<polygon fill="midnightblue" stroke="midnightblue" points="2294.12,-161.96 2304.18,-158.63 2294.25,-154.96 2294.12,-161.96"/>
</g>
<!-- Node53 -->
<g id="node22" class="node">
<title>Node53</title>
<g id="a_node22"><a xlink:href="d__s__play_8h.html" target="_top" xlink:title=" ">
<polygon fill="white" stroke="red" points="1330.7,-78.5 1330.7,-97.5 1443.7,-97.5 1443.7,-78.5 1330.7,-78.5"/>
<text text-anchor="middle" x="1387.2" y="-85.5" font-family="Helvetica,sans-Serif" font-size="10.00">include/d/s/d_s_play.h</text>
</a>
</g>
</g>
<!-- Node3&#45;&gt;Node53 -->
<g id="edge22" class="edge">
<title>Node3&#45;&gt;Node53</title>
<path fill="none" stroke="midnightblue" d="M2294.02,-157.93C2114.27,-153.26 1614.1,-137.97 1452.2,-109 1437.91,-106.44 1422.34,-101.73 1410.03,-97.51"/>
<polygon fill="midnightblue" stroke="midnightblue" points="2294.04,-161.43 2304.12,-158.19 2294.22,-154.43 2294.04,-161.43"/>
</g>
<!-- Node57 -->
<g id="node23" class="node">
<title>Node57</title>
<g id="a_node23"><a xlink:href="d__msg__scrn__base_8h.html" target="_top" xlink:title=" ">
<polygon fill="white" stroke="red" points="1461.7,-73 1461.7,-103 1560.7,-103 1560.7,-73 1461.7,-73"/>
<text text-anchor="start" x="1469.7" y="-91" font-family="Helvetica,sans-Serif" font-size="10.00">include/msg/scrn/d</text>
<text text-anchor="middle" x="1511.2" y="-80" font-family="Helvetica,sans-Serif" font-size="10.00">_msg_scrn_base.h</text>
</a>
</g>
</g>
<!-- Node3&#45;&gt;Node57 -->
<g id="edge23" class="edge">
<title>Node3&#45;&gt;Node57</title>
<path fill="none" stroke="midnightblue" d="M2293.78,-157.57C2130.31,-152.4 1707.24,-136.69 1569.2,-109 1561.89,-107.53 1554.24,-105.37 1546.99,-103.01"/>
<polygon fill="midnightblue" stroke="midnightblue" points="2294.06,-161.09 2304.17,-157.9 2294.28,-154.09 2294.06,-161.09"/>
</g>
<!-- Node61 -->
<g id="node24" class="node">
<title>Node61</title>
<g id="a_node24"><a xlink:href="d__a__b__zant_8h.html" target="_top" xlink:title=" ">
<polygon fill="white" stroke="black" points="1578.7,-73 1578.7,-103 1699.7,-103 1699.7,-73 1578.7,-73"/>
<text text-anchor="start" x="1586.7" y="-91" font-family="Helvetica,sans-Serif" font-size="10.00">include/rel/d/a/b/d</text>
<text text-anchor="middle" x="1639.2" y="-80" font-family="Helvetica,sans-Serif" font-size="10.00">_a_b_zant/d_a_b_zant.h</text>
</a>
</g>
</g>
<!-- Node3&#45;&gt;Node61 -->
<g id="edge24" class="edge">
<title>Node3&#45;&gt;Node61</title>
<path fill="none" stroke="midnightblue" d="M2293.65,-158.74C2175.77,-156.42 1920.61,-147.02 1709.2,-109 1700.74,-107.48 1691.84,-105.35 1683.32,-103.06"/>
<polygon fill="midnightblue" stroke="midnightblue" points="2293.88,-162.25 2303.94,-158.93 2294.01,-155.25 2293.88,-162.25"/>
</g>
<!-- Node62 -->
<g id="node25" class="node">
<title>Node62</title>
<g id="a_node25"><a xlink:href="d__a__spinner_8h.html" target="_top" xlink:title=" ">
<polygon fill="white" stroke="black" points="1718.2,-73 1718.2,-103 1834.2,-103 1834.2,-73 1718.2,-73"/>
<text text-anchor="start" x="1726.2" y="-91" font-family="Helvetica,sans-Serif" font-size="10.00">include/rel/d/a/d_a</text>
<text text-anchor="middle" x="1776.2" y="-80" font-family="Helvetica,sans-Serif" font-size="10.00">_spinner/d_a_spinner.h</text>
</a>
</g>
</g>
<!-- Node3&#45;&gt;Node62 -->
<g id="edge25" class="edge">
<title>Node3&#45;&gt;Node62</title>
<path fill="none" stroke="midnightblue" d="M2293.99,-157.14C2195.52,-152.68 2003.36,-140.44 1843.2,-109 1835.22,-107.43 1826.83,-105.32 1818.78,-103.05"/>
<polygon fill="midnightblue" stroke="midnightblue" points="2293.95,-160.64 2304.09,-157.59 2294.25,-153.65 2293.95,-160.64"/>
</g>
<!-- Node63 -->
<g id="node26" class="node">
<title>Node63</title>
<g id="a_node26"><a xlink:href="d__a__obj__yobikusa_8h.html" target="_top" xlink:title=" ">
<polygon fill="white" stroke="black" points="1852.7,-67.5 1852.7,-108.5 1957.7,-108.5 1957.7,-67.5 1852.7,-67.5"/>
<text text-anchor="start" x="1860.7" y="-96.5" font-family="Helvetica,sans-Serif" font-size="10.00">include/rel/d/a/obj</text>
<text text-anchor="start" x="1860.7" y="-85.5" font-family="Helvetica,sans-Serif" font-size="10.00">/d_a_obj_yobikusa/d</text>
<text text-anchor="middle" x="1905.2" y="-74.5" font-family="Helvetica,sans-Serif" font-size="10.00">_a_obj_yobikusa.h</text>
</a>
</g>
</g>
<!-- Node3&#45;&gt;Node63 -->
<g id="edge26" class="edge">
<title>Node3&#45;&gt;Node63</title>
<path fill="none" stroke="midnightblue" d="M2293.91,-154.78C2215.58,-148.28 2080.63,-134.38 1967.2,-109 1964.11,-108.31 1960.95,-107.53 1957.78,-106.69"/>
<polygon fill="midnightblue" stroke="midnightblue" points="2293.86,-158.29 2304.11,-155.62 2294.43,-151.31 2293.86,-158.29"/>
</g>
<!-- Node64 -->
<g id="node27" class="node">
<title>Node64</title>
<g id="a_node27"><a xlink:href="d__a__tag__telop_8h.html" target="_top" xlink:title=" ">
<polygon fill="white" stroke="black" points="1976.2,-67.5 1976.2,-108.5 2094.2,-108.5 2094.2,-67.5 1976.2,-67.5"/>
<text text-anchor="start" x="1984.2" y="-96.5" font-family="Helvetica,sans-Serif" font-size="10.00">include/rel/d/a/tag</text>
<text text-anchor="start" x="1984.2" y="-85.5" font-family="Helvetica,sans-Serif" font-size="10.00">/d_a_tag_telop/d_a_tag</text>
<text text-anchor="middle" x="2035.2" y="-74.5" font-family="Helvetica,sans-Serif" font-size="10.00">_telop.h</text>
</a>
</g>
</g>
<!-- Node3&#45;&gt;Node64 -->
<g id="edge27" class="edge">
<title>Node3&#45;&gt;Node64</title>
<path fill="none" stroke="midnightblue" d="M2293.87,-148.31C2241.92,-139.01 2167.55,-124.77 2103.2,-109 2100.33,-108.3 2097.4,-107.55 2094.45,-106.77"/>
<polygon fill="midnightblue" stroke="midnightblue" points="2293.49,-151.8 2303.95,-150.11 2294.72,-144.91 2293.49,-151.8"/>
</g>
<!-- Node65 -->
<g id="node28" class="node">
<title>Node65</title>
<g id="a_node28"><a xlink:href="c__dylink_8cpp.html" target="_top" xlink:title=" ">
<polygon fill="white" stroke="black" points="2112.7,-78.5 2112.7,-97.5 2207.7,-97.5 2207.7,-78.5 2112.7,-78.5"/>
<text text-anchor="middle" x="2160.2" y="-85.5" font-family="Helvetica,sans-Serif" font-size="10.00">src/c/c_dylink.cpp</text>
</a>
</g>
</g>
<!-- Node3&#45;&gt;Node65 -->
<g id="edge28" class="edge">
<title>Node3&#45;&gt;Node65</title>
<path fill="none" stroke="midnightblue" d="M2309.84,-142.01C2269.87,-127.85 2215.28,-108.51 2184.29,-97.53"/>
<polygon fill="midnightblue" stroke="midnightblue" points="2308.81,-145.36 2319.41,-145.4 2311.15,-138.76 2308.81,-145.36"/>
</g>
<!-- Node66 -->
<g id="node29" class="node">
<title>Node66</title>
<g id="a_node29"><a xlink:href="d__a__itembase_8cpp.html" target="_top" xlink:title=" ">
<polygon fill="white" stroke="black" points="2226.2,-78.5 2226.2,-97.5 2354.2,-97.5 2354.2,-78.5 2226.2,-78.5"/>
<text text-anchor="middle" x="2290.2" y="-85.5" font-family="Helvetica,sans-Serif" font-size="10.00">src/d/a/d_a_itembase.cpp</text>
</a>
</g>
</g>
<!-- Node3&#45;&gt;Node66 -->
<g id="edge30" class="edge">
<title>Node3&#45;&gt;Node66</title>
<path fill="none" stroke="midnightblue" d="M2337.92,-137.76C2324.79,-124.34 2308.65,-107.85 2298.9,-97.89"/>
<polygon fill="midnightblue" stroke="midnightblue" points="2335.74,-140.53 2345.24,-145.23 2340.74,-135.64 2335.74,-140.53"/>
</g>
<!-- Node67 -->
<g id="node30" class="node">
<title>Node67</title>
<g id="a_node30"><a xlink:href="d__a__player_8cpp.html" target="_top" xlink:title=" ">
<polygon fill="white" stroke="black" points="2372.2,-78.5 2372.2,-97.5 2486.2,-97.5 2486.2,-78.5 2372.2,-78.5"/>
<text text-anchor="middle" x="2429.2" y="-85.5" font-family="Helvetica,sans-Serif" font-size="10.00">src/d/a/d_a_player.cpp</text>
</a>
</g>
</g>
<!-- Node3&#45;&gt;Node67 -->
<g id="edge32" class="edge">
<title>Node3&#45;&gt;Node67</title>
<path fill="none" stroke="midnightblue" d="M2380.41,-138.14C2393.8,-124.65 2410.39,-107.94 2420.37,-97.89"/>
<polygon fill="midnightblue" stroke="midnightblue" points="2377.93,-135.67 2373.37,-145.23 2382.9,-140.6 2377.93,-135.67"/>
</g>
<!-- Node68 -->
<g id="node31" class="node">
<title>Node68</title>
<g id="a_node31"><a xlink:href="d__bg__s_8cpp.html" target="_top" xlink:title=" ">
<polygon fill="white" stroke="black" points="2504.2,-78.5 2504.2,-97.5 2608.2,-97.5 2608.2,-78.5 2504.2,-78.5"/>
<text text-anchor="middle" x="2556.2" y="-85.5" font-family="Helvetica,sans-Serif" font-size="10.00">src/d/bg/d_bg_s.cpp</text>
</a>
</g>
</g>
<!-- Node3&#45;&gt;Node68 -->
<g id="edge33" class="edge">
<title>Node3&#45;&gt;Node68</title>
<path fill="none" stroke="midnightblue" d="M2408.07,-142.01C2447.64,-127.85 2501.68,-108.51 2532.36,-97.53"/>
<polygon fill="midnightblue" stroke="midnightblue" points="2406.83,-138.74 2398.59,-145.4 2409.19,-145.33 2406.83,-138.74"/>
</g>
<!-- Node69 -->
<g id="node32" class="node">
<title>Node69</title>
<g id="a_node32"><a xlink:href="d__bg__s__movebg__actor_8cpp.html" target="_top" xlink:title=" ">
<polygon fill="white" stroke="black" points="2626.2,-73 2626.2,-103 2752.2,-103 2752.2,-73 2626.2,-73"/>
<text text-anchor="start" x="2634.2" y="-91" font-family="Helvetica,sans-Serif" font-size="10.00">src/d/bg/d_bg_s_movebg</text>
<text text-anchor="middle" x="2689.2" y="-80" font-family="Helvetica,sans-Serif" font-size="10.00">_actor.cpp</text>
</a>
</g>
</g>
<!-- Node3&#45;&gt;Node69 -->
<g id="edge34" class="edge">
<title>Node3&#45;&gt;Node69</title>
<path fill="none" stroke="midnightblue" d="M2424.48,-148.17C2476.82,-138.74 2552.03,-124.4 2617.2,-109 2624.78,-107.21 2632.76,-105.16 2640.53,-103.07"/>
<polygon fill="midnightblue" stroke="midnightblue" points="2423.55,-144.78 2414.33,-149.99 2424.79,-151.67 2423.55,-144.78"/>
</g>
<!-- Node70 -->
<g id="node33" class="node">
<title>Node70</title>
<g id="a_node33"><a xlink:href="d__bg__w_8cpp.html" target="_top" xlink:title=" ">
<polygon fill="white" stroke="black" points="2770.7,-78.5 2770.7,-97.5 2877.7,-97.5 2877.7,-78.5 2770.7,-78.5"/>
<text text-anchor="middle" x="2824.2" y="-85.5" font-family="Helvetica,sans-Serif" font-size="10.00">src/d/bg/d_bg_w.cpp</text>
</a>
</g>
</g>
<!-- Node3&#45;&gt;Node70 -->
<g id="edge35" class="edge">
<title>Node3&#45;&gt;Node70</title>
<path fill="none" stroke="midnightblue" d="M2424.78,-154.96C2504.88,-148.56 2644.16,-134.7 2761.2,-109 2774.54,-106.07 2789.09,-101.54 2800.84,-97.54"/>
<polygon fill="midnightblue" stroke="midnightblue" points="2424.06,-151.5 2414.36,-155.77 2424.6,-158.48 2424.06,-151.5"/>
</g>
<!-- Node71 -->
<g id="node34" class="node">
<title>Node71</title>
<g id="a_node34"><a xlink:href="d__cc__s_8cpp.html" target="_top" xlink:title=" ">
<polygon fill="white" stroke="black" points="2896.2,-78.5 2896.2,-97.5 3000.2,-97.5 3000.2,-78.5 2896.2,-78.5"/>
<text text-anchor="middle" x="2948.2" y="-85.5" font-family="Helvetica,sans-Serif" font-size="10.00">src/d/cc/d_cc_s.cpp</text>
</a>
</g>
</g>
<!-- Node3&#45;&gt;Node71 -->
<g id="edge36" class="edge">
<title>Node3&#45;&gt;Node71</title>
<path fill="none" stroke="midnightblue" d="M2424.53,-157.89C2524.97,-154.38 2722.94,-143.34 2887.2,-109 2900.4,-106.24 2914.75,-101.62 2926.21,-97.52"/>
<polygon fill="midnightblue" stroke="midnightblue" points="2424.41,-154.39 2414.53,-158.23 2424.64,-161.39 2424.41,-154.39"/>
</g>
<!-- Node72 -->
<g id="node35" class="node">
<title>Node72</title>
<g id="a_node35"><a xlink:href="d__com__static_8cpp.html" target="_top" xlink:title=" ">
<polygon fill="white" stroke="black" points="3018.2,-78.5 3018.2,-97.5 3158.2,-97.5 3158.2,-78.5 3018.2,-78.5"/>
<text text-anchor="middle" x="3088.2" y="-85.5" font-family="Helvetica,sans-Serif" font-size="10.00">src/d/com/d_com_static.cpp</text>
</a>
</g>
</g>
<!-- Node3&#45;&gt;Node72 -->
<g id="edge38" class="edge">
<title>Node3&#45;&gt;Node72</title>
<path fill="none" stroke="midnightblue" d="M2424.64,-158.1C2542.34,-154.76 2797.24,-143.8 3009.2,-109 3026.09,-106.23 3044.67,-101.61 3059.56,-97.51"/>
<polygon fill="midnightblue" stroke="midnightblue" points="2424.27,-154.61 2414.36,-158.38 2424.46,-161.6 2424.27,-154.61"/>
</g>
<!-- Node73 -->
<g id="node36" class="node">
<title>Node73</title>
<g id="a_node36"><a xlink:href="d__cam__param_8cpp.html" target="_top" xlink:title=" ">
<polygon fill="white" stroke="black" points="3176.7,-78.5 3176.7,-97.5 3297.7,-97.5 3297.7,-78.5 3176.7,-78.5"/>
<text text-anchor="middle" x="3237.2" y="-85.5" font-family="Helvetica,sans-Serif" font-size="10.00">src/d/d_cam_param.cpp</text>
</a>
</g>
</g>
<!-- Node3&#45;&gt;Node73 -->
<g id="edge39" class="edge">
<title>Node3&#45;&gt;Node73</title>
<path fill="none" stroke="midnightblue" d="M2424.54,-160.17C2562.71,-160.55 2894.23,-155.96 3167.2,-109 3182.4,-106.39 3199.01,-101.72 3212.23,-97.55"/>
<polygon fill="midnightblue" stroke="midnightblue" points="2424.55,-156.67 2414.54,-160.13 2424.53,-163.67 2424.55,-156.67"/>
</g>
<!-- Node74 -->
<g id="node37" class="node">
<title>Node74</title>
<g id="a_node37"><a xlink:href="d__camera_8cpp.html" target="_top" xlink:title=" ">
<polygon fill="white" stroke="black" points="3316.2,-78.5 3316.2,-97.5 3418.2,-97.5 3418.2,-78.5 3316.2,-78.5"/>
<text text-anchor="middle" x="3367.2" y="-85.5" font-family="Helvetica,sans-Serif" font-size="10.00">src/d/d_camera.cpp</text>
</a>
</g>
</g>
<!-- Node3&#45;&gt;Node74 -->
<g id="edge40" class="edge">
<title>Node3&#45;&gt;Node74</title>
<path fill="none" stroke="midnightblue" d="M2424.45,-158.3C2609.88,-154.53 3137.45,-141.2 3307.2,-109 3320.47,-106.48 3334.84,-101.77 3346.19,-97.55"/>
<polygon fill="midnightblue" stroke="midnightblue" points="2424.24,-154.8 2414.31,-158.5 2424.38,-161.8 2424.24,-154.8"/>
</g>
<!-- Node75 -->
<g id="node38" class="node">
<title>Node75</title>
<g id="a_node38"><a xlink:href="d__eye__hl_8cpp.html" target="_top" xlink:title=" ">
<polygon fill="white" stroke="black" points="3436.2,-78.5 3436.2,-97.5 3534.2,-97.5 3534.2,-78.5 3436.2,-78.5"/>
<text text-anchor="middle" x="3485.2" y="-85.5" font-family="Helvetica,sans-Serif" font-size="10.00">src/d/d_eye_hl.cpp</text>
</a>
</g>
</g>
<!-- Node3&#45;&gt;Node75 -->
<g id="edge42" class="edge">
<title>Node3&#45;&gt;Node75</title>
<path fill="none" stroke="midnightblue" d="M2424.65,-158.84C2625.89,-156.43 3233.57,-146.17 3427.2,-109 3440.07,-106.53 3453.96,-101.82 3464.92,-97.59"/>
<polygon fill="midnightblue" stroke="midnightblue" points="2424.48,-155.34 2414.53,-158.96 2424.57,-162.34 2424.48,-155.34"/>
</g>
<!-- Node76 -->
<g id="node39" class="node">
<title>Node76</title>
<g id="a_node39"><a xlink:href="d__kyeff_8cpp.html" target="_top" xlink:title=" ">
<polygon fill="white" stroke="black" points="3552.2,-78.5 3552.2,-97.5 3642.2,-97.5 3642.2,-78.5 3552.2,-78.5"/>
<text text-anchor="middle" x="3597.2" y="-85.5" font-family="Helvetica,sans-Serif" font-size="10.00">src/d/d_kyeff.cpp</text>
</a>
</g>
</g>
<!-- Node3&#45;&gt;Node76 -->
<g id="edge43" class="edge">
<title>Node3&#45;&gt;Node76</title>
<path fill="none" stroke="midnightblue" d="M2424.7,-159.38C2640.34,-158.59 3326.65,-152.6 3543.2,-109 3555.35,-106.55 3568.4,-101.78 3578.63,-97.52"/>
<polygon fill="midnightblue" stroke="midnightblue" points="2424.47,-155.89 2414.49,-159.42 2424.5,-162.89 2424.47,-155.89"/>
</g>
<!-- Node77 -->
<g id="node40" class="node">
<title>Node77</title>
<g id="a_node40"><a xlink:href="d__path_8cpp.html" target="_top" xlink:title=" ">
<polygon fill="white" stroke="black" points="3660.7,-78.5 3660.7,-97.5 3749.7,-97.5 3749.7,-78.5 3660.7,-78.5"/>
<text text-anchor="middle" x="3705.2" y="-85.5" font-family="Helvetica,sans-Serif" font-size="10.00">src/d/d_path.cpp</text>
</a>
</g>
</g>
<!-- Node3&#45;&gt;Node77 -->
<g id="edge44" class="edge">
<title>Node3&#45;&gt;Node77</title>
<path fill="none" stroke="midnightblue" d="M2424.43,-159.66C2652.41,-159.79 3412.71,-156.57 3651.2,-109 3663.36,-106.57 3676.41,-101.81 3686.63,-97.53"/>
<polygon fill="midnightblue" stroke="midnightblue" points="2424.3,-156.16 2414.3,-159.65 2424.3,-163.16 2424.3,-156.16"/>
</g>
<!-- Node78 -->
<g id="node41" class="node">
<title>Node78</title>
<g id="a_node41"><a xlink:href="d__resorce_8cpp.html" target="_top" xlink:title=" ">
<polygon fill="white" stroke="black" points="3767.2,-78.5 3767.2,-97.5 3869.2,-97.5 3869.2,-78.5 3767.2,-78.5"/>
<text text-anchor="middle" x="3818.2" y="-85.5" font-family="Helvetica,sans-Serif" font-size="10.00">src/d/d_resorce.cpp</text>
</a>
</g>
</g>
<!-- Node3&#45;&gt;Node78 -->
<g id="edge45" class="edge">
<title>Node3&#45;&gt;Node78</title>
<path fill="none" stroke="midnightblue" d="M2424.91,-159.65C2665.56,-159.83 3498.29,-156.87 3759.2,-109 3772.39,-106.58 3786.65,-101.81 3797.84,-97.54"/>
<polygon fill="midnightblue" stroke="midnightblue" points="2424.58,-156.15 2414.57,-159.64 2424.57,-163.15 2424.58,-156.15"/>
</g>
<!-- Node79 -->
<g id="node42" class="node">
<title>Node79</title>
<g id="a_node42"><a xlink:href="d__simple__model_8cpp.html" target="_top" xlink:title=" ">
<polygon fill="white" stroke="black" points="3887.2,-78.5 3887.2,-97.5 4017.2,-97.5 4017.2,-78.5 3887.2,-78.5"/>
<text text-anchor="middle" x="3952.2" y="-85.5" font-family="Helvetica,sans-Serif" font-size="10.00">src/d/d_simple_model.cpp</text>
</a>
</g>
</g>
<!-- Node3&#45;&gt;Node79 -->
<g id="edge46" class="edge">
<title>Node3&#45;&gt;Node79</title>
<path fill="none" stroke="midnightblue" d="M2424.43,-159.33C2677.08,-158.37 3591.38,-151.94 3878.2,-109 3894.52,-106.56 3912.39,-101.79 3926.48,-97.52"/>
<polygon fill="midnightblue" stroke="midnightblue" points="2424.3,-155.83 2414.31,-159.37 2424.32,-162.83 2424.3,-155.83"/>
</g>
<!-- Node80 -->
<g id="node43" class="node">
<title>Node80</title>
<g id="a_node43"><a xlink:href="d__stage_8cpp.html" target="_top" xlink:title=" ">
<polygon fill="white" stroke="black" points="4035.2,-78.5 4035.2,-97.5 4129.2,-97.5 4129.2,-78.5 4035.2,-78.5"/>
<text text-anchor="middle" x="4082.2" y="-85.5" font-family="Helvetica,sans-Serif" font-size="10.00">src/d/d_stage.cpp</text>
</a>
</g>
</g>
<!-- Node3&#45;&gt;Node80 -->
<g id="edge47" class="edge">
<title>Node3&#45;&gt;Node80</title>
<path fill="none" stroke="midnightblue" d="M2424.86,-158.72C2714.08,-155.13 3867.15,-139.04 4026.2,-109 4038.78,-106.62 4052.31,-101.86 4062.92,-97.57"/>
<polygon fill="midnightblue" stroke="midnightblue" points="2424.49,-155.23 2414.54,-158.85 2424.58,-162.23 2424.49,-155.23"/>
</g>
<!-- Node81 -->
<g id="node44" class="node">
<title>Node81</title>
<g id="a_node44"><a xlink:href="d__timer_8cpp.html" target="_top" xlink:title=" ">
<polygon fill="white" stroke="black" points="4147.2,-78.5 4147.2,-97.5 4239.2,-97.5 4239.2,-78.5 4147.2,-78.5"/>
<text text-anchor="middle" x="4193.2" y="-85.5" font-family="Helvetica,sans-Serif" font-size="10.00">src/d/d_timer.cpp</text>
</a>
</g>
</g>
<!-- Node3&#45;&gt;Node81 -->
<g id="edge48" class="edge">
<title>Node3&#45;&gt;Node81</title>
<path fill="none" stroke="midnightblue" d="M2424.79,-158.88C2725.82,-155.86 3967.7,-141.54 4138.2,-109 4150.58,-106.64 4163.87,-101.87 4174.28,-97.58"/>
<polygon fill="midnightblue" stroke="midnightblue" points="2424.45,-155.38 2414.48,-158.98 2424.52,-162.38 2424.45,-155.38"/>
</g>
<!-- Node82 -->
<g id="node45" class="node">
<title>Node82</title>
<g id="a_node45"><a xlink:href="d__tresure_8cpp.html" target="_top" xlink:title=" ">
<polygon fill="white" stroke="black" points="4257.2,-78.5 4257.2,-97.5 4357.2,-97.5 4357.2,-78.5 4257.2,-78.5"/>
<text text-anchor="middle" x="4307.2" y="-85.5" font-family="Helvetica,sans-Serif" font-size="10.00">src/d/d_tresure.cpp</text>
</a>
</g>
</g>
<!-- Node3&#45;&gt;Node82 -->
<g id="edge49" class="edge">
<title>Node3&#45;&gt;Node82</title>
<path fill="none" stroke="midnightblue" d="M2424.72,-158.91C2736.92,-155.96 4065.98,-141.55 4248.2,-109 4261.4,-106.64 4275.66,-101.88 4286.85,-97.59"/>
<polygon fill="midnightblue" stroke="midnightblue" points="2424.45,-155.42 2414.48,-159.01 2424.51,-162.41 2424.45,-155.42"/>
</g>
<!-- Node83 -->
<g id="node46" class="node">
<title>Node83</title>
<g id="a_node46"><a xlink:href="d__event__lib_8cpp.html" target="_top" xlink:title=" ">
<polygon fill="white" stroke="black" points="4375.7,-73 4375.7,-103 4478.7,-103 4478.7,-73 4375.7,-73"/>
<text text-anchor="start" x="4383.7" y="-91" font-family="Helvetica,sans-Serif" font-size="10.00">src/d/event/d_event</text>
<text text-anchor="middle" x="4427.2" y="-80" font-family="Helvetica,sans-Serif" font-size="10.00">_lib.cpp</text>
</a>
</g>
</g>
<!-- Node3&#45;&gt;Node83 -->
<g id="edge52" class="edge">
<title>Node3&#45;&gt;Node83</title>
<path fill="none" stroke="midnightblue" d="M2424.56,-158.99C2748.22,-156.29 4171.57,-142.61 4366.2,-109 4374.11,-107.63 4382.39,-105.46 4390.22,-103.03"/>
<polygon fill="midnightblue" stroke="midnightblue" points="2424.38,-155.49 2414.41,-159.07 2424.44,-162.49 2424.38,-155.49"/>
</g>
<!-- Node84 -->
<g id="node47" class="node">
<title>Node84</title>
<g id="a_node47"><a xlink:href="d__event__manager_8cpp.html" target="_top" xlink:title=" ">
<polygon fill="white" stroke="black" points="4496.7,-73 4496.7,-103 4599.7,-103 4599.7,-73 4496.7,-73"/>
<text text-anchor="start" x="4504.7" y="-91" font-family="Helvetica,sans-Serif" font-size="10.00">src/d/event/d_event</text>
<text text-anchor="middle" x="4548.2" y="-80" font-family="Helvetica,sans-Serif" font-size="10.00">_manager.cpp</text>
</a>
</g>
</g>
<!-- Node3&#45;&gt;Node84 -->
<g id="edge53" class="edge">
<title>Node3&#45;&gt;Node84</title>
<path fill="none" stroke="midnightblue" d="M2424.43,-159.11C2759.66,-156.94 4280.98,-145.15 4488.2,-109 4495.99,-107.64 4504.14,-105.46 4511.84,-103.04"/>
<polygon fill="midnightblue" stroke="midnightblue" points="2424.37,-155.61 2414.4,-159.17 2424.42,-162.61 2424.37,-155.61"/>
</g>
<!-- Node85 -->
<g id="node48" class="node">
<title>Node85</title>
<g id="a_node48"><a xlink:href="d__kankyo__rain_8cpp.html" target="_top" xlink:title=" ">
<polygon fill="white" stroke="black" points="4618.2,-73 4618.2,-103 4734.2,-103 4734.2,-73 4618.2,-73"/>
<text text-anchor="start" x="4626.2" y="-91" font-family="Helvetica,sans-Serif" font-size="10.00">src/d/kankyo/d_kankyo</text>
<text text-anchor="middle" x="4676.2" y="-80" font-family="Helvetica,sans-Serif" font-size="10.00">_rain.cpp</text>
</a>
</g>
</g>
<!-- Node3&#45;&gt;Node85 -->
<g id="edge55" class="edge">
<title>Node3&#45;&gt;Node85</title>
<path fill="none" stroke="midnightblue" d="M2424.43,-159.08C2770.99,-156.68 4388.84,-143.72 4609.2,-109 4617.83,-107.64 4626.91,-105.46 4635.5,-103.04"/>
<polygon fill="midnightblue" stroke="midnightblue" points="2424.29,-155.58 2414.31,-159.15 2424.34,-162.58 2424.29,-155.58"/>
</g>
<!-- Node12&#45;&gt;Node13 -->
<g id="edge6" class="edge">
<title>Node12&#45;&gt;Node13</title>
<path fill="none" stroke="midnightblue" d="M232.6,-69.18C225.02,-55.13 214.79,-36.14 208.9,-25.22"/>
<polygon fill="midnightblue" stroke="midnightblue" points="229.72,-71.21 237.54,-78.36 235.88,-67.89 229.72,-71.21"/>
</g>
<!-- Node12&#45;&gt;Node14 -->
<g id="edge7" class="edge">
<title>Node12&#45;&gt;Node14</title>
<path fill="none" stroke="midnightblue" d="M272.96,-74.97C281.08,-72.09 289.9,-69.2 298.2,-67 373.22,-47.08 461.51,-32.77 519.5,-24.58"/>
<polygon fill="midnightblue" stroke="midnightblue" points="271.66,-71.72 263.48,-78.46 274.07,-78.3 271.66,-71.72"/>
</g>
<!-- Node12&#45;&gt;Node15 -->
<g id="edge8" class="edge">
<title>Node12&#45;&gt;Node15</title>
<path fill="none" stroke="midnightblue" d="M271.5,-74.86C279.98,-71.81 289.34,-68.87 298.2,-67 419.22,-41.45 792.46,-24.29 932.96,-18.59"/>
<polygon fill="midnightblue" stroke="midnightblue" points="270.15,-71.63 262.04,-78.44 272.63,-78.17 270.15,-71.63"/>
</g>
<!-- Node37&#45;&gt;Node13 -->
<g id="edge16" class="edge">
<title>Node37&#45;&gt;Node13</title>
<path fill="none" stroke="midnightblue" d="M4888.8,-70.25C4883.59,-68.93 4878.32,-67.8 4873.2,-67 4633.73,-29.44 752.5,-37.74 510.2,-31 422.21,-28.55 320.1,-23.21 258.9,-19.74"/>
<polygon fill="midnightblue" stroke="midnightblue" points="4888.15,-73.69 4898.72,-72.97 4890,-66.94 4888.15,-73.69"/>
</g>
<!-- Node37&#45;&gt;Node42 -->
<g id="edge17" class="edge">
<title>Node37&#45;&gt;Node42</title>
<path fill="none" stroke="midnightblue" d="M4888.58,-70.22C4883.44,-68.92 4878.24,-67.81 4873.2,-67 4780.38,-52.17 1708.1,-21.14 1288.5,-16.97"/>
<polygon fill="midnightblue" stroke="midnightblue" points="4887.8,-73.63 4898.37,-72.91 4889.65,-66.88 4887.8,-73.63"/>
</g>
<!-- Node37&#45;&gt;Node43 -->
<g id="edge18" class="edge">
<title>Node37&#45;&gt;Node43</title>
<path fill="none" stroke="midnightblue" d="M4888.57,-70.29C4883.43,-68.98 4878.24,-67.84 4873.2,-67 4694.71,-37.25 3391.69,-20.61 3093.76,-17.17"/>
<polygon fill="midnightblue" stroke="midnightblue" points="4887.78,-73.7 4898.35,-72.99 4889.65,-66.96 4887.78,-73.7"/>
</g>
<!-- Node37&#45;&gt;Node44 -->
<g id="edge19" class="edge">
<title>Node37&#45;&gt;Node44</title>
<path fill="none" stroke="midnightblue" d="M4935.82,-62.73C4935.22,-52.07 4934.53,-39.91 4934.01,-30.75"/>
<polygon fill="midnightblue" stroke="midnightblue" points="4932.33,-62.95 4936.39,-72.73 4939.32,-62.55 4932.33,-62.95"/>
</g>
<!-- Node37&#45;&gt;Node45 -->
<g id="edge20" class="edge">
<title>Node37&#45;&gt;Node45</title>
<path fill="none" stroke="midnightblue" d="M4972.76,-68.15C4999.2,-54.13 5034.05,-35.66 5054.1,-25.03"/>
<polygon fill="midnightblue" stroke="midnightblue" points="4970.99,-65.13 4963.8,-72.9 4974.27,-71.31 4970.99,-65.13"/>
</g>
</g>
</svg>
        <g id="navigator" transform="translate(0 0)" fill="#404254">
                <rect fill="#f2f5e9" fill-opacity="0.5" stroke="#606060" stroke-width=".5" x="0" y="0" width="60" height="60"/>
                <use id="zoomplus" xlink:href="#zoomPlus" x="17" y="9" onmousedown="handleZoom(evt,'in')"/>
                <use id="zoomminus" xlink:href="#zoomMin" x="42" y="9" onmousedown="handleZoom(evt,'out')"/>
                <use id="reset" xlink:href="#resetDef" x="30" y="36" onmousedown="handleReset()"/>
                <g id="arrowUp" xlink:href="#dirArrow" transform="translate(30 24)" onmousedown="handlePan(0,-1)">
                  <use xlink:href="#rim" fill="#404040">
                        <set attributeName="fill" to="#808080" begin="arrowUp.mouseover" end="arrowUp.mouseout"/>
                  </use>
                  <path fill="none" stroke="white" stroke-width="1.5" d="M0,-3.0v7 M-2.5,-0.5L0,-3.0L2.5,-0.5"/>
                </g>
                <g id="arrowRight" xlink:href="#dirArrow" transform="rotate(90) translate(36 -43)" onmousedown="handlePan(1,0)">
                  <use xlink:href="#rim" fill="#404040">
                        <set attributeName="fill" to="#808080" begin="arrowRight.mouseover" end="arrowRight.mouseout"/>
                  </use>
                  <path fill="none" stroke="white" stroke-width="1.5" d="M0,-3.0v7 M-2.5,-0.5L0,-3.0L2.5,-0.5"/>
                </g>
                <g id="arrowDown" xlink:href="#dirArrow" transform="rotate(180) translate(-30 -48)" onmousedown="handlePan(0,1)">
                  <use xlink:href="#rim" fill="#404040">
                        <set attributeName="fill" to="#808080" begin="arrowDown.mouseover" end="arrowDown.mouseout"/>
                  </use>
                  <path fill="none" stroke="white" stroke-width="1.5" d="M0,-3.0v7 M-2.5,-0.5L0,-3.0L2.5,-0.5"/>
                </g>
                <g id="arrowLeft" xlink:href="#dirArrow" transform="rotate(270) translate(-36 17)" onmousedown="handlePan(-1,0)">
                  <use xlink:href="#rim" fill="#404040">
                        <set attributeName="fill" to="#808080" begin="arrowLeft.mouseover" end="arrowLeft.mouseout"/>
                  </use>
                  <path fill="none" stroke="white" stroke-width="1.5" d="M0,-3.0v7 M-2.5,-0.5L0,-3.0L2.5,-0.5"/>
                </g>
        </g>
        <svg viewBox="0 0 15 15" width="100%" height="30px" preserveAspectRatio="xMaxYMin meet">
         <g id="arrow_out" transform="scale(0.3 0.3)">
          <a xlink:href="d__attention_8h__dep__incl_org.svg" target="_base">
           <rect id="button" ry="5" rx="5" y="6" x="6" height="38" width="38"
                fill="#f2f5e9" fill-opacity="0.5" stroke="#606060" stroke-width="1.0"/>
           <path id="arrow"
             d="M 11.500037,31.436501 C 11.940474,20.09759 22.043105,11.32322 32.158766,21.979434 L 37.068811,17.246167 C 37.068811,17.246167 37.088388,32 37.088388,32 L 22.160133,31.978069 C 22.160133,31.978069 26.997745,27.140456 26.997745,27.140456 C 18.528582,18.264221 13.291696,25.230495 11.500037,31.436501 z"
             style="fill:#404040;"/>
          </a>
         </g>
        </svg>
</svg>
