<?xml version="1.0" encoding="UTF-8" standalone="no"?>
<!DOCTYPE svg PUBLIC "-//W3C//DTD SVG 1.1//EN"
 "http://www.w3.org/Graphics/SVG/1.1/DTD/svg11.dtd">
<!-- Generated by graphviz version 2.50.0 (20220203.2022)
 -->
<!-- Title: include/rel/d/a/kytag/d_a_kytag05/d_a_kytag05.h Pages: 1 -->
<svg width="5314pt" height="363pt"
 viewBox="0.00 0.00 5314.30 363.00" xmlns="http://www.w3.org/2000/svg" xmlns:xlink="http://www.w3.org/1999/xlink">
<g id="graph0" class="graph" transform="scale(1 1) rotate(0) translate(4 359)">
<title>include/rel/d/a/kytag/d_a_kytag05/d_a_kytag05.h</title>
<polygon fill="white" stroke="transparent" points="-4,4 -4,-359 5310.3,-359 5310.3,4 -4,4"/>
<!-- Node1 -->
<g id="node1" class="node">
<title>Node1</title>
<g id="a_node1"><a xlink:title=" ">
<polygon fill="#bfbfbf" stroke="black" points="1083.5,-324.5 1083.5,-354.5 1223.5,-354.5 1223.5,-324.5 1083.5,-324.5"/>
<text text-anchor="start" x="1091.5" y="-342.5" font-family="Helvetica,sans-Serif" font-size="10.00">include/rel/d/a/kytag</text>
<text text-anchor="middle" x="1153.5" y="-331.5" font-family="Helvetica,sans-Serif" font-size="10.00">/d_a_kytag05/d_a_kytag05.h</text>
</a>
</g>
</g>
<!-- Node2 -->
<g id="node2" class="node">
<title>Node2</title>
<g id="a_node2"><a xlink:href="d__a__alink_8h.html" target="_top" xlink:title=" ">
<polygon fill="white" stroke="black" points="1095.5,-268.5 1095.5,-287.5 1211.5,-287.5 1211.5,-268.5 1095.5,-268.5"/>
<text text-anchor="middle" x="1153.5" y="-275.5" font-family="Helvetica,sans-Serif" font-size="10.00">include/d/a/d_a_alink.h</text>
</a>
</g>
</g>
<!-- Node1&#45;&gt;Node2 -->
<g id="edge1" class="edge">
<title>Node1&#45;&gt;Node2</title>
<path fill="none" stroke="midnightblue" d="M1153.5,-314.29C1153.5,-304.86 1153.5,-294.65 1153.5,-287.66"/>
<polygon fill="midnightblue" stroke="midnightblue" points="1150,-314.4 1153.5,-324.4 1157,-314.4 1150,-314.4"/>
</g>
<!-- Node3 -->
<g id="node3" class="node">
<title>Node3</title>
<g id="a_node3"><a xlink:href="d__com__inf__game_8h.html" target="_top" xlink:title=" ">
<polygon fill="white" stroke="black" points="2198.5,-201.5 2198.5,-231.5 2308.5,-231.5 2308.5,-201.5 2198.5,-201.5"/>
<text text-anchor="start" x="2206.5" y="-219.5" font-family="Helvetica,sans-Serif" font-size="10.00">include/d/com/d_com</text>
<text text-anchor="middle" x="2253.5" y="-208.5" font-family="Helvetica,sans-Serif" font-size="10.00">_inf_game.h</text>
</a>
</g>
</g>
<!-- Node2&#45;&gt;Node3 -->
<g id="edge2" class="edge">
<title>Node2&#45;&gt;Node3</title>
<path fill="none" stroke="midnightblue" d="M1222.05,-273.29C1424.06,-262.37 2014.46,-230.43 2198.24,-220.49"/>
<polygon fill="midnightblue" stroke="midnightblue" points="1221.66,-269.81 1211.86,-273.84 1222.04,-276.8 1221.66,-269.81"/>
</g>
<!-- Node36 -->
<g id="node24" class="node">
<title>Node36</title>
<g id="a_node24"><a xlink:href="d__a__alink_8cpp.html" target="_top" xlink:title=" ">
<polygon fill="white" stroke="black" points="0,-134.5 0,-153.5 109,-153.5 109,-134.5 0,-134.5"/>
<text text-anchor="middle" x="54.5" y="-141.5" font-family="Helvetica,sans-Serif" font-size="10.00">src/d/a/d_a_alink.cpp</text>
</a>
</g>
</g>
<!-- Node2&#45;&gt;Node36 -->
<g id="edge63" class="edge">
<title>Node2&#45;&gt;Node36</title>
<path fill="none" stroke="midnightblue" d="M1085.4,-273.69C919.48,-264.75 481.71,-235.83 123.5,-165 108.94,-162.12 93.01,-157.6 80.12,-153.58"/>
<polygon fill="midnightblue" stroke="midnightblue" points="1085.28,-277.19 1095.46,-274.23 1085.66,-270.2 1085.28,-277.19"/>
</g>
<!-- Node4 -->
<g id="node4" class="node">
<title>Node4</title>
<g id="a_node4"><a xlink:href="d__a__npc_8h.html" target="_top" xlink:title=" ">
<polygon fill="white" stroke="red" points="454,-134.5 454,-153.5 565,-153.5 565,-134.5 454,-134.5"/>
<text text-anchor="middle" x="509.5" y="-141.5" font-family="Helvetica,sans-Serif" font-size="10.00">include/d/a/d_a_npc.h</text>
</a>
</g>
</g>
<!-- Node3&#45;&gt;Node4 -->
<g id="edge3" class="edge">
<title>Node3&#45;&gt;Node4</title>
<path fill="none" stroke="midnightblue" d="M2188.09,-214.49C1898.63,-209.87 740.2,-189.98 579.5,-165 564.01,-162.59 547.11,-157.82 533.79,-153.55"/>
<polygon fill="midnightblue" stroke="midnightblue" points="2188.36,-217.99 2198.42,-214.65 2188.47,-210.99 2188.36,-217.99"/>
</g>
<!-- Node6 -->
<g id="node6" class="node">
<title>Node6</title>
<g id="a_node6"><a xlink:href="d__msg__flow_8cpp.html" target="_top" xlink:title=" ">
<polygon fill="white" stroke="black" points="383,-0.5 383,-19.5 516,-19.5 516,-0.5 383,-0.5"/>
<text text-anchor="middle" x="449.5" y="-7.5" font-family="Helvetica,sans-Serif" font-size="10.00">src/d/msg/d_msg_flow.cpp</text>
</a>
</g>
</g>
<!-- Node3&#45;&gt;Node6 -->
<g id="edge54" class="edge">
<title>Node3&#45;&gt;Node6</title>
<path fill="none" stroke="midnightblue" d="M2188.19,-215.15C1840.19,-213.13 218.37,-201.76 182.5,-165 163.01,-145.03 197.15,-59.08 200.5,-56 226.53,-32.06 318.3,-20.44 382.83,-15.1"/>
<polygon fill="midnightblue" stroke="midnightblue" points="2188.33,-218.65 2198.35,-215.21 2188.37,-211.65 2188.33,-218.65"/>
</g>
<!-- Node7 -->
<g id="node7" class="node">
<title>Node7</title>
<g id="a_node7"><a xlink:href="d__shop__system_8cpp.html" target="_top" xlink:title=" ">
<polygon fill="white" stroke="black" points="770.5,-0.5 770.5,-19.5 922.5,-19.5 922.5,-0.5 770.5,-0.5"/>
<text text-anchor="middle" x="846.5" y="-7.5" font-family="Helvetica,sans-Serif" font-size="10.00">src/d/shop/d_shop_system.cpp</text>
</a>
</g>
</g>
<!-- Node3&#45;&gt;Node7 -->
<g id="edge58" class="edge">
<title>Node3&#45;&gt;Node7</title>
<path fill="none" stroke="midnightblue" d="M2318.75,-215.67C2755.85,-216.68 5242.43,-219.97 5296.5,-165 5309.59,-151.69 5309.53,-136.36 5296.5,-123 5216.94,-41.41 1504.18,-15.08 922.74,-11.45"/>
<polygon fill="midnightblue" stroke="midnightblue" points="2318.52,-212.17 2308.51,-215.65 2318.5,-219.17 2318.52,-212.17"/>
</g>
<!-- Node9 -->
<g id="node8" class="node">
<title>Node9</title>
<g id="a_node8"><a xlink:href="d__cc__uty_8h.html" target="_top" xlink:title=" ">
<polygon fill="white" stroke="red" points="204,-134.5 204,-153.5 323,-153.5 323,-134.5 204,-134.5"/>
<text text-anchor="middle" x="263.5" y="-141.5" font-family="Helvetica,sans-Serif" font-size="10.00">include/d/cc/d_cc_uty.h</text>
</a>
</g>
</g>
<!-- Node3&#45;&gt;Node9 -->
<g id="edge7" class="edge">
<title>Node3&#45;&gt;Node9</title>
<path fill="none" stroke="midnightblue" d="M2187.94,-214.77C1872.51,-211.13 518.71,-193.94 332.5,-165 317.22,-162.62 300.55,-157.86 287.43,-153.57"/>
<polygon fill="midnightblue" stroke="midnightblue" points="2188.24,-218.28 2198.28,-214.89 2188.32,-211.28 2188.24,-218.28"/>
</g>
<!-- Node11 -->
<g id="node9" class="node">
<title>Node11</title>
<g id="a_node9"><a xlink:href="d__item_8h.html" target="_top" xlink:title=" ">
<polygon fill="white" stroke="red" points="341,-134.5 341,-153.5 436,-153.5 436,-134.5 341,-134.5"/>
<text text-anchor="middle" x="388.5" y="-141.5" font-family="Helvetica,sans-Serif" font-size="10.00">include/d/d_item.h</text>
</a>
</g>
</g>
<!-- Node3&#45;&gt;Node11 -->
<g id="edge8" class="edge">
<title>Node3&#45;&gt;Node11</title>
<path fill="none" stroke="midnightblue" d="M2187.85,-214.87C1883.73,-211.78 619.16,-197.08 445.5,-165 432.71,-162.64 418.94,-157.87 408.14,-153.58"/>
<polygon fill="midnightblue" stroke="midnightblue" points="2188.23,-218.37 2198.26,-214.97 2188.3,-211.37 2188.23,-218.37"/>
</g>
<!-- Node12 -->
<g id="node10" class="node">
<title>Node12</title>
<g id="a_node10"><a xlink:href="d__com__inf__game_8cpp.html" target="_top" xlink:title=" ">
<polygon fill="white" stroke="black" points="209.5,-56.5 209.5,-86.5 317.5,-86.5 317.5,-56.5 209.5,-56.5"/>
<text text-anchor="start" x="217.5" y="-74.5" font-family="Helvetica,sans-Serif" font-size="10.00">src/d/com/d_com_inf</text>
<text text-anchor="middle" x="263.5" y="-63.5" font-family="Helvetica,sans-Serif" font-size="10.00">_game.cpp</text>
</a>
</g>
</g>
<!-- Node3&#45;&gt;Node12 -->
<g id="edge35" class="edge">
<title>Node3&#45;&gt;Node12</title>
<path fill="none" stroke="midnightblue" d="M2188.32,-215.14C1841.92,-213.08 231.14,-201.52 195.5,-165 182.46,-151.64 187.11,-139.68 195.5,-123 203.49,-107.1 219.12,-94.95 233.38,-86.56"/>
<polygon fill="midnightblue" stroke="midnightblue" points="2188.42,-218.64 2198.44,-215.2 2188.46,-211.64 2188.42,-218.64"/>
</g>
<!-- Node15 -->
<g id="node11" class="node">
<title>Node15</title>
<g id="a_node11"><a xlink:href="d__kantera__icon__meter_8h.html" target="_top" xlink:title=" ">
<polygon fill="white" stroke="red" points="622,-129 622,-159 723,-159 723,-129 622,-129"/>
<text text-anchor="start" x="630" y="-147" font-family="Helvetica,sans-Serif" font-size="10.00">include/d/d_kantera</text>
<text text-anchor="middle" x="672.5" y="-136" font-family="Helvetica,sans-Serif" font-size="10.00">_icon_meter.h</text>
</a>
</g>
</g>
<!-- Node3&#45;&gt;Node15 -->
<g id="edge12" class="edge">
<title>Node3&#45;&gt;Node15</title>
<path fill="none" stroke="midnightblue" d="M2188.1,-215.83C1934.82,-216.73 1018.34,-216.27 732.5,-165 724.83,-163.62 716.79,-161.47 709.19,-159.08"/>
<polygon fill="midnightblue" stroke="midnightblue" points="2188.26,-219.33 2198.25,-215.79 2188.24,-212.33 2188.26,-219.33"/>
</g>
<!-- Node17 -->
<g id="node12" class="node">
<title>Node17</title>
<g id="a_node12"><a xlink:href="d__meter2__draw_8cpp.html" target="_top" xlink:title=" ">
<polygon fill="white" stroke="black" points="617.5,-56.5 617.5,-86.5 727.5,-86.5 727.5,-56.5 617.5,-56.5"/>
<text text-anchor="start" x="625.5" y="-74.5" font-family="Helvetica,sans-Serif" font-size="10.00">src/d/meter/d_meter2</text>
<text text-anchor="middle" x="672.5" y="-63.5" font-family="Helvetica,sans-Serif" font-size="10.00">_draw.cpp</text>
</a>
</g>
</g>
<!-- Node3&#45;&gt;Node17 -->
<g id="edge51" class="edge">
<title>Node3&#45;&gt;Node17</title>
<path fill="none" stroke="midnightblue" d="M2187.74,-214.71C1885.28,-210.95 641.37,-193.74 613.5,-165 600.51,-151.6 605.69,-139.96 613.5,-123 620.55,-107.69 634.78,-95.29 647.5,-86.61"/>
<polygon fill="midnightblue" stroke="midnightblue" points="2188.05,-218.22 2198.1,-214.84 2188.14,-211.22 2188.05,-218.22"/>
</g>
<!-- Node18 -->
<g id="node13" class="node">
<title>Node18</title>
<g id="a_node13"><a xlink:href="d__model_8h.html" target="_top" xlink:title=" ">
<polygon fill="white" stroke="red" points="741,-134.5 741,-153.5 844,-153.5 844,-134.5 741,-134.5"/>
<text text-anchor="middle" x="792.5" y="-141.5" font-family="Helvetica,sans-Serif" font-size="10.00">include/d/d_model.h</text>
</a>
</g>
</g>
<!-- Node3&#45;&gt;Node18 -->
<g id="edge14" class="edge">
<title>Node3&#45;&gt;Node18</title>
<path fill="none" stroke="midnightblue" d="M2187.81,-215.57C1947.21,-215.44 1114.65,-211.56 853.5,-165 839.89,-162.57 825.16,-157.81 813.58,-153.53"/>
<polygon fill="midnightblue" stroke="midnightblue" points="2188.14,-219.07 2198.14,-215.57 2188.14,-212.07 2188.14,-219.07"/>
</g>
<!-- Node20 -->
<g id="node14" class="node">
<title>Node20</title>
<g id="a_node14"><a xlink:href="d__file__sel__info_8h.html" target="_top" xlink:title=" ">
<polygon fill="white" stroke="red" points="862.5,-129 862.5,-159 958.5,-159 958.5,-129 862.5,-129"/>
<text text-anchor="start" x="870.5" y="-147" font-family="Helvetica,sans-Serif" font-size="10.00">include/d/file/d_file</text>
<text text-anchor="middle" x="910.5" y="-136" font-family="Helvetica,sans-Serif" font-size="10.00">_sel_info.h</text>
</a>
</g>
</g>
<!-- Node3&#45;&gt;Node20 -->
<g id="edge15" class="edge">
<title>Node3&#45;&gt;Node20</title>
<path fill="none" stroke="midnightblue" d="M2188.22,-215.5C1960.91,-215.1 1205.14,-210.3 967.5,-165 960.19,-163.61 952.54,-161.45 945.32,-159.05"/>
<polygon fill="midnightblue" stroke="midnightblue" points="2188.31,-219 2198.32,-215.51 2188.32,-212 2188.31,-219"/>
</g>
<!-- Node22 -->
<g id="node15" class="node">
<title>Node22</title>
<g id="a_node15"><a xlink:href="d__meter2_8h.html" target="_top" xlink:title=" ">
<polygon fill="white" stroke="red" points="976.5,-134.5 976.5,-153.5 1110.5,-153.5 1110.5,-134.5 976.5,-134.5"/>
<text text-anchor="middle" x="1043.5" y="-141.5" font-family="Helvetica,sans-Serif" font-size="10.00">include/d/meter/d_meter2.h</text>
</a>
</g>
</g>
<!-- Node3&#45;&gt;Node22 -->
<g id="edge16" class="edge">
<title>Node3&#45;&gt;Node22</title>
<path fill="none" stroke="midnightblue" d="M2188.04,-214.27C1979.45,-210.08 1331.94,-194.95 1124.5,-165 1106.87,-162.45 1087.48,-157.74 1072.09,-153.52"/>
<polygon fill="midnightblue" stroke="midnightblue" points="2188.16,-217.77 2198.23,-214.47 2188.3,-210.77 2188.16,-217.77"/>
</g>
<!-- Node30 -->
<g id="node16" class="node">
<title>Node30</title>
<g id="a_node16"><a xlink:href="d__msg__object_8h.html" target="_top" xlink:title=" ">
<polygon fill="white" stroke="red" points="1166.5,-129 1166.5,-159 1276.5,-159 1276.5,-129 1166.5,-129"/>
<text text-anchor="start" x="1174.5" y="-147" font-family="Helvetica,sans-Serif" font-size="10.00">include/d/msg/d_msg</text>
<text text-anchor="middle" x="1221.5" y="-136" font-family="Helvetica,sans-Serif" font-size="10.00">_object.h</text>
</a>
</g>
</g>
<!-- Node3&#45;&gt;Node30 -->
<g id="edge17" class="edge">
<title>Node3&#45;&gt;Node30</title>
<path fill="none" stroke="midnightblue" d="M2187.93,-214.02C2000.33,-209.49 1463.76,-194.25 1290.5,-165 1281.89,-163.55 1272.83,-161.39 1264.21,-159.03"/>
<polygon fill="midnightblue" stroke="midnightblue" points="2188.11,-217.53 2198.2,-214.27 2188.28,-210.53 2188.11,-217.53"/>
</g>
<!-- Node31 -->
<g id="node17" class="node">
<title>Node31</title>
<g id="a_node17"><a xlink:href="d__kankyo_8cpp.html" target="_top" xlink:title=" ">
<polygon fill="white" stroke="black" points="898.5,-62 898.5,-81 1032.5,-81 1032.5,-62 898.5,-62"/>
<text text-anchor="middle" x="965.5" y="-69" font-family="Helvetica,sans-Serif" font-size="10.00">src/d/kankyo/d_kankyo.cpp</text>
</a>
</g>
</g>
<!-- Node3&#45;&gt;Node31 -->
<g id="edge46" class="edge">
<title>Node3&#45;&gt;Node31</title>
<path fill="none" stroke="midnightblue" d="M2188.24,-215.4C1966.48,-214.66 1250.51,-208.87 1157.5,-165 1134.73,-154.26 1140.61,-136.71 1119.5,-123 1086.58,-101.62 1043.81,-88.54 1011.7,-81.07"/>
<polygon fill="midnightblue" stroke="midnightblue" points="2188.41,-218.9 2198.42,-215.43 2188.43,-211.9 2188.41,-218.9"/>
</g>
<!-- Node25 -->
<g id="node18" class="node">
<title>Node25</title>
<g id="a_node18"><a xlink:href="d__menu__window_8cpp.html" target="_top" xlink:title=" ">
<polygon fill="white" stroke="black" points="1126,-62 1126,-81 1285,-81 1285,-62 1126,-62"/>
<text text-anchor="middle" x="1205.5" y="-69" font-family="Helvetica,sans-Serif" font-size="10.00">src/d/menu/d_menu_window.cpp</text>
</a>
</g>
</g>
<!-- Node3&#45;&gt;Node25 -->
<g id="edge49" class="edge">
<title>Node3&#45;&gt;Node25</title>
<path fill="none" stroke="midnightblue" d="M2188.38,-215.88C2009.48,-216.29 1513.46,-212.95 1358.5,-165 1350.83,-162.63 1255.53,-103.61 1219.33,-81.11"/>
<polygon fill="midnightblue" stroke="midnightblue" points="2188.45,-219.38 2198.44,-215.85 2188.43,-212.38 2188.45,-219.38"/>
</g>
<!-- Node27 -->
<g id="node19" class="node">
<title>Node27</title>
<g id="a_node19"><a xlink:href="d__meter2__info_8cpp.html" target="_top" xlink:title=" ">
<polygon fill="white" stroke="black" points="1303.5,-56.5 1303.5,-86.5 1413.5,-86.5 1413.5,-56.5 1303.5,-56.5"/>
<text text-anchor="start" x="1311.5" y="-74.5" font-family="Helvetica,sans-Serif" font-size="10.00">src/d/meter/d_meter2</text>
<text text-anchor="middle" x="1358.5" y="-63.5" font-family="Helvetica,sans-Serif" font-size="10.00">_info.cpp</text>
</a>
</g>
</g>
<!-- Node3&#45;&gt;Node27 -->
<g id="edge52" class="edge">
<title>Node3&#45;&gt;Node27</title>
<path fill="none" stroke="midnightblue" d="M2188.09,-215.9C1997.15,-216.48 1450.09,-213.84 1387.5,-165 1363.48,-146.26 1358.93,-107.78 1358.32,-86.84"/>
<polygon fill="midnightblue" stroke="midnightblue" points="2188.27,-219.4 2198.26,-215.86 2188.25,-212.4 2188.27,-219.4"/>
</g>
<!-- Node26 -->
<g id="node20" class="node">
<title>Node26</title>
<g id="a_node20"><a xlink:href="d__meter__map_8cpp.html" target="_top" xlink:title=" ">
<polygon fill="white" stroke="black" points="1431.5,-56.5 1431.5,-86.5 1535.5,-86.5 1535.5,-56.5 1431.5,-56.5"/>
<text text-anchor="start" x="1439.5" y="-74.5" font-family="Helvetica,sans-Serif" font-size="10.00">src/d/meter/d_meter</text>
<text text-anchor="middle" x="1483.5" y="-63.5" font-family="Helvetica,sans-Serif" font-size="10.00">_map.cpp</text>
</a>
</g>
</g>
<!-- Node3&#45;&gt;Node26 -->
<g id="edge53" class="edge">
<title>Node3&#45;&gt;Node26</title>
<path fill="none" stroke="midnightblue" d="M2188.16,-214.05C1993.21,-209.42 1427.43,-193.57 1400.5,-165 1387.7,-151.42 1391.35,-139.27 1400.5,-123 1409.84,-106.38 1427.11,-94.6 1443.48,-86.62"/>
<polygon fill="midnightblue" stroke="midnightblue" points="2188.19,-217.56 2198.27,-214.29 2188.35,-210.56 2188.19,-217.56"/>
</g>
<!-- Node33 -->
<g id="node21" class="node">
<title>Node33</title>
<g id="a_node21"><a xlink:href="d__s__play_8h.html" target="_top" xlink:title=" ">
<polygon fill="white" stroke="red" points="1409,-134.5 1409,-153.5 1522,-153.5 1522,-134.5 1409,-134.5"/>
<text text-anchor="middle" x="1465.5" y="-141.5" font-family="Helvetica,sans-Serif" font-size="10.00">include/d/s/d_s_play.h</text>
</a>
</g>
</g>
<!-- Node3&#45;&gt;Node33 -->
<g id="edge25" class="edge">
<title>Node3&#45;&gt;Node33</title>
<path fill="none" stroke="midnightblue" d="M2187.8,-215.81C2060.2,-215.33 1770.39,-208.97 1531.5,-165 1517.13,-162.36 1501.47,-157.69 1489.01,-153.53"/>
<polygon fill="midnightblue" stroke="midnightblue" points="2188.17,-219.31 2198.17,-215.84 2188.18,-212.31 2188.17,-219.31"/>
</g>
<!-- Node34 -->
<g id="node22" class="node">
<title>Node34</title>
<g id="a_node22"><a xlink:href="d__a__tag__telop_8h.html" target="_top" xlink:title=" ">
<polygon fill="white" stroke="black" points="1540.5,-123.5 1540.5,-164.5 1658.5,-164.5 1658.5,-123.5 1540.5,-123.5"/>
<text text-anchor="start" x="1548.5" y="-152.5" font-family="Helvetica,sans-Serif" font-size="10.00">include/rel/d/a/tag</text>
<text text-anchor="start" x="1548.5" y="-141.5" font-family="Helvetica,sans-Serif" font-size="10.00">/d_a_tag_telop/d_a_tag</text>
<text text-anchor="middle" x="1599.5" y="-130.5" font-family="Helvetica,sans-Serif" font-size="10.00">_telop.h</text>
</a>
</g>
</g>
<!-- Node3&#45;&gt;Node34 -->
<g id="edge26" class="edge">
<title>Node3&#45;&gt;Node34</title>
<path fill="none" stroke="midnightblue" d="M2188.01,-214.02C2079.26,-210.64 1854.9,-199.71 1668.5,-165 1665.31,-164.41 1662.06,-163.73 1658.79,-162.99"/>
<polygon fill="midnightblue" stroke="midnightblue" points="2188.07,-217.53 2198.17,-214.33 2188.28,-210.53 2188.07,-217.53"/>
</g>
<!-- Node35 -->
<g id="node23" class="node">
<title>Node35</title>
<g id="a_node23"><a xlink:href="c__dylink_8cpp.html" target="_top" xlink:title=" ">
<polygon fill="white" stroke="black" points="1677,-134.5 1677,-153.5 1772,-153.5 1772,-134.5 1677,-134.5"/>
<text text-anchor="middle" x="1724.5" y="-141.5" font-family="Helvetica,sans-Serif" font-size="10.00">src/c/c_dylink.cpp</text>
</a>
</g>
</g>
<!-- Node3&#45;&gt;Node35 -->
<g id="edge27" class="edge">
<title>Node3&#45;&gt;Node35</title>
<path fill="none" stroke="midnightblue" d="M2188.06,-213.26C2096.22,-209.05 1924.31,-197.24 1781.5,-165 1769.22,-162.23 1755.93,-157.66 1745.27,-153.59"/>
<polygon fill="midnightblue" stroke="midnightblue" points="2188.17,-216.77 2198.32,-213.72 2188.48,-209.78 2188.17,-216.77"/>
</g>
<!-- Node3&#45;&gt;Node36 -->
<g id="edge28" class="edge">
<title>Node3&#45;&gt;Node36</title>
<path fill="none" stroke="midnightblue" d="M2188.11,-214.42C1841.18,-208.66 227.86,-181.08 123.5,-165 108.21,-162.64 91.55,-157.88 78.43,-153.59"/>
<polygon fill="midnightblue" stroke="midnightblue" points="2188.18,-217.93 2198.24,-214.59 2188.3,-210.93 2188.18,-217.93"/>
</g>
<!-- Node37 -->
<g id="node25" class="node">
<title>Node37</title>
<g id="a_node25"><a xlink:href="d__a__itembase_8cpp.html" target="_top" xlink:title=" ">
<polygon fill="white" stroke="black" points="1790.5,-134.5 1790.5,-153.5 1918.5,-153.5 1918.5,-134.5 1790.5,-134.5"/>
<text text-anchor="middle" x="1854.5" y="-141.5" font-family="Helvetica,sans-Serif" font-size="10.00">src/d/a/d_a_itembase.cpp</text>
</a>
</g>
</g>
<!-- Node3&#45;&gt;Node37 -->
<g id="edge29" class="edge">
<title>Node3&#45;&gt;Node37</title>
<path fill="none" stroke="midnightblue" d="M2188.09,-207.59C2121.98,-199.08 2017.08,-184.14 1927.5,-165 1912.59,-161.81 1896.21,-157.41 1882.74,-153.54"/>
<polygon fill="midnightblue" stroke="midnightblue" points="2187.99,-211.11 2198.35,-208.9 2188.88,-204.16 2187.99,-211.11"/>
</g>
<!-- Node38 -->
<g id="node26" class="node">
<title>Node38</title>
<g id="a_node26"><a xlink:href="d__a__player_8cpp.html" target="_top" xlink:title=" ">
<polygon fill="white" stroke="black" points="1936.5,-134.5 1936.5,-153.5 2050.5,-153.5 2050.5,-134.5 1936.5,-134.5"/>
<text text-anchor="middle" x="1993.5" y="-141.5" font-family="Helvetica,sans-Serif" font-size="10.00">src/d/a/d_a_player.cpp</text>
</a>
</g>
</g>
<!-- Node3&#45;&gt;Node38 -->
<g id="edge30" class="edge">
<title>Node3&#45;&gt;Node38</title>
<path fill="none" stroke="midnightblue" d="M2188.3,-199.21C2150.58,-189.62 2102.25,-177.04 2059.5,-165 2046.71,-161.4 2032.6,-157.16 2020.72,-153.51"/>
<polygon fill="midnightblue" stroke="midnightblue" points="2187.6,-202.65 2198.15,-201.71 2189.32,-195.86 2187.6,-202.65"/>
</g>
<!-- Node39 -->
<g id="node27" class="node">
<title>Node39</title>
<g id="a_node27"><a xlink:href="d__bg__s_8cpp.html" target="_top" xlink:title=" ">
<polygon fill="white" stroke="black" points="2068.5,-134.5 2068.5,-153.5 2172.5,-153.5 2172.5,-134.5 2068.5,-134.5"/>
<text text-anchor="middle" x="2120.5" y="-141.5" font-family="Helvetica,sans-Serif" font-size="10.00">src/d/bg/d_bg_s.cpp</text>
</a>
</g>
</g>
<!-- Node3&#45;&gt;Node39 -->
<g id="edge31" class="edge">
<title>Node3&#45;&gt;Node39</title>
<path fill="none" stroke="midnightblue" d="M2217.94,-196.65C2191.5,-182.63 2156.65,-164.16 2136.6,-153.53"/>
<polygon fill="midnightblue" stroke="midnightblue" points="2216.43,-199.81 2226.91,-201.4 2219.71,-193.63 2216.43,-199.81"/>
</g>
<!-- Node40 -->
<g id="node28" class="node">
<title>Node40</title>
<g id="a_node28"><a xlink:href="d__bg__s__movebg__actor_8cpp.html" target="_top" xlink:title=" ">
<polygon fill="white" stroke="black" points="2190.5,-129 2190.5,-159 2316.5,-159 2316.5,-129 2190.5,-129"/>
<text text-anchor="start" x="2198.5" y="-147" font-family="Helvetica,sans-Serif" font-size="10.00">src/d/bg/d_bg_s_movebg</text>
<text text-anchor="middle" x="2253.5" y="-136" font-family="Helvetica,sans-Serif" font-size="10.00">_actor.cpp</text>
</a>
</g>
</g>
<!-- Node3&#45;&gt;Node40 -->
<g id="edge32" class="edge">
<title>Node3&#45;&gt;Node40</title>
<path fill="none" stroke="midnightblue" d="M2253.5,-191.23C2253.5,-180.57 2253.5,-168.41 2253.5,-159.25"/>
<polygon fill="midnightblue" stroke="midnightblue" points="2250,-191.23 2253.5,-201.23 2257,-191.23 2250,-191.23"/>
</g>
<!-- Node41 -->
<g id="node29" class="node">
<title>Node41</title>
<g id="a_node29"><a xlink:href="d__bg__w_8cpp.html" target="_top" xlink:title=" ">
<polygon fill="white" stroke="black" points="2335,-134.5 2335,-153.5 2442,-153.5 2442,-134.5 2335,-134.5"/>
<text text-anchor="middle" x="2388.5" y="-141.5" font-family="Helvetica,sans-Serif" font-size="10.00">src/d/bg/d_bg_w.cpp</text>
</a>
</g>
</g>
<!-- Node3&#45;&gt;Node41 -->
<g id="edge33" class="edge">
<title>Node3&#45;&gt;Node41</title>
<path fill="none" stroke="midnightblue" d="M2289.59,-196.65C2316.44,-182.63 2351.8,-164.16 2372.16,-153.53"/>
<polygon fill="midnightblue" stroke="midnightblue" points="2287.74,-193.67 2280.49,-201.4 2290.98,-199.88 2287.74,-193.67"/>
</g>
<!-- Node42 -->
<g id="node30" class="node">
<title>Node42</title>
<g id="a_node30"><a xlink:href="d__cc__s_8cpp.html" target="_top" xlink:title=" ">
<polygon fill="white" stroke="black" points="2460.5,-134.5 2460.5,-153.5 2564.5,-153.5 2564.5,-134.5 2460.5,-134.5"/>
<text text-anchor="middle" x="2512.5" y="-141.5" font-family="Helvetica,sans-Serif" font-size="10.00">src/d/cc/d_cc_s.cpp</text>
</a>
</g>
</g>
<!-- Node3&#45;&gt;Node42 -->
<g id="edge34" class="edge">
<title>Node3&#45;&gt;Node42</title>
<path fill="none" stroke="midnightblue" d="M2318.92,-199.98C2357.65,-190.51 2407.57,-177.79 2451.5,-165 2463.48,-161.51 2476.66,-157.25 2487.69,-153.55"/>
<polygon fill="midnightblue" stroke="midnightblue" points="2317.71,-196.68 2308.82,-202.44 2319.36,-203.48 2317.71,-196.68"/>
</g>
<!-- Node43 -->
<g id="node31" class="node">
<title>Node43</title>
<g id="a_node31"><a xlink:href="d__eye__hl_8cpp.html" target="_top" xlink:title=" ">
<polygon fill="white" stroke="black" points="2582.5,-134.5 2582.5,-153.5 2680.5,-153.5 2680.5,-134.5 2582.5,-134.5"/>
<text text-anchor="middle" x="2631.5" y="-141.5" font-family="Helvetica,sans-Serif" font-size="10.00">src/d/d_eye_hl.cpp</text>
</a>
</g>
</g>
<!-- Node3&#45;&gt;Node43 -->
<g id="edge36" class="edge">
<title>Node3&#45;&gt;Node43</title>
<path fill="none" stroke="midnightblue" d="M2318.85,-208.59C2384,-200.91 2486.6,-186.66 2573.5,-165 2585.7,-161.96 2598.97,-157.47 2609.74,-153.52"/>
<polygon fill="midnightblue" stroke="midnightblue" points="2318.26,-205.14 2308.73,-209.77 2319.06,-212.09 2318.26,-205.14"/>
</g>
<!-- Node44 -->
<g id="node32" class="node">
<title>Node44</title>
<g id="a_node32"><a xlink:href="d__kyeff_8cpp.html" target="_top" xlink:title=" ">
<polygon fill="white" stroke="black" points="2698.5,-134.5 2698.5,-153.5 2788.5,-153.5 2788.5,-134.5 2698.5,-134.5"/>
<text text-anchor="middle" x="2743.5" y="-141.5" font-family="Helvetica,sans-Serif" font-size="10.00">src/d/d_kyeff.cpp</text>
</a>
</g>
</g>
<!-- Node3&#45;&gt;Node44 -->
<g id="edge37" class="edge">
<title>Node3&#45;&gt;Node44</title>
<path fill="none" stroke="midnightblue" d="M2318.75,-212.81C2404.74,-208.17 2560.25,-195.95 2689.5,-165 2701.17,-162.21 2713.76,-157.64 2723.85,-153.57"/>
<polygon fill="midnightblue" stroke="midnightblue" points="2318.41,-209.32 2308.61,-213.34 2318.78,-216.31 2318.41,-209.32"/>
</g>
<!-- Node45 -->
<g id="node33" class="node">
<title>Node45</title>
<g id="a_node33"><a xlink:href="d__resorce_8cpp.html" target="_top" xlink:title=" ">
<polygon fill="white" stroke="black" points="2806.5,-134.5 2806.5,-153.5 2908.5,-153.5 2908.5,-134.5 2806.5,-134.5"/>
<text text-anchor="middle" x="2857.5" y="-141.5" font-family="Helvetica,sans-Serif" font-size="10.00">src/d/d_resorce.cpp</text>
</a>
</g>
</g>
<!-- Node3&#45;&gt;Node45 -->
<g id="edge38" class="edge">
<title>Node3&#45;&gt;Node45</title>
<path fill="none" stroke="midnightblue" d="M2318.78,-214.25C2421.63,-211.22 2627.22,-200.79 2797.5,-165 2810.5,-162.27 2824.62,-157.65 2835.89,-153.54"/>
<polygon fill="midnightblue" stroke="midnightblue" points="2318.45,-210.76 2308.55,-214.54 2318.65,-217.76 2318.45,-210.76"/>
</g>
<!-- Node46 -->
<g id="node34" class="node">
<title>Node46</title>
<g id="a_node34"><a xlink:href="d__simple__model_8cpp.html" target="_top" xlink:title=" ">
<polygon fill="white" stroke="black" points="2926.5,-134.5 2926.5,-153.5 3056.5,-153.5 3056.5,-134.5 2926.5,-134.5"/>
<text text-anchor="middle" x="2991.5" y="-141.5" font-family="Helvetica,sans-Serif" font-size="10.00">src/d/d_simple_model.cpp</text>
</a>
</g>
</g>
<!-- Node3&#45;&gt;Node46 -->
<g id="edge39" class="edge">
<title>Node3&#45;&gt;Node46</title>
<path fill="none" stroke="midnightblue" d="M2318.67,-214.6C2438.21,-212.04 2700.22,-202.28 2917.5,-165 2933.37,-162.28 2950.77,-157.66 2964.71,-153.55"/>
<polygon fill="midnightblue" stroke="midnightblue" points="2318.51,-211.1 2308.58,-214.8 2318.65,-218.1 2318.51,-211.1"/>
</g>
<!-- Node47 -->
<g id="node35" class="node">
<title>Node47</title>
<g id="a_node35"><a xlink:href="d__stage_8cpp.html" target="_top" xlink:title=" ">
<polygon fill="white" stroke="black" points="3074.5,-134.5 3074.5,-153.5 3168.5,-153.5 3168.5,-134.5 3074.5,-134.5"/>
<text text-anchor="middle" x="3121.5" y="-141.5" font-family="Helvetica,sans-Serif" font-size="10.00">src/d/d_stage.cpp</text>
</a>
</g>
</g>
<!-- Node3&#45;&gt;Node47 -->
<g id="edge40" class="edge">
<title>Node3&#45;&gt;Node47</title>
<path fill="none" stroke="midnightblue" d="M2318.76,-213.8C2485.35,-209.09 2923.2,-194.23 3065.5,-165 3077.94,-162.45 3091.35,-157.73 3101.93,-153.52"/>
<polygon fill="midnightblue" stroke="midnightblue" points="2318.56,-210.31 2308.66,-214.08 2318.75,-217.3 2318.56,-210.31"/>
</g>
<!-- Node48 -->
<g id="node36" class="node">
<title>Node48</title>
<g id="a_node36"><a xlink:href="d__timer_8cpp.html" target="_top" xlink:title=" ">
<polygon fill="white" stroke="black" points="3186.5,-134.5 3186.5,-153.5 3278.5,-153.5 3278.5,-134.5 3186.5,-134.5"/>
<text text-anchor="middle" x="3232.5" y="-141.5" font-family="Helvetica,sans-Serif" font-size="10.00">src/d/d_timer.cpp</text>
</a>
</g>
</g>
<!-- Node3&#45;&gt;Node48 -->
<g id="edge41" class="edge">
<title>Node3&#45;&gt;Node48</title>
<path fill="none" stroke="midnightblue" d="M2319.01,-214.42C2501.52,-211 3013.06,-198.62 3177.5,-165 3189.74,-162.5 3202.92,-157.78 3213.3,-153.56"/>
<polygon fill="midnightblue" stroke="midnightblue" points="2318.7,-210.92 2308.76,-214.61 2318.82,-217.92 2318.7,-210.92"/>
</g>
<!-- Node49 -->
<g id="node37" class="node">
<title>Node49</title>
<g id="a_node37"><a xlink:href="d__tresure_8cpp.html" target="_top" xlink:title=" ">
<polygon fill="white" stroke="black" points="3296.5,-134.5 3296.5,-153.5 3396.5,-153.5 3396.5,-134.5 3296.5,-134.5"/>
<text text-anchor="middle" x="3346.5" y="-141.5" font-family="Helvetica,sans-Serif" font-size="10.00">src/d/d_tresure.cpp</text>
</a>
</g>
</g>
<!-- Node3&#45;&gt;Node49 -->
<g id="edge42" class="edge">
<title>Node3&#45;&gt;Node49</title>
<path fill="none" stroke="midnightblue" d="M2318.85,-214.68C2515.65,-211.83 3100.59,-200.52 3287.5,-165 3300.57,-162.52 3314.7,-157.8 3325.86,-153.57"/>
<polygon fill="midnightblue" stroke="midnightblue" points="2318.61,-211.18 2308.66,-214.82 2318.71,-218.18 2318.61,-211.18"/>
</g>
<!-- Node50 -->
<g id="node38" class="node">
<title>Node50</title>
<g id="a_node38"><a xlink:href="d__event_8cpp.html" target="_top" xlink:title=" ">
<polygon fill="white" stroke="black" points="3415,-134.5 3415,-153.5 3536,-153.5 3536,-134.5 3415,-134.5"/>
<text text-anchor="middle" x="3475.5" y="-141.5" font-family="Helvetica,sans-Serif" font-size="10.00">src/d/event/d_event.cpp</text>
</a>
</g>
</g>
<!-- Node3&#45;&gt;Node50 -->
<g id="edge43" class="edge">
<title>Node3&#45;&gt;Node50</title>
<path fill="none" stroke="midnightblue" d="M2318.56,-214.65C2529.62,-211.59 3193.83,-199.39 3405.5,-165 3420.84,-162.51 3437.6,-157.79 3450.88,-153.57"/>
<polygon fill="midnightblue" stroke="midnightblue" points="2318.51,-211.15 2308.56,-214.8 2318.61,-218.15 2318.51,-211.15"/>
</g>
<!-- Node51 -->
<g id="node39" class="node">
<title>Node51</title>
<g id="a_node39"><a xlink:href="d__event__data_8cpp.html" target="_top" xlink:title=" ">
<polygon fill="white" stroke="black" points="3554,-129 3554,-159 3657,-159 3657,-129 3554,-129"/>
<text text-anchor="start" x="3562" y="-147" font-family="Helvetica,sans-Serif" font-size="10.00">src/d/event/d_event</text>
<text text-anchor="middle" x="3605.5" y="-136" font-family="Helvetica,sans-Serif" font-size="10.00">_data.cpp</text>
</a>
</g>
</g>
<!-- Node3&#45;&gt;Node51 -->
<g id="edge44" class="edge">
<title>Node3&#45;&gt;Node51</title>
<path fill="none" stroke="midnightblue" d="M2318.68,-215.38C2546.48,-214.58 3306.26,-208.64 3545.5,-165 3553.17,-163.6 3561.2,-161.44 3568.8,-159.05"/>
<polygon fill="midnightblue" stroke="midnightblue" points="2318.54,-211.88 2308.55,-215.41 2318.56,-218.88 2318.54,-211.88"/>
</g>
<!-- Node52 -->
<g id="node40" class="node">
<title>Node52</title>
<g id="a_node40"><a xlink:href="d__event__manager_8cpp.html" target="_top" xlink:title=" ">
<polygon fill="white" stroke="black" points="3675,-129 3675,-159 3778,-159 3778,-129 3675,-129"/>
<text text-anchor="start" x="3683" y="-147" font-family="Helvetica,sans-Serif" font-size="10.00">src/d/event/d_event</text>
<text text-anchor="middle" x="3726.5" y="-136" font-family="Helvetica,sans-Serif" font-size="10.00">_manager.cpp</text>
</a>
</g>
</g>
<!-- Node3&#45;&gt;Node52 -->
<g id="edge45" class="edge">
<title>Node3&#45;&gt;Node52</title>
<path fill="none" stroke="midnightblue" d="M2318.63,-215.64C2559.93,-215.76 3402.61,-212.68 3666.5,-165 3674.17,-163.61 3682.2,-161.46 3689.8,-159.07"/>
<polygon fill="midnightblue" stroke="midnightblue" points="2318.61,-212.14 2308.61,-215.63 2318.61,-219.14 2318.61,-212.14"/>
</g>
<!-- Node53 -->
<g id="node41" class="node">
<title>Node53</title>
<g id="a_node41"><a xlink:href="d__kankyo__wether_8cpp.html" target="_top" xlink:title=" ">
<polygon fill="white" stroke="black" points="3796.5,-129 3796.5,-159 3912.5,-159 3912.5,-129 3796.5,-129"/>
<text text-anchor="start" x="3804.5" y="-147" font-family="Helvetica,sans-Serif" font-size="10.00">src/d/kankyo/d_kankyo</text>
<text text-anchor="middle" x="3854.5" y="-136" font-family="Helvetica,sans-Serif" font-size="10.00">_wether.cpp</text>
</a>
</g>
</g>
<!-- Node3&#45;&gt;Node53 -->
<g id="edge47" class="edge">
<title>Node3&#45;&gt;Node53</title>
<path fill="none" stroke="midnightblue" d="M2318.98,-215.58C2573.65,-215.55 3498.27,-212.12 3787.5,-165 3796.01,-163.61 3804.95,-161.46 3813.43,-159.07"/>
<polygon fill="midnightblue" stroke="midnightblue" points="2318.78,-212.08 2308.78,-215.58 2318.78,-219.08 2318.78,-212.08"/>
</g>
<!-- Node54 -->
<g id="node42" class="node">
<title>Node54</title>
<g id="a_node42"><a xlink:href="d__map__path__dmap_8cpp.html" target="_top" xlink:title=" ">
<polygon fill="white" stroke="black" points="3930.5,-129 3930.5,-159 4046.5,-159 4046.5,-129 3930.5,-129"/>
<text text-anchor="start" x="3938.5" y="-147" font-family="Helvetica,sans-Serif" font-size="10.00">src/d/map/d_map_path</text>
<text text-anchor="middle" x="3988.5" y="-136" font-family="Helvetica,sans-Serif" font-size="10.00">_dmap.cpp</text>
</a>
</g>
</g>
<!-- Node3&#45;&gt;Node54 -->
<g id="edge48" class="edge">
<title>Node3&#45;&gt;Node54</title>
<path fill="none" stroke="midnightblue" d="M2319.26,-215.78C2588.17,-216.6 3604.87,-216.16 3921.5,-165 3930.01,-163.63 3938.95,-161.47 3947.43,-159.08"/>
<polygon fill="midnightblue" stroke="midnightblue" points="2318.9,-212.28 2308.89,-215.75 2318.88,-219.28 2318.9,-212.28"/>
</g>
<!-- Node55 -->
<g id="node43" class="node">
<title>Node55</title>
<g id="a_node43"><a xlink:href="d__menu__window__HIO_8cpp.html" target="_top" xlink:title=" ">
<polygon fill="white" stroke="black" points="4065,-129 4065,-159 4206,-159 4206,-129 4065,-129"/>
<text text-anchor="start" x="4073" y="-147" font-family="Helvetica,sans-Serif" font-size="10.00">src/d/menu/d_menu_window</text>
<text text-anchor="middle" x="4135.5" y="-136" font-family="Helvetica,sans-Serif" font-size="10.00">_HIO.cpp</text>
</a>
</g>
</g>
<!-- Node3&#45;&gt;Node55 -->
<g id="edge50" class="edge">
<title>Node3&#45;&gt;Node55</title>
<path fill="none" stroke="midnightblue" d="M2318.87,-215.57C2600.29,-215.56 3709.98,-212.46 4055.5,-165 4065.57,-163.62 4076.21,-161.46 4086.32,-159.07"/>
<polygon fill="midnightblue" stroke="midnightblue" points="2318.81,-212.07 2308.81,-215.56 2318.81,-219.07 2318.81,-212.07"/>
</g>
<!-- Node56 -->
<g id="node44" class="node">
<title>Node56</title>
<g id="a_node44"><a xlink:href="d__s__room_8cpp.html" target="_top" xlink:title=" ">
<polygon fill="white" stroke="black" points="4224.5,-134.5 4224.5,-153.5 4334.5,-153.5 4334.5,-134.5 4224.5,-134.5"/>
<text text-anchor="middle" x="4279.5" y="-141.5" font-family="Helvetica,sans-Serif" font-size="10.00">src/d/s/d_s_room.cpp</text>
</a>
</g>
</g>
<!-- Node3&#45;&gt;Node56 -->
<g id="edge55" class="edge">
<title>Node3&#45;&gt;Node56</title>
<path fill="none" stroke="midnightblue" d="M2318.95,-214.89C2638.3,-211.78 4025.33,-196.53 4215.5,-165 4229.74,-162.64 4245.2,-157.87 4257.36,-153.59"/>
<polygon fill="midnightblue" stroke="midnightblue" points="2318.89,-211.39 2308.92,-214.99 2318.96,-218.39 2318.89,-211.39"/>
</g>
<!-- Node28 -->
<g id="node45" class="node">
<title>Node28</title>
<g id="a_node45"><a xlink:href="d__save_8cpp.html" target="_top" xlink:title=" ">
<polygon fill="white" stroke="black" points="4353,-134.5 4353,-153.5 4468,-153.5 4468,-134.5 4353,-134.5"/>
<text text-anchor="middle" x="4410.5" y="-141.5" font-family="Helvetica,sans-Serif" font-size="10.00">src/d/save/d_save.cpp</text>
</a>
</g>
</g>
<!-- Node3&#45;&gt;Node28 -->
<g id="edge56" class="edge">
<title>Node3&#45;&gt;Node28</title>
<path fill="none" stroke="midnightblue" d="M2319.08,-214.95C2651.22,-212.04 4139.86,-197.26 4343.5,-165 4358.37,-162.64 4374.55,-157.88 4387.29,-153.59"/>
<polygon fill="midnightblue" stroke="midnightblue" points="2318.65,-211.46 2308.68,-215.04 2318.71,-218.46 2318.65,-211.46"/>
</g>
<!-- Node57 -->
<g id="node46" class="node">
<title>Node57</title>
<g id="a_node46"><a xlink:href="d__save__HIO_8cpp.html" target="_top" xlink:title=" ">
<polygon fill="white" stroke="black" points="4486.5,-134.5 4486.5,-153.5 4624.5,-153.5 4624.5,-134.5 4486.5,-134.5"/>
<text text-anchor="middle" x="4555.5" y="-141.5" font-family="Helvetica,sans-Serif" font-size="10.00">src/d/save/d_save_HIO.cpp</text>
</a>
</g>
</g>
<!-- Node3&#45;&gt;Node57 -->
<g id="edge57" class="edge">
<title>Node3&#45;&gt;Node57</title>
<path fill="none" stroke="midnightblue" d="M2318.79,-214.91C2662.99,-211.65 4259.23,-195.06 4477.5,-165 4494.67,-162.64 4513.51,-157.87 4528.37,-153.58"/>
<polygon fill="midnightblue" stroke="midnightblue" points="2318.71,-211.41 2308.74,-215 2318.77,-218.41 2318.71,-211.41"/>
</g>
<!-- Node58 -->
<g id="node47" class="node">
<title>Node58</title>
<g id="a_node47"><a xlink:href="m__Do__MemCardRWmng_8cpp.html" target="_top" xlink:title=" ">
<polygon fill="white" stroke="black" points="4643,-134.5 4643,-153.5 4830,-153.5 4830,-134.5 4643,-134.5"/>
<text text-anchor="middle" x="4736.5" y="-141.5" font-family="Helvetica,sans-Serif" font-size="10.00">src/m_Do/m_Do_MemCardRWmng.cpp</text>
</a>
</g>
</g>
<!-- Node3&#45;&gt;Node58 -->
<g id="edge59" class="edge">
<title>Node3&#45;&gt;Node58</title>
<path fill="none" stroke="midnightblue" d="M2319,-215.62C2652.75,-216.01 4166.5,-214.93 4633.5,-165 4655.96,-162.6 4680.83,-157.83 4700.5,-153.55"/>
<polygon fill="midnightblue" stroke="midnightblue" points="2318.55,-212.12 2308.55,-215.61 2318.55,-219.12 2318.55,-212.12"/>
</g>
<!-- Node59 -->
<g id="node48" class="node">
<title>Node59</title>
<g id="a_node48"><a xlink:href="m__Do__graphic_8cpp.html" target="_top" xlink:title=" ">
<polygon fill="white" stroke="black" points="4848.5,-134.5 4848.5,-153.5 4990.5,-153.5 4990.5,-134.5 4848.5,-134.5"/>
<text text-anchor="middle" x="4919.5" y="-141.5" font-family="Helvetica,sans-Serif" font-size="10.00">src/m_Do/m_Do_graphic.cpp</text>
</a>
</g>
</g>
<!-- Node3&#45;&gt;Node59 -->
<g id="edge60" class="edge">
<title>Node3&#45;&gt;Node59</title>
<path fill="none" stroke="midnightblue" d="M2318.8,-215.11C2695.51,-212.71 4583.24,-199.09 4839.5,-165 4857.1,-162.66 4876.42,-157.89 4891.66,-153.6"/>
<polygon fill="midnightblue" stroke="midnightblue" points="2318.59,-211.61 2308.62,-215.17 2318.64,-218.61 2318.59,-211.61"/>
</g>
<!-- Node60 -->
<g id="node49" class="node">
<title>Node60</title>
<g id="a_node49"><a xlink:href="m__Do__machine__exception_8cpp.html" target="_top" xlink:title=" ">
<polygon fill="white" stroke="black" points="5009,-129 5009,-159 5138,-159 5138,-129 5009,-129"/>
<text text-anchor="start" x="5017" y="-147" font-family="Helvetica,sans-Serif" font-size="10.00">src/m_Do/m_Do_machine</text>
<text text-anchor="middle" x="5073.5" y="-136" font-family="Helvetica,sans-Serif" font-size="10.00">_exception.cpp</text>
</a>
</g>
</g>
<!-- Node3&#45;&gt;Node60 -->
<g id="edge61" class="edge">
<title>Node3&#45;&gt;Node60</title>
<path fill="none" stroke="midnightblue" d="M2319.05,-215.26C2710.06,-213.69 4726.86,-203.75 4999.5,-165 5008.99,-163.65 5018.99,-161.48 5028.47,-159.05"/>
<polygon fill="midnightblue" stroke="midnightblue" points="2318.75,-211.76 2308.77,-215.3 2318.78,-218.76 2318.75,-211.76"/>
</g>
<!-- Node61 -->
<g id="node50" class="node">
<title>Node61</title>
<g id="a_node50"><a xlink:href="m__Do__main_8cpp.html" target="_top" xlink:title=" ">
<polygon fill="white" stroke="black" points="5156,-134.5 5156,-153.5 5287,-153.5 5287,-134.5 5156,-134.5"/>
<text text-anchor="middle" x="5221.5" y="-141.5" font-family="Helvetica,sans-Serif" font-size="10.00">src/m_Do/m_Do_main.cpp</text>
</a>
</g>
</g>
<!-- Node3&#45;&gt;Node61 -->
<g id="edge62" class="edge">
<title>Node3&#45;&gt;Node61</title>
<path fill="none" stroke="midnightblue" d="M2318.71,-215.33C2721.15,-214.12 4859.23,-205.83 5147.5,-165 5163.97,-162.67 5182,-157.84 5196.14,-153.52"/>
<polygon fill="midnightblue" stroke="midnightblue" points="2318.68,-211.83 2308.7,-215.36 2318.71,-218.83 2318.68,-211.83"/>
</g>
<!-- Node5 -->
<g id="node5" class="node">
<title>Node5</title>
<g id="a_node5"><a xlink:href="d__shop__system_8h.html" target="_top" xlink:title=" ">
<polygon fill="white" stroke="black" points="454.5,-56.5 454.5,-86.5 568.5,-86.5 568.5,-56.5 454.5,-56.5"/>
<text text-anchor="start" x="462.5" y="-74.5" font-family="Helvetica,sans-Serif" font-size="10.00">include/d/shop/d_shop</text>
<text text-anchor="middle" x="511.5" y="-63.5" font-family="Helvetica,sans-Serif" font-size="10.00">_system.h</text>
</a>
</g>
</g>
<!-- Node4&#45;&gt;Node5 -->
<g id="edge4" class="edge">
<title>Node4&#45;&gt;Node5</title>
<path fill="none" stroke="midnightblue" d="M510.03,-124.24C510.37,-112.41 510.79,-97.38 511.1,-86.58"/>
<polygon fill="midnightblue" stroke="midnightblue" points="506.53,-124.26 509.75,-134.36 513.53,-124.46 506.53,-124.26"/>
</g>
<!-- Node5&#45;&gt;Node6 -->
<g id="edge5" class="edge">
<title>Node5&#45;&gt;Node6</title>
<path fill="none" stroke="midnightblue" d="M489.41,-49.3C478.77,-39.09 466.6,-27.41 458.52,-19.66"/>
<polygon fill="midnightblue" stroke="midnightblue" points="487.17,-52 496.81,-56.4 492.02,-46.95 487.17,-52"/>
</g>
<!-- Node5&#45;&gt;Node7 -->
<g id="edge6" class="edge">
<title>Node5&#45;&gt;Node7</title>
<path fill="none" stroke="midnightblue" d="M578.87,-58.53C643.94,-46.98 740.88,-29.76 798.49,-19.53"/>
<polygon fill="midnightblue" stroke="midnightblue" points="577.94,-55.14 568.71,-60.34 579.17,-62.04 577.94,-55.14"/>
</g>
<!-- Node11&#45;&gt;Node6 -->
<g id="edge10" class="edge">
<title>Node11&#45;&gt;Node6</title>
<path fill="none" stroke="midnightblue" d="M391.28,-124.52C394.55,-106.32 401.03,-78.11 412.5,-56 419.77,-42 431.92,-28.35 440.3,-19.82"/>
<polygon fill="midnightblue" stroke="midnightblue" points="387.83,-123.98 389.65,-134.41 394.73,-125.12 387.83,-123.98"/>
</g>
<!-- Node11&#45;&gt;Node7 -->
<g id="edge11" class="edge">
<title>Node11&#45;&gt;Node7</title>
<path fill="none" stroke="midnightblue" d="M394.95,-124.77C403.23,-104.3 419.7,-71.87 445.5,-56 498.24,-23.57 669.31,-14.47 770.17,-11.94"/>
<polygon fill="midnightblue" stroke="midnightblue" points="391.63,-123.64 391.36,-134.24 398.18,-126.13 391.63,-123.64"/>
</g>
<!-- Node11&#45;&gt;Node12 -->
<g id="edge9" class="edge">
<title>Node11&#45;&gt;Node12</title>
<path fill="none" stroke="midnightblue" d="M364.21,-129.3C342.39,-116.99 310.48,-99 288.46,-86.58"/>
<polygon fill="midnightblue" stroke="midnightblue" points="362.74,-132.49 373.17,-134.36 366.18,-126.39 362.74,-132.49"/>
</g>
<!-- Node15&#45;&gt;Node17 -->
<g id="edge13" class="edge">
<title>Node15&#45;&gt;Node17</title>
<path fill="none" stroke="midnightblue" d="M672.5,-118.73C672.5,-108.07 672.5,-95.91 672.5,-86.75"/>
<polygon fill="midnightblue" stroke="midnightblue" points="669,-118.73 672.5,-128.73 676,-118.73 669,-118.73"/>
</g>
<!-- Node30&#45;&gt;Node6 -->
<g id="edge23" class="edge">
<title>Node30&#45;&gt;Node6</title>
<path fill="none" stroke="midnightblue" d="M1160.71,-125.79C1133.21,-116.54 1101.01,-103.59 1074.5,-87 1057.44,-76.33 1059.91,-64.11 1041.5,-56 994.43,-35.26 660.79,-19.5 516.13,-13.57"/>
<polygon fill="midnightblue" stroke="midnightblue" points="1159.63,-129.12 1170.23,-128.91 1161.81,-122.47 1159.63,-129.12"/>
</g>
<!-- Node30&#45;&gt;Node7 -->
<g id="edge24" class="edge">
<title>Node30&#45;&gt;Node7</title>
<path fill="none" stroke="midnightblue" d="M1183.99,-124.31C1163.91,-113.93 1138.96,-100.43 1117.5,-87 1097.53,-74.5 1096.11,-65.39 1074.5,-56 1026.3,-35.06 968.12,-23.78 922.6,-17.75"/>
<polygon fill="midnightblue" stroke="midnightblue" points="1182.63,-127.55 1193.13,-128.99 1185.82,-121.32 1182.63,-127.55"/>
</g>
<!-- Node30&#45;&gt;Node17 -->
<g id="edge20" class="edge">
<title>Node30&#45;&gt;Node17</title>
<path fill="none" stroke="midnightblue" d="M1156.23,-129.39C1144.05,-127.08 1131.41,-124.84 1119.5,-123 979.02,-101.33 812.36,-84.95 727.74,-77.29"/>
<polygon fill="midnightblue" stroke="midnightblue" points="1155.84,-132.88 1166.32,-131.33 1157.17,-126 1155.84,-132.88"/>
</g>
<!-- Node30&#45;&gt;Node31 -->
<g id="edge18" class="edge">
<title>Node30&#45;&gt;Node31</title>
<path fill="none" stroke="midnightblue" d="M1163.45,-126.09C1159.75,-125.04 1156.07,-124 1152.5,-123 1098.42,-107.86 1035.32,-90.98 997.98,-81.08"/>
<polygon fill="midnightblue" stroke="midnightblue" points="1162.7,-129.52 1173.28,-128.9 1164.62,-122.79 1162.7,-129.52"/>
</g>
<!-- Node30&#45;&gt;Node25 -->
<g id="edge19" class="edge">
<title>Node30&#45;&gt;Node25</title>
<path fill="none" stroke="midnightblue" d="M1216.05,-118.98C1213.11,-106.01 1209.65,-90.79 1207.52,-81.39"/>
<polygon fill="midnightblue" stroke="midnightblue" points="1212.64,-119.76 1218.26,-128.73 1219.46,-118.21 1212.64,-119.76"/>
</g>
<!-- Node30&#45;&gt;Node27 -->
<g id="edge21" class="edge">
<title>Node30&#45;&gt;Node27</title>
<path fill="none" stroke="midnightblue" d="M1258,-124.22C1280.99,-112.39 1310.16,-97.37 1331.15,-86.57"/>
<polygon fill="midnightblue" stroke="midnightblue" points="1256.18,-121.21 1248.89,-128.9 1259.39,-127.44 1256.18,-121.21"/>
</g>
<!-- Node30&#45;&gt;Node26 -->
<g id="edge22" class="edge">
<title>Node30&#45;&gt;Node26</title>
<path fill="none" stroke="midnightblue" d="M1283.5,-126.32C1328.43,-114.23 1388.52,-98.06 1431.07,-86.61"/>
<polygon fill="midnightblue" stroke="midnightblue" points="1282.32,-123.01 1273.58,-128.99 1284.14,-129.77 1282.32,-123.01"/>
</g>
</g>
</svg>
