<?xml version="1.0" encoding="UTF-8" standalone="no"?>
<!DOCTYPE svg PUBLIC "-//W3C//DTD SVG 1.1//EN"
 "http://www.w3.org/Graphics/SVG/1.1/DTD/svg11.dtd">
<!-- Generated by graphviz version 2.44.0 ()
 -->
<!-- Title: include/d/a/d_a_itembase.h Pages: 1 -->
<!--zoomable 430 -->
<svg id="main" version="1.1" xmlns="http://www.w3.org/2000/svg" xmlns:xlink="http://www.w3.org/1999/xlink" xml:space="preserve" onload="init(evt)">
<style type="text/css"><![CDATA[
.edge:hover path { stroke: red; }
.edge:hover polygon { stroke: red; fill: red; }
]]></style>
<script type="text/javascript"><![CDATA[
var edges = document.getElementsByTagName('g');
if (edges && edges.length) {
  for (var i=0;i<edges.length;i++) {
    if (edges[i].id.substr(0,4)=='edge') {
      edges[i].setAttribute('class','edge');
    }
  }
}
]]></script>
        <defs>
                <circle id="rim" cx="0" cy="0" r="7"/>
                <circle id="rim2" cx="0" cy="0" r="3.5"/>
                <g id="zoomPlus">
                        <use xlink:href="#rim" fill="#404040">
                                <set attributeName="fill" to="#808080" begin="zoomplus.mouseover" end="zoomplus.mouseout"/>
                        </use>
                        <path d="M-4,0h8M0,-4v8" fill="none" stroke="white" stroke-width="1.5" pointer-events="none"/>
                </g>
                <g id="zoomMin">
                        <use xlink:href="#rim" fill="#404040">
                                <set attributeName="fill" to="#808080" begin="zoomminus.mouseover" end="zoomminus.mouseout"/>
                        </use>
                        <path d="M-4,0h8" fill="none" stroke="white" stroke-width="1.5" pointer-events="none"/>
                </g>
                <g id="dirArrow">
                        <path fill="none" stroke="white" stroke-width="1.5" d="M0,-3.0v7 M-2.5,-0.5L0,-3.0L2.5,-0.5"/>
                </g>
               <g id="resetDef">
                       <use xlink:href="#rim2" fill="#404040">
                               <set attributeName="fill" to="#808080" begin="reset.mouseover" end="reset.mouseout"/>
                       </use>
               </g>
        </defs>

<script type="text/javascript">
var viewWidth = 3632;
var viewHeight = 430;
var sectionId = 'dynsection-1';
</script>
<script xlink:href="svgpan.js"/>
<svg id="graph" class="graph">
<g id="viewport">
<title>include/d/a/d_a_itembase.h</title>
<polygon fill="white" stroke="transparent" points="-4,4 -4,-426 3627.5,-426 3627.5,4 -4,4"/>
<!-- Node1 -->
<g id="node1" class="node">
<title>Node1</title>
<g id="a_node1"><a xlink:title=" ">
<polygon fill="#bfbfbf" stroke="black" points="595,-402.5 595,-421.5 730,-421.5 730,-402.5 595,-402.5"/>
<text text-anchor="middle" x="662.5" y="-409.5" font-family="Helvetica,sans-Serif" font-size="10.00">include/d/a/d_a_itembase.h</text>
</a>
</g>
</g>
<!-- Node2 -->
<g id="node2" class="node">
<title>Node2</title>
<g id="a_node2"><a xlink:href="d__a__itembase_8cpp.html" target="_top" xlink:title=" ">
<polygon fill="white" stroke="black" points="452.5,-341 452.5,-360 580.5,-360 580.5,-341 452.5,-341"/>
<text text-anchor="middle" x="516.5" y="-348" font-family="Helvetica,sans-Serif" font-size="10.00">src/d/a/d_a_itembase.cpp</text>
</a>
</g>
</g>
<!-- Node1&#45;&gt;Node2 -->
<g id="edge1" class="edge">
<title>Node1&#45;&gt;Node2</title>
<path fill="none" stroke="midnightblue" d="M632.15,-398.63C603.79,-387.07 562.19,-370.12 537.38,-360.01"/>
<polygon fill="midnightblue" stroke="midnightblue" points="631,-401.94 641.58,-402.48 633.64,-395.46 631,-401.94"/>
</g>
<!-- Node3 -->
<g id="node3" class="node">
<title>Node3</title>
<g id="a_node3"><a xlink:href="d__a__itembase__static_8h.html" target="_top" xlink:title=" ">
<polygon fill="white" stroke="black" points="598.5,-335.5 598.5,-365.5 726.5,-365.5 726.5,-335.5 598.5,-335.5"/>
<text text-anchor="start" x="606.5" y="-353.5" font-family="Helvetica,sans-Serif" font-size="10.00">include/d/a/d_a_itembase</text>
<text text-anchor="middle" x="662.5" y="-342.5" font-family="Helvetica,sans-Serif" font-size="10.00">_static.h</text>
</a>
</g>
</g>
<!-- Node1&#45;&gt;Node3 -->
<g id="edge2" class="edge">
<title>Node1&#45;&gt;Node3</title>
<path fill="none" stroke="midnightblue" d="M662.5,-392.23C662.5,-383.59 662.5,-373.5 662.5,-365.52"/>
<polygon fill="midnightblue" stroke="midnightblue" points="659,-392.48 662.5,-402.48 666,-392.48 659,-392.48"/>
</g>
<!-- Node5 -->
<g id="node5" class="node">
<title>Node5</title>
<g id="a_node5"><a xlink:href="d__event_8h.html" target="_top" xlink:title=" ">
<polygon fill="white" stroke="black" points="744.5,-341 744.5,-360 872.5,-360 872.5,-341 744.5,-341"/>
<text text-anchor="middle" x="808.5" y="-348" font-family="Helvetica,sans-Serif" font-size="10.00">include/d/event/d_event.h</text>
</a>
</g>
</g>
<!-- Node1&#45;&gt;Node5 -->
<g id="edge4" class="edge">
<title>Node1&#45;&gt;Node5</title>
<path fill="none" stroke="midnightblue" d="M692.85,-398.63C721.21,-387.07 762.81,-370.12 787.62,-360.01"/>
<polygon fill="midnightblue" stroke="midnightblue" points="691.36,-395.46 683.42,-402.48 694,-401.94 691.36,-395.46"/>
</g>
<!-- Node4 -->
<g id="node4" class="node">
<title>Node4</title>
<g id="a_node4"><a xlink:href="d__a__itembase__static_8cpp.html" target="_top" xlink:title=" ">
<polygon fill="white" stroke="black" points="607.5,-268.5 607.5,-298.5 717.5,-298.5 717.5,-268.5 607.5,-268.5"/>
<text text-anchor="start" x="615.5" y="-286.5" font-family="Helvetica,sans-Serif" font-size="10.00">src/d/a/d_a_itembase</text>
<text text-anchor="middle" x="662.5" y="-275.5" font-family="Helvetica,sans-Serif" font-size="10.00">_static.cpp</text>
</a>
</g>
</g>
<!-- Node3&#45;&gt;Node4 -->
<g id="edge3" class="edge">
<title>Node3&#45;&gt;Node4</title>
<path fill="none" stroke="midnightblue" d="M662.5,-325.11C662.5,-316.15 662.5,-306.32 662.5,-298.58"/>
<polygon fill="midnightblue" stroke="midnightblue" points="659,-325.4 662.5,-335.4 666,-325.4 659,-325.4"/>
</g>
<!-- Node6 -->
<g id="node6" class="node">
<title>Node6</title>
<g id="a_node6"><a xlink:href="d__event_8cpp.html" target="_top" xlink:title=" ">
<polygon fill="white" stroke="black" points="0,-207 0,-226 121,-226 121,-207 0,-207"/>
<text text-anchor="middle" x="60.5" y="-214" font-family="Helvetica,sans-Serif" font-size="10.00">src/d/event/d_event.cpp</text>
</a>
</g>
</g>
<!-- Node5&#45;&gt;Node6 -->
<g id="edge5" class="edge">
<title>Node5&#45;&gt;Node6</title>
<path fill="none" stroke="midnightblue" d="M797.3,-332.54C783.34,-313.02 757.49,-281.89 726.5,-268 605.21,-213.65 261.22,-249.71 129.5,-232 118.58,-230.53 106.81,-228.3 96.14,-226.03"/>
<polygon fill="midnightblue" stroke="midnightblue" points="794.46,-334.57 803.01,-340.82 800.22,-330.6 794.46,-334.57"/>
</g>
<!-- Node7 -->
<g id="node7" class="node">
<title>Node7</title>
<g id="a_node7"><a xlink:href="d__com__inf__game_8h.html" target="_top" xlink:title=" ">
<polygon fill="white" stroke="black" points="1540.5,-268.5 1540.5,-298.5 1650.5,-298.5 1650.5,-268.5 1540.5,-268.5"/>
<text text-anchor="start" x="1548.5" y="-286.5" font-family="Helvetica,sans-Serif" font-size="10.00">include/d/com/d_com</text>
<text text-anchor="middle" x="1595.5" y="-275.5" font-family="Helvetica,sans-Serif" font-size="10.00">_inf_game.h</text>
</a>
</g>
</g>
<!-- Node5&#45;&gt;Node7 -->
<g id="edge6" class="edge">
<title>Node5&#45;&gt;Node7</title>
<path fill="none" stroke="midnightblue" d="M882.6,-343.38C1039.41,-330.43 1401.8,-300.5 1540.31,-289.06"/>
<polygon fill="midnightblue" stroke="midnightblue" points="882.25,-339.9 872.57,-344.21 882.82,-346.87 882.25,-339.9"/>
</g>
<!-- Node7&#45;&gt;Node6 -->
<g id="edge18" class="edge">
<title>Node7&#45;&gt;Node6</title>
<path fill="none" stroke="midnightblue" d="M1530.18,-281.75C1283.2,-278.68 406.46,-265.62 129.5,-232 118.32,-230.64 106.26,-228.39 95.41,-226.06"/>
<polygon fill="midnightblue" stroke="midnightblue" points="1530.38,-285.25 1540.43,-281.88 1530.47,-278.25 1530.38,-285.25"/>
</g>
<!-- Node8 -->
<g id="node8" class="node">
<title>Node8</title>
<g id="a_node8"><a xlink:href="d__a__player_8cpp.html" target="_top" xlink:title=" ">
<polygon fill="white" stroke="black" points="3243.5,-207 3243.5,-226 3357.5,-226 3357.5,-207 3243.5,-207"/>
<text text-anchor="middle" x="3300.5" y="-214" font-family="Helvetica,sans-Serif" font-size="10.00">src/d/a/d_a_player.cpp</text>
</a>
</g>
</g>
<!-- Node7&#45;&gt;Node8 -->
<g id="edge7" class="edge">
<title>Node7&#45;&gt;Node8</title>
<path fill="none" stroke="midnightblue" d="M1660.91,-282.1C1926.13,-280.25 2922.08,-270.79 3234.5,-232 3245.33,-230.66 3257,-228.37 3267.47,-226.01"/>
<polygon fill="midnightblue" stroke="midnightblue" points="1660.65,-278.61 1650.68,-282.17 1660.7,-285.61 1660.65,-278.61"/>
</g>
<!-- Node9 -->
<g id="node9" class="node">
<title>Node9</title>
<g id="a_node9"><a xlink:href="d__bg__s_8cpp.html" target="_top" xlink:title=" ">
<polygon fill="white" stroke="black" points="3375.5,-207 3375.5,-226 3479.5,-226 3479.5,-207 3375.5,-207"/>
<text text-anchor="middle" x="3427.5" y="-214" font-family="Helvetica,sans-Serif" font-size="10.00">src/d/bg/d_bg_s.cpp</text>
</a>
</g>
</g>
<!-- Node7&#45;&gt;Node9 -->
<g id="edge8" class="edge">
<title>Node7&#45;&gt;Node9</title>
<path fill="none" stroke="midnightblue" d="M1661.06,-282.43C1939.75,-281.84 3027.21,-276.68 3366.5,-232 3376.54,-230.68 3387.33,-228.4 3397.01,-226.04"/>
<polygon fill="midnightblue" stroke="midnightblue" points="1660.71,-278.93 1650.72,-282.45 1660.72,-285.93 1660.71,-278.93"/>
</g>
<!-- Node10 -->
<g id="node10" class="node">
<title>Node10</title>
<g id="a_node10"><a xlink:href="d__bg__s__movebg__actor_8cpp.html" target="_top" xlink:title=" ">
<polygon fill="white" stroke="black" points="3497.5,-201.5 3497.5,-231.5 3623.5,-231.5 3623.5,-201.5 3497.5,-201.5"/>
<text text-anchor="start" x="3505.5" y="-219.5" font-family="Helvetica,sans-Serif" font-size="10.00">src/d/bg/d_bg_s_movebg</text>
<text text-anchor="middle" x="3560.5" y="-208.5" font-family="Helvetica,sans-Serif" font-size="10.00">_actor.cpp</text>
</a>
</g>
</g>
<!-- Node7&#45;&gt;Node10 -->
<g id="edge9" class="edge">
<title>Node7&#45;&gt;Node10</title>
<path fill="none" stroke="midnightblue" d="M1661.2,-282.26C1951.77,-280.99 3123.26,-273.34 3488.5,-232 3491.41,-231.67 3494.39,-231.28 3497.38,-230.85"/>
<polygon fill="midnightblue" stroke="midnightblue" points="1660.81,-278.77 1650.83,-282.31 1660.84,-285.77 1660.81,-278.77"/>
</g>
<!-- Node11 -->
<g id="node11" class="node">
<title>Node11</title>
<g id="a_node11"><a xlink:href="d__bg__w_8cpp.html" target="_top" xlink:title=" ">
<polygon fill="white" stroke="black" points="139,-207 139,-226 246,-226 246,-207 139,-207"/>
<text text-anchor="middle" x="192.5" y="-214" font-family="Helvetica,sans-Serif" font-size="10.00">src/d/bg/d_bg_w.cpp</text>
</a>
</g>
</g>
<!-- Node7&#45;&gt;Node11 -->
<g id="edge10" class="edge">
<title>Node7&#45;&gt;Node11</title>
<path fill="none" stroke="midnightblue" d="M1530.38,-281.67C1297.47,-278.46 506.35,-265.29 255.5,-232 245.26,-230.64 234.25,-228.39 224.34,-226.06"/>
<polygon fill="midnightblue" stroke="midnightblue" points="1530.35,-285.17 1540.39,-281.81 1530.44,-278.17 1530.35,-285.17"/>
</g>
<!-- Node12 -->
<g id="node12" class="node">
<title>Node12</title>
<g id="a_node12"><a xlink:href="d__cc__s_8cpp.html" target="_top" xlink:title=" ">
<polygon fill="white" stroke="black" points="264.5,-207 264.5,-226 368.5,-226 368.5,-207 264.5,-207"/>
<text text-anchor="middle" x="316.5" y="-214" font-family="Helvetica,sans-Serif" font-size="10.00">src/d/cc/d_cc_s.cpp</text>
</a>
</g>
</g>
<!-- Node7&#45;&gt;Node12 -->
<g id="edge11" class="edge">
<title>Node7&#45;&gt;Node12</title>
<path fill="none" stroke="midnightblue" d="M1530.43,-281.29C1312.22,-277 607.55,-261.18 382.5,-232 371.8,-230.61 360.26,-228.35 349.88,-226.02"/>
<polygon fill="midnightblue" stroke="midnightblue" points="1530.38,-284.79 1540.45,-281.49 1530.52,-277.79 1530.38,-284.79"/>
</g>
<!-- Node13 -->
<g id="node13" class="node">
<title>Node13</title>
<g id="a_node13"><a xlink:href="d__com__inf__game_8cpp.html" target="_top" xlink:title=" ">
<polygon fill="white" stroke="black" points="456.5,-67.5 456.5,-97.5 564.5,-97.5 564.5,-67.5 456.5,-67.5"/>
<text text-anchor="start" x="464.5" y="-85.5" font-family="Helvetica,sans-Serif" font-size="10.00">src/d/com/d_com_inf</text>
<text text-anchor="middle" x="510.5" y="-74.5" font-family="Helvetica,sans-Serif" font-size="10.00">_game.cpp</text>
</a>
</g>
</g>
<!-- Node7&#45;&gt;Node13 -->
<g id="edge12" class="edge">
<title>Node7&#45;&gt;Node13</title>
<path fill="none" stroke="midnightblue" d="M1530.14,-282.04C1340.01,-280.25 789.55,-271.68 614.5,-232 538.91,-214.87 496.51,-229.48 453.5,-165 437.5,-141.01 466.63,-113.64 488.82,-97.5"/>
<polygon fill="midnightblue" stroke="midnightblue" points="1530.24,-285.54 1540.27,-282.13 1530.3,-278.54 1530.24,-285.54"/>
</g>
<!-- Node14 -->
<g id="node14" class="node">
<title>Node14</title>
<g id="a_node14"><a xlink:href="d__a__alink_8cpp.html" target="_top" xlink:title=" ">
<polygon fill="white" stroke="black" points="1613,-6 1613,-25 1722,-25 1722,-6 1613,-6"/>
<text text-anchor="middle" x="1667.5" y="-13" font-family="Helvetica,sans-Serif" font-size="10.00">src/d/a/d_a_alink.cpp</text>
</a>
</g>
</g>
<!-- Node7&#45;&gt;Node14 -->
<g id="edge13" class="edge">
<title>Node7&#45;&gt;Node14</title>
<path fill="none" stroke="midnightblue" d="M1604,-258.77C1610.66,-241.85 1620.89,-219 1633.5,-201 1646.48,-182.46 1657.65,-184.27 1669.5,-165 1685.92,-138.3 1686.55,-128.95 1691.5,-98 1693.68,-84.4 1694.53,-80.44 1691.5,-67 1687.95,-51.28 1678.92,-34.71 1673,-25.01"/>
<polygon fill="midnightblue" stroke="midnightblue" points="1600.61,-257.86 1600.33,-268.45 1607.15,-260.34 1600.61,-257.86"/>
</g>
<!-- Node15 -->
<g id="node15" class="node">
<title>Node15</title>
<g id="a_node15"><a xlink:href="d__eye__hl_8cpp.html" target="_top" xlink:title=" ">
<polygon fill="white" stroke="black" points="1642.5,-207 1642.5,-226 1740.5,-226 1740.5,-207 1642.5,-207"/>
<text text-anchor="middle" x="1691.5" y="-214" font-family="Helvetica,sans-Serif" font-size="10.00">src/d/d_eye_hl.cpp</text>
</a>
</g>
</g>
<!-- Node7&#45;&gt;Node15 -->
<g id="edge14" class="edge">
<title>Node7&#45;&gt;Node15</title>
<path fill="none" stroke="midnightblue" d="M1624.83,-262.64C1642.95,-250.37 1665.27,-235.26 1678.94,-226.01"/>
<polygon fill="midnightblue" stroke="midnightblue" points="1622.65,-259.89 1616.33,-268.4 1626.57,-265.69 1622.65,-259.89"/>
</g>
<!-- Node16 -->
<g id="node16" class="node">
<title>Node16</title>
<g id="a_node16"><a xlink:href="d__kyeff_8cpp.html" target="_top" xlink:title=" ">
<polygon fill="white" stroke="black" points="1758.5,-207 1758.5,-226 1848.5,-226 1848.5,-207 1758.5,-207"/>
<text text-anchor="middle" x="1803.5" y="-214" font-family="Helvetica,sans-Serif" font-size="10.00">src/d/d_kyeff.cpp</text>
</a>
</g>
</g>
<!-- Node7&#45;&gt;Node16 -->
<g id="edge15" class="edge">
<title>Node7&#45;&gt;Node16</title>
<path fill="none" stroke="midnightblue" d="M1650.12,-265.43C1690.69,-252.75 1744.3,-236 1776.21,-226.03"/>
<polygon fill="midnightblue" stroke="midnightblue" points="1648.88,-262.15 1640.38,-268.48 1650.97,-268.83 1648.88,-262.15"/>
</g>
<!-- Node17 -->
<g id="node17" class="node">
<title>Node17</title>
<g id="a_node17"><a xlink:href="d__resorce_8cpp.html" target="_top" xlink:title=" ">
<polygon fill="white" stroke="black" points="1866.5,-207 1866.5,-226 1968.5,-226 1968.5,-207 1866.5,-207"/>
<text text-anchor="middle" x="1917.5" y="-214" font-family="Helvetica,sans-Serif" font-size="10.00">src/d/d_resorce.cpp</text>
</a>
</g>
</g>
<!-- Node7&#45;&gt;Node17 -->
<g id="edge16" class="edge">
<title>Node7&#45;&gt;Node17</title>
<path fill="none" stroke="midnightblue" d="M1660.57,-270.83C1713.68,-261.1 1790.62,-246.52 1857.5,-232 1865.88,-230.18 1874.88,-228.08 1883.3,-226.06"/>
<polygon fill="midnightblue" stroke="midnightblue" points="1659.81,-267.41 1650.6,-272.65 1661.07,-274.3 1659.81,-267.41"/>
</g>
<!-- Node18 -->
<g id="node18" class="node">
<title>Node18</title>
<g id="a_node18"><a xlink:href="d__stage_8cpp.html" target="_top" xlink:title=" ">
<polygon fill="white" stroke="black" points="1986.5,-207 1986.5,-226 2080.5,-226 2080.5,-207 1986.5,-207"/>
<text text-anchor="middle" x="2033.5" y="-214" font-family="Helvetica,sans-Serif" font-size="10.00">src/d/d_stage.cpp</text>
</a>
</g>
</g>
<!-- Node7&#45;&gt;Node18 -->
<g id="edge17" class="edge">
<title>Node7&#45;&gt;Node18</title>
<path fill="none" stroke="midnightblue" d="M1660.98,-276.3C1737.37,-268.5 1867.28,-253.47 1977.5,-232 1985.98,-230.35 1995.08,-228.17 2003.43,-226.01"/>
<polygon fill="midnightblue" stroke="midnightblue" points="1660.16,-272.86 1650.56,-277.35 1660.86,-279.83 1660.16,-272.86"/>
</g>
<!-- Node19 -->
<g id="node19" class="node">
<title>Node19</title>
<g id="a_node19"><a xlink:href="d__event__data_8cpp.html" target="_top" xlink:title=" ">
<polygon fill="white" stroke="black" points="2099,-201.5 2099,-231.5 2202,-231.5 2202,-201.5 2099,-201.5"/>
<text text-anchor="start" x="2107" y="-219.5" font-family="Helvetica,sans-Serif" font-size="10.00">src/d/event/d_event</text>
<text text-anchor="middle" x="2150.5" y="-208.5" font-family="Helvetica,sans-Serif" font-size="10.00">_data.cpp</text>
</a>
</g>
</g>
<!-- Node7&#45;&gt;Node19 -->
<g id="edge19" class="edge">
<title>Node7&#45;&gt;Node19</title>
<path fill="none" stroke="midnightblue" d="M1660.66,-278.58C1755.52,-272.25 1936.95,-257.81 2089.5,-232 2092.51,-231.49 2095.58,-230.92 2098.68,-230.31"/>
<polygon fill="midnightblue" stroke="midnightblue" points="1660.39,-275.09 1650.64,-279.24 1660.85,-282.07 1660.39,-275.09"/>
</g>
<!-- Node20 -->
<g id="node20" class="node">
<title>Node20</title>
<g id="a_node20"><a xlink:href="d__event__manager_8cpp.html" target="_top" xlink:title=" ">
<polygon fill="white" stroke="black" points="2220,-201.5 2220,-231.5 2323,-231.5 2323,-201.5 2220,-201.5"/>
<text text-anchor="start" x="2228" y="-219.5" font-family="Helvetica,sans-Serif" font-size="10.00">src/d/event/d_event</text>
<text text-anchor="middle" x="2271.5" y="-208.5" font-family="Helvetica,sans-Serif" font-size="10.00">_manager.cpp</text>
</a>
</g>
</g>
<!-- Node7&#45;&gt;Node20 -->
<g id="edge20" class="edge">
<title>Node7&#45;&gt;Node20</title>
<path fill="none" stroke="midnightblue" d="M1660.85,-280.48C1773.77,-276.24 2012.45,-264.01 2211.5,-232 2214.25,-231.56 2217.06,-231.06 2219.89,-230.51"/>
<polygon fill="midnightblue" stroke="midnightblue" points="1660.51,-276.99 1650.65,-280.85 1660.77,-283.98 1660.51,-276.99"/>
</g>
<!-- Node21 -->
<g id="node21" class="node">
<title>Node21</title>
<g id="a_node21"><a xlink:href="d__kankyo_8cpp.html" target="_top" xlink:title=" ">
<polygon fill="white" stroke="black" points="906.5,-140 906.5,-159 1040.5,-159 1040.5,-140 906.5,-140"/>
<text text-anchor="middle" x="973.5" y="-147" font-family="Helvetica,sans-Serif" font-size="10.00">src/d/kankyo/d_kankyo.cpp</text>
</a>
</g>
</g>
<!-- Node7&#45;&gt;Node21 -->
<g id="edge21" class="edge">
<title>Node7&#45;&gt;Node21</title>
<path fill="none" stroke="midnightblue" d="M1530,-281.08C1443.34,-277.83 1286.49,-267.13 1157.5,-232 1091.77,-214.1 1019.41,-176.18 988.67,-159.13"/>
<polygon fill="midnightblue" stroke="midnightblue" points="1530.09,-284.59 1540.21,-281.44 1530.34,-277.59 1530.09,-284.59"/>
</g>
<!-- Node22 -->
<g id="node22" class="node">
<title>Node22</title>
<g id="a_node22"><a xlink:href="d__kankyo__wether_8cpp.html" target="_top" xlink:title=" ">
<polygon fill="white" stroke="black" points="2341.5,-201.5 2341.5,-231.5 2457.5,-231.5 2457.5,-201.5 2341.5,-201.5"/>
<text text-anchor="start" x="2349.5" y="-219.5" font-family="Helvetica,sans-Serif" font-size="10.00">src/d/kankyo/d_kankyo</text>
<text text-anchor="middle" x="2399.5" y="-208.5" font-family="Helvetica,sans-Serif" font-size="10.00">_wether.cpp</text>
</a>
</g>
</g>
<!-- Node7&#45;&gt;Node22 -->
<g id="edge22" class="edge">
<title>Node7&#45;&gt;Node22</title>
<path fill="none" stroke="midnightblue" d="M1660.91,-281.19C1789.94,-277.91 2086.16,-266.91 2332.5,-232 2335.45,-231.58 2338.46,-231.11 2341.49,-230.59"/>
<polygon fill="midnightblue" stroke="midnightblue" points="1660.71,-277.7 1650.79,-281.44 1660.88,-284.69 1660.71,-277.7"/>
</g>
<!-- Node23 -->
<g id="node23" class="node">
<title>Node23</title>
<g id="a_node23"><a xlink:href="d__menu__window_8cpp.html" target="_top" xlink:title=" ">
<polygon fill="white" stroke="black" points="707,-6 707,-25 866,-25 866,-6 707,-6"/>
<text text-anchor="middle" x="786.5" y="-13" font-family="Helvetica,sans-Serif" font-size="10.00">src/d/menu/d_menu_window.cpp</text>
</a>
</g>
</g>
<!-- Node7&#45;&gt;Node23 -->
<g id="edge23" class="edge">
<title>Node7&#45;&gt;Node23</title>
<path fill="none" stroke="midnightblue" d="M1530.11,-281.23C1298.76,-276.52 530.47,-258.89 485.5,-232 420.92,-193.37 397.52,-123.26 447.5,-67 480.85,-29.47 617.53,-19.47 706.83,-17.02"/>
<polygon fill="midnightblue" stroke="midnightblue" points="1530.32,-284.73 1540.39,-281.44 1530.46,-277.74 1530.32,-284.73"/>
</g>
<!-- Node24 -->
<g id="node24" class="node">
<title>Node24</title>
<g id="a_node24"><a xlink:href="d__menu__window__HIO_8cpp.html" target="_top" xlink:title=" ">
<polygon fill="white" stroke="black" points="2476,-201.5 2476,-231.5 2617,-231.5 2617,-201.5 2476,-201.5"/>
<text text-anchor="start" x="2484" y="-219.5" font-family="Helvetica,sans-Serif" font-size="10.00">src/d/menu/d_menu_window</text>
<text text-anchor="middle" x="2546.5" y="-208.5" font-family="Helvetica,sans-Serif" font-size="10.00">_HIO.cpp</text>
</a>
</g>
</g>
<!-- Node7&#45;&gt;Node24 -->
<g id="edge24" class="edge">
<title>Node7&#45;&gt;Node24</title>
<path fill="none" stroke="midnightblue" d="M1660.82,-281.42C1806.11,-278.42 2166.86,-267.71 2466.5,-232 2469.58,-231.63 2472.73,-231.22 2475.9,-230.78"/>
<polygon fill="midnightblue" stroke="midnightblue" points="1660.66,-277.92 1650.73,-281.62 1660.8,-284.92 1660.66,-277.92"/>
</g>
<!-- Node25 -->
<g id="node25" class="node">
<title>Node25</title>
<g id="a_node25"><a xlink:href="d__meter2__info_8cpp.html" target="_top" xlink:title=" ">
<polygon fill="white" stroke="black" points="864.5,-67.5 864.5,-97.5 974.5,-97.5 974.5,-67.5 864.5,-67.5"/>
<text text-anchor="start" x="872.5" y="-85.5" font-family="Helvetica,sans-Serif" font-size="10.00">src/d/meter/d_meter2</text>
<text text-anchor="middle" x="919.5" y="-74.5" font-family="Helvetica,sans-Serif" font-size="10.00">_info.cpp</text>
</a>
</g>
</g>
<!-- Node7&#45;&gt;Node25 -->
<g id="edge25" class="edge">
<title>Node7&#45;&gt;Node25</title>
<path fill="none" stroke="midnightblue" d="M1530,-281.92C1429.72,-279.75 1232.71,-270.44 1070.5,-232 990.27,-212.99 944.1,-233.02 897.5,-165 883.34,-144.33 897.91,-114.91 909.15,-97.65"/>
<polygon fill="midnightblue" stroke="midnightblue" points="1530.21,-285.42 1540.28,-282.12 1530.35,-278.42 1530.21,-285.42"/>
</g>
<!-- Node26 -->
<g id="node26" class="node">
<title>Node26</title>
<g id="a_node26"><a xlink:href="d__meter2__draw_8cpp.html" target="_top" xlink:title=" ">
<polygon fill="white" stroke="black" points="1408.5,-134.5 1408.5,-164.5 1518.5,-164.5 1518.5,-134.5 1408.5,-134.5"/>
<text text-anchor="start" x="1416.5" y="-152.5" font-family="Helvetica,sans-Serif" font-size="10.00">src/d/meter/d_meter2</text>
<text text-anchor="middle" x="1463.5" y="-141.5" font-family="Helvetica,sans-Serif" font-size="10.00">_draw.cpp</text>
</a>
</g>
</g>
<!-- Node7&#45;&gt;Node26 -->
<g id="edge26" class="edge">
<title>Node7&#45;&gt;Node26</title>
<path fill="none" stroke="midnightblue" d="M1530.13,-278.97C1496.99,-273.47 1459.44,-260.73 1438.5,-232 1423.59,-211.55 1439.76,-182.05 1452.13,-164.72"/>
<polygon fill="midnightblue" stroke="midnightblue" points="1529.84,-282.47 1540.24,-280.46 1530.86,-275.54 1529.84,-282.47"/>
</g>
<!-- Node27 -->
<g id="node27" class="node">
<title>Node27</title>
<g id="a_node27"><a xlink:href="d__meter__map_8cpp.html" target="_top" xlink:title=" ">
<polygon fill="white" stroke="black" points="1290.5,-0.5 1290.5,-30.5 1394.5,-30.5 1394.5,-0.5 1290.5,-0.5"/>
<text text-anchor="start" x="1298.5" y="-18.5" font-family="Helvetica,sans-Serif" font-size="10.00">src/d/meter/d_meter</text>
<text text-anchor="middle" x="1342.5" y="-7.5" font-family="Helvetica,sans-Serif" font-size="10.00">_map.cpp</text>
</a>
</g>
</g>
<!-- Node7&#45;&gt;Node27 -->
<g id="edge27" class="edge">
<title>Node7&#45;&gt;Node27</title>
<path fill="none" stroke="midnightblue" d="M1530.21,-275.95C1496.4,-269.56 1456.47,-256.93 1428.5,-232 1365.95,-176.25 1348.27,-68.83 1343.84,-30.51"/>
<polygon fill="midnightblue" stroke="midnightblue" points="1530.03,-279.48 1540.48,-277.74 1531.23,-272.58 1530.03,-279.48"/>
</g>
<!-- Node28 -->
<g id="node28" class="node">
<title>Node28</title>
<g id="a_node28"><a xlink:href="d__msg__flow_8cpp.html" target="_top" xlink:title=" ">
<polygon fill="white" stroke="black" points="2635,-207 2635,-226 2768,-226 2768,-207 2635,-207"/>
<text text-anchor="middle" x="2701.5" y="-214" font-family="Helvetica,sans-Serif" font-size="10.00">src/d/msg/d_msg_flow.cpp</text>
</a>
</g>
</g>
<!-- Node7&#45;&gt;Node28 -->
<g id="edge28" class="edge">
<title>Node7&#45;&gt;Node28</title>
<path fill="none" stroke="midnightblue" d="M1661.15,-282.51C1824.79,-281.84 2263.72,-275.73 2626.5,-232 2638.48,-230.56 2651.42,-228.31 2663.13,-226.01"/>
<polygon fill="midnightblue" stroke="midnightblue" points="1660.76,-279.01 1650.78,-282.55 1660.79,-286.01 1660.76,-279.01"/>
</g>
<!-- Node29 -->
<g id="node29" class="node">
<title>Node29</title>
<g id="a_node29"><a xlink:href="d__save_8cpp.html" target="_top" xlink:title=" ">
<polygon fill="white" stroke="black" points="1199,-73 1199,-92 1314,-92 1314,-73 1199,-73"/>
<text text-anchor="middle" x="1256.5" y="-80" font-family="Helvetica,sans-Serif" font-size="10.00">src/d/save/d_save.cpp</text>
</a>
</g>
</g>
<!-- Node7&#45;&gt;Node29 -->
<g id="edge29" class="edge">
<title>Node7&#45;&gt;Node29</title>
<path fill="none" stroke="midnightblue" d="M1530.38,-280.25C1481.79,-275.84 1415.62,-263.84 1366.5,-232 1309.69,-195.18 1271.8,-118.17 1260.24,-92.24"/>
<polygon fill="midnightblue" stroke="midnightblue" points="1530.21,-283.75 1540.46,-281.08 1530.78,-276.77 1530.21,-283.75"/>
</g>
<!-- Node30 -->
<g id="node30" class="node">
<title>Node30</title>
<g id="a_node30"><a xlink:href="m__Do__graphic_8cpp.html" target="_top" xlink:title=" ">
<polygon fill="white" stroke="black" points="2786.5,-207 2786.5,-226 2928.5,-226 2928.5,-207 2786.5,-207"/>
<text text-anchor="middle" x="2857.5" y="-214" font-family="Helvetica,sans-Serif" font-size="10.00">src/m_Do/m_Do_graphic.cpp</text>
</a>
</g>
</g>
<!-- Node7&#45;&gt;Node30 -->
<g id="edge30" class="edge">
<title>Node7&#45;&gt;Node30</title>
<path fill="none" stroke="midnightblue" d="M1660.84,-282.83C1839.98,-283.07 2353.73,-279.23 2777.5,-232 2790.27,-230.58 2804.06,-228.33 2816.55,-226.03"/>
<polygon fill="midnightblue" stroke="midnightblue" points="1660.8,-279.33 1650.79,-282.81 1660.79,-286.33 1660.8,-279.33"/>
</g>
<!-- Node31 -->
<g id="node31" class="node">
<title>Node31</title>
<g id="a_node31"><a xlink:href="m__Do__machine__exception_8cpp.html" target="_top" xlink:title=" ">
<polygon fill="white" stroke="black" points="2947,-201.5 2947,-231.5 3076,-231.5 3076,-201.5 2947,-201.5"/>
<text text-anchor="start" x="2955" y="-219.5" font-family="Helvetica,sans-Serif" font-size="10.00">src/m_Do/m_Do_machine</text>
<text text-anchor="middle" x="3011.5" y="-208.5" font-family="Helvetica,sans-Serif" font-size="10.00">_exception.cpp</text>
</a>
</g>
</g>
<!-- Node7&#45;&gt;Node31 -->
<g id="edge31" class="edge">
<title>Node7&#45;&gt;Node31</title>
<path fill="none" stroke="midnightblue" d="M1660.68,-281.39C1893.82,-277.23 2685.76,-261.22 2937.5,-232 2940.49,-231.65 2943.54,-231.25 2946.62,-230.81"/>
<polygon fill="midnightblue" stroke="midnightblue" points="1660.59,-277.9 1650.66,-281.57 1660.72,-284.89 1660.59,-277.9"/>
</g>
<!-- Node32 -->
<g id="node32" class="node">
<title>Node32</title>
<g id="a_node32"><a xlink:href="m__Do__main_8cpp.html" target="_top" xlink:title=" ">
<polygon fill="white" stroke="black" points="3094,-207 3094,-226 3225,-226 3225,-207 3094,-207"/>
<text text-anchor="middle" x="3159.5" y="-214" font-family="Helvetica,sans-Serif" font-size="10.00">src/m_Do/m_Do_main.cpp</text>
</a>
</g>
</g>
<!-- Node7&#45;&gt;Node32 -->
<g id="edge32" class="edge">
<title>Node7&#45;&gt;Node32</title>
<path fill="none" stroke="midnightblue" d="M1661.03,-281.67C1910.84,-278.3 2803.46,-264.2 3085.5,-232 3097.47,-230.63 3110.39,-228.38 3122.04,-226.05"/>
<polygon fill="midnightblue" stroke="midnightblue" points="1660.62,-278.18 1650.67,-281.81 1660.72,-285.18 1660.62,-278.18"/>
</g>
<!-- Node33 -->
<g id="node33" class="node">
<title>Node33</title>
<g id="a_node33"><a xlink:href="d__item_8h.html" target="_top" xlink:title=" ">
<polygon fill="white" stroke="black" points="463,-140 463,-159 558,-159 558,-140 463,-140"/>
<text text-anchor="middle" x="510.5" y="-147" font-family="Helvetica,sans-Serif" font-size="10.00">include/d/d_item.h</text>
</a>
</g>
</g>
<!-- Node7&#45;&gt;Node33 -->
<g id="edge33" class="edge">
<title>Node7&#45;&gt;Node33</title>
<path fill="none" stroke="midnightblue" d="M1530.02,-281.61C1352.34,-278.74 864.05,-267.75 707.5,-232 636.78,-215.85 558.87,-176.65 526.24,-159.17"/>
<polygon fill="midnightblue" stroke="midnightblue" points="1530.21,-285.11 1540.26,-281.77 1530.32,-278.11 1530.21,-285.11"/>
</g>
<!-- Node35 -->
<g id="node35" class="node">
<title>Node35</title>
<g id="a_node35"><a xlink:href="d__kantera__icon__meter_8h.html" target="_top" xlink:title=" ">
<polygon fill="white" stroke="black" points="1447,-201.5 1447,-231.5 1548,-231.5 1548,-201.5 1447,-201.5"/>
<text text-anchor="start" x="1455" y="-219.5" font-family="Helvetica,sans-Serif" font-size="10.00">include/d/d_kantera</text>
<text text-anchor="middle" x="1497.5" y="-208.5" font-family="Helvetica,sans-Serif" font-size="10.00">_icon_meter.h</text>
</a>
</g>
</g>
<!-- Node7&#45;&gt;Node35 -->
<g id="edge36" class="edge">
<title>Node7&#45;&gt;Node35</title>
<path fill="none" stroke="midnightblue" d="M1565.7,-262.73C1550.53,-252.68 1532.46,-240.68 1518.72,-231.58"/>
<polygon fill="midnightblue" stroke="midnightblue" points="1563.97,-265.79 1574.24,-268.4 1567.84,-259.95 1563.97,-265.79"/>
</g>
<!-- Node37 -->
<g id="node37" class="node">
<title>Node37</title>
<g id="a_node37"><a xlink:href="d__meter2_8h.html" target="_top" xlink:title=" ">
<polygon fill="white" stroke="black" points="716.5,-207 716.5,-226 850.5,-226 850.5,-207 716.5,-207"/>
<text text-anchor="middle" x="783.5" y="-214" font-family="Helvetica,sans-Serif" font-size="10.00">include/d/meter/d_meter2.h</text>
</a>
</g>
</g>
<!-- Node7&#45;&gt;Node37 -->
<g id="edge39" class="edge">
<title>Node7&#45;&gt;Node37</title>
<path fill="none" stroke="midnightblue" d="M1530.25,-280.36C1402.19,-275.64 1109.11,-262.25 864.5,-232 852.02,-230.46 838.55,-228.26 826.25,-226.04"/>
<polygon fill="midnightblue" stroke="midnightblue" points="1530.16,-283.86 1540.28,-280.73 1530.42,-276.86 1530.16,-283.86"/>
</g>
<!-- Node42 -->
<g id="node42" class="node">
<title>Node42</title>
<g id="a_node42"><a xlink:href="d__msg__object_8h.html" target="_top" xlink:title=" ">
<polygon fill="white" stroke="black" points="1166.5,-201.5 1166.5,-231.5 1276.5,-231.5 1276.5,-201.5 1166.5,-201.5"/>
<text text-anchor="start" x="1174.5" y="-219.5" font-family="Helvetica,sans-Serif" font-size="10.00">include/d/msg/d_msg</text>
<text text-anchor="middle" x="1221.5" y="-208.5" font-family="Helvetica,sans-Serif" font-size="10.00">_object.h</text>
</a>
</g>
</g>
<!-- Node7&#45;&gt;Node42 -->
<g id="edge53" class="edge">
<title>Node7&#45;&gt;Node42</title>
<path fill="none" stroke="midnightblue" d="M1530.27,-272.53C1468.41,-262.88 1372.95,-247.48 1290.5,-232 1286.05,-231.16 1281.44,-230.27 1276.82,-229.34"/>
<polygon fill="midnightblue" stroke="midnightblue" points="1529.86,-276.01 1540.28,-274.09 1530.93,-269.09 1529.86,-276.01"/>
</g>
<!-- Node33&#45;&gt;Node13 -->
<g id="edge34" class="edge">
<title>Node33&#45;&gt;Node13</title>
<path fill="none" stroke="midnightblue" d="M510.5,-129.41C510.5,-119.22 510.5,-106.9 510.5,-97.59"/>
<polygon fill="midnightblue" stroke="midnightblue" points="507,-129.73 510.5,-139.73 514,-129.73 507,-129.73"/>
</g>
<!-- Node34 -->
<g id="node34" class="node">
<title>Node34</title>
<g id="a_node34"><a xlink:href="d__item_8cpp.html" target="_top" xlink:title=" ">
<polygon fill="white" stroke="black" points="602,-73 602,-92 691,-92 691,-73 602,-73"/>
<text text-anchor="middle" x="646.5" y="-80" font-family="Helvetica,sans-Serif" font-size="10.00">src/d/d_item.cpp</text>
</a>
</g>
</g>
<!-- Node33&#45;&gt;Node34 -->
<g id="edge35" class="edge">
<title>Node33&#45;&gt;Node34</title>
<path fill="none" stroke="midnightblue" d="M537.82,-135.44C564.76,-122.57 605.16,-103.26 628.37,-92.17"/>
<polygon fill="midnightblue" stroke="midnightblue" points="536.07,-132.4 528.56,-139.87 539.09,-138.71 536.07,-132.4"/>
</g>
<!-- Node35&#45;&gt;Node26 -->
<g id="edge38" class="edge">
<title>Node35&#45;&gt;Node26</title>
<path fill="none" stroke="midnightblue" d="M1485.36,-192.28C1480.51,-183.02 1475.09,-172.66 1470.86,-164.58"/>
<polygon fill="midnightblue" stroke="midnightblue" points="1482.39,-194.16 1490.12,-201.4 1488.59,-190.91 1482.39,-194.16"/>
</g>
<!-- Node36 -->
<g id="node36" class="node">
<title>Node36</title>
<g id="a_node36"><a xlink:href="d__kantera__icon__meter_8cpp.html" target="_top" xlink:title=" ">
<polygon fill="white" stroke="black" points="1537,-134.5 1537,-164.5 1644,-164.5 1644,-134.5 1537,-134.5"/>
<text text-anchor="start" x="1545" y="-152.5" font-family="Helvetica,sans-Serif" font-size="10.00">src/d/d_kantera_icon</text>
<text text-anchor="middle" x="1590.5" y="-141.5" font-family="Helvetica,sans-Serif" font-size="10.00">_meter.cpp</text>
</a>
</g>
</g>
<!-- Node35&#45;&gt;Node36 -->
<g id="edge37" class="edge">
<title>Node35&#45;&gt;Node36</title>
<path fill="none" stroke="midnightblue" d="M1526.19,-195.45C1540.49,-185.45 1557.45,-173.6 1570.36,-164.58"/>
<polygon fill="midnightblue" stroke="midnightblue" points="1523.87,-192.8 1517.68,-201.4 1527.88,-198.54 1523.87,-192.8"/>
</g>
<!-- Node38 -->
<g id="node38" class="node">
<title>Node38</title>
<g id="a_node38"><a xlink:href="d__meter2_8cpp.html" target="_top" xlink:title=" ">
<polygon fill="white" stroke="black" points="576.5,-140 576.5,-159 704.5,-159 704.5,-140 576.5,-140"/>
<text text-anchor="middle" x="640.5" y="-147" font-family="Helvetica,sans-Serif" font-size="10.00">src/d/meter/d_meter2.cpp</text>
</a>
</g>
</g>
<!-- Node37&#45;&gt;Node38 -->
<g id="edge40" class="edge">
<title>Node37&#45;&gt;Node38</title>
<path fill="none" stroke="midnightblue" d="M755.15,-202.61C726.83,-189.74 684.07,-170.31 659.57,-159.17"/>
<polygon fill="midnightblue" stroke="midnightblue" points="753.96,-205.92 764.51,-206.87 756.86,-199.54 753.96,-205.92"/>
</g>
<!-- Node39 -->
<g id="node39" class="node">
<title>Node39</title>
<g id="a_node39"><a xlink:href="d__meter2__info_8h.html" target="_top" xlink:title=" ">
<polygon fill="white" stroke="black" points="723,-134.5 723,-164.5 850,-164.5 850,-134.5 723,-134.5"/>
<text text-anchor="start" x="731" y="-152.5" font-family="Helvetica,sans-Serif" font-size="10.00">include/d/meter/d_meter2</text>
<text text-anchor="middle" x="786.5" y="-141.5" font-family="Helvetica,sans-Serif" font-size="10.00">_info.h</text>
</a>
</g>
</g>
<!-- Node37&#45;&gt;Node39 -->
<g id="edge41" class="edge">
<title>Node37&#45;&gt;Node39</title>
<path fill="none" stroke="midnightblue" d="M784.37,-196.74C784.84,-186.49 785.42,-174 785.85,-164.59"/>
<polygon fill="midnightblue" stroke="midnightblue" points="780.87,-196.58 783.9,-206.73 787.86,-196.91 780.87,-196.58"/>
</g>
<!-- Node39&#45;&gt;Node13 -->
<g id="edge42" class="edge">
<title>Node39&#45;&gt;Node13</title>
<path fill="none" stroke="midnightblue" d="M717.11,-132.16C669.93,-121.05 608.4,-106.56 564.79,-96.29"/>
<polygon fill="midnightblue" stroke="midnightblue" points="716.42,-135.59 726.95,-134.48 718.02,-128.78 716.42,-135.59"/>
</g>
<!-- Node39&#45;&gt;Node25 -->
<g id="edge44" class="edge">
<title>Node39&#45;&gt;Node25</title>
<path fill="none" stroke="midnightblue" d="M824.37,-129.99C845.45,-119.69 871.28,-107.07 890.7,-97.58"/>
<polygon fill="midnightblue" stroke="midnightblue" points="822.81,-126.86 815.36,-134.4 825.88,-133.15 822.81,-126.86"/>
</g>
<!-- Node39&#45;&gt;Node29 -->
<g id="edge45" class="edge">
<title>Node39&#45;&gt;Node29</title>
<path fill="none" stroke="midnightblue" d="M860.34,-138.29C953.96,-125.34 1113.4,-103.29 1198.67,-91.5"/>
<polygon fill="midnightblue" stroke="midnightblue" points="859.8,-134.83 850.38,-139.67 860.76,-141.76 859.8,-134.83"/>
</g>
<!-- Node39&#45;&gt;Node34 -->
<g id="edge43" class="edge">
<title>Node39&#45;&gt;Node34</title>
<path fill="none" stroke="midnightblue" d="M746.94,-130.13C719.99,-117.62 685.57,-101.64 664.82,-92.01"/>
<polygon fill="midnightblue" stroke="midnightblue" points="745.58,-133.36 756.12,-134.4 748.53,-127.01 745.58,-133.36"/>
</g>
<!-- Node40 -->
<g id="node40" class="node">
<title>Node40</title>
<g id="a_node40"><a xlink:href="d__a__alink_8h.html" target="_top" xlink:title=" ">
<polygon fill="white" stroke="black" points="1566.5,-73 1566.5,-92 1682.5,-92 1682.5,-73 1566.5,-73"/>
<text text-anchor="middle" x="1624.5" y="-80" font-family="Helvetica,sans-Serif" font-size="10.00">include/d/a/d_a_alink.h</text>
</a>
</g>
</g>
<!-- Node39&#45;&gt;Node40 -->
<g id="edge46" class="edge">
<title>Node39&#45;&gt;Node40</title>
<path fill="none" stroke="midnightblue" d="M860.4,-138.21C872.77,-136.67 885.49,-135.2 897.5,-134 1145.82,-109.18 1443.08,-92.63 1566.44,-86.34"/>
<polygon fill="midnightblue" stroke="midnightblue" points="859.59,-134.79 850.11,-139.52 860.47,-141.73 859.59,-134.79"/>
</g>
<!-- Node41 -->
<g id="node41" class="node">
<title>Node41</title>
<g id="a_node41"><a xlink:href="d__menu__window_8h.html" target="_top" xlink:title=" ">
<polygon fill="white" stroke="black" points="726.5,-67.5 726.5,-97.5 846.5,-97.5 846.5,-67.5 726.5,-67.5"/>
<text text-anchor="start" x="734.5" y="-85.5" font-family="Helvetica,sans-Serif" font-size="10.00">include/d/menu/d_menu</text>
<text text-anchor="middle" x="786.5" y="-74.5" font-family="Helvetica,sans-Serif" font-size="10.00">_window.h</text>
</a>
</g>
</g>
<!-- Node39&#45;&gt;Node41 -->
<g id="edge49" class="edge">
<title>Node39&#45;&gt;Node41</title>
<path fill="none" stroke="midnightblue" d="M779.95,-124.4C779.51,-115.37 779.8,-105.41 780.83,-97.58"/>
<polygon fill="midnightblue" stroke="midnightblue" points="776.47,-124.74 780.82,-134.4 783.44,-124.13 776.47,-124.74"/>
</g>
<!-- Node40&#45;&gt;Node7 -->
<g id="edge48" class="edge">
<title>Node40&#45;&gt;Node7</title>
<path fill="none" stroke="midnightblue" d="M1638.74,-100.77C1650.85,-117.69 1664.65,-143.95 1653.5,-165 1640.17,-190.16 1614.59,-176.26 1600.5,-201 1588.5,-222.06 1590.3,-251.35 1592.82,-268.48"/>
<polygon fill="midnightblue" stroke="midnightblue" points="1641.2,-98.23 1632.35,-92.41 1635.64,-102.48 1641.2,-98.23"/>
</g>
<!-- Node40&#45;&gt;Node14 -->
<g id="edge47" class="edge">
<title>Node40&#45;&gt;Node14</title>
<path fill="none" stroke="midnightblue" d="M1636.05,-64.03C1644.38,-51.45 1655.26,-35.01 1661.79,-25.13"/>
<polygon fill="midnightblue" stroke="midnightblue" points="1632.9,-62.46 1630.3,-72.73 1638.74,-66.32 1632.9,-62.46"/>
</g>
<!-- Node41&#45;&gt;Node23 -->
<g id="edge50" class="edge">
<title>Node41&#45;&gt;Node23</title>
<path fill="none" stroke="midnightblue" d="M786.5,-57.25C786.5,-46.02 786.5,-33.38 786.5,-25.19"/>
<polygon fill="midnightblue" stroke="midnightblue" points="783,-57.4 786.5,-67.4 790,-57.4 783,-57.4"/>
</g>
<!-- Node41&#45;&gt;Node27 -->
<g id="edge51" class="edge">
<title>Node41&#45;&gt;Node27</title>
<path fill="none" stroke="midnightblue" d="M856.9,-66.88C1020.63,-41.72 1202.85,-26.59 1290.38,-20.12"/>
<polygon fill="midnightblue" stroke="midnightblue" points="855.99,-63.48 846.64,-68.48 857.06,-70.4 855.99,-63.48"/>
</g>
<!-- Node41&#45;&gt;Node39 -->
<g id="edge52" class="edge">
<title>Node41&#45;&gt;Node39</title>
<path fill="none" stroke="midnightblue" d="M793.04,-107.57C793.49,-116.6 793.21,-126.56 792.18,-134.4"/>
<polygon fill="midnightblue" stroke="midnightblue" points="796.53,-107.24 792.17,-97.58 789.55,-107.84 796.53,-107.24"/>
</g>
<!-- Node42&#45;&gt;Node21 -->
<g id="edge54" class="edge">
<title>Node42&#45;&gt;Node21</title>
<path fill="none" stroke="midnightblue" d="M1158.2,-198.91C1109.63,-186.18 1044.57,-169.13 1006.04,-159.03"/>
<polygon fill="midnightblue" stroke="midnightblue" points="1157.43,-202.33 1167.99,-201.48 1159.21,-195.55 1157.43,-202.33"/>
</g>
<!-- Node42&#45;&gt;Node23 -->
<g id="edge55" class="edge">
<title>Node42&#45;&gt;Node23</title>
<path fill="none" stroke="midnightblue" d="M1239.04,-192.94C1250.41,-175.38 1260.85,-151.18 1247.5,-134 1221.69,-100.78 944.94,-46.01 833.05,-25.03"/>
<polygon fill="midnightblue" stroke="midnightblue" points="1235.96,-191.24 1233.12,-201.45 1241.7,-195.23 1235.96,-191.24"/>
</g>
<!-- Node42&#45;&gt;Node25 -->
<g id="edge56" class="edge">
<title>Node42&#45;&gt;Node25</title>
<path fill="none" stroke="midnightblue" d="M1163.2,-198.14C1138.98,-189.77 1111.08,-178.57 1087.5,-165 1068.61,-154.13 1068.33,-144.97 1049.5,-134 1023.24,-118.71 991.49,-106.27 965.93,-97.57"/>
<polygon fill="midnightblue" stroke="midnightblue" points="1162.39,-201.56 1172.99,-201.44 1164.63,-194.93 1162.39,-201.56"/>
</g>
<!-- Node42&#45;&gt;Node26 -->
<g id="edge57" class="edge">
<title>Node42&#45;&gt;Node26</title>
<path fill="none" stroke="midnightblue" d="M1283.49,-198.85C1322.95,-188.25 1373.49,-174.68 1410.96,-164.61"/>
<polygon fill="midnightblue" stroke="midnightblue" points="1282.46,-195.5 1273.71,-201.48 1284.28,-202.26 1282.46,-195.5"/>
</g>
<!-- Node42&#45;&gt;Node27 -->
<g id="edge58" class="edge">
<title>Node42&#45;&gt;Node27</title>
<path fill="none" stroke="midnightblue" d="M1248.94,-194.84C1259.44,-186.23 1271.13,-175.75 1280.5,-165 1303.74,-138.32 1309.73,-130.59 1323.5,-98 1333.06,-75.38 1338.28,-47.11 1340.72,-30.5"/>
<polygon fill="midnightblue" stroke="midnightblue" points="1246.47,-192.33 1240.84,-201.31 1250.84,-197.8 1246.47,-192.33"/>
</g>
<!-- Node43 -->
<g id="node43" class="node">
<title>Node43</title>
<g id="a_node43"><a xlink:href="d__msg__object_8cpp.html" target="_top" xlink:title=" ">
<polygon fill="white" stroke="black" points="1096.5,-140 1096.5,-159 1238.5,-159 1238.5,-140 1096.5,-140"/>
<text text-anchor="middle" x="1167.5" y="-147" font-family="Helvetica,sans-Serif" font-size="10.00">src/d/msg/d_msg_object.cpp</text>
</a>
</g>
</g>
<!-- Node42&#45;&gt;Node43 -->
<g id="edge59" class="edge">
<title>Node42&#45;&gt;Node43</title>
<path fill="none" stroke="midnightblue" d="M1203.35,-193.66C1193.56,-181.86 1182.01,-167.97 1174.72,-159.19"/>
<polygon fill="midnightblue" stroke="midnightblue" points="1200.7,-195.94 1209.78,-201.4 1206.08,-191.47 1200.7,-195.94"/>
</g>
</g>
</svg>
        <g id="navigator" transform="translate(0 0)" fill="#404254">
                <rect fill="#f2f5e9" fill-opacity="0.5" stroke="#606060" stroke-width=".5" x="0" y="0" width="60" height="60"/>
                <use id="zoomplus" xlink:href="#zoomPlus" x="17" y="9" onmousedown="handleZoom(evt,'in')"/>
                <use id="zoomminus" xlink:href="#zoomMin" x="42" y="9" onmousedown="handleZoom(evt,'out')"/>
                <use id="reset" xlink:href="#resetDef" x="30" y="36" onmousedown="handleReset()"/>
                <g id="arrowUp" xlink:href="#dirArrow" transform="translate(30 24)" onmousedown="handlePan(0,-1)">
                  <use xlink:href="#rim" fill="#404040">
                        <set attributeName="fill" to="#808080" begin="arrowUp.mouseover" end="arrowUp.mouseout"/>
                  </use>
                  <path fill="none" stroke="white" stroke-width="1.5" d="M0,-3.0v7 M-2.5,-0.5L0,-3.0L2.5,-0.5"/>
                </g>
                <g id="arrowRight" xlink:href="#dirArrow" transform="rotate(90) translate(36 -43)" onmousedown="handlePan(1,0)">
                  <use xlink:href="#rim" fill="#404040">
                        <set attributeName="fill" to="#808080" begin="arrowRight.mouseover" end="arrowRight.mouseout"/>
                  </use>
                  <path fill="none" stroke="white" stroke-width="1.5" d="M0,-3.0v7 M-2.5,-0.5L0,-3.0L2.5,-0.5"/>
                </g>
                <g id="arrowDown" xlink:href="#dirArrow" transform="rotate(180) translate(-30 -48)" onmousedown="handlePan(0,1)">
                  <use xlink:href="#rim" fill="#404040">
                        <set attributeName="fill" to="#808080" begin="arrowDown.mouseover" end="arrowDown.mouseout"/>
                  </use>
                  <path fill="none" stroke="white" stroke-width="1.5" d="M0,-3.0v7 M-2.5,-0.5L0,-3.0L2.5,-0.5"/>
                </g>
                <g id="arrowLeft" xlink:href="#dirArrow" transform="rotate(270) translate(-36 17)" onmousedown="handlePan(-1,0)">
                  <use xlink:href="#rim" fill="#404040">
                        <set attributeName="fill" to="#808080" begin="arrowLeft.mouseover" end="arrowLeft.mouseout"/>
                  </use>
                  <path fill="none" stroke="white" stroke-width="1.5" d="M0,-3.0v7 M-2.5,-0.5L0,-3.0L2.5,-0.5"/>
                </g>
        </g>
        <svg viewBox="0 0 15 15" width="100%" height="30px" preserveAspectRatio="xMaxYMin meet">
         <g id="arrow_out" transform="scale(0.3 0.3)">
          <a xlink:href="d__a__itembase_8h__dep__incl_org.svg" target="_base">
           <rect id="button" ry="5" rx="5" y="6" x="6" height="38" width="38"
                fill="#f2f5e9" fill-opacity="0.5" stroke="#606060" stroke-width="1.0"/>
           <path id="arrow"
             d="M 11.500037,31.436501 C 11.940474,20.09759 22.043105,11.32322 32.158766,21.979434 L 37.068811,17.246167 C 37.068811,17.246167 37.088388,32 37.088388,32 L 22.160133,31.978069 C 22.160133,31.978069 26.997745,27.140456 26.997745,27.140456 C 18.528582,18.264221 13.291696,25.230495 11.500037,31.436501 z"
             style="fill:#404040;"/>
          </a>
         </g>
        </svg>
</svg>
