<?xml version="1.0" encoding="UTF-8" standalone="no"?>
<!DOCTYPE svg PUBLIC "-//W3C//DTD SVG 1.1//EN"
 "http://www.w3.org/Graphics/SVG/1.1/DTD/svg11.dtd">
<!-- Generated by graphviz version 2.50.0 (20220203.2022)
 -->
<!-- Title: include/d/bg/d_bg_s_roof_chk.h Pages: 1 -->
<svg width="3303pt" height="575pt"
 viewBox="0.00 0.00 3303.00 575.00" xmlns="http://www.w3.org/2000/svg" xmlns:xlink="http://www.w3.org/1999/xlink">
<g id="graph0" class="graph" transform="scale(1 1) rotate(0) translate(4 571)">
<title>include/d/bg/d_bg_s_roof_chk.h</title>
<polygon fill="white" stroke="transparent" points="-4,4 -4,-571 3299,-571 3299,4 -4,4"/>
<!-- Node1 -->
<g id="node1" class="node">
<title>Node1</title>
<g id="a_node1"><a xlink:title=" ">
<polygon fill="#bfbfbf" stroke="black" points="2519.5,-536.5 2519.5,-566.5 2623.5,-566.5 2623.5,-536.5 2519.5,-536.5"/>
<text text-anchor="start" x="2527.5" y="-554.5" font-family="Helvetica,sans-Serif" font-size="10.00">include/d/bg/d_bg_s</text>
<text text-anchor="middle" x="2571.5" y="-543.5" font-family="Helvetica,sans-Serif" font-size="10.00">_roof_chk.h</text>
</a>
</g>
</g>
<!-- Node2 -->
<g id="node2" class="node">
<title>Node2</title>
<g id="a_node2"><a xlink:href="d__bg__s__acch_8h.html" target="_top" xlink:title=" ">
<polygon fill="white" stroke="black" points="2457.5,-469.5 2457.5,-499.5 2561.5,-499.5 2561.5,-469.5 2457.5,-469.5"/>
<text text-anchor="start" x="2465.5" y="-487.5" font-family="Helvetica,sans-Serif" font-size="10.00">include/d/bg/d_bg_s</text>
<text text-anchor="middle" x="2509.5" y="-476.5" font-family="Helvetica,sans-Serif" font-size="10.00">_acch.h</text>
</a>
</g>
</g>
<!-- Node1&#45;&gt;Node2 -->
<g id="edge1" class="edge">
<title>Node1&#45;&gt;Node2</title>
<path fill="none" stroke="midnightblue" d="M2551.02,-529.02C2541.78,-519.34 2531.13,-508.17 2522.93,-499.58"/>
<polygon fill="midnightblue" stroke="midnightblue" points="2548.61,-531.58 2558.05,-536.4 2553.68,-526.74 2548.61,-531.58"/>
</g>
<!-- Node66 -->
<g id="node50" class="node">
<title>Node66</title>
<g id="a_node50"><a xlink:href="d__bg__s__roof__chk_8cpp.html" target="_top" xlink:title=" ">
<polygon fill="white" stroke="black" points="2579.5,-469.5 2579.5,-499.5 2687.5,-499.5 2687.5,-469.5 2579.5,-469.5"/>
<text text-anchor="start" x="2587.5" y="-487.5" font-family="Helvetica,sans-Serif" font-size="10.00">src/d/bg/d_bg_s_roof</text>
<text text-anchor="middle" x="2633.5" y="-476.5" font-family="Helvetica,sans-Serif" font-size="10.00">_chk.cpp</text>
</a>
</g>
</g>
<!-- Node1&#45;&gt;Node66 -->
<g id="edge70" class="edge">
<title>Node1&#45;&gt;Node66</title>
<path fill="none" stroke="midnightblue" d="M2591.98,-529.02C2601.22,-519.34 2611.87,-508.17 2620.07,-499.58"/>
<polygon fill="midnightblue" stroke="midnightblue" points="2589.32,-526.74 2584.95,-536.4 2594.39,-531.58 2589.32,-526.74"/>
</g>
<!-- Node3 -->
<g id="node3" class="node">
<title>Node3</title>
<g id="a_node3"><a xlink:href="d__bg__w_8h.html" target="_top" xlink:title=" ">
<polygon fill="white" stroke="black" points="1985,-341 1985,-360 2098,-360 2098,-341 1985,-341"/>
<text text-anchor="middle" x="2041.5" y="-348" font-family="Helvetica,sans-Serif" font-size="10.00">include/d/bg/d_bg_w.h</text>
</a>
</g>
</g>
<!-- Node2&#45;&gt;Node3 -->
<g id="edge2" class="edge">
<title>Node2&#45;&gt;Node3</title>
<path fill="none" stroke="midnightblue" d="M2447.16,-478.23C2385.62,-471.82 2289.4,-458.53 2209.5,-433 2149.59,-413.86 2084,-376.93 2055.75,-360.16"/>
<polygon fill="midnightblue" stroke="midnightblue" points="2447.18,-481.75 2457.49,-479.27 2447.89,-474.78 2447.18,-481.75"/>
</g>
<!-- Node54 -->
<g id="node38" class="node">
<title>Node54</title>
<g id="a_node38"><a xlink:href="d__bg__s__acch_8cpp.html" target="_top" xlink:title=" ">
<polygon fill="white" stroke="black" points="2286,-218 2286,-237 2417,-237 2417,-218 2286,-218"/>
<text text-anchor="middle" x="2351.5" y="-225" font-family="Helvetica,sans-Serif" font-size="10.00">src/d/bg/d_bg_s_acch.cpp</text>
</a>
</g>
</g>
<!-- Node2&#45;&gt;Node54 -->
<g id="edge69" class="edge">
<title>Node2&#45;&gt;Node54</title>
<path fill="none" stroke="midnightblue" d="M2491.68,-461.22C2473.81,-438.24 2446.19,-400.92 2426.5,-366 2405.78,-329.25 2409.54,-315.57 2388.5,-279 2379.5,-263.36 2366.62,-246.77 2358.67,-237.04"/>
<polygon fill="midnightblue" stroke="midnightblue" points="2489.09,-463.59 2498.02,-469.29 2494.6,-459.27 2489.09,-463.59"/>
</g>
<!-- Node56 -->
<g id="node40" class="node">
<title>Node56</title>
<g id="a_node40"><a xlink:href="d__bg__w__base_8h.html" target="_top" xlink:title=" ">
<polygon fill="white" stroke="black" points="2218.5,-402.5 2218.5,-432.5 2324.5,-432.5 2324.5,-402.5 2218.5,-402.5"/>
<text text-anchor="start" x="2226.5" y="-420.5" font-family="Helvetica,sans-Serif" font-size="10.00">include/d/bg/d_bg_w</text>
<text text-anchor="middle" x="2271.5" y="-409.5" font-family="Helvetica,sans-Serif" font-size="10.00">_base.h</text>
</a>
</g>
</g>
<!-- Node2&#45;&gt;Node56 -->
<g id="edge52" class="edge">
<title>Node2&#45;&gt;Node56</title>
<path fill="none" stroke="midnightblue" d="M2448.04,-466.71C2409.31,-456.14 2359.87,-442.63 2323.17,-432.61"/>
<polygon fill="midnightblue" stroke="midnightblue" points="2447.58,-470.22 2458.15,-469.48 2449.43,-463.46 2447.58,-470.22"/>
</g>
<!-- Node60 -->
<g id="node44" class="node">
<title>Node60</title>
<g id="a_node44"><a xlink:href="d__bomb_8h.html" target="_top" xlink:title=" ">
<polygon fill="white" stroke="black" points="3060,-408 3060,-427 3161,-427 3161,-408 3060,-408"/>
<text text-anchor="middle" x="3110.5" y="-415" font-family="Helvetica,sans-Serif" font-size="10.00">include/d/d_bomb.h</text>
</a>
</g>
</g>
<!-- Node2&#45;&gt;Node60 -->
<g id="edge57" class="edge">
<title>Node2&#45;&gt;Node60</title>
<path fill="none" stroke="midnightblue" d="M2571.56,-468.98C2756.63,-439.09 2965.69,-425.77 3059.95,-420.86"/>
<polygon fill="midnightblue" stroke="midnightblue" points="2570.95,-465.53 2561.65,-470.6 2572.08,-472.44 2570.95,-465.53"/>
</g>
<!-- Node62 -->
<g id="node46" class="node">
<title>Node62</title>
<g id="a_node46"><a xlink:href="d__particle__copoly_8h.html" target="_top" xlink:title=" ">
<polygon fill="white" stroke="black" points="2574.5,-402.5 2574.5,-432.5 2676.5,-432.5 2676.5,-402.5 2574.5,-402.5"/>
<text text-anchor="start" x="2582.5" y="-420.5" font-family="Helvetica,sans-Serif" font-size="10.00">include/d/particle</text>
<text text-anchor="middle" x="2625.5" y="-409.5" font-family="Helvetica,sans-Serif" font-size="10.00">/d_particle_copoly.h</text>
</a>
</g>
</g>
<!-- Node2&#45;&gt;Node62 -->
<g id="edge60" class="edge">
<title>Node2&#45;&gt;Node62</title>
<path fill="none" stroke="midnightblue" d="M2543.77,-464.3C2561.92,-454.12 2583.82,-441.85 2600.38,-432.58"/>
<polygon fill="midnightblue" stroke="midnightblue" points="2541.68,-461.45 2534.67,-469.4 2545.1,-467.56 2541.68,-461.45"/>
</g>
<!-- Node63 -->
<g id="node47" class="node">
<title>Node63</title>
<g id="a_node47"><a xlink:href="d__a__boomerang_8h.html" target="_top" xlink:title=" ">
<polygon fill="white" stroke="black" points="2435,-335.5 2435,-365.5 2584,-365.5 2584,-335.5 2435,-335.5"/>
<text text-anchor="start" x="2443" y="-353.5" font-family="Helvetica,sans-Serif" font-size="10.00">include/rel/d/a/d_a</text>
<text text-anchor="middle" x="2509.5" y="-342.5" font-family="Helvetica,sans-Serif" font-size="10.00">_boomerang/d_a_boomerang.h</text>
</a>
</g>
</g>
<!-- Node2&#45;&gt;Node63 -->
<g id="edge65" class="edge">
<title>Node2&#45;&gt;Node63</title>
<path fill="none" stroke="midnightblue" d="M2509.5,-459.02C2509.5,-431.51 2509.5,-387.79 2509.5,-365.52"/>
<polygon fill="midnightblue" stroke="midnightblue" points="2506,-459.37 2509.5,-469.37 2513,-459.37 2506,-459.37"/>
</g>
<!-- Node65 -->
<g id="node49" class="node">
<title>Node65</title>
<g id="a_node49"><a xlink:href="d__a__obj__carry_8h.html" target="_top" xlink:title=" ">
<polygon fill="white" stroke="black" points="3052.5,-134.5 3052.5,-175.5 3168.5,-175.5 3168.5,-134.5 3052.5,-134.5"/>
<text text-anchor="start" x="3060.5" y="-163.5" font-family="Helvetica,sans-Serif" font-size="10.00">include/rel/d/a/obj</text>
<text text-anchor="start" x="3060.5" y="-152.5" font-family="Helvetica,sans-Serif" font-size="10.00">/d_a_obj_carry/d_a_obj</text>
<text text-anchor="middle" x="3110.5" y="-141.5" font-family="Helvetica,sans-Serif" font-size="10.00">_carry.h</text>
</a>
</g>
</g>
<!-- Node2&#45;&gt;Node65 -->
<g id="edge66" class="edge">
<title>Node2&#45;&gt;Node65</title>
<path fill="none" stroke="midnightblue" d="M2571.82,-468.16C2613.94,-457.31 2665.4,-442.98 2685.5,-433 2739.68,-406.11 2794.5,-411.99 2794.5,-351.5 2794.5,-351.5 2794.5,-351.5 2794.5,-288 2794.5,-232.78 2960.87,-188.2 3052.17,-167.89"/>
<polygon fill="midnightblue" stroke="midnightblue" points="2570.72,-464.83 2561.9,-470.7 2572.45,-471.61 2570.72,-464.83"/>
</g>
<!-- Node4 -->
<g id="node4" class="node">
<title>Node4</title>
<g id="a_node4"><a xlink:href="d__bg__s_8h.html" target="_top" xlink:title=" ">
<polygon fill="white" stroke="black" points="2056,-279.5 2056,-298.5 2167,-298.5 2167,-279.5 2056,-279.5"/>
<text text-anchor="middle" x="2111.5" y="-286.5" font-family="Helvetica,sans-Serif" font-size="10.00">include/d/bg/d_bg_s.h</text>
</a>
</g>
</g>
<!-- Node3&#45;&gt;Node4 -->
<g id="edge3" class="edge">
<title>Node3&#45;&gt;Node4</title>
<path fill="none" stroke="midnightblue" d="M2059.18,-334.47C2072.57,-323.09 2090.48,-307.87 2101.49,-298.51"/>
<polygon fill="midnightblue" stroke="midnightblue" points="2056.88,-331.83 2051.53,-340.98 2061.42,-337.17 2056.88,-331.83"/>
</g>
<!-- Node34 -->
<g id="node24" class="node">
<title>Node34</title>
<g id="a_node24"><a xlink:href="d__bg__w_8cpp.html" target="_top" xlink:title=" ">
<polygon fill="white" stroke="black" points="0,-73 0,-92 107,-92 107,-73 0,-73"/>
<text text-anchor="middle" x="53.5" y="-80" font-family="Helvetica,sans-Serif" font-size="10.00">src/d/bg/d_bg_w.cpp</text>
</a>
</g>
</g>
<!-- Node3&#45;&gt;Node34 -->
<g id="edge51" class="edge">
<title>Node3&#45;&gt;Node34</title>
<path fill="none" stroke="midnightblue" d="M1974.76,-348.13C1833.96,-344.64 1496.39,-333.15 1215.5,-299 768.43,-244.65 233.75,-125.07 90.36,-92.08"/>
<polygon fill="midnightblue" stroke="midnightblue" points="1974.87,-351.63 1984.95,-348.38 1975.04,-344.64 1974.87,-351.63"/>
</g>
<!-- Node55 -->
<g id="node39" class="node">
<title>Node55</title>
<g id="a_node39"><a xlink:href="d__bg__s__movebg__actor_8h.html" target="_top" xlink:title=" ">
<polygon fill="white" stroke="black" points="947.5,-140 947.5,-170 1051.5,-170 1051.5,-140 947.5,-140"/>
<text text-anchor="start" x="955.5" y="-158" font-family="Helvetica,sans-Serif" font-size="10.00">include/d/bg/d_bg_s</text>
<text text-anchor="middle" x="999.5" y="-147" font-family="Helvetica,sans-Serif" font-size="10.00">_movebg_actor.h</text>
</a>
</g>
</g>
<!-- Node3&#45;&gt;Node55 -->
<g id="edge49" class="edge">
<title>Node3&#45;&gt;Node55</title>
<path fill="none" stroke="midnightblue" d="M1974.85,-347.49C1785.74,-340.95 1249.3,-316.24 1091.5,-243 1055.61,-226.34 1024.71,-190.1 1009.52,-170.05"/>
<polygon fill="midnightblue" stroke="midnightblue" points="1974.82,-350.99 1984.93,-347.84 1975.06,-344 1974.82,-350.99"/>
</g>
<!-- Node5 -->
<g id="node5" class="node">
<title>Node5</title>
<g id="a_node5"><a xlink:href="d__a__alink_8h.html" target="_top" xlink:title=" ">
<polygon fill="white" stroke="black" points="2624.5,-218 2624.5,-237 2740.5,-237 2740.5,-218 2624.5,-218"/>
<text text-anchor="middle" x="2682.5" y="-225" font-family="Helvetica,sans-Serif" font-size="10.00">include/d/a/d_a_alink.h</text>
</a>
</g>
</g>
<!-- Node4&#45;&gt;Node5 -->
<g id="edge4" class="edge">
<title>Node4&#45;&gt;Node5</title>
<path fill="none" stroke="midnightblue" d="M2177.22,-281.15C2289.67,-269.43 2517.21,-245.72 2624.29,-234.57"/>
<polygon fill="midnightblue" stroke="midnightblue" points="2176.61,-277.7 2167.03,-282.21 2177.34,-284.66 2176.61,-277.7"/>
</g>
<!-- Node6 -->
<g id="node6" class="node">
<title>Node6</title>
<g id="a_node6"><a xlink:href="d__com__inf__game_8h.html" target="_top" xlink:title=" ">
<polygon fill="white" stroke="red" points="1917.5,-140 1917.5,-170 2027.5,-170 2027.5,-140 1917.5,-140"/>
<text text-anchor="start" x="1925.5" y="-158" font-family="Helvetica,sans-Serif" font-size="10.00">include/d/com/d_com</text>
<text text-anchor="middle" x="1972.5" y="-147" font-family="Helvetica,sans-Serif" font-size="10.00">_inf_game.h</text>
</a>
</g>
</g>
<!-- Node4&#45;&gt;Node6 -->
<g id="edge44" class="edge">
<title>Node4&#45;&gt;Node6</title>
<path fill="none" stroke="midnightblue" d="M2094.82,-272.16C2067.52,-246.24 2013.73,-195.16 1987.54,-170.28"/>
<polygon fill="midnightblue" stroke="midnightblue" points="2092.72,-274.99 2102.38,-279.34 2097.54,-269.91 2092.72,-274.99"/>
</g>
<!-- Node32 -->
<g id="node22" class="node">
<title>Node32</title>
<g id="a_node22"><a xlink:href="d__bg__s_8cpp.html" target="_top" xlink:title=" ">
<polygon fill="white" stroke="black" points="269.5,-73 269.5,-92 373.5,-92 373.5,-73 269.5,-73"/>
<text text-anchor="middle" x="321.5" y="-80" font-family="Helvetica,sans-Serif" font-size="10.00">src/d/bg/d_bg_s.cpp</text>
</a>
</g>
</g>
<!-- Node4&#45;&gt;Node32 -->
<g id="edge47" class="edge">
<title>Node4&#45;&gt;Node32</title>
<path fill="none" stroke="midnightblue" d="M2054.34,-277.72C1896.64,-249.78 1441.85,-171.98 1060.5,-134 760.23,-104.09 681.17,-141.07 382.5,-98 372.7,-96.59 362.15,-94.35 352.64,-92.04"/>
<polygon fill="midnightblue" stroke="midnightblue" points="2053.83,-281.19 2064.29,-279.49 2055.06,-274.29 2053.83,-281.19"/>
</g>
<!-- Node50 -->
<g id="node37" class="node">
<title>Node50</title>
<g id="a_node37"><a xlink:href="d__a__horse_8h.html" target="_top" xlink:title=" ">
<polygon fill="white" stroke="red" points="2118,-212.5 2118,-242.5 2219,-242.5 2219,-212.5 2118,-212.5"/>
<text text-anchor="start" x="2126" y="-230.5" font-family="Helvetica,sans-Serif" font-size="10.00">include/rel/d/a/d_a</text>
<text text-anchor="middle" x="2168.5" y="-219.5" font-family="Helvetica,sans-Serif" font-size="10.00">_horse/d_a_horse.h</text>
</a>
</g>
</g>
<!-- Node4&#45;&gt;Node50 -->
<g id="edge45" class="edge">
<title>Node4&#45;&gt;Node50</title>
<path fill="none" stroke="midnightblue" d="M2126.74,-272.09C2135.56,-262.88 2146.57,-251.39 2155.07,-242.52"/>
<polygon fill="midnightblue" stroke="midnightblue" points="2124.06,-269.83 2119.67,-279.48 2129.11,-274.68 2124.06,-269.83"/>
</g>
<!-- Node4&#45;&gt;Node54 -->
<g id="edge48" class="edge">
<title>Node4&#45;&gt;Node54</title>
<path fill="none" stroke="midnightblue" d="M2155.7,-277.04C2202.3,-265.49 2274.7,-247.54 2317.18,-237.01"/>
<polygon fill="midnightblue" stroke="midnightblue" points="2154.75,-273.67 2145.89,-279.48 2156.43,-280.47 2154.75,-273.67"/>
</g>
<!-- Node5&#45;&gt;Node6 -->
<g id="edge5" class="edge">
<title>Node5&#45;&gt;Node6</title>
<path fill="none" stroke="midnightblue" d="M2614.22,-219.72C2474.08,-205.81 2156.41,-174.26 2027.95,-161.51"/>
<polygon fill="midnightblue" stroke="midnightblue" points="2614.1,-223.23 2624.4,-220.73 2614.79,-216.26 2614.1,-223.23"/>
</g>
<!-- Node30 -->
<g id="node20" class="node">
<title>Node30</title>
<g id="a_node20"><a xlink:href="d__a__alink_8cpp.html" target="_top" xlink:title=" ">
<polygon fill="white" stroke="black" points="3186,-73 3186,-92 3295,-92 3295,-73 3186,-73"/>
<text text-anchor="middle" x="3240.5" y="-80" font-family="Helvetica,sans-Serif" font-size="10.00">src/d/a/d_a_alink.cpp</text>
</a>
</g>
</g>
<!-- Node5&#45;&gt;Node30 -->
<g id="edge43" class="edge">
<title>Node5&#45;&gt;Node30</title>
<path fill="none" stroke="midnightblue" d="M2725.58,-215.46C2832.98,-187.94 3110.83,-116.73 3207.09,-92.06"/>
<polygon fill="midnightblue" stroke="midnightblue" points="2724.55,-212.11 2715.73,-217.98 2726.29,-218.89 2724.55,-212.11"/>
</g>
<!-- Node7 -->
<g id="node7" class="node">
<title>Node7</title>
<g id="a_node7"><a xlink:href="d__cc__uty_8h.html" target="_top" xlink:title=" ">
<polygon fill="white" stroke="red" points="2041,-73 2041,-92 2160,-92 2160,-73 2041,-73"/>
<text text-anchor="middle" x="2100.5" y="-80" font-family="Helvetica,sans-Serif" font-size="10.00">include/d/cc/d_cc_uty.h</text>
</a>
</g>
</g>
<!-- Node6&#45;&gt;Node7 -->
<g id="edge6" class="edge">
<title>Node6&#45;&gt;Node7</title>
<path fill="none" stroke="midnightblue" d="M2007.06,-134.97C2032.47,-120.97 2065.79,-102.62 2085.01,-92.03"/>
<polygon fill="midnightblue" stroke="midnightblue" points="2005.17,-132.01 1998.1,-139.9 2008.54,-138.14 2005.17,-132.01"/>
</g>
<!-- Node9 -->
<g id="node8" class="node">
<title>Node9</title>
<g id="a_node8"><a xlink:href="d__item_8h.html" target="_top" xlink:title=" ">
<polygon fill="white" stroke="red" points="392,-73 392,-92 487,-92 487,-73 392,-73"/>
<text text-anchor="middle" x="439.5" y="-80" font-family="Helvetica,sans-Serif" font-size="10.00">include/d/d_item.h</text>
</a>
</g>
</g>
<!-- Node6&#45;&gt;Node9 -->
<g id="edge7" class="edge">
<title>Node6&#45;&gt;Node9</title>
<path fill="none" stroke="midnightblue" d="M1907.06,-152.35C1639.49,-145.49 636.12,-118.62 495.5,-98 486.26,-96.64 476.34,-94.36 467.46,-92"/>
<polygon fill="midnightblue" stroke="midnightblue" points="1907.3,-155.86 1917.39,-152.61 1907.48,-148.86 1907.3,-155.86"/>
</g>
<!-- Node10 -->
<g id="node9" class="node">
<title>Node10</title>
<g id="a_node9"><a xlink:href="d__com__inf__game_8cpp.html" target="_top" xlink:title=" ">
<polygon fill="white" stroke="black" points="1233.5,-0.5 1233.5,-30.5 1341.5,-30.5 1341.5,-0.5 1233.5,-0.5"/>
<text text-anchor="start" x="1241.5" y="-18.5" font-family="Helvetica,sans-Serif" font-size="10.00">src/d/com/d_com_inf</text>
<text text-anchor="middle" x="1287.5" y="-7.5" font-family="Helvetica,sans-Serif" font-size="10.00">_game.cpp</text>
</a>
</g>
</g>
<!-- Node6&#45;&gt;Node10 -->
<g id="edge26" class="edge">
<title>Node6&#45;&gt;Node10</title>
<path fill="none" stroke="midnightblue" d="M2037.8,-146.96C2110.8,-136.67 2213.39,-113.47 2169.5,-67 2140.98,-36.81 1529.18,-21.55 1341.65,-17.57"/>
<polygon fill="midnightblue" stroke="midnightblue" points="2037.16,-143.52 2027.72,-148.33 2038.1,-150.45 2037.16,-143.52"/>
</g>
<!-- Node13 -->
<g id="node10" class="node">
<title>Node13</title>
<g id="a_node10"><a xlink:href="d__kantera__icon__meter_8h.html" target="_top" xlink:title=" ">
<polygon fill="white" stroke="red" points="2255,-67.5 2255,-97.5 2356,-97.5 2356,-67.5 2255,-67.5"/>
<text text-anchor="start" x="2263" y="-85.5" font-family="Helvetica,sans-Serif" font-size="10.00">include/d/d_kantera</text>
<text text-anchor="middle" x="2305.5" y="-74.5" font-family="Helvetica,sans-Serif" font-size="10.00">_icon_meter.h</text>
</a>
</g>
</g>
<!-- Node6&#45;&gt;Node13 -->
<g id="edge9" class="edge">
<title>Node6&#45;&gt;Node13</title>
<path fill="none" stroke="midnightblue" d="M2037.56,-140.66C2091.87,-129.47 2171.28,-112.95 2240.5,-98 2245.13,-97 2249.95,-95.95 2254.77,-94.89"/>
<polygon fill="midnightblue" stroke="midnightblue" points="2036.81,-137.24 2027.72,-142.69 2038.22,-144.1 2036.81,-137.24"/>
</g>
<!-- Node15 -->
<g id="node11" class="node">
<title>Node15</title>
<g id="a_node11"><a xlink:href="d__meter2__draw_8cpp.html" target="_top" xlink:title=" ">
<polygon fill="white" stroke="black" points="2329.5,-0.5 2329.5,-30.5 2439.5,-30.5 2439.5,-0.5 2329.5,-0.5"/>
<text text-anchor="start" x="2337.5" y="-18.5" font-family="Helvetica,sans-Serif" font-size="10.00">src/d/meter/d_meter2</text>
<text text-anchor="middle" x="2384.5" y="-7.5" font-family="Helvetica,sans-Serif" font-size="10.00">_draw.cpp</text>
</a>
</g>
</g>
<!-- Node6&#45;&gt;Node15 -->
<g id="edge38" class="edge">
<title>Node6&#45;&gt;Node15</title>
<path fill="none" stroke="midnightblue" d="M2037.98,-153.35C2137.16,-150.97 2318.87,-140.72 2365.5,-98 2384.25,-80.83 2386.24,-49.05 2385.63,-30.66"/>
<polygon fill="midnightblue" stroke="midnightblue" points="2037.69,-149.85 2027.77,-153.57 2037.84,-156.85 2037.69,-149.85"/>
</g>
<!-- Node16 -->
<g id="node12" class="node">
<title>Node16</title>
<g id="a_node12"><a xlink:href="d__file__sel__info_8h.html" target="_top" xlink:title=" ">
<polygon fill="white" stroke="red" points="2412.5,-67.5 2412.5,-97.5 2508.5,-97.5 2508.5,-67.5 2412.5,-67.5"/>
<text text-anchor="start" x="2420.5" y="-85.5" font-family="Helvetica,sans-Serif" font-size="10.00">include/d/file/d_file</text>
<text text-anchor="middle" x="2460.5" y="-74.5" font-family="Helvetica,sans-Serif" font-size="10.00">_sel_info.h</text>
</a>
</g>
</g>
<!-- Node6&#45;&gt;Node16 -->
<g id="edge11" class="edge">
<title>Node6&#45;&gt;Node16</title>
<path fill="none" stroke="midnightblue" d="M2037.72,-147.46C2121.57,-138.58 2271.52,-121.14 2398.5,-98 2402.96,-97.19 2407.58,-96.26 2412.2,-95.28"/>
<polygon fill="midnightblue" stroke="midnightblue" points="2037.16,-144 2027.58,-148.52 2037.89,-150.96 2037.16,-144"/>
</g>
<!-- Node18 -->
<g id="node13" class="node">
<title>Node18</title>
<g id="a_node13"><a xlink:href="d__meter2_8h.html" target="_top" xlink:title=" ">
<polygon fill="white" stroke="red" points="2526.5,-73 2526.5,-92 2660.5,-92 2660.5,-73 2526.5,-73"/>
<text text-anchor="middle" x="2593.5" y="-80" font-family="Helvetica,sans-Serif" font-size="10.00">include/d/meter/d_meter2.h</text>
</a>
</g>
</g>
<!-- Node6&#45;&gt;Node18 -->
<g id="edge12" class="edge">
<title>Node6&#45;&gt;Node18</title>
<path fill="none" stroke="midnightblue" d="M2037.81,-149.12C2140.32,-141.05 2345.08,-123.26 2517.5,-98 2528.8,-96.35 2540.97,-94.19 2552.19,-92.05"/>
<polygon fill="midnightblue" stroke="midnightblue" points="2037.31,-145.65 2027.62,-149.92 2037.86,-152.63 2037.31,-145.65"/>
</g>
<!-- Node26 -->
<g id="node14" class="node">
<title>Node26</title>
<g id="a_node14"><a xlink:href="d__msg__object_8h.html" target="_top" xlink:title=" ">
<polygon fill="white" stroke="red" points="2716.5,-67.5 2716.5,-97.5 2826.5,-97.5 2826.5,-67.5 2716.5,-67.5"/>
<text text-anchor="start" x="2724.5" y="-85.5" font-family="Helvetica,sans-Serif" font-size="10.00">include/d/msg/d_msg</text>
<text text-anchor="middle" x="2771.5" y="-74.5" font-family="Helvetica,sans-Serif" font-size="10.00">_object.h</text>
</a>
</g>
</g>
<!-- Node6&#45;&gt;Node26 -->
<g id="edge13" class="edge">
<title>Node6&#45;&gt;Node26</title>
<path fill="none" stroke="midnightblue" d="M2037.75,-151.85C2165.78,-147.01 2458.7,-132.82 2702.5,-98 2706.98,-97.36 2711.61,-96.6 2716.25,-95.77"/>
<polygon fill="midnightblue" stroke="midnightblue" points="2037.58,-148.36 2027.71,-152.23 2037.84,-155.35 2037.58,-148.36"/>
</g>
<!-- Node27 -->
<g id="node15" class="node">
<title>Node27</title>
<g id="a_node15"><a xlink:href="d__kankyo_8cpp.html" target="_top" xlink:title=" ">
<polygon fill="white" stroke="black" points="2580.5,-6 2580.5,-25 2714.5,-25 2714.5,-6 2580.5,-6"/>
<text text-anchor="middle" x="2647.5" y="-13" font-family="Helvetica,sans-Serif" font-size="10.00">src/d/kankyo/d_kankyo.cpp</text>
</a>
</g>
</g>
<!-- Node6&#45;&gt;Node27 -->
<g id="edge34" class="edge">
<title>Node6&#45;&gt;Node27</title>
<path fill="none" stroke="midnightblue" d="M2037.76,-153.68C2202.88,-152.18 2627.16,-143.88 2669.5,-98 2688.58,-77.32 2666.67,-41.82 2654.52,-25.36"/>
<polygon fill="midnightblue" stroke="midnightblue" points="2037.71,-150.18 2027.74,-153.76 2037.77,-157.18 2037.71,-150.18"/>
</g>
<!-- Node21 -->
<g id="node16" class="node">
<title>Node21</title>
<g id="a_node16"><a xlink:href="d__menu__window_8cpp.html" target="_top" xlink:title=" ">
<polygon fill="white" stroke="black" points="2733,-6 2733,-25 2892,-25 2892,-6 2733,-6"/>
<text text-anchor="middle" x="2812.5" y="-13" font-family="Helvetica,sans-Serif" font-size="10.00">src/d/menu/d_menu_window.cpp</text>
</a>
</g>
</g>
<!-- Node6&#45;&gt;Node21 -->
<g id="edge36" class="edge">
<title>Node6&#45;&gt;Node21</title>
<path fill="none" stroke="midnightblue" d="M2037.93,-152.18C2234.54,-146.38 2808.3,-127.02 2835.5,-98 2854.8,-77.4 2832.21,-41.86 2819.71,-25.37"/>
<polygon fill="midnightblue" stroke="midnightblue" points="2037.63,-148.68 2027.74,-152.47 2037.84,-155.68 2037.63,-148.68"/>
</g>
<!-- Node23 -->
<g id="node17" class="node">
<title>Node23</title>
<g id="a_node17"><a xlink:href="d__meter2__info_8cpp.html" target="_top" xlink:title=" ">
<polygon fill="white" stroke="black" points="2910.5,-0.5 2910.5,-30.5 3020.5,-30.5 3020.5,-0.5 2910.5,-0.5"/>
<text text-anchor="start" x="2918.5" y="-18.5" font-family="Helvetica,sans-Serif" font-size="10.00">src/d/meter/d_meter2</text>
<text text-anchor="middle" x="2965.5" y="-7.5" font-family="Helvetica,sans-Serif" font-size="10.00">_info.cpp</text>
</a>
</g>
</g>
<!-- Node6&#45;&gt;Node23 -->
<g id="edge39" class="edge">
<title>Node6&#45;&gt;Node23</title>
<path fill="none" stroke="midnightblue" d="M2037.82,-151.93C2228.63,-145.6 2776.53,-125.23 2852.5,-98 2893.03,-83.47 2931.83,-49.74 2951.71,-30.54"/>
<polygon fill="midnightblue" stroke="midnightblue" points="2037.53,-148.44 2027.65,-152.27 2037.76,-155.44 2037.53,-148.44"/>
</g>
<!-- Node22 -->
<g id="node18" class="node">
<title>Node22</title>
<g id="a_node18"><a xlink:href="d__meter__map_8cpp.html" target="_top" xlink:title=" ">
<polygon fill="white" stroke="black" points="2190.5,-0.5 2190.5,-30.5 2294.5,-30.5 2294.5,-0.5 2190.5,-0.5"/>
<text text-anchor="start" x="2198.5" y="-18.5" font-family="Helvetica,sans-Serif" font-size="10.00">src/d/meter/d_meter</text>
<text text-anchor="middle" x="2242.5" y="-7.5" font-family="Helvetica,sans-Serif" font-size="10.00">_map.cpp</text>
</a>
</g>
</g>
<!-- Node6&#45;&gt;Node22 -->
<g id="edge40" class="edge">
<title>Node6&#45;&gt;Node22</title>
<path fill="none" stroke="midnightblue" d="M2038.03,-152.63C2087.98,-148.41 2155.89,-135.44 2202.5,-98 2224.01,-80.73 2234.8,-48.98 2239.48,-30.63"/>
<polygon fill="midnightblue" stroke="midnightblue" points="2037.68,-149.15 2027.97,-153.39 2038.21,-156.13 2037.68,-149.15"/>
</g>
<!-- Node29 -->
<g id="node19" class="node">
<title>Node29</title>
<g id="a_node19"><a xlink:href="d__s__play_8h.html" target="_top" xlink:title=" ">
<polygon fill="white" stroke="red" points="505,-73 505,-92 618,-92 618,-73 505,-73"/>
<text text-anchor="middle" x="561.5" y="-80" font-family="Helvetica,sans-Serif" font-size="10.00">include/d/s/d_s_play.h</text>
</a>
</g>
</g>
<!-- Node6&#45;&gt;Node29 -->
<g id="edge19" class="edge">
<title>Node6&#45;&gt;Node29</title>
<path fill="none" stroke="midnightblue" d="M1907.15,-152.79C1673.4,-148.23 879.43,-130.66 627.5,-98 616.8,-96.61 605.26,-94.35 594.88,-92.02"/>
<polygon fill="midnightblue" stroke="midnightblue" points="1907.13,-156.29 1917.2,-152.99 1907.27,-149.29 1907.13,-156.29"/>
</g>
<!-- Node6&#45;&gt;Node30 -->
<g id="edge20" class="edge">
<title>Node6&#45;&gt;Node30</title>
<path fill="none" stroke="midnightblue" d="M2037.85,-152.51C2255.46,-147.32 2954.35,-128.61 3177.5,-98 3187.73,-96.6 3198.74,-94.33 3208.66,-92"/>
<polygon fill="midnightblue" stroke="midnightblue" points="2037.46,-149.02 2027.55,-152.76 2037.63,-156.02 2037.46,-149.02"/>
</g>
<!-- Node31 -->
<g id="node21" class="node">
<title>Node31</title>
<g id="a_node21"><a xlink:href="d__a__player_8cpp.html" target="_top" xlink:title=" ">
<polygon fill="white" stroke="black" points="2920.5,-73 2920.5,-92 3034.5,-92 3034.5,-73 2920.5,-73"/>
<text text-anchor="middle" x="2977.5" y="-80" font-family="Helvetica,sans-Serif" font-size="10.00">src/d/a/d_a_player.cpp</text>
</a>
</g>
</g>
<!-- Node6&#45;&gt;Node31 -->
<g id="edge21" class="edge">
<title>Node6&#45;&gt;Node31</title>
<path fill="none" stroke="midnightblue" d="M2037.63,-153.26C2190.16,-150.84 2582.17,-140.62 2906.5,-98 2917.73,-96.52 2929.83,-94.29 2940.82,-92.02"/>
<polygon fill="midnightblue" stroke="midnightblue" points="2037.45,-149.76 2027.5,-153.42 2037.55,-156.76 2037.45,-149.76"/>
</g>
<!-- Node6&#45;&gt;Node32 -->
<g id="edge22" class="edge">
<title>Node6&#45;&gt;Node32</title>
<path fill="none" stroke="midnightblue" d="M1907.17,-152.46C1627.08,-145.78 535.01,-118.61 382.5,-98 372.47,-96.64 361.67,-94.36 352,-92"/>
<polygon fill="midnightblue" stroke="midnightblue" points="1907.1,-155.96 1917.18,-152.7 1907.27,-148.97 1907.1,-155.96"/>
</g>
<!-- Node33 -->
<g id="node23" class="node">
<title>Node33</title>
<g id="a_node23"><a xlink:href="d__bg__s__movebg__actor_8cpp.html" target="_top" xlink:title=" ">
<polygon fill="white" stroke="black" points="125.5,-67.5 125.5,-97.5 251.5,-97.5 251.5,-67.5 125.5,-67.5"/>
<text text-anchor="start" x="133.5" y="-85.5" font-family="Helvetica,sans-Serif" font-size="10.00">src/d/bg/d_bg_s_movebg</text>
<text text-anchor="middle" x="188.5" y="-74.5" font-family="Helvetica,sans-Serif" font-size="10.00">_actor.cpp</text>
</a>
</g>
</g>
<!-- Node6&#45;&gt;Node33 -->
<g id="edge23" class="edge">
<title>Node6&#45;&gt;Node33</title>
<path fill="none" stroke="midnightblue" d="M1907.06,-152.5C1613.59,-145.71 425.99,-117.24 260.5,-98 257.59,-97.66 254.62,-97.27 251.62,-96.83"/>
<polygon fill="midnightblue" stroke="midnightblue" points="1907.04,-156 1917.12,-152.74 1907.2,-149.01 1907.04,-156"/>
</g>
<!-- Node6&#45;&gt;Node34 -->
<g id="edge24" class="edge">
<title>Node6&#45;&gt;Node34</title>
<path fill="none" stroke="midnightblue" d="M1907.02,-152.38C1587.87,-144.47 206.94,-109.66 116.5,-98 106.15,-96.67 95,-94.39 85.01,-92.03"/>
<polygon fill="midnightblue" stroke="midnightblue" points="1907.4,-155.9 1917.49,-152.64 1907.57,-148.9 1907.4,-155.9"/>
</g>
<!-- Node35 -->
<g id="node25" class="node">
<title>Node35</title>
<g id="a_node25"><a xlink:href="d__cc__s_8cpp.html" target="_top" xlink:title=" ">
<polygon fill="white" stroke="black" points="636.5,-73 636.5,-92 740.5,-92 740.5,-73 636.5,-73"/>
<text text-anchor="middle" x="688.5" y="-80" font-family="Helvetica,sans-Serif" font-size="10.00">src/d/cc/d_cc_s.cpp</text>
</a>
</g>
</g>
<!-- Node6&#45;&gt;Node35 -->
<g id="edge25" class="edge">
<title>Node6&#45;&gt;Node35</title>
<path fill="none" stroke="midnightblue" d="M1907.25,-152.63C1687.61,-147.76 976.25,-129.85 749.5,-98 739.58,-96.61 728.92,-94.34 719.32,-92.01"/>
<polygon fill="midnightblue" stroke="midnightblue" points="1907.26,-156.13 1917.33,-152.85 1907.41,-149.13 1907.26,-156.13"/>
</g>
<!-- Node36 -->
<g id="node26" class="node">
<title>Node36</title>
<g id="a_node26"><a xlink:href="d__eye__hl_8cpp.html" target="_top" xlink:title=" ">
<polygon fill="white" stroke="black" points="758.5,-73 758.5,-92 856.5,-92 856.5,-73 758.5,-73"/>
<text text-anchor="middle" x="807.5" y="-80" font-family="Helvetica,sans-Serif" font-size="10.00">src/d/d_eye_hl.cpp</text>
</a>
</g>
</g>
<!-- Node6&#45;&gt;Node36 -->
<g id="edge27" class="edge">
<title>Node6&#45;&gt;Node36</title>
<path fill="none" stroke="midnightblue" d="M1907.25,-152.37C1701.58,-146.95 1068.47,-128.21 865.5,-98 856.16,-96.61 846.13,-94.38 837.08,-92.07"/>
<polygon fill="midnightblue" stroke="midnightblue" points="1907.21,-155.87 1917.3,-152.63 1907.39,-148.87 1907.21,-155.87"/>
</g>
<!-- Node37 -->
<g id="node27" class="node">
<title>Node37</title>
<g id="a_node27"><a xlink:href="d__kyeff_8cpp.html" target="_top" xlink:title=" ">
<polygon fill="white" stroke="black" points="874.5,-73 874.5,-92 964.5,-92 964.5,-73 874.5,-73"/>
<text text-anchor="middle" x="919.5" y="-80" font-family="Helvetica,sans-Serif" font-size="10.00">src/d/d_kyeff.cpp</text>
</a>
</g>
</g>
<!-- Node6&#45;&gt;Node37 -->
<g id="edge28" class="edge">
<title>Node6&#45;&gt;Node37</title>
<path fill="none" stroke="midnightblue" d="M1907.17,-152.1C1715.08,-146.23 1154.34,-127.03 973.5,-98 964.78,-96.6 955.43,-94.36 947.01,-92.06"/>
<polygon fill="midnightblue" stroke="midnightblue" points="1907.29,-155.6 1917.39,-152.41 1907.5,-148.61 1907.29,-155.6"/>
</g>
<!-- Node38 -->
<g id="node28" class="node">
<title>Node38</title>
<g id="a_node28"><a xlink:href="d__resorce_8cpp.html" target="_top" xlink:title=" ">
<polygon fill="white" stroke="black" points="982.5,-73 982.5,-92 1084.5,-92 1084.5,-73 982.5,-73"/>
<text text-anchor="middle" x="1033.5" y="-80" font-family="Helvetica,sans-Serif" font-size="10.00">src/d/d_resorce.cpp</text>
</a>
</g>
</g>
<!-- Node6&#45;&gt;Node38 -->
<g id="edge29" class="edge">
<title>Node6&#45;&gt;Node38</title>
<path fill="none" stroke="midnightblue" d="M1907.21,-153.7C1760.77,-152.19 1395.25,-143.72 1093.5,-98 1083.96,-96.56 1073.72,-94.33 1064.44,-92.06"/>
<polygon fill="midnightblue" stroke="midnightblue" points="1907.34,-157.2 1917.38,-153.8 1907.41,-150.2 1907.34,-157.2"/>
</g>
<!-- Node39 -->
<g id="node29" class="node">
<title>Node39</title>
<g id="a_node29"><a xlink:href="d__stage_8cpp.html" target="_top" xlink:title=" ">
<polygon fill="white" stroke="black" points="1102.5,-73 1102.5,-92 1196.5,-92 1196.5,-73 1102.5,-73"/>
<text text-anchor="middle" x="1149.5" y="-80" font-family="Helvetica,sans-Serif" font-size="10.00">src/d/d_stage.cpp</text>
</a>
</g>
</g>
<!-- Node6&#45;&gt;Node39 -->
<g id="edge30" class="edge">
<title>Node6&#45;&gt;Node39</title>
<path fill="none" stroke="midnightblue" d="M1907.2,-153.19C1774.26,-150.69 1462.94,-140.37 1205.5,-98 1196.58,-96.53 1187.01,-94.3 1178.35,-92.03"/>
<polygon fill="midnightblue" stroke="midnightblue" points="1907.17,-156.69 1917.23,-153.38 1907.29,-149.7 1907.17,-156.69"/>
</g>
<!-- Node40 -->
<g id="node30" class="node">
<title>Node40</title>
<g id="a_node30"><a xlink:href="d__event_8cpp.html" target="_top" xlink:title=" ">
<polygon fill="white" stroke="black" points="1215,-73 1215,-92 1336,-92 1336,-73 1215,-73"/>
<text text-anchor="middle" x="1275.5" y="-80" font-family="Helvetica,sans-Serif" font-size="10.00">src/d/event/d_event.cpp</text>
</a>
</g>
</g>
<!-- Node6&#45;&gt;Node40 -->
<g id="edge31" class="edge">
<title>Node6&#45;&gt;Node40</title>
<path fill="none" stroke="midnightblue" d="M1907.21,-150.73C1792.76,-144.42 1548.64,-128.44 1344.5,-98 1333.97,-96.43 1322.62,-94.25 1312.24,-92.06"/>
<polygon fill="midnightblue" stroke="midnightblue" points="1907.04,-154.22 1917.22,-151.27 1907.42,-147.23 1907.04,-154.22"/>
</g>
<!-- Node41 -->
<g id="node31" class="node">
<title>Node41</title>
<g id="a_node31"><a xlink:href="d__event__data_8cpp.html" target="_top" xlink:title=" ">
<polygon fill="white" stroke="black" points="1354,-67.5 1354,-97.5 1457,-97.5 1457,-67.5 1354,-67.5"/>
<text text-anchor="start" x="1362" y="-85.5" font-family="Helvetica,sans-Serif" font-size="10.00">src/d/event/d_event</text>
<text text-anchor="middle" x="1405.5" y="-74.5" font-family="Helvetica,sans-Serif" font-size="10.00">_data.cpp</text>
</a>
</g>
</g>
<!-- Node6&#45;&gt;Node41 -->
<g id="edge32" class="edge">
<title>Node6&#45;&gt;Node41</title>
<path fill="none" stroke="midnightblue" d="M1907.18,-149.45C1810.26,-142.11 1622.88,-125.59 1465.5,-98 1462.76,-97.52 1459.95,-96.99 1457.12,-96.42"/>
<polygon fill="midnightblue" stroke="midnightblue" points="1907.17,-152.96 1917.41,-150.22 1907.7,-145.98 1907.17,-152.96"/>
</g>
<!-- Node42 -->
<g id="node32" class="node">
<title>Node42</title>
<g id="a_node32"><a xlink:href="d__event__manager_8cpp.html" target="_top" xlink:title=" ">
<polygon fill="white" stroke="black" points="1475,-67.5 1475,-97.5 1578,-97.5 1578,-67.5 1475,-67.5"/>
<text text-anchor="start" x="1483" y="-85.5" font-family="Helvetica,sans-Serif" font-size="10.00">src/d/event/d_event</text>
<text text-anchor="middle" x="1526.5" y="-74.5" font-family="Helvetica,sans-Serif" font-size="10.00">_manager.cpp</text>
</a>
</g>
</g>
<!-- Node6&#45;&gt;Node42 -->
<g id="edge33" class="edge">
<title>Node6&#45;&gt;Node42</title>
<path fill="none" stroke="midnightblue" d="M1907.41,-146.33C1830.61,-136.86 1699.24,-119.36 1587.5,-98 1584.4,-97.41 1581.22,-96.76 1578.02,-96.09"/>
<polygon fill="midnightblue" stroke="midnightblue" points="1907.06,-149.81 1917.41,-147.55 1907.91,-142.86 1907.06,-149.81"/>
</g>
<!-- Node43 -->
<g id="node33" class="node">
<title>Node43</title>
<g id="a_node33"><a xlink:href="d__kankyo__wether_8cpp.html" target="_top" xlink:title=" ">
<polygon fill="white" stroke="black" points="1596.5,-67.5 1596.5,-97.5 1712.5,-97.5 1712.5,-67.5 1596.5,-67.5"/>
<text text-anchor="start" x="1604.5" y="-85.5" font-family="Helvetica,sans-Serif" font-size="10.00">src/d/kankyo/d_kankyo</text>
<text text-anchor="middle" x="1654.5" y="-74.5" font-family="Helvetica,sans-Serif" font-size="10.00">_wether.cpp</text>
</a>
</g>
</g>
<!-- Node6&#45;&gt;Node43 -->
<g id="edge35" class="edge">
<title>Node6&#45;&gt;Node43</title>
<path fill="none" stroke="midnightblue" d="M1907.45,-139.58C1850.22,-126.89 1767.67,-108.59 1712.62,-96.38"/>
<polygon fill="midnightblue" stroke="midnightblue" points="1906.95,-143.05 1917.47,-141.8 1908.47,-136.22 1906.95,-143.05"/>
</g>
<!-- Node44 -->
<g id="node34" class="node">
<title>Node44</title>
<g id="a_node34"><a xlink:href="d__menu__window__HIO_8cpp.html" target="_top" xlink:title=" ">
<polygon fill="white" stroke="black" points="1731,-67.5 1731,-97.5 1872,-97.5 1872,-67.5 1731,-67.5"/>
<text text-anchor="start" x="1739" y="-85.5" font-family="Helvetica,sans-Serif" font-size="10.00">src/d/menu/d_menu_window</text>
<text text-anchor="middle" x="1801.5" y="-74.5" font-family="Helvetica,sans-Serif" font-size="10.00">_HIO.cpp</text>
</a>
</g>
</g>
<!-- Node6&#45;&gt;Node44 -->
<g id="edge37" class="edge">
<title>Node6&#45;&gt;Node44</title>
<path fill="none" stroke="midnightblue" d="M1928.84,-136C1899.88,-124.06 1862.41,-108.61 1835.63,-97.57"/>
<polygon fill="midnightblue" stroke="midnightblue" points="1927.73,-139.33 1938.31,-139.9 1930.4,-132.86 1927.73,-139.33"/>
</g>
<!-- Node45 -->
<g id="node35" class="node">
<title>Node45</title>
<g id="a_node35"><a xlink:href="d__msg__flow_8cpp.html" target="_top" xlink:title=" ">
<polygon fill="white" stroke="black" points="1890,-73 1890,-92 2023,-92 2023,-73 1890,-73"/>
<text text-anchor="middle" x="1956.5" y="-80" font-family="Helvetica,sans-Serif" font-size="10.00">src/d/msg/d_msg_flow.cpp</text>
</a>
</g>
</g>
<!-- Node6&#45;&gt;Node45 -->
<g id="edge41" class="edge">
<title>Node6&#45;&gt;Node45</title>
<path fill="none" stroke="midnightblue" d="M1967.05,-129.98C1964.11,-117.01 1960.65,-101.79 1958.52,-92.39"/>
<polygon fill="midnightblue" stroke="midnightblue" points="1963.64,-130.76 1969.26,-139.73 1970.46,-129.21 1963.64,-130.76"/>
</g>
<!-- Node24 -->
<g id="node36" class="node">
<title>Node24</title>
<g id="a_node36"><a xlink:href="d__save_8cpp.html" target="_top" xlink:title=" ">
<polygon fill="white" stroke="black" points="3053,-73 3053,-92 3168,-92 3168,-73 3053,-73"/>
<text text-anchor="middle" x="3110.5" y="-80" font-family="Helvetica,sans-Serif" font-size="10.00">src/d/save/d_save.cpp</text>
</a>
</g>
</g>
<!-- Node6&#45;&gt;Node24 -->
<g id="edge42" class="edge">
<title>Node6&#45;&gt;Node24</title>
<path fill="none" stroke="midnightblue" d="M2037.84,-154.23C2205.61,-154.03 2665.01,-148.52 3043.5,-98 3054.23,-96.57 3065.8,-94.32 3076.26,-92.02"/>
<polygon fill="midnightblue" stroke="midnightblue" points="2037.68,-150.73 2027.68,-154.24 2037.69,-157.73 2037.68,-150.73"/>
</g>
<!-- Node9&#45;&gt;Node10 -->
<g id="edge8" class="edge">
<title>Node9&#45;&gt;Node10</title>
<path fill="none" stroke="midnightblue" d="M477.77,-70.57C483.67,-69.18 489.72,-67.92 495.5,-67 770.32,-23.07 1104.56,-17.02 1233.33,-16.43"/>
<polygon fill="midnightblue" stroke="midnightblue" points="476.91,-67.17 468.06,-72.99 478.61,-73.96 476.91,-67.17"/>
</g>
<!-- Node13&#45;&gt;Node15 -->
<g id="edge10" class="edge">
<title>Node13&#45;&gt;Node15</title>
<path fill="none" stroke="midnightblue" d="M2330.56,-60.88C2342.56,-51.01 2356.63,-39.43 2367.39,-30.58"/>
<polygon fill="midnightblue" stroke="midnightblue" points="2328.14,-58.34 2322.64,-67.4 2332.59,-63.75 2328.14,-58.34"/>
</g>
<!-- Node26&#45;&gt;Node15 -->
<g id="edge16" class="edge">
<title>Node26&#45;&gt;Node15</title>
<path fill="none" stroke="midnightblue" d="M2706.22,-70.54C2631.37,-57.96 2509.97,-37.57 2439.66,-25.76"/>
<polygon fill="midnightblue" stroke="midnightblue" points="2706.02,-74.05 2716.46,-72.26 2707.18,-67.15 2706.02,-74.05"/>
</g>
<!-- Node26&#45;&gt;Node27 -->
<g id="edge14" class="edge">
<title>Node26&#45;&gt;Node27</title>
<path fill="none" stroke="midnightblue" d="M2735.52,-62.64C2711.79,-50.2 2681.86,-34.51 2663.73,-25.01"/>
<polygon fill="midnightblue" stroke="midnightblue" points="2734.11,-65.85 2744.59,-67.4 2737.36,-59.65 2734.11,-65.85"/>
</g>
<!-- Node26&#45;&gt;Node21 -->
<g id="edge15" class="edge">
<title>Node26&#45;&gt;Node21</title>
<path fill="none" stroke="midnightblue" d="M2785.92,-58.63C2793.22,-47.07 2801.64,-33.71 2807.02,-25.19"/>
<polygon fill="midnightblue" stroke="midnightblue" points="2782.77,-57.07 2780.4,-67.4 2788.69,-60.81 2782.77,-57.07"/>
</g>
<!-- Node26&#45;&gt;Node23 -->
<g id="edge17" class="edge">
<title>Node26&#45;&gt;Node23</title>
<path fill="none" stroke="midnightblue" d="M2823.46,-64.09C2854.77,-53.6 2894.14,-40.41 2923.49,-30.58"/>
<polygon fill="midnightblue" stroke="midnightblue" points="2821.97,-60.9 2813.6,-67.4 2824.19,-67.54 2821.97,-60.9"/>
</g>
<!-- Node26&#45;&gt;Node22 -->
<g id="edge18" class="edge">
<title>Node26&#45;&gt;Node22</title>
<path fill="none" stroke="midnightblue" d="M2706.36,-71.86C2694.12,-70.16 2681.43,-68.46 2669.5,-67 2514.72,-48.02 2474.84,-53.27 2320.5,-31 2312.18,-29.8 2303.4,-28.35 2294.85,-26.83"/>
<polygon fill="midnightblue" stroke="midnightblue" points="2706.11,-75.36 2716.5,-73.29 2707.08,-68.43 2706.11,-75.36"/>
</g>
<!-- Node50&#45;&gt;Node30 -->
<g id="edge46" class="edge">
<title>Node50&#45;&gt;Node30</title>
<path fill="none" stroke="midnightblue" d="M2229.35,-218.34C2245.03,-216.26 2261.89,-214.03 2277.5,-212 2549.84,-176.56 2618.02,-168.42 2890.5,-134 3018.04,-117.89 3050.92,-120.45 3177.5,-98 3186.89,-96.33 3196.99,-94.18 3206.3,-92.04"/>
<polygon fill="midnightblue" stroke="midnightblue" points="2228.68,-214.9 2219.23,-219.69 2229.61,-221.84 2228.68,-214.9"/>
</g>
<!-- Node55&#45;&gt;Node33 -->
<g id="edge50" class="edge">
<title>Node55&#45;&gt;Node33</title>
<path fill="none" stroke="midnightblue" d="M937.31,-142.33C918.77,-139.21 898.36,-136.11 879.5,-134 605.64,-103.3 533.81,-133.29 260.5,-98 257.59,-97.62 254.62,-97.2 251.63,-96.74"/>
<polygon fill="midnightblue" stroke="midnightblue" points="936.95,-145.82 947.4,-144.07 938.13,-138.92 936.95,-145.82"/>
</g>
<!-- Node56&#45;&gt;Node3 -->
<g id="edge53" class="edge">
<title>Node56&#45;&gt;Node3</title>
<path fill="none" stroke="midnightblue" d="M2212.23,-399.75C2167.25,-387.04 2107.26,-370.09 2071.68,-360.03"/>
<polygon fill="midnightblue" stroke="midnightblue" points="2211.3,-403.12 2221.88,-402.48 2213.21,-396.39 2211.3,-403.12"/>
</g>
<!-- Node57 -->
<g id="node41" class="node">
<title>Node57</title>
<g id="a_node41"><a xlink:href="d__bg__w__kcol_8h.html" target="_top" xlink:title=" ">
<polygon fill="white" stroke="black" points="2267.5,-335.5 2267.5,-365.5 2373.5,-365.5 2373.5,-335.5 2267.5,-335.5"/>
<text text-anchor="start" x="2275.5" y="-353.5" font-family="Helvetica,sans-Serif" font-size="10.00">include/d/bg/d_bg_w</text>
<text text-anchor="middle" x="2320.5" y="-342.5" font-family="Helvetica,sans-Serif" font-size="10.00">_kcol.h</text>
</a>
</g>
</g>
<!-- Node56&#45;&gt;Node57 -->
<g id="edge54" class="edge">
<title>Node56&#45;&gt;Node57</title>
<path fill="none" stroke="midnightblue" d="M2288.34,-394.16C2295.49,-384.68 2303.6,-373.92 2309.89,-365.58"/>
<polygon fill="midnightblue" stroke="midnightblue" points="2285.36,-392.3 2282.13,-402.4 2290.95,-396.52 2285.36,-392.3"/>
</g>
<!-- Node59 -->
<g id="node43" class="node">
<title>Node59</title>
<g id="a_node43"><a xlink:href="d__bg__w__base_8cpp.html" target="_top" xlink:title=" ">
<polygon fill="white" stroke="black" points="2116,-341 2116,-360 2249,-360 2249,-341 2116,-341"/>
<text text-anchor="middle" x="2182.5" y="-348" font-family="Helvetica,sans-Serif" font-size="10.00">src/d/bg/d_bg_w_base.cpp</text>
</a>
</g>
</g>
<!-- Node56&#45;&gt;Node59 -->
<g id="edge56" class="edge">
<title>Node56&#45;&gt;Node59</title>
<path fill="none" stroke="midnightblue" d="M2243.85,-396.31C2227.14,-384.1 2206.7,-369.18 2194.15,-360.01"/>
<polygon fill="midnightblue" stroke="midnightblue" points="2242.05,-399.32 2252.19,-402.4 2246.18,-393.67 2242.05,-399.32"/>
</g>
<!-- Node58 -->
<g id="node42" class="node">
<title>Node58</title>
<g id="a_node42"><a xlink:href="d__bg__w__kcol_8cpp.html" target="_top" xlink:title=" ">
<polygon fill="white" stroke="black" points="2249.5,-279.5 2249.5,-298.5 2379.5,-298.5 2379.5,-279.5 2249.5,-279.5"/>
<text text-anchor="middle" x="2314.5" y="-286.5" font-family="Helvetica,sans-Serif" font-size="10.00">src/d/bg/d_bg_w_kcol.cpp</text>
</a>
</g>
</g>
<!-- Node57&#45;&gt;Node58 -->
<g id="edge55" class="edge">
<title>Node57&#45;&gt;Node58</title>
<path fill="none" stroke="midnightblue" d="M2318.06,-325.29C2317.11,-315.86 2316.08,-305.65 2315.37,-298.66"/>
<polygon fill="midnightblue" stroke="midnightblue" points="2314.59,-325.8 2319.08,-335.4 2321.56,-325.1 2314.59,-325.8"/>
</g>
<!-- Node60&#45;&gt;Node30 -->
<g id="edge58" class="edge">
<title>Node60&#45;&gt;Node30</title>
<path fill="none" stroke="midnightblue" d="M3134.75,-402.56C3166.59,-382.24 3218.5,-341.25 3218.5,-290 3218.5,-290 3218.5,-290 3218.5,-226.5 3218.5,-175.01 3232.61,-114.28 3238.23,-92.13"/>
<polygon fill="midnightblue" stroke="midnightblue" points="3132.65,-399.74 3125.97,-407.97 3136.32,-405.7 3132.65,-399.74"/>
</g>
<!-- Node61 -->
<g id="node45" class="node">
<title>Node61</title>
<g id="a_node45"><a xlink:href="d__bomb_8cpp.html" target="_top" xlink:title=" ">
<polygon fill="white" stroke="black" points="3063.5,-341 3063.5,-360 3157.5,-360 3157.5,-341 3063.5,-341"/>
<text text-anchor="middle" x="3110.5" y="-348" font-family="Helvetica,sans-Serif" font-size="10.00">src/d/d_bomb.cpp</text>
</a>
</g>
</g>
<!-- Node60&#45;&gt;Node61 -->
<g id="edge59" class="edge">
<title>Node60&#45;&gt;Node61</title>
<path fill="none" stroke="midnightblue" d="M3110.5,-397.54C3110.5,-385.17 3110.5,-369.62 3110.5,-360.13"/>
<polygon fill="midnightblue" stroke="midnightblue" points="3107,-397.73 3110.5,-407.73 3114,-397.73 3107,-397.73"/>
</g>
<!-- Node62&#45;&gt;Node5 -->
<g id="edge61" class="edge">
<title>Node62&#45;&gt;Node5</title>
<path fill="none" stroke="midnightblue" d="M2686.12,-400.45C2703.08,-392.87 2719.57,-381.86 2729.5,-366 2757.08,-321.95 2709.84,-259.76 2690.33,-237.15"/>
<polygon fill="midnightblue" stroke="midnightblue" points="2684.61,-397.29 2676.69,-404.32 2687.27,-403.76 2684.61,-397.29"/>
</g>
<!-- Node62&#45;&gt;Node63 -->
<g id="edge62" class="edge">
<title>Node62&#45;&gt;Node63</title>
<path fill="none" stroke="midnightblue" d="M2591.23,-397.3C2573.08,-387.12 2551.18,-374.85 2534.62,-365.58"/>
<polygon fill="midnightblue" stroke="midnightblue" points="2589.9,-400.56 2600.33,-402.4 2593.32,-394.45 2589.9,-400.56"/>
</g>
<!-- Node64 -->
<g id="node48" class="node">
<title>Node64</title>
<g id="a_node48"><a xlink:href="d__particle__copoly_8cpp.html" target="_top" xlink:title=" ">
<polygon fill="white" stroke="black" points="2602.5,-335.5 2602.5,-365.5 2720.5,-365.5 2720.5,-335.5 2602.5,-335.5"/>
<text text-anchor="start" x="2610.5" y="-353.5" font-family="Helvetica,sans-Serif" font-size="10.00">src/d/particle/d_particle</text>
<text text-anchor="middle" x="2661.5" y="-342.5" font-family="Helvetica,sans-Serif" font-size="10.00">_copoly.cpp</text>
</a>
</g>
</g>
<!-- Node62&#45;&gt;Node64 -->
<g id="edge64" class="edge">
<title>Node62&#45;&gt;Node64</title>
<path fill="none" stroke="midnightblue" d="M2638.2,-393.58C2643.37,-384.24 2649.18,-373.75 2653.7,-365.58"/>
<polygon fill="midnightblue" stroke="midnightblue" points="2635.09,-391.95 2633.31,-402.4 2641.22,-395.34 2635.09,-391.95"/>
</g>
<!-- Node63&#45;&gt;Node31 -->
<g id="edge63" class="edge">
<title>Node63&#45;&gt;Node31</title>
<path fill="none" stroke="midnightblue" d="M2521.78,-326.25C2538.93,-295.89 2572.79,-242.98 2615.5,-212 2712.8,-141.42 2852.55,-106.52 2926.73,-92.05"/>
<polygon fill="midnightblue" stroke="midnightblue" points="2518.58,-324.81 2516.81,-335.25 2524.71,-328.19 2518.58,-324.81"/>
</g>
<!-- Node65&#45;&gt;Node30 -->
<g id="edge67" class="edge">
<title>Node65&#45;&gt;Node30</title>
<path fill="none" stroke="midnightblue" d="M3155.65,-129.52C3179.55,-116.55 3207.42,-101.44 3224.51,-92.17"/>
<polygon fill="midnightblue" stroke="midnightblue" points="3153.83,-126.52 3146.71,-134.36 3157.17,-132.67 3153.83,-126.52"/>
</g>
<!-- Node65&#45;&gt;Node24 -->
<g id="edge68" class="edge">
<title>Node65&#45;&gt;Node24</title>
<path fill="none" stroke="midnightblue" d="M3110.5,-124.1C3110.5,-112.53 3110.5,-100.18 3110.5,-92.17"/>
<polygon fill="midnightblue" stroke="midnightblue" points="3107,-124.36 3110.5,-134.36 3114,-124.36 3107,-124.36"/>
</g>
</g>
</svg>
