<?xml version="1.0" encoding="UTF-8" standalone="no"?>
<!DOCTYPE svg PUBLIC "-//W3C//DTD SVG 1.1//EN"
 "http://www.w3.org/Graphics/SVG/1.1/DTD/svg11.dtd">
<!-- Generated by graphviz version 2.50.0 (20220203.2022)
 -->
<!-- Title: include/d/bg/d_bg_s_acch.h Pages: 1 -->
<svg width="3534pt" height="508pt"
 viewBox="0.00 0.00 3534.00 508.00" xmlns="http://www.w3.org/2000/svg" xmlns:xlink="http://www.w3.org/1999/xlink">
<g id="graph0" class="graph" transform="scale(1 1) rotate(0) translate(4 504)">
<title>include/d/bg/d_bg_s_acch.h</title>
<polygon fill="white" stroke="transparent" points="-4,4 -4,-504 3530,-504 3530,4 -4,4"/>
<!-- Node1 -->
<g id="node1" class="node">
<title>Node1</title>
<g id="a_node1"><a xlink:title=" ">
<polygon fill="#bfbfbf" stroke="black" points="2586.5,-469.5 2586.5,-499.5 2690.5,-499.5 2690.5,-469.5 2586.5,-469.5"/>
<text text-anchor="start" x="2594.5" y="-487.5" font-family="Helvetica,sans-Serif" font-size="10.00">include/d/bg/d_bg_s</text>
<text text-anchor="middle" x="2638.5" y="-476.5" font-family="Helvetica,sans-Serif" font-size="10.00">_acch.h</text>
</a>
</g>
</g>
<!-- Node2 -->
<g id="node2" class="node">
<title>Node2</title>
<g id="a_node2"><a xlink:href="d__bg__w_8h.html" target="_top" xlink:title=" ">
<polygon fill="white" stroke="black" points="2114,-341 2114,-360 2227,-360 2227,-341 2114,-341"/>
<text text-anchor="middle" x="2170.5" y="-348" font-family="Helvetica,sans-Serif" font-size="10.00">include/d/bg/d_bg_w.h</text>
</a>
</g>
</g>
<!-- Node1&#45;&gt;Node2 -->
<g id="edge1" class="edge">
<title>Node1&#45;&gt;Node2</title>
<path fill="none" stroke="midnightblue" d="M2576.16,-478.23C2514.62,-471.82 2418.4,-458.53 2338.5,-433 2278.59,-413.86 2213,-376.93 2184.75,-360.16"/>
<polygon fill="midnightblue" stroke="midnightblue" points="2576.18,-481.75 2586.49,-479.27 2576.89,-474.78 2576.18,-481.75"/>
</g>
<!-- Node55 -->
<g id="node39" class="node">
<title>Node55</title>
<g id="a_node39"><a xlink:href="d__bg__s__acch_8cpp.html" target="_top" xlink:title=" ">
<polygon fill="white" stroke="black" points="2415,-218 2415,-237 2546,-237 2546,-218 2415,-218"/>
<text text-anchor="middle" x="2480.5" y="-225" font-family="Helvetica,sans-Serif" font-size="10.00">src/d/bg/d_bg_s_acch.cpp</text>
</a>
</g>
</g>
<!-- Node1&#45;&gt;Node55 -->
<g id="edge70" class="edge">
<title>Node1&#45;&gt;Node55</title>
<path fill="none" stroke="midnightblue" d="M2620.68,-461.22C2602.81,-438.24 2575.19,-400.92 2555.5,-366 2534.78,-329.25 2538.54,-315.57 2517.5,-279 2508.5,-263.36 2495.62,-246.77 2487.67,-237.04"/>
<polygon fill="midnightblue" stroke="midnightblue" points="2618.09,-463.59 2627.02,-469.29 2623.6,-459.27 2618.09,-463.59"/>
</g>
<!-- Node57 -->
<g id="node41" class="node">
<title>Node57</title>
<g id="a_node41"><a xlink:href="d__bg__w__base_8h.html" target="_top" xlink:title=" ">
<polygon fill="white" stroke="black" points="2347.5,-402.5 2347.5,-432.5 2453.5,-432.5 2453.5,-402.5 2347.5,-402.5"/>
<text text-anchor="start" x="2355.5" y="-420.5" font-family="Helvetica,sans-Serif" font-size="10.00">include/d/bg/d_bg_w</text>
<text text-anchor="middle" x="2400.5" y="-409.5" font-family="Helvetica,sans-Serif" font-size="10.00">_base.h</text>
</a>
</g>
</g>
<!-- Node1&#45;&gt;Node57 -->
<g id="edge53" class="edge">
<title>Node1&#45;&gt;Node57</title>
<path fill="none" stroke="midnightblue" d="M2577.04,-466.71C2538.31,-456.14 2488.87,-442.63 2452.17,-432.61"/>
<polygon fill="midnightblue" stroke="midnightblue" points="2576.58,-470.22 2587.15,-469.48 2578.43,-463.46 2576.58,-470.22"/>
</g>
<!-- Node61 -->
<g id="node45" class="node">
<title>Node61</title>
<g id="a_node45"><a xlink:href="d__bomb_8h.html" target="_top" xlink:title=" ">
<polygon fill="white" stroke="black" points="3272,-408 3272,-427 3373,-427 3373,-408 3272,-408"/>
<text text-anchor="middle" x="3322.5" y="-415" font-family="Helvetica,sans-Serif" font-size="10.00">include/d/d_bomb.h</text>
</a>
</g>
</g>
<!-- Node1&#45;&gt;Node61 -->
<g id="edge58" class="edge">
<title>Node1&#45;&gt;Node61</title>
<path fill="none" stroke="midnightblue" d="M2700.86,-477.57C2834.95,-464.83 3148.49,-435.04 3271.59,-423.34"/>
<polygon fill="midnightblue" stroke="midnightblue" points="2700.38,-474.1 2690.75,-478.53 2701.04,-481.07 2700.38,-474.1"/>
</g>
<!-- Node63 -->
<g id="node47" class="node">
<title>Node63</title>
<g id="a_node47"><a xlink:href="d__particle__copoly_8h.html" target="_top" xlink:title=" ">
<polygon fill="white" stroke="black" points="2703.5,-402.5 2703.5,-432.5 2805.5,-432.5 2805.5,-402.5 2703.5,-402.5"/>
<text text-anchor="start" x="2711.5" y="-420.5" font-family="Helvetica,sans-Serif" font-size="10.00">include/d/particle</text>
<text text-anchor="middle" x="2754.5" y="-409.5" font-family="Helvetica,sans-Serif" font-size="10.00">/d_particle_copoly.h</text>
</a>
</g>
</g>
<!-- Node1&#45;&gt;Node63 -->
<g id="edge61" class="edge">
<title>Node1&#45;&gt;Node63</title>
<path fill="none" stroke="midnightblue" d="M2672.77,-464.3C2690.92,-454.12 2712.82,-441.85 2729.38,-432.58"/>
<polygon fill="midnightblue" stroke="midnightblue" points="2670.68,-461.45 2663.67,-469.4 2674.1,-467.56 2670.68,-461.45"/>
</g>
<!-- Node64 -->
<g id="node48" class="node">
<title>Node64</title>
<g id="a_node48"><a xlink:href="d__a__boomerang_8h.html" target="_top" xlink:title=" ">
<polygon fill="white" stroke="black" points="2564,-335.5 2564,-365.5 2713,-365.5 2713,-335.5 2564,-335.5"/>
<text text-anchor="start" x="2572" y="-353.5" font-family="Helvetica,sans-Serif" font-size="10.00">include/rel/d/a/d_a</text>
<text text-anchor="middle" x="2638.5" y="-342.5" font-family="Helvetica,sans-Serif" font-size="10.00">_boomerang/d_a_boomerang.h</text>
</a>
</g>
</g>
<!-- Node1&#45;&gt;Node64 -->
<g id="edge66" class="edge">
<title>Node1&#45;&gt;Node64</title>
<path fill="none" stroke="midnightblue" d="M2638.5,-459.02C2638.5,-431.51 2638.5,-387.79 2638.5,-365.52"/>
<polygon fill="midnightblue" stroke="midnightblue" points="2635,-459.37 2638.5,-469.37 2642,-459.37 2635,-459.37"/>
</g>
<!-- Node66 -->
<g id="node50" class="node">
<title>Node66</title>
<g id="a_node50"><a xlink:href="d__a__obj__carry_8h.html" target="_top" xlink:title=" ">
<polygon fill="white" stroke="black" points="3283.5,-134.5 3283.5,-175.5 3399.5,-175.5 3399.5,-134.5 3283.5,-134.5"/>
<text text-anchor="start" x="3291.5" y="-163.5" font-family="Helvetica,sans-Serif" font-size="10.00">include/rel/d/a/obj</text>
<text text-anchor="start" x="3291.5" y="-152.5" font-family="Helvetica,sans-Serif" font-size="10.00">/d_a_obj_carry/d_a_obj</text>
<text text-anchor="middle" x="3341.5" y="-141.5" font-family="Helvetica,sans-Serif" font-size="10.00">_carry.h</text>
</a>
</g>
</g>
<!-- Node1&#45;&gt;Node66 -->
<g id="edge67" class="edge">
<title>Node1&#45;&gt;Node66</title>
<path fill="none" stroke="midnightblue" d="M2700.78,-481.78C2786,-475.73 2928.5,-450.77 2928.5,-351.5 2928.5,-351.5 2928.5,-351.5 2928.5,-288 2928.5,-214.42 3169.36,-176.24 3283.2,-162.3"/>
<polygon fill="midnightblue" stroke="midnightblue" points="2700.44,-478.29 2690.68,-482.43 2700.88,-485.28 2700.44,-478.29"/>
</g>
<!-- Node3 -->
<g id="node3" class="node">
<title>Node3</title>
<g id="a_node3"><a xlink:href="d__bg__s_8h.html" target="_top" xlink:title=" ">
<polygon fill="white" stroke="black" points="2185,-279.5 2185,-298.5 2296,-298.5 2296,-279.5 2185,-279.5"/>
<text text-anchor="middle" x="2240.5" y="-286.5" font-family="Helvetica,sans-Serif" font-size="10.00">include/d/bg/d_bg_s.h</text>
</a>
</g>
</g>
<!-- Node2&#45;&gt;Node3 -->
<g id="edge2" class="edge">
<title>Node2&#45;&gt;Node3</title>
<path fill="none" stroke="midnightblue" d="M2188.18,-334.47C2201.57,-323.09 2219.48,-307.87 2230.49,-298.51"/>
<polygon fill="midnightblue" stroke="midnightblue" points="2185.88,-331.83 2180.53,-340.98 2190.42,-337.17 2185.88,-331.83"/>
</g>
<!-- Node34 -->
<g id="node24" class="node">
<title>Node34</title>
<g id="a_node24"><a xlink:href="d__bg__w_8cpp.html" target="_top" xlink:title=" ">
<polygon fill="white" stroke="black" points="0,-73 0,-92 107,-92 107,-73 0,-73"/>
<text text-anchor="middle" x="53.5" y="-80" font-family="Helvetica,sans-Serif" font-size="10.00">src/d/bg/d_bg_w.cpp</text>
</a>
</g>
</g>
<!-- Node2&#45;&gt;Node34 -->
<g id="edge52" class="edge">
<title>Node2&#45;&gt;Node34</title>
<path fill="none" stroke="midnightblue" d="M2103.67,-348.55C1952.13,-345.81 1570.98,-335.54 1254.5,-299 744.28,-240.09 619.82,-200.3 116.5,-98 107.59,-96.19 98.01,-94.07 89.08,-92.03"/>
<polygon fill="midnightblue" stroke="midnightblue" points="2103.69,-352.05 2113.75,-348.73 2103.81,-345.06 2103.69,-352.05"/>
</g>
<!-- Node56 -->
<g id="node40" class="node">
<title>Node56</title>
<g id="a_node40"><a xlink:href="d__bg__s__movebg__actor_8h.html" target="_top" xlink:title=" ">
<polygon fill="white" stroke="black" points="990.5,-140 990.5,-170 1094.5,-170 1094.5,-140 990.5,-140"/>
<text text-anchor="start" x="998.5" y="-158" font-family="Helvetica,sans-Serif" font-size="10.00">include/d/bg/d_bg_s</text>
<text text-anchor="middle" x="1042.5" y="-147" font-family="Helvetica,sans-Serif" font-size="10.00">_movebg_actor.h</text>
</a>
</g>
</g>
<!-- Node2&#45;&gt;Node56 -->
<g id="edge50" class="edge">
<title>Node2&#45;&gt;Node56</title>
<path fill="none" stroke="midnightblue" d="M2103.78,-348.2C1903.15,-343.44 1308.46,-322.77 1134.5,-243 1098.53,-226.51 1067.66,-190.2 1052.5,-170.09"/>
<polygon fill="midnightblue" stroke="midnightblue" points="2103.8,-351.7 2113.88,-348.44 2103.97,-344.71 2103.8,-351.7"/>
</g>
<!-- Node4 -->
<g id="node4" class="node">
<title>Node4</title>
<g id="a_node4"><a xlink:href="d__a__alink_8h.html" target="_top" xlink:title=" ">
<polygon fill="white" stroke="black" points="2758.5,-218 2758.5,-237 2874.5,-237 2874.5,-218 2758.5,-218"/>
<text text-anchor="middle" x="2816.5" y="-225" font-family="Helvetica,sans-Serif" font-size="10.00">include/d/a/d_a_alink.h</text>
</a>
</g>
</g>
<!-- Node3&#45;&gt;Node4 -->
<g id="edge3" class="edge">
<title>Node3&#45;&gt;Node4</title>
<path fill="none" stroke="midnightblue" d="M2306.53,-281.18C2420.01,-269.46 2650.2,-245.68 2758.15,-234.53"/>
<polygon fill="midnightblue" stroke="midnightblue" points="2305.84,-277.73 2296.25,-282.24 2306.56,-284.69 2305.84,-277.73"/>
</g>
<!-- Node5 -->
<g id="node5" class="node">
<title>Node5</title>
<g id="a_node5"><a xlink:href="d__com__inf__game_8h.html" target="_top" xlink:title=" ">
<polygon fill="white" stroke="red" points="2003.5,-140 2003.5,-170 2113.5,-170 2113.5,-140 2003.5,-140"/>
<text text-anchor="start" x="2011.5" y="-158" font-family="Helvetica,sans-Serif" font-size="10.00">include/d/com/d_com</text>
<text text-anchor="middle" x="2058.5" y="-147" font-family="Helvetica,sans-Serif" font-size="10.00">_inf_game.h</text>
</a>
</g>
</g>
<!-- Node3&#45;&gt;Node5 -->
<g id="edge45" class="edge">
<title>Node3&#45;&gt;Node5</title>
<path fill="none" stroke="midnightblue" d="M2220.45,-273.46C2185.23,-247.91 2112.67,-195.29 2077.9,-170.07"/>
<polygon fill="midnightblue" stroke="midnightblue" points="2218.41,-276.3 2228.56,-279.34 2222.52,-270.63 2218.41,-276.3"/>
</g>
<!-- Node32 -->
<g id="node22" class="node">
<title>Node32</title>
<g id="a_node22"><a xlink:href="d__bg__s_8cpp.html" target="_top" xlink:title=" ">
<polygon fill="white" stroke="black" points="269.5,-73 269.5,-92 373.5,-92 373.5,-73 269.5,-73"/>
<text text-anchor="middle" x="321.5" y="-80" font-family="Helvetica,sans-Serif" font-size="10.00">src/d/bg/d_bg_s.cpp</text>
</a>
</g>
</g>
<!-- Node3&#45;&gt;Node32 -->
<g id="edge48" class="edge">
<title>Node3&#45;&gt;Node32</title>
<path fill="none" stroke="midnightblue" d="M2179.09,-277.81C2008.82,-249.98 1516.07,-172.17 1103.5,-134 784.02,-104.44 700.13,-143.29 382.5,-98 372.69,-96.6 362.15,-94.37 352.63,-92.06"/>
<polygon fill="midnightblue" stroke="midnightblue" points="2178.68,-281.29 2189.12,-279.46 2179.81,-274.39 2178.68,-281.29"/>
</g>
<!-- Node51 -->
<g id="node38" class="node">
<title>Node51</title>
<g id="a_node38"><a xlink:href="d__a__horse_8h.html" target="_top" xlink:title=" ">
<polygon fill="white" stroke="red" points="2247,-212.5 2247,-242.5 2348,-242.5 2348,-212.5 2247,-212.5"/>
<text text-anchor="start" x="2255" y="-230.5" font-family="Helvetica,sans-Serif" font-size="10.00">include/rel/d/a/d_a</text>
<text text-anchor="middle" x="2297.5" y="-219.5" font-family="Helvetica,sans-Serif" font-size="10.00">_horse/d_a_horse.h</text>
</a>
</g>
</g>
<!-- Node3&#45;&gt;Node51 -->
<g id="edge46" class="edge">
<title>Node3&#45;&gt;Node51</title>
<path fill="none" stroke="midnightblue" d="M2255.74,-272.09C2264.56,-262.88 2275.57,-251.39 2284.07,-242.52"/>
<polygon fill="midnightblue" stroke="midnightblue" points="2253.06,-269.83 2248.67,-279.48 2258.11,-274.68 2253.06,-269.83"/>
</g>
<!-- Node3&#45;&gt;Node55 -->
<g id="edge49" class="edge">
<title>Node3&#45;&gt;Node55</title>
<path fill="none" stroke="midnightblue" d="M2284.7,-277.04C2331.3,-265.49 2403.7,-247.54 2446.18,-237.01"/>
<polygon fill="midnightblue" stroke="midnightblue" points="2283.75,-273.67 2274.89,-279.48 2285.43,-280.47 2283.75,-273.67"/>
</g>
<!-- Node4&#45;&gt;Node5 -->
<g id="edge4" class="edge">
<title>Node4&#45;&gt;Node5</title>
<path fill="none" stroke="midnightblue" d="M2747.92,-220.12C2599.14,-206.28 2249.22,-173.74 2113.58,-161.12"/>
<polygon fill="midnightblue" stroke="midnightblue" points="2748,-223.64 2758.28,-221.09 2748.65,-216.67 2748,-223.64"/>
</g>
<!-- Node30 -->
<g id="node20" class="node">
<title>Node30</title>
<g id="a_node20"><a xlink:href="d__a__alink_8cpp.html" target="_top" xlink:title=" ">
<polygon fill="white" stroke="black" points="3417,-73 3417,-92 3526,-92 3526,-73 3417,-73"/>
<text text-anchor="middle" x="3471.5" y="-80" font-family="Helvetica,sans-Serif" font-size="10.00">src/d/a/d_a_alink.cpp</text>
</a>
</g>
</g>
<!-- Node4&#45;&gt;Node30 -->
<g id="edge44" class="edge">
<title>Node4&#45;&gt;Node30</title>
<path fill="none" stroke="midnightblue" d="M2866.77,-215.81C2968.92,-194.04 3208.06,-142.82 3408.5,-98 3417.04,-96.09 3426.23,-94 3434.87,-92.01"/>
<polygon fill="midnightblue" stroke="midnightblue" points="2865.79,-212.44 2856.74,-217.95 2867.25,-219.29 2865.79,-212.44"/>
</g>
<!-- Node6 -->
<g id="node6" class="node">
<title>Node6</title>
<g id="a_node6"><a xlink:href="d__cc__uty_8h.html" target="_top" xlink:title=" ">
<polygon fill="white" stroke="red" points="2272,-73 2272,-92 2391,-92 2391,-73 2272,-73"/>
<text text-anchor="middle" x="2331.5" y="-80" font-family="Helvetica,sans-Serif" font-size="10.00">include/d/cc/d_cc_uty.h</text>
</a>
</g>
</g>
<!-- Node5&#45;&gt;Node6 -->
<g id="edge5" class="edge">
<title>Node5&#45;&gt;Node6</title>
<path fill="none" stroke="midnightblue" d="M2122.78,-137.4C2177.85,-123.18 2254.95,-103.27 2298.37,-92.05"/>
<polygon fill="midnightblue" stroke="midnightblue" points="2121.57,-134.1 2112.76,-139.99 2123.32,-140.88 2121.57,-134.1"/>
</g>
<!-- Node8 -->
<g id="node7" class="node">
<title>Node8</title>
<g id="a_node7"><a xlink:href="d__item_8h.html" target="_top" xlink:title=" ">
<polygon fill="white" stroke="red" points="392,-73 392,-92 487,-92 487,-73 392,-73"/>
<text text-anchor="middle" x="439.5" y="-80" font-family="Helvetica,sans-Serif" font-size="10.00">include/d/d_item.h</text>
</a>
</g>
</g>
<!-- Node5&#45;&gt;Node8 -->
<g id="edge6" class="edge">
<title>Node5&#45;&gt;Node8</title>
<path fill="none" stroke="midnightblue" d="M1992.94,-152.49C1715.45,-146 644.97,-119.76 495.5,-98 486.26,-96.65 476.34,-94.37 467.46,-92.01"/>
<polygon fill="midnightblue" stroke="midnightblue" points="1993.17,-156 2003.25,-152.73 1993.33,-149 1993.17,-156"/>
</g>
<!-- Node9 -->
<g id="node8" class="node">
<title>Node9</title>
<g id="a_node8"><a xlink:href="d__com__inf__game_8cpp.html" target="_top" xlink:title=" ">
<polygon fill="white" stroke="black" points="1348.5,-0.5 1348.5,-30.5 1456.5,-30.5 1456.5,-0.5 1348.5,-0.5"/>
<text text-anchor="start" x="1356.5" y="-18.5" font-family="Helvetica,sans-Serif" font-size="10.00">src/d/com/d_com_inf</text>
<text text-anchor="middle" x="1402.5" y="-7.5" font-family="Helvetica,sans-Serif" font-size="10.00">_game.cpp</text>
</a>
</g>
</g>
<!-- Node5&#45;&gt;Node9 -->
<g id="edge26" class="edge">
<title>Node5&#45;&gt;Node9</title>
<path fill="none" stroke="midnightblue" d="M2123.82,-152.97C2212.98,-150.02 2365.71,-138.95 2400.5,-98 2409.42,-87.5 2409.99,-76.99 2400.5,-67 2367.76,-32.56 1659.87,-20.08 1456.62,-17.2"/>
<polygon fill="midnightblue" stroke="midnightblue" points="2123.69,-149.47 2113.81,-153.27 2123.91,-156.47 2123.69,-149.47"/>
</g>
<!-- Node12 -->
<g id="node9" class="node">
<title>Node12</title>
<g id="a_node9"><a xlink:href="d__kantera__icon__meter_8h.html" target="_top" xlink:title=" ">
<polygon fill="white" stroke="red" points="2486,-67.5 2486,-97.5 2587,-97.5 2587,-67.5 2486,-67.5"/>
<text text-anchor="start" x="2494" y="-85.5" font-family="Helvetica,sans-Serif" font-size="10.00">include/d/d_kantera</text>
<text text-anchor="middle" x="2536.5" y="-74.5" font-family="Helvetica,sans-Serif" font-size="10.00">_icon_meter.h</text>
</a>
</g>
</g>
<!-- Node5&#45;&gt;Node12 -->
<g id="edge8" class="edge">
<title>Node5&#45;&gt;Node12</title>
<path fill="none" stroke="midnightblue" d="M2123.63,-146.9C2205.24,-137.6 2349.24,-119.89 2471.5,-98 2476.17,-97.16 2481.01,-96.23 2485.84,-95.24"/>
<polygon fill="midnightblue" stroke="midnightblue" points="2123.05,-143.44 2113.51,-148.04 2123.84,-150.4 2123.05,-143.44"/>
</g>
<!-- Node14 -->
<g id="node10" class="node">
<title>Node14</title>
<g id="a_node10"><a xlink:href="d__meter2__draw_8cpp.html" target="_top" xlink:title=" ">
<polygon fill="white" stroke="black" points="2560.5,-0.5 2560.5,-30.5 2670.5,-30.5 2670.5,-0.5 2560.5,-0.5"/>
<text text-anchor="start" x="2568.5" y="-18.5" font-family="Helvetica,sans-Serif" font-size="10.00">src/d/meter/d_meter2</text>
<text text-anchor="middle" x="2615.5" y="-7.5" font-family="Helvetica,sans-Serif" font-size="10.00">_draw.cpp</text>
</a>
</g>
</g>
<!-- Node5&#45;&gt;Node14 -->
<g id="edge39" class="edge">
<title>Node5&#45;&gt;Node14</title>
<path fill="none" stroke="midnightblue" d="M2123.78,-151.4C2259.34,-145.41 2561.66,-128.72 2596.5,-98 2615.57,-81.18 2617.45,-49.27 2616.72,-30.76"/>
<polygon fill="midnightblue" stroke="midnightblue" points="2123.37,-147.91 2113.53,-151.85 2123.68,-154.91 2123.37,-147.91"/>
</g>
<!-- Node15 -->
<g id="node11" class="node">
<title>Node15</title>
<g id="a_node11"><a xlink:href="d__file__sel__info_8h.html" target="_top" xlink:title=" ">
<polygon fill="white" stroke="red" points="2643.5,-67.5 2643.5,-97.5 2739.5,-97.5 2739.5,-67.5 2643.5,-67.5"/>
<text text-anchor="start" x="2651.5" y="-85.5" font-family="Helvetica,sans-Serif" font-size="10.00">include/d/file/d_file</text>
<text text-anchor="middle" x="2691.5" y="-74.5" font-family="Helvetica,sans-Serif" font-size="10.00">_sel_info.h</text>
</a>
</g>
</g>
<!-- Node5&#45;&gt;Node15 -->
<g id="edge10" class="edge">
<title>Node5&#45;&gt;Node15</title>
<path fill="none" stroke="midnightblue" d="M2123.8,-150.41C2230.25,-143.92 2447.61,-128.05 2629.5,-98 2633.97,-97.26 2638.6,-96.39 2643.22,-95.44"/>
<polygon fill="midnightblue" stroke="midnightblue" points="2123.31,-146.93 2113.54,-151.02 2123.73,-153.92 2123.31,-146.93"/>
</g>
<!-- Node17 -->
<g id="node12" class="node">
<title>Node17</title>
<g id="a_node12"><a xlink:href="d__meter2_8h.html" target="_top" xlink:title=" ">
<polygon fill="white" stroke="red" points="2757.5,-73 2757.5,-92 2891.5,-92 2891.5,-73 2757.5,-73"/>
<text text-anchor="middle" x="2824.5" y="-80" font-family="Helvetica,sans-Serif" font-size="10.00">include/d/meter/d_meter2.h</text>
</a>
</g>
</g>
<!-- Node5&#45;&gt;Node17 -->
<g id="edge11" class="edge">
<title>Node5&#45;&gt;Node17</title>
<path fill="none" stroke="midnightblue" d="M2123.71,-151.05C2246.45,-144.98 2520.01,-128.98 2748.5,-98 2760.08,-96.43 2772.57,-94.25 2784.01,-92.06"/>
<polygon fill="midnightblue" stroke="midnightblue" points="2123.54,-147.55 2113.72,-151.54 2123.88,-154.54 2123.54,-147.55"/>
</g>
<!-- Node25 -->
<g id="node13" class="node">
<title>Node25</title>
<g id="a_node13"><a xlink:href="d__msg__object_8h.html" target="_top" xlink:title=" ">
<polygon fill="white" stroke="red" points="2947.5,-67.5 2947.5,-97.5 3057.5,-97.5 3057.5,-67.5 2947.5,-67.5"/>
<text text-anchor="start" x="2955.5" y="-85.5" font-family="Helvetica,sans-Serif" font-size="10.00">include/d/msg/d_msg</text>
<text text-anchor="middle" x="3002.5" y="-74.5" font-family="Helvetica,sans-Serif" font-size="10.00">_object.h</text>
</a>
</g>
</g>
<!-- Node5&#45;&gt;Node25 -->
<g id="edge12" class="edge">
<title>Node5&#45;&gt;Node25</title>
<path fill="none" stroke="midnightblue" d="M2123.66,-153.01C2269.43,-150.12 2632.66,-139.02 2933.5,-98 2937.99,-97.39 2942.62,-96.65 2947.26,-95.84"/>
<polygon fill="midnightblue" stroke="midnightblue" points="2123.48,-149.52 2113.55,-153.21 2123.61,-156.52 2123.48,-149.52"/>
</g>
<!-- Node26 -->
<g id="node14" class="node">
<title>Node26</title>
<g id="a_node14"><a xlink:href="d__kankyo_8cpp.html" target="_top" xlink:title=" ">
<polygon fill="white" stroke="black" points="2811.5,-6 2811.5,-25 2945.5,-25 2945.5,-6 2811.5,-6"/>
<text text-anchor="middle" x="2878.5" y="-13" font-family="Helvetica,sans-Serif" font-size="10.00">src/d/kankyo/d_kankyo.cpp</text>
</a>
</g>
</g>
<!-- Node5&#45;&gt;Node26 -->
<g id="edge35" class="edge">
<title>Node5&#45;&gt;Node26</title>
<path fill="none" stroke="midnightblue" d="M2123.67,-152.07C2316.76,-146.05 2874.04,-126.28 2900.5,-98 2919.73,-77.45 2897.74,-41.88 2885.54,-25.38"/>
<polygon fill="midnightblue" stroke="midnightblue" points="2123.55,-148.57 2113.66,-152.38 2123.77,-155.57 2123.55,-148.57"/>
</g>
<!-- Node20 -->
<g id="node15" class="node">
<title>Node20</title>
<g id="a_node15"><a xlink:href="d__menu__window_8cpp.html" target="_top" xlink:title=" ">
<polygon fill="white" stroke="black" points="2964,-6 2964,-25 3123,-25 3123,-6 2964,-6"/>
<text text-anchor="middle" x="3043.5" y="-13" font-family="Helvetica,sans-Serif" font-size="10.00">src/d/menu/d_menu_window.cpp</text>
</a>
</g>
</g>
<!-- Node5&#45;&gt;Node20 -->
<g id="edge37" class="edge">
<title>Node5&#45;&gt;Node20</title>
<path fill="none" stroke="midnightblue" d="M2123.99,-151.56C2344.96,-143.19 3050.25,-115.17 3066.5,-98 3085.9,-77.49 3063.26,-41.9 3050.73,-25.39"/>
<polygon fill="midnightblue" stroke="midnightblue" points="2123.69,-148.07 2113.83,-151.95 2123.96,-155.07 2123.69,-148.07"/>
</g>
<!-- Node22 -->
<g id="node16" class="node">
<title>Node22</title>
<g id="a_node16"><a xlink:href="d__meter2__info_8cpp.html" target="_top" xlink:title=" ">
<polygon fill="white" stroke="black" points="3141.5,-0.5 3141.5,-30.5 3251.5,-30.5 3251.5,-0.5 3141.5,-0.5"/>
<text text-anchor="start" x="3149.5" y="-18.5" font-family="Helvetica,sans-Serif" font-size="10.00">src/d/meter/d_meter2</text>
<text text-anchor="middle" x="3196.5" y="-7.5" font-family="Helvetica,sans-Serif" font-size="10.00">_info.cpp</text>
</a>
</g>
</g>
<!-- Node5&#45;&gt;Node22 -->
<g id="edge40" class="edge">
<title>Node5&#45;&gt;Node22</title>
<path fill="none" stroke="midnightblue" d="M2123.71,-151.45C2342.34,-142.77 3038.22,-114 3083.5,-98 3124.09,-83.65 3162.87,-49.86 3182.73,-30.59"/>
<polygon fill="midnightblue" stroke="midnightblue" points="2123.52,-147.95 2113.66,-151.85 2123.79,-154.95 2123.52,-147.95"/>
</g>
<!-- Node21 -->
<g id="node17" class="node">
<title>Node21</title>
<g id="a_node17"><a xlink:href="d__meter__map_8cpp.html" target="_top" xlink:title=" ">
<polygon fill="white" stroke="black" points="2421.5,-0.5 2421.5,-30.5 2525.5,-30.5 2525.5,-0.5 2421.5,-0.5"/>
<text text-anchor="start" x="2429.5" y="-18.5" font-family="Helvetica,sans-Serif" font-size="10.00">src/d/meter/d_meter</text>
<text text-anchor="middle" x="2473.5" y="-7.5" font-family="Helvetica,sans-Serif" font-size="10.00">_map.cpp</text>
</a>
</g>
</g>
<!-- Node5&#45;&gt;Node21 -->
<g id="edge41" class="edge">
<title>Node5&#45;&gt;Node21</title>
<path fill="none" stroke="midnightblue" d="M2123.87,-151.45C2217.93,-146.59 2385.42,-133.16 2433.5,-98 2455.89,-81.63 2466.4,-49.24 2470.78,-30.61"/>
<polygon fill="midnightblue" stroke="midnightblue" points="2123.43,-147.97 2113.61,-151.96 2123.77,-154.96 2123.43,-147.97"/>
</g>
<!-- Node28 -->
<g id="node18" class="node">
<title>Node28</title>
<g id="a_node18"><a xlink:href="d__s__play_8h.html" target="_top" xlink:title=" ">
<polygon fill="white" stroke="red" points="505,-73 505,-92 618,-92 618,-73 505,-73"/>
<text text-anchor="middle" x="561.5" y="-80" font-family="Helvetica,sans-Serif" font-size="10.00">include/d/s/d_s_play.h</text>
</a>
</g>
</g>
<!-- Node5&#45;&gt;Node28 -->
<g id="edge18" class="edge">
<title>Node5&#45;&gt;Node28</title>
<path fill="none" stroke="midnightblue" d="M1993.04,-153.01C1749.52,-149.08 896.18,-133.06 626.5,-98 615.95,-96.63 604.59,-94.37 594.36,-92.04"/>
<polygon fill="midnightblue" stroke="midnightblue" points="1993.1,-156.51 2003.15,-153.17 1993.21,-149.51 1993.1,-156.51"/>
</g>
<!-- Node29 -->
<g id="node19" class="node">
<title>Node29</title>
<g id="a_node19"><a xlink:href="c__dylink_8cpp.html" target="_top" xlink:title=" ">
<polygon fill="white" stroke="black" points="636,-73 636,-92 731,-92 731,-73 636,-73"/>
<text text-anchor="middle" x="683.5" y="-80" font-family="Helvetica,sans-Serif" font-size="10.00">src/c/c_dylink.cpp</text>
</a>
</g>
</g>
<!-- Node5&#45;&gt;Node29 -->
<g id="edge19" class="edge">
<title>Node5&#45;&gt;Node29</title>
<path fill="none" stroke="midnightblue" d="M1992.9,-153.01C1761.82,-149.22 986.26,-134.08 740.5,-98 731.21,-96.64 721.23,-94.38 712.26,-92.05"/>
<polygon fill="midnightblue" stroke="midnightblue" points="1993.11,-156.51 2003.17,-153.17 1993.23,-149.51 1993.11,-156.51"/>
</g>
<!-- Node5&#45;&gt;Node30 -->
<g id="edge20" class="edge">
<title>Node5&#45;&gt;Node30</title>
<path fill="none" stroke="midnightblue" d="M2123.71,-152.89C2357.86,-148.66 3155.66,-132.04 3408.5,-98 3418.73,-96.62 3429.75,-94.36 3439.66,-92.03"/>
<polygon fill="midnightblue" stroke="midnightblue" points="2123.58,-149.39 2113.64,-153.07 2123.7,-156.39 2123.58,-149.39"/>
</g>
<!-- Node31 -->
<g id="node21" class="node">
<title>Node31</title>
<g id="a_node21"><a xlink:href="d__a__player_8cpp.html" target="_top" xlink:title=" ">
<polygon fill="white" stroke="black" points="3151.5,-73 3151.5,-92 3265.5,-92 3265.5,-73 3151.5,-73"/>
<text text-anchor="middle" x="3208.5" y="-80" font-family="Helvetica,sans-Serif" font-size="10.00">src/d/a/d_a_player.cpp</text>
</a>
</g>
</g>
<!-- Node5&#45;&gt;Node31 -->
<g id="edge21" class="edge">
<title>Node5&#45;&gt;Node31</title>
<path fill="none" stroke="midnightblue" d="M2123.74,-151.9C2325.83,-145.18 2939.63,-123.2 3137.5,-98 3148.86,-96.55 3161.11,-94.3 3172.19,-92"/>
<polygon fill="midnightblue" stroke="midnightblue" points="2123.46,-148.4 2113.58,-152.23 2123.69,-155.4 2123.46,-148.4"/>
</g>
<!-- Node5&#45;&gt;Node32 -->
<g id="edge22" class="edge">
<title>Node5&#45;&gt;Node32</title>
<path fill="none" stroke="midnightblue" d="M1993.03,-152.59C1703.34,-146.23 543.9,-119.66 382.5,-98 372.47,-96.65 361.67,-94.37 351.99,-92.01"/>
<polygon fill="midnightblue" stroke="midnightblue" points="1993.3,-156.09 2003.37,-152.81 1993.45,-149.1 1993.3,-156.09"/>
</g>
<!-- Node33 -->
<g id="node23" class="node">
<title>Node33</title>
<g id="a_node23"><a xlink:href="d__bg__s__movebg__actor_8cpp.html" target="_top" xlink:title=" ">
<polygon fill="white" stroke="black" points="125.5,-67.5 125.5,-97.5 251.5,-97.5 251.5,-67.5 125.5,-67.5"/>
<text text-anchor="start" x="133.5" y="-85.5" font-family="Helvetica,sans-Serif" font-size="10.00">src/d/bg/d_bg_s_movebg</text>
<text text-anchor="middle" x="188.5" y="-74.5" font-family="Helvetica,sans-Serif" font-size="10.00">_actor.cpp</text>
</a>
</g>
</g>
<!-- Node5&#45;&gt;Node33 -->
<g id="edge23" class="edge">
<title>Node5&#45;&gt;Node33</title>
<path fill="none" stroke="midnightblue" d="M1992.8,-152.61C1689.82,-146.1 434.88,-118.13 260.5,-98 257.59,-97.66 254.62,-97.27 251.62,-96.83"/>
<polygon fill="midnightblue" stroke="midnightblue" points="1993.1,-156.11 2003.17,-152.83 1993.25,-149.12 1993.1,-156.11"/>
</g>
<!-- Node5&#45;&gt;Node34 -->
<g id="edge24" class="edge">
<title>Node5&#45;&gt;Node34</title>
<path fill="none" stroke="midnightblue" d="M1993.19,-152.48C1665.39,-144.8 211.44,-110.17 116.5,-98 106.15,-96.67 95,-94.4 85.01,-92.04"/>
<polygon fill="midnightblue" stroke="midnightblue" points="1993.39,-155.98 2003.47,-152.72 1993.55,-148.99 1993.39,-155.98"/>
</g>
<!-- Node35 -->
<g id="node25" class="node">
<title>Node35</title>
<g id="a_node25"><a xlink:href="d__cc__s_8cpp.html" target="_top" xlink:title=" ">
<polygon fill="white" stroke="black" points="749.5,-73 749.5,-92 853.5,-92 853.5,-73 749.5,-73"/>
<text text-anchor="middle" x="801.5" y="-80" font-family="Helvetica,sans-Serif" font-size="10.00">src/d/cc/d_cc_s.cpp</text>
</a>
</g>
</g>
<!-- Node5&#45;&gt;Node35 -->
<g id="edge25" class="edge">
<title>Node5&#45;&gt;Node35</title>
<path fill="none" stroke="midnightblue" d="M1992.89,-152.54C1776.03,-147.47 1083.62,-129.18 862.5,-98 852.58,-96.6 841.92,-94.34 832.32,-92.01"/>
<polygon fill="midnightblue" stroke="midnightblue" points="1993.07,-156.05 2003.15,-152.78 1993.24,-149.05 1993.07,-156.05"/>
</g>
<!-- Node36 -->
<g id="node26" class="node">
<title>Node36</title>
<g id="a_node26"><a xlink:href="d__eye__hl_8cpp.html" target="_top" xlink:title=" ">
<polygon fill="white" stroke="black" points="871.5,-73 871.5,-92 969.5,-92 969.5,-73 871.5,-73"/>
<text text-anchor="middle" x="920.5" y="-80" font-family="Helvetica,sans-Serif" font-size="10.00">src/d/d_eye_hl.cpp</text>
</a>
</g>
</g>
<!-- Node5&#45;&gt;Node36 -->
<g id="edge27" class="edge">
<title>Node5&#45;&gt;Node36</title>
<path fill="none" stroke="midnightblue" d="M1993.14,-152.27C1790.73,-146.64 1175.96,-127.52 978.5,-98 969.16,-96.6 959.13,-94.37 950.08,-92.07"/>
<polygon fill="midnightblue" stroke="midnightblue" points="1993.23,-155.77 2003.32,-152.55 1993.42,-148.77 1993.23,-155.77"/>
</g>
<!-- Node37 -->
<g id="node27" class="node">
<title>Node37</title>
<g id="a_node27"><a xlink:href="d__kyeff_8cpp.html" target="_top" xlink:title=" ">
<polygon fill="white" stroke="black" points="987.5,-73 987.5,-92 1077.5,-92 1077.5,-73 987.5,-73"/>
<text text-anchor="middle" x="1032.5" y="-80" font-family="Helvetica,sans-Serif" font-size="10.00">src/d/d_kyeff.cpp</text>
</a>
</g>
</g>
<!-- Node5&#45;&gt;Node37 -->
<g id="edge28" class="edge">
<title>Node5&#45;&gt;Node37</title>
<path fill="none" stroke="midnightblue" d="M1992.82,-154.83C1835.32,-155.82 1424.17,-152.47 1086.5,-98 1077.78,-96.59 1068.44,-94.35 1060.01,-92.05"/>
<polygon fill="midnightblue" stroke="midnightblue" points="1993.29,-158.33 2003.27,-154.75 1993.24,-151.33 1993.29,-158.33"/>
</g>
<!-- Node38 -->
<g id="node28" class="node">
<title>Node38</title>
<g id="a_node28"><a xlink:href="d__resorce_8cpp.html" target="_top" xlink:title=" ">
<polygon fill="white" stroke="black" points="1095.5,-73 1095.5,-92 1197.5,-92 1197.5,-73 1095.5,-73"/>
<text text-anchor="middle" x="1146.5" y="-80" font-family="Helvetica,sans-Serif" font-size="10.00">src/d/d_resorce.cpp</text>
</a>
</g>
</g>
<!-- Node5&#45;&gt;Node38 -->
<g id="edge29" class="edge">
<title>Node5&#45;&gt;Node38</title>
<path fill="none" stroke="midnightblue" d="M1992.95,-153.51C1849.53,-151.6 1497.43,-142.38 1206.5,-98 1196.97,-96.55 1186.72,-94.32 1177.44,-92.05"/>
<polygon fill="midnightblue" stroke="midnightblue" points="1993.28,-157.01 2003.32,-153.64 1993.37,-150.02 1993.28,-157.01"/>
</g>
<!-- Node39 -->
<g id="node29" class="node">
<title>Node39</title>
<g id="a_node29"><a xlink:href="d__stage_8cpp.html" target="_top" xlink:title=" ">
<polygon fill="white" stroke="black" points="1215.5,-73 1215.5,-92 1309.5,-92 1309.5,-73 1215.5,-73"/>
<text text-anchor="middle" x="1262.5" y="-80" font-family="Helvetica,sans-Serif" font-size="10.00">src/d/d_stage.cpp</text>
</a>
</g>
</g>
<!-- Node5&#45;&gt;Node39 -->
<g id="edge30" class="edge">
<title>Node5&#45;&gt;Node39</title>
<path fill="none" stroke="midnightblue" d="M1993.18,-152.95C1863.64,-150.01 1565.38,-138.97 1318.5,-98 1309.58,-96.52 1300.01,-94.29 1291.35,-92.02"/>
<polygon fill="midnightblue" stroke="midnightblue" points="1993.25,-156.45 2003.33,-153.17 1993.41,-149.45 1993.25,-156.45"/>
</g>
<!-- Node40 -->
<g id="node30" class="node">
<title>Node40</title>
<g id="a_node30"><a xlink:href="d__tresure_8cpp.html" target="_top" xlink:title=" ">
<polygon fill="white" stroke="black" points="1327.5,-73 1327.5,-92 1427.5,-92 1427.5,-73 1327.5,-73"/>
<text text-anchor="middle" x="1377.5" y="-80" font-family="Helvetica,sans-Serif" font-size="10.00">src/d/d_tresure.cpp</text>
</a>
</g>
</g>
<!-- Node5&#45;&gt;Node40 -->
<g id="edge31" class="edge">
<title>Node5&#45;&gt;Node40</title>
<path fill="none" stroke="midnightblue" d="M1992.94,-151.36C1879.08,-146.05 1637.69,-131.58 1436.5,-98 1427.34,-96.47 1417.51,-94.28 1408.55,-92.06"/>
<polygon fill="midnightblue" stroke="midnightblue" points="1993.08,-154.87 2003.23,-151.83 1993.4,-147.88 1993.08,-154.87"/>
</g>
<!-- Node41 -->
<g id="node31" class="node">
<title>Node41</title>
<g id="a_node31"><a xlink:href="d__event_8cpp.html" target="_top" xlink:title=" ">
<polygon fill="white" stroke="black" points="1446,-73 1446,-92 1567,-92 1567,-73 1446,-73"/>
<text text-anchor="middle" x="1506.5" y="-80" font-family="Helvetica,sans-Serif" font-size="10.00">src/d/event/d_event.cpp</text>
</a>
</g>
</g>
<!-- Node5&#45;&gt;Node41 -->
<g id="edge32" class="edge">
<title>Node5&#45;&gt;Node41</title>
<path fill="none" stroke="midnightblue" d="M1993.11,-148.34C1900.01,-139.84 1724.07,-122.17 1575.5,-98 1565.23,-96.33 1554.17,-94.17 1543.98,-92.03"/>
<polygon fill="midnightblue" stroke="midnightblue" points="1992.95,-151.84 2003.22,-149.25 1993.58,-144.87 1992.95,-151.84"/>
</g>
<!-- Node42 -->
<g id="node32" class="node">
<title>Node42</title>
<g id="a_node32"><a xlink:href="d__event__data_8cpp.html" target="_top" xlink:title=" ">
<polygon fill="white" stroke="black" points="1585,-67.5 1585,-97.5 1688,-97.5 1688,-67.5 1585,-67.5"/>
<text text-anchor="start" x="1593" y="-85.5" font-family="Helvetica,sans-Serif" font-size="10.00">src/d/event/d_event</text>
<text text-anchor="middle" x="1636.5" y="-74.5" font-family="Helvetica,sans-Serif" font-size="10.00">_data.cpp</text>
</a>
</g>
</g>
<!-- Node5&#45;&gt;Node42 -->
<g id="edge33" class="edge">
<title>Node5&#45;&gt;Node42</title>
<path fill="none" stroke="midnightblue" d="M1993.43,-145.6C1920.75,-135.84 1799.73,-118.42 1696.5,-98 1693.77,-97.46 1690.97,-96.88 1688.15,-96.27"/>
<polygon fill="midnightblue" stroke="midnightblue" points="1992.99,-149.08 2003.36,-146.93 1993.91,-142.14 1992.99,-149.08"/>
</g>
<!-- Node43 -->
<g id="node33" class="node">
<title>Node43</title>
<g id="a_node33"><a xlink:href="d__event__manager_8cpp.html" target="_top" xlink:title=" ">
<polygon fill="white" stroke="black" points="1706,-67.5 1706,-97.5 1809,-97.5 1809,-67.5 1706,-67.5"/>
<text text-anchor="start" x="1714" y="-85.5" font-family="Helvetica,sans-Serif" font-size="10.00">src/d/event/d_event</text>
<text text-anchor="middle" x="1757.5" y="-74.5" font-family="Helvetica,sans-Serif" font-size="10.00">_manager.cpp</text>
</a>
</g>
</g>
<!-- Node5&#45;&gt;Node43 -->
<g id="edge34" class="edge">
<title>Node5&#45;&gt;Node43</title>
<path fill="none" stroke="midnightblue" d="M1993.2,-138.84C1944.92,-127.61 1877.6,-111.92 1818.5,-98 1815.43,-97.28 1812.27,-96.53 1809.08,-95.78"/>
<polygon fill="midnightblue" stroke="midnightblue" points="1992.66,-142.31 2003.2,-141.16 1994.25,-135.49 1992.66,-142.31"/>
</g>
<!-- Node44 -->
<g id="node34" class="node">
<title>Node44</title>
<g id="a_node34"><a xlink:href="d__kankyo__wether_8cpp.html" target="_top" xlink:title=" ">
<polygon fill="white" stroke="black" points="1827.5,-67.5 1827.5,-97.5 1943.5,-97.5 1943.5,-67.5 1827.5,-67.5"/>
<text text-anchor="start" x="1835.5" y="-85.5" font-family="Helvetica,sans-Serif" font-size="10.00">src/d/kankyo/d_kankyo</text>
<text text-anchor="middle" x="1885.5" y="-74.5" font-family="Helvetica,sans-Serif" font-size="10.00">_wether.cpp</text>
</a>
</g>
</g>
<!-- Node5&#45;&gt;Node44 -->
<g id="edge36" class="edge">
<title>Node5&#45;&gt;Node44</title>
<path fill="none" stroke="midnightblue" d="M2014.33,-136C1985.03,-124.06 1947.13,-108.61 1920.03,-97.57"/>
<polygon fill="midnightblue" stroke="midnightblue" points="2013.33,-139.37 2023.91,-139.9 2015.97,-132.89 2013.33,-139.37"/>
</g>
<!-- Node45 -->
<g id="node35" class="node">
<title>Node45</title>
<g id="a_node35"><a xlink:href="d__menu__window__HIO_8cpp.html" target="_top" xlink:title=" ">
<polygon fill="white" stroke="black" points="1962,-67.5 1962,-97.5 2103,-97.5 2103,-67.5 1962,-67.5"/>
<text text-anchor="start" x="1970" y="-85.5" font-family="Helvetica,sans-Serif" font-size="10.00">src/d/menu/d_menu_window</text>
<text text-anchor="middle" x="2032.5" y="-74.5" font-family="Helvetica,sans-Serif" font-size="10.00">_HIO.cpp</text>
</a>
</g>
</g>
<!-- Node5&#45;&gt;Node45 -->
<g id="edge38" class="edge">
<title>Node5&#45;&gt;Node45</title>
<path fill="none" stroke="midnightblue" d="M2049.67,-130.06C2045.71,-119.32 2041.17,-107.01 2037.75,-97.75"/>
<polygon fill="midnightblue" stroke="midnightblue" points="2046.49,-131.56 2053.24,-139.73 2053.06,-129.14 2046.49,-131.56"/>
</g>
<!-- Node46 -->
<g id="node36" class="node">
<title>Node46</title>
<g id="a_node36"><a xlink:href="d__msg__flow_8cpp.html" target="_top" xlink:title=" ">
<polygon fill="white" stroke="black" points="2121,-73 2121,-92 2254,-92 2254,-73 2121,-73"/>
<text text-anchor="middle" x="2187.5" y="-80" font-family="Helvetica,sans-Serif" font-size="10.00">src/d/msg/d_msg_flow.cpp</text>
</a>
</g>
</g>
<!-- Node5&#45;&gt;Node46 -->
<g id="edge42" class="edge">
<title>Node5&#45;&gt;Node46</title>
<path fill="none" stroke="midnightblue" d="M2093.33,-134.97C2118.93,-120.97 2152.52,-102.62 2171.89,-92.03"/>
<polygon fill="midnightblue" stroke="midnightblue" points="2091.39,-132.04 2084.3,-139.9 2094.75,-138.18 2091.39,-132.04"/>
</g>
<!-- Node23 -->
<g id="node37" class="node">
<title>Node23</title>
<g id="a_node37"><a xlink:href="d__save_8cpp.html" target="_top" xlink:title=" ">
<polygon fill="white" stroke="black" points="3284,-73 3284,-92 3399,-92 3399,-73 3284,-73"/>
<text text-anchor="middle" x="3341.5" y="-80" font-family="Helvetica,sans-Serif" font-size="10.00">src/d/save/d_save.cpp</text>
</a>
</g>
</g>
<!-- Node5&#45;&gt;Node23 -->
<g id="edge43" class="edge">
<title>Node5&#45;&gt;Node23</title>
<path fill="none" stroke="midnightblue" d="M2123.73,-152.44C2342.47,-146.96 3048.87,-127.4 3274.5,-98 3285.24,-96.6 3296.81,-94.36 3307.26,-92.06"/>
<polygon fill="midnightblue" stroke="midnightblue" points="2123.6,-148.94 2113.69,-152.69 2123.77,-155.94 2123.6,-148.94"/>
</g>
<!-- Node8&#45;&gt;Node9 -->
<g id="edge7" class="edge">
<title>Node8&#45;&gt;Node9</title>
<path fill="none" stroke="midnightblue" d="M477.76,-70.53C483.66,-69.14 489.72,-67.9 495.5,-67 816.12,-17.07 1207.25,-14.78 1348.44,-15.8"/>
<polygon fill="midnightblue" stroke="midnightblue" points="476.9,-67.13 468.05,-72.95 478.6,-73.92 476.9,-67.13"/>
</g>
<!-- Node12&#45;&gt;Node14 -->
<g id="edge9" class="edge">
<title>Node12&#45;&gt;Node14</title>
<path fill="none" stroke="midnightblue" d="M2561.56,-60.88C2573.56,-51.01 2587.63,-39.43 2598.39,-30.58"/>
<polygon fill="midnightblue" stroke="midnightblue" points="2559.14,-58.34 2553.64,-67.4 2563.59,-63.75 2559.14,-58.34"/>
</g>
<!-- Node25&#45;&gt;Node14 -->
<g id="edge15" class="edge">
<title>Node25&#45;&gt;Node14</title>
<path fill="none" stroke="midnightblue" d="M2937.22,-70.54C2862.37,-57.96 2740.97,-37.57 2670.66,-25.76"/>
<polygon fill="midnightblue" stroke="midnightblue" points="2937.02,-74.05 2947.46,-72.26 2938.18,-67.15 2937.02,-74.05"/>
</g>
<!-- Node25&#45;&gt;Node26 -->
<g id="edge13" class="edge">
<title>Node25&#45;&gt;Node26</title>
<path fill="none" stroke="midnightblue" d="M2966.52,-62.64C2942.79,-50.2 2912.86,-34.51 2894.73,-25.01"/>
<polygon fill="midnightblue" stroke="midnightblue" points="2965.11,-65.85 2975.59,-67.4 2968.36,-59.65 2965.11,-65.85"/>
</g>
<!-- Node25&#45;&gt;Node20 -->
<g id="edge14" class="edge">
<title>Node25&#45;&gt;Node20</title>
<path fill="none" stroke="midnightblue" d="M3016.92,-58.63C3024.22,-47.07 3032.64,-33.71 3038.02,-25.19"/>
<polygon fill="midnightblue" stroke="midnightblue" points="3013.77,-57.07 3011.4,-67.4 3019.69,-60.81 3013.77,-57.07"/>
</g>
<!-- Node25&#45;&gt;Node22 -->
<g id="edge16" class="edge">
<title>Node25&#45;&gt;Node22</title>
<path fill="none" stroke="midnightblue" d="M3054.46,-64.09C3085.77,-53.6 3125.14,-40.41 3154.49,-30.58"/>
<polygon fill="midnightblue" stroke="midnightblue" points="3052.97,-60.9 3044.6,-67.4 3055.19,-67.54 3052.97,-60.9"/>
</g>
<!-- Node25&#45;&gt;Node21 -->
<g id="edge17" class="edge">
<title>Node25&#45;&gt;Node21</title>
<path fill="none" stroke="midnightblue" d="M2937.36,-71.86C2925.12,-70.16 2912.43,-68.46 2900.5,-67 2745.72,-48.02 2705.84,-53.27 2551.5,-31 2543.18,-29.8 2534.4,-28.35 2525.85,-26.83"/>
<polygon fill="midnightblue" stroke="midnightblue" points="2937.11,-75.36 2947.5,-73.29 2938.08,-68.43 2937.11,-75.36"/>
</g>
<!-- Node51&#45;&gt;Node30 -->
<g id="edge47" class="edge">
<title>Node51&#45;&gt;Node30</title>
<path fill="none" stroke="midnightblue" d="M2358.34,-218.27C2374.03,-216.19 2390.89,-213.98 2406.5,-212 2693.4,-175.6 2765.07,-165.88 3052.5,-134 3210.56,-116.47 3251.59,-123.89 3408.5,-98 3418.13,-96.41 3428.5,-94.23 3437.98,-92.04"/>
<polygon fill="midnightblue" stroke="midnightblue" points="2357.68,-214.83 2348.23,-219.62 2358.6,-221.77 2357.68,-214.83"/>
</g>
<!-- Node56&#45;&gt;Node33 -->
<g id="edge51" class="edge">
<title>Node56&#45;&gt;Node33</title>
<path fill="none" stroke="midnightblue" d="M980.31,-142.29C961.77,-139.16 941.36,-136.08 922.5,-134 629.62,-101.73 552.8,-135.18 260.5,-98 257.59,-97.63 254.62,-97.21 251.63,-96.75"/>
<polygon fill="midnightblue" stroke="midnightblue" points="979.95,-145.78 990.4,-144.02 981.14,-138.88 979.95,-145.78"/>
</g>
<!-- Node57&#45;&gt;Node2 -->
<g id="edge54" class="edge">
<title>Node57&#45;&gt;Node2</title>
<path fill="none" stroke="midnightblue" d="M2341.23,-399.75C2296.25,-387.04 2236.26,-370.09 2200.68,-360.03"/>
<polygon fill="midnightblue" stroke="midnightblue" points="2340.3,-403.12 2350.88,-402.48 2342.21,-396.39 2340.3,-403.12"/>
</g>
<!-- Node58 -->
<g id="node42" class="node">
<title>Node58</title>
<g id="a_node42"><a xlink:href="d__bg__w__kcol_8h.html" target="_top" xlink:title=" ">
<polygon fill="white" stroke="black" points="2396.5,-335.5 2396.5,-365.5 2502.5,-365.5 2502.5,-335.5 2396.5,-335.5"/>
<text text-anchor="start" x="2404.5" y="-353.5" font-family="Helvetica,sans-Serif" font-size="10.00">include/d/bg/d_bg_w</text>
<text text-anchor="middle" x="2449.5" y="-342.5" font-family="Helvetica,sans-Serif" font-size="10.00">_kcol.h</text>
</a>
</g>
</g>
<!-- Node57&#45;&gt;Node58 -->
<g id="edge55" class="edge">
<title>Node57&#45;&gt;Node58</title>
<path fill="none" stroke="midnightblue" d="M2417.34,-394.16C2424.49,-384.68 2432.6,-373.92 2438.89,-365.58"/>
<polygon fill="midnightblue" stroke="midnightblue" points="2414.36,-392.3 2411.13,-402.4 2419.95,-396.52 2414.36,-392.3"/>
</g>
<!-- Node60 -->
<g id="node44" class="node">
<title>Node60</title>
<g id="a_node44"><a xlink:href="d__bg__w__base_8cpp.html" target="_top" xlink:title=" ">
<polygon fill="white" stroke="black" points="2245,-341 2245,-360 2378,-360 2378,-341 2245,-341"/>
<text text-anchor="middle" x="2311.5" y="-348" font-family="Helvetica,sans-Serif" font-size="10.00">src/d/bg/d_bg_w_base.cpp</text>
</a>
</g>
</g>
<!-- Node57&#45;&gt;Node60 -->
<g id="edge57" class="edge">
<title>Node57&#45;&gt;Node60</title>
<path fill="none" stroke="midnightblue" d="M2372.85,-396.31C2356.14,-384.1 2335.7,-369.18 2323.15,-360.01"/>
<polygon fill="midnightblue" stroke="midnightblue" points="2371.05,-399.32 2381.19,-402.4 2375.18,-393.67 2371.05,-399.32"/>
</g>
<!-- Node59 -->
<g id="node43" class="node">
<title>Node59</title>
<g id="a_node43"><a xlink:href="d__bg__w__kcol_8cpp.html" target="_top" xlink:title=" ">
<polygon fill="white" stroke="black" points="2378.5,-279.5 2378.5,-298.5 2508.5,-298.5 2508.5,-279.5 2378.5,-279.5"/>
<text text-anchor="middle" x="2443.5" y="-286.5" font-family="Helvetica,sans-Serif" font-size="10.00">src/d/bg/d_bg_w_kcol.cpp</text>
</a>
</g>
</g>
<!-- Node58&#45;&gt;Node59 -->
<g id="edge56" class="edge">
<title>Node58&#45;&gt;Node59</title>
<path fill="none" stroke="midnightblue" d="M2447.06,-325.29C2446.11,-315.86 2445.08,-305.65 2444.37,-298.66"/>
<polygon fill="midnightblue" stroke="midnightblue" points="2443.59,-325.8 2448.08,-335.4 2450.56,-325.1 2443.59,-325.8"/>
</g>
<!-- Node61&#45;&gt;Node30 -->
<g id="edge59" class="edge">
<title>Node61&#45;&gt;Node30</title>
<path fill="none" stroke="midnightblue" d="M3351.8,-403.29C3389.3,-384.13 3449.5,-344.85 3449.5,-290 3449.5,-290 3449.5,-290 3449.5,-226.5 3449.5,-175.01 3463.61,-114.28 3469.23,-92.13"/>
<polygon fill="midnightblue" stroke="midnightblue" points="3349.77,-400.38 3342.34,-407.94 3352.86,-406.66 3349.77,-400.38"/>
</g>
<!-- Node62 -->
<g id="node46" class="node">
<title>Node62</title>
<g id="a_node46"><a xlink:href="d__bomb_8cpp.html" target="_top" xlink:title=" ">
<polygon fill="white" stroke="black" points="3275.5,-341 3275.5,-360 3369.5,-360 3369.5,-341 3275.5,-341"/>
<text text-anchor="middle" x="3322.5" y="-348" font-family="Helvetica,sans-Serif" font-size="10.00">src/d/d_bomb.cpp</text>
</a>
</g>
</g>
<!-- Node61&#45;&gt;Node62 -->
<g id="edge60" class="edge">
<title>Node61&#45;&gt;Node62</title>
<path fill="none" stroke="midnightblue" d="M3322.5,-397.54C3322.5,-385.17 3322.5,-369.62 3322.5,-360.13"/>
<polygon fill="midnightblue" stroke="midnightblue" points="3319,-397.73 3322.5,-407.73 3326,-397.73 3319,-397.73"/>
</g>
<!-- Node63&#45;&gt;Node4 -->
<g id="edge62" class="edge">
<title>Node63&#45;&gt;Node4</title>
<path fill="none" stroke="midnightblue" d="M2815.12,-400.45C2832.08,-392.87 2848.57,-381.86 2858.5,-366 2885.79,-322.42 2841.96,-259.94 2823.8,-237.2"/>
<polygon fill="midnightblue" stroke="midnightblue" points="2813.61,-397.29 2805.69,-404.32 2816.27,-403.76 2813.61,-397.29"/>
</g>
<!-- Node63&#45;&gt;Node64 -->
<g id="edge63" class="edge">
<title>Node63&#45;&gt;Node64</title>
<path fill="none" stroke="midnightblue" d="M2720.23,-397.3C2702.08,-387.12 2680.18,-374.85 2663.62,-365.58"/>
<polygon fill="midnightblue" stroke="midnightblue" points="2718.9,-400.56 2729.33,-402.4 2722.32,-394.45 2718.9,-400.56"/>
</g>
<!-- Node65 -->
<g id="node49" class="node">
<title>Node65</title>
<g id="a_node49"><a xlink:href="d__particle__copoly_8cpp.html" target="_top" xlink:title=" ">
<polygon fill="white" stroke="black" points="2731.5,-335.5 2731.5,-365.5 2849.5,-365.5 2849.5,-335.5 2731.5,-335.5"/>
<text text-anchor="start" x="2739.5" y="-353.5" font-family="Helvetica,sans-Serif" font-size="10.00">src/d/particle/d_particle</text>
<text text-anchor="middle" x="2790.5" y="-342.5" font-family="Helvetica,sans-Serif" font-size="10.00">_copoly.cpp</text>
</a>
</g>
</g>
<!-- Node63&#45;&gt;Node65 -->
<g id="edge65" class="edge">
<title>Node63&#45;&gt;Node65</title>
<path fill="none" stroke="midnightblue" d="M2767.2,-393.58C2772.37,-384.24 2778.18,-373.75 2782.7,-365.58"/>
<polygon fill="midnightblue" stroke="midnightblue" points="2764.09,-391.95 2762.31,-402.4 2770.22,-395.34 2764.09,-391.95"/>
</g>
<!-- Node64&#45;&gt;Node31 -->
<g id="edge64" class="edge">
<title>Node64&#45;&gt;Node31</title>
<path fill="none" stroke="midnightblue" d="M2650.82,-326.68C2668.56,-295.99 2704.22,-241.82 2749.5,-212 2819.39,-165.98 3065.34,-112.47 3165.54,-92.03"/>
<polygon fill="midnightblue" stroke="midnightblue" points="2647.76,-324.97 2645.89,-335.4 2653.86,-328.42 2647.76,-324.97"/>
</g>
<!-- Node66&#45;&gt;Node30 -->
<g id="edge68" class="edge">
<title>Node66&#45;&gt;Node30</title>
<path fill="none" stroke="midnightblue" d="M3386.65,-129.52C3410.55,-116.55 3438.42,-101.44 3455.51,-92.17"/>
<polygon fill="midnightblue" stroke="midnightblue" points="3384.83,-126.52 3377.71,-134.36 3388.17,-132.67 3384.83,-126.52"/>
</g>
<!-- Node66&#45;&gt;Node23 -->
<g id="edge69" class="edge">
<title>Node66&#45;&gt;Node23</title>
<path fill="none" stroke="midnightblue" d="M3341.5,-124.1C3341.5,-112.53 3341.5,-100.18 3341.5,-92.17"/>
<polygon fill="midnightblue" stroke="midnightblue" points="3338,-124.36 3341.5,-134.36 3345,-124.36 3338,-124.36"/>
</g>
</g>
</svg>
