<?xml version="1.0" encoding="UTF-8" standalone="no"?>
<!DOCTYPE svg PUBLIC "-//W3C//DTD SVG 1.1//EN"
 "http://www.w3.org/Graphics/SVG/1.1/DTD/svg11.dtd">
<!-- Generated by graphviz version 2.50.0 (20220203.2022)
 -->
<!-- Title: include/d/bg/d_bg_s_roof_chk.h Pages: 1 -->
<!--zoomable 296 -->
<svg id="main" version="1.1" xmlns="http://www.w3.org/2000/svg" xmlns:xlink="http://www.w3.org/1999/xlink" xml:space="preserve" onload="init(evt)">
<style type="text/css"><![CDATA[
.edge:hover path { stroke: red; }
.edge:hover polygon { stroke: red; fill: red; }
]]></style>
<script type="text/javascript"><![CDATA[
var edges = document.getElementsByTagName('g');
if (edges && edges.length) {
  for (var i=0;i<edges.length;i++) {
    if (edges[i].id.substr(0,4)=='edge') {
      edges[i].setAttribute('class','edge');
    }
  }
}
]]></script>
        <defs>
                <circle id="rim" cx="0" cy="0" r="7"/>
                <circle id="rim2" cx="0" cy="0" r="3.5"/>
                <g id="zoomPlus">
                        <use xlink:href="#rim" fill="#404040">
                                <set attributeName="fill" to="#808080" begin="zoomplus.mouseover" end="zoomplus.mouseout"/>
                        </use>
                        <path d="M-4,0h8M0,-4v8" fill="none" stroke="white" stroke-width="1.5" pointer-events="none"/>
                </g>
                <g id="zoomMin">
                        <use xlink:href="#rim" fill="#404040">
                                <set attributeName="fill" to="#808080" begin="zoomminus.mouseover" end="zoomminus.mouseout"/>
                        </use>
                        <path d="M-4,0h8" fill="none" stroke="white" stroke-width="1.5" pointer-events="none"/>
                </g>
                <g id="dirArrow">
                        <path fill="none" stroke="white" stroke-width="1.5" d="M0,-3.0v7 M-2.5,-0.5L0,-3.0L2.5,-0.5"/>
                </g>
               <g id="resetDef">
                       <use xlink:href="#rim2" fill="#404040">
                               <set attributeName="fill" to="#808080" begin="reset.mouseover" end="reset.mouseout"/>
                       </use>
               </g>
        </defs>

<script type="text/javascript">
var viewWidth = 838;
var viewHeight = 296;
var sectionId = 'dynsection-0';
</script>
<script xlink:href="svgpan.js"/>
<svg id="graph" class="graph">
<g id="viewport">
<title>include/d/bg/d_bg_s_roof_chk.h</title>
<polygon fill="white" stroke="transparent" points="-4,4 -4,-292 833.96,-292 833.96,4 -4,4"/>
<!-- Node1 -->
<g id="node1" class="node">
<title>Node1</title>
<g id="a_node1"><a xlink:title=" ">
<polygon fill="#bfbfbf" stroke="black" points="222.46,-257.5 222.46,-287.5 326.46,-287.5 326.46,-257.5 222.46,-257.5"/>
<text text-anchor="start" x="230.46" y="-275.5" font-family="Helvetica,sans-Serif" font-size="10.00">include/d/bg/d_bg_s</text>
<text text-anchor="middle" x="274.46" y="-264.5" font-family="Helvetica,sans-Serif" font-size="10.00">_roof_chk.h</text>
</a>
</g>
</g>
<!-- Node2 -->
<g id="node2" class="node">
<title>Node2</title>
<g id="a_node2"><a xlink:href="c__bg__s__chk_8h.html" target="_top" xlink:title=" ">
<polygon fill="white" stroke="black" points="500.46,-56.5 500.46,-86.5 616.46,-86.5 616.46,-56.5 500.46,-56.5"/>
<text text-anchor="start" x="508.46" y="-74.5" font-family="Helvetica,sans-Serif" font-size="10.00">SSystem/SComponent</text>
<text text-anchor="middle" x="558.46" y="-63.5" font-family="Helvetica,sans-Serif" font-size="10.00">/c_bg_s_chk.h</text>
</a>
</g>
</g>
<!-- Node1&#45;&gt;Node2 -->
<g id="edge1" class="edge">
<title>Node1&#45;&gt;Node2</title>
<path fill="none" stroke="midnightblue" d="M294.88,-257.19C344.72,-222.26 472.68,-132.61 529.97,-92.46"/>
<polygon fill="midnightblue" stroke="midnightblue" points="532.03,-95.29 538.22,-86.68 528.02,-89.55 532.03,-95.29"/>
</g>
<!-- Node3 -->
<g id="node3" class="node">
<title>Node3</title>
<g id="a_node3"><a xlink:href="types_8h.html" target="_top" xlink:title=" ">
<polygon fill="white" stroke="black" points="325.96,-0.5 325.96,-19.5 406.96,-19.5 406.96,-0.5 325.96,-0.5"/>
<text text-anchor="middle" x="366.46" y="-7.5" font-family="Helvetica,sans-Serif" font-size="10.00">dolphin/types.h</text>
</a>
</g>
</g>
<!-- Node1&#45;&gt;Node3 -->
<g id="edge21" class="edge">
<title>Node1&#45;&gt;Node3</title>
<path fill="none" stroke="midnightblue" d="M231.22,-257.39C139.67,-225.38 -59.25,-143.24 17.46,-56 36.83,-33.97 223.64,-19.66 315.69,-13.89"/>
<polygon fill="midnightblue" stroke="midnightblue" points="316.13,-17.37 325.9,-13.26 315.7,-10.39 316.13,-17.37"/>
</g>
<!-- Node4 -->
<g id="node4" class="node">
<title>Node4</title>
<g id="a_node4"><a xlink:href="c__bg__s__poly__info_8h.html" target="_top" xlink:title=" ">
<polygon fill="white" stroke="black" points="26.46,-56.5 26.46,-86.5 142.46,-86.5 142.46,-56.5 26.46,-56.5"/>
<text text-anchor="start" x="34.46" y="-74.5" font-family="Helvetica,sans-Serif" font-size="10.00">SSystem/SComponent</text>
<text text-anchor="middle" x="84.46" y="-63.5" font-family="Helvetica,sans-Serif" font-size="10.00">/c_bg_s_poly_info.h</text>
</a>
</g>
</g>
<!-- Node1&#45;&gt;Node4 -->
<g id="edge3" class="edge">
<title>Node1&#45;&gt;Node4</title>
<path fill="none" stroke="midnightblue" d="M253.23,-257.42C239.53,-247.88 221.68,-234.58 207.46,-221 164.71,-180.17 122.42,-125.02 100.29,-94.73"/>
<polygon fill="midnightblue" stroke="midnightblue" points="103.04,-92.56 94.34,-86.52 97.37,-96.67 103.04,-92.56"/>
</g>
<!-- Node5 -->
<g id="node5" class="node">
<title>Node5</title>
<g id="a_node5"><a xlink:href="c__xyz_8h.html" target="_top" xlink:title=" ">
<polygon fill="white" stroke="black" points="216.46,-190.5 216.46,-220.5 332.46,-220.5 332.46,-190.5 216.46,-190.5"/>
<text text-anchor="start" x="224.46" y="-208.5" font-family="Helvetica,sans-Serif" font-size="10.00">SSystem/SComponent</text>
<text text-anchor="middle" x="274.46" y="-197.5" font-family="Helvetica,sans-Serif" font-size="10.00">/c_xyz.h</text>
</a>
</g>
</g>
<!-- Node1&#45;&gt;Node5 -->
<g id="edge5" class="edge">
<title>Node1&#45;&gt;Node5</title>
<path fill="none" stroke="midnightblue" d="M274.46,-257.4C274.46,-249.64 274.46,-239.81 274.46,-230.86"/>
<polygon fill="midnightblue" stroke="midnightblue" points="277.96,-230.58 274.46,-220.58 270.96,-230.58 277.96,-230.58"/>
</g>
<!-- Node10 -->
<g id="node10" class="node">
<title>Node10</title>
<g id="a_node10"><a xlink:href="d__bg__s__chk_8h.html" target="_top" xlink:title=" ">
<polygon fill="white" stroke="black" points="590.46,-196 590.46,-215 688.46,-215 688.46,-196 590.46,-196"/>
<text text-anchor="middle" x="639.46" y="-203" font-family="Helvetica,sans-Serif" font-size="10.00">d/bg/d_bg_s_chk.h</text>
</a>
</g>
</g>
<!-- Node1&#45;&gt;Node10 -->
<g id="edge14" class="edge">
<title>Node1&#45;&gt;Node10</title>
<path fill="none" stroke="midnightblue" d="M326.75,-262.19C394.29,-250.16 511.49,-229.29 581.62,-216.8"/>
<polygon fill="midnightblue" stroke="midnightblue" points="582.38,-220.22 591.62,-215.02 581.16,-213.33 582.38,-220.22"/>
</g>
<!-- Node2&#45;&gt;Node3 -->
<g id="edge2" class="edge">
<title>Node2&#45;&gt;Node3</title>
<path fill="none" stroke="midnightblue" d="M512.95,-56.4C479.63,-46.07 434.96,-32.23 403.75,-22.56"/>
<polygon fill="midnightblue" stroke="midnightblue" points="404.7,-19.19 394.11,-19.57 402.63,-25.87 404.7,-19.19"/>
</g>
<!-- Node4&#45;&gt;Node3 -->
<g id="edge4" class="edge">
<title>Node4&#45;&gt;Node3</title>
<path fill="none" stroke="midnightblue" d="M142.55,-57.9C145.56,-57.26 148.55,-56.62 151.46,-56 207.57,-44.06 271.98,-30.61 315.56,-21.55"/>
<polygon fill="midnightblue" stroke="midnightblue" points="316.54,-24.92 325.62,-19.46 315.12,-18.07 316.54,-24.92"/>
</g>
<!-- Node6 -->
<g id="node6" class="node">
<title>Node6</title>
<g id="a_node6"><a xlink:href="vec_8h.html" target="_top" xlink:title=" ">
<polygon fill="white" stroke="black" points="160.46,-62 160.46,-81 252.46,-81 252.46,-62 160.46,-62"/>
<text text-anchor="middle" x="206.46" y="-69" font-family="Helvetica,sans-Serif" font-size="10.00">dolphin/mtx/vec.h</text>
</a>
</g>
</g>
<!-- Node5&#45;&gt;Node6 -->
<g id="edge6" class="edge">
<title>Node5&#45;&gt;Node6</title>
<path fill="none" stroke="midnightblue" d="M263.85,-190.39C256.71,-180.51 247.37,-166.84 240.46,-154 229.25,-133.18 219.2,-107.87 212.99,-91.03"/>
<polygon fill="midnightblue" stroke="midnightblue" points="216.17,-89.54 209.49,-81.32 209.59,-91.92 216.17,-89.54"/>
</g>
<!-- Node7 -->
<g id="node7" class="node">
<title>Node7</title>
<g id="a_node7"><a xlink:href="global_8h.html" target="_top" xlink:title=" ">
<polygon fill="white" stroke="black" points="249.46,-129 249.46,-148 299.46,-148 299.46,-129 249.46,-129"/>
<text text-anchor="middle" x="274.46" y="-136" font-family="Helvetica,sans-Serif" font-size="10.00">global.h</text>
</a>
</g>
</g>
<!-- Node5&#45;&gt;Node7 -->
<g id="edge8" class="edge">
<title>Node5&#45;&gt;Node7</title>
<path fill="none" stroke="midnightblue" d="M274.46,-190.4C274.46,-181.06 274.46,-168.71 274.46,-158.52"/>
<polygon fill="midnightblue" stroke="midnightblue" points="277.96,-158.19 274.46,-148.19 270.96,-158.19 277.96,-158.19"/>
</g>
<!-- Node8 -->
<g id="node8" class="node">
<title>Node8</title>
<g id="a_node8"><a xlink:href="math_8h.html" target="_top" xlink:title=" ">
<polygon fill="white" stroke="black" points="317.46,-129 317.46,-148 399.46,-148 399.46,-129 317.46,-129"/>
<text text-anchor="middle" x="358.46" y="-136" font-family="Helvetica,sans-Serif" font-size="10.00">MSL_C/math.h</text>
</a>
</g>
</g>
<!-- Node5&#45;&gt;Node8 -->
<g id="edge10" class="edge">
<title>Node5&#45;&gt;Node8</title>
<path fill="none" stroke="midnightblue" d="M292.68,-190.4C306.43,-179.76 325.24,-165.2 339.22,-154.38"/>
<polygon fill="midnightblue" stroke="midnightblue" points="341.45,-157.08 347.22,-148.19 337.17,-151.55 341.45,-157.08"/>
</g>
<!-- Node6&#45;&gt;Node3 -->
<g id="edge7" class="edge">
<title>Node6&#45;&gt;Node3</title>
<path fill="none" stroke="midnightblue" d="M229.38,-61.98C256.83,-51.77 302.97,-34.61 334.05,-23.05"/>
<polygon fill="midnightblue" stroke="midnightblue" points="335.42,-26.28 343.57,-19.51 332.98,-19.71 335.42,-26.28"/>
</g>
<!-- Node7&#45;&gt;Node3 -->
<g id="edge9" class="edge">
<title>Node7&#45;&gt;Node3</title>
<path fill="none" stroke="midnightblue" d="M280.3,-128.83C290.48,-113.83 312.18,-82.12 331.46,-56 338.52,-46.42 346.67,-35.92 353.33,-27.47"/>
<polygon fill="midnightblue" stroke="midnightblue" points="356.15,-29.54 359.61,-19.53 350.66,-25.19 356.15,-29.54"/>
</g>
<!-- Node8&#45;&gt;Node3 -->
<g id="edge13" class="edge">
<title>Node8&#45;&gt;Node3</title>
<path fill="none" stroke="midnightblue" d="M353.16,-128.88C344.66,-113.95 329.7,-82.35 337.46,-56 340.47,-45.76 346.61,-35.66 352.47,-27.63"/>
<polygon fill="midnightblue" stroke="midnightblue" points="355.39,-29.58 358.78,-19.54 349.87,-25.27 355.39,-29.58"/>
</g>
<!-- Node9 -->
<g id="node9" class="node">
<title>Node9</title>
<g id="a_node9"><a xlink:href="float_8h.html" target="_top" xlink:title=" ">
<polygon fill="white" stroke="black" points="346.46,-56.5 346.46,-86.5 482.46,-86.5 482.46,-56.5 346.46,-56.5"/>
<text text-anchor="start" x="354.46" y="-74.5" font-family="Helvetica,sans-Serif" font-size="10.00">MSL_C/MSL_Common/Src</text>
<text text-anchor="middle" x="414.46" y="-63.5" font-family="Helvetica,sans-Serif" font-size="10.00">/float.h</text>
</a>
</g>
</g>
<!-- Node8&#45;&gt;Node9 -->
<g id="edge11" class="edge">
<title>Node8&#45;&gt;Node9</title>
<path fill="none" stroke="midnightblue" d="M366.01,-128.73C373.58,-119.95 385.53,-106.08 395.66,-94.31"/>
<polygon fill="midnightblue" stroke="midnightblue" points="398.44,-96.45 402.32,-86.59 393.14,-91.88 398.44,-96.45"/>
</g>
<!-- Node9&#45;&gt;Node3 -->
<g id="edge12" class="edge">
<title>Node9&#45;&gt;Node3</title>
<path fill="none" stroke="midnightblue" d="M403.08,-56.4C396.1,-47.75 387.14,-36.64 379.83,-27.58"/>
<polygon fill="midnightblue" stroke="midnightblue" points="382.44,-25.24 373.44,-19.66 376.99,-29.64 382.44,-25.24"/>
</g>
<!-- Node10&#45;&gt;Node3 -->
<g id="edge20" class="edge">
<title>Node10&#45;&gt;Node3</title>
<path fill="none" stroke="midnightblue" d="M644.73,-195.96C650.4,-186.22 659.06,-169.63 662.46,-154 671.86,-110.64 676.58,-85.51 643.46,-56 610.82,-26.93 487.86,-16.5 417.22,-12.87"/>
<polygon fill="midnightblue" stroke="midnightblue" points="417.35,-9.37 407.19,-12.38 417.01,-16.36 417.35,-9.37"/>
</g>
<!-- Node11 -->
<g id="node11" class="node">
<title>Node11</title>
<g id="a_node11"><a xlink:href="d__bg__s__grp__pass__chk_8h.html" target="_top" xlink:title=" ">
<polygon fill="white" stroke="black" points="538.96,-123.5 538.96,-153.5 653.96,-153.5 653.96,-123.5 538.96,-123.5"/>
<text text-anchor="start" x="546.96" y="-141.5" font-family="Helvetica,sans-Serif" font-size="10.00">d/bg/d_bg_s_grp_pass</text>
<text text-anchor="middle" x="596.46" y="-130.5" font-family="Helvetica,sans-Serif" font-size="10.00">_chk.h</text>
</a>
</g>
</g>
<!-- Node10&#45;&gt;Node11 -->
<g id="edge15" class="edge">
<title>Node10&#45;&gt;Node11</title>
<path fill="none" stroke="midnightblue" d="M633.66,-195.73C627.96,-187.12 619.02,-173.61 611.33,-161.99"/>
<polygon fill="midnightblue" stroke="midnightblue" points="614.21,-160 605.78,-153.59 608.37,-163.86 614.21,-160"/>
</g>
<!-- Node12 -->
<g id="node12" class="node">
<title>Node12</title>
<g id="a_node12"><a xlink:href="d__bg__s__poly__pass__chk_8h.html" target="_top" xlink:title=" ">
<polygon fill="white" stroke="black" points="710.96,-123.5 710.96,-153.5 829.96,-153.5 829.96,-123.5 710.96,-123.5"/>
<text text-anchor="start" x="718.96" y="-141.5" font-family="Helvetica,sans-Serif" font-size="10.00">d/bg/d_bg_s_poly_pass</text>
<text text-anchor="middle" x="770.46" y="-130.5" font-family="Helvetica,sans-Serif" font-size="10.00">_chk.h</text>
</a>
</g>
</g>
<!-- Node10&#45;&gt;Node12 -->
<g id="edge18" class="edge">
<title>Node10&#45;&gt;Node12</title>
<path fill="none" stroke="midnightblue" d="M656.85,-195.87C676.11,-186.31 707.72,-170.63 732.72,-158.22"/>
<polygon fill="midnightblue" stroke="midnightblue" points="734.53,-161.23 741.93,-153.65 731.42,-154.96 734.53,-161.23"/>
</g>
<!-- Node11&#45;&gt;Node2 -->
<g id="edge16" class="edge">
<title>Node11&#45;&gt;Node2</title>
<path fill="none" stroke="midnightblue" d="M588.21,-123.4C583.43,-115.22 577.29,-104.73 571.84,-95.39"/>
<polygon fill="midnightblue" stroke="midnightblue" points="574.75,-93.44 566.68,-86.58 568.71,-96.98 574.75,-93.44"/>
</g>
<!-- Node11&#45;&gt;Node3 -->
<g id="edge17" class="edge">
<title>Node11&#45;&gt;Node3</title>
<path fill="none" stroke="midnightblue" d="M609.14,-123.32C623.28,-105.76 642.08,-75.77 625.46,-56 599.36,-24.98 484.78,-15.34 417.07,-12.35"/>
<polygon fill="midnightblue" stroke="midnightblue" points="417.17,-8.85 407.04,-11.94 416.88,-15.84 417.17,-8.85"/>
</g>
<!-- Node12&#45;&gt;Node3 -->
<g id="edge19" class="edge">
<title>Node12&#45;&gt;Node3</title>
<path fill="none" stroke="midnightblue" d="M762.01,-123.19C750.03,-104.31 726.22,-71.67 696.46,-56 649.08,-31.06 497.56,-18.65 417.36,-13.7"/>
<polygon fill="midnightblue" stroke="midnightblue" points="417.2,-10.18 407.01,-13.08 416.78,-17.17 417.2,-10.18"/>
</g>
</g>
</svg>
        <g id="navigator" transform="translate(0 0)" fill="#404254">
                <rect fill="#f2f5e9" fill-opacity="0.5" stroke="#606060" stroke-width=".5" x="0" y="0" width="60" height="60"/>
                <use id="zoomplus" xlink:href="#zoomPlus" x="17" y="9" onmousedown="handleZoom(evt,'in')"/>
                <use id="zoomminus" xlink:href="#zoomMin" x="42" y="9" onmousedown="handleZoom(evt,'out')"/>
                <use id="reset" xlink:href="#resetDef" x="30" y="36" onmousedown="handleReset()"/>
                <g id="arrowUp" xlink:href="#dirArrow" transform="translate(30 24)" onmousedown="handlePan(0,-1)">
                  <use xlink:href="#rim" fill="#404040">
                        <set attributeName="fill" to="#808080" begin="arrowUp.mouseover" end="arrowUp.mouseout"/>
                  </use>
                  <path fill="none" stroke="white" stroke-width="1.5" d="M0,-3.0v7 M-2.5,-0.5L0,-3.0L2.5,-0.5"/>
                </g>
                <g id="arrowRight" xlink:href="#dirArrow" transform="rotate(90) translate(36 -43)" onmousedown="handlePan(1,0)">
                  <use xlink:href="#rim" fill="#404040">
                        <set attributeName="fill" to="#808080" begin="arrowRight.mouseover" end="arrowRight.mouseout"/>
                  </use>
                  <path fill="none" stroke="white" stroke-width="1.5" d="M0,-3.0v7 M-2.5,-0.5L0,-3.0L2.5,-0.5"/>
                </g>
                <g id="arrowDown" xlink:href="#dirArrow" transform="rotate(180) translate(-30 -48)" onmousedown="handlePan(0,1)">
                  <use xlink:href="#rim" fill="#404040">
                        <set attributeName="fill" to="#808080" begin="arrowDown.mouseover" end="arrowDown.mouseout"/>
                  </use>
                  <path fill="none" stroke="white" stroke-width="1.5" d="M0,-3.0v7 M-2.5,-0.5L0,-3.0L2.5,-0.5"/>
                </g>
                <g id="arrowLeft" xlink:href="#dirArrow" transform="rotate(270) translate(-36 17)" onmousedown="handlePan(-1,0)">
                  <use xlink:href="#rim" fill="#404040">
                        <set attributeName="fill" to="#808080" begin="arrowLeft.mouseover" end="arrowLeft.mouseout"/>
                  </use>
                  <path fill="none" stroke="white" stroke-width="1.5" d="M0,-3.0v7 M-2.5,-0.5L0,-3.0L2.5,-0.5"/>
                </g>
        </g>
        <svg viewBox="0 0 15 15" width="100%" height="30px" preserveAspectRatio="xMaxYMin meet">
         <g id="arrow_out" transform="scale(0.3 0.3)">
          <a xlink:href="d__bg__s__roof__chk_8h__incl_org.svg" target="_base">
           <rect id="button" ry="5" rx="5" y="6" x="6" height="38" width="38"
                fill="#f2f5e9" fill-opacity="0.5" stroke="#606060" stroke-width="1.0"/>
           <path id="arrow"
             d="M 11.500037,31.436501 C 11.940474,20.09759 22.043105,11.32322 32.158766,21.979434 L 37.068811,17.246167 C 37.068811,17.246167 37.088388,32 37.088388,32 L 22.160133,31.978069 C 22.160133,31.978069 26.997745,27.140456 26.997745,27.140456 C 18.528582,18.264221 13.291696,25.230495 11.500037,31.436501 z"
             style="fill:#404040;"/>
          </a>
         </g>
        </svg>
</svg>
