<?xml version="1.0" encoding="UTF-8" standalone="no"?>
<!DOCTYPE svg PUBLIC "-//W3C//DTD SVG 1.1//EN"
 "http://www.w3.org/Graphics/SVG/1.1/DTD/svg11.dtd">
<!-- Generated by graphviz version 7.0.4 (20221203.1631)
 -->
<!-- Title: include/d/bg/d_bg_s_wtr_chk.h Pages: 1 -->
<svg width="2479pt" height="577pt"
 viewBox="0.00 0.00 2478.60 577.00" xmlns="http://www.w3.org/2000/svg" xmlns:xlink="http://www.w3.org/1999/xlink">
<g id="graph0" class="graph" transform="scale(1 1) rotate(0) translate(4 573)">
<title>include/d/bg/d_bg_s_wtr_chk.h</title>
<!-- Node1 -->
<g id="node1" class="node">
<title>Node1</title>
<g id="a_node1"><a xlink:title=" ">
<polygon fill="#999999" stroke="#666666" points="2130.6,-569 2026.6,-569 2026.6,-539 2130.6,-539 2130.6,-569"/>
<text text-anchor="start" x="2034.6" y="-557" font-family="Helvetica,sans-Serif" font-size="10.00">include/d/bg/d_bg_s</text>
<text text-anchor="middle" x="2078.6" y="-546" font-family="Helvetica,sans-Serif" font-size="10.00">_wtr_chk.h</text>
</a>
</g>
</g>
<!-- Node2 -->
<g id="node2" class="node">
<title>Node2</title>
<g id="a_node2"><a xlink:href="d__bg__s__acch_8h.html" target="_top" xlink:title=" ">
<polygon fill="white" stroke="#666666" points="2069.6,-503 1965.6,-503 1965.6,-473 2069.6,-473 2069.6,-503"/>
<text text-anchor="start" x="1973.6" y="-491" font-family="Helvetica,sans-Serif" font-size="10.00">include/d/bg/d_bg_s</text>
<text text-anchor="middle" x="2017.6" y="-480" font-family="Helvetica,sans-Serif" font-size="10.00">_acch.h</text>
</a>
</g>
</g>
<!-- Node1&#45;&gt;Node2 -->
<g id="edge1" class="edge">
<title>Node1&#45;&gt;Node2</title>
<path fill="none" stroke="#63b8ff" d="M2057.18,-530.53C2048.51,-521.43 2038.76,-511.19 2031.1,-503.16"/>
<polygon fill="#63b8ff" stroke="#63b8ff" points="2054.59,-532.88 2064.02,-537.7 2059.66,-528.05 2054.59,-532.88"/>
</g>
<!-- Node136 -->
<g id="node50" class="node">
<title>Node136</title>
<g id="a_node50"><a xlink:href="d__bg__s__wtr__chk_8cpp.html" target="_top" xlink:title=" ">
<polygon fill="white" stroke="#666666" points="2193.1,-503 2088.1,-503 2088.1,-473 2193.1,-473 2193.1,-503"/>
<text text-anchor="start" x="2096.1" y="-491" font-family="Helvetica,sans-Serif" font-size="10.00">src/d/bg/d_bg_s_wtr</text>
<text text-anchor="middle" x="2140.6" y="-480" font-family="Helvetica,sans-Serif" font-size="10.00">_chk.cpp</text>
</a>
</g>
</g>
<!-- Node1&#45;&gt;Node136 -->
<g id="edge72" class="edge">
<title>Node1&#45;&gt;Node136</title>
<path fill="none" stroke="#63b8ff" d="M2100.1,-530.81C2108.99,-521.64 2119.02,-511.28 2126.88,-503.16"/>
<polygon fill="#63b8ff" stroke="#63b8ff" points="2097.86,-528.09 2093.42,-537.71 2102.89,-532.96 2097.86,-528.09"/>
</g>
<!-- Node3 -->
<g id="node3" class="node">
<title>Node3</title>
<g id="a_node3"><a xlink:href="d__a__itembase_8h.html" target="_top" xlink:title=" ">
<polygon fill="white" stroke="#666666" points="556.1,-299.5 421.1,-299.5 421.1,-280.5 556.1,-280.5 556.1,-299.5"/>
<text text-anchor="middle" x="488.6" y="-287.5" font-family="Helvetica,sans-Serif" font-size="10.00">include/d/a/d_a_itembase.h</text>
</a>
</g>
</g>
<!-- Node2&#45;&gt;Node3 -->
<g id="edge2" class="edge">
<title>Node2&#45;&gt;Node3</title>
<path fill="none" stroke="#63b8ff" d="M1954.3,-479.61C1872.73,-470.03 1726.54,-452.7 1601.6,-437 1204.24,-387.06 727.64,-323.22 555.06,-299.97"/>
<polygon fill="#63b8ff" stroke="#63b8ff" points="1953.53,-483.04 1963.87,-480.73 1954.35,-476.09 1953.53,-483.04"/>
</g>
<!-- Node119 -->
<g id="node32" class="node">
<title>Node119</title>
<g id="a_node32"><a xlink:href="d__bg__w_8h.html" target="_top" xlink:title=" ">
<polygon fill="white" stroke="#666666" points="1565.1,-365.5 1452.1,-365.5 1452.1,-346.5 1565.1,-346.5 1565.1,-365.5"/>
<text text-anchor="middle" x="1508.6" y="-353.5" font-family="Helvetica,sans-Serif" font-size="10.00">include/d/bg/d_bg_w.h</text>
</a>
</g>
</g>
<!-- Node2&#45;&gt;Node119 -->
<g id="edge38" class="edge">
<title>Node2&#45;&gt;Node119</title>
<path fill="none" stroke="#63b8ff" d="M1954.16,-483.29C1884.93,-477.96 1771.45,-465.42 1677.6,-437 1617.64,-418.84 1552.04,-382.59 1523.38,-365.85"/>
<polygon fill="#63b8ff" stroke="#63b8ff" points="1953.56,-486.76 1963.79,-484 1954.07,-479.78 1953.56,-486.76"/>
</g>
<!-- Node122 -->
<g id="node36" class="node">
<title>Node122</title>
<g id="a_node36"><a xlink:href="d__bg__s__acch_8cpp.html" target="_top" xlink:title=" ">
<polygon fill="white" stroke="#666666" points="2062.1,-233.5 1931.1,-233.5 1931.1,-214.5 2062.1,-214.5 2062.1,-233.5"/>
<text text-anchor="middle" x="1996.6" y="-221.5" font-family="Helvetica,sans-Serif" font-size="10.00">src/d/bg/d_bg_s_acch.cpp</text>
</a>
</g>
</g>
<!-- Node2&#45;&gt;Node122 -->
<g id="edge71" class="edge">
<title>Node2&#45;&gt;Node122</title>
<path fill="none" stroke="#63b8ff" d="M2027.53,-462.11C2030.28,-454.2 2032.96,-445.34 2034.6,-437 2042.84,-395.1 2045.98,-383.06 2038.6,-341 2031.28,-299.23 2010.16,-252.68 2000.97,-233.73"/>
<polygon fill="#63b8ff" stroke="#63b8ff" points="2024.27,-460.82 2024.08,-471.42 2030.83,-463.26 2024.27,-460.82"/>
</g>
<!-- Node126 -->
<g id="node40" class="node">
<title>Node126</title>
<g id="a_node40"><a xlink:href="d__bg__w__base_8h.html" target="_top" xlink:title=" ">
<polygon fill="white" stroke="#666666" points="1792.6,-437 1686.6,-437 1686.6,-407 1792.6,-407 1792.6,-437"/>
<text text-anchor="start" x="1694.6" y="-425" font-family="Helvetica,sans-Serif" font-size="10.00">include/d/bg/d_bg_w</text>
<text text-anchor="middle" x="1739.6" y="-414" font-family="Helvetica,sans-Serif" font-size="10.00">_base.h</text>
</a>
</g>
</g>
<!-- Node2&#45;&gt;Node126 -->
<g id="edge53" class="edge">
<title>Node2&#45;&gt;Node126</title>
<path fill="none" stroke="#63b8ff" d="M1954.28,-472.42C1905.6,-461.22 1839.11,-445.91 1793.08,-435.31"/>
<polygon fill="#63b8ff" stroke="#63b8ff" points="1953.31,-475.79 1963.84,-474.62 1954.88,-468.97 1953.31,-475.79"/>
</g>
<!-- Node130 -->
<g id="node44" class="node">
<title>Node130</title>
<g id="a_node44"><a xlink:href="d__bomb_8h.html" target="_top" xlink:title=" ">
<polygon fill="white" stroke="#666666" points="2402.1,-431.5 2301.1,-431.5 2301.1,-412.5 2402.1,-412.5 2402.1,-431.5"/>
<text text-anchor="middle" x="2351.6" y="-419.5" font-family="Helvetica,sans-Serif" font-size="10.00">include/d/d_bomb.h</text>
</a>
</g>
</g>
<!-- Node2&#45;&gt;Node130 -->
<g id="edge58" class="edge">
<title>Node2&#45;&gt;Node130</title>
<path fill="none" stroke="#63b8ff" d="M2081.17,-472.73C2164.15,-455.89 2248.48,-440.82 2300.85,-431.7"/>
<polygon fill="#63b8ff" stroke="#63b8ff" points="2080.58,-469.28 2071.49,-474.71 2081.98,-476.14 2080.58,-469.28"/>
</g>
<!-- Node132 -->
<g id="node46" class="node">
<title>Node132</title>
<g id="a_node46"><a xlink:href="d__particle__copoly_8h.html" target="_top" xlink:title=" ">
<polygon fill="white" stroke="#666666" points="2025.6,-437 1923.6,-437 1923.6,-407 2025.6,-407 2025.6,-437"/>
<text text-anchor="start" x="1931.6" y="-425" font-family="Helvetica,sans-Serif" font-size="10.00">include/d/particle</text>
<text text-anchor="middle" x="1974.6" y="-414" font-family="Helvetica,sans-Serif" font-size="10.00">/d_particle_copoly.h</text>
</a>
</g>
</g>
<!-- Node2&#45;&gt;Node132 -->
<g id="edge61" class="edge">
<title>Node2&#45;&gt;Node132</title>
<path fill="none" stroke="#63b8ff" d="M2001.74,-463.39C1995.83,-454.59 1989.29,-444.86 1984.12,-437.16"/>
<polygon fill="#63b8ff" stroke="#63b8ff" points="1998.74,-465.19 2007.22,-471.54 2004.55,-461.29 1998.74,-465.19"/>
</g>
<!-- Node133 -->
<g id="node47" class="node">
<title>Node133</title>
<g id="a_node47"><a xlink:href="d__a__boomerang_8h.html" target="_top" xlink:title=" ">
<polygon fill="white" stroke="#666666" points="2273.1,-371 2124.1,-371 2124.1,-341 2273.1,-341 2273.1,-371"/>
<text text-anchor="start" x="2132.1" y="-359" font-family="Helvetica,sans-Serif" font-size="10.00">include/rel/d/a/d_a</text>
<text text-anchor="middle" x="2198.6" y="-348" font-family="Helvetica,sans-Serif" font-size="10.00">_boomerang/d_a_boomerang.h</text>
</a>
</g>
</g>
<!-- Node2&#45;&gt;Node133 -->
<g id="edge66" class="edge">
<title>Node2&#45;&gt;Node133</title>
<path fill="none" stroke="#63b8ff" d="M2058,-467.66C2074.52,-459.09 2093.5,-448.38 2109.6,-437 2138.28,-416.74 2167.88,-388.37 2184.69,-371.42"/>
<polygon fill="#63b8ff" stroke="#63b8ff" points="2056.75,-464.37 2049.42,-472.02 2059.92,-470.61 2056.75,-464.37"/>
</g>
<!-- Node135 -->
<g id="node49" class="node">
<title>Node135</title>
<g id="a_node49"><a xlink:href="d__a__obj__carry_8h.html" target="_top" xlink:title=" ">
<polygon fill="white" stroke="#666666" points="2154.6,-173 2038.6,-173 2038.6,-132 2154.6,-132 2154.6,-173"/>
<text text-anchor="start" x="2046.6" y="-161" font-family="Helvetica,sans-Serif" font-size="10.00">include/rel/d/a/obj</text>
<text text-anchor="start" x="2046.6" y="-150" font-family="Helvetica,sans-Serif" font-size="10.00">/d_a_obj_carry/d_a_obj</text>
<text text-anchor="middle" x="2096.6" y="-139" font-family="Helvetica,sans-Serif" font-size="10.00">_carry.h</text>
</a>
</g>
</g>
<!-- Node2&#45;&gt;Node135 -->
<g id="edge67" class="edge">
<title>Node2&#45;&gt;Node135</title>
<path fill="none" stroke="#63b8ff" d="M2041.39,-464.58C2064.33,-440.42 2095.6,-399.66 2095.6,-357 2095.6,-357 2095.6,-357 2095.6,-289 2095.6,-247.83 2096.07,-199.63 2096.37,-173.25"/>
<polygon fill="#63b8ff" stroke="#63b8ff" points="2038.98,-462.04 2034.45,-471.62 2043.96,-466.95 2038.98,-462.04"/>
</g>
<!-- Node4 -->
<g id="node4" class="node">
<title>Node4</title>
<g id="a_node4"><a xlink:href="d__a__item__static_8h.html" target="_top" xlink:title=" ">
<polygon fill="white" stroke="#666666" points="588.1,-167.5 481.1,-167.5 481.1,-137.5 588.1,-137.5 588.1,-167.5"/>
<text text-anchor="start" x="489.1" y="-155.5" font-family="Helvetica,sans-Serif" font-size="10.00">include/d/a/d_a_item</text>
<text text-anchor="middle" x="534.6" y="-144.5" font-family="Helvetica,sans-Serif" font-size="10.00">_static.h</text>
</a>
</g>
</g>
<!-- Node3&#45;&gt;Node4 -->
<g id="edge3" class="edge">
<title>Node3&#45;&gt;Node4</title>
<path fill="none" stroke="#63b8ff" d="M500.15,-270.56C505.5,-261.36 511.54,-249.9 515.6,-239 524.64,-214.78 530.05,-185.02 532.67,-167.76"/>
<polygon fill="#63b8ff" stroke="#63b8ff" points="497.32,-268.48 495.15,-278.85 503.31,-272.09 497.32,-268.48"/>
</g>
<!-- Node8 -->
<g id="node8" class="node">
<title>Node8</title>
<g id="a_node8"><a xlink:href="d__a__itembase__static_8h.html" target="_top" xlink:title=" ">
<polygon fill="white" stroke="#666666" points="506.6,-239 378.6,-239 378.6,-209 506.6,-209 506.6,-239"/>
<text text-anchor="start" x="386.6" y="-227" font-family="Helvetica,sans-Serif" font-size="10.00">include/d/a/d_a_itembase</text>
<text text-anchor="middle" x="442.6" y="-216" font-family="Helvetica,sans-Serif" font-size="10.00">_static.h</text>
</a>
</g>
</g>
<!-- Node3&#45;&gt;Node8 -->
<g id="edge7" class="edge">
<title>Node3&#45;&gt;Node8</title>
<path fill="none" stroke="#63b8ff" d="M475.67,-271.01C468.45,-260.96 459.57,-248.61 452.83,-239.23"/>
<polygon fill="#63b8ff" stroke="#63b8ff" points="472.65,-272.79 481.32,-278.87 478.33,-268.71 472.65,-272.79"/>
</g>
<!-- Node10 -->
<g id="node10" class="node">
<title>Node10</title>
<g id="a_node10"><a xlink:href="d__a__shop__item__static_8h.html" target="_top" xlink:title=" ">
<polygon fill="white" stroke="#666666" points="274.1,-239 165.1,-239 165.1,-209 274.1,-209 274.1,-239"/>
<text text-anchor="start" x="173.1" y="-227" font-family="Helvetica,sans-Serif" font-size="10.00">include/d/a/d_a_shop</text>
<text text-anchor="middle" x="219.6" y="-216" font-family="Helvetica,sans-Serif" font-size="10.00">_item_static.h</text>
</a>
</g>
</g>
<!-- Node3&#45;&gt;Node10 -->
<g id="edge10" class="edge">
<title>Node3&#45;&gt;Node10</title>
<path fill="none" stroke="#63b8ff" d="M439.88,-277.41C393.19,-266.3 322.84,-249.56 274.26,-238"/>
<polygon fill="#63b8ff" stroke="#63b8ff" points="438.91,-280.77 449.45,-279.68 440.53,-273.96 438.91,-280.77"/>
</g>
<!-- Node17 -->
<g id="node15" class="node">
<title>Node17</title>
<g id="a_node15"><a xlink:href="d__event_8h.html" target="_top" xlink:title=" ">
<polygon fill="white" stroke="#666666" points="700.6,-233.5 572.6,-233.5 572.6,-214.5 700.6,-214.5 700.6,-233.5"/>
<text text-anchor="middle" x="636.6" y="-221.5" font-family="Helvetica,sans-Serif" font-size="10.00">include/d/event/d_event.h</text>
</a>
</g>
</g>
<!-- Node3&#45;&gt;Node17 -->
<g id="edge15" class="edge">
<title>Node3&#45;&gt;Node17</title>
<path fill="none" stroke="#63b8ff" d="M519.59,-275.6C548.63,-263.04 591.21,-244.63 616.2,-233.82"/>
<polygon fill="#63b8ff" stroke="#63b8ff" points="518.36,-272.32 510.57,-279.5 521.14,-278.74 518.36,-272.32"/>
</g>
<!-- Node82 -->
<g id="node24" class="node">
<title>Node82</title>
<g id="a_node24"><a xlink:href="d__a__itembase_8cpp.html" target="_top" xlink:title=" ">
<polygon fill="white" stroke="#666666" points="557.6,-90.5 429.6,-90.5 429.6,-71.5 557.6,-71.5 557.6,-90.5"/>
<text text-anchor="middle" x="493.6" y="-78.5" font-family="Helvetica,sans-Serif" font-size="10.00">src/d/a/d_a_itembase.cpp</text>
</a>
</g>
</g>
<!-- Node3&#45;&gt;Node82 -->
<g id="edge37" class="edge">
<title>Node3&#45;&gt;Node82</title>
<path fill="none" stroke="#63b8ff" d="M435.53,-276.66C412.76,-269.06 387.38,-257.18 369.6,-239 335.39,-204.01 314.99,-171.7 343.6,-132 356.12,-114.63 409.09,-99.86 448.55,-90.98"/>
<polygon fill="#63b8ff" stroke="#63b8ff" points="434.41,-279.98 445,-279.61 436.49,-273.3 434.41,-279.98"/>
</g>
<!-- Node5 -->
<g id="node5" class="node">
<title>Node5</title>
<g id="a_node5"><a xlink:href="d__a__obj__item_8h.html" target="_top" xlink:title=" ">
<polygon fill="white" stroke="#666666" points="411.1,-96 310.1,-96 310.1,-66 411.1,-66 411.1,-96"/>
<text text-anchor="start" x="318.1" y="-84" font-family="Helvetica,sans-Serif" font-size="10.00">include/d/a/d_a_obj</text>
<text text-anchor="middle" x="360.6" y="-73" font-family="Helvetica,sans-Serif" font-size="10.00">_item.h</text>
</a>
</g>
</g>
<!-- Node4&#45;&gt;Node5 -->
<g id="edge4" class="edge">
<title>Node4&#45;&gt;Node5</title>
<path fill="none" stroke="#63b8ff" d="M487.96,-132.87C459.28,-121.41 423.08,-106.95 396.61,-96.38"/>
<polygon fill="#63b8ff" stroke="#63b8ff" points="486.56,-136.08 497.15,-136.54 489.16,-129.58 486.56,-136.08"/>
</g>
<!-- Node7 -->
<g id="node7" class="node">
<title>Node7</title>
<g id="a_node7"><a xlink:href="d__a__item__static_8cpp.html" target="_top" xlink:title=" ">
<polygon fill="white" stroke="#666666" points="292.1,-90.5 155.1,-90.5 155.1,-71.5 292.1,-71.5 292.1,-90.5"/>
<text text-anchor="middle" x="223.6" y="-78.5" font-family="Helvetica,sans-Serif" font-size="10.00">src/d/a/d_a_item_static.cpp</text>
</a>
</g>
</g>
<!-- Node4&#45;&gt;Node7 -->
<g id="edge6" class="edge">
<title>Node4&#45;&gt;Node7</title>
<path fill="none" stroke="#63b8ff" d="M479.02,-133.96C476.52,-133.28 474.04,-132.62 471.6,-132 434.36,-122.51 332.15,-102.63 271.19,-91"/>
<polygon fill="#63b8ff" stroke="#63b8ff" points="477.99,-137.31 488.57,-136.68 479.9,-130.57 477.99,-137.31"/>
</g>
<!-- Node6 -->
<g id="node6" class="node">
<title>Node6</title>
<g id="a_node6"><a xlink:href="d__a__obj__item_8cpp.html" target="_top" xlink:title=" ">
<polygon fill="white" stroke="#666666" points="1187.1,-24.5 1062.1,-24.5 1062.1,-5.5 1187.1,-5.5 1187.1,-24.5"/>
<text text-anchor="middle" x="1124.6" y="-12.5" font-family="Helvetica,sans-Serif" font-size="10.00">src/d/a/d_a_obj_item.cpp</text>
</a>
</g>
</g>
<!-- Node5&#45;&gt;Node6 -->
<g id="edge5" class="edge">
<title>Node5&#45;&gt;Node6</title>
<path fill="none" stroke="#63b8ff" d="M422.66,-65.87C663.86,-30.19 939.88,-20.05 1061.61,-17.14"/>
<polygon fill="#63b8ff" stroke="#63b8ff" points="422.43,-62.36 413.06,-67.31 423.47,-69.29 422.43,-62.36"/>
</g>
<!-- Node8&#45;&gt;Node4 -->
<g id="edge8" class="edge">
<title>Node8&#45;&gt;Node4</title>
<path fill="none" stroke="#63b8ff" d="M470.74,-201.75C485.27,-190.77 502.62,-177.66 515.57,-167.88"/>
<polygon fill="#63b8ff" stroke="#63b8ff" points="468.74,-198.87 462.87,-207.69 472.96,-204.45 468.74,-198.87"/>
</g>
<!-- Node9 -->
<g id="node9" class="node">
<title>Node9</title>
<g id="a_node9"><a xlink:href="d__a__itembase__static_8cpp.html" target="_top" xlink:title=" ">
<polygon fill="white" stroke="#666666" points="462.6,-167.5 352.6,-167.5 352.6,-137.5 462.6,-137.5 462.6,-167.5"/>
<text text-anchor="start" x="360.6" y="-155.5" font-family="Helvetica,sans-Serif" font-size="10.00">src/d/a/d_a_itembase</text>
<text text-anchor="middle" x="407.6" y="-144.5" font-family="Helvetica,sans-Serif" font-size="10.00">_static.cpp</text>
</a>
</g>
</g>
<!-- Node8&#45;&gt;Node9 -->
<g id="edge9" class="edge">
<title>Node8&#45;&gt;Node9</title>
<path fill="none" stroke="#63b8ff" d="M430.3,-198.56C425.13,-188.3 419.3,-176.73 414.85,-167.88"/>
<polygon fill="#63b8ff" stroke="#63b8ff" points="427.05,-199.89 434.67,-207.25 433.3,-196.74 427.05,-199.89"/>
</g>
<!-- Node11 -->
<g id="node11" class="node">
<title>Node11</title>
<g id="a_node11"><a xlink:href="d__shop__item__ctrl_8h.html" target="_top" xlink:title=" ">
<polygon fill="white" stroke="#666666" points="133.6,-167.5 19.6,-167.5 19.6,-137.5 133.6,-137.5 133.6,-167.5"/>
<text text-anchor="start" x="27.6" y="-155.5" font-family="Helvetica,sans-Serif" font-size="10.00">include/d/shop/d_shop</text>
<text text-anchor="middle" x="76.6" y="-144.5" font-family="Helvetica,sans-Serif" font-size="10.00">_item_ctrl.h</text>
</a>
</g>
</g>
<!-- Node10&#45;&gt;Node11 -->
<g id="edge11" class="edge">
<title>Node10&#45;&gt;Node11</title>
<path fill="none" stroke="#63b8ff" d="M179.71,-203.61C156.39,-192.28 127.47,-178.22 106.2,-167.88"/>
<polygon fill="#63b8ff" stroke="#63b8ff" points="178.09,-206.71 188.61,-207.94 181.15,-200.42 178.09,-206.71"/>
</g>
<!-- Node16 -->
<g id="node14" class="node">
<title>Node16</title>
<g id="a_node14"><a xlink:href="d__a__shop__item__static_8cpp.html" target="_top" xlink:title=" ">
<polygon fill="white" stroke="#666666" points="277.6,-167.5 161.6,-167.5 161.6,-137.5 277.6,-137.5 277.6,-167.5"/>
<text text-anchor="start" x="169.6" y="-155.5" font-family="Helvetica,sans-Serif" font-size="10.00">src/d/a/d_a_shop_item</text>
<text text-anchor="middle" x="219.6" y="-144.5" font-family="Helvetica,sans-Serif" font-size="10.00">_static.cpp</text>
</a>
</g>
</g>
<!-- Node10&#45;&gt;Node16 -->
<g id="edge14" class="edge">
<title>Node10&#45;&gt;Node16</title>
<path fill="none" stroke="#63b8ff" d="M219.6,-197.26C219.6,-187.33 219.6,-176.36 219.6,-167.88"/>
<polygon fill="#63b8ff" stroke="#63b8ff" points="216.1,-197.09 219.6,-207.09 223.1,-197.09 216.1,-197.09"/>
</g>
<!-- Node12 -->
<g id="node12" class="node">
<title>Node12</title>
<g id="a_node12"><a xlink:href="d__shop__system_8h.html" target="_top" xlink:title=" ">
<polygon fill="#fff0f0" stroke="red" points="544.6,-30 430.6,-30 430.6,0 544.6,0 544.6,-30"/>
<text text-anchor="start" x="438.6" y="-18" font-family="Helvetica,sans-Serif" font-size="10.00">include/d/shop/d_shop</text>
<text text-anchor="middle" x="487.6" y="-7" font-family="Helvetica,sans-Serif" font-size="10.00">_system.h</text>
</a>
</g>
</g>
<!-- Node11&#45;&gt;Node12 -->
<g id="edge12" class="edge">
<title>Node11&#45;&gt;Node12</title>
<path fill="none" stroke="#63b8ff" d="M41.36,-131.15C15.2,-113.54 -12.84,-87.57 6.6,-66 34.54,-35.01 309.02,-22 430.39,-17.73"/>
<polygon fill="#63b8ff" stroke="#63b8ff" points="39.24,-133.95 49.55,-136.42 43.03,-128.06 39.24,-133.95"/>
</g>
<!-- Node15 -->
<g id="node13" class="node">
<title>Node15</title>
<g id="a_node13"><a xlink:href="d__shop__item__ctrl_8cpp.html" target="_top" xlink:title=" ">
<polygon fill="white" stroke="#666666" points="137.1,-96 16.1,-96 16.1,-66 137.1,-66 137.1,-96"/>
<text text-anchor="start" x="24.1" y="-84" font-family="Helvetica,sans-Serif" font-size="10.00">src/d/shop/d_shop_item</text>
<text text-anchor="middle" x="76.6" y="-73" font-family="Helvetica,sans-Serif" font-size="10.00">_ctrl.cpp</text>
</a>
</g>
</g>
<!-- Node11&#45;&gt;Node15 -->
<g id="edge13" class="edge">
<title>Node11&#45;&gt;Node15</title>
<path fill="none" stroke="#63b8ff" d="M76.6,-125.76C76.6,-115.83 76.6,-104.86 76.6,-96.38"/>
<polygon fill="#63b8ff" stroke="#63b8ff" points="73.1,-125.59 76.6,-135.59 80.1,-125.59 73.1,-125.59"/>
</g>
<!-- Node18 -->
<g id="node16" class="node">
<title>Node18</title>
<g id="a_node16"><a xlink:href="d__com__inf__game_8h.html" target="_top" xlink:title=" ">
<polygon fill="#fff0f0" stroke="red" points="1568.6,-167.5 1458.6,-167.5 1458.6,-137.5 1568.6,-137.5 1568.6,-167.5"/>
<text text-anchor="start" x="1466.6" y="-155.5" font-family="Helvetica,sans-Serif" font-size="10.00">include/d/com/d_com</text>
<text text-anchor="middle" x="1513.6" y="-144.5" font-family="Helvetica,sans-Serif" font-size="10.00">_inf_game.h</text>
</a>
</g>
</g>
<!-- Node17&#45;&gt;Node18 -->
<g id="edge16" class="edge">
<title>Node17&#45;&gt;Node18</title>
<path fill="none" stroke="#63b8ff" d="M712.38,-217C885.51,-203.28 1306.76,-169.89 1458.22,-157.89"/>
<polygon fill="#63b8ff" stroke="#63b8ff" points="712.29,-213.49 702.6,-217.77 712.85,-220.47 712.29,-213.49"/>
</g>
<!-- Node58 -->
<g id="node30" class="node">
<title>Node58</title>
<g id="a_node30"><a xlink:href="d__event_8cpp.html" target="_top" xlink:title=" ">
<polygon fill="white" stroke="#666666" points="697.1,-90.5 576.1,-90.5 576.1,-71.5 697.1,-71.5 697.1,-90.5"/>
<text text-anchor="middle" x="636.6" y="-78.5" font-family="Helvetica,sans-Serif" font-size="10.00">src/d/event/d_event.cpp</text>
</a>
</g>
</g>
<!-- Node17&#45;&gt;Node58 -->
<g id="edge36" class="edge">
<title>Node17&#45;&gt;Node58</title>
<path fill="none" stroke="#63b8ff" d="M636.6,-203.06C636.6,-171.94 636.6,-113.07 636.6,-90.82"/>
<polygon fill="#63b8ff" stroke="#63b8ff" points="633.1,-202.67 636.6,-212.67 640.1,-202.67 633.1,-202.67"/>
</g>
<!-- Node18&#45;&gt;Node6 -->
<g id="edge28" class="edge">
<title>Node18&#45;&gt;Node6</title>
<path fill="none" stroke="#63b8ff" d="M1455.41,-134.36C1451.77,-133.51 1448.14,-132.71 1444.6,-132 1378.76,-118.83 1194.97,-140.41 1144.6,-96 1123.88,-77.73 1123.04,-41.54 1123.88,-24.83"/>
<polygon fill="#63b8ff" stroke="#63b8ff" points="1454.31,-137.7 1464.86,-136.72 1456.01,-130.91 1454.31,-137.7"/>
</g>
<!-- Node19 -->
<g id="node17" class="node">
<title>Node19</title>
<g id="a_node17"><a xlink:href="d__a__npc_8h.html" target="_top" xlink:title=" ">
<polygon fill="#fff0f0" stroke="red" points="1096.1,-90.5 985.1,-90.5 985.1,-71.5 1096.1,-71.5 1096.1,-90.5"/>
<text text-anchor="middle" x="1040.6" y="-78.5" font-family="Helvetica,sans-Serif" font-size="10.00">include/d/a/d_a_npc.h</text>
</a>
</g>
</g>
<!-- Node18&#45;&gt;Node19 -->
<g id="edge17" class="edge">
<title>Node18&#45;&gt;Node19</title>
<path fill="none" stroke="#63b8ff" d="M1455.42,-134.31C1451.78,-133.47 1448.15,-132.69 1444.6,-132 1298.03,-103.6 1258.18,-118.66 1110.6,-96 1101.42,-94.59 1091.6,-92.8 1082.32,-90.98"/>
<polygon fill="#63b8ff" stroke="#63b8ff" points="1454.33,-137.65 1464.88,-136.65 1456.01,-130.85 1454.33,-137.65"/>
</g>
<!-- Node22 -->
<g id="node18" class="node">
<title>Node22</title>
<g id="a_node18"><a xlink:href="d__cc__uty_8h.html" target="_top" xlink:title=" ">
<polygon fill="#fff0f0" stroke="red" points="1272.1,-90.5 1153.1,-90.5 1153.1,-71.5 1272.1,-71.5 1272.1,-90.5"/>
<text text-anchor="middle" x="1212.6" y="-78.5" font-family="Helvetica,sans-Serif" font-size="10.00">include/d/cc/d_cc_uty.h</text>
</a>
</g>
</g>
<!-- Node18&#45;&gt;Node22 -->
<g id="edge19" class="edge">
<title>Node18&#45;&gt;Node22</title>
<path fill="none" stroke="#63b8ff" d="M1452.99,-134.14C1450.16,-133.4 1447.35,-132.68 1444.6,-132 1409.32,-123.22 1312.41,-102.78 1255.62,-90.93"/>
<polygon fill="#63b8ff" stroke="#63b8ff" points="1451.93,-137.48 1462.49,-136.67 1453.73,-130.71 1451.93,-137.48"/>
</g>
<!-- Node28 -->
<g id="node19" class="node">
<title>Node28</title>
<g id="a_node19"><a xlink:href="d__item_8h.html" target="_top" xlink:title=" ">
<polygon fill="#fff0f0" stroke="red" points="1385.1,-90.5 1290.1,-90.5 1290.1,-71.5 1385.1,-71.5 1385.1,-90.5"/>
<text text-anchor="middle" x="1337.6" y="-78.5" font-family="Helvetica,sans-Serif" font-size="10.00">include/d/d_item.h</text>
</a>
</g>
</g>
<!-- Node18&#45;&gt;Node28 -->
<g id="edge20" class="edge">
<title>Node18&#45;&gt;Node28</title>
<path fill="none" stroke="#63b8ff" d="M1466.84,-133.03C1432.43,-119.45 1387.16,-101.57 1360.34,-90.98"/>
<polygon fill="#63b8ff" stroke="#63b8ff" points="1465.14,-136.13 1475.73,-136.54 1467.71,-129.62 1465.14,-136.13"/>
</g>
<!-- Node25 -->
<g id="node20" class="node">
<title>Node25</title>
<g id="a_node20"><a xlink:href="d__a__alink_8cpp.html" target="_top" xlink:title=" ">
<polygon fill="white" stroke="#666666" points="2298.1,-24.5 2189.1,-24.5 2189.1,-5.5 2298.1,-5.5 2298.1,-24.5"/>
<text text-anchor="middle" x="2243.6" y="-12.5" font-family="Helvetica,sans-Serif" font-size="10.00">src/d/a/d_a_alink.cpp</text>
</a>
</g>
</g>
<!-- Node18&#45;&gt;Node25 -->
<g id="edge26" class="edge">
<title>Node18&#45;&gt;Node25</title>
<path fill="none" stroke="#63b8ff" d="M1580.34,-139.46C1640.3,-128.04 1723.41,-110.5 1753.6,-96 1773,-86.68 1771.7,-74.17 1791.6,-66 1862.37,-36.98 2084.92,-23.24 2188.98,-18.28"/>
<polygon fill="#63b8ff" stroke="#63b8ff" points="1579.72,-136.02 1570.54,-141.31 1581.02,-142.9 1579.72,-136.02"/>
</g>
<!-- Node32 -->
<g id="node21" class="node">
<title>Node32</title>
<g id="a_node21"><a xlink:href="d__kantera__icon__meter_8h.html" target="_top" xlink:title=" ">
<polygon fill="#fff0f0" stroke="red" points="1504.1,-96 1403.1,-96 1403.1,-66 1504.1,-66 1504.1,-96"/>
<text text-anchor="start" x="1411.1" y="-84" font-family="Helvetica,sans-Serif" font-size="10.00">include/d/d_kantera</text>
<text text-anchor="middle" x="1453.6" y="-73" font-family="Helvetica,sans-Serif" font-size="10.00">_icon_meter.h</text>
</a>
</g>
</g>
<!-- Node18&#45;&gt;Node32 -->
<g id="edge23" class="edge">
<title>Node18&#45;&gt;Node32</title>
<path fill="none" stroke="#63b8ff" d="M1493.89,-128.67C1484.71,-118.03 1474.06,-105.7 1466.02,-96.38"/>
<polygon fill="#63b8ff" stroke="#63b8ff" points="1491,-130.67 1500.18,-135.95 1496.3,-126.1 1491,-130.67"/>
</g>
<!-- Node35 -->
<g id="node22" class="node">
<title>Node35</title>
<g id="a_node22"><a xlink:href="d__model_8h.html" target="_top" xlink:title=" ">
<polygon fill="#fff0f0" stroke="red" points="1625.1,-90.5 1522.1,-90.5 1522.1,-71.5 1625.1,-71.5 1625.1,-90.5"/>
<text text-anchor="middle" x="1573.6" y="-78.5" font-family="Helvetica,sans-Serif" font-size="10.00">include/d/d_model.h</text>
</a>
</g>
</g>
<!-- Node18&#45;&gt;Node35 -->
<g id="edge24" class="edge">
<title>Node18&#45;&gt;Node35</title>
<path fill="none" stroke="#63b8ff" d="M1533.36,-128.62C1544.57,-115.63 1557.95,-100.13 1566.11,-90.68"/>
<polygon fill="#63b8ff" stroke="#63b8ff" points="1530.91,-126.1 1527.03,-135.95 1536.21,-130.67 1530.91,-126.1"/>
</g>
<!-- Node37 -->
<g id="node23" class="node">
<title>Node37</title>
<g id="a_node23"><a xlink:href="d__name_8h.html" target="_top" xlink:title=" ">
<polygon fill="#fff0f0" stroke="red" points="1744.1,-90.5 1643.1,-90.5 1643.1,-71.5 1744.1,-71.5 1744.1,-90.5"/>
<text text-anchor="middle" x="1693.6" y="-78.5" font-family="Helvetica,sans-Serif" font-size="10.00">include/d/d_name.h</text>
</a>
</g>
</g>
<!-- Node18&#45;&gt;Node37 -->
<g id="edge25" class="edge">
<title>Node18&#45;&gt;Node37</title>
<path fill="none" stroke="#63b8ff" d="M1561.43,-133.03C1596.62,-119.45 1642.93,-101.57 1670.35,-90.98"/>
<polygon fill="#63b8ff" stroke="#63b8ff" points="1560.38,-129.69 1552.31,-136.55 1562.9,-136.22 1560.38,-129.69"/>
</g>
<!-- Node18&#45;&gt;Node82 -->
<g id="edge27" class="edge">
<title>Node18&#45;&gt;Node82</title>
<path fill="none" stroke="#63b8ff" d="M1447.03,-150.53C1292.17,-147.63 895.95,-136.52 567.6,-96 557.22,-94.72 546.1,-92.87 535.72,-90.94"/>
<polygon fill="#63b8ff" stroke="#63b8ff" points="1446.62,-154.02 1456.69,-150.7 1446.75,-147.02 1446.62,-154.02"/>
</g>
<!-- Node78 -->
<g id="node25" class="node">
<title>Node78</title>
<g id="a_node25"><a xlink:href="d__a__player_8cpp.html" target="_top" xlink:title=" ">
<polygon fill="white" stroke="#666666" points="2404.6,-90.5 2290.6,-90.5 2290.6,-71.5 2404.6,-71.5 2404.6,-90.5"/>
<text text-anchor="middle" x="2347.6" y="-78.5" font-family="Helvetica,sans-Serif" font-size="10.00">src/d/a/d_a_player.cpp</text>
</a>
</g>
</g>
<!-- Node18&#45;&gt;Node78 -->
<g id="edge29" class="edge">
<title>Node18&#45;&gt;Node78</title>
<path fill="none" stroke="#63b8ff" d="M1580.27,-146.56C1703.72,-137.32 1976.21,-116.51 2205.6,-96 2233.49,-93.51 2264.42,-90.49 2290.28,-87.89"/>
<polygon fill="#63b8ff" stroke="#63b8ff" points="1580.02,-143.07 1570.31,-147.3 1580.54,-150.05 1580.02,-143.07"/>
</g>
<!-- Node84 -->
<g id="node26" class="node">
<title>Node84</title>
<g id="a_node26"><a xlink:href="d__bg__s_8cpp.html" target="_top" xlink:title=" ">
<polygon fill="white" stroke="#666666" points="1904.6,-90.5 1800.6,-90.5 1800.6,-71.5 1904.6,-71.5 1904.6,-90.5"/>
<text text-anchor="middle" x="1852.6" y="-78.5" font-family="Helvetica,sans-Serif" font-size="10.00">src/d/bg/d_bg_s.cpp</text>
</a>
</g>
</g>
<!-- Node18&#45;&gt;Node84 -->
<g id="edge30" class="edge">
<title>Node18&#45;&gt;Node84</title>
<path fill="none" stroke="#63b8ff" d="M1580.11,-138.14C1635.41,-127 1716.16,-110.63 1786.6,-96 1794.4,-94.38 1802.72,-92.63 1810.72,-90.94"/>
<polygon fill="#63b8ff" stroke="#63b8ff" points="1579.65,-134.67 1570.54,-140.07 1581.03,-141.53 1579.65,-134.67"/>
</g>
<!-- Node85 -->
<g id="node27" class="node">
<title>Node85</title>
<g id="a_node27"><a xlink:href="d__bg__s__movebg__actor_8cpp.html" target="_top" xlink:title=" ">
<polygon fill="white" stroke="#666666" points="966.6,-96 840.6,-96 840.6,-66 966.6,-66 966.6,-96"/>
<text text-anchor="start" x="848.6" y="-84" font-family="Helvetica,sans-Serif" font-size="10.00">src/d/bg/d_bg_s_movebg</text>
<text text-anchor="middle" x="903.6" y="-73" font-family="Helvetica,sans-Serif" font-size="10.00">_actor.cpp</text>
</a>
</g>
</g>
<!-- Node18&#45;&gt;Node85 -->
<g id="edge31" class="edge">
<title>Node18&#45;&gt;Node85</title>
<path fill="none" stroke="#63b8ff" d="M1456.18,-134.35C1452.28,-133.47 1448.4,-132.67 1444.6,-132 1239.22,-95.45 1183.37,-123.69 976.6,-96 973.41,-95.57 970.14,-95.09 966.84,-94.58"/>
<polygon fill="#63b8ff" stroke="#63b8ff" points="1455.12,-137.69 1465.66,-136.65 1456.77,-130.89 1455.12,-137.69"/>
</g>
<!-- Node86 -->
<g id="node28" class="node">
<title>Node86</title>
<g id="a_node28"><a xlink:href="d__bg__w_8cpp.html" target="_top" xlink:title=" ">
<polygon fill="white" stroke="#666666" points="822.1,-90.5 715.1,-90.5 715.1,-71.5 822.1,-71.5 822.1,-90.5"/>
<text text-anchor="middle" x="768.6" y="-78.5" font-family="Helvetica,sans-Serif" font-size="10.00">src/d/bg/d_bg_w.cpp</text>
</a>
</g>
</g>
<!-- Node18&#45;&gt;Node86 -->
<g id="edge32" class="edge">
<title>Node18&#45;&gt;Node86</title>
<path fill="none" stroke="#63b8ff" d="M1447.12,-149.13C1324.73,-144.08 1055.77,-129.86 831.6,-96 822.96,-94.69 813.74,-92.88 805.09,-91"/>
<polygon fill="#63b8ff" stroke="#63b8ff" points="1446.85,-152.62 1456.99,-149.52 1447.14,-145.62 1446.85,-152.62"/>
</g>
<!-- Node88 -->
<g id="node29" class="node">
<title>Node88</title>
<g id="a_node29"><a xlink:href="d__com__static_8cpp.html" target="_top" xlink:title=" ">
<polygon fill="white" stroke="#666666" points="2196.6,-90.5 2056.6,-90.5 2056.6,-71.5 2196.6,-71.5 2196.6,-90.5"/>
<text text-anchor="middle" x="2126.6" y="-78.5" font-family="Helvetica,sans-Serif" font-size="10.00">src/d/com/d_com_static.cpp</text>
</a>
</g>
</g>
<!-- Node18&#45;&gt;Node88 -->
<g id="edge33" class="edge">
<title>Node18&#45;&gt;Node88</title>
<path fill="none" stroke="#63b8ff" d="M1579.98,-146.14C1681.14,-137.64 1879.85,-119.55 2047.6,-96 2057.81,-94.57 2068.72,-92.79 2079.07,-90.99"/>
<polygon fill="#63b8ff" stroke="#63b8ff" points="1579.91,-142.64 1570.24,-146.96 1580.49,-149.61 1579.91,-142.64"/>
</g>
<!-- Node18&#45;&gt;Node58 -->
<g id="edge34" class="edge">
<title>Node18&#45;&gt;Node58</title>
<path fill="none" stroke="#63b8ff" d="M1447.36,-149.83C1309.13,-145.71 980.09,-132.6 706.6,-96 696.9,-94.7 686.52,-92.87 676.8,-90.96"/>
<polygon fill="#63b8ff" stroke="#63b8ff" points="1446.95,-153.32 1457.05,-150.11 1447.16,-146.32 1446.95,-153.32"/>
</g>
<!-- Node50 -->
<g id="node31" class="node">
<title>Node50</title>
<g id="a_node31"><a xlink:href="d__save_8cpp.html" target="_top" xlink:title=" ">
<polygon fill="white" stroke="#666666" points="2038.1,-90.5 1923.1,-90.5 1923.1,-71.5 2038.1,-71.5 2038.1,-90.5"/>
<text text-anchor="middle" x="1980.6" y="-78.5" font-family="Helvetica,sans-Serif" font-size="10.00">src/d/save/d_save.cpp</text>
</a>
</g>
</g>
<!-- Node18&#45;&gt;Node50 -->
<g id="edge35" class="edge">
<title>Node18&#45;&gt;Node50</title>
<path fill="none" stroke="#63b8ff" d="M1580.1,-143.68C1659.64,-134 1796.74,-116.29 1913.6,-96 1922.15,-94.52 1931.27,-92.74 1939.94,-90.96"/>
<polygon fill="#63b8ff" stroke="#63b8ff" points="1579.8,-140.19 1570.29,-144.87 1580.64,-147.14 1579.8,-140.19"/>
</g>
<!-- Node19&#45;&gt;Node12 -->
<g id="edge18" class="edge">
<title>Node19&#45;&gt;Node12</title>
<path fill="none" stroke="#63b8ff" d="M991,-68.73C985.82,-67.73 980.61,-66.79 975.6,-66 820.83,-41.48 636.44,-26.38 544.97,-19.82"/>
<polygon fill="#63b8ff" stroke="#63b8ff" points="990.26,-72.15 1000.76,-70.7 991.65,-65.29 990.26,-72.15"/>
</g>
<!-- Node28&#45;&gt;Node6 -->
<g id="edge22" class="edge">
<title>Node28&#45;&gt;Node6</title>
<path fill="none" stroke="#63b8ff" d="M1297.13,-67.84C1255.46,-55.32 1191.53,-36.11 1154.31,-24.93"/>
<polygon fill="#63b8ff" stroke="#63b8ff" points="1295.95,-71.14 1306.54,-70.67 1297.97,-64.44 1295.95,-71.14"/>
</g>
<!-- Node28&#45;&gt;Node25 -->
<g id="edge21" class="edge">
<title>Node28&#45;&gt;Node25</title>
<path fill="none" stroke="#63b8ff" d="M1380.52,-68.58C1385.25,-67.58 1390.01,-66.69 1394.6,-66 1691.71,-21.15 2052.95,-16.01 2188.62,-15.79"/>
<polygon fill="#63b8ff" stroke="#63b8ff" points="1380.11,-65.08 1371.13,-70.71 1381.66,-71.91 1380.11,-65.08"/>
</g>
<!-- Node119&#45;&gt;Node86 -->
<g id="edge52" class="edge">
<title>Node119&#45;&gt;Node86</title>
<path fill="none" stroke="#63b8ff" d="M1443.92,-344.01C1398.48,-335.47 1336.59,-322.19 1283.6,-305 1081.57,-239.47 850.17,-123.83 785.92,-90.95"/>
<polygon fill="#63b8ff" stroke="#63b8ff" points="1443.15,-347.42 1453.62,-345.8 1444.42,-340.54 1443.15,-347.42"/>
</g>
<!-- Node120 -->
<g id="node33" class="node">
<title>Node120</title>
<g id="a_node33"><a xlink:href="d__bg__s_8h.html" target="_top" xlink:title=" ">
<polygon fill="white" stroke="#666666" points="1707.1,-299.5 1596.1,-299.5 1596.1,-280.5 1707.1,-280.5 1707.1,-299.5"/>
<text text-anchor="middle" x="1651.6" y="-287.5" font-family="Helvetica,sans-Serif" font-size="10.00">include/d/bg/d_bg_s.h</text>
</a>
</g>
</g>
<!-- Node119&#45;&gt;Node120 -->
<g id="edge39" class="edge">
<title>Node119&#45;&gt;Node120</title>
<path fill="none" stroke="#63b8ff" d="M1538.91,-341.44C1566.96,-328.88 1607.85,-310.58 1631.89,-299.82"/>
<polygon fill="#63b8ff" stroke="#63b8ff" points="1537.57,-338.2 1529.87,-345.48 1540.43,-344.59 1537.57,-338.2"/>
</g>
<!-- Node123 -->
<g id="node37" class="node">
<title>Node123</title>
<g id="a_node37"><a xlink:href="d__bg__s__movebg__actor_8h.html" target="_top" xlink:title=" ">
<polygon fill="white" stroke="#666666" points="1544.6,-305 1440.6,-305 1440.6,-275 1544.6,-275 1544.6,-305"/>
<text text-anchor="start" x="1448.6" y="-293" font-family="Helvetica,sans-Serif" font-size="10.00">include/d/bg/d_bg_s</text>
<text text-anchor="middle" x="1492.6" y="-282" font-family="Helvetica,sans-Serif" font-size="10.00">_movebg_actor.h</text>
</a>
</g>
</g>
<!-- Node119&#45;&gt;Node123 -->
<g id="edge48" class="edge">
<title>Node119&#45;&gt;Node123</title>
<path fill="none" stroke="#63b8ff" d="M1503.63,-335.1C1501.21,-325.43 1498.36,-314.02 1496.16,-305.23"/>
<polygon fill="#63b8ff" stroke="#63b8ff" points="1500.19,-335.78 1506.01,-344.63 1506.98,-334.08 1500.19,-335.78"/>
</g>
<!-- Node124 -->
<g id="node38" class="node">
<title>Node124</title>
<g id="a_node38"><a xlink:href="d__bg__w__sv_8h.html" target="_top" xlink:title=" ">
<polygon fill="white" stroke="#666666" points="1421.1,-299.5 1292.1,-299.5 1292.1,-280.5 1421.1,-280.5 1421.1,-299.5"/>
<text text-anchor="middle" x="1356.6" y="-287.5" font-family="Helvetica,sans-Serif" font-size="10.00">include/d/bg/d_bg_w_sv.h</text>
</a>
</g>
</g>
<!-- Node119&#45;&gt;Node124 -->
<g id="edge50" class="edge">
<title>Node119&#45;&gt;Node124</title>
<path fill="none" stroke="#63b8ff" d="M1477.18,-341.77C1447.35,-329.21 1403.34,-310.68 1377.56,-299.82"/>
<polygon fill="#63b8ff" stroke="#63b8ff" points="1475.5,-344.86 1486.07,-345.51 1478.22,-338.41 1475.5,-344.86"/>
</g>
<!-- Node120&#45;&gt;Node18 -->
<g id="edge43" class="edge">
<title>Node120&#45;&gt;Node18</title>
<path fill="none" stroke="#63b8ff" d="M1634.65,-272.35C1607.27,-245.47 1553.81,-192.97 1528.1,-167.73"/>
<polygon fill="#63b8ff" stroke="#63b8ff" points="1631.88,-274.54 1641.47,-279.05 1636.79,-269.55 1631.88,-274.54"/>
</g>
<!-- Node120&#45;&gt;Node84 -->
<g id="edge46" class="edge">
<title>Node120&#45;&gt;Node84</title>
<path fill="none" stroke="#63b8ff" d="M1664.43,-271.08C1676.65,-254.41 1695.9,-229.2 1714.6,-209 1758.85,-161.22 1818.19,-110.58 1842.03,-90.71"/>
<polygon fill="#63b8ff" stroke="#63b8ff" points="1661.72,-268.85 1658.69,-279 1667.39,-272.96 1661.72,-268.85"/>
</g>
<!-- Node46 -->
<g id="node34" class="node">
<title>Node46</title>
<g id="a_node34"><a xlink:href="d__a__alink_8h.html" target="_top" xlink:title=" ">
<polygon fill="white" stroke="#666666" points="1902.6,-233.5 1786.6,-233.5 1786.6,-214.5 1902.6,-214.5 1902.6,-233.5"/>
<text text-anchor="middle" x="1844.6" y="-221.5" font-family="Helvetica,sans-Serif" font-size="10.00">include/d/a/d_a_alink.h</text>
</a>
</g>
</g>
<!-- Node120&#45;&gt;Node46 -->
<g id="edge40" class="edge">
<title>Node120&#45;&gt;Node46</title>
<path fill="none" stroke="#63b8ff" d="M1689.01,-276.6C1726.78,-264.07 1784.18,-245.04 1817.69,-233.93"/>
<polygon fill="#63b8ff" stroke="#63b8ff" points="1688.27,-273.15 1679.88,-279.62 1690.47,-279.8 1688.27,-273.15"/>
</g>
<!-- Node121 -->
<g id="node35" class="node">
<title>Node121</title>
<g id="a_node35"><a xlink:href="d__a__horse_8h.html" target="_top" xlink:title=" ">
<polygon fill="#fff0f0" stroke="red" points="2294.1,-167.5 2193.1,-167.5 2193.1,-137.5 2294.1,-137.5 2294.1,-167.5"/>
<text text-anchor="start" x="2201.1" y="-155.5" font-family="Helvetica,sans-Serif" font-size="10.00">include/rel/d/a/d_a</text>
<text text-anchor="middle" x="2243.6" y="-144.5" font-family="Helvetica,sans-Serif" font-size="10.00">_horse/d_a_horse.h</text>
</a>
</g>
</g>
<!-- Node120&#45;&gt;Node121 -->
<g id="edge44" class="edge">
<title>Node120&#45;&gt;Node121</title>
<path fill="none" stroke="#63b8ff" d="M1670.39,-272.97C1693.79,-254.03 1735.8,-223.29 1777.6,-209 1940.64,-153.27 1993.67,-201.48 2163.6,-173 2173.05,-171.42 2183.03,-169.33 2192.62,-167.1"/>
<polygon fill="#63b8ff" stroke="#63b8ff" points="1668.47,-270.02 1662.99,-279.09 1672.93,-275.41 1668.47,-270.02"/>
</g>
<!-- Node120&#45;&gt;Node122 -->
<g id="edge47" class="edge">
<title>Node120&#45;&gt;Node122</title>
<path fill="none" stroke="#63b8ff" d="M1703.27,-277.7C1707.78,-276.77 1712.27,-275.85 1716.6,-275 1795.21,-259.52 1886.65,-243.58 1943.08,-233.98"/>
<polygon fill="#63b8ff" stroke="#63b8ff" points="1702.67,-274.25 1693.61,-279.73 1704.11,-281.1 1702.67,-274.25"/>
</g>
<!-- Node46&#45;&gt;Node18 -->
<g id="edge41" class="edge">
<title>Node46&#45;&gt;Node18</title>
<path fill="none" stroke="#63b8ff" d="M1791.08,-211.76C1730.05,-198.95 1630.78,-178.1 1568.99,-165.13"/>
<polygon fill="#63b8ff" stroke="#63b8ff" points="1790.02,-215.12 1800.53,-213.75 1791.46,-208.27 1790.02,-215.12"/>
</g>
<!-- Node46&#45;&gt;Node25 -->
<g id="edge42" class="edge">
<title>Node46&#45;&gt;Node25</title>
<path fill="none" stroke="#63b8ff" d="M1901.91,-212.15C1908.86,-211 1915.89,-209.92 1922.6,-209 2091.12,-185.96 2143.97,-231.72 2303.6,-173 2359.61,-152.4 2386.05,-148.93 2413.6,-96 2438.99,-47.25 2357.31,-28.02 2298.5,-20.56"/>
<polygon fill="#63b8ff" stroke="#63b8ff" points="1901.46,-208.68 1892.19,-213.82 1902.64,-215.58 1901.46,-208.68"/>
</g>
<!-- Node121&#45;&gt;Node25 -->
<g id="edge45" class="edge">
<title>Node121&#45;&gt;Node25</title>
<path fill="none" stroke="#63b8ff" d="M2243.6,-126.15C2243.6,-95.39 2243.6,-45.12 2243.6,-24.87"/>
<polygon fill="#63b8ff" stroke="#63b8ff" points="2240.1,-125.74 2243.6,-135.74 2247.1,-125.74 2240.1,-125.74"/>
</g>
<!-- Node123&#45;&gt;Node85 -->
<g id="edge49" class="edge">
<title>Node123&#45;&gt;Node85</title>
<path fill="none" stroke="#63b8ff" d="M1474.93,-265.7C1459.98,-247.61 1436.99,-223.27 1411.6,-209 1372.67,-187.12 1094.21,-124 966.87,-95.85"/>
<polygon fill="#63b8ff" stroke="#63b8ff" points="1472.05,-267.71 1481.04,-273.33 1477.52,-263.33 1472.05,-267.71"/>
</g>
<!-- Node125 -->
<g id="node39" class="node">
<title>Node125</title>
<g id="a_node39"><a xlink:href="d__bg__w__sv_8cpp.html" target="_top" xlink:title=" ">
<polygon fill="white" stroke="#666666" points="1402.6,-233.5 1280.6,-233.5 1280.6,-214.5 1402.6,-214.5 1402.6,-233.5"/>
<text text-anchor="middle" x="1341.6" y="-221.5" font-family="Helvetica,sans-Serif" font-size="10.00">src/d/bg/d_bg_w_sv.cpp</text>
</a>
</g>
</g>
<!-- Node124&#45;&gt;Node125 -->
<g id="edge51" class="edge">
<title>Node124&#45;&gt;Node125</title>
<path fill="none" stroke="#63b8ff" d="M1351.93,-269.05C1349.16,-257.24 1345.79,-242.87 1343.67,-233.82"/>
<polygon fill="#63b8ff" stroke="#63b8ff" points="1348.48,-269.69 1354.17,-278.63 1355.3,-268.09 1348.48,-269.69"/>
</g>
<!-- Node126&#45;&gt;Node119 -->
<g id="edge54" class="edge">
<title>Node126&#45;&gt;Node119</title>
<path fill="none" stroke="#63b8ff" d="M1676.61,-403.55C1632.73,-391.39 1575.98,-375.67 1540.95,-365.96"/>
<polygon fill="#63b8ff" stroke="#63b8ff" points="1675.45,-406.86 1686.02,-406.15 1677.31,-400.11 1675.45,-406.86"/>
</g>
<!-- Node127 -->
<g id="node41" class="node">
<title>Node127</title>
<g id="a_node41"><a xlink:href="d__bg__w__kcol_8h.html" target="_top" xlink:title=" ">
<polygon fill="white" stroke="#666666" points="1843.6,-371 1737.6,-371 1737.6,-341 1843.6,-341 1843.6,-371"/>
<text text-anchor="start" x="1745.6" y="-359" font-family="Helvetica,sans-Serif" font-size="10.00">include/d/bg/d_bg_w</text>
<text text-anchor="middle" x="1790.6" y="-348" font-family="Helvetica,sans-Serif" font-size="10.00">_kcol.h</text>
</a>
</g>
</g>
<!-- Node126&#45;&gt;Node127 -->
<g id="edge55" class="edge">
<title>Node126&#45;&gt;Node127</title>
<path fill="none" stroke="#63b8ff" d="M1757.96,-397.96C1765.1,-389 1773.05,-379.03 1779.32,-371.16"/>
<polygon fill="#63b8ff" stroke="#63b8ff" points="1755.36,-395.61 1751.87,-405.61 1760.84,-399.97 1755.36,-395.61"/>
</g>
<!-- Node129 -->
<g id="node43" class="node">
<title>Node129</title>
<g id="a_node43"><a xlink:href="d__bg__w__base_8cpp.html" target="_top" xlink:title=" ">
<polygon fill="white" stroke="#666666" points="1719.1,-365.5 1586.1,-365.5 1586.1,-346.5 1719.1,-346.5 1719.1,-365.5"/>
<text text-anchor="middle" x="1652.6" y="-353.5" font-family="Helvetica,sans-Serif" font-size="10.00">src/d/bg/d_bg_w_base.cpp</text>
</a>
</g>
</g>
<!-- Node126&#45;&gt;Node129 -->
<g id="edge57" class="edge">
<title>Node126&#45;&gt;Node129</title>
<path fill="none" stroke="#63b8ff" d="M1711.41,-400.26C1695.58,-388.61 1676.65,-374.69 1664.63,-365.84"/>
<polygon fill="#63b8ff" stroke="#63b8ff" points="1708.95,-402.79 1719.08,-405.9 1713.1,-397.15 1708.95,-402.79"/>
</g>
<!-- Node128 -->
<g id="node42" class="node">
<title>Node128</title>
<g id="a_node42"><a xlink:href="d__bg__w__kcol_8cpp.html" target="_top" xlink:title=" ">
<polygon fill="white" stroke="#666666" points="1855.6,-299.5 1725.6,-299.5 1725.6,-280.5 1855.6,-280.5 1855.6,-299.5"/>
<text text-anchor="middle" x="1790.6" y="-287.5" font-family="Helvetica,sans-Serif" font-size="10.00">src/d/bg/d_bg_w_kcol.cpp</text>
</a>
</g>
</g>
<!-- Node127&#45;&gt;Node128 -->
<g id="edge56" class="edge">
<title>Node127&#45;&gt;Node128</title>
<path fill="none" stroke="#63b8ff" d="M1790.6,-329.59C1790.6,-319.06 1790.6,-307.53 1790.6,-299.84"/>
<polygon fill="#63b8ff" stroke="#63b8ff" points="1787.1,-329.28 1790.6,-339.28 1794.1,-329.28 1787.1,-329.28"/>
</g>
<!-- Node130&#45;&gt;Node25 -->
<g id="edge59" class="edge">
<title>Node130&#45;&gt;Node25</title>
<path fill="none" stroke="#63b8ff" d="M2379.14,-406.67C2414.28,-386.16 2470.6,-344.89 2470.6,-291 2470.6,-291 2470.6,-291 2470.6,-151.5 2470.6,-109.36 2462.02,-92.93 2429.6,-66 2392.69,-35.34 2338.72,-23.34 2298.41,-18.72"/>
<polygon fill="#63b8ff" stroke="#63b8ff" points="2377.74,-403.43 2370.74,-411.38 2381.17,-409.54 2377.74,-403.43"/>
</g>
<!-- Node131 -->
<g id="node45" class="node">
<title>Node131</title>
<g id="a_node45"><a xlink:href="d__bomb_8cpp.html" target="_top" xlink:title=" ">
<polygon fill="white" stroke="#666666" points="2398.6,-365.5 2304.6,-365.5 2304.6,-346.5 2398.6,-346.5 2398.6,-365.5"/>
<text text-anchor="middle" x="2351.6" y="-353.5" font-family="Helvetica,sans-Serif" font-size="10.00">src/d/d_bomb.cpp</text>
</a>
</g>
</g>
<!-- Node130&#45;&gt;Node131 -->
<g id="edge60" class="edge">
<title>Node130&#45;&gt;Node131</title>
<path fill="none" stroke="#63b8ff" d="M2351.6,-400.68C2351.6,-388.94 2351.6,-374.77 2351.6,-365.82"/>
<polygon fill="#63b8ff" stroke="#63b8ff" points="2348.1,-400.59 2351.6,-410.59 2355.1,-400.59 2348.1,-400.59"/>
</g>
<!-- Node132&#45;&gt;Node46 -->
<g id="edge62" class="edge">
<title>Node132&#45;&gt;Node46</title>
<path fill="none" stroke="#63b8ff" d="M1936.71,-400.69C1924.55,-392.72 1911.86,-382.67 1902.6,-371 1874.1,-335.04 1881.57,-317.64 1864.6,-275 1858.87,-260.58 1852.16,-243.84 1848.15,-233.85"/>
<polygon fill="#63b8ff" stroke="#63b8ff" points="1934.64,-403.52 1944.98,-405.82 1938.33,-397.58 1934.64,-403.52"/>
</g>
<!-- Node132&#45;&gt;Node133 -->
<g id="edge63" class="edge">
<title>Node132&#45;&gt;Node133</title>
<path fill="none" stroke="#63b8ff" d="M2035.81,-403.51C2071.11,-393.43 2114.95,-380.9 2148.24,-371.39"/>
<polygon fill="#63b8ff" stroke="#63b8ff" points="2035.26,-400.03 2026.61,-406.14 2037.19,-406.76 2035.26,-400.03"/>
</g>
<!-- Node134 -->
<g id="node48" class="node">
<title>Node134</title>
<g id="a_node48"><a xlink:href="d__particle__copoly_8cpp.html" target="_top" xlink:title=" ">
<polygon fill="white" stroke="#666666" points="2029.6,-371 1911.6,-371 1911.6,-341 2029.6,-341 2029.6,-371"/>
<text text-anchor="start" x="1919.6" y="-359" font-family="Helvetica,sans-Serif" font-size="10.00">src/d/particle/d_particle</text>
<text text-anchor="middle" x="1970.6" y="-348" font-family="Helvetica,sans-Serif" font-size="10.00">_copoly.cpp</text>
</a>
</g>
</g>
<!-- Node132&#45;&gt;Node134 -->
<g id="edge65" class="edge">
<title>Node132&#45;&gt;Node134</title>
<path fill="none" stroke="#63b8ff" d="M1973,-395.39C1972.49,-387.13 1971.93,-378.28 1971.49,-371.16"/>
<polygon fill="#63b8ff" stroke="#63b8ff" points="1969.51,-395.52 1973.62,-405.29 1976.49,-395.09 1969.51,-395.52"/>
</g>
<!-- Node133&#45;&gt;Node78 -->
<g id="edge64" class="edge">
<title>Node133&#45;&gt;Node78</title>
<path fill="none" stroke="#63b8ff" d="M2213.26,-330.9C2234.1,-296.35 2273.14,-230.56 2303.6,-173 2319.28,-143.38 2336.06,-107.3 2343.57,-90.89"/>
<polygon fill="#63b8ff" stroke="#63b8ff" points="2210.37,-328.91 2208.19,-339.28 2216.36,-332.54 2210.37,-328.91"/>
</g>
<!-- Node135&#45;&gt;Node25 -->
<g id="edge68" class="edge">
<title>Node135&#45;&gt;Node25</title>
<path fill="none" stroke="#63b8ff" d="M2162.61,-126.62C2178.06,-118.57 2193.52,-108.42 2205.6,-96 2226.08,-74.95 2237.16,-40.78 2241.46,-24.78"/>
<polygon fill="#63b8ff" stroke="#63b8ff" points="2161.26,-123.38 2153.84,-130.95 2164.36,-129.66 2161.26,-123.38"/>
</g>
<!-- Node135&#45;&gt;Node88 -->
<g id="edge69" class="edge">
<title>Node135&#45;&gt;Node88</title>
<path fill="none" stroke="#63b8ff" d="M2109.57,-121.47C2114.37,-110.35 2119.45,-98.58 2122.8,-90.82"/>
<polygon fill="#63b8ff" stroke="#63b8ff" points="2106.47,-119.81 2105.72,-130.38 2112.9,-122.59 2106.47,-119.81"/>
</g>
<!-- Node135&#45;&gt;Node50 -->
<g id="edge70" class="edge">
<title>Node135&#45;&gt;Node50</title>
<path fill="none" stroke="#63b8ff" d="M2053.62,-125.75C2033.24,-113.53 2010.2,-99.73 1995.55,-90.95"/>
<polygon fill="#63b8ff" stroke="#63b8ff" points="2051.69,-128.67 2062.07,-130.81 2055.29,-122.66 2051.69,-128.67"/>
</g>
</g>
</svg>
