<?xml version="1.0" encoding="UTF-8" standalone="no"?>
<!DOCTYPE svg PUBLIC "-//W3C//DTD SVG 1.1//EN"
 "http://www.w3.org/Graphics/SVG/1.1/DTD/svg11.dtd">
<!-- Generated by graphviz version 2.50.0 (20220203.2022)
 -->
<!-- Title: src/d/bg/d_bg_s_wtr_chk.cpp Pages: 1 -->
<svg width="914pt" height="419pt"
 viewBox="0.00 0.00 913.73 419.00" xmlns="http://www.w3.org/2000/svg" xmlns:xlink="http://www.w3.org/1999/xlink">
<g id="graph0" class="graph" transform="scale(1 1) rotate(0) translate(4 415)">
<title>src/d/bg/d_bg_s_wtr_chk.cpp</title>
<polygon fill="white" stroke="transparent" points="-4,4 -4,-415 909.73,-415 909.73,4 -4,4"/>
<!-- Node1 -->
<g id="node1" class="node">
<title>Node1</title>
<g id="a_node1"><a xlink:title=" ">
<polygon fill="#bfbfbf" stroke="black" points="763.73,-380.5 763.73,-410.5 868.73,-410.5 868.73,-380.5 763.73,-380.5"/>
<text text-anchor="start" x="771.73" y="-398.5" font-family="Helvetica,sans-Serif" font-size="10.00">src/d/bg/d_bg_s_wtr</text>
<text text-anchor="middle" x="816.23" y="-387.5" font-family="Helvetica,sans-Serif" font-size="10.00">_chk.cpp</text>
</a>
</g>
</g>
<!-- Node2 -->
<g id="node2" class="node">
<title>Node2</title>
<g id="a_node2"><a xlink:href="d__bg__s__wtr__chk_8h.html" target="_top" xlink:title=" ">
<polygon fill="white" stroke="black" points="460.73,-324.5 460.73,-343.5 577.73,-343.5 577.73,-324.5 460.73,-324.5"/>
<text text-anchor="middle" x="519.23" y="-331.5" font-family="Helvetica,sans-Serif" font-size="10.00">d/bg/d_bg_s_wtr_chk.h</text>
</a>
</g>
</g>
<!-- Node1&#45;&gt;Node2 -->
<g id="edge1" class="edge">
<title>Node1&#45;&gt;Node2</title>
<path fill="none" stroke="midnightblue" d="M763.48,-383.93C709.45,-373.11 625.95,-356.38 571.94,-345.56"/>
<polygon fill="midnightblue" stroke="midnightblue" points="572.37,-342.08 561.88,-343.54 571,-348.94 572.37,-342.08"/>
</g>
<!-- Node5 -->
<g id="node5" class="node">
<title>Node5</title>
<g id="a_node5"><a xlink:href="types_8h.html" target="_top" xlink:title=" ">
<polygon fill="white" stroke="black" points="425.73,-0.5 425.73,-19.5 506.73,-19.5 506.73,-0.5 425.73,-0.5"/>
<text text-anchor="middle" x="466.23" y="-7.5" font-family="Helvetica,sans-Serif" font-size="10.00">dolphin/types.h</text>
</a>
</g>
</g>
<!-- Node1&#45;&gt;Node5 -->
<g id="edge26" class="edge">
<title>Node1&#45;&gt;Node5</title>
<path fill="none" stroke="midnightblue" d="M816.23,-380.34C816.23,-357.75 816.23,-312.15 816.23,-273.5 816.23,-273.5 816.23,-273.5 816.23,-137.5 816.23,-95 801.67,-79.46 766.23,-56 726.28,-29.56 591.58,-17.97 517,-13.48"/>
<polygon fill="midnightblue" stroke="midnightblue" points="517.07,-9.98 506.89,-12.89 516.67,-16.97 517.07,-9.98"/>
</g>
<!-- Node15 -->
<g id="node15" class="node">
<title>Node15</title>
<g id="a_node15"><a xlink:href="dol2asm_8h.html" target="_top" xlink:title=" ">
<polygon fill="white" stroke="black" points="844.73,-324.5 844.73,-343.5 905.73,-343.5 905.73,-324.5 844.73,-324.5"/>
<text text-anchor="middle" x="875.23" y="-331.5" font-family="Helvetica,sans-Serif" font-size="10.00">dol2asm.h</text>
</a>
</g>
</g>
<!-- Node1&#45;&gt;Node15 -->
<g id="edge25" class="edge">
<title>Node1&#45;&gt;Node15</title>
<path fill="none" stroke="midnightblue" d="M830.21,-380.4C838.97,-371.58 850.26,-360.18 859.35,-351.02"/>
<polygon fill="midnightblue" stroke="midnightblue" points="862.09,-353.22 866.65,-343.66 857.12,-348.29 862.09,-353.22"/>
</g>
<!-- Node3 -->
<g id="node3" class="node">
<title>Node3</title>
<g id="a_node3"><a xlink:href="d__bg__s__spl__grp__chk_8h.html" target="_top" xlink:title=" ">
<polygon fill="white" stroke="black" points="465.73,-257.5 465.73,-287.5 572.73,-287.5 572.73,-257.5 465.73,-257.5"/>
<text text-anchor="start" x="473.73" y="-275.5" font-family="Helvetica,sans-Serif" font-size="10.00">d/bg/d_bg_s_spl_grp</text>
<text text-anchor="middle" x="519.23" y="-264.5" font-family="Helvetica,sans-Serif" font-size="10.00">_chk.h</text>
</a>
</g>
</g>
<!-- Node2&#45;&gt;Node3 -->
<g id="edge2" class="edge">
<title>Node2&#45;&gt;Node3</title>
<path fill="none" stroke="midnightblue" d="M519.23,-324.48C519.23,-317.47 519.23,-307.19 519.23,-297.7"/>
<polygon fill="midnightblue" stroke="midnightblue" points="522.73,-297.52 519.23,-287.52 515.73,-297.52 522.73,-297.52"/>
</g>
<!-- Node2&#45;&gt;Node5 -->
<g id="edge24" class="edge">
<title>Node2&#45;&gt;Node5</title>
<path fill="none" stroke="midnightblue" d="M460.68,-330.98C325.32,-324.73 2.23,-300 2.23,-206.5 2.23,-206.5 2.23,-206.5 2.23,-137.5 2.23,-100.31 -6.7,-80.56 21.23,-56 50.33,-30.42 304.48,-17.37 415.13,-12.87"/>
<polygon fill="midnightblue" stroke="midnightblue" points="415.52,-16.35 425.37,-12.46 415.24,-9.36 415.52,-16.35"/>
</g>
<!-- Node4 -->
<g id="node4" class="node">
<title>Node4</title>
<g id="a_node4"><a xlink:href="c__bg__s__chk_8h.html" target="_top" xlink:title=" ">
<polygon fill="white" stroke="black" points="618.23,-56.5 618.23,-86.5 734.23,-86.5 734.23,-56.5 618.23,-56.5"/>
<text text-anchor="start" x="626.23" y="-74.5" font-family="Helvetica,sans-Serif" font-size="10.00">SSystem/SComponent</text>
<text text-anchor="middle" x="676.23" y="-63.5" font-family="Helvetica,sans-Serif" font-size="10.00">/c_bg_s_chk.h</text>
</a>
</g>
</g>
<!-- Node3&#45;&gt;Node4 -->
<g id="edge3" class="edge">
<title>Node3&#45;&gt;Node4</title>
<path fill="none" stroke="midnightblue" d="M571.07,-257.38C619.33,-241.17 688.45,-209.39 720.23,-154 731.82,-133.8 716.22,-110.37 700.48,-93.83"/>
<polygon fill="midnightblue" stroke="midnightblue" points="702.9,-91.31 693.33,-86.76 697.98,-96.28 702.9,-91.31"/>
</g>
<!-- Node3&#45;&gt;Node5 -->
<g id="edge23" class="edge">
<title>Node3&#45;&gt;Node5</title>
<path fill="none" stroke="midnightblue" d="M572.99,-264.03C607.71,-257.18 652.52,-244.41 686.23,-221 749.96,-176.75 793.5,-115.1 743.23,-56 714.76,-22.53 588.89,-13.89 517.01,-11.7"/>
<polygon fill="midnightblue" stroke="midnightblue" points="516.91,-8.19 506.82,-11.42 516.72,-15.19 516.91,-8.19"/>
</g>
<!-- Node6 -->
<g id="node6" class="node">
<title>Node6</title>
<g id="a_node6"><a xlink:href="c__bg__s__poly__info_8h.html" target="_top" xlink:title=" ">
<polygon fill="white" stroke="black" points="30.23,-56.5 30.23,-86.5 146.23,-86.5 146.23,-56.5 30.23,-56.5"/>
<text text-anchor="start" x="38.23" y="-74.5" font-family="Helvetica,sans-Serif" font-size="10.00">SSystem/SComponent</text>
<text text-anchor="middle" x="88.23" y="-63.5" font-family="Helvetica,sans-Serif" font-size="10.00">/c_bg_s_poly_info.h</text>
</a>
</g>
</g>
<!-- Node3&#45;&gt;Node6 -->
<g id="edge5" class="edge">
<title>Node3&#45;&gt;Node6</title>
<path fill="none" stroke="midnightblue" d="M465.57,-269.75C409.86,-266.06 321.46,-254.82 253.23,-221 190.21,-189.76 133.17,-127.57 105.63,-94.45"/>
<polygon fill="midnightblue" stroke="midnightblue" points="108.32,-92.21 99.28,-86.69 102.9,-96.65 108.32,-92.21"/>
</g>
<!-- Node7 -->
<g id="node7" class="node">
<title>Node7</title>
<g id="a_node7"><a xlink:href="c__xyz_8h.html" target="_top" xlink:title=" ">
<polygon fill="white" stroke="black" points="262.23,-190.5 262.23,-220.5 378.23,-220.5 378.23,-190.5 262.23,-190.5"/>
<text text-anchor="start" x="270.23" y="-208.5" font-family="Helvetica,sans-Serif" font-size="10.00">SSystem/SComponent</text>
<text text-anchor="middle" x="320.23" y="-197.5" font-family="Helvetica,sans-Serif" font-size="10.00">/c_xyz.h</text>
</a>
</g>
</g>
<!-- Node3&#45;&gt;Node7 -->
<g id="edge7" class="edge">
<title>Node3&#45;&gt;Node7</title>
<path fill="none" stroke="midnightblue" d="M476.05,-257.4C445.8,-247.52 405.2,-234.25 373.02,-223.74"/>
<polygon fill="midnightblue" stroke="midnightblue" points="373.92,-220.35 363.33,-220.58 371.75,-227.01 373.92,-220.35"/>
</g>
<!-- Node12 -->
<g id="node12" class="node">
<title>Node12</title>
<g id="a_node12"><a xlink:href="d__bg__s__chk_8h.html" target="_top" xlink:title=" ">
<polygon fill="white" stroke="black" points="470.23,-196 470.23,-215 568.23,-215 568.23,-196 470.23,-196"/>
<text text-anchor="middle" x="519.23" y="-203" font-family="Helvetica,sans-Serif" font-size="10.00">d/bg/d_bg_s_chk.h</text>
</a>
</g>
</g>
<!-- Node3&#45;&gt;Node12 -->
<g id="edge16" class="edge">
<title>Node3&#45;&gt;Node12</title>
<path fill="none" stroke="midnightblue" d="M519.23,-257.4C519.23,-248.06 519.23,-235.71 519.23,-225.52"/>
<polygon fill="midnightblue" stroke="midnightblue" points="522.73,-225.19 519.23,-215.19 515.73,-225.19 522.73,-225.19"/>
</g>
<!-- Node4&#45;&gt;Node5 -->
<g id="edge4" class="edge">
<title>Node4&#45;&gt;Node5</title>
<path fill="none" stroke="midnightblue" d="M626.73,-56.47C589.87,-46.03 540.2,-31.96 505.93,-22.25"/>
<polygon fill="midnightblue" stroke="midnightblue" points="506.83,-18.87 496.26,-19.51 504.92,-25.6 506.83,-18.87"/>
</g>
<!-- Node6&#45;&gt;Node5 -->
<g id="edge6" class="edge">
<title>Node6&#45;&gt;Node5</title>
<path fill="none" stroke="midnightblue" d="M146.29,-57.68C149.31,-57.09 152.3,-56.53 155.23,-56 246.33,-39.57 353.3,-25.15 415.08,-17.29"/>
<polygon fill="midnightblue" stroke="midnightblue" points="415.85,-20.72 425.33,-16 414.97,-13.78 415.85,-20.72"/>
</g>
<!-- Node8 -->
<g id="node8" class="node">
<title>Node8</title>
<g id="a_node8"><a xlink:href="vec_8h.html" target="_top" xlink:title=" ">
<polygon fill="white" stroke="black" points="164.23,-62 164.23,-81 256.23,-81 256.23,-62 164.23,-62"/>
<text text-anchor="middle" x="210.23" y="-69" font-family="Helvetica,sans-Serif" font-size="10.00">dolphin/mtx/vec.h</text>
</a>
</g>
</g>
<!-- Node7&#45;&gt;Node8 -->
<g id="edge8" class="edge">
<title>Node7&#45;&gt;Node8</title>
<path fill="none" stroke="midnightblue" d="M290.8,-190.36C275.25,-181.67 256.83,-169.28 244.23,-154 228.8,-135.29 219.46,-108.59 214.57,-90.91"/>
<polygon fill="midnightblue" stroke="midnightblue" points="217.96,-90.04 212.09,-81.23 211.18,-91.78 217.96,-90.04"/>
</g>
<!-- Node9 -->
<g id="node9" class="node">
<title>Node9</title>
<g id="a_node9"><a xlink:href="global_8h.html" target="_top" xlink:title=" ">
<polygon fill="white" stroke="black" points="253.23,-129 253.23,-148 303.23,-148 303.23,-129 253.23,-129"/>
<text text-anchor="middle" x="278.23" y="-136" font-family="Helvetica,sans-Serif" font-size="10.00">global.h</text>
</a>
</g>
</g>
<!-- Node7&#45;&gt;Node9 -->
<g id="edge10" class="edge">
<title>Node7&#45;&gt;Node9</title>
<path fill="none" stroke="midnightblue" d="M311.12,-190.4C304.77,-180.56 296.25,-167.38 289.47,-156.89"/>
<polygon fill="midnightblue" stroke="midnightblue" points="292.22,-154.69 283.85,-148.19 286.34,-158.49 292.22,-154.69"/>
</g>
<!-- Node10 -->
<g id="node10" class="node">
<title>Node10</title>
<g id="a_node10"><a xlink:href="math_8h.html" target="_top" xlink:title=" ">
<polygon fill="white" stroke="black" points="321.23,-129 321.23,-148 403.23,-148 403.23,-129 321.23,-129"/>
<text text-anchor="middle" x="362.23" y="-136" font-family="Helvetica,sans-Serif" font-size="10.00">MSL_C/math.h</text>
</a>
</g>
</g>
<!-- Node7&#45;&gt;Node10 -->
<g id="edge12" class="edge">
<title>Node7&#45;&gt;Node10</title>
<path fill="none" stroke="midnightblue" d="M329.35,-190.4C335.7,-180.56 344.22,-167.38 350.99,-156.89"/>
<polygon fill="midnightblue" stroke="midnightblue" points="354.13,-158.49 356.61,-148.19 348.25,-154.69 354.13,-158.49"/>
</g>
<!-- Node8&#45;&gt;Node5 -->
<g id="edge9" class="edge">
<title>Node8&#45;&gt;Node5</title>
<path fill="none" stroke="midnightblue" d="M245.12,-62C253.35,-60.01 262.1,-57.92 270.23,-56 320.72,-44.1 378.62,-30.86 418.32,-21.84"/>
<polygon fill="midnightblue" stroke="midnightblue" points="419.29,-25.21 428.26,-19.58 417.74,-18.38 419.29,-25.21"/>
</g>
<!-- Node9&#45;&gt;Node5 -->
<g id="edge11" class="edge">
<title>Node9&#45;&gt;Node5</title>
<path fill="none" stroke="midnightblue" d="M281.49,-129C288.25,-112.5 305.33,-76.02 331.23,-56 355.67,-37.11 388.44,-25.94 415.57,-19.45"/>
<polygon fill="midnightblue" stroke="midnightblue" points="416.67,-22.79 425.67,-17.19 415.14,-15.96 416.67,-22.79"/>
</g>
<!-- Node10&#45;&gt;Node5 -->
<g id="edge15" class="edge">
<title>Node10&#45;&gt;Node5</title>
<path fill="none" stroke="midnightblue" d="M355.76,-128.82C344.77,-112.96 325.19,-78.83 341.23,-56 357.99,-32.16 388.66,-20.89 415.42,-15.59"/>
<polygon fill="midnightblue" stroke="midnightblue" points="416.2,-19 425.45,-13.84 415,-12.11 416.2,-19"/>
</g>
<!-- Node11 -->
<g id="node11" class="node">
<title>Node11</title>
<g id="a_node11"><a xlink:href="float_8h.html" target="_top" xlink:title=" ">
<polygon fill="white" stroke="black" points="350.23,-56.5 350.23,-86.5 486.23,-86.5 486.23,-56.5 350.23,-56.5"/>
<text text-anchor="start" x="358.23" y="-74.5" font-family="Helvetica,sans-Serif" font-size="10.00">MSL_C/MSL_Common/Src</text>
<text text-anchor="middle" x="418.23" y="-63.5" font-family="Helvetica,sans-Serif" font-size="10.00">/float.h</text>
</a>
</g>
</g>
<!-- Node10&#45;&gt;Node11 -->
<g id="edge13" class="edge">
<title>Node10&#45;&gt;Node11</title>
<path fill="none" stroke="midnightblue" d="M369.79,-128.73C377.35,-119.95 389.3,-106.08 399.44,-94.31"/>
<polygon fill="midnightblue" stroke="midnightblue" points="402.22,-96.45 406.09,-86.59 396.92,-91.88 402.22,-96.45"/>
</g>
<!-- Node11&#45;&gt;Node5 -->
<g id="edge14" class="edge">
<title>Node11&#45;&gt;Node5</title>
<path fill="none" stroke="midnightblue" d="M429.61,-56.4C436.58,-47.75 445.55,-36.64 452.86,-27.58"/>
<polygon fill="midnightblue" stroke="midnightblue" points="455.69,-29.64 459.25,-19.66 450.25,-25.24 455.69,-29.64"/>
</g>
<!-- Node12&#45;&gt;Node5 -->
<g id="edge22" class="edge">
<title>Node12&#45;&gt;Node5</title>
<path fill="none" stroke="midnightblue" d="M498.72,-195.91C482.26,-187.78 460.31,-173.86 450.23,-154 444,-141.71 444.26,-135.42 450.23,-123 461.33,-99.92 484.14,-110.08 495.23,-87 504.74,-67.21 492,-43.42 480.53,-27.8"/>
<polygon fill="midnightblue" stroke="midnightblue" points="483.04,-25.32 474.1,-19.63 477.54,-29.65 483.04,-25.32"/>
</g>
<!-- Node13 -->
<g id="node13" class="node">
<title>Node13</title>
<g id="a_node13"><a xlink:href="d__bg__s__grp__pass__chk_8h.html" target="_top" xlink:title=" ">
<polygon fill="white" stroke="black" points="596.73,-123.5 596.73,-153.5 711.73,-153.5 711.73,-123.5 596.73,-123.5"/>
<text text-anchor="start" x="604.73" y="-141.5" font-family="Helvetica,sans-Serif" font-size="10.00">d/bg/d_bg_s_grp_pass</text>
<text text-anchor="middle" x="654.23" y="-130.5" font-family="Helvetica,sans-Serif" font-size="10.00">_chk.h</text>
</a>
</g>
</g>
<!-- Node12&#45;&gt;Node13 -->
<g id="edge17" class="edge">
<title>Node12&#45;&gt;Node13</title>
<path fill="none" stroke="midnightblue" d="M537.16,-195.87C557.15,-186.24 590.08,-170.39 615.93,-157.94"/>
<polygon fill="midnightblue" stroke="midnightblue" points="617.61,-161.02 625.1,-153.53 614.57,-154.71 617.61,-161.02"/>
</g>
<!-- Node14 -->
<g id="node14" class="node">
<title>Node14</title>
<g id="a_node14"><a xlink:href="d__bg__s__poly__pass__chk_8h.html" target="_top" xlink:title=" ">
<polygon fill="white" stroke="black" points="459.73,-123.5 459.73,-153.5 578.73,-153.5 578.73,-123.5 459.73,-123.5"/>
<text text-anchor="start" x="467.73" y="-141.5" font-family="Helvetica,sans-Serif" font-size="10.00">d/bg/d_bg_s_poly_pass</text>
<text text-anchor="middle" x="519.23" y="-130.5" font-family="Helvetica,sans-Serif" font-size="10.00">_chk.h</text>
</a>
</g>
</g>
<!-- Node12&#45;&gt;Node14 -->
<g id="edge20" class="edge">
<title>Node12&#45;&gt;Node14</title>
<path fill="none" stroke="midnightblue" d="M519.23,-195.73C519.23,-187.54 519.23,-174.92 519.23,-163.71"/>
<polygon fill="midnightblue" stroke="midnightblue" points="522.73,-163.59 519.23,-153.59 515.73,-163.59 522.73,-163.59"/>
</g>
<!-- Node13&#45;&gt;Node4 -->
<g id="edge18" class="edge">
<title>Node13&#45;&gt;Node4</title>
<path fill="none" stroke="midnightblue" d="M659.01,-123.4C661.69,-115.47 665.1,-105.38 668.19,-96.27"/>
<polygon fill="midnightblue" stroke="midnightblue" points="671.58,-97.17 671.47,-86.58 664.95,-94.93 671.58,-97.17"/>
</g>
<!-- Node13&#45;&gt;Node5 -->
<g id="edge19" class="edge">
<title>Node13&#45;&gt;Node5</title>
<path fill="none" stroke="midnightblue" d="M636.6,-123.24C615.44,-106.39 578.64,-77.88 545.23,-56 527.85,-44.61 507.45,-33.03 491.73,-24.47"/>
<polygon fill="midnightblue" stroke="midnightblue" points="493.08,-21.23 482.62,-19.56 489.76,-27.39 493.08,-21.23"/>
</g>
<!-- Node14&#45;&gt;Node5 -->
<g id="edge21" class="edge">
<title>Node14&#45;&gt;Node5</title>
<path fill="none" stroke="midnightblue" d="M525.32,-123.39C531.65,-106.43 539.22,-77.56 528.23,-56 521.23,-42.27 507.87,-31.75 495.33,-24.35"/>
<polygon fill="midnightblue" stroke="midnightblue" points="496.91,-21.22 486.46,-19.51 493.56,-27.37 496.91,-21.22"/>
</g>
</g>
</svg>
