<?xml version="1.0" encoding="UTF-8" standalone="no"?>
<!DOCTYPE svg PUBLIC "-//W3C//DTD SVG 1.1//EN"
 "http://www.w3.org/Graphics/SVG/1.1/DTD/svg11.dtd">
<!-- Generated by graphviz version 3.0.0 (20220413.0242)
 -->
<!-- Title: include/d/d_drawlist.h Pages: 1 -->
<svg width="4027pt" height="441pt"
 viewBox="0.00 0.00 4026.73 441.00" xmlns="http://www.w3.org/2000/svg" xmlns:xlink="http://www.w3.org/1999/xlink">
<g id="graph0" class="graph" transform="scale(1 1) rotate(0) translate(4 437)">
<title>include/d/d_drawlist.h</title>
<polygon fill="white" stroke="transparent" points="-4,4 -4,-437 4022.73,-437 4022.73,4 -4,4"/>
<!-- Node1 -->
<g id="node1" class="node">
<title>Node1</title>
<g id="a_node1"><a xlink:title=" ">
<polygon fill="#bfbfbf" stroke="black" points="2142.73,-413.5 2142.73,-432.5 2252.73,-432.5 2252.73,-413.5 2142.73,-413.5"/>
<text text-anchor="middle" x="2197.73" y="-420.5" font-family="Helvetica,sans-Serif" font-size="10.00">include/d/d_drawlist.h</text>
</a>
</g>
</g>
<!-- Node2 -->
<g id="node2" class="node">
<title>Node2</title>
<g id="a_node2"><a xlink:href="d__a__alink_8h.html" target="_top" xlink:title=" ">
<polygon fill="white" stroke="black" points="471.73,-212.5 471.73,-231.5 587.73,-231.5 587.73,-212.5 471.73,-212.5"/>
<text text-anchor="middle" x="529.73" y="-219.5" font-family="Helvetica,sans-Serif" font-size="10.00">include/d/a/d_a_alink.h</text>
</a>
</g>
</g>
<!-- Node1&#45;&gt;Node2 -->
<g id="edge1" class="edge">
<title>Node1&#45;&gt;Node2</title>
<path fill="none" stroke="midnightblue" d="M2132.54,-422.13C1872.67,-422.34 910.17,-420.14 608.73,-377 492.31,-360.34 424.6,-403.1 352.73,-310 341.33,-295.22 341.27,-282.74 352.73,-268 367.33,-249.23 425.59,-237 471.33,-230.1"/>
<polygon fill="midnightblue" stroke="midnightblue" points="2132.58,-425.63 2142.58,-422.12 2132.57,-418.63 2132.58,-425.63"/>
</g>
<!-- Node3 -->
<g id="node3" class="node">
<title>Node3</title>
<g id="a_node3"><a xlink:href="d__com__inf__game_8h.html" target="_top" xlink:title=" ">
<polygon fill="white" stroke="red" points="1829.73,-145.5 1829.73,-175.5 1939.73,-175.5 1939.73,-145.5 1829.73,-145.5"/>
<text text-anchor="start" x="1837.73" y="-163.5" font-family="Helvetica,sans-Serif" font-size="10.00">include/d/com/d_com</text>
<text text-anchor="middle" x="1884.73" y="-152.5" font-family="Helvetica,sans-Serif" font-size="10.00">_inf_game.h</text>
</a>
</g>
</g>
<!-- Node1&#45;&gt;Node3 -->
<g id="edge56" class="edge">
<title>Node1&#45;&gt;Node3</title>
<path fill="none" stroke="midnightblue" d="M2166.53,-409.24C2148.57,-401.21 2126.02,-389.94 2107.73,-377 2017.21,-312.92 1927.97,-212.43 1896.57,-175.62"/>
<polygon fill="midnightblue" stroke="midnightblue" points="2165.41,-412.57 2175.97,-413.35 2168.2,-406.15 2165.41,-412.57"/>
</g>
<!-- Node18 -->
<g id="node10" class="node">
<title>Node18</title>
<g id="a_node10"><a xlink:href="d__kantera__icon__meter_8h.html" target="_top" xlink:title=" ">
<polygon fill="white" stroke="red" points="3645.23,-73 3645.23,-103 3746.23,-103 3746.23,-73 3645.23,-73"/>
<text text-anchor="start" x="3653.23" y="-91" font-family="Helvetica,sans-Serif" font-size="10.00">include/d/d_kantera</text>
<text text-anchor="middle" x="3695.73" y="-80" font-family="Helvetica,sans-Serif" font-size="10.00">_icon_meter.h</text>
</a>
</g>
</g>
<!-- Node1&#45;&gt;Node18 -->
<g id="edge59" class="edge">
<title>Node1&#45;&gt;Node18</title>
<path fill="none" stroke="midnightblue" d="M2181.21,-406.17C2158.85,-382.96 2121.73,-337.31 2121.73,-290 2121.73,-290 2121.73,-290 2121.73,-221 2121.73,-56.75 3432.83,-129.96 3595.73,-109 3611.89,-106.92 3629.35,-103.75 3645.09,-100.55"/>
<polygon fill="midnightblue" stroke="midnightblue" points="2178.88,-408.79 2188.41,-413.41 2183.84,-403.85 2178.88,-408.79"/>
</g>
<!-- Node102 -->
<g id="node38" class="node">
<title>Node102</title>
<g id="a_node38"><a xlink:href="d__a__player_8h.html" target="_top" xlink:title=" ">
<polygon fill="white" stroke="black" points="618.23,-352 618.23,-371 739.23,-371 739.23,-352 618.23,-352"/>
<text text-anchor="middle" x="678.73" y="-359" font-family="Helvetica,sans-Serif" font-size="10.00">include/d/a/d_a_player.h</text>
</a>
</g>
</g>
<!-- Node1&#45;&gt;Node102 -->
<g id="edge43" class="edge">
<title>Node1&#45;&gt;Node102</title>
<path fill="none" stroke="midnightblue" d="M2132.26,-419.44C1881.15,-409.6 981.65,-374.37 739.26,-364.87"/>
<polygon fill="midnightblue" stroke="midnightblue" points="2132.19,-422.94 2142.32,-419.83 2132.47,-415.94 2132.19,-422.94"/>
</g>
<!-- Node138 -->
<g id="node44" class="node">
<title>Node138</title>
<g id="a_node44"><a xlink:href="d__camera_8h.html" target="_top" xlink:title=" ">
<polygon fill="white" stroke="red" points="2861.23,-212.5 2861.23,-231.5 2970.23,-231.5 2970.23,-212.5 2861.23,-212.5"/>
<text text-anchor="middle" x="2915.73" y="-219.5" font-family="Helvetica,sans-Serif" font-size="10.00">include/d/d_camera.h</text>
</a>
</g>
</g>
<!-- Node1&#45;&gt;Node138 -->
<g id="edge57" class="edge">
<title>Node1&#45;&gt;Node138</title>
<path fill="none" stroke="midnightblue" d="M2197.05,-403.39C2197.48,-386 2201.06,-360.6 2216.73,-346 2310.5,-258.65 2713.34,-232.04 2861.11,-225.14"/>
<polygon fill="midnightblue" stroke="midnightblue" points="2193.55,-403.49 2197.12,-413.46 2200.55,-403.44 2193.55,-403.49"/>
</g>
<!-- Node143 -->
<g id="node45" class="node">
<title>Node143</title>
<g id="a_node45"><a xlink:href="d__select__cursor_8h.html" target="_top" xlink:title=" ">
<polygon fill="white" stroke="red" points="2226.23,-346.5 2226.23,-376.5 2321.23,-376.5 2321.23,-346.5 2226.23,-346.5"/>
<text text-anchor="start" x="2234.23" y="-364.5" font-family="Helvetica,sans-Serif" font-size="10.00">include/d/d_select</text>
<text text-anchor="middle" x="2273.73" y="-353.5" font-family="Helvetica,sans-Serif" font-size="10.00">_cursor.h</text>
</a>
</g>
</g>
<!-- Node1&#45;&gt;Node143 -->
<g id="edge60" class="edge">
<title>Node1&#45;&gt;Node143</title>
<path fill="none" stroke="midnightblue" d="M2216.64,-407.2C2228.63,-397.81 2244.03,-385.75 2255.82,-376.52"/>
<polygon fill="midnightblue" stroke="midnightblue" points="2214.34,-404.55 2208.62,-413.48 2218.65,-410.07 2214.34,-404.55"/>
</g>
<!-- Node162 -->
<g id="node46" class="node">
<title>Node162</title>
<g id="a_node46"><a xlink:href="d__map__path_8h.html" target="_top" xlink:title=" ">
<polygon fill="white" stroke="red" points="2339.73,-346.5 2339.73,-376.5 2449.73,-376.5 2449.73,-346.5 2339.73,-346.5"/>
<text text-anchor="start" x="2347.73" y="-364.5" font-family="Helvetica,sans-Serif" font-size="10.00">include/d/map/d_map</text>
<text text-anchor="middle" x="2394.73" y="-353.5" font-family="Helvetica,sans-Serif" font-size="10.00">_path.h</text>
</a>
</g>
</g>
<!-- Node1&#45;&gt;Node162 -->
<g id="edge61" class="edge">
<title>Node1&#45;&gt;Node162</title>
<path fill="none" stroke="midnightblue" d="M2235.86,-410.48C2267.98,-400.78 2314.04,-386.87 2348.3,-376.52"/>
<polygon fill="midnightblue" stroke="midnightblue" points="2234.52,-407.23 2225.96,-413.48 2236.54,-413.93 2234.52,-407.23"/>
</g>
<!-- Node165 -->
<g id="node47" class="node">
<title>Node165</title>
<g id="a_node47"><a xlink:href="d__menu__fmap_8h.html" target="_top" xlink:title=" ">
<polygon fill="white" stroke="red" points="2467.73,-346.5 2467.73,-376.5 2587.73,-376.5 2587.73,-346.5 2467.73,-346.5"/>
<text text-anchor="start" x="2475.73" y="-364.5" font-family="Helvetica,sans-Serif" font-size="10.00">include/d/menu/d_menu</text>
<text text-anchor="middle" x="2527.73" y="-353.5" font-family="Helvetica,sans-Serif" font-size="10.00">_fmap.h</text>
</a>
</g>
</g>
<!-- Node1&#45;&gt;Node165 -->
<g id="edge62" class="edge">
<title>Node1&#45;&gt;Node165</title>
<path fill="none" stroke="midnightblue" d="M2260.74,-411.8C2313.68,-403.07 2391.27,-389.9 2458.73,-377 2461.62,-376.45 2464.57,-375.87 2467.55,-375.28"/>
<polygon fill="midnightblue" stroke="midnightblue" points="2260.12,-408.35 2250.82,-413.43 2261.26,-415.26 2260.12,-408.35"/>
</g>
<!-- Node32 -->
<g id="node48" class="node">
<title>Node32</title>
<g id="a_node48"><a xlink:href="d__menu__window_8h.html" target="_top" xlink:title=" ">
<polygon fill="white" stroke="red" points="2605.73,-346.5 2605.73,-376.5 2725.73,-376.5 2725.73,-346.5 2605.73,-346.5"/>
<text text-anchor="start" x="2613.73" y="-364.5" font-family="Helvetica,sans-Serif" font-size="10.00">include/d/menu/d_menu</text>
<text text-anchor="middle" x="2665.73" y="-353.5" font-family="Helvetica,sans-Serif" font-size="10.00">_window.h</text>
</a>
</g>
</g>
<!-- Node1&#45;&gt;Node32 -->
<g id="edge63" class="edge">
<title>Node1&#45;&gt;Node32</title>
<path fill="none" stroke="midnightblue" d="M2263.13,-416.54C2342.38,-409.49 2479.82,-395.83 2596.73,-377 2599.63,-376.53 2602.6,-376.03 2605.58,-375.49"/>
<polygon fill="midnightblue" stroke="midnightblue" points="2262.47,-413.09 2252.82,-417.45 2263.09,-420.06 2262.47,-413.09"/>
</g>
<!-- Node167 -->
<g id="node49" class="node">
<title>Node167</title>
<g id="a_node49"><a xlink:href="d__meter2__draw_8h.html" target="_top" xlink:title=" ">
<polygon fill="white" stroke="red" points="2990.23,-145.5 2990.23,-175.5 3117.23,-175.5 3117.23,-145.5 2990.23,-145.5"/>
<text text-anchor="start" x="2998.23" y="-163.5" font-family="Helvetica,sans-Serif" font-size="10.00">include/d/meter/d_meter2</text>
<text text-anchor="middle" x="3053.73" y="-152.5" font-family="Helvetica,sans-Serif" font-size="10.00">_draw.h</text>
</a>
</g>
</g>
<!-- Node1&#45;&gt;Node167 -->
<g id="edge64" class="edge">
<title>Node1&#45;&gt;Node167</title>
<path fill="none" stroke="midnightblue" d="M2193.36,-402.96C2190.65,-387.08 2189,-364.17 2196.73,-346 2216.29,-300.01 2232.76,-289.8 2277.73,-268 2403.53,-207 2827.89,-175.28 2990.03,-165.16"/>
<polygon fill="midnightblue" stroke="midnightblue" points="2190,-404.01 2195.39,-413.13 2196.86,-402.63 2190,-404.01"/>
</g>
<!-- Node168 -->
<g id="node50" class="node">
<title>Node168</title>
<g id="a_node50"><a xlink:href="d__drawlist_8cpp.html" target="_top" xlink:title=" ">
<polygon fill="white" stroke="black" points="2743.73,-352 2743.73,-371 2847.73,-371 2847.73,-352 2743.73,-352"/>
<text text-anchor="middle" x="2795.73" y="-359" font-family="Helvetica,sans-Serif" font-size="10.00">src/d/d_drawlist.cpp</text>
</a>
</g>
</g>
<!-- Node1&#45;&gt;Node168 -->
<g id="edge66" class="edge">
<title>Node1&#45;&gt;Node168</title>
<path fill="none" stroke="midnightblue" d="M2263.04,-419.68C2364.51,-415.37 2565.93,-403.98 2734.73,-377 2744.3,-375.47 2754.59,-373.25 2763.94,-371.01"/>
<polygon fill="midnightblue" stroke="midnightblue" points="2262.79,-416.19 2252.95,-420.1 2263.08,-423.18 2262.79,-416.19"/>
</g>
<!-- Node2&#45;&gt;Node3 -->
<g id="edge2" class="edge">
<title>Node2&#45;&gt;Node3</title>
<path fill="none" stroke="midnightblue" d="M598.14,-218C834.68,-207.61 1615.16,-173.34 1829.73,-163.92"/>
<polygon fill="midnightblue" stroke="midnightblue" points="597.79,-214.51 587.96,-218.44 598.1,-221.5 597.79,-214.51"/>
</g>
<!-- Node13 -->
<g id="node7" class="node">
<title>Node13</title>
<g id="a_node7"><a xlink:href="d__a__alink_8cpp.html" target="_top" xlink:title=" ">
<polygon fill="white" stroke="black" points="276.23,-6 276.23,-25 385.23,-25 385.23,-6 276.23,-6"/>
<text text-anchor="middle" x="330.73" y="-13" font-family="Helvetica,sans-Serif" font-size="10.00">src/d/a/d_a_alink.cpp</text>
</a>
</g>
</g>
<!-- Node2&#45;&gt;Node13 -->
<g id="edge42" class="edge">
<title>Node2&#45;&gt;Node13</title>
<path fill="none" stroke="midnightblue" d="M461.16,-216.35C334.71,-206.2 72.67,-177.25 17.73,-109 -41.87,-34.94 84.91,-64.69 266.73,-31 276.03,-29.28 286.03,-27.15 295.29,-25.06"/>
<polygon fill="midnightblue" stroke="midnightblue" points="461.25,-219.87 471.5,-217.16 461.8,-212.89 461.25,-219.87"/>
</g>
<!-- Node4 -->
<g id="node4" class="node">
<title>Node4</title>
<g id="a_node4"><a xlink:href="d__a__npc_8h.html" target="_top" xlink:title=" ">
<polygon fill="white" stroke="red" points="3302.23,-78.5 3302.23,-97.5 3413.23,-97.5 3413.23,-78.5 3302.23,-78.5"/>
<text text-anchor="middle" x="3357.73" y="-85.5" font-family="Helvetica,sans-Serif" font-size="10.00">include/d/a/d_a_npc.h</text>
</a>
</g>
</g>
<!-- Node3&#45;&gt;Node4 -->
<g id="edge3" class="edge">
<title>Node3&#45;&gt;Node4</title>
<path fill="none" stroke="midnightblue" d="M1950.23,-154.64C1994.65,-151.5 2054.7,-147.53 2107.73,-145 2371.11,-132.44 3033.71,-152.73 3293.73,-109 3307.97,-106.61 3323.43,-101.84 3335.59,-97.56"/>
<polygon fill="midnightblue" stroke="midnightblue" points="1949.87,-151.16 1940.15,-155.36 1950.37,-158.14 1949.87,-151.16"/>
</g>
<!-- Node10 -->
<g id="node5" class="node">
<title>Node10</title>
<g id="a_node5"><a xlink:href="d__cc__uty_8h.html" target="_top" xlink:title=" ">
<polygon fill="white" stroke="red" points="3431.23,-78.5 3431.23,-97.5 3550.23,-97.5 3550.23,-78.5 3431.23,-78.5"/>
<text text-anchor="middle" x="3490.73" y="-85.5" font-family="Helvetica,sans-Serif" font-size="10.00">include/d/cc/d_cc_uty.h</text>
</a>
</g>
</g>
<!-- Node3&#45;&gt;Node10 -->
<g id="edge4" class="edge">
<title>Node3&#45;&gt;Node10</title>
<path fill="none" stroke="midnightblue" d="M1950.23,-154.59C1994.64,-151.42 2054.7,-147.45 2107.73,-145 2399.75,-131.51 3133.98,-154.62 3422.73,-109 3437.8,-106.62 3454.23,-101.85 3467.16,-97.57"/>
<polygon fill="midnightblue" stroke="midnightblue" points="1949.87,-151.11 1940.14,-155.32 1950.37,-158.09 1949.87,-151.11"/>
</g>
<!-- Node12 -->
<g id="node6" class="node">
<title>Node12</title>
<g id="a_node6"><a xlink:href="d__item_8h.html" target="_top" xlink:title=" ">
<polygon fill="white" stroke="red" points="405.23,-78.5 405.23,-97.5 500.23,-97.5 500.23,-78.5 405.23,-78.5"/>
<text text-anchor="middle" x="452.73" y="-85.5" font-family="Helvetica,sans-Serif" font-size="10.00">include/d/d_item.h</text>
</a>
</g>
</g>
<!-- Node3&#45;&gt;Node12 -->
<g id="edge5" class="edge">
<title>Node3&#45;&gt;Node12</title>
<path fill="none" stroke="midnightblue" d="M1819.32,-159.74C1581.66,-160.22 764.48,-158.15 508.73,-109 496.16,-106.58 482.63,-101.82 472.02,-97.54"/>
<polygon fill="midnightblue" stroke="midnightblue" points="1819.54,-163.24 1829.53,-159.72 1819.52,-156.24 1819.54,-163.24"/>
</g>
<!-- Node3&#45;&gt;Node13 -->
<g id="edge26" class="edge">
<title>Node3&#45;&gt;Node13</title>
<path fill="none" stroke="midnightblue" d="M1819.15,-158.9C1539.62,-156.14 459.07,-143.28 395.73,-109 378.13,-99.47 347.3,-46.39 335.51,-25.22"/>
<polygon fill="midnightblue" stroke="midnightblue" points="1819.49,-162.4 1829.53,-159 1819.56,-155.4 1819.49,-162.4"/>
</g>
<!-- Node14 -->
<g id="node8" class="node">
<title>Node14</title>
<g id="a_node8"><a xlink:href="d__a__obj__item_8cpp.html" target="_top" xlink:title=" ">
<polygon fill="white" stroke="black" points="1911.23,-6 1911.23,-25 2036.23,-25 2036.23,-6 1911.23,-6"/>
<text text-anchor="middle" x="1973.73" y="-13" font-family="Helvetica,sans-Serif" font-size="10.00">src/d/a/d_a_obj_item.cpp</text>
</a>
</g>
</g>
<!-- Node3&#45;&gt;Node14 -->
<g id="edge28" class="edge">
<title>Node3&#45;&gt;Node14</title>
<path fill="none" stroke="midnightblue" d="M1950.23,-154.55C1994.64,-151.36 2054.7,-147.38 2107.73,-145 2148.04,-143.19 3531.56,-137.88 3559.73,-109 3572.77,-95.64 3572.72,-80.41 3559.73,-67 3546.24,-53.07 2328.62,-24.56 2036.3,-17.91"/>
<polygon fill="midnightblue" stroke="midnightblue" points="1949.86,-151.06 1940.14,-155.28 1950.37,-158.05 1949.86,-151.06"/>
</g>
<!-- Node15 -->
<g id="node9" class="node">
<title>Node15</title>
<g id="a_node9"><a xlink:href="d__com__inf__game_8cpp.html" target="_top" xlink:title=" ">
<polygon fill="white" stroke="black" points="2808.73,-0.5 2808.73,-30.5 2916.73,-30.5 2916.73,-0.5 2808.73,-0.5"/>
<text text-anchor="start" x="2816.73" y="-18.5" font-family="Helvetica,sans-Serif" font-size="10.00">src/d/com/d_com_inf</text>
<text text-anchor="middle" x="2862.73" y="-7.5" font-family="Helvetica,sans-Serif" font-size="10.00">_game.cpp</text>
</a>
</g>
</g>
<!-- Node3&#45;&gt;Node15 -->
<g id="edge34" class="edge">
<title>Node3&#45;&gt;Node15</title>
<path fill="none" stroke="midnightblue" d="M1950.23,-154.54C1994.64,-151.35 2054.7,-147.37 2107.73,-145 2148.54,-143.17 3549.21,-138.23 3577.73,-109 3590.77,-95.64 3590.46,-80.66 3577.73,-67 3532.95,-18.95 3075.73,-15.81 2916.81,-16.18"/>
<polygon fill="midnightblue" stroke="midnightblue" points="1949.86,-151.06 1940.14,-155.27 1950.37,-158.04 1949.86,-151.06"/>
</g>
<!-- Node3&#45;&gt;Node18 -->
<g id="edge9" class="edge">
<title>Node3&#45;&gt;Node18</title>
<path fill="none" stroke="midnightblue" d="M1950.23,-154.53C1994.64,-151.33 2054.69,-147.35 2107.73,-145 2445.94,-130.01 3296.58,-163.29 3630.73,-109 3639.12,-107.64 3647.94,-105.46 3656.27,-103.03"/>
<polygon fill="midnightblue" stroke="midnightblue" points="1949.86,-151.04 1940.14,-155.26 1950.37,-158.03 1949.86,-151.04"/>
</g>
<!-- Node21 -->
<g id="node11" class="node">
<title>Node21</title>
<g id="a_node11"><a xlink:href="d__model_8h.html" target="_top" xlink:title=" ">
<polygon fill="white" stroke="red" points="518.23,-78.5 518.23,-97.5 621.23,-97.5 621.23,-78.5 518.23,-78.5"/>
<text text-anchor="middle" x="569.73" y="-85.5" font-family="Helvetica,sans-Serif" font-size="10.00">include/d/d_model.h</text>
</a>
</g>
</g>
<!-- Node3&#45;&gt;Node21 -->
<g id="edge10" class="edge">
<title>Node3&#45;&gt;Node21</title>
<path fill="none" stroke="midnightblue" d="M1819.19,-159.29C1595.22,-158.2 861.33,-151.38 629.73,-109 616.34,-106.55 601.84,-101.78 590.46,-97.51"/>
<polygon fill="midnightblue" stroke="midnightblue" points="1819.45,-162.79 1829.47,-159.34 1819.48,-155.79 1819.45,-162.79"/>
</g>
<!-- Node23 -->
<g id="node12" class="node">
<title>Node23</title>
<g id="a_node12"><a xlink:href="d__name_8h.html" target="_top" xlink:title=" ">
<polygon fill="white" stroke="red" points="639.23,-78.5 639.23,-97.5 740.23,-97.5 740.23,-78.5 639.23,-78.5"/>
<text text-anchor="middle" x="689.73" y="-85.5" font-family="Helvetica,sans-Serif" font-size="10.00">include/d/d_name.h</text>
</a>
</g>
</g>
<!-- Node3&#45;&gt;Node23 -->
<g id="edge11" class="edge">
<title>Node3&#45;&gt;Node23</title>
<path fill="none" stroke="midnightblue" d="M1819.18,-158.96C1609.53,-156.88 957.03,-147.39 749.73,-109 736.45,-106.54 722.08,-101.83 710.74,-97.59"/>
<polygon fill="midnightblue" stroke="midnightblue" points="1819.38,-162.47 1829.41,-159.06 1819.45,-155.47 1819.38,-162.47"/>
</g>
<!-- Node25 -->
<g id="node13" class="node">
<title>Node25</title>
<g id="a_node13"><a xlink:href="d__file__sel__info_8h.html" target="_top" xlink:title=" ">
<polygon fill="white" stroke="red" points="758.73,-73 758.73,-103 854.73,-103 854.73,-73 758.73,-73"/>
<text text-anchor="start" x="766.73" y="-91" font-family="Helvetica,sans-Serif" font-size="10.00">include/d/file/d_file</text>
<text text-anchor="middle" x="806.73" y="-80" font-family="Helvetica,sans-Serif" font-size="10.00">_sel_info.h</text>
</a>
</g>
</g>
<!-- Node3&#45;&gt;Node25 -->
<g id="edge12" class="edge">
<title>Node3&#45;&gt;Node25</title>
<path fill="none" stroke="midnightblue" d="M1819.51,-158.72C1624.47,-156.01 1047.88,-145.07 863.73,-109 856.53,-107.59 849,-105.45 841.87,-103.1"/>
<polygon fill="midnightblue" stroke="midnightblue" points="1819.56,-162.22 1829.61,-158.86 1819.65,-155.22 1819.56,-162.22"/>
</g>
<!-- Node28 -->
<g id="node14" class="node">
<title>Node28</title>
<g id="a_node14"><a xlink:href="d__file__sel__warning_8h.html" target="_top" xlink:title=" ">
<polygon fill="white" stroke="red" points="872.73,-73 872.73,-103 968.73,-103 968.73,-73 872.73,-73"/>
<text text-anchor="start" x="880.73" y="-91" font-family="Helvetica,sans-Serif" font-size="10.00">include/d/file/d_file</text>
<text text-anchor="middle" x="920.73" y="-80" font-family="Helvetica,sans-Serif" font-size="10.00">_sel_warning.h</text>
</a>
</g>
</g>
<!-- Node3&#45;&gt;Node28 -->
<g id="edge13" class="edge">
<title>Node3&#45;&gt;Node28</title>
<path fill="none" stroke="midnightblue" d="M1819.49,-158.25C1639.58,-154.42 1139.04,-141.12 977.73,-109 970.53,-107.57 963.01,-105.42 955.88,-103.06"/>
<polygon fill="midnightblue" stroke="midnightblue" points="1819.53,-161.75 1829.6,-158.46 1819.68,-154.75 1819.53,-161.75"/>
</g>
<!-- Node30 -->
<g id="node15" class="node">
<title>Node30</title>
<g id="a_node15"><a xlink:href="d__meter2_8h.html" target="_top" xlink:title=" ">
<polygon fill="white" stroke="red" points="3764.73,-78.5 3764.73,-97.5 3898.73,-97.5 3898.73,-78.5 3764.73,-78.5"/>
<text text-anchor="middle" x="3831.73" y="-85.5" font-family="Helvetica,sans-Serif" font-size="10.00">include/d/meter/d_meter2.h</text>
</a>
</g>
</g>
<!-- Node3&#45;&gt;Node30 -->
<g id="edge14" class="edge">
<title>Node3&#45;&gt;Node30</title>
<path fill="none" stroke="midnightblue" d="M1950.1,-158.63C2260.05,-154.38 3574.34,-134.96 3755.73,-109 3772.48,-106.6 3790.83,-101.84 3805.31,-97.56"/>
<polygon fill="midnightblue" stroke="midnightblue" points="1949.88,-155.13 1939.93,-158.77 1949.97,-162.13 1949.88,-155.13"/>
</g>
<!-- Node37 -->
<g id="node16" class="node">
<title>Node37</title>
<g id="a_node16"><a xlink:href="d__msg__object_8h.html" target="_top" xlink:title=" ">
<polygon fill="white" stroke="red" points="238.73,-73 238.73,-103 348.73,-103 348.73,-73 238.73,-73"/>
<text text-anchor="start" x="246.73" y="-91" font-family="Helvetica,sans-Serif" font-size="10.00">include/d/msg/d_msg</text>
<text text-anchor="middle" x="293.73" y="-80" font-family="Helvetica,sans-Serif" font-size="10.00">_object.h</text>
</a>
</g>
</g>
<!-- Node3&#45;&gt;Node37 -->
<g id="edge15" class="edge">
<title>Node3&#45;&gt;Node37</title>
<path fill="none" stroke="midnightblue" d="M1819.35,-159.49C1566.11,-159.13 649.72,-154.62 362.73,-109 353.99,-107.61 344.78,-105.45 336.05,-103.06"/>
<polygon fill="midnightblue" stroke="midnightblue" points="1819.49,-162.99 1829.49,-159.51 1819.5,-155.99 1819.49,-162.99"/>
</g>
<!-- Node42 -->
<g id="node17" class="node">
<title>Node42</title>
<g id="a_node17"><a xlink:href="d__demo_8cpp.html" target="_top" xlink:title=" ">
<polygon fill="white" stroke="black" points="163.73,-6 163.73,-25 257.73,-25 257.73,-6 163.73,-6"/>
<text text-anchor="middle" x="210.73" y="-13" font-family="Helvetica,sans-Serif" font-size="10.00">src/d/d_demo.cpp</text>
</a>
</g>
</g>
<!-- Node3&#45;&gt;Node42 -->
<g id="edge38" class="edge">
<title>Node3&#45;&gt;Node42</title>
<path fill="none" stroke="midnightblue" d="M1819.37,-159.75C1520,-160.62 291.52,-160.98 229.73,-109 204.77,-88 207.13,-43.75 209.43,-25.09"/>
<polygon fill="midnightblue" stroke="midnightblue" points="1819.64,-163.25 1829.63,-159.72 1819.62,-156.25 1819.64,-163.25"/>
</g>
<!-- Node51 -->
<g id="node18" class="node">
<title>Node51</title>
<g id="a_node18"><a xlink:href="d__s__logo_8h.html" target="_top" xlink:title=" ">
<polygon fill="white" stroke="red" points="987.23,-78.5 987.23,-97.5 1100.23,-97.5 1100.23,-78.5 987.23,-78.5"/>
<text text-anchor="middle" x="1043.73" y="-85.5" font-family="Helvetica,sans-Serif" font-size="10.00">include/d/s/d_s_logo.h</text>
</a>
</g>
</g>
<!-- Node3&#45;&gt;Node51 -->
<g id="edge18" class="edge">
<title>Node3&#45;&gt;Node51</title>
<path fill="none" stroke="midnightblue" d="M1819.51,-160.36C1685.27,-161.02 1368.85,-156.8 1108.73,-109 1094.57,-106.4 1079.14,-101.73 1066.87,-97.56"/>
<polygon fill="midnightblue" stroke="midnightblue" points="1819.65,-163.86 1829.63,-160.3 1819.6,-156.86 1819.65,-163.86"/>
</g>
<!-- Node53 -->
<g id="node19" class="node">
<title>Node53</title>
<g id="a_node19"><a xlink:href="d__s__play_8h.html" target="_top" xlink:title=" ">
<polygon fill="white" stroke="red" points="1118.23,-78.5 1118.23,-97.5 1231.23,-97.5 1231.23,-78.5 1118.23,-78.5"/>
<text text-anchor="middle" x="1174.73" y="-85.5" font-family="Helvetica,sans-Serif" font-size="10.00">include/d/s/d_s_play.h</text>
</a>
</g>
</g>
<!-- Node3&#45;&gt;Node53 -->
<g id="edge19" class="edge">
<title>Node3&#45;&gt;Node53</title>
<path fill="none" stroke="midnightblue" d="M1819.16,-159.11C1701.86,-157.38 1448.85,-148.85 1239.73,-109 1225.7,-106.33 1210.41,-101.71 1198.19,-97.59"/>
<polygon fill="midnightblue" stroke="midnightblue" points="1819.35,-162.62 1829.4,-159.25 1819.45,-155.62 1819.35,-162.62"/>
</g>
<!-- Node57 -->
<g id="node20" class="node">
<title>Node57</title>
<g id="a_node20"><a xlink:href="d__msg__scrn__base_8h.html" target="_top" xlink:title=" ">
<polygon fill="white" stroke="red" points="1249.23,-73 1249.23,-103 1348.23,-103 1348.23,-73 1249.23,-73"/>
<text text-anchor="start" x="1257.23" y="-91" font-family="Helvetica,sans-Serif" font-size="10.00">include/msg/scrn/d</text>
<text text-anchor="middle" x="1298.73" y="-80" font-family="Helvetica,sans-Serif" font-size="10.00">_msg_scrn_base.h</text>
</a>
</g>
</g>
<!-- Node3&#45;&gt;Node57 -->
<g id="edge20" class="edge">
<title>Node3&#45;&gt;Node57</title>
<path fill="none" stroke="midnightblue" d="M1819.43,-158.21C1718.94,-155.11 1520.78,-144.6 1356.73,-109 1349.65,-107.46 1342.24,-105.33 1335.18,-103.03"/>
<polygon fill="midnightblue" stroke="midnightblue" points="1819.63,-161.71 1829.73,-158.51 1819.84,-154.72 1819.63,-161.71"/>
</g>
<!-- Node61 -->
<g id="node21" class="node">
<title>Node61</title>
<g id="a_node21"><a xlink:href="d__a__b__zant_8h.html" target="_top" xlink:title=" ">
<polygon fill="white" stroke="black" points="1366.23,-73 1366.23,-103 1487.23,-103 1487.23,-73 1366.23,-73"/>
<text text-anchor="start" x="1374.23" y="-91" font-family="Helvetica,sans-Serif" font-size="10.00">include/rel/d/a/b/d</text>
<text text-anchor="middle" x="1426.73" y="-80" font-family="Helvetica,sans-Serif" font-size="10.00">_a_b_zant/d_a_b_zant.h</text>
</a>
</g>
</g>
<!-- Node3&#45;&gt;Node61 -->
<g id="edge21" class="edge">
<title>Node3&#45;&gt;Node61</title>
<path fill="none" stroke="midnightblue" d="M1819.59,-154.01C1742.11,-146.79 1609.1,-132.23 1496.73,-109 1488.69,-107.34 1480.21,-105.23 1472.05,-103.01"/>
<polygon fill="midnightblue" stroke="midnightblue" points="1819.41,-157.51 1829.69,-154.94 1820.05,-150.54 1819.41,-157.51"/>
</g>
<!-- Node62 -->
<g id="node22" class="node">
<title>Node62</title>
<g id="a_node22"><a xlink:href="d__a__spinner_8h.html" target="_top" xlink:title=" ">
<polygon fill="white" stroke="black" points="1505.73,-73 1505.73,-103 1621.73,-103 1621.73,-73 1505.73,-73"/>
<text text-anchor="start" x="1513.73" y="-91" font-family="Helvetica,sans-Serif" font-size="10.00">include/rel/d/a/d_a</text>
<text text-anchor="middle" x="1563.73" y="-80" font-family="Helvetica,sans-Serif" font-size="10.00">_spinner/d_a_spinner.h</text>
</a>
</g>
</g>
<!-- Node3&#45;&gt;Node62 -->
<g id="edge22" class="edge">
<title>Node3&#45;&gt;Node62</title>
<path fill="none" stroke="midnightblue" d="M1819.4,-148.25C1767.88,-138.97 1694.35,-124.78 1630.73,-109 1623.55,-107.22 1615.98,-105.15 1608.62,-103.03"/>
<polygon fill="midnightblue" stroke="midnightblue" points="1818.94,-151.73 1829.4,-150.05 1820.18,-144.84 1818.94,-151.73"/>
</g>
<!-- Node63 -->
<g id="node23" class="node">
<title>Node63</title>
<g id="a_node23"><a xlink:href="d__a__obj__yobikusa_8h.html" target="_top" xlink:title=" ">
<polygon fill="white" stroke="black" points="1640.23,-67.5 1640.23,-108.5 1745.23,-108.5 1745.23,-67.5 1640.23,-67.5"/>
<text text-anchor="start" x="1648.23" y="-96.5" font-family="Helvetica,sans-Serif" font-size="10.00">include/rel/d/a/obj</text>
<text text-anchor="start" x="1648.23" y="-85.5" font-family="Helvetica,sans-Serif" font-size="10.00">/d_a_obj_yobikusa/d</text>
<text text-anchor="middle" x="1692.73" y="-74.5" font-family="Helvetica,sans-Serif" font-size="10.00">_a_obj_yobikusa.h</text>
</a>
</g>
</g>
<!-- Node3&#45;&gt;Node63 -->
<g id="edge23" class="edge">
<title>Node3&#45;&gt;Node63</title>
<path fill="none" stroke="midnightblue" d="M1836.82,-141.91C1808.97,-131.68 1773.84,-118.78 1745.24,-108.28"/>
<polygon fill="midnightblue" stroke="midnightblue" points="1835.75,-145.24 1846.34,-145.4 1838.16,-138.67 1835.75,-145.24"/>
</g>
<!-- Node64 -->
<g id="node24" class="node">
<title>Node64</title>
<g id="a_node24"><a xlink:href="d__a__tag__telop_8h.html" target="_top" xlink:title=" ">
<polygon fill="white" stroke="black" points="1763.73,-67.5 1763.73,-108.5 1881.73,-108.5 1881.73,-67.5 1763.73,-67.5"/>
<text text-anchor="start" x="1771.73" y="-96.5" font-family="Helvetica,sans-Serif" font-size="10.00">include/rel/d/a/tag</text>
<text text-anchor="start" x="1771.73" y="-85.5" font-family="Helvetica,sans-Serif" font-size="10.00">/d_a_tag_telop/d_a_tag</text>
<text text-anchor="middle" x="1822.73" y="-74.5" font-family="Helvetica,sans-Serif" font-size="10.00">_telop.h</text>
</a>
</g>
</g>
<!-- Node3&#45;&gt;Node64 -->
<g id="edge24" class="edge">
<title>Node3&#45;&gt;Node64</title>
<path fill="none" stroke="midnightblue" d="M1865.42,-137.54C1857.27,-128.28 1847.87,-117.58 1839.96,-108.59"/>
<polygon fill="midnightblue" stroke="midnightblue" points="1862.95,-140.04 1872.19,-145.23 1868.21,-135.41 1862.95,-140.04"/>
</g>
<!-- Node65 -->
<g id="node25" class="node">
<title>Node65</title>
<g id="a_node25"><a xlink:href="c__dylink_8cpp.html" target="_top" xlink:title=" ">
<polygon fill="white" stroke="black" points="1900.23,-78.5 1900.23,-97.5 1995.23,-97.5 1995.23,-78.5 1900.23,-78.5"/>
<text text-anchor="middle" x="1947.73" y="-85.5" font-family="Helvetica,sans-Serif" font-size="10.00">src/c/c_dylink.cpp</text>
</a>
</g>
</g>
<!-- Node3&#45;&gt;Node65 -->
<g id="edge25" class="edge">
<title>Node3&#45;&gt;Node65</title>
<path fill="none" stroke="midnightblue" d="M1904.16,-137.76C1916.15,-124.34 1930.89,-107.85 1939.79,-97.89"/>
<polygon fill="midnightblue" stroke="midnightblue" points="1901.53,-135.44 1897.48,-145.23 1906.75,-140.11 1901.53,-135.44"/>
</g>
<!-- Node66 -->
<g id="node26" class="node">
<title>Node66</title>
<g id="a_node26"><a xlink:href="d__a__itembase_8cpp.html" target="_top" xlink:title=" ">
<polygon fill="white" stroke="black" points="2013.73,-78.5 2013.73,-97.5 2141.73,-97.5 2141.73,-78.5 2013.73,-78.5"/>
<text text-anchor="middle" x="2077.73" y="-85.5" font-family="Helvetica,sans-Serif" font-size="10.00">src/d/a/d_a_itembase.cpp</text>
</a>
</g>
</g>
<!-- Node3&#45;&gt;Node66 -->
<g id="edge27" class="edge">
<title>Node3&#45;&gt;Node66</title>
<path fill="none" stroke="midnightblue" d="M1932.85,-141.92C1971.6,-127.77 2024.38,-108.49 2054.37,-97.53"/>
<polygon fill="midnightblue" stroke="midnightblue" points="1931.52,-138.68 1923.32,-145.4 1933.92,-145.26 1931.52,-138.68"/>
</g>
<!-- Node67 -->
<g id="node27" class="node">
<title>Node67</title>
<g id="a_node27"><a xlink:href="d__a__player_8cpp.html" target="_top" xlink:title=" ">
<polygon fill="white" stroke="black" points="68.73,-78.5 68.73,-97.5 182.73,-97.5 182.73,-78.5 68.73,-78.5"/>
<text text-anchor="middle" x="125.73" y="-85.5" font-family="Helvetica,sans-Serif" font-size="10.00">src/d/a/d_a_player.cpp</text>
</a>
</g>
</g>
<!-- Node3&#45;&gt;Node67 -->
<g id="edge29" class="edge">
<title>Node3&#45;&gt;Node67</title>
<path fill="none" stroke="midnightblue" d="M1819.51,-159.68C1549.47,-160.08 518.08,-158.3 196.73,-109 181.04,-106.59 163.89,-101.82 150.38,-97.55"/>
<polygon fill="midnightblue" stroke="midnightblue" points="1819.56,-163.18 1829.55,-159.66 1819.54,-156.18 1819.56,-163.18"/>
</g>
<!-- Node68 -->
<g id="node28" class="node">
<title>Node68</title>
<g id="a_node28"><a xlink:href="d__bg__s_8cpp.html" target="_top" xlink:title=" ">
<polygon fill="white" stroke="black" points="2159.73,-78.5 2159.73,-97.5 2263.73,-97.5 2263.73,-78.5 2159.73,-78.5"/>
<text text-anchor="middle" x="2211.73" y="-85.5" font-family="Helvetica,sans-Serif" font-size="10.00">src/d/bg/d_bg_s.cpp</text>
</a>
</g>
</g>
<!-- Node3&#45;&gt;Node68 -->
<g id="edge30" class="edge">
<title>Node3&#45;&gt;Node68</title>
<path fill="none" stroke="midnightblue" d="M1950.11,-149.51C2004.28,-140.65 2083.06,-126.44 2150.73,-109 2163.25,-105.77 2176.95,-101.36 2188.19,-97.51"/>
<polygon fill="midnightblue" stroke="midnightblue" points="1949.27,-146.1 1939.96,-151.15 1950.39,-153.01 1949.27,-146.1"/>
</g>
<!-- Node69 -->
<g id="node29" class="node">
<title>Node69</title>
<g id="a_node29"><a xlink:href="d__bg__s__movebg__actor_8cpp.html" target="_top" xlink:title=" ">
<polygon fill="white" stroke="black" points="2281.73,-73 2281.73,-103 2407.73,-103 2407.73,-73 2281.73,-73"/>
<text text-anchor="start" x="2289.73" y="-91" font-family="Helvetica,sans-Serif" font-size="10.00">src/d/bg/d_bg_s_movebg</text>
<text text-anchor="middle" x="2344.73" y="-80" font-family="Helvetica,sans-Serif" font-size="10.00">_actor.cpp</text>
</a>
</g>
</g>
<!-- Node3&#45;&gt;Node69 -->
<g id="edge31" class="edge">
<title>Node3&#45;&gt;Node69</title>
<path fill="none" stroke="midnightblue" d="M1949.84,-153.87C2027.3,-146.51 2160.28,-131.82 2272.73,-109 2280.87,-107.35 2289.44,-105.27 2297.71,-103.09"/>
<polygon fill="midnightblue" stroke="midnightblue" points="1949.38,-150.39 1939.75,-154.81 1950.04,-157.36 1949.38,-150.39"/>
</g>
<!-- Node70 -->
<g id="node30" class="node">
<title>Node70</title>
<g id="a_node30"><a xlink:href="d__bg__w_8cpp.html" target="_top" xlink:title=" ">
<polygon fill="white" stroke="black" points="2426.23,-78.5 2426.23,-97.5 2533.23,-97.5 2533.23,-78.5 2426.23,-78.5"/>
<text text-anchor="middle" x="2479.73" y="-85.5" font-family="Helvetica,sans-Serif" font-size="10.00">src/d/bg/d_bg_w.cpp</text>
</a>
</g>
</g>
<!-- Node3&#45;&gt;Node70 -->
<g id="edge32" class="edge">
<title>Node3&#45;&gt;Node70</title>
<path fill="none" stroke="midnightblue" d="M1950.28,-155.03C2072.15,-146.43 2329.17,-126.84 2416.73,-109 2430.34,-106.23 2445.16,-101.61 2457,-97.51"/>
<polygon fill="midnightblue" stroke="midnightblue" points="1949.71,-151.56 1939.98,-155.75 1950.2,-158.54 1949.71,-151.56"/>
</g>
<!-- Node71 -->
<g id="node31" class="node">
<title>Node71</title>
<g id="a_node31"><a xlink:href="d__cc__s_8cpp.html" target="_top" xlink:title=" ">
<polygon fill="white" stroke="black" points="2551.73,-78.5 2551.73,-97.5 2655.73,-97.5 2655.73,-78.5 2551.73,-78.5"/>
<text text-anchor="middle" x="2603.73" y="-85.5" font-family="Helvetica,sans-Serif" font-size="10.00">src/d/cc/d_cc_s.cpp</text>
</a>
</g>
</g>
<!-- Node3&#45;&gt;Node71 -->
<g id="edge33" class="edge">
<title>Node3&#45;&gt;Node71</title>
<path fill="none" stroke="midnightblue" d="M1950.11,-154.91C2110.77,-143.57 2513.99,-114.73 2542.73,-109 2556.07,-106.34 2570.55,-101.68 2582.05,-97.52"/>
<polygon fill="midnightblue" stroke="midnightblue" points="1949.61,-151.43 1939.88,-155.63 1950.1,-158.42 1949.61,-151.43"/>
</g>
<!-- Node72 -->
<g id="node32" class="node">
<title>Node72</title>
<g id="a_node32"><a xlink:href="d__com__static_8cpp.html" target="_top" xlink:title=" ">
<polygon fill="white" stroke="black" points="2673.73,-78.5 2673.73,-97.5 2813.73,-97.5 2813.73,-78.5 2673.73,-78.5"/>
<text text-anchor="middle" x="2743.73" y="-85.5" font-family="Helvetica,sans-Serif" font-size="10.00">src/d/com/d_com_static.cpp</text>
</a>
</g>
</g>
<!-- Node3&#45;&gt;Node72 -->
<g id="edge35" class="edge">
<title>Node3&#45;&gt;Node72</title>
<path fill="none" stroke="midnightblue" d="M1950.26,-155.23C1994.7,-152.34 2054.75,-148.43 2107.73,-145 2355.28,-128.95 2419.68,-147.6 2664.73,-109 2681.64,-106.34 2700.22,-101.72 2715.1,-97.6"/>
<polygon fill="midnightblue" stroke="midnightblue" points="1949.93,-151.75 1940.18,-155.89 1950.38,-158.73 1949.93,-151.75"/>
</g>
<!-- Node73 -->
<g id="node33" class="node">
<title>Node73</title>
<g id="a_node33"><a xlink:href="d__cam__param_8cpp.html" target="_top" xlink:title=" ">
<polygon fill="white" stroke="black" points="2832.23,-78.5 2832.23,-97.5 2953.23,-97.5 2953.23,-78.5 2832.23,-78.5"/>
<text text-anchor="middle" x="2892.73" y="-85.5" font-family="Helvetica,sans-Serif" font-size="10.00">src/d/d_cam_param.cpp</text>
</a>
</g>
</g>
<!-- Node3&#45;&gt;Node73 -->
<g id="edge36" class="edge">
<title>Node3&#45;&gt;Node73</title>
<path fill="none" stroke="midnightblue" d="M1950.25,-154.99C1994.67,-151.99 2054.73,-148.06 2107.73,-145 2425.38,-126.68 2508.84,-161.04 2822.73,-109 2838.07,-106.46 2854.83,-101.74 2868.1,-97.53"/>
<polygon fill="midnightblue" stroke="midnightblue" points="1949.9,-151.5 1940.16,-155.67 1950.38,-158.49 1949.9,-151.5"/>
</g>
<!-- Node74 -->
<g id="node34" class="node">
<title>Node74</title>
<g id="a_node34"><a xlink:href="d__camera_8cpp.html" target="_top" xlink:title=" ">
<polygon fill="white" stroke="black" points="3916.73,-78.5 3916.73,-97.5 4018.73,-97.5 4018.73,-78.5 3916.73,-78.5"/>
<text text-anchor="middle" x="3967.73" y="-85.5" font-family="Helvetica,sans-Serif" font-size="10.00">src/d/d_camera.cpp</text>
</a>
</g>
</g>
<!-- Node3&#45;&gt;Node74 -->
<g id="edge37" class="edge">
<title>Node3&#45;&gt;Node74</title>
<path fill="none" stroke="midnightblue" d="M1949.81,-158.42C2285.46,-152.77 3809.23,-126.25 3907.73,-109 3921.14,-106.65 3935.64,-101.89 3947.02,-97.6"/>
<polygon fill="midnightblue" stroke="midnightblue" points="1949.7,-154.92 1939.76,-158.59 1949.82,-161.92 1949.7,-154.92"/>
</g>
<!-- Node75 -->
<g id="node35" class="node">
<title>Node75</title>
<g id="a_node35"><a xlink:href="d__eye__hl_8cpp.html" target="_top" xlink:title=" ">
<polygon fill="white" stroke="black" points="2970.73,-78.5 2970.73,-97.5 3068.73,-97.5 3068.73,-78.5 2970.73,-78.5"/>
<text text-anchor="middle" x="3019.73" y="-85.5" font-family="Helvetica,sans-Serif" font-size="10.00">src/d/d_eye_hl.cpp</text>
</a>
</g>
</g>
<!-- Node3&#45;&gt;Node75 -->
<g id="edge39" class="edge">
<title>Node3&#45;&gt;Node75</title>
<path fill="none" stroke="midnightblue" d="M1950.24,-154.85C1994.66,-151.79 2054.72,-147.84 2107.73,-145 2297.63,-134.83 2775.98,-144.87 2962.73,-109 2975.5,-106.55 2989.28,-101.78 3000.08,-97.51"/>
<polygon fill="midnightblue" stroke="midnightblue" points="1949.89,-151.36 1940.16,-155.54 1950.37,-158.34 1949.89,-151.36"/>
</g>
<!-- Node76 -->
<g id="node36" class="node">
<title>Node76</title>
<g id="a_node36"><a xlink:href="d__kyeff_8cpp.html" target="_top" xlink:title=" ">
<polygon fill="white" stroke="black" points="3086.73,-78.5 3086.73,-97.5 3176.73,-97.5 3176.73,-78.5 3086.73,-78.5"/>
<text text-anchor="middle" x="3131.73" y="-85.5" font-family="Helvetica,sans-Serif" font-size="10.00">src/d/d_kyeff.cpp</text>
</a>
</g>
</g>
<!-- Node3&#45;&gt;Node76 -->
<g id="edge40" class="edge">
<title>Node3&#45;&gt;Node76</title>
<path fill="none" stroke="midnightblue" d="M1950.24,-154.76C1994.66,-151.66 2054.71,-147.71 2107.73,-145 2323.16,-134 2866.15,-150.99 3077.73,-109 3089.89,-106.59 3102.94,-101.82 3113.17,-97.54"/>
<polygon fill="midnightblue" stroke="midnightblue" points="1949.88,-151.28 1940.15,-155.47 1950.37,-158.26 1949.88,-151.28"/>
</g>
<!-- Node77 -->
<g id="node37" class="node">
<title>Node77</title>
<g id="a_node37"><a xlink:href="d__path_8cpp.html" target="_top" xlink:title=" ">
<polygon fill="white" stroke="black" points="3195.23,-78.5 3195.23,-97.5 3284.23,-97.5 3284.23,-78.5 3195.23,-78.5"/>
<text text-anchor="middle" x="3239.73" y="-85.5" font-family="Helvetica,sans-Serif" font-size="10.00">src/d/d_path.cpp</text>
</a>
</g>
</g>
<!-- Node3&#45;&gt;Node77 -->
<g id="edge41" class="edge">
<title>Node3&#45;&gt;Node77</title>
<path fill="none" stroke="midnightblue" d="M1950.23,-154.7C1994.65,-151.57 2054.71,-147.61 2107.73,-145 2347.13,-133.22 2950.54,-155.22 3185.73,-109 3197.9,-106.61 3210.95,-101.84 3221.17,-97.56"/>
<polygon fill="midnightblue" stroke="midnightblue" points="1949.88,-151.21 1940.15,-155.41 1950.37,-158.19 1949.88,-151.21"/>
</g>
<!-- Node12&#45;&gt;Node13 -->
<g id="edge6" class="edge">
<title>Node12&#45;&gt;Node13</title>
<path fill="none" stroke="midnightblue" d="M429.05,-73.31C404.43,-59.09 366.64,-37.25 345.81,-25.22"/>
<polygon fill="midnightblue" stroke="midnightblue" points="427.36,-76.38 437.77,-78.36 430.87,-70.32 427.36,-76.38"/>
</g>
<!-- Node12&#45;&gt;Node14 -->
<g id="edge7" class="edge">
<title>Node12&#45;&gt;Node14</title>
<path fill="none" stroke="midnightblue" d="M481.58,-74.79C490.16,-71.67 499.69,-68.73 508.73,-67 783.55,-14.51 1667,-14.93 1910.87,-16.1"/>
<polygon fill="midnightblue" stroke="midnightblue" points="480.1,-71.6 472.02,-78.45 482.61,-78.14 480.1,-71.6"/>
</g>
<!-- Node12&#45;&gt;Node15 -->
<g id="edge8" class="edge">
<title>Node12&#45;&gt;Node15</title>
<path fill="none" stroke="midnightblue" d="M481.35,-74.79C489.99,-71.65 499.61,-68.68 508.73,-67 567.16,-56.23 2462.13,-23.35 2808.62,-17.42"/>
<polygon fill="midnightblue" stroke="midnightblue" points="479.82,-71.63 471.75,-78.49 482.34,-78.16 479.82,-71.63"/>
</g>
<!-- Node37&#45;&gt;Node13 -->
<g id="edge16" class="edge">
<title>Node37&#45;&gt;Node13</title>
<path fill="none" stroke="midnightblue" d="M305.94,-63.74C312.83,-50.62 321.04,-34.98 326.07,-25.39"/>
<polygon fill="midnightblue" stroke="midnightblue" points="302.77,-62.25 301.22,-72.73 308.97,-65.51 302.77,-62.25"/>
</g>
<!-- Node37&#45;&gt;Node42 -->
<g id="edge17" class="edge">
<title>Node37&#45;&gt;Node42</title>
<path fill="none" stroke="midnightblue" d="M269.02,-66.01C253.07,-52.46 233.14,-35.53 221.2,-25.39"/>
<polygon fill="midnightblue" stroke="midnightblue" points="267.05,-68.93 276.94,-72.73 271.58,-63.59 267.05,-68.93"/>
</g>
<!-- Node102&#45;&gt;Node2 -->
<g id="edge44" class="edge">
<title>Node102&#45;&gt;Node2</title>
<path fill="none" stroke="midnightblue" d="M670.32,-342.77C660.02,-322.58 640.91,-289.59 616.73,-268 598.21,-251.47 572.52,-239.15 553.86,-231.63"/>
<polygon fill="midnightblue" stroke="midnightblue" points="667.21,-344.38 674.77,-351.8 673.48,-341.28 667.21,-344.38"/>
</g>
<!-- Node102&#45;&gt;Node67 -->
<g id="edge55" class="edge">
<title>Node102&#45;&gt;Node67</title>
<path fill="none" stroke="midnightblue" d="M608.05,-354.61C525.99,-346.9 396.33,-331.76 352.73,-310 244.46,-255.97 154.64,-131.59 131.51,-97.68"/>
<polygon fill="midnightblue" stroke="midnightblue" points="607.78,-358.1 618.06,-355.54 608.42,-351.13 607.78,-358.1"/>
</g>
<!-- Node103 -->
<g id="node39" class="node">
<title>Node103</title>
<g id="a_node39"><a xlink:href="d__bg__s__acch_8h.html" target="_top" xlink:title=" ">
<polygon fill="white" stroke="red" points="503.73,-274 503.73,-304 607.73,-304 607.73,-274 503.73,-274"/>
<text text-anchor="start" x="511.73" y="-292" font-family="Helvetica,sans-Serif" font-size="10.00">include/d/bg/d_bg_s</text>
<text text-anchor="middle" x="555.73" y="-281" font-family="Helvetica,sans-Serif" font-size="10.00">_acch.h</text>
</a>
</g>
</g>
<!-- Node102&#45;&gt;Node103 -->
<g id="edge45" class="edge">
<title>Node102&#45;&gt;Node103</title>
<path fill="none" stroke="midnightblue" d="M654.83,-346.8C633.36,-334.49 601.96,-316.5 580.29,-304.08"/>
<polygon fill="midnightblue" stroke="midnightblue" points="653.23,-349.92 663.65,-351.86 656.71,-343.85 653.23,-349.92"/>
</g>
<!-- Node133 -->
<g id="node40" class="node">
<title>Node133</title>
<g id="a_node40"><a xlink:href="d__attention_8h.html" target="_top" xlink:title=" ">
<polygon fill="white" stroke="red" points="663.73,-279.5 663.73,-298.5 777.73,-298.5 777.73,-279.5 663.73,-279.5"/>
<text text-anchor="middle" x="720.73" y="-286.5" font-family="Helvetica,sans-Serif" font-size="10.00">include/d/d_attention.h</text>
</a>
</g>
</g>
<!-- Node102&#45;&gt;Node133 -->
<g id="edge46" class="edge">
<title>Node102&#45;&gt;Node133</title>
<path fill="none" stroke="midnightblue" d="M689.1,-343.09C697.5,-329 708.97,-309.74 715.54,-298.72"/>
<polygon fill="midnightblue" stroke="midnightblue" points="685.99,-341.47 683.88,-351.86 692.01,-345.06 685.99,-341.47"/>
</g>
<!-- Node114 -->
<g id="node41" class="node">
<title>Node114</title>
<g id="a_node41"><a xlink:href="d__event_8h.html" target="_top" xlink:title=" ">
<polygon fill="white" stroke="red" points="1566.73,-212.5 1566.73,-231.5 1694.73,-231.5 1694.73,-212.5 1566.73,-212.5"/>
<text text-anchor="middle" x="1630.73" y="-219.5" font-family="Helvetica,sans-Serif" font-size="10.00">include/d/event/d_event.h</text>
</a>
</g>
</g>
<!-- Node102&#45;&gt;Node114 -->
<g id="edge49" class="edge">
<title>Node102&#45;&gt;Node114</title>
<path fill="none" stroke="midnightblue" d="M748.03,-350.49C927.38,-324.59 1404.44,-255.68 1571.75,-231.52"/>
<polygon fill="midnightblue" stroke="midnightblue" points="747.32,-347.06 737.92,-351.95 748.32,-353.99 747.32,-347.06"/>
</g>
<!-- Node136 -->
<g id="node42" class="node">
<title>Node136</title>
<g id="a_node42"><a xlink:href="d__a__crod_8h.html" target="_top" xlink:title=" ">
<polygon fill="white" stroke="black" points="474.73,-145.5 474.73,-175.5 570.73,-175.5 570.73,-145.5 474.73,-145.5"/>
<text text-anchor="start" x="482.73" y="-163.5" font-family="Helvetica,sans-Serif" font-size="10.00">include/rel/d/a/d_a</text>
<text text-anchor="middle" x="522.73" y="-152.5" font-family="Helvetica,sans-Serif" font-size="10.00">_crod/d_a_crod.h</text>
</a>
</g>
</g>
<!-- Node102&#45;&gt;Node136 -->
<g id="edge51" class="edge">
<title>Node102&#45;&gt;Node136</title>
<path fill="none" stroke="midnightblue" d="M732.08,-348.72C752.82,-341.25 774.5,-329.22 786.73,-310 796.75,-294.25 797.17,-283.47 786.73,-268 738.35,-196.31 632.75,-172.87 570.77,-165.21"/>
<polygon fill="midnightblue" stroke="midnightblue" points="730.74,-345.47 722.34,-351.93 732.93,-352.12 730.74,-345.47"/>
</g>
<!-- Node137 -->
<g id="node43" class="node">
<title>Node137</title>
<g id="a_node43"><a xlink:href="d__a__tag__mmsg_8h.html" target="_top" xlink:title=" ">
<polygon fill="white" stroke="black" points="361.73,-268.5 361.73,-309.5 485.73,-309.5 485.73,-268.5 361.73,-268.5"/>
<text text-anchor="start" x="369.73" y="-297.5" font-family="Helvetica,sans-Serif" font-size="10.00">include/rel/d/a/tag</text>
<text text-anchor="start" x="369.73" y="-286.5" font-family="Helvetica,sans-Serif" font-size="10.00">/d_a_tag_mmsg/d_a_tag</text>
<text text-anchor="middle" x="423.73" y="-275.5" font-family="Helvetica,sans-Serif" font-size="10.00">_mmsg.h</text>
</a>
</g>
</g>
<!-- Node102&#45;&gt;Node137 -->
<g id="edge53" class="edge">
<title>Node102&#45;&gt;Node137</title>
<path fill="none" stroke="midnightblue" d="M637.47,-349.26C600.16,-339.08 543.74,-323.63 494.73,-310 491.89,-309.21 488.99,-308.4 486.06,-307.58"/>
<polygon fill="midnightblue" stroke="midnightblue" points="636.89,-352.73 647.46,-351.99 638.73,-345.98 636.89,-352.73"/>
</g>
<!-- Node133&#45;&gt;Node2 -->
<g id="edge47" class="edge">
<title>Node133&#45;&gt;Node2</title>
<path fill="none" stroke="midnightblue" d="M685.77,-276.1C647.9,-263.21 588.42,-242.97 554.9,-231.56"/>
<polygon fill="midnightblue" stroke="midnightblue" points="684.77,-279.46 695.37,-279.37 687.03,-272.83 684.77,-279.46"/>
</g>
<!-- Node133&#45;&gt;Node3 -->
<g id="edge48" class="edge">
<title>Node133&#45;&gt;Node3</title>
<path fill="none" stroke="midnightblue" d="M788.02,-280.69C997.84,-257.88 1637.64,-188.35 1829.67,-167.48"/>
<polygon fill="midnightblue" stroke="midnightblue" points="787.62,-277.21 778.06,-281.77 788.38,-284.17 787.62,-277.21"/>
</g>
<!-- Node114&#45;&gt;Node3 -->
<g id="edge50" class="edge">
<title>Node114&#45;&gt;Node3</title>
<path fill="none" stroke="midnightblue" d="M1677.04,-210.15C1720.04,-200.08 1784.11,-185.07 1829.7,-174.39"/>
<polygon fill="midnightblue" stroke="midnightblue" points="1676.06,-206.79 1667.12,-212.48 1677.66,-213.6 1676.06,-206.79"/>
</g>
<!-- Node136&#45;&gt;Node13 -->
<g id="edge52" class="edge">
<title>Node136&#45;&gt;Node13</title>
<path fill="none" stroke="midnightblue" d="M464.18,-157.4C345.67,-152.54 86.3,-138.62 59.73,-109 -55.03,18.96 -12.97,-86.97 266.73,-31 275.78,-29.19 285.51,-27.07 294.58,-25.03"/>
<polygon fill="midnightblue" stroke="midnightblue" points="464.39,-160.91 474.52,-157.81 464.67,-153.92 464.39,-160.91"/>
</g>
<!-- Node137&#45;&gt;Node2 -->
<g id="edge54" class="edge">
<title>Node137&#45;&gt;Node2</title>
<path fill="none" stroke="midnightblue" d="M464.22,-263.17C482.33,-252.07 502.51,-239.69 515.62,-231.65"/>
<polygon fill="midnightblue" stroke="midnightblue" points="462.23,-260.29 455.54,-268.5 465.89,-266.25 462.23,-260.29"/>
</g>
<!-- Node138&#45;&gt;Node74 -->
<g id="edge58" class="edge">
<title>Node138&#45;&gt;Node74</title>
<path fill="none" stroke="midnightblue" d="M2980.54,-218.38C3140,-210.91 3563.47,-184.93 3907.73,-109 3920.6,-106.16 3934.59,-101.59 3945.82,-97.53"/>
<polygon fill="midnightblue" stroke="midnightblue" points="2980.25,-214.89 2970.42,-218.84 2980.57,-221.88 2980.25,-214.89"/>
</g>
<!-- Node167&#45;&gt;Node30 -->
<g id="edge65" class="edge">
<title>Node167&#45;&gt;Node30</title>
<path fill="none" stroke="midnightblue" d="M3127.73,-158.68C3256.3,-156.24 3528.93,-146.66 3755.73,-109 3772.02,-106.3 3789.89,-101.68 3804.21,-97.56"/>
<polygon fill="midnightblue" stroke="midnightblue" points="3127.54,-155.18 3117.6,-158.86 3127.66,-162.18 3127.54,-155.18"/>
</g>
</g>
</svg>
