<?xml version="1.0" encoding="UTF-8" standalone="no"?>
<!DOCTYPE svg PUBLIC "-//W3C//DTD SVG 1.1//EN"
 "http://www.w3.org/Graphics/SVG/1.1/DTD/svg11.dtd">
<!-- Generated by graphviz version 2.44.0 ()
 -->
<!-- Title: include/d/event/d_event_manager.h Pages: 1 -->
<!--zoomable 430 -->
<svg id="main" version="1.1" xmlns="http://www.w3.org/2000/svg" xmlns:xlink="http://www.w3.org/1999/xlink" xml:space="preserve" onload="init(evt)">
<style type="text/css"><![CDATA[
.edge:hover path { stroke: red; }
.edge:hover polygon { stroke: red; fill: red; }
]]></style>
<script type="text/javascript"><![CDATA[
var edges = document.getElementsByTagName('g');
if (edges && edges.length) {
  for (var i=0;i<edges.length;i++) {
    if (edges[i].id.substr(0,4)=='edge') {
      edges[i].setAttribute('class','edge');
    }
  }
}
]]></script>
        <defs>
                <circle id="rim" cx="0" cy="0" r="7"/>
                <circle id="rim2" cx="0" cy="0" r="3.5"/>
                <g id="zoomPlus">
                        <use xlink:href="#rim" fill="#404040">
                                <set attributeName="fill" to="#808080" begin="zoomplus.mouseover" end="zoomplus.mouseout"/>
                        </use>
                        <path d="M-4,0h8M0,-4v8" fill="none" stroke="white" stroke-width="1.5" pointer-events="none"/>
                </g>
                <g id="zoomMin">
                        <use xlink:href="#rim" fill="#404040">
                                <set attributeName="fill" to="#808080" begin="zoomminus.mouseover" end="zoomminus.mouseout"/>
                        </use>
                        <path d="M-4,0h8" fill="none" stroke="white" stroke-width="1.5" pointer-events="none"/>
                </g>
                <g id="dirArrow">
                        <path fill="none" stroke="white" stroke-width="1.5" d="M0,-3.0v7 M-2.5,-0.5L0,-3.0L2.5,-0.5"/>
                </g>
               <g id="resetDef">
                       <use xlink:href="#rim2" fill="#404040">
                               <set attributeName="fill" to="#808080" begin="reset.mouseover" end="reset.mouseout"/>
                       </use>
               </g>
        </defs>

<script type="text/javascript">
var viewWidth = 3632;
var viewHeight = 430;
var sectionId = 'dynsection-1';
</script>
<script xlink:href="svgpan.js"/>
<svg id="graph" class="graph">
<g id="viewport">
<title>include/d/event/d_event_manager.h</title>
<polygon fill="white" stroke="transparent" points="-4,4 -4,-426 3628,-426 3628,4 -4,4"/>
<!-- Node1 -->
<g id="node1" class="node">
<title>Node1</title>
<g id="a_node1"><a xlink:title=" ">
<polygon fill="#bfbfbf" stroke="black" points="1429.5,-391.5 1429.5,-421.5 1549.5,-421.5 1549.5,-391.5 1429.5,-391.5"/>
<text text-anchor="start" x="1437.5" y="-409.5" font-family="Helvetica,sans-Serif" font-size="10.00">include/d/event/d_event</text>
<text text-anchor="middle" x="1489.5" y="-398.5" font-family="Helvetica,sans-Serif" font-size="10.00">_manager.h</text>
</a>
</g>
</g>
<!-- Node2 -->
<g id="node2" class="node">
<title>Node2</title>
<g id="a_node2"><a xlink:href="d__event__manager_8cpp.html" target="_top" xlink:title=" ">
<polygon fill="white" stroke="black" points="0,-201.5 0,-231.5 103,-231.5 103,-201.5 0,-201.5"/>
<text text-anchor="start" x="8" y="-219.5" font-family="Helvetica,sans-Serif" font-size="10.00">src/d/event/d_event</text>
<text text-anchor="middle" x="51.5" y="-208.5" font-family="Helvetica,sans-Serif" font-size="10.00">_manager.cpp</text>
</a>
</g>
</g>
<!-- Node1&#45;&gt;Node2 -->
<g id="edge1" class="edge">
<title>Node1&#45;&gt;Node2</title>
<path fill="none" stroke="midnightblue" d="M1419.18,-399.35C1215.75,-380.97 609.45,-322.1 112.5,-232 109.39,-231.44 106.21,-230.82 103,-230.16"/>
<polygon fill="midnightblue" stroke="midnightblue" points="1419.15,-402.86 1429.42,-400.27 1419.78,-395.89 1419.15,-402.86"/>
</g>
<!-- Node3 -->
<g id="node3" class="node">
<title>Node3</title>
<g id="a_node3"><a xlink:href="d__com__inf__game_8h.html" target="_top" xlink:title=" ">
<polygon fill="white" stroke="black" points="1493.5,-268.5 1493.5,-298.5 1603.5,-298.5 1603.5,-268.5 1493.5,-268.5"/>
<text text-anchor="start" x="1501.5" y="-286.5" font-family="Helvetica,sans-Serif" font-size="10.00">include/d/com/d_com</text>
<text text-anchor="middle" x="1548.5" y="-275.5" font-family="Helvetica,sans-Serif" font-size="10.00">_inf_game.h</text>
</a>
</g>
</g>
<!-- Node1&#45;&gt;Node3 -->
<g id="edge2" class="edge">
<title>Node1&#45;&gt;Node3</title>
<path fill="none" stroke="midnightblue" d="M1493.45,-381.48C1496.37,-367.42 1501.14,-349.62 1508.5,-335 1515.24,-321.61 1525.89,-308.41 1534.5,-298.86"/>
<polygon fill="midnightblue" stroke="midnightblue" points="1490,-380.91 1491.57,-391.38 1496.87,-382.21 1490,-380.91"/>
</g>
<!-- Node40 -->
<g id="node40" class="node">
<title>Node40</title>
<g id="a_node40"><a xlink:href="d__event_8h.html" target="_top" xlink:title=" ">
<polygon fill="white" stroke="black" points="1517.5,-335.5 1517.5,-354.5 1645.5,-354.5 1645.5,-335.5 1517.5,-335.5"/>
<text text-anchor="middle" x="1581.5" y="-342.5" font-family="Helvetica,sans-Serif" font-size="10.00">include/d/event/d_event.h</text>
</a>
</g>
</g>
<!-- Node1&#45;&gt;Node40 -->
<g id="edge56" class="edge">
<title>Node1&#45;&gt;Node40</title>
<path fill="none" stroke="midnightblue" d="M1520,-385.78C1536.3,-375.23 1555.55,-362.78 1568.11,-354.66"/>
<polygon fill="midnightblue" stroke="midnightblue" points="1517.8,-383.03 1511.3,-391.4 1521.6,-388.91 1517.8,-383.03"/>
</g>
<!-- Node3&#45;&gt;Node2 -->
<g id="edge16" class="edge">
<title>Node3&#45;&gt;Node2</title>
<path fill="none" stroke="midnightblue" d="M1483.08,-271.98C1471.26,-270.41 1459.04,-268.98 1447.5,-268 856.08,-217.74 701.03,-309.04 112.5,-232 109.48,-231.6 106.39,-231.12 103.28,-230.58"/>
<polygon fill="midnightblue" stroke="midnightblue" points="1482.94,-275.5 1493.33,-273.4 1483.9,-268.56 1482.94,-275.5"/>
</g>
<!-- Node4 -->
<g id="node4" class="node">
<title>Node4</title>
<g id="a_node4"><a xlink:href="d__a__player_8cpp.html" target="_top" xlink:title=" ">
<polygon fill="white" stroke="black" points="2979.5,-207 2979.5,-226 3093.5,-226 3093.5,-207 2979.5,-207"/>
<text text-anchor="middle" x="3036.5" y="-214" font-family="Helvetica,sans-Serif" font-size="10.00">src/d/a/d_a_player.cpp</text>
</a>
</g>
</g>
<!-- Node3&#45;&gt;Node4 -->
<g id="edge3" class="edge">
<title>Node3&#45;&gt;Node4</title>
<path fill="none" stroke="midnightblue" d="M1613.91,-281.75C1856.25,-278.71 2702.77,-265.88 2970.5,-232 2981.21,-230.64 2992.74,-228.39 3003.13,-226.06"/>
<polygon fill="midnightblue" stroke="midnightblue" points="1613.8,-278.25 1603.84,-281.87 1613.88,-285.25 1613.8,-278.25"/>
</g>
<!-- Node5 -->
<g id="node5" class="node">
<title>Node5</title>
<g id="a_node5"><a xlink:href="d__bg__s_8cpp.html" target="_top" xlink:title=" ">
<polygon fill="white" stroke="black" points="3111.5,-207 3111.5,-226 3215.5,-226 3215.5,-207 3111.5,-207"/>
<text text-anchor="middle" x="3163.5" y="-214" font-family="Helvetica,sans-Serif" font-size="10.00">src/d/bg/d_bg_s.cpp</text>
</a>
</g>
</g>
<!-- Node3&#45;&gt;Node5 -->
<g id="edge4" class="edge">
<title>Node3&#45;&gt;Node5</title>
<path fill="none" stroke="midnightblue" d="M1613.9,-282.12C1870.37,-280.38 2807.93,-271.39 3102.5,-232 3112.53,-230.66 3123.33,-228.38 3133.01,-226.02"/>
<polygon fill="midnightblue" stroke="midnightblue" points="1613.6,-278.63 1603.63,-282.19 1613.65,-285.63 1613.6,-278.63"/>
</g>
<!-- Node6 -->
<g id="node6" class="node">
<title>Node6</title>
<g id="a_node6"><a xlink:href="d__bg__s__movebg__actor_8cpp.html" target="_top" xlink:title=" ">
<polygon fill="white" stroke="black" points="3233.5,-201.5 3233.5,-231.5 3359.5,-231.5 3359.5,-201.5 3233.5,-201.5"/>
<text text-anchor="start" x="3241.5" y="-219.5" font-family="Helvetica,sans-Serif" font-size="10.00">src/d/bg/d_bg_s_movebg</text>
<text text-anchor="middle" x="3296.5" y="-208.5" font-family="Helvetica,sans-Serif" font-size="10.00">_actor.cpp</text>
</a>
</g>
</g>
<!-- Node3&#45;&gt;Node6 -->
<g id="edge5" class="edge">
<title>Node3&#45;&gt;Node6</title>
<path fill="none" stroke="midnightblue" d="M1614.02,-282C1883.1,-279.73 2904.15,-268.82 3224.5,-232 3227.41,-231.67 3230.38,-231.27 3233.38,-230.84"/>
<polygon fill="midnightblue" stroke="midnightblue" points="1613.61,-278.51 1603.64,-282.09 1613.67,-285.51 1613.61,-278.51"/>
</g>
<!-- Node7 -->
<g id="node7" class="node">
<title>Node7</title>
<g id="a_node7"><a xlink:href="d__bg__w_8cpp.html" target="_top" xlink:title=" ">
<polygon fill="white" stroke="black" points="3378,-207 3378,-226 3485,-226 3485,-207 3378,-207"/>
<text text-anchor="middle" x="3431.5" y="-214" font-family="Helvetica,sans-Serif" font-size="10.00">src/d/bg/d_bg_w.cpp</text>
</a>
</g>
</g>
<!-- Node3&#45;&gt;Node7 -->
<g id="edge6" class="edge">
<title>Node3&#45;&gt;Node7</title>
<path fill="none" stroke="midnightblue" d="M1614.01,-281.45C1918.96,-276.48 3192.07,-254.52 3368.5,-232 3378.85,-230.68 3390,-228.4 3399.99,-226.04"/>
<polygon fill="midnightblue" stroke="midnightblue" points="1613.52,-277.96 1603.58,-281.62 1613.63,-284.96 1613.52,-277.96"/>
</g>
<!-- Node8 -->
<g id="node8" class="node">
<title>Node8</title>
<g id="a_node8"><a xlink:href="d__cc__s_8cpp.html" target="_top" xlink:title=" ">
<polygon fill="white" stroke="black" points="121.5,-207 121.5,-226 225.5,-226 225.5,-207 121.5,-207"/>
<text text-anchor="middle" x="173.5" y="-214" font-family="Helvetica,sans-Serif" font-size="10.00">src/d/cc/d_cc_s.cpp</text>
</a>
</g>
</g>
<!-- Node3&#45;&gt;Node8 -->
<g id="edge7" class="edge">
<title>Node3&#45;&gt;Node8</title>
<path fill="none" stroke="midnightblue" d="M1483.08,-272.01C1471.26,-270.43 1459.03,-269 1447.5,-268 912.37,-221.76 772.57,-297.91 239.5,-232 228.67,-230.66 217,-228.38 206.53,-226.02"/>
<polygon fill="midnightblue" stroke="midnightblue" points="1482.94,-275.53 1493.33,-273.43 1483.9,-268.59 1482.94,-275.53"/>
</g>
<!-- Node9 -->
<g id="node9" class="node">
<title>Node9</title>
<g id="a_node9"><a xlink:href="d__com__inf__game_8cpp.html" target="_top" xlink:title=" ">
<polygon fill="white" stroke="black" points="313.5,-67.5 313.5,-97.5 421.5,-97.5 421.5,-67.5 313.5,-67.5"/>
<text text-anchor="start" x="321.5" y="-85.5" font-family="Helvetica,sans-Serif" font-size="10.00">src/d/com/d_com_inf</text>
<text text-anchor="middle" x="367.5" y="-74.5" font-family="Helvetica,sans-Serif" font-size="10.00">_game.cpp</text>
</a>
</g>
</g>
<!-- Node3&#45;&gt;Node9 -->
<g id="edge8" class="edge">
<title>Node3&#45;&gt;Node9</title>
<path fill="none" stroke="midnightblue" d="M1483.07,-272.05C1471.26,-270.47 1459.03,-269.02 1447.5,-268 1330.78,-257.66 503.31,-272.91 393.5,-232 349.08,-215.45 330.94,-207.77 310.5,-165 304.56,-152.57 304.85,-146.56 310.5,-134 317.34,-118.81 331.25,-106.34 343.62,-97.59"/>
<polygon fill="midnightblue" stroke="midnightblue" points="1482.94,-275.57 1493.32,-273.48 1483.9,-268.63 1482.94,-275.57"/>
</g>
<!-- Node10 -->
<g id="node10" class="node">
<title>Node10</title>
<g id="a_node10"><a xlink:href="d__a__alink_8cpp.html" target="_top" xlink:title=" ">
<polygon fill="white" stroke="black" points="1470,-6 1470,-25 1579,-25 1579,-6 1470,-6"/>
<text text-anchor="middle" x="1524.5" y="-13" font-family="Helvetica,sans-Serif" font-size="10.00">src/d/a/d_a_alink.cpp</text>
</a>
</g>
</g>
<!-- Node3&#45;&gt;Node10 -->
<g id="edge9" class="edge">
<title>Node3&#45;&gt;Node10</title>
<path fill="none" stroke="midnightblue" d="M1515.88,-262.3C1505.82,-254.23 1495.96,-243.99 1490.5,-232 1484.79,-219.46 1485.23,-213.73 1490.5,-201 1499.16,-180.09 1514.65,-184.27 1526.5,-165 1542.92,-138.3 1543.55,-128.95 1548.5,-98 1550.68,-84.4 1551.53,-80.44 1548.5,-67 1544.95,-51.28 1535.92,-34.71 1530,-25.01"/>
<polygon fill="midnightblue" stroke="midnightblue" points="1513.81,-265.12 1523.91,-268.29 1517.99,-259.51 1513.81,-265.12"/>
</g>
<!-- Node11 -->
<g id="node11" class="node">
<title>Node11</title>
<g id="a_node11"><a xlink:href="d__eye__hl_8cpp.html" target="_top" xlink:title=" ">
<polygon fill="white" stroke="black" points="1499.5,-207 1499.5,-226 1597.5,-226 1597.5,-207 1499.5,-207"/>
<text text-anchor="middle" x="1548.5" y="-214" font-family="Helvetica,sans-Serif" font-size="10.00">src/d/d_eye_hl.cpp</text>
</a>
</g>
</g>
<!-- Node3&#45;&gt;Node11 -->
<g id="edge10" class="edge">
<title>Node3&#45;&gt;Node11</title>
<path fill="none" stroke="midnightblue" d="M1548.5,-258.25C1548.5,-247.02 1548.5,-234.38 1548.5,-226.19"/>
<polygon fill="midnightblue" stroke="midnightblue" points="1545,-258.4 1548.5,-268.4 1552,-258.4 1545,-258.4"/>
</g>
<!-- Node12 -->
<g id="node12" class="node">
<title>Node12</title>
<g id="a_node12"><a xlink:href="d__kyeff_8cpp.html" target="_top" xlink:title=" ">
<polygon fill="white" stroke="black" points="1615.5,-207 1615.5,-226 1705.5,-226 1705.5,-207 1615.5,-207"/>
<text text-anchor="middle" x="1660.5" y="-214" font-family="Helvetica,sans-Serif" font-size="10.00">src/d/d_kyeff.cpp</text>
</a>
</g>
</g>
<!-- Node3&#45;&gt;Node12 -->
<g id="edge11" class="edge">
<title>Node3&#45;&gt;Node12</title>
<path fill="none" stroke="midnightblue" d="M1581.57,-263.31C1602.91,-250.93 1629.61,-235.43 1645.84,-226.01"/>
<polygon fill="midnightblue" stroke="midnightblue" points="1579.69,-260.35 1572.8,-268.4 1583.21,-266.4 1579.69,-260.35"/>
</g>
<!-- Node13 -->
<g id="node13" class="node">
<title>Node13</title>
<g id="a_node13"><a xlink:href="d__resorce_8cpp.html" target="_top" xlink:title=" ">
<polygon fill="white" stroke="black" points="1723.5,-207 1723.5,-226 1825.5,-226 1825.5,-207 1723.5,-207"/>
<text text-anchor="middle" x="1774.5" y="-214" font-family="Helvetica,sans-Serif" font-size="10.00">src/d/d_resorce.cpp</text>
</a>
</g>
</g>
<!-- Node3&#45;&gt;Node13 -->
<g id="edge12" class="edge">
<title>Node3&#45;&gt;Node13</title>
<path fill="none" stroke="midnightblue" d="M1607.01,-265.67C1651.18,-252.97 1709.95,-236.06 1744.85,-226.03"/>
<polygon fill="midnightblue" stroke="midnightblue" points="1605.9,-262.35 1597.26,-268.48 1607.84,-269.08 1605.9,-262.35"/>
</g>
<!-- Node14 -->
<g id="node14" class="node">
<title>Node14</title>
<g id="a_node14"><a xlink:href="d__stage_8cpp.html" target="_top" xlink:title=" ">
<polygon fill="white" stroke="black" points="1843.5,-207 1843.5,-226 1937.5,-226 1937.5,-207 1843.5,-207"/>
<text text-anchor="middle" x="1890.5" y="-214" font-family="Helvetica,sans-Serif" font-size="10.00">src/d/d_stage.cpp</text>
</a>
</g>
</g>
<!-- Node3&#45;&gt;Node14 -->
<g id="edge13" class="edge">
<title>Node3&#45;&gt;Node14</title>
<path fill="none" stroke="midnightblue" d="M1613.73,-272.48C1671.88,-263.19 1759.2,-248.37 1834.5,-232 1842.55,-230.25 1851.18,-228.13 1859.21,-226.07"/>
<polygon fill="midnightblue" stroke="midnightblue" points="1612.91,-269.07 1603.58,-274.09 1614,-275.98 1612.91,-269.07"/>
</g>
<!-- Node15 -->
<g id="node15" class="node">
<title>Node15</title>
<g id="a_node15"><a xlink:href="d__event_8cpp.html" target="_top" xlink:title=" ">
<polygon fill="white" stroke="black" points="3503,-207 3503,-226 3624,-226 3624,-207 3503,-207"/>
<text text-anchor="middle" x="3563.5" y="-214" font-family="Helvetica,sans-Serif" font-size="10.00">src/d/event/d_event.cpp</text>
</a>
</g>
</g>
<!-- Node3&#45;&gt;Node15 -->
<g id="edge14" class="edge">
<title>Node3&#45;&gt;Node15</title>
<path fill="none" stroke="midnightblue" d="M1614.35,-281.5C1932.72,-276.57 3304.8,-254.21 3494.5,-232 3505.81,-230.68 3518,-228.4 3528.95,-226.04"/>
<polygon fill="midnightblue" stroke="midnightblue" points="1613.86,-278.01 1603.92,-281.66 1613.97,-285.01 1613.86,-278.01"/>
</g>
<!-- Node16 -->
<g id="node16" class="node">
<title>Node16</title>
<g id="a_node16"><a xlink:href="d__event__data_8cpp.html" target="_top" xlink:title=" ">
<polygon fill="white" stroke="black" points="1956,-201.5 1956,-231.5 2059,-231.5 2059,-201.5 1956,-201.5"/>
<text text-anchor="start" x="1964" y="-219.5" font-family="Helvetica,sans-Serif" font-size="10.00">src/d/event/d_event</text>
<text text-anchor="middle" x="2007.5" y="-208.5" font-family="Helvetica,sans-Serif" font-size="10.00">_data.cpp</text>
</a>
</g>
</g>
<!-- Node3&#45;&gt;Node16 -->
<g id="edge15" class="edge">
<title>Node3&#45;&gt;Node16</title>
<path fill="none" stroke="midnightblue" d="M1613.81,-276.38C1692.92,-268.47 1830.09,-253.16 1946.5,-232 1949.61,-231.44 1952.79,-230.81 1956,-230.15"/>
<polygon fill="midnightblue" stroke="midnightblue" points="1613.11,-272.93 1603.51,-277.4 1613.8,-279.9 1613.11,-272.93"/>
</g>
<!-- Node17 -->
<g id="node17" class="node">
<title>Node17</title>
<g id="a_node17"><a xlink:href="d__kankyo_8cpp.html" target="_top" xlink:title=" ">
<polygon fill="white" stroke="black" points="763.5,-140 763.5,-159 897.5,-159 897.5,-140 763.5,-140"/>
<text text-anchor="middle" x="830.5" y="-147" font-family="Helvetica,sans-Serif" font-size="10.00">src/d/kankyo/d_kankyo.cpp</text>
</a>
</g>
</g>
<!-- Node3&#45;&gt;Node17 -->
<g id="edge17" class="edge">
<title>Node3&#45;&gt;Node17</title>
<path fill="none" stroke="midnightblue" d="M1483.03,-272.52C1471.22,-270.89 1459,-269.3 1447.5,-268 1255.62,-246.27 1201.61,-279.77 1014.5,-232 948.15,-215.06 875.54,-176.29 845.15,-159.04"/>
<polygon fill="midnightblue" stroke="midnightblue" points="1482.88,-276.03 1493.27,-273.96 1483.86,-269.1 1482.88,-276.03"/>
</g>
<!-- Node18 -->
<g id="node18" class="node">
<title>Node18</title>
<g id="a_node18"><a xlink:href="d__kankyo__wether_8cpp.html" target="_top" xlink:title=" ">
<polygon fill="white" stroke="black" points="2077.5,-201.5 2077.5,-231.5 2193.5,-231.5 2193.5,-201.5 2077.5,-201.5"/>
<text text-anchor="start" x="2085.5" y="-219.5" font-family="Helvetica,sans-Serif" font-size="10.00">src/d/kankyo/d_kankyo</text>
<text text-anchor="middle" x="2135.5" y="-208.5" font-family="Helvetica,sans-Serif" font-size="10.00">_wether.cpp</text>
</a>
</g>
</g>
<!-- Node3&#45;&gt;Node18 -->
<g id="edge18" class="edge">
<title>Node3&#45;&gt;Node18</title>
<path fill="none" stroke="midnightblue" d="M1613.93,-278.6C1712.81,-272.15 1906,-257.39 2068.5,-232 2071.44,-231.54 2074.44,-231.03 2077.47,-230.49"/>
<polygon fill="midnightblue" stroke="midnightblue" points="1613.55,-275.11 1603.8,-279.25 1614,-282.1 1613.55,-275.11"/>
</g>
<!-- Node19 -->
<g id="node19" class="node">
<title>Node19</title>
<g id="a_node19"><a xlink:href="d__menu__window_8cpp.html" target="_top" xlink:title=" ">
<polygon fill="white" stroke="black" points="602,-6 602,-25 761,-25 761,-6 602,-6"/>
<text text-anchor="middle" x="681.5" y="-13" font-family="Helvetica,sans-Serif" font-size="10.00">src/d/menu/d_menu_window.cpp</text>
</a>
</g>
</g>
<!-- Node3&#45;&gt;Node19 -->
<g id="edge19" class="edge">
<title>Node3&#45;&gt;Node19</title>
<path fill="none" stroke="midnightblue" d="M1482.92,-281.7C1236.73,-278.44 379.24,-264.79 331.5,-232 270.25,-189.93 254.74,-122.19 304.5,-67 342.92,-24.39 502.85,-16.36 601.65,-15.59"/>
<polygon fill="midnightblue" stroke="midnightblue" points="1483.1,-285.2 1493.15,-281.83 1483.19,-278.2 1483.1,-285.2"/>
</g>
<!-- Node20 -->
<g id="node20" class="node">
<title>Node20</title>
<g id="a_node20"><a xlink:href="d__menu__window__HIO_8cpp.html" target="_top" xlink:title=" ">
<polygon fill="white" stroke="black" points="2212,-201.5 2212,-231.5 2353,-231.5 2353,-201.5 2212,-201.5"/>
<text text-anchor="start" x="2220" y="-219.5" font-family="Helvetica,sans-Serif" font-size="10.00">src/d/menu/d_menu_window</text>
<text text-anchor="middle" x="2282.5" y="-208.5" font-family="Helvetica,sans-Serif" font-size="10.00">_HIO.cpp</text>
</a>
</g>
</g>
<!-- Node3&#45;&gt;Node20 -->
<g id="edge20" class="edge">
<title>Node3&#45;&gt;Node20</title>
<path fill="none" stroke="midnightblue" d="M1614.13,-279.66C1732.21,-274.04 1988.16,-259.63 2202.5,-232 2205.58,-231.6 2208.72,-231.17 2211.89,-230.7"/>
<polygon fill="midnightblue" stroke="midnightblue" points="1613.64,-276.17 1603.82,-280.14 1613.97,-283.17 1613.64,-276.17"/>
</g>
<!-- Node21 -->
<g id="node21" class="node">
<title>Node21</title>
<g id="a_node21"><a xlink:href="d__meter2__info_8cpp.html" target="_top" xlink:title=" ">
<polygon fill="white" stroke="black" points="759.5,-67.5 759.5,-97.5 869.5,-97.5 869.5,-67.5 759.5,-67.5"/>
<text text-anchor="start" x="767.5" y="-85.5" font-family="Helvetica,sans-Serif" font-size="10.00">src/d/meter/d_meter2</text>
<text text-anchor="middle" x="814.5" y="-74.5" font-family="Helvetica,sans-Serif" font-size="10.00">_info.cpp</text>
</a>
</g>
</g>
<!-- Node3&#45;&gt;Node21 -->
<g id="edge21" class="edge">
<title>Node3&#45;&gt;Node21</title>
<path fill="none" stroke="midnightblue" d="M1483.07,-272.13C1471.25,-270.54 1459.03,-269.07 1447.5,-268 1261.02,-250.67 787.39,-276.6 605.5,-232 537.33,-215.29 500.16,-224.23 462.5,-165 363.85,-9.83 224.5,-190.23 750.5,-98 753.42,-97.49 756.4,-96.93 759.41,-96.34"/>
<polygon fill="midnightblue" stroke="midnightblue" points="1482.93,-275.65 1493.32,-273.56 1483.89,-268.72 1482.93,-275.65"/>
</g>
<!-- Node22 -->
<g id="node22" class="node">
<title>Node22</title>
<g id="a_node22"><a xlink:href="d__meter2__draw_8cpp.html" target="_top" xlink:title=" ">
<polygon fill="white" stroke="black" points="1265.5,-134.5 1265.5,-164.5 1375.5,-164.5 1375.5,-134.5 1265.5,-134.5"/>
<text text-anchor="start" x="1273.5" y="-152.5" font-family="Helvetica,sans-Serif" font-size="10.00">src/d/meter/d_meter2</text>
<text text-anchor="middle" x="1320.5" y="-141.5" font-family="Helvetica,sans-Serif" font-size="10.00">_draw.cpp</text>
</a>
</g>
</g>
<!-- Node3&#45;&gt;Node22 -->
<g id="edge22" class="edge">
<title>Node3&#45;&gt;Node22</title>
<path fill="none" stroke="midnightblue" d="M1483.2,-271.63C1409.97,-259.12 1300.54,-239.36 1294.5,-232 1278.29,-212.25 1295.6,-182.25 1308.7,-164.69"/>
<polygon fill="midnightblue" stroke="midnightblue" points="1482.84,-275.12 1493.28,-273.34 1484.01,-268.21 1482.84,-275.12"/>
</g>
<!-- Node23 -->
<g id="node23" class="node">
<title>Node23</title>
<g id="a_node23"><a xlink:href="d__meter__map_8cpp.html" target="_top" xlink:title=" ">
<polygon fill="white" stroke="black" points="1147.5,-0.5 1147.5,-30.5 1251.5,-30.5 1251.5,-0.5 1147.5,-0.5"/>
<text text-anchor="start" x="1155.5" y="-18.5" font-family="Helvetica,sans-Serif" font-size="10.00">src/d/meter/d_meter</text>
<text text-anchor="middle" x="1199.5" y="-7.5" font-family="Helvetica,sans-Serif" font-size="10.00">_map.cpp</text>
</a>
</g>
</g>
<!-- Node3&#45;&gt;Node23 -->
<g id="edge23" class="edge">
<title>Node3&#45;&gt;Node23</title>
<path fill="none" stroke="midnightblue" d="M1483.21,-277.07C1415.16,-270.2 1314.35,-256.24 1284.5,-232 1219.4,-179.14 1203.96,-69.44 1200.47,-30.55"/>
<polygon fill="midnightblue" stroke="midnightblue" points="1483.12,-280.57 1493.42,-278.07 1483.81,-273.61 1483.12,-280.57"/>
</g>
<!-- Node24 -->
<g id="node24" class="node">
<title>Node24</title>
<g id="a_node24"><a xlink:href="d__msg__flow_8cpp.html" target="_top" xlink:title=" ">
<polygon fill="white" stroke="black" points="2371,-207 2371,-226 2504,-226 2504,-207 2371,-207"/>
<text text-anchor="middle" x="2437.5" y="-214" font-family="Helvetica,sans-Serif" font-size="10.00">src/d/msg/d_msg_flow.cpp</text>
</a>
</g>
</g>
<!-- Node3&#45;&gt;Node24 -->
<g id="edge24" class="edge">
<title>Node3&#45;&gt;Node24</title>
<path fill="none" stroke="midnightblue" d="M1613.53,-281.31C1751.87,-278.16 2085.35,-267.24 2362.5,-232 2374.21,-230.51 2386.84,-228.31 2398.34,-226.06"/>
<polygon fill="midnightblue" stroke="midnightblue" points="1613.43,-277.81 1603.51,-281.53 1613.59,-284.81 1613.43,-277.81"/>
</g>
<!-- Node25 -->
<g id="node25" class="node">
<title>Node25</title>
<g id="a_node25"><a xlink:href="d__save_8cpp.html" target="_top" xlink:title=" ">
<polygon fill="white" stroke="black" points="1056,-73 1056,-92 1171,-92 1171,-73 1056,-73"/>
<text text-anchor="middle" x="1113.5" y="-80" font-family="Helvetica,sans-Serif" font-size="10.00">src/d/save/d_save.cpp</text>
</a>
</g>
</g>
<!-- Node3&#45;&gt;Node25 -->
<g id="edge25" class="edge">
<title>Node3&#45;&gt;Node25</title>
<path fill="none" stroke="midnightblue" d="M1483.56,-273.04C1390.32,-259.37 1229.05,-235.35 1223.5,-232 1165.29,-196.81 1128.05,-118.06 1116.97,-92.03"/>
<polygon fill="midnightblue" stroke="midnightblue" points="1483.07,-276.51 1493.47,-274.49 1484.08,-269.58 1483.07,-276.51"/>
</g>
<!-- Node26 -->
<g id="node26" class="node">
<title>Node26</title>
<g id="a_node26"><a xlink:href="m__Do__graphic_8cpp.html" target="_top" xlink:title=" ">
<polygon fill="white" stroke="black" points="2522.5,-207 2522.5,-226 2664.5,-226 2664.5,-207 2522.5,-207"/>
<text text-anchor="middle" x="2593.5" y="-214" font-family="Helvetica,sans-Serif" font-size="10.00">src/m_Do/m_Do_graphic.cpp</text>
</a>
</g>
</g>
<!-- Node3&#45;&gt;Node26 -->
<g id="edge26" class="edge">
<title>Node3&#45;&gt;Node26</title>
<path fill="none" stroke="midnightblue" d="M1614.02,-281.94C1770.24,-279.97 2176.71,-271.17 2513.5,-232 2526.12,-230.53 2539.75,-228.3 2552.13,-226.03"/>
<polygon fill="midnightblue" stroke="midnightblue" points="1613.61,-278.44 1603.65,-282.06 1613.69,-285.44 1613.61,-278.44"/>
</g>
<!-- Node27 -->
<g id="node27" class="node">
<title>Node27</title>
<g id="a_node27"><a xlink:href="m__Do__machine__exception_8cpp.html" target="_top" xlink:title=" ">
<polygon fill="white" stroke="black" points="2683,-201.5 2683,-231.5 2812,-231.5 2812,-201.5 2683,-201.5"/>
<text text-anchor="start" x="2691" y="-219.5" font-family="Helvetica,sans-Serif" font-size="10.00">src/m_Do/m_Do_machine</text>
<text text-anchor="middle" x="2747.5" y="-208.5" font-family="Helvetica,sans-Serif" font-size="10.00">_exception.cpp</text>
</a>
</g>
</g>
<!-- Node3&#45;&gt;Node27 -->
<g id="edge27" class="edge">
<title>Node3&#45;&gt;Node27</title>
<path fill="none" stroke="midnightblue" d="M1614,-282.95C1787.48,-283.41 2273.05,-279.95 2673.5,-232 2676.49,-231.64 2679.54,-231.23 2682.61,-230.78"/>
<polygon fill="midnightblue" stroke="midnightblue" points="1613.77,-279.45 1603.76,-282.92 1613.75,-286.45 1613.77,-279.45"/>
</g>
<!-- Node28 -->
<g id="node28" class="node">
<title>Node28</title>
<g id="a_node28"><a xlink:href="m__Do__main_8cpp.html" target="_top" xlink:title=" ">
<polygon fill="white" stroke="black" points="2830,-207 2830,-226 2961,-226 2961,-207 2830,-207"/>
<text text-anchor="middle" x="2895.5" y="-214" font-family="Helvetica,sans-Serif" font-size="10.00">src/m_Do/m_Do_main.cpp</text>
</a>
</g>
</g>
<!-- Node3&#45;&gt;Node28 -->
<g id="edge28" class="edge">
<title>Node3&#45;&gt;Node28</title>
<path fill="none" stroke="midnightblue" d="M1613.71,-281.24C1839.02,-276.68 2583.92,-259.82 2821.5,-232 2833.46,-230.6 2846.38,-228.33 2858.03,-226"/>
<polygon fill="midnightblue" stroke="midnightblue" points="1613.62,-277.74 1603.69,-281.44 1613.76,-284.74 1613.62,-277.74"/>
</g>
<!-- Node29 -->
<g id="node29" class="node">
<title>Node29</title>
<g id="a_node29"><a xlink:href="d__item_8h.html" target="_top" xlink:title=" ">
<polygon fill="white" stroke="black" points="320,-140 320,-159 415,-159 415,-140 320,-140"/>
<text text-anchor="middle" x="367.5" y="-147" font-family="Helvetica,sans-Serif" font-size="10.00">include/d/d_item.h</text>
</a>
</g>
</g>
<!-- Node3&#45;&gt;Node29 -->
<g id="edge29" class="edge">
<title>Node3&#45;&gt;Node29</title>
<path fill="none" stroke="midnightblue" d="M1483.07,-272.06C1471.26,-270.48 1459.03,-269.03 1447.5,-268 1334.77,-257.94 530,-284.05 429.5,-232 398.56,-215.97 378.65,-176.71 371.02,-159.19"/>
<polygon fill="midnightblue" stroke="midnightblue" points="1482.94,-275.58 1493.32,-273.49 1483.9,-268.65 1482.94,-275.58"/>
</g>
<!-- Node31 -->
<g id="node31" class="node">
<title>Node31</title>
<g id="a_node31"><a xlink:href="d__kantera__icon__meter_8h.html" target="_top" xlink:title=" ">
<polygon fill="white" stroke="black" points="1304,-201.5 1304,-231.5 1405,-231.5 1405,-201.5 1304,-201.5"/>
<text text-anchor="start" x="1312" y="-219.5" font-family="Helvetica,sans-Serif" font-size="10.00">include/d/d_kantera</text>
<text text-anchor="middle" x="1354.5" y="-208.5" font-family="Helvetica,sans-Serif" font-size="10.00">_icon_meter.h</text>
</a>
</g>
</g>
<!-- Node3&#45;&gt;Node31 -->
<g id="edge32" class="edge">
<title>Node3&#45;&gt;Node31</title>
<path fill="none" stroke="midnightblue" d="M1496.54,-265.09C1465.23,-254.6 1425.86,-241.41 1396.51,-231.58"/>
<polygon fill="midnightblue" stroke="midnightblue" points="1495.81,-268.54 1506.4,-268.4 1498.03,-261.9 1495.81,-268.54"/>
</g>
<!-- Node33 -->
<g id="node33" class="node">
<title>Node33</title>
<g id="a_node33"><a xlink:href="d__meter2_8h.html" target="_top" xlink:title=" ">
<polygon fill="white" stroke="black" points="614.5,-207 614.5,-226 748.5,-226 748.5,-207 614.5,-207"/>
<text text-anchor="middle" x="681.5" y="-214" font-family="Helvetica,sans-Serif" font-size="10.00">include/d/meter/d_meter2.h</text>
</a>
</g>
</g>
<!-- Node3&#45;&gt;Node33 -->
<g id="edge35" class="edge">
<title>Node3&#45;&gt;Node33</title>
<path fill="none" stroke="midnightblue" d="M1483.04,-272.35C1471.23,-270.74 1459.01,-269.2 1447.5,-268 1204.3,-242.61 1142.49,-248.15 898.5,-232 848.39,-228.68 791.78,-224.9 748.94,-222.03"/>
<polygon fill="midnightblue" stroke="midnightblue" points="1482.9,-275.87 1493.29,-273.79 1483.88,-268.94 1482.9,-275.87"/>
</g>
<!-- Node38 -->
<g id="node38" class="node">
<title>Node38</title>
<g id="a_node38"><a xlink:href="d__msg__object_8h.html" target="_top" xlink:title=" ">
<polygon fill="white" stroke="black" points="1023.5,-201.5 1023.5,-231.5 1133.5,-231.5 1133.5,-201.5 1023.5,-201.5"/>
<text text-anchor="start" x="1031.5" y="-219.5" font-family="Helvetica,sans-Serif" font-size="10.00">include/d/msg/d_msg</text>
<text text-anchor="middle" x="1078.5" y="-208.5" font-family="Helvetica,sans-Serif" font-size="10.00">_object.h</text>
</a>
</g>
</g>
<!-- Node3&#45;&gt;Node38 -->
<g id="edge49" class="edge">
<title>Node3&#45;&gt;Node38</title>
<path fill="none" stroke="midnightblue" d="M1483.55,-272.95C1471.57,-271.25 1459.16,-269.54 1447.5,-268 1314.36,-250.46 1280,-253.83 1147.5,-232 1143.03,-231.26 1138.41,-230.44 1133.78,-229.56"/>
<polygon fill="midnightblue" stroke="midnightblue" points="1483.1,-276.42 1493.49,-274.37 1484.09,-269.49 1483.1,-276.42"/>
</g>
<!-- Node29&#45;&gt;Node9 -->
<g id="edge30" class="edge">
<title>Node29&#45;&gt;Node9</title>
<path fill="none" stroke="midnightblue" d="M367.5,-129.41C367.5,-119.22 367.5,-106.9 367.5,-97.59"/>
<polygon fill="midnightblue" stroke="midnightblue" points="364,-129.73 367.5,-139.73 371,-129.73 364,-129.73"/>
</g>
<!-- Node30 -->
<g id="node30" class="node">
<title>Node30</title>
<g id="a_node30"><a xlink:href="d__item_8cpp.html" target="_top" xlink:title=" ">
<polygon fill="white" stroke="black" points="478,-73 478,-92 567,-92 567,-73 478,-73"/>
<text text-anchor="middle" x="522.5" y="-80" font-family="Helvetica,sans-Serif" font-size="10.00">src/d/d_item.cpp</text>
</a>
</g>
</g>
<!-- Node29&#45;&gt;Node30 -->
<g id="edge31" class="edge">
<title>Node29&#45;&gt;Node30</title>
<path fill="none" stroke="midnightblue" d="M397.43,-135.95C428.12,-123.08 475.04,-103.4 501.83,-92.17"/>
<polygon fill="midnightblue" stroke="midnightblue" points="395.95,-132.77 388.08,-139.87 398.66,-139.23 395.95,-132.77"/>
</g>
<!-- Node31&#45;&gt;Node22 -->
<g id="edge34" class="edge">
<title>Node31&#45;&gt;Node22</title>
<path fill="none" stroke="midnightblue" d="M1342.36,-192.28C1337.51,-183.02 1332.09,-172.66 1327.86,-164.58"/>
<polygon fill="midnightblue" stroke="midnightblue" points="1339.39,-194.16 1347.12,-201.4 1345.59,-190.91 1339.39,-194.16"/>
</g>
<!-- Node32 -->
<g id="node32" class="node">
<title>Node32</title>
<g id="a_node32"><a xlink:href="d__kantera__icon__meter_8cpp.html" target="_top" xlink:title=" ">
<polygon fill="white" stroke="black" points="1394,-134.5 1394,-164.5 1501,-164.5 1501,-134.5 1394,-134.5"/>
<text text-anchor="start" x="1402" y="-152.5" font-family="Helvetica,sans-Serif" font-size="10.00">src/d/d_kantera_icon</text>
<text text-anchor="middle" x="1447.5" y="-141.5" font-family="Helvetica,sans-Serif" font-size="10.00">_meter.cpp</text>
</a>
</g>
</g>
<!-- Node31&#45;&gt;Node32 -->
<g id="edge33" class="edge">
<title>Node31&#45;&gt;Node32</title>
<path fill="none" stroke="midnightblue" d="M1383.19,-195.45C1397.49,-185.45 1414.45,-173.6 1427.36,-164.58"/>
<polygon fill="midnightblue" stroke="midnightblue" points="1380.87,-192.8 1374.68,-201.4 1384.88,-198.54 1380.87,-192.8"/>
</g>
<!-- Node34 -->
<g id="node34" class="node">
<title>Node34</title>
<g id="a_node34"><a xlink:href="d__meter2_8cpp.html" target="_top" xlink:title=" ">
<polygon fill="white" stroke="black" points="471.5,-140 471.5,-159 599.5,-159 599.5,-140 471.5,-140"/>
<text text-anchor="middle" x="535.5" y="-147" font-family="Helvetica,sans-Serif" font-size="10.00">src/d/meter/d_meter2.cpp</text>
</a>
</g>
</g>
<!-- Node33&#45;&gt;Node34 -->
<g id="edge36" class="edge">
<title>Node33&#45;&gt;Node34</title>
<path fill="none" stroke="midnightblue" d="M652.93,-202.78C624.02,-189.91 580.1,-170.35 554.97,-159.17"/>
<polygon fill="midnightblue" stroke="midnightblue" points="651.55,-206 662.11,-206.87 654.4,-199.6 651.55,-206"/>
</g>
<!-- Node35 -->
<g id="node35" class="node">
<title>Node35</title>
<g id="a_node35"><a xlink:href="d__meter2__info_8h.html" target="_top" xlink:title=" ">
<polygon fill="white" stroke="black" points="618,-134.5 618,-164.5 745,-164.5 745,-134.5 618,-134.5"/>
<text text-anchor="start" x="626" y="-152.5" font-family="Helvetica,sans-Serif" font-size="10.00">include/d/meter/d_meter2</text>
<text text-anchor="middle" x="681.5" y="-141.5" font-family="Helvetica,sans-Serif" font-size="10.00">_info.h</text>
</a>
</g>
</g>
<!-- Node33&#45;&gt;Node35 -->
<g id="edge37" class="edge">
<title>Node33&#45;&gt;Node35</title>
<path fill="none" stroke="midnightblue" d="M681.5,-196.41C681.5,-186.22 681.5,-173.9 681.5,-164.59"/>
<polygon fill="midnightblue" stroke="midnightblue" points="678,-196.73 681.5,-206.73 685,-196.73 678,-196.73"/>
</g>
<!-- Node35&#45;&gt;Node9 -->
<g id="edge38" class="edge">
<title>Node35&#45;&gt;Node9</title>
<path fill="none" stroke="midnightblue" d="M607.91,-133.27C550.81,-121.45 472.98,-105.34 421.53,-94.69"/>
<polygon fill="midnightblue" stroke="midnightblue" points="607.46,-136.75 617.96,-135.35 608.87,-129.89 607.46,-136.75"/>
</g>
<!-- Node35&#45;&gt;Node21 -->
<g id="edge40" class="edge">
<title>Node35&#45;&gt;Node21</title>
<path fill="none" stroke="midnightblue" d="M719.37,-129.99C740.45,-119.69 766.28,-107.07 785.7,-97.58"/>
<polygon fill="midnightblue" stroke="midnightblue" points="717.81,-126.86 710.36,-134.4 720.88,-133.15 717.81,-126.86"/>
</g>
<!-- Node35&#45;&gt;Node25 -->
<g id="edge41" class="edge">
<title>Node35&#45;&gt;Node25</title>
<path fill="none" stroke="midnightblue" d="M755.32,-133.92C867.7,-115.08 986.86,-99.31 1055.83,-90.6"/>
<polygon fill="midnightblue" stroke="midnightblue" points="754.44,-130.52 745.16,-135.64 755.61,-137.42 754.44,-130.52"/>
</g>
<!-- Node35&#45;&gt;Node30 -->
<g id="edge39" class="edge">
<title>Node35&#45;&gt;Node30</title>
<path fill="none" stroke="midnightblue" d="M637.37,-130.46C606.65,-117.9 567.08,-101.72 543.31,-92.01"/>
<polygon fill="midnightblue" stroke="midnightblue" points="636.42,-133.85 647,-134.4 639.07,-127.37 636.42,-133.85"/>
</g>
<!-- Node36 -->
<g id="node36" class="node">
<title>Node36</title>
<g id="a_node36"><a xlink:href="d__a__alink_8h.html" target="_top" xlink:title=" ">
<polygon fill="white" stroke="black" points="1423.5,-73 1423.5,-92 1539.5,-92 1539.5,-73 1423.5,-73"/>
<text text-anchor="middle" x="1481.5" y="-80" font-family="Helvetica,sans-Serif" font-size="10.00">include/d/a/d_a_alink.h</text>
</a>
</g>
</g>
<!-- Node35&#45;&gt;Node36 -->
<g id="edge42" class="edge">
<title>Node35&#45;&gt;Node36</title>
<path fill="none" stroke="midnightblue" d="M755.26,-134.06C901.72,-115.75 1278.24,-94.43 1423.38,-86.58"/>
<polygon fill="midnightblue" stroke="midnightblue" points="754.59,-130.61 745.12,-135.37 755.49,-137.56 754.59,-130.61"/>
</g>
<!-- Node37 -->
<g id="node37" class="node">
<title>Node37</title>
<g id="a_node37"><a xlink:href="d__menu__window_8h.html" target="_top" xlink:title=" ">
<polygon fill="white" stroke="black" points="621.5,-67.5 621.5,-97.5 741.5,-97.5 741.5,-67.5 621.5,-67.5"/>
<text text-anchor="start" x="629.5" y="-85.5" font-family="Helvetica,sans-Serif" font-size="10.00">include/d/menu/d_menu</text>
<text text-anchor="middle" x="681.5" y="-74.5" font-family="Helvetica,sans-Serif" font-size="10.00">_window.h</text>
</a>
</g>
</g>
<!-- Node35&#45;&gt;Node37 -->
<g id="edge45" class="edge">
<title>Node35&#45;&gt;Node37</title>
<path fill="none" stroke="midnightblue" d="M674.95,-124.4C674.51,-115.37 674.8,-105.41 675.83,-97.58"/>
<polygon fill="midnightblue" stroke="midnightblue" points="671.47,-124.74 675.82,-134.4 678.44,-124.13 671.47,-124.74"/>
</g>
<!-- Node36&#45;&gt;Node3 -->
<g id="edge44" class="edge">
<title>Node36&#45;&gt;Node3</title>
<path fill="none" stroke="midnightblue" d="M1495.35,-100.78C1507.13,-117.72 1520.51,-143.98 1509.5,-165 1496.45,-189.9 1470.55,-176.1 1457.5,-201 1451.11,-213.2 1450.51,-220.13 1457.5,-232 1467.49,-248.97 1485.47,-260.65 1502.83,-268.46"/>
<polygon fill="midnightblue" stroke="midnightblue" points="1497.91,-98.36 1489.14,-92.42 1492.3,-102.54 1497.91,-98.36"/>
</g>
<!-- Node36&#45;&gt;Node10 -->
<g id="edge43" class="edge">
<title>Node36&#45;&gt;Node10</title>
<path fill="none" stroke="midnightblue" d="M1493.05,-64.03C1501.38,-51.45 1512.26,-35.01 1518.79,-25.13"/>
<polygon fill="midnightblue" stroke="midnightblue" points="1489.9,-62.46 1487.3,-72.73 1495.74,-66.32 1489.9,-62.46"/>
</g>
<!-- Node37&#45;&gt;Node19 -->
<g id="edge46" class="edge">
<title>Node37&#45;&gt;Node19</title>
<path fill="none" stroke="midnightblue" d="M681.5,-57.25C681.5,-46.02 681.5,-33.38 681.5,-25.19"/>
<polygon fill="midnightblue" stroke="midnightblue" points="678,-57.4 681.5,-67.4 685,-57.4 678,-57.4"/>
</g>
<!-- Node37&#45;&gt;Node23 -->
<g id="edge47" class="edge">
<title>Node37&#45;&gt;Node23</title>
<path fill="none" stroke="midnightblue" d="M751.9,-66.87C900.99,-43.29 1065.42,-27.76 1147.43,-20.74"/>
<polygon fill="midnightblue" stroke="midnightblue" points="750.97,-63.47 741.65,-68.51 752.08,-70.39 750.97,-63.47"/>
</g>
<!-- Node37&#45;&gt;Node35 -->
<g id="edge48" class="edge">
<title>Node37&#45;&gt;Node35</title>
<path fill="none" stroke="midnightblue" d="M688.04,-107.57C688.49,-116.6 688.21,-126.56 687.18,-134.4"/>
<polygon fill="midnightblue" stroke="midnightblue" points="691.53,-107.24 687.17,-97.58 684.55,-107.84 691.53,-107.24"/>
</g>
<!-- Node38&#45;&gt;Node17 -->
<g id="edge50" class="edge">
<title>Node38&#45;&gt;Node17</title>
<path fill="none" stroke="midnightblue" d="M1015.2,-198.91C966.63,-186.18 901.57,-169.13 863.04,-159.03"/>
<polygon fill="midnightblue" stroke="midnightblue" points="1014.43,-202.33 1024.99,-201.48 1016.21,-195.55 1014.43,-202.33"/>
</g>
<!-- Node38&#45;&gt;Node19 -->
<g id="edge51" class="edge">
<title>Node38&#45;&gt;Node19</title>
<path fill="none" stroke="midnightblue" d="M1096.05,-192.78C1107.24,-175.31 1117.44,-151.33 1104.5,-134 1081.19,-102.78 825.19,-46.46 723.14,-25.06"/>
<polygon fill="midnightblue" stroke="midnightblue" points="1093.01,-191.02 1090.22,-201.24 1098.77,-194.99 1093.01,-191.02"/>
</g>
<!-- Node38&#45;&gt;Node21 -->
<g id="edge52" class="edge">
<title>Node38&#45;&gt;Node21</title>
<path fill="none" stroke="midnightblue" d="M1020.2,-198.14C995.98,-189.77 968.08,-178.57 944.5,-165 925.61,-154.13 924.57,-146.18 906.5,-134 886.26,-120.35 862,-107.16 843.47,-97.68"/>
<polygon fill="midnightblue" stroke="midnightblue" points="1019.39,-201.56 1029.99,-201.44 1021.63,-194.93 1019.39,-201.56"/>
</g>
<!-- Node38&#45;&gt;Node22 -->
<g id="edge53" class="edge">
<title>Node38&#45;&gt;Node22</title>
<path fill="none" stroke="midnightblue" d="M1140.49,-198.85C1179.95,-188.25 1230.49,-174.68 1267.96,-164.61"/>
<polygon fill="midnightblue" stroke="midnightblue" points="1139.46,-195.5 1130.71,-201.48 1141.28,-202.26 1139.46,-195.5"/>
</g>
<!-- Node38&#45;&gt;Node23 -->
<g id="edge54" class="edge">
<title>Node38&#45;&gt;Node23</title>
<path fill="none" stroke="midnightblue" d="M1106,-194.89C1116.51,-186.29 1128.19,-175.8 1137.5,-165 1160.45,-138.38 1165.8,-130.37 1179.5,-98 1189.04,-75.46 1194.67,-47.4 1197.42,-30.78"/>
<polygon fill="midnightblue" stroke="midnightblue" points="1103.53,-192.38 1097.89,-201.35 1107.89,-197.86 1103.53,-192.38"/>
</g>
<!-- Node39 -->
<g id="node39" class="node">
<title>Node39</title>
<g id="a_node39"><a xlink:href="d__msg__object_8cpp.html" target="_top" xlink:title=" ">
<polygon fill="white" stroke="black" points="953.5,-140 953.5,-159 1095.5,-159 1095.5,-140 953.5,-140"/>
<text text-anchor="middle" x="1024.5" y="-147" font-family="Helvetica,sans-Serif" font-size="10.00">src/d/msg/d_msg_object.cpp</text>
</a>
</g>
</g>
<!-- Node38&#45;&gt;Node39 -->
<g id="edge55" class="edge">
<title>Node38&#45;&gt;Node39</title>
<path fill="none" stroke="midnightblue" d="M1060.35,-193.66C1050.56,-181.86 1039.01,-167.97 1031.72,-159.19"/>
<polygon fill="midnightblue" stroke="midnightblue" points="1057.7,-195.94 1066.78,-201.4 1063.08,-191.47 1057.7,-195.94"/>
</g>
<!-- Node40&#45;&gt;Node3 -->
<g id="edge58" class="edge">
<title>Node40&#45;&gt;Node3</title>
<path fill="none" stroke="midnightblue" d="M1571.89,-326.68C1566.93,-317.73 1560.95,-306.94 1556.28,-298.52"/>
<polygon fill="midnightblue" stroke="midnightblue" points="1568.86,-328.43 1576.77,-335.48 1574.98,-325.03 1568.86,-328.43"/>
</g>
<!-- Node40&#45;&gt;Node15 -->
<g id="edge57" class="edge">
<title>Node40&#45;&gt;Node15</title>
<path fill="none" stroke="midnightblue" d="M1656.14,-343.61C1912.96,-341.42 2783.42,-326.99 3494.5,-232 3505.42,-230.54 3517.19,-228.32 3527.86,-226.04"/>
<polygon fill="midnightblue" stroke="midnightblue" points="1655.79,-340.11 1645.82,-343.69 1655.85,-347.11 1655.79,-340.11"/>
</g>
</g>
</svg>
        <g id="navigator" transform="translate(0 0)" fill="#404254">
                <rect fill="#f2f5e9" fill-opacity="0.5" stroke="#606060" stroke-width=".5" x="0" y="0" width="60" height="60"/>
                <use id="zoomplus" xlink:href="#zoomPlus" x="17" y="9" onmousedown="handleZoom(evt,'in')"/>
                <use id="zoomminus" xlink:href="#zoomMin" x="42" y="9" onmousedown="handleZoom(evt,'out')"/>
                <use id="reset" xlink:href="#resetDef" x="30" y="36" onmousedown="handleReset()"/>
                <g id="arrowUp" xlink:href="#dirArrow" transform="translate(30 24)" onmousedown="handlePan(0,-1)">
                  <use xlink:href="#rim" fill="#404040">
                        <set attributeName="fill" to="#808080" begin="arrowUp.mouseover" end="arrowUp.mouseout"/>
                  </use>
                  <path fill="none" stroke="white" stroke-width="1.5" d="M0,-3.0v7 M-2.5,-0.5L0,-3.0L2.5,-0.5"/>
                </g>
                <g id="arrowRight" xlink:href="#dirArrow" transform="rotate(90) translate(36 -43)" onmousedown="handlePan(1,0)">
                  <use xlink:href="#rim" fill="#404040">
                        <set attributeName="fill" to="#808080" begin="arrowRight.mouseover" end="arrowRight.mouseout"/>
                  </use>
                  <path fill="none" stroke="white" stroke-width="1.5" d="M0,-3.0v7 M-2.5,-0.5L0,-3.0L2.5,-0.5"/>
                </g>
                <g id="arrowDown" xlink:href="#dirArrow" transform="rotate(180) translate(-30 -48)" onmousedown="handlePan(0,1)">
                  <use xlink:href="#rim" fill="#404040">
                        <set attributeName="fill" to="#808080" begin="arrowDown.mouseover" end="arrowDown.mouseout"/>
                  </use>
                  <path fill="none" stroke="white" stroke-width="1.5" d="M0,-3.0v7 M-2.5,-0.5L0,-3.0L2.5,-0.5"/>
                </g>
                <g id="arrowLeft" xlink:href="#dirArrow" transform="rotate(270) translate(-36 17)" onmousedown="handlePan(-1,0)">
                  <use xlink:href="#rim" fill="#404040">
                        <set attributeName="fill" to="#808080" begin="arrowLeft.mouseover" end="arrowLeft.mouseout"/>
                  </use>
                  <path fill="none" stroke="white" stroke-width="1.5" d="M0,-3.0v7 M-2.5,-0.5L0,-3.0L2.5,-0.5"/>
                </g>
        </g>
        <svg viewBox="0 0 15 15" width="100%" height="30px" preserveAspectRatio="xMaxYMin meet">
         <g id="arrow_out" transform="scale(0.3 0.3)">
          <a xlink:href="d__event__manager_8h__dep__incl_org.svg" target="_base">
           <rect id="button" ry="5" rx="5" y="6" x="6" height="38" width="38"
                fill="#f2f5e9" fill-opacity="0.5" stroke="#606060" stroke-width="1.0"/>
           <path id="arrow"
             d="M 11.500037,31.436501 C 11.940474,20.09759 22.043105,11.32322 32.158766,21.979434 L 37.068811,17.246167 C 37.068811,17.246167 37.088388,32 37.088388,32 L 22.160133,31.978069 C 22.160133,31.978069 26.997745,27.140456 26.997745,27.140456 C 18.528582,18.264221 13.291696,25.230495 11.500037,31.436501 z"
             style="fill:#404040;"/>
          </a>
         </g>
        </svg>
</svg>
