<?xml version="1.0" encoding="UTF-8" standalone="no"?>
<!DOCTYPE svg PUBLIC "-//W3C//DTD SVG 1.1//EN"
 "http://www.w3.org/Graphics/SVG/1.1/DTD/svg11.dtd">
<!-- Generated by graphviz version 3.0.0 (20220413.0242)
 -->
<!-- Title: include/d/event/d_event_data.h Pages: 1 -->
<svg width="5215pt" height="374pt"
 viewBox="0.00 0.00 5215.00 374.00" xmlns="http://www.w3.org/2000/svg" xmlns:xlink="http://www.w3.org/1999/xlink">
<g id="graph0" class="graph" transform="scale(1 1) rotate(0) translate(4 370)">
<title>include/d/event/d_event_data.h</title>
<polygon fill="white" stroke="transparent" points="-4,4 -4,-370 5211,-370 5211,4 -4,4"/>
<!-- Node1 -->
<g id="node1" class="node">
<title>Node1</title>
<g id="a_node1"><a xlink:title=" ">
<polygon fill="#bfbfbf" stroke="black" points="1133.5,-335.5 1133.5,-365.5 1253.5,-365.5 1253.5,-335.5 1133.5,-335.5"/>
<text text-anchor="start" x="1141.5" y="-353.5" font-family="Helvetica,sans-Serif" font-size="10.00">include/d/event/d_event</text>
<text text-anchor="middle" x="1193.5" y="-342.5" font-family="Helvetica,sans-Serif" font-size="10.00">_data.h</text>
</a>
</g>
</g>
<!-- Node2 -->
<g id="node2" class="node">
<title>Node2</title>
<g id="a_node2"><a xlink:href="d__event__manager_8h.html" target="_top" xlink:title=" ">
<polygon fill="white" stroke="black" points="2343.5,-268.5 2343.5,-298.5 2463.5,-298.5 2463.5,-268.5 2343.5,-268.5"/>
<text text-anchor="start" x="2351.5" y="-286.5" font-family="Helvetica,sans-Serif" font-size="10.00">include/d/event/d_event</text>
<text text-anchor="middle" x="2403.5" y="-275.5" font-family="Helvetica,sans-Serif" font-size="10.00">_manager.h</text>
</a>
</g>
</g>
<!-- Node1&#45;&gt;Node2 -->
<g id="edge1" class="edge">
<title>Node1&#45;&gt;Node2</title>
<path fill="none" stroke="midnightblue" d="M1263.51,-345.74C1480.69,-334.07 2140.58,-298.62 2343.49,-287.72"/>
<polygon fill="midnightblue" stroke="midnightblue" points="1263.3,-342.25 1253.5,-346.28 1263.68,-349.24 1263.3,-342.25"/>
</g>
<!-- Node45 -->
<g id="node20" class="node">
<title>Node45</title>
<g id="a_node20"><a xlink:href="d__event__data_8cpp.html" target="_top" xlink:title=" ">
<polygon fill="white" stroke="black" points="139,-0.5 139,-30.5 242,-30.5 242,-0.5 139,-0.5"/>
<text text-anchor="start" x="147" y="-18.5" font-family="Helvetica,sans-Serif" font-size="10.00">src/d/event/d_event</text>
<text text-anchor="middle" x="190.5" y="-7.5" font-family="Helvetica,sans-Serif" font-size="10.00">_data.cpp</text>
</a>
</g>
</g>
<!-- Node1&#45;&gt;Node45 -->
<g id="edge65" class="edge">
<title>Node1&#45;&gt;Node45</title>
<path fill="none" stroke="midnightblue" d="M1123.39,-348.79C881.77,-345.44 98.5,-326.59 98.5,-223 98.5,-223 98.5,-223 98.5,-159.5 98.5,-104.89 146.55,-54.53 173.2,-30.79"/>
<polygon fill="midnightblue" stroke="midnightblue" points="1123.41,-352.29 1133.46,-348.93 1123.51,-345.29 1123.41,-352.29"/>
</g>
<!-- Node3 -->
<g id="node3" class="node">
<title>Node3</title>
<g id="a_node3"><a xlink:href="d__com__inf__game_8h.html" target="_top" xlink:title=" ">
<polygon fill="white" stroke="red" points="2302.5,-145.5 2302.5,-175.5 2412.5,-175.5 2412.5,-145.5 2302.5,-145.5"/>
<text text-anchor="start" x="2310.5" y="-163.5" font-family="Helvetica,sans-Serif" font-size="10.00">include/d/com/d_com</text>
<text text-anchor="middle" x="2357.5" y="-152.5" font-family="Helvetica,sans-Serif" font-size="10.00">_inf_game.h</text>
</a>
</g>
</g>
<!-- Node2&#45;&gt;Node3 -->
<g id="edge2" class="edge">
<title>Node2&#45;&gt;Node3</title>
<path fill="none" stroke="midnightblue" d="M2398.5,-258.66C2395.25,-244.79 2390.49,-227.12 2384.5,-212 2379.45,-199.24 2372,-185.57 2366.2,-175.67"/>
<polygon fill="midnightblue" stroke="midnightblue" points="2395.09,-259.43 2400.7,-268.42 2401.92,-257.89 2395.09,-259.43"/>
</g>
<!-- Node80 -->
<g id="node44" class="node">
<title>Node80</title>
<g id="a_node44"><a xlink:href="d__event__lib_8cpp.html" target="_top" xlink:title=" ">
<polygon fill="white" stroke="black" points="4983,-73 4983,-103 5086,-103 5086,-73 4983,-73"/>
<text text-anchor="start" x="4991" y="-91" font-family="Helvetica,sans-Serif" font-size="10.00">src/d/event/d_event</text>
<text text-anchor="middle" x="5034.5" y="-80" font-family="Helvetica,sans-Serif" font-size="10.00">_lib.cpp</text>
</a>
</g>
</g>
<!-- Node2&#45;&gt;Node80 -->
<g id="edge63" class="edge">
<title>Node2&#45;&gt;Node80</title>
<path fill="none" stroke="midnightblue" d="M2473.95,-277.99C2880.44,-251.91 4910.31,-121.29 4973.5,-109 4981.05,-107.53 4988.96,-105.4 4996.49,-103.07"/>
<polygon fill="midnightblue" stroke="midnightblue" points="2473.56,-274.5 2463.8,-278.64 2474.01,-281.49 2473.56,-274.5"/>
</g>
<!-- Node81 -->
<g id="node45" class="node">
<title>Node81</title>
<g id="a_node45"><a xlink:href="d__event__manager_8cpp.html" target="_top" xlink:title=" ">
<polygon fill="white" stroke="black" points="5104,-73 5104,-103 5207,-103 5207,-73 5104,-73"/>
<text text-anchor="start" x="5112" y="-91" font-family="Helvetica,sans-Serif" font-size="10.00">src/d/event/d_event</text>
<text text-anchor="middle" x="5155.5" y="-80" font-family="Helvetica,sans-Serif" font-size="10.00">_manager.cpp</text>
</a>
</g>
</g>
<!-- Node2&#45;&gt;Node81 -->
<g id="edge64" class="edge">
<title>Node2&#45;&gt;Node81</title>
<path fill="none" stroke="midnightblue" d="M2473.92,-279.21C2721,-267.51 3571.39,-225.94 4272.5,-176 4638.56,-149.92 4735.94,-182.45 5095.5,-109 5102.82,-107.51 5110.48,-105.39 5117.79,-103.1"/>
<polygon fill="midnightblue" stroke="midnightblue" points="2473.47,-275.73 2463.65,-279.69 2473.8,-282.72 2473.47,-275.73"/>
</g>
<!-- Node97 -->
<g id="node50" class="node">
<title>Node97</title>
<g id="a_node50"><a xlink:href="d__event_8h.html" target="_top" xlink:title=" ">
<polygon fill="white" stroke="black" points="2247.5,-212.5 2247.5,-231.5 2375.5,-231.5 2375.5,-212.5 2247.5,-212.5"/>
<text text-anchor="middle" x="2311.5" y="-219.5" font-family="Helvetica,sans-Serif" font-size="10.00">include/d/event/d_event.h</text>
</a>
</g>
</g>
<!-- Node2&#45;&gt;Node97 -->
<g id="edge60" class="edge">
<title>Node2&#45;&gt;Node97</title>
<path fill="none" stroke="midnightblue" d="M2373,-262.78C2356.7,-252.23 2337.45,-239.78 2324.89,-231.66"/>
<polygon fill="midnightblue" stroke="midnightblue" points="2371.4,-265.91 2381.7,-268.4 2375.2,-260.03 2371.4,-265.91"/>
</g>
<!-- Node4 -->
<g id="node4" class="node">
<title>Node4</title>
<g id="a_node4"><a xlink:href="d__a__npc_8h.html" target="_top" xlink:title=" ">
<polygon fill="white" stroke="red" points="4625,-78.5 4625,-97.5 4736,-97.5 4736,-78.5 4625,-78.5"/>
<text text-anchor="middle" x="4680.5" y="-85.5" font-family="Helvetica,sans-Serif" font-size="10.00">include/d/a/d_a_npc.h</text>
</a>
</g>
</g>
<!-- Node3&#45;&gt;Node4 -->
<g id="edge3" class="edge">
<title>Node3&#45;&gt;Node4</title>
<path fill="none" stroke="midnightblue" d="M2422.81,-159.03C2769.79,-156.41 4389.64,-142.46 4610.5,-109 4626,-106.65 4642.9,-101.89 4656.22,-97.6"/>
<polygon fill="midnightblue" stroke="midnightblue" points="2422.65,-155.53 2412.68,-159.11 2422.71,-162.53 2422.65,-155.53"/>
</g>
<!-- Node10 -->
<g id="node5" class="node">
<title>Node10</title>
<g id="a_node5"><a xlink:href="d__cc__uty_8h.html" target="_top" xlink:title=" ">
<polygon fill="white" stroke="red" points="203,-78.5 203,-97.5 322,-97.5 322,-78.5 203,-78.5"/>
<text text-anchor="middle" x="262.5" y="-85.5" font-family="Helvetica,sans-Serif" font-size="10.00">include/d/cc/d_cc_uty.h</text>
</a>
</g>
</g>
<!-- Node3&#45;&gt;Node10 -->
<g id="edge4" class="edge">
<title>Node3&#45;&gt;Node10</title>
<path fill="none" stroke="midnightblue" d="M2292.25,-158.8C1967.52,-155.17 533.42,-137.65 336.5,-109 320.17,-106.62 302.3,-101.86 288.21,-97.57"/>
<polygon fill="midnightblue" stroke="midnightblue" points="2292.39,-162.3 2302.43,-158.91 2292.47,-155.3 2292.39,-162.3"/>
</g>
<!-- Node12 -->
<g id="node6" class="node">
<title>Node12</title>
<g id="a_node6"><a xlink:href="d__item_8h.html" target="_top" xlink:title=" ">
<polygon fill="white" stroke="red" points="583,-78.5 583,-97.5 678,-97.5 678,-78.5 583,-78.5"/>
<text text-anchor="middle" x="630.5" y="-85.5" font-family="Helvetica,sans-Serif" font-size="10.00">include/d/d_item.h</text>
</a>
</g>
</g>
<!-- Node3&#45;&gt;Node12 -->
<g id="edge5" class="edge">
<title>Node3&#45;&gt;Node12</title>
<path fill="none" stroke="midnightblue" d="M2292.16,-158.73C2003.05,-155.17 846.02,-139.12 686.5,-109 673.92,-106.62 660.39,-101.86 649.78,-97.57"/>
<polygon fill="midnightblue" stroke="midnightblue" points="2292.44,-162.23 2302.48,-158.86 2292.52,-155.24 2292.44,-162.23"/>
</g>
<!-- Node13 -->
<g id="node7" class="node">
<title>Node13</title>
<g id="a_node7"><a xlink:href="d__a__alink_8cpp.html" target="_top" xlink:title=" ">
<polygon fill="white" stroke="black" points="590,-6 590,-25 699,-25 699,-6 590,-6"/>
<text text-anchor="middle" x="644.5" y="-13" font-family="Helvetica,sans-Serif" font-size="10.00">src/d/a/d_a_alink.cpp</text>
</a>
</g>
</g>
<!-- Node3&#45;&gt;Node13 -->
<g id="edge31" class="edge">
<title>Node3&#45;&gt;Node13</title>
<path fill="none" stroke="midnightblue" d="M2291.77,-158.88C1973.22,-155.74 604.03,-140.41 573.5,-109 560.49,-95.62 564.94,-83.59 573.5,-67 583.83,-46.97 606.19,-33.15 623.07,-25.09"/>
<polygon fill="midnightblue" stroke="midnightblue" points="2292.18,-162.39 2302.21,-158.98 2292.25,-155.39 2292.18,-162.39"/>
</g>
<!-- Node14 -->
<g id="node8" class="node">
<title>Node14</title>
<g id="a_node8"><a xlink:href="d__a__obj__item_8cpp.html" target="_top" xlink:title=" ">
<polygon fill="white" stroke="black" points="873,-6 873,-25 998,-25 998,-6 873,-6"/>
<text text-anchor="middle" x="935.5" y="-13" font-family="Helvetica,sans-Serif" font-size="10.00">src/d/a/d_a_obj_item.cpp</text>
</a>
</g>
</g>
<!-- Node3&#45;&gt;Node14 -->
<g id="edge33" class="edge">
<title>Node3&#45;&gt;Node14</title>
<path fill="none" stroke="midnightblue" d="M2291.93,-159.78C2051.13,-160.41 1224.02,-158.89 1117.5,-109 1094.7,-98.32 1100.47,-80.93 1079.5,-67 1047.94,-46.04 1006.71,-32.74 976.46,-25.08"/>
<polygon fill="midnightblue" stroke="midnightblue" points="2292.29,-163.28 2302.28,-159.75 2292.27,-156.28 2292.29,-163.28"/>
</g>
<!-- Node15 -->
<g id="node9" class="node">
<title>Node15</title>
<g id="a_node9"><a xlink:href="d__com__inf__game_8cpp.html" target="_top" xlink:title=" ">
<polygon fill="white" stroke="black" points="1030.5,-0.5 1030.5,-30.5 1138.5,-30.5 1138.5,-0.5 1030.5,-0.5"/>
<text text-anchor="start" x="1038.5" y="-18.5" font-family="Helvetica,sans-Serif" font-size="10.00">src/d/com/d_com_inf</text>
<text text-anchor="middle" x="1084.5" y="-7.5" font-family="Helvetica,sans-Serif" font-size="10.00">_game.cpp</text>
</a>
</g>
</g>
<!-- Node3&#45;&gt;Node15 -->
<g id="edge39" class="edge">
<title>Node3&#45;&gt;Node15</title>
<path fill="none" stroke="midnightblue" d="M2292.15,-159.84C2056.9,-160.64 1261.83,-159.53 1160.5,-109 1143.02,-100.28 1110.22,-54.48 1094.04,-30.77"/>
<polygon fill="midnightblue" stroke="midnightblue" points="2292.27,-163.34 2302.26,-159.8 2292.25,-156.34 2292.27,-163.34"/>
</g>
<!-- Node18 -->
<g id="node10" class="node">
<title>Node18</title>
<g id="a_node10"><a xlink:href="d__kantera__icon__meter_8h.html" target="_top" xlink:title=" ">
<polygon fill="white" stroke="red" points="696,-73 696,-103 797,-103 797,-73 696,-73"/>
<text text-anchor="start" x="704" y="-91" font-family="Helvetica,sans-Serif" font-size="10.00">include/d/d_kantera</text>
<text text-anchor="middle" x="746.5" y="-80" font-family="Helvetica,sans-Serif" font-size="10.00">_icon_meter.h</text>
</a>
</g>
</g>
<!-- Node3&#45;&gt;Node18 -->
<g id="edge9" class="edge">
<title>Node3&#45;&gt;Node18</title>
<path fill="none" stroke="midnightblue" d="M2292.06,-159.93C2035.44,-161.2 1097.53,-162.04 805.5,-109 797.94,-107.63 790.04,-105.48 782.57,-103.09"/>
<polygon fill="midnightblue" stroke="midnightblue" points="2292.35,-163.42 2302.34,-159.87 2292.32,-156.42 2292.35,-163.42"/>
</g>
<!-- Node21 -->
<g id="node11" class="node">
<title>Node21</title>
<g id="a_node11"><a xlink:href="d__model_8h.html" target="_top" xlink:title=" ">
<polygon fill="white" stroke="red" points="815,-78.5 815,-97.5 918,-97.5 918,-78.5 815,-78.5"/>
<text text-anchor="middle" x="866.5" y="-85.5" font-family="Helvetica,sans-Serif" font-size="10.00">include/d/d_model.h</text>
</a>
</g>
</g>
<!-- Node3&#45;&gt;Node21 -->
<g id="edge10" class="edge">
<title>Node3&#45;&gt;Node21</title>
<path fill="none" stroke="midnightblue" d="M2292.36,-159.67C2049.09,-159.92 1194.06,-157.28 926.5,-109 913.1,-106.58 898.61,-101.81 887.22,-97.54"/>
<polygon fill="midnightblue" stroke="midnightblue" points="2292.47,-163.17 2302.46,-159.66 2292.46,-156.17 2292.47,-163.17"/>
</g>
<!-- Node23 -->
<g id="node12" class="node">
<title>Node23</title>
<g id="a_node12"><a xlink:href="d__name_8h.html" target="_top" xlink:title=" ">
<polygon fill="white" stroke="red" points="936,-78.5 936,-97.5 1037,-97.5 1037,-78.5 936,-78.5"/>
<text text-anchor="middle" x="986.5" y="-85.5" font-family="Helvetica,sans-Serif" font-size="10.00">include/d/d_name.h</text>
</a>
</g>
</g>
<!-- Node3&#45;&gt;Node23 -->
<g id="edge11" class="edge">
<title>Node3&#45;&gt;Node23</title>
<path fill="none" stroke="midnightblue" d="M2292.05,-159.21C2062.37,-157.86 1293.97,-150.27 1051.5,-109 1037.07,-106.54 1021.37,-101.77 1009.01,-97.51"/>
<polygon fill="midnightblue" stroke="midnightblue" points="2292.23,-162.71 2302.25,-159.27 2292.27,-155.71 2292.23,-162.71"/>
</g>
<!-- Node25 -->
<g id="node13" class="node">
<title>Node25</title>
<g id="a_node13"><a xlink:href="d__file__sel__info_8h.html" target="_top" xlink:title=" ">
<polygon fill="white" stroke="red" points="4754.5,-73 4754.5,-103 4850.5,-103 4850.5,-73 4754.5,-73"/>
<text text-anchor="start" x="4762.5" y="-91" font-family="Helvetica,sans-Serif" font-size="10.00">include/d/file/d_file</text>
<text text-anchor="middle" x="4802.5" y="-80" font-family="Helvetica,sans-Serif" font-size="10.00">_sel_info.h</text>
</a>
</g>
</g>
<!-- Node3&#45;&gt;Node25 -->
<g id="edge12" class="edge">
<title>Node3&#45;&gt;Node25</title>
<path fill="none" stroke="midnightblue" d="M2422.6,-158.7C2793.57,-154.09 4628.17,-130.26 4745.5,-109 4752.93,-107.65 4760.69,-105.48 4768,-103.06"/>
<polygon fill="midnightblue" stroke="midnightblue" points="2422.52,-155.2 2412.57,-158.83 2422.61,-162.2 2422.52,-155.2"/>
</g>
<!-- Node27 -->
<g id="node14" class="node">
<title>Node27</title>
<g id="a_node14"><a xlink:href="d__menu__save_8cpp.html" target="_top" xlink:title=" ">
<polygon fill="white" stroke="black" points="4729,-6 4729,-25 4876,-25 4876,-6 4729,-6"/>
<text text-anchor="middle" x="4802.5" y="-13" font-family="Helvetica,sans-Serif" font-size="10.00">src/d/menu/d_menu_save.cpp</text>
</a>
</g>
</g>
<!-- Node3&#45;&gt;Node27 -->
<g id="edge57" class="edge">
<title>Node3&#45;&gt;Node27</title>
<path fill="none" stroke="midnightblue" d="M2422.7,-158.71C2784.1,-154.27 4527.08,-131.67 4577.5,-109 4600.73,-98.55 4594.7,-80.18 4616.5,-67 4653.3,-44.75 4700.02,-32.12 4737.43,-25.05"/>
<polygon fill="midnightblue" stroke="midnightblue" points="2422.62,-155.21 2412.66,-158.84 2422.7,-162.21 2422.62,-155.21"/>
</g>
<!-- Node28 -->
<g id="node15" class="node">
<title>Node28</title>
<g id="a_node15"><a xlink:href="d__file__sel__warning_8h.html" target="_top" xlink:title=" ">
<polygon fill="white" stroke="red" points="4868.5,-73 4868.5,-103 4964.5,-103 4964.5,-73 4868.5,-73"/>
<text text-anchor="start" x="4876.5" y="-91" font-family="Helvetica,sans-Serif" font-size="10.00">include/d/file/d_file</text>
<text text-anchor="middle" x="4916.5" y="-80" font-family="Helvetica,sans-Serif" font-size="10.00">_sel_warning.h</text>
</a>
</g>
</g>
<!-- Node3&#45;&gt;Node28 -->
<g id="edge14" class="edge">
<title>Node3&#45;&gt;Node28</title>
<path fill="none" stroke="midnightblue" d="M2422.63,-158.77C2804.11,-154.41 4736.24,-131.28 4859.5,-109 4866.93,-107.66 4874.69,-105.49 4882.01,-103.06"/>
<polygon fill="midnightblue" stroke="midnightblue" points="2422.54,-155.27 2412.59,-158.88 2422.62,-162.27 2422.54,-155.27"/>
</g>
<!-- Node30 -->
<g id="node16" class="node">
<title>Node30</title>
<g id="a_node16"><a xlink:href="d__meter2_8h.html" target="_top" xlink:title=" ">
<polygon fill="white" stroke="red" points="1169.5,-78.5 1169.5,-97.5 1303.5,-97.5 1303.5,-78.5 1169.5,-78.5"/>
<text text-anchor="middle" x="1236.5" y="-85.5" font-family="Helvetica,sans-Serif" font-size="10.00">include/d/meter/d_meter2.h</text>
</a>
</g>
</g>
<!-- Node3&#45;&gt;Node30 -->
<g id="edge16" class="edge">
<title>Node3&#45;&gt;Node30</title>
<path fill="none" stroke="midnightblue" d="M2292.25,-158.13C2094.33,-153.7 1502.75,-138.3 1312.5,-109 1295.91,-106.45 1277.72,-101.73 1263.29,-97.52"/>
<polygon fill="midnightblue" stroke="midnightblue" points="2292.41,-161.64 2302.49,-158.36 2292.57,-154.64 2292.41,-161.64"/>
</g>
<!-- Node38 -->
<g id="node17" class="node">
<title>Node38</title>
<g id="a_node17"><a xlink:href="d__msg__object_8h.html" target="_top" xlink:title=" ">
<polygon fill="white" stroke="red" points="378.5,-73 378.5,-103 488.5,-103 488.5,-73 378.5,-73"/>
<text text-anchor="start" x="386.5" y="-91" font-family="Helvetica,sans-Serif" font-size="10.00">include/d/msg/d_msg</text>
<text text-anchor="middle" x="433.5" y="-80" font-family="Helvetica,sans-Serif" font-size="10.00">_object.h</text>
</a>
</g>
</g>
<!-- Node3&#45;&gt;Node38 -->
<g id="edge17" class="edge">
<title>Node3&#45;&gt;Node38</title>
<path fill="none" stroke="midnightblue" d="M2292.18,-158.71C1983.88,-154.84 681.91,-136.97 502.5,-109 493.75,-107.64 484.55,-105.49 475.81,-103.1"/>
<polygon fill="midnightblue" stroke="midnightblue" points="2292.25,-162.21 2302.29,-158.84 2292.34,-155.21 2292.25,-162.21"/>
</g>
<!-- Node43 -->
<g id="node18" class="node">
<title>Node43</title>
<g id="a_node18"><a xlink:href="d__demo_8cpp.html" target="_top" xlink:title=" ">
<polygon fill="white" stroke="black" points="732.5,-6 732.5,-25 826.5,-25 826.5,-6 732.5,-6"/>
<text text-anchor="middle" x="779.5" y="-13" font-family="Helvetica,sans-Serif" font-size="10.00">src/d/d_demo.cpp</text>
</a>
</g>
</g>
<!-- Node3&#45;&gt;Node43 -->
<g id="edge41" class="edge">
<title>Node3&#45;&gt;Node43</title>
<path fill="none" stroke="midnightblue" d="M2292.28,-158.41C2039.3,-154.01 1134.1,-136.39 1079.5,-109 1058.03,-98.23 1066.11,-79.33 1045.5,-67 1036.15,-61.41 900.68,-37.4 826.78,-24.61"/>
<polygon fill="midnightblue" stroke="midnightblue" points="2292.37,-161.92 2302.42,-158.59 2292.49,-154.92 2292.37,-161.92"/>
</g>
<!-- Node44 -->
<g id="node19" class="node">
<title>Node44</title>
<g id="a_node19"><a xlink:href="d__event_8cpp.html" target="_top" xlink:title=" ">
<polygon fill="white" stroke="black" points="0,-6 0,-25 121,-25 121,-6 0,-6"/>
<text text-anchor="middle" x="60.5" y="-13" font-family="Helvetica,sans-Serif" font-size="10.00">src/d/event/d_event.cpp</text>
</a>
</g>
</g>
<!-- Node3&#45;&gt;Node44 -->
<g id="edge49" class="edge">
<title>Node3&#45;&gt;Node44</title>
<path fill="none" stroke="midnightblue" d="M2292.34,-159.16C1940.38,-157.19 278.33,-145.96 176.5,-109 127.83,-91.34 84.08,-44.39 67.52,-25.03"/>
<polygon fill="midnightblue" stroke="midnightblue" points="2292.35,-162.66 2302.37,-159.22 2292.39,-155.66 2292.35,-162.66"/>
</g>
<!-- Node3&#45;&gt;Node45 -->
<g id="edge50" class="edge">
<title>Node3&#45;&gt;Node45</title>
<path fill="none" stroke="midnightblue" d="M2292.18,-159.2C1934.88,-157.41 231.72,-146.88 193.5,-109 172.96,-88.64 179.82,-51.18 185.7,-30.73"/>
<polygon fill="midnightblue" stroke="midnightblue" points="2292.34,-162.7 2302.35,-159.25 2292.37,-155.7 2292.34,-162.7"/>
</g>
<!-- Node46 -->
<g id="node21" class="node">
<title>Node46</title>
<g id="a_node21"><a xlink:href="d__kankyo_8cpp.html" target="_top" xlink:title=" ">
<polygon fill="white" stroke="black" points="260.5,-6 260.5,-25 394.5,-25 394.5,-6 260.5,-6"/>
<text text-anchor="middle" x="327.5" y="-13" font-family="Helvetica,sans-Serif" font-size="10.00">src/d/kankyo/d_kankyo.cpp</text>
</a>
</g>
</g>
<!-- Node3&#45;&gt;Node46 -->
<g id="edge53" class="edge">
<title>Node3&#45;&gt;Node46</title>
<path fill="none" stroke="midnightblue" d="M2291.97,-159.78C1957.29,-160.95 451.34,-163.21 369.5,-109 340.09,-89.52 331,-44.02 328.43,-25.05"/>
<polygon fill="midnightblue" stroke="midnightblue" points="2292.47,-163.28 2302.45,-159.74 2292.44,-156.28 2292.47,-163.28"/>
</g>
<!-- Node34 -->
<g id="node22" class="node">
<title>Node34</title>
<g id="a_node22"><a xlink:href="d__menu__window_8cpp.html" target="_top" xlink:title=" ">
<polygon fill="white" stroke="black" points="413,-6 413,-25 572,-25 572,-6 413,-6"/>
<text text-anchor="middle" x="492.5" y="-13" font-family="Helvetica,sans-Serif" font-size="10.00">src/d/menu/d_menu_window.cpp</text>
</a>
</g>
</g>
<!-- Node3&#45;&gt;Node34 -->
<g id="edge58" class="edge">
<title>Node3&#45;&gt;Node34</title>
<path fill="none" stroke="midnightblue" d="M2291.72,-159.25C1977.31,-157.86 639.64,-149.58 561.5,-109 525.94,-90.53 503.83,-44.46 495.86,-25.19"/>
<polygon fill="midnightblue" stroke="midnightblue" points="2292.02,-162.75 2302.03,-159.3 2292.05,-155.75 2292.02,-162.75"/>
</g>
<!-- Node52 -->
<g id="node23" class="node">
<title>Node52</title>
<g id="a_node23"><a xlink:href="d__s__logo_8h.html" target="_top" xlink:title=" ">
<polygon fill="white" stroke="red" points="1322,-78.5 1322,-97.5 1435,-97.5 1435,-78.5 1322,-78.5"/>
<text text-anchor="middle" x="1378.5" y="-85.5" font-family="Helvetica,sans-Serif" font-size="10.00">include/d/s/d_s_logo.h</text>
</a>
</g>
</g>
<!-- Node3&#45;&gt;Node52 -->
<g id="edge24" class="edge">
<title>Node3&#45;&gt;Node52</title>
<path fill="none" stroke="midnightblue" d="M2292.14,-157.95C2111.27,-153.34 1606.75,-138.17 1443.5,-109 1429.2,-106.45 1413.64,-101.73 1401.33,-97.52"/>
<polygon fill="midnightblue" stroke="midnightblue" points="2292.22,-161.46 2302.3,-158.21 2292.39,-154.46 2292.22,-161.46"/>
</g>
<!-- Node54 -->
<g id="node24" class="node">
<title>Node54</title>
<g id="a_node24"><a xlink:href="d__s__play_8h.html" target="_top" xlink:title=" ">
<polygon fill="white" stroke="red" points="1453,-78.5 1453,-97.5 1566,-97.5 1566,-78.5 1453,-78.5"/>
<text text-anchor="middle" x="1509.5" y="-85.5" font-family="Helvetica,sans-Serif" font-size="10.00">include/d/s/d_s_play.h</text>
</a>
</g>
</g>
<!-- Node3&#45;&gt;Node54 -->
<g id="edge25" class="edge">
<title>Node3&#45;&gt;Node54</title>
<path fill="none" stroke="midnightblue" d="M2292.19,-160.42C2157.03,-161.19 1837.3,-157.22 1574.5,-109 1560.33,-106.4 1544.91,-101.74 1532.64,-97.57"/>
<polygon fill="midnightblue" stroke="midnightblue" points="2292.4,-163.92 2302.38,-160.35 2292.35,-156.92 2292.4,-163.92"/>
</g>
<!-- Node58 -->
<g id="node25" class="node">
<title>Node58</title>
<g id="a_node25"><a xlink:href="d__msg__scrn__base_8h.html" target="_top" xlink:title=" ">
<polygon fill="white" stroke="red" points="1584,-73 1584,-103 1683,-103 1683,-73 1584,-73"/>
<text text-anchor="start" x="1592" y="-91" font-family="Helvetica,sans-Serif" font-size="10.00">include/msg/scrn/d</text>
<text text-anchor="middle" x="1633.5" y="-80" font-family="Helvetica,sans-Serif" font-size="10.00">_msg_scrn_base.h</text>
</a>
</g>
</g>
<!-- Node3&#45;&gt;Node58 -->
<g id="edge26" class="edge">
<title>Node3&#45;&gt;Node58</title>
<path fill="none" stroke="midnightblue" d="M2292.32,-160.06C2172.19,-159.88 1908.32,-153.83 1691.5,-109 1684.3,-107.51 1676.77,-105.37 1669.61,-103.04"/>
<polygon fill="midnightblue" stroke="midnightblue" points="2292.45,-163.56 2302.45,-160.06 2292.45,-156.56 2292.45,-163.56"/>
</g>
<!-- Node62 -->
<g id="node26" class="node">
<title>Node62</title>
<g id="a_node26"><a xlink:href="d__a__b__zant_8h.html" target="_top" xlink:title=" ">
<polygon fill="white" stroke="black" points="1701,-73 1701,-103 1822,-103 1822,-73 1701,-73"/>
<text text-anchor="start" x="1709" y="-91" font-family="Helvetica,sans-Serif" font-size="10.00">include/rel/d/a/b/d</text>
<text text-anchor="middle" x="1761.5" y="-80" font-family="Helvetica,sans-Serif" font-size="10.00">_a_b_zant/d_a_b_zant.h</text>
</a>
</g>
</g>
<!-- Node3&#45;&gt;Node62 -->
<g id="edge27" class="edge">
<title>Node3&#45;&gt;Node62</title>
<path fill="none" stroke="midnightblue" d="M2291.88,-157.05C2191.8,-152.45 1995.39,-140.01 1831.5,-109 1823.18,-107.43 1814.42,-105.31 1806.02,-103.03"/>
<polygon fill="midnightblue" stroke="midnightblue" points="2291.99,-160.56 2302.13,-157.51 2292.3,-153.56 2291.99,-160.56"/>
</g>
<!-- Node63 -->
<g id="node27" class="node">
<title>Node63</title>
<g id="a_node27"><a xlink:href="d__a__spinner_8h.html" target="_top" xlink:title=" ">
<polygon fill="white" stroke="black" points="1840.5,-73 1840.5,-103 1956.5,-103 1956.5,-73 1840.5,-73"/>
<text text-anchor="start" x="1848.5" y="-91" font-family="Helvetica,sans-Serif" font-size="10.00">include/rel/d/a/d_a</text>
<text text-anchor="middle" x="1898.5" y="-80" font-family="Helvetica,sans-Serif" font-size="10.00">_spinner/d_a_spinner.h</text>
</a>
</g>
</g>
<!-- Node3&#45;&gt;Node63 -->
<g id="edge28" class="edge">
<title>Node3&#45;&gt;Node63</title>
<path fill="none" stroke="midnightblue" d="M2292.3,-154.36C2214.07,-147.44 2079.2,-133.13 1965.5,-109 1957.78,-107.36 1949.66,-105.27 1941.85,-103.05"/>
<polygon fill="midnightblue" stroke="midnightblue" points="2292.23,-157.86 2302.49,-155.24 2292.83,-150.89 2292.23,-157.86"/>
</g>
<!-- Node64 -->
<g id="node28" class="node">
<title>Node64</title>
<g id="a_node28"><a xlink:href="d__a__tag__telop_8h.html" target="_top" xlink:title=" ">
<polygon fill="white" stroke="black" points="1974.5,-67.5 1974.5,-108.5 2092.5,-108.5 2092.5,-67.5 1974.5,-67.5"/>
<text text-anchor="start" x="1982.5" y="-96.5" font-family="Helvetica,sans-Serif" font-size="10.00">include/rel/d/a/tag</text>
<text text-anchor="start" x="1982.5" y="-85.5" font-family="Helvetica,sans-Serif" font-size="10.00">/d_a_tag_telop/d_a_tag</text>
<text text-anchor="middle" x="2033.5" y="-74.5" font-family="Helvetica,sans-Serif" font-size="10.00">_telop.h</text>
</a>
</g>
</g>
<!-- Node3&#45;&gt;Node64 -->
<g id="edge29" class="edge">
<title>Node3&#45;&gt;Node64</title>
<path fill="none" stroke="midnightblue" d="M2292.17,-148.31C2240.22,-139.01 2165.85,-124.77 2101.5,-109 2098.63,-108.3 2095.7,-107.55 2092.75,-106.77"/>
<polygon fill="midnightblue" stroke="midnightblue" points="2291.79,-151.8 2302.25,-150.11 2293.02,-144.91 2291.79,-151.8"/>
</g>
<!-- Node65 -->
<g id="node29" class="node">
<title>Node65</title>
<g id="a_node29"><a xlink:href="c__dylink_8cpp.html" target="_top" xlink:title=" ">
<polygon fill="white" stroke="black" points="2111,-78.5 2111,-97.5 2206,-97.5 2206,-78.5 2111,-78.5"/>
<text text-anchor="middle" x="2158.5" y="-85.5" font-family="Helvetica,sans-Serif" font-size="10.00">src/c/c_dylink.cpp</text>
</a>
</g>
</g>
<!-- Node3&#45;&gt;Node65 -->
<g id="edge30" class="edge">
<title>Node3&#45;&gt;Node65</title>
<path fill="none" stroke="midnightblue" d="M2308.14,-142.01C2268.17,-127.85 2213.58,-108.51 2182.59,-97.53"/>
<polygon fill="midnightblue" stroke="midnightblue" points="2307.11,-145.36 2317.71,-145.4 2309.45,-138.76 2307.11,-145.36"/>
</g>
<!-- Node66 -->
<g id="node30" class="node">
<title>Node66</title>
<g id="a_node30"><a xlink:href="d__a__itembase_8cpp.html" target="_top" xlink:title=" ">
<polygon fill="white" stroke="black" points="2224.5,-78.5 2224.5,-97.5 2352.5,-97.5 2352.5,-78.5 2224.5,-78.5"/>
<text text-anchor="middle" x="2288.5" y="-85.5" font-family="Helvetica,sans-Serif" font-size="10.00">src/d/a/d_a_itembase.cpp</text>
</a>
</g>
</g>
<!-- Node3&#45;&gt;Node66 -->
<g id="edge32" class="edge">
<title>Node3&#45;&gt;Node66</title>
<path fill="none" stroke="midnightblue" d="M2336.22,-137.76C2323.09,-124.34 2306.95,-107.85 2297.2,-97.89"/>
<polygon fill="midnightblue" stroke="midnightblue" points="2334.04,-140.53 2343.54,-145.23 2339.04,-135.64 2334.04,-140.53"/>
</g>
<!-- Node67 -->
<g id="node31" class="node">
<title>Node67</title>
<g id="a_node31"><a xlink:href="d__a__player_8cpp.html" target="_top" xlink:title=" ">
<polygon fill="white" stroke="black" points="2370.5,-78.5 2370.5,-97.5 2484.5,-97.5 2484.5,-78.5 2370.5,-78.5"/>
<text text-anchor="middle" x="2427.5" y="-85.5" font-family="Helvetica,sans-Serif" font-size="10.00">src/d/a/d_a_player.cpp</text>
</a>
</g>
</g>
<!-- Node3&#45;&gt;Node67 -->
<g id="edge34" class="edge">
<title>Node3&#45;&gt;Node67</title>
<path fill="none" stroke="midnightblue" d="M2378.71,-138.14C2392.1,-124.65 2408.69,-107.94 2418.67,-97.89"/>
<polygon fill="midnightblue" stroke="midnightblue" points="2376.23,-135.67 2371.67,-145.23 2381.2,-140.6 2376.23,-135.67"/>
</g>
<!-- Node68 -->
<g id="node32" class="node">
<title>Node68</title>
<g id="a_node32"><a xlink:href="d__bg__s_8cpp.html" target="_top" xlink:title=" ">
<polygon fill="white" stroke="black" points="2502.5,-78.5 2502.5,-97.5 2606.5,-97.5 2606.5,-78.5 2502.5,-78.5"/>
<text text-anchor="middle" x="2554.5" y="-85.5" font-family="Helvetica,sans-Serif" font-size="10.00">src/d/bg/d_bg_s.cpp</text>
</a>
</g>
</g>
<!-- Node3&#45;&gt;Node68 -->
<g id="edge35" class="edge">
<title>Node3&#45;&gt;Node68</title>
<path fill="none" stroke="midnightblue" d="M2406.36,-142.01C2445.94,-127.85 2499.98,-108.51 2530.65,-97.53"/>
<polygon fill="midnightblue" stroke="midnightblue" points="2405.13,-138.74 2396.89,-145.4 2407.49,-145.33 2405.13,-138.74"/>
</g>
<!-- Node69 -->
<g id="node33" class="node">
<title>Node69</title>
<g id="a_node33"><a xlink:href="d__bg__s__movebg__actor_8cpp.html" target="_top" xlink:title=" ">
<polygon fill="white" stroke="black" points="2624.5,-73 2624.5,-103 2750.5,-103 2750.5,-73 2624.5,-73"/>
<text text-anchor="start" x="2632.5" y="-91" font-family="Helvetica,sans-Serif" font-size="10.00">src/d/bg/d_bg_s_movebg</text>
<text text-anchor="middle" x="2687.5" y="-80" font-family="Helvetica,sans-Serif" font-size="10.00">_actor.cpp</text>
</a>
</g>
</g>
<!-- Node3&#45;&gt;Node69 -->
<g id="edge36" class="edge">
<title>Node3&#45;&gt;Node69</title>
<path fill="none" stroke="midnightblue" d="M2422.78,-148.17C2475.12,-138.74 2550.33,-124.4 2615.5,-109 2623.08,-107.21 2631.05,-105.16 2638.83,-103.07"/>
<polygon fill="midnightblue" stroke="midnightblue" points="2421.85,-144.78 2412.62,-149.99 2423.09,-151.67 2421.85,-144.78"/>
</g>
<!-- Node70 -->
<g id="node34" class="node">
<title>Node70</title>
<g id="a_node34"><a xlink:href="d__bg__w_8cpp.html" target="_top" xlink:title=" ">
<polygon fill="white" stroke="black" points="2769,-78.5 2769,-97.5 2876,-97.5 2876,-78.5 2769,-78.5"/>
<text text-anchor="middle" x="2822.5" y="-85.5" font-family="Helvetica,sans-Serif" font-size="10.00">src/d/bg/d_bg_w.cpp</text>
</a>
</g>
</g>
<!-- Node3&#45;&gt;Node70 -->
<g id="edge37" class="edge">
<title>Node3&#45;&gt;Node70</title>
<path fill="none" stroke="midnightblue" d="M2423.08,-154.96C2503.18,-148.56 2642.46,-134.7 2759.5,-109 2772.84,-106.07 2787.39,-101.54 2799.14,-97.54"/>
<polygon fill="midnightblue" stroke="midnightblue" points="2422.35,-151.5 2412.66,-155.77 2422.9,-158.48 2422.35,-151.5"/>
</g>
<!-- Node71 -->
<g id="node35" class="node">
<title>Node71</title>
<g id="a_node35"><a xlink:href="d__cc__s_8cpp.html" target="_top" xlink:title=" ">
<polygon fill="white" stroke="black" points="2894.5,-78.5 2894.5,-97.5 2998.5,-97.5 2998.5,-78.5 2894.5,-78.5"/>
<text text-anchor="middle" x="2946.5" y="-85.5" font-family="Helvetica,sans-Serif" font-size="10.00">src/d/cc/d_cc_s.cpp</text>
</a>
</g>
</g>
<!-- Node3&#45;&gt;Node71 -->
<g id="edge38" class="edge">
<title>Node3&#45;&gt;Node71</title>
<path fill="none" stroke="midnightblue" d="M2422.99,-157.77C2523.31,-154.1 2720.63,-142.86 2884.5,-109 2897.9,-106.23 2912.49,-101.61 2924.14,-97.51"/>
<polygon fill="midnightblue" stroke="midnightblue" points="2422.58,-154.28 2412.71,-158.13 2422.82,-161.28 2422.58,-154.28"/>
</g>
<!-- Node72 -->
<g id="node36" class="node">
<title>Node72</title>
<g id="a_node36"><a xlink:href="d__com__static_8cpp.html" target="_top" xlink:title=" ">
<polygon fill="white" stroke="black" points="3016.5,-78.5 3016.5,-97.5 3156.5,-97.5 3156.5,-78.5 3016.5,-78.5"/>
<text text-anchor="middle" x="3086.5" y="-85.5" font-family="Helvetica,sans-Serif" font-size="10.00">src/d/com/d_com_static.cpp</text>
</a>
</g>
</g>
<!-- Node3&#45;&gt;Node72 -->
<g id="edge40" class="edge">
<title>Node3&#45;&gt;Node72</title>
<path fill="none" stroke="midnightblue" d="M2422.94,-158.1C2540.64,-154.76 2795.54,-143.8 3007.5,-109 3024.39,-106.23 3042.97,-101.61 3057.86,-97.51"/>
<polygon fill="midnightblue" stroke="midnightblue" points="2422.56,-154.61 2412.66,-158.38 2422.76,-161.6 2422.56,-154.61"/>
</g>
<!-- Node73 -->
<g id="node37" class="node">
<title>Node73</title>
<g id="a_node37"><a xlink:href="d__eye__hl_8cpp.html" target="_top" xlink:title=" ">
<polygon fill="white" stroke="black" points="3174.5,-78.5 3174.5,-97.5 3272.5,-97.5 3272.5,-78.5 3174.5,-78.5"/>
<text text-anchor="middle" x="3223.5" y="-85.5" font-family="Helvetica,sans-Serif" font-size="10.00">src/d/d_eye_hl.cpp</text>
</a>
</g>
</g>
<!-- Node3&#45;&gt;Node73 -->
<g id="edge42" class="edge">
<title>Node3&#45;&gt;Node73</title>
<path fill="none" stroke="midnightblue" d="M2422.72,-157.69C2588.67,-152.72 3023.83,-137.31 3165.5,-109 3178.35,-106.43 3192.24,-101.72 3203.2,-97.51"/>
<polygon fill="midnightblue" stroke="midnightblue" points="2422.55,-154.19 2412.65,-157.99 2422.75,-161.19 2422.55,-154.19"/>
</g>
<!-- Node74 -->
<g id="node38" class="node">
<title>Node74</title>
<g id="a_node38"><a xlink:href="d__kyeff_8cpp.html" target="_top" xlink:title=" ">
<polygon fill="white" stroke="black" points="3290.5,-78.5 3290.5,-97.5 3380.5,-97.5 3380.5,-78.5 3290.5,-78.5"/>
<text text-anchor="middle" x="3335.5" y="-85.5" font-family="Helvetica,sans-Serif" font-size="10.00">src/d/d_kyeff.cpp</text>
</a>
</g>
</g>
<!-- Node3&#45;&gt;Node74 -->
<g id="edge43" class="edge">
<title>Node3&#45;&gt;Node74</title>
<path fill="none" stroke="midnightblue" d="M2423.02,-158.47C2605.55,-155.18 3117.16,-143.11 3281.5,-109 3293.44,-106.52 3306.27,-101.86 3316.42,-97.67"/>
<polygon fill="midnightblue" stroke="midnightblue" points="2422.71,-154.97 2412.77,-158.65 2422.83,-161.97 2422.71,-154.97"/>
</g>
<!-- Node75 -->
<g id="node39" class="node">
<title>Node75</title>
<g id="a_node39"><a xlink:href="d__resorce_8cpp.html" target="_top" xlink:title=" ">
<polygon fill="white" stroke="black" points="3398.5,-78.5 3398.5,-97.5 3500.5,-97.5 3500.5,-78.5 3398.5,-78.5"/>
<text text-anchor="middle" x="3449.5" y="-85.5" font-family="Helvetica,sans-Serif" font-size="10.00">src/d/d_resorce.cpp</text>
</a>
</g>
</g>
<!-- Node3&#45;&gt;Node75 -->
<g id="edge44" class="edge">
<title>Node3&#45;&gt;Node75</title>
<path fill="none" stroke="midnightblue" d="M2422.72,-158.63C2619.11,-155.64 3202.87,-143.99 3389.5,-109 3402.77,-106.51 3417.14,-101.8 3428.49,-97.57"/>
<polygon fill="midnightblue" stroke="midnightblue" points="2422.5,-155.13 2412.55,-158.78 2422.6,-162.13 2422.5,-155.13"/>
</g>
<!-- Node76 -->
<g id="node40" class="node">
<title>Node76</title>
<g id="a_node40"><a xlink:href="d__simple__model_8cpp.html" target="_top" xlink:title=" ">
<polygon fill="white" stroke="black" points="3518.5,-78.5 3518.5,-97.5 3648.5,-97.5 3648.5,-78.5 3518.5,-78.5"/>
<text text-anchor="middle" x="3583.5" y="-85.5" font-family="Helvetica,sans-Serif" font-size="10.00">src/d/d_simple_model.cpp</text>
</a>
</g>
</g>
<!-- Node3&#45;&gt;Node76 -->
<g id="edge45" class="edge">
<title>Node3&#45;&gt;Node76</title>
<path fill="none" stroke="midnightblue" d="M2422.86,-158.53C2634.2,-155.08 3297.69,-141.85 3509.5,-109 3525.68,-106.49 3543.39,-101.78 3557.43,-97.55"/>
<polygon fill="midnightblue" stroke="midnightblue" points="2422.49,-155.03 2412.54,-158.69 2422.6,-162.03 2422.49,-155.03"/>
</g>
<!-- Node77 -->
<g id="node41" class="node">
<title>Node77</title>
<g id="a_node41"><a xlink:href="d__stage_8cpp.html" target="_top" xlink:title=" ">
<polygon fill="white" stroke="black" points="3666.5,-78.5 3666.5,-97.5 3760.5,-97.5 3760.5,-78.5 3666.5,-78.5"/>
<text text-anchor="middle" x="3713.5" y="-85.5" font-family="Helvetica,sans-Serif" font-size="10.00">src/d/d_stage.cpp</text>
</a>
</g>
</g>
<!-- Node3&#45;&gt;Node77 -->
<g id="edge46" class="edge">
<title>Node3&#45;&gt;Node77</title>
<path fill="none" stroke="midnightblue" d="M2422.72,-159.58C2651.57,-159.45 3417.12,-155.46 3657.5,-109 3670.07,-106.57 3683.6,-101.8 3694.21,-97.53"/>
<polygon fill="midnightblue" stroke="midnightblue" points="2422.55,-156.08 2412.55,-159.58 2422.56,-163.08 2422.55,-156.08"/>
</g>
<!-- Node78 -->
<g id="node42" class="node">
<title>Node78</title>
<g id="a_node42"><a xlink:href="d__timer_8cpp.html" target="_top" xlink:title=" ">
<polygon fill="white" stroke="black" points="3778.5,-78.5 3778.5,-97.5 3870.5,-97.5 3870.5,-78.5 3778.5,-78.5"/>
<text text-anchor="middle" x="3824.5" y="-85.5" font-family="Helvetica,sans-Serif" font-size="10.00">src/d/d_timer.cpp</text>
</a>
</g>
</g>
<!-- Node3&#45;&gt;Node78 -->
<g id="edge47" class="edge">
<title>Node3&#45;&gt;Node78</title>
<path fill="none" stroke="midnightblue" d="M2422.63,-159.86C2663.91,-160.79 3506.47,-160.2 3769.5,-109 3781.87,-106.59 3795.16,-101.83 3805.58,-97.55"/>
<polygon fill="midnightblue" stroke="midnightblue" points="2422.62,-156.36 2412.61,-159.82 2422.59,-163.36 2422.62,-156.36"/>
</g>
<!-- Node79 -->
<g id="node43" class="node">
<title>Node79</title>
<g id="a_node43"><a xlink:href="d__tresure_8cpp.html" target="_top" xlink:title=" ">
<polygon fill="white" stroke="black" points="3888.5,-78.5 3888.5,-97.5 3988.5,-97.5 3988.5,-78.5 3888.5,-78.5"/>
<text text-anchor="middle" x="3938.5" y="-85.5" font-family="Helvetica,sans-Serif" font-size="10.00">src/d/d_tresure.cpp</text>
</a>
</g>
</g>
<!-- Node3&#45;&gt;Node79 -->
<g id="edge48" class="edge">
<title>Node3&#45;&gt;Node79</title>
<path fill="none" stroke="midnightblue" d="M2422.95,-159.88C2676.43,-160.94 3593.6,-161.02 3879.5,-109 3892.69,-106.6 3906.95,-101.83 3918.14,-97.55"/>
<polygon fill="midnightblue" stroke="midnightblue" points="2422.81,-156.38 2412.79,-159.83 2422.78,-163.38 2422.81,-156.38"/>
</g>
<!-- Node3&#45;&gt;Node80 -->
<g id="edge51" class="edge">
<title>Node3&#45;&gt;Node80</title>
<path fill="none" stroke="midnightblue" d="M2422.75,-158.79C2814.72,-154.44 4844.07,-130.96 4973.5,-109 4981.41,-107.66 4989.7,-105.49 4997.52,-103.06"/>
<polygon fill="midnightblue" stroke="midnightblue" points="2422.67,-155.29 2412.71,-158.9 2422.75,-162.29 2422.67,-155.29"/>
</g>
<!-- Node3&#45;&gt;Node81 -->
<g id="edge52" class="edge">
<title>Node3&#45;&gt;Node81</title>
<path fill="none" stroke="midnightblue" d="M2422.9,-159.48C2812.97,-159.2 4824.88,-155.48 5095.5,-109 5103.29,-107.66 5111.45,-105.49 5119.14,-103.07"/>
<polygon fill="midnightblue" stroke="midnightblue" points="2422.63,-155.98 2412.64,-159.49 2422.64,-162.98 2422.63,-155.98"/>
</g>
<!-- Node82 -->
<g id="node46" class="node">
<title>Node82</title>
<g id="a_node46"><a xlink:href="d__kankyo__wether_8cpp.html" target="_top" xlink:title=" ">
<polygon fill="white" stroke="black" points="4006.5,-73 4006.5,-103 4122.5,-103 4122.5,-73 4006.5,-73"/>
<text text-anchor="start" x="4014.5" y="-91" font-family="Helvetica,sans-Serif" font-size="10.00">src/d/kankyo/d_kankyo</text>
<text text-anchor="middle" x="4064.5" y="-80" font-family="Helvetica,sans-Serif" font-size="10.00">_wether.cpp</text>
</a>
</g>
</g>
<!-- Node3&#45;&gt;Node82 -->
<g id="edge54" class="edge">
<title>Node3&#45;&gt;Node82</title>
<path fill="none" stroke="midnightblue" d="M2423.04,-159.74C2688.78,-160.39 3686.54,-159.32 3997.5,-109 4006.01,-107.62 4014.95,-105.47 4023.43,-103.08"/>
<polygon fill="midnightblue" stroke="midnightblue" points="2422.8,-156.24 2412.79,-159.72 2422.78,-163.24 2422.8,-156.24"/>
</g>
<!-- Node83 -->
<g id="node47" class="node">
<title>Node83</title>
<g id="a_node47"><a xlink:href="d__map__path_8cpp.html" target="_top" xlink:title=" ">
<polygon fill="white" stroke="black" points="4140.5,-78.5 4140.5,-97.5 4274.5,-97.5 4274.5,-78.5 4140.5,-78.5"/>
<text text-anchor="middle" x="4207.5" y="-85.5" font-family="Helvetica,sans-Serif" font-size="10.00">src/d/map/d_map_path.cpp</text>
</a>
</g>
</g>
<!-- Node3&#45;&gt;Node83 -->
<g id="edge55" class="edge">
<title>Node3&#45;&gt;Node83</title>
<path fill="none" stroke="midnightblue" d="M2423.2,-159.64C2702.48,-159.92 3792.2,-157.82 4131.5,-109 4148.25,-106.59 4166.6,-101.82 4181.08,-97.55"/>
<polygon fill="midnightblue" stroke="midnightblue" points="2422.84,-156.14 2412.83,-159.63 2422.83,-163.14 2422.84,-156.14"/>
</g>
<!-- Node84 -->
<g id="node48" class="node">
<title>Node84</title>
<g id="a_node48"><a xlink:href="d__map__path__dmap_8cpp.html" target="_top" xlink:title=" ">
<polygon fill="white" stroke="black" points="4292.5,-73 4292.5,-103 4408.5,-103 4408.5,-73 4292.5,-73"/>
<text text-anchor="start" x="4300.5" y="-91" font-family="Helvetica,sans-Serif" font-size="10.00">src/d/map/d_map_path</text>
<text text-anchor="middle" x="4350.5" y="-80" font-family="Helvetica,sans-Serif" font-size="10.00">_dmap.cpp</text>
</a>
</g>
</g>
<!-- Node3&#45;&gt;Node84 -->
<g id="edge56" class="edge">
<title>Node3&#45;&gt;Node84</title>
<path fill="none" stroke="midnightblue" d="M2423.24,-158.81C2739.51,-155.32 4096.93,-138.76 4283.5,-109 4292.13,-107.62 4301.21,-105.44 4309.79,-103.01"/>
<polygon fill="midnightblue" stroke="midnightblue" points="2422.83,-155.31 2412.87,-158.92 2422.91,-162.31 2422.83,-155.31"/>
</g>
<!-- Node85 -->
<g id="node49" class="node">
<title>Node85</title>
<g id="a_node49"><a xlink:href="d__menu__window__HIO_8cpp.html" target="_top" xlink:title=" ">
<polygon fill="white" stroke="black" points="4427,-73 4427,-103 4568,-103 4568,-73 4427,-73"/>
<text text-anchor="start" x="4435" y="-91" font-family="Helvetica,sans-Serif" font-size="10.00">src/d/menu/d_menu_window</text>
<text text-anchor="middle" x="4497.5" y="-80" font-family="Helvetica,sans-Serif" font-size="10.00">_HIO.cpp</text>
</a>
</g>
</g>
<!-- Node3&#45;&gt;Node85 -->
<g id="edge59" class="edge">
<title>Node3&#45;&gt;Node85</title>
<path fill="none" stroke="midnightblue" d="M2422.92,-158.75C2751.76,-154.89 4216.29,-136.28 4417.5,-109 4427.57,-107.63 4438.21,-105.49 4448.33,-103.1"/>
<polygon fill="midnightblue" stroke="midnightblue" points="2422.57,-155.26 2412.61,-158.88 2422.65,-162.26 2422.57,-155.26"/>
</g>
<!-- Node12&#45;&gt;Node13 -->
<g id="edge6" class="edge">
<title>Node12&#45;&gt;Node13</title>
<path fill="none" stroke="midnightblue" d="M634.2,-68.36C636.97,-54.4 640.64,-35.93 642.77,-25.22"/>
<polygon fill="midnightblue" stroke="midnightblue" points="630.73,-67.87 632.22,-78.36 637.6,-69.23 630.73,-67.87"/>
</g>
<!-- Node12&#45;&gt;Node14 -->
<g id="edge7" class="edge">
<title>Node12&#45;&gt;Node14</title>
<path fill="none" stroke="midnightblue" d="M661.5,-75.04C669.57,-72.17 678.3,-69.28 686.5,-67 753,-48.48 831.25,-33.73 882.03,-25.06"/>
<polygon fill="midnightblue" stroke="midnightblue" points="660.27,-71.76 652.08,-78.48 662.67,-78.34 660.27,-71.76"/>
</g>
<!-- Node12&#45;&gt;Node15 -->
<g id="edge8" class="edge">
<title>Node12&#45;&gt;Node15</title>
<path fill="none" stroke="midnightblue" d="M660.27,-74.93C668.64,-71.93 677.83,-69.01 686.5,-67 825.93,-34.72 864.94,-52.09 1006.5,-31 1014.27,-29.84 1022.44,-28.48 1030.46,-27.07"/>
<polygon fill="midnightblue" stroke="midnightblue" points="659.05,-71.65 650.9,-78.43 661.5,-78.21 659.05,-71.65"/>
</g>
<!-- Node25&#45;&gt;Node27 -->
<g id="edge13" class="edge">
<title>Node25&#45;&gt;Node27</title>
<path fill="none" stroke="midnightblue" d="M4802.5,-62.59C4802.5,-49.71 4802.5,-34.7 4802.5,-25.39"/>
<polygon fill="midnightblue" stroke="midnightblue" points="4799,-62.73 4802.5,-72.73 4806,-62.73 4799,-62.73"/>
</g>
<!-- Node28&#45;&gt;Node27 -->
<g id="edge15" class="edge">
<title>Node28&#45;&gt;Node27</title>
<path fill="none" stroke="midnightblue" d="M4885.13,-67.6C4862.57,-53.65 4833.26,-35.52 4816.3,-25.03"/>
<polygon fill="midnightblue" stroke="midnightblue" points="4883.36,-70.62 4893.7,-72.9 4887.04,-64.67 4883.36,-70.62"/>
</g>
<!-- Node38&#45;&gt;Node13 -->
<g id="edge18" class="edge">
<title>Node38&#45;&gt;Node13</title>
<path fill="none" stroke="midnightblue" d="M485.04,-69.78C527.47,-55.6 585.82,-36.11 618.9,-25.05"/>
<polygon fill="midnightblue" stroke="midnightblue" points="483.81,-66.5 475.44,-72.99 486.03,-73.14 483.81,-66.5"/>
</g>
<!-- Node38&#45;&gt;Node43 -->
<g id="edge19" class="edge">
<title>Node38&#45;&gt;Node43</title>
<path fill="none" stroke="midnightblue" d="M498.75,-73.7C568.83,-59.42 678.11,-37.16 737.55,-25.05"/>
<polygon fill="midnightblue" stroke="midnightblue" points="497.81,-70.32 488.71,-75.75 499.2,-77.18 497.81,-70.32"/>
</g>
<!-- Node38&#45;&gt;Node44 -->
<g id="edge20" class="edge">
<title>Node38&#45;&gt;Node44</title>
<path fill="none" stroke="midnightblue" d="M368.5,-74.23C355.9,-71.8 342.79,-69.29 330.5,-67 241.29,-50.35 218.58,-48.33 129.5,-31 120.01,-29.15 109.8,-27.07 100.23,-25.06"/>
<polygon fill="midnightblue" stroke="midnightblue" points="367.99,-77.7 378.47,-76.16 369.32,-70.82 367.99,-77.7"/>
</g>
<!-- Node38&#45;&gt;Node45 -->
<g id="edge21" class="edge">
<title>Node38&#45;&gt;Node45</title>
<path fill="none" stroke="midnightblue" d="M375.47,-70.16C333.86,-58.09 278.42,-42.01 239.12,-30.61"/>
<polygon fill="midnightblue" stroke="midnightblue" points="374.62,-73.56 385.2,-72.99 376.57,-66.84 374.62,-73.56"/>
</g>
<!-- Node38&#45;&gt;Node46 -->
<g id="edge22" class="edge">
<title>Node38&#45;&gt;Node46</title>
<path fill="none" stroke="midnightblue" d="M403.77,-67.23C382.88,-53.33 355.96,-35.43 340.33,-25.03"/>
<polygon fill="midnightblue" stroke="midnightblue" points="402.04,-70.28 412.3,-72.9 405.92,-64.45 402.04,-70.28"/>
</g>
<!-- Node38&#45;&gt;Node34 -->
<g id="edge23" class="edge">
<title>Node38&#45;&gt;Node34</title>
<path fill="none" stroke="midnightblue" d="M452.01,-64.88C463.18,-51.54 476.8,-35.26 485.06,-25.39"/>
<polygon fill="midnightblue" stroke="midnightblue" points="449.17,-62.82 445.44,-72.73 454.54,-67.31 449.17,-62.82"/>
</g>
<!-- Node97&#45;&gt;Node3 -->
<g id="edge61" class="edge">
<title>Node97&#45;&gt;Node3</title>
<path fill="none" stroke="midnightblue" d="M2324.23,-204.53C2331.28,-195.42 2339.94,-184.21 2346.66,-175.52"/>
<polygon fill="midnightblue" stroke="midnightblue" points="2321.44,-202.42 2318.09,-212.48 2326.98,-206.7 2321.44,-202.42"/>
</g>
<!-- Node97&#45;&gt;Node44 -->
<g id="edge62" class="edge">
<title>Node97&#45;&gt;Node44</title>
<path fill="none" stroke="midnightblue" d="M2237.22,-219.29C1863.16,-210.42 199.95,-167.8 108.5,-109 78.06,-89.43 65.89,-43.98 62.02,-25.03"/>
<polygon fill="midnightblue" stroke="midnightblue" points="2237.31,-222.79 2247.39,-219.53 2237.47,-215.8 2237.31,-222.79"/>
</g>
</g>
</svg>
