<?xml version="1.0" encoding="UTF-8" standalone="no"?>
<!DOCTYPE svg PUBLIC "-//W3C//DTD SVG 1.1//EN"
 "http://www.w3.org/Graphics/SVG/1.1/DTD/svg11.dtd">
<!-- Generated by graphviz version 3.0.0 (20220413.0242)
 -->
<!-- Title: include/d/d_eye_hl.h Pages: 1 -->
<svg width="5136pt" height="296pt"
 viewBox="0.00 0.00 5136.00 296.00" xmlns="http://www.w3.org/2000/svg" xmlns:xlink="http://www.w3.org/1999/xlink">
<g id="graph0" class="graph" transform="scale(1 1) rotate(0) translate(4 292)">
<title>include/d/d_eye_hl.h</title>
<polygon fill="white" stroke="transparent" points="-4,4 -4,-292 5132,-292 5132,4 -4,4"/>
<!-- Node1 -->
<g id="node1" class="node">
<title>Node1</title>
<g id="a_node1"><a xlink:title=" ">
<polygon fill="#bfbfbf" stroke="black" points="2277,-268.5 2277,-287.5 2381,-287.5 2381,-268.5 2277,-268.5"/>
<text text-anchor="middle" x="2329" y="-275.5" font-family="Helvetica,sans-Serif" font-size="10.00">include/d/d_eye_hl.h</text>
</a>
</g>
</g>
<!-- Node2 -->
<g id="node2" class="node">
<title>Node2</title>
<g id="a_node2"><a xlink:href="d__a__alink_8h.html" target="_top" xlink:title=" ">
<polygon fill="white" stroke="black" points="2228,-212.5 2228,-231.5 2344,-231.5 2344,-212.5 2228,-212.5"/>
<text text-anchor="middle" x="2286" y="-219.5" font-family="Helvetica,sans-Serif" font-size="10.00">include/d/a/d_a_alink.h</text>
</a>
</g>
</g>
<!-- Node1&#45;&gt;Node2 -->
<g id="edge1" class="edge">
<title>Node1&#45;&gt;Node2</title>
<path fill="none" stroke="midnightblue" d="M2315.58,-260.14C2308.09,-250.74 2299.06,-239.4 2292.97,-231.75"/>
<polygon fill="midnightblue" stroke="midnightblue" points="2312.93,-262.44 2321.9,-268.08 2318.41,-258.08 2312.93,-262.44"/>
</g>
<!-- Node51 -->
<g id="node34" class="node">
<title>Node51</title>
<g id="a_node34"><a xlink:href="d__eye__hl_8cpp.html" target="_top" xlink:title=" ">
<polygon fill="white" stroke="black" points="5030,-78.5 5030,-97.5 5128,-97.5 5128,-78.5 5030,-78.5"/>
<text text-anchor="middle" x="5079" y="-85.5" font-family="Helvetica,sans-Serif" font-size="10.00">src/d/d_eye_hl.cpp</text>
</a>
</g>
</g>
<!-- Node1&#45;&gt;Node51 -->
<g id="edge64" class="edge">
<title>Node1&#45;&gt;Node51</title>
<path fill="none" stroke="midnightblue" d="M2391.3,-277.39C2685.85,-278.36 3967.66,-272.47 5001,-109 5017.85,-106.34 5036.35,-101.67 5051.11,-97.51"/>
<polygon fill="midnightblue" stroke="midnightblue" points="2391.25,-273.89 2381.24,-277.36 2391.22,-280.89 2391.25,-273.89"/>
</g>
<!-- Node3 -->
<g id="node3" class="node">
<title>Node3</title>
<g id="a_node3"><a xlink:href="d__com__inf__game_8h.html" target="_top" xlink:title=" ">
<polygon fill="white" stroke="red" points="2231,-145.5 2231,-175.5 2341,-175.5 2341,-145.5 2231,-145.5"/>
<text text-anchor="start" x="2239" y="-163.5" font-family="Helvetica,sans-Serif" font-size="10.00">include/d/com/d_com</text>
<text text-anchor="middle" x="2286" y="-152.5" font-family="Helvetica,sans-Serif" font-size="10.00">_inf_game.h</text>
</a>
</g>
</g>
<!-- Node2&#45;&gt;Node3 -->
<g id="edge2" class="edge">
<title>Node2&#45;&gt;Node3</title>
<path fill="none" stroke="midnightblue" d="M2286,-202.23C2286,-193.59 2286,-183.5 2286,-175.52"/>
<polygon fill="midnightblue" stroke="midnightblue" points="2282.5,-202.48 2286,-212.48 2289.5,-202.48 2282.5,-202.48"/>
</g>
<!-- Node44 -->
<g id="node27" class="node">
<title>Node44</title>
<g id="a_node27"><a xlink:href="d__a__alink_8cpp.html" target="_top" xlink:title=" ">
<polygon fill="white" stroke="black" points="6.5,-78.5 6.5,-97.5 115.5,-97.5 115.5,-78.5 6.5,-78.5"/>
<text text-anchor="middle" x="61" y="-85.5" font-family="Helvetica,sans-Serif" font-size="10.00">src/d/a/d_a_alink.cpp</text>
</a>
</g>
</g>
<!-- Node2&#45;&gt;Node44 -->
<g id="edge63" class="edge">
<title>Node2&#45;&gt;Node44</title>
<path fill="none" stroke="midnightblue" d="M2217.64,-219.81C1897.02,-213.85 540.36,-184.58 124,-109 110.11,-106.48 95.03,-101.76 83.1,-97.54"/>
<polygon fill="midnightblue" stroke="midnightblue" points="2217.65,-223.31 2227.72,-219.99 2217.78,-216.31 2217.65,-223.31"/>
</g>
<!-- Node4 -->
<g id="node4" class="node">
<title>Node4</title>
<g id="a_node4"><a xlink:href="d__a__npc_8h.html" target="_top" xlink:title=" ">
<polygon fill="white" stroke="red" points="4555.5,-78.5 4555.5,-97.5 4666.5,-97.5 4666.5,-78.5 4555.5,-78.5"/>
<text text-anchor="middle" x="4611" y="-85.5" font-family="Helvetica,sans-Serif" font-size="10.00">include/d/a/d_a_npc.h</text>
</a>
</g>
</g>
<!-- Node3&#45;&gt;Node4 -->
<g id="edge3" class="edge">
<title>Node3&#45;&gt;Node4</title>
<path fill="none" stroke="midnightblue" d="M2351.25,-159.11C2698.77,-156.92 4324.74,-144.8 4546,-109 4560.45,-106.66 4576.15,-101.9 4588.5,-97.6"/>
<polygon fill="midnightblue" stroke="midnightblue" points="2351.08,-155.62 2341.1,-159.18 2351.12,-162.62 2351.08,-155.62"/>
</g>
<!-- Node9 -->
<g id="node5" class="node">
<title>Node9</title>
<g id="a_node5"><a xlink:href="d__cc__uty_8h.html" target="_top" xlink:title=" ">
<polygon fill="white" stroke="red" points="4684.5,-78.5 4684.5,-97.5 4803.5,-97.5 4803.5,-78.5 4684.5,-78.5"/>
<text text-anchor="middle" x="4744" y="-85.5" font-family="Helvetica,sans-Serif" font-size="10.00">include/d/cc/d_cc_uty.h</text>
</a>
</g>
</g>
<!-- Node3&#45;&gt;Node9 -->
<g id="edge4" class="edge">
<title>Node3&#45;&gt;Node9</title>
<path fill="none" stroke="midnightblue" d="M2351.48,-159.15C2711.35,-157.1 4441.01,-145.38 4676,-109 4691.2,-106.65 4707.77,-101.82 4720.75,-97.5"/>
<polygon fill="midnightblue" stroke="midnightblue" points="2351.21,-155.65 2341.23,-159.21 2351.25,-162.65 2351.21,-155.65"/>
</g>
<!-- Node11 -->
<g id="node6" class="node">
<title>Node11</title>
<g id="a_node6"><a xlink:href="d__item_8h.html" target="_top" xlink:title=" ">
<polygon fill="white" stroke="red" points="1324.5,-78.5 1324.5,-97.5 1419.5,-97.5 1419.5,-78.5 1324.5,-78.5"/>
<text text-anchor="middle" x="1372" y="-85.5" font-family="Helvetica,sans-Serif" font-size="10.00">include/d/d_item.h</text>
</a>
</g>
</g>
<!-- Node3&#45;&gt;Node11 -->
<g id="edge5" class="edge">
<title>Node3&#45;&gt;Node11</title>
<path fill="none" stroke="midnightblue" d="M2220.5,-158C2047.32,-153.65 1580.26,-139.37 1429,-109 1416.35,-106.46 1402.7,-101.74 1391.93,-97.53"/>
<polygon fill="midnightblue" stroke="midnightblue" points="2220.66,-161.5 2230.74,-158.25 2220.83,-154.5 2220.66,-161.5"/>
</g>
<!-- Node12 -->
<g id="node7" class="node">
<title>Node12</title>
<g id="a_node7"><a xlink:href="d__com__inf__game_8cpp.html" target="_top" xlink:title=" ">
<polygon fill="white" stroke="black" points="3100,-0.5 3100,-30.5 3208,-30.5 3208,-0.5 3100,-0.5"/>
<text text-anchor="start" x="3108" y="-18.5" font-family="Helvetica,sans-Serif" font-size="10.00">src/d/com/d_com_inf</text>
<text text-anchor="middle" x="3154" y="-7.5" font-family="Helvetica,sans-Serif" font-size="10.00">_game.cpp</text>
</a>
</g>
</g>
<!-- Node3&#45;&gt;Node12 -->
<g id="edge36" class="edge">
<title>Node3&#45;&gt;Node12</title>
<path fill="none" stroke="midnightblue" d="M2351.29,-158.81C2745.4,-154.6 4790.8,-131.65 4813,-109 4826.07,-95.67 4826,-80.4 4813,-67 4784.41,-37.53 3490.81,-20.5 3208.17,-17.12"/>
<polygon fill="midnightblue" stroke="midnightblue" points="2351.16,-155.32 2341.2,-158.92 2351.24,-162.31 2351.16,-155.32"/>
</g>
<!-- Node6 -->
<g id="node8" class="node">
<title>Node6</title>
<g id="a_node8"><a xlink:href="d__msg__flow_8cpp.html" target="_top" xlink:title=" ">
<polygon fill="white" stroke="black" points="830.5,-6 830.5,-25 963.5,-25 963.5,-6 830.5,-6"/>
<text text-anchor="middle" x="897" y="-13" font-family="Helvetica,sans-Serif" font-size="10.00">src/d/msg/d_msg_flow.cpp</text>
</a>
</g>
</g>
<!-- Node3&#45;&gt;Node6 -->
<g id="edge56" class="edge">
<title>Node3&#45;&gt;Node6</title>
<path fill="none" stroke="midnightblue" d="M2220.42,-158.73C1917.36,-155 666.02,-137.89 638,-109 625,-95.6 626.13,-81.41 638,-67 638.86,-65.96 778.51,-39.14 852.36,-25.02"/>
<polygon fill="midnightblue" stroke="midnightblue" points="2220.75,-162.23 2230.79,-158.85 2220.84,-155.23 2220.75,-162.23"/>
</g>
<!-- Node7 -->
<g id="node9" class="node">
<title>Node7</title>
<g id="a_node9"><a xlink:href="d__shop__system_8cpp.html" target="_top" xlink:title=" ">
<polygon fill="white" stroke="black" points="1220,-6 1220,-25 1372,-25 1372,-6 1220,-6"/>
<text text-anchor="middle" x="1296" y="-13" font-family="Helvetica,sans-Serif" font-size="10.00">src/d/shop/d_shop_system.cpp</text>
</a>
</g>
</g>
<!-- Node3&#45;&gt;Node7 -->
<g id="edge61" class="edge">
<title>Node3&#45;&gt;Node7</title>
<path fill="none" stroke="midnightblue" d="M2220.75,-158.28C2008.51,-154.04 1349.34,-138.52 1315,-109 1290.26,-87.73 1292.5,-43.63 1294.73,-25.05"/>
<polygon fill="midnightblue" stroke="midnightblue" points="2220.75,-161.78 2230.82,-158.48 2220.89,-154.78 2220.75,-161.78"/>
</g>
<!-- Node15 -->
<g id="node10" class="node">
<title>Node15</title>
<g id="a_node10"><a xlink:href="d__kantera__icon__meter_8h.html" target="_top" xlink:title=" ">
<polygon fill="white" stroke="red" points="133.5,-73 133.5,-103 234.5,-103 234.5,-73 133.5,-73"/>
<text text-anchor="start" x="141.5" y="-91" font-family="Helvetica,sans-Serif" font-size="10.00">include/d/d_kantera</text>
<text text-anchor="middle" x="184" y="-80" font-family="Helvetica,sans-Serif" font-size="10.00">_icon_meter.h</text>
</a>
</g>
</g>
<!-- Node3&#45;&gt;Node15 -->
<g id="edge9" class="edge">
<title>Node3&#45;&gt;Node15</title>
<path fill="none" stroke="midnightblue" d="M2220.75,-158.94C1894.39,-156.02 447.06,-141.3 249,-109 240.61,-107.63 231.8,-105.45 223.46,-103.02"/>
<polygon fill="midnightblue" stroke="midnightblue" points="2220.95,-162.44 2230.98,-159.03 2221.01,-155.45 2220.95,-162.44"/>
</g>
<!-- Node17 -->
<g id="node11" class="node">
<title>Node17</title>
<g id="a_node11"><a xlink:href="d__meter2__draw_8cpp.html" target="_top" xlink:title=" ">
<polygon fill="white" stroke="black" points="0,-0.5 0,-30.5 110,-30.5 110,-0.5 0,-0.5"/>
<text text-anchor="start" x="8" y="-18.5" font-family="Helvetica,sans-Serif" font-size="10.00">src/d/meter/d_meter2</text>
<text text-anchor="middle" x="55" y="-7.5" font-family="Helvetica,sans-Serif" font-size="10.00">_draw.cpp</text>
</a>
</g>
</g>
<!-- Node3&#45;&gt;Node17 -->
<g id="edge53" class="edge">
<title>Node3&#45;&gt;Node17</title>
<path fill="none" stroke="midnightblue" d="M2220.78,-159.39C1885.29,-158.65 366.06,-152.87 277,-109 255.46,-98.39 263.14,-80.09 243,-67 231.7,-59.66 161.5,-41.86 110.18,-29.49"/>
<polygon fill="midnightblue" stroke="midnightblue" points="2220.82,-162.89 2230.83,-159.41 2220.83,-155.89 2220.82,-162.89"/>
</g>
<!-- Node18 -->
<g id="node12" class="node">
<title>Node18</title>
<g id="a_node12"><a xlink:href="d__model_8h.html" target="_top" xlink:title=" ">
<polygon fill="white" stroke="red" points="647.5,-78.5 647.5,-97.5 750.5,-97.5 750.5,-78.5 647.5,-78.5"/>
<text text-anchor="middle" x="699" y="-85.5" font-family="Helvetica,sans-Serif" font-size="10.00">include/d/d_model.h</text>
</a>
</g>
</g>
<!-- Node3&#45;&gt;Node18 -->
<g id="edge11" class="edge">
<title>Node3&#45;&gt;Node18</title>
<path fill="none" stroke="midnightblue" d="M2220.77,-159.84C1967.09,-160.78 1046.13,-160.48 759,-109 745.6,-106.6 731.1,-101.83 719.72,-97.55"/>
<polygon fill="midnightblue" stroke="midnightblue" points="2220.95,-163.34 2230.93,-159.8 2220.92,-156.34 2220.95,-163.34"/>
</g>
<!-- Node20 -->
<g id="node13" class="node">
<title>Node20</title>
<g id="a_node13"><a xlink:href="d__name_8h.html" target="_top" xlink:title=" ">
<polygon fill="white" stroke="red" points="768.5,-78.5 768.5,-97.5 869.5,-97.5 869.5,-78.5 768.5,-78.5"/>
<text text-anchor="middle" x="819" y="-85.5" font-family="Helvetica,sans-Serif" font-size="10.00">include/d/d_name.h</text>
</a>
</g>
</g>
<!-- Node3&#45;&gt;Node20 -->
<g id="edge12" class="edge">
<title>Node3&#45;&gt;Node20</title>
<path fill="none" stroke="midnightblue" d="M2220.74,-159.62C1979.92,-159.7 1141.62,-156.47 879,-109 865.6,-106.58 851.11,-101.81 839.72,-97.54"/>
<polygon fill="midnightblue" stroke="midnightblue" points="2220.74,-163.12 2230.74,-159.62 2220.74,-156.12 2220.74,-163.12"/>
</g>
<!-- Node22 -->
<g id="node14" class="node">
<title>Node22</title>
<g id="a_node14"><a xlink:href="d__file__sel__info_8h.html" target="_top" xlink:title=" ">
<polygon fill="white" stroke="red" points="888,-73 888,-103 984,-103 984,-73 888,-73"/>
<text text-anchor="start" x="896" y="-91" font-family="Helvetica,sans-Serif" font-size="10.00">include/d/file/d_file</text>
<text text-anchor="middle" x="936" y="-80" font-family="Helvetica,sans-Serif" font-size="10.00">_sel_info.h</text>
</a>
</g>
</g>
<!-- Node3&#45;&gt;Node22 -->
<g id="edge13" class="edge">
<title>Node3&#45;&gt;Node22</title>
<path fill="none" stroke="midnightblue" d="M2220.75,-159.52C1992.68,-159.17 1232.08,-154.54 993,-109 985.69,-107.61 978.04,-105.45 970.82,-103.06"/>
<polygon fill="midnightblue" stroke="midnightblue" points="2220.88,-163.02 2230.88,-159.53 2220.89,-156.02 2220.88,-163.02"/>
</g>
<!-- Node24 -->
<g id="node15" class="node">
<title>Node24</title>
<g id="a_node15"><a xlink:href="d__meter2_8h.html" target="_top" xlink:title=" ">
<polygon fill="white" stroke="red" points="1002,-78.5 1002,-97.5 1136,-97.5 1136,-78.5 1002,-78.5"/>
<text text-anchor="middle" x="1069" y="-85.5" font-family="Helvetica,sans-Serif" font-size="10.00">include/d/meter/d_meter2.h</text>
</a>
</g>
</g>
<!-- Node3&#45;&gt;Node24 -->
<g id="edge14" class="edge">
<title>Node3&#45;&gt;Node24</title>
<path fill="none" stroke="midnightblue" d="M2220.55,-158.44C2010.47,-154.73 1354.65,-140.85 1145,-109 1128.41,-106.48 1110.22,-101.76 1095.79,-97.54"/>
<polygon fill="midnightblue" stroke="midnightblue" points="2220.75,-161.94 2230.81,-158.61 2220.87,-154.94 2220.75,-161.94"/>
</g>
<!-- Node32 -->
<g id="node16" class="node">
<title>Node32</title>
<g id="a_node16"><a xlink:href="d__msg__object_8h.html" target="_top" xlink:title=" ">
<polygon fill="white" stroke="red" points="405,-73 405,-103 515,-103 515,-73 405,-73"/>
<text text-anchor="start" x="413" y="-91" font-family="Helvetica,sans-Serif" font-size="10.00">include/d/msg/d_msg</text>
<text text-anchor="middle" x="460" y="-80" font-family="Helvetica,sans-Serif" font-size="10.00">_object.h</text>
</a>
</g>
</g>
<!-- Node3&#45;&gt;Node32 -->
<g id="edge15" class="edge">
<title>Node3&#45;&gt;Node32</title>
<path fill="none" stroke="midnightblue" d="M2220.77,-158.6C1922.8,-154.38 698.27,-135.52 529,-109 520.25,-107.63 511.05,-105.48 502.32,-103.09"/>
<polygon fill="midnightblue" stroke="midnightblue" points="2220.93,-162.11 2230.98,-158.75 2221.03,-155.11 2220.93,-162.11"/>
</g>
<!-- Node33 -->
<g id="node17" class="node">
<title>Node33</title>
<g id="a_node17"><a xlink:href="d__event__data_8cpp.html" target="_top" xlink:title=" ">
<polygon fill="white" stroke="black" points="128.5,-0.5 128.5,-30.5 231.5,-30.5 231.5,-0.5 128.5,-0.5"/>
<text text-anchor="start" x="136.5" y="-18.5" font-family="Helvetica,sans-Serif" font-size="10.00">src/d/event/d_event</text>
<text text-anchor="middle" x="180" y="-7.5" font-family="Helvetica,sans-Serif" font-size="10.00">_data.cpp</text>
</a>
</g>
</g>
<!-- Node3&#45;&gt;Node33 -->
<g id="edge45" class="edge">
<title>Node3&#45;&gt;Node33</title>
<path fill="none" stroke="midnightblue" d="M2220.37,-158.83C1891.01,-155.36 430.37,-138.33 339,-109 307.31,-98.83 305.59,-84.05 277,-67 254.82,-53.78 228.83,-40.35 209.34,-30.67"/>
<polygon fill="midnightblue" stroke="midnightblue" points="2220.66,-162.34 2230.7,-158.94 2220.74,-155.34 2220.66,-162.34"/>
</g>
<!-- Node34 -->
<g id="node18" class="node">
<title>Node34</title>
<g id="a_node18"><a xlink:href="d__kankyo_8cpp.html" target="_top" xlink:title=" ">
<polygon fill="white" stroke="black" points="250,-6 250,-25 384,-25 384,-6 250,-6"/>
<text text-anchor="middle" x="317" y="-13" font-family="Helvetica,sans-Serif" font-size="10.00">src/d/kankyo/d_kankyo.cpp</text>
</a>
</g>
</g>
<!-- Node3&#45;&gt;Node34 -->
<g id="edge48" class="edge">
<title>Node3&#45;&gt;Node34</title>
<path fill="none" stroke="midnightblue" d="M2220.59,-158.55C1890.92,-153.69 425.48,-130.87 384,-109 348.92,-90.5 327.76,-44.45 320.18,-25.19"/>
<polygon fill="midnightblue" stroke="midnightblue" points="2220.88,-162.06 2230.93,-158.71 2220.98,-155.06 2220.88,-162.06"/>
</g>
<!-- Node27 -->
<g id="node19" class="node">
<title>Node27</title>
<g id="a_node19"><a xlink:href="d__menu__window_8cpp.html" target="_top" xlink:title=" ">
<polygon fill="white" stroke="black" points="402.5,-6 402.5,-25 561.5,-25 561.5,-6 402.5,-6"/>
<text text-anchor="middle" x="482" y="-13" font-family="Helvetica,sans-Serif" font-size="10.00">src/d/menu/d_menu_window.cpp</text>
</a>
</g>
</g>
<!-- Node3&#45;&gt;Node27 -->
<g id="edge51" class="edge">
<title>Node3&#45;&gt;Node27</title>
<path fill="none" stroke="midnightblue" d="M2220.67,-158.99C1891.45,-156.29 428.51,-142.39 396,-109 382.98,-95.63 386.73,-83.2 396,-67 408.13,-45.81 432.99,-32.64 452.87,-25.09"/>
<polygon fill="midnightblue" stroke="midnightblue" points="2220.97,-162.5 2231,-159.08 2221.02,-155.5 2220.97,-162.5"/>
</g>
<!-- Node29 -->
<g id="node20" class="node">
<title>Node29</title>
<g id="a_node20"><a xlink:href="d__meter2__info_8cpp.html" target="_top" xlink:title=" ">
<polygon fill="white" stroke="black" points="580,-0.5 580,-30.5 690,-30.5 690,-0.5 580,-0.5"/>
<text text-anchor="start" x="588" y="-18.5" font-family="Helvetica,sans-Serif" font-size="10.00">src/d/meter/d_meter2</text>
<text text-anchor="middle" x="635" y="-7.5" font-family="Helvetica,sans-Serif" font-size="10.00">_info.cpp</text>
</a>
</g>
</g>
<!-- Node3&#45;&gt;Node29 -->
<g id="edge54" class="edge">
<title>Node3&#45;&gt;Node29</title>
<path fill="none" stroke="midnightblue" d="M2220.88,-158.76C1915.81,-155.16 641.5,-138.37 613,-109 592.42,-87.79 611.38,-51.02 624.64,-30.82"/>
<polygon fill="midnightblue" stroke="midnightblue" points="2220.86,-162.26 2230.9,-158.88 2220.94,-155.26 2220.86,-162.26"/>
</g>
<!-- Node28 -->
<g id="node21" class="node">
<title>Node28</title>
<g id="a_node21"><a xlink:href="d__meter__map_8cpp.html" target="_top" xlink:title=" ">
<polygon fill="white" stroke="black" points="708,-0.5 708,-30.5 812,-30.5 812,-0.5 708,-0.5"/>
<text text-anchor="start" x="716" y="-18.5" font-family="Helvetica,sans-Serif" font-size="10.00">src/d/meter/d_meter</text>
<text text-anchor="middle" x="760" y="-7.5" font-family="Helvetica,sans-Serif" font-size="10.00">_map.cpp</text>
</a>
</g>
</g>
<!-- Node3&#45;&gt;Node28 -->
<g id="edge55" class="edge">
<title>Node3&#45;&gt;Node28</title>
<path fill="none" stroke="midnightblue" d="M2220.4,-158.74C1915.83,-155.07 653.26,-138.13 625,-109 612,-95.6 614.36,-82.34 625,-67 634.95,-52.66 674.14,-38.95 707.75,-29.45"/>
<polygon fill="midnightblue" stroke="midnightblue" points="2220.79,-162.25 2230.83,-158.87 2220.87,-155.25 2220.79,-162.25"/>
</g>
<!-- Node37 -->
<g id="node22" class="node">
<title>Node37</title>
<g id="a_node22"><a xlink:href="d__s__logo_8h.html" target="_top" xlink:title=" ">
<polygon fill="white" stroke="red" points="1154.5,-78.5 1154.5,-97.5 1267.5,-97.5 1267.5,-78.5 1154.5,-78.5"/>
<text text-anchor="middle" x="1211" y="-85.5" font-family="Helvetica,sans-Serif" font-size="10.00">include/d/s/d_s_logo.h</text>
</a>
</g>
</g>
<!-- Node3&#45;&gt;Node37 -->
<g id="edge24" class="edge">
<title>Node3&#45;&gt;Node37</title>
<path fill="none" stroke="midnightblue" d="M2220.66,-158.13C2027.9,-153.77 1463.7,-138.77 1282,-109 1266.46,-106.45 1249.46,-101.74 1235.99,-97.52"/>
<polygon fill="midnightblue" stroke="midnightblue" points="2220.84,-161.63 2230.92,-158.36 2221,-154.63 2220.84,-161.63"/>
</g>
<!-- Node39 -->
<g id="node23" class="node">
<title>Node39</title>
<g id="a_node23"><a xlink:href="d__s__play_8h.html" target="_top" xlink:title=" ">
<polygon fill="white" stroke="red" points="4860.5,-78.5 4860.5,-97.5 4973.5,-97.5 4973.5,-78.5 4860.5,-78.5"/>
<text text-anchor="middle" x="4917" y="-85.5" font-family="Helvetica,sans-Serif" font-size="10.00">include/d/s/d_s_play.h</text>
</a>
</g>
</g>
<!-- Node3&#45;&gt;Node39 -->
<g id="edge25" class="edge">
<title>Node3&#45;&gt;Node39</title>
<path fill="none" stroke="midnightblue" d="M2351.37,-158.68C2738.58,-153.77 4719.09,-127.81 4846,-109 4861.83,-106.65 4879.13,-101.83 4892.69,-97.51"/>
<polygon fill="midnightblue" stroke="midnightblue" points="2351.13,-155.18 2341.18,-158.81 2351.22,-162.18 2351.13,-155.18"/>
</g>
<!-- Node40 -->
<g id="node24" class="node">
<title>Node40</title>
<g id="a_node24"><a xlink:href="f__op__camera_8cpp.html" target="_top" xlink:title=" ">
<polygon fill="white" stroke="black" points="4894.5,-6 4894.5,-25 5023.5,-25 5023.5,-6 4894.5,-6"/>
<text text-anchor="middle" x="4959" y="-13" font-family="Helvetica,sans-Serif" font-size="10.00">src/f_op/f_op_camera.cpp</text>
</a>
</g>
</g>
<!-- Node3&#45;&gt;Node40 -->
<g id="edge62" class="edge">
<title>Node3&#45;&gt;Node40</title>
<path fill="none" stroke="midnightblue" d="M2351.38,-158.9C2761.17,-155.04 4959.2,-133.24 4983,-109 5005.89,-85.67 4979.34,-43.47 4965.88,-25.26"/>
<polygon fill="midnightblue" stroke="midnightblue" points="2351.15,-155.4 2341.19,-158.99 2351.22,-162.4 2351.15,-155.4"/>
</g>
<!-- Node42 -->
<g id="node25" class="node">
<title>Node42</title>
<g id="a_node25"><a xlink:href="d__a__tag__telop_8h.html" target="_top" xlink:title=" ">
<polygon fill="white" stroke="black" points="1438,-67.5 1438,-108.5 1556,-108.5 1556,-67.5 1438,-67.5"/>
<text text-anchor="start" x="1446" y="-96.5" font-family="Helvetica,sans-Serif" font-size="10.00">include/rel/d/a/tag</text>
<text text-anchor="start" x="1446" y="-85.5" font-family="Helvetica,sans-Serif" font-size="10.00">/d_a_tag_telop/d_a_tag</text>
<text text-anchor="middle" x="1497" y="-74.5" font-family="Helvetica,sans-Serif" font-size="10.00">_telop.h</text>
</a>
</g>
</g>
<!-- Node3&#45;&gt;Node42 -->
<g id="edge27" class="edge">
<title>Node3&#45;&gt;Node42</title>
<path fill="none" stroke="midnightblue" d="M2220.43,-159.62C2093.06,-158.83 1803.74,-151.95 1565,-109 1562.09,-108.48 1559.13,-107.88 1556.16,-107.22"/>
<polygon fill="midnightblue" stroke="midnightblue" points="2220.76,-163.13 2230.78,-159.68 2220.8,-156.13 2220.76,-163.13"/>
</g>
<!-- Node43 -->
<g id="node26" class="node">
<title>Node43</title>
<g id="a_node26"><a xlink:href="c__dylink_8cpp.html" target="_top" xlink:title=" ">
<polygon fill="white" stroke="black" points="1574.5,-78.5 1574.5,-97.5 1669.5,-97.5 1669.5,-78.5 1574.5,-78.5"/>
<text text-anchor="middle" x="1622" y="-85.5" font-family="Helvetica,sans-Serif" font-size="10.00">src/c/c_dylink.cpp</text>
</a>
</g>
</g>
<!-- Node3&#45;&gt;Node43 -->
<g id="edge28" class="edge">
<title>Node3&#45;&gt;Node43</title>
<path fill="none" stroke="midnightblue" d="M2220.78,-159.48C2108.75,-158.25 1873.06,-150.41 1679,-109 1666.49,-106.33 1652.96,-101.66 1642.22,-97.51"/>
<polygon fill="midnightblue" stroke="midnightblue" points="2220.88,-162.98 2230.91,-159.58 2220.94,-155.98 2220.88,-162.98"/>
</g>
<!-- Node3&#45;&gt;Node44 -->
<g id="edge29" class="edge">
<title>Node3&#45;&gt;Node44</title>
<path fill="none" stroke="midnightblue" d="M2220.76,-158.5C1870.99,-153.05 229.83,-126.66 124,-109 109.96,-106.66 94.75,-101.89 82.78,-97.6"/>
<polygon fill="midnightblue" stroke="midnightblue" points="2220.91,-162 2230.97,-158.66 2221.02,-155 2220.91,-162"/>
</g>
<!-- Node45 -->
<g id="node28" class="node">
<title>Node45</title>
<g id="a_node28"><a xlink:href="d__a__itembase_8cpp.html" target="_top" xlink:title=" ">
<polygon fill="white" stroke="black" points="1688,-78.5 1688,-97.5 1816,-97.5 1816,-78.5 1688,-78.5"/>
<text text-anchor="middle" x="1752" y="-85.5" font-family="Helvetica,sans-Serif" font-size="10.00">src/d/a/d_a_itembase.cpp</text>
</a>
</g>
</g>
<!-- Node3&#45;&gt;Node45 -->
<g id="edge30" class="edge">
<title>Node3&#45;&gt;Node45</title>
<path fill="none" stroke="midnightblue" d="M2220.92,-155.63C2131.19,-149.55 1964.75,-135.62 1825,-109 1809.64,-106.07 1792.79,-101.55 1779.15,-97.54"/>
<polygon fill="midnightblue" stroke="midnightblue" points="2220.73,-159.12 2230.94,-156.3 2221.2,-152.14 2220.73,-159.12"/>
</g>
<!-- Node46 -->
<g id="node29" class="node">
<title>Node46</title>
<g id="a_node29"><a xlink:href="d__a__player_8cpp.html" target="_top" xlink:title=" ">
<polygon fill="white" stroke="black" points="1834,-78.5 1834,-97.5 1948,-97.5 1948,-78.5 1834,-78.5"/>
<text text-anchor="middle" x="1891" y="-85.5" font-family="Helvetica,sans-Serif" font-size="10.00">src/d/a/d_a_player.cpp</text>
</a>
</g>
</g>
<!-- Node3&#45;&gt;Node46 -->
<g id="edge31" class="edge">
<title>Node3&#45;&gt;Node46</title>
<path fill="none" stroke="midnightblue" d="M2220.87,-152.27C2154.13,-144.22 2047.59,-129.57 1957,-109 1943.34,-105.9 1928.38,-101.45 1916.16,-97.54"/>
<polygon fill="midnightblue" stroke="midnightblue" points="2220.49,-155.75 2230.83,-153.46 2221.32,-148.8 2220.49,-155.75"/>
</g>
<!-- Node47 -->
<g id="node30" class="node">
<title>Node47</title>
<g id="a_node30"><a xlink:href="d__bg__s_8cpp.html" target="_top" xlink:title=" ">
<polygon fill="white" stroke="black" points="1966,-78.5 1966,-97.5 2070,-97.5 2070,-78.5 1966,-78.5"/>
<text text-anchor="middle" x="2018" y="-85.5" font-family="Helvetica,sans-Serif" font-size="10.00">src/d/bg/d_bg_s.cpp</text>
</a>
</g>
</g>
<!-- Node3&#45;&gt;Node47 -->
<g id="edge32" class="edge">
<title>Node3&#45;&gt;Node47</title>
<path fill="none" stroke="midnightblue" d="M2220.93,-144.99C2179.98,-135.52 2126.16,-122.46 2079,-109 2066.89,-105.54 2053.59,-101.24 2042.5,-97.51"/>
<polygon fill="midnightblue" stroke="midnightblue" points="2220.25,-148.42 2230.78,-147.26 2221.82,-141.6 2220.25,-148.42"/>
</g>
<!-- Node48 -->
<g id="node31" class="node">
<title>Node48</title>
<g id="a_node31"><a xlink:href="d__bg__s__movebg__actor_8cpp.html" target="_top" xlink:title=" ">
<polygon fill="white" stroke="black" points="2088,-73 2088,-103 2214,-103 2214,-73 2088,-73"/>
<text text-anchor="start" x="2096" y="-91" font-family="Helvetica,sans-Serif" font-size="10.00">src/d/bg/d_bg_s_movebg</text>
<text text-anchor="middle" x="2151" y="-80" font-family="Helvetica,sans-Serif" font-size="10.00">_actor.cpp</text>
</a>
</g>
</g>
<!-- Node3&#45;&gt;Node48 -->
<g id="edge33" class="edge">
<title>Node3&#45;&gt;Node48</title>
<path fill="none" stroke="midnightblue" d="M2250.03,-140.72C2227.38,-128.89 2198.63,-113.87 2177.95,-103.07"/>
<polygon fill="midnightblue" stroke="midnightblue" points="2248.52,-143.88 2259.01,-145.4 2251.76,-137.67 2248.52,-143.88"/>
</g>
<!-- Node49 -->
<g id="node32" class="node">
<title>Node49</title>
<g id="a_node32"><a xlink:href="d__bg__w_8cpp.html" target="_top" xlink:title=" ">
<polygon fill="white" stroke="black" points="2232.5,-78.5 2232.5,-97.5 2339.5,-97.5 2339.5,-78.5 2232.5,-78.5"/>
<text text-anchor="middle" x="2286" y="-85.5" font-family="Helvetica,sans-Serif" font-size="10.00">src/d/bg/d_bg_w.cpp</text>
</a>
</g>
</g>
<!-- Node3&#45;&gt;Node49 -->
<g id="edge34" class="edge">
<title>Node3&#45;&gt;Node49</title>
<path fill="none" stroke="midnightblue" d="M2286,-135.09C2286,-122.21 2286,-107.2 2286,-97.89"/>
<polygon fill="midnightblue" stroke="midnightblue" points="2282.5,-135.23 2286,-145.23 2289.5,-135.23 2282.5,-135.23"/>
</g>
<!-- Node50 -->
<g id="node33" class="node">
<title>Node50</title>
<g id="a_node33"><a xlink:href="d__cc__s_8cpp.html" target="_top" xlink:title=" ">
<polygon fill="white" stroke="black" points="2358,-78.5 2358,-97.5 2462,-97.5 2462,-78.5 2358,-78.5"/>
<text text-anchor="middle" x="2410" y="-85.5" font-family="Helvetica,sans-Serif" font-size="10.00">src/d/cc/d_cc_s.cpp</text>
</a>
</g>
</g>
<!-- Node3&#45;&gt;Node50 -->
<g id="edge35" class="edge">
<title>Node3&#45;&gt;Node50</title>
<path fill="none" stroke="midnightblue" d="M2319.8,-140.28C2344.37,-126.31 2376.46,-108.07 2394.99,-97.53"/>
<polygon fill="midnightblue" stroke="midnightblue" points="2317.76,-137.42 2310.8,-145.4 2321.22,-143.5 2317.76,-137.42"/>
</g>
<!-- Node3&#45;&gt;Node51 -->
<g id="edge37" class="edge">
<title>Node3&#45;&gt;Node51</title>
<path fill="none" stroke="midnightblue" d="M2351.19,-158.83C2752.99,-154.61 4880.49,-131.28 5016,-109 5030.15,-106.67 5045.51,-101.85 5057.51,-97.52"/>
<polygon fill="midnightblue" stroke="midnightblue" points="2351.15,-155.33 2341.19,-158.93 2351.22,-162.33 2351.15,-155.33"/>
</g>
<!-- Node52 -->
<g id="node35" class="node">
<title>Node52</title>
<g id="a_node35"><a xlink:href="d__kyeff_8cpp.html" target="_top" xlink:title=" ">
<polygon fill="white" stroke="black" points="2480,-78.5 2480,-97.5 2570,-97.5 2570,-78.5 2480,-78.5"/>
<text text-anchor="middle" x="2525" y="-85.5" font-family="Helvetica,sans-Serif" font-size="10.00">src/d/d_kyeff.cpp</text>
</a>
</g>
</g>
<!-- Node3&#45;&gt;Node52 -->
<g id="edge38" class="edge">
<title>Node3&#45;&gt;Node52</title>
<path fill="none" stroke="midnightblue" d="M2350.82,-143.3C2386.5,-134.01 2431.45,-121.7 2471,-109 2481.76,-105.55 2493.54,-101.25 2503.34,-97.52"/>
<polygon fill="midnightblue" stroke="midnightblue" points="2349.82,-139.95 2341.01,-145.84 2351.57,-146.72 2349.82,-139.95"/>
</g>
<!-- Node53 -->
<g id="node36" class="node">
<title>Node53</title>
<g id="a_node36"><a xlink:href="d__resorce_8cpp.html" target="_top" xlink:title=" ">
<polygon fill="white" stroke="black" points="2588,-78.5 2588,-97.5 2690,-97.5 2690,-78.5 2588,-78.5"/>
<text text-anchor="middle" x="2639" y="-85.5" font-family="Helvetica,sans-Serif" font-size="10.00">src/d/d_resorce.cpp</text>
</a>
</g>
</g>
<!-- Node3&#45;&gt;Node53 -->
<g id="edge39" class="edge">
<title>Node3&#45;&gt;Node53</title>
<path fill="none" stroke="midnightblue" d="M2351.11,-151.16C2410.88,-142.82 2501.63,-128.45 2579,-109 2591.46,-105.87 2605.06,-101.42 2616.16,-97.52"/>
<polygon fill="midnightblue" stroke="midnightblue" points="2350.49,-147.71 2341.06,-152.54 2351.44,-154.64 2350.49,-147.71"/>
</g>
<!-- Node54 -->
<g id="node37" class="node">
<title>Node54</title>
<g id="a_node37"><a xlink:href="d__simple__model_8cpp.html" target="_top" xlink:title=" ">
<polygon fill="white" stroke="black" points="2708,-78.5 2708,-97.5 2838,-97.5 2838,-78.5 2708,-78.5"/>
<text text-anchor="middle" x="2773" y="-85.5" font-family="Helvetica,sans-Serif" font-size="10.00">src/d/d_simple_model.cpp</text>
</a>
</g>
</g>
<!-- Node3&#45;&gt;Node54 -->
<g id="edge40" class="edge">
<title>Node3&#45;&gt;Node54</title>
<path fill="none" stroke="midnightblue" d="M2351.32,-154.4C2433.11,-147.36 2577.3,-132.76 2699,-109 2714.41,-105.99 2731.34,-101.51 2745.11,-97.55"/>
<polygon fill="midnightblue" stroke="midnightblue" points="2350.84,-150.93 2341.17,-155.27 2351.43,-157.91 2350.84,-150.93"/>
</g>
<!-- Node55 -->
<g id="node38" class="node">
<title>Node55</title>
<g id="a_node38"><a xlink:href="d__stage_8cpp.html" target="_top" xlink:title=" ">
<polygon fill="white" stroke="black" points="2856,-78.5 2856,-97.5 2950,-97.5 2950,-78.5 2856,-78.5"/>
<text text-anchor="middle" x="2903" y="-85.5" font-family="Helvetica,sans-Serif" font-size="10.00">src/d/d_stage.cpp</text>
</a>
</g>
</g>
<!-- Node3&#45;&gt;Node55 -->
<g id="edge41" class="edge">
<title>Node3&#45;&gt;Node55</title>
<path fill="none" stroke="midnightblue" d="M2351.43,-158.95C2456.94,-156.88 2670.69,-147.76 2847,-109 2859.2,-106.32 2872.38,-101.7 2882.88,-97.58"/>
<polygon fill="midnightblue" stroke="midnightblue" points="2351.19,-155.46 2341.25,-159.14 2351.31,-162.45 2351.19,-155.46"/>
</g>
<!-- Node56 -->
<g id="node39" class="node">
<title>Node56</title>
<g id="a_node39"><a xlink:href="d__timer_8cpp.html" target="_top" xlink:title=" ">
<polygon fill="white" stroke="black" points="2968,-78.5 2968,-97.5 3060,-97.5 3060,-78.5 2968,-78.5"/>
<text text-anchor="middle" x="3014" y="-85.5" font-family="Helvetica,sans-Serif" font-size="10.00">src/d/d_timer.cpp</text>
</a>
</g>
</g>
<!-- Node3&#45;&gt;Node56 -->
<g id="edge42" class="edge">
<title>Node3&#45;&gt;Node56</title>
<path fill="none" stroke="midnightblue" d="M2351.12,-156.89C2496.59,-150.68 2844.2,-133.69 2959,-109 2971.12,-106.39 2984.18,-101.73 2994.53,-97.56"/>
<polygon fill="midnightblue" stroke="midnightblue" points="2350.84,-153.39 2341,-157.31 2351.14,-160.39 2350.84,-153.39"/>
</g>
<!-- Node57 -->
<g id="node40" class="node">
<title>Node57</title>
<g id="a_node40"><a xlink:href="d__tresure_8cpp.html" target="_top" xlink:title=" ">
<polygon fill="white" stroke="black" points="3078,-78.5 3078,-97.5 3178,-97.5 3178,-78.5 3078,-78.5"/>
<text text-anchor="middle" x="3128" y="-85.5" font-family="Helvetica,sans-Serif" font-size="10.00">src/d/d_tresure.cpp</text>
</a>
</g>
</g>
<!-- Node3&#45;&gt;Node57 -->
<g id="edge43" class="edge">
<title>Node3&#45;&gt;Node57</title>
<path fill="none" stroke="midnightblue" d="M2351.41,-157.49C2513.84,-152.14 2932.28,-136.09 3069,-109 3081.94,-106.44 3095.95,-101.77 3107.07,-97.59"/>
<polygon fill="midnightblue" stroke="midnightblue" points="2350.97,-154 2341.09,-157.83 2351.2,-161 2350.97,-154"/>
</g>
<!-- Node58 -->
<g id="node41" class="node">
<title>Node58</title>
<g id="a_node41"><a xlink:href="d__event_8cpp.html" target="_top" xlink:title=" ">
<polygon fill="white" stroke="black" points="3196.5,-78.5 3196.5,-97.5 3317.5,-97.5 3317.5,-78.5 3196.5,-78.5"/>
<text text-anchor="middle" x="3257" y="-85.5" font-family="Helvetica,sans-Serif" font-size="10.00">src/d/event/d_event.cpp</text>
</a>
</g>
</g>
<!-- Node3&#45;&gt;Node58 -->
<g id="edge44" class="edge">
<title>Node3&#45;&gt;Node58</title>
<path fill="none" stroke="midnightblue" d="M2351.35,-157.72C2530.38,-152.56 3026.08,-136.15 3187,-109 3202.2,-106.43 3218.82,-101.77 3232.04,-97.59"/>
<polygon fill="midnightblue" stroke="midnightblue" points="2351.18,-154.23 2341.29,-158.01 2351.38,-161.22 2351.18,-154.23"/>
</g>
<!-- Node59 -->
<g id="node42" class="node">
<title>Node59</title>
<g id="a_node42"><a xlink:href="d__event__lib_8cpp.html" target="_top" xlink:title=" ">
<polygon fill="white" stroke="black" points="3335.5,-73 3335.5,-103 3438.5,-103 3438.5,-73 3335.5,-73"/>
<text text-anchor="start" x="3343.5" y="-91" font-family="Helvetica,sans-Serif" font-size="10.00">src/d/event/d_event</text>
<text text-anchor="middle" x="3387" y="-80" font-family="Helvetica,sans-Serif" font-size="10.00">_lib.cpp</text>
</a>
</g>
</g>
<!-- Node3&#45;&gt;Node59 -->
<g id="edge46" class="edge">
<title>Node3&#45;&gt;Node59</title>
<path fill="none" stroke="midnightblue" d="M2351.37,-158.62C2548.92,-155.58 3137.72,-143.78 3326,-109 3333.67,-107.58 3341.71,-105.45 3349.34,-103.09"/>
<polygon fill="midnightblue" stroke="midnightblue" points="2351.09,-155.12 2341.15,-158.77 2351.2,-162.12 2351.09,-155.12"/>
</g>
<!-- Node60 -->
<g id="node43" class="node">
<title>Node60</title>
<g id="a_node43"><a xlink:href="d__event__manager_8cpp.html" target="_top" xlink:title=" ">
<polygon fill="white" stroke="black" points="3456.5,-73 3456.5,-103 3559.5,-103 3559.5,-73 3456.5,-73"/>
<text text-anchor="start" x="3464.5" y="-91" font-family="Helvetica,sans-Serif" font-size="10.00">src/d/event/d_event</text>
<text text-anchor="middle" x="3508" y="-80" font-family="Helvetica,sans-Serif" font-size="10.00">_manager.cpp</text>
</a>
</g>
</g>
<!-- Node3&#45;&gt;Node60 -->
<g id="edge47" class="edge">
<title>Node3&#45;&gt;Node60</title>
<path fill="none" stroke="midnightblue" d="M2351.26,-159C2563.74,-157.01 3234.26,-147.75 3447,-109 3454.78,-107.58 3462.94,-105.41 3470.67,-103.02"/>
<polygon fill="midnightblue" stroke="midnightblue" points="2351.16,-155.5 2341.19,-159.09 2351.22,-162.5 2351.16,-155.5"/>
</g>
<!-- Node61 -->
<g id="node44" class="node">
<title>Node61</title>
<g id="a_node44"><a xlink:href="d__kankyo__wether_8cpp.html" target="_top" xlink:title=" ">
<polygon fill="white" stroke="black" points="3578,-73 3578,-103 3694,-103 3694,-73 3578,-73"/>
<text text-anchor="start" x="3586" y="-91" font-family="Helvetica,sans-Serif" font-size="10.00">src/d/kankyo/d_kankyo</text>
<text text-anchor="middle" x="3636" y="-80" font-family="Helvetica,sans-Serif" font-size="10.00">_wether.cpp</text>
</a>
</g>
</g>
<!-- Node3&#45;&gt;Node61 -->
<g id="edge49" class="edge">
<title>Node3&#45;&gt;Node61</title>
<path fill="none" stroke="midnightblue" d="M2351.39,-159.05C2578.2,-157.17 3330.15,-148.05 3568,-109 3576.62,-107.58 3585.69,-105.42 3594.3,-103.02"/>
<polygon fill="midnightblue" stroke="midnightblue" points="2351.28,-155.55 2341.31,-159.13 2351.34,-162.55 2351.28,-155.55"/>
</g>
<!-- Node62 -->
<g id="node45" class="node">
<title>Node62</title>
<g id="a_node45"><a xlink:href="d__map__path__dmap_8cpp.html" target="_top" xlink:title=" ">
<polygon fill="white" stroke="black" points="3712,-73 3712,-103 3828,-103 3828,-73 3712,-73"/>
<text text-anchor="start" x="3720" y="-91" font-family="Helvetica,sans-Serif" font-size="10.00">src/d/map/d_map_path</text>
<text text-anchor="middle" x="3770" y="-80" font-family="Helvetica,sans-Serif" font-size="10.00">_dmap.cpp</text>
</a>
</g>
</g>
<!-- Node3&#45;&gt;Node62 -->
<g id="edge50" class="edge">
<title>Node3&#45;&gt;Node62</title>
<path fill="none" stroke="midnightblue" d="M2351.27,-159.37C2593.09,-158.56 3437.64,-152.6 3703,-109 3711.5,-107.6 3720.45,-105.44 3728.93,-103.05"/>
<polygon fill="midnightblue" stroke="midnightblue" points="2351.21,-155.87 2341.23,-159.41 2351.24,-162.87 2351.21,-155.87"/>
</g>
<!-- Node63 -->
<g id="node46" class="node">
<title>Node63</title>
<g id="a_node46"><a xlink:href="d__menu__window__HIO_8cpp.html" target="_top" xlink:title=" ">
<polygon fill="white" stroke="black" points="3846.5,-73 3846.5,-103 3987.5,-103 3987.5,-73 3846.5,-73"/>
<text text-anchor="start" x="3854.5" y="-91" font-family="Helvetica,sans-Serif" font-size="10.00">src/d/menu/d_menu_window</text>
<text text-anchor="middle" x="3917" y="-80" font-family="Helvetica,sans-Serif" font-size="10.00">_HIO.cpp</text>
</a>
</g>
</g>
<!-- Node3&#45;&gt;Node63 -->
<g id="edge52" class="edge">
<title>Node3&#45;&gt;Node63</title>
<path fill="none" stroke="midnightblue" d="M2351.28,-159.22C2607.32,-157.84 3543.23,-150.03 3837,-109 3847.07,-107.59 3857.7,-105.43 3867.82,-103.04"/>
<polygon fill="midnightblue" stroke="midnightblue" points="2351.01,-155.72 2341.03,-159.27 2351.05,-162.72 2351.01,-155.72"/>
</g>
<!-- Node64 -->
<g id="node47" class="node">
<title>Node64</title>
<g id="a_node47"><a xlink:href="d__s__name_8cpp.html" target="_top" xlink:title=" ">
<polygon fill="white" stroke="black" points="4005.5,-78.5 4005.5,-97.5 4118.5,-97.5 4118.5,-78.5 4005.5,-78.5"/>
<text text-anchor="middle" x="4062" y="-85.5" font-family="Helvetica,sans-Serif" font-size="10.00">src/d/s/d_s_name.cpp</text>
</a>
</g>
</g>
<!-- Node3&#45;&gt;Node64 -->
<g id="edge57" class="edge">
<title>Node3&#45;&gt;Node64</title>
<path fill="none" stroke="midnightblue" d="M2351.23,-159.91C2623.67,-161.28 3671.53,-162.86 3997,-109 4011.44,-106.61 4027.15,-101.84 4039.5,-97.56"/>
<polygon fill="midnightblue" stroke="midnightblue" points="2351.13,-156.41 2341.11,-159.86 2351.09,-163.41 2351.13,-156.41"/>
</g>
<!-- Node65 -->
<g id="node48" class="node">
<title>Node65</title>
<g id="a_node48"><a xlink:href="d__s__room_8cpp.html" target="_top" xlink:title=" ">
<polygon fill="white" stroke="black" points="4137,-78.5 4137,-97.5 4247,-97.5 4247,-78.5 4137,-78.5"/>
<text text-anchor="middle" x="4192" y="-85.5" font-family="Helvetica,sans-Serif" font-size="10.00">src/d/s/d_s_room.cpp</text>
</a>
</g>
</g>
<!-- Node3&#45;&gt;Node65 -->
<g id="edge58" class="edge">
<title>Node3&#45;&gt;Node65</title>
<path fill="none" stroke="midnightblue" d="M2351.38,-158.77C2658.49,-155.22 3950.25,-138.62 4128,-109 4142.24,-106.63 4157.7,-101.86 4169.86,-97.58"/>
<polygon fill="midnightblue" stroke="midnightblue" points="2351.26,-155.28 2341.3,-158.89 2351.34,-162.27 2351.26,-155.28"/>
</g>
<!-- Node30 -->
<g id="node49" class="node">
<title>Node30</title>
<g id="a_node49"><a xlink:href="d__save_8cpp.html" target="_top" xlink:title=" ">
<polygon fill="white" stroke="black" points="4265.5,-78.5 4265.5,-97.5 4380.5,-97.5 4380.5,-78.5 4265.5,-78.5"/>
<text text-anchor="middle" x="4323" y="-85.5" font-family="Helvetica,sans-Serif" font-size="10.00">src/d/save/d_save.cpp</text>
</a>
</g>
</g>
<!-- Node3&#45;&gt;Node30 -->
<g id="edge59" class="edge">
<title>Node3&#45;&gt;Node30</title>
<path fill="none" stroke="midnightblue" d="M2351.18,-158.85C2670.8,-155.54 4064.75,-139.44 4256,-109 4270.87,-106.63 4287.05,-101.87 4299.79,-97.58"/>
<polygon fill="midnightblue" stroke="midnightblue" points="2351.12,-155.35 2341.15,-158.96 2351.19,-162.35 2351.12,-155.35"/>
</g>
<!-- Node66 -->
<g id="node50" class="node">
<title>Node66</title>
<g id="a_node50"><a xlink:href="d__save__HIO_8cpp.html" target="_top" xlink:title=" ">
<polygon fill="white" stroke="black" points="4399,-78.5 4399,-97.5 4537,-97.5 4537,-78.5 4399,-78.5"/>
<text text-anchor="middle" x="4468" y="-85.5" font-family="Helvetica,sans-Serif" font-size="10.00">src/d/save/d_save_HIO.cpp</text>
</a>
</g>
</g>
<!-- Node3&#45;&gt;Node66 -->
<g id="edge60" class="edge">
<title>Node3&#45;&gt;Node66</title>
<path fill="none" stroke="midnightblue" d="M2351.46,-158.81C2684.62,-155.2 4184.29,-137.46 4390,-109 4407.17,-106.62 4426.01,-101.86 4440.87,-97.57"/>
<polygon fill="midnightblue" stroke="midnightblue" points="2350.98,-155.32 2341.02,-158.93 2351.06,-162.32 2350.98,-155.32"/>
</g>
<!-- Node11&#45;&gt;Node12 -->
<g id="edge6" class="edge">
<title>Node11&#45;&gt;Node12</title>
<path fill="none" stroke="midnightblue" d="M1401.08,-74.86C1409.9,-71.71 1419.71,-68.72 1429,-67 1596.36,-35.96 2825.9,-20.23 3099.95,-17.09"/>
<polygon fill="midnightblue" stroke="midnightblue" points="1399.76,-71.62 1391.64,-78.42 1402.23,-78.17 1399.76,-71.62"/>
</g>
<!-- Node11&#45;&gt;Node6 -->
<g id="edge7" class="edge">
<title>Node11&#45;&gt;Node6</title>
<path fill="none" stroke="midnightblue" d="M1324.44,-76.38C1309.03,-73.13 1291.83,-69.7 1276,-67 1167.05,-48.42 1039.5,-32.65 963.63,-23.89"/>
<polygon fill="midnightblue" stroke="midnightblue" points="1323.77,-79.81 1334.28,-78.48 1325.23,-72.97 1323.77,-79.81"/>
</g>
<!-- Node11&#45;&gt;Node7 -->
<g id="edge8" class="edge">
<title>Node11&#45;&gt;Node7</title>
<path fill="none" stroke="midnightblue" d="M1354.96,-71.19C1339.65,-56.99 1317.74,-36.67 1305.4,-25.22"/>
<polygon fill="midnightblue" stroke="midnightblue" points="1352.97,-74.12 1362.68,-78.36 1357.73,-68.99 1352.97,-74.12"/>
</g>
<!-- Node15&#45;&gt;Node17 -->
<g id="edge10" class="edge">
<title>Node15&#45;&gt;Node17</title>
<path fill="none" stroke="midnightblue" d="M149.34,-68.06C127.74,-56.26 100.43,-41.33 80.75,-30.57"/>
<polygon fill="midnightblue" stroke="midnightblue" points="147.75,-71.18 158.2,-72.9 151.11,-65.04 147.75,-71.18"/>
</g>
<!-- Node32&#45;&gt;Node6 -->
<g id="edge22" class="edge">
<title>Node32&#45;&gt;Node6</title>
<path fill="none" stroke="midnightblue" d="M525.47,-77.54C597.88,-66.92 717.95,-48.82 821,-31 831.59,-29.17 842.98,-27.07 853.64,-25.04"/>
<polygon fill="midnightblue" stroke="midnightblue" points="524.53,-74.14 515.14,-79.05 525.54,-81.07 524.53,-74.14"/>
</g>
<!-- Node32&#45;&gt;Node7 -->
<g id="edge23" class="edge">
<title>Node32&#45;&gt;Node7</title>
<path fill="none" stroke="midnightblue" d="M525.43,-79.09C559.05,-75.17 600.68,-70.53 638,-67 848.45,-47.11 1097.33,-29.66 1219.94,-21.46"/>
<polygon fill="midnightblue" stroke="midnightblue" points="524.8,-75.64 515.27,-80.28 525.61,-82.59 524.8,-75.64"/>
</g>
<!-- Node32&#45;&gt;Node17 -->
<g id="edge19" class="edge">
<title>Node32&#45;&gt;Node17</title>
<path fill="none" stroke="midnightblue" d="M394.64,-77.46C325.85,-67.14 214.49,-49.64 119,-31 116.09,-30.43 113.12,-29.83 110.11,-29.21"/>
<polygon fill="midnightblue" stroke="midnightblue" points="394.48,-80.97 404.89,-78.99 395.52,-74.05 394.48,-80.97"/>
</g>
<!-- Node32&#45;&gt;Node33 -->
<g id="edge16" class="edge">
<title>Node32&#45;&gt;Node33</title>
<path fill="none" stroke="midnightblue" d="M394.7,-70.56C345.11,-58.07 277.84,-41.13 231.89,-29.57"/>
<polygon fill="midnightblue" stroke="midnightblue" points="394.13,-74.02 404.68,-73.07 395.84,-67.24 394.13,-74.02"/>
</g>
<!-- Node32&#45;&gt;Node34 -->
<g id="edge17" class="edge">
<title>Node32&#45;&gt;Node34</title>
<path fill="none" stroke="midnightblue" d="M422.14,-68.33C393.66,-54.29 355.97,-35.71 334.31,-25.03"/>
<polygon fill="midnightblue" stroke="midnightblue" points="420.89,-71.62 431.41,-72.9 423.98,-65.34 420.89,-71.62"/>
</g>
<!-- Node32&#45;&gt;Node27 -->
<g id="edge18" class="edge">
<title>Node32&#45;&gt;Node27</title>
<path fill="none" stroke="midnightblue" d="M467.5,-62.98C471.54,-50.01 476.29,-34.79 479.22,-25.39"/>
<polygon fill="midnightblue" stroke="midnightblue" points="464.09,-62.14 464.45,-72.73 470.77,-64.23 464.09,-62.14"/>
</g>
<!-- Node32&#45;&gt;Node29 -->
<g id="edge20" class="edge">
<title>Node32&#45;&gt;Node29</title>
<path fill="none" stroke="midnightblue" d="M504.3,-69.15C533.99,-57.19 572.54,-41.66 600.07,-30.57"/>
<polygon fill="midnightblue" stroke="midnightblue" points="502.96,-65.92 494.99,-72.9 505.58,-72.41 502.96,-65.92"/>
</g>
<!-- Node32&#45;&gt;Node28 -->
<g id="edge21" class="edge">
<title>Node32&#45;&gt;Node28</title>
<path fill="none" stroke="midnightblue" d="M525.03,-71.82C573.1,-60.59 640.14,-44.89 699,-31 701.86,-30.32 704.8,-29.63 707.76,-28.93"/>
<polygon fill="midnightblue" stroke="midnightblue" points="524.01,-68.47 515.07,-74.15 525.6,-75.28 524.01,-68.47"/>
</g>
<!-- Node39&#45;&gt;Node40 -->
<g id="edge26" class="edge">
<title>Node39&#45;&gt;Node40</title>
<path fill="none" stroke="midnightblue" d="M4927.37,-69.59C4935.77,-55.5 4947.24,-36.24 4953.81,-25.22"/>
<polygon fill="midnightblue" stroke="midnightblue" points="4924.26,-67.97 4922.15,-78.36 4930.27,-71.56 4924.26,-67.97"/>
</g>
</g>
</svg>
