<?xml version="1.0" encoding="UTF-8" standalone="no"?>
<!DOCTYPE svg PUBLIC "-//W3C//DTD SVG 1.1//EN"
 "http://www.w3.org/Graphics/SVG/1.1/DTD/svg11.dtd">
<!-- Generated by graphviz version 3.0.0 (20220413.0242)
 -->
<!-- Title: include/d/d_item_data.h Pages: 1 -->
<svg width="667pt" height="95pt"
 viewBox="0.00 0.00 667.00 95.00" xmlns="http://www.w3.org/2000/svg" xmlns:xlink="http://www.w3.org/1999/xlink">
<g id="graph0" class="graph" transform="scale(1 1) rotate(0) translate(4 91)">
<title>include/d/d_item_data.h</title>
<polygon fill="white" stroke="transparent" points="-4,4 -4,-91 663,-91 663,4 -4,4"/>
<!-- Node1 -->
<g id="node1" class="node">
<title>Node1</title>
<g id="a_node1"><a xlink:title=" ">
<polygon fill="#bfbfbf" stroke="black" points="277.5,-67.5 277.5,-86.5 396.5,-86.5 396.5,-67.5 277.5,-67.5"/>
<text text-anchor="middle" x="337" y="-74.5" font-family="Helvetica,sans-Serif" font-size="10.00">include/d/d_item_data.h</text>
</a>
</g>
</g>
<!-- Node2 -->
<g id="node2" class="node">
<title>Node2</title>
<g id="a_node2"><a xlink:href="d__a__itembase_8cpp.html" target="_top" xlink:title=" ">
<polygon fill="white" stroke="black" points="0,-6 0,-25 128,-25 128,-6 0,-6"/>
<text text-anchor="middle" x="64" y="-13" font-family="Helvetica,sans-Serif" font-size="10.00">src/d/a/d_a_itembase.cpp</text>
</a>
</g>
</g>
<!-- Node1&#45;&gt;Node2 -->
<g id="edge1" class="edge">
<title>Node1&#45;&gt;Node2</title>
<path fill="none" stroke="midnightblue" d="M288.05,-65.33C235.1,-53.79 151.76,-35.63 103.04,-25.01"/>
<polygon fill="midnightblue" stroke="midnightblue" points="287.37,-68.77 297.89,-67.48 288.86,-61.93 287.37,-68.77"/>
</g>
<!-- Node3 -->
<g id="node3" class="node">
<title>Node3</title>
<g id="a_node3"><a xlink:href="d__a__itembase__static_8cpp.html" target="_top" xlink:title=" ">
<polygon fill="white" stroke="black" points="146,-0.5 146,-30.5 256,-30.5 256,-0.5 146,-0.5"/>
<text text-anchor="start" x="154" y="-18.5" font-family="Helvetica,sans-Serif" font-size="10.00">src/d/a/d_a_itembase</text>
<text text-anchor="middle" x="201" y="-7.5" font-family="Helvetica,sans-Serif" font-size="10.00">_static.cpp</text>
</a>
</g>
</g>
<!-- Node1&#45;&gt;Node3 -->
<g id="edge2" class="edge">
<title>Node1&#45;&gt;Node3</title>
<path fill="none" stroke="midnightblue" d="M308.34,-63.46C286.31,-53.82 255.89,-40.51 233.05,-30.52"/>
<polygon fill="midnightblue" stroke="midnightblue" points="306.95,-66.67 317.51,-67.48 309.76,-60.26 306.95,-66.67"/>
</g>
<!-- Node4 -->
<g id="node4" class="node">
<title>Node4</title>
<g id="a_node4"><a xlink:href="d__a__obj__item_8cpp.html" target="_top" xlink:title=" ">
<polygon fill="white" stroke="black" points="274.5,-6 274.5,-25 399.5,-25 399.5,-6 274.5,-6"/>
<text text-anchor="middle" x="337" y="-13" font-family="Helvetica,sans-Serif" font-size="10.00">src/d/a/d_a_obj_item.cpp</text>
</a>
</g>
</g>
<!-- Node1&#45;&gt;Node4 -->
<g id="edge3" class="edge">
<title>Node1&#45;&gt;Node4</title>
<path fill="none" stroke="midnightblue" d="M337,-57.32C337,-46.5 337,-33.4 337,-25.01"/>
<polygon fill="midnightblue" stroke="midnightblue" points="333.5,-57.48 337,-67.48 340.5,-57.48 333.5,-57.48"/>
</g>
<!-- Node5 -->
<g id="node5" class="node">
<title>Node5</title>
<g id="a_node5"><a xlink:href="d__item__data_8cpp.html" target="_top" xlink:title=" ">
<polygon fill="white" stroke="black" points="417.5,-6 417.5,-25 530.5,-25 530.5,-6 417.5,-6"/>
<text text-anchor="middle" x="474" y="-13" font-family="Helvetica,sans-Serif" font-size="10.00">src/d/d_item_data.cpp</text>
</a>
</g>
</g>
<!-- Node1&#45;&gt;Node5 -->
<g id="edge4" class="edge">
<title>Node1&#45;&gt;Node5</title>
<path fill="none" stroke="midnightblue" d="M365.83,-63.48C392.44,-51.92 431.23,-35.08 454.41,-25.01"/>
<polygon fill="midnightblue" stroke="midnightblue" points="364.41,-60.28 356.63,-67.48 367.2,-66.7 364.41,-60.28"/>
</g>
<!-- Node6 -->
<g id="node6" class="node">
<title>Node6</title>
<g id="a_node6"><a xlink:href="d__meter2__info_8cpp.html" target="_top" xlink:title=" ">
<polygon fill="white" stroke="black" points="549,-0.5 549,-30.5 659,-30.5 659,-0.5 549,-0.5"/>
<text text-anchor="start" x="557" y="-18.5" font-family="Helvetica,sans-Serif" font-size="10.00">src/d/meter/d_meter2</text>
<text text-anchor="middle" x="604" y="-7.5" font-family="Helvetica,sans-Serif" font-size="10.00">_info.cpp</text>
</a>
</g>
</g>
<!-- Node1&#45;&gt;Node6 -->
<g id="edge5" class="edge">
<title>Node1&#45;&gt;Node6</title>
<path fill="none" stroke="midnightblue" d="M385.95,-65.21C427.08,-56.14 487.39,-42.79 540,-31 542.89,-30.35 545.85,-29.69 548.85,-29.01"/>
<polygon fill="midnightblue" stroke="midnightblue" points="384.94,-61.85 375.93,-67.43 386.45,-68.69 384.94,-61.85"/>
</g>
</g>
</svg>
