<?xml version="1.0" encoding="UTF-8" standalone="no"?>
<!DOCTYPE svg PUBLIC "-//W3C//DTD SVG 1.1//EN"
 "http://www.w3.org/Graphics/SVG/1.1/DTD/svg11.dtd">
<!-- Generated by graphviz version 3.0.0 (20220413.0242)
 -->
<!-- Title: src/d/d_kyeff2.cpp Pages: 1 -->
<svg width="1175pt" height="531pt"
 viewBox="0.00 0.00 1175.00 531.00" xmlns="http://www.w3.org/2000/svg" xmlns:xlink="http://www.w3.org/1999/xlink">
<g id="graph0" class="graph" transform="scale(1 1) rotate(0) translate(4 527)">
<title>src/d/d_kyeff2.cpp</title>
<polygon fill="white" stroke="transparent" points="-4,4 -4,-527 1171,-527 1171,4 -4,4"/>
<!-- Node1 -->
<g id="node1" class="node">
<title>Node1</title>
<g id="a_node1"><a xlink:title=" ">
<polygon fill="#bfbfbf" stroke="black" points="97.5,-503.5 97.5,-522.5 192.5,-522.5 192.5,-503.5 97.5,-503.5"/>
<text text-anchor="middle" x="145" y="-510.5" font-family="Helvetica,sans-Serif" font-size="10.00">src/d/d_kyeff2.cpp</text>
</a>
</g>
</g>
<!-- Node2 -->
<g id="node2" class="node">
<title>Node2</title>
<g id="a_node2"><a xlink:href="d__kyeff2_8h.html" target="_top" xlink:title=" ">
<polygon fill="white" stroke="black" points="0,-386 0,-405 68,-405 68,-386 0,-386"/>
<text text-anchor="middle" x="34" y="-393" font-family="Helvetica,sans-Serif" font-size="10.00">d/d_kyeff2.h</text>
</a>
</g>
</g>
<!-- Node1&#45;&gt;Node2 -->
<g id="edge1" class="edge">
<title>Node1&#45;&gt;Node2</title>
<path fill="none" stroke="midnightblue" d="M130.12,-503.47C116.59,-495.25 96.57,-481.9 82,-467 66.21,-450.85 52.19,-428.9 43.44,-413.81"/>
<polygon fill="midnightblue" stroke="midnightblue" points="46.44,-412.01 38.49,-405.01 40.34,-415.44 46.44,-412.01"/>
</g>
<!-- Node3 -->
<g id="node3" class="node">
<title>Node3</title>
<g id="a_node3"><a xlink:href="types_8h.html" target="_top" xlink:title=" ">
<polygon fill="white" stroke="black" points="476.5,-0.5 476.5,-19.5 557.5,-19.5 557.5,-0.5 476.5,-0.5"/>
<text text-anchor="middle" x="517" y="-7.5" font-family="Helvetica,sans-Serif" font-size="10.00">dolphin/types.h</text>
</a>
</g>
</g>
<!-- Node1&#45;&gt;Node3 -->
<g id="edge45" class="edge">
<title>Node1&#45;&gt;Node3</title>
<path fill="none" stroke="midnightblue" d="M138.39,-503.26C125.02,-484.68 96,-439.41 96,-396.5 96,-396.5 96,-396.5 96,-137.5 96,-95.91 107.4,-79.08 142,-56 193.95,-21.35 376.17,-13.35 466.06,-11.53"/>
<polygon fill="midnightblue" stroke="midnightblue" points="466.36,-15.02 476.29,-11.34 466.23,-8.02 466.36,-15.02"/>
</g>
<!-- Node4 -->
<g id="node4" class="node">
<title>Node4</title>
<g id="a_node4"><a xlink:href="d__kankyo__wether_8h.html" target="_top" xlink:title=" ">
<polygon fill="white" stroke="black" points="266,-447.5 266,-466.5 408,-466.5 408,-447.5 266,-447.5"/>
<text text-anchor="middle" x="337" y="-454.5" font-family="Helvetica,sans-Serif" font-size="10.00">d/kankyo/d_kankyo_wether.h</text>
</a>
</g>
</g>
<!-- Node1&#45;&gt;Node4 -->
<g id="edge3" class="edge">
<title>Node1&#45;&gt;Node4</title>
<path fill="none" stroke="midnightblue" d="M175.42,-503.44C208.28,-494.2 260.78,-479.44 296.97,-469.26"/>
<polygon fill="midnightblue" stroke="midnightblue" points="298.04,-472.59 306.72,-466.52 296.15,-465.85 298.04,-472.59"/>
</g>
<!-- Node21 -->
<g id="node21" class="node">
<title>Node21</title>
<g id="a_node21"><a xlink:href="dol2asm_8h.html" target="_top" xlink:title=" ">
<polygon fill="white" stroke="black" points="426.5,-447.5 426.5,-466.5 487.5,-466.5 487.5,-447.5 426.5,-447.5"/>
<text text-anchor="middle" x="457" y="-454.5" font-family="Helvetica,sans-Serif" font-size="10.00">dol2asm.h</text>
</a>
</g>
</g>
<!-- Node1&#45;&gt;Node21 -->
<g id="edge44" class="edge">
<title>Node1&#45;&gt;Node21</title>
<path fill="none" stroke="midnightblue" d="M192.81,-504.94C245.18,-497.02 331.86,-483.35 416.43,-467.01"/>
<polygon fill="midnightblue" stroke="midnightblue" points="417.32,-470.41 426.46,-465.06 415.98,-463.54 417.32,-470.41"/>
</g>
<!-- Node2&#45;&gt;Node3 -->
<g id="edge2" class="edge">
<title>Node2&#45;&gt;Node3</title>
<path fill="none" stroke="midnightblue" d="M35.38,-385.94C38.53,-365.56 46,-312.56 46,-268 46,-268 46,-268 46,-137.5 46,-97.9 49.98,-79.3 82,-56 112.52,-33.8 358.05,-18.94 466.18,-13.41"/>
<polygon fill="midnightblue" stroke="midnightblue" points="466.4,-16.9 476.21,-12.9 466.04,-9.91 466.4,-16.9"/>
</g>
<!-- Node4&#45;&gt;Node3 -->
<g id="edge43" class="edge">
<title>Node4&#45;&gt;Node3</title>
<path fill="none" stroke="midnightblue" d="M287.08,-447.44C226.97,-433.95 134,-401.44 134,-329.5 134,-329.5 134,-329.5 134,-137.5 134,-95.91 145.55,-79.31 180,-56 225.59,-25.15 383.65,-15.37 466.08,-12.33"/>
<polygon fill="midnightblue" stroke="midnightblue" points="466.36,-15.82 476.23,-11.97 466.11,-8.82 466.36,-15.82"/>
</g>
<!-- Node5 -->
<g id="node5" class="node">
<title>Node5</title>
<g id="a_node5"><a xlink:href="J3DPacket_8h.html" target="_top" xlink:title=" ">
<polygon fill="white" stroke="black" points="426,-380.5 426,-410.5 550,-410.5 550,-380.5 426,-380.5"/>
<text text-anchor="start" x="434" y="-398.5" font-family="Helvetica,sans-Serif" font-size="10.00">JSystem/J3DGraphBase</text>
<text text-anchor="middle" x="488" y="-387.5" font-family="Helvetica,sans-Serif" font-size="10.00">/J3DPacket.h</text>
</a>
</g>
</g>
<!-- Node4&#45;&gt;Node5 -->
<g id="edge4" class="edge">
<title>Node4&#45;&gt;Node5</title>
<path fill="none" stroke="midnightblue" d="M358.63,-447.48C380.52,-438.85 415,-425.26 442.86,-414.29"/>
<polygon fill="midnightblue" stroke="midnightblue" points="444.39,-417.45 452.41,-410.52 441.83,-410.93 444.39,-417.45"/>
</g>
<!-- Node17 -->
<g id="node17" class="node">
<title>Node17</title>
<g id="a_node17"><a xlink:href="c__sxyz_8h.html" target="_top" xlink:title=" ">
<polygon fill="white" stroke="black" points="903,-123.5 903,-153.5 1019,-153.5 1019,-123.5 903,-123.5"/>
<text text-anchor="start" x="911" y="-141.5" font-family="Helvetica,sans-Serif" font-size="10.00">SSystem/SComponent</text>
<text text-anchor="middle" x="961" y="-130.5" font-family="Helvetica,sans-Serif" font-size="10.00">/c_sxyz.h</text>
</a>
</g>
</g>
<!-- Node4&#45;&gt;Node17 -->
<g id="edge33" class="edge">
<title>Node4&#45;&gt;Node17</title>
<path fill="none" stroke="midnightblue" d="M391.04,-447.46C538.52,-423.79 937,-357.26 937,-329.5 937,-329.5 937,-329.5 937,-266 937,-229.82 946.6,-188.81 953.65,-163.55"/>
<polygon fill="midnightblue" stroke="midnightblue" points="957.07,-164.33 956.49,-153.75 950.35,-162.39 957.07,-164.33"/>
</g>
<!-- Node18 -->
<g id="node18" class="node">
<title>Node18</title>
<g id="a_node18"><a xlink:href="c__xyz_8h.html" target="_top" xlink:title=" ">
<polygon fill="white" stroke="black" points="977,-190.5 977,-220.5 1093,-220.5 1093,-190.5 977,-190.5"/>
<text text-anchor="start" x="985" y="-208.5" font-family="Helvetica,sans-Serif" font-size="10.00">SSystem/SComponent</text>
<text text-anchor="middle" x="1035" y="-197.5" font-family="Helvetica,sans-Serif" font-size="10.00">/c_xyz.h</text>
</a>
</g>
</g>
<!-- Node4&#45;&gt;Node18 -->
<g id="edge36" class="edge">
<title>Node4&#45;&gt;Node18</title>
<path fill="none" stroke="midnightblue" d="M408.08,-447.84C411.09,-447.54 414.08,-447.26 417,-447 476.23,-441.67 902.75,-445.76 951,-411 1010.58,-368.09 1028.02,-275.13 1033.03,-230.87"/>
<polygon fill="midnightblue" stroke="midnightblue" points="1036.53,-231.03 1034.06,-220.73 1029.57,-230.32 1036.53,-231.03"/>
</g>
<!-- Node5&#45;&gt;Node3 -->
<g id="edge32" class="edge">
<title>Node5&#45;&gt;Node3</title>
<path fill="none" stroke="midnightblue" d="M425.95,-382.78C333.92,-363.59 172,-322.14 172,-268 172,-268 172,-268 172,-137.5 172,-96.55 181.59,-79.68 215,-56 254.45,-28.04 391.02,-17.08 466.27,-13.09"/>
<polygon fill="midnightblue" stroke="midnightblue" points="466.66,-16.57 476.47,-12.57 466.3,-9.58 466.66,-16.57"/>
</g>
<!-- Node6 -->
<g id="node6" class="node">
<title>Node6</title>
<g id="a_node6"><a xlink:href="J3DSys_8h.html" target="_top" xlink:title=" ">
<polygon fill="white" stroke="black" points="426,-313.5 426,-343.5 550,-343.5 550,-313.5 426,-313.5"/>
<text text-anchor="start" x="434" y="-331.5" font-family="Helvetica,sans-Serif" font-size="10.00">JSystem/J3DGraphBase</text>
<text text-anchor="middle" x="488" y="-320.5" font-family="Helvetica,sans-Serif" font-size="10.00">/J3DSys.h</text>
</a>
</g>
</g>
<!-- Node5&#45;&gt;Node6 -->
<g id="edge5" class="edge">
<title>Node5&#45;&gt;Node6</title>
<path fill="none" stroke="midnightblue" d="M488,-380.4C488,-372.64 488,-362.81 488,-353.86"/>
<polygon fill="midnightblue" stroke="midnightblue" points="491.5,-353.58 488,-343.58 484.5,-353.58 491.5,-353.58"/>
</g>
<!-- Node12 -->
<g id="node12" class="node">
<title>Node12</title>
<g id="a_node12"><a xlink:href="mtx_8h.html" target="_top" xlink:title=" ">
<polygon fill="white" stroke="black" points="592,-196 592,-215 684,-215 684,-196 592,-196"/>
<text text-anchor="middle" x="638" y="-203" font-family="Helvetica,sans-Serif" font-size="10.00">dolphin/mtx/mtx.h</text>
</a>
</g>
</g>
<!-- Node5&#45;&gt;Node12 -->
<g id="edge31" class="edge">
<title>Node5&#45;&gt;Node12</title>
<path fill="none" stroke="midnightblue" d="M513.06,-380.42C527.68,-371.36 545.78,-358.56 559,-344 592.96,-306.58 618.84,-252.13 630.76,-224.31"/>
<polygon fill="midnightblue" stroke="midnightblue" points="634.01,-225.62 634.63,-215.05 627.55,-222.92 634.01,-225.62"/>
</g>
<!-- Node16 -->
<g id="node16" class="node">
<title>Node16</title>
<g id="a_node16"><a xlink:href="GDBase_8h.html" target="_top" xlink:title=" ">
<polygon fill="white" stroke="black" points="767,-257.5 767,-276.5 875,-276.5 875,-257.5 767,-257.5"/>
<text text-anchor="middle" x="821" y="-264.5" font-family="Helvetica,sans-Serif" font-size="10.00">dolphin/gd/GDBase.h</text>
</a>
</g>
</g>
<!-- Node5&#45;&gt;Node16 -->
<g id="edge29" class="edge">
<title>Node5&#45;&gt;Node16</title>
<path fill="none" stroke="midnightblue" d="M533.86,-380.43C564.43,-370.79 605.39,-357.37 641,-344 695.43,-323.57 757.66,-296.43 792.84,-280.72"/>
<polygon fill="midnightblue" stroke="midnightblue" points="794.33,-283.89 802.02,-276.61 791.47,-277.5 794.33,-283.89"/>
</g>
<!-- Node6&#45;&gt;Node3 -->
<g id="edge28" class="edge">
<title>Node6&#45;&gt;Node3</title>
<path fill="none" stroke="midnightblue" d="M425.96,-326.72C344.02,-322.03 210,-300.06 210,-206.5 210,-206.5 210,-206.5 210,-137.5 210,-97.9 214.71,-80.27 246,-56 279.56,-29.97 397.6,-18.38 466.32,-13.73"/>
<polygon fill="midnightblue" stroke="midnightblue" points="466.75,-17.21 476.5,-13.07 466.29,-10.23 466.75,-17.21"/>
</g>
<!-- Node7 -->
<g id="node7" class="node">
<title>Node7</title>
<g id="a_node7"><a xlink:href="GX_8h.html" target="_top" xlink:title=" ">
<polygon fill="white" stroke="black" points="445.5,-257.5 445.5,-276.5 530.5,-276.5 530.5,-257.5 445.5,-257.5"/>
<text text-anchor="middle" x="488" y="-264.5" font-family="Helvetica,sans-Serif" font-size="10.00">dolphin/gx/GX.h</text>
</a>
</g>
</g>
<!-- Node6&#45;&gt;Node7 -->
<g id="edge6" class="edge">
<title>Node6&#45;&gt;Node7</title>
<path fill="none" stroke="midnightblue" d="M488,-313.4C488,-305.47 488,-295.46 488,-286.86"/>
<polygon fill="midnightblue" stroke="midnightblue" points="491.5,-286.66 488,-276.66 484.5,-286.66 491.5,-286.66"/>
</g>
<!-- Node6&#45;&gt;Node12 -->
<g id="edge27" class="edge">
<title>Node6&#45;&gt;Node12</title>
<path fill="none" stroke="midnightblue" d="M505.5,-313.38C534.06,-290.35 590.41,-244.89 619.56,-221.37"/>
<polygon fill="midnightblue" stroke="midnightblue" points="621.76,-224.09 627.35,-215.09 617.37,-218.65 621.76,-224.09"/>
</g>
<!-- Node7&#45;&gt;Node3 -->
<g id="edge25" class="edge">
<title>Node7&#45;&gt;Node3</title>
<path fill="none" stroke="midnightblue" d="M445.28,-264.66C408.52,-261.33 356.14,-251.13 322,-221 264.04,-169.85 217.42,-115.3 267,-56 291.87,-26.25 400.53,-16.14 466.13,-12.72"/>
<polygon fill="midnightblue" stroke="midnightblue" points="466.46,-16.21 476.27,-12.23 466.12,-9.22 466.46,-16.21"/>
</g>
<!-- Node8 -->
<g id="node8" class="node">
<title>Node8</title>
<g id="a_node8"><a xlink:href="GXDisplayList_8h.html" target="_top" xlink:title=" ">
<polygon fill="white" stroke="black" points="276.5,-62 276.5,-81 409.5,-81 409.5,-62 276.5,-62"/>
<text text-anchor="middle" x="343" y="-69" font-family="Helvetica,sans-Serif" font-size="10.00">dolphin/gx/GXDisplayList.h</text>
</a>
</g>
</g>
<!-- Node7&#45;&gt;Node8 -->
<g id="edge7" class="edge">
<title>Node7&#45;&gt;Node8</title>
<path fill="none" stroke="midnightblue" d="M445.29,-266.01C410.48,-263.46 363.25,-253.65 339,-221 310.38,-182.46 325.49,-121.45 335.87,-91.03"/>
<polygon fill="midnightblue" stroke="midnightblue" points="339.28,-91.9 339.4,-81.3 332.7,-89.51 339.28,-91.9"/>
</g>
<!-- Node9 -->
<g id="node9" class="node">
<title>Node9</title>
<g id="a_node9"><a xlink:href="GXStruct_8h.html" target="_top" xlink:title=" ">
<polygon fill="white" stroke="black" points="348.5,-196 348.5,-215 459.5,-215 459.5,-196 348.5,-196"/>
<text text-anchor="middle" x="404" y="-203" font-family="Helvetica,sans-Serif" font-size="10.00">dolphin/gx/GXStruct.h</text>
</a>
</g>
</g>
<!-- Node7&#45;&gt;Node9 -->
<g id="edge9" class="edge">
<title>Node7&#45;&gt;Node9</title>
<path fill="none" stroke="midnightblue" d="M475.96,-257.48C462.49,-247.93 440.43,-232.31 424.28,-220.87"/>
<polygon fill="midnightblue" stroke="midnightblue" points="426.2,-217.93 416.01,-215.01 422.15,-223.65 426.2,-217.93"/>
</g>
<!-- Node10 -->
<g id="node10" class="node">
<title>Node10</title>
<g id="a_node10"><a xlink:href="global_8h.html" target="_top" xlink:title=" ">
<polygon fill="white" stroke="black" points="448,-129 448,-148 498,-148 498,-129 448,-129"/>
<text text-anchor="middle" x="473" y="-136" font-family="Helvetica,sans-Serif" font-size="10.00">global.h</text>
</a>
</g>
</g>
<!-- Node7&#45;&gt;Node10 -->
<g id="edge26" class="edge">
<title>Node7&#45;&gt;Node10</title>
<path fill="none" stroke="midnightblue" d="M486.97,-257.31C484.56,-236.99 478.52,-186.05 475.23,-158.28"/>
<polygon fill="midnightblue" stroke="midnightblue" points="478.69,-157.77 474.04,-148.26 471.74,-158.6 478.69,-157.77"/>
</g>
<!-- Node11 -->
<g id="node11" class="node">
<title>Node11</title>
<g id="a_node11"><a xlink:href="GXEnum_8h.html" target="_top" xlink:title=" ">
<polygon fill="white" stroke="black" points="504,-62 504,-81 614,-81 614,-62 504,-62"/>
<text text-anchor="middle" x="559" y="-69" font-family="Helvetica,sans-Serif" font-size="10.00">dolphin/gx/GXEnum.h</text>
</a>
</g>
</g>
<!-- Node7&#45;&gt;Node11 -->
<g id="edge13" class="edge">
<title>Node7&#45;&gt;Node11</title>
<path fill="none" stroke="midnightblue" d="M491.14,-257.44C501.88,-228.16 537.3,-131.65 552.25,-90.91"/>
<polygon fill="midnightblue" stroke="midnightblue" points="555.57,-92 555.73,-81.41 549,-89.59 555.57,-92"/>
</g>
<!-- Node7&#45;&gt;Node12 -->
<g id="edge15" class="edge">
<title>Node7&#45;&gt;Node12</title>
<path fill="none" stroke="midnightblue" d="M509.49,-257.48C535.11,-247.31 578.11,-230.26 607.24,-218.7"/>
<polygon fill="midnightblue" stroke="midnightblue" points="608.54,-221.95 616.55,-215.01 605.96,-215.44 608.54,-221.95"/>
</g>
<!-- Node13 -->
<g id="node13" class="node">
<title>Node13</title>
<g id="a_node13"><a xlink:href="mtx44_8h.html" target="_top" xlink:title=" ">
<polygon fill="white" stroke="black" points="592.5,-129 592.5,-148 695.5,-148 695.5,-129 592.5,-129"/>
<text text-anchor="middle" x="644" y="-136" font-family="Helvetica,sans-Serif" font-size="10.00">dolphin/mtx/mtx44.h</text>
</a>
</g>
</g>
<!-- Node7&#45;&gt;Node13 -->
<g id="edge24" class="edge">
<title>Node7&#45;&gt;Node13</title>
<path fill="none" stroke="midnightblue" d="M498.72,-257.31C524.88,-236.09 592.25,-181.46 625.24,-154.72"/>
<polygon fill="midnightblue" stroke="midnightblue" points="627.64,-157.27 633.2,-148.26 623.23,-151.84 627.64,-157.27"/>
</g>
<!-- Node8&#45;&gt;Node3 -->
<g id="edge8" class="edge">
<title>Node8&#45;&gt;Node3</title>
<path fill="none" stroke="midnightblue" d="M367.93,-61.98C398.04,-51.68 448.83,-34.31 482.64,-22.75"/>
<polygon fill="midnightblue" stroke="midnightblue" points="483.79,-26.06 492.12,-19.51 481.52,-19.43 483.79,-26.06"/>
</g>
<!-- Node9&#45;&gt;Node3 -->
<g id="edge10" class="edge">
<title>Node9&#45;&gt;Node3</title>
<path fill="none" stroke="midnightblue" d="M407.22,-195.72C412.91,-180.54 425.42,-148.57 439,-123 455.59,-91.75 461.56,-84.88 482,-56 488.79,-46.41 496.81,-36.03 503.46,-27.66"/>
<polygon fill="midnightblue" stroke="midnightblue" points="506.25,-29.77 509.78,-19.78 500.79,-25.39 506.25,-29.77"/>
</g>
<!-- Node9&#45;&gt;Node10 -->
<g id="edge11" class="edge">
<title>Node9&#45;&gt;Node10</title>
<path fill="none" stroke="midnightblue" d="M413.31,-195.73C424.27,-185.4 442.71,-168.04 456.19,-155.33"/>
<polygon fill="midnightblue" stroke="midnightblue" points="458.96,-157.53 463.84,-148.13 454.16,-152.44 458.96,-157.53"/>
</g>
<!-- Node10&#45;&gt;Node3 -->
<g id="edge12" class="edge">
<title>Node10&#45;&gt;Node3</title>
<path fill="none" stroke="midnightblue" d="M474.78,-128.76C477.99,-113.66 485.31,-81.79 495,-56 498.48,-46.74 503.21,-36.82 507.39,-28.66"/>
<polygon fill="midnightblue" stroke="midnightblue" points="510.53,-30.22 512.1,-19.74 504.34,-26.95 510.53,-30.22"/>
</g>
<!-- Node11&#45;&gt;Node3 -->
<g id="edge14" class="edge">
<title>Node11&#45;&gt;Node3</title>
<path fill="none" stroke="midnightblue" d="M552.98,-61.98C546.74,-53.14 536.83,-39.09 528.98,-27.98"/>
<polygon fill="midnightblue" stroke="midnightblue" points="531.63,-25.66 523.01,-19.51 525.91,-29.7 531.63,-25.66"/>
</g>
<!-- Node12&#45;&gt;Node3 -->
<g id="edge23" class="edge">
<title>Node12&#45;&gt;Node3</title>
<path fill="none" stroke="midnightblue" d="M623.1,-195.88C609.78,-187.22 591.14,-172.51 583,-154 577.46,-141.39 577.39,-135.59 583,-123 592.73,-101.15 613.27,-108.85 623,-87 628.61,-74.41 630.6,-67.49 623,-56 610.47,-37.07 588.21,-26.08 567.31,-19.71"/>
<polygon fill="midnightblue" stroke="midnightblue" points="568.1,-16.3 557.53,-17.02 566.24,-23.05 568.1,-16.3"/>
</g>
<!-- Node12&#45;&gt;Node13 -->
<g id="edge16" class="edge">
<title>Node12&#45;&gt;Node13</title>
<path fill="none" stroke="midnightblue" d="M638.81,-195.73C639.69,-186.18 641.13,-170.62 642.27,-158.28"/>
<polygon fill="midnightblue" stroke="midnightblue" points="645.77,-158.41 643.2,-148.13 638.8,-157.76 645.77,-158.41"/>
</g>
<!-- Node14 -->
<g id="node14" class="node">
<title>Node14</title>
<g id="a_node14"><a xlink:href="quat_8h.html" target="_top" xlink:title=" ">
<polygon fill="white" stroke="black" points="713.5,-129 713.5,-148 808.5,-148 808.5,-129 713.5,-129"/>
<text text-anchor="middle" x="761" y="-136" font-family="Helvetica,sans-Serif" font-size="10.00">dolphin/mtx/quat.h</text>
</a>
</g>
</g>
<!-- Node12&#45;&gt;Node14 -->
<g id="edge18" class="edge">
<title>Node12&#45;&gt;Node14</title>
<path fill="none" stroke="midnightblue" d="M654.33,-195.87C675.1,-184.89 711.19,-165.82 735.57,-152.94"/>
<polygon fill="midnightblue" stroke="midnightblue" points="737.39,-155.93 744.6,-148.17 734.12,-149.75 737.39,-155.93"/>
</g>
<!-- Node15 -->
<g id="node15" class="node">
<title>Node15</title>
<g id="a_node15"><a xlink:href="vec_8h.html" target="_top" xlink:title=" ">
<polygon fill="white" stroke="black" points="755,-62 755,-81 847,-81 847,-62 755,-62"/>
<text text-anchor="middle" x="801" y="-69" font-family="Helvetica,sans-Serif" font-size="10.00">dolphin/mtx/vec.h</text>
</a>
</g>
</g>
<!-- Node12&#45;&gt;Node15 -->
<g id="edge22" class="edge">
<title>Node12&#45;&gt;Node15</title>
<path fill="none" stroke="midnightblue" d="M684.11,-197.87C731.63,-189.99 800.97,-175.18 817,-154 831.1,-135.37 820.95,-107.69 811.59,-89.86"/>
<polygon fill="midnightblue" stroke="midnightblue" points="814.6,-88.08 806.63,-81.1 808.51,-91.52 814.6,-88.08"/>
</g>
<!-- Node13&#45;&gt;Node3 -->
<g id="edge17" class="edge">
<title>Node13&#45;&gt;Node3</title>
<path fill="none" stroke="midnightblue" d="M648.9,-128.93C657.33,-112.95 672.15,-78.21 656,-56 635.96,-28.45 598.68,-17.42 567.78,-13.16"/>
<polygon fill="midnightblue" stroke="midnightblue" points="567.91,-9.65 557.57,-11.96 567.1,-16.61 567.91,-9.65"/>
</g>
<!-- Node14&#45;&gt;Node3 -->
<g id="edge21" class="edge">
<title>Node14&#45;&gt;Node3</title>
<path fill="none" stroke="midnightblue" d="M754.31,-128.96C740.88,-112.4 708.92,-75.81 674,-56 641.06,-37.32 599.76,-25.88 567.79,-19.21"/>
<polygon fill="midnightblue" stroke="midnightblue" points="568.25,-15.74 557.76,-17.21 566.88,-22.6 568.25,-15.74"/>
</g>
<!-- Node14&#45;&gt;Node15 -->
<g id="edge19" class="edge">
<title>Node14&#45;&gt;Node15</title>
<path fill="none" stroke="midnightblue" d="M766.39,-128.73C772.51,-118.79 782.64,-102.34 790.36,-89.79"/>
<polygon fill="midnightblue" stroke="midnightblue" points="793.43,-91.48 795.69,-81.13 787.47,-87.81 793.43,-91.48"/>
</g>
<!-- Node15&#45;&gt;Node3 -->
<g id="edge20" class="edge">
<title>Node15&#45;&gt;Node3</title>
<path fill="none" stroke="midnightblue" d="M764.72,-61.99C755.98,-59.98 746.67,-57.88 738,-56 679.78,-43.37 612.7,-29.86 567.86,-20.98"/>
<polygon fill="midnightblue" stroke="midnightblue" points="568.29,-17.49 557.8,-18.99 566.93,-24.36 568.29,-17.49"/>
</g>
<!-- Node16&#45;&gt;Node3 -->
<g id="edge30" class="edge">
<title>Node16&#45;&gt;Node3</title>
<path fill="none" stroke="midnightblue" d="M826.59,-257.5C846.38,-226.28 909.09,-116.61 856,-56 837.33,-34.68 657.92,-20.13 567.94,-14.11"/>
<polygon fill="midnightblue" stroke="midnightblue" points="567.89,-10.6 557.69,-13.44 567.43,-17.59 567.89,-10.6"/>
</g>
<!-- Node17&#45;&gt;Node3 -->
<g id="edge35" class="edge">
<title>Node17&#45;&gt;Node3</title>
<path fill="none" stroke="midnightblue" d="M953.11,-123.45C941.68,-104.55 918.58,-71.54 889,-56 834.37,-27.29 656.37,-16.42 567.89,-12.71"/>
<polygon fill="midnightblue" stroke="midnightblue" points="567.94,-9.21 557.81,-12.31 567.66,-16.21 567.94,-9.21"/>
</g>
<!-- Node17&#45;&gt;Node15 -->
<g id="edge34" class="edge">
<title>Node17&#45;&gt;Node15</title>
<path fill="none" stroke="midnightblue" d="M926.28,-123.4C897.96,-111.89 858.35,-95.8 831.29,-84.81"/>
<polygon fill="midnightblue" stroke="midnightblue" points="832.52,-81.53 821.94,-81.01 829.89,-88.01 832.52,-81.53"/>
</g>
<!-- Node18&#45;&gt;Node10 -->
<g id="edge42" class="edge">
<title>Node18&#45;&gt;Node10</title>
<path fill="none" stroke="midnightblue" d="M976.81,-198.37C890.69,-189.22 724.28,-171.2 583,-154 558.02,-150.96 529.9,-147.25 508.34,-144.34"/>
<polygon fill="midnightblue" stroke="midnightblue" points="508.7,-140.86 498.32,-142.98 507.76,-147.79 508.7,-140.86"/>
</g>
<!-- Node18&#45;&gt;Node15 -->
<g id="edge41" class="edge">
<title>Node18&#45;&gt;Node15</title>
<path fill="none" stroke="midnightblue" d="M1038.31,-190.5C1041.66,-172.56 1044.27,-141.6 1028,-123 1005.92,-97.76 916.89,-84.01 857.11,-77.47"/>
<polygon fill="midnightblue" stroke="midnightblue" points="857.36,-73.98 847.05,-76.4 856.62,-80.94 857.36,-73.98"/>
</g>
<!-- Node19 -->
<g id="node19" class="node">
<title>Node19</title>
<g id="a_node19"><a xlink:href="math_8h.html" target="_top" xlink:title=" ">
<polygon fill="white" stroke="black" points="1075,-129 1075,-148 1157,-148 1157,-129 1075,-129"/>
<text text-anchor="middle" x="1116" y="-136" font-family="Helvetica,sans-Serif" font-size="10.00">MSL_C/math.h</text>
</a>
</g>
</g>
<!-- Node18&#45;&gt;Node19 -->
<g id="edge37" class="edge">
<title>Node18&#45;&gt;Node19</title>
<path fill="none" stroke="midnightblue" d="M1052.58,-190.4C1065.71,-179.86 1083.63,-165.48 1097.07,-154.69"/>
<polygon fill="midnightblue" stroke="midnightblue" points="1099.56,-157.18 1105.17,-148.19 1095.18,-151.72 1099.56,-157.18"/>
</g>
<!-- Node19&#45;&gt;Node3 -->
<g id="edge40" class="edge">
<title>Node19&#45;&gt;Node3</title>
<path fill="none" stroke="midnightblue" d="M1099.95,-128.87C1067.42,-111.82 990.95,-73.91 922,-56 797.58,-23.68 645.75,-14.57 568.1,-12"/>
<polygon fill="midnightblue" stroke="midnightblue" points="567.75,-8.49 557.64,-11.68 567.53,-15.49 567.75,-8.49"/>
</g>
<!-- Node20 -->
<g id="node20" class="node">
<title>Node20</title>
<g id="a_node20"><a xlink:href="float_8h.html" target="_top" xlink:title=" ">
<polygon fill="white" stroke="black" points="1031,-56.5 1031,-86.5 1167,-86.5 1167,-56.5 1031,-56.5"/>
<text text-anchor="start" x="1039" y="-74.5" font-family="Helvetica,sans-Serif" font-size="10.00">MSL_C/MSL_Common/Src</text>
<text text-anchor="middle" x="1099" y="-63.5" font-family="Helvetica,sans-Serif" font-size="10.00">/float.h</text>
</a>
</g>
</g>
<!-- Node19&#45;&gt;Node20 -->
<g id="edge38" class="edge">
<title>Node19&#45;&gt;Node20</title>
<path fill="none" stroke="midnightblue" d="M1113.71,-128.73C1111.54,-120.46 1108.2,-107.66 1105.24,-96.37"/>
<polygon fill="midnightblue" stroke="midnightblue" points="1108.6,-95.38 1102.68,-86.59 1101.83,-97.15 1108.6,-95.38"/>
</g>
<!-- Node20&#45;&gt;Node3 -->
<g id="edge39" class="edge">
<title>Node20&#45;&gt;Node3</title>
<path fill="none" stroke="midnightblue" d="M1030.74,-59.24C1022.75,-58.07 1014.7,-56.96 1007,-56 847.17,-36.09 656.99,-21.1 567.86,-14.58"/>
<polygon fill="midnightblue" stroke="midnightblue" points="567.98,-11.08 557.75,-13.85 567.47,-18.06 567.98,-11.08"/>
</g>
</g>
</svg>
