<?xml version="1.0" encoding="UTF-8" standalone="no"?>
<!DOCTYPE svg PUBLIC "-//W3C//DTD SVG 1.1//EN"
 "http://www.w3.org/Graphics/SVG/1.1/DTD/svg11.dtd">
<!-- Generated by graphviz version 3.0.0 (20220413.0242)
 -->
<!-- Title: src/d/d_kyeff2.cpp Pages: 1 -->
<!--zoomable 531 -->
<svg id="main" version="1.1" xmlns="http://www.w3.org/2000/svg" xmlns:xlink="http://www.w3.org/1999/xlink" xml:space="preserve" onload="init(evt)">
<style type="text/css"><![CDATA[
.edge:hover path { stroke: red; }
.edge:hover polygon { stroke: red; fill: red; }
]]></style>
<script type="text/javascript"><![CDATA[
var edges = document.getElementsByTagName('g');
if (edges && edges.length) {
  for (var i=0;i<edges.length;i++) {
    if (edges[i].id.substr(0,4)=='edge') {
      edges[i].setAttribute('class','edge');
    }
  }
}
]]></script>
        <defs>
                <circle id="rim" cx="0" cy="0" r="7"/>
                <circle id="rim2" cx="0" cy="0" r="3.5"/>
                <g id="zoomPlus">
                        <use xlink:href="#rim" fill="#404040">
                                <set attributeName="fill" to="#808080" begin="zoomplus.mouseover" end="zoomplus.mouseout"/>
                        </use>
                        <path d="M-4,0h8M0,-4v8" fill="none" stroke="white" stroke-width="1.5" pointer-events="none"/>
                </g>
                <g id="zoomMin">
                        <use xlink:href="#rim" fill="#404040">
                                <set attributeName="fill" to="#808080" begin="zoomminus.mouseover" end="zoomminus.mouseout"/>
                        </use>
                        <path d="M-4,0h8" fill="none" stroke="white" stroke-width="1.5" pointer-events="none"/>
                </g>
                <g id="dirArrow">
                        <path fill="none" stroke="white" stroke-width="1.5" d="M0,-3.0v7 M-2.5,-0.5L0,-3.0L2.5,-0.5"/>
                </g>
               <g id="resetDef">
                       <use xlink:href="#rim2" fill="#404040">
                               <set attributeName="fill" to="#808080" begin="reset.mouseover" end="reset.mouseout"/>
                       </use>
               </g>
        </defs>

<script type="text/javascript">
var viewWidth = 1227;
var viewHeight = 531;
var sectionId = 'dynsection-0';
</script>
<script xlink:href="svgpan.js"/>
<svg id="graph" class="graph">
<g id="viewport">
<title>src/d/d_kyeff2.cpp</title>
<polygon fill="white" stroke="transparent" points="-4,4 -4,-527 1222.52,-527 1222.52,4 -4,4"/>
<!-- Node1 -->
<g id="node1" class="node">
<title>Node1</title>
<g id="a_node1"><a xlink:title=" ">
<polygon fill="#bfbfbf" stroke="black" points="161.02,-503.5 161.02,-522.5 256.02,-522.5 256.02,-503.5 161.02,-503.5"/>
<text text-anchor="middle" x="208.52" y="-510.5" font-family="Helvetica,sans-Serif" font-size="10.00">src/d/d_kyeff2.cpp</text>
</a>
</g>
</g>
<!-- Node2 -->
<g id="node2" class="node">
<title>Node2</title>
<g id="a_node2"><a xlink:href="d__kyeff2_8h.html" target="_top" xlink:title=" ">
<polygon fill="white" stroke="black" points="39.52,-129 39.52,-148 107.52,-148 107.52,-129 39.52,-129"/>
<text text-anchor="middle" x="73.52" y="-136" font-family="Helvetica,sans-Serif" font-size="10.00">d/d_kyeff2.h</text>
</a>
</g>
</g>
<!-- Node1&#45;&gt;Node2 -->
<g id="edge1" class="edge">
<title>Node1&#45;&gt;Node2</title>
<path fill="none" stroke="midnightblue" d="M190.19,-503.46C158.66,-487.37 97.52,-449.34 97.52,-396.5 97.52,-396.5 97.52,-396.5 97.52,-266 97.52,-227.04 86.39,-182.49 79.29,-158.02"/>
<polygon fill="midnightblue" stroke="midnightblue" points="82.6,-156.86 76.37,-148.29 75.89,-158.87 82.6,-156.86"/>
</g>
<!-- Node3 -->
<g id="node3" class="node">
<title>Node3</title>
<g id="a_node3"><a xlink:href="types_8h.html" target="_top" xlink:title=" ">
<polygon fill="white" stroke="black" points="499.02,-0.5 499.02,-19.5 580.02,-19.5 580.02,-0.5 499.02,-0.5"/>
<text text-anchor="middle" x="539.52" y="-7.5" font-family="Helvetica,sans-Serif" font-size="10.00">dolphin/types.h</text>
</a>
</g>
</g>
<!-- Node1&#45;&gt;Node3 -->
<g id="edge47" class="edge">
<title>Node1&#45;&gt;Node3</title>
<path fill="none" stroke="midnightblue" d="M201.91,-503.26C188.53,-484.68 159.52,-439.41 159.52,-396.5 159.52,-396.5 159.52,-396.5 159.52,-137.5 159.52,-95.69 171.8,-79.3 206.52,-56 251.64,-25.72 407.42,-15.68 488.92,-12.46"/>
<polygon fill="midnightblue" stroke="midnightblue" points="489.09,-15.95 498.95,-12.08 488.83,-8.96 489.09,-15.95"/>
</g>
<!-- Node5 -->
<g id="node5" class="node">
<title>Node5</title>
<g id="a_node5"><a xlink:href="d__kankyo__wether_8h.html" target="_top" xlink:title=" ">
<polygon fill="white" stroke="black" points="320.52,-447.5 320.52,-466.5 462.52,-466.5 462.52,-447.5 320.52,-447.5"/>
<text text-anchor="middle" x="391.52" y="-454.5" font-family="Helvetica,sans-Serif" font-size="10.00">d/kankyo/d_kankyo_wether.h</text>
</a>
</g>
</g>
<!-- Node1&#45;&gt;Node5 -->
<g id="edge5" class="edge">
<title>Node1&#45;&gt;Node5</title>
<path fill="none" stroke="midnightblue" d="M237.52,-503.44C268.7,-494.24 318.45,-479.56 352.93,-469.39"/>
<polygon fill="midnightblue" stroke="midnightblue" points="354.06,-472.7 362.66,-466.52 352.08,-465.99 354.06,-472.7"/>
</g>
<!-- Node22 -->
<g id="node22" class="node">
<title>Node22</title>
<g id="a_node22"><a xlink:href="dol2asm_8h.html" target="_top" xlink:title=" ">
<polygon fill="white" stroke="black" points="481.02,-447.5 481.02,-466.5 542.02,-466.5 542.02,-447.5 481.02,-447.5"/>
<text text-anchor="middle" x="511.52" y="-454.5" font-family="Helvetica,sans-Serif" font-size="10.00">dol2asm.h</text>
</a>
</g>
</g>
<!-- Node1&#45;&gt;Node22 -->
<g id="edge46" class="edge">
<title>Node1&#45;&gt;Node22</title>
<path fill="none" stroke="midnightblue" d="M256.17,-504.61C306.9,-496.57 389.75,-482.96 471.07,-467"/>
<polygon fill="midnightblue" stroke="midnightblue" points="471.85,-470.41 480.98,-465.04 470.49,-463.55 471.85,-470.41"/>
</g>
<!-- Node2&#45;&gt;Node3 -->
<g id="edge2" class="edge">
<title>Node2&#45;&gt;Node3</title>
<path fill="none" stroke="midnightblue" d="M57.34,-128.91C30.77,-113.76 -16.91,-81.49 6.52,-56 38.76,-20.92 361.86,-13.16 488.75,-11.47"/>
<polygon fill="midnightblue" stroke="midnightblue" points="489.02,-14.97 498.97,-11.34 488.93,-7.97 489.02,-14.97"/>
</g>
<!-- Node4 -->
<g id="node4" class="node">
<title>Node4</title>
<g id="a_node4"><a xlink:href="c__phase_8h.html" target="_top" xlink:title=" ">
<polygon fill="white" stroke="black" points="15.52,-56.5 15.52,-86.5 131.52,-86.5 131.52,-56.5 15.52,-56.5"/>
<text text-anchor="start" x="23.52" y="-74.5" font-family="Helvetica,sans-Serif" font-size="10.00">SSystem/SComponent</text>
<text text-anchor="middle" x="73.52" y="-63.5" font-family="Helvetica,sans-Serif" font-size="10.00">/c_phase.h</text>
</a>
</g>
</g>
<!-- Node2&#45;&gt;Node4 -->
<g id="edge3" class="edge">
<title>Node2&#45;&gt;Node4</title>
<path fill="none" stroke="midnightblue" d="M73.52,-128.73C73.52,-120.54 73.52,-107.92 73.52,-96.71"/>
<polygon fill="midnightblue" stroke="midnightblue" points="77.02,-96.59 73.52,-86.59 70.02,-96.59 77.02,-96.59"/>
</g>
<!-- Node4&#45;&gt;Node3 -->
<g id="edge4" class="edge">
<title>Node4&#45;&gt;Node3</title>
<path fill="none" stroke="midnightblue" d="M131.6,-58.36C136.3,-57.51 140.98,-56.71 145.52,-56 268.12,-36.69 413.43,-22.26 488.67,-15.41"/>
<polygon fill="midnightblue" stroke="midnightblue" points="489.17,-18.88 498.81,-14.5 488.54,-11.91 489.17,-18.88"/>
</g>
<!-- Node5&#45;&gt;Node3 -->
<g id="edge45" class="edge">
<title>Node5&#45;&gt;Node3</title>
<path fill="none" stroke="midnightblue" d="M346.52,-447.39C289.21,-433.52 197.52,-400.27 197.52,-329.5 197.52,-329.5 197.52,-329.5 197.52,-137.5 197.52,-95.91 209.28,-79.62 243.52,-56 282.34,-29.22 414.85,-17.79 488.73,-13.41"/>
<polygon fill="midnightblue" stroke="midnightblue" points="488.96,-16.9 498.74,-12.84 488.56,-9.92 488.96,-16.9"/>
</g>
<!-- Node6 -->
<g id="node6" class="node">
<title>Node6</title>
<g id="a_node6"><a xlink:href="J3DPacket_8h.html" target="_top" xlink:title=" ">
<polygon fill="white" stroke="black" points="462.52,-380.5 462.52,-410.5 586.52,-410.5 586.52,-380.5 462.52,-380.5"/>
<text text-anchor="start" x="470.52" y="-398.5" font-family="Helvetica,sans-Serif" font-size="10.00">JSystem/J3DGraphBase</text>
<text text-anchor="middle" x="524.52" y="-387.5" font-family="Helvetica,sans-Serif" font-size="10.00">/J3DPacket.h</text>
</a>
</g>
</g>
<!-- Node5&#45;&gt;Node6 -->
<g id="edge6" class="edge">
<title>Node5&#45;&gt;Node6</title>
<path fill="none" stroke="midnightblue" d="M410.57,-447.48C429.6,-438.96 459.43,-425.62 483.8,-414.72"/>
<polygon fill="midnightblue" stroke="midnightblue" points="485.47,-417.8 493.17,-410.52 482.62,-411.41 485.47,-417.8"/>
</g>
<!-- Node18 -->
<g id="node18" class="node">
<title>Node18</title>
<g id="a_node18"><a xlink:href="c__sxyz_8h.html" target="_top" xlink:title=" ">
<polygon fill="white" stroke="black" points="954.52,-123.5 954.52,-153.5 1070.52,-153.5 1070.52,-123.5 954.52,-123.5"/>
<text text-anchor="start" x="962.52" y="-141.5" font-family="Helvetica,sans-Serif" font-size="10.00">SSystem/SComponent</text>
<text text-anchor="middle" x="1012.52" y="-130.5" font-family="Helvetica,sans-Serif" font-size="10.00">/c_sxyz.h</text>
</a>
</g>
</g>
<!-- Node5&#45;&gt;Node18 -->
<g id="edge35" class="edge">
<title>Node5&#45;&gt;Node18</title>
<path fill="none" stroke="midnightblue" d="M445.02,-447.49C591.56,-423.82 988.52,-357.15 988.52,-329.5 988.52,-329.5 988.52,-329.5 988.52,-266 988.52,-229.82 998.11,-188.81 1005.17,-163.55"/>
<polygon fill="midnightblue" stroke="midnightblue" points="1008.59,-164.33 1008,-153.75 1001.86,-162.39 1008.59,-164.33"/>
</g>
<!-- Node19 -->
<g id="node19" class="node">
<title>Node19</title>
<g id="a_node19"><a xlink:href="c__xyz_8h.html" target="_top" xlink:title=" ">
<polygon fill="white" stroke="black" points="1028.52,-190.5 1028.52,-220.5 1144.52,-220.5 1144.52,-190.5 1028.52,-190.5"/>
<text text-anchor="start" x="1036.52" y="-208.5" font-family="Helvetica,sans-Serif" font-size="10.00">SSystem/SComponent</text>
<text text-anchor="middle" x="1086.52" y="-197.5" font-family="Helvetica,sans-Serif" font-size="10.00">/c_xyz.h</text>
</a>
</g>
</g>
<!-- Node5&#45;&gt;Node19 -->
<g id="edge38" class="edge">
<title>Node5&#45;&gt;Node19</title>
<path fill="none" stroke="midnightblue" d="M462.6,-447.84C465.61,-447.54 468.59,-447.26 471.52,-447 530.42,-441.69 954.54,-445.57 1002.52,-411 1062.09,-368.08 1079.53,-275.12 1084.55,-230.87"/>
<polygon fill="midnightblue" stroke="midnightblue" points="1088.05,-231.03 1085.57,-220.73 1081.09,-230.32 1088.05,-231.03"/>
</g>
<!-- Node6&#45;&gt;Node3 -->
<g id="edge34" class="edge">
<title>Node6&#45;&gt;Node3</title>
<path fill="none" stroke="midnightblue" d="M462.17,-393.68C377.21,-388.89 235.52,-366.17 235.52,-268 235.52,-268 235.52,-268 235.52,-137.5 235.52,-96.75 244.65,-80.09 277.52,-56 310.33,-31.95 422.23,-19.68 488.71,-14.37"/>
<polygon fill="midnightblue" stroke="midnightblue" points="489.27,-17.84 498.97,-13.58 488.73,-10.86 489.27,-17.84"/>
</g>
<!-- Node7 -->
<g id="node7" class="node">
<title>Node7</title>
<g id="a_node7"><a xlink:href="J3DSys_8h.html" target="_top" xlink:title=" ">
<polygon fill="white" stroke="black" points="462.52,-313.5 462.52,-343.5 586.52,-343.5 586.52,-313.5 462.52,-313.5"/>
<text text-anchor="start" x="470.52" y="-331.5" font-family="Helvetica,sans-Serif" font-size="10.00">JSystem/J3DGraphBase</text>
<text text-anchor="middle" x="524.52" y="-320.5" font-family="Helvetica,sans-Serif" font-size="10.00">/J3DSys.h</text>
</a>
</g>
</g>
<!-- Node6&#45;&gt;Node7 -->
<g id="edge7" class="edge">
<title>Node6&#45;&gt;Node7</title>
<path fill="none" stroke="midnightblue" d="M524.52,-380.4C524.52,-372.64 524.52,-362.81 524.52,-353.86"/>
<polygon fill="midnightblue" stroke="midnightblue" points="528.02,-353.58 524.52,-343.58 521.02,-353.58 528.02,-353.58"/>
</g>
<!-- Node13 -->
<g id="node13" class="node">
<title>Node13</title>
<g id="a_node13"><a xlink:href="mtx_8h.html" target="_top" xlink:title=" ">
<polygon fill="white" stroke="black" points="718.52,-196 718.52,-215 810.52,-215 810.52,-196 718.52,-196"/>
<text text-anchor="middle" x="764.52" y="-203" font-family="Helvetica,sans-Serif" font-size="10.00">dolphin/mtx/mtx.h</text>
</a>
</g>
</g>
<!-- Node6&#45;&gt;Node13 -->
<g id="edge33" class="edge">
<title>Node6&#45;&gt;Node13</title>
<path fill="none" stroke="midnightblue" d="M544.97,-380.48C559.29,-370.53 578.79,-356.73 595.52,-344 651.92,-301.07 716.3,-247.32 746.76,-221.59"/>
<polygon fill="midnightblue" stroke="midnightblue" points="749.04,-224.24 754.42,-215.11 744.52,-218.9 749.04,-224.24"/>
</g>
<!-- Node17 -->
<g id="node17" class="node">
<title>Node17</title>
<g id="a_node17"><a xlink:href="GDBase_8h.html" target="_top" xlink:title=" ">
<polygon fill="white" stroke="black" points="839.52,-257.5 839.52,-276.5 947.52,-276.5 947.52,-257.5 839.52,-257.5"/>
<text text-anchor="middle" x="893.52" y="-264.5" font-family="Helvetica,sans-Serif" font-size="10.00">dolphin/gd/GDBase.h</text>
</a>
</g>
</g>
<!-- Node6&#45;&gt;Node17 -->
<g id="edge31" class="edge">
<title>Node6&#45;&gt;Node17</title>
<path fill="none" stroke="midnightblue" d="M586.81,-382.01C627.19,-373.16 680.62,-360.03 726.52,-344 778.3,-325.91 835.97,-297.78 868.19,-281.29"/>
<polygon fill="midnightblue" stroke="midnightblue" points="870.05,-284.27 877.33,-276.57 866.84,-278.04 870.05,-284.27"/>
</g>
<!-- Node7&#45;&gt;Node3 -->
<g id="edge30" class="edge">
<title>Node7&#45;&gt;Node3</title>
<path fill="none" stroke="midnightblue" d="M462.47,-323.98C388.14,-316.03 273.52,-290.19 273.52,-206.5 273.52,-206.5 273.52,-206.5 273.52,-137.5 273.52,-98.08 277.84,-80.75 308.52,-56 335.59,-34.16 428.85,-21.46 488.27,-15.41"/>
<polygon fill="midnightblue" stroke="midnightblue" points="488.97,-18.86 498.58,-14.39 488.29,-11.89 488.97,-18.86"/>
</g>
<!-- Node8 -->
<g id="node8" class="node">
<title>Node8</title>
<g id="a_node8"><a xlink:href="GX_8h.html" target="_top" xlink:title=" ">
<polygon fill="white" stroke="black" points="482.02,-257.5 482.02,-276.5 567.02,-276.5 567.02,-257.5 482.02,-257.5"/>
<text text-anchor="middle" x="524.52" y="-264.5" font-family="Helvetica,sans-Serif" font-size="10.00">dolphin/gx/GX.h</text>
</a>
</g>
</g>
<!-- Node7&#45;&gt;Node8 -->
<g id="edge8" class="edge">
<title>Node7&#45;&gt;Node8</title>
<path fill="none" stroke="midnightblue" d="M524.52,-313.4C524.52,-305.47 524.52,-295.46 524.52,-286.86"/>
<polygon fill="midnightblue" stroke="midnightblue" points="528.02,-286.66 524.52,-276.66 521.02,-286.66 528.02,-286.66"/>
</g>
<!-- Node7&#45;&gt;Node13 -->
<g id="edge29" class="edge">
<title>Node7&#45;&gt;Node13</title>
<path fill="none" stroke="midnightblue" d="M552.52,-313.38C599.39,-289.75 693.05,-242.53 738.54,-219.6"/>
<polygon fill="midnightblue" stroke="midnightblue" points="740.12,-222.72 747.48,-215.09 736.97,-216.47 740.12,-222.72"/>
</g>
<!-- Node8&#45;&gt;Node3 -->
<g id="edge27" class="edge">
<title>Node8&#45;&gt;Node3</title>
<path fill="none" stroke="midnightblue" d="M481.74,-265.91C444.53,-263.44 391.79,-253.8 360.52,-221 309.08,-167.06 283.69,-113.99 330.52,-56 350.06,-31.81 433.57,-20 488.93,-14.74"/>
<polygon fill="midnightblue" stroke="midnightblue" points="489.27,-18.22 498.91,-13.83 488.64,-11.25 489.27,-18.22"/>
</g>
<!-- Node9 -->
<g id="node9" class="node">
<title>Node9</title>
<g id="a_node9"><a xlink:href="GXDisplayList_8h.html" target="_top" xlink:title=" ">
<polygon fill="white" stroke="black" points="340.02,-62 340.02,-81 473.02,-81 473.02,-62 340.02,-62"/>
<text text-anchor="middle" x="406.52" y="-69" font-family="Helvetica,sans-Serif" font-size="10.00">dolphin/gx/GXDisplayList.h</text>
</a>
</g>
</g>
<!-- Node8&#45;&gt;Node9 -->
<g id="edge9" class="edge">
<title>Node8&#45;&gt;Node9</title>
<path fill="none" stroke="midnightblue" d="M481.81,-266.01C447,-263.46 399.76,-253.65 375.52,-221 345.91,-181.12 376.75,-119.41 395.04,-89.67"/>
<polygon fill="midnightblue" stroke="midnightblue" points="398.01,-91.52 400.45,-81.21 392.12,-87.75 398.01,-91.52"/>
</g>
<!-- Node10 -->
<g id="node10" class="node">
<title>Node10</title>
<g id="a_node10"><a xlink:href="GXStruct_8h.html" target="_top" xlink:title=" ">
<polygon fill="white" stroke="black" points="385.02,-196 385.02,-215 496.02,-215 496.02,-196 385.02,-196"/>
<text text-anchor="middle" x="440.52" y="-203" font-family="Helvetica,sans-Serif" font-size="10.00">dolphin/gx/GXStruct.h</text>
</a>
</g>
</g>
<!-- Node8&#45;&gt;Node10 -->
<g id="edge11" class="edge">
<title>Node8&#45;&gt;Node10</title>
<path fill="none" stroke="midnightblue" d="M512.48,-257.48C499.01,-247.93 476.95,-232.31 460.8,-220.87"/>
<polygon fill="midnightblue" stroke="midnightblue" points="462.71,-217.93 452.53,-215.01 458.67,-223.65 462.71,-217.93"/>
</g>
<!-- Node11 -->
<g id="node11" class="node">
<title>Node11</title>
<g id="a_node11"><a xlink:href="global_8h.html" target="_top" xlink:title=" ">
<polygon fill="white" stroke="black" points="499.52,-129 499.52,-148 549.52,-148 549.52,-129 499.52,-129"/>
<text text-anchor="middle" x="524.52" y="-136" font-family="Helvetica,sans-Serif" font-size="10.00">global.h</text>
</a>
</g>
</g>
<!-- Node8&#45;&gt;Node11 -->
<g id="edge28" class="edge">
<title>Node8&#45;&gt;Node11</title>
<path fill="none" stroke="midnightblue" d="M524.52,-257.31C524.52,-236.99 524.52,-186.05 524.52,-158.28"/>
<polygon fill="midnightblue" stroke="midnightblue" points="528.02,-158.26 524.52,-148.26 521.02,-158.26 528.02,-158.26"/>
</g>
<!-- Node12 -->
<g id="node12" class="node">
<title>Node12</title>
<g id="a_node12"><a xlink:href="GXEnum_8h.html" target="_top" xlink:title=" ">
<polygon fill="white" stroke="black" points="552.52,-196 552.52,-215 662.52,-215 662.52,-196 552.52,-196"/>
<text text-anchor="middle" x="607.52" y="-203" font-family="Helvetica,sans-Serif" font-size="10.00">dolphin/gx/GXEnum.h</text>
</a>
</g>
</g>
<!-- Node8&#45;&gt;Node12 -->
<g id="edge15" class="edge">
<title>Node8&#45;&gt;Node12</title>
<path fill="none" stroke="midnightblue" d="M536.41,-257.48C549.72,-247.93 571.52,-232.31 587.48,-220.87"/>
<polygon fill="midnightblue" stroke="midnightblue" points="589.56,-223.68 595.65,-215.01 585.48,-217.99 589.56,-223.68"/>
</g>
<!-- Node8&#45;&gt;Node13 -->
<g id="edge17" class="edge">
<title>Node8&#45;&gt;Node13</title>
<path fill="none" stroke="midnightblue" d="M558.9,-257.48C601.41,-246.94 673.82,-228.99 720.38,-217.44"/>
<polygon fill="midnightblue" stroke="midnightblue" points="721.33,-220.81 730.2,-215.01 719.65,-214.02 721.33,-220.81"/>
</g>
<!-- Node14 -->
<g id="node14" class="node">
<title>Node14</title>
<g id="a_node14"><a xlink:href="mtx44_8h.html" target="_top" xlink:title=" ">
<polygon fill="white" stroke="black" points="644.02,-129 644.02,-148 747.02,-148 747.02,-129 644.02,-129"/>
<text text-anchor="middle" x="695.52" y="-136" font-family="Helvetica,sans-Serif" font-size="10.00">dolphin/mtx/mtx44.h</text>
</a>
</g>
</g>
<!-- Node8&#45;&gt;Node14 -->
<g id="edge26" class="edge">
<title>Node8&#45;&gt;Node14</title>
<path fill="none" stroke="midnightblue" d="M567.1,-263.6C599.85,-259.52 644.02,-248.8 671.52,-221 688.1,-204.24 693.33,-176.64 694.92,-158.27"/>
<polygon fill="midnightblue" stroke="midnightblue" points="698.42,-158.39 695.51,-148.2 691.43,-157.98 698.42,-158.39"/>
</g>
<!-- Node9&#45;&gt;Node3 -->
<g id="edge10" class="edge">
<title>Node9&#45;&gt;Node3</title>
<path fill="none" stroke="midnightblue" d="M425.57,-61.98C447.99,-51.95 485.42,-35.2 511.23,-23.65"/>
<polygon fill="midnightblue" stroke="midnightblue" points="512.8,-26.79 520.5,-19.51 509.94,-20.4 512.8,-26.79"/>
</g>
<!-- Node10&#45;&gt;Node3 -->
<g id="edge12" class="edge">
<title>Node10&#45;&gt;Node3</title>
<path fill="none" stroke="midnightblue" d="M444.9,-195.94C459.94,-166.54 509.68,-69.32 530.37,-28.89"/>
<polygon fill="midnightblue" stroke="midnightblue" points="533.52,-30.4 534.96,-19.91 527.29,-27.22 533.52,-30.4"/>
</g>
<!-- Node10&#45;&gt;Node11 -->
<g id="edge13" class="edge">
<title>Node10&#45;&gt;Node11</title>
<path fill="none" stroke="midnightblue" d="M451.85,-195.73C465.58,-185.11 488.92,-167.05 505.44,-154.26"/>
<polygon fill="midnightblue" stroke="midnightblue" points="507.6,-157.02 513.37,-148.13 503.32,-151.48 507.6,-157.02"/>
</g>
<!-- Node11&#45;&gt;Node3 -->
<g id="edge14" class="edge">
<title>Node11&#45;&gt;Node3</title>
<path fill="none" stroke="midnightblue" d="M525.55,-128.81C527.96,-108.49 534,-57.55 537.29,-29.78"/>
<polygon fill="midnightblue" stroke="midnightblue" points="540.78,-30.1 538.48,-19.76 533.83,-29.27 540.78,-30.1"/>
</g>
<!-- Node12&#45;&gt;Node3 -->
<g id="edge16" class="edge">
<title>Node12&#45;&gt;Node3</title>
<path fill="none" stroke="midnightblue" d="M604.51,-195.94C594.22,-166.66 560.3,-70.15 545.99,-29.41"/>
<polygon fill="midnightblue" stroke="midnightblue" points="549.27,-28.18 542.65,-19.91 542.66,-30.5 549.27,-28.18"/>
</g>
<!-- Node13&#45;&gt;Node3 -->
<g id="edge25" class="edge">
<title>Node13&#45;&gt;Node3</title>
<path fill="none" stroke="midnightblue" d="M723.76,-195.94C696.19,-188.52 660.25,-175.5 634.52,-154 595.33,-121.26 603.57,-98 574.52,-56 567.83,-46.33 559.82,-35.95 553.15,-27.6"/>
<polygon fill="midnightblue" stroke="midnightblue" points="555.8,-25.32 546.79,-19.74 550.36,-29.72 555.8,-25.32"/>
</g>
<!-- Node13&#45;&gt;Node14 -->
<g id="edge18" class="edge">
<title>Node13&#45;&gt;Node14</title>
<path fill="none" stroke="midnightblue" d="M755.21,-195.73C744.25,-185.4 725.81,-168.04 712.32,-155.33"/>
<polygon fill="midnightblue" stroke="midnightblue" points="714.36,-152.44 704.68,-148.13 709.56,-157.53 714.36,-152.44"/>
</g>
<!-- Node15 -->
<g id="node15" class="node">
<title>Node15</title>
<g id="a_node15"><a xlink:href="quat_8h.html" target="_top" xlink:title=" ">
<polygon fill="white" stroke="black" points="765.02,-129 765.02,-148 860.02,-148 860.02,-129 765.02,-129"/>
<text text-anchor="middle" x="812.52" y="-136" font-family="Helvetica,sans-Serif" font-size="10.00">dolphin/mtx/quat.h</text>
</a>
</g>
</g>
<!-- Node13&#45;&gt;Node15 -->
<g id="edge20" class="edge">
<title>Node13&#45;&gt;Node15</title>
<path fill="none" stroke="midnightblue" d="M770.99,-195.73C778.4,-185.7 790.72,-169.01 800.02,-156.42"/>
<polygon fill="midnightblue" stroke="midnightblue" points="803.02,-158.25 806.15,-148.13 797.39,-154.09 803.02,-158.25"/>
</g>
<!-- Node16 -->
<g id="node16" class="node">
<title>Node16</title>
<g id="a_node16"><a xlink:href="vec_8h.html" target="_top" xlink:title=" ">
<polygon fill="white" stroke="black" points="806.52,-62 806.52,-81 898.52,-81 898.52,-62 806.52,-62"/>
<text text-anchor="middle" x="852.52" y="-69" font-family="Helvetica,sans-Serif" font-size="10.00">dolphin/mtx/vec.h</text>
</a>
</g>
</g>
<!-- Node13&#45;&gt;Node16 -->
<g id="edge24" class="edge">
<title>Node13&#45;&gt;Node16</title>
<path fill="none" stroke="midnightblue" d="M804.97,-196C827.86,-188.89 854.62,-176.2 868.52,-154 880.74,-134.49 871.49,-107.61 862.8,-90.15"/>
<polygon fill="midnightblue" stroke="midnightblue" points="865.74,-88.22 857.92,-81.08 859.58,-91.54 865.74,-88.22"/>
</g>
<!-- Node14&#45;&gt;Node3 -->
<g id="edge19" class="edge">
<title>Node14&#45;&gt;Node3</title>
<path fill="none" stroke="midnightblue" d="M690.32,-128.87C680.27,-112.79 656.77,-77.9 629.52,-56 612.51,-42.34 590.68,-31.3 572.78,-23.57"/>
<polygon fill="midnightblue" stroke="midnightblue" points="573.87,-20.23 563.3,-19.62 571.18,-26.7 573.87,-20.23"/>
</g>
<!-- Node15&#45;&gt;Node3 -->
<g id="edge23" class="edge">
<title>Node15&#45;&gt;Node3</title>
<path fill="none" stroke="midnightblue" d="M798.07,-128.98C771.29,-113.38 711.91,-79.65 659.52,-56 631.54,-43.37 598.85,-31.28 574.67,-22.82"/>
<polygon fill="midnightblue" stroke="midnightblue" points="575.79,-19.5 565.19,-19.53 573.5,-26.11 575.79,-19.5"/>
</g>
<!-- Node15&#45;&gt;Node16 -->
<g id="edge21" class="edge">
<title>Node15&#45;&gt;Node16</title>
<path fill="none" stroke="midnightblue" d="M817.91,-128.73C824.03,-118.79 834.16,-102.34 841.88,-89.79"/>
<polygon fill="midnightblue" stroke="midnightblue" points="844.95,-91.48 847.21,-81.13 838.99,-87.81 844.95,-91.48"/>
</g>
<!-- Node16&#45;&gt;Node3 -->
<g id="edge22" class="edge">
<title>Node16&#45;&gt;Node3</title>
<path fill="none" stroke="midnightblue" d="M807.67,-61.98C750.15,-51.04 650.63,-32.12 590.35,-20.66"/>
<polygon fill="midnightblue" stroke="midnightblue" points="590.77,-17.18 580.3,-18.75 589.47,-24.06 590.77,-17.18"/>
</g>
<!-- Node17&#45;&gt;Node3 -->
<g id="edge32" class="edge">
<title>Node17&#45;&gt;Node3</title>
<path fill="none" stroke="midnightblue" d="M897.84,-257.44C913.04,-225.99 960.31,-115.65 907.52,-56 886.83,-32.63 686.3,-18.84 590.28,-13.53"/>
<polygon fill="midnightblue" stroke="midnightblue" points="590.38,-10.03 580.21,-12.99 590,-17.02 590.38,-10.03"/>
</g>
<!-- Node18&#45;&gt;Node3 -->
<g id="edge37" class="edge">
<title>Node18&#45;&gt;Node3</title>
<path fill="none" stroke="midnightblue" d="M1004.65,-123.41C993.24,-104.48 970.17,-71.42 940.52,-56 880.68,-24.89 684.03,-15.12 590.21,-12.19"/>
<polygon fill="midnightblue" stroke="midnightblue" points="590.2,-8.69 580.1,-11.89 589.99,-15.68 590.2,-8.69"/>
</g>
<!-- Node18&#45;&gt;Node16 -->
<g id="edge36" class="edge">
<title>Node18&#45;&gt;Node16</title>
<path fill="none" stroke="midnightblue" d="M977.8,-123.4C949.48,-111.89 909.87,-95.8 882.81,-84.81"/>
<polygon fill="midnightblue" stroke="midnightblue" points="884.04,-81.53 873.46,-81.01 881.41,-88.01 884.04,-81.53"/>
</g>
<!-- Node19&#45;&gt;Node11 -->
<g id="edge44" class="edge">
<title>Node19&#45;&gt;Node11</title>
<path fill="none" stroke="midnightblue" d="M1028.32,-198.37C942.21,-189.22 775.8,-171.2 634.52,-154 609.54,-150.96 581.41,-147.25 559.85,-144.34"/>
<polygon fill="midnightblue" stroke="midnightblue" points="560.22,-140.86 549.84,-142.98 559.28,-147.79 560.22,-140.86"/>
</g>
<!-- Node19&#45;&gt;Node16 -->
<g id="edge43" class="edge">
<title>Node19&#45;&gt;Node16</title>
<path fill="none" stroke="midnightblue" d="M1089.83,-190.5C1093.18,-172.56 1095.79,-141.6 1079.52,-123 1057.43,-97.76 968.41,-84.01 908.63,-77.47"/>
<polygon fill="midnightblue" stroke="midnightblue" points="908.88,-73.98 898.57,-76.4 908.14,-80.94 908.88,-73.98"/>
</g>
<!-- Node20 -->
<g id="node20" class="node">
<title>Node20</title>
<g id="a_node20"><a xlink:href="math_8h.html" target="_top" xlink:title=" ">
<polygon fill="white" stroke="black" points="1126.52,-129 1126.52,-148 1208.52,-148 1208.52,-129 1126.52,-129"/>
<text text-anchor="middle" x="1167.52" y="-136" font-family="Helvetica,sans-Serif" font-size="10.00">MSL_C/math.h</text>
</a>
</g>
</g>
<!-- Node19&#45;&gt;Node20 -->
<g id="edge39" class="edge">
<title>Node19&#45;&gt;Node20</title>
<path fill="none" stroke="midnightblue" d="M1104.09,-190.4C1117.22,-179.86 1135.15,-165.48 1148.59,-154.69"/>
<polygon fill="midnightblue" stroke="midnightblue" points="1151.07,-157.18 1156.68,-148.19 1146.69,-151.72 1151.07,-157.18"/>
</g>
<!-- Node20&#45;&gt;Node3 -->
<g id="edge42" class="edge">
<title>Node20&#45;&gt;Node3</title>
<path fill="none" stroke="midnightblue" d="M1151.73,-128.96C1119.36,-111.9 1042.71,-73.71 973.52,-56 838.04,-21.33 672.27,-13.26 590.35,-11.46"/>
<polygon fill="midnightblue" stroke="midnightblue" points="590.37,-7.96 580.3,-11.26 590.23,-14.96 590.37,-7.96"/>
</g>
<!-- Node21 -->
<g id="node21" class="node">
<title>Node21</title>
<g id="a_node21"><a xlink:href="float_8h.html" target="_top" xlink:title=" ">
<polygon fill="white" stroke="black" points="1082.52,-56.5 1082.52,-86.5 1218.52,-86.5 1218.52,-56.5 1082.52,-56.5"/>
<text text-anchor="start" x="1090.52" y="-74.5" font-family="Helvetica,sans-Serif" font-size="10.00">MSL_C/MSL_Common/Src</text>
<text text-anchor="middle" x="1150.52" y="-63.5" font-family="Helvetica,sans-Serif" font-size="10.00">/float.h</text>
</a>
</g>
</g>
<!-- Node20&#45;&gt;Node21 -->
<g id="edge40" class="edge">
<title>Node20&#45;&gt;Node21</title>
<path fill="none" stroke="midnightblue" d="M1165.23,-128.73C1163.06,-120.46 1159.71,-107.66 1156.76,-96.37"/>
<polygon fill="midnightblue" stroke="midnightblue" points="1160.12,-95.38 1154.2,-86.59 1153.35,-97.15 1160.12,-95.38"/>
</g>
<!-- Node21&#45;&gt;Node3 -->
<g id="edge41" class="edge">
<title>Node21&#45;&gt;Node3</title>
<path fill="none" stroke="midnightblue" d="M1082.27,-59.2C1074.27,-58.04 1066.22,-56.94 1058.52,-56 887.4,-35.12 683.38,-20.39 590.32,-14.22"/>
<polygon fill="midnightblue" stroke="midnightblue" points="590.54,-10.73 580.33,-13.56 590.08,-17.71 590.54,-10.73"/>
</g>
</g>
</svg>
        <g id="navigator" transform="translate(0 0)" fill="#404254">
                <rect fill="#f2f5e9" fill-opacity="0.5" stroke="#606060" stroke-width=".5" x="0" y="0" width="60" height="60"/>
                <use id="zoomplus" xlink:href="#zoomPlus" x="17" y="9" onmousedown="handleZoom(evt,'in')"/>
                <use id="zoomminus" xlink:href="#zoomMin" x="42" y="9" onmousedown="handleZoom(evt,'out')"/>
                <use id="reset" xlink:href="#resetDef" x="30" y="36" onmousedown="handleReset()"/>
                <g id="arrowUp" xlink:href="#dirArrow" transform="translate(30 24)" onmousedown="handlePan(0,-1)">
                  <use xlink:href="#rim" fill="#404040">
                        <set attributeName="fill" to="#808080" begin="arrowUp.mouseover" end="arrowUp.mouseout"/>
                  </use>
                  <path fill="none" stroke="white" stroke-width="1.5" d="M0,-3.0v7 M-2.5,-0.5L0,-3.0L2.5,-0.5"/>
                </g>
                <g id="arrowRight" xlink:href="#dirArrow" transform="rotate(90) translate(36 -43)" onmousedown="handlePan(1,0)">
                  <use xlink:href="#rim" fill="#404040">
                        <set attributeName="fill" to="#808080" begin="arrowRight.mouseover" end="arrowRight.mouseout"/>
                  </use>
                  <path fill="none" stroke="white" stroke-width="1.5" d="M0,-3.0v7 M-2.5,-0.5L0,-3.0L2.5,-0.5"/>
                </g>
                <g id="arrowDown" xlink:href="#dirArrow" transform="rotate(180) translate(-30 -48)" onmousedown="handlePan(0,1)">
                  <use xlink:href="#rim" fill="#404040">
                        <set attributeName="fill" to="#808080" begin="arrowDown.mouseover" end="arrowDown.mouseout"/>
                  </use>
                  <path fill="none" stroke="white" stroke-width="1.5" d="M0,-3.0v7 M-2.5,-0.5L0,-3.0L2.5,-0.5"/>
                </g>
                <g id="arrowLeft" xlink:href="#dirArrow" transform="rotate(270) translate(-36 17)" onmousedown="handlePan(-1,0)">
                  <use xlink:href="#rim" fill="#404040">
                        <set attributeName="fill" to="#808080" begin="arrowLeft.mouseover" end="arrowLeft.mouseout"/>
                  </use>
                  <path fill="none" stroke="white" stroke-width="1.5" d="M0,-3.0v7 M-2.5,-0.5L0,-3.0L2.5,-0.5"/>
                </g>
        </g>
        <svg viewBox="0 0 15 15" width="100%" height="30px" preserveAspectRatio="xMaxYMin meet">
         <g id="arrow_out" transform="scale(0.3 0.3)">
          <a xlink:href="d__kyeff2_8cpp__incl_org.svg" target="_base">
           <rect id="button" ry="5" rx="5" y="6" x="6" height="38" width="38"
                fill="#f2f5e9" fill-opacity="0.5" stroke="#606060" stroke-width="1.0"/>
           <path id="arrow"
             d="M 11.500037,31.436501 C 11.940474,20.09759 22.043105,11.32322 32.158766,21.979434 L 37.068811,17.246167 C 37.068811,17.246167 37.088388,32 37.088388,32 L 22.160133,31.978069 C 22.160133,31.978069 26.997745,27.140456 26.997745,27.140456 C 18.528582,18.264221 13.291696,25.230495 11.500037,31.436501 z"
             style="fill:#404040;"/>
          </a>
         </g>
        </svg>
</svg>
