<?xml version="1.0" encoding="UTF-8" standalone="no"?>
<!DOCTYPE svg PUBLIC "-//W3C//DTD SVG 1.1//EN"
 "http://www.w3.org/Graphics/SVG/1.1/DTD/svg11.dtd">
<!-- Generated by graphviz version 2.50.0 (20220203.2022)
 -->
<!-- Title: include/d/meter/d_meter2_draw.h Pages: 1 -->
<svg width="5043pt" height="430pt"
 viewBox="0.00 0.00 5043.00 430.00" xmlns="http://www.w3.org/2000/svg" xmlns:xlink="http://www.w3.org/1999/xlink">
<g id="graph0" class="graph" transform="scale(1 1) rotate(0) translate(4 426)">
<title>include/d/meter/d_meter2_draw.h</title>
<polygon fill="white" stroke="transparent" points="-4,4 -4,-426 5039,-426 5039,4 -4,4"/>
<!-- Node1 -->
<g id="node1" class="node">
<title>Node1</title>
<g id="a_node1"><a xlink:title=" ">
<polygon fill="#bfbfbf" stroke="black" points="3609.5,-391.5 3609.5,-421.5 3736.5,-421.5 3736.5,-391.5 3609.5,-391.5"/>
<text text-anchor="start" x="3617.5" y="-409.5" font-family="Helvetica,sans-Serif" font-size="10.00">include/d/meter/d_meter2</text>
<text text-anchor="middle" x="3673" y="-398.5" font-family="Helvetica,sans-Serif" font-size="10.00">_draw.h</text>
</a>
</g>
</g>
<!-- Node2 -->
<g id="node2" class="node">
<title>Node2</title>
<g id="a_node2"><a xlink:href="d__meter2_8h.html" target="_top" xlink:title=" ">
<polygon fill="white" stroke="black" points="2290,-335.5 2290,-354.5 2424,-354.5 2424,-335.5 2290,-335.5"/>
<text text-anchor="middle" x="2357" y="-342.5" font-family="Helvetica,sans-Serif" font-size="10.00">include/d/meter/d_meter2.h</text>
</a>
</g>
</g>
<!-- Node1&#45;&gt;Node2 -->
<g id="edge1" class="edge">
<title>Node1&#45;&gt;Node2</title>
<path fill="none" stroke="midnightblue" d="M3599,-402.15C3365.64,-391.6 2647.46,-359.13 2424.04,-349.03"/>
<polygon fill="midnightblue" stroke="midnightblue" points="3598.93,-405.65 3609.08,-402.61 3599.25,-398.66 3598.93,-405.65"/>
</g>
<!-- Node19 -->
<g id="node14" class="node">
<title>Node19</title>
<g id="a_node14"><a xlink:href="d__meter2__draw_8cpp.html" target="_top" xlink:title=" ">
<polygon fill="white" stroke="black" points="4864,-0.5 4864,-30.5 4974,-30.5 4974,-0.5 4864,-0.5"/>
<text text-anchor="start" x="4872" y="-18.5" font-family="Helvetica,sans-Serif" font-size="10.00">src/d/meter/d_meter2</text>
<text text-anchor="middle" x="4919" y="-7.5" font-family="Helvetica,sans-Serif" font-size="10.00">_draw.cpp</text>
</a>
</g>
</g>
<!-- Node1&#45;&gt;Node19 -->
<g id="edge70" class="edge">
<title>Node1&#45;&gt;Node19</title>
<path fill="none" stroke="midnightblue" d="M3747.06,-402.84C4031.1,-392.14 5035,-349.72 5035,-284.5 5035,-284.5 5035,-284.5 5035,-159.5 5035,-101.16 4976.05,-53.33 4942.2,-30.67"/>
<polygon fill="midnightblue" stroke="midnightblue" points="3746.73,-399.35 3736.87,-403.22 3746.99,-406.34 3746.73,-399.35"/>
</g>
<!-- Node3 -->
<g id="node3" class="node">
<title>Node3</title>
<g id="a_node3"><a xlink:href="d__meter2__info_8h.html" target="_top" xlink:title=" ">
<polygon fill="white" stroke="black" points="165.5,-268.5 165.5,-298.5 292.5,-298.5 292.5,-268.5 165.5,-268.5"/>
<text text-anchor="start" x="173.5" y="-286.5" font-family="Helvetica,sans-Serif" font-size="10.00">include/d/meter/d_meter2</text>
<text text-anchor="middle" x="229" y="-275.5" font-family="Helvetica,sans-Serif" font-size="10.00">_info.h</text>
</a>
</g>
</g>
<!-- Node2&#45;&gt;Node3 -->
<g id="edge2" class="edge">
<title>Node2&#45;&gt;Node3</title>
<path fill="none" stroke="midnightblue" d="M2279.63,-341.84C1942.04,-332.4 601.14,-294.91 292.56,-286.28"/>
<polygon fill="midnightblue" stroke="midnightblue" points="2279.7,-345.34 2289.8,-342.12 2279.9,-338.34 2279.7,-345.34"/>
</g>
<!-- Node61 -->
<g id="node50" class="node">
<title>Node61</title>
<g id="a_node50"><a xlink:href="d__meter2_8cpp.html" target="_top" xlink:title=" ">
<polygon fill="white" stroke="black" points="2247,-274 2247,-293 2375,-293 2375,-274 2247,-274"/>
<text text-anchor="middle" x="2311" y="-281" font-family="Helvetica,sans-Serif" font-size="10.00">src/d/meter/d_meter2.cpp</text>
</a>
</g>
</g>
<!-- Node2&#45;&gt;Node61 -->
<g id="edge69" class="edge">
<title>Node2&#45;&gt;Node61</title>
<path fill="none" stroke="midnightblue" d="M2344.12,-327.34C2335.48,-316.17 2324.47,-301.93 2317.58,-293.01"/>
<polygon fill="midnightblue" stroke="midnightblue" points="2341.52,-329.7 2350.41,-335.48 2347.06,-325.42 2341.52,-329.7"/>
</g>
<!-- Node4 -->
<g id="node4" class="node">
<title>Node4</title>
<g id="a_node4"><a xlink:href="d__a__alink_8h.html" target="_top" xlink:title=" ">
<polygon fill="white" stroke="black" points="214,-212.5 214,-231.5 330,-231.5 330,-212.5 214,-212.5"/>
<text text-anchor="middle" x="272" y="-219.5" font-family="Helvetica,sans-Serif" font-size="10.00">include/d/a/d_a_alink.h</text>
</a>
</g>
</g>
<!-- Node3&#45;&gt;Node4 -->
<g id="edge3" class="edge">
<title>Node3&#45;&gt;Node4</title>
<path fill="none" stroke="midnightblue" d="M245.19,-260.1C252.35,-250.19 260.36,-239.11 265.74,-231.66"/>
<polygon fill="midnightblue" stroke="midnightblue" points="242.21,-258.24 239.19,-268.4 247.88,-262.34 242.21,-258.24"/>
</g>
<!-- Node14 -->
<g id="node9" class="node">
<title>Node14</title>
<g id="a_node9"><a xlink:href="d__com__inf__game_8cpp.html" target="_top" xlink:title=" ">
<polygon fill="white" stroke="black" points="4630,-0.5 4630,-30.5 4738,-30.5 4738,-0.5 4630,-0.5"/>
<text text-anchor="start" x="4638" y="-18.5" font-family="Helvetica,sans-Serif" font-size="10.00">src/d/com/d_com_inf</text>
<text text-anchor="middle" x="4684" y="-7.5" font-family="Helvetica,sans-Serif" font-size="10.00">_game.cpp</text>
</a>
</g>
</g>
<!-- Node3&#45;&gt;Node14 -->
<g id="edge65" class="edge">
<title>Node3&#45;&gt;Node14</title>
<path fill="none" stroke="midnightblue" d="M302.7,-281.2C894.74,-270.57 4855.92,-196.23 4940,-109 5002.39,-44.27 4830.66,-24.66 4738.33,-18.86"/>
<polygon fill="midnightblue" stroke="midnightblue" points="302.52,-277.7 292.58,-281.38 302.64,-284.7 302.52,-277.7"/>
</g>
<!-- Node15 -->
<g id="node10" class="node">
<title>Node15</title>
<g id="a_node10"><a xlink:href="d__item_8cpp.html" target="_top" xlink:title=" ">
<polygon fill="white" stroke="black" points="609.5,-6 609.5,-25 698.5,-25 698.5,-6 609.5,-6"/>
<text text-anchor="middle" x="654" y="-13" font-family="Helvetica,sans-Serif" font-size="10.00">src/d/d_item.cpp</text>
</a>
</g>
</g>
<!-- Node3&#45;&gt;Node15 -->
<g id="edge66" class="edge">
<title>Node3&#45;&gt;Node15</title>
<path fill="none" stroke="midnightblue" d="M293.27,-264.59C310.29,-257.03 327.19,-246.5 339,-232 386.52,-173.65 322.05,-118.42 377,-67 413.65,-32.7 550.92,-41.52 600,-31 607.97,-29.29 616.53,-27.14 624.42,-25.03"/>
<polygon fill="midnightblue" stroke="midnightblue" points="291.74,-261.43 283.84,-268.49 294.42,-267.9 291.74,-261.43"/>
</g>
<!-- Node27 -->
<g id="node20" class="node">
<title>Node27</title>
<g id="a_node20"><a xlink:href="d__meter2__info_8cpp.html" target="_top" xlink:title=" ">
<polygon fill="white" stroke="black" points="481,-0.5 481,-30.5 591,-30.5 591,-0.5 481,-0.5"/>
<text text-anchor="start" x="489" y="-18.5" font-family="Helvetica,sans-Serif" font-size="10.00">src/d/meter/d_meter2</text>
<text text-anchor="middle" x="536" y="-7.5" font-family="Helvetica,sans-Serif" font-size="10.00">_info.cpp</text>
</a>
</g>
</g>
<!-- Node3&#45;&gt;Node27 -->
<g id="edge67" class="edge">
<title>Node3&#45;&gt;Node27</title>
<path fill="none" stroke="midnightblue" d="M216.48,-259.33C194.89,-215.86 157.32,-121.54 205,-67 244.4,-21.93 413.08,-41.63 472,-31 474.92,-30.47 477.9,-29.91 480.91,-29.31"/>
<polygon fill="midnightblue" stroke="midnightblue" points="213.39,-260.98 221.06,-268.28 219.62,-257.79 213.39,-260.98"/>
</g>
<!-- Node54 -->
<g id="node46" class="node">
<title>Node54</title>
<g id="a_node46"><a xlink:href="d__save_8cpp.html" target="_top" xlink:title=" ">
<polygon fill="white" stroke="black" points="214.5,-78.5 214.5,-97.5 329.5,-97.5 329.5,-78.5 214.5,-78.5"/>
<text text-anchor="middle" x="272" y="-85.5" font-family="Helvetica,sans-Serif" font-size="10.00">src/d/save/d_save.cpp</text>
</a>
</g>
</g>
<!-- Node3&#45;&gt;Node54 -->
<g id="edge68" class="edge">
<title>Node3&#45;&gt;Node54</title>
<path fill="none" stroke="midnightblue" d="M214.13,-259.66C207.03,-245.99 200.88,-228.19 205,-212 216.94,-165.11 250.8,-116.79 265.29,-97.6"/>
<polygon fill="midnightblue" stroke="midnightblue" points="211.11,-261.42 219.09,-268.39 217.19,-257.96 211.11,-261.42"/>
</g>
<!-- Node60 -->
<g id="node49" class="node">
<title>Node60</title>
<g id="a_node49"><a xlink:href="d__menu__window_8h.html" target="_top" xlink:title=" ">
<polygon fill="white" stroke="black" points="0,-145.5 0,-175.5 120,-175.5 120,-145.5 0,-145.5"/>
<text text-anchor="start" x="8" y="-163.5" font-family="Helvetica,sans-Serif" font-size="10.00">include/d/menu/d_menu</text>
<text text-anchor="middle" x="60" y="-152.5" font-family="Helvetica,sans-Serif" font-size="10.00">_window.h</text>
</a>
</g>
</g>
<!-- Node3&#45;&gt;Node60 -->
<g id="edge61" class="edge">
<title>Node3&#45;&gt;Node60</title>
<path fill="none" stroke="midnightblue" d="M180.28,-264.05C162.11,-255.35 141.9,-244.19 125,-232 101.4,-214.98 77.67,-190.83 66.02,-175.68"/>
<polygon fill="midnightblue" stroke="midnightblue" points="179.03,-267.33 189.57,-268.38 181.98,-260.98 179.03,-267.33"/>
</g>
<!-- Node5 -->
<g id="node5" class="node">
<title>Node5</title>
<g id="a_node5"><a xlink:href="d__com__inf__game_8h.html" target="_top" xlink:title=" ">
<polygon fill="white" stroke="red" points="2348,-145.5 2348,-175.5 2458,-175.5 2458,-145.5 2348,-145.5"/>
<text text-anchor="start" x="2356" y="-163.5" font-family="Helvetica,sans-Serif" font-size="10.00">include/d/com/d_com</text>
<text text-anchor="middle" x="2403" y="-152.5" font-family="Helvetica,sans-Serif" font-size="10.00">_inf_game.h</text>
</a>
</g>
</g>
<!-- Node4&#45;&gt;Node5 -->
<g id="edge4" class="edge">
<title>Node4&#45;&gt;Node5</title>
<path fill="none" stroke="midnightblue" d="M340.32,-219.09C665.56,-210.01 2053.36,-171.26 2347.91,-163.04"/>
<polygon fill="midnightblue" stroke="midnightblue" points="340,-215.6 330.1,-219.38 340.2,-222.6 340,-215.6"/>
</g>
<!-- Node33 -->
<g id="node25" class="node">
<title>Node33</title>
<g id="a_node25"><a xlink:href="d__a__alink_8cpp.html" target="_top" xlink:title=" ">
<polygon fill="white" stroke="black" points="386.5,-78.5 386.5,-97.5 495.5,-97.5 495.5,-78.5 386.5,-78.5"/>
<text text-anchor="middle" x="441" y="-85.5" font-family="Helvetica,sans-Serif" font-size="10.00">src/d/a/d_a_alink.cpp</text>
</a>
</g>
</g>
<!-- Node4&#45;&gt;Node33 -->
<g id="edge60" class="edge">
<title>Node4&#45;&gt;Node33</title>
<path fill="none" stroke="midnightblue" d="M291.24,-205.97C326.86,-178.15 401.99,-119.47 430.09,-97.52"/>
<polygon fill="midnightblue" stroke="midnightblue" points="288.82,-203.43 283.09,-212.34 293.12,-208.94 288.82,-203.43"/>
</g>
<!-- Node5&#45;&gt;Node2 -->
<g id="edge16" class="edge">
<title>Node5&#45;&gt;Node2</title>
<path fill="none" stroke="midnightblue" d="M2402.57,-185.67C2401.42,-213.68 2397.44,-260.88 2384,-299 2379.21,-312.58 2370.05,-326.54 2363.74,-335.23"/>
<polygon fill="midnightblue" stroke="midnightblue" points="2406.07,-185.7 2402.9,-175.59 2399.08,-185.48 2406.07,-185.7"/>
</g>
<!-- Node6 -->
<g id="node6" class="node">
<title>Node6</title>
<g id="a_node6"><a xlink:href="d__a__npc_8h.html" target="_top" xlink:title=" ">
<polygon fill="white" stroke="red" points="4700.5,-78.5 4700.5,-97.5 4811.5,-97.5 4811.5,-78.5 4700.5,-78.5"/>
<text text-anchor="middle" x="4756" y="-85.5" font-family="Helvetica,sans-Serif" font-size="10.00">include/d/a/d_a_npc.h</text>
</a>
</g>
</g>
<!-- Node5&#45;&gt;Node6 -->
<g id="edge5" class="edge">
<title>Node5&#45;&gt;Node6</title>
<path fill="none" stroke="midnightblue" d="M2468.33,-159.05C2818.11,-156.52 4462.01,-142.9 4686,-109 4701.5,-106.65 4718.4,-101.89 4731.72,-97.6"/>
<polygon fill="midnightblue" stroke="midnightblue" points="2468.09,-155.55 2458.12,-159.13 2468.14,-162.55 2468.09,-155.55"/>
</g>
<!-- Node11 -->
<g id="node7" class="node">
<title>Node11</title>
<g id="a_node7"><a xlink:href="d__cc__uty_8h.html" target="_top" xlink:title=" ">
<polygon fill="white" stroke="red" points="4373.5,-78.5 4373.5,-97.5 4492.5,-97.5 4492.5,-78.5 4373.5,-78.5"/>
<text text-anchor="middle" x="4433" y="-85.5" font-family="Helvetica,sans-Serif" font-size="10.00">include/d/cc/d_cc_uty.h</text>
</a>
</g>
</g>
<!-- Node5&#45;&gt;Node11 -->
<g id="edge6" class="edge">
<title>Node5&#45;&gt;Node11</title>
<path fill="none" stroke="midnightblue" d="M2468.44,-158.83C2787.74,-155.41 4174.57,-138.93 4365,-109 4380.07,-106.63 4396.5,-101.86 4409.43,-97.58"/>
<polygon fill="midnightblue" stroke="midnightblue" points="2468.38,-155.33 2458.42,-158.93 2468.45,-162.33 2468.38,-155.33"/>
</g>
<!-- Node13 -->
<g id="node8" class="node">
<title>Node13</title>
<g id="a_node8"><a xlink:href="d__item_8h.html" target="_top" xlink:title=" ">
<polygon fill="white" stroke="red" points="4510.5,-78.5 4510.5,-97.5 4605.5,-97.5 4605.5,-78.5 4510.5,-78.5"/>
<text text-anchor="middle" x="4558" y="-85.5" font-family="Helvetica,sans-Serif" font-size="10.00">include/d/d_item.h</text>
</a>
</g>
</g>
<!-- Node5&#45;&gt;Node13 -->
<g id="edge7" class="edge">
<title>Node5&#45;&gt;Node13</title>
<path fill="none" stroke="midnightblue" d="M2468.63,-159.16C2801.83,-157.29 4298.36,-146.8 4502,-109 4514.69,-106.64 4528.34,-101.82 4538.98,-97.5"/>
<polygon fill="midnightblue" stroke="midnightblue" points="2468.17,-155.67 2458.19,-159.22 2468.21,-162.67 2468.17,-155.67"/>
</g>
<!-- Node5&#45;&gt;Node14 -->
<g id="edge35" class="edge">
<title>Node5&#45;&gt;Node14</title>
<path fill="none" stroke="midnightblue" d="M2468.3,-158.91C2831.23,-155.54 4585.5,-137.78 4633,-109 4661.7,-91.61 4675.43,-51.81 4680.93,-30.53"/>
<polygon fill="midnightblue" stroke="midnightblue" points="2468.19,-155.41 2458.22,-159.01 2468.25,-162.41 2468.19,-155.41"/>
</g>
<!-- Node8 -->
<g id="node11" class="node">
<title>Node8</title>
<g id="a_node11"><a xlink:href="d__msg__flow_8cpp.html" target="_top" xlink:title=" ">
<polygon fill="white" stroke="black" points="4478.5,-6 4478.5,-25 4611.5,-25 4611.5,-6 4478.5,-6"/>
<text text-anchor="middle" x="4545" y="-13" font-family="Helvetica,sans-Serif" font-size="10.00">src/d/msg/d_msg_flow.cpp</text>
</a>
</g>
</g>
<!-- Node5&#45;&gt;Node8 -->
<g id="edge54" class="edge">
<title>Node5&#45;&gt;Node8</title>
<path fill="none" stroke="midnightblue" d="M2468.05,-159.25C2829.56,-157.74 4576.49,-148.4 4615,-109 4628.05,-95.65 4623.5,-83.62 4615,-67 4604.76,-46.99 4582.49,-33.09 4565.8,-25.01"/>
<polygon fill="midnightblue" stroke="midnightblue" points="2468,-155.76 2458.01,-159.3 2468.03,-162.75 2468,-155.76"/>
</g>
<!-- Node9 -->
<g id="node12" class="node">
<title>Node9</title>
<g id="a_node12"><a xlink:href="d__shop__system_8cpp.html" target="_top" xlink:title=" ">
<polygon fill="white" stroke="black" points="869,-6 869,-25 1021,-25 1021,-6 869,-6"/>
<text text-anchor="middle" x="945" y="-13" font-family="Helvetica,sans-Serif" font-size="10.00">src/d/shop/d_shop_system.cpp</text>
</a>
</g>
</g>
<!-- Node5&#45;&gt;Node9 -->
<g id="edge58" class="edge">
<title>Node5&#45;&gt;Node9</title>
<path fill="none" stroke="midnightblue" d="M2337.71,-158.64C2042.98,-154.62 849.77,-136.64 823,-109 810.01,-95.59 812.63,-82.52 823,-67 838.09,-44.42 865.36,-31.92 890.28,-25.01"/>
<polygon fill="midnightblue" stroke="midnightblue" points="2337.76,-162.14 2347.81,-158.78 2337.86,-155.14 2337.76,-162.14"/>
</g>
<!-- Node17 -->
<g id="node13" class="node">
<title>Node17</title>
<g id="a_node13"><a xlink:href="d__kantera__icon__meter_8h.html" target="_top" xlink:title=" ">
<polygon fill="white" stroke="red" points="4829.5,-73 4829.5,-103 4930.5,-103 4930.5,-73 4829.5,-73"/>
<text text-anchor="start" x="4837.5" y="-91" font-family="Helvetica,sans-Serif" font-size="10.00">include/d/d_kantera</text>
<text text-anchor="middle" x="4880" y="-80" font-family="Helvetica,sans-Serif" font-size="10.00">_icon_meter.h</text>
</a>
</g>
</g>
<!-- Node5&#45;&gt;Node17 -->
<g id="edge12" class="edge">
<title>Node5&#45;&gt;Node17</title>
<path fill="none" stroke="midnightblue" d="M2468.12,-159.33C2829.8,-158.21 4583.81,-150.66 4821,-109 4828.67,-107.65 4836.69,-105.48 4844.26,-103.06"/>
<polygon fill="midnightblue" stroke="midnightblue" points="2468.07,-155.83 2458.08,-159.36 2468.09,-162.83 2468.07,-155.83"/>
</g>
<!-- Node5&#45;&gt;Node19 -->
<g id="edge51" class="edge">
<title>Node5&#45;&gt;Node19</title>
<path fill="none" stroke="midnightblue" d="M2468.24,-159.45C2861.01,-159 4895.43,-154.47 4940,-109 4960.75,-87.83 4941.94,-50.7 4928.94,-30.52"/>
<polygon fill="midnightblue" stroke="midnightblue" points="2468.18,-155.95 2458.19,-159.46 2468.19,-162.95 2468.18,-155.95"/>
</g>
<!-- Node20 -->
<g id="node15" class="node">
<title>Node20</title>
<g id="a_node15"><a xlink:href="d__model_8h.html" target="_top" xlink:title=" ">
<polygon fill="white" stroke="red" points="832.5,-78.5 832.5,-97.5 935.5,-97.5 935.5,-78.5 832.5,-78.5"/>
<text text-anchor="middle" x="884" y="-85.5" font-family="Helvetica,sans-Serif" font-size="10.00">include/d/d_model.h</text>
</a>
</g>
</g>
<!-- Node5&#45;&gt;Node20 -->
<g id="edge14" class="edge">
<title>Node5&#45;&gt;Node20</title>
<path fill="none" stroke="midnightblue" d="M2337.48,-159.68C2090.77,-159.97 1218.04,-157.48 945,-109 931.39,-106.58 916.66,-101.82 905.08,-97.54"/>
<polygon fill="midnightblue" stroke="midnightblue" points="2337.72,-163.18 2347.72,-159.66 2337.71,-156.18 2337.72,-163.18"/>
</g>
<!-- Node22 -->
<g id="node16" class="node">
<title>Node22</title>
<g id="a_node16"><a xlink:href="d__file__sel__info_8h.html" target="_top" xlink:title=" ">
<polygon fill="white" stroke="red" points="954,-73 954,-103 1050,-103 1050,-73 954,-73"/>
<text text-anchor="start" x="962" y="-91" font-family="Helvetica,sans-Serif" font-size="10.00">include/d/file/d_file</text>
<text text-anchor="middle" x="1002" y="-80" font-family="Helvetica,sans-Serif" font-size="10.00">_sel_info.h</text>
</a>
</g>
</g>
<!-- Node5&#45;&gt;Node22 -->
<g id="edge15" class="edge">
<title>Node5&#45;&gt;Node22</title>
<path fill="none" stroke="midnightblue" d="M2337.93,-159.63C2104.31,-159.69 1308.5,-156.34 1059,-109 1051.68,-107.61 1044.04,-105.46 1036.82,-103.06"/>
<polygon fill="midnightblue" stroke="midnightblue" points="2337.97,-163.13 2347.97,-159.62 2337.97,-156.13 2337.97,-163.13"/>
</g>
<!-- Node24 -->
<g id="node17" class="node">
<title>Node24</title>
<g id="a_node17"><a xlink:href="d__msg__object_8h.html" target="_top" xlink:title=" ">
<polygon fill="white" stroke="red" points="666,-73 666,-103 776,-103 776,-73 666,-73"/>
<text text-anchor="start" x="674" y="-91" font-family="Helvetica,sans-Serif" font-size="10.00">include/d/msg/d_msg</text>
<text text-anchor="middle" x="721" y="-80" font-family="Helvetica,sans-Serif" font-size="10.00">_object.h</text>
</a>
</g>
</g>
<!-- Node5&#45;&gt;Node24 -->
<g id="edge17" class="edge">
<title>Node5&#45;&gt;Node24</title>
<path fill="none" stroke="midnightblue" d="M2337.67,-159.64C2075.03,-159.85 1095.69,-157.3 790,-109 781.25,-107.62 772.05,-105.46 763.32,-103.07"/>
<polygon fill="midnightblue" stroke="midnightblue" points="2337.81,-163.14 2347.81,-159.63 2337.8,-156.14 2337.81,-163.14"/>
</g>
<!-- Node25 -->
<g id="node18" class="node">
<title>Node25</title>
<g id="a_node18"><a xlink:href="d__kankyo_8cpp.html" target="_top" xlink:title=" ">
<polygon fill="white" stroke="black" points="717,-6 717,-25 851,-25 851,-6 717,-6"/>
<text text-anchor="middle" x="784" y="-13" font-family="Helvetica,sans-Serif" font-size="10.00">src/d/kankyo/d_kankyo.cpp</text>
</a>
</g>
</g>
<!-- Node5&#45;&gt;Node25 -->
<g id="edge46" class="edge">
<title>Node5&#45;&gt;Node25</title>
<path fill="none" stroke="midnightblue" d="M2337.64,-158.84C2023.97,-155.55 686.84,-139.71 657,-109 643.99,-95.61 646.52,-82.45 657,-67 667.96,-50.85 717.27,-34.6 751.12,-25.05"/>
<polygon fill="midnightblue" stroke="midnightblue" points="2337.89,-162.35 2347.93,-158.95 2337.97,-155.35 2337.89,-162.35"/>
</g>
<!-- Node26 -->
<g id="node19" class="node">
<title>Node26</title>
<g id="a_node19"><a xlink:href="d__menu__window_8cpp.html" target="_top" xlink:title=" ">
<polygon fill="white" stroke="black" points="181.5,-6 181.5,-25 340.5,-25 340.5,-6 181.5,-6"/>
<text text-anchor="middle" x="261" y="-13" font-family="Helvetica,sans-Serif" font-size="10.00">src/d/menu/d_menu_window.cpp</text>
</a>
</g>
</g>
<!-- Node5&#45;&gt;Node26 -->
<g id="edge49" class="edge">
<title>Node5&#45;&gt;Node26</title>
<path fill="none" stroke="midnightblue" d="M2337.86,-159.26C2017.39,-157.89 620.24,-149.61 538,-109 516.47,-98.37 524.5,-79.5 504,-67 487.68,-57.05 377.17,-36.62 310.93,-25.03"/>
<polygon fill="midnightblue" stroke="midnightblue" points="2337.9,-162.76 2347.91,-159.3 2337.93,-155.76 2337.9,-162.76"/>
</g>
<!-- Node5&#45;&gt;Node27 -->
<g id="edge52" class="edge">
<title>Node5&#45;&gt;Node27</title>
<path fill="none" stroke="midnightblue" d="M2337.77,-158.84C2028.93,-155.54 725.38,-139.83 645,-109 602.59,-92.74 565.12,-52.46 547.19,-30.81"/>
<polygon fill="midnightblue" stroke="midnightblue" points="2337.86,-162.34 2347.9,-158.94 2337.94,-155.34 2337.86,-162.34"/>
</g>
<!-- Node28 -->
<g id="node21" class="node">
<title>Node28</title>
<g id="a_node21"><a xlink:href="d__meter__map_8cpp.html" target="_top" xlink:title=" ">
<polygon fill="white" stroke="black" points="359,-0.5 359,-30.5 463,-30.5 463,-0.5 359,-0.5"/>
<text text-anchor="start" x="367" y="-18.5" font-family="Helvetica,sans-Serif" font-size="10.00">src/d/meter/d_meter</text>
<text text-anchor="middle" x="411" y="-7.5" font-family="Helvetica,sans-Serif" font-size="10.00">_map.cpp</text>
</a>
</g>
</g>
<!-- Node5&#45;&gt;Node28 -->
<g id="edge53" class="edge">
<title>Node5&#45;&gt;Node28</title>
<path fill="none" stroke="midnightblue" d="M2337.39,-159.04C2020.71,-156.65 662.17,-144.38 580,-109 555.75,-98.56 560.05,-81.51 538,-67 513.92,-51.15 484.09,-38.97 459.39,-30.55"/>
<polygon fill="midnightblue" stroke="midnightblue" points="2337.75,-162.54 2347.77,-159.12 2337.8,-155.54 2337.75,-162.54"/>
</g>
<!-- Node30 -->
<g id="node22" class="node">
<title>Node30</title>
<g id="a_node22"><a xlink:href="d__s__play_8h.html" target="_top" xlink:title=" ">
<polygon fill="white" stroke="red" points="1068.5,-78.5 1068.5,-97.5 1181.5,-97.5 1181.5,-78.5 1068.5,-78.5"/>
<text text-anchor="middle" x="1125" y="-85.5" font-family="Helvetica,sans-Serif" font-size="10.00">include/d/s/d_s_play.h</text>
</a>
</g>
</g>
<!-- Node5&#45;&gt;Node30 -->
<g id="edge25" class="edge">
<title>Node5&#45;&gt;Node30</title>
<path fill="none" stroke="midnightblue" d="M2337.88,-158.95C2119.54,-156.77 1414.55,-146.9 1191,-109 1176.48,-106.54 1160.68,-101.83 1148.18,-97.59"/>
<polygon fill="midnightblue" stroke="midnightblue" points="2337.88,-162.45 2347.91,-159.05 2337.94,-155.45 2337.88,-162.45"/>
</g>
<!-- Node31 -->
<g id="node23" class="node">
<title>Node31</title>
<g id="a_node23"><a xlink:href="d__a__tag__telop_8h.html" target="_top" xlink:title=" ">
<polygon fill="white" stroke="black" points="1200,-67.5 1200,-108.5 1318,-108.5 1318,-67.5 1200,-67.5"/>
<text text-anchor="start" x="1208" y="-96.5" font-family="Helvetica,sans-Serif" font-size="10.00">include/rel/d/a/tag</text>
<text text-anchor="start" x="1208" y="-85.5" font-family="Helvetica,sans-Serif" font-size="10.00">/d_a_tag_telop/d_a_tag</text>
<text text-anchor="middle" x="1259" y="-74.5" font-family="Helvetica,sans-Serif" font-size="10.00">_telop.h</text>
</a>
</g>
</g>
<!-- Node5&#45;&gt;Node31 -->
<g id="edge26" class="edge">
<title>Node5&#45;&gt;Node31</title>
<path fill="none" stroke="midnightblue" d="M2337.83,-158.48C2136.01,-155.01 1523.12,-141.95 1327,-109 1324.09,-108.51 1321.12,-107.94 1318.14,-107.3"/>
<polygon fill="midnightblue" stroke="midnightblue" points="2337.93,-161.98 2347.98,-158.65 2338.04,-154.98 2337.93,-161.98"/>
</g>
<!-- Node32 -->
<g id="node24" class="node">
<title>Node32</title>
<g id="a_node24"><a xlink:href="c__dylink_8cpp.html" target="_top" xlink:title=" ">
<polygon fill="white" stroke="black" points="1336.5,-78.5 1336.5,-97.5 1431.5,-97.5 1431.5,-78.5 1336.5,-78.5"/>
<text text-anchor="middle" x="1384" y="-85.5" font-family="Helvetica,sans-Serif" font-size="10.00">src/c/c_dylink.cpp</text>
</a>
</g>
</g>
<!-- Node5&#45;&gt;Node32 -->
<g id="edge27" class="edge">
<title>Node5&#45;&gt;Node32</title>
<path fill="none" stroke="midnightblue" d="M2337.75,-158.49C2150.4,-155.21 1613.3,-143.02 1441,-109 1428.34,-106.5 1414.69,-101.79 1403.92,-97.56"/>
<polygon fill="midnightblue" stroke="midnightblue" points="2337.93,-161.99 2347.99,-158.67 2338.05,-155 2337.93,-161.99"/>
</g>
<!-- Node5&#45;&gt;Node33 -->
<g id="edge28" class="edge">
<title>Node5&#45;&gt;Node33</title>
<path fill="none" stroke="midnightblue" d="M2337.37,-158.74C2024.64,-155 693.29,-137.53 510,-109 494.72,-106.62 478.05,-101.85 464.93,-97.57"/>
<polygon fill="midnightblue" stroke="midnightblue" points="2337.59,-162.25 2347.63,-158.87 2337.67,-155.25 2337.59,-162.25"/>
</g>
<!-- Node34 -->
<g id="node26" class="node">
<title>Node34</title>
<g id="a_node26"><a xlink:href="d__a__itembase_8cpp.html" target="_top" xlink:title=" ">
<polygon fill="white" stroke="black" points="1450,-78.5 1450,-97.5 1578,-97.5 1578,-78.5 1450,-78.5"/>
<text text-anchor="middle" x="1514" y="-85.5" font-family="Helvetica,sans-Serif" font-size="10.00">src/d/a/d_a_itembase.cpp</text>
</a>
</g>
</g>
<!-- Node5&#45;&gt;Node34 -->
<g id="edge29" class="edge">
<title>Node5&#45;&gt;Node34</title>
<path fill="none" stroke="midnightblue" d="M2337.57,-159.99C2198.42,-160.04 1863.27,-154.89 1587,-109 1571.19,-106.37 1553.86,-101.71 1540.07,-97.54"/>
<polygon fill="midnightblue" stroke="midnightblue" points="2337.65,-163.49 2347.64,-159.98 2337.64,-156.49 2337.65,-163.49"/>
</g>
<!-- Node35 -->
<g id="node27" class="node">
<title>Node35</title>
<g id="a_node27"><a xlink:href="d__a__player_8cpp.html" target="_top" xlink:title=" ">
<polygon fill="white" stroke="black" points="1596,-78.5 1596,-97.5 1710,-97.5 1710,-78.5 1596,-78.5"/>
<text text-anchor="middle" x="1653" y="-85.5" font-family="Helvetica,sans-Serif" font-size="10.00">src/d/a/d_a_player.cpp</text>
</a>
</g>
</g>
<!-- Node5&#45;&gt;Node35 -->
<g id="edge30" class="edge">
<title>Node5&#45;&gt;Node35</title>
<path fill="none" stroke="midnightblue" d="M2337.63,-159.44C2215.18,-158.29 1943.37,-150.75 1719,-109 1704.64,-106.33 1688.98,-101.66 1676.51,-97.51"/>
<polygon fill="midnightblue" stroke="midnightblue" points="2337.92,-162.95 2347.95,-159.53 2337.98,-155.95 2337.92,-162.95"/>
</g>
<!-- Node36 -->
<g id="node28" class="node">
<title>Node36</title>
<g id="a_node28"><a xlink:href="d__bg__s_8cpp.html" target="_top" xlink:title=" ">
<polygon fill="white" stroke="black" points="1728,-78.5 1728,-97.5 1832,-97.5 1832,-78.5 1728,-78.5"/>
<text text-anchor="middle" x="1780" y="-85.5" font-family="Helvetica,sans-Serif" font-size="10.00">src/d/bg/d_bg_s.cpp</text>
</a>
</g>
</g>
<!-- Node5&#45;&gt;Node36 -->
<g id="edge31" class="edge">
<title>Node5&#45;&gt;Node36</title>
<path fill="none" stroke="midnightblue" d="M2337.57,-158.42C2232.03,-155.62 2018.12,-145.5 1841,-109 1827.79,-106.28 1813.44,-101.66 1801.98,-97.55"/>
<polygon fill="midnightblue" stroke="midnightblue" points="2337.66,-161.93 2347.75,-158.68 2337.84,-154.93 2337.66,-161.93"/>
</g>
<!-- Node37 -->
<g id="node29" class="node">
<title>Node37</title>
<g id="a_node29"><a xlink:href="d__bg__s__movebg__actor_8cpp.html" target="_top" xlink:title=" ">
<polygon fill="white" stroke="black" points="1850,-73 1850,-103 1976,-103 1976,-73 1850,-73"/>
<text text-anchor="start" x="1858" y="-91" font-family="Helvetica,sans-Serif" font-size="10.00">src/d/bg/d_bg_s_movebg</text>
<text text-anchor="middle" x="1913" y="-80" font-family="Helvetica,sans-Serif" font-size="10.00">_actor.cpp</text>
</a>
</g>
</g>
<!-- Node5&#45;&gt;Node37 -->
<g id="edge32" class="edge">
<title>Node5&#45;&gt;Node37</title>
<path fill="none" stroke="midnightblue" d="M2337.81,-154.69C2255.16,-147.88 2108.55,-133.48 1985,-109 1976.73,-107.36 1968.02,-105.27 1959.62,-103.05"/>
<polygon fill="midnightblue" stroke="midnightblue" points="2337.56,-158.18 2347.81,-155.5 2338.12,-151.2 2337.56,-158.18"/>
</g>
<!-- Node38 -->
<g id="node30" class="node">
<title>Node38</title>
<g id="a_node30"><a xlink:href="d__bg__w_8cpp.html" target="_top" xlink:title=" ">
<polygon fill="white" stroke="black" points="1994.5,-78.5 1994.5,-97.5 2101.5,-97.5 2101.5,-78.5 1994.5,-78.5"/>
<text text-anchor="middle" x="2048" y="-85.5" font-family="Helvetica,sans-Serif" font-size="10.00">src/d/bg/d_bg_w.cpp</text>
</a>
</g>
</g>
<!-- Node5&#45;&gt;Node38 -->
<g id="edge33" class="edge">
<title>Node5&#45;&gt;Node38</title>
<path fill="none" stroke="midnightblue" d="M2337.9,-150.84C2278.38,-142.3 2188.13,-127.82 2111,-109 2098.07,-105.84 2083.92,-101.44 2072.31,-97.57"/>
<polygon fill="midnightblue" stroke="midnightblue" points="2337.52,-154.32 2347.92,-152.26 2338.51,-147.39 2337.52,-154.32"/>
</g>
<!-- Node39 -->
<g id="node31" class="node">
<title>Node39</title>
<g id="a_node31"><a xlink:href="d__cc__s_8cpp.html" target="_top" xlink:title=" ">
<polygon fill="white" stroke="black" points="2120,-78.5 2120,-97.5 2224,-97.5 2224,-78.5 2120,-78.5"/>
<text text-anchor="middle" x="2172" y="-85.5" font-family="Helvetica,sans-Serif" font-size="10.00">src/d/cc/d_cc_s.cpp</text>
</a>
</g>
</g>
<!-- Node5&#45;&gt;Node39 -->
<g id="edge34" class="edge">
<title>Node5&#45;&gt;Node39</title>
<path fill="none" stroke="midnightblue" d="M2344.63,-142.6C2311.77,-132.98 2270.02,-120.56 2233,-109 2221.3,-105.34 2208.39,-101.14 2197.47,-97.53"/>
<polygon fill="midnightblue" stroke="midnightblue" points="2343.95,-146.05 2354.53,-145.49 2345.91,-139.33 2343.95,-146.05"/>
</g>
<!-- Node40 -->
<g id="node32" class="node">
<title>Node40</title>
<g id="a_node32"><a xlink:href="d__eye__hl_8cpp.html" target="_top" xlink:title=" ">
<polygon fill="white" stroke="black" points="2242,-78.5 2242,-97.5 2340,-97.5 2340,-78.5 2242,-78.5"/>
<text text-anchor="middle" x="2291" y="-85.5" font-family="Helvetica,sans-Serif" font-size="10.00">src/d/d_eye_hl.cpp</text>
</a>
</g>
</g>
<!-- Node5&#45;&gt;Node40 -->
<g id="edge36" class="edge">
<title>Node5&#45;&gt;Node40</title>
<path fill="none" stroke="midnightblue" d="M2371.88,-139.91C2349.77,-125.99 2321.15,-107.98 2304.56,-97.53"/>
<polygon fill="midnightblue" stroke="midnightblue" points="2370.28,-143.04 2380.6,-145.4 2374.01,-137.11 2370.28,-143.04"/>
</g>
<!-- Node41 -->
<g id="node33" class="node">
<title>Node41</title>
<g id="a_node33"><a xlink:href="d__kyeff_8cpp.html" target="_top" xlink:title=" ">
<polygon fill="white" stroke="black" points="2358,-78.5 2358,-97.5 2448,-97.5 2448,-78.5 2358,-78.5"/>
<text text-anchor="middle" x="2403" y="-85.5" font-family="Helvetica,sans-Serif" font-size="10.00">src/d/d_kyeff.cpp</text>
</a>
</g>
</g>
<!-- Node5&#45;&gt;Node41 -->
<g id="edge37" class="edge">
<title>Node5&#45;&gt;Node41</title>
<path fill="none" stroke="midnightblue" d="M2403,-135.09C2403,-122.21 2403,-107.2 2403,-97.89"/>
<polygon fill="midnightblue" stroke="midnightblue" points="2399.5,-135.23 2403,-145.23 2406.5,-135.23 2399.5,-135.23"/>
</g>
<!-- Node42 -->
<g id="node34" class="node">
<title>Node42</title>
<g id="a_node34"><a xlink:href="d__resorce_8cpp.html" target="_top" xlink:title=" ">
<polygon fill="white" stroke="black" points="2466,-78.5 2466,-97.5 2568,-97.5 2568,-78.5 2466,-78.5"/>
<text text-anchor="middle" x="2517" y="-85.5" font-family="Helvetica,sans-Serif" font-size="10.00">src/d/d_resorce.cpp</text>
</a>
</g>
</g>
<!-- Node5&#45;&gt;Node42 -->
<g id="edge38" class="edge">
<title>Node5&#45;&gt;Node42</title>
<path fill="none" stroke="midnightblue" d="M2434.37,-140.1C2456.93,-126.15 2486.24,-108.02 2503.2,-97.53"/>
<polygon fill="midnightblue" stroke="midnightblue" points="2432.46,-137.17 2425.8,-145.4 2436.14,-143.12 2432.46,-137.17"/>
</g>
<!-- Node43 -->
<g id="node35" class="node">
<title>Node43</title>
<g id="a_node35"><a xlink:href="d__simple__model_8cpp.html" target="_top" xlink:title=" ">
<polygon fill="white" stroke="black" points="2586,-78.5 2586,-97.5 2716,-97.5 2716,-78.5 2586,-78.5"/>
<text text-anchor="middle" x="2651" y="-85.5" font-family="Helvetica,sans-Serif" font-size="10.00">src/d/d_simple_model.cpp</text>
</a>
</g>
</g>
<!-- Node5&#45;&gt;Node43 -->
<g id="edge39" class="edge">
<title>Node5&#45;&gt;Node43</title>
<path fill="none" stroke="midnightblue" d="M2462.01,-142.72C2512,-128.51 2581.62,-108.72 2620.91,-97.55"/>
<polygon fill="midnightblue" stroke="midnightblue" points="2460.96,-139.39 2452.29,-145.49 2462.87,-146.12 2460.96,-139.39"/>
</g>
<!-- Node44 -->
<g id="node36" class="node">
<title>Node44</title>
<g id="a_node36"><a xlink:href="d__stage_8cpp.html" target="_top" xlink:title=" ">
<polygon fill="white" stroke="black" points="2734,-78.5 2734,-97.5 2828,-97.5 2828,-78.5 2734,-78.5"/>
<text text-anchor="middle" x="2781" y="-85.5" font-family="Helvetica,sans-Serif" font-size="10.00">src/d/d_stage.cpp</text>
</a>
</g>
</g>
<!-- Node5&#45;&gt;Node44 -->
<g id="edge40" class="edge">
<title>Node5&#45;&gt;Node44</title>
<path fill="none" stroke="midnightblue" d="M2468.23,-152.9C2533.8,-145.43 2637.42,-131.3 2725,-109 2736.81,-105.99 2749.63,-101.51 2760.02,-97.55"/>
<polygon fill="midnightblue" stroke="midnightblue" points="2467.59,-149.45 2458.04,-154.05 2468.37,-156.41 2467.59,-149.45"/>
</g>
<!-- Node45 -->
<g id="node37" class="node">
<title>Node45</title>
<g id="a_node37"><a xlink:href="d__timer_8cpp.html" target="_top" xlink:title=" ">
<polygon fill="white" stroke="black" points="2846,-78.5 2846,-97.5 2938,-97.5 2938,-78.5 2846,-78.5"/>
<text text-anchor="middle" x="2892" y="-85.5" font-family="Helvetica,sans-Serif" font-size="10.00">src/d/d_timer.cpp</text>
</a>
</g>
</g>
<!-- Node5&#45;&gt;Node45 -->
<g id="edge41" class="edge">
<title>Node5&#45;&gt;Node45</title>
<path fill="none" stroke="midnightblue" d="M2468.27,-156.64C2553.92,-151.82 2708.43,-139.42 2837,-109 2848.86,-106.19 2861.69,-101.62 2871.97,-97.56"/>
<polygon fill="midnightblue" stroke="midnightblue" points="2467.97,-153.15 2458.18,-157.19 2468.35,-160.14 2467.97,-153.15"/>
</g>
<!-- Node46 -->
<g id="node38" class="node">
<title>Node46</title>
<g id="a_node38"><a xlink:href="d__tresure_8cpp.html" target="_top" xlink:title=" ">
<polygon fill="white" stroke="black" points="2956,-78.5 2956,-97.5 3056,-97.5 3056,-78.5 2956,-78.5"/>
<text text-anchor="middle" x="3006" y="-85.5" font-family="Helvetica,sans-Serif" font-size="10.00">src/d/d_tresure.cpp</text>
</a>
</g>
</g>
<!-- Node5&#45;&gt;Node46 -->
<g id="edge42" class="edge">
<title>Node5&#45;&gt;Node46</title>
<path fill="none" stroke="midnightblue" d="M2468.3,-158.36C2571.18,-155.46 2776.81,-145.22 2947,-109 2959.8,-106.28 2973.68,-101.66 2984.76,-97.55"/>
<polygon fill="midnightblue" stroke="midnightblue" points="2467.98,-154.87 2458.07,-158.63 2468.16,-161.86 2467.98,-154.87"/>
</g>
<!-- Node47 -->
<g id="node39" class="node">
<title>Node47</title>
<g id="a_node39"><a xlink:href="d__event_8cpp.html" target="_top" xlink:title=" ">
<polygon fill="white" stroke="black" points="3074.5,-78.5 3074.5,-97.5 3195.5,-97.5 3195.5,-78.5 3074.5,-78.5"/>
<text text-anchor="middle" x="3135" y="-85.5" font-family="Helvetica,sans-Serif" font-size="10.00">src/d/event/d_event.cpp</text>
</a>
</g>
</g>
<!-- Node5&#45;&gt;Node47 -->
<g id="edge43" class="edge">
<title>Node5&#45;&gt;Node47</title>
<path fill="none" stroke="midnightblue" d="M2468.48,-158.87C2587.96,-156.77 2848.92,-147.7 3065,-109 3080.05,-106.3 3096.52,-101.69 3109.69,-97.57"/>
<polygon fill="midnightblue" stroke="midnightblue" points="2468.34,-155.38 2458.4,-159.04 2468.46,-162.38 2468.34,-155.38"/>
</g>
<!-- Node48 -->
<g id="node40" class="node">
<title>Node48</title>
<g id="a_node40"><a xlink:href="d__event__data_8cpp.html" target="_top" xlink:title=" ">
<polygon fill="white" stroke="black" points="3213.5,-73 3213.5,-103 3316.5,-103 3316.5,-73 3213.5,-73"/>
<text text-anchor="start" x="3221.5" y="-91" font-family="Helvetica,sans-Serif" font-size="10.00">src/d/event/d_event</text>
<text text-anchor="middle" x="3265" y="-80" font-family="Helvetica,sans-Serif" font-size="10.00">_data.cpp</text>
</a>
</g>
</g>
<!-- Node5&#45;&gt;Node48 -->
<g id="edge44" class="edge">
<title>Node5&#45;&gt;Node48</title>
<path fill="none" stroke="midnightblue" d="M2468.01,-157.57C2632.91,-152.34 3064.33,-136.39 3205,-109 3212.54,-107.53 3220.45,-105.37 3227.95,-103.01"/>
<polygon fill="midnightblue" stroke="midnightblue" points="2467.89,-154.08 2458.01,-157.89 2468.11,-161.07 2467.89,-154.08"/>
</g>
<!-- Node49 -->
<g id="node41" class="node">
<title>Node49</title>
<g id="a_node41"><a xlink:href="d__event__manager_8cpp.html" target="_top" xlink:title=" ">
<polygon fill="white" stroke="black" points="3334.5,-73 3334.5,-103 3437.5,-103 3437.5,-73 3334.5,-73"/>
<text text-anchor="start" x="3342.5" y="-91" font-family="Helvetica,sans-Serif" font-size="10.00">src/d/event/d_event</text>
<text text-anchor="middle" x="3386" y="-80" font-family="Helvetica,sans-Serif" font-size="10.00">_manager.cpp</text>
</a>
</g>
</g>
<!-- Node5&#45;&gt;Node49 -->
<g id="edge45" class="edge">
<title>Node5&#45;&gt;Node49</title>
<path fill="none" stroke="midnightblue" d="M2468.4,-158.19C2650.59,-154.17 3161.3,-140.37 3326,-109 3333.55,-107.56 3341.46,-105.41 3348.96,-103.05"/>
<polygon fill="midnightblue" stroke="midnightblue" points="2468.09,-154.69 2458.16,-158.41 2468.24,-161.69 2468.09,-154.69"/>
</g>
<!-- Node50 -->
<g id="node42" class="node">
<title>Node50</title>
<g id="a_node42"><a xlink:href="d__kankyo__wether_8cpp.html" target="_top" xlink:title=" ">
<polygon fill="white" stroke="black" points="3456,-73 3456,-103 3572,-103 3572,-73 3456,-73"/>
<text text-anchor="start" x="3464" y="-91" font-family="Helvetica,sans-Serif" font-size="10.00">src/d/kankyo/d_kankyo</text>
<text text-anchor="middle" x="3514" y="-80" font-family="Helvetica,sans-Serif" font-size="10.00">_wether.cpp</text>
</a>
</g>
</g>
<!-- Node5&#45;&gt;Node50 -->
<g id="edge47" class="edge">
<title>Node5&#45;&gt;Node50</title>
<path fill="none" stroke="midnightblue" d="M2468.58,-158.4C2666.78,-154.75 3257.55,-141.37 3447,-109 3455.38,-107.57 3464.18,-105.43 3472.55,-103.07"/>
<polygon fill="midnightblue" stroke="midnightblue" points="2468.26,-154.9 2458.32,-158.59 2468.39,-161.9 2468.26,-154.9"/>
</g>
<!-- Node51 -->
<g id="node43" class="node">
<title>Node51</title>
<g id="a_node43"><a xlink:href="d__map__path__dmap_8cpp.html" target="_top" xlink:title=" ">
<polygon fill="white" stroke="black" points="3590,-73 3590,-103 3706,-103 3706,-73 3590,-73"/>
<text text-anchor="start" x="3598" y="-91" font-family="Helvetica,sans-Serif" font-size="10.00">src/d/map/d_map_path</text>
<text text-anchor="middle" x="3648" y="-80" font-family="Helvetica,sans-Serif" font-size="10.00">_dmap.cpp</text>
</a>
</g>
</g>
<!-- Node5&#45;&gt;Node51 -->
<g id="edge48" class="edge">
<title>Node5&#45;&gt;Node51</title>
<path fill="none" stroke="midnightblue" d="M2468.43,-158.82C2683.08,-156.26 3364.38,-145.4 3581,-109 3589.5,-107.57 3598.44,-105.4 3606.92,-103"/>
<polygon fill="midnightblue" stroke="midnightblue" points="2468.23,-155.32 2458.27,-158.94 2468.31,-162.32 2468.23,-155.32"/>
</g>
<!-- Node52 -->
<g id="node44" class="node">
<title>Node52</title>
<g id="a_node44"><a xlink:href="d__menu__window__HIO_8cpp.html" target="_top" xlink:title=" ">
<polygon fill="white" stroke="black" points="3724.5,-73 3724.5,-103 3865.5,-103 3865.5,-73 3724.5,-73"/>
<text text-anchor="start" x="3732.5" y="-91" font-family="Helvetica,sans-Serif" font-size="10.00">src/d/menu/d_menu_window</text>
<text text-anchor="middle" x="3795" y="-80" font-family="Helvetica,sans-Serif" font-size="10.00">_HIO.cpp</text>
</a>
</g>
</g>
<!-- Node5&#45;&gt;Node52 -->
<g id="edge50" class="edge">
<title>Node5&#45;&gt;Node52</title>
<path fill="none" stroke="midnightblue" d="M2468.29,-158.77C2698.3,-155.92 3470.25,-143.92 3715,-109 3724.92,-107.58 3735.4,-105.45 3745.38,-103.09"/>
<polygon fill="midnightblue" stroke="midnightblue" points="2468.03,-155.27 2458.07,-158.9 2468.12,-162.27 2468.03,-155.27"/>
</g>
<!-- Node53 -->
<g id="node45" class="node">
<title>Node53</title>
<g id="a_node45"><a xlink:href="d__s__room_8cpp.html" target="_top" xlink:title=" ">
<polygon fill="white" stroke="black" points="3884,-78.5 3884,-97.5 3994,-97.5 3994,-78.5 3884,-78.5"/>
<text text-anchor="middle" x="3939" y="-85.5" font-family="Helvetica,sans-Serif" font-size="10.00">src/d/s/d_s_room.cpp</text>
</a>
</g>
</g>
<!-- Node5&#45;&gt;Node53 -->
<g id="edge55" class="edge">
<title>Node5&#45;&gt;Node53</title>
<path fill="none" stroke="midnightblue" d="M2468.29,-159.58C2716.14,-159.55 3598.69,-156.03 3875,-109 3889.23,-106.58 3904.69,-101.81 3916.85,-97.54"/>
<polygon fill="midnightblue" stroke="midnightblue" points="2468.01,-156.08 2458.01,-159.58 2468.01,-163.08 2468.01,-156.08"/>
</g>
<!-- Node5&#45;&gt;Node54 -->
<g id="edge56" class="edge">
<title>Node5&#45;&gt;Node54</title>
<path fill="none" stroke="midnightblue" d="M2337.22,-159.31C2034.1,-158.19 770.07,-151.05 377,-109 354.12,-106.55 328.77,-101.78 308.71,-97.52"/>
<polygon fill="midnightblue" stroke="midnightblue" points="2337.58,-162.81 2347.59,-159.34 2337.6,-155.81 2337.58,-162.81"/>
</g>
<!-- Node55 -->
<g id="node47" class="node">
<title>Node55</title>
<g id="a_node47"><a xlink:href="d__save__HIO_8cpp.html" target="_top" xlink:title=" ">
<polygon fill="white" stroke="black" points="4012,-78.5 4012,-97.5 4150,-97.5 4150,-78.5 4012,-78.5"/>
<text text-anchor="middle" x="4081" y="-85.5" font-family="Helvetica,sans-Serif" font-size="10.00">src/d/save/d_save_HIO.cpp</text>
</a>
</g>
</g>
<!-- Node5&#45;&gt;Node55 -->
<g id="edge57" class="edge">
<title>Node5&#45;&gt;Node55</title>
<path fill="none" stroke="midnightblue" d="M2468.2,-159.35C2729.21,-158.45 3699.24,-152.2 4003,-109 4020.16,-106.56 4039,-101.79 4053.86,-97.52"/>
<polygon fill="midnightblue" stroke="midnightblue" points="2468.11,-155.85 2458.12,-159.38 2468.13,-162.85 2468.11,-155.85"/>
</g>
<!-- Node56 -->
<g id="node48" class="node">
<title>Node56</title>
<g id="a_node48"><a xlink:href="m__Do__MemCardRWmng_8cpp.html" target="_top" xlink:title=" ">
<polygon fill="white" stroke="black" points="4168.5,-78.5 4168.5,-97.5 4355.5,-97.5 4355.5,-78.5 4168.5,-78.5"/>
<text text-anchor="middle" x="4262" y="-85.5" font-family="Helvetica,sans-Serif" font-size="10.00">src/m_Do/m_Do_MemCardRWmng.cpp</text>
</a>
</g>
</g>
<!-- Node5&#45;&gt;Node56 -->
<g id="edge59" class="edge">
<title>Node5&#45;&gt;Node56</title>
<path fill="none" stroke="midnightblue" d="M2468.42,-159.05C2745.31,-156.91 3821.93,-146.32 4159,-109 4181.27,-106.53 4205.92,-101.82 4225.52,-97.59"/>
<polygon fill="midnightblue" stroke="midnightblue" points="2468.12,-155.55 2458.14,-159.13 2468.17,-162.55 2468.12,-155.55"/>
</g>
<!-- Node13&#45;&gt;Node14 -->
<g id="edge8" class="edge">
<title>Node13&#45;&gt;Node14</title>
<path fill="none" stroke="midnightblue" d="M4582.19,-73.47C4604.19,-61.16 4636.54,-43.05 4658.84,-30.58"/>
<polygon fill="midnightblue" stroke="midnightblue" points="4580.47,-70.42 4573.45,-78.36 4583.89,-76.53 4580.47,-70.42"/>
</g>
<!-- Node13&#45;&gt;Node15 -->
<g id="edge9" class="edge">
<title>Node13&#45;&gt;Node15</title>
<path fill="none" stroke="midnightblue" d="M4529.39,-74.72C4520.75,-71.57 4511.13,-68.63 4502,-67 4086.96,6.92 1125.69,-88.12 708,-31 698.86,-29.75 689.07,-27.43 680.37,-25.01"/>
<polygon fill="midnightblue" stroke="midnightblue" points="4528.41,-78.09 4539,-78.43 4530.93,-71.56 4528.41,-78.09"/>
</g>
<!-- Node13&#45;&gt;Node8 -->
<g id="edge10" class="edge">
<title>Node13&#45;&gt;Node8</title>
<path fill="none" stroke="midnightblue" d="M4554.56,-68.36C4551.99,-54.4 4548.58,-35.93 4546.61,-25.22"/>
<polygon fill="midnightblue" stroke="midnightblue" points="4551.15,-69.16 4556.41,-78.36 4558.03,-67.89 4551.15,-69.16"/>
</g>
<!-- Node13&#45;&gt;Node9 -->
<g id="edge11" class="edge">
<title>Node13&#45;&gt;Node9</title>
<path fill="none" stroke="midnightblue" d="M4529.39,-74.74C4520.75,-71.6 4511.13,-68.65 4502,-67 4324.94,-35.03 1522.13,-19.42 1021.29,-16.87"/>
<polygon fill="midnightblue" stroke="midnightblue" points="4528.4,-78.12 4538.99,-78.45 4530.92,-71.58 4528.4,-78.12"/>
</g>
<!-- Node17&#45;&gt;Node19 -->
<g id="edge13" class="edge">
<title>Node17&#45;&gt;Node19</title>
<path fill="none" stroke="midnightblue" d="M4892.87,-63.73C4898.9,-52.83 4905.89,-40.2 4911.12,-30.75"/>
<polygon fill="midnightblue" stroke="midnightblue" points="4889.67,-62.29 4887.89,-72.73 4895.8,-65.68 4889.67,-62.29"/>
</g>
<!-- Node24&#45;&gt;Node8 -->
<g id="edge23" class="edge">
<title>Node24&#45;&gt;Node8</title>
<path fill="none" stroke="midnightblue" d="M786.14,-72.42C798.33,-70.2 811.01,-68.25 823,-67 1199.73,-27.83 4007.87,-18.05 4478.25,-16.68"/>
<polygon fill="midnightblue" stroke="midnightblue" points="785.22,-69.03 776.05,-74.33 786.52,-75.91 785.22,-69.03"/>
</g>
<!-- Node24&#45;&gt;Node9 -->
<g id="edge24" class="edge">
<title>Node24&#45;&gt;Node9</title>
<path fill="none" stroke="midnightblue" d="M775.15,-69.96C820.24,-55.77 882.56,-36.15 917.82,-25.05"/>
<polygon fill="midnightblue" stroke="midnightblue" points="774.01,-66.65 765.52,-72.99 776.11,-73.32 774.01,-66.65"/>
</g>
<!-- Node24&#45;&gt;Node19 -->
<g id="edge20" class="edge">
<title>Node24&#45;&gt;Node19</title>
<path fill="none" stroke="midnightblue" d="M786.14,-72.37C798.33,-70.17 811.01,-68.22 823,-67 1256.78,-22.86 4311.46,-51.33 4747,-31 4786.06,-29.18 4830,-25.44 4863.68,-22.22"/>
<polygon fill="midnightblue" stroke="midnightblue" points="785.22,-68.99 776.04,-74.28 786.52,-75.86 785.22,-68.99"/>
</g>
<!-- Node24&#45;&gt;Node25 -->
<g id="edge18" class="edge">
<title>Node24&#45;&gt;Node25</title>
<path fill="none" stroke="midnightblue" d="M740.43,-65.26C752.42,-51.84 767.16,-35.35 776.05,-25.39"/>
<polygon fill="midnightblue" stroke="midnightblue" points="737.8,-62.94 733.75,-72.73 743.02,-67.61 737.8,-62.94"/>
</g>
<!-- Node24&#45;&gt;Node26 -->
<g id="edge19" class="edge">
<title>Node24&#45;&gt;Node26</title>
<path fill="none" stroke="midnightblue" d="M655.85,-77.4C581.74,-66.43 457.1,-47.81 350,-31 337.94,-29.11 324.96,-27.02 312.75,-25.04"/>
<polygon fill="midnightblue" stroke="midnightblue" points="655.56,-80.9 665.97,-78.9 656.59,-73.97 655.56,-80.9"/>
</g>
<!-- Node24&#45;&gt;Node27 -->
<g id="edge21" class="edge">
<title>Node24&#45;&gt;Node27</title>
<path fill="none" stroke="midnightblue" d="M674.58,-69.31C643.14,-57.33 602.15,-41.71 572.93,-30.57"/>
<polygon fill="midnightblue" stroke="midnightblue" points="673.42,-72.61 684.01,-72.9 675.91,-66.07 673.42,-72.61"/>
</g>
<!-- Node24&#45;&gt;Node28 -->
<g id="edge22" class="edge">
<title>Node24&#45;&gt;Node28</title>
<path fill="none" stroke="midnightblue" d="M655.81,-72.57C605.55,-61.38 534.33,-45.42 472,-31 469.14,-30.34 466.2,-29.65 463.23,-28.96"/>
<polygon fill="midnightblue" stroke="midnightblue" points="655.05,-75.98 665.57,-74.74 656.57,-69.15 655.05,-75.98"/>
</g>
<!-- Node60&#45;&gt;Node3 -->
<g id="edge62" class="edge">
<title>Node60&#45;&gt;Node3</title>
<path fill="none" stroke="midnightblue" d="M86.62,-182.56C102.34,-197.48 122.72,-217.37 143,-232 162.84,-246.31 187.26,-259.2 205.16,-268.38"/>
<polygon fill="midnightblue" stroke="midnightblue" points="88.98,-179.97 79.29,-175.68 84.18,-185.07 88.98,-179.97"/>
</g>
<!-- Node60&#45;&gt;Node26 -->
<g id="edge63" class="edge">
<title>Node60&#45;&gt;Node26</title>
<path fill="none" stroke="midnightblue" d="M70.42,-136.1C80.76,-115.31 98.48,-85.42 122,-67 149.69,-45.31 187.55,-32.37 216.77,-25.03"/>
<polygon fill="midnightblue" stroke="midnightblue" points="67.21,-134.69 66.06,-145.22 73.53,-137.71 67.21,-134.69"/>
</g>
<!-- Node60&#45;&gt;Node28 -->
<g id="edge64" class="edge">
<title>Node60&#45;&gt;Node28</title>
<path fill="none" stroke="midnightblue" d="M84.87,-138.44C116.32,-111.89 167.01,-69.38 172,-67 244.44,-32.41 270.57,-48.14 349,-31 352.24,-30.29 355.57,-29.55 358.93,-28.79"/>
<polygon fill="midnightblue" stroke="midnightblue" points="82.32,-136.01 76.94,-145.14 86.84,-141.36 82.32,-136.01"/>
</g>
</g>
</svg>
