<?xml version="1.0" encoding="UTF-8" standalone="no"?>
<!DOCTYPE svg PUBLIC "-//W3C//DTD SVG 1.1//EN"
 "http://www.w3.org/Graphics/SVG/1.1/DTD/svg11.dtd">
<!-- Generated by graphviz version 2.50.0 (20220203.2022)
 -->
<!-- Title: include/d/meter/d_meter2_info.h Pages: 1 -->
<svg width="4266pt" height="296pt"
 viewBox="0.00 0.00 4266.41 296.00" xmlns="http://www.w3.org/2000/svg" xmlns:xlink="http://www.w3.org/1999/xlink">
<g id="graph0" class="graph" transform="scale(1 1) rotate(0) translate(4 292)">
<title>include/d/meter/d_meter2_info.h</title>
<polygon fill="white" stroke="transparent" points="-4,4 -4,-292 4262.41,-292 4262.41,4 -4,4"/>
<!-- Node1 -->
<g id="node1" class="node">
<title>Node1</title>
<g id="a_node1"><a xlink:title=" ">
<polygon fill="#bfbfbf" stroke="black" points="213.5,-257.5 213.5,-287.5 340.5,-287.5 340.5,-257.5 213.5,-257.5"/>
<text text-anchor="start" x="221.5" y="-275.5" font-family="Helvetica,sans-Serif" font-size="10.00">include/d/meter/d_meter2</text>
<text text-anchor="middle" x="277" y="-264.5" font-family="Helvetica,sans-Serif" font-size="10.00">_info.h</text>
</a>
</g>
</g>
<!-- Node2 -->
<g id="node2" class="node">
<title>Node2</title>
<g id="a_node2"><a xlink:href="d__a__alink_8h.html" target="_top" xlink:title=" ">
<polygon fill="white" stroke="black" points="262,-201.5 262,-220.5 378,-220.5 378,-201.5 262,-201.5"/>
<text text-anchor="middle" x="320" y="-208.5" font-family="Helvetica,sans-Serif" font-size="10.00">include/d/a/d_a_alink.h</text>
</a>
</g>
</g>
<!-- Node1&#45;&gt;Node2 -->
<g id="edge1" class="edge">
<title>Node1&#45;&gt;Node2</title>
<path fill="none" stroke="midnightblue" d="M293.19,-249.1C300.35,-239.19 308.36,-228.11 313.74,-220.66"/>
<polygon fill="midnightblue" stroke="midnightblue" points="290.21,-247.24 287.19,-257.4 295.88,-251.34 290.21,-247.24"/>
</g>
<!-- Node7 -->
<g id="node7" class="node">
<title>Node7</title>
<g id="a_node7"><a xlink:href="d__com__inf__game_8cpp.html" target="_top" xlink:title=" ">
<polygon fill="white" stroke="black" points="3526,-0.5 3526,-30.5 3634,-30.5 3634,-0.5 3526,-0.5"/>
<text text-anchor="start" x="3534" y="-18.5" font-family="Helvetica,sans-Serif" font-size="10.00">src/d/com/d_com_inf</text>
<text text-anchor="middle" x="3580" y="-7.5" font-family="Helvetica,sans-Serif" font-size="10.00">_game.cpp</text>
</a>
</g>
</g>
<!-- Node1&#45;&gt;Node7 -->
<g id="edge62" class="edge">
<title>Node1&#45;&gt;Node7</title>
<path fill="none" stroke="midnightblue" d="M350.97,-271.2C881.95,-268.65 4096.09,-247.08 4232,-98 4320.6,-0.81 3774.19,-49.61 3644,-31 3640.73,-30.53 3637.38,-29.98 3634.01,-29.38"/>
<polygon fill="midnightblue" stroke="midnightblue" points="350.74,-267.7 340.75,-271.24 350.77,-274.7 350.74,-267.7"/>
</g>
<!-- Node8 -->
<g id="node8" class="node">
<title>Node8</title>
<g id="a_node8"><a xlink:href="d__item_8cpp.html" target="_top" xlink:title=" ">
<polygon fill="white" stroke="black" points="4005.5,-6 4005.5,-25 4094.5,-25 4094.5,-6 4005.5,-6"/>
<text text-anchor="middle" x="4050" y="-13" font-family="Helvetica,sans-Serif" font-size="10.00">src/d/d_item.cpp</text>
</a>
</g>
</g>
<!-- Node1&#45;&gt;Node8 -->
<g id="edge63" class="edge">
<title>Node1&#45;&gt;Node8</title>
<path fill="none" stroke="midnightblue" d="M350.56,-271.68C683.94,-272.22 2086.57,-271.21 3236,-221 3462.77,-211.1 4115.12,-280.56 4250,-98 4291.72,-41.53 4165.41,-24.07 4094.55,-18.76"/>
<polygon fill="midnightblue" stroke="midnightblue" points="350.55,-268.18 340.54,-271.67 350.54,-275.18 350.55,-268.18"/>
</g>
<!-- Node20 -->
<g id="node20" class="node">
<title>Node20</title>
<g id="a_node20"><a xlink:href="d__meter2__info_8cpp.html" target="_top" xlink:title=" ">
<polygon fill="white" stroke="black" points="2723,-0.5 2723,-30.5 2833,-30.5 2833,-0.5 2723,-0.5"/>
<text text-anchor="start" x="2731" y="-18.5" font-family="Helvetica,sans-Serif" font-size="10.00">src/d/meter/d_meter2</text>
<text text-anchor="middle" x="2778" y="-7.5" font-family="Helvetica,sans-Serif" font-size="10.00">_info.cpp</text>
</a>
</g>
</g>
<!-- Node1&#45;&gt;Node20 -->
<g id="edge64" class="edge">
<title>Node1&#45;&gt;Node20</title>
<path fill="none" stroke="midnightblue" d="M264.07,-248.43C242.25,-206.08 204.93,-115.78 253,-67 300.99,-18.3 2646.11,-39.1 2714,-31 2716.94,-30.65 2719.95,-30.22 2722.97,-29.73"/>
<polygon fill="midnightblue" stroke="midnightblue" points="261.06,-250.23 268.84,-257.42 267.24,-246.94 261.06,-250.23"/>
</g>
<!-- Node43 -->
<g id="node43" class="node">
<title>Node43</title>
<g id="a_node43"><a xlink:href="d__save_8cpp.html" target="_top" xlink:title=" ">
<polygon fill="white" stroke="black" points="4107.5,-73 4107.5,-92 4222.5,-92 4222.5,-73 4107.5,-73"/>
<text text-anchor="middle" x="4165" y="-80" font-family="Helvetica,sans-Serif" font-size="10.00">src/d/save/d_save.cpp</text>
</a>
</g>
</g>
<!-- Node1&#45;&gt;Node43 -->
<g id="edge65" class="edge">
<title>Node1&#45;&gt;Node43</title>
<path fill="none" stroke="midnightblue" d="M351.05,-269.84C815.7,-259.13 3333.98,-197.31 4098,-98 4108.74,-96.6 4120.31,-94.37 4130.76,-92.07"/>
<polygon fill="midnightblue" stroke="midnightblue" points="350.7,-266.34 340.78,-270.07 350.86,-273.34 350.7,-266.34"/>
</g>
<!-- Node47 -->
<g id="node47" class="node">
<title>Node47</title>
<g id="a_node47"><a xlink:href="d__menu__window_8h.html" target="_top" xlink:title=" ">
<polygon fill="white" stroke="black" points="0,-134.5 0,-164.5 120,-164.5 120,-134.5 0,-134.5"/>
<text text-anchor="start" x="8" y="-152.5" font-family="Helvetica,sans-Serif" font-size="10.00">include/d/menu/d_menu</text>
<text text-anchor="middle" x="60" y="-141.5" font-family="Helvetica,sans-Serif" font-size="10.00">_window.h</text>
</a>
</g>
</g>
<!-- Node1&#45;&gt;Node47 -->
<g id="edge58" class="edge">
<title>Node1&#45;&gt;Node47</title>
<path fill="none" stroke="midnightblue" d="M225.22,-253.58C203.58,-244.55 178.6,-233 157,-221 125.51,-203.51 91.14,-179.71 72.66,-164.73"/>
<polygon fill="midnightblue" stroke="midnightblue" points="224.01,-256.86 234.59,-257.41 226.66,-250.38 224.01,-256.86"/>
</g>
<!-- Node3 -->
<g id="node3" class="node">
<title>Node3</title>
<g id="a_node3"><a xlink:href="d__com__inf__game_8h.html" target="_top" xlink:title=" ">
<polygon fill="white" stroke="black" points="2327,-134.5 2327,-164.5 2437,-164.5 2437,-134.5 2327,-134.5"/>
<text text-anchor="start" x="2335" y="-152.5" font-family="Helvetica,sans-Serif" font-size="10.00">include/d/com/d_com</text>
<text text-anchor="middle" x="2382" y="-141.5" font-family="Helvetica,sans-Serif" font-size="10.00">_inf_game.h</text>
</a>
</g>
</g>
<!-- Node2&#45;&gt;Node3 -->
<g id="edge2" class="edge">
<title>Node2&#45;&gt;Node3</title>
<path fill="none" stroke="midnightblue" d="M388.58,-208.02C707.13,-198.83 2039.12,-160.39 2326.99,-152.09"/>
<polygon fill="midnightblue" stroke="midnightblue" points="388.01,-204.54 378.12,-208.32 388.21,-211.53 388.01,-204.54"/>
</g>
<!-- Node25 -->
<g id="node25" class="node">
<title>Node25</title>
<g id="a_node25"><a xlink:href="d__a__alink_8cpp.html" target="_top" xlink:title=" ">
<polygon fill="white" stroke="black" points="262.5,-73 262.5,-92 371.5,-92 371.5,-73 262.5,-73"/>
<text text-anchor="middle" x="317" y="-80" font-family="Helvetica,sans-Serif" font-size="10.00">src/d/a/d_a_alink.cpp</text>
</a>
</g>
</g>
<!-- Node2&#45;&gt;Node25 -->
<g id="edge57" class="edge">
<title>Node2&#45;&gt;Node25</title>
<path fill="none" stroke="midnightblue" d="M319.56,-191.31C318.9,-163.58 317.69,-112.63 317.21,-92.26"/>
<polygon fill="midnightblue" stroke="midnightblue" points="316.06,-191.39 319.79,-201.31 323.06,-191.22 316.06,-191.39"/>
</g>
<!-- Node4 -->
<g id="node4" class="node">
<title>Node4</title>
<g id="a_node4"><a xlink:href="d__cc__uty_8h.html" target="_top" xlink:title=" ">
<polygon fill="white" stroke="black" points="3336.5,-73 3336.5,-92 3455.5,-92 3455.5,-73 3336.5,-73"/>
<text text-anchor="middle" x="3396" y="-80" font-family="Helvetica,sans-Serif" font-size="10.00">include/d/cc/d_cc_uty.h</text>
</a>
</g>
</g>
<!-- Node3&#45;&gt;Node4 -->
<g id="edge3" class="edge">
<title>Node3&#45;&gt;Node4</title>
<path fill="none" stroke="midnightblue" d="M2447.35,-148.46C2601.31,-147.6 2998.56,-141.03 3327,-98 3338.04,-96.55 3349.96,-94.3 3360.72,-92"/>
<polygon fill="midnightblue" stroke="midnightblue" points="2447.11,-144.96 2437.13,-148.51 2447.15,-151.96 2447.11,-144.96"/>
</g>
<!-- Node6 -->
<g id="node6" class="node">
<title>Node6</title>
<g id="a_node6"><a xlink:href="d__item_8h.html" target="_top" xlink:title=" ">
<polygon fill="white" stroke="black" points="3473.5,-73 3473.5,-92 3568.5,-92 3568.5,-73 3473.5,-73"/>
<text text-anchor="middle" x="3521" y="-80" font-family="Helvetica,sans-Serif" font-size="10.00">include/d/d_item.h</text>
</a>
</g>
</g>
<!-- Node3&#45;&gt;Node6 -->
<g id="edge5" class="edge">
<title>Node3&#45;&gt;Node6</title>
<path fill="none" stroke="midnightblue" d="M2447.19,-147.23C2649.84,-142.99 3266.98,-127.92 3465,-98 3474.14,-96.62 3483.94,-94.36 3492.75,-92.03"/>
<polygon fill="midnightblue" stroke="midnightblue" points="2446.93,-143.73 2437,-147.44 2447.08,-150.73 2446.93,-143.73"/>
</g>
<!-- Node3&#45;&gt;Node7 -->
<g id="edge35" class="edge">
<title>Node3&#45;&gt;Node7</title>
<path fill="none" stroke="midnightblue" d="M2447.3,-148.18C2691.37,-146.69 3538.13,-138.58 3578,-98 3595.36,-80.33 3589.92,-48.73 3584.74,-30.51"/>
<polygon fill="midnightblue" stroke="midnightblue" points="2447.14,-144.68 2437.16,-148.24 2447.18,-151.68 2447.14,-144.68"/>
</g>
<!-- Node10 -->
<g id="node10" class="node">
<title>Node10</title>
<g id="a_node10"><a xlink:href="d__kantera__icon__meter_8h.html" target="_top" xlink:title=" ">
<polygon fill="white" stroke="black" points="3086.5,-67.5 3086.5,-97.5 3187.5,-97.5 3187.5,-67.5 3086.5,-67.5"/>
<text text-anchor="start" x="3094.5" y="-85.5" font-family="Helvetica,sans-Serif" font-size="10.00">include/d/d_kantera</text>
<text text-anchor="middle" x="3137" y="-74.5" font-family="Helvetica,sans-Serif" font-size="10.00">_icon_meter.h</text>
</a>
</g>
</g>
<!-- Node3&#45;&gt;Node10 -->
<g id="edge9" class="edge">
<title>Node3&#45;&gt;Node10</title>
<path fill="none" stroke="midnightblue" d="M2447.31,-146.9C2570.21,-143.19 2844.02,-131.59 3072,-98 3076.69,-97.31 3081.54,-96.47 3086.39,-95.54"/>
<polygon fill="midnightblue" stroke="midnightblue" points="2447.2,-143.4 2437.31,-147.2 2447.41,-150.4 2447.2,-143.4"/>
</g>
<!-- Node12 -->
<g id="node12" class="node">
<title>Node12</title>
<g id="a_node12"><a xlink:href="d__meter2__draw_8cpp.html" target="_top" xlink:title=" ">
<polygon fill="white" stroke="black" points="3003,-0.5 3003,-30.5 3113,-30.5 3113,-0.5 3003,-0.5"/>
<text text-anchor="start" x="3011" y="-18.5" font-family="Helvetica,sans-Serif" font-size="10.00">src/d/meter/d_meter2</text>
<text text-anchor="middle" x="3058" y="-7.5" font-family="Helvetica,sans-Serif" font-size="10.00">_draw.cpp</text>
</a>
</g>
</g>
<!-- Node3&#45;&gt;Node12 -->
<g id="edge48" class="edge">
<title>Node3&#45;&gt;Node12</title>
<path fill="none" stroke="midnightblue" d="M2447.49,-146.22C2596.52,-140.61 2951.82,-124.57 2999,-98 3025.94,-82.83 3043.83,-49.68 3052.31,-30.66"/>
<polygon fill="midnightblue" stroke="midnightblue" points="2446.98,-142.74 2437.12,-146.61 2447.24,-149.74 2446.98,-142.74"/>
</g>
<!-- Node13 -->
<g id="node13" class="node">
<title>Node13</title>
<g id="a_node13"><a xlink:href="d__file__sel__info_8h.html" target="_top" xlink:title=" ">
<polygon fill="white" stroke="black" points="3625,-67.5 3625,-97.5 3721,-97.5 3721,-67.5 3625,-67.5"/>
<text text-anchor="start" x="3633" y="-85.5" font-family="Helvetica,sans-Serif" font-size="10.00">include/d/file/d_file</text>
<text text-anchor="middle" x="3673" y="-74.5" font-family="Helvetica,sans-Serif" font-size="10.00">_sel_info.h</text>
</a>
</g>
</g>
<!-- Node3&#45;&gt;Node13 -->
<g id="edge12" class="edge">
<title>Node3&#45;&gt;Node13</title>
<path fill="none" stroke="midnightblue" d="M2447.19,-147.44C2667.45,-143.62 3382.93,-129.07 3611,-98 3615.49,-97.39 3620.13,-96.6 3624.76,-95.71"/>
<polygon fill="midnightblue" stroke="midnightblue" points="2447.02,-143.95 2437.08,-147.62 2447.14,-150.95 2447.02,-143.95"/>
</g>
<!-- Node15 -->
<g id="node15" class="node">
<title>Node15</title>
<g id="a_node15"><a xlink:href="d__meter2_8h.html" target="_top" xlink:title=" ">
<polygon fill="white" stroke="black" points="72,-73 72,-92 206,-92 206,-73 72,-73"/>
<text text-anchor="middle" x="139" y="-80" font-family="Helvetica,sans-Serif" font-size="10.00">include/d/meter/d_meter2.h</text>
</a>
</g>
</g>
<!-- Node3&#45;&gt;Node15 -->
<g id="edge14" class="edge">
<title>Node3&#45;&gt;Node15</title>
<path fill="none" stroke="midnightblue" d="M2316.5,-147.86C2004.72,-144.65 668.8,-129.29 253,-98 234.7,-96.62 214.83,-94.36 196.88,-92.03"/>
<polygon fill="midnightblue" stroke="midnightblue" points="2316.69,-151.36 2326.73,-147.96 2316.76,-144.36 2316.69,-151.36"/>
</g>
<!-- Node17 -->
<g id="node17" class="node">
<title>Node17</title>
<g id="a_node17"><a xlink:href="d__msg__object_8h.html" target="_top" xlink:title=" ">
<polygon fill="white" stroke="black" points="2844,-67.5 2844,-97.5 2954,-97.5 2954,-67.5 2844,-67.5"/>
<text text-anchor="start" x="2852" y="-85.5" font-family="Helvetica,sans-Serif" font-size="10.00">include/d/msg/d_msg</text>
<text text-anchor="middle" x="2899" y="-74.5" font-family="Helvetica,sans-Serif" font-size="10.00">_object.h</text>
</a>
</g>
</g>
<!-- Node3&#45;&gt;Node17 -->
<g id="edge17" class="edge">
<title>Node3&#45;&gt;Node17</title>
<path fill="none" stroke="midnightblue" d="M2447.09,-143.11C2534.51,-135.44 2694.53,-119.82 2830,-98 2834.47,-97.28 2839.09,-96.46 2843.72,-95.6"/>
<polygon fill="midnightblue" stroke="midnightblue" points="2446.71,-139.63 2437.06,-143.99 2447.32,-146.61 2446.71,-139.63"/>
</g>
<!-- Node18 -->
<g id="node18" class="node">
<title>Node18</title>
<g id="a_node18"><a xlink:href="d__kankyo_8cpp.html" target="_top" xlink:title=" ">
<polygon fill="white" stroke="black" points="2851,-6 2851,-25 2985,-25 2985,-6 2851,-6"/>
<text text-anchor="middle" x="2918" y="-13" font-family="Helvetica,sans-Serif" font-size="10.00">src/d/kankyo/d_kankyo.cpp</text>
</a>
</g>
</g>
<!-- Node3&#45;&gt;Node18 -->
<g id="edge44" class="edge">
<title>Node3&#45;&gt;Node18</title>
<path fill="none" stroke="midnightblue" d="M2447.5,-147.86C2595.46,-145.75 2945.46,-136.66 2981,-98 3003.87,-73.12 2958.63,-40.55 2933.39,-25.21"/>
<polygon fill="midnightblue" stroke="midnightblue" points="2447.16,-144.37 2437.2,-148 2447.25,-151.37 2447.16,-144.37"/>
</g>
<!-- Node19 -->
<g id="node19" class="node">
<title>Node19</title>
<g id="a_node19"><a xlink:href="d__menu__window_8cpp.html" target="_top" xlink:title=" ">
<polygon fill="white" stroke="black" points="2263.5,-6 2263.5,-25 2422.5,-25 2422.5,-6 2263.5,-6"/>
<text text-anchor="middle" x="2343" y="-13" font-family="Helvetica,sans-Serif" font-size="10.00">src/d/menu/d_menu_window.cpp</text>
</a>
</g>
</g>
<!-- Node3&#45;&gt;Node19 -->
<g id="edge46" class="edge">
<title>Node3&#45;&gt;Node19</title>
<path fill="none" stroke="midnightblue" d="M2447.46,-144.34C2549.74,-137.16 2737.9,-120.98 2758,-98 2767.07,-87.63 2767.19,-77.26 2758,-67 2709.37,-12.71 2504.21,-40.86 2432,-31 2419.13,-29.24 2405.24,-27.1 2392.36,-25.01"/>
<polygon fill="midnightblue" stroke="midnightblue" points="2446.97,-140.86 2437.24,-145.04 2447.45,-147.85 2446.97,-140.86"/>
</g>
<!-- Node3&#45;&gt;Node20 -->
<g id="edge49" class="edge">
<title>Node3&#45;&gt;Node20</title>
<path fill="none" stroke="midnightblue" d="M2447.11,-147.69C2591.53,-145.2 2928.69,-135.42 2963,-98 2972.31,-87.84 2971.36,-77.95 2963,-67 2958.92,-61.66 2886.36,-42.96 2833.35,-29.88"/>
<polygon fill="midnightblue" stroke="midnightblue" points="2447,-144.19 2437.05,-147.85 2447.11,-151.19 2447,-144.19"/>
</g>
<!-- Node21 -->
<g id="node21" class="node">
<title>Node21</title>
<g id="a_node21"><a xlink:href="d__meter__map_8cpp.html" target="_top" xlink:title=" ">
<polygon fill="white" stroke="black" points="2441,-0.5 2441,-30.5 2545,-30.5 2545,-0.5 2441,-0.5"/>
<text text-anchor="start" x="2449" y="-18.5" font-family="Helvetica,sans-Serif" font-size="10.00">src/d/meter/d_meter</text>
<text text-anchor="middle" x="2493" y="-7.5" font-family="Helvetica,sans-Serif" font-size="10.00">_map.cpp</text>
</a>
</g>
</g>
<!-- Node3&#45;&gt;Node21 -->
<g id="edge50" class="edge">
<title>Node3&#45;&gt;Node21</title>
<path fill="none" stroke="midnightblue" d="M2447.35,-144.77C2553.72,-138.04 2754.67,-122.24 2776,-98 2882.95,23.54 3020.32,-124.1 2554,-31 2551.12,-30.42 2548.17,-29.81 2545.19,-29.17"/>
<polygon fill="midnightblue" stroke="midnightblue" points="2446.81,-141.3 2437.04,-145.42 2447.24,-148.29 2446.81,-141.3"/>
</g>
<!-- Node23 -->
<g id="node23" class="node">
<title>Node23</title>
<g id="a_node23"><a xlink:href="d__s__play_8h.html" target="_top" xlink:title=" ">
<polygon fill="white" stroke="black" points="3205.5,-73 3205.5,-92 3318.5,-92 3318.5,-73 3205.5,-73"/>
<text text-anchor="middle" x="3262" y="-80" font-family="Helvetica,sans-Serif" font-size="10.00">include/d/s/d_s_play.h</text>
</a>
</g>
</g>
<!-- Node3&#45;&gt;Node23 -->
<g id="edge25" class="edge">
<title>Node3&#45;&gt;Node23</title>
<path fill="none" stroke="midnightblue" d="M2447.1,-147.86C2585.58,-145.76 2919.32,-136.74 3196,-98 3206.46,-96.54 3217.72,-94.31 3227.93,-92.04"/>
<polygon fill="midnightblue" stroke="midnightblue" points="2447.03,-144.36 2437.08,-148.01 2447.13,-151.36 2447.03,-144.36"/>
</g>
<!-- Node24 -->
<g id="node24" class="node">
<title>Node24</title>
<g id="a_node24"><a xlink:href="c__dylink_8cpp.html" target="_top" xlink:title=" ">
<polygon fill="white" stroke="black" points="3739.5,-73 3739.5,-92 3834.5,-92 3834.5,-73 3739.5,-73"/>
<text text-anchor="middle" x="3787" y="-80" font-family="Helvetica,sans-Serif" font-size="10.00">src/c/c_dylink.cpp</text>
</a>
</g>
</g>
<!-- Node3&#45;&gt;Node24 -->
<g id="edge28" class="edge">
<title>Node3&#45;&gt;Node24</title>
<path fill="none" stroke="midnightblue" d="M2447.14,-147.89C2681.03,-145.39 3477.91,-134.37 3730,-98 3739.4,-96.64 3749.49,-94.36 3758.53,-92"/>
<polygon fill="midnightblue" stroke="midnightblue" points="2447.05,-144.39 2437.08,-147.99 2447.12,-151.39 2447.05,-144.39"/>
</g>
<!-- Node3&#45;&gt;Node25 -->
<g id="edge29" class="edge">
<title>Node3&#45;&gt;Node25</title>
<path fill="none" stroke="midnightblue" d="M2316.5,-148.59C2016.09,-148.71 768.23,-146.27 381,-98 370.49,-96.69 359.16,-94.42 349.01,-92.06"/>
<polygon fill="midnightblue" stroke="midnightblue" points="2316.78,-152.09 2326.78,-148.58 2316.78,-145.09 2316.78,-152.09"/>
</g>
<!-- Node26 -->
<g id="node26" class="node">
<title>Node26</title>
<g id="a_node26"><a xlink:href="d__a__player_8cpp.html" target="_top" xlink:title=" ">
<polygon fill="white" stroke="black" points="3853,-73 3853,-92 3967,-92 3967,-73 3853,-73"/>
<text text-anchor="middle" x="3910" y="-80" font-family="Helvetica,sans-Serif" font-size="10.00">src/d/a/d_a_player.cpp</text>
</a>
</g>
</g>
<!-- Node3&#45;&gt;Node26 -->
<g id="edge30" class="edge">
<title>Node3&#45;&gt;Node26</title>
<path fill="none" stroke="midnightblue" d="M2447.57,-147.82C2694.47,-145.01 3568.11,-132.78 3844,-98 3854.71,-96.65 3866.24,-94.4 3876.63,-92.07"/>
<polygon fill="midnightblue" stroke="midnightblue" points="2447.28,-144.32 2437.32,-147.93 2447.36,-151.32 2447.28,-144.32"/>
</g>
<!-- Node27 -->
<g id="node27" class="node">
<title>Node27</title>
<g id="a_node27"><a xlink:href="d__bg__s_8cpp.html" target="_top" xlink:title=" ">
<polygon fill="white" stroke="black" points="3985,-73 3985,-92 4089,-92 4089,-73 3985,-73"/>
<text text-anchor="middle" x="4037" y="-80" font-family="Helvetica,sans-Serif" font-size="10.00">src/d/bg/d_bg_s.cpp</text>
</a>
</g>
</g>
<!-- Node3&#45;&gt;Node27 -->
<g id="edge31" class="edge">
<title>Node3&#45;&gt;Node27</title>
<path fill="none" stroke="midnightblue" d="M2447.03,-147.22C2727.08,-141.58 3823,-118.4 3976,-98 3986.03,-96.66 3996.83,-94.38 4006.51,-92.02"/>
<polygon fill="midnightblue" stroke="midnightblue" points="2446.95,-143.72 2437.02,-147.42 2447.09,-150.71 2446.95,-143.72"/>
</g>
<!-- Node28 -->
<g id="node28" class="node">
<title>Node28</title>
<g id="a_node28"><a xlink:href="d__bg__s__movebg__actor_8cpp.html" target="_top" xlink:title=" ">
<polygon fill="white" stroke="black" points="390,-67.5 390,-97.5 516,-97.5 516,-67.5 390,-67.5"/>
<text text-anchor="start" x="398" y="-85.5" font-family="Helvetica,sans-Serif" font-size="10.00">src/d/bg/d_bg_s_movebg</text>
<text text-anchor="middle" x="453" y="-74.5" font-family="Helvetica,sans-Serif" font-size="10.00">_actor.cpp</text>
</a>
</g>
</g>
<!-- Node3&#45;&gt;Node28 -->
<g id="edge32" class="edge">
<title>Node3&#45;&gt;Node28</title>
<path fill="none" stroke="midnightblue" d="M2316.61,-148.23C2029.96,-146.8 882.9,-138.6 525,-98 522.09,-97.67 519.11,-97.28 516.12,-96.85"/>
<polygon fill="midnightblue" stroke="midnightblue" points="2316.82,-151.73 2326.84,-148.28 2316.85,-144.73 2316.82,-151.73"/>
</g>
<!-- Node29 -->
<g id="node29" class="node">
<title>Node29</title>
<g id="a_node29"><a xlink:href="d__bg__w_8cpp.html" target="_top" xlink:title=" ">
<polygon fill="white" stroke="black" points="534.5,-73 534.5,-92 641.5,-92 641.5,-73 534.5,-73"/>
<text text-anchor="middle" x="588" y="-80" font-family="Helvetica,sans-Serif" font-size="10.00">src/d/bg/d_bg_w.cpp</text>
</a>
</g>
</g>
<!-- Node3&#45;&gt;Node29 -->
<g id="edge33" class="edge">
<title>Node3&#45;&gt;Node29</title>
<path fill="none" stroke="midnightblue" d="M2316.56,-148.32C2042.03,-147.27 982.22,-140.53 651,-98 640.65,-96.67 629.5,-94.39 619.51,-92.03"/>
<polygon fill="midnightblue" stroke="midnightblue" points="2316.74,-151.82 2326.76,-148.35 2316.77,-144.82 2316.74,-151.82"/>
</g>
<!-- Node30 -->
<g id="node30" class="node">
<title>Node30</title>
<g id="a_node30"><a xlink:href="d__cc__s_8cpp.html" target="_top" xlink:title=" ">
<polygon fill="white" stroke="black" points="660,-73 660,-92 764,-92 764,-73 660,-73"/>
<text text-anchor="middle" x="712" y="-80" font-family="Helvetica,sans-Serif" font-size="10.00">src/d/cc/d_cc_s.cpp</text>
</a>
</g>
</g>
<!-- Node3&#45;&gt;Node30 -->
<g id="edge34" class="edge">
<title>Node3&#45;&gt;Node30</title>
<path fill="none" stroke="midnightblue" d="M2316.89,-148.21C2055.14,-146.78 1079.02,-138.75 773,-98 762.97,-96.66 752.17,-94.38 742.49,-92.02"/>
<polygon fill="midnightblue" stroke="midnightblue" points="2316.98,-151.71 2327,-148.26 2317.02,-144.71 2316.98,-151.71"/>
</g>
<!-- Node31 -->
<g id="node31" class="node">
<title>Node31</title>
<g id="a_node31"><a xlink:href="d__eye__hl_8cpp.html" target="_top" xlink:title=" ">
<polygon fill="white" stroke="black" points="782,-73 782,-92 880,-92 880,-73 782,-73"/>
<text text-anchor="middle" x="831" y="-80" font-family="Helvetica,sans-Serif" font-size="10.00">src/d/d_eye_hl.cpp</text>
</a>
</g>
</g>
<!-- Node3&#45;&gt;Node31 -->
<g id="edge36" class="edge">
<title>Node3&#45;&gt;Node31</title>
<path fill="none" stroke="midnightblue" d="M2316.65,-148.12C2066.65,-146.4 1170.82,-137.54 889,-98 879.44,-96.66 869.17,-94.38 859.97,-92.02"/>
<polygon fill="midnightblue" stroke="midnightblue" points="2316.65,-151.62 2326.67,-148.19 2316.69,-144.62 2316.65,-151.62"/>
</g>
<!-- Node32 -->
<g id="node32" class="node">
<title>Node32</title>
<g id="a_node32"><a xlink:href="d__kyeff_8cpp.html" target="_top" xlink:title=" ">
<polygon fill="white" stroke="black" points="898,-73 898,-92 988,-92 988,-73 898,-73"/>
<text text-anchor="middle" x="943" y="-80" font-family="Helvetica,sans-Serif" font-size="10.00">src/d/d_kyeff.cpp</text>
</a>
</g>
</g>
<!-- Node3&#45;&gt;Node32 -->
<g id="edge37" class="edge">
<title>Node3&#45;&gt;Node32</title>
<path fill="none" stroke="midnightblue" d="M2316.68,-148.07C2078.41,-146.21 1256.36,-137.04 997,-98 988.07,-96.66 978.51,-94.38 969.94,-92.02"/>
<polygon fill="midnightblue" stroke="midnightblue" points="2316.89,-151.57 2326.92,-148.15 2316.95,-144.57 2316.89,-151.57"/>
</g>
<!-- Node33 -->
<g id="node33" class="node">
<title>Node33</title>
<g id="a_node33"><a xlink:href="d__resorce_8cpp.html" target="_top" xlink:title=" ">
<polygon fill="white" stroke="black" points="1006,-73 1006,-92 1108,-92 1108,-73 1006,-73"/>
<text text-anchor="middle" x="1057" y="-80" font-family="Helvetica,sans-Serif" font-size="10.00">src/d/d_resorce.cpp</text>
</a>
</g>
</g>
<!-- Node3&#45;&gt;Node33 -->
<g id="edge38" class="edge">
<title>Node3&#45;&gt;Node33</title>
<path fill="none" stroke="midnightblue" d="M2316.44,-147.59C2091.52,-144.2 1352.18,-130.78 1117,-98 1107.24,-96.64 1096.74,-94.38 1087.3,-92.05"/>
<polygon fill="midnightblue" stroke="midnightblue" points="2316.71,-151.09 2326.76,-147.74 2316.81,-144.1 2316.71,-151.09"/>
</g>
<!-- Node34 -->
<g id="node34" class="node">
<title>Node34</title>
<g id="a_node34"><a xlink:href="d__stage_8cpp.html" target="_top" xlink:title=" ">
<polygon fill="white" stroke="black" points="1126,-73 1126,-92 1220,-92 1220,-73 1126,-73"/>
<text text-anchor="middle" x="1173" y="-80" font-family="Helvetica,sans-Serif" font-size="10.00">src/d/d_stage.cpp</text>
</a>
</g>
</g>
<!-- Node3&#45;&gt;Node34 -->
<g id="edge39" class="edge">
<title>Node3&#45;&gt;Node34</title>
<path fill="none" stroke="midnightblue" d="M2316.92,-147.44C2105.78,-143.73 1441.27,-129.77 1229,-98 1219.86,-96.63 1210.06,-94.38 1201.25,-92.04"/>
<polygon fill="midnightblue" stroke="midnightblue" points="2316.86,-150.94 2326.92,-147.62 2316.98,-143.94 2316.86,-150.94"/>
</g>
<!-- Node35 -->
<g id="node35" class="node">
<title>Node35</title>
<g id="a_node35"><a xlink:href="d__tresure_8cpp.html" target="_top" xlink:title=" ">
<polygon fill="white" stroke="black" points="1238,-73 1238,-92 1338,-92 1338,-73 1238,-73"/>
<text text-anchor="middle" x="1288" y="-80" font-family="Helvetica,sans-Serif" font-size="10.00">src/d/d_tresure.cpp</text>
</a>
</g>
</g>
<!-- Node3&#45;&gt;Node35 -->
<g id="edge40" class="edge">
<title>Node3&#45;&gt;Node35</title>
<path fill="none" stroke="midnightblue" d="M2316.71,-146.96C2120.07,-142.05 1535.44,-125.49 1347,-98 1337.4,-96.6 1327.08,-94.33 1317.79,-92"/>
<polygon fill="midnightblue" stroke="midnightblue" points="2316.8,-150.46 2326.89,-147.21 2316.98,-143.46 2316.8,-150.46"/>
</g>
<!-- Node36 -->
<g id="node36" class="node">
<title>Node36</title>
<g id="a_node36"><a xlink:href="d__event_8cpp.html" target="_top" xlink:title=" ">
<polygon fill="white" stroke="black" points="1356.5,-73 1356.5,-92 1477.5,-92 1477.5,-73 1356.5,-73"/>
<text text-anchor="middle" x="1417" y="-80" font-family="Helvetica,sans-Serif" font-size="10.00">src/d/event/d_event.cpp</text>
</a>
</g>
</g>
<!-- Node3&#45;&gt;Node36 -->
<g id="edge41" class="edge">
<title>Node3&#45;&gt;Node36</title>
<path fill="none" stroke="midnightblue" d="M2316.64,-148.18C2168.29,-146.73 1795.02,-138.94 1486,-98 1475.08,-96.55 1463.31,-94.33 1452.64,-92.06"/>
<polygon fill="midnightblue" stroke="midnightblue" points="2316.9,-151.69 2326.93,-148.28 2316.96,-144.69 2316.9,-151.69"/>
</g>
<!-- Node37 -->
<g id="node37" class="node">
<title>Node37</title>
<g id="a_node37"><a xlink:href="d__event__data_8cpp.html" target="_top" xlink:title=" ">
<polygon fill="white" stroke="black" points="1495.5,-67.5 1495.5,-97.5 1598.5,-97.5 1598.5,-67.5 1495.5,-67.5"/>
<text text-anchor="start" x="1503.5" y="-85.5" font-family="Helvetica,sans-Serif" font-size="10.00">src/d/event/d_event</text>
<text text-anchor="middle" x="1547" y="-74.5" font-family="Helvetica,sans-Serif" font-size="10.00">_data.cpp</text>
</a>
</g>
</g>
<!-- Node3&#45;&gt;Node37 -->
<g id="edge42" class="edge">
<title>Node3&#45;&gt;Node37</title>
<path fill="none" stroke="midnightblue" d="M2316.58,-148.02C2182.64,-146.22 1867.8,-137.71 1607,-98 1604.25,-97.58 1601.43,-97.1 1598.6,-96.57"/>
<polygon fill="midnightblue" stroke="midnightblue" points="2316.64,-151.52 2326.68,-148.15 2316.72,-144.53 2316.64,-151.52"/>
</g>
<!-- Node38 -->
<g id="node38" class="node">
<title>Node38</title>
<g id="a_node38"><a xlink:href="d__event__manager_8cpp.html" target="_top" xlink:title=" ">
<polygon fill="white" stroke="black" points="1616.5,-67.5 1616.5,-97.5 1719.5,-97.5 1719.5,-67.5 1616.5,-67.5"/>
<text text-anchor="start" x="1624.5" y="-85.5" font-family="Helvetica,sans-Serif" font-size="10.00">src/d/event/d_event</text>
<text text-anchor="middle" x="1668" y="-74.5" font-family="Helvetica,sans-Serif" font-size="10.00">_manager.cpp</text>
</a>
</g>
</g>
<!-- Node3&#45;&gt;Node38 -->
<g id="edge43" class="edge">
<title>Node3&#45;&gt;Node38</title>
<path fill="none" stroke="midnightblue" d="M2316.31,-146.81C2198.14,-143.02 1942.19,-131.37 1729,-98 1725.99,-97.53 1722.91,-96.99 1719.8,-96.4"/>
<polygon fill="midnightblue" stroke="midnightblue" points="2316.52,-150.32 2326.62,-147.13 2316.74,-143.32 2316.52,-150.32"/>
</g>
<!-- Node39 -->
<g id="node39" class="node">
<title>Node39</title>
<g id="a_node39"><a xlink:href="d__kankyo__wether_8cpp.html" target="_top" xlink:title=" ">
<polygon fill="white" stroke="black" points="1738,-67.5 1738,-97.5 1854,-97.5 1854,-67.5 1738,-67.5"/>
<text text-anchor="start" x="1746" y="-85.5" font-family="Helvetica,sans-Serif" font-size="10.00">src/d/kankyo/d_kankyo</text>
<text text-anchor="middle" x="1796" y="-74.5" font-family="Helvetica,sans-Serif" font-size="10.00">_wether.cpp</text>
</a>
</g>
</g>
<!-- Node3&#45;&gt;Node39 -->
<g id="edge45" class="edge">
<title>Node3&#45;&gt;Node39</title>
<path fill="none" stroke="midnightblue" d="M2316.69,-144.59C2218.01,-138.13 2025.19,-123.35 1863,-98 1860.06,-97.54 1857.06,-97.03 1854.03,-96.49"/>
<polygon fill="midnightblue" stroke="midnightblue" points="2316.61,-148.09 2326.81,-145.24 2317.06,-141.1 2316.61,-148.09"/>
</g>
<!-- Node40 -->
<g id="node40" class="node">
<title>Node40</title>
<g id="a_node40"><a xlink:href="d__menu__window__HIO_8cpp.html" target="_top" xlink:title=" ">
<polygon fill="white" stroke="black" points="1872.5,-67.5 1872.5,-97.5 2013.5,-97.5 2013.5,-67.5 1872.5,-67.5"/>
<text text-anchor="start" x="1880.5" y="-85.5" font-family="Helvetica,sans-Serif" font-size="10.00">src/d/menu/d_menu_window</text>
<text text-anchor="middle" x="1943" y="-74.5" font-family="Helvetica,sans-Serif" font-size="10.00">_HIO.cpp</text>
</a>
</g>
</g>
<!-- Node3&#45;&gt;Node40 -->
<g id="edge47" class="edge">
<title>Node3&#45;&gt;Node40</title>
<path fill="none" stroke="midnightblue" d="M2316.38,-140.14C2244.13,-130.74 2124.58,-114.6 2022,-98 2019.25,-97.55 2016.44,-97.09 2013.61,-96.61"/>
<polygon fill="midnightblue" stroke="midnightblue" points="2316.33,-143.66 2326.69,-141.48 2317.23,-136.72 2316.33,-143.66"/>
</g>
<!-- Node41 -->
<g id="node41" class="node">
<title>Node41</title>
<g id="a_node41"><a xlink:href="d__msg__flow_8cpp.html" target="_top" xlink:title=" ">
<polygon fill="white" stroke="black" points="2031.5,-73 2031.5,-92 2164.5,-92 2164.5,-73 2031.5,-73"/>
<text text-anchor="middle" x="2098" y="-80" font-family="Helvetica,sans-Serif" font-size="10.00">src/d/msg/d_msg_flow.cpp</text>
</a>
</g>
</g>
<!-- Node3&#45;&gt;Node41 -->
<g id="edge51" class="edge">
<title>Node3&#45;&gt;Node41</title>
<path fill="none" stroke="midnightblue" d="M2317.04,-133.63C2260.8,-120.76 2181.44,-102.6 2135.29,-92.03"/>
<polygon fill="midnightblue" stroke="midnightblue" points="2316.38,-137.07 2326.91,-135.89 2317.94,-130.25 2316.38,-137.07"/>
</g>
<!-- Node42 -->
<g id="node42" class="node">
<title>Node42</title>
<g id="a_node42"><a xlink:href="d__s__room_8cpp.html" target="_top" xlink:title=" ">
<polygon fill="white" stroke="black" points="2183,-73 2183,-92 2293,-92 2293,-73 2183,-73"/>
<text text-anchor="middle" x="2238" y="-80" font-family="Helvetica,sans-Serif" font-size="10.00">src/d/s/d_s_room.cpp</text>
</a>
</g>
</g>
<!-- Node3&#45;&gt;Node42 -->
<g id="edge52" class="edge">
<title>Node3&#45;&gt;Node42</title>
<path fill="none" stroke="midnightblue" d="M2341.31,-130.13C2313.59,-117.62 2278.19,-101.64 2256.85,-92.01"/>
<polygon fill="midnightblue" stroke="midnightblue" points="2340.2,-133.47 2350.75,-134.4 2343.08,-127.09 2340.2,-133.47"/>
</g>
<!-- Node3&#45;&gt;Node43 -->
<g id="edge53" class="edge">
<title>Node3&#45;&gt;Node43</title>
<path fill="none" stroke="midnightblue" d="M2447.12,-147.29C2740.47,-141.76 3932.16,-118.21 4098,-98 4108.99,-96.66 4120.83,-94.38 4131.46,-92.02"/>
<polygon fill="midnightblue" stroke="midnightblue" points="2447,-143.79 2437.06,-147.48 2447.13,-150.79 2447,-143.79"/>
</g>
<!-- Node44 -->
<g id="node44" class="node">
<title>Node44</title>
<g id="a_node44"><a xlink:href="m__Do__graphic_8cpp.html" target="_top" xlink:title=" ">
<polygon fill="white" stroke="black" points="2311,-73 2311,-92 2453,-92 2453,-73 2311,-73"/>
<text text-anchor="middle" x="2382" y="-80" font-family="Helvetica,sans-Serif" font-size="10.00">src/m_Do/m_Do_graphic.cpp</text>
</a>
</g>
</g>
<!-- Node3&#45;&gt;Node44 -->
<g id="edge54" class="edge">
<title>Node3&#45;&gt;Node44</title>
<path fill="none" stroke="midnightblue" d="M2382,-124.25C2382,-113.02 2382,-100.38 2382,-92.19"/>
<polygon fill="midnightblue" stroke="midnightblue" points="2378.5,-124.4 2382,-134.4 2385.5,-124.4 2378.5,-124.4"/>
</g>
<!-- Node45 -->
<g id="node45" class="node">
<title>Node45</title>
<g id="a_node45"><a xlink:href="m__Do__machine__exception_8cpp.html" target="_top" xlink:title=" ">
<polygon fill="white" stroke="black" points="2471.5,-67.5 2471.5,-97.5 2600.5,-97.5 2600.5,-67.5 2471.5,-67.5"/>
<text text-anchor="start" x="2479.5" y="-85.5" font-family="Helvetica,sans-Serif" font-size="10.00">src/m_Do/m_Do_machine</text>
<text text-anchor="middle" x="2536" y="-74.5" font-family="Helvetica,sans-Serif" font-size="10.00">_exception.cpp</text>
</a>
</g>
</g>
<!-- Node3&#45;&gt;Node45 -->
<g id="edge55" class="edge">
<title>Node3&#45;&gt;Node45</title>
<path fill="none" stroke="midnightblue" d="M2424.87,-130.41C2449.45,-120.03 2479.86,-107.2 2502.65,-97.58"/>
<polygon fill="midnightblue" stroke="midnightblue" points="2423.27,-127.28 2415.42,-134.4 2425.99,-133.73 2423.27,-127.28"/>
</g>
<!-- Node46 -->
<g id="node46" class="node">
<title>Node46</title>
<g id="a_node46"><a xlink:href="m__Do__main_8cpp.html" target="_top" xlink:title=" ">
<polygon fill="white" stroke="black" points="2618.5,-73 2618.5,-92 2749.5,-92 2749.5,-73 2618.5,-73"/>
<text text-anchor="middle" x="2684" y="-80" font-family="Helvetica,sans-Serif" font-size="10.00">src/m_Do/m_Do_main.cpp</text>
</a>
</g>
</g>
<!-- Node3&#45;&gt;Node46 -->
<g id="edge56" class="edge">
<title>Node3&#45;&gt;Node46</title>
<path fill="none" stroke="midnightblue" d="M2447.16,-134.48C2507.11,-121.57 2594.1,-102.85 2644.27,-92.05"/>
<polygon fill="midnightblue" stroke="midnightblue" points="2446.08,-131.13 2437.04,-136.65 2447.55,-137.97 2446.08,-131.13"/>
</g>
<!-- Node5 -->
<g id="node5" class="node">
<title>Node5</title>
<g id="a_node5"><a xlink:href="d__cc__uty_8cpp.html" target="_top" xlink:title=" ">
<polygon fill="white" stroke="black" points="3380,-6 3380,-25 3492,-25 3492,-6 3380,-6"/>
<text text-anchor="middle" x="3436" y="-13" font-family="Helvetica,sans-Serif" font-size="10.00">src/d/cc/d_cc_uty.cpp</text>
</a>
</g>
</g>
<!-- Node4&#45;&gt;Node5 -->
<g id="edge4" class="edge">
<title>Node4&#45;&gt;Node5</title>
<path fill="none" stroke="midnightblue" d="M3406.75,-64.03C3414.49,-51.45 3424.61,-35.01 3430.69,-25.13"/>
<polygon fill="midnightblue" stroke="midnightblue" points="3403.65,-62.38 3401.39,-72.73 3409.62,-66.05 3403.65,-62.38"/>
</g>
<!-- Node6&#45;&gt;Node7 -->
<g id="edge6" class="edge">
<title>Node6&#45;&gt;Node7</title>
<path fill="none" stroke="midnightblue" d="M3535.7,-65.3C3545.39,-54.63 3557.94,-40.8 3567.21,-30.59"/>
<polygon fill="midnightblue" stroke="midnightblue" points="3533.09,-62.98 3528.96,-72.73 3538.27,-67.68 3533.09,-62.98"/>
</g>
<!-- Node6&#45;&gt;Node8 -->
<g id="edge7" class="edge">
<title>Node6&#45;&gt;Node8</title>
<path fill="none" stroke="midnightblue" d="M3578.9,-72.33C3591.14,-70.48 3603.99,-68.62 3616,-67 3757.9,-47.92 3926.48,-29.52 4005.26,-21.17"/>
<polygon fill="midnightblue" stroke="midnightblue" points="3578.15,-68.9 3568.79,-73.87 3579.21,-75.82 3578.15,-68.9"/>
</g>
<!-- Node9 -->
<g id="node9" class="node">
<title>Node9</title>
<g id="a_node9"><a xlink:href="d__s__play_8cpp.html" target="_top" xlink:title=" ">
<polygon fill="white" stroke="black" points="3256,-6 3256,-25 3362,-25 3362,-6 3256,-6"/>
<text text-anchor="middle" x="3309" y="-13" font-family="Helvetica,sans-Serif" font-size="10.00">src/d/s/d_s_play.cpp</text>
</a>
</g>
</g>
<!-- Node6&#45;&gt;Node9 -->
<g id="edge8" class="edge">
<title>Node6&#45;&gt;Node9</title>
<path fill="none" stroke="midnightblue" d="M3483.26,-69.93C3441.28,-57.06 3374.46,-36.57 3336.93,-25.06"/>
<polygon fill="midnightblue" stroke="midnightblue" points="3482.26,-73.28 3492.85,-72.87 3484.31,-66.59 3482.26,-73.28"/>
</g>
<!-- Node11 -->
<g id="node11" class="node">
<title>Node11</title>
<g id="a_node11"><a xlink:href="d__kantera__icon__meter_8cpp.html" target="_top" xlink:title=" ">
<polygon fill="white" stroke="black" points="3131.5,-0.5 3131.5,-30.5 3238.5,-30.5 3238.5,-0.5 3131.5,-0.5"/>
<text text-anchor="start" x="3139.5" y="-18.5" font-family="Helvetica,sans-Serif" font-size="10.00">src/d/d_kantera_icon</text>
<text text-anchor="middle" x="3185" y="-7.5" font-family="Helvetica,sans-Serif" font-size="10.00">_meter.cpp</text>
</a>
</g>
</g>
<!-- Node10&#45;&gt;Node11 -->
<g id="edge10" class="edge">
<title>Node10&#45;&gt;Node11</title>
<path fill="none" stroke="midnightblue" d="M3153.5,-59.16C3160.5,-49.68 3168.44,-38.92 3174.61,-30.58"/>
<polygon fill="midnightblue" stroke="midnightblue" points="3150.54,-57.27 3147.42,-67.4 3156.17,-61.43 3150.54,-57.27"/>
</g>
<!-- Node10&#45;&gt;Node12 -->
<g id="edge11" class="edge">
<title>Node10&#45;&gt;Node12</title>
<path fill="none" stroke="midnightblue" d="M3111.94,-60.88C3099.94,-51.01 3085.87,-39.43 3075.11,-30.58"/>
<polygon fill="midnightblue" stroke="midnightblue" points="3109.91,-63.75 3119.86,-67.4 3114.36,-58.34 3109.91,-63.75"/>
</g>
<!-- Node14 -->
<g id="node14" class="node">
<title>Node14</title>
<g id="a_node14"><a xlink:href="d__file__sel__info_8cpp.html" target="_top" xlink:title=" ">
<polygon fill="white" stroke="black" points="3652.5,-0.5 3652.5,-30.5 3749.5,-30.5 3749.5,-0.5 3652.5,-0.5"/>
<text text-anchor="start" x="3660.5" y="-18.5" font-family="Helvetica,sans-Serif" font-size="10.00">src/d/file/d_file_sel</text>
<text text-anchor="middle" x="3701" y="-7.5" font-family="Helvetica,sans-Serif" font-size="10.00">_info.cpp</text>
</a>
</g>
</g>
<!-- Node13&#45;&gt;Node14 -->
<g id="edge13" class="edge">
<title>Node13&#45;&gt;Node14</title>
<path fill="none" stroke="midnightblue" d="M3683.13,-57.99C3687.08,-48.8 3691.49,-38.58 3694.94,-30.58"/>
<polygon fill="midnightblue" stroke="midnightblue" points="3679.82,-56.83 3679.08,-67.4 3686.25,-59.6 3679.82,-56.83"/>
</g>
<!-- Node15&#45;&gt;Node1 -->
<g id="edge15" class="edge">
<title>Node15&#45;&gt;Node1</title>
<path fill="none" stroke="midnightblue" d="M147.21,-101.27C160.32,-128.62 187.82,-181.94 220,-221 231.26,-234.67 246.35,-247.87 258.18,-257.34"/>
<polygon fill="midnightblue" stroke="midnightblue" points="150.34,-99.7 142.91,-92.15 144.01,-102.68 150.34,-99.7"/>
</g>
<!-- Node16 -->
<g id="node16" class="node">
<title>Node16</title>
<g id="a_node16"><a xlink:href="d__meter2_8cpp.html" target="_top" xlink:title=" ">
<polygon fill="white" stroke="black" points="75,-6 75,-25 203,-25 203,-6 75,-6"/>
<text text-anchor="middle" x="139" y="-13" font-family="Helvetica,sans-Serif" font-size="10.00">src/d/meter/d_meter2.cpp</text>
</a>
</g>
</g>
<!-- Node15&#45;&gt;Node16 -->
<g id="edge16" class="edge">
<title>Node15&#45;&gt;Node16</title>
<path fill="none" stroke="midnightblue" d="M139,-62.54C139,-50.17 139,-34.62 139,-25.13"/>
<polygon fill="midnightblue" stroke="midnightblue" points="135.5,-62.73 139,-72.73 142.5,-62.73 135.5,-62.73"/>
</g>
<!-- Node17&#45;&gt;Node9 -->
<g id="edge24" class="edge">
<title>Node17&#45;&gt;Node9</title>
<path fill="none" stroke="midnightblue" d="M2964.11,-73.74C3034.23,-65 3148.95,-49.55 3247,-31 3256.12,-29.27 3265.94,-27.12 3275,-25"/>
<polygon fill="midnightblue" stroke="midnightblue" points="2963.58,-70.28 2954.09,-74.99 2964.44,-77.23 2963.58,-70.28"/>
</g>
<!-- Node17&#45;&gt;Node12 -->
<g id="edge20" class="edge">
<title>Node17&#45;&gt;Node12</title>
<path fill="none" stroke="midnightblue" d="M2942.92,-63.54C2968.37,-53.14 2999.93,-40.24 3023.57,-30.58"/>
<polygon fill="midnightblue" stroke="midnightblue" points="2941.43,-60.37 2933.5,-67.4 2944.08,-66.85 2941.43,-60.37"/>
</g>
<!-- Node17&#45;&gt;Node18 -->
<g id="edge18" class="edge">
<title>Node17&#45;&gt;Node18</title>
<path fill="none" stroke="midnightblue" d="M2905.99,-57.6C2909.3,-46.28 2913.04,-33.46 2915.46,-25.19"/>
<polygon fill="midnightblue" stroke="midnightblue" points="2902.57,-56.82 2903.12,-67.4 2909.29,-58.78 2902.57,-56.82"/>
</g>
<!-- Node17&#45;&gt;Node19 -->
<g id="edge19" class="edge">
<title>Node17&#45;&gt;Node19</title>
<path fill="none" stroke="midnightblue" d="M2833.87,-72.3C2820.06,-70.46 2805.56,-68.6 2792,-67 2632.3,-48.2 2591.43,-51.94 2432,-31 2418.96,-29.29 2404.9,-27.14 2391.88,-25.02"/>
<polygon fill="midnightblue" stroke="midnightblue" points="2833.41,-75.77 2843.79,-73.64 2834.35,-68.84 2833.41,-75.77"/>
</g>
<!-- Node17&#45;&gt;Node20 -->
<g id="edge21" class="edge">
<title>Node17&#45;&gt;Node20</title>
<path fill="none" stroke="midnightblue" d="M2863.77,-62.57C2844.74,-52.35 2821.63,-39.94 2804.2,-30.58"/>
<polygon fill="midnightblue" stroke="midnightblue" points="2862.28,-65.75 2872.74,-67.4 2865.59,-59.58 2862.28,-65.75"/>
</g>
<!-- Node17&#45;&gt;Node21 -->
<g id="edge22" class="edge">
<title>Node17&#45;&gt;Node21</title>
<path fill="none" stroke="midnightblue" d="M2833.8,-67.66C2832.52,-67.43 2831.26,-67.21 2830,-67 2708.04,-46.26 2675.67,-53.33 2554,-31 2551.11,-30.47 2548.15,-29.89 2545.17,-29.28"/>
<polygon fill="midnightblue" stroke="midnightblue" points="2833.24,-71.12 2843.71,-69.49 2834.51,-64.23 2833.24,-71.12"/>
</g>
<!-- Node22 -->
<g id="node22" class="node">
<title>Node22</title>
<g id="a_node22"><a xlink:href="d__msg__object_8cpp.html" target="_top" xlink:title=" ">
<polygon fill="white" stroke="black" points="2563,-6 2563,-25 2705,-25 2705,-6 2563,-6"/>
<text text-anchor="middle" x="2634" y="-13" font-family="Helvetica,sans-Serif" font-size="10.00">src/d/msg/d_msg_object.cpp</text>
</a>
</g>
</g>
<!-- Node17&#45;&gt;Node22 -->
<g id="edge23" class="edge">
<title>Node17&#45;&gt;Node22</title>
<path fill="none" stroke="midnightblue" d="M2833.95,-65.54C2781.85,-52.77 2710.79,-35.34 2668.92,-25.06"/>
<polygon fill="midnightblue" stroke="midnightblue" points="2833.22,-68.97 2843.77,-67.95 2834.89,-62.17 2833.22,-68.97"/>
</g>
<!-- Node23&#45;&gt;Node5 -->
<g id="edge26" class="edge">
<title>Node23&#45;&gt;Node5</title>
<path fill="none" stroke="midnightblue" d="M3294.74,-69.27C3329.27,-56.37 3382.79,-36.38 3413.08,-25.06"/>
<polygon fill="midnightblue" stroke="midnightblue" points="3293.25,-66.09 3285.11,-72.87 3295.7,-72.65 3293.25,-66.09"/>
</g>
<!-- Node23&#45;&gt;Node9 -->
<g id="edge27" class="edge">
<title>Node23&#45;&gt;Node9</title>
<path fill="none" stroke="midnightblue" d="M3274.36,-64.4C3283.49,-51.77 3295.55,-35.1 3302.76,-25.13"/>
<polygon fill="midnightblue" stroke="midnightblue" points="3271.36,-62.58 3268.34,-72.73 3277.03,-66.68 3271.36,-62.58"/>
</g>
<!-- Node47&#45;&gt;Node1 -->
<g id="edge59" class="edge">
<title>Node47&#45;&gt;Node1</title>
<path fill="none" stroke="midnightblue" d="M94.58,-170.33C117.16,-185.2 147.2,-205.56 175,-221 199.8,-234.77 229.05,-247.96 250.01,-257.41"/>
<polygon fill="midnightblue" stroke="midnightblue" points="96.3,-167.27 86.01,-164.73 92.46,-173.13 96.3,-167.27"/>
</g>
<!-- Node47&#45;&gt;Node19 -->
<g id="edge60" class="edge">
<title>Node47&#45;&gt;Node19</title>
<path fill="none" stroke="midnightblue" d="M40.34,-125.98C26.97,-107.92 14.32,-83.02 30,-67 69.89,-26.23 1860.63,-18.05 2263.21,-16.73"/>
<polygon fill="midnightblue" stroke="midnightblue" points="37.9,-128.54 46.83,-134.23 43.39,-124.21 37.9,-128.54"/>
</g>
<!-- Node47&#45;&gt;Node21 -->
<g id="edge61" class="edge">
<title>Node47&#45;&gt;Node21</title>
<path fill="none" stroke="midnightblue" d="M53.02,-124.41C49.33,-106.03 48.2,-81.49 63,-67 110.02,-20.99 2365.71,-39.04 2431,-31 2434.18,-30.61 2437.44,-30.12 2440.71,-29.56"/>
<polygon fill="midnightblue" stroke="midnightblue" points="49.68,-125.47 55.39,-134.39 56.49,-123.85 49.68,-125.47"/>
</g>
</g>
</svg>
