<?xml version="1.0" encoding="UTF-8" standalone="no"?>
<!DOCTYPE svg PUBLIC "-//W3C//DTD SVG 1.1//EN"
 "http://www.w3.org/Graphics/SVG/1.1/DTD/svg11.dtd">
<!-- Generated by graphviz version 2.44.0 ()
 -->
<!-- Title: include/d/meter/d_meter_map.h Pages: 1 -->
<!--zoomable 419 -->
<svg id="main" version="1.1" xmlns="http://www.w3.org/2000/svg" xmlns:xlink="http://www.w3.org/1999/xlink" xml:space="preserve" onload="init(evt)">
<style type="text/css"><![CDATA[
.edge:hover path { stroke: red; }
.edge:hover polygon { stroke: red; fill: red; }
]]></style>
<script type="text/javascript"><![CDATA[
var edges = document.getElementsByTagName('g');
if (edges && edges.length) {
  for (var i=0;i<edges.length;i++) {
    if (edges[i].id.substr(0,4)=='edge') {
      edges[i].setAttribute('class','edge');
    }
  }
}
]]></script>
        <defs>
                <circle id="rim" cx="0" cy="0" r="7"/>
                <circle id="rim2" cx="0" cy="0" r="3.5"/>
                <g id="zoomPlus">
                        <use xlink:href="#rim" fill="#404040">
                                <set attributeName="fill" to="#808080" begin="zoomplus.mouseover" end="zoomplus.mouseout"/>
                        </use>
                        <path d="M-4,0h8M0,-4v8" fill="none" stroke="white" stroke-width="1.5" pointer-events="none"/>
                </g>
                <g id="zoomMin">
                        <use xlink:href="#rim" fill="#404040">
                                <set attributeName="fill" to="#808080" begin="zoomminus.mouseover" end="zoomminus.mouseout"/>
                        </use>
                        <path d="M-4,0h8" fill="none" stroke="white" stroke-width="1.5" pointer-events="none"/>
                </g>
                <g id="dirArrow">
                        <path fill="none" stroke="white" stroke-width="1.5" d="M0,-3.0v7 M-2.5,-0.5L0,-3.0L2.5,-0.5"/>
                </g>
               <g id="resetDef">
                       <use xlink:href="#rim2" fill="#404040">
                               <set attributeName="fill" to="#808080" begin="reset.mouseover" end="reset.mouseout"/>
                       </use>
               </g>
        </defs>

<script type="text/javascript">
var viewWidth = 3528;
var viewHeight = 419;
var sectionId = 'dynsection-1';
</script>
<script xlink:href="svgpan.js"/>
<svg id="graph" class="graph">
<g id="viewport">
<title>include/d/meter/d_meter_map.h</title>
<polygon fill="white" stroke="transparent" points="-4,4 -4,-415 3524,-415 3524,4 -4,4"/>
<!-- Node1 -->
<g id="node1" class="node">
<title>Node1</title>
<g id="a_node1"><a xlink:title=" ">
<polygon fill="#bfbfbf" stroke="black" points="46,-380.5 46,-410.5 168,-410.5 168,-380.5 46,-380.5"/>
<text text-anchor="start" x="54" y="-398.5" font-family="Helvetica,sans-Serif" font-size="10.00">include/d/meter/d_meter</text>
<text text-anchor="middle" x="107" y="-387.5" font-family="Helvetica,sans-Serif" font-size="10.00">_map.h</text>
</a>
</g>
</g>
<!-- Node2 -->
<g id="node2" class="node">
<title>Node2</title>
<g id="a_node2"><a xlink:href="d__meter__map_8cpp.html" target="_top" xlink:title=" ">
<polygon fill="white" stroke="black" points="130,-0.5 130,-30.5 234,-30.5 234,-0.5 130,-0.5"/>
<text text-anchor="start" x="138" y="-18.5" font-family="Helvetica,sans-Serif" font-size="10.00">src/d/meter/d_meter</text>
<text text-anchor="middle" x="182" y="-7.5" font-family="Helvetica,sans-Serif" font-size="10.00">_map.cpp</text>
</a>
</g>
</g>
<!-- Node1&#45;&gt;Node2 -->
<g id="edge1" class="edge">
<title>Node1&#45;&gt;Node2</title>
<path fill="none" stroke="midnightblue" d="M72.85,-374.95C41.54,-354.19 0,-318.23 0,-273.5 0,-273.5 0,-273.5 0,-148.5 0,-83.9 76.07,-47.66 129.85,-30.11"/>
<polygon fill="midnightblue" stroke="midnightblue" points="71.06,-377.96 81.37,-380.4 74.83,-372.06 71.06,-377.96"/>
</g>
<!-- Node3 -->
<g id="node3" class="node">
<title>Node3</title>
<g id="a_node3"><a xlink:href="d__meter2_8h.html" target="_top" xlink:title=" ">
<polygon fill="white" stroke="black" points="1785,-324.5 1785,-343.5 1919,-343.5 1919,-324.5 1785,-324.5"/>
<text text-anchor="middle" x="1852" y="-331.5" font-family="Helvetica,sans-Serif" font-size="10.00">include/d/meter/d_meter2.h</text>
</a>
</g>
</g>
<!-- Node1&#45;&gt;Node3 -->
<g id="edge2" class="edge">
<title>Node1&#45;&gt;Node3</title>
<path fill="none" stroke="midnightblue" d="M178.25,-392.07C461.91,-382.4 1508.97,-346.7 1784.95,-337.29"/>
<polygon fill="midnightblue" stroke="midnightblue" points="177.96,-388.58 168.08,-392.42 178.2,-395.57 177.96,-388.58"/>
</g>
<!-- Node4 -->
<g id="node4" class="node">
<title>Node4</title>
<g id="a_node4"><a xlink:href="d__meter2_8cpp.html" target="_top" xlink:title=" ">
<polygon fill="white" stroke="black" points="3392,-263 3392,-282 3520,-282 3520,-263 3392,-263"/>
<text text-anchor="middle" x="3456" y="-270" font-family="Helvetica,sans-Serif" font-size="10.00">src/d/meter/d_meter2.cpp</text>
</a>
</g>
</g>
<!-- Node3&#45;&gt;Node4 -->
<g id="edge3" class="edge">
<title>Node3&#45;&gt;Node4</title>
<path fill="none" stroke="midnightblue" d="M1929.07,-332.3C2197.8,-329.62 3092.6,-318.55 3378,-288 3390.6,-286.65 3404.22,-284.4 3416.49,-282.07"/>
<polygon fill="midnightblue" stroke="midnightblue" points="1928.98,-328.8 1919.02,-332.4 1929.05,-335.8 1928.98,-328.8"/>
</g>
<!-- Node5 -->
<g id="node5" class="node">
<title>Node5</title>
<g id="a_node5"><a xlink:href="d__meter2__info_8h.html" target="_top" xlink:title=" ">
<polygon fill="white" stroke="black" points="224.5,-257.5 224.5,-287.5 351.5,-287.5 351.5,-257.5 224.5,-257.5"/>
<text text-anchor="start" x="232.5" y="-275.5" font-family="Helvetica,sans-Serif" font-size="10.00">include/d/meter/d_meter2</text>
<text text-anchor="middle" x="288" y="-264.5" font-family="Helvetica,sans-Serif" font-size="10.00">_info.h</text>
</a>
</g>
</g>
<!-- Node3&#45;&gt;Node5 -->
<g id="edge4" class="edge">
<title>Node3&#45;&gt;Node5</title>
<path fill="none" stroke="midnightblue" d="M1774.66,-330.06C1503.76,-319.75 600.68,-285.4 351.92,-275.93"/>
<polygon fill="midnightblue" stroke="midnightblue" points="1774.67,-333.56 1784.8,-330.44 1774.94,-326.57 1774.67,-333.56"/>
</g>
<!-- Node6 -->
<g id="node6" class="node">
<title>Node6</title>
<g id="a_node6"><a xlink:href="d__com__inf__game_8cpp.html" target="_top" xlink:title=" ">
<polygon fill="white" stroke="black" points="3234,-0.5 3234,-30.5 3342,-30.5 3342,-0.5 3234,-0.5"/>
<text text-anchor="start" x="3242" y="-18.5" font-family="Helvetica,sans-Serif" font-size="10.00">src/d/com/d_com_inf</text>
<text text-anchor="middle" x="3288" y="-7.5" font-family="Helvetica,sans-Serif" font-size="10.00">_game.cpp</text>
</a>
</g>
</g>
<!-- Node5&#45;&gt;Node6 -->
<g id="edge5" class="edge">
<title>Node5&#45;&gt;Node6</title>
<path fill="none" stroke="midnightblue" d="M361.95,-269.68C810.78,-258.34 3154.29,-194.61 3269,-98 3288.56,-81.53 3290.2,-49.18 3289.32,-30.58"/>
<polygon fill="midnightblue" stroke="midnightblue" points="361.61,-266.19 351.7,-269.94 361.79,-273.19 361.61,-266.19"/>
</g>
<!-- Node7 -->
<g id="node7" class="node">
<title>Node7</title>
<g id="a_node7"><a xlink:href="d__item_8cpp.html" target="_top" xlink:title=" ">
<polygon fill="white" stroke="black" points="3377.5,-6 3377.5,-25 3466.5,-25 3466.5,-6 3377.5,-6"/>
<text text-anchor="middle" x="3422" y="-13" font-family="Helvetica,sans-Serif" font-size="10.00">src/d/d_item.cpp</text>
</a>
</g>
</g>
<!-- Node5&#45;&gt;Node7 -->
<g id="edge6" class="edge">
<title>Node5&#45;&gt;Node7</title>
<path fill="none" stroke="midnightblue" d="M361.88,-270.15C602.61,-265.56 1386.25,-249.33 2034,-221 2459.21,-202.4 2566.79,-210.19 2990,-165 3182.76,-144.42 3293.99,-244.45 3421,-98 3438.8,-77.47 3430.46,-41.89 3425.18,-25.39"/>
<polygon fill="midnightblue" stroke="midnightblue" points="361.77,-266.65 351.84,-270.34 361.9,-273.65 361.77,-266.65"/>
</g>
<!-- Node8 -->
<g id="node8" class="node">
<title>Node8</title>
<g id="a_node8"><a xlink:href="d__meter2__info_8cpp.html" target="_top" xlink:title=" ">
<polygon fill="white" stroke="black" points="1858,-0.5 1858,-30.5 1968,-30.5 1968,-0.5 1858,-0.5"/>
<text text-anchor="start" x="1866" y="-18.5" font-family="Helvetica,sans-Serif" font-size="10.00">src/d/meter/d_meter2</text>
<text text-anchor="middle" x="1913" y="-7.5" font-family="Helvetica,sans-Serif" font-size="10.00">_info.cpp</text>
</a>
</g>
</g>
<!-- Node5&#45;&gt;Node8 -->
<g id="edge7" class="edge">
<title>Node5&#45;&gt;Node8</title>
<path fill="none" stroke="midnightblue" d="M265.35,-250.13C217.91,-204.21 114.86,-97.79 145,-67 177.61,-33.68 1776.57,-35.22 1823,-31 1834.35,-29.97 1846.43,-28.37 1857.94,-26.61"/>
<polygon fill="midnightblue" stroke="midnightblue" points="263.09,-252.81 272.73,-257.21 267.94,-247.76 263.09,-252.81"/>
</g>
<!-- Node9 -->
<g id="node9" class="node">
<title>Node9</title>
<g id="a_node9"><a xlink:href="d__save_8cpp.html" target="_top" xlink:title=" ">
<polygon fill="white" stroke="black" points="154.5,-73 154.5,-92 269.5,-92 269.5,-73 154.5,-73"/>
<text text-anchor="middle" x="212" y="-80" font-family="Helvetica,sans-Serif" font-size="10.00">src/d/save/d_save.cpp</text>
</a>
</g>
</g>
<!-- Node5&#45;&gt;Node9 -->
<g id="edge8" class="edge">
<title>Node5&#45;&gt;Node9</title>
<path fill="none" stroke="midnightblue" d="M278.47,-247.93C261.47,-205.88 226.67,-119.79 215.52,-92.21"/>
<polygon fill="midnightblue" stroke="midnightblue" points="275.29,-249.41 282.29,-257.37 281.78,-246.79 275.29,-249.41"/>
</g>
<!-- Node10 -->
<g id="node10" class="node">
<title>Node10</title>
<g id="a_node10"><a xlink:href="d__a__alink_8h.html" target="_top" xlink:title=" ">
<polygon fill="white" stroke="black" points="284,-201.5 284,-220.5 400,-220.5 400,-201.5 284,-201.5"/>
<text text-anchor="middle" x="342" y="-208.5" font-family="Helvetica,sans-Serif" font-size="10.00">include/d/a/d_a_alink.h</text>
</a>
</g>
</g>
<!-- Node5&#45;&gt;Node10 -->
<g id="edge9" class="edge">
<title>Node5&#45;&gt;Node10</title>
<path fill="none" stroke="midnightblue" d="M307.78,-249.7C316.92,-239.64 327.25,-228.26 334.14,-220.66"/>
<polygon fill="midnightblue" stroke="midnightblue" points="304.93,-247.64 300.8,-257.4 310.11,-252.35 304.93,-247.64"/>
</g>
<!-- Node39 -->
<g id="node39" class="node">
<title>Node39</title>
<g id="a_node39"><a xlink:href="d__menu__window_8h.html" target="_top" xlink:title=" ">
<polygon fill="white" stroke="black" points="28,-134.5 28,-164.5 148,-164.5 148,-134.5 28,-134.5"/>
<text text-anchor="start" x="36" y="-152.5" font-family="Helvetica,sans-Serif" font-size="10.00">include/d/menu/d_menu</text>
<text text-anchor="middle" x="88" y="-141.5" font-family="Helvetica,sans-Serif" font-size="10.00">_window.h</text>
</a>
</g>
</g>
<!-- Node5&#45;&gt;Node39 -->
<g id="edge52" class="edge">
<title>Node5&#45;&gt;Node39</title>
<path fill="none" stroke="midnightblue" d="M223.57,-254.2C200.23,-245.92 174.43,-234.77 153,-221 128.22,-205.08 104.46,-180.16 93.27,-164.61"/>
<polygon fill="midnightblue" stroke="midnightblue" points="222.46,-257.52 233.05,-257.46 224.73,-250.9 222.46,-257.52"/>
</g>
<!-- Node11 -->
<g id="node11" class="node">
<title>Node11</title>
<g id="a_node11"><a xlink:href="d__a__alink_8cpp.html" target="_top" xlink:title=" ">
<polygon fill="white" stroke="black" points="287.5,-73 287.5,-92 396.5,-92 396.5,-73 287.5,-73"/>
<text text-anchor="middle" x="342" y="-80" font-family="Helvetica,sans-Serif" font-size="10.00">src/d/a/d_a_alink.cpp</text>
</a>
</g>
</g>
<!-- Node10&#45;&gt;Node11 -->
<g id="edge10" class="edge">
<title>Node10&#45;&gt;Node11</title>
<path fill="none" stroke="midnightblue" d="M342,-190.94C342,-163.12 342,-112.54 342,-92.26"/>
<polygon fill="midnightblue" stroke="midnightblue" points="338.5,-191.31 342,-201.31 345.5,-191.31 338.5,-191.31"/>
</g>
<!-- Node12 -->
<g id="node12" class="node">
<title>Node12</title>
<g id="a_node12"><a xlink:href="d__com__inf__game_8h.html" target="_top" xlink:title=" ">
<polygon fill="white" stroke="black" points="1666,-134.5 1666,-164.5 1776,-164.5 1776,-134.5 1666,-134.5"/>
<text text-anchor="start" x="1674" y="-152.5" font-family="Helvetica,sans-Serif" font-size="10.00">include/d/com/d_com</text>
<text text-anchor="middle" x="1721" y="-141.5" font-family="Helvetica,sans-Serif" font-size="10.00">_inf_game.h</text>
</a>
</g>
</g>
<!-- Node10&#45;&gt;Node12 -->
<g id="edge11" class="edge">
<title>Node10&#45;&gt;Node12</title>
<path fill="none" stroke="midnightblue" d="M410.7,-207.04C650.54,-196.69 1447.92,-162.28 1665.65,-152.89"/>
<polygon fill="midnightblue" stroke="midnightblue" points="410.21,-203.55 400.37,-207.48 410.51,-210.55 410.21,-203.55"/>
</g>
<!-- Node12&#45;&gt;Node2 -->
<g id="edge32" class="edge">
<title>Node12&#45;&gt;Node2</title>
<path fill="none" stroke="midnightblue" d="M1655.59,-147.65C1413.48,-144.24 576.22,-130.24 461,-98 433.6,-90.33 431.58,-77.13 405,-67 348.43,-45.44 280.13,-31.65 234.14,-24.02"/>
<polygon fill="midnightblue" stroke="midnightblue" points="1655.6,-151.15 1665.65,-147.79 1655.7,-144.15 1655.6,-151.15"/>
</g>
<!-- Node12&#45;&gt;Node3 -->
<g id="edge44" class="edge">
<title>Node12&#45;&gt;Node3</title>
<path fill="none" stroke="midnightblue" d="M1737.05,-172.86C1766.08,-213.3 1826.11,-296.93 1845.68,-324.2"/>
<polygon fill="midnightblue" stroke="midnightblue" points="1739.86,-170.78 1731.19,-164.69 1734.18,-174.86 1739.86,-170.78"/>
</g>
<!-- Node12&#45;&gt;Node6 -->
<g id="edge17" class="edge">
<title>Node12&#45;&gt;Node6</title>
<path fill="none" stroke="midnightblue" d="M1786.6,-147.92C2010.41,-145.59 2735.48,-135.25 2833,-98 2853.36,-90.22 2850.95,-75.54 2871,-67 2935.16,-39.69 3136.19,-25 3233.78,-19.32"/>
<polygon fill="midnightblue" stroke="midnightblue" points="1786.29,-144.42 1776.33,-148.02 1786.36,-151.42 1786.29,-144.42"/>
</g>
<!-- Node12&#45;&gt;Node8 -->
<g id="edge30" class="edge">
<title>Node12&#45;&gt;Node8</title>
<path fill="none" stroke="midnightblue" d="M1786.23,-147.33C1990.79,-143.36 2607.8,-128.86 2637,-98 2738.33,9.07 2123.01,-51.37 1977,-31 1974.07,-30.59 1971.07,-30.11 1968.05,-29.59"/>
<polygon fill="midnightblue" stroke="midnightblue" points="1786.16,-143.83 1776.23,-147.53 1786.3,-150.83 1786.16,-143.83"/>
</g>
<!-- Node12&#45;&gt;Node9 -->
<g id="edge34" class="edge">
<title>Node12&#45;&gt;Node9</title>
<path fill="none" stroke="midnightblue" d="M1655.46,-147.78C1410.64,-144.87 549.99,-132.35 278,-98 267.29,-96.65 255.76,-94.39 245.37,-92.06"/>
<polygon fill="midnightblue" stroke="midnightblue" points="1655.58,-151.29 1665.62,-147.9 1655.66,-144.29 1655.58,-151.29"/>
</g>
<!-- Node12&#45;&gt;Node11 -->
<g id="edge18" class="edge">
<title>Node12&#45;&gt;Node11</title>
<path fill="none" stroke="midnightblue" d="M1655.46,-147.44C1425.47,-143.47 655.85,-128.23 411,-98 399.82,-96.62 387.77,-94.36 376.91,-92.03"/>
<polygon fill="midnightblue" stroke="midnightblue" points="1655.62,-150.94 1665.68,-147.61 1655.74,-143.94 1655.62,-150.94"/>
</g>
<!-- Node13 -->
<g id="node13" class="node">
<title>Node13</title>
<g id="a_node13"><a xlink:href="d__a__player_8cpp.html" target="_top" xlink:title=" ">
<polygon fill="white" stroke="black" points="2880,-73 2880,-92 2994,-92 2994,-73 2880,-73"/>
<text text-anchor="middle" x="2937" y="-80" font-family="Helvetica,sans-Serif" font-size="10.00">src/d/a/d_a_player.cpp</text>
</a>
</g>
</g>
<!-- Node12&#45;&gt;Node13 -->
<g id="edge12" class="edge">
<title>Node12&#45;&gt;Node13</title>
<path fill="none" stroke="midnightblue" d="M1786.17,-149.2C1961.46,-150.32 2457.45,-148.41 2866,-98 2877.36,-96.6 2889.62,-94.36 2900.7,-92.06"/>
<polygon fill="midnightblue" stroke="midnightblue" points="1786.1,-145.7 1776.07,-149.13 1786.05,-152.7 1786.1,-145.7"/>
</g>
<!-- Node14 -->
<g id="node14" class="node">
<title>Node14</title>
<g id="a_node14"><a xlink:href="d__bg__s_8cpp.html" target="_top" xlink:title=" ">
<polygon fill="white" stroke="black" points="3012,-73 3012,-92 3116,-92 3116,-73 3012,-73"/>
<text text-anchor="middle" x="3064" y="-80" font-family="Helvetica,sans-Serif" font-size="10.00">src/d/bg/d_bg_s.cpp</text>
</a>
</g>
</g>
<!-- Node12&#45;&gt;Node14 -->
<g id="edge13" class="edge">
<title>Node12&#45;&gt;Node14</title>
<path fill="none" stroke="midnightblue" d="M1786.32,-147.6C2012.91,-144.22 2764.2,-130.77 3003,-98 3012.92,-96.64 3023.59,-94.38 3033.19,-92.05"/>
<polygon fill="midnightblue" stroke="midnightblue" points="1786.2,-144.1 1776.25,-147.75 1786.3,-151.1 1786.2,-144.1"/>
</g>
<!-- Node15 -->
<g id="node15" class="node">
<title>Node15</title>
<g id="a_node15"><a xlink:href="d__bg__s__movebg__actor_8cpp.html" target="_top" xlink:title=" ">
<polygon fill="white" stroke="black" points="3134,-67.5 3134,-97.5 3260,-97.5 3260,-67.5 3134,-67.5"/>
<text text-anchor="start" x="3142" y="-85.5" font-family="Helvetica,sans-Serif" font-size="10.00">src/d/bg/d_bg_s_movebg</text>
<text text-anchor="middle" x="3197" y="-74.5" font-family="Helvetica,sans-Serif" font-size="10.00">_actor.cpp</text>
</a>
</g>
</g>
<!-- Node12&#45;&gt;Node15 -->
<g id="edge14" class="edge">
<title>Node12&#45;&gt;Node15</title>
<path fill="none" stroke="midnightblue" d="M1786.32,-147.56C2026.54,-143.9 2860.66,-129.16 3125,-98 3127.91,-97.66 3130.88,-97.26 3133.88,-96.82"/>
<polygon fill="midnightblue" stroke="midnightblue" points="1785.95,-144.07 1776.01,-147.72 1786.06,-151.07 1785.95,-144.07"/>
</g>
<!-- Node16 -->
<g id="node16" class="node">
<title>Node16</title>
<g id="a_node16"><a xlink:href="d__bg__w_8cpp.html" target="_top" xlink:title=" ">
<polygon fill="white" stroke="black" points="491.5,-73 491.5,-92 598.5,-92 598.5,-73 491.5,-73"/>
<text text-anchor="middle" x="545" y="-80" font-family="Helvetica,sans-Serif" font-size="10.00">src/d/bg/d_bg_w.cpp</text>
</a>
</g>
</g>
<!-- Node12&#45;&gt;Node16 -->
<g id="edge15" class="edge">
<title>Node12&#45;&gt;Node16</title>
<path fill="none" stroke="midnightblue" d="M1655.78,-147.09C1449.44,-142.39 812.49,-125.94 608,-98 597.77,-96.6 586.76,-94.34 576.84,-92.01"/>
<polygon fill="midnightblue" stroke="midnightblue" points="1655.78,-150.59 1665.85,-147.32 1655.94,-143.59 1655.78,-150.59"/>
</g>
<!-- Node17 -->
<g id="node17" class="node">
<title>Node17</title>
<g id="a_node17"><a xlink:href="d__cc__s_8cpp.html" target="_top" xlink:title=" ">
<polygon fill="white" stroke="black" points="617,-73 617,-92 721,-92 721,-73 617,-73"/>
<text text-anchor="middle" x="669" y="-80" font-family="Helvetica,sans-Serif" font-size="10.00">src/d/cc/d_cc_s.cpp</text>
</a>
</g>
</g>
<!-- Node12&#45;&gt;Node17 -->
<g id="edge16" class="edge">
<title>Node12&#45;&gt;Node17</title>
<path fill="none" stroke="midnightblue" d="M1655.77,-149.27C1496.66,-150.27 1076.26,-147.55 730,-98 720.19,-96.6 709.65,-94.36 700.14,-92.06"/>
<polygon fill="midnightblue" stroke="midnightblue" points="1655.9,-152.77 1665.87,-149.2 1655.85,-145.77 1655.9,-152.77"/>
</g>
<!-- Node18 -->
<g id="node18" class="node">
<title>Node18</title>
<g id="a_node18"><a xlink:href="d__eye__hl_8cpp.html" target="_top" xlink:title=" ">
<polygon fill="white" stroke="black" points="739,-73 739,-92 837,-92 837,-73 739,-73"/>
<text text-anchor="middle" x="788" y="-80" font-family="Helvetica,sans-Serif" font-size="10.00">src/d/d_eye_hl.cpp</text>
</a>
</g>
</g>
<!-- Node12&#45;&gt;Node18 -->
<g id="edge19" class="edge">
<title>Node12&#45;&gt;Node18</title>
<path fill="none" stroke="midnightblue" d="M1655.72,-148.89C1509.72,-148.87 1146.04,-143.75 846,-98 836.66,-96.58 826.63,-94.33 817.59,-92.03"/>
<polygon fill="midnightblue" stroke="midnightblue" points="1655.86,-152.39 1665.85,-148.89 1655.85,-145.39 1655.86,-152.39"/>
</g>
<!-- Node19 -->
<g id="node19" class="node">
<title>Node19</title>
<g id="a_node19"><a xlink:href="d__kyeff_8cpp.html" target="_top" xlink:title=" ">
<polygon fill="white" stroke="black" points="855,-73 855,-92 945,-92 945,-73 855,-73"/>
<text text-anchor="middle" x="900" y="-80" font-family="Helvetica,sans-Serif" font-size="10.00">src/d/d_kyeff.cpp</text>
</a>
</g>
</g>
<!-- Node12&#45;&gt;Node19 -->
<g id="edge20" class="edge">
<title>Node12&#45;&gt;Node19</title>
<path fill="none" stroke="midnightblue" d="M1655.68,-148.51C1522.68,-147.58 1211.27,-140.58 954,-98 945.29,-96.56 935.94,-94.31 927.52,-92.01"/>
<polygon fill="midnightblue" stroke="midnightblue" points="1655.68,-152.01 1665.7,-148.57 1655.72,-145.01 1655.68,-152.01"/>
</g>
<!-- Node20 -->
<g id="node20" class="node">
<title>Node20</title>
<g id="a_node20"><a xlink:href="d__resorce_8cpp.html" target="_top" xlink:title=" ">
<polygon fill="white" stroke="black" points="963,-73 963,-92 1065,-92 1065,-73 963,-73"/>
<text text-anchor="middle" x="1014" y="-80" font-family="Helvetica,sans-Serif" font-size="10.00">src/d/d_resorce.cpp</text>
</a>
</g>
</g>
<!-- Node12&#45;&gt;Node20 -->
<g id="edge21" class="edge">
<title>Node12&#45;&gt;Node20</title>
<path fill="none" stroke="midnightblue" d="M1655.45,-146.83C1538.15,-143.07 1284.9,-131.5 1074,-98 1064.58,-96.5 1054.46,-94.3 1045.26,-92.05"/>
<polygon fill="midnightblue" stroke="midnightblue" points="1655.59,-150.33 1665.69,-147.15 1655.81,-143.34 1655.59,-150.33"/>
</g>
<!-- Node21 -->
<g id="node21" class="node">
<title>Node21</title>
<g id="a_node21"><a xlink:href="d__stage_8cpp.html" target="_top" xlink:title=" ">
<polygon fill="white" stroke="black" points="1083,-73 1083,-92 1177,-92 1177,-73 1083,-73"/>
<text text-anchor="middle" x="1130" y="-80" font-family="Helvetica,sans-Serif" font-size="10.00">src/d/d_stage.cpp</text>
</a>
</g>
</g>
<!-- Node12&#45;&gt;Node21 -->
<g id="edge22" class="edge">
<title>Node12&#45;&gt;Node21</title>
<path fill="none" stroke="midnightblue" d="M1655.87,-145.7C1554.68,-140.6 1353.91,-127.47 1186,-98 1177.3,-96.47 1167.96,-94.28 1159.45,-92.06"/>
<polygon fill="midnightblue" stroke="midnightblue" points="1655.77,-149.2 1665.93,-146.2 1656.12,-142.21 1655.77,-149.2"/>
</g>
<!-- Node22 -->
<g id="node22" class="node">
<title>Node22</title>
<g id="a_node22"><a xlink:href="d__event_8cpp.html" target="_top" xlink:title=" ">
<polygon fill="white" stroke="black" points="1195.5,-73 1195.5,-92 1316.5,-92 1316.5,-73 1195.5,-73"/>
<text text-anchor="middle" x="1256" y="-80" font-family="Helvetica,sans-Serif" font-size="10.00">src/d/event/d_event.cpp</text>
</a>
</g>
</g>
<!-- Node12&#45;&gt;Node22 -->
<g id="edge23" class="edge">
<title>Node12&#45;&gt;Node22</title>
<path fill="none" stroke="midnightblue" d="M1655.45,-141.77C1576.72,-133.31 1440.77,-117.51 1325,-98 1314.86,-96.29 1303.95,-94.14 1293.86,-92.03"/>
<polygon fill="midnightblue" stroke="midnightblue" points="1655.39,-145.28 1665.7,-142.87 1656.13,-138.32 1655.39,-145.28"/>
</g>
<!-- Node23 -->
<g id="node23" class="node">
<title>Node23</title>
<g id="a_node23"><a xlink:href="d__event__data_8cpp.html" target="_top" xlink:title=" ">
<polygon fill="white" stroke="black" points="1334.5,-67.5 1334.5,-97.5 1437.5,-97.5 1437.5,-67.5 1334.5,-67.5"/>
<text text-anchor="start" x="1342.5" y="-85.5" font-family="Helvetica,sans-Serif" font-size="10.00">src/d/event/d_event</text>
<text text-anchor="middle" x="1386" y="-74.5" font-family="Helvetica,sans-Serif" font-size="10.00">_data.cpp</text>
</a>
</g>
</g>
<!-- Node12&#45;&gt;Node23 -->
<g id="edge24" class="edge">
<title>Node12&#45;&gt;Node23</title>
<path fill="none" stroke="midnightblue" d="M1655.67,-137.55C1599.82,-127.95 1517.41,-113.17 1446,-98 1443.27,-97.42 1440.48,-96.81 1437.67,-96.18"/>
<polygon fill="midnightblue" stroke="midnightblue" points="1655.33,-141.05 1665.78,-139.29 1656.51,-134.15 1655.33,-141.05"/>
</g>
<!-- Node24 -->
<g id="node24" class="node">
<title>Node24</title>
<g id="a_node24"><a xlink:href="d__event__manager_8cpp.html" target="_top" xlink:title=" ">
<polygon fill="white" stroke="black" points="1455.5,-67.5 1455.5,-97.5 1558.5,-97.5 1558.5,-67.5 1455.5,-67.5"/>
<text text-anchor="start" x="1463.5" y="-85.5" font-family="Helvetica,sans-Serif" font-size="10.00">src/d/event/d_event</text>
<text text-anchor="middle" x="1507" y="-74.5" font-family="Helvetica,sans-Serif" font-size="10.00">_manager.cpp</text>
</a>
</g>
</g>
<!-- Node12&#45;&gt;Node24 -->
<g id="edge25" class="edge">
<title>Node12&#45;&gt;Node24</title>
<path fill="none" stroke="midnightblue" d="M1664.85,-131.44C1630.16,-120.91 1586.18,-107.55 1553.46,-97.61"/>
<polygon fill="midnightblue" stroke="midnightblue" points="1664.24,-134.92 1674.83,-134.48 1666.28,-128.22 1664.24,-134.92"/>
</g>
<!-- Node25 -->
<g id="node25" class="node">
<title>Node25</title>
<g id="a_node25"><a xlink:href="d__kankyo_8cpp.html" target="_top" xlink:title=" ">
<polygon fill="white" stroke="black" points="1680,-6 1680,-25 1814,-25 1814,-6 1680,-6"/>
<text text-anchor="middle" x="1747" y="-13" font-family="Helvetica,sans-Serif" font-size="10.00">src/d/kankyo/d_kankyo.cpp</text>
</a>
</g>
</g>
<!-- Node12&#45;&gt;Node25 -->
<g id="edge26" class="edge">
<title>Node12&#45;&gt;Node25</title>
<path fill="none" stroke="midnightblue" d="M1725.76,-124.32C1731.66,-94.38 1741.4,-44.91 1745.31,-25.1"/>
<polygon fill="midnightblue" stroke="midnightblue" points="1722.28,-123.89 1723.78,-134.37 1729.15,-125.24 1722.28,-123.89"/>
</g>
<!-- Node26 -->
<g id="node26" class="node">
<title>Node26</title>
<g id="a_node26"><a xlink:href="d__kankyo__wether_8cpp.html" target="_top" xlink:title=" ">
<polygon fill="white" stroke="black" points="1577,-67.5 1577,-97.5 1693,-97.5 1693,-67.5 1577,-67.5"/>
<text text-anchor="start" x="1585" y="-85.5" font-family="Helvetica,sans-Serif" font-size="10.00">src/d/kankyo/d_kankyo</text>
<text text-anchor="middle" x="1635" y="-74.5" font-family="Helvetica,sans-Serif" font-size="10.00">_wether.cpp</text>
</a>
</g>
</g>
<!-- Node12&#45;&gt;Node26 -->
<g id="edge27" class="edge">
<title>Node12&#45;&gt;Node26</title>
<path fill="none" stroke="midnightblue" d="M1694.1,-128.17C1680.95,-118.23 1665.45,-106.51 1653.62,-97.58"/>
<polygon fill="midnightblue" stroke="midnightblue" points="1692.25,-131.16 1702.34,-134.4 1696.47,-125.57 1692.25,-131.16"/>
</g>
<!-- Node27 -->
<g id="node27" class="node">
<title>Node27</title>
<g id="a_node27"><a xlink:href="d__menu__window_8cpp.html" target="_top" xlink:title=" ">
<polygon fill="white" stroke="black" points="383.5,-6 383.5,-25 542.5,-25 542.5,-6 383.5,-6"/>
<text text-anchor="middle" x="463" y="-13" font-family="Helvetica,sans-Serif" font-size="10.00">src/d/menu/d_menu_window.cpp</text>
</a>
</g>
</g>
<!-- Node12&#45;&gt;Node27 -->
<g id="edge28" class="edge">
<title>Node12&#45;&gt;Node27</title>
<path fill="none" stroke="midnightblue" d="M1655.3,-148.01C1405.64,-145.86 527.5,-135.65 482,-98 460.17,-79.94 460.57,-42.11 462,-25.1"/>
<polygon fill="midnightblue" stroke="midnightblue" points="1655.64,-151.51 1665.67,-148.1 1655.7,-144.51 1655.64,-151.51"/>
</g>
<!-- Node28 -->
<g id="node28" class="node">
<title>Node28</title>
<g id="a_node28"><a xlink:href="d__menu__window__HIO_8cpp.html" target="_top" xlink:title=" ">
<polygon fill="white" stroke="black" points="1749.5,-67.5 1749.5,-97.5 1890.5,-97.5 1890.5,-67.5 1749.5,-67.5"/>
<text text-anchor="start" x="1757.5" y="-85.5" font-family="Helvetica,sans-Serif" font-size="10.00">src/d/menu/d_menu_window</text>
<text text-anchor="middle" x="1820" y="-74.5" font-family="Helvetica,sans-Serif" font-size="10.00">_HIO.cpp</text>
</a>
</g>
</g>
<!-- Node12&#45;&gt;Node28 -->
<g id="edge29" class="edge">
<title>Node12&#45;&gt;Node28</title>
<path fill="none" stroke="midnightblue" d="M1751.11,-128.73C1766.42,-118.68 1784.69,-106.68 1798.56,-97.58"/>
<polygon fill="midnightblue" stroke="midnightblue" points="1748.92,-125.98 1742.48,-134.4 1752.76,-131.83 1748.92,-125.98"/>
</g>
<!-- Node29 -->
<g id="node29" class="node">
<title>Node29</title>
<g id="a_node29"><a xlink:href="d__meter2__draw_8cpp.html" target="_top" xlink:title=" ">
<polygon fill="white" stroke="black" points="2615,-0.5 2615,-30.5 2725,-30.5 2725,-0.5 2615,-0.5"/>
<text text-anchor="start" x="2623" y="-18.5" font-family="Helvetica,sans-Serif" font-size="10.00">src/d/meter/d_meter2</text>
<text text-anchor="middle" x="2670" y="-7.5" font-family="Helvetica,sans-Serif" font-size="10.00">_draw.cpp</text>
</a>
</g>
</g>
<!-- Node12&#45;&gt;Node29 -->
<g id="edge31" class="edge">
<title>Node12&#45;&gt;Node29</title>
<path fill="none" stroke="midnightblue" d="M1786.3,-147.19C1993.35,-142.74 2623.55,-126.88 2656,-98 2674.77,-81.3 2674.42,-49.34 2672.32,-30.8"/>
<polygon fill="midnightblue" stroke="midnightblue" points="1786.1,-143.69 1776.18,-147.4 1786.25,-150.69 1786.1,-143.69"/>
</g>
<!-- Node30 -->
<g id="node30" class="node">
<title>Node30</title>
<g id="a_node30"><a xlink:href="d__msg__flow_8cpp.html" target="_top" xlink:title=" ">
<polygon fill="white" stroke="black" points="2037.5,-73 2037.5,-92 2170.5,-92 2170.5,-73 2037.5,-73"/>
<text text-anchor="middle" x="2104" y="-80" font-family="Helvetica,sans-Serif" font-size="10.00">src/d/msg/d_msg_flow.cpp</text>
</a>
</g>
</g>
<!-- Node12&#45;&gt;Node30 -->
<g id="edge33" class="edge">
<title>Node12&#45;&gt;Node30</title>
<path fill="none" stroke="midnightblue" d="M1786.32,-138.25C1848.52,-128.37 1944.75,-112.79 2028,-98 2038.45,-96.14 2049.69,-94.05 2060.23,-92.05"/>
<polygon fill="midnightblue" stroke="midnightblue" points="1785.58,-134.82 1776.25,-139.85 1786.68,-141.74 1785.58,-134.82"/>
</g>
<!-- Node31 -->
<g id="node31" class="node">
<title>Node31</title>
<g id="a_node31"><a xlink:href="m__Do__graphic_8cpp.html" target="_top" xlink:title=" ">
<polygon fill="white" stroke="black" points="2189,-73 2189,-92 2331,-92 2331,-73 2189,-73"/>
<text text-anchor="middle" x="2260" y="-80" font-family="Helvetica,sans-Serif" font-size="10.00">src/m_Do/m_Do_graphic.cpp</text>
</a>
</g>
</g>
<!-- Node12&#45;&gt;Node31 -->
<g id="edge35" class="edge">
<title>Node12&#45;&gt;Node31</title>
<path fill="none" stroke="midnightblue" d="M1786.23,-142.77C1875.39,-134.6 2040.21,-118.33 2180,-98 2191.73,-96.29 2204.38,-94.15 2216.08,-92.03"/>
<polygon fill="midnightblue" stroke="midnightblue" points="1785.91,-139.28 1776.27,-143.67 1786.54,-146.25 1785.91,-139.28"/>
</g>
<!-- Node32 -->
<g id="node32" class="node">
<title>Node32</title>
<g id="a_node32"><a xlink:href="m__Do__machine__exception_8cpp.html" target="_top" xlink:title=" ">
<polygon fill="white" stroke="black" points="2349.5,-67.5 2349.5,-97.5 2478.5,-97.5 2478.5,-67.5 2349.5,-67.5"/>
<text text-anchor="start" x="2357.5" y="-85.5" font-family="Helvetica,sans-Serif" font-size="10.00">src/m_Do/m_Do_machine</text>
<text text-anchor="middle" x="2414" y="-74.5" font-family="Helvetica,sans-Serif" font-size="10.00">_exception.cpp</text>
</a>
</g>
</g>
<!-- Node12&#45;&gt;Node32 -->
<g id="edge36" class="edge">
<title>Node12&#45;&gt;Node32</title>
<path fill="none" stroke="midnightblue" d="M1786.53,-145.57C1899.79,-139.97 2139.33,-125.76 2340,-98 2343.11,-97.57 2346.29,-97.09 2349.5,-96.58"/>
<polygon fill="midnightblue" stroke="midnightblue" points="1786.11,-142.09 1776.29,-146.07 1786.45,-149.08 1786.11,-142.09"/>
</g>
<!-- Node33 -->
<g id="node33" class="node">
<title>Node33</title>
<g id="a_node33"><a xlink:href="m__Do__main_8cpp.html" target="_top" xlink:title=" ">
<polygon fill="white" stroke="black" points="2496.5,-73 2496.5,-92 2627.5,-92 2627.5,-73 2496.5,-73"/>
<text text-anchor="middle" x="2562" y="-80" font-family="Helvetica,sans-Serif" font-size="10.00">src/m_Do/m_Do_main.cpp</text>
</a>
</g>
</g>
<!-- Node12&#45;&gt;Node33 -->
<g id="edge37" class="edge">
<title>Node12&#45;&gt;Node33</title>
<path fill="none" stroke="midnightblue" d="M1786.1,-147.02C1918.7,-143.38 2229.42,-131.71 2488,-98 2499.55,-96.49 2512.02,-94.28 2523.36,-92.04"/>
<polygon fill="midnightblue" stroke="midnightblue" points="1786.01,-143.52 1776.11,-147.29 1786.2,-150.52 1786.01,-143.52"/>
</g>
<!-- Node34 -->
<g id="node34" class="node">
<title>Node34</title>
<g id="a_node34"><a xlink:href="d__item_8h.html" target="_top" xlink:title=" ">
<polygon fill="white" stroke="black" points="3316.5,-73 3316.5,-92 3411.5,-92 3411.5,-73 3316.5,-73"/>
<text text-anchor="middle" x="3364" y="-80" font-family="Helvetica,sans-Serif" font-size="10.00">include/d/d_item.h</text>
</a>
</g>
</g>
<!-- Node12&#45;&gt;Node34 -->
<g id="edge38" class="edge">
<title>Node12&#45;&gt;Node34</title>
<path fill="none" stroke="midnightblue" d="M1786.49,-147.4C2042.3,-142.95 2974.37,-125.19 3269,-98 3284.45,-96.57 3301.21,-94.27 3316.29,-91.92"/>
<polygon fill="midnightblue" stroke="midnightblue" points="1786.19,-143.91 1776.25,-147.58 1786.31,-150.91 1786.19,-143.91"/>
</g>
<!-- Node35 -->
<g id="node35" class="node">
<title>Node35</title>
<g id="a_node35"><a xlink:href="d__kantera__icon__meter_8h.html" target="_top" xlink:title=" ">
<polygon fill="white" stroke="black" points="2722.5,-67.5 2722.5,-97.5 2823.5,-97.5 2823.5,-67.5 2722.5,-67.5"/>
<text text-anchor="start" x="2730.5" y="-85.5" font-family="Helvetica,sans-Serif" font-size="10.00">include/d/d_kantera</text>
<text text-anchor="middle" x="2773" y="-74.5" font-family="Helvetica,sans-Serif" font-size="10.00">_icon_meter.h</text>
</a>
</g>
</g>
<!-- Node12&#45;&gt;Node35 -->
<g id="edge41" class="edge">
<title>Node12&#45;&gt;Node35</title>
<path fill="none" stroke="midnightblue" d="M1786.21,-148.94C1944.8,-149.2 2363.02,-144.96 2708,-98 2712.7,-97.36 2717.56,-96.55 2722.41,-95.65"/>
<polygon fill="midnightblue" stroke="midnightblue" points="1786.15,-145.44 1776.14,-148.92 1786.13,-152.44 1786.15,-145.44"/>
</g>
<!-- Node37 -->
<g id="node37" class="node">
<title>Node37</title>
<g id="a_node37"><a xlink:href="d__msg__object_8h.html" target="_top" xlink:title=" ">
<polygon fill="white" stroke="black" points="1909,-67.5 1909,-97.5 2019,-97.5 2019,-67.5 1909,-67.5"/>
<text text-anchor="start" x="1917" y="-85.5" font-family="Helvetica,sans-Serif" font-size="10.00">include/d/msg/d_msg</text>
<text text-anchor="middle" x="1964" y="-74.5" font-family="Helvetica,sans-Serif" font-size="10.00">_object.h</text>
</a>
</g>
</g>
<!-- Node12&#45;&gt;Node37 -->
<g id="edge45" class="edge">
<title>Node12&#45;&gt;Node37</title>
<path fill="none" stroke="midnightblue" d="M1783.25,-131.85C1822.86,-121.25 1873.61,-107.68 1911.25,-97.61"/>
<polygon fill="midnightblue" stroke="midnightblue" points="1782.18,-128.51 1773.43,-134.48 1783.99,-135.27 1782.18,-128.51"/>
</g>
<!-- Node34&#45;&gt;Node6 -->
<g id="edge39" class="edge">
<title>Node34&#45;&gt;Node6</title>
<path fill="none" stroke="midnightblue" d="M3345.79,-65.93C3333.22,-55.18 3316.65,-41 3304.47,-30.59"/>
<polygon fill="midnightblue" stroke="midnightblue" points="3343.88,-68.89 3353.75,-72.73 3348.43,-63.57 3343.88,-68.89"/>
</g>
<!-- Node34&#45;&gt;Node7 -->
<g id="edge40" class="edge">
<title>Node34&#45;&gt;Node7</title>
<path fill="none" stroke="midnightblue" d="M3378.6,-65.13C3389.95,-52.42 3405.23,-35.3 3414.3,-25.13"/>
<polygon fill="midnightblue" stroke="midnightblue" points="3375.87,-62.94 3371.82,-72.73 3381.09,-67.6 3375.87,-62.94"/>
</g>
<!-- Node35&#45;&gt;Node29 -->
<g id="edge43" class="edge">
<title>Node35&#45;&gt;Node29</title>
<path fill="none" stroke="midnightblue" d="M2742.12,-62.02C2726.1,-51.9 2706.87,-39.77 2692.31,-30.58"/>
<polygon fill="midnightblue" stroke="midnightblue" points="2740.33,-65.02 2750.65,-67.4 2744.06,-59.1 2740.33,-65.02"/>
</g>
<!-- Node36 -->
<g id="node36" class="node">
<title>Node36</title>
<g id="a_node36"><a xlink:href="d__kantera__icon__meter_8cpp.html" target="_top" xlink:title=" ">
<polygon fill="white" stroke="black" points="2743.5,-0.5 2743.5,-30.5 2850.5,-30.5 2850.5,-0.5 2743.5,-0.5"/>
<text text-anchor="start" x="2751.5" y="-18.5" font-family="Helvetica,sans-Serif" font-size="10.00">src/d/d_kantera_icon</text>
<text text-anchor="middle" x="2797" y="-7.5" font-family="Helvetica,sans-Serif" font-size="10.00">_meter.cpp</text>
</a>
</g>
</g>
<!-- Node35&#45;&gt;Node36 -->
<g id="edge42" class="edge">
<title>Node35&#45;&gt;Node36</title>
<path fill="none" stroke="midnightblue" d="M2781.68,-57.99C2785.07,-48.8 2788.85,-38.58 2791.8,-30.58"/>
<polygon fill="midnightblue" stroke="midnightblue" points="2778.39,-56.8 2778.21,-67.4 2784.95,-59.23 2778.39,-56.8"/>
</g>
<!-- Node37&#45;&gt;Node2 -->
<g id="edge50" class="edge">
<title>Node37&#45;&gt;Node2</title>
<path fill="none" stroke="midnightblue" d="M1898.96,-67.09C1547.21,-25.74 709.56,-47.62 374,-31 326.59,-28.65 272.7,-24.45 234.11,-21.17"/>
<polygon fill="midnightblue" stroke="midnightblue" points="1898.62,-70.57 1908.96,-68.3 1899.46,-63.62 1898.62,-70.57"/>
</g>
<!-- Node37&#45;&gt;Node8 -->
<g id="edge48" class="edge">
<title>Node37&#45;&gt;Node8</title>
<path fill="none" stroke="midnightblue" d="M1946.7,-59.45C1939.21,-49.9 1930.66,-39 1924.04,-30.58"/>
<polygon fill="midnightblue" stroke="midnightblue" points="1944.01,-61.69 1952.93,-67.4 1949.51,-57.37 1944.01,-61.69"/>
</g>
<!-- Node37&#45;&gt;Node25 -->
<g id="edge46" class="edge">
<title>Node37&#45;&gt;Node25</title>
<path fill="none" stroke="midnightblue" d="M1907.55,-64.59C1865.17,-51.9 1808.9,-35.04 1775.47,-25.03"/>
<polygon fill="midnightblue" stroke="midnightblue" points="1906.6,-67.96 1917.18,-67.48 1908.61,-61.25 1906.6,-67.96"/>
</g>
<!-- Node37&#45;&gt;Node27 -->
<g id="edge47" class="edge">
<title>Node37&#45;&gt;Node27</title>
<path fill="none" stroke="midnightblue" d="M1898.66,-67.04C1614.15,-32.25 800.9,-20.33 542.66,-17.33"/>
<polygon fill="midnightblue" stroke="midnightblue" points="1898.6,-70.56 1908.96,-68.34 1899.48,-63.62 1898.6,-70.56"/>
</g>
<!-- Node37&#45;&gt;Node29 -->
<g id="edge49" class="edge">
<title>Node37&#45;&gt;Node29</title>
<path fill="none" stroke="midnightblue" d="M2029.13,-67.15C2251.83,-34.31 2505.14,-22.23 2614.83,-18.23"/>
<polygon fill="midnightblue" stroke="midnightblue" points="2028.59,-63.69 2019.22,-68.63 2029.63,-70.61 2028.59,-63.69"/>
</g>
<!-- Node38 -->
<g id="node38" class="node">
<title>Node38</title>
<g id="a_node38"><a xlink:href="d__msg__object_8cpp.html" target="_top" xlink:title=" ">
<polygon fill="white" stroke="black" points="1986,-6 1986,-25 2128,-25 2128,-6 1986,-6"/>
<text text-anchor="middle" x="2057" y="-13" font-family="Helvetica,sans-Serif" font-size="10.00">src/d/msg/d_msg_object.cpp</text>
</a>
</g>
</g>
<!-- Node37&#45;&gt;Node38 -->
<g id="edge51" class="edge">
<title>Node37&#45;&gt;Node38</title>
<path fill="none" stroke="midnightblue" d="M1992.41,-61.64C2009.96,-49.37 2031.59,-34.26 2044.83,-25.01"/>
<polygon fill="midnightblue" stroke="midnightblue" points="1990.37,-58.8 1984.18,-67.4 1994.38,-64.54 1990.37,-58.8"/>
</g>
<!-- Node39&#45;&gt;Node2 -->
<g id="edge54" class="edge">
<title>Node39&#45;&gt;Node2</title>
<path fill="none" stroke="midnightblue" d="M75.77,-124.98C68.63,-107.7 62.98,-84.31 74,-67 86.45,-47.44 108.67,-35.33 129.74,-27.89"/>
<polygon fill="midnightblue" stroke="midnightblue" points="72.71,-126.71 80.04,-134.36 79.08,-123.81 72.71,-126.71"/>
</g>
<!-- Node39&#45;&gt;Node5 -->
<g id="edge55" class="edge">
<title>Node39&#45;&gt;Node5</title>
<path fill="none" stroke="midnightblue" d="M113.59,-171.67C129.16,-186.99 149.7,-207.31 171,-221 195.39,-236.67 225.43,-248.94 249.06,-257.46"/>
<polygon fill="midnightblue" stroke="midnightblue" points="115.96,-169.1 106.37,-164.61 111.07,-174.1 115.96,-169.1"/>
</g>
<!-- Node39&#45;&gt;Node27 -->
<g id="edge53" class="edge">
<title>Node39&#45;&gt;Node27</title>
<path fill="none" stroke="midnightblue" d="M88.46,-124.21C90.18,-105.72 95.69,-81.12 112,-67 132.19,-49.52 286.23,-32.54 383.43,-23.41"/>
<polygon fill="midnightblue" stroke="midnightblue" points="84.96,-124.06 87.83,-134.26 91.95,-124.5 84.96,-124.06"/>
</g>
</g>
</svg>
        <g id="navigator" transform="translate(0 0)" fill="#404254">
                <rect fill="#f2f5e9" fill-opacity="0.5" stroke="#606060" stroke-width=".5" x="0" y="0" width="60" height="60"/>
                <use id="zoomplus" xlink:href="#zoomPlus" x="17" y="9" onmousedown="handleZoom(evt,'in')"/>
                <use id="zoomminus" xlink:href="#zoomMin" x="42" y="9" onmousedown="handleZoom(evt,'out')"/>
                <use id="reset" xlink:href="#resetDef" x="30" y="36" onmousedown="handleReset()"/>
                <g id="arrowUp" xlink:href="#dirArrow" transform="translate(30 24)" onmousedown="handlePan(0,-1)">
                  <use xlink:href="#rim" fill="#404040">
                        <set attributeName="fill" to="#808080" begin="arrowUp.mouseover" end="arrowUp.mouseout"/>
                  </use>
                  <path fill="none" stroke="white" stroke-width="1.5" d="M0,-3.0v7 M-2.5,-0.5L0,-3.0L2.5,-0.5"/>
                </g>
                <g id="arrowRight" xlink:href="#dirArrow" transform="rotate(90) translate(36 -43)" onmousedown="handlePan(1,0)">
                  <use xlink:href="#rim" fill="#404040">
                        <set attributeName="fill" to="#808080" begin="arrowRight.mouseover" end="arrowRight.mouseout"/>
                  </use>
                  <path fill="none" stroke="white" stroke-width="1.5" d="M0,-3.0v7 M-2.5,-0.5L0,-3.0L2.5,-0.5"/>
                </g>
                <g id="arrowDown" xlink:href="#dirArrow" transform="rotate(180) translate(-30 -48)" onmousedown="handlePan(0,1)">
                  <use xlink:href="#rim" fill="#404040">
                        <set attributeName="fill" to="#808080" begin="arrowDown.mouseover" end="arrowDown.mouseout"/>
                  </use>
                  <path fill="none" stroke="white" stroke-width="1.5" d="M0,-3.0v7 M-2.5,-0.5L0,-3.0L2.5,-0.5"/>
                </g>
                <g id="arrowLeft" xlink:href="#dirArrow" transform="rotate(270) translate(-36 17)" onmousedown="handlePan(-1,0)">
                  <use xlink:href="#rim" fill="#404040">
                        <set attributeName="fill" to="#808080" begin="arrowLeft.mouseover" end="arrowLeft.mouseout"/>
                  </use>
                  <path fill="none" stroke="white" stroke-width="1.5" d="M0,-3.0v7 M-2.5,-0.5L0,-3.0L2.5,-0.5"/>
                </g>
        </g>
        <svg viewBox="0 0 15 15" width="100%" height="30px" preserveAspectRatio="xMaxYMin meet">
         <g id="arrow_out" transform="scale(0.3 0.3)">
          <a xlink:href="d__meter__map_8h__dep__incl_org.svg" target="_base">
           <rect id="button" ry="5" rx="5" y="6" x="6" height="38" width="38"
                fill="#f2f5e9" fill-opacity="0.5" stroke="#606060" stroke-width="1.0"/>
           <path id="arrow"
             d="M 11.500037,31.436501 C 11.940474,20.09759 22.043105,11.32322 32.158766,21.979434 L 37.068811,17.246167 C 37.068811,17.246167 37.088388,32 37.088388,32 L 22.160133,31.978069 C 22.160133,31.978069 26.997745,27.140456 26.997745,27.140456 C 18.528582,18.264221 13.291696,25.230495 11.500037,31.436501 z"
             style="fill:#404040;"/>
          </a>
         </g>
        </svg>
</svg>
