<?xml version="1.0" encoding="UTF-8" standalone="no"?>
<!DOCTYPE svg PUBLIC "-//W3C//DTD SVG 1.1//EN"
 "http://www.w3.org/Graphics/SVG/1.1/DTD/svg11.dtd">
<!-- Generated by graphviz version 7.0.4 (20221203.1631)
 -->
<!-- Title: include/d/map/d_map_path_dmap.h Pages: 1 -->
<svg width="4747pt" height="489pt"
 viewBox="0.00 0.00 4746.98 489.00" xmlns="http://www.w3.org/2000/svg" xmlns:xlink="http://www.w3.org/1999/xlink">
<g id="graph0" class="graph" transform="scale(1 1) rotate(0) translate(4 485)">
<title>include/d/map/d_map_path_dmap.h</title>
<!-- Node1 -->
<g id="node1" class="node">
<title>Node1</title>
<g id="a_node1"><a xlink:title=" ">
<polygon fill="#999999" stroke="#666666" points="4004,-481 3894,-481 3894,-451 4004,-451 4004,-481"/>
<text text-anchor="start" x="3902" y="-469" font-family="Helvetica,sans-Serif" font-size="10.00">include/d/map/d_map</text>
<text text-anchor="middle" x="3949" y="-458" font-family="Helvetica,sans-Serif" font-size="10.00">_path_dmap.h</text>
</a>
</g>
</g>
<!-- Node2 -->
<g id="node2" class="node">
<title>Node2</title>
<g id="a_node2"><a xlink:href="d__meter__map_8h.html" target="_top" xlink:title=" ">
<polygon fill="white" stroke="#666666" points="2926,-415 2804,-415 2804,-385 2926,-385 2926,-415"/>
<text text-anchor="start" x="2812" y="-403" font-family="Helvetica,sans-Serif" font-size="10.00">include/d/meter/d_meter</text>
<text text-anchor="middle" x="2865" y="-392" font-family="Helvetica,sans-Serif" font-size="10.00">_map.h</text>
</a>
</g>
</g>
<!-- Node1&#45;&gt;Node2 -->
<g id="edge1" class="edge">
<title>Node1&#45;&gt;Node2</title>
<path fill="none" stroke="#63b8ff" d="M3882.52,-461.07C3686.93,-449.53 3115.37,-415.78 2926.43,-404.63"/>
<polygon fill="#63b8ff" stroke="#63b8ff" points="3882.05,-464.55 3892.24,-461.65 3882.47,-457.57 3882.05,-464.55"/>
</g>
<!-- Node91 -->
<g id="node47" class="node">
<title>Node91</title>
<g id="a_node47"><a xlink:href="d__map__path__dmap_8cpp.html" target="_top" xlink:title=" ">
<polygon fill="white" stroke="#666666" points="4683,-101.5 4567,-101.5 4567,-71.5 4683,-71.5 4683,-101.5"/>
<text text-anchor="start" x="4575" y="-89.5" font-family="Helvetica,sans-Serif" font-size="10.00">src/d/map/d_map_path</text>
<text text-anchor="middle" x="4625" y="-78.5" font-family="Helvetica,sans-Serif" font-size="10.00">_dmap.cpp</text>
</a>
</g>
</g>
<!-- Node1&#45;&gt;Node91 -->
<g id="edge70" class="edge">
<title>Node1&#45;&gt;Node91</title>
<path fill="none" stroke="#63b8ff" d="M4015.67,-460.52C4194.79,-447.58 4673,-406.84 4673,-340.5 4673,-340.5 4673,-340.5 4673,-217.5 4673,-172.99 4647.93,-124.92 4634.03,-101.68"/>
<polygon fill="#63b8ff" stroke="#63b8ff" points="4015.54,-457.02 4005.82,-461.22 4016.04,-464 4015.54,-457.02"/>
</g>
<!-- Node3 -->
<g id="node3" class="node">
<title>Node3</title>
<g id="a_node3"><a xlink:href="d__meter2_8h.html" target="_top" xlink:title=" ">
<polygon fill="white" stroke="#666666" points="2932,-349 2798,-349 2798,-330 2932,-330 2932,-349"/>
<text text-anchor="middle" x="2865" y="-337" font-family="Helvetica,sans-Serif" font-size="10.00">include/d/meter/d_meter2.h</text>
</a>
</g>
</g>
<!-- Node2&#45;&gt;Node3 -->
<g id="edge2" class="edge">
<title>Node2&#45;&gt;Node3</title>
<path fill="none" stroke="#63b8ff" d="M2865,-373.3C2865,-364.65 2865,-355.58 2865,-349.18"/>
<polygon fill="#63b8ff" stroke="#63b8ff" points="2861.5,-373.03 2865,-383.03 2868.5,-373.03 2861.5,-373.03"/>
</g>
<!-- Node46 -->
<g id="node23" class="node">
<title>Node46</title>
<g id="a_node23"><a xlink:href="d__meter__map_8cpp.html" target="_top" xlink:title=" ">
<polygon fill="white" stroke="#666666" points="104,-30 0,-30 0,0 104,0 104,-30"/>
<text text-anchor="start" x="8" y="-18" font-family="Helvetica,sans-Serif" font-size="10.00">src/d/meter/d_meter</text>
<text text-anchor="middle" x="52" y="-7" font-family="Helvetica,sans-Serif" font-size="10.00">_map.cpp</text>
</a>
</g>
</g>
<!-- Node2&#45;&gt;Node46 -->
<g id="edge69" class="edge">
<title>Node2&#45;&gt;Node46</title>
<path fill="none" stroke="#63b8ff" d="M2792.29,-397.88C2350.94,-390.84 50,-350.76 50,-280 50,-280 50,-280 50,-157 50,-110.73 51.09,-55.93 51.66,-30.41"/>
<polygon fill="#63b8ff" stroke="#63b8ff" points="2792.02,-401.37 2802.07,-398.03 2792.13,-394.38 2792.02,-401.37"/>
</g>
<!-- Node4 -->
<g id="node4" class="node">
<title>Node4</title>
<g id="a_node4"><a xlink:href="d__meter2__info_8h.html" target="_top" xlink:title=" ">
<polygon fill="white" stroke="#666666" points="4197.5,-294 4070.5,-294 4070.5,-264 4197.5,-264 4197.5,-294"/>
<text text-anchor="start" x="4078.5" y="-282" font-family="Helvetica,sans-Serif" font-size="10.00">include/d/meter/d_meter2</text>
<text text-anchor="middle" x="4134" y="-271" font-family="Helvetica,sans-Serif" font-size="10.00">_info.h</text>
</a>
</g>
</g>
<!-- Node3&#45;&gt;Node4 -->
<g id="edge3" class="edge">
<title>Node3&#45;&gt;Node4</title>
<path fill="none" stroke="#63b8ff" d="M2943.73,-334.87C3176.45,-324.14 3858.13,-292.72 4070.25,-282.94"/>
<polygon fill="#63b8ff" stroke="#63b8ff" points="2943.67,-331.37 2933.84,-335.33 2943.99,-338.36 2943.67,-331.37"/>
</g>
<!-- Node107 -->
<g id="node50" class="node">
<title>Node107</title>
<g id="a_node50"><a xlink:href="d__meter2_8cpp.html" target="_top" xlink:title=" ">
<polygon fill="white" stroke="#666666" points="2837,-288.5 2709,-288.5 2709,-269.5 2837,-269.5 2837,-288.5"/>
<text text-anchor="middle" x="2773" y="-276.5" font-family="Helvetica,sans-Serif" font-size="10.00">src/d/meter/d_meter2.cpp</text>
</a>
</g>
</g>
<!-- Node3&#45;&gt;Node107 -->
<g id="edge68" class="edge">
<title>Node3&#45;&gt;Node107</title>
<path fill="none" stroke="#63b8ff" d="M2841.65,-323.66C2824.45,-312.72 2801.61,-298.19 2787.1,-288.97"/>
<polygon fill="#63b8ff" stroke="#63b8ff" points="2839.43,-326.39 2849.75,-328.8 2843.19,-320.48 2839.43,-326.39"/>
</g>
<!-- Node5 -->
<g id="node5" class="node">
<title>Node5</title>
<g id="a_node5"><a xlink:href="d__a__alink_8h.html" target="_top" xlink:title=" ">
<polygon fill="white" stroke="#666666" points="4149,-228 4033,-228 4033,-209 4149,-209 4149,-228"/>
<text text-anchor="middle" x="4091" y="-216" font-family="Helvetica,sans-Serif" font-size="10.00">include/d/a/d_a_alink.h</text>
</a>
</g>
</g>
<!-- Node4&#45;&gt;Node5 -->
<g id="edge4" class="edge">
<title>Node4&#45;&gt;Node5</title>
<path fill="none" stroke="#63b8ff" d="M4116.62,-254.35C4109.82,-245.11 4102.46,-235.09 4097.38,-228.18"/>
<polygon fill="#63b8ff" stroke="#63b8ff" points="4113.73,-256.34 4122.47,-262.32 4119.37,-252.19 4113.73,-256.34"/>
</g>
<!-- Node12 -->
<g id="node8" class="node">
<title>Node12</title>
<g id="a_node8"><a xlink:href="d__meter2__info_8cpp.html" target="_top" xlink:title=" ">
<polygon fill="white" stroke="#666666" points="4072,-30 3962,-30 3962,0 4072,0 4072,-30"/>
<text text-anchor="start" x="3970" y="-18" font-family="Helvetica,sans-Serif" font-size="10.00">src/d/meter/d_meter2</text>
<text text-anchor="middle" x="4017" y="-7" font-family="Helvetica,sans-Serif" font-size="10.00">_info.cpp</text>
</a>
</g>
</g>
<!-- Node4&#45;&gt;Node12 -->
<g id="edge66" class="edge">
<title>Node4&#45;&gt;Node12</title>
<path fill="none" stroke="#63b8ff" d="M4149.34,-253.51C4155.71,-240.53 4161.01,-224.16 4158,-209 4144.63,-141.56 4143.67,-118.26 4099,-66 4086,-50.79 4067.17,-38.85 4050.83,-30.46"/>
<polygon fill="#63b8ff" stroke="#63b8ff" points="4146.32,-251.74 4144.61,-262.19 4152.46,-255.08 4146.32,-251.74"/>
</g>
<!-- Node21 -->
<g id="node13" class="node">
<title>Node21</title>
<g id="a_node13"><a xlink:href="d__com__inf__game_8cpp.html" target="_top" xlink:title=" ">
<polygon fill="white" stroke="#666666" points="4576,-30 4468,-30 4468,0 4576,0 4576,-30"/>
<text text-anchor="start" x="4476" y="-18" font-family="Helvetica,sans-Serif" font-size="10.00">src/d/com/d_com_inf</text>
<text text-anchor="middle" x="4522" y="-7" font-family="Helvetica,sans-Serif" font-size="10.00">_game.cpp</text>
</a>
</g>
</g>
<!-- Node4&#45;&gt;Node21 -->
<g id="edge64" class="edge">
<title>Node4&#45;&gt;Node21</title>
<path fill="none" stroke="#63b8ff" d="M4208.97,-269.4C4356.51,-250.55 4674.34,-199.69 4721,-107 4729.19,-90.72 4732.21,-80.37 4721,-66 4703.31,-43.32 4628.74,-29.35 4576.1,-22.14"/>
<polygon fill="#63b8ff" stroke="#63b8ff" points="4208.78,-265.9 4199.3,-270.62 4209.65,-272.84 4208.78,-265.9"/>
</g>
<!-- Node22 -->
<g id="node14" class="node">
<title>Node22</title>
<g id="a_node14"><a xlink:href="d__item_8cpp.html" target="_top" xlink:title=" ">
<polygon fill="white" stroke="#666666" points="4449.5,-24.5 4360.5,-24.5 4360.5,-5.5 4449.5,-5.5 4449.5,-24.5"/>
<text text-anchor="middle" x="4405" y="-12.5" font-family="Helvetica,sans-Serif" font-size="10.00">src/d/d_item.cpp</text>
</a>
</g>
</g>
<!-- Node4&#45;&gt;Node22 -->
<g id="edge65" class="edge">
<title>Node4&#45;&gt;Node22</title>
<path fill="none" stroke="#63b8ff" d="M4209.08,-266.16C4347.47,-242.64 4633.99,-185.45 4692,-107 4796.2,33.91 4729.5,-85.82 4459,-30 4451.98,-28.55 4444.51,-26.77 4437.43,-24.97"/>
<polygon fill="#63b8ff" stroke="#63b8ff" points="4208.54,-262.7 4199.26,-267.81 4209.7,-269.61 4208.54,-262.7"/>
</g>
<!-- Node96 -->
<g id="node48" class="node">
<title>Node96</title>
<g id="a_node48"><a xlink:href="d__save_8cpp.html" target="_top" xlink:title=" ">
<polygon fill="white" stroke="#666666" points="4548.5,-96 4433.5,-96 4433.5,-77 4548.5,-77 4548.5,-96"/>
<text text-anchor="middle" x="4491" y="-84" font-family="Helvetica,sans-Serif" font-size="10.00">src/d/save/d_save.cpp</text>
</a>
</g>
</g>
<!-- Node4&#45;&gt;Node96 -->
<g id="edge67" class="edge">
<title>Node4&#45;&gt;Node96</title>
<path fill="none" stroke="#63b8ff" d="M4171.28,-258.11C4247.91,-217.21 4420.48,-125.13 4474.5,-96.3"/>
<polygon fill="#63b8ff" stroke="#63b8ff" points="4169.64,-255.02 4162.46,-262.81 4172.93,-261.19 4169.64,-255.02"/>
</g>
<!-- Node106 -->
<g id="node49" class="node">
<title>Node106</title>
<g id="a_node49"><a xlink:href="d__menu__window_8h.html" target="_top" xlink:title=" ">
<polygon fill="white" stroke="#666666" points="1315,-173 1195,-173 1195,-143 1315,-143 1315,-173"/>
<text text-anchor="start" x="1203" y="-161" font-family="Helvetica,sans-Serif" font-size="10.00">include/d/menu/d_menu</text>
<text text-anchor="middle" x="1255" y="-150" font-family="Helvetica,sans-Serif" font-size="10.00">_window.h</text>
</a>
</g>
</g>
<!-- Node4&#45;&gt;Node106 -->
<g id="edge60" class="edge">
<title>Node4&#45;&gt;Node106</title>
<path fill="none" stroke="#63b8ff" d="M4058.64,-274.98C3647.97,-258.25 1685.28,-177.13 1315.23,-161.58"/>
<polygon fill="#63b8ff" stroke="#63b8ff" points="4058.41,-278.47 4068.54,-275.38 4058.69,-271.48 4058.41,-278.47"/>
</g>
<!-- Node6 -->
<g id="node6" class="node">
<title>Node6</title>
<g id="a_node6"><a xlink:href="d__com__inf__game_8h.html" target="_top" xlink:title=" ">
<polygon fill="#fff0f0" stroke="red" points="2559,-173 2449,-173 2449,-143 2559,-143 2559,-173"/>
<text text-anchor="start" x="2457" y="-161" font-family="Helvetica,sans-Serif" font-size="10.00">include/d/com/d_com</text>
<text text-anchor="middle" x="2504" y="-150" font-family="Helvetica,sans-Serif" font-size="10.00">_inf_game.h</text>
</a>
</g>
</g>
<!-- Node5&#45;&gt;Node6 -->
<g id="edge5" class="edge">
<title>Node5&#45;&gt;Node6</title>
<path fill="none" stroke="#63b8ff" d="M4021.18,-214.93C3753.99,-205.08 2799.36,-169.89 2559.16,-161.03"/>
<polygon fill="#63b8ff" stroke="#63b8ff" points="4021,-218.42 4031.12,-215.29 4021.26,-211.43 4021,-218.42"/>
</g>
<!-- Node16 -->
<g id="node11" class="node">
<title>Node16</title>
<g id="a_node11"><a xlink:href="d__a__alink_8cpp.html" target="_top" xlink:title=" ">
<polygon fill="white" stroke="#666666" points="4199.5,-24.5 4090.5,-24.5 4090.5,-5.5 4199.5,-5.5 4199.5,-24.5"/>
<text text-anchor="middle" x="4145" y="-12.5" font-family="Helvetica,sans-Serif" font-size="10.00">src/d/a/d_a_alink.cpp</text>
</a>
</g>
</g>
<!-- Node5&#45;&gt;Node16 -->
<g id="edge59" class="edge">
<title>Node5&#45;&gt;Node16</title>
<path fill="none" stroke="#63b8ff" d="M4098.34,-198.27C4106.48,-176.42 4119.55,-139.55 4128,-107 4135.71,-77.29 4141.38,-41.26 4143.76,-24.87"/>
<polygon fill="#63b8ff" stroke="#63b8ff" points="4095.18,-196.74 4094.93,-207.33 4101.73,-199.21 4095.18,-196.74"/>
</g>
<!-- Node6&#45;&gt;Node3 -->
<g id="edge19" class="edge">
<title>Node6&#45;&gt;Node3</title>
<path fill="none" stroke="#63b8ff" d="M2570.31,-160.79C2647.47,-166.55 2773.51,-187.93 2846,-264 2863.5,-282.36 2865.49,-314.5 2865.35,-329.86"/>
<polygon fill="#63b8ff" stroke="#63b8ff" points="2571.02,-157.33 2560.81,-160.15 2570.55,-164.31 2571.02,-157.33"/>
</g>
<!-- Node7 -->
<g id="node7" class="node">
<title>Node7</title>
<g id="a_node7"><a xlink:href="d__a__npc_8h.html" target="_top" xlink:title=" ">
<polygon fill="#fff0f0" stroke="red" points="4072.5,-96 3961.5,-96 3961.5,-77 4072.5,-77 4072.5,-96"/>
<text text-anchor="middle" x="4017" y="-84" font-family="Helvetica,sans-Serif" font-size="10.00">include/d/a/d_a_npc.h</text>
</a>
</g>
</g>
<!-- Node6&#45;&gt;Node7 -->
<g id="edge6" class="edge">
<title>Node6&#45;&gt;Node7</title>
<path fill="none" stroke="#63b8ff" d="M2570.55,-156.97C2817.46,-156.49 3680.8,-151.6 3952,-107 3965.72,-104.74 3980.6,-100.42 3992.66,-96.42"/>
<polygon fill="#63b8ff" stroke="#63b8ff" points="2570.77,-153.47 2560.77,-156.98 2570.78,-160.47 2570.77,-153.47"/>
</g>
<!-- Node6&#45;&gt;Node12 -->
<g id="edge56" class="edge">
<title>Node6&#45;&gt;Node12</title>
<path fill="none" stroke="#63b8ff" d="M2570.52,-156.14C2867.09,-152.17 4055.3,-134.56 4082,-107 4094.68,-93.91 4090.05,-82.35 4082,-66 4074.45,-50.67 4059.7,-38.73 4046.15,-30.36"/>
<polygon fill="#63b8ff" stroke="#63b8ff" points="2570.59,-152.64 2560.63,-156.28 2570.68,-159.64 2570.59,-152.64"/>
</g>
<!-- Node13 -->
<g id="node9" class="node">
<title>Node13</title>
<g id="a_node9"><a xlink:href="d__cc__uty_8h.html" target="_top" xlink:title=" ">
<polygon fill="#fff0f0" stroke="red" points="649.5,-96 530.5,-96 530.5,-77 649.5,-77 649.5,-96"/>
<text text-anchor="middle" x="590" y="-84" font-family="Helvetica,sans-Serif" font-size="10.00">include/d/cc/d_cc_uty.h</text>
</a>
</g>
</g>
<!-- Node6&#45;&gt;Node13 -->
<g id="edge8" class="edge">
<title>Node6&#45;&gt;Node13</title>
<path fill="none" stroke="#63b8ff" d="M2437.11,-156.19C2126.95,-152.28 836.21,-134.51 658,-107 643.68,-104.79 628.11,-100.47 615.49,-96.46"/>
<polygon fill="#63b8ff" stroke="#63b8ff" points="2437.03,-159.69 2447.08,-156.31 2437.12,-152.69 2437.03,-159.69"/>
</g>
<!-- Node19 -->
<g id="node10" class="node">
<title>Node19</title>
<g id="a_node10"><a xlink:href="d__item_8h.html" target="_top" xlink:title=" ">
<polygon fill="#fff0f0" stroke="red" points="4376.5,-96 4281.5,-96 4281.5,-77 4376.5,-77 4376.5,-96"/>
<text text-anchor="middle" x="4329" y="-84" font-family="Helvetica,sans-Serif" font-size="10.00">include/d/d_item.h</text>
</a>
</g>
</g>
<!-- Node6&#45;&gt;Node19 -->
<g id="edge9" class="edge">
<title>Node6&#45;&gt;Node19</title>
<path fill="none" stroke="#63b8ff" d="M2570.35,-156.2C2870.94,-152.44 4097.63,-135.47 4267,-107 4280.13,-104.79 4294.33,-100.48 4305.82,-96.47"/>
<polygon fill="#63b8ff" stroke="#63b8ff" points="2570.69,-152.7 2560.73,-156.32 2570.78,-159.7 2570.69,-152.7"/>
</g>
<!-- Node6&#45;&gt;Node16 -->
<g id="edge35" class="edge">
<title>Node6&#45;&gt;Node16</title>
<path fill="none" stroke="#63b8ff" d="M2570.41,-156.8C2863.97,-155.68 4033.64,-148.62 4099,-107 4128.56,-88.17 4139.91,-44.03 4143.54,-25"/>
<polygon fill="#63b8ff" stroke="#63b8ff" points="2570.62,-153.3 2560.63,-156.84 2570.64,-160.3 2570.62,-153.3"/>
</g>
<!-- Node20 -->
<g id="node12" class="node">
<title>Node20</title>
<g id="a_node12"><a xlink:href="d__a__obj__item_8cpp.html" target="_top" xlink:title=" ">
<polygon fill="white" stroke="#666666" points="4342.5,-24.5 4217.5,-24.5 4217.5,-5.5 4342.5,-5.5 4342.5,-24.5"/>
<text text-anchor="middle" x="4280" y="-12.5" font-family="Helvetica,sans-Serif" font-size="10.00">src/d/a/d_a_obj_item.cpp</text>
</a>
</g>
</g>
<!-- Node6&#45;&gt;Node20 -->
<g id="edge38" class="edge">
<title>Node6&#45;&gt;Node20</title>
<path fill="none" stroke="#63b8ff" d="M2570.82,-156.93C2857.7,-156.34 3977.15,-151.21 4128,-107 4186.73,-89.78 4246,-44.35 4269.48,-24.96"/>
<polygon fill="#63b8ff" stroke="#63b8ff" points="2570.89,-153.43 2560.89,-156.94 2570.9,-160.43 2570.89,-153.43"/>
</g>
<!-- Node6&#45;&gt;Node21 -->
<g id="edge44" class="edge">
<title>Node6&#45;&gt;Node21</title>
<path fill="none" stroke="#63b8ff" d="M2570.1,-156.66C2894.01,-154.8 4301.47,-144.6 4386,-107 4408.98,-96.78 4404.88,-81.08 4425,-66 4444.25,-51.57 4468.28,-39.15 4487.6,-30.3"/>
<polygon fill="#63b8ff" stroke="#63b8ff" points="2570.53,-153.16 2560.55,-156.71 2570.57,-160.16 2570.53,-153.16"/>
</g>
<!-- Node24 -->
<g id="node15" class="node">
<title>Node24</title>
<g id="a_node15"><a xlink:href="d__kantera__icon__meter_8h.html" target="_top" xlink:title=" ">
<polygon fill="#fff0f0" stroke="red" points="768.5,-101.5 667.5,-101.5 667.5,-71.5 768.5,-71.5 768.5,-101.5"/>
<text text-anchor="start" x="675.5" y="-89.5" font-family="Helvetica,sans-Serif" font-size="10.00">include/d/d_kantera</text>
<text text-anchor="middle" x="718" y="-78.5" font-family="Helvetica,sans-Serif" font-size="10.00">_icon_meter.h</text>
</a>
</g>
</g>
<!-- Node6&#45;&gt;Node24 -->
<g id="edge14" class="edge">
<title>Node6&#45;&gt;Node24</title>
<path fill="none" stroke="#63b8ff" d="M2437.09,-156.21C2139.35,-152.54 942.35,-136.08 777,-107 770.2,-105.8 763.11,-103.99 756.31,-101.94"/>
<polygon fill="#63b8ff" stroke="#63b8ff" points="2436.98,-159.71 2447.02,-156.33 2437.06,-152.71 2436.98,-159.71"/>
</g>
<!-- Node27 -->
<g id="node16" class="node">
<title>Node27</title>
<g id="a_node16"><a xlink:href="d__model_8h.html" target="_top" xlink:title=" ">
<polygon fill="#fff0f0" stroke="red" points="889.5,-96 786.5,-96 786.5,-77 889.5,-77 889.5,-96"/>
<text text-anchor="middle" x="838" y="-84" font-family="Helvetica,sans-Serif" font-size="10.00">include/d/d_model.h</text>
</a>
</g>
</g>
<!-- Node6&#45;&gt;Node27 -->
<g id="edge15" class="edge">
<title>Node6&#45;&gt;Node27</title>
<path fill="none" stroke="#63b8ff" d="M2437.3,-157.43C2173.25,-158.75 1200.94,-159.84 898,-107 885.27,-104.78 871.53,-100.46 860.41,-96.45"/>
<polygon fill="#63b8ff" stroke="#63b8ff" points="2437.1,-160.93 2447.08,-157.38 2437.07,-153.93 2437.1,-160.93"/>
</g>
<!-- Node29 -->
<g id="node17" class="node">
<title>Node29</title>
<g id="a_node17"><a xlink:href="d__name_8h.html" target="_top" xlink:title=" ">
<polygon fill="#fff0f0" stroke="red" points="1008.5,-96 907.5,-96 907.5,-77 1008.5,-77 1008.5,-96"/>
<text text-anchor="middle" x="958" y="-84" font-family="Helvetica,sans-Serif" font-size="10.00">include/d/d_name.h</text>
</a>
</g>
</g>
<!-- Node6&#45;&gt;Node29 -->
<g id="edge16" class="edge">
<title>Node6&#45;&gt;Node29</title>
<path fill="none" stroke="#63b8ff" d="M2437.38,-157.23C2186.16,-157.73 1296.42,-155.92 1018,-107 1005.27,-104.76 991.53,-100.45 980.41,-96.44"/>
<polygon fill="#63b8ff" stroke="#63b8ff" points="2437.34,-160.73 2447.34,-157.21 2437.33,-153.73 2437.34,-160.73"/>
</g>
<!-- Node31 -->
<g id="node18" class="node">
<title>Node31</title>
<g id="a_node18"><a xlink:href="d__file__sel__info_8h.html" target="_top" xlink:title=" ">
<polygon fill="#fff0f0" stroke="red" points="1123,-101.5 1027,-101.5 1027,-71.5 1123,-71.5 1123,-101.5"/>
<text text-anchor="start" x="1035" y="-89.5" font-family="Helvetica,sans-Serif" font-size="10.00">include/d/file/d_file</text>
<text text-anchor="middle" x="1075" y="-78.5" font-family="Helvetica,sans-Serif" font-size="10.00">_sel_info.h</text>
</a>
</g>
</g>
<!-- Node6&#45;&gt;Node31 -->
<g id="edge17" class="edge">
<title>Node6&#45;&gt;Node31</title>
<path fill="none" stroke="#63b8ff" d="M2437.33,-157.15C2198.57,-157.28 1386.81,-154.16 1132,-107 1125.52,-105.8 1118.78,-104.01 1112.3,-101.99"/>
<polygon fill="#63b8ff" stroke="#63b8ff" points="2437.09,-160.65 2447.09,-157.14 2437.08,-153.65 2437.09,-160.65"/>
</g>
<!-- Node34 -->
<g id="node19" class="node">
<title>Node34</title>
<g id="a_node19"><a xlink:href="d__file__sel__warning_8h.html" target="_top" xlink:title=" ">
<polygon fill="#fff0f0" stroke="red" points="1237,-101.5 1141,-101.5 1141,-71.5 1237,-71.5 1237,-101.5"/>
<text text-anchor="start" x="1149" y="-89.5" font-family="Helvetica,sans-Serif" font-size="10.00">include/d/file/d_file</text>
<text text-anchor="middle" x="1189" y="-78.5" font-family="Helvetica,sans-Serif" font-size="10.00">_sel_warning.h</text>
</a>
</g>
</g>
<!-- Node6&#45;&gt;Node34 -->
<g id="edge18" class="edge">
<title>Node6&#45;&gt;Node34</title>
<path fill="none" stroke="#63b8ff" d="M2437.28,-156.89C2211.55,-156.12 1477.65,-150.27 1246,-107 1239.52,-105.79 1232.78,-103.99 1226.3,-101.98"/>
<polygon fill="#63b8ff" stroke="#63b8ff" points="2437.07,-160.39 2447.08,-156.92 2437.09,-153.39 2437.07,-160.39"/>
</g>
<!-- Node36 -->
<g id="node20" class="node">
<title>Node36</title>
<g id="a_node20"><a xlink:href="d__msg__object_8h.html" target="_top" xlink:title=" ">
<polygon fill="#fff0f0" stroke="red" points="378,-101.5 268,-101.5 268,-71.5 378,-71.5 378,-101.5"/>
<text text-anchor="start" x="276" y="-89.5" font-family="Helvetica,sans-Serif" font-size="10.00">include/d/msg/d_msg</text>
<text text-anchor="middle" x="323" y="-78.5" font-family="Helvetica,sans-Serif" font-size="10.00">_object.h</text>
</a>
</g>
</g>
<!-- Node6&#45;&gt;Node36 -->
<g id="edge20" class="edge">
<title>Node6&#45;&gt;Node36</title>
<path fill="none" stroke="#63b8ff" d="M2437.12,-156.5C2099.78,-153.84 593.09,-140.19 387,-107 379.66,-105.82 371.99,-104.01 364.61,-101.96"/>
<polygon fill="#63b8ff" stroke="#63b8ff" points="2437.08,-160 2447.11,-156.58 2437.13,-153 2437.08,-160"/>
</g>
<!-- Node41 -->
<g id="node21" class="node">
<title>Node41</title>
<g id="a_node21"><a xlink:href="d__demo_8cpp.html" target="_top" xlink:title=" ">
<polygon fill="white" stroke="#666666" points="394,-24.5 300,-24.5 300,-5.5 394,-5.5 394,-24.5"/>
<text text-anchor="middle" x="347" y="-12.5" font-family="Helvetica,sans-Serif" font-size="10.00">src/d/d_demo.cpp</text>
</a>
</g>
</g>
<!-- Node6&#45;&gt;Node41 -->
<g id="edge49" class="edge">
<title>Node6&#45;&gt;Node41</title>
<path fill="none" stroke="#63b8ff" d="M2437.45,-156.15C2067.36,-151.32 278.55,-126.99 259,-107 246.26,-93.97 249.83,-81.75 259,-66 271.11,-45.19 295.46,-32.34 315.48,-24.88"/>
<polygon fill="#63b8ff" stroke="#63b8ff" points="2437.19,-159.64 2447.24,-156.27 2437.28,-152.64 2437.19,-159.64"/>
</g>
<!-- Node45 -->
<g id="node22" class="node">
<title>Node45</title>
<g id="a_node22"><a xlink:href="d__menu__window_8cpp.html" target="_top" xlink:title=" ">
<polygon fill="white" stroke="#666666" points="281.5,-24.5 122.5,-24.5 122.5,-5.5 281.5,-5.5 281.5,-24.5"/>
<text text-anchor="middle" x="202" y="-12.5" font-family="Helvetica,sans-Serif" font-size="10.00">src/d/menu/d_menu_window.cpp</text>
</a>
</g>
</g>
<!-- Node6&#45;&gt;Node45 -->
<g id="edge55" class="edge">
<title>Node6&#45;&gt;Node45</title>
<path fill="none" stroke="#63b8ff" d="M2437.23,-155.99C2065.87,-150.31 270.71,-122.09 247,-107 217.41,-88.17 206.63,-43.63 203.3,-24.72"/>
<polygon fill="#63b8ff" stroke="#63b8ff" points="2437,-159.49 2447.05,-156.14 2437.1,-152.49 2437,-159.49"/>
</g>
<!-- Node6&#45;&gt;Node46 -->
<g id="edge57" class="edge">
<title>Node6&#45;&gt;Node46</title>
<path fill="none" stroke="#63b8ff" d="M2437.17,-156.05C2065.37,-150.71 266.49,-124.04 212,-107 180.47,-97.14 178.54,-82.64 150,-66 127.89,-53.1 102.08,-40.01 82.49,-30.46"/>
<polygon fill="#63b8ff" stroke="#63b8ff" points="2436.95,-159.55 2447,-156.19 2437.06,-152.55 2436.95,-159.55"/>
</g>
<!-- Node52 -->
<g id="node24" class="node">
<title>Node52</title>
<g id="a_node24"><a xlink:href="d__s__logo_8h.html" target="_top" xlink:title=" ">
<polygon fill="#fff0f0" stroke="red" points="1368.5,-96 1255.5,-96 1255.5,-77 1368.5,-77 1368.5,-96"/>
<text text-anchor="middle" x="1312" y="-84" font-family="Helvetica,sans-Serif" font-size="10.00">include/d/s/d_s_logo.h</text>
</a>
</g>
</g>
<!-- Node6&#45;&gt;Node52 -->
<g id="edge26" class="edge">
<title>Node6&#45;&gt;Node52</title>
<path fill="none" stroke="#63b8ff" d="M2437.35,-156.2C2227.6,-153.35 1582.86,-141.89 1377,-107 1363.41,-104.7 1348.66,-100.43 1336.66,-96.47"/>
<polygon fill="#63b8ff" stroke="#63b8ff" points="2437.21,-159.7 2447.26,-156.33 2437.3,-152.7 2437.21,-159.7"/>
</g>
<!-- Node54 -->
<g id="node25" class="node">
<title>Node54</title>
<g id="a_node25"><a xlink:href="d__s__play_8h.html" target="_top" xlink:title=" ">
<polygon fill="#fff0f0" stroke="red" points="1499.5,-96 1386.5,-96 1386.5,-77 1499.5,-77 1499.5,-96"/>
<text text-anchor="middle" x="1443" y="-84" font-family="Helvetica,sans-Serif" font-size="10.00">include/d/s/d_s_play.h</text>
</a>
</g>
</g>
<!-- Node6&#45;&gt;Node54 -->
<g id="edge27" class="edge">
<title>Node6&#45;&gt;Node54</title>
<path fill="none" stroke="#63b8ff" d="M2437.34,-155.75C2244.34,-151.79 1687.43,-137.95 1508,-107 1494.42,-104.66 1479.67,-100.38 1467.66,-96.43"/>
<polygon fill="#63b8ff" stroke="#63b8ff" points="2437.12,-159.24 2447.19,-155.95 2437.27,-152.25 2437.12,-159.24"/>
</g>
<!-- Node58 -->
<g id="node26" class="node">
<title>Node58</title>
<g id="a_node26"><a xlink:href="d__msg__scrn__base_8h.html" target="_top" xlink:title=" ">
<polygon fill="#fff0f0" stroke="red" points="1616.5,-101.5 1517.5,-101.5 1517.5,-71.5 1616.5,-71.5 1616.5,-101.5"/>
<text text-anchor="start" x="1525.5" y="-89.5" font-family="Helvetica,sans-Serif" font-size="10.00">include/msg/scrn/d</text>
<text text-anchor="middle" x="1567" y="-78.5" font-family="Helvetica,sans-Serif" font-size="10.00">_msg_scrn_base.h</text>
</a>
</g>
</g>
<!-- Node6&#45;&gt;Node58 -->
<g id="edge28" class="edge">
<title>Node6&#45;&gt;Node58</title>
<path fill="none" stroke="#63b8ff" d="M2437.04,-155.51C2259.63,-151.18 1780.41,-136.98 1625,-107 1618.53,-105.75 1611.8,-103.97 1605.3,-101.97"/>
<polygon fill="#63b8ff" stroke="#63b8ff" points="2436.94,-159 2447.02,-155.75 2437.11,-152.01 2436.94,-159"/>
</g>
<!-- Node62 -->
<g id="node27" class="node">
<title>Node62</title>
<g id="a_node27"><a xlink:href="d__a__b__zant_8h.html" target="_top" xlink:title=" ">
<polygon fill="white" stroke="#666666" points="1755.5,-101.5 1634.5,-101.5 1634.5,-71.5 1755.5,-71.5 1755.5,-101.5"/>
<text text-anchor="start" x="1642.5" y="-89.5" font-family="Helvetica,sans-Serif" font-size="10.00">include/rel/d/a/b/d</text>
<text text-anchor="middle" x="1695" y="-78.5" font-family="Helvetica,sans-Serif" font-size="10.00">_a_b_zant/d_a_b_zant.h</text>
</a>
</g>
</g>
<!-- Node6&#45;&gt;Node62 -->
<g id="edge29" class="edge">
<title>Node6&#45;&gt;Node62</title>
<path fill="none" stroke="#63b8ff" d="M2437.56,-156.61C2308.2,-154.93 2013.84,-146.65 1770,-107 1761.9,-105.68 1753.4,-103.89 1745.15,-101.91"/>
<polygon fill="#63b8ff" stroke="#63b8ff" points="2437.26,-160.1 2447.3,-156.72 2437.34,-153.1 2437.26,-160.1"/>
</g>
<!-- Node63 -->
<g id="node28" class="node">
<title>Node63</title>
<g id="a_node28"><a xlink:href="d__a__spinner_8h.html" target="_top" xlink:title=" ">
<polygon fill="white" stroke="#666666" points="512,-101.5 396,-101.5 396,-71.5 512,-71.5 512,-101.5"/>
<text text-anchor="start" x="404" y="-89.5" font-family="Helvetica,sans-Serif" font-size="10.00">include/rel/d/a/d_a</text>
<text text-anchor="middle" x="454" y="-78.5" font-family="Helvetica,sans-Serif" font-size="10.00">_spinner/d_a_spinner.h</text>
</a>
</g>
</g>
<!-- Node6&#45;&gt;Node63 -->
<g id="edge30" class="edge">
<title>Node6&#45;&gt;Node63</title>
<path fill="none" stroke="#63b8ff" d="M2437.49,-156.34C2114.06,-153 713.44,-136.91 521,-107 513.34,-105.81 505.32,-103.99 497.6,-101.94"/>
<polygon fill="#63b8ff" stroke="#63b8ff" points="2437.43,-159.84 2447.47,-156.44 2437.5,-152.84 2437.43,-159.84"/>
</g>
<!-- Node64 -->
<g id="node29" class="node">
<title>Node64</title>
<g id="a_node29"><a xlink:href="d__a__player_8cpp.html" target="_top" xlink:title=" ">
<polygon fill="white" stroke="#666666" points="1184,-24.5 1070,-24.5 1070,-5.5 1184,-5.5 1184,-24.5"/>
<text text-anchor="middle" x="1127" y="-12.5" font-family="Helvetica,sans-Serif" font-size="10.00">src/d/a/d_a_player.cpp</text>
</a>
</g>
</g>
<!-- Node6&#45;&gt;Node64 -->
<g id="edge39" class="edge">
<title>Node6&#45;&gt;Node64</title>
<path fill="none" stroke="#63b8ff" d="M2437.37,-154.98C2273.39,-149.63 1859.44,-133.63 1803,-107 1780.25,-96.27 1786.71,-76.81 1764,-66 1662.28,-17.57 1320.94,-14.51 1184.28,-15.32"/>
<polygon fill="#63b8ff" stroke="#63b8ff" points="2437.12,-158.48 2447.22,-155.3 2437.34,-151.48 2437.12,-158.48"/>
</g>
<!-- Node65 -->
<g id="node30" class="node">
<title>Node65</title>
<g id="a_node30"><a xlink:href="d__a__obj__yobikusa_8h.html" target="_top" xlink:title=" ">
<polygon fill="white" stroke="#666666" points="1917.5,-107 1812.5,-107 1812.5,-66 1917.5,-66 1917.5,-107"/>
<text text-anchor="start" x="1820.5" y="-95" font-family="Helvetica,sans-Serif" font-size="10.00">include/rel/d/a/obj</text>
<text text-anchor="start" x="1820.5" y="-84" font-family="Helvetica,sans-Serif" font-size="10.00">/d_a_obj_yobikusa/d</text>
<text text-anchor="middle" x="1865" y="-73" font-family="Helvetica,sans-Serif" font-size="10.00">_a_obj_yobikusa.h</text>
</a>
</g>
</g>
<!-- Node6&#45;&gt;Node65 -->
<g id="edge32" class="edge">
<title>Node6&#45;&gt;Node65</title>
<path fill="none" stroke="#63b8ff" d="M2437.17,-155.93C2328.99,-153.14 2109.24,-143.1 1927,-107 1924.01,-106.41 1920.96,-105.72 1917.9,-104.97"/>
<polygon fill="#63b8ff" stroke="#63b8ff" points="2436.95,-159.42 2447.03,-156.17 2437.12,-152.42 2436.95,-159.42"/>
</g>
<!-- Node66 -->
<g id="node31" class="node">
<title>Node66</title>
<g id="a_node31"><a xlink:href="d__a__tag__telop_8h.html" target="_top" xlink:title=" ">
<polygon fill="white" stroke="#666666" points="2054,-107 1936,-107 1936,-66 2054,-66 2054,-107"/>
<text text-anchor="start" x="1944" y="-95" font-family="Helvetica,sans-Serif" font-size="10.00">include/rel/d/a/tag</text>
<text text-anchor="start" x="1944" y="-84" font-family="Helvetica,sans-Serif" font-size="10.00">/d_a_tag_telop/d_a_tag</text>
<text text-anchor="middle" x="1995" y="-73" font-family="Helvetica,sans-Serif" font-size="10.00">_telop.h</text>
</a>
</g>
</g>
<!-- Node6&#45;&gt;Node66 -->
<g id="edge33" class="edge">
<title>Node6&#45;&gt;Node66</title>
<path fill="none" stroke="#63b8ff" d="M2437.28,-152.9C2350.44,-146.79 2194.28,-133.08 2063,-107 2060.11,-106.43 2057.16,-105.79 2054.2,-105.1"/>
<polygon fill="#63b8ff" stroke="#63b8ff" points="2436.82,-156.38 2447.03,-153.58 2437.3,-149.4 2436.82,-156.38"/>
</g>
<!-- Node67 -->
<g id="node32" class="node">
<title>Node67</title>
<g id="a_node32"><a xlink:href="c__dylink_8cpp.html" target="_top" xlink:title=" ">
<polygon fill="white" stroke="#666666" points="2167.5,-96 2072.5,-96 2072.5,-77 2167.5,-77 2167.5,-96"/>
<text text-anchor="middle" x="2120" y="-84" font-family="Helvetica,sans-Serif" font-size="10.00">src/c/c_dylink.cpp</text>
</a>
</g>
</g>
<!-- Node6&#45;&gt;Node67 -->
<g id="edge34" class="edge">
<title>Node6&#45;&gt;Node67</title>
<path fill="none" stroke="#63b8ff" d="M2437.59,-150.35C2371.03,-142.87 2265.97,-128.84 2177,-107 2165.62,-104.21 2153.29,-100.13 2143.02,-96.42"/>
<polygon fill="#63b8ff" stroke="#63b8ff" points="2436.91,-153.8 2447.23,-151.42 2437.68,-146.84 2436.91,-153.8"/>
</g>
<!-- Node68 -->
<g id="node33" class="node">
<title>Node68</title>
<g id="a_node33"><a xlink:href="d__a__itembase_8cpp.html" target="_top" xlink:title=" ">
<polygon fill="white" stroke="#666666" points="2314,-96 2186,-96 2186,-77 2314,-77 2314,-96"/>
<text text-anchor="middle" x="2250" y="-84" font-family="Helvetica,sans-Serif" font-size="10.00">src/d/a/d_a_itembase.cpp</text>
</a>
</g>
</g>
<!-- Node6&#45;&gt;Node68 -->
<g id="edge36" class="edge">
<title>Node6&#45;&gt;Node68</title>
<path fill="none" stroke="#63b8ff" d="M2440.02,-139.49C2389.94,-125.79 2322.34,-107.29 2282.73,-96.46"/>
<polygon fill="#63b8ff" stroke="#63b8ff" points="2439.03,-142.85 2449.6,-142.12 2440.88,-136.1 2439.03,-142.85"/>
</g>
<!-- Node69 -->
<g id="node34" class="node">
<title>Node69</title>
<g id="a_node34"><a xlink:href="d__a__obj_8cpp.html" target="_top" xlink:title=" ">
<polygon fill="white" stroke="#666666" points="2433.5,-96 2332.5,-96 2332.5,-77 2433.5,-77 2433.5,-96"/>
<text text-anchor="middle" x="2383" y="-84" font-family="Helvetica,sans-Serif" font-size="10.00">src/d/a/d_a_obj.cpp</text>
</a>
</g>
</g>
<!-- Node6&#45;&gt;Node69 -->
<g id="edge37" class="edge">
<title>Node6&#45;&gt;Node69</title>
<path fill="none" stroke="#63b8ff" d="M2469.03,-136.92C2445.7,-123.51 2416.15,-106.54 2398.46,-96.38"/>
<polygon fill="#63b8ff" stroke="#63b8ff" points="2467.2,-139.9 2477.62,-141.85 2470.69,-133.83 2467.2,-139.9"/>
</g>
<!-- Node70 -->
<g id="node35" class="node">
<title>Node70</title>
<g id="a_node35"><a xlink:href="d__bg__s_8cpp.html" target="_top" xlink:title=" ">
<polygon fill="white" stroke="#666666" points="2556,-96 2452,-96 2452,-77 2556,-77 2556,-96"/>
<text text-anchor="middle" x="2504" y="-84" font-family="Helvetica,sans-Serif" font-size="10.00">src/d/bg/d_bg_s.cpp</text>
</a>
</g>
</g>
<!-- Node6&#45;&gt;Node70 -->
<g id="edge40" class="edge">
<title>Node6&#45;&gt;Node70</title>
<path fill="none" stroke="#63b8ff" d="M2504,-131.46C2504,-119.07 2504,-104.99 2504,-96.18"/>
<polygon fill="#63b8ff" stroke="#63b8ff" points="2500.5,-131.09 2504,-141.09 2507.5,-131.09 2500.5,-131.09"/>
</g>
<!-- Node71 -->
<g id="node36" class="node">
<title>Node71</title>
<g id="a_node36"><a xlink:href="d__bg__s__movebg__actor_8cpp.html" target="_top" xlink:title=" ">
<polygon fill="white" stroke="#666666" points="2700,-101.5 2574,-101.5 2574,-71.5 2700,-71.5 2700,-101.5"/>
<text text-anchor="start" x="2582" y="-89.5" font-family="Helvetica,sans-Serif" font-size="10.00">src/d/bg/d_bg_s_movebg</text>
<text text-anchor="middle" x="2637" y="-78.5" font-family="Helvetica,sans-Serif" font-size="10.00">_actor.cpp</text>
</a>
</g>
</g>
<!-- Node6&#45;&gt;Node71 -->
<g id="edge41" class="edge">
<title>Node6&#45;&gt;Node71</title>
<path fill="none" stroke="#63b8ff" d="M2541.7,-137.3C2563.27,-126.03 2589.87,-112.13 2609.48,-101.88"/>
<polygon fill="#63b8ff" stroke="#63b8ff" points="2540.14,-134.17 2532.9,-141.9 2543.38,-140.37 2540.14,-134.17"/>
</g>
<!-- Node72 -->
<g id="node37" class="node">
<title>Node72</title>
<g id="a_node37"><a xlink:href="d__bg__w_8cpp.html" target="_top" xlink:title=" ">
<polygon fill="white" stroke="#666666" points="2825.5,-96 2718.5,-96 2718.5,-77 2825.5,-77 2825.5,-96"/>
<text text-anchor="middle" x="2772" y="-84" font-family="Helvetica,sans-Serif" font-size="10.00">src/d/bg/d_bg_w.cpp</text>
</a>
</g>
</g>
<!-- Node6&#45;&gt;Node72 -->
<g id="edge42" class="edge">
<title>Node6&#45;&gt;Node72</title>
<path fill="none" stroke="#63b8ff" d="M2570.5,-141.86C2610.75,-132.43 2663.01,-119.71 2709,-107 2720.7,-103.77 2733.51,-99.87 2744.51,-96.41"/>
<polygon fill="#63b8ff" stroke="#63b8ff" points="2569.9,-138.41 2560.96,-144.09 2571.49,-145.23 2569.9,-138.41"/>
</g>
<!-- Node73 -->
<g id="node38" class="node">
<title>Node73</title>
<g id="a_node38"><a xlink:href="d__cc__s_8cpp.html" target="_top" xlink:title=" ">
<polygon fill="white" stroke="#666666" points="2948,-96 2844,-96 2844,-77 2948,-77 2948,-96"/>
<text text-anchor="middle" x="2896" y="-84" font-family="Helvetica,sans-Serif" font-size="10.00">src/d/cc/d_cc_s.cpp</text>
</a>
</g>
</g>
<!-- Node6&#45;&gt;Node73 -->
<g id="edge43" class="edge">
<title>Node6&#45;&gt;Node73</title>
<path fill="none" stroke="#63b8ff" d="M2570.61,-149.97C2637.67,-142.17 2743.81,-127.88 2834,-107 2846.2,-104.17 2859.48,-100.13 2870.6,-96.46"/>
<polygon fill="#63b8ff" stroke="#63b8ff" points="2570.42,-146.47 2560.88,-151.08 2571.22,-153.42 2570.42,-146.47"/>
</g>
<!-- Node74 -->
<g id="node39" class="node">
<title>Node74</title>
<g id="a_node39"><a xlink:href="d__com__static_8cpp.html" target="_top" xlink:title=" ">
<polygon fill="white" stroke="#666666" points="3106,-96 2966,-96 2966,-77 3106,-77 3106,-96"/>
<text text-anchor="middle" x="3036" y="-84" font-family="Helvetica,sans-Serif" font-size="10.00">src/d/com/d_com_static.cpp</text>
</a>
</g>
</g>
<!-- Node6&#45;&gt;Node74 -->
<g id="edge45" class="edge">
<title>Node6&#45;&gt;Node74</title>
<path fill="none" stroke="#63b8ff" d="M2570.66,-152.41C2659.35,-145.68 2820.8,-131.22 2957,-107 2972.58,-104.23 2989.65,-100.15 3003.92,-96.44"/>
<polygon fill="#63b8ff" stroke="#63b8ff" points="2570.64,-148.9 2560.93,-153.14 2571.17,-155.88 2570.64,-148.9"/>
</g>
<!-- Node75 -->
<g id="node40" class="node">
<title>Node75</title>
<g id="a_node40"><a xlink:href="d__attention_8cpp.html" target="_top" xlink:title=" ">
<polygon fill="white" stroke="#666666" points="3231.5,-96 3124.5,-96 3124.5,-77 3231.5,-77 3231.5,-96"/>
<text text-anchor="middle" x="3178" y="-84" font-family="Helvetica,sans-Serif" font-size="10.00">src/d/d_attention.cpp</text>
</a>
</g>
</g>
<!-- Node6&#45;&gt;Node75 -->
<g id="edge46" class="edge">
<title>Node6&#45;&gt;Node75</title>
<path fill="none" stroke="#63b8ff" d="M2570.51,-156.29C2683.45,-154.04 2919.51,-144.78 3115,-107 3127.93,-104.5 3141.95,-100.31 3153.48,-96.46"/>
<polygon fill="#63b8ff" stroke="#63b8ff" points="2570.76,-152.79 2560.83,-156.47 2570.89,-159.79 2570.76,-152.79"/>
</g>
<!-- Node76 -->
<g id="node41" class="node">
<title>Node76</title>
<g id="a_node41"><a xlink:href="d__cam__param_8cpp.html" target="_top" xlink:title=" ">
<polygon fill="white" stroke="#666666" points="3370.5,-96 3249.5,-96 3249.5,-77 3370.5,-77 3370.5,-96"/>
<text text-anchor="middle" x="3310" y="-84" font-family="Helvetica,sans-Serif" font-size="10.00">src/d/d_cam_param.cpp</text>
</a>
</g>
</g>
<!-- Node6&#45;&gt;Node76 -->
<g id="edge47" class="edge">
<title>Node6&#45;&gt;Node76</title>
<path fill="none" stroke="#63b8ff" d="M2570.79,-157.09C2700.81,-156.25 2996.6,-149.35 3241,-107 3255.23,-104.53 3270.73,-100.3 3283.43,-96.4"/>
<polygon fill="#63b8ff" stroke="#63b8ff" points="2570.97,-153.59 2560.99,-157.14 2571.01,-160.59 2570.97,-153.59"/>
</g>
<!-- Node77 -->
<g id="node42" class="node">
<title>Node77</title>
<g id="a_node42"><a xlink:href="d__camera_8cpp.html" target="_top" xlink:title=" ">
<polygon fill="white" stroke="#666666" points="3491,-96 3389,-96 3389,-77 3491,-77 3491,-96"/>
<text text-anchor="middle" x="3440" y="-84" font-family="Helvetica,sans-Serif" font-size="10.00">src/d/d_camera.cpp</text>
</a>
</g>
</g>
<!-- Node6&#45;&gt;Node77 -->
<g id="edge48" class="edge">
<title>Node6&#45;&gt;Node77</title>
<path fill="none" stroke="#63b8ff" d="M2570.71,-155.41C2747.48,-150.84 3224.97,-136.11 3380,-107 3392.59,-104.63 3406.21,-100.36 3417.28,-96.41"/>
<polygon fill="#63b8ff" stroke="#63b8ff" points="2570.68,-151.91 2560.78,-155.66 2570.86,-158.91 2570.68,-151.91"/>
</g>
<!-- Node78 -->
<g id="node43" class="node">
<title>Node78</title>
<g id="a_node43"><a xlink:href="d__eye__hl_8cpp.html" target="_top" xlink:title=" ">
<polygon fill="white" stroke="#666666" points="3607,-96 3509,-96 3509,-77 3607,-77 3607,-96"/>
<text text-anchor="middle" x="3558" y="-84" font-family="Helvetica,sans-Serif" font-size="10.00">src/d/d_eye_hl.cpp</text>
</a>
</g>
</g>
<!-- Node6&#45;&gt;Node78 -->
<g id="edge50" class="edge">
<title>Node6&#45;&gt;Node78</title>
<path fill="none" stroke="#63b8ff" d="M2570.71,-156.03C2763.85,-152.84 3321.11,-140.89 3500,-107 3512.21,-104.69 3525.38,-100.41 3536.07,-96.46"/>
<polygon fill="#63b8ff" stroke="#63b8ff" points="2570.79,-152.53 2560.85,-156.19 2570.9,-159.53 2570.79,-152.53"/>
</g>
<!-- Node79 -->
<g id="node44" class="node">
<title>Node79</title>
<g id="a_node44"><a xlink:href="d__kyeff_8cpp.html" target="_top" xlink:title=" ">
<polygon fill="white" stroke="#666666" points="3715,-96 3625,-96 3625,-77 3715,-77 3715,-96"/>
<text text-anchor="middle" x="3670" y="-84" font-family="Helvetica,sans-Serif" font-size="10.00">src/d/d_kyeff.cpp</text>
</a>
</g>
</g>
<!-- Node6&#45;&gt;Node79 -->
<g id="edge51" class="edge">
<title>Node6&#45;&gt;Node79</title>
<path fill="none" stroke="#63b8ff" d="M2570.57,-156.63C2778.53,-155.06 3414.14,-147.02 3616,-107 3627.44,-104.73 3639.7,-100.46 3649.65,-96.5"/>
<polygon fill="#63b8ff" stroke="#63b8ff" points="2570.73,-153.13 2560.75,-156.7 2570.78,-160.13 2570.73,-153.13"/>
</g>
<!-- Node80 -->
<g id="node45" class="node">
<title>Node80</title>
<g id="a_node45"><a xlink:href="d__path_8cpp.html" target="_top" xlink:title=" ">
<polygon fill="white" stroke="#666666" points="3822.5,-96 3733.5,-96 3733.5,-77 3822.5,-77 3822.5,-96"/>
<text text-anchor="middle" x="3778" y="-84" font-family="Helvetica,sans-Serif" font-size="10.00">src/d/d_path.cpp</text>
</a>
</g>
</g>
<!-- Node6&#45;&gt;Node80 -->
<g id="edge52" class="edge">
<title>Node6&#45;&gt;Node80</title>
<path fill="none" stroke="#63b8ff" d="M2570.56,-156.94C2791.68,-156.32 3500.35,-150.88 3724,-107 3735.54,-104.74 3747.92,-100.42 3757.9,-96.42"/>
<polygon fill="#63b8ff" stroke="#63b8ff" points="2570.67,-153.44 2560.68,-156.96 2570.69,-160.44 2570.67,-153.44"/>
</g>
<!-- Node81 -->
<g id="node46" class="node">
<title>Node81</title>
<g id="a_node46"><a xlink:href="d__resorce_8cpp.html" target="_top" xlink:title=" ">
<polygon fill="white" stroke="#666666" points="3943,-96 3841,-96 3841,-77 3943,-77 3943,-96"/>
<text text-anchor="middle" x="3892" y="-84" font-family="Helvetica,sans-Serif" font-size="10.00">src/d/d_resorce.cpp</text>
</a>
</g>
</g>
<!-- Node6&#45;&gt;Node81 -->
<g id="edge53" class="edge">
<title>Node6&#45;&gt;Node81</title>
<path fill="none" stroke="#63b8ff" d="M2570.83,-156.92C2804.75,-156.26 3585.86,-150.76 3832,-107 3844.73,-104.74 3858.47,-100.42 3869.58,-96.42"/>
<polygon fill="#63b8ff" stroke="#63b8ff" points="2570.96,-153.42 2560.97,-156.95 2570.98,-160.42 2570.96,-153.42"/>
</g>
<!-- Node6&#45;&gt;Node91 -->
<g id="edge54" class="edge">
<title>Node6&#45;&gt;Node91</title>
<path fill="none" stroke="#63b8ff" d="M2570.77,-156.4C2901.7,-153.3 4358.24,-137.96 4558,-107 4565.66,-105.81 4573.68,-104 4581.4,-101.95"/>
<polygon fill="#63b8ff" stroke="#63b8ff" points="2570.95,-152.9 2560.99,-156.49 2571.02,-159.9 2570.95,-152.9"/>
</g>
<!-- Node6&#45;&gt;Node96 -->
<g id="edge58" class="edge">
<title>Node6&#45;&gt;Node96</title>
<path fill="none" stroke="#63b8ff" d="M2570.43,-157.39C2864.54,-158.77 4051.03,-160.84 4419,-107 4434.12,-104.79 4450.6,-100.47 4463.97,-96.46"/>
<polygon fill="#63b8ff" stroke="#63b8ff" points="2570.66,-153.89 2560.64,-157.34 2570.62,-160.89 2570.66,-153.89"/>
</g>
<!-- Node7&#45;&gt;Node12 -->
<g id="edge7" class="edge">
<title>Node7&#45;&gt;Node12</title>
<path fill="none" stroke="#63b8ff" d="M4017,-65.39C4017,-54.15 4017,-40.41 4017,-30.27"/>
<polygon fill="#63b8ff" stroke="#63b8ff" points="4013.5,-65.18 4017,-75.18 4020.5,-65.18 4013.5,-65.18"/>
</g>
<!-- Node19&#45;&gt;Node16 -->
<g id="edge10" class="edge">
<title>Node19&#45;&gt;Node16</title>
<path fill="none" stroke="#63b8ff" d="M4294.62,-72.52C4257.86,-58.63 4200.56,-36.99 4168.59,-24.91"/>
<polygon fill="#63b8ff" stroke="#63b8ff" points="4293.31,-75.76 4303.91,-76.02 4295.79,-69.21 4293.31,-75.76"/>
</g>
<!-- Node19&#45;&gt;Node20 -->
<g id="edge11" class="edge">
<title>Node19&#45;&gt;Node20</title>
<path fill="none" stroke="#63b8ff" d="M4316.19,-67.34C4306.58,-53.7 4293.83,-35.61 4286.31,-24.95"/>
<polygon fill="#63b8ff" stroke="#63b8ff" points="4313.3,-69.3 4321.92,-75.46 4319.02,-65.27 4313.3,-69.3"/>
</g>
<!-- Node19&#45;&gt;Node21 -->
<g id="edge12" class="edge">
<title>Node19&#45;&gt;Node21</title>
<path fill="none" stroke="#63b8ff" d="M4364.42,-72.75C4397.61,-60.8 4447.16,-42.95 4481.81,-30.47"/>
<polygon fill="#63b8ff" stroke="#63b8ff" points="4363.48,-69.36 4355.26,-76.04 4365.85,-75.95 4363.48,-69.36"/>
</g>
<!-- Node19&#45;&gt;Node22 -->
<g id="edge13" class="edge">
<title>Node19&#45;&gt;Node22</title>
<path fill="none" stroke="#63b8ff" d="M4346.71,-69.31C4361.82,-55.49 4382.98,-36.14 4395.21,-24.95"/>
<polygon fill="#63b8ff" stroke="#63b8ff" points="4344.76,-66.35 4339.74,-75.68 4349.48,-71.51 4344.76,-66.35"/>
</g>
<!-- Node36&#45;&gt;Node12 -->
<g id="edge24" class="edge">
<title>Node36&#45;&gt;Node12</title>
<path fill="none" stroke="#63b8ff" d="M375.28,-68.27C379.22,-67.38 383.15,-66.6 387,-66 754.71,-8.63 3533.79,-14.56 3961.75,-15.82"/>
<polygon fill="#63b8ff" stroke="#63b8ff" points="374.56,-64.85 365.73,-70.7 376.28,-71.63 374.56,-64.85"/>
</g>
<!-- Node36&#45;&gt;Node16 -->
<g id="edge21" class="edge">
<title>Node36&#45;&gt;Node16</title>
<path fill="none" stroke="#63b8ff" d="M375.28,-68.26C379.22,-67.36 383.15,-66.59 387,-66 792.68,-3.55 3673.13,-76.1 4081,-30 4090.61,-28.91 4100.89,-27.01 4110.34,-24.94"/>
<polygon fill="#63b8ff" stroke="#63b8ff" points="374.56,-64.83 365.72,-70.68 376.28,-71.61 374.56,-64.83"/>
</g>
<!-- Node36&#45;&gt;Node41 -->
<g id="edge22" class="edge">
<title>Node36&#45;&gt;Node41</title>
<path fill="none" stroke="#63b8ff" d="M331.69,-60.34C336,-47.86 340.93,-33.58 344,-24.68"/>
<polygon fill="#63b8ff" stroke="#63b8ff" points="328.42,-59.07 328.47,-69.67 335.04,-61.36 328.42,-59.07"/>
</g>
<!-- Node36&#45;&gt;Node45 -->
<g id="edge23" class="edge">
<title>Node36&#45;&gt;Node45</title>
<path fill="none" stroke="#63b8ff" d="M288.03,-65.42C264.7,-52.01 235.15,-35.04 217.46,-24.88"/>
<polygon fill="#63b8ff" stroke="#63b8ff" points="286.2,-68.4 296.62,-70.35 289.69,-62.33 286.2,-68.4"/>
</g>
<!-- Node36&#45;&gt;Node46 -->
<g id="edge25" class="edge">
<title>Node36&#45;&gt;Node46</title>
<path fill="none" stroke="#63b8ff" d="M256.53,-68.45C209.59,-56.42 147.59,-40.51 104.2,-29.39"/>
<polygon fill="#63b8ff" stroke="#63b8ff" points="255.48,-71.8 266.04,-70.89 257.22,-65.02 255.48,-71.8"/>
</g>
<!-- Node63&#45;&gt;Node64 -->
<g id="edge31" class="edge">
<title>Node63&#45;&gt;Node64</title>
<path fill="none" stroke="#63b8ff" d="M510.1,-68.29C513.77,-67.43 517.43,-66.66 521,-66 720.31,-29.16 961.53,-19.46 1069.68,-16.91"/>
<polygon fill="#63b8ff" stroke="#63b8ff" points="509.43,-64.84 500.58,-70.67 511.13,-71.63 509.43,-64.84"/>
</g>
<!-- Node106&#45;&gt;Node4 -->
<g id="edge61" class="edge">
<title>Node106&#45;&gt;Node4</title>
<path fill="none" stroke="#63b8ff" d="M1326.9,-161.88C1728.65,-178.24 3690.63,-259.33 4070.33,-275.28"/>
<polygon fill="#63b8ff" stroke="#63b8ff" points="1327.12,-158.38 1316.98,-161.47 1326.83,-165.38 1327.12,-158.38"/>
</g>
<!-- Node106&#45;&gt;Node45 -->
<g id="edge62" class="edge">
<title>Node106&#45;&gt;Node45</title>
<path fill="none" stroke="#63b8ff" d="M1183.09,-156.32C949.09,-153.78 222.35,-142.99 188,-107 166.37,-84.33 186.07,-43.03 196.49,-24.92"/>
<polygon fill="#63b8ff" stroke="#63b8ff" points="1182.97,-159.82 1193,-156.43 1183.04,-152.82 1182.97,-159.82"/>
</g>
<!-- Node106&#45;&gt;Node46 -->
<g id="edge63" class="edge">
<title>Node106&#45;&gt;Node46</title>
<path fill="none" stroke="#63b8ff" d="M1183.51,-156.1C957.75,-152.92 269.41,-140.57 175,-107 129.45,-90.8 86.5,-51.64 65.47,-30.36"/>
<polygon fill="#63b8ff" stroke="#63b8ff" points="1183.3,-159.6 1193.35,-156.24 1183.39,-152.6 1183.3,-159.6"/>
</g>
</g>
</svg>
