<?xml version="1.0" encoding="UTF-8" standalone="no"?>
<!DOCTYPE svg PUBLIC "-//W3C//DTD SVG 1.1//EN"
 "http://www.w3.org/Graphics/SVG/1.1/DTD/svg11.dtd">
<!-- Generated by graphviz version 7.0.4 (20221203.1631)
 -->
<!-- Title: include/d/menu/d_menu_collect.h Pages: 1 -->
<svg width="5133pt" height="434pt"
 viewBox="0.00 0.00 5133.16 434.00" xmlns="http://www.w3.org/2000/svg" xmlns:xlink="http://www.w3.org/1999/xlink">
<g id="graph0" class="graph" transform="scale(1 1) rotate(0) translate(4 430)">
<title>include/d/menu/d_menu_collect.h</title>
<!-- Node1 -->
<g id="node1" class="node">
<title>Node1</title>
<g id="a_node1"><a xlink:title=" ">
<polygon fill="#999999" stroke="#666666" points="5001.66,-426 4881.66,-426 4881.66,-396 5001.66,-396 5001.66,-426"/>
<text text-anchor="start" x="4889.66" y="-414" font-family="Helvetica,sans-Serif" font-size="10.00">include/d/menu/d_menu</text>
<text text-anchor="middle" x="4941.66" y="-403" font-family="Helvetica,sans-Serif" font-size="10.00">_collect.h</text>
</a>
</g>
</g>
<!-- Node2 -->
<g id="node2" class="node">
<title>Node2</title>
<g id="a_node2"><a xlink:href="d__menu__window_8h.html" target="_top" xlink:title=" ">
<polygon fill="white" stroke="#666666" points="4887.66,-360 4767.66,-360 4767.66,-330 4887.66,-330 4887.66,-360"/>
<text text-anchor="start" x="4775.66" y="-348" font-family="Helvetica,sans-Serif" font-size="10.00">include/d/menu/d_menu</text>
<text text-anchor="middle" x="4827.66" y="-337" font-family="Helvetica,sans-Serif" font-size="10.00">_window.h</text>
</a>
</g>
</g>
<!-- Node1&#45;&gt;Node2 -->
<g id="edge1" class="edge">
<title>Node1&#45;&gt;Node2</title>
<path fill="none" stroke="#63b8ff" d="M4906.36,-390.18C4889.15,-380.52 4868.83,-369.12 4853.15,-360.31"/>
<polygon fill="#63b8ff" stroke="#63b8ff" points="4904.32,-393.05 4914.75,-394.9 4907.75,-386.95 4904.32,-393.05"/>
</g>
<!-- Node46 -->
<g id="node22" class="node">
<title>Node46</title>
<g id="a_node22"><a xlink:href="d__menu__window_8cpp.html" target="_top" xlink:title=" ">
<polygon fill="white" stroke="#666666" points="4964.16,-24.5 4805.16,-24.5 4805.16,-5.5 4964.16,-5.5 4964.16,-24.5"/>
<text text-anchor="middle" x="4884.66" y="-12.5" font-family="Helvetica,sans-Serif" font-size="10.00">src/d/menu/d_menu_window.cpp</text>
</a>
</g>
</g>
<!-- Node1&#45;&gt;Node46 -->
<g id="edge69" class="edge">
<title>Node1&#45;&gt;Node46</title>
<path fill="none" stroke="#63b8ff" d="M4941.66,-384.38C4941.66,-358.16 4941.66,-316.24 4941.66,-280 4941.66,-280 4941.66,-280 4941.66,-157 4941.66,-103.4 4905.81,-46.15 4890.97,-24.74"/>
<polygon fill="#63b8ff" stroke="#63b8ff" points="4938.16,-384.06 4941.66,-394.06 4945.16,-384.06 4938.16,-384.06"/>
</g>
<!-- Node107 -->
<g id="node50" class="node">
<title>Node107</title>
<g id="a_node50"><a xlink:href="d__menu__collect_8cpp.html" target="_top" xlink:title=" ">
<polygon fill="white" stroke="#666666" points="5125.16,-354.5 4970.16,-354.5 4970.16,-335.5 5125.16,-335.5 5125.16,-354.5"/>
<text text-anchor="middle" x="5047.66" y="-342.5" font-family="Helvetica,sans-Serif" font-size="10.00">src/d/menu/d_menu_collect.cpp</text>
</a>
</g>
</g>
<!-- Node1&#45;&gt;Node107 -->
<g id="edge68" class="edge">
<title>Node1&#45;&gt;Node107</title>
<path fill="none" stroke="#63b8ff" d="M4975.13,-389.79C4994.49,-378.1 5017.89,-363.97 5032.77,-354.99"/>
<polygon fill="#63b8ff" stroke="#63b8ff" points="4973.49,-386.69 4966.74,-394.85 4977.11,-392.68 4973.49,-386.69"/>
</g>
<!-- Node3 -->
<g id="node3" class="node">
<title>Node3</title>
<g id="a_node3"><a xlink:href="d__meter2__info_8h.html" target="_top" xlink:title=" ">
<polygon fill="white" stroke="#666666" points="2611.16,-294 2484.16,-294 2484.16,-264 2611.16,-264 2611.16,-294"/>
<text text-anchor="start" x="2492.16" y="-282" font-family="Helvetica,sans-Serif" font-size="10.00">include/d/meter/d_meter2</text>
<text text-anchor="middle" x="2547.66" y="-271" font-family="Helvetica,sans-Serif" font-size="10.00">_info.h</text>
</a>
</g>
</g>
<!-- Node2&#45;&gt;Node3 -->
<g id="edge2" class="edge">
<title>Node2&#45;&gt;Node3</title>
<path fill="none" stroke="#63b8ff" d="M4755.99,-342.06C4412.41,-332.57 2937.56,-291.17 2611.57,-281.86"/>
<polygon fill="#63b8ff" stroke="#63b8ff" points="4755.65,-345.55 4765.74,-342.33 4755.84,-338.55 4755.65,-345.55"/>
</g>
<!-- Node2&#45;&gt;Node46 -->
<g id="edge66" class="edge">
<title>Node2&#45;&gt;Node46</title>
<path fill="none" stroke="#63b8ff" d="M4851.87,-321.53C4874.11,-298.33 4903.66,-259.92 4903.66,-219.5 4903.66,-219.5 4903.66,-219.5 4903.66,-157 4903.66,-106.61 4891.59,-46.99 4886.69,-24.85"/>
<polygon fill="#63b8ff" stroke="#63b8ff" points="4849.42,-319.02 4844.84,-328.58 4854.38,-323.97 4849.42,-319.02"/>
</g>
<!-- Node47 -->
<g id="node23" class="node">
<title>Node47</title>
<g id="a_node23"><a xlink:href="d__meter__map_8cpp.html" target="_top" xlink:title=" ">
<polygon fill="white" stroke="#666666" points="3133.66,-30 3029.66,-30 3029.66,0 3133.66,0 3133.66,-30"/>
<text text-anchor="start" x="3037.66" y="-18" font-family="Helvetica,sans-Serif" font-size="10.00">src/d/meter/d_meter</text>
<text text-anchor="middle" x="3081.66" y="-7" font-family="Helvetica,sans-Serif" font-size="10.00">_map.cpp</text>
</a>
</g>
</g>
<!-- Node2&#45;&gt;Node47 -->
<g id="edge67" class="edge">
<title>Node2&#45;&gt;Node47</title>
<path fill="none" stroke="#63b8ff" d="M4827.66,-318.37C4827.66,-293.2 4827.66,-253.71 4827.66,-219.5 4827.66,-219.5 4827.66,-219.5 4827.66,-157 4827.66,-104.02 4798.4,-88.97 4750.66,-66 4686.75,-35.26 3545.54,-32.26 3474.66,-30 3352.68,-26.11 3209.44,-20.82 3134.1,-17.99"/>
<polygon fill="#63b8ff" stroke="#63b8ff" points="4824.16,-318.3 4827.66,-328.3 4831.16,-318.3 4824.16,-318.3"/>
</g>
<!-- Node3&#45;&gt;Node2 -->
<g id="edge61" class="edge">
<title>Node3&#45;&gt;Node2</title>
<path fill="none" stroke="#63b8ff" d="M2622.85,-282.04C2974.16,-291.74 4449.74,-333.16 4767.31,-342.24"/>
<polygon fill="#63b8ff" stroke="#63b8ff" points="2623.16,-278.55 2613.07,-281.77 2622.97,-285.54 2623.16,-278.55"/>
</g>
<!-- Node4 -->
<g id="node4" class="node">
<title>Node4</title>
<g id="a_node4"><a xlink:href="d__a__alink_8h.html" target="_top" xlink:title=" ">
<polygon fill="white" stroke="#666666" points="2648.66,-228 2532.66,-228 2532.66,-209 2648.66,-209 2648.66,-228"/>
<text text-anchor="middle" x="2590.66" y="-216" font-family="Helvetica,sans-Serif" font-size="10.00">include/d/a/d_a_alink.h</text>
</a>
</g>
</g>
<!-- Node3&#45;&gt;Node4 -->
<g id="edge3" class="edge">
<title>Node3&#45;&gt;Node4</title>
<path fill="none" stroke="#63b8ff" d="M2565.04,-254.35C2571.83,-245.11 2579.2,-235.09 2584.28,-228.18"/>
<polygon fill="#63b8ff" stroke="#63b8ff" points="2562.28,-252.19 2559.18,-262.32 2567.92,-256.34 2562.28,-252.19"/>
</g>
<!-- Node11 -->
<g id="node7" class="node">
<title>Node11</title>
<g id="a_node7"><a xlink:href="d__meter2__info_8cpp.html" target="_top" xlink:title=" ">
<polygon fill="white" stroke="#666666" points="3593.66,-30 3483.66,-30 3483.66,0 3593.66,0 3593.66,-30"/>
<text text-anchor="start" x="3491.66" y="-18" font-family="Helvetica,sans-Serif" font-size="10.00">src/d/meter/d_meter2</text>
<text text-anchor="middle" x="3538.66" y="-7" font-family="Helvetica,sans-Serif" font-size="10.00">_info.cpp</text>
</a>
</g>
</g>
<!-- Node3&#45;&gt;Node11 -->
<g id="edge64" class="edge">
<title>Node3&#45;&gt;Node11</title>
<path fill="none" stroke="#63b8ff" d="M2622.97,-278.36C2993.61,-279.34 4611.66,-273.97 4750.66,-107 4762.32,-93 4763.33,-79.1 4750.66,-66 4708.68,-22.61 3724.87,-34.34 3664.66,-30 3641.5,-28.33 3616.03,-25.66 3594.08,-23.1"/>
<polygon fill="#63b8ff" stroke="#63b8ff" points="2623.12,-274.86 2613.11,-278.33 2623.1,-281.86 2623.12,-274.86"/>
</g>
<!-- Node20 -->
<g id="node12" class="node">
<title>Node20</title>
<g id="a_node12"><a xlink:href="d__com__inf__game_8cpp.html" target="_top" xlink:title=" ">
<polygon fill="white" stroke="#666666" points="515.66,-30 407.66,-30 407.66,0 515.66,0 515.66,-30"/>
<text text-anchor="start" x="415.66" y="-18" font-family="Helvetica,sans-Serif" font-size="10.00">src/d/com/d_com_inf</text>
<text text-anchor="middle" x="461.66" y="-7" font-family="Helvetica,sans-Serif" font-size="10.00">_game.cpp</text>
</a>
</g>
</g>
<!-- Node3&#45;&gt;Node20 -->
<g id="edge62" class="edge">
<title>Node3&#45;&gt;Node20</title>
<path fill="none" stroke="#63b8ff" d="M2472.28,-278.2C2195.38,-278.12 1208.63,-270.57 402.66,-173 232.05,-152.35 132.32,-238.48 21.66,-107 9.92,-93.06 9.4,-79.49 21.66,-66 49.88,-34.94 356.19,-36.5 397.66,-30 400.8,-29.51 404.03,-28.95 407.27,-28.36"/>
<polygon fill="#63b8ff" stroke="#63b8ff" points="2472.25,-281.7 2482.25,-278.2 2472.25,-274.7 2472.25,-281.7"/>
</g>
<!-- Node21 -->
<g id="node13" class="node">
<title>Node21</title>
<g id="a_node13"><a xlink:href="d__item_8cpp.html" target="_top" xlink:title=" ">
<polygon fill="white" stroke="#666666" points="128.16,-24.5 39.16,-24.5 39.16,-5.5 128.16,-5.5 128.16,-24.5"/>
<text text-anchor="middle" x="83.66" y="-12.5" font-family="Helvetica,sans-Serif" font-size="10.00">src/d/d_item.cpp</text>
</a>
</g>
</g>
<!-- Node3&#45;&gt;Node21 -->
<g id="edge63" class="edge">
<title>Node3&#45;&gt;Node21</title>
<path fill="none" stroke="#63b8ff" d="M2472.51,-276.79C2067.79,-270.06 161.81,-235.12 54.66,-173 10.02,-147.12 -14.55,-111.56 9.66,-66 20.2,-46.15 42.54,-32.74 59.93,-24.85"/>
<polygon fill="#63b8ff" stroke="#63b8ff" points="2472.19,-280.29 2482.25,-276.96 2472.31,-273.29 2472.19,-280.29"/>
</g>
<!-- Node97 -->
<g id="node49" class="node">
<title>Node97</title>
<g id="a_node49"><a xlink:href="d__save_8cpp.html" target="_top" xlink:title=" ">
<polygon fill="white" stroke="#666666" points="298.16,-96 183.16,-96 183.16,-77 298.16,-77 298.16,-96"/>
<text text-anchor="middle" x="240.66" y="-84" font-family="Helvetica,sans-Serif" font-size="10.00">src/d/save/d_save.cpp</text>
</a>
</g>
</g>
<!-- Node3&#45;&gt;Node97 -->
<g id="edge65" class="edge">
<title>Node3&#45;&gt;Node97</title>
<path fill="none" stroke="#63b8ff" d="M2472.46,-272.55C2096.15,-245.26 431.25,-123.98 322.66,-107 306.17,-104.42 288.11,-100.27 273.14,-96.46"/>
<polygon fill="#63b8ff" stroke="#63b8ff" points="2472,-276.03 2482.22,-273.26 2472.5,-269.05 2472,-276.03"/>
</g>
<!-- Node5 -->
<g id="node5" class="node">
<title>Node5</title>
<g id="a_node5"><a xlink:href="d__com__inf__game_8h.html" target="_top" xlink:title=" ">
<polygon fill="#fff0f0" stroke="red" points="2645.66,-173 2535.66,-173 2535.66,-143 2645.66,-143 2645.66,-173"/>
<text text-anchor="start" x="2543.66" y="-161" font-family="Helvetica,sans-Serif" font-size="10.00">include/d/com/d_com</text>
<text text-anchor="middle" x="2590.66" y="-150" font-family="Helvetica,sans-Serif" font-size="10.00">_inf_game.h</text>
</a>
</g>
</g>
<!-- Node4&#45;&gt;Node5 -->
<g id="edge4" class="edge">
<title>Node4&#45;&gt;Node5</title>
<path fill="none" stroke="#63b8ff" d="M2590.66,-197.51C2590.66,-189.49 2590.66,-180.43 2590.66,-173.11"/>
<polygon fill="#63b8ff" stroke="#63b8ff" points="2587.16,-197.35 2590.66,-207.35 2594.16,-197.35 2587.16,-197.35"/>
</g>
<!-- Node15 -->
<g id="node10" class="node">
<title>Node15</title>
<g id="a_node10"><a xlink:href="d__a__alink_8cpp.html" target="_top" xlink:title=" ">
<polygon fill="white" stroke="#666666" points="2765.16,-24.5 2656.16,-24.5 2656.16,-5.5 2765.16,-5.5 2765.16,-24.5"/>
<text text-anchor="middle" x="2710.66" y="-12.5" font-family="Helvetica,sans-Serif" font-size="10.00">src/d/a/d_a_alink.cpp</text>
</a>
</g>
</g>
<!-- Node4&#45;&gt;Node15 -->
<g id="edge60" class="edge">
<title>Node4&#45;&gt;Node15</title>
<path fill="none" stroke="#63b8ff" d="M2660.36,-216.57C3020.82,-211.43 4659.64,-183.88 4732.66,-107 4745.21,-93.79 4745.42,-79.01 4732.66,-66 4695.43,-28.07 2872.66,-33.89 2819.66,-30 2801.96,-28.7 2782.74,-26.5 2765.43,-24.22"/>
<polygon fill="#63b8ff" stroke="#63b8ff" points="2660.53,-213.07 2650.59,-216.71 2660.63,-220.07 2660.53,-213.07"/>
</g>
<!-- Node6 -->
<g id="node6" class="node">
<title>Node6</title>
<g id="a_node6"><a xlink:href="d__a__npc_8h.html" target="_top" xlink:title=" ">
<polygon fill="#fff0f0" stroke="red" points="3659.16,-96 3548.16,-96 3548.16,-77 3659.16,-77 3659.16,-96"/>
<text text-anchor="middle" x="3603.66" y="-84" font-family="Helvetica,sans-Serif" font-size="10.00">include/d/a/d_a_npc.h</text>
</a>
</g>
</g>
<!-- Node5&#45;&gt;Node6 -->
<g id="edge5" class="edge">
<title>Node5&#45;&gt;Node6</title>
<path fill="none" stroke="#63b8ff" d="M2657.53,-155.36C2843.57,-150.48 3364.67,-134.67 3533.66,-107 3548.1,-104.63 3563.82,-100.41 3576.71,-96.5"/>
<polygon fill="#63b8ff" stroke="#63b8ff" points="2657.44,-151.86 2647.54,-155.61 2657.63,-158.85 2657.44,-151.86"/>
</g>
<!-- Node5&#45;&gt;Node11 -->
<g id="edge57" class="edge">
<title>Node5&#45;&gt;Node11</title>
<path fill="none" stroke="#63b8ff" d="M2657.29,-157.37C2855.57,-157.91 3432.32,-155.28 3500.66,-107 3525.97,-89.12 3534.48,-51.03 3537.3,-30.25"/>
<polygon fill="#63b8ff" stroke="#63b8ff" points="2657.42,-153.87 2647.41,-157.34 2657.4,-160.87 2657.42,-153.87"/>
</g>
<!-- Node12 -->
<g id="node8" class="node">
<title>Node12</title>
<g id="a_node8"><a xlink:href="d__cc__uty_8h.html" target="_top" xlink:title=" ">
<polygon fill="#fff0f0" stroke="red" points="2889.16,-96 2770.16,-96 2770.16,-77 2889.16,-77 2889.16,-96"/>
<text text-anchor="middle" x="2829.66" y="-84" font-family="Helvetica,sans-Serif" font-size="10.00">include/d/cc/d_cc_uty.h</text>
</a>
</g>
</g>
<!-- Node5&#45;&gt;Node12 -->
<g id="edge7" class="edge">
<title>Node5&#45;&gt;Node12</title>
<path fill="none" stroke="#63b8ff" d="M2651.45,-139.32C2698.52,-125.63 2761.75,-107.25 2798.86,-96.46"/>
<polygon fill="#63b8ff" stroke="#63b8ff" points="2650.55,-135.94 2641.92,-142.09 2652.5,-142.66 2650.55,-135.94"/>
</g>
<!-- Node18 -->
<g id="node9" class="node">
<title>Node18</title>
<g id="a_node9"><a xlink:href="d__item_8h.html" target="_top" xlink:title=" ">
<polygon fill="#fff0f0" stroke="red" points="450.16,-96 355.16,-96 355.16,-77 450.16,-77 450.16,-96"/>
<text text-anchor="middle" x="402.66" y="-84" font-family="Helvetica,sans-Serif" font-size="10.00">include/d/d_item.h</text>
</a>
</g>
</g>
<!-- Node5&#45;&gt;Node18 -->
<g id="edge8" class="edge">
<title>Node5&#45;&gt;Node18</title>
<path fill="none" stroke="#63b8ff" d="M2524.26,-156.55C2187.01,-154.1 671.63,-141.28 464.66,-107 451.52,-104.82 437.32,-100.51 425.83,-96.49"/>
<polygon fill="#63b8ff" stroke="#63b8ff" points="2523.75,-160.04 2533.78,-156.62 2523.8,-153.04 2523.75,-160.04"/>
</g>
<!-- Node5&#45;&gt;Node15 -->
<g id="edge35" class="edge">
<title>Node5&#45;&gt;Node15</title>
<path fill="none" stroke="#63b8ff" d="M2617.3,-135.41C2627.01,-127 2637.76,-116.99 2646.66,-107 2671.44,-79.16 2695.23,-41.57 2705.44,-24.76"/>
<polygon fill="#63b8ff" stroke="#63b8ff" points="2615.29,-132.53 2609.93,-141.67 2619.82,-137.87 2615.29,-132.53"/>
</g>
<!-- Node19 -->
<g id="node11" class="node">
<title>Node19</title>
<g id="a_node11"><a xlink:href="d__a__obj__item_8cpp.html" target="_top" xlink:title=" ">
<polygon fill="white" stroke="#666666" points="389.16,-24.5 264.16,-24.5 264.16,-5.5 389.16,-5.5 389.16,-24.5"/>
<text text-anchor="middle" x="326.66" y="-12.5" font-family="Helvetica,sans-Serif" font-size="10.00">src/d/a/d_a_obj_item.cpp</text>
</a>
</g>
</g>
<!-- Node5&#45;&gt;Node19 -->
<g id="edge38" class="edge">
<title>Node5&#45;&gt;Node19</title>
<path fill="none" stroke="#63b8ff" d="M2523.87,-156.07C2153.46,-150.87 367.15,-124.87 345.66,-107 321.08,-86.57 323.16,-43.31 325.36,-24.75"/>
<polygon fill="#63b8ff" stroke="#63b8ff" points="2523.62,-159.57 2533.67,-156.21 2523.72,-152.57 2523.62,-159.57"/>
</g>
<!-- Node5&#45;&gt;Node20 -->
<g id="edge44" class="edge">
<title>Node5&#45;&gt;Node20</title>
<path fill="none" stroke="#63b8ff" d="M2524.12,-156.41C2171.98,-153.19 540.2,-136.67 497.66,-107 472.43,-89.41 464.88,-51.2 462.62,-30.33"/>
<polygon fill="#63b8ff" stroke="#63b8ff" points="2523.83,-159.91 2533.86,-156.5 2523.89,-152.91 2523.83,-159.91"/>
</g>
<!-- Node23 -->
<g id="node14" class="node">
<title>Node23</title>
<g id="a_node14"><a xlink:href="d__kantera__icon__meter_8h.html" target="_top" xlink:title=" ">
<polygon fill="#fff0f0" stroke="red" points="3008.16,-101.5 2907.16,-101.5 2907.16,-71.5 3008.16,-71.5 3008.16,-101.5"/>
<text text-anchor="start" x="2915.16" y="-89.5" font-family="Helvetica,sans-Serif" font-size="10.00">include/d/d_kantera</text>
<text text-anchor="middle" x="2957.66" y="-78.5" font-family="Helvetica,sans-Serif" font-size="10.00">_icon_meter.h</text>
</a>
</g>
</g>
<!-- Node5&#45;&gt;Node23 -->
<g id="edge13" class="edge">
<title>Node5&#45;&gt;Node23</title>
<path fill="none" stroke="#63b8ff" d="M2657.31,-149.28C2720.11,-141.27 2816.55,-127.1 2898.66,-107 2904.52,-105.56 2910.65,-103.82 2916.64,-101.98"/>
<polygon fill="#63b8ff" stroke="#63b8ff" points="2656.97,-145.79 2647.49,-150.51 2657.85,-152.74 2656.97,-145.79"/>
</g>
<!-- Node26 -->
<g id="node15" class="node">
<title>Node26</title>
<g id="a_node15"><a xlink:href="d__model_8h.html" target="_top" xlink:title=" ">
<polygon fill="#fff0f0" stroke="red" points="3258.16,-96 3155.16,-96 3155.16,-77 3258.16,-77 3258.16,-96"/>
<text text-anchor="middle" x="3206.66" y="-84" font-family="Helvetica,sans-Serif" font-size="10.00">include/d/d_model.h</text>
</a>
</g>
</g>
<!-- Node5&#45;&gt;Node26 -->
<g id="edge14" class="edge">
<title>Node5&#45;&gt;Node26</title>
<path fill="none" stroke="#63b8ff" d="M2657.33,-155.71C2762.23,-152.62 2971.77,-142.18 3145.66,-107 3158.19,-104.46 3171.77,-100.27 3182.93,-96.42"/>
<polygon fill="#63b8ff" stroke="#63b8ff" points="2657.39,-152.2 2647.49,-155.98 2657.59,-159.2 2657.39,-152.2"/>
</g>
<!-- Node28 -->
<g id="node16" class="node">
<title>Node28</title>
<g id="a_node16"><a xlink:href="d__name_8h.html" target="_top" xlink:title=" ">
<polygon fill="#fff0f0" stroke="red" points="3377.16,-96 3276.16,-96 3276.16,-77 3377.16,-77 3377.16,-96"/>
<text text-anchor="middle" x="3326.66" y="-84" font-family="Helvetica,sans-Serif" font-size="10.00">include/d/d_name.h</text>
</a>
</g>
</g>
<!-- Node5&#45;&gt;Node28 -->
<g id="edge15" class="edge">
<title>Node5&#45;&gt;Node28</title>
<path fill="none" stroke="#63b8ff" d="M2657.49,-157.46C2779.81,-157.12 3047.34,-150.85 3267.66,-107 3279.93,-104.56 3293.19,-100.32 3304.03,-96.43"/>
<polygon fill="#63b8ff" stroke="#63b8ff" points="2657.63,-153.96 2647.63,-157.48 2657.64,-160.96 2657.63,-153.96"/>
</g>
<!-- Node30 -->
<g id="node17" class="node">
<title>Node30</title>
<g id="a_node17"><a xlink:href="d__file__sel__info_8h.html" target="_top" xlink:title=" ">
<polygon fill="#fff0f0" stroke="red" points="3491.66,-101.5 3395.66,-101.5 3395.66,-71.5 3491.66,-71.5 3491.66,-101.5"/>
<text text-anchor="start" x="3403.66" y="-89.5" font-family="Helvetica,sans-Serif" font-size="10.00">include/d/file/d_file</text>
<text text-anchor="middle" x="3443.66" y="-78.5" font-family="Helvetica,sans-Serif" font-size="10.00">_sel_info.h</text>
</a>
</g>
</g>
<!-- Node5&#45;&gt;Node30 -->
<g id="edge16" class="edge">
<title>Node5&#45;&gt;Node30</title>
<path fill="none" stroke="#63b8ff" d="M2657.56,-155.09C2822.97,-150.01 3247.81,-134.59 3386.66,-107 3393.02,-105.74 3399.64,-103.94 3406.02,-101.95"/>
<polygon fill="#63b8ff" stroke="#63b8ff" points="2657.5,-151.59 2647.62,-155.39 2657.72,-158.59 2657.5,-151.59"/>
</g>
<!-- Node33 -->
<g id="node18" class="node">
<title>Node33</title>
<g id="a_node18"><a xlink:href="d__file__sel__warning_8h.html" target="_top" xlink:title=" ">
<polygon fill="#fff0f0" stroke="red" points="3945.66,-101.5 3849.66,-101.5 3849.66,-71.5 3945.66,-71.5 3945.66,-101.5"/>
<text text-anchor="start" x="3857.66" y="-89.5" font-family="Helvetica,sans-Serif" font-size="10.00">include/d/file/d_file</text>
<text text-anchor="middle" x="3897.66" y="-78.5" font-family="Helvetica,sans-Serif" font-size="10.00">_sel_warning.h</text>
</a>
</g>
</g>
<!-- Node5&#45;&gt;Node33 -->
<g id="edge17" class="edge">
<title>Node5&#45;&gt;Node33</title>
<path fill="none" stroke="#63b8ff" d="M2657.33,-156.87C2882.07,-156.04 3610.62,-150 3840.66,-107 3847.13,-105.79 3853.87,-103.99 3860.36,-101.97"/>
<polygon fill="#63b8ff" stroke="#63b8ff" points="2657.57,-153.37 2647.58,-156.9 2657.6,-160.37 2657.57,-153.37"/>
</g>
<!-- Node35 -->
<g id="node19" class="node">
<title>Node35</title>
<g id="a_node19"><a xlink:href="d__meter2_8h.html" target="_top" xlink:title=" ">
<polygon fill="#fff0f0" stroke="red" points="164.66,-96 30.66,-96 30.66,-77 164.66,-77 164.66,-96"/>
<text text-anchor="middle" x="97.66" y="-84" font-family="Helvetica,sans-Serif" font-size="10.00">include/d/meter/d_meter2.h</text>
</a>
</g>
</g>
<!-- Node5&#45;&gt;Node35 -->
<g id="edge18" class="edge">
<title>Node5&#45;&gt;Node35</title>
<path fill="none" stroke="#63b8ff" d="M2523.97,-156.54C2159.07,-153.89 411.8,-139.57 173.66,-107 157.73,-104.82 140.34,-100.51 126.22,-96.49"/>
<polygon fill="#63b8ff" stroke="#63b8ff" points="2523.83,-160.04 2533.85,-156.61 2523.88,-153.04 2523.83,-160.04"/>
</g>
<!-- Node37 -->
<g id="node20" class="node">
<title>Node37</title>
<g id="a_node20"><a xlink:href="d__msg__object_8h.html" target="_top" xlink:title=" ">
<polygon fill="#fff0f0" stroke="red" points="3136.66,-101.5 3026.66,-101.5 3026.66,-71.5 3136.66,-71.5 3136.66,-101.5"/>
<text text-anchor="start" x="3034.66" y="-89.5" font-family="Helvetica,sans-Serif" font-size="10.00">include/d/msg/d_msg</text>
<text text-anchor="middle" x="3081.66" y="-78.5" font-family="Helvetica,sans-Serif" font-size="10.00">_object.h</text>
</a>
</g>
</g>
<!-- Node5&#45;&gt;Node37 -->
<g id="edge20" class="edge">
<title>Node5&#45;&gt;Node37</title>
<path fill="none" stroke="#63b8ff" d="M2657.33,-152.91C2741.87,-146.87 2891.76,-133.33 3017.66,-107 3024.25,-105.62 3031.14,-103.87 3037.86,-101.98"/>
<polygon fill="#63b8ff" stroke="#63b8ff" points="2657.34,-149.4 2647.61,-153.59 2657.83,-156.38 2657.34,-149.4"/>
</g>
<!-- Node42 -->
<g id="node21" class="node">
<title>Node42</title>
<g id="a_node21"><a xlink:href="d__demo_8cpp.html" target="_top" xlink:title=" ">
<polygon fill="white" stroke="#666666" points="2922.66,-24.5 2828.66,-24.5 2828.66,-5.5 2922.66,-5.5 2922.66,-24.5"/>
<text text-anchor="middle" x="2875.66" y="-12.5" font-family="Helvetica,sans-Serif" font-size="10.00">src/d/d_demo.cpp</text>
</a>
</g>
</g>
<!-- Node5&#45;&gt;Node42 -->
<g id="edge49" class="edge">
<title>Node5&#45;&gt;Node42</title>
<path fill="none" stroke="#63b8ff" d="M2626.93,-137.11C2642.26,-128.34 2660.12,-117.62 2675.66,-107 2699.95,-90.39 2701.78,-80.03 2727.66,-66 2762.94,-46.87 2806.9,-33.15 2837.7,-24.97"/>
<polygon fill="#63b8ff" stroke="#63b8ff" points="2625.56,-133.86 2618.58,-141.83 2629.01,-139.96 2625.56,-133.86"/>
</g>
<!-- Node5&#45;&gt;Node46 -->
<g id="edge56" class="edge">
<title>Node5&#45;&gt;Node46</title>
<path fill="none" stroke="#63b8ff" d="M2657.53,-156.4C3009.06,-153.12 4630.74,-136.46 4732.66,-107 4791.45,-90 4850.69,-44.44 4874.15,-25"/>
<polygon fill="#63b8ff" stroke="#63b8ff" points="2657.53,-152.9 2647.57,-156.49 2657.6,-159.9 2657.53,-152.9"/>
</g>
<!-- Node5&#45;&gt;Node47 -->
<g id="edge58" class="edge">
<title>Node5&#45;&gt;Node47</title>
<path fill="none" stroke="#63b8ff" d="M2648.44,-138.67C2670.31,-130.52 2694.91,-119.84 2715.66,-107 2738.94,-92.59 2736.9,-77.7 2761.66,-66 2808.11,-44.05 2951.31,-27.96 3029.46,-20.55"/>
<polygon fill="#63b8ff" stroke="#63b8ff" points="2647.26,-135.37 2639.04,-142.06 2649.64,-141.96 2647.26,-135.37"/>
</g>
<!-- Node53 -->
<g id="node24" class="node">
<title>Node53</title>
<g id="a_node24"><a xlink:href="d__s__logo_8h.html" target="_top" xlink:title=" ">
<polygon fill="#fff0f0" stroke="red" points="4077.16,-96 3964.16,-96 3964.16,-77 4077.16,-77 4077.16,-96"/>
<text text-anchor="middle" x="4020.66" y="-84" font-family="Helvetica,sans-Serif" font-size="10.00">include/d/s/d_s_logo.h</text>
</a>
</g>
</g>
<!-- Node5&#45;&gt;Node53 -->
<g id="edge26" class="edge">
<title>Node5&#45;&gt;Node53</title>
<path fill="none" stroke="#63b8ff" d="M2657.27,-156.76C2894.94,-155.58 3700.55,-148.52 3954.66,-107 3968.57,-104.73 3983.68,-100.41 3995.93,-96.41"/>
<polygon fill="#63b8ff" stroke="#63b8ff" points="2657.56,-153.26 2647.57,-156.81 2657.59,-160.26 2657.56,-153.26"/>
</g>
<!-- Node55 -->
<g id="node25" class="node">
<title>Node55</title>
<g id="a_node25"><a xlink:href="d__s__play_8h.html" target="_top" xlink:title=" ">
<polygon fill="#fff0f0" stroke="red" points="4208.16,-96 4095.16,-96 4095.16,-77 4208.16,-77 4208.16,-96"/>
<text text-anchor="middle" x="4151.66" y="-84" font-family="Helvetica,sans-Serif" font-size="10.00">include/d/s/d_s_play.h</text>
</a>
</g>
</g>
<!-- Node5&#45;&gt;Node55 -->
<g id="edge27" class="edge">
<title>Node5&#45;&gt;Node55</title>
<path fill="none" stroke="#63b8ff" d="M2657.32,-157.05C2909.59,-156.9 3805.68,-153.05 4086.66,-107 4100.38,-104.75 4115.26,-100.43 4127.32,-96.43"/>
<polygon fill="#63b8ff" stroke="#63b8ff" points="2657.66,-153.55 2647.66,-157.06 2657.66,-160.55 2657.66,-153.55"/>
</g>
<!-- Node59 -->
<g id="node26" class="node">
<title>Node59</title>
<g id="a_node26"><a xlink:href="d__msg__scrn__base_8h.html" target="_top" xlink:title=" ">
<polygon fill="#fff0f0" stroke="red" points="4325.16,-101.5 4226.16,-101.5 4226.16,-71.5 4325.16,-71.5 4325.16,-101.5"/>
<text text-anchor="start" x="4234.16" y="-89.5" font-family="Helvetica,sans-Serif" font-size="10.00">include/msg/scrn/d</text>
<text text-anchor="middle" x="4275.66" y="-78.5" font-family="Helvetica,sans-Serif" font-size="10.00">_msg_scrn_base.h</text>
</a>
</g>
</g>
<!-- Node5&#45;&gt;Node59 -->
<g id="edge28" class="edge">
<title>Node5&#45;&gt;Node59</title>
<path fill="none" stroke="#63b8ff" d="M2657.41,-156.1C2944,-152.1 4062.65,-134.81 4217.66,-107 4224.35,-105.8 4231.32,-103.98 4238.01,-101.93"/>
<polygon fill="#63b8ff" stroke="#63b8ff" points="2657.44,-152.6 2647.49,-156.24 2657.54,-159.6 2657.44,-152.6"/>
</g>
<!-- Node63 -->
<g id="node27" class="node">
<title>Node63</title>
<g id="a_node27"><a xlink:href="d__a__b__zant_8h.html" target="_top" xlink:title=" ">
<polygon fill="white" stroke="#666666" points="4464.16,-101.5 4343.16,-101.5 4343.16,-71.5 4464.16,-71.5 4464.16,-101.5"/>
<text text-anchor="start" x="4351.16" y="-89.5" font-family="Helvetica,sans-Serif" font-size="10.00">include/rel/d/a/b/d</text>
<text text-anchor="middle" x="4403.66" y="-78.5" font-family="Helvetica,sans-Serif" font-size="10.00">_a_b_zant/d_a_b_zant.h</text>
</a>
</g>
</g>
<!-- Node5&#45;&gt;Node63 -->
<g id="edge29" class="edge">
<title>Node5&#45;&gt;Node63</title>
<path fill="none" stroke="#63b8ff" d="M2657.42,-157.28C2935.47,-158.13 4002.41,-157.91 4334.66,-107 4342.53,-105.79 4350.78,-103.97 4358.73,-101.92"/>
<polygon fill="#63b8ff" stroke="#63b8ff" points="2657.46,-153.78 2647.45,-157.25 2657.44,-160.78 2657.46,-153.78"/>
</g>
<!-- Node64 -->
<g id="node28" class="node">
<title>Node64</title>
<g id="a_node28"><a xlink:href="d__a__spinner_8h.html" target="_top" xlink:title=" ">
<polygon fill="white" stroke="#666666" points="3831.66,-101.5 3715.66,-101.5 3715.66,-71.5 3831.66,-71.5 3831.66,-101.5"/>
<text text-anchor="start" x="3723.66" y="-89.5" font-family="Helvetica,sans-Serif" font-size="10.00">include/rel/d/a/d_a</text>
<text text-anchor="middle" x="3773.66" y="-78.5" font-family="Helvetica,sans-Serif" font-size="10.00">_spinner/d_a_spinner.h</text>
</a>
</g>
</g>
<!-- Node5&#45;&gt;Node64 -->
<g id="edge30" class="edge">
<title>Node5&#45;&gt;Node64</title>
<path fill="none" stroke="#63b8ff" d="M2657.4,-155.92C2865.17,-152.24 3498.63,-138.67 3701.66,-107 3709.59,-105.76 3717.9,-103.98 3725.95,-101.99"/>
<polygon fill="#63b8ff" stroke="#63b8ff" points="2657.53,-152.41 2647.59,-156.09 2657.65,-159.41 2657.53,-152.41"/>
</g>
<!-- Node65 -->
<g id="node29" class="node">
<title>Node65</title>
<g id="a_node29"><a xlink:href="d__a__player_8cpp.html" target="_top" xlink:title=" ">
<polygon fill="white" stroke="#666666" points="3787.66,-24.5 3673.66,-24.5 3673.66,-5.5 3787.66,-5.5 3787.66,-24.5"/>
<text text-anchor="middle" x="3730.66" y="-12.5" font-family="Helvetica,sans-Serif" font-size="10.00">src/d/a/d_a_player.cpp</text>
</a>
</g>
</g>
<!-- Node5&#45;&gt;Node65 -->
<g id="edge39" class="edge">
<title>Node5&#45;&gt;Node65</title>
<path fill="none" stroke="#63b8ff" d="M2657.52,-157.34C2879.16,-158 3580.68,-156.15 3668.66,-107 3685.6,-97.54 3714.66,-45.86 3725.96,-24.87"/>
<polygon fill="#63b8ff" stroke="#63b8ff" points="2657.62,-153.84 2647.61,-157.31 2657.59,-160.84 2657.62,-153.84"/>
</g>
<!-- Node66 -->
<g id="node30" class="node">
<title>Node66</title>
<g id="a_node30"><a xlink:href="d__a__obj__yobikusa_8h.html" target="_top" xlink:title=" ">
<polygon fill="white" stroke="#666666" points="4587.16,-107 4482.16,-107 4482.16,-66 4587.16,-66 4587.16,-107"/>
<text text-anchor="start" x="4490.16" y="-95" font-family="Helvetica,sans-Serif" font-size="10.00">include/rel/d/a/obj</text>
<text text-anchor="start" x="4490.16" y="-84" font-family="Helvetica,sans-Serif" font-size="10.00">/d_a_obj_yobikusa/d</text>
<text text-anchor="middle" x="4534.66" y="-73" font-family="Helvetica,sans-Serif" font-size="10.00">_a_obj_yobikusa.h</text>
</a>
</g>
</g>
<!-- Node5&#45;&gt;Node66 -->
<g id="edge32" class="edge">
<title>Node5&#45;&gt;Node66</title>
<path fill="none" stroke="#63b8ff" d="M2656.88,-156.35C2969.73,-153.14 4291.92,-137.82 4473.66,-107 4476.4,-106.54 4479.18,-105.98 4481.98,-105.34"/>
<polygon fill="#63b8ff" stroke="#63b8ff" points="2657.23,-152.85 2647.26,-156.45 2657.3,-159.85 2657.23,-152.85"/>
</g>
<!-- Node67 -->
<g id="node31" class="node">
<title>Node67</title>
<g id="a_node31"><a xlink:href="d__a__tag__telop_8h.html" target="_top" xlink:title=" ">
<polygon fill="white" stroke="#666666" points="4723.66,-107 4605.66,-107 4605.66,-66 4723.66,-66 4723.66,-107"/>
<text text-anchor="start" x="4613.66" y="-95" font-family="Helvetica,sans-Serif" font-size="10.00">include/rel/d/a/tag</text>
<text text-anchor="start" x="4613.66" y="-84" font-family="Helvetica,sans-Serif" font-size="10.00">/d_a_tag_telop/d_a_tag</text>
<text text-anchor="middle" x="4664.66" y="-73" font-family="Helvetica,sans-Serif" font-size="10.00">_telop.h</text>
</a>
</g>
</g>
<!-- Node5&#45;&gt;Node67 -->
<g id="edge33" class="edge">
<title>Node5&#45;&gt;Node67</title>
<path fill="none" stroke="#63b8ff" d="M2656.92,-156.35C2982.15,-153.02 4401.72,-136.88 4596.66,-107 4599.57,-106.55 4602.53,-106.02 4605.52,-105.42"/>
<polygon fill="#63b8ff" stroke="#63b8ff" points="2657.29,-152.85 2647.33,-156.45 2657.37,-159.84 2657.29,-152.85"/>
</g>
<!-- Node68 -->
<g id="node32" class="node">
<title>Node68</title>
<g id="a_node32"><a xlink:href="c__dylink_8cpp.html" target="_top" xlink:title=" ">
<polygon fill="white" stroke="#666666" points="602.16,-96 507.16,-96 507.16,-77 602.16,-77 602.16,-96"/>
<text text-anchor="middle" x="554.66" y="-84" font-family="Helvetica,sans-Serif" font-size="10.00">src/c/c_dylink.cpp</text>
</a>
</g>
</g>
<!-- Node5&#45;&gt;Node68 -->
<g id="edge34" class="edge">
<title>Node5&#45;&gt;Node68</title>
<path fill="none" stroke="#63b8ff" d="M2523.72,-156.52C2199.81,-154.01 802.86,-141.29 611.66,-107 599.51,-104.82 586.45,-100.51 575.9,-96.49"/>
<polygon fill="#63b8ff" stroke="#63b8ff" points="2523.69,-160.02 2533.72,-156.59 2523.74,-153.02 2523.69,-160.02"/>
</g>
<!-- Node69 -->
<g id="node33" class="node">
<title>Node69</title>
<g id="a_node33"><a xlink:href="d__a__itembase_8cpp.html" target="_top" xlink:title=" ">
<polygon fill="white" stroke="#666666" points="748.66,-96 620.66,-96 620.66,-77 748.66,-77 748.66,-96"/>
<text text-anchor="middle" x="684.66" y="-84" font-family="Helvetica,sans-Serif" font-size="10.00">src/d/a/d_a_itembase.cpp</text>
</a>
</g>
</g>
<!-- Node5&#45;&gt;Node69 -->
<g id="edge36" class="edge">
<title>Node5&#45;&gt;Node69</title>
<path fill="none" stroke="#63b8ff" d="M2523.75,-156.1C2214.91,-151.83 934.76,-132.71 757.66,-107 742.34,-104.78 725.63,-100.46 712.07,-96.45"/>
<polygon fill="#63b8ff" stroke="#63b8ff" points="2523.61,-159.6 2533.66,-156.24 2523.71,-152.6 2523.61,-159.6"/>
</g>
<!-- Node70 -->
<g id="node34" class="node">
<title>Node70</title>
<g id="a_node34"><a xlink:href="d__a__obj_8cpp.html" target="_top" xlink:title=" ">
<polygon fill="white" stroke="#666666" points="868.16,-96 767.16,-96 767.16,-77 868.16,-77 868.16,-96"/>
<text text-anchor="middle" x="817.66" y="-84" font-family="Helvetica,sans-Serif" font-size="10.00">src/d/a/d_a_obj.cpp</text>
</a>
</g>
</g>
<!-- Node5&#45;&gt;Node70 -->
<g id="edge37" class="edge">
<title>Node5&#45;&gt;Node70</title>
<path fill="none" stroke="#63b8ff" d="M2523.8,-156.17C2227.67,-152.36 1041.64,-135.44 877.66,-107 864.92,-104.79 851.18,-100.48 840.06,-96.47"/>
<polygon fill="#63b8ff" stroke="#63b8ff" points="2523.63,-159.67 2533.67,-156.3 2523.72,-152.67 2523.63,-159.67"/>
</g>
<!-- Node71 -->
<g id="node35" class="node">
<title>Node71</title>
<g id="a_node35"><a xlink:href="d__bg__s_8cpp.html" target="_top" xlink:title=" ">
<polygon fill="white" stroke="#666666" points="990.66,-96 886.66,-96 886.66,-77 990.66,-77 990.66,-96"/>
<text text-anchor="middle" x="938.66" y="-84" font-family="Helvetica,sans-Serif" font-size="10.00">src/d/bg/d_bg_s.cpp</text>
</a>
</g>
</g>
<!-- Node5&#45;&gt;Node71 -->
<g id="edge40" class="edge">
<title>Node5&#45;&gt;Node71</title>
<path fill="none" stroke="#63b8ff" d="M2524.14,-157.37C2261.96,-158.42 1299.72,-158.63 999.66,-107 986.73,-104.78 972.76,-100.46 961.45,-96.45"/>
<polygon fill="#63b8ff" stroke="#63b8ff" points="2523.87,-160.87 2533.85,-157.32 2523.84,-153.87 2523.87,-160.87"/>
</g>
<!-- Node72 -->
<g id="node36" class="node">
<title>Node72</title>
<g id="a_node36"><a xlink:href="d__bg__s__movebg__actor_8cpp.html" target="_top" xlink:title=" ">
<polygon fill="white" stroke="#666666" points="1134.66,-101.5 1008.66,-101.5 1008.66,-71.5 1134.66,-71.5 1134.66,-101.5"/>
<text text-anchor="start" x="1016.66" y="-89.5" font-family="Helvetica,sans-Serif" font-size="10.00">src/d/bg/d_bg_s_movebg</text>
<text text-anchor="middle" x="1071.66" y="-78.5" font-family="Helvetica,sans-Serif" font-size="10.00">_actor.cpp</text>
</a>
</g>
</g>
<!-- Node5&#45;&gt;Node72 -->
<g id="edge41" class="edge">
<title>Node5&#45;&gt;Node72</title>
<path fill="none" stroke="#63b8ff" d="M2524.19,-156.73C2277.58,-155.41 1415.25,-147.91 1143.66,-107 1135.59,-105.78 1127.13,-103.99 1118.96,-101.97"/>
<polygon fill="#63b8ff" stroke="#63b8ff" points="2523.93,-160.23 2533.95,-156.78 2523.97,-153.23 2523.93,-160.23"/>
</g>
<!-- Node73 -->
<g id="node37" class="node">
<title>Node73</title>
<g id="a_node37"><a xlink:href="d__bg__w_8cpp.html" target="_top" xlink:title=" ">
<polygon fill="white" stroke="#666666" points="1260.16,-96 1153.16,-96 1153.16,-77 1260.16,-77 1260.16,-96"/>
<text text-anchor="middle" x="1206.66" y="-84" font-family="Helvetica,sans-Serif" font-size="10.00">src/d/bg/d_bg_w.cpp</text>
</a>
</g>
</g>
<!-- Node5&#45;&gt;Node73 -->
<g id="edge42" class="edge">
<title>Node5&#45;&gt;Node73</title>
<path fill="none" stroke="#63b8ff" d="M2524.2,-156.78C2291.58,-155.67 1514.8,-148.83 1269.66,-107 1256.34,-104.73 1241.91,-100.41 1230.23,-96.41"/>
<polygon fill="#63b8ff" stroke="#63b8ff" points="2523.98,-160.28 2534,-156.83 2524.02,-153.28 2523.98,-160.28"/>
</g>
<!-- Node74 -->
<g id="node38" class="node">
<title>Node74</title>
<g id="a_node38"><a xlink:href="d__cc__s_8cpp.html" target="_top" xlink:title=" ">
<polygon fill="white" stroke="#666666" points="1382.66,-96 1278.66,-96 1278.66,-77 1382.66,-77 1382.66,-96"/>
<text text-anchor="middle" x="1330.66" y="-84" font-family="Helvetica,sans-Serif" font-size="10.00">src/d/cc/d_cc_s.cpp</text>
</a>
</g>
</g>
<!-- Node5&#45;&gt;Node74 -->
<g id="edge43" class="edge">
<title>Node5&#45;&gt;Node74</title>
<path fill="none" stroke="#63b8ff" d="M2524.18,-156.56C2305.79,-154.77 1611.83,-146.05 1391.66,-107 1378.85,-104.73 1365.01,-100.46 1353.75,-96.49"/>
<polygon fill="#63b8ff" stroke="#63b8ff" points="2523.9,-160.06 2533.92,-156.64 2523.95,-153.06 2523.9,-160.06"/>
</g>
<!-- Node75 -->
<g id="node39" class="node">
<title>Node75</title>
<g id="a_node39"><a xlink:href="d__com__static_8cpp.html" target="_top" xlink:title=" ">
<polygon fill="white" stroke="#666666" points="1540.66,-96 1400.66,-96 1400.66,-77 1540.66,-77 1540.66,-96"/>
<text text-anchor="middle" x="1470.66" y="-84" font-family="Helvetica,sans-Serif" font-size="10.00">src/d/com/d_com_static.cpp</text>
</a>
</g>
</g>
<!-- Node5&#45;&gt;Node75 -->
<g id="edge45" class="edge">
<title>Node5&#45;&gt;Node75</title>
<path fill="none" stroke="#63b8ff" d="M2523.87,-155.46C2325.13,-150.6 1739.66,-134.32 1550.66,-107 1534.24,-104.63 1516.28,-100.4 1501.54,-96.49"/>
<polygon fill="#63b8ff" stroke="#63b8ff" points="2523.68,-158.95 2533.77,-155.7 2523.85,-151.96 2523.68,-158.95"/>
</g>
<!-- Node76 -->
<g id="node40" class="node">
<title>Node76</title>
<g id="a_node40"><a xlink:href="d__attention_8cpp.html" target="_top" xlink:title=" ">
<polygon fill="white" stroke="#666666" points="1666.16,-96 1559.16,-96 1559.16,-77 1666.16,-77 1666.16,-96"/>
<text text-anchor="middle" x="1612.66" y="-84" font-family="Helvetica,sans-Serif" font-size="10.00">src/d/d_attention.cpp</text>
</a>
</g>
</g>
<!-- Node5&#45;&gt;Node76 -->
<g id="edge46" class="edge">
<title>Node5&#45;&gt;Node76</title>
<path fill="none" stroke="#63b8ff" d="M2524.14,-155.48C2342.14,-151 1838.74,-136.23 1675.66,-107 1662.47,-104.64 1648.18,-100.36 1636.55,-96.41"/>
<polygon fill="#63b8ff" stroke="#63b8ff" points="2523.8,-158.98 2533.88,-155.72 2523.97,-151.98 2523.8,-158.98"/>
</g>
<!-- Node77 -->
<g id="node41" class="node">
<title>Node77</title>
<g id="a_node41"><a xlink:href="d__cam__param_8cpp.html" target="_top" xlink:title=" ">
<polygon fill="white" stroke="#666666" points="1805.16,-96 1684.16,-96 1684.16,-77 1805.16,-77 1805.16,-96"/>
<text text-anchor="middle" x="1744.66" y="-84" font-family="Helvetica,sans-Serif" font-size="10.00">src/d/d_cam_param.cpp</text>
</a>
</g>
</g>
<!-- Node5&#45;&gt;Node77 -->
<g id="edge47" class="edge">
<title>Node5&#45;&gt;Node77</title>
<path fill="none" stroke="#63b8ff" d="M2523.82,-157.34C2388.8,-156.99 2074.29,-151.04 1814.66,-107 1800.23,-104.55 1784.5,-100.32 1771.62,-96.42"/>
<polygon fill="#63b8ff" stroke="#63b8ff" points="2523.64,-160.83 2533.65,-157.35 2523.65,-153.83 2523.64,-160.83"/>
</g>
<!-- Node78 -->
<g id="node42" class="node">
<title>Node78</title>
<g id="a_node42"><a xlink:href="d__camera_8cpp.html" target="_top" xlink:title=" ">
<polygon fill="white" stroke="#666666" points="1925.66,-96 1823.66,-96 1823.66,-77 1925.66,-77 1925.66,-96"/>
<text text-anchor="middle" x="1874.66" y="-84" font-family="Helvetica,sans-Serif" font-size="10.00">src/d/d_camera.cpp</text>
</a>
</g>
</g>
<!-- Node5&#45;&gt;Node78 -->
<g id="edge48" class="edge">
<title>Node5&#45;&gt;Node78</title>
<path fill="none" stroke="#63b8ff" d="M2523.73,-157.13C2404.27,-156.2 2146.93,-148.96 1934.66,-107 1922.19,-104.54 1908.7,-100.3 1897.68,-96.41"/>
<polygon fill="#63b8ff" stroke="#63b8ff" points="2523.66,-160.63 2533.69,-157.19 2523.71,-153.63 2523.66,-160.63"/>
</g>
<!-- Node79 -->
<g id="node43" class="node">
<title>Node79</title>
<g id="a_node43"><a xlink:href="d__eye__hl_8cpp.html" target="_top" xlink:title=" ">
<polygon fill="white" stroke="#666666" points="2041.66,-96 1943.66,-96 1943.66,-77 2041.66,-77 2041.66,-96"/>
<text text-anchor="middle" x="1992.66" y="-84" font-family="Helvetica,sans-Serif" font-size="10.00">src/d/d_eye_hl.cpp</text>
</a>
</g>
</g>
<!-- Node5&#45;&gt;Node79 -->
<g id="edge50" class="edge">
<title>Node5&#45;&gt;Node79</title>
<path fill="none" stroke="#63b8ff" d="M2523.79,-155.78C2421.02,-152.79 2218.52,-142.49 2050.66,-107 2038.7,-104.47 2025.79,-100.28 2015.18,-96.43"/>
<polygon fill="#63b8ff" stroke="#63b8ff" points="2523.61,-159.27 2533.71,-156.05 2523.81,-152.28 2523.61,-159.27"/>
</g>
<!-- Node80 -->
<g id="node44" class="node">
<title>Node80</title>
<g id="a_node44"><a xlink:href="d__kyeff_8cpp.html" target="_top" xlink:title=" ">
<polygon fill="white" stroke="#666666" points="2149.66,-96 2059.66,-96 2059.66,-77 2149.66,-77 2149.66,-96"/>
<text text-anchor="middle" x="2104.66" y="-84" font-family="Helvetica,sans-Serif" font-size="10.00">src/d/d_kyeff.cpp</text>
</a>
</g>
</g>
<!-- Node5&#45;&gt;Node80 -->
<g id="edge51" class="edge">
<title>Node5&#45;&gt;Node80</title>
<path fill="none" stroke="#63b8ff" d="M2523.86,-153.92C2438.46,-148.92 2286.46,-136.44 2159.66,-107 2148.41,-104.39 2136.27,-100.24 2126.27,-96.43"/>
<polygon fill="#63b8ff" stroke="#63b8ff" points="2523.52,-157.4 2533.7,-154.47 2523.91,-150.41 2523.52,-157.4"/>
</g>
<!-- Node81 -->
<g id="node45" class="node">
<title>Node81</title>
<g id="a_node45"><a xlink:href="d__path_8cpp.html" target="_top" xlink:title=" ">
<polygon fill="white" stroke="#666666" points="2257.16,-96 2168.16,-96 2168.16,-77 2257.16,-77 2257.16,-96"/>
<text text-anchor="middle" x="2212.66" y="-84" font-family="Helvetica,sans-Serif" font-size="10.00">src/d/d_path.cpp</text>
</a>
</g>
</g>
<!-- Node5&#45;&gt;Node81 -->
<g id="edge52" class="edge">
<title>Node5&#45;&gt;Node81</title>
<path fill="none" stroke="#63b8ff" d="M2524.19,-150.55C2458.16,-143.25 2354.37,-129.38 2266.66,-107 2255.84,-104.24 2244.15,-100.16 2234.42,-96.45"/>
<polygon fill="#63b8ff" stroke="#63b8ff" points="2523.43,-153.99 2533.75,-151.59 2524.19,-147.03 2523.43,-153.99"/>
</g>
<!-- Node82 -->
<g id="node46" class="node">
<title>Node82</title>
<g id="a_node46"><a xlink:href="d__resorce_8cpp.html" target="_top" xlink:title=" ">
<polygon fill="white" stroke="#666666" points="2377.66,-96 2275.66,-96 2275.66,-77 2377.66,-77 2377.66,-96"/>
<text text-anchor="middle" x="2326.66" y="-84" font-family="Helvetica,sans-Serif" font-size="10.00">src/d/d_resorce.cpp</text>
</a>
</g>
</g>
<!-- Node5&#45;&gt;Node82 -->
<g id="edge53" class="edge">
<title>Node5&#45;&gt;Node82</title>
<path fill="none" stroke="#63b8ff" d="M2524.42,-142.07C2484.35,-132.72 2432.34,-120 2386.66,-107 2375.49,-103.82 2363.28,-99.93 2352.81,-96.47"/>
<polygon fill="#63b8ff" stroke="#63b8ff" points="2523.38,-145.42 2533.91,-144.28 2524.96,-138.61 2523.38,-145.42"/>
</g>
<!-- Node83 -->
<g id="node47" class="node">
<title>Node83</title>
<g id="a_node47"><a xlink:href="d__simple__model_8cpp.html" target="_top" xlink:title=" ">
<polygon fill="white" stroke="#666666" points="2525.66,-96 2395.66,-96 2395.66,-77 2525.66,-77 2525.66,-96"/>
<text text-anchor="middle" x="2460.66" y="-84" font-family="Helvetica,sans-Serif" font-size="10.00">src/d/d_simple_model.cpp</text>
</a>
</g>
</g>
<!-- Node5&#45;&gt;Node83 -->
<g id="edge54" class="edge">
<title>Node5&#45;&gt;Node83</title>
<path fill="none" stroke="#63b8ff" d="M2553.76,-137.28C2528.59,-123.82 2496.44,-106.63 2477.26,-96.38"/>
<polygon fill="#63b8ff" stroke="#63b8ff" points="2551.92,-140.26 2562.39,-141.89 2555.22,-134.08 2551.92,-140.26"/>
</g>
<!-- Node84 -->
<g id="node48" class="node">
<title>Node84</title>
<g id="a_node48"><a xlink:href="d__stage_8cpp.html" target="_top" xlink:title=" ">
<polygon fill="white" stroke="#666666" points="2637.66,-96 2543.66,-96 2543.66,-77 2637.66,-77 2637.66,-96"/>
<text text-anchor="middle" x="2590.66" y="-84" font-family="Helvetica,sans-Serif" font-size="10.00">src/d/d_stage.cpp</text>
</a>
</g>
</g>
<!-- Node5&#45;&gt;Node84 -->
<g id="edge55" class="edge">
<title>Node5&#45;&gt;Node84</title>
<path fill="none" stroke="#63b8ff" d="M2590.66,-131.46C2590.66,-119.07 2590.66,-104.99 2590.66,-96.18"/>
<polygon fill="#63b8ff" stroke="#63b8ff" points="2587.16,-131.09 2590.66,-141.09 2594.16,-131.09 2587.16,-131.09"/>
</g>
<!-- Node5&#45;&gt;Node97 -->
<g id="edge59" class="edge">
<title>Node5&#45;&gt;Node97</title>
<path fill="none" stroke="#63b8ff" d="M2523.79,-155.99C2159.32,-150.42 424.74,-123.16 312.66,-107 297.53,-104.82 281.05,-100.51 267.68,-96.49"/>
<polygon fill="#63b8ff" stroke="#63b8ff" points="2523.6,-159.49 2533.66,-156.14 2523.71,-152.49 2523.6,-159.49"/>
</g>
<!-- Node6&#45;&gt;Node11 -->
<g id="edge6" class="edge">
<title>Node6&#45;&gt;Node11</title>
<path fill="none" stroke="#63b8ff" d="M3587.83,-68.58C3576.86,-56.85 3562.4,-41.39 3552.01,-30.27"/>
<polygon fill="#63b8ff" stroke="#63b8ff" points="3585,-70.68 3594.39,-75.59 3590.12,-65.9 3585,-70.68"/>
</g>
<!-- Node18&#45;&gt;Node15 -->
<g id="edge9" class="edge">
<title>Node18&#45;&gt;Node15</title>
<path fill="none" stroke="#63b8ff" d="M449.73,-74.09C464.93,-70.88 481.92,-67.78 497.66,-66 934.66,-16.62 2359.14,-15.57 2656.1,-15.9"/>
<polygon fill="#63b8ff" stroke="#63b8ff" points="449,-70.67 439.98,-76.23 450.5,-77.51 449,-70.67"/>
</g>
<!-- Node18&#45;&gt;Node19 -->
<g id="edge10" class="edge">
<title>Node18&#45;&gt;Node19</title>
<path fill="none" stroke="#63b8ff" d="M384.95,-69.31C369.84,-55.49 348.68,-36.14 336.44,-24.95"/>
<polygon fill="#63b8ff" stroke="#63b8ff" points="382.17,-71.51 391.91,-75.68 386.9,-66.35 382.17,-71.51"/>
</g>
<!-- Node18&#45;&gt;Node20 -->
<g id="edge11" class="edge">
<title>Node18&#45;&gt;Node20</title>
<path fill="none" stroke="#63b8ff" d="M417.31,-68.24C427.24,-56.54 440.2,-41.28 449.54,-30.27"/>
<polygon fill="#63b8ff" stroke="#63b8ff" points="414.91,-65.66 411.11,-75.54 420.25,-70.19 414.91,-65.66"/>
</g>
<!-- Node18&#45;&gt;Node21 -->
<g id="edge12" class="edge">
<title>Node18&#45;&gt;Node21</title>
<path fill="none" stroke="#63b8ff" d="M350.72,-74.18C287.65,-60.44 182.56,-37.55 124.8,-24.96"/>
<polygon fill="#63b8ff" stroke="#63b8ff" points="349.61,-77.53 360.13,-76.23 351.1,-70.69 349.61,-77.53"/>
</g>
<!-- Node35&#45;&gt;Node3 -->
<g id="edge19" class="edge">
<title>Node35&#45;&gt;Node3</title>
<path fill="none" stroke="#63b8ff" d="M139.59,-99.33C150.61,-102.15 162.52,-104.93 173.66,-107 421.34,-153.08 485.73,-150.45 736.66,-173 1419.29,-234.35 2250.06,-267.27 2483.79,-275.76"/>
<polygon fill="#63b8ff" stroke="#63b8ff" points="140.53,-95.96 129.97,-96.8 138.75,-102.73 140.53,-95.96"/>
</g>
<!-- Node37&#45;&gt;Node11 -->
<g id="edge24" class="edge">
<title>Node37&#45;&gt;Node11</title>
<path fill="none" stroke="#63b8ff" d="M3137.1,-68.21C3140.32,-67.41 3143.52,-66.67 3146.66,-66 3265.28,-40.82 3406.96,-26.58 3483.32,-20.17"/>
<polygon fill="#63b8ff" stroke="#63b8ff" points="3136.4,-64.77 3127.63,-70.71 3138.19,-71.54 3136.4,-64.77"/>
</g>
<!-- Node37&#45;&gt;Node15 -->
<g id="edge21" class="edge">
<title>Node37&#45;&gt;Node15</title>
<path fill="none" stroke="#63b8ff" d="M3026.1,-68.08C3023.26,-67.34 3020.43,-66.64 3017.66,-66 2930.35,-45.69 2827.18,-30.69 2765.44,-22.66"/>
<polygon fill="#63b8ff" stroke="#63b8ff" points="3025.08,-71.43 3035.64,-70.69 3026.92,-64.68 3025.08,-71.43"/>
</g>
<!-- Node37&#45;&gt;Node42 -->
<g id="edge22" class="edge">
<title>Node37&#45;&gt;Node42</title>
<path fill="none" stroke="#63b8ff" d="M3027.97,-67.39C2987.54,-53.75 2933.85,-35.63 2902.2,-24.96"/>
<polygon fill="#63b8ff" stroke="#63b8ff" points="3026.69,-70.65 3037.29,-70.53 3028.93,-64.02 3026.69,-70.65"/>
</g>
<!-- Node37&#45;&gt;Node46 -->
<g id="edge23" class="edge">
<title>Node37&#45;&gt;Node46</title>
<path fill="none" stroke="#63b8ff" d="M3134.96,-68.3C3138.89,-67.4 3142.82,-66.62 3146.66,-66 3311.21,-39.43 4485.6,-21.49 4804.77,-17.06"/>
<polygon fill="#63b8ff" stroke="#63b8ff" points="3134.25,-64.87 3125.41,-70.71 3135.96,-71.66 3134.25,-64.87"/>
</g>
<!-- Node37&#45;&gt;Node47 -->
<g id="edge25" class="edge">
<title>Node37&#45;&gt;Node47</title>
<path fill="none" stroke="#63b8ff" d="M3081.66,-59.76C3081.66,-49.83 3081.66,-38.86 3081.66,-30.38"/>
<polygon fill="#63b8ff" stroke="#63b8ff" points="3078.16,-59.59 3081.66,-69.59 3085.16,-59.59 3078.16,-59.59"/>
</g>
<!-- Node64&#45;&gt;Node65 -->
<g id="edge31" class="edge">
<title>Node64&#45;&gt;Node65</title>
<path fill="none" stroke="#63b8ff" d="M3758.8,-61.49C3750.91,-48.74 3741.7,-33.86 3736.03,-24.68"/>
<polygon fill="#63b8ff" stroke="#63b8ff" points="3755.71,-63.15 3763.95,-69.81 3761.67,-59.47 3755.71,-63.15"/>
</g>
</g>
</svg>
