<?xml version="1.0" encoding="UTF-8" standalone="no"?>
<!DOCTYPE svg PUBLIC "-//W3C//DTD SVG 1.1//EN"
 "http://www.w3.org/Graphics/SVG/1.1/DTD/svg11.dtd">
<!-- Generated by graphviz version 3.0.0 (20220413.0242)
 -->
<!-- Title: include/d/particle/d_particle_name.h Pages: 1 -->
<svg width="4940pt" height="385pt"
 viewBox="0.00 0.00 4940.12 385.00" xmlns="http://www.w3.org/2000/svg" xmlns:xlink="http://www.w3.org/1999/xlink">
<g id="graph0" class="graph" transform="scale(1 1) rotate(0) translate(4 381)">
<title>include/d/particle/d_particle_name.h</title>
<polygon fill="white" stroke="transparent" points="-4,4 -4,-381 4936.12,-381 4936.12,4 -4,4"/>
<!-- Node1 -->
<g id="node1" class="node">
<title>Node1</title>
<g id="a_node1"><a xlink:title=" ">
<polygon fill="#bfbfbf" stroke="black" points="3603,-346.5 3603,-376.5 3701,-376.5 3701,-346.5 3603,-346.5"/>
<text text-anchor="start" x="3611" y="-364.5" font-family="Helvetica,sans-Serif" font-size="10.00">include/d/particle</text>
<text text-anchor="middle" x="3652" y="-353.5" font-family="Helvetica,sans-Serif" font-size="10.00">/d_particle_name.h</text>
</a>
</g>
</g>
<!-- Node2 -->
<g id="node2" class="node">
<title>Node2</title>
<g id="a_node2"><a xlink:href="d__particle_8h.html" target="_top" xlink:title=" ">
<polygon fill="white" stroke="black" points="3546,-279.5 3546,-309.5 3636,-309.5 3636,-279.5 3546,-279.5"/>
<text text-anchor="start" x="3554" y="-297.5" font-family="Helvetica,sans-Serif" font-size="10.00">include/d/particle</text>
<text text-anchor="middle" x="3591" y="-286.5" font-family="Helvetica,sans-Serif" font-size="10.00">/d_particle.h</text>
</a>
</g>
</g>
<!-- Node1&#45;&gt;Node2 -->
<g id="edge1" class="edge">
<title>Node1&#45;&gt;Node2</title>
<path fill="none" stroke="midnightblue" d="M3631.85,-339.02C3622.76,-329.34 3612.28,-318.17 3604.21,-309.58"/>
<polygon fill="midnightblue" stroke="midnightblue" points="3629.37,-341.5 3638.76,-346.4 3634.47,-336.71 3629.37,-341.5"/>
</g>
<!-- Node106 -->
<g id="node50" class="node">
<title>Node106</title>
<g id="a_node50"><a xlink:href="d__particle__name_8cpp.html" target="_top" xlink:title=" ">
<polygon fill="white" stroke="black" points="3654,-279.5 3654,-309.5 3772,-309.5 3772,-279.5 3654,-279.5"/>
<text text-anchor="start" x="3662" y="-297.5" font-family="Helvetica,sans-Serif" font-size="10.00">src/d/particle/d_particle</text>
<text text-anchor="middle" x="3713" y="-286.5" font-family="Helvetica,sans-Serif" font-size="10.00">_name.cpp</text>
</a>
</g>
</g>
<!-- Node1&#45;&gt;Node106 -->
<g id="edge60" class="edge">
<title>Node1&#45;&gt;Node106</title>
<path fill="none" stroke="midnightblue" d="M3672.15,-339.02C3681.24,-329.34 3691.72,-318.17 3699.79,-309.58"/>
<polygon fill="midnightblue" stroke="midnightblue" points="3669.53,-336.71 3665.24,-346.4 3674.63,-341.5 3669.53,-336.71"/>
</g>
<!-- Node3 -->
<g id="node3" class="node">
<title>Node3</title>
<g id="a_node3"><a xlink:href="d__a__alink_8h.html" target="_top" xlink:title=" ">
<polygon fill="white" stroke="black" points="2330,-218 2330,-237 2446,-237 2446,-218 2330,-218"/>
<text text-anchor="middle" x="2388" y="-225" font-family="Helvetica,sans-Serif" font-size="10.00">include/d/a/d_a_alink.h</text>
</a>
</g>
</g>
<!-- Node2&#45;&gt;Node3 -->
<g id="edge2" class="edge">
<title>Node2&#45;&gt;Node3</title>
<path fill="none" stroke="midnightblue" d="M3535.68,-290.51C3335.58,-279.7 2650.49,-242.68 2446.05,-231.64"/>
<polygon fill="midnightblue" stroke="midnightblue" points="3535.5,-294.01 3545.67,-291.05 3535.88,-287.02 3535.5,-294.01"/>
</g>
<!-- Node4 -->
<g id="node4" class="node">
<title>Node4</title>
<g id="a_node4"><a xlink:href="d__com__inf__game_8h.html" target="_top" xlink:title=" ">
<polygon fill="white" stroke="red" points="2333,-145.5 2333,-175.5 2443,-175.5 2443,-145.5 2333,-145.5"/>
<text text-anchor="start" x="2341" y="-163.5" font-family="Helvetica,sans-Serif" font-size="10.00">include/d/com/d_com</text>
<text text-anchor="middle" x="2388" y="-152.5" font-family="Helvetica,sans-Serif" font-size="10.00">_inf_game.h</text>
</a>
</g>
</g>
<!-- Node2&#45;&gt;Node4 -->
<g id="edge58" class="edge">
<title>Node2&#45;&gt;Node4</title>
<path fill="none" stroke="midnightblue" d="M3535.63,-287.42C3334.54,-265.36 2644.05,-189.6 2443.21,-167.56"/>
<polygon fill="midnightblue" stroke="midnightblue" points="3535.35,-290.91 3545.67,-288.53 3536.12,-283.96 3535.35,-290.91"/>
</g>
<!-- Node91 -->
<g id="node46" class="node">
<title>Node91</title>
<g id="a_node46"><a xlink:href="d__particle_8cpp.html" target="_top" xlink:title=" ">
<polygon fill="white" stroke="black" points="4779,-78.5 4779,-97.5 4915,-97.5 4915,-78.5 4779,-78.5"/>
<text text-anchor="middle" x="4847" y="-85.5" font-family="Helvetica,sans-Serif" font-size="10.00">src/d/particle/d_particle.cpp</text>
</a>
</g>
</g>
<!-- Node2&#45;&gt;Node91 -->
<g id="edge59" class="edge">
<title>Node2&#45;&gt;Node91</title>
<path fill="none" stroke="midnightblue" d="M3645.83,-278.93C4002.88,-201.77 4096.44,-195.9 4454,-145 4587.82,-125.95 4622.72,-131.53 4756,-109 4774.5,-105.87 4794.92,-101.47 4811.72,-97.6"/>
<polygon fill="midnightblue" stroke="midnightblue" points="3645.03,-275.53 3636,-281.06 3646.51,-282.37 3645.03,-275.53"/>
</g>
<!-- Node103 -->
<g id="node47" class="node">
<title>Node103</title>
<g id="a_node47"><a xlink:href="d__a__item__static_8h.html" target="_top" xlink:title=" ">
<polygon fill="white" stroke="black" points="4477.5,-212.5 4477.5,-242.5 4584.5,-242.5 4584.5,-212.5 4477.5,-212.5"/>
<text text-anchor="start" x="4485.5" y="-230.5" font-family="Helvetica,sans-Serif" font-size="10.00">include/d/a/d_a_item</text>
<text text-anchor="middle" x="4531" y="-219.5" font-family="Helvetica,sans-Serif" font-size="10.00">_static.h</text>
</a>
</g>
</g>
<!-- Node2&#45;&gt;Node103 -->
<g id="edge54" class="edge">
<title>Node2&#45;&gt;Node103</title>
<path fill="none" stroke="midnightblue" d="M3646.46,-279.16C3763.31,-264.11 4303.88,-238.81 4477.33,-230.92"/>
<polygon fill="midnightblue" stroke="midnightblue" points="3645.63,-275.75 3636.23,-280.63 3646.62,-282.68 3645.63,-275.75"/>
</g>
<!-- Node3&#45;&gt;Node4 -->
<g id="edge3" class="edge">
<title>Node3&#45;&gt;Node4</title>
<path fill="none" stroke="midnightblue" d="M2388,-207.41C2388,-197.22 2388,-184.9 2388,-175.59"/>
<polygon fill="midnightblue" stroke="midnightblue" points="2384.5,-207.73 2388,-217.73 2391.5,-207.73 2384.5,-207.73"/>
</g>
<!-- Node14 -->
<g id="node8" class="node">
<title>Node14</title>
<g id="a_node8"><a xlink:href="d__a__alink_8cpp.html" target="_top" xlink:title=" ">
<polygon fill="white" stroke="black" points="372.5,-6 372.5,-25 481.5,-25 481.5,-6 372.5,-6"/>
<text text-anchor="middle" x="427" y="-13" font-family="Helvetica,sans-Serif" font-size="10.00">src/d/a/d_a_alink.cpp</text>
</a>
</g>
</g>
<!-- Node3&#45;&gt;Node14 -->
<g id="edge53" class="edge">
<title>Node3&#45;&gt;Node14</title>
<path fill="none" stroke="midnightblue" d="M2319.96,-225.1C1977.15,-217.72 452.86,-180.95 385,-109 361.28,-83.85 398.5,-42.99 417.25,-25.22"/>
<polygon fill="midnightblue" stroke="midnightblue" points="2319.92,-228.6 2330,-225.31 2320.07,-221.6 2319.92,-228.6"/>
</g>
<!-- Node5 -->
<g id="node5" class="node">
<title>Node5</title>
<g id="a_node5"><a xlink:href="d__a__npc_8h.html" target="_top" xlink:title=" ">
<polygon fill="white" stroke="red" points="406.5,-78.5 406.5,-97.5 517.5,-97.5 517.5,-78.5 406.5,-78.5"/>
<text text-anchor="middle" x="462" y="-85.5" font-family="Helvetica,sans-Serif" font-size="10.00">include/d/a/d_a_npc.h</text>
</a>
</g>
</g>
<!-- Node4&#45;&gt;Node5 -->
<g id="edge4" class="edge">
<title>Node4&#45;&gt;Node5</title>
<path fill="none" stroke="midnightblue" d="M2322.42,-158.79C2012.9,-155.31 705.78,-138.94 526,-109 511.76,-106.63 496.3,-101.86 484.14,-97.58"/>
<polygon fill="midnightblue" stroke="midnightblue" points="2322.53,-162.29 2332.57,-158.91 2322.61,-155.29 2322.53,-162.29"/>
</g>
<!-- Node11 -->
<g id="node6" class="node">
<title>Node11</title>
<g id="a_node6"><a xlink:href="d__cc__uty_8h.html" target="_top" xlink:title=" ">
<polygon fill="white" stroke="red" points="4603.5,-78.5 4603.5,-97.5 4722.5,-97.5 4722.5,-78.5 4603.5,-78.5"/>
<text text-anchor="middle" x="4663" y="-85.5" font-family="Helvetica,sans-Serif" font-size="10.00">include/d/cc/d_cc_uty.h</text>
</a>
</g>
</g>
<!-- Node4&#45;&gt;Node11 -->
<g id="edge5" class="edge">
<title>Node4&#45;&gt;Node11</title>
<path fill="none" stroke="midnightblue" d="M2453.32,-159.01C2795.93,-156.32 4378.1,-142.18 4594,-109 4609.29,-106.65 4625.95,-101.88 4639.08,-97.59"/>
<polygon fill="midnightblue" stroke="midnightblue" points="2453.04,-155.51 2443.07,-159.09 2453.1,-162.51 2453.04,-155.51"/>
</g>
<!-- Node13 -->
<g id="node7" class="node">
<title>Node13</title>
<g id="a_node7"><a xlink:href="d__item_8h.html" target="_top" xlink:title=" ">
<polygon fill="white" stroke="red" points="535.5,-78.5 535.5,-97.5 630.5,-97.5 630.5,-78.5 535.5,-78.5"/>
<text text-anchor="middle" x="583" y="-85.5" font-family="Helvetica,sans-Serif" font-size="10.00">include/d/d_item.h</text>
</a>
</g>
</g>
<!-- Node4&#45;&gt;Node13 -->
<g id="edge6" class="edge">
<title>Node4&#45;&gt;Node13</title>
<path fill="none" stroke="midnightblue" d="M2322.79,-158.7C2026.26,-154.93 812.42,-137.83 645,-109 631.18,-106.62 616.2,-101.85 604.43,-97.57"/>
<polygon fill="midnightblue" stroke="midnightblue" points="2322.9,-162.2 2332.94,-158.83 2322.99,-155.2 2322.9,-162.2"/>
</g>
<!-- Node4&#45;&gt;Node14 -->
<g id="edge29" class="edge">
<title>Node4&#45;&gt;Node14</title>
<path fill="none" stroke="midnightblue" d="M2322.77,-159.08C1983.14,-156.77 431.39,-144.27 397,-109 373.78,-85.19 404.06,-43.25 419.25,-25.18"/>
<polygon fill="midnightblue" stroke="midnightblue" points="2322.91,-162.59 2332.93,-159.15 2322.96,-155.59 2322.91,-162.59"/>
</g>
<!-- Node15 -->
<g id="node9" class="node">
<title>Node15</title>
<g id="a_node9"><a xlink:href="d__a__obj__item_8cpp.html" target="_top" xlink:title=" ">
<polygon fill="white" stroke="black" points="4688.5,-6 4688.5,-25 4813.5,-25 4813.5,-6 4688.5,-6"/>
<text text-anchor="middle" x="4751" y="-13" font-family="Helvetica,sans-Serif" font-size="10.00">src/d/a/d_a_obj_item.cpp</text>
</a>
</g>
</g>
<!-- Node4&#45;&gt;Node15 -->
<g id="edge31" class="edge">
<title>Node4&#45;&gt;Node15</title>
<path fill="none" stroke="midnightblue" d="M2453.16,-159.21C2827.28,-157.39 4687.01,-146.5 4732,-109 4757.06,-88.11 4754.64,-43.8 4752.32,-25.11"/>
<polygon fill="midnightblue" stroke="midnightblue" points="2453.03,-155.71 2443.04,-159.26 2453.06,-162.71 2453.03,-155.71"/>
</g>
<!-- Node16 -->
<g id="node10" class="node">
<title>Node16</title>
<g id="a_node10"><a xlink:href="d__com__inf__game_8cpp.html" target="_top" xlink:title=" ">
<polygon fill="white" stroke="black" points="571,-0.5 571,-30.5 679,-30.5 679,-0.5 571,-0.5"/>
<text text-anchor="start" x="579" y="-18.5" font-family="Helvetica,sans-Serif" font-size="10.00">src/d/com/d_com_inf</text>
<text text-anchor="middle" x="625" y="-7.5" font-family="Helvetica,sans-Serif" font-size="10.00">_game.cpp</text>
</a>
</g>
</g>
<!-- Node4&#45;&gt;Node16 -->
<g id="edge37" class="edge">
<title>Node4&#45;&gt;Node16</title>
<path fill="none" stroke="midnightblue" d="M2322.33,-159.35C2017.2,-158.42 749.67,-151.96 678,-109 648.95,-91.59 634.35,-51.8 628.38,-30.53"/>
<polygon fill="midnightblue" stroke="midnightblue" points="2322.76,-162.85 2332.77,-159.38 2322.79,-155.85 2322.76,-162.85"/>
</g>
<!-- Node19 -->
<g id="node11" class="node">
<title>Node19</title>
<g id="a_node11"><a xlink:href="d__kantera__icon__meter_8h.html" target="_top" xlink:title=" ">
<polygon fill="white" stroke="red" points="687.5,-73 687.5,-103 788.5,-103 788.5,-73 687.5,-73"/>
<text text-anchor="start" x="695.5" y="-91" font-family="Helvetica,sans-Serif" font-size="10.00">include/d/d_kantera</text>
<text text-anchor="middle" x="738" y="-80" font-family="Helvetica,sans-Serif" font-size="10.00">_icon_meter.h</text>
</a>
</g>
</g>
<!-- Node4&#45;&gt;Node19 -->
<g id="edge10" class="edge">
<title>Node4&#45;&gt;Node19</title>
<path fill="none" stroke="midnightblue" d="M2322.57,-158.56C2042.07,-154.38 948.51,-136.46 797,-109 789.44,-107.63 781.54,-105.48 774.06,-103.09"/>
<polygon fill="midnightblue" stroke="midnightblue" points="2322.55,-162.06 2332.6,-158.71 2322.65,-155.06 2322.55,-162.06"/>
</g>
<!-- Node22 -->
<g id="node12" class="node">
<title>Node22</title>
<g id="a_node12"><a xlink:href="d__model_8h.html" target="_top" xlink:title=" ">
<polygon fill="white" stroke="red" points="806.5,-78.5 806.5,-97.5 909.5,-97.5 909.5,-78.5 806.5,-78.5"/>
<text text-anchor="middle" x="858" y="-85.5" font-family="Helvetica,sans-Serif" font-size="10.00">include/d/d_model.h</text>
</a>
</g>
</g>
<!-- Node4&#45;&gt;Node22 -->
<g id="edge11" class="edge">
<title>Node4&#45;&gt;Node22</title>
<path fill="none" stroke="midnightblue" d="M2322.35,-159.74C2074.16,-160.27 1193.33,-158.55 918,-109 904.6,-106.59 890.1,-101.82 878.72,-97.55"/>
<polygon fill="midnightblue" stroke="midnightblue" points="2322.66,-163.24 2332.65,-159.72 2322.64,-156.24 2322.66,-163.24"/>
</g>
<!-- Node24 -->
<g id="node13" class="node">
<title>Node24</title>
<g id="a_node13"><a xlink:href="d__name_8h.html" target="_top" xlink:title=" ">
<polygon fill="white" stroke="red" points="927.5,-78.5 927.5,-97.5 1028.5,-97.5 1028.5,-78.5 927.5,-78.5"/>
<text text-anchor="middle" x="978" y="-85.5" font-family="Helvetica,sans-Serif" font-size="10.00">include/d/d_name.h</text>
</a>
</g>
</g>
<!-- Node4&#45;&gt;Node24 -->
<g id="edge12" class="edge">
<title>Node4&#45;&gt;Node24</title>
<path fill="none" stroke="midnightblue" d="M2322.66,-159.51C2088.08,-159.16 1288.98,-154.56 1038,-109 1024.6,-106.57 1010.11,-101.8 998.72,-97.53"/>
<polygon fill="midnightblue" stroke="midnightblue" points="2322.74,-163.01 2332.75,-159.52 2322.75,-156.01 2322.74,-163.01"/>
</g>
<!-- Node26 -->
<g id="node14" class="node">
<title>Node26</title>
<g id="a_node14"><a xlink:href="d__file__sel__info_8h.html" target="_top" xlink:title=" ">
<polygon fill="white" stroke="red" points="1047,-73 1047,-103 1143,-103 1143,-73 1047,-73"/>
<text text-anchor="start" x="1055" y="-91" font-family="Helvetica,sans-Serif" font-size="10.00">include/d/file/d_file</text>
<text text-anchor="middle" x="1095" y="-80" font-family="Helvetica,sans-Serif" font-size="10.00">_sel_info.h</text>
</a>
</g>
</g>
<!-- Node4&#45;&gt;Node26 -->
<g id="edge13" class="edge">
<title>Node4&#45;&gt;Node26</title>
<path fill="none" stroke="midnightblue" d="M2322.67,-159.38C2101.11,-158.56 1379.49,-152.55 1152,-109 1144.69,-107.6 1137.05,-105.44 1129.82,-103.04"/>
<polygon fill="midnightblue" stroke="midnightblue" points="2322.83,-162.88 2332.84,-159.41 2322.85,-155.88 2322.83,-162.88"/>
</g>
<!-- Node29 -->
<g id="node15" class="node">
<title>Node29</title>
<g id="a_node15"><a xlink:href="d__file__sel__warning_8h.html" target="_top" xlink:title=" ">
<polygon fill="white" stroke="red" points="1161,-73 1161,-103 1257,-103 1257,-73 1161,-73"/>
<text text-anchor="start" x="1169" y="-91" font-family="Helvetica,sans-Serif" font-size="10.00">include/d/file/d_file</text>
<text text-anchor="middle" x="1209" y="-80" font-family="Helvetica,sans-Serif" font-size="10.00">_sel_warning.h</text>
</a>
</g>
</g>
<!-- Node4&#45;&gt;Node29 -->
<g id="edge14" class="edge">
<title>Node4&#45;&gt;Node29</title>
<path fill="none" stroke="midnightblue" d="M2322.81,-159.06C2115.1,-157.27 1470.49,-148.59 1266,-109 1258.69,-107.58 1251.05,-105.42 1243.83,-103.02"/>
<polygon fill="midnightblue" stroke="midnightblue" points="2322.93,-162.56 2332.95,-159.15 2322.98,-155.56 2322.93,-162.56"/>
</g>
<!-- Node31 -->
<g id="node16" class="node">
<title>Node31</title>
<g id="a_node16"><a xlink:href="d__meter2_8h.html" target="_top" xlink:title=" ">
<polygon fill="white" stroke="red" points="1275,-78.5 1275,-97.5 1409,-97.5 1409,-78.5 1275,-78.5"/>
<text text-anchor="middle" x="1342" y="-85.5" font-family="Helvetica,sans-Serif" font-size="10.00">include/d/meter/d_meter2.h</text>
</a>
</g>
</g>
<!-- Node4&#45;&gt;Node31 -->
<g id="edge15" class="edge">
<title>Node4&#45;&gt;Node31</title>
<path fill="none" stroke="midnightblue" d="M2322.93,-157.85C2134.92,-152.83 1593.16,-136.31 1418,-109 1401.55,-106.44 1383.52,-101.77 1369.15,-97.59"/>
<polygon fill="midnightblue" stroke="midnightblue" points="2322.86,-161.35 2332.95,-158.12 2323.04,-154.36 2322.86,-161.35"/>
</g>
<!-- Node38 -->
<g id="node17" class="node">
<title>Node38</title>
<g id="a_node17"><a xlink:href="d__msg__object_8h.html" target="_top" xlink:title=" ">
<polygon fill="white" stroke="red" points="164,-73 164,-103 274,-103 274,-73 164,-73"/>
<text text-anchor="start" x="172" y="-91" font-family="Helvetica,sans-Serif" font-size="10.00">include/d/msg/d_msg</text>
<text text-anchor="middle" x="219" y="-80" font-family="Helvetica,sans-Serif" font-size="10.00">_object.h</text>
</a>
</g>
</g>
<!-- Node4&#45;&gt;Node38 -->
<g id="edge16" class="edge">
<title>Node4&#45;&gt;Node38</title>
<path fill="none" stroke="midnightblue" d="M2322.52,-159.31C2016.67,-158.2 726.77,-151.09 326,-109 308.99,-107.21 290.64,-104.19 274.01,-101.03"/>
<polygon fill="midnightblue" stroke="midnightblue" points="2322.54,-162.81 2332.56,-159.35 2322.57,-155.81 2322.54,-162.81"/>
</g>
<!-- Node43 -->
<g id="node18" class="node">
<title>Node43</title>
<g id="a_node18"><a xlink:href="d__demo_8cpp.html" target="_top" xlink:title=" ">
<polygon fill="white" stroke="black" points="0,-6 0,-25 94,-25 94,-6 0,-6"/>
<text text-anchor="middle" x="47" y="-13" font-family="Helvetica,sans-Serif" font-size="10.00">src/d/d_demo.cpp</text>
</a>
</g>
</g>
<!-- Node4&#45;&gt;Node43 -->
<g id="edge41" class="edge">
<title>Node4&#45;&gt;Node43</title>
<path fill="none" stroke="midnightblue" d="M2322.59,-159.38C1963.59,-158.53 245.03,-152.23 142,-109 99.55,-91.19 65.44,-44.75 52.55,-25.29"/>
<polygon fill="midnightblue" stroke="midnightblue" points="2322.8,-162.88 2332.81,-159.4 2322.82,-155.88 2322.8,-162.88"/>
</g>
<!-- Node44 -->
<g id="node19" class="node">
<title>Node44</title>
<g id="a_node19"><a xlink:href="d__event_8cpp.html" target="_top" xlink:title=" ">
<polygon fill="white" stroke="black" points="112.5,-6 112.5,-25 233.5,-25 233.5,-6 112.5,-6"/>
<text text-anchor="middle" x="173" y="-13" font-family="Helvetica,sans-Serif" font-size="10.00">src/d/event/d_event.cpp</text>
</a>
</g>
</g>
<!-- Node4&#45;&gt;Node44 -->
<g id="edge50" class="edge">
<title>Node4&#45;&gt;Node44</title>
<path fill="none" stroke="midnightblue" d="M2322.63,-159.27C1958.34,-157.82 193.89,-148.78 155,-109 132.35,-85.84 155.51,-43.17 167.16,-25.03"/>
<polygon fill="midnightblue" stroke="midnightblue" points="2322.73,-162.77 2332.74,-159.31 2322.76,-155.77 2322.73,-162.77"/>
</g>
<!-- Node45 -->
<g id="node20" class="node">
<title>Node45</title>
<g id="a_node20"><a xlink:href="d__event__data_8cpp.html" target="_top" xlink:title=" ">
<polygon fill="white" stroke="black" points="251.5,-0.5 251.5,-30.5 354.5,-30.5 354.5,-0.5 251.5,-0.5"/>
<text text-anchor="start" x="259.5" y="-18.5" font-family="Helvetica,sans-Serif" font-size="10.00">src/d/event/d_event</text>
<text text-anchor="middle" x="303" y="-7.5" font-family="Helvetica,sans-Serif" font-size="10.00">_data.cpp</text>
</a>
</g>
</g>
<!-- Node4&#45;&gt;Node45 -->
<g id="edge51" class="edge">
<title>Node4&#45;&gt;Node45</title>
<path fill="none" stroke="midnightblue" d="M2322.74,-159.31C1987.88,-158.18 474.73,-150.73 385,-109 349.39,-92.44 322.79,-52.29 310.51,-30.73"/>
<polygon fill="midnightblue" stroke="midnightblue" points="2322.75,-162.81 2332.77,-159.35 2322.78,-155.81 2322.75,-162.81"/>
</g>
<!-- Node52 -->
<g id="node21" class="node">
<title>Node52</title>
<g id="a_node21"><a xlink:href="d__s__logo_8h.html" target="_top" xlink:title=" ">
<polygon fill="white" stroke="red" points="1427.5,-78.5 1427.5,-97.5 1540.5,-97.5 1540.5,-78.5 1427.5,-78.5"/>
<text text-anchor="middle" x="1484" y="-85.5" font-family="Helvetica,sans-Serif" font-size="10.00">include/d/s/d_s_logo.h</text>
</a>
</g>
</g>
<!-- Node4&#45;&gt;Node52 -->
<g id="edge21" class="edge">
<title>Node4&#45;&gt;Node52</title>
<path fill="none" stroke="midnightblue" d="M2322.73,-157.58C2152.38,-152.26 1697.27,-135.88 1549,-109 1534.83,-106.43 1519.4,-101.77 1507.13,-97.59"/>
<polygon fill="midnightblue" stroke="midnightblue" points="2322.71,-161.08 2332.81,-157.89 2322.92,-154.09 2322.71,-161.08"/>
</g>
<!-- Node54 -->
<g id="node22" class="node">
<title>Node54</title>
<g id="a_node22"><a xlink:href="d__s__play_8h.html" target="_top" xlink:title=" ">
<polygon fill="white" stroke="red" points="1558.5,-78.5 1558.5,-97.5 1671.5,-97.5 1671.5,-78.5 1558.5,-78.5"/>
<text text-anchor="middle" x="1615" y="-85.5" font-family="Helvetica,sans-Serif" font-size="10.00">include/d/s/d_s_play.h</text>
</a>
</g>
</g>
<!-- Node4&#45;&gt;Node54 -->
<g id="edge22" class="edge">
<title>Node4&#45;&gt;Node54</title>
<path fill="none" stroke="midnightblue" d="M2322.61,-159.77C2196.97,-159.21 1913.57,-152.68 1680,-109 1665.84,-106.35 1650.42,-101.69 1638.15,-97.53"/>
<polygon fill="midnightblue" stroke="midnightblue" points="2322.82,-163.27 2332.83,-159.81 2322.84,-156.27 2322.82,-163.27"/>
</g>
<!-- Node58 -->
<g id="node23" class="node">
<title>Node58</title>
<g id="a_node23"><a xlink:href="d__msg__scrn__base_8h.html" target="_top" xlink:title=" ">
<polygon fill="white" stroke="red" points="1689.5,-73 1689.5,-103 1788.5,-103 1788.5,-73 1689.5,-73"/>
<text text-anchor="start" x="1697.5" y="-91" font-family="Helvetica,sans-Serif" font-size="10.00">include/msg/scrn/d</text>
<text text-anchor="middle" x="1739" y="-80" font-family="Helvetica,sans-Serif" font-size="10.00">_msg_scrn_base.h</text>
</a>
</g>
</g>
<!-- Node4&#45;&gt;Node58 -->
<g id="edge23" class="edge">
<title>Node4&#45;&gt;Node58</title>
<path fill="none" stroke="midnightblue" d="M2322.49,-159.15C2212.64,-157.4 1984.87,-148.78 1797,-109 1789.91,-107.5 1782.5,-105.39 1775.43,-103.09"/>
<polygon fill="midnightblue" stroke="midnightblue" points="2322.7,-162.65 2332.75,-159.3 2322.8,-155.65 2322.7,-162.65"/>
</g>
<!-- Node62 -->
<g id="node24" class="node">
<title>Node62</title>
<g id="a_node24"><a xlink:href="d__a__b__zant_8h.html" target="_top" xlink:title=" ">
<polygon fill="white" stroke="black" points="1806.5,-73 1806.5,-103 1927.5,-103 1927.5,-73 1806.5,-73"/>
<text text-anchor="start" x="1814.5" y="-91" font-family="Helvetica,sans-Serif" font-size="10.00">include/rel/d/a/b/d</text>
<text text-anchor="middle" x="1867" y="-80" font-family="Helvetica,sans-Serif" font-size="10.00">_a_b_zant/d_a_b_zant.h</text>
</a>
</g>
</g>
<!-- Node4&#45;&gt;Node62 -->
<g id="edge24" class="edge">
<title>Node4&#45;&gt;Node62</title>
<path fill="none" stroke="midnightblue" d="M2322.58,-155.61C2234.36,-149.58 2072.69,-135.79 1937,-109 1928.82,-107.38 1920.2,-105.27 1911.92,-103.03"/>
<polygon fill="midnightblue" stroke="midnightblue" points="2322.49,-159.11 2332.7,-156.29 2322.96,-152.13 2322.49,-159.11"/>
</g>
<!-- Node63 -->
<g id="node25" class="node">
<title>Node63</title>
<g id="a_node25"><a xlink:href="d__a__spinner_8h.html" target="_top" xlink:title=" ">
<polygon fill="white" stroke="black" points="1946,-73 1946,-103 2062,-103 2062,-73 1946,-73"/>
<text text-anchor="start" x="1954" y="-91" font-family="Helvetica,sans-Serif" font-size="10.00">include/rel/d/a/d_a</text>
<text text-anchor="middle" x="2004" y="-80" font-family="Helvetica,sans-Serif" font-size="10.00">_spinner/d_a_spinner.h</text>
</a>
</g>
</g>
<!-- Node4&#45;&gt;Node63 -->
<g id="edge25" class="edge">
<title>Node4&#45;&gt;Node63</title>
<path fill="none" stroke="midnightblue" d="M2322.87,-151.68C2258.45,-143.35 2157.26,-128.66 2071,-109 2063.54,-107.3 2055.7,-105.23 2048.11,-103.07"/>
<polygon fill="midnightblue" stroke="midnightblue" points="2322.52,-155.17 2332.89,-152.97 2323.41,-148.22 2322.52,-155.17"/>
</g>
<!-- Node64 -->
<g id="node26" class="node">
<title>Node64</title>
<g id="a_node26"><a xlink:href="d__a__obj__yobikusa_8h.html" target="_top" xlink:title=" ">
<polygon fill="white" stroke="black" points="2080.5,-67.5 2080.5,-108.5 2185.5,-108.5 2185.5,-67.5 2080.5,-67.5"/>
<text text-anchor="start" x="2088.5" y="-96.5" font-family="Helvetica,sans-Serif" font-size="10.00">include/rel/d/a/obj</text>
<text text-anchor="start" x="2088.5" y="-85.5" font-family="Helvetica,sans-Serif" font-size="10.00">/d_a_obj_yobikusa/d</text>
<text text-anchor="middle" x="2133" y="-74.5" font-family="Helvetica,sans-Serif" font-size="10.00">_a_obj_yobikusa.h</text>
</a>
</g>
</g>
<!-- Node4&#45;&gt;Node64 -->
<g id="edge26" class="edge">
<title>Node4&#45;&gt;Node64</title>
<path fill="none" stroke="midnightblue" d="M2323.06,-143.48C2285.5,-133.97 2237.42,-121.38 2195,-109 2191.96,-108.11 2188.84,-107.18 2185.7,-106.22"/>
<polygon fill="midnightblue" stroke="midnightblue" points="2322.32,-146.9 2332.87,-145.95 2324.03,-140.11 2322.32,-146.9"/>
</g>
<!-- Node65 -->
<g id="node27" class="node">
<title>Node65</title>
<g id="a_node27"><a xlink:href="d__a__tag__telop_8h.html" target="_top" xlink:title=" ">
<polygon fill="white" stroke="black" points="2204,-67.5 2204,-108.5 2322,-108.5 2322,-67.5 2204,-67.5"/>
<text text-anchor="start" x="2212" y="-96.5" font-family="Helvetica,sans-Serif" font-size="10.00">include/rel/d/a/tag</text>
<text text-anchor="start" x="2212" y="-85.5" font-family="Helvetica,sans-Serif" font-size="10.00">/d_a_tag_telop/d_a_tag</text>
<text text-anchor="middle" x="2263" y="-74.5" font-family="Helvetica,sans-Serif" font-size="10.00">_telop.h</text>
</a>
</g>
</g>
<!-- Node4&#45;&gt;Node65 -->
<g id="edge27" class="edge">
<title>Node4&#45;&gt;Node65</title>
<path fill="none" stroke="midnightblue" d="M2354.26,-140.47C2336.81,-130.63 2315.52,-118.62 2297.89,-108.68"/>
<polygon fill="midnightblue" stroke="midnightblue" points="2352.58,-143.54 2363,-145.4 2356.01,-137.44 2352.58,-143.54"/>
</g>
<!-- Node66 -->
<g id="node28" class="node">
<title>Node66</title>
<g id="a_node28"><a xlink:href="c__dylink_8cpp.html" target="_top" xlink:title=" ">
<polygon fill="white" stroke="black" points="2340.5,-78.5 2340.5,-97.5 2435.5,-97.5 2435.5,-78.5 2340.5,-78.5"/>
<text text-anchor="middle" x="2388" y="-85.5" font-family="Helvetica,sans-Serif" font-size="10.00">src/c/c_dylink.cpp</text>
</a>
</g>
</g>
<!-- Node4&#45;&gt;Node66 -->
<g id="edge28" class="edge">
<title>Node4&#45;&gt;Node66</title>
<path fill="none" stroke="midnightblue" d="M2388,-135.09C2388,-122.21 2388,-107.2 2388,-97.89"/>
<polygon fill="midnightblue" stroke="midnightblue" points="2384.5,-135.23 2388,-145.23 2391.5,-135.23 2384.5,-135.23"/>
</g>
<!-- Node67 -->
<g id="node29" class="node">
<title>Node67</title>
<g id="a_node29"><a xlink:href="d__a__itembase_8cpp.html" target="_top" xlink:title=" ">
<polygon fill="white" stroke="black" points="2454,-78.5 2454,-97.5 2582,-97.5 2582,-78.5 2454,-78.5"/>
<text text-anchor="middle" x="2518" y="-85.5" font-family="Helvetica,sans-Serif" font-size="10.00">src/d/a/d_a_itembase.cpp</text>
</a>
</g>
</g>
<!-- Node4&#45;&gt;Node67 -->
<g id="edge30" class="edge">
<title>Node4&#45;&gt;Node67</title>
<path fill="none" stroke="midnightblue" d="M2423.1,-140.47C2448.9,-126.47 2482.75,-108.12 2502.26,-97.53"/>
<polygon fill="midnightblue" stroke="midnightblue" points="2421.12,-137.56 2413.99,-145.4 2424.45,-143.71 2421.12,-137.56"/>
</g>
<!-- Node68 -->
<g id="node30" class="node">
<title>Node68</title>
<g id="a_node30"><a xlink:href="d__a__player_8cpp.html" target="_top" xlink:title=" ">
<polygon fill="white" stroke="black" points="2600,-78.5 2600,-97.5 2714,-97.5 2714,-78.5 2600,-78.5"/>
<text text-anchor="middle" x="2657" y="-85.5" font-family="Helvetica,sans-Serif" font-size="10.00">src/d/a/d_a_player.cpp</text>
</a>
</g>
</g>
<!-- Node4&#45;&gt;Node68 -->
<g id="edge32" class="edge">
<title>Node4&#45;&gt;Node68</title>
<path fill="none" stroke="midnightblue" d="M2453.21,-144.16C2493.13,-134.55 2545.17,-121.64 2591,-109 2603.81,-105.47 2617.92,-101.24 2629.8,-97.58"/>
<polygon fill="midnightblue" stroke="midnightblue" points="2452.25,-140.79 2443.34,-146.53 2453.88,-147.6 2452.25,-140.79"/>
</g>
<!-- Node69 -->
<g id="node31" class="node">
<title>Node69</title>
<g id="a_node31"><a xlink:href="d__bg__s_8cpp.html" target="_top" xlink:title=" ">
<polygon fill="white" stroke="black" points="2732,-78.5 2732,-97.5 2836,-97.5 2836,-78.5 2732,-78.5"/>
<text text-anchor="middle" x="2784" y="-85.5" font-family="Helvetica,sans-Serif" font-size="10.00">src/d/bg/d_bg_s.cpp</text>
</a>
</g>
</g>
<!-- Node4&#45;&gt;Node69 -->
<g id="edge33" class="edge">
<title>Node4&#45;&gt;Node69</title>
<path fill="none" stroke="midnightblue" d="M2453.21,-152.94C2521.18,-145.34 2630.47,-130.98 2723,-109 2735.8,-105.96 2749.75,-101.47 2761.09,-97.52"/>
<polygon fill="midnightblue" stroke="midnightblue" points="2452.64,-149.48 2443.08,-154.06 2453.4,-156.44 2452.64,-149.48"/>
</g>
<!-- Node70 -->
<g id="node32" class="node">
<title>Node70</title>
<g id="a_node32"><a xlink:href="d__bg__s__movebg__actor_8cpp.html" target="_top" xlink:title=" ">
<polygon fill="white" stroke="black" points="2854,-73 2854,-103 2980,-103 2980,-73 2854,-73"/>
<text text-anchor="start" x="2862" y="-91" font-family="Helvetica,sans-Serif" font-size="10.00">src/d/bg/d_bg_s_movebg</text>
<text text-anchor="middle" x="2917" y="-80" font-family="Helvetica,sans-Serif" font-size="10.00">_actor.cpp</text>
</a>
</g>
</g>
<!-- Node4&#45;&gt;Node70 -->
<g id="edge34" class="edge">
<title>Node4&#45;&gt;Node70</title>
<path fill="none" stroke="midnightblue" d="M2453.53,-155.58C2542.72,-149.5 2707.03,-135.61 2845,-109 2853.41,-107.38 2862.27,-105.26 2870.78,-103.02"/>
<polygon fill="midnightblue" stroke="midnightblue" points="2453.04,-152.11 2443.3,-156.27 2453.51,-159.09 2453.04,-152.11"/>
</g>
<!-- Node71 -->
<g id="node33" class="node">
<title>Node71</title>
<g id="a_node33"><a xlink:href="d__bg__w_8cpp.html" target="_top" xlink:title=" ">
<polygon fill="white" stroke="black" points="2998.5,-78.5 2998.5,-97.5 3105.5,-97.5 3105.5,-78.5 2998.5,-78.5"/>
<text text-anchor="middle" x="3052" y="-85.5" font-family="Helvetica,sans-Serif" font-size="10.00">src/d/bg/d_bg_w.cpp</text>
</a>
</g>
</g>
<!-- Node4&#45;&gt;Node71 -->
<g id="edge35" class="edge">
<title>Node4&#45;&gt;Node71</title>
<path fill="none" stroke="midnightblue" d="M2453.31,-158.77C2564.39,-156.48 2796.77,-147.09 2989,-109 3002.62,-106.3 3017.44,-101.69 3029.28,-97.57"/>
<polygon fill="midnightblue" stroke="midnightblue" points="2453.19,-155.27 2443.26,-158.97 2453.33,-162.27 2453.19,-155.27"/>
</g>
<!-- Node72 -->
<g id="node34" class="node">
<title>Node72</title>
<g id="a_node34"><a xlink:href="d__cc__s_8cpp.html" target="_top" xlink:title=" ">
<polygon fill="white" stroke="black" points="3124,-78.5 3124,-97.5 3228,-97.5 3228,-78.5 3124,-78.5"/>
<text text-anchor="middle" x="3176" y="-85.5" font-family="Helvetica,sans-Serif" font-size="10.00">src/d/cc/d_cc_s.cpp</text>
</a>
</g>
</g>
<!-- Node4&#45;&gt;Node72 -->
<g id="edge36" class="edge">
<title>Node4&#45;&gt;Node72</title>
<path fill="none" stroke="midnightblue" d="M2453.37,-160.34C2581.57,-160.8 2874.42,-156.04 3115,-109 3128.34,-106.39 3142.82,-101.73 3154.33,-97.56"/>
<polygon fill="midnightblue" stroke="midnightblue" points="2453.34,-156.84 2443.33,-160.29 2453.31,-163.84 2453.34,-156.84"/>
</g>
<!-- Node73 -->
<g id="node35" class="node">
<title>Node73</title>
<g id="a_node35"><a xlink:href="d__com__static_8cpp.html" target="_top" xlink:title=" ">
<polygon fill="white" stroke="black" points="3246,-78.5 3246,-97.5 3386,-97.5 3386,-78.5 3246,-78.5"/>
<text text-anchor="middle" x="3316" y="-85.5" font-family="Helvetica,sans-Serif" font-size="10.00">src/d/com/d_com_static.cpp</text>
</a>
</g>
</g>
<!-- Node4&#45;&gt;Node73 -->
<g id="edge38" class="edge">
<title>Node4&#45;&gt;Node73</title>
<path fill="none" stroke="midnightblue" d="M2453.35,-159.79C2596.33,-159.52 2947.31,-153.87 3237,-109 3254.06,-106.36 3272.8,-101.69 3287.74,-97.53"/>
<polygon fill="midnightblue" stroke="midnightblue" points="2453.01,-156.29 2443.01,-159.8 2453.01,-163.29 2453.01,-156.29"/>
</g>
<!-- Node74 -->
<g id="node36" class="node">
<title>Node74</title>
<g id="a_node36"><a xlink:href="d__cam__param_8cpp.html" target="_top" xlink:title=" ">
<polygon fill="white" stroke="black" points="3404.5,-78.5 3404.5,-97.5 3525.5,-97.5 3525.5,-78.5 3404.5,-78.5"/>
<text text-anchor="middle" x="3465" y="-85.5" font-family="Helvetica,sans-Serif" font-size="10.00">src/d/d_cam_param.cpp</text>
</a>
</g>
</g>
<!-- Node4&#45;&gt;Node74 -->
<g id="edge39" class="edge">
<title>Node4&#45;&gt;Node74</title>
<path fill="none" stroke="midnightblue" d="M2453.25,-158.17C2646.33,-153.93 3212.73,-139.2 3395,-109 3410.34,-106.46 3427.1,-101.74 3440.37,-97.53"/>
<polygon fill="midnightblue" stroke="midnightblue" points="2453.17,-154.67 2443.25,-158.39 2453.32,-161.67 2453.17,-154.67"/>
</g>
<!-- Node75 -->
<g id="node37" class="node">
<title>Node75</title>
<g id="a_node37"><a xlink:href="d__camera_8cpp.html" target="_top" xlink:title=" ">
<polygon fill="white" stroke="black" points="3544,-78.5 3544,-97.5 3646,-97.5 3646,-78.5 3544,-78.5"/>
<text text-anchor="middle" x="3595" y="-85.5" font-family="Helvetica,sans-Serif" font-size="10.00">src/d/d_camera.cpp</text>
</a>
</g>
</g>
<!-- Node4&#45;&gt;Node75 -->
<g id="edge40" class="edge">
<title>Node4&#45;&gt;Node75</title>
<path fill="none" stroke="midnightblue" d="M2453.52,-159C2664.6,-157.02 3325.27,-147.79 3535,-109 3548.28,-106.54 3562.65,-101.83 3574,-97.6"/>
<polygon fill="midnightblue" stroke="midnightblue" points="2453.18,-155.5 2443.22,-159.09 2453.25,-162.5 2453.18,-155.5"/>
</g>
<!-- Node76 -->
<g id="node38" class="node">
<title>Node76</title>
<g id="a_node38"><a xlink:href="d__eye__hl_8cpp.html" target="_top" xlink:title=" ">
<polygon fill="white" stroke="black" points="3664,-78.5 3664,-97.5 3762,-97.5 3762,-78.5 3664,-78.5"/>
<text text-anchor="middle" x="3713" y="-85.5" font-family="Helvetica,sans-Serif" font-size="10.00">src/d/d_eye_hl.cpp</text>
</a>
</g>
</g>
<!-- Node4&#45;&gt;Node76 -->
<g id="edge42" class="edge">
<title>Node4&#45;&gt;Node76</title>
<path fill="none" stroke="midnightblue" d="M2453.41,-159.41C2678.66,-158.7 3421.14,-152.99 3655,-109 3667.98,-106.56 3681.99,-101.79 3692.99,-97.52"/>
<polygon fill="midnightblue" stroke="midnightblue" points="2453.07,-155.91 2443.08,-159.44 2453.09,-162.91 2453.07,-155.91"/>
</g>
<!-- Node77 -->
<g id="node39" class="node">
<title>Node77</title>
<g id="a_node39"><a xlink:href="d__kyeff_8cpp.html" target="_top" xlink:title=" ">
<polygon fill="white" stroke="black" points="3780,-78.5 3780,-97.5 3870,-97.5 3870,-78.5 3780,-78.5"/>
<text text-anchor="middle" x="3825" y="-85.5" font-family="Helvetica,sans-Serif" font-size="10.00">src/d/d_kyeff.cpp</text>
</a>
</g>
</g>
<!-- Node4&#45;&gt;Node77 -->
<g id="edge43" class="edge">
<title>Node4&#45;&gt;Node77</title>
<path fill="none" stroke="midnightblue" d="M2453.36,-159.86C2691.77,-160.73 3514.1,-159.9 3771,-109 3783.16,-106.59 3796.21,-101.82 3806.43,-97.55"/>
<polygon fill="midnightblue" stroke="midnightblue" points="2453.13,-156.36 2443.12,-159.82 2453.1,-163.36 2453.13,-156.36"/>
</g>
<!-- Node78 -->
<g id="node40" class="node">
<title>Node78</title>
<g id="a_node40"><a xlink:href="d__path_8cpp.html" target="_top" xlink:title=" ">
<polygon fill="white" stroke="black" points="3888.5,-78.5 3888.5,-97.5 3977.5,-97.5 3977.5,-78.5 3888.5,-78.5"/>
<text text-anchor="middle" x="3933" y="-85.5" font-family="Helvetica,sans-Serif" font-size="10.00">src/d/d_path.cpp</text>
</a>
</g>
</g>
<!-- Node4&#45;&gt;Node78 -->
<g id="edge44" class="edge">
<title>Node4&#45;&gt;Node78</title>
<path fill="none" stroke="midnightblue" d="M2453.27,-158.52C2722.36,-154.31 3738.1,-136.72 3879,-109 3891.16,-106.61 3904.21,-101.84 3914.44,-97.56"/>
<polygon fill="midnightblue" stroke="midnightblue" points="2453.21,-155.02 2443.27,-158.68 2453.32,-162.02 2453.21,-155.02"/>
</g>
<!-- Node79 -->
<g id="node41" class="node">
<title>Node79</title>
<g id="a_node41"><a xlink:href="d__resorce_8cpp.html" target="_top" xlink:title=" ">
<polygon fill="white" stroke="black" points="3995,-78.5 3995,-97.5 4097,-97.5 4097,-78.5 3995,-78.5"/>
<text text-anchor="middle" x="4046" y="-85.5" font-family="Helvetica,sans-Serif" font-size="10.00">src/d/d_resorce.cpp</text>
</a>
</g>
</g>
<!-- Node4&#45;&gt;Node79 -->
<g id="edge45" class="edge">
<title>Node4&#45;&gt;Node79</title>
<path fill="none" stroke="midnightblue" d="M2453.29,-158.57C2734.45,-154.43 3834.64,-136.6 3987,-109 4000.2,-106.61 4014.45,-101.84 4025.64,-97.56"/>
<polygon fill="midnightblue" stroke="midnightblue" points="2453.19,-155.08 2443.24,-158.72 2453.29,-162.07 2453.19,-155.08"/>
</g>
<!-- Node80 -->
<g id="node42" class="node">
<title>Node80</title>
<g id="a_node42"><a xlink:href="d__simple__model_8cpp.html" target="_top" xlink:title=" ">
<polygon fill="white" stroke="black" points="4115,-78.5 4115,-97.5 4245,-97.5 4245,-78.5 4115,-78.5"/>
<text text-anchor="middle" x="4180" y="-85.5" font-family="Helvetica,sans-Serif" font-size="10.00">src/d/d_simple_model.cpp</text>
</a>
</g>
</g>
<!-- Node4&#45;&gt;Node80 -->
<g id="edge46" class="edge">
<title>Node4&#45;&gt;Node80</title>
<path fill="none" stroke="midnightblue" d="M2453.45,-159.63C2726.81,-159.84 3778.31,-157.41 4106,-109 4122.32,-106.59 4140.2,-101.82 4154.29,-97.54"/>
<polygon fill="midnightblue" stroke="midnightblue" points="2453.3,-156.13 2443.29,-159.62 2453.29,-163.13 2453.3,-156.13"/>
</g>
<!-- Node81 -->
<g id="node43" class="node">
<title>Node81</title>
<g id="a_node43"><a xlink:href="d__stage_8cpp.html" target="_top" xlink:title=" ">
<polygon fill="white" stroke="black" points="4263,-78.5 4263,-97.5 4357,-97.5 4357,-78.5 4263,-78.5"/>
<text text-anchor="middle" x="4310" y="-85.5" font-family="Helvetica,sans-Serif" font-size="10.00">src/d/d_stage.cpp</text>
</a>
</g>
</g>
<!-- Node4&#45;&gt;Node81 -->
<g id="edge47" class="edge">
<title>Node4&#45;&gt;Node81</title>
<path fill="none" stroke="midnightblue" d="M2453.24,-158.95C2762.62,-156.2 4074.37,-142.62 4254,-109 4266.58,-106.64 4280.11,-101.88 4290.72,-97.59"/>
<polygon fill="midnightblue" stroke="midnightblue" points="2453.06,-155.46 2443.09,-159.04 2453.12,-162.46 2453.06,-155.46"/>
</g>
<!-- Node82 -->
<g id="node44" class="node">
<title>Node82</title>
<g id="a_node44"><a xlink:href="d__timer_8cpp.html" target="_top" xlink:title=" ">
<polygon fill="white" stroke="black" points="4375,-78.5 4375,-97.5 4467,-97.5 4467,-78.5 4375,-78.5"/>
<text text-anchor="middle" x="4421" y="-85.5" font-family="Helvetica,sans-Serif" font-size="10.00">src/d/d_timer.cpp</text>
</a>
</g>
</g>
<!-- Node4&#45;&gt;Node82 -->
<g id="edge48" class="edge">
<title>Node4&#45;&gt;Node82</title>
<path fill="none" stroke="midnightblue" d="M2453.49,-159.08C2774.59,-156.86 4174.95,-145.18 4366,-109 4378.38,-106.66 4391.67,-101.89 4402.08,-97.6"/>
<polygon fill="midnightblue" stroke="midnightblue" points="2453.39,-155.58 2443.41,-159.15 2453.43,-162.58 2453.39,-155.58"/>
</g>
<!-- Node83 -->
<g id="node45" class="node">
<title>Node83</title>
<g id="a_node45"><a xlink:href="d__tresure_8cpp.html" target="_top" xlink:title=" ">
<polygon fill="white" stroke="black" points="4485,-78.5 4485,-97.5 4585,-97.5 4585,-78.5 4485,-78.5"/>
<text text-anchor="middle" x="4535" y="-85.5" font-family="Helvetica,sans-Serif" font-size="10.00">src/d/d_tresure.cpp</text>
</a>
</g>
</g>
<!-- Node4&#45;&gt;Node83 -->
<g id="edge49" class="edge">
<title>Node4&#45;&gt;Node83</title>
<path fill="none" stroke="midnightblue" d="M2453.54,-159.09C2785.48,-156.87 4273.19,-144.96 4476,-109 4489.21,-106.66 4503.46,-101.89 4514.65,-97.6"/>
<polygon fill="midnightblue" stroke="midnightblue" points="2453.12,-155.6 2443.14,-159.16 2453.17,-162.59 2453.12,-155.6"/>
</g>
<!-- Node4&#45;&gt;Node91 -->
<g id="edge52" class="edge">
<title>Node4&#45;&gt;Node91</title>
<path fill="none" stroke="midnightblue" d="M2453.38,-158.96C2811.8,-155.9 4530.57,-139.7 4765,-109 4783.02,-106.64 4802.82,-101.87 4818.45,-97.59"/>
<polygon fill="midnightblue" stroke="midnightblue" points="2453.15,-155.46 2443.18,-159.05 2453.21,-162.46 2453.15,-155.46"/>
</g>
<!-- Node13&#45;&gt;Node14 -->
<g id="edge7" class="edge">
<title>Node13&#45;&gt;Node14</title>
<path fill="none" stroke="midnightblue" d="M555.05,-74.37C523.52,-60.12 473.09,-37.33 445.88,-25.03"/>
<polygon fill="midnightblue" stroke="midnightblue" points="553.63,-77.57 564.18,-78.5 556.51,-71.19 553.63,-77.57"/>
</g>
<!-- Node13&#45;&gt;Node15 -->
<g id="edge8" class="edge">
<title>Node13&#45;&gt;Node15</title>
<path fill="none" stroke="midnightblue" d="M625.5,-76.2C641.81,-72.55 660.66,-68.91 678,-67 1092.82,-21.21 4205.9,-16.93 4688.28,-16.54"/>
<polygon fill="midnightblue" stroke="midnightblue" points="624.67,-72.8 615.72,-78.46 626.25,-79.62 624.67,-72.8"/>
</g>
<!-- Node13&#45;&gt;Node16 -->
<g id="edge9" class="edge">
<title>Node13&#45;&gt;Node16</title>
<path fill="none" stroke="midnightblue" d="M593.32,-69.68C600.48,-57.65 609.91,-41.83 616.61,-30.58"/>
<polygon fill="midnightblue" stroke="midnightblue" points="590.26,-67.97 588.15,-78.36 596.27,-71.56 590.26,-67.97"/>
</g>
<!-- Node38&#45;&gt;Node14 -->
<g id="edge17" class="edge">
<title>Node38&#45;&gt;Node14</title>
<path fill="none" stroke="midnightblue" d="M270.06,-69.69C311.89,-55.52 369.3,-36.06 401.82,-25.03"/>
<polygon fill="midnightblue" stroke="midnightblue" points="268.94,-66.38 260.59,-72.9 271.19,-73.01 268.94,-66.38"/>
</g>
<!-- Node38&#45;&gt;Node43 -->
<g id="edge18" class="edge">
<title>Node38&#45;&gt;Node43</title>
<path fill="none" stroke="midnightblue" d="M175.24,-69.06C140.79,-54.94 94.32,-35.9 67.82,-25.03"/>
<polygon fill="midnightblue" stroke="midnightblue" points="174.03,-72.35 184.61,-72.9 176.68,-65.87 174.03,-72.35"/>
</g>
<!-- Node38&#45;&gt;Node44 -->
<g id="edge19" class="edge">
<title>Node38&#45;&gt;Node44</title>
<path fill="none" stroke="midnightblue" d="M204.08,-64.13C195.46,-50.92 185.12,-35.07 178.8,-25.39"/>
<polygon fill="midnightblue" stroke="midnightblue" points="201.3,-66.27 209.69,-72.73 207.16,-62.45 201.3,-66.27"/>
</g>
<!-- Node38&#45;&gt;Node45 -->
<g id="edge20" class="edge">
<title>Node38&#45;&gt;Node45</title>
<path fill="none" stroke="midnightblue" d="M243.68,-66.29C257.41,-54.77 274.13,-40.73 286.31,-30.5"/>
<polygon fill="midnightblue" stroke="midnightblue" points="241.41,-63.62 236,-72.73 245.91,-68.99 241.41,-63.62"/>
</g>
<!-- Node104 -->
<g id="node48" class="node">
<title>Node104</title>
<g id="a_node48"><a xlink:href="d__a__obj__item_8h.html" target="_top" xlink:title=" ">
<polygon fill="white" stroke="black" points="4754.5,-145.5 4754.5,-175.5 4855.5,-175.5 4855.5,-145.5 4754.5,-145.5"/>
<text text-anchor="start" x="4762.5" y="-163.5" font-family="Helvetica,sans-Serif" font-size="10.00">include/d/a/d_a_obj</text>
<text text-anchor="middle" x="4805" y="-152.5" font-family="Helvetica,sans-Serif" font-size="10.00">_item.h</text>
</a>
</g>
</g>
<!-- Node103&#45;&gt;Node104 -->
<g id="edge55" class="edge">
<title>Node103&#45;&gt;Node104</title>
<path fill="none" stroke="midnightblue" d="M4594.57,-211.42C4643.09,-199.91 4709.04,-184.27 4754.09,-173.58"/>
<polygon fill="midnightblue" stroke="midnightblue" points="4593.73,-208.02 4584.81,-213.74 4595.34,-214.83 4593.73,-208.02"/>
</g>
<!-- Node105 -->
<g id="node49" class="node">
<title>Node105</title>
<g id="a_node49"><a xlink:href="d__a__item__static_8cpp.html" target="_top" xlink:title=" ">
<polygon fill="white" stroke="black" points="4462.5,-151 4462.5,-170 4599.5,-170 4599.5,-151 4462.5,-151"/>
<text text-anchor="middle" x="4531" y="-158" font-family="Helvetica,sans-Serif" font-size="10.00">src/d/a/d_a_item_static.cpp</text>
</a>
</g>
</g>
<!-- Node103&#45;&gt;Node105 -->
<g id="edge57" class="edge">
<title>Node103&#45;&gt;Node105</title>
<path fill="none" stroke="midnightblue" d="M4531,-202.25C4531,-191.02 4531,-178.38 4531,-170.19"/>
<polygon fill="midnightblue" stroke="midnightblue" points="4527.5,-202.4 4531,-212.4 4534.5,-202.4 4527.5,-202.4"/>
</g>
<!-- Node104&#45;&gt;Node15 -->
<g id="edge56" class="edge">
<title>Node104&#45;&gt;Node15</title>
<path fill="none" stroke="midnightblue" d="M4865.45,-148.47C4887.72,-141.16 4910.73,-129.05 4924,-109 4934.3,-93.43 4935.2,-81.93 4924,-67 4909.59,-47.79 4850.26,-33.46 4805.06,-25.06"/>
<polygon fill="midnightblue" stroke="midnightblue" points="4864.22,-145.19 4855.65,-151.41 4866.23,-151.89 4864.22,-145.19"/>
</g>
</g>
</svg>
