<?xml version="1.0" encoding="UTF-8" standalone="no"?>
<!DOCTYPE svg PUBLIC "-//W3C//DTD SVG 1.1//EN"
 "http://www.w3.org/Graphics/SVG/1.1/DTD/svg11.dtd">
<!-- Generated by graphviz version 3.0.0 (20220413.0242)
 -->
<!-- Title: include/d/d_tresure.h Pages: 1 -->
<svg width="4645pt" height="553pt"
 viewBox="0.00 0.00 4645.00 553.00" xmlns="http://www.w3.org/2000/svg" xmlns:xlink="http://www.w3.org/1999/xlink">
<g id="graph0" class="graph" transform="scale(1 1) rotate(0) translate(4 549)">
<title>include/d/d_tresure.h</title>
<polygon fill="white" stroke="transparent" points="-4,4 -4,-549 4641,-549 4641,4 -4,4"/>
<!-- Node1 -->
<g id="node1" class="node">
<title>Node1</title>
<g id="a_node1"><a xlink:title=" ">
<polygon fill="#bfbfbf" stroke="black" points="2337.5,-525.5 2337.5,-544.5 2444.5,-544.5 2444.5,-525.5 2337.5,-525.5"/>
<text text-anchor="middle" x="2391" y="-532.5" font-family="Helvetica,sans-Serif" font-size="10.00">include/d/d_tresure.h</text>
</a>
</g>
</g>
<!-- Node2 -->
<g id="node2" class="node">
<title>Node2</title>
<g id="a_node2"><a xlink:href="d__map__path__dmap_8h.html" target="_top" xlink:title=" ">
<polygon fill="white" stroke="black" points="1135,-458.5 1135,-488.5 1245,-488.5 1245,-458.5 1135,-458.5"/>
<text text-anchor="start" x="1143" y="-476.5" font-family="Helvetica,sans-Serif" font-size="10.00">include/d/map/d_map</text>
<text text-anchor="middle" x="1190" y="-465.5" font-family="Helvetica,sans-Serif" font-size="10.00">_path_dmap.h</text>
</a>
</g>
</g>
<!-- Node1&#45;&gt;Node2 -->
<g id="edge1" class="edge">
<title>Node1&#45;&gt;Node2</title>
<path fill="none" stroke="midnightblue" d="M2327.17,-530.84C2116.13,-520.38 1443.11,-487.04 1245.22,-477.24"/>
<polygon fill="midnightblue" stroke="midnightblue" points="2327.29,-534.35 2337.45,-531.35 2327.64,-527.36 2327.29,-534.35"/>
</g>
<!-- Node86 -->
<g id="node46" class="node">
<title>Node86</title>
<g id="a_node46"><a xlink:href="d__tresure_8cpp.html" target="_top" xlink:title=" ">
<polygon fill="white" stroke="black" points="4433,-78.5 4433,-97.5 4533,-97.5 4533,-78.5 4433,-78.5"/>
<text text-anchor="middle" x="4483" y="-85.5" font-family="Helvetica,sans-Serif" font-size="10.00">src/d/d_tresure.cpp</text>
</a>
</g>
</g>
<!-- Node1&#45;&gt;Node86 -->
<g id="edge71" class="edge">
<title>Node1&#45;&gt;Node86</title>
<path fill="none" stroke="midnightblue" d="M2454.72,-533.83C2820.51,-532.44 4637,-519.89 4637,-407.5 4637,-407.5 4637,-407.5 4637,-282.5 4637,-193.41 4535.82,-121.62 4497.49,-97.61"/>
<polygon fill="midnightblue" stroke="midnightblue" points="2454.57,-530.33 2444.58,-533.87 2454.59,-537.33 2454.57,-530.33"/>
</g>
<!-- Node3 -->
<g id="node3" class="node">
<title>Node3</title>
<g id="a_node3"><a xlink:href="d__meter__map_8h.html" target="_top" xlink:title=" ">
<polygon fill="white" stroke="black" points="1129,-391.5 1129,-421.5 1251,-421.5 1251,-391.5 1129,-391.5"/>
<text text-anchor="start" x="1137" y="-409.5" font-family="Helvetica,sans-Serif" font-size="10.00">include/d/meter/d_meter</text>
<text text-anchor="middle" x="1190" y="-398.5" font-family="Helvetica,sans-Serif" font-size="10.00">_map.h</text>
</a>
</g>
</g>
<!-- Node2&#45;&gt;Node3 -->
<g id="edge2" class="edge">
<title>Node2&#45;&gt;Node3</title>
<path fill="none" stroke="midnightblue" d="M1190,-448.11C1190,-439.15 1190,-429.32 1190,-421.58"/>
<polygon fill="midnightblue" stroke="midnightblue" points="1186.5,-448.4 1190,-458.4 1193.5,-448.4 1186.5,-448.4"/>
</g>
<!-- Node92 -->
<g id="node47" class="node">
<title>Node92</title>
<g id="a_node47"><a xlink:href="d__map__path__dmap_8cpp.html" target="_top" xlink:title=" ">
<polygon fill="white" stroke="black" points="0,-73 0,-103 116,-103 116,-73 0,-73"/>
<text text-anchor="start" x="8" y="-91" font-family="Helvetica,sans-Serif" font-size="10.00">src/d/map/d_map_path</text>
<text text-anchor="middle" x="58" y="-80" font-family="Helvetica,sans-Serif" font-size="10.00">_dmap.cpp</text>
</a>
</g>
</g>
<!-- Node2&#45;&gt;Node92 -->
<g id="edge70" class="edge">
<title>Node2&#45;&gt;Node92</title>
<path fill="none" stroke="midnightblue" d="M1124.44,-471.95C886.45,-469.08 82,-451.58 82,-346 82,-346 82,-346 82,-221 82,-177.44 69.19,-127.09 62.29,-103.11"/>
<polygon fill="midnightblue" stroke="midnightblue" points="1124.64,-475.45 1134.68,-472.06 1124.72,-468.45 1124.64,-475.45"/>
</g>
<!-- Node4 -->
<g id="node4" class="node">
<title>Node4</title>
<g id="a_node4"><a xlink:href="d__meter2_8h.html" target="_top" xlink:title=" ">
<polygon fill="white" stroke="black" points="2142,-335.5 2142,-354.5 2276,-354.5 2276,-335.5 2142,-335.5"/>
<text text-anchor="middle" x="2209" y="-342.5" font-family="Helvetica,sans-Serif" font-size="10.00">include/d/meter/d_meter2.h</text>
</a>
</g>
</g>
<!-- Node3&#45;&gt;Node4 -->
<g id="edge3" class="edge">
<title>Node3&#45;&gt;Node4</title>
<path fill="none" stroke="midnightblue" d="M1261.12,-401.35C1449.28,-390.36 1958.2,-360.64 2141.8,-349.92"/>
<polygon fill="midnightblue" stroke="midnightblue" points="1260.85,-397.86 1251.07,-401.93 1261.26,-404.85 1260.85,-397.86"/>
</g>
<!-- Node47 -->
<g id="node24" class="node">
<title>Node47</title>
<g id="a_node24"><a xlink:href="d__meter__map_8cpp.html" target="_top" xlink:title=" ">
<polygon fill="white" stroke="black" points="283,-0.5 283,-30.5 387,-30.5 387,-0.5 283,-0.5"/>
<text text-anchor="start" x="291" y="-18.5" font-family="Helvetica,sans-Serif" font-size="10.00">src/d/meter/d_meter</text>
<text text-anchor="middle" x="335" y="-7.5" font-family="Helvetica,sans-Serif" font-size="10.00">_map.cpp</text>
</a>
</g>
</g>
<!-- Node3&#45;&gt;Node47 -->
<g id="edge69" class="edge">
<title>Node3&#45;&gt;Node47</title>
<path fill="none" stroke="midnightblue" d="M1118.68,-404.75C882.99,-401.35 144,-382.84 144,-284.5 144,-284.5 144,-284.5 144,-159.5 144,-117.53 134.58,-97.88 163,-67 193.45,-33.91 244.33,-22.09 282.87,-18.06"/>
<polygon fill="midnightblue" stroke="midnightblue" points="1118.81,-408.25 1128.86,-404.89 1118.91,-401.26 1118.81,-408.25"/>
</g>
<!-- Node5 -->
<g id="node5" class="node">
<title>Node5</title>
<g id="a_node5"><a xlink:href="d__meter2__info_8h.html" target="_top" xlink:title=" ">
<polygon fill="white" stroke="black" points="2283.5,-268.5 2283.5,-298.5 2410.5,-298.5 2410.5,-268.5 2283.5,-268.5"/>
<text text-anchor="start" x="2291.5" y="-286.5" font-family="Helvetica,sans-Serif" font-size="10.00">include/d/meter/d_meter2</text>
<text text-anchor="middle" x="2347" y="-275.5" font-family="Helvetica,sans-Serif" font-size="10.00">_info.h</text>
</a>
</g>
</g>
<!-- Node4&#45;&gt;Node5 -->
<g id="edge4" class="edge">
<title>Node4&#45;&gt;Node5</title>
<path fill="none" stroke="midnightblue" d="M2238.08,-331.46C2260.44,-321.82 2291.31,-308.51 2314.48,-298.52"/>
<polygon fill="midnightblue" stroke="midnightblue" points="2236.57,-328.3 2228.77,-335.48 2239.34,-334.73 2236.57,-328.3"/>
</g>
<!-- Node108 -->
<g id="node50" class="node">
<title>Node108</title>
<g id="a_node50"><a xlink:href="d__meter2_8cpp.html" target="_top" xlink:title=" ">
<polygon fill="white" stroke="black" points="2099,-274 2099,-293 2227,-293 2227,-274 2099,-274"/>
<text text-anchor="middle" x="2163" y="-281" font-family="Helvetica,sans-Serif" font-size="10.00">src/d/meter/d_meter2.cpp</text>
</a>
</g>
</g>
<!-- Node4&#45;&gt;Node108 -->
<g id="edge68" class="edge">
<title>Node4&#45;&gt;Node108</title>
<path fill="none" stroke="midnightblue" d="M2196.12,-327.34C2187.48,-316.17 2176.47,-301.93 2169.58,-293.01"/>
<polygon fill="midnightblue" stroke="midnightblue" points="2193.52,-329.7 2202.41,-335.48 2199.06,-325.42 2193.52,-329.7"/>
</g>
<!-- Node6 -->
<g id="node6" class="node">
<title>Node6</title>
<g id="a_node6"><a xlink:href="d__a__alink_8h.html" target="_top" xlink:title=" ">
<polygon fill="white" stroke="black" points="2289,-212.5 2289,-231.5 2405,-231.5 2405,-212.5 2289,-212.5"/>
<text text-anchor="middle" x="2347" y="-219.5" font-family="Helvetica,sans-Serif" font-size="10.00">include/d/a/d_a_alink.h</text>
</a>
</g>
</g>
<!-- Node5&#45;&gt;Node6 -->
<g id="edge5" class="edge">
<title>Node5&#45;&gt;Node6</title>
<path fill="none" stroke="midnightblue" d="M2347,-258.29C2347,-248.86 2347,-238.65 2347,-231.66"/>
<polygon fill="midnightblue" stroke="midnightblue" points="2343.5,-258.4 2347,-268.4 2350.5,-258.4 2343.5,-258.4"/>
</g>
<!-- Node13 -->
<g id="node9" class="node">
<title>Node13</title>
<g id="a_node9"><a xlink:href="d__meter2__info_8cpp.html" target="_top" xlink:title=" ">
<polygon fill="white" stroke="black" points="3644,-0.5 3644,-30.5 3754,-30.5 3754,-0.5 3644,-0.5"/>
<text text-anchor="start" x="3652" y="-18.5" font-family="Helvetica,sans-Serif" font-size="10.00">src/d/meter/d_meter2</text>
<text text-anchor="middle" x="3699" y="-7.5" font-family="Helvetica,sans-Serif" font-size="10.00">_info.cpp</text>
</a>
</g>
</g>
<!-- Node5&#45;&gt;Node13 -->
<g id="edge66" class="edge">
<title>Node5&#45;&gt;Node13</title>
<path fill="none" stroke="midnightblue" d="M2420.61,-280.99C2741.1,-273.69 4004,-236.91 4120,-109 4132.54,-95.17 4132.39,-80.96 4120,-67 4096.09,-40.05 3862.59,-24.79 3754.01,-19.1"/>
<polygon fill="midnightblue" stroke="midnightblue" points="2420.42,-277.5 2410.51,-281.22 2420.58,-284.49 2420.42,-277.5"/>
</g>
<!-- Node22 -->
<g id="node14" class="node">
<title>Node22</title>
<g id="a_node14"><a xlink:href="d__com__inf__game_8cpp.html" target="_top" xlink:title=" ">
<polygon fill="white" stroke="black" points="4393,-0.5 4393,-30.5 4501,-30.5 4501,-0.5 4393,-0.5"/>
<text text-anchor="start" x="4401" y="-18.5" font-family="Helvetica,sans-Serif" font-size="10.00">src/d/com/d_com_inf</text>
<text text-anchor="middle" x="4447" y="-7.5" font-family="Helvetica,sans-Serif" font-size="10.00">_game.cpp</text>
</a>
</g>
</g>
<!-- Node5&#45;&gt;Node22 -->
<g id="edge64" class="edge">
<title>Node5&#45;&gt;Node22</title>
<path fill="none" stroke="midnightblue" d="M2420.77,-282.59C2787.09,-282.27 4398.74,-271.59 4542,-109 4554.34,-94.99 4551.61,-83 4542,-67 4531.8,-50.03 4513.76,-38.45 4496.12,-30.72"/>
<polygon fill="midnightblue" stroke="midnightblue" points="2420.55,-279.09 2410.55,-282.6 2420.56,-286.09 2420.55,-279.09"/>
</g>
<!-- Node23 -->
<g id="node15" class="node">
<title>Node23</title>
<g id="a_node15"><a xlink:href="d__item_8cpp.html" target="_top" xlink:title=" ">
<polygon fill="white" stroke="black" points="4536.5,-6 4536.5,-25 4625.5,-25 4625.5,-6 4536.5,-6"/>
<text text-anchor="middle" x="4581" y="-13" font-family="Helvetica,sans-Serif" font-size="10.00">src/d/d_item.cpp</text>
</a>
</g>
</g>
<!-- Node5&#45;&gt;Node23 -->
<g id="edge65" class="edge">
<title>Node5&#45;&gt;Node23</title>
<path fill="none" stroke="midnightblue" d="M2420.81,-281.43C2705.12,-277.15 3729.58,-260.06 4054,-232 4228.02,-216.95 4277.84,-232.85 4443,-176 4499.66,-156.5 4524.36,-157.17 4560,-109 4579.2,-83.05 4581.31,-42.62 4581.24,-25.09"/>
<polygon fill="midnightblue" stroke="midnightblue" points="2420.56,-277.94 2410.61,-281.59 2420.67,-284.93 2420.56,-277.94"/>
</g>
<!-- Node97 -->
<g id="node48" class="node">
<title>Node97</title>
<g id="a_node48"><a xlink:href="d__save_8cpp.html" target="_top" xlink:title=" ">
<polygon fill="white" stroke="black" points="172.5,-78.5 172.5,-97.5 287.5,-97.5 287.5,-78.5 172.5,-78.5"/>
<text text-anchor="middle" x="230" y="-85.5" font-family="Helvetica,sans-Serif" font-size="10.00">src/d/save/d_save.cpp</text>
</a>
</g>
</g>
<!-- Node5&#45;&gt;Node97 -->
<g id="edge67" class="edge">
<title>Node5&#45;&gt;Node97</title>
<path fill="none" stroke="midnightblue" d="M2273.09,-272.35C2260.71,-270.8 2248,-269.28 2236,-268 1387.23,-177.36 1166.21,-235.27 322,-109 302.76,-106.12 281.53,-101.6 264.32,-97.58"/>
<polygon fill="midnightblue" stroke="midnightblue" points="2273.01,-275.87 2283.37,-273.67 2273.9,-268.93 2273.01,-275.87"/>
</g>
<!-- Node107 -->
<g id="node49" class="node">
<title>Node107</title>
<g id="a_node49"><a xlink:href="d__menu__window_8h.html" target="_top" xlink:title=" ">
<polygon fill="white" stroke="black" points="1662,-145.5 1662,-175.5 1782,-175.5 1782,-145.5 1662,-145.5"/>
<text text-anchor="start" x="1670" y="-163.5" font-family="Helvetica,sans-Serif" font-size="10.00">include/d/menu/d_menu</text>
<text text-anchor="middle" x="1722" y="-152.5" font-family="Helvetica,sans-Serif" font-size="10.00">_window.h</text>
</a>
</g>
</g>
<!-- Node5&#45;&gt;Node107 -->
<g id="edge60" class="edge">
<title>Node5&#45;&gt;Node107</title>
<path fill="none" stroke="midnightblue" d="M2273.61,-269.15C2148.75,-245.58 1897.52,-196.94 1782.23,-173.99"/>
<polygon fill="midnightblue" stroke="midnightblue" points="2273,-272.59 2283.48,-271.01 2274.3,-265.72 2273,-272.59"/>
</g>
<!-- Node7 -->
<g id="node7" class="node">
<title>Node7</title>
<g id="a_node7"><a xlink:href="d__com__inf__game_8h.html" target="_top" xlink:title=" ">
<polygon fill="white" stroke="red" points="2246,-145.5 2246,-175.5 2356,-175.5 2356,-145.5 2246,-145.5"/>
<text text-anchor="start" x="2254" y="-163.5" font-family="Helvetica,sans-Serif" font-size="10.00">include/d/com/d_com</text>
<text text-anchor="middle" x="2301" y="-152.5" font-family="Helvetica,sans-Serif" font-size="10.00">_inf_game.h</text>
</a>
</g>
</g>
<!-- Node6&#45;&gt;Node7 -->
<g id="edge6" class="edge">
<title>Node6&#45;&gt;Node7</title>
<path fill="none" stroke="midnightblue" d="M2334.27,-204.53C2327.22,-195.42 2318.56,-184.21 2311.84,-175.52"/>
<polygon fill="midnightblue" stroke="midnightblue" points="2331.52,-206.7 2340.41,-212.48 2337.06,-202.42 2331.52,-206.7"/>
</g>
<!-- Node17 -->
<g id="node12" class="node">
<title>Node17</title>
<g id="a_node12"><a xlink:href="d__a__alink_8cpp.html" target="_top" xlink:title=" ">
<polygon fill="white" stroke="black" points="4122.5,-6 4122.5,-25 4231.5,-25 4231.5,-6 4122.5,-6"/>
<text text-anchor="middle" x="4177" y="-13" font-family="Helvetica,sans-Serif" font-size="10.00">src/d/a/d_a_alink.cpp</text>
</a>
</g>
</g>
<!-- Node6&#45;&gt;Node17 -->
<g id="edge59" class="edge">
<title>Node6&#45;&gt;Node17</title>
<path fill="none" stroke="midnightblue" d="M2415.75,-221.39C2729.42,-222.55 4015.42,-220.44 4152,-109 4177.65,-88.07 4178.53,-43.79 4177.65,-25.1"/>
<polygon fill="midnightblue" stroke="midnightblue" points="2415.45,-217.89 2405.44,-221.35 2415.42,-224.89 2415.45,-217.89"/>
</g>
<!-- Node7&#45;&gt;Node4 -->
<g id="edge20" class="edge">
<title>Node7&#45;&gt;Node4</title>
<path fill="none" stroke="midnightblue" d="M2290.72,-185.04C2278.46,-212.71 2256.96,-259.8 2236,-299 2229.13,-311.86 2220.3,-326.22 2214.64,-335.19"/>
<polygon fill="midnightblue" stroke="midnightblue" points="2293.98,-186.34 2294.81,-175.78 2287.57,-183.52 2293.98,-186.34"/>
</g>
<!-- Node8 -->
<g id="node8" class="node">
<title>Node8</title>
<g id="a_node8"><a xlink:href="d__a__npc_8h.html" target="_top" xlink:title=" ">
<polygon fill="white" stroke="red" points="3601.5,-78.5 3601.5,-97.5 3712.5,-97.5 3712.5,-78.5 3601.5,-78.5"/>
<text text-anchor="middle" x="3657" y="-85.5" font-family="Helvetica,sans-Serif" font-size="10.00">include/d/a/d_a_npc.h</text>
</a>
</g>
</g>
<!-- Node7&#45;&gt;Node8 -->
<g id="edge7" class="edge">
<title>Node7&#45;&gt;Node8</title>
<path fill="none" stroke="midnightblue" d="M2366.15,-159.22C2593.86,-157.89 3353.36,-150.38 3593,-109 3607.22,-106.54 3622.68,-101.77 3634.85,-97.51"/>
<polygon fill="midnightblue" stroke="midnightblue" points="2366.01,-155.72 2356.03,-159.28 2366.05,-162.72 2366.01,-155.72"/>
</g>
<!-- Node7&#45;&gt;Node13 -->
<g id="edge56" class="edge">
<title>Node7&#45;&gt;Node13</title>
<path fill="none" stroke="midnightblue" d="M2366.49,-159.67C2639.41,-160.07 3674.4,-158.32 3722,-109 3742.57,-87.69 3723.13,-50.95 3709.57,-30.79"/>
<polygon fill="midnightblue" stroke="midnightblue" points="2366.35,-156.17 2356.34,-159.66 2366.34,-163.17 2366.35,-156.17"/>
</g>
<!-- Node14 -->
<g id="node10" class="node">
<title>Node14</title>
<g id="a_node10"><a xlink:href="d__cc__uty_8h.html" target="_top" xlink:title=" ">
<polygon fill="white" stroke="red" points="3464.5,-78.5 3464.5,-97.5 3583.5,-97.5 3583.5,-78.5 3464.5,-78.5"/>
<text text-anchor="middle" x="3524" y="-85.5" font-family="Helvetica,sans-Serif" font-size="10.00">include/d/cc/d_cc_uty.h</text>
</a>
</g>
</g>
<!-- Node7&#45;&gt;Node14 -->
<g id="edge9" class="edge">
<title>Node7&#45;&gt;Node14</title>
<path fill="none" stroke="midnightblue" d="M2366.18,-158.69C2577.62,-155.74 3243.03,-143.85 3455,-109 3470.14,-106.51 3486.66,-101.8 3499.74,-97.57"/>
<polygon fill="midnightblue" stroke="midnightblue" points="2366.11,-155.19 2356.16,-158.83 2366.21,-162.19 2366.11,-155.19"/>
</g>
<!-- Node20 -->
<g id="node11" class="node">
<title>Node20</title>
<g id="a_node11"><a xlink:href="d__item_8h.html" target="_top" xlink:title=" ">
<polygon fill="white" stroke="red" points="4281.5,-78.5 4281.5,-97.5 4376.5,-97.5 4376.5,-78.5 4281.5,-78.5"/>
<text text-anchor="middle" x="4329" y="-85.5" font-family="Helvetica,sans-Serif" font-size="10.00">include/d/d_item.h</text>
</a>
</g>
</g>
<!-- Node7&#45;&gt;Node20 -->
<g id="edge10" class="edge">
<title>Node7&#45;&gt;Node20</title>
<path fill="none" stroke="midnightblue" d="M2366.5,-159.29C2660.03,-158.12 3856.37,-150.83 4229,-109 4250.82,-106.55 4274.96,-101.78 4294.06,-97.52"/>
<polygon fill="midnightblue" stroke="midnightblue" points="2366.42,-155.79 2356.44,-159.33 2366.45,-162.79 2366.42,-155.79"/>
</g>
<!-- Node7&#45;&gt;Node17 -->
<g id="edge36" class="edge">
<title>Node7&#45;&gt;Node17</title>
<path fill="none" stroke="midnightblue" d="M2366.66,-159.42C2683.54,-158.81 4042.67,-153.6 4120,-109 4152.68,-90.15 4169.09,-44.3 4174.7,-25.14"/>
<polygon fill="midnightblue" stroke="midnightblue" points="2366.26,-155.92 2356.27,-159.44 2366.27,-162.92 2366.26,-155.92"/>
</g>
<!-- Node21 -->
<g id="node13" class="node">
<title>Node21</title>
<g id="a_node13"><a xlink:href="d__a__obj__item_8cpp.html" target="_top" xlink:title=" ">
<polygon fill="white" stroke="black" points="4249.5,-6 4249.5,-25 4374.5,-25 4374.5,-6 4249.5,-6"/>
<text text-anchor="middle" x="4312" y="-13" font-family="Helvetica,sans-Serif" font-size="10.00">src/d/a/d_a_obj_item.cpp</text>
</a>
</g>
</g>
<!-- Node7&#45;&gt;Node21 -->
<g id="edge39" class="edge">
<title>Node7&#45;&gt;Node21</title>
<path fill="none" stroke="midnightblue" d="M2366.38,-159.62C2674.93,-159.94 3977.66,-158.33 4152,-109 4214.06,-91.44 4277.3,-44.43 4301.61,-25.04"/>
<polygon fill="midnightblue" stroke="midnightblue" points="2366.26,-156.12 2356.26,-159.61 2366.25,-163.12 2366.26,-156.12"/>
</g>
<!-- Node7&#45;&gt;Node22 -->
<g id="edge45" class="edge">
<title>Node7&#45;&gt;Node22</title>
<path fill="none" stroke="midnightblue" d="M2366.26,-159.61C2709.73,-160 4295.66,-159.06 4386,-109 4401.82,-100.24 4427.3,-54.46 4439.72,-30.76"/>
<polygon fill="midnightblue" stroke="midnightblue" points="2366.23,-156.11 2356.22,-159.6 2366.22,-163.11 2366.23,-156.11"/>
</g>
<!-- Node25 -->
<g id="node16" class="node">
<title>Node25</title>
<g id="a_node16"><a xlink:href="d__kantera__icon__meter_8h.html" target="_top" xlink:title=" ">
<polygon fill="white" stroke="red" points="3769.5,-73 3769.5,-103 3870.5,-103 3870.5,-73 3769.5,-73"/>
<text text-anchor="start" x="3777.5" y="-91" font-family="Helvetica,sans-Serif" font-size="10.00">include/d/d_kantera</text>
<text text-anchor="middle" x="3820" y="-80" font-family="Helvetica,sans-Serif" font-size="10.00">_icon_meter.h</text>
</a>
</g>
</g>
<!-- Node7&#45;&gt;Node25 -->
<g id="edge15" class="edge">
<title>Node7&#45;&gt;Node25</title>
<path fill="none" stroke="midnightblue" d="M2366.32,-159.51C2612.24,-159.21 3482.28,-154.86 3755,-109 3763.27,-107.61 3771.95,-105.45 3780.18,-103.06"/>
<polygon fill="midnightblue" stroke="midnightblue" points="2366.1,-156.01 2356.11,-159.53 2366.11,-163.01 2366.1,-156.01"/>
</g>
<!-- Node28 -->
<g id="node17" class="node">
<title>Node28</title>
<g id="a_node17"><a xlink:href="d__model_8h.html" target="_top" xlink:title=" ">
<polygon fill="white" stroke="red" points="3888.5,-78.5 3888.5,-97.5 3991.5,-97.5 3991.5,-78.5 3888.5,-78.5"/>
<text text-anchor="middle" x="3940" y="-85.5" font-family="Helvetica,sans-Serif" font-size="10.00">include/d/d_model.h</text>
</a>
</g>
</g>
<!-- Node7&#45;&gt;Node28 -->
<g id="edge16" class="edge">
<title>Node7&#45;&gt;Node28</title>
<path fill="none" stroke="midnightblue" d="M2366.31,-159.92C2625.54,-161.22 3582.26,-162.21 3880,-109 3893.4,-106.6 3907.9,-101.84 3919.28,-97.56"/>
<polygon fill="midnightblue" stroke="midnightblue" points="2366.31,-156.42 2356.3,-159.87 2366.28,-163.42 2366.31,-156.42"/>
</g>
<!-- Node30 -->
<g id="node18" class="node">
<title>Node30</title>
<g id="a_node18"><a xlink:href="d__name_8h.html" target="_top" xlink:title=" ">
<polygon fill="white" stroke="red" points="4009.5,-78.5 4009.5,-97.5 4110.5,-97.5 4110.5,-78.5 4009.5,-78.5"/>
<text text-anchor="middle" x="4060" y="-85.5" font-family="Helvetica,sans-Serif" font-size="10.00">include/d/d_name.h</text>
</a>
</g>
</g>
<!-- Node7&#45;&gt;Node30 -->
<g id="edge17" class="edge">
<title>Node7&#45;&gt;Node30</title>
<path fill="none" stroke="midnightblue" d="M2366.06,-158.71C2657.78,-155.01 3838.2,-138.33 4001,-109 4014.2,-106.62 4028.45,-101.86 4039.65,-97.57"/>
<polygon fill="midnightblue" stroke="midnightblue" points="2366.01,-155.21 2356.06,-158.84 2366.1,-162.21 2366.01,-155.21"/>
</g>
<!-- Node32 -->
<g id="node19" class="node">
<title>Node32</title>
<g id="a_node19"><a xlink:href="d__file__sel__info_8h.html" target="_top" xlink:title=" ">
<polygon fill="white" stroke="red" points="458,-73 458,-103 554,-103 554,-73 458,-73"/>
<text text-anchor="start" x="466" y="-91" font-family="Helvetica,sans-Serif" font-size="10.00">include/d/file/d_file</text>
<text text-anchor="middle" x="506" y="-80" font-family="Helvetica,sans-Serif" font-size="10.00">_sel_info.h</text>
</a>
</g>
</g>
<!-- Node7&#45;&gt;Node32 -->
<g id="edge18" class="edge">
<title>Node7&#45;&gt;Node32</title>
<path fill="none" stroke="midnightblue" d="M2235.45,-157.63C1919.44,-148.6 568.24,-109.97 563,-109 555.58,-107.62 547.82,-105.44 540.5,-103.01"/>
<polygon fill="midnightblue" stroke="midnightblue" points="2235.72,-161.14 2245.81,-157.92 2235.92,-154.14 2235.72,-161.14"/>
</g>
<!-- Node35 -->
<g id="node20" class="node">
<title>Node35</title>
<g id="a_node20"><a xlink:href="d__file__sel__warning_8h.html" target="_top" xlink:title=" ">
<polygon fill="white" stroke="red" points="572,-73 572,-103 668,-103 668,-73 572,-73"/>
<text text-anchor="start" x="580" y="-91" font-family="Helvetica,sans-Serif" font-size="10.00">include/d/file/d_file</text>
<text text-anchor="middle" x="620" y="-80" font-family="Helvetica,sans-Serif" font-size="10.00">_sel_warning.h</text>
</a>
</g>
</g>
<!-- Node7&#45;&gt;Node35 -->
<g id="edge19" class="edge">
<title>Node7&#45;&gt;Node35</title>
<path fill="none" stroke="midnightblue" d="M2235.52,-157.6C1934.39,-148.84 696.48,-112.63 677,-109 669.68,-107.64 662.04,-105.49 654.81,-103.1"/>
<polygon fill="midnightblue" stroke="midnightblue" points="2235.73,-161.11 2245.83,-157.9 2235.94,-154.11 2235.73,-161.11"/>
</g>
<!-- Node37 -->
<g id="node21" class="node">
<title>Node37</title>
<g id="a_node21"><a xlink:href="d__msg__object_8h.html" target="_top" xlink:title=" ">
<polygon fill="white" stroke="red" points="686,-73 686,-103 796,-103 796,-73 686,-73"/>
<text text-anchor="start" x="694" y="-91" font-family="Helvetica,sans-Serif" font-size="10.00">include/d/msg/d_msg</text>
<text text-anchor="middle" x="741" y="-80" font-family="Helvetica,sans-Serif" font-size="10.00">_object.h</text>
</a>
</g>
</g>
<!-- Node7&#45;&gt;Node37 -->
<g id="edge21" class="edge">
<title>Node7&#45;&gt;Node37</title>
<path fill="none" stroke="midnightblue" d="M2235.76,-157.51C1952.96,-148.86 845.69,-114.69 810,-109 801.25,-107.61 792.05,-105.45 783.32,-103.06"/>
<polygon fill="midnightblue" stroke="midnightblue" points="2235.76,-161.01 2245.86,-157.82 2235.97,-154.01 2235.76,-161.01"/>
</g>
<!-- Node42 -->
<g id="node22" class="node">
<title>Node42</title>
<g id="a_node22"><a xlink:href="d__demo_8cpp.html" target="_top" xlink:title=" ">
<polygon fill="white" stroke="black" points="477,-6 477,-25 571,-25 571,-6 477,-6"/>
<text text-anchor="middle" x="524" y="-13" font-family="Helvetica,sans-Serif" font-size="10.00">src/d/d_demo.cpp</text>
</a>
</g>
</g>
<!-- Node7&#45;&gt;Node42 -->
<g id="edge50" class="edge">
<title>Node7&#45;&gt;Node42</title>
<path fill="none" stroke="midnightblue" d="M2235.67,-157.61C2138.65,-154.81 1950.76,-149.41 1791,-145 1753.72,-143.97 475.01,-135.72 449,-109 435.98,-95.62 440.23,-83.48 449,-67 459.84,-46.63 482.96,-33 500.68,-25.09"/>
<polygon fill="midnightblue" stroke="midnightblue" points="2235.81,-161.11 2245.91,-157.9 2236.01,-154.12 2235.81,-161.11"/>
</g>
<!-- Node46 -->
<g id="node23" class="node">
<title>Node46</title>
<g id="a_node23"><a xlink:href="d__menu__window_8cpp.html" target="_top" xlink:title=" ">
<polygon fill="white" stroke="black" points="661.5,-6 661.5,-25 820.5,-25 820.5,-6 661.5,-6"/>
<text text-anchor="middle" x="741" y="-13" font-family="Helvetica,sans-Serif" font-size="10.00">src/d/menu/d_menu_window.cpp</text>
</a>
</g>
</g>
<!-- Node7&#45;&gt;Node46 -->
<g id="edge55" class="edge">
<title>Node7&#45;&gt;Node46</title>
<path fill="none" stroke="midnightblue" d="M2235.81,-157.58C1954.62,-149.27 859.01,-116.44 843,-109 820.17,-98.39 823.39,-84.19 805,-67 788.04,-51.15 766.55,-34.88 753.29,-25.24"/>
<polygon fill="midnightblue" stroke="midnightblue" points="2235.76,-161.08 2245.86,-157.88 2235.96,-154.09 2235.76,-161.08"/>
</g>
<!-- Node7&#45;&gt;Node47 -->
<g id="edge57" class="edge">
<title>Node7&#45;&gt;Node47</title>
<path fill="none" stroke="midnightblue" d="M2235.67,-157.6C2138.65,-154.8 1950.76,-149.39 1791,-145 1715.78,-142.93 506.84,-137.02 437,-109 396.4,-92.71 361.72,-52.44 345.25,-30.8"/>
<polygon fill="midnightblue" stroke="midnightblue" points="2235.81,-161.11 2245.91,-157.9 2236.01,-154.11 2235.81,-161.11"/>
</g>
<!-- Node53 -->
<g id="node25" class="node">
<title>Node53</title>
<g id="a_node25"><a xlink:href="d__s__logo_8h.html" target="_top" xlink:title=" ">
<polygon fill="white" stroke="red" points="852.5,-78.5 852.5,-97.5 965.5,-97.5 965.5,-78.5 852.5,-78.5"/>
<text text-anchor="middle" x="909" y="-85.5" font-family="Helvetica,sans-Serif" font-size="10.00">include/d/s/d_s_logo.h</text>
</a>
</g>
</g>
<!-- Node7&#45;&gt;Node53 -->
<g id="edge27" class="edge">
<title>Node7&#45;&gt;Node53</title>
<path fill="none" stroke="midnightblue" d="M2235.38,-157.48C1976.43,-149.44 1036.67,-119.65 974,-109 959.57,-106.55 943.87,-101.78 931.51,-97.51"/>
<polygon fill="midnightblue" stroke="midnightblue" points="2235.64,-160.99 2245.75,-157.8 2235.86,-153.99 2235.64,-160.99"/>
</g>
<!-- Node55 -->
<g id="node26" class="node">
<title>Node55</title>
<g id="a_node26"><a xlink:href="d__s__play_8h.html" target="_top" xlink:title=" ">
<polygon fill="white" stroke="red" points="983.5,-78.5 983.5,-97.5 1096.5,-97.5 1096.5,-78.5 983.5,-78.5"/>
<text text-anchor="middle" x="1040" y="-85.5" font-family="Helvetica,sans-Serif" font-size="10.00">include/d/s/d_s_play.h</text>
</a>
</g>
</g>
<!-- Node7&#45;&gt;Node55 -->
<g id="edge28" class="edge">
<title>Node7&#45;&gt;Node55</title>
<path fill="none" stroke="midnightblue" d="M2235.59,-157.72C2001.93,-151.22 1216.38,-128.16 1105,-109 1090.69,-106.54 1075.12,-101.82 1062.81,-97.59"/>
<polygon fill="midnightblue" stroke="midnightblue" points="2235.55,-161.22 2245.65,-158 2235.75,-154.22 2235.55,-161.22"/>
</g>
<!-- Node59 -->
<g id="node27" class="node">
<title>Node59</title>
<g id="a_node27"><a xlink:href="d__msg__scrn__base_8h.html" target="_top" xlink:title=" ">
<polygon fill="white" stroke="red" points="1114.5,-73 1114.5,-103 1213.5,-103 1213.5,-73 1114.5,-73"/>
<text text-anchor="start" x="1122.5" y="-91" font-family="Helvetica,sans-Serif" font-size="10.00">include/msg/scrn/d</text>
<text text-anchor="middle" x="1164" y="-80" font-family="Helvetica,sans-Serif" font-size="10.00">_msg_scrn_base.h</text>
</a>
</g>
</g>
<!-- Node7&#45;&gt;Node59 -->
<g id="edge29" class="edge">
<title>Node7&#45;&gt;Node59</title>
<path fill="none" stroke="midnightblue" d="M2235.84,-157.53C2017.71,-150.79 1321.2,-128.02 1222,-109 1214.57,-107.58 1206.8,-105.4 1199.45,-103.01"/>
<polygon fill="midnightblue" stroke="midnightblue" points="2235.76,-161.03 2245.86,-157.84 2235.98,-154.03 2235.76,-161.03"/>
</g>
<!-- Node63 -->
<g id="node28" class="node">
<title>Node63</title>
<g id="a_node28"><a xlink:href="d__a__b__zant_8h.html" target="_top" xlink:title=" ">
<polygon fill="white" stroke="black" points="1231.5,-73 1231.5,-103 1352.5,-103 1352.5,-73 1231.5,-73"/>
<text text-anchor="start" x="1239.5" y="-91" font-family="Helvetica,sans-Serif" font-size="10.00">include/rel/d/a/b/d</text>
<text text-anchor="middle" x="1292" y="-80" font-family="Helvetica,sans-Serif" font-size="10.00">_a_b_zant/d_a_b_zant.h</text>
</a>
</g>
</g>
<!-- Node7&#45;&gt;Node63 -->
<g id="edge30" class="edge">
<title>Node7&#45;&gt;Node63</title>
<path fill="none" stroke="midnightblue" d="M2235.83,-157.73C2052.52,-152.47 1534.84,-135.62 1367,-109 1357.82,-107.54 1348.13,-105.42 1338.89,-103.09"/>
<polygon fill="midnightblue" stroke="midnightblue" points="2235.77,-161.23 2245.87,-158.01 2235.97,-154.23 2235.77,-161.23"/>
</g>
<!-- Node64 -->
<g id="node29" class="node">
<title>Node64</title>
<g id="a_node29"><a xlink:href="d__a__spinner_8h.html" target="_top" xlink:title=" ">
<polygon fill="white" stroke="black" points="3330,-73 3330,-103 3446,-103 3446,-73 3330,-73"/>
<text text-anchor="start" x="3338" y="-91" font-family="Helvetica,sans-Serif" font-size="10.00">include/rel/d/a/d_a</text>
<text text-anchor="middle" x="3388" y="-80" font-family="Helvetica,sans-Serif" font-size="10.00">_spinner/d_a_spinner.h</text>
</a>
</g>
</g>
<!-- Node7&#45;&gt;Node64 -->
<g id="edge31" class="edge">
<title>Node7&#45;&gt;Node64</title>
<path fill="none" stroke="midnightblue" d="M2366.09,-158.32C2560.73,-154.48 3136.23,-140.67 3321,-109 3329.38,-107.56 3338.18,-105.42 3346.55,-103.06"/>
<polygon fill="midnightblue" stroke="midnightblue" points="2365.94,-154.82 2356.01,-158.52 2366.08,-161.82 2365.94,-154.82"/>
</g>
<!-- Node65 -->
<g id="node30" class="node">
<title>Node65</title>
<g id="a_node30"><a xlink:href="d__a__player_8cpp.html" target="_top" xlink:title=" ">
<polygon fill="white" stroke="black" points="2327,-6 2327,-25 2441,-25 2441,-6 2327,-6"/>
<text text-anchor="middle" x="2384" y="-13" font-family="Helvetica,sans-Serif" font-size="10.00">src/d/a/d_a_player.cpp</text>
</a>
</g>
</g>
<!-- Node7&#45;&gt;Node65 -->
<g id="edge40" class="edge">
<title>Node7&#45;&gt;Node65</title>
<path fill="none" stroke="midnightblue" d="M2235.99,-157.04C2031.56,-149.17 1414.36,-124.19 1400,-109 1387.18,-95.44 1387.14,-80.53 1400,-67 1432.07,-33.24 2121.5,-20.38 2326.81,-17.28"/>
<polygon fill="midnightblue" stroke="midnightblue" points="2235.86,-160.54 2245.99,-157.43 2236.13,-153.55 2235.86,-160.54"/>
</g>
<!-- Node66 -->
<g id="node31" class="node">
<title>Node66</title>
<g id="a_node31"><a xlink:href="d__a__obj__yobikusa_8h.html" target="_top" xlink:title=" ">
<polygon fill="white" stroke="black" points="1409.5,-67.5 1409.5,-108.5 1514.5,-108.5 1514.5,-67.5 1409.5,-67.5"/>
<text text-anchor="start" x="1417.5" y="-96.5" font-family="Helvetica,sans-Serif" font-size="10.00">include/rel/d/a/obj</text>
<text text-anchor="start" x="1417.5" y="-85.5" font-family="Helvetica,sans-Serif" font-size="10.00">/d_a_obj_yobikusa/d</text>
<text text-anchor="middle" x="1462" y="-74.5" font-family="Helvetica,sans-Serif" font-size="10.00">_a_obj_yobikusa.h</text>
</a>
</g>
</g>
<!-- Node7&#45;&gt;Node66 -->
<g id="edge33" class="edge">
<title>Node7&#45;&gt;Node66</title>
<path fill="none" stroke="midnightblue" d="M2235.53,-157.33C2074,-151.63 1659.7,-134.88 1524,-109 1520.89,-108.41 1517.72,-107.7 1514.53,-106.92"/>
<polygon fill="midnightblue" stroke="midnightblue" points="2235.69,-160.83 2245.8,-157.69 2235.93,-153.84 2235.69,-160.83"/>
</g>
<!-- Node67 -->
<g id="node32" class="node">
<title>Node67</title>
<g id="a_node32"><a xlink:href="d__a__tag__telop_8h.html" target="_top" xlink:title=" ">
<polygon fill="white" stroke="black" points="1533,-67.5 1533,-108.5 1651,-108.5 1651,-67.5 1533,-67.5"/>
<text text-anchor="start" x="1541" y="-96.5" font-family="Helvetica,sans-Serif" font-size="10.00">include/rel/d/a/tag</text>
<text text-anchor="start" x="1541" y="-85.5" font-family="Helvetica,sans-Serif" font-size="10.00">/d_a_tag_telop/d_a_tag</text>
<text text-anchor="middle" x="1592" y="-74.5" font-family="Helvetica,sans-Serif" font-size="10.00">_telop.h</text>
</a>
</g>
</g>
<!-- Node7&#45;&gt;Node67 -->
<g id="edge34" class="edge">
<title>Node7&#45;&gt;Node67</title>
<path fill="none" stroke="midnightblue" d="M2235.43,-158.8C2118.75,-156.58 1867.8,-147.31 1660,-109 1657.1,-108.46 1654.14,-107.85 1651.16,-107.19"/>
<polygon fill="midnightblue" stroke="midnightblue" points="2235.56,-162.31 2245.62,-158.99 2235.69,-155.31 2235.56,-162.31"/>
</g>
<!-- Node68 -->
<g id="node33" class="node">
<title>Node68</title>
<g id="a_node33"><a xlink:href="c__dylink_8cpp.html" target="_top" xlink:title=" ">
<polygon fill="white" stroke="black" points="1669.5,-78.5 1669.5,-97.5 1764.5,-97.5 1764.5,-78.5 1669.5,-78.5"/>
<text text-anchor="middle" x="1717" y="-85.5" font-family="Helvetica,sans-Serif" font-size="10.00">src/c/c_dylink.cpp</text>
</a>
</g>
</g>
<!-- Node7&#45;&gt;Node68 -->
<g id="edge35" class="edge">
<title>Node7&#45;&gt;Node68</title>
<path fill="none" stroke="midnightblue" d="M2235.4,-158.29C2134.94,-155.3 1937.43,-144.94 1774,-109 1761.61,-106.27 1748.19,-101.66 1737.5,-97.55"/>
<polygon fill="midnightblue" stroke="midnightblue" points="2235.6,-161.8 2245.7,-158.58 2235.8,-154.8 2235.6,-161.8"/>
</g>
<!-- Node69 -->
<g id="node34" class="node">
<title>Node69</title>
<g id="a_node34"><a xlink:href="d__a__itembase_8cpp.html" target="_top" xlink:title=" ">
<polygon fill="white" stroke="black" points="1783,-78.5 1783,-97.5 1911,-97.5 1911,-78.5 1783,-78.5"/>
<text text-anchor="middle" x="1847" y="-85.5" font-family="Helvetica,sans-Serif" font-size="10.00">src/d/a/d_a_itembase.cpp</text>
</a>
</g>
</g>
<!-- Node7&#45;&gt;Node69 -->
<g id="edge37" class="edge">
<title>Node7&#45;&gt;Node69</title>
<path fill="none" stroke="midnightblue" d="M2235.32,-153.53C2159.03,-145.96 2029.62,-131.17 1920,-109 1904.93,-105.95 1888.39,-101.51 1874.87,-97.59"/>
<polygon fill="midnightblue" stroke="midnightblue" points="2235.43,-157.06 2245.72,-154.55 2236.11,-150.09 2235.43,-157.06"/>
</g>
<!-- Node70 -->
<g id="node35" class="node">
<title>Node70</title>
<g id="a_node35"><a xlink:href="d__a__obj_8cpp.html" target="_top" xlink:title=" ">
<polygon fill="white" stroke="black" points="1929.5,-78.5 1929.5,-97.5 2030.5,-97.5 2030.5,-78.5 1929.5,-78.5"/>
<text text-anchor="middle" x="1980" y="-85.5" font-family="Helvetica,sans-Serif" font-size="10.00">src/d/a/d_a_obj.cpp</text>
</a>
</g>
</g>
<!-- Node7&#45;&gt;Node70 -->
<g id="edge38" class="edge">
<title>Node7&#45;&gt;Node70</title>
<path fill="none" stroke="midnightblue" d="M2235.82,-149.32C2182.7,-140.44 2105.95,-126.29 2040,-109 2027.68,-105.77 2014.21,-101.36 2003.15,-97.5"/>
<polygon fill="midnightblue" stroke="midnightblue" points="2235.35,-152.79 2245.79,-150.97 2236.5,-145.89 2235.35,-152.79"/>
</g>
<!-- Node71 -->
<g id="node36" class="node">
<title>Node71</title>
<g id="a_node36"><a xlink:href="d__bg__s_8cpp.html" target="_top" xlink:title=" ">
<polygon fill="white" stroke="black" points="2049,-78.5 2049,-97.5 2153,-97.5 2153,-78.5 2049,-78.5"/>
<text text-anchor="middle" x="2101" y="-85.5" font-family="Helvetica,sans-Serif" font-size="10.00">src/d/bg/d_bg_s.cpp</text>
</a>
</g>
</g>
<!-- Node7&#45;&gt;Node71 -->
<g id="edge41" class="edge">
<title>Node7&#45;&gt;Node71</title>
<path fill="none" stroke="midnightblue" d="M2251.39,-142.01C2211.22,-127.85 2156.35,-108.51 2125.21,-97.53"/>
<polygon fill="midnightblue" stroke="midnightblue" points="2250.41,-145.38 2261.01,-145.4 2252.74,-138.78 2250.41,-145.38"/>
</g>
<!-- Node72 -->
<g id="node37" class="node">
<title>Node72</title>
<g id="a_node37"><a xlink:href="d__bg__s__movebg__actor_8cpp.html" target="_top" xlink:title=" ">
<polygon fill="white" stroke="black" points="2171,-73 2171,-103 2297,-103 2297,-73 2171,-73"/>
<text text-anchor="start" x="2179" y="-91" font-family="Helvetica,sans-Serif" font-size="10.00">src/d/bg/d_bg_s_movebg</text>
<text text-anchor="middle" x="2234" y="-80" font-family="Helvetica,sans-Serif" font-size="10.00">_actor.cpp</text>
</a>
</g>
</g>
<!-- Node7&#45;&gt;Node72 -->
<g id="edge42" class="edge">
<title>Node7&#45;&gt;Node72</title>
<path fill="none" stroke="midnightblue" d="M2280.44,-137.86C2269.75,-126.61 2256.98,-113.18 2247.54,-103.25"/>
<polygon fill="midnightblue" stroke="midnightblue" points="2278.02,-140.4 2287.44,-145.23 2283.09,-135.57 2278.02,-140.4"/>
</g>
<!-- Node73 -->
<g id="node38" class="node">
<title>Node73</title>
<g id="a_node38"><a xlink:href="d__bg__w_8cpp.html" target="_top" xlink:title=" ">
<polygon fill="white" stroke="black" points="2315.5,-78.5 2315.5,-97.5 2422.5,-97.5 2422.5,-78.5 2315.5,-78.5"/>
<text text-anchor="middle" x="2369" y="-85.5" font-family="Helvetica,sans-Serif" font-size="10.00">src/d/bg/d_bg_w.cpp</text>
</a>
</g>
</g>
<!-- Node7&#45;&gt;Node73 -->
<g id="edge43" class="edge">
<title>Node7&#45;&gt;Node73</title>
<path fill="none" stroke="midnightblue" d="M2321.97,-137.76C2334.91,-124.34 2350.82,-107.85 2360.42,-97.89"/>
<polygon fill="midnightblue" stroke="midnightblue" points="2319.18,-135.61 2314.76,-145.23 2324.22,-140.47 2319.18,-135.61"/>
</g>
<!-- Node74 -->
<g id="node39" class="node">
<title>Node74</title>
<g id="a_node39"><a xlink:href="d__cc__s_8cpp.html" target="_top" xlink:title=" ">
<polygon fill="white" stroke="black" points="2441,-78.5 2441,-97.5 2545,-97.5 2545,-78.5 2441,-78.5"/>
<text text-anchor="middle" x="2493" y="-85.5" font-family="Helvetica,sans-Serif" font-size="10.00">src/d/cc/d_cc_s.cpp</text>
</a>
</g>
</g>
<!-- Node7&#45;&gt;Node74 -->
<g id="edge44" class="edge">
<title>Node7&#45;&gt;Node74</title>
<path fill="none" stroke="midnightblue" d="M2348.87,-141.92C2387.41,-127.77 2439.92,-108.49 2469.76,-97.53"/>
<polygon fill="midnightblue" stroke="midnightblue" points="2347.57,-138.67 2339.39,-145.4 2349.99,-145.24 2347.57,-138.67"/>
</g>
<!-- Node75 -->
<g id="node40" class="node">
<title>Node75</title>
<g id="a_node40"><a xlink:href="d__com__static_8cpp.html" target="_top" xlink:title=" ">
<polygon fill="white" stroke="black" points="2563,-78.5 2563,-97.5 2703,-97.5 2703,-78.5 2563,-78.5"/>
<text text-anchor="middle" x="2633" y="-85.5" font-family="Helvetica,sans-Serif" font-size="10.00">src/d/com/d_com_static.cpp</text>
</a>
</g>
</g>
<!-- Node7&#45;&gt;Node75 -->
<g id="edge46" class="edge">
<title>Node7&#45;&gt;Node75</title>
<path fill="none" stroke="midnightblue" d="M2366.39,-147.4C2417.59,-137.69 2490.52,-123.36 2554,-109 2569.46,-105.5 2586.51,-101.24 2600.8,-97.55"/>
<polygon fill="midnightblue" stroke="midnightblue" points="2365.62,-143.98 2356.45,-149.27 2366.92,-150.86 2365.62,-143.98"/>
</g>
<!-- Node76 -->
<g id="node41" class="node">
<title>Node76</title>
<g id="a_node41"><a xlink:href="d__attention_8cpp.html" target="_top" xlink:title=" ">
<polygon fill="white" stroke="black" points="2721.5,-78.5 2721.5,-97.5 2828.5,-97.5 2828.5,-78.5 2721.5,-78.5"/>
<text text-anchor="middle" x="2775" y="-85.5" font-family="Helvetica,sans-Serif" font-size="10.00">src/d/d_attention.cpp</text>
</a>
</g>
</g>
<!-- Node7&#45;&gt;Node76 -->
<g id="edge47" class="edge">
<title>Node7&#45;&gt;Node76</title>
<path fill="none" stroke="midnightblue" d="M2366.18,-155.23C2447.76,-149.04 2591.43,-135.31 2712,-109 2725.34,-106.09 2739.89,-101.56 2751.65,-97.55"/>
<polygon fill="midnightblue" stroke="midnightblue" points="2365.77,-151.75 2356.06,-155.99 2366.29,-158.74 2365.77,-151.75"/>
</g>
<!-- Node77 -->
<g id="node42" class="node">
<title>Node77</title>
<g id="a_node42"><a xlink:href="d__cam__param_8cpp.html" target="_top" xlink:title=" ">
<polygon fill="white" stroke="black" points="2846.5,-78.5 2846.5,-97.5 2967.5,-97.5 2967.5,-78.5 2846.5,-78.5"/>
<text text-anchor="middle" x="2907" y="-85.5" font-family="Helvetica,sans-Serif" font-size="10.00">src/d/d_cam_param.cpp</text>
</a>
</g>
</g>
<!-- Node7&#45;&gt;Node77 -->
<g id="edge48" class="edge">
<title>Node7&#45;&gt;Node77</title>
<path fill="none" stroke="midnightblue" d="M2366.49,-157.31C2468.19,-153.03 2669.91,-140.97 2838,-109 2852.7,-106.2 2868.78,-101.63 2881.72,-97.57"/>
<polygon fill="midnightblue" stroke="midnightblue" points="2366.22,-153.82 2356.37,-157.73 2366.5,-160.82 2366.22,-153.82"/>
</g>
<!-- Node78 -->
<g id="node43" class="node">
<title>Node78</title>
<g id="a_node43"><a xlink:href="d__camera_8cpp.html" target="_top" xlink:title=" ">
<polygon fill="white" stroke="black" points="2986,-78.5 2986,-97.5 3088,-97.5 3088,-78.5 2986,-78.5"/>
<text text-anchor="middle" x="3037" y="-85.5" font-family="Helvetica,sans-Serif" font-size="10.00">src/d/d_camera.cpp</text>
</a>
</g>
</g>
<!-- Node7&#45;&gt;Node78 -->
<g id="edge49" class="edge">
<title>Node7&#45;&gt;Node78</title>
<path fill="none" stroke="midnightblue" d="M2366.65,-159.95C2488.29,-159.59 2756.41,-153.29 2977,-109 2990.13,-106.36 3004.38,-101.7 3015.69,-97.53"/>
<polygon fill="midnightblue" stroke="midnightblue" points="2366.38,-156.45 2356.39,-159.96 2366.4,-163.45 2366.38,-156.45"/>
</g>
<!-- Node79 -->
<g id="node44" class="node">
<title>Node79</title>
<g id="a_node44"><a xlink:href="d__eye__hl_8cpp.html" target="_top" xlink:title=" ">
<polygon fill="white" stroke="black" points="3106,-78.5 3106,-97.5 3204,-97.5 3204,-78.5 3106,-78.5"/>
<text text-anchor="middle" x="3155" y="-85.5" font-family="Helvetica,sans-Serif" font-size="10.00">src/d/d_eye_hl.cpp</text>
</a>
</g>
</g>
<!-- Node7&#45;&gt;Node79 -->
<g id="edge51" class="edge">
<title>Node7&#45;&gt;Node79</title>
<path fill="none" stroke="midnightblue" d="M2366.62,-157.61C2531.12,-152.49 2957.83,-136.88 3097,-109 3109.85,-106.43 3123.74,-101.71 3134.7,-97.5"/>
<polygon fill="midnightblue" stroke="midnightblue" points="2366.06,-154.12 2356.17,-157.93 2366.27,-161.12 2366.06,-154.12"/>
</g>
<!-- Node80 -->
<g id="node45" class="node">
<title>Node80</title>
<g id="a_node45"><a xlink:href="d__kyeff_8cpp.html" target="_top" xlink:title=" ">
<polygon fill="white" stroke="black" points="3222,-78.5 3222,-97.5 3312,-97.5 3312,-78.5 3222,-78.5"/>
<text text-anchor="middle" x="3267" y="-85.5" font-family="Helvetica,sans-Serif" font-size="10.00">src/d/d_kyeff.cpp</text>
</a>
</g>
</g>
<!-- Node7&#45;&gt;Node80 -->
<g id="edge52" class="edge">
<title>Node7&#45;&gt;Node80</title>
<path fill="none" stroke="midnightblue" d="M2366.31,-158.42C2547.02,-155.01 3050.99,-142.69 3213,-109 3224.94,-106.52 3237.77,-101.86 3247.92,-97.66"/>
<polygon fill="midnightblue" stroke="midnightblue" points="2366.09,-154.92 2356.16,-158.6 2366.22,-161.92 2366.09,-154.92"/>
</g>
<!-- Node7&#45;&gt;Node86 -->
<g id="edge53" class="edge">
<title>Node7&#45;&gt;Node86</title>
<path fill="none" stroke="midnightblue" d="M2366.65,-159.02C2701.63,-156.45 4212.68,-143.01 4419,-109 4433.24,-106.65 4448.7,-101.89 4460.86,-97.6"/>
<polygon fill="midnightblue" stroke="midnightblue" points="2366.13,-155.53 2356.15,-159.1 2366.18,-162.53 2366.13,-155.53"/>
</g>
<!-- Node7&#45;&gt;Node92 -->
<g id="edge54" class="edge">
<title>Node7&#45;&gt;Node92</title>
<path fill="none" stroke="midnightblue" d="M2235.67,-157.51C2138.66,-154.59 1950.77,-149.04 1791,-145 1429.25,-135.86 522.87,-146.99 163,-109 147.68,-107.38 131.26,-104.71 116.06,-101.84"/>
<polygon fill="midnightblue" stroke="midnightblue" points="2235.81,-161.02 2245.91,-157.82 2236.02,-154.02 2235.81,-161.02"/>
</g>
<!-- Node7&#45;&gt;Node97 -->
<g id="edge58" class="edge">
<title>Node7&#45;&gt;Node97</title>
<path fill="none" stroke="midnightblue" d="M2235.67,-157.57C2138.66,-154.71 1950.76,-149.25 1791,-145 1468.57,-136.42 660.86,-141.95 340,-109 316.06,-106.54 289.5,-101.77 268.48,-97.51"/>
<polygon fill="midnightblue" stroke="midnightblue" points="2235.81,-161.07 2245.91,-157.87 2236.02,-154.08 2235.81,-161.07"/>
</g>
<!-- Node8&#45;&gt;Node13 -->
<g id="edge8" class="edge">
<title>Node8&#45;&gt;Node13</title>
<path fill="none" stroke="midnightblue" d="M3667.32,-69.68C3674.48,-57.65 3683.91,-41.83 3690.61,-30.58"/>
<polygon fill="midnightblue" stroke="midnightblue" points="3664.26,-67.97 3662.15,-78.36 3670.27,-71.56 3664.26,-67.97"/>
</g>
<!-- Node20&#45;&gt;Node17 -->
<g id="edge11" class="edge">
<title>Node20&#45;&gt;Node17</title>
<path fill="none" stroke="midnightblue" d="M4301.37,-74.18C4270.62,-59.92 4221.8,-37.28 4195.4,-25.03"/>
<polygon fill="midnightblue" stroke="midnightblue" points="4300.12,-77.46 4310.67,-78.5 4303.07,-71.11 4300.12,-77.46"/>
</g>
<!-- Node20&#45;&gt;Node21 -->
<g id="edge12" class="edge">
<title>Node20&#45;&gt;Node21</title>
<path fill="none" stroke="midnightblue" d="M4324.5,-68.36C4321.14,-54.4 4316.68,-35.93 4314.1,-25.22"/>
<polygon fill="midnightblue" stroke="midnightblue" points="4321.17,-69.45 4326.92,-78.36 4327.97,-67.81 4321.17,-69.45"/>
</g>
<!-- Node20&#45;&gt;Node22 -->
<g id="edge13" class="edge">
<title>Node20&#45;&gt;Node22</title>
<path fill="none" stroke="midnightblue" d="M4352.21,-73.14C4372.8,-60.83 4402.74,-42.94 4423.44,-30.58"/>
<polygon fill="midnightblue" stroke="midnightblue" points="4350.26,-70.22 4343.47,-78.36 4353.85,-76.23 4350.26,-70.22"/>
</g>
<!-- Node20&#45;&gt;Node23 -->
<g id="edge14" class="edge">
<title>Node20&#45;&gt;Node23</title>
<path fill="none" stroke="midnightblue" d="M4369.31,-75.72C4419.78,-61.6 4505.12,-37.73 4550.5,-25.03"/>
<polygon fill="midnightblue" stroke="midnightblue" points="4368.08,-72.43 4359.4,-78.5 4369.97,-79.17 4368.08,-72.43"/>
</g>
<!-- Node37&#45;&gt;Node13 -->
<g id="edge25" class="edge">
<title>Node37&#45;&gt;Node13</title>
<path fill="none" stroke="midnightblue" d="M806.15,-72.46C818.34,-70.24 831.01,-68.27 843,-67 987.4,-51.69 3258.86,-22.11 3643.78,-17.2"/>
<polygon fill="midnightblue" stroke="midnightblue" points="805.22,-69.07 796.05,-74.37 806.53,-75.95 805.22,-69.07"/>
</g>
<!-- Node37&#45;&gt;Node17 -->
<g id="edge22" class="edge">
<title>Node37&#45;&gt;Node17</title>
<path fill="none" stroke="midnightblue" d="M806.14,-72.4C818.33,-70.19 831.01,-68.24 843,-67 1165.75,-33.65 3438.62,-38.68 3763,-31 3891.88,-27.95 4043.25,-22.06 4122.43,-18.81"/>
<polygon fill="midnightblue" stroke="midnightblue" points="805.22,-69.02 796.04,-74.31 806.52,-75.9 805.22,-69.02"/>
</g>
<!-- Node37&#45;&gt;Node42 -->
<g id="edge23" class="edge">
<title>Node37&#45;&gt;Node42</title>
<path fill="none" stroke="midnightblue" d="M688.27,-69.87C644.61,-55.69 584.42,-36.13 550.33,-25.05"/>
<polygon fill="midnightblue" stroke="midnightblue" points="687.28,-73.23 697.87,-72.99 689.44,-66.57 687.28,-73.23"/>
</g>
<!-- Node37&#45;&gt;Node46 -->
<g id="edge24" class="edge">
<title>Node37&#45;&gt;Node46</title>
<path fill="none" stroke="midnightblue" d="M741,-62.59C741,-49.71 741,-34.7 741,-25.39"/>
<polygon fill="midnightblue" stroke="midnightblue" points="737.5,-62.73 741,-72.73 744.5,-62.73 737.5,-62.73"/>
</g>
<!-- Node37&#45;&gt;Node47 -->
<g id="edge26" class="edge">
<title>Node37&#45;&gt;Node47</title>
<path fill="none" stroke="midnightblue" d="M689.49,-70.14C685.29,-69 681.09,-67.93 677,-67 575.49,-43.79 454.48,-28.85 387.03,-21.62"/>
<polygon fill="midnightblue" stroke="midnightblue" points="688.68,-73.55 699.26,-72.93 690.6,-66.82 688.68,-73.55"/>
</g>
<!-- Node64&#45;&gt;Node65 -->
<g id="edge32" class="edge">
<title>Node64&#45;&gt;Node65</title>
<path fill="none" stroke="midnightblue" d="M3336.59,-70.33C3331.36,-69.03 3326.1,-67.89 3321,-67 3150.46,-37.38 2617.42,-22.14 2441.2,-17.81"/>
<polygon fill="midnightblue" stroke="midnightblue" points="3335.98,-73.79 3346.55,-72.97 3337.78,-67.02 3335.98,-73.79"/>
</g>
<!-- Node107&#45;&gt;Node5 -->
<g id="edge61" class="edge">
<title>Node107&#45;&gt;Node5</title>
<path fill="none" stroke="midnightblue" d="M1792.21,-174.25C1914.74,-197.36 2165.54,-245.91 2283.33,-269.32"/>
<polygon fill="midnightblue" stroke="midnightblue" points="1792.66,-170.78 1782.19,-172.36 1791.37,-177.65 1792.66,-170.78"/>
</g>
<!-- Node107&#45;&gt;Node46 -->
<g id="edge62" class="edge">
<title>Node107&#45;&gt;Node46</title>
<path fill="none" stroke="midnightblue" d="M1651.48,-159.37C1390.3,-158.56 490.9,-152.6 449,-109 436.06,-95.54 436.98,-81.28 449,-67 462.65,-50.79 579.66,-34.53 661.35,-25"/>
<polygon fill="midnightblue" stroke="midnightblue" points="1651.59,-162.87 1661.6,-159.4 1651.61,-155.87 1651.59,-162.87"/>
</g>
<!-- Node107&#45;&gt;Node47 -->
<g id="edge63" class="edge">
<title>Node107&#45;&gt;Node47</title>
<path fill="none" stroke="midnightblue" d="M1651.62,-158.21C1373.32,-152.93 363.62,-132.21 340,-109 319.35,-88.71 325.27,-51.22 330.6,-30.75"/>
<polygon fill="midnightblue" stroke="midnightblue" points="1651.93,-161.71 1661.99,-158.4 1652.06,-154.71 1651.93,-161.71"/>
</g>
</g>
</svg>
