<?xml version="1.0" encoding="UTF-8" standalone="no"?>
<!DOCTYPE svg PUBLIC "-//W3C//DTD SVG 1.1//EN"
 "http://www.w3.org/Graphics/SVG/1.1/DTD/svg11.dtd">
<!-- Generated by graphviz version 2.50.0 (20220203.2022)
 -->
<!-- Title: include/d/d_vibration.h Pages: 1 -->
<svg width="5363pt" height="296pt"
 viewBox="0.00 0.00 5363.03 296.00" xmlns="http://www.w3.org/2000/svg" xmlns:xlink="http://www.w3.org/1999/xlink">
<g id="graph0" class="graph" transform="scale(1 1) rotate(0) translate(4 292)">
<title>include/d/d_vibration.h</title>
<polygon fill="white" stroke="transparent" points="-4,4 -4,-292 5359.03,-292 5359.03,4 -4,4"/>
<!-- Node1 -->
<g id="node1" class="node">
<title>Node1</title>
<g id="a_node1"><a xlink:title=" ">
<polygon fill="#bfbfbf" stroke="black" points="2401.03,-268.5 2401.03,-287.5 2514.03,-287.5 2514.03,-268.5 2401.03,-268.5"/>
<text text-anchor="middle" x="2457.53" y="-275.5" font-family="Helvetica,sans-Serif" font-size="10.00">include/d/d_vibration.h</text>
</a>
</g>
</g>
<!-- Node2 -->
<g id="node2" class="node">
<title>Node2</title>
<g id="a_node2"><a xlink:href="d__com__inf__game_8h.html" target="_top" xlink:title=" ">
<polygon fill="white" stroke="black" points="2339.53,-201.5 2339.53,-231.5 2449.53,-231.5 2449.53,-201.5 2339.53,-201.5"/>
<text text-anchor="start" x="2347.53" y="-219.5" font-family="Helvetica,sans-Serif" font-size="10.00">include/d/com/d_com</text>
<text text-anchor="middle" x="2394.53" y="-208.5" font-family="Helvetica,sans-Serif" font-size="10.00">_inf_game.h</text>
</a>
</g>
</g>
<!-- Node1&#45;&gt;Node2 -->
<g id="edge1" class="edge">
<title>Node1&#45;&gt;Node2</title>
<path fill="none" stroke="midnightblue" d="M2440.98,-261.37C2431.18,-252.11 2418.86,-240.48 2409.38,-231.52"/>
<polygon fill="midnightblue" stroke="midnightblue" points="2438.83,-264.15 2448.5,-268.48 2443.63,-259.06 2438.83,-264.15"/>
</g>
<!-- Node61 -->
<g id="node50" class="node">
<title>Node61</title>
<g id="a_node50"><a xlink:href="d__vibration_8cpp.html" target="_top" xlink:title=" ">
<polygon fill="white" stroke="black" points="2468.03,-207 2468.03,-226 2575.03,-226 2575.03,-207 2468.03,-207"/>
<text text-anchor="middle" x="2521.53" y="-214" font-family="Helvetica,sans-Serif" font-size="10.00">src/d/d_vibration.cpp</text>
</a>
</g>
</g>
<!-- Node1&#45;&gt;Node61 -->
<g id="edge62" class="edge">
<title>Node1&#45;&gt;Node61</title>
<path fill="none" stroke="midnightblue" d="M2474.04,-261.65C2486.24,-250.31 2502.4,-235.28 2512.38,-226.01"/>
<polygon fill="midnightblue" stroke="midnightblue" points="2471.64,-259.1 2466.7,-268.48 2476.4,-264.23 2471.64,-259.1"/>
</g>
<!-- Node3 -->
<g id="node3" class="node">
<title>Node3</title>
<g id="a_node3"><a xlink:href="d__a__npc_8h.html" target="_top" xlink:title=" ">
<polygon fill="white" stroke="black" points="347.03,-134.5 347.03,-153.5 458.03,-153.5 458.03,-134.5 347.03,-134.5"/>
<text text-anchor="middle" x="402.53" y="-141.5" font-family="Helvetica,sans-Serif" font-size="10.00">include/d/a/d_a_npc.h</text>
</a>
</g>
</g>
<!-- Node2&#45;&gt;Node3 -->
<g id="edge2" class="edge">
<title>Node2&#45;&gt;Node3</title>
<path fill="none" stroke="midnightblue" d="M2329.37,-215.8C2037.37,-216.84 847.42,-217.68 478.53,-165 461.78,-162.61 443.43,-157.84 428.95,-153.56"/>
<polygon fill="midnightblue" stroke="midnightblue" points="2329.39,-219.3 2339.38,-215.76 2329.37,-212.3 2329.39,-219.3"/>
</g>
<!-- Node5 -->
<g id="node5" class="node">
<title>Node5</title>
<g id="a_node5"><a xlink:href="d__msg__flow_8cpp.html" target="_top" xlink:title=" ">
<polygon fill="white" stroke="black" points="234.03,-0.5 234.03,-19.5 367.03,-19.5 367.03,-0.5 234.03,-0.5"/>
<text text-anchor="middle" x="300.53" y="-7.5" font-family="Helvetica,sans-Serif" font-size="10.00">src/d/msg/d_msg_flow.cpp</text>
</a>
</g>
</g>
<!-- Node2&#45;&gt;Node5 -->
<g id="edge54" class="edge">
<title>Node2&#45;&gt;Node5</title>
<path fill="none" stroke="midnightblue" d="M2329.3,-215.5C1964.6,-215.3 190.6,-211.94 85.53,-165 32.29,-141.22 -25.38,-100.3 12.53,-56 40.46,-23.37 157.98,-14.23 233.99,-11.77"/>
<polygon fill="midnightblue" stroke="midnightblue" points="2329.43,-219 2339.43,-215.5 2329.43,-212 2329.43,-219"/>
</g>
<!-- Node6 -->
<g id="node6" class="node">
<title>Node6</title>
<g id="a_node6"><a xlink:href="d__shop__system_8cpp.html" target="_top" xlink:title=" ">
<polygon fill="white" stroke="black" points="427.53,-0.5 427.53,-19.5 579.53,-19.5 579.53,-0.5 427.53,-0.5"/>
<text text-anchor="middle" x="503.53" y="-7.5" font-family="Helvetica,sans-Serif" font-size="10.00">src/d/shop/d_shop_system.cpp</text>
</a>
</g>
</g>
<!-- Node2&#45;&gt;Node6 -->
<g id="edge58" class="edge">
<title>Node2&#45;&gt;Node6</title>
<path fill="none" stroke="midnightblue" d="M2329.13,-215.58C2062.35,-215.61 1068.34,-212.52 1022.53,-165 1009.57,-151.56 1010.4,-137.19 1022.53,-123 1089.48,-44.7 1184.57,-165.3 1251.53,-87 1260.48,-76.53 1260.97,-66.03 1251.53,-56 1228.74,-31.8 765.6,-17.56 579.74,-12.8"/>
<polygon fill="midnightblue" stroke="midnightblue" points="2329.43,-219.08 2339.43,-215.58 2329.43,-212.08 2329.43,-219.08"/>
</g>
<!-- Node8 -->
<g id="node8" class="node">
<title>Node8</title>
<g id="a_node8"><a xlink:href="d__cc__uty_8h.html" target="_top" xlink:title=" ">
<polygon fill="white" stroke="red" points="1031.03,-134.5 1031.03,-153.5 1150.03,-153.5 1150.03,-134.5 1031.03,-134.5"/>
<text text-anchor="middle" x="1090.53" y="-141.5" font-family="Helvetica,sans-Serif" font-size="10.00">include/d/cc/d_cc_uty.h</text>
</a>
</g>
</g>
<!-- Node2&#45;&gt;Node8 -->
<g id="edge7" class="edge">
<title>Node2&#45;&gt;Node8</title>
<path fill="none" stroke="midnightblue" d="M2329.33,-214.91C2108.23,-212.57 1387.95,-202.21 1159.53,-165 1144.39,-162.53 1127.87,-157.82 1114.79,-153.59"/>
<polygon fill="midnightblue" stroke="midnightblue" points="2329.45,-218.41 2339.48,-215.01 2329.52,-211.41 2329.45,-218.41"/>
</g>
<!-- Node10 -->
<g id="node9" class="node">
<title>Node10</title>
<g id="a_node9"><a xlink:href="d__item_8h.html" target="_top" xlink:title=" ">
<polygon fill="white" stroke="red" points="129.03,-134.5 129.03,-153.5 224.03,-153.5 224.03,-134.5 129.03,-134.5"/>
<text text-anchor="middle" x="176.53" y="-141.5" font-family="Helvetica,sans-Serif" font-size="10.00">include/d/d_item.h</text>
</a>
</g>
</g>
<!-- Node2&#45;&gt;Node10 -->
<g id="edge8" class="edge">
<title>Node2&#45;&gt;Node10</title>
<path fill="none" stroke="midnightblue" d="M2329.25,-214.77C2024.36,-211.22 738.43,-194.75 337.53,-165 299.33,-162.17 256.28,-156.7 224.31,-152.2"/>
<polygon fill="midnightblue" stroke="midnightblue" points="2329.22,-218.27 2339.26,-214.89 2329.3,-211.27 2329.22,-218.27"/>
</g>
<!-- Node11 -->
<g id="node10" class="node">
<title>Node11</title>
<g id="a_node10"><a xlink:href="d__com__inf__game_8cpp.html" target="_top" xlink:title=" ">
<polygon fill="white" stroke="black" points="21.53,-56.5 21.53,-86.5 129.53,-86.5 129.53,-56.5 21.53,-56.5"/>
<text text-anchor="start" x="29.53" y="-74.5" font-family="Helvetica,sans-Serif" font-size="10.00">src/d/com/d_com_inf</text>
<text text-anchor="middle" x="75.53" y="-63.5" font-family="Helvetica,sans-Serif" font-size="10.00">_game.cpp</text>
</a>
</g>
</g>
<!-- Node2&#45;&gt;Node11 -->
<g id="edge35" class="edge">
<title>Node2&#45;&gt;Node11</title>
<path fill="none" stroke="midnightblue" d="M2329.08,-214.99C1961.33,-211.99 167.15,-195.82 119.53,-165 92.36,-147.41 81.58,-108.08 77.62,-86.81"/>
<polygon fill="midnightblue" stroke="midnightblue" points="2329.25,-218.49 2339.28,-215.07 2329.31,-211.49 2329.25,-218.49"/>
</g>
<!-- Node14 -->
<g id="node11" class="node">
<title>Node14</title>
<g id="a_node11"><a xlink:href="d__kantera__icon__meter_8h.html" target="_top" xlink:title=" ">
<polygon fill="white" stroke="red" points="488.03,-129 488.03,-159 589.03,-159 589.03,-129 488.03,-129"/>
<text text-anchor="start" x="496.03" y="-147" font-family="Helvetica,sans-Serif" font-size="10.00">include/d/d_kantera</text>
<text text-anchor="middle" x="538.53" y="-136" font-family="Helvetica,sans-Serif" font-size="10.00">_icon_meter.h</text>
</a>
</g>
</g>
<!-- Node2&#45;&gt;Node14 -->
<g id="edge12" class="edge">
<title>Node2&#45;&gt;Node14</title>
<path fill="none" stroke="midnightblue" d="M2328.94,-215.17C2051.37,-213.53 972.11,-204.69 634.53,-165 619.65,-163.25 603.66,-160.34 589.07,-157.27"/>
<polygon fill="midnightblue" stroke="midnightblue" points="2329.23,-218.67 2339.25,-215.23 2329.27,-211.67 2329.23,-218.67"/>
</g>
<!-- Node16 -->
<g id="node12" class="node">
<title>Node16</title>
<g id="a_node12"><a xlink:href="d__meter2__draw_8cpp.html" target="_top" xlink:title=" ">
<polygon fill="white" stroke="black" points="477.53,-56.5 477.53,-86.5 587.53,-86.5 587.53,-56.5 477.53,-56.5"/>
<text text-anchor="start" x="485.53" y="-74.5" font-family="Helvetica,sans-Serif" font-size="10.00">src/d/meter/d_meter2</text>
<text text-anchor="middle" x="532.53" y="-63.5" font-family="Helvetica,sans-Serif" font-size="10.00">_draw.cpp</text>
</a>
</g>
</g>
<!-- Node2&#45;&gt;Node16 -->
<g id="edge51" class="edge">
<title>Node2&#45;&gt;Node16</title>
<path fill="none" stroke="midnightblue" d="M2329.35,-215.42C2037.09,-214.81 854.73,-209.57 695.53,-165 637.87,-148.86 578.89,-108.14 550.27,-86.51"/>
<polygon fill="midnightblue" stroke="midnightblue" points="2329.36,-218.92 2339.36,-215.44 2329.37,-211.92 2329.36,-218.92"/>
</g>
<!-- Node17 -->
<g id="node13" class="node">
<title>Node17</title>
<g id="a_node13"><a xlink:href="d__model_8h.html" target="_top" xlink:title=" ">
<polygon fill="white" stroke="red" points="1168.03,-134.5 1168.03,-153.5 1271.03,-153.5 1271.03,-134.5 1168.03,-134.5"/>
<text text-anchor="middle" x="1219.53" y="-141.5" font-family="Helvetica,sans-Serif" font-size="10.00">include/d/d_model.h</text>
</a>
</g>
</g>
<!-- Node2&#45;&gt;Node17 -->
<g id="edge14" class="edge">
<title>Node2&#45;&gt;Node17</title>
<path fill="none" stroke="midnightblue" d="M2329.12,-214.86C2122.23,-212.47 1483.72,-202.2 1280.53,-165 1267.04,-162.53 1252.44,-157.82 1240.9,-153.59"/>
<polygon fill="midnightblue" stroke="midnightblue" points="2329.19,-218.36 2339.23,-214.97 2329.27,-211.36 2329.19,-218.36"/>
</g>
<!-- Node19 -->
<g id="node14" class="node">
<title>Node19</title>
<g id="a_node14"><a xlink:href="d__file__sel__info_8h.html" target="_top" xlink:title=" ">
<polygon fill="white" stroke="red" points="1289.53,-129 1289.53,-159 1385.53,-159 1385.53,-129 1289.53,-129"/>
<text text-anchor="start" x="1297.53" y="-147" font-family="Helvetica,sans-Serif" font-size="10.00">include/d/file/d_file</text>
<text text-anchor="middle" x="1337.53" y="-136" font-family="Helvetica,sans-Serif" font-size="10.00">_sel_info.h</text>
</a>
</g>
</g>
<!-- Node2&#45;&gt;Node19 -->
<g id="edge15" class="edge">
<title>Node2&#45;&gt;Node19</title>
<path fill="none" stroke="midnightblue" d="M2329.02,-214.64C2136.44,-211.72 1574.37,-200.33 1394.53,-165 1387.32,-163.59 1379.8,-161.45 1372.67,-159.09"/>
<polygon fill="midnightblue" stroke="midnightblue" points="2329.22,-218.14 2339.27,-214.79 2329.32,-211.14 2329.22,-218.14"/>
</g>
<!-- Node21 -->
<g id="node15" class="node">
<title>Node21</title>
<g id="a_node15"><a xlink:href="d__meter2_8h.html" target="_top" xlink:title=" ">
<polygon fill="white" stroke="red" points="1403.53,-134.5 1403.53,-153.5 1537.53,-153.5 1537.53,-134.5 1403.53,-134.5"/>
<text text-anchor="middle" x="1470.53" y="-141.5" font-family="Helvetica,sans-Serif" font-size="10.00">include/d/meter/d_meter2.h</text>
</a>
</g>
</g>
<!-- Node2&#45;&gt;Node21 -->
<g id="edge16" class="edge">
<title>Node2&#45;&gt;Node21</title>
<path fill="none" stroke="midnightblue" d="M2329.05,-215.91C2186.2,-215.87 1836.22,-210.65 1547.53,-165 1530.88,-162.37 1512.62,-157.7 1498.05,-153.54"/>
<polygon fill="midnightblue" stroke="midnightblue" points="2329.38,-219.41 2339.38,-215.91 2329.38,-212.41 2329.38,-219.41"/>
</g>
<!-- Node31 -->
<g id="node16" class="node">
<title>Node31</title>
<g id="a_node16"><a xlink:href="d__msg__object_8h.html" target="_top" xlink:title=" ">
<polygon fill="white" stroke="red" points="750.53,-129 750.53,-159 860.53,-159 860.53,-129 750.53,-129"/>
<text text-anchor="start" x="758.53" y="-147" font-family="Helvetica,sans-Serif" font-size="10.00">include/d/msg/d_msg</text>
<text text-anchor="middle" x="805.53" y="-136" font-family="Helvetica,sans-Serif" font-size="10.00">_object.h</text>
</a>
</g>
</g>
<!-- Node2&#45;&gt;Node31 -->
<g id="edge17" class="edge">
<title>Node2&#45;&gt;Node31</title>
<path fill="none" stroke="midnightblue" d="M2329.23,-215.49C2076.33,-215.11 1161.14,-210.57 874.53,-165 865.78,-163.61 856.58,-161.45 847.85,-159.06"/>
<polygon fill="midnightblue" stroke="midnightblue" points="2329.36,-218.99 2339.36,-215.5 2329.37,-211.99 2329.36,-218.99"/>
</g>
<!-- Node32 -->
<g id="node17" class="node">
<title>Node32</title>
<g id="a_node17"><a xlink:href="d__kankyo_8cpp.html" target="_top" xlink:title=" ">
<polygon fill="white" stroke="black" points="605.53,-62 605.53,-81 739.53,-81 739.53,-62 605.53,-62"/>
<text text-anchor="middle" x="672.53" y="-69" font-family="Helvetica,sans-Serif" font-size="10.00">src/d/kankyo/d_kankyo.cpp</text>
</a>
</g>
</g>
<!-- Node2&#45;&gt;Node32 -->
<g id="edge46" class="edge">
<title>Node2&#45;&gt;Node32</title>
<path fill="none" stroke="midnightblue" d="M2329.2,-215.09C2031.29,-213.01 813.01,-202.24 741.53,-165 705.99,-146.49 683.87,-100.44 675.89,-81.18"/>
<polygon fill="midnightblue" stroke="midnightblue" points="2329.38,-218.59 2339.4,-215.16 2329.43,-211.59 2329.38,-218.59"/>
</g>
<!-- Node26 -->
<g id="node18" class="node">
<title>Node26</title>
<g id="a_node18"><a xlink:href="d__menu__window_8cpp.html" target="_top" xlink:title=" ">
<polygon fill="white" stroke="black" points="833.03,-62 833.03,-81 992.03,-81 992.03,-62 833.03,-62"/>
<text text-anchor="middle" x="912.53" y="-69" font-family="Helvetica,sans-Serif" font-size="10.00">src/d/menu/d_menu_window.cpp</text>
</a>
</g>
</g>
<!-- Node2&#45;&gt;Node26 -->
<g id="edge49" class="edge">
<title>Node2&#45;&gt;Node26</title>
<path fill="none" stroke="midnightblue" d="M2329.04,-215.01C2056.05,-212.73 1020.12,-201.69 961.53,-165 930.72,-145.71 918.14,-100.1 914.11,-81.07"/>
<polygon fill="midnightblue" stroke="midnightblue" points="2329.16,-218.51 2339.19,-215.09 2329.22,-211.51 2329.16,-218.51"/>
</g>
<!-- Node28 -->
<g id="node19" class="node">
<title>Node28</title>
<g id="a_node19"><a xlink:href="d__meter2__info_8cpp.html" target="_top" xlink:title=" ">
<polygon fill="white" stroke="black" points="1010.53,-56.5 1010.53,-86.5 1120.53,-86.5 1120.53,-56.5 1010.53,-56.5"/>
<text text-anchor="start" x="1018.53" y="-74.5" font-family="Helvetica,sans-Serif" font-size="10.00">src/d/meter/d_meter2</text>
<text text-anchor="middle" x="1065.53" y="-63.5" font-family="Helvetica,sans-Serif" font-size="10.00">_info.cpp</text>
</a>
</g>
</g>
<!-- Node2&#45;&gt;Node28 -->
<g id="edge52" class="edge">
<title>Node2&#45;&gt;Node28</title>
<path fill="none" stroke="midnightblue" d="M2329.08,-215.67C2056.35,-216.06 1022.1,-214.29 974.53,-165 961.57,-151.57 965.06,-139.09 974.53,-123 984.52,-106.03 1002.5,-94.35 1019.85,-86.54"/>
<polygon fill="midnightblue" stroke="midnightblue" points="2329.23,-219.17 2339.22,-215.65 2329.22,-212.17 2329.23,-219.17"/>
</g>
<!-- Node27 -->
<g id="node20" class="node">
<title>Node27</title>
<g id="a_node20"><a xlink:href="d__meter__map_8cpp.html" target="_top" xlink:title=" ">
<polygon fill="white" stroke="black" points="1138.53,-56.5 1138.53,-86.5 1242.53,-86.5 1242.53,-56.5 1138.53,-56.5"/>
<text text-anchor="start" x="1146.53" y="-74.5" font-family="Helvetica,sans-Serif" font-size="10.00">src/d/meter/d_meter</text>
<text text-anchor="middle" x="1190.53" y="-63.5" font-family="Helvetica,sans-Serif" font-size="10.00">_map.cpp</text>
</a>
</g>
</g>
<!-- Node2&#45;&gt;Node27 -->
<g id="edge53" class="edge">
<title>Node2&#45;&gt;Node27</title>
<path fill="none" stroke="midnightblue" d="M2329.28,-215.65C2058.55,-215.93 1035.59,-213.79 988.53,-165 975.57,-151.57 977.04,-137.71 988.53,-123 989.71,-121.48 1078.92,-99.59 1138.38,-85.13"/>
<polygon fill="midnightblue" stroke="midnightblue" points="2329.35,-219.15 2339.34,-215.63 2329.34,-212.15 2329.35,-219.15"/>
</g>
<!-- Node34 -->
<g id="node21" class="node">
<title>Node34</title>
<g id="a_node21"><a xlink:href="d__s__play_8h.html" target="_top" xlink:title=" ">
<polygon fill="white" stroke="red" points="1556.03,-134.5 1556.03,-153.5 1669.03,-153.5 1669.03,-134.5 1556.03,-134.5"/>
<text text-anchor="middle" x="1612.53" y="-141.5" font-family="Helvetica,sans-Serif" font-size="10.00">include/d/s/d_s_play.h</text>
</a>
</g>
</g>
<!-- Node2&#45;&gt;Node34 -->
<g id="edge25" class="edge">
<title>Node2&#45;&gt;Node34</title>
<path fill="none" stroke="midnightblue" d="M2328.9,-215.75C2202.11,-215.17 1915.14,-208.62 1678.53,-165 1664.16,-162.35 1648.5,-157.69 1636.04,-153.53"/>
<polygon fill="midnightblue" stroke="midnightblue" points="2329.19,-219.25 2339.21,-215.79 2329.22,-212.25 2329.19,-219.25"/>
</g>
<!-- Node35 -->
<g id="node22" class="node">
<title>Node35</title>
<g id="a_node22"><a xlink:href="d__a__tag__telop_8h.html" target="_top" xlink:title=" ">
<polygon fill="white" stroke="black" points="1687.53,-123.5 1687.53,-164.5 1805.53,-164.5 1805.53,-123.5 1687.53,-123.5"/>
<text text-anchor="start" x="1695.53" y="-152.5" font-family="Helvetica,sans-Serif" font-size="10.00">include/rel/d/a/tag</text>
<text text-anchor="start" x="1695.53" y="-141.5" font-family="Helvetica,sans-Serif" font-size="10.00">/d_a_tag_telop/d_a_tag</text>
<text text-anchor="middle" x="1746.53" y="-130.5" font-family="Helvetica,sans-Serif" font-size="10.00">_telop.h</text>
</a>
</g>
</g>
<!-- Node2&#45;&gt;Node35 -->
<g id="edge26" class="edge">
<title>Node2&#45;&gt;Node35</title>
<path fill="none" stroke="midnightblue" d="M2329.29,-213.95C2221.49,-210.47 1999.78,-199.4 1815.53,-165 1812.34,-164.4 1809.09,-163.72 1805.82,-162.98"/>
<polygon fill="midnightblue" stroke="midnightblue" points="2329.26,-217.45 2339.36,-214.26 2329.48,-210.45 2329.26,-217.45"/>
</g>
<!-- Node36 -->
<g id="node23" class="node">
<title>Node36</title>
<g id="a_node23"><a xlink:href="c__dylink_8cpp.html" target="_top" xlink:title=" ">
<polygon fill="white" stroke="black" points="1824.03,-134.5 1824.03,-153.5 1919.03,-153.5 1919.03,-134.5 1824.03,-134.5"/>
<text text-anchor="middle" x="1871.53" y="-141.5" font-family="Helvetica,sans-Serif" font-size="10.00">src/c/c_dylink.cpp</text>
</a>
</g>
</g>
<!-- Node2&#45;&gt;Node36 -->
<g id="edge27" class="edge">
<title>Node2&#45;&gt;Node36</title>
<path fill="none" stroke="midnightblue" d="M2329.18,-213.14C2238.33,-208.8 2069.14,-196.84 1928.53,-165 1916.25,-162.22 1902.96,-157.65 1892.3,-153.58"/>
<polygon fill="midnightblue" stroke="midnightblue" points="2329.18,-216.65 2339.33,-213.61 2329.51,-209.65 2329.18,-216.65"/>
</g>
<!-- Node24 -->
<g id="node24" class="node">
<title>Node24</title>
<g id="a_node24"><a xlink:href="d__a__alink_8cpp.html" target="_top" xlink:title=" ">
<polygon fill="white" stroke="black" points="1937.03,-134.5 1937.03,-153.5 2046.03,-153.5 2046.03,-134.5 1937.03,-134.5"/>
<text text-anchor="middle" x="1991.53" y="-141.5" font-family="Helvetica,sans-Serif" font-size="10.00">src/d/a/d_a_alink.cpp</text>
</a>
</g>
</g>
<!-- Node2&#45;&gt;Node24 -->
<g id="edge28" class="edge">
<title>Node2&#45;&gt;Node24</title>
<path fill="none" stroke="midnightblue" d="M2329.2,-208.81C2260.52,-201.07 2149.59,-186.57 2055.53,-165 2042.25,-161.96 2027.74,-157.52 2015.9,-153.59"/>
<polygon fill="midnightblue" stroke="midnightblue" points="2329.11,-212.32 2339.44,-209.95 2329.88,-205.37 2329.11,-212.32"/>
</g>
<!-- Node37 -->
<g id="node25" class="node">
<title>Node37</title>
<g id="a_node25"><a xlink:href="d__a__itembase_8cpp.html" target="_top" xlink:title=" ">
<polygon fill="white" stroke="black" points="2064.53,-134.5 2064.53,-153.5 2192.53,-153.5 2192.53,-134.5 2064.53,-134.5"/>
<text text-anchor="middle" x="2128.53" y="-141.5" font-family="Helvetica,sans-Serif" font-size="10.00">src/d/a/d_a_itembase.cpp</text>
</a>
</g>
</g>
<!-- Node2&#45;&gt;Node37 -->
<g id="edge29" class="edge">
<title>Node2&#45;&gt;Node37</title>
<path fill="none" stroke="midnightblue" d="M2330.2,-198.86C2292.64,-189.1 2244.37,-176.47 2201.53,-165 2187.69,-161.29 2172.4,-157.12 2159.41,-153.54"/>
<polygon fill="midnightblue" stroke="midnightblue" points="2329.44,-202.28 2339.99,-201.41 2331.19,-195.51 2329.44,-202.28"/>
</g>
<!-- Node38 -->
<g id="node26" class="node">
<title>Node38</title>
<g id="a_node26"><a xlink:href="d__a__player_8cpp.html" target="_top" xlink:title=" ">
<polygon fill="white" stroke="black" points="2210.53,-134.5 2210.53,-153.5 2324.53,-153.5 2324.53,-134.5 2210.53,-134.5"/>
<text text-anchor="middle" x="2267.53" y="-141.5" font-family="Helvetica,sans-Serif" font-size="10.00">src/d/a/d_a_player.cpp</text>
</a>
</g>
</g>
<!-- Node2&#45;&gt;Node38 -->
<g id="edge30" class="edge">
<title>Node2&#45;&gt;Node38</title>
<path fill="none" stroke="midnightblue" d="M2360.24,-196.47C2335.03,-182.47 2301.97,-164.12 2282.9,-153.53"/>
<polygon fill="midnightblue" stroke="midnightblue" points="2358.69,-199.61 2369.13,-201.4 2362.09,-193.49 2358.69,-199.61"/>
</g>
<!-- Node39 -->
<g id="node27" class="node">
<title>Node39</title>
<g id="a_node27"><a xlink:href="d__bg__s_8cpp.html" target="_top" xlink:title=" ">
<polygon fill="white" stroke="black" points="2342.53,-134.5 2342.53,-153.5 2446.53,-153.5 2446.53,-134.5 2342.53,-134.5"/>
<text text-anchor="middle" x="2394.53" y="-141.5" font-family="Helvetica,sans-Serif" font-size="10.00">src/d/bg/d_bg_s.cpp</text>
</a>
</g>
</g>
<!-- Node2&#45;&gt;Node39 -->
<g id="edge31" class="edge">
<title>Node2&#45;&gt;Node39</title>
<path fill="none" stroke="midnightblue" d="M2394.53,-191.09C2394.53,-178.21 2394.53,-163.2 2394.53,-153.89"/>
<polygon fill="midnightblue" stroke="midnightblue" points="2391.03,-191.23 2394.53,-201.23 2398.03,-191.23 2391.03,-191.23"/>
</g>
<!-- Node40 -->
<g id="node28" class="node">
<title>Node40</title>
<g id="a_node28"><a xlink:href="d__bg__s__movebg__actor_8cpp.html" target="_top" xlink:title=" ">
<polygon fill="white" stroke="black" points="2464.53,-129 2464.53,-159 2590.53,-159 2590.53,-129 2464.53,-129"/>
<text text-anchor="start" x="2472.53" y="-147" font-family="Helvetica,sans-Serif" font-size="10.00">src/d/bg/d_bg_s_movebg</text>
<text text-anchor="middle" x="2527.53" y="-136" font-family="Helvetica,sans-Serif" font-size="10.00">_actor.cpp</text>
</a>
</g>
</g>
<!-- Node2&#45;&gt;Node40 -->
<g id="edge32" class="edge">
<title>Node2&#45;&gt;Node40</title>
<path fill="none" stroke="midnightblue" d="M2429.97,-196.72C2452.28,-184.89 2480.6,-169.87 2500.98,-159.07"/>
<polygon fill="midnightblue" stroke="midnightblue" points="2428.32,-193.63 2421.12,-201.4 2431.6,-199.81 2428.32,-193.63"/>
</g>
<!-- Node41 -->
<g id="node29" class="node">
<title>Node41</title>
<g id="a_node29"><a xlink:href="d__bg__w_8cpp.html" target="_top" xlink:title=" ">
<polygon fill="white" stroke="black" points="2609.03,-134.5 2609.03,-153.5 2716.03,-153.5 2716.03,-134.5 2609.03,-134.5"/>
<text text-anchor="middle" x="2662.53" y="-141.5" font-family="Helvetica,sans-Serif" font-size="10.00">src/d/bg/d_bg_w.cpp</text>
</a>
</g>
</g>
<!-- Node2&#45;&gt;Node41 -->
<g id="edge33" class="edge">
<title>Node2&#45;&gt;Node41</title>
<path fill="none" stroke="midnightblue" d="M2459.35,-200.69C2499.82,-191.15 2552.92,-178.12 2599.53,-165 2611.9,-161.52 2625.5,-157.25 2636.9,-153.56"/>
<polygon fill="midnightblue" stroke="midnightblue" points="2458.54,-197.28 2449.6,-202.97 2460.14,-204.1 2458.54,-197.28"/>
</g>
<!-- Node42 -->
<g id="node30" class="node">
<title>Node42</title>
<g id="a_node30"><a xlink:href="d__cc__s_8cpp.html" target="_top" xlink:title=" ">
<polygon fill="white" stroke="black" points="2734.53,-134.5 2734.53,-153.5 2838.53,-153.5 2838.53,-134.5 2734.53,-134.5"/>
<text text-anchor="middle" x="2786.53" y="-141.5" font-family="Helvetica,sans-Serif" font-size="10.00">src/d/cc/d_cc_s.cpp</text>
</a>
</g>
</g>
<!-- Node2&#45;&gt;Node42 -->
<g id="edge34" class="edge">
<title>Node2&#45;&gt;Node42</title>
<path fill="none" stroke="midnightblue" d="M2459.65,-201.1C2578.73,-180.58 2612.32,-190.99 2725.53,-165 2738.45,-162.03 2752.54,-157.5 2763.92,-153.5"/>
<polygon fill="midnightblue" stroke="midnightblue" points="2459.02,-197.66 2449.78,-202.84 2460.24,-204.55 2459.02,-197.66"/>
</g>
<!-- Node43 -->
<g id="node31" class="node">
<title>Node43</title>
<g id="a_node31"><a xlink:href="d__eye__hl_8cpp.html" target="_top" xlink:title=" ">
<polygon fill="white" stroke="black" points="2856.53,-134.5 2856.53,-153.5 2954.53,-153.5 2954.53,-134.5 2856.53,-134.5"/>
<text text-anchor="middle" x="2905.53" y="-141.5" font-family="Helvetica,sans-Serif" font-size="10.00">src/d/d_eye_hl.cpp</text>
</a>
</g>
</g>
<!-- Node2&#45;&gt;Node43 -->
<g id="edge36" class="edge">
<title>Node2&#45;&gt;Node43</title>
<path fill="none" stroke="midnightblue" d="M2459.69,-201.15C2632.42,-175.09 2681.37,-200.81 2847.53,-165 2860.13,-162.28 2873.77,-157.67 2884.66,-153.55"/>
<polygon fill="midnightblue" stroke="midnightblue" points="2459.1,-197.69 2449.75,-202.68 2460.17,-204.61 2459.1,-197.69"/>
</g>
<!-- Node44 -->
<g id="node32" class="node">
<title>Node44</title>
<g id="a_node32"><a xlink:href="d__kyeff_8cpp.html" target="_top" xlink:title=" ">
<polygon fill="white" stroke="black" points="2972.53,-134.5 2972.53,-153.5 3062.53,-153.5 3062.53,-134.5 2972.53,-134.5"/>
<text text-anchor="middle" x="3017.53" y="-141.5" font-family="Helvetica,sans-Serif" font-size="10.00">src/d/d_kyeff.cpp</text>
</a>
</g>
</g>
<!-- Node2&#45;&gt;Node44 -->
<g id="edge37" class="edge">
<title>Node2&#45;&gt;Node44</title>
<path fill="none" stroke="midnightblue" d="M2459.83,-201.15C2683.59,-169.73 2747.25,-211.78 2963.53,-165 2975.45,-162.42 2988.27,-157.76 2998.43,-153.58"/>
<polygon fill="midnightblue" stroke="midnightblue" points="2459.14,-197.71 2449.74,-202.6 2460.14,-204.64 2459.14,-197.71"/>
</g>
<!-- Node45 -->
<g id="node33" class="node">
<title>Node45</title>
<g id="a_node33"><a xlink:href="d__resorce_8cpp.html" target="_top" xlink:title=" ">
<polygon fill="white" stroke="black" points="3080.53,-134.5 3080.53,-153.5 3182.53,-153.5 3182.53,-134.5 3080.53,-134.5"/>
<text text-anchor="middle" x="3131.53" y="-141.5" font-family="Helvetica,sans-Serif" font-size="10.00">src/d/d_resorce.cpp</text>
</a>
</g>
</g>
<!-- Node2&#45;&gt;Node45 -->
<g id="edge38" class="edge">
<title>Node2&#45;&gt;Node45</title>
<path fill="none" stroke="midnightblue" d="M2459.89,-201.15C2731.22,-164.5 2807.24,-215.9 3071.53,-165 3084.79,-162.45 3099.16,-157.73 3110.51,-153.52"/>
<polygon fill="midnightblue" stroke="midnightblue" points="2459.16,-197.72 2449.74,-202.55 2460.12,-204.65 2459.16,-197.72"/>
</g>
<!-- Node46 -->
<g id="node34" class="node">
<title>Node46</title>
<g id="a_node34"><a xlink:href="d__simple__model_8cpp.html" target="_top" xlink:title=" ">
<polygon fill="white" stroke="black" points="3200.53,-134.5 3200.53,-153.5 3330.53,-153.5 3330.53,-134.5 3200.53,-134.5"/>
<text text-anchor="middle" x="3265.53" y="-141.5" font-family="Helvetica,sans-Serif" font-size="10.00">src/d/d_simple_model.cpp</text>
</a>
</g>
</g>
<!-- Node2&#45;&gt;Node46 -->
<g id="edge39" class="edge">
<title>Node2&#45;&gt;Node46</title>
<path fill="none" stroke="midnightblue" d="M2459.89,-201.16C2784.14,-158.57 2873.08,-215.26 3191.53,-165 3207.7,-162.45 3225.41,-157.73 3239.45,-153.52"/>
<polygon fill="midnightblue" stroke="midnightblue" points="2459.18,-197.72 2449.73,-202.51 2460.11,-204.66 2459.18,-197.72"/>
</g>
<!-- Node47 -->
<g id="node35" class="node">
<title>Node47</title>
<g id="a_node35"><a xlink:href="d__stage_8cpp.html" target="_top" xlink:title=" ">
<polygon fill="white" stroke="black" points="3348.53,-134.5 3348.53,-153.5 3442.53,-153.5 3442.53,-134.5 3348.53,-134.5"/>
<text text-anchor="middle" x="3395.53" y="-141.5" font-family="Helvetica,sans-Serif" font-size="10.00">src/d/d_stage.cpp</text>
</a>
</g>
</g>
<!-- Node2&#45;&gt;Node47 -->
<g id="edge40" class="edge">
<title>Node2&#45;&gt;Node47</title>
<path fill="none" stroke="midnightblue" d="M2459.86,-201.17C2849.51,-151.7 2958.56,-239.04 3339.53,-165 3352.09,-162.56 3365.63,-157.79 3376.24,-153.52"/>
<polygon fill="midnightblue" stroke="midnightblue" points="2459.2,-197.73 2449.73,-202.48 2460.09,-204.67 2459.2,-197.73"/>
</g>
<!-- Node48 -->
<g id="node36" class="node">
<title>Node48</title>
<g id="a_node36"><a xlink:href="d__timer_8cpp.html" target="_top" xlink:title=" ">
<polygon fill="white" stroke="black" points="3460.53,-134.5 3460.53,-153.5 3552.53,-153.5 3552.53,-134.5 3460.53,-134.5"/>
<text text-anchor="middle" x="3506.53" y="-141.5" font-family="Helvetica,sans-Serif" font-size="10.00">src/d/d_timer.cpp</text>
</a>
</g>
</g>
<!-- Node2&#45;&gt;Node48 -->
<g id="edge41" class="edge">
<title>Node2&#45;&gt;Node48</title>
<path fill="none" stroke="midnightblue" d="M2459.83,-201.18C2898.96,-146.31 3021.78,-248.77 3451.53,-165 3463.89,-162.59 3477.18,-157.82 3487.6,-153.55"/>
<polygon fill="midnightblue" stroke="midnightblue" points="2459.2,-197.73 2449.72,-202.46 2460.09,-204.68 2459.2,-197.73"/>
</g>
<!-- Node49 -->
<g id="node37" class="node">
<title>Node49</title>
<g id="a_node37"><a xlink:href="d__tresure_8cpp.html" target="_top" xlink:title=" ">
<polygon fill="white" stroke="black" points="3570.53,-134.5 3570.53,-153.5 3670.53,-153.5 3670.53,-134.5 3570.53,-134.5"/>
<text text-anchor="middle" x="3620.53" y="-141.5" font-family="Helvetica,sans-Serif" font-size="10.00">src/d/d_tresure.cpp</text>
</a>
</g>
</g>
<!-- Node2&#45;&gt;Node49 -->
<g id="edge42" class="edge">
<title>Node2&#45;&gt;Node49</title>
<path fill="none" stroke="midnightblue" d="M2459.84,-201.18C2947.52,-140.92 3082.68,-252.01 3561.53,-165 3574.72,-162.6 3588.98,-157.84 3600.17,-153.56"/>
<polygon fill="midnightblue" stroke="midnightblue" points="2459.21,-197.73 2449.72,-202.45 2460.08,-204.68 2459.21,-197.73"/>
</g>
<!-- Node50 -->
<g id="node38" class="node">
<title>Node50</title>
<g id="a_node38"><a xlink:href="d__event_8cpp.html" target="_top" xlink:title=" ">
<polygon fill="white" stroke="black" points="3689.03,-134.5 3689.03,-153.5 3810.03,-153.5 3810.03,-134.5 3689.03,-134.5"/>
<text text-anchor="middle" x="3749.53" y="-141.5" font-family="Helvetica,sans-Serif" font-size="10.00">src/d/event/d_event.cpp</text>
</a>
</g>
</g>
<!-- Node2&#45;&gt;Node50 -->
<g id="edge43" class="edge">
<title>Node2&#45;&gt;Node50</title>
<path fill="none" stroke="midnightblue" d="M2459.71,-201.2C2999.58,-135.03 3146.75,-247.65 3679.53,-165 3695.02,-162.6 3711.92,-157.83 3725.24,-153.55"/>
<polygon fill="midnightblue" stroke="midnightblue" points="2459.21,-197.73 2449.72,-202.44 2460.08,-204.68 2459.21,-197.73"/>
</g>
<!-- Node51 -->
<g id="node39" class="node">
<title>Node51</title>
<g id="a_node39"><a xlink:href="d__event__data_8cpp.html" target="_top" xlink:title=" ">
<polygon fill="white" stroke="black" points="3828.03,-129 3828.03,-159 3931.03,-159 3931.03,-129 3828.03,-129"/>
<text text-anchor="start" x="3836.03" y="-147" font-family="Helvetica,sans-Serif" font-size="10.00">src/d/event/d_event</text>
<text text-anchor="middle" x="3879.53" y="-136" font-family="Helvetica,sans-Serif" font-size="10.00">_data.cpp</text>
</a>
</g>
</g>
<!-- Node2&#45;&gt;Node51 -->
<g id="edge44" class="edge">
<title>Node2&#45;&gt;Node51</title>
<path fill="none" stroke="midnightblue" d="M2459.86,-201.22C2775.89,-165.05 3524.97,-216.81 3819.53,-165 3827.31,-163.63 3835.47,-161.45 3843.16,-159.02"/>
<polygon fill="midnightblue" stroke="midnightblue" points="2459.23,-197.77 2449.72,-202.43 2460.06,-204.72 2459.23,-197.77"/>
</g>
<!-- Node52 -->
<g id="node40" class="node">
<title>Node52</title>
<g id="a_node40"><a xlink:href="d__event__manager_8cpp.html" target="_top" xlink:title=" ">
<polygon fill="white" stroke="black" points="3949.03,-129 3949.03,-159 4052.03,-159 4052.03,-129 3949.03,-129"/>
<text text-anchor="start" x="3957.03" y="-147" font-family="Helvetica,sans-Serif" font-size="10.00">src/d/event/d_event</text>
<text text-anchor="middle" x="4000.53" y="-136" font-family="Helvetica,sans-Serif" font-size="10.00">_manager.cpp</text>
</a>
</g>
</g>
<!-- Node2&#45;&gt;Node52 -->
<g id="edge45" class="edge">
<title>Node2&#45;&gt;Node52</title>
<path fill="none" stroke="midnightblue" d="M2459.72,-201.23C2802.46,-162.15 3619.4,-221.12 3940.53,-165 3948.32,-163.64 3956.47,-161.46 3964.17,-159.03"/>
<polygon fill="midnightblue" stroke="midnightblue" points="2459.24,-197.77 2449.72,-202.42 2460.06,-204.72 2459.24,-197.77"/>
</g>
<!-- Node53 -->
<g id="node41" class="node">
<title>Node53</title>
<g id="a_node41"><a xlink:href="d__kankyo__wether_8cpp.html" target="_top" xlink:title=" ">
<polygon fill="white" stroke="black" points="4070.53,-129 4070.53,-159 4186.53,-159 4186.53,-129 4070.53,-129"/>
<text text-anchor="start" x="4078.53" y="-147" font-family="Helvetica,sans-Serif" font-size="10.00">src/d/kankyo/d_kankyo</text>
<text text-anchor="middle" x="4128.53" y="-136" font-family="Helvetica,sans-Serif" font-size="10.00">_wether.cpp</text>
</a>
</g>
</g>
<!-- Node2&#45;&gt;Node53 -->
<g id="edge47" class="edge">
<title>Node2&#45;&gt;Node53</title>
<path fill="none" stroke="midnightblue" d="M2459.69,-201.24C2829.17,-159.14 3712.95,-219.92 4061.53,-165 4070.16,-163.64 4079.24,-161.46 4087.83,-159.04"/>
<polygon fill="midnightblue" stroke="midnightblue" points="2459.24,-197.76 2449.72,-202.41 2460.06,-204.72 2459.24,-197.76"/>
</g>
<!-- Node54 -->
<g id="node42" class="node">
<title>Node54</title>
<g id="a_node42"><a xlink:href="d__map__path__dmap_8cpp.html" target="_top" xlink:title=" ">
<polygon fill="white" stroke="black" points="4204.53,-129 4204.53,-159 4320.53,-159 4320.53,-129 4204.53,-129"/>
<text text-anchor="start" x="4212.53" y="-147" font-family="Helvetica,sans-Serif" font-size="10.00">src/d/map/d_map_path</text>
<text text-anchor="middle" x="4262.53" y="-136" font-family="Helvetica,sans-Serif" font-size="10.00">_dmap.cpp</text>
</a>
</g>
</g>
<!-- Node2&#45;&gt;Node54 -->
<g id="edge48" class="edge">
<title>Node2&#45;&gt;Node54</title>
<path fill="none" stroke="midnightblue" d="M2459.91,-201.21C2859.17,-155.95 3817.57,-224.22 4195.53,-165 4204.16,-163.65 4213.24,-161.47 4221.83,-159.05"/>
<polygon fill="midnightblue" stroke="midnightblue" points="2459.24,-197.76 2449.72,-202.41 2460.06,-204.72 2459.24,-197.76"/>
</g>
<!-- Node55 -->
<g id="node43" class="node">
<title>Node55</title>
<g id="a_node43"><a xlink:href="d__menu__window__HIO_8cpp.html" target="_top" xlink:title=" ">
<polygon fill="white" stroke="black" points="4339.03,-129 4339.03,-159 4480.03,-159 4480.03,-129 4339.03,-129"/>
<text text-anchor="start" x="4347.03" y="-147" font-family="Helvetica,sans-Serif" font-size="10.00">src/d/menu/d_menu_window</text>
<text text-anchor="middle" x="4409.53" y="-136" font-family="Helvetica,sans-Serif" font-size="10.00">_HIO.cpp</text>
</a>
</g>
</g>
<!-- Node2&#45;&gt;Node55 -->
<g id="edge50" class="edge">
<title>Node2&#45;&gt;Node55</title>
<path fill="none" stroke="midnightblue" d="M2459.73,-201.23C2888.5,-152.56 3920.74,-219.32 4329.53,-165 4339.75,-163.64 4350.54,-161.47 4360.79,-159.04"/>
<polygon fill="midnightblue" stroke="midnightblue" points="2459.24,-197.76 2449.72,-202.4 2460.06,-204.71 2459.24,-197.76"/>
</g>
<!-- Node56 -->
<g id="node44" class="node">
<title>Node56</title>
<g id="a_node44"><a xlink:href="d__s__room_8cpp.html" target="_top" xlink:title=" ">
<polygon fill="white" stroke="black" points="4498.53,-134.5 4498.53,-153.5 4608.53,-153.5 4608.53,-134.5 4498.53,-134.5"/>
<text text-anchor="middle" x="4553.53" y="-141.5" font-family="Helvetica,sans-Serif" font-size="10.00">src/d/s/d_s_room.cpp</text>
</a>
</g>
</g>
<!-- Node2&#45;&gt;Node56 -->
<g id="edge55" class="edge">
<title>Node2&#45;&gt;Node56</title>
<path fill="none" stroke="midnightblue" d="M2459.88,-201.21C2924.15,-148.91 4047.39,-236.49 4489.53,-165 4503.89,-162.68 4519.49,-157.85 4531.69,-153.53"/>
<polygon fill="midnightblue" stroke="midnightblue" points="2459.25,-197.76 2449.72,-202.39 2460.05,-204.72 2459.25,-197.76"/>
</g>
<!-- Node29 -->
<g id="node45" class="node">
<title>Node29</title>
<g id="a_node45"><a xlink:href="d__save_8cpp.html" target="_top" xlink:title=" ">
<polygon fill="white" stroke="black" points="4627.03,-134.5 4627.03,-153.5 4742.03,-153.5 4742.03,-134.5 4627.03,-134.5"/>
<text text-anchor="middle" x="4684.53" y="-141.5" font-family="Helvetica,sans-Serif" font-size="10.00">src/d/save/d_save.cpp</text>
</a>
</g>
</g>
<!-- Node2&#45;&gt;Node29 -->
<g id="edge56" class="edge">
<title>Node2&#45;&gt;Node29</title>
<path fill="none" stroke="midnightblue" d="M2459.78,-201.22C2952.29,-145.77 4146.78,-237.78 4617.53,-165 4632.52,-162.68 4648.85,-157.86 4661.63,-153.53"/>
<polygon fill="midnightblue" stroke="midnightblue" points="2459.25,-197.76 2449.72,-202.39 2460.05,-204.72 2459.25,-197.76"/>
</g>
<!-- Node57 -->
<g id="node46" class="node">
<title>Node57</title>
<g id="a_node46"><a xlink:href="d__save__HIO_8cpp.html" target="_top" xlink:title=" ">
<polygon fill="white" stroke="black" points="4760.53,-134.5 4760.53,-153.5 4898.53,-153.5 4898.53,-134.5 4760.53,-134.5"/>
<text text-anchor="middle" x="4829.53" y="-141.5" font-family="Helvetica,sans-Serif" font-size="10.00">src/d/save/d_save_HIO.cpp</text>
</a>
</g>
</g>
<!-- Node2&#45;&gt;Node57 -->
<g id="edge57" class="edge">
<title>Node2&#45;&gt;Node57</title>
<path fill="none" stroke="midnightblue" d="M2460.01,-201.2C2982.26,-142.44 4249.98,-232.28 4751.53,-165 4768.85,-162.68 4787.85,-157.85 4802.76,-153.53"/>
<polygon fill="midnightblue" stroke="midnightblue" points="2459.25,-197.76 2449.71,-202.39 2460.05,-204.72 2459.25,-197.76"/>
</g>
<!-- Node58 -->
<g id="node47" class="node">
<title>Node58</title>
<g id="a_node47"><a xlink:href="m__Do__graphic_8cpp.html" target="_top" xlink:title=" ">
<polygon fill="white" stroke="black" points="4916.53,-134.5 4916.53,-153.5 5058.53,-153.5 5058.53,-134.5 4916.53,-134.5"/>
<text text-anchor="middle" x="4987.53" y="-141.5" font-family="Helvetica,sans-Serif" font-size="10.00">src/m_Do/m_Do_graphic.cpp</text>
</a>
</g>
</g>
<!-- Node2&#45;&gt;Node58 -->
<g id="edge59" class="edge">
<title>Node2&#45;&gt;Node58</title>
<path fill="none" stroke="midnightblue" d="M2459.88,-201.21C3016.53,-138.63 4371.34,-235.01 4907.53,-165 4925.27,-162.68 4944.76,-157.86 4960.06,-153.53"/>
<polygon fill="midnightblue" stroke="midnightblue" points="2459.25,-197.76 2449.71,-202.38 2460.05,-204.71 2459.25,-197.76"/>
</g>
<!-- Node59 -->
<g id="node48" class="node">
<title>Node59</title>
<g id="a_node48"><a xlink:href="m__Do__machine__exception_8cpp.html" target="_top" xlink:title=" ">
<polygon fill="white" stroke="black" points="5077.03,-129 5077.03,-159 5206.03,-159 5206.03,-129 5077.03,-129"/>
<text text-anchor="start" x="5085.03" y="-147" font-family="Helvetica,sans-Serif" font-size="10.00">src/m_Do/m_Do_machine</text>
<text text-anchor="middle" x="5141.53" y="-136" font-family="Helvetica,sans-Serif" font-size="10.00">_exception.cpp</text>
</a>
</g>
</g>
<!-- Node2&#45;&gt;Node59 -->
<g id="edge60" class="edge">
<title>Node2&#45;&gt;Node59</title>
<path fill="none" stroke="midnightblue" d="M2459.66,-201.24C3051.55,-134.79 4496.72,-244.79 5067.53,-165 5077.02,-163.67 5087.02,-161.51 5096.5,-159.09"/>
<polygon fill="midnightblue" stroke="midnightblue" points="2459.25,-197.76 2449.71,-202.38 2460.05,-204.71 2459.25,-197.76"/>
</g>
<!-- Node60 -->
<g id="node49" class="node">
<title>Node60</title>
<g id="a_node49"><a xlink:href="m__Do__main_8cpp.html" target="_top" xlink:title=" ">
<polygon fill="white" stroke="black" points="5224.03,-134.5 5224.03,-153.5 5355.03,-153.5 5355.03,-134.5 5224.03,-134.5"/>
<text text-anchor="middle" x="5289.53" y="-141.5" font-family="Helvetica,sans-Serif" font-size="10.00">src/m_Do/m_Do_main.cpp</text>
</a>
</g>
</g>
<!-- Node2&#45;&gt;Node60 -->
<g id="edge61" class="edge">
<title>Node2&#45;&gt;Node60</title>
<path fill="none" stroke="midnightblue" d="M2459.75,-201.23C3084.42,-131.22 4612.16,-249.11 5215.53,-165 5232,-162.7 5250.03,-157.88 5264.17,-153.55"/>
<polygon fill="midnightblue" stroke="midnightblue" points="2459.25,-197.76 2449.71,-202.38 2460.05,-204.71 2459.25,-197.76"/>
</g>
<!-- Node4 -->
<g id="node4" class="node">
<title>Node4</title>
<g id="a_node4"><a xlink:href="d__shop__system_8h.html" target="_top" xlink:title=" ">
<polygon fill="white" stroke="black" points="345.53,-56.5 345.53,-86.5 459.53,-86.5 459.53,-56.5 345.53,-56.5"/>
<text text-anchor="start" x="353.53" y="-74.5" font-family="Helvetica,sans-Serif" font-size="10.00">include/d/shop/d_shop</text>
<text text-anchor="middle" x="402.53" y="-63.5" font-family="Helvetica,sans-Serif" font-size="10.00">_system.h</text>
</a>
</g>
</g>
<!-- Node3&#45;&gt;Node4 -->
<g id="edge3" class="edge">
<title>Node3&#45;&gt;Node4</title>
<path fill="none" stroke="midnightblue" d="M402.53,-124.24C402.53,-112.41 402.53,-97.38 402.53,-86.58"/>
<polygon fill="midnightblue" stroke="midnightblue" points="399.03,-124.36 402.53,-134.36 406.03,-124.36 399.03,-124.36"/>
</g>
<!-- Node7 -->
<g id="node7" class="node">
<title>Node7</title>
<g id="a_node7"><a xlink:href="d__a__npc_8cpp.html" target="_top" xlink:title=" ">
<polygon fill="white" stroke="black" points="223.53,-62 223.53,-81 327.53,-81 327.53,-62 223.53,-62"/>
<text text-anchor="middle" x="275.53" y="-69" font-family="Helvetica,sans-Serif" font-size="10.00">src/d/a/d_a_npc.cpp</text>
</a>
</g>
</g>
<!-- Node3&#45;&gt;Node7 -->
<g id="edge6" class="edge">
<title>Node3&#45;&gt;Node7</title>
<path fill="none" stroke="midnightblue" d="M378.21,-129.5C352.59,-115.28 313.01,-93.3 291.23,-81.22"/>
<polygon fill="midnightblue" stroke="midnightblue" points="376.51,-132.56 386.96,-134.36 379.91,-126.44 376.51,-132.56"/>
</g>
<!-- Node4&#45;&gt;Node5 -->
<g id="edge4" class="edge">
<title>Node4&#45;&gt;Node5</title>
<path fill="none" stroke="midnightblue" d="M369.72,-51.36C351.43,-40.69 329.56,-27.93 315.37,-19.66"/>
<polygon fill="midnightblue" stroke="midnightblue" points="367.95,-54.38 378.36,-56.4 371.48,-48.34 367.95,-54.38"/>
</g>
<!-- Node4&#45;&gt;Node6 -->
<g id="edge5" class="edge">
<title>Node4&#45;&gt;Node6</title>
<path fill="none" stroke="midnightblue" d="M435.51,-51.07C453.52,-40.46 474.91,-27.86 488.83,-19.66"/>
<polygon fill="midnightblue" stroke="midnightblue" points="433.3,-48.31 426.46,-56.4 436.86,-54.34 433.3,-48.31"/>
</g>
<!-- Node10&#45;&gt;Node5 -->
<g id="edge10" class="edge">
<title>Node10&#45;&gt;Node5</title>
<path fill="none" stroke="midnightblue" d="M172.2,-124.48C168.88,-105.41 167.01,-75.78 181.53,-56 195.58,-36.86 218.81,-25.86 241.04,-19.54"/>
<polygon fill="midnightblue" stroke="midnightblue" points="168.78,-125.23 174.21,-134.33 175.64,-123.83 168.78,-125.23"/>
</g>
<!-- Node10&#45;&gt;Node6 -->
<g id="edge11" class="edge">
<title>Node10&#45;&gt;Node6</title>
<path fill="none" stroke="midnightblue" d="M179.32,-124.29C183.38,-104.12 192.93,-72.65 214.53,-56 231.19,-43.15 347.43,-28.08 427.31,-19.05"/>
<polygon fill="midnightblue" stroke="midnightblue" points="175.82,-123.97 177.55,-134.43 182.72,-125.18 175.82,-123.97"/>
</g>
<!-- Node10&#45;&gt;Node11 -->
<g id="edge9" class="edge">
<title>Node10&#45;&gt;Node11</title>
<path fill="none" stroke="midnightblue" d="M155.71,-128.47C138.12,-116.19 113.09,-98.72 95.69,-86.58"/>
<polygon fill="midnightblue" stroke="midnightblue" points="153.94,-131.5 164.14,-134.36 157.95,-125.76 153.94,-131.5"/>
</g>
<!-- Node14&#45;&gt;Node16 -->
<g id="edge13" class="edge">
<title>Node14&#45;&gt;Node16</title>
<path fill="none" stroke="midnightblue" d="M536.46,-118.73C535.55,-108.07 534.52,-95.91 533.74,-86.75"/>
<polygon fill="midnightblue" stroke="midnightblue" points="532.98,-119.07 537.31,-128.73 539.95,-118.47 532.98,-119.07"/>
</g>
<!-- Node31&#45;&gt;Node5 -->
<g id="edge23" class="edge">
<title>Node31&#45;&gt;Node5</title>
<path fill="none" stroke="midnightblue" d="M796.88,-119.37C788.06,-98.92 772.27,-70.41 748.53,-56 732.47,-46.25 487.87,-25.77 367.05,-16.17"/>
<polygon fill="midnightblue" stroke="midnightblue" points="793.66,-120.72 800.66,-128.67 800.14,-118.09 793.66,-120.72"/>
</g>
<!-- Node31&#45;&gt;Node6 -->
<g id="edge24" class="edge">
<title>Node31&#45;&gt;Node6</title>
<path fill="none" stroke="midnightblue" d="M805.6,-118.75C804.27,-98.93 799.05,-71.71 781.53,-56 752.45,-29.93 651.41,-18.87 579.54,-14.24"/>
<polygon fill="midnightblue" stroke="midnightblue" points="802.1,-119.02 805.98,-128.88 809.1,-118.75 802.1,-119.02"/>
</g>
<!-- Node31&#45;&gt;Node16 -->
<g id="edge20" class="edge">
<title>Node31&#45;&gt;Node16</title>
<path fill="none" stroke="midnightblue" d="M741.52,-126.47C694.63,-114.36 631.68,-98.1 587.15,-86.61"/>
<polygon fill="midnightblue" stroke="midnightblue" points="740.71,-129.88 751.27,-128.99 742.46,-123.1 740.71,-129.88"/>
</g>
<!-- Node31&#45;&gt;Node32 -->
<g id="edge18" class="edge">
<title>Node31&#45;&gt;Node32</title>
<path fill="none" stroke="midnightblue" d="M769.97,-124.15C743.52,-110.13 708.68,-91.66 688.63,-81.03"/>
<polygon fill="midnightblue" stroke="midnightblue" points="768.46,-127.31 778.93,-128.9 771.74,-121.13 768.46,-127.31"/>
</g>
<!-- Node31&#45;&gt;Node26 -->
<g id="edge19" class="edge">
<title>Node31&#45;&gt;Node26</title>
<path fill="none" stroke="midnightblue" d="M835.54,-123.23C856.63,-109.33 883.79,-91.43 899.58,-81.03"/>
<polygon fill="midnightblue" stroke="midnightblue" points="833.35,-120.48 826.92,-128.9 837.2,-126.32 833.35,-120.48"/>
</g>
<!-- Node31&#45;&gt;Node28 -->
<g id="edge21" class="edge">
<title>Node31&#45;&gt;Node28</title>
<path fill="none" stroke="midnightblue" d="M867.05,-126.32C911.64,-114.23 971.28,-98.06 1013.5,-86.61"/>
<polygon fill="midnightblue" stroke="midnightblue" points="865.94,-122.99 857.21,-128.99 867.77,-129.75 865.94,-122.99"/>
</g>
<!-- Node31&#45;&gt;Node27 -->
<g id="edge22" class="edge">
<title>Node31&#45;&gt;Node27</title>
<path fill="none" stroke="midnightblue" d="M870.95,-132.92C936.55,-122.52 1040.35,-105.29 1129.53,-87 1132.41,-86.41 1135.36,-85.78 1138.33,-85.13"/>
<polygon fill="midnightblue" stroke="midnightblue" points="870.09,-129.51 860.76,-134.53 871.18,-136.42 870.09,-129.51"/>
</g>
</g>
</svg>
