<?xml version="1.0" encoding="UTF-8" standalone="no"?>
<!DOCTYPE svg PUBLIC "-//W3C//DTD SVG 1.1//EN"
 "http://www.w3.org/Graphics/SVG/1.1/DTD/svg11.dtd">
<!-- Generated by graphviz version 3.0.0 (20221109.1736)
 -->
<!-- Title: include/d/d_vibration.h Pages: 1 -->
<!--zoomable 397 -->
<svg id="main" version="1.1" xmlns="http://www.w3.org/2000/svg" xmlns:xlink="http://www.w3.org/1999/xlink" xml:space="preserve" onload="init(evt)">
<style type="text/css"><![CDATA[
.edge:hover path { stroke: red; }
.edge:hover polygon { stroke: red; fill: red; }
]]></style>
<script type="text/javascript"><![CDATA[
var edges = document.getElementsByTagName('g');
if (edges && edges.length) {
  for (var i=0;i<edges.length;i++) {
    if (edges[i].id.substr(0,4)=='edge') {
      edges[i].setAttribute('class','edge');
    }
  }
}
]]></script>
        <defs>
                <circle id="rim" cx="0" cy="0" r="7"/>
                <circle id="rim2" cx="0" cy="0" r="3.5"/>
                <g id="zoomPlus">
                        <use xlink:href="#rim" fill="#404040">
                                <set attributeName="fill" to="#808080" begin="zoomplus.mouseover" end="zoomplus.mouseout"/>
                        </use>
                        <path d="M-4,0h8M0,-4v8" fill="none" stroke="white" stroke-width="1.5" pointer-events="none"/>
                </g>
                <g id="zoomMin">
                        <use xlink:href="#rim" fill="#404040">
                                <set attributeName="fill" to="#808080" begin="zoomminus.mouseover" end="zoomminus.mouseout"/>
                        </use>
                        <path d="M-4,0h8" fill="none" stroke="white" stroke-width="1.5" pointer-events="none"/>
                </g>
                <g id="dirArrow">
                        <path fill="none" stroke="white" stroke-width="1.5" d="M0,-3.0v7 M-2.5,-0.5L0,-3.0L2.5,-0.5"/>
                </g>
               <g id="resetDef">
                       <use xlink:href="#rim2" fill="#404040">
                               <set attributeName="fill" to="#808080" begin="reset.mouseover" end="reset.mouseout"/>
                       </use>
               </g>
        </defs>

<script type="text/javascript">
var viewWidth = 2192;
var viewHeight = 397;
var sectionId = 'dynsection-0';
</script>
<script xlink:href="svgpan.js"/>
<svg id="graph" class="graph">
<g id="viewport">
<title>include/d/d_vibration.h</title>
<polygon fill="white" stroke="transparent" points="-4,4 -4,-393 2187.99,-393 2187.99,4 -4,4"/>
<!-- Node1 -->
<g id="node1" class="node">
<title>Node1</title>
<g id="a_node1"><a xlink:title=" ">
<polygon fill="#bfbfbf" stroke="black" points="1981.5,-369.5 1981.5,-388.5 2094.5,-388.5 2094.5,-369.5 1981.5,-369.5"/>
<text text-anchor="middle" x="2038" y="-376.5" font-family="Helvetica,sans-Serif" font-size="10.00">include/d/d_vibration.h</text>
</a>
</g>
</g>
<!-- Node2 -->
<g id="node2" class="node">
<title>Node2</title>
<g id="a_node2"><a xlink:href="d__save_8h.html" target="_top" xlink:title=" ">
<polygon fill="white" stroke="black" points="1898,-313.5 1898,-332.5 1986,-332.5 1986,-313.5 1898,-313.5"/>
<text text-anchor="middle" x="1942" y="-320.5" font-family="Helvetica,sans-Serif" font-size="10.00">d/save/d_save.h</text>
</a>
</g>
</g>
<!-- Node1&#45;&gt;Node2 -->
<g id="edge1" class="edge">
<title>Node1&#45;&gt;Node2</title>
<path fill="none" stroke="midnightblue" d="M2022.58,-369.32C2007.46,-360.82 1984.18,-347.73 1966.53,-337.8"/>
<polygon fill="midnightblue" stroke="midnightblue" points="1967.82,-334.51 1957.39,-332.65 1964.39,-340.61 1967.82,-334.51"/>
</g>
<!-- Node5 -->
<g id="node5" class="node">
<title>Node5</title>
<g id="a_node5"><a xlink:href="types_8h.html" target="_top" xlink:title=" ">
<polygon fill="white" stroke="black" points="1138.5,-0.5 1138.5,-19.5 1219.5,-19.5 1219.5,-0.5 1138.5,-0.5"/>
<text text-anchor="middle" x="1179" y="-7.5" font-family="Helvetica,sans-Serif" font-size="10.00">dolphin/types.h</text>
</a>
</g>
</g>
<!-- Node1&#45;&gt;Node5 -->
<g id="edge67" class="edge">
<title>Node1&#45;&gt;Node5</title>
<path fill="none" stroke="midnightblue" d="M2066.45,-369.49C2108.42,-354.97 2182,-321.15 2182,-262.5 2182,-262.5 2182,-262.5 2182,-132 2182,-97.18 2189.95,-78.05 2163,-56 2126.59,-26.21 1425.66,-14.38 1229.58,-11.65"/>
<polygon fill="midnightblue" stroke="midnightblue" points="1229.59,-8.15 1219.54,-11.51 1229.49,-15.15 1229.59,-8.15"/>
</g>
<!-- Node3 -->
<g id="node3" class="node">
<title>Node3</title>
<g id="a_node3"><a xlink:href="printf_8h.html" target="_top" xlink:title=" ">
<polygon fill="white" stroke="black" points="1826,-246.5 1826,-276.5 1962,-276.5 1962,-246.5 1826,-246.5"/>
<text text-anchor="start" x="1834" y="-264.5" font-family="Helvetica,sans-Serif" font-size="10.00">MSL_C/MSL_Common/Src</text>
<text text-anchor="middle" x="1894" y="-253.5" font-family="Helvetica,sans-Serif" font-size="10.00">/printf.h</text>
</a>
</g>
</g>
<!-- Node2&#45;&gt;Node3 -->
<g id="edge2" class="edge">
<title>Node2&#45;&gt;Node3</title>
<path fill="none" stroke="midnightblue" d="M1935.12,-313.48C1929.05,-305.94 1919.92,-294.63 1911.8,-284.57"/>
<polygon fill="midnightblue" stroke="midnightblue" points="1914.32,-282.11 1905.31,-276.52 1908.87,-286.5 1914.32,-282.11"/>
</g>
<!-- Node2&#45;&gt;Node5 -->
<g id="edge66" class="edge">
<title>Node2&#45;&gt;Node5</title>
<path fill="none" stroke="midnightblue" d="M1948.98,-313.21C1955.57,-304.49 1965.27,-290.52 1971,-277 1985.51,-242.75 1990,-232.69 1990,-195.5 1990,-195.5 1990,-195.5 1990,-132 1990,-81.98 1953.04,-75.55 1907,-56 1845.12,-29.72 1384.91,-16.07 1229.84,-12.19"/>
<polygon fill="midnightblue" stroke="midnightblue" points="1229.72,-8.68 1219.64,-11.93 1229.55,-15.68 1229.72,-8.68"/>
</g>
<!-- Node6 -->
<g id="node6" class="node">
<title>Node6</title>
<g id="a_node6"><a xlink:href="MSL__Common_2Src_2string_8h.html" target="_top" xlink:title=" ">
<polygon fill="white" stroke="black" points="2018,-56.5 2018,-86.5 2154,-86.5 2154,-56.5 2018,-56.5"/>
<text text-anchor="start" x="2026" y="-74.5" font-family="Helvetica,sans-Serif" font-size="10.00">MSL_C/MSL_Common/Src</text>
<text text-anchor="middle" x="2086" y="-63.5" font-family="Helvetica,sans-Serif" font-size="10.00">/string.h</text>
</a>
</g>
</g>
<!-- Node2&#45;&gt;Node6 -->
<g id="edge6" class="edge">
<title>Node2&#45;&gt;Node6</title>
<path fill="none" stroke="midnightblue" d="M1958.5,-313.49C1972.3,-305.65 1991.65,-292.84 2004,-277 2048.15,-220.37 2071.64,-136.83 2081.03,-96.29"/>
<polygon fill="midnightblue" stroke="midnightblue" points="2084.46,-97.03 2083.22,-86.51 2077.62,-95.51 2084.46,-97.03"/>
</g>
<!-- Node7 -->
<g id="node7" class="node">
<title>Node7</title>
<g id="a_node7"><a xlink:href="c__xyz_8h.html" target="_top" xlink:title=" ">
<polygon fill="white" stroke="black" points="117,-179.5 117,-209.5 233,-209.5 233,-179.5 117,-179.5"/>
<text text-anchor="start" x="125" y="-197.5" font-family="Helvetica,sans-Serif" font-size="10.00">SSystem/SComponent</text>
<text text-anchor="middle" x="175" y="-186.5" font-family="Helvetica,sans-Serif" font-size="10.00">/c_xyz.h</text>
</a>
</g>
</g>
<!-- Node2&#45;&gt;Node7 -->
<g id="edge8" class="edge">
<title>Node2&#45;&gt;Node7</title>
<path fill="none" stroke="midnightblue" d="M1897.93,-321.38C1703.08,-318.18 899.84,-299.9 248,-210 246.48,-209.79 244.94,-209.57 243.4,-209.34"/>
<polygon fill="midnightblue" stroke="midnightblue" points="243.5,-205.81 233.07,-207.68 242.39,-212.72 243.5,-205.81"/>
</g>
<!-- Node13 -->
<g id="node13" class="node">
<title>Node13</title>
<g id="a_node13"><a xlink:href="OS_8h.html" target="_top" xlink:title=" ">
<polygon fill="white" stroke="black" points="1114,-252 1114,-271 1200,-271 1200,-252 1114,-252"/>
<text text-anchor="middle" x="1157" y="-259" font-family="Helvetica,sans-Serif" font-size="10.00">dolphin/os/OS.h</text>
</a>
</g>
</g>
<!-- Node2&#45;&gt;Node13 -->
<g id="edge18" class="edge">
<title>Node2&#45;&gt;Node13</title>
<path fill="none" stroke="midnightblue" d="M1897.83,-318.65C1762.89,-308.42 1356.35,-277.61 1210.12,-266.53"/>
<polygon fill="midnightblue" stroke="midnightblue" points="1210.29,-263.03 1200.05,-265.76 1209.76,-270.01 1210.29,-263.03"/>
</g>
<!-- Node4 -->
<g id="node4" class="node">
<title>Node4</title>
<g id="a_node4"><a xlink:href="____va__arg_8h.html" target="_top" xlink:title=" ">
<polygon fill="white" stroke="black" points="1814,-179.5 1814,-209.5 1924,-209.5 1924,-179.5 1814,-179.5"/>
<text text-anchor="start" x="1822" y="-197.5" font-family="Helvetica,sans-Serif" font-size="10.00">Runtime.PPCEABI.H/</text>
<text text-anchor="middle" x="1869" y="-186.5" font-family="Helvetica,sans-Serif" font-size="10.00">__va_arg.h</text>
</a>
</g>
</g>
<!-- Node3&#45;&gt;Node4 -->
<g id="edge3" class="edge">
<title>Node3&#45;&gt;Node4</title>
<path fill="none" stroke="midnightblue" d="M1888.58,-246.4C1885.5,-238.39 1881.56,-228.16 1878.03,-218.98"/>
<polygon fill="midnightblue" stroke="midnightblue" points="1881.27,-217.65 1874.41,-209.58 1874.74,-220.17 1881.27,-217.65"/>
</g>
<!-- Node3&#45;&gt;Node5 -->
<g id="edge5" class="edge">
<title>Node3&#45;&gt;Node5</title>
<path fill="none" stroke="midnightblue" d="M1909.26,-246.17C1918.06,-236.83 1928.28,-223.84 1933,-210 1952.77,-152.06 1891.46,-63.43 1881,-56 1828.25,-18.55 1381.93,-12.27 1229.66,-11.21"/>
<polygon fill="midnightblue" stroke="midnightblue" points="1229.66,-7.71 1219.64,-11.15 1229.62,-14.71 1229.66,-7.71"/>
</g>
<!-- Node4&#45;&gt;Node5 -->
<g id="edge4" class="edge">
<title>Node4&#45;&gt;Node5</title>
<path fill="none" stroke="midnightblue" d="M1873.09,-179.39C1880.23,-151.41 1891.25,-88.79 1858,-56 1813.6,-12.2 1380.39,-10.04 1230.06,-10.63"/>
<polygon fill="midnightblue" stroke="midnightblue" points="1229.72,-7.13 1219.74,-10.67 1229.75,-14.13 1229.72,-7.13"/>
</g>
<!-- Node6&#45;&gt;Node5 -->
<g id="edge7" class="edge">
<title>Node6&#45;&gt;Node5</title>
<path fill="none" stroke="midnightblue" d="M2017.63,-57.78C2013.03,-57.11 2008.45,-56.51 2004,-56 1712.3,-22.38 1359.59,-13.75 1229.96,-11.65"/>
<polygon fill="midnightblue" stroke="midnightblue" points="1229.98,-8.15 1219.92,-11.49 1229.87,-15.15 1229.98,-8.15"/>
</g>
<!-- Node8 -->
<g id="node8" class="node">
<title>Node8</title>
<g id="a_node8"><a xlink:href="math_8h.html" target="_top" xlink:title=" ">
<polygon fill="white" stroke="black" points="24,-123.5 24,-142.5 106,-142.5 106,-123.5 24,-123.5"/>
<text text-anchor="middle" x="65" y="-130.5" font-family="Helvetica,sans-Serif" font-size="10.00">MSL_C/math.h</text>
</a>
</g>
</g>
<!-- Node7&#45;&gt;Node8 -->
<g id="edge9" class="edge">
<title>Node7&#45;&gt;Node8</title>
<path fill="none" stroke="midnightblue" d="M148.93,-179.4C131.13,-169.77 107.69,-157.09 90.1,-147.58"/>
<polygon fill="midnightblue" stroke="midnightblue" points="91.47,-144.34 81.01,-142.66 88.14,-150.49 91.47,-144.34"/>
</g>
<!-- Node11 -->
<g id="node11" class="node">
<title>Node11</title>
<g id="a_node11"><a xlink:href="vec_8h.html" target="_top" xlink:title=" ">
<polygon fill="white" stroke="black" points="124,-123.5 124,-142.5 216,-142.5 216,-123.5 124,-123.5"/>
<text text-anchor="middle" x="170" y="-130.5" font-family="Helvetica,sans-Serif" font-size="10.00">dolphin/mtx/vec.h</text>
</a>
</g>
</g>
<!-- Node7&#45;&gt;Node11 -->
<g id="edge14" class="edge">
<title>Node7&#45;&gt;Node11</title>
<path fill="none" stroke="midnightblue" d="M173.82,-179.4C173.15,-171.47 172.31,-161.46 171.58,-152.86"/>
<polygon fill="midnightblue" stroke="midnightblue" points="175.05,-152.33 170.73,-142.66 168.08,-152.92 175.05,-152.33"/>
</g>
<!-- Node12 -->
<g id="node12" class="node">
<title>Node12</title>
<g id="a_node12"><a xlink:href="global_8h.html" target="_top" xlink:title=" ">
<polygon fill="white" stroke="black" points="234,-123.5 234,-142.5 284,-142.5 284,-123.5 234,-123.5"/>
<text text-anchor="middle" x="259" y="-130.5" font-family="Helvetica,sans-Serif" font-size="10.00">global.h</text>
</a>
</g>
</g>
<!-- Node7&#45;&gt;Node12 -->
<g id="edge16" class="edge">
<title>Node7&#45;&gt;Node12</title>
<path fill="none" stroke="midnightblue" d="M194.91,-179.4C207.99,-170.13 225.08,-158.03 238.32,-148.65"/>
<polygon fill="midnightblue" stroke="midnightblue" points="240.64,-151.29 246.78,-142.66 236.59,-145.58 240.64,-151.29"/>
</g>
<!-- Node8&#45;&gt;Node5 -->
<g id="edge13" class="edge">
<title>Node8&#45;&gt;Node5</title>
<path fill="none" stroke="midnightblue" d="M79.72,-123.48C111.53,-105.22 186.07,-63.4 214,-56 388.96,-9.62 954.88,-9.46 1128.12,-10.55"/>
<polygon fill="midnightblue" stroke="midnightblue" points="1128.22,-14.05 1138.24,-10.62 1128.27,-7.05 1128.22,-14.05"/>
</g>
<!-- Node9 -->
<g id="node9" class="node">
<title>Node9</title>
<g id="a_node9"><a xlink:href="float_8h.html" target="_top" xlink:title=" ">
<polygon fill="white" stroke="black" points="0,-56.5 0,-86.5 136,-86.5 136,-56.5 0,-56.5"/>
<text text-anchor="start" x="8" y="-74.5" font-family="Helvetica,sans-Serif" font-size="10.00">MSL_C/MSL_Common/Src</text>
<text text-anchor="middle" x="68" y="-63.5" font-family="Helvetica,sans-Serif" font-size="10.00">/float.h</text>
</a>
</g>
</g>
<!-- Node8&#45;&gt;Node9 -->
<g id="edge10" class="edge">
<title>Node8&#45;&gt;Node9</title>
<path fill="none" stroke="midnightblue" d="M65.43,-123.48C65.78,-116.47 66.3,-106.19 66.78,-96.7"/>
<polygon fill="midnightblue" stroke="midnightblue" points="70.28,-96.69 67.29,-86.52 63.29,-96.33 70.28,-96.69"/>
</g>
<!-- Node9&#45;&gt;Node5 -->
<g id="edge11" class="edge">
<title>Node9&#45;&gt;Node5</title>
<path fill="none" stroke="midnightblue" d="M136.21,-59.69C146.83,-58.27 157.7,-56.97 168,-56 535.25,-21.29 980.16,-13.24 1128.3,-11.47"/>
<polygon fill="midnightblue" stroke="midnightblue" points="1128.49,-14.97 1138.45,-11.36 1128.41,-7.97 1128.49,-14.97"/>
</g>
<!-- Node10 -->
<g id="node10" class="node">
<title>Node10</title>
<g id="a_node10"><a xlink:href="fdlibm_8h.html" target="_top" xlink:title=" ">
<polygon fill="white" stroke="black" points="43,-0.5 43,-19.5 93,-19.5 93,-0.5 43,-0.5"/>
<text text-anchor="middle" x="68" y="-7.5" font-family="Helvetica,sans-Serif" font-size="10.00">fdlibm.h</text>
</a>
</g>
</g>
<!-- Node9&#45;&gt;Node10 -->
<g id="edge12" class="edge">
<title>Node9&#45;&gt;Node10</title>
<path fill="none" stroke="midnightblue" d="M68,-56.4C68,-48.47 68,-38.46 68,-29.86"/>
<polygon fill="midnightblue" stroke="midnightblue" points="71.5,-29.66 68,-19.66 64.5,-29.66 71.5,-29.66"/>
</g>
<!-- Node11&#45;&gt;Node5 -->
<g id="edge15" class="edge">
<title>Node11&#45;&gt;Node5</title>
<path fill="none" stroke="midnightblue" d="M177.76,-123.34C193.32,-106.67 230.26,-70.49 270,-56 350.6,-26.61 948.63,-14.7 1128.18,-11.76"/>
<polygon fill="midnightblue" stroke="midnightblue" points="1128.46,-15.26 1138.4,-11.6 1128.35,-8.26 1128.46,-15.26"/>
</g>
<!-- Node12&#45;&gt;Node5 -->
<g id="edge17" class="edge">
<title>Node12&#45;&gt;Node5</title>
<path fill="none" stroke="midnightblue" d="M260.61,-123.02C264.11,-106.48 274.09,-71.46 298,-56 367.71,-10.94 951.23,-9.93 1128.27,-10.67"/>
<polygon fill="midnightblue" stroke="midnightblue" points="1128.35,-14.17 1138.36,-10.72 1128.38,-7.17 1128.35,-14.17"/>
</g>
<!-- Node13&#45;&gt;Node4 -->
<g id="edge19" class="edge">
<title>Node13&#45;&gt;Node4</title>
<path fill="none" stroke="midnightblue" d="M1200.1,-259.03C1303.86,-255.08 1575.56,-242.26 1800,-210 1801.26,-209.82 1802.53,-209.63 1803.81,-209.43"/>
<polygon fill="midnightblue" stroke="midnightblue" points="1804.47,-212.87 1813.75,-207.76 1803.31,-205.97 1804.47,-212.87"/>
</g>
<!-- Node14 -->
<g id="node14" class="node">
<title>Node14</title>
<g id="a_node14"><a xlink:href="dvd_8h.html" target="_top" xlink:title=" ">
<polygon fill="white" stroke="black" points="1343,-123.5 1343,-142.5 1435,-142.5 1435,-123.5 1343,-123.5"/>
<text text-anchor="middle" x="1389" y="-130.5" font-family="Helvetica,sans-Serif" font-size="10.00">dolphin/dvd/dvd.h</text>
</a>
</g>
</g>
<!-- Node13&#45;&gt;Node14 -->
<g id="edge20" class="edge">
<title>Node13&#45;&gt;Node14</title>
<path fill="none" stroke="midnightblue" d="M1200.05,-255.32C1236.86,-249.23 1289.93,-236.39 1329,-210 1351.24,-194.98 1369.08,-169.13 1379.35,-151.8"/>
<polygon fill="midnightblue" stroke="midnightblue" points="1382.61,-153.16 1384.51,-142.73 1376.52,-149.7 1382.61,-153.16"/>
</g>
<!-- Node15 -->
<g id="node15" class="node">
<title>Node15</title>
<g id="a_node15"><a xlink:href="OSAlarm_8h.html" target="_top" xlink:title=" ">
<polygon fill="white" stroke="black" points="1059.5,-185 1059.5,-204 1170.5,-204 1170.5,-185 1059.5,-185"/>
<text text-anchor="middle" x="1115" y="-192" font-family="Helvetica,sans-Serif" font-size="10.00">dolphin/os/OSAlarm.h</text>
</a>
</g>
</g>
<!-- Node13&#45;&gt;Node15 -->
<g id="edge22" class="edge">
<title>Node13&#45;&gt;Node15</title>
<path fill="none" stroke="midnightblue" d="M1151.34,-251.73C1144.91,-241.79 1134.28,-225.34 1126.17,-212.79"/>
<polygon fill="midnightblue" stroke="midnightblue" points="1128.94,-210.63 1120.57,-204.13 1123.06,-214.43 1128.94,-210.63"/>
</g>
<!-- Node16 -->
<g id="node16" class="node">
<title>Node16</title>
<g id="a_node16"><a xlink:href="OSTime_8h.html" target="_top" xlink:title=" ">
<polygon fill="white" stroke="black" points="1103.5,-123.5 1103.5,-142.5 1210.5,-142.5 1210.5,-123.5 1103.5,-123.5"/>
<text text-anchor="middle" x="1157" y="-130.5" font-family="Helvetica,sans-Serif" font-size="10.00">dolphin/os/OSTime.h</text>
</a>
</g>
</g>
<!-- Node13&#45;&gt;Node16 -->
<g id="edge65" class="edge">
<title>Node13&#45;&gt;Node16</title>
<path fill="none" stroke="midnightblue" d="M1162.04,-251.93C1167.47,-242.16 1175.76,-225.54 1179,-210 1181.81,-196.51 1182.11,-192.42 1179,-179 1176.77,-169.36 1172.18,-159.41 1167.76,-151.31"/>
<polygon fill="midnightblue" stroke="midnightblue" points="1170.7,-149.4 1162.64,-142.52 1164.65,-152.92 1170.7,-149.4"/>
</g>
<!-- Node17 -->
<g id="node17" class="node">
<title>Node17</title>
<g id="a_node17"><a xlink:href="OSError_8h.html" target="_top" xlink:title=" ">
<polygon fill="white" stroke="black" points="812,-123.5 812,-142.5 918,-142.5 918,-123.5 812,-123.5"/>
<text text-anchor="middle" x="865" y="-130.5" font-family="Helvetica,sans-Serif" font-size="10.00">dolphin/os/OSError.h</text>
</a>
</g>
</g>
<!-- Node13&#45;&gt;Node17 -->
<g id="edge37" class="edge">
<title>Node13&#45;&gt;Node17</title>
<path fill="none" stroke="midnightblue" d="M1113.96,-252.24C1077.06,-244.24 1023.04,-230.32 979,-210 974.06,-207.72 917.96,-169.89 886.35,-148.48"/>
<polygon fill="midnightblue" stroke="midnightblue" points="888.02,-145.38 877.77,-142.67 884.09,-151.18 888.02,-145.38"/>
</g>
<!-- Node18 -->
<g id="node18" class="node">
<title>Node18</title>
<g id="a_node18"><a xlink:href="OSContext_8h.html" target="_top" xlink:title=" ">
<polygon fill="white" stroke="black" points="635.5,-62 635.5,-81 754.5,-81 754.5,-62 635.5,-62"/>
<text text-anchor="middle" x="695" y="-69" font-family="Helvetica,sans-Serif" font-size="10.00">dolphin/os/OSContext.h</text>
</a>
</g>
</g>
<!-- Node13&#45;&gt;Node18 -->
<g id="edge36" class="edge">
<title>Node13&#45;&gt;Node18</title>
<path fill="none" stroke="midnightblue" d="M1113.59,-257.29C1066.42,-252.36 989.89,-240.09 931,-210 912.5,-200.55 913.75,-189.81 896,-179 858.15,-155.94 842.44,-163.22 803,-143 770.57,-126.37 735.73,-102.39 714.64,-87.13"/>
<polygon fill="midnightblue" stroke="midnightblue" points="716.63,-84.25 706.5,-81.17 712.5,-89.9 716.63,-84.25"/>
</g>
<!-- Node19 -->
<g id="node19" class="node">
<title>Node19</title>
<g id="a_node19"><a xlink:href="OSAlloc_8h.html" target="_top" xlink:title=" ">
<polygon fill="white" stroke="black" points="1411.5,-62 1411.5,-81 1518.5,-81 1518.5,-62 1411.5,-62"/>
<text text-anchor="middle" x="1465" y="-69" font-family="Helvetica,sans-Serif" font-size="10.00">dolphin/os/OSAlloc.h</text>
</a>
</g>
</g>
<!-- Node13&#45;&gt;Node19 -->
<g id="edge28" class="edge">
<title>Node13&#45;&gt;Node19</title>
<path fill="none" stroke="midnightblue" d="M1200.2,-255.09C1242.39,-248.59 1307.57,-235.24 1359,-210 1402.18,-188.81 1416.98,-182.8 1444,-143 1454.63,-127.34 1459.99,-106.18 1462.62,-91.14"/>
<polygon fill="midnightblue" stroke="midnightblue" points="1466.12,-91.43 1464.14,-81.02 1459.19,-90.39 1466.12,-91.43"/>
</g>
<!-- Node20 -->
<g id="node20" class="node">
<title>Node20</title>
<g id="a_node20"><a xlink:href="OSArena_8h.html" target="_top" xlink:title=" ">
<polygon fill="white" stroke="black" points="1536.5,-62 1536.5,-81 1647.5,-81 1647.5,-62 1536.5,-62"/>
<text text-anchor="middle" x="1592" y="-69" font-family="Helvetica,sans-Serif" font-size="10.00">dolphin/os/OSArena.h</text>
</a>
</g>
</g>
<!-- Node13&#45;&gt;Node20 -->
<g id="edge30" class="edge">
<title>Node13&#45;&gt;Node20</title>
<path fill="none" stroke="midnightblue" d="M1200.35,-256.96C1250.27,-251.66 1333.9,-238.98 1400,-210 1472.04,-178.42 1543.94,-116.94 1575.45,-88.12"/>
<polygon fill="midnightblue" stroke="midnightblue" points="1577.94,-90.59 1582.9,-81.22 1573.18,-85.45 1577.94,-90.59"/>
</g>
<!-- Node21 -->
<g id="node21" class="node">
<title>Node21</title>
<g id="a_node21"><a xlink:href="OSAudioSystem_8h.html" target="_top" xlink:title=" ">
<polygon fill="white" stroke="black" points="1483.5,-185 1483.5,-204 1626.5,-204 1626.5,-185 1483.5,-185"/>
<text text-anchor="middle" x="1555" y="-192" font-family="Helvetica,sans-Serif" font-size="10.00">dolphin/os/OSAudioSystem.h</text>
</a>
</g>
</g>
<!-- Node13&#45;&gt;Node21 -->
<g id="edge32" class="edge">
<title>Node13&#45;&gt;Node21</title>
<path fill="none" stroke="midnightblue" d="M1200.17,-253.6C1260.39,-243.96 1373.04,-225.86 1469,-210 1477.27,-208.63 1485.98,-207.18 1494.56,-205.74"/>
<polygon fill="midnightblue" stroke="midnightblue" points="1495.25,-209.18 1504.53,-204.07 1494.09,-202.27 1495.25,-209.18"/>
</g>
<!-- Node22 -->
<g id="node22" class="node">
<title>Node22</title>
<g id="a_node22"><a xlink:href="OSCache_8h.html" target="_top" xlink:title=" ">
<polygon fill="white" stroke="black" points="1644.5,-185 1644.5,-204 1757.5,-204 1757.5,-185 1644.5,-185"/>
<text text-anchor="middle" x="1701" y="-192" font-family="Helvetica,sans-Serif" font-size="10.00">dolphin/os/OSCache.h</text>
</a>
</g>
</g>
<!-- Node13&#45;&gt;Node22 -->
<g id="edge34" class="edge">
<title>Node13&#45;&gt;Node22</title>
<path fill="none" stroke="midnightblue" d="M1200.06,-257.56C1284.08,-251.47 1475.61,-235.85 1635,-210 1641.69,-208.91 1648.72,-207.58 1655.6,-206.17"/>
<polygon fill="midnightblue" stroke="midnightblue" points="1656.46,-209.56 1665.52,-204.05 1655.01,-202.71 1656.46,-209.56"/>
</g>
<!-- Node23 -->
<g id="node23" class="node">
<title>Node23</title>
<g id="a_node23"><a xlink:href="OSExec_8h.html" target="_top" xlink:title=" ">
<polygon fill="white" stroke="black" points="1742.5,-62 1742.5,-81 1849.5,-81 1849.5,-62 1742.5,-62"/>
<text text-anchor="middle" x="1796" y="-69" font-family="Helvetica,sans-Serif" font-size="10.00">dolphin/os/OSExec.h</text>
</a>
</g>
</g>
<!-- Node13&#45;&gt;Node23 -->
<g id="edge38" class="edge">
<title>Node13&#45;&gt;Node23</title>
<path fill="none" stroke="midnightblue" d="M1200.1,-259.84C1331.97,-257.42 1723.6,-247.14 1766,-210 1800.06,-180.16 1800.53,-121.47 1798.19,-91.33"/>
<polygon fill="midnightblue" stroke="midnightblue" points="1801.67,-90.92 1797.22,-81.3 1794.7,-91.59 1801.67,-90.92"/>
</g>
<!-- Node24 -->
<g id="node24" class="node">
<title>Node24</title>
<g id="a_node24"><a xlink:href="OSFont_8h.html" target="_top" xlink:title=" ">
<polygon fill="white" stroke="black" points="257.5,-185 257.5,-204 362.5,-204 362.5,-185 257.5,-185"/>
<text text-anchor="middle" x="310" y="-192" font-family="Helvetica,sans-Serif" font-size="10.00">dolphin/os/OSFont.h</text>
</a>
</g>
</g>
<!-- Node13&#45;&gt;Node24 -->
<g id="edge40" class="edge">
<title>Node13&#45;&gt;Node24</title>
<path fill="none" stroke="midnightblue" d="M1113.65,-259.95C995.11,-257.95 655.87,-248.98 377,-210 369.71,-208.98 362.03,-207.61 354.57,-206.11"/>
<polygon fill="midnightblue" stroke="midnightblue" points="355.1,-202.65 344.6,-204.01 353.66,-209.5 355.1,-202.65"/>
</g>
<!-- Node25 -->
<g id="node25" class="node">
<title>Node25</title>
<g id="a_node25"><a xlink:href="OSInterrupt_8h.html" target="_top" xlink:title=" ">
<polygon fill="white" stroke="black" points="634,-123.5 634,-142.5 756,-142.5 756,-123.5 634,-123.5"/>
<text text-anchor="middle" x="695" y="-130.5" font-family="Helvetica,sans-Serif" font-size="10.00">dolphin/os/OSInterrupt.h</text>
</a>
</g>
</g>
<!-- Node13&#45;&gt;Node25 -->
<g id="edge42" class="edge">
<title>Node13&#45;&gt;Node25</title>
<path fill="none" stroke="midnightblue" d="M1113.99,-257.56C1062.1,-252.76 973.08,-240.5 903,-210 881.4,-200.6 881.26,-189.15 860,-179 826.51,-163.01 786.4,-151.91 754.11,-144.73"/>
<polygon fill="midnightblue" stroke="midnightblue" points="754.43,-141.22 743.92,-142.54 752.96,-148.07 754.43,-141.22"/>
</g>
<!-- Node26 -->
<g id="node26" class="node">
<title>Node26</title>
<g id="a_node26"><a xlink:href="OSLink_8h.html" target="_top" xlink:title=" ">
<polygon fill="white" stroke="black" points="340,-123.5 340,-142.5 444,-142.5 444,-123.5 340,-123.5"/>
<text text-anchor="middle" x="392" y="-130.5" font-family="Helvetica,sans-Serif" font-size="10.00">dolphin/os/OSLink.h</text>
</a>
</g>
</g>
<!-- Node13&#45;&gt;Node26 -->
<g id="edge44" class="edge">
<title>Node13&#45;&gt;Node26</title>
<path fill="none" stroke="midnightblue" d="M1113.79,-259.76C967.34,-256.95 495.63,-245.2 438,-210 416.97,-197.16 404.28,-170.75 397.7,-152.7"/>
<polygon fill="midnightblue" stroke="midnightblue" points="400.94,-151.35 394.45,-142.98 394.3,-153.57 400.94,-151.35"/>
</g>
<!-- Node27 -->
<g id="node27" class="node">
<title>Node27</title>
<g id="a_node27"><a xlink:href="OSMemory_8h.html" target="_top" xlink:title=" ">
<polygon fill="white" stroke="black" points="731,-185 731,-204 851,-204 851,-185 731,-185"/>
<text text-anchor="middle" x="791" y="-192" font-family="Helvetica,sans-Serif" font-size="10.00">dolphin/os/OSMemory.h</text>
</a>
</g>
</g>
<!-- Node13&#45;&gt;Node27 -->
<g id="edge46" class="edge">
<title>Node13&#45;&gt;Node27</title>
<path fill="none" stroke="midnightblue" d="M1113.9,-253.35C1056.89,-243.83 953.29,-226.28 865,-210 858.17,-208.74 850.99,-207.38 843.89,-206.01"/>
<polygon fill="midnightblue" stroke="midnightblue" points="844.11,-202.49 833.62,-204.02 842.77,-209.36 844.11,-202.49"/>
</g>
<!-- Node28 -->
<g id="node28" class="node">
<title>Node28</title>
<g id="a_node28"><a xlink:href="OSMessage_8h.html" target="_top" xlink:title=" ">
<polygon fill="white" stroke="black" points="587.5,-185 587.5,-204 712.5,-204 712.5,-185 587.5,-185"/>
<text text-anchor="middle" x="650" y="-192" font-family="Helvetica,sans-Serif" font-size="10.00">dolphin/os/OSMessage.h</text>
</a>
</g>
</g>
<!-- Node13&#45;&gt;Node28 -->
<g id="edge49" class="edge">
<title>Node13&#45;&gt;Node28</title>
<path fill="none" stroke="midnightblue" d="M1113.93,-256.7C1035.63,-249.52 864.86,-232.64 722,-210 714.64,-208.83 706.9,-207.45 699.32,-206"/>
<polygon fill="midnightblue" stroke="midnightblue" points="699.99,-202.56 689.51,-204.07 698.64,-209.43 699.99,-202.56"/>
</g>
<!-- Node29 -->
<g id="node29" class="node">
<title>Node29</title>
<g id="a_node29"><a xlink:href="OSThread_8h.html" target="_top" xlink:title=" ">
<polygon fill="white" stroke="black" points="462,-123.5 462,-142.5 578,-142.5 578,-123.5 462,-123.5"/>
<text text-anchor="middle" x="520" y="-130.5" font-family="Helvetica,sans-Serif" font-size="10.00">dolphin/os/OSThread.h</text>
</a>
</g>
</g>
<!-- Node13&#45;&gt;Node29 -->
<g id="edge64" class="edge">
<title>Node13&#45;&gt;Node29</title>
<path fill="none" stroke="midnightblue" d="M1113.98,-259.04C963.81,-253.73 470.8,-234.48 448,-210 438.61,-199.92 441.32,-191.05 448,-179 456.09,-164.41 471.1,-153.92 485.34,-146.76"/>
<polygon fill="midnightblue" stroke="midnightblue" points="486.89,-149.9 494.5,-142.53 483.95,-143.55 486.89,-149.9"/>
</g>
<!-- Node30 -->
<g id="node30" class="node">
<title>Node30</title>
<g id="a_node30"><a xlink:href="OSMutex_8h.html" target="_top" xlink:title=" ">
<polygon fill="white" stroke="black" points="457,-185 457,-204 569,-204 569,-185 457,-185"/>
<text text-anchor="middle" x="513" y="-192" font-family="Helvetica,sans-Serif" font-size="10.00">dolphin/os/OSMutex.h</text>
</a>
</g>
</g>
<!-- Node13&#45;&gt;Node30 -->
<g id="edge52" class="edge">
<title>Node13&#45;&gt;Node30</title>
<path fill="none" stroke="midnightblue" d="M1113.91,-258.7C1017.44,-254.23 776.94,-240.73 578,-210 571.24,-208.96 564.14,-207.62 557.21,-206.19"/>
<polygon fill="midnightblue" stroke="midnightblue" points="557.76,-202.72 547.25,-204.03 556.28,-209.57 557.76,-202.72"/>
</g>
<!-- Node31 -->
<g id="node31" class="node">
<title>Node31</title>
<g id="a_node31"><a xlink:href="OSReboot_8h.html" target="_top" xlink:title=" ">
<polygon fill="white" stroke="black" points="773,-62 773,-81 889,-81 889,-62 773,-62"/>
<text text-anchor="middle" x="831" y="-69" font-family="Helvetica,sans-Serif" font-size="10.00">dolphin/os/OSReboot.h</text>
</a>
</g>
</g>
<!-- Node13&#45;&gt;Node31 -->
<g id="edge54" class="edge">
<title>Node13&#45;&gt;Node31</title>
<path fill="none" stroke="midnightblue" d="M1129.03,-251.97C1102.91,-243.37 1063.36,-228.71 1032,-210 979.95,-178.95 977.42,-156.62 927,-123 905.29,-108.52 878.95,-94.92 859.36,-85.49"/>
<polygon fill="midnightblue" stroke="midnightblue" points="860.59,-82.2 850.06,-81.08 857.6,-88.53 860.59,-82.2"/>
</g>
<!-- Node32 -->
<g id="node32" class="node">
<title>Node32</title>
<g id="a_node32"><a xlink:href="OSReset_8h.html" target="_top" xlink:title=" ">
<polygon fill="white" stroke="black" points="974.5,-123.5 974.5,-142.5 1085.5,-142.5 1085.5,-123.5 974.5,-123.5"/>
<text text-anchor="middle" x="1030" y="-130.5" font-family="Helvetica,sans-Serif" font-size="10.00">dolphin/os/OSReset.h</text>
</a>
</g>
</g>
<!-- Node13&#45;&gt;Node32 -->
<g id="edge56" class="edge">
<title>Node13&#45;&gt;Node32</title>
<path fill="none" stroke="midnightblue" d="M1120.8,-251.94C1097.37,-244.58 1067.99,-231.64 1050,-210 1036.53,-193.8 1032.04,-169.5 1030.59,-152.76"/>
<polygon fill="midnightblue" stroke="midnightblue" points="1034.07,-152.36 1030,-142.58 1027.08,-152.76 1034.07,-152.36"/>
</g>
<!-- Node33 -->
<g id="node33" class="node">
<title>Node33</title>
<g id="a_node33"><a xlink:href="OSResetSW_8h.html" target="_top" xlink:title=" ">
<polygon fill="white" stroke="black" points="983.5,-62 983.5,-81 1110.5,-81 1110.5,-62 983.5,-62"/>
<text text-anchor="middle" x="1047" y="-69" font-family="Helvetica,sans-Serif" font-size="10.00">dolphin/os/OSResetSW.h</text>
</a>
</g>
</g>
<!-- Node13&#45;&gt;Node33 -->
<g id="edge58" class="edge">
<title>Node13&#45;&gt;Node33</title>
<path fill="none" stroke="midnightblue" d="M1166.87,-251.76C1191.48,-228.9 1251.33,-166.18 1219,-123 1211.34,-112.77 1142.65,-94.86 1094.44,-83.36"/>
<polygon fill="midnightblue" stroke="midnightblue" points="1095.03,-79.9 1084.49,-81 1093.41,-86.71 1095.03,-79.9"/>
</g>
<!-- Node34 -->
<g id="node34" class="node">
<title>Node34</title>
<g id="a_node34"><a xlink:href="OSRtc_8h.html" target="_top" xlink:title=" ">
<polygon fill="white" stroke="black" points="1128.5,-62 1128.5,-81 1229.5,-81 1229.5,-62 1128.5,-62"/>
<text text-anchor="middle" x="1179" y="-69" font-family="Helvetica,sans-Serif" font-size="10.00">dolphin/os/OSRtc.h</text>
</a>
</g>
</g>
<!-- Node13&#45;&gt;Node34 -->
<g id="edge60" class="edge">
<title>Node13&#45;&gt;Node34</title>
<path fill="none" stroke="midnightblue" d="M1192.26,-251.9C1213.88,-244.62 1239.86,-231.76 1253,-210 1272.99,-176.9 1271.06,-157.19 1253,-123 1244.01,-105.99 1226.43,-93.62 1210.66,-85.39"/>
<polygon fill="midnightblue" stroke="midnightblue" points="1212.18,-82.24 1201.66,-81.01 1209.12,-88.53 1212.18,-82.24"/>
</g>
<!-- Node35 -->
<g id="node35" class="node">
<title>Node35</title>
<g id="a_node35"><a xlink:href="OSSync_8h.html" target="_top" xlink:title=" ">
<polygon fill="white" stroke="black" points="1247.5,-62 1247.5,-81 1354.5,-81 1354.5,-62 1247.5,-62"/>
<text text-anchor="middle" x="1301" y="-69" font-family="Helvetica,sans-Serif" font-size="10.00">dolphin/os/OSSync.h</text>
</a>
</g>
</g>
<!-- Node13&#45;&gt;Node35 -->
<g id="edge62" class="edge">
<title>Node13&#45;&gt;Node35</title>
<path fill="none" stroke="midnightblue" d="M1200.14,-252.35C1225.37,-245.35 1255.74,-232.65 1274,-210 1301.92,-175.38 1303.73,-120.09 1302.49,-91.3"/>
<polygon fill="midnightblue" stroke="midnightblue" points="1305.96,-90.8 1301.86,-81.03 1298.98,-91.23 1305.96,-90.8"/>
</g>
<!-- Node14&#45;&gt;Node5 -->
<g id="edge21" class="edge">
<title>Node14&#45;&gt;Node5</title>
<path fill="none" stroke="midnightblue" d="M1388.63,-123.26C1387.46,-107.43 1382.66,-73.97 1363,-56 1343.66,-38.33 1277.14,-25.22 1229.64,-17.85"/>
<polygon fill="midnightblue" stroke="midnightblue" points="1229.93,-14.35 1219.52,-16.31 1228.88,-21.27 1229.93,-14.35"/>
</g>
<!-- Node15&#45;&gt;Node16 -->
<g id="edge23" class="edge">
<title>Node15&#45;&gt;Node16</title>
<path fill="none" stroke="midnightblue" d="M1121.02,-184.98C1127.26,-176.14 1137.17,-162.09 1145.02,-150.98"/>
<polygon fill="midnightblue" stroke="midnightblue" points="1148.09,-152.7 1150.99,-142.51 1142.37,-148.66 1148.09,-152.7"/>
</g>
<!-- Node15&#45;&gt;Node17 -->
<g id="edge25" class="edge">
<title>Node15&#45;&gt;Node17</title>
<path fill="none" stroke="midnightblue" d="M1079.18,-184.98C1034.81,-174.42 959.16,-156.41 910.67,-144.87"/>
<polygon fill="midnightblue" stroke="midnightblue" points="911.29,-141.42 900.75,-142.51 909.67,-148.23 911.29,-141.42"/>
</g>
<!-- Node16&#45;&gt;Node5 -->
<g id="edge24" class="edge">
<title>Node16&#45;&gt;Node5</title>
<path fill="none" stroke="midnightblue" d="M1109.54,-123.45C1058.19,-113.72 982.45,-97.78 974,-87 965.5,-76.16 965.36,-66.74 974,-56 992.99,-32.39 1073.8,-20.47 1128.11,-15.01"/>
<polygon fill="midnightblue" stroke="midnightblue" points="1128.64,-18.47 1138.26,-14.03 1127.97,-11.51 1128.64,-18.47"/>
</g>
<!-- Node17&#45;&gt;Node18 -->
<g id="edge26" class="edge">
<title>Node17&#45;&gt;Node18</title>
<path fill="none" stroke="midnightblue" d="M840.64,-123.48C811.36,-113.22 762.03,-95.96 729,-84.4"/>
<polygon fill="midnightblue" stroke="midnightblue" points="729.91,-81.01 719.31,-81.01 727.59,-87.62 729.91,-81.01"/>
</g>
<!-- Node18&#45;&gt;Node5 -->
<g id="edge27" class="edge">
<title>Node18&#45;&gt;Node5</title>
<path fill="none" stroke="midnightblue" d="M732.12,-62C742.4,-59.83 753.6,-57.65 764,-56 894.66,-35.24 1050,-21.2 1128.39,-14.86"/>
<polygon fill="midnightblue" stroke="midnightblue" points="1128.78,-18.34 1138.47,-14.05 1128.22,-11.36 1128.78,-18.34"/>
</g>
<!-- Node19&#45;&gt;Node5 -->
<g id="edge29" class="edge">
<title>Node19&#45;&gt;Node5</title>
<path fill="none" stroke="midnightblue" d="M1425.1,-61.95C1415.87,-59.98 1406.1,-57.91 1397,-56 1339.63,-43.96 1273.71,-30.39 1229.51,-21.33"/>
<polygon fill="midnightblue" stroke="midnightblue" points="1230.1,-17.88 1219.6,-19.3 1228.69,-24.73 1230.1,-17.88"/>
</g>
<!-- Node20&#45;&gt;Node5 -->
<g id="edge31" class="edge">
<title>Node20&#45;&gt;Node5</title>
<path fill="none" stroke="midnightblue" d="M1556.36,-61.94C1546.85,-59.82 1536.57,-57.68 1527,-56 1421.85,-37.51 1297.58,-23.25 1229.64,-16.09"/>
<polygon fill="midnightblue" stroke="midnightblue" points="1229.94,-12.6 1219.63,-15.04 1229.22,-19.56 1229.94,-12.6"/>
</g>
<!-- Node21&#45;&gt;Node5 -->
<g id="edge33" class="edge">
<title>Node21&#45;&gt;Node5</title>
<path fill="none" stroke="midnightblue" d="M1569.75,-184.98C1606.64,-162.66 1697.07,-101.13 1656,-56 1627.71,-24.91 1346.67,-14.86 1229.69,-12.01"/>
<polygon fill="midnightblue" stroke="midnightblue" points="1229.63,-8.51 1219.55,-11.77 1229.47,-15.5 1229.63,-8.51"/>
</g>
<!-- Node22&#45;&gt;Node5 -->
<g id="edge35" class="edge">
<title>Node22&#45;&gt;Node5</title>
<path fill="none" stroke="midnightblue" d="M1702.57,-184.76C1706.41,-160.21 1713.43,-90.22 1676,-56 1643.54,-26.32 1349.82,-15.41 1229.77,-12.17"/>
<polygon fill="midnightblue" stroke="midnightblue" points="1229.82,-8.67 1219.73,-11.9 1229.63,-15.67 1229.82,-8.67"/>
</g>
<!-- Node23&#45;&gt;Node5 -->
<g id="edge39" class="edge">
<title>Node23&#45;&gt;Node5</title>
<path fill="none" stroke="midnightblue" d="M1760.16,-61.96C1749.83,-59.74 1738.51,-57.54 1728,-56 1545.88,-29.23 1327.25,-17.28 1229.98,-12.99"/>
<polygon fill="midnightblue" stroke="midnightblue" points="1229.98,-9.49 1219.84,-12.55 1229.68,-16.48 1229.98,-9.49"/>
</g>
<!-- Node24&#45;&gt;Node5 -->
<g id="edge41" class="edge">
<title>Node24&#45;&gt;Node5</title>
<path fill="none" stroke="midnightblue" d="M310.25,-184.99C311.12,-170.48 314.9,-140.81 331,-123 383.53,-64.9 417.7,-73.69 494,-56 614.65,-28.03 990.89,-15.82 1128.19,-12.21"/>
<polygon fill="midnightblue" stroke="midnightblue" points="1128.52,-15.7 1138.43,-11.94 1128.34,-8.7 1128.52,-15.7"/>
</g>
<!-- Node25&#45;&gt;Node18 -->
<g id="edge43" class="edge">
<title>Node25&#45;&gt;Node18</title>
<path fill="none" stroke="midnightblue" d="M695,-123.48C695,-115.08 695,-101.98 695,-91.16"/>
<polygon fill="midnightblue" stroke="midnightblue" points="698.5,-91.01 695,-81.01 691.5,-91.01 698.5,-91.01"/>
</g>
<!-- Node26&#45;&gt;Node5 -->
<g id="edge45" class="edge">
<title>Node26&#45;&gt;Node5</title>
<path fill="none" stroke="midnightblue" d="M409.4,-123.42C443.48,-107.07 521.85,-71.67 592,-56 693.53,-33.31 1004.76,-18.25 1127.99,-13.03"/>
<polygon fill="midnightblue" stroke="midnightblue" points="1128.43,-16.52 1138.28,-12.6 1128.14,-9.53 1128.43,-16.52"/>
</g>
<!-- Node27&#45;&gt;Node5 -->
<g id="edge47" class="edge">
<title>Node27&#45;&gt;Node5</title>
<path fill="none" stroke="midnightblue" d="M754.81,-184.91C708.39,-173.52 632.89,-153.65 625,-143 613.59,-127.6 589.23,-95.3 626,-56 659.92,-19.75 997.87,-12.7 1128.15,-11.33"/>
<polygon fill="midnightblue" stroke="midnightblue" points="1128.3,-14.83 1138.27,-11.23 1128.23,-7.83 1128.3,-14.83"/>
</g>
<!-- Node27&#45;&gt;Node25 -->
<g id="edge48" class="edge">
<title>Node27&#45;&gt;Node25</title>
<path fill="none" stroke="midnightblue" d="M777.25,-184.98C761.63,-175.3 735.94,-159.37 717.42,-147.89"/>
<polygon fill="midnightblue" stroke="midnightblue" points="719.07,-144.8 708.73,-142.51 715.38,-150.75 719.07,-144.8"/>
</g>
<!-- Node28&#45;&gt;Node29 -->
<g id="edge50" class="edge">
<title>Node28&#45;&gt;Node29</title>
<path fill="none" stroke="midnightblue" d="M631.37,-184.98C609.56,-174.99 573.2,-158.35 547.98,-146.81"/>
<polygon fill="midnightblue" stroke="midnightblue" points="549.14,-143.49 538.59,-142.51 546.23,-149.85 549.14,-143.49"/>
</g>
<!-- Node29&#45;&gt;Node18 -->
<g id="edge51" class="edge">
<title>Node29&#45;&gt;Node18</title>
<path fill="none" stroke="midnightblue" d="M545.07,-123.48C575.35,-113.18 626.44,-95.81 660.44,-84.25"/>
<polygon fill="midnightblue" stroke="midnightblue" points="661.63,-87.54 669.97,-81.01 659.38,-80.91 661.63,-87.54"/>
</g>
<!-- Node30&#45;&gt;Node29 -->
<g id="edge53" class="edge">
<title>Node30&#45;&gt;Node29</title>
<path fill="none" stroke="midnightblue" d="M514,-184.98C514.99,-176.58 516.53,-163.48 517.8,-152.66"/>
<polygon fill="midnightblue" stroke="midnightblue" points="521.31,-152.85 519,-142.51 514.35,-152.03 521.31,-152.85"/>
</g>
<!-- Node31&#45;&gt;Node5 -->
<g id="edge55" class="edge">
<title>Node31&#45;&gt;Node5</title>
<path fill="none" stroke="midnightblue" d="M872.07,-61.96C882.17,-59.93 892.96,-57.83 903,-56 981.46,-41.71 1072.88,-27.23 1128.31,-18.69"/>
<polygon fill="midnightblue" stroke="midnightblue" points="1128.88,-22.14 1138.23,-17.16 1127.82,-15.22 1128.88,-22.14"/>
</g>
<!-- Node32&#45;&gt;Node5 -->
<g id="edge57" class="edge">
<title>Node32&#45;&gt;Node5</title>
<path fill="none" stroke="midnightblue" d="M1007.54,-123.38C992.23,-116.18 973.14,-104.29 964,-87 957.56,-74.82 955.31,-66.69 964,-56 984.26,-31.06 1071.01,-19.46 1127.93,-14.44"/>
<polygon fill="midnightblue" stroke="midnightblue" points="1128.52,-17.9 1138.19,-13.57 1127.93,-10.92 1128.52,-17.9"/>
</g>
<!-- Node33&#45;&gt;Node5 -->
<g id="edge59" class="edge">
<title>Node33&#45;&gt;Node5</title>
<path fill="none" stroke="midnightblue" d="M1065.91,-61.98C1088.16,-51.95 1125.31,-35.2 1150.93,-23.65"/>
<polygon fill="midnightblue" stroke="midnightblue" points="1152.44,-26.81 1160.12,-19.51 1149.57,-20.43 1152.44,-26.81"/>
</g>
<!-- Node34&#45;&gt;Node5 -->
<g id="edge61" class="edge">
<title>Node34&#45;&gt;Node5</title>
<path fill="none" stroke="midnightblue" d="M1179,-61.98C1179,-53.58 1179,-40.48 1179,-29.66"/>
<polygon fill="midnightblue" stroke="midnightblue" points="1182.5,-29.51 1179,-19.51 1175.5,-29.51 1182.5,-29.51"/>
</g>
<!-- Node35&#45;&gt;Node5 -->
<g id="edge63" class="edge">
<title>Node35&#45;&gt;Node5</title>
<path fill="none" stroke="midnightblue" d="M1283.52,-61.98C1263.14,-52.03 1229.22,-35.49 1205.58,-23.96"/>
<polygon fill="midnightblue" stroke="midnightblue" points="1206.97,-20.75 1196.45,-19.51 1203.9,-27.04 1206.97,-20.75"/>
</g>
</g>
</svg>
        <g id="navigator" transform="translate(0 0)" fill="#404254">
                <rect fill="#f2f5e9" fill-opacity="0.5" stroke="#606060" stroke-width=".5" x="0" y="0" width="60" height="60"/>
                <use id="zoomplus" xlink:href="#zoomPlus" x="17" y="9" onmousedown="handleZoom(evt,'in')"/>
                <use id="zoomminus" xlink:href="#zoomMin" x="42" y="9" onmousedown="handleZoom(evt,'out')"/>
                <use id="reset" xlink:href="#resetDef" x="30" y="36" onmousedown="handleReset()"/>
                <g id="arrowUp" xlink:href="#dirArrow" transform="translate(30 24)" onmousedown="handlePan(0,-1)">
                  <use xlink:href="#rim" fill="#404040">
                        <set attributeName="fill" to="#808080" begin="arrowUp.mouseover" end="arrowUp.mouseout"/>
                  </use>
                  <path fill="none" stroke="white" stroke-width="1.5" d="M0,-3.0v7 M-2.5,-0.5L0,-3.0L2.5,-0.5"/>
                </g>
                <g id="arrowRight" xlink:href="#dirArrow" transform="rotate(90) translate(36 -43)" onmousedown="handlePan(1,0)">
                  <use xlink:href="#rim" fill="#404040">
                        <set attributeName="fill" to="#808080" begin="arrowRight.mouseover" end="arrowRight.mouseout"/>
                  </use>
                  <path fill="none" stroke="white" stroke-width="1.5" d="M0,-3.0v7 M-2.5,-0.5L0,-3.0L2.5,-0.5"/>
                </g>
                <g id="arrowDown" xlink:href="#dirArrow" transform="rotate(180) translate(-30 -48)" onmousedown="handlePan(0,1)">
                  <use xlink:href="#rim" fill="#404040">
                        <set attributeName="fill" to="#808080" begin="arrowDown.mouseover" end="arrowDown.mouseout"/>
                  </use>
                  <path fill="none" stroke="white" stroke-width="1.5" d="M0,-3.0v7 M-2.5,-0.5L0,-3.0L2.5,-0.5"/>
                </g>
                <g id="arrowLeft" xlink:href="#dirArrow" transform="rotate(270) translate(-36 17)" onmousedown="handlePan(-1,0)">
                  <use xlink:href="#rim" fill="#404040">
                        <set attributeName="fill" to="#808080" begin="arrowLeft.mouseover" end="arrowLeft.mouseout"/>
                  </use>
                  <path fill="none" stroke="white" stroke-width="1.5" d="M0,-3.0v7 M-2.5,-0.5L0,-3.0L2.5,-0.5"/>
                </g>
        </g>
        <svg viewBox="0 0 15 15" width="100%" height="30px" preserveAspectRatio="xMaxYMin meet">
         <g id="arrow_out" transform="scale(0.3 0.3)">
          <a xlink:href="d__vibration_8h__incl_org.svg" target="_base">
           <rect id="button" ry="5" rx="5" y="6" x="6" height="38" width="38"
                fill="#f2f5e9" fill-opacity="0.5" stroke="#606060" stroke-width="1.0"/>
           <path id="arrow"
             d="M 11.500037,31.436501 C 11.940474,20.09759 22.043105,11.32322 32.158766,21.979434 L 37.068811,17.246167 C 37.068811,17.246167 37.088388,32 37.088388,32 L 22.160133,31.978069 C 22.160133,31.978069 26.997745,27.140456 26.997745,27.140456 C 18.528582,18.264221 13.291696,25.230495 11.500037,31.436501 z"
             style="fill:#404040;"/>
          </a>
         </g>
        </svg>
</svg>
