<?xml version="1.0" encoding="UTF-8" standalone="no"?>
<!DOCTYPE svg PUBLIC "-//W3C//DTD SVG 1.1//EN"
 "http://www.w3.org/Graphics/SVG/1.1/DTD/svg11.dtd">
<!-- Generated by graphviz version 2.49.3 (20211027.1534)
 -->
<!-- Title: include/dolphin Pages: 1 -->
<!--zoomable 319 -->
<svg id="main" version="1.1" xmlns="http://www.w3.org/2000/svg" xmlns:xlink="http://www.w3.org/1999/xlink" xml:space="preserve" onload="init(evt)">
<style type="text/css"><![CDATA[
.edge:hover path { stroke: red; }
.edge:hover polygon { stroke: red; fill: red; }
]]></style>
<script type="text/javascript"><![CDATA[
var edges = document.getElementsByTagName('g');
if (edges && edges.length) {
  for (var i=0;i<edges.length;i++) {
    if (edges[i].id.substr(0,4)=='edge') {
      edges[i].setAttribute('class','edge');
    }
  }
}
]]></script>
        <defs>
                <circle id="rim" cx="0" cy="0" r="7"/>
                <circle id="rim2" cx="0" cy="0" r="3.5"/>
                <g id="zoomPlus">
                        <use xlink:href="#rim" fill="#404040">
                                <set attributeName="fill" to="#808080" begin="zoomplus.mouseover" end="zoomplus.mouseout"/>
                        </use>
                        <path d="M-4,0h8M0,-4v8" fill="none" stroke="white" stroke-width="1.5" pointer-events="none"/>
                </g>
                <g id="zoomMin">
                        <use xlink:href="#rim" fill="#404040">
                                <set attributeName="fill" to="#808080" begin="zoomminus.mouseover" end="zoomminus.mouseout"/>
                        </use>
                        <path d="M-4,0h8" fill="none" stroke="white" stroke-width="1.5" pointer-events="none"/>
                </g>
                <g id="dirArrow">
                        <path fill="none" stroke="white" stroke-width="1.5" d="M0,-3.0v7 M-2.5,-0.5L0,-3.0L2.5,-0.5"/>
                </g>
               <g id="resetDef">
                       <use xlink:href="#rim2" fill="#404040">
                               <set attributeName="fill" to="#808080" begin="reset.mouseover" end="reset.mouseout"/>
                       </use>
               </g>
        </defs>

<script type="text/javascript">
var viewWidth = 974;
var viewHeight = 319;
var sectionId = 'dynsection-0';
</script>
<script xlink:href="svgpan.js"/>
<svg id="graph" class="graph">
<g id="viewport">
<title>include/dolphin</title>
<polygon fill="white" stroke="transparent" points="-4,4 -4,-315 970,-315 970,4 -4,4"/>
<g id="clust1" class="cluster">
<title>clusterdir_d44c64559bbebec7f509842c48db8b23</title>
<g id="a_clust1"><a xlink:href="dir_d44c64559bbebec7f509842c48db8b23.html" target="_top" xlink:title="include">
<polygon fill="#ddddee" stroke="black" points="8,-8 8,-303 958,-303 958,-8 8,-8"/>
<text text-anchor="middle" x="483" y="-291" font-family="Helvetica,sans-Serif" font-size="10.00">include</text>
</a>
</g>
</g>
<g id="clust2" class="cluster">
<title>clusterdir_b778c3f297ab88300258a2935792c8cc</title>
<g id="a_clust2"><a xlink:href="dir_b778c3f297ab88300258a2935792c8cc.html" target="_top">
<polygon fill="#eeeeff" stroke="black" points="16,-16 16,-212 950,-212 950,-16 16,-16"/>
</a>
</g>
</g>
<!-- dir_6141ad2e1396b1970c524b101e645d67 -->
<g id="node1" class="node">
<title>dir_6141ad2e1396b1970c524b101e645d67</title>
<g id="a_node1"><a xlink:href="dir_6141ad2e1396b1970c524b101e645d67.html" target="_top" xlink:title="Runtime.PPCEABI.H">
<polygon fill="none" stroke="black" points="635.5,-276 528.5,-276 528.5,-240 635.5,-240 635.5,-276"/>
<text text-anchor="middle" x="582" y="-255.5" font-family="Helvetica,sans-Serif" font-size="10.00">Runtime.PPCEABI.H</text>
</a>
</g>
</g>
<!-- dir_b778c3f297ab88300258a2935792c8cc -->
<g id="node2" class="node">
<title>dir_b778c3f297ab88300258a2935792c8cc</title>
<text text-anchor="middle" x="267" y="-183.5" font-family="Helvetica,sans-Serif" font-size="10.00">dolphin</text>
</g>
<!-- dir_6141ad2e1396b1970c524b101e645d67&#45;&gt;dir_b778c3f297ab88300258a2935792c8cc -->
<g id="edge2" class="edge">
<title>dir_6141ad2e1396b1970c524b101e645d67&#45;&gt;dir_b778c3f297ab88300258a2935792c8cc</title>
<path fill="none" stroke="black" d="M528.45,-255.39C470.85,-252.07 377.51,-242.06 303,-212 300.94,-211.17 298.87,-210.2 296.84,-209.14"/>
<polygon fill="black" stroke="black" points="298.57,-206.09 288.18,-204 295,-212.11 298.57,-206.09"/>
<g id="a_edge2&#45;headlabel"><a xlink:href="dir_000851_000025.html" target="_top" xlink:title="9">
<text text-anchor="middle" x="303.11" y="-202.98" font-family="Helvetica,sans-Serif" font-size="10.00">9</text>
</a>
</g>
</g>
<!-- dir_521291349eb63a0524ef4b13f92d3bb5 -->
<g id="node3" class="node">
<title>dir_521291349eb63a0524ef4b13f92d3bb5</title>
<g id="a_node3"><a xlink:href="dir_521291349eb63a0524ef4b13f92d3bb5.html" target="_top" xlink:title="ai">
<polygon fill="white" stroke="black" points="870,-204 816,-204 816,-168 870,-168 870,-204"/>
<text text-anchor="middle" x="843" y="-183.5" font-family="Helvetica,sans-Serif" font-size="10.00">ai</text>
</a>
</g>
</g>
<!-- dir_18e4858151fe0ca0d0b33d25acbbb1c4 -->
<g id="node4" class="node">
<title>dir_18e4858151fe0ca0d0b33d25acbbb1c4</title>
<g id="a_node4"><a xlink:href="dir_18e4858151fe0ca0d0b33d25acbbb1c4.html" target="_top" xlink:title="ar">
<polygon fill="white" stroke="black" points="798,-204 744,-204 744,-168 798,-168 798,-204"/>
<text text-anchor="middle" x="771" y="-183.5" font-family="Helvetica,sans-Serif" font-size="10.00">ar</text>
</a>
</g>
</g>
<!-- dir_79a1ec55bd3d63dbffc944250452287c -->
<g id="node5" class="node">
<title>dir_79a1ec55bd3d63dbffc944250452287c</title>
<g id="a_node5"><a xlink:href="dir_79a1ec55bd3d63dbffc944250452287c.html" target="_top" xlink:title="base">
<polygon fill="white" stroke="black" points="726,-204 672,-204 672,-168 726,-168 726,-204"/>
<text text-anchor="middle" x="699" y="-183.5" font-family="Helvetica,sans-Serif" font-size="10.00">base</text>
</a>
</g>
</g>
<!-- dir_0ef040c2f93dc84452aa976ac860f1af -->
<g id="node6" class="node">
<title>dir_0ef040c2f93dc84452aa976ac860f1af</title>
<g id="a_node6"><a xlink:href="dir_0ef040c2f93dc84452aa976ac860f1af.html" target="_top" xlink:title="card">
<polygon fill="white" stroke="black" points="654,-204 600,-204 600,-168 654,-168 654,-204"/>
<text text-anchor="middle" x="627" y="-183.5" font-family="Helvetica,sans-Serif" font-size="10.00">card</text>
</a>
</g>
</g>
<!-- dir_d1528a5e946760f264693e8a3f2d64b5 -->
<g id="node7" class="node">
<title>dir_d1528a5e946760f264693e8a3f2d64b5</title>
<g id="a_node7"><a xlink:href="dir_d1528a5e946760f264693e8a3f2d64b5.html" target="_top" xlink:title="db">
<polygon fill="white" stroke="black" points="582,-204 528,-204 528,-168 582,-168 582,-204"/>
<text text-anchor="middle" x="555" y="-183.5" font-family="Helvetica,sans-Serif" font-size="10.00">db</text>
</a>
</g>
</g>
<!-- dir_09cbebe37d76dbc976deecd2ab12d8d9 -->
<g id="node8" class="node">
<title>dir_09cbebe37d76dbc976deecd2ab12d8d9</title>
<g id="a_node8"><a xlink:href="dir_09cbebe37d76dbc976deecd2ab12d8d9.html" target="_top" xlink:title="dsp">
<polygon fill="white" stroke="black" points="510,-204 456,-204 456,-168 510,-168 510,-204"/>
<text text-anchor="middle" x="483" y="-183.5" font-family="Helvetica,sans-Serif" font-size="10.00">dsp</text>
</a>
</g>
</g>
<!-- dir_29bcf741baa82324f70900332eca16cc -->
<g id="node9" class="node">
<title>dir_29bcf741baa82324f70900332eca16cc</title>
<g id="a_node9"><a xlink:href="dir_29bcf741baa82324f70900332eca16cc.html" target="_top" xlink:title="dvd">
<polygon fill="white" stroke="black" points="942,-132 888,-132 888,-96 942,-96 942,-132"/>
<text text-anchor="middle" x="915" y="-111.5" font-family="Helvetica,sans-Serif" font-size="10.00">dvd</text>
</a>
</g>
</g>
<!-- dir_a77b964d850efb05d208e24b02ac9b71 -->
<g id="node10" class="node">
<title>dir_a77b964d850efb05d208e24b02ac9b71</title>
<g id="a_node10"><a xlink:href="dir_a77b964d850efb05d208e24b02ac9b71.html" target="_top" xlink:title="gd">
<polygon fill="white" stroke="black" points="438,-204 384,-204 384,-168 438,-168 438,-204"/>
<text text-anchor="middle" x="411" y="-183.5" font-family="Helvetica,sans-Serif" font-size="10.00">gd</text>
</a>
</g>
</g>
<!-- dir_0a946831413905238e39a80608042579 -->
<g id="node12" class="node">
<title>dir_0a946831413905238e39a80608042579</title>
<g id="a_node12"><a xlink:href="dir_0a946831413905238e39a80608042579.html" target="_top" xlink:title="gx">
<polygon fill="white" stroke="black" points="258,-132 204,-132 204,-96 258,-96 258,-132"/>
<text text-anchor="middle" x="231" y="-111.5" font-family="Helvetica,sans-Serif" font-size="10.00">gx</text>
</a>
</g>
</g>
<!-- dir_a77b964d850efb05d208e24b02ac9b71&#45;&gt;dir_0a946831413905238e39a80608042579 -->
<g id="edge4" class="edge">
<title>dir_a77b964d850efb05d208e24b02ac9b71&#45;&gt;dir_0a946831413905238e39a80608042579</title>
<path fill="none" stroke="black" d="M383.99,-171.93C380.97,-170.57 377.93,-169.23 375,-168 339.07,-152.94 297.19,-137.79 267.89,-127.57"/>
<polygon fill="black" stroke="black" points="268.68,-124.13 258.08,-124.16 266.38,-130.75 268.68,-124.13"/>
<g id="a_edge4&#45;headlabel"><a xlink:href="dir_000033_000035.html" target="_top" xlink:title="1">
<text text-anchor="middle" x="273" y="-120.13" font-family="Helvetica,sans-Serif" font-size="10.00">1</text>
</a>
</g>
</g>
<!-- dir_da4e8bf8a3e0570034fe2e3a47ee8420 -->
<g id="node11" class="node">
<title>dir_da4e8bf8a3e0570034fe2e3a47ee8420</title>
<g id="a_node11"><a xlink:href="dir_da4e8bf8a3e0570034fe2e3a47ee8420.html" target="_top" xlink:title="gf">
<polygon fill="white" stroke="black" points="366,-204 312,-204 312,-168 366,-168 366,-204"/>
<text text-anchor="middle" x="339" y="-183.5" font-family="Helvetica,sans-Serif" font-size="10.00">gf</text>
</a>
</g>
</g>
<!-- dir_c18583810381222ac4660cab2f94c87b -->
<g id="node13" class="node">
<title>dir_c18583810381222ac4660cab2f94c87b</title>
<g id="a_node13"><a xlink:href="dir_c18583810381222ac4660cab2f94c87b.html" target="_top" xlink:title="mtx">
<polygon fill="white" stroke="black" points="258,-60 204,-60 204,-24 258,-24 258,-60"/>
<text text-anchor="middle" x="231" y="-39.5" font-family="Helvetica,sans-Serif" font-size="10.00">mtx</text>
</a>
</g>
</g>
<!-- dir_0a946831413905238e39a80608042579&#45;&gt;dir_c18583810381222ac4660cab2f94c87b -->
<g id="edge1" class="edge">
<title>dir_0a946831413905238e39a80608042579&#45;&gt;dir_c18583810381222ac4660cab2f94c87b</title>
<path fill="none" stroke="black" d="M231,-95.7C231,-87.98 231,-78.71 231,-70.11"/>
<polygon fill="black" stroke="black" points="234.5,-70.1 231,-60.1 227.5,-70.1 234.5,-70.1"/>
<g id="a_edge1&#45;headlabel"><a xlink:href="dir_000035_000036.html" target="_top" xlink:title="2">
<text text-anchor="middle" x="237.34" y="-71.2" font-family="Helvetica,sans-Serif" font-size="10.00">2</text>
</a>
</g>
</g>
<!-- dir_cae10961887f0d641c054afc85dac474 -->
<g id="node14" class="node">
<title>dir_cae10961887f0d641c054afc85dac474</title>
<g id="a_node14"><a xlink:href="dir_cae10961887f0d641c054afc85dac474.html" target="_top" xlink:title="os">
<polygon fill="white" stroke="black" points="942,-204 888,-204 888,-168 942,-168 942,-204"/>
<text text-anchor="middle" x="915" y="-183.5" font-family="Helvetica,sans-Serif" font-size="10.00">os</text>
</a>
</g>
</g>
<!-- dir_cae10961887f0d641c054afc85dac474&#45;&gt;dir_6141ad2e1396b1970c524b101e645d67 -->
<g id="edge6" class="edge">
<title>dir_cae10961887f0d641c054afc85dac474&#45;&gt;dir_6141ad2e1396b1970c524b101e645d67</title>
<path fill="none" stroke="black" d="M893.83,-204.04C889.17,-207.11 884.09,-209.97 879,-212 802.62,-242.39 707.69,-252.42 646.02,-255.64"/>
<polygon fill="black" stroke="black" points="645.49,-252.16 635.66,-256.13 645.82,-259.15 645.49,-252.16"/>
<g id="a_edge6&#45;headlabel"><a xlink:href="dir_000037_000851.html" target="_top" xlink:title="1">
<text text-anchor="middle" x="648.94" y="-246.65" font-family="Helvetica,sans-Serif" font-size="10.00">1</text>
</a>
</g>
</g>
<!-- dir_cae10961887f0d641c054afc85dac474&#45;&gt;dir_29bcf741baa82324f70900332eca16cc -->
<g id="edge5" class="edge">
<title>dir_cae10961887f0d641c054afc85dac474&#45;&gt;dir_29bcf741baa82324f70900332eca16cc</title>
<path fill="none" stroke="black" d="M915,-167.7C915,-159.98 915,-150.71 915,-142.11"/>
<polygon fill="black" stroke="black" points="918.5,-142.1 915,-132.1 911.5,-142.1 918.5,-142.1"/>
<g id="a_edge5&#45;headlabel"><a xlink:href="dir_000037_000032.html" target="_top" xlink:title="1">
<text text-anchor="middle" x="921.34" y="-143.2" font-family="Helvetica,sans-Serif" font-size="10.00">1</text>
</a>
</g>
</g>
<!-- dir_80850d49484b7deac3e56f29f2c142bb -->
<g id="node15" class="node">
<title>dir_80850d49484b7deac3e56f29f2c142bb</title>
<g id="a_node15"><a xlink:href="dir_80850d49484b7deac3e56f29f2c142bb.html" target="_top" xlink:title="pad">
<polygon fill="white" stroke="black" points="222,-204 168,-204 168,-168 222,-168 222,-204"/>
<text text-anchor="middle" x="195" y="-183.5" font-family="Helvetica,sans-Serif" font-size="10.00">pad</text>
</a>
</g>
</g>
<!-- dir_b02b9d991b880b57acc1b523a1a5973b -->
<g id="node16" class="node">
<title>dir_b02b9d991b880b57acc1b523a1a5973b</title>
<g id="a_node16"><a xlink:href="dir_b02b9d991b880b57acc1b523a1a5973b.html" target="_top" xlink:title="si">
<polygon fill="white" stroke="black" points="150,-204 96,-204 96,-168 150,-168 150,-204"/>
<text text-anchor="middle" x="123" y="-183.5" font-family="Helvetica,sans-Serif" font-size="10.00">si</text>
</a>
</g>
</g>
<!-- dir_644b56497ee721560a7c52bb893b6766 -->
<g id="node17" class="node">
<title>dir_644b56497ee721560a7c52bb893b6766</title>
<g id="a_node17"><a xlink:href="dir_644b56497ee721560a7c52bb893b6766.html" target="_top" xlink:title="vi">
<polygon fill="white" stroke="black" points="78,-204 24,-204 24,-168 78,-168 78,-204"/>
<text text-anchor="middle" x="51" y="-183.5" font-family="Helvetica,sans-Serif" font-size="10.00">vi</text>
</a>
</g>
</g>
<!-- dir_644b56497ee721560a7c52bb893b6766&#45;&gt;dir_0a946831413905238e39a80608042579 -->
<g id="edge3" class="edge">
<title>dir_644b56497ee721560a7c52bb893b6766&#45;&gt;dir_0a946831413905238e39a80608042579</title>
<path fill="none" stroke="black" d="M78.01,-171.93C81.03,-170.57 84.07,-169.23 87,-168 122.93,-152.94 164.81,-137.79 194.11,-127.57"/>
<polygon fill="black" stroke="black" points="195.62,-130.75 203.92,-124.16 193.32,-124.13 195.62,-130.75"/>
<g id="a_edge3&#45;headlabel"><a xlink:href="dir_000040_000035.html" target="_top" xlink:title="1">
<text text-anchor="middle" x="193.15" y="-132.11" font-family="Helvetica,sans-Serif" font-size="10.00">1</text>
</a>
</g>
</g>
</g>
</svg>
        <g id="navigator" transform="translate(0 0)" fill="#404254">
                <rect fill="#f2f5e9" fill-opacity="0.5" stroke="#606060" stroke-width=".5" x="0" y="0" width="60" height="60"/>
                <use id="zoomplus" xlink:href="#zoomPlus" x="17" y="9" onmousedown="handleZoom(evt,'in')"/>
                <use id="zoomminus" xlink:href="#zoomMin" x="42" y="9" onmousedown="handleZoom(evt,'out')"/>
                <use id="reset" xlink:href="#resetDef" x="30" y="36" onmousedown="handleReset()"/>
                <g id="arrowUp" xlink:href="#dirArrow" transform="translate(30 24)" onmousedown="handlePan(0,-1)">
                  <use xlink:href="#rim" fill="#404040">
                        <set attributeName="fill" to="#808080" begin="arrowUp.mouseover" end="arrowUp.mouseout"/>
                  </use>
                  <path fill="none" stroke="white" stroke-width="1.5" d="M0,-3.0v7 M-2.5,-0.5L0,-3.0L2.5,-0.5"/>
                </g>
                <g id="arrowRight" xlink:href="#dirArrow" transform="rotate(90) translate(36 -43)" onmousedown="handlePan(1,0)">
                  <use xlink:href="#rim" fill="#404040">
                        <set attributeName="fill" to="#808080" begin="arrowRight.mouseover" end="arrowRight.mouseout"/>
                  </use>
                  <path fill="none" stroke="white" stroke-width="1.5" d="M0,-3.0v7 M-2.5,-0.5L0,-3.0L2.5,-0.5"/>
                </g>
                <g id="arrowDown" xlink:href="#dirArrow" transform="rotate(180) translate(-30 -48)" onmousedown="handlePan(0,1)">
                  <use xlink:href="#rim" fill="#404040">
                        <set attributeName="fill" to="#808080" begin="arrowDown.mouseover" end="arrowDown.mouseout"/>
                  </use>
                  <path fill="none" stroke="white" stroke-width="1.5" d="M0,-3.0v7 M-2.5,-0.5L0,-3.0L2.5,-0.5"/>
                </g>
                <g id="arrowLeft" xlink:href="#dirArrow" transform="rotate(270) translate(-36 17)" onmousedown="handlePan(-1,0)">
                  <use xlink:href="#rim" fill="#404040">
                        <set attributeName="fill" to="#808080" begin="arrowLeft.mouseover" end="arrowLeft.mouseout"/>
                  </use>
                  <path fill="none" stroke="white" stroke-width="1.5" d="M0,-3.0v7 M-2.5,-0.5L0,-3.0L2.5,-0.5"/>
                </g>
        </g>
        <svg viewBox="0 0 15 15" width="100%" height="30px" preserveAspectRatio="xMaxYMin meet">
         <g id="arrow_out" transform="scale(0.3 0.3)">
          <a xlink:href="dir_b778c3f297ab88300258a2935792c8cc_dep_org.svg" target="_base">
           <rect id="button" ry="5" rx="5" y="6" x="6" height="38" width="38"
                fill="#f2f5e9" fill-opacity="0.5" stroke="#606060" stroke-width="1.0"/>
           <path id="arrow"
             d="M 11.500037,31.436501 C 11.940474,20.09759 22.043105,11.32322 32.158766,21.979434 L 37.068811,17.246167 C 37.068811,17.246167 37.088388,32 37.088388,32 L 22.160133,31.978069 C 22.160133,31.978069 26.997745,27.140456 26.997745,27.140456 C 18.528582,18.264221 13.291696,25.230495 11.500037,31.436501 z"
             style="fill:#404040;"/>
          </a>
         </g>
        </svg>
</svg>
