<?xml version="1.0" encoding="UTF-8" standalone="no"?>
<!DOCTYPE svg PUBLIC "-//W3C//DTD SVG 1.1//EN"
 "http://www.w3.org/Graphics/SVG/1.1/DTD/svg11.dtd">
<!-- Generated by graphviz version 2.44.0 ()
 -->
<!-- Title: include/JSystem Pages: 1 -->
<svg width="1022pt" height="535pt"
 viewBox="0.00 0.00 1022.00 535.00" xmlns="http://www.w3.org/2000/svg" xmlns:xlink="http://www.w3.org/1999/xlink">
<g id="graph0" class="graph" transform="scale(1 1) rotate(0) translate(4 531)">
<title>include/JSystem</title>
<polygon fill="white" stroke="transparent" points="-4,4 -4,-531 1018,-531 1018,4 -4,4"/>
<g id="clust1" class="cluster">
<title>clusterdir_d44c64559bbebec7f509842c48db8b23</title>
<g id="a_clust1"><a xlink:href="dir_d44c64559bbebec7f509842c48db8b23.html" target="_top" xlink:title="include">
<polygon fill="#ddddee" stroke="black" points="8,-8 8,-519 1006,-519 1006,-8 8,-8"/>
<text text-anchor="middle" x="507" y="-507" font-family="Helvetica,sans-Serif" font-size="10.00">include</text>
</a>
</g>
</g>
<g id="clust2" class="cluster">
<title>clusterdir_4f0979a7f5e3194619cde56505e372d8</title>
<g id="a_clust2"><a xlink:href="dir_4f0979a7f5e3194619cde56505e372d8.html" target="_top">
<polygon fill="#eeeeff" stroke="black" points="16,-80 16,-492 644,-492 644,-80 16,-80"/>
</a>
</g>
</g>
<!-- dir_54283da8a0cf1311a88c964d76512876 -->
<g id="node1" class="node">
<title>dir_54283da8a0cf1311a88c964d76512876</title>
<g id="a_node1"><a xlink:href="dir_54283da8a0cf1311a88c964d76512876.html" target="_top" xlink:title="SSystem">
<polygon fill="white" stroke="red" points="708,-268 652,-268 652,-232 708,-232 708,-268"/>
<text text-anchor="middle" x="680" y="-247.5" font-family="Helvetica,sans-Serif" font-size="10.00">SSystem</text>
</a>
</g>
</g>
<!-- dir_b778c3f297ab88300258a2935792c8cc -->
<g id="node2" class="node">
<title>dir_b778c3f297ab88300258a2935792c8cc</title>
<g id="a_node2"><a xlink:href="dir_b778c3f297ab88300258a2935792c8cc.html" target="_top" xlink:title="dolphin">
<polygon fill="white" stroke="red" points="730,-124 676,-124 676,-88 730,-88 730,-124"/>
<text text-anchor="middle" x="703" y="-103.5" font-family="Helvetica,sans-Serif" font-size="10.00">dolphin</text>
</a>
</g>
</g>
<!-- dir_54283da8a0cf1311a88c964d76512876&#45;&gt;dir_b778c3f297ab88300258a2935792c8cc -->
<g id="edge26" class="edge">
<title>dir_54283da8a0cf1311a88c964d76512876&#45;&gt;dir_b778c3f297ab88300258a2935792c8cc</title>
<path fill="none" stroke="black" d="M673.5,-231.93C667.55,-213.77 660.69,-184.34 668,-160 670.92,-150.28 676.26,-140.7 681.91,-132.41"/>
<polygon fill="black" stroke="black" points="684.76,-134.44 687.82,-124.3 679.1,-130.32 684.76,-134.44"/>
<g id="a_edge26&#45;headlabel"><a xlink:href="dir_001623_000025.html" target="_top" xlink:title="41">
<text text-anchor="middle" x="684.94" y="-136.52" font-family="Helvetica,sans-Serif" font-size="10.00">41</text>
</a>
</g>
</g>
<!-- dir_cd1009b6de6f257cf504091b6f95eba2 -->
<g id="node14" class="node">
<title>dir_cd1009b6de6f257cf504091b6f95eba2</title>
<g id="a_node14"><a xlink:href="dir_cd1009b6de6f257cf504091b6f95eba2.html" target="_top" xlink:title="JKernel">
<polygon fill="white" stroke="black" points="482,-196 428,-196 428,-160 482,-160 482,-196"/>
<text text-anchor="middle" x="455" y="-175.5" font-family="Helvetica,sans-Serif" font-size="10.00">JKernel</text>
</a>
</g>
</g>
<!-- dir_54283da8a0cf1311a88c964d76512876&#45;&gt;dir_cd1009b6de6f257cf504091b6f95eba2 -->
<g id="edge27" class="edge">
<title>dir_54283da8a0cf1311a88c964d76512876&#45;&gt;dir_cd1009b6de6f257cf504091b6f95eba2</title>
<path fill="none" stroke="black" d="M651.92,-233.57C650.61,-233.01 649.3,-232.48 648,-232 583.8,-208.07 560.65,-218.42 491.82,-195.86"/>
<polygon fill="black" stroke="black" points="492.86,-192.52 482.26,-192.62 490.61,-199.15 492.86,-192.52"/>
<g id="a_edge27&#45;headlabel"><a xlink:href="dir_001623_000054.html" target="_top" xlink:title="1">
<text text-anchor="middle" x="497.17" y="-188.49" font-family="Helvetica,sans-Serif" font-size="10.00">1</text>
</a>
</g>
</g>
<!-- dir_745c4d827b885b106b58a37f86b4723a -->
<g id="node15" class="node">
<title>dir_745c4d827b885b106b58a37f86b4723a</title>
<g id="a_node15"><a xlink:href="dir_745c4d827b885b106b58a37f86b4723a.html" target="_top" xlink:title="JMath">
<polygon fill="white" stroke="black" points="156,-484 102,-484 102,-448 156,-448 156,-484"/>
<text text-anchor="middle" x="129" y="-463.5" font-family="Helvetica,sans-Serif" font-size="10.00">JMath</text>
</a>
</g>
</g>
<!-- dir_54283da8a0cf1311a88c964d76512876&#45;&gt;dir_745c4d827b885b106b58a37f86b4723a -->
<g id="edge25" class="edge">
<title>dir_54283da8a0cf1311a88c964d76512876&#45;&gt;dir_745c4d827b885b106b58a37f86b4723a</title>
<path fill="none" stroke="black" d="M676.79,-268.15C672.43,-287.48 663.03,-318.94 645,-340 603.81,-388.12 582.23,-392.37 522,-412 373.49,-460.4 320.82,-407.59 166.01,-448.32"/>
<polygon fill="black" stroke="black" points="164.88,-445 156.15,-451.01 166.71,-451.76 164.88,-445"/>
<g id="a_edge25&#45;headlabel"><a xlink:href="dir_001623_000055.html" target="_top" xlink:title="1">
<text text-anchor="middle" x="167.6" y="-438.82" font-family="Helvetica,sans-Serif" font-size="10.00">1</text>
</a>
</g>
</g>
<!-- dir_6141ad2e1396b1970c524b101e645d67 -->
<g id="node4" class="node">
<title>dir_6141ad2e1396b1970c524b101e645d67</title>
<g id="a_node4"><a xlink:href="dir_6141ad2e1396b1970c524b101e645d67.html" target="_top" xlink:title="Runtime.PPCEABI.H">
<polygon fill="none" stroke="black" points="756.5,-52 649.5,-52 649.5,-16 756.5,-16 756.5,-52"/>
<text text-anchor="middle" x="703" y="-31.5" font-family="Helvetica,sans-Serif" font-size="10.00">Runtime.PPCEABI.H</text>
</a>
</g>
</g>
<!-- dir_b778c3f297ab88300258a2935792c8cc&#45;&gt;dir_6141ad2e1396b1970c524b101e645d67 -->
<g id="edge2" class="edge">
<title>dir_b778c3f297ab88300258a2935792c8cc&#45;&gt;dir_6141ad2e1396b1970c524b101e645d67</title>
<path fill="none" stroke="black" d="M697.08,-87.7C696.29,-79.98 696.06,-70.71 696.4,-62.11"/>
<polygon fill="black" stroke="black" points="699.9,-62.32 697.1,-52.1 692.92,-61.84 699.9,-62.32"/>
<g id="a_edge2&#45;headlabel"><a xlink:href="dir_000025_001622.html" target="_top" xlink:title="1">
<text text-anchor="middle" x="702.48" y="-63.61" font-family="Helvetica,sans-Serif" font-size="10.00">1</text>
</a>
</g>
</g>
<!-- dir_f04ab26cc3a9b32efb726132a22d6a75 -->
<g id="node3" class="node">
<title>dir_f04ab26cc3a9b32efb726132a22d6a75</title>
<g id="a_node3"><a xlink:href="dir_f04ab26cc3a9b32efb726132a22d6a75.html" target="_top" xlink:title="MSL_C.PPCEABI.bare.H">
<polygon fill="white" stroke="red" points="997.5,-196 872.5,-196 872.5,-160 997.5,-160 997.5,-196"/>
<text text-anchor="middle" x="935" y="-175.5" font-family="Helvetica,sans-Serif" font-size="10.00">MSL_C.PPCEABI.bare.H</text>
</a>
</g>
</g>
<!-- dir_f04ab26cc3a9b32efb726132a22d6a75&#45;&gt;dir_b778c3f297ab88300258a2935792c8cc -->
<g id="edge3" class="edge">
<title>dir_f04ab26cc3a9b32efb726132a22d6a75&#45;&gt;dir_b778c3f297ab88300258a2935792c8cc</title>
<path fill="none" stroke="black" d="M878.54,-159.97C835.51,-146.98 777.48,-129.47 740.14,-118.21"/>
<polygon fill="black" stroke="black" points="740.78,-114.74 730.19,-115.2 738.75,-121.44 740.78,-114.74"/>
<g id="a_edge3&#45;headlabel"><a xlink:href="dir_000069_000025.html" target="_top" xlink:title="56">
<text text-anchor="middle" x="745.04" y="-110.56" font-family="Helvetica,sans-Serif" font-size="10.00">56</text>
</a>
</g>
</g>
<!-- dir_f04ab26cc3a9b32efb726132a22d6a75&#45;&gt;dir_6141ad2e1396b1970c524b101e645d67 -->
<g id="edge4" class="edge">
<title>dir_f04ab26cc3a9b32efb726132a22d6a75&#45;&gt;dir_6141ad2e1396b1970c524b101e645d67</title>
<path fill="none" stroke="black" d="M907.02,-159.87C865.12,-134.23 786.08,-85.85 739.64,-57.43"/>
<polygon fill="black" stroke="black" points="741.44,-54.42 731.08,-52.19 737.79,-60.39 741.44,-54.42"/>
<g id="a_edge4&#45;headlabel"><a xlink:href="dir_000069_001622.html" target="_top" xlink:title="1">
<text text-anchor="middle" x="745.99" y="-51.38" font-family="Helvetica,sans-Serif" font-size="10.00">1</text>
</a>
</g>
</g>
<!-- dir_6141ad2e1396b1970c524b101e645d67&#45;&gt;dir_b778c3f297ab88300258a2935792c8cc -->
<g id="edge33" class="edge">
<title>dir_6141ad2e1396b1970c524b101e645d67&#45;&gt;dir_b778c3f297ab88300258a2935792c8cc</title>
<path fill="none" stroke="black" d="M708.9,-52.1C709.7,-59.79 709.94,-69.05 709.6,-77.67"/>
<polygon fill="black" stroke="black" points="706.11,-77.48 708.92,-87.7 713.09,-77.96 706.11,-77.48"/>
<g id="a_edge33&#45;headlabel"><a xlink:href="dir_001622_000025.html" target="_top" xlink:title="9">
<text text-anchor="middle" x="703.52" y="-71.2" font-family="Helvetica,sans-Serif" font-size="10.00">9</text>
</a>
</g>
</g>
<!-- dir_4f0979a7f5e3194619cde56505e372d8 -->
<g id="node5" class="node">
<title>dir_4f0979a7f5e3194619cde56505e372d8</title>
<text text-anchor="middle" x="608" y="-463.5" font-family="Helvetica,sans-Serif" font-size="10.00">JSystem</text>
</g>
<!-- dir_a9517e75d808b51ad9f5947a3cea1d31 -->
<g id="node6" class="node">
<title>dir_a9517e75d808b51ad9f5947a3cea1d31</title>
<g id="a_node6"><a xlink:href="dir_a9517e75d808b51ad9f5947a3cea1d31.html" target="_top" xlink:title="J2DGraph">
<polygon fill="white" stroke="black" points="84,-484 24,-484 24,-448 84,-448 84,-484"/>
<text text-anchor="middle" x="54" y="-463.5" font-family="Helvetica,sans-Serif" font-size="10.00">J2DGraph</text>
</a>
</g>
</g>
<!-- dir_a9517e75d808b51ad9f5947a3cea1d31&#45;&gt;dir_b778c3f297ab88300258a2935792c8cc -->
<g id="edge9" class="edge">
<title>dir_a9517e75d808b51ad9f5947a3cea1d31&#45;&gt;dir_b778c3f297ab88300258a2935792c8cc</title>
<path fill="none" stroke="black" d="M84.32,-450.66C87.21,-449.64 90.14,-448.72 93,-448 357.4,-381.22 486.08,-512.86 697,-340 737.63,-306.7 751.42,-284.13 745,-232 742.98,-215.63 732.42,-175.58 727,-160 723.94,-151.22 719.98,-141.91 716.17,-133.58"/>
<polygon fill="black" stroke="black" points="719.24,-131.89 711.81,-124.34 712.91,-134.88 719.24,-131.89"/>
<g id="a_edge9&#45;headlabel"><a xlink:href="dir_000046_000025.html" target="_top" xlink:title="23">
<text text-anchor="middle" x="723.34" y="-131.44" font-family="Helvetica,sans-Serif" font-size="10.00">23</text>
</a>
</g>
</g>
<!-- dir_a9517e75d808b51ad9f5947a3cea1d31&#45;&gt;dir_f04ab26cc3a9b32efb726132a22d6a75 -->
<g id="edge12" class="edge">
<title>dir_a9517e75d808b51ad9f5947a3cea1d31&#45;&gt;dir_f04ab26cc3a9b32efb726132a22d6a75</title>
<path fill="none" stroke="black" d="M84.3,-450.57C87.2,-449.56 90.12,-448.68 93,-448 240.05,-413.26 639.88,-485.32 772,-412 855.39,-365.72 905.75,-256.6 925.44,-205.84"/>
<polygon fill="black" stroke="black" points="928.81,-206.81 929.07,-196.22 922.26,-204.33 928.81,-206.81"/>
<g id="a_edge12&#45;headlabel"><a xlink:href="dir_000046_000069.html" target="_top" xlink:title="1">
<text text-anchor="middle" x="930.2" y="-208.67" font-family="Helvetica,sans-Serif" font-size="10.00">1</text>
</a>
</g>
</g>
<!-- dir_d068c98d77942e923a6396bfbdef05f0 -->
<g id="node7" class="node">
<title>dir_d068c98d77942e923a6396bfbdef05f0</title>
<g id="a_node7"><a xlink:href="dir_d068c98d77942e923a6396bfbdef05f0.html" target="_top" xlink:title="J3DGraphAnimator">
<polygon fill="white" stroke="black" points="512.5,-412 413.5,-412 413.5,-376 512.5,-376 512.5,-412"/>
<text text-anchor="middle" x="463" y="-391.5" font-family="Helvetica,sans-Serif" font-size="10.00">J3DGraphAnimator</text>
</a>
</g>
</g>
<!-- dir_a9517e75d808b51ad9f5947a3cea1d31&#45;&gt;dir_d068c98d77942e923a6396bfbdef05f0 -->
<g id="edge11" class="edge">
<title>dir_a9517e75d808b51ad9f5947a3cea1d31&#45;&gt;dir_d068c98d77942e923a6396bfbdef05f0</title>
<path fill="none" stroke="black" d="M84.37,-450.84C87.25,-449.78 90.16,-448.81 93,-448 150.03,-431.81 314.12,-411.73 403.41,-401.56"/>
<polygon fill="black" stroke="black" points="403.84,-405.04 413.39,-400.43 403.06,-398.08 403.84,-405.04"/>
<g id="a_edge11&#45;headlabel"><a xlink:href="dir_000046_000047.html" target="_top" xlink:title="1">
<text text-anchor="middle" x="400.59" y="-405.76" font-family="Helvetica,sans-Serif" font-size="10.00">1</text>
</a>
</g>
</g>
<!-- dir_a9517e75d808b51ad9f5947a3cea1d31&#45;&gt;dir_cd1009b6de6f257cf504091b6f95eba2 -->
<g id="edge10" class="edge">
<title>dir_a9517e75d808b51ad9f5947a3cea1d31&#45;&gt;dir_cd1009b6de6f257cf504091b6f95eba2</title>
<path fill="none" stroke="black" d="M72.16,-447.82C92.09,-429.29 125.32,-399.33 156,-376 247.13,-306.72 361.87,-235.18 419.1,-200.47"/>
<polygon fill="black" stroke="black" points="421.03,-203.39 427.78,-195.23 417.41,-197.4 421.03,-203.39"/>
<g id="a_edge10&#45;headlabel"><a xlink:href="dir_000046_000054.html" target="_top" xlink:title="2">
<text text-anchor="middle" x="419.42" y="-205.18" font-family="Helvetica,sans-Serif" font-size="10.00">2</text>
</a>
</g>
</g>
<!-- dir_45593f23b58a9cb34ecfe1ccd7e4e81f -->
<g id="node20" class="node">
<title>dir_45593f23b58a9cb34ecfe1ccd7e4e81f</title>
<g id="a_node20"><a xlink:href="dir_45593f23b58a9cb34ecfe1ccd7e4e81f.html" target="_top" xlink:title="JSupport">
<polygon fill="white" stroke="black" points="460,-124 404,-124 404,-88 460,-88 460,-124"/>
<text text-anchor="middle" x="432" y="-103.5" font-family="Helvetica,sans-Serif" font-size="10.00">JSupport</text>
</a>
</g>
</g>
<!-- dir_a9517e75d808b51ad9f5947a3cea1d31&#45;&gt;dir_45593f23b58a9cb34ecfe1ccd7e4e81f -->
<g id="edge8" class="edge">
<title>dir_a9517e75d808b51ad9f5947a3cea1d31&#45;&gt;dir_45593f23b58a9cb34ecfe1ccd7e4e81f</title>
<path fill="none" stroke="black" d="M60.48,-447.79C69.83,-421.36 86,-368.99 86,-323 86,-323 86,-323 86,-249 86,-183.03 304,-132.32 393.92,-114.21"/>
<polygon fill="black" stroke="black" points="394.85,-117.59 403.98,-112.21 393.49,-110.73 394.85,-117.59"/>
<g id="a_edge8&#45;headlabel"><a xlink:href="dir_000046_000064.html" target="_top" xlink:title="4">
<text text-anchor="middle" x="391.88" y="-118.58" font-family="Helvetica,sans-Serif" font-size="10.00">4</text>
</a>
</g>
</g>
<!-- dir_25682d7fe27d5da48e7af3ae8c2abb7f -->
<g id="node21" class="node">
<title>dir_25682d7fe27d5da48e7af3ae8c2abb7f</title>
<g id="a_node21"><a xlink:href="dir_25682d7fe27d5da48e7af3ae8c2abb7f.html" target="_top" xlink:title="JUtility">
<polygon fill="white" stroke="black" points="507,-268 453,-268 453,-232 507,-232 507,-268"/>
<text text-anchor="middle" x="480" y="-247.5" font-family="Helvetica,sans-Serif" font-size="10.00">JUtility</text>
</a>
</g>
</g>
<!-- dir_a9517e75d808b51ad9f5947a3cea1d31&#45;&gt;dir_25682d7fe27d5da48e7af3ae8c2abb7f -->
<g id="edge7" class="edge">
<title>dir_a9517e75d808b51ad9f5947a3cea1d31&#45;&gt;dir_25682d7fe27d5da48e7af3ae8c2abb7f</title>
<path fill="none" stroke="black" d="M84.19,-449.56C140.61,-420.73 265.94,-356.87 372,-304 395.83,-292.12 422.71,-278.93 443.69,-268.68"/>
<polygon fill="black" stroke="black" points="445.43,-271.73 452.88,-264.19 442.36,-265.43 445.43,-271.73"/>
<g id="a_edge7&#45;headlabel"><a xlink:href="dir_000046_000065.html" target="_top" xlink:title="12">
<text text-anchor="middle" x="443.44" y="-273.35" font-family="Helvetica,sans-Serif" font-size="10.00">12</text>
</a>
</g>
</g>
<!-- dir_d068c98d77942e923a6396bfbdef05f0&#45;&gt;dir_b778c3f297ab88300258a2935792c8cc -->
<g id="edge24" class="edge">
<title>dir_d068c98d77942e923a6396bfbdef05f0&#45;&gt;dir_b778c3f297ab88300258a2935792c8cc</title>
<path fill="none" stroke="black" d="M512.71,-377.29C514.15,-376.85 515.59,-376.42 517,-376 622.15,-344.67 690.43,-366.39 739,-268 746.08,-253.65 741.36,-247.82 739,-232 736.53,-215.45 732.71,-212.05 728,-196 721.89,-175.14 715.24,-151.45 710.34,-133.75"/>
<polygon fill="black" stroke="black" points="713.71,-132.8 707.68,-124.09 706.97,-134.67 713.71,-132.8"/>
<g id="a_edge24&#45;headlabel"><a xlink:href="dir_000047_000025.html" target="_top" xlink:title="15">
<text text-anchor="middle" x="717.41" y="-133.01" font-family="Helvetica,sans-Serif" font-size="10.00">15</text>
</a>
</g>
</g>
<!-- dir_4a61573b4bce9188d102de1e22b28aee -->
<g id="node8" class="node">
<title>dir_4a61573b4bce9188d102de1e22b28aee</title>
<g id="a_node8"><a xlink:href="dir_4a61573b4bce9188d102de1e22b28aee.html" target="_top" xlink:title="J3DGraphBase">
<polygon fill="white" stroke="black" points="546.5,-340 463.5,-340 463.5,-304 546.5,-304 546.5,-340"/>
<text text-anchor="middle" x="505" y="-319.5" font-family="Helvetica,sans-Serif" font-size="10.00">J3DGraphBase</text>
</a>
</g>
</g>
<!-- dir_d068c98d77942e923a6396bfbdef05f0&#45;&gt;dir_4a61573b4bce9188d102de1e22b28aee -->
<g id="edge23" class="edge">
<title>dir_d068c98d77942e923a6396bfbdef05f0&#45;&gt;dir_4a61573b4bce9188d102de1e22b28aee</title>
<path fill="none" stroke="black" d="M473.38,-375.7C478.26,-367.56 484.19,-357.69 489.58,-348.7"/>
<polygon fill="black" stroke="black" points="492.59,-350.48 494.74,-340.1 486.59,-346.88 492.59,-350.48"/>
<g id="a_edge23&#45;headlabel"><a xlink:href="dir_000047_000048.html" target="_top" xlink:title="10">
<text text-anchor="middle" x="493.18" y="-352.52" font-family="Helvetica,sans-Serif" font-size="10.00">10</text>
</a>
</g>
</g>
<!-- dir_d068c98d77942e923a6396bfbdef05f0&#45;&gt;dir_25682d7fe27d5da48e7af3ae8c2abb7f -->
<g id="edge22" class="edge">
<title>dir_d068c98d77942e923a6396bfbdef05f0&#45;&gt;dir_25682d7fe27d5da48e7af3ae8c2abb7f</title>
<path fill="none" stroke="black" d="M420.89,-375.87C405.82,-367.45 390.47,-355.67 382,-340 374.39,-325.93 373.81,-317.74 382,-304 395.23,-281.81 421.32,-268.35 443.26,-260.55"/>
<polygon fill="black" stroke="black" points="444.58,-263.8 452.99,-257.35 442.4,-257.15 444.58,-263.8"/>
<g id="a_edge22&#45;headlabel"><a xlink:href="dir_000047_000065.html" target="_top" xlink:title="3">
<text text-anchor="middle" x="442.05" y="-265.12" font-family="Helvetica,sans-Serif" font-size="10.00">3</text>
</a>
</g>
</g>
<!-- dir_4a61573b4bce9188d102de1e22b28aee&#45;&gt;dir_54283da8a0cf1311a88c964d76512876 -->
<g id="edge17" class="edge">
<title>dir_4a61573b4bce9188d102de1e22b28aee&#45;&gt;dir_54283da8a0cf1311a88c964d76512876</title>
<path fill="none" stroke="black" d="M546.58,-307.24C573.06,-298.11 608.19,-285.32 642.63,-270.3"/>
<polygon fill="black" stroke="black" points="644.11,-273.48 651.83,-266.23 641.27,-267.08 644.11,-273.48"/>
<g id="a_edge17&#45;headlabel"><a xlink:href="dir_000048_001623.html" target="_top" xlink:title="1">
<text text-anchor="middle" x="641.97" y="-275.03" font-family="Helvetica,sans-Serif" font-size="10.00">1</text>
</a>
</g>
</g>
<!-- dir_4a61573b4bce9188d102de1e22b28aee&#45;&gt;dir_b778c3f297ab88300258a2935792c8cc -->
<g id="edge18" class="edge">
<title>dir_4a61573b4bce9188d102de1e22b28aee&#45;&gt;dir_b778c3f297ab88300258a2935792c8cc</title>
<path fill="none" stroke="black" d="M546.64,-306.74C549.8,-305.77 552.94,-304.85 556,-304 626.65,-284.38 671.16,-325.22 717,-268 727,-255.51 721.01,-247.49 717,-232 712.41,-214.28 701.59,-213.72 697,-196 692.99,-180.51 696.1,-175.97 697,-160 697.48,-151.55 698.38,-142.38 699.34,-134.07"/>
<polygon fill="black" stroke="black" points="702.81,-134.5 700.56,-124.14 695.87,-133.64 702.81,-134.5"/>
<g id="a_edge18&#45;headlabel"><a xlink:href="dir_000048_000025.html" target="_top" xlink:title="29">
<text text-anchor="middle" x="705.19" y="-135.91" font-family="Helvetica,sans-Serif" font-size="10.00">29</text>
</a>
</g>
</g>
<!-- dir_4a61573b4bce9188d102de1e22b28aee&#45;&gt;dir_25682d7fe27d5da48e7af3ae8c2abb7f -->
<g id="edge16" class="edge">
<title>dir_4a61573b4bce9188d102de1e22b28aee&#45;&gt;dir_25682d7fe27d5da48e7af3ae8c2abb7f</title>
<path fill="none" stroke="black" d="M498.82,-303.7C496,-295.81 492.61,-286.3 489.48,-277.55"/>
<polygon fill="black" stroke="black" points="492.77,-276.34 486.11,-268.1 486.18,-278.7 492.77,-276.34"/>
<g id="a_edge16&#45;headlabel"><a xlink:href="dir_000048_000065.html" target="_top" xlink:title="1">
<text text-anchor="middle" x="496.65" y="-276.27" font-family="Helvetica,sans-Serif" font-size="10.00">1</text>
</a>
</g>
</g>
<!-- dir_a362cd36472d11e3c6a34ca86d202e04 -->
<g id="node9" class="node">
<title>dir_a362cd36472d11e3c6a34ca86d202e04</title>
<g id="a_node9"><a xlink:href="dir_a362cd36472d11e3c6a34ca86d202e04.html" target="_top" xlink:title="J3DGraphLoader">
<polygon fill="white" stroke="black" points="264,-484 174,-484 174,-448 264,-448 264,-484"/>
<text text-anchor="middle" x="219" y="-463.5" font-family="Helvetica,sans-Serif" font-size="10.00">J3DGraphLoader</text>
</a>
</g>
</g>
<!-- dir_a362cd36472d11e3c6a34ca86d202e04&#45;&gt;dir_b778c3f297ab88300258a2935792c8cc -->
<g id="edge21" class="edge">
<title>dir_a362cd36472d11e3c6a34ca86d202e04&#45;&gt;dir_b778c3f297ab88300258a2935792c8cc</title>
<path fill="none" stroke="black" d="M264.17,-449.92C267.14,-449.2 270.1,-448.54 273,-448 331.99,-436.91 771,-455.83 812,-412 839.33,-382.79 826.78,-269.17 812,-232 803.87,-211.55 791,-213.76 778,-196 767.19,-181.23 769.16,-174.51 758,-160 750.11,-149.73 740.23,-139.59 731.04,-130.96"/>
<polygon fill="black" stroke="black" points="733.27,-128.27 723.53,-124.11 728.55,-133.44 733.27,-128.27"/>
<g id="a_edge21&#45;headlabel"><a xlink:href="dir_000049_000025.html" target="_top" xlink:title="8">
<text text-anchor="middle" x="737.84" y="-126.1" font-family="Helvetica,sans-Serif" font-size="10.00">8</text>
</a>
</g>
</g>
<!-- dir_f96cf58bc010b3610669f6849d6dc02e -->
<g id="node10" class="node">
<title>dir_f96cf58bc010b3610669f6849d6dc02e</title>
<g id="a_node10"><a xlink:href="dir_f96cf58bc010b3610669f6849d6dc02e.html" target="_top" xlink:title="J3DU">
<polygon fill="white" stroke="black" points="336,-484 282,-484 282,-448 336,-448 336,-484"/>
<text text-anchor="middle" x="309" y="-463.5" font-family="Helvetica,sans-Serif" font-size="10.00">J3DU</text>
</a>
</g>
</g>
<!-- dir_f96cf58bc010b3610669f6849d6dc02e&#45;&gt;dir_b778c3f297ab88300258a2935792c8cc -->
<g id="edge31" class="edge">
<title>dir_f96cf58bc010b3610669f6849d6dc02e&#45;&gt;dir_b778c3f297ab88300258a2935792c8cc</title>
<path fill="none" stroke="black" d="M336.12,-450.93C339.07,-449.78 342.06,-448.77 345,-448 397.47,-434.18 795.07,-451.76 832,-412 859.22,-382.69 846.78,-269.17 832,-232 823.87,-211.55 811,-213.76 798,-196 787.19,-181.23 790.22,-173.62 778,-160 766.82,-147.54 752.19,-136.39 738.83,-127.56"/>
<polygon fill="black" stroke="black" points="740.59,-124.53 730.28,-122.11 736.83,-130.44 740.59,-124.53"/>
<g id="a_edge31&#45;headlabel"><a xlink:href="dir_000050_000025.html" target="_top" xlink:title="3">
<text text-anchor="middle" x="745.15" y="-121.57" font-family="Helvetica,sans-Serif" font-size="10.00">3</text>
</a>
</g>
</g>
<!-- dir_939d1828e03278096bc671d6c97dec06 -->
<g id="node11" class="node">
<title>dir_939d1828e03278096bc671d6c97dec06</title>
<g id="a_node11"><a xlink:href="dir_939d1828e03278096bc671d6c97dec06.html" target="_top" xlink:title="JAudio2">
<polygon fill="white" stroke="black" points="445,-340 391,-340 391,-304 445,-304 445,-340"/>
<text text-anchor="middle" x="418" y="-319.5" font-family="Helvetica,sans-Serif" font-size="10.00">JAudio2</text>
</a>
</g>
</g>
<!-- dir_939d1828e03278096bc671d6c97dec06&#45;&gt;dir_b778c3f297ab88300258a2935792c8cc -->
<g id="edge30" class="edge">
<title>dir_939d1828e03278096bc671d6c97dec06&#45;&gt;dir_b778c3f297ab88300258a2935792c8cc</title>
<path fill="none" stroke="black" d="M445.23,-307.76C448.49,-306.4 451.79,-305.11 455,-304 520.22,-281.49 551.95,-310.88 606,-268 648.04,-234.65 630.92,-205.1 660,-160 666.13,-150.49 673.67,-140.7 680.71,-132.17"/>
<polygon fill="black" stroke="black" points="683.48,-134.31 687.25,-124.41 678.13,-129.8 683.48,-134.31"/>
<g id="a_edge30&#45;headlabel"><a xlink:href="dir_000051_000025.html" target="_top" xlink:title="69">
<text text-anchor="middle" x="683.33" y="-136.39" font-family="Helvetica,sans-Serif" font-size="10.00">69</text>
</a>
</g>
</g>
<!-- dir_939d1828e03278096bc671d6c97dec06&#45;&gt;dir_45593f23b58a9cb34ecfe1ccd7e4e81f -->
<g id="edge29" class="edge">
<title>dir_939d1828e03278096bc671d6c97dec06&#45;&gt;dir_45593f23b58a9cb34ecfe1ccd7e4e81f</title>
<path fill="none" stroke="black" d="M414.17,-303.86C408.17,-274.2 398.3,-211.53 409,-160 410.88,-150.96 414.37,-141.58 418.09,-133.26"/>
<polygon fill="black" stroke="black" points="421.32,-134.61 422.46,-124.07 415,-131.6 421.32,-134.61"/>
<g id="a_edge29&#45;headlabel"><a xlink:href="dir_000051_000064.html" target="_top" xlink:title="3">
<text text-anchor="middle" x="422.34" y="-136.57" font-family="Helvetica,sans-Serif" font-size="10.00">3</text>
</a>
</g>
</g>
<!-- dir_939d1828e03278096bc671d6c97dec06&#45;&gt;dir_25682d7fe27d5da48e7af3ae8c2abb7f -->
<g id="edge28" class="edge">
<title>dir_939d1828e03278096bc671d6c97dec06&#45;&gt;dir_25682d7fe27d5da48e7af3ae8c2abb7f</title>
<path fill="none" stroke="black" d="M433.33,-303.7C440.76,-295.3 449.82,-285.07 457.98,-275.86"/>
<polygon fill="black" stroke="black" points="460.84,-277.91 464.85,-268.1 455.6,-273.27 460.84,-277.91"/>
<g id="a_edge28&#45;headlabel"><a xlink:href="dir_000051_000065.html" target="_top" xlink:title="1">
<text text-anchor="middle" x="460.58" y="-279.98" font-family="Helvetica,sans-Serif" font-size="10.00">1</text>
</a>
</g>
</g>
<!-- dir_46476ff8a47134c2cbdbc6a41dfe8c11 -->
<g id="node12" class="node">
<title>dir_46476ff8a47134c2cbdbc6a41dfe8c11</title>
<g id="a_node12"><a xlink:href="dir_46476ff8a47134c2cbdbc6a41dfe8c11.html" target="_top" xlink:title="JFramework">
<polygon fill="white" stroke="black" points="635.5,-340 564.5,-340 564.5,-304 635.5,-304 635.5,-340"/>
<text text-anchor="middle" x="600" y="-319.5" font-family="Helvetica,sans-Serif" font-size="10.00">JFramework</text>
</a>
</g>
</g>
<!-- dir_46476ff8a47134c2cbdbc6a41dfe8c11&#45;&gt;dir_b778c3f297ab88300258a2935792c8cc -->
<g id="edge20" class="edge">
<title>dir_46476ff8a47134c2cbdbc6a41dfe8c11&#45;&gt;dir_b778c3f297ab88300258a2935792c8cc</title>
<path fill="none" stroke="black" d="M635.74,-305.75C637.18,-305.15 638.6,-304.57 640,-304 680.65,-287.41 707.25,-304.27 732,-268 741.02,-254.78 736.64,-247.31 732,-232 726.43,-213.6 714.09,-214.24 708,-196 701.36,-176.09 700.35,-152.3 700.87,-134.32"/>
<polygon fill="black" stroke="black" points="704.37,-134.38 701.34,-124.23 697.38,-134.06 704.37,-134.38"/>
<g id="a_edge20&#45;headlabel"><a xlink:href="dir_000052_000025.html" target="_top" xlink:title="2">
<text text-anchor="middle" x="707.04" y="-135.6" font-family="Helvetica,sans-Serif" font-size="10.00">2</text>
</a>
</g>
</g>
<!-- dir_46476ff8a47134c2cbdbc6a41dfe8c11&#45;&gt;dir_25682d7fe27d5da48e7af3ae8c2abb7f -->
<g id="edge19" class="edge">
<title>dir_46476ff8a47134c2cbdbc6a41dfe8c11&#45;&gt;dir_25682d7fe27d5da48e7af3ae8c2abb7f</title>
<path fill="none" stroke="black" d="M570.64,-303.88C554.1,-294.23 533.31,-282.1 515.81,-271.89"/>
<polygon fill="black" stroke="black" points="517.4,-268.77 507,-266.75 513.87,-274.81 517.4,-268.77"/>
<g id="a_edge19&#45;headlabel"><a xlink:href="dir_000052_000065.html" target="_top" xlink:title="1">
<text text-anchor="middle" x="521.94" y="-265.62" font-family="Helvetica,sans-Serif" font-size="10.00">1</text>
</a>
</g>
</g>
<!-- dir_2adf73cd42e23ea1cf49f138568984bb -->
<g id="node13" class="node">
<title>dir_2adf73cd42e23ea1cf49f138568984bb</title>
<g id="a_node13"><a xlink:href="dir_2adf73cd42e23ea1cf49f138568984bb.html" target="_top" xlink:title="JGadget">
<polygon fill="white" stroke="black" points="554,-196 500,-196 500,-160 554,-160 554,-196"/>
<text text-anchor="middle" x="527" y="-175.5" font-family="Helvetica,sans-Serif" font-size="10.00">JGadget</text>
</a>
</g>
</g>
<!-- dir_2adf73cd42e23ea1cf49f138568984bb&#45;&gt;dir_b778c3f297ab88300258a2935792c8cc -->
<g id="edge1" class="edge">
<title>dir_2adf73cd42e23ea1cf49f138568984bb&#45;&gt;dir_b778c3f297ab88300258a2935792c8cc</title>
<path fill="none" stroke="black" d="M554.27,-161.75C555.52,-161.15 556.77,-160.56 558,-160 593.96,-143.68 636.56,-128.59 666.24,-118.72"/>
<polygon fill="black" stroke="black" points="667.38,-122.03 675.79,-115.58 665.2,-115.38 667.38,-122.03"/>
<g id="a_edge1&#45;headlabel"><a xlink:href="dir_000053_000025.html" target="_top" xlink:title="3">
<text text-anchor="middle" x="664.86" y="-123.35" font-family="Helvetica,sans-Serif" font-size="10.00">3</text>
</a>
</g>
</g>
<!-- dir_cd1009b6de6f257cf504091b6f95eba2&#45;&gt;dir_b778c3f297ab88300258a2935792c8cc -->
<g id="edge15" class="edge">
<title>dir_cd1009b6de6f257cf504091b6f95eba2&#45;&gt;dir_b778c3f297ab88300258a2935792c8cc</title>
<path fill="none" stroke="black" d="M482.26,-163.38C485.18,-162.15 488.13,-160.99 491,-160 558.65,-136.58 578.87,-142.58 648,-124 653.87,-122.42 660.06,-120.63 666.09,-118.82"/>
<polygon fill="black" stroke="black" points="667.45,-122.07 675.98,-115.79 665.39,-115.37 667.45,-122.07"/>
<g id="a_edge15&#45;headlabel"><a xlink:href="dir_000054_000025.html" target="_top" xlink:title="33">
<text text-anchor="middle" x="664.84" y="-123.33" font-family="Helvetica,sans-Serif" font-size="10.00">33</text>
</a>
</g>
</g>
<!-- dir_cd1009b6de6f257cf504091b6f95eba2&#45;&gt;dir_45593f23b58a9cb34ecfe1ccd7e4e81f -->
<g id="edge14" class="edge">
<title>dir_cd1009b6de6f257cf504091b6f95eba2&#45;&gt;dir_45593f23b58a9cb34ecfe1ccd7e4e81f</title>
<path fill="none" stroke="black" d="M443.4,-159.7C440.03,-151.9 436.72,-142.51 434.23,-133.83"/>
<polygon fill="black" stroke="black" points="437.61,-132.91 431.72,-124.1 430.83,-134.66 437.61,-132.91"/>
<g id="a_edge14&#45;headlabel"><a xlink:href="dir_000054_000064.html" target="_top" xlink:title="8">
<text text-anchor="middle" x="441.26" y="-133.19" font-family="Helvetica,sans-Serif" font-size="10.00">8</text>
</a>
</g>
</g>
<!-- dir_745c4d827b885b106b58a37f86b4723a&#45;&gt;dir_b778c3f297ab88300258a2935792c8cc -->
<g id="edge13" class="edge">
<title>dir_745c4d827b885b106b58a37f86b4723a&#45;&gt;dir_b778c3f297ab88300258a2935792c8cc</title>
<path fill="none" stroke="black" d="M156.11,-450.88C159.06,-449.75 162.05,-448.75 165,-448 230.46,-431.27 722.38,-457.86 772,-412 831.11,-357.37 821.74,-306.8 792,-232 783.87,-211.55 771,-213.76 758,-196 747.19,-181.23 747.49,-175.65 738,-160 732.57,-151.04 726.35,-141.44 720.67,-132.89"/>
<polygon fill="black" stroke="black" points="723.48,-130.81 715.01,-124.45 717.67,-134.71 723.48,-130.81"/>
<g id="a_edge13&#45;headlabel"><a xlink:href="dir_000055_000025.html" target="_top" xlink:title="4">
<text text-anchor="middle" x="727.84" y="-129.71" font-family="Helvetica,sans-Serif" font-size="10.00">4</text>
</a>
</g>
</g>
<!-- dir_49a47a08903d444eb2abc0c220e49786 -->
<g id="node16" class="node">
<title>dir_49a47a08903d444eb2abc0c220e49786</title>
<g id="a_node16"><a xlink:href="dir_49a47a08903d444eb2abc0c220e49786.html" target="_top" xlink:title="JMessage">
<polygon fill="white" stroke="black" points="416,-484 354,-484 354,-448 416,-448 416,-484"/>
<text text-anchor="middle" x="385" y="-463.5" font-family="Helvetica,sans-Serif" font-size="10.00">JMessage</text>
</a>
</g>
</g>
<!-- dir_49a47a08903d444eb2abc0c220e49786&#45;&gt;dir_b778c3f297ab88300258a2935792c8cc -->
<g id="edge32" class="edge">
<title>dir_49a47a08903d444eb2abc0c220e49786&#45;&gt;dir_b778c3f297ab88300258a2935792c8cc</title>
<path fill="none" stroke="black" d="M416.01,-450.98C419.33,-449.83 422.71,-448.8 426,-448 472.16,-436.77 819.86,-446.97 852,-412 879.07,-382.55 866.78,-269.17 852,-232 843.87,-211.55 831,-213.76 818,-196 807.19,-181.23 810.93,-172.95 798,-160 781.45,-143.42 758.63,-130.46 739.51,-121.51"/>
<polygon fill="black" stroke="black" points="740.74,-118.23 730.18,-117.32 737.87,-124.61 740.74,-118.23"/>
<g id="a_edge32&#45;headlabel"><a xlink:href="dir_000056_000025.html" target="_top" xlink:title="5">
<text text-anchor="middle" x="745.18" y="-114.61" font-family="Helvetica,sans-Serif" font-size="10.00">5</text>
</a>
</g>
</g>
<!-- dir_f1b491a5f48e85031c6ef4e5894314c1 -->
<g id="node17" class="node">
<title>dir_f1b491a5f48e85031c6ef4e5894314c1</title>
<g id="a_node17"><a xlink:href="dir_f1b491a5f48e85031c6ef4e5894314c1.html" target="_top" xlink:title="JParticle">
<polygon fill="white" stroke="black" points="489.5,-484 434.5,-484 434.5,-448 489.5,-448 489.5,-484"/>
<text text-anchor="middle" x="462" y="-463.5" font-family="Helvetica,sans-Serif" font-size="10.00">JParticle</text>
</a>
</g>
</g>
<!-- dir_f1b491a5f48e85031c6ef4e5894314c1&#45;&gt;dir_b778c3f297ab88300258a2935792c8cc -->
<g id="edge37" class="edge">
<title>dir_f1b491a5f48e85031c6ef4e5894314c1&#45;&gt;dir_b778c3f297ab88300258a2935792c8cc</title>
<path fill="none" stroke="black" d="M489.51,-451.16C492.65,-449.94 495.86,-448.85 499,-448 579.4,-426.31 816.02,-473.65 872,-412 898.89,-382.39 886.78,-269.17 872,-232 863.87,-211.55 851,-213.76 838,-196 827.19,-181.23 831.42,-172.45 818,-160 795.9,-139.5 764.49,-125.76 740.07,-117.41"/>
<polygon fill="black" stroke="black" points="741.02,-114.04 730.42,-114.27 738.85,-120.7 741.02,-114.04"/>
<g id="a_edge37&#45;headlabel"><a xlink:href="dir_000061_000025.html" target="_top" xlink:title="16">
<text text-anchor="middle" x="745.31" y="-109.95" font-family="Helvetica,sans-Serif" font-size="10.00">16</text>
</a>
</g>
</g>
<!-- dir_544b542202d39fd3aaf8ba56c4f2c043 -->
<g id="node18" class="node">
<title>dir_544b542202d39fd3aaf8ba56c4f2c043</title>
<g id="a_node18"><a xlink:href="dir_544b542202d39fd3aaf8ba56c4f2c043.html" target="_top" xlink:title="JStage">
<polygon fill="white" stroke="black" points="562,-484 508,-484 508,-448 562,-448 562,-484"/>
<text text-anchor="middle" x="535" y="-463.5" font-family="Helvetica,sans-Serif" font-size="10.00">JStage</text>
</a>
</g>
</g>
<!-- dir_544b542202d39fd3aaf8ba56c4f2c043&#45;&gt;dir_b778c3f297ab88300258a2935792c8cc -->
<g id="edge36" class="edge">
<title>dir_544b542202d39fd3aaf8ba56c4f2c043&#45;&gt;dir_b778c3f297ab88300258a2935792c8cc</title>
<path fill="none" stroke="black" d="M562.11,-451.37C565.39,-450.08 568.73,-448.91 572,-448 640.94,-428.82 844.31,-465.35 892,-412 945.31,-352.35 917.96,-307.67 892,-232 885.42,-212.83 876.16,-212.22 864,-196 852.16,-180.21 853.6,-172.1 838,-160 808.81,-137.36 768.74,-123.26 739.85,-115.35"/>
<polygon fill="black" stroke="black" points="740.69,-111.96 730.13,-112.81 738.92,-118.73 740.69,-111.96"/>
<g id="a_edge36&#45;headlabel"><a xlink:href="dir_000062_000025.html" target="_top" xlink:title="7">
<text text-anchor="middle" x="744.89" y="-107.62" font-family="Helvetica,sans-Serif" font-size="10.00">7</text>
</a>
</g>
</g>
<!-- dir_ddc9133ecf11e60602f1406a8bd2a6d3 -->
<g id="node19" class="node">
<title>dir_ddc9133ecf11e60602f1406a8bd2a6d3</title>
<g id="a_node19"><a xlink:href="dir_ddc9133ecf11e60602f1406a8bd2a6d3.html" target="_top" xlink:title="JStudio">
<polygon fill="white" stroke="red" points="597,-268 543,-268 543,-232 597,-232 597,-268"/>
<text text-anchor="middle" x="570" y="-247.5" font-family="Helvetica,sans-Serif" font-size="10.00">JStudio</text>
</a>
</g>
</g>
<!-- dir_ddc9133ecf11e60602f1406a8bd2a6d3&#45;&gt;dir_b778c3f297ab88300258a2935792c8cc -->
<g id="edge35" class="edge">
<title>dir_ddc9133ecf11e60602f1406a8bd2a6d3&#45;&gt;dir_b778c3f297ab88300258a2935792c8cc</title>
<path fill="none" stroke="black" d="M578.59,-231.91C588.68,-212.93 606.76,-182.05 628,-160 639.52,-148.04 654.09,-137.03 667.31,-128.19"/>
<polygon fill="black" stroke="black" points="669.28,-131.08 675.76,-122.7 665.47,-125.21 669.28,-131.08"/>
<g id="a_edge35&#45;headlabel"><a xlink:href="dir_000057_000025.html" target="_top" xlink:title="20">
<text text-anchor="middle" x="667.81" y="-132.92" font-family="Helvetica,sans-Serif" font-size="10.00">20</text>
</a>
</g>
</g>
<!-- dir_ddc9133ecf11e60602f1406a8bd2a6d3&#45;&gt;dir_2adf73cd42e23ea1cf49f138568984bb -->
<g id="edge34" class="edge">
<title>dir_ddc9133ecf11e60602f1406a8bd2a6d3&#45;&gt;dir_2adf73cd42e23ea1cf49f138568984bb</title>
<path fill="none" stroke="black" d="M559.37,-231.7C554.37,-223.56 548.31,-213.69 542.79,-204.7"/>
<polygon fill="black" stroke="black" points="545.72,-202.79 537.51,-196.1 539.76,-206.46 545.72,-202.79"/>
<g id="a_edge34&#45;headlabel"><a xlink:href="dir_000057_000053.html" target="_top" xlink:title="6">
<text text-anchor="middle" x="550.02" y="-201.87" font-family="Helvetica,sans-Serif" font-size="10.00">6</text>
</a>
</g>
</g>
<!-- dir_45593f23b58a9cb34ecfe1ccd7e4e81f&#45;&gt;dir_b778c3f297ab88300258a2935792c8cc -->
<g id="edge5" class="edge">
<title>dir_45593f23b58a9cb34ecfe1ccd7e4e81f&#45;&gt;dir_b778c3f297ab88300258a2935792c8cc</title>
<path fill="none" stroke="black" d="M460.05,-106C528.65,-106 597.24,-106 665.83,-106"/>
<polygon fill="black" stroke="black" points="665.95,-109.5 675.95,-106 665.95,-102.5 665.95,-109.5"/>
<g id="a_edge5&#45;headlabel"><a xlink:href="dir_000064_000025.html" target="_top" xlink:title="6">
<text text-anchor="middle" x="662.36" y="-109.84" font-family="Helvetica,sans-Serif" font-size="10.00">6</text>
</a>
</g>
</g>
<!-- dir_45593f23b58a9cb34ecfe1ccd7e4e81f&#45;&gt;dir_cd1009b6de6f257cf504091b6f95eba2 -->
<g id="edge6" class="edge">
<title>dir_45593f23b58a9cb34ecfe1ccd7e4e81f&#45;&gt;dir_cd1009b6de6f257cf504091b6f95eba2</title>
<path fill="none" stroke="black" d="M443.52,-124.1C446.88,-131.88 450.2,-141.26 452.7,-149.95"/>
<polygon fill="black" stroke="black" points="449.33,-150.89 455.23,-159.7 456.11,-149.14 449.33,-150.89"/>
<g id="a_edge6&#45;headlabel"><a xlink:href="dir_000064_000054.html" target="_top" xlink:title="1">
<text text-anchor="middle" x="445.68" y="-145.63" font-family="Helvetica,sans-Serif" font-size="10.00">1</text>
</a>
</g>
</g>
<!-- dir_25682d7fe27d5da48e7af3ae8c2abb7f&#45;&gt;dir_b778c3f297ab88300258a2935792c8cc -->
<g id="edge41" class="edge">
<title>dir_25682d7fe27d5da48e7af3ae8c2abb7f&#45;&gt;dir_b778c3f297ab88300258a2935792c8cc</title>
<path fill="none" stroke="black" d="M507.17,-239.23C528.47,-230.5 557.78,-215.99 578,-196 591.02,-183.13 584.8,-172.68 598,-160 617.28,-141.47 644.31,-128.03 666.11,-119.32"/>
<polygon fill="black" stroke="black" points="667.63,-122.49 675.72,-115.65 665.13,-115.95 667.63,-122.49"/>
<g id="a_edge41&#45;headlabel"><a xlink:href="dir_000065_000025.html" target="_top" xlink:title="31">
<text text-anchor="middle" x="665.28" y="-123.93" font-family="Helvetica,sans-Serif" font-size="10.00">31</text>
</a>
</g>
</g>
<!-- dir_25682d7fe27d5da48e7af3ae8c2abb7f&#45;&gt;dir_6141ad2e1396b1970c524b101e645d67 -->
<g id="edge40" class="edge">
<title>dir_25682d7fe27d5da48e7af3ae8c2abb7f&#45;&gt;dir_6141ad2e1396b1970c524b101e645d67</title>
<path fill="none" stroke="black" d="M507.36,-236.92C525.22,-227.85 547.93,-213.94 563,-196 574.15,-182.73 568.36,-174.4 578,-160 604.73,-120.08 645.52,-82.24 673.17,-58.86"/>
<polygon fill="black" stroke="black" points="675.51,-61.47 680.94,-52.38 671.02,-56.09 675.51,-61.47"/>
<g id="a_edge40&#45;headlabel"><a xlink:href="dir_000065_001622.html" target="_top" xlink:title="3">
<text text-anchor="middle" x="674.57" y="-63.45" font-family="Helvetica,sans-Serif" font-size="10.00">3</text>
</a>
</g>
</g>
<!-- dir_25682d7fe27d5da48e7af3ae8c2abb7f&#45;&gt;dir_2adf73cd42e23ea1cf49f138568984bb -->
<g id="edge38" class="edge">
<title>dir_25682d7fe27d5da48e7af3ae8c2abb7f&#45;&gt;dir_2adf73cd42e23ea1cf49f138568984bb</title>
<path fill="none" stroke="black" d="M491.62,-231.7C497.14,-223.47 503.85,-213.48 509.93,-204.42"/>
<polygon fill="black" stroke="black" points="512.85,-206.36 515.52,-196.1 507.04,-202.46 512.85,-206.36"/>
<g id="a_edge38&#45;headlabel"><a xlink:href="dir_000065_000053.html" target="_top" xlink:title="1">
<text text-anchor="middle" x="513.2" y="-208.42" font-family="Helvetica,sans-Serif" font-size="10.00">1</text>
</a>
</g>
</g>
<!-- dir_25682d7fe27d5da48e7af3ae8c2abb7f&#45;&gt;dir_cd1009b6de6f257cf504091b6f95eba2 -->
<g id="edge42" class="edge">
<title>dir_25682d7fe27d5da48e7af3ae8c2abb7f&#45;&gt;dir_cd1009b6de6f257cf504091b6f95eba2</title>
<path fill="none" stroke="black" d="M473.82,-231.7C471,-223.81 467.61,-214.3 464.48,-205.55"/>
<polygon fill="black" stroke="black" points="467.77,-204.34 461.11,-196.1 461.18,-206.7 467.77,-204.34"/>
<g id="a_edge42&#45;headlabel"><a xlink:href="dir_000065_000054.html" target="_top" xlink:title="6">
<text text-anchor="middle" x="471.65" y="-204.27" font-family="Helvetica,sans-Serif" font-size="10.00">6</text>
</a>
</g>
</g>
<!-- dir_25682d7fe27d5da48e7af3ae8c2abb7f&#45;&gt;dir_45593f23b58a9cb34ecfe1ccd7e4e81f -->
<g id="edge39" class="edge">
<title>dir_25682d7fe27d5da48e7af3ae8c2abb7f&#45;&gt;dir_45593f23b58a9cb34ecfe1ccd7e4e81f</title>
<path fill="none" stroke="black" d="M452.88,-233.21C440.05,-224.13 426.04,-211.45 419,-196 410.04,-176.34 414.56,-151.93 420.61,-133.65"/>
<polygon fill="black" stroke="black" points="423.92,-134.79 424.05,-124.19 417.34,-132.39 423.92,-134.79"/>
<g id="a_edge39&#45;headlabel"><a xlink:href="dir_000065_000064.html" target="_top" xlink:title="2">
<text text-anchor="middle" x="425.36" y="-136.64" font-family="Helvetica,sans-Serif" font-size="10.00">2</text>
</a>
</g>
</g>
</g>
</svg>
