<?xml version="1.0" encoding="UTF-8" standalone="no"?>
<!DOCTYPE svg PUBLIC "-//W3C//DTD SVG 1.1//EN"
 "http://www.w3.org/Graphics/SVG/1.1/DTD/svg11.dtd">
<!-- Generated by graphviz version 3.0.0 (20220413.0242)
 -->
<!-- Title: include/JSystem/JMessage Pages: 1 -->
<svg width="368pt" height="167pt"
 viewBox="0.00 0.00 368.00 167.00" xmlns="http://www.w3.org/2000/svg" xmlns:xlink="http://www.w3.org/1999/xlink">
<g id="graph0" class="graph" transform="scale(1 1) rotate(0) translate(4 163)">
<title>include/JSystem/JMessage</title>
<polygon fill="white" stroke="transparent" points="-4,4 -4,-163 364,-163 364,4 -4,4"/>
<g id="clust1" class="cluster">
<title>clusterdir_4f0979a7f5e3194619cde56505e372d8</title>
<g id="a_clust1"><a xlink:href="dir_4f0979a7f5e3194619cde56505e372d8.html" target="_top" xlink:title="JSystem">
<polygon fill="#edf0f7" stroke="#7f7f7f" stroke-dasharray="5,2" points="8,-8 8,-151 222,-151 222,-8 8,-8"/>
<text text-anchor="middle" x="115" y="-139" font-family="Helvetica,sans-Serif" font-size="10.00">JSystem</text>
</a>
</g>
</g>
<!-- dir_25682d7fe27d5da48e7af3ae8c2abb7f -->
<g id="node1" class="node">
<title>dir_25682d7fe27d5da48e7af3ae8c2abb7f</title>
<g id="a_node1"><a xlink:href="dir_25682d7fe27d5da48e7af3ae8c2abb7f.html" target="_top" xlink:title="JUtility">
<polygon fill="#a2b4d6" stroke="#404040" points="70,-52 16,-52 16,-16 70,-16 70,-52"/>
<text text-anchor="middle" x="43" y="-31.5" font-family="Helvetica,sans-Serif" font-size="10.00">JUtility</text>
</a>
</g>
</g>
<!-- dir_2adf73cd42e23ea1cf49f138568984bb -->
<g id="node2" class="node">
<title>dir_2adf73cd42e23ea1cf49f138568984bb</title>
<g id="a_node2"><a xlink:href="dir_2adf73cd42e23ea1cf49f138568984bb.html" target="_top" xlink:title="JGadget">
<polygon fill="#a2b4d6" stroke="#404040" points="142,-52 88,-52 88,-16 142,-16 142,-52"/>
<text text-anchor="middle" x="115" y="-31.5" font-family="Helvetica,sans-Serif" font-size="10.00">JGadget</text>
</a>
</g>
</g>
<!-- dir_ddc9133ecf11e60602f1406a8bd2a6d3 -->
<g id="node3" class="node">
<title>dir_ddc9133ecf11e60602f1406a8bd2a6d3</title>
<g id="a_node3"><a xlink:href="dir_ddc9133ecf11e60602f1406a8bd2a6d3.html" target="_top" xlink:title="JStudio">
<polygon fill="#a2b4d6" stroke="red" points="214,-52 160,-52 160,-16 214,-16 214,-52"/>
<text text-anchor="middle" x="187" y="-31.5" font-family="Helvetica,sans-Serif" font-size="10.00">JStudio</text>
</a>
</g>
</g>
<!-- dir_49a47a08903d444eb2abc0c220e49786 -->
<g id="node4" class="node">
<title>dir_49a47a08903d444eb2abc0c220e49786</title>
<g id="a_node4"><a xlink:href="dir_49a47a08903d444eb2abc0c220e49786.html" target="_top" xlink:title="JMessage">
<polygon fill="#edf0f7" stroke="#404040" stroke-width="2" points="214,-124 152,-124 152,-88 214,-88 214,-124"/>
<text text-anchor="middle" x="183" y="-103.5" font-family="Helvetica,sans-Serif" font-size="10.00">JMessage</text>
</a>
</g>
</g>
<!-- dir_49a47a08903d444eb2abc0c220e49786&#45;&gt;dir_25682d7fe27d5da48e7af3ae8c2abb7f -->
<g id="edge1" class="edge">
<title>dir_49a47a08903d444eb2abc0c220e49786&#45;&gt;dir_25682d7fe27d5da48e7af3ae8c2abb7f</title>
<path fill="none" stroke="black" d="M151.93,-89.46C130.5,-78.75 101.94,-64.47 79.43,-53.22"/>
<polygon fill="black" stroke="black" points="80.71,-49.94 70.2,-48.6 77.58,-56.2 80.71,-49.94"/>
<g id="a_edge1&#45;headlabel"><a xlink:href="dir_000853_000873.html" target="_top" xlink:title="1">
<text text-anchor="middle" x="85.2" y="-46.51" font-family="Helvetica,sans-Serif" font-size="10.00">1</text>
</a>
</g>
</g>
<!-- dir_49a47a08903d444eb2abc0c220e49786&#45;&gt;dir_2adf73cd42e23ea1cf49f138568984bb -->
<g id="edge2" class="edge">
<title>dir_49a47a08903d444eb2abc0c220e49786&#45;&gt;dir_2adf73cd42e23ea1cf49f138568984bb</title>
<path fill="none" stroke="black" d="M166.19,-87.7C157.87,-79.14 147.69,-68.66 138.61,-59.3"/>
<polygon fill="black" stroke="black" points="141.09,-56.84 131.62,-52.1 136.07,-61.72 141.09,-56.84"/>
<g id="a_edge2&#45;headlabel"><a xlink:href="dir_000853_000847.html" target="_top" xlink:title="1">
<text text-anchor="middle" x="145.64" y="-54.94" font-family="Helvetica,sans-Serif" font-size="10.00">1</text>
</a>
</g>
</g>
<!-- dir_49a47a08903d444eb2abc0c220e49786&#45;&gt;dir_ddc9133ecf11e60602f1406a8bd2a6d3 -->
<g id="edge5" class="edge">
<title>dir_49a47a08903d444eb2abc0c220e49786&#45;&gt;dir_ddc9133ecf11e60602f1406a8bd2a6d3</title>
<path fill="none" stroke="black" d="M183.99,-87.7C184.43,-79.98 184.96,-70.71 185.45,-62.11"/>
<polygon fill="black" stroke="black" points="188.95,-62.29 186.02,-52.1 181.96,-61.89 188.95,-62.29"/>
<g id="a_edge5&#45;headlabel"><a xlink:href="dir_000853_000859.html" target="_top" xlink:title="1">
<text text-anchor="middle" x="191.58" y="-63.54" font-family="Helvetica,sans-Serif" font-size="10.00">1</text>
</a>
</g>
</g>
<!-- dir_54283da8a0cf1311a88c964d76512876 -->
<g id="node5" class="node">
<title>dir_54283da8a0cf1311a88c964d76512876</title>
<g id="a_node5"><a xlink:href="dir_54283da8a0cf1311a88c964d76512876.html" target="_top" xlink:title="SSystem">
<polygon fill="none" stroke="red" stroke-dasharray="5,2" points="288,-52 232,-52 232,-16 288,-16 288,-52"/>
<text text-anchor="middle" x="260" y="-31.5" font-family="Helvetica,sans-Serif" font-size="10.00">SSystem</text>
</a>
</g>
</g>
<!-- dir_49a47a08903d444eb2abc0c220e49786&#45;&gt;dir_54283da8a0cf1311a88c964d76512876 -->
<g id="edge3" class="edge">
<title>dir_49a47a08903d444eb2abc0c220e49786&#45;&gt;dir_54283da8a0cf1311a88c964d76512876</title>
<path fill="none" stroke="black" d="M202.03,-87.7C211.54,-79.05 223.21,-68.45 233.57,-59.03"/>
<polygon fill="black" stroke="black" points="236.14,-61.42 241.19,-52.1 231.43,-56.24 236.14,-61.42"/>
<g id="a_edge3&#45;headlabel"><a xlink:href="dir_000853_001726.html" target="_top" xlink:title="1">
<text text-anchor="middle" x="235.39" y="-63.44" font-family="Helvetica,sans-Serif" font-size="10.00">1</text>
</a>
</g>
</g>
<!-- dir_b778c3f297ab88300258a2935792c8cc -->
<g id="node6" class="node">
<title>dir_b778c3f297ab88300258a2935792c8cc</title>
<g id="a_node6"><a xlink:href="dir_b778c3f297ab88300258a2935792c8cc.html" target="_top" xlink:title="dolphin">
<polygon fill="none" stroke="red" stroke-dasharray="5,2" points="360,-52 306,-52 306,-16 360,-16 360,-52"/>
<text text-anchor="middle" x="333" y="-31.5" font-family="Helvetica,sans-Serif" font-size="10.00">dolphin</text>
</a>
</g>
</g>
<!-- dir_49a47a08903d444eb2abc0c220e49786&#45;&gt;dir_b778c3f297ab88300258a2935792c8cc -->
<g id="edge4" class="edge">
<title>dir_49a47a08903d444eb2abc0c220e49786&#45;&gt;dir_b778c3f297ab88300258a2935792c8cc</title>
<path fill="none" stroke="black" d="M214.48,-90.43C235.41,-80.72 263.74,-67.56 296.52,-52.21"/>
<polygon fill="black" stroke="black" points="298.31,-55.24 305.88,-47.83 295.34,-48.9 298.31,-55.24"/>
<g id="a_edge4&#45;headlabel"><a xlink:href="dir_000853_000786.html" target="_top" xlink:title="5">
<text text-anchor="middle" x="296.26" y="-56.84" font-family="Helvetica,sans-Serif" font-size="10.00">5</text>
</a>
</g>
</g>
</g>
</svg>
