<?xml version="1.0" encoding="UTF-8" standalone="no"?>
<!DOCTYPE svg PUBLIC "-//W3C//DTD SVG 1.1//EN"
 "http://www.w3.org/Graphics/SVG/1.1/DTD/svg11.dtd">
<!-- Generated by graphviz version 3.0.0 (20221109.1736)
 -->
<!-- Title: include/rel/d/a/e/d_a_e_wb Pages: 1 -->
<svg width="372pt" height="159pt"
 viewBox="0.00 0.00 372.00 159.00" xmlns="http://www.w3.org/2000/svg" xmlns:xlink="http://www.w3.org/1999/xlink">
<g id="graph0" class="graph" transform="scale(1 1) rotate(0) translate(4 155)">
<title>include/rel/d/a/e/d_a_e_wb</title>
<polygon fill="white" stroke="transparent" points="-4,4 -4,-155 368,-155 368,4 -4,4"/>
<g id="clust1" class="cluster">
<title>clusterdir_c199594060f2445ce9809b15df0fd8ff</title>
<g id="a_clust1"><a xlink:href="dir_c199594060f2445ce9809b15df0fd8ff.html" target="_top" xlink:title="e">
<polygon fill="#edf0f7" stroke="#7f7f7f" stroke-dasharray="5,2" points="178,-56 178,-143 344,-143 344,-56 178,-56"/>
<text text-anchor="middle" x="261" y="-131" font-family="Helvetica,sans-Serif" font-size="10.00">e</text>
</a>
</g>
</g>
<g id="clust2" class="cluster">
<title>clusterdir_95fd002ef6d02a7b0a85088e8ffbf7f5</title>
<g id="a_clust2"><a xlink:href="dir_95fd002ef6d02a7b0a85088e8ffbf7f5.html" target="_top">
<polygon fill="#edf0f7" stroke="#404040" stroke-width="2" points="186,-64 186,-116 336,-116 336,-64 186,-64"/>
</a>
</g>
</g>
<!-- dir_95fd002ef6d02a7b0a85088e8ffbf7f5 -->
<g id="node1" class="node">
<title>dir_95fd002ef6d02a7b0a85088e8ffbf7f5</title>
<text text-anchor="middle" x="225" y="-87.5" font-family="Helvetica,sans-Serif" font-size="10.00">d_a_e_wb</text>
</g>
<!-- dir_3c8c61ff5418790815ef31974f8a6d8f -->
<g id="node3" class="node">
<title>dir_3c8c61ff5418790815ef31974f8a6d8f</title>
<g id="a_node3"><a xlink:href="dir_3c8c61ff5418790815ef31974f8a6d8f.html" target="_top" xlink:title="d_a_horse">
<polygon fill="none" stroke="red" stroke-dasharray="5,2" points="220,-36 158,-36 158,0 220,0 220,-36"/>
<text text-anchor="middle" x="189" y="-15.5" font-family="Helvetica,sans-Serif" font-size="10.00">d_a_horse</text>
</a>
</g>
</g>
<!-- dir_95fd002ef6d02a7b0a85088e8ffbf7f5&#45;&gt;dir_3c8c61ff5418790815ef31974f8a6d8f -->
<g id="edge1" class="edge">
<title>dir_95fd002ef6d02a7b0a85088e8ffbf7f5&#45;&gt;dir_3c8c61ff5418790815ef31974f8a6d8f</title>
<path fill="none" stroke="black" d="M216.1,-71.7C212,-63.73 207.05,-54.1 202.51,-45.26"/>
<polygon fill="black" stroke="black" points="205.48,-43.4 197.8,-36.1 199.26,-46.6 205.48,-43.4"/>
<g id="a_edge1&#45;headlabel"><a xlink:href="dir_000160_000183.html" target="_top" xlink:title="1">
<text text-anchor="middle" x="209.65" y="-42.79" font-family="Helvetica,sans-Serif" font-size="10.00">1</text>
</a>
</g>
</g>
<!-- dir_54283da8a0cf1311a88c964d76512876 -->
<g id="node4" class="node">
<title>dir_54283da8a0cf1311a88c964d76512876</title>
<g id="a_node4"><a xlink:href="dir_54283da8a0cf1311a88c964d76512876.html" target="_top" xlink:title="SSystem">
<polygon fill="none" stroke="red" stroke-dasharray="5,2" points="56,-36 0,-36 0,0 56,0 56,-36"/>
<text text-anchor="middle" x="28" y="-15.5" font-family="Helvetica,sans-Serif" font-size="10.00">SSystem</text>
</a>
</g>
</g>
<!-- dir_95fd002ef6d02a7b0a85088e8ffbf7f5&#45;&gt;dir_54283da8a0cf1311a88c964d76512876 -->
<g id="edge2" class="edge">
<title>dir_95fd002ef6d02a7b0a85088e8ffbf7f5&#45;&gt;dir_54283da8a0cf1311a88c964d76512876</title>
<path fill="none" stroke="black" d="M194.27,-79.93C163.69,-70.66 115.33,-55.36 65.47,-35.98"/>
<polygon fill="black" stroke="black" points="66.73,-32.72 56.14,-32.32 64.17,-39.24 66.73,-32.72"/>
<g id="a_edge2&#45;headlabel"><a xlink:href="dir_000160_001726.html" target="_top" xlink:title="1">
<text text-anchor="middle" x="71.11" y="-28.89" font-family="Helvetica,sans-Serif" font-size="10.00">1</text>
</a>
</g>
</g>
<!-- dir_81939fb769658ab66ba54ec390580a1a -->
<g id="node5" class="node">
<title>dir_81939fb769658ab66ba54ec390580a1a</title>
<g id="a_node5"><a xlink:href="dir_81939fb769658ab66ba54ec390580a1a.html" target="_top" xlink:title="Z2AudioLib">
<polygon fill="none" stroke="#7f7f7f" points="140,-36 74,-36 74,0 140,0 140,-36"/>
<text text-anchor="middle" x="107" y="-15.5" font-family="Helvetica,sans-Serif" font-size="10.00">Z2AudioLib</text>
</a>
</g>
</g>
<!-- dir_95fd002ef6d02a7b0a85088e8ffbf7f5&#45;&gt;dir_81939fb769658ab66ba54ec390580a1a -->
<g id="edge3" class="edge">
<title>dir_95fd002ef6d02a7b0a85088e8ffbf7f5&#45;&gt;dir_81939fb769658ab66ba54ec390580a1a</title>
<path fill="none" stroke="black" d="M196.13,-71.88C180.71,-62.72 161.52,-51.34 144.9,-41.48"/>
<polygon fill="black" stroke="black" points="146.36,-38.28 135.98,-36.19 142.79,-44.3 146.36,-38.28"/>
<g id="a_edge3&#45;headlabel"><a xlink:href="dir_000160_001735.html" target="_top" xlink:title="1">
<text text-anchor="middle" x="150.9" y="-35.17" font-family="Helvetica,sans-Serif" font-size="10.00">1</text>
</a>
</g>
</g>
<!-- dir_b778c3f297ab88300258a2935792c8cc -->
<g id="node6" class="node">
<title>dir_b778c3f297ab88300258a2935792c8cc</title>
<g id="a_node6"><a xlink:href="dir_b778c3f297ab88300258a2935792c8cc.html" target="_top" xlink:title="dolphin">
<polygon fill="none" stroke="red" stroke-dasharray="5,2" points="364,-36 310,-36 310,0 364,0 364,-36"/>
<text text-anchor="middle" x="337" y="-15.5" font-family="Helvetica,sans-Serif" font-size="10.00">dolphin</text>
</a>
</g>
</g>
<!-- dir_95fd002ef6d02a7b0a85088e8ffbf7f5&#45;&gt;dir_b778c3f297ab88300258a2935792c8cc -->
<g id="edge4" class="edge">
<title>dir_95fd002ef6d02a7b0a85088e8ffbf7f5&#45;&gt;dir_b778c3f297ab88300258a2935792c8cc</title>
<path fill="none" stroke="black" d="M244.29,-71.67C250.66,-66.34 257.93,-60.65 265,-56 271.55,-51.69 286.06,-44.11 300.36,-36.93"/>
<polygon fill="black" stroke="black" points="302.24,-39.9 309.63,-32.3 299.12,-33.63 302.24,-39.9"/>
<g id="a_edge4&#45;headlabel"><a xlink:href="dir_000160_000786.html" target="_top" xlink:title="5">
<text text-anchor="middle" x="300.29" y="-41.54" font-family="Helvetica,sans-Serif" font-size="10.00">5</text>
</a>
</g>
</g>
<!-- dir_cc3ad1aed4be3f446fdd7af78322f5bf -->
<g id="node7" class="node">
<title>dir_cc3ad1aed4be3f446fdd7af78322f5bf</title>
<g id="a_node7"><a xlink:href="dir_cc3ad1aed4be3f446fdd7af78322f5bf.html" target="_top" xlink:title="d">
<polygon fill="none" stroke="red" stroke-dasharray="5,2" points="292,-36 238,-36 238,0 292,0 292,-36"/>
<text text-anchor="middle" x="265" y="-15.5" font-family="Helvetica,sans-Serif" font-size="10.00">d</text>
</a>
</g>
</g>
<!-- dir_95fd002ef6d02a7b0a85088e8ffbf7f5&#45;&gt;dir_cc3ad1aed4be3f446fdd7af78322f5bf -->
<g id="edge5" class="edge">
<title>dir_95fd002ef6d02a7b0a85088e8ffbf7f5&#45;&gt;dir_cc3ad1aed4be3f446fdd7af78322f5bf</title>
<path fill="none" stroke="black" d="M234.89,-71.7C239.49,-63.64 245.06,-53.89 250.15,-44.98"/>
<polygon fill="black" stroke="black" points="253.3,-46.52 255.23,-36.1 247.23,-43.05 253.3,-46.52"/>
<g id="a_edge5&#45;headlabel"><a xlink:href="dir_000160_000024.html" target="_top" xlink:title="1">
<text text-anchor="middle" x="253.99" y="-48.55" font-family="Helvetica,sans-Serif" font-size="10.00">1</text>
</a>
</g>
</g>
<!-- dir_d3243e5adaf18141f5fefa7b2f4915ae -->
<g id="node2" class="node">
<title>dir_d3243e5adaf18141f5fefa7b2f4915ae</title>
<g id="a_node2"><a xlink:href="dir_d3243e5adaf18141f5fefa7b2f4915ae.html" target="_top" xlink:title="libs">
<polygon fill="#a2b4d6" stroke="#404040" points="328,-108 274,-108 274,-72 328,-72 328,-108"/>
<text text-anchor="middle" x="301" y="-87.5" font-family="Helvetica,sans-Serif" font-size="10.00">libs</text>
</a>
</g>
</g>
<!-- dir_d3243e5adaf18141f5fefa7b2f4915ae&#45;&gt;dir_b778c3f297ab88300258a2935792c8cc -->
<g id="edge6" class="edge">
<title>dir_d3243e5adaf18141f5fefa7b2f4915ae&#45;&gt;dir_b778c3f297ab88300258a2935792c8cc</title>
<path fill="none" stroke="black" d="M309.9,-71.7C314,-63.73 318.95,-54.1 323.49,-45.26"/>
<polygon fill="black" stroke="black" points="326.74,-46.6 328.2,-36.1 320.52,-43.4 326.74,-46.6"/>
<g id="a_edge6&#45;headlabel"><a xlink:href="dir_000993_000786.html" target="_top" xlink:title="1">
<text text-anchor="middle" x="327.62" y="-48.59" font-family="Helvetica,sans-Serif" font-size="10.00">1</text>
</a>
</g>
</g>
</g>
</svg>
