<?xml version="1.0" encoding="UTF-8" standalone="no"?>
<!DOCTYPE svg PUBLIC "-//W3C//DTD SVG 1.1//EN"
 "http://www.w3.org/Graphics/SVG/1.1/DTD/svg11.dtd">
<!-- Generated by graphviz version 2.50.0 (20220203.2022)
 -->
<!-- Title: include/MSL_C.PPCEABI.bare.H Pages: 1 -->
<svg width="590pt" height="175pt"
 viewBox="0.00 0.00 590.00 175.00" xmlns="http://www.w3.org/2000/svg" xmlns:xlink="http://www.w3.org/1999/xlink">
<g id="graph0" class="graph" transform="scale(1 1) rotate(0) translate(4 171)">
<title>include/MSL_C.PPCEABI.bare.H</title>
<polygon fill="white" stroke="transparent" points="-4,4 -4,-171 586,-171 586,4 -4,4"/>
<g id="clust1" class="cluster">
<title>clusterdir_d44c64559bbebec7f509842c48db8b23</title>
<g id="a_clust1"><a xlink:href="dir_d44c64559bbebec7f509842c48db8b23.html" target="_top" xlink:title="include">
<polygon fill="#edf0f7" stroke="#404040" stroke-dasharray="5,2" points="8,-8 8,-159 574,-159 574,-8 8,-8"/>
<text text-anchor="middle" x="291" y="-147" font-family="Helvetica,sans-Serif" font-size="10.00">include</text>
</a>
</g>
</g>
<g id="clust2" class="cluster">
<title>clusterdir_f04ab26cc3a9b32efb726132a22d6a75</title>
<g id="a_clust2"><a xlink:href="dir_f04ab26cc3a9b32efb726132a22d6a75.html" target="_top">
<polygon fill="#edf0f7" stroke="#404040" stroke-width="2" points="16,-80 16,-132 566,-132 566,-80 16,-80"/>
</a>
</g>
</g>
<!-- dir_b778c3f297ab88300258a2935792c8cc -->
<g id="node1" class="node">
<title>dir_b778c3f297ab88300258a2935792c8cc</title>
<g id="a_node1"><a xlink:href="dir_b778c3f297ab88300258a2935792c8cc.html" target="_top" xlink:title="dolphin">
<polygon fill="#a2b4d6" stroke="red" points="218,-52 164,-52 164,-16 218,-16 218,-52"/>
<text text-anchor="middle" x="191" y="-31.5" font-family="Helvetica,sans-Serif" font-size="10.00">dolphin</text>
</a>
</g>
</g>
<!-- dir_6141ad2e1396b1970c524b101e645d67 -->
<g id="node2" class="node">
<title>dir_6141ad2e1396b1970c524b101e645d67</title>
<g id="a_node2"><a xlink:href="dir_6141ad2e1396b1970c524b101e645d67.html" target="_top" xlink:title="Runtime.PPCEABI.H">
<polygon fill="#a2b4d6" stroke="#404040" points="426.5,-52 319.5,-52 319.5,-16 426.5,-16 426.5,-52"/>
<text text-anchor="middle" x="373" y="-31.5" font-family="Helvetica,sans-Serif" font-size="10.00">Runtime.PPCEABI.H</text>
</a>
</g>
</g>
<!-- dir_f04ab26cc3a9b32efb726132a22d6a75 -->
<g id="node3" class="node">
<title>dir_f04ab26cc3a9b32efb726132a22d6a75</title>
<text text-anchor="middle" x="495" y="-103.5" font-family="Helvetica,sans-Serif" font-size="10.00">MSL_C.PPCEABI.bare.H</text>
</g>
<!-- dir_18e37b3f2b06aa158f2be77248de686d -->
<g id="node4" class="node">
<title>dir_18e37b3f2b06aa158f2be77248de686d</title>
<g id="a_node4"><a xlink:href="dir_18e37b3f2b06aa158f2be77248de686d.html" target="_top" xlink:title="Math">
<polygon fill="#a2b4d6" stroke="#404040" points="162,-124 108,-124 108,-88 162,-88 162,-124"/>
<text text-anchor="middle" x="135" y="-103.5" font-family="Helvetica,sans-Serif" font-size="10.00">Math</text>
</a>
</g>
</g>
<!-- dir_18e37b3f2b06aa158f2be77248de686d&#45;&gt;dir_b778c3f297ab88300258a2935792c8cc -->
<g id="edge1" class="edge">
<title>dir_18e37b3f2b06aa158f2be77248de686d&#45;&gt;dir_b778c3f297ab88300258a2935792c8cc</title>
<path fill="none" stroke="black" d="M148.84,-87.7C155.49,-79.39 163.58,-69.28 170.89,-60.14"/>
<polygon fill="black" stroke="black" points="173.8,-62.1 177.32,-52.1 168.34,-57.73 173.8,-62.1"/>
<g id="a_edge1&#45;headlabel"><a xlink:href="dir_001270_000788.html" target="_top" xlink:title="29">
<text text-anchor="middle" x="173.77" y="-64.18" font-family="Helvetica,sans-Serif" font-size="10.00">29</text>
</a>
</g>
</g>
<!-- dir_c3c563d6c831255c76f8da2f26656390 -->
<g id="node5" class="node">
<title>dir_c3c563d6c831255c76f8da2f26656390</title>
<g id="a_node5"><a xlink:href="dir_c3c563d6c831255c76f8da2f26656390.html" target="_top" xlink:title="MSL_Common">
<polygon fill="#a2b4d6" stroke="#404040" points="414,-124 332,-124 332,-88 414,-88 414,-124"/>
<text text-anchor="middle" x="373" y="-103.5" font-family="Helvetica,sans-Serif" font-size="10.00">MSL_Common</text>
</a>
</g>
</g>
<!-- dir_c3c563d6c831255c76f8da2f26656390&#45;&gt;dir_b778c3f297ab88300258a2935792c8cc -->
<g id="edge2" class="edge">
<title>dir_c3c563d6c831255c76f8da2f26656390&#45;&gt;dir_b778c3f297ab88300258a2935792c8cc</title>
<path fill="none" stroke="black" d="M340.48,-87.95C334.72,-85.16 328.73,-82.4 323,-80 291.51,-66.83 254.67,-54.52 227.92,-46.11"/>
<polygon fill="black" stroke="black" points="228.78,-42.72 218.2,-43.09 226.71,-49.4 228.78,-42.72"/>
<g id="a_edge2&#45;headlabel"><a xlink:href="dir_001286_000788.html" target="_top" xlink:title="23">
<text text-anchor="middle" x="233.06" y="-38.57" font-family="Helvetica,sans-Serif" font-size="10.00">23</text>
</a>
</g>
</g>
<!-- dir_c3c563d6c831255c76f8da2f26656390&#45;&gt;dir_6141ad2e1396b1970c524b101e645d67 -->
<g id="edge3" class="edge">
<title>dir_c3c563d6c831255c76f8da2f26656390&#45;&gt;dir_6141ad2e1396b1970c524b101e645d67</title>
<path fill="none" stroke="black" d="M373,-87.7C373,-79.98 373,-70.71 373,-62.11"/>
<polygon fill="black" stroke="black" points="376.5,-62.1 373,-52.1 369.5,-62.1 376.5,-62.1"/>
<g id="a_edge3&#45;headlabel"><a xlink:href="dir_001286_001708.html" target="_top" xlink:title="1">
<text text-anchor="middle" x="379.34" y="-63.2" font-family="Helvetica,sans-Serif" font-size="10.00">1</text>
</a>
</g>
</g>
<!-- dir_25b3ccc156abc7a24c2aeb6fd26b05a9 -->
<g id="node6" class="node">
<title>dir_25b3ccc156abc7a24c2aeb6fd26b05a9</title>
<g id="a_node6"><a xlink:href="dir_25b3ccc156abc7a24c2aeb6fd26b05a9.html" target="_top" xlink:title="MSL_Common_Embedded">
<polygon fill="#a2b4d6" stroke="#404040" points="313.5,-124 180.5,-124 180.5,-88 313.5,-88 313.5,-124"/>
<text text-anchor="middle" x="247" y="-103.5" font-family="Helvetica,sans-Serif" font-size="10.00">MSL_Common_Embedded</text>
</a>
</g>
</g>
<!-- dir_25b3ccc156abc7a24c2aeb6fd26b05a9&#45;&gt;dir_b778c3f297ab88300258a2935792c8cc -->
<g id="edge4" class="edge">
<title>dir_25b3ccc156abc7a24c2aeb6fd26b05a9&#45;&gt;dir_b778c3f297ab88300258a2935792c8cc</title>
<path fill="none" stroke="black" d="M233.16,-87.7C226.51,-79.39 218.42,-69.28 211.11,-60.14"/>
<polygon fill="black" stroke="black" points="213.66,-57.73 204.68,-52.1 208.2,-62.1 213.66,-57.73"/>
<g id="a_edge4&#45;headlabel"><a xlink:href="dir_001288_000788.html" target="_top" xlink:title="1">
<text text-anchor="middle" x="218.13" y="-56.26" font-family="Helvetica,sans-Serif" font-size="10.00">1</text>
</a>
</g>
</g>
<!-- dir_4e43f58af6c06ed03fde20468a6d9fbc -->
<g id="node7" class="node">
<title>dir_4e43f58af6c06ed03fde20468a6d9fbc</title>
<g id="a_node7"><a xlink:href="dir_4e43f58af6c06ed03fde20468a6d9fbc.html" target="_top" xlink:title="PPC_EABI">
<polygon fill="#a2b4d6" stroke="#404040" points="89.5,-124 24.5,-124 24.5,-88 89.5,-88 89.5,-124"/>
<text text-anchor="middle" x="57" y="-103.5" font-family="Helvetica,sans-Serif" font-size="10.00">PPC_EABI</text>
</a>
</g>
</g>
<!-- dir_4e43f58af6c06ed03fde20468a6d9fbc&#45;&gt;dir_b778c3f297ab88300258a2935792c8cc -->
<g id="edge5" class="edge">
<title>dir_4e43f58af6c06ed03fde20468a6d9fbc&#45;&gt;dir_b778c3f297ab88300258a2935792c8cc</title>
<path fill="none" stroke="black" d="M85.29,-87.74C89.84,-85.08 94.52,-82.42 99,-80 117.08,-70.22 137.59,-60.1 154.65,-51.94"/>
<polygon fill="black" stroke="black" points="156.2,-55.07 163.73,-47.62 153.2,-48.75 156.2,-55.07"/>
<g id="a_edge5&#45;headlabel"><a xlink:href="dir_001320_000788.html" target="_top" xlink:title="3">
<text text-anchor="middle" x="154.17" y="-56.68" font-family="Helvetica,sans-Serif" font-size="10.00">3</text>
</a>
</g>
</g>
</g>
</svg>
