<?xml version="1.0" encoding="UTF-8" standalone="no"?>
<!DOCTYPE svg PUBLIC "-//W3C//DTD SVG 1.1//EN"
 "http://www.w3.org/Graphics/SVG/1.1/DTD/svg11.dtd">
<!-- Generated by graphviz version 3.0.0 (20221109.1736)
 -->
<!-- Title: libs/dolphin/dvd/dvd.c Pages: 1 -->
<!--zoomable 151 -->
<svg id="main" version="1.1" xmlns="http://www.w3.org/2000/svg" xmlns:xlink="http://www.w3.org/1999/xlink" xml:space="preserve" onload="init(evt)">
<style type="text/css"><![CDATA[
.edge:hover path { stroke: red; }
.edge:hover polygon { stroke: red; fill: red; }
]]></style>
<script type="text/javascript"><![CDATA[
var edges = document.getElementsByTagName('g');
if (edges && edges.length) {
  for (var i=0;i<edges.length;i++) {
    if (edges[i].id.substr(0,4)=='edge') {
      edges[i].setAttribute('class','edge');
    }
  }
}
]]></script>
        <defs>
                <circle id="rim" cx="0" cy="0" r="7"/>
                <circle id="rim2" cx="0" cy="0" r="3.5"/>
                <g id="zoomPlus">
                        <use xlink:href="#rim" fill="#404040">
                                <set attributeName="fill" to="#808080" begin="zoomplus.mouseover" end="zoomplus.mouseout"/>
                        </use>
                        <path d="M-4,0h8M0,-4v8" fill="none" stroke="white" stroke-width="1.5" pointer-events="none"/>
                </g>
                <g id="zoomMin">
                        <use xlink:href="#rim" fill="#404040">
                                <set attributeName="fill" to="#808080" begin="zoomminus.mouseover" end="zoomminus.mouseout"/>
                        </use>
                        <path d="M-4,0h8" fill="none" stroke="white" stroke-width="1.5" pointer-events="none"/>
                </g>
                <g id="dirArrow">
                        <path fill="none" stroke="white" stroke-width="1.5" d="M0,-3.0v7 M-2.5,-0.5L0,-3.0L2.5,-0.5"/>
                </g>
               <g id="resetDef">
                       <use xlink:href="#rim2" fill="#404040">
                               <set attributeName="fill" to="#808080" begin="reset.mouseover" end="reset.mouseout"/>
                       </use>
               </g>
        </defs>

<script type="text/javascript">
var viewWidth = 6454;
var viewHeight = 151;
var sectionId = 'dynsection-0';
</script>
<script xlink:href="svgpan.js"/>
<svg id="graph" class="graph">
<g id="viewport">
<title>libs/dolphin/dvd/dvd.c</title>
<polygon fill="white" stroke="transparent" points="-4,4 -4,-147 6449.5,-147 6449.5,4 -4,4"/>
<!-- Node1 -->
<g id="node1" class="node">
<title>Node1</title>
<g id="a_node1"><a xlink:title=" ">
<polygon fill="#bfbfbf" stroke="black" points="3023,-123.5 3023,-142.5 3133,-142.5 3133,-123.5 3023,-123.5"/>
<text text-anchor="middle" x="3078" y="-130.5" font-family="Helvetica,sans-Serif" font-size="10.00">libs/dolphin/dvd/dvd.c</text>
</a>
</g>
</g>
<!-- Node2 -->
<g id="node2" class="node">
<title>Node2</title>
<g id="a_node2"><a xlink:href="dvd_8h.html" target="_top" xlink:title=" ">
<polygon fill="white" stroke="black" points="0,-62 0,-81 92,-81 92,-62 0,-62"/>
<text text-anchor="middle" x="46" y="-69" font-family="Helvetica,sans-Serif" font-size="10.00">dolphin/dvd/dvd.h</text>
</a>
</g>
</g>
<!-- Node1&#45;&gt;Node2 -->
<g id="edge1" class="edge">
<title>Node1&#45;&gt;Node2</title>
<path fill="none" stroke="midnightblue" d="M3022.87,-131.9C2641.8,-131.13 405.56,-124.99 106,-87 99.29,-86.15 92.23,-84.83 85.42,-83.34"/>
<polygon fill="midnightblue" stroke="midnightblue" points="86.2,-79.93 75.67,-81.05 84.6,-86.74 86.2,-79.93"/>
</g>
<!-- Node3 -->
<g id="node3" class="node">
<title>Node3</title>
<g id="a_node3"><a xlink:href="types_8h.html" target="_top" xlink:title=" ">
<polygon fill="white" stroke="black" points="42.5,-0.5 42.5,-19.5 123.5,-19.5 123.5,-0.5 42.5,-0.5"/>
<text text-anchor="middle" x="83" y="-7.5" font-family="Helvetica,sans-Serif" font-size="10.00">dolphin/types.h</text>
</a>
</g>
</g>
<!-- Node1&#45;&gt;Node3 -->
<g id="edge4" class="edge">
<title>Node1&#45;&gt;Node3</title>
<path fill="none" stroke="midnightblue" d="M3022.96,-131.83C2625.42,-130.5 206.74,-121.01 140,-87 116.06,-74.8 99.5,-47.34 90.63,-28.99"/>
<polygon fill="midnightblue" stroke="midnightblue" points="93.71,-27.32 86.39,-19.66 87.34,-30.21 93.71,-27.32"/>
</g>
<!-- Node4 -->
<g id="node4" class="node">
<title>Node4</title>
<g id="a_node4"><a xlink:href="dol2asm_8h.html" target="_top" xlink:title=" ">
<polygon fill="white" stroke="black" points="148.5,-62 148.5,-81 209.5,-81 209.5,-62 148.5,-62"/>
<text text-anchor="middle" x="179" y="-69" font-family="Helvetica,sans-Serif" font-size="10.00">dol2asm.h</text>
</a>
</g>
</g>
<!-- Node1&#45;&gt;Node4 -->
<g id="edge3" class="edge">
<title>Node1&#45;&gt;Node4</title>
<path fill="none" stroke="midnightblue" d="M3023,-131.65C2638.34,-129.15 362,-113.28 219,-87 215.48,-86.35 211.86,-85.43 208.3,-84.36"/>
<polygon fill="midnightblue" stroke="midnightblue" points="209.17,-80.96 198.58,-81.06 206.92,-87.59 209.17,-80.96"/>
</g>
<!-- Node5 -->
<g id="node5" class="node">
<title>Node5</title>
<g id="a_node5"><a xlink:title=" ">
<polygon fill="white" stroke="#bfbfbf" points="227.5,-56.5 227.5,-86.5 334.5,-86.5 334.5,-56.5 227.5,-56.5"/>
<text text-anchor="start" x="235.5" y="-74.5" font-family="Helvetica,sans-Serif" font-size="10.00">asm/dolphin/dvd/dvd</text>
<text text-anchor="middle" x="281" y="-63.5" font-family="Helvetica,sans-Serif" font-size="10.00">/DVDInit.s</text>
</a>
</g>
</g>
<!-- Node1&#45;&gt;Node5 -->
<g id="edge5" class="edge">
<title>Node1&#45;&gt;Node5</title>
<path fill="none" stroke="midnightblue" d="M3022.99,-131.79C2664.39,-130.32 664.28,-120.71 345.05,-86.83"/>
<polygon fill="midnightblue" stroke="midnightblue" points="345.16,-83.32 334.82,-85.67 344.36,-90.28 345.16,-83.32"/>
</g>
<!-- Node6 -->
<g id="node6" class="node">
<title>Node6</title>
<g id="a_node6"><a xlink:title=" ">
<polygon fill="white" stroke="#bfbfbf" points="352.5,-56.5 352.5,-86.5 459.5,-86.5 459.5,-56.5 352.5,-56.5"/>
<text text-anchor="start" x="360.5" y="-74.5" font-family="Helvetica,sans-Serif" font-size="10.00">asm/dolphin/dvd/dvd</text>
<text text-anchor="middle" x="406" y="-63.5" font-family="Helvetica,sans-Serif" font-size="10.00">/stateReadingFST.s</text>
</a>
</g>
</g>
<!-- Node1&#45;&gt;Node6 -->
<g id="edge6" class="edge">
<title>Node1&#45;&gt;Node6</title>
<path fill="none" stroke="midnightblue" d="M3022.97,-131.74C2674.15,-130.01 775.68,-119.24 470.02,-86.83"/>
<polygon fill="midnightblue" stroke="midnightblue" points="470.16,-83.32 459.82,-85.67 469.36,-90.28 470.16,-83.32"/>
</g>
<!-- Node7 -->
<g id="node7" class="node">
<title>Node7</title>
<g id="a_node7"><a xlink:title=" ">
<polygon fill="white" stroke="#bfbfbf" points="477.5,-56.5 477.5,-86.5 606.5,-86.5 606.5,-56.5 477.5,-56.5"/>
<text text-anchor="start" x="485.5" y="-74.5" font-family="Helvetica,sans-Serif" font-size="10.00">asm/dolphin/dvd/dvd</text>
<text text-anchor="middle" x="542" y="-63.5" font-family="Helvetica,sans-Serif" font-size="10.00">/cbForStateReadingFST.s</text>
</a>
</g>
</g>
<!-- Node1&#45;&gt;Node7 -->
<g id="edge7" class="edge">
<title>Node1&#45;&gt;Node7</title>
<path fill="none" stroke="midnightblue" d="M3022.82,-131.57C2685.47,-128.88 906.55,-113.56 616.92,-86.87"/>
<polygon fill="midnightblue" stroke="midnightblue" points="617.17,-83.38 606.87,-85.88 616.48,-90.35 617.17,-83.38"/>
</g>
<!-- Node8 -->
<g id="node8" class="node">
<title>Node8</title>
<g id="a_node8"><a xlink:title=" ">
<polygon fill="white" stroke="#bfbfbf" points="624.5,-56.5 624.5,-86.5 731.5,-86.5 731.5,-56.5 624.5,-56.5"/>
<text text-anchor="start" x="632.5" y="-74.5" font-family="Helvetica,sans-Serif" font-size="10.00">asm/dolphin/dvd/dvd</text>
<text text-anchor="middle" x="678" y="-63.5" font-family="Helvetica,sans-Serif" font-size="10.00">/cbForStateError.s</text>
</a>
</g>
</g>
<!-- Node1&#45;&gt;Node8 -->
<g id="edge8" class="edge">
<title>Node1&#45;&gt;Node8</title>
<path fill="none" stroke="midnightblue" d="M3022.95,-131.62C2696.42,-129.3 1018.84,-116.07 742.16,-86.84"/>
<polygon fill="midnightblue" stroke="midnightblue" points="742.16,-83.32 731.83,-85.66 741.36,-90.27 742.16,-83.32"/>
</g>
<!-- Node9 -->
<g id="node9" class="node">
<title>Node9</title>
<g id="a_node9"><a xlink:title=" ">
<polygon fill="white" stroke="#bfbfbf" points="749.5,-56.5 749.5,-86.5 856.5,-86.5 856.5,-56.5 749.5,-56.5"/>
<text text-anchor="start" x="757.5" y="-74.5" font-family="Helvetica,sans-Serif" font-size="10.00">asm/dolphin/dvd/dvd</text>
<text text-anchor="middle" x="803" y="-63.5" font-family="Helvetica,sans-Serif" font-size="10.00">/stateTimeout.s</text>
</a>
</g>
</g>
<!-- Node1&#45;&gt;Node9 -->
<g id="edge9" class="edge">
<title>Node1&#45;&gt;Node9</title>
<path fill="none" stroke="midnightblue" d="M3022.81,-131.56C2706.54,-128.93 1129.56,-114.61 866.98,-86.82"/>
<polygon fill="midnightblue" stroke="midnightblue" points="867.16,-83.32 856.83,-85.66 866.36,-90.27 867.16,-83.32"/>
</g>
<!-- Node10 -->
<g id="node10" class="node">
<title>Node10</title>
<g id="a_node10"><a xlink:title=" ">
<polygon fill="white" stroke="#bfbfbf" points="874.5,-56.5 874.5,-86.5 981.5,-86.5 981.5,-56.5 874.5,-56.5"/>
<text text-anchor="start" x="882.5" y="-74.5" font-family="Helvetica,sans-Serif" font-size="10.00">asm/dolphin/dvd/dvd</text>
<text text-anchor="middle" x="928" y="-63.5" font-family="Helvetica,sans-Serif" font-size="10.00">/stateGettingError.s</text>
</a>
</g>
</g>
<!-- Node1&#45;&gt;Node10 -->
<g id="edge10" class="edge">
<title>Node1&#45;&gt;Node10</title>
<path fill="none" stroke="midnightblue" d="M3022.93,-131.49C2717.86,-128.55 1240.2,-113.16 991.76,-86.79"/>
<polygon fill="midnightblue" stroke="midnightblue" points="992.16,-83.32 981.83,-85.65 991.36,-90.27 992.16,-83.32"/>
</g>
<!-- Node11 -->
<g id="node11" class="node">
<title>Node11</title>
<g id="a_node11"><a xlink:title=" ">
<polygon fill="white" stroke="#bfbfbf" points="999.5,-56.5 999.5,-86.5 1106.5,-86.5 1106.5,-56.5 999.5,-56.5"/>
<text text-anchor="start" x="1007.5" y="-74.5" font-family="Helvetica,sans-Serif" font-size="10.00">asm/dolphin/dvd/dvd</text>
<text text-anchor="middle" x="1053" y="-63.5" font-family="Helvetica,sans-Serif" font-size="10.00">/CategorizeError.s</text>
</a>
</g>
</g>
<!-- Node1&#45;&gt;Node11 -->
<g id="edge11" class="edge">
<title>Node1&#45;&gt;Node11</title>
<path fill="none" stroke="midnightblue" d="M3022.94,-132.25C2747.9,-133.26 1520.33,-135.02 1116.79,-86.87"/>
<polygon fill="midnightblue" stroke="midnightblue" points="1117.18,-83.39 1106.83,-85.65 1116.33,-90.34 1117.18,-83.39"/>
</g>
<!-- Node12 -->
<g id="node12" class="node">
<title>Node12</title>
<g id="a_node12"><a xlink:title=" ">
<polygon fill="white" stroke="#bfbfbf" points="1124.5,-56.5 1124.5,-86.5 1251.5,-86.5 1251.5,-56.5 1124.5,-56.5"/>
<text text-anchor="start" x="1132.5" y="-74.5" font-family="Helvetica,sans-Serif" font-size="10.00">asm/dolphin/dvd/dvd</text>
<text text-anchor="middle" x="1188" y="-63.5" font-family="Helvetica,sans-Serif" font-size="10.00">/cbForStateGettingError.s</text>
</a>
</g>
</g>
<!-- Node1&#45;&gt;Node12 -->
<g id="edge12" class="edge">
<title>Node1&#45;&gt;Node12</title>
<path fill="none" stroke="midnightblue" d="M3022.71,-131.91C2760.02,-131.27 1635.58,-126.34 1261.64,-86.89"/>
<polygon fill="midnightblue" stroke="midnightblue" points="1261.92,-83.4 1251.6,-85.8 1261.17,-90.36 1261.92,-83.4"/>
</g>
<!-- Node13 -->
<g id="node13" class="node">
<title>Node13</title>
<g id="a_node13"><a xlink:title=" ">
<polygon fill="white" stroke="#bfbfbf" points="1270,-56.5 1270,-86.5 1398,-86.5 1398,-56.5 1270,-56.5"/>
<text text-anchor="start" x="1278" y="-74.5" font-family="Helvetica,sans-Serif" font-size="10.00">asm/dolphin/dvd/dvd</text>
<text text-anchor="middle" x="1334" y="-63.5" font-family="Helvetica,sans-Serif" font-size="10.00">/cbForUnrecoveredError.s</text>
</a>
</g>
</g>
<!-- Node1&#45;&gt;Node13 -->
<g id="edge13" class="edge">
<title>Node1&#45;&gt;Node13</title>
<path fill="none" stroke="midnightblue" d="M3022.61,-131.77C2773.11,-130.53 1751.3,-123.37 1408.58,-87.02"/>
<polygon fill="midnightblue" stroke="midnightblue" points="1408.72,-83.51 1398.39,-85.9 1407.96,-90.47 1408.72,-83.51"/>
</g>
<!-- Node14 -->
<g id="node14" class="node">
<title>Node14</title>
<g id="a_node14"><a xlink:title=" ">
<polygon fill="white" stroke="#bfbfbf" points="1416,-56.5 1416,-86.5 1566,-86.5 1566,-56.5 1416,-56.5"/>
<text text-anchor="start" x="1424" y="-74.5" font-family="Helvetica,sans-Serif" font-size="10.00">asm/dolphin/dvd/dvd</text>
<text text-anchor="middle" x="1491" y="-63.5" font-family="Helvetica,sans-Serif" font-size="10.00">/cbForUnrecoveredErrorRetry.s</text>
</a>
</g>
</g>
<!-- Node1&#45;&gt;Node14 -->
<g id="edge14" class="edge">
<title>Node1&#45;&gt;Node14</title>
<path fill="none" stroke="midnightblue" d="M3022.77,-131.39C2789.68,-128.66 1884.76,-116.41 1576.31,-87"/>
<polygon fill="midnightblue" stroke="midnightblue" points="1576.33,-83.49 1566.03,-85.99 1575.64,-90.45 1576.33,-83.49"/>
</g>
<!-- Node15 -->
<g id="node15" class="node">
<title>Node15</title>
<g id="a_node15"><a xlink:title=" ">
<polygon fill="white" stroke="#bfbfbf" points="1583.5,-56.5 1583.5,-86.5 1690.5,-86.5 1690.5,-56.5 1583.5,-56.5"/>
<text text-anchor="start" x="1591.5" y="-74.5" font-family="Helvetica,sans-Serif" font-size="10.00">asm/dolphin/dvd/dvd</text>
<text text-anchor="middle" x="1637" y="-63.5" font-family="Helvetica,sans-Serif" font-size="10.00">/stateGoToRetry.s</text>
</a>
</g>
</g>
<!-- Node1&#45;&gt;Node15 -->
<g id="edge15" class="edge">
<title>Node1&#45;&gt;Node15</title>
<path fill="none" stroke="midnightblue" d="M3022.86,-131.62C2802.35,-129.9 1982.78,-121.37 1701.03,-86.9"/>
<polygon fill="midnightblue" stroke="midnightblue" points="1701.19,-83.39 1690.83,-85.61 1700.31,-90.34 1701.19,-83.39"/>
</g>
<!-- Node16 -->
<g id="node16" class="node">
<title>Node16</title>
<g id="a_node16"><a xlink:title=" ">
<polygon fill="white" stroke="#bfbfbf" points="1709,-56.5 1709,-86.5 1831,-86.5 1831,-56.5 1709,-56.5"/>
<text text-anchor="start" x="1717" y="-74.5" font-family="Helvetica,sans-Serif" font-size="10.00">asm/dolphin/dvd/dvd</text>
<text text-anchor="middle" x="1770" y="-63.5" font-family="Helvetica,sans-Serif" font-size="10.00">/cbForStateGoToRetry.s</text>
</a>
</g>
</g>
<!-- Node1&#45;&gt;Node16 -->
<g id="edge16" class="edge">
<title>Node1&#45;&gt;Node16</title>
<path fill="none" stroke="midnightblue" d="M3022.95,-131.21C2814.65,-128.02 2074.79,-114.93 1841,-87 1840.9,-86.99 1840.8,-86.98 1840.7,-86.96"/>
<polygon fill="midnightblue" stroke="midnightblue" points="1841.47,-83.54 1831.09,-85.64 1840.52,-90.47 1841.47,-83.54"/>
</g>
<!-- Node17 -->
<g id="node17" class="node">
<title>Node17</title>
<g id="a_node17"><a xlink:title=" ">
<polygon fill="white" stroke="#bfbfbf" points="1849.5,-56.5 1849.5,-86.5 1956.5,-86.5 1956.5,-56.5 1849.5,-56.5"/>
<text text-anchor="start" x="1857.5" y="-74.5" font-family="Helvetica,sans-Serif" font-size="10.00">asm/dolphin/dvd/dvd</text>
<text text-anchor="middle" x="1903" y="-63.5" font-family="Helvetica,sans-Serif" font-size="10.00">/stateCheckID.s</text>
</a>
</g>
</g>
<!-- Node1&#45;&gt;Node17 -->
<g id="edge17" class="edge">
<title>Node1&#45;&gt;Node17</title>
<path fill="none" stroke="midnightblue" d="M3022.91,-131.13C2831.25,-127.87 2193.49,-115.26 1966.98,-86.9"/>
<polygon fill="midnightblue" stroke="midnightblue" points="1967.2,-83.4 1956.84,-85.58 1966.3,-90.34 1967.2,-83.4"/>
</g>
<!-- Node18 -->
<g id="node18" class="node">
<title>Node18</title>
<g id="a_node18"><a xlink:title=" ">
<polygon fill="white" stroke="#bfbfbf" points="1974.5,-56.5 1974.5,-86.5 2081.5,-86.5 2081.5,-56.5 1974.5,-56.5"/>
<text text-anchor="start" x="1982.5" y="-74.5" font-family="Helvetica,sans-Serif" font-size="10.00">asm/dolphin/dvd/dvd</text>
<text text-anchor="middle" x="2028" y="-63.5" font-family="Helvetica,sans-Serif" font-size="10.00">/stateCheckID3.s</text>
</a>
</g>
</g>
<!-- Node1&#45;&gt;Node18 -->
<g id="edge18" class="edge">
<title>Node1&#45;&gt;Node18</title>
<path fill="none" stroke="midnightblue" d="M3022.97,-130.8C2846.11,-126.74 2292.63,-112.42 2091.98,-86.91"/>
<polygon fill="midnightblue" stroke="midnightblue" points="2092.21,-83.41 2081.84,-85.56 2091.29,-90.35 2092.21,-83.41"/>
</g>
<!-- Node19 -->
<g id="node19" class="node">
<title>Node19</title>
<g id="a_node19"><a xlink:title=" ">
<polygon fill="white" stroke="#bfbfbf" points="2099.5,-56.5 2099.5,-86.5 2206.5,-86.5 2206.5,-56.5 2099.5,-56.5"/>
<text text-anchor="start" x="2107.5" y="-74.5" font-family="Helvetica,sans-Serif" font-size="10.00">asm/dolphin/dvd/dvd</text>
<text text-anchor="middle" x="2153" y="-63.5" font-family="Helvetica,sans-Serif" font-size="10.00">/stateCheckID2a.s</text>
</a>
</g>
</g>
<!-- Node1&#45;&gt;Node19 -->
<g id="edge19" class="edge">
<title>Node1&#45;&gt;Node19</title>
<path fill="none" stroke="midnightblue" d="M3022.97,-132.43C2887.39,-132.8 2526.43,-129.46 2216.91,-86.94"/>
<polygon fill="midnightblue" stroke="midnightblue" points="2217.23,-83.45 2206.84,-85.54 2216.26,-90.38 2217.23,-83.45"/>
</g>
<!-- Node20 -->
<g id="node20" class="node">
<title>Node20</title>
<g id="a_node20"><a xlink:title=" ">
<polygon fill="white" stroke="#bfbfbf" points="2224.5,-56.5 2224.5,-86.5 2347.5,-86.5 2347.5,-56.5 2224.5,-56.5"/>
<text text-anchor="start" x="2232.5" y="-74.5" font-family="Helvetica,sans-Serif" font-size="10.00">asm/dolphin/dvd/dvd</text>
<text text-anchor="middle" x="2286" y="-63.5" font-family="Helvetica,sans-Serif" font-size="10.00">/cbForStateCheckID2a.s</text>
</a>
</g>
</g>
<!-- Node1&#45;&gt;Node20 -->
<g id="edge20" class="edge">
<title>Node1&#45;&gt;Node20</title>
<path fill="none" stroke="midnightblue" d="M3022.57,-131.16C2902.95,-128.79 2611.61,-119.98 2358.01,-87"/>
<polygon fill="midnightblue" stroke="midnightblue" points="2358.24,-83.5 2347.87,-85.66 2357.33,-90.44 2358.24,-83.5"/>
</g>
<!-- Node21 -->
<g id="node21" class="node">
<title>Node21</title>
<g id="a_node21"><a xlink:title=" ">
<polygon fill="white" stroke="#bfbfbf" points="2365.5,-56.5 2365.5,-86.5 2472.5,-86.5 2472.5,-56.5 2365.5,-56.5"/>
<text text-anchor="start" x="2373.5" y="-74.5" font-family="Helvetica,sans-Serif" font-size="10.00">asm/dolphin/dvd/dvd</text>
<text text-anchor="middle" x="2419" y="-63.5" font-family="Helvetica,sans-Serif" font-size="10.00">/stateCheckID2.s</text>
</a>
</g>
</g>
<!-- Node1&#45;&gt;Node21 -->
<g id="edge21" class="edge">
<title>Node1&#45;&gt;Node21</title>
<path fill="none" stroke="midnightblue" d="M3022.63,-130.61C2918.67,-127.38 2687.1,-117.34 2482.54,-86.91"/>
<polygon fill="midnightblue" stroke="midnightblue" points="2482.92,-83.42 2472.51,-85.39 2481.88,-90.35 2482.92,-83.42"/>
</g>
<!-- Node22 -->
<g id="node22" class="node">
<title>Node22</title>
<g id="a_node22"><a xlink:title=" ">
<polygon fill="white" stroke="#bfbfbf" points="2491,-56.5 2491,-86.5 2609,-86.5 2609,-56.5 2491,-56.5"/>
<text text-anchor="start" x="2499" y="-74.5" font-family="Helvetica,sans-Serif" font-size="10.00">asm/dolphin/dvd/dvd</text>
<text text-anchor="middle" x="2550" y="-63.5" font-family="Helvetica,sans-Serif" font-size="10.00">/cbForStateCheckID1.s</text>
</a>
</g>
</g>
<!-- Node1&#45;&gt;Node22 -->
<g id="edge22" class="edge">
<title>Node1&#45;&gt;Node22</title>
<path fill="none" stroke="midnightblue" d="M3022.87,-128.62C2938.15,-122.98 2770.7,-110.1 2619.22,-87.08"/>
<polygon fill="midnightblue" stroke="midnightblue" points="2619.68,-83.61 2609.27,-85.55 2618.62,-90.53 2619.68,-83.61"/>
</g>
<!-- Node23 -->
<g id="node23" class="node">
<title>Node23</title>
<g id="a_node23"><a xlink:title=" ">
<polygon fill="white" stroke="#bfbfbf" points="2627,-56.5 2627,-86.5 2745,-86.5 2745,-56.5 2627,-56.5"/>
<text text-anchor="start" x="2635" y="-74.5" font-family="Helvetica,sans-Serif" font-size="10.00">asm/dolphin/dvd/dvd</text>
<text text-anchor="middle" x="2686" y="-63.5" font-family="Helvetica,sans-Serif" font-size="10.00">/cbForStateCheckID2.s</text>
</a>
</g>
</g>
<!-- Node1&#45;&gt;Node23 -->
<g id="edge23" class="edge">
<title>Node1&#45;&gt;Node23</title>
<path fill="none" stroke="midnightblue" d="M3022.78,-125.56C2960.22,-117.99 2855.02,-104.43 2755.24,-87.14"/>
<polygon fill="midnightblue" stroke="midnightblue" points="2755.74,-83.68 2745.29,-85.41 2754.54,-90.58 2755.74,-83.68"/>
</g>
<!-- Node24 -->
<g id="node24" class="node">
<title>Node24</title>
<g id="a_node24"><a xlink:title=" ">
<polygon fill="white" stroke="#bfbfbf" points="2763,-56.5 2763,-86.5 2881,-86.5 2881,-56.5 2763,-56.5"/>
<text text-anchor="start" x="2771" y="-74.5" font-family="Helvetica,sans-Serif" font-size="10.00">asm/dolphin/dvd/dvd</text>
<text text-anchor="middle" x="2822" y="-63.5" font-family="Helvetica,sans-Serif" font-size="10.00">/cbForStateCheckID3.s</text>
</a>
</g>
</g>
<!-- Node1&#45;&gt;Node24 -->
<g id="edge24" class="edge">
<title>Node1&#45;&gt;Node24</title>
<path fill="none" stroke="midnightblue" d="M3041.32,-123.48C3002.26,-114.4 2939.52,-99.81 2891.13,-88.57"/>
<polygon fill="midnightblue" stroke="midnightblue" points="2891.88,-85.15 2881.35,-86.29 2890.3,-91.97 2891.88,-85.15"/>
</g>
<!-- Node25 -->
<g id="node25" class="node">
<title>Node25</title>
<g id="a_node25"><a xlink:title=" ">
<polygon fill="white" stroke="#bfbfbf" points="2899.5,-56.5 2899.5,-86.5 3006.5,-86.5 3006.5,-56.5 2899.5,-56.5"/>
<text text-anchor="start" x="2907.5" y="-74.5" font-family="Helvetica,sans-Serif" font-size="10.00">asm/dolphin/dvd/dvd</text>
<text text-anchor="middle" x="2953" y="-63.5" font-family="Helvetica,sans-Serif" font-size="10.00">/AlarmHandler.s</text>
</a>
</g>
</g>
<!-- Node1&#45;&gt;Node25 -->
<g id="edge25" class="edge">
<title>Node1&#45;&gt;Node25</title>
<path fill="none" stroke="midnightblue" d="M3060.09,-123.48C3042.29,-115 3014.42,-101.74 2991.58,-90.86"/>
<polygon fill="midnightblue" stroke="midnightblue" points="2992.99,-87.66 2982.46,-86.52 2989.99,-93.98 2992.99,-87.66"/>
</g>
<!-- Node26 -->
<g id="node26" class="node">
<title>Node26</title>
<g id="a_node26"><a xlink:title=" ">
<polygon fill="white" stroke="#bfbfbf" points="3024.5,-56.5 3024.5,-86.5 3131.5,-86.5 3131.5,-56.5 3024.5,-56.5"/>
<text text-anchor="start" x="3032.5" y="-74.5" font-family="Helvetica,sans-Serif" font-size="10.00">asm/dolphin/dvd/dvd</text>
<text text-anchor="middle" x="3078" y="-63.5" font-family="Helvetica,sans-Serif" font-size="10.00">/stateCoverClosed.s</text>
</a>
</g>
</g>
<!-- Node1&#45;&gt;Node26 -->
<g id="edge26" class="edge">
<title>Node1&#45;&gt;Node26</title>
<path fill="none" stroke="midnightblue" d="M3078,-123.48C3078,-116.47 3078,-106.19 3078,-96.7"/>
<polygon fill="midnightblue" stroke="midnightblue" points="3081.5,-96.52 3078,-86.52 3074.5,-96.52 3081.5,-96.52"/>
</g>
<!-- Node27 -->
<g id="node27" class="node">
<title>Node27</title>
<g id="a_node27"><a xlink:title=" ">
<polygon fill="white" stroke="#bfbfbf" points="3149.5,-56.5 3149.5,-86.5 3280.5,-86.5 3280.5,-56.5 3149.5,-56.5"/>
<text text-anchor="start" x="3157.5" y="-74.5" font-family="Helvetica,sans-Serif" font-size="10.00">asm/dolphin/dvd/dvd</text>
<text text-anchor="middle" x="3215" y="-63.5" font-family="Helvetica,sans-Serif" font-size="10.00">/stateCoverClosed_CMD.s</text>
</a>
</g>
</g>
<!-- Node1&#45;&gt;Node27 -->
<g id="edge27" class="edge">
<title>Node1&#45;&gt;Node27</title>
<path fill="none" stroke="midnightblue" d="M3097.63,-123.48C3117.31,-114.93 3148.22,-101.5 3173.39,-90.57"/>
<polygon fill="midnightblue" stroke="midnightblue" points="3174.93,-93.72 3182.71,-86.52 3172.15,-87.3 3174.93,-93.72"/>
</g>
<!-- Node28 -->
<g id="node28" class="node">
<title>Node28</title>
<g id="a_node28"><a xlink:title=" ">
<polygon fill="white" stroke="#bfbfbf" points="3298.5,-56.5 3298.5,-86.5 3429.5,-86.5 3429.5,-56.5 3298.5,-56.5"/>
<text text-anchor="start" x="3306.5" y="-74.5" font-family="Helvetica,sans-Serif" font-size="10.00">asm/dolphin/dvd/dvd</text>
<text text-anchor="middle" x="3364" y="-63.5" font-family="Helvetica,sans-Serif" font-size="10.00">/cbForStateCoverClosed.s</text>
</a>
</g>
</g>
<!-- Node1&#45;&gt;Node28 -->
<g id="edge28" class="edge">
<title>Node1&#45;&gt;Node28</title>
<path fill="none" stroke="midnightblue" d="M3118.98,-123.48C3163.03,-114.31 3234.05,-99.53 3288.32,-88.25"/>
<polygon fill="midnightblue" stroke="midnightblue" points="3289.17,-91.64 3298.24,-86.18 3287.74,-84.79 3289.17,-91.64"/>
</g>
<!-- Node29 -->
<g id="node29" class="node">
<title>Node29</title>
<g id="a_node29"><a xlink:title=" ">
<polygon fill="white" stroke="#bfbfbf" points="3448,-56.5 3448,-86.5 3558,-86.5 3558,-56.5 3448,-56.5"/>
<text text-anchor="start" x="3456" y="-74.5" font-family="Helvetica,sans-Serif" font-size="10.00">asm/dolphin/dvd/dvd</text>
<text text-anchor="middle" x="3503" y="-63.5" font-family="Helvetica,sans-Serif" font-size="10.00">/stateMotorStopped.s</text>
</a>
</g>
</g>
<!-- Node1&#45;&gt;Node29 -->
<g id="edge29" class="edge">
<title>Node1&#45;&gt;Node29</title>
<path fill="none" stroke="midnightblue" d="M3133.3,-126.82C3202.34,-119.97 3324.22,-106.64 3437.99,-87.07"/>
<polygon fill="midnightblue" stroke="midnightblue" points="3438.66,-90.51 3447.91,-85.34 3437.46,-83.61 3438.66,-90.51"/>
</g>
<!-- Node30 -->
<g id="node30" class="node">
<title>Node30</title>
<g id="a_node30"><a xlink:title=" ">
<polygon fill="white" stroke="#bfbfbf" points="3576,-56.5 3576,-86.5 3712,-86.5 3712,-56.5 3576,-56.5"/>
<text text-anchor="start" x="3584" y="-74.5" font-family="Helvetica,sans-Serif" font-size="10.00">asm/dolphin/dvd/dvd</text>
<text text-anchor="middle" x="3644" y="-63.5" font-family="Helvetica,sans-Serif" font-size="10.00">/cbForStateMotorStopped.s</text>
</a>
</g>
</g>
<!-- Node1&#45;&gt;Node30 -->
<g id="edge30" class="edge">
<title>Node1&#45;&gt;Node30</title>
<path fill="none" stroke="midnightblue" d="M3133.2,-128.62C3222.12,-122.81 3402.77,-109.47 3565.43,-87.14"/>
<polygon fill="midnightblue" stroke="midnightblue" points="3566.2,-90.56 3575.62,-85.72 3565.24,-83.63 3566.2,-90.56"/>
</g>
<!-- Node31 -->
<g id="node31" class="node">
<title>Node31</title>
<g id="a_node31"><a xlink:title=" ">
<polygon fill="white" stroke="#bfbfbf" points="3730.5,-56.5 3730.5,-86.5 3837.5,-86.5 3837.5,-56.5 3730.5,-56.5"/>
<text text-anchor="start" x="3738.5" y="-74.5" font-family="Helvetica,sans-Serif" font-size="10.00">asm/dolphin/dvd/dvd</text>
<text text-anchor="middle" x="3784" y="-63.5" font-family="Helvetica,sans-Serif" font-size="10.00">/stateReady.s</text>
</a>
</g>
</g>
<!-- Node1&#45;&gt;Node31 -->
<g id="edge31" class="edge">
<title>Node1&#45;&gt;Node31</title>
<path fill="none" stroke="midnightblue" d="M3133.36,-131.04C3243.43,-128.49 3497.58,-119.46 3720.57,-86.88"/>
<polygon fill="midnightblue" stroke="midnightblue" points="3721.11,-90.34 3730.49,-85.41 3720.09,-83.42 3721.11,-90.34"/>
</g>
<!-- Node32 -->
<g id="node32" class="node">
<title>Node32</title>
<g id="a_node32"><a xlink:title=" ">
<polygon fill="white" stroke="#bfbfbf" points="3855.5,-56.5 3855.5,-86.5 3962.5,-86.5 3962.5,-56.5 3855.5,-56.5"/>
<text text-anchor="start" x="3863.5" y="-74.5" font-family="Helvetica,sans-Serif" font-size="10.00">asm/dolphin/dvd/dvd</text>
<text text-anchor="middle" x="3909" y="-63.5" font-family="Helvetica,sans-Serif" font-size="10.00">/stateBusy.s</text>
</a>
</g>
</g>
<!-- Node1&#45;&gt;Node32 -->
<g id="edge32" class="edge">
<title>Node1&#45;&gt;Node32</title>
<path fill="none" stroke="midnightblue" d="M3133.34,-132C3258.68,-131.31 3573.82,-125.65 3845.29,-87.09"/>
<polygon fill="midnightblue" stroke="midnightblue" points="3845.94,-90.53 3855.34,-85.64 3844.94,-83.6 3845.94,-90.53"/>
</g>
<!-- Node33 -->
<g id="node33" class="node">
<title>Node33</title>
<g id="a_node33"><a xlink:title=" ">
<polygon fill="white" stroke="#bfbfbf" points="3980.5,-56.5 3980.5,-86.5 4087.5,-86.5 4087.5,-56.5 3980.5,-56.5"/>
<text text-anchor="start" x="3988.5" y="-74.5" font-family="Helvetica,sans-Serif" font-size="10.00">asm/dolphin/dvd/dvd</text>
<text text-anchor="middle" x="4034" y="-63.5" font-family="Helvetica,sans-Serif" font-size="10.00">/cbForStateBusy.s</text>
</a>
</g>
</g>
<!-- Node1&#45;&gt;Node33 -->
<g id="edge33" class="edge">
<title>Node1&#45;&gt;Node33</title>
<path fill="none" stroke="midnightblue" d="M3133,-132.65C3272.06,-133.56 3648.9,-131.48 3970.37,-87.06"/>
<polygon fill="midnightblue" stroke="midnightblue" points="3970.92,-90.52 3980.34,-85.67 3969.95,-83.59 3970.92,-90.52"/>
</g>
<!-- Node34 -->
<g id="node34" class="node">
<title>Node34</title>
<g id="a_node34"><a xlink:title=" ">
<polygon fill="white" stroke="#bfbfbf" points="4105.5,-56.5 4105.5,-86.5 4236.5,-86.5 4236.5,-56.5 4105.5,-56.5"/>
<text text-anchor="start" x="4113.5" y="-74.5" font-family="Helvetica,sans-Serif" font-size="10.00">asm/dolphin/dvd/dvd</text>
<text text-anchor="middle" x="4171" y="-63.5" font-family="Helvetica,sans-Serif" font-size="10.00">/DVDReadAbsAsyncPrio.s</text>
</a>
</g>
</g>
<!-- Node1&#45;&gt;Node34 -->
<g id="edge34" class="edge">
<title>Node1&#45;&gt;Node34</title>
<path fill="none" stroke="midnightblue" d="M3133.19,-132.45C3285.23,-133.08 3723.04,-130.73 4095.15,-87.1"/>
<polygon fill="midnightblue" stroke="midnightblue" points="4095.79,-90.55 4105.31,-85.9 4094.97,-83.6 4095.79,-90.55"/>
</g>
<!-- Node35 -->
<g id="node35" class="node">
<title>Node35</title>
<g id="a_node35"><a xlink:title=" ">
<polygon fill="white" stroke="#bfbfbf" points="4255,-56.5 4255,-86.5 4397,-86.5 4397,-56.5 4255,-56.5"/>
<text text-anchor="start" x="4263" y="-74.5" font-family="Helvetica,sans-Serif" font-size="10.00">asm/dolphin/dvd/dvd</text>
<text text-anchor="middle" x="4326" y="-63.5" font-family="Helvetica,sans-Serif" font-size="10.00">/DVDReadAbsAsyncForBS.s</text>
</a>
</g>
</g>
<!-- Node1&#45;&gt;Node35 -->
<g id="edge35" class="edge">
<title>Node1&#45;&gt;Node35</title>
<path fill="none" stroke="midnightblue" d="M3133.23,-132.62C3299.74,-133.92 3811.52,-133.63 4244.76,-87.02"/>
<polygon fill="midnightblue" stroke="midnightblue" points="4245.41,-90.47 4254.98,-85.91 4244.66,-83.51 4245.41,-90.47"/>
</g>
<!-- Node36 -->
<g id="node36" class="node">
<title>Node36</title>
<g id="a_node36"><a xlink:title=" ">
<polygon fill="white" stroke="#bfbfbf" points="4415.5,-56.5 4415.5,-86.5 4522.5,-86.5 4522.5,-56.5 4415.5,-56.5"/>
<text text-anchor="start" x="4423.5" y="-74.5" font-family="Helvetica,sans-Serif" font-size="10.00">asm/dolphin/dvd/dvd</text>
<text text-anchor="middle" x="4469" y="-63.5" font-family="Helvetica,sans-Serif" font-size="10.00">/DVDReadDiskID.s</text>
</a>
</g>
</g>
<!-- Node1&#45;&gt;Node36 -->
<g id="edge36" class="edge">
<title>Node1&#45;&gt;Node36</title>
<path fill="none" stroke="midnightblue" d="M3133.35,-131.54C3348.97,-129.55 4133.68,-120.2 4404.96,-86.9"/>
<polygon fill="midnightblue" stroke="midnightblue" points="4405.69,-90.34 4415.17,-85.61 4404.81,-83.39 4405.69,-90.34"/>
</g>
<!-- Node37 -->
<g id="node37" class="node">
<title>Node37</title>
<g id="a_node37"><a xlink:title=" ">
<polygon fill="white" stroke="#bfbfbf" points="4541,-56.5 4541,-86.5 4677,-86.5 4677,-56.5 4541,-56.5"/>
<text text-anchor="start" x="4549" y="-74.5" font-family="Helvetica,sans-Serif" font-size="10.00">asm/dolphin/dvd/dvd</text>
<text text-anchor="middle" x="4609" y="-63.5" font-family="Helvetica,sans-Serif" font-size="10.00">/DVDCancelStreamAsync.s</text>
</a>
</g>
</g>
<!-- Node1&#45;&gt;Node37 -->
<g id="edge37" class="edge">
<title>Node1&#45;&gt;Node37</title>
<path fill="none" stroke="midnightblue" d="M3133.38,-131.44C3361.84,-128.94 4232.58,-117.64 4530.3,-87.04"/>
<polygon fill="midnightblue" stroke="midnightblue" points="4531.07,-90.48 4540.65,-85.94 4530.34,-83.51 4531.07,-90.48"/>
</g>
<!-- Node38 -->
<g id="node38" class="node">
<title>Node38</title>
<g id="a_node38"><a xlink:title=" ">
<polygon fill="white" stroke="#bfbfbf" points="4695.5,-56.5 4695.5,-86.5 4802.5,-86.5 4802.5,-56.5 4695.5,-56.5"/>
<text text-anchor="start" x="4703.5" y="-74.5" font-family="Helvetica,sans-Serif" font-size="10.00">asm/dolphin/dvd/dvd</text>
<text text-anchor="middle" x="4749" y="-63.5" font-family="Helvetica,sans-Serif" font-size="10.00">/DVDInquiryAsync.s</text>
</a>
</g>
</g>
<!-- Node1&#45;&gt;Node38 -->
<g id="edge38" class="edge">
<title>Node1&#45;&gt;Node38</title>
<path fill="none" stroke="midnightblue" d="M3133.37,-131.92C3377.01,-131.36 4355.72,-126.7 4685.14,-86.88"/>
<polygon fill="midnightblue" stroke="midnightblue" points="4685.68,-90.34 4695.17,-85.63 4684.81,-83.39 4685.68,-90.34"/>
</g>
<!-- Node39 -->
<g id="node39" class="node">
<title>Node39</title>
<g id="a_node39"><a xlink:title=" ">
<polygon fill="white" stroke="#bfbfbf" points="4820.5,-56.5 4820.5,-86.5 4927.5,-86.5 4927.5,-56.5 4820.5,-56.5"/>
<text text-anchor="start" x="4828.5" y="-74.5" font-family="Helvetica,sans-Serif" font-size="10.00">asm/dolphin/dvd/dvd</text>
<text text-anchor="middle" x="4874" y="-63.5" font-family="Helvetica,sans-Serif" font-size="10.00">/DVDReset.s</text>
</a>
</g>
</g>
<!-- Node1&#45;&gt;Node39 -->
<g id="edge39" class="edge">
<title>Node1&#45;&gt;Node39</title>
<path fill="none" stroke="midnightblue" d="M3133.34,-132.08C3388.69,-132.22 4455.4,-130.23 4810.32,-87.01"/>
<polygon fill="midnightblue" stroke="midnightblue" points="4810.87,-90.47 4820.35,-85.75 4810,-83.52 4810.87,-90.47"/>
</g>
<!-- Node40 -->
<g id="node40" class="node">
<title>Node40</title>
<g id="a_node40"><a xlink:title=" ">
<polygon fill="white" stroke="#bfbfbf" points="4945.5,-56.5 4945.5,-86.5 5106.5,-86.5 5106.5,-56.5 4945.5,-56.5"/>
<text text-anchor="start" x="4953.5" y="-74.5" font-family="Helvetica,sans-Serif" font-size="10.00">asm/dolphin/dvd/dvd</text>
<text text-anchor="middle" x="5026" y="-63.5" font-family="Helvetica,sans-Serif" font-size="10.00">/DVDGetCommandBlockStatus.s</text>
</a>
</g>
</g>
<!-- Node1&#45;&gt;Node40 -->
<g id="edge40" class="edge">
<title>Node1&#45;&gt;Node40</title>
<path fill="none" stroke="midnightblue" d="M3133.19,-131.69C3399.38,-130.02 4553.04,-121 4935.07,-87.08"/>
<polygon fill="midnightblue" stroke="midnightblue" points="4935.41,-90.56 4945.05,-86.17 4934.78,-83.59 4935.41,-90.56"/>
</g>
<!-- Node41 -->
<g id="node41" class="node">
<title>Node41</title>
<g id="a_node41"><a xlink:title=" ">
<polygon fill="white" stroke="#bfbfbf" points="5125,-56.5 5125,-86.5 5239,-86.5 5239,-56.5 5125,-56.5"/>
<text text-anchor="start" x="5133" y="-74.5" font-family="Helvetica,sans-Serif" font-size="10.00">asm/dolphin/dvd/dvd</text>
<text text-anchor="middle" x="5182" y="-63.5" font-family="Helvetica,sans-Serif" font-size="10.00">/DVDGetDriveStatus.s</text>
</a>
</g>
</g>
<!-- Node1&#45;&gt;Node41 -->
<g id="edge41" class="edge">
<title>Node1&#45;&gt;Node41</title>
<path fill="none" stroke="midnightblue" d="M3133.29,-132.23C3415.23,-133.19 4695.43,-134.83 5114.83,-86.94"/>
<polygon fill="midnightblue" stroke="midnightblue" points="5115.35,-90.4 5124.88,-85.76 5114.54,-83.45 5115.35,-90.4"/>
</g>
<!-- Node42 -->
<g id="node42" class="node">
<title>Node42</title>
<g id="a_node42"><a xlink:title=" ">
<polygon fill="white" stroke="#bfbfbf" points="5257,-56.5 5257,-86.5 5389,-86.5 5389,-56.5 5257,-56.5"/>
<text text-anchor="start" x="5265" y="-74.5" font-family="Helvetica,sans-Serif" font-size="10.00">asm/dolphin/dvd/dvd</text>
<text text-anchor="middle" x="5323" y="-63.5" font-family="Helvetica,sans-Serif" font-size="10.00">/DVDSetAutoInvalidation.s</text>
</a>
</g>
</g>
<!-- Node1&#45;&gt;Node42 -->
<g id="edge42" class="edge">
<title>Node1&#45;&gt;Node42</title>
<path fill="none" stroke="midnightblue" d="M3133.41,-132.13C3426.48,-132.62 4799.13,-132.46 5246.76,-86.97"/>
<polygon fill="midnightblue" stroke="midnightblue" points="5247.25,-90.44 5256.84,-85.92 5246.53,-83.48 5247.25,-90.44"/>
</g>
<!-- Node43 -->
<g id="node43" class="node">
<title>Node43</title>
<g id="a_node43"><a xlink:title=" ">
<polygon fill="white" stroke="#bfbfbf" points="5407.5,-56.5 5407.5,-86.5 5514.5,-86.5 5514.5,-56.5 5407.5,-56.5"/>
<text text-anchor="start" x="5415.5" y="-74.5" font-family="Helvetica,sans-Serif" font-size="10.00">asm/dolphin/dvd/dvd</text>
<text text-anchor="middle" x="5461" y="-63.5" font-family="Helvetica,sans-Serif" font-size="10.00">/DVDResume.s</text>
</a>
</g>
</g>
<!-- Node1&#45;&gt;Node43 -->
<g id="edge43" class="edge">
<title>Node1&#45;&gt;Node43</title>
<path fill="none" stroke="midnightblue" d="M3133.18,-131.61C3458.63,-129.25 5122.35,-115.87 5396.92,-86.83"/>
<polygon fill="midnightblue" stroke="midnightblue" points="5397.64,-90.27 5407.17,-85.66 5396.84,-83.32 5397.64,-90.27"/>
</g>
<!-- Node44 -->
<g id="node44" class="node">
<title>Node44</title>
<g id="a_node44"><a xlink:title=" ">
<polygon fill="white" stroke="#bfbfbf" points="5532.5,-56.5 5532.5,-86.5 5639.5,-86.5 5639.5,-56.5 5532.5,-56.5"/>
<text text-anchor="start" x="5540.5" y="-74.5" font-family="Helvetica,sans-Serif" font-size="10.00">asm/dolphin/dvd/dvd</text>
<text text-anchor="middle" x="5586" y="-63.5" font-family="Helvetica,sans-Serif" font-size="10.00">/DVDCancelAsync.s</text>
</a>
</g>
</g>
<!-- Node1&#45;&gt;Node44 -->
<g id="edge44" class="edge">
<title>Node1&#45;&gt;Node44</title>
<path fill="none" stroke="midnightblue" d="M3133.11,-131.68C3469.04,-129.67 5235.93,-117.75 5522.42,-86.93"/>
<polygon fill="midnightblue" stroke="midnightblue" points="5522.83,-90.4 5532.36,-85.78 5522.02,-83.45 5522.83,-90.4"/>
</g>
<!-- Node45 -->
<g id="node45" class="node">
<title>Node45</title>
<g id="a_node45"><a xlink:title=" ">
<polygon fill="white" stroke="#bfbfbf" points="5657.5,-56.5 5657.5,-86.5 5764.5,-86.5 5764.5,-56.5 5657.5,-56.5"/>
<text text-anchor="start" x="5665.5" y="-74.5" font-family="Helvetica,sans-Serif" font-size="10.00">asm/dolphin/dvd/dvd</text>
<text text-anchor="middle" x="5711" y="-63.5" font-family="Helvetica,sans-Serif" font-size="10.00">/DVDCancel.s</text>
</a>
</g>
</g>
<!-- Node1&#45;&gt;Node45 -->
<g id="edge45" class="edge">
<title>Node1&#45;&gt;Node45</title>
<path fill="none" stroke="midnightblue" d="M3133.07,-131.74C3479.03,-130 5347.12,-119.24 5647.34,-86.94"/>
<polygon fill="midnightblue" stroke="midnightblue" points="5647.83,-90.41 5657.36,-85.78 5647.02,-83.45 5647.83,-90.41"/>
</g>
<!-- Node46 -->
<g id="node46" class="node">
<title>Node46</title>
<g id="a_node46"><a xlink:title=" ">
<polygon fill="white" stroke="#bfbfbf" points="5782.5,-56.5 5782.5,-86.5 5889.5,-86.5 5889.5,-56.5 5782.5,-56.5"/>
<text text-anchor="start" x="5790.5" y="-74.5" font-family="Helvetica,sans-Serif" font-size="10.00">asm/dolphin/dvd/dvd</text>
<text text-anchor="middle" x="5836" y="-63.5" font-family="Helvetica,sans-Serif" font-size="10.00">/cbForCancelSync.s</text>
</a>
</g>
</g>
<!-- Node1&#45;&gt;Node46 -->
<g id="edge46" class="edge">
<title>Node1&#45;&gt;Node46</title>
<path fill="none" stroke="midnightblue" d="M3133.11,-131.79C3489.09,-130.31 5458.51,-120.72 5772.31,-86.94"/>
<polygon fill="midnightblue" stroke="midnightblue" points="5772.83,-90.41 5782.36,-85.78 5772.02,-83.45 5772.83,-90.41"/>
</g>
<!-- Node47 -->
<g id="node47" class="node">
<title>Node47</title>
<g id="a_node47"><a xlink:title=" ">
<polygon fill="white" stroke="#bfbfbf" points="5908,-56.5 5908,-86.5 6032,-86.5 6032,-56.5 5908,-56.5"/>
<text text-anchor="start" x="5916" y="-74.5" font-family="Helvetica,sans-Serif" font-size="10.00">asm/dolphin/dvd/dvd</text>
<text text-anchor="middle" x="5970" y="-63.5" font-family="Helvetica,sans-Serif" font-size="10.00">/DVDGetCurrentDiskID.s</text>
</a>
</g>
</g>
<!-- Node1&#45;&gt;Node47 -->
<g id="edge47" class="edge">
<title>Node1&#45;&gt;Node47</title>
<path fill="none" stroke="midnightblue" d="M3133.25,-131.74C3499.28,-129.9 5569.67,-118.27 5897.7,-86.92"/>
<polygon fill="midnightblue" stroke="midnightblue" points="5898.17,-90.39 5907.76,-85.89 5897.46,-83.42 5898.17,-90.39"/>
</g>
<!-- Node48 -->
<g id="node48" class="node">
<title>Node48</title>
<g id="a_node48"><a xlink:title=" ">
<polygon fill="white" stroke="#bfbfbf" points="6050.5,-56.5 6050.5,-86.5 6157.5,-86.5 6157.5,-56.5 6050.5,-56.5"/>
<text text-anchor="start" x="6058.5" y="-74.5" font-family="Helvetica,sans-Serif" font-size="10.00">asm/dolphin/dvd/dvd</text>
<text text-anchor="middle" x="6104" y="-63.5" font-family="Helvetica,sans-Serif" font-size="10.00">/DVDCheckDisk.s</text>
</a>
</g>
</g>
<!-- Node1&#45;&gt;Node48 -->
<g id="edge48" class="edge">
<title>Node1&#45;&gt;Node48</title>
<path fill="none" stroke="midnightblue" d="M3133.27,-131.86C3510.13,-130.84 5696.72,-123.39 6040.1,-86.82"/>
<polygon fill="midnightblue" stroke="midnightblue" points="6040.64,-90.28 6050.18,-85.67 6039.84,-83.33 6040.64,-90.28"/>
</g>
<!-- Node49 -->
<g id="node49" class="node">
<title>Node49</title>
<g id="a_node49"><a xlink:title=" ">
<polygon fill="white" stroke="#bfbfbf" points="6176,-56.5 6176,-86.5 6320,-86.5 6320,-56.5 6176,-56.5"/>
<text text-anchor="start" x="6184" y="-74.5" font-family="Helvetica,sans-Serif" font-size="10.00">asm/dolphin/dvd/dvd</text>
<text text-anchor="middle" x="6248" y="-63.5" font-family="Helvetica,sans-Serif" font-size="10.00">/__DVDPrepareResetAsync.s</text>
</a>
</g>
</g>
<!-- Node1&#45;&gt;Node49 -->
<g id="edge49" class="edge">
<title>Node1&#45;&gt;Node49</title>
<path fill="none" stroke="midnightblue" d="M3133.08,-131.74C3518.69,-129.83 5808.66,-117.34 6165.66,-86.96"/>
<polygon fill="midnightblue" stroke="midnightblue" points="6166.01,-90.44 6175.66,-86.05 6165.38,-83.47 6166.01,-90.44"/>
</g>
<!-- Node50 -->
<g id="node50" class="node">
<title>Node50</title>
<g id="a_node50"><a xlink:title=" ">
<polygon fill="white" stroke="#bfbfbf" points="6338.5,-56.5 6338.5,-86.5 6445.5,-86.5 6445.5,-56.5 6338.5,-56.5"/>
<text text-anchor="start" x="6346.5" y="-74.5" font-family="Helvetica,sans-Serif" font-size="10.00">asm/dolphin/dvd/dvd</text>
<text text-anchor="middle" x="6392" y="-63.5" font-family="Helvetica,sans-Serif" font-size="10.00">/__DVDTestAlarm.s</text>
</a>
</g>
</g>
<!-- Node1&#45;&gt;Node50 -->
<g id="edge50" class="edge">
<title>Node1&#45;&gt;Node50</title>
<path fill="none" stroke="midnightblue" d="M3133.07,-131.94C3530.44,-131.44 5954.11,-126.81 6328.21,-86.81"/>
<polygon fill="midnightblue" stroke="midnightblue" points="6328.64,-90.29 6338.18,-85.68 6327.85,-83.33 6328.64,-90.29"/>
</g>
<!-- Node2&#45;&gt;Node3 -->
<g id="edge2" class="edge">
<title>Node2&#45;&gt;Node3</title>
<path fill="none" stroke="midnightblue" d="M51.3,-61.98C56.74,-53.23 65.36,-39.37 72.24,-28.31"/>
<polygon fill="midnightblue" stroke="midnightblue" points="75.4,-29.85 77.71,-19.51 69.46,-26.15 75.4,-29.85"/>
</g>
</g>
</svg>
        <g id="navigator" transform="translate(0 0)" fill="#404254">
                <rect fill="#f2f5e9" fill-opacity="0.5" stroke="#606060" stroke-width=".5" x="0" y="0" width="60" height="60"/>
                <use id="zoomplus" xlink:href="#zoomPlus" x="17" y="9" onmousedown="handleZoom(evt,'in')"/>
                <use id="zoomminus" xlink:href="#zoomMin" x="42" y="9" onmousedown="handleZoom(evt,'out')"/>
                <use id="reset" xlink:href="#resetDef" x="30" y="36" onmousedown="handleReset()"/>
                <g id="arrowUp" xlink:href="#dirArrow" transform="translate(30 24)" onmousedown="handlePan(0,-1)">
                  <use xlink:href="#rim" fill="#404040">
                        <set attributeName="fill" to="#808080" begin="arrowUp.mouseover" end="arrowUp.mouseout"/>
                  </use>
                  <path fill="none" stroke="white" stroke-width="1.5" d="M0,-3.0v7 M-2.5,-0.5L0,-3.0L2.5,-0.5"/>
                </g>
                <g id="arrowRight" xlink:href="#dirArrow" transform="rotate(90) translate(36 -43)" onmousedown="handlePan(1,0)">
                  <use xlink:href="#rim" fill="#404040">
                        <set attributeName="fill" to="#808080" begin="arrowRight.mouseover" end="arrowRight.mouseout"/>
                  </use>
                  <path fill="none" stroke="white" stroke-width="1.5" d="M0,-3.0v7 M-2.5,-0.5L0,-3.0L2.5,-0.5"/>
                </g>
                <g id="arrowDown" xlink:href="#dirArrow" transform="rotate(180) translate(-30 -48)" onmousedown="handlePan(0,1)">
                  <use xlink:href="#rim" fill="#404040">
                        <set attributeName="fill" to="#808080" begin="arrowDown.mouseover" end="arrowDown.mouseout"/>
                  </use>
                  <path fill="none" stroke="white" stroke-width="1.5" d="M0,-3.0v7 M-2.5,-0.5L0,-3.0L2.5,-0.5"/>
                </g>
                <g id="arrowLeft" xlink:href="#dirArrow" transform="rotate(270) translate(-36 17)" onmousedown="handlePan(-1,0)">
                  <use xlink:href="#rim" fill="#404040">
                        <set attributeName="fill" to="#808080" begin="arrowLeft.mouseover" end="arrowLeft.mouseout"/>
                  </use>
                  <path fill="none" stroke="white" stroke-width="1.5" d="M0,-3.0v7 M-2.5,-0.5L0,-3.0L2.5,-0.5"/>
                </g>
        </g>
        <svg viewBox="0 0 15 15" width="100%" height="30px" preserveAspectRatio="xMaxYMin meet">
         <g id="arrow_out" transform="scale(0.3 0.3)">
          <a xlink:href="dvd_8c__incl_org.svg" target="_base">
           <rect id="button" ry="5" rx="5" y="6" x="6" height="38" width="38"
                fill="#f2f5e9" fill-opacity="0.5" stroke="#606060" stroke-width="1.0"/>
           <path id="arrow"
             d="M 11.500037,31.436501 C 11.940474,20.09759 22.043105,11.32322 32.158766,21.979434 L 37.068811,17.246167 C 37.068811,17.246167 37.088388,32 37.088388,32 L 22.160133,31.978069 C 22.160133,31.978069 26.997745,27.140456 26.997745,27.140456 C 18.528582,18.264221 13.291696,25.230495 11.500037,31.436501 z"
             style="fill:#404040;"/>
          </a>
         </g>
        </svg>
</svg>
