<?xml version="1.0" encoding="UTF-8" standalone="no"?>
<!DOCTYPE svg PUBLIC "-//W3C//DTD SVG 1.1//EN"
 "http://www.w3.org/Graphics/SVG/1.1/DTD/svg11.dtd">
<!-- Generated by graphviz version 3.0.0 (20220413.0242)
 -->
<!-- Title: include/f_op/f_op_camera_mng.h Pages: 1 -->
<svg width="4964pt" height="251pt"
 viewBox="0.00 0.00 4964.33 251.00" xmlns="http://www.w3.org/2000/svg" xmlns:xlink="http://www.w3.org/1999/xlink">
<g id="graph0" class="graph" transform="scale(1 1) rotate(0) translate(4 247)">
<title>include/f_op/f_op_camera_mng.h</title>
<polygon fill="white" stroke="transparent" points="-4,4 -4,-247 4960.33,-247 4960.33,4 -4,4"/>
<!-- Node1 -->
<g id="node1" class="node">
<title>Node1</title>
<g id="a_node1"><a xlink:title=" ">
<polygon fill="#bfbfbf" stroke="black" points="2250.5,-212.5 2250.5,-242.5 2378.5,-242.5 2378.5,-212.5 2250.5,-212.5"/>
<text text-anchor="start" x="2258.5" y="-230.5" font-family="Helvetica,sans-Serif" font-size="10.00">include/f_op/f_op_camera</text>
<text text-anchor="middle" x="2314.5" y="-219.5" font-family="Helvetica,sans-Serif" font-size="10.00">_mng.h</text>
</a>
</g>
</g>
<!-- Node2 -->
<g id="node2" class="node">
<title>Node2</title>
<g id="a_node2"><a xlink:href="d__com__inf__game_8h.html" target="_top" xlink:title=" ">
<polygon fill="white" stroke="red" points="2118.5,-145.5 2118.5,-175.5 2228.5,-175.5 2228.5,-145.5 2118.5,-145.5"/>
<text text-anchor="start" x="2126.5" y="-163.5" font-family="Helvetica,sans-Serif" font-size="10.00">include/d/com/d_com</text>
<text text-anchor="middle" x="2173.5" y="-152.5" font-family="Helvetica,sans-Serif" font-size="10.00">_inf_game.h</text>
</a>
</g>
</g>
<!-- Node1&#45;&gt;Node2 -->
<g id="edge1" class="edge">
<title>Node1&#45;&gt;Node2</title>
<path fill="none" stroke="midnightblue" d="M2274.65,-208.13C2252.25,-197.8 2224.72,-185.11 2204.04,-175.58"/>
<polygon fill="midnightblue" stroke="midnightblue" points="2273.36,-211.39 2283.91,-212.4 2276.29,-205.03 2273.36,-211.39"/>
</g>
<!-- Node96 -->
<g id="node47" class="node">
<title>Node96</title>
<g id="a_node47"><a xlink:href="d__camera_8h.html" target="_top" xlink:title=" ">
<polygon fill="white" stroke="red" points="49,-151 49,-170 158,-170 158,-151 49,-151"/>
<text text-anchor="middle" x="103.5" y="-158" font-family="Helvetica,sans-Serif" font-size="10.00">include/d/d_camera.h</text>
</a>
</g>
</g>
<!-- Node1&#45;&gt;Node96 -->
<g id="edge56" class="edge">
<title>Node1&#45;&gt;Node96</title>
<path fill="none" stroke="midnightblue" d="M2240.31,-224.32C1895.98,-214.2 457.73,-171.91 158.27,-163.11"/>
<polygon fill="midnightblue" stroke="midnightblue" points="2240.32,-227.82 2250.42,-224.62 2240.52,-220.82 2240.32,-227.82"/>
</g>
<!-- Node98 -->
<g id="node48" class="node">
<title>Node98</title>
<g id="a_node48"><a xlink:href="f__op__camera_8h.html" target="_top" xlink:title=" ">
<polygon fill="white" stroke="red" points="2246.5,-151 2246.5,-170 2382.5,-170 2382.5,-151 2246.5,-151"/>
<text text-anchor="middle" x="2314.5" y="-158" font-family="Helvetica,sans-Serif" font-size="10.00">include/f_op/f_op_camera.h</text>
</a>
</g>
</g>
<!-- Node1&#45;&gt;Node98 -->
<g id="edge60" class="edge">
<title>Node1&#45;&gt;Node98</title>
<path fill="none" stroke="midnightblue" d="M2314.5,-202.25C2314.5,-191.02 2314.5,-178.38 2314.5,-170.19"/>
<polygon fill="midnightblue" stroke="midnightblue" points="2311,-202.4 2314.5,-212.4 2318,-202.4 2311,-202.4"/>
</g>
<!-- Node99 -->
<g id="node49" class="node">
<title>Node99</title>
<g id="a_node49"><a xlink:href="f__ap__game_8cpp.html" target="_top" xlink:title=" ">
<polygon fill="white" stroke="black" points="2401,-151 2401,-170 2522,-170 2522,-151 2401,-151"/>
<text text-anchor="middle" x="2461.5" y="-158" font-family="Helvetica,sans-Serif" font-size="10.00">src/f_ap/f_ap_game.cpp</text>
</a>
</g>
</g>
<!-- Node1&#45;&gt;Node99 -->
<g id="edge61" class="edge">
<title>Node1&#45;&gt;Node99</title>
<path fill="none" stroke="midnightblue" d="M2355.67,-208.3C2384.02,-195.76 2420.38,-179.68 2442.26,-170.01"/>
<polygon fill="midnightblue" stroke="midnightblue" points="2354.13,-205.15 2346.4,-212.4 2356.96,-211.55 2354.13,-205.15"/>
</g>
<!-- Node100 -->
<g id="node50" class="node">
<title>Node100</title>
<g id="a_node50"><a xlink:href="f__op__camera__mng_8cpp.html" target="_top" xlink:title=" ">
<polygon fill="white" stroke="black" points="2540,-145.5 2540,-175.5 2651,-175.5 2651,-145.5 2540,-145.5"/>
<text text-anchor="start" x="2548" y="-163.5" font-family="Helvetica,sans-Serif" font-size="10.00">src/f_op/f_op_camera</text>
<text text-anchor="middle" x="2595.5" y="-152.5" font-family="Helvetica,sans-Serif" font-size="10.00">_mng.cpp</text>
</a>
</g>
</g>
<!-- Node1&#45;&gt;Node100 -->
<g id="edge62" class="edge">
<title>Node1&#45;&gt;Node100</title>
<path fill="none" stroke="midnightblue" d="M2385.11,-210.17C2432.98,-199.09 2495.37,-184.66 2539.75,-174.39"/>
<polygon fill="midnightblue" stroke="midnightblue" points="2384.08,-206.81 2375.13,-212.48 2385.66,-213.63 2384.08,-206.81"/>
</g>
<!-- Node3 -->
<g id="node3" class="node">
<title>Node3</title>
<g id="a_node3"><a xlink:href="d__a__npc_8h.html" target="_top" xlink:title=" ">
<polygon fill="white" stroke="red" points="4689,-78.5 4689,-97.5 4800,-97.5 4800,-78.5 4689,-78.5"/>
<text text-anchor="middle" x="4744.5" y="-85.5" font-family="Helvetica,sans-Serif" font-size="10.00">include/d/a/d_a_npc.h</text>
</a>
</g>
</g>
<!-- Node2&#45;&gt;Node3 -->
<g id="edge2" class="edge">
<title>Node2&#45;&gt;Node3</title>
<path fill="none" stroke="midnightblue" d="M2238.65,-145.09C2793.06,-82.06 4146.69,-193.14 4679.5,-109 4694.08,-106.7 4709.92,-101.88 4722.31,-97.54"/>
<polygon fill="midnightblue" stroke="midnightblue" points="2238.06,-141.63 2228.53,-146.27 2238.87,-148.59 2238.06,-141.63"/>
</g>
<!-- Node9 -->
<g id="node4" class="node">
<title>Node9</title>
<g id="a_node4"><a xlink:href="d__cc__uty_8h.html" target="_top" xlink:title=" ">
<polygon fill="white" stroke="red" points="4818,-78.5 4818,-97.5 4937,-97.5 4937,-78.5 4818,-78.5"/>
<text text-anchor="middle" x="4877.5" y="-85.5" font-family="Helvetica,sans-Serif" font-size="10.00">include/d/cc/d_cc_uty.h</text>
</a>
</g>
</g>
<!-- Node2&#45;&gt;Node9 -->
<g id="edge3" class="edge">
<title>Node2&#45;&gt;Node9</title>
<path fill="none" stroke="midnightblue" d="M2238.75,-145.08C2821.95,-78.84 4247.62,-193.93 4809.5,-109 4824.71,-106.7 4841.28,-101.88 4854.25,-97.55"/>
<polygon fill="midnightblue" stroke="midnightblue" points="2238.06,-141.63 2228.53,-146.27 2238.87,-148.59 2238.06,-141.63"/>
</g>
<!-- Node11 -->
<g id="node5" class="node">
<title>Node11</title>
<g id="a_node5"><a xlink:href="d__item_8h.html" target="_top" xlink:title=" ">
<polygon fill="white" stroke="red" points="532,-78.5 532,-97.5 627,-97.5 627,-78.5 532,-78.5"/>
<text text-anchor="middle" x="579.5" y="-85.5" font-family="Helvetica,sans-Serif" font-size="10.00">include/d/d_item.h</text>
</a>
</g>
</g>
<!-- Node2&#45;&gt;Node11 -->
<g id="edge4" class="edge">
<title>Node2&#45;&gt;Node11</title>
<path fill="none" stroke="midnightblue" d="M2108.07,-159.77C1853.62,-160.43 929.82,-159.23 641.5,-109 627.68,-106.59 612.71,-101.83 600.93,-97.55"/>
<polygon fill="midnightblue" stroke="midnightblue" points="2108.27,-163.27 2118.26,-159.74 2108.25,-156.27 2108.27,-163.27"/>
</g>
<!-- Node12 -->
<g id="node6" class="node">
<title>Node12</title>
<g id="a_node6"><a xlink:href="d__a__alink_8cpp.html" target="_top" xlink:title=" ">
<polygon fill="white" stroke="black" points="525,-6 525,-25 634,-25 634,-6 525,-6"/>
<text text-anchor="middle" x="579.5" y="-13" font-family="Helvetica,sans-Serif" font-size="10.00">src/d/a/d_a_alink.cpp</text>
</a>
</g>
</g>
<!-- Node2&#45;&gt;Node12 -->
<g id="edge29" class="edge">
<title>Node2&#45;&gt;Node12</title>
<path fill="none" stroke="midnightblue" d="M2107.8,-158.73C1804.18,-155.01 550.57,-137.94 522.5,-109 509.5,-95.6 514.84,-84.02 522.5,-67 530.91,-48.31 550.03,-33.74 563.81,-25.15"/>
<polygon fill="midnightblue" stroke="midnightblue" points="2108.15,-162.23 2118.19,-158.86 2108.24,-155.23 2108.15,-162.23"/>
</g>
<!-- Node13 -->
<g id="node7" class="node">
<title>Node13</title>
<g id="a_node7"><a xlink:href="d__a__obj__item_8cpp.html" target="_top" xlink:title=" ">
<polygon fill="white" stroke="black" points="652,-6 652,-25 777,-25 777,-6 652,-6"/>
<text text-anchor="middle" x="714.5" y="-13" font-family="Helvetica,sans-Serif" font-size="10.00">src/d/a/d_a_obj_item.cpp</text>
</a>
</g>
</g>
<!-- Node2&#45;&gt;Node13 -->
<g id="edge31" class="edge">
<title>Node2&#45;&gt;Node13</title>
<path fill="none" stroke="midnightblue" d="M2108.16,-159.8C1826.12,-160.77 724.98,-161.21 674.5,-109 650.54,-84.22 687.14,-42.8 705.29,-25.03"/>
<polygon fill="midnightblue" stroke="midnightblue" points="2108.25,-163.3 2118.24,-159.76 2108.22,-156.3 2108.25,-163.3"/>
</g>
<!-- Node14 -->
<g id="node8" class="node">
<title>Node14</title>
<g id="a_node8"><a xlink:href="d__com__inf__game_8cpp.html" target="_top" xlink:title=" ">
<polygon fill="white" stroke="black" points="897.5,-0.5 897.5,-30.5 1005.5,-30.5 1005.5,-0.5 897.5,-0.5"/>
<text text-anchor="start" x="905.5" y="-18.5" font-family="Helvetica,sans-Serif" font-size="10.00">src/d/com/d_com_inf</text>
<text text-anchor="middle" x="951.5" y="-7.5" font-family="Helvetica,sans-Serif" font-size="10.00">_game.cpp</text>
</a>
</g>
</g>
<!-- Node2&#45;&gt;Node14 -->
<g id="edge37" class="edge">
<title>Node2&#45;&gt;Node14</title>
<path fill="none" stroke="midnightblue" d="M2107.96,-159.37C1885.26,-158.53 1166.22,-152.45 1072.5,-109 1049.39,-98.29 1053.19,-83.16 1033.5,-67 1016.31,-52.89 994.85,-39.81 978.19,-30.5"/>
<polygon fill="midnightblue" stroke="midnightblue" points="2108.18,-162.87 2118.19,-159.41 2108.2,-155.87 2108.18,-162.87"/>
</g>
<!-- Node17 -->
<g id="node9" class="node">
<title>Node17</title>
<g id="a_node9"><a xlink:href="d__kantera__icon__meter_8h.html" target="_top" xlink:title=" ">
<polygon fill="white" stroke="red" points="684,-73 684,-103 785,-103 785,-73 684,-73"/>
<text text-anchor="start" x="692" y="-91" font-family="Helvetica,sans-Serif" font-size="10.00">include/d/d_kantera</text>
<text text-anchor="middle" x="734.5" y="-80" font-family="Helvetica,sans-Serif" font-size="10.00">_icon_meter.h</text>
</a>
</g>
</g>
<!-- Node2&#45;&gt;Node17 -->
<g id="edge8" class="edge">
<title>Node2&#45;&gt;Node17</title>
<path fill="none" stroke="midnightblue" d="M2107.92,-159.61C1869.66,-159.64 1050.38,-156.2 793.5,-109 785.95,-107.61 778.05,-105.46 770.57,-103.06"/>
<polygon fill="midnightblue" stroke="midnightblue" points="2108.16,-163.11 2118.16,-159.61 2108.16,-156.11 2108.16,-163.11"/>
</g>
<!-- Node20 -->
<g id="node10" class="node">
<title>Node20</title>
<g id="a_node10"><a xlink:href="d__model_8h.html" target="_top" xlink:title=" ">
<polygon fill="white" stroke="red" points="803,-78.5 803,-97.5 906,-97.5 906,-78.5 803,-78.5"/>
<text text-anchor="middle" x="854.5" y="-85.5" font-family="Helvetica,sans-Serif" font-size="10.00">include/d/d_model.h</text>
</a>
</g>
</g>
<!-- Node2&#45;&gt;Node20 -->
<g id="edge9" class="edge">
<title>Node2&#45;&gt;Node20</title>
<path fill="none" stroke="midnightblue" d="M2108.13,-159.3C1883.9,-158.24 1146.97,-151.52 914.5,-109 901.11,-106.55 886.61,-101.78 875.22,-97.51"/>
<polygon fill="midnightblue" stroke="midnightblue" points="2108.4,-162.8 2118.42,-159.35 2108.44,-155.8 2108.4,-162.8"/>
</g>
<!-- Node22 -->
<g id="node11" class="node">
<title>Node22</title>
<g id="a_node11"><a xlink:href="d__name_8h.html" target="_top" xlink:title=" ">
<polygon fill="white" stroke="red" points="924,-78.5 924,-97.5 1025,-97.5 1025,-78.5 924,-78.5"/>
<text text-anchor="middle" x="974.5" y="-85.5" font-family="Helvetica,sans-Serif" font-size="10.00">include/d/d_name.h</text>
</a>
</g>
</g>
<!-- Node2&#45;&gt;Node22 -->
<g id="edge10" class="edge">
<title>Node2&#45;&gt;Node22</title>
<path fill="none" stroke="midnightblue" d="M2108.04,-158.77C1898.68,-156.07 1247.04,-144.95 1039.5,-109 1025.19,-106.52 1009.63,-101.81 997.32,-97.58"/>
<polygon fill="midnightblue" stroke="midnightblue" points="2108.21,-162.27 2118.26,-158.89 2108.3,-155.27 2108.21,-162.27"/>
</g>
<!-- Node24 -->
<g id="node12" class="node">
<title>Node24</title>
<g id="a_node12"><a xlink:href="d__file__sel__info_8h.html" target="_top" xlink:title=" ">
<polygon fill="white" stroke="red" points="1081.5,-73 1081.5,-103 1177.5,-103 1177.5,-73 1081.5,-73"/>
<text text-anchor="start" x="1089.5" y="-91" font-family="Helvetica,sans-Serif" font-size="10.00">include/d/file/d_file</text>
<text text-anchor="middle" x="1129.5" y="-80" font-family="Helvetica,sans-Serif" font-size="10.00">_sel_info.h</text>
</a>
</g>
</g>
<!-- Node2&#45;&gt;Node24 -->
<g id="edge11" class="edge">
<title>Node2&#45;&gt;Node24</title>
<path fill="none" stroke="midnightblue" d="M2108.18,-158.59C1917.47,-155.55 1363.79,-143.89 1186.5,-109 1179.3,-107.58 1171.77,-105.45 1164.64,-103.09"/>
<polygon fill="midnightblue" stroke="midnightblue" points="2108.28,-162.09 2118.33,-158.75 2108.39,-155.09 2108.28,-162.09"/>
</g>
<!-- Node26 -->
<g id="node13" class="node">
<title>Node26</title>
<g id="a_node13"><a xlink:href="d__menu__save_8cpp.html" target="_top" xlink:title=" ">
<polygon fill="white" stroke="black" points="1170,-6 1170,-25 1317,-25 1317,-6 1170,-6"/>
<text text-anchor="middle" x="1243.5" y="-13" font-family="Helvetica,sans-Serif" font-size="10.00">src/d/menu/d_menu_save.cpp</text>
</a>
</g>
</g>
<!-- Node2&#45;&gt;Node26 -->
<g id="edge55" class="edge">
<title>Node2&#45;&gt;Node26</title>
<path fill="none" stroke="midnightblue" d="M2238.76,-145.6C2434.31,-137.36 4894.9,-161.29 4946.5,-109 4959.61,-95.71 4959.61,-80.29 4946.5,-67 4913.42,-33.47 1835.45,-19 1317.18,-16.8"/>
<polygon fill="midnightblue" stroke="midnightblue" points="2238.28,-142.12 2228.53,-146.26 2238.74,-149.11 2238.28,-142.12"/>
</g>
<!-- Node27 -->
<g id="node14" class="node">
<title>Node27</title>
<g id="a_node14"><a xlink:href="d__file__sel__warning_8h.html" target="_top" xlink:title=" ">
<polygon fill="white" stroke="red" points="1195.5,-73 1195.5,-103 1291.5,-103 1291.5,-73 1195.5,-73"/>
<text text-anchor="start" x="1203.5" y="-91" font-family="Helvetica,sans-Serif" font-size="10.00">include/d/file/d_file</text>
<text text-anchor="middle" x="1243.5" y="-80" font-family="Helvetica,sans-Serif" font-size="10.00">_sel_warning.h</text>
</a>
</g>
</g>
<!-- Node2&#45;&gt;Node27 -->
<g id="edge13" class="edge">
<title>Node2&#45;&gt;Node27</title>
<path fill="none" stroke="midnightblue" d="M2108.29,-158.09C1933.09,-153.91 1455.03,-139.94 1300.5,-109 1293.3,-107.56 1285.78,-105.41 1278.65,-103.05"/>
<polygon fill="midnightblue" stroke="midnightblue" points="2108.31,-161.59 2118.39,-158.32 2108.48,-154.59 2108.31,-161.59"/>
</g>
<!-- Node29 -->
<g id="node15" class="node">
<title>Node29</title>
<g id="a_node15"><a xlink:href="d__meter2_8h.html" target="_top" xlink:title=" ">
<polygon fill="white" stroke="red" points="1309.5,-78.5 1309.5,-97.5 1443.5,-97.5 1443.5,-78.5 1309.5,-78.5"/>
<text text-anchor="middle" x="1376.5" y="-85.5" font-family="Helvetica,sans-Serif" font-size="10.00">include/d/meter/d_meter2.h</text>
</a>
</g>
</g>
<!-- Node2&#45;&gt;Node29 -->
<g id="edge15" class="edge">
<title>Node2&#45;&gt;Node29</title>
<path fill="none" stroke="midnightblue" d="M2108.13,-158.93C1981.14,-156.94 1692.56,-148.09 1453.5,-109 1437.01,-106.3 1418.9,-101.69 1404.4,-97.57"/>
<polygon fill="midnightblue" stroke="midnightblue" points="2108.41,-162.43 2118.46,-159.08 2108.51,-155.44 2108.41,-162.43"/>
</g>
<!-- Node37 -->
<g id="node16" class="node">
<title>Node37</title>
<g id="a_node16"><a xlink:href="d__msg__object_8h.html" target="_top" xlink:title=" ">
<polygon fill="white" stroke="red" points="289.5,-73 289.5,-103 399.5,-103 399.5,-73 289.5,-73"/>
<text text-anchor="start" x="297.5" y="-91" font-family="Helvetica,sans-Serif" font-size="10.00">include/d/msg/d_msg</text>
<text text-anchor="middle" x="344.5" y="-80" font-family="Helvetica,sans-Serif" font-size="10.00">_object.h</text>
</a>
</g>
</g>
<!-- Node2&#45;&gt;Node37 -->
<g id="edge16" class="edge">
<title>Node2&#45;&gt;Node37</title>
<path fill="none" stroke="midnightblue" d="M2107.82,-159.84C1829.88,-160.92 749.31,-161.61 413.5,-109 404.75,-107.63 395.55,-105.48 386.82,-103.09"/>
<polygon fill="midnightblue" stroke="midnightblue" points="2108.16,-163.34 2118.14,-159.8 2108.13,-156.34 2108.16,-163.34"/>
</g>
<!-- Node42 -->
<g id="node17" class="node">
<title>Node42</title>
<g id="a_node17"><a xlink:href="d__demo_8cpp.html" target="_top" xlink:title=" ">
<polygon fill="white" stroke="black" points="412.5,-6 412.5,-25 506.5,-25 506.5,-6 412.5,-6"/>
<text text-anchor="middle" x="459.5" y="-13" font-family="Helvetica,sans-Serif" font-size="10.00">src/d/d_demo.cpp</text>
</a>
</g>
</g>
<!-- Node2&#45;&gt;Node42 -->
<g id="edge39" class="edge">
<title>Node2&#45;&gt;Node42</title>
<path fill="none" stroke="midnightblue" d="M2108.19,-159.3C1809.01,-158.18 580.86,-151 511.5,-109 479.98,-89.91 465.97,-44.19 461.35,-25.1"/>
<polygon fill="midnightblue" stroke="midnightblue" points="2108.43,-162.8 2118.44,-159.34 2108.45,-155.8 2108.43,-162.8"/>
</g>
<!-- Node43 -->
<g id="node18" class="node">
<title>Node43</title>
<g id="a_node18"><a xlink:href="d__event_8cpp.html" target="_top" xlink:title=" ">
<polygon fill="white" stroke="black" points="0,-6 0,-25 121,-25 121,-6 0,-6"/>
<text text-anchor="middle" x="60.5" y="-13" font-family="Helvetica,sans-Serif" font-size="10.00">src/d/event/d_event.cpp</text>
</a>
</g>
</g>
<!-- Node2&#45;&gt;Node43 -->
<g id="edge47" class="edge">
<title>Node2&#45;&gt;Node43</title>
<path fill="none" stroke="midnightblue" d="M2108.04,-159.33C1779.55,-158.27 323.08,-151.2 237.5,-109 215.96,-98.38 223.12,-80.85 203.5,-67 173.28,-45.66 133.16,-32.53 103.11,-25.03"/>
<polygon fill="midnightblue" stroke="midnightblue" points="2108.33,-162.83 2118.34,-159.36 2108.35,-155.83 2108.33,-162.83"/>
</g>
<!-- Node44 -->
<g id="node19" class="node">
<title>Node44</title>
<g id="a_node19"><a xlink:href="d__event__data_8cpp.html" target="_top" xlink:title=" ">
<polygon fill="white" stroke="black" points="139,-0.5 139,-30.5 242,-30.5 242,-0.5 139,-0.5"/>
<text text-anchor="start" x="147" y="-18.5" font-family="Helvetica,sans-Serif" font-size="10.00">src/d/event/d_event</text>
<text text-anchor="middle" x="190.5" y="-7.5" font-family="Helvetica,sans-Serif" font-size="10.00">_data.cpp</text>
</a>
</g>
</g>
<!-- Node2&#45;&gt;Node44 -->
<g id="edge48" class="edge">
<title>Node2&#45;&gt;Node44</title>
<path fill="none" stroke="midnightblue" d="M2107.98,-159.13C1784.06,-157.16 365.82,-146.38 280.5,-109 275.57,-106.84 227.41,-55.89 203.64,-30.55"/>
<polygon fill="midnightblue" stroke="midnightblue" points="2108.12,-162.64 2118.14,-159.2 2108.17,-155.64 2108.12,-162.64"/>
</g>
<!-- Node45 -->
<g id="node20" class="node">
<title>Node45</title>
<g id="a_node20"><a xlink:href="d__kankyo_8cpp.html" target="_top" xlink:title=" ">
<polygon fill="white" stroke="black" points="260.5,-6 260.5,-25 394.5,-25 394.5,-6 260.5,-6"/>
<text text-anchor="middle" x="327.5" y="-13" font-family="Helvetica,sans-Serif" font-size="10.00">src/d/kankyo/d_kankyo.cpp</text>
</a>
</g>
</g>
<!-- Node2&#45;&gt;Node45 -->
<g id="edge51" class="edge">
<title>Node2&#45;&gt;Node45</title>
<path fill="none" stroke="midnightblue" d="M2108.22,-159.63C1815.51,-159.95 631.45,-158.15 473.5,-109 440.66,-98.78 437.54,-85.43 408.5,-67 384.99,-52.08 357.46,-34.99 341.3,-25.01"/>
<polygon fill="midnightblue" stroke="midnightblue" points="2108.26,-163.13 2118.25,-159.62 2108.25,-156.13 2108.26,-163.13"/>
</g>
<!-- Node51 -->
<g id="node21" class="node">
<title>Node51</title>
<g id="a_node21"><a xlink:href="d__s__logo_8h.html" target="_top" xlink:title=" ">
<polygon fill="white" stroke="red" points="1462,-78.5 1462,-97.5 1575,-97.5 1575,-78.5 1462,-78.5"/>
<text text-anchor="middle" x="1518.5" y="-85.5" font-family="Helvetica,sans-Serif" font-size="10.00">include/d/s/d_s_logo.h</text>
</a>
</g>
</g>
<!-- Node2&#45;&gt;Node51 -->
<g id="edge22" class="edge">
<title>Node2&#45;&gt;Node51</title>
<path fill="none" stroke="midnightblue" d="M2107.94,-158.33C1998.54,-155.39 1772.21,-145.08 1584.5,-109 1570.27,-106.27 1554.75,-101.65 1542.34,-97.54"/>
<polygon fill="midnightblue" stroke="midnightblue" points="2108.08,-161.84 2118.16,-158.59 2108.26,-154.84 2108.08,-161.84"/>
</g>
<!-- Node53 -->
<g id="node22" class="node">
<title>Node53</title>
<g id="a_node22"><a xlink:href="d__s__play_8h.html" target="_top" xlink:title=" ">
<polygon fill="white" stroke="red" points="1593,-78.5 1593,-97.5 1706,-97.5 1706,-78.5 1593,-78.5"/>
<text text-anchor="middle" x="1649.5" y="-85.5" font-family="Helvetica,sans-Serif" font-size="10.00">include/d/s/d_s_play.h</text>
</a>
</g>
</g>
<!-- Node2&#45;&gt;Node53 -->
<g id="edge23" class="edge">
<title>Node2&#45;&gt;Node53</title>
<path fill="none" stroke="midnightblue" d="M2108.37,-156.11C2019.02,-150.59 1853.78,-137.32 1715.5,-109 1701.54,-106.14 1686.3,-101.62 1673.98,-97.6"/>
<polygon fill="midnightblue" stroke="midnightblue" points="2108.16,-159.6 2118.35,-156.71 2108.58,-152.61 2108.16,-159.6"/>
</g>
<!-- Node57 -->
<g id="node23" class="node">
<title>Node57</title>
<g id="a_node23"><a xlink:href="d__msg__scrn__base_8h.html" target="_top" xlink:title=" ">
<polygon fill="white" stroke="red" points="1724,-73 1724,-103 1823,-103 1823,-73 1724,-73"/>
<text text-anchor="start" x="1732" y="-91" font-family="Helvetica,sans-Serif" font-size="10.00">include/msg/scrn/d</text>
<text text-anchor="middle" x="1773.5" y="-80" font-family="Helvetica,sans-Serif" font-size="10.00">_msg_scrn_base.h</text>
</a>
</g>
</g>
<!-- Node2&#45;&gt;Node57 -->
<g id="edge24" class="edge">
<title>Node2&#45;&gt;Node57</title>
<path fill="none" stroke="midnightblue" d="M2107.98,-153.33C2038.83,-146.01 1926.98,-131.81 1832.5,-109 1825.67,-107.35 1818.5,-105.25 1811.61,-103.03"/>
<polygon fill="midnightblue" stroke="midnightblue" points="2107.98,-156.85 2118.29,-154.41 2108.7,-149.89 2107.98,-156.85"/>
</g>
<!-- Node61 -->
<g id="node24" class="node">
<title>Node61</title>
<g id="a_node24"><a xlink:href="d__a__b__zant_8h.html" target="_top" xlink:title=" ">
<polygon fill="white" stroke="black" points="1841,-73 1841,-103 1962,-103 1962,-73 1841,-73"/>
<text text-anchor="start" x="1849" y="-91" font-family="Helvetica,sans-Serif" font-size="10.00">include/rel/d/a/b/d</text>
<text text-anchor="middle" x="1901.5" y="-80" font-family="Helvetica,sans-Serif" font-size="10.00">_a_b_zant/d_a_b_zant.h</text>
</a>
</g>
</g>
<!-- Node2&#45;&gt;Node61 -->
<g id="edge25" class="edge">
<title>Node2&#45;&gt;Node61</title>
<path fill="none" stroke="midnightblue" d="M2108.26,-143.78C2068.63,-134.08 2017.05,-121.2 1971.5,-109 1964.54,-107.14 1957.21,-105.11 1950.02,-103.09"/>
<polygon fill="midnightblue" stroke="midnightblue" points="2107.53,-147.2 2118.07,-146.17 2109.19,-140.4 2107.53,-147.2"/>
</g>
<!-- Node62 -->
<g id="node25" class="node">
<title>Node62</title>
<g id="a_node25"><a xlink:href="d__a__spinner_8h.html" target="_top" xlink:title=" ">
<polygon fill="white" stroke="black" points="1980.5,-73 1980.5,-103 2096.5,-103 2096.5,-73 1980.5,-73"/>
<text text-anchor="start" x="1988.5" y="-91" font-family="Helvetica,sans-Serif" font-size="10.00">include/rel/d/a/d_a</text>
<text text-anchor="middle" x="2038.5" y="-80" font-family="Helvetica,sans-Serif" font-size="10.00">_spinner/d_a_spinner.h</text>
</a>
</g>
</g>
<!-- Node2&#45;&gt;Node62 -->
<g id="edge26" class="edge">
<title>Node2&#45;&gt;Node62</title>
<path fill="none" stroke="midnightblue" d="M2137.53,-140.72C2114.88,-128.89 2086.13,-113.87 2065.45,-103.07"/>
<polygon fill="midnightblue" stroke="midnightblue" points="2136.02,-143.88 2146.51,-145.4 2139.26,-137.67 2136.02,-143.88"/>
</g>
<!-- Node63 -->
<g id="node26" class="node">
<title>Node63</title>
<g id="a_node26"><a xlink:href="d__a__tag__telop_8h.html" target="_top" xlink:title=" ">
<polygon fill="white" stroke="black" points="2114.5,-67.5 2114.5,-108.5 2232.5,-108.5 2232.5,-67.5 2114.5,-67.5"/>
<text text-anchor="start" x="2122.5" y="-96.5" font-family="Helvetica,sans-Serif" font-size="10.00">include/rel/d/a/tag</text>
<text text-anchor="start" x="2122.5" y="-85.5" font-family="Helvetica,sans-Serif" font-size="10.00">/d_a_tag_telop/d_a_tag</text>
<text text-anchor="middle" x="2173.5" y="-74.5" font-family="Helvetica,sans-Serif" font-size="10.00">_telop.h</text>
</a>
</g>
</g>
<!-- Node2&#45;&gt;Node63 -->
<g id="edge27" class="edge">
<title>Node2&#45;&gt;Node63</title>
<path fill="none" stroke="midnightblue" d="M2173.5,-134.98C2173.5,-126.35 2173.5,-116.76 2173.5,-108.59"/>
<polygon fill="midnightblue" stroke="midnightblue" points="2170,-135.23 2173.5,-145.23 2177,-135.23 2170,-135.23"/>
</g>
<!-- Node64 -->
<g id="node27" class="node">
<title>Node64</title>
<g id="a_node27"><a xlink:href="c__dylink_8cpp.html" target="_top" xlink:title=" ">
<polygon fill="white" stroke="black" points="2251,-78.5 2251,-97.5 2346,-97.5 2346,-78.5 2251,-78.5"/>
<text text-anchor="middle" x="2298.5" y="-85.5" font-family="Helvetica,sans-Serif" font-size="10.00">src/c/c_dylink.cpp</text>
</a>
</g>
</g>
<!-- Node2&#45;&gt;Node64 -->
<g id="edge28" class="edge">
<title>Node2&#45;&gt;Node64</title>
<path fill="none" stroke="midnightblue" d="M2207.25,-140.47C2232.06,-126.47 2264.6,-108.12 2283.37,-97.53"/>
<polygon fill="midnightblue" stroke="midnightblue" points="2205.49,-137.44 2198.5,-145.4 2208.92,-143.54 2205.49,-137.44"/>
</g>
<!-- Node65 -->
<g id="node28" class="node">
<title>Node65</title>
<g id="a_node28"><a xlink:href="d__a__itembase_8cpp.html" target="_top" xlink:title=" ">
<polygon fill="white" stroke="black" points="2364.5,-78.5 2364.5,-97.5 2492.5,-97.5 2492.5,-78.5 2364.5,-78.5"/>
<text text-anchor="middle" x="2428.5" y="-85.5" font-family="Helvetica,sans-Serif" font-size="10.00">src/d/a/d_a_itembase.cpp</text>
</a>
</g>
</g>
<!-- Node2&#45;&gt;Node65 -->
<g id="edge30" class="edge">
<title>Node2&#45;&gt;Node65</title>
<path fill="none" stroke="midnightblue" d="M2233.86,-142.81C2285.28,-128.6 2357.08,-108.75 2397.56,-97.55"/>
<polygon fill="midnightblue" stroke="midnightblue" points="2232.89,-139.45 2224.18,-145.49 2234.76,-146.2 2232.89,-139.45"/>
</g>
<!-- Node66 -->
<g id="node29" class="node">
<title>Node66</title>
<g id="a_node29"><a xlink:href="d__a__player_8cpp.html" target="_top" xlink:title=" ">
<polygon fill="white" stroke="black" points="2510.5,-78.5 2510.5,-97.5 2624.5,-97.5 2624.5,-78.5 2510.5,-78.5"/>
<text text-anchor="middle" x="2567.5" y="-85.5" font-family="Helvetica,sans-Serif" font-size="10.00">src/d/a/d_a_player.cpp</text>
</a>
</g>
</g>
<!-- Node2&#45;&gt;Node66 -->
<g id="edge32" class="edge">
<title>Node2&#45;&gt;Node66</title>
<path fill="none" stroke="midnightblue" d="M2238.68,-144.9C2355.82,-124.44 2388.97,-133.56 2501.5,-109 2515.3,-105.99 2530.4,-101.5 2542.67,-97.54"/>
<polygon fill="midnightblue" stroke="midnightblue" points="2237.83,-141.5 2228.6,-146.7 2239.05,-148.39 2237.83,-141.5"/>
</g>
<!-- Node67 -->
<g id="node30" class="node">
<title>Node67</title>
<g id="a_node30"><a xlink:href="d__bg__s_8cpp.html" target="_top" xlink:title=" ">
<polygon fill="white" stroke="black" points="2642.5,-78.5 2642.5,-97.5 2746.5,-97.5 2746.5,-78.5 2642.5,-78.5"/>
<text text-anchor="middle" x="2694.5" y="-85.5" font-family="Helvetica,sans-Serif" font-size="10.00">src/d/bg/d_bg_s.cpp</text>
</a>
</g>
</g>
<!-- Node2&#45;&gt;Node67 -->
<g id="edge33" class="edge">
<title>Node2&#45;&gt;Node67</title>
<path fill="none" stroke="midnightblue" d="M2238.64,-144.97C2413.9,-118.41 2463.64,-144.09 2633.5,-109 2646.71,-106.27 2661.06,-101.65 2672.52,-97.54"/>
<polygon fill="midnightblue" stroke="midnightblue" points="2237.91,-141.55 2228.57,-146.54 2238.99,-148.46 2237.91,-141.55"/>
</g>
<!-- Node68 -->
<g id="node31" class="node">
<title>Node68</title>
<g id="a_node31"><a xlink:href="d__bg__s__movebg__actor_8cpp.html" target="_top" xlink:title=" ">
<polygon fill="white" stroke="black" points="2764.5,-73 2764.5,-103 2890.5,-103 2890.5,-73 2764.5,-73"/>
<text text-anchor="start" x="2772.5" y="-91" font-family="Helvetica,sans-Serif" font-size="10.00">src/d/bg/d_bg_s_movebg</text>
<text text-anchor="middle" x="2827.5" y="-80" font-family="Helvetica,sans-Serif" font-size="10.00">_actor.cpp</text>
</a>
</g>
</g>
<!-- Node2&#45;&gt;Node68 -->
<g id="edge34" class="edge">
<title>Node2&#45;&gt;Node68</title>
<path fill="none" stroke="midnightblue" d="M2238.53,-145.02C2467.61,-112.43 2531.28,-147.53 2755.5,-109 2764.19,-107.51 2773.35,-105.39 2782.11,-103.1"/>
<polygon fill="midnightblue" stroke="midnightblue" points="2237.95,-141.56 2228.56,-146.46 2238.96,-148.49 2237.95,-141.56"/>
</g>
<!-- Node69 -->
<g id="node32" class="node">
<title>Node69</title>
<g id="a_node32"><a xlink:href="d__bg__w_8cpp.html" target="_top" xlink:title=" ">
<polygon fill="white" stroke="black" points="2909,-78.5 2909,-97.5 3016,-97.5 3016,-78.5 2909,-78.5"/>
<text text-anchor="middle" x="2962.5" y="-85.5" font-family="Helvetica,sans-Serif" font-size="10.00">src/d/bg/d_bg_w.cpp</text>
</a>
</g>
</g>
<!-- Node2&#45;&gt;Node69 -->
<g id="edge35" class="edge">
<title>Node2&#45;&gt;Node69</title>
<path fill="none" stroke="midnightblue" d="M2238.6,-145.03C2531.16,-105.58 2612.9,-161.41 2899.5,-109 2913.38,-106.46 2928.47,-101.74 2940.4,-97.53"/>
<polygon fill="midnightblue" stroke="midnightblue" points="2237.98,-141.58 2228.55,-146.41 2238.93,-148.51 2237.98,-141.58"/>
</g>
<!-- Node70 -->
<g id="node33" class="node">
<title>Node70</title>
<g id="a_node33"><a xlink:href="d__cc__s_8cpp.html" target="_top" xlink:title=" ">
<polygon fill="white" stroke="black" points="3034.5,-78.5 3034.5,-97.5 3138.5,-97.5 3138.5,-78.5 3034.5,-78.5"/>
<text text-anchor="middle" x="3086.5" y="-85.5" font-family="Helvetica,sans-Serif" font-size="10.00">src/d/cc/d_cc_s.cpp</text>
</a>
</g>
</g>
<!-- Node2&#45;&gt;Node70 -->
<g id="edge36" class="edge">
<title>Node2&#45;&gt;Node70</title>
<path fill="none" stroke="midnightblue" d="M2238.65,-145.03C2586.78,-99.48 2683.94,-171.59 3025.5,-109 3038.98,-106.53 3053.59,-101.82 3065.13,-97.58"/>
<polygon fill="midnightblue" stroke="midnightblue" points="2238,-141.59 2228.55,-146.38 2238.92,-148.53 2238,-141.59"/>
</g>
<!-- Node71 -->
<g id="node34" class="node">
<title>Node71</title>
<g id="a_node34"><a xlink:href="d__com__static_8cpp.html" target="_top" xlink:title=" ">
<polygon fill="white" stroke="black" points="3156.5,-78.5 3156.5,-97.5 3296.5,-97.5 3296.5,-78.5 3156.5,-78.5"/>
<text text-anchor="middle" x="3226.5" y="-85.5" font-family="Helvetica,sans-Serif" font-size="10.00">src/d/com/d_com_static.cpp</text>
</a>
</g>
</g>
<!-- Node2&#45;&gt;Node71 -->
<g id="edge38" class="edge">
<title>Node2&#45;&gt;Node71</title>
<path fill="none" stroke="midnightblue" d="M2238.7,-145.03C2640.6,-93.29 2750.24,-166.5 3147.5,-109 3164.72,-106.51 3183.63,-101.79 3198.63,-97.57"/>
<polygon fill="midnightblue" stroke="midnightblue" points="2238.01,-141.59 2228.54,-146.36 2238.91,-148.53 2238.01,-141.59"/>
</g>
<!-- Node72 -->
<g id="node35" class="node">
<title>Node72</title>
<g id="a_node35"><a xlink:href="d__eye__hl_8cpp.html" target="_top" xlink:title=" ">
<polygon fill="white" stroke="black" points="3314.5,-78.5 3314.5,-97.5 3412.5,-97.5 3412.5,-78.5 3314.5,-78.5"/>
<text text-anchor="middle" x="3363.5" y="-85.5" font-family="Helvetica,sans-Serif" font-size="10.00">src/d/d_eye_hl.cpp</text>
</a>
</g>
</g>
<!-- Node2&#45;&gt;Node72 -->
<g id="edge40" class="edge">
<title>Node2&#45;&gt;Node72</title>
<path fill="none" stroke="midnightblue" d="M2238.68,-145.04C2710.39,-85.82 2841.79,-194.76 3305.5,-109 3318.49,-106.6 3332.5,-101.83 3343.5,-97.55"/>
<polygon fill="midnightblue" stroke="midnightblue" points="2238.02,-141.6 2228.54,-146.34 2238.9,-148.54 2238.02,-141.6"/>
</g>
<!-- Node73 -->
<g id="node36" class="node">
<title>Node73</title>
<g id="a_node36"><a xlink:href="d__kyeff_8cpp.html" target="_top" xlink:title=" ">
<polygon fill="white" stroke="black" points="3430.5,-78.5 3430.5,-97.5 3520.5,-97.5 3520.5,-78.5 3430.5,-78.5"/>
<text text-anchor="middle" x="3475.5" y="-85.5" font-family="Helvetica,sans-Serif" font-size="10.00">src/d/d_kyeff.cpp</text>
</a>
</g>
</g>
<!-- Node2&#45;&gt;Node73 -->
<g id="edge41" class="edge">
<title>Node2&#45;&gt;Node73</title>
<path fill="none" stroke="midnightblue" d="M2238.6,-145.09C2514.79,-112.91 3166.29,-158.76 3421.5,-109 3433.67,-106.63 3446.72,-101.86 3456.94,-97.58"/>
<polygon fill="midnightblue" stroke="midnightblue" points="2238.04,-141.64 2228.54,-146.32 2238.89,-148.59 2238.04,-141.64"/>
</g>
<!-- Node74 -->
<g id="node37" class="node">
<title>Node74</title>
<g id="a_node37"><a xlink:href="d__resorce_8cpp.html" target="_top" xlink:title=" ">
<polygon fill="white" stroke="black" points="3538.5,-78.5 3538.5,-97.5 3640.5,-97.5 3640.5,-78.5 3538.5,-78.5"/>
<text text-anchor="middle" x="3589.5" y="-85.5" font-family="Helvetica,sans-Serif" font-size="10.00">src/d/d_resorce.cpp</text>
</a>
</g>
</g>
<!-- Node2&#45;&gt;Node74 -->
<g id="edge42" class="edge">
<title>Node2&#45;&gt;Node74</title>
<path fill="none" stroke="midnightblue" d="M2238.6,-145.09C2538.68,-110.2 3249.83,-158.39 3529.5,-109 3542.91,-106.63 3557.4,-101.87 3568.79,-97.58"/>
<polygon fill="midnightblue" stroke="midnightblue" points="2238.04,-141.64 2228.54,-146.31 2238.89,-148.58 2238.04,-141.64"/>
</g>
<!-- Node75 -->
<g id="node38" class="node">
<title>Node75</title>
<g id="a_node38"><a xlink:href="d__simple__model_8cpp.html" target="_top" xlink:title=" ">
<polygon fill="white" stroke="black" points="3658.5,-78.5 3658.5,-97.5 3788.5,-97.5 3788.5,-78.5 3658.5,-78.5"/>
<text text-anchor="middle" x="3723.5" y="-85.5" font-family="Helvetica,sans-Serif" font-size="10.00">src/d/d_simple_model.cpp</text>
</a>
</g>
</g>
<!-- Node2&#45;&gt;Node75 -->
<g id="edge43" class="edge">
<title>Node2&#45;&gt;Node75</title>
<path fill="none" stroke="midnightblue" d="M2238.68,-145.05C2862.24,-68.68 3031.64,-199.05 3649.5,-109 3665.83,-106.62 3683.7,-101.85 3697.79,-97.57"/>
<polygon fill="midnightblue" stroke="midnightblue" points="2238.03,-141.6 2228.54,-146.31 2238.89,-148.55 2238.03,-141.6"/>
</g>
<!-- Node76 -->
<g id="node39" class="node">
<title>Node76</title>
<g id="a_node39"><a xlink:href="d__stage_8cpp.html" target="_top" xlink:title=" ">
<polygon fill="white" stroke="black" points="3806.5,-78.5 3806.5,-97.5 3900.5,-97.5 3900.5,-78.5 3806.5,-78.5"/>
<text text-anchor="middle" x="3853.5" y="-85.5" font-family="Helvetica,sans-Serif" font-size="10.00">src/d/d_stage.cpp</text>
</a>
</g>
</g>
<!-- Node2&#45;&gt;Node76 -->
<g id="edge44" class="edge">
<title>Node2&#45;&gt;Node76</title>
<path fill="none" stroke="midnightblue" d="M2238.5,-145.11C2597.83,-103.76 3459.7,-171.53 3797.5,-109 3810.19,-106.65 3823.84,-101.83 3834.48,-97.51"/>
<polygon fill="midnightblue" stroke="midnightblue" points="2238.05,-141.64 2228.53,-146.3 2238.88,-148.59 2238.05,-141.64"/>
</g>
<!-- Node77 -->
<g id="node40" class="node">
<title>Node77</title>
<g id="a_node40"><a xlink:href="d__timer_8cpp.html" target="_top" xlink:title=" ">
<polygon fill="white" stroke="black" points="3918.5,-78.5 3918.5,-97.5 4010.5,-97.5 4010.5,-78.5 3918.5,-78.5"/>
<text text-anchor="middle" x="3964.5" y="-85.5" font-family="Helvetica,sans-Serif" font-size="10.00">src/d/d_timer.cpp</text>
</a>
</g>
</g>
<!-- Node2&#45;&gt;Node77 -->
<g id="edge45" class="edge">
<title>Node2&#45;&gt;Node77</title>
<path fill="none" stroke="midnightblue" d="M2238.63,-145.09C2622.81,-101.07 3547.42,-176.82 3909.5,-109 3921.98,-106.66 3935.39,-101.84 3945.84,-97.51"/>
<polygon fill="midnightblue" stroke="midnightblue" points="2238.05,-141.64 2228.53,-146.29 2238.88,-148.59 2238.05,-141.64"/>
</g>
<!-- Node78 -->
<g id="node41" class="node">
<title>Node78</title>
<g id="a_node41"><a xlink:href="d__tresure_8cpp.html" target="_top" xlink:title=" ">
<polygon fill="white" stroke="black" points="4028.5,-78.5 4028.5,-97.5 4128.5,-97.5 4128.5,-78.5 4028.5,-78.5"/>
<text text-anchor="middle" x="4078.5" y="-85.5" font-family="Helvetica,sans-Serif" font-size="10.00">src/d/d_tresure.cpp</text>
</a>
</g>
</g>
<!-- Node2&#45;&gt;Node78 -->
<g id="edge46" class="edge">
<title>Node2&#45;&gt;Node78</title>
<path fill="none" stroke="midnightblue" d="M2238.67,-145.09C2647.2,-98.32 3632.61,-176.81 4019.5,-109 4032.82,-106.67 4047.2,-101.84 4058.42,-97.52"/>
<polygon fill="midnightblue" stroke="midnightblue" points="2238.05,-141.64 2228.53,-146.29 2238.88,-148.59 2238.05,-141.64"/>
</g>
<!-- Node79 -->
<g id="node42" class="node">
<title>Node79</title>
<g id="a_node42"><a xlink:href="d__event__lib_8cpp.html" target="_top" xlink:title=" ">
<polygon fill="white" stroke="black" points="4147,-73 4147,-103 4250,-103 4250,-73 4147,-73"/>
<text text-anchor="start" x="4155" y="-91" font-family="Helvetica,sans-Serif" font-size="10.00">src/d/event/d_event</text>
<text text-anchor="middle" x="4198.5" y="-80" font-family="Helvetica,sans-Serif" font-size="10.00">_lib.cpp</text>
</a>
</g>
</g>
<!-- Node2&#45;&gt;Node79 -->
<g id="edge49" class="edge">
<title>Node2&#45;&gt;Node79</title>
<path fill="none" stroke="midnightblue" d="M2238.68,-145.08C2673.31,-95.41 3724.39,-179.01 4137.5,-109 4145.41,-107.66 4153.7,-105.49 4161.52,-103.07"/>
<polygon fill="midnightblue" stroke="midnightblue" points="2238.05,-141.63 2228.53,-146.28 2238.87,-148.59 2238.05,-141.63"/>
</g>
<!-- Node80 -->
<g id="node43" class="node">
<title>Node80</title>
<g id="a_node43"><a xlink:href="d__event__manager_8cpp.html" target="_top" xlink:title=" ">
<polygon fill="white" stroke="black" points="92,-73 92,-103 195,-103 195,-73 92,-73"/>
<text text-anchor="start" x="100" y="-91" font-family="Helvetica,sans-Serif" font-size="10.00">src/d/event/d_event</text>
<text text-anchor="middle" x="143.5" y="-80" font-family="Helvetica,sans-Serif" font-size="10.00">_manager.cpp</text>
</a>
</g>
</g>
<!-- Node2&#45;&gt;Node80 -->
<g id="edge50" class="edge">
<title>Node2&#45;&gt;Node80</title>
<path fill="none" stroke="midnightblue" d="M2107.99,-158.86C1788.34,-155.59 400,-139.74 209.5,-109 200.99,-107.63 192.05,-105.44 183.59,-103.02"/>
<polygon fill="midnightblue" stroke="midnightblue" points="2107.99,-162.36 2118.02,-158.96 2108.06,-155.36 2107.99,-162.36"/>
</g>
<!-- Node81 -->
<g id="node44" class="node">
<title>Node81</title>
<g id="a_node44"><a xlink:href="d__kankyo__wether_8cpp.html" target="_top" xlink:title=" ">
<polygon fill="white" stroke="black" points="4268.5,-73 4268.5,-103 4384.5,-103 4384.5,-73 4268.5,-73"/>
<text text-anchor="start" x="4276.5" y="-91" font-family="Helvetica,sans-Serif" font-size="10.00">src/d/kankyo/d_kankyo</text>
<text text-anchor="middle" x="4326.5" y="-80" font-family="Helvetica,sans-Serif" font-size="10.00">_wether.cpp</text>
</a>
</g>
</g>
<!-- Node2&#45;&gt;Node81 -->
<g id="edge52" class="edge">
<title>Node2&#45;&gt;Node81</title>
<path fill="none" stroke="midnightblue" d="M2238.64,-145.09C2700.2,-92.33 3818.66,-177.41 4259.5,-109 4268.14,-107.66 4277.22,-105.49 4285.8,-103.07"/>
<polygon fill="midnightblue" stroke="midnightblue" points="2238.05,-141.63 2228.53,-146.28 2238.87,-148.59 2238.05,-141.63"/>
</g>
<!-- Node82 -->
<g id="node45" class="node">
<title>Node82</title>
<g id="a_node45"><a xlink:href="d__map__path_8cpp.html" target="_top" xlink:title=" ">
<polygon fill="white" stroke="black" points="4402.5,-78.5 4402.5,-97.5 4536.5,-97.5 4536.5,-78.5 4402.5,-78.5"/>
<text text-anchor="middle" x="4469.5" y="-85.5" font-family="Helvetica,sans-Serif" font-size="10.00">src/d/map/d_map_path.cpp</text>
</a>
</g>
</g>
<!-- Node2&#45;&gt;Node82 -->
<g id="edge53" class="edge">
<title>Node2&#45;&gt;Node82</title>
<path fill="none" stroke="midnightblue" d="M2238.57,-145.1C2729.69,-88.93 3922.06,-174 4393.5,-109 4410.39,-106.67 4428.91,-101.85 4443.44,-97.52"/>
<polygon fill="midnightblue" stroke="midnightblue" points="2238.06,-141.63 2228.53,-146.28 2238.87,-148.58 2238.06,-141.63"/>
</g>
<!-- Node83 -->
<g id="node46" class="node">
<title>Node83</title>
<g id="a_node46"><a xlink:href="d__map__path__dmap_8cpp.html" target="_top" xlink:title=" ">
<polygon fill="white" stroke="black" points="4554.5,-73 4554.5,-103 4670.5,-103 4670.5,-73 4554.5,-73"/>
<text text-anchor="start" x="4562.5" y="-91" font-family="Helvetica,sans-Serif" font-size="10.00">src/d/map/d_map_path</text>
<text text-anchor="middle" x="4612.5" y="-80" font-family="Helvetica,sans-Serif" font-size="10.00">_dmap.cpp</text>
</a>
</g>
</g>
<!-- Node2&#45;&gt;Node83 -->
<g id="edge54" class="edge">
<title>Node2&#45;&gt;Node83</title>
<path fill="none" stroke="midnightblue" d="M2238.49,-145.11C2763.18,-85.3 4041.75,-186.6 4545.5,-109 4554.14,-107.67 4563.22,-105.51 4571.81,-103.08"/>
<polygon fill="midnightblue" stroke="midnightblue" points="2238.06,-141.63 2228.53,-146.27 2238.87,-148.59 2238.06,-141.63"/>
</g>
<!-- Node11&#45;&gt;Node12 -->
<g id="edge5" class="edge">
<title>Node11&#45;&gt;Node12</title>
<path fill="none" stroke="midnightblue" d="M579.5,-67.94C579.5,-54.03 579.5,-35.82 579.5,-25.22"/>
<polygon fill="midnightblue" stroke="midnightblue" points="576,-68.36 579.5,-78.36 583,-68.36 576,-68.36"/>
</g>
<!-- Node11&#45;&gt;Node13 -->
<g id="edge6" class="edge">
<title>Node11&#45;&gt;Node13</title>
<path fill="none" stroke="midnightblue" d="M604.75,-73.81C632.1,-59.53 674.91,-37.17 698.16,-25.03"/>
<polygon fill="midnightblue" stroke="midnightblue" points="603.03,-70.76 595.78,-78.5 606.27,-76.97 603.03,-70.76"/>
</g>
<!-- Node11&#45;&gt;Node14 -->
<g id="edge7" class="edge">
<title>Node11&#45;&gt;Node14</title>
<path fill="none" stroke="midnightblue" d="M628.66,-76.38C643.39,-73.28 659.58,-69.93 674.5,-67 751.73,-51.83 841.38,-35.77 897.28,-25.94"/>
<polygon fill="midnightblue" stroke="midnightblue" points="627.79,-72.99 618.74,-78.49 629.25,-79.84 627.79,-72.99"/>
</g>
<!-- Node24&#45;&gt;Node26 -->
<g id="edge12" class="edge">
<title>Node24&#45;&gt;Node26</title>
<path fill="none" stroke="midnightblue" d="M1160.87,-67.6C1183.43,-53.65 1212.74,-35.52 1229.7,-25.03"/>
<polygon fill="midnightblue" stroke="midnightblue" points="1158.96,-64.67 1152.3,-72.9 1162.64,-70.62 1158.96,-64.67"/>
</g>
<!-- Node27&#45;&gt;Node26 -->
<g id="edge14" class="edge">
<title>Node27&#45;&gt;Node26</title>
<path fill="none" stroke="midnightblue" d="M1243.5,-62.59C1243.5,-49.71 1243.5,-34.7 1243.5,-25.39"/>
<polygon fill="midnightblue" stroke="midnightblue" points="1240,-62.73 1243.5,-72.73 1247,-62.73 1240,-62.73"/>
</g>
<!-- Node37&#45;&gt;Node12 -->
<g id="edge17" class="edge">
<title>Node37&#45;&gt;Node12</title>
<path fill="none" stroke="midnightblue" d="M401.01,-70.05C448.33,-55.85 513.91,-36.18 550.98,-25.05"/>
<polygon fill="midnightblue" stroke="midnightblue" points="399.78,-66.76 391.21,-72.99 401.79,-73.47 399.78,-66.76"/>
</g>
<!-- Node37&#45;&gt;Node42 -->
<g id="edge18" class="edge">
<title>Node37&#45;&gt;Node42</title>
<path fill="none" stroke="midnightblue" d="M376.15,-67.6C398.9,-53.65 428.47,-35.52 445.58,-25.03"/>
<polygon fill="midnightblue" stroke="midnightblue" points="374.19,-64.69 367.5,-72.9 377.85,-70.66 374.19,-64.69"/>
</g>
<!-- Node37&#45;&gt;Node43 -->
<g id="edge19" class="edge">
<title>Node37&#45;&gt;Node43</title>
<path fill="none" stroke="midnightblue" d="M279.69,-70.91C222.25,-56.65 140.61,-36.39 94.9,-25.04"/>
<polygon fill="midnightblue" stroke="midnightblue" points="278.86,-74.31 289.41,-73.32 280.54,-67.52 278.86,-74.31"/>
</g>
<!-- Node37&#45;&gt;Node44 -->
<g id="edge20" class="edge">
<title>Node37&#45;&gt;Node44</title>
<path fill="none" stroke="midnightblue" d="M304.5,-68.69C278.51,-56.79 245.15,-41.52 221.24,-30.57"/>
<polygon fill="midnightblue" stroke="midnightblue" points="303.16,-71.92 313.71,-72.9 306.07,-65.56 303.16,-71.92"/>
</g>
<!-- Node37&#45;&gt;Node45 -->
<g id="edge21" class="edge">
<title>Node37&#45;&gt;Node45</title>
<path fill="none" stroke="midnightblue" d="M338.71,-62.98C335.58,-50.01 331.91,-34.79 329.64,-25.39"/>
<polygon fill="midnightblue" stroke="midnightblue" points="335.31,-63.83 341.06,-72.73 342.12,-62.19 335.31,-63.83"/>
</g>
<!-- Node96&#45;&gt;Node43 -->
<g id="edge57" class="edge">
<title>Node96&#45;&gt;Node43</title>
<path fill="none" stroke="midnightblue" d="M80.94,-145.21C69.19,-136.37 55.96,-123.88 49.5,-109 37.01,-80.22 49.77,-41.94 56.68,-25.08"/>
<polygon fill="midnightblue" stroke="midnightblue" points="78.93,-148.07 89.12,-150.98 82.97,-142.35 78.93,-148.07"/>
</g>
<!-- Node96&#45;&gt;Node44 -->
<g id="edge58" class="edge">
<title>Node96&#45;&gt;Node44</title>
<path fill="none" stroke="midnightblue" d="M92.26,-142.08C81.14,-122.43 67.75,-90.18 82.5,-67 95.06,-47.27 117.57,-35.12 138.81,-27.7"/>
<polygon fill="midnightblue" stroke="midnightblue" points="89.39,-144.11 97.55,-150.86 95.39,-140.49 89.39,-144.11"/>
</g>
<!-- Node96&#45;&gt;Node80 -->
<g id="edge59" class="edge">
<title>Node96&#45;&gt;Node80</title>
<path fill="none" stroke="midnightblue" d="M113.53,-141.82C120.33,-129.84 129.19,-114.22 135.51,-103.08"/>
<polygon fill="midnightblue" stroke="midnightblue" points="110.3,-140.43 108.4,-150.86 116.38,-143.88 110.3,-140.43"/>
</g>
</g>
</svg>
