<?xml version="1.0" encoding="UTF-8" standalone="no"?>
<!DOCTYPE svg PUBLIC "-//W3C//DTD SVG 1.1//EN"
 "http://www.w3.org/Graphics/SVG/1.1/DTD/svg11.dtd">
<!-- Generated by graphviz version 3.0.0 (20221109.1736)
 -->
<!-- Title: include/f_op/f_op_msg_mng.h Pages: 1 -->
<svg width="1348pt" height="162pt"
 viewBox="0.00 0.00 1347.50 162.00" xmlns="http://www.w3.org/2000/svg" xmlns:xlink="http://www.w3.org/1999/xlink">
<g id="graph0" class="graph" transform="scale(1 1) rotate(0) translate(4 158)">
<title>include/f_op/f_op_msg_mng.h</title>
<polygon fill="white" stroke="transparent" points="-4,4 -4,-158 1343.5,-158 1343.5,4 -4,4"/>
<!-- Node1 -->
<g id="node1" class="node">
<title>Node1</title>
<g id="a_node1"><a xlink:title=" ">
<polygon fill="#bfbfbf" stroke="black" points="536,-123.5 536,-153.5 651,-153.5 651,-123.5 536,-123.5"/>
<text text-anchor="start" x="544" y="-141.5" font-family="Helvetica,sans-Serif" font-size="10.00">include/f_op/f_op_msg</text>
<text text-anchor="middle" x="593.5" y="-130.5" font-family="Helvetica,sans-Serif" font-size="10.00">_mng.h</text>
</a>
</g>
</g>
<!-- Node2 -->
<g id="node2" class="node">
<title>Node2</title>
<g id="a_node2"><a xlink:href="d__gameover_8h.html" target="_top" xlink:title=" ">
<polygon fill="white" stroke="black" points="35,-67.5 35,-86.5 154,-86.5 154,-67.5 35,-67.5"/>
<text text-anchor="middle" x="94.5" y="-74.5" font-family="Helvetica,sans-Serif" font-size="10.00">include/d/d_gameover.h</text>
</a>
</g>
</g>
<!-- Node1&#45;&gt;Node2 -->
<g id="edge1" class="edge">
<title>Node1&#45;&gt;Node2</title>
<path fill="none" stroke="midnightblue" d="M525.59,-129.49C441.68,-119.58 294.56,-102.15 168.5,-87 163.87,-86.44 159.09,-85.87 154.27,-85.28"/>
<polygon fill="midnightblue" stroke="midnightblue" points="525.41,-132.99 535.75,-130.69 526.23,-126.04 525.41,-132.99"/>
</g>
<!-- Node4 -->
<g id="node4" class="node">
<title>Node4</title>
<g id="a_node4"><a xlink:href="d__event__data_8cpp.html" target="_top" xlink:title=" ">
<polygon fill="white" stroke="black" points="131,-0.5 131,-30.5 234,-30.5 234,-0.5 131,-0.5"/>
<text text-anchor="start" x="139" y="-18.5" font-family="Helvetica,sans-Serif" font-size="10.00">src/d/event/d_event</text>
<text text-anchor="middle" x="182.5" y="-7.5" font-family="Helvetica,sans-Serif" font-size="10.00">_data.cpp</text>
</a>
</g>
</g>
<!-- Node1&#45;&gt;Node4 -->
<g id="edge6" class="edge">
<title>Node1&#45;&gt;Node4</title>
<path fill="none" stroke="midnightblue" d="M525.66,-137.57C426.46,-136.25 248.49,-128.03 201.5,-87 185.36,-72.91 182.25,-46.7 182,-30.51"/>
<polygon fill="midnightblue" stroke="midnightblue" points="525.85,-141.07 535.89,-137.69 525.93,-134.07 525.85,-141.07"/>
</g>
<!-- Node5 -->
<g id="node5" class="node">
<title>Node5</title>
<g id="a_node5"><a xlink:href="d__name_8cpp.html" target="_top" xlink:title=" ">
<polygon fill="white" stroke="black" points="210.5,-67.5 210.5,-86.5 304.5,-86.5 304.5,-67.5 210.5,-67.5"/>
<text text-anchor="middle" x="257.5" y="-74.5" font-family="Helvetica,sans-Serif" font-size="10.00">src/d/d_name.cpp</text>
</a>
</g>
</g>
<!-- Node1&#45;&gt;Node5 -->
<g id="edge4" class="edge">
<title>Node1&#45;&gt;Node5</title>
<path fill="none" stroke="midnightblue" d="M525.5,-125.46C459.89,-113.84 362.29,-96.56 304.76,-86.37"/>
<polygon fill="midnightblue" stroke="midnightblue" points="525.28,-128.97 535.74,-127.27 526.5,-122.08 525.28,-128.97"/>
</g>
<!-- Node6 -->
<g id="node6" class="node">
<title>Node6</title>
<g id="a_node6"><a xlink:href="d__stage_8cpp.html" target="_top" xlink:title=" ">
<polygon fill="white" stroke="black" points="322.5,-67.5 322.5,-86.5 416.5,-86.5 416.5,-67.5 322.5,-67.5"/>
<text text-anchor="middle" x="369.5" y="-74.5" font-family="Helvetica,sans-Serif" font-size="10.00">src/d/d_stage.cpp</text>
</a>
</g>
</g>
<!-- Node1&#45;&gt;Node6 -->
<g id="edge5" class="edge">
<title>Node1&#45;&gt;Node6</title>
<path fill="none" stroke="midnightblue" d="M530.82,-120.85C488.77,-109.68 435.11,-95.43 401.52,-86.51"/>
<polygon fill="midnightblue" stroke="midnightblue" points="530.14,-124.29 540.7,-123.47 531.93,-117.52 530.14,-124.29"/>
</g>
<!-- Node7 -->
<g id="node7" class="node">
<title>Node7</title>
<g id="a_node7"><a xlink:href="d__menu__save_8cpp.html" target="_top" xlink:title=" ">
<polygon fill="white" stroke="black" points="435,-67.5 435,-86.5 582,-86.5 582,-67.5 435,-67.5"/>
<text text-anchor="middle" x="508.5" y="-74.5" font-family="Helvetica,sans-Serif" font-size="10.00">src/d/menu/d_menu_save.cpp</text>
</a>
</g>
</g>
<!-- Node1&#45;&gt;Node7 -->
<g id="edge7" class="edge">
<title>Node1&#45;&gt;Node7</title>
<path fill="none" stroke="midnightblue" d="M564.9,-117.48C549.93,-107 532.37,-94.71 520.87,-86.66"/>
<polygon fill="midnightblue" stroke="midnightblue" points="563.16,-120.53 573.36,-123.4 567.17,-114.8 563.16,-120.53"/>
</g>
<!-- Node8 -->
<g id="node8" class="node">
<title>Node8</title>
<g id="a_node8"><a xlink:href="d__menu__window_8cpp.html" target="_top" xlink:title=" ">
<polygon fill="white" stroke="black" points="600,-67.5 600,-86.5 759,-86.5 759,-67.5 600,-67.5"/>
<text text-anchor="middle" x="679.5" y="-74.5" font-family="Helvetica,sans-Serif" font-size="10.00">src/d/menu/d_menu_window.cpp</text>
</a>
</g>
</g>
<!-- Node1&#45;&gt;Node8 -->
<g id="edge8" class="edge">
<title>Node1&#45;&gt;Node8</title>
<path fill="none" stroke="midnightblue" d="M622.43,-117.48C637.58,-107 655.35,-94.71 666.99,-86.66"/>
<polygon fill="midnightblue" stroke="midnightblue" points="620.11,-114.83 613.88,-123.4 624.1,-120.59 620.11,-114.83"/>
</g>
<!-- Node9 -->
<g id="node9" class="node">
<title>Node9</title>
<g id="a_node9"><a xlink:href="d__meter2_8cpp.html" target="_top" xlink:title=" ">
<polygon fill="white" stroke="black" points="777.5,-67.5 777.5,-86.5 905.5,-86.5 905.5,-67.5 777.5,-67.5"/>
<text text-anchor="middle" x="841.5" y="-74.5" font-family="Helvetica,sans-Serif" font-size="10.00">src/d/meter/d_meter2.cpp</text>
</a>
</g>
</g>
<!-- Node1&#45;&gt;Node9 -->
<g id="edge9" class="edge">
<title>Node1&#45;&gt;Node9</title>
<path fill="none" stroke="midnightblue" d="M660.77,-121.36C707.53,-110.14 768,-95.64 805.77,-86.57"/>
<polygon fill="midnightblue" stroke="midnightblue" points="659.93,-117.96 651.02,-123.7 661.56,-124.77 659.93,-117.96"/>
</g>
<!-- Node10 -->
<g id="node10" class="node">
<title>Node10</title>
<g id="a_node10"><a xlink:href="d__msg__flow_8cpp.html" target="_top" xlink:title=" ">
<polygon fill="white" stroke="black" points="924,-67.5 924,-86.5 1057,-86.5 1057,-67.5 924,-67.5"/>
<text text-anchor="middle" x="990.5" y="-74.5" font-family="Helvetica,sans-Serif" font-size="10.00">src/d/msg/d_msg_flow.cpp</text>
</a>
</g>
</g>
<!-- Node1&#45;&gt;Node10 -->
<g id="edge10" class="edge">
<title>Node1&#45;&gt;Node10</title>
<path fill="none" stroke="midnightblue" d="M661.27,-127.34C738.03,-115.84 861.75,-97.3 933.67,-86.52"/>
<polygon fill="midnightblue" stroke="midnightblue" points="660.6,-123.9 651.23,-128.85 661.64,-130.83 660.6,-123.9"/>
</g>
<!-- Node11 -->
<g id="node11" class="node">
<title>Node11</title>
<g id="a_node11"><a xlink:href="d__s__play_8cpp.html" target="_top" xlink:title=" ">
<polygon fill="white" stroke="black" points="1075.5,-67.5 1075.5,-86.5 1181.5,-86.5 1181.5,-67.5 1075.5,-67.5"/>
<text text-anchor="middle" x="1128.5" y="-74.5" font-family="Helvetica,sans-Serif" font-size="10.00">src/d/s/d_s_play.cpp</text>
</a>
</g>
</g>
<!-- Node1&#45;&gt;Node11 -->
<g id="edge11" class="edge">
<title>Node1&#45;&gt;Node11</title>
<path fill="none" stroke="midnightblue" d="M661.1,-131.09C752.98,-122.2 922.37,-105.15 1066.5,-87 1069.41,-86.63 1072.4,-86.24 1075.42,-85.84"/>
<polygon fill="midnightblue" stroke="midnightblue" points="660.72,-127.61 651.1,-132.06 661.39,-134.58 660.72,-127.61"/>
</g>
<!-- Node12 -->
<g id="node12" class="node">
<title>Node12</title>
<g id="a_node12"><a xlink:href="f__op__msg__mng_8cpp.html" target="_top" xlink:title=" ">
<polygon fill="white" stroke="black" points="1199.5,-67.5 1199.5,-86.5 1339.5,-86.5 1339.5,-67.5 1199.5,-67.5"/>
<text text-anchor="middle" x="1269.5" y="-74.5" font-family="Helvetica,sans-Serif" font-size="10.00">src/f_op/f_op_msg_mng.cpp</text>
</a>
</g>
</g>
<!-- Node1&#45;&gt;Node12 -->
<g id="edge12" class="edge">
<title>Node1&#45;&gt;Node12</title>
<path fill="none" stroke="midnightblue" d="M661.21,-132.42C771.98,-123.96 998.79,-106.02 1190.5,-87 1193.38,-86.71 1196.33,-86.41 1199.3,-86.1"/>
<polygon fill="midnightblue" stroke="midnightblue" points="660.89,-128.93 651.18,-133.18 661.42,-135.91 660.89,-128.93"/>
</g>
<!-- Node3 -->
<g id="node3" class="node">
<title>Node3</title>
<g id="a_node3"><a xlink:href="d__gameover_8cpp.html" target="_top" xlink:title=" ">
<polygon fill="white" stroke="black" points="0,-6 0,-25 113,-25 113,-6 0,-6"/>
<text text-anchor="middle" x="56.5" y="-13" font-family="Helvetica,sans-Serif" font-size="10.00">src/d/d_gameover.cpp</text>
</a>
</g>
</g>
<!-- Node2&#45;&gt;Node3 -->
<g id="edge2" class="edge">
<title>Node2&#45;&gt;Node3</title>
<path fill="none" stroke="midnightblue" d="M83.65,-59.01C76.55,-47.89 67.57,-33.84 61.93,-25.01"/>
<polygon fill="midnightblue" stroke="midnightblue" points="80.72,-60.93 89.06,-67.48 86.62,-57.16 80.72,-60.93"/>
</g>
<!-- Node2&#45;&gt;Node4 -->
<g id="edge3" class="edge">
<title>Node2&#45;&gt;Node4</title>
<path fill="none" stroke="midnightblue" d="M115.59,-61.74C129.58,-52.28 147.85,-39.93 161.76,-30.52"/>
<polygon fill="midnightblue" stroke="midnightblue" points="113.43,-58.97 107.11,-67.48 117.35,-64.77 113.43,-58.97"/>
</g>
</g>
</svg>
