<?xml version="1.0" encoding="UTF-8" standalone="no"?>
<!DOCTYPE svg PUBLIC "-//W3C//DTD SVG 1.1//EN"
 "http://www.w3.org/Graphics/SVG/1.1/DTD/svg11.dtd">
<!-- Generated by graphviz version 3.0.0 (20220413.0242)
 -->
<!-- Title: include/f_op/f_op_camera_mng.h Pages: 1 -->
<svg width="5362pt" height="251pt"
 viewBox="0.00 0.00 5361.50 251.00" xmlns="http://www.w3.org/2000/svg" xmlns:xlink="http://www.w3.org/1999/xlink">
<g id="graph0" class="graph" transform="scale(1 1) rotate(0) translate(4 247)">
<title>include/f_op/f_op_camera_mng.h</title>
<polygon fill="white" stroke="transparent" points="-4,4 -4,-247 5357.5,-247 5357.5,4 -4,4"/>
<!-- Node1 -->
<g id="node1" class="node">
<title>Node1</title>
<g id="a_node1"><a xlink:title=" ">
<polygon fill="#bfbfbf" stroke="black" points="4953,-212.5 4953,-242.5 5081,-242.5 5081,-212.5 4953,-212.5"/>
<text text-anchor="start" x="4961" y="-230.5" font-family="Helvetica,sans-Serif" font-size="10.00">include/f_op/f_op_camera</text>
<text text-anchor="middle" x="5017" y="-219.5" font-family="Helvetica,sans-Serif" font-size="10.00">_mng.h</text>
</a>
</g>
</g>
<!-- Node2 -->
<g id="node2" class="node">
<title>Node2</title>
<g id="a_node2"><a xlink:href="d__com__inf__game_8h.html" target="_top" xlink:title=" ">
<polygon fill="white" stroke="red" points="2222,-145.5 2222,-175.5 2332,-175.5 2332,-145.5 2222,-145.5"/>
<text text-anchor="start" x="2230" y="-163.5" font-family="Helvetica,sans-Serif" font-size="10.00">include/d/com/d_com</text>
<text text-anchor="middle" x="2277" y="-152.5" font-family="Helvetica,sans-Serif" font-size="10.00">_inf_game.h</text>
</a>
</g>
</g>
<!-- Node1&#45;&gt;Node2 -->
<g id="edge1" class="edge">
<title>Node1&#45;&gt;Node2</title>
<path fill="none" stroke="midnightblue" d="M4942.76,-224.74C4545.7,-215.32 2678.02,-171.01 2332.16,-162.81"/>
<polygon fill="midnightblue" stroke="midnightblue" points="4942.89,-228.24 4952.97,-224.98 4943.06,-221.24 4942.89,-228.24"/>
</g>
<!-- Node74 -->
<g id="node47" class="node">
<title>Node74</title>
<g id="a_node47"><a xlink:href="d__camera_8h.html" target="_top" xlink:title=" ">
<polygon fill="white" stroke="red" points="4821.5,-151 4821.5,-170 4930.5,-170 4930.5,-151 4821.5,-151"/>
<text text-anchor="middle" x="4876" y="-158" font-family="Helvetica,sans-Serif" font-size="10.00">include/d/d_camera.h</text>
</a>
</g>
</g>
<!-- Node1&#45;&gt;Node74 -->
<g id="edge56" class="edge">
<title>Node1&#45;&gt;Node74</title>
<path fill="none" stroke="midnightblue" d="M4977.15,-208.13C4950.02,-195.62 4915.35,-179.64 4894.45,-170.01"/>
<polygon fill="midnightblue" stroke="midnightblue" points="4975.86,-211.39 4986.41,-212.4 4978.79,-205.03 4975.86,-211.39"/>
</g>
<!-- Node76 -->
<g id="node48" class="node">
<title>Node76</title>
<g id="a_node48"><a xlink:href="f__op__camera_8h.html" target="_top" xlink:title=" ">
<polygon fill="white" stroke="red" points="4949,-151 4949,-170 5085,-170 5085,-151 4949,-151"/>
<text text-anchor="middle" x="5017" y="-158" font-family="Helvetica,sans-Serif" font-size="10.00">include/f_op/f_op_camera.h</text>
</a>
</g>
</g>
<!-- Node1&#45;&gt;Node76 -->
<g id="edge59" class="edge">
<title>Node1&#45;&gt;Node76</title>
<path fill="none" stroke="midnightblue" d="M5017,-202.25C5017,-191.02 5017,-178.38 5017,-170.19"/>
<polygon fill="midnightblue" stroke="midnightblue" points="5013.5,-202.4 5017,-212.4 5020.5,-202.4 5013.5,-202.4"/>
</g>
<!-- Node77 -->
<g id="node49" class="node">
<title>Node77</title>
<g id="a_node49"><a xlink:href="f__ap__game_8cpp.html" target="_top" xlink:title=" ">
<polygon fill="white" stroke="black" points="5103.5,-151 5103.5,-170 5224.5,-170 5224.5,-151 5103.5,-151"/>
<text text-anchor="middle" x="5164" y="-158" font-family="Helvetica,sans-Serif" font-size="10.00">src/f_ap/f_ap_game.cpp</text>
</a>
</g>
</g>
<!-- Node1&#45;&gt;Node77 -->
<g id="edge60" class="edge">
<title>Node1&#45;&gt;Node77</title>
<path fill="none" stroke="midnightblue" d="M5058.17,-208.3C5086.52,-195.76 5122.88,-179.68 5144.76,-170.01"/>
<polygon fill="midnightblue" stroke="midnightblue" points="5056.63,-205.15 5048.9,-212.4 5059.46,-211.55 5056.63,-205.15"/>
</g>
<!-- Node78 -->
<g id="node50" class="node">
<title>Node78</title>
<g id="a_node50"><a xlink:href="f__op__camera__mng_8cpp.html" target="_top" xlink:title=" ">
<polygon fill="white" stroke="black" points="5242.5,-145.5 5242.5,-175.5 5353.5,-175.5 5353.5,-145.5 5242.5,-145.5"/>
<text text-anchor="start" x="5250.5" y="-163.5" font-family="Helvetica,sans-Serif" font-size="10.00">src/f_op/f_op_camera</text>
<text text-anchor="middle" x="5298" y="-152.5" font-family="Helvetica,sans-Serif" font-size="10.00">_mng.cpp</text>
</a>
</g>
</g>
<!-- Node1&#45;&gt;Node78 -->
<g id="edge61" class="edge">
<title>Node1&#45;&gt;Node78</title>
<path fill="none" stroke="midnightblue" d="M5087.61,-210.17C5135.48,-199.09 5197.87,-184.66 5242.25,-174.39"/>
<polygon fill="midnightblue" stroke="midnightblue" points="5086.58,-206.81 5077.63,-212.48 5088.16,-213.63 5086.58,-206.81"/>
</g>
<!-- Node3 -->
<g id="node3" class="node">
<title>Node3</title>
<g id="a_node3"><a xlink:href="d__a__npc_8h.html" target="_top" xlink:title=" ">
<polygon fill="white" stroke="red" points="4519.5,-78.5 4519.5,-97.5 4630.5,-97.5 4630.5,-78.5 4519.5,-78.5"/>
<text text-anchor="middle" x="4575" y="-85.5" font-family="Helvetica,sans-Serif" font-size="10.00">include/d/a/d_a_npc.h</text>
</a>
</g>
</g>
<!-- Node2&#45;&gt;Node3 -->
<g id="edge2" class="edge">
<title>Node2&#45;&gt;Node3</title>
<path fill="none" stroke="midnightblue" d="M2342.34,-159.11C2687.65,-156.92 4292.55,-144.87 4511,-109 4525.24,-106.66 4540.7,-101.9 4552.86,-97.6"/>
<polygon fill="midnightblue" stroke="midnightblue" points="2342.23,-155.61 2332.25,-159.18 2342.27,-162.61 2342.23,-155.61"/>
</g>
<!-- Node8 -->
<g id="node4" class="node">
<title>Node8</title>
<g id="a_node4"><a xlink:href="d__cc__uty_8h.html" target="_top" xlink:title=" ">
<polygon fill="white" stroke="red" points="4648.5,-78.5 4648.5,-97.5 4767.5,-97.5 4767.5,-78.5 4648.5,-78.5"/>
<text text-anchor="middle" x="4708" y="-85.5" font-family="Helvetica,sans-Serif" font-size="10.00">include/d/cc/d_cc_uty.h</text>
</a>
</g>
</g>
<!-- Node2&#45;&gt;Node8 -->
<g id="edge3" class="edge">
<title>Node2&#45;&gt;Node8</title>
<path fill="none" stroke="midnightblue" d="M2342.31,-159.14C2699.39,-157 4407.8,-144.98 4640,-109 4655.2,-106.64 4671.77,-101.82 4684.75,-97.5"/>
<polygon fill="midnightblue" stroke="midnightblue" points="2342.12,-155.64 2332.15,-159.2 2342.17,-162.64 2342.12,-155.64"/>
</g>
<!-- Node10 -->
<g id="node5" class="node">
<title>Node10</title>
<g id="a_node5"><a xlink:href="d__item_8h.html" target="_top" xlink:title=" ">
<polygon fill="white" stroke="red" points="78.5,-78.5 78.5,-97.5 173.5,-97.5 173.5,-78.5 78.5,-78.5"/>
<text text-anchor="middle" x="126" y="-85.5" font-family="Helvetica,sans-Serif" font-size="10.00">include/d/d_item.h</text>
</a>
</g>
</g>
<!-- Node2&#45;&gt;Node10 -->
<g id="edge4" class="edge">
<title>Node2&#45;&gt;Node10</title>
<path fill="none" stroke="midnightblue" d="M2211.43,-159.04C1879.39,-156.54 391.17,-143.48 188,-109 174.17,-106.65 159.19,-101.89 147.42,-97.6"/>
<polygon fill="midnightblue" stroke="midnightblue" points="2211.81,-162.54 2221.84,-159.11 2211.87,-155.54 2211.81,-162.54"/>
</g>
<!-- Node11 -->
<g id="node6" class="node">
<title>Node11</title>
<g id="a_node6"><a xlink:href="d__com__inf__game_8cpp.html" target="_top" xlink:title=" ">
<polygon fill="white" stroke="black" points="0,-0.5 0,-30.5 108,-30.5 108,-0.5 0,-0.5"/>
<text text-anchor="start" x="8" y="-18.5" font-family="Helvetica,sans-Serif" font-size="10.00">src/d/com/d_com_inf</text>
<text text-anchor="middle" x="54" y="-7.5" font-family="Helvetica,sans-Serif" font-size="10.00">_game.cpp</text>
</a>
</g>
</g>
<!-- Node2&#45;&gt;Node11 -->
<g id="edge32" class="edge">
<title>Node2&#45;&gt;Node11</title>
<path fill="none" stroke="midnightblue" d="M2211.87,-159.15C1850.9,-157.06 110.46,-145.11 69,-109 46.79,-89.66 48.49,-51.43 51.39,-30.69"/>
<polygon fill="midnightblue" stroke="midnightblue" points="2211.88,-162.65 2221.9,-159.21 2211.92,-155.65 2211.88,-162.65"/>
</g>
<!-- Node5 -->
<g id="node7" class="node">
<title>Node5</title>
<g id="a_node7"><a xlink:href="d__msg__flow_8cpp.html" target="_top" xlink:title=" ">
<polygon fill="white" stroke="black" points="129.5,-6 129.5,-25 262.5,-25 262.5,-6 129.5,-6"/>
<text text-anchor="middle" x="196" y="-13" font-family="Helvetica,sans-Serif" font-size="10.00">src/d/msg/d_msg_flow.cpp</text>
</a>
</g>
</g>
<!-- Node2&#45;&gt;Node5 -->
<g id="edge52" class="edge">
<title>Node2&#45;&gt;Node5</title>
<path fill="none" stroke="midnightblue" d="M2211.77,-159.69C1873.67,-160.47 332.81,-161.12 247,-109 215.65,-89.96 202.16,-44.21 197.75,-25.11"/>
<polygon fill="midnightblue" stroke="midnightblue" points="2211.9,-163.19 2221.89,-159.67 2211.88,-156.19 2211.9,-163.19"/>
</g>
<!-- Node14 -->
<g id="node8" class="node">
<title>Node14</title>
<g id="a_node8"><a xlink:href="d__kantera__icon__meter_8h.html" target="_top" xlink:title=" ">
<polygon fill="white" stroke="red" points="268.5,-73 268.5,-103 369.5,-103 369.5,-73 268.5,-73"/>
<text text-anchor="start" x="276.5" y="-91" font-family="Helvetica,sans-Serif" font-size="10.00">include/d/d_kantera</text>
<text text-anchor="middle" x="319" y="-80" font-family="Helvetica,sans-Serif" font-size="10.00">_icon_meter.h</text>
</a>
</g>
</g>
<!-- Node2&#45;&gt;Node14 -->
<g id="edge7" class="edge">
<title>Node2&#45;&gt;Node14</title>
<path fill="none" stroke="midnightblue" d="M2211.65,-158.92C1898.75,-156.01 561.28,-141.73 378,-109 370.33,-107.63 362.31,-105.45 354.74,-103.02"/>
<polygon fill="midnightblue" stroke="midnightblue" points="2211.88,-162.43 2221.91,-159.02 2211.94,-155.43 2211.88,-162.43"/>
</g>
<!-- Node16 -->
<g id="node9" class="node">
<title>Node16</title>
<g id="a_node9"><a xlink:href="d__meter2__draw_8cpp.html" target="_top" xlink:title=" ">
<polygon fill="white" stroke="black" points="281,-0.5 281,-30.5 391,-30.5 391,-0.5 281,-0.5"/>
<text text-anchor="start" x="289" y="-18.5" font-family="Helvetica,sans-Serif" font-size="10.00">src/d/meter/d_meter2</text>
<text text-anchor="middle" x="336" y="-7.5" font-family="Helvetica,sans-Serif" font-size="10.00">_draw.cpp</text>
</a>
</g>
</g>
<!-- Node2&#45;&gt;Node16 -->
<g id="edge49" class="edge">
<title>Node2&#45;&gt;Node16</title>
<path fill="none" stroke="midnightblue" d="M2211.72,-159.11C1869.22,-156.89 293.89,-144.77 259,-109 245.97,-95.64 250.13,-83.42 259,-67 267.81,-50.68 284.45,-38.78 300.01,-30.65"/>
<polygon fill="midnightblue" stroke="midnightblue" points="2211.95,-162.61 2221.97,-159.17 2211.99,-155.61 2211.95,-162.61"/>
</g>
<!-- Node17 -->
<g id="node10" class="node">
<title>Node17</title>
<g id="a_node10"><a xlink:href="d__model_8h.html" target="_top" xlink:title=" ">
<polygon fill="white" stroke="red" points="387.5,-78.5 387.5,-97.5 490.5,-97.5 490.5,-78.5 387.5,-78.5"/>
<text text-anchor="middle" x="439" y="-85.5" font-family="Helvetica,sans-Serif" font-size="10.00">include/d/d_model.h</text>
</a>
</g>
</g>
<!-- Node2&#45;&gt;Node17 -->
<g id="edge9" class="edge">
<title>Node2&#45;&gt;Node17</title>
<path fill="none" stroke="midnightblue" d="M2211.46,-158.78C1910.69,-155.3 669.83,-139.22 499,-109 485.59,-106.63 471.1,-101.86 459.71,-97.58"/>
<polygon fill="midnightblue" stroke="midnightblue" points="2211.72,-162.28 2221.76,-158.89 2211.81,-155.28 2211.72,-162.28"/>
</g>
<!-- Node19 -->
<g id="node11" class="node">
<title>Node19</title>
<g id="a_node11"><a xlink:href="d__name_8h.html" target="_top" xlink:title=" ">
<polygon fill="white" stroke="red" points="508.5,-78.5 508.5,-97.5 609.5,-97.5 609.5,-78.5 508.5,-78.5"/>
<text text-anchor="middle" x="559" y="-85.5" font-family="Helvetica,sans-Serif" font-size="10.00">include/d/d_name.h</text>
</a>
</g>
</g>
<!-- Node2&#45;&gt;Node19 -->
<g id="edge10" class="edge">
<title>Node2&#45;&gt;Node19</title>
<path fill="none" stroke="midnightblue" d="M2211.71,-158.63C1924.11,-154.67 777.5,-137.2 619,-109 605.6,-106.61 591.1,-101.85 579.71,-97.57"/>
<polygon fill="midnightblue" stroke="midnightblue" points="2211.93,-162.14 2221.97,-158.77 2212.02,-155.14 2211.93,-162.14"/>
</g>
<!-- Node21 -->
<g id="node12" class="node">
<title>Node21</title>
<g id="a_node12"><a xlink:href="d__file__sel__info_8h.html" target="_top" xlink:title=" ">
<polygon fill="white" stroke="red" points="628,-73 628,-103 724,-103 724,-73 628,-73"/>
<text text-anchor="start" x="636" y="-91" font-family="Helvetica,sans-Serif" font-size="10.00">include/d/file/d_file</text>
<text text-anchor="middle" x="676" y="-80" font-family="Helvetica,sans-Serif" font-size="10.00">_sel_info.h</text>
</a>
</g>
</g>
<!-- Node2&#45;&gt;Node21 -->
<g id="edge11" class="edge">
<title>Node2&#45;&gt;Node21</title>
<path fill="none" stroke="midnightblue" d="M2211.73,-158.54C1936.68,-154.32 879.57,-136.44 733,-109 725.68,-107.63 718.04,-105.48 710.81,-103.09"/>
<polygon fill="midnightblue" stroke="midnightblue" points="2211.89,-162.04 2221.95,-158.69 2212,-155.04 2211.89,-162.04"/>
</g>
<!-- Node23 -->
<g id="node13" class="node">
<title>Node23</title>
<g id="a_node13"><a xlink:href="d__meter2_8h.html" target="_top" xlink:title=" ">
<polygon fill="white" stroke="red" points="742,-78.5 742,-97.5 876,-97.5 876,-78.5 742,-78.5"/>
<text text-anchor="middle" x="809" y="-85.5" font-family="Helvetica,sans-Serif" font-size="10.00">include/d/meter/d_meter2.h</text>
</a>
</g>
</g>
<!-- Node2&#45;&gt;Node23 -->
<g id="edge12" class="edge">
<title>Node2&#45;&gt;Node23</title>
<path fill="none" stroke="midnightblue" d="M2211.61,-158.9C1973.08,-156.44 1150.11,-145.45 890,-109 872.36,-106.53 852.97,-101.81 837.58,-97.58"/>
<polygon fill="midnightblue" stroke="midnightblue" points="2211.83,-162.4 2221.86,-159.01 2211.9,-155.4 2211.83,-162.4"/>
</g>
<!-- Node33 -->
<g id="node14" class="node">
<title>Node33</title>
<g id="a_node14"><a xlink:href="d__msg__object_8h.html" target="_top" xlink:title=" ">
<polygon fill="white" stroke="red" points="932,-73 932,-103 1042,-103 1042,-73 932,-73"/>
<text text-anchor="start" x="940" y="-91" font-family="Helvetica,sans-Serif" font-size="10.00">include/d/msg/d_msg</text>
<text text-anchor="middle" x="987" y="-80" font-family="Helvetica,sans-Serif" font-size="10.00">_object.h</text>
</a>
</g>
</g>
<!-- Node2&#45;&gt;Node33 -->
<g id="edge13" class="edge">
<title>Node2&#45;&gt;Node33</title>
<path fill="none" stroke="midnightblue" d="M2211.79,-158.87C1992.32,-156.43 1281.57,-145.8 1056,-109 1047.26,-107.57 1038.06,-105.4 1029.33,-103"/>
<polygon fill="midnightblue" stroke="midnightblue" points="2211.83,-162.37 2221.87,-158.98 2211.91,-155.37 2211.83,-162.37"/>
</g>
<!-- Node34 -->
<g id="node15" class="node">
<title>Node34</title>
<g id="a_node15"><a xlink:href="d__event__data_8cpp.html" target="_top" xlink:title=" ">
<polygon fill="white" stroke="black" points="4744.5,-0.5 4744.5,-30.5 4847.5,-30.5 4847.5,-0.5 4744.5,-0.5"/>
<text text-anchor="start" x="4752.5" y="-18.5" font-family="Helvetica,sans-Serif" font-size="10.00">src/d/event/d_event</text>
<text text-anchor="middle" x="4796" y="-7.5" font-family="Helvetica,sans-Serif" font-size="10.00">_data.cpp</text>
</a>
</g>
</g>
<!-- Node2&#45;&gt;Node34 -->
<g id="edge41" class="edge">
<title>Node2&#45;&gt;Node34</title>
<path fill="none" stroke="midnightblue" d="M2342.39,-159.3C2731.7,-157.95 4728.83,-149.1 4777,-109 4799.81,-90.02 4799.86,-51.64 4797.94,-30.78"/>
<polygon fill="midnightblue" stroke="midnightblue" points="2342.14,-155.8 2332.15,-159.33 2342.16,-162.8 2342.14,-155.8"/>
</g>
<!-- Node35 -->
<g id="node16" class="node">
<title>Node35</title>
<g id="a_node16"><a xlink:href="d__kankyo_8cpp.html" target="_top" xlink:title=" ">
<polygon fill="white" stroke="black" points="739,-6 739,-25 873,-25 873,-6 739,-6"/>
<text text-anchor="middle" x="806" y="-13" font-family="Helvetica,sans-Serif" font-size="10.00">src/d/kankyo/d_kankyo.cpp</text>
</a>
</g>
</g>
<!-- Node2&#45;&gt;Node35 -->
<g id="edge44" class="edge">
<title>Node2&#45;&gt;Node35</title>
<path fill="none" stroke="midnightblue" d="M2211.46,-158.47C1948.59,-154.15 981.91,-136.47 923,-109 900.19,-98.36 904.22,-83.26 885,-67 864.87,-49.97 838.58,-34.27 821.99,-25.04"/>
<polygon fill="midnightblue" stroke="midnightblue" points="2211.56,-161.97 2221.62,-158.63 2211.68,-154.97 2211.56,-161.97"/>
</g>
<!-- Node28 -->
<g id="node17" class="node">
<title>Node28</title>
<g id="a_node17"><a xlink:href="d__menu__window_8cpp.html" target="_top" xlink:title=" ">
<polygon fill="white" stroke="black" points="891.5,-6 891.5,-25 1050.5,-25 1050.5,-6 891.5,-6"/>
<text text-anchor="middle" x="971" y="-13" font-family="Helvetica,sans-Serif" font-size="10.00">src/d/menu/d_menu_window.cpp</text>
</a>
</g>
</g>
<!-- Node2&#45;&gt;Node28 -->
<g id="edge47" class="edge">
<title>Node2&#45;&gt;Node28</title>
<path fill="none" stroke="midnightblue" d="M2211.46,-158.52C1982.71,-154.85 1227.94,-140.45 1124,-109 1116.31,-106.67 1021.02,-47.63 984.83,-25.11"/>
<polygon fill="midnightblue" stroke="midnightblue" points="2211.58,-162.02 2221.64,-158.68 2211.69,-155.03 2211.58,-162.02"/>
</g>
<!-- Node30 -->
<g id="node18" class="node">
<title>Node30</title>
<g id="a_node18"><a xlink:href="d__meter2__info_8cpp.html" target="_top" xlink:title=" ">
<polygon fill="white" stroke="black" points="1069,-0.5 1069,-30.5 1179,-30.5 1179,-0.5 1069,-0.5"/>
<text text-anchor="start" x="1077" y="-18.5" font-family="Helvetica,sans-Serif" font-size="10.00">src/d/meter/d_meter2</text>
<text text-anchor="middle" x="1124" y="-7.5" font-family="Helvetica,sans-Serif" font-size="10.00">_info.cpp</text>
</a>
</g>
</g>
<!-- Node2&#45;&gt;Node30 -->
<g id="edge50" class="edge">
<title>Node2&#45;&gt;Node30</title>
<path fill="none" stroke="midnightblue" d="M2211.69,-158.62C1978.01,-155.21 1195.11,-141.41 1153,-109 1128.73,-90.32 1124.31,-51.45 1123.78,-30.54"/>
<polygon fill="midnightblue" stroke="midnightblue" points="2211.69,-162.12 2221.74,-158.77 2211.79,-155.12 2211.69,-162.12"/>
</g>
<!-- Node29 -->
<g id="node19" class="node">
<title>Node29</title>
<g id="a_node19"><a xlink:href="d__meter__map_8cpp.html" target="_top" xlink:title=" ">
<polygon fill="white" stroke="black" points="1197,-0.5 1197,-30.5 1301,-30.5 1301,-0.5 1197,-0.5"/>
<text text-anchor="start" x="1205" y="-18.5" font-family="Helvetica,sans-Serif" font-size="10.00">src/d/meter/d_meter</text>
<text text-anchor="middle" x="1249" y="-7.5" font-family="Helvetica,sans-Serif" font-size="10.00">_map.cpp</text>
</a>
</g>
</g>
<!-- Node2&#45;&gt;Node29 -->
<g id="edge51" class="edge">
<title>Node2&#45;&gt;Node29</title>
<path fill="none" stroke="midnightblue" d="M2211.69,-158.99C1978.98,-156.87 1202.27,-146.96 1166,-109 1153.1,-95.5 1156.85,-83.27 1166,-67 1175.34,-50.38 1192.61,-38.6 1208.98,-30.62"/>
<polygon fill="midnightblue" stroke="midnightblue" points="2211.67,-162.49 2221.7,-159.08 2211.73,-155.49 2211.67,-162.49"/>
</g>
<!-- Node38 -->
<g id="node20" class="node">
<title>Node38</title>
<g id="a_node20"><a xlink:href="d__s__logo_8h.html" target="_top" xlink:title=" ">
<polygon fill="white" stroke="red" points="1174.5,-78.5 1174.5,-97.5 1287.5,-97.5 1287.5,-78.5 1174.5,-78.5"/>
<text text-anchor="middle" x="1231" y="-85.5" font-family="Helvetica,sans-Serif" font-size="10.00">include/d/s/d_s_logo.h</text>
</a>
</g>
</g>
<!-- Node2&#45;&gt;Node38 -->
<g id="edge21" class="edge">
<title>Node2&#45;&gt;Node38</title>
<path fill="none" stroke="midnightblue" d="M2211.88,-158.2C2022.4,-154.11 1473.64,-139.84 1297,-109 1282.49,-106.47 1266.69,-101.75 1254.19,-97.53"/>
<polygon fill="midnightblue" stroke="midnightblue" points="2211.89,-161.71 2221.97,-158.42 2212.04,-154.71 2211.89,-161.71"/>
</g>
<!-- Node40 -->
<g id="node21" class="node">
<title>Node40</title>
<g id="a_node21"><a xlink:href="d__s__play_8h.html" target="_top" xlink:title=" ">
<polygon fill="white" stroke="red" points="1305.5,-78.5 1305.5,-97.5 1418.5,-97.5 1418.5,-78.5 1305.5,-78.5"/>
<text text-anchor="middle" x="1362" y="-85.5" font-family="Helvetica,sans-Serif" font-size="10.00">include/d/s/d_s_play.h</text>
</a>
</g>
</g>
<!-- Node2&#45;&gt;Node40 -->
<g id="edge22" class="edge">
<title>Node2&#45;&gt;Node40</title>
<path fill="none" stroke="midnightblue" d="M2211.57,-157.6C2039.69,-152.27 1578.28,-135.85 1428,-109 1413.62,-106.43 1397.96,-101.77 1385.5,-97.59"/>
<polygon fill="midnightblue" stroke="midnightblue" points="2211.63,-161.1 2221.74,-157.91 2211.85,-154.1 2211.63,-161.1"/>
</g>
<!-- Node43 -->
<g id="node22" class="node">
<title>Node43</title>
<g id="a_node22"><a xlink:href="d__a__tag__telop_8h.html" target="_top" xlink:title=" ">
<polygon fill="white" stroke="black" points="1437,-67.5 1437,-108.5 1555,-108.5 1555,-67.5 1437,-67.5"/>
<text text-anchor="start" x="1445" y="-96.5" font-family="Helvetica,sans-Serif" font-size="10.00">include/rel/d/a/tag</text>
<text text-anchor="start" x="1445" y="-85.5" font-family="Helvetica,sans-Serif" font-size="10.00">/d_a_tag_telop/d_a_tag</text>
<text text-anchor="middle" x="1496" y="-74.5" font-family="Helvetica,sans-Serif" font-size="10.00">_telop.h</text>
</a>
</g>
</g>
<!-- Node2&#45;&gt;Node43 -->
<g id="edge23" class="edge">
<title>Node2&#45;&gt;Node43</title>
<path fill="none" stroke="midnightblue" d="M2211.31,-159.46C2085.07,-158.36 1800.25,-150.95 1565,-109 1561.81,-108.43 1558.55,-107.77 1555.28,-107.04"/>
<polygon fill="midnightblue" stroke="midnightblue" points="2211.55,-162.96 2221.57,-159.53 2211.6,-155.96 2211.55,-162.96"/>
</g>
<!-- Node44 -->
<g id="node23" class="node">
<title>Node44</title>
<g id="a_node23"><a xlink:href="c__dylink_8cpp.html" target="_top" xlink:title=" ">
<polygon fill="white" stroke="black" points="1573.5,-78.5 1573.5,-97.5 1668.5,-97.5 1668.5,-78.5 1573.5,-78.5"/>
<text text-anchor="middle" x="1621" y="-85.5" font-family="Helvetica,sans-Serif" font-size="10.00">src/c/c_dylink.cpp</text>
</a>
</g>
</g>
<!-- Node2&#45;&gt;Node44 -->
<g id="edge24" class="edge">
<title>Node2&#45;&gt;Node44</title>
<path fill="none" stroke="midnightblue" d="M2211.78,-159.37C2100.88,-157.97 1869,-149.87 1678,-109 1665.49,-106.32 1651.96,-101.66 1641.22,-97.5"/>
<polygon fill="midnightblue" stroke="midnightblue" points="2211.77,-162.87 2221.81,-159.49 2211.85,-155.87 2211.77,-162.87"/>
</g>
<!-- Node26 -->
<g id="node24" class="node">
<title>Node26</title>
<g id="a_node24"><a xlink:href="d__a__alink_8cpp.html" target="_top" xlink:title=" ">
<polygon fill="white" stroke="black" points="1686.5,-78.5 1686.5,-97.5 1795.5,-97.5 1795.5,-78.5 1686.5,-78.5"/>
<text text-anchor="middle" x="1741" y="-85.5" font-family="Helvetica,sans-Serif" font-size="10.00">src/d/a/d_a_alink.cpp</text>
</a>
</g>
</g>
<!-- Node2&#45;&gt;Node26 -->
<g id="edge25" class="edge">
<title>Node2&#45;&gt;Node26</title>
<path fill="none" stroke="midnightblue" d="M2211.71,-156.57C2120.05,-151.54 1948.35,-138.77 1805,-109 1791.32,-106.16 1776.41,-101.59 1764.42,-97.53"/>
<polygon fill="midnightblue" stroke="midnightblue" points="2211.78,-160.08 2221.95,-157.12 2212.15,-153.09 2211.78,-160.08"/>
</g>
<!-- Node45 -->
<g id="node25" class="node">
<title>Node45</title>
<g id="a_node25"><a xlink:href="d__a__itembase_8cpp.html" target="_top" xlink:title=" ">
<polygon fill="white" stroke="black" points="1814,-78.5 1814,-97.5 1942,-97.5 1942,-78.5 1814,-78.5"/>
<text text-anchor="middle" x="1878" y="-85.5" font-family="Helvetica,sans-Serif" font-size="10.00">src/d/a/d_a_itembase.cpp</text>
</a>
</g>
</g>
<!-- Node2&#45;&gt;Node45 -->
<g id="edge26" class="edge">
<title>Node2&#45;&gt;Node45</title>
<path fill="none" stroke="midnightblue" d="M2211.59,-151.59C2145.48,-143.08 2040.58,-128.14 1951,-109 1936.09,-105.81 1919.71,-101.41 1906.24,-97.54"/>
<polygon fill="midnightblue" stroke="midnightblue" points="2211.49,-155.11 2221.85,-152.9 2212.38,-148.16 2211.49,-155.11"/>
</g>
<!-- Node46 -->
<g id="node26" class="node">
<title>Node46</title>
<g id="a_node26"><a xlink:href="d__a__player_8cpp.html" target="_top" xlink:title=" ">
<polygon fill="white" stroke="black" points="1960,-78.5 1960,-97.5 2074,-97.5 2074,-78.5 1960,-78.5"/>
<text text-anchor="middle" x="2017" y="-85.5" font-family="Helvetica,sans-Serif" font-size="10.00">src/d/a/d_a_player.cpp</text>
</a>
</g>
</g>
<!-- Node2&#45;&gt;Node46 -->
<g id="edge27" class="edge">
<title>Node2&#45;&gt;Node46</title>
<path fill="none" stroke="midnightblue" d="M2211.8,-143.21C2174.08,-133.62 2125.75,-121.04 2083,-109 2070.21,-105.4 2056.1,-101.16 2044.22,-97.51"/>
<polygon fill="midnightblue" stroke="midnightblue" points="2211.1,-146.65 2221.65,-145.71 2212.82,-139.86 2211.1,-146.65"/>
</g>
<!-- Node47 -->
<g id="node27" class="node">
<title>Node47</title>
<g id="a_node27"><a xlink:href="d__bg__s_8cpp.html" target="_top" xlink:title=" ">
<polygon fill="white" stroke="black" points="2092,-78.5 2092,-97.5 2196,-97.5 2196,-78.5 2092,-78.5"/>
<text text-anchor="middle" x="2144" y="-85.5" font-family="Helvetica,sans-Serif" font-size="10.00">src/d/bg/d_bg_s.cpp</text>
</a>
</g>
</g>
<!-- Node2&#45;&gt;Node47 -->
<g id="edge28" class="edge">
<title>Node2&#45;&gt;Node47</title>
<path fill="none" stroke="midnightblue" d="M2241.44,-140.65C2215,-126.63 2180.15,-108.16 2160.1,-97.53"/>
<polygon fill="midnightblue" stroke="midnightblue" points="2239.93,-143.81 2250.41,-145.4 2243.21,-137.63 2239.93,-143.81"/>
</g>
<!-- Node48 -->
<g id="node28" class="node">
<title>Node48</title>
<g id="a_node28"><a xlink:href="d__bg__s__movebg__actor_8cpp.html" target="_top" xlink:title=" ">
<polygon fill="white" stroke="black" points="2214,-73 2214,-103 2340,-103 2340,-73 2214,-73"/>
<text text-anchor="start" x="2222" y="-91" font-family="Helvetica,sans-Serif" font-size="10.00">src/d/bg/d_bg_s_movebg</text>
<text text-anchor="middle" x="2277" y="-80" font-family="Helvetica,sans-Serif" font-size="10.00">_actor.cpp</text>
</a>
</g>
</g>
<!-- Node2&#45;&gt;Node48 -->
<g id="edge29" class="edge">
<title>Node2&#45;&gt;Node48</title>
<path fill="none" stroke="midnightblue" d="M2277,-135.23C2277,-124.57 2277,-112.41 2277,-103.25"/>
<polygon fill="midnightblue" stroke="midnightblue" points="2273.5,-135.23 2277,-145.23 2280.5,-135.23 2273.5,-135.23"/>
</g>
<!-- Node49 -->
<g id="node29" class="node">
<title>Node49</title>
<g id="a_node29"><a xlink:href="d__bg__w_8cpp.html" target="_top" xlink:title=" ">
<polygon fill="white" stroke="black" points="2358.5,-78.5 2358.5,-97.5 2465.5,-97.5 2465.5,-78.5 2358.5,-78.5"/>
<text text-anchor="middle" x="2412" y="-85.5" font-family="Helvetica,sans-Serif" font-size="10.00">src/d/bg/d_bg_w.cpp</text>
</a>
</g>
</g>
<!-- Node2&#45;&gt;Node49 -->
<g id="edge30" class="edge">
<title>Node2&#45;&gt;Node49</title>
<path fill="none" stroke="midnightblue" d="M2313.09,-140.65C2339.94,-126.63 2375.3,-108.16 2395.66,-97.53"/>
<polygon fill="midnightblue" stroke="midnightblue" points="2311.24,-137.67 2303.99,-145.4 2314.48,-143.88 2311.24,-137.67"/>
</g>
<!-- Node50 -->
<g id="node30" class="node">
<title>Node50</title>
<g id="a_node30"><a xlink:href="d__cc__s_8cpp.html" target="_top" xlink:title=" ">
<polygon fill="white" stroke="black" points="2484,-78.5 2484,-97.5 2588,-97.5 2588,-78.5 2484,-78.5"/>
<text text-anchor="middle" x="2536" y="-85.5" font-family="Helvetica,sans-Serif" font-size="10.00">src/d/cc/d_cc_s.cpp</text>
</a>
</g>
</g>
<!-- Node2&#45;&gt;Node50 -->
<g id="edge31" class="edge">
<title>Node2&#45;&gt;Node50</title>
<path fill="none" stroke="midnightblue" d="M2342.42,-143.98C2381.15,-134.51 2431.07,-121.79 2475,-109 2486.98,-105.51 2500.16,-101.25 2511.19,-97.55"/>
<polygon fill="midnightblue" stroke="midnightblue" points="2341.21,-140.68 2332.32,-146.44 2342.86,-147.48 2341.21,-140.68"/>
</g>
<!-- Node51 -->
<g id="node31" class="node">
<title>Node51</title>
<g id="a_node31"><a xlink:href="d__eye__hl_8cpp.html" target="_top" xlink:title=" ">
<polygon fill="white" stroke="black" points="2606,-78.5 2606,-97.5 2704,-97.5 2704,-78.5 2606,-78.5"/>
<text text-anchor="middle" x="2655" y="-85.5" font-family="Helvetica,sans-Serif" font-size="10.00">src/d/d_eye_hl.cpp</text>
</a>
</g>
</g>
<!-- Node2&#45;&gt;Node51 -->
<g id="edge33" class="edge">
<title>Node2&#45;&gt;Node51</title>
<path fill="none" stroke="midnightblue" d="M2342.35,-152.59C2407.5,-144.91 2510.1,-130.66 2597,-109 2609.2,-105.96 2622.47,-101.47 2633.24,-97.52"/>
<polygon fill="midnightblue" stroke="midnightblue" points="2341.76,-149.14 2332.23,-153.77 2342.56,-156.09 2341.76,-149.14"/>
</g>
<!-- Node52 -->
<g id="node32" class="node">
<title>Node52</title>
<g id="a_node32"><a xlink:href="d__kyeff_8cpp.html" target="_top" xlink:title=" ">
<polygon fill="white" stroke="black" points="2722,-78.5 2722,-97.5 2812,-97.5 2812,-78.5 2722,-78.5"/>
<text text-anchor="middle" x="2767" y="-85.5" font-family="Helvetica,sans-Serif" font-size="10.00">src/d/d_kyeff.cpp</text>
</a>
</g>
</g>
<!-- Node2&#45;&gt;Node52 -->
<g id="edge34" class="edge">
<title>Node2&#45;&gt;Node52</title>
<path fill="none" stroke="midnightblue" d="M2342.25,-156.81C2428.24,-152.17 2583.75,-139.95 2713,-109 2724.67,-106.21 2737.26,-101.64 2747.35,-97.57"/>
<polygon fill="midnightblue" stroke="midnightblue" points="2341.91,-153.32 2332.11,-157.34 2342.28,-160.31 2341.91,-153.32"/>
</g>
<!-- Node53 -->
<g id="node33" class="node">
<title>Node53</title>
<g id="a_node33"><a xlink:href="d__resorce_8cpp.html" target="_top" xlink:title=" ">
<polygon fill="white" stroke="black" points="2830,-78.5 2830,-97.5 2932,-97.5 2932,-78.5 2830,-78.5"/>
<text text-anchor="middle" x="2881" y="-85.5" font-family="Helvetica,sans-Serif" font-size="10.00">src/d/d_resorce.cpp</text>
</a>
</g>
</g>
<!-- Node2&#45;&gt;Node53 -->
<g id="edge35" class="edge">
<title>Node2&#45;&gt;Node53</title>
<path fill="none" stroke="midnightblue" d="M2342.28,-158.25C2445.13,-155.22 2650.72,-144.79 2821,-109 2834,-106.27 2848.12,-101.65 2859.39,-97.54"/>
<polygon fill="midnightblue" stroke="midnightblue" points="2341.95,-154.76 2332.05,-158.54 2342.15,-161.76 2341.95,-154.76"/>
</g>
<!-- Node54 -->
<g id="node34" class="node">
<title>Node54</title>
<g id="a_node34"><a xlink:href="d__simple__model_8cpp.html" target="_top" xlink:title=" ">
<polygon fill="white" stroke="black" points="2950,-78.5 2950,-97.5 3080,-97.5 3080,-78.5 2950,-78.5"/>
<text text-anchor="middle" x="3015" y="-85.5" font-family="Helvetica,sans-Serif" font-size="10.00">src/d/d_simple_model.cpp</text>
</a>
</g>
</g>
<!-- Node2&#45;&gt;Node54 -->
<g id="edge36" class="edge">
<title>Node2&#45;&gt;Node54</title>
<path fill="none" stroke="midnightblue" d="M2342.17,-158.6C2461.71,-156.04 2723.72,-146.28 2941,-109 2956.87,-106.28 2974.27,-101.66 2988.21,-97.55"/>
<polygon fill="midnightblue" stroke="midnightblue" points="2342.01,-155.1 2332.08,-158.8 2342.15,-162.1 2342.01,-155.1"/>
</g>
<!-- Node55 -->
<g id="node35" class="node">
<title>Node55</title>
<g id="a_node35"><a xlink:href="d__stage_8cpp.html" target="_top" xlink:title=" ">
<polygon fill="white" stroke="black" points="3098,-78.5 3098,-97.5 3192,-97.5 3192,-78.5 3098,-78.5"/>
<text text-anchor="middle" x="3145" y="-85.5" font-family="Helvetica,sans-Serif" font-size="10.00">src/d/d_stage.cpp</text>
</a>
</g>
</g>
<!-- Node2&#45;&gt;Node55 -->
<g id="edge37" class="edge">
<title>Node2&#45;&gt;Node55</title>
<path fill="none" stroke="midnightblue" d="M2342.26,-157.8C2508.85,-153.09 2946.7,-138.23 3089,-109 3101.44,-106.45 3114.85,-101.73 3125.43,-97.52"/>
<polygon fill="midnightblue" stroke="midnightblue" points="2342.06,-154.31 2332.16,-158.08 2342.25,-161.3 2342.06,-154.31"/>
</g>
<!-- Node56 -->
<g id="node36" class="node">
<title>Node56</title>
<g id="a_node36"><a xlink:href="d__timer_8cpp.html" target="_top" xlink:title=" ">
<polygon fill="white" stroke="black" points="3210,-78.5 3210,-97.5 3302,-97.5 3302,-78.5 3210,-78.5"/>
<text text-anchor="middle" x="3256" y="-85.5" font-family="Helvetica,sans-Serif" font-size="10.00">src/d/d_timer.cpp</text>
</a>
</g>
</g>
<!-- Node2&#45;&gt;Node56 -->
<g id="edge38" class="edge">
<title>Node2&#45;&gt;Node56</title>
<path fill="none" stroke="midnightblue" d="M2342.51,-158.42C2525.02,-155 3036.56,-142.62 3201,-109 3213.24,-106.5 3226.42,-101.78 3236.8,-97.56"/>
<polygon fill="midnightblue" stroke="midnightblue" points="2342.2,-154.92 2332.26,-158.61 2342.32,-161.92 2342.2,-154.92"/>
</g>
<!-- Node57 -->
<g id="node37" class="node">
<title>Node57</title>
<g id="a_node37"><a xlink:href="d__tresure_8cpp.html" target="_top" xlink:title=" ">
<polygon fill="white" stroke="black" points="3320,-78.5 3320,-97.5 3420,-97.5 3420,-78.5 3320,-78.5"/>
<text text-anchor="middle" x="3370" y="-85.5" font-family="Helvetica,sans-Serif" font-size="10.00">src/d/d_tresure.cpp</text>
</a>
</g>
</g>
<!-- Node2&#45;&gt;Node57 -->
<g id="edge39" class="edge">
<title>Node2&#45;&gt;Node57</title>
<path fill="none" stroke="midnightblue" d="M2342.35,-158.68C2539.15,-155.83 3124.09,-144.52 3311,-109 3324.07,-106.52 3338.2,-101.8 3349.36,-97.57"/>
<polygon fill="midnightblue" stroke="midnightblue" points="2342.11,-155.18 2332.16,-158.82 2342.21,-162.18 2342.11,-155.18"/>
</g>
<!-- Node58 -->
<g id="node38" class="node">
<title>Node58</title>
<g id="a_node38"><a xlink:href="d__event_8cpp.html" target="_top" xlink:title=" ">
<polygon fill="white" stroke="black" points="3438.5,-78.5 3438.5,-97.5 3559.5,-97.5 3559.5,-78.5 3438.5,-78.5"/>
<text text-anchor="middle" x="3499" y="-85.5" font-family="Helvetica,sans-Serif" font-size="10.00">src/d/event/d_event.cpp</text>
</a>
</g>
</g>
<!-- Node2&#45;&gt;Node58 -->
<g id="edge40" class="edge">
<title>Node2&#45;&gt;Node58</title>
<path fill="none" stroke="midnightblue" d="M2342.06,-158.65C2553.12,-155.59 3217.33,-143.39 3429,-109 3444.34,-106.51 3461.1,-101.79 3474.38,-97.57"/>
<polygon fill="midnightblue" stroke="midnightblue" points="2342.01,-155.15 2332.06,-158.8 2342.11,-162.15 2342.01,-155.15"/>
</g>
<!-- Node59 -->
<g id="node39" class="node">
<title>Node59</title>
<g id="a_node39"><a xlink:href="d__event__lib_8cpp.html" target="_top" xlink:title=" ">
<polygon fill="white" stroke="black" points="3577.5,-73 3577.5,-103 3680.5,-103 3680.5,-73 3577.5,-73"/>
<text text-anchor="start" x="3585.5" y="-91" font-family="Helvetica,sans-Serif" font-size="10.00">src/d/event/d_event</text>
<text text-anchor="middle" x="3629" y="-80" font-family="Helvetica,sans-Serif" font-size="10.00">_lib.cpp</text>
</a>
</g>
</g>
<!-- Node2&#45;&gt;Node59 -->
<g id="edge42" class="edge">
<title>Node2&#45;&gt;Node59</title>
<path fill="none" stroke="midnightblue" d="M2342.18,-159.38C2569.98,-158.58 3329.76,-152.64 3569,-109 3576.67,-107.6 3584.7,-105.44 3592.3,-103.05"/>
<polygon fill="midnightblue" stroke="midnightblue" points="2342.04,-155.88 2332.05,-159.41 2342.06,-162.88 2342.04,-155.88"/>
</g>
<!-- Node60 -->
<g id="node40" class="node">
<title>Node60</title>
<g id="a_node40"><a xlink:href="d__event__manager_8cpp.html" target="_top" xlink:title=" ">
<polygon fill="white" stroke="black" points="4824.5,-73 4824.5,-103 4927.5,-103 4927.5,-73 4824.5,-73"/>
<text text-anchor="start" x="4832.5" y="-91" font-family="Helvetica,sans-Serif" font-size="10.00">src/d/event/d_event</text>
<text text-anchor="middle" x="4876" y="-80" font-family="Helvetica,sans-Serif" font-size="10.00">_manager.cpp</text>
</a>
</g>
</g>
<!-- Node2&#45;&gt;Node60 -->
<g id="edge43" class="edge">
<title>Node2&#45;&gt;Node60</title>
<path fill="none" stroke="midnightblue" d="M2342.18,-159.27C2714.11,-157.8 4560.17,-148.57 4810,-109 4818.51,-107.65 4827.46,-105.48 4835.92,-103.05"/>
<polygon fill="midnightblue" stroke="midnightblue" points="2342.11,-155.77 2332.13,-159.31 2342.14,-162.77 2342.11,-155.77"/>
</g>
<!-- Node61 -->
<g id="node41" class="node">
<title>Node61</title>
<g id="a_node41"><a xlink:href="d__kankyo__wether_8cpp.html" target="_top" xlink:title=" ">
<polygon fill="white" stroke="black" points="3699,-73 3699,-103 3815,-103 3815,-73 3699,-73"/>
<text text-anchor="start" x="3707" y="-91" font-family="Helvetica,sans-Serif" font-size="10.00">src/d/kankyo/d_kankyo</text>
<text text-anchor="middle" x="3757" y="-80" font-family="Helvetica,sans-Serif" font-size="10.00">_wether.cpp</text>
</a>
</g>
</g>
<!-- Node2&#45;&gt;Node61 -->
<g id="edge45" class="edge">
<title>Node2&#45;&gt;Node61</title>
<path fill="none" stroke="midnightblue" d="M2342.09,-159.37C2583.22,-158.53 3425.39,-152.49 3690,-109 3698.5,-107.6 3707.45,-105.44 3715.93,-103.05"/>
<polygon fill="midnightblue" stroke="midnightblue" points="2342.06,-155.87 2332.07,-159.4 2342.08,-162.87 2342.06,-155.87"/>
</g>
<!-- Node62 -->
<g id="node42" class="node">
<title>Node62</title>
<g id="a_node42"><a xlink:href="d__map__path__dmap_8cpp.html" target="_top" xlink:title=" ">
<polygon fill="white" stroke="black" points="3833,-73 3833,-103 3949,-103 3949,-73 3833,-73"/>
<text text-anchor="start" x="3841" y="-91" font-family="Helvetica,sans-Serif" font-size="10.00">src/d/map/d_map_path</text>
<text text-anchor="middle" x="3891" y="-80" font-family="Helvetica,sans-Serif" font-size="10.00">_dmap.cpp</text>
</a>
</g>
</g>
<!-- Node2&#45;&gt;Node62 -->
<g id="edge46" class="edge">
<title>Node2&#45;&gt;Node62</title>
<path fill="none" stroke="midnightblue" d="M2342.6,-159.6C2598.81,-159.65 3532.15,-156.51 3824,-109 3832.51,-107.62 3841.45,-105.46 3849.93,-103.07"/>
<polygon fill="midnightblue" stroke="midnightblue" points="2342.35,-156.1 2332.34,-159.6 2342.34,-163.1 2342.35,-156.1"/>
</g>
<!-- Node63 -->
<g id="node43" class="node">
<title>Node63</title>
<g id="a_node43"><a xlink:href="d__menu__window__HIO_8cpp.html" target="_top" xlink:title=" ">
<polygon fill="white" stroke="black" points="3967.5,-73 3967.5,-103 4108.5,-103 4108.5,-73 3967.5,-73"/>
<text text-anchor="start" x="3975.5" y="-91" font-family="Helvetica,sans-Serif" font-size="10.00">src/d/menu/d_menu_window</text>
<text text-anchor="middle" x="4038" y="-80" font-family="Helvetica,sans-Serif" font-size="10.00">_HIO.cpp</text>
</a>
</g>
</g>
<!-- Node2&#45;&gt;Node63 -->
<g id="edge48" class="edge">
<title>Node2&#45;&gt;Node63</title>
<path fill="none" stroke="midnightblue" d="M2342.36,-159.41C2611.83,-158.76 3637.48,-153.35 3958,-109 3968.07,-107.61 3978.71,-105.45 3988.82,-103.06"/>
<polygon fill="midnightblue" stroke="midnightblue" points="2342.34,-155.91 2332.34,-159.43 2342.35,-162.91 2342.34,-155.91"/>
</g>
<!-- Node64 -->
<g id="node44" class="node">
<title>Node64</title>
<g id="a_node44"><a xlink:href="d__s__name_8cpp.html" target="_top" xlink:title=" ">
<polygon fill="white" stroke="black" points="4126.5,-78.5 4126.5,-97.5 4239.5,-97.5 4239.5,-78.5 4126.5,-78.5"/>
<text text-anchor="middle" x="4183" y="-85.5" font-family="Helvetica,sans-Serif" font-size="10.00">src/d/s/d_s_name.cpp</text>
</a>
</g>
</g>
<!-- Node2&#45;&gt;Node64 -->
<g id="edge53" class="edge">
<title>Node2&#45;&gt;Node64</title>
<path fill="none" stroke="midnightblue" d="M2342.35,-158.76C2649.27,-155.12 3940.28,-138.22 4118,-109 4132.45,-106.62 4148.15,-101.86 4160.5,-97.57"/>
<polygon fill="midnightblue" stroke="midnightblue" points="2342.23,-155.26 2332.27,-158.88 2342.31,-162.26 2342.23,-155.26"/>
</g>
<!-- Node65 -->
<g id="node45" class="node">
<title>Node65</title>
<g id="a_node45"><a xlink:href="d__s__room_8cpp.html" target="_top" xlink:title=" ">
<polygon fill="white" stroke="black" points="4258,-78.5 4258,-97.5 4368,-97.5 4368,-78.5 4258,-78.5"/>
<text text-anchor="middle" x="4313" y="-85.5" font-family="Helvetica,sans-Serif" font-size="10.00">src/d/s/d_s_room.cpp</text>
</a>
</g>
</g>
<!-- Node2&#45;&gt;Node65 -->
<g id="edge54" class="edge">
<title>Node2&#45;&gt;Node65</title>
<path fill="none" stroke="midnightblue" d="M2342.26,-158.9C2662.24,-155.83 4057.75,-140.7 4249,-109 4263.24,-106.64 4278.7,-101.87 4290.86,-97.59"/>
<polygon fill="midnightblue" stroke="midnightblue" points="2342.18,-155.4 2332.22,-159 2342.25,-162.4 2342.18,-155.4"/>
</g>
<!-- Node31 -->
<g id="node46" class="node">
<title>Node31</title>
<g id="a_node46"><a xlink:href="d__save_8cpp.html" target="_top" xlink:title=" ">
<polygon fill="white" stroke="black" points="4386.5,-78.5 4386.5,-97.5 4501.5,-97.5 4501.5,-78.5 4386.5,-78.5"/>
<text text-anchor="middle" x="4444" y="-85.5" font-family="Helvetica,sans-Serif" font-size="10.00">src/d/save/d_save.cpp</text>
</a>
</g>
</g>
<!-- Node2&#45;&gt;Node31 -->
<g id="edge55" class="edge">
<title>Node2&#45;&gt;Node31</title>
<path fill="none" stroke="midnightblue" d="M2342.63,-158.96C2675.81,-156.08 4172.33,-141.41 4377,-109 4391.87,-106.65 4408.05,-101.88 4420.79,-97.59"/>
<polygon fill="midnightblue" stroke="midnightblue" points="2342.16,-155.46 2332.19,-159.05 2342.22,-162.46 2342.16,-155.46"/>
</g>
<!-- Node10&#45;&gt;Node11 -->
<g id="edge5" class="edge">
<title>Node10&#45;&gt;Node11</title>
<path fill="none" stroke="midnightblue" d="M109.76,-71.09C97.32,-58.91 80.32,-42.27 68.38,-30.58"/>
<polygon fill="midnightblue" stroke="midnightblue" points="107.58,-73.86 117.17,-78.36 112.47,-68.86 107.58,-73.86"/>
</g>
<!-- Node10&#45;&gt;Node5 -->
<g id="edge6" class="edge">
<title>Node10&#45;&gt;Node5</title>
<path fill="none" stroke="midnightblue" d="M141.7,-71.19C155.79,-56.99 175.97,-36.67 187.35,-25.22"/>
<polygon fill="midnightblue" stroke="midnightblue" points="139.15,-68.79 134.58,-78.36 144.11,-73.73 139.15,-68.79"/>
</g>
<!-- Node14&#45;&gt;Node16 -->
<g id="edge8" class="edge">
<title>Node14&#45;&gt;Node16</title>
<path fill="none" stroke="midnightblue" d="M324.85,-62.73C327.42,-52.07 330.35,-39.91 332.56,-30.75"/>
<polygon fill="midnightblue" stroke="midnightblue" points="321.38,-62.19 322.44,-72.73 328.19,-63.83 321.38,-62.19"/>
</g>
<!-- Node33&#45;&gt;Node5 -->
<g id="edge20" class="edge">
<title>Node33&#45;&gt;Node5</title>
<path fill="none" stroke="midnightblue" d="M921.8,-72.86C909.62,-70.6 896.96,-68.52 885,-67 614.25,-32.67 542.83,-64.64 272,-31 260,-29.51 247.05,-27.28 235.29,-25"/>
<polygon fill="midnightblue" stroke="midnightblue" points="921.42,-76.35 931.9,-74.79 922.73,-69.47 921.42,-76.35"/>
</g>
<!-- Node33&#45;&gt;Node16 -->
<g id="edge17" class="edge">
<title>Node33&#45;&gt;Node16</title>
<path fill="none" stroke="midnightblue" d="M921.76,-73.18C909.58,-70.9 896.93,-68.71 885,-67 705.23,-41.18 490.34,-25.89 391.15,-19.71"/>
<polygon fill="midnightblue" stroke="midnightblue" points="921.38,-76.67 931.86,-75.12 922.7,-69.8 921.38,-76.67"/>
</g>
<!-- Node33&#45;&gt;Node34 -->
<g id="edge14" class="edge">
<title>Node33&#45;&gt;Node34</title>
<path fill="none" stroke="midnightblue" d="M1052.34,-78.15C1086.19,-73.96 1128.24,-69.37 1166,-67 1906.89,-20.57 4357.84,-16.83 4744.45,-16.53"/>
<polygon fill="midnightblue" stroke="midnightblue" points="1051.6,-74.72 1042.12,-79.44 1052.47,-81.66 1051.6,-74.72"/>
</g>
<!-- Node33&#45;&gt;Node35 -->
<g id="edge15" class="edge">
<title>Node33&#45;&gt;Node35</title>
<path fill="none" stroke="midnightblue" d="M941.41,-69.24C905.12,-55.11 855.92,-35.94 827.91,-25.03"/>
<polygon fill="midnightblue" stroke="midnightblue" points="940.22,-72.53 950.81,-72.9 942.76,-66.01 940.22,-72.53"/>
</g>
<!-- Node33&#45;&gt;Node28 -->
<g id="edge16" class="edge">
<title>Node33&#45;&gt;Node28</title>
<path fill="none" stroke="midnightblue" d="M981.55,-62.98C978.61,-50.01 975.15,-34.79 973.02,-25.39"/>
<polygon fill="midnightblue" stroke="midnightblue" points="978.14,-63.76 983.76,-72.73 984.96,-62.21 978.14,-63.76"/>
</g>
<!-- Node33&#45;&gt;Node30 -->
<g id="edge18" class="edge">
<title>Node33&#45;&gt;Node30</title>
<path fill="none" stroke="midnightblue" d="M1023.5,-68.22C1046.49,-56.39 1075.66,-41.37 1096.65,-30.57"/>
<polygon fill="midnightblue" stroke="midnightblue" points="1021.68,-65.21 1014.39,-72.9 1024.89,-71.44 1021.68,-65.21"/>
</g>
<!-- Node33&#45;&gt;Node29 -->
<g id="edge19" class="edge">
<title>Node33&#45;&gt;Node29</title>
<path fill="none" stroke="midnightblue" d="M1049,-70.32C1093.93,-58.23 1154.02,-42.06 1196.57,-30.61"/>
<polygon fill="midnightblue" stroke="midnightblue" points="1047.82,-67.01 1039.08,-72.99 1049.64,-73.77 1047.82,-67.01"/>
</g>
<!-- Node74&#45;&gt;Node34 -->
<g id="edge57" class="edge">
<title>Node74&#45;&gt;Node34</title>
<path fill="none" stroke="midnightblue" d="M4901.79,-145.6C4914.94,-136.98 4929.68,-124.57 4937,-109 4944.94,-92.11 4947.75,-82.26 4937,-67 4916.87,-38.4 4878.97,-25.92 4847.53,-20.5"/>
<polygon fill="midnightblue" stroke="midnightblue" points="4899.74,-142.75 4893.04,-150.96 4903.4,-148.72 4899.74,-142.75"/>
</g>
<!-- Node74&#45;&gt;Node60 -->
<g id="edge58" class="edge">
<title>Node74&#45;&gt;Node60</title>
<path fill="none" stroke="midnightblue" d="M4876,-140.74C4876,-128.91 4876,-113.88 4876,-103.08"/>
<polygon fill="midnightblue" stroke="midnightblue" points="4872.5,-140.86 4876,-150.86 4879.5,-140.86 4872.5,-140.86"/>
</g>
</g>
</svg>
