<?xml version="1.0" encoding="UTF-8" standalone="no"?>
<!DOCTYPE svg PUBLIC "-//W3C//DTD SVG 1.1//EN"
 "http://www.w3.org/Graphics/SVG/1.1/DTD/svg11.dtd">
<!-- Generated by graphviz version 3.0.0 (20220413.0242)
 -->
<!-- Title: include/f_op/f_op_draw_tag.h Pages: 1 -->
<svg width="4829pt" height="318pt"
 viewBox="0.00 0.00 4829.09 318.00" xmlns="http://www.w3.org/2000/svg" xmlns:xlink="http://www.w3.org/1999/xlink">
<g id="graph0" class="graph" transform="scale(1 1) rotate(0) translate(4 314)">
<title>include/f_op/f_op_draw_tag.h</title>
<polygon fill="white" stroke="transparent" points="-4,4 -4,-314 4825.09,-314 4825.09,4 -4,4"/>
<!-- Node1 -->
<g id="node1" class="node">
<title>Node1</title>
<g id="a_node1"><a xlink:title=" ">
<polygon fill="#bfbfbf" stroke="black" points="4516.59,-279.5 4516.59,-309.5 4633.59,-309.5 4633.59,-279.5 4516.59,-279.5"/>
<text text-anchor="start" x="4524.59" y="-297.5" font-family="Helvetica,sans-Serif" font-size="10.00">include/f_op/f_op_draw</text>
<text text-anchor="middle" x="4575.09" y="-286.5" font-family="Helvetica,sans-Serif" font-size="10.00">_tag.h</text>
</a>
</g>
</g>
<!-- Node2 -->
<g id="node2" class="node">
<title>Node2</title>
<g id="a_node2"><a xlink:href="f__op__camera__mng_8h.html" target="_top" xlink:title=" ">
<polygon fill="white" stroke="black" points="2680.09,-212.5 2680.09,-242.5 2808.09,-242.5 2808.09,-212.5 2680.09,-212.5"/>
<text text-anchor="start" x="2688.09" y="-230.5" font-family="Helvetica,sans-Serif" font-size="10.00">include/f_op/f_op_camera</text>
<text text-anchor="middle" x="2744.09" y="-219.5" font-family="Helvetica,sans-Serif" font-size="10.00">_mng.h</text>
</a>
</g>
</g>
<!-- Node1&#45;&gt;Node2 -->
<g id="edge1" class="edge">
<title>Node1&#45;&gt;Node2</title>
<path fill="none" stroke="midnightblue" d="M4506.1,-291.05C4215.12,-280.72 3090.14,-240.78 2808.37,-230.78"/>
<polygon fill="midnightblue" stroke="midnightblue" points="4506.38,-294.56 4516.5,-291.42 4506.63,-287.57 4506.38,-294.56"/>
</g>
<!-- Node55 -->
<g id="node23" class="node">
<title>Node55</title>
<g id="a_node23"><a xlink:href="f__op__camera_8cpp.html" target="_top" xlink:title=" ">
<polygon fill="white" stroke="black" points="4221.59,-6 4221.59,-25 4350.59,-25 4350.59,-6 4221.59,-6"/>
<text text-anchor="middle" x="4286.09" y="-13" font-family="Helvetica,sans-Serif" font-size="10.00">src/f_op/f_op_camera.cpp</text>
</a>
</g>
</g>
<!-- Node1&#45;&gt;Node55 -->
<g id="edge62" class="edge">
<title>Node1&#45;&gt;Node55</title>
<path fill="none" stroke="midnightblue" d="M4579.25,-269.51C4585.73,-223.51 4592.48,-122.54 4539.09,-67 4513.63,-40.52 4416.96,-27.24 4350.77,-21.12"/>
<polygon fill="midnightblue" stroke="midnightblue" points="4575.78,-269.05 4577.72,-279.47 4582.7,-270.11 4575.78,-269.05"/>
</g>
<!-- Node96 -->
<g id="node47" class="node">
<title>Node96</title>
<g id="a_node47"><a xlink:href="f__ap__game_8cpp.html" target="_top" xlink:title=" ">
<polygon fill="white" stroke="black" points="4197.59,-151 4197.59,-170 4318.59,-170 4318.59,-151 4197.59,-151"/>
<text text-anchor="middle" x="4258.09" y="-158" font-family="Helvetica,sans-Serif" font-size="10.00">src/f_ap/f_ap_game.cpp</text>
</a>
</g>
</g>
<!-- Node1&#45;&gt;Node96 -->
<g id="edge61" class="edge">
<title>Node1&#45;&gt;Node96</title>
<path fill="none" stroke="midnightblue" d="M4532.16,-275.62C4463.1,-246.87 4329.92,-191.41 4278.78,-170.12"/>
<polygon fill="midnightblue" stroke="midnightblue" points="4530.89,-278.89 4541.46,-279.5 4533.58,-272.42 4530.89,-278.89"/>
</g>
<!-- Node98 -->
<g id="node49" class="node">
<title>Node98</title>
<g id="a_node49"><a xlink:href="f__op__draw__iter_8cpp.html" target="_top" xlink:title=" ">
<polygon fill="white" stroke="black" points="4603.09,-212.5 4603.09,-242.5 4703.09,-242.5 4703.09,-212.5 4603.09,-212.5"/>
<text text-anchor="start" x="4611.09" y="-230.5" font-family="Helvetica,sans-Serif" font-size="10.00">src/f_op/f_op_draw</text>
<text text-anchor="middle" x="4653.09" y="-219.5" font-family="Helvetica,sans-Serif" font-size="10.00">_iter.cpp</text>
</a>
</g>
</g>
<!-- Node1&#45;&gt;Node98 -->
<g id="edge63" class="edge">
<title>Node1&#45;&gt;Node98</title>
<path fill="none" stroke="midnightblue" d="M4599.83,-272.88C4611.68,-263.01 4625.57,-251.43 4636.2,-242.58"/>
<polygon fill="midnightblue" stroke="midnightblue" points="4597.45,-270.31 4592.01,-279.4 4601.94,-275.68 4597.45,-270.31"/>
</g>
<!-- Node99 -->
<g id="node50" class="node">
<title>Node99</title>
<g id="a_node50"><a xlink:href="f__op__draw__tag_8cpp.html" target="_top" xlink:title=" ">
<polygon fill="white" stroke="black" points="4721.09,-212.5 4721.09,-242.5 4821.09,-242.5 4821.09,-212.5 4721.09,-212.5"/>
<text text-anchor="start" x="4729.09" y="-230.5" font-family="Helvetica,sans-Serif" font-size="10.00">src/f_op/f_op_draw</text>
<text text-anchor="middle" x="4771.09" y="-219.5" font-family="Helvetica,sans-Serif" font-size="10.00">_tag.cpp</text>
</a>
</g>
</g>
<!-- Node1&#45;&gt;Node99 -->
<g id="edge64" class="edge">
<title>Node1&#45;&gt;Node99</title>
<path fill="none" stroke="midnightblue" d="M4627.17,-276.23C4658.88,-265.71 4698.87,-252.45 4728.64,-242.58"/>
<polygon fill="midnightblue" stroke="midnightblue" points="4626.01,-272.93 4617.62,-279.4 4628.21,-279.57 4626.01,-272.93"/>
</g>
<!-- Node3 -->
<g id="node3" class="node">
<title>Node3</title>
<g id="a_node3"><a xlink:href="d__com__inf__game_8h.html" target="_top" xlink:title=" ">
<polygon fill="white" stroke="red" points="2461.09,-145.5 2461.09,-175.5 2571.09,-175.5 2571.09,-145.5 2461.09,-145.5"/>
<text text-anchor="start" x="2469.09" y="-163.5" font-family="Helvetica,sans-Serif" font-size="10.00">include/d/com/d_com</text>
<text text-anchor="middle" x="2516.09" y="-152.5" font-family="Helvetica,sans-Serif" font-size="10.00">_inf_game.h</text>
</a>
</g>
</g>
<!-- Node2&#45;&gt;Node3 -->
<g id="edge2" class="edge">
<title>Node2&#45;&gt;Node3</title>
<path fill="none" stroke="midnightblue" d="M2685.21,-209.71C2648.11,-199.14 2600.74,-185.63 2565.58,-175.61"/>
<polygon fill="midnightblue" stroke="midnightblue" points="2684.32,-213.1 2694.9,-212.48 2686.24,-206.37 2684.32,-213.1"/>
</g>
<!-- Node93 -->
<g id="node45" class="node">
<title>Node93</title>
<g id="a_node45"><a xlink:href="d__camera_8h.html" target="_top" xlink:title=" ">
<polygon fill="white" stroke="red" points="6.59,-151 6.59,-170 115.59,-170 115.59,-151 6.59,-151"/>
<text text-anchor="middle" x="61.09" y="-158" font-family="Helvetica,sans-Serif" font-size="10.00">include/d/d_camera.h</text>
</a>
</g>
</g>
<!-- Node2&#45;&gt;Node93 -->
<g id="edge53" class="edge">
<title>Node2&#45;&gt;Node93</title>
<path fill="none" stroke="midnightblue" d="M2670.01,-224.71C2278.56,-215.22 455.93,-171.07 115.82,-162.83"/>
<polygon fill="midnightblue" stroke="midnightblue" points="2670,-228.21 2680.08,-224.95 2670.17,-221.21 2670,-228.21"/>
</g>
<!-- Node95 -->
<g id="node46" class="node">
<title>Node95</title>
<g id="a_node46"><a xlink:href="f__op__camera_8h.html" target="_top" xlink:title=" ">
<polygon fill="white" stroke="black" points="3587.09,-151 3587.09,-170 3723.09,-170 3723.09,-151 3587.09,-151"/>
<text text-anchor="middle" x="3655.09" y="-158" font-family="Helvetica,sans-Serif" font-size="10.00">include/f_op/f_op_camera.h</text>
</a>
</g>
</g>
<!-- Node2&#45;&gt;Node95 -->
<g id="edge57" class="edge">
<title>Node2&#45;&gt;Node95</title>
<path fill="none" stroke="midnightblue" d="M2818.18,-221.21C2991.17,-208.87 3419.66,-178.3 3586.79,-166.37"/>
<polygon fill="midnightblue" stroke="midnightblue" points="2817.87,-217.73 2808.15,-221.93 2818.37,-224.71 2817.87,-217.73"/>
</g>
<!-- Node2&#45;&gt;Node96 -->
<g id="edge59" class="edge">
<title>Node2&#45;&gt;Node96</title>
<path fill="none" stroke="midnightblue" d="M2818.34,-223.31C3080.23,-212.07 3957.92,-174.39 4197.32,-164.11"/>
<polygon fill="midnightblue" stroke="midnightblue" points="2818.02,-219.82 2808.18,-223.75 2818.32,-226.82 2818.02,-219.82"/>
</g>
<!-- Node97 -->
<g id="node48" class="node">
<title>Node97</title>
<g id="a_node48"><a xlink:href="f__op__camera__mng_8cpp.html" target="_top" xlink:title=" ">
<polygon fill="white" stroke="black" points="2331.59,-145.5 2331.59,-175.5 2442.59,-175.5 2442.59,-145.5 2331.59,-145.5"/>
<text text-anchor="start" x="2339.59" y="-163.5" font-family="Helvetica,sans-Serif" font-size="10.00">src/f_op/f_op_camera</text>
<text text-anchor="middle" x="2387.09" y="-152.5" font-family="Helvetica,sans-Serif" font-size="10.00">_mng.cpp</text>
</a>
</g>
</g>
<!-- Node2&#45;&gt;Node97 -->
<g id="edge60" class="edge">
<title>Node2&#45;&gt;Node97</title>
<path fill="none" stroke="midnightblue" d="M2669.84,-214.67C2610.72,-205.01 2525.92,-190.61 2452.09,-176 2449.03,-175.39 2445.89,-174.75 2442.72,-174.1"/>
<polygon fill="midnightblue" stroke="midnightblue" points="2669.41,-218.15 2679.84,-216.3 2670.53,-211.24 2669.41,-218.15"/>
</g>
<!-- Node4 -->
<g id="node4" class="node">
<title>Node4</title>
<g id="a_node4"><a xlink:href="d__a__npc_8h.html" target="_top" xlink:title=" ">
<polygon fill="white" stroke="red" points="3199.59,-78.5 3199.59,-97.5 3310.59,-97.5 3310.59,-78.5 3199.59,-78.5"/>
<text text-anchor="middle" x="3255.09" y="-85.5" font-family="Helvetica,sans-Serif" font-size="10.00">include/d/a/d_a_npc.h</text>
</a>
</g>
</g>
<!-- Node3&#45;&gt;Node4 -->
<g id="edge3" class="edge">
<title>Node3&#45;&gt;Node4</title>
<path fill="none" stroke="midnightblue" d="M2581.44,-159.43C2702.57,-158.24 2969.65,-150.63 3190.09,-109 3204.24,-106.33 3219.67,-101.66 3231.94,-97.51"/>
<polygon fill="midnightblue" stroke="midnightblue" points="2581.2,-155.93 2571.23,-159.52 2581.26,-162.93 2581.2,-155.93"/>
</g>
<!-- Node10 -->
<g id="node5" class="node">
<title>Node10</title>
<g id="a_node5"><a xlink:href="d__cc__uty_8h.html" target="_top" xlink:title=" ">
<polygon fill="white" stroke="red" points="3328.59,-78.5 3328.59,-97.5 3447.59,-97.5 3447.59,-78.5 3328.59,-78.5"/>
<text text-anchor="middle" x="3388.09" y="-85.5" font-family="Helvetica,sans-Serif" font-size="10.00">include/d/cc/d_cc_uty.h</text>
</a>
</g>
</g>
<!-- Node3&#45;&gt;Node10 -->
<g id="edge4" class="edge">
<title>Node3&#45;&gt;Node10</title>
<path fill="none" stroke="midnightblue" d="M2581.45,-160.22C2719.04,-160.67 3048.17,-156.19 3319.09,-109 3334.08,-106.39 3350.45,-101.72 3363.48,-97.56"/>
<polygon fill="midnightblue" stroke="midnightblue" points="2581.11,-156.71 2571.1,-160.17 2581.08,-163.71 2581.11,-156.71"/>
</g>
<!-- Node12 -->
<g id="node6" class="node">
<title>Node12</title>
<g id="a_node6"><a xlink:href="d__item_8h.html" target="_top" xlink:title=" ">
<polygon fill="white" stroke="red" points="3656.59,-78.5 3656.59,-97.5 3751.59,-97.5 3751.59,-78.5 3656.59,-78.5"/>
<text text-anchor="middle" x="3704.09" y="-85.5" font-family="Helvetica,sans-Serif" font-size="10.00">include/d/d_item.h</text>
</a>
</g>
</g>
<!-- Node3&#45;&gt;Node12 -->
<g id="edge5" class="edge">
<title>Node3&#45;&gt;Node12</title>
<path fill="none" stroke="midnightblue" d="M2581.47,-158.86C2789.8,-156.45 3436.37,-146.1 3642.09,-109 3655.78,-106.53 3670.63,-101.82 3682.36,-97.59"/>
<polygon fill="midnightblue" stroke="midnightblue" points="2581.26,-155.36 2571.3,-158.97 2581.33,-162.36 2581.26,-155.36"/>
</g>
<!-- Node13 -->
<g id="node7" class="node">
<title>Node13</title>
<g id="a_node7"><a xlink:href="d__a__alink_8cpp.html" target="_top" xlink:title=" ">
<polygon fill="white" stroke="black" points="3700.59,-6 3700.59,-25 3809.59,-25 3809.59,-6 3700.59,-6"/>
<text text-anchor="middle" x="3755.09" y="-13" font-family="Helvetica,sans-Serif" font-size="10.00">src/d/a/d_a_alink.cpp</text>
</a>
</g>
</g>
<!-- Node3&#45;&gt;Node13 -->
<g id="edge27" class="edge">
<title>Node3&#45;&gt;Node13</title>
<path fill="none" stroke="midnightblue" d="M2581.54,-159.32C2832.17,-158.34 3718.97,-151.82 3760.09,-109 3782.14,-86.03 3767.09,-43.26 3759.14,-25.06"/>
<polygon fill="midnightblue" stroke="midnightblue" points="2581.47,-155.82 2571.48,-159.36 2581.5,-162.82 2581.47,-155.82"/>
</g>
<!-- Node14 -->
<g id="node8" class="node">
<title>Node14</title>
<g id="a_node8"><a xlink:href="d__a__obj__item_8cpp.html" target="_top" xlink:title=" ">
<polygon fill="white" stroke="black" points="3827.59,-6 3827.59,-25 3952.59,-25 3952.59,-6 3827.59,-6"/>
<text text-anchor="middle" x="3890.09" y="-13" font-family="Helvetica,sans-Serif" font-size="10.00">src/d/a/d_a_obj_item.cpp</text>
</a>
</g>
</g>
<!-- Node3&#45;&gt;Node14 -->
<g id="edge29" class="edge">
<title>Node3&#45;&gt;Node14</title>
<path fill="none" stroke="midnightblue" d="M2581.53,-159.36C2824.71,-158.5 3668.1,-152.38 3780.09,-109 3803.82,-99.81 3859.58,-46.53 3881.25,-25.26"/>
<polygon fill="midnightblue" stroke="midnightblue" points="2581.41,-155.86 2571.42,-159.39 2581.44,-162.86 2581.41,-155.86"/>
</g>
<!-- Node15 -->
<g id="node9" class="node">
<title>Node15</title>
<g id="a_node9"><a xlink:href="d__com__inf__game_8cpp.html" target="_top" xlink:title=" ">
<polygon fill="white" stroke="black" points="3574.09,-0.5 3574.09,-30.5 3682.09,-30.5 3682.09,-0.5 3574.09,-0.5"/>
<text text-anchor="start" x="3582.09" y="-18.5" font-family="Helvetica,sans-Serif" font-size="10.00">src/d/com/d_com_inf</text>
<text text-anchor="middle" x="3628.09" y="-7.5" font-family="Helvetica,sans-Serif" font-size="10.00">_game.cpp</text>
</a>
</g>
</g>
<!-- Node3&#45;&gt;Node15 -->
<g id="edge35" class="edge">
<title>Node3&#45;&gt;Node15</title>
<path fill="none" stroke="midnightblue" d="M2581.42,-158.35C2808.04,-154.12 3548.77,-138.13 3590.09,-109 3615.91,-90.8 3624.22,-51.72 3626.87,-30.66"/>
<polygon fill="midnightblue" stroke="midnightblue" points="2581.27,-154.85 2571.34,-158.54 2581.4,-161.85 2581.27,-154.85"/>
</g>
<!-- Node18 -->
<g id="node10" class="node">
<title>Node18</title>
<g id="a_node10"><a xlink:href="d__kantera__icon__meter_8h.html" target="_top" xlink:title=" ">
<polygon fill="white" stroke="red" points="4015.59,-73 4015.59,-103 4116.59,-103 4116.59,-73 4015.59,-73"/>
<text text-anchor="start" x="4023.59" y="-91" font-family="Helvetica,sans-Serif" font-size="10.00">include/d/d_kantera</text>
<text text-anchor="middle" x="4066.09" y="-80" font-family="Helvetica,sans-Serif" font-size="10.00">_icon_meter.h</text>
</a>
</g>
</g>
<!-- Node3&#45;&gt;Node18 -->
<g id="edge9" class="edge">
<title>Node3&#45;&gt;Node18</title>
<path fill="none" stroke="midnightblue" d="M2581.41,-159.78C2831.3,-160.45 3726.55,-159.24 4006.09,-109 4013.76,-107.62 4021.79,-105.47 4029.39,-103.08"/>
<polygon fill="midnightblue" stroke="midnightblue" points="2581.41,-156.28 2571.4,-159.75 2581.39,-163.28 2581.41,-156.28"/>
</g>
<!-- Node21 -->
<g id="node11" class="node">
<title>Node21</title>
<g id="a_node11"><a xlink:href="d__model_8h.html" target="_top" xlink:title=" ">
<polygon fill="white" stroke="red" points="4134.59,-78.5 4134.59,-97.5 4237.59,-97.5 4237.59,-78.5 4134.59,-78.5"/>
<text text-anchor="middle" x="4186.09" y="-85.5" font-family="Helvetica,sans-Serif" font-size="10.00">include/d/d_model.h</text>
</a>
</g>
</g>
<!-- Node3&#45;&gt;Node21 -->
<g id="edge10" class="edge">
<title>Node3&#45;&gt;Node21</title>
<path fill="none" stroke="midnightblue" d="M2581.31,-158.55C2863.44,-154.3 3971.55,-136 4125.09,-109 4138.7,-106.61 4153.44,-101.84 4165.01,-97.56"/>
<polygon fill="midnightblue" stroke="midnightblue" points="2581.18,-155.05 2571.23,-158.7 2581.28,-162.05 2581.18,-155.05"/>
</g>
<!-- Node23 -->
<g id="node12" class="node">
<title>Node23</title>
<g id="a_node12"><a xlink:href="d__name_8h.html" target="_top" xlink:title=" ">
<polygon fill="white" stroke="red" points="4255.59,-78.5 4255.59,-97.5 4356.59,-97.5 4356.59,-78.5 4255.59,-78.5"/>
<text text-anchor="middle" x="4306.09" y="-85.5" font-family="Helvetica,sans-Serif" font-size="10.00">include/d/d_name.h</text>
</a>
</g>
</g>
<!-- Node3&#45;&gt;Node23 -->
<g id="edge11" class="edge">
<title>Node3&#45;&gt;Node23</title>
<path fill="none" stroke="midnightblue" d="M2581.31,-158.72C2876.49,-155.06 4080.15,-138.42 4246.09,-109 4259.49,-106.62 4273.99,-101.86 4285.37,-97.57"/>
<polygon fill="midnightblue" stroke="midnightblue" points="2581.15,-155.23 2571.2,-158.85 2581.24,-162.22 2581.15,-155.23"/>
</g>
<!-- Node25 -->
<g id="node13" class="node">
<title>Node25</title>
<g id="a_node13"><a xlink:href="d__file__sel__info_8h.html" target="_top" xlink:title=" ">
<polygon fill="white" stroke="red" points="545.09,-73 545.09,-103 641.09,-103 641.09,-73 545.09,-73"/>
<text text-anchor="start" x="553.09" y="-91" font-family="Helvetica,sans-Serif" font-size="10.00">include/d/file/d_file</text>
<text text-anchor="middle" x="593.09" y="-80" font-family="Helvetica,sans-Serif" font-size="10.00">_sel_info.h</text>
</a>
</g>
</g>
<!-- Node3&#45;&gt;Node25 -->
<g id="edge12" class="edge">
<title>Node3&#45;&gt;Node25</title>
<path fill="none" stroke="midnightblue" d="M2450.94,-145.24C2037.42,-98.51 1040.84,-179.59 650.09,-109 642.66,-107.66 634.9,-105.49 627.58,-103.06"/>
<polygon fill="midnightblue" stroke="midnightblue" points="2450.56,-148.72 2460.9,-146.4 2451.37,-141.77 2450.56,-148.72"/>
</g>
<!-- Node27 -->
<g id="node14" class="node">
<title>Node27</title>
<g id="a_node14"><a xlink:href="d__menu__save_8cpp.html" target="_top" xlink:title=" ">
<polygon fill="white" stroke="black" points="3408.59,-6 3408.59,-25 3555.59,-25 3555.59,-6 3408.59,-6"/>
<text text-anchor="middle" x="3482.09" y="-13" font-family="Helvetica,sans-Serif" font-size="10.00">src/d/menu/d_menu_save.cpp</text>
</a>
</g>
</g>
<!-- Node3&#45;&gt;Node27 -->
<g id="edge51" class="edge">
<title>Node3&#45;&gt;Node27</title>
<path fill="none" stroke="midnightblue" d="M2581.43,-158.83C2806.38,-156.2 3536.86,-144.91 3571.09,-109 3583.97,-95.49 3580.48,-83.13 3571.09,-67 3558.66,-45.66 3533.49,-32.61 3513.08,-25.13"/>
<polygon fill="midnightblue" stroke="midnightblue" points="2581.06,-155.33 2571.11,-158.95 2581.15,-162.33 2581.06,-155.33"/>
</g>
<!-- Node28 -->
<g id="node15" class="node">
<title>Node28</title>
<g id="a_node15"><a xlink:href="d__file__sel__warning_8h.html" target="_top" xlink:title=" ">
<polygon fill="white" stroke="red" points="3466.09,-73 3466.09,-103 3562.09,-103 3562.09,-73 3466.09,-73"/>
<text text-anchor="start" x="3474.09" y="-91" font-family="Helvetica,sans-Serif" font-size="10.00">include/d/file/d_file</text>
<text text-anchor="middle" x="3514.09" y="-80" font-family="Helvetica,sans-Serif" font-size="10.00">_sel_warning.h</text>
</a>
</g>
</g>
<!-- Node3&#45;&gt;Node28 -->
<g id="edge14" class="edge">
<title>Node3&#45;&gt;Node28</title>
<path fill="none" stroke="midnightblue" d="M2581.45,-158.35C2765.94,-154.73 3288.14,-141.8 3456.09,-109 3463.41,-107.57 3471.06,-105.43 3478.31,-103.07"/>
<polygon fill="midnightblue" stroke="midnightblue" points="2581.29,-154.85 2571.36,-158.55 2581.42,-161.85 2581.29,-154.85"/>
</g>
<!-- Node30 -->
<g id="node16" class="node">
<title>Node30</title>
<g id="a_node16"><a xlink:href="d__meter2_8h.html" target="_top" xlink:title=" ">
<polygon fill="white" stroke="red" points="4375.09,-78.5 4375.09,-97.5 4509.09,-97.5 4509.09,-78.5 4375.09,-78.5"/>
<text text-anchor="middle" x="4442.09" y="-85.5" font-family="Helvetica,sans-Serif" font-size="10.00">include/d/meter/d_meter2.h</text>
</a>
</g>
</g>
<!-- Node3&#45;&gt;Node30 -->
<g id="edge16" class="edge">
<title>Node3&#45;&gt;Node30</title>
<path fill="none" stroke="midnightblue" d="M2581.18,-158.6C2888.41,-154.22 4185.89,-134.38 4365.09,-109 4382.04,-106.6 4400.64,-101.83 4415.31,-97.55"/>
<polygon fill="midnightblue" stroke="midnightblue" points="2581.05,-155.1 2571.1,-158.74 2581.15,-162.1 2581.05,-155.1"/>
</g>
<!-- Node38 -->
<g id="node17" class="node">
<title>Node38</title>
<g id="a_node17"><a xlink:href="d__msg__object_8h.html" target="_top" xlink:title=" ">
<polygon fill="white" stroke="red" points="209.09,-73 209.09,-103 319.09,-103 319.09,-73 209.09,-73"/>
<text text-anchor="start" x="217.09" y="-91" font-family="Helvetica,sans-Serif" font-size="10.00">include/d/msg/d_msg</text>
<text text-anchor="middle" x="264.09" y="-80" font-family="Helvetica,sans-Serif" font-size="10.00">_object.h</text>
</a>
</g>
</g>
<!-- Node3&#45;&gt;Node38 -->
<g id="edge17" class="edge">
<title>Node3&#45;&gt;Node38</title>
<path fill="none" stroke="midnightblue" d="M2450.66,-145.2C1966.89,-90.73 795.27,-178.64 333.09,-109 324.21,-107.66 314.86,-105.49 306.02,-103.07"/>
<polygon fill="midnightblue" stroke="midnightblue" points="2450.56,-148.72 2460.9,-146.39 2451.37,-141.76 2450.56,-148.72"/>
</g>
<!-- Node43 -->
<g id="node18" class="node">
<title>Node43</title>
<g id="a_node18"><a xlink:href="d__event_8cpp.html" target="_top" xlink:title=" ">
<polygon fill="white" stroke="black" points="96.59,-6 96.59,-25 217.59,-25 217.59,-6 96.59,-6"/>
<text text-anchor="middle" x="157.09" y="-13" font-family="Helvetica,sans-Serif" font-size="10.00">src/d/event/d_event.cpp</text>
</a>
</g>
</g>
<!-- Node3&#45;&gt;Node43 -->
<g id="edge44" class="edge">
<title>Node3&#45;&gt;Node43</title>
<path fill="none" stroke="midnightblue" d="M2450.72,-145.71C2275.74,-137.92 251.13,-142.14 200.09,-109 170.38,-89.71 160.85,-44.1 158.1,-25.07"/>
<polygon fill="midnightblue" stroke="midnightblue" points="2450.69,-149.22 2460.9,-146.39 2451.15,-142.23 2450.69,-149.22"/>
</g>
<!-- Node44 -->
<g id="node19" class="node">
<title>Node44</title>
<g id="a_node19"><a xlink:href="d__event__data_8cpp.html" target="_top" xlink:title=" ">
<polygon fill="white" stroke="black" points="235.59,-0.5 235.59,-30.5 338.59,-30.5 338.59,-0.5 235.59,-0.5"/>
<text text-anchor="start" x="243.59" y="-18.5" font-family="Helvetica,sans-Serif" font-size="10.00">src/d/event/d_event</text>
<text text-anchor="middle" x="287.09" y="-7.5" font-family="Helvetica,sans-Serif" font-size="10.00">_data.cpp</text>
</a>
</g>
</g>
<!-- Node3&#45;&gt;Node44 -->
<g id="edge45" class="edge">
<title>Node3&#45;&gt;Node44</title>
<path fill="none" stroke="midnightblue" d="M2450.77,-145.5C2258.5,-132.42 468.67,-157.37 366.09,-109 361.5,-106.84 319.36,-55.89 298.57,-30.55"/>
<polygon fill="midnightblue" stroke="midnightblue" points="2450.63,-149 2460.9,-146.39 2451.25,-142.03 2450.63,-149"/>
</g>
<!-- Node45 -->
<g id="node20" class="node">
<title>Node45</title>
<g id="a_node20"><a xlink:href="d__kankyo_8cpp.html" target="_top" xlink:title=" ">
<polygon fill="white" stroke="black" points="392.09,-6 392.09,-25 526.09,-25 526.09,-6 392.09,-6"/>
<text text-anchor="middle" x="459.09" y="-13" font-family="Helvetica,sans-Serif" font-size="10.00">src/d/kankyo/d_kankyo.cpp</text>
</a>
</g>
</g>
<!-- Node3&#45;&gt;Node45 -->
<g id="edge48" class="edge">
<title>Node3&#45;&gt;Node45</title>
<path fill="none" stroke="midnightblue" d="M2450.74,-145.51C2269.28,-133.34 629.85,-154.03 536.09,-109 526.39,-104.34 482.44,-47.28 465.64,-25.17"/>
<polygon fill="midnightblue" stroke="midnightblue" points="2450.63,-149.01 2460.9,-146.4 2451.24,-142.04 2450.63,-149.01"/>
</g>
<!-- Node51 -->
<g id="node21" class="node">
<title>Node51</title>
<g id="a_node21"><a xlink:href="d__s__logo_8h.html" target="_top" xlink:title=" ">
<polygon fill="white" stroke="red" points="375.59,-78.5 375.59,-97.5 488.59,-97.5 488.59,-78.5 375.59,-78.5"/>
<text text-anchor="middle" x="432.09" y="-85.5" font-family="Helvetica,sans-Serif" font-size="10.00">include/d/s/d_s_logo.h</text>
</a>
</g>
</g>
<!-- Node3&#45;&gt;Node51 -->
<g id="edge21" class="edge">
<title>Node3&#45;&gt;Node51</title>
<path fill="none" stroke="midnightblue" d="M2450.8,-145.22C2004.73,-94.79 928.17,-171.74 503.09,-109 487.25,-106.66 469.95,-101.84 456.39,-97.52"/>
<polygon fill="midnightblue" stroke="midnightblue" points="2450.56,-148.72 2460.9,-146.4 2451.37,-141.76 2450.56,-148.72"/>
</g>
<!-- Node53 -->
<g id="node22" class="node">
<title>Node53</title>
<g id="a_node22"><a xlink:href="d__s__play_8h.html" target="_top" xlink:title=" ">
<polygon fill="white" stroke="red" points="3884.59,-78.5 3884.59,-97.5 3997.59,-97.5 3997.59,-78.5 3884.59,-78.5"/>
<text text-anchor="middle" x="3941.09" y="-85.5" font-family="Helvetica,sans-Serif" font-size="10.00">include/d/s/d_s_play.h</text>
</a>
</g>
</g>
<!-- Node3&#45;&gt;Node53 -->
<g id="edge22" class="edge">
<title>Node3&#45;&gt;Node53</title>
<path fill="none" stroke="midnightblue" d="M2581.55,-159.11C2816.59,-157.4 3617.36,-148.73 3870.09,-109 3885.77,-106.53 3902.92,-101.76 3916.44,-97.5"/>
<polygon fill="midnightblue" stroke="midnightblue" points="2581.42,-155.61 2571.44,-159.18 2581.47,-162.61 2581.42,-155.61"/>
</g>
<!-- Node3&#45;&gt;Node55 -->
<g id="edge52" class="edge">
<title>Node3&#45;&gt;Node55</title>
<path fill="none" stroke="midnightblue" d="M2581.55,-159.35C2829.86,-158.44 3705.39,-152.18 3822.09,-109 3850.27,-98.57 3847.36,-78.6 3875.09,-67 3936.1,-41.48 4121.73,-26.55 4221.32,-20.18"/>
<polygon fill="midnightblue" stroke="midnightblue" points="2581.23,-155.85 2571.25,-159.38 2581.26,-162.85 2581.23,-155.85"/>
</g>
<!-- Node57 -->
<g id="node24" class="node">
<title>Node57</title>
<g id="a_node24"><a xlink:href="d__msg__scrn__base_8h.html" target="_top" xlink:title=" ">
<polygon fill="white" stroke="red" points="659.59,-73 659.59,-103 758.59,-103 758.59,-73 659.59,-73"/>
<text text-anchor="start" x="667.59" y="-91" font-family="Helvetica,sans-Serif" font-size="10.00">include/msg/scrn/d</text>
<text text-anchor="middle" x="709.09" y="-80" font-family="Helvetica,sans-Serif" font-size="10.00">_msg_scrn_base.h</text>
</a>
</g>
</g>
<!-- Node3&#45;&gt;Node57 -->
<g id="edge24" class="edge">
<title>Node3&#45;&gt;Node57</title>
<path fill="none" stroke="midnightblue" d="M2450.72,-145.21C2063.18,-101.34 1133.28,-173.23 768.09,-109 760.42,-107.65 752.4,-105.48 744.83,-103.05"/>
<polygon fill="midnightblue" stroke="midnightblue" points="2450.56,-148.72 2460.9,-146.41 2451.37,-141.77 2450.56,-148.72"/>
</g>
<!-- Node61 -->
<g id="node25" class="node">
<title>Node61</title>
<g id="a_node25"><a xlink:href="d__a__tag__telop_8h.html" target="_top" xlink:title=" ">
<polygon fill="white" stroke="black" points="777.09,-67.5 777.09,-108.5 895.09,-108.5 895.09,-67.5 777.09,-67.5"/>
<text text-anchor="start" x="785.09" y="-96.5" font-family="Helvetica,sans-Serif" font-size="10.00">include/rel/d/a/tag</text>
<text text-anchor="start" x="785.09" y="-85.5" font-family="Helvetica,sans-Serif" font-size="10.00">/d_a_tag_telop/d_a_tag</text>
<text text-anchor="middle" x="836.09" y="-74.5" font-family="Helvetica,sans-Serif" font-size="10.00">_telop.h</text>
</a>
</g>
</g>
<!-- Node3&#45;&gt;Node61 -->
<g id="edge25" class="edge">
<title>Node3&#45;&gt;Node61</title>
<path fill="none" stroke="midnightblue" d="M2450.73,-145.21C2093.3,-104.47 1240.62,-161.47 904.09,-109 901.17,-108.55 898.2,-108 895.22,-107.38"/>
<polygon fill="midnightblue" stroke="midnightblue" points="2450.56,-148.72 2460.9,-146.42 2451.38,-141.77 2450.56,-148.72"/>
</g>
<!-- Node62 -->
<g id="node26" class="node">
<title>Node62</title>
<g id="a_node26"><a xlink:href="c__dylink_8cpp.html" target="_top" xlink:title=" ">
<polygon fill="white" stroke="black" points="913.59,-78.5 913.59,-97.5 1008.59,-97.5 1008.59,-78.5 913.59,-78.5"/>
<text text-anchor="middle" x="961.09" y="-85.5" font-family="Helvetica,sans-Serif" font-size="10.00">src/c/c_dylink.cpp</text>
</a>
</g>
</g>
<!-- Node3&#45;&gt;Node62 -->
<g id="edge26" class="edge">
<title>Node3&#45;&gt;Node62</title>
<path fill="none" stroke="midnightblue" d="M2450.72,-145.21C2118.5,-107.36 1328.2,-165.84 1018.09,-109 1005.3,-106.66 991.52,-101.89 980.72,-97.6"/>
<polygon fill="midnightblue" stroke="midnightblue" points="2450.55,-148.72 2460.9,-146.42 2451.38,-141.77 2450.55,-148.72"/>
</g>
<!-- Node63 -->
<g id="node27" class="node">
<title>Node63</title>
<g id="a_node27"><a xlink:href="d__a__itembase_8cpp.html" target="_top" xlink:title=" ">
<polygon fill="white" stroke="black" points="1027.09,-78.5 1027.09,-97.5 1155.09,-97.5 1155.09,-78.5 1027.09,-78.5"/>
<text text-anchor="middle" x="1091.09" y="-85.5" font-family="Helvetica,sans-Serif" font-size="10.00">src/d/a/d_a_itembase.cpp</text>
</a>
</g>
</g>
<!-- Node3&#45;&gt;Node63 -->
<g id="edge28" class="edge">
<title>Node3&#45;&gt;Node63</title>
<path fill="none" stroke="midnightblue" d="M2450.78,-145.19C1881.43,-75.77 1726.77,-192.71 1164.09,-109 1147.97,-106.6 1130.34,-101.83 1116.44,-97.56"/>
<polygon fill="midnightblue" stroke="midnightblue" points="2450.54,-148.68 2460.9,-146.43 2451.4,-141.74 2450.54,-148.68"/>
</g>
<!-- Node64 -->
<g id="node28" class="node">
<title>Node64</title>
<g id="a_node28"><a xlink:href="d__a__player_8cpp.html" target="_top" xlink:title=" ">
<polygon fill="white" stroke="black" points="1173.09,-78.5 1173.09,-97.5 1287.09,-97.5 1287.09,-78.5 1173.09,-78.5"/>
<text text-anchor="middle" x="1230.09" y="-85.5" font-family="Helvetica,sans-Serif" font-size="10.00">src/d/a/d_a_player.cpp</text>
</a>
</g>
</g>
<!-- Node3&#45;&gt;Node64 -->
<g id="edge30" class="edge">
<title>Node3&#45;&gt;Node64</title>
<path fill="none" stroke="midnightblue" d="M2450.67,-145.17C1939.69,-82.27 1799.55,-191.64 1296.09,-109 1281.44,-106.6 1265.49,-101.83 1252.95,-97.55"/>
<polygon fill="midnightblue" stroke="midnightblue" points="2450.54,-148.68 2460.89,-146.45 2451.4,-141.73 2450.54,-148.68"/>
</g>
<!-- Node65 -->
<g id="node29" class="node">
<title>Node65</title>
<g id="a_node29"><a xlink:href="d__bg__s_8cpp.html" target="_top" xlink:title=" ">
<polygon fill="white" stroke="black" points="1305.09,-78.5 1305.09,-97.5 1409.09,-97.5 1409.09,-78.5 1305.09,-78.5"/>
<text text-anchor="middle" x="1357.09" y="-85.5" font-family="Helvetica,sans-Serif" font-size="10.00">src/d/bg/d_bg_s.cpp</text>
</a>
</g>
</g>
<!-- Node3&#45;&gt;Node65 -->
<g id="edge31" class="edge">
<title>Node3&#45;&gt;Node65</title>
<path fill="none" stroke="midnightblue" d="M2450.72,-145.17C1993.56,-88.23 1867.08,-188.77 1418.09,-109 1404.48,-106.58 1389.74,-101.81 1378.16,-97.54"/>
<polygon fill="midnightblue" stroke="midnightblue" points="2450.53,-148.68 2460.89,-146.46 2451.41,-141.73 2450.53,-148.68"/>
</g>
<!-- Node66 -->
<g id="node30" class="node">
<title>Node66</title>
<g id="a_node30"><a xlink:href="d__bg__s__movebg__actor_8cpp.html" target="_top" xlink:title=" ">
<polygon fill="white" stroke="black" points="1427.09,-73 1427.09,-103 1553.09,-103 1553.09,-73 1427.09,-73"/>
<text text-anchor="start" x="1435.09" y="-91" font-family="Helvetica,sans-Serif" font-size="10.00">src/d/bg/d_bg_s_movebg</text>
<text text-anchor="middle" x="1490.09" y="-80" font-family="Helvetica,sans-Serif" font-size="10.00">_actor.cpp</text>
</a>
</g>
</g>
<!-- Node3&#45;&gt;Node66 -->
<g id="edge32" class="edge">
<title>Node3&#45;&gt;Node66</title>
<path fill="none" stroke="midnightblue" d="M2450.94,-145.19C2057.2,-95.01 1949.5,-169.82 1562.09,-109 1552.99,-107.57 1543.4,-105.4 1534.29,-103"/>
<polygon fill="midnightblue" stroke="midnightblue" points="2450.52,-148.67 2460.89,-146.48 2451.42,-141.73 2450.52,-148.67"/>
</g>
<!-- Node67 -->
<g id="node31" class="node">
<title>Node67</title>
<g id="a_node31"><a xlink:href="d__bg__w_8cpp.html" target="_top" xlink:title=" ">
<polygon fill="white" stroke="black" points="1571.59,-78.5 1571.59,-97.5 1678.59,-97.5 1678.59,-78.5 1571.59,-78.5"/>
<text text-anchor="middle" x="1625.09" y="-85.5" font-family="Helvetica,sans-Serif" font-size="10.00">src/d/bg/d_bg_w.cpp</text>
</a>
</g>
</g>
<!-- Node3&#45;&gt;Node67 -->
<g id="edge33" class="edge">
<title>Node3&#45;&gt;Node67</title>
<path fill="none" stroke="midnightblue" d="M2450.81,-145.17C2112.78,-101.21 2018.99,-168.28 1688.09,-109 1674.19,-106.51 1659.11,-101.8 1647.18,-97.57"/>
<polygon fill="midnightblue" stroke="midnightblue" points="2450.51,-148.66 2460.89,-146.51 2451.43,-141.72 2450.51,-148.66"/>
</g>
<!-- Node68 -->
<g id="node32" class="node">
<title>Node68</title>
<g id="a_node32"><a xlink:href="d__cc__s_8cpp.html" target="_top" xlink:title=" ">
<polygon fill="white" stroke="black" points="1697.09,-78.5 1697.09,-97.5 1801.09,-97.5 1801.09,-78.5 1697.09,-78.5"/>
<text text-anchor="middle" x="1749.09" y="-85.5" font-family="Helvetica,sans-Serif" font-size="10.00">src/d/cc/d_cc_s.cpp</text>
</a>
</g>
</g>
<!-- Node3&#45;&gt;Node68 -->
<g id="edge34" class="edge">
<title>Node3&#45;&gt;Node68</title>
<path fill="none" stroke="midnightblue" d="M2450.69,-145.15C2166.6,-107.11 2087.19,-161.28 1810.09,-109 1796.62,-106.46 1782.01,-101.74 1770.47,-97.53"/>
<polygon fill="midnightblue" stroke="midnightblue" points="2450.5,-148.65 2460.88,-146.54 2451.45,-141.72 2450.5,-148.65"/>
</g>
<!-- Node69 -->
<g id="node33" class="node">
<title>Node69</title>
<g id="a_node33"><a xlink:href="d__com__static_8cpp.html" target="_top" xlink:title=" ">
<polygon fill="white" stroke="black" points="1819.09,-78.5 1819.09,-97.5 1959.09,-97.5 1959.09,-78.5 1819.09,-78.5"/>
<text text-anchor="middle" x="1889.09" y="-85.5" font-family="Helvetica,sans-Serif" font-size="10.00">src/d/com/d_com_static.cpp</text>
</a>
</g>
</g>
<!-- Node3&#45;&gt;Node69 -->
<g id="edge36" class="edge">
<title>Node3&#45;&gt;Node69</title>
<path fill="none" stroke="midnightblue" d="M2450.87,-145.15C2236.37,-114.38 2177.34,-143.02 1968.09,-109 1951.19,-106.25 1932.62,-101.63 1917.73,-97.53"/>
<polygon fill="midnightblue" stroke="midnightblue" points="2450.47,-148.63 2460.87,-146.61 2451.48,-141.7 2450.47,-148.63"/>
</g>
<!-- Node70 -->
<g id="node34" class="node">
<title>Node70</title>
<g id="a_node34"><a xlink:href="d__eye__hl_8cpp.html" target="_top" xlink:title=" ">
<polygon fill="white" stroke="black" points="1977.09,-78.5 1977.09,-97.5 2075.09,-97.5 2075.09,-78.5 1977.09,-78.5"/>
<text text-anchor="middle" x="2026.09" y="-85.5" font-family="Helvetica,sans-Serif" font-size="10.00">src/d/d_eye_hl.cpp</text>
</a>
</g>
</g>
<!-- Node3&#45;&gt;Node70 -->
<g id="edge37" class="edge">
<title>Node3&#45;&gt;Node70</title>
<path fill="none" stroke="midnightblue" d="M2450.95,-145.14C2287.45,-120.06 2241.08,-143.27 2084.09,-109 2071.5,-106.25 2057.85,-101.63 2046.96,-97.53"/>
<polygon fill="midnightblue" stroke="midnightblue" points="2450.44,-148.6 2460.86,-146.7 2451.52,-141.69 2450.44,-148.6"/>
</g>
<!-- Node71 -->
<g id="node35" class="node">
<title>Node71</title>
<g id="a_node35"><a xlink:href="d__kyeff_8cpp.html" target="_top" xlink:title=" ">
<polygon fill="white" stroke="black" points="2093.09,-78.5 2093.09,-97.5 2183.09,-97.5 2183.09,-78.5 2093.09,-78.5"/>
<text text-anchor="middle" x="2138.09" y="-85.5" font-family="Helvetica,sans-Serif" font-size="10.00">src/d/d_kyeff.cpp</text>
</a>
</g>
</g>
<!-- Node3&#45;&gt;Node71 -->
<g id="edge38" class="edge">
<title>Node3&#45;&gt;Node71</title>
<path fill="none" stroke="midnightblue" d="M2450.85,-145.08C2334.92,-125.01 2301.71,-136.57 2192.09,-109 2180.55,-106.1 2168.07,-101.57 2158.02,-97.56"/>
<polygon fill="midnightblue" stroke="midnightblue" points="2450.37,-148.55 2460.83,-146.85 2451.6,-141.66 2450.37,-148.55"/>
</g>
<!-- Node72 -->
<g id="node36" class="node">
<title>Node72</title>
<g id="a_node36"><a xlink:href="d__resorce_8cpp.html" target="_top" xlink:title=" ">
<polygon fill="white" stroke="black" points="2201.09,-78.5 2201.09,-97.5 2303.09,-97.5 2303.09,-78.5 2201.09,-78.5"/>
<text text-anchor="middle" x="2252.09" y="-85.5" font-family="Helvetica,sans-Serif" font-size="10.00">src/d/d_resorce.cpp</text>
</a>
</g>
</g>
<!-- Node3&#45;&gt;Node72 -->
<g id="edge39" class="edge">
<title>Node3&#45;&gt;Node72</title>
<path fill="none" stroke="midnightblue" d="M2450.84,-144.74C2410.63,-135.29 2358.12,-122.35 2312.09,-109 2300.17,-105.54 2287.08,-101.24 2276.18,-97.52"/>
<polygon fill="midnightblue" stroke="midnightblue" points="2450.26,-148.19 2460.79,-147.06 2451.85,-141.38 2450.26,-148.19"/>
</g>
<!-- Node73 -->
<g id="node37" class="node">
<title>Node73</title>
<g id="a_node37"><a xlink:href="d__simple__model_8cpp.html" target="_top" xlink:title=" ">
<polygon fill="white" stroke="black" points="2321.09,-78.5 2321.09,-97.5 2451.09,-97.5 2451.09,-78.5 2321.09,-78.5"/>
<text text-anchor="middle" x="2386.09" y="-85.5" font-family="Helvetica,sans-Serif" font-size="10.00">src/d/d_simple_model.cpp</text>
</a>
</g>
</g>
<!-- Node3&#45;&gt;Node73 -->
<g id="edge40" class="edge">
<title>Node3&#45;&gt;Node73</title>
<path fill="none" stroke="midnightblue" d="M2480.99,-140.47C2455.19,-126.47 2421.34,-108.12 2401.82,-97.53"/>
<polygon fill="midnightblue" stroke="midnightblue" points="2479.63,-143.71 2490.09,-145.4 2482.97,-137.56 2479.63,-143.71"/>
</g>
<!-- Node74 -->
<g id="node38" class="node">
<title>Node74</title>
<g id="a_node38"><a xlink:href="d__stage_8cpp.html" target="_top" xlink:title=" ">
<polygon fill="white" stroke="black" points="2469.09,-78.5 2469.09,-97.5 2563.09,-97.5 2563.09,-78.5 2469.09,-78.5"/>
<text text-anchor="middle" x="2516.09" y="-85.5" font-family="Helvetica,sans-Serif" font-size="10.00">src/d/d_stage.cpp</text>
</a>
</g>
</g>
<!-- Node3&#45;&gt;Node74 -->
<g id="edge41" class="edge">
<title>Node3&#45;&gt;Node74</title>
<path fill="none" stroke="midnightblue" d="M2516.09,-135.09C2516.09,-122.21 2516.09,-107.2 2516.09,-97.89"/>
<polygon fill="midnightblue" stroke="midnightblue" points="2512.59,-135.23 2516.09,-145.23 2519.59,-135.23 2512.59,-135.23"/>
</g>
<!-- Node75 -->
<g id="node39" class="node">
<title>Node75</title>
<g id="a_node39"><a xlink:href="d__timer_8cpp.html" target="_top" xlink:title=" ">
<polygon fill="white" stroke="black" points="2581.09,-78.5 2581.09,-97.5 2673.09,-97.5 2673.09,-78.5 2581.09,-78.5"/>
<text text-anchor="middle" x="2627.09" y="-85.5" font-family="Helvetica,sans-Serif" font-size="10.00">src/d/d_timer.cpp</text>
</a>
</g>
</g>
<!-- Node3&#45;&gt;Node75 -->
<g id="edge42" class="edge">
<title>Node3&#45;&gt;Node75</title>
<path fill="none" stroke="midnightblue" d="M2546.93,-139.91C2568.85,-125.99 2597.21,-107.98 2613.65,-97.53"/>
<polygon fill="midnightblue" stroke="midnightblue" points="2544.85,-137.09 2538.28,-145.4 2548.6,-143 2544.85,-137.09"/>
</g>
<!-- Node76 -->
<g id="node40" class="node">
<title>Node76</title>
<g id="a_node40"><a xlink:href="d__tresure_8cpp.html" target="_top" xlink:title=" ">
<polygon fill="white" stroke="black" points="2691.09,-78.5 2691.09,-97.5 2791.09,-97.5 2791.09,-78.5 2691.09,-78.5"/>
<text text-anchor="middle" x="2741.09" y="-85.5" font-family="Helvetica,sans-Serif" font-size="10.00">src/d/d_tresure.cpp</text>
</a>
</g>
</g>
<!-- Node3&#45;&gt;Node76 -->
<g id="edge43" class="edge">
<title>Node3&#45;&gt;Node76</title>
<path fill="none" stroke="midnightblue" d="M2573.45,-142.53C2605.49,-132.94 2646.09,-120.57 2682.09,-109 2693.41,-105.36 2705.9,-101.15 2716.46,-97.54"/>
<polygon fill="midnightblue" stroke="midnightblue" points="2572.37,-139.2 2563.8,-145.42 2574.38,-145.91 2572.37,-139.2"/>
</g>
<!-- Node77 -->
<g id="node41" class="node">
<title>Node77</title>
<g id="a_node41"><a xlink:href="d__event__lib_8cpp.html" target="_top" xlink:title=" ">
<polygon fill="white" stroke="black" points="2809.59,-73 2809.59,-103 2912.59,-103 2912.59,-73 2809.59,-73"/>
<text text-anchor="start" x="2817.59" y="-91" font-family="Helvetica,sans-Serif" font-size="10.00">src/d/event/d_event</text>
<text text-anchor="middle" x="2861.09" y="-80" font-family="Helvetica,sans-Serif" font-size="10.00">_lib.cpp</text>
</a>
</g>
</g>
<!-- Node3&#45;&gt;Node77 -->
<g id="edge46" class="edge">
<title>Node3&#45;&gt;Node77</title>
<path fill="none" stroke="midnightblue" d="M2581.4,-150.56C2639.32,-142 2725.98,-127.64 2800.09,-109 2806.9,-107.29 2814.05,-105.21 2820.96,-103.04"/>
<polygon fill="midnightblue" stroke="midnightblue" points="2580.67,-147.13 2571.28,-152.04 2581.68,-154.06 2580.67,-147.13"/>
</g>
<!-- Node78 -->
<g id="node42" class="node">
<title>Node78</title>
<g id="a_node42"><a xlink:href="d__event__manager_8cpp.html" target="_top" xlink:title=" ">
<polygon fill="white" stroke="black" points="49.59,-73 49.59,-103 152.59,-103 152.59,-73 49.59,-73"/>
<text text-anchor="start" x="57.59" y="-91" font-family="Helvetica,sans-Serif" font-size="10.00">src/d/event/d_event</text>
<text text-anchor="middle" x="101.09" y="-80" font-family="Helvetica,sans-Serif" font-size="10.00">_manager.cpp</text>
</a>
</g>
</g>
<!-- Node3&#45;&gt;Node78 -->
<g id="edge47" class="edge">
<title>Node3&#45;&gt;Node78</title>
<path fill="none" stroke="midnightblue" d="M2450.64,-145.2C1930.16,-86.77 665.31,-186.85 167.09,-109 158.57,-107.67 149.62,-105.5 141.16,-103.08"/>
<polygon fill="midnightblue" stroke="midnightblue" points="2450.57,-148.72 2460.9,-146.39 2451.37,-141.76 2450.57,-148.72"/>
</g>
<!-- Node79 -->
<g id="node43" class="node">
<title>Node79</title>
<g id="a_node43"><a xlink:href="d__kankyo__wether_8cpp.html" target="_top" xlink:title=" ">
<polygon fill="white" stroke="black" points="2931.09,-73 2931.09,-103 3047.09,-103 3047.09,-73 2931.09,-73"/>
<text text-anchor="start" x="2939.09" y="-91" font-family="Helvetica,sans-Serif" font-size="10.00">src/d/kankyo/d_kankyo</text>
<text text-anchor="middle" x="2989.09" y="-80" font-family="Helvetica,sans-Serif" font-size="10.00">_wether.cpp</text>
</a>
</g>
</g>
<!-- Node3&#45;&gt;Node79 -->
<g id="edge49" class="edge">
<title>Node3&#45;&gt;Node79</title>
<path fill="none" stroke="midnightblue" d="M2581.24,-154.65C2661.71,-147.91 2802.5,-133.66 2921.09,-109 2928.92,-107.37 2937.16,-105.28 2945.09,-103.07"/>
<polygon fill="midnightblue" stroke="midnightblue" points="2580.93,-151.16 2571.25,-155.47 2581.5,-158.14 2580.93,-151.16"/>
</g>
<!-- Node80 -->
<g id="node44" class="node">
<title>Node80</title>
<g id="a_node44"><a xlink:href="d__map__path__dmap_8cpp.html" target="_top" xlink:title=" ">
<polygon fill="white" stroke="black" points="3065.09,-73 3065.09,-103 3181.09,-103 3181.09,-73 3065.09,-73"/>
<text text-anchor="start" x="3073.09" y="-91" font-family="Helvetica,sans-Serif" font-size="10.00">src/d/map/d_map_path</text>
<text text-anchor="middle" x="3123.09" y="-80" font-family="Helvetica,sans-Serif" font-size="10.00">_dmap.cpp</text>
</a>
</g>
</g>
<!-- Node3&#45;&gt;Node80 -->
<g id="edge50" class="edge">
<title>Node3&#45;&gt;Node80</title>
<path fill="none" stroke="midnightblue" d="M2581.57,-157.53C2683.75,-153.52 2886.96,-141.82 3056.09,-109 3064.07,-107.45 3072.47,-105.34 3080.51,-103.07"/>
<polygon fill="midnightblue" stroke="midnightblue" points="2581.26,-154.04 2571.4,-157.91 2581.53,-161.03 2581.26,-154.04"/>
</g>
<!-- Node12&#45;&gt;Node13 -->
<g id="edge6" class="edge">
<title>Node12&#45;&gt;Node13</title>
<path fill="none" stroke="midnightblue" d="M3716.39,-70C3726.61,-55.87 3740.73,-36.35 3748.78,-25.22"/>
<polygon fill="midnightblue" stroke="midnightblue" points="3713.37,-68.2 3710.34,-78.36 3719.04,-72.3 3713.37,-68.2"/>
</g>
<!-- Node12&#45;&gt;Node14 -->
<g id="edge7" class="edge">
<title>Node12&#45;&gt;Node14</title>
<path fill="none" stroke="midnightblue" d="M3735.97,-74.92C3773.45,-60.71 3834.71,-37.49 3867.57,-25.03"/>
<polygon fill="midnightblue" stroke="midnightblue" points="3734.63,-71.68 3726.52,-78.5 3737.11,-78.22 3734.63,-71.68"/>
</g>
<!-- Node12&#45;&gt;Node15 -->
<g id="edge8" class="edge">
<title>Node12&#45;&gt;Node15</title>
<path fill="none" stroke="midnightblue" d="M3687.31,-71.44C3674.15,-59.23 3655.99,-42.39 3643.26,-30.58"/>
<polygon fill="midnightblue" stroke="midnightblue" points="3685.06,-74.12 3694.77,-78.36 3689.82,-68.99 3685.06,-74.12"/>
</g>
<!-- Node25&#45;&gt;Node27 -->
<g id="edge13" class="edge">
<title>Node25&#45;&gt;Node27</title>
<path fill="none" stroke="midnightblue" d="M637.37,-69.94C641.62,-68.76 645.91,-67.75 650.09,-67 928.24,-17.06 2990.34,-16.09 3408.32,-16.41"/>
<polygon fill="midnightblue" stroke="midnightblue" points="636.12,-66.66 627.58,-72.92 638.17,-73.36 636.12,-66.66"/>
</g>
<!-- Node28&#45;&gt;Node27 -->
<g id="edge15" class="edge">
<title>Node28&#45;&gt;Node27</title>
<path fill="none" stroke="midnightblue" d="M3503.36,-63.36C3497.44,-50.32 3490.43,-34.88 3486.12,-25.39"/>
<polygon fill="midnightblue" stroke="midnightblue" points="3500.29,-65.07 3507.61,-72.73 3506.67,-62.18 3500.29,-65.07"/>
</g>
<!-- Node38&#45;&gt;Node43 -->
<g id="edge18" class="edge">
<title>Node38&#45;&gt;Node43</title>
<path fill="none" stroke="midnightblue" d="M234.08,-67.23C212.99,-53.33 185.82,-35.43 170.04,-25.03"/>
<polygon fill="midnightblue" stroke="midnightblue" points="232.42,-70.32 242.69,-72.9 236.27,-64.48 232.42,-70.32"/>
</g>
<!-- Node38&#45;&gt;Node44 -->
<g id="edge19" class="edge">
<title>Node38&#45;&gt;Node44</title>
<path fill="none" stroke="midnightblue" d="M271.9,-63.06C275.4,-52.32 279.42,-40.01 282.44,-30.75"/>
<polygon fill="midnightblue" stroke="midnightblue" points="268.52,-62.14 268.74,-72.73 275.17,-64.31 268.52,-62.14"/>
</g>
<!-- Node38&#45;&gt;Node45 -->
<g id="edge20" class="edge">
<title>Node38&#45;&gt;Node45</title>
<path fill="none" stroke="midnightblue" d="M312.7,-69.42C351.85,-55.27 405.18,-35.99 435.48,-25.03"/>
<polygon fill="midnightblue" stroke="midnightblue" points="311.29,-66.21 303.08,-72.9 313.67,-72.79 311.29,-66.21"/>
</g>
<!-- Node53&#45;&gt;Node55 -->
<g id="edge23" class="edge">
<title>Node53&#45;&gt;Node55</title>
<path fill="none" stroke="midnightblue" d="M3976.18,-75.36C3985.81,-72.4 3996.3,-69.38 4006.09,-67 4081.68,-48.62 4170.24,-33.74 4227.2,-25.01"/>
<polygon fill="midnightblue" stroke="midnightblue" points="3975,-72.06 3966.51,-78.4 3977.1,-78.74 3975,-72.06"/>
</g>
<!-- Node93&#45;&gt;Node43 -->
<g id="edge54" class="edge">
<title>Node93&#45;&gt;Node43</title>
<path fill="none" stroke="midnightblue" d="M38.53,-145.21C26.78,-136.37 13.54,-123.88 7.09,-109 -0.34,-91.88 -3.8,-82.16 7.09,-67 27.37,-38.77 64.23,-26.11 96.34,-20.52"/>
<polygon fill="midnightblue" stroke="midnightblue" points="36.52,-148.07 46.71,-150.98 40.55,-142.35 36.52,-148.07"/>
</g>
<!-- Node93&#45;&gt;Node44 -->
<g id="edge55" class="edge">
<title>Node93&#45;&gt;Node44</title>
<path fill="none" stroke="midnightblue" d="M49.37,-142.22C37.24,-121.98 22.36,-88.49 40.09,-67 93.67,-2.05 143.78,-48.74 226.09,-31 229.17,-30.33 232.34,-29.63 235.54,-28.92"/>
<polygon fill="midnightblue" stroke="midnightblue" points="46.46,-144.18 54.78,-150.74 52.37,-140.42 46.46,-144.18"/>
</g>
<!-- Node93&#45;&gt;Node78 -->
<g id="edge56" class="edge">
<title>Node93&#45;&gt;Node78</title>
<path fill="none" stroke="midnightblue" d="M71.12,-141.82C77.92,-129.84 86.78,-114.22 93.1,-103.08"/>
<polygon fill="midnightblue" stroke="midnightblue" points="67.88,-140.43 65.99,-150.86 73.97,-143.88 67.88,-140.43"/>
</g>
<!-- Node95&#45;&gt;Node55 -->
<g id="edge58" class="edge">
<title>Node95&#45;&gt;Node55</title>
<path fill="none" stroke="midnightblue" d="M3733.41,-157.8C3941,-152.91 4491.38,-137.32 4518.09,-109 4571.34,-52.54 4436.7,-29.81 4350.88,-21.25"/>
<polygon fill="midnightblue" stroke="midnightblue" points="3733.11,-154.3 3723.19,-158.04 3733.27,-161.3 3733.11,-154.3"/>
</g>
</g>
</svg>
