<?xml version="1.0" encoding="UTF-8" standalone="no"?>
<!DOCTYPE svg PUBLIC "-//W3C//DTD SVG 1.1//EN"
 "http://www.w3.org/Graphics/SVG/1.1/DTD/svg11.dtd">
<!-- Generated by graphviz version 3.0.0 (20220413.0242)
 -->
<!-- Title: include/f_op/f_op_scene_pause.h Pages: 1 -->
<svg width="4484pt" height="318pt"
 viewBox="0.00 0.00 4484.07 318.00" xmlns="http://www.w3.org/2000/svg" xmlns:xlink="http://www.w3.org/1999/xlink">
<g id="graph0" class="graph" transform="scale(1 1) rotate(0) translate(4 314)">
<title>include/f_op/f_op_scene_pause.h</title>
<polygon fill="white" stroke="transparent" points="-4,4 -4,-314 4480.07,-314 4480.07,4 -4,4"/>
<!-- Node1 -->
<g id="node1" class="node">
<title>Node1</title>
<g id="a_node1"><a xlink:title=" ">
<polygon fill="#bfbfbf" stroke="black" points="3803.23,-279.5 3803.23,-309.5 3925.23,-309.5 3925.23,-279.5 3803.23,-279.5"/>
<text text-anchor="start" x="3811.23" y="-297.5" font-family="Helvetica,sans-Serif" font-size="10.00">include/f_op/f_op_scene</text>
<text text-anchor="middle" x="3864.23" y="-286.5" font-family="Helvetica,sans-Serif" font-size="10.00">_pause.h</text>
</a>
</g>
</g>
<!-- Node2 -->
<g id="node2" class="node">
<title>Node2</title>
<g id="a_node2"><a xlink:href="f__op__scene__mng_8h.html" target="_top" xlink:title=" ">
<polygon fill="white" stroke="black" points="3536.23,-212.5 3536.23,-242.5 3658.23,-242.5 3658.23,-212.5 3536.23,-212.5"/>
<text text-anchor="start" x="3544.23" y="-230.5" font-family="Helvetica,sans-Serif" font-size="10.00">include/f_op/f_op_scene</text>
<text text-anchor="middle" x="3597.23" y="-219.5" font-family="Helvetica,sans-Serif" font-size="10.00">_mng.h</text>
</a>
</g>
</g>
<!-- Node1&#45;&gt;Node2 -->
<g id="edge1" class="edge">
<title>Node1&#45;&gt;Node2</title>
<path fill="none" stroke="midnightblue" d="M3796.66,-277.05C3753.01,-266.43 3696.8,-252.74 3655.19,-242.61"/>
<polygon fill="midnightblue" stroke="midnightblue" points="3796.08,-280.51 3806.62,-279.48 3797.73,-273.71 3796.08,-280.51"/>
</g>
<!-- Node106 -->
<g id="node47" class="node">
<title>Node106</title>
<g id="a_node47"><a xlink:href="f__op__scene__req_8h.html" target="_top" xlink:title=" ">
<polygon fill="white" stroke="black" points="3736.23,-212.5 3736.23,-242.5 3858.23,-242.5 3858.23,-212.5 3736.23,-212.5"/>
<text text-anchor="start" x="3744.23" y="-230.5" font-family="Helvetica,sans-Serif" font-size="10.00">include/f_op/f_op_scene</text>
<text text-anchor="middle" x="3797.23" y="-219.5" font-family="Helvetica,sans-Serif" font-size="10.00">_req.h</text>
</a>
</g>
</g>
<!-- Node1&#45;&gt;Node106 -->
<g id="edge57" class="edge">
<title>Node1&#45;&gt;Node106</title>
<path fill="none" stroke="midnightblue" d="M3842.39,-272.31C3832.34,-262.56 3820.69,-251.26 3811.74,-242.58"/>
<polygon fill="midnightblue" stroke="midnightblue" points="3840.07,-274.94 3849.69,-279.4 3844.95,-269.92 3840.07,-274.94"/>
</g>
<!-- Node108 -->
<g id="node49" class="node">
<title>Node108</title>
<g id="a_node49"><a xlink:href="f__op__overlap__mng_8cpp.html" target="_top" xlink:title=" ">
<polygon fill="white" stroke="black" points="3876.23,-212.5 3876.23,-242.5 3986.23,-242.5 3986.23,-212.5 3876.23,-212.5"/>
<text text-anchor="start" x="3884.23" y="-230.5" font-family="Helvetica,sans-Serif" font-size="10.00">src/f_op/f_op_overlap</text>
<text text-anchor="middle" x="3931.23" y="-219.5" font-family="Helvetica,sans-Serif" font-size="10.00">_mng.cpp</text>
</a>
</g>
</g>
<!-- Node1&#45;&gt;Node108 -->
<g id="edge60" class="edge">
<title>Node1&#45;&gt;Node108</title>
<path fill="none" stroke="midnightblue" d="M3886.07,-272.31C3896.12,-262.56 3907.77,-251.26 3916.72,-242.58"/>
<polygon fill="midnightblue" stroke="midnightblue" points="3883.5,-269.92 3878.76,-279.4 3888.38,-274.94 3883.5,-269.92"/>
</g>
<!-- Node109 -->
<g id="node50" class="node">
<title>Node109</title>
<g id="a_node50"><a xlink:href="f__op__scene__pause_8cpp.html" target="_top" xlink:title=" ">
<polygon fill="white" stroke="black" points="4004.73,-212.5 4004.73,-242.5 4109.73,-242.5 4109.73,-212.5 4004.73,-212.5"/>
<text text-anchor="start" x="4012.73" y="-230.5" font-family="Helvetica,sans-Serif" font-size="10.00">src/f_op/f_op_scene</text>
<text text-anchor="middle" x="4057.23" y="-219.5" font-family="Helvetica,sans-Serif" font-size="10.00">_pause.cpp</text>
</a>
</g>
</g>
<!-- Node1&#45;&gt;Node109 -->
<g id="edge61" class="edge">
<title>Node1&#45;&gt;Node109</title>
<path fill="none" stroke="midnightblue" d="M3915.92,-276.09C3947.07,-265.6 3986.24,-252.41 4015.43,-242.58"/>
<polygon fill="midnightblue" stroke="midnightblue" points="3914.46,-272.89 3906.1,-279.4 3916.7,-279.52 3914.46,-272.89"/>
</g>
<!-- Node3 -->
<g id="node3" class="node">
<title>Node3</title>
<g id="a_node3"><a xlink:href="c__dylink_8h.html" target="_top" xlink:title=" ">
<polygon fill="white" stroke="black" points="3486.73,-151 3486.73,-170 3587.73,-170 3587.73,-151 3486.73,-151"/>
<text text-anchor="middle" x="3537.23" y="-158" font-family="Helvetica,sans-Serif" font-size="10.00">include/c/c_dylink.h</text>
</a>
</g>
</g>
<!-- Node2&#45;&gt;Node3 -->
<g id="edge2" class="edge">
<title>Node2&#45;&gt;Node3</title>
<path fill="none" stroke="midnightblue" d="M3577.38,-205C3566.43,-193.13 3553.43,-179.05 3545.25,-170.19"/>
<polygon fill="midnightblue" stroke="midnightblue" points="3574.85,-207.42 3584.21,-212.4 3580,-202.67 3574.85,-207.42"/>
</g>
<!-- Node6 -->
<g id="node6" class="node">
<title>Node6</title>
<g id="a_node6"><a xlink:href="d__com__inf__game_8h.html" target="_top" xlink:title=" ">
<polygon fill="white" stroke="red" points="2484.23,-145.5 2484.23,-175.5 2594.23,-175.5 2594.23,-145.5 2484.23,-145.5"/>
<text text-anchor="start" x="2492.23" y="-163.5" font-family="Helvetica,sans-Serif" font-size="10.00">include/d/com/d_com</text>
<text text-anchor="middle" x="2539.23" y="-152.5" font-family="Helvetica,sans-Serif" font-size="10.00">_inf_game.h</text>
</a>
</g>
</g>
<!-- Node2&#45;&gt;Node6 -->
<g id="edge5" class="edge">
<title>Node2&#45;&gt;Node6</title>
<path fill="none" stroke="midnightblue" d="M3526.15,-222.13C3327.93,-209.96 2771.96,-175.8 2594.44,-164.89"/>
<polygon fill="midnightblue" stroke="midnightblue" points="3525.96,-225.63 3536.16,-222.75 3526.39,-218.64 3525.96,-225.63"/>
</g>
<!-- Node20 -->
<g id="node13" class="node">
<title>Node20</title>
<g id="a_node13"><a xlink:href="d__s__play_8cpp.html" target="_top" xlink:title=" ">
<polygon fill="white" stroke="black" points="143.23,-6 143.23,-25 249.23,-25 249.23,-6 143.23,-6"/>
<text text-anchor="middle" x="196.23" y="-13" font-family="Helvetica,sans-Serif" font-size="10.00">src/d/s/d_s_play.cpp</text>
</a>
</g>
</g>
<!-- Node2&#45;&gt;Node20 -->
<g id="edge54" class="edge">
<title>Node2&#45;&gt;Node20</title>
<path fill="none" stroke="midnightblue" d="M3525.81,-225.53C3026.22,-218.55 72.7,-174.59 9.23,-109 -3.76,-95.59 -2.12,-81.82 9.23,-67 25.48,-45.77 93.68,-31.43 143.03,-23.61"/>
<polygon fill="midnightblue" stroke="midnightblue" points="3526.07,-229.03 3536.12,-225.67 3526.17,-222.03 3526.07,-229.03"/>
</g>
<!-- Node104 -->
<g id="node45" class="node">
<title>Node104</title>
<g id="a_node45"><a xlink:href="f__ap__game_8cpp.html" target="_top" xlink:title=" ">
<polygon fill="white" stroke="black" points="3605.73,-151 3605.73,-170 3726.73,-170 3726.73,-151 3605.73,-151"/>
<text text-anchor="middle" x="3666.23" y="-158" font-family="Helvetica,sans-Serif" font-size="10.00">src/f_ap/f_ap_game.cpp</text>
</a>
</g>
</g>
<!-- Node2&#45;&gt;Node104 -->
<g id="edge55" class="edge">
<title>Node2&#45;&gt;Node104</title>
<path fill="none" stroke="midnightblue" d="M3619.69,-205.34C3632.36,-193.4 3647.5,-179.14 3657,-170.19"/>
<polygon fill="midnightblue" stroke="midnightblue" points="3617.08,-202.99 3612.2,-212.4 3621.88,-208.09 3617.08,-202.99"/>
</g>
<!-- Node105 -->
<g id="node46" class="node">
<title>Node105</title>
<g id="a_node46"><a xlink:href="f__op__scene__mng_8cpp.html" target="_top" xlink:title=" ">
<polygon fill="white" stroke="black" points="3744.73,-145.5 3744.73,-175.5 3849.73,-175.5 3849.73,-145.5 3744.73,-145.5"/>
<text text-anchor="start" x="3752.73" y="-163.5" font-family="Helvetica,sans-Serif" font-size="10.00">src/f_op/f_op_scene</text>
<text text-anchor="middle" x="3797.23" y="-152.5" font-family="Helvetica,sans-Serif" font-size="10.00">_mng.cpp</text>
</a>
</g>
</g>
<!-- Node2&#45;&gt;Node105 -->
<g id="edge56" class="edge">
<title>Node2&#45;&gt;Node105</title>
<path fill="none" stroke="midnightblue" d="M3650.37,-209.23C3682.72,-198.71 3723.53,-185.45 3753.91,-175.58"/>
<polygon fill="midnightblue" stroke="midnightblue" points="3649.05,-205.98 3640.62,-212.4 3651.22,-212.63 3649.05,-205.98"/>
</g>
<!-- Node4 -->
<g id="node4" class="node">
<title>Node4</title>
<g id="a_node4"><a xlink:href="c__dylink_8cpp.html" target="_top" xlink:title=" ">
<polygon fill="white" stroke="black" points="4363.73,-78.5 4363.73,-97.5 4458.73,-97.5 4458.73,-78.5 4363.73,-78.5"/>
<text text-anchor="middle" x="4411.23" y="-85.5" font-family="Helvetica,sans-Serif" font-size="10.00">src/c/c_dylink.cpp</text>
</a>
</g>
</g>
<!-- Node3&#45;&gt;Node4 -->
<g id="edge3" class="edge">
<title>Node3&#45;&gt;Node4</title>
<path fill="none" stroke="midnightblue" d="M3576.89,-148.64C3583.31,-147.21 3589.92,-145.92 3596.23,-145 3930.43,-96.47 4023.93,-174.51 4355.23,-109 4367.68,-106.54 4381.1,-101.82 4391.67,-97.59"/>
<polygon fill="midnightblue" stroke="midnightblue" points="3575.94,-145.27 3567.02,-150.99 3577.56,-152.08 3575.94,-145.27"/>
</g>
<!-- Node5 -->
<g id="node5" class="node">
<title>Node5</title>
<g id="a_node5"><a xlink:href="d__s__logo_8cpp.html" target="_top" xlink:title=" ">
<polygon fill="white" stroke="black" points="4365.73,-6 4365.73,-25 4472.73,-25 4472.73,-6 4365.73,-6"/>
<text text-anchor="middle" x="4419.23" y="-13" font-family="Helvetica,sans-Serif" font-size="10.00">src/d/s/d_s_logo.cpp</text>
</a>
</g>
</g>
<!-- Node3&#45;&gt;Node5 -->
<g id="edge4" class="edge">
<title>Node3&#45;&gt;Node5</title>
<path fill="none" stroke="midnightblue" d="M3576.88,-148.61C3583.31,-147.18 3589.92,-145.9 3596.23,-145 3644.23,-138.18 4434.66,-143.98 4468.23,-109 4481.15,-95.53 4475.24,-84.3 4468.23,-67 4460.97,-49.11 4444.01,-34.07 4432.08,-25.17"/>
<polygon fill="midnightblue" stroke="midnightblue" points="3575.93,-145.24 3567.01,-150.95 3577.55,-152.05 3575.93,-145.24"/>
</g>
<!-- Node6&#45;&gt;Node4 -->
<g id="edge33" class="edge">
<title>Node6&#45;&gt;Node4</title>
<path fill="none" stroke="midnightblue" d="M2604.87,-158.25C2920.18,-152.19 4267.68,-125.42 4355.23,-109 4367.81,-106.64 4381.34,-101.87 4391.95,-97.59"/>
<polygon fill="midnightblue" stroke="midnightblue" points="2604.46,-154.76 2594.53,-158.45 2604.59,-161.76 2604.46,-154.76"/>
</g>
<!-- Node7 -->
<g id="node7" class="node">
<title>Node7</title>
<g id="a_node7"><a xlink:href="d__a__npc_8h.html" target="_top" xlink:title=" ">
<polygon fill="white" stroke="red" points="3874.73,-78.5 3874.73,-97.5 3985.73,-97.5 3985.73,-78.5 3874.73,-78.5"/>
<text text-anchor="middle" x="3930.23" y="-85.5" font-family="Helvetica,sans-Serif" font-size="10.00">include/d/a/d_a_npc.h</text>
</a>
</g>
</g>
<!-- Node6&#45;&gt;Node7 -->
<g id="edge6" class="edge">
<title>Node6&#45;&gt;Node7</title>
<path fill="none" stroke="midnightblue" d="M2604.89,-159.26C2837.1,-158.04 3618.76,-150.87 3865.23,-109 3879.66,-106.55 3895.36,-101.78 3907.72,-97.51"/>
<polygon fill="midnightblue" stroke="midnightblue" points="2604.56,-155.76 2594.58,-159.31 2604.59,-162.76 2604.56,-155.76"/>
</g>
<!-- Node13 -->
<g id="node8" class="node">
<title>Node13</title>
<g id="a_node8"><a xlink:href="d__cc__uty_8h.html" target="_top" xlink:title=" ">
<polygon fill="white" stroke="red" points="270.73,-78.5 270.73,-97.5 389.73,-97.5 389.73,-78.5 270.73,-78.5"/>
<text text-anchor="middle" x="330.23" y="-85.5" font-family="Helvetica,sans-Serif" font-size="10.00">include/d/cc/d_cc_uty.h</text>
</a>
</g>
</g>
<!-- Node6&#45;&gt;Node13 -->
<g id="edge7" class="edge">
<title>Node6&#45;&gt;Node13</title>
<path fill="none" stroke="midnightblue" d="M2473.93,-158.98C2137.48,-156.16 607.29,-141.63 398.23,-109 383.15,-106.65 366.72,-101.88 353.79,-97.59"/>
<polygon fill="midnightblue" stroke="midnightblue" points="2473.97,-162.48 2484,-159.06 2474.03,-155.48 2473.97,-162.48"/>
</g>
<!-- Node15 -->
<g id="node9" class="node">
<title>Node15</title>
<g id="a_node9"><a xlink:href="d__item_8h.html" target="_top" xlink:title=" ">
<polygon fill="white" stroke="red" points="4042.73,-78.5 4042.73,-97.5 4137.73,-97.5 4137.73,-78.5 4042.73,-78.5"/>
<text text-anchor="middle" x="4090.23" y="-85.5" font-family="Helvetica,sans-Serif" font-size="10.00">include/d/d_item.h</text>
</a>
</g>
</g>
<!-- Node6&#45;&gt;Node15 -->
<g id="edge8" class="edge">
<title>Node6&#45;&gt;Node15</title>
<path fill="none" stroke="midnightblue" d="M2604.78,-158.35C2873.99,-153.48 3887.03,-133.67 4028.23,-109 4042.04,-106.59 4057.02,-101.82 4068.79,-97.54"/>
<polygon fill="midnightblue" stroke="midnightblue" points="2604.33,-154.86 2594.39,-158.54 2604.45,-161.86 2604.33,-154.86"/>
</g>
<!-- Node16 -->
<g id="node10" class="node">
<title>Node16</title>
<g id="a_node10"><a xlink:href="d__a__alink_8cpp.html" target="_top" xlink:title=" ">
<polygon fill="white" stroke="black" points="3900.73,-6 3900.73,-25 4009.73,-25 4009.73,-6 3900.73,-6"/>
<text text-anchor="middle" x="3955.23" y="-13" font-family="Helvetica,sans-Serif" font-size="10.00">src/d/a/d_a_alink.cpp</text>
</a>
</g>
</g>
<!-- Node6&#45;&gt;Node16 -->
<g id="edge34" class="edge">
<title>Node6&#45;&gt;Node16</title>
<path fill="none" stroke="midnightblue" d="M2604.37,-158.46C2884.15,-153.86 3970.74,-134.35 3995.23,-109 4019.17,-84.21 3982.58,-42.8 3964.44,-25.02"/>
<polygon fill="midnightblue" stroke="midnightblue" points="2604.31,-154.96 2594.37,-158.63 2604.43,-161.96 2604.31,-154.96"/>
</g>
<!-- Node17 -->
<g id="node11" class="node">
<title>Node17</title>
<g id="a_node11"><a xlink:href="d__a__obj__item_8cpp.html" target="_top" xlink:title=" ">
<polygon fill="white" stroke="black" points="4027.73,-6 4027.73,-25 4152.73,-25 4152.73,-6 4027.73,-6"/>
<text text-anchor="middle" x="4090.23" y="-13" font-family="Helvetica,sans-Serif" font-size="10.00">src/d/a/d_a_obj_item.cpp</text>
</a>
</g>
</g>
<!-- Node6&#45;&gt;Node17 -->
<g id="edge36" class="edge">
<title>Node6&#45;&gt;Node17</title>
<path fill="none" stroke="midnightblue" d="M2604.69,-158.68C2902.95,-154.78 4119.94,-137.15 4147.23,-109 4160.22,-95.6 4154.89,-84.02 4147.23,-67 4138.82,-48.31 4119.69,-33.74 4105.91,-25.15"/>
<polygon fill="midnightblue" stroke="midnightblue" points="2604.42,-155.18 2594.47,-158.81 2604.51,-162.18 2604.42,-155.18"/>
</g>
<!-- Node18 -->
<g id="node12" class="node">
<title>Node18</title>
<g id="a_node12"><a xlink:href="d__com__inf__game_8cpp.html" target="_top" xlink:title=" ">
<polygon fill="white" stroke="black" points="4171.23,-0.5 4171.23,-30.5 4279.23,-30.5 4279.23,-0.5 4171.23,-0.5"/>
<text text-anchor="start" x="4179.23" y="-18.5" font-family="Helvetica,sans-Serif" font-size="10.00">src/d/com/d_com_inf</text>
<text text-anchor="middle" x="4225.23" y="-7.5" font-family="Helvetica,sans-Serif" font-size="10.00">_game.cpp</text>
</a>
</g>
</g>
<!-- Node6&#45;&gt;Node18 -->
<g id="edge42" class="edge">
<title>Node6&#45;&gt;Node18</title>
<path fill="none" stroke="midnightblue" d="M2604.57,-158.29C2903.72,-152.64 4129.62,-128.33 4164.23,-109 4194.96,-91.83 4212.92,-51.94 4220.67,-30.59"/>
<polygon fill="midnightblue" stroke="midnightblue" points="2604.25,-154.79 2594.32,-158.48 2604.38,-161.79 2604.25,-154.79"/>
</g>
<!-- Node21 -->
<g id="node14" class="node">
<title>Node21</title>
<g id="a_node14"><a xlink:href="d__kantera__icon__meter_8h.html" target="_top" xlink:title=" ">
<polygon fill="white" stroke="red" points="407.73,-73 407.73,-103 508.73,-103 508.73,-73 407.73,-73"/>
<text text-anchor="start" x="415.73" y="-91" font-family="Helvetica,sans-Serif" font-size="10.00">include/d/d_kantera</text>
<text text-anchor="middle" x="458.23" y="-80" font-family="Helvetica,sans-Serif" font-size="10.00">_icon_meter.h</text>
</a>
</g>
</g>
<!-- Node6&#45;&gt;Node21 -->
<g id="edge13" class="edge">
<title>Node6&#45;&gt;Node21</title>
<path fill="none" stroke="midnightblue" d="M2473.9,-159.04C2148.82,-156.58 713.25,-143.84 517.23,-109 509.56,-107.64 501.54,-105.46 493.97,-103.03"/>
<polygon fill="midnightblue" stroke="midnightblue" points="2474.07,-162.54 2484.1,-159.11 2474.12,-155.54 2474.07,-162.54"/>
</g>
<!-- Node24 -->
<g id="node15" class="node">
<title>Node24</title>
<g id="a_node15"><a xlink:href="d__model_8h.html" target="_top" xlink:title=" ">
<polygon fill="white" stroke="red" points="18.73,-78.5 18.73,-97.5 121.73,-97.5 121.73,-78.5 18.73,-78.5"/>
<text text-anchor="middle" x="70.23" y="-85.5" font-family="Helvetica,sans-Serif" font-size="10.00">include/d/d_model.h</text>
</a>
</g>
</g>
<!-- Node6&#45;&gt;Node24 -->
<g id="edge14" class="edge">
<title>Node6&#45;&gt;Node24</title>
<path fill="none" stroke="midnightblue" d="M2474.06,-159.3C2113.1,-158.05 366.58,-149.9 130.23,-109 116.7,-106.66 102.08,-101.84 90.66,-97.51"/>
<polygon fill="midnightblue" stroke="midnightblue" points="2474.07,-162.8 2484.08,-159.34 2474.1,-155.8 2474.07,-162.8"/>
</g>
<!-- Node26 -->
<g id="node16" class="node">
<title>Node26</title>
<g id="a_node16"><a xlink:href="d__name_8h.html" target="_top" xlink:title=" ">
<polygon fill="white" stroke="red" points="526.73,-78.5 526.73,-97.5 627.73,-97.5 627.73,-78.5 526.73,-78.5"/>
<text text-anchor="middle" x="577.23" y="-85.5" font-family="Helvetica,sans-Serif" font-size="10.00">include/d/d_name.h</text>
</a>
</g>
</g>
<!-- Node6&#45;&gt;Node26 -->
<g id="edge16" class="edge">
<title>Node6&#45;&gt;Node26</title>
<path fill="none" stroke="midnightblue" d="M2473.77,-158.91C2160.39,-155.91 820.88,-141.31 637.23,-109 623.82,-106.64 609.32,-101.87 597.94,-97.59"/>
<polygon fill="midnightblue" stroke="midnightblue" points="2474.02,-162.41 2484.05,-159 2474.08,-155.41 2474.02,-162.41"/>
</g>
<!-- Node28 -->
<g id="node17" class="node">
<title>Node28</title>
<g id="a_node17"><a xlink:href="d__file__sel__info_8h.html" target="_top" xlink:title=" ">
<polygon fill="white" stroke="red" points="646.23,-73 646.23,-103 742.23,-103 742.23,-73 646.23,-73"/>
<text text-anchor="start" x="654.23" y="-91" font-family="Helvetica,sans-Serif" font-size="10.00">include/d/file/d_file</text>
<text text-anchor="middle" x="694.23" y="-80" font-family="Helvetica,sans-Serif" font-size="10.00">_sel_info.h</text>
</a>
</g>
</g>
<!-- Node6&#45;&gt;Node28 -->
<g id="edge17" class="edge">
<title>Node6&#45;&gt;Node28</title>
<path fill="none" stroke="midnightblue" d="M2473.81,-158.85C2172.17,-155.68 922.87,-140.74 751.23,-109 743.8,-107.63 736.04,-105.44 728.73,-103.02"/>
<polygon fill="midnightblue" stroke="midnightblue" points="2474.1,-162.35 2484.14,-158.96 2474.17,-155.35 2474.1,-162.35"/>
</g>
<!-- Node31 -->
<g id="node18" class="node">
<title>Node31</title>
<g id="a_node18"><a xlink:href="d__file__sel__warning_8h.html" target="_top" xlink:title=" ">
<polygon fill="white" stroke="red" points="760.23,-73 760.23,-103 856.23,-103 856.23,-73 760.23,-73"/>
<text text-anchor="start" x="768.23" y="-91" font-family="Helvetica,sans-Serif" font-size="10.00">include/d/file/d_file</text>
<text text-anchor="middle" x="808.23" y="-80" font-family="Helvetica,sans-Serif" font-size="10.00">_sel_warning.h</text>
</a>
</g>
</g>
<!-- Node6&#45;&gt;Node31 -->
<g id="edge18" class="edge">
<title>Node6&#45;&gt;Node31</title>
<path fill="none" stroke="midnightblue" d="M2473.78,-158.71C2184.16,-155.07 1025.12,-138.72 865.23,-109 857.8,-107.62 850.05,-105.43 842.73,-103"/>
<polygon fill="midnightblue" stroke="midnightblue" points="2474.07,-162.22 2484.11,-158.84 2474.16,-155.22 2474.07,-162.22"/>
</g>
<!-- Node33 -->
<g id="node19" class="node">
<title>Node33</title>
<g id="a_node19"><a xlink:href="d__meter2_8h.html" target="_top" xlink:title=" ">
<polygon fill="white" stroke="red" points="874.23,-78.5 874.23,-97.5 1008.23,-97.5 1008.23,-78.5 874.23,-78.5"/>
<text text-anchor="middle" x="941.23" y="-85.5" font-family="Helvetica,sans-Serif" font-size="10.00">include/d/meter/d_meter2.h</text>
</a>
</g>
</g>
<!-- Node6&#45;&gt;Node33 -->
<g id="edge19" class="edge">
<title>Node6&#45;&gt;Node33</title>
<path fill="none" stroke="midnightblue" d="M2473.87,-159.28C2220.76,-158.12 1304.76,-151.06 1017.23,-109 1000.49,-106.55 982.13,-101.78 967.65,-97.52"/>
<polygon fill="midnightblue" stroke="midnightblue" points="2474,-162.78 2484.01,-159.32 2474.03,-155.78 2474,-162.78"/>
</g>
<!-- Node41 -->
<g id="node20" class="node">
<title>Node41</title>
<g id="a_node20"><a xlink:href="d__msg__object_8h.html" target="_top" xlink:title=" ">
<polygon fill="white" stroke="red" points="3746.23,-73 3746.23,-103 3856.23,-103 3856.23,-73 3746.23,-73"/>
<text text-anchor="start" x="3754.23" y="-91" font-family="Helvetica,sans-Serif" font-size="10.00">include/d/msg/d_msg</text>
<text text-anchor="middle" x="3801.23" y="-80" font-family="Helvetica,sans-Serif" font-size="10.00">_object.h</text>
</a>
</g>
</g>
<!-- Node6&#45;&gt;Node41 -->
<g id="edge20" class="edge">
<title>Node6&#45;&gt;Node41</title>
<path fill="none" stroke="midnightblue" d="M2604.74,-158.79C2821.24,-156.13 3512.45,-144.97 3732.23,-109 3740.84,-107.59 3749.91,-105.46 3758.53,-103.1"/>
<polygon fill="midnightblue" stroke="midnightblue" points="2604.44,-155.3 2594.49,-158.92 2604.53,-162.3 2604.44,-155.3"/>
</g>
<!-- Node46 -->
<g id="node21" class="node">
<title>Node46</title>
<g id="a_node21"><a xlink:href="d__demo_8cpp.html" target="_top" xlink:title=" ">
<polygon fill="white" stroke="black" points="3712.23,-6 3712.23,-25 3806.23,-25 3806.23,-6 3712.23,-6"/>
<text text-anchor="middle" x="3759.23" y="-13" font-family="Helvetica,sans-Serif" font-size="10.00">src/d/d_demo.cpp</text>
</a>
</g>
</g>
<!-- Node6&#45;&gt;Node46 -->
<g id="edge46" class="edge">
<title>Node6&#45;&gt;Node46</title>
<path fill="none" stroke="midnightblue" d="M2604.73,-158.3C2842.91,-153.74 3651.51,-136.28 3699.23,-109 3716.18,-99.31 3744.21,-46.32 3754.9,-25.2"/>
<polygon fill="midnightblue" stroke="midnightblue" points="2604.42,-154.81 2594.49,-158.5 2604.55,-161.81 2604.42,-154.81"/>
</g>
<!-- Node55 -->
<g id="node22" class="node">
<title>Node55</title>
<g id="a_node22"><a xlink:href="d__s__logo_8h.html" target="_top" xlink:title=" ">
<polygon fill="white" stroke="black" points="4232.73,-78.5 4232.73,-97.5 4345.73,-97.5 4345.73,-78.5 4232.73,-78.5"/>
<text text-anchor="middle" x="4289.23" y="-85.5" font-family="Helvetica,sans-Serif" font-size="10.00">include/d/s/d_s_logo.h</text>
</a>
</g>
</g>
<!-- Node6&#45;&gt;Node55 -->
<g id="edge24" class="edge">
<title>Node6&#45;&gt;Node55</title>
<path fill="none" stroke="midnightblue" d="M2604.83,-158.48C2895.14,-153.81 4057,-133.75 4218.23,-109 4233.92,-106.59 4251.07,-101.82 4264.58,-97.55"/>
<polygon fill="midnightblue" stroke="midnightblue" points="2604.41,-154.98 2594.47,-158.64 2604.53,-161.98 2604.41,-154.98"/>
</g>
<!-- Node56 -->
<g id="node23" class="node">
<title>Node56</title>
<g id="a_node23"><a xlink:href="d__s__play_8h.html" target="_top" xlink:title=" ">
<polygon fill="white" stroke="red" points="139.73,-78.5 139.73,-97.5 252.73,-97.5 252.73,-78.5 139.73,-78.5"/>
<text text-anchor="middle" x="196.23" y="-85.5" font-family="Helvetica,sans-Serif" font-size="10.00">include/d/s/d_s_play.h</text>
</a>
</g>
</g>
<!-- Node6&#45;&gt;Node56 -->
<g id="edge26" class="edge">
<title>Node6&#45;&gt;Node56</title>
<path fill="none" stroke="midnightblue" d="M2474.03,-159.13C2124.94,-156.99 484.37,-145.09 261.23,-109 246.66,-106.64 230.82,-101.82 218.42,-97.5"/>
<polygon fill="midnightblue" stroke="midnightblue" points="2474.2,-162.63 2484.22,-159.19 2474.24,-155.63 2474.2,-162.63"/>
</g>
<!-- Node60 -->
<g id="node24" class="node">
<title>Node60</title>
<g id="a_node24"><a xlink:href="d__msg__scrn__base_8h.html" target="_top" xlink:title=" ">
<polygon fill="white" stroke="red" points="1026.73,-73 1026.73,-103 1125.73,-103 1125.73,-73 1026.73,-73"/>
<text text-anchor="start" x="1034.73" y="-91" font-family="Helvetica,sans-Serif" font-size="10.00">include/msg/scrn/d</text>
<text text-anchor="middle" x="1076.23" y="-80" font-family="Helvetica,sans-Serif" font-size="10.00">_msg_scrn_base.h</text>
</a>
</g>
</g>
<!-- Node6&#45;&gt;Node60 -->
<g id="edge28" class="edge">
<title>Node6&#45;&gt;Node60</title>
<path fill="none" stroke="midnightblue" d="M2473.68,-159.71C2232.68,-160.08 1396.09,-157.73 1134.23,-109 1126.79,-107.62 1119.02,-105.46 1111.67,-103.07"/>
<polygon fill="midnightblue" stroke="midnightblue" points="2474.04,-163.21 2484.03,-159.69 2474.03,-156.21 2474.04,-163.21"/>
</g>
<!-- Node64 -->
<g id="node25" class="node">
<title>Node64</title>
<g id="a_node25"><a xlink:href="d__a__b__zant_8h.html" target="_top" xlink:title=" ">
<polygon fill="white" stroke="black" points="1143.73,-73 1143.73,-103 1264.73,-103 1264.73,-73 1143.73,-73"/>
<text text-anchor="start" x="1151.73" y="-91" font-family="Helvetica,sans-Serif" font-size="10.00">include/rel/d/a/b/d</text>
<text text-anchor="middle" x="1204.23" y="-80" font-family="Helvetica,sans-Serif" font-size="10.00">_a_b_zant/d_a_b_zant.h</text>
</a>
</g>
</g>
<!-- Node6&#45;&gt;Node64 -->
<g id="edge29" class="edge">
<title>Node6&#45;&gt;Node64</title>
<path fill="none" stroke="midnightblue" d="M2473.61,-158.94C2248.52,-156.71 1508.68,-146.62 1274.23,-109 1265.37,-107.58 1256.04,-105.41 1247.18,-103.01"/>
<polygon fill="midnightblue" stroke="midnightblue" points="2473.9,-162.45 2483.94,-159.04 2473.97,-155.45 2473.9,-162.45"/>
</g>
<!-- Node65 -->
<g id="node26" class="node">
<title>Node65</title>
<g id="a_node26"><a xlink:href="d__a__spinner_8h.html" target="_top" xlink:title=" ">
<polygon fill="white" stroke="black" points="1283.23,-73 1283.23,-103 1399.23,-103 1399.23,-73 1283.23,-73"/>
<text text-anchor="start" x="1291.23" y="-91" font-family="Helvetica,sans-Serif" font-size="10.00">include/rel/d/a/d_a</text>
<text text-anchor="middle" x="1341.23" y="-80" font-family="Helvetica,sans-Serif" font-size="10.00">_spinner/d_a_spinner.h</text>
</a>
</g>
</g>
<!-- Node6&#45;&gt;Node65 -->
<g id="edge30" class="edge">
<title>Node6&#45;&gt;Node65</title>
<path fill="none" stroke="midnightblue" d="M2473.95,-158.69C2265.18,-155.76 1615.37,-143.99 1408.23,-109 1399.85,-107.58 1391.04,-105.45 1382.67,-103.09"/>
<polygon fill="midnightblue" stroke="midnightblue" points="2474.09,-162.19 2484.14,-158.83 2474.19,-155.19 2474.09,-162.19"/>
</g>
<!-- Node66 -->
<g id="node27" class="node">
<title>Node66</title>
<g id="a_node27"><a xlink:href="d__a__obj__yobikusa_8h.html" target="_top" xlink:title=" ">
<polygon fill="white" stroke="black" points="1417.73,-67.5 1417.73,-108.5 1522.73,-108.5 1522.73,-67.5 1417.73,-67.5"/>
<text text-anchor="start" x="1425.73" y="-96.5" font-family="Helvetica,sans-Serif" font-size="10.00">include/rel/d/a/obj</text>
<text text-anchor="start" x="1425.73" y="-85.5" font-family="Helvetica,sans-Serif" font-size="10.00">/d_a_obj_yobikusa/d</text>
<text text-anchor="middle" x="1470.23" y="-74.5" font-family="Helvetica,sans-Serif" font-size="10.00">_a_obj_yobikusa.h</text>
</a>
</g>
</g>
<!-- Node6&#45;&gt;Node66 -->
<g id="edge31" class="edge">
<title>Node6&#45;&gt;Node66</title>
<path fill="none" stroke="midnightblue" d="M2473.93,-158.46C2280.71,-155.01 1713.96,-142.27 1532.23,-109 1529.11,-108.43 1525.94,-107.74 1522.75,-106.98"/>
<polygon fill="midnightblue" stroke="midnightblue" points="2473.88,-161.95 2483.94,-158.63 2474,-154.96 2473.88,-161.95"/>
</g>
<!-- Node67 -->
<g id="node28" class="node">
<title>Node67</title>
<g id="a_node28"><a xlink:href="d__a__tag__telop_8h.html" target="_top" xlink:title=" ">
<polygon fill="white" stroke="black" points="1541.23,-67.5 1541.23,-108.5 1659.23,-108.5 1659.23,-67.5 1541.23,-67.5"/>
<text text-anchor="start" x="1549.23" y="-96.5" font-family="Helvetica,sans-Serif" font-size="10.00">include/rel/d/a/tag</text>
<text text-anchor="start" x="1549.23" y="-85.5" font-family="Helvetica,sans-Serif" font-size="10.00">/d_a_tag_telop/d_a_tag</text>
<text text-anchor="middle" x="1600.23" y="-74.5" font-family="Helvetica,sans-Serif" font-size="10.00">_telop.h</text>
</a>
</g>
</g>
<!-- Node6&#45;&gt;Node67 -->
<g id="edge32" class="edge">
<title>Node6&#45;&gt;Node67</title>
<path fill="none" stroke="midnightblue" d="M2473.94,-157.64C2299.09,-152.37 1823.05,-135.89 1668.23,-109 1665.32,-108.49 1662.35,-107.91 1659.38,-107.26"/>
<polygon fill="midnightblue" stroke="midnightblue" points="2473.92,-161.15 2484.02,-157.95 2474.13,-154.15 2473.92,-161.15"/>
</g>
<!-- Node68 -->
<g id="node29" class="node">
<title>Node68</title>
<g id="a_node29"><a xlink:href="d__a__itembase_8cpp.html" target="_top" xlink:title=" ">
<polygon fill="white" stroke="black" points="1677.23,-78.5 1677.23,-97.5 1805.23,-97.5 1805.23,-78.5 1677.23,-78.5"/>
<text text-anchor="middle" x="1741.23" y="-85.5" font-family="Helvetica,sans-Serif" font-size="10.00">src/d/a/d_a_itembase.cpp</text>
</a>
</g>
</g>
<!-- Node6&#45;&gt;Node68 -->
<g id="edge35" class="edge">
<title>Node6&#45;&gt;Node68</title>
<path fill="none" stroke="midnightblue" d="M2473.84,-159.26C2346.14,-157.85 2054.99,-149.95 1814.23,-109 1798.55,-106.33 1781.39,-101.72 1767.64,-97.6"/>
<polygon fill="midnightblue" stroke="midnightblue" points="2474.18,-162.76 2484.22,-159.37 2474.25,-155.77 2474.18,-162.76"/>
</g>
<!-- Node69 -->
<g id="node30" class="node">
<title>Node69</title>
<g id="a_node30"><a xlink:href="d__a__player_8cpp.html" target="_top" xlink:title=" ">
<polygon fill="white" stroke="black" points="1823.23,-78.5 1823.23,-97.5 1937.23,-97.5 1937.23,-78.5 1823.23,-78.5"/>
<text text-anchor="middle" x="1880.23" y="-85.5" font-family="Helvetica,sans-Serif" font-size="10.00">src/d/a/d_a_player.cpp</text>
</a>
</g>
</g>
<!-- Node6&#45;&gt;Node69 -->
<g id="edge37" class="edge">
<title>Node6&#45;&gt;Node69</title>
<path fill="none" stroke="midnightblue" d="M2473.65,-158.38C2363.67,-155.52 2135.46,-145.31 1946.23,-109 1932,-106.27 1916.48,-101.65 1904.06,-97.54"/>
<polygon fill="midnightblue" stroke="midnightblue" points="2473.84,-161.89 2483.92,-158.64 2474.01,-154.89 2473.84,-161.89"/>
</g>
<!-- Node70 -->
<g id="node31" class="node">
<title>Node70</title>
<g id="a_node31"><a xlink:href="d__bg__s_8cpp.html" target="_top" xlink:title=" ">
<polygon fill="white" stroke="black" points="1955.23,-78.5 1955.23,-97.5 2059.23,-97.5 2059.23,-78.5 1955.23,-78.5"/>
<text text-anchor="middle" x="2007.23" y="-85.5" font-family="Helvetica,sans-Serif" font-size="10.00">src/d/bg/d_bg_s.cpp</text>
</a>
</g>
</g>
<!-- Node6&#45;&gt;Node70 -->
<g id="edge38" class="edge">
<title>Node6&#45;&gt;Node70</title>
<path fill="none" stroke="midnightblue" d="M2473.65,-156.82C2382.01,-152.09 2210.87,-139.67 2068.23,-109 2055.15,-106.19 2040.93,-101.62 2029.51,-97.56"/>
<polygon fill="midnightblue" stroke="midnightblue" points="2473.72,-160.32 2483.88,-157.33 2474.07,-153.33 2473.72,-160.32"/>
</g>
<!-- Node71 -->
<g id="node32" class="node">
<title>Node71</title>
<g id="a_node32"><a xlink:href="d__bg__s__movebg__actor_8cpp.html" target="_top" xlink:title=" ">
<polygon fill="white" stroke="black" points="2077.23,-73 2077.23,-103 2203.23,-103 2203.23,-73 2077.23,-73"/>
<text text-anchor="start" x="2085.23" y="-91" font-family="Helvetica,sans-Serif" font-size="10.00">src/d/bg/d_bg_s_movebg</text>
<text text-anchor="middle" x="2140.23" y="-80" font-family="Helvetica,sans-Serif" font-size="10.00">_actor.cpp</text>
</a>
</g>
</g>
<!-- Node6&#45;&gt;Node71 -->
<g id="edge39" class="edge">
<title>Node6&#45;&gt;Node71</title>
<path fill="none" stroke="midnightblue" d="M2473.89,-151.71C2407.59,-143.27 2302.18,-128.37 2212.23,-109 2204.24,-107.28 2195.82,-105.19 2187.67,-103.03"/>
<polygon fill="midnightblue" stroke="midnightblue" points="2473.83,-155.23 2484.19,-153.01 2474.71,-148.29 2473.83,-155.23"/>
</g>
<!-- Node72 -->
<g id="node33" class="node">
<title>Node72</title>
<g id="a_node33"><a xlink:href="d__bg__w_8cpp.html" target="_top" xlink:title=" ">
<polygon fill="white" stroke="black" points="2221.73,-78.5 2221.73,-97.5 2328.73,-97.5 2328.73,-78.5 2221.73,-78.5"/>
<text text-anchor="middle" x="2275.23" y="-85.5" font-family="Helvetica,sans-Serif" font-size="10.00">src/d/bg/d_bg_w.cpp</text>
</a>
</g>
</g>
<!-- Node6&#45;&gt;Node72 -->
<g id="edge40" class="edge">
<title>Node6&#45;&gt;Node72</title>
<path fill="none" stroke="midnightblue" d="M2474.19,-144.23C2434.7,-134.69 2383.37,-121.83 2338.23,-109 2325.86,-105.49 2312.26,-101.22 2300.87,-97.53"/>
<polygon fill="midnightblue" stroke="midnightblue" points="2473.42,-147.64 2483.96,-146.58 2475.05,-140.84 2473.42,-147.64"/>
</g>
<!-- Node73 -->
<g id="node34" class="node">
<title>Node73</title>
<g id="a_node34"><a xlink:href="d__cc__s_8cpp.html" target="_top" xlink:title=" ">
<polygon fill="white" stroke="black" points="2347.23,-78.5 2347.23,-97.5 2451.23,-97.5 2451.23,-78.5 2347.23,-78.5"/>
<text text-anchor="middle" x="2399.23" y="-85.5" font-family="Helvetica,sans-Serif" font-size="10.00">src/d/cc/d_cc_s.cpp</text>
</a>
</g>
</g>
<!-- Node6&#45;&gt;Node73 -->
<g id="edge41" class="edge">
<title>Node6&#45;&gt;Node73</title>
<path fill="none" stroke="midnightblue" d="M2502.16,-140.83C2474.28,-126.79 2437.37,-108.21 2416.17,-97.53"/>
<polygon fill="midnightblue" stroke="midnightblue" points="2500.73,-144.03 2511.23,-145.4 2503.87,-137.78 2500.73,-144.03"/>
</g>
<!-- Node74 -->
<g id="node35" class="node">
<title>Node74</title>
<g id="a_node35"><a xlink:href="d__com__static_8cpp.html" target="_top" xlink:title=" ">
<polygon fill="white" stroke="black" points="2469.23,-78.5 2469.23,-97.5 2609.23,-97.5 2609.23,-78.5 2469.23,-78.5"/>
<text text-anchor="middle" x="2539.23" y="-85.5" font-family="Helvetica,sans-Serif" font-size="10.00">src/d/com/d_com_static.cpp</text>
</a>
</g>
</g>
<!-- Node6&#45;&gt;Node74 -->
<g id="edge43" class="edge">
<title>Node6&#45;&gt;Node74</title>
<path fill="none" stroke="midnightblue" d="M2539.23,-135.09C2539.23,-122.21 2539.23,-107.2 2539.23,-97.89"/>
<polygon fill="midnightblue" stroke="midnightblue" points="2535.73,-135.23 2539.23,-145.23 2542.73,-135.23 2535.73,-135.23"/>
</g>
<!-- Node75 -->
<g id="node36" class="node">
<title>Node75</title>
<g id="a_node36"><a xlink:href="d__cam__param_8cpp.html" target="_top" xlink:title=" ">
<polygon fill="white" stroke="black" points="2627.73,-78.5 2627.73,-97.5 2748.73,-97.5 2748.73,-78.5 2627.73,-78.5"/>
<text text-anchor="middle" x="2688.23" y="-85.5" font-family="Helvetica,sans-Serif" font-size="10.00">src/d/d_cam_param.cpp</text>
</a>
</g>
</g>
<!-- Node6&#45;&gt;Node75 -->
<g id="edge44" class="edge">
<title>Node6&#45;&gt;Node75</title>
<path fill="none" stroke="midnightblue" d="M2578.29,-141.02C2608.01,-126.96 2647.53,-108.26 2670.19,-97.53"/>
<polygon fill="midnightblue" stroke="midnightblue" points="2576.56,-137.96 2569.02,-145.4 2579.56,-144.29 2576.56,-137.96"/>
</g>
<!-- Node76 -->
<g id="node37" class="node">
<title>Node76</title>
<g id="a_node37"><a xlink:href="d__camera_8cpp.html" target="_top" xlink:title=" ">
<polygon fill="white" stroke="black" points="2767.23,-78.5 2767.23,-97.5 2869.23,-97.5 2869.23,-78.5 2767.23,-78.5"/>
<text text-anchor="middle" x="2818.23" y="-85.5" font-family="Helvetica,sans-Serif" font-size="10.00">src/d/d_camera.cpp</text>
</a>
</g>
</g>
<!-- Node6&#45;&gt;Node76 -->
<g id="edge45" class="edge">
<title>Node6&#45;&gt;Node76</title>
<path fill="none" stroke="midnightblue" d="M2604.56,-145.96C2648.07,-136.55 2706.37,-123.2 2757.23,-109 2769.36,-105.61 2782.66,-101.32 2793.74,-97.58"/>
<polygon fill="midnightblue" stroke="midnightblue" points="2603.71,-142.56 2594.67,-148.09 2605.18,-149.41 2603.71,-142.56"/>
</g>
<!-- Node77 -->
<g id="node38" class="node">
<title>Node77</title>
<g id="a_node38"><a xlink:href="d__eye__hl_8cpp.html" target="_top" xlink:title=" ">
<polygon fill="white" stroke="black" points="2887.23,-78.5 2887.23,-97.5 2985.23,-97.5 2985.23,-78.5 2887.23,-78.5"/>
<text text-anchor="middle" x="2936.23" y="-85.5" font-family="Helvetica,sans-Serif" font-size="10.00">src/d/d_eye_hl.cpp</text>
</a>
</g>
</g>
<!-- Node6&#45;&gt;Node77 -->
<g id="edge47" class="edge">
<title>Node6&#45;&gt;Node77</title>
<path fill="none" stroke="midnightblue" d="M2604.68,-153.36C2673.47,-146.08 2784.49,-131.94 2878.23,-109 2890.43,-106.01 2903.71,-101.53 2914.48,-97.57"/>
<polygon fill="midnightblue" stroke="midnightblue" points="2604.02,-149.92 2594.43,-154.43 2604.74,-156.88 2604.02,-149.92"/>
</g>
<!-- Node78 -->
<g id="node39" class="node">
<title>Node78</title>
<g id="a_node39"><a xlink:href="d__kyeff_8cpp.html" target="_top" xlink:title=" ">
<polygon fill="white" stroke="black" points="3003.23,-78.5 3003.23,-97.5 3093.23,-97.5 3093.23,-78.5 3003.23,-78.5"/>
<text text-anchor="middle" x="3048.23" y="-85.5" font-family="Helvetica,sans-Serif" font-size="10.00">src/d/d_kyeff.cpp</text>
</a>
</g>
</g>
<!-- Node6&#45;&gt;Node78 -->
<g id="edge48" class="edge">
<title>Node6&#45;&gt;Node78</title>
<path fill="none" stroke="midnightblue" d="M2604.47,-157.25C2693.59,-153.06 2857.9,-141.3 2994.23,-109 3005.9,-106.23 3018.49,-101.67 3028.58,-97.59"/>
<polygon fill="midnightblue" stroke="midnightblue" points="2604.07,-153.77 2594.24,-157.72 2604.39,-160.76 2604.07,-153.77"/>
</g>
<!-- Node79 -->
<g id="node40" class="node">
<title>Node79</title>
<g id="a_node40"><a xlink:href="d__path_8cpp.html" target="_top" xlink:title=" ">
<polygon fill="white" stroke="black" points="3111.73,-78.5 3111.73,-97.5 3200.73,-97.5 3200.73,-78.5 3111.73,-78.5"/>
<text text-anchor="middle" x="3156.23" y="-85.5" font-family="Helvetica,sans-Serif" font-size="10.00">src/d/d_path.cpp</text>
</a>
</g>
</g>
<!-- Node6&#45;&gt;Node79 -->
<g id="edge49" class="edge">
<title>Node6&#45;&gt;Node79</title>
<path fill="none" stroke="midnightblue" d="M2604.52,-159.22C2710.34,-157.54 2925.28,-148.95 3102.23,-109 3113.93,-106.36 3126.52,-101.8 3136.61,-97.7"/>
<polygon fill="midnightblue" stroke="midnightblue" points="2604.27,-155.73 2594.32,-159.37 2604.37,-162.73 2604.27,-155.73"/>
</g>
<!-- Node80 -->
<g id="node41" class="node">
<title>Node80</title>
<g id="a_node41"><a xlink:href="d__resorce_8cpp.html" target="_top" xlink:title=" ">
<polygon fill="white" stroke="black" points="3218.23,-78.5 3218.23,-97.5 3320.23,-97.5 3320.23,-78.5 3218.23,-78.5"/>
<text text-anchor="middle" x="3269.23" y="-85.5" font-family="Helvetica,sans-Serif" font-size="10.00">src/d/d_resorce.cpp</text>
</a>
</g>
</g>
<!-- Node6&#45;&gt;Node80 -->
<g id="edge50" class="edge">
<title>Node6&#45;&gt;Node80</title>
<path fill="none" stroke="midnightblue" d="M2604.75,-159.88C2725.53,-159.42 2990.87,-152.92 3209.23,-109 3222.36,-106.36 3236.6,-101.69 3247.91,-97.53"/>
<polygon fill="midnightblue" stroke="midnightblue" points="2604.56,-156.38 2594.56,-159.91 2604.57,-163.38 2604.56,-156.38"/>
</g>
<!-- Node81 -->
<g id="node42" class="node">
<title>Node81</title>
<g id="a_node42"><a xlink:href="d__simple__model_8cpp.html" target="_top" xlink:title=" ">
<polygon fill="white" stroke="black" points="3338.23,-78.5 3338.23,-97.5 3468.23,-97.5 3468.23,-78.5 3338.23,-78.5"/>
<text text-anchor="middle" x="3403.23" y="-85.5" font-family="Helvetica,sans-Serif" font-size="10.00">src/d/d_simple_model.cpp</text>
</a>
</g>
</g>
<!-- Node6&#45;&gt;Node81 -->
<g id="edge51" class="edge">
<title>Node6&#45;&gt;Node81</title>
<path fill="none" stroke="midnightblue" d="M2604.48,-159.72C2740.31,-159.23 3062.95,-153.04 3329.23,-109 3345.24,-106.35 3362.8,-101.68 3376.79,-97.53"/>
<polygon fill="midnightblue" stroke="midnightblue" points="2604.24,-156.22 2594.25,-159.75 2604.26,-163.22 2604.24,-156.22"/>
</g>
<!-- Node82 -->
<g id="node43" class="node">
<title>Node82</title>
<g id="a_node43"><a xlink:href="d__stage_8cpp.html" target="_top" xlink:title=" ">
<polygon fill="white" stroke="black" points="3486.23,-78.5 3486.23,-97.5 3580.23,-97.5 3580.23,-78.5 3486.23,-78.5"/>
<text text-anchor="middle" x="3533.23" y="-85.5" font-family="Helvetica,sans-Serif" font-size="10.00">src/d/d_stage.cpp</text>
</a>
</g>
</g>
<!-- Node6&#45;&gt;Node82 -->
<g id="edge52" class="edge">
<title>Node6&#45;&gt;Node82</title>
<path fill="none" stroke="midnightblue" d="M2604.47,-158.44C2788.61,-155.04 3309.82,-142.66 3477.23,-109 3489.67,-106.5 3503.09,-101.78 3513.67,-97.56"/>
<polygon fill="midnightblue" stroke="midnightblue" points="2604.33,-154.94 2594.39,-158.62 2604.46,-161.94 2604.33,-154.94"/>
</g>
<!-- Node83 -->
<g id="node44" class="node">
<title>Node83</title>
<g id="a_node44"><a xlink:href="d__timer_8cpp.html" target="_top" xlink:title=" ">
<polygon fill="white" stroke="black" points="3598.23,-78.5 3598.23,-97.5 3690.23,-97.5 3690.23,-78.5 3598.23,-78.5"/>
<text text-anchor="middle" x="3644.23" y="-85.5" font-family="Helvetica,sans-Serif" font-size="10.00">src/d/d_timer.cpp</text>
</a>
</g>
</g>
<!-- Node6&#45;&gt;Node83 -->
<g id="edge53" class="edge">
<title>Node6&#45;&gt;Node83</title>
<path fill="none" stroke="midnightblue" d="M2604.58,-158.92C2803.5,-156.75 3399.5,-147.15 3589.23,-109 3601.48,-106.54 3614.65,-101.82 3625.04,-97.59"/>
<polygon fill="midnightblue" stroke="midnightblue" points="2604.25,-155.42 2594.29,-159.03 2604.33,-162.42 2604.25,-155.42"/>
</g>
<!-- Node15&#45;&gt;Node16 -->
<g id="edge9" class="edge">
<title>Node15&#45;&gt;Node16</title>
<path fill="none" stroke="midnightblue" d="M4064.97,-73.81C4037.63,-59.53 3994.81,-37.17 3971.57,-25.03"/>
<polygon fill="midnightblue" stroke="midnightblue" points="4063.46,-76.97 4073.94,-78.5 4066.7,-70.76 4063.46,-76.97"/>
</g>
<!-- Node15&#45;&gt;Node17 -->
<g id="edge10" class="edge">
<title>Node15&#45;&gt;Node17</title>
<path fill="none" stroke="midnightblue" d="M4090.23,-67.94C4090.23,-54.03 4090.23,-35.82 4090.23,-25.22"/>
<polygon fill="midnightblue" stroke="midnightblue" points="4086.73,-68.36 4090.23,-78.36 4093.73,-68.36 4086.73,-68.36"/>
</g>
<!-- Node15&#45;&gt;Node18 -->
<g id="edge11" class="edge">
<title>Node15&#45;&gt;Node18</title>
<path fill="none" stroke="midnightblue" d="M4115.56,-73.77C4139.19,-61.43 4174.31,-43.09 4198.41,-30.51"/>
<polygon fill="midnightblue" stroke="midnightblue" points="4113.75,-70.76 4106.51,-78.5 4116.99,-76.97 4113.75,-70.76"/>
</g>
<!-- Node15&#45;&gt;Node20 -->
<g id="edge12" class="edge">
<title>Node15&#45;&gt;Node20</title>
<path fill="none" stroke="midnightblue" d="M4047.72,-76.21C4031.42,-72.56 4012.57,-68.92 3995.23,-67 3606.79,-23.94 681.55,-17.33 249.48,-16.58"/>
<polygon fill="midnightblue" stroke="midnightblue" points="4046.97,-79.63 4057.51,-78.47 4048.55,-72.81 4046.97,-79.63"/>
</g>
<!-- Node24&#45;&gt;Node20 -->
<g id="edge15" class="edge">
<title>Node24&#45;&gt;Node20</title>
<path fill="none" stroke="midnightblue" d="M94.69,-73.31C120.12,-59.09 159.14,-37.25 180.65,-25.22"/>
<polygon fill="midnightblue" stroke="midnightblue" points="92.69,-70.42 85.68,-78.36 96.11,-76.53 92.69,-70.42"/>
</g>
<!-- Node41&#45;&gt;Node16 -->
<g id="edge21" class="edge">
<title>Node41&#45;&gt;Node16</title>
<path fill="none" stroke="midnightblue" d="M3841.2,-68.7C3871.96,-54.62 3913.06,-35.8 3936.59,-25.03"/>
<polygon fill="midnightblue" stroke="midnightblue" points="3839.66,-65.56 3832.02,-72.9 3842.57,-71.92 3839.66,-65.56"/>
</g>
<!-- Node41&#45;&gt;Node20 -->
<g id="edge23" class="edge">
<title>Node41&#45;&gt;Node20</title>
<path fill="none" stroke="midnightblue" d="M3736.08,-72.43C3723.89,-70.21 3711.21,-68.25 3699.23,-67 3342.03,-29.71 662.17,-18.24 249.5,-16.69"/>
<polygon fill="midnightblue" stroke="midnightblue" points="3735.7,-75.92 3746.18,-74.33 3737,-69.04 3735.7,-75.92"/>
</g>
<!-- Node41&#45;&gt;Node46 -->
<g id="edge22" class="edge">
<title>Node41&#45;&gt;Node46</title>
<path fill="none" stroke="midnightblue" d="M3787.6,-64.13C3779.73,-50.92 3770.29,-35.07 3764.52,-25.39"/>
<polygon fill="midnightblue" stroke="midnightblue" points="3784.6,-65.93 3792.73,-72.73 3790.62,-62.35 3784.6,-65.93"/>
</g>
<!-- Node55&#45;&gt;Node5 -->
<g id="edge25" class="edge">
<title>Node55&#45;&gt;Node5</title>
<path fill="none" stroke="midnightblue" d="M4313.89,-73.62C4340.24,-59.34 4381.2,-37.12 4403.49,-25.03"/>
<polygon fill="midnightblue" stroke="midnightblue" points="4312.03,-70.65 4304.91,-78.5 4315.37,-76.81 4312.03,-70.65"/>
</g>
<!-- Node56&#45;&gt;Node20 -->
<g id="edge27" class="edge">
<title>Node56&#45;&gt;Node20</title>
<path fill="none" stroke="midnightblue" d="M196.23,-67.94C196.23,-54.03 196.23,-35.82 196.23,-25.22"/>
<polygon fill="midnightblue" stroke="midnightblue" points="192.73,-68.36 196.23,-78.36 199.73,-68.36 192.73,-68.36"/>
</g>
<!-- Node106&#45;&gt;Node105 -->
<g id="edge58" class="edge">
<title>Node106&#45;&gt;Node105</title>
<path fill="none" stroke="midnightblue" d="M3797.23,-202.11C3797.23,-193.15 3797.23,-183.32 3797.23,-175.58"/>
<polygon fill="midnightblue" stroke="midnightblue" points="3793.73,-202.4 3797.23,-212.4 3800.73,-202.4 3793.73,-202.4"/>
</g>
<!-- Node107 -->
<g id="node48" class="node">
<title>Node107</title>
<g id="a_node48"><a xlink:href="f__op__scene__req_8cpp.html" target="_top" xlink:title=" ">
<polygon fill="white" stroke="black" points="3867.73,-145.5 3867.73,-175.5 3972.73,-175.5 3972.73,-145.5 3867.73,-145.5"/>
<text text-anchor="start" x="3875.73" y="-163.5" font-family="Helvetica,sans-Serif" font-size="10.00">src/f_op/f_op_scene</text>
<text text-anchor="middle" x="3920.23" y="-152.5" font-family="Helvetica,sans-Serif" font-size="10.00">_req.cpp</text>
</a>
</g>
</g>
<!-- Node106&#45;&gt;Node107 -->
<g id="edge59" class="edge">
<title>Node106&#45;&gt;Node107</title>
<path fill="none" stroke="midnightblue" d="M3832.77,-207.71C3852.17,-197.46 3875.79,-184.98 3893.59,-175.58"/>
<polygon fill="midnightblue" stroke="midnightblue" points="3831.12,-204.63 3823.92,-212.4 3834.39,-210.82 3831.12,-204.63"/>
</g>
</g>
</svg>
