<?xml version="1.0" encoding="UTF-8" standalone="no"?>
<!DOCTYPE svg PUBLIC "-//W3C//DTD SVG 1.1//EN"
 "http://www.w3.org/Graphics/SVG/1.1/DTD/svg11.dtd">
<!-- Generated by graphviz version 3.0.0 (20221109.1736)
 -->
<!-- Title: src/f_op/f_op_view.cpp Pages: 1 -->
<!--zoomable 643 -->
<svg id="main" version="1.1" xmlns="http://www.w3.org/2000/svg" xmlns:xlink="http://www.w3.org/1999/xlink" xml:space="preserve" onload="init(evt)">
<style type="text/css"><![CDATA[
.edge:hover path { stroke: red; }
.edge:hover polygon { stroke: red; fill: red; }
]]></style>
<script type="text/javascript"><![CDATA[
var edges = document.getElementsByTagName('g');
if (edges && edges.length) {
  for (var i=0;i<edges.length;i++) {
    if (edges[i].id.substr(0,4)=='edge') {
      edges[i].setAttribute('class','edge');
    }
  }
}
]]></script>
        <defs>
                <circle id="rim" cx="0" cy="0" r="7"/>
                <circle id="rim2" cx="0" cy="0" r="3.5"/>
                <g id="zoomPlus">
                        <use xlink:href="#rim" fill="#404040">
                                <set attributeName="fill" to="#808080" begin="zoomplus.mouseover" end="zoomplus.mouseout"/>
                        </use>
                        <path d="M-4,0h8M0,-4v8" fill="none" stroke="white" stroke-width="1.5" pointer-events="none"/>
                </g>
                <g id="zoomMin">
                        <use xlink:href="#rim" fill="#404040">
                                <set attributeName="fill" to="#808080" begin="zoomminus.mouseover" end="zoomminus.mouseout"/>
                        </use>
                        <path d="M-4,0h8" fill="none" stroke="white" stroke-width="1.5" pointer-events="none"/>
                </g>
                <g id="dirArrow">
                        <path fill="none" stroke="white" stroke-width="1.5" d="M0,-3.0v7 M-2.5,-0.5L0,-3.0L2.5,-0.5"/>
                </g>
               <g id="resetDef">
                       <use xlink:href="#rim2" fill="#404040">
                               <set attributeName="fill" to="#808080" begin="reset.mouseover" end="reset.mouseout"/>
                       </use>
               </g>
        </defs>

<script type="text/javascript">
var viewWidth = 1642;
var viewHeight = 643;
var sectionId = 'dynsection-0';
</script>
<script xlink:href="svgpan.js"/>
<svg id="graph" class="graph">
<g id="viewport">
<title>src/f_op/f_op_view.cpp</title>
<polygon fill="white" stroke="transparent" points="-4,4 -4,-639 1637.5,-639 1637.5,4 -4,4"/>
<!-- Node1 -->
<g id="node1" class="node">
<title>Node1</title>
<g id="a_node1"><a xlink:title=" ">
<polygon fill="#bfbfbf" stroke="black" points="1379.5,-615.5 1379.5,-634.5 1496.5,-634.5 1496.5,-615.5 1379.5,-615.5"/>
<text text-anchor="middle" x="1438" y="-622.5" font-family="Helvetica,sans-Serif" font-size="10.00">src/f_op/f_op_view.cpp</text>
</a>
</g>
</g>
<!-- Node2 -->
<g id="node2" class="node">
<title>Node2</title>
<g id="a_node2"><a xlink:href="f__op__view_8h.html" target="_top" xlink:title=" ">
<polygon fill="white" stroke="black" points="1176,-554 1176,-573 1266,-573 1266,-554 1176,-554"/>
<text text-anchor="middle" x="1221" y="-561" font-family="Helvetica,sans-Serif" font-size="10.00">f_op/f_op_view.h</text>
</a>
</g>
</g>
<!-- Node1&#45;&gt;Node2 -->
<g id="edge1" class="edge">
<title>Node1&#45;&gt;Node2</title>
<path fill="none" stroke="midnightblue" d="M1406.91,-615.48C1368.72,-605 1303.83,-587.21 1261.7,-575.66"/>
<polygon fill="midnightblue" stroke="midnightblue" points="1262.6,-572.28 1252.03,-573.01 1260.75,-579.03 1262.6,-572.28"/>
</g>
<!-- Node6 -->
<g id="node6" class="node">
<title>Node6</title>
<g id="a_node6"><a xlink:href="types_8h.html" target="_top" xlink:title=" ">
<polygon fill="white" stroke="black" points="842.5,-0.5 842.5,-19.5 923.5,-19.5 923.5,-0.5 842.5,-0.5"/>
<text text-anchor="middle" x="883" y="-7.5" font-family="Helvetica,sans-Serif" font-size="10.00">dolphin/types.h</text>
</a>
</g>
</g>
<!-- Node1&#45;&gt;Node6 -->
<g id="edge63" class="edge">
<title>Node1&#45;&gt;Node6</title>
<path fill="none" stroke="midnightblue" d="M1434.44,-615.37C1426.7,-595.75 1409,-546.2 1409,-503 1409,-503 1409,-503 1409,-137.5 1409,-86.12 1373.45,-77.96 1327,-56 1258.51,-23.61 1035.52,-14.45 934.08,-11.92"/>
<polygon fill="midnightblue" stroke="midnightblue" points="933.86,-8.42 923.78,-11.68 933.69,-15.42 933.86,-8.42"/>
</g>
<!-- Node28 -->
<g id="node28" class="node">
<title>Node28</title>
<g id="a_node28"><a xlink:href="dol2asm_8h.html" target="_top" xlink:title=" ">
<polygon fill="white" stroke="black" points="1437.5,-554 1437.5,-573 1498.5,-573 1498.5,-554 1437.5,-554"/>
<text text-anchor="middle" x="1468" y="-561" font-family="Helvetica,sans-Serif" font-size="10.00">dol2asm.h</text>
</a>
</g>
</g>
<!-- Node1&#45;&gt;Node28 -->
<g id="edge62" class="edge">
<title>Node1&#45;&gt;Node28</title>
<path fill="none" stroke="midnightblue" d="M1442.3,-615.48C1446.66,-606.82 1453.56,-593.15 1459.1,-582.15"/>
<polygon fill="midnightblue" stroke="midnightblue" points="1462.33,-583.51 1463.71,-573.01 1456.08,-580.36 1462.33,-583.51"/>
</g>
<!-- Node29 -->
<g id="node29" class="node">
<title>Node29</title>
<g id="a_node29"><a xlink:title=" ">
<polygon fill="white" stroke="#bfbfbf" points="1516.5,-548.5 1516.5,-578.5 1633.5,-578.5 1633.5,-548.5 1516.5,-548.5"/>
<text text-anchor="start" x="1524.5" y="-566.5" font-family="Helvetica,sans-Serif" font-size="10.00">asm/f_op/f_op_view</text>
<text text-anchor="middle" x="1575" y="-555.5" font-family="Helvetica,sans-Serif" font-size="10.00">/fopVw_Create__FPv.s</text>
</a>
</g>
</g>
<!-- Node1&#45;&gt;Node29 -->
<g id="edge64" class="edge">
<title>Node1&#45;&gt;Node29</title>
<path fill="none" stroke="midnightblue" d="M1457.63,-615.48C1477.31,-606.93 1508.22,-593.5 1533.39,-582.57"/>
<polygon fill="midnightblue" stroke="midnightblue" points="1534.93,-585.72 1542.71,-578.52 1532.15,-579.3 1534.93,-585.72"/>
</g>
<!-- Node3 -->
<g id="node3" class="node">
<title>Node3</title>
<g id="a_node3"><a xlink:href="c__xyz_8h.html" target="_top" xlink:title=" ">
<polygon fill="white" stroke="black" points="113,-190.5 113,-220.5 229,-220.5 229,-190.5 113,-190.5"/>
<text text-anchor="start" x="121" y="-208.5" font-family="Helvetica,sans-Serif" font-size="10.00">SSystem/SComponent</text>
<text text-anchor="middle" x="171" y="-197.5" font-family="Helvetica,sans-Serif" font-size="10.00">/c_xyz.h</text>
</a>
</g>
</g>
<!-- Node2&#45;&gt;Node3 -->
<g id="edge2" class="edge">
<title>Node2&#45;&gt;Node3</title>
<path fill="none" stroke="midnightblue" d="M1175.81,-561.74C988.64,-558.02 284,-537.97 284,-447 284,-447 284,-447 284,-333 284,-285.42 238.99,-247.51 205.79,-226.02"/>
<polygon fill="midnightblue" stroke="midnightblue" points="207.54,-222.99 197.21,-220.66 203.83,-228.92 207.54,-222.99"/>
</g>
<!-- Node2&#45;&gt;Node6 -->
<g id="edge19" class="edge">
<title>Node2&#45;&gt;Node6</title>
<path fill="none" stroke="midnightblue" d="M1252.08,-553.89C1296.02,-539.59 1371,-506.49 1371,-447 1371,-447 1371,-447 1371,-137.5 1371,-82.87 1328.9,-78.23 1279,-56 1218.44,-29.03 1026.68,-17.22 934.05,-12.99"/>
<polygon fill="midnightblue" stroke="midnightblue" points="933.95,-9.48 923.8,-12.53 933.63,-16.47 933.95,-9.48"/>
</g>
<!-- Node10 -->
<g id="node10" class="node">
<title>Node10</title>
<g id="a_node10"><a xlink:href="mtx_8h.html" target="_top" xlink:title=" ">
<polygon fill="white" stroke="black" points="334,-196 334,-215 426,-215 426,-196 334,-196"/>
<text text-anchor="middle" x="380" y="-203" font-family="Helvetica,sans-Serif" font-size="10.00">dolphin/mtx/mtx.h</text>
</a>
</g>
</g>
<!-- Node2&#45;&gt;Node10 -->
<g id="edge12" class="edge">
<title>Node2&#45;&gt;Node10</title>
<path fill="none" stroke="midnightblue" d="M1175.99,-560.83C1006.47,-553.94 416,-524.39 416,-447 416,-447 416,-447 416,-333 416,-293.02 399.16,-248.55 388.52,-224.44"/>
<polygon fill="midnightblue" stroke="midnightblue" points="391.61,-222.79 384.27,-215.15 385.24,-225.7 391.61,-222.79"/>
</g>
<!-- Node13 -->
<g id="node13" class="node">
<title>Node13</title>
<g id="a_node13"><a xlink:href="f__pc__leaf_8h.html" target="_top" xlink:title=" ">
<polygon fill="white" stroke="black" points="1178,-492.5 1178,-511.5 1264,-511.5 1264,-492.5 1178,-492.5"/>
<text text-anchor="middle" x="1221" y="-499.5" font-family="Helvetica,sans-Serif" font-size="10.00">f_pc/f_pc_leaf.h</text>
</a>
</g>
</g>
<!-- Node2&#45;&gt;Node13 -->
<g id="edge20" class="edge">
<title>Node2&#45;&gt;Node13</title>
<path fill="none" stroke="midnightblue" d="M1221,-553.98C1221,-545.58 1221,-532.48 1221,-521.66"/>
<polygon fill="midnightblue" stroke="midnightblue" points="1224.5,-521.51 1221,-511.51 1217.5,-521.51 1224.5,-521.51"/>
</g>
<!-- Node4 -->
<g id="node4" class="node">
<title>Node4</title>
<g id="a_node4"><a xlink:href="math_8h.html" target="_top" xlink:title=" ">
<polygon fill="white" stroke="black" points="42,-129 42,-148 124,-148 124,-129 42,-129"/>
<text text-anchor="middle" x="83" y="-136" font-family="Helvetica,sans-Serif" font-size="10.00">MSL_C/math.h</text>
</a>
</g>
</g>
<!-- Node3&#45;&gt;Node4 -->
<g id="edge3" class="edge">
<title>Node3&#45;&gt;Node4</title>
<path fill="none" stroke="midnightblue" d="M151.91,-190.4C137.42,-179.7 117.57,-165.03 102.89,-154.19"/>
<polygon fill="midnightblue" stroke="midnightblue" points="104.64,-151.13 94.52,-148.01 100.48,-156.76 104.64,-151.13"/>
</g>
<!-- Node8 -->
<g id="node8" class="node">
<title>Node8</title>
<g id="a_node8"><a xlink:href="vec_8h.html" target="_top" xlink:title=" ">
<polygon fill="white" stroke="black" points="260,-62 260,-81 352,-81 352,-62 260,-62"/>
<text text-anchor="middle" x="306" y="-69" font-family="Helvetica,sans-Serif" font-size="10.00">dolphin/mtx/vec.h</text>
</a>
</g>
</g>
<!-- Node3&#45;&gt;Node8 -->
<g id="edge8" class="edge">
<title>Node3&#45;&gt;Node8</title>
<path fill="none" stroke="midnightblue" d="M174.59,-190.2C179.66,-172.52 190.43,-142.4 209,-123 225.7,-105.56 249.75,-92.98 269.72,-84.74"/>
<polygon fill="midnightblue" stroke="midnightblue" points="271.12,-87.95 279.15,-81.04 268.56,-81.44 271.12,-87.95"/>
</g>
<!-- Node9 -->
<g id="node9" class="node">
<title>Node9</title>
<g id="a_node9"><a xlink:href="global_8h.html" target="_top" xlink:title=" ">
<polygon fill="white" stroke="black" points="192,-62 192,-81 242,-81 242,-62 192,-62"/>
<text text-anchor="middle" x="217" y="-69" font-family="Helvetica,sans-Serif" font-size="10.00">global.h</text>
</a>
</g>
</g>
<!-- Node3&#45;&gt;Node9 -->
<g id="edge10" class="edge">
<title>Node3&#45;&gt;Node9</title>
<path fill="none" stroke="midnightblue" d="M169.33,-190.39C167.91,-173.69 167.3,-145.32 176,-123 181.14,-109.82 191.07,-97.44 199.87,-88.24"/>
<polygon fill="midnightblue" stroke="midnightblue" points="202.51,-90.55 207.16,-81.03 197.59,-85.57 202.51,-90.55"/>
</g>
<!-- Node5 -->
<g id="node5" class="node">
<title>Node5</title>
<g id="a_node5"><a xlink:href="float_8h.html" target="_top" xlink:title=" ">
<polygon fill="white" stroke="black" points="0,-56.5 0,-86.5 136,-86.5 136,-56.5 0,-56.5"/>
<text text-anchor="start" x="8" y="-74.5" font-family="Helvetica,sans-Serif" font-size="10.00">MSL_C/MSL_Common/Src</text>
<text text-anchor="middle" x="68" y="-63.5" font-family="Helvetica,sans-Serif" font-size="10.00">/float.h</text>
</a>
</g>
</g>
<!-- Node4&#45;&gt;Node5 -->
<g id="edge4" class="edge">
<title>Node4&#45;&gt;Node5</title>
<path fill="none" stroke="midnightblue" d="M80.98,-128.73C79.07,-120.46 76.11,-107.66 73.51,-96.37"/>
<polygon fill="midnightblue" stroke="midnightblue" points="76.91,-95.55 71.25,-86.59 70.09,-97.12 76.91,-95.55"/>
</g>
<!-- Node4&#45;&gt;Node6 -->
<g id="edge7" class="edge">
<title>Node4&#45;&gt;Node6</title>
<path fill="none" stroke="midnightblue" d="M93.53,-128.92C105.87,-118.88 126.92,-101.74 145,-87 161.89,-73.23 162.71,-63.97 183,-56 242.84,-32.5 680.31,-17.15 831.65,-12.49"/>
<polygon fill="midnightblue" stroke="midnightblue" points="832.15,-15.98 842.04,-12.18 831.94,-8.98 832.15,-15.98"/>
</g>
<!-- Node5&#45;&gt;Node6 -->
<g id="edge5" class="edge">
<title>Node5&#45;&gt;Node6</title>
<path fill="none" stroke="midnightblue" d="M136.37,-57.81C140.97,-57.14 145.55,-56.53 150,-56 405.01,-25.72 712.5,-15.23 832.03,-12.14"/>
<polygon fill="midnightblue" stroke="midnightblue" points="832.42,-15.63 842.33,-11.88 832.24,-8.63 832.42,-15.63"/>
</g>
<!-- Node7 -->
<g id="node7" class="node">
<title>Node7</title>
<g id="a_node7"><a xlink:href="fdlibm_8h.html" target="_top" xlink:title=" ">
<polygon fill="white" stroke="black" points="43,-0.5 43,-19.5 93,-19.5 93,-0.5 43,-0.5"/>
<text text-anchor="middle" x="68" y="-7.5" font-family="Helvetica,sans-Serif" font-size="10.00">fdlibm.h</text>
</a>
</g>
</g>
<!-- Node5&#45;&gt;Node7 -->
<g id="edge6" class="edge">
<title>Node5&#45;&gt;Node7</title>
<path fill="none" stroke="midnightblue" d="M68,-56.4C68,-48.47 68,-38.46 68,-29.86"/>
<polygon fill="midnightblue" stroke="midnightblue" points="71.5,-29.66 68,-19.66 64.5,-29.66 71.5,-29.66"/>
</g>
<!-- Node8&#45;&gt;Node6 -->
<g id="edge9" class="edge">
<title>Node8&#45;&gt;Node6</title>
<path fill="none" stroke="midnightblue" d="M337.58,-61.93C346.69,-59.71 356.69,-57.52 366,-56 535.31,-28.33 738.78,-16.93 831.92,-12.9"/>
<polygon fill="midnightblue" stroke="midnightblue" points="832.35,-16.39 842.19,-12.47 832.05,-9.39 832.35,-16.39"/>
</g>
<!-- Node9&#45;&gt;Node6 -->
<g id="edge11" class="edge">
<title>Node9&#45;&gt;Node6</title>
<path fill="none" stroke="midnightblue" d="M233.92,-61.98C239.26,-59.65 245.26,-57.39 251,-56 360.96,-29.43 702.19,-16.51 832.09,-12.45"/>
<polygon fill="midnightblue" stroke="midnightblue" points="832.28,-15.95 842.17,-12.14 832.07,-8.95 832.28,-15.95"/>
</g>
<!-- Node10&#45;&gt;Node6 -->
<g id="edge18" class="edge">
<title>Node10&#45;&gt;Node6</title>
<path fill="none" stroke="midnightblue" d="M380.12,-195.9C380.73,-180.18 383.86,-146.25 399,-123 426.02,-81.51 442.01,-74.34 488,-56 549.42,-31.51 740.19,-18.47 832.27,-13.46"/>
<polygon fill="midnightblue" stroke="midnightblue" points="832.66,-16.94 842.46,-12.92 832.29,-9.95 832.66,-16.94"/>
</g>
<!-- Node10&#45;&gt;Node8 -->
<g id="edge17" class="edge">
<title>Node10&#45;&gt;Node8</title>
<path fill="none" stroke="midnightblue" d="M375.14,-195.84C363.12,-174.39 331.78,-118.49 315.75,-89.9"/>
<polygon fill="midnightblue" stroke="midnightblue" points="318.72,-88.03 310.78,-81.02 312.61,-91.46 318.72,-88.03"/>
</g>
<!-- Node11 -->
<g id="node11" class="node">
<title>Node11</title>
<g id="a_node11"><a xlink:href="mtx44_8h.html" target="_top" xlink:title=" ">
<polygon fill="white" stroke="black" points="408.5,-129 408.5,-148 511.5,-148 511.5,-129 408.5,-129"/>
<text text-anchor="middle" x="460" y="-136" font-family="Helvetica,sans-Serif" font-size="10.00">dolphin/mtx/mtx44.h</text>
</a>
</g>
</g>
<!-- Node10&#45;&gt;Node11 -->
<g id="edge13" class="edge">
<title>Node10&#45;&gt;Node11</title>
<path fill="none" stroke="midnightblue" d="M390.79,-195.73C403.74,-185.21 425.69,-167.38 441.39,-154.62"/>
<polygon fill="midnightblue" stroke="midnightblue" points="443.83,-157.15 449.38,-148.13 439.41,-151.72 443.83,-157.15"/>
</g>
<!-- Node12 -->
<g id="node12" class="node">
<title>Node12</title>
<g id="a_node12"><a xlink:href="quat_8h.html" target="_top" xlink:title=" ">
<polygon fill="white" stroke="black" points="218.5,-129 218.5,-148 313.5,-148 313.5,-129 218.5,-129"/>
<text text-anchor="middle" x="266" y="-136" font-family="Helvetica,sans-Serif" font-size="10.00">dolphin/mtx/quat.h</text>
</a>
</g>
</g>
<!-- Node10&#45;&gt;Node12 -->
<g id="edge15" class="edge">
<title>Node10&#45;&gt;Node12</title>
<path fill="none" stroke="midnightblue" d="M364.63,-195.73C345.48,-184.82 312.56,-166.05 290.06,-153.22"/>
<polygon fill="midnightblue" stroke="midnightblue" points="291.55,-150.04 281.13,-148.13 288.08,-156.12 291.55,-150.04"/>
</g>
<!-- Node11&#45;&gt;Node6 -->
<g id="edge14" class="edge">
<title>Node11&#45;&gt;Node6</title>
<path fill="none" stroke="midnightblue" d="M464.17,-128.76C472.92,-111.51 494.98,-73.26 526,-56 577.47,-27.36 746.84,-16.5 832.47,-12.76"/>
<polygon fill="midnightblue" stroke="midnightblue" points="832.65,-16.26 842.49,-12.34 832.35,-9.26 832.65,-16.26"/>
</g>
<!-- Node12&#45;&gt;Node8 -->
<g id="edge16" class="edge">
<title>Node12&#45;&gt;Node8</title>
<path fill="none" stroke="midnightblue" d="M271.39,-128.73C277.51,-118.79 287.64,-102.34 295.36,-89.79"/>
<polygon fill="midnightblue" stroke="midnightblue" points="298.43,-91.48 300.69,-81.13 292.47,-87.81 298.43,-91.48"/>
</g>
<!-- Node13&#45;&gt;Node6 -->
<g id="edge21" class="edge">
<title>Node13&#45;&gt;Node6</title>
<path fill="none" stroke="midnightblue" d="M1241.02,-492.44C1273.24,-477.17 1333,-441.97 1333,-391 1333,-391 1333,-391 1333,-137.5 1333,-76.65 1279.4,-78.83 1223,-56 1171.66,-35.22 1015.37,-20.88 933.79,-14.59"/>
<polygon fill="midnightblue" stroke="midnightblue" points="933.98,-11.09 923.75,-13.83 933.45,-18.07 933.98,-11.09"/>
</g>
<!-- Node14 -->
<g id="node14" class="node">
<title>Node14</title>
<g id="a_node14"><a xlink:href="f__pc__base_8h.html" target="_top" xlink:title=" ">
<polygon fill="white" stroke="black" points="920.5,-436.5 920.5,-455.5 1011.5,-455.5 1011.5,-436.5 920.5,-436.5"/>
<text text-anchor="middle" x="966" y="-443.5" font-family="Helvetica,sans-Serif" font-size="10.00">f_pc/f_pc_base.h</text>
</a>
</g>
</g>
<!-- Node13&#45;&gt;Node14 -->
<g id="edge22" class="edge">
<title>Node13&#45;&gt;Node14</title>
<path fill="none" stroke="midnightblue" d="M1180.59,-492.44C1136.02,-483 1064.23,-467.8 1016.11,-457.61"/>
<polygon fill="midnightblue" stroke="midnightblue" points="1016.72,-454.16 1006.22,-455.52 1015.27,-461.01 1016.72,-454.16"/>
</g>
<!-- Node26 -->
<g id="node26" class="node">
<title>Node26</title>
<g id="a_node26"><a xlink:href="f__pc__method_8h.html" target="_top" xlink:title=" ">
<polygon fill="white" stroke="black" points="1203,-324.5 1203,-343.5 1305,-343.5 1305,-324.5 1203,-324.5"/>
<text text-anchor="middle" x="1254" y="-331.5" font-family="Helvetica,sans-Serif" font-size="10.00">f_pc/f_pc_method.h</text>
</a>
</g>
</g>
<!-- Node13&#45;&gt;Node26 -->
<g id="edge61" class="edge">
<title>Node13&#45;&gt;Node26</title>
<path fill="none" stroke="midnightblue" d="M1222.77,-492.08C1227.97,-465.95 1243.22,-389.21 1250.31,-353.58"/>
<polygon fill="midnightblue" stroke="midnightblue" points="1253.78,-354.06 1252.3,-343.57 1246.91,-352.69 1253.78,-354.06"/>
</g>
<!-- Node27 -->
<g id="node27" class="node">
<title>Node27</title>
<g id="a_node27"><a xlink:href="f__pc__draw__priority_8h.html" target="_top" xlink:title=" ">
<polygon fill="white" stroke="black" points="1141.5,-263 1141.5,-282 1266.5,-282 1266.5,-263 1141.5,-263"/>
<text text-anchor="middle" x="1204" y="-270" font-family="Helvetica,sans-Serif" font-size="10.00">f_pc/f_pc_draw_priority.h</text>
</a>
</g>
</g>
<!-- Node13&#45;&gt;Node27 -->
<g id="edge59" class="edge">
<title>Node13&#45;&gt;Node27</title>
<path fill="none" stroke="midnightblue" d="M1218.08,-492.2C1209.88,-466.45 1187.63,-388.97 1194,-324 1195.05,-313.26 1197.34,-301.42 1199.46,-291.9"/>
<polygon fill="midnightblue" stroke="midnightblue" points="1202.9,-292.54 1201.79,-282 1196.09,-290.93 1202.9,-292.54"/>
</g>
<!-- Node14&#45;&gt;Node6 -->
<g id="edge34" class="edge">
<title>Node14&#45;&gt;Node6</title>
<path fill="none" stroke="midnightblue" d="M979.72,-436.46C1002.83,-421.19 1048.87,-386.77 1068,-344 1092.98,-288.14 1075,-267.69 1075,-206.5 1075,-206.5 1075,-206.5 1075,-137.5 1075,-69.72 990.53,-36.2 933.64,-21.31"/>
<polygon fill="midnightblue" stroke="midnightblue" points="934.27,-17.86 923.72,-18.83 932.57,-24.65 934.27,-17.86"/>
</g>
<!-- Node15 -->
<g id="node15" class="node">
<title>Node15</title>
<g id="a_node15"><a xlink:href="c__tag_8h.html" target="_top" xlink:title=" ">
<polygon fill="white" stroke="black" points="634,-257.5 634,-287.5 750,-287.5 750,-257.5 634,-257.5"/>
<text text-anchor="start" x="642" y="-275.5" font-family="Helvetica,sans-Serif" font-size="10.00">SSystem/SComponent</text>
<text text-anchor="middle" x="692" y="-264.5" font-family="Helvetica,sans-Serif" font-size="10.00">/c_tag.h</text>
</a>
</g>
</g>
<!-- Node14&#45;&gt;Node15 -->
<g id="edge23" class="edge">
<title>Node14&#45;&gt;Node15</title>
<path fill="none" stroke="midnightblue" d="M920.42,-441.93C859.45,-436.92 755.77,-424.93 728,-400 699.07,-374.03 692.7,-326.66 691.67,-297.83"/>
<polygon fill="midnightblue" stroke="midnightblue" points="695.17,-297.72 691.51,-287.77 688.17,-297.83 695.17,-297.72"/>
</g>
<!-- Node19 -->
<g id="node19" class="node">
<title>Node19</title>
<g id="a_node19"><a xlink:href="f__pc__delete__tag_8h.html" target="_top" xlink:title=" ">
<polygon fill="white" stroke="black" points="737.5,-380.5 737.5,-399.5 852.5,-399.5 852.5,-380.5 737.5,-380.5"/>
<text text-anchor="middle" x="795" y="-387.5" font-family="Helvetica,sans-Serif" font-size="10.00">f_pc/f_pc_delete_tag.h</text>
</a>
</g>
</g>
<!-- Node14&#45;&gt;Node19 -->
<g id="edge35" class="edge">
<title>Node14&#45;&gt;Node19</title>
<path fill="none" stroke="midnightblue" d="M938.9,-436.44C910.01,-427.32 864.08,-412.81 831.89,-402.65"/>
<polygon fill="midnightblue" stroke="midnightblue" points="832.56,-399.19 821.97,-399.52 830.45,-405.87 832.56,-399.19"/>
</g>
<!-- Node21 -->
<g id="node21" class="node">
<title>Node21</title>
<g id="a_node21"><a xlink:href="f__pc__layer__tag_8h.html" target="_top" xlink:title=" ">
<polygon fill="white" stroke="black" points="870.5,-380.5 870.5,-399.5 979.5,-399.5 979.5,-380.5 870.5,-380.5"/>
<text text-anchor="middle" x="925" y="-387.5" font-family="Helvetica,sans-Serif" font-size="10.00">f_pc/f_pc_layer_tag.h</text>
</a>
</g>
</g>
<!-- Node14&#45;&gt;Node21 -->
<g id="edge43" class="edge">
<title>Node14&#45;&gt;Node21</title>
<path fill="none" stroke="midnightblue" d="M959.23,-436.08C953.44,-428.46 944.94,-417.26 937.86,-407.94"/>
<polygon fill="midnightblue" stroke="midnightblue" points="940.48,-405.6 931.64,-399.75 934.9,-409.83 940.48,-405.6"/>
</g>
<!-- Node22 -->
<g id="node22" class="node">
<title>Node22</title>
<g id="a_node22"><a xlink:href="f__pc__line__tag_8h.html" target="_top" xlink:title=" ">
<polygon fill="white" stroke="black" points="955,-324.5 955,-343.5 1059,-343.5 1059,-324.5 955,-324.5"/>
<text text-anchor="middle" x="1007" y="-331.5" font-family="Helvetica,sans-Serif" font-size="10.00">f_pc/f_pc_line_tag.h</text>
</a>
</g>
</g>
<!-- Node14&#45;&gt;Node22 -->
<g id="edge47" class="edge">
<title>Node14&#45;&gt;Node22</title>
<path fill="none" stroke="midnightblue" d="M970.84,-436.24C975.64,-427.31 982.97,-412.97 988,-400 993.97,-384.58 999.12,-366.49 1002.54,-353.31"/>
<polygon fill="midnightblue" stroke="midnightblue" points="1005.95,-354.12 1004.99,-343.57 999.16,-352.41 1005.95,-354.12"/>
</g>
<!-- Node23 -->
<g id="node23" class="node">
<title>Node23</title>
<g id="a_node23"><a xlink:href="f__pc__priority_8h.html" target="_top" xlink:title=" ">
<polygon fill="white" stroke="black" points="541,-380.5 541,-399.5 639,-399.5 639,-380.5 541,-380.5"/>
<text text-anchor="middle" x="590" y="-387.5" font-family="Helvetica,sans-Serif" font-size="10.00">f_pc/f_pc_priority.h</text>
</a>
</g>
</g>
<!-- Node14&#45;&gt;Node23 -->
<g id="edge50" class="edge">
<title>Node14&#45;&gt;Node23</title>
<path fill="none" stroke="midnightblue" d="M920.27,-438.43C852.33,-428.67 724.67,-410.34 649.52,-399.55"/>
<polygon fill="midnightblue" stroke="midnightblue" points="649.68,-396.03 639.28,-398.08 648.68,-402.96 649.68,-396.03"/>
</g>
<!-- Node25 -->
<g id="node25" class="node">
<title>Node25</title>
<g id="a_node25"><a xlink:href="f__pc__profile_8h.html" target="_top" xlink:title=" ">
<polygon fill="white" stroke="black" points="1077.5,-380.5 1077.5,-399.5 1172.5,-399.5 1172.5,-380.5 1077.5,-380.5"/>
<text text-anchor="middle" x="1125" y="-387.5" font-family="Helvetica,sans-Serif" font-size="10.00">f_pc/f_pc_profile.h</text>
</a>
</g>
</g>
<!-- Node14&#45;&gt;Node25 -->
<g id="edge55" class="edge">
<title>Node14&#45;&gt;Node25</title>
<path fill="none" stroke="midnightblue" d="M991.19,-436.44C1017.94,-427.36 1060.4,-412.94 1090.31,-402.78"/>
<polygon fill="midnightblue" stroke="midnightblue" points="1091.58,-406.05 1099.92,-399.52 1089.33,-399.42 1091.58,-406.05"/>
</g>
<!-- Node15&#45;&gt;Node6 -->
<g id="edge33" class="edge">
<title>Node15&#45;&gt;Node6</title>
<path fill="none" stroke="midnightblue" d="M671.28,-257.43C636.32,-231.82 571.77,-175.39 597,-123 638.45,-36.91 762,-16.47 832.4,-11.95"/>
<polygon fill="midnightblue" stroke="midnightblue" points="832.6,-15.44 842.39,-11.39 832.21,-8.45 832.6,-15.44"/>
</g>
<!-- Node16 -->
<g id="node16" class="node">
<title>Node16</title>
<g id="a_node16"><a xlink:href="c__list_8h.html" target="_top" xlink:title=" ">
<polygon fill="white" stroke="black" points="606,-123.5 606,-153.5 722,-153.5 722,-123.5 606,-123.5"/>
<text text-anchor="start" x="614" y="-141.5" font-family="Helvetica,sans-Serif" font-size="10.00">SSystem/SComponent</text>
<text text-anchor="middle" x="664" y="-130.5" font-family="Helvetica,sans-Serif" font-size="10.00">/c_list.h</text>
</a>
</g>
</g>
<!-- Node15&#45;&gt;Node16 -->
<g id="edge24" class="edge">
<title>Node15&#45;&gt;Node16</title>
<path fill="none" stroke="midnightblue" d="M687.7,-257.45C684.71,-247.37 680.78,-233.43 678,-221 673.74,-201.99 670.07,-180.24 667.55,-163.99"/>
<polygon fill="midnightblue" stroke="midnightblue" points="670.95,-163.08 666,-153.72 664.03,-164.13 670.95,-163.08"/>
</g>
<!-- Node17 -->
<g id="node17" class="node">
<title>Node17</title>
<g id="a_node17"><a xlink:href="c__node_8h.html" target="_top" xlink:title=" ">
<polygon fill="white" stroke="black" points="720,-56.5 720,-86.5 836,-86.5 836,-56.5 720,-56.5"/>
<text text-anchor="start" x="728" y="-74.5" font-family="Helvetica,sans-Serif" font-size="10.00">SSystem/SComponent</text>
<text text-anchor="middle" x="778" y="-63.5" font-family="Helvetica,sans-Serif" font-size="10.00">/c_node.h</text>
</a>
</g>
</g>
<!-- Node15&#45;&gt;Node17 -->
<g id="edge28" class="edge">
<title>Node15&#45;&gt;Node17</title>
<path fill="none" stroke="midnightblue" d="M694.03,-257.29C696.69,-240.72 702.09,-212.72 711,-190 711.98,-187.5 745.73,-128.65 764.94,-95.21"/>
<polygon fill="midnightblue" stroke="midnightblue" points="767.99,-96.93 769.94,-86.52 761.92,-93.44 767.99,-96.93"/>
</g>
<!-- Node18 -->
<g id="node18" class="node">
<title>Node18</title>
<g id="a_node18"><a xlink:href="c__tree_8h.html" target="_top" xlink:title=" ">
<polygon fill="white" stroke="black" points="720,-190.5 720,-220.5 836,-220.5 836,-190.5 720,-190.5"/>
<text text-anchor="start" x="728" y="-208.5" font-family="Helvetica,sans-Serif" font-size="10.00">SSystem/SComponent</text>
<text text-anchor="middle" x="778" y="-197.5" font-family="Helvetica,sans-Serif" font-size="10.00">/c_tree.h</text>
</a>
</g>
</g>
<!-- Node15&#45;&gt;Node18 -->
<g id="edge29" class="edge">
<title>Node15&#45;&gt;Node18</title>
<path fill="none" stroke="midnightblue" d="M710.66,-257.4C722.49,-248.45 737.99,-236.74 751.14,-226.8"/>
<polygon fill="midnightblue" stroke="midnightblue" points="753.51,-229.4 759.38,-220.58 749.29,-223.81 753.51,-229.4"/>
</g>
<!-- Node16&#45;&gt;Node6 -->
<g id="edge27" class="edge">
<title>Node16&#45;&gt;Node6</title>
<path fill="none" stroke="midnightblue" d="M668.31,-123.39C674.66,-105.06 688.28,-73.34 711,-56 745.99,-29.3 795.37,-18.38 832.24,-13.95"/>
<polygon fill="midnightblue" stroke="midnightblue" points="832.73,-17.42 842.29,-12.86 831.97,-10.46 832.73,-17.42"/>
</g>
<!-- Node16&#45;&gt;Node17 -->
<g id="edge25" class="edge">
<title>Node16&#45;&gt;Node17</title>
<path fill="none" stroke="midnightblue" d="M688.74,-123.4C705.02,-114.11 726.54,-101.84 744.37,-91.67"/>
<polygon fill="midnightblue" stroke="midnightblue" points="746.36,-94.57 753.31,-86.58 742.89,-88.49 746.36,-94.57"/>
</g>
<!-- Node17&#45;&gt;Node6 -->
<g id="edge26" class="edge">
<title>Node17&#45;&gt;Node6</title>
<path fill="none" stroke="midnightblue" d="M802.88,-56.4C819.71,-46.86 841.84,-34.32 858.57,-24.84"/>
<polygon fill="midnightblue" stroke="midnightblue" points="860.75,-27.63 867.72,-19.66 857.3,-21.54 860.75,-27.63"/>
</g>
<!-- Node18&#45;&gt;Node6 -->
<g id="edge32" class="edge">
<title>Node18&#45;&gt;Node6</title>
<path fill="none" stroke="midnightblue" d="M786.51,-190.17C799.49,-168.18 824.85,-124.69 845,-87 855.51,-67.34 866.85,-44.41 874.38,-28.92"/>
<polygon fill="midnightblue" stroke="midnightblue" points="877.73,-30.04 878.93,-19.51 871.43,-26.99 877.73,-30.04"/>
</g>
<!-- Node18&#45;&gt;Node16 -->
<g id="edge30" class="edge">
<title>Node18&#45;&gt;Node16</title>
<path fill="none" stroke="midnightblue" d="M753.26,-190.4C736.98,-181.11 715.46,-168.84 697.63,-158.67"/>
<polygon fill="midnightblue" stroke="midnightblue" points="699.11,-155.49 688.69,-153.58 695.64,-161.57 699.11,-155.49"/>
</g>
<!-- Node18&#45;&gt;Node17 -->
<g id="edge31" class="edge">
<title>Node18&#45;&gt;Node17</title>
<path fill="none" stroke="midnightblue" d="M778,-190.37C778,-168.04 778,-124.31 778,-96.85"/>
<polygon fill="midnightblue" stroke="midnightblue" points="781.5,-96.52 778,-86.52 774.5,-96.52 781.5,-96.52"/>
</g>
<!-- Node19&#45;&gt;Node6 -->
<g id="edge37" class="edge">
<title>Node19&#45;&gt;Node6</title>
<path fill="none" stroke="midnightblue" d="M815.93,-380.35C832.3,-372.74 854.77,-360.32 870,-344 916.77,-293.85 940,-275.07 940,-206.5 940,-206.5 940,-206.5 940,-137.5 940,-94.97 912.89,-50.93 896.06,-27.7"/>
<polygon fill="midnightblue" stroke="midnightblue" points="898.79,-25.5 889.99,-19.6 893.18,-29.7 898.79,-25.5"/>
</g>
<!-- Node19&#45;&gt;Node15 -->
<g id="edge36" class="edge">
<title>Node19&#45;&gt;Node15</title>
<path fill="none" stroke="midnightblue" d="M777.83,-380.39C763.39,-372.48 742.93,-359.63 729,-344 716.75,-330.25 707.22,-311.71 700.91,-297.1"/>
<polygon fill="midnightblue" stroke="midnightblue" points="704.09,-295.63 697.06,-287.71 697.62,-298.29 704.09,-295.63"/>
</g>
<!-- Node20 -->
<g id="node20" class="node">
<title>Node20</title>
<g id="a_node20"><a xlink:href="f__pc__layer_8h.html" target="_top" xlink:title=" ">
<polygon fill="white" stroke="black" points="771,-324.5 771,-343.5 861,-343.5 861,-324.5 771,-324.5"/>
<text text-anchor="middle" x="816" y="-331.5" font-family="Helvetica,sans-Serif" font-size="10.00">f_pc/f_pc_layer.h</text>
</a>
</g>
</g>
<!-- Node19&#45;&gt;Node20 -->
<g id="edge38" class="edge">
<title>Node19&#45;&gt;Node20</title>
<path fill="none" stroke="midnightblue" d="M798.47,-380.08C801.31,-372.77 805.43,-362.18 808.96,-353.1"/>
<polygon fill="midnightblue" stroke="midnightblue" points="812.23,-354.34 812.6,-343.75 805.71,-351.8 812.23,-354.34"/>
</g>
<!-- Node20&#45;&gt;Node6 -->
<g id="edge42" class="edge">
<title>Node20&#45;&gt;Node6</title>
<path fill="none" stroke="midnightblue" d="M827.6,-324.28C851.07,-305.53 902,-258.82 902,-206.5 902,-206.5 902,-206.5 902,-137.5 902,-98.77 893.18,-54.11 887.56,-29.57"/>
<polygon fill="midnightblue" stroke="midnightblue" points="890.89,-28.44 885.18,-19.52 884.08,-30.06 890.89,-28.44"/>
</g>
<!-- Node20&#45;&gt;Node15 -->
<g id="edge40" class="edge">
<title>Node20&#45;&gt;Node15</title>
<path fill="none" stroke="midnightblue" d="M798.23,-324.48C780.58,-316 752.93,-302.74 730.27,-291.86"/>
<polygon fill="midnightblue" stroke="midnightblue" points="731.75,-288.69 721.22,-287.52 728.73,-295 731.75,-288.69"/>
</g>
<!-- Node20&#45;&gt;Node17 -->
<g id="edge39" class="edge">
<title>Node20&#45;&gt;Node17</title>
<path fill="none" stroke="midnightblue" d="M820.58,-324.21C831.71,-301.7 858.31,-240.2 845,-190 835.44,-153.93 811.93,-117.37 795.48,-94.82"/>
<polygon fill="midnightblue" stroke="midnightblue" points="798.14,-92.53 789.35,-86.62 792.53,-96.72 798.14,-92.53"/>
</g>
<!-- Node20&#45;&gt;Node18 -->
<g id="edge41" class="edge">
<title>Node20&#45;&gt;Node18</title>
<path fill="none" stroke="midnightblue" d="M813.39,-324.31C807.65,-305.21 793.79,-259.07 785.22,-230.52"/>
<polygon fill="midnightblue" stroke="midnightblue" points="788.55,-229.46 782.32,-220.89 781.85,-231.47 788.55,-229.46"/>
</g>
<!-- Node21&#45;&gt;Node6 -->
<g id="edge45" class="edge">
<title>Node21&#45;&gt;Node6</title>
<path fill="none" stroke="midnightblue" d="M927.85,-380.26C938.86,-346.38 978,-224.65 978,-206.5 978,-206.5 978,-206.5 978,-137.5 978,-99.74 976.74,-86.15 954,-56 943.55,-42.14 927.48,-31.45 913.27,-23.97"/>
<polygon fill="midnightblue" stroke="midnightblue" points="914.8,-20.82 904.28,-19.51 911.69,-27.09 914.8,-20.82"/>
</g>
<!-- Node21&#45;&gt;Node15 -->
<g id="edge44" class="edge">
<title>Node21&#45;&gt;Node15</title>
<path fill="none" stroke="midnightblue" d="M870.49,-381.25C837.42,-374.83 795.32,-363.49 762,-344 740.89,-331.66 721.7,-311.37 708.77,-295.72"/>
<polygon fill="midnightblue" stroke="midnightblue" points="711.24,-293.2 702.26,-287.58 705.77,-297.57 711.24,-293.2"/>
</g>
<!-- Node21&#45;&gt;Node20 -->
<g id="edge46" class="edge">
<title>Node21&#45;&gt;Node20</title>
<path fill="none" stroke="midnightblue" d="M907.49,-380.32C889.93,-371.62 862.67,-358.12 842.47,-348.11"/>
<polygon fill="midnightblue" stroke="midnightblue" points="843.98,-344.96 833.47,-343.65 840.88,-351.23 843.98,-344.96"/>
</g>
<!-- Node22&#45;&gt;Node6 -->
<g id="edge49" class="edge">
<title>Node22&#45;&gt;Node6</title>
<path fill="none" stroke="midnightblue" d="M1008.03,-324.43C1010.4,-304.02 1016,-250.97 1016,-206.5 1016,-206.5 1016,-206.5 1016,-137.5 1016,-99.74 1017.26,-84.07 992,-56 976.69,-38.99 953.96,-28.25 933.22,-21.56"/>
<polygon fill="midnightblue" stroke="midnightblue" points="934.13,-18.18 923.55,-18.67 932.13,-24.88 934.13,-18.18"/>
</g>
<!-- Node22&#45;&gt;Node15 -->
<g id="edge48" class="edge">
<title>Node22&#45;&gt;Node15</title>
<path fill="none" stroke="midnightblue" d="M961.87,-324.48C909.09,-314.51 821.19,-297.9 760.11,-286.37"/>
<polygon fill="midnightblue" stroke="midnightblue" points="760.65,-282.9 750.17,-284.49 759.35,-289.78 760.65,-282.9"/>
</g>
<!-- Node23&#45;&gt;Node15 -->
<g id="edge51" class="edge">
<title>Node23&#45;&gt;Node15</title>
<path fill="none" stroke="midnightblue" d="M597.67,-380.32C613.47,-362.42 650.08,-320.97 672.77,-295.28"/>
<polygon fill="midnightblue" stroke="midnightblue" points="675.6,-297.36 679.6,-287.55 670.35,-292.72 675.6,-297.36"/>
</g>
<!-- Node24 -->
<g id="node24" class="node">
<title>Node24</title>
<g id="a_node24"><a xlink:href="f__pc__method__tag_8h.html" target="_top" xlink:title=" ">
<polygon fill="white" stroke="black" points="479.5,-324.5 479.5,-343.5 600.5,-343.5 600.5,-324.5 479.5,-324.5"/>
<text text-anchor="middle" x="540" y="-331.5" font-family="Helvetica,sans-Serif" font-size="10.00">f_pc/f_pc_method_tag.h</text>
</a>
</g>
</g>
<!-- Node23&#45;&gt;Node24 -->
<g id="edge52" class="edge">
<title>Node23&#45;&gt;Node24</title>
<path fill="none" stroke="midnightblue" d="M581.74,-380.08C574.54,-372.3 563.89,-360.8 555.15,-351.37"/>
<polygon fill="midnightblue" stroke="midnightblue" points="557.47,-348.71 548.1,-343.75 552.33,-353.47 557.47,-348.71"/>
</g>
<!-- Node24&#45;&gt;Node6 -->
<g id="edge54" class="edge">
<title>Node24&#45;&gt;Node6</title>
<path fill="none" stroke="midnightblue" d="M540,-324.41C540,-303.98 540,-250.86 540,-206.5 540,-206.5 540,-206.5 540,-137.5 540,-87.05 574.37,-79.51 619,-56 686.63,-20.37 776.27,-11.94 831.77,-10.48"/>
<polygon fill="midnightblue" stroke="midnightblue" points="832.13,-13.97 842.06,-10.27 831.99,-6.97 832.13,-13.97"/>
</g>
<!-- Node24&#45;&gt;Node15 -->
<g id="edge53" class="edge">
<title>Node24&#45;&gt;Node15</title>
<path fill="none" stroke="midnightblue" d="M561.78,-324.48C583.81,-315.85 618.52,-302.26 646.57,-291.29"/>
<polygon fill="midnightblue" stroke="midnightblue" points="648.14,-294.43 656.18,-287.52 645.59,-287.91 648.14,-294.43"/>
</g>
<!-- Node25&#45;&gt;Node6 -->
<g id="edge56" class="edge">
<title>Node25&#45;&gt;Node6</title>
<path fill="none" stroke="midnightblue" d="M1124.02,-380.28C1121.15,-354.03 1113,-273.5 1113,-206.5 1113,-206.5 1113,-206.5 1113,-137.5 1113,-99.74 1116.64,-81.73 1089,-56 1066.85,-35.38 987.38,-22.62 933.87,-16.17"/>
<polygon fill="midnightblue" stroke="midnightblue" points="934.21,-12.69 923.87,-15.01 933.4,-19.64 934.21,-12.69"/>
</g>
<!-- Node25&#45;&gt;Node26 -->
<g id="edge57" class="edge">
<title>Node25&#45;&gt;Node26</title>
<path fill="none" stroke="midnightblue" d="M1145.44,-380.44C1166.67,-371.56 1200.1,-357.56 1224.25,-347.45"/>
<polygon fill="midnightblue" stroke="midnightblue" points="1225.78,-350.61 1233.66,-343.52 1223.08,-344.15 1225.78,-350.61"/>
</g>
<!-- Node26&#45;&gt;Node6 -->
<g id="edge58" class="edge">
<title>Node26&#45;&gt;Node6</title>
<path fill="none" stroke="midnightblue" d="M1258.86,-324.42C1269.72,-304.42 1295,-252.9 1295,-206.5 1295,-206.5 1295,-206.5 1295,-137.5 1295,-62.75 1044.03,-27.62 933.84,-15.8"/>
<polygon fill="midnightblue" stroke="midnightblue" points="933.94,-12.3 923.63,-14.73 933.21,-19.26 933.94,-12.3"/>
</g>
<!-- Node27&#45;&gt;Node6 -->
<g id="edge60" class="edge">
<title>Node27&#45;&gt;Node6</title>
<path fill="none" stroke="midnightblue" d="M1203.79,-262.83C1202.51,-230.01 1193.27,-112.38 1127,-56 1098.53,-31.77 996.48,-19.71 933.73,-14.46"/>
<polygon fill="midnightblue" stroke="midnightblue" points="933.88,-10.96 923.63,-13.64 933.32,-17.93 933.88,-10.96"/>
</g>
</g>
</svg>
        <g id="navigator" transform="translate(0 0)" fill="#404254">
                <rect fill="#f2f5e9" fill-opacity="0.5" stroke="#606060" stroke-width=".5" x="0" y="0" width="60" height="60"/>
                <use id="zoomplus" xlink:href="#zoomPlus" x="17" y="9" onmousedown="handleZoom(evt,'in')"/>
                <use id="zoomminus" xlink:href="#zoomMin" x="42" y="9" onmousedown="handleZoom(evt,'out')"/>
                <use id="reset" xlink:href="#resetDef" x="30" y="36" onmousedown="handleReset()"/>
                <g id="arrowUp" xlink:href="#dirArrow" transform="translate(30 24)" onmousedown="handlePan(0,-1)">
                  <use xlink:href="#rim" fill="#404040">
                        <set attributeName="fill" to="#808080" begin="arrowUp.mouseover" end="arrowUp.mouseout"/>
                  </use>
                  <path fill="none" stroke="white" stroke-width="1.5" d="M0,-3.0v7 M-2.5,-0.5L0,-3.0L2.5,-0.5"/>
                </g>
                <g id="arrowRight" xlink:href="#dirArrow" transform="rotate(90) translate(36 -43)" onmousedown="handlePan(1,0)">
                  <use xlink:href="#rim" fill="#404040">
                        <set attributeName="fill" to="#808080" begin="arrowRight.mouseover" end="arrowRight.mouseout"/>
                  </use>
                  <path fill="none" stroke="white" stroke-width="1.5" d="M0,-3.0v7 M-2.5,-0.5L0,-3.0L2.5,-0.5"/>
                </g>
                <g id="arrowDown" xlink:href="#dirArrow" transform="rotate(180) translate(-30 -48)" onmousedown="handlePan(0,1)">
                  <use xlink:href="#rim" fill="#404040">
                        <set attributeName="fill" to="#808080" begin="arrowDown.mouseover" end="arrowDown.mouseout"/>
                  </use>
                  <path fill="none" stroke="white" stroke-width="1.5" d="M0,-3.0v7 M-2.5,-0.5L0,-3.0L2.5,-0.5"/>
                </g>
                <g id="arrowLeft" xlink:href="#dirArrow" transform="rotate(270) translate(-36 17)" onmousedown="handlePan(-1,0)">
                  <use xlink:href="#rim" fill="#404040">
                        <set attributeName="fill" to="#808080" begin="arrowLeft.mouseover" end="arrowLeft.mouseout"/>
                  </use>
                  <path fill="none" stroke="white" stroke-width="1.5" d="M0,-3.0v7 M-2.5,-0.5L0,-3.0L2.5,-0.5"/>
                </g>
        </g>
        <svg viewBox="0 0 15 15" width="100%" height="30px" preserveAspectRatio="xMaxYMin meet">
         <g id="arrow_out" transform="scale(0.3 0.3)">
          <a xlink:href="f__op__view_8cpp__incl_org.svg" target="_base">
           <rect id="button" ry="5" rx="5" y="6" x="6" height="38" width="38"
                fill="#f2f5e9" fill-opacity="0.5" stroke="#606060" stroke-width="1.0"/>
           <path id="arrow"
             d="M 11.500037,31.436501 C 11.940474,20.09759 22.043105,11.32322 32.158766,21.979434 L 37.068811,17.246167 C 37.068811,17.246167 37.088388,32 37.088388,32 L 22.160133,31.978069 C 22.160133,31.978069 26.997745,27.140456 26.997745,27.140456 C 18.528582,18.264221 13.291696,25.230495 11.500037,31.436501 z"
             style="fill:#404040;"/>
          </a>
         </g>
        </svg>
</svg>
