<?xml version="1.0" encoding="UTF-8" standalone="no"?>
<!DOCTYPE svg PUBLIC "-//W3C//DTD SVG 1.1//EN"
 "http://www.w3.org/Graphics/SVG/1.1/DTD/svg11.dtd">
<!-- Generated by graphviz version 2.44.0 ()
 -->
<!-- Title: include/f_op/f_op_camera_mng.h Pages: 1 -->
<svg width="3768pt" height="374pt"
 viewBox="0.00 0.00 3767.79 374.00" xmlns="http://www.w3.org/2000/svg" xmlns:xlink="http://www.w3.org/1999/xlink">
<g id="graph0" class="graph" transform="scale(1 1) rotate(0) translate(4 370)">
<title>include/f_op/f_op_camera_mng.h</title>
<polygon fill="white" stroke="transparent" points="-4,4 -4,-370 3763.79,-370 3763.79,4 -4,4"/>
<!-- Node1 -->
<g id="node1" class="node">
<title>Node1</title>
<g id="a_node1"><a xlink:title=" ">
<polygon fill="#bfbfbf" stroke="black" points="1448.29,-335.5 1448.29,-365.5 1576.29,-365.5 1576.29,-335.5 1448.29,-335.5"/>
<text text-anchor="start" x="1456.29" y="-353.5" font-family="Helvetica,sans-Serif" font-size="10.00">include/f_op/f_op_camera</text>
<text text-anchor="middle" x="1512.29" y="-342.5" font-family="Helvetica,sans-Serif" font-size="10.00">_mng.h</text>
</a>
</g>
</g>
<!-- Node2 -->
<g id="node2" class="node">
<title>Node2</title>
<g id="a_node2"><a xlink:href="f__ap__game_8cpp.html" target="_top" xlink:title=" ">
<polygon fill="white" stroke="black" points="1253.79,-274 1253.79,-293 1374.79,-293 1374.79,-274 1253.79,-274"/>
<text text-anchor="middle" x="1314.29" y="-281" font-family="Helvetica,sans-Serif" font-size="10.00">src/f_ap/f_ap_game.cpp</text>
</a>
</g>
</g>
<!-- Node1&#45;&gt;Node2 -->
<g id="edge1" class="edge">
<title>Node1&#45;&gt;Node2</title>
<path fill="none" stroke="midnightblue" d="M1459.8,-332.27C1421.22,-319.6 1370.44,-302.93 1340.2,-293.01"/>
<polygon fill="midnightblue" stroke="midnightblue" points="1458.73,-335.6 1469.32,-335.4 1460.91,-328.95 1458.73,-335.6"/>
</g>
<!-- Node3 -->
<g id="node3" class="node">
<title>Node3</title>
<g id="a_node3"><a xlink:href="f__op__camera__mng_8cpp.html" target="_top" xlink:title=" ">
<polygon fill="white" stroke="black" points="1392.79,-268.5 1392.79,-298.5 1503.79,-298.5 1503.79,-268.5 1392.79,-268.5"/>
<text text-anchor="start" x="1400.79" y="-286.5" font-family="Helvetica,sans-Serif" font-size="10.00">src/f_op/f_op_camera</text>
<text text-anchor="middle" x="1448.29" y="-275.5" font-family="Helvetica,sans-Serif" font-size="10.00">_mng.cpp</text>
</a>
</g>
</g>
<!-- Node1&#45;&gt;Node3 -->
<g id="edge2" class="edge">
<title>Node1&#45;&gt;Node3</title>
<path fill="none" stroke="midnightblue" d="M1491.14,-328.02C1481.6,-318.34 1470.61,-307.17 1462.15,-298.58"/>
<polygon fill="midnightblue" stroke="midnightblue" points="1488.89,-330.73 1498.4,-335.4 1493.88,-325.81 1488.89,-330.73"/>
</g>
<!-- Node4 -->
<g id="node4" class="node">
<title>Node4</title>
<g id="a_node4"><a xlink:href="d__com__inf__game_8h.html" target="_top" xlink:title=" ">
<polygon fill="white" stroke="black" points="1522.29,-268.5 1522.29,-298.5 1632.29,-298.5 1632.29,-268.5 1522.29,-268.5"/>
<text text-anchor="start" x="1530.29" y="-286.5" font-family="Helvetica,sans-Serif" font-size="10.00">include/d/com/d_com</text>
<text text-anchor="middle" x="1577.29" y="-275.5" font-family="Helvetica,sans-Serif" font-size="10.00">_inf_game.h</text>
</a>
</g>
</g>
<!-- Node1&#45;&gt;Node4 -->
<g id="edge3" class="edge">
<title>Node1&#45;&gt;Node4</title>
<path fill="none" stroke="midnightblue" d="M1533.47,-328.31C1543.22,-318.56 1554.53,-307.26 1563.21,-298.58"/>
<polygon fill="midnightblue" stroke="midnightblue" points="1530.99,-325.85 1526.39,-335.4 1535.94,-330.8 1530.99,-325.85"/>
</g>
<!-- Node42 -->
<g id="node42" class="node">
<title>Node42</title>
<g id="a_node42"><a xlink:href="f__op__camera_8h.html" target="_top" xlink:title=" ">
<polygon fill="white" stroke="black" points="2667.29,-274 2667.29,-293 2803.29,-293 2803.29,-274 2667.29,-274"/>
<text text-anchor="middle" x="2735.29" y="-281" font-family="Helvetica,sans-Serif" font-size="10.00">include/f_op/f_op_camera.h</text>
</a>
</g>
</g>
<!-- Node1&#45;&gt;Node42 -->
<g id="edge57" class="edge">
<title>Node1&#45;&gt;Node42</title>
<path fill="none" stroke="midnightblue" d="M1586.48,-345.56C1806.74,-333.85 2454.69,-299.41 2667.04,-288.13"/>
<polygon fill="midnightblue" stroke="midnightblue" points="1586.12,-342.07 1576.32,-346.1 1586.49,-349.06 1586.12,-342.07"/>
</g>
<!-- Node5 -->
<g id="node5" class="node">
<title>Node5</title>
<g id="a_node5"><a xlink:href="d__a__player_8cpp.html" target="_top" xlink:title=" ">
<polygon fill="white" stroke="black" points="2984.29,-207 2984.29,-226 3098.29,-226 3098.29,-207 2984.29,-207"/>
<text text-anchor="middle" x="3041.29" y="-214" font-family="Helvetica,sans-Serif" font-size="10.00">src/d/a/d_a_player.cpp</text>
</a>
</g>
</g>
<!-- Node4&#45;&gt;Node5 -->
<g id="edge4" class="edge">
<title>Node4&#45;&gt;Node5</title>
<path fill="none" stroke="midnightblue" d="M1642.75,-281.7C1882.54,-278.53 2712.51,-265.34 2975.29,-232 2985.99,-230.64 2997.53,-228.39 3007.91,-226.06"/>
<polygon fill="midnightblue" stroke="midnightblue" points="1642.41,-278.2 1632.45,-281.84 1642.5,-285.2 1642.41,-278.2"/>
</g>
<!-- Node6 -->
<g id="node6" class="node">
<title>Node6</title>
<g id="a_node6"><a xlink:href="d__bg__s_8cpp.html" target="_top" xlink:title=" ">
<polygon fill="white" stroke="black" points="3116.29,-207 3116.29,-226 3220.29,-226 3220.29,-207 3116.29,-207"/>
<text text-anchor="middle" x="3168.29" y="-214" font-family="Helvetica,sans-Serif" font-size="10.00">src/d/bg/d_bg_s.cpp</text>
</a>
</g>
</g>
<!-- Node4&#45;&gt;Node6 -->
<g id="edge5" class="edge">
<title>Node4&#45;&gt;Node6</title>
<path fill="none" stroke="midnightblue" d="M1642.52,-282.09C1896.26,-280.21 2817.59,-270.81 3107.29,-232 3117.32,-230.66 3128.11,-228.37 3137.79,-226.01"/>
<polygon fill="midnightblue" stroke="midnightblue" points="1642.33,-278.59 1632.36,-282.16 1642.39,-285.59 1642.33,-278.59"/>
</g>
<!-- Node7 -->
<g id="node7" class="node">
<title>Node7</title>
<g id="a_node7"><a xlink:href="d__bg__s__movebg__actor_8cpp.html" target="_top" xlink:title=" ">
<polygon fill="white" stroke="black" points="3238.29,-201.5 3238.29,-231.5 3364.29,-231.5 3364.29,-201.5 3238.29,-201.5"/>
<text text-anchor="start" x="3246.29" y="-219.5" font-family="Helvetica,sans-Serif" font-size="10.00">src/d/bg/d_bg_s_movebg</text>
<text text-anchor="middle" x="3301.29" y="-208.5" font-family="Helvetica,sans-Serif" font-size="10.00">_actor.cpp</text>
</a>
</g>
</g>
<!-- Node4&#45;&gt;Node7 -->
<g id="edge6" class="edge">
<title>Node4&#45;&gt;Node7</title>
<path fill="none" stroke="midnightblue" d="M1642.75,-281.97C1909.33,-279.58 2913.88,-268.32 3229.29,-232 3232.2,-231.66 3235.17,-231.27 3238.17,-230.84"/>
<polygon fill="midnightblue" stroke="midnightblue" points="1642.43,-278.47 1632.47,-282.06 1642.5,-285.47 1642.43,-278.47"/>
</g>
<!-- Node8 -->
<g id="node8" class="node">
<title>Node8</title>
<g id="a_node8"><a xlink:href="d__bg__w_8cpp.html" target="_top" xlink:title=" ">
<polygon fill="white" stroke="black" points="3382.79,-207 3382.79,-226 3489.79,-226 3489.79,-207 3382.79,-207"/>
<text text-anchor="middle" x="3436.29" y="-214" font-family="Helvetica,sans-Serif" font-size="10.00">src/d/bg/d_bg_w.cpp</text>
</a>
</g>
</g>
<!-- Node4&#45;&gt;Node8 -->
<g id="edge7" class="edge">
<title>Node4&#45;&gt;Node8</title>
<path fill="none" stroke="midnightblue" d="M1642.93,-281.43C1945.62,-276.37 3199.37,-254.24 3373.29,-232 3383.64,-230.68 3394.78,-228.4 3404.78,-226.04"/>
<polygon fill="midnightblue" stroke="midnightblue" points="1642.51,-277.93 1632.56,-281.6 1642.62,-284.93 1642.51,-277.93"/>
</g>
<!-- Node9 -->
<g id="node9" class="node">
<title>Node9</title>
<g id="a_node9"><a xlink:href="d__cc__s_8cpp.html" target="_top" xlink:title=" ">
<polygon fill="white" stroke="black" points="3508.29,-207 3508.29,-226 3612.29,-226 3612.29,-207 3508.29,-207"/>
<text text-anchor="middle" x="3560.29" y="-214" font-family="Helvetica,sans-Serif" font-size="10.00">src/d/cc/d_cc_s.cpp</text>
</a>
</g>
</g>
<!-- Node4&#45;&gt;Node9 -->
<g id="edge8" class="edge">
<title>Node4&#45;&gt;Node9</title>
<path fill="none" stroke="midnightblue" d="M1642.86,-281.58C1958.32,-277.07 3312.33,-256.41 3499.29,-232 3509.32,-230.69 3520.12,-228.42 3529.8,-226.06"/>
<polygon fill="midnightblue" stroke="midnightblue" points="1642.46,-278.09 1632.51,-281.73 1642.56,-285.09 1642.46,-278.09"/>
</g>
<!-- Node10 -->
<g id="node10" class="node">
<title>Node10</title>
<g id="a_node10"><a xlink:href="d__com__inf__game_8cpp.html" target="_top" xlink:title=" ">
<polygon fill="white" stroke="black" points="36.29,-67.5 36.29,-97.5 144.29,-97.5 144.29,-67.5 36.29,-67.5"/>
<text text-anchor="start" x="44.29" y="-85.5" font-family="Helvetica,sans-Serif" font-size="10.00">src/d/com/d_com_inf</text>
<text text-anchor="middle" x="90.29" y="-74.5" font-family="Helvetica,sans-Serif" font-size="10.00">_game.cpp</text>
</a>
</g>
</g>
<!-- Node4&#45;&gt;Node10 -->
<g id="edge9" class="edge">
<title>Node4&#45;&gt;Node10</title>
<path fill="none" stroke="midnightblue" d="M1511.76,-268.2C1203.76,-233.22 473.31,-294.45 189.29,-232 115.59,-215.8 74.8,-228.01 33.29,-165 17.52,-141.07 46.16,-113.9 68.26,-97.76"/>
<polygon fill="midnightblue" stroke="midnightblue" points="1511.75,-271.72 1522.09,-269.43 1512.58,-264.77 1511.75,-271.72"/>
</g>
<!-- Node11 -->
<g id="node11" class="node">
<title>Node11</title>
<g id="a_node11"><a xlink:href="d__a__alink_8cpp.html" target="_top" xlink:title=" ">
<polygon fill="white" stroke="black" points="1192.79,-6 1192.79,-25 1301.79,-25 1301.79,-6 1192.79,-6"/>
<text text-anchor="middle" x="1247.29" y="-13" font-family="Helvetica,sans-Serif" font-size="10.00">src/d/a/d_a_alink.cpp</text>
</a>
</g>
</g>
<!-- Node4&#45;&gt;Node11 -->
<g id="edge10" class="edge">
<title>Node4&#45;&gt;Node11</title>
<path fill="none" stroke="midnightblue" d="M1511.87,-268.32C1435.71,-259.02 1274.41,-276.54 1235.29,-232 1226.19,-221.65 1232.91,-214.57 1235.29,-201 1238.22,-184.24 1242.63,-181.05 1248.29,-165 1258.74,-135.3 1266.1,-129.05 1271.29,-98 1273.55,-84.41 1274.32,-80.44 1271.29,-67 1267.74,-51.28 1258.7,-34.71 1252.78,-25.01"/>
<polygon fill="midnightblue" stroke="midnightblue" points="1511.63,-271.82 1522.04,-269.82 1512.65,-264.9 1511.63,-271.82"/>
</g>
<!-- Node12 -->
<g id="node12" class="node">
<title>Node12</title>
<g id="a_node12"><a xlink:href="d__eye__hl_8cpp.html" target="_top" xlink:title=" ">
<polygon fill="white" stroke="black" points="1244.29,-207 1244.29,-226 1342.29,-226 1342.29,-207 1244.29,-207"/>
<text text-anchor="middle" x="1293.29" y="-214" font-family="Helvetica,sans-Serif" font-size="10.00">src/d/d_eye_hl.cpp</text>
</a>
</g>
</g>
<!-- Node4&#45;&gt;Node12 -->
<g id="edge11" class="edge">
<title>Node4&#45;&gt;Node12</title>
<path fill="none" stroke="midnightblue" d="M1512.35,-268.01C1447,-253.43 1355.3,-232.95 1351.29,-232 1343.31,-230.11 1334.73,-228.01 1326.68,-226"/>
<polygon fill="midnightblue" stroke="midnightblue" points="1511.66,-271.44 1522.19,-270.21 1513.19,-264.61 1511.66,-271.44"/>
</g>
<!-- Node13 -->
<g id="node13" class="node">
<title>Node13</title>
<g id="a_node13"><a xlink:href="d__kyeff_8cpp.html" target="_top" xlink:title=" ">
<polygon fill="white" stroke="black" points="1360.29,-207 1360.29,-226 1450.29,-226 1450.29,-207 1360.29,-207"/>
<text text-anchor="middle" x="1405.29" y="-214" font-family="Helvetica,sans-Serif" font-size="10.00">src/d/d_kyeff.cpp</text>
</a>
</g>
</g>
<!-- Node4&#45;&gt;Node13 -->
<g id="edge12" class="edge">
<title>Node4&#45;&gt;Node13</title>
<path fill="none" stroke="midnightblue" d="M1530.41,-264.78C1497.06,-252.18 1453.73,-235.81 1427.8,-226.01"/>
<polygon fill="midnightblue" stroke="midnightblue" points="1529.37,-268.13 1539.96,-268.4 1531.85,-261.59 1529.37,-268.13"/>
</g>
<!-- Node14 -->
<g id="node14" class="node">
<title>Node14</title>
<g id="a_node14"><a xlink:href="d__resorce_8cpp.html" target="_top" xlink:title=" ">
<polygon fill="white" stroke="black" points="1468.29,-207 1468.29,-226 1570.29,-226 1570.29,-207 1468.29,-207"/>
<text text-anchor="middle" x="1519.29" y="-214" font-family="Helvetica,sans-Serif" font-size="10.00">src/d/d_resorce.cpp</text>
</a>
</g>
</g>
<!-- Node4&#45;&gt;Node14 -->
<g id="edge13" class="edge">
<title>Node4&#45;&gt;Node14</title>
<path fill="none" stroke="midnightblue" d="M1557.79,-260.66C1547.27,-248.86 1534.87,-234.97 1527.04,-226.19"/>
<polygon fill="midnightblue" stroke="midnightblue" points="1555.43,-263.26 1564.7,-268.4 1560.65,-258.6 1555.43,-263.26"/>
</g>
<!-- Node15 -->
<g id="node15" class="node">
<title>Node15</title>
<g id="a_node15"><a xlink:href="d__stage_8cpp.html" target="_top" xlink:title=" ">
<polygon fill="white" stroke="black" points="1588.29,-207 1588.29,-226 1682.29,-226 1682.29,-207 1588.29,-207"/>
<text text-anchor="middle" x="1635.29" y="-214" font-family="Helvetica,sans-Serif" font-size="10.00">src/d/d_stage.cpp</text>
</a>
</g>
</g>
<!-- Node4&#45;&gt;Node15 -->
<g id="edge14" class="edge">
<title>Node4&#45;&gt;Node15</title>
<path fill="none" stroke="midnightblue" d="M1596.78,-260.66C1607.3,-248.86 1619.7,-234.97 1627.53,-226.19"/>
<polygon fill="midnightblue" stroke="midnightblue" points="1593.92,-258.6 1589.87,-268.4 1599.14,-263.26 1593.92,-258.6"/>
</g>
<!-- Node16 -->
<g id="node16" class="node">
<title>Node16</title>
<g id="a_node16"><a xlink:href="d__event_8cpp.html" target="_top" xlink:title=" ">
<polygon fill="white" stroke="black" points="1700.79,-207 1700.79,-226 1821.79,-226 1821.79,-207 1700.79,-207"/>
<text text-anchor="middle" x="1761.29" y="-214" font-family="Helvetica,sans-Serif" font-size="10.00">src/d/event/d_event.cpp</text>
</a>
</g>
</g>
<!-- Node4&#45;&gt;Node16 -->
<g id="edge15" class="edge">
<title>Node4&#45;&gt;Node16</title>
<path fill="none" stroke="midnightblue" d="M1626.98,-264.95C1662.71,-252.32 1709.34,-235.85 1737.2,-226.01"/>
<polygon fill="midnightblue" stroke="midnightblue" points="1625.47,-261.76 1617.21,-268.4 1627.81,-268.37 1625.47,-261.76"/>
</g>
<!-- Node17 -->
<g id="node17" class="node">
<title>Node17</title>
<g id="a_node17"><a xlink:href="d__event__data_8cpp.html" target="_top" xlink:title=" ">
<polygon fill="white" stroke="black" points="1839.79,-201.5 1839.79,-231.5 1942.79,-231.5 1942.79,-201.5 1839.79,-201.5"/>
<text text-anchor="start" x="1847.79" y="-219.5" font-family="Helvetica,sans-Serif" font-size="10.00">src/d/event/d_event</text>
<text text-anchor="middle" x="1891.29" y="-208.5" font-family="Helvetica,sans-Serif" font-size="10.00">_data.cpp</text>
</a>
</g>
</g>
<!-- Node4&#45;&gt;Node17 -->
<g id="edge16" class="edge">
<title>Node4&#45;&gt;Node17</title>
<path fill="none" stroke="midnightblue" d="M1642.62,-270.14C1693.78,-260.29 1766.7,-245.9 1830.29,-232 1833.37,-231.33 1836.54,-230.62 1839.73,-229.89"/>
<polygon fill="midnightblue" stroke="midnightblue" points="1641.84,-266.72 1632.68,-272.04 1643.16,-273.6 1641.84,-266.72"/>
</g>
<!-- Node18 -->
<g id="node18" class="node">
<title>Node18</title>
<g id="a_node18"><a xlink:href="d__event__manager_8cpp.html" target="_top" xlink:title=" ">
<polygon fill="white" stroke="black" points="1960.79,-201.5 1960.79,-231.5 2063.79,-231.5 2063.79,-201.5 1960.79,-201.5"/>
<text text-anchor="start" x="1968.79" y="-219.5" font-family="Helvetica,sans-Serif" font-size="10.00">src/d/event/d_event</text>
<text text-anchor="middle" x="2012.29" y="-208.5" font-family="Helvetica,sans-Serif" font-size="10.00">_manager.cpp</text>
</a>
</g>
</g>
<!-- Node4&#45;&gt;Node18 -->
<g id="edge17" class="edge">
<title>Node4&#45;&gt;Node18</title>
<path fill="none" stroke="midnightblue" d="M1642.59,-275.67C1717.48,-267.38 1843.77,-251.99 1951.29,-232 1954.39,-231.42 1957.57,-230.79 1960.78,-230.12"/>
<polygon fill="midnightblue" stroke="midnightblue" points="1641.93,-272.22 1632.38,-276.79 1642.7,-279.18 1641.93,-272.22"/>
</g>
<!-- Node19 -->
<g id="node19" class="node">
<title>Node19</title>
<g id="a_node19"><a xlink:href="d__kankyo_8cpp.html" target="_top" xlink:title=" ">
<polygon fill="white" stroke="black" points="486.29,-140 486.29,-159 620.29,-159 620.29,-140 486.29,-140"/>
<text text-anchor="middle" x="553.29" y="-147" font-family="Helvetica,sans-Serif" font-size="10.00">src/d/kankyo/d_kankyo.cpp</text>
</a>
</g>
</g>
<!-- Node4&#45;&gt;Node19 -->
<g id="edge18" class="edge">
<title>Node4&#45;&gt;Node19</title>
<path fill="none" stroke="midnightblue" d="M1512.11,-268.19C1168.63,-223.97 1069.69,-310.42 737.29,-232 670.64,-216.28 598.19,-176.86 567.89,-159.24"/>
<polygon fill="midnightblue" stroke="midnightblue" points="1511.71,-271.67 1522.08,-269.5 1512.63,-264.73 1511.71,-271.67"/>
</g>
<!-- Node20 -->
<g id="node20" class="node">
<title>Node20</title>
<g id="a_node20"><a xlink:href="d__kankyo__wether_8cpp.html" target="_top" xlink:title=" ">
<polygon fill="white" stroke="black" points="2082.29,-201.5 2082.29,-231.5 2198.29,-231.5 2198.29,-201.5 2082.29,-201.5"/>
<text text-anchor="start" x="2090.29" y="-219.5" font-family="Helvetica,sans-Serif" font-size="10.00">src/d/kankyo/d_kankyo</text>
<text text-anchor="middle" x="2140.29" y="-208.5" font-family="Helvetica,sans-Serif" font-size="10.00">_wether.cpp</text>
</a>
</g>
</g>
<!-- Node4&#45;&gt;Node20 -->
<g id="edge19" class="edge">
<title>Node4&#45;&gt;Node20</title>
<path fill="none" stroke="midnightblue" d="M1642.5,-278.11C1737.45,-271.21 1919.14,-256.07 2072.29,-232 2075.51,-231.49 2078.8,-230.93 2082.12,-230.34"/>
<polygon fill="midnightblue" stroke="midnightblue" points="1642.2,-274.62 1632.47,-278.83 1642.7,-281.61 1642.2,-274.62"/>
</g>
<!-- Node21 -->
<g id="node21" class="node">
<title>Node21</title>
<g id="a_node21"><a xlink:href="d__menu__window_8cpp.html" target="_top" xlink:title=" ">
<polygon fill="white" stroke="black" points="286.79,-6 286.79,-25 445.79,-25 445.79,-6 286.79,-6"/>
<text text-anchor="middle" x="366.29" y="-13" font-family="Helvetica,sans-Serif" font-size="10.00">src/d/menu/d_menu_window.cpp</text>
</a>
</g>
</g>
<!-- Node4&#45;&gt;Node21 -->
<g id="edge20" class="edge">
<title>Node4&#45;&gt;Node21</title>
<path fill="none" stroke="midnightblue" d="M1512.08,-268.56C1362.3,-258.96 131.65,-271.85 64.29,-232 -0.4,-193.73 -22.63,-123.18 27.29,-67 60.63,-29.47 197.32,-19.47 286.61,-17.02"/>
<polygon fill="midnightblue" stroke="midnightblue" points="1511.83,-272.05 1522.09,-269.42 1512.43,-265.07 1511.83,-272.05"/>
</g>
<!-- Node22 -->
<g id="node22" class="node">
<title>Node22</title>
<g id="a_node22"><a xlink:href="d__menu__window__HIO_8cpp.html" target="_top" xlink:title=" ">
<polygon fill="white" stroke="black" points="2216.79,-201.5 2216.79,-231.5 2357.79,-231.5 2357.79,-201.5 2216.79,-201.5"/>
<text text-anchor="start" x="2224.79" y="-219.5" font-family="Helvetica,sans-Serif" font-size="10.00">src/d/menu/d_menu_window</text>
<text text-anchor="middle" x="2287.29" y="-208.5" font-family="Helvetica,sans-Serif" font-size="10.00">_HIO.cpp</text>
</a>
</g>
</g>
<!-- Node4&#45;&gt;Node22 -->
<g id="edge21" class="edge">
<title>Node4&#45;&gt;Node22</title>
<path fill="none" stroke="midnightblue" d="M1642.7,-279.4C1757.4,-273.49 2002.12,-258.75 2207.29,-232 2210.36,-231.6 2213.51,-231.16 2216.67,-230.69"/>
<polygon fill="midnightblue" stroke="midnightblue" points="1642.49,-275.91 1632.68,-279.91 1642.84,-282.9 1642.49,-275.91"/>
</g>
<!-- Node23 -->
<g id="node23" class="node">
<title>Node23</title>
<g id="a_node23"><a xlink:href="d__meter2__info_8cpp.html" target="_top" xlink:title=" ">
<polygon fill="white" stroke="black" points="444.29,-67.5 444.29,-97.5 554.29,-97.5 554.29,-67.5 444.29,-67.5"/>
<text text-anchor="start" x="452.29" y="-85.5" font-family="Helvetica,sans-Serif" font-size="10.00">src/d/meter/d_meter2</text>
<text text-anchor="middle" x="499.29" y="-74.5" font-family="Helvetica,sans-Serif" font-size="10.00">_info.cpp</text>
</a>
</g>
</g>
<!-- Node4&#45;&gt;Node23 -->
<g id="edge22" class="edge">
<title>Node4&#45;&gt;Node23</title>
<path fill="none" stroke="midnightblue" d="M1512.09,-268.19C1128.04,-219.42 1019.22,-311.89 645.29,-232 566.67,-215.2 522.39,-231.54 477.29,-165 463.22,-144.25 477.76,-114.86 488.97,-97.63"/>
<polygon fill="midnightblue" stroke="midnightblue" points="1511.72,-271.67 1522.09,-269.48 1512.62,-264.73 1511.72,-271.67"/>
</g>
<!-- Node24 -->
<g id="node24" class="node">
<title>Node24</title>
<g id="a_node24"><a xlink:href="d__meter2__draw_8cpp.html" target="_top" xlink:title=" ">
<polygon fill="white" stroke="black" points="988.29,-134.5 988.29,-164.5 1098.29,-164.5 1098.29,-134.5 988.29,-134.5"/>
<text text-anchor="start" x="996.29" y="-152.5" font-family="Helvetica,sans-Serif" font-size="10.00">src/d/meter/d_meter2</text>
<text text-anchor="middle" x="1043.29" y="-141.5" font-family="Helvetica,sans-Serif" font-size="10.00">_draw.cpp</text>
</a>
</g>
</g>
<!-- Node4&#45;&gt;Node24 -->
<g id="edge23" class="edge">
<title>Node4&#45;&gt;Node24</title>
<path fill="none" stroke="midnightblue" d="M1512.09,-268.49C1426.99,-261.06 1073.54,-268.96 1039.29,-232 1022.53,-213.92 1030.4,-182.77 1037.16,-164.66"/>
<polygon fill="midnightblue" stroke="midnightblue" points="1511.74,-271.97 1522.07,-269.62 1512.52,-265.02 1511.74,-271.97"/>
</g>
<!-- Node25 -->
<g id="node25" class="node">
<title>Node25</title>
<g id="a_node25"><a xlink:href="d__meter__map_8cpp.html" target="_top" xlink:title=" ">
<polygon fill="white" stroke="black" points="870.29,-0.5 870.29,-30.5 974.29,-30.5 974.29,-0.5 870.29,-0.5"/>
<text text-anchor="start" x="878.29" y="-18.5" font-family="Helvetica,sans-Serif" font-size="10.00">src/d/meter/d_meter</text>
<text text-anchor="middle" x="922.29" y="-7.5" font-family="Helvetica,sans-Serif" font-size="10.00">_map.cpp</text>
</a>
</g>
</g>
<!-- Node4&#45;&gt;Node25 -->
<g id="edge24" class="edge">
<title>Node4&#45;&gt;Node25</title>
<path fill="none" stroke="midnightblue" d="M1512.09,-268.29C1389.46,-253.93 1116.81,-284.58 1025.29,-232 949.78,-188.62 928.84,-71.4 923.75,-30.67"/>
<polygon fill="midnightblue" stroke="midnightblue" points="1511.7,-271.77 1522.07,-269.61 1512.61,-264.83 1511.7,-271.77"/>
</g>
<!-- Node26 -->
<g id="node26" class="node">
<title>Node26</title>
<g id="a_node26"><a xlink:href="d__msg__flow_8cpp.html" target="_top" xlink:title=" ">
<polygon fill="white" stroke="black" points="2375.79,-207 2375.79,-226 2508.79,-226 2508.79,-207 2375.79,-207"/>
<text text-anchor="middle" x="2442.29" y="-214" font-family="Helvetica,sans-Serif" font-size="10.00">src/d/msg/d_msg_flow.cpp</text>
</a>
</g>
</g>
<!-- Node4&#45;&gt;Node26 -->
<g id="edge25" class="edge">
<title>Node4&#45;&gt;Node26</title>
<path fill="none" stroke="midnightblue" d="M1642.72,-281.07C1778.23,-277.49 2099.21,-265.89 2366.29,-232 2378.15,-230.5 2390.94,-228.28 2402.6,-226.04"/>
<polygon fill="midnightblue" stroke="midnightblue" points="1642.42,-277.57 1632.51,-281.33 1642.6,-284.57 1642.42,-277.57"/>
</g>
<!-- Node27 -->
<g id="node27" class="node">
<title>Node27</title>
<g id="a_node27"><a xlink:href="d__save_8cpp.html" target="_top" xlink:title=" ">
<polygon fill="white" stroke="black" points="778.79,-73 778.79,-92 893.79,-92 893.79,-73 778.79,-73"/>
<text text-anchor="middle" x="836.29" y="-80" font-family="Helvetica,sans-Serif" font-size="10.00">src/d/save/d_save.cpp</text>
</a>
</g>
</g>
<!-- Node4&#45;&gt;Node27 -->
<g id="edge26" class="edge">
<title>Node4&#45;&gt;Node27</title>
<path fill="none" stroke="midnightblue" d="M1511.88,-268.26C1371.51,-252.22 1054.28,-290.77 946.29,-232 886.54,-199.49 850.31,-118.98 839.62,-92.27"/>
<polygon fill="midnightblue" stroke="midnightblue" points="1511.71,-271.77 1522.08,-269.57 1512.6,-264.82 1511.71,-271.77"/>
</g>
<!-- Node28 -->
<g id="node28" class="node">
<title>Node28</title>
<g id="a_node28"><a xlink:href="m__Do__graphic_8cpp.html" target="_top" xlink:title=" ">
<polygon fill="white" stroke="black" points="2527.29,-207 2527.29,-226 2669.29,-226 2669.29,-207 2527.29,-207"/>
<text text-anchor="middle" x="2598.29" y="-214" font-family="Helvetica,sans-Serif" font-size="10.00">src/m_Do/m_Do_graphic.cpp</text>
</a>
</g>
</g>
<!-- Node4&#45;&gt;Node28 -->
<g id="edge27" class="edge">
<title>Node4&#45;&gt;Node28</title>
<path fill="none" stroke="midnightblue" d="M1642.49,-281.76C1795.65,-279.43 2190.17,-269.92 2517.29,-232 2530.06,-230.52 2543.86,-228.29 2556.39,-226.02"/>
<polygon fill="midnightblue" stroke="midnightblue" points="1642.26,-278.27 1632.32,-281.91 1642.37,-285.27 1642.26,-278.27"/>
</g>
<!-- Node29 -->
<g id="node29" class="node">
<title>Node29</title>
<g id="a_node29"><a xlink:href="m__Do__machine__exception_8cpp.html" target="_top" xlink:title=" ">
<polygon fill="white" stroke="black" points="2687.79,-201.5 2687.79,-231.5 2816.79,-231.5 2816.79,-201.5 2687.79,-201.5"/>
<text text-anchor="start" x="2695.79" y="-219.5" font-family="Helvetica,sans-Serif" font-size="10.00">src/m_Do/m_Do_machine</text>
<text text-anchor="middle" x="2752.29" y="-208.5" font-family="Helvetica,sans-Serif" font-size="10.00">_exception.cpp</text>
</a>
</g>
</g>
<!-- Node4&#45;&gt;Node29 -->
<g id="edge28" class="edge">
<title>Node4&#45;&gt;Node29</title>
<path fill="none" stroke="midnightblue" d="M1642.6,-282.86C1813.43,-283.07 2287.32,-279.01 2678.29,-232 2681.28,-231.64 2684.32,-231.23 2687.4,-230.78"/>
<polygon fill="midnightblue" stroke="midnightblue" points="1642.52,-279.36 1632.51,-282.84 1642.51,-286.36 1642.52,-279.36"/>
</g>
<!-- Node30 -->
<g id="node30" class="node">
<title>Node30</title>
<g id="a_node30"><a xlink:href="m__Do__main_8cpp.html" target="_top" xlink:title=" ">
<polygon fill="white" stroke="black" points="2834.79,-207 2834.79,-226 2965.79,-226 2965.79,-207 2834.79,-207"/>
<text text-anchor="middle" x="2900.29" y="-214" font-family="Helvetica,sans-Serif" font-size="10.00">src/m_Do/m_Do_main.cpp</text>
</a>
</g>
</g>
<!-- Node4&#45;&gt;Node30 -->
<g id="edge29" class="edge">
<title>Node4&#45;&gt;Node30</title>
<path fill="none" stroke="midnightblue" d="M1642.73,-281.18C1865.55,-276.47 2593.7,-259.33 2826.29,-232 2838.12,-230.61 2850.89,-228.38 2862.44,-226.07"/>
<polygon fill="midnightblue" stroke="midnightblue" points="1642.43,-277.68 1632.51,-281.39 1642.58,-284.68 1642.43,-277.68"/>
</g>
<!-- Node31 -->
<g id="node31" class="node">
<title>Node31</title>
<g id="a_node31"><a xlink:href="d__item_8h.html" target="_top" xlink:title=" ">
<polygon fill="white" stroke="black" points="42.79,-140 42.79,-159 137.79,-159 137.79,-140 42.79,-140"/>
<text text-anchor="middle" x="90.29" y="-147" font-family="Helvetica,sans-Serif" font-size="10.00">include/d/d_item.h</text>
</a>
</g>
</g>
<!-- Node4&#45;&gt;Node31 -->
<g id="edge30" class="edge">
<title>Node4&#45;&gt;Node31</title>
<path fill="none" stroke="midnightblue" d="M1512.08,-268.24C1225.97,-235.47 550.47,-288.32 287.29,-232 215.98,-216.74 137.76,-176.7 105.49,-159.06"/>
<polygon fill="midnightblue" stroke="midnightblue" points="1511.75,-271.72 1522.09,-269.44 1512.58,-264.77 1511.75,-271.72"/>
</g>
<!-- Node33 -->
<g id="node33" class="node">
<title>Node33</title>
<g id="a_node33"><a xlink:href="d__kantera__icon__meter_8h.html" target="_top" xlink:title=" ">
<polygon fill="white" stroke="black" points="1048.79,-201.5 1048.79,-231.5 1149.79,-231.5 1149.79,-201.5 1048.79,-201.5"/>
<text text-anchor="start" x="1056.79" y="-219.5" font-family="Helvetica,sans-Serif" font-size="10.00">include/d/d_kantera</text>
<text text-anchor="middle" x="1099.29" y="-208.5" font-family="Helvetica,sans-Serif" font-size="10.00">_icon_meter.h</text>
</a>
</g>
</g>
<!-- Node4&#45;&gt;Node33 -->
<g id="edge33" class="edge">
<title>Node4&#45;&gt;Node33</title>
<path fill="none" stroke="midnightblue" d="M1512.16,-268.13C1357.08,-243.59 1314.61,-256.46 1164.29,-232 1159.61,-231.24 1154.76,-230.35 1149.92,-229.39"/>
<polygon fill="midnightblue" stroke="midnightblue" points="1511.62,-271.59 1522.05,-269.72 1512.74,-264.68 1511.62,-271.59"/>
</g>
<!-- Node35 -->
<g id="node35" class="node">
<title>Node35</title>
<g id="a_node35"><a xlink:href="d__meter2_8h.html" target="_top" xlink:title=" ">
<polygon fill="white" stroke="black" points="296.29,-207 296.29,-226 430.29,-226 430.29,-207 296.29,-207"/>
<text text-anchor="middle" x="363.29" y="-214" font-family="Helvetica,sans-Serif" font-size="10.00">include/d/meter/d_meter2.h</text>
</a>
</g>
</g>
<!-- Node4&#45;&gt;Node35 -->
<g id="edge36" class="edge">
<title>Node4&#45;&gt;Node35</title>
<path fill="none" stroke="midnightblue" d="M1511.93,-268.17C1039.37,-209.08 913.24,-281.62 444.29,-232 431.22,-230.62 417.08,-228.36 404.33,-226.03"/>
<polygon fill="midnightblue" stroke="midnightblue" points="1511.73,-271.67 1522.09,-269.46 1512.61,-264.73 1511.73,-271.67"/>
</g>
<!-- Node40 -->
<g id="node40" class="node">
<title>Node40</title>
<g id="a_node40"><a xlink:href="d__msg__object_8h.html" target="_top" xlink:title=" ">
<polygon fill="white" stroke="black" points="746.29,-201.5 746.29,-231.5 856.29,-231.5 856.29,-201.5 746.29,-201.5"/>
<text text-anchor="start" x="754.29" y="-219.5" font-family="Helvetica,sans-Serif" font-size="10.00">include/d/msg/d_msg</text>
<text text-anchor="middle" x="801.29" y="-208.5" font-family="Helvetica,sans-Serif" font-size="10.00">_object.h</text>
</a>
</g>
</g>
<!-- Node4&#45;&gt;Node40 -->
<g id="edge50" class="edge">
<title>Node4&#45;&gt;Node40</title>
<path fill="none" stroke="midnightblue" d="M1511.87,-268.14C1227.41,-229.7 1150.28,-269.05 870.29,-232 865.8,-231.41 861.16,-230.68 856.52,-229.87"/>
<polygon fill="midnightblue" stroke="midnightblue" points="1511.7,-271.65 1522.08,-269.54 1512.65,-264.71 1511.7,-271.65"/>
</g>
<!-- Node31&#45;&gt;Node10 -->
<g id="edge31" class="edge">
<title>Node31&#45;&gt;Node10</title>
<path fill="none" stroke="midnightblue" d="M90.29,-129.41C90.29,-119.22 90.29,-106.9 90.29,-97.59"/>
<polygon fill="midnightblue" stroke="midnightblue" points="86.79,-129.73 90.29,-139.73 93.79,-129.73 86.79,-129.73"/>
</g>
<!-- Node32 -->
<g id="node32" class="node">
<title>Node32</title>
<g id="a_node32"><a xlink:href="d__item_8cpp.html" target="_top" xlink:title=" ">
<polygon fill="white" stroke="black" points="181.79,-73 181.79,-92 270.79,-92 270.79,-73 181.79,-73"/>
<text text-anchor="middle" x="226.29" y="-80" font-family="Helvetica,sans-Serif" font-size="10.00">src/d/d_item.cpp</text>
</a>
</g>
</g>
<!-- Node31&#45;&gt;Node32 -->
<g id="edge32" class="edge">
<title>Node31&#45;&gt;Node32</title>
<path fill="none" stroke="midnightblue" d="M117.6,-135.44C144.54,-122.57 184.95,-103.26 208.15,-92.17"/>
<polygon fill="midnightblue" stroke="midnightblue" points="115.86,-132.4 108.35,-139.87 118.88,-138.71 115.86,-132.4"/>
</g>
<!-- Node33&#45;&gt;Node24 -->
<g id="edge35" class="edge">
<title>Node33&#45;&gt;Node24</title>
<path fill="none" stroke="midnightblue" d="M1080.54,-193.74C1072.25,-184.12 1062.75,-173.09 1055.41,-164.58"/>
<polygon fill="midnightblue" stroke="midnightblue" points="1077.96,-196.1 1087.13,-201.4 1083.26,-191.54 1077.96,-196.1"/>
</g>
<!-- Node34 -->
<g id="node34" class="node">
<title>Node34</title>
<g id="a_node34"><a xlink:href="d__kantera__icon__meter_8cpp.html" target="_top" xlink:title=" ">
<polygon fill="white" stroke="black" points="1116.79,-134.5 1116.79,-164.5 1223.79,-164.5 1223.79,-134.5 1116.79,-134.5"/>
<text text-anchor="start" x="1124.79" y="-152.5" font-family="Helvetica,sans-Serif" font-size="10.00">src/d/d_kantera_icon</text>
<text text-anchor="middle" x="1170.29" y="-141.5" font-family="Helvetica,sans-Serif" font-size="10.00">_meter.cpp</text>
</a>
</g>
</g>
<!-- Node33&#45;&gt;Node34 -->
<g id="edge34" class="edge">
<title>Node33&#45;&gt;Node34</title>
<path fill="none" stroke="midnightblue" d="M1122.12,-194.6C1132.84,-184.78 1145.33,-173.34 1154.91,-164.58"/>
<polygon fill="midnightblue" stroke="midnightblue" points="1119.7,-192.06 1114.69,-201.4 1124.43,-197.22 1119.7,-192.06"/>
</g>
<!-- Node36 -->
<g id="node36" class="node">
<title>Node36</title>
<g id="a_node36"><a xlink:href="d__meter2_8cpp.html" target="_top" xlink:title=" ">
<polygon fill="white" stroke="black" points="156.29,-140 156.29,-159 284.29,-159 284.29,-140 156.29,-140"/>
<text text-anchor="middle" x="220.29" y="-147" font-family="Helvetica,sans-Serif" font-size="10.00">src/d/meter/d_meter2.cpp</text>
</a>
</g>
</g>
<!-- Node35&#45;&gt;Node36 -->
<g id="edge37" class="edge">
<title>Node35&#45;&gt;Node36</title>
<path fill="none" stroke="midnightblue" d="M334.93,-202.61C306.61,-189.74 263.86,-170.31 239.35,-159.17"/>
<polygon fill="midnightblue" stroke="midnightblue" points="333.74,-205.92 344.3,-206.87 336.64,-199.54 333.74,-205.92"/>
</g>
<!-- Node37 -->
<g id="node37" class="node">
<title>Node37</title>
<g id="a_node37"><a xlink:href="d__meter2__info_8h.html" target="_top" xlink:title=" ">
<polygon fill="white" stroke="black" points="302.79,-134.5 302.79,-164.5 429.79,-164.5 429.79,-134.5 302.79,-134.5"/>
<text text-anchor="start" x="310.79" y="-152.5" font-family="Helvetica,sans-Serif" font-size="10.00">include/d/meter/d_meter2</text>
<text text-anchor="middle" x="366.29" y="-141.5" font-family="Helvetica,sans-Serif" font-size="10.00">_info.h</text>
</a>
</g>
</g>
<!-- Node35&#45;&gt;Node37 -->
<g id="edge38" class="edge">
<title>Node35&#45;&gt;Node37</title>
<path fill="none" stroke="midnightblue" d="M364.15,-196.74C364.62,-186.49 365.2,-174 365.64,-164.59"/>
<polygon fill="midnightblue" stroke="midnightblue" points="360.65,-196.58 363.69,-206.73 367.65,-196.91 360.65,-196.58"/>
</g>
<!-- Node37&#45;&gt;Node10 -->
<g id="edge39" class="edge">
<title>Node37&#45;&gt;Node10</title>
<path fill="none" stroke="midnightblue" d="M296.9,-132.16C249.72,-121.05 188.19,-106.56 144.58,-96.29"/>
<polygon fill="midnightblue" stroke="midnightblue" points="296.2,-135.59 306.74,-134.48 297.81,-128.78 296.2,-135.59"/>
</g>
<!-- Node37&#45;&gt;Node23 -->
<g id="edge41" class="edge">
<title>Node37&#45;&gt;Node23</title>
<path fill="none" stroke="midnightblue" d="M404.16,-129.99C425.24,-119.69 451.06,-107.07 470.48,-97.58"/>
<polygon fill="midnightblue" stroke="midnightblue" points="402.59,-126.86 395.14,-134.4 405.67,-133.15 402.59,-126.86"/>
</g>
<!-- Node37&#45;&gt;Node27 -->
<g id="edge42" class="edge">
<title>Node37&#45;&gt;Node27</title>
<path fill="none" stroke="midnightblue" d="M440.13,-138.29C533.74,-125.34 693.19,-103.29 778.46,-91.5"/>
<polygon fill="midnightblue" stroke="midnightblue" points="439.59,-134.83 430.16,-139.67 440.55,-141.76 439.59,-134.83"/>
</g>
<!-- Node37&#45;&gt;Node32 -->
<g id="edge40" class="edge">
<title>Node37&#45;&gt;Node32</title>
<path fill="none" stroke="midnightblue" d="M326.72,-130.13C299.78,-117.62 265.36,-101.64 244.61,-92.01"/>
<polygon fill="midnightblue" stroke="midnightblue" points="325.36,-133.36 335.91,-134.4 328.31,-127.01 325.36,-133.36"/>
</g>
<!-- Node38 -->
<g id="node38" class="node">
<title>Node38</title>
<g id="a_node38"><a xlink:href="d__a__alink_8h.html" target="_top" xlink:title=" ">
<polygon fill="white" stroke="black" points="1146.29,-73 1146.29,-92 1262.29,-92 1262.29,-73 1146.29,-73"/>
<text text-anchor="middle" x="1204.29" y="-80" font-family="Helvetica,sans-Serif" font-size="10.00">include/d/a/d_a_alink.h</text>
</a>
</g>
</g>
<!-- Node37&#45;&gt;Node38 -->
<g id="edge43" class="edge">
<title>Node37&#45;&gt;Node38</title>
<path fill="none" stroke="midnightblue" d="M440.19,-138.21C452.56,-136.67 465.27,-135.2 477.29,-134 725.61,-109.18 1022.87,-92.63 1146.23,-86.34"/>
<polygon fill="midnightblue" stroke="midnightblue" points="439.38,-134.79 429.9,-139.52 440.26,-141.73 439.38,-134.79"/>
</g>
<!-- Node39 -->
<g id="node39" class="node">
<title>Node39</title>
<g id="a_node39"><a xlink:href="d__menu__window_8h.html" target="_top" xlink:title=" ">
<polygon fill="white" stroke="black" points="306.29,-67.5 306.29,-97.5 426.29,-97.5 426.29,-67.5 306.29,-67.5"/>
<text text-anchor="start" x="314.29" y="-85.5" font-family="Helvetica,sans-Serif" font-size="10.00">include/d/menu/d_menu</text>
<text text-anchor="middle" x="366.29" y="-74.5" font-family="Helvetica,sans-Serif" font-size="10.00">_window.h</text>
</a>
</g>
</g>
<!-- Node37&#45;&gt;Node39 -->
<g id="edge46" class="edge">
<title>Node37&#45;&gt;Node39</title>
<path fill="none" stroke="midnightblue" d="M359.74,-124.4C359.29,-115.37 359.58,-105.41 360.61,-97.58"/>
<polygon fill="midnightblue" stroke="midnightblue" points="356.26,-124.74 360.61,-134.4 363.23,-124.13 356.26,-124.74"/>
</g>
<!-- Node38&#45;&gt;Node4 -->
<g id="edge45" class="edge">
<title>Node38&#45;&gt;Node4</title>
<path fill="none" stroke="midnightblue" d="M1217.16,-100.68C1227.91,-117.21 1240.29,-142.89 1232.29,-165 1225.2,-184.58 1209.38,-181.42 1202.29,-201 1197.6,-213.95 1193.12,-221.71 1202.29,-232 1248.41,-283.79 1443.9,-256.43 1512.29,-268 1515.48,-268.54 1518.75,-269.14 1522.04,-269.77"/>
<polygon fill="midnightblue" stroke="midnightblue" points="1219.78,-98.31 1211.19,-92.1 1214.03,-102.3 1219.78,-98.31"/>
</g>
<!-- Node38&#45;&gt;Node11 -->
<g id="edge44" class="edge">
<title>Node38&#45;&gt;Node11</title>
<path fill="none" stroke="midnightblue" d="M1215.84,-64.03C1224.16,-51.45 1235.04,-35.01 1241.58,-25.13"/>
<polygon fill="midnightblue" stroke="midnightblue" points="1212.68,-62.46 1210.08,-72.73 1218.52,-66.32 1212.68,-62.46"/>
</g>
<!-- Node39&#45;&gt;Node21 -->
<g id="edge47" class="edge">
<title>Node39&#45;&gt;Node21</title>
<path fill="none" stroke="midnightblue" d="M366.29,-57.25C366.29,-46.02 366.29,-33.38 366.29,-25.19"/>
<polygon fill="midnightblue" stroke="midnightblue" points="362.79,-57.4 366.29,-67.4 369.79,-57.4 362.79,-57.4"/>
</g>
<!-- Node39&#45;&gt;Node25 -->
<g id="edge48" class="edge">
<title>Node39&#45;&gt;Node25</title>
<path fill="none" stroke="midnightblue" d="M436.69,-66.88C600.42,-41.72 782.63,-26.59 870.16,-20.12"/>
<polygon fill="midnightblue" stroke="midnightblue" points="435.77,-63.48 426.43,-68.48 436.85,-70.4 435.77,-63.48"/>
</g>
<!-- Node39&#45;&gt;Node37 -->
<g id="edge49" class="edge">
<title>Node39&#45;&gt;Node37</title>
<path fill="none" stroke="midnightblue" d="M372.83,-107.57C373.28,-116.6 372.99,-126.56 371.96,-134.4"/>
<polygon fill="midnightblue" stroke="midnightblue" points="376.31,-107.24 371.96,-97.58 369.34,-107.84 376.31,-107.24"/>
</g>
<!-- Node40&#45;&gt;Node19 -->
<g id="edge51" class="edge">
<title>Node40&#45;&gt;Node19</title>
<path fill="none" stroke="midnightblue" d="M737.99,-198.91C689.42,-186.18 624.36,-169.13 585.83,-159.03"/>
<polygon fill="midnightblue" stroke="midnightblue" points="737.22,-202.33 747.78,-201.48 738.99,-195.55 737.22,-202.33"/>
</g>
<!-- Node40&#45;&gt;Node21 -->
<g id="edge52" class="edge">
<title>Node40&#45;&gt;Node21</title>
<path fill="none" stroke="midnightblue" d="M818.82,-192.94C830.2,-175.38 840.63,-151.18 827.29,-134 801.47,-100.78 524.73,-46.01 412.83,-25.03"/>
<polygon fill="midnightblue" stroke="midnightblue" points="815.74,-191.24 812.91,-201.45 821.49,-195.23 815.74,-191.24"/>
</g>
<!-- Node40&#45;&gt;Node23 -->
<g id="edge53" class="edge">
<title>Node40&#45;&gt;Node23</title>
<path fill="none" stroke="midnightblue" d="M742.99,-198.14C718.77,-189.77 690.86,-178.57 667.29,-165 648.4,-154.13 648.12,-144.97 629.29,-134 603.03,-118.71 571.27,-106.27 545.72,-97.57"/>
<polygon fill="midnightblue" stroke="midnightblue" points="742.18,-201.56 752.77,-201.44 744.41,-194.93 742.18,-201.56"/>
</g>
<!-- Node40&#45;&gt;Node24 -->
<g id="edge54" class="edge">
<title>Node40&#45;&gt;Node24</title>
<path fill="none" stroke="midnightblue" d="M863.28,-198.85C902.73,-188.25 953.27,-174.68 990.75,-164.61"/>
<polygon fill="midnightblue" stroke="midnightblue" points="862.25,-195.5 853.5,-201.48 864.06,-202.26 862.25,-195.5"/>
</g>
<!-- Node40&#45;&gt;Node25 -->
<g id="edge55" class="edge">
<title>Node40&#45;&gt;Node25</title>
<path fill="none" stroke="midnightblue" d="M828.78,-194.89C839.29,-186.29 850.98,-175.8 860.29,-165 883.23,-138.38 888.59,-130.37 902.29,-98 911.82,-75.46 917.46,-47.4 920.2,-30.78"/>
<polygon fill="midnightblue" stroke="midnightblue" points="826.32,-192.38 820.68,-201.35 830.68,-197.86 826.32,-192.38"/>
</g>
<!-- Node41 -->
<g id="node41" class="node">
<title>Node41</title>
<g id="a_node41"><a xlink:href="d__msg__object_8cpp.html" target="_top" xlink:title=" ">
<polygon fill="white" stroke="black" points="676.29,-140 676.29,-159 818.29,-159 818.29,-140 676.29,-140"/>
<text text-anchor="middle" x="747.29" y="-147" font-family="Helvetica,sans-Serif" font-size="10.00">src/d/msg/d_msg_object.cpp</text>
</a>
</g>
</g>
<!-- Node40&#45;&gt;Node41 -->
<g id="edge56" class="edge">
<title>Node40&#45;&gt;Node41</title>
<path fill="none" stroke="midnightblue" d="M783.14,-193.66C773.34,-181.86 761.8,-167.97 754.51,-159.19"/>
<polygon fill="midnightblue" stroke="midnightblue" points="780.49,-195.94 789.57,-201.4 785.87,-191.47 780.49,-195.94"/>
</g>
<!-- Node43 -->
<g id="node43" class="node">
<title>Node43</title>
<g id="a_node43"><a xlink:href="f__op__camera_8cpp.html" target="_top" xlink:title=" ">
<polygon fill="white" stroke="black" points="3630.79,-207 3630.79,-226 3759.79,-226 3759.79,-207 3630.79,-207"/>
<text text-anchor="middle" x="3695.29" y="-214" font-family="Helvetica,sans-Serif" font-size="10.00">src/f_op/f_op_camera.cpp</text>
</a>
</g>
</g>
<!-- Node42&#45;&gt;Node43 -->
<g id="edge58" class="edge">
<title>Node42&#45;&gt;Node43</title>
<path fill="none" stroke="midnightblue" d="M2813.74,-281.62C2968.68,-279.09 3324.67,-269.34 3621.29,-232 3632.98,-230.53 3645.59,-228.3 3657.04,-226.03"/>
<polygon fill="midnightblue" stroke="midnightblue" points="2813.32,-278.12 2803.38,-281.78 2813.43,-285.12 2813.32,-278.12"/>
</g>
</g>
</svg>
