<?xml version="1.0" encoding="UTF-8" standalone="no"?>
<!DOCTYPE svg PUBLIC "-//W3C//DTD SVG 1.1//EN"
 "http://www.w3.org/Graphics/SVG/1.1/DTD/svg11.dtd">
<!-- Generated by graphviz version 2.49.3 (20211027.1534)
 -->
<!-- Title: include/f_op/f_op_draw_tag.h Pages: 1 -->
<svg width="4979pt" height="318pt"
 viewBox="0.00 0.00 4978.50 318.00" xmlns="http://www.w3.org/2000/svg" xmlns:xlink="http://www.w3.org/1999/xlink">
<g id="graph0" class="graph" transform="scale(1 1) rotate(0) translate(4 314)">
<title>include/f_op/f_op_draw_tag.h</title>
<polygon fill="white" stroke="transparent" points="-4,4 -4,-314 4974.5,-314 4974.5,4 -4,4"/>
<!-- Node1 -->
<g id="node1" class="node">
<title>Node1</title>
<g id="a_node1"><a xlink:title=" ">
<polygon fill="#bfbfbf" stroke="black" points="4666,-279.5 4666,-309.5 4783,-309.5 4783,-279.5 4666,-279.5"/>
<text text-anchor="start" x="4674" y="-297.5" font-family="Helvetica,sans-Serif" font-size="10.00">include/f_op/f_op_draw</text>
<text text-anchor="middle" x="4724.5" y="-286.5" font-family="Helvetica,sans-Serif" font-size="10.00">_tag.h</text>
</a>
</g>
</g>
<!-- Node2 -->
<g id="node2" class="node">
<title>Node2</title>
<g id="a_node2"><a xlink:href="f__op__camera__mng_8h.html" target="_top" xlink:title=" ">
<polygon fill="white" stroke="black" points="4366.5,-212.5 4366.5,-242.5 4494.5,-242.5 4494.5,-212.5 4366.5,-212.5"/>
<text text-anchor="start" x="4374.5" y="-230.5" font-family="Helvetica,sans-Serif" font-size="10.00">include/f_op/f_op_camera</text>
<text text-anchor="middle" x="4430.5" y="-219.5" font-family="Helvetica,sans-Serif" font-size="10.00">_mng.h</text>
</a>
</g>
</g>
<!-- Node1&#45;&gt;Node2 -->
<g id="edge1" class="edge">
<title>Node1&#45;&gt;Node2</title>
<path fill="none" stroke="midnightblue" d="M4655.85,-278.32C4606.95,-267.51 4541.72,-253.09 4494.02,-242.54"/>
<polygon fill="midnightblue" stroke="midnightblue" points="4655.19,-281.76 4665.71,-280.5 4656.7,-274.93 4655.19,-281.76"/>
</g>
<!-- Node41 -->
<g id="node22" class="node">
<title>Node41</title>
<g id="a_node22"><a xlink:href="f__op__camera_8cpp.html" target="_top" xlink:title=" ">
<polygon fill="white" stroke="black" points="3034,-6 3034,-25 3163,-25 3163,-6 3034,-6"/>
<text text-anchor="middle" x="3098.5" y="-13" font-family="Helvetica,sans-Serif" font-size="10.00">src/f_op/f_op_camera.cpp</text>
</a>
</g>
</g>
<!-- Node1&#45;&gt;Node41 -->
<g id="edge61" class="edge">
<title>Node1&#45;&gt;Node41</title>
<path fill="none" stroke="midnightblue" d="M4728.07,-268.88C4731.28,-236.97 4731.96,-181.13 4704.5,-145 4651.25,-74.94 4608.38,-86.22 4522.5,-67 4389.05,-37.13 3423.7,-21.18 3163.15,-17.39"/>
<polygon fill="midnightblue" stroke="midnightblue" points="4724.56,-268.76 4726.86,-279.1 4731.51,-269.58 4724.56,-268.76"/>
</g>
<!-- Node77 -->
<g id="node47" class="node">
<title>Node77</title>
<g id="a_node47"><a xlink:href="f__ap__game_8cpp.html" target="_top" xlink:title=" ">
<polygon fill="white" stroke="black" points="4575,-151 4575,-170 4696,-170 4696,-151 4575,-151"/>
<text text-anchor="middle" x="4635.5" y="-158" font-family="Helvetica,sans-Serif" font-size="10.00">src/f_ap/f_ap_game.cpp</text>
</a>
</g>
</g>
<!-- Node1&#45;&gt;Node77 -->
<g id="edge60" class="edge">
<title>Node1&#45;&gt;Node77</title>
<path fill="none" stroke="midnightblue" d="M4709.25,-270.87C4689.18,-241.12 4654.89,-190.26 4641.3,-170.1"/>
<polygon fill="midnightblue" stroke="midnightblue" points="4706.48,-273.04 4714.98,-279.37 4712.29,-269.13 4706.48,-273.04"/>
</g>
<!-- Node79 -->
<g id="node49" class="node">
<title>Node79</title>
<g id="a_node49"><a xlink:href="f__op__draw__iter_8cpp.html" target="_top" xlink:title=" ">
<polygon fill="white" stroke="black" points="4752.5,-212.5 4752.5,-242.5 4852.5,-242.5 4852.5,-212.5 4752.5,-212.5"/>
<text text-anchor="start" x="4760.5" y="-230.5" font-family="Helvetica,sans-Serif" font-size="10.00">src/f_op/f_op_draw</text>
<text text-anchor="middle" x="4802.5" y="-219.5" font-family="Helvetica,sans-Serif" font-size="10.00">_iter.cpp</text>
</a>
</g>
</g>
<!-- Node1&#45;&gt;Node79 -->
<g id="edge62" class="edge">
<title>Node1&#45;&gt;Node79</title>
<path fill="none" stroke="midnightblue" d="M4749.24,-272.88C4761.09,-263.01 4774.98,-251.43 4785.61,-242.58"/>
<polygon fill="midnightblue" stroke="midnightblue" points="4746.87,-270.31 4741.42,-279.4 4751.35,-275.68 4746.87,-270.31"/>
</g>
<!-- Node80 -->
<g id="node50" class="node">
<title>Node80</title>
<g id="a_node50"><a xlink:href="f__op__draw__tag_8cpp.html" target="_top" xlink:title=" ">
<polygon fill="white" stroke="black" points="4870.5,-212.5 4870.5,-242.5 4970.5,-242.5 4970.5,-212.5 4870.5,-212.5"/>
<text text-anchor="start" x="4878.5" y="-230.5" font-family="Helvetica,sans-Serif" font-size="10.00">src/f_op/f_op_draw</text>
<text text-anchor="middle" x="4920.5" y="-219.5" font-family="Helvetica,sans-Serif" font-size="10.00">_tag.cpp</text>
</a>
</g>
</g>
<!-- Node1&#45;&gt;Node80 -->
<g id="edge63" class="edge">
<title>Node1&#45;&gt;Node80</title>
<path fill="none" stroke="midnightblue" d="M4776.58,-276.23C4808.29,-265.71 4848.28,-252.45 4878.05,-242.58"/>
<polygon fill="midnightblue" stroke="midnightblue" points="4775.42,-272.93 4767.03,-279.4 4777.62,-279.57 4775.42,-272.93"/>
</g>
<!-- Node3 -->
<g id="node3" class="node">
<title>Node3</title>
<g id="a_node3"><a xlink:href="d__com__inf__game_8h.html" target="_top" xlink:title=" ">
<polygon fill="white" stroke="red" points="1891.5,-145.5 1891.5,-175.5 2001.5,-175.5 2001.5,-145.5 1891.5,-145.5"/>
<text text-anchor="start" x="1899.5" y="-163.5" font-family="Helvetica,sans-Serif" font-size="10.00">include/d/com/d_com</text>
<text text-anchor="middle" x="1946.5" y="-152.5" font-family="Helvetica,sans-Serif" font-size="10.00">_inf_game.h</text>
</a>
</g>
</g>
<!-- Node2&#45;&gt;Node3 -->
<g id="edge2" class="edge">
<title>Node2&#45;&gt;Node3</title>
<path fill="none" stroke="midnightblue" d="M4356.16,-224.55C3983.78,-214.81 2326.16,-171.43 2001.7,-162.94"/>
<polygon fill="midnightblue" stroke="midnightblue" points="4356.2,-228.06 4366.29,-224.82 4356.38,-221.06 4356.2,-228.06"/>
</g>
<!-- Node74 -->
<g id="node45" class="node">
<title>Node74</title>
<g id="a_node45"><a xlink:href="d__camera_8h.html" target="_top" xlink:title=" ">
<polygon fill="white" stroke="red" points="4164,-151 4164,-170 4273,-170 4273,-151 4164,-151"/>
<text text-anchor="middle" x="4218.5" y="-158" font-family="Helvetica,sans-Serif" font-size="10.00">include/d/d_camera.h</text>
</a>
</g>
</g>
<!-- Node2&#45;&gt;Node74 -->
<g id="edge54" class="edge">
<title>Node2&#45;&gt;Node74</title>
<path fill="none" stroke="midnightblue" d="M4375.09,-209.51C4333.71,-196.83 4278.91,-180.02 4246.32,-170.03"/>
<polygon fill="midnightblue" stroke="midnightblue" points="4374.17,-212.89 4384.76,-212.48 4376.23,-206.2 4374.17,-212.89"/>
</g>
<!-- Node76 -->
<g id="node46" class="node">
<title>Node76</title>
<g id="a_node46"><a xlink:href="f__op__camera_8h.html" target="_top" xlink:title=" ">
<polygon fill="white" stroke="black" points="4291.5,-151 4291.5,-170 4427.5,-170 4427.5,-151 4291.5,-151"/>
<text text-anchor="middle" x="4359.5" y="-158" font-family="Helvetica,sans-Serif" font-size="10.00">include/f_op/f_op_camera.h</text>
</a>
</g>
</g>
<!-- Node2&#45;&gt;Node76 -->
<g id="edge56" class="edge">
<title>Node2&#45;&gt;Node76</title>
<path fill="none" stroke="midnightblue" d="M4407.38,-205.34C4394.35,-193.4 4378.76,-179.14 4369,-170.19"/>
<polygon fill="midnightblue" stroke="midnightblue" points="4405.35,-208.22 4415.09,-212.4 4410.08,-203.06 4405.35,-208.22"/>
</g>
<!-- Node2&#45;&gt;Node77 -->
<g id="edge58" class="edge">
<title>Node2&#45;&gt;Node77</title>
<path fill="none" stroke="midnightblue" d="M4484.34,-209.43C4524.31,-196.75 4577.15,-180 4608.6,-170.03"/>
<polygon fill="midnightblue" stroke="midnightblue" points="4483.2,-206.12 4474.73,-212.48 4485.32,-212.79 4483.2,-206.12"/>
</g>
<!-- Node78 -->
<g id="node48" class="node">
<title>Node78</title>
<g id="a_node48"><a xlink:href="f__op__camera__mng_8cpp.html" target="_top" xlink:title=" ">
<polygon fill="white" stroke="black" points="4446,-145.5 4446,-175.5 4557,-175.5 4557,-145.5 4446,-145.5"/>
<text text-anchor="start" x="4454" y="-163.5" font-family="Helvetica,sans-Serif" font-size="10.00">src/f_op/f_op_camera</text>
<text text-anchor="middle" x="4501.5" y="-152.5" font-family="Helvetica,sans-Serif" font-size="10.00">_mng.cpp</text>
</a>
</g>
</g>
<!-- Node2&#45;&gt;Node78 -->
<g id="edge59" class="edge">
<title>Node2&#45;&gt;Node78</title>
<path fill="none" stroke="midnightblue" d="M4453.33,-205.6C4464.05,-195.78 4476.55,-184.34 4486.12,-175.58"/>
<polygon fill="midnightblue" stroke="midnightblue" points="4450.92,-203.06 4445.91,-212.4 4455.65,-208.22 4450.92,-203.06"/>
</g>
<!-- Node4 -->
<g id="node4" class="node">
<title>Node4</title>
<g id="a_node4"><a xlink:href="d__a__npc_8h.html" target="_top" xlink:title=" ">
<polygon fill="white" stroke="red" points="0,-78.5 0,-97.5 111,-97.5 111,-78.5 0,-78.5"/>
<text text-anchor="middle" x="55.5" y="-85.5" font-family="Helvetica,sans-Serif" font-size="10.00">include/d/a/d_a_npc.h</text>
</a>
</g>
</g>
<!-- Node3&#45;&gt;Node4 -->
<g id="edge3" class="edge">
<title>Node3&#45;&gt;Node4</title>
<path fill="none" stroke="midnightblue" d="M1881.15,-158.76C1575.64,-155.15 295.7,-138.39 119.5,-109 105.26,-106.63 89.8,-101.86 77.64,-97.57"/>
<polygon fill="midnightblue" stroke="midnightblue" points="1881.14,-162.26 1891.18,-158.88 1881.22,-155.26 1881.14,-162.26"/>
</g>
<!-- Node9 -->
<g id="node5" class="node">
<title>Node9</title>
<g id="a_node5"><a xlink:href="d__cc__uty_8h.html" target="_top" xlink:title=" ">
<polygon fill="white" stroke="red" points="129,-78.5 129,-97.5 248,-97.5 248,-78.5 129,-78.5"/>
<text text-anchor="middle" x="188.5" y="-85.5" font-family="Helvetica,sans-Serif" font-size="10.00">include/d/cc/d_cc_uty.h</text>
</a>
</g>
</g>
<!-- Node3&#45;&gt;Node9 -->
<g id="edge4" class="edge">
<title>Node3&#45;&gt;Node9</title>
<path fill="none" stroke="midnightblue" d="M1881.45,-159.58C1612.1,-159.6 583.34,-156.5 262.5,-109 246.18,-106.58 228.3,-101.82 214.21,-97.54"/>
<polygon fill="midnightblue" stroke="midnightblue" points="1881.46,-163.08 1891.46,-159.58 1881.46,-156.08 1881.46,-163.08"/>
</g>
<!-- Node11 -->
<g id="node6" class="node">
<title>Node11</title>
<g id="a_node6"><a xlink:href="d__item_8h.html" target="_top" xlink:title=" ">
<polygon fill="white" stroke="red" points="305,-78.5 305,-97.5 400,-97.5 400,-78.5 305,-78.5"/>
<text text-anchor="middle" x="352.5" y="-85.5" font-family="Helvetica,sans-Serif" font-size="10.00">include/d/d_item.h</text>
</a>
</g>
</g>
<!-- Node3&#45;&gt;Node11 -->
<g id="edge5" class="edge">
<title>Node3&#45;&gt;Node11</title>
<path fill="none" stroke="midnightblue" d="M1881.07,-159.77C1626.62,-160.43 702.82,-159.23 414.5,-109 400.68,-106.59 385.71,-101.83 373.93,-97.55"/>
<polygon fill="midnightblue" stroke="midnightblue" points="1881.27,-163.27 1891.26,-159.74 1881.25,-156.27 1881.27,-163.27"/>
</g>
<!-- Node12 -->
<g id="node7" class="node">
<title>Node12</title>
<g id="a_node7"><a xlink:href="d__com__inf__game_8cpp.html" target="_top" xlink:title=" ">
<polygon fill="white" stroke="black" points="229.5,-0.5 229.5,-30.5 337.5,-30.5 337.5,-0.5 229.5,-0.5"/>
<text text-anchor="start" x="237.5" y="-18.5" font-family="Helvetica,sans-Serif" font-size="10.00">src/d/com/d_com_inf</text>
<text text-anchor="middle" x="283.5" y="-7.5" font-family="Helvetica,sans-Serif" font-size="10.00">_game.cpp</text>
</a>
</g>
</g>
<!-- Node3&#45;&gt;Node12 -->
<g id="edge33" class="edge">
<title>Node3&#45;&gt;Node12</title>
<path fill="none" stroke="midnightblue" d="M1881.21,-159.85C1582.17,-161.13 355.19,-163.09 295.5,-109 273.78,-89.32 276.77,-51.23 280.39,-30.6"/>
<polygon fill="midnightblue" stroke="midnightblue" points="1881.47,-163.34 1891.45,-159.8 1881.44,-156.34 1881.47,-163.34"/>
</g>
<!-- Node6 -->
<g id="node8" class="node">
<title>Node6</title>
<g id="a_node8"><a xlink:href="d__msg__flow_8cpp.html" target="_top" xlink:title=" ">
<polygon fill="white" stroke="black" points="362,-6 362,-25 495,-25 495,-6 362,-6"/>
<text text-anchor="middle" x="428.5" y="-13" font-family="Helvetica,sans-Serif" font-size="10.00">src/d/msg/d_msg_flow.cpp</text>
</a>
</g>
</g>
<!-- Node3&#45;&gt;Node6 -->
<g id="edge52" class="edge">
<title>Node3&#45;&gt;Node6</title>
<path fill="none" stroke="midnightblue" d="M1881.41,-159.53C1600.41,-159.39 503,-155.84 447.5,-109 422.57,-87.96 424.92,-43.74 427.2,-25.09"/>
<polygon fill="midnightblue" stroke="midnightblue" points="1881.45,-163.03 1891.45,-159.54 1881.45,-156.03 1881.45,-163.03"/>
</g>
<!-- Node15 -->
<g id="node9" class="node">
<title>Node15</title>
<g id="a_node9"><a xlink:href="d__kantera__icon__meter_8h.html" target="_top" xlink:title=" ">
<polygon fill="white" stroke="red" points="457,-73 457,-103 558,-103 558,-73 457,-73"/>
<text text-anchor="start" x="465" y="-91" font-family="Helvetica,sans-Serif" font-size="10.00">include/d/d_kantera</text>
<text text-anchor="middle" x="507.5" y="-80" font-family="Helvetica,sans-Serif" font-size="10.00">_icon_meter.h</text>
</a>
</g>
</g>
<!-- Node3&#45;&gt;Node15 -->
<g id="edge8" class="edge">
<title>Node3&#45;&gt;Node15</title>
<path fill="none" stroke="midnightblue" d="M1881.25,-159.36C1644.17,-158.5 828.91,-152.39 572.5,-109 564.23,-107.6 555.55,-105.44 547.32,-103.05"/>
<polygon fill="midnightblue" stroke="midnightblue" points="1881.42,-162.86 1891.44,-159.4 1881.45,-155.86 1881.42,-162.86"/>
</g>
<!-- Node17 -->
<g id="node10" class="node">
<title>Node17</title>
<g id="a_node10"><a xlink:href="d__meter2__draw_8cpp.html" target="_top" xlink:title=" ">
<polygon fill="white" stroke="black" points="531.5,-0.5 531.5,-30.5 641.5,-30.5 641.5,-0.5 531.5,-0.5"/>
<text text-anchor="start" x="539.5" y="-18.5" font-family="Helvetica,sans-Serif" font-size="10.00">src/d/meter/d_meter2</text>
<text text-anchor="middle" x="586.5" y="-7.5" font-family="Helvetica,sans-Serif" font-size="10.00">_draw.cpp</text>
</a>
</g>
</g>
<!-- Node3&#45;&gt;Node17 -->
<g id="edge49" class="edge">
<title>Node3&#45;&gt;Node17</title>
<path fill="none" stroke="midnightblue" d="M1881.08,-159.26C1618.72,-158.02 654.61,-150.61 605.5,-109 582.86,-89.82 582.74,-51.52 584.61,-30.73"/>
<polygon fill="midnightblue" stroke="midnightblue" points="1881.2,-162.76 1891.21,-159.31 1881.23,-155.76 1881.2,-162.76"/>
</g>
<!-- Node18 -->
<g id="node11" class="node">
<title>Node18</title>
<g id="a_node11"><a xlink:href="d__model_8h.html" target="_top" xlink:title=" ">
<polygon fill="white" stroke="red" points="615,-78.5 615,-97.5 718,-97.5 718,-78.5 615,-78.5"/>
<text text-anchor="middle" x="666.5" y="-85.5" font-family="Helvetica,sans-Serif" font-size="10.00">include/d/d_model.h</text>
</a>
</g>
</g>
<!-- Node3&#45;&gt;Node18 -->
<g id="edge10" class="edge">
<title>Node3&#45;&gt;Node18</title>
<path fill="none" stroke="midnightblue" d="M1881.29,-159.2C1661.81,-157.83 951.11,-150.24 726.5,-109 713.11,-106.54 698.61,-101.77 687.22,-97.51"/>
<polygon fill="midnightblue" stroke="midnightblue" points="1881.34,-162.7 1891.37,-159.26 1881.39,-155.7 1881.34,-162.7"/>
</g>
<!-- Node20 -->
<g id="node12" class="node">
<title>Node20</title>
<g id="a_node12"><a xlink:href="d__name_8h.html" target="_top" xlink:title=" ">
<polygon fill="white" stroke="red" points="736,-78.5 736,-97.5 837,-97.5 837,-78.5 736,-78.5"/>
<text text-anchor="middle" x="786.5" y="-85.5" font-family="Helvetica,sans-Serif" font-size="10.00">include/d/d_name.h</text>
</a>
</g>
</g>
<!-- Node3&#45;&gt;Node20 -->
<g id="edge11" class="edge">
<title>Node3&#45;&gt;Node20</title>
<path fill="none" stroke="midnightblue" d="M1881.2,-158.86C1676.14,-156.48 1046.81,-146.24 846.5,-109 833.22,-106.53 818.85,-101.82 807.51,-97.59"/>
<polygon fill="midnightblue" stroke="midnightblue" points="1881.18,-162.36 1891.22,-158.97 1881.26,-155.36 1881.18,-162.36"/>
</g>
<!-- Node22 -->
<g id="node13" class="node">
<title>Node22</title>
<g id="a_node13"><a xlink:href="d__file__sel__info_8h.html" target="_top" xlink:title=" ">
<polygon fill="white" stroke="red" points="855.5,-73 855.5,-103 951.5,-103 951.5,-73 855.5,-73"/>
<text text-anchor="start" x="863.5" y="-91" font-family="Helvetica,sans-Serif" font-size="10.00">include/d/file/d_file</text>
<text text-anchor="middle" x="903.5" y="-80" font-family="Helvetica,sans-Serif" font-size="10.00">_sel_info.h</text>
</a>
</g>
</g>
<!-- Node3&#45;&gt;Node22 -->
<g id="edge12" class="edge">
<title>Node3&#45;&gt;Node22</title>
<path fill="none" stroke="midnightblue" d="M1881.24,-158.59C1690.73,-155.54 1137.61,-143.86 960.5,-109 953.3,-107.58 945.77,-105.44 938.64,-103.09"/>
<polygon fill="midnightblue" stroke="midnightblue" points="1881.33,-162.09 1891.39,-158.75 1881.44,-155.09 1881.33,-162.09"/>
</g>
<!-- Node24 -->
<g id="node14" class="node">
<title>Node24</title>
<g id="a_node14"><a xlink:href="d__meter2_8h.html" target="_top" xlink:title=" ">
<polygon fill="white" stroke="red" points="969.5,-78.5 969.5,-97.5 1103.5,-97.5 1103.5,-78.5 969.5,-78.5"/>
<text text-anchor="middle" x="1036.5" y="-85.5" font-family="Helvetica,sans-Serif" font-size="10.00">include/d/meter/d_meter2.h</text>
</a>
</g>
</g>
<!-- Node3&#45;&gt;Node24 -->
<g id="edge13" class="edge">
<title>Node3&#45;&gt;Node24</title>
<path fill="none" stroke="midnightblue" d="M1881.16,-159.53C1740.61,-158.71 1399.44,-152.03 1117.5,-109 1100.03,-106.33 1080.82,-101.67 1065.49,-97.51"/>
<polygon fill="midnightblue" stroke="midnightblue" points="1881.31,-163.03 1891.33,-159.58 1881.35,-156.03 1881.31,-163.03"/>
</g>
<!-- Node34 -->
<g id="node15" class="node">
<title>Node34</title>
<g id="a_node15"><a xlink:href="d__msg__object_8h.html" target="_top" xlink:title=" ">
<polygon fill="white" stroke="red" points="1159.5,-73 1159.5,-103 1269.5,-103 1269.5,-73 1159.5,-73"/>
<text text-anchor="start" x="1167.5" y="-91" font-family="Helvetica,sans-Serif" font-size="10.00">include/d/msg/d_msg</text>
<text text-anchor="middle" x="1214.5" y="-80" font-family="Helvetica,sans-Serif" font-size="10.00">_object.h</text>
</a>
</g>
</g>
<!-- Node3&#45;&gt;Node34 -->
<g id="edge14" class="edge">
<title>Node3&#45;&gt;Node34</title>
<path fill="none" stroke="midnightblue" d="M1881.36,-158.97C1761.89,-157.03 1500.11,-148.21 1283.5,-109 1275.15,-107.49 1266.37,-105.37 1257.98,-103.07"/>
<polygon fill="midnightblue" stroke="midnightblue" points="1881.39,-162.47 1891.44,-159.13 1881.49,-155.47 1881.39,-162.47"/>
</g>
<!-- Node35 -->
<g id="node16" class="node">
<title>Node35</title>
<g id="a_node16"><a xlink:href="d__kankyo_8cpp.html" target="_top" xlink:title=" ">
<polygon fill="white" stroke="black" points="966.5,-6 966.5,-25 1100.5,-25 1100.5,-6 966.5,-6"/>
<text text-anchor="middle" x="1033.5" y="-13" font-family="Helvetica,sans-Serif" font-size="10.00">src/d/kankyo/d_kankyo.cpp</text>
</a>
</g>
</g>
<!-- Node3&#45;&gt;Node35 -->
<g id="edge44" class="edge">
<title>Node3&#45;&gt;Node35</title>
<path fill="none" stroke="midnightblue" d="M1881.37,-158.17C1702.99,-154.14 1215.54,-140.36 1150.5,-109 1127.83,-98.07 1131.72,-83.26 1112.5,-67 1092.37,-49.97 1066.08,-34.27 1049.49,-25.04"/>
<polygon fill="midnightblue" stroke="midnightblue" points="1881.32,-161.67 1891.4,-158.4 1881.48,-154.67 1881.32,-161.67"/>
</g>
<!-- Node29 -->
<g id="node17" class="node">
<title>Node29</title>
<g id="a_node17"><a xlink:href="d__menu__window_8cpp.html" target="_top" xlink:title=" ">
<polygon fill="white" stroke="black" points="1119,-6 1119,-25 1278,-25 1278,-6 1119,-6"/>
<text text-anchor="middle" x="1198.5" y="-13" font-family="Helvetica,sans-Serif" font-size="10.00">src/d/menu/d_menu_window.cpp</text>
</a>
</g>
</g>
<!-- Node3&#45;&gt;Node29 -->
<g id="edge47" class="edge">
<title>Node3&#45;&gt;Node29</title>
<path fill="none" stroke="midnightblue" d="M1881.09,-157.66C1747.83,-153.32 1449.31,-140.32 1352.5,-109 1337.22,-104.06 1246.81,-47.17 1212.08,-25.14"/>
<polygon fill="midnightblue" stroke="midnightblue" points="1881.06,-161.17 1891.16,-157.99 1881.28,-154.17 1881.06,-161.17"/>
</g>
<!-- Node31 -->
<g id="node18" class="node">
<title>Node31</title>
<g id="a_node18"><a xlink:href="d__meter2__info_8cpp.html" target="_top" xlink:title=" ">
<polygon fill="white" stroke="black" points="1296.5,-0.5 1296.5,-30.5 1406.5,-30.5 1406.5,-0.5 1296.5,-0.5"/>
<text text-anchor="start" x="1304.5" y="-18.5" font-family="Helvetica,sans-Serif" font-size="10.00">src/d/meter/d_meter2</text>
<text text-anchor="middle" x="1351.5" y="-7.5" font-family="Helvetica,sans-Serif" font-size="10.00">_info.cpp</text>
</a>
</g>
</g>
<!-- Node3&#45;&gt;Node31 -->
<g id="edge50" class="edge">
<title>Node3&#45;&gt;Node31</title>
<path fill="none" stroke="midnightblue" d="M1881.06,-157.7C1740.39,-153.26 1418.78,-139.83 1380.5,-109 1356.78,-89.89 1352.1,-51.56 1351.4,-30.75"/>
<polygon fill="midnightblue" stroke="midnightblue" points="1881.17,-161.21 1891.27,-158.02 1881.39,-154.21 1881.17,-161.21"/>
</g>
<!-- Node30 -->
<g id="node19" class="node">
<title>Node30</title>
<g id="a_node19"><a xlink:href="d__meter__map_8cpp.html" target="_top" xlink:title=" ">
<polygon fill="white" stroke="black" points="1424.5,-0.5 1424.5,-30.5 1528.5,-30.5 1528.5,-0.5 1424.5,-0.5"/>
<text text-anchor="start" x="1432.5" y="-18.5" font-family="Helvetica,sans-Serif" font-size="10.00">src/d/meter/d_meter</text>
<text text-anchor="middle" x="1476.5" y="-7.5" font-family="Helvetica,sans-Serif" font-size="10.00">_map.cpp</text>
</a>
</g>
</g>
<!-- Node3&#45;&gt;Node30 -->
<g id="edge51" class="edge">
<title>Node3&#45;&gt;Node30</title>
<path fill="none" stroke="midnightblue" d="M1881.19,-158.38C1741.75,-155.32 1424.9,-144.49 1392.5,-109 1379.91,-95.21 1383.31,-83.25 1392.5,-67 1401.97,-50.26 1419.44,-38.46 1436.01,-30.5"/>
<polygon fill="midnightblue" stroke="midnightblue" points="1881.25,-161.88 1891.32,-158.6 1881.4,-154.89 1881.25,-161.88"/>
</g>
<!-- Node38 -->
<g id="node20" class="node">
<title>Node38</title>
<g id="a_node20"><a xlink:href="d__s__logo_8h.html" target="_top" xlink:title=" ">
<polygon fill="white" stroke="red" points="1402,-78.5 1402,-97.5 1515,-97.5 1515,-78.5 1402,-78.5"/>
<text text-anchor="middle" x="1458.5" y="-85.5" font-family="Helvetica,sans-Serif" font-size="10.00">include/d/s/d_s_logo.h</text>
</a>
</g>
</g>
<!-- Node3&#45;&gt;Node38 -->
<g id="edge21" class="edge">
<title>Node3&#45;&gt;Node38</title>
<path fill="none" stroke="midnightblue" d="M1881.11,-155.35C1797.49,-149.22 1648.52,-135.47 1523.5,-109 1509.75,-106.09 1494.74,-101.56 1482.61,-97.55"/>
<polygon fill="midnightblue" stroke="midnightblue" points="1881,-158.85 1891.23,-156.08 1881.51,-151.87 1881,-158.85"/>
</g>
<!-- Node40 -->
<g id="node21" class="node">
<title>Node40</title>
<g id="a_node21"><a xlink:href="d__s__play_8h.html" target="_top" xlink:title=" ">
<polygon fill="white" stroke="red" points="1533,-78.5 1533,-97.5 1646,-97.5 1646,-78.5 1533,-78.5"/>
<text text-anchor="middle" x="1589.5" y="-85.5" font-family="Helvetica,sans-Serif" font-size="10.00">include/d/s/d_s_play.h</text>
</a>
</g>
</g>
<!-- Node3&#45;&gt;Node40 -->
<g id="edge22" class="edge">
<title>Node3&#45;&gt;Node40</title>
<path fill="none" stroke="midnightblue" d="M1881.18,-149.87C1822.97,-140.83 1735.62,-126.17 1660.5,-109 1646.14,-105.72 1630.36,-101.35 1617.32,-97.53"/>
<polygon fill="midnightblue" stroke="midnightblue" points="1880.93,-153.37 1891.34,-151.43 1881.99,-146.45 1880.93,-153.37"/>
</g>
<!-- Node3&#45;&gt;Node41 -->
<g id="edge53" class="edge">
<title>Node3&#45;&gt;Node41</title>
<path fill="none" stroke="midnightblue" d="M1881.12,-156.18C1787.9,-149.26 1634.27,-128.4 1693.5,-67 1740.55,-18.23 2763.72,-16.07 3033.68,-16.36"/>
<polygon fill="midnightblue" stroke="midnightblue" points="1881.11,-159.69 1891.33,-156.91 1881.61,-152.71 1881.11,-159.69"/>
</g>
<!-- Node43 -->
<g id="node23" class="node">
<title>Node43</title>
<g id="a_node23"><a xlink:href="d__a__tag__telop_8h.html" target="_top" xlink:title=" ">
<polygon fill="white" stroke="black" points="1702.5,-67.5 1702.5,-108.5 1820.5,-108.5 1820.5,-67.5 1702.5,-67.5"/>
<text text-anchor="start" x="1710.5" y="-96.5" font-family="Helvetica,sans-Serif" font-size="10.00">include/rel/d/a/tag</text>
<text text-anchor="start" x="1710.5" y="-85.5" font-family="Helvetica,sans-Serif" font-size="10.00">/d_a_tag_telop/d_a_tag</text>
<text text-anchor="middle" x="1761.5" y="-74.5" font-family="Helvetica,sans-Serif" font-size="10.00">_telop.h</text>
</a>
</g>
</g>
<!-- Node3&#45;&gt;Node43 -->
<g id="edge24" class="edge">
<title>Node3&#45;&gt;Node43</title>
<path fill="none" stroke="midnightblue" d="M1900.05,-141.8C1873.49,-131.68 1840.12,-118.96 1812.79,-108.55"/>
<polygon fill="midnightblue" stroke="midnightblue" points="1898.92,-145.11 1909.51,-145.4 1901.41,-138.57 1898.92,-145.11"/>
</g>
<!-- Node44 -->
<g id="node24" class="node">
<title>Node44</title>
<g id="a_node24"><a xlink:href="c__dylink_8cpp.html" target="_top" xlink:title=" ">
<polygon fill="white" stroke="black" points="1839,-78.5 1839,-97.5 1934,-97.5 1934,-78.5 1839,-78.5"/>
<text text-anchor="middle" x="1886.5" y="-85.5" font-family="Helvetica,sans-Serif" font-size="10.00">src/c/c_dylink.cpp</text>
</a>
</g>
</g>
<!-- Node3&#45;&gt;Node44 -->
<g id="edge25" class="edge">
<title>Node3&#45;&gt;Node44</title>
<path fill="none" stroke="midnightblue" d="M1927.68,-137.38C1916.32,-124.04 1902.46,-107.76 1894.07,-97.89"/>
<polygon fill="midnightblue" stroke="midnightblue" points="1925.21,-139.89 1934.36,-145.23 1930.54,-135.35 1925.21,-139.89"/>
</g>
<!-- Node27 -->
<g id="node25" class="node">
<title>Node27</title>
<g id="a_node25"><a xlink:href="d__a__alink_8cpp.html" target="_top" xlink:title=" ">
<polygon fill="white" stroke="black" points="1952,-78.5 1952,-97.5 2061,-97.5 2061,-78.5 1952,-78.5"/>
<text text-anchor="middle" x="2006.5" y="-85.5" font-family="Helvetica,sans-Serif" font-size="10.00">src/d/a/d_a_alink.cpp</text>
</a>
</g>
</g>
<!-- Node3&#45;&gt;Node27 -->
<g id="edge26" class="edge">
<title>Node3&#45;&gt;Node27</title>
<path fill="none" stroke="midnightblue" d="M1965.32,-137.38C1976.68,-124.04 1990.54,-107.76 1998.93,-97.89"/>
<polygon fill="midnightblue" stroke="midnightblue" points="1962.46,-135.35 1958.64,-145.23 1967.79,-139.89 1962.46,-135.35"/>
</g>
<!-- Node45 -->
<g id="node26" class="node">
<title>Node45</title>
<g id="a_node26"><a xlink:href="d__a__itembase_8cpp.html" target="_top" xlink:title=" ">
<polygon fill="white" stroke="black" points="2079.5,-78.5 2079.5,-97.5 2207.5,-97.5 2207.5,-78.5 2079.5,-78.5"/>
<text text-anchor="middle" x="2143.5" y="-85.5" font-family="Helvetica,sans-Serif" font-size="10.00">src/d/a/d_a_itembase.cpp</text>
</a>
</g>
</g>
<!-- Node3&#45;&gt;Node45 -->
<g id="edge27" class="edge">
<title>Node3&#45;&gt;Node45</title>
<path fill="none" stroke="midnightblue" d="M1995.36,-142.01C2034.94,-127.85 2088.98,-108.51 2119.65,-97.53"/>
<polygon fill="midnightblue" stroke="midnightblue" points="1994.13,-138.74 1985.89,-145.4 1996.49,-145.33 1994.13,-138.74"/>
</g>
<!-- Node46 -->
<g id="node27" class="node">
<title>Node46</title>
<g id="a_node27"><a xlink:href="d__a__player_8cpp.html" target="_top" xlink:title=" ">
<polygon fill="white" stroke="black" points="2225.5,-78.5 2225.5,-97.5 2339.5,-97.5 2339.5,-78.5 2225.5,-78.5"/>
<text text-anchor="middle" x="2282.5" y="-85.5" font-family="Helvetica,sans-Serif" font-size="10.00">src/d/a/d_a_player.cpp</text>
</a>
</g>
</g>
<!-- Node3&#45;&gt;Node46 -->
<g id="edge28" class="edge">
<title>Node3&#45;&gt;Node46</title>
<path fill="none" stroke="midnightblue" d="M2011.65,-149.37C2066.6,-140.33 2147.16,-125.94 2216.5,-109 2229.88,-105.73 2244.55,-101.37 2256.66,-97.54"/>
<polygon fill="midnightblue" stroke="midnightblue" points="2011,-145.93 2001.69,-150.99 2012.12,-152.84 2011,-145.93"/>
</g>
<!-- Node47 -->
<g id="node28" class="node">
<title>Node47</title>
<g id="a_node28"><a xlink:href="d__bg__s_8cpp.html" target="_top" xlink:title=" ">
<polygon fill="white" stroke="black" points="2357.5,-78.5 2357.5,-97.5 2461.5,-97.5 2461.5,-78.5 2357.5,-78.5"/>
<text text-anchor="middle" x="2409.5" y="-85.5" font-family="Helvetica,sans-Serif" font-size="10.00">src/d/bg/d_bg_s.cpp</text>
</a>
</g>
</g>
<!-- Node3&#45;&gt;Node47 -->
<g id="edge29" class="edge">
<title>Node3&#45;&gt;Node47</title>
<path fill="none" stroke="midnightblue" d="M2012.12,-155.14C2092.26,-148.93 2231.59,-135.25 2348.5,-109 2361.44,-106.09 2375.53,-101.57 2386.91,-97.56"/>
<polygon fill="midnightblue" stroke="midnightblue" points="2011.4,-151.69 2001.69,-155.93 2011.93,-158.67 2011.4,-151.69"/>
</g>
<!-- Node48 -->
<g id="node29" class="node">
<title>Node48</title>
<g id="a_node29"><a xlink:href="d__bg__s__movebg__actor_8cpp.html" target="_top" xlink:title=" ">
<polygon fill="white" stroke="black" points="2479.5,-73 2479.5,-103 2605.5,-103 2605.5,-73 2479.5,-73"/>
<text text-anchor="start" x="2487.5" y="-91" font-family="Helvetica,sans-Serif" font-size="10.00">src/d/bg/d_bg_s_movebg</text>
<text text-anchor="middle" x="2542.5" y="-80" font-family="Helvetica,sans-Serif" font-size="10.00">_actor.cpp</text>
</a>
</g>
</g>
<!-- Node3&#45;&gt;Node48 -->
<g id="edge30" class="edge">
<title>Node3&#45;&gt;Node48</title>
<path fill="none" stroke="midnightblue" d="M2011.85,-156.87C2111.5,-152.05 2307.12,-139.32 2470.5,-109 2479.05,-107.41 2488.05,-105.29 2496.69,-103.01"/>
<polygon fill="midnightblue" stroke="midnightblue" points="2011.46,-153.39 2001.63,-157.36 2011.79,-160.38 2011.46,-153.39"/>
</g>
<!-- Node49 -->
<g id="node30" class="node">
<title>Node49</title>
<g id="a_node30"><a xlink:href="d__bg__w_8cpp.html" target="_top" xlink:title=" ">
<polygon fill="white" stroke="black" points="2624,-78.5 2624,-97.5 2731,-97.5 2731,-78.5 2624,-78.5"/>
<text text-anchor="middle" x="2677.5" y="-85.5" font-family="Helvetica,sans-Serif" font-size="10.00">src/d/bg/d_bg_w.cpp</text>
</a>
</g>
</g>
<!-- Node3&#45;&gt;Node49 -->
<g id="edge31" class="edge">
<title>Node3&#45;&gt;Node49</title>
<path fill="none" stroke="midnightblue" d="M2011.77,-159.56C2132.09,-158.57 2396.49,-151.25 2614.5,-109 2628.24,-106.34 2643.2,-101.67 2655.08,-97.51"/>
<polygon fill="midnightblue" stroke="midnightblue" points="2011.6,-156.06 2001.62,-159.63 2011.65,-163.06 2011.6,-156.06"/>
</g>
<!-- Node50 -->
<g id="node31" class="node">
<title>Node50</title>
<g id="a_node31"><a xlink:href="d__cc__s_8cpp.html" target="_top" xlink:title=" ">
<polygon fill="white" stroke="black" points="2749.5,-78.5 2749.5,-97.5 2853.5,-97.5 2853.5,-78.5 2749.5,-78.5"/>
<text text-anchor="middle" x="2801.5" y="-85.5" font-family="Helvetica,sans-Serif" font-size="10.00">src/d/cc/d_cc_s.cpp</text>
</a>
</g>
</g>
<!-- Node3&#45;&gt;Node50 -->
<g id="edge32" class="edge">
<title>Node3&#45;&gt;Node50</title>
<path fill="none" stroke="midnightblue" d="M2012.13,-157.42C2176.15,-151.88 2600.67,-135.39 2739.5,-109 2753.06,-106.42 2767.77,-101.76 2779.46,-97.58"/>
<polygon fill="midnightblue" stroke="midnightblue" points="2011.59,-153.94 2001.71,-157.77 2011.82,-160.93 2011.59,-153.94"/>
</g>
<!-- Node51 -->
<g id="node32" class="node">
<title>Node51</title>
<g id="a_node32"><a xlink:href="d__eye__hl_8cpp.html" target="_top" xlink:title=" ">
<polygon fill="white" stroke="black" points="2871.5,-78.5 2871.5,-97.5 2969.5,-97.5 2969.5,-78.5 2871.5,-78.5"/>
<text text-anchor="middle" x="2920.5" y="-85.5" font-family="Helvetica,sans-Serif" font-size="10.00">src/d/d_eye_hl.cpp</text>
</a>
</g>
</g>
<!-- Node3&#45;&gt;Node51 -->
<g id="edge34" class="edge">
<title>Node3&#45;&gt;Node51</title>
<path fill="none" stroke="midnightblue" d="M2011.74,-158.25C2192.86,-154.39 2699.31,-140.99 2862.5,-109 2875.36,-106.48 2889.25,-101.76 2900.21,-97.54"/>
<polygon fill="midnightblue" stroke="midnightblue" points="2011.49,-154.75 2001.56,-158.46 2011.63,-161.75 2011.49,-154.75"/>
</g>
<!-- Node52 -->
<g id="node33" class="node">
<title>Node52</title>
<g id="a_node33"><a xlink:href="d__kyeff_8cpp.html" target="_top" xlink:title=" ">
<polygon fill="white" stroke="black" points="2987.5,-78.5 2987.5,-97.5 3077.5,-97.5 3077.5,-78.5 2987.5,-78.5"/>
<text text-anchor="middle" x="3032.5" y="-85.5" font-family="Helvetica,sans-Serif" font-size="10.00">src/d/d_kyeff.cpp</text>
</a>
</g>
</g>
<!-- Node3&#45;&gt;Node52 -->
<g id="edge35" class="edge">
<title>Node3&#45;&gt;Node52</title>
<path fill="none" stroke="midnightblue" d="M2011.77,-158.91C2208.32,-156.71 2792.47,-147.06 2978.5,-109 2990.45,-106.56 3003.27,-101.9 3013.42,-97.69"/>
<polygon fill="midnightblue" stroke="midnightblue" points="2011.56,-155.41 2001.6,-159.02 2011.63,-162.41 2011.56,-155.41"/>
</g>
<!-- Node53 -->
<g id="node34" class="node">
<title>Node53</title>
<g id="a_node34"><a xlink:href="d__resorce_8cpp.html" target="_top" xlink:title=" ">
<polygon fill="white" stroke="black" points="3095.5,-78.5 3095.5,-97.5 3197.5,-97.5 3197.5,-78.5 3095.5,-78.5"/>
<text text-anchor="middle" x="3146.5" y="-85.5" font-family="Helvetica,sans-Serif" font-size="10.00">src/d/d_resorce.cpp</text>
</a>
</g>
</g>
<!-- Node3&#45;&gt;Node53 -->
<g id="edge36" class="edge">
<title>Node3&#45;&gt;Node53</title>
<path fill="none" stroke="midnightblue" d="M2011.98,-158.98C2222.16,-156.94 2878.17,-147.56 3086.5,-109 3099.78,-106.54 3114.15,-101.83 3125.5,-97.6"/>
<polygon fill="midnightblue" stroke="midnightblue" points="2011.69,-155.48 2001.72,-159.08 2011.75,-162.48 2011.69,-155.48"/>
</g>
<!-- Node54 -->
<g id="node35" class="node">
<title>Node54</title>
<g id="a_node35"><a xlink:href="d__simple__model_8cpp.html" target="_top" xlink:title=" ">
<polygon fill="white" stroke="black" points="3215.5,-78.5 3215.5,-97.5 3345.5,-97.5 3345.5,-78.5 3215.5,-78.5"/>
<text text-anchor="middle" x="3280.5" y="-85.5" font-family="Helvetica,sans-Serif" font-size="10.00">src/d/d_simple_model.cpp</text>
</a>
</g>
</g>
<!-- Node3&#45;&gt;Node54 -->
<g id="edge37" class="edge">
<title>Node3&#45;&gt;Node54</title>
<path fill="none" stroke="midnightblue" d="M2011.84,-158.81C2235.97,-156.15 2972.71,-144.81 3206.5,-109 3222.68,-106.52 3240.4,-101.81 3254.43,-97.58"/>
<polygon fill="midnightblue" stroke="midnightblue" points="2011.51,-155.31 2001.55,-158.93 2011.59,-162.31 2011.51,-155.31"/>
</g>
<!-- Node55 -->
<g id="node36" class="node">
<title>Node55</title>
<g id="a_node36"><a xlink:href="d__stage_8cpp.html" target="_top" xlink:title=" ">
<polygon fill="white" stroke="black" points="3363.5,-78.5 3363.5,-97.5 3457.5,-97.5 3457.5,-78.5 3363.5,-78.5"/>
<text text-anchor="middle" x="3410.5" y="-85.5" font-family="Helvetica,sans-Serif" font-size="10.00">src/d/d_stage.cpp</text>
</a>
</g>
</g>
<!-- Node3&#45;&gt;Node55 -->
<g id="edge38" class="edge">
<title>Node3&#45;&gt;Node55</title>
<path fill="none" stroke="midnightblue" d="M2011.84,-159.81C2252.95,-160.53 3092.22,-159.29 3354.5,-109 3367.07,-106.59 3380.6,-101.82 3391.22,-97.55"/>
<polygon fill="midnightblue" stroke="midnightblue" points="2011.84,-156.31 2001.83,-159.78 2011.82,-163.31 2011.84,-156.31"/>
</g>
<!-- Node56 -->
<g id="node37" class="node">
<title>Node56</title>
<g id="a_node37"><a xlink:href="d__timer_8cpp.html" target="_top" xlink:title=" ">
<polygon fill="white" stroke="black" points="3475.5,-78.5 3475.5,-97.5 3567.5,-97.5 3567.5,-78.5 3475.5,-78.5"/>
<text text-anchor="middle" x="3521.5" y="-85.5" font-family="Helvetica,sans-Serif" font-size="10.00">src/d/d_timer.cpp</text>
</a>
</g>
</g>
<!-- Node3&#45;&gt;Node56 -->
<g id="edge39" class="edge">
<title>Node3&#45;&gt;Node56</title>
<path fill="none" stroke="midnightblue" d="M2011.67,-158.54C2283.88,-154.39 3322.53,-136.84 3466.5,-109 3478.87,-106.61 3492.16,-101.84 3502.58,-97.56"/>
<polygon fill="midnightblue" stroke="midnightblue" points="2011.5,-155.05 2001.55,-158.7 2011.61,-162.05 2011.5,-155.05"/>
</g>
<!-- Node57 -->
<g id="node38" class="node">
<title>Node57</title>
<g id="a_node38"><a xlink:href="d__tresure_8cpp.html" target="_top" xlink:title=" ">
<polygon fill="white" stroke="black" points="3585.5,-78.5 3585.5,-97.5 3685.5,-97.5 3685.5,-78.5 3585.5,-78.5"/>
<text text-anchor="middle" x="3635.5" y="-85.5" font-family="Helvetica,sans-Serif" font-size="10.00">src/d/d_tresure.cpp</text>
</a>
</g>
</g>
<!-- Node3&#45;&gt;Node57 -->
<g id="edge40" class="edge">
<title>Node3&#45;&gt;Node57</title>
<path fill="none" stroke="midnightblue" d="M2012.1,-158.61C2297.18,-154.6 3421.01,-137.12 3576.5,-109 3589.7,-106.61 3603.95,-101.85 3615.14,-97.57"/>
<polygon fill="midnightblue" stroke="midnightblue" points="2011.87,-155.11 2001.92,-158.75 2011.97,-162.11 2011.87,-155.11"/>
</g>
<!-- Node58 -->
<g id="node39" class="node">
<title>Node58</title>
<g id="a_node39"><a xlink:href="d__event_8cpp.html" target="_top" xlink:title=" ">
<polygon fill="white" stroke="black" points="3704,-78.5 3704,-97.5 3825,-97.5 3825,-78.5 3704,-78.5"/>
<text text-anchor="middle" x="3764.5" y="-85.5" font-family="Helvetica,sans-Serif" font-size="10.00">src/d/event/d_event.cpp</text>
</a>
</g>
</g>
<!-- Node3&#45;&gt;Node58 -->
<g id="edge41" class="edge">
<title>Node3&#45;&gt;Node58</title>
<path fill="none" stroke="midnightblue" d="M2012.19,-159.79C2288.94,-160.67 3361.07,-160.62 3694.5,-109 3709.99,-106.6 3726.9,-101.83 3740.21,-97.56"/>
<polygon fill="midnightblue" stroke="midnightblue" points="2011.92,-156.29 2001.91,-159.75 2011.9,-163.29 2011.92,-156.29"/>
</g>
<!-- Node59 -->
<g id="node40" class="node">
<title>Node59</title>
<g id="a_node40"><a xlink:href="d__event__data_8cpp.html" target="_top" xlink:title=" ">
<polygon fill="white" stroke="black" points="3843,-73 3843,-103 3946,-103 3946,-73 3843,-73"/>
<text text-anchor="start" x="3851" y="-91" font-family="Helvetica,sans-Serif" font-size="10.00">src/d/event/d_event</text>
<text text-anchor="middle" x="3894.5" y="-80" font-family="Helvetica,sans-Serif" font-size="10.00">_data.cpp</text>
</a>
</g>
</g>
<!-- Node3&#45;&gt;Node59 -->
<g id="edge42" class="edge">
<title>Node3&#45;&gt;Node59</title>
<path fill="none" stroke="midnightblue" d="M2011.95,-158.87C2323.78,-155.73 3651.32,-140.61 3833.5,-109 3841.41,-107.63 3849.69,-105.45 3857.51,-103.02"/>
<polygon fill="midnightblue" stroke="midnightblue" points="2011.68,-155.38 2001.72,-158.98 2011.75,-162.38 2011.68,-155.38"/>
</g>
<!-- Node60 -->
<g id="node41" class="node">
<title>Node60</title>
<g id="a_node41"><a xlink:href="d__event__manager_8cpp.html" target="_top" xlink:title=" ">
<polygon fill="white" stroke="black" points="4392,-73 4392,-103 4495,-103 4495,-73 4392,-73"/>
<text text-anchor="start" x="4400" y="-91" font-family="Helvetica,sans-Serif" font-size="10.00">src/d/event/d_event</text>
<text text-anchor="middle" x="4443.5" y="-80" font-family="Helvetica,sans-Serif" font-size="10.00">_manager.cpp</text>
</a>
</g>
</g>
<!-- Node3&#45;&gt;Node60 -->
<g id="edge43" class="edge">
<title>Node3&#45;&gt;Node60</title>
<path fill="none" stroke="midnightblue" d="M2011.8,-159.3C2375.48,-158.02 4143.27,-149.76 4382.5,-109 4390.41,-107.65 4398.7,-105.48 4406.52,-103.05"/>
<polygon fill="midnightblue" stroke="midnightblue" points="2011.69,-155.8 2001.71,-159.33 2011.72,-162.8 2011.69,-155.8"/>
</g>
<!-- Node61 -->
<g id="node42" class="node">
<title>Node61</title>
<g id="a_node42"><a xlink:href="d__kankyo__wether_8cpp.html" target="_top" xlink:title=" ">
<polygon fill="white" stroke="black" points="3964.5,-73 3964.5,-103 4080.5,-103 4080.5,-73 3964.5,-73"/>
<text text-anchor="start" x="3972.5" y="-91" font-family="Helvetica,sans-Serif" font-size="10.00">src/d/kankyo/d_kankyo</text>
<text text-anchor="middle" x="4022.5" y="-80" font-family="Helvetica,sans-Serif" font-size="10.00">_wether.cpp</text>
</a>
</g>
</g>
<!-- Node3&#45;&gt;Node61 -->
<g id="edge45" class="edge">
<title>Node3&#45;&gt;Node61</title>
<path fill="none" stroke="midnightblue" d="M2011.87,-158.87C2335.6,-155.61 3759.28,-139.62 3954.5,-109 3963.25,-107.63 3972.46,-105.44 3981.18,-103.02"/>
<polygon fill="midnightblue" stroke="midnightblue" points="2011.68,-155.37 2001.72,-158.97 2011.75,-162.37 2011.68,-155.37"/>
</g>
<!-- Node62 -->
<g id="node43" class="node">
<title>Node62</title>
<g id="a_node43"><a xlink:href="d__map__path__dmap_8cpp.html" target="_top" xlink:title=" ">
<polygon fill="white" stroke="black" points="4098.5,-73 4098.5,-103 4214.5,-103 4214.5,-73 4098.5,-73"/>
<text text-anchor="start" x="4106.5" y="-91" font-family="Helvetica,sans-Serif" font-size="10.00">src/d/map/d_map_path</text>
<text text-anchor="middle" x="4156.5" y="-80" font-family="Helvetica,sans-Serif" font-size="10.00">_dmap.cpp</text>
</a>
</g>
</g>
<!-- Node3&#45;&gt;Node62 -->
<g id="edge46" class="edge">
<title>Node3&#45;&gt;Node62</title>
<path fill="none" stroke="midnightblue" d="M2011.59,-159C2347.81,-156.27 3880.25,-142.09 4089.5,-109 4098.13,-107.63 4107.21,-105.46 4115.8,-103.03"/>
<polygon fill="midnightblue" stroke="midnightblue" points="2011.5,-155.5 2001.53,-159.08 2011.56,-162.5 2011.5,-155.5"/>
</g>
<!-- Node63 -->
<g id="node44" class="node">
<title>Node63</title>
<g id="a_node44"><a xlink:href="d__menu__window__HIO_8cpp.html" target="_top" xlink:title=" ">
<polygon fill="white" stroke="black" points="4233,-73 4233,-103 4374,-103 4374,-73 4233,-73"/>
<text text-anchor="start" x="4241" y="-91" font-family="Helvetica,sans-Serif" font-size="10.00">src/d/menu/d_menu_window</text>
<text text-anchor="middle" x="4303.5" y="-80" font-family="Helvetica,sans-Serif" font-size="10.00">_HIO.cpp</text>
</a>
</g>
</g>
<!-- Node3&#45;&gt;Node63 -->
<g id="edge48" class="edge">
<title>Node3&#45;&gt;Node63</title>
<path fill="none" stroke="midnightblue" d="M2011.92,-158.92C2361.3,-155.7 3999.63,-139.08 4223.5,-109 4233.72,-107.63 4244.51,-105.44 4254.76,-103.02"/>
<polygon fill="midnightblue" stroke="midnightblue" points="2011.69,-155.42 2001.72,-159.01 2011.75,-162.42 2011.69,-155.42"/>
</g>
<!-- Node11&#45;&gt;Node12 -->
<g id="edge6" class="edge">
<title>Node11&#45;&gt;Node12</title>
<path fill="none" stroke="midnightblue" d="M336.93,-71.09C325.01,-58.91 308.73,-42.27 297.28,-30.58"/>
<polygon fill="midnightblue" stroke="midnightblue" points="334.54,-73.66 344.04,-78.36 339.55,-68.76 334.54,-73.66"/>
</g>
<!-- Node11&#45;&gt;Node6 -->
<g id="edge7" class="edge">
<title>Node11&#45;&gt;Node6</title>
<path fill="none" stroke="midnightblue" d="M369.54,-71.19C384.85,-56.99 406.76,-36.67 419.1,-25.22"/>
<polygon fill="midnightblue" stroke="midnightblue" points="366.77,-68.99 361.82,-78.36 371.53,-74.12 366.77,-68.99"/>
</g>
<!-- Node15&#45;&gt;Node17 -->
<g id="edge9" class="edge">
<title>Node15&#45;&gt;Node17</title>
<path fill="none" stroke="midnightblue" d="M531.07,-65.96C543.91,-54.5 559.45,-40.64 570.81,-30.5"/>
<polygon fill="midnightblue" stroke="midnightblue" points="528.62,-63.46 523.49,-72.73 533.28,-68.69 528.62,-63.46"/>
</g>
<!-- Node34&#45;&gt;Node6 -->
<g id="edge20" class="edge">
<title>Node34&#45;&gt;Node6</title>
<path fill="none" stroke="midnightblue" d="M1149.3,-72.88C1137.12,-70.62 1124.46,-68.53 1112.5,-67 851.92,-33.65 783.71,-59.06 522.5,-31 508.05,-29.45 492.43,-27.25 478.15,-25.03"/>
<polygon fill="midnightblue" stroke="midnightblue" points="1148.92,-76.37 1159.4,-74.81 1150.23,-69.5 1148.92,-76.37"/>
</g>
<!-- Node34&#45;&gt;Node17 -->
<g id="edge17" class="edge">
<title>Node34&#45;&gt;Node17</title>
<path fill="none" stroke="midnightblue" d="M1149.26,-73.22C1137.08,-70.93 1124.43,-68.74 1112.5,-67 941.6,-42.1 737.62,-26.51 641.61,-20.01"/>
<polygon fill="midnightblue" stroke="midnightblue" points="1148.87,-76.71 1159.35,-75.16 1150.19,-69.84 1148.87,-76.71"/>
</g>
<!-- Node34&#45;&gt;Node35 -->
<g id="edge15" class="edge">
<title>Node34&#45;&gt;Node35</title>
<path fill="none" stroke="midnightblue" d="M1168.91,-69.24C1132.62,-55.11 1083.42,-35.94 1055.41,-25.03"/>
<polygon fill="midnightblue" stroke="midnightblue" points="1167.72,-72.53 1178.31,-72.9 1170.26,-66.01 1167.72,-72.53"/>
</g>
<!-- Node34&#45;&gt;Node29 -->
<g id="edge16" class="edge">
<title>Node34&#45;&gt;Node29</title>
<path fill="none" stroke="midnightblue" d="M1209.05,-62.98C1206.11,-50.01 1202.65,-34.79 1200.52,-25.39"/>
<polygon fill="midnightblue" stroke="midnightblue" points="1205.64,-63.76 1211.26,-72.73 1212.46,-62.21 1205.64,-63.76"/>
</g>
<!-- Node34&#45;&gt;Node31 -->
<g id="edge18" class="edge">
<title>Node34&#45;&gt;Node31</title>
<path fill="none" stroke="midnightblue" d="M1251,-68.22C1273.99,-56.39 1303.16,-41.37 1324.15,-30.57"/>
<polygon fill="midnightblue" stroke="midnightblue" points="1249.18,-65.21 1241.89,-72.9 1252.39,-71.44 1249.18,-65.21"/>
</g>
<!-- Node34&#45;&gt;Node30 -->
<g id="edge19" class="edge">
<title>Node34&#45;&gt;Node30</title>
<path fill="none" stroke="midnightblue" d="M1276.5,-70.32C1321.43,-58.23 1381.52,-42.06 1424.07,-30.61"/>
<polygon fill="midnightblue" stroke="midnightblue" points="1275.32,-67.01 1266.58,-72.99 1277.14,-73.77 1275.32,-67.01"/>
</g>
<!-- Node40&#45;&gt;Node41 -->
<g id="edge23" class="edge">
<title>Node40&#45;&gt;Node41</title>
<path fill="none" stroke="midnightblue" d="M1623.83,-75.54C1635.36,-72.18 1648.37,-68.89 1660.5,-67 1930.61,-24.84 2790.01,-17.86 3033.59,-16.72"/>
<polygon fill="midnightblue" stroke="midnightblue" points="1622.7,-72.23 1614.15,-78.48 1624.74,-78.92 1622.7,-72.23"/>
</g>
<!-- Node74&#45;&gt;Node60 -->
<g id="edge55" class="edge">
<title>Node74&#45;&gt;Node60</title>
<path fill="none" stroke="midnightblue" d="M4256.47,-148.02C4289.75,-137.91 4339.4,-122.7 4382.5,-109 4388.45,-107.11 4394.71,-105.09 4400.87,-103.09"/>
<polygon fill="midnightblue" stroke="midnightblue" points="4255.25,-144.73 4246.7,-150.99 4257.28,-151.43 4255.25,-144.73"/>
</g>
<!-- Node76&#45;&gt;Node41 -->
<g id="edge57" class="edge">
<title>Node76&#45;&gt;Node41</title>
<path fill="none" stroke="midnightblue" d="M4409.34,-148.5C4446.33,-139.21 4492.22,-124.9 4503.5,-109 4514.3,-93.77 4516.46,-80.43 4503.5,-67 4456.45,-18.23 3433.28,-16.07 3163.32,-16.36"/>
<polygon fill="midnightblue" stroke="midnightblue" points="4408.06,-145.21 4399.18,-150.99 4409.72,-152.01 4408.06,-145.21"/>
</g>
</g>
</svg>
