<?xml version="1.0" encoding="UTF-8" standalone="no"?>
<!DOCTYPE svg PUBLIC "-//W3C//DTD SVG 1.1//EN"
 "http://www.w3.org/Graphics/SVG/1.1/DTD/svg11.dtd">
<!-- Generated by graphviz version 2.50.0 (20220203.2022)
 -->
<!-- Title: include/f_op/f_op_msg_mng.h Pages: 1 -->
<svg width="584pt" height="95pt"
 viewBox="0.00 0.00 584.00 95.00" xmlns="http://www.w3.org/2000/svg" xmlns:xlink="http://www.w3.org/1999/xlink">
<g id="graph0" class="graph" transform="scale(1 1) rotate(0) translate(4 91)">
<title>include/f_op/f_op_msg_mng.h</title>
<polygon fill="white" stroke="transparent" points="-4,4 -4,-91 580,-91 580,4 -4,4"/>
<!-- Node1 -->
<g id="node1" class="node">
<title>Node1</title>
<g id="a_node1"><a xlink:title=" ">
<polygon fill="#bfbfbf" stroke="black" points="215.5,-56.5 215.5,-86.5 330.5,-86.5 330.5,-56.5 215.5,-56.5"/>
<text text-anchor="start" x="223.5" y="-74.5" font-family="Helvetica,sans-Serif" font-size="10.00">include/f_op/f_op_msg</text>
<text text-anchor="middle" x="273" y="-63.5" font-family="Helvetica,sans-Serif" font-size="10.00">_mng.h</text>
</a>
</g>
</g>
<!-- Node2 -->
<g id="node2" class="node">
<title>Node2</title>
<g id="a_node2"><a xlink:href="d__stage_8cpp.html" target="_top" xlink:title=" ">
<polygon fill="white" stroke="black" points="0,-0.5 0,-19.5 94,-19.5 94,-0.5 0,-0.5"/>
<text text-anchor="middle" x="47" y="-7.5" font-family="Helvetica,sans-Serif" font-size="10.00">src/d/d_stage.cpp</text>
</a>
</g>
</g>
<!-- Node1&#45;&gt;Node2 -->
<g id="edge1" class="edge">
<title>Node1&#45;&gt;Node2</title>
<path fill="none" stroke="midnightblue" d="M210.03,-53.92C167.56,-42.74 113.27,-28.45 79.31,-19.51"/>
<polygon fill="midnightblue" stroke="midnightblue" points="209.17,-57.31 219.73,-56.47 210.95,-50.54 209.17,-57.31"/>
</g>
<!-- Node3 -->
<g id="node3" class="node">
<title>Node3</title>
<g id="a_node3"><a xlink:href="d__menu__window_8cpp.html" target="_top" xlink:title=" ">
<polygon fill="white" stroke="black" points="112.5,-0.5 112.5,-19.5 271.5,-19.5 271.5,-0.5 112.5,-0.5"/>
<text text-anchor="middle" x="192" y="-7.5" font-family="Helvetica,sans-Serif" font-size="10.00">src/d/menu/d_menu_window.cpp</text>
</a>
</g>
</g>
<!-- Node1&#45;&gt;Node3 -->
<g id="edge2" class="edge">
<title>Node1&#45;&gt;Node3</title>
<path fill="none" stroke="midnightblue" d="M245.35,-50.19C231.17,-39.77 214.64,-27.63 203.79,-19.66"/>
<polygon fill="midnightblue" stroke="midnightblue" points="243.67,-53.3 253.8,-56.4 247.82,-47.66 243.67,-53.3"/>
</g>
<!-- Node4 -->
<g id="node4" class="node">
<title>Node4</title>
<g id="a_node4"><a xlink:href="d__meter2_8cpp.html" target="_top" xlink:title=" ">
<polygon fill="white" stroke="black" points="290,-0.5 290,-19.5 418,-19.5 418,-0.5 290,-0.5"/>
<text text-anchor="middle" x="354" y="-7.5" font-family="Helvetica,sans-Serif" font-size="10.00">src/d/meter/d_meter2.cpp</text>
</a>
</g>
</g>
<!-- Node1&#45;&gt;Node4 -->
<g id="edge3" class="edge">
<title>Node1&#45;&gt;Node4</title>
<path fill="none" stroke="midnightblue" d="M300.65,-50.19C314.83,-39.77 331.36,-27.63 342.21,-19.66"/>
<polygon fill="midnightblue" stroke="midnightblue" points="298.18,-47.66 292.2,-56.4 302.33,-53.3 298.18,-47.66"/>
</g>
<!-- Node5 -->
<g id="node5" class="node">
<title>Node5</title>
<g id="a_node5"><a xlink:href="f__op__msg__mng_8cpp.html" target="_top" xlink:title=" ">
<polygon fill="white" stroke="black" points="436,-0.5 436,-19.5 576,-19.5 576,-0.5 436,-0.5"/>
<text text-anchor="middle" x="506" y="-7.5" font-family="Helvetica,sans-Serif" font-size="10.00">src/f_op/f_op_msg_mng.cpp</text>
</a>
</g>
</g>
<!-- Node1&#45;&gt;Node5 -->
<g id="edge4" class="edge">
<title>Node1&#45;&gt;Node5</title>
<path fill="none" stroke="midnightblue" d="M337.64,-53.99C381.47,-42.8 437.6,-28.47 472.69,-19.51"/>
<polygon fill="midnightblue" stroke="midnightblue" points="336.75,-50.61 327.92,-56.47 338.48,-57.39 336.75,-50.61"/>
</g>
</g>
</svg>
