<?xml version="1.0" encoding="UTF-8" standalone="no"?>
<!DOCTYPE svg PUBLIC "-//W3C//DTD SVG 1.1//EN"
 "http://www.w3.org/Graphics/SVG/1.1/DTD/svg11.dtd">
<!-- Generated by graphviz version 3.0.0 (20220413.0242)
 -->
<!-- Title: include/f_pc/f_pc_node.h Pages: 1 -->
<svg width="2239pt" height="475pt"
 viewBox="0.00 0.00 2238.50 475.00" xmlns="http://www.w3.org/2000/svg" xmlns:xlink="http://www.w3.org/1999/xlink">
<g id="graph0" class="graph" transform="scale(1 1) rotate(0) translate(4 471)">
<title>include/f_pc/f_pc_node.h</title>
<polygon fill="white" stroke="transparent" points="-4,4 -4,-471 2234.5,-471 2234.5,4 -4,4"/>
<!-- Node1 -->
<g id="node1" class="node">
<title>Node1</title>
<g id="a_node1"><a xlink:title=" ">
<polygon fill="#bfbfbf" stroke="black" points="1271,-447.5 1271,-466.5 1396,-466.5 1396,-447.5 1271,-447.5"/>
<text text-anchor="middle" x="1333.5" y="-454.5" font-family="Helvetica,sans-Serif" font-size="10.00">include/f_pc/f_pc_node.h</text>
</a>
</g>
</g>
<!-- Node2 -->
<g id="node2" class="node">
<title>Node2</title>
<g id="a_node2"><a xlink:href="f__op__scene_8h.html" target="_top" xlink:title=" ">
<polygon fill="white" stroke="black" points="246.5,-319 246.5,-338 376.5,-338 376.5,-319 246.5,-319"/>
<text text-anchor="middle" x="311.5" y="-326" font-family="Helvetica,sans-Serif" font-size="10.00">include/f_op/f_op_scene.h</text>
</a>
</g>
</g>
<!-- Node1&#45;&gt;Node2 -->
<g id="edge1" class="edge">
<title>Node1&#45;&gt;Node2</title>
<path fill="none" stroke="midnightblue" d="M1260.82,-454.28C1093.99,-449.94 687.69,-436.98 553.5,-411 468.19,-394.48 371.66,-355.48 331.09,-338.11"/>
<polygon fill="midnightblue" stroke="midnightblue" points="1260.89,-457.79 1270.97,-454.54 1261.07,-450.79 1260.89,-457.79"/>
</g>
<!-- Node107 -->
<g id="node25" class="node">
<title>Node107</title>
<g id="a_node25"><a xlink:href="f__op__scene__tag_8h.html" target="_top" xlink:title=" ">
<polygon fill="white" stroke="black" points="182.5,-380.5 182.5,-410.5 304.5,-410.5 304.5,-380.5 182.5,-380.5"/>
<text text-anchor="start" x="190.5" y="-398.5" font-family="Helvetica,sans-Serif" font-size="10.00">include/f_op/f_op_scene</text>
<text text-anchor="middle" x="243.5" y="-387.5" font-family="Helvetica,sans-Serif" font-size="10.00">_tag.h</text>
</a>
</g>
</g>
<!-- Node1&#45;&gt;Node107 -->
<g id="edge32" class="edge">
<title>Node1&#45;&gt;Node107</title>
<path fill="none" stroke="midnightblue" d="M1260.74,-452.72C1110.07,-445.83 752.98,-428.99 453.5,-411 403.34,-407.99 346.48,-404.03 304.59,-401.01"/>
<polygon fill="midnightblue" stroke="midnightblue" points="1260.64,-456.22 1270.79,-453.18 1260.96,-449.23 1260.64,-456.22"/>
</g>
<!-- Node110 -->
<g id="node28" class="node">
<title>Node110</title>
<g id="a_node28"><a xlink:href="f__pc__node__req_8h.html" target="_top" xlink:title=" ">
<polygon fill="white" stroke="black" points="563,-380.5 563,-410.5 680,-410.5 680,-380.5 563,-380.5"/>
<text text-anchor="start" x="571" y="-398.5" font-family="Helvetica,sans-Serif" font-size="10.00">include/f_pc/f_pc_node</text>
<text text-anchor="middle" x="621.5" y="-387.5" font-family="Helvetica,sans-Serif" font-size="10.00">_req.h</text>
</a>
</g>
</g>
<!-- Node1&#45;&gt;Node110 -->
<g id="edge36" class="edge">
<title>Node1&#45;&gt;Node110</title>
<path fill="none" stroke="midnightblue" d="M1260.63,-449.91C1119.09,-438.08 809.53,-412.21 680.15,-401.4"/>
<polygon fill="midnightblue" stroke="midnightblue" points="1260.68,-453.43 1270.94,-450.77 1261.27,-446.45 1260.68,-453.43"/>
</g>
<!-- Node131 -->
<g id="node34" class="node">
<title>Node131</title>
<g id="a_node34"><a xlink:href="f__pc__pause_8h.html" target="_top" xlink:title=" ">
<polygon fill="white" stroke="black" points="1062.5,-386 1062.5,-405 1192.5,-405 1192.5,-386 1062.5,-386"/>
<text text-anchor="middle" x="1127.5" y="-393" font-family="Helvetica,sans-Serif" font-size="10.00">include/f_pc/f_pc_pause.h</text>
</a>
</g>
</g>
<!-- Node1&#45;&gt;Node131 -->
<g id="edge50" class="edge">
<title>Node1&#45;&gt;Node131</title>
<path fill="none" stroke="midnightblue" d="M1294.29,-444.68C1254.27,-433.11 1193.04,-415.43 1156.96,-405.01"/>
<polygon fill="midnightblue" stroke="midnightblue" points="1293.41,-448.06 1303.99,-447.48 1295.35,-441.34 1293.41,-448.06"/>
</g>
<!-- Node134 -->
<g id="node37" class="node">
<title>Node134</title>
<g id="a_node37"><a xlink:href="f__pc__executor_8cpp.html" target="_top" xlink:title=" ">
<polygon fill="white" stroke="black" points="1200.5,-319 1200.5,-338 1334.5,-338 1334.5,-319 1200.5,-319"/>
<text text-anchor="middle" x="1267.5" y="-326" font-family="Helvetica,sans-Serif" font-size="10.00">src/f_pc/f_pc_executor.cpp</text>
</a>
</g>
</g>
<!-- Node1&#45;&gt;Node134 -->
<g id="edge70" class="edge">
<title>Node1&#45;&gt;Node134</title>
<path fill="none" stroke="midnightblue" d="M1324.32,-438.4C1309.99,-410.94 1282.84,-358.9 1272.07,-338.26"/>
<polygon fill="midnightblue" stroke="midnightblue" points="1321.23,-440.06 1328.96,-447.31 1327.44,-436.82 1321.23,-440.06"/>
</g>
<!-- Node136 -->
<g id="node39" class="node">
<title>Node136</title>
<g id="a_node39"><a xlink:href="m__Do__dvd__thread_8h.html" target="_top" xlink:title=" ">
<polygon fill="white" stroke="black" points="1319,-380.5 1319,-410.5 1444,-410.5 1444,-380.5 1319,-380.5"/>
<text text-anchor="start" x="1327" y="-398.5" font-family="Helvetica,sans-Serif" font-size="10.00">include/m_Do/m_Do_dvd</text>
<text text-anchor="middle" x="1381.5" y="-387.5" font-family="Helvetica,sans-Serif" font-size="10.00">_thread.h</text>
</a>
</g>
</g>
<!-- Node1&#45;&gt;Node136 -->
<g id="edge56" class="edge">
<title>Node1&#45;&gt;Node136</title>
<path fill="none" stroke="midnightblue" d="M1346.79,-439.53C1354.14,-430.42 1363.18,-419.21 1370.19,-410.52"/>
<polygon fill="midnightblue" stroke="midnightblue" points="1343.93,-437.49 1340.38,-447.48 1349.38,-441.89 1343.93,-437.49"/>
</g>
<!-- Node174 -->
<g id="node47" class="node">
<title>Node174</title>
<g id="a_node47"><a xlink:href="f__pc__deletor_8cpp.html" target="_top" xlink:title=" ">
<polygon fill="white" stroke="black" points="1462.5,-386 1462.5,-405 1588.5,-405 1588.5,-386 1462.5,-386"/>
<text text-anchor="middle" x="1525.5" y="-393" font-family="Helvetica,sans-Serif" font-size="10.00">src/f_pc/f_pc_deletor.cpp</text>
</a>
</g>
</g>
<!-- Node1&#45;&gt;Node174 -->
<g id="edge69" class="edge">
<title>Node1&#45;&gt;Node174</title>
<path fill="none" stroke="midnightblue" d="M1370.99,-444.38C1408.31,-432.82 1464.7,-415.34 1498.04,-405.01"/>
<polygon fill="midnightblue" stroke="midnightblue" points="1369.52,-441.17 1361.01,-447.48 1371.6,-447.86 1369.52,-441.17"/>
</g>
<!-- Node175 -->
<g id="node48" class="node">
<title>Node175</title>
<g id="a_node48"><a xlink:href="f__pc__line_8cpp.html" target="_top" xlink:title=" ">
<polygon fill="white" stroke="black" points="1606.5,-386 1606.5,-405 1718.5,-405 1718.5,-386 1606.5,-386"/>
<text text-anchor="middle" x="1662.5" y="-393" font-family="Helvetica,sans-Serif" font-size="10.00">src/f_pc/f_pc_line.cpp</text>
</a>
</g>
</g>
<!-- Node1&#45;&gt;Node175 -->
<g id="edge71" class="edge">
<title>Node1&#45;&gt;Node175</title>
<path fill="none" stroke="midnightblue" d="M1398.29,-445.89C1451.84,-437.32 1529.78,-424.32 1597.5,-411 1606.69,-409.19 1616.57,-407.08 1625.79,-405.03"/>
<polygon fill="midnightblue" stroke="midnightblue" points="1397.58,-442.46 1388.25,-447.5 1398.68,-449.38 1397.58,-442.46"/>
</g>
<!-- Node176 -->
<g id="node49" class="node">
<title>Node176</title>
<g id="a_node49"><a xlink:href="f__pc__node_8cpp.html" target="_top" xlink:title=" ">
<polygon fill="white" stroke="black" points="1736.5,-386 1736.5,-405 1854.5,-405 1854.5,-386 1736.5,-386"/>
<text text-anchor="middle" x="1795.5" y="-393" font-family="Helvetica,sans-Serif" font-size="10.00">src/f_pc/f_pc_node.cpp</text>
</a>
</g>
</g>
<!-- Node1&#45;&gt;Node176 -->
<g id="edge72" class="edge">
<title>Node1&#45;&gt;Node176</title>
<path fill="none" stroke="midnightblue" d="M1406.56,-449.78C1485.88,-442.53 1616.14,-429.19 1727.5,-411 1737.63,-409.35 1748.52,-407.19 1758.57,-405.05"/>
<polygon fill="midnightblue" stroke="midnightblue" points="1405.84,-446.33 1396.2,-450.72 1406.47,-453.3 1405.84,-446.33"/>
</g>
<!-- Node177 -->
<g id="node50" class="node">
<title>Node177</title>
<g id="a_node50"><a xlink:href="f__pc__stdcreate__req_8cpp.html" target="_top" xlink:title=" ">
<polygon fill="white" stroke="black" points="1873,-380.5 1873,-410.5 1992,-410.5 1992,-380.5 1873,-380.5"/>
<text text-anchor="start" x="1881" y="-398.5" font-family="Helvetica,sans-Serif" font-size="10.00">src/f_pc/f_pc_stdcreate</text>
<text text-anchor="middle" x="1932.5" y="-387.5" font-family="Helvetica,sans-Serif" font-size="10.00">_req.cpp</text>
</a>
</g>
</g>
<!-- Node1&#45;&gt;Node177 -->
<g id="edge73" class="edge">
<title>Node1&#45;&gt;Node177</title>
<path fill="none" stroke="midnightblue" d="M1406.44,-452.64C1508.93,-447.27 1701.19,-434.85 1863.5,-411 1866.53,-410.56 1869.62,-410.06 1872.74,-409.53"/>
<polygon fill="midnightblue" stroke="midnightblue" points="1406.01,-449.15 1396.2,-453.17 1406.37,-456.15 1406.01,-449.15"/>
</g>
<!-- Node3 -->
<g id="node3" class="node">
<title>Node3</title>
<g id="a_node3"><a xlink:href="d__a__alink_8h.html" target="_top" xlink:title=" ">
<polygon fill="white" stroke="black" points="812.5,-185 812.5,-204 928.5,-204 928.5,-185 812.5,-185"/>
<text text-anchor="middle" x="870.5" y="-192" font-family="Helvetica,sans-Serif" font-size="10.00">include/d/a/d_a_alink.h</text>
</a>
</g>
</g>
<!-- Node2&#45;&gt;Node3 -->
<g id="edge2" class="edge">
<title>Node2&#45;&gt;Node3</title>
<path fill="none" stroke="midnightblue" d="M368.97,-317.09C420.19,-307.55 497.12,-292.58 563.5,-277 615.04,-264.9 627.35,-259.62 678.5,-246 734.45,-231.1 799.66,-214.01 837.87,-204.02"/>
<polygon fill="midnightblue" stroke="midnightblue" points="368.27,-313.66 359.07,-318.93 369.55,-320.55 368.27,-313.66"/>
</g>
<!-- Node54 -->
<g id="node5" class="node">
<title>Node54</title>
<g id="a_node5"><a xlink:href="d__s__play_8h.html" target="_top" xlink:title=" ">
<polygon fill="white" stroke="black" points="798,-56.5 798,-75.5 911,-75.5 911,-56.5 798,-56.5"/>
<text text-anchor="middle" x="854.5" y="-63.5" font-family="Helvetica,sans-Serif" font-size="10.00">include/d/s/d_s_play.h</text>
</a>
</g>
</g>
<!-- Node2&#45;&gt;Node54 -->
<g id="edge18" class="edge">
<title>Node2&#45;&gt;Node54</title>
<path fill="none" stroke="midnightblue" d="M300.74,-310.3C276.56,-269.26 224.18,-165.11 279.5,-112 316.36,-76.61 660.02,-69.05 797.78,-67.44"/>
<polygon fill="midnightblue" stroke="midnightblue" points="297.77,-312.15 305.94,-318.89 303.76,-308.52 297.77,-312.15"/>
</g>
<!-- Node87 -->
<g id="node12" class="node">
<title>Node87</title>
<g id="a_node12"><a xlink:href="d__s__room_8cpp.html" target="_top" xlink:title=" ">
<polygon fill="white" stroke="black" points="354.5,-56.5 354.5,-75.5 464.5,-75.5 464.5,-56.5 354.5,-56.5"/>
<text text-anchor="middle" x="409.5" y="-63.5" font-family="Helvetica,sans-Serif" font-size="10.00">src/d/s/d_s_room.cpp</text>
</a>
</g>
</g>
<!-- Node2&#45;&gt;Node87 -->
<g id="edge30" class="edge">
<title>Node2&#45;&gt;Node87</title>
<path fill="none" stroke="midnightblue" d="M262.97,-316.75C205.59,-303.81 117.21,-283.05 112.5,-277 104.04,-266.13 107.42,-258.81 112.5,-246 142.62,-170 168.25,-153.8 238.5,-112 273.98,-90.89 319.38,-79.54 354.49,-73.52"/>
<polygon fill="midnightblue" stroke="midnightblue" points="262.42,-320.21 272.94,-318.99 263.95,-313.38 262.42,-320.21"/>
</g>
<!-- Node97 -->
<g id="node16" class="node">
<title>Node97</title>
<g id="a_node16"><a xlink:href="f__op__scene__pause_8h.html" target="_top" xlink:title=" ">
<polygon fill="white" stroke="black" points="432.5,-246.5 432.5,-276.5 554.5,-276.5 554.5,-246.5 432.5,-246.5"/>
<text text-anchor="start" x="440.5" y="-264.5" font-family="Helvetica,sans-Serif" font-size="10.00">include/f_op/f_op_scene</text>
<text text-anchor="middle" x="493.5" y="-253.5" font-family="Helvetica,sans-Serif" font-size="10.00">_pause.h</text>
</a>
</g>
</g>
<!-- Node2&#45;&gt;Node97 -->
<g id="edge19" class="edge">
<title>Node2&#45;&gt;Node97</title>
<path fill="none" stroke="midnightblue" d="M345.13,-315.49C375.98,-304.47 421.7,-288.14 454.22,-276.53"/>
<polygon fill="midnightblue" stroke="midnightblue" points="343.91,-312.21 335.67,-318.87 346.26,-318.8 343.91,-312.21"/>
</g>
<!-- Node106 -->
<g id="node24" class="node">
<title>Node106</title>
<g id="a_node24"><a xlink:href="f__op__scene_8cpp.html" target="_top" xlink:title=" ">
<polygon fill="white" stroke="black" points="122,-252 122,-271 245,-271 245,-252 122,-252"/>
<text text-anchor="middle" x="183.5" y="-259" font-family="Helvetica,sans-Serif" font-size="10.00">src/f_op/f_op_scene.cpp</text>
</a>
</g>
</g>
<!-- Node2&#45;&gt;Node106 -->
<g id="edge31" class="edge">
<title>Node2&#45;&gt;Node106</title>
<path fill="none" stroke="midnightblue" d="M285.45,-314.27C260.1,-301.4 222.31,-282.21 200.57,-271.17"/>
<polygon fill="midnightblue" stroke="midnightblue" points="284,-317.46 294.5,-318.87 287.17,-311.22 284,-317.46"/>
</g>
<!-- Node4 -->
<g id="node4" class="node">
<title>Node4</title>
<g id="a_node4"><a xlink:href="d__com__inf__game_8h.html" target="_top" xlink:title=" ">
<polygon fill="white" stroke="red" points="1120.5,-112.5 1120.5,-142.5 1230.5,-142.5 1230.5,-112.5 1120.5,-112.5"/>
<text text-anchor="start" x="1128.5" y="-130.5" font-family="Helvetica,sans-Serif" font-size="10.00">include/d/com/d_com</text>
<text text-anchor="middle" x="1175.5" y="-119.5" font-family="Helvetica,sans-Serif" font-size="10.00">_inf_game.h</text>
</a>
</g>
</g>
<!-- Node3&#45;&gt;Node4 -->
<g id="edge3" class="edge">
<title>Node3&#45;&gt;Node4</title>
<path fill="none" stroke="midnightblue" d="M922.35,-182.89C971.19,-172.83 1046.38,-157.2 1111.5,-143 1114.39,-142.37 1117.36,-141.72 1120.35,-141.05"/>
<polygon fill="midnightblue" stroke="midnightblue" points="921.43,-179.5 912.34,-184.95 922.84,-186.36 921.43,-179.5"/>
</g>
<!-- Node14 -->
<g id="node11" class="node">
<title>Node14</title>
<g id="a_node11"><a xlink:href="d__a__alink_8cpp.html" target="_top" xlink:title=" ">
<polygon fill="white" stroke="black" points="929,-56.5 929,-75.5 1038,-75.5 1038,-56.5 929,-56.5"/>
<text text-anchor="middle" x="983.5" y="-63.5" font-family="Helvetica,sans-Serif" font-size="10.00">src/d/a/d_a_alink.cpp</text>
</a>
</g>
</g>
<!-- Node3&#45;&gt;Node14 -->
<g id="edge17" class="edge">
<title>Node3&#45;&gt;Node14</title>
<path fill="none" stroke="midnightblue" d="M883.97,-176.46C897.39,-159.71 918.78,-133.58 938.5,-112 950.42,-98.95 965.02,-84.63 974.29,-75.73"/>
<polygon fill="midnightblue" stroke="midnightblue" points="880.89,-174.71 877.4,-184.72 886.37,-179.07 880.89,-174.71"/>
</g>
<!-- Node4&#45;&gt;Node54 -->
<g id="edge4" class="edge">
<title>Node4&#45;&gt;Node54</title>
<path fill="none" stroke="midnightblue" d="M1110.18,-111.79C1034.38,-96.74 957.64,-83.71 907.8,-75.54"/>
<polygon fill="midnightblue" stroke="midnightblue" points="1109.89,-115.3 1120.38,-113.83 1111.26,-108.44 1109.89,-115.3"/>
</g>
<!-- Node55 -->
<g id="node8" class="node">
<title>Node55</title>
<g id="a_node8"><a xlink:href="f__op__actor_8cpp.html" target="_top" xlink:title=" ">
<polygon fill="white" stroke="black" points="974,-0.5 974,-19.5 1093,-19.5 1093,-0.5 974,-0.5"/>
<text text-anchor="middle" x="1033.5" y="-7.5" font-family="Helvetica,sans-Serif" font-size="10.00">src/f_op/f_op_actor.cpp</text>
</a>
</g>
</g>
<!-- Node4&#45;&gt;Node55 -->
<g id="edge12" class="edge">
<title>Node4&#45;&gt;Node55</title>
<path fill="none" stroke="midnightblue" d="M1150.19,-105.91C1118.74,-80.33 1066.49,-37.84 1044.16,-19.67"/>
<polygon fill="midnightblue" stroke="midnightblue" points="1148.12,-108.74 1158.09,-112.34 1152.54,-103.31 1148.12,-108.74"/>
</g>
<!-- Node56 -->
<g id="node9" class="node">
<title>Node56</title>
<g id="a_node9"><a xlink:href="f__op__camera_8cpp.html" target="_top" xlink:title=" ">
<polygon fill="white" stroke="black" points="1111,-0.5 1111,-19.5 1240,-19.5 1240,-0.5 1111,-0.5"/>
<text text-anchor="middle" x="1175.5" y="-7.5" font-family="Helvetica,sans-Serif" font-size="10.00">src/f_op/f_op_camera.cpp</text>
</a>
</g>
</g>
<!-- Node4&#45;&gt;Node56 -->
<g id="edge13" class="edge">
<title>Node4&#45;&gt;Node56</title>
<path fill="none" stroke="midnightblue" d="M1170.37,-102.47C1168.06,-88.85 1166.13,-71.49 1167.5,-56 1168.63,-43.2 1171.53,-28.58 1173.51,-19.57"/>
<polygon fill="midnightblue" stroke="midnightblue" points="1166.96,-103.29 1172.24,-112.48 1173.84,-102 1166.96,-103.29"/>
</g>
<!-- Node4&#45;&gt;Node14 -->
<g id="edge10" class="edge">
<title>Node4&#45;&gt;Node14</title>
<path fill="none" stroke="midnightblue" d="M1120.19,-109.36C1084.48,-98.29 1039.54,-84.37 1011.16,-75.57"/>
<polygon fill="midnightblue" stroke="midnightblue" points="1119.41,-112.78 1130,-112.4 1121.48,-106.1 1119.41,-112.78"/>
</g>
<!-- Node4&#45;&gt;Node87 -->
<g id="edge11" class="edge">
<title>Node4&#45;&gt;Node87</title>
<path fill="none" stroke="midnightblue" d="M1110.25,-111.98C864.62,-77.27 582.22,-69.42 464.87,-67.57"/>
<polygon fill="midnightblue" stroke="midnightblue" points="1110.05,-115.49 1120.45,-113.44 1111.04,-108.56 1110.05,-115.49"/>
</g>
<!-- Node91 -->
<g id="node13" class="node">
<title>Node91</title>
<g id="a_node13"><a xlink:href="f__pc__manager_8cpp.html" target="_top" xlink:title=" ">
<polygon fill="white" stroke="black" points="1328.5,-56.5 1328.5,-75.5 1462.5,-75.5 1462.5,-56.5 1328.5,-56.5"/>
<text text-anchor="middle" x="1395.5" y="-63.5" font-family="Helvetica,sans-Serif" font-size="10.00">src/f_pc/f_pc_manager.cpp</text>
</a>
</g>
</g>
<!-- Node4&#45;&gt;Node91 -->
<g id="edge14" class="edge">
<title>Node4&#45;&gt;Node91</title>
<path fill="none" stroke="midnightblue" d="M1237.06,-109.85C1278.36,-98.68 1331.06,-84.43 1364.05,-75.51"/>
<polygon fill="midnightblue" stroke="midnightblue" points="1236.1,-106.49 1227.36,-112.47 1237.93,-113.24 1236.1,-106.49"/>
</g>
<!-- Node93 -->
<g id="node14" class="node">
<title>Node93</title>
<g id="a_node14"><a xlink:href="m__Do__audio_8cpp.html" target="_top" xlink:title=" ">
<polygon fill="white" stroke="black" points="1176.5,-56.5 1176.5,-75.5 1310.5,-75.5 1310.5,-56.5 1176.5,-56.5"/>
<text text-anchor="middle" x="1243.5" y="-63.5" font-family="Helvetica,sans-Serif" font-size="10.00">src/m_Do/m_Do_audio.cpp</text>
</a>
</g>
</g>
<!-- Node4&#45;&gt;Node93 -->
<g id="edge15" class="edge">
<title>Node4&#45;&gt;Node93</title>
<path fill="none" stroke="midnightblue" d="M1199.39,-105.6C1211.14,-95.32 1224.66,-83.48 1233.61,-75.66"/>
<polygon fill="midnightblue" stroke="midnightblue" points="1196.84,-103.18 1191.62,-112.4 1201.45,-108.45 1196.84,-103.18"/>
</g>
<!-- Node96 -->
<g id="node15" class="node">
<title>Node96</title>
<g id="a_node15"><a xlink:href="m__Do__main_8cpp.html" target="_top" xlink:title=" ">
<polygon fill="white" stroke="black" points="1609,-56.5 1609,-75.5 1740,-75.5 1740,-56.5 1609,-56.5"/>
<text text-anchor="middle" x="1674.5" y="-63.5" font-family="Helvetica,sans-Serif" font-size="10.00">src/m_Do/m_Do_main.cpp</text>
</a>
</g>
</g>
<!-- Node4&#45;&gt;Node96 -->
<g id="edge16" class="edge">
<title>Node4&#45;&gt;Node96</title>
<path fill="none" stroke="midnightblue" d="M1240.92,-118.7C1336.4,-107.31 1512.97,-86.26 1608.68,-74.85"/>
<polygon fill="midnightblue" stroke="midnightblue" points="1240.32,-115.25 1230.81,-119.91 1241.15,-122.2 1240.32,-115.25"/>
</g>
<!-- Node12 -->
<g id="node6" class="node">
<title>Node12</title>
<g id="a_node6"><a xlink:href="d__cc__uty_8cpp.html" target="_top" xlink:title=" ">
<polygon fill="white" stroke="black" points="709.5,-0.5 709.5,-19.5 821.5,-19.5 821.5,-0.5 709.5,-0.5"/>
<text text-anchor="middle" x="765.5" y="-7.5" font-family="Helvetica,sans-Serif" font-size="10.00">src/d/cc/d_cc_uty.cpp</text>
</a>
</g>
</g>
<!-- Node54&#45;&gt;Node12 -->
<g id="edge5" class="edge">
<title>Node54&#45;&gt;Node12</title>
<path fill="none" stroke="midnightblue" d="M831.26,-50.9C814.94,-41 793.63,-28.07 779.76,-19.65"/>
<polygon fill="midnightblue" stroke="midnightblue" points="829.84,-54.13 840.2,-56.32 833.47,-48.14 829.84,-54.13"/>
</g>
<!-- Node18 -->
<g id="node7" class="node">
<title>Node18</title>
<g id="a_node7"><a xlink:href="d__s__play_8cpp.html" target="_top" xlink:title=" ">
<polygon fill="white" stroke="black" points="585.5,-0.5 585.5,-19.5 691.5,-19.5 691.5,-0.5 585.5,-0.5"/>
<text text-anchor="middle" x="638.5" y="-7.5" font-family="Helvetica,sans-Serif" font-size="10.00">src/d/s/d_s_play.cpp</text>
</a>
</g>
</g>
<!-- Node54&#45;&gt;Node18 -->
<g id="edge6" class="edge">
<title>Node54&#45;&gt;Node18</title>
<path fill="none" stroke="midnightblue" d="M810.34,-53.96C769.54,-43.76 709.79,-28.82 672.57,-19.52"/>
<polygon fill="midnightblue" stroke="midnightblue" points="809.72,-57.41 820.27,-56.44 811.42,-50.62 809.72,-57.41"/>
</g>
<!-- Node54&#45;&gt;Node55 -->
<g id="edge7" class="edge">
<title>Node54&#45;&gt;Node55</title>
<path fill="none" stroke="midnightblue" d="M892.83,-53.44C926.58,-43.26 974.95,-28.66 1005.27,-19.52"/>
<polygon fill="midnightblue" stroke="midnightblue" points="891.43,-50.2 882.86,-56.44 893.45,-56.91 891.43,-50.2"/>
</g>
<!-- Node54&#45;&gt;Node56 -->
<g id="edge8" class="edge">
<title>Node54&#45;&gt;Node56</title>
<path fill="none" stroke="midnightblue" d="M915.56,-54.73C976.22,-44.52 1068.15,-29.06 1124.87,-19.52"/>
<polygon fill="midnightblue" stroke="midnightblue" points="914.64,-51.33 905.36,-56.44 915.81,-58.24 914.64,-51.33"/>
</g>
<!-- Node57 -->
<g id="node10" class="node">
<title>Node57</title>
<g id="a_node10"><a xlink:href="f__op__msg_8cpp.html" target="_top" xlink:title=" ">
<polygon fill="white" stroke="black" points="839.5,-0.5 839.5,-19.5 955.5,-19.5 955.5,-0.5 839.5,-0.5"/>
<text text-anchor="middle" x="897.5" y="-7.5" font-family="Helvetica,sans-Serif" font-size="10.00">src/f_op/f_op_msg.cpp</text>
</a>
</g>
</g>
<!-- Node54&#45;&gt;Node57 -->
<g id="edge9" class="edge">
<title>Node54&#45;&gt;Node57</title>
<path fill="none" stroke="midnightblue" d="M867.92,-48.14C875.41,-38.74 884.44,-27.4 890.53,-19.75"/>
<polygon fill="midnightblue" stroke="midnightblue" points="865.09,-46.08 861.6,-56.08 870.57,-50.44 865.09,-46.08"/>
</g>
<!-- Node98 -->
<g id="node17" class="node">
<title>Node98</title>
<g id="a_node17"><a xlink:href="f__op__scene__mng_8h.html" target="_top" xlink:title=" ">
<polygon fill="white" stroke="red" points="672.5,-179.5 672.5,-209.5 794.5,-209.5 794.5,-179.5 672.5,-179.5"/>
<text text-anchor="start" x="680.5" y="-197.5" font-family="Helvetica,sans-Serif" font-size="10.00">include/f_op/f_op_scene</text>
<text text-anchor="middle" x="733.5" y="-186.5" font-family="Helvetica,sans-Serif" font-size="10.00">_mng.h</text>
</a>
</g>
</g>
<!-- Node97&#45;&gt;Node98 -->
<g id="edge20" class="edge">
<title>Node97&#45;&gt;Node98</title>
<path fill="none" stroke="midnightblue" d="M554.98,-243.85C594.11,-233.25 644.23,-219.68 681.4,-209.61"/>
<polygon fill="midnightblue" stroke="midnightblue" points="554.02,-240.48 545.28,-246.48 555.85,-247.24 554.02,-240.48"/>
</g>
<!-- Node102 -->
<g id="node20" class="node">
<title>Node102</title>
<g id="a_node20"><a xlink:href="f__op__scene__req_8h.html" target="_top" xlink:title=" ">
<polygon fill="white" stroke="black" points="280.5,-179.5 280.5,-209.5 402.5,-209.5 402.5,-179.5 280.5,-179.5"/>
<text text-anchor="start" x="288.5" y="-197.5" font-family="Helvetica,sans-Serif" font-size="10.00">include/f_op/f_op_scene</text>
<text text-anchor="middle" x="341.5" y="-186.5" font-family="Helvetica,sans-Serif" font-size="10.00">_req.h</text>
</a>
</g>
</g>
<!-- Node97&#45;&gt;Node102 -->
<g id="edge25" class="edge">
<title>Node97&#45;&gt;Node102</title>
<path fill="none" stroke="midnightblue" d="M451.19,-242.41C426.92,-232.03 396.91,-219.2 374.42,-209.58"/>
<polygon fill="midnightblue" stroke="midnightblue" points="449.95,-245.68 460.52,-246.4 452.7,-239.25 449.95,-245.68"/>
</g>
<!-- Node104 -->
<g id="node22" class="node">
<title>Node104</title>
<g id="a_node22"><a xlink:href="f__op__overlap__mng_8cpp.html" target="_top" xlink:title=" ">
<polygon fill="white" stroke="black" points="420.5,-179.5 420.5,-209.5 530.5,-209.5 530.5,-179.5 420.5,-179.5"/>
<text text-anchor="start" x="428.5" y="-197.5" font-family="Helvetica,sans-Serif" font-size="10.00">src/f_op/f_op_overlap</text>
<text text-anchor="middle" x="475.5" y="-186.5" font-family="Helvetica,sans-Serif" font-size="10.00">_mng.cpp</text>
</a>
</g>
</g>
<!-- Node97&#45;&gt;Node104 -->
<g id="edge28" class="edge">
<title>Node97&#45;&gt;Node104</title>
<path fill="none" stroke="midnightblue" d="M486.91,-236.7C484.39,-227.59 481.59,-217.49 479.4,-209.58"/>
<polygon fill="midnightblue" stroke="midnightblue" points="483.55,-237.69 489.59,-246.4 490.3,-235.82 483.55,-237.69"/>
</g>
<!-- Node105 -->
<g id="node23" class="node">
<title>Node105</title>
<g id="a_node23"><a xlink:href="f__op__scene__pause_8cpp.html" target="_top" xlink:title=" ">
<polygon fill="white" stroke="black" points="549,-179.5 549,-209.5 654,-209.5 654,-179.5 549,-179.5"/>
<text text-anchor="start" x="557" y="-197.5" font-family="Helvetica,sans-Serif" font-size="10.00">src/f_op/f_op_scene</text>
<text text-anchor="middle" x="601.5" y="-186.5" font-family="Helvetica,sans-Serif" font-size="10.00">_pause.cpp</text>
</a>
</g>
</g>
<!-- Node97&#45;&gt;Node105 -->
<g id="edge29" class="edge">
<title>Node97&#45;&gt;Node105</title>
<path fill="none" stroke="midnightblue" d="M525.87,-241.02C542.68,-230.9 562.84,-218.77 578.11,-209.58"/>
<polygon fill="midnightblue" stroke="midnightblue" points="523.7,-238.24 516.93,-246.4 527.31,-244.24 523.7,-238.24"/>
</g>
<!-- Node98&#45;&gt;Node4 -->
<g id="edge21" class="edge">
<title>Node98&#45;&gt;Node4</title>
<path fill="none" stroke="midnightblue" d="M804.55,-178.93C941.3,-157.42 978.84,-165.71 1111.5,-143 1114.42,-142.5 1117.41,-141.95 1120.42,-141.37"/>
<polygon fill="midnightblue" stroke="midnightblue" points="803.85,-175.5 794.52,-180.53 804.95,-182.41 803.85,-175.5"/>
</g>
<!-- Node98&#45;&gt;Node18 -->
<g id="edge22" class="edge">
<title>Node98&#45;&gt;Node18</title>
<path fill="none" stroke="midnightblue" d="M721.57,-170.57C700.41,-129.93 657.23,-46.97 643.09,-19.82"/>
<polygon fill="midnightblue" stroke="midnightblue" points="718.48,-172.23 726.2,-179.48 724.69,-169 718.48,-172.23"/>
</g>
<!-- Node100 -->
<g id="node18" class="node">
<title>Node100</title>
<g id="a_node18"><a xlink:href="f__ap__game_8cpp.html" target="_top" xlink:title=" ">
<polygon fill="white" stroke="black" points="981,-118 981,-137 1102,-137 1102,-118 981,-118"/>
<text text-anchor="middle" x="1041.5" y="-125" font-family="Helvetica,sans-Serif" font-size="10.00">src/f_ap/f_ap_game.cpp</text>
</a>
</g>
</g>
<!-- Node98&#45;&gt;Node100 -->
<g id="edge23" class="edge">
<title>Node98&#45;&gt;Node100</title>
<path fill="none" stroke="midnightblue" d="M804.66,-178.48C865.58,-165.63 951.14,-147.57 1001.01,-137.05"/>
<polygon fill="midnightblue" stroke="midnightblue" points="803.78,-175.09 794.72,-180.58 805.23,-181.94 803.78,-175.09"/>
</g>
<!-- Node101 -->
<g id="node19" class="node">
<title>Node101</title>
<g id="a_node19"><a xlink:href="f__op__scene__mng_8cpp.html" target="_top" xlink:title=" ">
<polygon fill="white" stroke="black" points="454,-112.5 454,-142.5 559,-142.5 559,-112.5 454,-112.5"/>
<text text-anchor="start" x="462" y="-130.5" font-family="Helvetica,sans-Serif" font-size="10.00">src/f_op/f_op_scene</text>
<text text-anchor="middle" x="506.5" y="-119.5" font-family="Helvetica,sans-Serif" font-size="10.00">_mng.cpp</text>
</a>
</g>
</g>
<!-- Node98&#45;&gt;Node101 -->
<g id="edge24" class="edge">
<title>Node98&#45;&gt;Node101</title>
<path fill="none" stroke="midnightblue" d="M674.88,-176.71C637.94,-166.14 590.79,-152.63 555.78,-142.61"/>
<polygon fill="midnightblue" stroke="midnightblue" points="673.95,-180.09 684.52,-179.48 675.87,-173.36 673.95,-180.09"/>
</g>
<!-- Node102&#45;&gt;Node101 -->
<g id="edge26" class="edge">
<title>Node102&#45;&gt;Node101</title>
<path fill="none" stroke="midnightblue" d="M386.73,-175.68C413.19,-165.26 446.13,-152.28 470.77,-142.58"/>
<polygon fill="midnightblue" stroke="midnightblue" points="385.32,-172.47 377.3,-179.4 387.89,-178.99 385.32,-172.47"/>
</g>
<!-- Node103 -->
<g id="node21" class="node">
<title>Node103</title>
<g id="a_node21"><a xlink:href="f__op__scene__req_8cpp.html" target="_top" xlink:title=" ">
<polygon fill="white" stroke="black" points="289,-112.5 289,-142.5 394,-142.5 394,-112.5 289,-112.5"/>
<text text-anchor="start" x="297" y="-130.5" font-family="Helvetica,sans-Serif" font-size="10.00">src/f_op/f_op_scene</text>
<text text-anchor="middle" x="341.5" y="-119.5" font-family="Helvetica,sans-Serif" font-size="10.00">_req.cpp</text>
</a>
</g>
</g>
<!-- Node102&#45;&gt;Node103 -->
<g id="edge27" class="edge">
<title>Node102&#45;&gt;Node103</title>
<path fill="none" stroke="midnightblue" d="M341.5,-169.11C341.5,-160.15 341.5,-150.32 341.5,-142.58"/>
<polygon fill="midnightblue" stroke="midnightblue" points="338,-169.4 341.5,-179.4 345,-169.4 338,-169.4"/>
</g>
<!-- Node107&#45;&gt;Node2 -->
<g id="edge33" class="edge">
<title>Node107&#45;&gt;Node2</title>
<path fill="none" stroke="midnightblue" d="M265.64,-373.34C278.13,-361.4 293.05,-347.14 302.4,-338.19"/>
<polygon fill="midnightblue" stroke="midnightblue" points="263.07,-370.96 258.25,-380.4 267.9,-376.02 263.07,-370.96"/>
</g>
<!-- Node108 -->
<g id="node26" class="node">
<title>Node108</title>
<g id="a_node26"><a xlink:href="f__op__scene__iter_8cpp.html" target="_top" xlink:title=" ">
<polygon fill="white" stroke="black" points="123,-313.5 123,-343.5 228,-343.5 228,-313.5 123,-313.5"/>
<text text-anchor="start" x="131" y="-331.5" font-family="Helvetica,sans-Serif" font-size="10.00">src/f_op/f_op_scene</text>
<text text-anchor="middle" x="175.5" y="-320.5" font-family="Helvetica,sans-Serif" font-size="10.00">_iter.cpp</text>
</a>
</g>
</g>
<!-- Node107&#45;&gt;Node108 -->
<g id="edge34" class="edge">
<title>Node107&#45;&gt;Node108</title>
<path fill="none" stroke="midnightblue" d="M221.33,-373.31C211.13,-363.56 199.31,-352.26 190.23,-343.58"/>
<polygon fill="midnightblue" stroke="midnightblue" points="219.1,-376.02 228.75,-380.4 223.93,-370.96 219.1,-376.02"/>
</g>
<!-- Node109 -->
<g id="node27" class="node">
<title>Node109</title>
<g id="a_node27"><a xlink:href="f__op__scene__tag_8cpp.html" target="_top" xlink:title=" ">
<polygon fill="white" stroke="black" points="0,-313.5 0,-343.5 105,-343.5 105,-313.5 0,-313.5"/>
<text text-anchor="start" x="8" y="-331.5" font-family="Helvetica,sans-Serif" font-size="10.00">src/f_op/f_op_scene</text>
<text text-anchor="middle" x="52.5" y="-320.5" font-family="Helvetica,sans-Serif" font-size="10.00">_tag.cpp</text>
</a>
</g>
</g>
<!-- Node107&#45;&gt;Node109 -->
<g id="edge35" class="edge">
<title>Node107&#45;&gt;Node109</title>
<path fill="none" stroke="midnightblue" d="M192.35,-377.09C161.51,-366.6 122.75,-353.41 93.86,-343.58"/>
<polygon fill="midnightblue" stroke="midnightblue" points="191.46,-380.49 202.06,-380.4 193.72,-373.86 191.46,-380.49"/>
</g>
<!-- Node110&#45;&gt;Node91 -->
<g id="edge48" class="edge">
<title>Node110&#45;&gt;Node91</title>
<path fill="none" stroke="midnightblue" d="M653.73,-374.95C668.25,-365.87 685.47,-354.73 700.5,-344 718.52,-331.13 718.91,-321.14 739.5,-313 922.79,-240.55 993.25,-335.37 1181.5,-277 1238.73,-259.25 1254.55,-250.73 1298.5,-210 1344.27,-167.59 1379.7,-99.69 1391.38,-75.72"/>
<polygon fill="midnightblue" stroke="midnightblue" points="651.73,-372.07 645.08,-380.31 655.42,-378.02 651.73,-372.07"/>
</g>
<!-- Node110&#45;&gt;Node102 -->
<g id="edge37" class="edge">
<title>Node110&#45;&gt;Node102</title>
<path fill="none" stroke="midnightblue" d="M552.65,-382.94C503.89,-373.66 443.72,-359.63 423.5,-344 377.6,-308.52 353.78,-239.71 345.24,-209.87"/>
<polygon fill="midnightblue" stroke="midnightblue" points="552.07,-386.4 562.54,-384.79 553.36,-379.52 552.07,-386.4"/>
</g>
<!-- Node111 -->
<g id="node29" class="node">
<title>Node111</title>
<g id="a_node29"><a xlink:href="f__pc__manager_8h.html" target="_top" xlink:title=" ">
<polygon fill="white" stroke="black" points="551,-319 551,-338 692,-338 692,-319 551,-319"/>
<text text-anchor="middle" x="621.5" y="-326" font-family="Helvetica,sans-Serif" font-size="10.00">include/f_pc/f_pc_manager.h</text>
</a>
</g>
</g>
<!-- Node110&#45;&gt;Node111 -->
<g id="edge38" class="edge">
<title>Node110&#45;&gt;Node111</title>
<path fill="none" stroke="midnightblue" d="M621.5,-370.25C621.5,-359.02 621.5,-346.38 621.5,-338.19"/>
<polygon fill="midnightblue" stroke="midnightblue" points="618,-370.4 621.5,-380.4 625,-370.4 618,-370.4"/>
</g>
<!-- Node130 -->
<g id="node33" class="node">
<title>Node130</title>
<g id="a_node33"><a xlink:href="f__pc__node__req_8cpp.html" target="_top" xlink:title=" ">
<polygon fill="white" stroke="black" points="432.5,-313.5 432.5,-343.5 532.5,-343.5 532.5,-313.5 432.5,-313.5"/>
<text text-anchor="start" x="440.5" y="-331.5" font-family="Helvetica,sans-Serif" font-size="10.00">src/f_pc/f_pc_node</text>
<text text-anchor="middle" x="482.5" y="-320.5" font-family="Helvetica,sans-Serif" font-size="10.00">_req.cpp</text>
</a>
</g>
</g>
<!-- Node110&#45;&gt;Node130 -->
<g id="edge49" class="edge">
<title>Node110&#45;&gt;Node130</title>
<path fill="none" stroke="midnightblue" d="M582.22,-376.13C560.13,-365.8 532.99,-353.11 512.6,-343.58"/>
<polygon fill="midnightblue" stroke="midnightblue" points="580.8,-379.33 591.34,-380.4 583.76,-372.99 580.8,-379.33"/>
</g>
<!-- Node111&#45;&gt;Node91 -->
<g id="edge47" class="edge">
<title>Node111&#45;&gt;Node91</title>
<path fill="none" stroke="midnightblue" d="M677.6,-317.28C687.22,-315.71 697.13,-314.22 706.5,-313 884.39,-289.9 934.07,-318.84 1108.5,-277 1186.27,-258.35 1217.58,-265.15 1275.5,-210 1310.21,-176.95 1288.52,-147.7 1320.5,-112 1335.29,-95.49 1357.61,-83.17 1374.05,-75.64"/>
<polygon fill="midnightblue" stroke="midnightblue" points="677.01,-313.83 667.72,-318.93 678.16,-320.74 677.01,-313.83"/>
</g>
<!-- Node111&#45;&gt;Node98 -->
<g id="edge43" class="edge">
<title>Node111&#45;&gt;Node98</title>
<path fill="none" stroke="midnightblue" d="M632.09,-310.11C642.84,-293.03 660.43,-266.63 678.5,-246 690.11,-232.74 704.91,-219.31 716.23,-209.64"/>
<polygon fill="midnightblue" stroke="midnightblue" points="628.9,-308.62 626.6,-318.96 634.85,-312.31 628.9,-308.62"/>
</g>
<!-- Node111&#45;&gt;Node100 -->
<g id="edge44" class="edge">
<title>Node111&#45;&gt;Node100</title>
<path fill="none" stroke="midnightblue" d="M677.61,-317.32C687.23,-315.75 697.14,-314.24 706.5,-313 748.76,-307.41 1059.8,-308.53 1088.5,-277 1126.72,-235 1070.61,-161.98 1049.21,-137.09"/>
<polygon fill="midnightblue" stroke="midnightblue" points="677.01,-313.87 667.72,-318.97 678.16,-320.77 677.01,-313.87"/>
</g>
<!-- Node111&#45;&gt;Node105 -->
<g id="edge46" class="edge">
<title>Node111&#45;&gt;Node105</title>
<path fill="none" stroke="midnightblue" d="M615.47,-309.14C612.59,-299.64 609.38,-287.81 607.5,-277 603.45,-253.66 602.13,-226.09 601.7,-209.74"/>
<polygon fill="midnightblue" stroke="midnightblue" points="612.13,-310.2 618.48,-318.68 618.81,-308.09 612.13,-310.2"/>
</g>
<!-- Node112 -->
<g id="node30" class="node">
<title>Node112</title>
<g id="a_node30"><a xlink:href="f__op__actor__mng_8h.html" target="_top" xlink:title=" ">
<polygon fill="white" stroke="red" points="687.5,-246.5 687.5,-276.5 805.5,-276.5 805.5,-246.5 687.5,-246.5"/>
<text text-anchor="start" x="695.5" y="-264.5" font-family="Helvetica,sans-Serif" font-size="10.00">include/f_op/f_op_actor</text>
<text text-anchor="middle" x="746.5" y="-253.5" font-family="Helvetica,sans-Serif" font-size="10.00">_mng.h</text>
</a>
</g>
</g>
<!-- Node111&#45;&gt;Node112 -->
<g id="edge39" class="edge">
<title>Node111&#45;&gt;Node112</title>
<path fill="none" stroke="midnightblue" d="M647.09,-314.19C668.11,-303.26 697.83,-287.81 719.29,-276.65"/>
<polygon fill="midnightblue" stroke="midnightblue" points="645.36,-311.15 638.1,-318.87 648.59,-317.36 645.36,-311.15"/>
</g>
<!-- Node128 -->
<g id="node31" class="node">
<title>Node128</title>
<g id="a_node31"><a xlink:href="f__op__kankyo__mng_8h.html" target="_top" xlink:title=" ">
<polygon fill="white" stroke="red" points="952,-246.5 952,-276.5 1079,-276.5 1079,-246.5 952,-246.5"/>
<text text-anchor="start" x="960" y="-264.5" font-family="Helvetica,sans-Serif" font-size="10.00">include/f_op/f_op_kankyo</text>
<text text-anchor="middle" x="1015.5" y="-253.5" font-family="Helvetica,sans-Serif" font-size="10.00">_mng.h</text>
</a>
</g>
</g>
<!-- Node111&#45;&gt;Node128 -->
<g id="edge42" class="edge">
<title>Node111&#45;&gt;Node128</title>
<path fill="none" stroke="midnightblue" d="M680.56,-317.29C689.26,-315.82 698.11,-314.36 706.5,-313 811.24,-296.08 837.99,-295.34 942.5,-277 945.55,-276.46 948.68,-275.9 951.83,-275.32"/>
<polygon fill="midnightblue" stroke="midnightblue" points="679.74,-313.88 670.47,-319 680.91,-320.78 679.74,-313.88"/>
</g>
<!-- Node129 -->
<g id="node32" class="node">
<title>Node129</title>
<g id="a_node32"><a xlink:href="f__op__overlap__req_8cpp.html" target="_top" xlink:title=" ">
<polygon fill="white" stroke="black" points="823.5,-246.5 823.5,-276.5 933.5,-276.5 933.5,-246.5 823.5,-246.5"/>
<text text-anchor="start" x="831.5" y="-264.5" font-family="Helvetica,sans-Serif" font-size="10.00">src/f_op/f_op_overlap</text>
<text text-anchor="middle" x="878.5" y="-253.5" font-family="Helvetica,sans-Serif" font-size="10.00">_req.cpp</text>
</a>
</g>
</g>
<!-- Node111&#45;&gt;Node129 -->
<g id="edge45" class="edge">
<title>Node111&#45;&gt;Node129</title>
<path fill="none" stroke="midnightblue" d="M665.11,-316.47C708.77,-305.43 776.08,-288.4 823.4,-276.44"/>
<polygon fill="midnightblue" stroke="midnightblue" points="664.2,-313.09 655.36,-318.94 665.92,-319.88 664.2,-313.09"/>
</g>
<!-- Node112&#45;&gt;Node3 -->
<g id="edge40" class="edge">
<title>Node112&#45;&gt;Node3</title>
<path fill="none" stroke="midnightblue" d="M782.48,-241.64C806.21,-229.2 836.14,-213.51 854.27,-204.01"/>
<polygon fill="midnightblue" stroke="midnightblue" points="780.64,-238.65 773.41,-246.4 783.89,-244.85 780.64,-238.65"/>
</g>
<!-- Node112&#45;&gt;Node14 -->
<g id="edge41" class="edge">
<title>Node112&#45;&gt;Node14</title>
<path fill="none" stroke="midnightblue" d="M815.72,-245.59C866.58,-234.08 928.34,-218.69 937.5,-210 947.72,-200.31 973.44,-105.17 981.23,-75.67"/>
<polygon fill="midnightblue" stroke="midnightblue" points="814.71,-242.23 805.72,-247.84 816.24,-249.06 814.71,-242.23"/>
</g>
<!-- Node131&#45;&gt;Node91 -->
<g id="edge54" class="edge">
<title>Node131&#45;&gt;Node91</title>
<path fill="none" stroke="midnightblue" d="M1136.62,-376.76C1147.22,-357.96 1166.52,-328.85 1191.5,-313 1251.95,-274.66 1298.01,-327.75 1348.5,-277 1405.94,-219.26 1399.63,-107.57 1396.5,-75.69"/>
<polygon fill="midnightblue" stroke="midnightblue" points="1133.43,-375.3 1131.76,-385.76 1139.59,-378.63 1133.43,-375.3"/>
</g>
<!-- Node132 -->
<g id="node35" class="node">
<title>Node132</title>
<g id="a_node35"><a xlink:href="f__pc__base_8cpp.html" target="_top" xlink:title=" ">
<polygon fill="white" stroke="black" points="748.5,-319 748.5,-338 866.5,-338 866.5,-319 748.5,-319"/>
<text text-anchor="middle" x="807.5" y="-326" font-family="Helvetica,sans-Serif" font-size="10.00">src/f_pc/f_pc_base.cpp</text>
</a>
</g>
</g>
<!-- Node131&#45;&gt;Node132 -->
<g id="edge51" class="edge">
<title>Node131&#45;&gt;Node132</title>
<path fill="none" stroke="midnightblue" d="M1074.4,-384.06C1023.37,-373.97 944.12,-358.19 875.5,-344 866.28,-342.09 856.37,-340 847.04,-338.02"/>
<polygon fill="midnightblue" stroke="midnightblue" points="1073.72,-387.49 1084.21,-385.99 1075.08,-380.62 1073.72,-387.49"/>
</g>
<!-- Node133 -->
<g id="node36" class="node">
<title>Node133</title>
<g id="a_node36"><a xlink:href="f__pc__draw_8cpp.html" target="_top" xlink:title=" ">
<polygon fill="white" stroke="black" points="884.5,-319 884.5,-338 1002.5,-338 1002.5,-319 884.5,-319"/>
<text text-anchor="middle" x="943.5" y="-326" font-family="Helvetica,sans-Serif" font-size="10.00">src/f_pc/f_pc_draw.cpp</text>
</a>
</g>
</g>
<!-- Node131&#45;&gt;Node133 -->
<g id="edge52" class="edge">
<title>Node131&#45;&gt;Node133</title>
<path fill="none" stroke="midnightblue" d="M1093.35,-382.44C1056.85,-369.54 999.9,-349.42 967.74,-338.06"/>
<polygon fill="midnightblue" stroke="midnightblue" points="1092.47,-385.84 1103.07,-385.87 1094.8,-379.24 1092.47,-385.84"/>
</g>
<!-- Node131&#45;&gt;Node134 -->
<g id="edge53" class="edge">
<title>Node131&#45;&gt;Node134</title>
<path fill="none" stroke="midnightblue" d="M1155.26,-381.61C1182.99,-368.74 1224.84,-349.31 1248.83,-338.17"/>
<polygon fill="midnightblue" stroke="midnightblue" points="1153.69,-378.48 1146.09,-385.87 1156.63,-384.83 1153.69,-378.48"/>
</g>
<!-- Node135 -->
<g id="node38" class="node">
<title>Node135</title>
<g id="a_node38"><a xlink:href="f__pc__pause_8cpp.html" target="_top" xlink:title=" ">
<polygon fill="white" stroke="black" points="1021,-319 1021,-338 1144,-338 1144,-319 1021,-319"/>
<text text-anchor="middle" x="1082.5" y="-326" font-family="Helvetica,sans-Serif" font-size="10.00">src/f_pc/f_pc_pause.cpp</text>
</a>
</g>
</g>
<!-- Node131&#45;&gt;Node135 -->
<g id="edge55" class="edge">
<title>Node131&#45;&gt;Node135</title>
<path fill="none" stroke="midnightblue" d="M1115.66,-377.4C1106.92,-364.77 1095.38,-348.1 1088.47,-338.13"/>
<polygon fill="midnightblue" stroke="midnightblue" points="1112.86,-379.5 1121.43,-385.73 1118.62,-375.52 1112.86,-379.5"/>
</g>
<!-- Node136&#45;&gt;Node2 -->
<g id="edge63" class="edge">
<title>Node136&#45;&gt;Node2</title>
<path fill="none" stroke="midnightblue" d="M1308.27,-388.03C1275.61,-385.29 1236.65,-382.23 1201.5,-380 856.05,-358.1 768.32,-374.25 423.5,-344 406.12,-342.48 387.28,-340.26 370.11,-338.01"/>
<polygon fill="midnightblue" stroke="midnightblue" points="1308.39,-391.55 1318.64,-388.91 1308.97,-384.58 1308.39,-391.55"/>
</g>
<!-- Node136&#45;&gt;Node93 -->
<g id="edge65" class="edge">
<title>Node136&#45;&gt;Node93</title>
<path fill="none" stroke="midnightblue" d="M1378.43,-369.99C1375.95,-353.57 1371.82,-331.64 1365.5,-313 1332.26,-215.04 1267.71,-106.4 1248.82,-75.57"/>
<polygon fill="midnightblue" stroke="midnightblue" points="1375.03,-370.95 1379.89,-380.36 1381.96,-369.97 1375.03,-370.95"/>
</g>
<!-- Node136&#45;&gt;Node96 -->
<g id="edge68" class="edge">
<title>Node136&#45;&gt;Node96</title>
<path fill="none" stroke="midnightblue" d="M1454.39,-380.16C1526.8,-371.32 1675.77,-382 1717.5,-344 1745,-318.96 1736.5,-299.69 1736.5,-262.5 1736.5,-262.5 1736.5,-262.5 1736.5,-193.5 1736.5,-144.83 1699.04,-95.39 1682.35,-75.78"/>
<polygon fill="midnightblue" stroke="midnightblue" points="1453.68,-376.72 1444.29,-381.61 1454.68,-383.65 1453.68,-376.72"/>
</g>
<!-- Node137 -->
<g id="node40" class="node">
<title>Node137</title>
<g id="a_node40"><a xlink:href="DynamicLink_8h.html" target="_top" xlink:title=" ">
<polygon fill="white" stroke="red" points="1594.5,-319 1594.5,-338 1708.5,-338 1708.5,-319 1594.5,-319"/>
<text text-anchor="middle" x="1651.5" y="-326" font-family="Helvetica,sans-Serif" font-size="10.00">include/DynamicLink.h</text>
</a>
</g>
</g>
<!-- Node136&#45;&gt;Node137 -->
<g id="edge57" class="edge">
<title>Node136&#45;&gt;Node137</title>
<path fill="none" stroke="midnightblue" d="M1449.75,-378.07C1502.7,-365.32 1573.95,-348.17 1616.07,-338.03"/>
<polygon fill="midnightblue" stroke="midnightblue" points="1448.66,-374.73 1439.75,-380.48 1450.3,-381.54 1448.66,-374.73"/>
</g>
<!-- Node139 -->
<g id="node42" class="node">
<title>Node139</title>
<g id="a_node42"><a xlink:href="d__resorce_8h.html" target="_top" xlink:title=" ">
<polygon fill="white" stroke="red" points="1157,-185 1157,-204 1266,-204 1266,-185 1157,-185"/>
<text text-anchor="middle" x="1211.5" y="-192" font-family="Helvetica,sans-Serif" font-size="10.00">include/d/d_resorce.h</text>
</a>
</g>
</g>
<!-- Node136&#45;&gt;Node139 -->
<g id="edge60" class="edge">
<title>Node136&#45;&gt;Node139</title>
<path fill="none" stroke="midnightblue" d="M1373.31,-370.55C1366.8,-353.52 1356.62,-330.63 1343.5,-313 1307.78,-265.01 1249.89,-221.95 1224.33,-204.16"/>
<polygon fill="midnightblue" stroke="midnightblue" points="1370.16,-372.11 1376.88,-380.29 1376.73,-369.7 1370.16,-372.11"/>
</g>
<!-- Node170 -->
<g id="node43" class="node">
<title>Node170</title>
<g id="a_node43"><a xlink:href="d__menu__save_8h.html" target="_top" xlink:title=" ">
<polygon fill="white" stroke="red" points="1764.5,-313.5 1764.5,-343.5 1884.5,-343.5 1884.5,-313.5 1764.5,-313.5"/>
<text text-anchor="start" x="1772.5" y="-331.5" font-family="Helvetica,sans-Serif" font-size="10.00">include/d/menu/d_menu</text>
<text text-anchor="middle" x="1824.5" y="-320.5" font-family="Helvetica,sans-Serif" font-size="10.00">_save.h</text>
</a>
</g>
</g>
<!-- Node136&#45;&gt;Node170 -->
<g id="edge62" class="edge">
<title>Node136&#45;&gt;Node170</title>
<path fill="none" stroke="midnightblue" d="M1454.38,-379.95C1586.51,-359.13 1622.38,-364.29 1750.5,-344 1755.03,-343.28 1759.7,-342.49 1764.39,-341.66"/>
<polygon fill="midnightblue" stroke="midnightblue" points="1453.6,-376.53 1444.28,-381.56 1454.7,-383.44 1453.6,-376.53"/>
</g>
<!-- Node171 -->
<g id="node44" class="node">
<title>Node171</title>
<g id="a_node44"><a xlink:href="m__Do__DVDError_8cpp.html" target="_top" xlink:title=" ">
<polygon fill="white" stroke="black" points="1903,-319 1903,-338 2054,-338 2054,-319 1903,-319"/>
<text text-anchor="middle" x="1978.5" y="-326" font-family="Helvetica,sans-Serif" font-size="10.00">src/m_Do/m_Do_DVDError.cpp</text>
</a>
</g>
</g>
<!-- Node136&#45;&gt;Node171 -->
<g id="edge64" class="edge">
<title>Node136&#45;&gt;Node171</title>
<path fill="none" stroke="midnightblue" d="M1454.27,-380.01C1649.52,-353.1 1702.06,-368.11 1893.5,-344 1906.27,-342.39 1920.06,-340.23 1932.73,-338.06"/>
<polygon fill="midnightblue" stroke="midnightblue" points="1453.67,-376.56 1444.25,-381.41 1454.64,-383.49 1453.67,-376.56"/>
</g>
<!-- Node172 -->
<g id="node45" class="node">
<title>Node172</title>
<g id="a_node45"><a xlink:href="m__Do__dvd__thread_8cpp.html" target="_top" xlink:title=" ">
<polygon fill="white" stroke="black" points="2072.5,-319 2072.5,-338 2230.5,-338 2230.5,-319 2072.5,-319"/>
<text text-anchor="middle" x="2151.5" y="-326" font-family="Helvetica,sans-Serif" font-size="10.00">src/m_Do/m_Do_dvd_thread.cpp</text>
</a>
</g>
</g>
<!-- Node136&#45;&gt;Node172 -->
<g id="edge66" class="edge">
<title>Node136&#45;&gt;Node172</title>
<path fill="none" stroke="midnightblue" d="M1454.35,-380.03C1724.59,-345.81 1796.89,-373.75 2063.5,-344 2077.2,-342.47 2092,-340.25 2105.5,-338.01"/>
<polygon fill="midnightblue" stroke="midnightblue" points="1453.72,-376.58 1444.24,-381.33 1454.61,-383.53 1453.72,-376.58"/>
</g>
<!-- Node173 -->
<g id="node46" class="node">
<title>Node173</title>
<g id="a_node46"><a xlink:href="m__Do__machine_8cpp.html" target="_top" xlink:title=" ">
<polygon fill="white" stroke="black" points="1429,-319 1429,-338 1576,-338 1576,-319 1429,-319"/>
<text text-anchor="middle" x="1502.5" y="-326" font-family="Helvetica,sans-Serif" font-size="10.00">src/m_Do/m_Do_machine.cpp</text>
</a>
</g>
</g>
<!-- Node136&#45;&gt;Node173 -->
<g id="edge67" class="edge">
<title>Node136&#45;&gt;Node173</title>
<path fill="none" stroke="midnightblue" d="M1416.61,-375.64C1439.76,-363.2 1468.97,-347.51 1486.66,-338.01"/>
<polygon fill="midnightblue" stroke="midnightblue" points="1414.91,-372.58 1407.76,-380.4 1418.22,-378.75 1414.91,-372.58"/>
</g>
<!-- Node137&#45;&gt;Node96 -->
<g id="edge59" class="edge">
<title>Node137&#45;&gt;Node96</title>
<path fill="none" stroke="midnightblue" d="M1653.16,-308.72C1657.74,-256.77 1670.47,-112.61 1673.73,-75.7"/>
<polygon fill="midnightblue" stroke="midnightblue" points="1649.66,-308.56 1652.27,-318.83 1656.63,-309.18 1649.66,-308.56"/>
</g>
<!-- Node138 -->
<g id="node41" class="node">
<title>Node138</title>
<g id="a_node41"><a xlink:href="DynamicLink_8cpp.html" target="_top" xlink:title=" ">
<polygon fill="white" stroke="black" points="1539,-252 1539,-271 1646,-271 1646,-252 1539,-252"/>
<text text-anchor="middle" x="1592.5" y="-259" font-family="Helvetica,sans-Serif" font-size="10.00">src/DynamicLink.cpp</text>
</a>
</g>
</g>
<!-- Node137&#45;&gt;Node138 -->
<g id="edge58" class="edge">
<title>Node137&#45;&gt;Node138</title>
<path fill="none" stroke="midnightblue" d="M1636.65,-311.13C1625.11,-298.42 1609.56,-281.3 1600.33,-271.13"/>
<polygon fill="midnightblue" stroke="midnightblue" points="1634.23,-313.68 1643.54,-318.73 1639.41,-308.98 1634.23,-313.68"/>
</g>
<!-- Node139&#45;&gt;Node4 -->
<g id="edge61" class="edge">
<title>Node139&#45;&gt;Node4</title>
<path fill="none" stroke="midnightblue" d="M1201.65,-175.71C1195.87,-165.29 1188.68,-152.3 1183.3,-142.59"/>
<polygon fill="midnightblue" stroke="midnightblue" points="1198.74,-177.68 1206.64,-184.73 1204.86,-174.29 1198.74,-177.68"/>
</g>
</g>
</svg>
