<?xml version="1.0" encoding="UTF-8" standalone="no"?>
<!DOCTYPE svg PUBLIC "-//W3C//DTD SVG 1.1//EN"
 "http://www.w3.org/Graphics/SVG/1.1/DTD/svg11.dtd">
<!-- Generated by graphviz version 2.50.0 (20220203.2022)
 -->
<!-- Title: include/f_pc/f_pc_executor.h Pages: 1 -->
<svg width="2761pt" height="575pt"
 viewBox="0.00 0.00 2760.50 575.00" xmlns="http://www.w3.org/2000/svg" xmlns:xlink="http://www.w3.org/1999/xlink">
<g id="graph0" class="graph" transform="scale(1 1) rotate(0) translate(4 571)">
<title>include/f_pc/f_pc_executor.h</title>
<polygon fill="white" stroke="transparent" points="-4,4 -4,-571 2756.5,-571 2756.5,4 -4,4"/>
<!-- Node1 -->
<g id="node1" class="node">
<title>Node1</title>
<g id="a_node1"><a xlink:title=" ">
<polygon fill="#bfbfbf" stroke="black" points="2001.5,-547.5 2001.5,-566.5 2141.5,-566.5 2141.5,-547.5 2001.5,-547.5"/>
<text text-anchor="middle" x="2071.5" y="-554.5" font-family="Helvetica,sans-Serif" font-size="10.00">include/f_pc/f_pc_executor.h</text>
</a>
</g>
</g>
<!-- Node2 -->
<g id="node2" class="node">
<title>Node2</title>
<g id="a_node2"><a xlink:href="f__op__actor__mng_8h.html" target="_top" xlink:title=" ">
<polygon fill="white" stroke="black" points="1441.5,-480.5 1441.5,-510.5 1559.5,-510.5 1559.5,-480.5 1441.5,-480.5"/>
<text text-anchor="start" x="1449.5" y="-498.5" font-family="Helvetica,sans-Serif" font-size="10.00">include/f_op/f_op_actor</text>
<text text-anchor="middle" x="1500.5" y="-487.5" font-family="Helvetica,sans-Serif" font-size="10.00">_mng.h</text>
</a>
</g>
</g>
<!-- Node1&#45;&gt;Node2 -->
<g id="edge1" class="edge">
<title>Node1&#45;&gt;Node2</title>
<path fill="none" stroke="midnightblue" d="M1991.21,-551.82C1891.63,-545.94 1716.86,-533.37 1568.5,-511 1565.64,-510.57 1562.71,-510.09 1559.76,-509.58"/>
<polygon fill="midnightblue" stroke="midnightblue" points="1991.01,-555.31 2001.2,-552.4 1991.42,-548.32 1991.01,-555.31"/>
</g>
<!-- Node101 -->
<g id="node42" class="node">
<title>Node101</title>
<g id="a_node42"><a xlink:href="f__op__overlap__mng_8cpp.html" target="_top" xlink:title=" ">
<polygon fill="white" stroke="black" points="1577.5,-480.5 1577.5,-510.5 1687.5,-510.5 1687.5,-480.5 1577.5,-480.5"/>
<text text-anchor="start" x="1585.5" y="-498.5" font-family="Helvetica,sans-Serif" font-size="10.00">src/f_op/f_op_overlap</text>
<text text-anchor="middle" x="1632.5" y="-487.5" font-family="Helvetica,sans-Serif" font-size="10.00">_mng.cpp</text>
</a>
</g>
</g>
<!-- Node1&#45;&gt;Node101 -->
<g id="edge64" class="edge">
<title>Node1&#45;&gt;Node101</title>
<path fill="none" stroke="midnightblue" d="M1991.38,-548.81C1915.21,-541.4 1797.6,-528.47 1696.5,-511 1693.58,-510.5 1690.6,-509.94 1687.59,-509.36"/>
<polygon fill="midnightblue" stroke="midnightblue" points="1991.09,-552.29 2001.38,-549.77 1991.76,-545.33 1991.09,-552.29"/>
</g>
<!-- Node102 -->
<g id="node43" class="node">
<title>Node102</title>
<g id="a_node43"><a xlink:href="f__op__overlap__req_8cpp.html" target="_top" xlink:title=" ">
<polygon fill="white" stroke="black" points="1705.5,-480.5 1705.5,-510.5 1815.5,-510.5 1815.5,-480.5 1705.5,-480.5"/>
<text text-anchor="start" x="1713.5" y="-498.5" font-family="Helvetica,sans-Serif" font-size="10.00">src/f_op/f_op_overlap</text>
<text text-anchor="middle" x="1760.5" y="-487.5" font-family="Helvetica,sans-Serif" font-size="10.00">_req.cpp</text>
</a>
</g>
</g>
<!-- Node1&#45;&gt;Node102 -->
<g id="edge65" class="edge">
<title>Node1&#45;&gt;Node102</title>
<path fill="none" stroke="midnightblue" d="M2011.48,-545.69C1961.59,-536.95 1888.79,-523.84 1825.5,-511 1822.33,-510.36 1819.07,-509.68 1815.79,-508.99"/>
<polygon fill="midnightblue" stroke="midnightblue" points="2011,-549.16 2021.45,-547.43 2012.2,-542.26 2011,-549.16"/>
</g>
<!-- Node103 -->
<g id="node44" class="node">
<title>Node103</title>
<g id="a_node44"><a xlink:href="f__op__scene__pause_8cpp.html" target="_top" xlink:title=" ">
<polygon fill="white" stroke="black" points="1834,-480.5 1834,-510.5 1939,-510.5 1939,-480.5 1834,-480.5"/>
<text text-anchor="start" x="1842" y="-498.5" font-family="Helvetica,sans-Serif" font-size="10.00">src/f_op/f_op_scene</text>
<text text-anchor="middle" x="1886.5" y="-487.5" font-family="Helvetica,sans-Serif" font-size="10.00">_pause.cpp</text>
</a>
</g>
</g>
<!-- Node1&#45;&gt;Node103 -->
<g id="edge66" class="edge">
<title>Node1&#45;&gt;Node103</title>
<path fill="none" stroke="midnightblue" d="M2035.3,-544.36C2005.15,-534.66 1962.14,-520.83 1930.1,-510.52"/>
<polygon fill="midnightblue" stroke="midnightblue" points="2034.4,-547.75 2044.99,-547.48 2036.55,-541.08 2034.4,-547.75"/>
</g>
<!-- Node104 -->
<g id="node45" class="node">
<title>Node104</title>
<g id="a_node45"><a xlink:href="f__op__scene__req_8cpp.html" target="_top" xlink:title=" ">
<polygon fill="white" stroke="black" points="1957,-480.5 1957,-510.5 2062,-510.5 2062,-480.5 1957,-480.5"/>
<text text-anchor="start" x="1965" y="-498.5" font-family="Helvetica,sans-Serif" font-size="10.00">src/f_op/f_op_scene</text>
<text text-anchor="middle" x="2009.5" y="-487.5" font-family="Helvetica,sans-Serif" font-size="10.00">_req.cpp</text>
</a>
</g>
</g>
<!-- Node1&#45;&gt;Node104 -->
<g id="edge67" class="edge">
<title>Node1&#45;&gt;Node104</title>
<path fill="none" stroke="midnightblue" d="M2055.21,-540.37C2045.57,-531.11 2033.45,-519.48 2024.11,-510.52"/>
<polygon fill="midnightblue" stroke="midnightblue" points="2052.98,-543.08 2062.62,-547.48 2057.83,-538.03 2052.98,-543.08"/>
</g>
<!-- Node105 -->
<g id="node46" class="node">
<title>Node105</title>
<g id="a_node46"><a xlink:href="f__pc__create__req_8cpp.html" target="_top" xlink:title=" ">
<polygon fill="white" stroke="black" points="2080.5,-480.5 2080.5,-510.5 2186.5,-510.5 2186.5,-480.5 2080.5,-480.5"/>
<text text-anchor="start" x="2088.5" y="-498.5" font-family="Helvetica,sans-Serif" font-size="10.00">src/f_pc/f_pc_create</text>
<text text-anchor="middle" x="2133.5" y="-487.5" font-family="Helvetica,sans-Serif" font-size="10.00">_req.cpp</text>
</a>
</g>
</g>
<!-- Node1&#45;&gt;Node105 -->
<g id="edge68" class="edge">
<title>Node1&#45;&gt;Node105</title>
<path fill="none" stroke="midnightblue" d="M2087.79,-540.37C2097.43,-531.11 2109.55,-519.48 2118.89,-510.52"/>
<polygon fill="midnightblue" stroke="midnightblue" points="2085.17,-538.03 2080.38,-547.48 2090.02,-543.08 2085.17,-538.03"/>
</g>
<!-- Node106 -->
<g id="node47" class="node">
<title>Node106</title>
<g id="a_node47"><a xlink:href="f__pc__deletor_8cpp.html" target="_top" xlink:title=" ">
<polygon fill="white" stroke="black" points="2204.5,-486 2204.5,-505 2330.5,-505 2330.5,-486 2204.5,-486"/>
<text text-anchor="middle" x="2267.5" y="-493" font-family="Helvetica,sans-Serif" font-size="10.00">src/f_pc/f_pc_deletor.cpp</text>
</a>
</g>
</g>
<!-- Node1&#45;&gt;Node106 -->
<g id="edge69" class="edge">
<title>Node1&#45;&gt;Node106</title>
<path fill="none" stroke="midnightblue" d="M2109.29,-544.53C2147.38,-532.96 2205.29,-515.38 2239.47,-505.01"/>
<polygon fill="midnightblue" stroke="midnightblue" points="2108.13,-541.22 2099.58,-547.48 2110.17,-547.92 2108.13,-541.22"/>
</g>
<!-- Node107 -->
<g id="node48" class="node">
<title>Node107</title>
<g id="a_node48"><a xlink:href="f__pc__executor_8cpp.html" target="_top" xlink:title=" ">
<polygon fill="white" stroke="black" points="2348.5,-486 2348.5,-505 2482.5,-505 2482.5,-486 2348.5,-486"/>
<text text-anchor="middle" x="2415.5" y="-493" font-family="Helvetica,sans-Serif" font-size="10.00">src/f_pc/f_pc_executor.cpp</text>
</a>
</g>
</g>
<!-- Node1&#45;&gt;Node107 -->
<g id="edge70" class="edge">
<title>Node1&#45;&gt;Node107</title>
<path fill="none" stroke="midnightblue" d="M2134.62,-545.81C2188.97,-536.93 2269.48,-523.56 2339.5,-511 2349.95,-509.13 2361.18,-507.03 2371.73,-505.02"/>
<polygon fill="midnightblue" stroke="midnightblue" points="2133.75,-542.4 2124.44,-547.47 2134.88,-549.31 2133.75,-542.4"/>
</g>
<!-- Node108 -->
<g id="node49" class="node">
<title>Node108</title>
<g id="a_node49"><a xlink:href="f__pc__manager_8cpp.html" target="_top" xlink:title=" ">
<polygon fill="white" stroke="black" points="2500.5,-486 2500.5,-505 2634.5,-505 2634.5,-486 2500.5,-486"/>
<text text-anchor="middle" x="2567.5" y="-493" font-family="Helvetica,sans-Serif" font-size="10.00">src/f_pc/f_pc_manager.cpp</text>
</a>
</g>
</g>
<!-- Node1&#45;&gt;Node108 -->
<g id="edge71" class="edge">
<title>Node1&#45;&gt;Node108</title>
<path fill="none" stroke="midnightblue" d="M2151.64,-549.38C2236.34,-541.92 2373.7,-528.52 2491.5,-511 2502.79,-509.32 2514.97,-507.16 2526.19,-505.02"/>
<polygon fill="midnightblue" stroke="midnightblue" points="2151.24,-545.9 2141.58,-550.26 2151.85,-552.87 2151.24,-545.9"/>
</g>
<!-- Node109 -->
<g id="node50" class="node">
<title>Node109</title>
<g id="a_node50"><a xlink:href="f__pc__node__req_8cpp.html" target="_top" xlink:title=" ">
<polygon fill="white" stroke="black" points="2652.5,-480.5 2652.5,-510.5 2752.5,-510.5 2752.5,-480.5 2652.5,-480.5"/>
<text text-anchor="start" x="2660.5" y="-498.5" font-family="Helvetica,sans-Serif" font-size="10.00">src/f_pc/f_pc_node</text>
<text text-anchor="middle" x="2702.5" y="-487.5" font-family="Helvetica,sans-Serif" font-size="10.00">_req.cpp</text>
</a>
</g>
</g>
<!-- Node1&#45;&gt;Node109 -->
<g id="edge72" class="edge">
<title>Node1&#45;&gt;Node109</title>
<path fill="none" stroke="midnightblue" d="M2152.07,-553.78C2263.25,-549.79 2469.69,-539 2643.5,-511 2646.42,-510.53 2649.4,-509.99 2652.4,-509.4"/>
<polygon fill="midnightblue" stroke="midnightblue" points="2151.81,-550.29 2141.94,-554.14 2152.06,-557.29 2151.81,-550.29"/>
</g>
<!-- Node3 -->
<g id="node3" class="node">
<title>Node3</title>
<g id="a_node3"><a xlink:href="d__cc__uty_8h.html" target="_top" xlink:title=" ">
<polygon fill="white" stroke="black" points="0,-62 0,-81 119,-81 119,-62 0,-62"/>
<text text-anchor="middle" x="59.5" y="-69" font-family="Helvetica,sans-Serif" font-size="10.00">include/d/cc/d_cc_uty.h</text>
</a>
</g>
</g>
<!-- Node2&#45;&gt;Node3 -->
<g id="edge2" class="edge">
<title>Node2&#45;&gt;Node3</title>
<path fill="none" stroke="midnightblue" d="M1431.38,-494.68C1218.32,-494.71 573.85,-490.82 370.5,-444 269.53,-420.75 156.5,-455.12 156.5,-351.5 156.5,-351.5 156.5,-351.5 156.5,-204.5 156.5,-148.19 98.47,-100.02 72.18,-81.09"/>
<polygon fill="midnightblue" stroke="midnightblue" points="1431.5,-498.18 1441.5,-494.67 1431.49,-491.18 1431.5,-498.18"/>
</g>
<!-- Node5 -->
<g id="node5" class="node">
<title>Node5</title>
<g id="a_node5"><a xlink:href="d__stage_8h.html" target="_top" xlink:title=" ">
<polygon fill="white" stroke="black" points="995,-413.5 995,-432.5 1096,-432.5 1096,-413.5 995,-413.5"/>
<text text-anchor="middle" x="1045.5" y="-420.5" font-family="Helvetica,sans-Serif" font-size="10.00">include/d/d_stage.h</text>
</a>
</g>
</g>
<!-- Node2&#45;&gt;Node5 -->
<g id="edge4" class="edge">
<title>Node2&#45;&gt;Node5</title>
<path fill="none" stroke="midnightblue" d="M1431.4,-483.79C1339.1,-469.49 1177.74,-444.49 1096.01,-431.83"/>
<polygon fill="midnightblue" stroke="midnightblue" points="1431.07,-487.28 1441.48,-485.36 1432.14,-480.37 1431.07,-487.28"/>
</g>
<!-- Node33 -->
<g id="node18" class="node">
<title>Node33</title>
<g id="a_node18"><a xlink:href="d__a__alink_8cpp.html" target="_top" xlink:title=" ">
<polygon fill="white" stroke="black" points="1530,-62 1530,-81 1639,-81 1639,-62 1530,-62"/>
<text text-anchor="middle" x="1584.5" y="-69" font-family="Helvetica,sans-Serif" font-size="10.00">src/d/a/d_a_alink.cpp</text>
</a>
</g>
</g>
<!-- Node2&#45;&gt;Node33 -->
<g id="edge57" class="edge">
<title>Node2&#45;&gt;Node33</title>
<path fill="none" stroke="midnightblue" d="M1490.18,-470.89C1478.93,-442.94 1462.5,-394.74 1462.5,-351.5 1462.5,-351.5 1462.5,-351.5 1462.5,-204.5 1462.5,-166.74 1462.44,-152.11 1486.5,-123 1503.94,-101.9 1532.47,-88.62 1554.27,-81"/>
<polygon fill="midnightblue" stroke="midnightblue" points="1486.99,-472.32 1494.05,-480.22 1493.45,-469.64 1486.99,-472.32"/>
</g>
<!-- Node35 -->
<g id="node20" class="node">
<title>Node35</title>
<g id="a_node20"><a xlink:href="d__a__player_8cpp.html" target="_top" xlink:title=" ">
<polygon fill="white" stroke="black" points="137.5,-62 137.5,-81 251.5,-81 251.5,-62 137.5,-62"/>
<text text-anchor="middle" x="194.5" y="-69" font-family="Helvetica,sans-Serif" font-size="10.00">src/d/a/d_a_player.cpp</text>
</a>
</g>
</g>
<!-- Node2&#45;&gt;Node35 -->
<g id="edge58" class="edge">
<title>Node2&#45;&gt;Node35</title>
<path fill="none" stroke="midnightblue" d="M1430.99,-493.64C1173.73,-489.57 290.5,-467.16 290.5,-351.5 290.5,-351.5 290.5,-351.5 290.5,-204.5 290.5,-148.39 233.07,-100.11 207.05,-81.12"/>
<polygon fill="midnightblue" stroke="midnightblue" points="1431.27,-497.15 1441.32,-493.8 1431.38,-490.15 1431.27,-497.15"/>
</g>
<!-- Node47 -->
<g id="node23" class="node">
<title>Node47</title>
<g id="a_node23"><a xlink:href="d__event_8cpp.html" target="_top" xlink:title=" ">
<polygon fill="white" stroke="black" points="1657,-62 1657,-81 1778,-81 1778,-62 1657,-62"/>
<text text-anchor="middle" x="1717.5" y="-69" font-family="Helvetica,sans-Serif" font-size="10.00">src/d/event/d_event.cpp</text>
</a>
</g>
</g>
<!-- Node2&#45;&gt;Node47 -->
<g id="edge62" class="edge">
<title>Node2&#45;&gt;Node47</title>
<path fill="none" stroke="midnightblue" d="M1500.5,-470.07C1500.5,-441.61 1500.5,-393.14 1500.5,-351.5 1500.5,-351.5 1500.5,-351.5 1500.5,-204.5 1500.5,-167.2 1494.26,-149.51 1520.5,-123 1526.18,-117.26 1624.41,-93.92 1679.97,-81.08"/>
<polygon fill="midnightblue" stroke="midnightblue" points="1497,-470.29 1500.5,-480.29 1504,-470.29 1497,-470.29"/>
</g>
<!-- Node85 -->
<g id="node27" class="node">
<title>Node85</title>
<g id="a_node27"><a xlink:href="d__a__crod_8h.html" target="_top" xlink:title=" ">
<polygon fill="white" stroke="black" points="1338.5,-263 1338.5,-293 1434.5,-293 1434.5,-263 1338.5,-263"/>
<text text-anchor="start" x="1346.5" y="-281" font-family="Helvetica,sans-Serif" font-size="10.00">include/rel/d/a/d_a</text>
<text text-anchor="middle" x="1386.5" y="-270" font-family="Helvetica,sans-Serif" font-size="10.00">_crod/d_a_crod.h</text>
</a>
</g>
</g>
<!-- Node2&#45;&gt;Node85 -->
<g id="edge54" class="edge">
<title>Node2&#45;&gt;Node85</title>
<path fill="none" stroke="midnightblue" d="M1474.62,-473.6C1465.43,-465.16 1455.61,-454.86 1448.5,-444 1439.8,-430.72 1404.47,-330.57 1391.4,-293.09"/>
<polygon fill="midnightblue" stroke="midnightblue" points="1472.31,-476.22 1482.12,-480.21 1476.94,-470.97 1472.31,-476.22"/>
</g>
<!-- Node92 -->
<g id="node32" class="node">
<title>Node92</title>
<g id="a_node32"><a xlink:href="f__op__actor__mng_8cpp.html" target="_top" xlink:title=" ">
<polygon fill="white" stroke="black" points="1295,-335.5 1295,-365.5 1396,-365.5 1396,-335.5 1295,-335.5"/>
<text text-anchor="start" x="1303" y="-353.5" font-family="Helvetica,sans-Serif" font-size="10.00">src/f_op/f_op_actor</text>
<text text-anchor="middle" x="1345.5" y="-342.5" font-family="Helvetica,sans-Serif" font-size="10.00">_mng.cpp</text>
</a>
</g>
</g>
<!-- Node2&#45;&gt;Node92 -->
<g id="edge63" class="edge">
<title>Node2&#45;&gt;Node92</title>
<path fill="none" stroke="midnightblue" d="M1458.22,-475.76C1442.22,-467.44 1424.5,-456.65 1410.5,-444 1384.58,-420.58 1363.28,-385.01 1352.71,-365.51"/>
<polygon fill="midnightblue" stroke="midnightblue" points="1456.9,-479.01 1467.4,-480.37 1460.03,-472.75 1456.9,-479.01"/>
</g>
<!-- Node93 -->
<g id="node33" class="node">
<title>Node93</title>
<g id="a_node33"><a xlink:href="f__op__scene__mng_8h.html" target="_top" xlink:title=" ">
<polygon fill="white" stroke="black" points="1593.5,-190.5 1593.5,-220.5 1715.5,-220.5 1715.5,-190.5 1593.5,-190.5"/>
<text text-anchor="start" x="1601.5" y="-208.5" font-family="Helvetica,sans-Serif" font-size="10.00">include/f_op/f_op_scene</text>
<text text-anchor="middle" x="1654.5" y="-197.5" font-family="Helvetica,sans-Serif" font-size="10.00">_mng.h</text>
</a>
</g>
</g>
<!-- Node2&#45;&gt;Node93 -->
<g id="edge47" class="edge">
<title>Node2&#45;&gt;Node93</title>
<path fill="none" stroke="midnightblue" d="M1512.97,-471.18C1543.7,-413.71 1622.35,-266.62 1647,-220.53"/>
<polygon fill="midnightblue" stroke="midnightblue" points="1509.77,-469.75 1508.14,-480.22 1515.94,-473.05 1509.77,-469.75"/>
</g>
<!-- Node97 -->
<g id="node37" class="node">
<title>Node97</title>
<g id="a_node37"><a xlink:href="d__a__tag__lv5soup_8h.html" target="_top" xlink:title=" ">
<polygon fill="white" stroke="black" points="1566.5,-402.5 1566.5,-443.5 1678.5,-443.5 1678.5,-402.5 1566.5,-402.5"/>
<text text-anchor="start" x="1574.5" y="-431.5" font-family="Helvetica,sans-Serif" font-size="10.00">include/rel/d/a/tag</text>
<text text-anchor="start" x="1574.5" y="-420.5" font-family="Helvetica,sans-Serif" font-size="10.00">/d_a_tag_lv5soup/d_a</text>
<text text-anchor="middle" x="1622.5" y="-409.5" font-family="Helvetica,sans-Serif" font-size="10.00">_tag_lv5soup.h</text>
</a>
</g>
</g>
<!-- Node2&#45;&gt;Node97 -->
<g id="edge55" class="edge">
<title>Node2&#45;&gt;Node97</title>
<path fill="none" stroke="midnightblue" d="M1533.9,-475.2C1550.85,-465.41 1571.4,-453.53 1588.44,-443.68"/>
<polygon fill="midnightblue" stroke="midnightblue" points="1531.8,-472.37 1524.9,-480.4 1535.3,-478.43 1531.8,-472.37"/>
</g>
<!-- Node98 -->
<g id="node38" class="node">
<title>Node98</title>
<g id="a_node38"><a xlink:href="d__a__tag__setBall_8h.html" target="_top" xlink:title=" ">
<polygon fill="white" stroke="black" points="1696.5,-402.5 1696.5,-443.5 1804.5,-443.5 1804.5,-402.5 1696.5,-402.5"/>
<text text-anchor="start" x="1704.5" y="-431.5" font-family="Helvetica,sans-Serif" font-size="10.00">include/rel/d/a/tag</text>
<text text-anchor="start" x="1704.5" y="-420.5" font-family="Helvetica,sans-Serif" font-size="10.00">/d_a_tag_setBall/d_a</text>
<text text-anchor="middle" x="1750.5" y="-409.5" font-family="Helvetica,sans-Serif" font-size="10.00">_tag_setBall.h</text>
</a>
</g>
</g>
<!-- Node2&#45;&gt;Node98 -->
<g id="edge56" class="edge">
<title>Node2&#45;&gt;Node98</title>
<path fill="none" stroke="midnightblue" d="M1565.01,-477.82C1601.14,-468.29 1646.95,-455.91 1687.5,-444 1690.36,-443.16 1693.29,-442.28 1696.25,-441.39"/>
<polygon fill="midnightblue" stroke="midnightblue" points="1563.87,-474.5 1555.09,-480.43 1565.65,-481.27 1563.87,-474.5"/>
</g>
<!-- Node99 -->
<g id="node39" class="node">
<title>Node99</title>
<g id="a_node39"><a xlink:href="d__bg__s__lin__chk_8cpp.html" target="_top" xlink:title=" ">
<polygon fill="white" stroke="black" points="1823,-408 1823,-438 1924,-438 1924,-408 1823,-408"/>
<text text-anchor="start" x="1831" y="-426" font-family="Helvetica,sans-Serif" font-size="10.00">src/d/bg/d_bg_s_lin</text>
<text text-anchor="middle" x="1873.5" y="-415" font-family="Helvetica,sans-Serif" font-size="10.00">_chk.cpp</text>
</a>
</g>
</g>
<!-- Node2&#45;&gt;Node99 -->
<g id="edge59" class="edge">
<title>Node2&#45;&gt;Node99</title>
<path fill="none" stroke="midnightblue" d="M1569.86,-479.84C1678.62,-461.01 1709.57,-468.75 1813.5,-444 1820.44,-442.35 1827.73,-440.24 1834.73,-438.03"/>
<polygon fill="midnightblue" stroke="midnightblue" points="1569.03,-476.43 1559.79,-481.62 1570.25,-483.33 1569.03,-476.43"/>
</g>
<!-- Node100 -->
<g id="node40" class="node">
<title>Node100</title>
<g id="a_node40"><a xlink:href="d__cc__d__nonmatching_8cpp.html" target="_top" xlink:title=" ">
<polygon fill="white" stroke="black" points="1942,-413.5 1942,-432.5 2107,-432.5 2107,-413.5 1942,-413.5"/>
<text text-anchor="middle" x="2024.5" y="-420.5" font-family="Helvetica,sans-Serif" font-size="10.00">src/d/cc/d_cc_d_nonmatching.cpp</text>
</a>
</g>
</g>
<!-- Node2&#45;&gt;Node100 -->
<g id="edge60" class="edge">
<title>Node2&#45;&gt;Node100</title>
<path fill="none" stroke="midnightblue" d="M1570.06,-479.88C1731.39,-455.54 1775.81,-469.02 1933.5,-444 1952.35,-441.01 1973.16,-436.53 1990.11,-432.56"/>
<polygon fill="midnightblue" stroke="midnightblue" points="1569.12,-476.48 1559.77,-481.45 1570.18,-483.4 1569.12,-476.48"/>
</g>
<!-- Node77 -->
<g id="node41" class="node">
<title>Node77</title>
<g id="a_node41"><a xlink:href="d__bomb_8cpp.html" target="_top" xlink:title=" ">
<polygon fill="white" stroke="black" points="2125.5,-413.5 2125.5,-432.5 2219.5,-432.5 2219.5,-413.5 2125.5,-413.5"/>
<text text-anchor="middle" x="2172.5" y="-420.5" font-family="Helvetica,sans-Serif" font-size="10.00">src/d/d_bomb.cpp</text>
</a>
</g>
</g>
<!-- Node2&#45;&gt;Node77 -->
<g id="edge61" class="edge">
<title>Node2&#45;&gt;Node77</title>
<path fill="none" stroke="midnightblue" d="M1569.92,-479.95C1812.14,-447.73 1880.76,-492.85 2116.5,-444 2128.83,-441.44 2142.13,-436.78 2152.67,-432.6"/>
<polygon fill="midnightblue" stroke="midnightblue" points="1569.19,-476.52 1559.75,-481.34 1570.13,-483.46 1569.19,-476.52"/>
</g>
<!-- Node4 -->
<g id="node4" class="node">
<title>Node4</title>
<g id="a_node4"><a xlink:href="d__cc__uty_8cpp.html" target="_top" xlink:title=" ">
<polygon fill="white" stroke="black" points="193.5,-0.5 193.5,-19.5 305.5,-19.5 305.5,-0.5 193.5,-0.5"/>
<text text-anchor="middle" x="249.5" y="-7.5" font-family="Helvetica,sans-Serif" font-size="10.00">src/d/cc/d_cc_uty.cpp</text>
</a>
</g>
</g>
<!-- Node3&#45;&gt;Node4 -->
<g id="edge3" class="edge">
<title>Node3&#45;&gt;Node4</title>
<path fill="none" stroke="midnightblue" d="M96.6,-58.88C133.54,-47.32 189.34,-29.84 222.33,-19.51"/>
<polygon fill="midnightblue" stroke="midnightblue" points="95.22,-55.65 86.72,-61.98 97.31,-62.33 95.22,-55.65"/>
</g>
<!-- Node6 -->
<g id="node6" class="node">
<title>Node6</title>
<g id="a_node6"><a xlink:href="d__a__player_8h.html" target="_top" xlink:title=" ">
<polygon fill="white" stroke="black" points="713,-341 713,-360 834,-360 834,-341 713,-341"/>
<text text-anchor="middle" x="773.5" y="-348" font-family="Helvetica,sans-Serif" font-size="10.00">include/d/a/d_a_player.h</text>
</a>
</g>
</g>
<!-- Node5&#45;&gt;Node6 -->
<g id="edge5" class="edge">
<title>Node5&#45;&gt;Node6</title>
<path fill="none" stroke="midnightblue" d="M1002.67,-410.9C948.28,-396.8 855.61,-372.78 806.43,-360.03"/>
<polygon fill="midnightblue" stroke="midnightblue" points="1002.13,-414.38 1012.69,-413.5 1003.89,-407.6 1002.13,-414.38"/>
</g>
<!-- Node8 -->
<g id="node8" class="node">
<title>Node8</title>
<g id="a_node8"><a xlink:href="d__com__inf__game_8h.html" target="_top" xlink:title=" ">
<polygon fill="white" stroke="red" points="908.5,-123.5 908.5,-153.5 1018.5,-153.5 1018.5,-123.5 908.5,-123.5"/>
<text text-anchor="start" x="916.5" y="-141.5" font-family="Helvetica,sans-Serif" font-size="10.00">include/d/com/d_com</text>
<text text-anchor="middle" x="963.5" y="-130.5" font-family="Helvetica,sans-Serif" font-size="10.00">_inf_game.h</text>
</a>
</g>
</g>
<!-- Node5&#45;&gt;Node8 -->
<g id="edge40" class="edge">
<title>Node5&#45;&gt;Node8</title>
<path fill="none" stroke="midnightblue" d="M984.54,-421.11C896.09,-418.38 738.86,-407.62 703.5,-366 691.21,-351.54 682.58,-294.39 707.5,-257 752.72,-189.14 847.65,-159.83 908.34,-147.64"/>
<polygon fill="midnightblue" stroke="midnightblue" points="984.61,-424.61 994.71,-421.4 984.81,-417.61 984.61,-424.61"/>
</g>
<!-- Node44 -->
<g id="node22" class="node">
<title>Node44</title>
<g id="a_node22"><a xlink:href="d__stage_8cpp.html" target="_top" xlink:title=" ">
<polygon fill="white" stroke="black" points="269.5,-62 269.5,-81 363.5,-81 363.5,-62 269.5,-62"/>
<text text-anchor="middle" x="316.5" y="-69" font-family="Helvetica,sans-Serif" font-size="10.00">src/d/d_stage.cpp</text>
</a>
</g>
</g>
<!-- Node5&#45;&gt;Node44 -->
<g id="edge44" class="edge">
<title>Node5&#45;&gt;Node44</title>
<path fill="none" stroke="midnightblue" d="M984.82,-418.39C846.07,-408.48 517.5,-374.89 517.5,-279 517.5,-279 517.5,-279 517.5,-204.5 517.5,-161.71 388.61,-102.81 337.25,-81.03"/>
<polygon fill="midnightblue" stroke="midnightblue" points="984.65,-421.89 994.87,-419.09 985.14,-414.91 984.65,-421.89"/>
</g>
<!-- Node63 -->
<g id="node26" class="node">
<title>Node63</title>
<g id="a_node26"><a xlink:href="d__event_8h.html" target="_top" xlink:title=" ">
<polygon fill="white" stroke="black" points="1166.5,-196 1166.5,-215 1294.5,-215 1294.5,-196 1166.5,-196"/>
<text text-anchor="middle" x="1230.5" y="-203" font-family="Helvetica,sans-Serif" font-size="10.00">include/d/event/d_event.h</text>
</a>
</g>
</g>
<!-- Node5&#45;&gt;Node63 -->
<g id="edge41" class="edge">
<title>Node5&#45;&gt;Node63</title>
<path fill="none" stroke="midnightblue" d="M1106.07,-413.38C1159.11,-404.44 1230.32,-388.59 1247.5,-366 1283.07,-319.23 1248.46,-241.2 1235.19,-215.22"/>
<polygon fill="midnightblue" stroke="midnightblue" points="1105.37,-409.94 1096.07,-415.02 1106.5,-416.85 1105.37,-409.94"/>
</g>
<!-- Node87 -->
<g id="node29" class="node">
<title>Node87</title>
<g id="a_node29"><a xlink:href="d__event__data_8h.html" target="_top" xlink:title=" ">
<polygon fill="white" stroke="red" points="852.5,-335.5 852.5,-365.5 972.5,-365.5 972.5,-335.5 852.5,-335.5"/>
<text text-anchor="start" x="860.5" y="-353.5" font-family="Helvetica,sans-Serif" font-size="10.00">include/d/event/d_event</text>
<text text-anchor="middle" x="912.5" y="-342.5" font-family="Helvetica,sans-Serif" font-size="10.00">_data.h</text>
</a>
</g>
</g>
<!-- Node5&#45;&gt;Node87 -->
<g id="edge42" class="edge">
<title>Node5&#45;&gt;Node87</title>
<path fill="none" stroke="midnightblue" d="M1020.57,-408.78C997.37,-396.49 962.91,-378.22 939.17,-365.64"/>
<polygon fill="midnightblue" stroke="midnightblue" points="1018.98,-411.9 1029.46,-413.5 1022.26,-405.72 1018.98,-411.9"/>
</g>
<!-- Node89 -->
<g id="node30" class="node">
<title>Node89</title>
<g id="a_node30"><a xlink:href="d__map__path__dmap_8h.html" target="_top" xlink:title=" ">
<polygon fill="white" stroke="red" points="990.5,-335.5 990.5,-365.5 1100.5,-365.5 1100.5,-335.5 990.5,-335.5"/>
<text text-anchor="start" x="998.5" y="-353.5" font-family="Helvetica,sans-Serif" font-size="10.00">include/d/map/d_map</text>
<text text-anchor="middle" x="1045.5" y="-342.5" font-family="Helvetica,sans-Serif" font-size="10.00">_path_dmap.h</text>
</a>
</g>
</g>
<!-- Node5&#45;&gt;Node89 -->
<g id="edge43" class="edge">
<title>Node5&#45;&gt;Node89</title>
<path fill="none" stroke="midnightblue" d="M1045.5,-403.24C1045.5,-391.41 1045.5,-376.38 1045.5,-365.58"/>
<polygon fill="midnightblue" stroke="midnightblue" points="1042,-403.36 1045.5,-413.36 1049,-403.36 1042,-403.36"/>
</g>
<!-- Node91 -->
<g id="node31" class="node">
<title>Node91</title>
<g id="a_node31"><a xlink:href="f__op__actor_8cpp.html" target="_top" xlink:title=" ">
<polygon fill="white" stroke="black" points="1119,-341 1119,-360 1238,-360 1238,-341 1119,-341"/>
<text text-anchor="middle" x="1178.5" y="-348" font-family="Helvetica,sans-Serif" font-size="10.00">src/f_op/f_op_actor.cpp</text>
</a>
</g>
</g>
<!-- Node5&#45;&gt;Node91 -->
<g id="edge45" class="edge">
<title>Node5&#45;&gt;Node91</title>
<path fill="none" stroke="midnightblue" d="M1070.38,-408.81C1097.32,-394.53 1139.5,-372.17 1162.4,-360.03"/>
<polygon fill="midnightblue" stroke="midnightblue" points="1068.74,-405.72 1061.54,-413.5 1072.02,-411.9 1068.74,-405.72"/>
</g>
<!-- Node5&#45;&gt;Node92 -->
<g id="edge46" class="edge">
<title>Node5&#45;&gt;Node92</title>
<path fill="none" stroke="midnightblue" d="M1091.5,-411.19C1146.44,-398.28 1238.04,-376.75 1294.92,-363.39"/>
<polygon fill="midnightblue" stroke="midnightblue" points="1090.62,-407.8 1081.69,-413.5 1092.22,-414.62 1090.62,-407.8"/>
</g>
<!-- Node7 -->
<g id="node7" class="node">
<title>Node7</title>
<g id="a_node7"><a xlink:href="d__a__alink_8h.html" target="_top" xlink:title=" ">
<polygon fill="white" stroke="black" points="922.5,-196 922.5,-215 1038.5,-215 1038.5,-196 922.5,-196"/>
<text text-anchor="middle" x="980.5" y="-203" font-family="Helvetica,sans-Serif" font-size="10.00">include/d/a/d_a_alink.h</text>
</a>
</g>
</g>
<!-- Node6&#45;&gt;Node7 -->
<g id="edge6" class="edge">
<title>Node6&#45;&gt;Node7</title>
<path fill="none" stroke="midnightblue" d="M823.93,-338.81C876.29,-327.27 951.92,-309.17 961.5,-299 983.64,-275.49 982.96,-233.39 981.47,-215.23"/>
<polygon fill="midnightblue" stroke="midnightblue" points="823.14,-335.4 814.12,-340.96 824.63,-342.24 823.14,-335.4"/>
</g>
<!-- Node6&#45;&gt;Node35 -->
<g id="edge39" class="edge">
<title>Node6&#45;&gt;Node35</title>
<path fill="none" stroke="midnightblue" d="M746.91,-336.43C675.53,-301.4 473.65,-202.66 304.5,-123 272.75,-108.05 235.61,-91.11 213.63,-81.15"/>
<polygon fill="midnightblue" stroke="midnightblue" points="745.58,-339.68 756.1,-340.94 748.66,-333.4 745.58,-339.68"/>
</g>
<!-- Node59 -->
<g id="node24" class="node">
<title>Node59</title>
<g id="a_node24"><a xlink:href="d__bg__s__acch_8h.html" target="_top" xlink:title=" ">
<polygon fill="white" stroke="red" points="848.5,-263 848.5,-293 952.5,-293 952.5,-263 848.5,-263"/>
<text text-anchor="start" x="856.5" y="-281" font-family="Helvetica,sans-Serif" font-size="10.00">include/d/bg/d_bg_s</text>
<text text-anchor="middle" x="900.5" y="-270" font-family="Helvetica,sans-Serif" font-size="10.00">_acch.h</text>
</a>
</g>
</g>
<!-- Node6&#45;&gt;Node59 -->
<g id="edge28" class="edge">
<title>Node6&#45;&gt;Node59</title>
<path fill="none" stroke="midnightblue" d="M797.88,-335.97C820.06,-323.66 852.67,-305.55 875.14,-293.08"/>
<polygon fill="midnightblue" stroke="midnightblue" points="796.12,-332.94 789.07,-340.86 799.51,-339.06 796.12,-332.94"/>
</g>
<!-- Node82 -->
<g id="node25" class="node">
<title>Node82</title>
<g id="a_node25"><a xlink:href="d__attention_8h.html" target="_top" xlink:title=" ">
<polygon fill="white" stroke="red" points="716.5,-268.5 716.5,-287.5 830.5,-287.5 830.5,-268.5 716.5,-268.5"/>
<text text-anchor="middle" x="773.5" y="-275.5" font-family="Helvetica,sans-Serif" font-size="10.00">include/d/d_attention.h</text>
</a>
</g>
</g>
<!-- Node6&#45;&gt;Node82 -->
<g id="edge29" class="edge">
<title>Node6&#45;&gt;Node82</title>
<path fill="none" stroke="midnightblue" d="M773.5,-330.44C773.5,-316.53 773.5,-298.32 773.5,-287.72"/>
<polygon fill="midnightblue" stroke="midnightblue" points="770,-330.86 773.5,-340.86 777,-330.86 770,-330.86"/>
</g>
<!-- Node6&#45;&gt;Node63 -->
<g id="edge32" class="edge">
<title>Node6&#45;&gt;Node63</title>
<path fill="none" stroke="midnightblue" d="M822.19,-338.87C829.32,-337.47 836.59,-336.13 843.5,-335 975.16,-313.45 1022.11,-358.52 1141.5,-299 1181.19,-279.21 1212.95,-234.29 1225.13,-215.27"/>
<polygon fill="midnightblue" stroke="midnightblue" points="821.01,-335.53 811.9,-340.94 822.4,-342.39 821.01,-335.53"/>
</g>
<!-- Node6&#45;&gt;Node85 -->
<g id="edge35" class="edge">
<title>Node6&#45;&gt;Node85</title>
<path fill="none" stroke="midnightblue" d="M821.15,-338.93C828.61,-337.47 836.25,-336.11 843.5,-335 1004.65,-310.43 1046.39,-316.1 1208.5,-299 1252.41,-294.37 1302.38,-288.72 1338.17,-284.61"/>
<polygon fill="midnightblue" stroke="midnightblue" points="820.26,-335.53 811.15,-340.94 821.64,-342.4 820.26,-335.53"/>
</g>
<!-- Node86 -->
<g id="node28" class="node">
<title>Node86</title>
<g id="a_node28"><a xlink:href="d__a__tag__mmsg_8h.html" target="_top" xlink:title=" ">
<polygon fill="white" stroke="black" points="1008.5,-257.5 1008.5,-298.5 1132.5,-298.5 1132.5,-257.5 1008.5,-257.5"/>
<text text-anchor="start" x="1016.5" y="-286.5" font-family="Helvetica,sans-Serif" font-size="10.00">include/rel/d/a/tag</text>
<text text-anchor="start" x="1016.5" y="-275.5" font-family="Helvetica,sans-Serif" font-size="10.00">/d_a_tag_mmsg/d_a_tag</text>
<text text-anchor="middle" x="1070.5" y="-264.5" font-family="Helvetica,sans-Serif" font-size="10.00">_mmsg.h</text>
</a>
</g>
</g>
<!-- Node6&#45;&gt;Node86 -->
<g id="edge37" class="edge">
<title>Node6&#45;&gt;Node86</title>
<path fill="none" stroke="midnightblue" d="M822.76,-338.73C867.62,-328.8 935.64,-313.47 994.5,-299 999,-297.89 1003.65,-296.73 1008.33,-295.54"/>
<polygon fill="midnightblue" stroke="midnightblue" points="821.72,-335.37 812.71,-340.95 823.23,-342.21 821.72,-335.37"/>
</g>
<!-- Node7&#45;&gt;Node8 -->
<g id="edge7" class="edge">
<title>Node7&#45;&gt;Node8</title>
<path fill="none" stroke="midnightblue" d="M975.59,-185.74C972.91,-175.49 969.65,-163 967.18,-153.59"/>
<polygon fill="midnightblue" stroke="midnightblue" points="972.29,-186.94 978.21,-195.73 979.06,-185.17 972.29,-186.94"/>
</g>
<!-- Node7&#45;&gt;Node33 -->
<g id="edge27" class="edge">
<title>Node7&#45;&gt;Node33</title>
<path fill="none" stroke="midnightblue" d="M1030.07,-193.86C1125.21,-173.41 1339.99,-127.09 1520.5,-87 1529.06,-85.1 1538.27,-83.03 1546.95,-81.06"/>
<polygon fill="midnightblue" stroke="midnightblue" points="1029.2,-190.47 1020.16,-195.99 1030.67,-197.31 1029.2,-190.47"/>
</g>
<!-- Node8&#45;&gt;Node3 -->
<g id="edge8" class="edge">
<title>Node8&#45;&gt;Node3</title>
<path fill="none" stroke="midnightblue" d="M897.8,-136.8C756.44,-134.57 413.2,-125.31 128.5,-87 117.58,-85.53 105.81,-83.3 95.14,-81.03"/>
<polygon fill="midnightblue" stroke="midnightblue" points="897.97,-140.3 908.02,-136.95 898.08,-133.3 897.97,-140.3"/>
</g>
<!-- Node9 -->
<g id="node9" class="node">
<title>Node9</title>
<g id="a_node9"><a xlink:href="d__item_8h.html" target="_top" xlink:title=" ">
<polygon fill="white" stroke="red" points="782,-62 782,-81 877,-81 877,-62 782,-62"/>
<text text-anchor="middle" x="829.5" y="-69" font-family="Helvetica,sans-Serif" font-size="10.00">include/d/d_item.h</text>
</a>
</g>
</g>
<!-- Node8&#45;&gt;Node9 -->
<g id="edge9" class="edge">
<title>Node8&#45;&gt;Node9</title>
<path fill="none" stroke="midnightblue" d="M925.29,-118.97C899.55,-106.48 866.81,-90.6 847.04,-81.01"/>
<polygon fill="midnightblue" stroke="midnightblue" points="923.9,-122.18 934.42,-123.4 926.95,-115.88 923.9,-122.18"/>
</g>
<!-- Node13 -->
<g id="node11" class="node">
<title>Node13</title>
<g id="a_node11"><a xlink:href="d__kantera__icon__meter_8h.html" target="_top" xlink:title=" ">
<polygon fill="white" stroke="red" points="895,-56.5 895,-86.5 996,-86.5 996,-56.5 895,-56.5"/>
<text text-anchor="start" x="903" y="-74.5" font-family="Helvetica,sans-Serif" font-size="10.00">include/d/d_kantera</text>
<text text-anchor="middle" x="945.5" y="-63.5" font-family="Helvetica,sans-Serif" font-size="10.00">_icon_meter.h</text>
</a>
</g>
</g>
<!-- Node8&#45;&gt;Node13 -->
<g id="edge11" class="edge">
<title>Node8&#45;&gt;Node13</title>
<path fill="none" stroke="midnightblue" d="M956.91,-113.7C954.39,-104.59 951.59,-94.49 949.4,-86.58"/>
<polygon fill="midnightblue" stroke="midnightblue" points="953.55,-114.69 959.59,-123.4 960.3,-112.82 953.55,-114.69"/>
</g>
<!-- Node16 -->
<g id="node12" class="node">
<title>Node16</title>
<g id="a_node12"><a xlink:href="d__model_8h.html" target="_top" xlink:title=" ">
<polygon fill="white" stroke="red" points="1014,-62 1014,-81 1117,-81 1117,-62 1014,-62"/>
<text text-anchor="middle" x="1065.5" y="-69" font-family="Helvetica,sans-Serif" font-size="10.00">include/d/d_model.h</text>
</a>
</g>
</g>
<!-- Node8&#45;&gt;Node16 -->
<g id="edge12" class="edge">
<title>Node8&#45;&gt;Node16</title>
<path fill="none" stroke="midnightblue" d="M994.14,-117.97C1013.48,-105.65 1037.5,-90.35 1052.15,-81.01"/>
<polygon fill="midnightblue" stroke="midnightblue" points="992.18,-115.07 985.63,-123.4 995.95,-120.97 992.18,-115.07"/>
</g>
<!-- Node18 -->
<g id="node13" class="node">
<title>Node18</title>
<g id="a_node13"><a xlink:href="d__file__sel__info_8h.html" target="_top" xlink:title=" ">
<polygon fill="white" stroke="red" points="1135.5,-56.5 1135.5,-86.5 1231.5,-86.5 1231.5,-56.5 1135.5,-56.5"/>
<text text-anchor="start" x="1143.5" y="-74.5" font-family="Helvetica,sans-Serif" font-size="10.00">include/d/file/d_file</text>
<text text-anchor="middle" x="1183.5" y="-63.5" font-family="Helvetica,sans-Serif" font-size="10.00">_sel_info.h</text>
</a>
</g>
</g>
<!-- Node8&#45;&gt;Node18 -->
<g id="edge13" class="edge">
<title>Node8&#45;&gt;Node18</title>
<path fill="none" stroke="midnightblue" d="M1020.77,-120.58C1056.5,-110.02 1101.96,-96.59 1135.74,-86.61"/>
<polygon fill="midnightblue" stroke="midnightblue" points="1019.56,-117.29 1010.97,-123.48 1021.55,-124 1019.56,-117.29"/>
</g>
<!-- Node20 -->
<g id="node14" class="node">
<title>Node20</title>
<g id="a_node14"><a xlink:href="d__meter2_8h.html" target="_top" xlink:title=" ">
<polygon fill="white" stroke="red" points="1249.5,-62 1249.5,-81 1383.5,-81 1383.5,-62 1249.5,-62"/>
<text text-anchor="middle" x="1316.5" y="-69" font-family="Helvetica,sans-Serif" font-size="10.00">include/d/meter/d_meter2.h</text>
</a>
</g>
</g>
<!-- Node8&#45;&gt;Node20 -->
<g id="edge14" class="edge">
<title>Node8&#45;&gt;Node20</title>
<path fill="none" stroke="midnightblue" d="M1028.87,-125.74C1085.02,-115.6 1168.12,-100.5 1240.5,-87 1250.67,-85.1 1261.59,-83.04 1271.9,-81.07"/>
<polygon fill="midnightblue" stroke="midnightblue" points="1027.93,-122.35 1018.71,-127.57 1029.17,-129.24 1027.93,-122.35"/>
</g>
<!-- Node28 -->
<g id="node15" class="node">
<title>Node28</title>
<g id="a_node15"><a xlink:href="d__msg__object_8h.html" target="_top" xlink:title=" ">
<polygon fill="white" stroke="red" points="1401.5,-56.5 1401.5,-86.5 1511.5,-86.5 1511.5,-56.5 1401.5,-56.5"/>
<text text-anchor="start" x="1409.5" y="-74.5" font-family="Helvetica,sans-Serif" font-size="10.00">include/d/msg/d_msg</text>
<text text-anchor="middle" x="1456.5" y="-63.5" font-family="Helvetica,sans-Serif" font-size="10.00">_object.h</text>
</a>
</g>
</g>
<!-- Node8&#45;&gt;Node28 -->
<g id="edge15" class="edge">
<title>Node8&#45;&gt;Node28</title>
<path fill="none" stroke="midnightblue" d="M1028.82,-131.97C1113.19,-124.34 1264.43,-108.98 1392.5,-87 1395.42,-86.5 1398.41,-85.95 1401.42,-85.37"/>
<polygon fill="midnightblue" stroke="midnightblue" points="1028.27,-128.51 1018.62,-132.89 1028.89,-135.48 1028.27,-128.51"/>
</g>
<!-- Node31 -->
<g id="node16" class="node">
<title>Node31</title>
<g id="a_node16"><a xlink:href="d__s__play_8h.html" target="_top" xlink:title=" ">
<polygon fill="white" stroke="black" points="382,-62 382,-81 495,-81 495,-62 382,-62"/>
<text text-anchor="middle" x="438.5" y="-69" font-family="Helvetica,sans-Serif" font-size="10.00">include/d/s/d_s_play.h</text>
</a>
</g>
</g>
<!-- Node8&#45;&gt;Node31 -->
<g id="edge17" class="edge">
<title>Node8&#45;&gt;Node31</title>
<path fill="none" stroke="midnightblue" d="M898.52,-132.55C809.31,-125.25 644.08,-109.94 504.5,-87 494.54,-85.36 483.83,-83.19 473.99,-81.03"/>
<polygon fill="midnightblue" stroke="midnightblue" points="898.23,-136.04 908.48,-133.36 898.8,-129.06 898.23,-136.04"/>
</g>
<!-- Node32 -->
<g id="node17" class="node">
<title>Node32</title>
<g id="a_node17"><a xlink:href="c__dylink_8cpp.html" target="_top" xlink:title=" ">
<polygon fill="white" stroke="black" points="1796,-62 1796,-81 1891,-81 1891,-62 1796,-62"/>
<text text-anchor="middle" x="1843.5" y="-69" font-family="Helvetica,sans-Serif" font-size="10.00">src/c/c_dylink.cpp</text>
</a>
</g>
</g>
<!-- Node8&#45;&gt;Node32 -->
<g id="edge20" class="edge">
<title>Node8&#45;&gt;Node32</title>
<path fill="none" stroke="midnightblue" d="M1029,-137.74C1169.1,-137.32 1507.85,-131.35 1787.5,-87 1796.53,-85.57 1806.21,-83.32 1814.95,-81.02"/>
<polygon fill="midnightblue" stroke="midnightblue" points="1028.86,-134.24 1018.86,-137.76 1028.87,-141.24 1028.86,-134.24"/>
</g>
<!-- Node8&#45;&gt;Node33 -->
<g id="edge21" class="edge">
<title>Node8&#45;&gt;Node33</title>
<path fill="none" stroke="midnightblue" d="M1029.23,-132.64C1155.44,-123.13 1427.45,-101.69 1520.5,-87 1530.4,-85.44 1541.06,-83.23 1550.78,-81.02"/>
<polygon fill="midnightblue" stroke="midnightblue" points="1028.65,-129.17 1018.94,-133.41 1029.17,-136.15 1028.65,-129.17"/>
</g>
<!-- Node34 -->
<g id="node19" class="node">
<title>Node34</title>
<g id="a_node19"><a xlink:href="d__a__itembase_8cpp.html" target="_top" xlink:title=" ">
<polygon fill="white" stroke="black" points="513.5,-62 513.5,-81 641.5,-81 641.5,-62 513.5,-62"/>
<text text-anchor="middle" x="577.5" y="-69" font-family="Helvetica,sans-Serif" font-size="10.00">src/d/a/d_a_itembase.cpp</text>
</a>
</g>
</g>
<!-- Node8&#45;&gt;Node34 -->
<g id="edge22" class="edge">
<title>Node8&#45;&gt;Node34</title>
<path fill="none" stroke="midnightblue" d="M898.02,-127.64C834.61,-117.93 735.81,-102.35 650.5,-87 640.33,-85.17 629.38,-83.07 619.14,-81.04"/>
<polygon fill="midnightblue" stroke="midnightblue" points="897.86,-131.16 908.27,-129.21 898.91,-124.24 897.86,-131.16"/>
</g>
<!-- Node8&#45;&gt;Node35 -->
<g id="edge23" class="edge">
<title>Node8&#45;&gt;Node35</title>
<path fill="none" stroke="midnightblue" d="M898.33,-134.03C748.41,-125.84 382.58,-104.7 260.5,-87 250.17,-85.5 239.04,-83.29 228.92,-81.05"/>
<polygon fill="midnightblue" stroke="midnightblue" points="898.14,-137.52 908.32,-134.57 898.52,-130.53 898.14,-137.52"/>
</g>
<!-- Node36 -->
<g id="node21" class="node">
<title>Node36</title>
<g id="a_node21"><a xlink:href="d__bg__s_8cpp.html" target="_top" xlink:title=" ">
<polygon fill="white" stroke="black" points="659.5,-62 659.5,-81 763.5,-81 763.5,-62 659.5,-62"/>
<text text-anchor="middle" x="711.5" y="-69" font-family="Helvetica,sans-Serif" font-size="10.00">src/d/bg/d_bg_s.cpp</text>
</a>
</g>
</g>
<!-- Node8&#45;&gt;Node36 -->
<g id="edge24" class="edge">
<title>Node8&#45;&gt;Node36</title>
<path fill="none" stroke="midnightblue" d="M899.18,-120.91C849.83,-108.18 783.72,-91.13 744.56,-81.03"/>
<polygon fill="midnightblue" stroke="midnightblue" points="898.57,-124.37 909.13,-123.48 900.32,-117.59 898.57,-124.37"/>
</g>
<!-- Node8&#45;&gt;Node44 -->
<g id="edge25" class="edge">
<title>Node8&#45;&gt;Node44</title>
<path fill="none" stroke="midnightblue" d="M898.09,-133.31C766.12,-124.61 472.07,-104.02 372.5,-87 363.69,-85.49 354.24,-83.28 345.65,-81.04"/>
<polygon fill="midnightblue" stroke="midnightblue" points="898.25,-136.82 908.45,-133.99 898.7,-129.84 898.25,-136.82"/>
</g>
<!-- Node8&#45;&gt;Node47 -->
<g id="edge26" class="edge">
<title>Node8&#45;&gt;Node47</title>
<path fill="none" stroke="midnightblue" d="M1029.13,-135.58C1151.48,-131.35 1422.48,-118.93 1648.5,-87 1659.29,-85.48 1670.91,-83.26 1681.49,-81.02"/>
<polygon fill="midnightblue" stroke="midnightblue" points="1028.69,-132.09 1018.82,-135.93 1028.93,-139.09 1028.69,-132.09"/>
</g>
<!-- Node12 -->
<g id="node10" class="node">
<title>Node12</title>
<g id="a_node10"><a xlink:href="d__s__play_8cpp.html" target="_top" xlink:title=" ">
<polygon fill="white" stroke="black" points="1089.5,-0.5 1089.5,-19.5 1195.5,-19.5 1195.5,-0.5 1089.5,-0.5"/>
<text text-anchor="middle" x="1142.5" y="-7.5" font-family="Helvetica,sans-Serif" font-size="10.00">src/d/s/d_s_play.cpp</text>
</a>
</g>
</g>
<!-- Node9&#45;&gt;Node12 -->
<g id="edge10" class="edge">
<title>Node9&#45;&gt;Node12</title>
<path fill="none" stroke="midnightblue" d="M870.79,-59.41C875.73,-58.2 880.72,-57.04 885.5,-56 955.45,-40.85 1036.95,-27.26 1089.1,-19.07"/>
<polygon fill="midnightblue" stroke="midnightblue" points="869.63,-56.09 860.79,-61.93 871.34,-62.88 869.63,-56.09"/>
</g>
<!-- Node28&#45;&gt;Node12 -->
<g id="edge16" class="edge">
<title>Node28&#45;&gt;Node12</title>
<path fill="none" stroke="midnightblue" d="M1391.39,-55.82C1317.22,-40.9 1242.31,-27.78 1193.86,-19.55"/>
<polygon fill="midnightblue" stroke="midnightblue" points="1390.88,-59.29 1401.38,-57.85 1392.27,-52.43 1390.88,-59.29"/>
</g>
<!-- Node31&#45;&gt;Node4 -->
<g id="edge18" class="edge">
<title>Node31&#45;&gt;Node4</title>
<path fill="none" stroke="midnightblue" d="M401.59,-58.88C364.85,-47.32 309.35,-29.84 276.53,-19.51"/>
<polygon fill="midnightblue" stroke="midnightblue" points="400.83,-62.31 411.42,-61.98 402.93,-55.63 400.83,-62.31"/>
</g>
<!-- Node31&#45;&gt;Node12 -->
<g id="edge19" class="edge">
<title>Node31&#45;&gt;Node12</title>
<path fill="none" stroke="midnightblue" d="M483.14,-59.77C490.26,-58.33 497.56,-57 504.5,-56 719.9,-24.91 979.45,-15.05 1089.29,-12.13"/>
<polygon fill="midnightblue" stroke="midnightblue" points="481.98,-56.44 472.92,-61.94 483.43,-63.29 481.98,-56.44"/>
</g>
<!-- Node82&#45;&gt;Node7 -->
<g id="edge30" class="edge">
<title>Node82&#45;&gt;Node7</title>
<path fill="none" stroke="midnightblue" d="M808.18,-265.19C849.82,-251.01 918.64,-227.57 955.44,-215.03"/>
<polygon fill="midnightblue" stroke="midnightblue" points="806.81,-261.96 798.47,-268.5 809.06,-268.59 806.81,-261.96"/>
</g>
<!-- Node82&#45;&gt;Node8 -->
<g id="edge31" class="edge">
<title>Node82&#45;&gt;Node8</title>
<path fill="none" stroke="midnightblue" d="M793.82,-262.3C830.61,-235.67 907.79,-179.82 943.98,-153.62"/>
<polygon fill="midnightblue" stroke="midnightblue" points="791.43,-259.7 785.39,-268.4 795.54,-265.37 791.43,-259.7"/>
</g>
<!-- Node63&#45;&gt;Node8 -->
<g id="edge33" class="edge">
<title>Node63&#45;&gt;Node8</title>
<path fill="none" stroke="midnightblue" d="M1185.35,-193.51C1139.37,-182.32 1068.04,-164.95 1018.73,-152.95"/>
<polygon fill="midnightblue" stroke="midnightblue" points="1184.78,-196.97 1195.32,-195.94 1186.43,-190.17 1184.78,-196.97"/>
</g>
<!-- Node63&#45;&gt;Node47 -->
<g id="edge34" class="edge">
<title>Node63&#45;&gt;Node47</title>
<path fill="none" stroke="midnightblue" d="M1264.34,-192.62C1313.05,-175.77 1405.95,-144.58 1486.5,-123 1504.74,-118.11 1616.1,-94.16 1677.29,-81.08"/>
<polygon fill="midnightblue" stroke="midnightblue" points="1262.93,-189.4 1254.63,-195.99 1265.23,-196.01 1262.93,-189.4"/>
</g>
<!-- Node85&#45;&gt;Node33 -->
<g id="edge36" class="edge">
<title>Node85&#45;&gt;Node33</title>
<path fill="none" stroke="midnightblue" d="M1390.03,-252.73C1396.14,-219.18 1411.76,-158.76 1448.5,-123 1463.66,-108.24 1517.49,-91.11 1552.71,-81.07"/>
<polygon fill="midnightblue" stroke="midnightblue" points="1386.51,-252.55 1388.31,-263 1393.41,-253.71 1386.51,-252.55"/>
</g>
<!-- Node86&#45;&gt;Node7 -->
<g id="edge38" class="edge">
<title>Node86&#45;&gt;Node7</title>
<path fill="none" stroke="midnightblue" d="M1037.26,-250.96C1021.18,-238.36 1002.94,-224.07 991.57,-215.17"/>
<polygon fill="midnightblue" stroke="midnightblue" points="1035.4,-253.95 1045.43,-257.36 1039.72,-248.44 1035.4,-253.95"/>
</g>
<!-- Node93&#45;&gt;Node8 -->
<g id="edge50" class="edge">
<title>Node93&#45;&gt;Node8</title>
<path fill="none" stroke="midnightblue" d="M1583.43,-197.81C1445.35,-184.83 1143.47,-156.43 1018.93,-144.71"/>
<polygon fill="midnightblue" stroke="midnightblue" points="1583.2,-201.31 1593.48,-198.76 1583.85,-194.34 1583.2,-201.31"/>
</g>
<!-- Node93&#45;&gt;Node12 -->
<g id="edge51" class="edge">
<title>Node93&#45;&gt;Node12</title>
<path fill="none" stroke="midnightblue" d="M1725.71,-199.75C1790.62,-193.75 1879.63,-180.79 1901.5,-154 1912.14,-140.97 1921.96,-78.43 1900.5,-56 1876.15,-30.55 1364.02,-16.23 1195.63,-12.19"/>
<polygon fill="midnightblue" stroke="midnightblue" points="1725.16,-196.28 1715.51,-200.65 1725.78,-203.25 1725.16,-196.28"/>
</g>
<!-- Node94 -->
<g id="node34" class="node">
<title>Node94</title>
<g id="a_node34"><a xlink:href="c__dylink_8h.html" target="_top" xlink:title=" ">
<polygon fill="white" stroke="black" points="1791,-129 1791,-148 1892,-148 1892,-129 1791,-129"/>
<text text-anchor="middle" x="1841.5" y="-136" font-family="Helvetica,sans-Serif" font-size="10.00">include/c/c_dylink.h</text>
</a>
</g>
</g>
<!-- Node93&#45;&gt;Node94 -->
<g id="edge48" class="edge">
<title>Node93&#45;&gt;Node94</title>
<path fill="none" stroke="midnightblue" d="M1704.54,-187.11C1740.92,-174.46 1788.59,-157.89 1817.03,-148.01"/>
<polygon fill="midnightblue" stroke="midnightblue" points="1703.37,-183.81 1695.08,-190.4 1705.67,-190.42 1703.37,-183.81"/>
</g>
<!-- Node95 -->
<g id="node35" class="node">
<title>Node95</title>
<g id="a_node35"><a xlink:href="f__ap__game_8cpp.html" target="_top" xlink:title=" ">
<polygon fill="white" stroke="black" points="1529,-129 1529,-148 1650,-148 1650,-129 1529,-129"/>
<text text-anchor="middle" x="1589.5" y="-136" font-family="Helvetica,sans-Serif" font-size="10.00">src/f_ap/f_ap_game.cpp</text>
</a>
</g>
</g>
<!-- Node93&#45;&gt;Node95 -->
<g id="edge52" class="edge">
<title>Node93&#45;&gt;Node95</title>
<path fill="none" stroke="midnightblue" d="M1633,-183C1621.13,-171.13 1607.05,-157.05 1598.19,-148.19"/>
<polygon fill="midnightblue" stroke="midnightblue" points="1630.85,-185.8 1640.4,-190.4 1635.8,-180.85 1630.85,-185.8"/>
</g>
<!-- Node96 -->
<g id="node36" class="node">
<title>Node96</title>
<g id="a_node36"><a xlink:href="f__op__scene__mng_8cpp.html" target="_top" xlink:title=" ">
<polygon fill="white" stroke="black" points="1668,-123.5 1668,-153.5 1773,-153.5 1773,-123.5 1668,-123.5"/>
<text text-anchor="start" x="1676" y="-141.5" font-family="Helvetica,sans-Serif" font-size="10.00">src/f_op/f_op_scene</text>
<text text-anchor="middle" x="1720.5" y="-130.5" font-family="Helvetica,sans-Serif" font-size="10.00">_mng.cpp</text>
</a>
</g>
</g>
<!-- Node93&#45;&gt;Node96 -->
<g id="edge53" class="edge">
<title>Node93&#45;&gt;Node96</title>
<path fill="none" stroke="midnightblue" d="M1676.01,-183.31C1685.91,-173.56 1697.39,-162.26 1706.21,-153.58"/>
<polygon fill="midnightblue" stroke="midnightblue" points="1673.49,-180.89 1668.82,-190.4 1678.4,-185.87 1673.49,-180.89"/>
</g>
<!-- Node94&#45;&gt;Node32 -->
<g id="edge49" class="edge">
<title>Node94&#45;&gt;Node32</title>
<path fill="none" stroke="midnightblue" d="M1842.08,-118.54C1842.46,-106.17 1842.94,-90.62 1843.23,-81.13"/>
<polygon fill="midnightblue" stroke="midnightblue" points="1838.58,-118.63 1841.77,-128.73 1845.58,-118.85 1838.58,-118.63"/>
</g>
</g>
</svg>
