<?xml version="1.0" encoding="UTF-8" standalone="no"?>
<!DOCTYPE svg PUBLIC "-//W3C//DTD SVG 1.1//EN"
 "http://www.w3.org/Graphics/SVG/1.1/DTD/svg11.dtd">
<!-- Generated by graphviz version 2.50.0 (20220203.2022)
 -->
<!-- Title: include/f_pc/f_pc_line_iter.h Pages: 1 -->
<svg width="2119pt" height="653pt"
 viewBox="0.00 0.00 2118.50 653.00" xmlns="http://www.w3.org/2000/svg" xmlns:xlink="http://www.w3.org/1999/xlink">
<g id="graph0" class="graph" transform="scale(1 1) rotate(0) translate(4 649)">
<title>include/f_pc/f_pc_line_iter.h</title>
<polygon fill="white" stroke="transparent" points="-4,4 -4,-649 2114.5,-649 2114.5,4 -4,4"/>
<!-- Node1 -->
<g id="node1" class="node">
<title>Node1</title>
<g id="a_node1"><a xlink:title=" ">
<polygon fill="#bfbfbf" stroke="black" points="1390,-614.5 1390,-644.5 1501,-644.5 1501,-614.5 1390,-614.5"/>
<text text-anchor="start" x="1398" y="-632.5" font-family="Helvetica,sans-Serif" font-size="10.00">include/f_pc/f_pc_line</text>
<text text-anchor="middle" x="1445.5" y="-621.5" font-family="Helvetica,sans-Serif" font-size="10.00">_iter.h</text>
</a>
</g>
</g>
<!-- Node2 -->
<g id="node2" class="node">
<title>Node2</title>
<g id="a_node2"><a xlink:href="f__pc__executor_8h.html" target="_top" xlink:title=" ">
<polygon fill="white" stroke="black" points="1059.5,-553 1059.5,-572 1199.5,-572 1199.5,-553 1059.5,-553"/>
<text text-anchor="middle" x="1129.5" y="-560" font-family="Helvetica,sans-Serif" font-size="10.00">include/f_pc/f_pc_executor.h</text>
</a>
</g>
</g>
<!-- Node1&#45;&gt;Node2 -->
<g id="edge1" class="edge">
<title>Node1&#45;&gt;Node2</title>
<path fill="none" stroke="midnightblue" d="M1379.93,-615.01C1317.14,-602.1 1224.34,-583.01 1171.11,-572.06"/>
<polygon fill="midnightblue" stroke="midnightblue" points="1379.23,-618.44 1389.73,-617.03 1380.64,-611.59 1379.23,-618.44"/>
</g>
<!-- Node100 -->
<g id="node48" class="node">
<title>Node100</title>
<g id="a_node48"><a xlink:href="f__pc__manager_8cpp.html" target="_top" xlink:title=" ">
<polygon fill="white" stroke="black" points="1596.5,-486 1596.5,-505 1730.5,-505 1730.5,-486 1596.5,-486"/>
<text text-anchor="middle" x="1663.5" y="-493" font-family="Helvetica,sans-Serif" font-size="10.00">src/f_pc/f_pc_manager.cpp</text>
</a>
</g>
</g>
<!-- Node1&#45;&gt;Node100 -->
<g id="edge72" class="edge">
<title>Node1&#45;&gt;Node100</title>
<path fill="none" stroke="midnightblue" d="M1444.8,-604.22C1445.63,-586.11 1449.77,-562.02 1464.5,-547 1475.45,-535.83 1564.91,-516.24 1620.09,-505.03"/>
<polygon fill="midnightblue" stroke="midnightblue" points="1441.3,-604.28 1444.65,-614.33 1448.3,-604.38 1441.3,-604.28"/>
</g>
<!-- Node102 -->
<g id="node50" class="node">
<title>Node102</title>
<g id="a_node50"><a xlink:href="f__pc__line__iter_8cpp.html" target="_top" xlink:title=" ">
<polygon fill="white" stroke="black" points="1473.5,-547.5 1473.5,-577.5 1567.5,-577.5 1567.5,-547.5 1473.5,-547.5"/>
<text text-anchor="start" x="1481.5" y="-565.5" font-family="Helvetica,sans-Serif" font-size="10.00">src/f_pc/f_pc_line</text>
<text text-anchor="middle" x="1520.5" y="-554.5" font-family="Helvetica,sans-Serif" font-size="10.00">_iter.cpp</text>
</a>
</g>
</g>
<!-- Node1&#45;&gt;Node102 -->
<g id="edge71" class="edge">
<title>Node1&#45;&gt;Node102</title>
<path fill="none" stroke="midnightblue" d="M1469.62,-607.6C1480.94,-597.78 1494.14,-586.34 1504.26,-577.58"/>
<polygon fill="midnightblue" stroke="midnightblue" points="1467.04,-605.2 1461.77,-614.4 1471.62,-610.49 1467.04,-605.2"/>
</g>
<!-- Node3 -->
<g id="node3" class="node">
<title>Node3</title>
<g id="a_node3"><a xlink:href="f__op__actor__mng_8h.html" target="_top" xlink:title=" ">
<polygon fill="white" stroke="black" points="1332.5,-480.5 1332.5,-510.5 1450.5,-510.5 1450.5,-480.5 1332.5,-480.5"/>
<text text-anchor="start" x="1340.5" y="-498.5" font-family="Helvetica,sans-Serif" font-size="10.00">include/f_op/f_op_actor</text>
<text text-anchor="middle" x="1391.5" y="-487.5" font-family="Helvetica,sans-Serif" font-size="10.00">_mng.h</text>
</a>
</g>
</g>
<!-- Node2&#45;&gt;Node3 -->
<g id="edge2" class="edge">
<title>Node2&#45;&gt;Node3</title>
<path fill="none" stroke="midnightblue" d="M1173.93,-550.48C1218.28,-539.47 1286.6,-522.52 1334.83,-510.56"/>
<polygon fill="midnightblue" stroke="midnightblue" points="1172.88,-547.13 1164.02,-552.94 1174.57,-553.92 1172.88,-547.13"/>
</g>
<!-- Node93 -->
<g id="node41" class="node">
<title>Node93</title>
<g id="a_node41"><a xlink:href="f__op__overlap__mng_8cpp.html" target="_top" xlink:title=" ">
<polygon fill="white" stroke="black" points="1468.5,-480.5 1468.5,-510.5 1578.5,-510.5 1578.5,-480.5 1468.5,-480.5"/>
<text text-anchor="start" x="1476.5" y="-498.5" font-family="Helvetica,sans-Serif" font-size="10.00">src/f_op/f_op_overlap</text>
<text text-anchor="middle" x="1523.5" y="-487.5" font-family="Helvetica,sans-Serif" font-size="10.00">_mng.cpp</text>
</a>
</g>
</g>
<!-- Node2&#45;&gt;Node93 -->
<g id="edge62" class="edge">
<title>Node2&#45;&gt;Node93</title>
<path fill="none" stroke="midnightblue" d="M1204.28,-551.6C1271.33,-542.35 1372.3,-527.53 1459.5,-511 1462.41,-510.45 1465.39,-509.86 1468.39,-509.25"/>
<polygon fill="midnightblue" stroke="midnightblue" points="1203.66,-548.15 1194.23,-552.98 1204.61,-555.09 1203.66,-548.15"/>
</g>
<!-- Node94 -->
<g id="node42" class="node">
<title>Node94</title>
<g id="a_node42"><a xlink:href="f__op__overlap__req_8cpp.html" target="_top" xlink:title=" ">
<polygon fill="white" stroke="black" points="419.5,-480.5 419.5,-510.5 529.5,-510.5 529.5,-480.5 419.5,-480.5"/>
<text text-anchor="start" x="427.5" y="-498.5" font-family="Helvetica,sans-Serif" font-size="10.00">src/f_op/f_op_overlap</text>
<text text-anchor="middle" x="474.5" y="-487.5" font-family="Helvetica,sans-Serif" font-size="10.00">_req.cpp</text>
</a>
</g>
</g>
<!-- Node2&#45;&gt;Node94 -->
<g id="edge63" class="edge">
<title>Node2&#45;&gt;Node94</title>
<path fill="none" stroke="midnightblue" d="M1049.02,-558.14C934.9,-552.57 719.76,-539.14 538.5,-511 535.57,-510.55 532.58,-510.03 529.57,-509.48"/>
<polygon fill="midnightblue" stroke="midnightblue" points="1048.92,-561.63 1059.08,-558.62 1049.25,-554.64 1048.92,-561.63"/>
</g>
<!-- Node95 -->
<g id="node43" class="node">
<title>Node95</title>
<g id="a_node43"><a xlink:href="f__op__scene__pause_8cpp.html" target="_top" xlink:title=" ">
<polygon fill="white" stroke="black" points="548,-480.5 548,-510.5 653,-510.5 653,-480.5 548,-480.5"/>
<text text-anchor="start" x="556" y="-498.5" font-family="Helvetica,sans-Serif" font-size="10.00">src/f_op/f_op_scene</text>
<text text-anchor="middle" x="600.5" y="-487.5" font-family="Helvetica,sans-Serif" font-size="10.00">_pause.cpp</text>
</a>
</g>
</g>
<!-- Node2&#45;&gt;Node95 -->
<g id="edge64" class="edge">
<title>Node2&#45;&gt;Node95</title>
<path fill="none" stroke="midnightblue" d="M1049.1,-555.92C955.53,-548.71 796.57,-534.25 661.5,-511 658.82,-510.54 656.08,-510.03 653.32,-509.48"/>
<polygon fill="midnightblue" stroke="midnightblue" points="1049.11,-559.43 1059.34,-556.7 1049.64,-552.45 1049.11,-559.43"/>
</g>
<!-- Node96 -->
<g id="node44" class="node">
<title>Node96</title>
<g id="a_node44"><a xlink:href="f__op__scene__req_8cpp.html" target="_top" xlink:title=" ">
<polygon fill="white" stroke="black" points="671,-480.5 671,-510.5 776,-510.5 776,-480.5 671,-480.5"/>
<text text-anchor="start" x="679" y="-498.5" font-family="Helvetica,sans-Serif" font-size="10.00">src/f_op/f_op_scene</text>
<text text-anchor="middle" x="723.5" y="-487.5" font-family="Helvetica,sans-Serif" font-size="10.00">_req.cpp</text>
</a>
</g>
</g>
<!-- Node2&#45;&gt;Node96 -->
<g id="edge65" class="edge">
<title>Node2&#45;&gt;Node96</title>
<path fill="none" stroke="midnightblue" d="M1049.31,-551.67C979.39,-542.63 875.37,-528.07 785.5,-511 782.46,-510.42 779.34,-509.8 776.2,-509.14"/>
<polygon fill="midnightblue" stroke="midnightblue" points="1049.01,-555.16 1059.37,-552.96 1049.9,-548.21 1049.01,-555.16"/>
</g>
<!-- Node97 -->
<g id="node45" class="node">
<title>Node97</title>
<g id="a_node45"><a xlink:href="f__pc__create__req_8cpp.html" target="_top" xlink:title=" ">
<polygon fill="white" stroke="black" points="794.5,-480.5 794.5,-510.5 900.5,-510.5 900.5,-480.5 794.5,-480.5"/>
<text text-anchor="start" x="802.5" y="-498.5" font-family="Helvetica,sans-Serif" font-size="10.00">src/f_pc/f_pc_create</text>
<text text-anchor="middle" x="847.5" y="-487.5" font-family="Helvetica,sans-Serif" font-size="10.00">_req.cpp</text>
</a>
</g>
</g>
<!-- Node2&#45;&gt;Node97 -->
<g id="edge66" class="edge">
<title>Node2&#45;&gt;Node97</title>
<path fill="none" stroke="midnightblue" d="M1082.16,-550.69C1037.6,-540.5 969,-524.79 909.5,-511 906.59,-510.33 903.61,-509.63 900.6,-508.93"/>
<polygon fill="midnightblue" stroke="midnightblue" points="1081.59,-554.15 1092.12,-552.97 1083.15,-547.33 1081.59,-554.15"/>
</g>
<!-- Node98 -->
<g id="node46" class="node">
<title>Node98</title>
<g id="a_node46"><a xlink:href="f__pc__deletor_8cpp.html" target="_top" xlink:title=" ">
<polygon fill="white" stroke="black" points="918.5,-486 918.5,-505 1044.5,-505 1044.5,-486 918.5,-486"/>
<text text-anchor="middle" x="981.5" y="-493" font-family="Helvetica,sans-Serif" font-size="10.00">src/f_pc/f_pc_deletor.cpp</text>
</a>
</g>
</g>
<!-- Node2&#45;&gt;Node98 -->
<g id="edge67" class="edge">
<title>Node2&#45;&gt;Node98</title>
<path fill="none" stroke="midnightblue" d="M1100.54,-548.78C1071.23,-535.91 1026.71,-516.35 1001.23,-505.17"/>
<polygon fill="midnightblue" stroke="midnightblue" points="1099.28,-552.05 1109.85,-552.87 1102.1,-545.64 1099.28,-552.05"/>
</g>
<!-- Node99 -->
<g id="node47" class="node">
<title>Node99</title>
<g id="a_node47"><a xlink:href="f__pc__executor_8cpp.html" target="_top" xlink:title=" ">
<polygon fill="white" stroke="black" points="1062.5,-486 1062.5,-505 1196.5,-505 1196.5,-486 1062.5,-486"/>
<text text-anchor="middle" x="1129.5" y="-493" font-family="Helvetica,sans-Serif" font-size="10.00">src/f_pc/f_pc_executor.cpp</text>
</a>
</g>
</g>
<!-- Node2&#45;&gt;Node99 -->
<g id="edge68" class="edge">
<title>Node2&#45;&gt;Node99</title>
<path fill="none" stroke="midnightblue" d="M1129.5,-542.54C1129.5,-530.17 1129.5,-514.62 1129.5,-505.13"/>
<polygon fill="midnightblue" stroke="midnightblue" points="1126,-542.73 1129.5,-552.73 1133,-542.73 1126,-542.73"/>
</g>
<!-- Node2&#45;&gt;Node100 -->
<g id="edge69" class="edge">
<title>Node2&#45;&gt;Node100</title>
<path fill="none" stroke="midnightblue" d="M1209.59,-554.59C1301.2,-546.25 1455.59,-530.82 1587.5,-511 1598.66,-509.32 1610.68,-507.19 1621.79,-505.07"/>
<polygon fill="midnightblue" stroke="midnightblue" points="1209.2,-551.12 1199.56,-555.5 1209.83,-558.09 1209.2,-551.12"/>
</g>
<!-- Node101 -->
<g id="node49" class="node">
<title>Node101</title>
<g id="a_node49"><a xlink:href="f__pc__node__req_8cpp.html" target="_top" xlink:title=" ">
<polygon fill="white" stroke="black" points="1214.5,-480.5 1214.5,-510.5 1314.5,-510.5 1314.5,-480.5 1214.5,-480.5"/>
<text text-anchor="start" x="1222.5" y="-498.5" font-family="Helvetica,sans-Serif" font-size="10.00">src/f_pc/f_pc_node</text>
<text text-anchor="middle" x="1264.5" y="-487.5" font-family="Helvetica,sans-Serif" font-size="10.00">_req.cpp</text>
</a>
</g>
</g>
<!-- Node2&#45;&gt;Node101 -->
<g id="edge70" class="edge">
<title>Node2&#45;&gt;Node101</title>
<path fill="none" stroke="midnightblue" d="M1156.55,-548.47C1179.38,-537.49 1211.97,-521.79 1235.36,-510.53"/>
<polygon fill="midnightblue" stroke="midnightblue" points="1154.92,-545.38 1147.43,-552.87 1157.96,-551.68 1154.92,-545.38"/>
</g>
<!-- Node4 -->
<g id="node4" class="node">
<title>Node4</title>
<g id="a_node4"><a xlink:href="d__cc__uty_8h.html" target="_top" xlink:title=" ">
<polygon fill="white" stroke="black" points="0,-62 0,-81 119,-81 119,-62 0,-62"/>
<text text-anchor="middle" x="59.5" y="-69" font-family="Helvetica,sans-Serif" font-size="10.00">include/d/cc/d_cc_uty.h</text>
</a>
</g>
</g>
<!-- Node3&#45;&gt;Node4 -->
<g id="edge3" class="edge">
<title>Node3&#45;&gt;Node4</title>
<path fill="none" stroke="midnightblue" d="M1322.21,-480C924.48,-431.47 814.3,-513.87 423.5,-444 292.41,-420.56 138.5,-484.67 138.5,-351.5 138.5,-351.5 138.5,-351.5 138.5,-204.5 138.5,-151.09 90.28,-100.56 69.19,-81.02"/>
<polygon fill="midnightblue" stroke="midnightblue" points="1321.91,-483.49 1332.26,-481.25 1322.77,-476.54 1321.91,-483.49"/>
</g>
<!-- Node6 -->
<g id="node6" class="node">
<title>Node6</title>
<g id="a_node6"><a xlink:href="d__stage_8h.html" target="_top" xlink:title=" ">
<polygon fill="white" stroke="black" points="886,-413.5 886,-432.5 987,-432.5 987,-413.5 886,-413.5"/>
<text text-anchor="middle" x="936.5" y="-420.5" font-family="Helvetica,sans-Serif" font-size="10.00">include/d/d_stage.h</text>
</a>
</g>
</g>
<!-- Node3&#45;&gt;Node6 -->
<g id="edge5" class="edge">
<title>Node3&#45;&gt;Node6</title>
<path fill="none" stroke="midnightblue" d="M1321.99,-479.8C1195.92,-457.53 1059.19,-439.35 987.08,-430.23"/>
<polygon fill="midnightblue" stroke="midnightblue" points="1321.75,-483.31 1332.21,-481.61 1322.98,-476.42 1321.75,-483.31"/>
</g>
<!-- Node32 -->
<g id="node18" class="node">
<title>Node32</title>
<g id="a_node18"><a xlink:href="d__a__alink_8cpp.html" target="_top" xlink:title=" ">
<polygon fill="white" stroke="black" points="1262,-62 1262,-81 1371,-81 1371,-62 1262,-62"/>
<text text-anchor="middle" x="1316.5" y="-69" font-family="Helvetica,sans-Serif" font-size="10.00">src/d/a/d_a_alink.cpp</text>
</a>
</g>
</g>
<!-- Node3&#45;&gt;Node32 -->
<g id="edge55" class="edge">
<title>Node3&#45;&gt;Node32</title>
<path fill="none" stroke="midnightblue" d="M1381.18,-470.89C1369.93,-442.94 1353.5,-394.74 1353.5,-351.5 1353.5,-351.5 1353.5,-351.5 1353.5,-204.5 1353.5,-156.42 1330.46,-102.03 1320.74,-81.22"/>
<polygon fill="midnightblue" stroke="midnightblue" points="1377.99,-472.32 1385.05,-480.22 1384.45,-469.64 1377.99,-472.32"/>
</g>
<!-- Node33 -->
<g id="node19" class="node">
<title>Node33</title>
<g id="a_node19"><a xlink:href="d__a__player_8cpp.html" target="_top" xlink:title=" ">
<polygon fill="white" stroke="black" points="137.5,-62 137.5,-81 251.5,-81 251.5,-62 137.5,-62"/>
<text text-anchor="middle" x="194.5" y="-69" font-family="Helvetica,sans-Serif" font-size="10.00">src/d/a/d_a_player.cpp</text>
</a>
</g>
</g>
<!-- Node3&#45;&gt;Node33 -->
<g id="edge56" class="edge">
<title>Node3&#45;&gt;Node33</title>
<path fill="none" stroke="midnightblue" d="M1322.24,-480.14C1171.44,-463.82 334.5,-459.61 334.5,-351.5 334.5,-351.5 334.5,-351.5 334.5,-204.5 334.5,-140.36 255.75,-98.18 216.38,-81.1"/>
<polygon fill="midnightblue" stroke="midnightblue" points="1321.89,-483.62 1332.24,-481.39 1322.75,-476.68 1321.89,-483.62"/>
</g>
<!-- Node43 -->
<g id="node22" class="node">
<title>Node43</title>
<g id="a_node22"><a xlink:href="d__event_8cpp.html" target="_top" xlink:title=" ">
<polygon fill="white" stroke="black" points="1389,-62 1389,-81 1510,-81 1510,-62 1389,-62"/>
<text text-anchor="middle" x="1449.5" y="-69" font-family="Helvetica,sans-Serif" font-size="10.00">src/d/event/d_event.cpp</text>
</a>
</g>
</g>
<!-- Node3&#45;&gt;Node43 -->
<g id="edge60" class="edge">
<title>Node3&#45;&gt;Node43</title>
<path fill="none" stroke="midnightblue" d="M1391.5,-470.07C1391.5,-441.61 1391.5,-393.14 1391.5,-351.5 1391.5,-351.5 1391.5,-351.5 1391.5,-204.5 1391.5,-154.19 1427.26,-101.51 1442.62,-81.19"/>
<polygon fill="midnightblue" stroke="midnightblue" points="1388,-470.29 1391.5,-480.29 1395,-470.29 1388,-470.29"/>
</g>
<!-- Node76 -->
<g id="node26" class="node">
<title>Node76</title>
<g id="a_node26"><a xlink:href="d__a__crod_8h.html" target="_top" xlink:title=" ">
<polygon fill="white" stroke="black" points="1229.5,-263 1229.5,-293 1325.5,-293 1325.5,-263 1229.5,-263"/>
<text text-anchor="start" x="1237.5" y="-281" font-family="Helvetica,sans-Serif" font-size="10.00">include/rel/d/a/d_a</text>
<text text-anchor="middle" x="1277.5" y="-270" font-family="Helvetica,sans-Serif" font-size="10.00">_crod/d_a_crod.h</text>
</a>
</g>
</g>
<!-- Node3&#45;&gt;Node76 -->
<g id="edge52" class="edge">
<title>Node3&#45;&gt;Node76</title>
<path fill="none" stroke="midnightblue" d="M1365.62,-473.6C1356.43,-465.16 1346.61,-454.86 1339.5,-444 1322.36,-417.82 1293.04,-328.18 1281.94,-293.17"/>
<polygon fill="midnightblue" stroke="midnightblue" points="1363.31,-476.22 1373.12,-480.21 1367.94,-470.97 1363.31,-476.22"/>
</g>
<!-- Node84 -->
<g id="node31" class="node">
<title>Node84</title>
<g id="a_node31"><a xlink:href="f__op__actor__mng_8cpp.html" target="_top" xlink:title=" ">
<polygon fill="white" stroke="black" points="1186,-335.5 1186,-365.5 1287,-365.5 1287,-335.5 1186,-335.5"/>
<text text-anchor="start" x="1194" y="-353.5" font-family="Helvetica,sans-Serif" font-size="10.00">src/f_op/f_op_actor</text>
<text text-anchor="middle" x="1236.5" y="-342.5" font-family="Helvetica,sans-Serif" font-size="10.00">_mng.cpp</text>
</a>
</g>
</g>
<!-- Node3&#45;&gt;Node84 -->
<g id="edge61" class="edge">
<title>Node3&#45;&gt;Node84</title>
<path fill="none" stroke="midnightblue" d="M1349.22,-475.76C1333.22,-467.44 1315.5,-456.65 1301.5,-444 1275.58,-420.58 1254.28,-385.01 1243.71,-365.51"/>
<polygon fill="midnightblue" stroke="midnightblue" points="1347.9,-479.01 1358.4,-480.37 1351.03,-472.75 1347.9,-479.01"/>
</g>
<!-- Node85 -->
<g id="node32" class="node">
<title>Node85</title>
<g id="a_node32"><a xlink:href="f__op__scene__mng_8h.html" target="_top" xlink:title=" ">
<polygon fill="white" stroke="black" points="1590.5,-190.5 1590.5,-220.5 1712.5,-220.5 1712.5,-190.5 1590.5,-190.5"/>
<text text-anchor="start" x="1598.5" y="-208.5" font-family="Helvetica,sans-Serif" font-size="10.00">include/f_op/f_op_scene</text>
<text text-anchor="middle" x="1651.5" y="-197.5" font-family="Helvetica,sans-Serif" font-size="10.00">_mng.h</text>
</a>
</g>
</g>
<!-- Node3&#45;&gt;Node85 -->
<g id="edge46" class="edge">
<title>Node3&#45;&gt;Node85</title>
<path fill="none" stroke="midnightblue" d="M1403.66,-471.28C1414.29,-451.89 1430.78,-423.99 1448.5,-402 1509.13,-326.75 1597.03,-251.25 1634.04,-220.67"/>
<polygon fill="midnightblue" stroke="midnightblue" points="1400.46,-469.84 1398.79,-480.3 1406.62,-473.16 1400.46,-469.84"/>
</g>
<!-- Node89 -->
<g id="node36" class="node">
<title>Node89</title>
<g id="a_node36"><a xlink:href="d__a__tag__lv5soup_8h.html" target="_top" xlink:title=" ">
<polygon fill="white" stroke="black" points="1457.5,-402.5 1457.5,-443.5 1569.5,-443.5 1569.5,-402.5 1457.5,-402.5"/>
<text text-anchor="start" x="1465.5" y="-431.5" font-family="Helvetica,sans-Serif" font-size="10.00">include/rel/d/a/tag</text>
<text text-anchor="start" x="1465.5" y="-420.5" font-family="Helvetica,sans-Serif" font-size="10.00">/d_a_tag_lv5soup/d_a</text>
<text text-anchor="middle" x="1513.5" y="-409.5" font-family="Helvetica,sans-Serif" font-size="10.00">_tag_lv5soup.h</text>
</a>
</g>
</g>
<!-- Node3&#45;&gt;Node89 -->
<g id="edge53" class="edge">
<title>Node3&#45;&gt;Node89</title>
<path fill="none" stroke="midnightblue" d="M1424.9,-475.2C1441.85,-465.41 1462.4,-453.53 1479.44,-443.68"/>
<polygon fill="midnightblue" stroke="midnightblue" points="1422.8,-472.37 1415.9,-480.4 1426.3,-478.43 1422.8,-472.37"/>
</g>
<!-- Node90 -->
<g id="node37" class="node">
<title>Node90</title>
<g id="a_node37"><a xlink:href="d__a__tag__setBall_8h.html" target="_top" xlink:title=" ">
<polygon fill="white" stroke="black" points="1587.5,-402.5 1587.5,-443.5 1695.5,-443.5 1695.5,-402.5 1587.5,-402.5"/>
<text text-anchor="start" x="1595.5" y="-431.5" font-family="Helvetica,sans-Serif" font-size="10.00">include/rel/d/a/tag</text>
<text text-anchor="start" x="1595.5" y="-420.5" font-family="Helvetica,sans-Serif" font-size="10.00">/d_a_tag_setBall/d_a</text>
<text text-anchor="middle" x="1641.5" y="-409.5" font-family="Helvetica,sans-Serif" font-size="10.00">_tag_setBall.h</text>
</a>
</g>
</g>
<!-- Node3&#45;&gt;Node90 -->
<g id="edge54" class="edge">
<title>Node3&#45;&gt;Node90</title>
<path fill="none" stroke="midnightblue" d="M1456.01,-477.82C1492.14,-468.29 1537.95,-455.91 1578.5,-444 1581.36,-443.16 1584.29,-442.28 1587.25,-441.39"/>
<polygon fill="midnightblue" stroke="midnightblue" points="1454.87,-474.5 1446.09,-480.43 1456.65,-481.27 1454.87,-474.5"/>
</g>
<!-- Node91 -->
<g id="node38" class="node">
<title>Node91</title>
<g id="a_node38"><a xlink:href="d__bg__s__lin__chk_8cpp.html" target="_top" xlink:title=" ">
<polygon fill="white" stroke="black" points="1714,-408 1714,-438 1815,-438 1815,-408 1714,-408"/>
<text text-anchor="start" x="1722" y="-426" font-family="Helvetica,sans-Serif" font-size="10.00">src/d/bg/d_bg_s_lin</text>
<text text-anchor="middle" x="1764.5" y="-415" font-family="Helvetica,sans-Serif" font-size="10.00">_chk.cpp</text>
</a>
</g>
</g>
<!-- Node3&#45;&gt;Node91 -->
<g id="edge57" class="edge">
<title>Node3&#45;&gt;Node91</title>
<path fill="none" stroke="midnightblue" d="M1460.86,-479.84C1569.62,-461.01 1600.57,-468.75 1704.5,-444 1711.44,-442.35 1718.73,-440.24 1725.73,-438.03"/>
<polygon fill="midnightblue" stroke="midnightblue" points="1460.03,-476.43 1450.79,-481.62 1461.25,-483.33 1460.03,-476.43"/>
</g>
<!-- Node92 -->
<g id="node39" class="node">
<title>Node92</title>
<g id="a_node39"><a xlink:href="d__cc__d__nonmatching_8cpp.html" target="_top" xlink:title=" ">
<polygon fill="white" stroke="black" points="1833,-413.5 1833,-432.5 1998,-432.5 1998,-413.5 1833,-413.5"/>
<text text-anchor="middle" x="1915.5" y="-420.5" font-family="Helvetica,sans-Serif" font-size="10.00">src/d/cc/d_cc_d_nonmatching.cpp</text>
</a>
</g>
</g>
<!-- Node3&#45;&gt;Node92 -->
<g id="edge58" class="edge">
<title>Node3&#45;&gt;Node92</title>
<path fill="none" stroke="midnightblue" d="M1461.03,-479.88C1621.94,-455.58 1666.21,-468.79 1823.5,-444 1842.55,-441 1863.59,-436.51 1880.73,-432.55"/>
<polygon fill="midnightblue" stroke="midnightblue" points="1460.12,-476.48 1450.77,-481.46 1461.18,-483.4 1460.12,-476.48"/>
</g>
<!-- Node67 -->
<g id="node40" class="node">
<title>Node67</title>
<g id="a_node40"><a xlink:href="d__bomb_8cpp.html" target="_top" xlink:title=" ">
<polygon fill="white" stroke="black" points="2016.5,-413.5 2016.5,-432.5 2110.5,-432.5 2110.5,-413.5 2016.5,-413.5"/>
<text text-anchor="middle" x="2063.5" y="-420.5" font-family="Helvetica,sans-Serif" font-size="10.00">src/d/d_bomb.cpp</text>
</a>
</g>
</g>
<!-- Node3&#45;&gt;Node67 -->
<g id="edge59" class="edge">
<title>Node3&#45;&gt;Node67</title>
<path fill="none" stroke="midnightblue" d="M1460.9,-479.96C1702.69,-447.76 1771.06,-492.12 2006.5,-444 2019.04,-441.44 2032.57,-436.78 2043.3,-432.6"/>
<polygon fill="midnightblue" stroke="midnightblue" points="1460.18,-476.52 1450.75,-481.34 1461.13,-483.46 1460.18,-476.52"/>
</g>
<!-- Node5 -->
<g id="node5" class="node">
<title>Node5</title>
<g id="a_node5"><a xlink:href="d__cc__uty_8cpp.html" target="_top" xlink:title=" ">
<polygon fill="white" stroke="black" points="193.5,-0.5 193.5,-19.5 305.5,-19.5 305.5,-0.5 193.5,-0.5"/>
<text text-anchor="middle" x="249.5" y="-7.5" font-family="Helvetica,sans-Serif" font-size="10.00">src/d/cc/d_cc_uty.cpp</text>
</a>
</g>
</g>
<!-- Node4&#45;&gt;Node5 -->
<g id="edge4" class="edge">
<title>Node4&#45;&gt;Node5</title>
<path fill="none" stroke="midnightblue" d="M96.6,-58.88C133.54,-47.32 189.34,-29.84 222.33,-19.51"/>
<polygon fill="midnightblue" stroke="midnightblue" points="95.22,-55.65 86.72,-61.98 97.31,-62.33 95.22,-55.65"/>
</g>
<!-- Node7 -->
<g id="node7" class="node">
<title>Node7</title>
<g id="a_node7"><a xlink:href="d__a__player_8h.html" target="_top" xlink:title=" ">
<polygon fill="white" stroke="black" points="604,-341 604,-360 725,-360 725,-341 604,-341"/>
<text text-anchor="middle" x="664.5" y="-348" font-family="Helvetica,sans-Serif" font-size="10.00">include/d/a/d_a_player.h</text>
</a>
</g>
</g>
<!-- Node6&#45;&gt;Node7 -->
<g id="edge6" class="edge">
<title>Node6&#45;&gt;Node7</title>
<path fill="none" stroke="midnightblue" d="M893.67,-410.9C839.28,-396.8 746.61,-372.78 697.43,-360.03"/>
<polygon fill="midnightblue" stroke="midnightblue" points="893.13,-414.38 903.69,-413.5 894.89,-407.6 893.13,-414.38"/>
</g>
<!-- Node9 -->
<g id="node9" class="node">
<title>Node9</title>
<g id="a_node9"><a xlink:href="d__com__inf__game_8h.html" target="_top" xlink:title=" ">
<polygon fill="white" stroke="red" points="758.5,-123.5 758.5,-153.5 868.5,-153.5 868.5,-123.5 758.5,-123.5"/>
<text text-anchor="start" x="766.5" y="-141.5" font-family="Helvetica,sans-Serif" font-size="10.00">include/d/com/d_com</text>
<text text-anchor="middle" x="813.5" y="-130.5" font-family="Helvetica,sans-Serif" font-size="10.00">_inf_game.h</text>
</a>
</g>
</g>
<!-- Node6&#45;&gt;Node9 -->
<g id="edge39" class="edge">
<title>Node6&#45;&gt;Node9</title>
<path fill="none" stroke="midnightblue" d="M875.54,-421.11C787.09,-418.38 629.86,-407.62 594.5,-366 580.38,-349.38 581.32,-290.29 603.5,-257 640.33,-201.72 712.42,-169.78 761.76,-153.52"/>
<polygon fill="midnightblue" stroke="midnightblue" points="875.61,-424.61 885.71,-421.4 875.81,-417.61 875.61,-424.61"/>
</g>
<!-- Node41 -->
<g id="node21" class="node">
<title>Node41</title>
<g id="a_node21"><a xlink:href="d__stage_8cpp.html" target="_top" xlink:title=" ">
<polygon fill="white" stroke="black" points="269.5,-62 269.5,-81 363.5,-81 363.5,-62 269.5,-62"/>
<text text-anchor="middle" x="316.5" y="-69" font-family="Helvetica,sans-Serif" font-size="10.00">src/d/d_stage.cpp</text>
</a>
</g>
</g>
<!-- Node6&#45;&gt;Node41 -->
<g id="edge43" class="edge">
<title>Node6&#45;&gt;Node41</title>
<path fill="none" stroke="midnightblue" d="M875.76,-416.79C788.38,-408.56 632.13,-390.89 581.5,-366 531,-341.17 489.5,-335.28 489.5,-279 489.5,-279 489.5,-279 489.5,-204.5 489.5,-134.42 398.66,-96.59 348.63,-81.07"/>
<polygon fill="midnightblue" stroke="midnightblue" points="875.52,-420.28 885.8,-417.72 876.17,-413.31 875.52,-420.28"/>
</g>
<!-- Node75 -->
<g id="node25" class="node">
<title>Node75</title>
<g id="a_node25"><a xlink:href="d__event_8h.html" target="_top" xlink:title=" ">
<polygon fill="white" stroke="black" points="1059.5,-196 1059.5,-215 1187.5,-215 1187.5,-196 1059.5,-196"/>
<text text-anchor="middle" x="1123.5" y="-203" font-family="Helvetica,sans-Serif" font-size="10.00">include/d/event/d_event.h</text>
</a>
</g>
</g>
<!-- Node6&#45;&gt;Node75 -->
<g id="edge40" class="edge">
<title>Node6&#45;&gt;Node75</title>
<path fill="none" stroke="midnightblue" d="M997.26,-413.25C1049.98,-404.27 1120.47,-388.43 1137.5,-366 1172.97,-319.29 1140.46,-241.22 1127.93,-215.22"/>
<polygon fill="midnightblue" stroke="midnightblue" points="996.59,-409.81 987.3,-414.9 997.74,-416.72 996.59,-409.81"/>
</g>
<!-- Node78 -->
<g id="node28" class="node">
<title>Node78</title>
<g id="a_node28"><a xlink:href="d__event__data_8h.html" target="_top" xlink:title=" ">
<polygon fill="white" stroke="red" points="743.5,-335.5 743.5,-365.5 863.5,-365.5 863.5,-335.5 743.5,-335.5"/>
<text text-anchor="start" x="751.5" y="-353.5" font-family="Helvetica,sans-Serif" font-size="10.00">include/d/event/d_event</text>
<text text-anchor="middle" x="803.5" y="-342.5" font-family="Helvetica,sans-Serif" font-size="10.00">_data.h</text>
</a>
</g>
</g>
<!-- Node6&#45;&gt;Node78 -->
<g id="edge41" class="edge">
<title>Node6&#45;&gt;Node78</title>
<path fill="none" stroke="midnightblue" d="M911.57,-408.78C888.37,-396.49 853.91,-378.22 830.17,-365.64"/>
<polygon fill="midnightblue" stroke="midnightblue" points="909.98,-411.9 920.46,-413.5 913.26,-405.72 909.98,-411.9"/>
</g>
<!-- Node80 -->
<g id="node29" class="node">
<title>Node80</title>
<g id="a_node29"><a xlink:href="d__map__path__dmap_8h.html" target="_top" xlink:title=" ">
<polygon fill="white" stroke="red" points="881.5,-335.5 881.5,-365.5 991.5,-365.5 991.5,-335.5 881.5,-335.5"/>
<text text-anchor="start" x="889.5" y="-353.5" font-family="Helvetica,sans-Serif" font-size="10.00">include/d/map/d_map</text>
<text text-anchor="middle" x="936.5" y="-342.5" font-family="Helvetica,sans-Serif" font-size="10.00">_path_dmap.h</text>
</a>
</g>
</g>
<!-- Node6&#45;&gt;Node80 -->
<g id="edge42" class="edge">
<title>Node6&#45;&gt;Node80</title>
<path fill="none" stroke="midnightblue" d="M936.5,-403.24C936.5,-391.41 936.5,-376.38 936.5,-365.58"/>
<polygon fill="midnightblue" stroke="midnightblue" points="933,-403.36 936.5,-413.36 940,-403.36 933,-403.36"/>
</g>
<!-- Node83 -->
<g id="node30" class="node">
<title>Node83</title>
<g id="a_node30"><a xlink:href="f__op__actor_8cpp.html" target="_top" xlink:title=" ">
<polygon fill="white" stroke="black" points="1010,-341 1010,-360 1129,-360 1129,-341 1010,-341"/>
<text text-anchor="middle" x="1069.5" y="-348" font-family="Helvetica,sans-Serif" font-size="10.00">src/f_op/f_op_actor.cpp</text>
</a>
</g>
</g>
<!-- Node6&#45;&gt;Node83 -->
<g id="edge44" class="edge">
<title>Node6&#45;&gt;Node83</title>
<path fill="none" stroke="midnightblue" d="M961.38,-408.81C988.32,-394.53 1030.5,-372.17 1053.4,-360.03"/>
<polygon fill="midnightblue" stroke="midnightblue" points="959.74,-405.72 952.54,-413.5 963.02,-411.9 959.74,-405.72"/>
</g>
<!-- Node6&#45;&gt;Node84 -->
<g id="edge45" class="edge">
<title>Node6&#45;&gt;Node84</title>
<path fill="none" stroke="midnightblue" d="M982.5,-411.19C1037.44,-398.28 1129.04,-376.75 1185.92,-363.39"/>
<polygon fill="midnightblue" stroke="midnightblue" points="981.62,-407.8 972.69,-413.5 983.22,-414.62 981.62,-407.8"/>
</g>
<!-- Node8 -->
<g id="node8" class="node">
<title>Node8</title>
<g id="a_node8"><a xlink:href="d__a__alink_8h.html" target="_top" xlink:title=" ">
<polygon fill="white" stroke="black" points="870.5,-196 870.5,-215 986.5,-215 986.5,-196 870.5,-196"/>
<text text-anchor="middle" x="928.5" y="-203" font-family="Helvetica,sans-Serif" font-size="10.00">include/d/a/d_a_alink.h</text>
</a>
</g>
</g>
<!-- Node7&#45;&gt;Node8 -->
<g id="edge7" class="edge">
<title>Node7&#45;&gt;Node8</title>
<path fill="none" stroke="midnightblue" d="M713.46,-338.91C720.51,-337.52 727.68,-336.17 734.5,-335 793.08,-324.97 960.41,-343.76 999.5,-299 1011.78,-284.94 1008.06,-273.59 999.5,-257 989.17,-236.97 966.81,-223.15 949.93,-215.09"/>
<polygon fill="midnightblue" stroke="midnightblue" points="712.39,-335.55 703.29,-340.97 713.78,-342.42 712.39,-335.55"/>
</g>
<!-- Node7&#45;&gt;Node33 -->
<g id="edge38" class="edge">
<title>Node7&#45;&gt;Node33</title>
<path fill="none" stroke="midnightblue" d="M645.45,-334.67C587.33,-289.6 412.34,-155.38 348.5,-123 310.23,-103.59 262.91,-89.39 230.9,-81.07"/>
<polygon fill="midnightblue" stroke="midnightblue" points="643.4,-337.51 653.45,-340.88 647.7,-331.98 643.4,-337.51"/>
</g>
<!-- Node53 -->
<g id="node23" class="node">
<title>Node53</title>
<g id="a_node23"><a xlink:href="d__bg__s__acch_8h.html" target="_top" xlink:title=" ">
<polygon fill="white" stroke="red" points="612.5,-263 612.5,-293 716.5,-293 716.5,-263 612.5,-263"/>
<text text-anchor="start" x="620.5" y="-281" font-family="Helvetica,sans-Serif" font-size="10.00">include/d/bg/d_bg_s</text>
<text text-anchor="middle" x="664.5" y="-270" font-family="Helvetica,sans-Serif" font-size="10.00">_acch.h</text>
</a>
</g>
</g>
<!-- Node7&#45;&gt;Node53 -->
<g id="edge27" class="edge">
<title>Node7&#45;&gt;Node53</title>
<path fill="none" stroke="midnightblue" d="M664.5,-330.74C664.5,-318.91 664.5,-303.88 664.5,-293.08"/>
<polygon fill="midnightblue" stroke="midnightblue" points="661,-330.86 664.5,-340.86 668,-330.86 661,-330.86"/>
</g>
<!-- Node72 -->
<g id="node24" class="node">
<title>Node72</title>
<g id="a_node24"><a xlink:href="d__attention_8h.html" target="_top" xlink:title=" ">
<polygon fill="white" stroke="red" points="734.5,-268.5 734.5,-287.5 848.5,-287.5 848.5,-268.5 734.5,-268.5"/>
<text text-anchor="middle" x="791.5" y="-275.5" font-family="Helvetica,sans-Serif" font-size="10.00">include/d/d_attention.h</text>
</a>
</g>
</g>
<!-- Node7&#45;&gt;Node72 -->
<g id="edge28" class="edge">
<title>Node7&#45;&gt;Node72</title>
<path fill="none" stroke="midnightblue" d="M688.82,-336C714.44,-321.78 754.02,-299.8 775.8,-287.72"/>
<polygon fill="midnightblue" stroke="midnightblue" points="687.12,-332.94 680.07,-340.86 690.51,-339.06 687.12,-332.94"/>
</g>
<!-- Node7&#45;&gt;Node75 -->
<g id="edge31" class="edge">
<title>Node7&#45;&gt;Node75</title>
<path fill="none" stroke="midnightblue" d="M713.2,-338.91C720.33,-337.5 727.59,-336.15 734.5,-335 859.56,-314.13 901.83,-350.93 1017.5,-299 1061.84,-279.09 1101.3,-234.24 1116.67,-215.25"/>
<polygon fill="midnightblue" stroke="midnightblue" points="712.02,-335.57 702.91,-340.98 713.41,-342.43 712.02,-335.57"/>
</g>
<!-- Node7&#45;&gt;Node76 -->
<g id="edge34" class="edge">
<title>Node7&#45;&gt;Node76</title>
<path fill="none" stroke="midnightblue" d="M712.15,-338.92C719.61,-337.47 727.25,-336.1 734.5,-335 896.97,-310.3 939.08,-316.33 1102.5,-299 1145.38,-294.45 1194.11,-288.85 1229.24,-284.73"/>
<polygon fill="midnightblue" stroke="midnightblue" points="711.26,-335.53 702.15,-340.93 712.64,-342.39 711.26,-335.53"/>
</g>
<!-- Node77 -->
<g id="node27" class="node">
<title>Node77</title>
<g id="a_node27"><a xlink:href="d__a__tag__mmsg_8h.html" target="_top" xlink:title=" ">
<polygon fill="white" stroke="black" points="866.5,-257.5 866.5,-298.5 990.5,-298.5 990.5,-257.5 866.5,-257.5"/>
<text text-anchor="start" x="874.5" y="-286.5" font-family="Helvetica,sans-Serif" font-size="10.00">include/rel/d/a/tag</text>
<text text-anchor="start" x="874.5" y="-275.5" font-family="Helvetica,sans-Serif" font-size="10.00">/d_a_tag_mmsg/d_a_tag</text>
<text text-anchor="middle" x="928.5" y="-264.5" font-family="Helvetica,sans-Serif" font-size="10.00">_mmsg.h</text>
</a>
</g>
</g>
<!-- Node7&#45;&gt;Node77 -->
<g id="edge36" class="edge">
<title>Node7&#45;&gt;Node77</title>
<path fill="none" stroke="midnightblue" d="M707.77,-338.42C746.93,-328.34 806.15,-312.95 857.5,-299 860.34,-298.23 863.25,-297.43 866.18,-296.63"/>
<polygon fill="midnightblue" stroke="midnightblue" points="706.84,-335.05 698.02,-340.93 708.58,-341.83 706.84,-335.05"/>
</g>
<!-- Node8&#45;&gt;Node9 -->
<g id="edge8" class="edge">
<title>Node8&#45;&gt;Node9</title>
<path fill="none" stroke="midnightblue" d="M904.18,-190.75C884.85,-179.83 857.91,-164.6 838.43,-153.59"/>
<polygon fill="midnightblue" stroke="midnightblue" points="902.56,-193.86 912.99,-195.73 906.01,-187.77 902.56,-193.86"/>
</g>
<!-- Node8&#45;&gt;Node32 -->
<g id="edge26" class="edge">
<title>Node8&#45;&gt;Node32</title>
<path fill="none" stroke="midnightblue" d="M963.39,-192.63C1040.58,-166.37 1224.29,-103.87 1291.4,-81.04"/>
<polygon fill="midnightblue" stroke="midnightblue" points="962,-189.41 953.66,-195.94 964.25,-196.03 962,-189.41"/>
</g>
<!-- Node9&#45;&gt;Node4 -->
<g id="edge9" class="edge">
<title>Node9&#45;&gt;Node4</title>
<path fill="none" stroke="midnightblue" d="M747.87,-135.58C625.52,-131.35 354.52,-118.93 128.5,-87 117.71,-85.48 106.09,-83.26 95.51,-81.02"/>
<polygon fill="midnightblue" stroke="midnightblue" points="748.07,-139.09 758.18,-135.93 748.31,-132.09 748.07,-139.09"/>
</g>
<!-- Node10 -->
<g id="node10" class="node">
<title>Node10</title>
<g id="a_node10"><a xlink:href="d__item_8h.html" target="_top" xlink:title=" ">
<polygon fill="white" stroke="red" points="1149,-62 1149,-81 1244,-81 1244,-62 1149,-62"/>
<text text-anchor="middle" x="1196.5" y="-69" font-family="Helvetica,sans-Serif" font-size="10.00">include/d/d_item.h</text>
</a>
</g>
</g>
<!-- Node9&#45;&gt;Node10 -->
<g id="edge10" class="edge">
<title>Node9&#45;&gt;Node10</title>
<path fill="none" stroke="midnightblue" d="M878.84,-129.25C944.89,-120.46 1049.75,-105.32 1139.5,-87 1147.9,-85.28 1156.93,-83.13 1165.26,-81.02"/>
<polygon fill="midnightblue" stroke="midnightblue" points="878.04,-125.82 868.58,-130.6 878.95,-132.76 878.04,-125.82"/>
</g>
<!-- Node14 -->
<g id="node12" class="node">
<title>Node14</title>
<g id="a_node12"><a xlink:href="d__kantera__icon__meter_8h.html" target="_top" xlink:title=" ">
<polygon fill="white" stroke="red" points="513,-56.5 513,-86.5 614,-86.5 614,-56.5 513,-56.5"/>
<text text-anchor="start" x="521" y="-74.5" font-family="Helvetica,sans-Serif" font-size="10.00">include/d/d_kantera</text>
<text text-anchor="middle" x="563.5" y="-63.5" font-family="Helvetica,sans-Serif" font-size="10.00">_icon_meter.h</text>
</a>
</g>
</g>
<!-- Node9&#45;&gt;Node14 -->
<g id="edge12" class="edge">
<title>Node9&#45;&gt;Node14</title>
<path fill="none" stroke="midnightblue" d="M749.71,-120.91C707.7,-109.99 653.45,-95.89 614.36,-85.72"/>
<polygon fill="midnightblue" stroke="midnightblue" points="749,-124.35 759.56,-123.48 750.76,-117.57 749,-124.35"/>
</g>
<!-- Node17 -->
<g id="node13" class="node">
<title>Node17</title>
<g id="a_node13"><a xlink:href="d__file__sel__info_8h.html" target="_top" xlink:title=" ">
<polygon fill="white" stroke="red" points="632.5,-56.5 632.5,-86.5 728.5,-86.5 728.5,-56.5 632.5,-56.5"/>
<text text-anchor="start" x="640.5" y="-74.5" font-family="Helvetica,sans-Serif" font-size="10.00">include/d/file/d_file</text>
<text text-anchor="middle" x="680.5" y="-63.5" font-family="Helvetica,sans-Serif" font-size="10.00">_sel_info.h</text>
</a>
</g>
</g>
<!-- Node9&#45;&gt;Node17 -->
<g id="edge13" class="edge">
<title>Node9&#45;&gt;Node17</title>
<path fill="none" stroke="midnightblue" d="M775.63,-118.99C754.55,-108.69 728.72,-96.07 709.3,-86.58"/>
<polygon fill="midnightblue" stroke="midnightblue" points="774.12,-122.15 784.64,-123.4 777.19,-115.86 774.12,-122.15"/>
</g>
<!-- Node19 -->
<g id="node14" class="node">
<title>Node19</title>
<g id="a_node14"><a xlink:href="d__meter2_8h.html" target="_top" xlink:title=" ">
<polygon fill="white" stroke="red" points="746.5,-62 746.5,-81 880.5,-81 880.5,-62 746.5,-62"/>
<text text-anchor="middle" x="813.5" y="-69" font-family="Helvetica,sans-Serif" font-size="10.00">include/d/meter/d_meter2.h</text>
</a>
</g>
</g>
<!-- Node9&#45;&gt;Node19 -->
<g id="edge14" class="edge">
<title>Node9&#45;&gt;Node19</title>
<path fill="none" stroke="midnightblue" d="M813.5,-113.25C813.5,-102.02 813.5,-89.38 813.5,-81.19"/>
<polygon fill="midnightblue" stroke="midnightblue" points="810,-113.4 813.5,-123.4 817,-113.4 810,-113.4"/>
</g>
<!-- Node27 -->
<g id="node15" class="node">
<title>Node27</title>
<g id="a_node15"><a xlink:href="d__msg__object_8h.html" target="_top" xlink:title=" ">
<polygon fill="white" stroke="red" points="898.5,-56.5 898.5,-86.5 1008.5,-86.5 1008.5,-56.5 898.5,-56.5"/>
<text text-anchor="start" x="906.5" y="-74.5" font-family="Helvetica,sans-Serif" font-size="10.00">include/d/msg/d_msg</text>
<text text-anchor="middle" x="953.5" y="-63.5" font-family="Helvetica,sans-Serif" font-size="10.00">_object.h</text>
</a>
</g>
</g>
<!-- Node9&#45;&gt;Node27 -->
<g id="edge15" class="edge">
<title>Node9&#45;&gt;Node27</title>
<path fill="none" stroke="midnightblue" d="M853.07,-119.13C875.31,-108.8 902.65,-96.11 923.18,-86.58"/>
<polygon fill="midnightblue" stroke="midnightblue" points="851.47,-116.01 843.88,-123.4 854.42,-122.36 851.47,-116.01"/>
</g>
<!-- Node30 -->
<g id="node16" class="node">
<title>Node30</title>
<g id="a_node16"><a xlink:href="d__s__play_8h.html" target="_top" xlink:title=" ">
<polygon fill="white" stroke="black" points="382,-62 382,-81 495,-81 495,-62 382,-62"/>
<text text-anchor="middle" x="438.5" y="-69" font-family="Helvetica,sans-Serif" font-size="10.00">include/d/s/d_s_play.h</text>
</a>
</g>
</g>
<!-- Node9&#45;&gt;Node30 -->
<g id="edge17" class="edge">
<title>Node9&#45;&gt;Node30</title>
<path fill="none" stroke="midnightblue" d="M748.28,-128C685.42,-118.58 587.69,-103.23 503.5,-87 494.19,-85.2 484.18,-83.07 474.86,-81"/>
<polygon fill="midnightblue" stroke="midnightblue" points="748.04,-131.5 758.45,-129.52 749.08,-124.58 748.04,-131.5"/>
</g>
<!-- Node31 -->
<g id="node17" class="node">
<title>Node31</title>
<g id="a_node17"><a xlink:href="c__dylink_8cpp.html" target="_top" xlink:title=" ">
<polygon fill="white" stroke="black" points="1528,-62 1528,-81 1623,-81 1623,-62 1528,-62"/>
<text text-anchor="middle" x="1575.5" y="-69" font-family="Helvetica,sans-Serif" font-size="10.00">src/c/c_dylink.cpp</text>
</a>
</g>
</g>
<!-- Node9&#45;&gt;Node31 -->
<g id="edge20" class="edge">
<title>Node9&#45;&gt;Node31</title>
<path fill="none" stroke="midnightblue" d="M878.9,-136.68C1003.94,-134.27 1285.21,-124.72 1518.5,-87 1527.57,-85.53 1537.31,-83.31 1546.13,-81.03"/>
<polygon fill="midnightblue" stroke="midnightblue" points="878.67,-133.19 868.73,-136.87 878.79,-140.19 878.67,-133.19"/>
</g>
<!-- Node9&#45;&gt;Node32 -->
<g id="edge21" class="edge">
<title>Node9&#45;&gt;Node32</title>
<path fill="none" stroke="midnightblue" d="M878.66,-132.23C964.66,-124.76 1120.59,-109.46 1252.5,-87 1262.16,-85.36 1272.55,-83.18 1282.09,-81.01"/>
<polygon fill="midnightblue" stroke="midnightblue" points="878.19,-128.75 868.52,-133.1 878.79,-135.73 878.19,-128.75"/>
</g>
<!-- Node9&#45;&gt;Node33 -->
<g id="edge22" class="edge">
<title>Node9&#45;&gt;Node33</title>
<path fill="none" stroke="midnightblue" d="M748.27,-134.19C644.51,-128.34 435.68,-114.13 260.5,-87 250.41,-85.44 239.56,-83.26 229.63,-81.07"/>
<polygon fill="midnightblue" stroke="midnightblue" points="748.1,-137.69 758.28,-134.75 748.49,-130.7 748.1,-137.69"/>
</g>
<!-- Node34 -->
<g id="node20" class="node">
<title>Node34</title>
<g id="a_node20"><a xlink:href="d__bg__s_8cpp.html" target="_top" xlink:title=" ">
<polygon fill="white" stroke="black" points="1026.5,-62 1026.5,-81 1130.5,-81 1130.5,-62 1026.5,-62"/>
<text text-anchor="middle" x="1078.5" y="-69" font-family="Helvetica,sans-Serif" font-size="10.00">src/d/bg/d_bg_s.cpp</text>
</a>
</g>
</g>
<!-- Node9&#45;&gt;Node34 -->
<g id="edge23" class="edge">
<title>Node9&#45;&gt;Node34</title>
<path fill="none" stroke="midnightblue" d="M878.55,-121.54C930.65,-108.77 1001.71,-91.34 1043.58,-81.06"/>
<polygon fill="midnightblue" stroke="midnightblue" points="877.61,-118.17 868.73,-123.95 879.28,-124.97 877.61,-118.17"/>
</g>
<!-- Node9&#45;&gt;Node41 -->
<g id="edge24" class="edge">
<title>Node9&#45;&gt;Node41</title>
<path fill="none" stroke="midnightblue" d="M748.29,-132.89C661.86,-126.13 504.83,-111.58 372.5,-87 363.91,-85.4 354.69,-83.22 346.26,-81.03"/>
<polygon fill="midnightblue" stroke="midnightblue" points="748.24,-136.4 758.48,-133.68 748.78,-129.42 748.24,-136.4"/>
</g>
<!-- Node9&#45;&gt;Node43 -->
<g id="edge25" class="edge">
<title>Node9&#45;&gt;Node43</title>
<path fill="none" stroke="midnightblue" d="M878.98,-134.12C984.69,-128.1 1199.34,-113.61 1379.5,-87 1390.18,-85.42 1401.69,-83.24 1412.22,-81.05"/>
<polygon fill="midnightblue" stroke="midnightblue" points="878.57,-130.63 868.78,-134.69 878.96,-137.62 878.57,-130.63"/>
</g>
<!-- Node13 -->
<g id="node11" class="node">
<title>Node13</title>
<g id="a_node11"><a xlink:href="d__s__play_8cpp.html" target="_top" xlink:title=" ">
<polygon fill="white" stroke="black" points="1021.5,-0.5 1021.5,-19.5 1127.5,-19.5 1127.5,-0.5 1021.5,-0.5"/>
<text text-anchor="middle" x="1074.5" y="-7.5" font-family="Helvetica,sans-Serif" font-size="10.00">src/d/s/d_s_play.cpp</text>
</a>
</g>
</g>
<!-- Node10&#45;&gt;Node13 -->
<g id="edge11" class="edge">
<title>Node10&#45;&gt;Node13</title>
<path fill="none" stroke="midnightblue" d="M1169.89,-57.52C1146.23,-45.98 1112.32,-29.44 1091.95,-19.51"/>
<polygon fill="midnightblue" stroke="midnightblue" points="1168.5,-60.74 1179.02,-61.98 1171.57,-54.45 1168.5,-60.74"/>
</g>
<!-- Node27&#45;&gt;Node13 -->
<g id="edge16" class="edge">
<title>Node27&#45;&gt;Node13</title>
<path fill="none" stroke="midnightblue" d="M991.24,-51.94C1013.17,-41.16 1039.76,-28.08 1056.89,-19.66"/>
<polygon fill="midnightblue" stroke="midnightblue" points="989.6,-48.85 982.18,-56.4 992.69,-55.13 989.6,-48.85"/>
</g>
<!-- Node30&#45;&gt;Node5 -->
<g id="edge18" class="edge">
<title>Node30&#45;&gt;Node5</title>
<path fill="none" stroke="midnightblue" d="M401.59,-58.88C364.85,-47.32 309.35,-29.84 276.53,-19.51"/>
<polygon fill="midnightblue" stroke="midnightblue" points="400.83,-62.31 411.42,-61.98 402.93,-55.63 400.83,-62.31"/>
</g>
<!-- Node30&#45;&gt;Node13 -->
<g id="edge19" class="edge">
<title>Node30&#45;&gt;Node13</title>
<path fill="none" stroke="midnightblue" d="M482.47,-59.81C489.47,-58.37 496.66,-57.03 503.5,-56 692.8,-27.57 920.27,-16.45 1021.47,-12.69"/>
<polygon fill="midnightblue" stroke="midnightblue" points="481.44,-56.46 472.4,-61.99 482.92,-63.3 481.44,-56.46"/>
</g>
<!-- Node72&#45;&gt;Node8 -->
<g id="edge29" class="edge">
<title>Node72&#45;&gt;Node8</title>
<path fill="none" stroke="midnightblue" d="M817.13,-263.81C844.88,-249.53 888.33,-227.17 911.92,-215.03"/>
<polygon fill="midnightblue" stroke="midnightblue" points="815.32,-260.81 808.03,-268.5 818.52,-267.03 815.32,-260.81"/>
</g>
<!-- Node72&#45;&gt;Node9 -->
<g id="edge30" class="edge">
<title>Node72&#45;&gt;Node9</title>
<path fill="none" stroke="midnightblue" d="M794.48,-258.39C798.94,-230.53 807.24,-178.6 811.24,-153.62"/>
<polygon fill="midnightblue" stroke="midnightblue" points="791,-257.97 792.88,-268.4 797.91,-259.08 791,-257.97"/>
</g>
<!-- Node75&#45;&gt;Node9 -->
<g id="edge32" class="edge">
<title>Node75&#45;&gt;Node9</title>
<path fill="none" stroke="midnightblue" d="M1072.58,-193.82C1016.4,-182.04 926.34,-163.16 868.56,-151.05"/>
<polygon fill="midnightblue" stroke="midnightblue" points="1072.15,-197.31 1082.65,-195.94 1073.59,-190.46 1072.15,-197.31"/>
</g>
<!-- Node75&#45;&gt;Node43 -->
<g id="edge33" class="edge">
<title>Node75&#45;&gt;Node43</title>
<path fill="none" stroke="midnightblue" d="M1154.3,-192.03C1220.01,-165.42 1372.53,-103.67 1428.46,-81.02"/>
<polygon fill="midnightblue" stroke="midnightblue" points="1152.85,-188.84 1144.89,-195.84 1155.47,-195.33 1152.85,-188.84"/>
</g>
<!-- Node76&#45;&gt;Node32 -->
<g id="edge35" class="edge">
<title>Node76&#45;&gt;Node32</title>
<path fill="none" stroke="midnightblue" d="M1282.06,-253.07C1290.73,-207.64 1309.2,-110.79 1314.83,-81.24"/>
<polygon fill="midnightblue" stroke="midnightblue" points="1278.62,-252.47 1280.18,-262.94 1285.49,-253.78 1278.62,-252.47"/>
</g>
<!-- Node77&#45;&gt;Node8 -->
<g id="edge37" class="edge">
<title>Node77&#45;&gt;Node8</title>
<path fill="none" stroke="midnightblue" d="M928.5,-247.1C928.5,-235.53 928.5,-223.18 928.5,-215.17"/>
<polygon fill="midnightblue" stroke="midnightblue" points="925,-247.36 928.5,-257.36 932,-247.36 925,-247.36"/>
</g>
<!-- Node85&#45;&gt;Node13 -->
<g id="edge49" class="edge">
<title>Node85&#45;&gt;Node13</title>
<path fill="none" stroke="midnightblue" d="M1656.51,-179.85C1661.68,-146.54 1664.91,-87.68 1631.5,-56 1595.42,-21.79 1259.95,-13.51 1127.71,-11.57"/>
<polygon fill="midnightblue" stroke="midnightblue" points="1652.99,-179.64 1654.73,-190.09 1659.89,-180.84 1652.99,-179.64"/>
</g>
<!-- Node86 -->
<g id="node33" class="node">
<title>Node86</title>
<g id="a_node33"><a xlink:href="c__dylink_8h.html" target="_top" xlink:title=" ">
<polygon fill="white" stroke="black" points="1522,-129 1522,-148 1623,-148 1623,-129 1522,-129"/>
<text text-anchor="middle" x="1572.5" y="-136" font-family="Helvetica,sans-Serif" font-size="10.00">include/c/c_dylink.h</text>
</a>
</g>
</g>
<!-- Node85&#45;&gt;Node86 -->
<g id="edge47" class="edge">
<title>Node85&#45;&gt;Node86</title>
<path fill="none" stroke="midnightblue" d="M1626.59,-184.01C1611.93,-171.94 1594.14,-157.3 1583.07,-148.19"/>
<polygon fill="midnightblue" stroke="midnightblue" points="1624.41,-186.75 1634.36,-190.4 1628.86,-181.34 1624.41,-186.75"/>
</g>
<!-- Node87 -->
<g id="node34" class="node">
<title>Node87</title>
<g id="a_node34"><a xlink:href="f__ap__game_8cpp.html" target="_top" xlink:title=" ">
<polygon fill="white" stroke="black" points="1680,-129 1680,-148 1801,-148 1801,-129 1680,-129"/>
<text text-anchor="middle" x="1740.5" y="-136" font-family="Helvetica,sans-Serif" font-size="10.00">src/f_ap/f_ap_game.cpp</text>
</a>
</g>
</g>
<!-- Node85&#45;&gt;Node87 -->
<g id="edge50" class="edge">
<title>Node85&#45;&gt;Node87</title>
<path fill="none" stroke="midnightblue" d="M1679.15,-184.31C1695.86,-172.1 1716.3,-157.18 1728.85,-148.01"/>
<polygon fill="midnightblue" stroke="midnightblue" points="1676.82,-181.67 1670.81,-190.4 1680.95,-187.32 1676.82,-181.67"/>
</g>
<!-- Node88 -->
<g id="node35" class="node">
<title>Node88</title>
<g id="a_node35"><a xlink:href="f__op__scene__mng_8cpp.html" target="_top" xlink:title=" ">
<polygon fill="white" stroke="black" points="1819,-123.5 1819,-153.5 1924,-153.5 1924,-123.5 1819,-123.5"/>
<text text-anchor="start" x="1827" y="-141.5" font-family="Helvetica,sans-Serif" font-size="10.00">src/f_op/f_op_scene</text>
<text text-anchor="middle" x="1871.5" y="-130.5" font-family="Helvetica,sans-Serif" font-size="10.00">_mng.cpp</text>
</a>
</g>
</g>
<!-- Node85&#45;&gt;Node88 -->
<g id="edge51" class="edge">
<title>Node85&#45;&gt;Node88</title>
<path fill="none" stroke="midnightblue" d="M1708.77,-187.58C1744.5,-177.02 1789.96,-163.59 1823.74,-153.61"/>
<polygon fill="midnightblue" stroke="midnightblue" points="1707.56,-184.29 1698.97,-190.48 1709.55,-191 1707.56,-184.29"/>
</g>
<!-- Node86&#45;&gt;Node31 -->
<g id="edge48" class="edge">
<title>Node86&#45;&gt;Node31</title>
<path fill="none" stroke="midnightblue" d="M1573.38,-118.54C1573.95,-106.17 1574.66,-90.62 1575.1,-81.13"/>
<polygon fill="midnightblue" stroke="midnightblue" points="1569.87,-118.58 1572.9,-128.73 1576.86,-118.91 1569.87,-118.58"/>
</g>
</g>
</svg>
