<?xml version="1.0" encoding="UTF-8" standalone="no"?>
<!DOCTYPE svg PUBLIC "-//W3C//DTD SVG 1.1//EN"
 "http://www.w3.org/Graphics/SVG/1.1/DTD/svg11.dtd">
<!-- Generated by graphviz version 7.0.4 (20221203.1631)
 -->
<!-- Title: Graphical Class Hierarchy Pages: 1 -->
<svg width="871pt" height="1518pt"
 viewBox="0.00 0.00 871.00 1518.00" xmlns="http://www.w3.org/2000/svg" xmlns:xlink="http://www.w3.org/1999/xlink">
<g id="graph0" class="graph" transform="scale(1 1) rotate(0) translate(4 1514)">
<title>Graphical Class Hierarchy</title>
<!-- Node0 -->
<g id="node1" class="node">
<title>Node0</title>
<g id="a_node1"><a xlink:href="structJAISoundHandle.html" target="_top" xlink:title=" ">
<polygon fill="white" stroke="#666666" points="238.5,-1510 148.5,-1510 148.5,-1491 238.5,-1491 238.5,-1510"/>
<text text-anchor="middle" x="193.5" y="-1498" font-family="Helvetica,sans-Serif" font-size="10.00">JAISoundHandle</text>
</a>
</g>
</g>
<!-- Node1 -->
<g id="node2" class="node">
<title>Node1</title>
<g id="a_node2"><a xlink:href="classZ2SoundHandlePool.html" target="_top" xlink:title=" ">
<polygon fill="white" stroke="#666666" points="429,-1491 323,-1491 323,-1472 429,-1472 429,-1491"/>
<text text-anchor="middle" x="376" y="-1479" font-family="Helvetica,sans-Serif" font-size="10.00">Z2SoundHandlePool</text>
</a>
</g>
</g>
<!-- Node0&#45;&gt;Node1 -->
<g id="edge1" class="edge">
<title>Node0&#45;&gt;Node1</title>
<path fill="none" stroke="#63b8ff" d="M250.03,-1494.65C273.15,-1492.22 299.87,-1489.41 322.64,-1487.01"/>
<polygon fill="#63b8ff" stroke="#63b8ff" points="249.74,-1491.17 240.16,-1495.69 250.47,-1498.13 249.74,-1491.17"/>
</g>
<!-- Node3 -->
<g id="node3" class="node">
<title>Node3</title>
<g id="a_node3"><a xlink:href="structJSUPtrLink.html" target="_top" xlink:title=" ">
<polygon fill="white" stroke="#666666" points="68,-1171 0,-1171 0,-1152 68,-1152 68,-1171"/>
<text text-anchor="middle" x="34" y="-1159" font-family="Helvetica,sans-Serif" font-size="10.00">JSUPtrLink</text>
</a>
</g>
</g>
<!-- Node4 -->
<g id="node4" class="node">
<title>Node4</title>
<g id="a_node4"><a xlink:href="structJSULink.html" target="_top" xlink:title=" ">
<polygon fill="white" stroke="#666666" points="232,-820 155,-820 155,-801 232,-801 232,-820"/>
<text text-anchor="middle" x="193.5" y="-808" font-family="Helvetica,sans-Serif" font-size="10.00">JSULink&lt; T &gt;</text>
</a>
</g>
</g>
<!-- Node3&#45;&gt;Node4 -->
<g id="edge2" class="edge">
<title>Node3&#45;&gt;Node4</title>
<path fill="none" stroke="#63b8ff" d="M36.4,-1140.49C41.22,-1074.47 59.4,-872.94 104,-828.5 117.11,-815.44 136.93,-810.6 154.5,-809.17"/>
<polygon fill="#63b8ff" stroke="#63b8ff" points="32.92,-1140.07 35.71,-1150.29 39.9,-1140.56 32.92,-1140.07"/>
</g>
<!-- Node2 -->
<g id="node6" class="node">
<title>Node2</title>
<g id="a_node6"><a xlink:href="structJSULink.html" target="_top" xlink:title=" ">
<polygon fill="white" stroke="#666666" points="274,-1473 113,-1473 113,-1454 274,-1454 274,-1473"/>
<text text-anchor="middle" x="193.5" y="-1461" font-family="Helvetica,sans-Serif" font-size="10.00">JSULink&lt; Z2SoundHandlePool &gt;</text>
</a>
</g>
</g>
<!-- Node3&#45;&gt;Node2 -->
<g id="edge4" class="edge">
<title>Node3&#45;&gt;Node2</title>
<path fill="none" stroke="#63b8ff" d="M37.2,-1182.46C43.86,-1241.72 65.69,-1408.61 104,-1445.5 107.28,-1448.65 110.94,-1451.32 114.88,-1453.58"/>
<polygon fill="#63b8ff" stroke="#63b8ff" points="40.71,-1182.31 36.15,-1172.75 33.75,-1183.07 40.71,-1182.31"/>
</g>
<!-- Node39 -->
<g id="node7" class="node">
<title>Node39</title>
<g id="a_node7"><a xlink:href="structJSULink.html" target="_top" xlink:title=" ">
<polygon fill="white" stroke="#666666" points="249,-1436 138,-1436 138,-1417 249,-1417 249,-1436"/>
<text text-anchor="middle" x="193.5" y="-1424" font-family="Helvetica,sans-Serif" font-size="10.00">JSULink&lt; J2DPane &gt;</text>
</a>
</g>
</g>
<!-- Node3&#45;&gt;Node39 -->
<g id="edge6" class="edge">
<title>Node3&#45;&gt;Node39</title>
<path fill="none" stroke="#63b8ff" d="M34.11,-1182.64C33.34,-1230.49 38.62,-1347.65 104,-1408.5 113.18,-1417.05 125.27,-1422.01 137.55,-1424.79"/>
<polygon fill="#63b8ff" stroke="#63b8ff" points="37.6,-1182.93 34.39,-1172.84 30.61,-1182.73 37.6,-1182.93"/>
</g>
<!-- Node40 -->
<g id="node8" class="node">
<title>Node40</title>
<g id="a_node8"><a xlink:href="structJSULink.html" target="_top" xlink:title=" ">
<polygon fill="white" stroke="#666666" points="252,-1399 135,-1399 135,-1380 252,-1380 252,-1399"/>
<text text-anchor="middle" x="193.5" y="-1387" font-family="Helvetica,sans-Serif" font-size="10.00">JSULink&lt; JFWAlarm &gt;</text>
</a>
</g>
</g>
<!-- Node3&#45;&gt;Node40 -->
<g id="edge7" class="edge">
<title>Node3&#45;&gt;Node40</title>
<path fill="none" stroke="#63b8ff" d="M35.34,-1182.62C37.24,-1225.21 47.87,-1321.57 104,-1371.5 112.55,-1379.11 123.42,-1383.84 134.6,-1386.72"/>
<polygon fill="#63b8ff" stroke="#63b8ff" points="38.84,-1182.64 35.04,-1172.76 31.85,-1182.86 38.84,-1182.64"/>
</g>
<!-- Node41 -->
<g id="node9" class="node">
<title>Node41</title>
<g id="a_node9"><a xlink:href="structJSULink.html" target="_top" xlink:title=" ">
<polygon fill="white" stroke="#666666" points="267.5,-1362 119.5,-1362 119.5,-1343 267.5,-1343 267.5,-1362"/>
<text text-anchor="middle" x="193.5" y="-1350" font-family="Helvetica,sans-Serif" font-size="10.00">JSULink&lt; JKRADCommand &gt;</text>
</a>
</g>
</g>
<!-- Node3&#45;&gt;Node41 -->
<g id="edge8" class="edge">
<title>Node3&#45;&gt;Node41</title>
<path fill="none" stroke="#63b8ff" d="M37.02,-1182.42C41.74,-1219.18 56.94,-1295.19 104,-1334.5 108.57,-1338.32 113.74,-1341.4 119.22,-1343.88"/>
<polygon fill="#63b8ff" stroke="#63b8ff" points="40.52,-1182.23 35.92,-1172.68 33.56,-1183.01 40.52,-1182.23"/>
</g>
<!-- Node42 -->
<g id="node10" class="node">
<title>Node42</title>
<g id="a_node10"><a xlink:href="structJSULink.html" target="_top" xlink:title=" ">
<polygon fill="white" stroke="#666666" points="268,-1325 119,-1325 119,-1306 268,-1306 268,-1325"/>
<text text-anchor="middle" x="193.5" y="-1313" font-family="Helvetica,sans-Serif" font-size="10.00">JSULink&lt; JKRAMCommand &gt;</text>
</a>
</g>
</g>
<!-- Node3&#45;&gt;Node42 -->
<g id="edge9" class="edge">
<title>Node3&#45;&gt;Node42</title>
<path fill="none" stroke="#63b8ff" d="M39.47,-1182.17C47.16,-1212.47 65.87,-1268.45 104,-1297.5 108.49,-1300.92 113.47,-1303.73 118.71,-1306.05"/>
<polygon fill="#63b8ff" stroke="#63b8ff" points="42.95,-1181.66 37.25,-1172.73 36.13,-1183.26 42.95,-1181.66"/>
</g>
<!-- Node43 -->
<g id="node11" class="node">
<title>Node43</title>
<g id="a_node11"><a xlink:href="structJSULink.html" target="_top" xlink:title=" ">
<polygon fill="white" stroke="#666666" points="262.5,-1288 124.5,-1288 124.5,-1269 262.5,-1269 262.5,-1288"/>
<text text-anchor="middle" x="193.5" y="-1276" font-family="Helvetica,sans-Serif" font-size="10.00">JSULink&lt; JKRAramBlock &gt;</text>
</a>
</g>
</g>
<!-- Node3&#45;&gt;Node43 -->
<g id="edge10" class="edge">
<title>Node3&#45;&gt;Node43</title>
<path fill="none" stroke="#63b8ff" d="M43.33,-1181.49C53.93,-1204.35 74.49,-1241.11 104,-1260.5 110.16,-1264.55 117.04,-1267.71 124.17,-1270.19"/>
<polygon fill="#63b8ff" stroke="#63b8ff" points="46.66,-1180.36 39.42,-1172.62 40.25,-1183.19 46.66,-1180.36"/>
</g>
<!-- Node44 -->
<g id="node12" class="node">
<title>Node44</title>
<g id="a_node12"><a xlink:href="structJSULink.html" target="_top" xlink:title=" ">
<polygon fill="white" stroke="#666666" points="257.5,-1251 129.5,-1251 129.5,-1232 257.5,-1232 257.5,-1251"/>
<text text-anchor="middle" x="193.5" y="-1239" font-family="Helvetica,sans-Serif" font-size="10.00">JSULink&lt; JKRDisposer &gt;</text>
</a>
</g>
</g>
<!-- Node3&#45;&gt;Node44 -->
<g id="edge11" class="edge">
<title>Node3&#45;&gt;Node44</title>
<path fill="none" stroke="#63b8ff" d="M50.2,-1179.67C63.07,-1193.82 82.76,-1212.81 104,-1223.5 111.84,-1227.45 120.49,-1230.53 129.21,-1232.94"/>
<polygon fill="#63b8ff" stroke="#63b8ff" points="53.01,-1177.56 43.78,-1172.34 47.74,-1182.17 53.01,-1177.56"/>
</g>
<!-- Node45 -->
<g id="node13" class="node">
<title>Node45</title>
<g id="a_node13"><a xlink:href="structJSULink.html" target="_top" xlink:title=" ">
<polygon fill="white" stroke="#666666" points="255,-1214 132,-1214 132,-1195 255,-1195 255,-1214"/>
<text text-anchor="middle" x="193.5" y="-1202" font-family="Helvetica,sans-Serif" font-size="10.00">JSULink&lt; JKRDvdFile &gt;</text>
</a>
</g>
</g>
<!-- Node3&#45;&gt;Node45 -->
<g id="edge12" class="edge">
<title>Node3&#45;&gt;Node45</title>
<path fill="none" stroke="#63b8ff" d="M71.74,-1175.22C82.09,-1178.83 93.42,-1182.54 104,-1185.5 115.8,-1188.81 128.63,-1191.86 140.76,-1194.51"/>
<polygon fill="#63b8ff" stroke="#63b8ff" points="72.99,-1171.95 62.4,-1171.89 70.64,-1178.54 72.99,-1171.95"/>
</g>
<!-- Node46 -->
<g id="node14" class="node">
<title>Node46</title>
<g id="a_node14"><a xlink:href="structJSULink.html" target="_top" xlink:title=" ">
<polygon fill="white" stroke="#666666" points="256,-1176.5 131,-1176.5 131,-1146.5 256,-1146.5 256,-1176.5"/>
<text text-anchor="start" x="139" y="-1164.5" font-family="Helvetica,sans-Serif" font-size="10.00">JSULink&lt; JKRFileCache</text>
<text text-anchor="middle" x="193.5" y="-1153.5" font-family="Helvetica,sans-Serif" font-size="10.00">::CCacheBlock &gt;</text>
</a>
</g>
</g>
<!-- Node3&#45;&gt;Node46 -->
<g id="edge13" class="edge">
<title>Node3&#45;&gt;Node46</title>
<path fill="none" stroke="#63b8ff" d="M79.49,-1161.5C95.34,-1161.5 113.49,-1161.5 130.53,-1161.5"/>
<polygon fill="#63b8ff" stroke="#63b8ff" points="79.92,-1158 69.92,-1161.5 79.92,-1165 79.92,-1158"/>
</g>
<!-- Node47 -->
<g id="node15" class="node">
<title>Node47</title>
<g id="a_node15"><a xlink:href="structJSULink.html" target="_top" xlink:title=" ">
<polygon fill="white" stroke="#666666" points="261.5,-1128 125.5,-1128 125.5,-1109 261.5,-1109 261.5,-1128"/>
<text text-anchor="middle" x="193.5" y="-1116" font-family="Helvetica,sans-Serif" font-size="10.00">JSULink&lt; JKRFileLoader &gt;</text>
</a>
</g>
</g>
<!-- Node3&#45;&gt;Node47 -->
<g id="edge14" class="edge">
<title>Node3&#45;&gt;Node47</title>
<path fill="none" stroke="#63b8ff" d="M71.74,-1147.78C82.09,-1144.17 93.42,-1140.46 104,-1137.5 115.8,-1134.19 128.63,-1131.14 140.76,-1128.49"/>
<polygon fill="#63b8ff" stroke="#63b8ff" points="70.64,-1144.46 62.4,-1151.11 72.99,-1151.05 70.64,-1144.46"/>
</g>
<!-- Node48 -->
<g id="node16" class="node">
<title>Node48</title>
<g id="a_node16"><a xlink:href="structJSULink.html" target="_top" xlink:title=" ">
<polygon fill="white" stroke="#666666" points="250,-1054 137,-1054 137,-1035 250,-1035 250,-1054"/>
<text text-anchor="middle" x="193.5" y="-1042" font-family="Helvetica,sans-Serif" font-size="10.00">JSULink&lt; JKRHeap &gt;</text>
</a>
</g>
</g>
<!-- Node3&#45;&gt;Node48 -->
<g id="edge15" class="edge">
<title>Node3&#45;&gt;Node48</title>
<path fill="none" stroke="#63b8ff" d="M43.73,-1141.11C54.51,-1118.49 75.03,-1082.66 104,-1063.5 113.7,-1057.08 125.19,-1052.79 136.62,-1049.93"/>
<polygon fill="#63b8ff" stroke="#63b8ff" points="40.55,-1139.65 39.61,-1150.2 46.93,-1142.54 40.55,-1139.65"/>
</g>
<!-- Node49 -->
<g id="node17" class="node">
<title>Node49</title>
<g id="a_node17"><a xlink:href="structJSULink.html" target="_top" xlink:title=" ">
<polygon fill="white" stroke="#666666" points="253.5,-1017 133.5,-1017 133.5,-998 253.5,-998 253.5,-1017"/>
<text text-anchor="middle" x="193.5" y="-1005" font-family="Helvetica,sans-Serif" font-size="10.00">JSULink&lt; JKRThread &gt;</text>
</a>
</g>
</g>
<!-- Node3&#45;&gt;Node49 -->
<g id="edge16" class="edge">
<title>Node3&#45;&gt;Node49</title>
<path fill="none" stroke="#63b8ff" d="M39.56,-1141.03C47.36,-1111.02 66.2,-1055.53 104,-1026.5 112.48,-1019.99 122.69,-1015.6 133.13,-1012.66"/>
<polygon fill="#63b8ff" stroke="#63b8ff" points="36.25,-1139.83 37.3,-1150.37 43.05,-1141.47 36.25,-1139.83"/>
</g>
<!-- Node50 -->
<g id="node18" class="node">
<title>Node50</title>
<g id="a_node18"><a xlink:href="structJSULink.html" target="_top" xlink:title=" ">
<polygon fill="white" stroke="#666666" points="265,-980 122,-980 122,-961 265,-961 265,-980"/>
<text text-anchor="middle" x="193.5" y="-968" font-family="Helvetica,sans-Serif" font-size="10.00">JSULink&lt; JPABaseEmitter &gt;</text>
</a>
</g>
</g>
<!-- Node3&#45;&gt;Node50 -->
<g id="edge17" class="edge">
<title>Node3&#45;&gt;Node50</title>
<path fill="none" stroke="#63b8ff" d="M37.1,-1140.75C41.95,-1104.27 57.35,-1028.83 104,-989.5 109.29,-985.04 115.37,-981.56 121.82,-978.84"/>
<polygon fill="#63b8ff" stroke="#63b8ff" points="33.66,-1140.06 35.97,-1150.4 40.61,-1140.87 33.66,-1140.06"/>
</g>
<!-- Node51 -->
<g id="node19" class="node">
<title>Node51</title>
<g id="a_node19"><a xlink:href="structJSULink.html" target="_top" xlink:title=" ">
<polygon fill="white" stroke="#666666" points="255.5,-942.5 131.5,-942.5 131.5,-912.5 255.5,-912.5 255.5,-942.5"/>
<text text-anchor="start" x="139.5" y="-930.5" font-family="Helvetica,sans-Serif" font-size="10.00">JSULink&lt; JUTException</text>
<text text-anchor="middle" x="193.5" y="-919.5" font-family="Helvetica,sans-Serif" font-size="10.00">::JUTExMapFile &gt;</text>
</a>
</g>
</g>
<!-- Node3&#45;&gt;Node51 -->
<g id="edge18" class="edge">
<title>Node3&#45;&gt;Node51</title>
<path fill="none" stroke="#63b8ff" d="M35.72,-1140.23C38.33,-1098.17 50.22,-1003.99 104,-952.5 111.61,-945.21 121.18,-940.02 131.19,-936.33"/>
<polygon fill="#63b8ff" stroke="#63b8ff" points="32.24,-1139.84 35.25,-1149.99 39.23,-1140.18 32.24,-1139.84"/>
</g>
<!-- Node52 -->
<g id="node20" class="node">
<title>Node52</title>
<g id="a_node20"><a xlink:href="structJSULink.html" target="_top" xlink:title=" ">
<polygon fill="white" stroke="#666666" points="260.5,-894 126.5,-894 126.5,-875 260.5,-875 260.5,-894"/>
<text text-anchor="middle" x="193.5" y="-882" font-family="Helvetica,sans-Serif" font-size="10.00">JSULink&lt; JUTGamePad &gt;</text>
</a>
</g>
</g>
<!-- Node3&#45;&gt;Node52 -->
<g id="edge19" class="edge">
<title>Node3&#45;&gt;Node52</title>
<path fill="none" stroke="#63b8ff" d="M37.81,-1140.3C45.6,-1084.68 69.25,-936.56 104,-903.5 110.26,-897.54 117.92,-893.27 126.08,-890.23"/>
<polygon fill="#63b8ff" stroke="#63b8ff" points="34.37,-1139.64 36.48,-1150.02 41.3,-1140.59 34.37,-1139.64"/>
</g>
<!-- Node37 -->
<g id="node21" class="node">
<title>Node37</title>
<g id="a_node21"><a xlink:href="structJSULink.html" target="_top" xlink:title=" ">
<polygon fill="white" stroke="#666666" points="235,-1091 152,-1091 152,-1072 235,-1072 235,-1091"/>
<text text-anchor="middle" x="193.5" y="-1079" font-family="Helvetica,sans-Serif" font-size="10.00">JSULink&lt; A0 &gt;</text>
</a>
</g>
</g>
<!-- Node3&#45;&gt;Node37 -->
<g id="edge20" class="edge">
<title>Node3&#45;&gt;Node37</title>
<path fill="none" stroke="#63b8ff" d="M50.72,-1143.23C63.65,-1129.39 83.16,-1111.03 104,-1100.5 118.73,-1093.06 136.26,-1088.53 151.82,-1085.77"/>
<polygon fill="#63b8ff" stroke="#63b8ff" points="48.34,-1140.64 44.25,-1150.41 53.54,-1145.32 48.34,-1140.64"/>
</g>
<!-- Node5 -->
<g id="node5" class="node">
<title>Node5</title>
<g id="a_node5"><a xlink:href="classJSUTree.html" target="_top" xlink:title=" ">
<polygon fill="white" stroke="#666666" points="415,-586 337,-586 337,-567 415,-567 415,-586"/>
<text text-anchor="middle" x="376" y="-574" font-family="Helvetica,sans-Serif" font-size="10.00">JSUTree&lt; T &gt;</text>
</a>
</g>
</g>
<!-- Node4&#45;&gt;Node5 -->
<g id="edge3" class="edge">
<title>Node4&#45;&gt;Node5</title>
<path fill="none" stroke="#63b8ff" d="M243.4,-808.37C257.42,-805.68 271.9,-800.64 283,-791.5 351.01,-735.49 369.82,-619.95 373.98,-586.05"/>
<polygon fill="#63b8ff" stroke="#63b8ff" points="243.18,-804.87 233.83,-809.84 244.24,-811.79 243.18,-804.87"/>
</g>
<!-- Node2&#45;&gt;Node1 -->
<g id="edge5" class="edge">
<title>Node2&#45;&gt;Node1</title>
<path fill="none" stroke="#8b1a1a" d="M285.59,-1472.58C298.28,-1473.85 310.95,-1475.11 322.59,-1476.27"/>
<polygon fill="#8b1a1a" stroke="#8b1a1a" points="286.26,-1469.13 275.96,-1471.62 285.57,-1476.1 286.26,-1469.13"/>
</g>
<!-- Node36 -->
<g id="node22" class="node">
<title>Node36</title>
<g id="a_node22"><a xlink:href="classJSUTree.html" target="_top" xlink:title=" ">
<polygon fill="white" stroke="#666666" points="432,-993 320,-993 320,-974 432,-974 432,-993"/>
<text text-anchor="middle" x="376" y="-981" font-family="Helvetica,sans-Serif" font-size="10.00">JSUTree&lt; J2DPane &gt;</text>
</a>
</g>
</g>
<!-- Node37&#45;&gt;Node36 -->
<g id="edge21" class="edge">
<title>Node37&#45;&gt;Node36</title>
<path fill="none" stroke="#63b8ff" d="M246.34,-1075.58C258.76,-1072.92 271.7,-1069.08 283,-1063.5 318.88,-1045.8 351.93,-1010.63 366.77,-993.43"/>
<polygon fill="#63b8ff" stroke="#63b8ff" points="245.8,-1072.12 236.62,-1077.42 247.1,-1079 245.8,-1072.12"/>
</g>
<!-- Node38 -->
<g id="node23" class="node">
<title>Node38</title>
<g id="a_node23"><a xlink:href="classJSUTree.html" target="_top" xlink:title=" ">
<polygon fill="white" stroke="#666666" points="433,-906 319,-906 319,-887 433,-887 433,-906"/>
<text text-anchor="middle" x="376" y="-894" font-family="Helvetica,sans-Serif" font-size="10.00">JSUTree&lt; JKRHeap &gt;</text>
</a>
</g>
</g>
<!-- Node37&#45;&gt;Node38 -->
<g id="edge22" class="edge">
<title>Node37&#45;&gt;Node38</title>
<path fill="none" stroke="#63b8ff" d="M246.24,-1079.85C259.45,-1077.19 272.78,-1072.28 283,-1063.5 318.2,-1033.26 296.07,-1005.84 319,-965.5 332.11,-942.43 352.89,-919.21 365.1,-906.46"/>
<polygon fill="#63b8ff" stroke="#63b8ff" points="246.08,-1076.33 236.75,-1081.34 247.17,-1083.24 246.08,-1076.33"/>
</g>
<!-- Node7 -->
<g id="node24" class="node">
<title>Node7</title>
<g id="a_node24"><a xlink:href="structJSUPtrList.html" target="_top" xlink:title=" ">
<polygon fill="white" stroke="#666666" points="66.5,-408 1.5,-408 1.5,-389 66.5,-389 66.5,-408"/>
<text text-anchor="middle" x="34" y="-396" font-family="Helvetica,sans-Serif" font-size="10.00">JSUPtrList</text>
</a>
</g>
</g>
<!-- Node6 -->
<g id="node25" class="node">
<title>Node6</title>
<g id="a_node25"><a xlink:href="structJSUList.html" target="_top" xlink:title=" ">
<polygon fill="white" stroke="#666666" points="231,-352 156,-352 156,-333 231,-333 231,-352"/>
<text text-anchor="middle" x="193.5" y="-340" font-family="Helvetica,sans-Serif" font-size="10.00">JSUList&lt; T &gt;</text>
</a>
</g>
</g>
<!-- Node7&#45;&gt;Node6 -->
<g id="edge23" class="edge">
<title>Node7&#45;&gt;Node6</title>
<path fill="none" stroke="#63b8ff" d="M59.2,-382.8C72.06,-375.08 88.4,-366.23 104,-360.5 120.48,-354.45 139.48,-350.24 155.64,-347.43"/>
<polygon fill="#63b8ff" stroke="#63b8ff" points="57.67,-379.64 51.01,-387.87 61.35,-385.59 57.67,-379.64"/>
</g>
<!-- Node8 -->
<g id="node26" class="node">
<title>Node8</title>
<g id="a_node26"><a xlink:href="structJSUList.html" target="_top" xlink:title=" ">
<polygon fill="white" stroke="#666666" points="272.5,-315 114.5,-315 114.5,-296 272.5,-296 272.5,-315"/>
<text text-anchor="middle" x="193.5" y="-303" font-family="Helvetica,sans-Serif" font-size="10.00">JSUList&lt; Z2SoundHandlePool &gt;</text>
</a>
</g>
</g>
<!-- Node7&#45;&gt;Node8 -->
<g id="edge25" class="edge">
<title>Node7&#45;&gt;Node8</title>
<path fill="none" stroke="#63b8ff" d="M47.28,-379.43C59.52,-362.05 79.91,-337.09 104,-323.5 109.73,-320.26 115.97,-317.6 122.39,-315.42"/>
<polygon fill="#63b8ff" stroke="#63b8ff" points="44.6,-377.14 41.9,-387.38 50.4,-381.06 44.6,-377.14"/>
</g>
<!-- Node15 -->
<g id="node33" class="node">
<title>Node15</title>
<g id="a_node33"><a xlink:href="structJSUList.html" target="_top" xlink:title=" ">
<polygon fill="white" stroke="#666666" points="266.5,-167 120.5,-167 120.5,-148 266.5,-148 266.5,-167"/>
<text text-anchor="middle" x="193.5" y="-155" font-family="Helvetica,sans-Serif" font-size="10.00">JSUList&lt; Z2CreatureEnemy &gt;</text>
</a>
</g>
</g>
<!-- Node7&#45;&gt;Node15 -->
<g id="edge32" class="edge">
<title>Node7&#45;&gt;Node15</title>
<path fill="none" stroke="#63b8ff" d="M34.87,-377.3C35.81,-332.78 44.66,-229.22 104,-175.5 108.77,-171.19 114.28,-167.79 120.17,-165.13"/>
<polygon fill="#63b8ff" stroke="#63b8ff" points="31.37,-377.12 34.79,-387.15 38.37,-377.17 31.37,-377.12"/>
</g>
<!-- Node17 -->
<g id="node35" class="node">
<title>Node17</title>
<g id="a_node35"><a xlink:href="structJSUList.html" target="_top" xlink:title=" ">
<polygon fill="white" stroke="#666666" points="248,-278 139,-278 139,-259 248,-259 248,-278"/>
<text text-anchor="middle" x="193.5" y="-266" font-family="Helvetica,sans-Serif" font-size="10.00">JSUList&lt; J2DPane &gt;</text>
</a>
</g>
</g>
<!-- Node7&#45;&gt;Node17 -->
<g id="edge34" class="edge">
<title>Node7&#45;&gt;Node17</title>
<path fill="none" stroke="#63b8ff" d="M41.9,-377.8C51.56,-352.15 71.67,-309.08 104,-286.5 114.16,-279.41 126.47,-274.98 138.65,-272.24"/>
<polygon fill="#63b8ff" stroke="#63b8ff" points="38.64,-376.5 38.59,-387.09 45.24,-378.85 38.64,-376.5"/>
</g>
<!-- Node18 -->
<g id="node36" class="node">
<title>Node18</title>
<g id="a_node36"><a xlink:href="structJSUList.html" target="_top" xlink:title=" ">
<polygon fill="white" stroke="#666666" points="241.5,-241 145.5,-241 145.5,-222 241.5,-222 241.5,-241"/>
<text text-anchor="middle" x="193.5" y="-229" font-family="Helvetica,sans-Serif" font-size="10.00">JSUList&lt; JAISe &gt;</text>
</a>
</g>
</g>
<!-- Node7&#45;&gt;Node18 -->
<g id="edge35" class="edge">
<title>Node7&#45;&gt;Node18</title>
<path fill="none" stroke="#63b8ff" d="M38.49,-377.72C45.12,-345.07 62.75,-282.1 104,-249.5 115.69,-240.26 130.89,-235.4 145.38,-232.94"/>
<polygon fill="#63b8ff" stroke="#63b8ff" points="35.13,-376.67 36.74,-387.14 42.01,-377.95 35.13,-376.67"/>
</g>
<!-- Node19 -->
<g id="node37" class="node">
<title>Node19</title>
<g id="a_node37"><a xlink:href="structJSUList.html" target="_top" xlink:title=" ">
<polygon fill="white" stroke="#666666" points="244,-204 143,-204 143,-185 244,-185 244,-204"/>
<text text-anchor="middle" x="193.5" y="-192" font-family="Helvetica,sans-Serif" font-size="10.00">JSUList&lt; JAISeq &gt;</text>
</a>
</g>
</g>
<!-- Node7&#45;&gt;Node19 -->
<g id="edge36" class="edge">
<title>Node7&#45;&gt;Node19</title>
<path fill="none" stroke="#63b8ff" d="M36.4,-377.12C40.16,-338.08 53.93,-255.37 104,-212.5 114.72,-203.32 128.84,-198.37 142.64,-195.81"/>
<polygon fill="#63b8ff" stroke="#63b8ff" points="32.91,-376.8 35.59,-387.05 39.89,-377.37 32.91,-376.8"/>
</g>
<!-- Node20 -->
<g id="node38" class="node">
<title>Node20</title>
<g id="a_node38"><a xlink:href="structJSUList.html" target="_top" xlink:title=" ">
<polygon fill="white" stroke="#666666" points="251.5,-130 135.5,-130 135.5,-111 251.5,-111 251.5,-130"/>
<text text-anchor="middle" x="193.5" y="-118" font-family="Helvetica,sans-Serif" font-size="10.00">JSUList&lt; JAIStream &gt;</text>
</a>
</g>
</g>
<!-- Node7&#45;&gt;Node20 -->
<g id="edge37" class="edge">
<title>Node7&#45;&gt;Node20</title>
<path fill="none" stroke="#63b8ff" d="M37.71,-377.5C45.34,-321.69 68.77,-171.72 104,-138.5 112.56,-130.43 123.69,-125.55 135.17,-122.67"/>
<polygon fill="#63b8ff" stroke="#63b8ff" points="34.27,-376.85 36.42,-387.22 41.21,-377.77 34.27,-376.85"/>
</g>
<!-- Node21 -->
<g id="node39" class="node">
<title>Node21</title>
<g id="a_node39"><a xlink:href="structJSUList.html" target="_top" xlink:title=" ">
<polygon fill="white" stroke="#666666" points="251,-93 136,-93 136,-74 251,-74 251,-93"/>
<text text-anchor="middle" x="193.5" y="-81" font-family="Helvetica,sans-Serif" font-size="10.00">JSUList&lt; JFWAlarm &gt;</text>
</a>
</g>
</g>
<!-- Node7&#45;&gt;Node21 -->
<g id="edge38" class="edge">
<title>Node7&#45;&gt;Node21</title>
<path fill="none" stroke="#63b8ff" d="M36.98,-377.39C43.15,-316.16 64.06,-140.35 104,-101.5 112.65,-93.08 124.11,-88.1 135.9,-85.25"/>
<polygon fill="#63b8ff" stroke="#63b8ff" points="33.52,-376.83 36.03,-387.12 40.48,-377.51 33.52,-376.83"/>
</g>
<!-- Node22 -->
<g id="node40" class="node">
<title>Node22</title>
<g id="a_node40"><a xlink:href="structJSUList.html" target="_top" xlink:title=" ">
<polygon fill="white" stroke="#666666" points="267,-56 120,-56 120,-37 267,-37 267,-56"/>
<text text-anchor="middle" x="193.5" y="-44" font-family="Helvetica,sans-Serif" font-size="10.00">JSUList&lt; JKRAMCommand &gt;</text>
</a>
</g>
</g>
<!-- Node7&#45;&gt;Node22 -->
<g id="edge39" class="edge">
<title>Node7&#45;&gt;Node22</title>
<path fill="none" stroke="#63b8ff" d="M36.39,-377.43C41.18,-311.21 59.28,-109.08 104,-64.5 108.55,-59.96 113.92,-56.41 119.72,-53.66"/>
<polygon fill="#63b8ff" stroke="#63b8ff" points="32.91,-377.04 35.71,-387.26 39.89,-377.53 32.91,-377.04"/>
</g>
<!-- Node23 -->
<g id="node41" class="node">
<title>Node23</title>
<g id="a_node41"><a xlink:href="structJSUList.html" target="_top" xlink:title=" ">
<polygon fill="white" stroke="#666666" points="261.5,-19 125.5,-19 125.5,0 261.5,0 261.5,-19"/>
<text text-anchor="middle" x="193.5" y="-7" font-family="Helvetica,sans-Serif" font-size="10.00">JSUList&lt; JKRAramBlock &gt;</text>
</a>
</g>
</g>
<!-- Node7&#45;&gt;Node23 -->
<g id="edge40" class="edge">
<title>Node7&#45;&gt;Node23</title>
<path fill="none" stroke="#63b8ff" d="M35.91,-377.44C39.43,-306.5 54.49,-77.85 104,-27.5 109.94,-21.46 117.31,-17.17 125.24,-14.16"/>
<polygon fill="#63b8ff" stroke="#63b8ff" points="32.43,-377.11 35.46,-387.26 39.42,-377.44 32.43,-377.11"/>
</g>
<!-- Node24 -->
<g id="node42" class="node">
<title>Node24</title>
<g id="a_node42"><a xlink:href="structJSUList.html" target="_top" xlink:title=" ">
<polygon fill="white" stroke="#666666" points="254,-783 133,-783 133,-764 254,-764 254,-783"/>
<text text-anchor="middle" x="193.5" y="-771" font-family="Helvetica,sans-Serif" font-size="10.00">JSUList&lt; JKRDvdFile &gt;</text>
</a>
</g>
</g>
<!-- Node7&#45;&gt;Node24 -->
<g id="edge41" class="edge">
<title>Node7&#45;&gt;Node24</title>
<path fill="none" stroke="#63b8ff" d="M36.12,-419.57C40.21,-488.6 56.7,-706.24 104,-754.5 111.81,-762.47 122.1,-767.48 132.88,-770.56"/>
<polygon fill="#63b8ff" stroke="#63b8ff" points="39.62,-419.46 35.56,-409.67 32.63,-419.86 39.62,-419.46"/>
</g>
<!-- Node25 -->
<g id="node43" class="node">
<title>Node25</title>
<g id="a_node43"><a xlink:href="structJSUList.html" target="_top" xlink:title=" ">
<polygon fill="white" stroke="#666666" points="255,-745.5 132,-745.5 132,-715.5 255,-715.5 255,-745.5"/>
<text text-anchor="start" x="140" y="-733.5" font-family="Helvetica,sans-Serif" font-size="10.00">JSUList&lt; JKRFileCache</text>
<text text-anchor="middle" x="193.5" y="-722.5" font-family="Helvetica,sans-Serif" font-size="10.00">::CCacheBlock &gt;</text>
</a>
</g>
</g>
<!-- Node7&#45;&gt;Node25 -->
<g id="edge42" class="edge">
<title>Node7&#45;&gt;Node25</title>
<path fill="none" stroke="#63b8ff" d="M36.97,-419.75C43.19,-482.25 64.37,-663.66 104,-705.5 111.58,-713.5 121.5,-719 131.95,-722.77"/>
<polygon fill="#63b8ff" stroke="#63b8ff" points="40.46,-419.44 36.02,-409.82 33.49,-420.11 40.46,-419.44"/>
</g>
<!-- Node26 -->
<g id="node44" class="node">
<title>Node26</title>
<g id="a_node44"><a xlink:href="structJSUList.html" target="_top" xlink:title=" ">
<polygon fill="white" stroke="#666666" points="260.5,-697 126.5,-697 126.5,-678 260.5,-678 260.5,-697"/>
<text text-anchor="middle" x="193.5" y="-685" font-family="Helvetica,sans-Serif" font-size="10.00">JSUList&lt; JKRFileLoader &gt;</text>
</a>
</g>
</g>
<!-- Node7&#45;&gt;Node26 -->
<g id="edge43" class="edge">
<title>Node7&#45;&gt;Node26</title>
<path fill="none" stroke="#63b8ff" d="M37.52,-419.53C44.8,-476.8 67.69,-633.57 104,-668.5 110.23,-674.49 117.87,-678.79 126.02,-681.84"/>
<polygon fill="#63b8ff" stroke="#63b8ff" points="41.02,-419.34 36.32,-409.84 34.07,-420.2 41.02,-419.34"/>
</g>
<!-- Node27 -->
<g id="node45" class="node">
<title>Node27</title>
<g id="a_node45"><a xlink:href="structJSUList.html" target="_top" xlink:title=" ">
<polygon fill="white" stroke="#666666" points="249,-660 138,-660 138,-641 249,-641 249,-660"/>
<text text-anchor="middle" x="193.5" y="-648" font-family="Helvetica,sans-Serif" font-size="10.00">JSUList&lt; JKRHeap &gt;</text>
</a>
</g>
</g>
<!-- Node7&#45;&gt;Node27 -->
<g id="edge44" class="edge">
<title>Node7&#45;&gt;Node27</title>
<path fill="none" stroke="#63b8ff" d="M34.58,-419.63C34.89,-465.48 42.46,-574.49 104,-631.5 113.22,-640.04 125.32,-645.1 137.6,-648.02"/>
<polygon fill="#63b8ff" stroke="#63b8ff" points="38.08,-419.78 34.64,-409.76 31.08,-419.74 38.08,-419.78"/>
</g>
<!-- Node28 -->
<g id="node46" class="node">
<title>Node28</title>
<g id="a_node46"><a xlink:href="structJSUList.html" target="_top" xlink:title=" ">
<polygon fill="white" stroke="#666666" points="256.5,-623 130.5,-623 130.5,-604 256.5,-604 256.5,-623"/>
<text text-anchor="middle" x="193.5" y="-611" font-family="Helvetica,sans-Serif" font-size="10.00">JSUList&lt; JKRDisposer &gt;</text>
</a>
</g>
</g>
<!-- Node7&#45;&gt;Node28 -->
<g id="edge45" class="edge">
<title>Node7&#45;&gt;Node28</title>
<path fill="none" stroke="#63b8ff" d="M35.98,-419.85C39.05,-460.36 51.72,-548.47 104,-594.5 111.43,-601.04 120.56,-605.52 130.11,-608.54"/>
<polygon fill="#63b8ff" stroke="#63b8ff" points="39.48,-419.75 35.38,-409.99 32.49,-420.18 39.48,-419.75"/>
</g>
<!-- Node29 -->
<g id="node47" class="node">
<title>Node29</title>
<g id="a_node47"><a xlink:href="structJSUList.html" target="_top" xlink:title=" ">
<polygon fill="white" stroke="#666666" points="248.5,-586 138.5,-586 138.5,-567 248.5,-567 248.5,-586"/>
<text text-anchor="middle" x="193.5" y="-574" font-family="Helvetica,sans-Serif" font-size="10.00">JSUList&lt; JKRTask &gt;</text>
</a>
</g>
</g>
<!-- Node7&#45;&gt;Node29 -->
<g id="edge46" class="edge">
<title>Node7&#45;&gt;Node29</title>
<path fill="none" stroke="#63b8ff" d="M37.85,-419.14C43.71,-453.41 60.47,-521.83 104,-557.5 113.72,-565.47 126.01,-570.31 138.32,-573.2"/>
<polygon fill="#63b8ff" stroke="#63b8ff" points="41.37,-419.02 36.38,-409.67 34.45,-420.09 41.37,-419.02"/>
</g>
<!-- Node30 -->
<g id="node48" class="node">
<title>Node30</title>
<g id="a_node48"><a xlink:href="structJSUList.html" target="_top" xlink:title=" ">
<polygon fill="white" stroke="#666666" points="252.5,-549 134.5,-549 134.5,-530 252.5,-530 252.5,-549"/>
<text text-anchor="middle" x="193.5" y="-537" font-family="Helvetica,sans-Serif" font-size="10.00">JSUList&lt; JKRThread &gt;</text>
</a>
</g>
</g>
<!-- Node7&#45;&gt;Node30 -->
<g id="edge47" class="edge">
<title>Node7&#45;&gt;Node30</title>
<path fill="none" stroke="#63b8ff" d="M40.77,-418.98C49.63,-446.53 69.33,-495.02 104,-520.5 112.86,-527.01 123.5,-531.39 134.27,-534.3"/>
<polygon fill="#63b8ff" stroke="#63b8ff" points="44.21,-418.27 37.97,-409.71 37.51,-420.29 44.21,-418.27"/>
</g>
<!-- Node31 -->
<g id="node49" class="node">
<title>Node31</title>
<g id="a_node49"><a xlink:href="structJSUList.html" target="_top" xlink:title=" ">
<polygon fill="white" stroke="#666666" points="264,-512 123,-512 123,-493 264,-493 264,-512"/>
<text text-anchor="middle" x="193.5" y="-500" font-family="Helvetica,sans-Serif" font-size="10.00">JSUList&lt; JPABaseEmitter &gt;</text>
</a>
</g>
</g>
<!-- Node7&#45;&gt;Node31 -->
<g id="edge48" class="edge">
<title>Node7&#45;&gt;Node31</title>
<path fill="none" stroke="#63b8ff" d="M45.64,-418.26C57.31,-437.95 77.89,-467.48 104,-483.5 110.03,-487.2 116.67,-490.18 123.53,-492.59"/>
<polygon fill="#63b8ff" stroke="#63b8ff" points="48.82,-416.78 40.85,-409.8 42.73,-420.23 48.82,-416.78"/>
</g>
<!-- Node32 -->
<g id="node50" class="node">
<title>Node32</title>
<g id="a_node50"><a xlink:href="structJSUList.html" target="_top" xlink:title=" ">
<polygon fill="white" stroke="#666666" points="254.5,-474.5 132.5,-474.5 132.5,-444.5 254.5,-444.5 254.5,-474.5"/>
<text text-anchor="start" x="140.5" y="-462.5" font-family="Helvetica,sans-Serif" font-size="10.00">JSUList&lt; JUTException</text>
<text text-anchor="middle" x="193.5" y="-451.5" font-family="Helvetica,sans-Serif" font-size="10.00">::JUTExMapFile &gt;</text>
</a>
</g>
</g>
<!-- Node7&#45;&gt;Node32 -->
<g id="edge49" class="edge">
<title>Node7&#45;&gt;Node32</title>
<path fill="none" stroke="#63b8ff" d="M61.39,-413.9C74,-420.83 89.48,-428.73 104,-434.5 113.05,-438.1 122.81,-441.4 132.43,-444.34"/>
<polygon fill="#63b8ff" stroke="#63b8ff" points="63.31,-410.96 52.88,-409.12 59.88,-417.07 63.31,-410.96"/>
</g>
<!-- Node33 -->
<g id="node51" class="node">
<title>Node33</title>
<g id="a_node51"><a xlink:href="structJSUList.html" target="_top" xlink:title=" ">
<polygon fill="white" stroke="#666666" points="259,-426 128,-426 128,-407 259,-407 259,-426"/>
<text text-anchor="middle" x="193.5" y="-414" font-family="Helvetica,sans-Serif" font-size="10.00">JSUList&lt; JUTGamePad &gt;</text>
</a>
</g>
</g>
<!-- Node7&#45;&gt;Node33 -->
<g id="edge50" class="edge">
<title>Node7&#45;&gt;Node33</title>
<path fill="none" stroke="#63b8ff" d="M78.1,-403.43C93.44,-405.18 111.07,-407.19 127.82,-409.11"/>
<polygon fill="#63b8ff" stroke="#63b8ff" points="78.71,-399.97 68.38,-402.31 77.91,-406.93 78.71,-399.97"/>
</g>
<!-- Node34 -->
<g id="node52" class="node">
<title>Node34</title>
<g id="a_node52"><a xlink:href="structJSUList.html" target="_top" xlink:title=" ">
<polygon fill="white" stroke="#666666" points="283,-389 104,-389 104,-370 283,-370 283,-389"/>
<text text-anchor="middle" x="193.5" y="-377" font-family="Helvetica,sans-Serif" font-size="10.00">JSUList&lt; JUTGamePadLongPress &gt;</text>
</a>
</g>
</g>
<!-- Node7&#45;&gt;Node34 -->
<g id="edge51" class="edge">
<title>Node7&#45;&gt;Node34</title>
<path fill="none" stroke="#63b8ff" d="M78.03,-393.31C87.96,-392.11 98.85,-390.8 109.84,-389.47"/>
<polygon fill="#63b8ff" stroke="#63b8ff" points="77.88,-389.8 68.38,-394.47 78.72,-396.75 77.88,-389.8"/>
</g>
<!-- Node35 -->
<g id="node53" class="node">
<title>Node35</title>
<g id="a_node53"><a xlink:href="structJSUList.html" target="_top" xlink:title=" ">
<polygon fill="white" stroke="#666666" points="234,-857 153,-857 153,-838 234,-838 234,-857"/>
<text text-anchor="middle" x="193.5" y="-845" font-family="Helvetica,sans-Serif" font-size="10.00">JSUList&lt; A0 &gt;</text>
</a>
</g>
</g>
<!-- Node7&#45;&gt;Node35 -->
<g id="edge52" class="edge">
<title>Node7&#45;&gt;Node35</title>
<path fill="none" stroke="#63b8ff" d="M35.34,-419.28C37.05,-496.91 47.06,-768.5 104,-828.5 116.44,-841.61 135.56,-846.77 152.85,-848.49"/>
<polygon fill="#63b8ff" stroke="#63b8ff" points="38.85,-419.63 35.16,-409.7 31.85,-419.77 38.85,-419.63"/>
</g>
<!-- Node6&#45;&gt;Node5 -->
<g id="edge24" class="edge">
<title>Node6&#45;&gt;Node5</title>
<path fill="none" stroke="#63b8ff" d="M242.66,-343.88C256.9,-346.37 271.69,-351.27 283,-360.5 351.53,-416.42 369.98,-532.74 374.02,-566.88"/>
<polygon fill="#63b8ff" stroke="#63b8ff" points="243.31,-340.44 232.93,-342.56 242.37,-347.37 243.31,-340.44"/>
</g>
<!-- Node9 -->
<g id="node27" class="node">
<title>Node9</title>
<g id="a_node27"><a xlink:href="classZ2SoundHandles.html" target="_top" xlink:title=" ">
<polygon fill="white" stroke="#666666" points="422,-315 330,-315 330,-296 422,-296 422,-315"/>
<text text-anchor="middle" x="376" y="-303" font-family="Helvetica,sans-Serif" font-size="10.00">Z2SoundHandles</text>
</a>
</g>
</g>
<!-- Node8&#45;&gt;Node9 -->
<g id="edge26" class="edge">
<title>Node8&#45;&gt;Node9</title>
<path fill="none" stroke="darkgreen" d="M284.31,-305.5C300.05,-305.5 315.81,-305.5 329.67,-305.5"/>
<polygon fill="darkgreen" stroke="darkgreen" points="284.4,-302 274.4,-305.5 284.4,-309 284.4,-302"/>
</g>
<!-- Node10 -->
<g id="node28" class="node">
<title>Node10</title>
<g id="a_node28"><a xlink:href="classZ2DopplerSoundObjBase.html" target="_top" xlink:title=" ">
<polygon fill="white" stroke="#666666" points="595,-334 469,-334 469,-315 595,-315 595,-334"/>
<text text-anchor="middle" x="532" y="-322" font-family="Helvetica,sans-Serif" font-size="10.00">Z2DopplerSoundObjBase</text>
</a>
</g>
</g>
<!-- Node9&#45;&gt;Node10 -->
<g id="edge27" class="edge">
<title>Node9&#45;&gt;Node10</title>
<path fill="none" stroke="#63b8ff" d="M433.52,-312.47C444.92,-313.88 456.96,-315.37 468.55,-316.8"/>
<polygon fill="#63b8ff" stroke="#63b8ff" points="434.23,-309.03 423.87,-311.28 433.37,-315.98 434.23,-309.03"/>
</g>
<!-- Node11 -->
<g id="node29" class="node">
<title>Node11</title>
<g id="a_node29"><a xlink:href="classZ2SoundObjBase.html" target="_top" xlink:title=" ">
<polygon fill="white" stroke="#666666" points="578.5,-297 485.5,-297 485.5,-278 578.5,-278 578.5,-297"/>
<text text-anchor="middle" x="532" y="-285" font-family="Helvetica,sans-Serif" font-size="10.00">Z2SoundObjBase</text>
</a>
</g>
</g>
<!-- Node9&#45;&gt;Node11 -->
<g id="edge28" class="edge">
<title>Node9&#45;&gt;Node11</title>
<path fill="none" stroke="darkgreen" d="M433.33,-298.92C450.37,-296.92 468.88,-294.76 485.15,-292.86"/>
<polygon fill="darkgreen" stroke="darkgreen" points="433.4,-295.38 423.88,-300.02 434.21,-302.34 433.4,-295.38"/>
</g>
<!-- Node12 -->
<g id="node30" class="node">
<title>Node12</title>
<g id="a_node30"><a xlink:href="classZ2SoundObjAnime.html" target="_top" xlink:title=" ">
<polygon fill="white" stroke="#666666" points="730.5,-316 632.5,-316 632.5,-297 730.5,-297 730.5,-316"/>
<text text-anchor="middle" x="681.5" y="-304" font-family="Helvetica,sans-Serif" font-size="10.00">Z2SoundObjAnime</text>
</a>
</g>
</g>
<!-- Node11&#45;&gt;Node12 -->
<g id="edge29" class="edge">
<title>Node11&#45;&gt;Node12</title>
<path fill="none" stroke="#63b8ff" d="M590.24,-294.87C604.08,-296.66 618.73,-298.54 632.11,-300.27"/>
<polygon fill="#63b8ff" stroke="#63b8ff" points="590.73,-291.41 580.36,-293.6 589.83,-298.35 590.73,-291.41"/>
</g>
<!-- Node14 -->
<g id="node32" class="node">
<title>Node14</title>
<g id="a_node32"><a xlink:href="classZ2SoundObjSimple.html" target="_top" xlink:title=" ">
<polygon fill="white" stroke="#666666" points="732,-279 631,-279 631,-260 732,-260 732,-279"/>
<text text-anchor="middle" x="681.5" y="-267" font-family="Helvetica,sans-Serif" font-size="10.00">Z2SoundObjSimple</text>
</a>
</g>
</g>
<!-- Node11&#45;&gt;Node14 -->
<g id="edge31" class="edge">
<title>Node11&#45;&gt;Node14</title>
<path fill="none" stroke="#63b8ff" d="M589.9,-280.56C603.3,-278.92 617.49,-277.19 630.57,-275.59"/>
<polygon fill="#63b8ff" stroke="#63b8ff" points="589.87,-277.03 580.36,-281.72 590.71,-283.98 589.87,-277.03"/>
</g>
<!-- Node13 -->
<g id="node31" class="node">
<title>Node13</title>
<g id="a_node31"><a xlink:href="classmDoExt__zelAnime.html" target="_top" xlink:title=" ">
<polygon fill="white" stroke="#666666" points="863,-316 768,-316 768,-297 863,-297 863,-316"/>
<text text-anchor="middle" x="815.5" y="-304" font-family="Helvetica,sans-Serif" font-size="10.00">mDoExt_zelAnime</text>
</a>
</g>
</g>
<!-- Node12&#45;&gt;Node13 -->
<g id="edge30" class="edge">
<title>Node12&#45;&gt;Node13</title>
<path fill="none" stroke="#63b8ff" d="M742.41,-306.5C750.95,-306.5 759.63,-306.5 767.86,-306.5"/>
<polygon fill="#63b8ff" stroke="#63b8ff" points="742.42,-303 732.42,-306.5 742.42,-310 742.42,-303"/>
</g>
<!-- Node16 -->
<g id="node34" class="node">
<title>Node16</title>
<g id="a_node34"><a xlink:href="structZ2SoundObjMgr.html" target="_top" xlink:title=" ">
<polygon fill="white" stroke="#666666" points="419.5,-167 332.5,-167 332.5,-148 419.5,-148 419.5,-167"/>
<text text-anchor="middle" x="376" y="-155" font-family="Helvetica,sans-Serif" font-size="10.00">Z2SoundObjMgr</text>
</a>
</g>
</g>
<!-- Node15&#45;&gt;Node16 -->
<g id="edge33" class="edge">
<title>Node15&#45;&gt;Node16</title>
<path fill="none" stroke="darkgreen" d="M278.15,-157.5C296.87,-157.5 315.99,-157.5 332.23,-157.5"/>
<polygon fill="darkgreen" stroke="darkgreen" points="278.39,-154 268.39,-157.5 278.39,-161 278.39,-154"/>
</g>
<!-- Node35&#45;&gt;Node36 -->
<g id="edge53" class="edge">
<title>Node35&#45;&gt;Node36</title>
<path fill="none" stroke="#63b8ff" d="M245.5,-851.32C258.46,-854 271.86,-858.38 283,-865.5 305.77,-880.06 302.48,-893.11 319,-914.5 335.6,-935.99 355.84,-960.54 366.87,-973.79"/>
<polygon fill="#63b8ff" stroke="#63b8ff" points="246.23,-847.89 235.78,-849.64 245.04,-854.79 246.23,-847.89"/>
</g>
<!-- Node35&#45;&gt;Node38 -->
<g id="edge54" class="edge">
<title>Node35&#45;&gt;Node38</title>
<path fill="none" stroke="#63b8ff" d="M245.47,-856.74C257.83,-859.29 270.94,-862.26 283,-865.5 305.3,-871.5 330.08,-879.96 348.3,-886.52"/>
<polygon fill="#63b8ff" stroke="#63b8ff" points="246.37,-853.35 235.88,-854.82 245,-860.21 246.37,-853.35"/>
</g>
</g>
</svg>
