<?xml version="1.0" encoding="UTF-8" standalone="no"?>
<!DOCTYPE svg PUBLIC "-//W3C//DTD SVG 1.1//EN"
 "http://www.w3.org/Graphics/SVG/1.1/DTD/svg11.dtd">
<!-- Generated by graphviz version 2.44.0 ()
 -->
<!-- Title: include/JSystem/J3DGraphAnimator/J3DModelData.h Pages: 1 -->
<svg width="1824pt" height="810pt"
 viewBox="0.00 0.00 1824.00 810.00" xmlns="http://www.w3.org/2000/svg" xmlns:xlink="http://www.w3.org/1999/xlink">
<g id="graph0" class="graph" transform="scale(1 1) rotate(0) translate(4 806)">
<title>include/JSystem/J3DGraphAnimator/J3DModelData.h</title>
<polygon fill="white" stroke="transparent" points="-4,4 -4,-806 1820,-806 1820,4 -4,4"/>
<!-- Node1 -->
<g id="node1" class="node">
<title>Node1</title>
<g id="a_node1"><a xlink:title=" ">
<polygon fill="#bfbfbf" stroke="black" points="1435.5,-771.5 1435.5,-801.5 1570.5,-801.5 1570.5,-771.5 1435.5,-771.5"/>
<text text-anchor="start" x="1443.5" y="-789.5" font-family="Helvetica,sans-Serif" font-size="10.00">include/JSystem/J3DGraph</text>
<text text-anchor="middle" x="1503" y="-778.5" font-family="Helvetica,sans-Serif" font-size="10.00">Animator/J3DModelData.h</text>
</a>
</g>
</g>
<!-- Node2 -->
<g id="node2" class="node">
<title>Node2</title>
<g id="a_node2"><a xlink:href="J3DJointTree_8h.html" target="_top" xlink:title=" ">
<polygon fill="white" stroke="black" points="1012,-704.5 1012,-734.5 1152,-734.5 1152,-704.5 1012,-704.5"/>
<text text-anchor="start" x="1020" y="-722.5" font-family="Helvetica,sans-Serif" font-size="10.00">JSystem/J3DGraphAnimator</text>
<text text-anchor="middle" x="1082" y="-711.5" font-family="Helvetica,sans-Serif" font-size="10.00">/J3DJointTree.h</text>
</a>
</g>
</g>
<!-- Node1&#45;&gt;Node2 -->
<g id="edge1" class="edge">
<title>Node1&#45;&gt;Node2</title>
<path fill="none" stroke="midnightblue" d="M1435.36,-775.06C1360.91,-763.56 1241.32,-745.1 1162.2,-732.88"/>
<polygon fill="midnightblue" stroke="midnightblue" points="1162.7,-729.42 1152.28,-731.35 1161.63,-736.34 1162.7,-729.42"/>
</g>
<!-- Node9 -->
<g id="node9" class="node">
<title>Node9</title>
<g id="a_node9"><a xlink:href="types_8h.html" target="_top" xlink:title=" ">
<polygon fill="white" stroke="black" points="778.5,-0.5 778.5,-19.5 859.5,-19.5 859.5,-0.5 778.5,-0.5"/>
<text text-anchor="middle" x="819" y="-7.5" font-family="Helvetica,sans-Serif" font-size="10.00">dolphin/types.h</text>
</a>
</g>
</g>
<!-- Node1&#45;&gt;Node9 -->
<g id="edge88" class="edge">
<title>Node1&#45;&gt;Node9</title>
<path fill="none" stroke="midnightblue" d="M1570.53,-785.53C1662.54,-781.6 1816,-759.21 1816,-653.5 1816,-653.5 1816,-653.5 1816,-132 1816,-56.07 1736.43,-75.31 1663,-56 1511.96,-16.28 1028.59,-11.5 869.96,-11.02"/>
<polygon fill="midnightblue" stroke="midnightblue" points="869.56,-7.52 859.55,-10.99 869.54,-14.52 869.56,-7.52"/>
</g>
<!-- Node23 -->
<g id="node23" class="node">
<title>Node23</title>
<g id="a_node23"><a xlink:href="J3DSys_8h.html" target="_top" xlink:title=" ">
<polygon fill="white" stroke="black" points="526,-302.5 526,-332.5 650,-332.5 650,-302.5 526,-302.5"/>
<text text-anchor="start" x="534" y="-320.5" font-family="Helvetica,sans-Serif" font-size="10.00">JSystem/J3DGraphBase</text>
<text text-anchor="middle" x="588" y="-309.5" font-family="Helvetica,sans-Serif" font-size="10.00">/J3DSys.h</text>
</a>
</g>
</g>
<!-- Node1&#45;&gt;Node23 -->
<g id="edge86" class="edge">
<title>Node1&#45;&gt;Node23</title>
<path fill="none" stroke="midnightblue" d="M1435.16,-785.53C1315.92,-784.46 1074.58,-777 1003,-735 964.87,-712.63 946,-697.7 946,-653.5 946,-653.5 946,-653.5 946,-584.5 946,-506.15 910.37,-487.13 851,-436 792.43,-385.56 708.72,-353.2 651.57,-335.47"/>
<polygon fill="midnightblue" stroke="midnightblue" points="652.51,-332.1 641.93,-332.54 650.48,-338.8 652.51,-332.1"/>
</g>
<!-- Node31 -->
<g id="node31" class="node">
<title>Node31</title>
<g id="a_node31"><a xlink:href="J3DMaterialAttach_8h.html" target="_top" xlink:title=" ">
<polygon fill="white" stroke="black" points="1648,-436.5 1648,-466.5 1788,-466.5 1788,-436.5 1648,-436.5"/>
<text text-anchor="start" x="1656" y="-454.5" font-family="Helvetica,sans-Serif" font-size="10.00">JSystem/J3DGraphAnimator</text>
<text text-anchor="middle" x="1718" y="-443.5" font-family="Helvetica,sans-Serif" font-size="10.00">/J3DMaterialAttach.h</text>
</a>
</g>
</g>
<!-- Node1&#45;&gt;Node31 -->
<g id="edge75" class="edge">
<title>Node1&#45;&gt;Node31</title>
<path fill="none" stroke="midnightblue" d="M1558.26,-771.44C1612.77,-753.85 1688,-717.91 1688,-653.5 1688,-653.5 1688,-653.5 1688,-584.5 1688,-545.87 1700.37,-502.44 1709.22,-476.29"/>
<polygon fill="midnightblue" stroke="midnightblue" points="1712.64,-477.12 1712.64,-466.52 1706.03,-474.8 1712.64,-477.12"/>
</g>
<!-- Node32 -->
<g id="node32" class="node">
<title>Node32</title>
<g id="a_node32"><a xlink:href="J3DShapeTable_8h.html" target="_top" xlink:title=" ">
<polygon fill="white" stroke="black" points="1452,-436.5 1452,-466.5 1592,-466.5 1592,-436.5 1452,-436.5"/>
<text text-anchor="start" x="1460" y="-454.5" font-family="Helvetica,sans-Serif" font-size="10.00">JSystem/J3DGraphAnimator</text>
<text text-anchor="middle" x="1522" y="-443.5" font-family="Helvetica,sans-Serif" font-size="10.00">/J3DShapeTable.h</text>
</a>
</g>
</g>
<!-- Node1&#45;&gt;Node32 -->
<g id="edge78" class="edge">
<title>Node1&#45;&gt;Node32</title>
<path fill="none" stroke="midnightblue" d="M1518.61,-771.34C1541.63,-748.83 1582,-702.37 1582,-653.5 1582,-653.5 1582,-653.5 1582,-584.5 1582,-542.84 1556.93,-499.88 1539.2,-474.71"/>
<polygon fill="midnightblue" stroke="midnightblue" points="1542,-472.61 1533.29,-466.58 1536.34,-476.73 1542,-472.61"/>
</g>
<!-- Node33 -->
<g id="node33" class="node">
<title>Node33</title>
<g id="a_node33"><a xlink:href="J3DVertex_8h.html" target="_top" xlink:title=" ">
<polygon fill="white" stroke="black" points="1332,-302.5 1332,-332.5 1456,-332.5 1456,-302.5 1332,-302.5"/>
<text text-anchor="start" x="1340" y="-320.5" font-family="Helvetica,sans-Serif" font-size="10.00">JSystem/J3DGraphBase</text>
<text text-anchor="middle" x="1394" y="-309.5" font-family="Helvetica,sans-Serif" font-size="10.00">/J3DVertex.h</text>
</a>
</g>
</g>
<!-- Node1&#45;&gt;Node33 -->
<g id="edge87" class="edge">
<title>Node1&#45;&gt;Node33</title>
<path fill="none" stroke="midnightblue" d="M1499.68,-771.27C1484.23,-705.08 1419.32,-426.99 1399.67,-342.77"/>
<polygon fill="midnightblue" stroke="midnightblue" points="1403.03,-341.79 1397.35,-332.85 1396.21,-343.38 1403.03,-341.79"/>
</g>
<!-- Node3 -->
<g id="node3" class="node">
<title>Node3</title>
<g id="a_node3"><a xlink:href="J3DJoint_8h.html" target="_top" xlink:title=" ">
<polygon fill="white" stroke="black" points="1012,-637.5 1012,-667.5 1152,-667.5 1152,-637.5 1012,-637.5"/>
<text text-anchor="start" x="1020" y="-655.5" font-family="Helvetica,sans-Serif" font-size="10.00">JSystem/J3DGraphAnimator</text>
<text text-anchor="middle" x="1082" y="-644.5" font-family="Helvetica,sans-Serif" font-size="10.00">/J3DJoint.h</text>
</a>
</g>
</g>
<!-- Node2&#45;&gt;Node3 -->
<g id="edge2" class="edge">
<title>Node2&#45;&gt;Node3</title>
<path fill="none" stroke="midnightblue" d="M1082,-704.4C1082,-696.64 1082,-686.81 1082,-677.86"/>
<polygon fill="midnightblue" stroke="midnightblue" points="1085.5,-677.58 1082,-667.58 1078.5,-677.58 1085.5,-677.58"/>
</g>
<!-- Node2&#45;&gt;Node9 -->
<g id="edge74" class="edge">
<title>Node2&#45;&gt;Node9</title>
<path fill="none" stroke="midnightblue" d="M1011.84,-717.34C772.08,-712.46 0,-688.81 0,-586.5 0,-586.5 0,-586.5 0,-132 0,-92.75 11.48,-76.42 45,-56 106.48,-18.55 605.71,-12.27 768.14,-11.21"/>
<polygon fill="midnightblue" stroke="midnightblue" points="768.36,-14.71 778.34,-11.15 768.32,-7.71 768.36,-14.71"/>
</g>
<!-- Node28 -->
<g id="node28" class="node">
<title>Node28</title>
<g id="a_node28"><a xlink:href="mtxvec_8h.html" target="_top" xlink:title=" ">
<polygon fill="white" stroke="black" points="966,-246.5 966,-265.5 1074,-265.5 1074,-246.5 966,-246.5"/>
<text text-anchor="middle" x="1020" y="-253.5" font-family="Helvetica,sans-Serif" font-size="10.00">dolphin/mtx/mtxvec.h</text>
</a>
</g>
</g>
<!-- Node2&#45;&gt;Node28 -->
<g id="edge73" class="edge">
<title>Node2&#45;&gt;Node28</title>
<path fill="none" stroke="midnightblue" d="M1048.35,-704.39C1032.34,-696.04 1014.28,-683.95 1003,-668 981.52,-637.63 984,-623.69 984,-586.5 984,-586.5 984,-586.5 984,-517.5 984,-433.1 1018.93,-416.8 1029,-333 1030.64,-319.32 1030.36,-315.71 1029,-302 1028.13,-293.17 1026.31,-283.51 1024.53,-275.4"/>
<polygon fill="midnightblue" stroke="midnightblue" points="1027.92,-274.49 1022.23,-265.55 1021.1,-276.08 1027.92,-274.49"/>
</g>
<!-- Node30 -->
<g id="node30" class="node">
<title>Node30</title>
<g id="a_node30"><a xlink:href="JUTNameTab_8h.html" target="_top" xlink:title=" ">
<polygon fill="white" stroke="black" points="1554,-369.5 1554,-399.5 1690,-399.5 1690,-369.5 1554,-369.5"/>
<text text-anchor="start" x="1562" y="-387.5" font-family="Helvetica,sans-Serif" font-size="10.00">JSystem/JUtility/JUTName</text>
<text text-anchor="middle" x="1622" y="-376.5" font-family="Helvetica,sans-Serif" font-size="10.00">Tab.h</text>
</a>
</g>
</g>
<!-- Node2&#45;&gt;Node30 -->
<g id="edge71" class="edge">
<title>Node2&#45;&gt;Node30</title>
<path fill="none" stroke="midnightblue" d="M1130.61,-704.44C1194.3,-685.16 1308.61,-647.54 1400,-601 1495.68,-552.28 1538.84,-554.54 1601,-467 1612.87,-450.29 1618.03,-427.42 1620.28,-410.16"/>
<polygon fill="midnightblue" stroke="midnightblue" points="1623.81,-410.06 1621.38,-399.75 1616.85,-409.33 1623.81,-410.06"/>
</g>
<!-- Node4 -->
<g id="node4" class="node">
<title>Node4</title>
<g id="a_node4"><a xlink:href="J3DMaterial_8h.html" target="_top" xlink:title=" ">
<polygon fill="white" stroke="black" points="532,-570.5 532,-600.5 656,-600.5 656,-570.5 532,-570.5"/>
<text text-anchor="start" x="540" y="-588.5" font-family="Helvetica,sans-Serif" font-size="10.00">JSystem/J3DGraphBase</text>
<text text-anchor="middle" x="594" y="-577.5" font-family="Helvetica,sans-Serif" font-size="10.00">/J3DMaterial.h</text>
</a>
</g>
</g>
<!-- Node3&#45;&gt;Node4 -->
<g id="edge3" class="edge">
<title>Node3&#45;&gt;Node4</title>
<path fill="none" stroke="midnightblue" d="M1011.82,-642.15C919.92,-629.91 759.6,-608.56 666.54,-596.16"/>
<polygon fill="midnightblue" stroke="midnightblue" points="666.74,-592.66 656.37,-594.81 665.82,-599.6 666.74,-592.66"/>
</g>
<!-- Node3&#45;&gt;Node9 -->
<g id="edge70" class="edge">
<title>Node3&#45;&gt;Node9</title>
<path fill="none" stroke="midnightblue" d="M1105.04,-637.37C1195.57,-581.05 1522,-370.11 1522,-257 1522,-257 1522,-257 1522,-132 1522,-97.18 1529.72,-78.32 1503,-56 1454.77,-15.73 1020.65,-11.28 870.12,-10.95"/>
<polygon fill="midnightblue" stroke="midnightblue" points="869.79,-7.45 859.78,-10.94 869.77,-14.45 869.79,-7.45"/>
</g>
<!-- Node29 -->
<g id="node29" class="node">
<title>Node29</title>
<g id="a_node29"><a xlink:href="J3DTransform_8h.html" target="_top" xlink:title=" ">
<polygon fill="white" stroke="black" points="896,-302.5 896,-332.5 1020,-332.5 1020,-302.5 896,-302.5"/>
<text text-anchor="start" x="904" y="-320.5" font-family="Helvetica,sans-Serif" font-size="10.00">JSystem/J3DGraphBase</text>
<text text-anchor="middle" x="958" y="-309.5" font-family="Helvetica,sans-Serif" font-size="10.00">/J3DTransform.h</text>
</a>
</g>
</g>
<!-- Node3&#45;&gt;Node29 -->
<g id="edge67" class="edge">
<title>Node3&#45;&gt;Node29</title>
<path fill="none" stroke="midnightblue" d="M1076.67,-637.19C1057.39,-585.42 991.15,-407.51 966.94,-342.52"/>
<polygon fill="midnightblue" stroke="midnightblue" points="970.08,-340.91 963.31,-332.76 963.52,-343.35 970.08,-340.91"/>
</g>
<!-- Node5 -->
<g id="node5" class="node">
<title>Node5</title>
<g id="a_node5"><a xlink:href="J3DMatBlock_8h.html" target="_top" xlink:title=" ">
<polygon fill="white" stroke="black" points="436,-503.5 436,-533.5 560,-533.5 560,-503.5 436,-503.5"/>
<text text-anchor="start" x="444" y="-521.5" font-family="Helvetica,sans-Serif" font-size="10.00">JSystem/J3DGraphBase</text>
<text text-anchor="middle" x="498" y="-510.5" font-family="Helvetica,sans-Serif" font-size="10.00">/J3DMatBlock.h</text>
</a>
</g>
</g>
<!-- Node4&#45;&gt;Node5 -->
<g id="edge4" class="edge">
<title>Node4&#45;&gt;Node5</title>
<path fill="none" stroke="midnightblue" d="M573.17,-570.4C559.71,-561.28 542,-549.29 527.15,-539.24"/>
<polygon fill="midnightblue" stroke="midnightblue" points="529.03,-536.28 518.79,-533.58 525.11,-542.08 529.03,-536.28"/>
</g>
<!-- Node6 -->
<g id="node6" class="node">
<title>Node6</title>
<g id="a_node6"><a xlink:href="J3DStruct_8h.html" target="_top" xlink:title=" ">
<polygon fill="white" stroke="black" points="346,-302.5 346,-332.5 470,-332.5 470,-302.5 346,-302.5"/>
<text text-anchor="start" x="354" y="-320.5" font-family="Helvetica,sans-Serif" font-size="10.00">JSystem/J3DGraphBase</text>
<text text-anchor="middle" x="408" y="-309.5" font-family="Helvetica,sans-Serif" font-size="10.00">/J3DStruct.h</text>
</a>
</g>
</g>
<!-- Node4&#45;&gt;Node6 -->
<g id="edge63" class="edge">
<title>Node4&#45;&gt;Node6</title>
<path fill="none" stroke="midnightblue" d="M531.75,-582.22C495.5,-577.39 452.12,-564.91 427,-534 381.79,-478.38 393.42,-385.94 402.28,-342.48"/>
<polygon fill="midnightblue" stroke="midnightblue" points="405.73,-343.05 404.43,-332.53 398.89,-341.56 405.73,-343.05"/>
</g>
<!-- Node4&#45;&gt;Node9 -->
<g id="edge66" class="edge">
<title>Node4&#45;&gt;Node9</title>
<path fill="none" stroke="midnightblue" d="M531.84,-582.8C386.75,-577.14 38,-553.07 38,-452.5 38,-452.5 38,-452.5 38,-132 38,-92.97 48.8,-76.52 82,-56 140,-20.16 610.55,-12.81 767.94,-11.35"/>
<polygon fill="midnightblue" stroke="midnightblue" points="768.31,-14.85 778.28,-11.26 768.25,-7.85 768.31,-14.85"/>
</g>
<!-- Node18 -->
<g id="node18" class="node">
<title>Node18</title>
<g id="a_node18"><a xlink:href="J3DTevs_8h.html" target="_top" xlink:title=" ">
<polygon fill="white" stroke="black" points="718,-436.5 718,-466.5 842,-466.5 842,-436.5 718,-436.5"/>
<text text-anchor="start" x="726" y="-454.5" font-family="Helvetica,sans-Serif" font-size="10.00">JSystem/J3DGraphBase</text>
<text text-anchor="middle" x="780" y="-443.5" font-family="Helvetica,sans-Serif" font-size="10.00">/J3DTevs.h</text>
</a>
</g>
</g>
<!-- Node4&#45;&gt;Node18 -->
<g id="edge64" class="edge">
<title>Node4&#45;&gt;Node18</title>
<path fill="none" stroke="midnightblue" d="M613.91,-570.37C647.05,-546.85 713.65,-499.59 751.68,-472.6"/>
<polygon fill="midnightblue" stroke="midnightblue" points="754.11,-475.17 760.24,-466.52 750.06,-469.46 754.11,-475.17"/>
</g>
<!-- Node19 -->
<g id="node19" class="node">
<title>Node19</title>
<g id="a_node19"><a xlink:href="J3DTexture_8h.html" target="_top" xlink:title=" ">
<polygon fill="white" stroke="black" points="232,-436.5 232,-466.5 356,-466.5 356,-436.5 232,-436.5"/>
<text text-anchor="start" x="240" y="-454.5" font-family="Helvetica,sans-Serif" font-size="10.00">JSystem/J3DGraphBase</text>
<text text-anchor="middle" x="294" y="-443.5" font-family="Helvetica,sans-Serif" font-size="10.00">/J3DTexture.h</text>
</a>
</g>
</g>
<!-- Node4&#45;&gt;Node19 -->
<g id="edge65" class="edge">
<title>Node4&#45;&gt;Node19</title>
<path fill="none" stroke="midnightblue" d="M531.97,-580.42C484.89,-575.07 419.96,-562.67 370,-534 344.65,-519.45 322.75,-493.69 309.06,-475.02"/>
<polygon fill="midnightblue" stroke="midnightblue" points="311.83,-472.88 303.19,-466.75 306.13,-476.93 311.83,-472.88"/>
</g>
<!-- Node22 -->
<g id="node22" class="node">
<title>Node22</title>
<g id="a_node22"><a xlink:href="J3DPacket_8h.html" target="_top" xlink:title=" ">
<polygon fill="white" stroke="black" points="820,-369.5 820,-399.5 944,-399.5 944,-369.5 820,-369.5"/>
<text text-anchor="start" x="828" y="-387.5" font-family="Helvetica,sans-Serif" font-size="10.00">JSystem/J3DGraphBase</text>
<text text-anchor="middle" x="882" y="-376.5" font-family="Helvetica,sans-Serif" font-size="10.00">/J3DPacket.h</text>
</a>
</g>
</g>
<!-- Node4&#45;&gt;Node22 -->
<g id="edge42" class="edge">
<title>Node4&#45;&gt;Node22</title>
<path fill="none" stroke="midnightblue" d="M656.23,-570.52C713.88,-554.57 798.43,-523.13 851,-467 865.9,-451.1 873.84,-427.31 877.94,-409.54"/>
<polygon fill="midnightblue" stroke="midnightblue" points="881.4,-410.12 879.98,-399.62 874.54,-408.71 881.4,-410.12"/>
</g>
<!-- Node25 -->
<g id="node25" class="node">
<title>Node25</title>
<g id="a_node25"><a xlink:href="J3DShape_8h.html" target="_top" xlink:title=" ">
<polygon fill="white" stroke="black" points="1152,-369.5 1152,-399.5 1276,-399.5 1276,-369.5 1152,-369.5"/>
<text text-anchor="start" x="1160" y="-387.5" font-family="Helvetica,sans-Serif" font-size="10.00">JSystem/J3DGraphBase</text>
<text text-anchor="middle" x="1214" y="-376.5" font-family="Helvetica,sans-Serif" font-size="10.00">/J3DShape.h</text>
</a>
</g>
</g>
<!-- Node4&#45;&gt;Node25 -->
<g id="edge51" class="edge">
<title>Node4&#45;&gt;Node25</title>
<path fill="none" stroke="midnightblue" d="M656.44,-570.42C696.33,-561.03 749.02,-547.89 795,-534 932.8,-492.37 1092.23,-432.57 1168.62,-403.18"/>
<polygon fill="midnightblue" stroke="midnightblue" points="1169.88,-406.44 1177.95,-399.58 1167.36,-399.91 1169.88,-406.44"/>
</g>
<!-- Node5&#45;&gt;Node6 -->
<g id="edge5" class="edge">
<title>Node5&#45;&gt;Node6</title>
<path fill="none" stroke="midnightblue" d="M491.53,-503.19C476.19,-469.27 437.49,-383.72 418.65,-342.04"/>
<polygon fill="midnightblue" stroke="midnightblue" points="421.72,-340.35 414.41,-332.68 415.35,-343.24 421.72,-340.35"/>
</g>
<!-- Node5&#45;&gt;Node9 -->
<g id="edge41" class="edge">
<title>Node5&#45;&gt;Node9</title>
<path fill="none" stroke="midnightblue" d="M486.01,-503.31C455.93,-467.95 374.22,-373.65 299,-302 280.95,-284.81 273.4,-283.85 256,-266 228.07,-237.34 200,-235.52 200,-195.5 200,-195.5 200,-195.5 200,-132 200,-93.83 208.11,-76.98 240,-56 283.57,-27.34 634.9,-15.61 768.07,-12.17"/>
<polygon fill="midnightblue" stroke="midnightblue" points="768.5,-15.66 778.4,-11.91 768.32,-8.66 768.5,-15.66"/>
</g>
<!-- Node13 -->
<g id="node13" class="node">
<title>Node13</title>
<g id="a_node13"><a xlink:href="GX_8h.html" target="_top" xlink:title=" ">
<polygon fill="white" stroke="black" points="545.5,-246.5 545.5,-265.5 630.5,-265.5 630.5,-246.5 545.5,-246.5"/>
<text text-anchor="middle" x="588" y="-253.5" font-family="Helvetica,sans-Serif" font-size="10.00">dolphin/gx/GX.h</text>
</a>
</g>
</g>
<!-- Node5&#45;&gt;Node13 -->
<g id="edge39" class="edge">
<title>Node5&#45;&gt;Node13</title>
<path fill="none" stroke="midnightblue" d="M495.24,-503.35C488.92,-466.87 476.86,-367.92 517,-302 525.63,-287.82 540.61,-277.36 554.59,-270.11"/>
<polygon fill="midnightblue" stroke="midnightblue" points="556.51,-273.07 564.02,-265.6 553.49,-266.76 556.51,-273.07"/>
</g>
<!-- Node15 -->
<g id="node15" class="node">
<title>Node15</title>
<g id="a_node15"><a xlink:href="mtx_8h.html" target="_top" xlink:title=" ">
<polygon fill="white" stroke="black" points="733,-185 733,-204 825,-204 825,-185 733,-185"/>
<text text-anchor="middle" x="779" y="-192" font-family="Helvetica,sans-Serif" font-size="10.00">dolphin/mtx/mtx.h</text>
</a>
</g>
</g>
<!-- Node5&#45;&gt;Node15 -->
<g id="edge40" class="edge">
<title>Node5&#45;&gt;Node15</title>
<path fill="none" stroke="midnightblue" d="M515.54,-503.4C558.89,-467.77 672.47,-369.53 740,-266 751.3,-248.68 762.56,-227.84 770.05,-213.33"/>
<polygon fill="midnightblue" stroke="midnightblue" points="773.17,-214.92 774.59,-204.42 766.94,-211.74 773.17,-214.92"/>
</g>
<!-- Node5&#45;&gt;Node18 -->
<g id="edge29" class="edge">
<title>Node5&#45;&gt;Node18</title>
<path fill="none" stroke="midnightblue" d="M558.84,-503.48C602.89,-493.32 662.56,-479.57 708.83,-468.91"/>
<polygon fill="midnightblue" stroke="midnightblue" points="709.82,-472.27 718.78,-466.61 708.25,-465.45 709.82,-472.27"/>
</g>
<!-- Node5&#45;&gt;Node19 -->
<g id="edge31" class="edge">
<title>Node5&#45;&gt;Node19</title>
<path fill="none" stroke="midnightblue" d="M453.99,-503.48C422.86,-493.56 380.94,-480.2 347.82,-469.65"/>
<polygon fill="midnightblue" stroke="midnightblue" points="348.88,-466.31 338.29,-466.61 346.75,-472.98 348.88,-466.31"/>
</g>
<!-- Node7 -->
<g id="node7" class="node">
<title>Node7</title>
<g id="a_node7"><a xlink:href="c__xyz_8h.html" target="_top" xlink:title=" ">
<polygon fill="white" stroke="black" points="304,-179.5 304,-209.5 420,-209.5 420,-179.5 304,-179.5"/>
<text text-anchor="start" x="312" y="-197.5" font-family="Helvetica,sans-Serif" font-size="10.00">SSystem/SComponent</text>
<text text-anchor="middle" x="362" y="-186.5" font-family="Helvetica,sans-Serif" font-size="10.00">/c_xyz.h</text>
</a>
</g>
</g>
<!-- Node6&#45;&gt;Node7 -->
<g id="edge6" class="edge">
<title>Node6&#45;&gt;Node7</title>
<path fill="none" stroke="midnightblue" d="M402.54,-302.14C394.76,-281.68 380.39,-243.86 371.01,-219.2"/>
<polygon fill="midnightblue" stroke="midnightblue" points="374.28,-217.94 367.45,-209.84 367.73,-220.43 374.28,-217.94"/>
</g>
<!-- Node6&#45;&gt;Node9 -->
<g id="edge28" class="edge">
<title>Node6&#45;&gt;Node9</title>
<path fill="none" stroke="midnightblue" d="M353.28,-302.36C303.58,-285.83 238,-253.1 238,-195.5 238,-195.5 238,-195.5 238,-132 238,-95.35 240.32,-77.5 270,-56 309.78,-27.18 639.38,-15.63 767.93,-12.2"/>
<polygon fill="midnightblue" stroke="midnightblue" points="768.38,-15.69 778.29,-11.93 768.2,-8.69 768.38,-15.69"/>
</g>
<!-- Node6&#45;&gt;Node13 -->
<g id="edge15" class="edge">
<title>Node6&#45;&gt;Node13</title>
<path fill="none" stroke="midnightblue" d="M450.66,-302.4C481.63,-292.16 523.05,-278.47 552.28,-268.81"/>
<polygon fill="midnightblue" stroke="midnightblue" points="553.67,-272.03 562.07,-265.57 551.48,-265.39 553.67,-272.03"/>
</g>
<!-- Node8 -->
<g id="node8" class="node">
<title>Node8</title>
<g id="a_node8"><a xlink:href="vec_8h.html" target="_top" xlink:title=" ">
<polygon fill="white" stroke="black" points="773,-62 773,-81 865,-81 865,-62 773,-62"/>
<text text-anchor="middle" x="819" y="-69" font-family="Helvetica,sans-Serif" font-size="10.00">dolphin/mtx/vec.h</text>
</a>
</g>
</g>
<!-- Node7&#45;&gt;Node8 -->
<g id="edge7" class="edge">
<title>Node7&#45;&gt;Node8</title>
<path fill="none" stroke="midnightblue" d="M370.57,-179.38C381.44,-162.82 401.86,-135.99 427,-123 484.29,-93.39 668.76,-80.04 762.78,-75.03"/>
<polygon fill="midnightblue" stroke="midnightblue" points="763.15,-78.52 772.96,-74.5 762.79,-71.53 763.15,-78.52"/>
</g>
<!-- Node10 -->
<g id="node10" class="node">
<title>Node10</title>
<g id="a_node10"><a xlink:href="global_8h.html" target="_top" xlink:title=" ">
<polygon fill="white" stroke="black" points="436,-123.5 436,-142.5 486,-142.5 486,-123.5 436,-123.5"/>
<text text-anchor="middle" x="461" y="-130.5" font-family="Helvetica,sans-Serif" font-size="10.00">global.h</text>
</a>
</g>
</g>
<!-- Node7&#45;&gt;Node10 -->
<g id="edge9" class="edge">
<title>Node7&#45;&gt;Node10</title>
<path fill="none" stroke="midnightblue" d="M385.46,-179.4C401.33,-169.86 422.19,-157.32 437.97,-147.84"/>
<polygon fill="midnightblue" stroke="midnightblue" points="439.83,-150.81 446.59,-142.66 436.22,-144.81 439.83,-150.81"/>
</g>
<!-- Node11 -->
<g id="node11" class="node">
<title>Node11</title>
<g id="a_node11"><a xlink:href="math_8h.html" target="_top" xlink:title=" ">
<polygon fill="white" stroke="black" points="304.5,-123.5 304.5,-142.5 379.5,-142.5 379.5,-123.5 304.5,-123.5"/>
<text text-anchor="middle" x="342" y="-130.5" font-family="Helvetica,sans-Serif" font-size="10.00">msl_c/math.h</text>
</a>
</g>
</g>
<!-- Node7&#45;&gt;Node11 -->
<g id="edge11" class="edge">
<title>Node7&#45;&gt;Node11</title>
<path fill="none" stroke="midnightblue" d="M357.26,-179.4C354.53,-171.29 351.08,-161.01 348.14,-152.28"/>
<polygon fill="midnightblue" stroke="midnightblue" points="351.41,-151.02 344.91,-142.66 344.78,-153.25 351.41,-151.02"/>
</g>
<!-- Node8&#45;&gt;Node9 -->
<g id="edge8" class="edge">
<title>Node8&#45;&gt;Node9</title>
<path fill="none" stroke="midnightblue" d="M819,-61.98C819,-53.58 819,-40.48 819,-29.66"/>
<polygon fill="midnightblue" stroke="midnightblue" points="822.5,-29.51 819,-19.51 815.5,-29.51 822.5,-29.51"/>
</g>
<!-- Node10&#45;&gt;Node9 -->
<g id="edge10" class="edge">
<title>Node10&#45;&gt;Node9</title>
<path fill="none" stroke="midnightblue" d="M465.69,-123.16C474.87,-106.86 496.87,-72.21 526,-56 566.56,-33.43 695.43,-20.32 768.02,-14.55"/>
<polygon fill="midnightblue" stroke="midnightblue" points="768.61,-18.02 778.31,-13.75 768.07,-11.04 768.61,-18.02"/>
</g>
<!-- Node11&#45;&gt;Node9 -->
<g id="edge14" class="edge">
<title>Node11&#45;&gt;Node9</title>
<path fill="none" stroke="midnightblue" d="M364.95,-123.48C386.07,-115.26 417.97,-101.91 444,-87 464.44,-75.29 465.12,-64.73 487,-56 581.23,-18.4 701.17,-11.15 768.05,-10.34"/>
<polygon fill="midnightblue" stroke="midnightblue" points="768.34,-13.84 778.31,-10.26 768.29,-6.84 768.34,-13.84"/>
</g>
<!-- Node12 -->
<g id="node12" class="node">
<title>Node12</title>
<g id="a_node12"><a xlink:href="float_8h.html" target="_top" xlink:title=" ">
<polygon fill="white" stroke="black" points="304.5,-56.5 304.5,-86.5 435.5,-86.5 435.5,-56.5 304.5,-56.5"/>
<text text-anchor="start" x="312.5" y="-74.5" font-family="Helvetica,sans-Serif" font-size="10.00">MSL_C.PPCEABI.bare.H</text>
<text text-anchor="middle" x="370" y="-63.5" font-family="Helvetica,sans-Serif" font-size="10.00">/MSL_Common/Src/float.h</text>
</a>
</g>
</g>
<!-- Node11&#45;&gt;Node12 -->
<g id="edge12" class="edge">
<title>Node11&#45;&gt;Node12</title>
<path fill="none" stroke="midnightblue" d="M346.01,-123.48C349.41,-116.25 354.46,-105.53 359.05,-95.78"/>
<polygon fill="midnightblue" stroke="midnightblue" points="362.31,-97.06 363.4,-86.52 355.98,-94.08 362.31,-97.06"/>
</g>
<!-- Node12&#45;&gt;Node9 -->
<g id="edge13" class="edge">
<title>Node12&#45;&gt;Node9</title>
<path fill="none" stroke="midnightblue" d="M435.87,-58.25C440.65,-57.46 445.39,-56.7 450,-56 563.43,-38.82 697.24,-23.8 768.45,-16.23"/>
<polygon fill="midnightblue" stroke="midnightblue" points="768.91,-19.7 778.49,-15.16 768.18,-12.74 768.91,-19.7"/>
</g>
<!-- Node13&#45;&gt;Node9 -->
<g id="edge26" class="edge">
<title>Node13&#45;&gt;Node9</title>
<path fill="none" stroke="midnightblue" d="M588.25,-246.37C588.5,-237.32 588.86,-222.66 589,-210 589.15,-196.22 592.01,-192.44 589,-179 583.31,-153.62 558.23,-145.07 572,-123 614.42,-55.03 709.57,-27.94 768.61,-17.41"/>
<polygon fill="midnightblue" stroke="midnightblue" points="769.2,-20.86 778.48,-15.74 768.04,-13.96 769.2,-20.86"/>
</g>
<!-- Node13&#45;&gt;Node10 -->
<g id="edge27" class="edge">
<title>Node13&#45;&gt;Node10</title>
<path fill="none" stroke="midnightblue" d="M545.27,-250.64C518.37,-245.51 485.37,-234.33 467,-210 454.69,-193.69 455.04,-169.42 457.26,-152.71"/>
<polygon fill="midnightblue" stroke="midnightblue" points="460.77,-152.99 458.97,-142.55 453.86,-151.83 460.77,-152.99"/>
</g>
<!-- Node14 -->
<g id="node14" class="node">
<title>Node14</title>
<g id="a_node14"><a xlink:href="GXDisplayList_8h.html" target="_top" xlink:title=" ">
<polygon fill="white" stroke="black" points="580.5,-123.5 580.5,-142.5 713.5,-142.5 713.5,-123.5 580.5,-123.5"/>
<text text-anchor="middle" x="647" y="-130.5" font-family="Helvetica,sans-Serif" font-size="10.00">dolphin/gx/GXDisplayList.h</text>
</a>
</g>
</g>
<!-- Node13&#45;&gt;Node14 -->
<g id="edge16" class="edge">
<title>Node13&#45;&gt;Node14</title>
<path fill="none" stroke="midnightblue" d="M595.98,-246.29C603.55,-237.63 614.82,-223.71 622,-210 631.64,-191.58 638.56,-168.72 642.64,-152.91"/>
<polygon fill="midnightblue" stroke="midnightblue" points="646.13,-153.35 645.1,-142.81 639.33,-151.69 646.13,-153.35"/>
</g>
<!-- Node13&#45;&gt;Node15 -->
<g id="edge18" class="edge">
<title>Node13&#45;&gt;Node15</title>
<path fill="none" stroke="midnightblue" d="M615.37,-246.48C648.55,-236.14 704.65,-218.66 741.76,-207.1"/>
<polygon fill="midnightblue" stroke="midnightblue" points="743.18,-210.32 751.69,-204.01 741.1,-203.64 743.18,-210.32"/>
</g>
<!-- Node17 -->
<g id="node17" class="node">
<title>Node17</title>
<g id="a_node17"><a xlink:href="mtx44_8h.html" target="_top" xlink:title=" ">
<polygon fill="white" stroke="black" points="476.5,-185 476.5,-204 579.5,-204 579.5,-185 476.5,-185"/>
<text text-anchor="middle" x="528" y="-192" font-family="Helvetica,sans-Serif" font-size="10.00">dolphin/mtx/mtx44.h</text>
</a>
</g>
</g>
<!-- Node13&#45;&gt;Node17 -->
<g id="edge24" class="edge">
<title>Node13&#45;&gt;Node17</title>
<path fill="none" stroke="midnightblue" d="M579.4,-246.48C570.14,-237.28 555.18,-222.46 543.79,-211.16"/>
<polygon fill="midnightblue" stroke="midnightblue" points="546.15,-208.57 536.58,-204.01 541.22,-213.54 546.15,-208.57"/>
</g>
<!-- Node14&#45;&gt;Node9 -->
<g id="edge17" class="edge">
<title>Node14&#45;&gt;Node9</title>
<path fill="none" stroke="midnightblue" d="M659.31,-123.34C679.36,-109.23 720.31,-80.4 755,-56 769.48,-45.81 785.81,-34.33 798.35,-25.52"/>
<polygon fill="midnightblue" stroke="midnightblue" points="800.56,-28.24 806.73,-19.63 796.54,-22.51 800.56,-28.24"/>
</g>
<!-- Node15&#45;&gt;Node8 -->
<g id="edge22" class="edge">
<title>Node15&#45;&gt;Node8</title>
<path fill="none" stroke="midnightblue" d="M794.69,-184.85C808.47,-176.26 827.59,-161.69 836,-143 843.72,-125.84 836.63,-104.68 829.39,-90.04"/>
<polygon fill="midnightblue" stroke="midnightblue" points="832.38,-88.2 824.53,-81.08 826.22,-91.54 832.38,-88.2"/>
</g>
<!-- Node15&#45;&gt;Node9 -->
<g id="edge23" class="edge">
<title>Node15&#45;&gt;Node9</title>
<path fill="none" stroke="midnightblue" d="M796.57,-184.92C812.64,-176.29 836.13,-161.6 851,-143 867.8,-121.98 868.79,-113.4 874,-87 876.67,-73.48 879.9,-68.45 874,-56 867.87,-43.07 856.01,-32.62 844.86,-25.05"/>
<polygon fill="midnightblue" stroke="midnightblue" points="846.53,-21.97 836.2,-19.61 842.81,-27.9 846.53,-21.97"/>
</g>
<!-- Node16 -->
<g id="node16" class="node">
<title>Node16</title>
<g id="a_node16"><a xlink:href="quat_8h.html" target="_top" xlink:title=" ">
<polygon fill="white" stroke="black" points="731.5,-123.5 731.5,-142.5 826.5,-142.5 826.5,-123.5 731.5,-123.5"/>
<text text-anchor="middle" x="779" y="-130.5" font-family="Helvetica,sans-Serif" font-size="10.00">dolphin/mtx/quat.h</text>
</a>
</g>
</g>
<!-- Node15&#45;&gt;Node16 -->
<g id="edge19" class="edge">
<title>Node15&#45;&gt;Node16</title>
<path fill="none" stroke="midnightblue" d="M779,-184.98C779,-176.58 779,-163.48 779,-152.66"/>
<polygon fill="midnightblue" stroke="midnightblue" points="782.5,-152.51 779,-142.51 775.5,-152.51 782.5,-152.51"/>
</g>
<!-- Node16&#45;&gt;Node8 -->
<g id="edge20" class="edge">
<title>Node16&#45;&gt;Node8</title>
<path fill="none" stroke="midnightblue" d="M784.73,-123.48C790.67,-114.64 800.12,-100.59 807.59,-89.48"/>
<polygon fill="midnightblue" stroke="midnightblue" points="810.61,-91.26 813.28,-81.01 804.8,-87.36 810.61,-91.26"/>
</g>
<!-- Node16&#45;&gt;Node9 -->
<g id="edge21" class="edge">
<title>Node16&#45;&gt;Node9</title>
<path fill="none" stroke="midnightblue" d="M773.85,-123.13C766.06,-108.48 753.29,-78.61 764,-56 770.13,-43.07 781.99,-32.62 793.14,-25.05"/>
<polygon fill="midnightblue" stroke="midnightblue" points="795.19,-27.9 801.8,-19.61 791.47,-21.97 795.19,-27.9"/>
</g>
<!-- Node17&#45;&gt;Node9 -->
<g id="edge25" class="edge">
<title>Node17&#45;&gt;Node9</title>
<path fill="none" stroke="midnightblue" d="M527.19,-184.96C525.38,-160.35 523.96,-88.89 564,-56 594.5,-30.95 703.14,-19.09 768.37,-14.11"/>
<polygon fill="midnightblue" stroke="midnightblue" points="768.73,-17.6 778.45,-13.37 768.22,-10.62 768.73,-17.6"/>
</g>
<!-- Node18&#45;&gt;Node9 -->
<g id="edge30" class="edge">
<title>Node18&#45;&gt;Node9</title>
<path fill="none" stroke="midnightblue" d="M784.83,-436.41C804.54,-378.59 878.41,-159.19 889,-87 891,-73.37 895.6,-68.09 889,-56 881.18,-41.68 866.64,-31.24 852.82,-24.04"/>
<polygon fill="midnightblue" stroke="midnightblue" points="854,-20.72 843.47,-19.56 850.98,-27.03 854,-20.72"/>
</g>
<!-- Node19&#45;&gt;Node9 -->
<g id="edge38" class="edge">
<title>Node19&#45;&gt;Node9</title>
<path fill="none" stroke="midnightblue" d="M231.82,-440.19C167.39,-425.54 76,-391.84 76,-318.5 76,-318.5 76,-318.5 76,-132 76,-92.75 87.54,-76.53 121,-56 175.71,-22.44 616.14,-13.62 767.86,-11.56"/>
<polygon fill="midnightblue" stroke="midnightblue" points="768.32,-15.06 778.28,-11.43 768.23,-8.06 768.32,-15.06"/>
</g>
<!-- Node19&#45;&gt;Node15 -->
<g id="edge37" class="edge">
<title>Node19&#45;&gt;Node15</title>
<path fill="none" stroke="midnightblue" d="M356.22,-441.01C432.63,-427.09 563.79,-395.7 659,-333 684.76,-316.04 740.75,-245.34 766.08,-212.46"/>
<polygon fill="midnightblue" stroke="midnightblue" points="769.06,-214.33 772.37,-204.26 763.5,-210.07 769.06,-214.33"/>
</g>
<!-- Node20 -->
<g id="node20" class="node">
<title>Node20</title>
<g id="a_node20"><a xlink:href="JUTTexture_8h.html" target="_top" xlink:title=" ">
<polygon fill="white" stroke="black" points="141.5,-375 141.5,-394 290.5,-394 290.5,-375 141.5,-375"/>
<text text-anchor="middle" x="216" y="-382" font-family="Helvetica,sans-Serif" font-size="10.00">JSystem/JUtility/JUTTexture.h</text>
</a>
</g>
</g>
<!-- Node19&#45;&gt;Node20 -->
<g id="edge32" class="edge">
<title>Node19&#45;&gt;Node20</title>
<path fill="none" stroke="midnightblue" d="M277.08,-436.4C264.43,-425.86 247.17,-411.48 234.23,-400.69"/>
<polygon fill="midnightblue" stroke="midnightblue" points="236.36,-397.91 226.43,-394.19 231.88,-403.29 236.36,-397.91"/>
</g>
<!-- Node20&#45;&gt;Node9 -->
<g id="edge36" class="edge">
<title>Node20&#45;&gt;Node9</title>
<path fill="none" stroke="midnightblue" d="M192.05,-374.85C173.23,-366.84 147.8,-353.1 133,-333 112.36,-304.96 114,-291.82 114,-257 114,-257 114,-257 114,-132 114,-92.28 126.99,-76.51 161,-56 212.48,-24.96 622.26,-14.56 767.88,-11.83"/>
<polygon fill="midnightblue" stroke="midnightblue" points="768.37,-15.32 778.3,-11.64 768.24,-8.32 768.37,-15.32"/>
</g>
<!-- Node21 -->
<g id="node21" class="node">
<title>Node21</title>
<g id="a_node21"><a xlink:href="JUTPalette_8h.html" target="_top" xlink:title=" ">
<polygon fill="white" stroke="black" points="142,-308 142,-327 290,-327 290,-308 142,-308"/>
<text text-anchor="middle" x="216" y="-315" font-family="Helvetica,sans-Serif" font-size="10.00">JSystem/JUtility/JUTPalette.h</text>
</a>
</g>
</g>
<!-- Node20&#45;&gt;Node21 -->
<g id="edge33" class="edge">
<title>Node20&#45;&gt;Node21</title>
<path fill="none" stroke="midnightblue" d="M216,-374.73C216,-365.18 216,-349.62 216,-337.28"/>
<polygon fill="midnightblue" stroke="midnightblue" points="219.5,-337.13 216,-327.13 212.5,-337.13 219.5,-337.13"/>
</g>
<!-- Node21&#45;&gt;Node9 -->
<g id="edge35" class="edge">
<title>Node21&#45;&gt;Node9</title>
<path fill="none" stroke="midnightblue" d="M209.16,-307.98C194.63,-289 162,-241.28 162,-195.5 162,-195.5 162,-195.5 162,-132 162,-96.58 158.19,-77.94 186,-56 231.25,-20.3 625.49,-12.9 767.93,-11.38"/>
<polygon fill="midnightblue" stroke="midnightblue" points="768.18,-14.88 778.15,-11.28 768.11,-7.88 768.18,-14.88"/>
</g>
<!-- Node21&#45;&gt;Node13 -->
<g id="edge34" class="edge">
<title>Node21&#45;&gt;Node13</title>
<path fill="none" stroke="midnightblue" d="M269.3,-307.98C340.24,-296.63 464.93,-276.68 535.48,-265.4"/>
<polygon fill="midnightblue" stroke="midnightblue" points="536.16,-268.84 545.48,-263.8 535.06,-261.92 536.16,-268.84"/>
</g>
<!-- Node22&#45;&gt;Node9 -->
<g id="edge50" class="edge">
<title>Node22&#45;&gt;Node9</title>
<path fill="none" stroke="midnightblue" d="M881.64,-369.49C881.51,-353.13 882.14,-325.31 887,-302 909.92,-192.03 1009.71,-147.82 945,-56 928.03,-31.92 896.96,-20.66 869.92,-15.42"/>
<polygon fill="midnightblue" stroke="midnightblue" points="870.24,-11.92 859.79,-13.69 869.06,-18.82 870.24,-11.92"/>
</g>
<!-- Node22&#45;&gt;Node15 -->
<g id="edge49" class="edge">
<title>Node22&#45;&gt;Node15</title>
<path fill="none" stroke="midnightblue" d="M874.13,-369.37C868.5,-359.25 860.76,-345.3 854,-333 830.4,-290.09 802.89,-239.5 788.65,-213.28"/>
<polygon fill="midnightblue" stroke="midnightblue" points="791.56,-211.32 783.72,-204.2 785.41,-214.66 791.56,-211.32"/>
</g>
<!-- Node22&#45;&gt;Node23 -->
<g id="edge43" class="edge">
<title>Node22&#45;&gt;Node23</title>
<path fill="none" stroke="midnightblue" d="M819.65,-369.72C772.89,-359.38 708.81,-345.21 659.89,-334.39"/>
<polygon fill="midnightblue" stroke="midnightblue" points="660.53,-330.95 650.01,-332.21 659.02,-337.79 660.53,-330.95"/>
</g>
<!-- Node24 -->
<g id="node24" class="node">
<title>Node24</title>
<g id="a_node24"><a xlink:href="GDBase_8h.html" target="_top" xlink:title=" ">
<polygon fill="white" stroke="black" points="1092,-246.5 1092,-265.5 1200,-265.5 1200,-246.5 1092,-246.5"/>
<text text-anchor="middle" x="1146" y="-253.5" font-family="Helvetica,sans-Serif" font-size="10.00">dolphin/gd/GDBase.h</text>
</a>
</g>
</g>
<!-- Node22&#45;&gt;Node24 -->
<g id="edge47" class="edge">
<title>Node22&#45;&gt;Node24</title>
<path fill="none" stroke="midnightblue" d="M932.55,-369.5C961.49,-360.66 998.07,-348.07 1029,-333 1065.52,-315.2 1104.41,-288.1 1126.89,-271.53"/>
<polygon fill="midnightblue" stroke="midnightblue" points="1129.01,-274.31 1134.93,-265.53 1124.82,-268.7 1129.01,-274.31"/>
</g>
<!-- Node23&#45;&gt;Node9 -->
<g id="edge46" class="edge">
<title>Node23&#45;&gt;Node9</title>
<path fill="none" stroke="midnightblue" d="M525.72,-302.67C448.03,-284.01 322.06,-248.62 295,-210 255.73,-153.94 248.72,-106.43 295,-56 326.6,-21.57 642.83,-13.43 768.19,-11.55"/>
<polygon fill="midnightblue" stroke="midnightblue" points="768.36,-15.05 778.3,-11.4 768.26,-8.05 768.36,-15.05"/>
</g>
<!-- Node23&#45;&gt;Node13 -->
<g id="edge44" class="edge">
<title>Node23&#45;&gt;Node13</title>
<path fill="none" stroke="midnightblue" d="M588,-302.4C588,-294.47 588,-284.46 588,-275.86"/>
<polygon fill="midnightblue" stroke="midnightblue" points="591.5,-275.66 588,-265.66 584.5,-275.66 591.5,-275.66"/>
</g>
<!-- Node23&#45;&gt;Node15 -->
<g id="edge45" class="edge">
<title>Node23&#45;&gt;Node15</title>
<path fill="none" stroke="midnightblue" d="M610.28,-302.38C647.12,-279.05 720.26,-232.71 756.94,-209.47"/>
<polygon fill="midnightblue" stroke="midnightblue" points="758.86,-212.4 765.44,-204.09 755.12,-206.49 758.86,-212.4"/>
</g>
<!-- Node24&#45;&gt;Node9 -->
<g id="edge48" class="edge">
<title>Node24&#45;&gt;Node9</title>
<path fill="none" stroke="midnightblue" d="M1146.04,-246.14C1145.66,-214.68 1139.87,-107.52 1080,-56 1049.23,-29.52 936.76,-18.16 869.92,-13.66"/>
<polygon fill="midnightblue" stroke="midnightblue" points="869.81,-10.15 859.6,-13 869.36,-17.13 869.81,-10.15"/>
</g>
<!-- Node25&#45;&gt;Node9 -->
<g id="edge62" class="edge">
<title>Node25&#45;&gt;Node9</title>
<path fill="none" stroke="midnightblue" d="M1242.73,-369.42C1257.44,-360.83 1274.43,-348.49 1285,-333 1304.62,-304.24 1304,-291.82 1304,-257 1304,-257 1304,-257 1304,-132 1304,-43.16 993.77,-19.03 869.54,-12.93"/>
<polygon fill="midnightblue" stroke="midnightblue" points="869.67,-9.43 859.52,-12.45 869.34,-16.42 869.67,-9.43"/>
</g>
<!-- Node25&#45;&gt;Node13 -->
<g id="edge60" class="edge">
<title>Node25&#45;&gt;Node13</title>
<path fill="none" stroke="midnightblue" d="M1151.91,-375.71C1085.9,-367.01 978.61,-351.67 887,-333 793.18,-313.88 684.59,-284.4 627.6,-268.36"/>
<polygon fill="midnightblue" stroke="midnightblue" points="628.49,-264.97 617.91,-265.62 626.58,-271.71 628.49,-264.97"/>
</g>
<!-- Node26 -->
<g id="node26" class="node">
<title>Node26</title>
<g id="a_node26"><a xlink:href="J3DShapeDraw_8h.html" target="_top" xlink:title=" ">
<polygon fill="white" stroke="black" points="1370,-56.5 1370,-86.5 1494,-86.5 1494,-56.5 1370,-56.5"/>
<text text-anchor="start" x="1378" y="-74.5" font-family="Helvetica,sans-Serif" font-size="10.00">JSystem/J3DGraphBase</text>
<text text-anchor="middle" x="1432" y="-63.5" font-family="Helvetica,sans-Serif" font-size="10.00">/J3DShapeDraw.h</text>
</a>
</g>
</g>
<!-- Node25&#45;&gt;Node26 -->
<g id="edge52" class="edge">
<title>Node25&#45;&gt;Node26</title>
<path fill="none" stroke="midnightblue" d="M1276.25,-378.52C1341.58,-372.02 1438.43,-358.36 1465,-333 1490.18,-308.96 1484,-291.82 1484,-257 1484,-257 1484,-257 1484,-193.5 1484,-156.76 1463.52,-118.48 1448.26,-95.06"/>
<polygon fill="midnightblue" stroke="midnightblue" points="1451.02,-92.89 1442.52,-86.55 1445.22,-96.8 1451.02,-92.89"/>
</g>
<!-- Node27 -->
<g id="node27" class="node">
<title>Node27</title>
<g id="a_node27"><a xlink:href="J3DShapeMtx_8h.html" target="_top" xlink:title=" ">
<polygon fill="white" stroke="black" points="1152,-302.5 1152,-332.5 1276,-332.5 1276,-302.5 1152,-302.5"/>
<text text-anchor="start" x="1160" y="-320.5" font-family="Helvetica,sans-Serif" font-size="10.00">JSystem/J3DGraphBase</text>
<text text-anchor="middle" x="1214" y="-309.5" font-family="Helvetica,sans-Serif" font-size="10.00">/J3DShapeMtx.h</text>
</a>
</g>
</g>
<!-- Node25&#45;&gt;Node27 -->
<g id="edge54" class="edge">
<title>Node25&#45;&gt;Node27</title>
<path fill="none" stroke="midnightblue" d="M1214,-369.4C1214,-361.64 1214,-351.81 1214,-342.86"/>
<polygon fill="midnightblue" stroke="midnightblue" points="1217.5,-342.58 1214,-332.58 1210.5,-342.58 1217.5,-342.58"/>
</g>
<!-- Node25&#45;&gt;Node28 -->
<g id="edge61" class="edge">
<title>Node25&#45;&gt;Node28</title>
<path fill="none" stroke="midnightblue" d="M1192.5,-369.48C1155.39,-345.28 1079.71,-295.94 1042.16,-271.45"/>
<polygon fill="midnightblue" stroke="midnightblue" points="1043.77,-268.32 1033.48,-265.79 1039.94,-274.18 1043.77,-268.32"/>
</g>
<!-- Node26&#45;&gt;Node9 -->
<g id="edge53" class="edge">
<title>Node26&#45;&gt;Node9</title>
<path fill="none" stroke="midnightblue" d="M1369.87,-58.1C1365.19,-57.33 1360.52,-56.62 1356,-56 1178.21,-31.66 965.38,-18.53 869.82,-13.48"/>
<polygon fill="midnightblue" stroke="midnightblue" points="869.75,-9.97 859.58,-12.94 869.38,-16.96 869.75,-9.97"/>
</g>
<!-- Node27&#45;&gt;Node9 -->
<g id="edge59" class="edge">
<title>Node27&#45;&gt;Node9</title>
<path fill="none" stroke="midnightblue" d="M1214.71,-302.42C1215.05,-287.97 1214.49,-264.98 1209,-246 1182.35,-153.94 1185.2,-111.42 1107,-56 1069.76,-29.61 942.02,-18.07 869.8,-13.55"/>
<polygon fill="midnightblue" stroke="midnightblue" points="869.75,-10.04 859.56,-12.94 869.33,-17.03 869.75,-10.04"/>
</g>
<!-- Node27&#45;&gt;Node28 -->
<g id="edge55" class="edge">
<title>Node27&#45;&gt;Node28</title>
<path fill="none" stroke="midnightblue" d="M1168.02,-302.4C1134.36,-292.07 1089.22,-278.23 1057.68,-268.56"/>
<polygon fill="midnightblue" stroke="midnightblue" points="1058.53,-265.16 1047.95,-265.57 1056.48,-271.85 1058.53,-265.16"/>
</g>
<!-- Node28&#45;&gt;Node8 -->
<g id="edge57" class="edge">
<title>Node28&#45;&gt;Node8</title>
<path fill="none" stroke="midnightblue" d="M1010.57,-246.44C979.06,-217.83 877.05,-125.21 836.17,-88.09"/>
<polygon fill="midnightblue" stroke="midnightblue" points="838.39,-85.38 828.64,-81.25 833.69,-90.56 838.39,-85.38"/>
</g>
<!-- Node28&#45;&gt;Node9 -->
<g id="edge58" class="edge">
<title>Node28&#45;&gt;Node9</title>
<path fill="none" stroke="midnightblue" d="M1026.12,-246.23C1046.41,-215.96 1107.56,-114.52 1059,-56 1035.44,-27.61 932.97,-17.02 869.78,-13.15"/>
<polygon fill="midnightblue" stroke="midnightblue" points="869.8,-9.65 859.62,-12.57 869.4,-16.64 869.8,-9.65"/>
</g>
<!-- Node28&#45;&gt;Node15 -->
<g id="edge56" class="edge">
<title>Node28&#45;&gt;Node15</title>
<path fill="none" stroke="midnightblue" d="M985.47,-246.48C942.79,-235.94 870.08,-217.99 823.32,-206.44"/>
<polygon fill="midnightblue" stroke="midnightblue" points="824.01,-203.01 813.47,-204.01 822.33,-209.8 824.01,-203.01"/>
</g>
<!-- Node29&#45;&gt;Node9 -->
<g id="edge69" class="edge">
<title>Node29&#45;&gt;Node9</title>
<path fill="none" stroke="midnightblue" d="M955.45,-302.41C953.38,-287.95 951.59,-264.95 957,-246 971.79,-194.17 1006.21,-194.83 1021,-143 1031.61,-105.82 1045.19,-86.17 1021,-56 1002.37,-32.76 923.13,-20.75 869.61,-15.17"/>
<polygon fill="midnightblue" stroke="midnightblue" points="869.9,-11.68 859.6,-14.17 869.21,-18.64 869.9,-11.68"/>
</g>
<!-- Node29&#45;&gt;Node28 -->
<g id="edge68" class="edge">
<title>Node29&#45;&gt;Node28</title>
<path fill="none" stroke="midnightblue" d="M972.69,-302.4C981.98,-293.49 994,-281.95 1003.6,-272.74"/>
<polygon fill="midnightblue" stroke="midnightblue" points="1006.19,-275.11 1010.98,-265.66 1001.34,-270.06 1006.19,-275.11"/>
</g>
<!-- Node30&#45;&gt;Node9 -->
<g id="edge72" class="edge">
<title>Node30&#45;&gt;Node9</title>
<path fill="none" stroke="midnightblue" d="M1620.53,-369.48C1618.22,-346.16 1614,-297.93 1614,-257 1614,-257 1614,-257 1614,-132 1614,-93.83 1606.08,-76.69 1574,-56 1515.12,-18.02 1029.6,-12.09 869.78,-11.17"/>
<polygon fill="midnightblue" stroke="midnightblue" points="869.76,-7.67 859.74,-11.11 869.72,-14.67 869.76,-7.67"/>
</g>
<!-- Node31&#45;&gt;Node9 -->
<g id="edge77" class="edge">
<title>Node31&#45;&gt;Node9</title>
<path fill="none" stroke="midnightblue" d="M1718,-436.24C1718,-412.03 1718,-361.35 1718,-318.5 1718,-318.5 1718,-318.5 1718,-132 1718,-70.74 1661.14,-75.31 1603,-56 1466.38,-10.63 1021.65,-9.49 870.11,-10.48"/>
<polygon fill="midnightblue" stroke="midnightblue" points="869.69,-6.99 859.72,-10.56 869.74,-13.99 869.69,-6.99"/>
</g>
<!-- Node31&#45;&gt;Node30 -->
<g id="edge76" class="edge">
<title>Node31&#45;&gt;Node30</title>
<path fill="none" stroke="midnightblue" d="M1697.17,-436.4C1683.71,-427.28 1666,-415.29 1651.15,-405.24"/>
<polygon fill="midnightblue" stroke="midnightblue" points="1653.03,-402.28 1642.79,-399.58 1649.11,-408.08 1653.03,-402.28"/>
</g>
<!-- Node32&#45;&gt;Node9 -->
<g id="edge85" class="edge">
<title>Node32&#45;&gt;Node9</title>
<path fill="none" stroke="midnightblue" d="M1525.51,-436.4C1534.91,-398.09 1560,-292.6 1560,-257 1560,-257 1560,-257 1560,-132 1560,-96.58 1563.9,-77.82 1536,-56 1483.84,-15.2 1024.79,-11.13 869.83,-10.92"/>
<polygon fill="midnightblue" stroke="midnightblue" points="869.65,-7.42 859.64,-10.91 869.64,-14.42 869.65,-7.42"/>
</g>
<!-- Node32&#45;&gt;Node25 -->
<g id="edge79" class="edge">
<title>Node32&#45;&gt;Node25</title>
<path fill="none" stroke="midnightblue" d="M1455.55,-436.48C1405.64,-425.94 1337.38,-411.54 1286.15,-400.73"/>
<polygon fill="midnightblue" stroke="midnightblue" points="1286.64,-397.25 1276.14,-398.61 1285.2,-404.1 1286.64,-397.25"/>
</g>
<!-- Node32&#45;&gt;Node30 -->
<g id="edge84" class="edge">
<title>Node32&#45;&gt;Node30</title>
<path fill="none" stroke="midnightblue" d="M1543.7,-436.4C1557.72,-427.28 1576.17,-415.29 1591.64,-405.24"/>
<polygon fill="midnightblue" stroke="midnightblue" points="1593.87,-407.96 1600.34,-399.58 1590.05,-402.09 1593.87,-407.96"/>
</g>
<!-- Node32&#45;&gt;Node33 -->
<g id="edge80" class="edge">
<title>Node32&#45;&gt;Node33</title>
<path fill="none" stroke="midnightblue" d="M1508.3,-436.37C1485.88,-413.25 1441.2,-367.18 1414.83,-339.99"/>
<polygon fill="midnightblue" stroke="midnightblue" points="1417.07,-337.27 1407.6,-332.52 1412.05,-342.14 1417.07,-337.27"/>
</g>
<!-- Node33&#45;&gt;Node8 -->
<g id="edge82" class="edge">
<title>Node33&#45;&gt;Node8</title>
<path fill="none" stroke="midnightblue" d="M1360.6,-302.33C1257.6,-258.62 945.95,-126.37 848.47,-85.01"/>
<polygon fill="midnightblue" stroke="midnightblue" points="849.78,-81.76 839.2,-81.07 847.04,-88.2 849.78,-81.76"/>
</g>
<!-- Node33&#45;&gt;Node9 -->
<g id="edge83" class="edge">
<title>Node33&#45;&gt;Node9</title>
<path fill="none" stroke="midnightblue" d="M1383.48,-302.45C1368.28,-280.72 1342,-237.11 1342,-195.5 1342,-195.5 1342,-195.5 1342,-132 1342,-96.58 1345.6,-78.2 1318,-56 1283.59,-28.32 989.75,-16.24 869.74,-12.43"/>
<polygon fill="midnightblue" stroke="midnightblue" points="869.81,-8.93 859.7,-12.11 869.59,-15.92 869.81,-8.93"/>
</g>
<!-- Node33&#45;&gt;Node13 -->
<g id="edge81" class="edge">
<title>Node33&#45;&gt;Node13</title>
<path fill="none" stroke="midnightblue" d="M1331.83,-307.49C1316.54,-305.48 1300.2,-303.5 1285,-302 1044.87,-278.3 756.91,-264.26 640.57,-259.18"/>
<polygon fill="midnightblue" stroke="midnightblue" points="640.65,-255.68 630.51,-258.74 640.35,-262.67 640.65,-255.68"/>
</g>
</g>
</svg>
