<?xml version="1.0" encoding="UTF-8" standalone="no"?>
<!DOCTYPE svg PUBLIC "-//W3C//DTD SVG 1.1//EN"
 "http://www.w3.org/Graphics/SVG/1.1/DTD/svg11.dtd">
<!-- Generated by graphviz version 3.0.0 (20220413.0242)
 -->
<!-- Title: include/JSystem/J3DGraphAnimator/J3DMaterialAnm.h Pages: 1 -->
<svg width="4841pt" height="318pt"
 viewBox="0.00 0.00 4840.67 318.00" xmlns="http://www.w3.org/2000/svg" xmlns:xlink="http://www.w3.org/1999/xlink">
<g id="graph0" class="graph" transform="scale(1 1) rotate(0) translate(4 314)">
<title>include/JSystem/J3DGraphAnimator/J3DMaterialAnm.h</title>
<polygon fill="white" stroke="transparent" points="-4,4 -4,-314 4836.67,-314 4836.67,4 -4,4"/>
<!-- Node1 -->
<g id="node1" class="node">
<title>Node1</title>
<g id="a_node1"><a xlink:title=" ">
<polygon fill="#bfbfbf" stroke="black" points="3739.67,-279.5 3739.67,-309.5 3877.67,-309.5 3877.67,-279.5 3739.67,-279.5"/>
<text text-anchor="start" x="3747.67" y="-297.5" font-family="Helvetica,sans-Serif" font-size="10.00">include/JSystem/J3DGraph</text>
<text text-anchor="middle" x="3808.67" y="-286.5" font-family="Helvetica,sans-Serif" font-size="10.00">Animator/J3DMaterialAnm.h</text>
</a>
</g>
</g>
<!-- Node2 -->
<g id="node2" class="node">
<title>Node2</title>
<g id="a_node2"><a xlink:href="d__a__alink_8h.html" target="_top" xlink:title=" ">
<polygon fill="white" stroke="black" points="2301.67,-218 2301.67,-237 2417.67,-237 2417.67,-218 2301.67,-218"/>
<text text-anchor="middle" x="2359.67" y="-225" font-family="Helvetica,sans-Serif" font-size="10.00">include/d/a/d_a_alink.h</text>
</a>
</g>
</g>
<!-- Node1&#45;&gt;Node2 -->
<g id="edge1" class="edge">
<title>Node1&#45;&gt;Node2</title>
<path fill="none" stroke="midnightblue" d="M3729.13,-289.93C3468.62,-278.25 2644.72,-241.29 2417.94,-231.11"/>
<polygon fill="midnightblue" stroke="midnightblue" points="3729.12,-293.44 3739.27,-290.39 3729.44,-286.44 3729.12,-293.44"/>
</g>
<!-- Node74 -->
<g id="node37" class="node">
<title>Node74</title>
<g id="a_node37"><a xlink:href="d__resorce_8cpp.html" target="_top" xlink:title=" ">
<polygon fill="white" stroke="black" points="4730.67,-78.5 4730.67,-97.5 4832.67,-97.5 4832.67,-78.5 4730.67,-78.5"/>
<text text-anchor="middle" x="4781.67" y="-85.5" font-family="Helvetica,sans-Serif" font-size="10.00">src/d/d_resorce.cpp</text>
</a>
</g>
</g>
<!-- Node1&#45;&gt;Node74 -->
<g id="edge58" class="edge">
<title>Node1&#45;&gt;Node74</title>
<path fill="none" stroke="midnightblue" d="M3729.29,-283.06C3667.66,-271.81 3598.06,-250.15 3632.67,-212 3711.88,-124.69 4572.18,-127.15 4688.67,-109 4707.92,-106 4729.19,-101.52 4746.52,-97.55"/>
<polygon fill="midnightblue" stroke="midnightblue" points="3729.04,-286.57 3739.49,-284.85 3730.24,-279.68 3729.04,-286.57"/>
</g>
<!-- Node96 -->
<g id="node47" class="node">
<title>Node96</title>
<g id="a_node47"><a xlink:href="J3DMaterialAnm_8cpp.html" target="_top" xlink:title=" ">
<polygon fill="white" stroke="black" points="3641.67,-212.5 3641.67,-242.5 3799.67,-242.5 3799.67,-212.5 3641.67,-212.5"/>
<text text-anchor="start" x="3649.67" y="-230.5" font-family="Helvetica,sans-Serif" font-size="10.00">libs/JSystem/J3DGraphAnimator</text>
<text text-anchor="middle" x="3720.67" y="-219.5" font-family="Helvetica,sans-Serif" font-size="10.00">/J3DMaterialAnm.cpp</text>
</a>
</g>
</g>
<!-- Node1&#45;&gt;Node96 -->
<g id="edge55" class="edge">
<title>Node1&#45;&gt;Node96</title>
<path fill="none" stroke="midnightblue" d="M3781.53,-273.45C3767.99,-263.45 3751.94,-251.6 3739.73,-242.58"/>
<polygon fill="midnightblue" stroke="midnightblue" points="3779.45,-276.27 3789.57,-279.4 3783.61,-270.64 3779.45,-276.27"/>
</g>
<!-- Node97 -->
<g id="node48" class="node">
<title>Node97</title>
<g id="a_node48"><a xlink:href="J3DMaterialAttach_8cpp.html" target="_top" xlink:title=" ">
<polygon fill="white" stroke="black" points="3817.67,-212.5 3817.67,-242.5 3975.67,-242.5 3975.67,-212.5 3817.67,-212.5"/>
<text text-anchor="start" x="3825.67" y="-230.5" font-family="Helvetica,sans-Serif" font-size="10.00">libs/JSystem/J3DGraphAnimator</text>
<text text-anchor="middle" x="3896.67" y="-219.5" font-family="Helvetica,sans-Serif" font-size="10.00">/J3DMaterialAttach.cpp</text>
</a>
</g>
</g>
<!-- Node1&#45;&gt;Node97 -->
<g id="edge56" class="edge">
<title>Node1&#45;&gt;Node97</title>
<path fill="none" stroke="midnightblue" d="M3835.81,-273.45C3849.35,-263.45 3865.4,-251.6 3877.61,-242.58"/>
<polygon fill="midnightblue" stroke="midnightblue" points="3833.73,-270.64 3827.76,-279.4 3837.89,-276.27 3833.73,-270.64"/>
</g>
<!-- Node98 -->
<g id="node49" class="node">
<title>Node98</title>
<g id="a_node49"><a xlink:href="J3DModelData_8cpp.html" target="_top" xlink:title=" ">
<polygon fill="white" stroke="black" points="3993.67,-212.5 3993.67,-242.5 4151.67,-242.5 4151.67,-212.5 3993.67,-212.5"/>
<text text-anchor="start" x="4001.67" y="-230.5" font-family="Helvetica,sans-Serif" font-size="10.00">libs/JSystem/J3DGraphAnimator</text>
<text text-anchor="middle" x="4072.67" y="-219.5" font-family="Helvetica,sans-Serif" font-size="10.00">/J3DModelData.cpp</text>
</a>
</g>
</g>
<!-- Node1&#45;&gt;Node98 -->
<g id="edge57" class="edge">
<title>Node1&#45;&gt;Node98</title>
<path fill="none" stroke="midnightblue" d="M3875.48,-277.05C3918.64,-266.43 3974.21,-252.74 4015.36,-242.61"/>
<polygon fill="midnightblue" stroke="midnightblue" points="3874.5,-273.69 3865.63,-279.48 3876.17,-280.48 3874.5,-273.69"/>
</g>
<!-- Node99 -->
<g id="node50" class="node">
<title>Node99</title>
<g id="a_node50"><a xlink:href="m__Do__ext_8cpp.html" target="_top" xlink:title=" ">
<polygon fill="white" stroke="black" points="4170.17,-218 4170.17,-237 4293.17,-237 4293.17,-218 4170.17,-218"/>
<text text-anchor="middle" x="4231.67" y="-225" font-family="Helvetica,sans-Serif" font-size="10.00">src/m_Do/m_Do_ext.cpp</text>
</a>
</g>
</g>
<!-- Node1&#45;&gt;Node99 -->
<g id="edge59" class="edge">
<title>Node1&#45;&gt;Node99</title>
<path fill="none" stroke="midnightblue" d="M3888.27,-283.44C3959.75,-274.09 4067.47,-259.19 4160.67,-243 4170.83,-241.23 4181.77,-239.11 4191.94,-237.04"/>
<polygon fill="midnightblue" stroke="midnightblue" points="3887.45,-280.02 3877.99,-284.78 3888.36,-286.96 3887.45,-280.02"/>
</g>
<!-- Node3 -->
<g id="node3" class="node">
<title>Node3</title>
<g id="a_node3"><a xlink:href="d__com__inf__game_8h.html" target="_top" xlink:title=" ">
<polygon fill="white" stroke="red" points="2304.67,-145.5 2304.67,-175.5 2414.67,-175.5 2414.67,-145.5 2304.67,-145.5"/>
<text text-anchor="start" x="2312.67" y="-163.5" font-family="Helvetica,sans-Serif" font-size="10.00">include/d/com/d_com</text>
<text text-anchor="middle" x="2359.67" y="-152.5" font-family="Helvetica,sans-Serif" font-size="10.00">_inf_game.h</text>
</a>
</g>
</g>
<!-- Node2&#45;&gt;Node3 -->
<g id="edge2" class="edge">
<title>Node2&#45;&gt;Node3</title>
<path fill="none" stroke="midnightblue" d="M2359.67,-207.41C2359.67,-197.22 2359.67,-184.9 2359.67,-175.59"/>
<polygon fill="midnightblue" stroke="midnightblue" points="2356.17,-207.73 2359.67,-217.73 2363.17,-207.73 2356.17,-207.73"/>
</g>
<!-- Node13 -->
<g id="node7" class="node">
<title>Node13</title>
<g id="a_node7"><a xlink:href="d__a__alink_8cpp.html" target="_top" xlink:title=" ">
<polygon fill="white" stroke="black" points="752.17,-6 752.17,-25 861.17,-25 861.17,-6 752.17,-6"/>
<text text-anchor="middle" x="806.67" y="-13" font-family="Helvetica,sans-Serif" font-size="10.00">src/d/a/d_a_alink.cpp</text>
</a>
</g>
</g>
<!-- Node2&#45;&gt;Node13 -->
<g id="edge54" class="edge">
<title>Node2&#45;&gt;Node13</title>
<path fill="none" stroke="midnightblue" d="M2291.41,-225.7C1914.03,-220.93 97.14,-193.61 16.67,-109 3.8,-95.47 3.9,-80.61 16.67,-67 29.27,-53.56 575.38,-27.19 752.11,-18.99"/>
<polygon fill="midnightblue" stroke="midnightblue" points="2291.59,-229.2 2301.63,-225.82 2291.67,-222.2 2291.59,-229.2"/>
</g>
<!-- Node4 -->
<g id="node4" class="node">
<title>Node4</title>
<g id="a_node4"><a xlink:href="d__a__npc_8h.html" target="_top" xlink:title=" ">
<polygon fill="white" stroke="red" points="4222.17,-78.5 4222.17,-97.5 4333.17,-97.5 4333.17,-78.5 4222.17,-78.5"/>
<text text-anchor="middle" x="4277.67" y="-85.5" font-family="Helvetica,sans-Serif" font-size="10.00">include/d/a/d_a_npc.h</text>
</a>
</g>
</g>
<!-- Node3&#45;&gt;Node4 -->
<g id="edge3" class="edge">
<title>Node3&#45;&gt;Node4</title>
<path fill="none" stroke="midnightblue" d="M2424.93,-158.77C2732.94,-155.18 4033.69,-138.41 4212.67,-109 4227.12,-106.63 4242.82,-101.86 4255.17,-97.58"/>
<polygon fill="midnightblue" stroke="midnightblue" points="2424.78,-155.27 2414.83,-158.89 2424.87,-162.27 2424.78,-155.27"/>
</g>
<!-- Node10 -->
<g id="node5" class="node">
<title>Node10</title>
<g id="a_node5"><a xlink:href="d__cc__uty_8h.html" target="_top" xlink:title=" ">
<polygon fill="white" stroke="red" points="4351.17,-78.5 4351.17,-97.5 4470.17,-97.5 4470.17,-78.5 4351.17,-78.5"/>
<text text-anchor="middle" x="4410.67" y="-85.5" font-family="Helvetica,sans-Serif" font-size="10.00">include/d/cc/d_cc_uty.h</text>
</a>
</g>
</g>
<!-- Node3&#45;&gt;Node10 -->
<g id="edge4" class="edge">
<title>Node3&#45;&gt;Node10</title>
<path fill="none" stroke="midnightblue" d="M2424.75,-158.85C2745.46,-155.51 4149.99,-139.26 4342.67,-109 4357.74,-106.63 4374.17,-101.87 4387.1,-97.58"/>
<polygon fill="midnightblue" stroke="midnightblue" points="2424.65,-155.35 2414.69,-158.95 2424.73,-162.35 2424.65,-155.35"/>
</g>
<!-- Node12 -->
<g id="node6" class="node">
<title>Node12</title>
<g id="a_node6"><a xlink:href="d__item_8h.html" target="_top" xlink:title=" ">
<polygon fill="white" stroke="red" points="766.17,-78.5 766.17,-97.5 861.17,-97.5 861.17,-78.5 766.17,-78.5"/>
<text text-anchor="middle" x="813.67" y="-85.5" font-family="Helvetica,sans-Serif" font-size="10.00">include/d/d_item.h</text>
</a>
</g>
</g>
<!-- Node3&#45;&gt;Node12 -->
<g id="edge5" class="edge">
<title>Node3&#45;&gt;Node12</title>
<path fill="none" stroke="midnightblue" d="M2294.25,-159.68C2044.91,-160.01 1154.18,-157.68 875.67,-109 861.85,-106.59 846.88,-101.82 835.1,-97.54"/>
<polygon fill="midnightblue" stroke="midnightblue" points="2294.6,-163.18 2304.6,-159.67 2294.59,-156.18 2294.6,-163.18"/>
</g>
<!-- Node3&#45;&gt;Node13 -->
<g id="edge28" class="edge">
<title>Node3&#45;&gt;Node13</title>
<path fill="none" stroke="midnightblue" d="M2294.28,-159.34C2032.62,-158.41 1068.93,-152.07 939.67,-109 912.45,-99.93 844.16,-46.58 817.53,-25.28"/>
<polygon fill="midnightblue" stroke="midnightblue" points="2294.37,-162.84 2304.39,-159.38 2294.4,-155.84 2294.37,-162.84"/>
</g>
<!-- Node14 -->
<g id="node8" class="node">
<title>Node14</title>
<g id="a_node8"><a xlink:href="d__a__obj__item_8cpp.html" target="_top" xlink:title=" ">
<polygon fill="white" stroke="black" points="275.17,-6 275.17,-25 400.17,-25 400.17,-6 275.17,-6"/>
<text text-anchor="middle" x="337.67" y="-13" font-family="Helvetica,sans-Serif" font-size="10.00">src/d/a/d_a_obj_item.cpp</text>
</a>
</g>
</g>
<!-- Node3&#45;&gt;Node14 -->
<g id="edge30" class="edge">
<title>Node3&#45;&gt;Node14</title>
<path fill="none" stroke="midnightblue" d="M2294.41,-159.34C1919.77,-158.27 57.62,-150.84 16.67,-109 -61.72,-28.9 161.16,-17.02 275.13,-16.01"/>
<polygon fill="midnightblue" stroke="midnightblue" points="2294.54,-162.84 2304.55,-159.37 2294.55,-155.84 2294.54,-162.84"/>
</g>
<!-- Node15 -->
<g id="node9" class="node">
<title>Node15</title>
<g id="a_node9"><a xlink:href="d__com__inf__game_8cpp.html" target="_top" xlink:title=" ">
<polygon fill="white" stroke="black" points="879.67,-0.5 879.67,-30.5 987.67,-30.5 987.67,-0.5 879.67,-0.5"/>
<text text-anchor="start" x="887.67" y="-18.5" font-family="Helvetica,sans-Serif" font-size="10.00">src/d/com/d_com_inf</text>
<text text-anchor="middle" x="933.67" y="-7.5" font-family="Helvetica,sans-Serif" font-size="10.00">_game.cpp</text>
</a>
</g>
</g>
<!-- Node3&#45;&gt;Node15 -->
<g id="edge36" class="edge">
<title>Node3&#45;&gt;Node15</title>
<path fill="none" stroke="midnightblue" d="M2293.97,-159.08C2025.89,-157.1 1026.45,-147.18 971.67,-109 945.75,-90.93 937.48,-51.8 934.86,-30.69"/>
<polygon fill="midnightblue" stroke="midnightblue" points="2294.29,-162.58 2304.32,-159.15 2294.34,-155.58 2294.29,-162.58"/>
</g>
<!-- Node18 -->
<g id="node10" class="node">
<title>Node18</title>
<g id="a_node10"><a xlink:href="d__kantera__icon__meter_8h.html" target="_top" xlink:title=" ">
<polygon fill="white" stroke="red" points="26.17,-73 26.17,-103 127.17,-103 127.17,-73 26.17,-73"/>
<text text-anchor="start" x="34.17" y="-91" font-family="Helvetica,sans-Serif" font-size="10.00">include/d/d_kantera</text>
<text text-anchor="middle" x="76.67" y="-80" font-family="Helvetica,sans-Serif" font-size="10.00">_icon_meter.h</text>
</a>
</g>
</g>
<!-- Node3&#45;&gt;Node18 -->
<g id="edge9" class="edge">
<title>Node3&#45;&gt;Node18</title>
<path fill="none" stroke="midnightblue" d="M2294.61,-159.2C1950.76,-157.45 352.7,-147.32 135.67,-109 128,-107.65 119.98,-105.47 112.41,-103.05"/>
<polygon fill="midnightblue" stroke="midnightblue" points="2294.63,-162.7 2304.65,-159.25 2294.67,-155.7 2294.63,-162.7"/>
</g>
<!-- Node21 -->
<g id="node11" class="node">
<title>Node21</title>
<g id="a_node11"><a xlink:href="d__model_8h.html" target="_top" xlink:title=" ">
<polygon fill="white" stroke="red" points="145.17,-78.5 145.17,-97.5 248.17,-97.5 248.17,-78.5 145.17,-78.5"/>
<text text-anchor="middle" x="196.67" y="-85.5" font-family="Helvetica,sans-Serif" font-size="10.00">include/d/d_model.h</text>
</a>
</g>
</g>
<!-- Node3&#45;&gt;Node21 -->
<g id="edge10" class="edge">
<title>Node3&#45;&gt;Node21</title>
<path fill="none" stroke="midnightblue" d="M2294.2,-159.09C1960.99,-156.82 461.15,-144.71 256.67,-109 243.26,-106.66 228.76,-101.89 217.38,-97.6"/>
<polygon fill="midnightblue" stroke="midnightblue" points="2294.62,-162.59 2304.64,-159.16 2294.66,-155.59 2294.62,-162.59"/>
</g>
<!-- Node23 -->
<g id="node12" class="node">
<title>Node23</title>
<g id="a_node12"><a xlink:href="d__name_8h.html" target="_top" xlink:title=" ">
<polygon fill="white" stroke="red" points="266.17,-78.5 266.17,-97.5 367.17,-97.5 367.17,-78.5 266.17,-78.5"/>
<text text-anchor="middle" x="316.67" y="-85.5" font-family="Helvetica,sans-Serif" font-size="10.00">include/d/d_name.h</text>
</a>
</g>
</g>
<!-- Node3&#45;&gt;Node23 -->
<g id="edge11" class="edge">
<title>Node3&#45;&gt;Node23</title>
<path fill="none" stroke="midnightblue" d="M2294.56,-158.99C1973.75,-156.3 568.78,-142.69 376.67,-109 363.26,-106.65 348.76,-101.88 337.38,-97.59"/>
<polygon fill="midnightblue" stroke="midnightblue" points="2294.6,-162.49 2304.63,-159.07 2294.66,-155.49 2294.6,-162.49"/>
</g>
<!-- Node25 -->
<g id="node13" class="node">
<title>Node25</title>
<g id="a_node13"><a xlink:href="d__file__sel__info_8h.html" target="_top" xlink:title=" ">
<polygon fill="white" stroke="red" points="385.67,-73 385.67,-103 481.67,-103 481.67,-73 385.67,-73"/>
<text text-anchor="start" x="393.67" y="-91" font-family="Helvetica,sans-Serif" font-size="10.00">include/d/file/d_file</text>
<text text-anchor="middle" x="433.67" y="-80" font-family="Helvetica,sans-Serif" font-size="10.00">_sel_info.h</text>
</a>
</g>
</g>
<!-- Node3&#45;&gt;Node25 -->
<g id="edge12" class="edge">
<title>Node3&#45;&gt;Node25</title>
<path fill="none" stroke="midnightblue" d="M2294.33,-158.93C1984.47,-156.09 670.68,-142.17 490.67,-109 483.24,-107.63 475.49,-105.45 468.17,-103.02"/>
<polygon fill="midnightblue" stroke="midnightblue" points="2294.46,-162.44 2304.49,-159.03 2294.52,-155.44 2294.46,-162.44"/>
</g>
<!-- Node28 -->
<g id="node14" class="node">
<title>Node28</title>
<g id="a_node14"><a xlink:href="d__file__sel__warning_8h.html" target="_top" xlink:title=" ">
<polygon fill="white" stroke="red" points="499.67,-73 499.67,-103 595.67,-103 595.67,-73 499.67,-73"/>
<text text-anchor="start" x="507.67" y="-91" font-family="Helvetica,sans-Serif" font-size="10.00">include/d/file/d_file</text>
<text text-anchor="middle" x="547.67" y="-80" font-family="Helvetica,sans-Serif" font-size="10.00">_sel_warning.h</text>
</a>
</g>
</g>
<!-- Node3&#45;&gt;Node28 -->
<g id="edge13" class="edge">
<title>Node3&#45;&gt;Node28</title>
<path fill="none" stroke="midnightblue" d="M2293.99,-158.81C1995.34,-155.5 772.86,-140.15 604.67,-109 597.24,-107.63 589.49,-105.44 582.17,-103.01"/>
<polygon fill="midnightblue" stroke="midnightblue" points="2294.18,-162.31 2304.22,-158.92 2294.26,-155.31 2294.18,-162.31"/>
</g>
<!-- Node30 -->
<g id="node15" class="node">
<title>Node30</title>
<g id="a_node15"><a xlink:href="d__meter2_8h.html" target="_top" xlink:title=" ">
<polygon fill="white" stroke="red" points="613.67,-78.5 613.67,-97.5 747.67,-97.5 747.67,-78.5 613.67,-78.5"/>
<text text-anchor="middle" x="680.67" y="-85.5" font-family="Helvetica,sans-Serif" font-size="10.00">include/d/meter/d_meter2.h</text>
</a>
</g>
</g>
<!-- Node3&#45;&gt;Node30 -->
<g id="edge14" class="edge">
<title>Node3&#45;&gt;Node30</title>
<path fill="none" stroke="midnightblue" d="M2294.34,-159.41C2032.81,-158.73 1060.86,-153.24 756.67,-109 739.93,-106.57 721.57,-101.8 707.1,-97.53"/>
<polygon fill="midnightblue" stroke="midnightblue" points="2294.43,-162.91 2304.44,-159.43 2294.44,-155.91 2294.43,-162.91"/>
</g>
<!-- Node37 -->
<g id="node16" class="node">
<title>Node37</title>
<g id="a_node16"><a xlink:href="d__msg__object_8h.html" target="_top" xlink:title=" ">
<polygon fill="white" stroke="red" points="4488.67,-73 4488.67,-103 4598.67,-103 4598.67,-73 4488.67,-73"/>
<text text-anchor="start" x="4496.67" y="-91" font-family="Helvetica,sans-Serif" font-size="10.00">include/d/msg/d_msg</text>
<text text-anchor="middle" x="4543.67" y="-80" font-family="Helvetica,sans-Serif" font-size="10.00">_object.h</text>
</a>
</g>
</g>
<!-- Node3&#45;&gt;Node37 -->
<g id="edge15" class="edge">
<title>Node3&#45;&gt;Node37</title>
<path fill="none" stroke="midnightblue" d="M2424.88,-159.03C2759.19,-156.47 4273.05,-143.05 4479.67,-109 4487.94,-107.64 4496.62,-105.46 4504.83,-103.03"/>
<polygon fill="midnightblue" stroke="midnightblue" points="2424.85,-155.53 2414.88,-159.1 2424.9,-162.53 2424.85,-155.53"/>
</g>
<!-- Node42 -->
<g id="node17" class="node">
<title>Node42</title>
<g id="a_node17"><a xlink:href="d__demo_8cpp.html" target="_top" xlink:title=" ">
<polygon fill="white" stroke="black" points="2680.67,-6 2680.67,-25 2774.67,-25 2774.67,-6 2680.67,-6"/>
<text text-anchor="middle" x="2727.67" y="-13" font-family="Helvetica,sans-Serif" font-size="10.00">src/d/d_demo.cpp</text>
</a>
</g>
</g>
<!-- Node3&#45;&gt;Node42 -->
<g id="edge38" class="edge">
<title>Node3&#45;&gt;Node42</title>
<path fill="none" stroke="midnightblue" d="M2294.13,-159.59C2026.77,-159.64 1030.58,-156.63 984.67,-109 971.71,-95.56 971.66,-80.39 984.67,-67 1015.07,-35.7 2405.29,-19.81 2680.59,-16.97"/>
<polygon fill="midnightblue" stroke="midnightblue" points="2294.45,-163.09 2304.45,-159.59 2294.45,-156.09 2294.45,-163.09"/>
</g>
<!-- Node43 -->
<g id="node18" class="node">
<title>Node43</title>
<g id="a_node18"><a xlink:href="d__event_8cpp.html" target="_top" xlink:title=" ">
<polygon fill="white" stroke="black" points="4424.17,-6 4424.17,-25 4545.17,-25 4545.17,-6 4424.17,-6"/>
<text text-anchor="middle" x="4484.67" y="-13" font-family="Helvetica,sans-Serif" font-size="10.00">src/d/event/d_event.cpp</text>
</a>
</g>
</g>
<!-- Node3&#45;&gt;Node43 -->
<g id="edge46" class="edge">
<title>Node3&#45;&gt;Node43</title>
<path fill="none" stroke="midnightblue" d="M2424.91,-158.65C2792.39,-153.79 4588.07,-129.04 4607.67,-109 4620.72,-95.65 4618.06,-82.5 4607.67,-67 4597.03,-51.13 4548.74,-34.68 4515.93,-25.02"/>
<polygon fill="midnightblue" stroke="midnightblue" points="2424.67,-155.15 2414.72,-158.79 2424.76,-162.15 2424.67,-155.15"/>
</g>
<!-- Node44 -->
<g id="node19" class="node">
<title>Node44</title>
<g id="a_node19"><a xlink:href="d__event__data_8cpp.html" target="_top" xlink:title=" ">
<polygon fill="white" stroke="black" points="4563.17,-0.5 4563.17,-30.5 4666.17,-30.5 4666.17,-0.5 4563.17,-0.5"/>
<text text-anchor="start" x="4571.17" y="-18.5" font-family="Helvetica,sans-Serif" font-size="10.00">src/d/event/d_event</text>
<text text-anchor="middle" x="4614.67" y="-7.5" font-family="Helvetica,sans-Serif" font-size="10.00">_data.cpp</text>
</a>
</g>
</g>
<!-- Node3&#45;&gt;Node44 -->
<g id="edge47" class="edge">
<title>Node3&#45;&gt;Node44</title>
<path fill="none" stroke="midnightblue" d="M2425.14,-158.66C2794.88,-153.84 4605.91,-129.21 4625.67,-109 4646.02,-88.19 4632.32,-50.91 4622.38,-30.61"/>
<polygon fill="midnightblue" stroke="midnightblue" points="2424.83,-155.16 2414.88,-158.79 2424.92,-162.16 2424.83,-155.16"/>
</g>
<!-- Node45 -->
<g id="node20" class="node">
<title>Node45</title>
<g id="a_node20"><a xlink:href="d__kankyo_8cpp.html" target="_top" xlink:title=" ">
<polygon fill="white" stroke="black" points="4684.67,-6 4684.67,-25 4818.67,-25 4818.67,-6 4684.67,-6"/>
<text text-anchor="middle" x="4751.67" y="-13" font-family="Helvetica,sans-Serif" font-size="10.00">src/d/kankyo/d_kankyo.cpp</text>
</a>
</g>
</g>
<!-- Node3&#45;&gt;Node45 -->
<g id="edge50" class="edge">
<title>Node3&#45;&gt;Node45</title>
<path fill="none" stroke="midnightblue" d="M2424.94,-158.66C2792.7,-153.88 4591.49,-129.47 4644.67,-109 4690.73,-91.27 4730.42,-44.36 4745.35,-25.02"/>
<polygon fill="midnightblue" stroke="midnightblue" points="2424.69,-155.17 2414.74,-158.8 2424.78,-162.17 2424.69,-155.17"/>
</g>
<!-- Node51 -->
<g id="node21" class="node">
<title>Node51</title>
<g id="a_node21"><a xlink:href="d__s__logo_8h.html" target="_top" xlink:title=" ">
<polygon fill="white" stroke="red" points="994.17,-78.5 994.17,-97.5 1107.17,-97.5 1107.17,-78.5 994.17,-78.5"/>
<text text-anchor="middle" x="1050.67" y="-85.5" font-family="Helvetica,sans-Serif" font-size="10.00">include/d/s/d_s_logo.h</text>
</a>
</g>
</g>
<!-- Node3&#45;&gt;Node51 -->
<g id="edge21" class="edge">
<title>Node3&#45;&gt;Node51</title>
<path fill="none" stroke="midnightblue" d="M2294.36,-159.07C2072.01,-157.25 1345.58,-148.36 1115.67,-109 1101.35,-106.55 1085.79,-101.84 1073.48,-97.6"/>
<polygon fill="midnightblue" stroke="midnightblue" points="2294.53,-162.57 2304.56,-159.15 2294.59,-155.57 2294.53,-162.57"/>
</g>
<!-- Node53 -->
<g id="node22" class="node">
<title>Node53</title>
<g id="a_node22"><a xlink:href="d__s__play_8h.html" target="_top" xlink:title=" ">
<polygon fill="white" stroke="red" points="1125.17,-78.5 1125.17,-97.5 1238.17,-97.5 1238.17,-78.5 1125.17,-78.5"/>
<text text-anchor="middle" x="1181.67" y="-85.5" font-family="Helvetica,sans-Serif" font-size="10.00">include/d/s/d_s_play.h</text>
</a>
</g>
</g>
<!-- Node3&#45;&gt;Node53 -->
<g id="edge22" class="edge">
<title>Node3&#45;&gt;Node53</title>
<path fill="none" stroke="midnightblue" d="M2294.35,-158.7C2087.73,-155.84 1450.01,-144.31 1246.67,-109 1232.36,-106.52 1216.8,-101.8 1204.49,-97.57"/>
<polygon fill="midnightblue" stroke="midnightblue" points="2294.4,-162.2 2304.44,-158.84 2294.49,-155.2 2294.4,-162.2"/>
</g>
<!-- Node57 -->
<g id="node23" class="node">
<title>Node57</title>
<g id="a_node23"><a xlink:href="d__msg__scrn__base_8h.html" target="_top" xlink:title=" ">
<polygon fill="white" stroke="red" points="1256.17,-73 1256.17,-103 1355.17,-103 1355.17,-73 1256.17,-73"/>
<text text-anchor="start" x="1264.17" y="-91" font-family="Helvetica,sans-Serif" font-size="10.00">include/msg/scrn/d</text>
<text text-anchor="middle" x="1305.67" y="-80" font-family="Helvetica,sans-Serif" font-size="10.00">_msg_scrn_base.h</text>
</a>
</g>
</g>
<!-- Node3&#45;&gt;Node57 -->
<g id="edge23" class="edge">
<title>Node3&#45;&gt;Node57</title>
<path fill="none" stroke="midnightblue" d="M2294.43,-158.58C2102.64,-155.51 1542.89,-143.72 1363.67,-109 1356.35,-107.58 1348.7,-105.44 1341.44,-103.09"/>
<polygon fill="midnightblue" stroke="midnightblue" points="2294.59,-162.08 2304.64,-158.74 2294.7,-155.09 2294.59,-162.08"/>
</g>
<!-- Node61 -->
<g id="node24" class="node">
<title>Node61</title>
<g id="a_node24"><a xlink:href="d__a__b__zant_8h.html" target="_top" xlink:title=" ">
<polygon fill="white" stroke="black" points="1373.17,-73 1373.17,-103 1494.17,-103 1494.17,-73 1373.17,-73"/>
<text text-anchor="start" x="1381.17" y="-91" font-family="Helvetica,sans-Serif" font-size="10.00">include/rel/d/a/b/d</text>
<text text-anchor="middle" x="1433.67" y="-80" font-family="Helvetica,sans-Serif" font-size="10.00">_a_b_zant/d_a_b_zant.h</text>
</a>
</g>
</g>
<!-- Node3&#45;&gt;Node61 -->
<g id="edge24" class="edge">
<title>Node3&#45;&gt;Node61</title>
<path fill="none" stroke="midnightblue" d="M2294.34,-157.5C2121.58,-151.92 1655.58,-134.86 1503.67,-109 1495.07,-107.54 1486.02,-105.41 1477.39,-103.08"/>
<polygon fill="midnightblue" stroke="midnightblue" points="2294.45,-161.01 2304.55,-157.83 2294.67,-154.01 2294.45,-161.01"/>
</g>
<!-- Node62 -->
<g id="node25" class="node">
<title>Node62</title>
<g id="a_node25"><a xlink:href="d__a__spinner_8h.html" target="_top" xlink:title=" ">
<polygon fill="white" stroke="black" points="1512.67,-73 1512.67,-103 1628.67,-103 1628.67,-73 1512.67,-73"/>
<text text-anchor="start" x="1520.67" y="-91" font-family="Helvetica,sans-Serif" font-size="10.00">include/rel/d/a/d_a</text>
<text text-anchor="middle" x="1570.67" y="-80" font-family="Helvetica,sans-Serif" font-size="10.00">_spinner/d_a_spinner.h</text>
</a>
</g>
</g>
<!-- Node3&#45;&gt;Node62 -->
<g id="edge25" class="edge">
<title>Node3&#45;&gt;Node62</title>
<path fill="none" stroke="midnightblue" d="M2293.99,-159.72C2166.41,-159.09 1876.65,-152.48 1637.67,-109 1629.43,-107.5 1620.76,-105.36 1612.5,-103.02"/>
<polygon fill="midnightblue" stroke="midnightblue" points="2294.34,-163.22 2304.36,-159.76 2294.37,-156.22 2294.34,-163.22"/>
</g>
<!-- Node63 -->
<g id="node26" class="node">
<title>Node63</title>
<g id="a_node26"><a xlink:href="d__a__tag__telop_8h.html" target="_top" xlink:title=" ">
<polygon fill="white" stroke="black" points="1646.67,-67.5 1646.67,-108.5 1764.67,-108.5 1764.67,-67.5 1646.67,-67.5"/>
<text text-anchor="start" x="1654.67" y="-96.5" font-family="Helvetica,sans-Serif" font-size="10.00">include/rel/d/a/tag</text>
<text text-anchor="start" x="1654.67" y="-85.5" font-family="Helvetica,sans-Serif" font-size="10.00">/d_a_tag_telop/d_a_tag</text>
<text text-anchor="middle" x="1705.67" y="-74.5" font-family="Helvetica,sans-Serif" font-size="10.00">_telop.h</text>
</a>
</g>
</g>
<!-- Node3&#45;&gt;Node63 -->
<g id="edge26" class="edge">
<title>Node3&#45;&gt;Node63</title>
<path fill="none" stroke="midnightblue" d="M2294.48,-158.13C2185.68,-154.9 1960.57,-144.17 1773.67,-109 1770.77,-108.45 1767.81,-107.83 1764.84,-107.16"/>
<polygon fill="midnightblue" stroke="midnightblue" points="2294.55,-161.63 2304.64,-158.42 2294.75,-154.63 2294.55,-161.63"/>
</g>
<!-- Node64 -->
<g id="node27" class="node">
<title>Node64</title>
<g id="a_node27"><a xlink:href="c__dylink_8cpp.html" target="_top" xlink:title=" ">
<polygon fill="white" stroke="black" points="1783.17,-78.5 1783.17,-97.5 1878.17,-97.5 1878.17,-78.5 1783.17,-78.5"/>
<text text-anchor="middle" x="1830.67" y="-85.5" font-family="Helvetica,sans-Serif" font-size="10.00">src/c/c_dylink.cpp</text>
</a>
</g>
</g>
<!-- Node3&#45;&gt;Node64 -->
<g id="edge27" class="edge">
<title>Node3&#45;&gt;Node64</title>
<path fill="none" stroke="midnightblue" d="M2294.23,-157.26C2202.39,-153.05 2030.48,-141.24 1887.67,-109 1875.39,-106.23 1862.1,-101.66 1851.44,-97.59"/>
<polygon fill="midnightblue" stroke="midnightblue" points="2294.34,-160.77 2304.49,-157.72 2294.65,-153.78 2294.34,-160.77"/>
</g>
<!-- Node65 -->
<g id="node28" class="node">
<title>Node65</title>
<g id="a_node28"><a xlink:href="d__a__itembase_8cpp.html" target="_top" xlink:title=" ">
<polygon fill="white" stroke="black" points="1896.67,-78.5 1896.67,-97.5 2024.67,-97.5 2024.67,-78.5 1896.67,-78.5"/>
<text text-anchor="middle" x="1960.67" y="-85.5" font-family="Helvetica,sans-Serif" font-size="10.00">src/d/a/d_a_itembase.cpp</text>
</a>
</g>
</g>
<!-- Node3&#45;&gt;Node65 -->
<g id="edge29" class="edge">
<title>Node3&#45;&gt;Node65</title>
<path fill="none" stroke="midnightblue" d="M2294.26,-151.59C2228.15,-143.08 2123.25,-128.14 2033.67,-109 2018.76,-105.81 2002.38,-101.41 1988.91,-97.54"/>
<polygon fill="midnightblue" stroke="midnightblue" points="2294.16,-155.11 2304.52,-152.9 2295.05,-148.16 2294.16,-155.11"/>
</g>
<!-- Node66 -->
<g id="node29" class="node">
<title>Node66</title>
<g id="a_node29"><a xlink:href="d__a__player_8cpp.html" target="_top" xlink:title=" ">
<polygon fill="white" stroke="black" points="2042.67,-78.5 2042.67,-97.5 2156.67,-97.5 2156.67,-78.5 2042.67,-78.5"/>
<text text-anchor="middle" x="2099.67" y="-85.5" font-family="Helvetica,sans-Serif" font-size="10.00">src/d/a/d_a_player.cpp</text>
</a>
</g>
</g>
<!-- Node3&#45;&gt;Node66 -->
<g id="edge31" class="edge">
<title>Node3&#45;&gt;Node66</title>
<path fill="none" stroke="midnightblue" d="M2294.47,-143.21C2256.74,-133.62 2208.41,-121.04 2165.67,-109 2152.88,-105.4 2138.77,-101.16 2126.89,-97.51"/>
<polygon fill="midnightblue" stroke="midnightblue" points="2293.77,-146.65 2304.32,-145.71 2295.49,-139.86 2293.77,-146.65"/>
</g>
<!-- Node67 -->
<g id="node30" class="node">
<title>Node67</title>
<g id="a_node30"><a xlink:href="d__bg__s_8cpp.html" target="_top" xlink:title=" ">
<polygon fill="white" stroke="black" points="2174.67,-78.5 2174.67,-97.5 2278.67,-97.5 2278.67,-78.5 2174.67,-78.5"/>
<text text-anchor="middle" x="2226.67" y="-85.5" font-family="Helvetica,sans-Serif" font-size="10.00">src/d/bg/d_bg_s.cpp</text>
</a>
</g>
</g>
<!-- Node3&#45;&gt;Node67 -->
<g id="edge32" class="edge">
<title>Node3&#45;&gt;Node67</title>
<path fill="none" stroke="midnightblue" d="M2324.11,-140.65C2297.67,-126.63 2262.82,-108.16 2242.77,-97.53"/>
<polygon fill="midnightblue" stroke="midnightblue" points="2322.6,-143.81 2333.07,-145.4 2325.88,-137.63 2322.6,-143.81"/>
</g>
<!-- Node68 -->
<g id="node31" class="node">
<title>Node68</title>
<g id="a_node31"><a xlink:href="d__bg__s__movebg__actor_8cpp.html" target="_top" xlink:title=" ">
<polygon fill="white" stroke="black" points="2296.67,-73 2296.67,-103 2422.67,-103 2422.67,-73 2296.67,-73"/>
<text text-anchor="start" x="2304.67" y="-91" font-family="Helvetica,sans-Serif" font-size="10.00">src/d/bg/d_bg_s_movebg</text>
<text text-anchor="middle" x="2359.67" y="-80" font-family="Helvetica,sans-Serif" font-size="10.00">_actor.cpp</text>
</a>
</g>
</g>
<!-- Node3&#45;&gt;Node68 -->
<g id="edge33" class="edge">
<title>Node3&#45;&gt;Node68</title>
<path fill="none" stroke="midnightblue" d="M2359.67,-135.23C2359.67,-124.57 2359.67,-112.41 2359.67,-103.25"/>
<polygon fill="midnightblue" stroke="midnightblue" points="2356.17,-135.23 2359.67,-145.23 2363.17,-135.23 2356.17,-135.23"/>
</g>
<!-- Node69 -->
<g id="node32" class="node">
<title>Node69</title>
<g id="a_node32"><a xlink:href="d__bg__w_8cpp.html" target="_top" xlink:title=" ">
<polygon fill="white" stroke="black" points="2441.17,-78.5 2441.17,-97.5 2548.17,-97.5 2548.17,-78.5 2441.17,-78.5"/>
<text text-anchor="middle" x="2494.67" y="-85.5" font-family="Helvetica,sans-Serif" font-size="10.00">src/d/bg/d_bg_w.cpp</text>
</a>
</g>
</g>
<!-- Node3&#45;&gt;Node69 -->
<g id="edge34" class="edge">
<title>Node3&#45;&gt;Node69</title>
<path fill="none" stroke="midnightblue" d="M2395.76,-140.65C2422.61,-126.63 2457.97,-108.16 2478.33,-97.53"/>
<polygon fill="midnightblue" stroke="midnightblue" points="2393.91,-137.67 2386.66,-145.4 2397.15,-143.88 2393.91,-137.67"/>
</g>
<!-- Node70 -->
<g id="node33" class="node">
<title>Node70</title>
<g id="a_node33"><a xlink:href="d__cc__s_8cpp.html" target="_top" xlink:title=" ">
<polygon fill="white" stroke="black" points="2566.67,-78.5 2566.67,-97.5 2670.67,-97.5 2670.67,-78.5 2566.67,-78.5"/>
<text text-anchor="middle" x="2618.67" y="-85.5" font-family="Helvetica,sans-Serif" font-size="10.00">src/d/cc/d_cc_s.cpp</text>
</a>
</g>
</g>
<!-- Node3&#45;&gt;Node70 -->
<g id="edge35" class="edge">
<title>Node3&#45;&gt;Node70</title>
<path fill="none" stroke="midnightblue" d="M2424.73,-143.88C2463.25,-134.37 2512.92,-121.65 2556.67,-109 2568.84,-105.48 2582.23,-101.21 2593.44,-97.53"/>
<polygon fill="midnightblue" stroke="midnightblue" points="2423.56,-140.57 2414.69,-146.35 2425.23,-147.36 2423.56,-140.57"/>
</g>
<!-- Node71 -->
<g id="node34" class="node">
<title>Node71</title>
<g id="a_node34"><a xlink:href="d__com__static_8cpp.html" target="_top" xlink:title=" ">
<polygon fill="white" stroke="black" points="2688.67,-78.5 2688.67,-97.5 2828.67,-97.5 2828.67,-78.5 2688.67,-78.5"/>
<text text-anchor="middle" x="2758.67" y="-85.5" font-family="Helvetica,sans-Serif" font-size="10.00">src/d/com/d_com_static.cpp</text>
</a>
</g>
</g>
<!-- Node3&#45;&gt;Node71 -->
<g id="edge37" class="edge">
<title>Node3&#45;&gt;Node71</title>
<path fill="none" stroke="midnightblue" d="M2424.96,-150.98C2489.85,-142.09 2592.07,-126.96 2679.67,-109 2695.61,-105.73 2713.17,-101.36 2727.68,-97.54"/>
<polygon fill="midnightblue" stroke="midnightblue" points="2424.31,-147.54 2414.87,-152.35 2425.25,-154.47 2424.31,-147.54"/>
</g>
<!-- Node72 -->
<g id="node35" class="node">
<title>Node72</title>
<g id="a_node35"><a xlink:href="d__eye__hl_8cpp.html" target="_top" xlink:title=" ">
<polygon fill="white" stroke="black" points="2846.67,-78.5 2846.67,-97.5 2944.67,-97.5 2944.67,-78.5 2846.67,-78.5"/>
<text text-anchor="middle" x="2895.67" y="-85.5" font-family="Helvetica,sans-Serif" font-size="10.00">src/d/d_eye_hl.cpp</text>
</a>
</g>
</g>
<!-- Node3&#45;&gt;Node72 -->
<g id="edge39" class="edge">
<title>Node3&#45;&gt;Node72</title>
<path fill="none" stroke="midnightblue" d="M2424.88,-157.29C2517.6,-153.09 2692.41,-141.28 2837.67,-109 2850.15,-106.23 2863.67,-101.66 2874.52,-97.59"/>
<polygon fill="midnightblue" stroke="midnightblue" points="2424.64,-153.8 2414.8,-157.73 2424.94,-160.79 2424.64,-153.8"/>
</g>
<!-- Node73 -->
<g id="node36" class="node">
<title>Node73</title>
<g id="a_node36"><a xlink:href="d__kyeff_8cpp.html" target="_top" xlink:title=" ">
<polygon fill="white" stroke="black" points="2962.67,-78.5 2962.67,-97.5 3052.67,-97.5 3052.67,-78.5 2962.67,-78.5"/>
<text text-anchor="middle" x="3007.67" y="-85.5" font-family="Helvetica,sans-Serif" font-size="10.00">src/d/d_kyeff.cpp</text>
</a>
</g>
</g>
<!-- Node3&#45;&gt;Node73 -->
<g id="edge40" class="edge">
<title>Node3&#45;&gt;Node73</title>
<path fill="none" stroke="midnightblue" d="M2425.18,-159.66C2535.57,-158.67 2765.06,-151.13 2953.67,-109 2965.57,-106.34 2978.39,-101.67 2988.56,-97.52"/>
<polygon fill="midnightblue" stroke="midnightblue" points="2424.85,-156.16 2414.88,-159.74 2424.9,-163.16 2424.85,-156.16"/>
</g>
<!-- Node3&#45;&gt;Node74 -->
<g id="edge41" class="edge">
<title>Node3&#45;&gt;Node74</title>
<path fill="none" stroke="midnightblue" d="M2425.08,-158.61C2793.81,-153.52 4600.6,-127.73 4716.67,-109 4731.24,-106.65 4747.08,-101.83 4759.47,-97.5"/>
<polygon fill="midnightblue" stroke="midnightblue" points="2424.79,-155.11 2414.84,-158.75 2424.89,-162.11 2424.79,-155.11"/>
</g>
<!-- Node75 -->
<g id="node38" class="node">
<title>Node75</title>
<g id="a_node38"><a xlink:href="d__simple__model_8cpp.html" target="_top" xlink:title=" ">
<polygon fill="white" stroke="black" points="3070.67,-78.5 3070.67,-97.5 3200.67,-97.5 3200.67,-78.5 3070.67,-78.5"/>
<text text-anchor="middle" x="3135.67" y="-85.5" font-family="Helvetica,sans-Serif" font-size="10.00">src/d/d_simple_model.cpp</text>
</a>
</g>
</g>
<!-- Node3&#45;&gt;Node75 -->
<g id="edge42" class="edge">
<title>Node3&#45;&gt;Node75</title>
<path fill="none" stroke="midnightblue" d="M2424.85,-158.98C2549.44,-157.06 2829.66,-148.32 3061.67,-109 3077.55,-106.31 3094.95,-101.69 3108.88,-97.57"/>
<polygon fill="midnightblue" stroke="midnightblue" points="2424.66,-155.48 2414.71,-159.12 2424.76,-162.48 2424.66,-155.48"/>
</g>
<!-- Node76 -->
<g id="node39" class="node">
<title>Node76</title>
<g id="a_node39"><a xlink:href="d__stage_8cpp.html" target="_top" xlink:title=" ">
<polygon fill="white" stroke="black" points="3218.67,-78.5 3218.67,-97.5 3312.67,-97.5 3312.67,-78.5 3218.67,-78.5"/>
<text text-anchor="middle" x="3265.67" y="-85.5" font-family="Helvetica,sans-Serif" font-size="10.00">src/d/d_stage.cpp</text>
</a>
</g>
</g>
<!-- Node3&#45;&gt;Node76 -->
<g id="edge43" class="edge">
<title>Node3&#45;&gt;Node76</title>
<path fill="none" stroke="midnightblue" d="M2424.95,-158.01C2596.98,-153.71 3059.82,-139.56 3209.67,-109 3222.11,-106.46 3235.52,-101.75 3246.1,-97.53"/>
<polygon fill="midnightblue" stroke="midnightblue" points="2424.68,-154.52 2414.77,-158.26 2424.86,-161.52 2424.68,-154.52"/>
</g>
<!-- Node77 -->
<g id="node40" class="node">
<title>Node77</title>
<g id="a_node40"><a xlink:href="d__timer_8cpp.html" target="_top" xlink:title=" ">
<polygon fill="white" stroke="black" points="3330.67,-78.5 3330.67,-97.5 3422.67,-97.5 3422.67,-78.5 3330.67,-78.5"/>
<text text-anchor="middle" x="3376.67" y="-85.5" font-family="Helvetica,sans-Serif" font-size="10.00">src/d/d_timer.cpp</text>
</a>
</g>
</g>
<!-- Node3&#45;&gt;Node77 -->
<g id="edge44" class="edge">
<title>Node3&#45;&gt;Node77</title>
<path fill="none" stroke="midnightblue" d="M2424.94,-158.59C2612.33,-155.56 3149.56,-144 3321.67,-109 3333.92,-106.51 3347.09,-101.8 3357.47,-97.57"/>
<polygon fill="midnightblue" stroke="midnightblue" points="2424.64,-155.09 2414.69,-158.75 2424.75,-162.09 2424.64,-155.09"/>
</g>
<!-- Node78 -->
<g id="node41" class="node">
<title>Node78</title>
<g id="a_node41"><a xlink:href="d__tresure_8cpp.html" target="_top" xlink:title=" ">
<polygon fill="white" stroke="black" points="3440.67,-78.5 3440.67,-97.5 3540.67,-97.5 3540.67,-78.5 3440.67,-78.5"/>
<text text-anchor="middle" x="3490.67" y="-85.5" font-family="Helvetica,sans-Serif" font-size="10.00">src/d/d_tresure.cpp</text>
</a>
</g>
</g>
<!-- Node3&#45;&gt;Node78 -->
<g id="edge45" class="edge">
<title>Node3&#45;&gt;Node78</title>
<path fill="none" stroke="midnightblue" d="M2425,-158.81C2626.61,-156.31 3237.11,-145.8 3431.67,-109 3444.74,-106.53 3458.87,-101.81 3470.03,-97.58"/>
<polygon fill="midnightblue" stroke="midnightblue" points="2424.82,-155.31 2414.86,-158.93 2424.9,-162.31 2424.82,-155.31"/>
</g>
<!-- Node79 -->
<g id="node42" class="node">
<title>Node79</title>
<g id="a_node42"><a xlink:href="d__event__lib_8cpp.html" target="_top" xlink:title=" ">
<polygon fill="white" stroke="black" points="3559.17,-73 3559.17,-103 3662.17,-103 3662.17,-73 3559.17,-73"/>
<text text-anchor="start" x="3567.17" y="-91" font-family="Helvetica,sans-Serif" font-size="10.00">src/d/event/d_event</text>
<text text-anchor="middle" x="3610.67" y="-80" font-family="Helvetica,sans-Serif" font-size="10.00">_lib.cpp</text>
</a>
</g>
</g>
<!-- Node3&#45;&gt;Node79 -->
<g id="edge48" class="edge">
<title>Node3&#45;&gt;Node79</title>
<path fill="none" stroke="midnightblue" d="M2425.07,-159.08C2641.18,-157.33 3331.1,-148.69 3549.67,-109 3557.45,-107.59 3565.61,-105.42 3573.34,-103.02"/>
<polygon fill="midnightblue" stroke="midnightblue" points="2424.8,-155.58 2414.83,-159.16 2424.86,-162.58 2424.8,-155.58"/>
</g>
<!-- Node80 -->
<g id="node43" class="node">
<title>Node80</title>
<g id="a_node43"><a xlink:href="d__event__manager_8cpp.html" target="_top" xlink:title=" ">
<polygon fill="white" stroke="black" points="3680.17,-73 3680.17,-103 3783.17,-103 3783.17,-73 3680.17,-73"/>
<text text-anchor="start" x="3688.17" y="-91" font-family="Helvetica,sans-Serif" font-size="10.00">src/d/event/d_event</text>
<text text-anchor="middle" x="3731.67" y="-80" font-family="Helvetica,sans-Serif" font-size="10.00">_manager.cpp</text>
</a>
</g>
</g>
<!-- Node3&#45;&gt;Node80 -->
<g id="edge49" class="edge">
<title>Node3&#45;&gt;Node80</title>
<path fill="none" stroke="midnightblue" d="M2425.01,-159.38C2655.17,-158.59 3427.52,-152.66 3670.67,-109 3678.46,-107.6 3686.62,-105.44 3694.34,-103.05"/>
<polygon fill="midnightblue" stroke="midnightblue" points="2424.77,-155.88 2414.78,-159.41 2424.8,-162.88 2424.77,-155.88"/>
</g>
<!-- Node81 -->
<g id="node44" class="node">
<title>Node81</title>
<g id="a_node44"><a xlink:href="d__kankyo__wether_8cpp.html" target="_top" xlink:title=" ">
<polygon fill="white" stroke="black" points="3801.67,-73 3801.67,-103 3917.67,-103 3917.67,-73 3801.67,-73"/>
<text text-anchor="start" x="3809.67" y="-91" font-family="Helvetica,sans-Serif" font-size="10.00">src/d/kankyo/d_kankyo</text>
<text text-anchor="middle" x="3859.67" y="-80" font-family="Helvetica,sans-Serif" font-size="10.00">_wether.cpp</text>
</a>
</g>
</g>
<!-- Node3&#45;&gt;Node81 -->
<g id="edge51" class="edge">
<title>Node3&#45;&gt;Node81</title>
<path fill="none" stroke="midnightblue" d="M2424.85,-159.4C2668.29,-158.7 3524.01,-153.09 3792.67,-109 3801.17,-107.6 3810.11,-105.44 3818.6,-103.05"/>
<polygon fill="midnightblue" stroke="midnightblue" points="2424.73,-155.9 2414.74,-159.43 2424.75,-162.9 2424.73,-155.9"/>
</g>
<!-- Node82 -->
<g id="node45" class="node">
<title>Node82</title>
<g id="a_node45"><a xlink:href="d__map__path_8cpp.html" target="_top" xlink:title=" ">
<polygon fill="white" stroke="black" points="3935.67,-78.5 3935.67,-97.5 4069.67,-97.5 4069.67,-78.5 3935.67,-78.5"/>
<text text-anchor="middle" x="4002.67" y="-85.5" font-family="Helvetica,sans-Serif" font-size="10.00">src/d/map/d_map_path.cpp</text>
</a>
</g>
</g>
<!-- Node3&#45;&gt;Node82 -->
<g id="edge52" class="edge">
<title>Node3&#45;&gt;Node82</title>
<path fill="none" stroke="midnightblue" d="M2425.21,-159.35C2683.31,-158.46 3629.96,-152.26 3926.67,-109 3943.41,-106.56 3961.76,-101.79 3976.24,-97.52"/>
<polygon fill="midnightblue" stroke="midnightblue" points="2424.86,-155.85 2414.88,-159.39 2424.89,-162.85 2424.86,-155.85"/>
</g>
<!-- Node83 -->
<g id="node46" class="node">
<title>Node83</title>
<g id="a_node46"><a xlink:href="d__map__path__dmap_8cpp.html" target="_top" xlink:title=" ">
<polygon fill="white" stroke="black" points="4087.67,-73 4087.67,-103 4203.67,-103 4203.67,-73 4087.67,-73"/>
<text text-anchor="start" x="4095.67" y="-91" font-family="Helvetica,sans-Serif" font-size="10.00">src/d/map/d_map_path</text>
<text text-anchor="middle" x="4145.67" y="-80" font-family="Helvetica,sans-Serif" font-size="10.00">_dmap.cpp</text>
</a>
</g>
</g>
<!-- Node3&#45;&gt;Node83 -->
<g id="edge53" class="edge">
<title>Node3&#45;&gt;Node83</title>
<path fill="none" stroke="midnightblue" d="M2425.19,-159.85C2698.86,-160.98 3751.45,-161.72 4078.67,-109 4087.18,-107.63 4096.12,-105.48 4104.6,-103.09"/>
<polygon fill="midnightblue" stroke="midnightblue" points="2425.04,-156.35 2415.02,-159.81 2425.01,-163.35 2425.04,-156.35"/>
</g>
<!-- Node12&#45;&gt;Node13 -->
<g id="edge6" class="edge">
<title>Node12&#45;&gt;Node13</title>
<path fill="none" stroke="midnightblue" d="M811.82,-68.36C810.43,-54.4 808.6,-35.93 807.53,-25.22"/>
<polygon fill="midnightblue" stroke="midnightblue" points="808.34,-68.75 812.81,-78.36 815.31,-68.06 808.34,-68.75"/>
</g>
<!-- Node12&#45;&gt;Node14 -->
<g id="edge7" class="edge">
<title>Node12&#45;&gt;Node14</title>
<path fill="none" stroke="midnightblue" d="M783.34,-74.99C774.82,-71.99 765.48,-69.05 756.67,-67 632.32,-38.06 483.13,-25.12 400.52,-19.81"/>
<polygon fill="midnightblue" stroke="midnightblue" points="782.28,-78.33 792.88,-78.48 784.69,-71.75 782.28,-78.33"/>
</g>
<!-- Node12&#45;&gt;Node15 -->
<g id="edge8" class="edge">
<title>Node12&#45;&gt;Node15</title>
<path fill="none" stroke="midnightblue" d="M837.27,-73.14C858.21,-60.83 888.66,-42.94 909.71,-30.58"/>
<polygon fill="midnightblue" stroke="midnightblue" points="835.23,-70.27 828.38,-78.36 838.78,-76.31 835.23,-70.27"/>
</g>
<!-- Node37&#45;&gt;Node13 -->
<g id="edge16" class="edge">
<title>Node37&#45;&gt;Node13</title>
<path fill="none" stroke="midnightblue" d="M4495.27,-70.25C4490.05,-68.94 4484.78,-67.81 4479.67,-67 4083.55,-4.52 1268.98,-77.57 870.67,-31 859.92,-29.74 848.33,-27.42 838.01,-25"/>
<polygon fill="midnightblue" stroke="midnightblue" points="4494.61,-73.7 4505.18,-72.98 4496.47,-66.95 4494.61,-73.7"/>
</g>
<!-- Node37&#45;&gt;Node42 -->
<g id="edge17" class="edge">
<title>Node37&#45;&gt;Node42</title>
<path fill="none" stroke="midnightblue" d="M4494.83,-70.24C4489.75,-68.95 4484.64,-67.83 4479.67,-67 4307.57,-38.19 3037.35,-20.47 2775,-17.09"/>
<polygon fill="midnightblue" stroke="midnightblue" points="4493.91,-73.62 4504.48,-72.9 4495.77,-66.87 4493.91,-73.62"/>
</g>
<!-- Node37&#45;&gt;Node43 -->
<g id="edge18" class="edge">
<title>Node37&#45;&gt;Node43</title>
<path fill="none" stroke="midnightblue" d="M4525.16,-64.88C4513.99,-51.54 4500.37,-35.26 4492.11,-25.39"/>
<polygon fill="midnightblue" stroke="midnightblue" points="4522.63,-67.31 4531.73,-72.73 4528,-62.82 4522.63,-67.31"/>
</g>
<!-- Node37&#45;&gt;Node44 -->
<g id="edge19" class="edge">
<title>Node37&#45;&gt;Node44</title>
<path fill="none" stroke="midnightblue" d="M4565.46,-65.36C4576.79,-54.11 4590.32,-40.68 4600.32,-30.75"/>
<polygon fill="midnightblue" stroke="midnightblue" points="4562.67,-63.2 4558.04,-72.73 4567.6,-68.17 4562.67,-63.2"/>
</g>
<!-- Node37&#45;&gt;Node45 -->
<g id="edge20" class="edge">
<title>Node37&#45;&gt;Node45</title>
<path fill="none" stroke="midnightblue" d="M4594.73,-69.69C4636.56,-55.52 4693.96,-36.06 4726.49,-25.03"/>
<polygon fill="midnightblue" stroke="midnightblue" points="4593.61,-66.38 4585.26,-72.9 4595.86,-73.01 4593.61,-66.38"/>
</g>
</g>
</svg>
