<?xml version="1.0" encoding="UTF-8" standalone="no"?>
<!DOCTYPE svg PUBLIC "-//W3C//DTD SVG 1.1//EN"
 "http://www.w3.org/Graphics/SVG/1.1/DTD/svg11.dtd">
<!-- Generated by graphviz version 3.0.0 (20220413.0242)
 -->
<!-- Title: include/JSystem/J3DGraphBase/J3DMatBlock.h Pages: 1 -->
<svg width="5084pt" height="318pt"
 viewBox="0.00 0.00 5083.50 318.00" xmlns="http://www.w3.org/2000/svg" xmlns:xlink="http://www.w3.org/1999/xlink">
<g id="graph0" class="graph" transform="scale(1 1) rotate(0) translate(4 314)">
<title>include/JSystem/J3DGraphBase/J3DMatBlock.h</title>
<polygon fill="white" stroke="transparent" points="-4,4 -4,-314 5079.5,-314 5079.5,4 -4,4"/>
<!-- Node1 -->
<g id="node1" class="node">
<title>Node1</title>
<g id="a_node1"><a xlink:title=" ">
<polygon fill="#bfbfbf" stroke="black" points="2872,-279.5 2872,-309.5 3007,-309.5 3007,-279.5 2872,-279.5"/>
<text text-anchor="start" x="2880" y="-297.5" font-family="Helvetica,sans-Serif" font-size="10.00">include/JSystem/J3DGraph</text>
<text text-anchor="middle" x="2939.5" y="-286.5" font-family="Helvetica,sans-Serif" font-size="10.00">Base/J3DMatBlock.h</text>
</a>
</g>
</g>
<!-- Node2 -->
<g id="node2" class="node">
<title>Node2</title>
<g id="a_node2"><a xlink:href="J3DMaterial_8h.html" target="_top" xlink:title=" ">
<polygon fill="white" stroke="black" points="484,-212.5 484,-242.5 619,-242.5 619,-212.5 484,-212.5"/>
<text text-anchor="start" x="492" y="-230.5" font-family="Helvetica,sans-Serif" font-size="10.00">include/JSystem/J3DGraph</text>
<text text-anchor="middle" x="551.5" y="-219.5" font-family="Helvetica,sans-Serif" font-size="10.00">Base/J3DMaterial.h</text>
</a>
</g>
</g>
<!-- Node1&#45;&gt;Node2 -->
<g id="edge1" class="edge">
<title>Node1&#45;&gt;Node2</title>
<path fill="none" stroke="midnightblue" d="M2861.69,-291.38C2497.07,-281.46 960.93,-239.64 619.1,-230.34"/>
<polygon fill="midnightblue" stroke="midnightblue" points="2861.79,-294.89 2871.88,-291.66 2861.98,-287.89 2861.79,-294.89"/>
</g>
<!-- Node23 -->
<g id="node10" class="node">
<title>Node23</title>
<g id="a_node10"><a xlink:href="d__a__alink_8h.html" target="_top" xlink:title=" ">
<polygon fill="white" stroke="black" points="2881.5,-218 2881.5,-237 2997.5,-237 2997.5,-218 2881.5,-218"/>
<text text-anchor="middle" x="2939.5" y="-225" font-family="Helvetica,sans-Serif" font-size="10.00">include/d/a/d_a_alink.h</text>
</a>
</g>
</g>
<!-- Node1&#45;&gt;Node23 -->
<g id="edge9" class="edge">
<title>Node1&#45;&gt;Node23</title>
<path fill="none" stroke="midnightblue" d="M2939.5,-269.25C2939.5,-258.02 2939.5,-245.38 2939.5,-237.19"/>
<polygon fill="midnightblue" stroke="midnightblue" points="2936,-269.4 2939.5,-279.4 2943,-269.4 2936,-269.4"/>
</g>
<!-- Node281 -->
<g id="node50" class="node">
<title>Node281</title>
<g id="a_node50"><a xlink:href="J3DMatBlock_8cpp.html" target="_top" xlink:title=" ">
<polygon fill="white" stroke="black" points="3015.5,-212.5 3015.5,-242.5 3157.5,-242.5 3157.5,-212.5 3015.5,-212.5"/>
<text text-anchor="start" x="3023.5" y="-230.5" font-family="Helvetica,sans-Serif" font-size="10.00">libs/JSystem/J3DGraphBase</text>
<text text-anchor="middle" x="3086.5" y="-219.5" font-family="Helvetica,sans-Serif" font-size="10.00">/J3DMatBlock.cpp</text>
</a>
</g>
</g>
<!-- Node1&#45;&gt;Node281 -->
<g id="edge57" class="edge">
<title>Node1&#45;&gt;Node281</title>
<path fill="none" stroke="midnightblue" d="M2980.73,-275.27C3004.14,-264.92 3033.01,-252.15 3054.67,-242.58"/>
<polygon fill="midnightblue" stroke="midnightblue" points="2979.13,-272.15 2971.4,-279.4 2981.96,-278.55 2979.13,-272.15"/>
</g>
<!-- Node3 -->
<g id="node3" class="node">
<title>Node3</title>
<g id="a_node3"><a xlink:href="J3DJoint_8h.html" target="_top" xlink:title=" ">
<polygon fill="white" stroke="black" points="167,-145.5 167,-175.5 302,-175.5 302,-145.5 167,-145.5"/>
<text text-anchor="start" x="175" y="-163.5" font-family="Helvetica,sans-Serif" font-size="10.00">include/JSystem/J3DGraph</text>
<text text-anchor="middle" x="234.5" y="-152.5" font-family="Helvetica,sans-Serif" font-size="10.00">Animator/J3DJoint.h</text>
</a>
</g>
</g>
<!-- Node2&#45;&gt;Node3 -->
<g id="edge2" class="edge">
<title>Node2&#45;&gt;Node3</title>
<path fill="none" stroke="midnightblue" d="M473.92,-210.59C421.28,-199.8 352.38,-185.67 302.01,-175.34"/>
<polygon fill="midnightblue" stroke="midnightblue" points="473.39,-214.06 483.88,-212.64 474.79,-207.2 473.39,-214.06"/>
</g>
<!-- Node280 -->
<g id="node7" class="node">
<title>Node280</title>
<g id="a_node7"><a xlink:href="J3DMaterial_8cpp.html" target="_top" xlink:title=" ">
<polygon fill="white" stroke="black" points="320.5,-145.5 320.5,-175.5 462.5,-175.5 462.5,-145.5 320.5,-145.5"/>
<text text-anchor="start" x="328.5" y="-163.5" font-family="Helvetica,sans-Serif" font-size="10.00">libs/JSystem/J3DGraphBase</text>
<text text-anchor="middle" x="391.5" y="-152.5" font-family="Helvetica,sans-Serif" font-size="10.00">/J3DMaterial.cpp</text>
</a>
</g>
</g>
<!-- Node2&#45;&gt;Node280 -->
<g id="edge6" class="edge">
<title>Node2&#45;&gt;Node280</title>
<path fill="none" stroke="midnightblue" d="M507.3,-208.54C481.7,-198.14 449.93,-185.24 426.15,-175.58"/>
<polygon fill="midnightblue" stroke="midnightblue" points="506.2,-211.87 516.78,-212.4 508.84,-205.39 506.2,-211.87"/>
</g>
<!-- Node269 -->
<g id="node8" class="node">
<title>Node269</title>
<g id="a_node8"><a xlink:href="J3DPacket_8cpp.html" target="_top" xlink:title=" ">
<polygon fill="white" stroke="black" points="480.5,-145.5 480.5,-175.5 622.5,-175.5 622.5,-145.5 480.5,-145.5"/>
<text text-anchor="start" x="488.5" y="-163.5" font-family="Helvetica,sans-Serif" font-size="10.00">libs/JSystem/J3DGraphBase</text>
<text text-anchor="middle" x="551.5" y="-152.5" font-family="Helvetica,sans-Serif" font-size="10.00">/J3DPacket.cpp</text>
</a>
</g>
</g>
<!-- Node2&#45;&gt;Node269 -->
<g id="edge7" class="edge">
<title>Node2&#45;&gt;Node269</title>
<path fill="none" stroke="midnightblue" d="M551.5,-202.11C551.5,-193.15 551.5,-183.32 551.5,-175.58"/>
<polygon fill="midnightblue" stroke="midnightblue" points="548,-202.4 551.5,-212.4 555,-202.4 548,-202.4"/>
</g>
<!-- Node100 -->
<g id="node9" class="node">
<title>Node100</title>
<g id="a_node9"><a xlink:href="d__resorce_8cpp.html" target="_top" xlink:title=" ">
<polygon fill="white" stroke="black" points="547.5,-78.5 547.5,-97.5 649.5,-97.5 649.5,-78.5 547.5,-78.5"/>
<text text-anchor="middle" x="598.5" y="-85.5" font-family="Helvetica,sans-Serif" font-size="10.00">src/d/d_resorce.cpp</text>
</a>
</g>
</g>
<!-- Node2&#45;&gt;Node100 -->
<g id="edge8" class="edge">
<title>Node2&#45;&gt;Node100</title>
<path fill="none" stroke="midnightblue" d="M598.34,-207.53C611.43,-199.8 624.09,-189.44 631.5,-176 646.47,-148.84 620.42,-113.48 606.46,-97.5"/>
<polygon fill="midnightblue" stroke="midnightblue" points="596.38,-204.61 589.27,-212.47 599.73,-210.76 596.38,-204.61"/>
</g>
<!-- Node4 -->
<g id="node4" class="node">
<title>Node4</title>
<g id="a_node4"><a xlink:href="J3DJointTree_8h.html" target="_top" xlink:title=" ">
<polygon fill="white" stroke="red" points="167,-73 167,-103 302,-103 302,-73 167,-73"/>
<text text-anchor="start" x="175" y="-91" font-family="Helvetica,sans-Serif" font-size="10.00">include/JSystem/J3DGraph</text>
<text text-anchor="middle" x="234.5" y="-80" font-family="Helvetica,sans-Serif" font-size="10.00">Animator/J3DJointTree.h</text>
</a>
</g>
</g>
<!-- Node3&#45;&gt;Node4 -->
<g id="edge3" class="edge">
<title>Node3&#45;&gt;Node4</title>
<path fill="none" stroke="midnightblue" d="M234.5,-135.23C234.5,-124.57 234.5,-112.41 234.5,-103.25"/>
<polygon fill="midnightblue" stroke="midnightblue" points="231,-135.23 234.5,-145.23 238,-135.23 231,-135.23"/>
</g>
<!-- Node274 -->
<g id="node5" class="node">
<title>Node274</title>
<g id="a_node5"><a xlink:href="J3DJoint_8cpp.html" target="_top" xlink:title=" ">
<polygon fill="white" stroke="black" points="320.5,-73 320.5,-103 478.5,-103 478.5,-73 320.5,-73"/>
<text text-anchor="start" x="328.5" y="-91" font-family="Helvetica,sans-Serif" font-size="10.00">libs/JSystem/J3DGraphAnimator</text>
<text text-anchor="middle" x="399.5" y="-80" font-family="Helvetica,sans-Serif" font-size="10.00">/J3DJoint.cpp</text>
</a>
</g>
</g>
<!-- Node3&#45;&gt;Node274 -->
<g id="edge4" class="edge">
<title>Node3&#45;&gt;Node274</title>
<path fill="none" stroke="midnightblue" d="M276.99,-141.34C304.89,-129.42 340.84,-114.07 366.56,-103.07"/>
<polygon fill="midnightblue" stroke="midnightblue" points="275.31,-138.26 267.49,-145.4 278.06,-144.69 275.31,-138.26"/>
</g>
<!-- Node279 -->
<g id="node6" class="node">
<title>Node279</title>
<g id="a_node6"><a xlink:href="J3DJointFactory_8cpp.html" target="_top" xlink:title=" ">
<polygon fill="white" stroke="black" points="0,-73 0,-103 149,-103 149,-73 0,-73"/>
<text text-anchor="start" x="8" y="-91" font-family="Helvetica,sans-Serif" font-size="10.00">libs/JSystem/J3DGraphLoader</text>
<text text-anchor="middle" x="74.5" y="-80" font-family="Helvetica,sans-Serif" font-size="10.00">/J3DJointFactory.cpp</text>
</a>
</g>
</g>
<!-- Node3&#45;&gt;Node279 -->
<g id="edge5" class="edge">
<title>Node3&#45;&gt;Node279</title>
<path fill="none" stroke="midnightblue" d="M193.29,-141.34C166.24,-129.42 131.39,-114.07 106.44,-103.07"/>
<polygon fill="midnightblue" stroke="midnightblue" points="191.94,-144.57 202.51,-145.4 194.77,-138.17 191.94,-144.57"/>
</g>
<!-- Node24 -->
<g id="node11" class="node">
<title>Node24</title>
<g id="a_node11"><a xlink:href="d__com__inf__game_8h.html" target="_top" xlink:title=" ">
<polygon fill="white" stroke="red" points="2884.5,-145.5 2884.5,-175.5 2994.5,-175.5 2994.5,-145.5 2884.5,-145.5"/>
<text text-anchor="start" x="2892.5" y="-163.5" font-family="Helvetica,sans-Serif" font-size="10.00">include/d/com/d_com</text>
<text text-anchor="middle" x="2939.5" y="-152.5" font-family="Helvetica,sans-Serif" font-size="10.00">_inf_game.h</text>
</a>
</g>
</g>
<!-- Node23&#45;&gt;Node24 -->
<g id="edge10" class="edge">
<title>Node23&#45;&gt;Node24</title>
<path fill="none" stroke="midnightblue" d="M2939.5,-207.41C2939.5,-197.22 2939.5,-184.9 2939.5,-175.59"/>
<polygon fill="midnightblue" stroke="midnightblue" points="2936,-207.73 2939.5,-217.73 2943,-207.73 2936,-207.73"/>
</g>
<!-- Node10 -->
<g id="node15" class="node">
<title>Node10</title>
<g id="a_node15"><a xlink:href="d__a__alink_8cpp.html" target="_top" xlink:title=" ">
<polygon fill="white" stroke="black" points="4676,-6 4676,-25 4785,-25 4785,-6 4676,-6"/>
<text text-anchor="middle" x="4730.5" y="-13" font-family="Helvetica,sans-Serif" font-size="10.00">src/d/a/d_a_alink.cpp</text>
</a>
</g>
</g>
<!-- Node23&#45;&gt;Node10 -->
<g id="edge56" class="edge">
<title>Node23&#45;&gt;Node10</title>
<path fill="none" stroke="midnightblue" d="M2983.56,-215.93C2991.17,-214.4 2999.04,-213.01 3006.5,-212 3214.05,-184.04 4744.52,-261.08 4888.5,-109 4901.33,-95.44 4899.51,-82.08 4888.5,-67 4875.13,-48.69 4818.4,-33.79 4776.73,-25.04"/>
<polygon fill="midnightblue" stroke="midnightblue" points="2982.81,-212.51 2973.74,-218 2984.25,-219.36 2982.81,-212.51"/>
</g>
<!-- Node24&#45;&gt;Node100 -->
<g id="edge53" class="edge">
<title>Node24&#45;&gt;Node100</title>
<path fill="none" stroke="midnightblue" d="M2874.2,-159.22C2524.58,-157.56 881.5,-147.73 658.5,-109 644.98,-106.65 630.36,-101.83 618.93,-97.51"/>
<polygon fill="midnightblue" stroke="midnightblue" points="2874.39,-162.72 2884.41,-159.27 2874.42,-155.72 2874.39,-162.72"/>
</g>
<!-- Node25 -->
<g id="node12" class="node">
<title>Node25</title>
<g id="a_node12"><a xlink:href="d__a__npc_8h.html" target="_top" xlink:title=" ">
<polygon fill="white" stroke="red" points="4269,-78.5 4269,-97.5 4380,-97.5 4380,-78.5 4269,-78.5"/>
<text text-anchor="middle" x="4324.5" y="-85.5" font-family="Helvetica,sans-Serif" font-size="10.00">include/d/a/d_a_npc.h</text>
</a>
</g>
</g>
<!-- Node24&#45;&gt;Node25 -->
<g id="edge11" class="edge">
<title>Node24&#45;&gt;Node25</title>
<path fill="none" stroke="midnightblue" d="M3004.87,-159.24C3236.03,-157.99 4014.15,-150.7 4259.5,-109 4273.93,-106.55 4289.63,-101.78 4301.99,-97.51"/>
<polygon fill="midnightblue" stroke="midnightblue" points="3004.58,-155.75 2994.6,-159.3 3004.62,-162.75 3004.58,-155.75"/>
</g>
<!-- Node31 -->
<g id="node13" class="node">
<title>Node31</title>
<g id="a_node13"><a xlink:href="d__cc__uty_8h.html" target="_top" xlink:title=" ">
<polygon fill="white" stroke="red" points="4398,-78.5 4398,-97.5 4517,-97.5 4517,-78.5 4398,-78.5"/>
<text text-anchor="middle" x="4457.5" y="-85.5" font-family="Helvetica,sans-Serif" font-size="10.00">include/d/cc/d_cc_uty.h</text>
</a>
</g>
</g>
<!-- Node24&#45;&gt;Node31 -->
<g id="edge12" class="edge">
<title>Node24&#45;&gt;Node31</title>
<path fill="none" stroke="midnightblue" d="M3005.03,-159.4C3250.78,-158.69 4117.4,-153.03 4389.5,-109 4404.56,-106.56 4420.99,-101.79 4433.92,-97.52"/>
<polygon fill="midnightblue" stroke="midnightblue" points="3004.82,-155.9 2994.83,-159.43 3004.84,-162.9 3004.82,-155.9"/>
</g>
<!-- Node36 -->
<g id="node14" class="node">
<title>Node36</title>
<g id="a_node14"><a xlink:href="d__item_8h.html" target="_top" xlink:title=" ">
<polygon fill="white" stroke="red" points="4936,-78.5 4936,-97.5 5031,-97.5 5031,-78.5 4936,-78.5"/>
<text text-anchor="middle" x="4983.5" y="-85.5" font-family="Helvetica,sans-Serif" font-size="10.00">include/d/d_item.h</text>
</a>
</g>
</g>
<!-- Node24&#45;&gt;Node36 -->
<g id="edge13" class="edge">
<title>Node24&#45;&gt;Node36</title>
<path fill="none" stroke="midnightblue" d="M3004.74,-159.4C3299.83,-158.71 4511.62,-153.18 4888.5,-109 4909.26,-106.57 4932.2,-101.8 4950.33,-97.53"/>
<polygon fill="midnightblue" stroke="midnightblue" points="3004.62,-155.9 2994.63,-159.42 3004.64,-162.9 3004.62,-155.9"/>
</g>
<!-- Node24&#45;&gt;Node10 -->
<g id="edge35" class="edge">
<title>Node24&#45;&gt;Node10</title>
<path fill="none" stroke="midnightblue" d="M3004.95,-159.6C3314.77,-159.81 4621.89,-157.82 4692.5,-109 4721.06,-89.25 4728.19,-43.9 4729.94,-25.01"/>
<polygon fill="midnightblue" stroke="midnightblue" points="3004.79,-156.1 2994.79,-159.59 3004.78,-163.1 3004.79,-156.1"/>
</g>
<!-- Node37 -->
<g id="node16" class="node">
<title>Node37</title>
<g id="a_node16"><a xlink:href="d__a__obj__item_8cpp.html" target="_top" xlink:title=" ">
<polygon fill="white" stroke="black" points="4823,-6 4823,-25 4948,-25 4948,-6 4823,-6"/>
<text text-anchor="middle" x="4885.5" y="-13" font-family="Helvetica,sans-Serif" font-size="10.00">src/d/a/d_a_obj_item.cpp</text>
</a>
</g>
</g>
<!-- Node24&#45;&gt;Node37 -->
<g id="edge38" class="edge">
<title>Node24&#45;&gt;Node37</title>
<path fill="none" stroke="midnightblue" d="M3005.08,-158.87C3317.03,-155.69 4639.09,-140.43 4720.5,-109 4747.26,-98.67 4745.19,-82.23 4769.5,-67 4798.72,-48.69 4835.73,-33.85 4859.99,-25.1"/>
<polygon fill="midnightblue" stroke="midnightblue" points="3004.81,-155.37 2994.84,-158.97 3004.88,-162.37 3004.81,-155.37"/>
</g>
<!-- Node38 -->
<g id="node17" class="node">
<title>Node38</title>
<g id="a_node17"><a xlink:href="d__com__inf__game_8cpp.html" target="_top" xlink:title=" ">
<polygon fill="white" stroke="black" points="4967.5,-0.5 4967.5,-30.5 5075.5,-30.5 5075.5,-0.5 4967.5,-0.5"/>
<text text-anchor="start" x="4975.5" y="-18.5" font-family="Helvetica,sans-Serif" font-size="10.00">src/d/com/d_com_inf</text>
<text text-anchor="middle" x="5021.5" y="-7.5" font-family="Helvetica,sans-Serif" font-size="10.00">_game.cpp</text>
</a>
</g>
</g>
<!-- Node24&#45;&gt;Node38 -->
<g id="edge44" class="edge">
<title>Node24&#45;&gt;Node38</title>
<path fill="none" stroke="midnightblue" d="M3004.9,-159.17C3356.12,-157.26 5004.07,-146.32 5040.5,-109 5061.11,-87.88 5043.35,-50.73 5030.98,-30.53"/>
<polygon fill="midnightblue" stroke="midnightblue" points="3004.62,-155.67 2994.64,-159.23 3004.66,-162.67 3004.62,-155.67"/>
</g>
<!-- Node41 -->
<g id="node18" class="node">
<title>Node41</title>
<g id="a_node18"><a xlink:href="d__kantera__icon__meter_8h.html" target="_top" xlink:title=" ">
<polygon fill="white" stroke="red" points="4778,-73 4778,-103 4879,-103 4879,-73 4778,-73"/>
<text text-anchor="start" x="4786" y="-91" font-family="Helvetica,sans-Serif" font-size="10.00">include/d/d_kantera</text>
<text text-anchor="middle" x="4828.5" y="-80" font-family="Helvetica,sans-Serif" font-size="10.00">_icon_meter.h</text>
</a>
</g>
</g>
<!-- Node24&#45;&gt;Node41 -->
<g id="edge17" class="edge">
<title>Node24&#45;&gt;Node41</title>
<path fill="none" stroke="midnightblue" d="M3004.74,-158.74C3309.74,-155.05 4587.52,-137.96 4763.5,-109 4771.89,-107.62 4780.7,-105.43 4789.03,-103"/>
<polygon fill="midnightblue" stroke="midnightblue" points="3004.69,-155.24 2994.73,-158.86 3004.77,-162.24 3004.69,-155.24"/>
</g>
<!-- Node43 -->
<g id="node19" class="node">
<title>Node43</title>
<g id="a_node19"><a xlink:href="d__model_8h.html" target="_top" xlink:title=" ">
<polygon fill="white" stroke="red" points="668,-78.5 668,-97.5 771,-97.5 771,-78.5 668,-78.5"/>
<text text-anchor="middle" x="719.5" y="-85.5" font-family="Helvetica,sans-Serif" font-size="10.00">include/d/d_model.h</text>
</a>
</g>
</g>
<!-- Node24&#45;&gt;Node43 -->
<g id="edge18" class="edge">
<title>Node24&#45;&gt;Node43</title>
<path fill="none" stroke="midnightblue" d="M2874.15,-159.13C2535.73,-157.06 989.92,-145.67 779.5,-109 765.98,-106.64 751.36,-101.82 739.93,-97.5"/>
<polygon fill="midnightblue" stroke="midnightblue" points="2874.26,-162.63 2884.28,-159.19 2874.3,-155.63 2874.26,-162.63"/>
</g>
<!-- Node45 -->
<g id="node20" class="node">
<title>Node45</title>
<g id="a_node20"><a xlink:href="d__name_8h.html" target="_top" xlink:title=" ">
<polygon fill="white" stroke="red" points="789,-78.5 789,-97.5 890,-97.5 890,-78.5 789,-78.5"/>
<text text-anchor="middle" x="839.5" y="-85.5" font-family="Helvetica,sans-Serif" font-size="10.00">include/d/d_name.h</text>
</a>
</g>
</g>
<!-- Node24&#45;&gt;Node45 -->
<g id="edge19" class="edge">
<title>Node24&#45;&gt;Node45</title>
<path fill="none" stroke="midnightblue" d="M2874.14,-159.03C2547.22,-156.55 1097.46,-143.64 899.5,-109 886.09,-106.65 871.59,-101.89 860.21,-97.6"/>
<polygon fill="midnightblue" stroke="midnightblue" points="2874.36,-162.54 2884.38,-159.11 2874.41,-155.54 2874.36,-162.54"/>
</g>
<!-- Node46 -->
<g id="node21" class="node">
<title>Node46</title>
<g id="a_node21"><a xlink:href="d__file__sel__info_8h.html" target="_top" xlink:title=" ">
<polygon fill="white" stroke="red" points="908.5,-73 908.5,-103 1004.5,-103 1004.5,-73 908.5,-73"/>
<text text-anchor="start" x="916.5" y="-91" font-family="Helvetica,sans-Serif" font-size="10.00">include/d/file/d_file</text>
<text text-anchor="middle" x="956.5" y="-80" font-family="Helvetica,sans-Serif" font-size="10.00">_sel_info.h</text>
</a>
</g>
</g>
<!-- Node24&#45;&gt;Node46 -->
<g id="edge20" class="edge">
<title>Node24&#45;&gt;Node46</title>
<path fill="none" stroke="midnightblue" d="M2873.73,-158.99C2557.31,-156.36 1199.32,-143.17 1013.5,-109 1006.07,-107.63 998.32,-105.46 991,-103.03"/>
<polygon fill="midnightblue" stroke="midnightblue" points="2874.08,-162.49 2884.11,-159.07 2874.13,-155.49 2874.08,-162.49"/>
</g>
<!-- Node48 -->
<g id="node22" class="node">
<title>Node48</title>
<g id="a_node22"><a xlink:href="d__file__sel__warning_8h.html" target="_top" xlink:title=" ">
<polygon fill="white" stroke="red" points="1022.5,-73 1022.5,-103 1118.5,-103 1118.5,-73 1022.5,-73"/>
<text text-anchor="start" x="1030.5" y="-91" font-family="Helvetica,sans-Serif" font-size="10.00">include/d/file/d_file</text>
<text text-anchor="middle" x="1070.5" y="-80" font-family="Helvetica,sans-Serif" font-size="10.00">_sel_warning.h</text>
</a>
</g>
</g>
<!-- Node24&#45;&gt;Node48 -->
<g id="edge21" class="edge">
<title>Node24&#45;&gt;Node48</title>
<path fill="none" stroke="midnightblue" d="M2873.71,-158.87C2568.91,-155.79 1301.54,-141.15 1127.5,-109 1120.07,-107.63 1112.32,-105.45 1105,-103.02"/>
<polygon fill="midnightblue" stroke="midnightblue" points="2874.11,-162.37 2884.14,-158.98 2874.18,-155.38 2874.11,-162.37"/>
</g>
<!-- Node50 -->
<g id="node23" class="node">
<title>Node50</title>
<g id="a_node23"><a xlink:href="d__meter2_8h.html" target="_top" xlink:title=" ">
<polygon fill="white" stroke="red" points="1136.5,-78.5 1136.5,-97.5 1270.5,-97.5 1270.5,-78.5 1136.5,-78.5"/>
<text text-anchor="middle" x="1203.5" y="-85.5" font-family="Helvetica,sans-Serif" font-size="10.00">include/d/meter/d_meter2.h</text>
</a>
</g>
</g>
<!-- Node24&#45;&gt;Node50 -->
<g id="edge22" class="edge">
<title>Node24&#45;&gt;Node50</title>
<path fill="none" stroke="midnightblue" d="M2874.1,-159.49C2606.65,-159.14 1595.41,-154.76 1279.5,-109 1262.76,-106.57 1244.4,-101.81 1229.93,-97.53"/>
<polygon fill="midnightblue" stroke="midnightblue" points="2874.41,-162.99 2884.42,-159.5 2874.42,-155.99 2874.41,-162.99"/>
</g>
<!-- Node57 -->
<g id="node24" class="node">
<title>Node57</title>
<g id="a_node24"><a xlink:href="d__msg__object_8h.html" target="_top" xlink:title=" ">
<polygon fill="white" stroke="red" points="4573.5,-73 4573.5,-103 4683.5,-103 4683.5,-73 4573.5,-73"/>
<text text-anchor="start" x="4581.5" y="-91" font-family="Helvetica,sans-Serif" font-size="10.00">include/d/msg/d_msg</text>
<text text-anchor="middle" x="4628.5" y="-80" font-family="Helvetica,sans-Serif" font-size="10.00">_object.h</text>
</a>
</g>
</g>
<!-- Node24&#45;&gt;Node57 -->
<g id="edge23" class="edge">
<title>Node24&#45;&gt;Node57</title>
<path fill="none" stroke="midnightblue" d="M3004.67,-159.65C3267.79,-159.9 4252.31,-157.52 4559.5,-109 4568.25,-107.62 4577.45,-105.46 4586.18,-103.07"/>
<polygon fill="midnightblue" stroke="midnightblue" points="3004.52,-156.15 2994.52,-159.63 3004.51,-163.15 3004.52,-156.15"/>
</g>
<!-- Node62 -->
<g id="node25" class="node">
<title>Node62</title>
<g id="a_node25"><a xlink:href="d__demo_8cpp.html" target="_top" xlink:title=" ">
<polygon fill="white" stroke="black" points="4530.5,-6 4530.5,-25 4624.5,-25 4624.5,-6 4530.5,-6"/>
<text text-anchor="middle" x="4577.5" y="-13" font-family="Helvetica,sans-Serif" font-size="10.00">src/d/d_demo.cpp</text>
</a>
</g>
</g>
<!-- Node24&#45;&gt;Node62 -->
<g id="edge49" class="edge">
<title>Node24&#45;&gt;Node62</title>
<path fill="none" stroke="midnightblue" d="M3005.16,-159.22C3296.47,-157.73 4460.71,-149.28 4526.5,-109 4557.78,-89.85 4571.31,-44.16 4575.74,-25.09"/>
<polygon fill="midnightblue" stroke="midnightblue" points="3004.74,-155.72 2994.76,-159.27 3004.78,-162.72 3004.74,-155.72"/>
</g>
<!-- Node71 -->
<g id="node26" class="node">
<title>Node71</title>
<g id="a_node26"><a xlink:href="d__s__logo_8h.html" target="_top" xlink:title=" ">
<polygon fill="white" stroke="red" points="1289,-78.5 1289,-97.5 1402,-97.5 1402,-78.5 1289,-78.5"/>
<text text-anchor="middle" x="1345.5" y="-85.5" font-family="Helvetica,sans-Serif" font-size="10.00">include/d/s/d_s_logo.h</text>
</a>
</g>
</g>
<!-- Node24&#45;&gt;Node71 -->
<g id="edge26" class="edge">
<title>Node24&#45;&gt;Node71</title>
<path fill="none" stroke="midnightblue" d="M2874.22,-159.64C2620.34,-159.85 1698.59,-157.19 1410.5,-109 1396.06,-106.58 1380.36,-101.82 1368.01,-97.54"/>
<polygon fill="midnightblue" stroke="midnightblue" points="2874.39,-163.14 2884.39,-159.63 2874.39,-156.14 2874.39,-163.14"/>
</g>
<!-- Node73 -->
<g id="node27" class="node">
<title>Node73</title>
<g id="a_node27"><a xlink:href="d__s__play_8h.html" target="_top" xlink:title=" ">
<polygon fill="white" stroke="red" points="1420,-78.5 1420,-97.5 1533,-97.5 1533,-78.5 1420,-78.5"/>
<text text-anchor="middle" x="1476.5" y="-85.5" font-family="Helvetica,sans-Serif" font-size="10.00">include/d/s/d_s_play.h</text>
</a>
</g>
</g>
<!-- Node24&#45;&gt;Node73 -->
<g id="edge27" class="edge">
<title>Node24&#45;&gt;Node73</title>
<path fill="none" stroke="midnightblue" d="M2873.93,-159.41C2633.77,-158.71 1802.69,-153.11 1541.5,-109 1527.06,-106.56 1511.36,-101.79 1499.01,-97.52"/>
<polygon fill="midnightblue" stroke="midnightblue" points="2874.23,-162.91 2884.24,-159.44 2874.25,-155.91 2874.23,-162.91"/>
</g>
<!-- Node77 -->
<g id="node28" class="node">
<title>Node77</title>
<g id="a_node28"><a xlink:href="d__msg__scrn__base_8h.html" target="_top" xlink:title=" ">
<polygon fill="white" stroke="red" points="1551,-73 1551,-103 1650,-103 1650,-73 1551,-73"/>
<text text-anchor="start" x="1559" y="-91" font-family="Helvetica,sans-Serif" font-size="10.00">include/msg/scrn/d</text>
<text text-anchor="middle" x="1600.5" y="-80" font-family="Helvetica,sans-Serif" font-size="10.00">_msg_scrn_base.h</text>
</a>
</g>
</g>
<!-- Node24&#45;&gt;Node77 -->
<g id="edge28" class="edge">
<title>Node24&#45;&gt;Node77</title>
<path fill="none" stroke="midnightblue" d="M2874.09,-159.44C2647.23,-158.84 1895.2,-153.48 1658.5,-109 1651.07,-107.6 1643.3,-105.44 1635.95,-103.05"/>
<polygon fill="midnightblue" stroke="midnightblue" points="2874.17,-162.94 2884.18,-159.47 2874.18,-155.94 2874.17,-162.94"/>
</g>
<!-- Node81 -->
<g id="node29" class="node">
<title>Node81</title>
<g id="a_node29"><a xlink:href="d__a__b__zant_8h.html" target="_top" xlink:title=" ">
<polygon fill="white" stroke="black" points="1668,-73 1668,-103 1789,-103 1789,-73 1668,-73"/>
<text text-anchor="start" x="1676" y="-91" font-family="Helvetica,sans-Serif" font-size="10.00">include/rel/d/a/b/d</text>
<text text-anchor="middle" x="1728.5" y="-80" font-family="Helvetica,sans-Serif" font-size="10.00">_a_b_zant/d_a_b_zant.h</text>
</a>
</g>
</g>
<!-- Node24&#45;&gt;Node81 -->
<g id="edge29" class="edge">
<title>Node24&#45;&gt;Node81</title>
<path fill="none" stroke="midnightblue" d="M2874.03,-158.61C2663.85,-155.45 2007.8,-143.05 1798.5,-109 1789.77,-107.58 1780.58,-105.44 1771.83,-103.08"/>
<polygon fill="midnightblue" stroke="midnightblue" points="2874.23,-162.12 2884.28,-158.77 2874.34,-155.12 2874.23,-162.12"/>
</g>
<!-- Node82 -->
<g id="node30" class="node">
<title>Node82</title>
<g id="a_node30"><a xlink:href="d__a__spinner_8h.html" target="_top" xlink:title=" ">
<polygon fill="white" stroke="black" points="1807.5,-73 1807.5,-103 1923.5,-103 1923.5,-73 1807.5,-73"/>
<text text-anchor="start" x="1815.5" y="-91" font-family="Helvetica,sans-Serif" font-size="10.00">include/rel/d/a/d_a</text>
<text text-anchor="middle" x="1865.5" y="-80" font-family="Helvetica,sans-Serif" font-size="10.00">_spinner/d_a_spinner.h</text>
</a>
</g>
</g>
<!-- Node24&#45;&gt;Node82 -->
<g id="edge30" class="edge">
<title>Node24&#45;&gt;Node82</title>
<path fill="none" stroke="midnightblue" d="M2873.96,-158.08C2681.27,-153.62 2118.78,-138.38 1937.5,-109 1928.54,-107.55 1919.09,-105.39 1910.1,-103.03"/>
<polygon fill="midnightblue" stroke="midnightblue" points="2874.14,-161.59 2884.22,-158.32 2874.3,-154.59 2874.14,-161.59"/>
</g>
<!-- Node83 -->
<g id="node31" class="node">
<title>Node83</title>
<g id="a_node31"><a xlink:href="d__a__player_8cpp.html" target="_top" xlink:title=" ">
<polygon fill="white" stroke="black" points="1851.5,-6 1851.5,-25 1965.5,-25 1965.5,-6 1851.5,-6"/>
<text text-anchor="middle" x="1908.5" y="-13" font-family="Helvetica,sans-Serif" font-size="10.00">src/d/a/d_a_player.cpp</text>
</a>
</g>
</g>
<!-- Node24&#45;&gt;Node83 -->
<g id="edge39" class="edge">
<title>Node24&#45;&gt;Node83</title>
<path fill="none" stroke="midnightblue" d="M2874.42,-159.46C2669.84,-158.85 2048.66,-153.36 1970.5,-109 1953.35,-99.27 1924.16,-46.31 1913.01,-25.19"/>
<polygon fill="midnightblue" stroke="midnightblue" points="2874.41,-162.96 2884.42,-159.48 2874.43,-155.96 2874.41,-162.96"/>
</g>
<!-- Node84 -->
<g id="node32" class="node">
<title>Node84</title>
<g id="a_node32"><a xlink:href="d__a__obj__yobikusa_8h.html" target="_top" xlink:title=" ">
<polygon fill="white" stroke="black" points="1980,-67.5 1980,-108.5 2085,-108.5 2085,-67.5 1980,-67.5"/>
<text text-anchor="start" x="1988" y="-96.5" font-family="Helvetica,sans-Serif" font-size="10.00">include/rel/d/a/obj</text>
<text text-anchor="start" x="1988" y="-85.5" font-family="Helvetica,sans-Serif" font-size="10.00">/d_a_obj_yobikusa/d</text>
<text text-anchor="middle" x="2032.5" y="-74.5" font-family="Helvetica,sans-Serif" font-size="10.00">_a_obj_yobikusa.h</text>
</a>
</g>
</g>
<!-- Node24&#45;&gt;Node84 -->
<g id="edge32" class="edge">
<title>Node24&#45;&gt;Node84</title>
<path fill="none" stroke="midnightblue" d="M2874.35,-157.73C2703.21,-152.74 2243.83,-137.08 2094.5,-109 2091.39,-108.41 2088.21,-107.72 2085.03,-106.94"/>
<polygon fill="midnightblue" stroke="midnightblue" points="2874.38,-161.23 2884.47,-158.02 2874.58,-154.24 2874.38,-161.23"/>
</g>
<!-- Node85 -->
<g id="node33" class="node">
<title>Node85</title>
<g id="a_node33"><a xlink:href="d__a__tag__telop_8h.html" target="_top" xlink:title=" ">
<polygon fill="white" stroke="black" points="2103.5,-67.5 2103.5,-108.5 2221.5,-108.5 2221.5,-67.5 2103.5,-67.5"/>
<text text-anchor="start" x="2111.5" y="-96.5" font-family="Helvetica,sans-Serif" font-size="10.00">include/rel/d/a/tag</text>
<text text-anchor="start" x="2111.5" y="-85.5" font-family="Helvetica,sans-Serif" font-size="10.00">/d_a_tag_telop/d_a_tag</text>
<text text-anchor="middle" x="2162.5" y="-74.5" font-family="Helvetica,sans-Serif" font-size="10.00">_telop.h</text>
</a>
</g>
</g>
<!-- Node24&#45;&gt;Node85 -->
<g id="edge33" class="edge">
<title>Node24&#45;&gt;Node85</title>
<path fill="none" stroke="midnightblue" d="M2874.07,-159.51C2748.33,-158.51 2464.67,-151.27 2230.5,-109 2227.59,-108.48 2224.63,-107.87 2221.66,-107.21"/>
<polygon fill="midnightblue" stroke="midnightblue" points="2874.27,-163.02 2884.29,-159.58 2874.32,-156.02 2874.27,-163.02"/>
</g>
<!-- Node86 -->
<g id="node34" class="node">
<title>Node86</title>
<g id="a_node34"><a xlink:href="c__dylink_8cpp.html" target="_top" xlink:title=" ">
<polygon fill="white" stroke="black" points="2240,-78.5 2240,-97.5 2335,-97.5 2335,-78.5 2240,-78.5"/>
<text text-anchor="middle" x="2287.5" y="-85.5" font-family="Helvetica,sans-Serif" font-size="10.00">src/c/c_dylink.cpp</text>
</a>
</g>
</g>
<!-- Node24&#45;&gt;Node86 -->
<g id="edge34" class="edge">
<title>Node24&#45;&gt;Node86</title>
<path fill="none" stroke="midnightblue" d="M2873.95,-159.32C2763.5,-157.82 2533.78,-149.55 2344.5,-109 2332.09,-106.34 2318.68,-101.73 2307.98,-97.6"/>
<polygon fill="midnightblue" stroke="midnightblue" points="2874.22,-162.82 2884.27,-159.44 2874.31,-155.82 2874.22,-162.82"/>
</g>
<!-- Node87 -->
<g id="node35" class="node">
<title>Node87</title>
<g id="a_node35"><a xlink:href="d__a__itembase_8cpp.html" target="_top" xlink:title=" ">
<polygon fill="white" stroke="black" points="2353.5,-78.5 2353.5,-97.5 2481.5,-97.5 2481.5,-78.5 2353.5,-78.5"/>
<text text-anchor="middle" x="2417.5" y="-85.5" font-family="Helvetica,sans-Serif" font-size="10.00">src/d/a/d_a_itembase.cpp</text>
</a>
</g>
</g>
<!-- Node24&#45;&gt;Node87 -->
<g id="edge36" class="edge">
<title>Node24&#45;&gt;Node87</title>
<path fill="none" stroke="midnightblue" d="M2874.21,-155.26C2786.56,-148.86 2626.29,-134.66 2491.5,-109 2475.94,-106.04 2458.86,-101.51 2445.03,-97.51"/>
<polygon fill="midnightblue" stroke="midnightblue" points="2874.04,-158.76 2884.27,-155.98 2874.55,-151.77 2874.04,-158.76"/>
</g>
<!-- Node88 -->
<g id="node36" class="node">
<title>Node88</title>
<g id="a_node36"><a xlink:href="d__a__obj_8cpp.html" target="_top" xlink:title=" ">
<polygon fill="white" stroke="black" points="2500,-78.5 2500,-97.5 2601,-97.5 2601,-78.5 2500,-78.5"/>
<text text-anchor="middle" x="2550.5" y="-85.5" font-family="Helvetica,sans-Serif" font-size="10.00">src/d/a/d_a_obj.cpp</text>
</a>
</g>
</g>
<!-- Node24&#45;&gt;Node88 -->
<g id="edge37" class="edge">
<title>Node24&#45;&gt;Node88</title>
<path fill="none" stroke="midnightblue" d="M2874.25,-152.79C2807.41,-145.14 2700.79,-130.81 2610.5,-109 2597.91,-105.96 2584.17,-101.47 2573.03,-97.52"/>
<polygon fill="midnightblue" stroke="midnightblue" points="2873.9,-156.27 2884.23,-153.91 2874.68,-149.31 2873.9,-156.27"/>
</g>
<!-- Node89 -->
<g id="node37" class="node">
<title>Node89</title>
<g id="a_node37"><a xlink:href="d__bg__s_8cpp.html" target="_top" xlink:title=" ">
<polygon fill="white" stroke="black" points="2619.5,-78.5 2619.5,-97.5 2723.5,-97.5 2723.5,-78.5 2619.5,-78.5"/>
<text text-anchor="middle" x="2671.5" y="-85.5" font-family="Helvetica,sans-Serif" font-size="10.00">src/d/bg/d_bg_s.cpp</text>
</a>
</g>
</g>
<!-- Node24&#45;&gt;Node89 -->
<g id="edge40" class="edge">
<title>Node24&#45;&gt;Node89</title>
<path fill="none" stroke="midnightblue" d="M2874.43,-144.99C2833.48,-135.52 2779.66,-122.46 2732.5,-109 2720.39,-105.54 2707.09,-101.24 2696,-97.51"/>
<polygon fill="midnightblue" stroke="midnightblue" points="2873.75,-148.42 2884.28,-147.26 2875.32,-141.6 2873.75,-148.42"/>
</g>
<!-- Node90 -->
<g id="node38" class="node">
<title>Node90</title>
<g id="a_node38"><a xlink:href="d__bg__s__movebg__actor_8cpp.html" target="_top" xlink:title=" ">
<polygon fill="white" stroke="black" points="2741.5,-73 2741.5,-103 2867.5,-103 2867.5,-73 2741.5,-73"/>
<text text-anchor="start" x="2749.5" y="-91" font-family="Helvetica,sans-Serif" font-size="10.00">src/d/bg/d_bg_s_movebg</text>
<text text-anchor="middle" x="2804.5" y="-80" font-family="Helvetica,sans-Serif" font-size="10.00">_actor.cpp</text>
</a>
</g>
</g>
<!-- Node24&#45;&gt;Node90 -->
<g id="edge41" class="edge">
<title>Node24&#45;&gt;Node90</title>
<path fill="none" stroke="midnightblue" d="M2903.53,-140.72C2880.88,-128.89 2852.13,-113.87 2831.45,-103.07"/>
<polygon fill="midnightblue" stroke="midnightblue" points="2902.02,-143.88 2912.51,-145.4 2905.26,-137.67 2902.02,-143.88"/>
</g>
<!-- Node91 -->
<g id="node39" class="node">
<title>Node91</title>
<g id="a_node39"><a xlink:href="d__bg__w_8cpp.html" target="_top" xlink:title=" ">
<polygon fill="white" stroke="black" points="2886,-78.5 2886,-97.5 2993,-97.5 2993,-78.5 2886,-78.5"/>
<text text-anchor="middle" x="2939.5" y="-85.5" font-family="Helvetica,sans-Serif" font-size="10.00">src/d/bg/d_bg_w.cpp</text>
</a>
</g>
</g>
<!-- Node24&#45;&gt;Node91 -->
<g id="edge42" class="edge">
<title>Node24&#45;&gt;Node91</title>
<path fill="none" stroke="midnightblue" d="M2939.5,-135.09C2939.5,-122.21 2939.5,-107.2 2939.5,-97.89"/>
<polygon fill="midnightblue" stroke="midnightblue" points="2936,-135.23 2939.5,-145.23 2943,-135.23 2936,-135.23"/>
</g>
<!-- Node92 -->
<g id="node40" class="node">
<title>Node92</title>
<g id="a_node40"><a xlink:href="d__cc__s_8cpp.html" target="_top" xlink:title=" ">
<polygon fill="white" stroke="black" points="3011.5,-78.5 3011.5,-97.5 3115.5,-97.5 3115.5,-78.5 3011.5,-78.5"/>
<text text-anchor="middle" x="3063.5" y="-85.5" font-family="Helvetica,sans-Serif" font-size="10.00">src/d/cc/d_cc_s.cpp</text>
</a>
</g>
</g>
<!-- Node24&#45;&gt;Node92 -->
<g id="edge43" class="edge">
<title>Node24&#45;&gt;Node92</title>
<path fill="none" stroke="midnightblue" d="M2973.3,-140.28C2997.87,-126.31 3029.96,-108.07 3048.49,-97.53"/>
<polygon fill="midnightblue" stroke="midnightblue" points="2971.26,-137.42 2964.3,-145.4 2974.72,-143.5 2971.26,-137.42"/>
</g>
<!-- Node93 -->
<g id="node41" class="node">
<title>Node93</title>
<g id="a_node41"><a xlink:href="d__com__static_8cpp.html" target="_top" xlink:title=" ">
<polygon fill="white" stroke="black" points="3133.5,-78.5 3133.5,-97.5 3273.5,-97.5 3273.5,-78.5 3133.5,-78.5"/>
<text text-anchor="middle" x="3203.5" y="-85.5" font-family="Helvetica,sans-Serif" font-size="10.00">src/d/com/d_com_static.cpp</text>
</a>
</g>
</g>
<!-- Node24&#45;&gt;Node93 -->
<g id="edge45" class="edge">
<title>Node24&#45;&gt;Node93</title>
<path fill="none" stroke="midnightblue" d="M3001.66,-142.9C3054.91,-128.68 3129.47,-108.77 3171.46,-97.55"/>
<polygon fill="midnightblue" stroke="midnightblue" points="3000.73,-139.53 2991.97,-145.49 3002.54,-146.29 3000.73,-139.53"/>
</g>
<!-- Node94 -->
<g id="node42" class="node">
<title>Node94</title>
<g id="a_node42"><a xlink:href="d__attention_8cpp.html" target="_top" xlink:title=" ">
<polygon fill="white" stroke="black" points="3292,-78.5 3292,-97.5 3399,-97.5 3399,-78.5 3292,-78.5"/>
<text text-anchor="middle" x="3345.5" y="-85.5" font-family="Helvetica,sans-Serif" font-size="10.00">src/d/d_attention.cpp</text>
</a>
</g>
</g>
<!-- Node24&#45;&gt;Node94 -->
<g id="edge46" class="edge">
<title>Node24&#45;&gt;Node94</title>
<path fill="none" stroke="midnightblue" d="M3005.01,-153.03C3074.47,-145.44 3187.11,-131.01 3282.5,-109 3295.69,-105.96 3310.11,-101.47 3321.82,-97.52"/>
<polygon fill="midnightblue" stroke="midnightblue" points="3004.23,-149.6 2994.66,-154.15 3004.98,-156.56 3004.23,-149.6"/>
</g>
<!-- Node95 -->
<g id="node43" class="node">
<title>Node95</title>
<g id="a_node43"><a xlink:href="d__cam__param_8cpp.html" target="_top" xlink:title=" ">
<polygon fill="white" stroke="black" points="3417,-78.5 3417,-97.5 3538,-97.5 3538,-78.5 3417,-78.5"/>
<text text-anchor="middle" x="3477.5" y="-85.5" font-family="Helvetica,sans-Serif" font-size="10.00">src/d/d_cam_param.cpp</text>
</a>
</g>
</g>
<!-- Node24&#45;&gt;Node95 -->
<g id="edge47" class="edge">
<title>Node24&#45;&gt;Node95</title>
<path fill="none" stroke="midnightblue" d="M3005.03,-156.07C3096.2,-150.48 3266.15,-137.07 3408.5,-109 3423.06,-106.13 3438.99,-101.61 3451.88,-97.59"/>
<polygon fill="midnightblue" stroke="midnightblue" points="3004.62,-152.59 2994.85,-156.68 3005.04,-159.57 3004.62,-152.59"/>
</g>
<!-- Node96 -->
<g id="node44" class="node">
<title>Node96</title>
<g id="a_node44"><a xlink:href="d__camera_8cpp.html" target="_top" xlink:title=" ">
<polygon fill="white" stroke="black" points="3556.5,-78.5 3556.5,-97.5 3658.5,-97.5 3658.5,-78.5 3556.5,-78.5"/>
<text text-anchor="middle" x="3607.5" y="-85.5" font-family="Helvetica,sans-Serif" font-size="10.00">src/d/d_camera.cpp</text>
</a>
</g>
</g>
<!-- Node24&#45;&gt;Node96 -->
<g id="edge48" class="edge">
<title>Node24&#45;&gt;Node96</title>
<path fill="none" stroke="midnightblue" d="M3004.76,-159.16C3116.87,-157.46 3352.8,-148.94 3547.5,-109 3560.51,-106.33 3574.63,-101.72 3585.9,-97.59"/>
<polygon fill="midnightblue" stroke="midnightblue" points="3004.57,-155.67 2994.62,-159.3 3004.67,-162.66 3004.57,-155.67"/>
</g>
<!-- Node97 -->
<g id="node45" class="node">
<title>Node97</title>
<g id="a_node45"><a xlink:href="d__eye__hl_8cpp.html" target="_top" xlink:title=" ">
<polygon fill="white" stroke="black" points="3676.5,-78.5 3676.5,-97.5 3774.5,-97.5 3774.5,-78.5 3676.5,-78.5"/>
<text text-anchor="middle" x="3725.5" y="-85.5" font-family="Helvetica,sans-Serif" font-size="10.00">src/d/d_eye_hl.cpp</text>
</a>
</g>
</g>
<!-- Node24&#45;&gt;Node97 -->
<g id="edge50" class="edge">
<title>Node24&#45;&gt;Node97</title>
<path fill="none" stroke="midnightblue" d="M3004.91,-157.16C3159.09,-151.3 3541.74,-134.58 3667.5,-109 3680.23,-106.41 3694,-101.75 3704.93,-97.57"/>
<polygon fill="midnightblue" stroke="midnightblue" points="3004.51,-153.68 2994.65,-157.55 3004.77,-160.67 3004.51,-153.68"/>
</g>
<!-- Node98 -->
<g id="node46" class="node">
<title>Node98</title>
<g id="a_node46"><a xlink:href="d__kyeff_8cpp.html" target="_top" xlink:title=" ">
<polygon fill="white" stroke="black" points="3792.5,-78.5 3792.5,-97.5 3882.5,-97.5 3882.5,-78.5 3792.5,-78.5"/>
<text text-anchor="middle" x="3837.5" y="-85.5" font-family="Helvetica,sans-Serif" font-size="10.00">src/d/d_kyeff.cpp</text>
</a>
</g>
</g>
<!-- Node24&#45;&gt;Node98 -->
<g id="edge51" class="edge">
<title>Node24&#45;&gt;Node98</title>
<path fill="none" stroke="midnightblue" d="M3004.64,-158.08C3175.75,-153.95 3634.98,-140.23 3783.5,-109 3795.44,-106.49 3808.26,-101.83 3818.41,-97.64"/>
<polygon fill="midnightblue" stroke="midnightblue" points="3004.43,-154.58 2994.52,-158.32 3004.6,-161.58 3004.43,-154.58"/>
</g>
<!-- Node99 -->
<g id="node47" class="node">
<title>Node99</title>
<g id="a_node47"><a xlink:href="d__path_8cpp.html" target="_top" xlink:title=" ">
<polygon fill="white" stroke="black" points="3901,-78.5 3901,-97.5 3990,-97.5 3990,-78.5 3901,-78.5"/>
<text text-anchor="middle" x="3945.5" y="-85.5" font-family="Helvetica,sans-Serif" font-size="10.00">src/d/d_path.cpp</text>
</a>
</g>
</g>
<!-- Node24&#45;&gt;Node99 -->
<g id="edge52" class="edge">
<title>Node24&#45;&gt;Node99</title>
<path fill="none" stroke="midnightblue" d="M3004.76,-158.59C3190.82,-155.6 3721.49,-144.15 3891.5,-109 3903.44,-106.53 3916.27,-101.87 3926.42,-97.67"/>
<polygon fill="midnightblue" stroke="midnightblue" points="3004.52,-155.1 2994.58,-158.75 3004.63,-162.1 3004.52,-155.1"/>
</g>
<!-- Node101 -->
<g id="node48" class="node">
<title>Node101</title>
<g id="a_node48"><a xlink:href="d__simple__model_8cpp.html" target="_top" xlink:title=" ">
<polygon fill="white" stroke="black" points="4008.5,-78.5 4008.5,-97.5 4138.5,-97.5 4138.5,-78.5 4008.5,-78.5"/>
<text text-anchor="middle" x="4073.5" y="-85.5" font-family="Helvetica,sans-Serif" font-size="10.00">src/d/d_simple_model.cpp</text>
</a>
</g>
</g>
<!-- Node24&#45;&gt;Node101 -->
<g id="edge54" class="edge">
<title>Node24&#45;&gt;Node101</title>
<path fill="none" stroke="midnightblue" d="M3004.71,-158.24C3204.49,-154.09 3806.29,-139.34 3999.5,-109 4015.67,-106.46 4033.39,-101.74 4047.43,-97.53"/>
<polygon fill="midnightblue" stroke="midnightblue" points="3004.58,-154.74 2994.65,-158.45 3004.72,-161.74 3004.58,-154.74"/>
</g>
<!-- Node102 -->
<g id="node49" class="node">
<title>Node102</title>
<g id="a_node49"><a xlink:href="d__stage_8cpp.html" target="_top" xlink:title=" ">
<polygon fill="white" stroke="black" points="4156.5,-78.5 4156.5,-97.5 4250.5,-97.5 4250.5,-78.5 4156.5,-78.5"/>
<text text-anchor="middle" x="4203.5" y="-85.5" font-family="Helvetica,sans-Serif" font-size="10.00">src/d/d_stage.cpp</text>
</a>
</g>
</g>
<!-- Node24&#45;&gt;Node102 -->
<g id="edge55" class="edge">
<title>Node24&#45;&gt;Node102</title>
<path fill="none" stroke="midnightblue" d="M3004.85,-159.35C3223.14,-158.45 3925.8,-152.19 4147.5,-109 4160.07,-106.55 4173.6,-101.78 4184.21,-97.52"/>
<polygon fill="midnightblue" stroke="midnightblue" points="3004.81,-155.85 2994.83,-159.39 3004.84,-162.85 3004.81,-155.85"/>
</g>
<!-- Node36&#45;&gt;Node10 -->
<g id="edge14" class="edge">
<title>Node36&#45;&gt;Node10</title>
<path fill="none" stroke="midnightblue" d="M4948.4,-75.32C4939.64,-72.5 4930.25,-69.57 4921.5,-67 4867.19,-51.07 4803.55,-34.7 4765.16,-25.07"/>
<polygon fill="midnightblue" stroke="midnightblue" points="4947.36,-78.66 4957.95,-78.42 4949.53,-72 4947.36,-78.66"/>
</g>
<!-- Node36&#45;&gt;Node37 -->
<g id="edge15" class="edge">
<title>Node36&#45;&gt;Node37</title>
<path fill="none" stroke="midnightblue" d="M4963.15,-72.36C4943.37,-58.13 4913.98,-36.99 4897.62,-25.22"/>
<polygon fill="midnightblue" stroke="midnightblue" points="4961.32,-75.36 4971.48,-78.36 4965.41,-69.67 4961.32,-75.36"/>
</g>
<!-- Node36&#45;&gt;Node38 -->
<g id="edge16" class="edge">
<title>Node36&#45;&gt;Node38</title>
<path fill="none" stroke="midnightblue" d="M4993.03,-69.32C4999.49,-57.34 5007.91,-41.72 5013.91,-30.58"/>
<polygon fill="midnightblue" stroke="midnightblue" points="4989.82,-67.89 4988.16,-78.36 4995.99,-71.21 4989.82,-67.89"/>
</g>
<!-- Node57&#45;&gt;Node10 -->
<g id="edge24" class="edge">
<title>Node57&#45;&gt;Node10</title>
<path fill="none" stroke="midnightblue" d="M4657.58,-66.9C4677.51,-53.12 4702.97,-35.53 4717.93,-25.19"/>
<polygon fill="midnightblue" stroke="midnightblue" points="4655.38,-64.17 4649.14,-72.73 4659.36,-69.93 4655.38,-64.17"/>
</g>
<!-- Node57&#45;&gt;Node62 -->
<g id="edge25" class="edge">
<title>Node57&#45;&gt;Node62</title>
<path fill="none" stroke="midnightblue" d="M4612.23,-64.51C4602.62,-51.23 4591,-35.16 4583.93,-25.39"/>
<polygon fill="midnightblue" stroke="midnightblue" points="4609.48,-66.68 4618.18,-72.73 4615.15,-62.58 4609.48,-66.68"/>
</g>
<!-- Node82&#45;&gt;Node83 -->
<g id="edge31" class="edge">
<title>Node82&#45;&gt;Node83</title>
<path fill="none" stroke="midnightblue" d="M1879.45,-64.13C1887.5,-50.92 1897.17,-35.07 1903.08,-25.39"/>
<polygon fill="midnightblue" stroke="midnightblue" points="1876.42,-62.37 1874.2,-72.73 1882.4,-66.02 1876.42,-62.37"/>
</g>
</g>
</svg>
