<?xml version="1.0" encoding="UTF-8" standalone="no"?>
<!DOCTYPE svg PUBLIC "-//W3C//DTD SVG 1.1//EN"
 "http://www.w3.org/Graphics/SVG/1.1/DTD/svg11.dtd">
<!-- Generated by graphviz version 3.0.0 (20221109.1736)
 -->
<!-- Title: include/JSystem/J3DGraphBase/J3DTevs.h Pages: 1 -->
<svg width="4554pt" height="385pt"
 viewBox="0.00 0.00 4553.50 385.00" xmlns="http://www.w3.org/2000/svg" xmlns:xlink="http://www.w3.org/1999/xlink">
<g id="graph0" class="graph" transform="scale(1 1) rotate(0) translate(4 381)">
<title>include/JSystem/J3DGraphBase/J3DTevs.h</title>
<polygon fill="white" stroke="transparent" points="-4,4 -4,-381 4549.5,-381 4549.5,4 -4,4"/>
<!-- Node1 -->
<g id="node1" class="node">
<title>Node1</title>
<g id="a_node1"><a xlink:title=" ">
<polygon fill="#bfbfbf" stroke="black" points="880,-346.5 880,-376.5 1015,-376.5 1015,-346.5 880,-346.5"/>
<text text-anchor="start" x="888" y="-364.5" font-family="Helvetica,sans-Serif" font-size="10.00">include/JSystem/J3DGraph</text>
<text text-anchor="middle" x="947.5" y="-353.5" font-family="Helvetica,sans-Serif" font-size="10.00">Base/J3DTevs.h</text>
</a>
</g>
</g>
<!-- Node2 -->
<g id="node2" class="node">
<title>Node2</title>
<g id="a_node2"><a xlink:href="J3DMatBlock_8h.html" target="_top" xlink:title=" ">
<polygon fill="white" stroke="black" points="715,-279.5 715,-309.5 850,-309.5 850,-279.5 715,-279.5"/>
<text text-anchor="start" x="723" y="-297.5" font-family="Helvetica,sans-Serif" font-size="10.00">include/JSystem/J3DGraph</text>
<text text-anchor="middle" x="782.5" y="-286.5" font-family="Helvetica,sans-Serif" font-size="10.00">Base/J3DMatBlock.h</text>
</a>
</g>
</g>
<!-- Node1&#45;&gt;Node2 -->
<g id="edge1" class="edge">
<title>Node1&#45;&gt;Node2</title>
<path fill="none" stroke="midnightblue" d="M902.27,-342.68C875.81,-332.26 842.87,-319.28 818.23,-309.58"/>
<polygon fill="midnightblue" stroke="midnightblue" points="901.11,-345.99 911.7,-346.4 903.68,-339.47 901.11,-345.99"/>
</g>
<!-- Node3 -->
<g id="node3" class="node">
<title>Node3</title>
<g id="a_node3"><a xlink:href="J3DMaterial_8h.html" target="_top" xlink:title=" ">
<polygon fill="white" stroke="black" points="503,-212.5 503,-242.5 638,-242.5 638,-212.5 503,-212.5"/>
<text text-anchor="start" x="511" y="-230.5" font-family="Helvetica,sans-Serif" font-size="10.00">include/JSystem/J3DGraph</text>
<text text-anchor="middle" x="570.5" y="-219.5" font-family="Helvetica,sans-Serif" font-size="10.00">Base/J3DMaterial.h</text>
</a>
</g>
</g>
<!-- Node1&#45;&gt;Node3 -->
<g id="edge54" class="edge">
<title>Node1&#45;&gt;Node3</title>
<path fill="none" stroke="midnightblue" d="M869.75,-356.39C812.94,-351.01 735.2,-338.6 672.5,-310 636.2,-293.45 601.6,-261.13 583.52,-242.55"/>
<polygon fill="midnightblue" stroke="midnightblue" points="869.48,-359.88 879.75,-357.28 870.1,-352.91 869.48,-359.88"/>
</g>
<!-- Node101 -->
<g id="node10" class="node">
<title>Node101</title>
<g id="a_node10"><a xlink:href="d__resorce_8cpp.html" target="_top" xlink:title=" ">
<polygon fill="white" stroke="black" points="616.5,-78.5 616.5,-97.5 718.5,-97.5 718.5,-78.5 616.5,-78.5"/>
<text text-anchor="middle" x="667.5" y="-85.5" font-family="Helvetica,sans-Serif" font-size="10.00">src/d/d_resorce.cpp</text>
</a>
</g>
</g>
<!-- Node1&#45;&gt;Node101 -->
<g id="edge58" class="edge">
<title>Node1&#45;&gt;Node101</title>
<path fill="none" stroke="midnightblue" d="M869.65,-353.7C807.75,-346.63 727.95,-333.26 705.5,-310 646.29,-248.65 660.58,-130.53 665.94,-97.67"/>
<polygon fill="midnightblue" stroke="midnightblue" points="869.48,-357.2 879.8,-354.82 870.25,-350.24 869.48,-357.2"/>
</g>
<!-- Node214 -->
<g id="node47" class="node">
<title>Node214</title>
<g id="a_node47"><a xlink:href="J3DMaterialAttach_8cpp.html" target="_top" xlink:title=" ">
<polygon fill="white" stroke="black" points="868.5,-279.5 868.5,-309.5 1026.5,-309.5 1026.5,-279.5 868.5,-279.5"/>
<text text-anchor="start" x="876.5" y="-297.5" font-family="Helvetica,sans-Serif" font-size="10.00">libs/JSystem/J3DGraphAnimator</text>
<text text-anchor="middle" x="947.5" y="-286.5" font-family="Helvetica,sans-Serif" font-size="10.00">/J3DMaterialAttach.cpp</text>
</a>
</g>
</g>
<!-- Node1&#45;&gt;Node214 -->
<g id="edge55" class="edge">
<title>Node1&#45;&gt;Node214</title>
<path fill="none" stroke="midnightblue" d="M947.5,-336.11C947.5,-327.15 947.5,-317.32 947.5,-309.58"/>
<polygon fill="midnightblue" stroke="midnightblue" points="944,-336.4 947.5,-346.4 951,-336.4 944,-336.4"/>
</g>
<!-- Node291 -->
<g id="node48" class="node">
<title>Node291</title>
<g id="a_node48"><a xlink:href="J3DSys_8cpp.html" target="_top" xlink:title=" ">
<polygon fill="white" stroke="black" points="1044.5,-279.5 1044.5,-309.5 1186.5,-309.5 1186.5,-279.5 1044.5,-279.5"/>
<text text-anchor="start" x="1052.5" y="-297.5" font-family="Helvetica,sans-Serif" font-size="10.00">libs/JSystem/J3DGraphBase</text>
<text text-anchor="middle" x="1115.5" y="-286.5" font-family="Helvetica,sans-Serif" font-size="10.00">/J3DSys.cpp</text>
</a>
</g>
</g>
<!-- Node1&#45;&gt;Node291 -->
<g id="edge56" class="edge">
<title>Node1&#45;&gt;Node291</title>
<path fill="none" stroke="midnightblue" d="M993.55,-342.68C1020.5,-332.26 1054.04,-319.28 1079.12,-309.58"/>
<polygon fill="midnightblue" stroke="midnightblue" points="992.02,-339.52 983.95,-346.4 994.54,-346.05 992.02,-339.52"/>
</g>
<!-- Node292 -->
<g id="node49" class="node">
<title>Node292</title>
<g id="a_node49"><a xlink:href="J3DTevs_8cpp.html" target="_top" xlink:title=" ">
<polygon fill="white" stroke="black" points="1204.5,-279.5 1204.5,-309.5 1346.5,-309.5 1346.5,-279.5 1204.5,-279.5"/>
<text text-anchor="start" x="1212.5" y="-297.5" font-family="Helvetica,sans-Serif" font-size="10.00">libs/JSystem/J3DGraphBase</text>
<text text-anchor="middle" x="1275.5" y="-286.5" font-family="Helvetica,sans-Serif" font-size="10.00">/J3DTevs.cpp</text>
</a>
</g>
</g>
<!-- Node1&#45;&gt;Node292 -->
<g id="edge57" class="edge">
<title>Node1&#45;&gt;Node292</title>
<path fill="none" stroke="midnightblue" d="M1025.01,-345.14C1079.46,-334.35 1151.71,-320.03 1204.62,-309.55"/>
<polygon fill="midnightblue" stroke="midnightblue" points="1024.19,-341.73 1015.06,-347.11 1025.55,-348.6 1024.19,-341.73"/>
</g>
<!-- Node217 -->
<g id="node50" class="node">
<title>Node217</title>
<g id="a_node50"><a xlink:href="m__Do__ext_8cpp.html" target="_top" xlink:title=" ">
<polygon fill="white" stroke="black" points="1365,-285 1365,-304 1488,-304 1488,-285 1365,-285"/>
<text text-anchor="middle" x="1426.5" y="-292" font-family="Helvetica,sans-Serif" font-size="10.00">src/m_Do/m_Do_ext.cpp</text>
</a>
</g>
</g>
<!-- Node1&#45;&gt;Node217 -->
<g id="edge59" class="edge">
<title>Node1&#45;&gt;Node217</title>
<path fill="none" stroke="midnightblue" d="M1025.26,-352.71C1107.54,-344.03 1241.06,-328.74 1355.5,-310 1365.93,-308.29 1377.16,-306.14 1387.54,-304.03"/>
<polygon fill="midnightblue" stroke="midnightblue" points="1024.81,-349.23 1015.23,-353.76 1025.54,-356.2 1024.81,-349.23"/>
</g>
<!-- Node2&#45;&gt;Node3 -->
<g id="edge2" class="edge">
<title>Node2&#45;&gt;Node3</title>
<path fill="none" stroke="midnightblue" d="M726.87,-276.44C692.51,-265.91 648.94,-252.55 616.52,-242.61"/>
<polygon fill="midnightblue" stroke="midnightblue" points="726.17,-279.89 736.76,-279.48 728.23,-273.2 726.17,-279.89"/>
</g>
<!-- Node24 -->
<g id="node11" class="node">
<title>Node24</title>
<g id="a_node11"><a xlink:href="d__a__alink_8h.html" target="_top" xlink:title=" ">
<polygon fill="white" stroke="black" points="719.5,-218 719.5,-237 835.5,-237 835.5,-218 719.5,-218"/>
<text text-anchor="middle" x="777.5" y="-225" font-family="Helvetica,sans-Serif" font-size="10.00">include/d/a/d_a_alink.h</text>
</a>
</g>
</g>
<!-- Node2&#45;&gt;Node24 -->
<g id="edge10" class="edge">
<title>Node2&#45;&gt;Node24</title>
<path fill="none" stroke="midnightblue" d="M780.63,-269.25C779.77,-258.02 778.8,-245.38 778.17,-237.19"/>
<polygon fill="midnightblue" stroke="midnightblue" points="777.16,-269.69 781.42,-279.4 784.14,-269.16 777.16,-269.69"/>
</g>
<!-- Node290 -->
<g id="node46" class="node">
<title>Node290</title>
<g id="a_node46"><a xlink:href="J3DMatBlock_8cpp.html" target="_top" xlink:title=" ">
<polygon fill="white" stroke="black" points="853.5,-212.5 853.5,-242.5 995.5,-242.5 995.5,-212.5 853.5,-212.5"/>
<text text-anchor="start" x="861.5" y="-230.5" font-family="Helvetica,sans-Serif" font-size="10.00">libs/JSystem/J3DGraphBase</text>
<text text-anchor="middle" x="924.5" y="-219.5" font-family="Helvetica,sans-Serif" font-size="10.00">/J3DMatBlock.cpp</text>
</a>
</g>
</g>
<!-- Node2&#45;&gt;Node290 -->
<g id="edge53" class="edge">
<title>Node2&#45;&gt;Node290</title>
<path fill="none" stroke="midnightblue" d="M822.63,-275.13C845.19,-264.8 872.92,-252.11 893.75,-242.58"/>
<polygon fill="midnightblue" stroke="midnightblue" points="820.95,-272.05 813.31,-279.4 823.86,-278.42 820.95,-272.05"/>
</g>
<!-- Node4 -->
<g id="node4" class="node">
<title>Node4</title>
<g id="a_node4"><a xlink:href="J3DJoint_8h.html" target="_top" xlink:title=" ">
<polygon fill="white" stroke="black" points="165,-145.5 165,-175.5 300,-175.5 300,-145.5 165,-145.5"/>
<text text-anchor="start" x="173" y="-163.5" font-family="Helvetica,sans-Serif" font-size="10.00">include/JSystem/J3DGraph</text>
<text text-anchor="middle" x="232.5" y="-152.5" font-family="Helvetica,sans-Serif" font-size="10.00">Animator/J3DJoint.h</text>
</a>
</g>
</g>
<!-- Node3&#45;&gt;Node4 -->
<g id="edge3" class="edge">
<title>Node3&#45;&gt;Node4</title>
<path fill="none" stroke="midnightblue" d="M493.03,-211.6C434.85,-200.41 355.94,-185.24 300.26,-174.53"/>
<polygon fill="midnightblue" stroke="midnightblue" points="492.43,-215.05 502.91,-213.5 493.75,-208.18 492.43,-215.05"/>
</g>
<!-- Node289 -->
<g id="node8" class="node">
<title>Node289</title>
<g id="a_node8"><a xlink:href="J3DMaterial_8cpp.html" target="_top" xlink:title=" ">
<polygon fill="white" stroke="black" points="318.5,-145.5 318.5,-175.5 460.5,-175.5 460.5,-145.5 318.5,-145.5"/>
<text text-anchor="start" x="326.5" y="-163.5" font-family="Helvetica,sans-Serif" font-size="10.00">libs/JSystem/J3DGraphBase</text>
<text text-anchor="middle" x="389.5" y="-152.5" font-family="Helvetica,sans-Serif" font-size="10.00">/J3DMaterial.cpp</text>
</a>
</g>
</g>
<!-- Node3&#45;&gt;Node289 -->
<g id="edge7" class="edge">
<title>Node3&#45;&gt;Node289</title>
<path fill="none" stroke="midnightblue" d="M521.64,-208.96C492.49,-198.48 455.96,-185.37 428.7,-175.58"/>
<polygon fill="midnightblue" stroke="midnightblue" points="520.63,-212.31 531.23,-212.4 523,-205.72 520.63,-212.31"/>
</g>
<!-- Node278 -->
<g id="node9" class="node">
<title>Node278</title>
<g id="a_node9"><a xlink:href="J3DPacket_8cpp.html" target="_top" xlink:title=" ">
<polygon fill="white" stroke="black" points="478.5,-145.5 478.5,-175.5 620.5,-175.5 620.5,-145.5 478.5,-145.5"/>
<text text-anchor="start" x="486.5" y="-163.5" font-family="Helvetica,sans-Serif" font-size="10.00">libs/JSystem/J3DGraphBase</text>
<text text-anchor="middle" x="549.5" y="-152.5" font-family="Helvetica,sans-Serif" font-size="10.00">/J3DPacket.cpp</text>
</a>
</g>
</g>
<!-- Node3&#45;&gt;Node278 -->
<g id="edge8" class="edge">
<title>Node3&#45;&gt;Node278</title>
<path fill="none" stroke="midnightblue" d="M562.81,-202.7C559.87,-193.59 556.61,-183.49 554.05,-175.58"/>
<polygon fill="midnightblue" stroke="midnightblue" points="559.54,-203.96 565.94,-212.4 566.2,-201.8 559.54,-203.96"/>
</g>
<!-- Node3&#45;&gt;Node101 -->
<g id="edge9" class="edge">
<title>Node3&#45;&gt;Node101</title>
<path fill="none" stroke="midnightblue" d="M599.57,-206C609.99,-197.59 621.21,-187.2 629.5,-176 648.33,-150.57 660.29,-114.35 665.09,-97.83"/>
<polygon fill="midnightblue" stroke="midnightblue" points="597.21,-203.4 591.45,-212.29 601.49,-208.93 597.21,-203.4"/>
</g>
<!-- Node5 -->
<g id="node5" class="node">
<title>Node5</title>
<g id="a_node5"><a xlink:href="J3DJointTree_8h.html" target="_top" xlink:title=" ">
<polygon fill="white" stroke="red" points="0,-73 0,-103 135,-103 135,-73 0,-73"/>
<text text-anchor="start" x="8" y="-91" font-family="Helvetica,sans-Serif" font-size="10.00">include/JSystem/J3DGraph</text>
<text text-anchor="middle" x="67.5" y="-80" font-family="Helvetica,sans-Serif" font-size="10.00">Animator/J3DJointTree.h</text>
</a>
</g>
</g>
<!-- Node4&#45;&gt;Node5 -->
<g id="edge4" class="edge">
<title>Node4&#45;&gt;Node5</title>
<path fill="none" stroke="midnightblue" d="M190.01,-141.34C162.11,-129.42 126.16,-114.07 100.44,-103.07"/>
<polygon fill="midnightblue" stroke="midnightblue" points="188.94,-144.69 199.51,-145.4 191.69,-138.26 188.94,-144.69"/>
</g>
<!-- Node283 -->
<g id="node6" class="node">
<title>Node283</title>
<g id="a_node6"><a xlink:href="J3DJoint_8cpp.html" target="_top" xlink:title=" ">
<polygon fill="white" stroke="black" points="153.5,-73 153.5,-103 311.5,-103 311.5,-73 153.5,-73"/>
<text text-anchor="start" x="161.5" y="-91" font-family="Helvetica,sans-Serif" font-size="10.00">libs/JSystem/J3DGraphAnimator</text>
<text text-anchor="middle" x="232.5" y="-80" font-family="Helvetica,sans-Serif" font-size="10.00">/J3DJoint.cpp</text>
</a>
</g>
</g>
<!-- Node4&#45;&gt;Node283 -->
<g id="edge5" class="edge">
<title>Node4&#45;&gt;Node283</title>
<path fill="none" stroke="midnightblue" d="M232.5,-135.23C232.5,-124.57 232.5,-112.41 232.5,-103.25"/>
<polygon fill="midnightblue" stroke="midnightblue" points="229,-135.23 232.5,-145.23 236,-135.23 229,-135.23"/>
</g>
<!-- Node288 -->
<g id="node7" class="node">
<title>Node288</title>
<g id="a_node7"><a xlink:href="J3DJointFactory_8cpp.html" target="_top" xlink:title=" ">
<polygon fill="white" stroke="black" points="329,-73 329,-103 478,-103 478,-73 329,-73"/>
<text text-anchor="start" x="337" y="-91" font-family="Helvetica,sans-Serif" font-size="10.00">libs/JSystem/J3DGraphLoader</text>
<text text-anchor="middle" x="403.5" y="-80" font-family="Helvetica,sans-Serif" font-size="10.00">/J3DJointFactory.cpp</text>
</a>
</g>
</g>
<!-- Node4&#45;&gt;Node288 -->
<g id="edge6" class="edge">
<title>Node4&#45;&gt;Node288</title>
<path fill="none" stroke="midnightblue" d="M276.16,-141.5C305.12,-129.56 342.59,-114.11 369.37,-103.07"/>
<polygon fill="midnightblue" stroke="midnightblue" points="274.6,-138.36 266.69,-145.4 277.27,-144.83 274.6,-138.36"/>
</g>
<!-- Node25 -->
<g id="node12" class="node">
<title>Node25</title>
<g id="a_node12"><a xlink:href="d__com__inf__game_8h.html" target="_top" xlink:title=" ">
<polygon fill="white" stroke="red" points="2308.5,-145.5 2308.5,-175.5 2418.5,-175.5 2418.5,-145.5 2308.5,-145.5"/>
<text text-anchor="start" x="2316.5" y="-163.5" font-family="Helvetica,sans-Serif" font-size="10.00">include/d/com/d_com</text>
<text text-anchor="middle" x="2363.5" y="-152.5" font-family="Helvetica,sans-Serif" font-size="10.00">_inf_game.h</text>
</a>
</g>
</g>
<!-- Node24&#45;&gt;Node25 -->
<g id="edge11" class="edge">
<title>Node24&#45;&gt;Node25</title>
<path fill="none" stroke="midnightblue" d="M821.29,-215.84C828.98,-214.31 836.94,-212.94 844.5,-212 1136.31,-175.87 2071.35,-164.37 2308.44,-162"/>
<polygon fill="midnightblue" stroke="midnightblue" points="820.45,-212.44 811.38,-217.93 821.89,-219.29 820.45,-212.44"/>
</g>
<!-- Node11 -->
<g id="node16" class="node">
<title>Node11</title>
<g id="a_node16"><a xlink:href="d__a__alink_8cpp.html" target="_top" xlink:title=" ">
<polygon fill="white" stroke="black" points="994,-6 994,-25 1103,-25 1103,-6 994,-6"/>
<text text-anchor="middle" x="1048.5" y="-13" font-family="Helvetica,sans-Serif" font-size="10.00">src/d/a/d_a_alink.cpp</text>
</a>
</g>
</g>
<!-- Node24&#45;&gt;Node11 -->
<g id="edge52" class="edge">
<title>Node24&#45;&gt;Node11</title>
<path fill="none" stroke="midnightblue" d="M769.05,-208.89C754.96,-176.65 731.4,-107.73 765.5,-67 794.06,-32.9 920.05,-21.8 993.95,-18.21"/>
<polygon fill="midnightblue" stroke="midnightblue" points="765.87,-210.34 773.21,-217.98 772.24,-207.43 765.87,-210.34"/>
</g>
<!-- Node25&#45;&gt;Node101 -->
<g id="edge51" class="edge">
<title>Node25&#45;&gt;Node101</title>
<path fill="none" stroke="midnightblue" d="M2298.44,-158.92C2037.96,-156.36 1069.86,-144.61 765.5,-109 744.29,-106.52 720.83,-101.8 702.19,-97.58"/>
<polygon fill="midnightblue" stroke="midnightblue" points="2298.46,-162.42 2308.49,-159.02 2298.53,-155.42 2298.46,-162.42"/>
</g>
<!-- Node26 -->
<g id="node13" class="node">
<title>Node26</title>
<g id="a_node13"><a xlink:href="d__a__npc_8h.html" target="_top" xlink:title=" ">
<polygon fill="white" stroke="red" points="775,-78.5 775,-97.5 886,-97.5 886,-78.5 775,-78.5"/>
<text text-anchor="middle" x="830.5" y="-85.5" font-family="Helvetica,sans-Serif" font-size="10.00">include/d/a/d_a_npc.h</text>
</a>
</g>
</g>
<!-- Node25&#45;&gt;Node26 -->
<g id="edge12" class="edge">
<title>Node25&#45;&gt;Node26</title>
<path fill="none" stroke="midnightblue" d="M2297.92,-159.58C2050.01,-159.52 1170.09,-155.92 894.5,-109 880.27,-106.58 864.81,-101.81 852.65,-97.54"/>
<polygon fill="midnightblue" stroke="midnightblue" points="2298.21,-163.08 2308.21,-159.58 2298.21,-156.08 2298.21,-163.08"/>
</g>
<!-- Node32 -->
<g id="node14" class="node">
<title>Node32</title>
<g id="a_node14"><a xlink:href="d__cc__uty_8h.html" target="_top" xlink:title=" ">
<polygon fill="white" stroke="red" points="904,-78.5 904,-97.5 1023,-97.5 1023,-78.5 904,-78.5"/>
<text text-anchor="middle" x="963.5" y="-85.5" font-family="Helvetica,sans-Serif" font-size="10.00">include/d/cc/d_cc_uty.h</text>
</a>
</g>
</g>
<!-- Node25&#45;&gt;Node32 -->
<g id="edge13" class="edge">
<title>Node25&#45;&gt;Node32</title>
<path fill="none" stroke="midnightblue" d="M2297.88,-158.96C2065.83,-156.75 1284.66,-146.61 1037.5,-109 1021.32,-106.54 1003.6,-101.82 989.56,-97.59"/>
<polygon fill="midnightblue" stroke="midnightblue" points="2298.16,-162.46 2308.19,-159.06 2298.22,-155.46 2298.16,-162.46"/>
</g>
<!-- Node37 -->
<g id="node15" class="node">
<title>Node37</title>
<g id="a_node15"><a xlink:href="d__item_8h.html" target="_top" xlink:title=" ">
<polygon fill="white" stroke="red" points="1246,-78.5 1246,-97.5 1341,-97.5 1341,-78.5 1246,-78.5"/>
<text text-anchor="middle" x="1293.5" y="-85.5" font-family="Helvetica,sans-Serif" font-size="10.00">include/d/d_item.h</text>
</a>
</g>
</g>
<!-- Node25&#45;&gt;Node37 -->
<g id="edge14" class="edge">
<title>Node25&#45;&gt;Node37</title>
<path fill="none" stroke="midnightblue" d="M2298.47,-158.46C2105.38,-155.04 1537.53,-142.32 1355.5,-109 1341.82,-106.5 1326.97,-101.78 1315.24,-97.56"/>
<polygon fill="midnightblue" stroke="midnightblue" points="2298.41,-161.96 2308.47,-158.64 2298.54,-154.96 2298.41,-161.96"/>
</g>
<!-- Node25&#45;&gt;Node11 -->
<g id="edge36" class="edge">
<title>Node25&#45;&gt;Node11</title>
<path fill="none" stroke="midnightblue" d="M2297.94,-159.12C2041.52,-157.36 1118.29,-148.29 1070.5,-109 1045.13,-88.14 1045.91,-43.82 1047.51,-25.11"/>
<polygon fill="midnightblue" stroke="midnightblue" points="2298.19,-162.62 2308.21,-159.19 2298.24,-155.62 2298.19,-162.62"/>
</g>
<!-- Node38 -->
<g id="node17" class="node">
<title>Node38</title>
<g id="a_node17"><a xlink:href="d__a__obj__item_8cpp.html" target="_top" xlink:title=" ">
<polygon fill="white" stroke="black" points="1234,-6 1234,-25 1359,-25 1359,-6 1234,-6"/>
<text text-anchor="middle" x="1296.5" y="-13" font-family="Helvetica,sans-Serif" font-size="10.00">src/d/a/d_a_obj_item.cpp</text>
</a>
</g>
</g>
<!-- Node25&#45;&gt;Node38 -->
<g id="edge39" class="edge">
<title>Node25&#45;&gt;Node38</title>
<path fill="none" stroke="midnightblue" d="M2298.35,-158.36C2097.07,-154.51 1493.74,-140.45 1411.5,-109 1387.09,-99.67 1328.56,-46.47 1305.79,-25.24"/>
<polygon fill="midnightblue" stroke="midnightblue" points="2298.41,-161.86 2308.48,-158.55 2298.54,-154.86 2298.41,-161.86"/>
</g>
<!-- Node39 -->
<g id="node18" class="node">
<title>Node39</title>
<g id="a_node18"><a xlink:href="d__com__inf__game_8cpp.html" target="_top" xlink:title=" ">
<polygon fill="white" stroke="black" points="1377.5,-0.5 1377.5,-30.5 1485.5,-30.5 1485.5,-0.5 1377.5,-0.5"/>
<text text-anchor="start" x="1385.5" y="-18.5" font-family="Helvetica,sans-Serif" font-size="10.00">src/d/com/d_com_inf</text>
<text text-anchor="middle" x="1431.5" y="-7.5" font-family="Helvetica,sans-Serif" font-size="10.00">_game.cpp</text>
</a>
</g>
</g>
<!-- Node25&#45;&gt;Node39 -->
<g id="edge45" class="edge">
<title>Node25&#45;&gt;Node39</title>
<path fill="none" stroke="midnightblue" d="M2298.21,-158.42C2090.45,-154.65 1456.46,-140.62 1426.5,-109 1406.59,-87.99 1417.15,-50.79 1425.18,-30.56"/>
<polygon fill="midnightblue" stroke="midnightblue" points="2298.3,-161.92 2308.36,-158.6 2298.43,-154.92 2298.3,-161.92"/>
</g>
<!-- Node42 -->
<g id="node19" class="node">
<title>Node42</title>
<g id="a_node19"><a xlink:href="d__kantera__icon__meter_8h.html" target="_top" xlink:title=" ">
<polygon fill="white" stroke="red" points="1436,-73 1436,-103 1537,-103 1537,-73 1436,-73"/>
<text text-anchor="start" x="1444" y="-91" font-family="Helvetica,sans-Serif" font-size="10.00">include/d/d_kantera</text>
<text text-anchor="middle" x="1486.5" y="-80" font-family="Helvetica,sans-Serif" font-size="10.00">_icon_meter.h</text>
</a>
</g>
</g>
<!-- Node25&#45;&gt;Node42 -->
<g id="edge18" class="edge">
<title>Node25&#45;&gt;Node42</title>
<path fill="none" stroke="midnightblue" d="M2298.08,-157.7C2130.55,-152.72 1689.17,-137.26 1545.5,-109 1538.07,-107.54 1530.29,-105.38 1522.91,-103.02"/>
<polygon fill="midnightblue" stroke="midnightblue" points="2298.14,-161.2 2308.24,-158 2298.35,-154.2 2298.14,-161.2"/>
</g>
<!-- Node44 -->
<g id="node20" class="node">
<title>Node44</title>
<g id="a_node20"><a xlink:href="d__model_8h.html" target="_top" xlink:title=" ">
<polygon fill="white" stroke="red" points="1555,-78.5 1555,-97.5 1658,-97.5 1658,-78.5 1555,-78.5"/>
<text text-anchor="middle" x="1606.5" y="-85.5" font-family="Helvetica,sans-Serif" font-size="10.00">include/d/d_model.h</text>
</a>
</g>
</g>
<!-- Node25&#45;&gt;Node44 -->
<g id="edge19" class="edge">
<title>Node25&#45;&gt;Node44</title>
<path fill="none" stroke="midnightblue" d="M2298.21,-160.05C2174.1,-159.92 1896.13,-154.07 1667.5,-109 1654.16,-106.37 1639.68,-101.7 1628.18,-97.54"/>
<polygon fill="midnightblue" stroke="midnightblue" points="2298.3,-163.55 2308.3,-160.04 2298.3,-156.55 2298.3,-163.55"/>
</g>
<!-- Node46 -->
<g id="node21" class="node">
<title>Node46</title>
<g id="a_node21"><a xlink:href="d__name_8h.html" target="_top" xlink:title=" ">
<polygon fill="white" stroke="red" points="1676,-78.5 1676,-97.5 1777,-97.5 1777,-78.5 1676,-78.5"/>
<text text-anchor="middle" x="1726.5" y="-85.5" font-family="Helvetica,sans-Serif" font-size="10.00">include/d/d_name.h</text>
</a>
</g>
</g>
<!-- Node25&#45;&gt;Node46 -->
<g id="edge20" class="edge">
<title>Node25&#45;&gt;Node46</title>
<path fill="none" stroke="midnightblue" d="M2298.33,-158.75C2190.67,-156.41 1969.4,-146.94 1786.5,-109 1773.49,-106.3 1759.38,-101.69 1748.11,-97.57"/>
<polygon fill="midnightblue" stroke="midnightblue" points="2298.32,-162.25 2308.39,-158.95 2298.46,-155.25 2298.32,-162.25"/>
</g>
<!-- Node47 -->
<g id="node22" class="node">
<title>Node47</title>
<g id="a_node22"><a xlink:href="d__file__sel__info_8h.html" target="_top" xlink:title=" ">
<polygon fill="white" stroke="red" points="1795.5,-73 1795.5,-103 1891.5,-103 1891.5,-73 1795.5,-73"/>
<text text-anchor="start" x="1803.5" y="-91" font-family="Helvetica,sans-Serif" font-size="10.00">include/d/file/d_file</text>
<text text-anchor="middle" x="1843.5" y="-80" font-family="Helvetica,sans-Serif" font-size="10.00">_sel_info.h</text>
</a>
</g>
</g>
<!-- Node25&#45;&gt;Node47 -->
<g id="edge21" class="edge">
<title>Node25&#45;&gt;Node47</title>
<path fill="none" stroke="midnightblue" d="M2298.21,-157.08C2207.85,-152.67 2040.02,-140.65 1900.5,-109 1893.65,-107.45 1886.48,-105.34 1879.63,-103.07"/>
<polygon fill="midnightblue" stroke="midnightblue" points="2298.15,-160.58 2308.3,-157.56 2298.48,-153.59 2298.15,-160.58"/>
</g>
<!-- Node49 -->
<g id="node23" class="node">
<title>Node49</title>
<g id="a_node23"><a xlink:href="d__file__sel__warning_8h.html" target="_top" xlink:title=" ">
<polygon fill="white" stroke="red" points="1909.5,-73 1909.5,-103 2005.5,-103 2005.5,-73 1909.5,-73"/>
<text text-anchor="start" x="1917.5" y="-91" font-family="Helvetica,sans-Serif" font-size="10.00">include/d/file/d_file</text>
<text text-anchor="middle" x="1957.5" y="-80" font-family="Helvetica,sans-Serif" font-size="10.00">_sel_warning.h</text>
</a>
</g>
</g>
<!-- Node25&#45;&gt;Node49 -->
<g id="edge22" class="edge">
<title>Node25&#45;&gt;Node49</title>
<path fill="none" stroke="midnightblue" d="M2298.38,-153.88C2227.73,-146.91 2111.97,-132.91 2014.5,-109 2007.88,-107.38 2000.95,-105.29 1994.29,-103.07"/>
<polygon fill="midnightblue" stroke="midnightblue" points="2298.17,-157.38 2308.46,-154.86 2298.85,-150.41 2298.17,-157.38"/>
</g>
<!-- Node51 -->
<g id="node24" class="node">
<title>Node51</title>
<g id="a_node24"><a xlink:href="d__meter2_8h.html" target="_top" xlink:title=" ">
<polygon fill="white" stroke="red" points="2023.5,-78.5 2023.5,-97.5 2157.5,-97.5 2157.5,-78.5 2023.5,-78.5"/>
<text text-anchor="middle" x="2090.5" y="-85.5" font-family="Helvetica,sans-Serif" font-size="10.00">include/d/meter/d_meter2.h</text>
</a>
</g>
</g>
<!-- Node25&#45;&gt;Node51 -->
<g id="edge23" class="edge">
<title>Node25&#45;&gt;Node51</title>
<path fill="none" stroke="midnightblue" d="M2299.03,-142.92C2260.79,-133.08 2211.38,-120.35 2167.5,-109 2153.06,-105.26 2137.1,-101.12 2123.47,-97.58"/>
<polygon fill="midnightblue" stroke="midnightblue" points="2298.44,-146.39 2309,-145.49 2300.19,-139.61 2298.44,-146.39"/>
</g>
<!-- Node58 -->
<g id="node25" class="node">
<title>Node58</title>
<g id="a_node25"><a xlink:href="d__msg__object_8h.html" target="_top" xlink:title=" ">
<polygon fill="white" stroke="red" points="1079.5,-73 1079.5,-103 1189.5,-103 1189.5,-73 1079.5,-73"/>
<text text-anchor="start" x="1087.5" y="-91" font-family="Helvetica,sans-Serif" font-size="10.00">include/d/msg/d_msg</text>
<text text-anchor="middle" x="1134.5" y="-80" font-family="Helvetica,sans-Serif" font-size="10.00">_object.h</text>
</a>
</g>
</g>
<!-- Node25&#45;&gt;Node58 -->
<g id="edge24" class="edge">
<title>Node25&#45;&gt;Node58</title>
<path fill="none" stroke="midnightblue" d="M2298.35,-158.71C2086.21,-155.8 1416.7,-144.02 1203.5,-109 1194.88,-107.58 1185.82,-105.45 1177.2,-103.09"/>
<polygon fill="midnightblue" stroke="midnightblue" points="2298.35,-162.21 2308.4,-158.84 2298.45,-155.21 2298.35,-162.21"/>
</g>
<!-- Node63 -->
<g id="node26" class="node">
<title>Node63</title>
<g id="a_node26"><a xlink:href="d__demo_8cpp.html" target="_top" xlink:title=" ">
<polygon fill="white" stroke="black" points="1121.5,-6 1121.5,-25 1215.5,-25 1215.5,-6 1121.5,-6"/>
<text text-anchor="middle" x="1168.5" y="-13" font-family="Helvetica,sans-Serif" font-size="10.00">src/d/d_demo.cpp</text>
</a>
</g>
</g>
<!-- Node25&#45;&gt;Node63 -->
<g id="edge50" class="edge">
<title>Node25&#45;&gt;Node63</title>
<path fill="none" stroke="midnightblue" d="M2298.11,-159.83C2071.72,-160.54 1330.01,-158.98 1236.5,-109 1218.57,-99.42 1186.04,-46.37 1173.56,-25.21"/>
<polygon fill="midnightblue" stroke="midnightblue" points="2298.19,-163.33 2308.18,-159.8 2298.17,-156.33 2298.19,-163.33"/>
</g>
<!-- Node72 -->
<g id="node27" class="node">
<title>Node72</title>
<g id="a_node27"><a xlink:href="d__s__logo_8h.html" target="_top" xlink:title=" ">
<polygon fill="white" stroke="red" points="2176,-78.5 2176,-97.5 2289,-97.5 2289,-78.5 2176,-78.5"/>
<text text-anchor="middle" x="2232.5" y="-85.5" font-family="Helvetica,sans-Serif" font-size="10.00">include/d/s/d_s_logo.h</text>
</a>
</g>
</g>
<!-- Node25&#45;&gt;Node72 -->
<g id="edge27" class="edge">
<title>Node25&#45;&gt;Node72</title>
<path fill="none" stroke="midnightblue" d="M2328.47,-140.65C2302.43,-126.63 2268.11,-108.16 2248.36,-97.53"/>
<polygon fill="midnightblue" stroke="midnightblue" points="2326.84,-143.75 2337.31,-145.4 2330.16,-137.58 2326.84,-143.75"/>
</g>
<!-- Node74 -->
<g id="node28" class="node">
<title>Node74</title>
<g id="a_node28"><a xlink:href="d__s__play_8h.html" target="_top" xlink:title=" ">
<polygon fill="white" stroke="red" points="2307,-78.5 2307,-97.5 2420,-97.5 2420,-78.5 2307,-78.5"/>
<text text-anchor="middle" x="2363.5" y="-85.5" font-family="Helvetica,sans-Serif" font-size="10.00">include/d/s/d_s_play.h</text>
</a>
</g>
</g>
<!-- Node25&#45;&gt;Node74 -->
<g id="edge28" class="edge">
<title>Node25&#45;&gt;Node74</title>
<path fill="none" stroke="midnightblue" d="M2363.5,-135.09C2363.5,-122.21 2363.5,-107.2 2363.5,-97.89"/>
<polygon fill="midnightblue" stroke="midnightblue" points="2360,-135.23 2363.5,-145.23 2367,-135.23 2360,-135.23"/>
</g>
<!-- Node78 -->
<g id="node29" class="node">
<title>Node78</title>
<g id="a_node29"><a xlink:href="d__msg__scrn__base_8h.html" target="_top" xlink:title=" ">
<polygon fill="white" stroke="red" points="2438,-73 2438,-103 2537,-103 2537,-73 2438,-73"/>
<text text-anchor="start" x="2446" y="-91" font-family="Helvetica,sans-Serif" font-size="10.00">include/msg/scrn/d</text>
<text text-anchor="middle" x="2487.5" y="-80" font-family="Helvetica,sans-Serif" font-size="10.00">_msg_scrn_base.h</text>
</a>
</g>
</g>
<!-- Node25&#45;&gt;Node78 -->
<g id="edge29" class="edge">
<title>Node25&#45;&gt;Node78</title>
<path fill="none" stroke="midnightblue" d="M2397.1,-140.4C2417.81,-128.62 2443.92,-113.78 2462.75,-103.07"/>
<polygon fill="midnightblue" stroke="midnightblue" points="2395.26,-137.42 2388.3,-145.4 2398.72,-143.5 2395.26,-137.42"/>
</g>
<!-- Node82 -->
<g id="node30" class="node">
<title>Node82</title>
<g id="a_node30"><a xlink:href="d__a__b__zant_8h.html" target="_top" xlink:title=" ">
<polygon fill="white" stroke="black" points="2555,-73 2555,-103 2676,-103 2676,-73 2555,-73"/>
<text text-anchor="start" x="2563" y="-91" font-family="Helvetica,sans-Serif" font-size="10.00">include/rel/d/a/b/d</text>
<text text-anchor="middle" x="2615.5" y="-80" font-family="Helvetica,sans-Serif" font-size="10.00">_a_b_zant/d_a_b_zant.h</text>
</a>
</g>
</g>
<!-- Node25&#45;&gt;Node82 -->
<g id="edge30" class="edge">
<title>Node25&#45;&gt;Node82</title>
<path fill="none" stroke="midnightblue" d="M2424.96,-142.75C2460.51,-133.01 2506.06,-120.44 2546.5,-109 2553.22,-107.1 2560.3,-105.07 2567.27,-103.07"/>
<polygon fill="midnightblue" stroke="midnightblue" points="2423.94,-139.4 2415.22,-145.42 2425.79,-146.15 2423.94,-139.4"/>
</g>
<!-- Node83 -->
<g id="node31" class="node">
<title>Node83</title>
<g id="a_node31"><a xlink:href="d__a__spinner_8h.html" target="_top" xlink:title=" ">
<polygon fill="white" stroke="black" points="2732.5,-73 2732.5,-103 2848.5,-103 2848.5,-73 2732.5,-73"/>
<text text-anchor="start" x="2740.5" y="-91" font-family="Helvetica,sans-Serif" font-size="10.00">include/rel/d/a/d_a</text>
<text text-anchor="middle" x="2790.5" y="-80" font-family="Helvetica,sans-Serif" font-size="10.00">_spinner/d_a_spinner.h</text>
</a>
</g>
</g>
<!-- Node25&#45;&gt;Node83 -->
<g id="edge31" class="edge">
<title>Node25&#45;&gt;Node83</title>
<path fill="none" stroke="midnightblue" d="M2428.83,-152.78C2500.39,-144.82 2618.31,-129.95 2718.5,-109 2726.63,-107.3 2735.19,-105.2 2743.46,-103.01"/>
<polygon fill="midnightblue" stroke="midnightblue" points="2428.17,-149.33 2418.62,-153.9 2428.94,-156.29 2428.17,-149.33"/>
</g>
<!-- Node84 -->
<g id="node32" class="node">
<title>Node84</title>
<g id="a_node32"><a xlink:href="d__a__player_8cpp.html" target="_top" xlink:title=" ">
<polygon fill="white" stroke="black" points="2690.5,-6 2690.5,-25 2804.5,-25 2804.5,-6 2690.5,-6"/>
<text text-anchor="middle" x="2747.5" y="-13" font-family="Helvetica,sans-Serif" font-size="10.00">src/d/a/d_a_player.cpp</text>
</a>
</g>
</g>
<!-- Node25&#45;&gt;Node84 -->
<g id="edge40" class="edge">
<title>Node25&#45;&gt;Node84</title>
<path fill="none" stroke="midnightblue" d="M2428.93,-155.41C2510.44,-149.26 2644.04,-135.45 2685.5,-109 2702.12,-98.39 2731.62,-45.95 2742.92,-25.09"/>
<polygon fill="midnightblue" stroke="midnightblue" points="2428.49,-151.93 2418.77,-156.15 2429,-158.91 2428.49,-151.93"/>
</g>
<!-- Node85 -->
<g id="node33" class="node">
<title>Node85</title>
<g id="a_node33"><a xlink:href="d__a__obj__yobikusa_8h.html" target="_top" xlink:title=" ">
<polygon fill="white" stroke="black" points="2867,-67.5 2867,-108.5 2972,-108.5 2972,-67.5 2867,-67.5"/>
<text text-anchor="start" x="2875" y="-96.5" font-family="Helvetica,sans-Serif" font-size="10.00">include/rel/d/a/obj</text>
<text text-anchor="start" x="2875" y="-85.5" font-family="Helvetica,sans-Serif" font-size="10.00">/d_a_obj_yobikusa/d</text>
<text text-anchor="middle" x="2919.5" y="-74.5" font-family="Helvetica,sans-Serif" font-size="10.00">_a_obj_yobikusa.h</text>
</a>
</g>
</g>
<!-- Node25&#45;&gt;Node85 -->
<g id="edge33" class="edge">
<title>Node25&#45;&gt;Node85</title>
<path fill="none" stroke="midnightblue" d="M2428.58,-157.2C2523.71,-152.86 2705.88,-140.83 2857.5,-109 2860.6,-108.35 2863.76,-107.6 2866.94,-106.79"/>
<polygon fill="midnightblue" stroke="midnightblue" points="2428.37,-153.71 2418.54,-157.64 2428.68,-160.7 2428.37,-153.71"/>
</g>
<!-- Node86 -->
<g id="node34" class="node">
<title>Node86</title>
<g id="a_node34"><a xlink:href="d__a__tag__telop_8h.html" target="_top" xlink:title=" ">
<polygon fill="white" stroke="black" points="2990.5,-67.5 2990.5,-108.5 3108.5,-108.5 3108.5,-67.5 2990.5,-67.5"/>
<text text-anchor="start" x="2998.5" y="-96.5" font-family="Helvetica,sans-Serif" font-size="10.00">include/rel/d/a/tag</text>
<text text-anchor="start" x="2998.5" y="-85.5" font-family="Helvetica,sans-Serif" font-size="10.00">/d_a_tag_telop/d_a_tag</text>
<text text-anchor="middle" x="3049.5" y="-74.5" font-family="Helvetica,sans-Serif" font-size="10.00">_telop.h</text>
</a>
</g>
</g>
<!-- Node25&#45;&gt;Node86 -->
<g id="edge34" class="edge">
<title>Node25&#45;&gt;Node86</title>
<path fill="none" stroke="midnightblue" d="M2428.8,-158.54C2542.18,-155.9 2782.39,-146.01 2981.5,-109 2984.4,-108.46 2987.36,-107.85 2990.33,-107.18"/>
<polygon fill="midnightblue" stroke="midnightblue" points="2428.48,-155.04 2418.56,-158.76 2428.63,-162.04 2428.48,-155.04"/>
</g>
<!-- Node87 -->
<g id="node35" class="node">
<title>Node87</title>
<g id="a_node35"><a xlink:href="c__dylink_8cpp.html" target="_top" xlink:title=" ">
<polygon fill="white" stroke="black" points="3127,-78.5 3127,-97.5 3222,-97.5 3222,-78.5 3127,-78.5"/>
<text text-anchor="middle" x="3174.5" y="-85.5" font-family="Helvetica,sans-Serif" font-size="10.00">src/c/c_dylink.cpp</text>
</a>
</g>
</g>
<!-- Node25&#45;&gt;Node87 -->
<g id="edge35" class="edge">
<title>Node25&#45;&gt;Node87</title>
<path fill="none" stroke="midnightblue" d="M2428.77,-157.39C2586.81,-151.93 2986.63,-135.82 3117.5,-109 3130.03,-106.43 3143.57,-101.77 3154.3,-97.59"/>
<polygon fill="midnightblue" stroke="midnightblue" points="2428.59,-153.9 2418.71,-157.74 2428.83,-160.89 2428.59,-153.9"/>
</g>
<!-- Node88 -->
<g id="node36" class="node">
<title>Node88</title>
<g id="a_node36"><a xlink:href="d__a__itembase_8cpp.html" target="_top" xlink:title=" ">
<polygon fill="white" stroke="black" points="3240.5,-78.5 3240.5,-97.5 3368.5,-97.5 3368.5,-78.5 3240.5,-78.5"/>
<text text-anchor="middle" x="3304.5" y="-85.5" font-family="Helvetica,sans-Serif" font-size="10.00">src/d/a/d_a_itembase.cpp</text>
</a>
</g>
</g>
<!-- Node25&#45;&gt;Node88 -->
<g id="edge37" class="edge">
<title>Node25&#45;&gt;Node88</title>
<path fill="none" stroke="midnightblue" d="M2428.6,-160.34C2573.77,-161.2 2934.57,-157.76 3231.5,-109 3247.32,-106.4 3264.64,-101.74 3278.44,-97.57"/>
<polygon fill="midnightblue" stroke="midnightblue" points="2428.55,-156.84 2418.53,-160.27 2428.5,-163.84 2428.55,-156.84"/>
</g>
<!-- Node89 -->
<g id="node37" class="node">
<title>Node89</title>
<g id="a_node37"><a xlink:href="d__a__obj_8cpp.html" target="_top" xlink:title=" ">
<polygon fill="white" stroke="black" points="3387,-78.5 3387,-97.5 3488,-97.5 3488,-78.5 3387,-78.5"/>
<text text-anchor="middle" x="3437.5" y="-85.5" font-family="Helvetica,sans-Serif" font-size="10.00">src/d/a/d_a_obj.cpp</text>
</a>
</g>
</g>
<!-- Node25&#45;&gt;Node89 -->
<g id="edge38" class="edge">
<title>Node25&#45;&gt;Node89</title>
<path fill="none" stroke="midnightblue" d="M2428.59,-158.57C2622.54,-155.42 3194.45,-143.4 3377.5,-109 3390.77,-106.51 3405.14,-101.79 3416.49,-97.57"/>
<polygon fill="midnightblue" stroke="midnightblue" points="2428.49,-155.07 2418.55,-158.73 2428.6,-162.07 2428.49,-155.07"/>
</g>
<!-- Node90 -->
<g id="node38" class="node">
<title>Node90</title>
<g id="a_node38"><a xlink:href="d__bg__s_8cpp.html" target="_top" xlink:title=" ">
<polygon fill="white" stroke="black" points="3506.5,-78.5 3506.5,-97.5 3610.5,-97.5 3610.5,-78.5 3506.5,-78.5"/>
<text text-anchor="middle" x="3558.5" y="-85.5" font-family="Helvetica,sans-Serif" font-size="10.00">src/d/bg/d_bg_s.cpp</text>
</a>
</g>
</g>
<!-- Node25&#45;&gt;Node90 -->
<g id="edge41" class="edge">
<title>Node25&#45;&gt;Node90</title>
<path fill="none" stroke="midnightblue" d="M2428.99,-158.92C2638.43,-156.7 3290.29,-146.85 3497.5,-109 3510.99,-106.54 3525.59,-101.82 3537.13,-97.59"/>
<polygon fill="midnightblue" stroke="midnightblue" points="2428.73,-155.42 2418.77,-159.03 2428.8,-162.42 2428.73,-155.42"/>
</g>
<!-- Node91 -->
<g id="node39" class="node">
<title>Node91</title>
<g id="a_node39"><a xlink:href="d__bg__s__movebg__actor_8cpp.html" target="_top" xlink:title=" ">
<polygon fill="white" stroke="black" points="3628.5,-73 3628.5,-103 3754.5,-103 3754.5,-73 3628.5,-73"/>
<text text-anchor="start" x="3636.5" y="-91" font-family="Helvetica,sans-Serif" font-size="10.00">src/d/bg/d_bg_s_movebg</text>
<text text-anchor="middle" x="3691.5" y="-80" font-family="Helvetica,sans-Serif" font-size="10.00">_actor.cpp</text>
</a>
</g>
</g>
<!-- Node25&#45;&gt;Node91 -->
<g id="edge42" class="edge">
<title>Node25&#45;&gt;Node91</title>
<path fill="none" stroke="midnightblue" d="M2429.02,-158.86C2652.93,-156.36 3386.71,-145.51 3619.5,-109 3628.6,-107.57 3638.19,-105.4 3647.3,-103"/>
<polygon fill="midnightblue" stroke="midnightblue" points="2428.71,-155.36 2418.75,-158.97 2428.78,-162.36 2428.71,-155.36"/>
</g>
<!-- Node92 -->
<g id="node40" class="node">
<title>Node92</title>
<g id="a_node40"><a xlink:href="d__bg__w_8cpp.html" target="_top" xlink:title=" ">
<polygon fill="white" stroke="black" points="3773,-78.5 3773,-97.5 3880,-97.5 3880,-78.5 3773,-78.5"/>
<text text-anchor="middle" x="3826.5" y="-85.5" font-family="Helvetica,sans-Serif" font-size="10.00">src/d/bg/d_bg_w.cpp</text>
</a>
</g>
</g>
<!-- Node25&#45;&gt;Node92 -->
<g id="edge43" class="edge">
<title>Node25&#45;&gt;Node92</title>
<path fill="none" stroke="midnightblue" d="M2429.18,-159.49C2669.72,-159.08 3502.14,-154.33 3763.5,-109 3777.52,-106.57 3792.74,-101.8 3804.71,-97.53"/>
<polygon fill="midnightblue" stroke="midnightblue" points="2428.84,-155.99 2418.85,-159.5 2428.85,-162.99 2428.84,-155.99"/>
</g>
<!-- Node93 -->
<g id="node41" class="node">
<title>Node93</title>
<g id="a_node41"><a xlink:href="d__cc__s_8cpp.html" target="_top" xlink:title=" ">
<polygon fill="white" stroke="black" points="3898.5,-78.5 3898.5,-97.5 4002.5,-97.5 4002.5,-78.5 3898.5,-78.5"/>
<text text-anchor="middle" x="3950.5" y="-85.5" font-family="Helvetica,sans-Serif" font-size="10.00">src/d/cc/d_cc_s.cpp</text>
</a>
</g>
</g>
<!-- Node25&#45;&gt;Node93 -->
<g id="edge44" class="edge">
<title>Node25&#45;&gt;Node93</title>
<path fill="none" stroke="midnightblue" d="M2428.68,-159.8C2682.16,-160.57 3602.43,-159.74 3889.5,-109 3903.11,-106.59 3917.85,-101.83 3929.43,-97.55"/>
<polygon fill="midnightblue" stroke="midnightblue" points="2428.54,-156.3 2418.53,-159.76 2428.51,-163.3 2428.54,-156.3"/>
</g>
<!-- Node94 -->
<g id="node42" class="node">
<title>Node94</title>
<g id="a_node42"><a xlink:href="d__com__static_8cpp.html" target="_top" xlink:title=" ">
<polygon fill="white" stroke="black" points="4020.5,-78.5 4020.5,-97.5 4160.5,-97.5 4160.5,-78.5 4020.5,-78.5"/>
<text text-anchor="middle" x="4090.5" y="-85.5" font-family="Helvetica,sans-Serif" font-size="10.00">src/d/com/d_com_static.cpp</text>
</a>
</g>
</g>
<!-- Node25&#45;&gt;Node94 -->
<g id="edge46" class="edge">
<title>Node25&#45;&gt;Node94</title>
<path fill="none" stroke="midnightblue" d="M2428.86,-159.39C2695.01,-158.66 3697.85,-152.97 4011.5,-109 4028.87,-106.56 4047.95,-101.8 4063.01,-97.53"/>
<polygon fill="midnightblue" stroke="midnightblue" points="2428.58,-155.89 2418.59,-159.42 2428.6,-162.89 2428.58,-155.89"/>
</g>
<!-- Node95 -->
<g id="node43" class="node">
<title>Node95</title>
<g id="a_node43"><a xlink:href="d__attention_8cpp.html" target="_top" xlink:title=" ">
<polygon fill="white" stroke="black" points="4179,-78.5 4179,-97.5 4286,-97.5 4286,-78.5 4179,-78.5"/>
<text text-anchor="middle" x="4232.5" y="-85.5" font-family="Helvetica,sans-Serif" font-size="10.00">src/d/d_attention.cpp</text>
</a>
</g>
</g>
<!-- Node25&#45;&gt;Node95 -->
<g id="edge47" class="edge">
<title>Node25&#45;&gt;Node95</title>
<path fill="none" stroke="midnightblue" d="M2429.05,-158.75C2732.75,-155.14 3995.57,-138.44 4169.5,-109 4183.53,-106.63 4198.75,-101.86 4210.71,-97.57"/>
<polygon fill="midnightblue" stroke="midnightblue" points="2428.62,-155.26 2418.66,-158.87 2428.7,-162.26 2428.62,-155.26"/>
</g>
<!-- Node96 -->
<g id="node44" class="node">
<title>Node96</title>
<g id="a_node44"><a xlink:href="d__cam__param_8cpp.html" target="_top" xlink:title=" ">
<polygon fill="white" stroke="black" points="4304,-78.5 4304,-97.5 4425,-97.5 4425,-78.5 4304,-78.5"/>
<text text-anchor="middle" x="4364.5" y="-85.5" font-family="Helvetica,sans-Serif" font-size="10.00">src/d/d_cam_param.cpp</text>
</a>
</g>
</g>
<!-- Node25&#45;&gt;Node96 -->
<g id="edge48" class="edge">
<title>Node25&#45;&gt;Node96</title>
<path fill="none" stroke="midnightblue" d="M2428.92,-158.78C2745.18,-155.19 4108.12,-138.11 4295.5,-109 4310.78,-106.63 4327.45,-101.86 4340.57,-97.57"/>
<polygon fill="midnightblue" stroke="midnightblue" points="2428.51,-155.29 2418.55,-158.9 2428.59,-162.29 2428.51,-155.29"/>
</g>
<!-- Node97 -->
<g id="node45" class="node">
<title>Node97</title>
<g id="a_node45"><a xlink:href="d__camera_8cpp.html" target="_top" xlink:title=" ">
<polygon fill="white" stroke="black" points="4443.5,-78.5 4443.5,-97.5 4545.5,-97.5 4545.5,-78.5 4443.5,-78.5"/>
<text text-anchor="middle" x="4494.5" y="-85.5" font-family="Helvetica,sans-Serif" font-size="10.00">src/d/d_camera.cpp</text>
</a>
</g>
</g>
<!-- Node25&#45;&gt;Node97 -->
<g id="edge49" class="edge">
<title>Node25&#45;&gt;Node97</title>
<path fill="none" stroke="midnightblue" d="M2429.05,-159.06C2759.33,-156.68 4233.36,-144.16 4434.5,-109 4447.91,-106.66 4462.41,-101.89 4473.79,-97.6"/>
<polygon fill="midnightblue" stroke="midnightblue" points="2428.67,-155.56 2418.69,-159.13 2428.72,-162.56 2428.67,-155.56"/>
</g>
<!-- Node37&#45;&gt;Node11 -->
<g id="edge15" class="edge">
<title>Node37&#45;&gt;Node11</title>
<path fill="none" stroke="midnightblue" d="M1254.31,-75.72C1205.24,-61.6 1122.27,-37.73 1078.16,-25.03"/>
<polygon fill="midnightblue" stroke="midnightblue" points="1253.37,-79.09 1263.95,-78.5 1255.31,-72.37 1253.37,-79.09"/>
</g>
<!-- Node37&#45;&gt;Node38 -->
<g id="edge16" class="edge">
<title>Node37&#45;&gt;Node38</title>
<path fill="none" stroke="midnightblue" d="M1294.29,-68.36C1294.89,-54.4 1295.67,-35.93 1296.13,-25.22"/>
<polygon fill="midnightblue" stroke="midnightblue" points="1290.8,-68.22 1293.87,-78.36 1297.79,-68.51 1290.8,-68.22"/>
</g>
<!-- Node37&#45;&gt;Node39 -->
<g id="edge17" class="edge">
<title>Node37&#45;&gt;Node39</title>
<path fill="none" stroke="midnightblue" d="M1319.08,-73.93C1343.23,-61.59 1379.35,-43.14 1404.08,-30.51"/>
<polygon fill="midnightblue" stroke="midnightblue" points="1317.46,-70.83 1310.15,-78.5 1320.64,-77.06 1317.46,-70.83"/>
</g>
<!-- Node58&#45;&gt;Node11 -->
<g id="edge25" class="edge">
<title>Node58&#45;&gt;Node11</title>
<path fill="none" stroke="midnightblue" d="M1109.35,-66.38C1092.75,-52.77 1071.83,-35.63 1059.35,-25.39"/>
<polygon fill="midnightblue" stroke="midnightblue" points="1107.14,-69.1 1117.1,-72.73 1111.58,-63.69 1107.14,-69.1"/>
</g>
<!-- Node58&#45;&gt;Node63 -->
<g id="edge26" class="edge">
<title>Node58&#45;&gt;Node63</title>
<path fill="none" stroke="midnightblue" d="M1145.9,-63.36C1152.19,-50.32 1159.63,-34.88 1164.21,-25.39"/>
<polygon fill="midnightblue" stroke="midnightblue" points="1142.57,-62.21 1141.38,-72.73 1148.88,-65.25 1142.57,-62.21"/>
</g>
<!-- Node83&#45;&gt;Node84 -->
<g id="edge32" class="edge">
<title>Node83&#45;&gt;Node84</title>
<path fill="none" stroke="midnightblue" d="M2776.55,-64.13C2768.5,-50.92 2758.83,-35.07 2752.92,-25.39"/>
<polygon fill="midnightblue" stroke="midnightblue" points="2773.6,-66.02 2781.8,-72.73 2779.58,-62.37 2773.6,-66.02"/>
</g>
</g>
</svg>
