<?xml version="1.0" encoding="UTF-8" standalone="no"?>
<!DOCTYPE svg PUBLIC "-//W3C//DTD SVG 1.1//EN"
 "http://www.w3.org/Graphics/SVG/1.1/DTD/svg11.dtd">
<!-- Generated by graphviz version 3.0.0 (20220413.0242)
 -->
<!-- Title: libs/JSystem/J3DGraphBase/J3DTransform.cpp Pages: 1 -->
<!--zoomable 397 -->
<svg id="main" version="1.1" xmlns="http://www.w3.org/2000/svg" xmlns:xlink="http://www.w3.org/1999/xlink" xml:space="preserve" onload="init(evt)">
<style type="text/css"><![CDATA[
.edge:hover path { stroke: red; }
.edge:hover polygon { stroke: red; fill: red; }
]]></style>
<script type="text/javascript"><![CDATA[
var edges = document.getElementsByTagName('g');
if (edges && edges.length) {
  for (var i=0;i<edges.length;i++) {
    if (edges[i].id.substr(0,4)=='edge') {
      edges[i].setAttribute('class','edge');
    }
  }
}
]]></script>
        <defs>
                <circle id="rim" cx="0" cy="0" r="7"/>
                <circle id="rim2" cx="0" cy="0" r="3.5"/>
                <g id="zoomPlus">
                        <use xlink:href="#rim" fill="#404040">
                                <set attributeName="fill" to="#808080" begin="zoomplus.mouseover" end="zoomplus.mouseout"/>
                        </use>
                        <path d="M-4,0h8M0,-4v8" fill="none" stroke="white" stroke-width="1.5" pointer-events="none"/>
                </g>
                <g id="zoomMin">
                        <use xlink:href="#rim" fill="#404040">
                                <set attributeName="fill" to="#808080" begin="zoomminus.mouseover" end="zoomminus.mouseout"/>
                        </use>
                        <path d="M-4,0h8" fill="none" stroke="white" stroke-width="1.5" pointer-events="none"/>
                </g>
                <g id="dirArrow">
                        <path fill="none" stroke="white" stroke-width="1.5" d="M0,-3.0v7 M-2.5,-0.5L0,-3.0L2.5,-0.5"/>
                </g>
               <g id="resetDef">
                       <use xlink:href="#rim2" fill="#404040">
                               <set attributeName="fill" to="#808080" begin="reset.mouseover" end="reset.mouseout"/>
                       </use>
               </g>
        </defs>

<script type="text/javascript">
var viewWidth = 3356;
var viewHeight = 397;
var sectionId = 'dynsection-0';
</script>
<script xlink:href="svgpan.js"/>
<svg id="graph" class="graph">
<g id="viewport">
<title>libs/JSystem/J3DGraphBase/J3DTransform.cpp</title>
<polygon fill="white" stroke="transparent" points="-4,4 -4,-393 3352,-393 3352,4 -4,4"/>
<!-- Node1 -->
<g id="node1" class="node">
<title>Node1</title>
<g id="a_node1"><a xlink:title=" ">
<polygon fill="#bfbfbf" stroke="black" points="1502,-358.5 1502,-388.5 1644,-388.5 1644,-358.5 1502,-358.5"/>
<text text-anchor="start" x="1510" y="-376.5" font-family="Helvetica,sans-Serif" font-size="10.00">libs/JSystem/J3DGraphBase</text>
<text text-anchor="middle" x="1573" y="-365.5" font-family="Helvetica,sans-Serif" font-size="10.00">/J3DTransform.cpp</text>
</a>
</g>
</g>
<!-- Node2 -->
<g id="node2" class="node">
<title>Node2</title>
<g id="a_node2"><a xlink:href="J3DTransform_8h.html" target="_top" xlink:title=" ">
<polygon fill="white" stroke="black" points="317,-286 317,-316 441,-316 441,-286 317,-286"/>
<text text-anchor="start" x="325" y="-304" font-family="Helvetica,sans-Serif" font-size="10.00">JSystem/J3DGraphBase</text>
<text text-anchor="middle" x="379" y="-293" font-family="Helvetica,sans-Serif" font-size="10.00">/J3DTransform.h</text>
</a>
</g>
</g>
<!-- Node1&#45;&gt;Node2 -->
<g id="edge1" class="edge">
<title>Node1&#45;&gt;Node2</title>
<path fill="none" stroke="midnightblue" d="M1501.92,-371.4C1288.38,-367.76 654.75,-354.46 451,-322 445.25,-321.08 439.31,-319.88 433.42,-318.51"/>
<polygon fill="midnightblue" stroke="midnightblue" points="434.14,-315.08 423.59,-316.07 432.46,-321.87 434.14,-315.08"/>
</g>
<!-- Node5 -->
<g id="node5" class="node">
<title>Node5</title>
<g id="a_node5"><a xlink:href="types_8h.html" target="_top" xlink:title=" ">
<polygon fill="white" stroke="black" points="194.5,-0.5 194.5,-19.5 275.5,-19.5 275.5,-0.5 194.5,-0.5"/>
<text text-anchor="middle" x="235" y="-7.5" font-family="Helvetica,sans-Serif" font-size="10.00">dolphin/types.h</text>
</a>
</g>
</g>
<!-- Node1&#45;&gt;Node5 -->
<g id="edge19" class="edge">
<title>Node1&#45;&gt;Node5</title>
<path fill="none" stroke="midnightblue" d="M1502,-371.86C1270.74,-369.44 540.67,-358.98 308,-322 167.52,-299.68 0,-377.25 0,-235 0,-235 0,-235 0,-121 0,-40.34 114.97,-18.7 184.08,-12.98"/>
<polygon fill="midnightblue" stroke="midnightblue" points="184.62,-16.45 194.33,-12.22 184.1,-9.47 184.62,-16.45"/>
</g>
<!-- Node10 -->
<g id="node10" class="node">
<title>Node10</title>
<g id="a_node10"><a xlink:href="dol2asm_8h.html" target="_top" xlink:title=" ">
<polygon fill="white" stroke="black" points="459.5,-291.5 459.5,-310.5 520.5,-310.5 520.5,-291.5 459.5,-291.5"/>
<text text-anchor="middle" x="490" y="-298.5" font-family="Helvetica,sans-Serif" font-size="10.00">dol2asm.h</text>
</a>
</g>
</g>
<!-- Node1&#45;&gt;Node10 -->
<g id="edge18" class="edge">
<title>Node1&#45;&gt;Node10</title>
<path fill="none" stroke="midnightblue" d="M1501.91,-372.86C1298.03,-373.3 714.15,-370.2 530,-322 524.18,-320.48 518.22,-318.04 512.73,-315.39"/>
<polygon fill="midnightblue" stroke="midnightblue" points="513.99,-312.09 503.51,-310.52 510.72,-318.29 513.99,-312.09"/>
</g>
<!-- Node11 -->
<g id="node11" class="node">
<title>Node11</title>
<g id="a_node11"><a xlink:title=" ">
<polygon fill="white" stroke="#bfbfbf" points="539,-280.5 539,-321.5 693,-321.5 693,-280.5 539,-280.5"/>
<text text-anchor="start" x="547" y="-309.5" font-family="Helvetica,sans-Serif" font-size="10.00">asm/JSystem/J3DGraphBase</text>
<text text-anchor="start" x="547" y="-298.5" font-family="Helvetica,sans-Serif" font-size="10.00">/J3DTransform/J3DGQRSetup7</text>
<text text-anchor="middle" x="616" y="-287.5" font-family="Helvetica,sans-Serif" font-size="10.00">__FUlUlUlUl.s</text>
</a>
</g>
</g>
<!-- Node1&#45;&gt;Node11 -->
<g id="edge20" class="edge">
<title>Node1&#45;&gt;Node11</title>
<path fill="none" stroke="midnightblue" d="M1501.83,-372.4C1354.51,-371.33 1005.45,-364.25 703.47,-321.91"/>
<polygon fill="midnightblue" stroke="midnightblue" points="703.59,-318.39 693.19,-320.45 702.6,-325.32 703.59,-318.39"/>
</g>
<!-- Node12 -->
<g id="node12" class="node">
<title>Node12</title>
<g id="a_node12"><a xlink:title=" ">
<polygon fill="white" stroke="#bfbfbf" points="711.5,-280.5 711.5,-321.5 880.5,-321.5 880.5,-280.5 711.5,-280.5"/>
<text text-anchor="start" x="719.5" y="-309.5" font-family="Helvetica,sans-Serif" font-size="10.00">asm/JSystem/J3DGraphBase</text>
<text text-anchor="start" x="719.5" y="-298.5" font-family="Helvetica,sans-Serif" font-size="10.00">/J3DTransform/J3DCalcBBoardMtx</text>
<text text-anchor="middle" x="796" y="-287.5" font-family="Helvetica,sans-Serif" font-size="10.00">__FPA4_f.s</text>
</a>
</g>
</g>
<!-- Node1&#45;&gt;Node12 -->
<g id="edge21" class="edge">
<title>Node1&#45;&gt;Node12</title>
<path fill="none" stroke="midnightblue" d="M1501.75,-370.48C1378.84,-366.28 1118.93,-354.29 890.71,-322.15"/>
<polygon fill="midnightblue" stroke="midnightblue" points="890.95,-318.65 880.56,-320.7 889.96,-325.58 890.95,-318.65"/>
</g>
<!-- Node13 -->
<g id="node13" class="node">
<title>Node13</title>
<g id="a_node13"><a xlink:title=" ">
<polygon fill="white" stroke="#bfbfbf" points="898,-280.5 898,-321.5 1074,-321.5 1074,-280.5 898,-280.5"/>
<text text-anchor="start" x="906" y="-309.5" font-family="Helvetica,sans-Serif" font-size="10.00">asm/JSystem/J3DGraphBase</text>
<text text-anchor="start" x="906" y="-298.5" font-family="Helvetica,sans-Serif" font-size="10.00">/J3DTransform/J3DCalcYBBoardMtx</text>
<text text-anchor="middle" x="986" y="-287.5" font-family="Helvetica,sans-Serif" font-size="10.00">__FPA4_f.s</text>
</a>
</g>
</g>
<!-- Node1&#45;&gt;Node13 -->
<g id="edge22" class="edge">
<title>Node1&#45;&gt;Node13</title>
<path fill="none" stroke="midnightblue" d="M1501.71,-367.41C1408.13,-360.24 1238.6,-345.49 1084.36,-322.13"/>
<polygon fill="midnightblue" stroke="midnightblue" points="1084.63,-318.64 1074.22,-320.58 1083.58,-325.55 1084.63,-318.64"/>
</g>
<!-- Node14 -->
<g id="node14" class="node">
<title>Node14</title>
<g id="a_node14"><a xlink:title=" ">
<polygon fill="white" stroke="#bfbfbf" points="1091.5,-280.5 1091.5,-321.5 1258.5,-321.5 1258.5,-280.5 1091.5,-280.5"/>
<text text-anchor="start" x="1099.5" y="-309.5" font-family="Helvetica,sans-Serif" font-size="10.00">asm/JSystem/J3DGraphBase</text>
<text text-anchor="start" x="1099.5" y="-298.5" font-family="Helvetica,sans-Serif" font-size="10.00">/J3DTransform/J3DPSCalcInverse</text>
<text text-anchor="middle" x="1175" y="-287.5" font-family="Helvetica,sans-Serif" font-size="10.00">Transpose__FPA4_fPA3_f.s</text>
</a>
</g>
</g>
<!-- Node1&#45;&gt;Node14 -->
<g id="edge23" class="edge">
<title>Node1&#45;&gt;Node14</title>
<path fill="none" stroke="midnightblue" d="M1501.71,-361.78C1441.89,-352.54 1353.94,-338.41 1268.56,-322.26"/>
<polygon fill="midnightblue" stroke="midnightblue" points="1269.18,-318.81 1258.7,-320.38 1267.87,-325.69 1269.18,-318.81"/>
</g>
<!-- Node15 -->
<g id="node15" class="node">
<title>Node15</title>
<g id="a_node15"><a xlink:title=" ">
<polygon fill="white" stroke="#bfbfbf" points="1276,-280.5 1276,-321.5 1462,-321.5 1462,-280.5 1276,-280.5"/>
<text text-anchor="start" x="1284" y="-309.5" font-family="Helvetica,sans-Serif" font-size="10.00">asm/JSystem/J3DGraphBase</text>
<text text-anchor="start" x="1284" y="-298.5" font-family="Helvetica,sans-Serif" font-size="10.00">/J3DTransform/J3DGetTranslateRotate</text>
<text text-anchor="middle" x="1369" y="-287.5" font-family="Helvetica,sans-Serif" font-size="10.00">Mtx__FRC16J3DTransformInfoPA4_f.s</text>
</a>
</g>
</g>
<!-- Node1&#45;&gt;Node15 -->
<g id="edge24" class="edge">
<title>Node1&#45;&gt;Node15</title>
<path fill="none" stroke="midnightblue" d="M1532.21,-358.4C1504.49,-348.83 1467.22,-335.94 1435.28,-324.91"/>
<polygon fill="midnightblue" stroke="midnightblue" points="1436.15,-321.5 1425.56,-321.55 1433.87,-328.12 1436.15,-321.5"/>
</g>
<!-- Node16 -->
<g id="node16" class="node">
<title>Node16</title>
<g id="a_node16"><a xlink:title=" ">
<polygon fill="white" stroke="#bfbfbf" points="1480,-280.5 1480,-321.5 1666,-321.5 1666,-280.5 1480,-280.5"/>
<text text-anchor="start" x="1488" y="-309.5" font-family="Helvetica,sans-Serif" font-size="10.00">asm/JSystem/J3DGraphBase</text>
<text text-anchor="start" x="1488" y="-298.5" font-family="Helvetica,sans-Serif" font-size="10.00">/J3DTransform/J3DGetTranslateRotate</text>
<text text-anchor="middle" x="1573" y="-287.5" font-family="Helvetica,sans-Serif" font-size="10.00">Mtx__FsssfffPA4_f.s</text>
</a>
</g>
</g>
<!-- Node1&#45;&gt;Node16 -->
<g id="edge25" class="edge">
<title>Node1&#45;&gt;Node16</title>
<path fill="none" stroke="midnightblue" d="M1573,-358.23C1573,-350.57 1573,-340.84 1573,-331.63"/>
<polygon fill="midnightblue" stroke="midnightblue" points="1576.5,-331.59 1573,-321.59 1569.5,-331.59 1576.5,-331.59"/>
</g>
<!-- Node17 -->
<g id="node17" class="node">
<title>Node17</title>
<g id="a_node17"><a xlink:title=" ">
<polygon fill="white" stroke="#bfbfbf" points="1683.5,-280.5 1683.5,-321.5 1896.5,-321.5 1896.5,-280.5 1683.5,-280.5"/>
<text text-anchor="start" x="1691.5" y="-309.5" font-family="Helvetica,sans-Serif" font-size="10.00">asm/JSystem/J3DGraphBase</text>
<text text-anchor="start" x="1691.5" y="-298.5" font-family="Helvetica,sans-Serif" font-size="10.00">/J3DTransform/J3DGetTextureMtx</text>
<text text-anchor="middle" x="1790" y="-287.5" font-family="Helvetica,sans-Serif" font-size="10.00">__FRC17J3DTextureSRTInfoRC3VecPA4_f.s</text>
</a>
</g>
</g>
<!-- Node1&#45;&gt;Node17 -->
<g id="edge26" class="edge">
<title>Node1&#45;&gt;Node17</title>
<path fill="none" stroke="midnightblue" d="M1616.13,-358.49C1645.72,-348.87 1685.64,-335.9 1719.77,-324.82"/>
<polygon fill="midnightblue" stroke="midnightblue" points="1721.27,-328.01 1729.7,-321.59 1719.1,-321.35 1721.27,-328.01"/>
</g>
<!-- Node18 -->
<g id="node18" class="node">
<title>Node18</title>
<g id="a_node18"><a xlink:title=" ">
<polygon fill="white" stroke="#bfbfbf" points="1915,-280.5 1915,-321.5 2143,-321.5 2143,-280.5 1915,-280.5"/>
<text text-anchor="start" x="1923" y="-309.5" font-family="Helvetica,sans-Serif" font-size="10.00">asm/JSystem/J3DGraphBase</text>
<text text-anchor="start" x="1923" y="-298.5" font-family="Helvetica,sans-Serif" font-size="10.00">/J3DTransform/J3DGetTextureMtx</text>
<text text-anchor="middle" x="2029" y="-287.5" font-family="Helvetica,sans-Serif" font-size="10.00">Old__FRC17J3DTextureSRTInfoRC3VecPA4_f.s</text>
</a>
</g>
</g>
<!-- Node1&#45;&gt;Node18 -->
<g id="edge27" class="edge">
<title>Node1&#45;&gt;Node18</title>
<path fill="none" stroke="midnightblue" d="M1644.16,-361.93C1709.31,-352.21 1808.67,-337.25 1904.59,-322.21"/>
<polygon fill="midnightblue" stroke="midnightblue" points="1905.42,-325.63 1914.76,-320.62 1904.34,-318.71 1905.42,-325.63"/>
</g>
<!-- Node19 -->
<g id="node19" class="node">
<title>Node19</title>
<g id="a_node19"><a xlink:title=" ">
<polygon fill="white" stroke="#bfbfbf" points="2161,-280.5 2161,-321.5 2361,-321.5 2361,-280.5 2161,-280.5"/>
<text text-anchor="start" x="2169" y="-309.5" font-family="Helvetica,sans-Serif" font-size="10.00">asm/JSystem/J3DGraphBase</text>
<text text-anchor="start" x="2169" y="-298.5" font-family="Helvetica,sans-Serif" font-size="10.00">/J3DTransform/J3DGetTextureMtx</text>
<text text-anchor="middle" x="2261" y="-287.5" font-family="Helvetica,sans-Serif" font-size="10.00">Maya__FRC17J3DTextureSRTInfoPA4_f.s</text>
</a>
</g>
</g>
<!-- Node1&#45;&gt;Node19 -->
<g id="edge28" class="edge">
<title>Node1&#45;&gt;Node19</title>
<path fill="none" stroke="midnightblue" d="M1644.1,-368.47C1751.62,-361.89 1962.19,-347.14 2150.87,-322.09"/>
<polygon fill="midnightblue" stroke="midnightblue" points="2151.53,-325.53 2160.98,-320.73 2150.6,-318.59 2151.53,-325.53"/>
</g>
<!-- Node20 -->
<g id="node20" class="node">
<title>Node20</title>
<g id="a_node20"><a xlink:title=" ">
<polygon fill="white" stroke="#bfbfbf" points="2379.5,-280.5 2379.5,-321.5 2594.5,-321.5 2594.5,-280.5 2379.5,-280.5"/>
<text text-anchor="start" x="2387.5" y="-309.5" font-family="Helvetica,sans-Serif" font-size="10.00">asm/JSystem/J3DGraphBase</text>
<text text-anchor="start" x="2387.5" y="-298.5" font-family="Helvetica,sans-Serif" font-size="10.00">/J3DTransform/J3DGetTextureMtx</text>
<text text-anchor="middle" x="2487" y="-287.5" font-family="Helvetica,sans-Serif" font-size="10.00">MayaOld__FRC17J3DTextureSRTInfoPA4_f.s</text>
</a>
</g>
</g>
<!-- Node1&#45;&gt;Node20 -->
<g id="edge29" class="edge">
<title>Node1&#45;&gt;Node20</title>
<path fill="none" stroke="midnightblue" d="M1644.13,-370.52C1782.02,-366.14 2095.42,-353.48 2369.19,-322.02"/>
<polygon fill="midnightblue" stroke="midnightblue" points="2369.79,-325.48 2379.32,-320.85 2368.98,-318.52 2369.79,-325.48"/>
</g>
<!-- Node21 -->
<g id="node21" class="node">
<title>Node21</title>
<g id="a_node21"><a xlink:title=" ">
<polygon fill="white" stroke="#bfbfbf" points="2612.5,-280.5 2612.5,-321.5 2773.5,-321.5 2773.5,-280.5 2612.5,-280.5"/>
<text text-anchor="start" x="2620.5" y="-309.5" font-family="Helvetica,sans-Serif" font-size="10.00">asm/JSystem/J3DGraphBase</text>
<text text-anchor="start" x="2620.5" y="-298.5" font-family="Helvetica,sans-Serif" font-size="10.00">/J3DTransform/J3DScaleNrmMtx</text>
<text text-anchor="middle" x="2693" y="-287.5" font-family="Helvetica,sans-Serif" font-size="10.00">__FPA4_fRC3Vec.s</text>
</a>
</g>
</g>
<!-- Node1&#45;&gt;Node21 -->
<g id="edge30" class="edge">
<title>Node1&#45;&gt;Node21</title>
<path fill="none" stroke="midnightblue" d="M1644.01,-373.21C1810.31,-373.98 2237.92,-370.72 2602.16,-322.14"/>
<polygon fill="midnightblue" stroke="midnightblue" points="2602.66,-325.6 2612.1,-320.8 2601.72,-318.67 2602.66,-325.6"/>
</g>
<!-- Node22 -->
<g id="node22" class="node">
<title>Node22</title>
<g id="a_node22"><a xlink:title=" ">
<polygon fill="white" stroke="#bfbfbf" points="2791.5,-280.5 2791.5,-321.5 2962.5,-321.5 2962.5,-280.5 2791.5,-280.5"/>
<text text-anchor="start" x="2799.5" y="-309.5" font-family="Helvetica,sans-Serif" font-size="10.00">asm/JSystem/J3DGraphBase</text>
<text text-anchor="start" x="2799.5" y="-298.5" font-family="Helvetica,sans-Serif" font-size="10.00">/J3DTransform/J3DScaleNrmMtx33</text>
<text text-anchor="middle" x="2877" y="-287.5" font-family="Helvetica,sans-Serif" font-size="10.00">__FPA3_fRC3Vec.s</text>
</a>
</g>
</g>
<!-- Node1&#45;&gt;Node22 -->
<g id="edge31" class="edge">
<title>Node1&#45;&gt;Node22</title>
<path fill="none" stroke="midnightblue" d="M1644.35,-371.1C1865.91,-366.49 2541.1,-350.56 2781.22,-322.09"/>
<polygon fill="midnightblue" stroke="midnightblue" points="2781.79,-325.55 2791.29,-320.86 2780.94,-318.6 2781.79,-325.55"/>
</g>
<!-- Node23 -->
<g id="node23" class="node">
<title>Node23</title>
<g id="a_node23"><a xlink:title=" ">
<polygon fill="white" stroke="#bfbfbf" points="2980.5,-280.5 2980.5,-321.5 3145.5,-321.5 3145.5,-280.5 2980.5,-280.5"/>
<text text-anchor="start" x="2988.5" y="-309.5" font-family="Helvetica,sans-Serif" font-size="10.00">asm/JSystem/J3DGraphBase</text>
<text text-anchor="start" x="2988.5" y="-298.5" font-family="Helvetica,sans-Serif" font-size="10.00">/J3DTransform/J3DMtxProjConcat</text>
<text text-anchor="middle" x="3063" y="-287.5" font-family="Helvetica,sans-Serif" font-size="10.00">__FPA4_fPA4_fPA4_f.s</text>
</a>
</g>
</g>
<!-- Node1&#45;&gt;Node23 -->
<g id="edge32" class="edge">
<title>Node1&#45;&gt;Node23</title>
<path fill="none" stroke="midnightblue" d="M1644,-371.63C1887.86,-368.38 2691.06,-355.44 2970.18,-322.09"/>
<polygon fill="midnightblue" stroke="midnightblue" points="2970.79,-325.54 2980.28,-320.84 2969.93,-318.59 2970.79,-325.54"/>
</g>
<!-- Node24 -->
<g id="node24" class="node">
<title>Node24</title>
<g id="a_node24"><a xlink:title=" ">
<polygon fill="white" stroke="#bfbfbf" points="3164,-280.5 3164,-321.5 3348,-321.5 3348,-280.5 3164,-280.5"/>
<text text-anchor="start" x="3172" y="-309.5" font-family="Helvetica,sans-Serif" font-size="10.00">asm/JSystem/J3DGraphBase</text>
<text text-anchor="start" x="3172" y="-298.5" font-family="Helvetica,sans-Serif" font-size="10.00">/J3DTransform/J3DPSMtxArrayConcat</text>
<text text-anchor="middle" x="3256" y="-287.5" font-family="Helvetica,sans-Serif" font-size="10.00">__FPA4_fPA4_fPA4_fUl.s</text>
</a>
</g>
</g>
<!-- Node1&#45;&gt;Node24 -->
<g id="edge33" class="edge">
<title>Node1&#45;&gt;Node24</title>
<path fill="none" stroke="midnightblue" d="M1644.31,-371.77C1909.04,-368.84 2836.01,-356.39 3153.76,-322.01"/>
<polygon fill="midnightblue" stroke="midnightblue" points="3154.35,-325.47 3163.9,-320.88 3153.57,-318.51 3154.35,-325.47"/>
</g>
<!-- Node3 -->
<g id="node3" class="node">
<title>Node3</title>
<g id="a_node3"><a xlink:href="JGeometry_8h.html" target="_top" xlink:title=" ">
<polygon fill="white" stroke="black" points="374.5,-112.5 374.5,-131.5 487.5,-131.5 487.5,-112.5 374.5,-112.5"/>
<text text-anchor="middle" x="431" y="-119.5" font-family="Helvetica,sans-Serif" font-size="10.00">JSystem/JGeometry.h</text>
</a>
</g>
</g>
<!-- Node2&#45;&gt;Node3 -->
<g id="edge2" class="edge">
<title>Node2&#45;&gt;Node3</title>
<path fill="none" stroke="midnightblue" d="M383.17,-285.81C392.48,-254.13 414.96,-177.61 425.44,-141.92"/>
<polygon fill="midnightblue" stroke="midnightblue" points="428.93,-142.46 428.39,-131.87 422.22,-140.48 428.93,-142.46"/>
</g>
<!-- Node2&#45;&gt;Node5 -->
<g id="edge17" class="edge">
<title>Node2&#45;&gt;Node5</title>
<path fill="none" stroke="midnightblue" d="M416.07,-286C456.65,-267.97 516,-232.47 516,-179 516,-179 516,-179 516,-121 516,-72.08 366.44,-35.99 285.55,-20.05"/>
<polygon fill="midnightblue" stroke="midnightblue" points="286.04,-16.58 275.56,-18.12 284.71,-23.45 286.04,-16.58"/>
</g>
<!-- Node6 -->
<g id="node6" class="node">
<title>Node6</title>
<g id="a_node6"><a xlink:href="mtxvec_8h.html" target="_top" xlink:title=" ">
<polygon fill="white" stroke="black" points="264,-224.5 264,-243.5 372,-243.5 372,-224.5 264,-224.5"/>
<text text-anchor="middle" x="318" y="-231.5" font-family="Helvetica,sans-Serif" font-size="10.00">dolphin/mtx/mtxvec.h</text>
</a>
</g>
</g>
<!-- Node2&#45;&gt;Node6 -->
<g id="edge6" class="edge">
<title>Node2&#45;&gt;Node6</title>
<path fill="none" stroke="midnightblue" d="M365.76,-285.9C356.16,-275.66 343.15,-261.8 333.13,-251.12"/>
<polygon fill="midnightblue" stroke="midnightblue" points="335.55,-248.59 326.16,-243.69 330.45,-253.38 335.55,-248.59"/>
</g>
<!-- Node4 -->
<g id="node4" class="node">
<title>Node4</title>
<g id="a_node4"><a xlink:href="vec_8h.html" target="_top" xlink:title=" ">
<polygon fill="white" stroke="black" points="226,-56.5 226,-75.5 318,-75.5 318,-56.5 226,-56.5"/>
<text text-anchor="middle" x="272" y="-63.5" font-family="Helvetica,sans-Serif" font-size="10.00">dolphin/mtx/vec.h</text>
</a>
</g>
</g>
<!-- Node3&#45;&gt;Node4 -->
<g id="edge3" class="edge">
<title>Node3&#45;&gt;Node4</title>
<path fill="none" stroke="midnightblue" d="M405.81,-112.44C379.06,-103.36 336.6,-88.94 306.69,-78.78"/>
<polygon fill="midnightblue" stroke="midnightblue" points="307.67,-75.42 297.08,-75.52 305.42,-82.05 307.67,-75.42"/>
</g>
<!-- Node3&#45;&gt;Node5 -->
<g id="edge5" class="edge">
<title>Node3&#45;&gt;Node5</title>
<path fill="none" stroke="midnightblue" d="M423.56,-112.24C411.48,-98.52 386.32,-71.9 360,-56 335.1,-40.96 304.4,-29.82 279.65,-22.38"/>
<polygon fill="midnightblue" stroke="midnightblue" points="280.37,-18.95 269.79,-19.52 278.42,-25.67 280.37,-18.95"/>
</g>
<!-- Node4&#45;&gt;Node5 -->
<g id="edge4" class="edge">
<title>Node4&#45;&gt;Node5</title>
<path fill="none" stroke="midnightblue" d="M265.89,-56.08C260.72,-48.53 253.15,-37.49 246.81,-28.23"/>
<polygon fill="midnightblue" stroke="midnightblue" points="249.54,-26.02 241,-19.75 243.76,-29.98 249.54,-26.02"/>
</g>
<!-- Node6&#45;&gt;Node4 -->
<g id="edge15" class="edge">
<title>Node6&#45;&gt;Node4</title>
<path fill="none" stroke="midnightblue" d="M315.53,-224.08C308.29,-197.95 287.02,-121.21 277.15,-85.58"/>
<polygon fill="midnightblue" stroke="midnightblue" points="280.42,-84.27 274.37,-75.57 273.67,-86.14 280.42,-84.27"/>
</g>
<!-- Node6&#45;&gt;Node5 -->
<g id="edge16" class="edge">
<title>Node6&#45;&gt;Node5</title>
<path fill="none" stroke="midnightblue" d="M321.61,-224.4C332.43,-197.21 361.7,-111.6 327,-56 317.24,-40.36 300.3,-30.01 283.6,-23.23"/>
<polygon fill="midnightblue" stroke="midnightblue" points="284.44,-19.81 273.85,-19.64 282.02,-26.38 284.44,-19.81"/>
</g>
<!-- Node7 -->
<g id="node7" class="node">
<title>Node7</title>
<g id="a_node7"><a xlink:href="mtx_8h.html" target="_top" xlink:title=" ">
<polygon fill="white" stroke="black" points="148,-168.5 148,-187.5 240,-187.5 240,-168.5 148,-168.5"/>
<text text-anchor="middle" x="194" y="-175.5" font-family="Helvetica,sans-Serif" font-size="10.00">dolphin/mtx/mtx.h</text>
</a>
</g>
</g>
<!-- Node6&#45;&gt;Node7 -->
<g id="edge7" class="edge">
<title>Node6&#45;&gt;Node7</title>
<path fill="none" stroke="midnightblue" d="M298.35,-224.44C278.04,-215.6 246.1,-201.69 222.9,-191.59"/>
<polygon fill="midnightblue" stroke="midnightblue" points="224.12,-188.3 213.56,-187.52 221.33,-194.72 224.12,-188.3"/>
</g>
<!-- Node7&#45;&gt;Node4 -->
<g id="edge13" class="edge">
<title>Node7&#45;&gt;Node4</title>
<path fill="none" stroke="midnightblue" d="M208.84,-168.45C221.43,-160.49 239.14,-147.54 250,-132 259.71,-118.12 265.42,-99.6 268.58,-85.89"/>
<polygon fill="midnightblue" stroke="midnightblue" points="272.09,-86.2 270.66,-75.7 265.23,-84.79 272.09,-86.2"/>
</g>
<!-- Node7&#45;&gt;Node5 -->
<g id="edge14" class="edge">
<title>Node7&#45;&gt;Node5</title>
<path fill="none" stroke="midnightblue" d="M169.03,-168.4C119.91,-150.16 18.69,-105.2 57,-56 72.55,-36.03 137.34,-23.51 184.27,-16.89"/>
<polygon fill="midnightblue" stroke="midnightblue" points="184.85,-20.35 194.28,-15.53 183.9,-13.41 184.85,-20.35"/>
</g>
<!-- Node8 -->
<g id="node8" class="node">
<title>Node8</title>
<g id="a_node8"><a xlink:href="mtx44_8h.html" target="_top" xlink:title=" ">
<polygon fill="white" stroke="black" points="66.5,-56.5 66.5,-75.5 169.5,-75.5 169.5,-56.5 66.5,-56.5"/>
<text text-anchor="middle" x="118" y="-63.5" font-family="Helvetica,sans-Serif" font-size="10.00">dolphin/mtx/mtx44.h</text>
</a>
</g>
</g>
<!-- Node7&#45;&gt;Node8 -->
<g id="edge8" class="edge">
<title>Node7&#45;&gt;Node8</title>
<path fill="none" stroke="midnightblue" d="M178.47,-168.46C165.56,-160.6 147.65,-147.78 137,-132 127.65,-118.14 122.83,-99.63 120.38,-85.9"/>
<polygon fill="midnightblue" stroke="midnightblue" points="123.8,-85.07 118.85,-75.71 116.88,-86.12 123.8,-85.07"/>
</g>
<!-- Node9 -->
<g id="node9" class="node">
<title>Node9</title>
<g id="a_node9"><a xlink:href="quat_8h.html" target="_top" xlink:title=" ">
<polygon fill="white" stroke="black" points="146.5,-112.5 146.5,-131.5 241.5,-131.5 241.5,-112.5 146.5,-112.5"/>
<text text-anchor="middle" x="194" y="-119.5" font-family="Helvetica,sans-Serif" font-size="10.00">dolphin/mtx/quat.h</text>
</a>
</g>
</g>
<!-- Node7&#45;&gt;Node9 -->
<g id="edge10" class="edge">
<title>Node7&#45;&gt;Node9</title>
<path fill="none" stroke="midnightblue" d="M194,-168.08C194,-161.01 194,-150.86 194,-141.99"/>
<polygon fill="midnightblue" stroke="midnightblue" points="197.5,-141.75 194,-131.75 190.5,-141.75 197.5,-141.75"/>
</g>
<!-- Node8&#45;&gt;Node5 -->
<g id="edge9" class="edge">
<title>Node8&#45;&gt;Node5</title>
<path fill="none" stroke="midnightblue" d="M136.54,-56.44C155.62,-47.64 185.57,-33.81 207.44,-23.72"/>
<polygon fill="midnightblue" stroke="midnightblue" points="208.93,-26.88 216.55,-19.52 206,-20.53 208.93,-26.88"/>
</g>
<!-- Node9&#45;&gt;Node4 -->
<g id="edge11" class="edge">
<title>Node9&#45;&gt;Node4</title>
<path fill="none" stroke="midnightblue" d="M206.53,-112.32C218.59,-103.98 237.03,-91.21 251.27,-81.35"/>
<polygon fill="midnightblue" stroke="midnightblue" points="253.27,-84.22 259.5,-75.65 249.28,-78.47 253.27,-84.22"/>
</g>
<!-- Node9&#45;&gt;Node5 -->
<g id="edge12" class="edge">
<title>Node9&#45;&gt;Node5</title>
<path fill="none" stroke="midnightblue" d="M197.01,-112.13C201.3,-99.58 209.49,-75.94 217,-56 220.38,-47.03 224.31,-37.13 227.64,-28.91"/>
<polygon fill="midnightblue" stroke="midnightblue" points="230.91,-30.17 231.45,-19.59 224.43,-27.52 230.91,-30.17"/>
</g>
</g>
</svg>
        <g id="navigator" transform="translate(0 0)" fill="#404254">
                <rect fill="#f2f5e9" fill-opacity="0.5" stroke="#606060" stroke-width=".5" x="0" y="0" width="60" height="60"/>
                <use id="zoomplus" xlink:href="#zoomPlus" x="17" y="9" onmousedown="handleZoom(evt,'in')"/>
                <use id="zoomminus" xlink:href="#zoomMin" x="42" y="9" onmousedown="handleZoom(evt,'out')"/>
                <use id="reset" xlink:href="#resetDef" x="30" y="36" onmousedown="handleReset()"/>
                <g id="arrowUp" xlink:href="#dirArrow" transform="translate(30 24)" onmousedown="handlePan(0,-1)">
                  <use xlink:href="#rim" fill="#404040">
                        <set attributeName="fill" to="#808080" begin="arrowUp.mouseover" end="arrowUp.mouseout"/>
                  </use>
                  <path fill="none" stroke="white" stroke-width="1.5" d="M0,-3.0v7 M-2.5,-0.5L0,-3.0L2.5,-0.5"/>
                </g>
                <g id="arrowRight" xlink:href="#dirArrow" transform="rotate(90) translate(36 -43)" onmousedown="handlePan(1,0)">
                  <use xlink:href="#rim" fill="#404040">
                        <set attributeName="fill" to="#808080" begin="arrowRight.mouseover" end="arrowRight.mouseout"/>
                  </use>
                  <path fill="none" stroke="white" stroke-width="1.5" d="M0,-3.0v7 M-2.5,-0.5L0,-3.0L2.5,-0.5"/>
                </g>
                <g id="arrowDown" xlink:href="#dirArrow" transform="rotate(180) translate(-30 -48)" onmousedown="handlePan(0,1)">
                  <use xlink:href="#rim" fill="#404040">
                        <set attributeName="fill" to="#808080" begin="arrowDown.mouseover" end="arrowDown.mouseout"/>
                  </use>
                  <path fill="none" stroke="white" stroke-width="1.5" d="M0,-3.0v7 M-2.5,-0.5L0,-3.0L2.5,-0.5"/>
                </g>
                <g id="arrowLeft" xlink:href="#dirArrow" transform="rotate(270) translate(-36 17)" onmousedown="handlePan(-1,0)">
                  <use xlink:href="#rim" fill="#404040">
                        <set attributeName="fill" to="#808080" begin="arrowLeft.mouseover" end="arrowLeft.mouseout"/>
                  </use>
                  <path fill="none" stroke="white" stroke-width="1.5" d="M0,-3.0v7 M-2.5,-0.5L0,-3.0L2.5,-0.5"/>
                </g>
        </g>
        <svg viewBox="0 0 15 15" width="100%" height="30px" preserveAspectRatio="xMaxYMin meet">
         <g id="arrow_out" transform="scale(0.3 0.3)">
          <a xlink:href="J3DTransform_8cpp__incl_org.svg" target="_base">
           <rect id="button" ry="5" rx="5" y="6" x="6" height="38" width="38"
                fill="#f2f5e9" fill-opacity="0.5" stroke="#606060" stroke-width="1.0"/>
           <path id="arrow"
             d="M 11.500037,31.436501 C 11.940474,20.09759 22.043105,11.32322 32.158766,21.979434 L 37.068811,17.246167 C 37.068811,17.246167 37.088388,32 37.088388,32 L 22.160133,31.978069 C 22.160133,31.978069 26.997745,27.140456 26.997745,27.140456 C 18.528582,18.264221 13.291696,25.230495 11.500037,31.436501 z"
             style="fill:#404040;"/>
          </a>
         </g>
        </svg>
</svg>
