<?xml version="1.0" encoding="UTF-8" standalone="no"?>
<!DOCTYPE svg PUBLIC "-//W3C//DTD SVG 1.1//EN"
 "http://www.w3.org/Graphics/SVG/1.1/DTD/svg11.dtd">
<!-- Generated by graphviz version 3.0.0 (20220413.0242)
 -->
<!-- Title: include/JSystem/J3DGraphBase/J3DTexture.h Pages: 1 -->
<svg width="4800pt" height="385pt"
 viewBox="0.00 0.00 4799.50 385.00" xmlns="http://www.w3.org/2000/svg" xmlns:xlink="http://www.w3.org/1999/xlink">
<g id="graph0" class="graph" transform="scale(1 1) rotate(0) translate(4 381)">
<title>include/JSystem/J3DGraphBase/J3DTexture.h</title>
<polygon fill="white" stroke="transparent" points="-4,4 -4,-381 4795.5,-381 4795.5,4 -4,4"/>
<!-- Node1 -->
<g id="node1" class="node">
<title>Node1</title>
<g id="a_node1"><a xlink:title=" ">
<polygon fill="#bfbfbf" stroke="black" points="710,-346.5 710,-376.5 845,-376.5 845,-346.5 710,-346.5"/>
<text text-anchor="start" x="718" y="-364.5" font-family="Helvetica,sans-Serif" font-size="10.00">include/JSystem/J3DGraph</text>
<text text-anchor="middle" x="777.5" y="-353.5" font-family="Helvetica,sans-Serif" font-size="10.00">Base/J3DTexture.h</text>
</a>
</g>
</g>
<!-- Node2 -->
<g id="node2" class="node">
<title>Node2</title>
<g id="a_node2"><a xlink:href="J3DMatBlock_8h.html" target="_top" xlink:title=" ">
<polygon fill="white" stroke="black" points="632,-279.5 632,-309.5 767,-309.5 767,-279.5 632,-279.5"/>
<text text-anchor="start" x="640" y="-297.5" font-family="Helvetica,sans-Serif" font-size="10.00">include/JSystem/J3DGraph</text>
<text text-anchor="middle" x="699.5" y="-286.5" font-family="Helvetica,sans-Serif" font-size="10.00">Base/J3DMatBlock.h</text>
</a>
</g>
</g>
<!-- Node1&#45;&gt;Node2 -->
<g id="edge1" class="edge">
<title>Node1&#45;&gt;Node2</title>
<path fill="none" stroke="midnightblue" d="M752.76,-339.88C740.91,-330.01 727.02,-318.43 716.39,-309.58"/>
<polygon fill="midnightblue" stroke="midnightblue" points="750.65,-342.68 760.58,-346.4 755.13,-337.31 750.65,-342.68"/>
</g>
<!-- Node3 -->
<g id="node3" class="node">
<title>Node3</title>
<g id="a_node3"><a xlink:href="J3DMaterial_8h.html" target="_top" xlink:title=" ">
<polygon fill="white" stroke="black" points="420,-212.5 420,-242.5 555,-242.5 555,-212.5 420,-212.5"/>
<text text-anchor="start" x="428" y="-230.5" font-family="Helvetica,sans-Serif" font-size="10.00">include/JSystem/J3DGraph</text>
<text text-anchor="middle" x="487.5" y="-219.5" font-family="Helvetica,sans-Serif" font-size="10.00">Base/J3DMaterial.h</text>
</a>
</g>
</g>
<!-- Node1&#45;&gt;Node3 -->
<g id="edge54" class="edge">
<title>Node1&#45;&gt;Node3</title>
<path fill="none" stroke="midnightblue" d="M699.66,-347.13C664.76,-339.26 623.81,-327.35 589.5,-310 554.31,-292.2 519.83,-260.94 501.36,-242.75"/>
<polygon fill="midnightblue" stroke="midnightblue" points="699.29,-350.63 709.81,-349.34 700.79,-343.79 699.29,-350.63"/>
</g>
<!-- Node96 -->
<g id="node9" class="node">
<title>Node96</title>
<g id="a_node9"><a xlink:href="d__resorce_8cpp.html" target="_top" xlink:title=" ">
<polygon fill="white" stroke="black" points="533.5,-78.5 533.5,-97.5 635.5,-97.5 635.5,-78.5 533.5,-78.5"/>
<text text-anchor="middle" x="584.5" y="-85.5" font-family="Helvetica,sans-Serif" font-size="10.00">src/d/d_resorce.cpp</text>
</a>
</g>
</g>
<!-- Node1&#45;&gt;Node96 -->
<g id="edge58" class="edge">
<title>Node1&#45;&gt;Node96</title>
<path fill="none" stroke="midnightblue" d="M700.07,-352.09C671.82,-345.14 642.04,-332.6 622.5,-310 566.98,-245.81 578.46,-130.68 583.09,-97.92"/>
<polygon fill="midnightblue" stroke="midnightblue" points="699.46,-355.54 709.98,-354.32 700.99,-348.71 699.46,-355.54"/>
</g>
<!-- Node281 -->
<g id="node48" class="node">
<title>Node281</title>
<g id="a_node48"><a xlink:href="J3DSys_8cpp.html" target="_top" xlink:title=" ">
<polygon fill="white" stroke="black" points="785.5,-279.5 785.5,-309.5 927.5,-309.5 927.5,-279.5 785.5,-279.5"/>
<text text-anchor="start" x="793.5" y="-297.5" font-family="Helvetica,sans-Serif" font-size="10.00">libs/JSystem/J3DGraphBase</text>
<text text-anchor="middle" x="856.5" y="-286.5" font-family="Helvetica,sans-Serif" font-size="10.00">/J3DSys.cpp</text>
</a>
</g>
</g>
<!-- Node1&#45;&gt;Node281 -->
<g id="edge55" class="edge">
<title>Node1&#45;&gt;Node281</title>
<path fill="none" stroke="midnightblue" d="M802.56,-339.88C814.56,-330.01 828.63,-318.43 839.39,-309.58"/>
<polygon fill="midnightblue" stroke="midnightblue" points="800.14,-337.34 794.64,-346.4 804.59,-342.75 800.14,-337.34"/>
</g>
<!-- Node282 -->
<g id="node49" class="node">
<title>Node282</title>
<g id="a_node49"><a xlink:href="J3DTevs_8cpp.html" target="_top" xlink:title=" ">
<polygon fill="white" stroke="black" points="945.5,-279.5 945.5,-309.5 1087.5,-309.5 1087.5,-279.5 945.5,-279.5"/>
<text text-anchor="start" x="953.5" y="-297.5" font-family="Helvetica,sans-Serif" font-size="10.00">libs/JSystem/J3DGraphBase</text>
<text text-anchor="middle" x="1016.5" y="-286.5" font-family="Helvetica,sans-Serif" font-size="10.00">/J3DTevs.cpp</text>
</a>
</g>
</g>
<!-- Node1&#45;&gt;Node282 -->
<g id="edge56" class="edge">
<title>Node1&#45;&gt;Node282</title>
<path fill="none" stroke="midnightblue" d="M838.72,-343.85C877.69,-333.25 927.6,-319.68 964.62,-309.61"/>
<polygon fill="midnightblue" stroke="midnightblue" points="837.8,-340.47 829.07,-346.48 839.63,-347.23 837.8,-340.47"/>
</g>
<!-- Node283 -->
<g id="node50" class="node">
<title>Node283</title>
<g id="a_node50"><a xlink:href="J3DTexture_8cpp.html" target="_top" xlink:title=" ">
<polygon fill="white" stroke="black" points="1105.5,-279.5 1105.5,-309.5 1247.5,-309.5 1247.5,-279.5 1105.5,-279.5"/>
<text text-anchor="start" x="1113.5" y="-297.5" font-family="Helvetica,sans-Serif" font-size="10.00">libs/JSystem/J3DGraphBase</text>
<text text-anchor="middle" x="1176.5" y="-286.5" font-family="Helvetica,sans-Serif" font-size="10.00">/J3DTexture.cpp</text>
</a>
</g>
</g>
<!-- Node1&#45;&gt;Node283 -->
<g id="edge57" class="edge">
<title>Node1&#45;&gt;Node283</title>
<path fill="none" stroke="midnightblue" d="M855.2,-348.69C919.85,-338.75 1014.25,-323.96 1096.5,-310 1099.42,-309.5 1102.4,-308.99 1105.41,-308.47"/>
<polygon fill="midnightblue" stroke="midnightblue" points="854.45,-345.27 845.09,-350.25 855.51,-352.19 854.45,-345.27"/>
</g>
<!-- Node2&#45;&gt;Node3 -->
<g id="edge2" class="edge">
<title>Node2&#45;&gt;Node3</title>
<path fill="none" stroke="midnightblue" d="M643.87,-276.44C609.51,-265.91 565.94,-252.55 533.52,-242.61"/>
<polygon fill="midnightblue" stroke="midnightblue" points="643.17,-279.89 653.76,-279.48 645.23,-273.2 643.17,-279.89"/>
</g>
<!-- Node24 -->
<g id="node10" class="node">
<title>Node24</title>
<g id="a_node10"><a xlink:href="d__a__alink_8h.html" target="_top" xlink:title=" ">
<polygon fill="white" stroke="black" points="636.5,-218 636.5,-237 752.5,-237 752.5,-218 636.5,-218"/>
<text text-anchor="middle" x="694.5" y="-225" font-family="Helvetica,sans-Serif" font-size="10.00">include/d/a/d_a_alink.h</text>
</a>
</g>
</g>
<!-- Node2&#45;&gt;Node24 -->
<g id="edge9" class="edge">
<title>Node2&#45;&gt;Node24</title>
<path fill="none" stroke="midnightblue" d="M697.63,-269.25C696.77,-258.02 695.8,-245.38 695.17,-237.19"/>
<polygon fill="midnightblue" stroke="midnightblue" points="694.16,-269.69 698.42,-279.4 701.14,-269.16 694.16,-269.69"/>
</g>
<!-- Node280 -->
<g id="node47" class="node">
<title>Node280</title>
<g id="a_node47"><a xlink:href="J3DMatBlock_8cpp.html" target="_top" xlink:title=" ">
<polygon fill="white" stroke="black" points="770.5,-212.5 770.5,-242.5 912.5,-242.5 912.5,-212.5 770.5,-212.5"/>
<text text-anchor="start" x="778.5" y="-230.5" font-family="Helvetica,sans-Serif" font-size="10.00">libs/JSystem/J3DGraphBase</text>
<text text-anchor="middle" x="841.5" y="-219.5" font-family="Helvetica,sans-Serif" font-size="10.00">/J3DMatBlock.cpp</text>
</a>
</g>
</g>
<!-- Node2&#45;&gt;Node280 -->
<g id="edge53" class="edge">
<title>Node2&#45;&gt;Node280</title>
<path fill="none" stroke="midnightblue" d="M739.63,-275.13C762.19,-264.8 789.92,-252.11 810.75,-242.58"/>
<polygon fill="midnightblue" stroke="midnightblue" points="737.95,-272.05 730.31,-279.4 740.86,-278.42 737.95,-272.05"/>
</g>
<!-- Node4 -->
<g id="node4" class="node">
<title>Node4</title>
<g id="a_node4"><a xlink:href="J3DJoint_8h.html" target="_top" xlink:title=" ">
<polygon fill="white" stroke="black" points="82,-145.5 82,-175.5 217,-175.5 217,-145.5 82,-145.5"/>
<text text-anchor="start" x="90" y="-163.5" font-family="Helvetica,sans-Serif" font-size="10.00">include/JSystem/J3DGraph</text>
<text text-anchor="middle" x="149.5" y="-152.5" font-family="Helvetica,sans-Serif" font-size="10.00">Animator/J3DJoint.h</text>
</a>
</g>
</g>
<!-- Node3&#45;&gt;Node4 -->
<g id="edge3" class="edge">
<title>Node3&#45;&gt;Node4</title>
<path fill="none" stroke="midnightblue" d="M410.03,-211.6C351.85,-200.41 272.94,-185.24 217.26,-174.53"/>
<polygon fill="midnightblue" stroke="midnightblue" points="409.43,-215.05 419.91,-213.5 410.75,-208.18 409.43,-215.05"/>
</g>
<!-- Node279 -->
<g id="node7" class="node">
<title>Node279</title>
<g id="a_node7"><a xlink:href="J3DMaterial_8cpp.html" target="_top" xlink:title=" ">
<polygon fill="white" stroke="black" points="235.5,-145.5 235.5,-175.5 377.5,-175.5 377.5,-145.5 235.5,-145.5"/>
<text text-anchor="start" x="243.5" y="-163.5" font-family="Helvetica,sans-Serif" font-size="10.00">libs/JSystem/J3DGraphBase</text>
<text text-anchor="middle" x="306.5" y="-152.5" font-family="Helvetica,sans-Serif" font-size="10.00">/J3DMaterial.cpp</text>
</a>
</g>
</g>
<!-- Node3&#45;&gt;Node279 -->
<g id="edge6" class="edge">
<title>Node3&#45;&gt;Node279</title>
<path fill="none" stroke="midnightblue" d="M438.64,-208.96C409.49,-198.48 372.96,-185.37 345.7,-175.58"/>
<polygon fill="midnightblue" stroke="midnightblue" points="437.63,-212.31 448.23,-212.4 440,-205.72 437.63,-212.31"/>
</g>
<!-- Node269 -->
<g id="node8" class="node">
<title>Node269</title>
<g id="a_node8"><a xlink:href="J3DPacket_8cpp.html" target="_top" xlink:title=" ">
<polygon fill="white" stroke="black" points="395.5,-145.5 395.5,-175.5 537.5,-175.5 537.5,-145.5 395.5,-145.5"/>
<text text-anchor="start" x="403.5" y="-163.5" font-family="Helvetica,sans-Serif" font-size="10.00">libs/JSystem/J3DGraphBase</text>
<text text-anchor="middle" x="466.5" y="-152.5" font-family="Helvetica,sans-Serif" font-size="10.00">/J3DPacket.cpp</text>
</a>
</g>
</g>
<!-- Node3&#45;&gt;Node269 -->
<g id="edge7" class="edge">
<title>Node3&#45;&gt;Node269</title>
<path fill="none" stroke="midnightblue" d="M479.81,-202.7C476.87,-193.59 473.61,-183.49 471.05,-175.58"/>
<polygon fill="midnightblue" stroke="midnightblue" points="476.54,-203.96 482.94,-212.4 483.2,-201.8 476.54,-203.96"/>
</g>
<!-- Node3&#45;&gt;Node96 -->
<g id="edge8" class="edge">
<title>Node3&#45;&gt;Node96</title>
<path fill="none" stroke="midnightblue" d="M516.57,-206C526.99,-197.59 538.21,-187.2 546.5,-176 565.33,-150.57 577.29,-114.35 582.09,-97.83"/>
<polygon fill="midnightblue" stroke="midnightblue" points="514.21,-203.4 508.45,-212.29 518.49,-208.93 514.21,-203.4"/>
</g>
<!-- Node5 -->
<g id="node5" class="node">
<title>Node5</title>
<g id="a_node5"><a xlink:href="J3DJointTree_8h.html" target="_top" xlink:title=" ">
<polygon fill="white" stroke="red" points="0,-73 0,-103 135,-103 135,-73 0,-73"/>
<text text-anchor="start" x="8" y="-91" font-family="Helvetica,sans-Serif" font-size="10.00">include/JSystem/J3DGraph</text>
<text text-anchor="middle" x="67.5" y="-80" font-family="Helvetica,sans-Serif" font-size="10.00">Animator/J3DJointTree.h</text>
</a>
</g>
</g>
<!-- Node4&#45;&gt;Node5 -->
<g id="edge4" class="edge">
<title>Node4&#45;&gt;Node5</title>
<path fill="none" stroke="midnightblue" d="M125.03,-138.46C111.7,-127 95.57,-113.14 83.79,-103"/>
<polygon fill="midnightblue" stroke="midnightblue" points="123.04,-141.37 132.91,-145.23 127.61,-136.06 123.04,-141.37"/>
</g>
<!-- Node274 -->
<g id="node6" class="node">
<title>Node274</title>
<g id="a_node6"><a xlink:href="J3DJoint_8cpp.html" target="_top" xlink:title=" ">
<polygon fill="white" stroke="black" points="153.5,-73 153.5,-103 311.5,-103 311.5,-73 153.5,-73"/>
<text text-anchor="start" x="161.5" y="-91" font-family="Helvetica,sans-Serif" font-size="10.00">libs/JSystem/J3DGraphAnimator</text>
<text text-anchor="middle" x="232.5" y="-80" font-family="Helvetica,sans-Serif" font-size="10.00">/J3DJoint.cpp</text>
</a>
</g>
</g>
<!-- Node4&#45;&gt;Node274 -->
<g id="edge5" class="edge">
<title>Node4&#45;&gt;Node274</title>
<path fill="none" stroke="midnightblue" d="M174.27,-138.46C187.76,-127 204.08,-113.14 216.01,-103"/>
<polygon fill="midnightblue" stroke="midnightblue" points="171.65,-136.09 166.3,-145.23 176.18,-141.43 171.65,-136.09"/>
</g>
<!-- Node25 -->
<g id="node11" class="node">
<title>Node25</title>
<g id="a_node11"><a xlink:href="d__com__inf__game_8h.html" target="_top" xlink:title=" ">
<polygon fill="white" stroke="red" points="2349.5,-145.5 2349.5,-175.5 2459.5,-175.5 2459.5,-145.5 2349.5,-145.5"/>
<text text-anchor="start" x="2357.5" y="-163.5" font-family="Helvetica,sans-Serif" font-size="10.00">include/d/com/d_com</text>
<text text-anchor="middle" x="2404.5" y="-152.5" font-family="Helvetica,sans-Serif" font-size="10.00">_inf_game.h</text>
</a>
</g>
</g>
<!-- Node24&#45;&gt;Node25 -->
<g id="edge10" class="edge">
<title>Node24&#45;&gt;Node25</title>
<path fill="none" stroke="midnightblue" d="M738.03,-215.88C745.81,-214.32 753.86,-212.94 761.5,-212 1078.93,-173.1 2099.87,-163.61 2349.19,-161.84"/>
<polygon fill="midnightblue" stroke="midnightblue" points="737.1,-212.5 728.04,-217.99 738.54,-219.35 737.1,-212.5"/>
</g>
<!-- Node11 -->
<g id="node15" class="node">
<title>Node11</title>
<g id="a_node15"><a xlink:href="d__a__alink_8cpp.html" target="_top" xlink:title=" ">
<polygon fill="white" stroke="black" points="911,-6 911,-25 1020,-25 1020,-6 911,-6"/>
<text text-anchor="middle" x="965.5" y="-13" font-family="Helvetica,sans-Serif" font-size="10.00">src/d/a/d_a_alink.cpp</text>
</a>
</g>
</g>
<!-- Node24&#45;&gt;Node11 -->
<g id="edge52" class="edge">
<title>Node24&#45;&gt;Node11</title>
<path fill="none" stroke="midnightblue" d="M686.05,-208.89C671.96,-176.65 648.4,-107.73 682.5,-67 711.06,-32.9 837.05,-21.8 910.95,-18.21"/>
<polygon fill="midnightblue" stroke="midnightblue" points="682.87,-210.34 690.21,-217.98 689.24,-207.43 682.87,-210.34"/>
</g>
<!-- Node25&#45;&gt;Node96 -->
<g id="edge50" class="edge">
<title>Node25&#45;&gt;Node96</title>
<path fill="none" stroke="midnightblue" d="M2338.97,-159.09C2065.26,-157.13 1012.31,-147.2 682.5,-109 661.28,-106.54 637.83,-101.83 619.19,-97.6"/>
<polygon fill="midnightblue" stroke="midnightblue" points="2339.11,-162.59 2349.14,-159.16 2339.16,-155.59 2339.11,-162.59"/>
</g>
<!-- Node26 -->
<g id="node12" class="node">
<title>Node26</title>
<g id="a_node12"><a xlink:href="d__a__npc_8h.html" target="_top" xlink:title=" ">
<polygon fill="white" stroke="red" points="692,-78.5 692,-97.5 803,-97.5 803,-78.5 692,-78.5"/>
<text text-anchor="middle" x="747.5" y="-85.5" font-family="Helvetica,sans-Serif" font-size="10.00">include/d/a/d_a_npc.h</text>
</a>
</g>
</g>
<!-- Node25&#45;&gt;Node26 -->
<g id="edge11" class="edge">
<title>Node25&#45;&gt;Node26</title>
<path fill="none" stroke="midnightblue" d="M2339.08,-159.78C2078.3,-160.55 1112.55,-159.84 811.5,-109 797.27,-106.6 781.81,-101.83 769.65,-97.55"/>
<polygon fill="midnightblue" stroke="midnightblue" points="2339.16,-163.28 2349.15,-159.75 2339.14,-156.28 2339.16,-163.28"/>
</g>
<!-- Node32 -->
<g id="node13" class="node">
<title>Node32</title>
<g id="a_node13"><a xlink:href="d__cc__uty_8h.html" target="_top" xlink:title=" ">
<polygon fill="white" stroke="red" points="821,-78.5 821,-97.5 940,-97.5 940,-78.5 821,-78.5"/>
<text text-anchor="middle" x="880.5" y="-85.5" font-family="Helvetica,sans-Serif" font-size="10.00">include/d/cc/d_cc_uty.h</text>
</a>
</g>
</g>
<!-- Node25&#45;&gt;Node32 -->
<g id="edge12" class="edge">
<title>Node25&#45;&gt;Node32</title>
<path fill="none" stroke="midnightblue" d="M2339,-159.21C2093.35,-157.81 1227.07,-150.02 954.5,-109 938.18,-106.54 920.31,-101.77 906.22,-97.51"/>
<polygon fill="midnightblue" stroke="midnightblue" points="2339.18,-162.71 2349.19,-159.27 2339.21,-155.71 2339.18,-162.71"/>
</g>
<!-- Node34 -->
<g id="node14" class="node">
<title>Node34</title>
<g id="a_node14"><a xlink:href="d__item_8h.html" target="_top" xlink:title=" ">
<polygon fill="white" stroke="red" points="1163,-78.5 1163,-97.5 1258,-97.5 1258,-78.5 1163,-78.5"/>
<text text-anchor="middle" x="1210.5" y="-85.5" font-family="Helvetica,sans-Serif" font-size="10.00">include/d/d_item.h</text>
</a>
</g>
</g>
<!-- Node25&#45;&gt;Node34 -->
<g id="edge13" class="edge">
<title>Node25&#45;&gt;Node34</title>
<path fill="none" stroke="midnightblue" d="M2339.13,-158.88C2130.08,-156.52 1479.43,-146.29 1272.5,-109 1258.81,-106.53 1243.96,-101.82 1232.23,-97.59"/>
<polygon fill="midnightblue" stroke="midnightblue" points="2339.3,-162.38 2349.34,-158.99 2339.38,-155.38 2339.3,-162.38"/>
</g>
<!-- Node25&#45;&gt;Node11 -->
<g id="edge34" class="edge">
<title>Node25&#45;&gt;Node11</title>
<path fill="none" stroke="midnightblue" d="M2339.03,-159.36C2067.33,-158.48 1040.34,-152.3 987.5,-109 962.09,-88.18 962.89,-43.83 964.51,-25.12"/>
<polygon fill="midnightblue" stroke="midnightblue" points="2339.12,-162.86 2349.13,-159.39 2339.14,-155.86 2339.12,-162.86"/>
</g>
<!-- Node35 -->
<g id="node16" class="node">
<title>Node35</title>
<g id="a_node16"><a xlink:href="d__a__obj__item_8cpp.html" target="_top" xlink:title=" ">
<polygon fill="white" stroke="black" points="1151,-6 1151,-25 1276,-25 1276,-6 1151,-6"/>
<text text-anchor="middle" x="1213.5" y="-13" font-family="Helvetica,sans-Serif" font-size="10.00">src/d/a/d_a_obj_item.cpp</text>
</a>
</g>
</g>
<!-- Node25&#45;&gt;Node35 -->
<g id="edge36" class="edge">
<title>Node25&#45;&gt;Node35</title>
<path fill="none" stroke="midnightblue" d="M2339.17,-158.79C2120.5,-156.07 1422.7,-144.69 1328.5,-109 1304.06,-99.74 1245.55,-46.5 1222.78,-25.25"/>
<polygon fill="midnightblue" stroke="midnightblue" points="2339.17,-162.29 2349.21,-158.91 2339.26,-155.29 2339.17,-162.29"/>
</g>
<!-- Node36 -->
<g id="node17" class="node">
<title>Node36</title>
<g id="a_node17"><a xlink:href="d__com__inf__game_8cpp.html" target="_top" xlink:title=" ">
<polygon fill="white" stroke="black" points="1294.5,-0.5 1294.5,-30.5 1402.5,-30.5 1402.5,-0.5 1294.5,-0.5"/>
<text text-anchor="start" x="1302.5" y="-18.5" font-family="Helvetica,sans-Serif" font-size="10.00">src/d/com/d_com_inf</text>
<text text-anchor="middle" x="1348.5" y="-7.5" font-family="Helvetica,sans-Serif" font-size="10.00">_game.cpp</text>
</a>
</g>
</g>
<!-- Node25&#45;&gt;Node36 -->
<g id="edge42" class="edge">
<title>Node25&#45;&gt;Node36</title>
<path fill="none" stroke="midnightblue" d="M2339.18,-158.84C2113.56,-156.26 1378.91,-145.09 1344.5,-109 1324.53,-88.06 1334.62,-50.84 1342.37,-30.58"/>
<polygon fill="midnightblue" stroke="midnightblue" points="2339.18,-162.34 2349.22,-158.96 2339.26,-155.34 2339.18,-162.34"/>
</g>
<!-- Node39 -->
<g id="node18" class="node">
<title>Node39</title>
<g id="a_node18"><a xlink:href="d__kantera__icon__meter_8h.html" target="_top" xlink:title=" ">
<polygon fill="white" stroke="red" points="1353,-73 1353,-103 1454,-103 1454,-73 1353,-73"/>
<text text-anchor="start" x="1361" y="-91" font-family="Helvetica,sans-Serif" font-size="10.00">include/d/d_kantera</text>
<text text-anchor="middle" x="1403.5" y="-80" font-family="Helvetica,sans-Serif" font-size="10.00">_icon_meter.h</text>
</a>
</g>
</g>
<!-- Node25&#45;&gt;Node39 -->
<g id="edge17" class="edge">
<title>Node25&#45;&gt;Node39</title>
<path fill="none" stroke="midnightblue" d="M2339.41,-158.27C2155.06,-154.44 1631.9,-140.98 1463.5,-109 1455.95,-107.57 1448.04,-105.42 1440.54,-103.06"/>
<polygon fill="midnightblue" stroke="midnightblue" points="2339.42,-161.77 2349.49,-158.48 2339.57,-154.78 2339.42,-161.77"/>
</g>
<!-- Node41 -->
<g id="node19" class="node">
<title>Node41</title>
<g id="a_node19"><a xlink:href="d__model_8h.html" target="_top" xlink:title=" ">
<polygon fill="white" stroke="red" points="1472,-78.5 1472,-97.5 1575,-97.5 1575,-78.5 1472,-78.5"/>
<text text-anchor="middle" x="1523.5" y="-85.5" font-family="Helvetica,sans-Serif" font-size="10.00">include/d/d_model.h</text>
</a>
</g>
</g>
<!-- Node25&#45;&gt;Node41 -->
<g id="edge18" class="edge">
<title>Node25&#45;&gt;Node41</title>
<path fill="none" stroke="midnightblue" d="M2339.24,-157.63C2171.57,-152.48 1728.75,-136.62 1584.5,-109 1571.15,-106.44 1556.67,-101.78 1545.17,-97.6"/>
<polygon fill="midnightblue" stroke="midnightblue" points="2339.3,-161.13 2349.4,-157.94 2339.52,-154.14 2339.3,-161.13"/>
</g>
<!-- Node43 -->
<g id="node20" class="node">
<title>Node43</title>
<g id="a_node20"><a xlink:href="d__name_8h.html" target="_top" xlink:title=" ">
<polygon fill="white" stroke="red" points="1593,-78.5 1593,-97.5 1694,-97.5 1694,-78.5 1593,-78.5"/>
<text text-anchor="middle" x="1643.5" y="-85.5" font-family="Helvetica,sans-Serif" font-size="10.00">include/d/d_name.h</text>
</a>
</g>
</g>
<!-- Node25&#45;&gt;Node43 -->
<g id="edge19" class="edge">
<title>Node25&#45;&gt;Node43</title>
<path fill="none" stroke="midnightblue" d="M2339.19,-160.2C2214.39,-160.35 1933.95,-154.96 1703.5,-109 1690.36,-106.38 1676.12,-101.72 1664.81,-97.55"/>
<polygon fill="midnightblue" stroke="midnightblue" points="2339.35,-163.7 2349.34,-160.17 2339.33,-156.7 2339.35,-163.7"/>
</g>
<!-- Node44 -->
<g id="node21" class="node">
<title>Node44</title>
<g id="a_node21"><a xlink:href="d__file__sel__info_8h.html" target="_top" xlink:title=" ">
<polygon fill="white" stroke="red" points="1712.5,-73 1712.5,-103 1808.5,-103 1808.5,-73 1712.5,-73"/>
<text text-anchor="start" x="1720.5" y="-91" font-family="Helvetica,sans-Serif" font-size="10.00">include/d/file/d_file</text>
<text text-anchor="middle" x="1760.5" y="-80" font-family="Helvetica,sans-Serif" font-size="10.00">_sel_info.h</text>
</a>
</g>
</g>
<!-- Node25&#45;&gt;Node44 -->
<g id="edge20" class="edge">
<title>Node25&#45;&gt;Node44</title>
<path fill="none" stroke="midnightblue" d="M2338.98,-159.21C2229.68,-157.54 2003.75,-149.02 1817.5,-109 1810.53,-107.5 1803.24,-105.39 1796.29,-103.09"/>
<polygon fill="midnightblue" stroke="midnightblue" points="2339.15,-162.71 2349.19,-159.35 2339.24,-155.71 2339.15,-162.71"/>
</g>
<!-- Node46 -->
<g id="node22" class="node">
<title>Node46</title>
<g id="a_node22"><a xlink:href="d__file__sel__warning_8h.html" target="_top" xlink:title=" ">
<polygon fill="white" stroke="red" points="1826.5,-73 1826.5,-103 1922.5,-103 1922.5,-73 1826.5,-73"/>
<text text-anchor="start" x="1834.5" y="-91" font-family="Helvetica,sans-Serif" font-size="10.00">include/d/file/d_file</text>
<text text-anchor="middle" x="1874.5" y="-80" font-family="Helvetica,sans-Serif" font-size="10.00">_sel_warning.h</text>
</a>
</g>
</g>
<!-- Node25&#45;&gt;Node46 -->
<g id="edge21" class="edge">
<title>Node25&#45;&gt;Node46</title>
<path fill="none" stroke="midnightblue" d="M2339.2,-157.29C2247.24,-153.11 2074.76,-141.32 1931.5,-109 1924.65,-107.45 1917.48,-105.35 1910.62,-103.08"/>
<polygon fill="midnightblue" stroke="midnightblue" points="2339.06,-160.79 2349.2,-157.73 2339.37,-153.79 2339.06,-160.79"/>
</g>
<!-- Node48 -->
<g id="node23" class="node">
<title>Node48</title>
<g id="a_node23"><a xlink:href="d__meter2_8h.html" target="_top" xlink:title=" ">
<polygon fill="white" stroke="red" points="1940.5,-78.5 1940.5,-97.5 2074.5,-97.5 2074.5,-78.5 1940.5,-78.5"/>
<text text-anchor="middle" x="2007.5" y="-85.5" font-family="Helvetica,sans-Serif" font-size="10.00">include/d/meter/d_meter2.h</text>
</a>
</g>
</g>
<!-- Node25&#45;&gt;Node48 -->
<g id="edge22" class="edge">
<title>Node25&#45;&gt;Node48</title>
<path fill="none" stroke="midnightblue" d="M2339.19,-151.1C2274.28,-142.3 2172.04,-127.23 2084.5,-109 2068.95,-105.76 2051.83,-101.4 2037.69,-97.57"/>
<polygon fill="midnightblue" stroke="midnightblue" points="2338.9,-154.59 2349.28,-152.45 2339.83,-147.65 2338.9,-154.59"/>
</g>
<!-- Node55 -->
<g id="node24" class="node">
<title>Node55</title>
<g id="a_node24"><a xlink:href="d__msg__object_8h.html" target="_top" xlink:title=" ">
<polygon fill="white" stroke="red" points="996.5,-73 996.5,-103 1106.5,-103 1106.5,-73 996.5,-73"/>
<text text-anchor="start" x="1004.5" y="-91" font-family="Helvetica,sans-Serif" font-size="10.00">include/d/msg/d_msg</text>
<text text-anchor="middle" x="1051.5" y="-80" font-family="Helvetica,sans-Serif" font-size="10.00">_object.h</text>
</a>
</g>
</g>
<!-- Node25&#45;&gt;Node55 -->
<g id="edge23" class="edge">
<title>Node25&#45;&gt;Node55</title>
<path fill="none" stroke="midnightblue" d="M2339.4,-159.03C2112.72,-157.05 1358.93,-147.65 1120.5,-109 1111.76,-107.58 1102.56,-105.41 1093.83,-103.02"/>
<polygon fill="midnightblue" stroke="midnightblue" points="2339.44,-162.53 2349.47,-159.11 2339.5,-155.53 2339.44,-162.53"/>
</g>
<!-- Node60 -->
<g id="node25" class="node">
<title>Node60</title>
<g id="a_node25"><a xlink:href="d__demo_8cpp.html" target="_top" xlink:title=" ">
<polygon fill="white" stroke="black" points="1038.5,-6 1038.5,-25 1132.5,-25 1132.5,-6 1038.5,-6"/>
<text text-anchor="middle" x="1085.5" y="-13" font-family="Helvetica,sans-Serif" font-size="10.00">src/d/d_demo.cpp</text>
</a>
</g>
</g>
<!-- Node25&#45;&gt;Node60 -->
<g id="edge46" class="edge">
<title>Node25&#45;&gt;Node60</title>
<path fill="none" stroke="midnightblue" d="M2339.37,-158.43C2089.86,-154.14 1206.21,-137.02 1153.5,-109 1135.55,-99.46 1103.03,-46.38 1090.56,-25.22"/>
<polygon fill="midnightblue" stroke="midnightblue" points="2339.32,-161.93 2349.38,-158.6 2339.44,-154.93 2339.32,-161.93"/>
</g>
<!-- Node69 -->
<g id="node26" class="node">
<title>Node69</title>
<g id="a_node26"><a xlink:href="d__s__logo_8h.html" target="_top" xlink:title=" ">
<polygon fill="white" stroke="red" points="2093,-78.5 2093,-97.5 2206,-97.5 2206,-78.5 2093,-78.5"/>
<text text-anchor="middle" x="2149.5" y="-85.5" font-family="Helvetica,sans-Serif" font-size="10.00">include/d/s/d_s_logo.h</text>
</a>
</g>
</g>
<!-- Node25&#45;&gt;Node69 -->
<g id="edge26" class="edge">
<title>Node25&#45;&gt;Node69</title>
<path fill="none" stroke="midnightblue" d="M2340.14,-142.87C2303.52,-133.27 2256.85,-120.79 2215.5,-109 2202.83,-105.39 2188.87,-101.19 2177.06,-97.57"/>
<polygon fill="midnightblue" stroke="midnightblue" points="2339.63,-146.35 2350.19,-145.5 2341.4,-139.58 2339.63,-146.35"/>
</g>
<!-- Node71 -->
<g id="node27" class="node">
<title>Node71</title>
<g id="a_node27"><a xlink:href="d__s__play_8h.html" target="_top" xlink:title=" ">
<polygon fill="white" stroke="red" points="2224,-78.5 2224,-97.5 2337,-97.5 2337,-78.5 2224,-78.5"/>
<text text-anchor="middle" x="2280.5" y="-85.5" font-family="Helvetica,sans-Serif" font-size="10.00">include/d/s/d_s_play.h</text>
</a>
</g>
</g>
<!-- Node25&#45;&gt;Node71 -->
<g id="edge27" class="edge">
<title>Node25&#45;&gt;Node71</title>
<path fill="none" stroke="midnightblue" d="M2370.7,-140.28C2346.13,-126.31 2314.04,-108.07 2295.51,-97.53"/>
<polygon fill="midnightblue" stroke="midnightblue" points="2369.28,-143.5 2379.7,-145.4 2372.74,-137.42 2369.28,-143.5"/>
</g>
<!-- Node75 -->
<g id="node28" class="node">
<title>Node75</title>
<g id="a_node28"><a xlink:href="d__msg__scrn__base_8h.html" target="_top" xlink:title=" ">
<polygon fill="white" stroke="red" points="2355,-73 2355,-103 2454,-103 2454,-73 2355,-73"/>
<text text-anchor="start" x="2363" y="-91" font-family="Helvetica,sans-Serif" font-size="10.00">include/msg/scrn/d</text>
<text text-anchor="middle" x="2404.5" y="-80" font-family="Helvetica,sans-Serif" font-size="10.00">_msg_scrn_base.h</text>
</a>
</g>
</g>
<!-- Node25&#45;&gt;Node75 -->
<g id="edge28" class="edge">
<title>Node25&#45;&gt;Node75</title>
<path fill="none" stroke="midnightblue" d="M2404.5,-135.23C2404.5,-124.57 2404.5,-112.41 2404.5,-103.25"/>
<polygon fill="midnightblue" stroke="midnightblue" points="2401,-135.23 2404.5,-145.23 2408,-135.23 2401,-135.23"/>
</g>
<!-- Node79 -->
<g id="node29" class="node">
<title>Node79</title>
<g id="a_node29"><a xlink:href="d__a__b__zant_8h.html" target="_top" xlink:title=" ">
<polygon fill="white" stroke="black" points="2472,-73 2472,-103 2593,-103 2593,-73 2472,-73"/>
<text text-anchor="start" x="2480" y="-91" font-family="Helvetica,sans-Serif" font-size="10.00">include/rel/d/a/b/d</text>
<text text-anchor="middle" x="2532.5" y="-80" font-family="Helvetica,sans-Serif" font-size="10.00">_a_b_zant/d_a_b_zant.h</text>
</a>
</g>
</g>
<!-- Node25&#45;&gt;Node79 -->
<g id="edge29" class="edge">
<title>Node25&#45;&gt;Node79</title>
<path fill="none" stroke="midnightblue" d="M2438.89,-140.56C2460.32,-128.76 2487.43,-113.83 2506.95,-103.07"/>
<polygon fill="midnightblue" stroke="midnightblue" points="2437.17,-137.51 2430.1,-145.4 2440.54,-143.64 2437.17,-137.51"/>
</g>
<!-- Node80 -->
<g id="node30" class="node">
<title>Node80</title>
<g id="a_node30"><a xlink:href="d__a__spinner_8h.html" target="_top" xlink:title=" ">
<polygon fill="white" stroke="black" points="2611.5,-73 2611.5,-103 2727.5,-103 2727.5,-73 2611.5,-73"/>
<text text-anchor="start" x="2619.5" y="-91" font-family="Helvetica,sans-Serif" font-size="10.00">include/rel/d/a/d_a</text>
<text text-anchor="middle" x="2669.5" y="-80" font-family="Helvetica,sans-Serif" font-size="10.00">_spinner/d_a_spinner.h</text>
</a>
</g>
</g>
<!-- Node25&#45;&gt;Node80 -->
<g id="edge30" class="edge">
<title>Node25&#45;&gt;Node80</title>
<path fill="none" stroke="midnightblue" d="M2469.8,-143.55C2508.48,-133.93 2558.4,-121.2 2602.5,-109 2609.29,-107.12 2616.44,-105.07 2623.44,-103.02"/>
<polygon fill="midnightblue" stroke="midnightblue" points="2468.57,-140.25 2459.71,-146.05 2470.26,-147.04 2468.57,-140.25"/>
</g>
<!-- Node81 -->
<g id="node31" class="node">
<title>Node81</title>
<g id="a_node31"><a xlink:href="d__a__obj__yobikusa_8h.html" target="_top" xlink:title=" ">
<polygon fill="white" stroke="black" points="2746,-67.5 2746,-108.5 2851,-108.5 2851,-67.5 2746,-67.5"/>
<text text-anchor="start" x="2754" y="-96.5" font-family="Helvetica,sans-Serif" font-size="10.00">include/rel/d/a/obj</text>
<text text-anchor="start" x="2754" y="-85.5" font-family="Helvetica,sans-Serif" font-size="10.00">/d_a_obj_yobikusa/d</text>
<text text-anchor="middle" x="2798.5" y="-74.5" font-family="Helvetica,sans-Serif" font-size="10.00">_a_obj_yobikusa.h</text>
</a>
</g>
</g>
<!-- Node25&#45;&gt;Node81 -->
<g id="edge31" class="edge">
<title>Node25&#45;&gt;Node81</title>
<path fill="none" stroke="midnightblue" d="M2469.7,-152.73C2537.08,-145 2645.01,-130.57 2736.5,-109 2739.58,-108.27 2742.73,-107.47 2745.9,-106.61"/>
<polygon fill="midnightblue" stroke="midnightblue" points="2469.2,-149.26 2459.65,-153.87 2469.98,-156.22 2469.2,-149.26"/>
</g>
<!-- Node82 -->
<g id="node32" class="node">
<title>Node82</title>
<g id="a_node32"><a xlink:href="d__a__tag__telop_8h.html" target="_top" xlink:title=" ">
<polygon fill="white" stroke="black" points="2869.5,-67.5 2869.5,-108.5 2987.5,-108.5 2987.5,-67.5 2869.5,-67.5"/>
<text text-anchor="start" x="2877.5" y="-96.5" font-family="Helvetica,sans-Serif" font-size="10.00">include/rel/d/a/tag</text>
<text text-anchor="start" x="2877.5" y="-85.5" font-family="Helvetica,sans-Serif" font-size="10.00">/d_a_tag_telop/d_a_tag</text>
<text text-anchor="middle" x="2928.5" y="-74.5" font-family="Helvetica,sans-Serif" font-size="10.00">_telop.h</text>
</a>
</g>
</g>
<!-- Node25&#45;&gt;Node82 -->
<g id="edge32" class="edge">
<title>Node25&#45;&gt;Node82</title>
<path fill="none" stroke="midnightblue" d="M2469.95,-155.88C2559.01,-150.12 2723.03,-136.6 2860.5,-109 2863.4,-108.42 2866.35,-107.77 2869.32,-107.07"/>
<polygon fill="midnightblue" stroke="midnightblue" points="2469.49,-152.4 2459.73,-156.52 2469.93,-159.38 2469.49,-152.4"/>
</g>
<!-- Node83 -->
<g id="node33" class="node">
<title>Node83</title>
<g id="a_node33"><a xlink:href="c__dylink_8cpp.html" target="_top" xlink:title=" ">
<polygon fill="white" stroke="black" points="3006,-78.5 3006,-97.5 3101,-97.5 3101,-78.5 3006,-78.5"/>
<text text-anchor="middle" x="3053.5" y="-85.5" font-family="Helvetica,sans-Serif" font-size="10.00">src/c/c_dylink.cpp</text>
</a>
</g>
</g>
<!-- Node25&#45;&gt;Node83 -->
<g id="edge33" class="edge">
<title>Node25&#45;&gt;Node83</title>
<path fill="none" stroke="midnightblue" d="M2470.14,-159.27C2580.21,-157.71 2808.42,-149.34 2996.5,-109 3008.91,-106.34 3022.32,-101.73 3033.02,-97.6"/>
<polygon fill="midnightblue" stroke="midnightblue" points="2469.82,-155.78 2459.87,-159.41 2469.91,-162.78 2469.82,-155.78"/>
</g>
<!-- Node84 -->
<g id="node34" class="node">
<title>Node84</title>
<g id="a_node34"><a xlink:href="d__a__itembase_8cpp.html" target="_top" xlink:title=" ">
<polygon fill="white" stroke="black" points="3119.5,-78.5 3119.5,-97.5 3247.5,-97.5 3247.5,-78.5 3119.5,-78.5"/>
<text text-anchor="middle" x="3183.5" y="-85.5" font-family="Helvetica,sans-Serif" font-size="10.00">src/d/a/d_a_itembase.cpp</text>
</a>
</g>
</g>
<!-- Node25&#45;&gt;Node84 -->
<g id="edge35" class="edge">
<title>Node25&#45;&gt;Node84</title>
<path fill="none" stroke="midnightblue" d="M2470.06,-159.08C2595.38,-157.35 2877.23,-148.9 3110.5,-109 3126.17,-106.32 3143.34,-101.7 3157.08,-97.58"/>
<polygon fill="midnightblue" stroke="midnightblue" points="2469.82,-155.59 2459.87,-159.22 2469.91,-162.59 2469.82,-155.59"/>
</g>
<!-- Node85 -->
<g id="node35" class="node">
<title>Node85</title>
<g id="a_node35"><a xlink:href="d__a__player_8cpp.html" target="_top" xlink:title=" ">
<polygon fill="white" stroke="black" points="3265.5,-78.5 3265.5,-97.5 3379.5,-97.5 3379.5,-78.5 3265.5,-78.5"/>
<text text-anchor="middle" x="3322.5" y="-85.5" font-family="Helvetica,sans-Serif" font-size="10.00">src/d/a/d_a_player.cpp</text>
</a>
</g>
</g>
<!-- Node25&#45;&gt;Node85 -->
<g id="edge37" class="edge">
<title>Node25&#45;&gt;Node85</title>
<path fill="none" stroke="midnightblue" d="M2469.85,-157.61C2642.1,-152.32 3105.6,-135.95 3256.5,-109 3270.88,-106.43 3286.54,-101.77 3299,-97.59"/>
<polygon fill="midnightblue" stroke="midnightblue" points="2469.56,-154.12 2459.67,-157.92 2469.77,-161.12 2469.56,-154.12"/>
</g>
<!-- Node86 -->
<g id="node36" class="node">
<title>Node86</title>
<g id="a_node36"><a xlink:href="d__bg__s_8cpp.html" target="_top" xlink:title=" ">
<polygon fill="white" stroke="black" points="3397.5,-78.5 3397.5,-97.5 3501.5,-97.5 3501.5,-78.5 3397.5,-78.5"/>
<text text-anchor="middle" x="3449.5" y="-85.5" font-family="Helvetica,sans-Serif" font-size="10.00">src/d/bg/d_bg_s.cpp</text>
</a>
</g>
</g>
<!-- Node25&#45;&gt;Node86 -->
<g id="edge38" class="edge">
<title>Node25&#45;&gt;Node86</title>
<path fill="none" stroke="midnightblue" d="M2469.92,-158.4C2660.27,-154.86 3211.5,-141.95 3388.5,-109 3401.98,-106.49 3416.59,-101.78 3428.13,-97.55"/>
<polygon fill="midnightblue" stroke="midnightblue" points="2469.72,-154.91 2459.79,-158.59 2469.85,-161.91 2469.72,-154.91"/>
</g>
<!-- Node87 -->
<g id="node37" class="node">
<title>Node87</title>
<g id="a_node37"><a xlink:href="d__bg__s__movebg__actor_8cpp.html" target="_top" xlink:title=" ">
<polygon fill="white" stroke="black" points="3519.5,-73 3519.5,-103 3645.5,-103 3645.5,-73 3519.5,-73"/>
<text text-anchor="start" x="3527.5" y="-91" font-family="Helvetica,sans-Serif" font-size="10.00">src/d/bg/d_bg_s_movebg</text>
<text text-anchor="middle" x="3582.5" y="-80" font-family="Helvetica,sans-Serif" font-size="10.00">_actor.cpp</text>
</a>
</g>
</g>
<!-- Node25&#45;&gt;Node87 -->
<g id="edge39" class="edge">
<title>Node25&#45;&gt;Node87</title>
<path fill="none" stroke="midnightblue" d="M2469.72,-158.45C2675.31,-154.83 3308.09,-141.31 3510.5,-109 3519.47,-107.57 3528.91,-105.42 3537.91,-103.06"/>
<polygon fill="midnightblue" stroke="midnightblue" points="2469.62,-154.95 2459.68,-158.62 2469.74,-161.95 2469.62,-154.95"/>
</g>
<!-- Node88 -->
<g id="node38" class="node">
<title>Node88</title>
<g id="a_node38"><a xlink:href="d__bg__w_8cpp.html" target="_top" xlink:title=" ">
<polygon fill="white" stroke="black" points="3664,-78.5 3664,-97.5 3771,-97.5 3771,-78.5 3664,-78.5"/>
<text text-anchor="middle" x="3717.5" y="-85.5" font-family="Helvetica,sans-Serif" font-size="10.00">src/d/bg/d_bg_w.cpp</text>
</a>
</g>
</g>
<!-- Node25&#45;&gt;Node88 -->
<g id="edge40" class="edge">
<title>Node25&#45;&gt;Node88</title>
<path fill="none" stroke="midnightblue" d="M2469.76,-159.16C2692.77,-157.63 3423.53,-149.57 3654.5,-109 3668.51,-106.54 3683.73,-101.77 3695.7,-97.5"/>
<polygon fill="midnightblue" stroke="midnightblue" points="2469.5,-155.66 2459.53,-159.23 2469.55,-162.66 2469.5,-155.66"/>
</g>
<!-- Node89 -->
<g id="node39" class="node">
<title>Node89</title>
<g id="a_node39"><a xlink:href="d__cc__s_8cpp.html" target="_top" xlink:title=" ">
<polygon fill="white" stroke="black" points="3789.5,-78.5 3789.5,-97.5 3893.5,-97.5 3893.5,-78.5 3789.5,-78.5"/>
<text text-anchor="middle" x="3841.5" y="-85.5" font-family="Helvetica,sans-Serif" font-size="10.00">src/d/cc/d_cc_s.cpp</text>
</a>
</g>
</g>
<!-- Node25&#45;&gt;Node89 -->
<g id="edge41" class="edge">
<title>Node25&#45;&gt;Node89</title>
<path fill="none" stroke="midnightblue" d="M2469.87,-159.52C2707.39,-159.22 3524.13,-154.79 3780.5,-109 3794.1,-106.57 3808.84,-101.8 3820.42,-97.53"/>
<polygon fill="midnightblue" stroke="midnightblue" points="2469.66,-156.02 2459.67,-159.53 2469.67,-163.02 2469.66,-156.02"/>
</g>
<!-- Node90 -->
<g id="node40" class="node">
<title>Node90</title>
<g id="a_node40"><a xlink:href="d__com__static_8cpp.html" target="_top" xlink:title=" ">
<polygon fill="white" stroke="black" points="3911.5,-78.5 3911.5,-97.5 4051.5,-97.5 4051.5,-78.5 3911.5,-78.5"/>
<text text-anchor="middle" x="3981.5" y="-85.5" font-family="Helvetica,sans-Serif" font-size="10.00">src/d/com/d_com_static.cpp</text>
</a>
</g>
</g>
<!-- Node25&#45;&gt;Node90 -->
<g id="edge43" class="edge">
<title>Node25&#45;&gt;Node90</title>
<path fill="none" stroke="midnightblue" d="M2469.65,-159.16C2719.91,-157.56 3619.63,-149.1 3902.5,-109 3919.87,-106.54 3938.95,-101.77 3954,-97.5"/>
<polygon fill="midnightblue" stroke="midnightblue" points="2469.6,-155.66 2459.62,-159.22 2469.64,-162.66 2469.6,-155.66"/>
</g>
<!-- Node91 -->
<g id="node41" class="node">
<title>Node91</title>
<g id="a_node41"><a xlink:href="d__cam__param_8cpp.html" target="_top" xlink:title=" ">
<polygon fill="white" stroke="black" points="4070,-78.5 4070,-97.5 4191,-97.5 4191,-78.5 4070,-78.5"/>
<text text-anchor="middle" x="4130.5" y="-85.5" font-family="Helvetica,sans-Serif" font-size="10.00">src/d/d_cam_param.cpp</text>
</a>
</g>
</g>
<!-- Node25&#45;&gt;Node91 -->
<g id="edge44" class="edge">
<title>Node25&#45;&gt;Node91</title>
<path fill="none" stroke="midnightblue" d="M2470.22,-159.67C2737.81,-160.01 3746.03,-157.94 4060.5,-109 4075.99,-106.59 4092.89,-101.82 4106.21,-97.55"/>
<polygon fill="midnightblue" stroke="midnightblue" points="2469.9,-156.17 2459.89,-159.65 2469.89,-163.17 2469.9,-156.17"/>
</g>
<!-- Node92 -->
<g id="node42" class="node">
<title>Node92</title>
<g id="a_node42"><a xlink:href="d__camera_8cpp.html" target="_top" xlink:title=" ">
<polygon fill="white" stroke="black" points="4209.5,-78.5 4209.5,-97.5 4311.5,-97.5 4311.5,-78.5 4209.5,-78.5"/>
<text text-anchor="middle" x="4260.5" y="-85.5" font-family="Helvetica,sans-Serif" font-size="10.00">src/d/d_camera.cpp</text>
</a>
</g>
</g>
<!-- Node25&#45;&gt;Node92 -->
<g id="edge45" class="edge">
<title>Node25&#45;&gt;Node92</title>
<path fill="none" stroke="midnightblue" d="M2470.2,-158.79C2773.14,-155.38 4027.85,-139.51 4200.5,-109 4213.91,-106.63 4228.4,-101.86 4239.79,-97.58"/>
<polygon fill="midnightblue" stroke="midnightblue" points="2469.79,-155.3 2459.83,-158.91 2469.87,-162.3 2469.79,-155.3"/>
</g>
<!-- Node93 -->
<g id="node43" class="node">
<title>Node93</title>
<g id="a_node43"><a xlink:href="d__eye__hl_8cpp.html" target="_top" xlink:title=" ">
<polygon fill="white" stroke="black" points="4329.5,-78.5 4329.5,-97.5 4427.5,-97.5 4427.5,-78.5 4329.5,-78.5"/>
<text text-anchor="middle" x="4378.5" y="-85.5" font-family="Helvetica,sans-Serif" font-size="10.00">src/d/d_eye_hl.cpp</text>
</a>
</g>
</g>
<!-- Node25&#45;&gt;Node93 -->
<g id="edge47" class="edge">
<title>Node25&#45;&gt;Node93</title>
<path fill="none" stroke="midnightblue" d="M2469.92,-158.96C2784.68,-156.2 4135.56,-142.5 4320.5,-109 4333.5,-106.65 4347.51,-101.88 4358.51,-97.59"/>
<polygon fill="midnightblue" stroke="midnightblue" points="2469.57,-155.46 2459.6,-159.05 2469.63,-162.46 2469.57,-155.46"/>
</g>
<!-- Node94 -->
<g id="node44" class="node">
<title>Node94</title>
<g id="a_node44"><a xlink:href="d__kyeff_8cpp.html" target="_top" xlink:title=" ">
<polygon fill="white" stroke="black" points="4445.5,-78.5 4445.5,-97.5 4535.5,-97.5 4535.5,-78.5 4445.5,-78.5"/>
<text text-anchor="middle" x="4490.5" y="-85.5" font-family="Helvetica,sans-Serif" font-size="10.00">src/d/d_kyeff.cpp</text>
</a>
</g>
</g>
<!-- Node25&#45;&gt;Node94 -->
<g id="edge48" class="edge">
<title>Node25&#45;&gt;Node94</title>
<path fill="none" stroke="midnightblue" d="M2470.16,-159.15C2796.95,-157.25 4240.02,-146.74 4436.5,-109 4448.67,-106.66 4461.72,-101.9 4471.94,-97.6"/>
<polygon fill="midnightblue" stroke="midnightblue" points="2469.9,-155.65 2459.92,-159.21 2469.94,-162.65 2469.9,-155.65"/>
</g>
<!-- Node95 -->
<g id="node45" class="node">
<title>Node95</title>
<g id="a_node45"><a xlink:href="d__path_8cpp.html" target="_top" xlink:title=" ">
<polygon fill="white" stroke="black" points="4554,-78.5 4554,-97.5 4643,-97.5 4643,-78.5 4554,-78.5"/>
<text text-anchor="middle" x="4598.5" y="-85.5" font-family="Helvetica,sans-Serif" font-size="10.00">src/d/d_path.cpp</text>
</a>
</g>
</g>
<!-- Node25&#45;&gt;Node95 -->
<g id="edge49" class="edge">
<title>Node25&#45;&gt;Node95</title>
<path fill="none" stroke="midnightblue" d="M2469.82,-159.24C2806.34,-157.74 4336.78,-148.77 4544.5,-109 4556.68,-106.67 4569.73,-101.9 4579.95,-97.61"/>
<polygon fill="midnightblue" stroke="midnightblue" points="2469.73,-155.74 2459.74,-159.29 2469.76,-162.74 2469.73,-155.74"/>
</g>
<!-- Node97 -->
<g id="node46" class="node">
<title>Node97</title>
<g id="a_node46"><a xlink:href="d__simple__model_8cpp.html" target="_top" xlink:title=" ">
<polygon fill="white" stroke="black" points="4661.5,-78.5 4661.5,-97.5 4791.5,-97.5 4791.5,-78.5 4661.5,-78.5"/>
<text text-anchor="middle" x="4726.5" y="-85.5" font-family="Helvetica,sans-Serif" font-size="10.00">src/d/d_simple_model.cpp</text>
</a>
</g>
</g>
<!-- Node25&#45;&gt;Node97 -->
<g id="edge51" class="edge">
<title>Node25&#45;&gt;Node97</title>
<path fill="none" stroke="midnightblue" d="M2469.66,-158.97C2815.83,-156.05 4431.9,-140.81 4652.5,-109 4668.83,-106.64 4686.71,-101.88 4700.79,-97.59"/>
<polygon fill="midnightblue" stroke="midnightblue" points="2469.52,-155.48 2459.55,-159.06 2469.58,-162.47 2469.52,-155.48"/>
</g>
<!-- Node34&#45;&gt;Node11 -->
<g id="edge14" class="edge">
<title>Node34&#45;&gt;Node11</title>
<path fill="none" stroke="midnightblue" d="M1171.31,-75.72C1122.24,-61.6 1039.27,-37.73 995.16,-25.03"/>
<polygon fill="midnightblue" stroke="midnightblue" points="1170.37,-79.09 1180.95,-78.5 1172.31,-72.37 1170.37,-79.09"/>
</g>
<!-- Node34&#45;&gt;Node35 -->
<g id="edge15" class="edge">
<title>Node34&#45;&gt;Node35</title>
<path fill="none" stroke="midnightblue" d="M1211.29,-68.36C1211.89,-54.4 1212.67,-35.93 1213.13,-25.22"/>
<polygon fill="midnightblue" stroke="midnightblue" points="1207.8,-68.22 1210.87,-78.36 1214.79,-68.51 1207.8,-68.22"/>
</g>
<!-- Node34&#45;&gt;Node36 -->
<g id="edge16" class="edge">
<title>Node34&#45;&gt;Node36</title>
<path fill="none" stroke="midnightblue" d="M1236.08,-73.93C1260.23,-61.59 1296.35,-43.14 1321.08,-30.51"/>
<polygon fill="midnightblue" stroke="midnightblue" points="1234.46,-70.83 1227.15,-78.5 1237.64,-77.06 1234.46,-70.83"/>
</g>
<!-- Node55&#45;&gt;Node11 -->
<g id="edge24" class="edge">
<title>Node55&#45;&gt;Node11</title>
<path fill="none" stroke="midnightblue" d="M1026.35,-66.38C1009.75,-52.77 988.83,-35.63 976.35,-25.39"/>
<polygon fill="midnightblue" stroke="midnightblue" points="1024.14,-69.1 1034.1,-72.73 1028.58,-63.69 1024.14,-69.1"/>
</g>
<!-- Node55&#45;&gt;Node60 -->
<g id="edge25" class="edge">
<title>Node55&#45;&gt;Node60</title>
<path fill="none" stroke="midnightblue" d="M1062.9,-63.36C1069.19,-50.32 1076.63,-34.88 1081.21,-25.39"/>
<polygon fill="midnightblue" stroke="midnightblue" points="1059.57,-62.21 1058.38,-72.73 1065.88,-65.25 1059.57,-62.21"/>
</g>
</g>
</svg>
