<?xml version="1.0" encoding="UTF-8" standalone="no"?>
<!DOCTYPE svg PUBLIC "-//W3C//DTD SVG 1.1//EN"
 "http://www.w3.org/Graphics/SVG/1.1/DTD/svg11.dtd">
<!-- Generated by graphviz version 3.0.0 (20220413.0242)
 -->
<!-- Title: libs/JSystem/J3DGraphBase/J3DTevs.cpp Pages: 1 -->
<svg width="3733pt" height="531pt"
 viewBox="0.00 0.00 3733.00 531.00" xmlns="http://www.w3.org/2000/svg" xmlns:xlink="http://www.w3.org/1999/xlink">
<g id="graph0" class="graph" transform="scale(1 1) rotate(0) translate(4 527)">
<title>libs/JSystem/J3DGraphBase/J3DTevs.cpp</title>
<polygon fill="white" stroke="transparent" points="-4,4 -4,-527 3729,-527 3729,4 -4,4"/>
<!-- Node1 -->
<g id="node1" class="node">
<title>Node1</title>
<g id="a_node1"><a xlink:title=" ">
<polygon fill="#bfbfbf" stroke="black" points="1693,-492.5 1693,-522.5 1835,-522.5 1835,-492.5 1693,-492.5"/>
<text text-anchor="start" x="1701" y="-510.5" font-family="Helvetica,sans-Serif" font-size="10.00">libs/JSystem/J3DGraphBase</text>
<text text-anchor="middle" x="1764" y="-499.5" font-family="Helvetica,sans-Serif" font-size="10.00">/J3DTevs.cpp</text>
</a>
</g>
</g>
<!-- Node2 -->
<g id="node2" class="node">
<title>Node2</title>
<g id="a_node2"><a xlink:href="J3DTevs_8h.html" target="_top" xlink:title=" ">
<polygon fill="white" stroke="black" points="0,-347.5 0,-377.5 124,-377.5 124,-347.5 0,-347.5"/>
<text text-anchor="start" x="8" y="-365.5" font-family="Helvetica,sans-Serif" font-size="10.00">JSystem/J3DGraphBase</text>
<text text-anchor="middle" x="62" y="-354.5" font-family="Helvetica,sans-Serif" font-size="10.00">/J3DTevs.h</text>
</a>
</g>
</g>
<!-- Node1&#45;&gt;Node2 -->
<g id="edge1" class="edge">
<title>Node1&#45;&gt;Node2</title>
<path fill="none" stroke="midnightblue" d="M1692.92,-505.93C1388.71,-503.26 208.61,-490.72 138,-456 108.13,-441.31 85.9,-408.81 73.43,-386.52"/>
<polygon fill="midnightblue" stroke="midnightblue" points="76.5,-384.84 68.69,-377.68 70.33,-388.15 76.5,-384.84"/>
</g>
<!-- Node3 -->
<g id="node3" class="node">
<title>Node3</title>
<g id="a_node3"><a xlink:href="types_8h.html" target="_top" xlink:title=" ">
<polygon fill="white" stroke="black" points="498.5,-0.5 498.5,-19.5 579.5,-19.5 579.5,-0.5 498.5,-0.5"/>
<text text-anchor="middle" x="539" y="-7.5" font-family="Helvetica,sans-Serif" font-size="10.00">dolphin/types.h</text>
</a>
</g>
</g>
<!-- Node1&#45;&gt;Node3 -->
<g id="edge37" class="edge">
<title>Node1&#45;&gt;Node3</title>
<path fill="none" stroke="midnightblue" d="M1692.8,-505.45C1465.19,-501.8 756.9,-488.08 530,-456 358.75,-431.79 152,-536.46 152,-363.5 152,-363.5 152,-363.5 152,-121 152,-84.55 170.44,-74.23 202,-56 249.6,-28.5 406.37,-17.19 488.22,-13.07"/>
<polygon fill="midnightblue" stroke="midnightblue" points="488.48,-16.57 498.3,-12.59 488.14,-9.57 488.48,-16.57"/>
</g>
<!-- Node4 -->
<g id="node4" class="node">
<title>Node4</title>
<g id="a_node4"><a xlink:href="J3DSys_8h.html" target="_top" xlink:title=" ">
<polygon fill="white" stroke="black" points="465,-280.5 465,-310.5 589,-310.5 589,-280.5 465,-280.5"/>
<text text-anchor="start" x="473" y="-298.5" font-family="Helvetica,sans-Serif" font-size="10.00">JSystem/J3DGraphBase</text>
<text text-anchor="middle" x="527" y="-287.5" font-family="Helvetica,sans-Serif" font-size="10.00">/J3DSys.h</text>
</a>
</g>
</g>
<!-- Node1&#45;&gt;Node4 -->
<g id="edge3" class="edge">
<title>Node1&#45;&gt;Node4</title>
<path fill="none" stroke="midnightblue" d="M1692.57,-505.91C1440.2,-503.51 603.29,-492.79 560,-456 520.94,-422.81 520.65,-356.67 523.81,-320.87"/>
<polygon fill="midnightblue" stroke="midnightblue" points="527.3,-321.11 524.86,-310.8 520.34,-320.38 527.3,-321.11"/>
</g>
<!-- Node14 -->
<g id="node14" class="node">
<title>Node14</title>
<g id="a_node14"><a xlink:href="J3DTexture_8h.html" target="_top" xlink:title=" ">
<polygon fill="white" stroke="black" points="569,-420 569,-450 693,-450 693,-420 569,-420"/>
<text text-anchor="start" x="577" y="-438" font-family="Helvetica,sans-Serif" font-size="10.00">JSystem/J3DGraphBase</text>
<text text-anchor="middle" x="631" y="-427" font-family="Helvetica,sans-Serif" font-size="10.00">/J3DTexture.h</text>
</a>
</g>
</g>
<!-- Node1&#45;&gt;Node14 -->
<g id="edge27" class="edge">
<title>Node1&#45;&gt;Node14</title>
<path fill="none" stroke="midnightblue" d="M1692.79,-505.18C1487.07,-501.05 894.41,-486.74 703,-456 697.26,-455.08 691.31,-453.86 685.42,-452.49"/>
<polygon fill="midnightblue" stroke="midnightblue" points="686.14,-449.06 675.59,-450.05 684.46,-455.86 686.14,-449.06"/>
</g>
<!-- Node17 -->
<g id="node17" class="node">
<title>Node17</title>
<g id="a_node17"><a xlink:href="dol2asm_8h.html" target="_top" xlink:title=" ">
<polygon fill="white" stroke="black" points="711.5,-425.5 711.5,-444.5 772.5,-444.5 772.5,-425.5 711.5,-425.5"/>
<text text-anchor="middle" x="742" y="-432.5" font-family="Helvetica,sans-Serif" font-size="10.00">dol2asm.h</text>
</a>
</g>
</g>
<!-- Node1&#45;&gt;Node17 -->
<g id="edge36" class="edge">
<title>Node1&#45;&gt;Node17</title>
<path fill="none" stroke="midnightblue" d="M1692.9,-506.61C1497.26,-506.32 954.1,-501.32 782,-456 776.18,-454.47 770.22,-452.03 764.73,-449.38"/>
<polygon fill="midnightblue" stroke="midnightblue" points="765.99,-446.08 755.51,-444.51 762.72,-452.27 765.99,-446.08"/>
</g>
<!-- Node18 -->
<g id="node18" class="node">
<title>Node18</title>
<g id="a_node18"><a xlink:title=" ">
<polygon fill="white" stroke="#bfbfbf" points="790.5,-420 790.5,-450 975.5,-450 975.5,-420 790.5,-420"/>
<text text-anchor="start" x="798.5" y="-438" font-family="Helvetica,sans-Serif" font-size="10.00">asm/JSystem/J3DGraphBase</text>
<text text-anchor="middle" x="883" y="-427" font-family="Helvetica,sans-Serif" font-size="10.00">/J3DTevs/load__11J3DLightObjCFUl.s</text>
</a>
</g>
</g>
<!-- Node1&#45;&gt;Node18 -->
<g id="edge38" class="edge">
<title>Node1&#45;&gt;Node18</title>
<path fill="none" stroke="midnightblue" d="M1692.81,-504.95C1555.43,-501.29 1244.39,-489.7 985,-456 976.13,-454.85 966.87,-453.39 957.7,-451.79"/>
<polygon fill="midnightblue" stroke="midnightblue" points="958.28,-448.34 947.82,-450.01 957.04,-455.23 958.28,-448.34"/>
</g>
<!-- Node19 -->
<g id="node19" class="node">
<title>Node19</title>
<g id="a_node19"><a xlink:title=" ">
<polygon fill="white" stroke="#bfbfbf" points="994,-414.5 994,-455.5 1140,-455.5 1140,-414.5 994,-414.5"/>
<text text-anchor="start" x="1002" y="-443.5" font-family="Helvetica,sans-Serif" font-size="10.00">asm/JSystem/J3DGraphBase</text>
<text text-anchor="start" x="1002" y="-432.5" font-family="Helvetica,sans-Serif" font-size="10.00">/J3DTevs/loadTexCoordGens</text>
<text text-anchor="middle" x="1067" y="-421.5" font-family="Helvetica,sans-Serif" font-size="10.00">__FUlP11J3DTexCoord.s</text>
</a>
</g>
</g>
<!-- Node1&#45;&gt;Node19 -->
<g id="edge39" class="edge">
<title>Node1&#45;&gt;Node19</title>
<path fill="none" stroke="midnightblue" d="M1692.54,-504.28C1579.28,-499.95 1351.6,-488 1150.08,-456.04"/>
<polygon fill="midnightblue" stroke="midnightblue" points="1150.63,-452.59 1140.2,-454.46 1149.52,-459.5 1150.63,-452.59"/>
</g>
<!-- Node20 -->
<g id="node20" class="node">
<title>Node20</title>
<g id="a_node20"><a xlink:title=" ">
<polygon fill="white" stroke="#bfbfbf" points="1158,-414.5 1158,-455.5 1334,-455.5 1334,-414.5 1158,-414.5"/>
<text text-anchor="start" x="1166" y="-443.5" font-family="Helvetica,sans-Serif" font-size="10.00">asm/JSystem/J3DGraphBase</text>
<text text-anchor="start" x="1166" y="-432.5" font-family="Helvetica,sans-Serif" font-size="10.00">/J3DTevs/calcTexMtx__9J3DTexMtx</text>
<text text-anchor="middle" x="1246" y="-421.5" font-family="Helvetica,sans-Serif" font-size="10.00">FPA4_Cf.s</text>
</a>
</g>
</g>
<!-- Node1&#45;&gt;Node20 -->
<g id="edge40" class="edge">
<title>Node1&#45;&gt;Node20</title>
<path fill="none" stroke="midnightblue" d="M1692.98,-499.82C1611.21,-491.71 1472.69,-476.71 1344.25,-456.14"/>
<polygon fill="midnightblue" stroke="midnightblue" points="1344.66,-452.66 1334.23,-454.52 1343.54,-459.57 1344.66,-452.66"/>
</g>
<!-- Node21 -->
<g id="node21" class="node">
<title>Node21</title>
<g id="a_node21"><a xlink:title=" ">
<polygon fill="white" stroke="#bfbfbf" points="1352,-414.5 1352,-455.5 1498,-455.5 1498,-414.5 1352,-414.5"/>
<text text-anchor="start" x="1360" y="-443.5" font-family="Helvetica,sans-Serif" font-size="10.00">asm/JSystem/J3DGraphBase</text>
<text text-anchor="start" x="1360" y="-432.5" font-family="Helvetica,sans-Serif" font-size="10.00">/J3DTevs/calcPostTexMtx</text>
<text text-anchor="middle" x="1425" y="-421.5" font-family="Helvetica,sans-Serif" font-size="10.00">__9J3DTexMtxFPA4_Cf.s</text>
</a>
</g>
</g>
<!-- Node1&#45;&gt;Node21 -->
<g id="edge41" class="edge">
<title>Node1&#45;&gt;Node21</title>
<path fill="none" stroke="midnightblue" d="M1692.93,-493.3C1643.88,-484.01 1576.91,-470.94 1508.4,-456.04"/>
<polygon fill="midnightblue" stroke="midnightblue" points="1508.8,-452.55 1498.28,-453.83 1507.3,-459.39 1508.8,-452.55"/>
</g>
<!-- Node22 -->
<g id="node22" class="node">
<title>Node22</title>
<g id="a_node22"><a xlink:title=" ">
<polygon fill="white" stroke="#bfbfbf" points="1516.5,-420 1516.5,-450 1667.5,-450 1667.5,-420 1516.5,-420"/>
<text text-anchor="start" x="1524.5" y="-438" font-family="Helvetica,sans-Serif" font-size="10.00">asm/JSystem/J3DGraphBase</text>
<text text-anchor="middle" x="1592" y="-427" font-family="Helvetica,sans-Serif" font-size="10.00">/J3DTevs/isTexNoReg__FPv.s</text>
</a>
</g>
</g>
<!-- Node1&#45;&gt;Node22 -->
<g id="edge42" class="edge">
<title>Node1&#45;&gt;Node22</title>
<path fill="none" stroke="midnightblue" d="M1729.61,-492.4C1702.65,-481.36 1664.97,-465.91 1635.85,-453.97"/>
<polygon fill="midnightblue" stroke="midnightblue" points="1636.91,-450.63 1626.33,-450.07 1634.26,-457.1 1636.91,-450.63"/>
</g>
<!-- Node23 -->
<g id="node23" class="node">
<title>Node23</title>
<g id="a_node23"><a xlink:title=" ">
<polygon fill="white" stroke="#bfbfbf" points="1685.5,-420 1685.5,-450 1842.5,-450 1842.5,-420 1685.5,-420"/>
<text text-anchor="start" x="1693.5" y="-438" font-family="Helvetica,sans-Serif" font-size="10.00">asm/JSystem/J3DGraphBase</text>
<text text-anchor="middle" x="1764" y="-427" font-family="Helvetica,sans-Serif" font-size="10.00">/J3DTevs/getTexNoReg__FPv.s</text>
</a>
</g>
</g>
<!-- Node1&#45;&gt;Node23 -->
<g id="edge43" class="edge">
<title>Node1&#45;&gt;Node23</title>
<path fill="none" stroke="midnightblue" d="M1764,-492.23C1764,-483.16 1764,-471.16 1764,-460.58"/>
<polygon fill="midnightblue" stroke="midnightblue" points="1767.5,-460.25 1764,-450.25 1760.5,-460.25 1767.5,-460.25"/>
</g>
<!-- Node24 -->
<g id="node24" class="node">
<title>Node24</title>
<g id="a_node24"><a xlink:title=" ">
<polygon fill="white" stroke="#bfbfbf" points="1861,-420 1861,-450 2029,-450 2029,-420 1861,-420"/>
<text text-anchor="start" x="1869" y="-438" font-family="Helvetica,sans-Serif" font-size="10.00">asm/JSystem/J3DGraphBase</text>
<text text-anchor="middle" x="1945" y="-427" font-family="Helvetica,sans-Serif" font-size="10.00">/J3DTevs/loadTexNo__FUlRCUs.s</text>
</a>
</g>
</g>
<!-- Node1&#45;&gt;Node24 -->
<g id="edge44" class="edge">
<title>Node1&#45;&gt;Node24</title>
<path fill="none" stroke="midnightblue" d="M1800.19,-492.4C1828.68,-481.31 1868.56,-465.78 1899.25,-453.82"/>
<polygon fill="midnightblue" stroke="midnightblue" points="1900.82,-456.96 1908.87,-450.07 1898.28,-450.44 1900.82,-456.96"/>
</g>
<!-- Node25 -->
<g id="node25" class="node">
<title>Node25</title>
<g id="a_node25"><a xlink:title=" ">
<polygon fill="white" stroke="#bfbfbf" points="2047,-414.5 2047,-455.5 2193,-455.5 2193,-414.5 2047,-414.5"/>
<text text-anchor="start" x="2055" y="-443.5" font-family="Helvetica,sans-Serif" font-size="10.00">asm/JSystem/J3DGraphBase</text>
<text text-anchor="start" x="2055" y="-432.5" font-family="Helvetica,sans-Serif" font-size="10.00">/J3DTevs/loadNBTScale_</text>
<text text-anchor="middle" x="2120" y="-421.5" font-family="Helvetica,sans-Serif" font-size="10.00">_FR11J3DNBTScale.s</text>
</a>
</g>
</g>
<!-- Node1&#45;&gt;Node25 -->
<g id="edge45" class="edge">
<title>Node1&#45;&gt;Node25</title>
<path fill="none" stroke="midnightblue" d="M1835.18,-494.53C1888.24,-485.34 1962.69,-471.89 2036.76,-456.21"/>
<polygon fill="midnightblue" stroke="midnightblue" points="2037.68,-459.6 2046.73,-454.09 2036.22,-452.75 2037.68,-459.6"/>
</g>
<!-- Node26 -->
<g id="node26" class="node">
<title>Node26</title>
<g id="a_node26"><a xlink:title=" ">
<polygon fill="white" stroke="#bfbfbf" points="2211,-420 2211,-450 2391,-450 2391,-420 2211,-420"/>
<text text-anchor="start" x="2219" y="-438" font-family="Helvetica,sans-Serif" font-size="10.00">asm/JSystem/J3DGraphBase</text>
<text text-anchor="middle" x="2301" y="-427" font-family="Helvetica,sans-Serif" font-size="10.00">/J3DTevs/makeTexCoordTable__Fv.s</text>
</a>
</g>
</g>
<!-- Node1&#45;&gt;Node26 -->
<g id="edge46" class="edge">
<title>Node1&#45;&gt;Node26</title>
<path fill="none" stroke="midnightblue" d="M1835.18,-500.16C1922.05,-491.99 2073.29,-476.38 2202,-456 2209.67,-454.79 2217.65,-453.39 2225.61,-451.92"/>
<polygon fill="midnightblue" stroke="midnightblue" points="2226.47,-455.32 2235.64,-450.02 2225.16,-448.44 2226.47,-455.32"/>
</g>
<!-- Node27 -->
<g id="node27" class="node">
<title>Node27</title>
<g id="a_node27"><a xlink:title=" ">
<polygon fill="white" stroke="#bfbfbf" points="2409,-420 2409,-450 2593,-450 2593,-420 2409,-420"/>
<text text-anchor="start" x="2417" y="-438" font-family="Helvetica,sans-Serif" font-size="10.00">asm/JSystem/J3DGraphBase</text>
<text text-anchor="middle" x="2501" y="-427" font-family="Helvetica,sans-Serif" font-size="10.00">/J3DTevs/makeAlphaCmpTable__Fv.s</text>
</a>
</g>
</g>
<!-- Node1&#45;&gt;Node27 -->
<g id="edge47" class="edge">
<title>Node1&#45;&gt;Node27</title>
<path fill="none" stroke="midnightblue" d="M1835.35,-503.54C1953.31,-498.05 2196.19,-484.17 2400,-456 2408.49,-454.83 2417.34,-453.39 2426.13,-451.83"/>
<polygon fill="midnightblue" stroke="midnightblue" points="2426.78,-455.27 2435.99,-450.03 2425.52,-448.38 2426.78,-455.27"/>
</g>
<!-- Node28 -->
<g id="node28" class="node">
<title>Node28</title>
<g id="a_node28"><a xlink:title=" ">
<polygon fill="white" stroke="#bfbfbf" points="2611.5,-420 2611.5,-450 2780.5,-450 2780.5,-420 2611.5,-420"/>
<text text-anchor="start" x="2619.5" y="-438" font-family="Helvetica,sans-Serif" font-size="10.00">asm/JSystem/J3DGraphBase</text>
<text text-anchor="middle" x="2696" y="-427" font-family="Helvetica,sans-Serif" font-size="10.00">/J3DTevs/makeZModeTable__Fv.s</text>
</a>
</g>
</g>
<!-- Node1&#45;&gt;Node28 -->
<g id="edge48" class="edge">
<title>Node1&#45;&gt;Node28</title>
<path fill="none" stroke="midnightblue" d="M1835.26,-505.79C1980.26,-503.55 2319.83,-494.3 2602,-456 2609.99,-454.92 2618.32,-453.53 2626.57,-451.99"/>
<polygon fill="midnightblue" stroke="midnightblue" points="2627.41,-455.39 2636.56,-450.05 2626.08,-448.52 2627.41,-455.39"/>
</g>
<!-- Node29 -->
<g id="node29" class="node">
<title>Node29</title>
<g id="a_node29"><a xlink:title=" ">
<polygon fill="white" stroke="#bfbfbf" points="2799,-420 2799,-450 2979,-450 2979,-420 2799,-420"/>
<text text-anchor="start" x="2807" y="-438" font-family="Helvetica,sans-Serif" font-size="10.00">asm/JSystem/J3DGraphBase</text>
<text text-anchor="middle" x="2889" y="-427" font-family="Helvetica,sans-Serif" font-size="10.00">/J3DTevs/makeTevSwapTable__Fv.s</text>
</a>
</g>
</g>
<!-- Node1&#45;&gt;Node29 -->
<g id="edge49" class="edge">
<title>Node1&#45;&gt;Node29</title>
<path fill="none" stroke="midnightblue" d="M1835.22,-506.66C2002.52,-506.25 2433.41,-500.54 2790,-456 2798.72,-454.91 2807.83,-453.48 2816.83,-451.89"/>
<polygon fill="midnightblue" stroke="midnightblue" points="2817.72,-455.28 2826.92,-450.02 2816.45,-448.4 2817.72,-455.28"/>
</g>
<!-- Node30 -->
<g id="node30" class="node">
<title>Node30</title>
<g id="a_node30"><a xlink:title=" ">
<polygon fill="white" stroke="#bfbfbf" points="2997,-414.5 2997,-455.5 3173,-455.5 3173,-414.5 2997,-414.5"/>
<text text-anchor="start" x="3005" y="-443.5" font-family="Helvetica,sans-Serif" font-size="10.00">asm/JSystem/J3DGraphBase</text>
<text text-anchor="start" x="3005" y="-432.5" font-family="Helvetica,sans-Serif" font-size="10.00">/J3DTevs/loadTexMtx__9J3DTexMtx</text>
<text text-anchor="middle" x="3085" y="-421.5" font-family="Helvetica,sans-Serif" font-size="10.00">CFUl.s</text>
</a>
</g>
</g>
<!-- Node1&#45;&gt;Node30 -->
<g id="edge50" class="edge">
<title>Node1&#45;&gt;Node30</title>
<path fill="none" stroke="midnightblue" d="M1835.37,-505.08C2058.64,-500.39 2742.91,-484.16 2986.59,-456.03"/>
<polygon fill="midnightblue" stroke="midnightblue" points="2987.3,-459.47 2996.81,-454.81 2986.47,-452.52 2987.3,-459.47"/>
</g>
<!-- Node31 -->
<g id="node31" class="node">
<title>Node31</title>
<g id="a_node31"><a xlink:title=" ">
<polygon fill="white" stroke="#bfbfbf" points="3191,-414.5 3191,-455.5 3337,-455.5 3337,-414.5 3191,-414.5"/>
<text text-anchor="start" x="3199" y="-443.5" font-family="Helvetica,sans-Serif" font-size="10.00">asm/JSystem/J3DGraphBase</text>
<text text-anchor="start" x="3199" y="-432.5" font-family="Helvetica,sans-Serif" font-size="10.00">/J3DTevs/loadPostTexMtx</text>
<text text-anchor="middle" x="3264" y="-421.5" font-family="Helvetica,sans-Serif" font-size="10.00">__9J3DTexMtxCFUl.s</text>
</a>
</g>
</g>
<!-- Node1&#45;&gt;Node31 -->
<g id="edge51" class="edge">
<title>Node1&#45;&gt;Node31</title>
<path fill="none" stroke="midnightblue" d="M1835.13,-505.88C2081.35,-503.45 2897.3,-492.83 3180.57,-456.01"/>
<polygon fill="midnightblue" stroke="midnightblue" points="3181.38,-459.43 3190.82,-454.63 3180.45,-452.49 3181.38,-459.43"/>
</g>
<!-- Node32 -->
<g id="node32" class="node">
<title>Node32</title>
<g id="a_node32"><a xlink:title=" ">
<polygon fill="white" stroke="#bfbfbf" points="3355,-414.5 3355,-455.5 3521,-455.5 3521,-414.5 3355,-414.5"/>
<text text-anchor="start" x="3363" y="-443.5" font-family="Helvetica,sans-Serif" font-size="10.00">asm/JSystem/J3DGraphBase</text>
<text text-anchor="start" x="3363" y="-432.5" font-family="Helvetica,sans-Serif" font-size="10.00">/J3DTevs/J3DGDLoadTexMtxImm</text>
<text text-anchor="middle" x="3438" y="-421.5" font-family="Helvetica,sans-Serif" font-size="10.00">__FPA4_fUl13_GXTexMtxType.s</text>
</a>
</g>
</g>
<!-- Node1&#45;&gt;Node32 -->
<g id="edge52" class="edge">
<title>Node1&#45;&gt;Node32</title>
<path fill="none" stroke="midnightblue" d="M1835.33,-505.95C2100.13,-503.64 3027.33,-493.12 3344.75,-456"/>
<polygon fill="midnightblue" stroke="midnightblue" points="3345.36,-459.45 3354.87,-454.78 3344.53,-452.5 3345.36,-459.45"/>
</g>
<!-- Node33 -->
<g id="node33" class="node">
<title>Node33</title>
<g id="a_node33"><a xlink:title=" ">
<polygon fill="white" stroke="#bfbfbf" points="3539,-414.5 3539,-455.5 3725,-455.5 3725,-414.5 3539,-414.5"/>
<text text-anchor="start" x="3547" y="-443.5" font-family="Helvetica,sans-Serif" font-size="10.00">asm/JSystem/J3DGraphBase</text>
<text text-anchor="start" x="3547" y="-432.5" font-family="Helvetica,sans-Serif" font-size="10.00">/J3DTevs/J3DGDLoadPostTexMtxImm</text>
<text text-anchor="middle" x="3632" y="-421.5" font-family="Helvetica,sans-Serif" font-size="10.00">__FPA4_fUl.s</text>
</a>
</g>
</g>
<!-- Node1&#45;&gt;Node33 -->
<g id="edge53" class="edge">
<title>Node1&#45;&gt;Node33</title>
<path fill="none" stroke="midnightblue" d="M1835.12,-506.03C2119.05,-503.93 3172.83,-493.78 3528.91,-455.99"/>
<polygon fill="midnightblue" stroke="midnightblue" points="3529.42,-459.46 3538.99,-454.89 3528.67,-452.5 3529.42,-459.46"/>
</g>
<!-- Node2&#45;&gt;Node3 -->
<g id="edge2" class="edge">
<title>Node2&#45;&gt;Node3</title>
<path fill="none" stroke="midnightblue" d="M66.89,-347.28C74.42,-324.07 88,-276.48 88,-235 88,-235 88,-235 88,-121 88,-84.55 106.25,-73.9 138,-56 196.74,-22.88 393.94,-14.12 488.11,-11.82"/>
<polygon fill="midnightblue" stroke="midnightblue" points="488.34,-15.31 498.25,-11.59 488.18,-8.32 488.34,-15.31"/>
</g>
<!-- Node4&#45;&gt;Node3 -->
<g id="edge26" class="edge">
<title>Node4&#45;&gt;Node3</title>
<path fill="none" stroke="midnightblue" d="M464.8,-286.16C367.42,-271.33 190,-236.44 190,-179 190,-179 190,-179 190,-121 190,-86.61 203.07,-74.6 232,-56 273.38,-29.4 412,-17.85 488.04,-13.41"/>
<polygon fill="midnightblue" stroke="midnightblue" points="488.54,-16.89 498.33,-12.83 488.15,-9.9 488.54,-16.89"/>
</g>
<!-- Node5 -->
<g id="node5" class="node">
<title>Node5</title>
<g id="a_node5"><a xlink:href="GX_8h.html" target="_top" xlink:title=" ">
<polygon fill="white" stroke="black" points="479.5,-224.5 479.5,-243.5 564.5,-243.5 564.5,-224.5 479.5,-224.5"/>
<text text-anchor="middle" x="522" y="-231.5" font-family="Helvetica,sans-Serif" font-size="10.00">dolphin/gx/GX.h</text>
</a>
</g>
</g>
<!-- Node4&#45;&gt;Node5 -->
<g id="edge4" class="edge">
<title>Node4&#45;&gt;Node5</title>
<path fill="none" stroke="midnightblue" d="M525.82,-280.4C525.15,-272.47 524.31,-262.46 523.58,-253.86"/>
<polygon fill="midnightblue" stroke="midnightblue" points="527.05,-253.33 522.73,-243.66 520.08,-253.92 527.05,-253.33"/>
</g>
<!-- Node10 -->
<g id="node10" class="node">
<title>Node10</title>
<g id="a_node10"><a xlink:href="mtx_8h.html" target="_top" xlink:title=" ">
<polygon fill="white" stroke="black" points="567,-168.5 567,-187.5 659,-187.5 659,-168.5 567,-168.5"/>
<text text-anchor="middle" x="613" y="-175.5" font-family="Helvetica,sans-Serif" font-size="10.00">dolphin/mtx/mtx.h</text>
</a>
</g>
</g>
<!-- Node4&#45;&gt;Node10 -->
<g id="edge25" class="edge">
<title>Node4&#45;&gt;Node10</title>
<path fill="none" stroke="midnightblue" d="M541.45,-280.11C550.92,-270.33 563.3,-256.89 573,-244 584.43,-228.81 595.61,-210.24 603.23,-196.84"/>
<polygon fill="midnightblue" stroke="midnightblue" points="606.49,-198.18 608.31,-187.75 600.38,-194.77 606.49,-198.18"/>
</g>
<!-- Node5&#45;&gt;Node3 -->
<g id="edge23" class="edge">
<title>Node5&#45;&gt;Node3</title>
<path fill="none" stroke="midnightblue" d="M479.14,-230.68C439.08,-226.76 378.98,-216.22 335,-188 275.66,-149.92 201.1,-109.52 247,-56 277.46,-20.49 412.78,-12.74 488.05,-11.21"/>
<polygon fill="midnightblue" stroke="midnightblue" points="488.31,-14.71 498.25,-11.04 488.19,-7.71 488.31,-14.71"/>
</g>
<!-- Node6 -->
<g id="node6" class="node">
<title>Node6</title>
<g id="a_node6"><a xlink:href="GXDisplayList_8h.html" target="_top" xlink:title=" ">
<polygon fill="white" stroke="black" points="256.5,-56.5 256.5,-75.5 389.5,-75.5 389.5,-56.5 256.5,-56.5"/>
<text text-anchor="middle" x="323" y="-63.5" font-family="Helvetica,sans-Serif" font-size="10.00">dolphin/gx/GXDisplayList.h</text>
</a>
</g>
</g>
<!-- Node5&#45;&gt;Node6 -->
<g id="edge5" class="edge">
<title>Node5&#45;&gt;Node6</title>
<path fill="none" stroke="midnightblue" d="M479.31,-233.34C440.77,-231.27 385.17,-221.96 352,-188 325.05,-160.4 321.58,-112.43 321.96,-85.94"/>
<polygon fill="midnightblue" stroke="midnightblue" points="325.46,-85.84 322.31,-75.72 318.47,-85.59 325.46,-85.84"/>
</g>
<!-- Node7 -->
<g id="node7" class="node">
<title>Node7</title>
<g id="a_node7"><a xlink:href="GXStruct_8h.html" target="_top" xlink:title=" ">
<polygon fill="white" stroke="black" points="361.5,-168.5 361.5,-187.5 472.5,-187.5 472.5,-168.5 361.5,-168.5"/>
<text text-anchor="middle" x="417" y="-175.5" font-family="Helvetica,sans-Serif" font-size="10.00">dolphin/gx/GXStruct.h</text>
</a>
</g>
</g>
<!-- Node5&#45;&gt;Node7 -->
<g id="edge7" class="edge">
<title>Node5&#45;&gt;Node7</title>
<path fill="none" stroke="midnightblue" d="M505.13,-224.32C488.29,-215.66 462.19,-202.24 442.76,-192.25"/>
<polygon fill="midnightblue" stroke="midnightblue" points="444.32,-189.12 433.83,-187.65 441.12,-195.34 444.32,-189.12"/>
</g>
<!-- Node8 -->
<g id="node8" class="node">
<title>Node8</title>
<g id="a_node8"><a xlink:href="global_8h.html" target="_top" xlink:title=" ">
<polygon fill="white" stroke="black" points="446,-112.5 446,-131.5 496,-131.5 496,-112.5 446,-112.5"/>
<text text-anchor="middle" x="471" y="-119.5" font-family="Helvetica,sans-Serif" font-size="10.00">global.h</text>
</a>
</g>
</g>
<!-- Node5&#45;&gt;Node8 -->
<g id="edge24" class="edge">
<title>Node5&#45;&gt;Node8</title>
<path fill="none" stroke="midnightblue" d="M518,-224.37C509.69,-206.46 490.44,-164.92 479.32,-140.95"/>
<polygon fill="midnightblue" stroke="midnightblue" points="482.36,-139.19 474.98,-131.59 476.01,-142.14 482.36,-139.19"/>
</g>
<!-- Node9 -->
<g id="node9" class="node">
<title>Node9</title>
<g id="a_node9"><a xlink:href="GXEnum_8h.html" target="_top" xlink:title=" ">
<polygon fill="white" stroke="black" points="484,-56.5 484,-75.5 594,-75.5 594,-56.5 484,-56.5"/>
<text text-anchor="middle" x="539" y="-63.5" font-family="Helvetica,sans-Serif" font-size="10.00">dolphin/gx/GXEnum.h</text>
</a>
</g>
</g>
<!-- Node5&#45;&gt;Node9 -->
<g id="edge11" class="edge">
<title>Node5&#45;&gt;Node9</title>
<path fill="none" stroke="midnightblue" d="M522.91,-224.08C525.59,-197.95 533.45,-121.21 537.1,-85.58"/>
<polygon fill="midnightblue" stroke="midnightblue" points="540.59,-85.87 538.12,-75.57 533.62,-85.16 540.59,-85.87"/>
</g>
<!-- Node5&#45;&gt;Node10 -->
<g id="edge13" class="edge">
<title>Node5&#45;&gt;Node10</title>
<path fill="none" stroke="midnightblue" d="M536.62,-224.32C550.95,-215.82 573.01,-202.73 589.75,-192.8"/>
<polygon fill="midnightblue" stroke="midnightblue" points="591.6,-195.77 598.42,-187.65 588.03,-189.75 591.6,-195.77"/>
</g>
<!-- Node11 -->
<g id="node11" class="node">
<title>Node11</title>
<g id="a_node11"><a xlink:href="mtx44_8h.html" target="_top" xlink:title=" ">
<polygon fill="white" stroke="black" points="756.5,-112.5 756.5,-131.5 859.5,-131.5 859.5,-112.5 756.5,-112.5"/>
<text text-anchor="middle" x="808" y="-119.5" font-family="Helvetica,sans-Serif" font-size="10.00">dolphin/mtx/mtx44.h</text>
</a>
</g>
</g>
<!-- Node5&#45;&gt;Node11 -->
<g id="edge22" class="edge">
<title>Node5&#45;&gt;Node11</title>
<path fill="none" stroke="midnightblue" d="M554.04,-224.48C583.91,-216.23 629.5,-202.81 668,-188 687.67,-180.43 691.88,-176.88 711,-168 734.33,-157.16 760.83,-144.87 780.23,-135.88"/>
<polygon fill="midnightblue" stroke="midnightblue" points="781.8,-139 789.4,-131.62 778.86,-132.65 781.8,-139"/>
</g>
<!-- Node6&#45;&gt;Node3 -->
<g id="edge6" class="edge">
<title>Node6&#45;&gt;Node3</title>
<path fill="none" stroke="midnightblue" d="M357.23,-56.44C394.51,-47.12 454.27,-32.18 495.01,-22"/>
<polygon fill="midnightblue" stroke="midnightblue" points="496.08,-25.34 504.93,-19.52 494.38,-18.55 496.08,-25.34"/>
</g>
<!-- Node7&#45;&gt;Node3 -->
<g id="edge8" class="edge">
<title>Node7&#45;&gt;Node3</title>
<path fill="none" stroke="midnightblue" d="M418.27,-168.25C421.83,-146.62 433.78,-89.92 465,-56 477.36,-42.57 494.64,-31.76 509.4,-24.1"/>
<polygon fill="midnightblue" stroke="midnightblue" points="511.23,-27.1 518.65,-19.53 508.13,-20.82 511.23,-27.1"/>
</g>
<!-- Node7&#45;&gt;Node8 -->
<g id="edge9" class="edge">
<title>Node7&#45;&gt;Node8</title>
<path fill="none" stroke="midnightblue" d="M425.92,-168.08C433.78,-160.22 445.43,-148.57 454.92,-139.08"/>
<polygon fill="midnightblue" stroke="midnightblue" points="457.65,-141.3 462.25,-131.75 452.7,-136.35 457.65,-141.3"/>
</g>
<!-- Node8&#45;&gt;Node3 -->
<g id="edge10" class="edge">
<title>Node8&#45;&gt;Node3</title>
<path fill="none" stroke="midnightblue" d="M469.29,-112.35C467.17,-99.24 464.96,-73.96 475,-56 482.63,-42.36 496.33,-31.89 509.1,-24.49"/>
<polygon fill="midnightblue" stroke="midnightblue" points="510.98,-27.46 518.14,-19.65 507.67,-21.29 510.98,-27.46"/>
</g>
<!-- Node9&#45;&gt;Node3 -->
<g id="edge12" class="edge">
<title>Node9&#45;&gt;Node3</title>
<path fill="none" stroke="midnightblue" d="M539,-56.08C539,-49.01 539,-38.86 539,-29.99"/>
<polygon fill="midnightblue" stroke="midnightblue" points="542.5,-29.75 539,-19.75 535.5,-29.75 542.5,-29.75"/>
</g>
<!-- Node10&#45;&gt;Node3 -->
<g id="edge21" class="edge">
<title>Node10&#45;&gt;Node3</title>
<path fill="none" stroke="midnightblue" d="M614.63,-168.36C618.09,-147.46 624.27,-93.13 603,-56 595.18,-42.34 581.32,-31.83 568.5,-24.41"/>
<polygon fill="midnightblue" stroke="midnightblue" points="569.92,-21.2 559.45,-19.56 566.61,-27.37 569.92,-21.2"/>
</g>
<!-- Node10&#45;&gt;Node11 -->
<g id="edge14" class="edge">
<title>Node10&#45;&gt;Node11</title>
<path fill="none" stroke="midnightblue" d="M643.9,-168.44C677.27,-159.2 730.59,-144.44 767.35,-134.26"/>
<polygon fill="midnightblue" stroke="midnightblue" points="768.54,-137.56 777.25,-131.52 766.67,-130.81 768.54,-137.56"/>
</g>
<!-- Node12 -->
<g id="node12" class="node">
<title>Node12</title>
<g id="a_node12"><a xlink:href="quat_8h.html" target="_top" xlink:title=" ">
<polygon fill="white" stroke="black" points="643.5,-112.5 643.5,-131.5 738.5,-131.5 738.5,-112.5 643.5,-112.5"/>
<text text-anchor="middle" x="691" y="-119.5" font-family="Helvetica,sans-Serif" font-size="10.00">dolphin/mtx/quat.h</text>
</a>
</g>
</g>
<!-- Node10&#45;&gt;Node12 -->
<g id="edge16" class="edge">
<title>Node10&#45;&gt;Node12</title>
<path fill="none" stroke="midnightblue" d="M625.53,-168.32C637.59,-159.98 656.03,-147.21 670.27,-137.35"/>
<polygon fill="midnightblue" stroke="midnightblue" points="672.27,-140.22 678.5,-131.65 668.28,-134.47 672.27,-140.22"/>
</g>
<!-- Node13 -->
<g id="node13" class="node">
<title>Node13</title>
<g id="a_node13"><a xlink:href="vec_8h.html" target="_top" xlink:title=" ">
<polygon fill="white" stroke="black" points="650,-56.5 650,-75.5 742,-75.5 742,-56.5 650,-56.5"/>
<text text-anchor="middle" x="696" y="-63.5" font-family="Helvetica,sans-Serif" font-size="10.00">dolphin/mtx/vec.h</text>
</a>
</g>
</g>
<!-- Node10&#45;&gt;Node13 -->
<g id="edge20" class="edge">
<title>Node10&#45;&gt;Node13</title>
<path fill="none" stroke="midnightblue" d="M614.25,-168.24C616.49,-154.98 622.21,-129.51 635,-112 644.28,-99.3 658.19,-88.65 670.39,-80.9"/>
<polygon fill="midnightblue" stroke="midnightblue" points="672.51,-83.71 679.27,-75.56 668.9,-77.71 672.51,-83.71"/>
</g>
<!-- Node11&#45;&gt;Node3 -->
<g id="edge15" class="edge">
<title>Node11&#45;&gt;Node3</title>
<path fill="none" stroke="midnightblue" d="M805.07,-112.23C799.83,-97.99 787.46,-70.04 767,-56 738.83,-36.67 648.17,-23.22 590.02,-16.33"/>
<polygon fill="midnightblue" stroke="midnightblue" points="590.25,-12.84 579.91,-15.16 589.44,-19.79 590.25,-12.84"/>
</g>
<!-- Node12&#45;&gt;Node3 -->
<g id="edge19" class="edge">
<title>Node12&#45;&gt;Node3</title>
<path fill="none" stroke="midnightblue" d="M709.11,-112.49C732.48,-100.37 768.21,-77.24 751,-56 731.1,-31.43 645.98,-19.73 589.84,-14.59"/>
<polygon fill="midnightblue" stroke="midnightblue" points="589.98,-11.09 579.71,-13.7 589.37,-18.06 589.98,-11.09"/>
</g>
<!-- Node12&#45;&gt;Node13 -->
<g id="edge17" class="edge">
<title>Node12&#45;&gt;Node13</title>
<path fill="none" stroke="midnightblue" d="M691.83,-112.08C692.48,-105.01 693.42,-94.86 694.24,-85.99"/>
<polygon fill="midnightblue" stroke="midnightblue" points="697.75,-86.03 695.19,-75.75 690.78,-85.39 697.75,-86.03"/>
</g>
<!-- Node13&#45;&gt;Node3 -->
<g id="edge18" class="edge">
<title>Node13&#45;&gt;Node3</title>
<path fill="none" stroke="midnightblue" d="M671.12,-56.44C644.71,-47.36 602.78,-32.94 573.26,-22.78"/>
<polygon fill="midnightblue" stroke="midnightblue" points="574.36,-19.46 563.76,-19.52 572.08,-26.08 574.36,-19.46"/>
</g>
<!-- Node14&#45;&gt;Node3 -->
<g id="edge35" class="edge">
<title>Node14&#45;&gt;Node3</title>
<path fill="none" stroke="midnightblue" d="M679.25,-419.9C687.15,-417.79 695.28,-415.75 703,-414 793.23,-393.6 830.18,-428.02 908,-378 944.97,-354.24 964,-340.45 964,-296.5 964,-296.5 964,-296.5 964,-121 964,-73.79 923.57,-74.16 880,-56 828.66,-34.6 671.48,-20.52 589.67,-14.43"/>
<polygon fill="midnightblue" stroke="midnightblue" points="589.83,-10.94 579.61,-13.7 589.32,-17.92 589.83,-10.94"/>
</g>
<!-- Node14&#45;&gt;Node10 -->
<g id="edge33" class="edge">
<title>Node14&#45;&gt;Node10</title>
<path fill="none" stroke="midnightblue" d="M630.01,-419.93C626.96,-376.82 617.77,-246.55 614.32,-197.74"/>
<polygon fill="midnightblue" stroke="midnightblue" points="617.81,-197.39 613.61,-187.66 610.82,-197.88 617.81,-197.39"/>
</g>
<!-- Node14&#45;&gt;Node11 -->
<g id="edge34" class="edge">
<title>Node14&#45;&gt;Node11</title>
<path fill="none" stroke="midnightblue" d="M639.07,-419.83C667.97,-369.05 766.31,-196.25 798.04,-140.5"/>
<polygon fill="midnightblue" stroke="midnightblue" points="801.1,-142.19 803.01,-131.77 795.02,-138.73 801.1,-142.19"/>
</g>
<!-- Node15 -->
<g id="node15" class="node">
<title>Node15</title>
<g id="a_node15"><a xlink:href="JUTTexture_8h.html" target="_top" xlink:title=" ">
<polygon fill="white" stroke="black" points="749.5,-353 749.5,-372 898.5,-372 898.5,-353 749.5,-353"/>
<text text-anchor="middle" x="824" y="-360" font-family="Helvetica,sans-Serif" font-size="10.00">JSystem/JUtility/JUTTexture.h</text>
</a>
</g>
</g>
<!-- Node14&#45;&gt;Node15 -->
<g id="edge28" class="edge">
<title>Node14&#45;&gt;Node15</title>
<path fill="none" stroke="midnightblue" d="M669.59,-419.9C705.08,-406.94 757.16,-387.92 790.82,-375.62"/>
<polygon fill="midnightblue" stroke="midnightblue" points="792.45,-378.75 800.64,-372.03 790.04,-372.18 792.45,-378.75"/>
</g>
<!-- Node15&#45;&gt;Node3 -->
<g id="edge32" class="edge">
<title>Node15&#45;&gt;Node3</title>
<path fill="none" stroke="midnightblue" d="M847.95,-352.85C866.77,-344.84 892.2,-331.1 907,-311 927.64,-282.96 926,-269.82 926,-235 926,-235 926,-235 926,-121 926,-72.38 882.92,-74.61 838,-56 755.71,-21.91 651.14,-13.24 589.99,-11.27"/>
<polygon fill="midnightblue" stroke="midnightblue" points="589.91,-7.77 579.82,-10.99 589.72,-14.76 589.91,-7.77"/>
</g>
<!-- Node16 -->
<g id="node16" class="node">
<title>Node16</title>
<g id="a_node16"><a xlink:href="JUTPalette_8h.html" target="_top" xlink:title=" ">
<polygon fill="white" stroke="black" points="750,-286 750,-305 898,-305 898,-286 750,-286"/>
<text text-anchor="middle" x="824" y="-293" font-family="Helvetica,sans-Serif" font-size="10.00">JSystem/JUtility/JUTPalette.h</text>
</a>
</g>
</g>
<!-- Node15&#45;&gt;Node16 -->
<g id="edge29" class="edge">
<title>Node15&#45;&gt;Node16</title>
<path fill="none" stroke="midnightblue" d="M824,-352.73C824,-343.18 824,-327.62 824,-315.28"/>
<polygon fill="midnightblue" stroke="midnightblue" points="827.5,-315.13 824,-305.13 820.5,-315.13 827.5,-315.13"/>
</g>
<!-- Node16&#45;&gt;Node3 -->
<g id="edge31" class="edge">
<title>Node16&#45;&gt;Node3</title>
<path fill="none" stroke="midnightblue" d="M832.9,-285.84C850.48,-267.77 888,-223.93 888,-179 888,-179 888,-179 888,-121 888,-59.25 686.72,-27.85 589.87,-16.31"/>
<polygon fill="midnightblue" stroke="midnightblue" points="590.06,-12.81 579.72,-15.13 589.25,-19.76 590.06,-12.81"/>
</g>
<!-- Node16&#45;&gt;Node5 -->
<g id="edge30" class="edge">
<title>Node16&#45;&gt;Node5</title>
<path fill="none" stroke="midnightblue" d="M780.73,-285.98C726.42,-275.27 633.31,-256.93 574.84,-245.41"/>
<polygon fill="midnightblue" stroke="midnightblue" points="575.19,-241.91 564.7,-243.41 573.84,-248.78 575.19,-241.91"/>
</g>
</g>
</svg>
