<?xml version="1.0" encoding="UTF-8" standalone="no"?>
<!DOCTYPE svg PUBLIC "-//W3C//DTD SVG 1.1//EN"
 "http://www.w3.org/Graphics/SVG/1.1/DTD/svg11.dtd">
<!-- Generated by graphviz version 3.0.0 (20221109.1736)
 -->
<!-- Title: include/JSystem/J3DGraphBase/J3DTransform.h Pages: 1 -->
<svg width="462pt" height="319pt"
 viewBox="0.00 0.00 461.50 319.00" xmlns="http://www.w3.org/2000/svg" xmlns:xlink="http://www.w3.org/1999/xlink">
<g id="graph0" class="graph" transform="scale(1 1) rotate(0) translate(4 315)">
<title>include/JSystem/J3DGraphBase/J3DTransform.h</title>
<polygon fill="white" stroke="transparent" points="-4,4 -4,-315 457.5,-315 457.5,4 -4,4"/>
<!-- Node1 -->
<g id="node1" class="node">
<title>Node1</title>
<g id="a_node1"><a xlink:title=" ">
<polygon fill="#bfbfbf" stroke="black" points="17.5,-280.5 17.5,-310.5 152.5,-310.5 152.5,-280.5 17.5,-280.5"/>
<text text-anchor="start" x="25.5" y="-298.5" font-family="Helvetica,sans-Serif" font-size="10.00">include/JSystem/J3DGraph</text>
<text text-anchor="middle" x="85" y="-287.5" font-family="Helvetica,sans-Serif" font-size="10.00">Base/J3DTransform.h</text>
</a>
</g>
</g>
<!-- Node2 -->
<g id="node2" class="node">
<title>Node2</title>
<g id="a_node2"><a xlink:href="JGeometry_8h.html" target="_top" xlink:title=" ">
<polygon fill="white" stroke="black" points="28.5,-112.5 28.5,-131.5 141.5,-131.5 141.5,-112.5 28.5,-112.5"/>
<text text-anchor="middle" x="85" y="-119.5" font-family="Helvetica,sans-Serif" font-size="10.00">JSystem/JGeometry.h</text>
</a>
</g>
</g>
<!-- Node1&#45;&gt;Node2 -->
<g id="edge1" class="edge">
<title>Node1&#45;&gt;Node2</title>
<path fill="none" stroke="midnightblue" d="M85,-280.47C85,-249.7 85,-176.33 85,-141.7"/>
<polygon fill="midnightblue" stroke="midnightblue" points="88.5,-141.56 85,-131.56 81.5,-141.56 88.5,-141.56"/>
</g>
<!-- Node4 -->
<g id="node4" class="node">
<title>Node4</title>
<g id="a_node4"><a xlink:href="types_8h.html" target="_top" xlink:title=" ">
<polygon fill="white" stroke="black" points="129.5,-0.5 129.5,-19.5 210.5,-19.5 210.5,-0.5 129.5,-0.5"/>
<text text-anchor="middle" x="170" y="-7.5" font-family="Helvetica,sans-Serif" font-size="10.00">dolphin/types.h</text>
</a>
</g>
</g>
<!-- Node1&#45;&gt;Node4 -->
<g id="edge13" class="edge">
<title>Node1&#45;&gt;Node4</title>
<path fill="none" stroke="midnightblue" d="M64.86,-280.21C39.72,-260.54 0,-222.57 0,-179 0,-179 0,-179 0,-121 0,-63.49 69.42,-34.56 119.54,-21.17"/>
<polygon fill="midnightblue" stroke="midnightblue" points="120.45,-24.55 129.28,-18.7 118.73,-17.77 120.45,-24.55"/>
</g>
<!-- Node5 -->
<g id="node5" class="node">
<title>Node5</title>
<g id="a_node5"><a xlink:href="mtxvec_8h.html" target="_top" xlink:title=" ">
<polygon fill="white" stroke="black" points="153,-224.5 153,-243.5 261,-243.5 261,-224.5 153,-224.5"/>
<text text-anchor="middle" x="207" y="-231.5" font-family="Helvetica,sans-Serif" font-size="10.00">dolphin/mtx/mtxvec.h</text>
</a>
</g>
</g>
<!-- Node1&#45;&gt;Node5 -->
<g id="edge5" class="edge">
<title>Node1&#45;&gt;Node5</title>
<path fill="none" stroke="midnightblue" d="M113.91,-280.4C134.02,-270.59 160.62,-257.62 180.24,-248.05"/>
<polygon fill="midnightblue" stroke="midnightblue" points="181.79,-251.19 189.25,-243.66 178.73,-244.9 181.79,-251.19"/>
</g>
<!-- Node3 -->
<g id="node3" class="node">
<title>Node3</title>
<g id="a_node3"><a xlink:href="vec_8h.html" target="_top" xlink:title=" ">
<polygon fill="white" stroke="black" points="124,-56.5 124,-75.5 216,-75.5 216,-56.5 124,-56.5"/>
<text text-anchor="middle" x="170" y="-63.5" font-family="Helvetica,sans-Serif" font-size="10.00">dolphin/mtx/vec.h</text>
</a>
</g>
</g>
<!-- Node2&#45;&gt;Node3 -->
<g id="edge2" class="edge">
<title>Node2&#45;&gt;Node3</title>
<path fill="none" stroke="midnightblue" d="M98.66,-112.32C111.92,-103.9 132.27,-90.97 147.85,-81.07"/>
<polygon fill="midnightblue" stroke="midnightblue" points="149.81,-83.97 156.38,-75.65 146.06,-78.06 149.81,-83.97"/>
</g>
<!-- Node2&#45;&gt;Node4 -->
<g id="edge4" class="edge">
<title>Node2&#45;&gt;Node4</title>
<path fill="none" stroke="midnightblue" d="M87.6,-112.33C91.83,-99.19 101.15,-73.89 115,-56 124.18,-44.14 137.03,-33.41 148.01,-25.39"/>
<polygon fill="midnightblue" stroke="midnightblue" points="150.12,-28.19 156.3,-19.58 146.1,-22.45 150.12,-28.19"/>
</g>
<!-- Node3&#45;&gt;Node4 -->
<g id="edge3" class="edge">
<title>Node3&#45;&gt;Node4</title>
<path fill="none" stroke="midnightblue" d="M170,-56.08C170,-49.01 170,-38.86 170,-29.99"/>
<polygon fill="midnightblue" stroke="midnightblue" points="173.5,-29.75 170,-19.75 166.5,-29.75 173.5,-29.75"/>
</g>
<!-- Node6 -->
<g id="node6" class="node">
<title>Node6</title>
<g id="a_node6"><a xlink:href="mtx_8h.html" target="_top" xlink:title=" ">
<polygon fill="white" stroke="black" points="200,-168.5 200,-187.5 292,-187.5 292,-168.5 200,-168.5"/>
<text text-anchor="middle" x="246" y="-175.5" font-family="Helvetica,sans-Serif" font-size="10.00">dolphin/mtx/mtx.h</text>
</a>
</g>
</g>
<!-- Node5&#45;&gt;Node6 -->
<g id="edge6" class="edge">
<title>Node5&#45;&gt;Node6</title>
<path fill="none" stroke="midnightblue" d="M213.44,-224.08C218.95,-216.46 227.03,-205.26 233.76,-195.94"/>
<polygon fill="midnightblue" stroke="midnightblue" points="236.66,-197.91 239.68,-187.75 230.99,-193.81 236.66,-197.91"/>
</g>
<!-- Node6&#45;&gt;Node3 -->
<g id="edge11" class="edge">
<title>Node6&#45;&gt;Node3</title>
<path fill="none" stroke="midnightblue" d="M230.47,-168.46C217.56,-160.6 199.65,-147.78 189,-132 179.65,-118.14 174.83,-99.63 172.38,-85.9"/>
<polygon fill="midnightblue" stroke="midnightblue" points="175.8,-85.07 170.85,-75.71 168.88,-86.12 175.8,-85.07"/>
</g>
<!-- Node6&#45;&gt;Node4 -->
<g id="edge12" class="edge">
<title>Node6&#45;&gt;Node4</title>
<path fill="none" stroke="midnightblue" d="M263.37,-168.47C284.1,-157.01 314.61,-135.39 303,-112 281.74,-69.16 232.67,-39.6 200.44,-23.99"/>
<polygon fill="midnightblue" stroke="midnightblue" points="201.58,-20.65 191.03,-19.59 198.61,-26.99 201.58,-20.65"/>
</g>
<!-- Node7 -->
<g id="node7" class="node">
<title>Node7</title>
<g id="a_node7"><a xlink:href="mtx44_8h.html" target="_top" xlink:title=" ">
<polygon fill="white" stroke="black" points="350.5,-56.5 350.5,-75.5 453.5,-75.5 453.5,-56.5 350.5,-56.5"/>
<text text-anchor="middle" x="402" y="-63.5" font-family="Helvetica,sans-Serif" font-size="10.00">dolphin/mtx/mtx44.h</text>
</a>
</g>
</g>
<!-- Node6&#45;&gt;Node7 -->
<g id="edge7" class="edge">
<title>Node6&#45;&gt;Node7</title>
<path fill="none" stroke="midnightblue" d="M267.8,-168.4C286.72,-160.41 314.4,-147.44 336,-132 355.72,-117.9 375.09,-97.87 387.7,-83.79"/>
<polygon fill="midnightblue" stroke="midnightblue" points="390.66,-85.72 394.61,-75.89 385.39,-81.11 390.66,-85.72"/>
</g>
<!-- Node8 -->
<g id="node8" class="node">
<title>Node8</title>
<g id="a_node8"><a xlink:href="quat_8h.html" target="_top" xlink:title=" ">
<polygon fill="white" stroke="black" points="198.5,-112.5 198.5,-131.5 293.5,-131.5 293.5,-112.5 198.5,-112.5"/>
<text text-anchor="middle" x="246" y="-119.5" font-family="Helvetica,sans-Serif" font-size="10.00">dolphin/mtx/quat.h</text>
</a>
</g>
</g>
<!-- Node6&#45;&gt;Node8 -->
<g id="edge9" class="edge">
<title>Node6&#45;&gt;Node8</title>
<path fill="none" stroke="midnightblue" d="M246,-168.08C246,-161.01 246,-150.86 246,-141.99"/>
<polygon fill="midnightblue" stroke="midnightblue" points="249.5,-141.75 246,-131.75 242.5,-141.75 249.5,-141.75"/>
</g>
<!-- Node7&#45;&gt;Node4 -->
<g id="edge8" class="edge">
<title>Node7&#45;&gt;Node4</title>
<path fill="none" stroke="midnightblue" d="M365.24,-56.44C324.94,-47.06 260.19,-31.99 216.42,-21.8"/>
<polygon fill="midnightblue" stroke="midnightblue" points="217.12,-18.37 206.59,-19.52 215.54,-25.19 217.12,-18.37"/>
</g>
<!-- Node8&#45;&gt;Node3 -->
<g id="edge10" class="edge">
<title>Node8&#45;&gt;Node3</title>
<path fill="none" stroke="midnightblue" d="M233.79,-112.32C222.22,-104.11 204.62,-91.6 190.84,-81.81"/>
<polygon fill="midnightblue" stroke="midnightblue" points="192.61,-78.77 182.43,-75.83 188.56,-84.48 192.61,-78.77"/>
</g>
</g>
</svg>
