<?xml version="1.0" encoding="UTF-8" standalone="no"?>
<!DOCTYPE svg PUBLIC "-//W3C//DTD SVG 1.1//EN"
 "http://www.w3.org/Graphics/SVG/1.1/DTD/svg11.dtd">
<!-- Generated by graphviz version 2.50.0 (20220203.2022)
 -->
<!-- Title: libs/JSystem/J3DU/J3DUClipper.cpp Pages: 1 -->
<svg width="990pt" height="341pt"
 viewBox="0.00 0.00 990.00 341.00" xmlns="http://www.w3.org/2000/svg" xmlns:xlink="http://www.w3.org/1999/xlink">
<g id="graph0" class="graph" transform="scale(1 1) rotate(0) translate(4 337)">
<title>libs/JSystem/J3DU/J3DUClipper.cpp</title>
<polygon fill="white" stroke="transparent" points="-4,4 -4,-337 986,-337 986,4 -4,4"/>
<!-- Node1 -->
<g id="node1" class="node">
<title>Node1</title>
<g id="a_node1"><a xlink:title=" ">
<polygon fill="#bfbfbf" stroke="black" points="444,-313.5 444,-332.5 620,-332.5 620,-313.5 444,-313.5"/>
<text text-anchor="middle" x="532" y="-320.5" font-family="Helvetica,sans-Serif" font-size="10.00">libs/JSystem/J3DU/J3DUClipper.cpp</text>
</a>
</g>
</g>
<!-- Node2 -->
<g id="node2" class="node">
<title>Node2</title>
<g id="a_node2"><a xlink:href="J3DUClipper_8h.html" target="_top" xlink:title=" ">
<polygon fill="white" stroke="black" points="28,-123.5 28,-142.5 176,-142.5 176,-123.5 28,-123.5"/>
<text text-anchor="middle" x="102" y="-130.5" font-family="Helvetica,sans-Serif" font-size="10.00">JSystem/J3DU/J3DUClipper.h</text>
</a>
</g>
</g>
<!-- Node1&#45;&gt;Node2 -->
<g id="edge1" class="edge">
<title>Node1&#45;&gt;Node2</title>
<path fill="none" stroke="midnightblue" d="M481.38,-313.44C444.18,-306.22 392.88,-294.26 350,-277 260.42,-240.94 163.95,-177.24 122.66,-148.63"/>
<polygon fill="midnightblue" stroke="midnightblue" points="124.47,-145.62 114.26,-142.77 120.46,-151.36 124.47,-145.62"/>
</g>
<!-- Node4 -->
<g id="node4" class="node">
<title>Node4</title>
<g id="a_node4"><a xlink:href="types_8h.html" target="_top" xlink:title=" ">
<polygon fill="white" stroke="black" points="293.5,-0.5 293.5,-19.5 374.5,-19.5 374.5,-0.5 293.5,-0.5"/>
<text text-anchor="middle" x="334" y="-7.5" font-family="Helvetica,sans-Serif" font-size="10.00">dolphin/types.h</text>
</a>
</g>
</g>
<!-- Node1&#45;&gt;Node4 -->
<g id="edge17" class="edge">
<title>Node1&#45;&gt;Node4</title>
<path fill="none" stroke="midnightblue" d="M443.85,-318.21C292.66,-309.29 0,-280.34 0,-190 0,-190 0,-190 0,-132 0,-72.48 189.87,-33.93 283.29,-18.56"/>
<polygon fill="midnightblue" stroke="midnightblue" points="284.07,-21.98 293.38,-16.93 282.95,-15.07 284.07,-21.98"/>
</g>
<!-- Node5 -->
<g id="node5" class="node">
<title>Node5</title>
<g id="a_node5"><a xlink:href="dol2asm_8h.html" target="_top" xlink:title=" ">
<polygon fill="white" stroke="black" points="560.5,-246.5 560.5,-265.5 621.5,-265.5 621.5,-246.5 560.5,-246.5"/>
<text text-anchor="middle" x="591" y="-253.5" font-family="Helvetica,sans-Serif" font-size="10.00">dol2asm.h</text>
</a>
</g>
</g>
<!-- Node1&#45;&gt;Node5 -->
<g id="edge5" class="edge">
<title>Node1&#45;&gt;Node5</title>
<path fill="none" stroke="midnightblue" d="M539.96,-313.23C549.25,-303 564.8,-285.86 576.3,-273.19"/>
<polygon fill="midnightblue" stroke="midnightblue" points="579.04,-275.38 583.17,-265.63 573.86,-270.68 579.04,-275.38"/>
</g>
<!-- Node6 -->
<g id="node6" class="node">
<title>Node6</title>
<g id="a_node6"><a xlink:href="mtxvec_8h.html" target="_top" xlink:title=" ">
<polygon fill="white" stroke="black" points="359,-246.5 359,-265.5 467,-265.5 467,-246.5 359,-246.5"/>
<text text-anchor="middle" x="413" y="-253.5" font-family="Helvetica,sans-Serif" font-size="10.00">dolphin/mtx/mtxvec.h</text>
</a>
</g>
</g>
<!-- Node1&#45;&gt;Node6 -->
<g id="edge6" class="edge">
<title>Node1&#45;&gt;Node6</title>
<path fill="none" stroke="midnightblue" d="M515.95,-313.23C495.88,-302.27 461.3,-283.38 437.81,-270.55"/>
<polygon fill="midnightblue" stroke="midnightblue" points="439.25,-267.35 428.79,-265.63 435.89,-273.49 439.25,-267.35"/>
</g>
<!-- Node10 -->
<g id="node10" class="node">
<title>Node10</title>
<g id="a_node10"><a xlink:href="math_8h.html" target="_top" xlink:title=" ">
<polygon fill="white" stroke="black" points="549,-123.5 549,-142.5 631,-142.5 631,-123.5 549,-123.5"/>
<text text-anchor="middle" x="590" y="-130.5" font-family="Helvetica,sans-Serif" font-size="10.00">MSL_C/math.h</text>
</a>
</g>
</g>
<!-- Node1&#45;&gt;Node10 -->
<g id="edge18" class="edge">
<title>Node1&#45;&gt;Node10</title>
<path fill="none" stroke="midnightblue" d="M533.41,-313.49C536.11,-297.79 542.51,-263.28 551,-235 559.89,-205.4 573.45,-172.15 582.01,-152.16"/>
<polygon fill="midnightblue" stroke="midnightblue" points="585.32,-153.32 586.09,-142.76 578.9,-150.54 585.32,-153.32"/>
</g>
<!-- Node12 -->
<g id="node12" class="node">
<title>Node12</title>
<g id="a_node12"><a xlink:title=" ">
<polygon fill="white" stroke="#bfbfbf" points="640,-235.5 640,-276.5 802,-276.5 802,-235.5 640,-235.5"/>
<text text-anchor="start" x="648" y="-264.5" font-family="Helvetica,sans-Serif" font-size="10.00">asm/JSystem/J3DU/J3DUClipper</text>
<text text-anchor="start" x="648" y="-253.5" font-family="Helvetica,sans-Serif" font-size="10.00">/clip__11J3DUClipperCFPA4</text>
<text text-anchor="middle" x="721" y="-242.5" font-family="Helvetica,sans-Serif" font-size="10.00">_Cf3Vecf.s</text>
</a>
</g>
</g>
<!-- Node1&#45;&gt;Node12 -->
<g id="edge22" class="edge">
<title>Node1&#45;&gt;Node12</title>
<path fill="none" stroke="midnightblue" d="M557.1,-313.37C581.77,-304.88 620.52,-291.56 654.15,-279.99"/>
<polygon fill="midnightblue" stroke="midnightblue" points="655.62,-283.19 663.94,-276.63 653.34,-276.57 655.62,-283.19"/>
</g>
<!-- Node13 -->
<g id="node13" class="node">
<title>Node13</title>
<g id="a_node13"><a xlink:title=" ">
<polygon fill="white" stroke="#bfbfbf" points="820,-235.5 820,-276.5 982,-276.5 982,-235.5 820,-235.5"/>
<text text-anchor="start" x="828" y="-264.5" font-family="Helvetica,sans-Serif" font-size="10.00">asm/JSystem/J3DU/J3DUClipper</text>
<text text-anchor="start" x="828" y="-253.5" font-family="Helvetica,sans-Serif" font-size="10.00">/clip__11J3DUClipperCFPA4</text>
<text text-anchor="middle" x="901" y="-242.5" font-family="Helvetica,sans-Serif" font-size="10.00">_CfP3VecP3Vec.s</text>
</a>
</g>
</g>
<!-- Node1&#45;&gt;Node13 -->
<g id="edge23" class="edge">
<title>Node1&#45;&gt;Node13</title>
<path fill="none" stroke="midnightblue" d="M591.23,-313.48C645.62,-305.42 728.67,-292.53 809.74,-277.19"/>
<polygon fill="midnightblue" stroke="midnightblue" points="810.44,-280.62 819.61,-275.31 809.13,-273.75 810.44,-280.62"/>
</g>
<!-- Node3 -->
<g id="node3" class="node">
<title>Node3</title>
<g id="a_node3"><a xlink:href="vec_8h.html" target="_top" xlink:title=" ">
<polygon fill="white" stroke="black" points="176,-62 176,-81 268,-81 268,-62 176,-62"/>
<text text-anchor="middle" x="222" y="-69" font-family="Helvetica,sans-Serif" font-size="10.00">dolphin/mtx/vec.h</text>
</a>
</g>
</g>
<!-- Node2&#45;&gt;Node3 -->
<g id="edge2" class="edge">
<title>Node2&#45;&gt;Node3</title>
<path fill="none" stroke="midnightblue" d="M119.19,-123.48C139.24,-113.53 172.6,-96.99 195.86,-85.46"/>
<polygon fill="midnightblue" stroke="midnightblue" points="197.43,-88.59 204.84,-81.01 194.32,-82.32 197.43,-88.59"/>
</g>
<!-- Node2&#45;&gt;Node4 -->
<g id="edge4" class="edge">
<title>Node2&#45;&gt;Node4</title>
<path fill="none" stroke="midnightblue" d="M106.87,-123.46C116.34,-107.65 138.81,-73.8 167,-56 202.24,-33.75 248.36,-22.4 283.2,-16.67"/>
<polygon fill="midnightblue" stroke="midnightblue" points="283.82,-20.11 293.17,-15.13 282.75,-13.2 283.82,-20.11"/>
</g>
<!-- Node3&#45;&gt;Node4 -->
<g id="edge3" class="edge">
<title>Node3&#45;&gt;Node4</title>
<path fill="none" stroke="midnightblue" d="M238.05,-61.98C256.59,-52.12 287.34,-35.79 309.02,-24.27"/>
<polygon fill="midnightblue" stroke="midnightblue" points="310.79,-27.29 317.98,-19.51 307.51,-21.11 310.79,-27.29"/>
</g>
<!-- Node6&#45;&gt;Node3 -->
<g id="edge15" class="edge">
<title>Node6&#45;&gt;Node3</title>
<path fill="none" stroke="midnightblue" d="M389.68,-246.46C352.17,-231.49 278.73,-196.9 240,-143 229.07,-127.8 224.77,-106.56 223.07,-91.38"/>
<polygon fill="midnightblue" stroke="midnightblue" points="226.54,-90.83 222.23,-81.15 219.57,-91.41 226.54,-90.83"/>
</g>
<!-- Node6&#45;&gt;Node4 -->
<g id="edge16" class="edge">
<title>Node6&#45;&gt;Node4</title>
<path fill="none" stroke="midnightblue" d="M420.71,-246.15C445.63,-216.47 519.76,-118.78 474,-56 453.73,-28.2 416.01,-17.2 384.82,-13.01"/>
<polygon fill="midnightblue" stroke="midnightblue" points="384.86,-9.49 374.53,-11.84 384.07,-16.45 384.86,-9.49"/>
</g>
<!-- Node7 -->
<g id="node7" class="node">
<title>Node7</title>
<g id="a_node7"><a xlink:href="mtx_8h.html" target="_top" xlink:title=" ">
<polygon fill="white" stroke="black" points="348,-179.5 348,-198.5 440,-198.5 440,-179.5 348,-179.5"/>
<text text-anchor="middle" x="394" y="-186.5" font-family="Helvetica,sans-Serif" font-size="10.00">dolphin/mtx/mtx.h</text>
</a>
</g>
</g>
<!-- Node6&#45;&gt;Node7 -->
<g id="edge7" class="edge">
<title>Node6&#45;&gt;Node7</title>
<path fill="none" stroke="midnightblue" d="M410.44,-246.23C407.62,-236.59 403,-220.8 399.38,-208.41"/>
<polygon fill="midnightblue" stroke="midnightblue" points="402.69,-207.24 396.52,-198.63 395.97,-209.21 402.69,-207.24"/>
</g>
<!-- Node7&#45;&gt;Node3 -->
<g id="edge13" class="edge">
<title>Node7&#45;&gt;Node3</title>
<path fill="none" stroke="midnightblue" d="M348,-181.07C320.28,-174.95 285.7,-163.63 261,-143 244.6,-129.3 233.89,-106.85 227.91,-90.97"/>
<polygon fill="midnightblue" stroke="midnightblue" points="231.11,-89.51 224.52,-81.21 224.5,-91.81 231.11,-89.51"/>
</g>
<!-- Node7&#45;&gt;Node4 -->
<g id="edge14" class="edge">
<title>Node7&#45;&gt;Node4</title>
<path fill="none" stroke="midnightblue" d="M392.02,-179.36C388.96,-166.69 382.54,-142.46 374,-123 366.56,-106.04 359.98,-104.16 353,-87 345.33,-68.15 340.13,-45.36 337.14,-29.68"/>
<polygon fill="midnightblue" stroke="midnightblue" points="340.56,-28.91 335.35,-19.68 333.67,-30.14 340.56,-28.91"/>
</g>
<!-- Node8 -->
<g id="node8" class="node">
<title>Node8</title>
<g id="a_node8"><a xlink:href="mtx44_8h.html" target="_top" xlink:title=" ">
<polygon fill="white" stroke="black" points="362.5,-62 362.5,-81 465.5,-81 465.5,-62 362.5,-62"/>
<text text-anchor="middle" x="414" y="-69" font-family="Helvetica,sans-Serif" font-size="10.00">dolphin/mtx/mtx44.h</text>
</a>
</g>
</g>
<!-- Node7&#45;&gt;Node8 -->
<g id="edge8" class="edge">
<title>Node7&#45;&gt;Node8</title>
<path fill="none" stroke="midnightblue" d="M397.37,-179.18C400.65,-170.21 405.49,-155.85 408,-143 411.39,-125.69 412.86,-105.61 413.51,-91.32"/>
<polygon fill="midnightblue" stroke="midnightblue" points="417.01,-91.38 413.86,-81.27 410.01,-91.14 417.01,-91.38"/>
</g>
<!-- Node9 -->
<g id="node9" class="node">
<title>Node9</title>
<g id="a_node9"><a xlink:href="quat_8h.html" target="_top" xlink:title=" ">
<polygon fill="white" stroke="black" points="270.5,-123.5 270.5,-142.5 365.5,-142.5 365.5,-123.5 270.5,-123.5"/>
<text text-anchor="middle" x="318" y="-130.5" font-family="Helvetica,sans-Serif" font-size="10.00">dolphin/mtx/quat.h</text>
</a>
</g>
</g>
<!-- Node7&#45;&gt;Node9 -->
<g id="edge10" class="edge">
<title>Node7&#45;&gt;Node9</title>
<path fill="none" stroke="midnightblue" d="M381.79,-179.32C370.22,-171.11 352.62,-158.6 338.84,-148.81"/>
<polygon fill="midnightblue" stroke="midnightblue" points="340.61,-145.77 330.43,-142.83 336.56,-151.48 340.61,-145.77"/>
</g>
<!-- Node8&#45;&gt;Node4 -->
<g id="edge9" class="edge">
<title>Node8&#45;&gt;Node4</title>
<path fill="none" stroke="midnightblue" d="M402.54,-61.98C389.83,-52.52 369.09,-37.1 353.75,-25.69"/>
<polygon fill="midnightblue" stroke="midnightblue" points="355.55,-22.67 345.44,-19.51 351.38,-28.29 355.55,-22.67"/>
</g>
<!-- Node9&#45;&gt;Node3 -->
<g id="edge11" class="edge">
<title>Node9&#45;&gt;Node3</title>
<path fill="none" stroke="midnightblue" d="M304.25,-123.48C288.63,-113.8 262.94,-97.87 244.42,-86.39"/>
<polygon fill="midnightblue" stroke="midnightblue" points="246.07,-83.3 235.73,-81.01 242.38,-89.25 246.07,-83.3"/>
</g>
<!-- Node9&#45;&gt;Node4 -->
<g id="edge12" class="edge">
<title>Node9&#45;&gt;Node4</title>
<path fill="none" stroke="midnightblue" d="M317.47,-123.49C316.75,-109.37 315.99,-80.22 320,-56 321.49,-47.02 324.32,-37.35 327.06,-29.28"/>
<polygon fill="midnightblue" stroke="midnightblue" points="330.38,-30.38 330.47,-19.79 323.79,-28.01 330.38,-30.38"/>
</g>
<!-- Node10&#45;&gt;Node4 -->
<g id="edge21" class="edge">
<title>Node10&#45;&gt;Node4</title>
<path fill="none" stroke="midnightblue" d="M618.37,-123.49C635.75,-116.65 656.6,-105.13 667,-87 673.86,-75.05 676.07,-66.37 667,-56 630.98,-14.78 468.81,-9.81 384.8,-10.1"/>
<polygon fill="midnightblue" stroke="midnightblue" points="384.7,-6.6 374.72,-10.16 384.74,-13.6 384.7,-6.6"/>
</g>
<!-- Node11 -->
<g id="node11" class="node">
<title>Node11</title>
<g id="a_node11"><a xlink:href="float_8h.html" target="_top" xlink:title=" ">
<polygon fill="white" stroke="black" points="522,-56.5 522,-86.5 658,-86.5 658,-56.5 522,-56.5"/>
<text text-anchor="start" x="530" y="-74.5" font-family="Helvetica,sans-Serif" font-size="10.00">MSL_C/MSL_Common/Src</text>
<text text-anchor="middle" x="590" y="-63.5" font-family="Helvetica,sans-Serif" font-size="10.00">/float.h</text>
</a>
</g>
</g>
<!-- Node10&#45;&gt;Node11 -->
<g id="edge19" class="edge">
<title>Node10&#45;&gt;Node11</title>
<path fill="none" stroke="midnightblue" d="M590,-123.48C590,-116.47 590,-106.19 590,-96.7"/>
<polygon fill="midnightblue" stroke="midnightblue" points="593.5,-96.52 590,-86.52 586.5,-96.52 593.5,-96.52"/>
</g>
<!-- Node11&#45;&gt;Node4 -->
<g id="edge20" class="edge">
<title>Node11&#45;&gt;Node4</title>
<path fill="none" stroke="midnightblue" d="M529.66,-56.47C484.04,-45.87 422.35,-31.53 380.52,-21.81"/>
<polygon fill="midnightblue" stroke="midnightblue" points="381.13,-18.36 370.6,-19.51 379.55,-25.18 381.13,-18.36"/>
</g>
</g>
</svg>
