<?xml version="1.0" encoding="UTF-8" standalone="no"?>
<!DOCTYPE svg PUBLIC "-//W3C//DTD SVG 1.1//EN"
 "http://www.w3.org/Graphics/SVG/1.1/DTD/svg11.dtd">
<!-- Generated by graphviz version 3.0.0 (20220413.0242)
 -->
<!-- Title: include/JSystem/JAudio2/JAISoundStarter.h Pages: 1 -->
<svg width="2530pt" height="575pt"
 viewBox="0.00 0.00 2529.67 575.00" xmlns="http://www.w3.org/2000/svg" xmlns:xlink="http://www.w3.org/1999/xlink">
<g id="graph0" class="graph" transform="scale(1 1) rotate(0) translate(4 571)">
<title>include/JSystem/JAudio2/JAISoundStarter.h</title>
<polygon fill="white" stroke="transparent" points="-4,4 -4,-571 2525.67,-571 2525.67,4 -4,4"/>
<!-- Node1 -->
<g id="node1" class="node">
<title>Node1</title>
<g id="a_node1"><a xlink:title=" ">
<polygon fill="#bfbfbf" stroke="black" points="1326.5,-536.5 1326.5,-566.5 1453.5,-566.5 1453.5,-536.5 1326.5,-536.5"/>
<text text-anchor="start" x="1334.5" y="-554.5" font-family="Helvetica,sans-Serif" font-size="10.00">include/JSystem/JAudio2</text>
<text text-anchor="middle" x="1390" y="-543.5" font-family="Helvetica,sans-Serif" font-size="10.00">/JAISoundStarter.h</text>
</a>
</g>
</g>
<!-- Node2 -->
<g id="node2" class="node">
<title>Node2</title>
<g id="a_node2"><a xlink:href="JStudio_2JStudio__JAudio2_2control_8h.html" target="_top" xlink:title=" ">
<polygon fill="white" stroke="black" points="397.5,-469.5 397.5,-499.5 530.5,-499.5 530.5,-469.5 397.5,-469.5"/>
<text text-anchor="start" x="405.5" y="-487.5" font-family="Helvetica,sans-Serif" font-size="10.00">include/JSystem/JStudio</text>
<text text-anchor="middle" x="464" y="-476.5" font-family="Helvetica,sans-Serif" font-size="10.00">/JStudio_JAudio2/control.h</text>
</a>
</g>
</g>
<!-- Node1&#45;&gt;Node2 -->
<g id="edge1" class="edge">
<title>Node1&#45;&gt;Node2</title>
<path fill="none" stroke="midnightblue" d="M1316.16,-545.32C1140.31,-532.97 698.85,-501.98 530.57,-490.17"/>
<polygon fill="midnightblue" stroke="midnightblue" points="1316.13,-548.82 1326.35,-546.03 1316.62,-541.84 1316.13,-548.82"/>
</g>
<!-- Node12 -->
<g id="node12" class="node">
<title>Node12</title>
<g id="a_node12"><a xlink:href="Z2SoundStarter_8h.html" target="_top" xlink:title=" ">
<polygon fill="white" stroke="black" points="1340,-469.5 1340,-499.5 1440,-499.5 1440,-469.5 1340,-469.5"/>
<text text-anchor="start" x="1348" y="-487.5" font-family="Helvetica,sans-Serif" font-size="10.00">include/Z2AudioLib</text>
<text text-anchor="middle" x="1390" y="-476.5" font-family="Helvetica,sans-Serif" font-size="10.00">/Z2SoundStarter.h</text>
</a>
</g>
</g>
<!-- Node1&#45;&gt;Node12 -->
<g id="edge11" class="edge">
<title>Node1&#45;&gt;Node12</title>
<path fill="none" stroke="midnightblue" d="M1390,-526.11C1390,-517.15 1390,-507.32 1390,-499.58"/>
<polygon fill="midnightblue" stroke="midnightblue" points="1386.5,-526.4 1390,-536.4 1393.5,-526.4 1386.5,-526.4"/>
</g>
<!-- Node244 -->
<g id="node50" class="node">
<title>Node244</title>
<g id="a_node50"><a xlink:href="JAISoundStarter_8cpp.html" target="_top" xlink:title=" ">
<polygon fill="white" stroke="black" points="1458.5,-469.5 1458.5,-499.5 1569.5,-499.5 1569.5,-469.5 1458.5,-469.5"/>
<text text-anchor="start" x="1466.5" y="-487.5" font-family="Helvetica,sans-Serif" font-size="10.00">libs/JSystem/JAudio2</text>
<text text-anchor="middle" x="1514" y="-476.5" font-family="Helvetica,sans-Serif" font-size="10.00">/JAISoundStarter.cpp</text>
</a>
</g>
</g>
<!-- Node1&#45;&gt;Node244 -->
<g id="edge60" class="edge">
<title>Node1&#45;&gt;Node244</title>
<path fill="none" stroke="midnightblue" d="M1425.84,-531.71C1445.39,-521.46 1469.2,-508.98 1487.15,-499.58"/>
<polygon fill="midnightblue" stroke="midnightblue" points="1424.14,-528.65 1416.91,-536.4 1427.39,-534.85 1424.14,-528.65"/>
</g>
<!-- Node3 -->
<g id="node3" class="node">
<title>Node3</title>
<g id="a_node3"><a xlink:href="d__demo_8h.html" target="_top" xlink:title=" ">
<polygon fill="white" stroke="black" points="478.5,-402.5 478.5,-421.5 579.5,-421.5 579.5,-402.5 478.5,-402.5"/>
<text text-anchor="middle" x="529" y="-409.5" font-family="Helvetica,sans-Serif" font-size="10.00">include/d/d_demo.h</text>
</a>
</g>
</g>
<!-- Node2&#45;&gt;Node3 -->
<g id="edge2" class="edge">
<title>Node2&#45;&gt;Node3</title>
<path fill="none" stroke="midnightblue" d="M484.04,-461.76C496.41,-448.34 511.62,-431.85 520.8,-421.89"/>
<polygon fill="midnightblue" stroke="midnightblue" points="481.36,-459.51 477.15,-469.23 486.51,-464.25 481.36,-459.51"/>
</g>
<!-- Node10 -->
<g id="node10" class="node">
<title>Node10</title>
<g id="a_node10"><a xlink:href="JStudio_2JStudio__JAudio2_2control_8cpp.html" target="_top" xlink:title=" ">
<polygon fill="white" stroke="black" points="176.5,-397 176.5,-427 319.5,-427 319.5,-397 176.5,-397"/>
<text text-anchor="start" x="184.5" y="-415" font-family="Helvetica,sans-Serif" font-size="10.00">libs/JSystem/JStudio</text>
<text text-anchor="middle" x="248" y="-404" font-family="Helvetica,sans-Serif" font-size="10.00">/JStudio_JAudio2/control.cpp</text>
</a>
</g>
</g>
<!-- Node2&#45;&gt;Node10 -->
<g id="edge9" class="edge">
<title>Node2&#45;&gt;Node10</title>
<path fill="none" stroke="midnightblue" d="M411.48,-466.36C374.6,-454.32 325.86,-438.41 291.22,-427.11"/>
<polygon fill="midnightblue" stroke="midnightblue" points="410.47,-469.71 421.07,-469.49 412.65,-463.06 410.47,-469.71"/>
</g>
<!-- Node11 -->
<g id="node11" class="node">
<title>Node11</title>
<g id="a_node11"><a xlink:href="object-sound_8cpp.html" target="_top" xlink:title=" ">
<polygon fill="white" stroke="black" points="338,-391.5 338,-432.5 460,-432.5 460,-391.5 338,-391.5"/>
<text text-anchor="start" x="346" y="-420.5" font-family="Helvetica,sans-Serif" font-size="10.00">libs/JSystem/JStudio</text>
<text text-anchor="start" x="346" y="-409.5" font-family="Helvetica,sans-Serif" font-size="10.00">/JStudio_JAudio2/object</text>
<text text-anchor="middle" x="399" y="-398.5" font-family="Helvetica,sans-Serif" font-size="10.00">&#45;sound.cpp</text>
</a>
</g>
</g>
<!-- Node2&#45;&gt;Node11 -->
<g id="edge10" class="edge">
<title>Node2&#45;&gt;Node11</title>
<path fill="none" stroke="midnightblue" d="M444.01,-461.82C435.41,-452.49 425.43,-441.67 417.06,-432.59"/>
<polygon fill="midnightblue" stroke="midnightblue" points="441.49,-464.25 450.85,-469.23 446.64,-459.51 441.49,-464.25"/>
</g>
<!-- Node4 -->
<g id="node4" class="node">
<title>Node4</title>
<g id="a_node4"><a xlink:href="d__demo_8cpp.html" target="_top" xlink:title=" ">
<polygon fill="white" stroke="black" points="607,-330 607,-349 701,-349 701,-330 607,-330"/>
<text text-anchor="middle" x="654" y="-337" font-family="Helvetica,sans-Serif" font-size="10.00">src/d/d_demo.cpp</text>
</a>
</g>
</g>
<!-- Node3&#45;&gt;Node4 -->
<g id="edge3" class="edge">
<title>Node3&#45;&gt;Node4</title>
<path fill="none" stroke="midnightblue" d="M553.27,-397.31C578.49,-383.09 617.21,-361.25 638.55,-349.22"/>
<polygon fill="midnightblue" stroke="midnightblue" points="551.32,-394.39 544.33,-402.36 554.76,-400.49 551.32,-394.39"/>
</g>
<!-- Node5 -->
<g id="node5" class="node">
<title>Node5</title>
<g id="a_node5"><a xlink:href="d__event_8cpp.html" target="_top" xlink:title=" ">
<polygon fill="white" stroke="black" points="719.5,-330 719.5,-349 840.5,-349 840.5,-330 719.5,-330"/>
<text text-anchor="middle" x="780" y="-337" font-family="Helvetica,sans-Serif" font-size="10.00">src/d/event/d_event.cpp</text>
</a>
</g>
</g>
<!-- Node3&#45;&gt;Node5 -->
<g id="edge4" class="edge">
<title>Node3&#45;&gt;Node5</title>
<path fill="none" stroke="midnightblue" d="M569.15,-399.72C619.42,-385.6 704.42,-361.73 749.62,-349.03"/>
<polygon fill="midnightblue" stroke="midnightblue" points="567.96,-396.42 559.28,-402.5 569.85,-403.16 567.96,-396.42"/>
</g>
<!-- Node6 -->
<g id="node6" class="node">
<title>Node6</title>
<g id="a_node6"><a xlink:href="d__event__data_8cpp.html" target="_top" xlink:title=" ">
<polygon fill="white" stroke="black" points="175.5,-324.5 175.5,-354.5 278.5,-354.5 278.5,-324.5 175.5,-324.5"/>
<text text-anchor="start" x="183.5" y="-342.5" font-family="Helvetica,sans-Serif" font-size="10.00">src/d/event/d_event</text>
<text text-anchor="middle" x="227" y="-331.5" font-family="Helvetica,sans-Serif" font-size="10.00">_data.cpp</text>
</a>
</g>
</g>
<!-- Node3&#45;&gt;Node6 -->
<g id="edge5" class="edge">
<title>Node3&#45;&gt;Node6</title>
<path fill="none" stroke="midnightblue" d="M496.07,-399.2C487.34,-396.3 477.87,-393.35 469,-391 389.72,-369.99 368.13,-372.49 288,-355 284.92,-354.33 281.75,-353.62 278.55,-352.9"/>
<polygon fill="midnightblue" stroke="midnightblue" points="494.96,-402.52 505.55,-402.43 497.21,-395.89 494.96,-402.52"/>
</g>
<!-- Node7 -->
<g id="node7" class="node">
<title>Node7</title>
<g id="a_node7"><a xlink:href="d__kankyo__rain_8cpp.html" target="_top" xlink:title=" ">
<polygon fill="white" stroke="black" points="297,-324.5 297,-354.5 413,-354.5 413,-324.5 297,-324.5"/>
<text text-anchor="start" x="305" y="-342.5" font-family="Helvetica,sans-Serif" font-size="10.00">src/d/kankyo/d_kankyo</text>
<text text-anchor="middle" x="355" y="-331.5" font-family="Helvetica,sans-Serif" font-size="10.00">_rain.cpp</text>
</a>
</g>
</g>
<!-- Node3&#45;&gt;Node7 -->
<g id="edge6" class="edge">
<title>Node3&#45;&gt;Node7</title>
<path fill="none" stroke="midnightblue" d="M498.35,-398.58C467.91,-386.25 421.31,-367.37 389.57,-354.51"/>
<polygon fill="midnightblue" stroke="midnightblue" points="497.43,-401.98 508.01,-402.5 500.06,-395.5 497.43,-401.98"/>
</g>
<!-- Node8 -->
<g id="node8" class="node">
<title>Node8</title>
<g id="a_node8"><a xlink:href="d__s__play_8cpp.html" target="_top" xlink:title=" ">
<polygon fill="white" stroke="black" points="0,-62 0,-81 106,-81 106,-62 0,-62"/>
<text text-anchor="middle" x="53" y="-69" font-family="Helvetica,sans-Serif" font-size="10.00">src/d/s/d_s_play.cpp</text>
</a>
</g>
</g>
<!-- Node3&#45;&gt;Node8 -->
<g id="edge7" class="edge">
<title>Node3&#45;&gt;Node8</title>
<path fill="none" stroke="midnightblue" d="M504.87,-396.82C490.07,-386.91 471.92,-372.37 461,-355 441.15,-323.42 441,-310.8 441,-273.5 441,-273.5 441,-273.5 441,-204.5 441,-167.63 186.7,-103.95 89.85,-81.03"/>
<polygon fill="midnightblue" stroke="midnightblue" points="503.25,-399.94 513.56,-402.38 507.02,-394.04 503.25,-399.94"/>
</g>
<!-- Node9 -->
<g id="node9" class="node">
<title>Node9</title>
<g id="a_node9"><a xlink:href="f__op__actor_8cpp.html" target="_top" xlink:title=" ">
<polygon fill="white" stroke="black" points="469.5,-330 469.5,-349 588.5,-349 588.5,-330 469.5,-330"/>
<text text-anchor="middle" x="529" y="-337" font-family="Helvetica,sans-Serif" font-size="10.00">src/f_op/f_op_actor.cpp</text>
</a>
</g>
</g>
<!-- Node3&#45;&gt;Node9 -->
<g id="edge8" class="edge">
<title>Node3&#45;&gt;Node9</title>
<path fill="none" stroke="midnightblue" d="M529,-391.94C529,-378.03 529,-359.82 529,-349.22"/>
<polygon fill="midnightblue" stroke="midnightblue" points="525.5,-392.36 529,-402.36 532.5,-392.36 525.5,-392.36"/>
</g>
<!-- Node13 -->
<g id="node13" class="node">
<title>Node13</title>
<g id="a_node13"><a xlink:href="Z2AudioMgr_8h.html" target="_top" xlink:title=" ">
<polygon fill="white" stroke="black" points="1359,-190.5 1359,-220.5 1459,-220.5 1459,-190.5 1359,-190.5"/>
<text text-anchor="start" x="1367" y="-208.5" font-family="Helvetica,sans-Serif" font-size="10.00">include/Z2AudioLib</text>
<text text-anchor="middle" x="1409" y="-197.5" font-family="Helvetica,sans-Serif" font-size="10.00">/Z2AudioMgr.h</text>
</a>
</g>
</g>
<!-- Node12&#45;&gt;Node13 -->
<g id="edge12" class="edge">
<title>Node12&#45;&gt;Node13</title>
<path fill="none" stroke="midnightblue" d="M1391.66,-459.28C1395.52,-403.06 1404.98,-265.1 1408.03,-220.59"/>
<polygon fill="midnightblue" stroke="midnightblue" points="1388.16,-459.17 1390.97,-469.38 1395.14,-459.65 1388.16,-459.17"/>
</g>
<!-- Node232 -->
<g id="node34" class="node">
<title>Node232</title>
<g id="a_node34"><a xlink:href="Z2SoundObject_8h.html" target="_top" xlink:title=" ">
<polygon fill="white" stroke="black" points="2134,-397 2134,-427 2234,-427 2234,-397 2134,-397"/>
<text text-anchor="start" x="2142" y="-415" font-family="Helvetica,sans-Serif" font-size="10.00">include/Z2AudioLib</text>
<text text-anchor="middle" x="2184" y="-404" font-family="Helvetica,sans-Serif" font-size="10.00">/Z2SoundObject.h</text>
</a>
</g>
</g>
<!-- Node12&#45;&gt;Node232 -->
<g id="edge37" class="edge">
<title>Node12&#45;&gt;Node232</title>
<path fill="none" stroke="midnightblue" d="M1450.4,-469.14C1712.83,-428.44 2016.09,-417.1 2133.84,-414.05"/>
<polygon fill="midnightblue" stroke="midnightblue" points="1449.63,-465.72 1440.3,-470.72 1450.72,-472.63 1449.63,-465.72"/>
</g>
<!-- Node241 -->
<g id="node47" class="node">
<title>Node241</title>
<g id="a_node47"><a xlink:href="Z2SpeechMgr2_8h.html" target="_top" xlink:title=" ">
<polygon fill="white" stroke="black" points="1418,-397 1418,-427 1518,-427 1518,-397 1418,-397"/>
<text text-anchor="start" x="1426" y="-415" font-family="Helvetica,sans-Serif" font-size="10.00">include/Z2AudioLib</text>
<text text-anchor="middle" x="1468" y="-404" font-family="Helvetica,sans-Serif" font-size="10.00">/Z2SpeechMgr2.h</text>
</a>
</g>
</g>
<!-- Node12&#45;&gt;Node241 -->
<g id="edge56" class="edge">
<title>Node12&#45;&gt;Node241</title>
<path fill="none" stroke="midnightblue" d="M1413.27,-462.46C1425.95,-451 1441.3,-437.14 1452.51,-427"/>
<polygon fill="midnightblue" stroke="midnightblue" points="1410.86,-459.93 1405.78,-469.23 1415.55,-465.12 1410.86,-459.93"/>
</g>
<!-- Node243 -->
<g id="node49" class="node">
<title>Node243</title>
<g id="a_node49"><a xlink:href="Z2SoundStarter_8cpp.html" target="_top" xlink:title=" ">
<polygon fill="white" stroke="black" points="1188.5,-402.5 1188.5,-421.5 1361.5,-421.5 1361.5,-402.5 1188.5,-402.5"/>
<text text-anchor="middle" x="1275" y="-409.5" font-family="Helvetica,sans-Serif" font-size="10.00">libs/Z2AudioLib/Z2SoundStarter.cpp</text>
</a>
</g>
</g>
<!-- Node12&#45;&gt;Node243 -->
<g id="edge59" class="edge">
<title>Node12&#45;&gt;Node243</title>
<path fill="none" stroke="midnightblue" d="M1358.35,-464.1C1335.6,-450.15 1306.03,-432.02 1288.92,-421.53"/>
<polygon fill="midnightblue" stroke="midnightblue" points="1356.65,-467.16 1367,-469.4 1360.31,-461.19 1356.65,-467.16"/>
</g>
<!-- Node14 -->
<g id="node14" class="node">
<title>Node14</title>
<g id="a_node14"><a xlink:href="m__Do__audio_8h.html" target="_top" xlink:title=" ">
<polygon fill="white" stroke="black" points="1290,-129 1290,-148 1430,-148 1430,-129 1290,-129"/>
<text text-anchor="middle" x="1360" y="-136" font-family="Helvetica,sans-Serif" font-size="10.00">include/m_Do/m_Do_audio.h</text>
</a>
</g>
</g>
<!-- Node13&#45;&gt;Node14 -->
<g id="edge13" class="edge">
<title>Node13&#45;&gt;Node14</title>
<path fill="none" stroke="midnightblue" d="M1392.28,-182.32C1383.44,-170.6 1373.1,-156.88 1366.55,-148.19"/>
<polygon fill="midnightblue" stroke="midnightblue" points="1389.55,-184.52 1398.37,-190.4 1395.14,-180.3 1389.55,-184.52"/>
</g>
<!-- Node28 -->
<g id="node16" class="node">
<title>Node28</title>
<g id="a_node16"><a xlink:href="d__a__alink_8cpp.html" target="_top" xlink:title=" ">
<polygon fill="white" stroke="black" points="2112.5,-0.5 2112.5,-19.5 2221.5,-19.5 2221.5,-0.5 2112.5,-0.5"/>
<text text-anchor="middle" x="2167" y="-7.5" font-family="Helvetica,sans-Serif" font-size="10.00">src/d/a/d_a_alink.cpp</text>
</a>
</g>
</g>
<!-- Node13&#45;&gt;Node28 -->
<g id="edge32" class="edge">
<title>Node13&#45;&gt;Node28</title>
<path fill="none" stroke="midnightblue" d="M1469.43,-201.61C1623.11,-193.19 2024.11,-164.19 2129,-87 2151.81,-70.21 2161.78,-35.86 2165.34,-19.73"/>
<polygon fill="midnightblue" stroke="midnightblue" points="1469.03,-198.13 1459.23,-202.16 1469.41,-205.12 1469.03,-198.13"/>
</g>
<!-- Node94 -->
<g id="node19" class="node">
<title>Node94</title>
<g id="a_node19"><a xlink:href="d__event__manager_8cpp.html" target="_top" xlink:title=" ">
<polygon fill="white" stroke="black" points="2016.5,-56.5 2016.5,-86.5 2119.5,-86.5 2119.5,-56.5 2016.5,-56.5"/>
<text text-anchor="start" x="2024.5" y="-74.5" font-family="Helvetica,sans-Serif" font-size="10.00">src/d/event/d_event</text>
<text text-anchor="middle" x="2068" y="-63.5" font-family="Helvetica,sans-Serif" font-size="10.00">_manager.cpp</text>
</a>
</g>
</g>
<!-- Node13&#45;&gt;Node94 -->
<g id="edge33" class="edge">
<title>Node13&#45;&gt;Node94</title>
<path fill="none" stroke="midnightblue" d="M1421.17,-181.42C1432.73,-162.12 1452.03,-135.74 1477,-123 1581.16,-69.83 1886.24,-103.59 2002,-87 2006.65,-86.33 2011.45,-85.52 2016.25,-84.63"/>
<polygon fill="midnightblue" stroke="midnightblue" points="1418.06,-179.82 1416.13,-190.24 1424.13,-183.3 1418.06,-179.82"/>
</g>
<!-- Node231 -->
<g id="node30" class="node">
<title>Node231</title>
<g id="a_node30"><a xlink:href="Z2AudioMgr_8cpp.html" target="_top" xlink:title=" ">
<polygon fill="white" stroke="black" points="1486,-129 1486,-148 1644,-148 1644,-129 1486,-129"/>
<text text-anchor="middle" x="1565" y="-136" font-family="Helvetica,sans-Serif" font-size="10.00">libs/Z2AudioLib/Z2AudioMgr.cpp</text>
</a>
</g>
</g>
<!-- Node13&#45;&gt;Node231 -->
<g id="edge31" class="edge">
<title>Node13&#45;&gt;Node231</title>
<path fill="none" stroke="midnightblue" d="M1452.3,-186.46C1482.44,-173.9 1521.26,-157.72 1544.58,-148.01"/>
<polygon fill="midnightblue" stroke="midnightblue" points="1450.73,-183.32 1442.85,-190.4 1453.43,-189.78 1450.73,-183.32"/>
</g>
<!-- Node47 -->
<g id="node31" class="node">
<title>Node47</title>
<g id="a_node31"><a xlink:href="d__menu__window_8cpp.html" target="_top" xlink:title=" ">
<polygon fill="white" stroke="black" points="856.5,-129 856.5,-148 1015.5,-148 1015.5,-129 856.5,-129"/>
<text text-anchor="middle" x="936" y="-136" font-family="Helvetica,sans-Serif" font-size="10.00">src/d/menu/d_menu_window.cpp</text>
</a>
</g>
</g>
<!-- Node13&#45;&gt;Node47 -->
<g id="edge34" class="edge">
<title>Node13&#45;&gt;Node47</title>
<path fill="none" stroke="midnightblue" d="M1348.63,-197.14C1272.93,-187.78 1139.21,-170.81 1025,-154 1012.61,-152.18 999.27,-150.08 986.79,-148.05"/>
<polygon fill="midnightblue" stroke="midnightblue" points="1348.57,-200.66 1358.92,-198.41 1349.42,-193.71 1348.57,-200.66"/>
</g>
<!-- Node48 -->
<g id="node32" class="node">
<title>Node48</title>
<g id="a_node32"><a xlink:href="d__meter__map_8cpp.html" target="_top" xlink:title=" ">
<polygon fill="white" stroke="black" points="1034,-123.5 1034,-153.5 1138,-153.5 1138,-123.5 1034,-123.5"/>
<text text-anchor="start" x="1042" y="-141.5" font-family="Helvetica,sans-Serif" font-size="10.00">src/d/meter/d_meter</text>
<text text-anchor="middle" x="1086" y="-130.5" font-family="Helvetica,sans-Serif" font-size="10.00">_map.cpp</text>
</a>
</g>
</g>
<!-- Node13&#45;&gt;Node48 -->
<g id="edge35" class="edge">
<title>Node13&#45;&gt;Node48</title>
<path fill="none" stroke="midnightblue" d="M1348.94,-193.56C1295.95,-183.75 1216.69,-168.67 1148,-154 1144.76,-153.31 1141.42,-152.58 1138.06,-151.83"/>
<polygon fill="midnightblue" stroke="midnightblue" points="1348.38,-197.02 1358.85,-195.39 1349.65,-190.13 1348.38,-197.02"/>
</g>
<!-- Node49 -->
<g id="node33" class="node">
<title>Node49</title>
<g id="a_node33"><a xlink:href="d__save_8cpp.html" target="_top" xlink:title=" ">
<polygon fill="white" stroke="black" points="1156.5,-129 1156.5,-148 1271.5,-148 1271.5,-129 1156.5,-129"/>
<text text-anchor="middle" x="1214" y="-136" font-family="Helvetica,sans-Serif" font-size="10.00">src/d/save/d_save.cpp</text>
</a>
</g>
</g>
<!-- Node13&#45;&gt;Node49 -->
<g id="edge36" class="edge">
<title>Node13&#45;&gt;Node49</title>
<path fill="none" stroke="midnightblue" d="M1356.82,-187.11C1318.89,-174.46 1269.18,-157.89 1239.52,-148.01"/>
<polygon fill="midnightblue" stroke="midnightblue" points="1356.09,-190.55 1366.69,-190.4 1358.31,-183.91 1356.09,-190.55"/>
</g>
<!-- Node14&#45;&gt;Node8 -->
<g id="edge26" class="edge">
<title>Node14&#45;&gt;Node8</title>
<path fill="none" stroke="midnightblue" d="M1310.13,-127.17C1300.51,-125.51 1290.47,-124.01 1281,-123 765.45,-68.04 629.07,-154.37 115,-87 104.81,-85.66 93.84,-83.39 84,-81.02"/>
<polygon fill="midnightblue" stroke="midnightblue" points="1309.52,-130.62 1319.98,-128.95 1310.76,-123.73 1309.52,-130.62"/>
</g>
<!-- Node15 -->
<g id="node15" class="node">
<title>Node15</title>
<g id="a_node15"><a xlink:href="m__Do__ext_8h.html" target="_top" xlink:title=" ">
<polygon fill="white" stroke="red" points="1830,-62 1830,-81 1960,-81 1960,-62 1830,-62"/>
<text text-anchor="middle" x="1895" y="-69" font-family="Helvetica,sans-Serif" font-size="10.00">include/m_Do/m_Do_ext.h</text>
</a>
</g>
</g>
<!-- Node14&#45;&gt;Node15 -->
<g id="edge14" class="edge">
<title>Node14&#45;&gt;Node15</title>
<path fill="none" stroke="midnightblue" d="M1415.75,-127.27C1425.16,-125.72 1434.84,-124.23 1444,-123 1610.83,-100.67 1654.43,-111.21 1821,-87 1832.14,-85.38 1844.15,-83.21 1855.18,-81.05"/>
<polygon fill="midnightblue" stroke="midnightblue" points="1414.96,-123.85 1405.68,-128.97 1416.12,-130.75 1414.96,-123.85"/>
</g>
<!-- Node14&#45;&gt;Node28 -->
<g id="edge16" class="edge">
<title>Node14&#45;&gt;Node28</title>
<path fill="none" stroke="midnightblue" d="M1410.12,-127.17C1419.04,-125.59 1428.27,-124.11 1437,-123 1554.54,-108.01 1858.51,-129.8 1969,-87 1989.65,-79 1988.3,-66.1 2008,-56 2042.98,-38.07 2086.05,-26.44 2118.54,-19.51"/>
<polygon fill="midnightblue" stroke="midnightblue" points="1409.42,-123.74 1400.22,-128.99 1410.69,-130.63 1409.42,-123.74"/>
</g>
<!-- Node30 -->
<g id="node17" class="node">
<title>Node30</title>
<g id="a_node17"><a xlink:href="d__com__inf__game_8cpp.html" target="_top" xlink:title=" ">
<polygon fill="white" stroke="black" points="1306,-56.5 1306,-86.5 1414,-86.5 1414,-56.5 1306,-56.5"/>
<text text-anchor="start" x="1314" y="-74.5" font-family="Helvetica,sans-Serif" font-size="10.00">src/d/com/d_com_inf</text>
<text text-anchor="middle" x="1360" y="-63.5" font-family="Helvetica,sans-Serif" font-size="10.00">_game.cpp</text>
</a>
</g>
</g>
<!-- Node14&#45;&gt;Node30 -->
<g id="edge17" class="edge">
<title>Node14&#45;&gt;Node30</title>
<path fill="none" stroke="midnightblue" d="M1360,-118.41C1360,-108.22 1360,-95.9 1360,-86.59"/>
<polygon fill="midnightblue" stroke="midnightblue" points="1356.5,-118.73 1360,-128.73 1363.5,-118.73 1356.5,-118.73"/>
</g>
<!-- Node38 -->
<g id="node18" class="node">
<title>Node38</title>
<g id="a_node18"><a xlink:href="d__name_8cpp.html" target="_top" xlink:title=" ">
<polygon fill="white" stroke="black" points="1432,-62 1432,-81 1526,-81 1526,-62 1432,-62"/>
<text text-anchor="middle" x="1479" y="-69" font-family="Helvetica,sans-Serif" font-size="10.00">src/d/d_name.cpp</text>
</a>
</g>
</g>
<!-- Node14&#45;&gt;Node38 -->
<g id="edge18" class="edge">
<title>Node14&#45;&gt;Node38</title>
<path fill="none" stroke="midnightblue" d="M1385.11,-123.79C1408.69,-110.9 1443.26,-92.02 1463.21,-81.13"/>
<polygon fill="midnightblue" stroke="midnightblue" points="1383.15,-120.87 1376.05,-128.73 1386.5,-127.01 1383.15,-120.87"/>
</g>
<!-- Node14&#45;&gt;Node94 -->
<g id="edge19" class="edge">
<title>Node14&#45;&gt;Node94</title>
<path fill="none" stroke="midnightblue" d="M1414.41,-127.24C1424.23,-125.63 1434.4,-124.13 1444,-123 1690.8,-93.82 1755.93,-121.76 2002,-87 2006.65,-86.34 2011.45,-85.54 2016.25,-84.65"/>
<polygon fill="midnightblue" stroke="midnightblue" points="1413.62,-123.82 1404.34,-128.94 1414.78,-130.73 1413.62,-123.82"/>
</g>
<!-- Node56 -->
<g id="node20" class="node">
<title>Node56</title>
<g id="a_node20"><a xlink:href="d__kankyo_8cpp.html" target="_top" xlink:title=" ">
<polygon fill="white" stroke="black" points="1544,-62 1544,-81 1678,-81 1678,-62 1544,-62"/>
<text text-anchor="middle" x="1611" y="-69" font-family="Helvetica,sans-Serif" font-size="10.00">src/d/kankyo/d_kankyo.cpp</text>
</a>
</g>
</g>
<!-- Node14&#45;&gt;Node56 -->
<g id="edge20" class="edge">
<title>Node14&#45;&gt;Node56</title>
<path fill="none" stroke="midnightblue" d="M1402.85,-126.4C1452.38,-113.58 1532.86,-92.74 1577.85,-81.08"/>
<polygon fill="midnightblue" stroke="midnightblue" points="1401.88,-123.04 1393.07,-128.94 1403.63,-129.82 1401.88,-123.04"/>
</g>
<!-- Node95 -->
<g id="node21" class="node">
<title>Node95</title>
<g id="a_node21"><a xlink:href="d__kankyo__wether_8cpp.html" target="_top" xlink:title=" ">
<polygon fill="white" stroke="black" points="1696,-56.5 1696,-86.5 1812,-86.5 1812,-56.5 1696,-56.5"/>
<text text-anchor="start" x="1704" y="-74.5" font-family="Helvetica,sans-Serif" font-size="10.00">src/d/kankyo/d_kankyo</text>
<text text-anchor="middle" x="1754" y="-63.5" font-family="Helvetica,sans-Serif" font-size="10.00">_wether.cpp</text>
</a>
</g>
</g>
<!-- Node14&#45;&gt;Node95 -->
<g id="edge21" class="edge">
<title>Node14&#45;&gt;Node95</title>
<path fill="none" stroke="midnightblue" d="M1418.36,-127.24C1426.95,-125.78 1435.7,-124.33 1444,-123 1551.8,-105.71 1579.59,-106.56 1687,-87 1689.93,-86.47 1692.92,-85.9 1695.94,-85.31"/>
<polygon fill="midnightblue" stroke="midnightblue" points="1417.65,-123.81 1408.38,-128.95 1418.83,-130.71 1417.65,-123.81"/>
</g>
<!-- Node50 -->
<g id="node22" class="node">
<title>Node50</title>
<g id="a_node22"><a xlink:href="d__meter2_8cpp.html" target="_top" xlink:title=" ">
<polygon fill="white" stroke="black" points="124,-62 124,-81 252,-81 252,-62 124,-62"/>
<text text-anchor="middle" x="188" y="-69" font-family="Helvetica,sans-Serif" font-size="10.00">src/d/meter/d_meter2.cpp</text>
</a>
</g>
</g>
<!-- Node14&#45;&gt;Node50 -->
<g id="edge22" class="edge">
<title>Node14&#45;&gt;Node50</title>
<path fill="none" stroke="midnightblue" d="M1310.13,-127.21C1300.5,-125.54 1290.47,-124.03 1281,-123 830.49,-73.96 712.21,-138.73 262,-87 250.03,-85.63 237.11,-83.37 225.47,-81.04"/>
<polygon fill="midnightblue" stroke="midnightblue" points="1309.52,-130.65 1319.98,-128.98 1310.76,-123.76 1309.52,-130.65"/>
</g>
<!-- Node21 -->
<g id="node23" class="node">
<title>Node21</title>
<g id="a_node23"><a xlink:href="d__msg__flow_8cpp.html" target="_top" xlink:title=" ">
<polygon fill="white" stroke="black" points="270.5,-62 270.5,-81 403.5,-81 403.5,-62 270.5,-62"/>
<text text-anchor="middle" x="337" y="-69" font-family="Helvetica,sans-Serif" font-size="10.00">src/d/msg/d_msg_flow.cpp</text>
</a>
</g>
</g>
<!-- Node14&#45;&gt;Node21 -->
<g id="edge23" class="edge">
<title>Node14&#45;&gt;Node21</title>
<path fill="none" stroke="midnightblue" d="M1309.51,-127.15C1300.07,-125.52 1290.26,-124.04 1281,-123 897.29,-80.04 796.56,-131.3 413,-87 400.86,-85.6 387.74,-83.36 375.88,-81.06"/>
<polygon fill="midnightblue" stroke="midnightblue" points="1309.1,-130.63 1319.57,-128.95 1310.34,-123.74 1309.1,-130.63"/>
</g>
<!-- Node63 -->
<g id="node24" class="node">
<title>Node63</title>
<g id="a_node24"><a xlink:href="d__s__logo_8cpp.html" target="_top" xlink:title=" ">
<polygon fill="white" stroke="black" points="421.5,-62 421.5,-81 528.5,-81 528.5,-62 421.5,-62"/>
<text text-anchor="middle" x="475" y="-69" font-family="Helvetica,sans-Serif" font-size="10.00">src/d/s/d_s_logo.cpp</text>
</a>
</g>
</g>
<!-- Node14&#45;&gt;Node63 -->
<g id="edge24" class="edge">
<title>Node14&#45;&gt;Node63</title>
<path fill="none" stroke="midnightblue" d="M1309.19,-127.15C1299.85,-125.54 1290.16,-124.06 1281,-123 952.57,-85.07 865.5,-132.26 538,-87 527.88,-85.6 517,-83.37 507.17,-81.06"/>
<polygon fill="midnightblue" stroke="midnightblue" points="1308.69,-130.61 1319.15,-128.93 1309.93,-123.72 1308.69,-130.61"/>
</g>
<!-- Node100 -->
<g id="node25" class="node">
<title>Node100</title>
<g id="a_node25"><a xlink:href="d__s__name_8cpp.html" target="_top" xlink:title=" ">
<polygon fill="white" stroke="black" points="546.5,-62 546.5,-81 659.5,-81 659.5,-62 546.5,-62"/>
<text text-anchor="middle" x="603" y="-69" font-family="Helvetica,sans-Serif" font-size="10.00">src/d/s/d_s_name.cpp</text>
</a>
</g>
</g>
<!-- Node14&#45;&gt;Node100 -->
<g id="edge25" class="edge">
<title>Node14&#45;&gt;Node100</title>
<path fill="none" stroke="midnightblue" d="M1308.87,-127.17C1299.63,-125.57 1290.05,-124.09 1281,-123 1010.49,-90.34 938.9,-124.35 669,-87 658.54,-85.55 647.28,-83.33 637.07,-81.06"/>
<polygon fill="midnightblue" stroke="midnightblue" points="1308.27,-130.62 1318.74,-128.94 1309.51,-123.73 1308.27,-130.62"/>
</g>
<!-- Node22 -->
<g id="node26" class="node">
<title>Node22</title>
<g id="a_node26"><a xlink:href="d__shop__system_8cpp.html" target="_top" xlink:title=" ">
<polygon fill="white" stroke="black" points="678,-62 678,-81 830,-81 830,-62 678,-62"/>
<text text-anchor="middle" x="754" y="-69" font-family="Helvetica,sans-Serif" font-size="10.00">src/d/shop/d_shop_system.cpp</text>
</a>
</g>
</g>
<!-- Node14&#45;&gt;Node22 -->
<g id="edge27" class="edge">
<title>Node14&#45;&gt;Node22</title>
<path fill="none" stroke="midnightblue" d="M1307.94,-127.18C1298.98,-125.62 1289.74,-124.15 1281,-123 1085.6,-97.18 1034.55,-111.6 839,-87 826.23,-85.39 812.44,-83.23 799.77,-81.06"/>
<polygon fill="midnightblue" stroke="midnightblue" points="1307.43,-130.65 1317.89,-128.96 1308.67,-123.76 1307.43,-130.65"/>
</g>
<!-- Node105 -->
<g id="node27" class="node">
<title>Node105</title>
<g id="a_node27"><a xlink:href="f__pc__manager_8cpp.html" target="_top" xlink:title=" ">
<polygon fill="white" stroke="black" points="848,-62 848,-81 982,-81 982,-62 848,-62"/>
<text text-anchor="middle" x="915" y="-69" font-family="Helvetica,sans-Serif" font-size="10.00">src/f_pc/f_pc_manager.cpp</text>
</a>
</g>
</g>
<!-- Node14&#45;&gt;Node105 -->
<g id="edge28" class="edge">
<title>Node14&#45;&gt;Node105</title>
<path fill="none" stroke="midnightblue" d="M1306.1,-127.18C1297.71,-125.69 1289.13,-124.25 1281,-123 1152.63,-103.27 1119.3,-107.18 991,-87 979.99,-85.27 968.13,-83.13 957.12,-81.04"/>
<polygon fill="midnightblue" stroke="midnightblue" points="1305.74,-130.67 1316.2,-128.99 1306.98,-123.78 1305.74,-130.67"/>
</g>
<!-- Node230 -->
<g id="node28" class="node">
<title>Node230</title>
<g id="a_node28"><a xlink:href="m__Do__Reset_8cpp.html" target="_top" xlink:title=" ">
<polygon fill="white" stroke="black" points="1000,-62 1000,-81 1136,-81 1136,-62 1000,-62"/>
<text text-anchor="middle" x="1068" y="-69" font-family="Helvetica,sans-Serif" font-size="10.00">src/m_Do/m_Do_Reset.cpp</text>
</a>
</g>
</g>
<!-- Node14&#45;&gt;Node230 -->
<g id="edge29" class="edge">
<title>Node14&#45;&gt;Node230</title>
<path fill="none" stroke="midnightblue" d="M1311.59,-126.72C1254.09,-113.92 1159.34,-92.83 1106.56,-81.08"/>
<polygon fill="midnightblue" stroke="midnightblue" points="1311,-130.18 1321.53,-128.94 1312.53,-123.35 1311,-130.18"/>
</g>
<!-- Node107 -->
<g id="node29" class="node">
<title>Node107</title>
<g id="a_node29"><a xlink:href="m__Do__audio_8cpp.html" target="_top" xlink:title=" ">
<polygon fill="white" stroke="black" points="1154,-62 1154,-81 1288,-81 1288,-62 1154,-62"/>
<text text-anchor="middle" x="1221" y="-69" font-family="Helvetica,sans-Serif" font-size="10.00">src/m_Do/m_Do_audio.cpp</text>
</a>
</g>
</g>
<!-- Node14&#45;&gt;Node107 -->
<g id="edge30" class="edge">
<title>Node14&#45;&gt;Node107</title>
<path fill="none" stroke="midnightblue" d="M1332.44,-124.61C1304.91,-111.74 1263.35,-92.31 1239.53,-81.17"/>
<polygon fill="midnightblue" stroke="midnightblue" points="1331,-127.8 1341.54,-128.87 1333.97,-121.46 1331,-127.8"/>
</g>
<!-- Node15&#45;&gt;Node28 -->
<g id="edge15" class="edge">
<title>Node15&#45;&gt;Node28</title>
<path fill="none" stroke="midnightblue" d="M1943.78,-59.83C1996.52,-48.29 2079.56,-30.13 2128.1,-19.51"/>
<polygon fill="midnightblue" stroke="midnightblue" points="1942.99,-56.42 1933.97,-61.98 1944.49,-63.26 1942.99,-56.42"/>
</g>
<!-- Node233 -->
<g id="node35" class="node">
<title>Node233</title>
<g id="a_node35"><a xlink:href="Z2Creature_8h.html" target="_top" xlink:title=" ">
<polygon fill="white" stroke="black" points="2066,-324.5 2066,-354.5 2166,-354.5 2166,-324.5 2066,-324.5"/>
<text text-anchor="start" x="2074" y="-342.5" font-family="Helvetica,sans-Serif" font-size="10.00">include/Z2AudioLib</text>
<text text-anchor="middle" x="2116" y="-331.5" font-family="Helvetica,sans-Serif" font-size="10.00">/Z2Creature.h</text>
</a>
</g>
</g>
<!-- Node232&#45;&gt;Node233 -->
<g id="edge38" class="edge">
<title>Node232&#45;&gt;Node233</title>
<path fill="none" stroke="midnightblue" d="M2163.13,-389.36C2152.28,-378.11 2139.32,-364.68 2129.74,-354.75"/>
<polygon fill="midnightblue" stroke="midnightblue" points="2160.78,-391.97 2170.24,-396.73 2165.82,-387.11 2160.78,-391.97"/>
</g>
<!-- Node238 -->
<g id="node42" class="node">
<title>Node238</title>
<g id="a_node42"><a xlink:href="Z2WolfHowlMgr_8h.html" target="_top" xlink:title=" ">
<polygon fill="white" stroke="black" points="2202,-324.5 2202,-354.5 2302,-354.5 2302,-324.5 2202,-324.5"/>
<text text-anchor="start" x="2210" y="-342.5" font-family="Helvetica,sans-Serif" font-size="10.00">include/Z2AudioLib</text>
<text text-anchor="middle" x="2252" y="-331.5" font-family="Helvetica,sans-Serif" font-size="10.00">/Z2WolfHowlMgr.h</text>
</a>
</g>
</g>
<!-- Node232&#45;&gt;Node238 -->
<g id="edge49" class="edge">
<title>Node232&#45;&gt;Node238</title>
<path fill="none" stroke="midnightblue" d="M2204.87,-389.36C2215.72,-378.11 2228.68,-364.68 2238.26,-354.75"/>
<polygon fill="midnightblue" stroke="midnightblue" points="2202.18,-387.11 2197.76,-396.73 2207.22,-391.97 2202.18,-387.11"/>
</g>
<!-- Node139 -->
<g id="node44" class="node">
<title>Node139</title>
<g id="a_node44"><a xlink:href="d__bomb_8h.html" target="_top" xlink:title=" ">
<polygon fill="white" stroke="red" points="2398.5,-196 2398.5,-215 2499.5,-215 2499.5,-196 2398.5,-196"/>
<text text-anchor="middle" x="2449" y="-203" font-family="Helvetica,sans-Serif" font-size="10.00">include/d/d_bomb.h</text>
</a>
</g>
</g>
<!-- Node232&#45;&gt;Node139 -->
<g id="edge52" class="edge">
<title>Node232&#45;&gt;Node139</title>
<path fill="none" stroke="midnightblue" d="M2244.48,-405.81C2319.74,-398.29 2442.78,-382.22 2479,-355 2515.86,-327.31 2533.11,-298.49 2513,-257 2503.62,-237.64 2482.81,-223.47 2467.46,-215.15"/>
<polygon fill="midnightblue" stroke="midnightblue" points="2243.8,-402.36 2234.19,-406.81 2244.48,-409.32 2243.8,-402.36"/>
</g>
<!-- Node142 -->
<g id="node45" class="node">
<title>Node142</title>
<g id="a_node45"><a xlink:href="d__a__boomerang_8h.html" target="_top" xlink:title=" ">
<polygon fill="white" stroke="red" points="2320.5,-324.5 2320.5,-354.5 2469.5,-354.5 2469.5,-324.5 2320.5,-324.5"/>
<text text-anchor="start" x="2328.5" y="-342.5" font-family="Helvetica,sans-Serif" font-size="10.00">include/rel/d/a/d_a</text>
<text text-anchor="middle" x="2395" y="-331.5" font-family="Helvetica,sans-Serif" font-size="10.00">_boomerang/d_a_boomerang.h</text>
</a>
</g>
</g>
<!-- Node232&#45;&gt;Node142 -->
<g id="edge54" class="edge">
<title>Node232&#45;&gt;Node142</title>
<path fill="none" stroke="midnightblue" d="M2235.76,-393.7C2271.74,-381.68 2319.09,-365.86 2352.78,-354.61"/>
<polygon fill="midnightblue" stroke="midnightblue" points="2234.31,-390.5 2225.94,-396.99 2236.53,-397.14 2234.31,-390.5"/>
</g>
<!-- Node240 -->
<g id="node46" class="node">
<title>Node240</title>
<g id="a_node46"><a xlink:href="Z2SoundObject_8cpp.html" target="_top" xlink:title=" ">
<polygon fill="white" stroke="black" points="1874.5,-330 1874.5,-349 2047.5,-349 2047.5,-330 1874.5,-330"/>
<text text-anchor="middle" x="1961" y="-337" font-family="Helvetica,sans-Serif" font-size="10.00">libs/Z2AudioLib/Z2SoundObject.cpp</text>
</a>
</g>
</g>
<!-- Node232&#45;&gt;Node240 -->
<g id="edge55" class="edge">
<title>Node232&#45;&gt;Node240</title>
<path fill="none" stroke="midnightblue" d="M2130.09,-393.96C2085.21,-379.77 2023.16,-360.15 1988.06,-349.05"/>
<polygon fill="midnightblue" stroke="midnightblue" points="2129.09,-397.31 2139.68,-396.99 2131.2,-390.64 2129.09,-397.31"/>
</g>
<!-- Node234 -->
<g id="node36" class="node">
<title>Node234</title>
<g id="a_node36"><a xlink:href="Z2SoundObjMgr_8h.html" target="_top" xlink:title=" ">
<polygon fill="white" stroke="red" points="1601,-257.5 1601,-287.5 1701,-287.5 1701,-257.5 1601,-257.5"/>
<text text-anchor="start" x="1609" y="-275.5" font-family="Helvetica,sans-Serif" font-size="10.00">include/Z2AudioLib</text>
<text text-anchor="middle" x="1651" y="-264.5" font-family="Helvetica,sans-Serif" font-size="10.00">/Z2SoundObjMgr.h</text>
</a>
</g>
</g>
<!-- Node233&#45;&gt;Node234 -->
<g id="edge39" class="edge">
<title>Node233&#45;&gt;Node234</title>
<path fill="none" stroke="midnightblue" d="M2055.99,-323.98C1908.21,-298.65 1867.39,-310.27 1723,-288 1715.94,-286.91 1708.53,-285.61 1701.25,-284.23"/>
<polygon fill="midnightblue" stroke="midnightblue" points="2055.43,-327.43 2065.88,-325.7 2056.63,-320.54 2055.43,-327.43"/>
</g>
<!-- Node17 -->
<g id="node37" class="node">
<title>Node17</title>
<g id="a_node37"><a xlink:href="d__a__alink_8h.html" target="_top" xlink:title=" ">
<polygon fill="white" stroke="red" points="2230,-263 2230,-282 2346,-282 2346,-263 2230,-263"/>
<text text-anchor="middle" x="2288" y="-270" font-family="Helvetica,sans-Serif" font-size="10.00">include/d/a/d_a_alink.h</text>
</a>
</g>
</g>
<!-- Node233&#45;&gt;Node17 -->
<g id="edge41" class="edge">
<title>Node233&#45;&gt;Node17</title>
<path fill="none" stroke="midnightblue" d="M2162.88,-320.78C2196.23,-308.18 2239.55,-291.81 2265.49,-282.01"/>
<polygon fill="midnightblue" stroke="midnightblue" points="2161.44,-317.59 2153.32,-324.4 2163.91,-324.13 2161.44,-317.59"/>
</g>
<!-- Node129 -->
<g id="node38" class="node">
<title>Node129</title>
<g id="a_node38"><a xlink:href="d__a__horse_8h.html" target="_top" xlink:title=" ">
<polygon fill="white" stroke="black" points="1731.5,-257.5 1731.5,-287.5 1832.5,-287.5 1832.5,-257.5 1731.5,-257.5"/>
<text text-anchor="start" x="1739.5" y="-275.5" font-family="Helvetica,sans-Serif" font-size="10.00">include/rel/d/a/d_a</text>
<text text-anchor="middle" x="1782" y="-264.5" font-family="Helvetica,sans-Serif" font-size="10.00">_horse/d_a_horse.h</text>
</a>
</g>
</g>
<!-- Node233&#45;&gt;Node129 -->
<g id="edge43" class="edge">
<title>Node233&#45;&gt;Node129</title>
<path fill="none" stroke="midnightblue" d="M2055.77,-323.84C1960.36,-304.6 1933.77,-306.75 1842,-288 1838.96,-287.38 1835.83,-286.71 1832.68,-286.02"/>
<polygon fill="midnightblue" stroke="midnightblue" points="2055.35,-327.33 2065.85,-325.9 2056.75,-320.47 2055.35,-327.33"/>
</g>
<!-- Node130 -->
<g id="node39" class="node">
<title>Node130</title>
<g id="a_node39"><a xlink:href="d__a__e__wb_8h.html" target="_top" xlink:title=" ">
<polygon fill="white" stroke="red" points="2150,-190.5 2150,-220.5 2260,-220.5 2260,-190.5 2150,-190.5"/>
<text text-anchor="start" x="2158" y="-208.5" font-family="Helvetica,sans-Serif" font-size="10.00">include/rel/d/a/e/d</text>
<text text-anchor="middle" x="2205" y="-197.5" font-family="Helvetica,sans-Serif" font-size="10.00">_a_e_wb/d_a_e_wb.h</text>
</a>
</g>
</g>
<!-- Node233&#45;&gt;Node130 -->
<g id="edge46" class="edge">
<title>Node233&#45;&gt;Node130</title>
<path fill="none" stroke="midnightblue" d="M2150.75,-318.88C2162.5,-310.7 2174.73,-300.24 2183,-288 2197.03,-267.24 2202.13,-237.85 2203.98,-220.62"/>
<polygon fill="midnightblue" stroke="midnightblue" points="2148.76,-316 2142.34,-324.42 2152.61,-321.84 2148.76,-316"/>
</g>
<!-- Node236 -->
<g id="node40" class="node">
<title>Node236</title>
<g id="a_node40"><a xlink:href="Z2Creature_8cpp.html" target="_top" xlink:title=" ">
<polygon fill="white" stroke="black" points="1850.5,-263 1850.5,-282 2003.5,-282 2003.5,-263 1850.5,-263"/>
<text text-anchor="middle" x="1927" y="-270" font-family="Helvetica,sans-Serif" font-size="10.00">libs/Z2AudioLib/Z2Creature.cpp</text>
</a>
</g>
</g>
<!-- Node233&#45;&gt;Node236 -->
<g id="edge47" class="edge">
<title>Node233&#45;&gt;Node236</title>
<path fill="none" stroke="midnightblue" d="M2065.43,-321.11C2028.66,-308.46 1980.48,-291.89 1951.74,-282.01"/>
<polygon fill="midnightblue" stroke="midnightblue" points="2064.4,-324.45 2074.99,-324.4 2066.67,-317.83 2064.4,-324.45"/>
</g>
<!-- Node237 -->
<g id="node41" class="node">
<title>Node237</title>
<g id="a_node41"><a xlink:href="Z2LinkMgr_8cpp.html" target="_top" xlink:title=" ">
<polygon fill="white" stroke="black" points="2022,-263 2022,-282 2174,-282 2174,-263 2022,-263"/>
<text text-anchor="middle" x="2098" y="-270" font-family="Helvetica,sans-Serif" font-size="10.00">libs/Z2AudioLib/Z2LinkMgr.cpp</text>
</a>
</g>
</g>
<!-- Node233&#45;&gt;Node237 -->
<g id="edge48" class="edge">
<title>Node233&#45;&gt;Node237</title>
<path fill="none" stroke="midnightblue" d="M2109.38,-314.6C2106.25,-303.28 2102.7,-290.46 2100.41,-282.19"/>
<polygon fill="midnightblue" stroke="midnightblue" points="2106.05,-315.69 2112.09,-324.4 2112.8,-313.82 2106.05,-315.69"/>
</g>
<!-- Node234&#45;&gt;Node13 -->
<g id="edge40" class="edge">
<title>Node234&#45;&gt;Node13</title>
<path fill="none" stroke="midnightblue" d="M1591.08,-255.41C1550.48,-244.5 1497.43,-230.25 1459.08,-219.95"/>
<polygon fill="midnightblue" stroke="midnightblue" points="1590.29,-258.82 1600.86,-258.03 1592.11,-252.06 1590.29,-258.82"/>
</g>
<!-- Node17&#45;&gt;Node28 -->
<g id="edge42" class="edge">
<title>Node17&#45;&gt;Node28</title>
<path fill="none" stroke="midnightblue" d="M2284.96,-252.59C2281.94,-235.82 2276.66,-210.83 2269,-190 2245.89,-127.13 2235.25,-112.96 2200,-56 2191.84,-42.82 2180.99,-28.54 2174,-19.68"/>
<polygon fill="midnightblue" stroke="midnightblue" points="2281.56,-253.46 2286.69,-262.73 2288.46,-252.28 2281.56,-253.46"/>
</g>
<!-- Node129&#45;&gt;Node28 -->
<g id="edge45" class="edge">
<title>Node129&#45;&gt;Node28</title>
<path fill="none" stroke="midnightblue" d="M1830.31,-253.86C1921.23,-219.69 2112.36,-142.93 2154,-87 2169.03,-66.81 2168.99,-35.29 2167.92,-19.97"/>
<polygon fill="midnightblue" stroke="midnightblue" points="1828.93,-250.64 1820.79,-257.42 1831.38,-257.2 1828.93,-250.64"/>
</g>
<!-- Node129&#45;&gt;Node130 -->
<g id="edge44" class="edge">
<title>Node129&#45;&gt;Node130</title>
<path fill="none" stroke="midnightblue" d="M1842.64,-257.03C1973.27,-233.92 2009.3,-242.03 2136,-221 2140.47,-220.26 2145.09,-219.43 2149.72,-218.55"/>
<polygon fill="midnightblue" stroke="midnightblue" points="1841.88,-253.61 1832.65,-258.82 1843.11,-260.5 1841.88,-253.61"/>
</g>
<!-- Node238&#45;&gt;Node17 -->
<g id="edge50" class="edge">
<title>Node238&#45;&gt;Node17</title>
<path fill="none" stroke="midnightblue" d="M2264.67,-315.63C2271.07,-304.07 2278.47,-290.71 2283.18,-282.19"/>
<polygon fill="midnightblue" stroke="midnightblue" points="2261.59,-313.95 2259.81,-324.4 2267.72,-317.34 2261.59,-313.95"/>
</g>
<!-- Node239 -->
<g id="node43" class="node">
<title>Node239</title>
<g id="a_node43"><a xlink:href="Z2WolfHowlMgr_8cpp.html" target="_top" xlink:title=" ">
<polygon fill="white" stroke="black" points="2364,-257.5 2364,-287.5 2504,-287.5 2504,-257.5 2364,-257.5"/>
<text text-anchor="start" x="2372" y="-275.5" font-family="Helvetica,sans-Serif" font-size="10.00">libs/Z2AudioLib/Z2WolfHowl</text>
<text text-anchor="middle" x="2434" y="-264.5" font-family="Helvetica,sans-Serif" font-size="10.00">Mgr.cpp</text>
</a>
</g>
</g>
<!-- Node238&#45;&gt;Node239 -->
<g id="edge51" class="edge">
<title>Node238&#45;&gt;Node239</title>
<path fill="none" stroke="midnightblue" d="M2301.13,-320.96C2330.44,-310.48 2367.18,-297.37 2394.59,-287.58"/>
<polygon fill="midnightblue" stroke="midnightblue" points="2299.73,-317.74 2291.49,-324.4 2302.09,-324.33 2299.73,-317.74"/>
</g>
<!-- Node139&#45;&gt;Node28 -->
<g id="edge53" class="edge">
<title>Node139&#45;&gt;Node28</title>
<path fill="none" stroke="midnightblue" d="M2436.51,-187.38C2413.33,-156.77 2360.64,-92.44 2302,-56 2273.25,-38.13 2236.61,-26.5 2208.76,-19.55"/>
<polygon fill="midnightblue" stroke="midnightblue" points="2433.95,-189.81 2442.73,-195.73 2439.57,-185.62 2433.95,-189.81"/>
</g>
<!-- Node241&#45;&gt;Node13 -->
<g id="edge57" class="edge">
<title>Node241&#45;&gt;Node13</title>
<path fill="none" stroke="midnightblue" d="M1459.01,-387.27C1455.4,-377.36 1451.31,-365.69 1448,-355 1432.88,-306.11 1418.5,-247.02 1412.26,-220.54"/>
<polygon fill="midnightblue" stroke="midnightblue" points="1455.81,-388.68 1462.56,-396.84 1462.37,-386.25 1455.81,-388.68"/>
</g>
<!-- Node242 -->
<g id="node48" class="node">
<title>Node242</title>
<g id="a_node48"><a xlink:href="Z2SpeechMgr2_8cpp.html" target="_top" xlink:title=" ">
<polygon fill="white" stroke="black" points="1456.5,-324.5 1456.5,-354.5 1587.5,-354.5 1587.5,-324.5 1456.5,-324.5"/>
<text text-anchor="start" x="1464.5" y="-342.5" font-family="Helvetica,sans-Serif" font-size="10.00">libs/Z2AudioLib/Z2Speech</text>
<text text-anchor="middle" x="1522" y="-331.5" font-family="Helvetica,sans-Serif" font-size="10.00">Mgr2.cpp</text>
</a>
</g>
</g>
<!-- Node241&#45;&gt;Node242 -->
<g id="edge58" class="edge">
<title>Node241&#45;&gt;Node242</title>
<path fill="none" stroke="midnightblue" d="M1485.07,-388.71C1493.58,-377.6 1503.63,-364.49 1511.09,-354.75"/>
<polygon fill="midnightblue" stroke="midnightblue" points="1482.23,-386.67 1478.93,-396.73 1487.79,-390.92 1482.23,-386.67"/>
</g>
</g>
</svg>
