<?xml version="1.0" encoding="UTF-8" standalone="no"?>
<!DOCTYPE svg PUBLIC "-//W3C//DTD SVG 1.1//EN"
 "http://www.w3.org/Graphics/SVG/1.1/DTD/svg11.dtd">
<!-- Generated by graphviz version 2.50.0 (20220203.2022)
 -->
<!-- Title: include/JSystem/JAudio2/JAISeqDataMgr.h Pages: 1 -->
<svg width="1024pt" height="374pt"
 viewBox="0.00 0.00 1024.00 374.00" xmlns="http://www.w3.org/2000/svg" xmlns:xlink="http://www.w3.org/1999/xlink">
<g id="graph0" class="graph" transform="scale(1 1) rotate(0) translate(4 370)">
<title>include/JSystem/JAudio2/JAISeqDataMgr.h</title>
<polygon fill="white" stroke="transparent" points="-4,4 -4,-370 1020,-370 1020,4 -4,4"/>
<!-- Node1 -->
<g id="node1" class="node">
<title>Node1</title>
<g id="a_node1"><a xlink:title=" ">
<polygon fill="#bfbfbf" stroke="black" points="675,-335.5 675,-365.5 802,-365.5 802,-335.5 675,-335.5"/>
<text text-anchor="start" x="683" y="-353.5" font-family="Helvetica,sans-Serif" font-size="10.00">include/JSystem/JAudio2</text>
<text text-anchor="middle" x="738.5" y="-342.5" font-family="Helvetica,sans-Serif" font-size="10.00">/JAISeqDataMgr.h</text>
</a>
</g>
</g>
<!-- Node2 -->
<g id="node2" class="node">
<title>Node2</title>
<g id="a_node2"><a xlink:href="JAISeMgr_8h.html" target="_top" xlink:title=" ">
<polygon fill="white" stroke="black" points="530,-268.5 530,-298.5 657,-298.5 657,-268.5 530,-268.5"/>
<text text-anchor="start" x="538" y="-286.5" font-family="Helvetica,sans-Serif" font-size="10.00">include/JSystem/JAudio2</text>
<text text-anchor="middle" x="593.5" y="-275.5" font-family="Helvetica,sans-Serif" font-size="10.00">/JAISeMgr.h</text>
</a>
</g>
</g>
<!-- Node1&#45;&gt;Node2 -->
<g id="edge1" class="edge">
<title>Node1&#45;&gt;Node2</title>
<path fill="none" stroke="midnightblue" d="M697.83,-331.27C674.74,-320.92 646.26,-308.15 624.9,-298.58"/>
<polygon fill="midnightblue" stroke="midnightblue" points="696.48,-334.5 707.04,-335.4 699.34,-328.11 696.48,-334.5"/>
</g>
<!-- Node18 -->
<g id="node18" class="node">
<title>Node18</title>
<g id="a_node18"><a xlink:href="JAISeqMgr_8h.html" target="_top" xlink:title=" ">
<polygon fill="white" stroke="black" points="675,-268.5 675,-298.5 802,-298.5 802,-268.5 675,-268.5"/>
<text text-anchor="start" x="683" y="-286.5" font-family="Helvetica,sans-Serif" font-size="10.00">include/JSystem/JAudio2</text>
<text text-anchor="middle" x="738.5" y="-275.5" font-family="Helvetica,sans-Serif" font-size="10.00">/JAISeqMgr.h</text>
</a>
</g>
</g>
<!-- Node1&#45;&gt;Node18 -->
<g id="edge18" class="edge">
<title>Node1&#45;&gt;Node18</title>
<path fill="none" stroke="midnightblue" d="M738.5,-325.11C738.5,-316.15 738.5,-306.32 738.5,-298.58"/>
<polygon fill="midnightblue" stroke="midnightblue" points="735,-325.4 738.5,-335.4 742,-325.4 735,-325.4"/>
</g>
<!-- Node20 -->
<g id="node20" class="node">
<title>Node20</title>
<g id="a_node20"><a xlink:href="JAISeqDataMgr_8cpp.html" target="_top" xlink:title=" ">
<polygon fill="white" stroke="black" points="820,-268.5 820,-298.5 931,-298.5 931,-268.5 820,-268.5"/>
<text text-anchor="start" x="828" y="-286.5" font-family="Helvetica,sans-Serif" font-size="10.00">libs/JSystem/JAudio2</text>
<text text-anchor="middle" x="875.5" y="-275.5" font-family="Helvetica,sans-Serif" font-size="10.00">/JAISeqDataMgr.cpp</text>
</a>
</g>
</g>
<!-- Node1&#45;&gt;Node20 -->
<g id="edge21" class="edge">
<title>Node1&#45;&gt;Node20</title>
<path fill="none" stroke="midnightblue" d="M777.51,-330.99C799.22,-320.69 825.83,-308.07 845.83,-298.58"/>
<polygon fill="midnightblue" stroke="midnightblue" points="775.76,-327.95 768.23,-335.4 778.76,-334.27 775.76,-327.95"/>
</g>
<!-- Node3 -->
<g id="node3" class="node">
<title>Node3</title>
<g id="a_node3"><a xlink:href="Z2SoundMgr_8h.html" target="_top" xlink:title=" ">
<polygon fill="white" stroke="black" points="616.5,-201.5 616.5,-231.5 716.5,-231.5 716.5,-201.5 616.5,-201.5"/>
<text text-anchor="start" x="624.5" y="-219.5" font-family="Helvetica,sans-Serif" font-size="10.00">include/Z2AudioLib</text>
<text text-anchor="middle" x="666.5" y="-208.5" font-family="Helvetica,sans-Serif" font-size="10.00">/Z2SoundMgr.h</text>
</a>
</g>
</g>
<!-- Node2&#45;&gt;Node3 -->
<g id="edge2" class="edge">
<title>Node2&#45;&gt;Node3</title>
<path fill="none" stroke="midnightblue" d="M616.97,-261.6C628,-251.78 640.84,-240.34 650.69,-231.58"/>
<polygon fill="midnightblue" stroke="midnightblue" points="614.48,-259.13 609.34,-268.4 619.14,-264.36 614.48,-259.13"/>
</g>
<!-- Node17 -->
<g id="node17" class="node">
<title>Node17</title>
<g id="a_node17"><a xlink:href="JAISeMgr_8cpp.html" target="_top" xlink:title=" ">
<polygon fill="white" stroke="black" points="487,-201.5 487,-231.5 598,-231.5 598,-201.5 487,-201.5"/>
<text text-anchor="start" x="495" y="-219.5" font-family="Helvetica,sans-Serif" font-size="10.00">libs/JSystem/JAudio2</text>
<text text-anchor="middle" x="542.5" y="-208.5" font-family="Helvetica,sans-Serif" font-size="10.00">/JAISeMgr.cpp</text>
</a>
</g>
</g>
<!-- Node2&#45;&gt;Node17 -->
<g id="edge17" class="edge">
<title>Node2&#45;&gt;Node17</title>
<path fill="none" stroke="midnightblue" d="M576.2,-260.45C568.71,-250.9 560.16,-240 553.54,-231.58"/>
<polygon fill="midnightblue" stroke="midnightblue" points="573.51,-262.69 582.43,-268.4 579.01,-258.37 573.51,-262.69"/>
</g>
<!-- Node4 -->
<g id="node4" class="node">
<title>Node4</title>
<g id="a_node4"><a xlink:href="Z2AudioMgr_8h.html" target="_top" xlink:title=" ">
<polygon fill="white" stroke="black" points="542.5,-134.5 542.5,-164.5 642.5,-164.5 642.5,-134.5 542.5,-134.5"/>
<text text-anchor="start" x="550.5" y="-152.5" font-family="Helvetica,sans-Serif" font-size="10.00">include/Z2AudioLib</text>
<text text-anchor="middle" x="592.5" y="-141.5" font-family="Helvetica,sans-Serif" font-size="10.00">/Z2AudioMgr.h</text>
</a>
</g>
</g>
<!-- Node3&#45;&gt;Node4 -->
<g id="edge3" class="edge">
<title>Node3&#45;&gt;Node4</title>
<path fill="none" stroke="midnightblue" d="M642.7,-194.6C631.53,-184.78 618.51,-173.34 608.53,-164.58"/>
<polygon fill="midnightblue" stroke="midnightblue" points="640.62,-197.43 650.44,-201.4 645.24,-192.17 640.62,-197.43"/>
</g>
<!-- Node16 -->
<g id="node16" class="node">
<title>Node16</title>
<g id="a_node16"><a xlink:href="Z2SoundMgr_8cpp.html" target="_top" xlink:title=" ">
<polygon fill="white" stroke="black" points="661,-140 661,-159 822,-159 822,-140 661,-140"/>
<text text-anchor="middle" x="741.5" y="-147" font-family="Helvetica,sans-Serif" font-size="10.00">libs/Z2AudioLib/Z2SoundMgr.cpp</text>
</a>
</g>
</g>
<!-- Node3&#45;&gt;Node16 -->
<g id="edge16" class="edge">
<title>Node3&#45;&gt;Node16</title>
<path fill="none" stroke="midnightblue" d="M690.53,-194.67C704.38,-182.67 721.05,-168.22 731.47,-159.19"/>
<polygon fill="midnightblue" stroke="midnightblue" points="688.04,-192.2 682.77,-201.4 692.62,-197.49 688.04,-192.2"/>
</g>
<!-- Node5 -->
<g id="node5" class="node">
<title>Node5</title>
<g id="a_node5"><a xlink:href="m__Do__audio_8h.html" target="_top" xlink:title=" ">
<polygon fill="white" stroke="black" points="267.5,-73 267.5,-92 407.5,-92 407.5,-73 267.5,-73"/>
<text text-anchor="middle" x="337.5" y="-80" font-family="Helvetica,sans-Serif" font-size="10.00">include/m_Do/m_Do_audio.h</text>
</a>
</g>
</g>
<!-- Node4&#45;&gt;Node5 -->
<g id="edge4" class="edge">
<title>Node4&#45;&gt;Node5</title>
<path fill="none" stroke="midnightblue" d="M532.64,-133.24C482.33,-120.42 412.24,-102.55 371.19,-92.09"/>
<polygon fill="midnightblue" stroke="midnightblue" points="531.87,-136.66 542.42,-135.74 533.6,-129.87 531.87,-136.66"/>
</g>
<!-- Node6 -->
<g id="node6" class="node">
<title>Node6</title>
<g id="a_node6"><a xlink:href="d__a__alink_8cpp.html" target="_top" xlink:title=" ">
<polygon fill="white" stroke="black" points="0,-6 0,-25 109,-25 109,-6 0,-6"/>
<text text-anchor="middle" x="54.5" y="-13" font-family="Helvetica,sans-Serif" font-size="10.00">src/d/a/d_a_alink.cpp</text>
</a>
</g>
</g>
<!-- Node4&#45;&gt;Node6 -->
<g id="edge12" class="edge">
<title>Node4&#45;&gt;Node6</title>
<path fill="none" stroke="midnightblue" d="M532.2,-143.59C464.65,-137.12 352.3,-123.46 258.5,-98 187.1,-78.62 106.76,-41.81 72.04,-25.11"/>
<polygon fill="midnightblue" stroke="midnightblue" points="531.96,-147.08 542.24,-144.53 532.61,-140.11 531.96,-147.08"/>
</g>
<!-- Node12 -->
<g id="node12" class="node">
<title>Node12</title>
<g id="a_node12"><a xlink:href="Z2AudioMgr_8cpp.html" target="_top" xlink:title=" ">
<polygon fill="white" stroke="black" points="425.5,-73 425.5,-92 583.5,-92 583.5,-73 425.5,-73"/>
<text text-anchor="middle" x="504.5" y="-80" font-family="Helvetica,sans-Serif" font-size="10.00">libs/Z2AudioLib/Z2AudioMgr.cpp</text>
</a>
</g>
</g>
<!-- Node4&#45;&gt;Node12 -->
<g id="edge11" class="edge">
<title>Node4&#45;&gt;Node12</title>
<path fill="none" stroke="midnightblue" d="M565.16,-128.31C548.64,-116.1 528.43,-101.18 516.02,-92.01"/>
<polygon fill="midnightblue" stroke="midnightblue" points="563.28,-131.27 573.41,-134.4 567.44,-125.64 563.28,-131.27"/>
</g>
<!-- Node13 -->
<g id="node13" class="node">
<title>Node13</title>
<g id="a_node13"><a xlink:href="d__menu__window_8cpp.html" target="_top" xlink:title=" ">
<polygon fill="white" stroke="black" points="601,-73 601,-92 760,-92 760,-73 601,-73"/>
<text text-anchor="middle" x="680.5" y="-80" font-family="Helvetica,sans-Serif" font-size="10.00">src/d/menu/d_menu_window.cpp</text>
</a>
</g>
</g>
<!-- Node4&#45;&gt;Node13 -->
<g id="edge13" class="edge">
<title>Node4&#45;&gt;Node13</title>
<path fill="none" stroke="midnightblue" d="M619.84,-128.31C636.36,-116.1 656.57,-101.18 668.98,-92.01"/>
<polygon fill="midnightblue" stroke="midnightblue" points="617.56,-125.64 611.59,-134.4 621.72,-131.27 617.56,-125.64"/>
</g>
<!-- Node14 -->
<g id="node14" class="node">
<title>Node14</title>
<g id="a_node14"><a xlink:href="d__meter__map_8cpp.html" target="_top" xlink:title=" ">
<polygon fill="white" stroke="black" points="778.5,-67.5 778.5,-97.5 882.5,-97.5 882.5,-67.5 778.5,-67.5"/>
<text text-anchor="start" x="786.5" y="-85.5" font-family="Helvetica,sans-Serif" font-size="10.00">src/d/meter/d_meter</text>
<text text-anchor="middle" x="830.5" y="-74.5" font-family="Helvetica,sans-Serif" font-size="10.00">_map.cpp</text>
</a>
</g>
</g>
<!-- Node4&#45;&gt;Node14 -->
<g id="edge14" class="edge">
<title>Node4&#45;&gt;Node14</title>
<path fill="none" stroke="midnightblue" d="M652.36,-132.15C691.43,-121.48 741.91,-107.69 779.15,-97.52"/>
<polygon fill="midnightblue" stroke="midnightblue" points="651.41,-128.78 642.68,-134.79 653.25,-135.54 651.41,-128.78"/>
</g>
<!-- Node15 -->
<g id="node15" class="node">
<title>Node15</title>
<g id="a_node15"><a xlink:href="d__save_8cpp.html" target="_top" xlink:title=" ">
<polygon fill="white" stroke="black" points="901,-73 901,-92 1016,-92 1016,-73 901,-73"/>
<text text-anchor="middle" x="958.5" y="-80" font-family="Helvetica,sans-Serif" font-size="10.00">src/d/save/d_save.cpp</text>
</a>
</g>
</g>
<!-- Node4&#45;&gt;Node15 -->
<g id="edge15" class="edge">
<title>Node4&#45;&gt;Node15</title>
<path fill="none" stroke="midnightblue" d="M652.5,-133.91C759.03,-113.34 788.51,-116.85 891.5,-98 901.1,-96.24 911.42,-94.12 921.02,-92.06"/>
<polygon fill="midnightblue" stroke="midnightblue" points="651.78,-130.49 642.64,-135.84 653.13,-137.36 651.78,-130.49"/>
</g>
<!-- Node5&#45;&gt;Node6 -->
<g id="edge5" class="edge">
<title>Node5&#45;&gt;Node6</title>
<path fill="none" stroke="midnightblue" d="M290.23,-70.64C234.48,-57.84 142.92,-36.81 91.87,-25.08"/>
<polygon fill="midnightblue" stroke="midnightblue" points="289.68,-74.11 300.21,-72.94 291.25,-67.29 289.68,-74.11"/>
</g>
<!-- Node7 -->
<g id="node7" class="node">
<title>Node7</title>
<g id="a_node7"><a xlink:href="d__kankyo_8cpp.html" target="_top" xlink:title=" ">
<polygon fill="white" stroke="black" points="127.5,-6 127.5,-25 261.5,-25 261.5,-6 127.5,-6"/>
<text text-anchor="middle" x="194.5" y="-13" font-family="Helvetica,sans-Serif" font-size="10.00">src/d/kankyo/d_kankyo.cpp</text>
</a>
</g>
</g>
<!-- Node5&#45;&gt;Node7 -->
<g id="edge6" class="edge">
<title>Node5&#45;&gt;Node7</title>
<path fill="none" stroke="midnightblue" d="M309.15,-68.61C280.83,-55.74 238.07,-36.31 213.57,-25.17"/>
<polygon fill="midnightblue" stroke="midnightblue" points="307.96,-71.92 318.51,-72.87 310.86,-65.54 307.96,-71.92"/>
</g>
<!-- Node8 -->
<g id="node8" class="node">
<title>Node8</title>
<g id="a_node8"><a xlink:href="d__kankyo__wether_8cpp.html" target="_top" xlink:title=" ">
<polygon fill="white" stroke="black" points="279.5,-0.5 279.5,-30.5 395.5,-30.5 395.5,-0.5 279.5,-0.5"/>
<text text-anchor="start" x="287.5" y="-18.5" font-family="Helvetica,sans-Serif" font-size="10.00">src/d/kankyo/d_kankyo</text>
<text text-anchor="middle" x="337.5" y="-7.5" font-family="Helvetica,sans-Serif" font-size="10.00">_wether.cpp</text>
</a>
</g>
</g>
<!-- Node5&#45;&gt;Node8 -->
<g id="edge7" class="edge">
<title>Node5&#45;&gt;Node8</title>
<path fill="none" stroke="midnightblue" d="M337.5,-62.41C337.5,-52.22 337.5,-39.9 337.5,-30.59"/>
<polygon fill="midnightblue" stroke="midnightblue" points="334,-62.73 337.5,-72.73 341,-62.73 334,-62.73"/>
</g>
<!-- Node9 -->
<g id="node9" class="node">
<title>Node9</title>
<g id="a_node9"><a xlink:href="d__meter2_8cpp.html" target="_top" xlink:title=" ">
<polygon fill="white" stroke="black" points="413.5,-6 413.5,-25 541.5,-25 541.5,-6 413.5,-6"/>
<text text-anchor="middle" x="477.5" y="-13" font-family="Helvetica,sans-Serif" font-size="10.00">src/d/meter/d_meter2.cpp</text>
</a>
</g>
</g>
<!-- Node5&#45;&gt;Node9 -->
<g id="edge8" class="edge">
<title>Node5&#45;&gt;Node9</title>
<path fill="none" stroke="midnightblue" d="M365.26,-68.61C392.99,-55.74 434.84,-36.31 458.83,-25.17"/>
<polygon fill="midnightblue" stroke="midnightblue" points="363.69,-65.48 356.09,-72.87 366.63,-71.83 363.69,-65.48"/>
</g>
<!-- Node10 -->
<g id="node10" class="node">
<title>Node10</title>
<g id="a_node10"><a xlink:href="d__s__play_8cpp.html" target="_top" xlink:title=" ">
<polygon fill="white" stroke="black" points="559.5,-6 559.5,-25 665.5,-25 665.5,-6 559.5,-6"/>
<text text-anchor="middle" x="612.5" y="-13" font-family="Helvetica,sans-Serif" font-size="10.00">src/d/s/d_s_play.cpp</text>
</a>
</g>
</g>
<!-- Node5&#45;&gt;Node10 -->
<g id="edge9" class="edge">
<title>Node5&#45;&gt;Node10</title>
<path fill="none" stroke="midnightblue" d="M383.77,-70.56C437.98,-57.75 526.68,-36.78 576.19,-25.08"/>
<polygon fill="midnightblue" stroke="midnightblue" points="382.66,-67.23 373.73,-72.94 384.27,-74.04 382.66,-67.23"/>
</g>
<!-- Node11 -->
<g id="node11" class="node">
<title>Node11</title>
<g id="a_node11"><a xlink:href="m__Do__audio_8cpp.html" target="_top" xlink:title=" ">
<polygon fill="white" stroke="black" points="683.5,-6 683.5,-25 817.5,-25 817.5,-6 683.5,-6"/>
<text text-anchor="middle" x="750.5" y="-13" font-family="Helvetica,sans-Serif" font-size="10.00">src/m_Do/m_Do_audio.cpp</text>
</a>
</g>
</g>
<!-- Node5&#45;&gt;Node11 -->
<g id="edge10" class="edge">
<title>Node5&#45;&gt;Node11</title>
<path fill="none" stroke="midnightblue" d="M392.02,-71.18C400.21,-69.72 408.57,-68.28 416.5,-67 530.8,-48.55 560.27,-49.85 674.5,-31 685.37,-29.21 697.07,-27.07 707.96,-25"/>
<polygon fill="midnightblue" stroke="midnightblue" points="391.37,-67.74 382.15,-72.96 392.61,-74.63 391.37,-67.74"/>
</g>
<!-- Node18&#45;&gt;Node3 -->
<g id="edge19" class="edge">
<title>Node18&#45;&gt;Node3</title>
<path fill="none" stroke="midnightblue" d="M715.35,-261.6C704.48,-251.78 691.8,-240.34 682.09,-231.58"/>
<polygon fill="midnightblue" stroke="midnightblue" points="713.11,-264.29 722.88,-268.4 717.8,-259.1 713.11,-264.29"/>
</g>
<!-- Node19 -->
<g id="node19" class="node">
<title>Node19</title>
<g id="a_node19"><a xlink:href="JAISeqMgr_8cpp.html" target="_top" xlink:title=" ">
<polygon fill="white" stroke="black" points="735,-201.5 735,-231.5 846,-231.5 846,-201.5 735,-201.5"/>
<text text-anchor="start" x="743" y="-219.5" font-family="Helvetica,sans-Serif" font-size="10.00">libs/JSystem/JAudio2</text>
<text text-anchor="middle" x="790.5" y="-208.5" font-family="Helvetica,sans-Serif" font-size="10.00">/JAISeqMgr.cpp</text>
</a>
</g>
</g>
<!-- Node18&#45;&gt;Node19 -->
<g id="edge20" class="edge">
<title>Node18&#45;&gt;Node19</title>
<path fill="none" stroke="midnightblue" d="M756.14,-260.45C763.78,-250.9 772.5,-240 779.24,-231.58"/>
<polygon fill="midnightblue" stroke="midnightblue" points="753.3,-258.4 749.78,-268.4 758.76,-262.77 753.3,-258.4"/>
</g>
</g>
</svg>
