<?xml version="1.0" encoding="UTF-8" standalone="no"?>
<!DOCTYPE svg PUBLIC "-//W3C//DTD SVG 1.1//EN"
 "http://www.w3.org/Graphics/SVG/1.1/DTD/svg11.dtd">
<!-- Generated by graphviz version 3.0.0 (20220413.0242)
 -->
<!-- Title: libs/JSystem/JAudio2/JASDvdThread.cpp Pages: 1 -->
<svg width="916pt" height="464pt"
 viewBox="0.00 0.00 915.81 464.00" xmlns="http://www.w3.org/2000/svg" xmlns:xlink="http://www.w3.org/1999/xlink">
<g id="graph0" class="graph" transform="scale(1 1) rotate(0) translate(4 460)">
<title>libs/JSystem/JAudio2/JASDvdThread.cpp</title>
<polygon fill="white" stroke="transparent" points="-4,4 -4,-460 911.81,-460 911.81,4 -4,4"/>
<!-- Node1 -->
<g id="node1" class="node">
<title>Node1</title>
<g id="a_node1"><a xlink:title=" ">
<polygon fill="#bfbfbf" stroke="black" points="590.31,-425.5 590.31,-455.5 701.31,-455.5 701.31,-425.5 590.31,-425.5"/>
<text text-anchor="start" x="598.31" y="-443.5" font-family="Helvetica,sans-Serif" font-size="10.00">libs/JSystem/JAudio2</text>
<text text-anchor="middle" x="645.81" y="-432.5" font-family="Helvetica,sans-Serif" font-size="10.00">/JASDvdThread.cpp</text>
</a>
</g>
</g>
<!-- Node2 -->
<g id="node2" class="node">
<title>Node2</title>
<g id="a_node2"><a xlink:href="JASDvdThread_8h.html" target="_top" xlink:title=" ">
<polygon fill="white" stroke="black" points="493.81,-358.5 493.81,-377.5 663.81,-377.5 663.81,-358.5 493.81,-358.5"/>
<text text-anchor="middle" x="578.81" y="-365.5" font-family="Helvetica,sans-Serif" font-size="10.00">JSystem/JAudio2/JASDvdThread.h</text>
</a>
</g>
</g>
<!-- Node1&#45;&gt;Node2 -->
<g id="edge1" class="edge">
<title>Node1&#45;&gt;Node2</title>
<path fill="none" stroke="midnightblue" d="M632.25,-425.23C621.31,-413.73 605.92,-397.53 594.46,-385.47"/>
<polygon fill="midnightblue" stroke="midnightblue" points="596.68,-382.73 587.26,-377.89 591.61,-387.55 596.68,-382.73"/>
</g>
<!-- Node7 -->
<g id="node7" class="node">
<title>Node7</title>
<g id="a_node7"><a xlink:href="types_8h.html" target="_top" xlink:title=" ">
<polygon fill="white" stroke="black" points="388.31,-0.5 388.31,-19.5 469.31,-19.5 469.31,-0.5 388.31,-0.5"/>
<text text-anchor="middle" x="428.81" y="-7.5" font-family="Helvetica,sans-Serif" font-size="10.00">dolphin/types.h</text>
</a>
</g>
</g>
<!-- Node1&#45;&gt;Node7 -->
<g id="edge27" class="edge">
<title>Node1&#45;&gt;Node7</title>
<path fill="none" stroke="midnightblue" d="M590.06,-439.39C433.62,-437.61 1.81,-421.83 1.81,-302 1.81,-302 1.81,-302 1.81,-132 1.81,-97.18 -5.42,-78.9 20.81,-56 47.24,-32.92 274.57,-18.71 377.97,-13.39"/>
<polygon fill="midnightblue" stroke="midnightblue" points="378.36,-16.88 388.17,-12.87 378.01,-9.89 378.36,-16.88"/>
</g>
<!-- Node14 -->
<g id="node14" class="node">
<title>Node14</title>
<g id="a_node14"><a xlink:href="dol2asm_8h.html" target="_top" xlink:title=" ">
<polygon fill="white" stroke="black" points="682.31,-358.5 682.31,-377.5 743.31,-377.5 743.31,-358.5 682.31,-358.5"/>
<text text-anchor="middle" x="712.81" y="-365.5" font-family="Helvetica,sans-Serif" font-size="10.00">dol2asm.h</text>
</a>
</g>
</g>
<!-- Node1&#45;&gt;Node14 -->
<g id="edge26" class="edge">
<title>Node1&#45;&gt;Node14</title>
<path fill="none" stroke="midnightblue" d="M659.36,-425.23C670.3,-413.73 685.69,-397.53 697.15,-385.47"/>
<polygon fill="midnightblue" stroke="midnightblue" points="700,-387.55 704.35,-377.89 694.93,-382.73 700,-387.55"/>
</g>
<!-- Node15 -->
<g id="node15" class="node">
<title>Node15</title>
<g id="a_node15"><a xlink:title=" ">
<polygon fill="white" stroke="#bfbfbf" points="761.81,-347.5 761.81,-388.5 907.81,-388.5 907.81,-347.5 761.81,-347.5"/>
<text text-anchor="start" x="769.81" y="-376.5" font-family="Helvetica,sans-Serif" font-size="10.00">asm/JSystem/JAudio2</text>
<text text-anchor="start" x="769.81" y="-365.5" font-family="Helvetica,sans-Serif" font-size="10.00">/JASDvdThread/createThread</text>
<text text-anchor="middle" x="834.81" y="-354.5" font-family="Helvetica,sans-Serif" font-size="10.00">__6JASDvdFliUl.s</text>
</a>
</g>
</g>
<!-- Node1&#45;&gt;Node15 -->
<g id="edge28" class="edge">
<title>Node1&#45;&gt;Node15</title>
<path fill="none" stroke="midnightblue" d="M683.6,-425.4C709.16,-415.87 743.52,-403.05 773.02,-392.05"/>
<polygon fill="midnightblue" stroke="midnightblue" points="774.26,-395.32 782.41,-388.55 771.81,-388.76 774.26,-395.32"/>
</g>
<!-- Node3 -->
<g id="node3" class="node">
<title>Node3</title>
<g id="a_node3"><a xlink:href="JASTaskThread_8h.html" target="_top" xlink:title=" ">
<polygon fill="white" stroke="black" points="491.81,-291.5 491.81,-310.5 665.81,-310.5 665.81,-291.5 491.81,-291.5"/>
<text text-anchor="middle" x="578.81" y="-298.5" font-family="Helvetica,sans-Serif" font-size="10.00">JSystem/JAudio2/JASTaskThread.h</text>
</a>
</g>
</g>
<!-- Node2&#45;&gt;Node3 -->
<g id="edge2" class="edge">
<title>Node2&#45;&gt;Node3</title>
<path fill="none" stroke="midnightblue" d="M578.81,-358.23C578.81,-348.68 578.81,-333.12 578.81,-320.78"/>
<polygon fill="midnightblue" stroke="midnightblue" points="582.31,-320.63 578.81,-310.63 575.31,-320.63 582.31,-320.63"/>
</g>
<!-- Node2&#45;&gt;Node7 -->
<g id="edge25" class="edge">
<title>Node2&#45;&gt;Node7</title>
<path fill="none" stroke="midnightblue" d="M607.55,-358.48C682.09,-335.99 875.81,-274.78 875.81,-246 875.81,-246 875.81,-246 875.81,-132 875.81,-91.81 860.96,-77.19 826.81,-56 769.93,-20.71 573.48,-13.05 479.58,-11.42"/>
<polygon fill="midnightblue" stroke="midnightblue" points="479.51,-7.92 469.46,-11.26 479.4,-14.92 479.51,-7.92"/>
</g>
<!-- Node4 -->
<g id="node4" class="node">
<title>Node4</title>
<g id="a_node4"><a xlink:href="JKRThread_8h.html" target="_top" xlink:title=" ">
<polygon fill="white" stroke="black" points="272.81,-235.5 272.81,-254.5 422.81,-254.5 422.81,-235.5 272.81,-235.5"/>
<text text-anchor="middle" x="347.81" y="-242.5" font-family="Helvetica,sans-Serif" font-size="10.00">JSystem/JKernel/JKRThread.h</text>
</a>
</g>
</g>
<!-- Node3&#45;&gt;Node4 -->
<g id="edge3" class="edge">
<title>Node3&#45;&gt;Node4</title>
<path fill="none" stroke="midnightblue" d="M542.2,-291.44C502.08,-282.06 437.61,-266.99 394.02,-256.8"/>
<polygon fill="midnightblue" stroke="midnightblue" points="394.77,-253.38 384.24,-254.52 393.18,-260.2 394.77,-253.38"/>
</g>
<!-- Node3&#45;&gt;Node7 -->
<g id="edge24" class="edge">
<title>Node3&#45;&gt;Node7</title>
<path fill="none" stroke="midnightblue" d="M666.13,-297.68C741.32,-290.46 837.81,-266.33 837.81,-190 837.81,-190 837.81,-190 837.81,-132 837.81,-93.83 829.23,-77.67 797.81,-56 747.34,-21.19 568.56,-13.26 479.71,-11.49"/>
<polygon fill="midnightblue" stroke="midnightblue" points="479.65,-7.99 469.59,-11.31 479.52,-14.99 479.65,-7.99"/>
</g>
<!-- Node5 -->
<g id="node5" class="node">
<title>Node5</title>
<g id="a_node5"><a xlink:href="JKRDisposer_8h.html" target="_top" xlink:title=" ">
<polygon fill="white" stroke="black" points="111.81,-123.5 111.81,-142.5 269.81,-142.5 269.81,-123.5 111.81,-123.5"/>
<text text-anchor="middle" x="190.81" y="-130.5" font-family="Helvetica,sans-Serif" font-size="10.00">JSystem/JKernel/JKRDisposer.h</text>
</a>
</g>
</g>
<!-- Node4&#45;&gt;Node5 -->
<g id="edge4" class="edge">
<title>Node4&#45;&gt;Node5</title>
<path fill="none" stroke="midnightblue" d="M292.12,-235.46C266.81,-229.1 238.07,-218.07 217.81,-199 204.76,-186.72 197.8,-167.18 194.24,-152.73"/>
<polygon fill="midnightblue" stroke="midnightblue" points="197.64,-151.92 192.13,-142.88 190.8,-153.39 197.64,-151.92"/>
</g>
<!-- Node6 -->
<g id="node6" class="node">
<title>Node6</title>
<g id="a_node6"><a xlink:href="JSUList_8h.html" target="_top" xlink:title=" ">
<polygon fill="white" stroke="black" points="30.31,-62 30.31,-81 173.31,-81 173.31,-62 30.31,-62"/>
<text text-anchor="middle" x="101.81" y="-69" font-family="Helvetica,sans-Serif" font-size="10.00">JSystem/JSupport/JSUList.h</text>
</a>
</g>
</g>
<!-- Node4&#45;&gt;Node6 -->
<g id="edge21" class="edge">
<title>Node4&#45;&gt;Node6</title>
<path fill="none" stroke="midnightblue" d="M272.78,-236.7C214.29,-226.47 137.39,-201.92 102.81,-143 93.62,-127.35 94.74,-106.19 97.31,-91.15"/>
<polygon fill="midnightblue" stroke="midnightblue" points="100.8,-91.53 99.4,-81.03 93.95,-90.11 100.8,-91.53"/>
</g>
<!-- Node4&#45;&gt;Node7 -->
<g id="edge23" class="edge">
<title>Node4&#45;&gt;Node7</title>
<path fill="none" stroke="midnightblue" d="M422.85,-241.48C523.67,-233.58 699.56,-202.89 780.81,-87 788.72,-75.72 789.91,-66.34 780.81,-56 761.21,-33.74 571.99,-19.51 479.37,-13.82"/>
<polygon fill="midnightblue" stroke="midnightblue" points="479.57,-10.33 469.38,-13.22 479.15,-17.31 479.57,-10.33"/>
</g>
<!-- Node8 -->
<g id="node8" class="node">
<title>Node8</title>
<g id="a_node8"><a xlink:href="JKRHeap_8h.html" target="_top" xlink:title=" ">
<polygon fill="white" stroke="black" points="226.31,-179.5 226.31,-198.5 369.31,-198.5 369.31,-179.5 226.31,-179.5"/>
<text text-anchor="middle" x="297.81" y="-186.5" font-family="Helvetica,sans-Serif" font-size="10.00">JSystem/JKernel/JKRHeap.h</text>
</a>
</g>
</g>
<!-- Node4&#45;&gt;Node8 -->
<g id="edge8" class="edge">
<title>Node4&#45;&gt;Node8</title>
<path fill="none" stroke="midnightblue" d="M339.55,-235.08C332.34,-227.3 321.7,-215.8 312.96,-206.37"/>
<polygon fill="midnightblue" stroke="midnightblue" points="315.27,-203.71 305.91,-198.75 310.14,-208.47 315.27,-203.71"/>
</g>
<!-- Node9 -->
<g id="node9" class="node">
<title>Node9</title>
<g id="a_node9"><a xlink:href="OS_8h.html" target="_top" xlink:title=" ">
<polygon fill="white" stroke="black" points="354.81,-123.5 354.81,-142.5 440.81,-142.5 440.81,-123.5 354.81,-123.5"/>
<text text-anchor="middle" x="397.81" y="-130.5" font-family="Helvetica,sans-Serif" font-size="10.00">dolphin/os/OS.h</text>
</a>
</g>
</g>
<!-- Node4&#45;&gt;Node9 -->
<g id="edge22" class="edge">
<title>Node4&#45;&gt;Node9</title>
<path fill="none" stroke="midnightblue" d="M355.13,-235.22C362.07,-226.51 372.37,-212.54 378.81,-199 385.91,-184.07 390.94,-165.93 394.03,-152.61"/>
<polygon fill="midnightblue" stroke="midnightblue" points="397.48,-153.25 396.18,-142.73 390.64,-151.76 397.48,-153.25"/>
</g>
<!-- Node5&#45;&gt;Node6 -->
<g id="edge5" class="edge">
<title>Node5&#45;&gt;Node6</title>
<path fill="none" stroke="midnightblue" d="M178.05,-123.48C163.78,-113.93 140.41,-98.31 123.3,-86.87"/>
<polygon fill="midnightblue" stroke="midnightblue" points="124.79,-83.66 114.53,-81.01 120.9,-89.48 124.79,-83.66"/>
</g>
<!-- Node5&#45;&gt;Node7 -->
<g id="edge7" class="edge">
<title>Node5&#45;&gt;Node7</title>
<path fill="none" stroke="midnightblue" d="M192.2,-123.41C195.26,-107.5 204.1,-73.51 225.81,-56 248.86,-37.41 325.74,-24.17 377.98,-17.05"/>
<polygon fill="midnightblue" stroke="midnightblue" points="378.63,-20.5 388.08,-15.71 377.71,-13.56 378.63,-20.5"/>
</g>
<!-- Node6&#45;&gt;Node7 -->
<g id="edge6" class="edge">
<title>Node6&#45;&gt;Node7</title>
<path fill="none" stroke="midnightblue" d="M148.66,-61.98C209.55,-50.9 315.48,-31.62 378.17,-20.21"/>
<polygon fill="midnightblue" stroke="midnightblue" points="379.02,-23.62 388.23,-18.38 377.76,-16.73 379.02,-23.62"/>
</g>
<!-- Node8&#45;&gt;Node5 -->
<g id="edge9" class="edge">
<title>Node8&#45;&gt;Node5</title>
<path fill="none" stroke="midnightblue" d="M280.61,-179.32C263.46,-170.66 236.86,-157.24 217.06,-147.25"/>
<polygon fill="midnightblue" stroke="midnightblue" points="218.46,-144.04 207.96,-142.65 215.31,-150.28 218.46,-144.04"/>
</g>
<!-- Node8&#45;&gt;Node7 -->
<g id="edge20" class="edge">
<title>Node8&#45;&gt;Node7</title>
<path fill="none" stroke="midnightblue" d="M295.93,-179.38C293.04,-166.73 286.96,-142.53 278.81,-123 271.75,-106.11 263.4,-104.72 258.81,-87 255.35,-73.66 250.4,-66.92 258.81,-56 273.36,-37.09 333.53,-24.49 378.18,-17.55"/>
<polygon fill="midnightblue" stroke="midnightblue" points="378.93,-20.98 388.3,-16.03 377.89,-14.06 378.93,-20.98"/>
</g>
<!-- Node8&#45;&gt;Node9 -->
<g id="edge10" class="edge">
<title>Node8&#45;&gt;Node9</title>
<path fill="none" stroke="midnightblue" d="M313.87,-179.32C329.76,-170.74 354.31,-157.49 372.76,-147.52"/>
<polygon fill="midnightblue" stroke="midnightblue" points="374.64,-150.49 381.78,-142.65 371.32,-144.33 374.64,-150.49"/>
</g>
<!-- Node9&#45;&gt;Node7 -->
<g id="edge13" class="edge">
<title>Node9&#45;&gt;Node7</title>
<path fill="none" stroke="midnightblue" d="M397.89,-123.38C398.24,-109.08 399.83,-79.71 406.81,-56 409.6,-46.51 414.25,-36.57 418.56,-28.45"/>
<polygon fill="midnightblue" stroke="midnightblue" points="421.68,-30.04 423.5,-19.61 415.57,-26.63 421.68,-30.04"/>
</g>
<!-- Node10 -->
<g id="node10" class="node">
<title>Node10</title>
<g id="a_node10"><a xlink:href="____va__arg_8h.html" target="_top" xlink:title=" ">
<polygon fill="white" stroke="black" points="415.81,-56.5 415.81,-86.5 525.81,-86.5 525.81,-56.5 415.81,-56.5"/>
<text text-anchor="start" x="423.81" y="-74.5" font-family="Helvetica,sans-Serif" font-size="10.00">Runtime.PPCEABI.H/</text>
<text text-anchor="middle" x="470.81" y="-63.5" font-family="Helvetica,sans-Serif" font-size="10.00">__va_arg.h</text>
</a>
</g>
</g>
<!-- Node9&#45;&gt;Node10 -->
<g id="edge11" class="edge">
<title>Node9&#45;&gt;Node10</title>
<path fill="none" stroke="midnightblue" d="M408.27,-123.48C417.97,-115.57 432.79,-103.48 445.57,-93.07"/>
<polygon fill="midnightblue" stroke="midnightblue" points="448.06,-95.55 453.6,-86.52 443.64,-90.13 448.06,-95.55"/>
</g>
<!-- Node11 -->
<g id="node11" class="node">
<title>Node11</title>
<g id="a_node11"><a xlink:href="OSError_8h.html" target="_top" xlink:title=" ">
<polygon fill="white" stroke="black" points="543.81,-62 543.81,-81 649.81,-81 649.81,-62 543.81,-62"/>
<text text-anchor="middle" x="596.81" y="-69" font-family="Helvetica,sans-Serif" font-size="10.00">dolphin/os/OSError.h</text>
</a>
</g>
</g>
<!-- Node9&#45;&gt;Node11 -->
<g id="edge14" class="edge">
<title>Node9&#45;&gt;Node11</title>
<path fill="none" stroke="midnightblue" d="M426.32,-123.48C461.04,-113.09 519.84,-95.51 558.5,-83.95"/>
<polygon fill="midnightblue" stroke="midnightblue" points="559.77,-87.23 568.35,-81.01 557.76,-80.52 559.77,-87.23"/>
</g>
<!-- Node12 -->
<g id="node12" class="node">
<title>Node12</title>
<g id="a_node12"><a xlink:href="OSLink_8h.html" target="_top" xlink:title=" ">
<polygon fill="white" stroke="black" points="667.81,-62 667.81,-81 771.81,-81 771.81,-62 667.81,-62"/>
<text text-anchor="middle" x="719.81" y="-69" font-family="Helvetica,sans-Serif" font-size="10.00">dolphin/os/OSLink.h</text>
</a>
</g>
</g>
<!-- Node9&#45;&gt;Node12 -->
<g id="edge16" class="edge">
<title>Node9&#45;&gt;Node12</title>
<path fill="none" stroke="midnightblue" d="M440.91,-125.42C492.79,-117.3 582.45,-102.64 658.81,-87 664.27,-85.88 669.99,-84.63 675.65,-83.34"/>
<polygon fill="midnightblue" stroke="midnightblue" points="676.74,-86.68 685.69,-81.01 675.16,-79.86 676.74,-86.68"/>
</g>
<!-- Node13 -->
<g id="node13" class="node">
<title>Node13</title>
<g id="a_node13"><a xlink:href="dvd_8h.html" target="_top" xlink:title=" ">
<polygon fill="white" stroke="black" points="267.81,-62 267.81,-81 359.81,-81 359.81,-62 267.81,-62"/>
<text text-anchor="middle" x="313.81" y="-69" font-family="Helvetica,sans-Serif" font-size="10.00">dolphin/dvd/dvd.h</text>
</a>
</g>
</g>
<!-- Node9&#45;&gt;Node13 -->
<g id="edge18" class="edge">
<title>Node9&#45;&gt;Node13</title>
<path fill="none" stroke="midnightblue" d="M385.77,-123.48C372.3,-113.93 350.24,-98.31 334.09,-86.87"/>
<polygon fill="midnightblue" stroke="midnightblue" points="336,-83.93 325.82,-81.01 331.96,-89.65 336,-83.93"/>
</g>
<!-- Node10&#45;&gt;Node7 -->
<g id="edge12" class="edge">
<title>Node10&#45;&gt;Node7</title>
<path fill="none" stroke="midnightblue" d="M460.85,-56.4C454.81,-47.84 447.07,-36.87 440.71,-27.86"/>
<polygon fill="midnightblue" stroke="midnightblue" points="443.54,-25.81 434.92,-19.66 437.83,-29.85 443.54,-25.81"/>
</g>
<!-- Node11&#45;&gt;Node7 -->
<g id="edge15" class="edge">
<title>Node11&#45;&gt;Node7</title>
<path fill="none" stroke="midnightblue" d="M572.74,-61.98C543.79,-51.72 495.04,-34.46 462.4,-22.9"/>
<polygon fill="midnightblue" stroke="midnightblue" points="463.43,-19.55 452.83,-19.51 461.09,-26.15 463.43,-19.55"/>
</g>
<!-- Node12&#45;&gt;Node7 -->
<g id="edge17" class="edge">
<title>Node12&#45;&gt;Node7</title>
<path fill="none" stroke="midnightblue" d="M685.02,-61.98C676.47,-59.95 667.32,-57.84 658.81,-56 597.31,-42.68 526.17,-29.03 479.49,-20.31"/>
<polygon fill="midnightblue" stroke="midnightblue" points="480.1,-16.86 469.62,-18.47 478.81,-23.75 480.1,-16.86"/>
</g>
<!-- Node13&#45;&gt;Node7 -->
<g id="edge19" class="edge">
<title>Node13&#45;&gt;Node7</title>
<path fill="none" stroke="midnightblue" d="M330.28,-61.98C349.41,-52.08 381.18,-35.64 403.46,-24.12"/>
<polygon fill="midnightblue" stroke="midnightblue" points="405.09,-27.21 412.36,-19.51 401.87,-21 405.09,-27.21"/>
</g>
</g>
</svg>
