<?xml version="1.0" encoding="UTF-8" standalone="no"?>
<!DOCTYPE svg PUBLIC "-//W3C//DTD SVG 1.1//EN"
 "http://www.w3.org/Graphics/SVG/1.1/DTD/svg11.dtd">
<!-- Generated by graphviz version 3.0.0 (20220413.0242)
 -->
<!-- Title: include/JSystem/JKernel/JKRArchive.h Pages: 1 -->
<svg width="2256pt" height="498pt"
 viewBox="0.00 0.00 2256.00 498.00" xmlns="http://www.w3.org/2000/svg" xmlns:xlink="http://www.w3.org/1999/xlink">
<g id="graph0" class="graph" transform="scale(1 1) rotate(0) translate(4 494)">
<title>include/JSystem/JKernel/JKRArchive.h</title>
<polygon fill="white" stroke="transparent" points="-4,4 -4,-494 2252,-494 2252,4 -4,4"/>
<!-- Node1 -->
<g id="node1" class="node">
<title>Node1</title>
<g id="a_node1"><a xlink:title=" ">
<polygon fill="#bfbfbf" stroke="black" points="1857.5,-459.5 1857.5,-489.5 1982.5,-489.5 1982.5,-459.5 1857.5,-459.5"/>
<text text-anchor="start" x="1865.5" y="-477.5" font-family="Helvetica,sans-Serif" font-size="10.00">include/JSystem/JKernel</text>
<text text-anchor="middle" x="1920" y="-466.5" font-family="Helvetica,sans-Serif" font-size="10.00">/JKRArchive.h</text>
</a>
</g>
</g>
<!-- Node2 -->
<g id="node2" class="node">
<title>Node2</title>
<g id="a_node2"><a xlink:href="JKRCompression_8h.html" target="_top" xlink:title=" ">
<polygon fill="white" stroke="black" points="1696.5,-347.5 1696.5,-366.5 1873.5,-366.5 1873.5,-347.5 1696.5,-347.5"/>
<text text-anchor="middle" x="1785" y="-354.5" font-family="Helvetica,sans-Serif" font-size="10.00">JSystem/JKernel/JKRCompression.h</text>
</a>
</g>
</g>
<!-- Node1&#45;&gt;Node2 -->
<g id="edge1" class="edge">
<title>Node1&#45;&gt;Node2</title>
<path fill="none" stroke="midnightblue" d="M1903.45,-459.34C1877.91,-437.49 1829.1,-395.73 1802.82,-373.24"/>
<polygon fill="midnightblue" stroke="midnightblue" points="1805.01,-370.51 1795.13,-366.67 1800.46,-375.83 1805.01,-370.51"/>
</g>
<!-- Node3 -->
<g id="node3" class="node">
<title>Node3</title>
<g id="a_node3"><a xlink:href="JKRDecomp_8h.html" target="_top" xlink:title=" ">
<polygon fill="white" stroke="black" points="1602,-403.5 1602,-422.5 1758,-422.5 1758,-403.5 1602,-403.5"/>
<text text-anchor="middle" x="1680" y="-410.5" font-family="Helvetica,sans-Serif" font-size="10.00">JSystem/JKernel/JKRDecomp.h</text>
</a>
</g>
</g>
<!-- Node1&#45;&gt;Node3 -->
<g id="edge2" class="edge">
<title>Node1&#45;&gt;Node3</title>
<path fill="none" stroke="midnightblue" d="M1863.43,-459.47C1820.85,-448.92 1763.32,-434.66 1724.11,-424.94"/>
<polygon fill="midnightblue" stroke="midnightblue" points="1724.86,-421.52 1714.31,-422.51 1723.18,-428.31 1724.86,-421.52"/>
</g>
<!-- Node8 -->
<g id="node8" class="node">
<title>Node8</title>
<g id="a_node8"><a xlink:href="JKRHeap_8h.html" target="_top" xlink:title=" ">
<polygon fill="white" stroke="black" points="1532.5,-291.5 1532.5,-310.5 1675.5,-310.5 1675.5,-291.5 1532.5,-291.5"/>
<text text-anchor="middle" x="1604" y="-298.5" font-family="Helvetica,sans-Serif" font-size="10.00">JSystem/JKernel/JKRHeap.h</text>
</a>
</g>
</g>
<!-- Node1&#45;&gt;Node8 -->
<g id="edge81" class="edge">
<title>Node1&#45;&gt;Node8</title>
<path fill="none" stroke="midnightblue" d="M1920.27,-459.18C1919.93,-432.67 1915.11,-376.02 1882,-347 1853.44,-321.96 1757.16,-310.74 1685.87,-305.79"/>
<polygon fill="midnightblue" stroke="midnightblue" points="1685.76,-302.27 1675.55,-305.1 1685.29,-309.26 1685.76,-302.27"/>
</g>
<!-- Node33 -->
<g id="node33" class="node">
<title>Node33</title>
<g id="a_node33"><a xlink:href="JKRDvdFile_8h.html" target="_top" xlink:title=" ">
<polygon fill="white" stroke="black" points="1862.5,-291.5 1862.5,-310.5 2015.5,-310.5 2015.5,-291.5 1862.5,-291.5"/>
<text text-anchor="middle" x="1939" y="-298.5" font-family="Helvetica,sans-Serif" font-size="10.00">JSystem/JKernel/JKRDvdFile.h</text>
</a>
</g>
</g>
<!-- Node1&#45;&gt;Node33 -->
<g id="edge70" class="edge">
<title>Node1&#45;&gt;Node33</title>
<path fill="none" stroke="midnightblue" d="M1921.55,-459.47C1924.96,-428.7 1933.09,-355.33 1936.93,-320.7"/>
<polygon fill="midnightblue" stroke="midnightblue" points="1940.43,-320.88 1938.05,-310.56 1933.47,-320.11 1940.43,-320.88"/>
</g>
<!-- Node35 -->
<g id="node35" class="node">
<title>Node35</title>
<g id="a_node35"><a xlink:href="JKRFileLoader_8h.html" target="_top" xlink:title=" ">
<polygon fill="white" stroke="black" points="2016,-235.5 2016,-254.5 2182,-254.5 2182,-235.5 2016,-235.5"/>
<text text-anchor="middle" x="2099" y="-242.5" font-family="Helvetica,sans-Serif" font-size="10.00">JSystem/JKernel/JKRFileLoader.h</text>
</a>
</g>
</g>
<!-- Node1&#45;&gt;Node35 -->
<g id="edge77" class="edge">
<title>Node1&#45;&gt;Node35</title>
<path fill="none" stroke="midnightblue" d="M1931.2,-459.27C1962.64,-419.31 2051.64,-306.19 2085.6,-263.02"/>
<polygon fill="midnightblue" stroke="midnightblue" points="2088.54,-264.95 2091.98,-254.93 2083.04,-260.62 2088.54,-264.95"/>
</g>
<!-- Node36 -->
<g id="node36" class="node">
<title>Node36</title>
<g id="a_node36"><a xlink:href="global_8h.html" target="_top" xlink:title=" ">
<polygon fill="white" stroke="black" points="2148,-403.5 2148,-422.5 2198,-422.5 2198,-403.5 2148,-403.5"/>
<text text-anchor="middle" x="2173" y="-410.5" font-family="Helvetica,sans-Serif" font-size="10.00">global.h</text>
</a>
</g>
</g>
<!-- Node1&#45;&gt;Node36 -->
<g id="edge82" class="edge">
<title>Node1&#45;&gt;Node36</title>
<path fill="none" stroke="midnightblue" d="M1979.64,-459.47C2028.93,-447.88 2097.23,-431.82 2138.08,-422.21"/>
<polygon fill="midnightblue" stroke="midnightblue" points="2138.91,-425.61 2147.84,-419.92 2137.31,-418.8 2138.91,-425.61"/>
</g>
<!-- Node3&#45;&gt;Node2 -->
<g id="edge3" class="edge">
<title>Node3&#45;&gt;Node2</title>
<path fill="none" stroke="midnightblue" d="M1696.87,-403.32C1713.71,-394.66 1739.81,-381.24 1759.24,-371.25"/>
<polygon fill="midnightblue" stroke="midnightblue" points="1760.88,-374.34 1768.17,-366.65 1757.68,-368.12 1760.88,-374.34"/>
</g>
<!-- Node4 -->
<g id="node4" class="node">
<title>Node4</title>
<g id="a_node4"><a xlink:href="JKRThread_8h.html" target="_top" xlink:title=" ">
<polygon fill="white" stroke="black" points="1529,-347.5 1529,-366.5 1679,-366.5 1679,-347.5 1529,-347.5"/>
<text text-anchor="middle" x="1604" y="-354.5" font-family="Helvetica,sans-Serif" font-size="10.00">JSystem/JKernel/JKRThread.h</text>
</a>
</g>
</g>
<!-- Node3&#45;&gt;Node4 -->
<g id="edge4" class="edge">
<title>Node3&#45;&gt;Node4</title>
<path fill="none" stroke="midnightblue" d="M1667.79,-403.32C1656.22,-395.11 1638.62,-382.6 1624.84,-372.81"/>
<polygon fill="midnightblue" stroke="midnightblue" points="1626.61,-369.77 1616.43,-366.83 1622.56,-375.48 1626.61,-369.77"/>
</g>
<!-- Node7 -->
<g id="node7" class="node">
<title>Node7</title>
<g id="a_node7"><a xlink:href="types_8h.html" target="_top" xlink:title=" ">
<polygon fill="white" stroke="black" points="1043.5,-0.5 1043.5,-19.5 1124.5,-19.5 1124.5,-0.5 1043.5,-0.5"/>
<text text-anchor="middle" x="1084" y="-7.5" font-family="Helvetica,sans-Serif" font-size="10.00">dolphin/types.h</text>
</a>
</g>
</g>
<!-- Node3&#45;&gt;Node7 -->
<g id="edge69" class="edge">
<title>Node3&#45;&gt;Node7</title>
<path fill="none" stroke="midnightblue" d="M1601.78,-411.03C1270.51,-406.4 0,-383.34 0,-302 0,-302 0,-302 0,-132 0,-92.28 12.74,-76.08 47,-56 89.93,-30.84 830.96,-15.59 1033.31,-11.89"/>
<polygon fill="midnightblue" stroke="midnightblue" points="1033.43,-15.38 1043.37,-11.7 1033.31,-8.39 1033.43,-15.38"/>
</g>
<!-- Node5 -->
<g id="node5" class="node">
<title>Node5</title>
<g id="a_node5"><a xlink:href="JKRDisposer_8h.html" target="_top" xlink:title=" ">
<polygon fill="white" stroke="black" points="1855,-179.5 1855,-198.5 2013,-198.5 2013,-179.5 1855,-179.5"/>
<text text-anchor="middle" x="1934" y="-186.5" font-family="Helvetica,sans-Serif" font-size="10.00">JSystem/JKernel/JKRDisposer.h</text>
</a>
</g>
</g>
<!-- Node4&#45;&gt;Node5 -->
<g id="edge5" class="edge">
<title>Node4&#45;&gt;Node5</title>
<path fill="none" stroke="midnightblue" d="M1619.11,-347.5C1667.36,-320.36 1814.81,-237.47 1820,-235 1846.29,-222.52 1877.02,-210.53 1899.95,-202.07"/>
<polygon fill="midnightblue" stroke="midnightblue" points="1901.39,-205.27 1909.58,-198.56 1898.98,-198.7 1901.39,-205.27"/>
</g>
<!-- Node6 -->
<g id="node6" class="node">
<title>Node6</title>
<g id="a_node6"><a xlink:href="JSUList_8h.html" target="_top" xlink:title=" ">
<polygon fill="white" stroke="black" points="1962.5,-123.5 1962.5,-142.5 2105.5,-142.5 2105.5,-123.5 1962.5,-123.5"/>
<text text-anchor="middle" x="2034" y="-130.5" font-family="Helvetica,sans-Serif" font-size="10.00">JSystem/JSupport/JSUList.h</text>
</a>
</g>
</g>
<!-- Node4&#45;&gt;Node6 -->
<g id="edge66" class="edge">
<title>Node4&#45;&gt;Node6</title>
<path fill="none" stroke="midnightblue" d="M1628.2,-347.41C1651.35,-338.95 1687.07,-325.25 1717,-311 1718.95,-310.07 1850.97,-235.76 1853,-235 1924.88,-207.97 1968.44,-254.04 2022,-199 2033.62,-187.06 2035.92,-167.76 2035.73,-153.28"/>
<polygon fill="midnightblue" stroke="midnightblue" points="2039.21,-152.74 2035.18,-142.94 2032.22,-153.11 2039.21,-152.74"/>
</g>
<!-- Node4&#45;&gt;Node7 -->
<g id="edge68" class="edge">
<title>Node4&#45;&gt;Node7</title>
<path fill="none" stroke="midnightblue" d="M1529,-354.71C1216.98,-348.84 38,-321.67 38,-246 38,-246 38,-246 38,-132 38,-90.82 54.93,-75.87 91,-56 173.79,-10.39 842.2,-9.89 1033.2,-10.69"/>
<polygon fill="midnightblue" stroke="midnightblue" points="1033.23,-14.19 1043.25,-10.74 1033.27,-7.19 1033.23,-14.19"/>
</g>
<!-- Node4&#45;&gt;Node8 -->
<g id="edge9" class="edge">
<title>Node4&#45;&gt;Node8</title>
<path fill="none" stroke="midnightblue" d="M1604,-347.08C1604,-340.01 1604,-329.86 1604,-320.99"/>
<polygon fill="midnightblue" stroke="midnightblue" points="1607.5,-320.75 1604,-310.75 1600.5,-320.75 1607.5,-320.75"/>
</g>
<!-- Node9 -->
<g id="node9" class="node">
<title>Node9</title>
<g id="a_node9"><a xlink:href="OS_8h.html" target="_top" xlink:title=" ">
<polygon fill="white" stroke="black" points="1150,-235.5 1150,-254.5 1236,-254.5 1236,-235.5 1150,-235.5"/>
<text text-anchor="middle" x="1193" y="-242.5" font-family="Helvetica,sans-Serif" font-size="10.00">dolphin/os/OS.h</text>
</a>
</g>
</g>
<!-- Node4&#45;&gt;Node9 -->
<g id="edge67" class="edge">
<title>Node4&#45;&gt;Node9</title>
<path fill="none" stroke="midnightblue" d="M1572.09,-347.46C1498.49,-327.76 1316.87,-279.15 1234.64,-257.15"/>
<polygon fill="midnightblue" stroke="midnightblue" points="1235.45,-253.74 1224.89,-254.53 1233.64,-260.5 1235.45,-253.74"/>
</g>
<!-- Node5&#45;&gt;Node6 -->
<g id="edge6" class="edge">
<title>Node5&#45;&gt;Node6</title>
<path fill="none" stroke="midnightblue" d="M1950.07,-179.32C1965.96,-170.74 1990.51,-157.49 2008.96,-147.52"/>
<polygon fill="midnightblue" stroke="midnightblue" points="2010.84,-150.49 2017.97,-142.65 2007.51,-144.33 2010.84,-150.49"/>
</g>
<!-- Node5&#45;&gt;Node7 -->
<g id="edge8" class="edge">
<title>Node5&#45;&gt;Node7</title>
<path fill="none" stroke="midnightblue" d="M1934.57,-179.43C1935.64,-155.39 1934.98,-87.06 1896,-56 1836.59,-8.65 1303.05,-9.11 1134.67,-10.46"/>
<polygon fill="midnightblue" stroke="midnightblue" points="1134.55,-6.96 1124.58,-10.54 1134.61,-13.96 1134.55,-6.96"/>
</g>
<!-- Node6&#45;&gt;Node7 -->
<g id="edge7" class="edge">
<title>Node6&#45;&gt;Node7</title>
<path fill="none" stroke="midnightblue" d="M2027.61,-123.36C2014.72,-106.73 1983.78,-70.62 1948,-56 1872.84,-25.29 1308.36,-14.36 1134.69,-11.7"/>
<polygon fill="midnightblue" stroke="midnightblue" points="1134.59,-8.2 1124.54,-11.55 1134.49,-15.2 1134.59,-8.2"/>
</g>
<!-- Node8&#45;&gt;Node5 -->
<g id="edge10" class="edge">
<title>Node8&#45;&gt;Node5</title>
<path fill="none" stroke="midnightblue" d="M1615.9,-291.43C1635.83,-277.49 1677.65,-249.96 1717,-235 1761.45,-218.1 1813.56,-207.03 1855.57,-200.1"/>
<polygon fill="midnightblue" stroke="midnightblue" points="1856.15,-203.55 1865.47,-198.51 1855.04,-196.64 1856.15,-203.55"/>
</g>
<!-- Node8&#45;&gt;Node7 -->
<g id="edge65" class="edge">
<title>Node8&#45;&gt;Node7</title>
<path fill="none" stroke="midnightblue" d="M1532.35,-298.64C1230.26,-292.45 76,-263.97 76,-190 76,-190 76,-190 76,-132 76,-58.06 152.61,-75.25 224,-56 378.06,-14.47 873.04,-10.91 1033.37,-10.87"/>
<polygon fill="midnightblue" stroke="midnightblue" points="1033.43,-14.37 1043.44,-10.88 1033.44,-7.37 1033.43,-14.37"/>
</g>
<!-- Node8&#45;&gt;Node9 -->
<g id="edge11" class="edge">
<title>Node8&#45;&gt;Node9</title>
<path fill="none" stroke="midnightblue" d="M1538.88,-291.44C1457.92,-280.81 1321.28,-262.85 1246.26,-253"/>
<polygon fill="midnightblue" stroke="midnightblue" points="1246.47,-249.49 1236.1,-251.66 1245.56,-256.44 1246.47,-249.49"/>
</g>
<!-- Node10 -->
<g id="node10" class="node">
<title>Node10</title>
<g id="a_node10"><a xlink:href="____va__arg_8h.html" target="_top" xlink:title=" ">
<polygon fill="white" stroke="black" points="1318,-56.5 1318,-86.5 1428,-86.5 1428,-56.5 1318,-56.5"/>
<text text-anchor="start" x="1326" y="-74.5" font-family="Helvetica,sans-Serif" font-size="10.00">Runtime.PPCEABI.H/</text>
<text text-anchor="middle" x="1373" y="-63.5" font-family="Helvetica,sans-Serif" font-size="10.00">__va_arg.h</text>
</a>
</g>
</g>
<!-- Node9&#45;&gt;Node10 -->
<g id="edge12" class="edge">
<title>Node9&#45;&gt;Node10</title>
<path fill="none" stroke="midnightblue" d="M1212.22,-235.4C1228.83,-227.42 1252.94,-214.45 1271,-199 1280.88,-190.55 1329.44,-128.65 1355.83,-94.68"/>
<polygon fill="midnightblue" stroke="midnightblue" points="1358.67,-96.74 1362.03,-86.69 1353.14,-92.45 1358.67,-96.74"/>
</g>
<!-- Node11 -->
<g id="node11" class="node">
<title>Node11</title>
<g id="a_node11"><a xlink:href="OSAlarm_8h.html" target="_top" xlink:title=" ">
<polygon fill="white" stroke="black" points="1405.5,-179.5 1405.5,-198.5 1516.5,-198.5 1516.5,-179.5 1405.5,-179.5"/>
<text text-anchor="middle" x="1461" y="-186.5" font-family="Helvetica,sans-Serif" font-size="10.00">dolphin/os/OSAlarm.h</text>
</a>
</g>
</g>
<!-- Node9&#45;&gt;Node11 -->
<g id="edge14" class="edge">
<title>Node9&#45;&gt;Node11</title>
<path fill="none" stroke="midnightblue" d="M1235.47,-235.44C1282.41,-225.98 1358.08,-210.74 1408.65,-200.55"/>
<polygon fill="midnightblue" stroke="midnightblue" points="1409.62,-203.92 1418.73,-198.52 1408.24,-197.06 1409.62,-203.92"/>
</g>
<!-- Node12 -->
<g id="node12" class="node">
<title>Node12</title>
<g id="a_node12"><a xlink:href="OSTime_8h.html" target="_top" xlink:title=" ">
<polygon fill="white" stroke="black" points="1343.5,-123.5 1343.5,-142.5 1450.5,-142.5 1450.5,-123.5 1343.5,-123.5"/>
<text text-anchor="middle" x="1397" y="-130.5" font-family="Helvetica,sans-Serif" font-size="10.00">dolphin/os/OSTime.h</text>
</a>
</g>
</g>
<!-- Node9&#45;&gt;Node12 -->
<g id="edge62" class="edge">
<title>Node9&#45;&gt;Node12</title>
<path fill="none" stroke="midnightblue" d="M1233.99,-235.48C1262.09,-228.46 1299.48,-216.74 1329,-199 1350.53,-186.06 1370.74,-165.2 1383.44,-150.62"/>
<polygon fill="midnightblue" stroke="midnightblue" points="1386.21,-152.75 1390,-142.86 1380.87,-148.23 1386.21,-152.75"/>
</g>
<!-- Node13 -->
<g id="node13" class="node">
<title>Node13</title>
<g id="a_node13"><a xlink:href="OSError_8h.html" target="_top" xlink:title=" ">
<polygon fill="white" stroke="black" points="1507,-123.5 1507,-142.5 1613,-142.5 1613,-123.5 1507,-123.5"/>
<text text-anchor="middle" x="1560" y="-130.5" font-family="Helvetica,sans-Serif" font-size="10.00">dolphin/os/OSError.h</text>
</a>
</g>
</g>
<!-- Node9&#45;&gt;Node13 -->
<g id="edge30" class="edge">
<title>Node9&#45;&gt;Node13</title>
<path fill="none" stroke="midnightblue" d="M1236.27,-242.93C1315.3,-240.21 1479.1,-230.8 1525,-199 1540.77,-188.08 1550.06,-167.71 1555.06,-152.67"/>
<polygon fill="midnightblue" stroke="midnightblue" points="1558.48,-153.46 1557.98,-142.88 1551.77,-151.46 1558.48,-153.46"/>
</g>
<!-- Node14 -->
<g id="node14" class="node">
<title>Node14</title>
<g id="a_node14"><a xlink:href="OSAlloc_8h.html" target="_top" xlink:title=" ">
<polygon fill="white" stroke="black" points="1560.5,-62 1560.5,-81 1667.5,-81 1667.5,-62 1560.5,-62"/>
<text text-anchor="middle" x="1614" y="-69" font-family="Helvetica,sans-Serif" font-size="10.00">dolphin/os/OSAlloc.h</text>
</a>
</g>
</g>
<!-- Node9&#45;&gt;Node14 -->
<g id="edge20" class="edge">
<title>Node9&#45;&gt;Node14</title>
<path fill="none" stroke="midnightblue" d="M1236.19,-241.32C1318,-235.78 1492.34,-221.68 1548,-199 1586.2,-183.44 1603.63,-179.93 1622,-143 1630.12,-126.67 1626.17,-105.65 1621.4,-90.82"/>
<polygon fill="midnightblue" stroke="midnightblue" points="1624.64,-89.48 1617.94,-81.28 1618.06,-91.87 1624.64,-89.48"/>
</g>
<!-- Node15 -->
<g id="node15" class="node">
<title>Node15</title>
<g id="a_node15"><a xlink:href="OSArena_8h.html" target="_top" xlink:title=" ">
<polygon fill="white" stroke="black" points="1669.5,-123.5 1669.5,-142.5 1780.5,-142.5 1780.5,-123.5 1669.5,-123.5"/>
<text text-anchor="middle" x="1725" y="-130.5" font-family="Helvetica,sans-Serif" font-size="10.00">dolphin/os/OSArena.h</text>
</a>
</g>
</g>
<!-- Node9&#45;&gt;Node15 -->
<g id="edge22" class="edge">
<title>Node9&#45;&gt;Node15</title>
<path fill="none" stroke="midnightblue" d="M1236.09,-243.3C1336.03,-241.11 1580.77,-232.39 1655,-199 1678.77,-188.31 1699.74,-166.25 1712.38,-150.81"/>
<polygon fill="midnightblue" stroke="midnightblue" points="1715.39,-152.64 1718.83,-142.61 1709.89,-148.31 1715.39,-152.64"/>
</g>
<!-- Node16 -->
<g id="node16" class="node">
<title>Node16</title>
<g id="a_node16"><a xlink:href="OSAudioSystem_8h.html" target="_top" xlink:title=" ">
<polygon fill="white" stroke="black" points="1724.5,-62 1724.5,-81 1867.5,-81 1867.5,-62 1724.5,-62"/>
<text text-anchor="middle" x="1796" y="-69" font-family="Helvetica,sans-Serif" font-size="10.00">dolphin/os/OSAudioSystem.h</text>
</a>
</g>
</g>
<!-- Node9&#45;&gt;Node16 -->
<g id="edge24" class="edge">
<title>Node9&#45;&gt;Node16</title>
<path fill="none" stroke="midnightblue" d="M1236.33,-242.23C1340.15,-237.64 1600.66,-223.93 1684,-199 1709.34,-191.42 1774.29,-164.98 1789,-143 1799.14,-127.85 1799.89,-106.61 1798.72,-91.41"/>
<polygon fill="midnightblue" stroke="midnightblue" points="1802.16,-90.72 1797.57,-81.17 1795.2,-91.49 1802.16,-90.72"/>
</g>
<!-- Node17 -->
<g id="node17" class="node">
<title>Node17</title>
<g id="a_node17"><a xlink:href="OSCache_8h.html" target="_top" xlink:title=" ">
<polygon fill="white" stroke="black" points="104.5,-123.5 104.5,-142.5 217.5,-142.5 217.5,-123.5 104.5,-123.5"/>
<text text-anchor="middle" x="161" y="-130.5" font-family="Helvetica,sans-Serif" font-size="10.00">dolphin/os/OSCache.h</text>
</a>
</g>
</g>
<!-- Node9&#45;&gt;Node17 -->
<g id="edge26" class="edge">
<title>Node9&#45;&gt;Node17</title>
<path fill="none" stroke="midnightblue" d="M1149.87,-244.11C993.9,-244.16 459.63,-241.19 295,-199 252.84,-188.2 208.19,-163.5 182.55,-147.85"/>
<polygon fill="midnightblue" stroke="midnightblue" points="184.34,-144.84 174,-142.53 180.65,-150.79 184.34,-144.84"/>
</g>
<!-- Node18 -->
<g id="node18" class="node">
<title>Node18</title>
<g id="a_node18"><a xlink:href="OSContext_8h.html" target="_top" xlink:title=" ">
<polygon fill="white" stroke="black" points="821.5,-62 821.5,-81 940.5,-81 940.5,-62 821.5,-62"/>
<text text-anchor="middle" x="881" y="-69" font-family="Helvetica,sans-Serif" font-size="10.00">dolphin/os/OSContext.h</text>
</a>
</g>
</g>
<!-- Node9&#45;&gt;Node18 -->
<g id="edge28" class="edge">
<title>Node9&#45;&gt;Node18</title>
<path fill="none" stroke="midnightblue" d="M1149.83,-243.32C1077.46,-241.24 936.21,-232.84 902,-199 873.2,-170.52 874.73,-118.63 878.02,-90.99"/>
<polygon fill="midnightblue" stroke="midnightblue" points="881.49,-91.46 879.41,-81.07 874.56,-90.49 881.49,-91.46"/>
</g>
<!-- Node19 -->
<g id="node19" class="node">
<title>Node19</title>
<g id="a_node19"><a xlink:href="OSExec_8h.html" target="_top" xlink:title=" ">
<polygon fill="white" stroke="black" points="235.5,-123.5 235.5,-142.5 342.5,-142.5 342.5,-123.5 235.5,-123.5"/>
<text text-anchor="middle" x="289" y="-130.5" font-family="Helvetica,sans-Serif" font-size="10.00">dolphin/os/OSExec.h</text>
</a>
</g>
</g>
<!-- Node9&#45;&gt;Node19 -->
<g id="edge31" class="edge">
<title>Node9&#45;&gt;Node19</title>
<path fill="none" stroke="midnightblue" d="M1149.77,-243.1C977.42,-239.37 347.03,-224.02 313,-199 298.64,-188.44 292.86,-168.32 290.54,-153.25"/>
<polygon fill="midnightblue" stroke="midnightblue" points="293.98,-152.48 289.36,-142.95 287.02,-153.28 293.98,-152.48"/>
</g>
<!-- Node20 -->
<g id="node20" class="node">
<title>Node20</title>
<g id="a_node20"><a xlink:href="OSFont_8h.html" target="_top" xlink:title=" ">
<polygon fill="white" stroke="black" points="322.5,-62 322.5,-81 427.5,-81 427.5,-62 322.5,-62"/>
<text text-anchor="middle" x="375" y="-69" font-family="Helvetica,sans-Serif" font-size="10.00">dolphin/os/OSFont.h</text>
</a>
</g>
</g>
<!-- Node9&#45;&gt;Node20 -->
<g id="edge33" class="edge">
<title>Node9&#45;&gt;Node20</title>
<path fill="none" stroke="midnightblue" d="M1149.77,-243.25C984.68,-240.18 401.84,-227.36 375,-199 347.41,-169.85 359.21,-117.86 368.22,-90.49"/>
<polygon fill="midnightblue" stroke="midnightblue" points="371.54,-91.6 371.57,-81 364.94,-89.27 371.54,-91.6"/>
</g>
<!-- Node21 -->
<g id="node21" class="node">
<title>Node21</title>
<g id="a_node21"><a xlink:href="OSInterrupt_8h.html" target="_top" xlink:title=" ">
<polygon fill="white" stroke="black" points="399,-123.5 399,-142.5 521,-142.5 521,-123.5 399,-123.5"/>
<text text-anchor="middle" x="460" y="-130.5" font-family="Helvetica,sans-Serif" font-size="10.00">dolphin/os/OSInterrupt.h</text>
</a>
</g>
</g>
<!-- Node9&#45;&gt;Node21 -->
<g id="edge35" class="edge">
<title>Node9&#45;&gt;Node21</title>
<path fill="none" stroke="midnightblue" d="M1149.97,-243.23C986.32,-240.08 410.52,-227.04 384,-199 365.13,-179.06 398.57,-158.95 426.89,-146.49"/>
<polygon fill="midnightblue" stroke="midnightblue" points="428.36,-149.67 436.22,-142.57 425.65,-143.22 428.36,-149.67"/>
</g>
<!-- Node22 -->
<g id="node22" class="node">
<title>Node22</title>
<g id="a_node22"><a xlink:href="OSLink_8h.html" target="_top" xlink:title=" ">
<polygon fill="white" stroke="black" points="531,-179.5 531,-198.5 635,-198.5 635,-179.5 531,-179.5"/>
<text text-anchor="middle" x="583" y="-186.5" font-family="Helvetica,sans-Serif" font-size="10.00">dolphin/os/OSLink.h</text>
</a>
</g>
</g>
<!-- Node9&#45;&gt;Node22 -->
<g id="edge37" class="edge">
<title>Node9&#45;&gt;Node22</title>
<path fill="none" stroke="midnightblue" d="M1149.85,-241.42C1058.67,-235.75 839.54,-221.05 645.32,-199.08"/>
<polygon fill="midnightblue" stroke="midnightblue" points="645.55,-195.59 635.21,-197.93 644.75,-202.54 645.55,-195.59"/>
</g>
<!-- Node23 -->
<g id="node23" class="node">
<title>Node23</title>
<g id="a_node23"><a xlink:href="OSMemory_8h.html" target="_top" xlink:title=" ">
<polygon fill="white" stroke="black" points="393,-179.5 393,-198.5 513,-198.5 513,-179.5 393,-179.5"/>
<text text-anchor="middle" x="453" y="-186.5" font-family="Helvetica,sans-Serif" font-size="10.00">dolphin/os/OSMemory.h</text>
</a>
</g>
</g>
<!-- Node9&#45;&gt;Node23 -->
<g id="edge39" class="edge">
<title>Node9&#45;&gt;Node23</title>
<path fill="none" stroke="midnightblue" d="M1149.75,-242.04C1044.45,-237.07 766.2,-222.73 523.27,-199.07"/>
<polygon fill="midnightblue" stroke="midnightblue" points="523.48,-195.57 513.19,-198.08 522.8,-202.54 523.48,-195.57"/>
</g>
<!-- Node24 -->
<g id="node24" class="node">
<title>Node24</title>
<g id="a_node24"><a xlink:href="OSMessage_8h.html" target="_top" xlink:title=" ">
<polygon fill="white" stroke="black" points="653.5,-179.5 653.5,-198.5 778.5,-198.5 778.5,-179.5 653.5,-179.5"/>
<text text-anchor="middle" x="716" y="-186.5" font-family="Helvetica,sans-Serif" font-size="10.00">dolphin/os/OSMessage.h</text>
</a>
</g>
</g>
<!-- Node9&#45;&gt;Node24 -->
<g id="edge42" class="edge">
<title>Node9&#45;&gt;Node24</title>
<path fill="none" stroke="midnightblue" d="M1149.78,-239.2C1076.42,-231.04 922.83,-213.89 793,-199 791.54,-198.83 790.06,-198.66 788.57,-198.49"/>
<polygon fill="midnightblue" stroke="midnightblue" points="788.95,-195.01 778.61,-197.34 788.14,-201.97 788.95,-195.01"/>
</g>
<!-- Node25 -->
<g id="node25" class="node">
<title>Node25</title>
<g id="a_node25"><a xlink:href="OSThread_8h.html" target="_top" xlink:title=" ">
<polygon fill="white" stroke="black" points="689,-123.5 689,-142.5 805,-142.5 805,-123.5 689,-123.5"/>
<text text-anchor="middle" x="747" y="-130.5" font-family="Helvetica,sans-Serif" font-size="10.00">dolphin/os/OSThread.h</text>
</a>
</g>
</g>
<!-- Node9&#45;&gt;Node25 -->
<g id="edge61" class="edge">
<title>Node9&#45;&gt;Node25</title>
<path fill="none" stroke="midnightblue" d="M1149.9,-241.5C1066.86,-236.22 887.87,-222.45 831,-199 803.71,-187.75 777.7,-165.15 762.04,-149.79"/>
<polygon fill="midnightblue" stroke="midnightblue" points="764.37,-147.17 754.85,-142.52 759.4,-152.09 764.37,-147.17"/>
</g>
<!-- Node26 -->
<g id="node26" class="node">
<title>Node26</title>
<g id="a_node26"><a xlink:href="OSMutex_8h.html" target="_top" xlink:title=" ">
<polygon fill="white" stroke="black" points="691,-62 691,-81 803,-81 803,-62 691,-62"/>
<text text-anchor="middle" x="747" y="-69" font-family="Helvetica,sans-Serif" font-size="10.00">dolphin/os/OSMutex.h</text>
</a>
</g>
</g>
<!-- Node9&#45;&gt;Node26 -->
<g id="edge50" class="edge">
<title>Node9&#45;&gt;Node26</title>
<path fill="none" stroke="midnightblue" d="M1149.76,-241.21C1076.17,-235.89 930.18,-222.65 885,-199 844.05,-177.56 848.36,-153.92 814,-123 799.34,-109.81 781.46,-96.45 767.85,-86.79"/>
<polygon fill="midnightblue" stroke="midnightblue" points="769.8,-83.89 759.61,-81.01 765.79,-89.62 769.8,-83.89"/>
</g>
<!-- Node27 -->
<g id="node27" class="node">
<title>Node27</title>
<g id="a_node27"><a xlink:href="OSReboot_8h.html" target="_top" xlink:title=" ">
<polygon fill="white" stroke="black" points="911,-179.5 911,-198.5 1027,-198.5 1027,-179.5 911,-179.5"/>
<text text-anchor="middle" x="969" y="-186.5" font-family="Helvetica,sans-Serif" font-size="10.00">dolphin/os/OSReboot.h</text>
</a>
</g>
</g>
<!-- Node9&#45;&gt;Node27 -->
<g id="edge51" class="edge">
<title>Node9&#45;&gt;Node27</title>
<path fill="none" stroke="midnightblue" d="M1157.51,-235.44C1118.68,-226.08 1056.34,-211.06 1014.08,-200.87"/>
<polygon fill="midnightblue" stroke="midnightblue" points="1014.87,-197.46 1004.33,-198.52 1013.23,-204.26 1014.87,-197.46"/>
</g>
<!-- Node28 -->
<g id="node28" class="node">
<title>Node28</title>
<g id="a_node28"><a xlink:href="OSReset_8h.html" target="_top" xlink:title=" ">
<polygon fill="white" stroke="black" points="997.5,-123.5 997.5,-142.5 1108.5,-142.5 1108.5,-123.5 997.5,-123.5"/>
<text text-anchor="middle" x="1053" y="-130.5" font-family="Helvetica,sans-Serif" font-size="10.00">dolphin/os/OSReset.h</text>
</a>
</g>
</g>
<!-- Node9&#45;&gt;Node28 -->
<g id="edge53" class="edge">
<title>Node9&#45;&gt;Node28</title>
<path fill="none" stroke="midnightblue" d="M1149.86,-237.28C1124.65,-231.25 1093.95,-219.96 1074,-199 1062.13,-186.53 1056.97,-167.3 1054.72,-152.98"/>
<polygon fill="midnightblue" stroke="midnightblue" points="1058.16,-152.28 1053.48,-142.78 1051.22,-153.13 1058.16,-152.28"/>
</g>
<!-- Node29 -->
<g id="node29" class="node">
<title>Node29</title>
<g id="a_node29"><a xlink:href="OSResetSW_8h.html" target="_top" xlink:title=" ">
<polygon fill="white" stroke="black" points="1083.5,-179.5 1083.5,-198.5 1210.5,-198.5 1210.5,-179.5 1083.5,-179.5"/>
<text text-anchor="middle" x="1147" y="-186.5" font-family="Helvetica,sans-Serif" font-size="10.00">dolphin/os/OSResetSW.h</text>
</a>
</g>
</g>
<!-- Node9&#45;&gt;Node29 -->
<g id="edge55" class="edge">
<title>Node9&#45;&gt;Node29</title>
<path fill="none" stroke="midnightblue" d="M1185.4,-235.08C1178.77,-227.3 1168.98,-215.8 1160.94,-206.37"/>
<polygon fill="midnightblue" stroke="midnightblue" points="1163.6,-204.09 1154.45,-198.75 1158.27,-208.63 1163.6,-204.09"/>
</g>
<!-- Node30 -->
<g id="node30" class="node">
<title>Node30</title>
<g id="a_node30"><a xlink:href="OSRtc_8h.html" target="_top" xlink:title=" ">
<polygon fill="white" stroke="black" points="1073.5,-62 1073.5,-81 1174.5,-81 1174.5,-62 1073.5,-62"/>
<text text-anchor="middle" x="1124" y="-69" font-family="Helvetica,sans-Serif" font-size="10.00">dolphin/os/OSRtc.h</text>
</a>
</g>
</g>
<!-- Node9&#45;&gt;Node30 -->
<g id="edge57" class="edge">
<title>Node9&#45;&gt;Node30</title>
<path fill="none" stroke="midnightblue" d="M1200.92,-235.2C1211.13,-222.74 1226.71,-199.22 1219,-179 1204.05,-139.79 1167.3,-105.85 1144.14,-87.36"/>
<polygon fill="midnightblue" stroke="midnightblue" points="1146.05,-84.42 1136,-81.06 1141.76,-89.95 1146.05,-84.42"/>
</g>
<!-- Node31 -->
<g id="node31" class="node">
<title>Node31</title>
<g id="a_node31"><a xlink:href="OSSync_8h.html" target="_top" xlink:title=" ">
<polygon fill="white" stroke="black" points="1192.5,-62 1192.5,-81 1299.5,-81 1299.5,-62 1192.5,-62"/>
<text text-anchor="middle" x="1246" y="-69" font-family="Helvetica,sans-Serif" font-size="10.00">dolphin/os/OSSync.h</text>
</a>
</g>
</g>
<!-- Node9&#45;&gt;Node31 -->
<g id="edge59" class="edge">
<title>Node9&#45;&gt;Node31</title>
<path fill="none" stroke="midnightblue" d="M1212.3,-235.48C1226.43,-228.08 1244.56,-215.89 1253,-199 1270.56,-163.88 1260.23,-116.24 1252.36,-90.61"/>
<polygon fill="midnightblue" stroke="midnightblue" points="1255.68,-89.48 1249.23,-81.07 1249.03,-91.66 1255.68,-89.48"/>
</g>
<!-- Node32 -->
<g id="node32" class="node">
<title>Node32</title>
<g id="a_node32"><a xlink:href="dvd_8h.html" target="_top" xlink:title=" ">
<polygon fill="white" stroke="black" points="1745,-179.5 1745,-198.5 1837,-198.5 1837,-179.5 1745,-179.5"/>
<text text-anchor="middle" x="1791" y="-186.5" font-family="Helvetica,sans-Serif" font-size="10.00">dolphin/dvd/dvd.h</text>
</a>
</g>
</g>
<!-- Node9&#45;&gt;Node32 -->
<g id="edge63" class="edge">
<title>Node9&#45;&gt;Node32</title>
<path fill="none" stroke="midnightblue" d="M1236.33,-241.34C1327.87,-235.51 1547.6,-220.4 1731,-199 1732.27,-198.85 1733.54,-198.7 1734.83,-198.54"/>
<polygon fill="midnightblue" stroke="midnightblue" points="1735.39,-202 1744.85,-197.23 1734.48,-195.06 1735.39,-202"/>
</g>
<!-- Node10&#45;&gt;Node7 -->
<g id="edge13" class="edge">
<title>Node10&#45;&gt;Node7</title>
<path fill="none" stroke="midnightblue" d="M1317.7,-58.08C1314.42,-57.37 1311.17,-56.67 1308,-56 1248.48,-43.38 1179.86,-29.73 1134.42,-20.81"/>
<polygon fill="midnightblue" stroke="midnightblue" points="1135.01,-17.36 1124.52,-18.87 1133.66,-24.23 1135.01,-17.36"/>
</g>
<!-- Node11&#45;&gt;Node7 -->
<g id="edge15" class="edge">
<title>Node11&#45;&gt;Node7</title>
<path fill="none" stroke="midnightblue" d="M1463.83,-179.46C1470.98,-156.09 1486.96,-90.53 1454,-56 1432.34,-33.31 1231.16,-19.17 1134.88,-13.65"/>
<polygon fill="midnightblue" stroke="midnightblue" points="1134.97,-10.15 1124.79,-13.08 1134.57,-17.14 1134.97,-10.15"/>
</g>
<!-- Node11&#45;&gt;Node12 -->
<g id="edge16" class="edge">
<title>Node11&#45;&gt;Node12</title>
<path fill="none" stroke="midnightblue" d="M1450.72,-179.32C1441.16,-171.26 1426.72,-159.08 1415.22,-149.37"/>
<polygon fill="midnightblue" stroke="midnightblue" points="1417.37,-146.61 1407.47,-142.83 1412.86,-151.96 1417.37,-146.61"/>
</g>
<!-- Node11&#45;&gt;Node13 -->
<g id="edge18" class="edge">
<title>Node11&#45;&gt;Node13</title>
<path fill="none" stroke="midnightblue" d="M1476.91,-179.32C1492.64,-170.74 1516.94,-157.49 1535.21,-147.52"/>
<polygon fill="midnightblue" stroke="midnightblue" points="1537.03,-150.52 1544.13,-142.65 1533.68,-144.37 1537.03,-150.52"/>
</g>
<!-- Node12&#45;&gt;Node7 -->
<g id="edge17" class="edge">
<title>Node12&#45;&gt;Node7</title>
<path fill="none" stroke="midnightblue" d="M1407.61,-123.45C1424.95,-108.49 1455.62,-77.15 1437,-56 1417.35,-33.68 1227.59,-19.48 1134.71,-13.81"/>
<polygon fill="midnightblue" stroke="midnightblue" points="1134.88,-10.32 1124.69,-13.21 1134.46,-17.3 1134.88,-10.32"/>
</g>
<!-- Node13&#45;&gt;Node7 -->
<g id="edge19" class="edge">
<title>Node13&#45;&gt;Node7</title>
<path fill="none" stroke="midnightblue" d="M1556.82,-123.08C1550.43,-106.62 1534.36,-71.74 1508,-56 1446.15,-19.08 1233.3,-12.29 1134.78,-11.15"/>
<polygon fill="midnightblue" stroke="midnightblue" points="1134.8,-7.65 1124.76,-11.05 1134.73,-14.65 1134.8,-7.65"/>
</g>
<!-- Node14&#45;&gt;Node7 -->
<g id="edge21" class="edge">
<title>Node14&#45;&gt;Node7</title>
<path fill="none" stroke="midnightblue" d="M1577.79,-61.99C1567.56,-59.8 1556.38,-57.61 1546,-56 1397.49,-33.01 1220.21,-19.64 1134.86,-14.07"/>
<polygon fill="midnightblue" stroke="midnightblue" points="1134.88,-10.56 1124.67,-13.41 1134.43,-17.55 1134.88,-10.56"/>
</g>
<!-- Node15&#45;&gt;Node7 -->
<g id="edge23" class="edge">
<title>Node15&#45;&gt;Node7</title>
<path fill="none" stroke="midnightblue" d="M1722.2,-123.02C1716.51,-106.46 1701.9,-71.42 1676,-56 1630.04,-28.63 1269.34,-16.06 1134.57,-12.28"/>
<polygon fill="midnightblue" stroke="midnightblue" points="1134.6,-8.78 1124.5,-12.01 1134.4,-15.78 1134.6,-8.78"/>
</g>
<!-- Node16&#45;&gt;Node7 -->
<g id="edge25" class="edge">
<title>Node16&#45;&gt;Node7</title>
<path fill="none" stroke="midnightblue" d="M1750.15,-61.94C1737.2,-59.75 1723.08,-57.57 1710,-56 1497.2,-30.47 1241.84,-17.61 1134.95,-13.02"/>
<polygon fill="midnightblue" stroke="midnightblue" points="1134.91,-9.51 1124.78,-12.58 1134.62,-16.5 1134.91,-9.51"/>
</g>
<!-- Node17&#45;&gt;Node7 -->
<g id="edge27" class="edge">
<title>Node17&#45;&gt;Node7</title>
<path fill="none" stroke="midnightblue" d="M171.64,-123.36C192.82,-106.74 242.44,-70.64 291,-56 430.57,-13.92 880.49,-10.65 1032.94,-10.79"/>
<polygon fill="midnightblue" stroke="midnightblue" points="1033.39,-14.29 1043.4,-10.81 1033.4,-7.29 1033.39,-14.29"/>
</g>
<!-- Node18&#45;&gt;Node7 -->
<g id="edge29" class="edge">
<title>Node18&#45;&gt;Node7</title>
<path fill="none" stroke="midnightblue" d="M910.08,-61.98C945.58,-51.57 1005.75,-33.94 1045.17,-22.38"/>
<polygon fill="midnightblue" stroke="midnightblue" points="1046.36,-25.68 1054.97,-19.51 1044.39,-18.96 1046.36,-25.68"/>
</g>
<!-- Node19&#45;&gt;Node7 -->
<g id="edge32" class="edge">
<title>Node19&#45;&gt;Node7</title>
<path fill="none" stroke="midnightblue" d="M288.82,-123.19C289.02,-106.91 292.04,-72.32 313,-56 369.61,-11.92 870.57,-10.09 1033.24,-10.68"/>
<polygon fill="midnightblue" stroke="midnightblue" points="1033.44,-14.18 1043.45,-10.72 1033.47,-7.18 1033.44,-14.18"/>
</g>
<!-- Node20&#45;&gt;Node7 -->
<g id="edge34" class="edge">
<title>Node20&#45;&gt;Node7</title>
<path fill="none" stroke="midnightblue" d="M426.72,-61.95C441.03,-59.78 456.59,-57.61 471,-56 679.08,-32.68 928.31,-18.67 1033.37,-13.4"/>
<polygon fill="midnightblue" stroke="midnightblue" points="1033.56,-16.9 1043.37,-12.9 1033.21,-9.9 1033.56,-16.9"/>
</g>
<!-- Node21&#45;&gt;Node7 -->
<g id="edge36" class="edge">
<title>Node21&#45;&gt;Node7</title>
<path fill="none" stroke="midnightblue" d="M465.33,-123.46C476.15,-107.02 502.42,-71.22 535,-56 622.58,-15.1 914.17,-10.73 1032.97,-10.71"/>
<polygon fill="midnightblue" stroke="midnightblue" points="1033.24,-14.21 1043.24,-10.72 1033.24,-7.21 1033.24,-14.21"/>
</g>
<!-- Node22&#45;&gt;Node7 -->
<g id="edge38" class="edge">
<title>Node22&#45;&gt;Node7</title>
<path fill="none" stroke="midnightblue" d="M584.86,-179.34C590.59,-155.08 610.37,-86.23 656,-56 716.76,-15.74 933.48,-10.71 1033.17,-10.59"/>
<polygon fill="midnightblue" stroke="midnightblue" points="1033.3,-14.09 1043.3,-10.6 1033.3,-7.09 1033.3,-14.09"/>
</g>
<!-- Node23&#45;&gt;Node7 -->
<g id="edge40" class="edge">
<title>Node23&#45;&gt;Node7</title>
<path fill="none" stroke="midnightblue" d="M470.22,-179.4C486.31,-171.03 510.67,-157.49 530,-143 575.03,-109.25 570.78,-79.32 622,-56 694.24,-23.11 928.85,-14.19 1033.18,-11.83"/>
<polygon fill="midnightblue" stroke="midnightblue" points="1033.53,-15.32 1043.46,-11.61 1033.38,-8.32 1033.53,-15.32"/>
</g>
<!-- Node23&#45;&gt;Node21 -->
<g id="edge41" class="edge">
<title>Node23&#45;&gt;Node21</title>
<path fill="none" stroke="midnightblue" d="M454.16,-179.08C455.08,-171.93 456.42,-161.64 457.58,-152.69"/>
<polygon fill="midnightblue" stroke="midnightblue" points="461.05,-153.12 458.87,-142.75 454.11,-152.22 461.05,-153.12"/>
</g>
<!-- Node24&#45;&gt;Node7 -->
<g id="edge43" class="edge">
<title>Node24&#45;&gt;Node7</title>
<path fill="none" stroke="midnightblue" d="M706.59,-179.35C698.11,-170.94 686.07,-157.38 680,-143 664.91,-107.26 647.11,-84.88 673,-56 696.68,-29.59 928.83,-17.13 1033.4,-12.83"/>
<polygon fill="midnightblue" stroke="midnightblue" points="1033.55,-16.33 1043.4,-12.43 1033.27,-9.33 1033.55,-16.33"/>
</g>
<!-- Node24&#45;&gt;Node25 -->
<g id="edge44" class="edge">
<title>Node24&#45;&gt;Node25</title>
<path fill="none" stroke="midnightblue" d="M721.12,-179.08C725.41,-171.61 731.66,-160.72 736.94,-151.52"/>
<polygon fill="midnightblue" stroke="midnightblue" points="740.03,-153.17 741.98,-142.75 733.96,-149.68 740.03,-153.17"/>
</g>
<!-- Node25&#45;&gt;Node7 -->
<g id="edge45" class="edge">
<title>Node25&#45;&gt;Node7</title>
<path fill="none" stroke="midnightblue" d="M725.19,-123.45C710.06,-116.22 691.05,-104.26 682,-87 675.61,-74.8 672.82,-66.27 682,-56 705.03,-30.25 930.1,-17.5 1033.06,-12.98"/>
<polygon fill="midnightblue" stroke="midnightblue" points="1033.38,-16.47 1043.22,-12.54 1033.08,-9.47 1033.38,-16.47"/>
</g>
<!-- Node25&#45;&gt;Node18 -->
<g id="edge49" class="edge">
<title>Node25&#45;&gt;Node18</title>
<path fill="none" stroke="midnightblue" d="M766.2,-123.48C788.79,-113.45 826.5,-96.7 852.5,-85.15"/>
<polygon fill="midnightblue" stroke="midnightblue" points="854.12,-88.27 861.84,-81.01 851.28,-81.87 854.12,-88.27"/>
</g>
<!-- Node25&#45;&gt;Node26 -->
<g id="edge46" class="edge">
<title>Node25&#45;&gt;Node26</title>
<path fill="none" stroke="midnightblue" d="M742.1,-123.48C740.27,-115.08 739.8,-101.98 740.69,-91.16"/>
<polygon fill="midnightblue" stroke="midnightblue" points="744.19,-91.4 742.1,-81.01 737.25,-90.43 744.19,-91.4"/>
</g>
<!-- Node26&#45;&gt;Node7 -->
<g id="edge47" class="edge">
<title>Node26&#45;&gt;Node7</title>
<path fill="none" stroke="midnightblue" d="M783.71,-61.94C792.92,-59.89 802.81,-57.78 812,-56 888.81,-41.09 978.43,-26.87 1033.18,-18.54"/>
<polygon fill="midnightblue" stroke="midnightblue" points="1033.96,-21.97 1043.32,-17.01 1032.91,-15.05 1033.96,-21.97"/>
</g>
<!-- Node26&#45;&gt;Node25 -->
<g id="edge48" class="edge">
<title>Node26&#45;&gt;Node25</title>
<path fill="none" stroke="midnightblue" d="M751.9,-81.01C753.73,-89.4 754.2,-102.5 753.32,-113.32"/>
<polygon fill="midnightblue" stroke="midnightblue" points="749.81,-113.09 751.9,-123.48 756.75,-114.05 749.81,-113.09"/>
</g>
<!-- Node27&#45;&gt;Node7 -->
<g id="edge52" class="edge">
<title>Node27&#45;&gt;Node7</title>
<path fill="none" stroke="midnightblue" d="M970.66,-179.3C975.36,-156.62 990.66,-94.78 1024,-56 1034.35,-43.96 1048.45,-33.18 1060.38,-25.2"/>
<polygon fill="midnightblue" stroke="midnightblue" points="1062.47,-28.01 1068.98,-19.66 1058.68,-22.13 1062.47,-28.01"/>
</g>
<!-- Node28&#45;&gt;Node7 -->
<g id="edge54" class="edge">
<title>Node28&#45;&gt;Node7</title>
<path fill="none" stroke="midnightblue" d="M1046.56,-123.26C1036.75,-108.8 1020.27,-79.19 1031,-56 1036.92,-43.21 1048.47,-32.72 1059.28,-25.1"/>
<polygon fill="midnightblue" stroke="midnightblue" points="1061.21,-28.02 1067.67,-19.61 1057.38,-22.16 1061.21,-28.02"/>
</g>
<!-- Node29&#45;&gt;Node7 -->
<g id="edge56" class="edge">
<title>Node29&#45;&gt;Node7</title>
<path fill="none" stroke="midnightblue" d="M1144.6,-179.17C1140.62,-165.83 1131.63,-140.25 1117,-123 1098.58,-101.28 1077.33,-112.16 1064,-87 1054.16,-68.43 1063.4,-44.69 1072.33,-28.73"/>
<polygon fill="midnightblue" stroke="midnightblue" points="1075.48,-30.28 1077.67,-19.91 1069.49,-26.65 1075.48,-30.28"/>
</g>
<!-- Node30&#45;&gt;Node7 -->
<g id="edge58" class="edge">
<title>Node30&#45;&gt;Node7</title>
<path fill="none" stroke="midnightblue" d="M1118.27,-61.98C1112.33,-53.14 1102.88,-39.09 1095.41,-27.98"/>
<polygon fill="midnightblue" stroke="midnightblue" points="1098.2,-25.86 1089.72,-19.51 1092.39,-29.76 1098.2,-25.86"/>
</g>
<!-- Node31&#45;&gt;Node7 -->
<g id="edge60" class="edge">
<title>Node31&#45;&gt;Node7</title>
<path fill="none" stroke="midnightblue" d="M1222.79,-61.98C1195,-51.77 1148.28,-34.61 1116.81,-23.05"/>
<polygon fill="midnightblue" stroke="midnightblue" points="1117.76,-19.67 1107.17,-19.51 1115.35,-26.24 1117.76,-19.67"/>
</g>
<!-- Node32&#45;&gt;Node7 -->
<g id="edge64" class="edge">
<title>Node32&#45;&gt;Node7</title>
<path fill="none" stroke="midnightblue" d="M1804.46,-179.22C1837.2,-156.88 1915.51,-96.76 1877,-56 1851.46,-28.97 1305.81,-15.54 1134.79,-11.98"/>
<polygon fill="midnightblue" stroke="midnightblue" points="1134.62,-8.48 1124.55,-11.77 1134.48,-15.48 1134.62,-8.48"/>
</g>
<!-- Node33&#45;&gt;Node7 -->
<g id="edge76" class="edge">
<title>Node33&#45;&gt;Node7</title>
<path fill="none" stroke="midnightblue" d="M2015.64,-295.09C2080.07,-289.43 2165.62,-277.79 2191,-255 2213.4,-234.89 2210,-220.1 2210,-190 2210,-190 2210,-190 2210,-132 2210,-68.87 2150.22,-74.94 2090,-56 1998.6,-27.26 1326.06,-14.74 1134.68,-11.74"/>
<polygon fill="midnightblue" stroke="midnightblue" points="1134.66,-8.24 1124.61,-11.58 1134.55,-15.24 1134.66,-8.24"/>
</g>
<!-- Node33&#45;&gt;Node9 -->
<g id="edge75" class="edge">
<title>Node33&#45;&gt;Node9</title>
<path fill="none" stroke="midnightblue" d="M1862.32,-294.45C1710.82,-283.48 1376.55,-259.29 1246.36,-249.86"/>
<polygon fill="midnightblue" stroke="midnightblue" points="1246.47,-246.36 1236.24,-249.13 1245.96,-253.34 1246.47,-246.36"/>
</g>
<!-- Node33&#45;&gt;Node32 -->
<g id="edge74" class="edge">
<title>Node33&#45;&gt;Node32</title>
<path fill="none" stroke="midnightblue" d="M1918.08,-291.38C1899.94,-283.38 1873.46,-270.41 1853,-255 1834.23,-240.86 1816.07,-220.84 1804.31,-206.76"/>
<polygon fill="midnightblue" stroke="midnightblue" points="1806.9,-204.4 1797.86,-198.87 1801.48,-208.83 1806.9,-204.4"/>
</g>
<!-- Node34 -->
<g id="node34" class="node">
<title>Node34</title>
<g id="a_node34"><a xlink:href="JKRFile_8h.html" target="_top" xlink:title=" ">
<polygon fill="white" stroke="black" points="1862,-235.5 1862,-254.5 1998,-254.5 1998,-235.5 1862,-235.5"/>
<text text-anchor="middle" x="1930" y="-242.5" font-family="Helvetica,sans-Serif" font-size="10.00">JSystem/JKernel/JKRFile.h</text>
</a>
</g>
</g>
<!-- Node33&#45;&gt;Node34 -->
<g id="edge71" class="edge">
<title>Node33&#45;&gt;Node34</title>
<path fill="none" stroke="midnightblue" d="M1937.51,-291.08C1936.32,-283.93 1934.61,-273.64 1933.12,-264.69"/>
<polygon fill="midnightblue" stroke="midnightblue" points="1936.55,-264.04 1931.46,-254.75 1929.65,-265.19 1936.55,-264.04"/>
</g>
<!-- Node34&#45;&gt;Node5 -->
<g id="edge72" class="edge">
<title>Node34&#45;&gt;Node5</title>
<path fill="none" stroke="midnightblue" d="M1930.66,-235.08C1931.18,-228.01 1931.94,-217.86 1932.59,-208.99"/>
<polygon fill="midnightblue" stroke="midnightblue" points="1936.1,-208.98 1933.35,-198.75 1929.12,-208.47 1936.1,-208.98"/>
</g>
<!-- Node34&#45;&gt;Node7 -->
<g id="edge73" class="edge">
<title>Node34&#45;&gt;Node7</title>
<path fill="none" stroke="midnightblue" d="M1972.27,-235.48C2037.66,-220.21 2152.16,-183.95 2115,-123 2081.17,-67.5 2047.77,-72.89 1985,-56 1822.95,-12.39 1300.85,-10.26 1135.04,-10.72"/>
<polygon fill="midnightblue" stroke="midnightblue" points="1134.63,-7.22 1124.65,-10.76 1134.66,-14.22 1134.63,-7.22"/>
</g>
<!-- Node35&#45;&gt;Node5 -->
<g id="edge78" class="edge">
<title>Node35&#45;&gt;Node5</title>
<path fill="none" stroke="midnightblue" d="M2072.86,-235.44C2044.98,-226.32 2000.65,-211.81 1969.6,-201.65"/>
<polygon fill="midnightblue" stroke="midnightblue" points="1970.62,-198.3 1960.02,-198.52 1968.44,-204.95 1970.62,-198.3"/>
</g>
<!-- Node35&#45;&gt;Node6 -->
<g id="edge79" class="edge">
<title>Node35&#45;&gt;Node6</title>
<path fill="none" stroke="midnightblue" d="M2093.9,-235.37C2083.22,-217.3 2058.33,-175.18 2044.23,-151.31"/>
<polygon fill="midnightblue" stroke="midnightblue" points="2047.18,-149.42 2039.08,-142.59 2041.15,-152.98 2047.18,-149.42"/>
</g>
<!-- Node35&#45;&gt;Node7 -->
<g id="edge80" class="edge">
<title>Node35&#45;&gt;Node7</title>
<path fill="none" stroke="midnightblue" d="M2105.35,-235.4C2119.55,-215.03 2151.2,-162.57 2132,-123 2111.01,-79.72 2092.07,-72.82 2047,-56 1961.39,-24.06 1321.12,-13.87 1134.75,-11.56"/>
<polygon fill="midnightblue" stroke="midnightblue" points="1134.72,-8.06 1124.67,-11.44 1134.63,-15.06 1134.72,-8.06"/>
</g>
<!-- Node36&#45;&gt;Node7 -->
<g id="edge83" class="edge">
<title>Node36&#45;&gt;Node7</title>
<path fill="none" stroke="midnightblue" d="M2184.39,-403.4C2205.37,-386.48 2248,-346.61 2248,-302 2248,-302 2248,-302 2248,-132 2248,-77.93 2203.64,-74.97 2153,-56 2057.19,-20.11 1334.59,-12.67 1134.96,-11.29"/>
<polygon fill="midnightblue" stroke="midnightblue" points="1134.77,-7.79 1124.75,-11.22 1134.73,-14.79 1134.77,-7.79"/>
</g>
</g>
</svg>
