<?xml version="1.0" encoding="UTF-8" standalone="no"?>
<!DOCTYPE svg PUBLIC "-//W3C//DTD SVG 1.1//EN"
 "http://www.w3.org/Graphics/SVG/1.1/DTD/svg11.dtd">
<!-- Generated by graphviz version 2.49.3 (20211027.1534)
 -->
<!-- Title: include/JSystem/JKernel/JKRAram.h Pages: 1 -->
<!--zoomable 106 -->
<svg id="main" version="1.1" xmlns="http://www.w3.org/2000/svg" xmlns:xlink="http://www.w3.org/1999/xlink" xml:space="preserve" onload="init(evt)">
<style type="text/css"><![CDATA[
.edge:hover path { stroke: red; }
.edge:hover polygon { stroke: red; fill: red; }
]]></style>
<script type="text/javascript"><![CDATA[
var edges = document.getElementsByTagName('g');
if (edges && edges.length) {
  for (var i=0;i<edges.length;i++) {
    if (edges[i].id.substr(0,4)=='edge') {
      edges[i].setAttribute('class','edge');
    }
  }
}
]]></script>
        <defs>
                <circle id="rim" cx="0" cy="0" r="7"/>
                <circle id="rim2" cx="0" cy="0" r="3.5"/>
                <g id="zoomPlus">
                        <use xlink:href="#rim" fill="#404040">
                                <set attributeName="fill" to="#808080" begin="zoomplus.mouseover" end="zoomplus.mouseout"/>
                        </use>
                        <path d="M-4,0h8M0,-4v8" fill="none" stroke="white" stroke-width="1.5" pointer-events="none"/>
                </g>
                <g id="zoomMin">
                        <use xlink:href="#rim" fill="#404040">
                                <set attributeName="fill" to="#808080" begin="zoomminus.mouseover" end="zoomminus.mouseout"/>
                        </use>
                        <path d="M-4,0h8" fill="none" stroke="white" stroke-width="1.5" pointer-events="none"/>
                </g>
                <g id="dirArrow">
                        <path fill="none" stroke="white" stroke-width="1.5" d="M0,-3.0v7 M-2.5,-0.5L0,-3.0L2.5,-0.5"/>
                </g>
               <g id="resetDef">
                       <use xlink:href="#rim2" fill="#404040">
                               <set attributeName="fill" to="#808080" begin="reset.mouseover" end="reset.mouseout"/>
                       </use>
               </g>
        </defs>

<script type="text/javascript">
var viewWidth = 1088;
var viewHeight = 106;
var sectionId = 'dynsection-1';
</script>
<script xlink:href="svgpan.js"/>
<svg id="graph" class="graph">
<g id="viewport">
<title>include/JSystem/JKernel/JKRAram.h</title>
<polygon fill="white" stroke="transparent" points="-4,4 -4,-102 1083.5,-102 1083.5,4 -4,4"/>
<!-- Node1 -->
<g id="node1" class="node">
<title>Node1</title>
<g id="a_node1"><a xlink:title=" ">
<polygon fill="#bfbfbf" stroke="black" points="465.5,-67.5 465.5,-97.5 590.5,-97.5 590.5,-67.5 465.5,-67.5"/>
<text text-anchor="start" x="473.5" y="-85.5" font-family="Helvetica,sans-Serif" font-size="10.00">include/JSystem/JKernel</text>
<text text-anchor="middle" x="528" y="-74.5" font-family="Helvetica,sans-Serif" font-size="10.00">/JKRAram.h</text>
</a>
</g>
</g>
<!-- Node2 -->
<g id="node2" class="node">
<title>Node2</title>
<g id="a_node2"><a xlink:href="JFWSystem_8cpp.html" target="_top" xlink:title=" ">
<polygon fill="white" stroke="black" points="0,-0.5 0,-30.5 130,-30.5 130,-0.5 0,-0.5"/>
<text text-anchor="start" x="8" y="-18.5" font-family="Helvetica,sans-Serif" font-size="10.00">libs/JSystem/JFramework</text>
<text text-anchor="middle" x="65" y="-7.5" font-family="Helvetica,sans-Serif" font-size="10.00">/JFWSystem.cpp</text>
</a>
</g>
</g>
<!-- Node1&#45;&gt;Node2 -->
<g id="edge1" class="edge">
<title>Node1&#45;&gt;Node2</title>
<path fill="none" stroke="midnightblue" d="M454.92,-73.44C376.58,-64.46 248.68,-48.85 139,-31 136.16,-30.54 133.26,-30.05 130.33,-29.54"/>
<polygon fill="midnightblue" stroke="midnightblue" points="454.83,-76.95 465.16,-74.6 455.62,-69.99 454.83,-76.95"/>
</g>
<!-- Node3 -->
<g id="node3" class="node">
<title>Node3</title>
<g id="a_node3"><a xlink:href="JKRAram_8cpp.html" target="_top" xlink:title=" ">
<polygon fill="white" stroke="black" points="148.5,-0.5 148.5,-30.5 257.5,-30.5 257.5,-0.5 148.5,-0.5"/>
<text text-anchor="start" x="156.5" y="-18.5" font-family="Helvetica,sans-Serif" font-size="10.00">libs/JSystem/JKernel</text>
<text text-anchor="middle" x="203" y="-7.5" font-family="Helvetica,sans-Serif" font-size="10.00">/JKRAram.cpp</text>
</a>
</g>
</g>
<!-- Node1&#45;&gt;Node3 -->
<g id="edge2" class="edge">
<title>Node1&#45;&gt;Node3</title>
<path fill="none" stroke="midnightblue" d="M455.48,-68.24C402.81,-58.44 329.87,-44.5 266,-31 263.25,-30.42 260.44,-29.81 257.61,-29.19"/>
<polygon fill="midnightblue" stroke="midnightblue" points="454.94,-71.7 465.41,-70.09 456.21,-64.82 454.94,-71.7"/>
</g>
<!-- Node4 -->
<g id="node4" class="node">
<title>Node4</title>
<g id="a_node4"><a xlink:href="JKRAramArchive_8cpp.html" target="_top" xlink:title=" ">
<polygon fill="white" stroke="black" points="275.5,-0.5 275.5,-30.5 388.5,-30.5 388.5,-0.5 275.5,-0.5"/>
<text text-anchor="start" x="283.5" y="-18.5" font-family="Helvetica,sans-Serif" font-size="10.00">libs/JSystem/JKernel</text>
<text text-anchor="middle" x="332" y="-7.5" font-family="Helvetica,sans-Serif" font-size="10.00">/JKRAramArchive.cpp</text>
</a>
</g>
</g>
<!-- Node1&#45;&gt;Node4 -->
<g id="edge3" class="edge">
<title>Node1&#45;&gt;Node4</title>
<path fill="none" stroke="midnightblue" d="M475.92,-64.23C444.21,-53.71 404.22,-40.45 374.45,-30.58"/>
<polygon fill="midnightblue" stroke="midnightblue" points="474.88,-67.57 485.47,-67.4 477.08,-60.93 474.88,-67.57"/>
</g>
<!-- Node5 -->
<g id="node5" class="node">
<title>Node5</title>
<g id="a_node5"><a xlink:href="JKRAramPiece_8cpp.html" target="_top" xlink:title=" ">
<polygon fill="white" stroke="black" points="406.5,-0.5 406.5,-30.5 515.5,-30.5 515.5,-0.5 406.5,-0.5"/>
<text text-anchor="start" x="414.5" y="-18.5" font-family="Helvetica,sans-Serif" font-size="10.00">libs/JSystem/JKernel</text>
<text text-anchor="middle" x="461" y="-7.5" font-family="Helvetica,sans-Serif" font-size="10.00">/JKRAramPiece.cpp</text>
</a>
</g>
</g>
<!-- Node1&#45;&gt;Node5 -->
<g id="edge4" class="edge">
<title>Node1&#45;&gt;Node5</title>
<path fill="none" stroke="midnightblue" d="M506.16,-60.31C496.11,-50.56 484.46,-39.26 475.51,-30.58"/>
<polygon fill="midnightblue" stroke="midnightblue" points="503.85,-62.94 513.46,-67.4 508.72,-57.92 503.85,-62.94"/>
</g>
<!-- Node6 -->
<g id="node6" class="node">
<title>Node6</title>
<g id="a_node6"><a xlink:href="JKRDvdAramRipper_8cpp.html" target="_top" xlink:title=" ">
<polygon fill="white" stroke="black" points="533.5,-0.5 533.5,-30.5 658.5,-30.5 658.5,-0.5 533.5,-0.5"/>
<text text-anchor="start" x="541.5" y="-18.5" font-family="Helvetica,sans-Serif" font-size="10.00">libs/JSystem/JKernel</text>
<text text-anchor="middle" x="596" y="-7.5" font-family="Helvetica,sans-Serif" font-size="10.00">/JKRDvdAramRipper.cpp</text>
</a>
</g>
</g>
<!-- Node1&#45;&gt;Node6 -->
<g id="edge5" class="edge">
<title>Node1&#45;&gt;Node6</title>
<path fill="none" stroke="midnightblue" d="M550.17,-60.31C560.37,-50.56 572.19,-39.26 581.27,-30.58"/>
<polygon fill="midnightblue" stroke="midnightblue" points="547.57,-57.96 542.75,-67.4 552.4,-63.02 547.57,-57.96"/>
</g>
<!-- Node7 -->
<g id="node7" class="node">
<title>Node7</title>
<g id="a_node7"><a xlink:href="d__s__logo_8cpp.html" target="_top" xlink:title=" ">
<polygon fill="white" stroke="black" points="676.5,-6 676.5,-25 783.5,-25 783.5,-6 676.5,-6"/>
<text text-anchor="middle" x="730" y="-13" font-family="Helvetica,sans-Serif" font-size="10.00">src/d/s/d_s_logo.cpp</text>
</a>
</g>
</g>
<!-- Node1&#45;&gt;Node7 -->
<g id="edge6" class="edge">
<title>Node1&#45;&gt;Node7</title>
<path fill="none" stroke="midnightblue" d="M581.55,-64.27C620.91,-51.6 672.71,-34.93 703.56,-25.01"/>
<polygon fill="midnightblue" stroke="midnightblue" points="580.28,-61 571.83,-67.4 582.42,-67.66 580.28,-61"/>
</g>
<!-- Node8 -->
<g id="node8" class="node">
<title>Node8</title>
<g id="a_node8"><a xlink:href="m__Do__machine__exception_8cpp.html" target="_top" xlink:title=" ">
<polygon fill="white" stroke="black" points="801.5,-0.5 801.5,-30.5 930.5,-30.5 930.5,-0.5 801.5,-0.5"/>
<text text-anchor="start" x="809.5" y="-18.5" font-family="Helvetica,sans-Serif" font-size="10.00">src/m_Do/m_Do_machine</text>
<text text-anchor="middle" x="866" y="-7.5" font-family="Helvetica,sans-Serif" font-size="10.00">_exception.cpp</text>
</a>
</g>
</g>
<!-- Node1&#45;&gt;Node8 -->
<g id="edge7" class="edge">
<title>Node1&#45;&gt;Node8</title>
<path fill="none" stroke="midnightblue" d="M600.7,-67.8C653.97,-57.73 728,-43.65 793,-31 795.66,-30.48 798.38,-29.95 801.13,-29.41"/>
<polygon fill="midnightblue" stroke="midnightblue" points="599.85,-64.4 590.67,-69.7 601.15,-71.28 599.85,-64.4"/>
</g>
<!-- Node9 -->
<g id="node9" class="node">
<title>Node9</title>
<g id="a_node9"><a xlink:href="m__Do__main_8cpp.html" target="_top" xlink:title=" ">
<polygon fill="white" stroke="black" points="948.5,-6 948.5,-25 1079.5,-25 1079.5,-6 948.5,-6"/>
<text text-anchor="middle" x="1014" y="-13" font-family="Helvetica,sans-Serif" font-size="10.00">src/m_Do/m_Do_main.cpp</text>
</a>
</g>
</g>
<!-- Node1&#45;&gt;Node9 -->
<g id="edge8" class="edge">
<title>Node1&#45;&gt;Node9</title>
<path fill="none" stroke="midnightblue" d="M600.69,-74.18C683.18,-65.5 821.64,-49.83 940,-31 950.86,-29.27 962.56,-27.12 973.38,-25"/>
<polygon fill="midnightblue" stroke="midnightblue" points="600.25,-70.71 590.67,-75.23 600.98,-77.67 600.25,-70.71"/>
</g>
</g>
</svg>
        <g id="navigator" transform="translate(0 0)" fill="#404254">
                <rect fill="#f2f5e9" fill-opacity="0.5" stroke="#606060" stroke-width=".5" x="0" y="0" width="60" height="60"/>
                <use id="zoomplus" xlink:href="#zoomPlus" x="17" y="9" onmousedown="handleZoom(evt,'in')"/>
                <use id="zoomminus" xlink:href="#zoomMin" x="42" y="9" onmousedown="handleZoom(evt,'out')"/>
                <use id="reset" xlink:href="#resetDef" x="30" y="36" onmousedown="handleReset()"/>
                <g id="arrowUp" xlink:href="#dirArrow" transform="translate(30 24)" onmousedown="handlePan(0,-1)">
                  <use xlink:href="#rim" fill="#404040">
                        <set attributeName="fill" to="#808080" begin="arrowUp.mouseover" end="arrowUp.mouseout"/>
                  </use>
                  <path fill="none" stroke="white" stroke-width="1.5" d="M0,-3.0v7 M-2.5,-0.5L0,-3.0L2.5,-0.5"/>
                </g>
                <g id="arrowRight" xlink:href="#dirArrow" transform="rotate(90) translate(36 -43)" onmousedown="handlePan(1,0)">
                  <use xlink:href="#rim" fill="#404040">
                        <set attributeName="fill" to="#808080" begin="arrowRight.mouseover" end="arrowRight.mouseout"/>
                  </use>
                  <path fill="none" stroke="white" stroke-width="1.5" d="M0,-3.0v7 M-2.5,-0.5L0,-3.0L2.5,-0.5"/>
                </g>
                <g id="arrowDown" xlink:href="#dirArrow" transform="rotate(180) translate(-30 -48)" onmousedown="handlePan(0,1)">
                  <use xlink:href="#rim" fill="#404040">
                        <set attributeName="fill" to="#808080" begin="arrowDown.mouseover" end="arrowDown.mouseout"/>
                  </use>
                  <path fill="none" stroke="white" stroke-width="1.5" d="M0,-3.0v7 M-2.5,-0.5L0,-3.0L2.5,-0.5"/>
                </g>
                <g id="arrowLeft" xlink:href="#dirArrow" transform="rotate(270) translate(-36 17)" onmousedown="handlePan(-1,0)">
                  <use xlink:href="#rim" fill="#404040">
                        <set attributeName="fill" to="#808080" begin="arrowLeft.mouseover" end="arrowLeft.mouseout"/>
                  </use>
                  <path fill="none" stroke="white" stroke-width="1.5" d="M0,-3.0v7 M-2.5,-0.5L0,-3.0L2.5,-0.5"/>
                </g>
        </g>
        <svg viewBox="0 0 15 15" width="100%" height="30px" preserveAspectRatio="xMaxYMin meet">
         <g id="arrow_out" transform="scale(0.3 0.3)">
          <a xlink:href="JKRAram_8h__dep__incl_org.svg" target="_base">
           <rect id="button" ry="5" rx="5" y="6" x="6" height="38" width="38"
                fill="#f2f5e9" fill-opacity="0.5" stroke="#606060" stroke-width="1.0"/>
           <path id="arrow"
             d="M 11.500037,31.436501 C 11.940474,20.09759 22.043105,11.32322 32.158766,21.979434 L 37.068811,17.246167 C 37.068811,17.246167 37.088388,32 37.088388,32 L 22.160133,31.978069 C 22.160133,31.978069 26.997745,27.140456 26.997745,27.140456 C 18.528582,18.264221 13.291696,25.230495 11.500037,31.436501 z"
             style="fill:#404040;"/>
          </a>
         </g>
        </svg>
</svg>
