<?xml version="1.0" encoding="UTF-8" standalone="no"?>
<!DOCTYPE svg PUBLIC "-//W3C//DTD SVG 1.1//EN"
 "http://www.w3.org/Graphics/SVG/1.1/DTD/svg11.dtd">
<!-- Generated by graphviz version 3.0.0 (20221109.1736)
 -->
<!-- Title: include/JSystem/JKernel/JKRDvdFile.h Pages: 1 -->
<svg width="2013pt" height="330pt"
 viewBox="0.00 0.00 2012.50 330.00" xmlns="http://www.w3.org/2000/svg" xmlns:xlink="http://www.w3.org/1999/xlink">
<g id="graph0" class="graph" transform="scale(1 1) rotate(0) translate(4 326)">
<title>include/JSystem/JKernel/JKRDvdFile.h</title>
<polygon fill="white" stroke="transparent" points="-4,4 -4,-326 2008.5,-326 2008.5,4 -4,4"/>
<!-- Node1 -->
<g id="node1" class="node">
<title>Node1</title>
<g id="a_node1"><a xlink:title=" ">
<polygon fill="#bfbfbf" stroke="black" points="197,-291.5 197,-321.5 322,-321.5 322,-291.5 197,-291.5"/>
<text text-anchor="start" x="205" y="-309.5" font-family="Helvetica,sans-Serif" font-size="10.00">include/JSystem/JKernel</text>
<text text-anchor="middle" x="259.5" y="-298.5" font-family="Helvetica,sans-Serif" font-size="10.00">/JKRDvdFile.h</text>
</a>
</g>
</g>
<!-- Node2 -->
<g id="node2" class="node">
<title>Node2</title>
<g id="a_node2"><a xlink:href="JKRFile_8h.html" target="_top" xlink:title=" ">
<polygon fill="white" stroke="black" points="58.5,-179.5 58.5,-198.5 194.5,-198.5 194.5,-179.5 58.5,-179.5"/>
<text text-anchor="middle" x="126.5" y="-186.5" font-family="Helvetica,sans-Serif" font-size="10.00">JSystem/JKernel/JKRFile.h</text>
</a>
</g>
</g>
<!-- Node1&#45;&gt;Node2 -->
<g id="edge1" class="edge">
<title>Node1&#45;&gt;Node2</title>
<path fill="none" stroke="midnightblue" d="M243.19,-291.34C218.03,-269.49 169.95,-227.73 144.05,-205.24"/>
<polygon fill="midnightblue" stroke="midnightblue" points="146.33,-202.58 136.48,-198.67 141.74,-207.87 146.33,-202.58"/>
</g>
<!-- Node5 -->
<g id="node5" class="node">
<title>Node5</title>
<g id="a_node5"><a xlink:href="types_8h.html" target="_top" xlink:title=" ">
<polygon fill="white" stroke="black" points="991,-0.5 991,-19.5 1072,-19.5 1072,-0.5 991,-0.5"/>
<text text-anchor="middle" x="1031.5" y="-7.5" font-family="Helvetica,sans-Serif" font-size="10.00">dolphin/types.h</text>
</a>
</g>
</g>
<!-- Node1&#45;&gt;Node5 -->
<g id="edge57" class="edge">
<title>Node1&#45;&gt;Node5</title>
<path fill="none" stroke="midnightblue" d="M252.57,-291.13C241.92,-266.89 224.46,-216.82 241.5,-179 275.38,-103.79 304.41,-87.87 380.5,-56 488.47,-10.77 846.34,-9.24 980.29,-10.33"/>
<polygon fill="midnightblue" stroke="midnightblue" points="980.64,-13.83 990.68,-10.42 980.71,-6.83 980.64,-13.83"/>
</g>
<!-- Node6 -->
<g id="node6" class="node">
<title>Node6</title>
<g id="a_node6"><a xlink:href="dvd_8h.html" target="_top" xlink:title=" ">
<polygon fill="white" stroke="black" points="250.5,-179.5 250.5,-198.5 342.5,-198.5 342.5,-179.5 250.5,-179.5"/>
<text text-anchor="middle" x="296.5" y="-186.5" font-family="Helvetica,sans-Serif" font-size="10.00">dolphin/dvd/dvd.h</text>
</a>
</g>
</g>
<!-- Node1&#45;&gt;Node6 -->
<g id="edge7" class="edge">
<title>Node1&#45;&gt;Node6</title>
<path fill="none" stroke="midnightblue" d="M264.04,-291.34C270.73,-270.43 283.27,-231.31 290.65,-208.27"/>
<polygon fill="midnightblue" stroke="midnightblue" points="294.01,-209.26 293.72,-198.67 287.34,-207.12 294.01,-209.26"/>
</g>
<!-- Node7 -->
<g id="node7" class="node">
<title>Node7</title>
<g id="a_node7"><a xlink:href="OS_8h.html" target="_top" xlink:title=" ">
<polygon fill="white" stroke="black" points="1078.5,-235.5 1078.5,-254.5 1164.5,-254.5 1164.5,-235.5 1078.5,-235.5"/>
<text text-anchor="middle" x="1121.5" y="-242.5" font-family="Helvetica,sans-Serif" font-size="10.00">dolphin/os/OS.h</text>
</a>
</g>
</g>
<!-- Node1&#45;&gt;Node7 -->
<g id="edge9" class="edge">
<title>Node1&#45;&gt;Node7</title>
<path fill="none" stroke="midnightblue" d="M322.19,-301.17C484.5,-289.97 916.36,-260.16 1067.97,-249.69"/>
<polygon fill="midnightblue" stroke="midnightblue" points="1068.66,-253.16 1078.4,-248.98 1068.18,-246.17 1068.66,-253.16"/>
</g>
<!-- Node3 -->
<g id="node3" class="node">
<title>Node3</title>
<g id="a_node3"><a xlink:href="JKRDisposer_8h.html" target="_top" xlink:title=" ">
<polygon fill="white" stroke="black" points="23.5,-123.5 23.5,-142.5 181.5,-142.5 181.5,-123.5 23.5,-123.5"/>
<text text-anchor="middle" x="102.5" y="-130.5" font-family="Helvetica,sans-Serif" font-size="10.00">JSystem/JKernel/JKRDisposer.h</text>
</a>
</g>
</g>
<!-- Node2&#45;&gt;Node3 -->
<g id="edge2" class="edge">
<title>Node2&#45;&gt;Node3</title>
<path fill="none" stroke="midnightblue" d="M122.54,-179.08C119.29,-171.77 114.58,-161.18 110.55,-152.1"/>
<polygon fill="midnightblue" stroke="midnightblue" points="113.65,-150.47 106.39,-142.75 107.25,-153.31 113.65,-150.47"/>
</g>
<!-- Node2&#45;&gt;Node5 -->
<g id="edge6" class="edge">
<title>Node2&#45;&gt;Node5</title>
<path fill="none" stroke="midnightblue" d="M143.23,-179.36C157.29,-171.43 177.15,-158.57 190.5,-143 218.57,-110.25 197.52,-79.78 233.5,-56 295.59,-14.96 814.06,-11.1 980.37,-10.93"/>
<polygon fill="midnightblue" stroke="midnightblue" points="980.81,-14.43 990.81,-10.92 980.81,-7.43 980.81,-14.43"/>
</g>
<!-- Node4 -->
<g id="node4" class="node">
<title>Node4</title>
<g id="a_node4"><a xlink:href="JSUList_8h.html" target="_top" xlink:title=" ">
<polygon fill="white" stroke="black" points="0,-62 0,-81 143,-81 143,-62 0,-62"/>
<text text-anchor="middle" x="71.5" y="-69" font-family="Helvetica,sans-Serif" font-size="10.00">JSystem/JSupport/JSUList.h</text>
</a>
</g>
</g>
<!-- Node3&#45;&gt;Node4 -->
<g id="edge3" class="edge">
<title>Node3&#45;&gt;Node4</title>
<path fill="none" stroke="midnightblue" d="M98.06,-123.48C93.55,-114.82 86.43,-101.15 80.69,-90.15"/>
<polygon fill="midnightblue" stroke="midnightblue" points="83.66,-88.26 75.93,-81.01 77.45,-91.49 83.66,-88.26"/>
</g>
<!-- Node3&#45;&gt;Node5 -->
<g id="edge5" class="edge">
<title>Node3&#45;&gt;Node5</title>
<path fill="none" stroke="midnightblue" d="M111.4,-123.49C130.69,-105.26 176.15,-63.49 195.5,-56 268.52,-27.72 810.95,-15.17 980.8,-11.9"/>
<polygon fill="midnightblue" stroke="midnightblue" points="981.04,-15.4 990.98,-11.71 980.91,-8.4 981.04,-15.4"/>
</g>
<!-- Node4&#45;&gt;Node5 -->
<g id="edge4" class="edge">
<title>Node4&#45;&gt;Node5</title>
<path fill="none" stroke="midnightblue" d="M116,-61.99C129.3,-59.72 143.95,-57.49 157.5,-56 469.19,-21.82 846.33,-13.5 980.84,-11.56"/>
<polygon fill="midnightblue" stroke="midnightblue" points="980.9,-15.06 990.85,-11.42 980.81,-8.06 980.9,-15.06"/>
</g>
<!-- Node6&#45;&gt;Node5 -->
<g id="edge8" class="edge">
<title>Node6&#45;&gt;Node5</title>
<path fill="none" stroke="midnightblue" d="M301.82,-179.49C317.67,-155.02 367.35,-84.36 429.5,-56 527.11,-11.46 853.66,-9.38 980.5,-10.33"/>
<polygon fill="midnightblue" stroke="midnightblue" points="980.69,-13.83 990.72,-10.42 980.75,-6.83 980.69,-13.83"/>
</g>
<!-- Node7&#45;&gt;Node6 -->
<g id="edge12" class="edge">
<title>Node7&#45;&gt;Node6</title>
<path fill="none" stroke="midnightblue" d="M1078.37,-243.05C962.59,-240.16 635.14,-229.79 352.69,-199.01"/>
<polygon fill="midnightblue" stroke="midnightblue" points="352.99,-195.53 342.67,-197.91 352.22,-202.48 352.99,-195.53"/>
</g>
<!-- Node8 -->
<g id="node8" class="node">
<title>Node8</title>
<g id="a_node8"><a xlink:href="____va__arg_8h.html" target="_top" xlink:title=" ">
<polygon fill="white" stroke="black" points="1304.5,-56.5 1304.5,-86.5 1414.5,-86.5 1414.5,-56.5 1304.5,-56.5"/>
<text text-anchor="start" x="1312.5" y="-74.5" font-family="Helvetica,sans-Serif" font-size="10.00">Runtime.PPCEABI.H/</text>
<text text-anchor="middle" x="1359.5" y="-63.5" font-family="Helvetica,sans-Serif" font-size="10.00">__va_arg.h</text>
</a>
</g>
</g>
<!-- Node7&#45;&gt;Node8 -->
<g id="edge10" class="edge">
<title>Node7&#45;&gt;Node8</title>
<path fill="none" stroke="midnightblue" d="M1164.67,-238.14C1195.58,-232.27 1236.96,-220.82 1267.5,-199 1305.45,-171.88 1333.89,-124.21 1348.5,-95.77"/>
<polygon fill="midnightblue" stroke="midnightblue" points="1351.75,-97.09 1353.08,-86.58 1345.48,-93.97 1351.75,-97.09"/>
</g>
<!-- Node9 -->
<g id="node9" class="node">
<title>Node9</title>
<g id="a_node9"><a xlink:href="OSAlarm_8h.html" target="_top" xlink:title=" ">
<polygon fill="white" stroke="black" points="925,-179.5 925,-198.5 1036,-198.5 1036,-179.5 925,-179.5"/>
<text text-anchor="middle" x="980.5" y="-186.5" font-family="Helvetica,sans-Serif" font-size="10.00">dolphin/os/OSAlarm.h</text>
</a>
</g>
</g>
<!-- Node7&#45;&gt;Node9 -->
<g id="edge13" class="edge">
<title>Node7&#45;&gt;Node9</title>
<path fill="none" stroke="midnightblue" d="M1099.16,-235.44C1075.75,-226.48 1038.76,-212.31 1012.31,-202.18"/>
<polygon fill="midnightblue" stroke="midnightblue" points="1013.33,-198.82 1002.74,-198.52 1010.82,-205.36 1013.33,-198.82"/>
</g>
<!-- Node10 -->
<g id="node10" class="node">
<title>Node10</title>
<g id="a_node10"><a xlink:href="OSTime_8h.html" target="_top" xlink:title=" ">
<polygon fill="white" stroke="black" points="822,-123.5 822,-142.5 929,-142.5 929,-123.5 822,-123.5"/>
<text text-anchor="middle" x="875.5" y="-130.5" font-family="Helvetica,sans-Serif" font-size="10.00">dolphin/os/OSTime.h</text>
</a>
</g>
</g>
<!-- Node7&#45;&gt;Node10 -->
<g id="edge56" class="edge">
<title>Node7&#45;&gt;Node10</title>
<path fill="none" stroke="midnightblue" d="M1113.85,-235.45C1100.93,-221.54 1073.35,-194.05 1044.5,-179 1011.68,-161.89 971.81,-150.87 939.03,-144.02"/>
<polygon fill="midnightblue" stroke="midnightblue" points="939.59,-140.57 929.1,-142.03 938.21,-147.43 939.59,-140.57"/>
</g>
<!-- Node11 -->
<g id="node11" class="node">
<title>Node11</title>
<g id="a_node11"><a xlink:href="OSError_8h.html" target="_top" xlink:title=" ">
<polygon fill="white" stroke="black" points="698.5,-123.5 698.5,-142.5 804.5,-142.5 804.5,-123.5 698.5,-123.5"/>
<text text-anchor="middle" x="751.5" y="-130.5" font-family="Helvetica,sans-Serif" font-size="10.00">dolphin/os/OSError.h</text>
</a>
</g>
</g>
<!-- Node7&#45;&gt;Node11 -->
<g id="edge28" class="edge">
<title>Node7&#45;&gt;Node11</title>
<path fill="none" stroke="midnightblue" d="M1078.14,-237.39C1035.93,-230.29 970.31,-217.48 915.5,-199 895.53,-192.27 891.95,-187.12 872.5,-179 843.6,-166.93 810.19,-154.63 785.82,-145.94"/>
<polygon fill="midnightblue" stroke="midnightblue" points="786.88,-142.61 776.29,-142.57 784.55,-149.21 786.88,-142.61"/>
</g>
<!-- Node12 -->
<g id="node12" class="node">
<title>Node12</title>
<g id="a_node12"><a xlink:href="OSContext_8h.html" target="_top" xlink:title=" ">
<polygon fill="white" stroke="black" points="611,-62 611,-81 730,-81 730,-62 611,-62"/>
<text text-anchor="middle" x="670.5" y="-69" font-family="Helvetica,sans-Serif" font-size="10.00">dolphin/os/OSContext.h</text>
</a>
</g>
</g>
<!-- Node7&#45;&gt;Node12 -->
<g id="edge27" class="edge">
<title>Node7&#45;&gt;Node12</title>
<path fill="none" stroke="midnightblue" d="M1078.44,-240.85C1027.82,-236.1 941.9,-224.75 872.5,-199 856.06,-192.9 854.75,-185.57 838.5,-179 775.34,-153.45 738.3,-190.54 689.5,-143 675.76,-129.62 671.63,-107.43 670.54,-91.52"/>
<polygon fill="midnightblue" stroke="midnightblue" points="674.03,-91.14 670.2,-81.26 667.03,-91.37 674.03,-91.14"/>
</g>
<!-- Node13 -->
<g id="node13" class="node">
<title>Node13</title>
<g id="a_node13"><a xlink:href="OSAlloc_8h.html" target="_top" xlink:title=" ">
<polygon fill="white" stroke="black" points="1375,-123.5 1375,-142.5 1482,-142.5 1482,-123.5 1375,-123.5"/>
<text text-anchor="middle" x="1428.5" y="-130.5" font-family="Helvetica,sans-Serif" font-size="10.00">dolphin/os/OSAlloc.h</text>
</a>
</g>
</g>
<!-- Node7&#45;&gt;Node13 -->
<g id="edge19" class="edge">
<title>Node7&#45;&gt;Node13</title>
<path fill="none" stroke="midnightblue" d="M1164.89,-243.17C1214.69,-240.6 1297.59,-231.31 1360.5,-199 1383.09,-187.4 1403.32,-165.91 1415.73,-150.83"/>
<polygon fill="midnightblue" stroke="midnightblue" points="1418.62,-152.82 1422.09,-142.81 1413.13,-148.47 1418.62,-152.82"/>
</g>
<!-- Node14 -->
<g id="node14" class="node">
<title>Node14</title>
<g id="a_node14"><a xlink:href="OSArena_8h.html" target="_top" xlink:title=" ">
<polygon fill="white" stroke="black" points="1471,-62 1471,-81 1582,-81 1582,-62 1471,-62"/>
<text text-anchor="middle" x="1526.5" y="-69" font-family="Helvetica,sans-Serif" font-size="10.00">dolphin/os/OSArena.h</text>
</a>
</g>
</g>
<!-- Node7&#45;&gt;Node14 -->
<g id="edge21" class="edge">
<title>Node7&#45;&gt;Node14</title>
<path fill="none" stroke="midnightblue" d="M1164.68,-241.18C1218.4,-236.67 1312.35,-225.47 1388.5,-199 1437.35,-182.02 1454.48,-180.11 1490.5,-143 1504.96,-128.1 1514.9,-106.22 1520.61,-90.8"/>
<polygon fill="midnightblue" stroke="midnightblue" points="1523.93,-91.91 1523.89,-81.32 1517.31,-89.62 1523.93,-91.91"/>
</g>
<!-- Node15 -->
<g id="node15" class="node">
<title>Node15</title>
<g id="a_node15"><a xlink:href="OSAudioSystem_8h.html" target="_top" xlink:title=" ">
<polygon fill="white" stroke="black" points="1539,-123.5 1539,-142.5 1682,-142.5 1682,-123.5 1539,-123.5"/>
<text text-anchor="middle" x="1610.5" y="-130.5" font-family="Helvetica,sans-Serif" font-size="10.00">dolphin/os/OSAudioSystem.h</text>
</a>
</g>
</g>
<!-- Node7&#45;&gt;Node15 -->
<g id="edge23" class="edge">
<title>Node7&#45;&gt;Node15</title>
<path fill="none" stroke="midnightblue" d="M1164.71,-241.54C1252.46,-236.13 1448.55,-221.83 1511.5,-199 1543.01,-187.57 1574.54,-164.34 1593.28,-148.97"/>
<polygon fill="midnightblue" stroke="midnightblue" points="1595.54,-151.64 1600.95,-142.53 1591.04,-146.28 1595.54,-151.64"/>
</g>
<!-- Node16 -->
<g id="node16" class="node">
<title>Node16</title>
<g id="a_node16"><a xlink:href="OSCache_8h.html" target="_top" xlink:title=" ">
<polygon fill="white" stroke="black" points="1564,-179.5 1564,-198.5 1677,-198.5 1677,-179.5 1564,-179.5"/>
<text text-anchor="middle" x="1620.5" y="-186.5" font-family="Helvetica,sans-Serif" font-size="10.00">dolphin/os/OSCache.h</text>
</a>
</g>
</g>
<!-- Node7&#45;&gt;Node16 -->
<g id="edge25" class="edge">
<title>Node7&#45;&gt;Node16</title>
<path fill="none" stroke="midnightblue" d="M1164.67,-239.77C1241.91,-232.13 1408.86,-215.31 1549.5,-199 1550.97,-198.83 1552.45,-198.66 1553.94,-198.48"/>
<polygon fill="midnightblue" stroke="midnightblue" points="1554.42,-201.95 1563.93,-197.28 1553.59,-195 1554.42,-201.95"/>
</g>
<!-- Node17 -->
<g id="node17" class="node">
<title>Node17</title>
<g id="a_node17"><a xlink:href="OSExec_8h.html" target="_top" xlink:title=" ">
<polygon fill="white" stroke="black" points="1695,-179.5 1695,-198.5 1802,-198.5 1802,-179.5 1695,-179.5"/>
<text text-anchor="middle" x="1748.5" y="-186.5" font-family="Helvetica,sans-Serif" font-size="10.00">dolphin/os/OSExec.h</text>
</a>
</g>
</g>
<!-- Node7&#45;&gt;Node17 -->
<g id="edge29" class="edge">
<title>Node7&#45;&gt;Node17</title>
<path fill="none" stroke="midnightblue" d="M1164.75,-241.47C1257.78,-235.83 1484.04,-221.05 1684.77,-199.01"/>
<polygon fill="midnightblue" stroke="midnightblue" points="1685.36,-202.47 1694.91,-197.89 1684.59,-195.51 1685.36,-202.47"/>
</g>
<!-- Node18 -->
<g id="node18" class="node">
<title>Node18</title>
<g id="a_node18"><a xlink:href="OSFont_8h.html" target="_top" xlink:title=" ">
<polygon fill="white" stroke="black" points="1777,-62 1777,-81 1882,-81 1882,-62 1777,-62"/>
<text text-anchor="middle" x="1829.5" y="-69" font-family="Helvetica,sans-Serif" font-size="10.00">dolphin/os/OSFont.h</text>
</a>
</g>
</g>
<!-- Node7&#45;&gt;Node18 -->
<g id="edge31" class="edge">
<title>Node7&#45;&gt;Node18</title>
<path fill="none" stroke="midnightblue" d="M1164.71,-244.26C1308.27,-244.71 1763.01,-242.66 1810.5,-199 1840.24,-171.65 1837.31,-119.29 1833.12,-91.27"/>
<polygon fill="midnightblue" stroke="midnightblue" points="1836.53,-90.48 1831.4,-81.21 1829.63,-91.66 1836.53,-90.48"/>
</g>
<!-- Node19 -->
<g id="node19" class="node">
<title>Node19</title>
<g id="a_node19"><a xlink:href="OSInterrupt_8h.html" target="_top" xlink:title=" ">
<polygon fill="white" stroke="black" points="386.5,-123.5 386.5,-142.5 508.5,-142.5 508.5,-123.5 386.5,-123.5"/>
<text text-anchor="middle" x="447.5" y="-130.5" font-family="Helvetica,sans-Serif" font-size="10.00">dolphin/os/OSInterrupt.h</text>
</a>
</g>
</g>
<!-- Node7&#45;&gt;Node19 -->
<g id="edge33" class="edge">
<title>Node7&#45;&gt;Node19</title>
<path fill="none" stroke="midnightblue" d="M1078.41,-243.1C963.8,-240.29 653.65,-229.97 556.5,-199 521.97,-187.99 486.81,-164.29 466.09,-148.76"/>
<polygon fill="midnightblue" stroke="midnightblue" points="468.2,-145.97 458.13,-142.66 463.94,-151.52 468.2,-145.97"/>
</g>
<!-- Node20 -->
<g id="node20" class="node">
<title>Node20</title>
<g id="a_node20"><a xlink:href="OSLink_8h.html" target="_top" xlink:title=" ">
<polygon fill="white" stroke="black" points="1900.5,-62 1900.5,-81 2004.5,-81 2004.5,-62 1900.5,-62"/>
<text text-anchor="middle" x="1952.5" y="-69" font-family="Helvetica,sans-Serif" font-size="10.00">dolphin/os/OSLink.h</text>
</a>
</g>
</g>
<!-- Node7&#45;&gt;Node20 -->
<g id="edge35" class="edge">
<title>Node7&#45;&gt;Node20</title>
<path fill="none" stroke="midnightblue" d="M1164.72,-243.1C1309.57,-239.82 1772.14,-227.23 1832.5,-199 1883.76,-175.02 1924.15,-118.6 1942.21,-89.91"/>
<polygon fill="midnightblue" stroke="midnightblue" points="1945.42,-91.37 1947.65,-81.02 1939.44,-87.72 1945.42,-91.37"/>
</g>
<!-- Node21 -->
<g id="node21" class="node">
<title>Node21</title>
<g id="a_node21"><a xlink:href="OSMemory_8h.html" target="_top" xlink:title=" ">
<polygon fill="white" stroke="black" points="360.5,-179.5 360.5,-198.5 480.5,-198.5 480.5,-179.5 360.5,-179.5"/>
<text text-anchor="middle" x="420.5" y="-186.5" font-family="Helvetica,sans-Serif" font-size="10.00">dolphin/os/OSMemory.h</text>
</a>
</g>
</g>
<!-- Node7&#45;&gt;Node21 -->
<g id="edge37" class="edge">
<title>Node7&#45;&gt;Node21</title>
<path fill="none" stroke="midnightblue" d="M1078.49,-241.65C976.8,-235.92 713.66,-220.18 494.5,-199 493.23,-198.88 491.95,-198.75 490.66,-198.62"/>
<polygon fill="midnightblue" stroke="midnightblue" points="490.96,-195.13 480.65,-197.57 490.23,-202.09 490.96,-195.13"/>
</g>
<!-- Node22 -->
<g id="node22" class="node">
<title>Node22</title>
<g id="a_node22"><a xlink:href="OSMessage_8h.html" target="_top" xlink:title=" ">
<polygon fill="white" stroke="black" points="705,-179.5 705,-198.5 830,-198.5 830,-179.5 705,-179.5"/>
<text text-anchor="middle" x="767.5" y="-186.5" font-family="Helvetica,sans-Serif" font-size="10.00">dolphin/os/OSMessage.h</text>
</a>
</g>
</g>
<!-- Node7&#45;&gt;Node22 -->
<g id="edge40" class="edge">
<title>Node7&#45;&gt;Node22</title>
<path fill="none" stroke="midnightblue" d="M1078.45,-237.43C1017.42,-228.12 905.22,-211.01 833.6,-200.08"/>
<polygon fill="midnightblue" stroke="midnightblue" points="833.75,-196.57 823.34,-198.52 832.7,-203.49 833.75,-196.57"/>
</g>
<!-- Node23 -->
<g id="node23" class="node">
<title>Node23</title>
<g id="a_node23"><a xlink:href="OSThread_8h.html" target="_top" xlink:title=" ">
<polygon fill="white" stroke="black" points="526.5,-123.5 526.5,-142.5 642.5,-142.5 642.5,-123.5 526.5,-123.5"/>
<text text-anchor="middle" x="584.5" y="-130.5" font-family="Helvetica,sans-Serif" font-size="10.00">dolphin/os/OSThread.h</text>
</a>
</g>
</g>
<!-- Node7&#45;&gt;Node23 -->
<g id="edge55" class="edge">
<title>Node7&#45;&gt;Node23</title>
<path fill="none" stroke="midnightblue" d="M1078.33,-243.79C953.71,-242.74 600.05,-236.46 565.5,-199 553.47,-185.96 562.23,-165.7 571.45,-151.27"/>
<polygon fill="midnightblue" stroke="midnightblue" points="574.53,-152.97 577.36,-142.76 568.78,-148.98 574.53,-152.97"/>
</g>
<!-- Node24 -->
<g id="node24" class="node">
<title>Node24</title>
<g id="a_node24"><a xlink:href="OSMutex_8h.html" target="_top" xlink:title=" ">
<polygon fill="white" stroke="black" points="574.5,-179.5 574.5,-198.5 686.5,-198.5 686.5,-179.5 574.5,-179.5"/>
<text text-anchor="middle" x="630.5" y="-186.5" font-family="Helvetica,sans-Serif" font-size="10.00">dolphin/os/OSMutex.h</text>
</a>
</g>
</g>
<!-- Node7&#45;&gt;Node24 -->
<g id="edge43" class="edge">
<title>Node7&#45;&gt;Node24</title>
<path fill="none" stroke="midnightblue" d="M1078.21,-239.89C1002.9,-232.65 842.62,-216.78 696.55,-199.09"/>
<polygon fill="midnightblue" stroke="midnightblue" points="696.85,-195.6 686.5,-197.87 696.01,-202.55 696.85,-195.6"/>
</g>
<!-- Node25 -->
<g id="node25" class="node">
<title>Node25</title>
<g id="a_node25"><a xlink:href="OSReboot_8h.html" target="_top" xlink:title=" ">
<polygon fill="white" stroke="black" points="849.5,-62 849.5,-81 965.5,-81 965.5,-62 849.5,-62"/>
<text text-anchor="middle" x="907.5" y="-69" font-family="Helvetica,sans-Serif" font-size="10.00">dolphin/os/OSReboot.h</text>
</a>
</g>
</g>
<!-- Node7&#45;&gt;Node25 -->
<g id="edge45" class="edge">
<title>Node7&#45;&gt;Node25</title>
<path fill="none" stroke="midnightblue" d="M1117.14,-235.15C1109.9,-221.31 1094.13,-194.52 1073.5,-179 1036.76,-151.35 1015.07,-168.04 976.5,-143 953.92,-128.35 933.06,-105.11 920.32,-89.36"/>
<polygon fill="midnightblue" stroke="midnightblue" points="922.73,-86.77 913.8,-81.07 917.23,-91.09 922.73,-86.77"/>
</g>
<!-- Node26 -->
<g id="node26" class="node">
<title>Node26</title>
<g id="a_node26"><a xlink:href="OSReset_8h.html" target="_top" xlink:title=" ">
<polygon fill="white" stroke="black" points="986,-123.5 986,-142.5 1097,-142.5 1097,-123.5 986,-123.5"/>
<text text-anchor="middle" x="1041.5" y="-130.5" font-family="Helvetica,sans-Serif" font-size="10.00">dolphin/os/OSReset.h</text>
</a>
</g>
</g>
<!-- Node7&#45;&gt;Node26 -->
<g id="edge47" class="edge">
<title>Node7&#45;&gt;Node26</title>
<path fill="none" stroke="midnightblue" d="M1123.2,-235.24C1125.29,-221.98 1127.33,-196.52 1116.5,-179 1107.46,-164.38 1091.75,-153.89 1077.04,-146.74"/>
<polygon fill="midnightblue" stroke="midnightblue" points="1078.15,-143.4 1067.59,-142.51 1075.29,-149.79 1078.15,-143.4"/>
</g>
<!-- Node27 -->
<g id="node27" class="node">
<title>Node27</title>
<g id="a_node27"><a xlink:href="OSResetSW_8h.html" target="_top" xlink:title=" ">
<polygon fill="white" stroke="black" points="1115,-123.5 1115,-142.5 1242,-142.5 1242,-123.5 1115,-123.5"/>
<text text-anchor="middle" x="1178.5" y="-130.5" font-family="Helvetica,sans-Serif" font-size="10.00">dolphin/os/OSResetSW.h</text>
</a>
</g>
</g>
<!-- Node7&#45;&gt;Node27 -->
<g id="edge49" class="edge">
<title>Node7&#45;&gt;Node27</title>
<path fill="none" stroke="midnightblue" d="M1129.12,-235.19C1136.38,-226.46 1147.25,-212.48 1154.5,-199 1162.51,-184.1 1168.96,-165.96 1173.15,-152.63"/>
<polygon fill="midnightblue" stroke="midnightblue" points="1176.59,-153.33 1176.12,-142.74 1169.89,-151.31 1176.59,-153.33"/>
</g>
<!-- Node28 -->
<g id="node28" class="node">
<title>Node28</title>
<g id="a_node28"><a xlink:href="OSRtc_8h.html" target="_top" xlink:title=" ">
<polygon fill="white" stroke="black" points="1060,-62 1060,-81 1161,-81 1161,-62 1060,-62"/>
<text text-anchor="middle" x="1110.5" y="-69" font-family="Helvetica,sans-Serif" font-size="10.00">dolphin/os/OSRtc.h</text>
</a>
</g>
</g>
<!-- Node7&#45;&gt;Node28 -->
<g id="edge51" class="edge">
<title>Node7&#45;&gt;Node28</title>
<path fill="none" stroke="midnightblue" d="M1144.79,-235.43C1190.62,-217.24 1285.18,-172.38 1250.5,-123 1244.41,-114.33 1188.6,-96.02 1149.32,-84"/>
<polygon fill="midnightblue" stroke="midnightblue" points="1150.32,-80.64 1139.73,-81.09 1148.28,-87.34 1150.32,-80.64"/>
</g>
<!-- Node29 -->
<g id="node29" class="node">
<title>Node29</title>
<g id="a_node29"><a xlink:href="OSSync_8h.html" target="_top" xlink:title=" ">
<polygon fill="white" stroke="black" points="1179,-62 1179,-81 1286,-81 1286,-62 1179,-62"/>
<text text-anchor="middle" x="1232.5" y="-69" font-family="Helvetica,sans-Serif" font-size="10.00">dolphin/os/OSSync.h</text>
</a>
</g>
</g>
<!-- Node7&#45;&gt;Node29 -->
<g id="edge53" class="edge">
<title>Node7&#45;&gt;Node29</title>
<path fill="none" stroke="midnightblue" d="M1164.78,-237.08C1190.69,-230.96 1222.71,-219.64 1244.5,-199 1270.22,-174.64 1279.29,-156.74 1268.5,-123 1264.43,-110.28 1255.85,-98.03 1248.09,-88.78"/>
<polygon fill="midnightblue" stroke="midnightblue" points="1250.61,-86.35 1241.35,-81.21 1245.38,-91 1250.61,-86.35"/>
</g>
<!-- Node8&#45;&gt;Node5 -->
<g id="edge11" class="edge">
<title>Node8&#45;&gt;Node5</title>
<path fill="none" stroke="midnightblue" d="M1304.22,-57.97C1300.94,-57.29 1297.68,-56.63 1294.5,-56 1221,-41.52 1135.41,-27.38 1082.33,-18.92"/>
<polygon fill="midnightblue" stroke="midnightblue" points="1082.59,-15.42 1072.16,-17.31 1081.49,-22.33 1082.59,-15.42"/>
</g>
<!-- Node9&#45;&gt;Node10 -->
<g id="edge14" class="edge">
<title>Node9&#45;&gt;Node10</title>
<path fill="none" stroke="midnightblue" d="M963.63,-179.32C946.79,-170.66 920.69,-157.24 901.26,-147.25"/>
<polygon fill="midnightblue" stroke="midnightblue" points="902.82,-144.12 892.33,-142.65 899.62,-150.34 902.82,-144.12"/>
</g>
<!-- Node9&#45;&gt;Node11 -->
<g id="edge16" class="edge">
<title>Node9&#45;&gt;Node11</title>
<path fill="none" stroke="midnightblue" d="M944.21,-179.44C904.52,-170.08 840.79,-155.06 797.59,-144.87"/>
<polygon fill="midnightblue" stroke="midnightblue" points="798.15,-141.41 787.62,-142.52 796.55,-148.22 798.15,-141.41"/>
</g>
<!-- Node10&#45;&gt;Node5 -->
<g id="edge15" class="edge">
<title>Node10&#45;&gt;Node5</title>
<path fill="none" stroke="midnightblue" d="M865.82,-123.29C850.37,-108.36 823.55,-77.41 840.5,-56 857.71,-34.26 930.26,-21.97 980.82,-15.91"/>
<polygon fill="midnightblue" stroke="midnightblue" points="981.39,-19.36 990.93,-14.74 980.59,-12.41 981.39,-19.36"/>
</g>
<!-- Node11&#45;&gt;Node12 -->
<g id="edge17" class="edge">
<title>Node11&#45;&gt;Node12</title>
<path fill="none" stroke="midnightblue" d="M739.89,-123.48C727.02,-114.02 706.03,-98.6 690.49,-87.19"/>
<polygon fill="midnightblue" stroke="midnightblue" points="692.22,-84.11 682.08,-81.01 688.07,-89.75 692.22,-84.11"/>
</g>
<!-- Node12&#45;&gt;Node5 -->
<g id="edge18" class="edge">
<title>Node12&#45;&gt;Node5</title>
<path fill="none" stroke="midnightblue" d="M722.22,-61.98C791.11,-50.62 912.23,-30.66 980.67,-19.38"/>
<polygon fill="midnightblue" stroke="midnightblue" points="981.48,-22.79 990.78,-17.71 980.34,-15.89 981.48,-22.79"/>
</g>
<!-- Node13&#45;&gt;Node5 -->
<g id="edge20" class="edge">
<title>Node13&#45;&gt;Node5</title>
<path fill="none" stroke="midnightblue" d="M1431.07,-123.33C1435.13,-107.59 1440.92,-74.29 1423.5,-56 1400.37,-31.72 1183.26,-18.25 1082.47,-13.27"/>
<polygon fill="midnightblue" stroke="midnightblue" points="1082.38,-9.76 1072.22,-12.77 1082.04,-16.75 1082.38,-9.76"/>
</g>
<!-- Node14&#45;&gt;Node5 -->
<g id="edge22" class="edge">
<title>Node14&#45;&gt;Node5</title>
<path fill="none" stroke="midnightblue" d="M1488.84,-61.99C1478.41,-59.82 1467.05,-57.65 1456.5,-56 1322.15,-35.02 1162.34,-21.02 1082.38,-14.75"/>
<polygon fill="midnightblue" stroke="midnightblue" points="1082.35,-11.24 1072.11,-13.96 1081.81,-18.22 1082.35,-11.24"/>
</g>
<!-- Node15&#45;&gt;Node5 -->
<g id="edge24" class="edge">
<title>Node15&#45;&gt;Node5</title>
<path fill="none" stroke="midnightblue" d="M1611.14,-123.28C1611.79,-107.16 1610.59,-72.81 1590.5,-56 1552.02,-23.79 1212.97,-14.27 1082.43,-11.79"/>
<polygon fill="midnightblue" stroke="midnightblue" points="1082.35,-8.29 1072.29,-11.6 1082.22,-15.29 1082.35,-8.29"/>
</g>
<!-- Node16&#45;&gt;Node5 -->
<g id="edge26" class="edge">
<title>Node16&#45;&gt;Node5</title>
<path fill="none" stroke="midnightblue" d="M1644.97,-179.44C1661.07,-172.38 1680.88,-160.63 1690.5,-143 1718.21,-92.25 1645.54,-69.42 1613.5,-56 1518.24,-16.11 1205.77,-11.21 1082.33,-10.87"/>
<polygon fill="midnightblue" stroke="midnightblue" points="1082.03,-7.37 1072.03,-10.86 1082.02,-14.37 1082.03,-7.37"/>
</g>
<!-- Node17&#45;&gt;Node5 -->
<g id="edge30" class="edge">
<title>Node17&#45;&gt;Node5</title>
<path fill="none" stroke="midnightblue" d="M1745.83,-179.47C1737.64,-154.92 1710.28,-84.1 1659.5,-56 1609.52,-28.34 1222.51,-15.85 1082.14,-12.2"/>
<polygon fill="midnightblue" stroke="midnightblue" points="1082.16,-8.7 1072.07,-11.94 1081.98,-15.69 1082.16,-8.7"/>
</g>
<!-- Node18&#45;&gt;Node5 -->
<g id="edge32" class="edge">
<title>Node18&#45;&gt;Node5</title>
<path fill="none" stroke="midnightblue" d="M1794.9,-61.97C1784.54,-59.69 1773.11,-57.47 1762.5,-56 1508.8,-20.95 1201.8,-13.2 1082.42,-11.48"/>
<polygon fill="midnightblue" stroke="midnightblue" points="1082.18,-7.98 1072.13,-11.34 1082.08,-14.98 1082.18,-7.98"/>
</g>
<!-- Node19&#45;&gt;Node12 -->
<g id="edge34" class="edge">
<title>Node19&#45;&gt;Node12</title>
<path fill="none" stroke="midnightblue" d="M479.45,-123.48C518.7,-113 585.38,-95.21 628.67,-83.66"/>
<polygon fill="midnightblue" stroke="midnightblue" points="629.85,-86.97 638.61,-81.01 628.04,-80.21 629.85,-86.97"/>
</g>
<!-- Node20&#45;&gt;Node5 -->
<g id="edge36" class="edge">
<title>Node20&#45;&gt;Node5</title>
<path fill="none" stroke="midnightblue" d="M1921.36,-61.95C1911.85,-59.65 1901.3,-57.41 1891.5,-56 1586.76,-12.18 1215.82,-9.74 1082.37,-10.46"/>
<polygon fill="midnightblue" stroke="midnightblue" points="1082.03,-6.96 1072.05,-10.53 1082.07,-13.96 1082.03,-6.96"/>
</g>
<!-- Node21&#45;&gt;Node5 -->
<g id="edge38" class="edge">
<title>Node21&#45;&gt;Node5</title>
<path fill="none" stroke="midnightblue" d="M407.53,-179.38C390.12,-166.73 362.95,-142.53 377.5,-123 449.4,-26.44 839.88,-12.9 980.77,-11.18"/>
<polygon fill="midnightblue" stroke="midnightblue" points="980.91,-14.67 990.87,-11.07 980.83,-7.67 980.91,-14.67"/>
</g>
<!-- Node21&#45;&gt;Node19 -->
<g id="edge39" class="edge">
<title>Node21&#45;&gt;Node19</title>
<path fill="none" stroke="midnightblue" d="M424.96,-179.08C428.65,-171.69 434.02,-160.95 438.59,-151.81"/>
<polygon fill="midnightblue" stroke="midnightblue" points="441.78,-153.26 443.12,-142.75 435.52,-150.13 441.78,-153.26"/>
</g>
<!-- Node22&#45;&gt;Node23 -->
<g id="edge41" class="edge">
<title>Node22&#45;&gt;Node23</title>
<path fill="none" stroke="midnightblue" d="M738.5,-179.44C707.32,-170.24 657.57,-155.56 623.09,-145.39"/>
<polygon fill="midnightblue" stroke="midnightblue" points="623.94,-141.99 613.36,-142.52 621.96,-148.7 623.94,-141.99"/>
</g>
<!-- Node23&#45;&gt;Node12 -->
<g id="edge42" class="edge">
<title>Node23&#45;&gt;Node12</title>
<path fill="none" stroke="midnightblue" d="M596.82,-123.48C610.62,-113.93 633.2,-98.31 649.73,-86.87"/>
<polygon fill="midnightblue" stroke="midnightblue" points="651.97,-89.58 658.2,-81.01 647.99,-83.82 651.97,-89.58"/>
</g>
<!-- Node24&#45;&gt;Node23 -->
<g id="edge44" class="edge">
<title>Node24&#45;&gt;Node23</title>
<path fill="none" stroke="midnightblue" d="M622.9,-179.08C616.27,-171.3 606.48,-159.8 598.44,-150.37"/>
<polygon fill="midnightblue" stroke="midnightblue" points="601.1,-148.09 591.95,-142.75 595.77,-152.63 601.1,-148.09"/>
</g>
<!-- Node25&#45;&gt;Node5 -->
<g id="edge46" class="edge">
<title>Node25&#45;&gt;Node5</title>
<path fill="none" stroke="midnightblue" d="M925.27,-61.98C945.98,-52.03 980.45,-35.49 1004.49,-23.96"/>
<polygon fill="midnightblue" stroke="midnightblue" points="1006.27,-26.99 1013.77,-19.51 1003.24,-20.68 1006.27,-26.99"/>
</g>
<!-- Node26&#45;&gt;Node5 -->
<g id="edge48" class="edge">
<title>Node26&#45;&gt;Node5</title>
<path fill="none" stroke="midnightblue" d="M1035.13,-123.23C1029.24,-114.53 1020.89,-100.57 1017.5,-87 1012.58,-67.33 1018.35,-44.4 1023.9,-28.91"/>
<polygon fill="midnightblue" stroke="midnightblue" points="1027.19,-30.1 1027.57,-19.51 1020.67,-27.55 1027.19,-30.1"/>
</g>
<!-- Node27&#45;&gt;Node5 -->
<g id="edge50" class="edge">
<title>Node27&#45;&gt;Node5</title>
<path fill="none" stroke="midnightblue" d="M1118.12,-123.48C1094.04,-117.16 1067.95,-106.15 1050.5,-87 1036.36,-71.48 1032.36,-47.04 1031.42,-30.08"/>
<polygon fill="midnightblue" stroke="midnightblue" points="1034.91,-29.65 1031.17,-19.74 1027.91,-29.82 1034.91,-29.65"/>
</g>
<!-- Node28&#45;&gt;Node5 -->
<g id="edge52" class="edge">
<title>Node28&#45;&gt;Node5</title>
<path fill="none" stroke="midnightblue" d="M1099.18,-61.98C1086.63,-52.52 1066.15,-37.1 1051,-25.69"/>
<polygon fill="midnightblue" stroke="midnightblue" points="1052.89,-22.73 1042.8,-19.51 1048.68,-28.32 1052.89,-22.73"/>
</g>
<!-- Node29&#45;&gt;Node5 -->
<g id="edge54" class="edge">
<title>Node29&#45;&gt;Node5</title>
<path fill="none" stroke="midnightblue" d="M1203.7,-61.98C1168.63,-51.59 1109.24,-34.01 1070.19,-22.45"/>
<polygon fill="midnightblue" stroke="midnightblue" points="1070.83,-18.99 1060.24,-19.51 1068.84,-25.7 1070.83,-18.99"/>
</g>
</g>
</svg>
