<?xml version="1.0" encoding="UTF-8" standalone="no"?>
<!DOCTYPE svg PUBLIC "-//W3C//DTD SVG 1.1//EN"
 "http://www.w3.org/Graphics/SVG/1.1/DTD/svg11.dtd">
<!-- Generated by graphviz version 2.50.0 (20220203.2022)
 -->
<!-- Title: include/JSystem/JKernel/JKRFileCache.h Pages: 1 -->
<svg width="250pt" height="162pt"
 viewBox="0.00 0.00 249.50 162.00" xmlns="http://www.w3.org/2000/svg" xmlns:xlink="http://www.w3.org/1999/xlink">
<g id="graph0" class="graph" transform="scale(1 1) rotate(0) translate(4 158)">
<title>include/JSystem/JKernel/JKRFileCache.h</title>
<polygon fill="white" stroke="transparent" points="-4,4 -4,-158 245.5,-158 245.5,4 -4,4"/>
<!-- Node1 -->
<g id="node1" class="node">
<title>Node1</title>
<g id="a_node1"><a xlink:title=" ">
<polygon fill="#bfbfbf" stroke="black" points="59.5,-123.5 59.5,-153.5 184.5,-153.5 184.5,-123.5 59.5,-123.5"/>
<text text-anchor="start" x="67.5" y="-141.5" font-family="Helvetica,sans-Serif" font-size="10.00">include/JSystem/JKernel</text>
<text text-anchor="middle" x="122" y="-130.5" font-family="Helvetica,sans-Serif" font-size="10.00">/JKRFileCache.h</text>
</a>
</g>
</g>
<!-- Node2 -->
<g id="node2" class="node">
<title>Node2</title>
<g id="a_node2"><a xlink:href="DynamicLink_8h.html" target="_top" xlink:title=" ">
<polygon fill="white" stroke="black" points="0,-62 0,-81 114,-81 114,-62 0,-62"/>
<text text-anchor="middle" x="57" y="-69" font-family="Helvetica,sans-Serif" font-size="10.00">include/DynamicLink.h</text>
</a>
</g>
</g>
<!-- Node1&#45;&gt;Node2 -->
<g id="edge1" class="edge">
<title>Node1&#45;&gt;Node2</title>
<path fill="none" stroke="midnightblue" d="M100.5,-116C88.63,-104.13 74.55,-90.05 65.69,-81.19"/>
<polygon fill="midnightblue" stroke="midnightblue" points="98.35,-118.8 107.9,-123.4 103.3,-113.85 98.35,-118.8"/>
</g>
<!-- Node4 -->
<g id="node4" class="node">
<title>Node4</title>
<g id="a_node4"><a xlink:href="JKRFileCache_8cpp.html" target="_top" xlink:title=" ">
<polygon fill="white" stroke="black" points="132.5,-56.5 132.5,-86.5 241.5,-86.5 241.5,-56.5 132.5,-56.5"/>
<text text-anchor="start" x="140.5" y="-74.5" font-family="Helvetica,sans-Serif" font-size="10.00">libs/JSystem/JKernel</text>
<text text-anchor="middle" x="187" y="-63.5" font-family="Helvetica,sans-Serif" font-size="10.00">/JKRFileCache.cpp</text>
</a>
</g>
</g>
<!-- Node1&#45;&gt;Node4 -->
<g id="edge3" class="edge">
<title>Node1&#45;&gt;Node4</title>
<path fill="none" stroke="midnightblue" d="M143.19,-116.31C152.94,-106.56 164.24,-95.26 172.92,-86.58"/>
<polygon fill="midnightblue" stroke="midnightblue" points="140.7,-113.85 136.1,-123.4 145.65,-118.8 140.7,-113.85"/>
</g>
<!-- Node3 -->
<g id="node3" class="node">
<title>Node3</title>
<g id="a_node3"><a xlink:href="DynamicLink_8cpp.html" target="_top" xlink:title=" ">
<polygon fill="white" stroke="black" points="3.5,-0.5 3.5,-19.5 110.5,-19.5 110.5,-0.5 3.5,-0.5"/>
<text text-anchor="middle" x="57" y="-7.5" font-family="Helvetica,sans-Serif" font-size="10.00">src/DynamicLink.cpp</text>
</a>
</g>
</g>
<!-- Node2&#45;&gt;Node3 -->
<g id="edge2" class="edge">
<title>Node2&#45;&gt;Node3</title>
<path fill="none" stroke="midnightblue" d="M57,-51.82C57,-41 57,-27.9 57,-19.51"/>
<polygon fill="midnightblue" stroke="midnightblue" points="53.5,-51.98 57,-61.98 60.5,-51.98 53.5,-51.98"/>
</g>
</g>
</svg>
