<?xml version="1.0" encoding="UTF-8" standalone="no"?>
<!DOCTYPE svg PUBLIC "-//W3C//DTD SVG 1.1//EN"
 "http://www.w3.org/Graphics/SVG/1.1/DTD/svg11.dtd">
<!-- Generated by graphviz version 7.0.4 (20221203.1631)
 -->
<!-- Title: include/JSystem/JMath/JMATrigonometric.h Pages: 1 -->
<!--zoomable 170 -->
<svg id="main" version="1.1" xmlns="http://www.w3.org/2000/svg" xmlns:xlink="http://www.w3.org/1999/xlink" xml:space="preserve" onload="init(evt)">
<style type="text/css"><![CDATA[
.edge:hover path { stroke: red; }
.edge:hover polygon { stroke: red; fill: red; }
]]></style>
<script type="text/javascript"><![CDATA[
var edges = document.getElementsByTagName('g');
if (edges && edges.length) {
  for (var i=0;i<edges.length;i++) {
    if (edges[i].id.substr(0,4)=='edge') {
      edges[i].setAttribute('class','edge');
    }
  }
}
]]></script>
        <defs>
                <circle id="rim" cx="0" cy="0" r="7"/>
                <circle id="rim2" cx="0" cy="0" r="3.5"/>
                <g id="zoomPlus">
                        <use xlink:href="#rim" fill="#404040">
                                <set attributeName="fill" to="#808080" begin="zoomplus.mouseover" end="zoomplus.mouseout"/>
                        </use>
                        <path d="M-4,0h8M0,-4v8" fill="none" stroke="white" stroke-width="1.5" pointer-events="none"/>
                </g>
                <g id="zoomMin">
                        <use xlink:href="#rim" fill="#404040">
                                <set attributeName="fill" to="#808080" begin="zoomminus.mouseover" end="zoomminus.mouseout"/>
                        </use>
                        <path d="M-4,0h8" fill="none" stroke="white" stroke-width="1.5" pointer-events="none"/>
                </g>
                <g id="dirArrow">
                        <path fill="none" stroke="white" stroke-width="1.5" d="M0,-3.0v7 M-2.5,-0.5L0,-3.0L2.5,-0.5"/>
                </g>
               <g id="resetDef">
                       <use xlink:href="#rim2" fill="#404040">
                               <set attributeName="fill" to="#808080" begin="reset.mouseover" end="reset.mouseout"/>
                       </use>
               </g>
        </defs>

<script type="text/javascript">
var viewWidth = 2400;
var viewHeight = 170;
var sectionId = 'dynsection-1';
</script>
<script xlink:href="svgpan.js"/>
<svg id="graph" class="graph">
<g id="viewport">
<title>include/JSystem/JMath/JMATrigonometric.h</title>
<!-- Node1 -->
<g id="node1" class="node">
<title>Node1</title>
<g id="a_node1"><a xlink:title=" ">
<polygon fill="#999999" stroke="#666666" points="1352,-162 1233,-162 1233,-132 1352,-132 1352,-162"/>
<text text-anchor="start" x="1241" y="-150" font-family="Helvetica,sans-Serif" font-size="10.00">include/JSystem/JMath</text>
<text text-anchor="middle" x="1292.5" y="-139" font-family="Helvetica,sans-Serif" font-size="10.00">/JMATrigonometric.h</text>
</a>
</g>
</g>
<!-- Node2 -->
<g id="node2" class="node">
<title>Node2</title>
<g id="a_node2"><a xlink:href="c__math_8h.html" target="_top" xlink:title=" ">
<polygon fill="white" stroke="#666666" points="1264,-96 1115,-96 1115,-66 1264,-66 1264,-96"/>
<text text-anchor="start" x="1123" y="-84" font-family="Helvetica,sans-Serif" font-size="10.00">include/SSystem/SComponent</text>
<text text-anchor="middle" x="1189.5" y="-73" font-family="Helvetica,sans-Serif" font-size="10.00">/c_math.h</text>
</a>
</g>
</g>
<!-- Node1&#45;&gt;Node2 -->
<g id="edge1" class="edge">
<title>Node1&#45;&gt;Node2</title>
<path fill="none" stroke="#63b8ff" d="M1259.73,-125.64C1244.37,-116.09 1226.44,-104.95 1212.54,-96.31"/>
<polygon fill="#63b8ff" stroke="#63b8ff" points="1257.76,-128.53 1268.1,-130.84 1261.45,-122.59 1257.76,-128.53"/>
</g>
<!-- Node10 -->
<g id="node10" class="node">
<title>Node10</title>
<g id="a_node10"><a xlink:href="d__bg__w_8cpp.html" target="_top" xlink:title=" ">
<polygon fill="white" stroke="#666666" points="107,-24.5 0,-24.5 0,-5.5 107,-5.5 107,-24.5"/>
<text text-anchor="middle" x="53.5" y="-12.5" font-family="Helvetica,sans-Serif" font-size="10.00">src/d/bg/d_bg_w.cpp</text>
</a>
</g>
</g>
<!-- Node1&#45;&gt;Node10 -->
<g id="edge21" class="edge">
<title>Node1&#45;&gt;Node10</title>
<path fill="none" stroke="#63b8ff" d="M1221.13,-141.96C1037.18,-130.91 532.25,-96.45 116.5,-30 107.98,-28.64 98.89,-26.83 90.33,-24.97"/>
<polygon fill="#63b8ff" stroke="#63b8ff" points="1220.81,-145.45 1231,-142.55 1221.23,-138.46 1220.81,-145.45"/>
</g>
<!-- Node18 -->
<g id="node18" class="node">
<title>Node18</title>
<g id="a_node18"><a xlink:href="m__Do__lib_8cpp.html" target="_top" xlink:title=" ">
<polygon fill="white" stroke="#666666" points="2391.5,-24.5 2271.5,-24.5 2271.5,-5.5 2391.5,-5.5 2391.5,-24.5"/>
<text text-anchor="middle" x="2331.5" y="-12.5" font-family="Helvetica,sans-Serif" font-size="10.00">src/m_Do/m_Do_lib.cpp</text>
</a>
</g>
</g>
<!-- Node1&#45;&gt;Node18 -->
<g id="edge22" class="edge">
<title>Node1&#45;&gt;Node18</title>
<path fill="none" stroke="#63b8ff" d="M1291.12,-120.52C1291.65,-102.36 1295.74,-78.95 1311.5,-66 1352.35,-32.44 2210,-36.28 2262.5,-30 2272.45,-28.81 2283.11,-26.95 2293,-24.96"/>
<polygon fill="#63b8ff" stroke="#63b8ff" points="1287.62,-120.32 1291.19,-130.29 1294.62,-120.26 1287.62,-120.32"/>
</g>
<!-- Node20 -->
<g id="node20" class="node">
<title>Node20</title>
<g id="a_node20"><a xlink:href="JPADynamicsBlock_8cpp.html" target="_top" xlink:title=" ">
<polygon fill="white" stroke="#666666" points="1444.5,-96 1320.5,-96 1320.5,-66 1444.5,-66 1444.5,-96"/>
<text text-anchor="start" x="1328.5" y="-84" font-family="Helvetica,sans-Serif" font-size="10.00">libs/JSystem/JParticle</text>
<text text-anchor="middle" x="1382.5" y="-73" font-family="Helvetica,sans-Serif" font-size="10.00">/JPADynamicsBlock.cpp</text>
</a>
</g>
</g>
<!-- Node1&#45;&gt;Node20 -->
<g id="edge19" class="edge">
<title>Node1&#45;&gt;Node20</title>
<path fill="none" stroke="#63b8ff" d="M1321.68,-125.25C1334.94,-115.82 1350.3,-104.9 1362.27,-96.39"/>
<polygon fill="#63b8ff" stroke="#63b8ff" points="1319.83,-122.27 1313.71,-130.92 1323.89,-127.98 1319.83,-122.27"/>
</g>
<!-- Node21 -->
<g id="node21" class="node">
<title>Node21</title>
<g id="a_node21"><a xlink:href="JPAExtraShape_8cpp.html" target="_top" xlink:title=" ">
<polygon fill="white" stroke="#666666" points="1576.5,-96 1462.5,-96 1462.5,-66 1576.5,-66 1576.5,-96"/>
<text text-anchor="start" x="1470.5" y="-84" font-family="Helvetica,sans-Serif" font-size="10.00">libs/JSystem/JParticle</text>
<text text-anchor="middle" x="1519.5" y="-73" font-family="Helvetica,sans-Serif" font-size="10.00">/JPAExtraShape.cpp</text>
</a>
</g>
</g>
<!-- Node1&#45;&gt;Node21 -->
<g id="edge20" class="edge">
<title>Node1&#45;&gt;Node21</title>
<path fill="none" stroke="#63b8ff" d="M1354.53,-128.51C1390.3,-118.43 1434.73,-105.9 1468.46,-96.39"/>
<polygon fill="#63b8ff" stroke="#63b8ff" points="1353.86,-125.06 1345.18,-131.15 1355.76,-131.8 1353.86,-125.06"/>
</g>
<!-- Node3 -->
<g id="node3" class="node">
<title>Node3</title>
<g id="a_node3"><a xlink:href="c__lib_8cpp.html" target="_top" xlink:title=" ">
<polygon fill="white" stroke="#666666" points="259.5,-30 125.5,-30 125.5,0 259.5,0 259.5,-30"/>
<text text-anchor="start" x="133.5" y="-18" font-family="Helvetica,sans-Serif" font-size="10.00">libs/SSystem/SComponent</text>
<text text-anchor="middle" x="192.5" y="-7" font-family="Helvetica,sans-Serif" font-size="10.00">/c_lib.cpp</text>
</a>
</g>
</g>
<!-- Node2&#45;&gt;Node3 -->
<g id="edge2" class="edge">
<title>Node2&#45;&gt;Node3</title>
<path fill="none" stroke="#63b8ff" d="M1103.19,-78.99C939.74,-76.27 574.03,-66.28 268.5,-30 265.7,-29.67 262.85,-29.3 259.98,-28.89"/>
<polygon fill="#63b8ff" stroke="#63b8ff" points="1103.04,-82.49 1113.09,-79.15 1103.15,-75.49 1103.04,-82.49"/>
</g>
<!-- Node4 -->
<g id="node4" class="node">
<title>Node4</title>
<g id="a_node4"><a xlink:href="c__m3d_8cpp.html" target="_top" xlink:title=" ">
<polygon fill="white" stroke="#666666" points="411.5,-30 277.5,-30 277.5,0 411.5,0 411.5,-30"/>
<text text-anchor="start" x="285.5" y="-18" font-family="Helvetica,sans-Serif" font-size="10.00">libs/SSystem/SComponent</text>
<text text-anchor="middle" x="344.5" y="-7" font-family="Helvetica,sans-Serif" font-size="10.00">/c_m3d.cpp</text>
</a>
</g>
</g>
<!-- Node2&#45;&gt;Node4 -->
<g id="edge3" class="edge">
<title>Node2&#45;&gt;Node4</title>
<path fill="none" stroke="#63b8ff" d="M1103.48,-77.7C961,-73.14 667.24,-60.64 420.5,-30 417.7,-29.65 414.86,-29.27 411.98,-28.86"/>
<polygon fill="#63b8ff" stroke="#63b8ff" points="1103.1,-81.19 1113.21,-78 1103.32,-74.19 1103.1,-81.19"/>
</g>
<!-- Node5 -->
<g id="node5" class="node">
<title>Node5</title>
<g id="a_node5"><a xlink:href="c__math_8cpp.html" target="_top" xlink:title=" ">
<polygon fill="white" stroke="#666666" points="563.5,-30 429.5,-30 429.5,0 563.5,0 563.5,-30"/>
<text text-anchor="start" x="437.5" y="-18" font-family="Helvetica,sans-Serif" font-size="10.00">libs/SSystem/SComponent</text>
<text text-anchor="middle" x="496.5" y="-7" font-family="Helvetica,sans-Serif" font-size="10.00">/c_math.cpp</text>
</a>
</g>
</g>
<!-- Node2&#45;&gt;Node5 -->
<g id="edge4" class="edge">
<title>Node2&#45;&gt;Node5</title>
<path fill="none" stroke="#63b8ff" d="M1103.45,-75.78C983.94,-69.3 761.12,-54.95 572.5,-30 569.71,-29.63 566.86,-29.23 563.99,-28.8"/>
<polygon fill="#63b8ff" stroke="#63b8ff" points="1103,-79.27 1113.17,-76.31 1103.38,-72.28 1103,-79.27"/>
</g>
<!-- Node6 -->
<g id="node6" class="node">
<title>Node6</title>
<g id="a_node6"><a xlink:href="c__xyz_8cpp.html" target="_top" xlink:title=" ">
<polygon fill="white" stroke="#666666" points="715.5,-30 581.5,-30 581.5,0 715.5,0 715.5,-30"/>
<text text-anchor="start" x="589.5" y="-18" font-family="Helvetica,sans-Serif" font-size="10.00">libs/SSystem/SComponent</text>
<text text-anchor="middle" x="648.5" y="-7" font-family="Helvetica,sans-Serif" font-size="10.00">/c_xyz.cpp</text>
</a>
</g>
</g>
<!-- Node2&#45;&gt;Node6 -->
<g id="edge5" class="edge">
<title>Node2&#45;&gt;Node6</title>
<path fill="none" stroke="#63b8ff" d="M1103.41,-72.69C1009.88,-64.3 856.2,-49.18 724.5,-30 721.58,-29.57 718.6,-29.12 715.59,-28.64"/>
<polygon fill="#63b8ff" stroke="#63b8ff" points="1103.01,-76.17 1113.28,-73.57 1103.63,-69.2 1103.01,-76.17"/>
</g>
<!-- Node7 -->
<g id="node7" class="node">
<title>Node7</title>
<g id="a_node7"><a xlink:href="d__a__alink_8cpp.html" target="_top" xlink:title=" ">
<polygon fill="white" stroke="#666666" points="843,-24.5 734,-24.5 734,-5.5 843,-5.5 843,-24.5"/>
<text text-anchor="middle" x="788.5" y="-12.5" font-family="Helvetica,sans-Serif" font-size="10.00">src/d/a/d_a_alink.cpp</text>
</a>
</g>
</g>
<!-- Node2&#45;&gt;Node7 -->
<g id="edge6" class="edge">
<title>Node2&#45;&gt;Node7</title>
<path fill="none" stroke="#63b8ff" d="M1103.58,-69.02C1035.1,-59.86 936.87,-45.78 851.5,-30 843.46,-28.51 834.88,-26.74 826.72,-24.96"/>
<polygon fill="#63b8ff" stroke="#63b8ff" points="1102.86,-72.46 1113.23,-70.31 1103.78,-65.52 1102.86,-72.46"/>
</g>
<!-- Node8 -->
<g id="node8" class="node">
<title>Node8</title>
<g id="a_node8"><a xlink:href="d__a__obj__item_8cpp.html" target="_top" xlink:title=" ">
<polygon fill="white" stroke="#666666" points="986,-24.5 861,-24.5 861,-5.5 986,-5.5 986,-24.5"/>
<text text-anchor="middle" x="923.5" y="-12.5" font-family="Helvetica,sans-Serif" font-size="10.00">src/d/a/d_a_obj_item.cpp</text>
</a>
</g>
</g>
<!-- Node2&#45;&gt;Node8 -->
<g id="edge7" class="edge">
<title>Node2&#45;&gt;Node8</title>
<path fill="none" stroke="#63b8ff" d="M1118.57,-62.93C1067.81,-50.72 1001.52,-34.77 960.75,-24.96"/>
<polygon fill="#63b8ff" stroke="#63b8ff" points="1117.46,-66.27 1128,-65.2 1119.1,-59.46 1117.46,-66.27"/>
</g>
<!-- Node9 -->
<g id="node9" class="node">
<title>Node9</title>
<g id="a_node9"><a xlink:href="d__a__player_8cpp.html" target="_top" xlink:title=" ">
<polygon fill="white" stroke="#666666" points="1118.5,-24.5 1004.5,-24.5 1004.5,-5.5 1118.5,-5.5 1118.5,-24.5"/>
<text text-anchor="middle" x="1061.5" y="-12.5" font-family="Helvetica,sans-Serif" font-size="10.00">src/d/a/d_a_player.cpp</text>
</a>
</g>
</g>
<!-- Node2&#45;&gt;Node9 -->
<g id="edge8" class="edge">
<title>Node2&#45;&gt;Node9</title>
<path fill="none" stroke="#63b8ff" d="M1150.68,-60.59C1127,-48.75 1097.86,-34.18 1079.47,-24.99"/>
<polygon fill="#63b8ff" stroke="#63b8ff" points="1148.91,-63.62 1159.42,-64.96 1152.04,-57.36 1148.91,-63.62"/>
</g>
<!-- Node2&#45;&gt;Node10 -->
<g id="edge9" class="edge">
<title>Node2&#45;&gt;Node10</title>
<path fill="none" stroke="#63b8ff" d="M1103.11,-77.89C883.26,-72.23 306.5,-55.35 116.5,-30 107.5,-28.8 97.89,-26.96 88.96,-25"/>
<polygon fill="#63b8ff" stroke="#63b8ff" points="1102.97,-81.39 1113.05,-78.15 1103.15,-74.39 1102.97,-81.39"/>
</g>
<!-- Node11 -->
<g id="node11" class="node">
<title>Node11</title>
<g id="a_node11"><a xlink:href="d__cc__mass__s_8cpp.html" target="_top" xlink:title=" ">
<polygon fill="white" stroke="#666666" points="1242,-30 1137,-30 1137,0 1242,0 1242,-30"/>
<text text-anchor="start" x="1145" y="-18" font-family="Helvetica,sans-Serif" font-size="10.00">src/d/cc/d_cc_mass</text>
<text text-anchor="middle" x="1189.5" y="-7" font-family="Helvetica,sans-Serif" font-size="10.00">_s.cpp</text>
</a>
</g>
</g>
<!-- Node2&#45;&gt;Node11 -->
<g id="edge10" class="edge">
<title>Node2&#45;&gt;Node11</title>
<path fill="none" stroke="#63b8ff" d="M1189.5,-54.39C1189.5,-46.13 1189.5,-37.28 1189.5,-30.16"/>
<polygon fill="#63b8ff" stroke="#63b8ff" points="1186,-54.28 1189.5,-64.28 1193,-54.28 1186,-54.28"/>
</g>
<!-- Node12 -->
<g id="node12" class="node">
<title>Node12</title>
<g id="a_node12"><a xlink:href="d__cc__uty_8cpp.html" target="_top" xlink:title=" ">
<polygon fill="white" stroke="#666666" points="1372.5,-24.5 1260.5,-24.5 1260.5,-5.5 1372.5,-5.5 1372.5,-24.5"/>
<text text-anchor="middle" x="1316.5" y="-12.5" font-family="Helvetica,sans-Serif" font-size="10.00">src/d/cc/d_cc_uty.cpp</text>
</a>
</g>
</g>
<!-- Node2&#45;&gt;Node12 -->
<g id="edge11" class="edge">
<title>Node2&#45;&gt;Node12</title>
<path fill="none" stroke="#63b8ff" d="M1228.02,-60.59C1251.51,-48.75 1280.43,-34.18 1298.67,-24.99"/>
<polygon fill="#63b8ff" stroke="#63b8ff" points="1226.71,-57.33 1219.35,-64.96 1229.86,-63.58 1226.71,-57.33"/>
</g>
<!-- Node13 -->
<g id="node13" class="node">
<title>Node13</title>
<g id="a_node13"><a xlink:href="d__event__manager_8cpp.html" target="_top" xlink:title=" ">
<polygon fill="white" stroke="#666666" points="1494,-30 1391,-30 1391,0 1494,0 1494,-30"/>
<text text-anchor="start" x="1399" y="-18" font-family="Helvetica,sans-Serif" font-size="10.00">src/d/event/d_event</text>
<text text-anchor="middle" x="1442.5" y="-7" font-family="Helvetica,sans-Serif" font-size="10.00">_manager.cpp</text>
</a>
</g>
</g>
<!-- Node2&#45;&gt;Node13 -->
<g id="edge12" class="edge">
<title>Node2&#45;&gt;Node13</title>
<path fill="none" stroke="#63b8ff" d="M1257.54,-62.79C1299.44,-52.19 1352.3,-38.82 1390.78,-29.08"/>
<polygon fill="#63b8ff" stroke="#63b8ff" points="1256.9,-59.34 1248.06,-65.19 1258.61,-66.13 1256.9,-59.34"/>
</g>
<!-- Node14 -->
<g id="node14" class="node">
<title>Node14</title>
<g id="a_node14"><a xlink:href="d__kankyo_8cpp.html" target="_top" xlink:title=" ">
<polygon fill="white" stroke="#666666" points="1646.5,-24.5 1512.5,-24.5 1512.5,-5.5 1646.5,-5.5 1646.5,-24.5"/>
<text text-anchor="middle" x="1579.5" y="-12.5" font-family="Helvetica,sans-Serif" font-size="10.00">src/d/kankyo/d_kankyo.cpp</text>
</a>
</g>
</g>
<!-- Node2&#45;&gt;Node14 -->
<g id="edge13" class="edge">
<title>Node2&#45;&gt;Node14</title>
<path fill="none" stroke="#63b8ff" d="M1275.41,-66.43C1360.55,-52.96 1481.37,-33.8 1503.5,-30 1512.62,-28.43 1522.35,-26.69 1531.69,-24.99"/>
<polygon fill="#63b8ff" stroke="#63b8ff" points="1275,-62.95 1265.67,-67.97 1276.09,-69.87 1275,-62.95"/>
</g>
<!-- Node15 -->
<g id="node15" class="node">
<title>Node15</title>
<g id="a_node15"><a xlink:href="d__msg__flow_8cpp.html" target="_top" xlink:title=" ">
<polygon fill="white" stroke="#666666" points="1798,-24.5 1665,-24.5 1665,-5.5 1798,-5.5 1798,-24.5"/>
<text text-anchor="middle" x="1731.5" y="-12.5" font-family="Helvetica,sans-Serif" font-size="10.00">src/d/msg/d_msg_flow.cpp</text>
</a>
</g>
</g>
<!-- Node2&#45;&gt;Node15 -->
<g id="edge14" class="edge">
<title>Node2&#45;&gt;Node15</title>
<path fill="none" stroke="#63b8ff" d="M1275.43,-66.39C1276.46,-66.26 1277.48,-66.13 1278.5,-66 1445.49,-44.91 1488.8,-53.27 1655.5,-30 1665.6,-28.59 1676.4,-26.78 1686.6,-24.94"/>
<polygon fill="#63b8ff" stroke="#63b8ff" points="1275.18,-62.9 1265.73,-67.7 1276.11,-69.83 1275.18,-62.9"/>
</g>
<!-- Node16 -->
<g id="node16" class="node">
<title>Node16</title>
<g id="a_node16"><a xlink:href="d__shop__system_8cpp.html" target="_top" xlink:title=" ">
<polygon fill="white" stroke="#666666" points="1968.5,-24.5 1816.5,-24.5 1816.5,-5.5 1968.5,-5.5 1968.5,-24.5"/>
<text text-anchor="middle" x="1892.5" y="-12.5" font-family="Helvetica,sans-Serif" font-size="10.00">src/d/shop/d_shop_system.cpp</text>
</a>
</g>
</g>
<!-- Node2&#45;&gt;Node16 -->
<g id="edge15" class="edge">
<title>Node2&#45;&gt;Node16</title>
<path fill="none" stroke="#63b8ff" d="M1275.42,-66.35C1276.45,-66.23 1277.48,-66.11 1278.5,-66 1512.68,-39.66 1573.42,-57.18 1807.5,-30 1819.09,-28.65 1831.51,-26.83 1843.17,-24.94"/>
<polygon fill="#63b8ff" stroke="#63b8ff" points="1275.21,-62.85 1265.72,-67.57 1276.08,-69.8 1275.21,-62.85"/>
</g>
<!-- Node17 -->
<g id="node17" class="node">
<title>Node17</title>
<g id="a_node17"><a xlink:href="f__op__actor__mng_8cpp.html" target="_top" xlink:title=" ">
<polygon fill="white" stroke="#666666" points="2088,-30 1987,-30 1987,0 2088,0 2088,-30"/>
<text text-anchor="start" x="1995" y="-18" font-family="Helvetica,sans-Serif" font-size="10.00">src/f_op/f_op_actor</text>
<text text-anchor="middle" x="2037.5" y="-7" font-family="Helvetica,sans-Serif" font-size="10.00">_mng.cpp</text>
</a>
</g>
</g>
<!-- Node2&#45;&gt;Node17 -->
<g id="edge16" class="edge">
<title>Node2&#45;&gt;Node17</title>
<path fill="none" stroke="#63b8ff" d="M1275.42,-66.33C1276.45,-66.22 1277.48,-66.11 1278.5,-66 1587.91,-33.79 1669.48,-73.51 1977.5,-30 1980.47,-29.58 1983.5,-29.09 1986.55,-28.54"/>
<polygon fill="#63b8ff" stroke="#63b8ff" points="1275.23,-62.83 1265.71,-67.49 1276.05,-69.78 1275.23,-62.83"/>
</g>
<!-- Node2&#45;&gt;Node18 -->
<g id="edge17" class="edge">
<title>Node2&#45;&gt;Node18</title>
<path fill="none" stroke="#63b8ff" d="M1275.42,-66.31C1276.45,-66.2 1277.48,-66.1 1278.5,-66 1714.1,-23.92 1827.94,-81.68 2262.5,-30 2272.45,-28.82 2283.11,-26.95 2293,-24.97"/>
<polygon fill="#63b8ff" stroke="#63b8ff" points="1275.24,-62.81 1265.7,-67.42 1276.04,-69.76 1275.24,-62.81"/>
</g>
<!-- Node19 -->
<g id="node19" class="node">
<title>Node19</title>
<g id="a_node19"><a xlink:href="m__Do__machine_8cpp.html" target="_top" xlink:title=" ">
<polygon fill="white" stroke="#666666" points="2253,-24.5 2106,-24.5 2106,-5.5 2253,-5.5 2253,-24.5"/>
<text text-anchor="middle" x="2179.5" y="-12.5" font-family="Helvetica,sans-Serif" font-size="10.00">src/m_Do/m_Do_machine.cpp</text>
</a>
</g>
</g>
<!-- Node2&#45;&gt;Node19 -->
<g id="edge18" class="edge">
<title>Node2&#45;&gt;Node19</title>
<path fill="none" stroke="#63b8ff" d="M1275.42,-66.32C1276.45,-66.21 1277.48,-66.1 1278.5,-66 1641.03,-29.63 1735.21,-68.74 2097.5,-30 2109.13,-28.76 2121.61,-26.9 2133.24,-24.94"/>
<polygon fill="#63b8ff" stroke="#63b8ff" points="1275.23,-62.82 1265.71,-67.45 1276.04,-69.77 1275.23,-62.82"/>
</g>
</g>
</svg>
        <g id="navigator" transform="translate(0 0)" fill="#404254">
                <rect fill="#f2f5e9" fill-opacity="0.5" stroke="#606060" stroke-width=".5" x="0" y="0" width="60" height="60"/>
                <use id="zoomplus" xlink:href="#zoomPlus" x="17" y="9" onmousedown="handleZoom(evt,'in')"/>
                <use id="zoomminus" xlink:href="#zoomMin" x="42" y="9" onmousedown="handleZoom(evt,'out')"/>
                <use id="reset" xlink:href="#resetDef" x="30" y="36" onmousedown="handleReset()"/>
                <g id="arrowUp" xlink:href="#dirArrow" transform="translate(30 24)" onmousedown="handlePan(0,-1)">
                  <use xlink:href="#rim" fill="#404040">
                        <set attributeName="fill" to="#808080" begin="arrowUp.mouseover" end="arrowUp.mouseout"/>
                  </use>
                  <path fill="none" stroke="white" stroke-width="1.5" d="M0,-3.0v7 M-2.5,-0.5L0,-3.0L2.5,-0.5"/>
                </g>
                <g id="arrowRight" xlink:href="#dirArrow" transform="rotate(90) translate(36 -43)" onmousedown="handlePan(1,0)">
                  <use xlink:href="#rim" fill="#404040">
                        <set attributeName="fill" to="#808080" begin="arrowRight.mouseover" end="arrowRight.mouseout"/>
                  </use>
                  <path fill="none" stroke="white" stroke-width="1.5" d="M0,-3.0v7 M-2.5,-0.5L0,-3.0L2.5,-0.5"/>
                </g>
                <g id="arrowDown" xlink:href="#dirArrow" transform="rotate(180) translate(-30 -48)" onmousedown="handlePan(0,1)">
                  <use xlink:href="#rim" fill="#404040">
                        <set attributeName="fill" to="#808080" begin="arrowDown.mouseover" end="arrowDown.mouseout"/>
                  </use>
                  <path fill="none" stroke="white" stroke-width="1.5" d="M0,-3.0v7 M-2.5,-0.5L0,-3.0L2.5,-0.5"/>
                </g>
                <g id="arrowLeft" xlink:href="#dirArrow" transform="rotate(270) translate(-36 17)" onmousedown="handlePan(-1,0)">
                  <use xlink:href="#rim" fill="#404040">
                        <set attributeName="fill" to="#808080" begin="arrowLeft.mouseover" end="arrowLeft.mouseout"/>
                  </use>
                  <path fill="none" stroke="white" stroke-width="1.5" d="M0,-3.0v7 M-2.5,-0.5L0,-3.0L2.5,-0.5"/>
                </g>
        </g>
        <svg viewBox="0 0 15 15" width="100%" height="30px" preserveAspectRatio="xMaxYMin meet">
         <g id="arrow_out" transform="scale(0.3 0.3)">
          <a xlink:href="JMATrigonometric_8h__dep__incl_org.svg" target="_base">
           <rect id="button" ry="5" rx="5" y="6" x="6" height="38" width="38"
                fill="#f2f5e9" fill-opacity="0.5" stroke="#606060" stroke-width="1.0"/>
           <path id="arrow"
             d="M 11.500037,31.436501 C 11.940474,20.09759 22.043105,11.32322 32.158766,21.979434 L 37.068811,17.246167 C 37.068811,17.246167 37.088388,32 37.088388,32 L 22.160133,31.978069 C 22.160133,31.978069 26.997745,27.140456 26.997745,27.140456 C 18.528582,18.264221 13.291696,25.230495 11.500037,31.436501 z"
             style="fill:#404040;"/>
          </a>
         </g>
        </svg>
</svg>
