<?xml version="1.0" encoding="UTF-8" standalone="no"?>
<!DOCTYPE svg PUBLIC "-//W3C//DTD SVG 1.1//EN"
 "http://www.w3.org/Graphics/SVG/1.1/DTD/svg11.dtd">
<!-- Generated by graphviz version 3.0.0 (20220413.0242)
 -->
<!-- Title: include/JSystem/JMessage/control.h Pages: 1 -->
<!--zoomable 296 -->
<svg id="main" version="1.1" xmlns="http://www.w3.org/2000/svg" xmlns:xlink="http://www.w3.org/1999/xlink" xml:space="preserve" onload="init(evt)">
<style type="text/css"><![CDATA[
.edge:hover path { stroke: red; }
.edge:hover polygon { stroke: red; fill: red; }
]]></style>
<script type="text/javascript"><![CDATA[
var edges = document.getElementsByTagName('g');
if (edges && edges.length) {
  for (var i=0;i<edges.length;i++) {
    if (edges[i].id.substr(0,4)=='edge') {
      edges[i].setAttribute('class','edge');
    }
  }
}
]]></script>
        <defs>
                <circle id="rim" cx="0" cy="0" r="7"/>
                <circle id="rim2" cx="0" cy="0" r="3.5"/>
                <g id="zoomPlus">
                        <use xlink:href="#rim" fill="#404040">
                                <set attributeName="fill" to="#808080" begin="zoomplus.mouseover" end="zoomplus.mouseout"/>
                        </use>
                        <path d="M-4,0h8M0,-4v8" fill="none" stroke="white" stroke-width="1.5" pointer-events="none"/>
                </g>
                <g id="zoomMin">
                        <use xlink:href="#rim" fill="#404040">
                                <set attributeName="fill" to="#808080" begin="zoomminus.mouseover" end="zoomminus.mouseout"/>
                        </use>
                        <path d="M-4,0h8" fill="none" stroke="white" stroke-width="1.5" pointer-events="none"/>
                </g>
                <g id="dirArrow">
                        <path fill="none" stroke="white" stroke-width="1.5" d="M0,-3.0v7 M-2.5,-0.5L0,-3.0L2.5,-0.5"/>
                </g>
               <g id="resetDef">
                       <use xlink:href="#rim2" fill="#404040">
                               <set attributeName="fill" to="#808080" begin="reset.mouseover" end="reset.mouseout"/>
                       </use>
               </g>
        </defs>

<script type="text/javascript">
var viewWidth = 2395;
var viewHeight = 296;
var sectionId = 'dynsection-1';
</script>
<script xlink:href="svgpan.js"/>
<svg id="graph" class="graph">
<g id="viewport">
<title>include/JSystem/JMessage/control.h</title>
<polygon fill="white" stroke="transparent" points="-4,4 -4,-292 2390.5,-292 2390.5,4 -4,4"/>
<!-- Node1 -->
<g id="node1" class="node">
<title>Node1</title>
<g id="a_node1"><a xlink:title=" ">
<polygon fill="#bfbfbf" stroke="black" points="1327,-257.5 1327,-287.5 1464,-287.5 1464,-257.5 1327,-257.5"/>
<text text-anchor="start" x="1335" y="-275.5" font-family="Helvetica,sans-Serif" font-size="10.00">include/JSystem/JMessage</text>
<text text-anchor="middle" x="1395.5" y="-264.5" font-family="Helvetica,sans-Serif" font-size="10.00">/control.h</text>
</a>
</g>
</g>
<!-- Node2 -->
<g id="node2" class="node">
<title>Node2</title>
<g id="a_node2"><a xlink:href="d__msg__object_8h.html" target="_top" xlink:title=" ">
<polygon fill="white" stroke="black" points="1206.5,-190.5 1206.5,-220.5 1316.5,-220.5 1316.5,-190.5 1206.5,-190.5"/>
<text text-anchor="start" x="1214.5" y="-208.5" font-family="Helvetica,sans-Serif" font-size="10.00">include/d/msg/d_msg</text>
<text text-anchor="middle" x="1261.5" y="-197.5" font-family="Helvetica,sans-Serif" font-size="10.00">_object.h</text>
</a>
</g>
</g>
<!-- Node1&#45;&gt;Node2 -->
<g id="edge1" class="edge">
<title>Node1&#45;&gt;Node2</title>
<path fill="none" stroke="midnightblue" d="M1357.35,-252.99C1336.11,-242.69 1310.09,-230.07 1290.52,-220.58"/>
<polygon fill="midnightblue" stroke="midnightblue" points="1355.9,-256.18 1366.42,-257.4 1358.95,-249.88 1355.9,-256.18"/>
</g>
<!-- Node23 -->
<g id="node23" class="node">
<title>Node23</title>
<g id="a_node23"><a xlink:href="JMessage_2control_8cpp.html" target="_top" xlink:title=" ">
<polygon fill="white" stroke="black" points="1335,-190.5 1335,-220.5 1456,-220.5 1456,-190.5 1335,-190.5"/>
<text text-anchor="start" x="1343" y="-208.5" font-family="Helvetica,sans-Serif" font-size="10.00">libs/JSystem/JMessage</text>
<text text-anchor="middle" x="1395.5" y="-197.5" font-family="Helvetica,sans-Serif" font-size="10.00">/control.cpp</text>
</a>
</g>
</g>
<!-- Node1&#45;&gt;Node23 -->
<g id="edge22" class="edge">
<title>Node1&#45;&gt;Node23</title>
<path fill="none" stroke="midnightblue" d="M1395.5,-247.11C1395.5,-238.15 1395.5,-228.32 1395.5,-220.58"/>
<polygon fill="midnightblue" stroke="midnightblue" points="1392,-247.4 1395.5,-257.4 1399,-247.4 1392,-247.4"/>
</g>
<!-- Node24 -->
<g id="node24" class="node">
<title>Node24</title>
<g id="a_node24"><a xlink:href="processor_8cpp.html" target="_top" xlink:title=" ">
<polygon fill="white" stroke="black" points="1474,-190.5 1474,-220.5 1595,-220.5 1595,-190.5 1474,-190.5"/>
<text text-anchor="start" x="1482" y="-208.5" font-family="Helvetica,sans-Serif" font-size="10.00">libs/JSystem/JMessage</text>
<text text-anchor="middle" x="1534.5" y="-197.5" font-family="Helvetica,sans-Serif" font-size="10.00">/processor.cpp</text>
</a>
</g>
</g>
<!-- Node1&#45;&gt;Node24 -->
<g id="edge23" class="edge">
<title>Node1&#45;&gt;Node24</title>
<path fill="none" stroke="midnightblue" d="M1434.78,-253.13C1456.87,-242.8 1484.01,-230.11 1504.4,-220.58"/>
<polygon fill="midnightblue" stroke="midnightblue" points="1433.24,-249.99 1425.66,-257.4 1436.2,-256.33 1433.24,-249.99"/>
</g>
<!-- Node3 -->
<g id="node3" class="node">
<title>Node3</title>
<g id="a_node3"><a xlink:href="d__msg__string__base_8h.html" target="_top" xlink:title=" ">
<polygon fill="white" stroke="black" points="166.5,-123.5 166.5,-153.5 276.5,-153.5 276.5,-123.5 166.5,-123.5"/>
<text text-anchor="start" x="174.5" y="-141.5" font-family="Helvetica,sans-Serif" font-size="10.00">include/d/msg/d_msg</text>
<text text-anchor="middle" x="221.5" y="-130.5" font-family="Helvetica,sans-Serif" font-size="10.00">_string_base.h</text>
</a>
</g>
</g>
<!-- Node2&#45;&gt;Node3 -->
<g id="edge2" class="edge">
<title>Node2&#45;&gt;Node3</title>
<path fill="none" stroke="midnightblue" d="M1196.05,-204.89C1038.6,-204.99 626.54,-200.4 286.5,-154 283.29,-153.56 280.01,-153.05 276.7,-152.48"/>
<polygon fill="midnightblue" stroke="midnightblue" points="1196.5,-208.38 1206.49,-204.87 1196.49,-201.38 1196.5,-208.38"/>
</g>
<!-- Node8 -->
<g id="node8" class="node">
<title>Node8</title>
<g id="a_node8"><a xlink:href="d__event_8cpp.html" target="_top" xlink:title=" ">
<polygon fill="white" stroke="black" points="295,-129 295,-148 416,-148 416,-129 295,-129"/>
<text text-anchor="middle" x="355.5" y="-136" font-family="Helvetica,sans-Serif" font-size="10.00">src/d/event/d_event.cpp</text>
</a>
</g>
</g>
<!-- Node2&#45;&gt;Node8 -->
<g id="edge7" class="edge">
<title>Node2&#45;&gt;Node8</title>
<path fill="none" stroke="midnightblue" d="M1196.25,-203.75C1055.07,-201.42 710.95,-191.98 425.5,-154 414.43,-152.53 402.49,-150.3 391.66,-148.03"/>
<polygon fill="midnightblue" stroke="midnightblue" points="1196.41,-207.25 1206.46,-203.91 1196.52,-200.25 1196.41,-207.25"/>
</g>
<!-- Node9 -->
<g id="node9" class="node">
<title>Node9</title>
<g id="a_node9"><a xlink:href="d__event__data_8cpp.html" target="_top" xlink:title=" ">
<polygon fill="white" stroke="black" points="434,-123.5 434,-153.5 537,-153.5 537,-123.5 434,-123.5"/>
<text text-anchor="start" x="442" y="-141.5" font-family="Helvetica,sans-Serif" font-size="10.00">src/d/event/d_event</text>
<text text-anchor="middle" x="485.5" y="-130.5" font-family="Helvetica,sans-Serif" font-size="10.00">_data.cpp</text>
</a>
</g>
</g>
<!-- Node2&#45;&gt;Node9 -->
<g id="edge8" class="edge">
<title>Node2&#45;&gt;Node9</title>
<path fill="none" stroke="midnightblue" d="M1196.18,-203.44C1069.95,-200.6 783.99,-190.37 546.5,-154 543.49,-153.54 540.4,-153 537.3,-152.42"/>
<polygon fill="midnightblue" stroke="midnightblue" points="1196.37,-206.94 1206.44,-203.66 1196.52,-199.94 1196.37,-206.94"/>
</g>
<!-- Node10 -->
<g id="node10" class="node">
<title>Node10</title>
<g id="a_node10"><a xlink:href="d__kankyo_8cpp.html" target="_top" xlink:title=" ">
<polygon fill="white" stroke="black" points="555.5,-129 555.5,-148 689.5,-148 689.5,-129 555.5,-129"/>
<text text-anchor="middle" x="622.5" y="-136" font-family="Helvetica,sans-Serif" font-size="10.00">src/d/kankyo/d_kankyo.cpp</text>
</a>
</g>
</g>
<!-- Node2&#45;&gt;Node10 -->
<g id="edge9" class="edge">
<title>Node2&#45;&gt;Node10</title>
<path fill="none" stroke="midnightblue" d="M1196.13,-200.68C1091.09,-194.08 878.39,-178.82 699.5,-154 687.91,-152.39 675.42,-150.23 663.94,-148.06"/>
<polygon fill="midnightblue" stroke="midnightblue" points="1196.06,-204.18 1206.26,-201.31 1196.49,-197.2 1196.06,-204.18"/>
</g>
<!-- Node11 -->
<g id="node11" class="node">
<title>Node11</title>
<g id="a_node11"><a xlink:href="d__menu__window_8cpp.html" target="_top" xlink:title=" ">
<polygon fill="white" stroke="black" points="708,-129 708,-148 867,-148 867,-129 708,-129"/>
<text text-anchor="middle" x="787.5" y="-136" font-family="Helvetica,sans-Serif" font-size="10.00">src/d/menu/d_menu_window.cpp</text>
</a>
</g>
</g>
<!-- Node2&#45;&gt;Node11 -->
<g id="edge10" class="edge">
<title>Node2&#45;&gt;Node11</title>
<path fill="none" stroke="midnightblue" d="M1196.29,-196.57C1119.65,-187.11 988.68,-170.49 876.5,-154 864.11,-152.18 850.77,-150.08 838.29,-148.05"/>
<polygon fill="midnightblue" stroke="midnightblue" points="1195.92,-200.05 1206.28,-197.8 1196.78,-193.11 1195.92,-200.05"/>
</g>
<!-- Node12 -->
<g id="node12" class="node">
<title>Node12</title>
<g id="a_node12"><a xlink:href="d__meter2__draw_8cpp.html" target="_top" xlink:title=" ">
<polygon fill="white" stroke="black" points="885.5,-123.5 885.5,-153.5 995.5,-153.5 995.5,-123.5 885.5,-123.5"/>
<text text-anchor="start" x="893.5" y="-141.5" font-family="Helvetica,sans-Serif" font-size="10.00">src/d/meter/d_meter2</text>
<text text-anchor="middle" x="940.5" y="-130.5" font-family="Helvetica,sans-Serif" font-size="10.00">_draw.cpp</text>
</a>
</g>
</g>
<!-- Node2&#45;&gt;Node12 -->
<g id="edge11" class="edge">
<title>Node2&#45;&gt;Node12</title>
<path fill="none" stroke="midnightblue" d="M1196.17,-192.2C1144.16,-182.28 1069.56,-167.76 1004.5,-154 1001.6,-153.39 998.63,-152.75 995.64,-152.1"/>
<polygon fill="midnightblue" stroke="midnightblue" points="1195.78,-195.69 1206.26,-194.12 1197.09,-188.81 1195.78,-195.69"/>
</g>
<!-- Node13 -->
<g id="node13" class="node">
<title>Node13</title>
<g id="a_node13"><a xlink:href="d__meter2__info_8cpp.html" target="_top" xlink:title=" ">
<polygon fill="white" stroke="black" points="1013.5,-123.5 1013.5,-153.5 1123.5,-153.5 1123.5,-123.5 1013.5,-123.5"/>
<text text-anchor="start" x="1021.5" y="-141.5" font-family="Helvetica,sans-Serif" font-size="10.00">src/d/meter/d_meter2</text>
<text text-anchor="middle" x="1068.5" y="-130.5" font-family="Helvetica,sans-Serif" font-size="10.00">_info.cpp</text>
</a>
</g>
</g>
<!-- Node2&#45;&gt;Node13 -->
<g id="edge12" class="edge">
<title>Node2&#45;&gt;Node13</title>
<path fill="none" stroke="midnightblue" d="M1209.81,-187.09C1178.66,-176.6 1139.49,-163.41 1110.3,-153.58"/>
<polygon fill="midnightblue" stroke="midnightblue" points="1209.03,-190.52 1219.62,-190.4 1211.26,-183.89 1209.03,-190.52"/>
</g>
<!-- Node14 -->
<g id="node14" class="node">
<title>Node14</title>
<g id="a_node14"><a xlink:href="d__meter__map_8cpp.html" target="_top" xlink:title=" ">
<polygon fill="white" stroke="black" points="1141.5,-123.5 1141.5,-153.5 1245.5,-153.5 1245.5,-123.5 1141.5,-123.5"/>
<text text-anchor="start" x="1149.5" y="-141.5" font-family="Helvetica,sans-Serif" font-size="10.00">src/d/meter/d_meter</text>
<text text-anchor="middle" x="1193.5" y="-130.5" font-family="Helvetica,sans-Serif" font-size="10.00">_map.cpp</text>
</a>
</g>
</g>
<!-- Node2&#45;&gt;Node14 -->
<g id="edge13" class="edge">
<title>Node2&#45;&gt;Node14</title>
<path fill="none" stroke="midnightblue" d="M1239.33,-183.31C1229.13,-173.56 1217.31,-162.26 1208.23,-153.58"/>
<polygon fill="midnightblue" stroke="midnightblue" points="1237.1,-186.02 1246.75,-190.4 1241.93,-180.96 1237.1,-186.02"/>
</g>
<!-- Node15 -->
<g id="node15" class="node">
<title>Node15</title>
<g id="a_node15"><a xlink:href="d__msg__flow_8cpp.html" target="_top" xlink:title=" ">
<polygon fill="white" stroke="black" points="1264,-129 1264,-148 1397,-148 1397,-129 1264,-129"/>
<text text-anchor="middle" x="1330.5" y="-136" font-family="Helvetica,sans-Serif" font-size="10.00">src/d/msg/d_msg_flow.cpp</text>
</a>
</g>
</g>
<!-- Node2&#45;&gt;Node15 -->
<g id="edge14" class="edge">
<title>Node2&#45;&gt;Node15</title>
<path fill="none" stroke="midnightblue" d="M1283.97,-183.34C1296.64,-171.4 1311.78,-157.14 1321.27,-148.19"/>
<polygon fill="midnightblue" stroke="midnightblue" points="1281.35,-180.99 1276.47,-190.4 1286.15,-186.09 1281.35,-180.99"/>
</g>
<!-- Node16 -->
<g id="node16" class="node">
<title>Node16</title>
<g id="a_node16"><a xlink:href="d__msg__object_8cpp.html" target="_top" xlink:title=" ">
<polygon fill="white" stroke="black" points="1415.5,-129 1415.5,-148 1557.5,-148 1557.5,-129 1415.5,-129"/>
<text text-anchor="middle" x="1486.5" y="-136" font-family="Helvetica,sans-Serif" font-size="10.00">src/d/msg/d_msg_object.cpp</text>
</a>
</g>
</g>
<!-- Node2&#45;&gt;Node16 -->
<g id="edge15" class="edge">
<title>Node2&#45;&gt;Node16</title>
<path fill="none" stroke="midnightblue" d="M1319.76,-187.67C1363.73,-174.97 1422.24,-158.06 1456.98,-148.03"/>
<polygon fill="midnightblue" stroke="midnightblue" points="1318.68,-184.34 1310.04,-190.48 1320.62,-191.06 1318.68,-184.34"/>
</g>
<!-- Node17 -->
<g id="node17" class="node">
<title>Node17</title>
<g id="a_node17"><a xlink:href="d__msg__out__font_8cpp.html" target="_top" xlink:title=" ">
<polygon fill="white" stroke="black" points="1576,-123.5 1576,-153.5 1687,-153.5 1687,-123.5 1576,-123.5"/>
<text text-anchor="start" x="1584" y="-141.5" font-family="Helvetica,sans-Serif" font-size="10.00">src/d/msg/d_msg_out</text>
<text text-anchor="middle" x="1631.5" y="-130.5" font-family="Helvetica,sans-Serif" font-size="10.00">_font.cpp</text>
</a>
</g>
</g>
<!-- Node2&#45;&gt;Node17 -->
<g id="edge16" class="edge">
<title>Node2&#45;&gt;Node17</title>
<path fill="none" stroke="midnightblue" d="M1326.72,-190.05C1434.24,-170.43 1463.57,-173.18 1566.5,-154 1569.57,-153.43 1572.71,-152.82 1575.88,-152.18"/>
<polygon fill="midnightblue" stroke="midnightblue" points="1325.96,-186.63 1316.76,-191.89 1327.23,-193.52 1325.96,-186.63"/>
</g>
<!-- Node18 -->
<g id="node18" class="node">
<title>Node18</title>
<g id="a_node18"><a xlink:href="d__s__play_8cpp.html" target="_top" xlink:title=" ">
<polygon fill="white" stroke="black" points="1704.5,-129 1704.5,-148 1810.5,-148 1810.5,-129 1704.5,-129"/>
<text text-anchor="middle" x="1757.5" y="-136" font-family="Helvetica,sans-Serif" font-size="10.00">src/d/s/d_s_play.cpp</text>
</a>
</g>
</g>
<!-- Node2&#45;&gt;Node18 -->
<g id="edge17" class="edge">
<title>Node2&#45;&gt;Node18</title>
<path fill="none" stroke="midnightblue" d="M1326.72,-190.12C1491.42,-164.62 1536.71,-180.64 1696.5,-154 1705.95,-152.42 1716.11,-150.22 1725.38,-148"/>
<polygon fill="midnightblue" stroke="midnightblue" points="1326.06,-186.68 1316.73,-191.7 1327.15,-193.6 1326.06,-186.68"/>
</g>
<!-- Node19 -->
<g id="node19" class="node">
<title>Node19</title>
<g id="a_node19"><a xlink:href="d__shop__system_8cpp.html" target="_top" xlink:title=" ">
<polygon fill="white" stroke="black" points="1828.5,-129 1828.5,-148 1980.5,-148 1980.5,-129 1828.5,-129"/>
<text text-anchor="middle" x="1904.5" y="-136" font-family="Helvetica,sans-Serif" font-size="10.00">src/d/shop/d_shop_system.cpp</text>
</a>
</g>
</g>
<!-- Node2&#45;&gt;Node19 -->
<g id="edge18" class="edge">
<title>Node2&#45;&gt;Node19</title>
<path fill="none" stroke="midnightblue" d="M1326.91,-190.12C1545.63,-158.67 1604.71,-180.1 1819.5,-154 1832.43,-152.43 1846.39,-150.25 1859.18,-148.06"/>
<polygon fill="midnightblue" stroke="midnightblue" points="1326.11,-186.7 1316.72,-191.6 1327.12,-193.62 1326.11,-186.7"/>
</g>
<!-- Node20 -->
<g id="node20" class="node">
<title>Node20</title>
<g id="a_node20"><a xlink:href="f__op__msg__mng_8cpp.html" target="_top" xlink:title=" ">
<polygon fill="white" stroke="black" points="1998.5,-129 1998.5,-148 2138.5,-148 2138.5,-129 1998.5,-129"/>
<text text-anchor="middle" x="2068.5" y="-136" font-family="Helvetica,sans-Serif" font-size="10.00">src/f_op/f_op_msg_mng.cpp</text>
</a>
</g>
</g>
<!-- Node2&#45;&gt;Node20 -->
<g id="edge19" class="edge">
<title>Node2&#45;&gt;Node20</title>
<path fill="none" stroke="midnightblue" d="M1326.8,-190.16C1620.61,-150.6 1699.74,-188.32 1989.5,-154 2001.96,-152.52 2015.43,-150.29 2027.65,-148.02"/>
<polygon fill="midnightblue" stroke="midnightblue" points="1326.14,-186.71 1316.71,-191.53 1327.09,-193.65 1326.14,-186.71"/>
</g>
<!-- Node21 -->
<g id="node21" class="node">
<title>Node21</title>
<g id="a_node21"><a xlink:href="d__msg__scrn__base_8cpp.html" target="_top" xlink:title=" ">
<polygon fill="white" stroke="black" points="2156.5,-123.5 2156.5,-153.5 2262.5,-153.5 2262.5,-123.5 2156.5,-123.5"/>
<text text-anchor="start" x="2164.5" y="-141.5" font-family="Helvetica,sans-Serif" font-size="10.00">src/msg/scrn/d_msg</text>
<text text-anchor="middle" x="2209.5" y="-130.5" font-family="Helvetica,sans-Serif" font-size="10.00">_scrn_base.cpp</text>
</a>
</g>
</g>
<!-- Node2&#45;&gt;Node21 -->
<g id="edge20" class="edge">
<title>Node2&#45;&gt;Node21</title>
<path fill="none" stroke="midnightblue" d="M1326.71,-190.18C1690.35,-143.16 1788.94,-203.35 2147.5,-154 2150.35,-153.61 2153.26,-153.15 2156.18,-152.63"/>
<polygon fill="midnightblue" stroke="midnightblue" points="1326.16,-186.72 1316.7,-191.49 1327.07,-193.66 1326.16,-186.72"/>
</g>
<!-- Node22 -->
<g id="node22" class="node">
<title>Node22</title>
<g id="a_node22"><a xlink:href="d__msg__scrn__boss_8cpp.html" target="_top" xlink:title=" ">
<polygon fill="white" stroke="black" points="2280.5,-123.5 2280.5,-153.5 2386.5,-153.5 2386.5,-123.5 2280.5,-123.5"/>
<text text-anchor="start" x="2288.5" y="-141.5" font-family="Helvetica,sans-Serif" font-size="10.00">src/msg/scrn/d_msg</text>
<text text-anchor="middle" x="2333.5" y="-130.5" font-family="Helvetica,sans-Serif" font-size="10.00">_scrn_boss.cpp</text>
</a>
</g>
</g>
<!-- Node2&#45;&gt;Node22 -->
<g id="edge21" class="edge">
<title>Node2&#45;&gt;Node22</title>
<path fill="none" stroke="midnightblue" d="M1326.64,-190.2C1745.09,-137.17 1858.21,-209.68 2271.5,-154 2274.35,-153.62 2277.26,-153.16 2280.19,-152.65"/>
<polygon fill="midnightblue" stroke="midnightblue" points="1326.17,-186.73 1316.7,-191.47 1327.06,-193.67 1326.17,-186.73"/>
</g>
<!-- Node4 -->
<g id="node4" class="node">
<title>Node4</title>
<g id="a_node4"><a xlink:href="d__msg__string_8h.html" target="_top" xlink:title=" ">
<polygon fill="white" stroke="black" points="99.5,-56.5 99.5,-86.5 209.5,-86.5 209.5,-56.5 99.5,-56.5"/>
<text text-anchor="start" x="107.5" y="-74.5" font-family="Helvetica,sans-Serif" font-size="10.00">include/d/msg/d_msg</text>
<text text-anchor="middle" x="154.5" y="-63.5" font-family="Helvetica,sans-Serif" font-size="10.00">_string.h</text>
</a>
</g>
</g>
<!-- Node3&#45;&gt;Node4 -->
<g id="edge3" class="edge">
<title>Node3&#45;&gt;Node4</title>
<path fill="none" stroke="midnightblue" d="M199.66,-116.31C189.61,-106.56 177.96,-95.26 169.01,-86.58"/>
<polygon fill="midnightblue" stroke="midnightblue" points="197.35,-118.94 206.96,-123.4 202.22,-113.92 197.35,-118.94"/>
</g>
<!-- Node7 -->
<g id="node7" class="node">
<title>Node7</title>
<g id="a_node7"><a xlink:href="d__msg__string__base_8cpp.html" target="_top" xlink:title=" ">
<polygon fill="white" stroke="black" points="227.5,-56.5 227.5,-86.5 349.5,-86.5 349.5,-56.5 227.5,-56.5"/>
<text text-anchor="start" x="235.5" y="-74.5" font-family="Helvetica,sans-Serif" font-size="10.00">src/d/msg/d_msg_string</text>
<text text-anchor="middle" x="288.5" y="-63.5" font-family="Helvetica,sans-Serif" font-size="10.00">_base.cpp</text>
</a>
</g>
</g>
<!-- Node3&#45;&gt;Node7 -->
<g id="edge6" class="edge">
<title>Node3&#45;&gt;Node7</title>
<path fill="none" stroke="midnightblue" d="M243.34,-116.31C253.39,-106.56 265.04,-95.26 273.99,-86.58"/>
<polygon fill="midnightblue" stroke="midnightblue" points="240.78,-113.92 236.04,-123.4 245.65,-118.94 240.78,-113.92"/>
</g>
<!-- Node5 -->
<g id="node5" class="node">
<title>Node5</title>
<g id="a_node5"><a xlink:href="d__menu__save_8cpp.html" target="_top" xlink:title=" ">
<polygon fill="white" stroke="black" points="0,-0.5 0,-19.5 147,-19.5 147,-0.5 0,-0.5"/>
<text text-anchor="middle" x="73.5" y="-7.5" font-family="Helvetica,sans-Serif" font-size="10.00">src/d/menu/d_menu_save.cpp</text>
</a>
</g>
</g>
<!-- Node4&#45;&gt;Node5 -->
<g id="edge4" class="edge">
<title>Node4&#45;&gt;Node5</title>
<path fill="none" stroke="midnightblue" d="M126.85,-50.19C112.67,-39.77 96.14,-27.63 85.29,-19.66"/>
<polygon fill="midnightblue" stroke="midnightblue" points="125.17,-53.3 135.3,-56.4 129.32,-47.66 125.17,-53.3"/>
</g>
<!-- Node6 -->
<g id="node6" class="node">
<title>Node6</title>
<g id="a_node6"><a xlink:href="d__msg__string_8cpp.html" target="_top" xlink:title=" ">
<polygon fill="white" stroke="black" points="165.5,-0.5 165.5,-19.5 305.5,-19.5 305.5,-0.5 165.5,-0.5"/>
<text text-anchor="middle" x="235.5" y="-7.5" font-family="Helvetica,sans-Serif" font-size="10.00">src/d/msg/d_msg_string.cpp</text>
</a>
</g>
</g>
<!-- Node4&#45;&gt;Node6 -->
<g id="edge5" class="edge">
<title>Node4&#45;&gt;Node6</title>
<path fill="none" stroke="midnightblue" d="M182.15,-50.19C196.33,-39.77 212.86,-27.63 223.71,-19.66"/>
<polygon fill="midnightblue" stroke="midnightblue" points="179.68,-47.66 173.7,-56.4 183.83,-53.3 179.68,-47.66"/>
</g>
</g>
</svg>
        <g id="navigator" transform="translate(0 0)" fill="#404254">
                <rect fill="#f2f5e9" fill-opacity="0.5" stroke="#606060" stroke-width=".5" x="0" y="0" width="60" height="60"/>
                <use id="zoomplus" xlink:href="#zoomPlus" x="17" y="9" onmousedown="handleZoom(evt,'in')"/>
                <use id="zoomminus" xlink:href="#zoomMin" x="42" y="9" onmousedown="handleZoom(evt,'out')"/>
                <use id="reset" xlink:href="#resetDef" x="30" y="36" onmousedown="handleReset()"/>
                <g id="arrowUp" xlink:href="#dirArrow" transform="translate(30 24)" onmousedown="handlePan(0,-1)">
                  <use xlink:href="#rim" fill="#404040">
                        <set attributeName="fill" to="#808080" begin="arrowUp.mouseover" end="arrowUp.mouseout"/>
                  </use>
                  <path fill="none" stroke="white" stroke-width="1.5" d="M0,-3.0v7 M-2.5,-0.5L0,-3.0L2.5,-0.5"/>
                </g>
                <g id="arrowRight" xlink:href="#dirArrow" transform="rotate(90) translate(36 -43)" onmousedown="handlePan(1,0)">
                  <use xlink:href="#rim" fill="#404040">
                        <set attributeName="fill" to="#808080" begin="arrowRight.mouseover" end="arrowRight.mouseout"/>
                  </use>
                  <path fill="none" stroke="white" stroke-width="1.5" d="M0,-3.0v7 M-2.5,-0.5L0,-3.0L2.5,-0.5"/>
                </g>
                <g id="arrowDown" xlink:href="#dirArrow" transform="rotate(180) translate(-30 -48)" onmousedown="handlePan(0,1)">
                  <use xlink:href="#rim" fill="#404040">
                        <set attributeName="fill" to="#808080" begin="arrowDown.mouseover" end="arrowDown.mouseout"/>
                  </use>
                  <path fill="none" stroke="white" stroke-width="1.5" d="M0,-3.0v7 M-2.5,-0.5L0,-3.0L2.5,-0.5"/>
                </g>
                <g id="arrowLeft" xlink:href="#dirArrow" transform="rotate(270) translate(-36 17)" onmousedown="handlePan(-1,0)">
                  <use xlink:href="#rim" fill="#404040">
                        <set attributeName="fill" to="#808080" begin="arrowLeft.mouseover" end="arrowLeft.mouseout"/>
                  </use>
                  <path fill="none" stroke="white" stroke-width="1.5" d="M0,-3.0v7 M-2.5,-0.5L0,-3.0L2.5,-0.5"/>
                </g>
        </g>
        <svg viewBox="0 0 15 15" width="100%" height="30px" preserveAspectRatio="xMaxYMin meet">
         <g id="arrow_out" transform="scale(0.3 0.3)">
          <a xlink:href="JMessage_2control_8h__dep__incl_org.svg" target="_base">
           <rect id="button" ry="5" rx="5" y="6" x="6" height="38" width="38"
                fill="#f2f5e9" fill-opacity="0.5" stroke="#606060" stroke-width="1.0"/>
           <path id="arrow"
             d="M 11.500037,31.436501 C 11.940474,20.09759 22.043105,11.32322 32.158766,21.979434 L 37.068811,17.246167 C 37.068811,17.246167 37.088388,32 37.088388,32 L 22.160133,31.978069 C 22.160133,31.978069 26.997745,27.140456 26.997745,27.140456 C 18.528582,18.264221 13.291696,25.230495 11.500037,31.436501 z"
             style="fill:#404040;"/>
          </a>
         </g>
        </svg>
</svg>
