<?xml version="1.0" encoding="UTF-8" standalone="no"?>
<!DOCTYPE svg PUBLIC "-//W3C//DTD SVG 1.1//EN"
 "http://www.w3.org/Graphics/SVG/1.1/DTD/svg11.dtd">
<!-- Generated by graphviz version 3.0.0 (20220413.0242)
 -->
<!-- Title: include/JSystem/JStudio/JStudio/jstudio&#45;math.h Pages: 1 -->
<svg width="386pt" height="319pt"
 viewBox="0.00 0.00 385.50 319.00" xmlns="http://www.w3.org/2000/svg" xmlns:xlink="http://www.w3.org/1999/xlink">
<g id="graph0" class="graph" transform="scale(1 1) rotate(0) translate(4 315)">
<title>include/JSystem/JStudio/JStudio/jstudio&#45;math.h</title>
<polygon fill="white" stroke="transparent" points="-4,4 -4,-315 381.5,-315 381.5,4 -4,4"/>
<!-- Node1 -->
<g id="node1" class="node">
<title>Node1</title>
<g id="a_node1"><a xlink:title=" ">
<polygon fill="#bfbfbf" stroke="black" points="0,-280.5 0,-310.5 125,-310.5 125,-280.5 0,-280.5"/>
<text text-anchor="start" x="8" y="-298.5" font-family="Helvetica,sans-Serif" font-size="10.00">include/JSystem/JStudio</text>
<text text-anchor="middle" x="62.5" y="-287.5" font-family="Helvetica,sans-Serif" font-size="10.00">/JStudio/jstudio&#45;math.h</text>
</a>
</g>
</g>
<!-- Node2 -->
<g id="node2" class="node">
<title>Node2</title>
<g id="a_node2"><a xlink:href="types_8h.html" target="_top" xlink:title=" ">
<polygon fill="white" stroke="black" points="97,-0.5 97,-19.5 178,-19.5 178,-0.5 97,-0.5"/>
<text text-anchor="middle" x="137.5" y="-7.5" font-family="Helvetica,sans-Serif" font-size="10.00">dolphin/types.h</text>
</a>
</g>
</g>
<!-- Node1&#45;&gt;Node2 -->
<g id="edge1" class="edge">
<title>Node1&#45;&gt;Node2</title>
<path fill="none" stroke="midnightblue" d="M54,-280.49C42,-259.3 21.5,-217.51 21.5,-179 21.5,-179 21.5,-179 21.5,-121 21.5,-73.81 72.66,-40.79 107.03,-23.92"/>
<polygon fill="midnightblue" stroke="midnightblue" points="108.67,-27.02 116.22,-19.6 105.69,-20.69 108.67,-27.02"/>
</g>
<!-- Node3 -->
<g id="node3" class="node">
<title>Node3</title>
<g id="a_node3"><a xlink:href="mtxvec_8h.html" target="_top" xlink:title=" ">
<polygon fill="white" stroke="black" points="68.5,-224.5 68.5,-243.5 176.5,-243.5 176.5,-224.5 68.5,-224.5"/>
<text text-anchor="middle" x="122.5" y="-231.5" font-family="Helvetica,sans-Serif" font-size="10.00">dolphin/mtx/mtxvec.h</text>
</a>
</g>
</g>
<!-- Node1&#45;&gt;Node3 -->
<g id="edge2" class="edge">
<title>Node1&#45;&gt;Node3</title>
<path fill="none" stroke="midnightblue" d="M76.72,-280.4C85.71,-271.49 97.34,-259.95 106.63,-250.74"/>
<polygon fill="midnightblue" stroke="midnightblue" points="109.13,-253.18 113.77,-243.66 104.2,-248.21 109.13,-253.18"/>
</g>
<!-- Node3&#45;&gt;Node2 -->
<g id="edge13" class="edge">
<title>Node3&#45;&gt;Node2</title>
<path fill="none" stroke="midnightblue" d="M117.88,-224.34C113.44,-215.49 107.05,-201.22 104.5,-188 98.13,-154.92 85.64,-141.66 111.5,-56 114.46,-46.19 119.91,-36.23 125.06,-28.18"/>
<polygon fill="midnightblue" stroke="midnightblue" points="128.07,-29.97 130.8,-19.73 122.28,-26.04 128.07,-29.97"/>
</g>
<!-- Node4 -->
<g id="node4" class="node">
<title>Node4</title>
<g id="a_node4"><a xlink:href="mtx_8h.html" target="_top" xlink:title=" ">
<polygon fill="white" stroke="black" points="113.5,-168.5 113.5,-187.5 205.5,-187.5 205.5,-168.5 113.5,-168.5"/>
<text text-anchor="middle" x="159.5" y="-175.5" font-family="Helvetica,sans-Serif" font-size="10.00">dolphin/mtx/mtx.h</text>
</a>
</g>
</g>
<!-- Node3&#45;&gt;Node4 -->
<g id="edge3" class="edge">
<title>Node3&#45;&gt;Node4</title>
<path fill="none" stroke="midnightblue" d="M128.61,-224.08C133.78,-216.53 141.35,-205.49 147.69,-196.23"/>
<polygon fill="midnightblue" stroke="midnightblue" points="150.74,-197.98 153.5,-187.75 144.96,-194.02 150.74,-197.98"/>
</g>
<!-- Node7 -->
<g id="node7" class="node">
<title>Node7</title>
<g id="a_node7"><a xlink:href="vec_8h.html" target="_top" xlink:title=" ">
<polygon fill="white" stroke="black" points="285.5,-56.5 285.5,-75.5 377.5,-75.5 377.5,-56.5 285.5,-56.5"/>
<text text-anchor="middle" x="331.5" y="-63.5" font-family="Helvetica,sans-Serif" font-size="10.00">dolphin/mtx/vec.h</text>
</a>
</g>
</g>
<!-- Node3&#45;&gt;Node7 -->
<g id="edge12" class="edge">
<title>Node3&#45;&gt;Node7</title>
<path fill="none" stroke="midnightblue" d="M157.02,-224.4C200.55,-211.71 274.53,-183.7 314.5,-132 324.75,-118.73 328.85,-99.87 330.48,-85.88"/>
<polygon fill="midnightblue" stroke="midnightblue" points="334,-85.76 331.34,-75.5 327.02,-85.18 334,-85.76"/>
</g>
<!-- Node4&#45;&gt;Node2 -->
<g id="edge11" class="edge">
<title>Node4&#45;&gt;Node2</title>
<path fill="none" stroke="midnightblue" d="M154.46,-168.47C144.77,-151.55 123.89,-112.23 116.5,-76 114.72,-67.29 114.57,-64.68 116.5,-56 118.62,-46.43 123.01,-36.48 127.22,-28.37"/>
<polygon fill="midnightblue" stroke="midnightblue" points="130.32,-30 132.12,-19.56 124.2,-26.6 130.32,-30"/>
</g>
<!-- Node5 -->
<g id="node5" class="node">
<title>Node5</title>
<g id="a_node5"><a xlink:href="mtx44_8h.html" target="_top" xlink:title=" ">
<polygon fill="white" stroke="black" points="126,-56.5 126,-75.5 229,-75.5 229,-56.5 126,-56.5"/>
<text text-anchor="middle" x="177.5" y="-63.5" font-family="Helvetica,sans-Serif" font-size="10.00">dolphin/mtx/mtx44.h</text>
</a>
</g>
</g>
<!-- Node4&#45;&gt;Node5 -->
<g id="edge4" class="edge">
<title>Node4&#45;&gt;Node5</title>
<path fill="none" stroke="midnightblue" d="M160.91,-168.37C163.82,-150.62 170.52,-109.67 174.46,-85.6"/>
<polygon fill="midnightblue" stroke="midnightblue" points="177.93,-86.03 176.09,-75.59 171.03,-84.89 177.93,-86.03"/>
</g>
<!-- Node6 -->
<g id="node6" class="node">
<title>Node6</title>
<g id="a_node6"><a xlink:href="quat_8h.html" target="_top" xlink:title=" ">
<polygon fill="white" stroke="black" points="188,-112.5 188,-131.5 283,-131.5 283,-112.5 188,-112.5"/>
<text text-anchor="middle" x="235.5" y="-119.5" font-family="Helvetica,sans-Serif" font-size="10.00">dolphin/mtx/quat.h</text>
</a>
</g>
</g>
<!-- Node4&#45;&gt;Node6 -->
<g id="edge6" class="edge">
<title>Node4&#45;&gt;Node6</title>
<path fill="none" stroke="midnightblue" d="M171.71,-168.32C183.28,-160.11 200.88,-147.6 214.66,-137.81"/>
<polygon fill="midnightblue" stroke="midnightblue" points="216.94,-140.48 223.07,-131.83 212.89,-134.77 216.94,-140.48"/>
</g>
<!-- Node4&#45;&gt;Node7 -->
<g id="edge10" class="edge">
<title>Node4&#45;&gt;Node7</title>
<path fill="none" stroke="midnightblue" d="M205.56,-169.69C233.13,-163.44 267.54,-152.11 292.5,-132 307.67,-119.77 318.34,-99.95 324.64,-85.4"/>
<polygon fill="midnightblue" stroke="midnightblue" points="327.96,-86.51 328.45,-75.93 321.47,-83.89 327.96,-86.51"/>
</g>
<!-- Node5&#45;&gt;Node2 -->
<g id="edge5" class="edge">
<title>Node5&#45;&gt;Node2</title>
<path fill="none" stroke="midnightblue" d="M170.89,-56.08C165.24,-48.46 156.96,-37.26 150.05,-27.94"/>
<polygon fill="midnightblue" stroke="midnightblue" points="152.75,-25.7 143.98,-19.75 147.12,-29.87 152.75,-25.7"/>
</g>
<!-- Node6&#45;&gt;Node2 -->
<g id="edge9" class="edge">
<title>Node6&#45;&gt;Node2</title>
<path fill="none" stroke="midnightblue" d="M238.91,-112.17C243.46,-98.82 249.7,-73.24 238.5,-56 227.1,-38.44 207.08,-27.67 187.85,-21.1"/>
<polygon fill="midnightblue" stroke="midnightblue" points="188.81,-17.73 178.22,-18.11 186.74,-24.42 188.81,-17.73"/>
</g>
<!-- Node6&#45;&gt;Node7 -->
<g id="edge7" class="edge">
<title>Node6&#45;&gt;Node7</title>
<path fill="none" stroke="midnightblue" d="M250.92,-112.32C266.04,-103.82 289.32,-90.73 306.97,-80.8"/>
<polygon fill="midnightblue" stroke="midnightblue" points="309.11,-83.61 316.11,-75.65 305.68,-77.51 309.11,-83.61"/>
</g>
<!-- Node7&#45;&gt;Node2 -->
<g id="edge8" class="edge">
<title>Node7&#45;&gt;Node2</title>
<path fill="none" stroke="midnightblue" d="M300.76,-56.44C267.56,-47.2 214.51,-32.44 177.94,-22.26"/>
<polygon fill="midnightblue" stroke="midnightblue" points="178.67,-18.83 168.1,-19.52 176.79,-25.57 178.67,-18.83"/>
</g>
</g>
</svg>
