<?xml version="1.0" encoding="UTF-8" standalone="no"?>
<!DOCTYPE svg PUBLIC "-//W3C//DTD SVG 1.1//EN"
 "http://www.w3.org/Graphics/SVG/1.1/DTD/svg11.dtd">
<!-- Generated by graphviz version 3.0.0 (20220413.0242)
 -->
<!-- Title: include/JSystem/JStudio/JStudio_JStage/control.h Pages: 1 -->
<svg width="1794pt" height="620pt"
 viewBox="0.00 0.00 1794.00 620.00" xmlns="http://www.w3.org/2000/svg" xmlns:xlink="http://www.w3.org/1999/xlink">
<g id="graph0" class="graph" transform="scale(1 1) rotate(0) translate(4 616)">
<title>include/JSystem/JStudio/JStudio_JStage/control.h</title>
<polygon fill="white" stroke="transparent" points="-4,4 -4,-616 1790,-616 1790,4 -4,4"/>
<!-- Node1 -->
<g id="node1" class="node">
<title>Node1</title>
<g id="a_node1"><a xlink:title=" ">
<polygon fill="#bfbfbf" stroke="black" points="366,-581.5 366,-611.5 494,-611.5 494,-581.5 366,-581.5"/>
<text text-anchor="start" x="374" y="-599.5" font-family="Helvetica,sans-Serif" font-size="10.00">include/JSystem/JStudio</text>
<text text-anchor="middle" x="430" y="-588.5" font-family="Helvetica,sans-Serif" font-size="10.00">/JStudio_JStage/control.h</text>
</a>
</g>
</g>
<!-- Node2 -->
<g id="node2" class="node">
<title>Node2</title>
<g id="a_node2"><a xlink:href="JSGActor_8h.html" target="_top" xlink:title=" ">
<polygon fill="white" stroke="black" points="0,-386 0,-405 142,-405 142,-386 0,-386"/>
<text text-anchor="middle" x="71" y="-393" font-family="Helvetica,sans-Serif" font-size="10.00">JSystem/JStage/JSGActor.h</text>
</a>
</g>
</g>
<!-- Node1&#45;&gt;Node2 -->
<g id="edge1" class="edge">
<title>Node1&#45;&gt;Node2</title>
<path fill="none" stroke="midnightblue" d="M365.82,-589.26C297.88,-581.62 196.12,-566.95 164,-545 116.59,-512.61 88.54,-447.26 77.07,-415.15"/>
<polygon fill="midnightblue" stroke="midnightblue" points="80.24,-413.63 73.7,-405.3 73.62,-415.89 80.24,-413.63"/>
</g>
<!-- Node10 -->
<g id="node10" class="node">
<title>Node10</title>
<g id="a_node10"><a xlink:href="JSGAmbientLight_8h.html" target="_top" xlink:title=" ">
<polygon fill="white" stroke="black" points="356.5,-380.5 356.5,-410.5 503.5,-410.5 503.5,-380.5 356.5,-380.5"/>
<text text-anchor="start" x="364.5" y="-398.5" font-family="Helvetica,sans-Serif" font-size="10.00">JSystem/JStage/JSGAmbient</text>
<text text-anchor="middle" x="430" y="-387.5" font-family="Helvetica,sans-Serif" font-size="10.00">Light.h</text>
</a>
</g>
</g>
<!-- Node1&#45;&gt;Node10 -->
<g id="edge17" class="edge">
<title>Node1&#45;&gt;Node10</title>
<path fill="none" stroke="midnightblue" d="M430,-581.19C430,-547.48 430,-462.8 430,-420.84"/>
<polygon fill="midnightblue" stroke="midnightblue" points="433.5,-420.68 430,-410.68 426.5,-420.68 433.5,-420.68"/>
</g>
<!-- Node16 -->
<g id="node16" class="node">
<title>Node16</title>
<g id="a_node16"><a xlink:href="JSGCamera_8h.html" target="_top" xlink:title=" ">
<polygon fill="white" stroke="black" points="173,-520 173,-539 325,-539 325,-520 173,-520"/>
<text text-anchor="middle" x="249" y="-527" font-family="Helvetica,sans-Serif" font-size="10.00">JSystem/JStage/JSGCamera.h</text>
</a>
</g>
</g>
<!-- Node1&#45;&gt;Node16 -->
<g id="edge32" class="edge">
<title>Node1&#45;&gt;Node16</title>
<path fill="none" stroke="midnightblue" d="M390.73,-581.4C358.41,-569.79 313.09,-553.51 282.47,-542.52"/>
<polygon fill="midnightblue" stroke="midnightblue" points="283.28,-539.09 272.69,-539.01 280.92,-545.68 283.28,-539.09"/>
</g>
<!-- Node17 -->
<g id="node17" class="node">
<title>Node17</title>
<g id="a_node17"><a xlink:href="JSGFog_8h.html" target="_top" xlink:title=" ">
<polygon fill="white" stroke="black" points="521.5,-386 521.5,-405 656.5,-405 656.5,-386 521.5,-386"/>
<text text-anchor="middle" x="589" y="-393" font-family="Helvetica,sans-Serif" font-size="10.00">JSystem/JStage/JSGFog.h</text>
</a>
</g>
</g>
<!-- Node1&#45;&gt;Node17 -->
<g id="edge34" class="edge">
<title>Node1&#45;&gt;Node17</title>
<path fill="none" stroke="midnightblue" d="M441.43,-581.19C470.04,-545.38 544.63,-452.04 575.41,-413.51"/>
<polygon fill="midnightblue" stroke="midnightblue" points="578.41,-415.36 581.92,-405.36 572.94,-410.99 578.41,-415.36"/>
</g>
<!-- Node18 -->
<g id="node18" class="node">
<title>Node18</title>
<g id="a_node18"><a xlink:href="JSGLight_8h.html" target="_top" xlink:title=" ">
<polygon fill="white" stroke="black" points="198,-386 198,-405 338,-405 338,-386 198,-386"/>
<text text-anchor="middle" x="268" y="-393" font-family="Helvetica,sans-Serif" font-size="10.00">JSystem/JStage/JSGLight.h</text>
</a>
</g>
</g>
<!-- Node1&#45;&gt;Node18 -->
<g id="edge37" class="edge">
<title>Node1&#45;&gt;Node18</title>
<path fill="none" stroke="midnightblue" d="M418.35,-581.19C389.2,-545.38 313.21,-452.04 281.85,-413.51"/>
<polygon fill="midnightblue" stroke="midnightblue" points="284.24,-410.91 275.21,-405.36 278.81,-415.32 284.24,-410.91"/>
</g>
<!-- Node19 -->
<g id="node19" class="node">
<title>Node19</title>
<g id="a_node19"><a xlink:href="JSGSystem_8h.html" target="_top" xlink:title=" ">
<polygon fill="white" stroke="black" points="675,-386 675,-405 827,-405 827,-386 675,-386"/>
<text text-anchor="middle" x="751" y="-393" font-family="Helvetica,sans-Serif" font-size="10.00">JSystem/JStage/JSGSystem.h</text>
</a>
</g>
</g>
<!-- Node1&#45;&gt;Node19 -->
<g id="edge40" class="edge">
<title>Node1&#45;&gt;Node19</title>
<path fill="none" stroke="midnightblue" d="M452.83,-581.35C511.97,-544.68 669.65,-446.93 728.46,-410.47"/>
<polygon fill="midnightblue" stroke="midnightblue" points="730.37,-413.41 737.02,-405.16 726.68,-407.46 730.37,-413.41"/>
</g>
<!-- Node20 -->
<g id="node20" class="node">
<title>Node20</title>
<g id="a_node20"><a xlink:href="jstudio-object_8h.html" target="_top" xlink:title=" ">
<polygon fill="white" stroke="black" points="1223.5,-514.5 1223.5,-544.5 1350.5,-544.5 1350.5,-514.5 1223.5,-514.5"/>
<text text-anchor="start" x="1231.5" y="-532.5" font-family="Helvetica,sans-Serif" font-size="10.00">JSystem/JStudio/JStudio</text>
<text text-anchor="middle" x="1287" y="-521.5" font-family="Helvetica,sans-Serif" font-size="10.00">/jstudio&#45;object.h</text>
</a>
</g>
</g>
<!-- Node1&#45;&gt;Node20 -->
<g id="edge43" class="edge">
<title>Node1&#45;&gt;Node20</title>
<path fill="none" stroke="midnightblue" d="M494.06,-590.64C649.83,-578.83 1047.74,-548.65 1213.15,-536.1"/>
<polygon fill="midnightblue" stroke="midnightblue" points="1213.52,-539.58 1223.23,-535.34 1212.99,-532.6 1213.52,-539.58"/>
</g>
<!-- Node3 -->
<g id="node3" class="node">
<title>Node3</title>
<g id="a_node3"><a xlink:href="types_8h.html" target="_top" xlink:title=" ">
<polygon fill="white" stroke="black" points="701.5,-0.5 701.5,-19.5 782.5,-19.5 782.5,-0.5 701.5,-0.5"/>
<text text-anchor="middle" x="742" y="-7.5" font-family="Helvetica,sans-Serif" font-size="10.00">dolphin/types.h</text>
</a>
</g>
</g>
<!-- Node2&#45;&gt;Node3 -->
<g id="edge2" class="edge">
<title>Node2&#45;&gt;Node3</title>
<path fill="none" stroke="midnightblue" d="M75.36,-385.79C85.34,-365.01 109,-310.67 109,-262.5 109,-262.5 109,-262.5 109,-132 109,-71.84 164.31,-76.13 221,-56 306.77,-25.55 577.75,-15.19 691.23,-12.13"/>
<polygon fill="midnightblue" stroke="midnightblue" points="691.49,-15.63 701.39,-11.87 691.3,-8.63 691.49,-15.63"/>
</g>
<!-- Node4 -->
<g id="node4" class="node">
<title>Node4</title>
<g id="a_node4"><a xlink:href="JSGObject_8h.html" target="_top" xlink:title=" ">
<polygon fill="white" stroke="black" points="202.5,-319 202.5,-338 349.5,-338 349.5,-319 202.5,-319"/>
<text text-anchor="middle" x="276" y="-326" font-family="Helvetica,sans-Serif" font-size="10.00">JSystem/JStage/JSGObject.h</text>
</a>
</g>
</g>
<!-- Node2&#45;&gt;Node4 -->
<g id="edge3" class="edge">
<title>Node2&#45;&gt;Node4</title>
<path fill="none" stroke="midnightblue" d="M98.22,-385.87C134.47,-374.38 198.7,-354.01 239.23,-341.16"/>
<polygon fill="midnightblue" stroke="midnightblue" points="240.52,-344.42 248.99,-338.06 238.4,-337.75 240.52,-344.42"/>
</g>
<!-- Node4&#45;&gt;Node3 -->
<g id="edge4" class="edge">
<title>Node4&#45;&gt;Node3</title>
<path fill="none" stroke="midnightblue" d="M265.8,-318.9C255.45,-309.62 239.76,-293.89 231,-277 213.88,-243.98 212,-232.69 212,-195.5 212,-195.5 212,-195.5 212,-132 212,-91.32 228.04,-76.8 263,-56 334.28,-13.59 583.23,-9.9 691.3,-10.38"/>
<polygon fill="midnightblue" stroke="midnightblue" points="691.28,-13.88 701.3,-10.43 691.32,-6.88 691.28,-13.88"/>
</g>
<!-- Node5 -->
<g id="node5" class="node">
<title>Node5</title>
<g id="a_node5"><a xlink:href="mtxvec_8h.html" target="_top" xlink:title=" ">
<polygon fill="white" stroke="black" points="240,-252 240,-271 348,-271 348,-252 240,-252"/>
<text text-anchor="middle" x="294" y="-259" font-family="Helvetica,sans-Serif" font-size="10.00">dolphin/mtx/mtxvec.h</text>
</a>
</g>
</g>
<!-- Node4&#45;&gt;Node5 -->
<g id="edge5" class="edge">
<title>Node4&#45;&gt;Node5</title>
<path fill="none" stroke="midnightblue" d="M278.43,-318.73C281.1,-309.09 285.47,-293.3 288.9,-280.91"/>
<polygon fill="midnightblue" stroke="midnightblue" points="292.32,-281.7 291.61,-271.13 285.57,-279.83 292.32,-281.7"/>
</g>
<!-- Node5&#45;&gt;Node3 -->
<g id="edge16" class="edge">
<title>Node5&#45;&gt;Node3</title>
<path fill="none" stroke="midnightblue" d="M289.77,-251.69C275.4,-220.35 232.19,-113.15 284,-56 310.93,-26.29 577.22,-15.51 690.94,-12.23"/>
<polygon fill="midnightblue" stroke="midnightblue" points="691.24,-15.73 701.14,-11.95 691.04,-8.73 691.24,-15.73"/>
</g>
<!-- Node6 -->
<g id="node6" class="node">
<title>Node6</title>
<g id="a_node6"><a xlink:href="mtx_8h.html" target="_top" xlink:title=" ">
<polygon fill="white" stroke="black" points="360,-185 360,-204 452,-204 452,-185 360,-185"/>
<text text-anchor="middle" x="406" y="-192" font-family="Helvetica,sans-Serif" font-size="10.00">dolphin/mtx/mtx.h</text>
</a>
</g>
</g>
<!-- Node5&#45;&gt;Node6 -->
<g id="edge6" class="edge">
<title>Node5&#45;&gt;Node6</title>
<path fill="none" stroke="midnightblue" d="M309.1,-251.73C327.91,-240.82 360.25,-222.05 382.36,-209.22"/>
<polygon fill="midnightblue" stroke="midnightblue" points="384.24,-212.17 391.13,-204.13 380.73,-206.12 384.24,-212.17"/>
</g>
<!-- Node9 -->
<g id="node9" class="node">
<title>Node9</title>
<g id="a_node9"><a xlink:href="vec_8h.html" target="_top" xlink:title=" ">
<polygon fill="white" stroke="black" points="293,-62 293,-81 385,-81 385,-62 293,-62"/>
<text text-anchor="middle" x="339" y="-69" font-family="Helvetica,sans-Serif" font-size="10.00">dolphin/mtx/vec.h</text>
</a>
</g>
</g>
<!-- Node5&#45;&gt;Node9 -->
<g id="edge15" class="edge">
<title>Node5&#45;&gt;Node9</title>
<path fill="none" stroke="midnightblue" d="M296.05,-251.93C302.89,-223.37 325.02,-130.93 334.56,-91.07"/>
<polygon fill="midnightblue" stroke="midnightblue" points="338.01,-91.66 336.94,-81.12 331.21,-90.03 338.01,-91.66"/>
</g>
<!-- Node6&#45;&gt;Node3 -->
<g id="edge14" class="edge">
<title>Node6&#45;&gt;Node3</title>
<path fill="none" stroke="midnightblue" d="M415.84,-184.67C426.92,-174.67 445.42,-157.84 461,-143 500.82,-105.06 500.85,-82.58 549,-56 593.43,-31.48 650.73,-20.27 691.32,-15.18"/>
<polygon fill="midnightblue" stroke="midnightblue" points="691.74,-18.66 701.27,-14.02 690.93,-11.7 691.74,-18.66"/>
</g>
<!-- Node7 -->
<g id="node7" class="node">
<title>Node7</title>
<g id="a_node7"><a xlink:href="mtx44_8h.html" target="_top" xlink:title=" ">
<polygon fill="white" stroke="black" points="547.5,-123.5 547.5,-142.5 650.5,-142.5 650.5,-123.5 547.5,-123.5"/>
<text text-anchor="middle" x="599" y="-130.5" font-family="Helvetica,sans-Serif" font-size="10.00">dolphin/mtx/mtx44.h</text>
</a>
</g>
</g>
<!-- Node6&#45;&gt;Node7 -->
<g id="edge7" class="edge">
<title>Node6&#45;&gt;Node7</title>
<path fill="none" stroke="midnightblue" d="M433.65,-184.98C467.19,-174.64 523.87,-157.16 561.37,-145.6"/>
<polygon fill="midnightblue" stroke="midnightblue" points="562.87,-148.8 571.4,-142.51 560.81,-142.11 562.87,-148.8"/>
</g>
<!-- Node8 -->
<g id="node8" class="node">
<title>Node8</title>
<g id="a_node8"><a xlink:href="quat_8h.html" target="_top" xlink:title=" ">
<polygon fill="white" stroke="black" points="357.5,-123.5 357.5,-142.5 452.5,-142.5 452.5,-123.5 357.5,-123.5"/>
<text text-anchor="middle" x="405" y="-130.5" font-family="Helvetica,sans-Serif" font-size="10.00">dolphin/mtx/quat.h</text>
</a>
</g>
</g>
<!-- Node6&#45;&gt;Node8 -->
<g id="edge9" class="edge">
<title>Node6&#45;&gt;Node8</title>
<path fill="none" stroke="midnightblue" d="M405.86,-184.98C405.72,-176.58 405.5,-163.48 405.31,-152.66"/>
<polygon fill="midnightblue" stroke="midnightblue" points="408.81,-152.45 405.14,-142.51 401.81,-152.57 408.81,-152.45"/>
</g>
<!-- Node6&#45;&gt;Node9 -->
<g id="edge13" class="edge">
<title>Node6&#45;&gt;Node9</title>
<path fill="none" stroke="midnightblue" d="M391.12,-184.98C377.45,-176.29 357.88,-161.49 348,-143 339.47,-127.04 337.76,-106.24 337.86,-91.37"/>
<polygon fill="midnightblue" stroke="midnightblue" points="341.36,-91.45 338.2,-81.34 334.36,-91.22 341.36,-91.45"/>
</g>
<!-- Node7&#45;&gt;Node3 -->
<g id="edge8" class="edge">
<title>Node7&#45;&gt;Node3</title>
<path fill="none" stroke="midnightblue" d="M595.36,-123.47C589.51,-108.27 580.07,-76.18 595,-56 616.94,-26.34 658.03,-15.59 691.2,-11.98"/>
<polygon fill="midnightblue" stroke="midnightblue" points="691.57,-15.46 701.21,-11.07 690.94,-8.49 691.57,-15.46"/>
</g>
<!-- Node8&#45;&gt;Node3 -->
<g id="edge12" class="edge">
<title>Node8&#45;&gt;Node3</title>
<path fill="none" stroke="midnightblue" d="M409.38,-123.19C417.97,-106.93 438.7,-72.37 467,-56 504.24,-34.46 622.49,-21.13 691.2,-15"/>
<polygon fill="midnightblue" stroke="midnightblue" points="691.71,-18.47 701.37,-14.11 691.1,-11.49 691.71,-18.47"/>
</g>
<!-- Node8&#45;&gt;Node9 -->
<g id="edge10" class="edge">
<title>Node8&#45;&gt;Node9</title>
<path fill="none" stroke="midnightblue" d="M395.54,-123.48C385.25,-114.2 368.58,-99.17 356.01,-87.83"/>
<polygon fill="midnightblue" stroke="midnightblue" points="358.21,-85.11 348.44,-81.01 353.52,-90.3 358.21,-85.11"/>
</g>
<!-- Node9&#45;&gt;Node3 -->
<g id="edge11" class="edge">
<title>Node9&#45;&gt;Node3</title>
<path fill="none" stroke="midnightblue" d="M378.34,-61.98C388.62,-59.89 399.71,-57.75 410,-56 509.34,-39.14 626.26,-24.49 691.48,-16.78"/>
<polygon fill="midnightblue" stroke="midnightblue" points="691.97,-20.25 701.49,-15.61 691.15,-13.3 691.97,-20.25"/>
</g>
<!-- Node10&#45;&gt;Node4 -->
<g id="edge18" class="edge">
<title>Node10&#45;&gt;Node4</title>
<path fill="none" stroke="midnightblue" d="M396.58,-380.4C369.44,-368.94 331.53,-352.94 305.5,-341.95"/>
<polygon fill="midnightblue" stroke="midnightblue" points="306.73,-338.67 296.16,-338.01 304.01,-345.12 306.73,-338.67"/>
</g>
<!-- Node11 -->
<g id="node11" class="node">
<title>Node11</title>
<g id="a_node11"><a xlink:href="GX_8h.html" target="_top" xlink:title=" ">
<polygon fill="white" stroke="black" points="616.5,-252 616.5,-271 701.5,-271 701.5,-252 616.5,-252"/>
<text text-anchor="middle" x="659" y="-259" font-family="Helvetica,sans-Serif" font-size="10.00">dolphin/gx/GX.h</text>
</a>
</g>
</g>
<!-- Node10&#45;&gt;Node11 -->
<g id="edge19" class="edge">
<title>Node10&#45;&gt;Node11</title>
<path fill="none" stroke="midnightblue" d="M454.51,-380.37C498.79,-354.85 591.61,-301.35 635.3,-276.16"/>
<polygon fill="midnightblue" stroke="midnightblue" points="637.17,-279.12 644.09,-271.1 633.67,-273.06 637.17,-279.12"/>
</g>
<!-- Node11&#45;&gt;Node3 -->
<g id="edge30" class="edge">
<title>Node11&#45;&gt;Node3</title>
<path fill="none" stroke="midnightblue" d="M662.53,-251.95C672.79,-226.9 703.13,-151.43 723,-87 729,-67.55 734.48,-44.86 737.99,-29.37"/>
<polygon fill="midnightblue" stroke="midnightblue" points="741.43,-30.04 740.19,-19.52 734.6,-28.52 741.43,-30.04"/>
</g>
<!-- Node11&#45;&gt;Node6 -->
<g id="edge28" class="edge">
<title>Node11&#45;&gt;Node6</title>
<path fill="none" stroke="midnightblue" d="M625.66,-251.94C580.35,-240.29 499.24,-219.45 449.27,-206.62"/>
<polygon fill="midnightblue" stroke="midnightblue" points="449.97,-203.18 439.41,-204.08 448.22,-209.96 449.97,-203.18"/>
</g>
<!-- Node11&#45;&gt;Node7 -->
<g id="edge29" class="edge">
<title>Node11&#45;&gt;Node7</title>
<path fill="none" stroke="midnightblue" d="M654.88,-251.81C645.16,-231.31 620.65,-179.65 607.56,-152.04"/>
<polygon fill="midnightblue" stroke="midnightblue" points="610.6,-150.29 603.15,-142.76 604.28,-153.29 610.6,-150.29"/>
</g>
<!-- Node12 -->
<g id="node12" class="node">
<title>Node12</title>
<g id="a_node12"><a xlink:href="GXDisplayList_8h.html" target="_top" xlink:title=" ">
<polygon fill="white" stroke="black" points="475.5,-185 475.5,-204 608.5,-204 608.5,-185 475.5,-185"/>
<text text-anchor="middle" x="542" y="-192" font-family="Helvetica,sans-Serif" font-size="10.00">dolphin/gx/GXDisplayList.h</text>
</a>
</g>
</g>
<!-- Node11&#45;&gt;Node12 -->
<g id="edge20" class="edge">
<title>Node11&#45;&gt;Node12</title>
<path fill="none" stroke="midnightblue" d="M643.22,-251.73C623.49,-240.77 589.49,-221.88 566.39,-209.05"/>
<polygon fill="midnightblue" stroke="midnightblue" points="567.97,-205.92 557.53,-204.13 564.57,-212.04 567.97,-205.92"/>
</g>
<!-- Node13 -->
<g id="node13" class="node">
<title>Node13</title>
<g id="a_node13"><a xlink:href="GXStruct_8h.html" target="_top" xlink:title=" ">
<polygon fill="white" stroke="black" points="745.5,-123.5 745.5,-142.5 856.5,-142.5 856.5,-123.5 745.5,-123.5"/>
<text text-anchor="middle" x="801" y="-130.5" font-family="Helvetica,sans-Serif" font-size="10.00">dolphin/gx/GXStruct.h</text>
</a>
</g>
</g>
<!-- Node11&#45;&gt;Node13 -->
<g id="edge22" class="edge">
<title>Node11&#45;&gt;Node13</title>
<path fill="none" stroke="midnightblue" d="M673.19,-251.84C688.21,-242.38 712.27,-226.39 731,-210 752.41,-191.26 774.16,-166.56 787.61,-150.49"/>
<polygon fill="midnightblue" stroke="midnightblue" points="790.51,-152.48 794.18,-142.54 785.11,-148.02 790.51,-152.48"/>
</g>
<!-- Node14 -->
<g id="node14" class="node">
<title>Node14</title>
<g id="a_node14"><a xlink:href="global_8h.html" target="_top" xlink:title=" ">
<polygon fill="white" stroke="black" points="951,-62 951,-81 1001,-81 1001,-62 951,-62"/>
<text text-anchor="middle" x="976" y="-69" font-family="Helvetica,sans-Serif" font-size="10.00">global.h</text>
</a>
</g>
</g>
<!-- Node11&#45;&gt;Node14 -->
<g id="edge31" class="edge">
<title>Node11&#45;&gt;Node14</title>
<path fill="none" stroke="midnightblue" d="M677.53,-251.92C698.01,-242.28 731.83,-225.89 760,-210 833.53,-168.52 916.83,-112.91 954.94,-86.97"/>
<polygon fill="midnightblue" stroke="midnightblue" points="957.34,-89.57 963.63,-81.04 953.4,-83.79 957.34,-89.57"/>
</g>
<!-- Node15 -->
<g id="node15" class="node">
<title>Node15</title>
<g id="a_node15"><a xlink:href="GXEnum_8h.html" target="_top" xlink:title=" ">
<polygon fill="white" stroke="black" points="604,-62 604,-81 714,-81 714,-62 604,-62"/>
<text text-anchor="middle" x="659" y="-69" font-family="Helvetica,sans-Serif" font-size="10.00">dolphin/gx/GXEnum.h</text>
</a>
</g>
</g>
<!-- Node11&#45;&gt;Node15 -->
<g id="edge26" class="edge">
<title>Node11&#45;&gt;Node15</title>
<path fill="none" stroke="midnightblue" d="M659,-251.93C659,-223.43 659,-131.32 659,-91.33"/>
<polygon fill="midnightblue" stroke="midnightblue" points="662.5,-91.12 659,-81.12 655.5,-91.12 662.5,-91.12"/>
</g>
<!-- Node12&#45;&gt;Node3 -->
<g id="edge21" class="edge">
<title>Node12&#45;&gt;Node3</title>
<path fill="none" stroke="midnightblue" d="M539.56,-184.58C536.26,-170.97 531.5,-144.34 538,-123 548.45,-88.69 553.96,-77.06 583,-56 614.78,-32.95 658.01,-21.68 691.38,-16.19"/>
<polygon fill="midnightblue" stroke="midnightblue" points="692.04,-19.63 701.39,-14.66 690.98,-12.71 692.04,-19.63"/>
</g>
<!-- Node13&#45;&gt;Node3 -->
<g id="edge23" class="edge">
<title>Node13&#45;&gt;Node3</title>
<path fill="none" stroke="midnightblue" d="M796.76,-123.3C787.15,-103.59 763.56,-55.21 750.7,-28.84"/>
<polygon fill="midnightblue" stroke="midnightblue" points="753.73,-27.08 746.2,-19.62 747.44,-30.15 753.73,-27.08"/>
</g>
<!-- Node13&#45;&gt;Node14 -->
<g id="edge24" class="edge">
<title>Node13&#45;&gt;Node14</title>
<path fill="none" stroke="midnightblue" d="M826.07,-123.48C856.35,-113.18 907.44,-95.81 941.44,-84.25"/>
<polygon fill="midnightblue" stroke="midnightblue" points="942.63,-87.54 950.97,-81.01 940.38,-80.91 942.63,-87.54"/>
</g>
<!-- Node14&#45;&gt;Node3 -->
<g id="edge25" class="edge">
<title>Node14&#45;&gt;Node3</title>
<path fill="none" stroke="midnightblue" d="M954.3,-61.87C948.71,-59.8 942.67,-57.7 937,-56 888.63,-41.49 832.33,-28.95 792.69,-20.82"/>
<polygon fill="midnightblue" stroke="midnightblue" points="793.23,-17.36 782.73,-18.8 791.84,-24.22 793.23,-17.36"/>
</g>
<!-- Node15&#45;&gt;Node3 -->
<g id="edge27" class="edge">
<title>Node15&#45;&gt;Node3</title>
<path fill="none" stroke="midnightblue" d="M670.89,-61.98C684.2,-52.43 706,-36.81 721.96,-25.37"/>
<polygon fill="midnightblue" stroke="midnightblue" points="724.04,-28.18 730.13,-19.51 719.96,-22.49 724.04,-28.18"/>
</g>
<!-- Node16&#45;&gt;Node4 -->
<g id="edge33" class="edge">
<title>Node16&#45;&gt;Node4</title>
<path fill="none" stroke="midnightblue" d="M240.09,-519.74C217.23,-496.19 160.28,-429.88 189,-380 199.29,-362.12 218.61,-349.99 236.43,-342.11"/>
<polygon fill="midnightblue" stroke="midnightblue" points="238.18,-345.18 246.11,-338.16 235.53,-338.7 238.18,-345.18"/>
</g>
<!-- Node17&#45;&gt;Node4 -->
<g id="edge35" class="edge">
<title>Node17&#45;&gt;Node4</title>
<path fill="none" stroke="midnightblue" d="M547.76,-385.94C490.99,-374.15 388.83,-352.93 327.23,-340.14"/>
<polygon fill="midnightblue" stroke="midnightblue" points="327.84,-336.69 317.33,-338.08 326.41,-343.54 327.84,-336.69"/>
</g>
<!-- Node17&#45;&gt;Node11 -->
<g id="edge36" class="edge">
<title>Node17&#45;&gt;Node11</title>
<path fill="none" stroke="midnightblue" d="M593.59,-385.84C604.97,-364.39 634.61,-308.49 649.78,-279.9"/>
<polygon fill="midnightblue" stroke="midnightblue" points="652.89,-281.5 654.48,-271.02 646.7,-278.22 652.89,-281.5"/>
</g>
<!-- Node18&#45;&gt;Node4 -->
<g id="edge38" class="edge">
<title>Node18&#45;&gt;Node4</title>
<path fill="none" stroke="midnightblue" d="M269.08,-385.73C270.25,-376.18 272.17,-360.62 273.69,-348.28"/>
<polygon fill="midnightblue" stroke="midnightblue" points="277.19,-348.48 274.94,-338.13 270.24,-347.62 277.19,-348.48"/>
</g>
<!-- Node18&#45;&gt;Node11 -->
<g id="edge39" class="edge">
<title>Node18&#45;&gt;Node11</title>
<path fill="none" stroke="midnightblue" d="M293.35,-385.94C361.05,-363.09 546.18,-300.59 623.9,-274.35"/>
<polygon fill="midnightblue" stroke="midnightblue" points="625.35,-277.55 633.7,-271.04 623.11,-270.92 625.35,-277.55"/>
</g>
<!-- Node19&#45;&gt;Node3 -->
<g id="edge41" class="edge">
<title>Node19&#45;&gt;Node3</title>
<path fill="none" stroke="midnightblue" d="M782.55,-385.99C832.2,-370.47 923,-332.51 923,-262.5 923,-262.5 923,-262.5 923,-132 923,-68.84 845.88,-36.58 792.32,-21.79"/>
<polygon fill="midnightblue" stroke="midnightblue" points="793.18,-18.4 782.62,-19.23 791.4,-25.17 793.18,-18.4"/>
</g>
<!-- Node19&#45;&gt;Node4 -->
<g id="edge42" class="edge">
<title>Node19&#45;&gt;Node4</title>
<path fill="none" stroke="midnightblue" d="M702.39,-385.97C690.19,-383.93 677.13,-381.81 665,-380 559.44,-364.26 437.35,-348.86 358.52,-339.29"/>
<polygon fill="midnightblue" stroke="midnightblue" points="358.52,-335.77 348.17,-338.04 357.67,-342.71 358.52,-335.77"/>
</g>
<!-- Node20&#45;&gt;Node11 -->
<g id="edge79" class="edge">
<title>Node20&#45;&gt;Node11</title>
<path fill="none" stroke="midnightblue" d="M1253.68,-514.39C1143.63,-467.77 792.86,-319.2 688.54,-275.01"/>
<polygon fill="midnightblue" stroke="midnightblue" points="689.8,-271.75 679.23,-271.07 687.07,-278.19 689.8,-271.75"/>
</g>
<!-- Node21 -->
<g id="node21" class="node">
<title>Node21</title>
<g id="a_node21"><a xlink:href="fvb_8h.html" target="_top" xlink:title=" ">
<polygon fill="white" stroke="black" points="1163.5,-380.5 1163.5,-410.5 1290.5,-410.5 1290.5,-380.5 1163.5,-380.5"/>
<text text-anchor="start" x="1171.5" y="-398.5" font-family="Helvetica,sans-Serif" font-size="10.00">JSystem/JStudio/JStudio</text>
<text text-anchor="middle" x="1227" y="-387.5" font-family="Helvetica,sans-Serif" font-size="10.00">/fvb.h</text>
</a>
</g>
</g>
<!-- Node20&#45;&gt;Node21 -->
<g id="edge44" class="edge">
<title>Node20&#45;&gt;Node21</title>
<path fill="none" stroke="midnightblue" d="M1280.58,-514.37C1270.29,-491.75 1250.02,-447.14 1237.57,-419.76"/>
<polygon fill="midnightblue" stroke="midnightblue" points="1240.7,-418.18 1233.37,-410.52 1234.33,-421.08 1240.7,-418.18"/>
</g>
<!-- Node30 -->
<g id="node30" class="node">
<title>Node30</title>
<g id="a_node30"><a xlink:href="stb_8h.html" target="_top" xlink:title=" ">
<polygon fill="white" stroke="black" points="1287.5,-313.5 1287.5,-343.5 1414.5,-343.5 1414.5,-313.5 1287.5,-313.5"/>
<text text-anchor="start" x="1295.5" y="-331.5" font-family="Helvetica,sans-Serif" font-size="10.00">JSystem/JStudio/JStudio</text>
<text text-anchor="middle" x="1351" y="-320.5" font-family="Helvetica,sans-Serif" font-size="10.00">/stb.h</text>
</a>
</g>
</g>
<!-- Node20&#45;&gt;Node30 -->
<g id="edge60" class="edge">
<title>Node20&#45;&gt;Node30</title>
<path fill="none" stroke="midnightblue" d="M1291.6,-514.19C1302.49,-480.34 1329.91,-395.08 1343.34,-353.31"/>
<polygon fill="midnightblue" stroke="midnightblue" points="1346.71,-354.27 1346.44,-343.68 1340.05,-352.13 1346.71,-354.27"/>
</g>
<!-- Node33 -->
<g id="node33" class="node">
<title>Node33</title>
<g id="a_node33"><a xlink:href="ctb_8h.html" target="_top" xlink:title=" ">
<polygon fill="white" stroke="black" points="1592.5,-313.5 1592.5,-343.5 1719.5,-343.5 1719.5,-313.5 1592.5,-313.5"/>
<text text-anchor="start" x="1600.5" y="-331.5" font-family="Helvetica,sans-Serif" font-size="10.00">JSystem/JStudio/JStudio</text>
<text text-anchor="middle" x="1656" y="-320.5" font-family="Helvetica,sans-Serif" font-size="10.00">/ctb.h</text>
</a>
</g>
</g>
<!-- Node20&#45;&gt;Node33 -->
<g id="edge68" class="edge">
<title>Node20&#45;&gt;Node33</title>
<path fill="none" stroke="midnightblue" d="M1350.5,-520.9C1422.01,-509.18 1537.54,-480.28 1609,-411 1625.86,-394.65 1638.61,-370.96 1646.54,-353.33"/>
<polygon fill="midnightblue" stroke="midnightblue" points="1649.93,-354.32 1650.66,-343.75 1643.5,-351.56 1649.93,-354.32"/>
</g>
<!-- Node34 -->
<g id="node34" class="node">
<title>Node34</title>
<g id="a_node34"><a xlink:href="jstudio-control_8h.html" target="_top" xlink:title=" ">
<polygon fill="white" stroke="black" points="1347.5,-447.5 1347.5,-477.5 1474.5,-477.5 1474.5,-447.5 1347.5,-447.5"/>
<text text-anchor="start" x="1355.5" y="-465.5" font-family="Helvetica,sans-Serif" font-size="10.00">JSystem/JStudio/JStudio</text>
<text text-anchor="middle" x="1411" y="-454.5" font-family="Helvetica,sans-Serif" font-size="10.00">/jstudio&#45;control.h</text>
</a>
</g>
</g>
<!-- Node20&#45;&gt;Node34 -->
<g id="edge73" class="edge">
<title>Node20&#45;&gt;Node34</title>
<path fill="none" stroke="midnightblue" d="M1313.91,-514.4C1331.86,-504.98 1355.67,-492.5 1375.22,-482.26"/>
<polygon fill="midnightblue" stroke="midnightblue" points="1376.91,-485.32 1384.15,-477.58 1373.66,-479.12 1376.91,-485.32"/>
</g>
<!-- Node21&#45;&gt;Node14 -->
<g id="edge59" class="edge">
<title>Node21&#45;&gt;Node14</title>
<path fill="none" stroke="midnightblue" d="M1176.34,-380.49C1099.16,-357.63 961,-310.06 961,-262.5 961,-262.5 961,-262.5 961,-193.5 961,-157.12 967.76,-115.05 972.21,-91.33"/>
<polygon fill="midnightblue" stroke="midnightblue" points="975.69,-91.74 974.16,-81.26 968.82,-90.41 975.69,-91.74"/>
</g>
<!-- Node22 -->
<g id="node22" class="node">
<title>Node22</title>
<g id="a_node22"><a xlink:href="linklist_8h.html" target="_top" xlink:title=" ">
<polygon fill="white" stroke="black" points="1257.5,-252 1257.5,-271 1390.5,-271 1390.5,-252 1257.5,-252"/>
<text text-anchor="middle" x="1324" y="-259" font-family="Helvetica,sans-Serif" font-size="10.00">JSystem/JGadget/linklist.h</text>
</a>
</g>
</g>
<!-- Node21&#45;&gt;Node22 -->
<g id="edge45" class="edge">
<title>Node21&#45;&gt;Node22</title>
<path fill="none" stroke="midnightblue" d="M1235,-380.5C1244.7,-363.89 1261.88,-335.62 1279,-313 1288.19,-300.86 1299.62,-288.06 1308.66,-278.38"/>
<polygon fill="midnightblue" stroke="midnightblue" points="1311.25,-280.74 1315.59,-271.07 1306.17,-275.92 1311.25,-280.74"/>
</g>
<!-- Node23 -->
<g id="node23" class="node">
<title>Node23</title>
<g id="a_node23"><a xlink:href="fvb-data-parse_8h.html" target="_top" xlink:title=" ">
<polygon fill="white" stroke="black" points="1102.5,-313.5 1102.5,-343.5 1229.5,-343.5 1229.5,-313.5 1102.5,-313.5"/>
<text text-anchor="start" x="1110.5" y="-331.5" font-family="Helvetica,sans-Serif" font-size="10.00">JSystem/JStudio/JStudio</text>
<text text-anchor="middle" x="1166" y="-320.5" font-family="Helvetica,sans-Serif" font-size="10.00">/fvb&#45;data&#45;parse.h</text>
</a>
</g>
</g>
<!-- Node21&#45;&gt;Node23 -->
<g id="edge47" class="edge">
<title>Node21&#45;&gt;Node23</title>
<path fill="none" stroke="midnightblue" d="M1213.76,-380.4C1205.69,-371.79 1195.21,-360.63 1186.13,-350.94"/>
<polygon fill="midnightblue" stroke="midnightblue" points="1188.61,-348.47 1179.21,-343.58 1183.5,-353.26 1188.61,-348.47"/>
</g>
<!-- Node29 -->
<g id="node29" class="node">
<title>Node29</title>
<g id="a_node29"><a xlink:href="object-id_8h.html" target="_top" xlink:title=" ">
<polygon fill="white" stroke="black" points="1592.5,-246.5 1592.5,-276.5 1719.5,-276.5 1719.5,-246.5 1592.5,-246.5"/>
<text text-anchor="start" x="1600.5" y="-264.5" font-family="Helvetica,sans-Serif" font-size="10.00">JSystem/JStudio/JStudio</text>
<text text-anchor="middle" x="1656" y="-253.5" font-family="Helvetica,sans-Serif" font-size="10.00">/object&#45;id.h</text>
</a>
</g>
</g>
<!-- Node21&#45;&gt;Node29 -->
<g id="edge57" class="edge">
<title>Node21&#45;&gt;Node29</title>
<path fill="none" stroke="midnightblue" d="M1287.29,-380.48C1326.48,-371.02 1378.55,-357.78 1424,-344 1489.03,-324.28 1562.89,-297.58 1609.45,-280.19"/>
<polygon fill="midnightblue" stroke="midnightblue" points="1610.82,-283.42 1618.96,-276.63 1608.37,-276.86 1610.82,-283.42"/>
</g>
<!-- Node22&#45;&gt;Node3 -->
<g id="edge46" class="edge">
<title>Node22&#45;&gt;Node3</title>
<path fill="none" stroke="midnightblue" d="M1324.77,-251.9C1326.37,-228.86 1327.91,-164.68 1300,-123 1268.99,-76.69 1246.7,-74.14 1194,-56 1120.92,-30.85 894.75,-17.83 792.78,-13.11"/>
<polygon fill="midnightblue" stroke="midnightblue" points="792.87,-9.61 782.72,-12.65 792.55,-16.6 792.87,-9.61"/>
</g>
<!-- Node24 -->
<g id="node24" class="node">
<title>Node24</title>
<g id="a_node24"><a xlink:href="fvb-data_8h.html" target="_top" xlink:title=" ">
<polygon fill="white" stroke="black" points="1073.5,-246.5 1073.5,-276.5 1200.5,-276.5 1200.5,-246.5 1073.5,-246.5"/>
<text text-anchor="start" x="1081.5" y="-264.5" font-family="Helvetica,sans-Serif" font-size="10.00">JSystem/JStudio/JStudio</text>
<text text-anchor="middle" x="1137" y="-253.5" font-family="Helvetica,sans-Serif" font-size="10.00">/fvb&#45;data.h</text>
</a>
</g>
</g>
<!-- Node23&#45;&gt;Node24 -->
<g id="edge48" class="edge">
<title>Node23&#45;&gt;Node24</title>
<path fill="none" stroke="midnightblue" d="M1159.71,-313.4C1156.14,-305.39 1151.57,-295.16 1147.47,-285.98"/>
<polygon fill="midnightblue" stroke="midnightblue" points="1150.55,-284.28 1143.28,-276.58 1144.16,-287.13 1150.55,-284.28"/>
</g>
<!-- Node25 -->
<g id="node25" class="node">
<title>Node25</title>
<g id="a_node25"><a xlink:href="binary_8h.html" target="_top" xlink:title=" ">
<polygon fill="white" stroke="black" points="1496.5,-185 1496.5,-204 1627.5,-204 1627.5,-185 1496.5,-185"/>
<text text-anchor="middle" x="1562" y="-192" font-family="Helvetica,sans-Serif" font-size="10.00">JSystem/JGadget/binary.h</text>
</a>
</g>
</g>
<!-- Node24&#45;&gt;Node25 -->
<g id="edge49" class="edge">
<title>Node24&#45;&gt;Node25</title>
<path fill="none" stroke="midnightblue" d="M1200.63,-250.77C1280.24,-238.59 1415.87,-217.85 1496.4,-205.53"/>
<polygon fill="midnightblue" stroke="midnightblue" points="1497.06,-208.97 1506.42,-204 1496,-202.05 1497.06,-208.97"/>
</g>
<!-- Node26 -->
<g id="node26" class="node">
<title>Node26</title>
<g id="a_node26"><a xlink:href="functionvalue_8h.html" target="_top" xlink:title=" ">
<polygon fill="white" stroke="black" points="1108.5,-179.5 1108.5,-209.5 1235.5,-209.5 1235.5,-179.5 1108.5,-179.5"/>
<text text-anchor="start" x="1116.5" y="-197.5" font-family="Helvetica,sans-Serif" font-size="10.00">JSystem/JStudio/JStudio</text>
<text text-anchor="middle" x="1172" y="-186.5" font-family="Helvetica,sans-Serif" font-size="10.00">/functionvalue.h</text>
</a>
</g>
</g>
<!-- Node24&#45;&gt;Node26 -->
<g id="edge51" class="edge">
<title>Node24&#45;&gt;Node26</title>
<path fill="none" stroke="midnightblue" d="M1144.59,-246.4C1149,-238.22 1154.65,-227.73 1159.67,-218.39"/>
<polygon fill="midnightblue" stroke="midnightblue" points="1162.76,-220.04 1164.42,-209.58 1156.6,-216.72 1162.76,-220.04"/>
</g>
<!-- Node25&#45;&gt;Node3 -->
<g id="edge50" class="edge">
<title>Node25&#45;&gt;Node3</title>
<path fill="none" stroke="midnightblue" d="M1563.99,-184.74C1568.99,-160.15 1579.19,-90.04 1542,-56 1514.3,-30.64 964,-16.04 792.55,-12.1"/>
<polygon fill="midnightblue" stroke="midnightblue" points="792.6,-8.6 782.52,-11.87 792.44,-15.6 792.6,-8.6"/>
</g>
<!-- Node26&#45;&gt;Node3 -->
<g id="edge56" class="edge">
<title>Node26&#45;&gt;Node3</title>
<path fill="none" stroke="midnightblue" d="M1228.69,-179.47C1265.08,-167.67 1302.08,-148.62 1282,-123 1221.89,-46.29 915.93,-20.76 793.12,-13.52"/>
<polygon fill="midnightblue" stroke="midnightblue" points="793.04,-10.01 782.85,-12.93 792.64,-17 793.04,-10.01"/>
</g>
<!-- Node27 -->
<g id="node27" class="node">
<title>Node27</title>
<g id="a_node27"><a xlink:href="search_8h.html" target="_top" xlink:title=" ">
<polygon fill="white" stroke="black" points="1139,-123.5 1139,-142.5 1273,-142.5 1273,-123.5 1139,-123.5"/>
<text text-anchor="middle" x="1206" y="-130.5" font-family="Helvetica,sans-Serif" font-size="10.00">JSystem/JGadget/search.h</text>
</a>
</g>
</g>
<!-- Node26&#45;&gt;Node27 -->
<g id="edge52" class="edge">
<title>Node26&#45;&gt;Node27</title>
<path fill="none" stroke="midnightblue" d="M1180.06,-179.4C1184.85,-171.02 1190.96,-160.33 1196.04,-151.42"/>
<polygon fill="midnightblue" stroke="midnightblue" points="1199.13,-153.08 1201.05,-142.66 1193.05,-149.6 1199.13,-153.08"/>
</g>
<!-- Node28 -->
<g id="node28" class="node">
<title>Node28</title>
<g id="a_node28"><a xlink:href="vector_8h.html" target="_top" xlink:title=" ">
<polygon fill="white" stroke="black" points="989,-123.5 989,-142.5 1121,-142.5 1121,-123.5 989,-123.5"/>
<text text-anchor="middle" x="1055" y="-130.5" font-family="Helvetica,sans-Serif" font-size="10.00">JSystem/JGadget/vector.h</text>
</a>
</g>
</g>
<!-- Node26&#45;&gt;Node28 -->
<g id="edge54" class="edge">
<title>Node26&#45;&gt;Node28</title>
<path fill="none" stroke="midnightblue" d="M1144.27,-179.4C1125.17,-169.68 1099.94,-156.86 1081.18,-147.31"/>
<polygon fill="midnightblue" stroke="midnightblue" points="1082.52,-144.07 1072.02,-142.66 1079.35,-150.31 1082.52,-144.07"/>
</g>
<!-- Node27&#45;&gt;Node14 -->
<g id="edge53" class="edge">
<title>Node27&#45;&gt;Node14</title>
<path fill="none" stroke="midnightblue" d="M1173.05,-123.48C1130.04,-112.35 1055.09,-92.96 1011.06,-81.57"/>
<polygon fill="midnightblue" stroke="midnightblue" points="1011.66,-78.11 1001.1,-78.99 1009.91,-84.89 1011.66,-78.11"/>
</g>
<!-- Node28&#45;&gt;Node14 -->
<g id="edge55" class="edge">
<title>Node28&#45;&gt;Node14</title>
<path fill="none" stroke="midnightblue" d="M1043.68,-123.48C1031.13,-114.02 1010.65,-98.6 995.5,-87.19"/>
<polygon fill="midnightblue" stroke="midnightblue" points="997.39,-84.23 987.3,-81.01 993.18,-89.82 997.39,-84.23"/>
</g>
<!-- Node29&#45;&gt;Node3 -->
<g id="edge58" class="edge">
<title>Node29&#45;&gt;Node3</title>
<path fill="none" stroke="midnightblue" d="M1654.91,-246.35C1651.03,-207.31 1634.16,-98.21 1565,-56 1499.23,-15.87 961.65,-11.41 792.65,-11.01"/>
<polygon fill="midnightblue" stroke="midnightblue" points="792.54,-7.51 782.53,-10.99 792.52,-14.51 792.54,-7.51"/>
</g>
<!-- Node30&#45;&gt;Node14 -->
<g id="edge67" class="edge">
<title>Node30&#45;&gt;Node14</title>
<path fill="none" stroke="midnightblue" d="M1296.75,-313.48C1278.34,-305.84 1259.73,-294.29 1249,-277 1212.08,-217.53 1327.29,-176.37 1282,-123 1247.64,-82.5 1084.49,-74.43 1011.47,-72.86"/>
<polygon fill="midnightblue" stroke="midnightblue" points="1011.44,-69.36 1001.38,-72.67 1011.31,-76.36 1011.44,-69.36"/>
</g>
<!-- Node30&#45;&gt;Node22 -->
<g id="edge61" class="edge">
<title>Node30&#45;&gt;Node22</title>
<path fill="none" stroke="midnightblue" d="M1345.14,-313.4C1341.14,-303.76 1335.8,-290.91 1331.49,-280.54"/>
<polygon fill="midnightblue" stroke="midnightblue" points="1334.68,-279.09 1327.61,-271.19 1328.22,-281.77 1334.68,-279.09"/>
</g>
<!-- Node30&#45;&gt;Node29 -->
<g id="edge62" class="edge">
<title>Node30&#45;&gt;Node29</title>
<path fill="none" stroke="midnightblue" d="M1414.57,-313.95C1463.42,-303.54 1531,-289.14 1582.23,-278.22"/>
<polygon fill="midnightblue" stroke="midnightblue" points="1583.2,-281.59 1592.25,-276.09 1581.74,-274.75 1583.2,-281.59"/>
</g>
<!-- Node31 -->
<g id="node31" class="node">
<title>Node31</title>
<g id="a_node31"><a xlink:href="stb-data-parse_8h.html" target="_top" xlink:title=" ">
<polygon fill="white" stroke="black" points="1408.5,-246.5 1408.5,-276.5 1535.5,-276.5 1535.5,-246.5 1408.5,-246.5"/>
<text text-anchor="start" x="1416.5" y="-264.5" font-family="Helvetica,sans-Serif" font-size="10.00">JSystem/JStudio/JStudio</text>
<text text-anchor="middle" x="1472" y="-253.5" font-family="Helvetica,sans-Serif" font-size="10.00">/stb&#45;data&#45;parse.h</text>
</a>
</g>
</g>
<!-- Node30&#45;&gt;Node31 -->
<g id="edge63" class="edge">
<title>Node30&#45;&gt;Node31</title>
<path fill="none" stroke="midnightblue" d="M1377.26,-313.4C1394.7,-304.03 1417.8,-291.62 1436.83,-281.39"/>
<polygon fill="midnightblue" stroke="midnightblue" points="1438.64,-284.39 1445.8,-276.58 1435.33,-278.23 1438.64,-284.39"/>
</g>
<!-- Node31&#45;&gt;Node25 -->
<g id="edge64" class="edge">
<title>Node31&#45;&gt;Node25</title>
<path fill="none" stroke="midnightblue" d="M1491.53,-246.4C1506.48,-235.6 1527.03,-220.76 1542.08,-209.89"/>
<polygon fill="midnightblue" stroke="midnightblue" points="1544.16,-212.7 1550.22,-204.01 1540.07,-207.02 1544.16,-212.7"/>
</g>
<!-- Node32 -->
<g id="node32" class="node">
<title>Node32</title>
<g id="a_node32"><a xlink:href="stb-data_8h.html" target="_top" xlink:title=" ">
<polygon fill="white" stroke="black" points="1405.5,-56.5 1405.5,-86.5 1532.5,-86.5 1532.5,-56.5 1405.5,-56.5"/>
<text text-anchor="start" x="1413.5" y="-74.5" font-family="Helvetica,sans-Serif" font-size="10.00">JSystem/JStudio/JStudio</text>
<text text-anchor="middle" x="1469" y="-63.5" font-family="Helvetica,sans-Serif" font-size="10.00">/stb&#45;data.h</text>
</a>
</g>
</g>
<!-- Node31&#45;&gt;Node32 -->
<g id="edge65" class="edge">
<title>Node31&#45;&gt;Node32</title>
<path fill="none" stroke="midnightblue" d="M1471.77,-246.37C1471.27,-214.44 1470.02,-136.44 1469.39,-96.67"/>
<polygon fill="midnightblue" stroke="midnightblue" points="1472.88,-96.48 1469.22,-86.54 1465.88,-96.59 1472.88,-96.48"/>
</g>
<!-- Node32&#45;&gt;Node3 -->
<g id="edge66" class="edge">
<title>Node32&#45;&gt;Node3</title>
<path fill="none" stroke="midnightblue" d="M1405.24,-58.03C1400.43,-57.28 1395.65,-56.59 1391,-56 1169.31,-27.8 902.6,-16.31 792.9,-12.55"/>
<polygon fill="midnightblue" stroke="midnightblue" points="792.9,-9.04 782.79,-12.2 792.66,-16.04 792.9,-9.04"/>
</g>
<!-- Node33&#45;&gt;Node3 -->
<g id="edge69" class="edge">
<title>Node33&#45;&gt;Node3</title>
<path fill="none" stroke="midnightblue" d="M1691.35,-313.38C1709.15,-304.91 1730.06,-292.7 1745,-277 1772.95,-247.62 1786,-236.05 1786,-195.5 1786,-195.5 1786,-195.5 1786,-132 1786,-41.05 1684.82,-75.54 1596,-56 1441.43,-21.99 952.03,-13.42 792.68,-11.5"/>
<polygon fill="midnightblue" stroke="midnightblue" points="792.71,-8 782.67,-11.38 792.63,-15 792.71,-8"/>
</g>
<!-- Node33&#45;&gt;Node22 -->
<g id="edge71" class="edge">
<title>Node33&#45;&gt;Node22</title>
<path fill="none" stroke="midnightblue" d="M1592.38,-315.04C1530.21,-302.87 1436.62,-284.55 1377.98,-273.07"/>
<polygon fill="midnightblue" stroke="midnightblue" points="1378.3,-269.56 1367.81,-271.08 1376.95,-276.43 1378.3,-269.56"/>
</g>
<!-- Node33&#45;&gt;Node25 -->
<g id="edge70" class="edge">
<title>Node33&#45;&gt;Node25</title>
<path fill="none" stroke="midnightblue" d="M1689.41,-313.34C1704.39,-305.09 1720.56,-293.11 1729,-277 1735.4,-264.8 1737.21,-257.06 1729,-246 1707.98,-217.68 1671.52,-204.67 1638.03,-198.91"/>
<polygon fill="midnightblue" stroke="midnightblue" points="1638.16,-195.39 1627.75,-197.35 1637.11,-202.31 1638.16,-195.39"/>
</g>
<!-- Node33&#45;&gt;Node29 -->
<g id="edge72" class="edge">
<title>Node33&#45;&gt;Node29</title>
<path fill="none" stroke="midnightblue" d="M1656,-313.4C1656,-305.64 1656,-295.81 1656,-286.86"/>
<polygon fill="midnightblue" stroke="midnightblue" points="1659.5,-286.58 1656,-276.58 1652.5,-286.58 1659.5,-286.58"/>
</g>
<!-- Node34&#45;&gt;Node11 -->
<g id="edge78" class="edge">
<title>Node34&#45;&gt;Node11</title>
<path fill="none" stroke="midnightblue" d="M1347.41,-451.09C1295.33,-442.05 1219.91,-427.79 1155,-411 1060.97,-386.67 1038.92,-375.36 947,-344 908.55,-330.88 899.87,-324.83 861,-313 809.24,-297.25 748.96,-282.65 707.82,-273.25"/>
<polygon fill="midnightblue" stroke="midnightblue" points="708.57,-269.83 698.04,-271.03 707.02,-276.66 708.57,-269.83"/>
</g>
<!-- Node34&#45;&gt;Node21 -->
<g id="edge75" class="edge">
<title>Node34&#45;&gt;Node21</title>
<path fill="none" stroke="midnightblue" d="M1371.07,-447.4C1343.35,-437.6 1306.21,-424.48 1276.58,-414.02"/>
<polygon fill="midnightblue" stroke="midnightblue" points="1277.44,-410.61 1266.85,-410.58 1275.11,-417.21 1277.44,-410.61"/>
</g>
<!-- Node34&#45;&gt;Node25 -->
<g id="edge74" class="edge">
<title>Node34&#45;&gt;Node25</title>
<path fill="none" stroke="midnightblue" d="M1424.87,-447.09C1452.35,-417.69 1513.74,-347.58 1545,-277 1553.94,-256.81 1558.26,-231.7 1560.3,-214.73"/>
<polygon fill="midnightblue" stroke="midnightblue" points="1563.81,-214.75 1561.37,-204.44 1556.85,-214.02 1563.81,-214.75"/>
</g>
<!-- Node34&#45;&gt;Node30 -->
<g id="edge76" class="edge">
<title>Node34&#45;&gt;Node30</title>
<path fill="none" stroke="midnightblue" d="M1404.58,-447.37C1394.29,-424.75 1374.02,-380.14 1361.57,-352.76"/>
<polygon fill="midnightblue" stroke="midnightblue" points="1364.7,-351.18 1357.37,-343.52 1358.33,-354.08 1364.7,-351.18"/>
</g>
<!-- Node34&#45;&gt;Node33 -->
<g id="edge77" class="edge">
<title>Node34&#45;&gt;Node33</title>
<path fill="none" stroke="midnightblue" d="M1474.88,-450.27C1507.42,-442.6 1546.63,-430.25 1578,-411 1602.96,-395.68 1625.37,-370.45 1639.7,-352.12"/>
<polygon fill="midnightblue" stroke="midnightblue" points="1642.8,-353.82 1646.06,-343.74 1637.22,-349.59 1642.8,-353.82"/>
</g>
</g>
</svg>
