<?xml version="1.0" encoding="UTF-8" standalone="no"?>
<!DOCTYPE svg PUBLIC "-//W3C//DTD SVG 1.1//EN"
 "http://www.w3.org/Graphics/SVG/1.1/DTD/svg11.dtd">
<!-- Generated by graphviz version 2.44.0 ()
 -->
<!-- Title: include/JSystem/JUtility/JUTAssert.h Pages: 1 -->
<svg width="2490pt" height="553pt"
 viewBox="0.00 0.00 2490.00 553.00" xmlns="http://www.w3.org/2000/svg" xmlns:xlink="http://www.w3.org/1999/xlink">
<g id="graph0" class="graph" transform="scale(1 1) rotate(0) translate(4 549)">
<title>include/JSystem/JUtility/JUTAssert.h</title>
<polygon fill="white" stroke="transparent" points="-4,4 -4,-549 2486,-549 2486,4 -4,4"/>
<!-- Node1 -->
<g id="node1" class="node">
<title>Node1</title>
<g id="a_node1"><a xlink:title=" ">
<polygon fill="#bfbfbf" stroke="black" points="441,-514.5 441,-544.5 563,-544.5 563,-514.5 441,-514.5"/>
<text text-anchor="start" x="449" y="-532.5" font-family="Helvetica,sans-Serif" font-size="10.00">include/JSystem/JUtility</text>
<text text-anchor="middle" x="502" y="-521.5" font-family="Helvetica,sans-Serif" font-size="10.00">/JUTAssert.h</text>
</a>
</g>
</g>
<!-- Node2 -->
<g id="node2" class="node">
<title>Node2</title>
<g id="a_node2"><a xlink:href="m__Do__main_8cpp.html" target="_top" xlink:title=" ">
<polygon fill="white" stroke="black" points="44.5,-453 44.5,-472 175.5,-472 175.5,-453 44.5,-453"/>
<text text-anchor="middle" x="110" y="-460" font-family="Helvetica,sans-Serif" font-size="10.00">src/m_Do/m_Do_main.cpp</text>
</a>
</g>
</g>
<!-- Node1&#45;&gt;Node2 -->
<g id="edge1" class="edge">
<title>Node1&#45;&gt;Node2</title>
<path fill="none" stroke="midnightblue" d="M430.86,-517.95C366.34,-508.21 268.64,-493.01 184,-478 173.69,-476.17 162.59,-474.07 152.21,-472.04"/>
<polygon fill="midnightblue" stroke="midnightblue" points="430.52,-521.44 440.93,-519.47 431.56,-514.52 430.52,-521.44"/>
</g>
<!-- Node3 -->
<g id="node3" class="node">
<title>Node3</title>
<g id="a_node3"><a xlink:href="JKRDvdFile_8cpp.html" target="_top" xlink:title=" ">
<polygon fill="white" stroke="black" points="193.5,-447.5 193.5,-477.5 302.5,-477.5 302.5,-447.5 193.5,-447.5"/>
<text text-anchor="start" x="201.5" y="-465.5" font-family="Helvetica,sans-Serif" font-size="10.00">libs/JSystem/JKernel</text>
<text text-anchor="middle" x="248" y="-454.5" font-family="Helvetica,sans-Serif" font-size="10.00">/JKRDvdFile.cpp</text>
</a>
</g>
</g>
<!-- Node1&#45;&gt;Node3 -->
<g id="edge2" class="edge">
<title>Node1&#45;&gt;Node3</title>
<path fill="none" stroke="midnightblue" d="M437.43,-511.98C395.79,-501.32 342.24,-487.62 302.7,-477.5"/>
<polygon fill="midnightblue" stroke="midnightblue" points="436.64,-515.39 447.2,-514.48 438.38,-508.61 436.64,-515.39"/>
</g>
<!-- Node4 -->
<g id="node4" class="node">
<title>Node4</title>
<g id="a_node4"><a xlink:href="JKRHeap_8cpp.html" target="_top" xlink:title=" ">
<polygon fill="white" stroke="black" points="320.5,-447.5 320.5,-477.5 429.5,-477.5 429.5,-447.5 320.5,-447.5"/>
<text text-anchor="start" x="328.5" y="-465.5" font-family="Helvetica,sans-Serif" font-size="10.00">libs/JSystem/JKernel</text>
<text text-anchor="middle" x="375" y="-454.5" font-family="Helvetica,sans-Serif" font-size="10.00">/JKRHeap.cpp</text>
</a>
</g>
</g>
<!-- Node1&#45;&gt;Node4 -->
<g id="edge3" class="edge">
<title>Node1&#45;&gt;Node4</title>
<path fill="none" stroke="midnightblue" d="M465.3,-509.71C445.27,-499.46 420.88,-486.98 402.5,-477.58"/>
<polygon fill="midnightblue" stroke="midnightblue" points="463.95,-512.96 474.44,-514.4 467.14,-506.72 463.95,-512.96"/>
</g>
<!-- Node5 -->
<g id="node5" class="node">
<title>Node5</title>
<g id="a_node5"><a xlink:href="JKRThread_8cpp.html" target="_top" xlink:title=" ">
<polygon fill="white" stroke="black" points="447.5,-447.5 447.5,-477.5 556.5,-477.5 556.5,-447.5 447.5,-447.5"/>
<text text-anchor="start" x="455.5" y="-465.5" font-family="Helvetica,sans-Serif" font-size="10.00">libs/JSystem/JKernel</text>
<text text-anchor="middle" x="502" y="-454.5" font-family="Helvetica,sans-Serif" font-size="10.00">/JKRThread.cpp</text>
</a>
</g>
</g>
<!-- Node1&#45;&gt;Node5 -->
<g id="edge4" class="edge">
<title>Node1&#45;&gt;Node5</title>
<path fill="none" stroke="midnightblue" d="M502,-504.11C502,-495.15 502,-485.32 502,-477.58"/>
<polygon fill="midnightblue" stroke="midnightblue" points="498.5,-504.4 502,-514.4 505.5,-504.4 498.5,-504.4"/>
</g>
<!-- Node6 -->
<g id="node6" class="node">
<title>Node6</title>
<g id="a_node6"><a xlink:href="JKRSolidHeap_8cpp.html" target="_top" xlink:title=" ">
<polygon fill="white" stroke="black" points="574.5,-447.5 574.5,-477.5 683.5,-477.5 683.5,-447.5 574.5,-447.5"/>
<text text-anchor="start" x="582.5" y="-465.5" font-family="Helvetica,sans-Serif" font-size="10.00">libs/JSystem/JKernel</text>
<text text-anchor="middle" x="629" y="-454.5" font-family="Helvetica,sans-Serif" font-size="10.00">/JKRSolidHeap.cpp</text>
</a>
</g>
</g>
<!-- Node1&#45;&gt;Node6 -->
<g id="edge5" class="edge">
<title>Node1&#45;&gt;Node6</title>
<path fill="none" stroke="midnightblue" d="M538.7,-509.71C558.73,-499.46 583.12,-486.98 601.5,-477.58"/>
<polygon fill="midnightblue" stroke="midnightblue" points="536.86,-506.72 529.56,-514.4 540.05,-512.96 536.86,-506.72"/>
</g>
<!-- Node7 -->
<g id="node7" class="node">
<title>Node7</title>
<g id="a_node7"><a xlink:href="JUTAssert_8cpp.html" target="_top" xlink:title=" ">
<polygon fill="white" stroke="black" points="702,-447.5 702,-477.5 808,-477.5 808,-447.5 702,-447.5"/>
<text text-anchor="start" x="710" y="-465.5" font-family="Helvetica,sans-Serif" font-size="10.00">libs/JSystem/JUtility</text>
<text text-anchor="middle" x="755" y="-454.5" font-family="Helvetica,sans-Serif" font-size="10.00">/JUTAssert.cpp</text>
</a>
</g>
</g>
<!-- Node1&#45;&gt;Node7 -->
<g id="edge6" class="edge">
<title>Node1&#45;&gt;Node7</title>
<path fill="none" stroke="midnightblue" d="M566.42,-511.95C608.34,-501.18 662.35,-487.3 701.81,-477.16"/>
<polygon fill="midnightblue" stroke="midnightblue" points="565.4,-508.6 556.59,-514.48 567.14,-515.38 565.4,-508.6"/>
</g>
<!-- Node8 -->
<g id="node8" class="node">
<title>Node8</title>
<g id="a_node8"><a xlink:href="JAISoundHandles_8h.html" target="_top" xlink:title=" ">
<polygon fill="white" stroke="black" points="826.5,-447.5 826.5,-477.5 953.5,-477.5 953.5,-447.5 826.5,-447.5"/>
<text text-anchor="start" x="834.5" y="-465.5" font-family="Helvetica,sans-Serif" font-size="10.00">include/JSystem/JAudio2</text>
<text text-anchor="middle" x="890" y="-454.5" font-family="Helvetica,sans-Serif" font-size="10.00">/JAISoundHandles.h</text>
</a>
</g>
</g>
<!-- Node1&#45;&gt;Node8 -->
<g id="edge7" class="edge">
<title>Node1&#45;&gt;Node8</title>
<path fill="none" stroke="midnightblue" d="M573.06,-517.88C636.99,-508.14 733.43,-492.99 817,-478 820.05,-477.45 823.17,-476.88 826.33,-476.29"/>
<polygon fill="midnightblue" stroke="midnightblue" points="572.45,-514.43 563.09,-519.39 573.5,-521.35 572.45,-514.43"/>
</g>
<!-- Node9 -->
<g id="node9" class="node">
<title>Node9</title>
<g id="a_node9"><a xlink:href="JAISoundHandles_8cpp.html" target="_top" xlink:title=" ">
<polygon fill="white" stroke="black" points="692,-380.5 692,-410.5 808,-410.5 808,-380.5 692,-380.5"/>
<text text-anchor="start" x="700" y="-398.5" font-family="Helvetica,sans-Serif" font-size="10.00">libs/JSystem/JAudio2</text>
<text text-anchor="middle" x="750" y="-387.5" font-family="Helvetica,sans-Serif" font-size="10.00">/JAISoundHandles.cpp</text>
</a>
</g>
</g>
<!-- Node8&#45;&gt;Node9 -->
<g id="edge8" class="edge">
<title>Node8&#45;&gt;Node9</title>
<path fill="none" stroke="midnightblue" d="M850.43,-443.13C828.19,-432.8 800.85,-420.11 780.32,-410.58"/>
<polygon fill="midnightblue" stroke="midnightblue" points="849.08,-446.36 859.62,-447.4 852.03,-440.01 849.08,-446.36"/>
</g>
<!-- Node10 -->
<g id="node10" class="node">
<title>Node10</title>
<g id="a_node10"><a xlink:href="JAISound_8h.html" target="_top" xlink:title=" ">
<polygon fill="white" stroke="black" points="826.5,-380.5 826.5,-410.5 953.5,-410.5 953.5,-380.5 826.5,-380.5"/>
<text text-anchor="start" x="834.5" y="-398.5" font-family="Helvetica,sans-Serif" font-size="10.00">include/JSystem/JAudio2</text>
<text text-anchor="middle" x="890" y="-387.5" font-family="Helvetica,sans-Serif" font-size="10.00">/JAISound.h</text>
</a>
</g>
</g>
<!-- Node8&#45;&gt;Node10 -->
<g id="edge9" class="edge">
<title>Node8&#45;&gt;Node10</title>
<path fill="none" stroke="midnightblue" d="M883.45,-437.4C883.01,-428.37 883.3,-418.41 884.33,-410.58"/>
<polygon fill="midnightblue" stroke="midnightblue" points="879.97,-437.74 884.32,-447.4 886.94,-437.13 879.97,-437.74"/>
</g>
<!-- Node76 -->
<g id="node49" class="node">
<title>Node76</title>
<g id="a_node49"><a xlink:href="Z2SpeechMgr2_8h.html" target="_top" xlink:title=" ">
<polygon fill="white" stroke="black" points="2382,-246.5 2382,-276.5 2482,-276.5 2482,-246.5 2382,-246.5"/>
<text text-anchor="start" x="2390" y="-264.5" font-family="Helvetica,sans-Serif" font-size="10.00">include/Z2AudioLib</text>
<text text-anchor="middle" x="2432" y="-253.5" font-family="Helvetica,sans-Serif" font-size="10.00">/Z2SpeechMgr2.h</text>
</a>
</g>
</g>
<!-- Node8&#45;&gt;Node76 -->
<g id="edge67" class="edge">
<title>Node8&#45;&gt;Node76</title>
<path fill="none" stroke="midnightblue" d="M964.11,-460.17C1218.69,-454.86 2055.64,-431.02 2308,-344 2351.11,-329.14 2393.88,-295.87 2416.18,-276.75"/>
<polygon fill="midnightblue" stroke="midnightblue" points="963.79,-456.68 953.86,-460.38 963.93,-463.67 963.79,-456.68"/>
</g>
<!-- Node10&#45;&gt;Node8 -->
<g id="edge36" class="edge">
<title>Node10&#45;&gt;Node8</title>
<path fill="none" stroke="midnightblue" d="M896.54,-420.57C896.99,-429.6 896.71,-439.56 895.68,-447.4"/>
<polygon fill="midnightblue" stroke="midnightblue" points="900.03,-420.24 895.67,-410.58 893.05,-420.84 900.03,-420.24"/>
</g>
<!-- Node11 -->
<g id="node11" class="node">
<title>Node11</title>
<g id="a_node11"><a xlink:href="JAISound_8cpp.html" target="_top" xlink:title=" ">
<polygon fill="white" stroke="black" points="2187.5,-313.5 2187.5,-343.5 2298.5,-343.5 2298.5,-313.5 2187.5,-313.5"/>
<text text-anchor="start" x="2195.5" y="-331.5" font-family="Helvetica,sans-Serif" font-size="10.00">libs/JSystem/JAudio2</text>
<text text-anchor="middle" x="2243" y="-320.5" font-family="Helvetica,sans-Serif" font-size="10.00">/JAISound.cpp</text>
</a>
</g>
</g>
<!-- Node10&#45;&gt;Node11 -->
<g id="edge10" class="edge">
<title>Node10&#45;&gt;Node11</title>
<path fill="none" stroke="midnightblue" d="M964.05,-393.35C1201.28,-389.4 1940.75,-374.86 2178,-344 2181.1,-343.6 2184.26,-343.12 2187.45,-342.58"/>
<polygon fill="midnightblue" stroke="midnightblue" points="963.75,-389.86 953.81,-393.52 963.86,-396.86 963.75,-389.86"/>
</g>
<!-- Node12 -->
<g id="node12" class="node">
<title>Node12</title>
<g id="a_node12"><a xlink:href="JAIAudience_8h.html" target="_top" xlink:title=" ">
<polygon fill="white" stroke="black" points="251.5,-313.5 251.5,-343.5 378.5,-343.5 378.5,-313.5 251.5,-313.5"/>
<text text-anchor="start" x="259.5" y="-331.5" font-family="Helvetica,sans-Serif" font-size="10.00">include/JSystem/JAudio2</text>
<text text-anchor="middle" x="315" y="-320.5" font-family="Helvetica,sans-Serif" font-size="10.00">/JAIAudience.h</text>
</a>
</g>
</g>
<!-- Node10&#45;&gt;Node12 -->
<g id="edge11" class="edge">
<title>Node10&#45;&gt;Node12</title>
<path fill="none" stroke="midnightblue" d="M816.13,-381.25C813.38,-380.8 810.67,-380.38 808,-380 632.21,-354.66 586.45,-364.27 410,-344 399.86,-342.83 389.18,-341.49 378.77,-340.09"/>
<polygon fill="midnightblue" stroke="midnightblue" points="815.71,-384.72 826.15,-382.95 816.88,-377.82 815.71,-384.72"/>
</g>
<!-- Node14 -->
<g id="node14" class="node">
<title>Node14</title>
<g id="a_node14"><a xlink:href="JAISeMgr_8h.html" target="_top" xlink:title=" ">
<polygon fill="white" stroke="black" points="247.5,-246.5 247.5,-276.5 374.5,-276.5 374.5,-246.5 247.5,-246.5"/>
<text text-anchor="start" x="255.5" y="-264.5" font-family="Helvetica,sans-Serif" font-size="10.00">include/JSystem/JAudio2</text>
<text text-anchor="middle" x="311" y="-253.5" font-family="Helvetica,sans-Serif" font-size="10.00">/JAISeMgr.h</text>
</a>
</g>
</g>
<!-- Node10&#45;&gt;Node14 -->
<g id="edge30" class="edge">
<title>Node10&#45;&gt;Node14</title>
<path fill="none" stroke="midnightblue" d="M816.2,-380.01C664.39,-358.36 619.23,-385.5 476,-344 421.84,-328.31 363.93,-295.51 333.18,-276.66"/>
<polygon fill="midnightblue" stroke="midnightblue" points="815.95,-383.51 826.36,-381.5 816.98,-376.58 815.95,-383.51"/>
</g>
<!-- Node16 -->
<g id="node16" class="node">
<title>Node16</title>
<g id="a_node16"><a xlink:href="Z2SoundMgr_8h.html" target="_top" xlink:title=" ">
<polygon fill="white" stroke="black" points="587,-179.5 587,-209.5 687,-209.5 687,-179.5 587,-179.5"/>
<text text-anchor="start" x="595" y="-197.5" font-family="Helvetica,sans-Serif" font-size="10.00">include/Z2AudioLib</text>
<text text-anchor="middle" x="637" y="-186.5" font-family="Helvetica,sans-Serif" font-size="10.00">/Z2SoundMgr.h</text>
</a>
</g>
</g>
<!-- Node10&#45;&gt;Node16 -->
<g id="edge59" class="edge">
<title>Node10&#45;&gt;Node16</title>
<path fill="none" stroke="midnightblue" d="M816.58,-378.11C767.44,-366.6 710.14,-351.89 701,-344 698.26,-341.63 658.3,-246.46 642.95,-209.74"/>
<polygon fill="midnightblue" stroke="midnightblue" points="816.07,-381.59 826.6,-380.45 817.66,-374.77 816.07,-381.59"/>
</g>
<!-- Node18 -->
<g id="node18" class="node">
<title>Node18</title>
<g id="a_node18"><a xlink:href="Z2AudioMgr_8h.html" target="_top" xlink:title=" ">
<polygon fill="white" stroke="black" points="1283,-112.5 1283,-142.5 1383,-142.5 1383,-112.5 1283,-112.5"/>
<text text-anchor="start" x="1291" y="-130.5" font-family="Helvetica,sans-Serif" font-size="10.00">include/Z2AudioLib</text>
<text text-anchor="middle" x="1333" y="-119.5" font-family="Helvetica,sans-Serif" font-size="10.00">/Z2AudioMgr.h</text>
</a>
</g>
</g>
<!-- Node10&#45;&gt;Node18 -->
<g id="edge42" class="edge">
<title>Node10&#45;&gt;Node18</title>
<path fill="none" stroke="midnightblue" d="M817.9,-377.74C786.26,-368.78 754.2,-356.95 745,-344 724.81,-315.59 768.36,-249.84 773,-246 851.09,-181.43 1160.33,-145.16 1282.74,-133.08"/>
<polygon fill="midnightblue" stroke="midnightblue" points="817.11,-381.15 827.68,-380.42 818.96,-374.4 817.11,-381.15"/>
</g>
<!-- Node24 -->
<g id="node24" class="node">
<title>Node24</title>
<g id="a_node24"><a xlink:href="JAISeqMgr_8h.html" target="_top" xlink:title=" ">
<polygon fill="white" stroke="black" points="392.5,-246.5 392.5,-276.5 519.5,-276.5 519.5,-246.5 392.5,-246.5"/>
<text text-anchor="start" x="400.5" y="-264.5" font-family="Helvetica,sans-Serif" font-size="10.00">include/JSystem/JAudio2</text>
<text text-anchor="middle" x="456" y="-253.5" font-family="Helvetica,sans-Serif" font-size="10.00">/JAISeqMgr.h</text>
</a>
</g>
</g>
<!-- Node10&#45;&gt;Node24 -->
<g id="edge35" class="edge">
<title>Node10&#45;&gt;Node24</title>
<path fill="none" stroke="midnightblue" d="M816.35,-380.15C734.54,-370.1 566.12,-378.5 510,-344 484.55,-328.36 468.57,-295.7 461.07,-276.82"/>
<polygon fill="midnightblue" stroke="midnightblue" points="815.96,-383.63 826.35,-381.55 816.93,-376.7 815.96,-383.63"/>
</g>
<!-- Node28 -->
<g id="node28" class="node">
<title>Node28</title>
<g id="a_node28"><a xlink:href="JAISeqDataMgr_8h.html" target="_top" xlink:title=" ">
<polygon fill="white" stroke="black" points="518.5,-313.5 518.5,-343.5 645.5,-343.5 645.5,-313.5 518.5,-313.5"/>
<text text-anchor="start" x="526.5" y="-331.5" font-family="Helvetica,sans-Serif" font-size="10.00">include/JSystem/JAudio2</text>
<text text-anchor="middle" x="582" y="-320.5" font-family="Helvetica,sans-Serif" font-size="10.00">/JAISeqDataMgr.h</text>
</a>
</g>
</g>
<!-- Node10&#45;&gt;Node28 -->
<g id="edge31" class="edge">
<title>Node10&#45;&gt;Node28</title>
<path fill="none" stroke="midnightblue" d="M816.35,-378.96C764.35,-367.98 695.37,-353.43 645.74,-342.95"/>
<polygon fill="midnightblue" stroke="midnightblue" points="815.67,-382.39 826.18,-381.03 817.12,-375.54 815.67,-382.39"/>
</g>
<!-- Node30 -->
<g id="node30" class="node">
<title>Node30</title>
<g id="a_node30"><a xlink:href="JAIStreamMgr_8h.html" target="_top" xlink:title=" ">
<polygon fill="white" stroke="black" points="753.5,-313.5 753.5,-343.5 880.5,-343.5 880.5,-313.5 753.5,-313.5"/>
<text text-anchor="start" x="761.5" y="-331.5" font-family="Helvetica,sans-Serif" font-size="10.00">include/JSystem/JAudio2</text>
<text text-anchor="middle" x="817" y="-320.5" font-family="Helvetica,sans-Serif" font-size="10.00">/JAIStreamMgr.h</text>
</a>
</g>
</g>
<!-- Node10&#45;&gt;Node30 -->
<g id="edge37" class="edge">
<title>Node10&#45;&gt;Node30</title>
<path fill="none" stroke="midnightblue" d="M866.53,-373.6C855.5,-363.78 842.66,-352.34 832.81,-343.58"/>
<polygon fill="midnightblue" stroke="midnightblue" points="864.36,-376.36 874.16,-380.4 869.02,-371.13 864.36,-376.36"/>
</g>
<!-- Node32 -->
<g id="node32" class="node">
<title>Node32</title>
<g id="a_node32"><a xlink:href="JAIStreamDataMgr_8h.html" target="_top" xlink:title=" ">
<polygon fill="white" stroke="black" points="898.5,-313.5 898.5,-343.5 1025.5,-343.5 1025.5,-313.5 898.5,-313.5"/>
<text text-anchor="start" x="906.5" y="-331.5" font-family="Helvetica,sans-Serif" font-size="10.00">include/JSystem/JAudio2</text>
<text text-anchor="middle" x="962" y="-320.5" font-family="Helvetica,sans-Serif" font-size="10.00">/JAIStreamDataMgr.h</text>
</a>
</g>
</g>
<!-- Node10&#45;&gt;Node32 -->
<g id="edge40" class="edge">
<title>Node10&#45;&gt;Node32</title>
<path fill="none" stroke="midnightblue" d="M913.15,-373.6C924.02,-363.78 936.7,-352.34 946.41,-343.58"/>
<polygon fill="midnightblue" stroke="midnightblue" points="910.7,-371.1 905.62,-380.4 915.39,-376.29 910.7,-371.1"/>
</g>
<!-- Node34 -->
<g id="node34" class="node">
<title>Node34</title>
<g id="a_node34"><a xlink:href="Z2SceneMgr_8h.html" target="_top" xlink:title=" ">
<polygon fill="white" stroke="black" points="1044,-313.5 1044,-343.5 1144,-343.5 1144,-313.5 1044,-313.5"/>
<text text-anchor="start" x="1052" y="-331.5" font-family="Helvetica,sans-Serif" font-size="10.00">include/Z2AudioLib</text>
<text text-anchor="middle" x="1094" y="-320.5" font-family="Helvetica,sans-Serif" font-size="10.00">/Z2SceneMgr.h</text>
</a>
</g>
</g>
<!-- Node10&#45;&gt;Node34 -->
<g id="edge43" class="edge">
<title>Node10&#45;&gt;Node34</title>
<path fill="none" stroke="midnightblue" d="M943.96,-377.31C976.96,-366.79 1018.66,-353.51 1049.71,-343.61"/>
<polygon fill="midnightblue" stroke="midnightblue" points="942.48,-374.11 934.01,-380.48 944.6,-380.77 942.48,-374.11"/>
</g>
<!-- Node36 -->
<g id="node36" class="node">
<title>Node36</title>
<g id="a_node36"><a xlink:href="Z2SeqMgr_8h.html" target="_top" xlink:title=" ">
<polygon fill="white" stroke="black" points="1375,-313.5 1375,-343.5 1475,-343.5 1475,-313.5 1375,-313.5"/>
<text text-anchor="start" x="1383" y="-331.5" font-family="Helvetica,sans-Serif" font-size="10.00">include/Z2AudioLib</text>
<text text-anchor="middle" x="1425" y="-320.5" font-family="Helvetica,sans-Serif" font-size="10.00">/Z2SeqMgr.h</text>
</a>
</g>
</g>
<!-- Node10&#45;&gt;Node36 -->
<g id="edge46" class="edge">
<title>Node10&#45;&gt;Node36</title>
<path fill="none" stroke="midnightblue" d="M963.8,-385.53C1074.33,-372.11 1279.96,-347.12 1374.76,-335.6"/>
<polygon fill="midnightblue" stroke="midnightblue" points="963.24,-382.08 953.74,-386.76 964.09,-389.02 963.24,-382.08"/>
</g>
<!-- Node39 -->
<g id="node39" class="node">
<title>Node39</title>
<g id="a_node39"><a xlink:href="Z2SeMgr_8h.html" target="_top" xlink:title=" ">
<polygon fill="white" stroke="black" points="1594,-313.5 1594,-343.5 1694,-343.5 1694,-313.5 1594,-313.5"/>
<text text-anchor="start" x="1602" y="-331.5" font-family="Helvetica,sans-Serif" font-size="10.00">include/Z2AudioLib</text>
<text text-anchor="middle" x="1644" y="-320.5" font-family="Helvetica,sans-Serif" font-size="10.00">/Z2SeMgr.h</text>
</a>
</g>
</g>
<!-- Node10&#45;&gt;Node39 -->
<g id="edge50" class="edge">
<title>Node10&#45;&gt;Node39</title>
<path fill="none" stroke="midnightblue" d="M963.94,-388.35C1076.31,-378.97 1296.79,-360.44 1484,-344 1520.81,-340.77 1562.38,-337 1593.92,-334.11"/>
<polygon fill="midnightblue" stroke="midnightblue" points="963.41,-384.88 953.74,-389.2 964,-391.85 963.41,-384.88"/>
</g>
<!-- Node41 -->
<g id="node41" class="node">
<title>Node41</title>
<g id="a_node41"><a xlink:href="Z2SoundHandles_8h.html" target="_top" xlink:title=" ">
<polygon fill="white" stroke="black" points="1875,-313.5 1875,-343.5 1977,-343.5 1977,-313.5 1875,-313.5"/>
<text text-anchor="start" x="1883" y="-331.5" font-family="Helvetica,sans-Serif" font-size="10.00">include/Z2AudioLib</text>
<text text-anchor="middle" x="1926" y="-320.5" font-family="Helvetica,sans-Serif" font-size="10.00">/Z2SoundHandles.h</text>
</a>
</g>
</g>
<!-- Node10&#45;&gt;Node41 -->
<g id="edge53" class="edge">
<title>Node10&#45;&gt;Node41</title>
<path fill="none" stroke="midnightblue" d="M963.89,-389.98C1106.7,-381.23 1430.55,-361.32 1703,-344 1761.85,-340.26 1829.43,-335.85 1874.63,-332.88"/>
<polygon fill="midnightblue" stroke="midnightblue" points="963.28,-386.51 953.51,-390.62 963.71,-393.5 963.28,-386.51"/>
</g>
<!-- Node74 -->
<g id="node47" class="node">
<title>Node74</title>
<g id="a_node47"><a xlink:href="Z2SoundStarter_8h.html" target="_top" xlink:title=" ">
<polygon fill="white" stroke="black" points="2069,-313.5 2069,-343.5 2169,-343.5 2169,-313.5 2069,-313.5"/>
<text text-anchor="start" x="2077" y="-331.5" font-family="Helvetica,sans-Serif" font-size="10.00">include/Z2AudioLib</text>
<text text-anchor="middle" x="2119" y="-320.5" font-family="Helvetica,sans-Serif" font-size="10.00">/Z2SoundStarter.h</text>
</a>
</g>
</g>
<!-- Node10&#45;&gt;Node74 -->
<g id="edge60" class="edge">
<title>Node10&#45;&gt;Node74</title>
<path fill="none" stroke="midnightblue" d="M963.94,-392.69C1140.76,-388.01 1601.96,-373.75 1986,-344 2013.44,-341.87 2043.98,-338.61 2068.86,-335.72"/>
<polygon fill="midnightblue" stroke="midnightblue" points="963.61,-389.2 953.71,-392.96 963.8,-396.19 963.61,-389.2"/>
</g>
<!-- Node12&#45;&gt;Node10 -->
<g id="edge26" class="edge">
<title>Node12&#45;&gt;Node10</title>
<path fill="none" stroke="midnightblue" d="M388.59,-339.02C401.75,-340.79 415.3,-342.54 428,-344 604.45,-364.27 650.21,-354.66 826,-380 827.02,-380.15 828.05,-380.3 829.09,-380.46"/>
<polygon fill="midnightblue" stroke="midnightblue" points="389,-335.55 378.62,-337.67 388.06,-342.49 389,-335.55"/>
</g>
<!-- Node13 -->
<g id="node13" class="node">
<title>Node13</title>
<g id="a_node13"><a xlink:href="JAIAudience_8cpp.html" target="_top" xlink:title=" ">
<polygon fill="white" stroke="black" points="118.5,-246.5 118.5,-276.5 229.5,-276.5 229.5,-246.5 118.5,-246.5"/>
<text text-anchor="start" x="126.5" y="-264.5" font-family="Helvetica,sans-Serif" font-size="10.00">libs/JSystem/JAudio2</text>
<text text-anchor="middle" x="174" y="-253.5" font-family="Helvetica,sans-Serif" font-size="10.00">/JAIAudience.cpp</text>
</a>
</g>
</g>
<!-- Node12&#45;&gt;Node13 -->
<g id="edge12" class="edge">
<title>Node12&#45;&gt;Node13</title>
<path fill="none" stroke="midnightblue" d="M275.15,-309.13C252.75,-298.8 225.22,-286.11 204.54,-276.58"/>
<polygon fill="midnightblue" stroke="midnightblue" points="273.86,-312.39 284.41,-313.4 276.79,-306.03 273.86,-312.39"/>
</g>
<!-- Node12&#45;&gt;Node14 -->
<g id="edge13" class="edge">
<title>Node12&#45;&gt;Node14</title>
<path fill="none" stroke="midnightblue" d="M313.52,-303.4C312.96,-294.37 312.35,-284.41 311.87,-276.58"/>
<polygon fill="midnightblue" stroke="midnightblue" points="310.02,-303.63 314.13,-313.4 317.01,-303.2 310.02,-303.63"/>
</g>
<!-- Node12&#45;&gt;Node24 -->
<g id="edge23" class="edge">
<title>Node12&#45;&gt;Node24</title>
<path fill="none" stroke="midnightblue" d="M354.85,-309.13C377.25,-298.8 404.78,-286.11 425.46,-276.58"/>
<polygon fill="midnightblue" stroke="midnightblue" points="353.21,-306.03 345.59,-313.4 356.14,-312.39 353.21,-306.03"/>
</g>
<!-- Node26 -->
<g id="node26" class="node">
<title>Node26</title>
<g id="a_node26"><a xlink:href="Z2Audience_8h.html" target="_top" xlink:title=" ">
<polygon fill="white" stroke="black" points="0,-246.5 0,-276.5 100,-276.5 100,-246.5 0,-246.5"/>
<text text-anchor="start" x="8" y="-264.5" font-family="Helvetica,sans-Serif" font-size="10.00">include/Z2AudioLib</text>
<text text-anchor="middle" x="50" y="-253.5" font-family="Helvetica,sans-Serif" font-size="10.00">/Z2Audience.h</text>
</a>
</g>
</g>
<!-- Node12&#45;&gt;Node26 -->
<g id="edge27" class="edge">
<title>Node12&#45;&gt;Node26</title>
<path fill="none" stroke="midnightblue" d="M247.76,-311.03C207.5,-301.16 155.32,-288.37 109,-277 106.13,-276.3 103.19,-275.57 100.21,-274.84"/>
<polygon fill="midnightblue" stroke="midnightblue" points="247.18,-314.49 257.72,-313.47 248.84,-307.69 247.18,-314.49"/>
</g>
<!-- Node15 -->
<g id="node15" class="node">
<title>Node15</title>
<g id="a_node15"><a xlink:href="JAISeMgr_8cpp.html" target="_top" xlink:title=" ">
<polygon fill="white" stroke="black" points="255.5,-179.5 255.5,-209.5 366.5,-209.5 366.5,-179.5 255.5,-179.5"/>
<text text-anchor="start" x="263.5" y="-197.5" font-family="Helvetica,sans-Serif" font-size="10.00">libs/JSystem/JAudio2</text>
<text text-anchor="middle" x="311" y="-186.5" font-family="Helvetica,sans-Serif" font-size="10.00">/JAISeMgr.cpp</text>
</a>
</g>
</g>
<!-- Node14&#45;&gt;Node15 -->
<g id="edge14" class="edge">
<title>Node14&#45;&gt;Node15</title>
<path fill="none" stroke="midnightblue" d="M311,-236.11C311,-227.15 311,-217.32 311,-209.58"/>
<polygon fill="midnightblue" stroke="midnightblue" points="307.5,-236.4 311,-246.4 314.5,-236.4 307.5,-236.4"/>
</g>
<!-- Node14&#45;&gt;Node16 -->
<g id="edge15" class="edge">
<title>Node14&#45;&gt;Node16</title>
<path fill="none" stroke="midnightblue" d="M384.82,-245.64C460.74,-230.46 537.83,-215.15 586.87,-205.43"/>
<polygon fill="midnightblue" stroke="midnightblue" points="383.72,-242.29 374.6,-247.68 385.09,-249.15 383.72,-242.29"/>
</g>
<!-- Node17 -->
<g id="node17" class="node">
<title>Node17</title>
<g id="a_node17"><a xlink:href="Z2SoundMgr_8cpp.html" target="_top" xlink:title=" ">
<polygon fill="white" stroke="black" points="556.5,-118 556.5,-137 717.5,-137 717.5,-118 556.5,-118"/>
<text text-anchor="middle" x="637" y="-125" font-family="Helvetica,sans-Serif" font-size="10.00">libs/Z2AudioLib/Z2SoundMgr.cpp</text>
</a>
</g>
</g>
<!-- Node16&#45;&gt;Node17 -->
<g id="edge16" class="edge">
<title>Node16&#45;&gt;Node17</title>
<path fill="none" stroke="midnightblue" d="M637,-169.25C637,-158.02 637,-145.38 637,-137.19"/>
<polygon fill="midnightblue" stroke="midnightblue" points="633.5,-169.4 637,-179.4 640.5,-169.4 633.5,-169.4"/>
</g>
<!-- Node16&#45;&gt;Node18 -->
<g id="edge17" class="edge">
<title>Node16&#45;&gt;Node18</title>
<path fill="none" stroke="midnightblue" d="M697.17,-179.61C698.45,-179.4 699.73,-179.19 701,-179 915.91,-146.24 1175.38,-133.97 1282.74,-130.07"/>
<polygon fill="midnightblue" stroke="midnightblue" points="696.4,-176.19 687.18,-181.42 697.64,-183.08 696.4,-176.19"/>
</g>
<!-- Node19 -->
<g id="node19" class="node">
<title>Node19</title>
<g id="a_node19"><a xlink:href="d__a__alink_8cpp.html" target="_top" xlink:title=" ">
<polygon fill="white" stroke="black" points="1071.5,-56.5 1071.5,-75.5 1180.5,-75.5 1180.5,-56.5 1071.5,-56.5"/>
<text text-anchor="middle" x="1126" y="-63.5" font-family="Helvetica,sans-Serif" font-size="10.00">src/d/a/d_a_alink.cpp</text>
</a>
</g>
</g>
<!-- Node18&#45;&gt;Node19 -->
<g id="edge18" class="edge">
<title>Node18&#45;&gt;Node19</title>
<path fill="none" stroke="midnightblue" d="M1274.59,-109.71C1235.8,-98.56 1186.5,-84.39 1155.59,-75.51"/>
<polygon fill="midnightblue" stroke="midnightblue" points="1273.63,-113.08 1284.21,-112.47 1275.56,-106.35 1273.63,-113.08"/>
</g>
<!-- Node20 -->
<g id="node20" class="node">
<title>Node20</title>
<g id="a_node20"><a xlink:href="d__save_8cpp.html" target="_top" xlink:title=" ">
<polygon fill="white" stroke="black" points="1198.5,-56.5 1198.5,-75.5 1313.5,-75.5 1313.5,-56.5 1198.5,-56.5"/>
<text text-anchor="middle" x="1256" y="-63.5" font-family="Helvetica,sans-Serif" font-size="10.00">src/d/save/d_save.cpp</text>
</a>
</g>
</g>
<!-- Node18&#45;&gt;Node20 -->
<g id="edge19" class="edge">
<title>Node18&#45;&gt;Node20</title>
<path fill="none" stroke="midnightblue" d="M1306.71,-106.19C1293.23,-95.77 1277.52,-83.63 1267.2,-75.66"/>
<polygon fill="midnightblue" stroke="midnightblue" points="1304.7,-109.05 1314.75,-112.4 1308.98,-103.52 1304.7,-109.05"/>
</g>
<!-- Node21 -->
<g id="node21" class="node">
<title>Node21</title>
<g id="a_node21"><a xlink:href="Z2AudioMgr_8cpp.html" target="_top" xlink:title=" ">
<polygon fill="white" stroke="black" points="1331,-56.5 1331,-75.5 1489,-75.5 1489,-56.5 1331,-56.5"/>
<text text-anchor="middle" x="1410" y="-63.5" font-family="Helvetica,sans-Serif" font-size="10.00">libs/Z2AudioLib/Z2AudioMgr.cpp</text>
</a>
</g>
</g>
<!-- Node18&#45;&gt;Node21 -->
<g id="edge20" class="edge">
<title>Node18&#45;&gt;Node21</title>
<path fill="none" stroke="midnightblue" d="M1359.29,-106.19C1372.77,-95.77 1388.48,-83.63 1398.8,-75.66"/>
<polygon fill="midnightblue" stroke="midnightblue" points="1357.02,-103.52 1351.25,-112.4 1361.3,-109.05 1357.02,-103.52"/>
</g>
<!-- Node22 -->
<g id="node22" class="node">
<title>Node22</title>
<g id="a_node22"><a xlink:href="m__Do__audio_8h.html" target="_top" xlink:title=" ">
<polygon fill="white" stroke="black" points="1507,-56.5 1507,-75.5 1647,-75.5 1647,-56.5 1507,-56.5"/>
<text text-anchor="middle" x="1577" y="-63.5" font-family="Helvetica,sans-Serif" font-size="10.00">include/m_Do/m_Do_audio.h</text>
</a>
</g>
</g>
<!-- Node18&#45;&gt;Node22 -->
<g id="edge21" class="edge">
<title>Node18&#45;&gt;Node22</title>
<path fill="none" stroke="midnightblue" d="M1393.26,-111.81C1439.94,-100.42 1503,-85.05 1541.79,-75.59"/>
<polygon fill="midnightblue" stroke="midnightblue" points="1392.15,-108.47 1383.26,-114.24 1393.81,-115.27 1392.15,-108.47"/>
</g>
<!-- Node23 -->
<g id="node23" class="node">
<title>Node23</title>
<g id="a_node23"><a xlink:href="m__Do__audio_8cpp.html" target="_top" xlink:title=" ">
<polygon fill="white" stroke="black" points="1510,-0.5 1510,-19.5 1644,-19.5 1644,-0.5 1510,-0.5"/>
<text text-anchor="middle" x="1577" y="-7.5" font-family="Helvetica,sans-Serif" font-size="10.00">src/m_Do/m_Do_audio.cpp</text>
</a>
</g>
</g>
<!-- Node22&#45;&gt;Node23 -->
<g id="edge22" class="edge">
<title>Node22&#45;&gt;Node23</title>
<path fill="none" stroke="midnightblue" d="M1577,-45.8C1577,-36.91 1577,-26.78 1577,-19.75"/>
<polygon fill="midnightblue" stroke="midnightblue" points="1573.5,-46.08 1577,-56.08 1580.5,-46.08 1573.5,-46.08"/>
</g>
<!-- Node24&#45;&gt;Node16 -->
<g id="edge25" class="edge">
<title>Node24&#45;&gt;Node16</title>
<path fill="none" stroke="midnightblue" d="M504.86,-242.96C534.01,-232.48 570.54,-219.37 597.8,-209.58"/>
<polygon fill="midnightblue" stroke="midnightblue" points="503.5,-239.72 495.27,-246.4 505.87,-246.31 503.5,-239.72"/>
</g>
<!-- Node25 -->
<g id="node25" class="node">
<title>Node25</title>
<g id="a_node25"><a xlink:href="JAISeqMgr_8cpp.html" target="_top" xlink:title=" ">
<polygon fill="white" stroke="black" points="400.5,-179.5 400.5,-209.5 511.5,-209.5 511.5,-179.5 400.5,-179.5"/>
<text text-anchor="start" x="408.5" y="-197.5" font-family="Helvetica,sans-Serif" font-size="10.00">libs/JSystem/JAudio2</text>
<text text-anchor="middle" x="456" y="-186.5" font-family="Helvetica,sans-Serif" font-size="10.00">/JAISeqMgr.cpp</text>
</a>
</g>
</g>
<!-- Node24&#45;&gt;Node25 -->
<g id="edge24" class="edge">
<title>Node24&#45;&gt;Node25</title>
<path fill="none" stroke="midnightblue" d="M456,-236.11C456,-227.15 456,-217.32 456,-209.58"/>
<polygon fill="midnightblue" stroke="midnightblue" points="452.5,-236.4 456,-246.4 459.5,-236.4 452.5,-236.4"/>
</g>
<!-- Node26&#45;&gt;Node18 -->
<g id="edge29" class="edge">
<title>Node26&#45;&gt;Node18</title>
<path fill="none" stroke="midnightblue" d="M48.45,-236.21C48.71,-217.5 52.53,-192.62 69,-179 92.8,-159.32 1051.17,-135.22 1282.93,-129.68"/>
<polygon fill="midnightblue" stroke="midnightblue" points="44.95,-236.44 48.63,-246.37 51.95,-236.31 44.95,-236.44"/>
</g>
<!-- Node27 -->
<g id="node27" class="node">
<title>Node27</title>
<g id="a_node27"><a xlink:href="Z2Audience_8cpp.html" target="_top" xlink:title=" ">
<polygon fill="white" stroke="black" points="78.5,-185 78.5,-204 235.5,-204 235.5,-185 78.5,-185"/>
<text text-anchor="middle" x="157" y="-192" font-family="Helvetica,sans-Serif" font-size="10.00">libs/Z2AudioLib/Z2Audience.cpp</text>
</a>
</g>
</g>
<!-- Node26&#45;&gt;Node27 -->
<g id="edge28" class="edge">
<title>Node26&#45;&gt;Node27</title>
<path fill="none" stroke="midnightblue" d="M81.87,-241.14C102.2,-228.79 127.55,-213.39 143,-204.01"/>
<polygon fill="midnightblue" stroke="midnightblue" points="79.95,-238.21 73.22,-246.4 83.58,-244.2 79.95,-238.21"/>
</g>
<!-- Node28&#45;&gt;Node14 -->
<g id="edge33" class="edge">
<title>Node28&#45;&gt;Node14</title>
<path fill="none" stroke="midnightblue" d="M513.7,-311.12C469.36,-300.48 412.16,-286.76 369.83,-276.61"/>
<polygon fill="midnightblue" stroke="midnightblue" points="512.99,-314.55 523.53,-313.48 514.62,-307.74 512.99,-314.55"/>
</g>
<!-- Node28&#45;&gt;Node24 -->
<g id="edge34" class="edge">
<title>Node28&#45;&gt;Node24</title>
<path fill="none" stroke="midnightblue" d="M545.58,-308.71C525.71,-298.46 501.52,-285.98 483.29,-276.58"/>
<polygon fill="midnightblue" stroke="midnightblue" points="544.17,-311.92 554.66,-313.4 547.38,-305.7 544.17,-311.92"/>
</g>
<!-- Node29 -->
<g id="node29" class="node">
<title>Node29</title>
<g id="a_node29"><a xlink:href="JAISeqDataMgr_8cpp.html" target="_top" xlink:title=" ">
<polygon fill="white" stroke="black" points="537.5,-246.5 537.5,-276.5 648.5,-276.5 648.5,-246.5 537.5,-246.5"/>
<text text-anchor="start" x="545.5" y="-264.5" font-family="Helvetica,sans-Serif" font-size="10.00">libs/JSystem/JAudio2</text>
<text text-anchor="middle" x="593" y="-253.5" font-family="Helvetica,sans-Serif" font-size="10.00">/JAISeqDataMgr.cpp</text>
</a>
</g>
</g>
<!-- Node28&#45;&gt;Node29 -->
<g id="edge32" class="edge">
<title>Node28&#45;&gt;Node29</title>
<path fill="none" stroke="midnightblue" d="M586.08,-303.4C587.61,-294.37 589.29,-284.41 590.62,-276.58"/>
<polygon fill="midnightblue" stroke="midnightblue" points="582.6,-302.95 584.39,-313.4 589.51,-304.12 582.6,-302.95"/>
</g>
<!-- Node30&#45;&gt;Node16 -->
<g id="edge39" class="edge">
<title>Node30&#45;&gt;Node16</title>
<path fill="none" stroke="midnightblue" d="M789.43,-307.28C752.55,-280.24 688.1,-232.98 656.12,-209.52"/>
<polygon fill="midnightblue" stroke="midnightblue" points="787.6,-310.28 797.74,-313.37 791.74,-304.64 787.6,-310.28"/>
</g>
<!-- Node31 -->
<g id="node31" class="node">
<title>Node31</title>
<g id="a_node31"><a xlink:href="JAIStreamMgr_8cpp.html" target="_top" xlink:title=" ">
<polygon fill="white" stroke="black" points="781.5,-246.5 781.5,-276.5 892.5,-276.5 892.5,-246.5 781.5,-246.5"/>
<text text-anchor="start" x="789.5" y="-264.5" font-family="Helvetica,sans-Serif" font-size="10.00">libs/JSystem/JAudio2</text>
<text text-anchor="middle" x="837" y="-253.5" font-family="Helvetica,sans-Serif" font-size="10.00">/JAIStreamMgr.cpp</text>
</a>
</g>
</g>
<!-- Node30&#45;&gt;Node31 -->
<g id="edge38" class="edge">
<title>Node30&#45;&gt;Node31</title>
<path fill="none" stroke="midnightblue" d="M824.32,-303.7C827.13,-294.59 830.23,-284.49 832.67,-276.58"/>
<polygon fill="midnightblue" stroke="midnightblue" points="820.94,-302.81 821.34,-313.4 827.63,-304.87 820.94,-302.81"/>
</g>
<!-- Node33 -->
<g id="node33" class="node">
<title>Node33</title>
<g id="a_node33"><a xlink:href="JAIStreamDataMgr_8cpp.html" target="_top" xlink:title=" ">
<polygon fill="white" stroke="black" points="910.5,-246.5 910.5,-276.5 1031.5,-276.5 1031.5,-246.5 910.5,-246.5"/>
<text text-anchor="start" x="918.5" y="-264.5" font-family="Helvetica,sans-Serif" font-size="10.00">libs/JSystem/JAudio2</text>
<text text-anchor="middle" x="971" y="-253.5" font-family="Helvetica,sans-Serif" font-size="10.00">/JAIStreamDataMgr.cpp</text>
</a>
</g>
</g>
<!-- Node32&#45;&gt;Node33 -->
<g id="edge41" class="edge">
<title>Node32&#45;&gt;Node33</title>
<path fill="none" stroke="midnightblue" d="M965.34,-303.4C966.59,-294.37 967.97,-284.41 969.05,-276.58"/>
<polygon fill="midnightblue" stroke="midnightblue" points="961.86,-303.01 963.95,-313.4 968.79,-303.97 961.86,-303.01"/>
</g>
<!-- Node34&#45;&gt;Node18 -->
<g id="edge45" class="edge">
<title>Node34&#45;&gt;Node18</title>
<path fill="none" stroke="midnightblue" d="M1081.76,-303.98C1074.61,-286.69 1068.96,-263.3 1080,-246 1124.62,-176.09 1222.75,-147.13 1282.84,-135.62"/>
<polygon fill="midnightblue" stroke="midnightblue" points="1078.7,-305.7 1086.03,-313.36 1085.07,-302.8 1078.7,-305.7"/>
</g>
<!-- Node35 -->
<g id="node35" class="node">
<title>Node35</title>
<g id="a_node35"><a xlink:href="Z2SceneMgr_8cpp.html" target="_top" xlink:title=" ">
<polygon fill="white" stroke="black" points="1088.5,-252 1088.5,-271 1249.5,-271 1249.5,-252 1088.5,-252"/>
<text text-anchor="middle" x="1169" y="-259" font-family="Helvetica,sans-Serif" font-size="10.00">libs/Z2AudioLib/Z2SceneMgr.cpp</text>
</a>
</g>
</g>
<!-- Node34&#45;&gt;Node35 -->
<g id="edge44" class="edge">
<title>Node34&#45;&gt;Node35</title>
<path fill="none" stroke="midnightblue" d="M1118.03,-306.67C1131.88,-294.67 1148.55,-280.22 1158.97,-271.19"/>
<polygon fill="midnightblue" stroke="midnightblue" points="1115.54,-304.2 1110.27,-313.4 1120.12,-309.49 1115.54,-304.2"/>
</g>
<!-- Node36&#45;&gt;Node18 -->
<g id="edge49" class="edge">
<title>Node36&#45;&gt;Node18</title>
<path fill="none" stroke="midnightblue" d="M1485.08,-320.08C1541.86,-310.32 1614.55,-289.1 1587,-246 1542.12,-175.79 1443.38,-146.92 1383.08,-135.51"/>
<polygon fill="midnightblue" stroke="midnightblue" points="1484.36,-316.65 1475.05,-321.71 1485.48,-323.56 1484.36,-316.65"/>
</g>
<!-- Node37 -->
<g id="node37" class="node">
<title>Node37</title>
<g id="a_node37"><a xlink:href="Z2SeqMgr_8cpp.html" target="_top" xlink:title=" ">
<polygon fill="white" stroke="black" points="1268,-252 1268,-271 1418,-271 1418,-252 1268,-252"/>
<text text-anchor="middle" x="1343" y="-259" font-family="Helvetica,sans-Serif" font-size="10.00">libs/Z2AudioLib/Z2SeqMgr.cpp</text>
</a>
</g>
</g>
<!-- Node36&#45;&gt;Node37 -->
<g id="edge47" class="edge">
<title>Node36&#45;&gt;Node37</title>
<path fill="none" stroke="midnightblue" d="M1399.15,-307.01C1383.93,-294.94 1365.46,-280.3 1353.97,-271.19"/>
<polygon fill="midnightblue" stroke="midnightblue" points="1397.2,-309.93 1407.21,-313.4 1401.54,-304.44 1397.2,-309.93"/>
</g>
<!-- Node38 -->
<g id="node38" class="node">
<title>Node38</title>
<g id="a_node38"><a xlink:href="Z2SoundObjMgr_8cpp.html" target="_top" xlink:title=" ">
<polygon fill="white" stroke="black" points="1436.5,-246.5 1436.5,-276.5 1577.5,-276.5 1577.5,-246.5 1436.5,-246.5"/>
<text text-anchor="start" x="1444.5" y="-264.5" font-family="Helvetica,sans-Serif" font-size="10.00">libs/Z2AudioLib/Z2SoundObj</text>
<text text-anchor="middle" x="1507" y="-253.5" font-family="Helvetica,sans-Serif" font-size="10.00">Mgr.cpp</text>
</a>
</g>
</g>
<!-- Node36&#45;&gt;Node38 -->
<g id="edge48" class="edge">
<title>Node36&#45;&gt;Node38</title>
<path fill="none" stroke="midnightblue" d="M1450.65,-307.17C1463.19,-297.23 1477.97,-285.51 1489.24,-276.58"/>
<polygon fill="midnightblue" stroke="midnightblue" points="1448.46,-304.44 1442.79,-313.4 1452.8,-309.93 1448.46,-304.44"/>
</g>
<!-- Node39&#45;&gt;Node18 -->
<g id="edge52" class="edge">
<title>Node39&#45;&gt;Node18</title>
<path fill="none" stroke="midnightblue" d="M1636.01,-303.85C1623.14,-269.82 1594.38,-207.97 1547,-179 1496.52,-148.13 1428.72,-136.13 1383.07,-131.47"/>
<polygon fill="midnightblue" stroke="midnightblue" points="1632.79,-305.24 1639.49,-313.45 1639.37,-302.85 1632.79,-305.24"/>
</g>
<!-- Node40 -->
<g id="node40" class="node">
<title>Node40</title>
<g id="a_node40"><a xlink:href="Z2SeMgr_8cpp.html" target="_top" xlink:title=" ">
<polygon fill="white" stroke="black" points="1672.5,-252 1672.5,-271 1817.5,-271 1817.5,-252 1672.5,-252"/>
<text text-anchor="middle" x="1745" y="-259" font-family="Helvetica,sans-Serif" font-size="10.00">libs/Z2AudioLib/Z2SeMgr.cpp</text>
</a>
</g>
</g>
<!-- Node39&#45;&gt;Node40 -->
<g id="edge51" class="edge">
<title>Node39&#45;&gt;Node40</title>
<path fill="none" stroke="midnightblue" d="M1674.34,-307.97C1693.49,-295.65 1717.27,-280.35 1731.78,-271.01"/>
<polygon fill="midnightblue" stroke="midnightblue" points="1672.43,-305.04 1665.92,-313.4 1676.22,-310.93 1672.43,-305.04"/>
</g>
<!-- Node42 -->
<g id="node42" class="node">
<title>Node42</title>
<g id="a_node42"><a xlink:href="Z2SoundHandles_8cpp.html" target="_top" xlink:title=" ">
<polygon fill="white" stroke="black" points="1836,-252 1836,-271 2016,-271 2016,-252 1836,-252"/>
<text text-anchor="middle" x="1926" y="-259" font-family="Helvetica,sans-Serif" font-size="10.00">libs/Z2AudioLib/Z2SoundHandles.cpp</text>
</a>
</g>
</g>
<!-- Node41&#45;&gt;Node42 -->
<g id="edge54" class="edge">
<title>Node41&#45;&gt;Node42</title>
<path fill="none" stroke="midnightblue" d="M1926,-303.25C1926,-292.02 1926,-279.38 1926,-271.19"/>
<polygon fill="midnightblue" stroke="midnightblue" points="1922.5,-303.4 1926,-313.4 1929.5,-303.4 1922.5,-303.4"/>
</g>
<!-- Node43 -->
<g id="node43" class="node">
<title>Node43</title>
<g id="a_node43"><a xlink:href="Z2SoundObject_8h.html" target="_top" xlink:title=" ">
<polygon fill="white" stroke="red" points="2034,-246.5 2034,-276.5 2134,-276.5 2134,-246.5 2034,-246.5"/>
<text text-anchor="start" x="2042" y="-264.5" font-family="Helvetica,sans-Serif" font-size="10.00">include/Z2AudioLib</text>
<text text-anchor="middle" x="2084" y="-253.5" font-family="Helvetica,sans-Serif" font-size="10.00">/Z2SoundObject.h</text>
</a>
</g>
</g>
<!-- Node41&#45;&gt;Node43 -->
<g id="edge55" class="edge">
<title>Node41&#45;&gt;Node43</title>
<path fill="none" stroke="midnightblue" d="M1969.65,-309.54C1994.93,-299.14 2026.3,-286.24 2049.78,-276.58"/>
<polygon fill="midnightblue" stroke="midnightblue" points="1968.2,-306.35 1960.28,-313.4 1970.86,-312.83 1968.2,-306.35"/>
</g>
<!-- Node44 -->
<g id="node44" class="node">
<title>Node44</title>
<g id="a_node44"><a xlink:href="Z2SoundObject_8cpp.html" target="_top" xlink:title=" ">
<polygon fill="white" stroke="black" points="1723.5,-185 1723.5,-204 1896.5,-204 1896.5,-185 1723.5,-185"/>
<text text-anchor="middle" x="1810" y="-192" font-family="Helvetica,sans-Serif" font-size="10.00">libs/Z2AudioLib/Z2SoundObject.cpp</text>
</a>
</g>
</g>
<!-- Node43&#45;&gt;Node44 -->
<g id="edge56" class="edge">
<title>Node43&#45;&gt;Node44</title>
<path fill="none" stroke="midnightblue" d="M2023.77,-245.72C1955.8,-229.42 1887.77,-213.54 1846.93,-204.05"/>
<polygon fill="midnightblue" stroke="midnightblue" points="2023.26,-249.19 2033.8,-248.12 2024.89,-242.39 2023.26,-249.19"/>
</g>
<!-- Node45 -->
<g id="node45" class="node">
<title>Node45</title>
<g id="a_node45"><a xlink:href="d__bomb_8h.html" target="_top" xlink:title=" ">
<polygon fill="white" stroke="red" points="1914.5,-185 1914.5,-204 2015.5,-204 2015.5,-185 1914.5,-185"/>
<text text-anchor="middle" x="1965" y="-192" font-family="Helvetica,sans-Serif" font-size="10.00">include/d/d_bomb.h</text>
</a>
</g>
</g>
<!-- Node43&#45;&gt;Node45 -->
<g id="edge57" class="edge">
<title>Node43&#45;&gt;Node45</title>
<path fill="none" stroke="midnightblue" d="M2049.17,-241.47C2026.45,-229.06 1997.9,-213.47 1980.57,-204.01"/>
<polygon fill="midnightblue" stroke="midnightblue" points="2047.72,-244.67 2058.18,-246.4 2051.08,-238.53 2047.72,-244.67"/>
</g>
<!-- Node47 -->
<g id="node46" class="node">
<title>Node47</title>
<g id="a_node46"><a xlink:href="Z2Creature_8h.html" target="_top" xlink:title=" ">
<polygon fill="white" stroke="red" points="2034,-179.5 2034,-209.5 2134,-209.5 2134,-179.5 2034,-179.5"/>
<text text-anchor="start" x="2042" y="-197.5" font-family="Helvetica,sans-Serif" font-size="10.00">include/Z2AudioLib</text>
<text text-anchor="middle" x="2084" y="-186.5" font-family="Helvetica,sans-Serif" font-size="10.00">/Z2Creature.h</text>
</a>
</g>
</g>
<!-- Node43&#45;&gt;Node47 -->
<g id="edge58" class="edge">
<title>Node43&#45;&gt;Node47</title>
<path fill="none" stroke="midnightblue" d="M2084,-236.11C2084,-227.15 2084,-217.32 2084,-209.58"/>
<polygon fill="midnightblue" stroke="midnightblue" points="2080.5,-236.4 2084,-246.4 2087.5,-236.4 2080.5,-236.4"/>
</g>
<!-- Node74&#45;&gt;Node18 -->
<g id="edge62" class="edge">
<title>Node74&#45;&gt;Node18</title>
<path fill="none" stroke="midnightblue" d="M2132.81,-304.69C2150.44,-272.3 2175.06,-213.13 2143,-179 2116.89,-151.21 1555.62,-134.31 1383.04,-129.75"/>
<polygon fill="midnightblue" stroke="midnightblue" points="2129.73,-303.02 2127.85,-313.45 2135.82,-306.47 2129.73,-303.02"/>
</g>
<!-- Node74&#45;&gt;Node43 -->
<g id="edge63" class="edge">
<title>Node74&#45;&gt;Node43</title>
<path fill="none" stroke="midnightblue" d="M2106.66,-304.58C2101.63,-295.24 2095.98,-284.75 2091.58,-276.58"/>
<polygon fill="midnightblue" stroke="midnightblue" points="2103.58,-306.25 2111.41,-313.4 2109.75,-302.93 2103.58,-306.25"/>
</g>
<!-- Node75 -->
<g id="node48" class="node">
<title>Node75</title>
<g id="a_node48"><a xlink:href="Z2SoundStarter_8cpp.html" target="_top" xlink:title=" ">
<polygon fill="white" stroke="black" points="2190.5,-252 2190.5,-271 2363.5,-271 2363.5,-252 2190.5,-252"/>
<text text-anchor="middle" x="2277" y="-259" font-family="Helvetica,sans-Serif" font-size="10.00">libs/Z2AudioLib/Z2SoundStarter.cpp</text>
</a>
</g>
</g>
<!-- Node74&#45;&gt;Node75 -->
<g id="edge61" class="edge">
<title>Node74&#45;&gt;Node75</title>
<path fill="none" stroke="midnightblue" d="M2162.85,-309.46C2193.38,-296.9 2232.7,-280.72 2256.32,-271.01"/>
<polygon fill="midnightblue" stroke="midnightblue" points="2161.2,-306.35 2153.28,-313.4 2163.86,-312.83 2161.2,-306.35"/>
</g>
<!-- Node74&#45;&gt;Node76 -->
<g id="edge64" class="edge">
<title>Node74&#45;&gt;Node76</title>
<path fill="none" stroke="midnightblue" d="M2178.7,-313.07C2178.8,-313.04 2178.9,-313.02 2179,-313 2264.76,-294.69 2287.27,-295.47 2373,-277 2375.89,-276.38 2378.85,-275.72 2381.83,-275.04"/>
<polygon fill="midnightblue" stroke="midnightblue" points="2178.06,-309.62 2169.04,-315.19 2179.56,-316.46 2178.06,-309.62"/>
</g>
<!-- Node76&#45;&gt;Node18 -->
<g id="edge66" class="edge">
<title>Node76&#45;&gt;Node18</title>
<path fill="none" stroke="midnightblue" d="M2433.53,-236.24C2433.25,-217.55 2429.43,-192.68 2413,-179 2372.99,-145.69 1591.07,-132.19 1383.32,-129.18"/>
<polygon fill="midnightblue" stroke="midnightblue" points="2430.03,-236.33 2433.35,-246.39 2437.02,-236.45 2430.03,-236.33"/>
</g>
<!-- Node77 -->
<g id="node50" class="node">
<title>Node77</title>
<g id="a_node50"><a xlink:href="Z2SpeechMgr2_8cpp.html" target="_top" xlink:title=" ">
<polygon fill="white" stroke="black" points="2272.5,-179.5 2272.5,-209.5 2403.5,-209.5 2403.5,-179.5 2272.5,-179.5"/>
<text text-anchor="start" x="2280.5" y="-197.5" font-family="Helvetica,sans-Serif" font-size="10.00">libs/Z2AudioLib/Z2Speech</text>
<text text-anchor="middle" x="2338" y="-186.5" font-family="Helvetica,sans-Serif" font-size="10.00">Mgr2.cpp</text>
</a>
</g>
</g>
<!-- Node76&#45;&gt;Node77 -->
<g id="edge65" class="edge">
<title>Node76&#45;&gt;Node77</title>
<path fill="none" stroke="midnightblue" d="M2403.01,-240.45C2388.55,-230.45 2371.41,-218.6 2358.36,-209.58"/>
<polygon fill="midnightblue" stroke="midnightblue" points="2401.39,-243.59 2411.6,-246.4 2405.37,-237.83 2401.39,-243.59"/>
</g>
</g>
</svg>
