<?xml version="1.0" encoding="UTF-8" standalone="no"?>
<!DOCTYPE svg PUBLIC "-//W3C//DTD SVG 1.1//EN"
 "http://www.w3.org/Graphics/SVG/1.1/DTD/svg11.dtd">
<!-- Generated by graphviz version 2.49.3 (20211027.1534)
 -->
<!-- Title: include/JSystem/JUtility/JUTConsole.h Pages: 1 -->
<!--zoomable 173 -->
<svg id="main" version="1.1" xmlns="http://www.w3.org/2000/svg" xmlns:xlink="http://www.w3.org/1999/xlink" xml:space="preserve" onload="init(evt)">
<style type="text/css"><![CDATA[
.edge:hover path { stroke: red; }
.edge:hover polygon { stroke: red; fill: red; }
]]></style>
<script type="text/javascript"><![CDATA[
var edges = document.getElementsByTagName('g');
if (edges && edges.length) {
  for (var i=0;i<edges.length;i++) {
    if (edges[i].id.substr(0,4)=='edge') {
      edges[i].setAttribute('class','edge');
    }
  }
}
]]></script>
        <defs>
                <circle id="rim" cx="0" cy="0" r="7"/>
                <circle id="rim2" cx="0" cy="0" r="3.5"/>
                <g id="zoomPlus">
                        <use xlink:href="#rim" fill="#404040">
                                <set attributeName="fill" to="#808080" begin="zoomplus.mouseover" end="zoomplus.mouseout"/>
                        </use>
                        <path d="M-4,0h8M0,-4v8" fill="none" stroke="white" stroke-width="1.5" pointer-events="none"/>
                </g>
                <g id="zoomMin">
                        <use xlink:href="#rim" fill="#404040">
                                <set attributeName="fill" to="#808080" begin="zoomminus.mouseover" end="zoomminus.mouseout"/>
                        </use>
                        <path d="M-4,0h8" fill="none" stroke="white" stroke-width="1.5" pointer-events="none"/>
                </g>
                <g id="dirArrow">
                        <path fill="none" stroke="white" stroke-width="1.5" d="M0,-3.0v7 M-2.5,-0.5L0,-3.0L2.5,-0.5"/>
                </g>
               <g id="resetDef">
                       <use xlink:href="#rim2" fill="#404040">
                               <set attributeName="fill" to="#808080" begin="reset.mouseover" end="reset.mouseout"/>
                       </use>
               </g>
        </defs>

<script type="text/javascript">
var viewWidth = 1264;
var viewHeight = 173;
var sectionId = 'dynsection-1';
</script>
<script xlink:href="svgpan.js"/>
<svg id="graph" class="graph">
<g id="viewport">
<title>include/JSystem/JUtility/JUTConsole.h</title>
<polygon fill="white" stroke="transparent" points="-4,4 -4,-169 1259.5,-169 1259.5,4 -4,4"/>
<!-- Node1 -->
<g id="node1" class="node">
<title>Node1</title>
<g id="a_node1"><a xlink:title=" ">
<polygon fill="#bfbfbf" stroke="black" points="701.5,-134.5 701.5,-164.5 823.5,-164.5 823.5,-134.5 701.5,-134.5"/>
<text text-anchor="start" x="709.5" y="-152.5" font-family="Helvetica,sans-Serif" font-size="10.00">include/JSystem/JUtility</text>
<text text-anchor="middle" x="762.5" y="-141.5" font-family="Helvetica,sans-Serif" font-size="10.00">/JUTConsole.h</text>
</a>
</g>
</g>
<!-- Node2 -->
<g id="node2" class="node">
<title>Node2</title>
<g id="a_node2"><a xlink:href="JFWSystem_8h.html" target="_top" xlink:title=" ">
<polygon fill="white" stroke="black" points="293.5,-67.5 293.5,-97.5 439.5,-97.5 439.5,-67.5 293.5,-67.5"/>
<text text-anchor="start" x="301.5" y="-85.5" font-family="Helvetica,sans-Serif" font-size="10.00">include/JSystem/JFramework</text>
<text text-anchor="middle" x="366.5" y="-74.5" font-family="Helvetica,sans-Serif" font-size="10.00">/JFWSystem.h</text>
</a>
</g>
</g>
<!-- Node1&#45;&gt;Node2 -->
<g id="edge1" class="edge">
<title>Node1&#45;&gt;Node2</title>
<path fill="none" stroke="midnightblue" d="M691.44,-137.39C627.77,-127.37 531.83,-112.07 448.5,-98 445.65,-97.52 442.74,-97.02 439.81,-96.52"/>
<polygon fill="midnightblue" stroke="midnightblue" points="690.95,-140.86 701.38,-138.96 692.04,-133.95 690.95,-140.86"/>
</g>
<!-- Node6 -->
<g id="node6" class="node">
<title>Node6</title>
<g id="a_node6"><a xlink:href="m__Do__machine__exception_8cpp.html" target="_top" xlink:title=" ">
<polygon fill="white" stroke="black" points="0,-0.5 0,-30.5 129,-30.5 129,-0.5 0,-0.5"/>
<text text-anchor="start" x="8" y="-18.5" font-family="Helvetica,sans-Serif" font-size="10.00">src/m_Do/m_Do_machine</text>
<text text-anchor="middle" x="64.5" y="-7.5" font-family="Helvetica,sans-Serif" font-size="10.00">_exception.cpp</text>
</a>
</g>
</g>
<!-- Node1&#45;&gt;Node6 -->
<g id="edge18" class="edge">
<title>Node1&#45;&gt;Node6</title>
<path fill="none" stroke="midnightblue" d="M691.05,-146.5C596.79,-142.6 426.25,-131.19 284.5,-98 214.7,-81.66 136.89,-49.26 95.08,-30.61"/>
<polygon fill="midnightblue" stroke="midnightblue" points="691.19,-150 701.33,-146.9 691.47,-143.01 691.19,-150"/>
</g>
<!-- Node8 -->
<g id="node8" class="node">
<title>Node8</title>
<g id="a_node8"><a xlink:href="m__Do__machine_8h.html" target="_top" xlink:title=" ">
<polygon fill="white" stroke="black" points="457.5,-73 457.5,-92 611.5,-92 611.5,-73 457.5,-73"/>
<text text-anchor="middle" x="534.5" y="-80" font-family="Helvetica,sans-Serif" font-size="10.00">include/m_Do/m_Do_machine.h</text>
</a>
</g>
</g>
<!-- Node1&#45;&gt;Node8 -->
<g id="edge7" class="edge">
<title>Node1&#45;&gt;Node8</title>
<path fill="none" stroke="midnightblue" d="M703.47,-131.67C658.91,-118.97 599.62,-102.06 564.42,-92.03"/>
<polygon fill="midnightblue" stroke="midnightblue" points="702.73,-135.1 713.31,-134.48 704.65,-128.37 702.73,-135.1"/>
</g>
<!-- Node11 -->
<g id="node11" class="node">
<title>Node11</title>
<g id="a_node11"><a xlink:href="JFWDisplay_8cpp.html" target="_top" xlink:title=" ">
<polygon fill="white" stroke="black" points="629.5,-67.5 629.5,-97.5 759.5,-97.5 759.5,-67.5 629.5,-67.5"/>
<text text-anchor="start" x="637.5" y="-85.5" font-family="Helvetica,sans-Serif" font-size="10.00">libs/JSystem/JFramework</text>
<text text-anchor="middle" x="694.5" y="-74.5" font-family="Helvetica,sans-Serif" font-size="10.00">/JFWDisplay.cpp</text>
</a>
</g>
</g>
<!-- Node1&#45;&gt;Node11 -->
<g id="edge13" class="edge">
<title>Node1&#45;&gt;Node11</title>
<path fill="none" stroke="midnightblue" d="M740.33,-127.31C730.13,-117.56 718.31,-106.26 709.23,-97.58"/>
<polygon fill="midnightblue" stroke="midnightblue" points="738.1,-130.02 747.75,-134.4 742.93,-124.96 738.1,-130.02"/>
</g>
<!-- Node12 -->
<g id="node12" class="node">
<title>Node12</title>
<g id="a_node12"><a xlink:href="JUTConsole_8cpp.html" target="_top" xlink:title=" ">
<polygon fill="white" stroke="black" points="777.5,-67.5 777.5,-97.5 883.5,-97.5 883.5,-67.5 777.5,-67.5"/>
<text text-anchor="start" x="785.5" y="-85.5" font-family="Helvetica,sans-Serif" font-size="10.00">libs/JSystem/JUtility</text>
<text text-anchor="middle" x="830.5" y="-74.5" font-family="Helvetica,sans-Serif" font-size="10.00">/JUTConsole.cpp</text>
</a>
</g>
</g>
<!-- Node1&#45;&gt;Node12 -->
<g id="edge14" class="edge">
<title>Node1&#45;&gt;Node12</title>
<path fill="none" stroke="midnightblue" d="M784.67,-127.31C794.87,-117.56 806.69,-106.26 815.77,-97.58"/>
<polygon fill="midnightblue" stroke="midnightblue" points="782.07,-124.96 777.25,-134.4 786.9,-130.02 782.07,-124.96"/>
</g>
<!-- Node13 -->
<g id="node13" class="node">
<title>Node13</title>
<g id="a_node13"><a xlink:href="JUTException_8cpp.html" target="_top" xlink:title=" ">
<polygon fill="white" stroke="black" points="901.5,-67.5 901.5,-97.5 1007.5,-97.5 1007.5,-67.5 901.5,-67.5"/>
<text text-anchor="start" x="909.5" y="-85.5" font-family="Helvetica,sans-Serif" font-size="10.00">libs/JSystem/JUtility</text>
<text text-anchor="middle" x="954.5" y="-74.5" font-family="Helvetica,sans-Serif" font-size="10.00">/JUTException.cpp</text>
</a>
</g>
</g>
<!-- Node1&#45;&gt;Node13 -->
<g id="edge15" class="edge">
<title>Node1&#45;&gt;Node13</title>
<path fill="none" stroke="midnightblue" d="M813.92,-131.09C844.92,-120.6 883.88,-107.41 912.92,-97.58"/>
<polygon fill="midnightblue" stroke="midnightblue" points="812.51,-127.87 804.16,-134.4 814.76,-134.5 812.51,-127.87"/>
</g>
<!-- Node14 -->
<g id="node14" class="node">
<title>Node14</title>
<g id="a_node14"><a xlink:href="DynamicLink_8cpp.html" target="_top" xlink:title=" ">
<polygon fill="white" stroke="black" points="1025,-73 1025,-92 1132,-92 1132,-73 1025,-73"/>
<text text-anchor="middle" x="1078.5" y="-80" font-family="Helvetica,sans-Serif" font-size="10.00">src/DynamicLink.cpp</text>
</a>
</g>
</g>
<!-- Node1&#45;&gt;Node14 -->
<g id="edge16" class="edge">
<title>Node1&#45;&gt;Node14</title>
<path fill="none" stroke="midnightblue" d="M833.63,-135.02C884.62,-125.19 954.91,-111.32 1016.5,-98 1025.04,-96.15 1034.21,-94.07 1042.81,-92.06"/>
<polygon fill="midnightblue" stroke="midnightblue" points="832.85,-131.6 823.69,-136.93 834.17,-138.48 832.85,-131.6"/>
</g>
<!-- Node15 -->
<g id="node15" class="node">
<title>Node15</title>
<g id="a_node15"><a xlink:href="d__s__play_8cpp.html" target="_top" xlink:title=" ">
<polygon fill="white" stroke="black" points="1149.5,-73 1149.5,-92 1255.5,-92 1255.5,-73 1149.5,-73"/>
<text text-anchor="middle" x="1202.5" y="-80" font-family="Helvetica,sans-Serif" font-size="10.00">src/d/s/d_s_play.cpp</text>
</a>
</g>
</g>
<!-- Node1&#45;&gt;Node15 -->
<g id="edge17" class="edge">
<title>Node1&#45;&gt;Node15</title>
<path fill="none" stroke="midnightblue" d="M833.51,-141.2C909.92,-132.85 1034.84,-117.73 1141.5,-98 1150.6,-96.32 1160.38,-94.15 1169.39,-92.01"/>
<polygon fill="midnightblue" stroke="midnightblue" points="833.08,-137.73 823.52,-142.29 833.84,-144.69 833.08,-137.73"/>
</g>
<!-- Node3 -->
<g id="node3" class="node">
<title>Node3</title>
<g id="a_node3"><a xlink:href="JFWSystem_8cpp.html" target="_top" xlink:title=" ">
<polygon fill="white" stroke="black" points="147.5,-0.5 147.5,-30.5 277.5,-30.5 277.5,-0.5 147.5,-0.5"/>
<text text-anchor="start" x="155.5" y="-18.5" font-family="Helvetica,sans-Serif" font-size="10.00">libs/JSystem/JFramework</text>
<text text-anchor="middle" x="212.5" y="-7.5" font-family="Helvetica,sans-Serif" font-size="10.00">/JFWSystem.cpp</text>
</a>
</g>
</g>
<!-- Node2&#45;&gt;Node3 -->
<g id="edge2" class="edge">
<title>Node2&#45;&gt;Node3</title>
<path fill="none" stroke="midnightblue" d="M323.63,-63.41C299.05,-53.03 268.64,-40.2 245.85,-30.58"/>
<polygon fill="midnightblue" stroke="midnightblue" points="322.51,-66.73 333.08,-67.4 325.23,-60.28 322.51,-66.73"/>
</g>
<!-- Node4 -->
<g id="node4" class="node">
<title>Node4</title>
<g id="a_node4"><a xlink:href="m__Do__graphic_8cpp.html" target="_top" xlink:title=" ">
<polygon fill="white" stroke="black" points="295.5,-6 295.5,-25 437.5,-25 437.5,-6 295.5,-6"/>
<text text-anchor="middle" x="366.5" y="-13" font-family="Helvetica,sans-Serif" font-size="10.00">src/m_Do/m_Do_graphic.cpp</text>
</a>
</g>
</g>
<!-- Node2&#45;&gt;Node4 -->
<g id="edge3" class="edge">
<title>Node2&#45;&gt;Node4</title>
<path fill="none" stroke="midnightblue" d="M366.5,-57.25C366.5,-46.02 366.5,-33.38 366.5,-25.19"/>
<polygon fill="midnightblue" stroke="midnightblue" points="363,-57.4 366.5,-67.4 370,-57.4 363,-57.4"/>
</g>
<!-- Node5 -->
<g id="node5" class="node">
<title>Node5</title>
<g id="a_node5"><a xlink:href="m__Do__machine_8cpp.html" target="_top" xlink:title=" ">
<polygon fill="white" stroke="black" points="456,-6 456,-25 603,-25 603,-6 456,-6"/>
<text text-anchor="middle" x="529.5" y="-13" font-family="Helvetica,sans-Serif" font-size="10.00">src/m_Do/m_Do_machine.cpp</text>
</a>
</g>
</g>
<!-- Node2&#45;&gt;Node5 -->
<g id="edge4" class="edge">
<title>Node2&#45;&gt;Node5</title>
<path fill="none" stroke="midnightblue" d="M411.33,-63.62C442.88,-51.04 483.69,-34.77 508.17,-25.01"/>
<polygon fill="midnightblue" stroke="midnightblue" points="409.86,-60.44 401.87,-67.4 412.45,-66.94 409.86,-60.44"/>
</g>
<!-- Node2&#45;&gt;Node6 -->
<g id="edge5" class="edge">
<title>Node2&#45;&gt;Node6</title>
<path fill="none" stroke="midnightblue" d="M291.56,-65.37C241.62,-54.62 176.66,-40.64 129.02,-30.39"/>
<polygon fill="midnightblue" stroke="midnightblue" points="290.83,-68.79 301.34,-67.48 292.3,-61.95 290.83,-68.79"/>
</g>
<!-- Node7 -->
<g id="node7" class="node">
<title>Node7</title>
<g id="a_node7"><a xlink:href="m__Do__main_8cpp.html" target="_top" xlink:title=" ">
<polygon fill="white" stroke="black" points="621,-6 621,-25 752,-25 752,-6 621,-6"/>
<text text-anchor="middle" x="686.5" y="-13" font-family="Helvetica,sans-Serif" font-size="10.00">src/m_Do/m_Do_main.cpp</text>
</a>
</g>
</g>
<!-- Node2&#45;&gt;Node7 -->
<g id="edge6" class="edge">
<title>Node2&#45;&gt;Node7</title>
<path fill="none" stroke="midnightblue" d="M445.44,-65.47C508.38,-52.68 594.07,-35.27 644.51,-25.03"/>
<polygon fill="midnightblue" stroke="midnightblue" points="444.64,-62.06 435.54,-67.48 446.04,-68.92 444.64,-62.06"/>
</g>
<!-- Node8&#45;&gt;Node4 -->
<g id="edge10" class="edge">
<title>Node8&#45;&gt;Node4</title>
<path fill="none" stroke="midnightblue" d="M502.46,-69.1C469.11,-56.2 417.75,-36.33 388.63,-25.06"/>
<polygon fill="midnightblue" stroke="midnightblue" points="501.6,-72.52 512.19,-72.87 504.13,-66 501.6,-72.52"/>
</g>
<!-- Node8&#45;&gt;Node5 -->
<g id="edge11" class="edge">
<title>Node8&#45;&gt;Node5</title>
<path fill="none" stroke="midnightblue" d="M533.04,-62.54C532.09,-50.17 530.89,-34.62 530.16,-25.13"/>
<polygon fill="midnightblue" stroke="midnightblue" points="529.57,-63.03 533.83,-72.73 536.55,-62.49 529.57,-63.03"/>
</g>
<!-- Node8&#45;&gt;Node7 -->
<g id="edge12" class="edge">
<title>Node8&#45;&gt;Node7</title>
<path fill="none" stroke="midnightblue" d="M564.24,-68.78C594.34,-55.91 640.07,-36.35 666.23,-25.17"/>
<polygon fill="midnightblue" stroke="midnightblue" points="562.5,-65.72 554.68,-72.87 565.26,-72.15 562.5,-65.72"/>
</g>
<!-- Node9 -->
<g id="node9" class="node">
<title>Node9</title>
<g id="a_node9"><a xlink:href="d__s__logo_8cpp.html" target="_top" xlink:title=" ">
<polygon fill="white" stroke="black" points="901,-6 901,-25 1008,-25 1008,-6 901,-6"/>
<text text-anchor="middle" x="954.5" y="-13" font-family="Helvetica,sans-Serif" font-size="10.00">src/d/s/d_s_logo.cpp</text>
</a>
</g>
</g>
<!-- Node8&#45;&gt;Node9 -->
<g id="edge8" class="edge">
<title>Node8&#45;&gt;Node9</title>
<path fill="none" stroke="midnightblue" d="M592.98,-71.35C602.18,-69.84 611.59,-68.34 620.5,-67 741.09,-48.86 772.54,-52.91 892.5,-31 901.74,-29.31 911.68,-27.15 920.84,-25.01"/>
<polygon fill="midnightblue" stroke="midnightblue" points="592.41,-67.9 583.12,-72.99 593.56,-74.81 592.41,-67.9"/>
</g>
<!-- Node10 -->
<g id="node10" class="node">
<title>Node10</title>
<g id="a_node10"><a xlink:href="d__s__name_8cpp.html" target="_top" xlink:title=" ">
<polygon fill="white" stroke="black" points="770,-6 770,-25 883,-25 883,-6 770,-6"/>
<text text-anchor="middle" x="826.5" y="-13" font-family="Helvetica,sans-Serif" font-size="10.00">src/d/s/d_s_name.cpp</text>
</a>
</g>
</g>
<!-- Node8&#45;&gt;Node10 -->
<g id="edge9" class="edge">
<title>Node8&#45;&gt;Node10</title>
<path fill="none" stroke="midnightblue" d="M583.05,-70.71C629.01,-60.49 699.95,-44.71 761.5,-31 770.19,-29.06 779.53,-26.98 788.35,-25.01"/>
<polygon fill="midnightblue" stroke="midnightblue" points="582.06,-67.34 573.06,-72.93 583.58,-74.18 582.06,-67.34"/>
</g>
</g>
</svg>
        <g id="navigator" transform="translate(0 0)" fill="#404254">
                <rect fill="#f2f5e9" fill-opacity="0.5" stroke="#606060" stroke-width=".5" x="0" y="0" width="60" height="60"/>
                <use id="zoomplus" xlink:href="#zoomPlus" x="17" y="9" onmousedown="handleZoom(evt,'in')"/>
                <use id="zoomminus" xlink:href="#zoomMin" x="42" y="9" onmousedown="handleZoom(evt,'out')"/>
                <use id="reset" xlink:href="#resetDef" x="30" y="36" onmousedown="handleReset()"/>
                <g id="arrowUp" xlink:href="#dirArrow" transform="translate(30 24)" onmousedown="handlePan(0,-1)">
                  <use xlink:href="#rim" fill="#404040">
                        <set attributeName="fill" to="#808080" begin="arrowUp.mouseover" end="arrowUp.mouseout"/>
                  </use>
                  <path fill="none" stroke="white" stroke-width="1.5" d="M0,-3.0v7 M-2.5,-0.5L0,-3.0L2.5,-0.5"/>
                </g>
                <g id="arrowRight" xlink:href="#dirArrow" transform="rotate(90) translate(36 -43)" onmousedown="handlePan(1,0)">
                  <use xlink:href="#rim" fill="#404040">
                        <set attributeName="fill" to="#808080" begin="arrowRight.mouseover" end="arrowRight.mouseout"/>
                  </use>
                  <path fill="none" stroke="white" stroke-width="1.5" d="M0,-3.0v7 M-2.5,-0.5L0,-3.0L2.5,-0.5"/>
                </g>
                <g id="arrowDown" xlink:href="#dirArrow" transform="rotate(180) translate(-30 -48)" onmousedown="handlePan(0,1)">
                  <use xlink:href="#rim" fill="#404040">
                        <set attributeName="fill" to="#808080" begin="arrowDown.mouseover" end="arrowDown.mouseout"/>
                  </use>
                  <path fill="none" stroke="white" stroke-width="1.5" d="M0,-3.0v7 M-2.5,-0.5L0,-3.0L2.5,-0.5"/>
                </g>
                <g id="arrowLeft" xlink:href="#dirArrow" transform="rotate(270) translate(-36 17)" onmousedown="handlePan(-1,0)">
                  <use xlink:href="#rim" fill="#404040">
                        <set attributeName="fill" to="#808080" begin="arrowLeft.mouseover" end="arrowLeft.mouseout"/>
                  </use>
                  <path fill="none" stroke="white" stroke-width="1.5" d="M0,-3.0v7 M-2.5,-0.5L0,-3.0L2.5,-0.5"/>
                </g>
        </g>
        <svg viewBox="0 0 15 15" width="100%" height="30px" preserveAspectRatio="xMaxYMin meet">
         <g id="arrow_out" transform="scale(0.3 0.3)">
          <a xlink:href="JUTConsole_8h__dep__incl_org.svg" target="_base">
           <rect id="button" ry="5" rx="5" y="6" x="6" height="38" width="38"
                fill="#f2f5e9" fill-opacity="0.5" stroke="#606060" stroke-width="1.0"/>
           <path id="arrow"
             d="M 11.500037,31.436501 C 11.940474,20.09759 22.043105,11.32322 32.158766,21.979434 L 37.068811,17.246167 C 37.068811,17.246167 37.088388,32 37.088388,32 L 22.160133,31.978069 C 22.160133,31.978069 26.997745,27.140456 26.997745,27.140456 C 18.528582,18.264221 13.291696,25.230495 11.500037,31.436501 z"
             style="fill:#404040;"/>
          </a>
         </g>
        </svg>
</svg>
