<?xml version="1.0" encoding="UTF-8" standalone="no"?>
<!DOCTYPE svg PUBLIC "-//W3C//DTD SVG 1.1//EN"
 "http://www.w3.org/Graphics/SVG/1.1/DTD/svg11.dtd">
<!-- Generated by graphviz version 3.0.0 (20220413.0242)
 -->
<!-- Title: include/JSystem/JUtility/JUTDirectPrint.h Pages: 1 -->
<svg width="860pt" height="386pt"
 viewBox="0.00 0.00 860.00 386.00" xmlns="http://www.w3.org/2000/svg" xmlns:xlink="http://www.w3.org/1999/xlink">
<g id="graph0" class="graph" transform="scale(1 1) rotate(0) translate(4 382)">
<title>include/JSystem/JUtility/JUTDirectPrint.h</title>
<polygon fill="white" stroke="transparent" points="-4,4 -4,-382 856,-382 856,4 -4,4"/>
<!-- Node1 -->
<g id="node1" class="node">
<title>Node1</title>
<g id="a_node1"><a xlink:title=" ">
<polygon fill="#bfbfbf" stroke="black" points="653,-347.5 653,-377.5 775,-377.5 775,-347.5 653,-347.5"/>
<text text-anchor="start" x="661" y="-365.5" font-family="Helvetica,sans-Serif" font-size="10.00">include/JSystem/JUtility</text>
<text text-anchor="middle" x="714" y="-354.5" font-family="Helvetica,sans-Serif" font-size="10.00">/JUTDirectPrint.h</text>
</a>
</g>
</g>
<!-- Node2 -->
<g id="node2" class="node">
<title>Node2</title>
<g id="a_node2"><a xlink:href="TColor_8h.html" target="_top" xlink:title=" ">
<polygon fill="white" stroke="black" points="558.5,-291.5 558.5,-310.5 685.5,-310.5 685.5,-291.5 558.5,-291.5"/>
<text text-anchor="middle" x="622" y="-298.5" font-family="Helvetica,sans-Serif" font-size="10.00">JSystem/JUtility/TColor.h</text>
</a>
</g>
</g>
<!-- Node1&#45;&gt;Node2 -->
<g id="edge1" class="edge">
<title>Node1&#45;&gt;Node2</title>
<path fill="none" stroke="midnightblue" d="M692.2,-347.4C677.59,-337.95 658.43,-325.56 643.82,-316.11"/>
<polygon fill="midnightblue" stroke="midnightblue" points="645.68,-313.15 635.39,-310.66 641.88,-319.03 645.68,-313.15"/>
</g>
<!-- Node5 -->
<g id="node5" class="node">
<title>Node5</title>
<g id="a_node5"><a xlink:href="types_8h.html" target="_top" xlink:title=" ">
<polygon fill="white" stroke="black" points="388.5,-0.5 388.5,-19.5 469.5,-19.5 469.5,-0.5 388.5,-0.5"/>
<text text-anchor="middle" x="429" y="-7.5" font-family="Helvetica,sans-Serif" font-size="10.00">dolphin/types.h</text>
</a>
</g>
</g>
<!-- Node1&#45;&gt;Node5 -->
<g id="edge26" class="edge">
<title>Node1&#45;&gt;Node5</title>
<path fill="none" stroke="midnightblue" d="M714,-347.34C714,-324.75 714,-279.15 714,-240.5 714,-240.5 714,-240.5 714,-121 714,-85.35 697.09,-75.11 667,-56 636.55,-36.66 540.01,-23.03 479.65,-16.14"/>
<polygon fill="midnightblue" stroke="midnightblue" points="479.88,-12.65 469.55,-15.02 479.1,-19.61 479.88,-12.65"/>
</g>
<!-- Node13 -->
<g id="node13" class="node">
<title>Node13</title>
<g id="a_node13"><a xlink:href="____va__arg_8h.html" target="_top" xlink:title=" ">
<polygon fill="white" stroke="black" points="742,-224.5 742,-254.5 852,-254.5 852,-224.5 742,-224.5"/>
<text text-anchor="start" x="750" y="-242.5" font-family="Helvetica,sans-Serif" font-size="10.00">Runtime.PPCEABI.H/</text>
<text text-anchor="middle" x="797" y="-231.5" font-family="Helvetica,sans-Serif" font-size="10.00">__va_arg.h</text>
</a>
</g>
</g>
<!-- Node1&#45;&gt;Node13 -->
<g id="edge24" class="edge">
<title>Node1&#45;&gt;Node13</title>
<path fill="none" stroke="midnightblue" d="M723.85,-347.14C738.07,-326.4 764.52,-287.85 781.41,-263.22"/>
<polygon fill="midnightblue" stroke="midnightblue" points="784.4,-265.06 787.17,-254.84 778.62,-261.1 784.4,-265.06"/>
</g>
<!-- Node3 -->
<g id="node3" class="node">
<title>Node3</title>
<g id="a_node3"><a xlink:href="GX_8h.html" target="_top" xlink:title=" ">
<polygon fill="white" stroke="black" points="374.5,-230 374.5,-249 459.5,-249 459.5,-230 374.5,-230"/>
<text text-anchor="middle" x="417" y="-237" font-family="Helvetica,sans-Serif" font-size="10.00">dolphin/gx/GX.h</text>
</a>
</g>
</g>
<!-- Node2&#45;&gt;Node3 -->
<g id="edge2" class="edge">
<title>Node2&#45;&gt;Node3</title>
<path fill="none" stroke="midnightblue" d="M592.63,-291.48C556.7,-281.05 495.77,-263.36 455.96,-251.81"/>
<polygon fill="midnightblue" stroke="midnightblue" points="456.9,-248.44 446.32,-249.01 454.95,-255.16 456.9,-248.44"/>
</g>
<!-- Node2&#45;&gt;Node5 -->
<g id="edge23" class="edge">
<title>Node2&#45;&gt;Node5</title>
<path fill="none" stroke="midnightblue" d="M628.84,-291.48C643.37,-272.5 676,-224.78 676,-179 676,-179 676,-179 676,-121 676,-35.88 552.07,-16.15 479.78,-11.89"/>
<polygon fill="midnightblue" stroke="midnightblue" points="479.68,-8.38 469.51,-11.37 479.32,-15.37 479.68,-8.38"/>
</g>
<!-- Node4 -->
<g id="node4" class="node">
<title>Node4</title>
<g id="a_node4"><a xlink:href="GXDisplayList_8h.html" target="_top" xlink:title=" ">
<polygon fill="white" stroke="black" points="476.5,-56.5 476.5,-75.5 609.5,-75.5 609.5,-56.5 476.5,-56.5"/>
<text text-anchor="middle" x="543" y="-63.5" font-family="Helvetica,sans-Serif" font-size="10.00">dolphin/gx/GXDisplayList.h</text>
</a>
</g>
</g>
<!-- Node3&#45;&gt;Node4 -->
<g id="edge3" class="edge">
<title>Node3&#45;&gt;Node4</title>
<path fill="none" stroke="midnightblue" d="M454.83,-229.98C478.09,-222.74 506.52,-209.91 523,-188 545.65,-157.9 546.54,-111.62 544.94,-85.89"/>
<polygon fill="midnightblue" stroke="midnightblue" points="548.4,-85.33 544.09,-75.65 541.43,-85.91 548.4,-85.33"/>
</g>
<!-- Node3&#45;&gt;Node5 -->
<g id="edge21" class="edge">
<title>Node3&#45;&gt;Node5</title>
<path fill="none" stroke="midnightblue" d="M453.95,-229.99C480.82,-222.39 516.91,-209.14 543,-188 595.43,-145.52 659.82,-108.95 618,-56 601.03,-34.52 529.6,-22.19 479.59,-16.04"/>
<polygon fill="midnightblue" stroke="midnightblue" points="479.93,-12.55 469.58,-14.85 479.1,-19.5 479.93,-12.55"/>
</g>
<!-- Node6 -->
<g id="node6" class="node">
<title>Node6</title>
<g id="a_node6"><a xlink:href="GXStruct_8h.html" target="_top" xlink:title=" ">
<polygon fill="white" stroke="black" points="403.5,-168.5 403.5,-187.5 514.5,-187.5 514.5,-168.5 403.5,-168.5"/>
<text text-anchor="middle" x="459" y="-175.5" font-family="Helvetica,sans-Serif" font-size="10.00">dolphin/gx/GXStruct.h</text>
</a>
</g>
</g>
<!-- Node3&#45;&gt;Node6 -->
<g id="edge5" class="edge">
<title>Node3&#45;&gt;Node6</title>
<path fill="none" stroke="midnightblue" d="M423.02,-229.98C429.26,-221.14 439.17,-207.09 447.02,-195.98"/>
<polygon fill="midnightblue" stroke="midnightblue" points="450.09,-197.7 452.99,-187.51 444.37,-193.66 450.09,-197.7"/>
</g>
<!-- Node7 -->
<g id="node7" class="node">
<title>Node7</title>
<g id="a_node7"><a xlink:href="global_8h.html" target="_top" xlink:title=" ">
<polygon fill="white" stroke="black" points="385,-112.5 385,-131.5 435,-131.5 435,-112.5 385,-112.5"/>
<text text-anchor="middle" x="410" y="-119.5" font-family="Helvetica,sans-Serif" font-size="10.00">global.h</text>
</a>
</g>
</g>
<!-- Node3&#45;&gt;Node7 -->
<g id="edge22" class="edge">
<title>Node3&#45;&gt;Node7</title>
<path fill="none" stroke="midnightblue" d="M411.73,-229.96C406.06,-220.22 397.39,-203.63 394,-188 390.54,-172.05 395.69,-154.03 401.05,-141.02"/>
<polygon fill="midnightblue" stroke="midnightblue" points="404.29,-142.35 405.23,-131.8 397.91,-139.46 404.29,-142.35"/>
</g>
<!-- Node8 -->
<g id="node8" class="node">
<title>Node8</title>
<g id="a_node8"><a xlink:href="GXEnum_8h.html" target="_top" xlink:title=" ">
<polygon fill="white" stroke="black" points="0,-56.5 0,-75.5 110,-75.5 110,-56.5 0,-56.5"/>
<text text-anchor="middle" x="55" y="-63.5" font-family="Helvetica,sans-Serif" font-size="10.00">dolphin/gx/GXEnum.h</text>
</a>
</g>
</g>
<!-- Node3&#45;&gt;Node8 -->
<g id="edge9" class="edge">
<title>Node3&#45;&gt;Node8</title>
<path fill="none" stroke="midnightblue" d="M374.44,-232.02C289.01,-218.07 101.62,-182.3 64,-132 54.09,-118.75 52.53,-99.63 53.03,-85.55"/>
<polygon fill="midnightblue" stroke="midnightblue" points="56.52,-85.78 53.76,-75.55 49.54,-85.27 56.52,-85.78"/>
</g>
<!-- Node9 -->
<g id="node9" class="node">
<title>Node9</title>
<g id="a_node9"><a xlink:href="mtx_8h.html" target="_top" xlink:title=" ">
<polygon fill="white" stroke="black" points="235,-168.5 235,-187.5 327,-187.5 327,-168.5 235,-168.5"/>
<text text-anchor="middle" x="281" y="-175.5" font-family="Helvetica,sans-Serif" font-size="10.00">dolphin/mtx/mtx.h</text>
</a>
</g>
</g>
<!-- Node3&#45;&gt;Node9 -->
<g id="edge11" class="edge">
<title>Node3&#45;&gt;Node9</title>
<path fill="none" stroke="midnightblue" d="M397.51,-229.98C374.59,-219.95 336.31,-203.2 309.92,-191.65"/>
<polygon fill="midnightblue" stroke="midnightblue" points="311.01,-188.31 300.45,-187.51 308.21,-194.72 311.01,-188.31"/>
</g>
<!-- Node10 -->
<g id="node10" class="node">
<title>Node10</title>
<g id="a_node10"><a xlink:href="mtx44_8h.html" target="_top" xlink:title=" ">
<polygon fill="white" stroke="black" points="73.5,-112.5 73.5,-131.5 176.5,-131.5 176.5,-112.5 73.5,-112.5"/>
<text text-anchor="middle" x="125" y="-119.5" font-family="Helvetica,sans-Serif" font-size="10.00">dolphin/mtx/mtx44.h</text>
</a>
</g>
</g>
<!-- Node3&#45;&gt;Node10 -->
<g id="edge20" class="edge">
<title>Node3&#45;&gt;Node10</title>
<path fill="none" stroke="midnightblue" d="M374.37,-231.21C334.79,-223.52 274.8,-209.51 226,-188 195.39,-174.51 163.48,-152.4 143.92,-137.77"/>
<polygon fill="midnightblue" stroke="midnightblue" points="145.93,-134.9 135.85,-131.64 141.69,-140.47 145.93,-134.9"/>
</g>
<!-- Node4&#45;&gt;Node5 -->
<g id="edge4" class="edge">
<title>Node4&#45;&gt;Node5</title>
<path fill="none" stroke="midnightblue" d="M524.94,-56.44C506.43,-47.68 477.42,-33.94 456.14,-23.86"/>
<polygon fill="midnightblue" stroke="midnightblue" points="457.51,-20.63 446.98,-19.52 454.52,-26.96 457.51,-20.63"/>
</g>
<!-- Node6&#45;&gt;Node5 -->
<g id="edge6" class="edge">
<title>Node6&#45;&gt;Node5</title>
<path fill="none" stroke="midnightblue" d="M457.39,-168.08C452.66,-141.95 438.8,-65.21 432.36,-29.58"/>
<polygon fill="midnightblue" stroke="midnightblue" points="435.77,-28.79 430.55,-19.57 428.88,-30.03 435.77,-28.79"/>
</g>
<!-- Node6&#45;&gt;Node7 -->
<g id="edge7" class="edge">
<title>Node6&#45;&gt;Node7</title>
<path fill="none" stroke="midnightblue" d="M450.91,-168.08C443.84,-160.3 433.41,-148.8 424.85,-139.37"/>
<polygon fill="midnightblue" stroke="midnightblue" points="427.25,-136.8 417.94,-131.75 422.07,-141.51 427.25,-136.8"/>
</g>
<!-- Node7&#45;&gt;Node5 -->
<g id="edge8" class="edge">
<title>Node7&#45;&gt;Node5</title>
<path fill="none" stroke="midnightblue" d="M411.49,-112.37C414.56,-94.62 421.63,-53.67 425.79,-29.6"/>
<polygon fill="midnightblue" stroke="midnightblue" points="429.26,-30.04 427.52,-19.59 422.36,-28.85 429.26,-30.04"/>
</g>
<!-- Node8&#45;&gt;Node5 -->
<g id="edge10" class="edge">
<title>Node8&#45;&gt;Node5</title>
<path fill="none" stroke="midnightblue" d="M110.18,-57.03C182.52,-46.59 308.39,-28.41 378.39,-18.31"/>
<polygon fill="midnightblue" stroke="midnightblue" points="378.9,-21.77 388.29,-16.88 377.9,-14.84 378.9,-21.77"/>
</g>
<!-- Node9&#45;&gt;Node5 -->
<g id="edge19" class="edge">
<title>Node9&#45;&gt;Node5</title>
<path fill="none" stroke="midnightblue" d="M262.92,-168.39C249.44,-160.87 232.03,-148.57 224,-132 206.78,-96.47 236.96,-77.62 270,-56 302.63,-34.65 345.44,-23.28 378.42,-17.32"/>
<polygon fill="midnightblue" stroke="midnightblue" points="379.04,-20.76 388.31,-15.64 377.87,-13.86 379.04,-20.76"/>
</g>
<!-- Node9&#45;&gt;Node10 -->
<g id="edge12" class="edge">
<title>Node9&#45;&gt;Node10</title>
<path fill="none" stroke="midnightblue" d="M256.28,-168.44C230.15,-159.4 188.74,-145.06 159.42,-134.92"/>
<polygon fill="midnightblue" stroke="midnightblue" points="160.2,-131.48 149.6,-131.52 157.91,-138.1 160.2,-131.48"/>
</g>
<!-- Node11 -->
<g id="node11" class="node">
<title>Node11</title>
<g id="a_node11"><a xlink:href="quat_8h.html" target="_top" xlink:title=" ">
<polygon fill="white" stroke="black" points="233.5,-112.5 233.5,-131.5 328.5,-131.5 328.5,-112.5 233.5,-112.5"/>
<text text-anchor="middle" x="281" y="-119.5" font-family="Helvetica,sans-Serif" font-size="10.00">dolphin/mtx/quat.h</text>
</a>
</g>
</g>
<!-- Node9&#45;&gt;Node11 -->
<g id="edge14" class="edge">
<title>Node9&#45;&gt;Node11</title>
<path fill="none" stroke="midnightblue" d="M281,-168.08C281,-161.01 281,-150.86 281,-141.99"/>
<polygon fill="midnightblue" stroke="midnightblue" points="284.5,-141.75 281,-131.75 277.5,-141.75 284.5,-141.75"/>
</g>
<!-- Node12 -->
<g id="node12" class="node">
<title>Node12</title>
<g id="a_node12"><a xlink:href="vec_8h.html" target="_top" xlink:title=" ">
<polygon fill="white" stroke="black" points="290,-56.5 290,-75.5 382,-75.5 382,-56.5 290,-56.5"/>
<text text-anchor="middle" x="336" y="-63.5" font-family="Helvetica,sans-Serif" font-size="10.00">dolphin/mtx/vec.h</text>
</a>
</g>
</g>
<!-- Node9&#45;&gt;Node12 -->
<g id="edge18" class="edge">
<title>Node9&#45;&gt;Node12</title>
<path fill="none" stroke="midnightblue" d="M298.5,-168.46C311.79,-160.92 329.08,-148.53 337,-132 343.94,-117.53 342.86,-99.08 340.53,-85.54"/>
<polygon fill="midnightblue" stroke="midnightblue" points="343.91,-84.58 338.43,-75.51 337.05,-86.02 343.91,-84.58"/>
</g>
<!-- Node10&#45;&gt;Node5 -->
<g id="edge13" class="edge">
<title>Node10&#45;&gt;Node5</title>
<path fill="none" stroke="midnightblue" d="M131.16,-112.19C141.67,-97.9 164.5,-69.87 191,-56 250.3,-24.95 327.87,-15.12 378.07,-12.12"/>
<polygon fill="midnightblue" stroke="midnightblue" points="378.54,-15.6 388.35,-11.58 378.18,-8.61 378.54,-15.6"/>
</g>
<!-- Node11&#45;&gt;Node5 -->
<g id="edge17" class="edge">
<title>Node11&#45;&gt;Node5</title>
<path fill="none" stroke="midnightblue" d="M278.07,-112.43C274.05,-98.96 268.64,-72.68 281,-56 303.17,-26.08 344.74,-15.37 378.2,-11.84"/>
<polygon fill="midnightblue" stroke="midnightblue" points="378.63,-15.32 388.29,-10.96 378.02,-8.34 378.63,-15.32"/>
</g>
<!-- Node11&#45;&gt;Node12 -->
<g id="edge15" class="edge">
<title>Node11&#45;&gt;Node12</title>
<path fill="none" stroke="midnightblue" d="M290.08,-112.08C298.17,-104.14 310.2,-92.34 319.91,-82.8"/>
<polygon fill="midnightblue" stroke="midnightblue" points="322.4,-85.25 327.09,-75.75 317.5,-80.26 322.4,-85.25"/>
</g>
<!-- Node12&#45;&gt;Node5 -->
<g id="edge16" class="edge">
<title>Node12&#45;&gt;Node5</title>
<path fill="none" stroke="midnightblue" d="M350.94,-56.32C365.59,-47.82 388.13,-34.73 405.24,-24.8"/>
<polygon fill="midnightblue" stroke="midnightblue" points="407.2,-27.7 414.1,-19.65 403.69,-21.65 407.2,-27.7"/>
</g>
<!-- Node13&#45;&gt;Node5 -->
<g id="edge25" class="edge">
<title>Node13&#45;&gt;Node5</title>
<path fill="none" stroke="midnightblue" d="M796.27,-224.34C793.66,-189.53 781.76,-99.42 728,-56 690.8,-25.96 555.12,-15.88 479.97,-12.57"/>
<polygon fill="midnightblue" stroke="midnightblue" points="479.92,-9.07 469.78,-12.15 479.63,-16.06 479.92,-9.07"/>
</g>
</g>
</svg>
