<?xml version="1.0" encoding="UTF-8" standalone="no"?>
<!DOCTYPE svg PUBLIC "-//W3C//DTD SVG 1.1//EN"
 "http://www.w3.org/Graphics/SVG/1.1/DTD/svg11.dtd">
<!-- Generated by graphviz version 3.0.0 (20221109.1736)
 -->
<!-- Title: include/JSystem/JUtility/JUTGamePad.h Pages: 1 -->
<svg width="2157pt" height="330pt"
 viewBox="0.00 0.00 2156.50 330.00" xmlns="http://www.w3.org/2000/svg" xmlns:xlink="http://www.w3.org/1999/xlink">
<g id="graph0" class="graph" transform="scale(1 1) rotate(0) translate(4 326)">
<title>include/JSystem/JUtility/JUTGamePad.h</title>
<polygon fill="white" stroke="transparent" points="-4,4 -4,-326 2152.5,-326 2152.5,4 -4,4"/>
<!-- Node1 -->
<g id="node1" class="node">
<title>Node1</title>
<g id="a_node1"><a xlink:title=" ">
<polygon fill="#bfbfbf" stroke="black" points="148.5,-291.5 148.5,-321.5 270.5,-321.5 270.5,-291.5 148.5,-291.5"/>
<text text-anchor="start" x="156.5" y="-309.5" font-family="Helvetica,sans-Serif" font-size="10.00">include/JSystem/JUtility</text>
<text text-anchor="middle" x="209.5" y="-298.5" font-family="Helvetica,sans-Serif" font-size="10.00">/JUTGamePad.h</text>
</a>
</g>
</g>
<!-- Node2 -->
<g id="node2" class="node">
<title>Node2</title>
<g id="a_node2"><a xlink:href="JKRDisposer_8h.html" target="_top" xlink:title=" ">
<polygon fill="white" stroke="black" points="23.5,-235.5 23.5,-254.5 181.5,-254.5 181.5,-235.5 23.5,-235.5"/>
<text text-anchor="middle" x="102.5" y="-242.5" font-family="Helvetica,sans-Serif" font-size="10.00">JSystem/JKernel/JKRDisposer.h</text>
</a>
</g>
</g>
<!-- Node1&#45;&gt;Node2 -->
<g id="edge1" class="edge">
<title>Node1&#45;&gt;Node2</title>
<path fill="none" stroke="midnightblue" d="M184.14,-291.4C166.83,-281.77 144.02,-269.09 126.92,-259.58"/>
<polygon fill="midnightblue" stroke="midnightblue" points="128.51,-256.46 118.07,-254.66 125.11,-262.58 128.51,-256.46"/>
</g>
<!-- Node3 -->
<g id="node3" class="node">
<title>Node3</title>
<g id="a_node3"><a xlink:href="JSUList_8h.html" target="_top" xlink:title=" ">
<polygon fill="white" stroke="black" points="0,-179.5 0,-198.5 143,-198.5 143,-179.5 0,-179.5"/>
<text text-anchor="middle" x="71.5" y="-186.5" font-family="Helvetica,sans-Serif" font-size="10.00">JSystem/JSupport/JSUList.h</text>
</a>
</g>
</g>
<!-- Node1&#45;&gt;Node3 -->
<g id="edge5" class="edge">
<title>Node1&#45;&gt;Node3</title>
<path fill="none" stroke="midnightblue" d="M148.15,-297.83C97.33,-290.06 30.88,-276.16 14.5,-255 0.19,-236.51 24.39,-216.46 45.54,-203.59"/>
<polygon fill="midnightblue" stroke="midnightblue" points="47.38,-206.57 54.3,-198.54 43.88,-200.51 47.38,-206.57"/>
</g>
<!-- Node4 -->
<g id="node4" class="node">
<title>Node4</title>
<g id="a_node4"><a xlink:href="types_8h.html" target="_top" xlink:title=" ">
<polygon fill="white" stroke="black" points="1188,-0.5 1188,-19.5 1269,-19.5 1269,-0.5 1188,-0.5"/>
<text text-anchor="middle" x="1228.5" y="-7.5" font-family="Helvetica,sans-Serif" font-size="10.00">dolphin/types.h</text>
</a>
</g>
</g>
<!-- Node1&#45;&gt;Node4 -->
<g id="edge57" class="edge">
<title>Node1&#45;&gt;Node4</title>
<path fill="none" stroke="midnightblue" d="M209.5,-291.28C209.5,-269.48 209.5,-226.49 209.5,-190 209.5,-190 209.5,-190 209.5,-132 209.5,-33.39 971.67,-14.84 1177.69,-11.63"/>
<polygon fill="midnightblue" stroke="midnightblue" points="1177.98,-15.13 1187.93,-11.48 1177.87,-8.13 1177.98,-15.13"/>
</g>
<!-- Node5 -->
<g id="node5" class="node">
<title>Node5</title>
<g id="a_node5"><a xlink:href="OS_8h.html" target="_top" xlink:title=" ">
<polygon fill="white" stroke="black" points="1227.5,-235.5 1227.5,-254.5 1313.5,-254.5 1313.5,-235.5 1227.5,-235.5"/>
<text text-anchor="middle" x="1270.5" y="-242.5" font-family="Helvetica,sans-Serif" font-size="10.00">dolphin/os/OS.h</text>
</a>
</g>
</g>
<!-- Node1&#45;&gt;Node5 -->
<g id="edge6" class="edge">
<title>Node1&#45;&gt;Node5</title>
<path fill="none" stroke="midnightblue" d="M270.74,-302.07C460.8,-291.41 1038.49,-259.01 1217.22,-248.99"/>
<polygon fill="midnightblue" stroke="midnightblue" points="1217.63,-252.47 1227.42,-248.42 1217.24,-245.48 1217.63,-252.47"/>
</g>
<!-- Node29 -->
<g id="node29" class="node">
<title>Node29</title>
<g id="a_node29"><a xlink:href="Pad_8h.html" target="_top" xlink:title=" ">
<polygon fill="white" stroke="black" points="2054.5,-62 2054.5,-81 2148.5,-81 2148.5,-62 2054.5,-62"/>
<text text-anchor="middle" x="2101.5" y="-69" font-family="Helvetica,sans-Serif" font-size="10.00">dolphin/pad/Pad.h</text>
</a>
</g>
</g>
<!-- Node1&#45;&gt;Node29 -->
<g id="edge55" class="edge">
<title>Node1&#45;&gt;Node29</title>
<path fill="none" stroke="midnightblue" d="M270.58,-305.34C542.05,-304.09 1640.24,-293.19 1969.5,-199 2022.24,-183.91 2044.11,-184.92 2079.5,-143 2091.88,-128.34 2097.3,-106.72 2099.67,-91.29"/>
<polygon fill="midnightblue" stroke="midnightblue" points="2103.15,-91.7 2100.92,-81.34 2096.2,-90.83 2103.15,-91.7"/>
</g>
<!-- Node2&#45;&gt;Node3 -->
<g id="edge2" class="edge">
<title>Node2&#45;&gt;Node3</title>
<path fill="none" stroke="midnightblue" d="M97.38,-235.08C93.09,-227.61 86.84,-216.72 81.56,-207.52"/>
<polygon fill="midnightblue" stroke="midnightblue" points="84.54,-205.68 76.52,-198.75 78.47,-209.17 84.54,-205.68"/>
</g>
<!-- Node2&#45;&gt;Node4 -->
<g id="edge4" class="edge">
<title>Node2&#45;&gt;Node4</title>
<path fill="none" stroke="midnightblue" d="M115.11,-235.42C126.2,-227.27 142,-214.04 151.5,-199 187,-142.77 142.88,-96.66 195.5,-56 234.72,-25.69 975.47,-14.18 1177.8,-11.6"/>
<polygon fill="midnightblue" stroke="midnightblue" points="1177.91,-15.1 1187.86,-11.47 1177.82,-8.1 1177.91,-15.1"/>
</g>
<!-- Node3&#45;&gt;Node4 -->
<g id="edge3" class="edge">
<title>Node3&#45;&gt;Node4</title>
<path fill="none" stroke="midnightblue" d="M74,-179.5C81.69,-155.04 107.59,-84.42 157.5,-56 202.26,-30.51 970.66,-15.45 1177.55,-11.85"/>
<polygon fill="midnightblue" stroke="midnightblue" points="1177.89,-15.34 1187.83,-11.67 1177.77,-8.34 1177.89,-15.34"/>
</g>
<!-- Node6 -->
<g id="node6" class="node">
<title>Node6</title>
<g id="a_node6"><a xlink:href="____va__arg_8h.html" target="_top" xlink:title=" ">
<polygon fill="white" stroke="black" points="1452.5,-56.5 1452.5,-86.5 1562.5,-86.5 1562.5,-56.5 1452.5,-56.5"/>
<text text-anchor="start" x="1460.5" y="-74.5" font-family="Helvetica,sans-Serif" font-size="10.00">Runtime.PPCEABI.H/</text>
<text text-anchor="middle" x="1507.5" y="-63.5" font-family="Helvetica,sans-Serif" font-size="10.00">__va_arg.h</text>
</a>
</g>
</g>
<!-- Node5&#45;&gt;Node6 -->
<g id="edge7" class="edge">
<title>Node5&#45;&gt;Node6</title>
<path fill="none" stroke="midnightblue" d="M1313.69,-241.84C1371.15,-237.94 1475.27,-227.31 1559.5,-199 1609.26,-182.28 1636.58,-188.07 1663.5,-143 1668.06,-135.37 1668.73,-130.19 1663.5,-123 1657.63,-114.93 1611.36,-100.54 1570.73,-89.18"/>
<polygon fill="midnightblue" stroke="midnightblue" points="1571.66,-85.81 1561.09,-86.52 1569.79,-92.56 1571.66,-85.81"/>
</g>
<!-- Node7 -->
<g id="node7" class="node">
<title>Node7</title>
<g id="a_node7"><a xlink:href="dvd_8h.html" target="_top" xlink:title=" ">
<polygon fill="white" stroke="black" points="1580.5,-62 1580.5,-81 1672.5,-81 1672.5,-62 1580.5,-62"/>
<text text-anchor="middle" x="1626.5" y="-69" font-family="Helvetica,sans-Serif" font-size="10.00">dolphin/dvd/dvd.h</text>
</a>
</g>
</g>
<!-- Node5&#45;&gt;Node7 -->
<g id="edge9" class="edge">
<title>Node5&#45;&gt;Node7</title>
<path fill="none" stroke="midnightblue" d="M1313.54,-241.04C1391.87,-235.2 1554.46,-220.82 1606.5,-199 1643.89,-183.32 1660.69,-179.42 1678.5,-143 1688.78,-121.98 1667.93,-100.77 1649.65,-87.18"/>
<polygon fill="midnightblue" stroke="midnightblue" points="1651.23,-84.02 1641.03,-81.16 1647.22,-89.76 1651.23,-84.02"/>
</g>
<!-- Node8 -->
<g id="node8" class="node">
<title>Node8</title>
<g id="a_node8"><a xlink:href="OSAlarm_8h.html" target="_top" xlink:title=" ">
<polygon fill="white" stroke="black" points="1173,-179.5 1173,-198.5 1284,-198.5 1284,-179.5 1173,-179.5"/>
<text text-anchor="middle" x="1228.5" y="-186.5" font-family="Helvetica,sans-Serif" font-size="10.00">dolphin/os/OSAlarm.h</text>
</a>
</g>
</g>
<!-- Node5&#45;&gt;Node8 -->
<g id="edge11" class="edge">
<title>Node5&#45;&gt;Node8</title>
<path fill="none" stroke="midnightblue" d="M1263.56,-235.08C1257.57,-227.38 1248.75,-216.03 1241.45,-206.65"/>
<polygon fill="midnightblue" stroke="midnightblue" points="1244.21,-204.5 1235.31,-198.75 1238.68,-208.79 1244.21,-204.5"/>
</g>
<!-- Node9 -->
<g id="node9" class="node">
<title>Node9</title>
<g id="a_node9"><a xlink:href="OSTime_8h.html" target="_top" xlink:title=" ">
<polygon fill="white" stroke="black" points="1238,-123.5 1238,-142.5 1345,-142.5 1345,-123.5 1238,-123.5"/>
<text text-anchor="middle" x="1291.5" y="-130.5" font-family="Helvetica,sans-Serif" font-size="10.00">dolphin/os/OSTime.h</text>
</a>
</g>
</g>
<!-- Node5&#45;&gt;Node9 -->
<g id="edge54" class="edge">
<title>Node5&#45;&gt;Node9</title>
<path fill="none" stroke="midnightblue" d="M1310.65,-235.43C1330.47,-228.95 1352.64,-217.83 1364.5,-199 1378.21,-177.23 1350.07,-158.44 1324.85,-146.75"/>
<polygon fill="midnightblue" stroke="midnightblue" points="1325.98,-143.42 1315.41,-142.62 1323.17,-149.83 1325.98,-143.42"/>
</g>
<!-- Node10 -->
<g id="node10" class="node">
<title>Node10</title>
<g id="a_node10"><a xlink:href="OSError_8h.html" target="_top" xlink:title=" ">
<polygon fill="white" stroke="black" points="941.5,-123.5 941.5,-142.5 1047.5,-142.5 1047.5,-123.5 941.5,-123.5"/>
<text text-anchor="middle" x="994.5" y="-130.5" font-family="Helvetica,sans-Serif" font-size="10.00">dolphin/os/OSError.h</text>
</a>
</g>
</g>
<!-- Node5&#45;&gt;Node10 -->
<g id="edge26" class="edge">
<title>Node5&#45;&gt;Node10</title>
<path fill="none" stroke="midnightblue" d="M1249.72,-235.36C1228.3,-226.41 1193.97,-211.95 1164.5,-199 1144.83,-190.36 1140.41,-187.06 1120.5,-179 1090.28,-166.76 1055.32,-154.41 1029.9,-145.76"/>
<polygon fill="midnightblue" stroke="midnightblue" points="1030.91,-142.4 1020.32,-142.51 1028.67,-149.04 1030.91,-142.4"/>
</g>
<!-- Node11 -->
<g id="node11" class="node">
<title>Node11</title>
<g id="a_node11"><a xlink:href="OSContext_8h.html" target="_top" xlink:title=" ">
<polygon fill="white" stroke="black" points="806,-62 806,-81 925,-81 925,-62 806,-62"/>
<text text-anchor="middle" x="865.5" y="-69" font-family="Helvetica,sans-Serif" font-size="10.00">dolphin/os/OSContext.h</text>
</a>
</g>
</g>
<!-- Node5&#45;&gt;Node11 -->
<g id="edge25" class="edge">
<title>Node5&#45;&gt;Node11</title>
<path fill="none" stroke="midnightblue" d="M1227.42,-242.52C1119.63,-238.42 844.69,-225.47 813.5,-199 787.25,-176.72 783.14,-153.81 798.5,-123 806.55,-106.85 822.5,-94.51 836.81,-86.07"/>
<polygon fill="midnightblue" stroke="midnightblue" points="838.81,-88.97 845.88,-81.08 835.43,-82.83 838.81,-88.97"/>
</g>
<!-- Node12 -->
<g id="node12" class="node">
<title>Node12</title>
<g id="a_node12"><a xlink:href="OSAlloc_8h.html" target="_top" xlink:title=" ">
<polygon fill="white" stroke="black" points="1691,-62 1691,-81 1798,-81 1798,-62 1691,-62"/>
<text text-anchor="middle" x="1744.5" y="-69" font-family="Helvetica,sans-Serif" font-size="10.00">dolphin/os/OSAlloc.h</text>
</a>
</g>
</g>
<!-- Node5&#45;&gt;Node12 -->
<g id="edge17" class="edge">
<title>Node5&#45;&gt;Node12</title>
<path fill="none" stroke="midnightblue" d="M1313.73,-242.46C1398.91,-238.83 1585.07,-227.77 1641.5,-199 1688.46,-175.05 1721.59,-119.05 1736.17,-90.27"/>
<polygon fill="midnightblue" stroke="midnightblue" points="1739.45,-91.53 1740.69,-81.01 1733.16,-88.46 1739.45,-91.53"/>
</g>
<!-- Node13 -->
<g id="node13" class="node">
<title>Node13</title>
<g id="a_node13"><a xlink:href="OSArena_8h.html" target="_top" xlink:title=" ">
<polygon fill="white" stroke="black" points="1787,-123.5 1787,-142.5 1898,-142.5 1898,-123.5 1787,-123.5"/>
<text text-anchor="middle" x="1842.5" y="-130.5" font-family="Helvetica,sans-Serif" font-size="10.00">dolphin/os/OSArena.h</text>
</a>
</g>
</g>
<!-- Node5&#45;&gt;Node13 -->
<g id="edge19" class="edge">
<title>Node5&#45;&gt;Node13</title>
<path fill="none" stroke="midnightblue" d="M1313.74,-243.68C1419.94,-242.34 1690.86,-235.35 1772.5,-199 1796.31,-188.4 1817.27,-166.32 1829.9,-150.85"/>
<polygon fill="midnightblue" stroke="midnightblue" points="1832.92,-152.67 1836.34,-142.64 1827.41,-148.35 1832.92,-152.67"/>
</g>
<!-- Node14 -->
<g id="node14" class="node">
<title>Node14</title>
<g id="a_node14"><a xlink:href="OSAudioSystem_8h.html" target="_top" xlink:title=" ">
<polygon fill="white" stroke="black" points="1855,-62 1855,-81 1998,-81 1998,-62 1855,-62"/>
<text text-anchor="middle" x="1926.5" y="-69" font-family="Helvetica,sans-Serif" font-size="10.00">dolphin/os/OSAudioSystem.h</text>
</a>
</g>
</g>
<!-- Node5&#45;&gt;Node14 -->
<g id="edge21" class="edge">
<title>Node5&#45;&gt;Node14</title>
<path fill="none" stroke="midnightblue" d="M1313.69,-242.56C1423.34,-238.55 1710.28,-225.75 1801.5,-199 1852.63,-184 1874.25,-184.63 1907.5,-143 1919.23,-128.32 1923.74,-107.01 1925.47,-91.66"/>
<polygon fill="midnightblue" stroke="midnightblue" points="1928.99,-91.55 1926.32,-81.3 1922.01,-90.98 1928.99,-91.55"/>
</g>
<!-- Node15 -->
<g id="node15" class="node">
<title>Node15</title>
<g id="a_node15"><a xlink:href="OSCache_8h.html" target="_top" xlink:title=" ">
<polygon fill="white" stroke="black" points="1957,-123.5 1957,-142.5 2070,-142.5 2070,-123.5 1957,-123.5"/>
<text text-anchor="middle" x="2013.5" y="-130.5" font-family="Helvetica,sans-Serif" font-size="10.00">dolphin/os/OSCache.h</text>
</a>
</g>
</g>
<!-- Node5&#45;&gt;Node15 -->
<g id="edge23" class="edge">
<title>Node5&#45;&gt;Node15</title>
<path fill="none" stroke="midnightblue" d="M1313.55,-242.73C1452.43,-238.4 1882.92,-223.16 1940.5,-199 1965.32,-188.59 1987.41,-166.12 2000.62,-150.54"/>
<polygon fill="midnightblue" stroke="midnightblue" points="2003.4,-152.67 2007.01,-142.71 1997.98,-148.24 2003.4,-152.67"/>
</g>
<!-- Node16 -->
<g id="node16" class="node">
<title>Node16</title>
<g id="a_node16"><a xlink:href="OSExec_8h.html" target="_top" xlink:title=" ">
<polygon fill="white" stroke="black" points="238,-179.5 238,-198.5 345,-198.5 345,-179.5 238,-179.5"/>
<text text-anchor="middle" x="291.5" y="-186.5" font-family="Helvetica,sans-Serif" font-size="10.00">dolphin/os/OSExec.h</text>
</a>
</g>
</g>
<!-- Node5&#45;&gt;Node16 -->
<g id="edge27" class="edge">
<title>Node5&#45;&gt;Node16</title>
<path fill="none" stroke="midnightblue" d="M1227.48,-243.3C1097.55,-240.9 697.63,-231.3 355.19,-198.96"/>
<polygon fill="midnightblue" stroke="midnightblue" points="355.36,-195.46 345.08,-198 354.7,-202.43 355.36,-195.46"/>
</g>
<!-- Node17 -->
<g id="node17" class="node">
<title>Node17</title>
<g id="a_node17"><a xlink:href="OSFont_8h.html" target="_top" xlink:title=" ">
<polygon fill="white" stroke="black" points="363,-179.5 363,-198.5 468,-198.5 468,-179.5 363,-179.5"/>
<text text-anchor="middle" x="415.5" y="-186.5" font-family="Helvetica,sans-Serif" font-size="10.00">dolphin/os/OSFont.h</text>
</a>
</g>
</g>
<!-- Node5&#45;&gt;Node17 -->
<g id="edge29" class="edge">
<title>Node5&#45;&gt;Node17</title>
<path fill="none" stroke="midnightblue" d="M1227.42,-242.88C1109.42,-239.53 770.94,-228.03 478.61,-199.01"/>
<polygon fill="midnightblue" stroke="midnightblue" points="478.53,-195.49 468.23,-197.97 477.83,-202.45 478.53,-195.49"/>
</g>
<!-- Node18 -->
<g id="node18" class="node">
<title>Node18</title>
<g id="a_node18"><a xlink:href="OSInterrupt_8h.html" target="_top" xlink:title=" ">
<polygon fill="white" stroke="black" points="629.5,-123.5 629.5,-142.5 751.5,-142.5 751.5,-123.5 629.5,-123.5"/>
<text text-anchor="middle" x="690.5" y="-130.5" font-family="Helvetica,sans-Serif" font-size="10.00">dolphin/os/OSInterrupt.h</text>
</a>
</g>
</g>
<!-- Node5&#45;&gt;Node18 -->
<g id="edge31" class="edge">
<title>Node5&#45;&gt;Node18</title>
<path fill="none" stroke="midnightblue" d="M1227.4,-242.95C1123.52,-239.95 861.9,-229.5 780.5,-199 751.34,-188.07 723.14,-165.05 706.3,-149.55"/>
<polygon fill="midnightblue" stroke="midnightblue" points="708.66,-146.96 698.99,-142.63 703.85,-152.05 708.66,-146.96"/>
</g>
<!-- Node19 -->
<g id="node19" class="node">
<title>Node19</title>
<g id="a_node19"><a xlink:href="OSLink_8h.html" target="_top" xlink:title=" ">
<polygon fill="white" stroke="black" points="486.5,-179.5 486.5,-198.5 590.5,-198.5 590.5,-179.5 486.5,-179.5"/>
<text text-anchor="middle" x="538.5" y="-186.5" font-family="Helvetica,sans-Serif" font-size="10.00">dolphin/os/OSLink.h</text>
</a>
</g>
</g>
<!-- Node5&#45;&gt;Node19 -->
<g id="edge33" class="edge">
<title>Node5&#45;&gt;Node19</title>
<path fill="none" stroke="midnightblue" d="M1227.22,-242.29C1121.86,-237.88 843.49,-224.68 600.78,-199.05"/>
<polygon fill="midnightblue" stroke="midnightblue" points="601.02,-195.56 590.71,-197.98 600.28,-202.52 601.02,-195.56"/>
</g>
<!-- Node20 -->
<g id="node20" class="node">
<title>Node20</title>
<g id="a_node20"><a xlink:href="OSMemory_8h.html" target="_top" xlink:title=" ">
<polygon fill="white" stroke="black" points="608.5,-179.5 608.5,-198.5 728.5,-198.5 728.5,-179.5 608.5,-179.5"/>
<text text-anchor="middle" x="668.5" y="-186.5" font-family="Helvetica,sans-Serif" font-size="10.00">dolphin/os/OSMemory.h</text>
</a>
</g>
</g>
<!-- Node5&#45;&gt;Node20 -->
<g id="edge35" class="edge">
<title>Node5&#45;&gt;Node20</title>
<path fill="none" stroke="midnightblue" d="M1227.33,-240.85C1137.17,-234.16 922.32,-217.59 742.5,-199 741.23,-198.87 739.95,-198.73 738.67,-198.6"/>
<polygon fill="midnightblue" stroke="midnightblue" points="738.98,-195.11 728.66,-197.5 738.21,-202.07 738.98,-195.11"/>
</g>
<!-- Node21 -->
<g id="node21" class="node">
<title>Node21</title>
<g id="a_node21"><a xlink:href="OSMessage_8h.html" target="_top" xlink:title=" ">
<polygon fill="white" stroke="black" points="953,-179.5 953,-198.5 1078,-198.5 1078,-179.5 953,-179.5"/>
<text text-anchor="middle" x="1015.5" y="-186.5" font-family="Helvetica,sans-Serif" font-size="10.00">dolphin/os/OSMessage.h</text>
</a>
</g>
</g>
<!-- Node5&#45;&gt;Node21 -->
<g id="edge38" class="edge">
<title>Node5&#45;&gt;Node21</title>
<path fill="none" stroke="midnightblue" d="M1230.09,-235.44C1185.52,-226 1113.73,-210.8 1065.61,-200.61"/>
<polygon fill="midnightblue" stroke="midnightblue" points="1066.22,-197.16 1055.72,-198.52 1064.77,-204.01 1066.22,-197.16"/>
</g>
<!-- Node22 -->
<g id="node22" class="node">
<title>Node22</title>
<g id="a_node22"><a xlink:href="OSThread_8h.html" target="_top" xlink:title=" ">
<polygon fill="white" stroke="black" points="807.5,-123.5 807.5,-142.5 923.5,-142.5 923.5,-123.5 807.5,-123.5"/>
<text text-anchor="middle" x="865.5" y="-130.5" font-family="Helvetica,sans-Serif" font-size="10.00">dolphin/os/OSThread.h</text>
</a>
</g>
</g>
<!-- Node5&#45;&gt;Node22 -->
<g id="edge53" class="edge">
<title>Node5&#45;&gt;Node22</title>
<path fill="none" stroke="midnightblue" d="M1232.57,-235.46C1201.66,-227.83 1157.27,-215.34 1120.5,-199 1104.83,-192.04 1103.47,-185.24 1087.5,-179 1059.05,-167.89 983.39,-153.69 928.29,-144.25"/>
<polygon fill="midnightblue" stroke="midnightblue" points="928.7,-140.77 918.26,-142.54 927.53,-147.67 928.7,-140.77"/>
</g>
<!-- Node23 -->
<g id="node23" class="node">
<title>Node23</title>
<g id="a_node23"><a xlink:href="OSMutex_8h.html" target="_top" xlink:title=" ">
<polygon fill="white" stroke="black" points="822.5,-179.5 822.5,-198.5 934.5,-198.5 934.5,-179.5 822.5,-179.5"/>
<text text-anchor="middle" x="878.5" y="-186.5" font-family="Helvetica,sans-Serif" font-size="10.00">dolphin/os/OSMutex.h</text>
</a>
</g>
</g>
<!-- Node5&#45;&gt;Node23 -->
<g id="edge41" class="edge">
<title>Node5&#45;&gt;Node23</title>
<path fill="none" stroke="midnightblue" d="M1227.43,-238.07C1159.05,-228.65 1025.18,-210.21 944.59,-199.1"/>
<polygon fill="midnightblue" stroke="midnightblue" points="944.94,-195.62 934.56,-197.72 943.98,-202.55 944.94,-195.62"/>
</g>
<!-- Node24 -->
<g id="node24" class="node">
<title>Node24</title>
<g id="a_node24"><a xlink:href="OSReboot_8h.html" target="_top" xlink:title=" ">
<polygon fill="white" stroke="black" points="1065.5,-123.5 1065.5,-142.5 1181.5,-142.5 1181.5,-123.5 1065.5,-123.5"/>
<text text-anchor="middle" x="1123.5" y="-130.5" font-family="Helvetica,sans-Serif" font-size="10.00">dolphin/os/OSReboot.h</text>
</a>
</g>
</g>
<!-- Node5&#45;&gt;Node24 -->
<g id="edge43" class="edge">
<title>Node5&#45;&gt;Node24</title>
<path fill="none" stroke="midnightblue" d="M1278.49,-235.17C1289.56,-221.83 1306.79,-196.26 1293.5,-179 1280.79,-162.48 1233.27,-150.78 1191.69,-143.46"/>
<polygon fill="midnightblue" stroke="midnightblue" points="1192.27,-140.01 1181.83,-141.78 1191.1,-146.91 1192.27,-140.01"/>
</g>
<!-- Node25 -->
<g id="node25" class="node">
<title>Node25</title>
<g id="a_node25"><a xlink:href="OSReset_8h.html" target="_top" xlink:title=" ">
<polygon fill="white" stroke="black" points="1089,-62 1089,-81 1200,-81 1200,-62 1089,-62"/>
<text text-anchor="middle" x="1144.5" y="-69" font-family="Helvetica,sans-Serif" font-size="10.00">dolphin/os/OSReset.h</text>
</a>
</g>
</g>
<!-- Node5&#45;&gt;Node25 -->
<g id="edge45" class="edge">
<title>Node5&#45;&gt;Node25</title>
<path fill="none" stroke="midnightblue" d="M1282.17,-235.47C1297.86,-222.95 1322.36,-198.89 1309.5,-179 1288.33,-146.26 1262.58,-163.63 1229.5,-143 1203.73,-126.93 1177.31,-103.76 1160.91,-88.42"/>
<polygon fill="midnightblue" stroke="midnightblue" points="1162.96,-85.55 1153.3,-81.2 1158.14,-90.62 1162.96,-85.55"/>
</g>
<!-- Node26 -->
<g id="node26" class="node">
<title>Node26</title>
<g id="a_node26"><a xlink:href="OSResetSW_8h.html" target="_top" xlink:title=" ">
<polygon fill="white" stroke="black" points="1363,-123.5 1363,-142.5 1490,-142.5 1490,-123.5 1363,-123.5"/>
<text text-anchor="middle" x="1426.5" y="-130.5" font-family="Helvetica,sans-Serif" font-size="10.00">dolphin/os/OSResetSW.h</text>
</a>
</g>
</g>
<!-- Node5&#45;&gt;Node26 -->
<g id="edge47" class="edge">
<title>Node5&#45;&gt;Node26</title>
<path fill="none" stroke="midnightblue" d="M1303.99,-235.44C1326.95,-228.38 1357.16,-216.63 1379.5,-199 1395.84,-186.1 1409.13,-166.1 1417.35,-151.69"/>
<polygon fill="midnightblue" stroke="midnightblue" points="1420.5,-153.22 1422.21,-142.77 1414.35,-149.87 1420.5,-153.22"/>
</g>
<!-- Node27 -->
<g id="node27" class="node">
<title>Node27</title>
<g id="a_node27"><a xlink:href="OSRtc_8h.html" target="_top" xlink:title=" ">
<polygon fill="white" stroke="black" points="1295,-62 1295,-81 1396,-81 1396,-62 1295,-62"/>
<text text-anchor="middle" x="1345.5" y="-69" font-family="Helvetica,sans-Serif" font-size="10.00">dolphin/os/OSRtc.h</text>
</a>
</g>
</g>
<!-- Node5&#45;&gt;Node27 -->
<g id="edge49" class="edge">
<title>Node5&#45;&gt;Node27</title>
<path fill="none" stroke="midnightblue" d="M1313.82,-239.77C1368.96,-231.74 1461.59,-208.66 1499.5,-143 1503.94,-135.3 1504.71,-130.2 1499.5,-123 1492.72,-113.65 1431.28,-95.51 1388.08,-83.71"/>
<polygon fill="midnightblue" stroke="midnightblue" points="1388.93,-80.32 1378.36,-81.08 1387.09,-87.07 1388.93,-80.32"/>
</g>
<!-- Node28 -->
<g id="node28" class="node">
<title>Node28</title>
<g id="a_node28"><a xlink:href="OSSync_8h.html" target="_top" xlink:title=" ">
<polygon fill="white" stroke="black" points="1547,-123.5 1547,-142.5 1654,-142.5 1654,-123.5 1547,-123.5"/>
<text text-anchor="middle" x="1600.5" y="-130.5" font-family="Helvetica,sans-Serif" font-size="10.00">dolphin/os/OSSync.h</text>
</a>
</g>
</g>
<!-- Node5&#45;&gt;Node28 -->
<g id="edge51" class="edge">
<title>Node5&#45;&gt;Node28</title>
<path fill="none" stroke="midnightblue" d="M1313.71,-244.18C1367.7,-242.74 1461.6,-234.7 1532.5,-199 1555.18,-187.58 1575.39,-166.05 1587.77,-150.91"/>
<polygon fill="midnightblue" stroke="midnightblue" points="1590.68,-152.88 1594.11,-142.86 1585.18,-148.55 1590.68,-152.88"/>
</g>
<!-- Node6&#45;&gt;Node4 -->
<g id="edge8" class="edge">
<title>Node6&#45;&gt;Node4</title>
<path fill="none" stroke="midnightblue" d="M1452.38,-58.74C1401.82,-47.96 1327.58,-32.13 1278.65,-21.7"/>
<polygon fill="midnightblue" stroke="midnightblue" points="1279.13,-18.22 1268.62,-19.56 1277.67,-25.06 1279.13,-18.22"/>
</g>
<!-- Node7&#45;&gt;Node4 -->
<g id="edge10" class="edge">
<title>Node7&#45;&gt;Node4</title>
<path fill="none" stroke="midnightblue" d="M1596.97,-61.98C1588.77,-59.81 1579.83,-57.64 1571.5,-56 1468.71,-35.79 1346.77,-22.23 1279.48,-15.64"/>
<polygon fill="midnightblue" stroke="midnightblue" points="1279.46,-12.12 1269.17,-14.64 1278.78,-19.09 1279.46,-12.12"/>
</g>
<!-- Node8&#45;&gt;Node9 -->
<g id="edge12" class="edge">
<title>Node8&#45;&gt;Node9</title>
<path fill="none" stroke="midnightblue" d="M1238.62,-179.32C1248.03,-171.26 1262.24,-159.08 1273.57,-149.37"/>
<polygon fill="midnightblue" stroke="midnightblue" points="1275.88,-152 1281.19,-142.83 1271.32,-146.68 1275.88,-152"/>
</g>
<!-- Node8&#45;&gt;Node10 -->
<g id="edge14" class="edge">
<title>Node8&#45;&gt;Node10</title>
<path fill="none" stroke="midnightblue" d="M1191.42,-179.44C1150.77,-170.06 1085.47,-154.99 1041.32,-144.8"/>
<polygon fill="midnightblue" stroke="midnightblue" points="1041.94,-141.35 1031.4,-142.52 1040.36,-148.18 1041.94,-141.35"/>
</g>
<!-- Node9&#45;&gt;Node4 -->
<g id="edge13" class="edge">
<title>Node9&#45;&gt;Node4</title>
<path fill="none" stroke="midnightblue" d="M1281.9,-123.21C1273.13,-114.71 1260.37,-101.08 1252.5,-87 1242.39,-68.93 1235.9,-46.01 1232.25,-30.09"/>
<polygon fill="midnightblue" stroke="midnightblue" points="1235.59,-28.95 1230.08,-19.9 1228.74,-30.41 1235.59,-28.95"/>
</g>
<!-- Node10&#45;&gt;Node11 -->
<g id="edge15" class="edge">
<title>Node10&#45;&gt;Node11</title>
<path fill="none" stroke="midnightblue" d="M976.02,-123.48C954.37,-113.49 918.29,-96.85 893.27,-85.31"/>
<polygon fill="midnightblue" stroke="midnightblue" points="894.49,-82.02 883.95,-81.01 891.56,-88.38 894.49,-82.02"/>
</g>
<!-- Node11&#45;&gt;Node4 -->
<g id="edge16" class="edge">
<title>Node11&#45;&gt;Node4</title>
<path fill="none" stroke="midnightblue" d="M917.51,-61.98C986.88,-50.61 1108.89,-30.6 1177.66,-19.33"/>
<polygon fill="midnightblue" stroke="midnightblue" points="1178.52,-22.74 1187.82,-17.67 1177.38,-15.83 1178.52,-22.74"/>
</g>
<!-- Node12&#45;&gt;Node4 -->
<g id="edge18" class="edge">
<title>Node12&#45;&gt;Node4</title>
<path fill="none" stroke="midnightblue" d="M1710.98,-61.95C1701.5,-59.76 1691.14,-57.58 1681.5,-56 1536.44,-32.2 1363.05,-19.23 1279.06,-13.92"/>
<polygon fill="midnightblue" stroke="midnightblue" points="1279.22,-10.42 1269.03,-13.29 1278.79,-17.41 1279.22,-10.42"/>
</g>
<!-- Node13&#45;&gt;Node4 -->
<g id="edge20" class="edge">
<title>Node13&#45;&gt;Node4</title>
<path fill="none" stroke="midnightblue" d="M1841.32,-123.11C1838.63,-106.72 1830.39,-71.94 1807.5,-56 1764.71,-26.19 1412.9,-15.17 1279.51,-12.04"/>
<polygon fill="midnightblue" stroke="midnightblue" points="1279.24,-8.53 1269.16,-11.8 1279.08,-15.53 1279.24,-8.53"/>
</g>
<!-- Node14&#45;&gt;Node4 -->
<g id="edge22" class="edge">
<title>Node14&#45;&gt;Node4</title>
<path fill="none" stroke="midnightblue" d="M1880.64,-61.95C1867.7,-59.76 1853.58,-57.58 1840.5,-56 1632.97,-30.93 1384.03,-17.85 1279.09,-13.11"/>
<polygon fill="midnightblue" stroke="midnightblue" points="1279.23,-9.62 1269.09,-12.67 1278.92,-16.61 1279.23,-9.62"/>
</g>
<!-- Node15&#45;&gt;Node4 -->
<g id="edge24" class="edge">
<title>Node15&#45;&gt;Node4</title>
<path fill="none" stroke="midnightblue" d="M2015.97,-123.46C2019.95,-107.64 2025.66,-73.78 2007.5,-56 1981.44,-30.49 1447.9,-16.05 1279.18,-12.11"/>
<polygon fill="midnightblue" stroke="midnightblue" points="1279.15,-8.61 1269.07,-11.88 1278.99,-15.61 1279.15,-8.61"/>
</g>
<!-- Node16&#45;&gt;Node4 -->
<g id="edge28" class="edge">
<title>Node16&#45;&gt;Node4</title>
<path fill="none" stroke="midnightblue" d="M303.15,-179.46C337.42,-154.9 441.65,-84.04 540.5,-56 660.17,-22.06 1039,-13.57 1177.31,-11.57"/>
<polygon fill="midnightblue" stroke="midnightblue" points="1177.67,-15.07 1187.62,-11.43 1177.57,-8.07 1177.67,-15.07"/>
</g>
<!-- Node17&#45;&gt;Node4 -->
<g id="edge30" class="edge">
<title>Node17&#45;&gt;Node4</title>
<path fill="none" stroke="midnightblue" d="M424.05,-179.47C449.28,-154.93 526.66,-84.11 606.5,-56 711.4,-19.07 1048.5,-12.43 1177.57,-11.25"/>
<polygon fill="midnightblue" stroke="midnightblue" points="1177.62,-14.75 1187.59,-11.17 1177.56,-7.75 1177.62,-14.75"/>
</g>
<!-- Node18&#45;&gt;Node11 -->
<g id="edge32" class="edge">
<title>Node18&#45;&gt;Node11</title>
<path fill="none" stroke="midnightblue" d="M715.57,-123.48C745.85,-113.18 796.94,-95.81 830.94,-84.25"/>
<polygon fill="midnightblue" stroke="midnightblue" points="832.13,-87.54 840.47,-81.01 829.88,-80.91 832.13,-87.54"/>
</g>
<!-- Node19&#45;&gt;Node4 -->
<g id="edge34" class="edge">
<title>Node19&#45;&gt;Node4</title>
<path fill="none" stroke="midnightblue" d="M542.84,-179.18C555.55,-154.47 595.3,-84.57 651.5,-56 697.77,-32.48 1045.33,-17.61 1177.61,-12.75"/>
<polygon fill="midnightblue" stroke="midnightblue" points="1178,-16.24 1187.87,-12.38 1177.75,-9.24 1178,-16.24"/>
</g>
<!-- Node20&#45;&gt;Node4 -->
<g id="edge36" class="edge">
<title>Node20&#45;&gt;Node4</title>
<path fill="none" stroke="midnightblue" d="M653.89,-179.3C635.06,-166.94 606.31,-143.55 620.5,-123 668.3,-53.79 715.66,-75.42 797.5,-56 932.18,-24.05 1095.9,-14.78 1177.35,-12.09"/>
<polygon fill="midnightblue" stroke="midnightblue" points="1177.92,-15.58 1187.81,-11.77 1177.71,-8.58 1177.92,-15.58"/>
</g>
<!-- Node20&#45;&gt;Node18 -->
<g id="edge37" class="edge">
<title>Node20&#45;&gt;Node18</title>
<path fill="none" stroke="midnightblue" d="M672.13,-179.08C675.11,-171.77 679.43,-161.18 683.12,-152.1"/>
<polygon fill="midnightblue" stroke="midnightblue" points="686.4,-153.33 686.93,-142.75 679.92,-150.69 686.4,-153.33"/>
</g>
<!-- Node21&#45;&gt;Node22 -->
<g id="edge39" class="edge">
<title>Node21&#45;&gt;Node22</title>
<path fill="none" stroke="midnightblue" d="M991.73,-179.44C966.61,-170.4 926.79,-156.06 898.6,-145.92"/>
<polygon fill="midnightblue" stroke="midnightblue" points="899.75,-142.61 889.16,-142.52 897.38,-149.2 899.75,-142.61"/>
</g>
<!-- Node22&#45;&gt;Node11 -->
<g id="edge40" class="edge">
<title>Node22&#45;&gt;Node11</title>
<path fill="none" stroke="midnightblue" d="M865.5,-123.48C865.5,-115.08 865.5,-101.98 865.5,-91.16"/>
<polygon fill="midnightblue" stroke="midnightblue" points="869,-91.01 865.5,-81.01 862,-91.01 869,-91.01"/>
</g>
<!-- Node23&#45;&gt;Node22 -->
<g id="edge42" class="edge">
<title>Node23&#45;&gt;Node22</title>
<path fill="none" stroke="midnightblue" d="M876.35,-179.08C874.63,-171.93 872.15,-161.64 870,-152.69"/>
<polygon fill="midnightblue" stroke="midnightblue" points="873.35,-151.65 867.61,-142.75 866.54,-153.29 873.35,-151.65"/>
</g>
<!-- Node24&#45;&gt;Node4 -->
<g id="edge44" class="edge">
<title>Node24&#45;&gt;Node4</title>
<path fill="none" stroke="midnightblue" d="M1112.13,-123.38C1094.34,-108.83 1063.62,-78.78 1080.5,-56 1102.67,-26.08 1144.24,-15.37 1177.7,-11.84"/>
<polygon fill="midnightblue" stroke="midnightblue" points="1178.13,-15.32 1187.79,-10.96 1177.52,-8.34 1178.13,-15.32"/>
</g>
<!-- Node25&#45;&gt;Node4 -->
<g id="edge46" class="edge">
<title>Node25&#45;&gt;Node4</title>
<path fill="none" stroke="midnightblue" d="M1156.54,-61.98C1170.01,-52.43 1192.07,-36.81 1208.22,-25.37"/>
<polygon fill="midnightblue" stroke="midnightblue" points="1210.35,-28.15 1216.49,-19.51 1206.3,-22.43 1210.35,-28.15"/>
</g>
<!-- Node26&#45;&gt;Node4 -->
<g id="edge48" class="edge">
<title>Node26&#45;&gt;Node4</title>
<path fill="none" stroke="midnightblue" d="M1375.85,-123.49C1347.65,-116.93 1312.98,-105.71 1286.5,-87 1264.85,-71.71 1247.65,-45.93 1237.76,-28.69"/>
<polygon fill="midnightblue" stroke="midnightblue" points="1240.69,-26.75 1232.81,-19.67 1234.56,-30.12 1240.69,-26.75"/>
</g>
<!-- Node27&#45;&gt;Node4 -->
<g id="edge50" class="edge">
<title>Node27&#45;&gt;Node4</title>
<path fill="none" stroke="midnightblue" d="M1328.74,-61.98C1309.28,-52.08 1276.95,-35.64 1254.29,-24.12"/>
<polygon fill="midnightblue" stroke="midnightblue" points="1255.73,-20.92 1245.23,-19.51 1252.56,-27.16 1255.73,-20.92"/>
</g>
<!-- Node28&#45;&gt;Node4 -->
<g id="edge52" class="edge">
<title>Node28&#45;&gt;Node4</title>
<path fill="none" stroke="midnightblue" d="M1552.23,-123.46C1520.16,-116.53 1477.8,-104.93 1443.5,-87 1424.18,-76.9 1424.97,-65.81 1405.5,-56 1365.51,-35.86 1315.78,-24.24 1279.22,-17.88"/>
<polygon fill="midnightblue" stroke="midnightblue" points="1279.72,-14.41 1269.28,-16.22 1278.56,-21.32 1279.72,-14.41"/>
</g>
<!-- Node29&#45;&gt;Node4 -->
<g id="edge56" class="edge">
<title>Node29&#45;&gt;Node4</title>
<path fill="none" stroke="midnightblue" d="M2070.36,-61.97C2060.84,-59.67 2050.3,-57.43 2040.5,-56 1755.11,-14.51 1408.2,-10.58 1279.63,-10.69"/>
<polygon fill="midnightblue" stroke="midnightblue" points="1279.3,-7.19 1269.31,-10.7 1279.32,-14.19 1279.3,-7.19"/>
</g>
</g>
</svg>
