<?xml version="1.0" encoding="UTF-8" standalone="no"?>
<!DOCTYPE svg PUBLIC "-//W3C//DTD SVG 1.1//EN"
 "http://www.w3.org/Graphics/SVG/1.1/DTD/svg11.dtd">
<!-- Generated by graphviz version 3.0.0 (20221109.1736)
 -->
<!-- Title: include/m_Do/m_Do_MemCard.h Pages: 1 -->
<!--zoomable 319 -->
<svg id="main" version="1.1" xmlns="http://www.w3.org/2000/svg" xmlns:xlink="http://www.w3.org/1999/xlink" xml:space="preserve" onload="init(evt)">
<style type="text/css"><![CDATA[
.edge:hover path { stroke: red; }
.edge:hover polygon { stroke: red; fill: red; }
]]></style>
<script type="text/javascript"><![CDATA[
var edges = document.getElementsByTagName('g');
if (edges && edges.length) {
  for (var i=0;i<edges.length;i++) {
    if (edges[i].id.substr(0,4)=='edge') {
      edges[i].setAttribute('class','edge');
    }
  }
}
]]></script>
        <defs>
                <circle id="rim" cx="0" cy="0" r="7"/>
                <circle id="rim2" cx="0" cy="0" r="3.5"/>
                <g id="zoomPlus">
                        <use xlink:href="#rim" fill="#404040">
                                <set attributeName="fill" to="#808080" begin="zoomplus.mouseover" end="zoomplus.mouseout"/>
                        </use>
                        <path d="M-4,0h8M0,-4v8" fill="none" stroke="white" stroke-width="1.5" pointer-events="none"/>
                </g>
                <g id="zoomMin">
                        <use xlink:href="#rim" fill="#404040">
                                <set attributeName="fill" to="#808080" begin="zoomminus.mouseover" end="zoomminus.mouseout"/>
                        </use>
                        <path d="M-4,0h8" fill="none" stroke="white" stroke-width="1.5" pointer-events="none"/>
                </g>
                <g id="dirArrow">
                        <path fill="none" stroke="white" stroke-width="1.5" d="M0,-3.0v7 M-2.5,-0.5L0,-3.0L2.5,-0.5"/>
                </g>
               <g id="resetDef">
                       <use xlink:href="#rim2" fill="#404040">
                               <set attributeName="fill" to="#808080" begin="reset.mouseover" end="reset.mouseout"/>
                       </use>
               </g>
        </defs>

<script type="text/javascript">
var viewWidth = 1949;
var viewHeight = 319;
var sectionId = 'dynsection-0';
</script>
<script xlink:href="svgpan.js"/>
<svg id="graph" class="graph">
<g id="viewport">
<title>include/m_Do/m_Do_MemCard.h</title>
<polygon fill="white" stroke="transparent" points="-4,4 -4,-315 1945,-315 1945,4 -4,4"/>
<!-- Node1 -->
<g id="node1" class="node">
<title>Node1</title>
<g id="a_node1"><a xlink:title=" ">
<polygon fill="#bfbfbf" stroke="black" points="1253.5,-291.5 1253.5,-310.5 1412.5,-310.5 1412.5,-291.5 1253.5,-291.5"/>
<text text-anchor="middle" x="1333" y="-298.5" font-family="Helvetica,sans-Serif" font-size="10.00">include/m_Do/m_Do_MemCard.h</text>
</a>
</g>
</g>
<!-- Node2 -->
<g id="node2" class="node">
<title>Node2</title>
<g id="a_node2"><a xlink:href="OS_8h.html" target="_top" xlink:title=" ">
<polygon fill="white" stroke="black" points="845,-235.5 845,-254.5 931,-254.5 931,-235.5 845,-235.5"/>
<text text-anchor="middle" x="888" y="-242.5" font-family="Helvetica,sans-Serif" font-size="10.00">dolphin/os/OS.h</text>
</a>
</g>
</g>
<!-- Node1&#45;&gt;Node2 -->
<g id="edge1" class="edge">
<title>Node1&#45;&gt;Node2</title>
<path fill="none" stroke="midnightblue" d="M1262.49,-291.44C1173.36,-280.63 1021.91,-262.25 941.64,-252.51"/>
<polygon fill="midnightblue" stroke="midnightblue" points="941.62,-248.98 931.27,-251.25 940.77,-255.93 941.62,-248.98"/>
</g>
<!-- Node4 -->
<g id="node4" class="node">
<title>Node4</title>
<g id="a_node4"><a xlink:href="types_8h.html" target="_top" xlink:title=" ">
<polygon fill="white" stroke="black" points="1124.5,-0.5 1124.5,-19.5 1205.5,-19.5 1205.5,-0.5 1124.5,-0.5"/>
<text text-anchor="middle" x="1165" y="-7.5" font-family="Helvetica,sans-Serif" font-size="10.00">dolphin/types.h</text>
</a>
</g>
</g>
<!-- Node1&#45;&gt;Node4 -->
<g id="edge50" class="edge">
<title>Node1&#45;&gt;Node4</title>
<path fill="none" stroke="midnightblue" d="M1253.11,-297.62C965.53,-288.51 0,-253.24 0,-190 0,-190 0,-190 0,-132 0,-18.28 889.56,-10.91 1114.04,-10.86"/>
<polygon fill="midnightblue" stroke="midnightblue" points="1114.22,-14.36 1124.22,-10.86 1114.22,-7.36 1114.22,-14.36"/>
</g>
<!-- Node27 -->
<g id="node27" class="node">
<title>Node27</title>
<g id="a_node27"><a xlink:href="global_8h.html" target="_top" xlink:title=" ">
<polygon fill="white" stroke="black" points="1526,-235.5 1526,-254.5 1576,-254.5 1576,-235.5 1526,-235.5"/>
<text text-anchor="middle" x="1551" y="-242.5" font-family="Helvetica,sans-Serif" font-size="10.00">global.h</text>
</a>
</g>
</g>
<!-- Node1&#45;&gt;Node27 -->
<g id="edge51" class="edge">
<title>Node1&#45;&gt;Node27</title>
<path fill="none" stroke="midnightblue" d="M1367.54,-291.44C1408.16,-281.38 1475.21,-264.77 1516.02,-254.67"/>
<polygon fill="midnightblue" stroke="midnightblue" points="1516.93,-258.05 1525.79,-252.24 1515.25,-251.25 1516.93,-258.05"/>
</g>
<!-- Node28 -->
<g id="node28" class="node">
<title>Node28</title>
<g id="a_node28"><a xlink:href="m__Do__MemCardRWmng_8h.html" target="_top" xlink:title=" ">
<polygon fill="white" stroke="black" points="1781,-123.5 1781,-142.5 1941,-142.5 1941,-123.5 1781,-123.5"/>
<text text-anchor="middle" x="1861" y="-130.5" font-family="Helvetica,sans-Serif" font-size="10.00">m_Do/m_Do_MemCardRWmng.h</text>
</a>
</g>
</g>
<!-- Node1&#45;&gt;Node28 -->
<g id="edge53" class="edge">
<title>Node1&#45;&gt;Node28</title>
<path fill="none" stroke="midnightblue" d="M1412.56,-292.21C1502.39,-281.04 1651.12,-255.23 1767,-199 1795.38,-185.23 1824.76,-163.49 1842.96,-149"/>
<polygon fill="midnightblue" stroke="midnightblue" points="1845.38,-151.54 1850.94,-142.53 1840.97,-146.11 1845.38,-151.54"/>
</g>
<!-- Node3 -->
<g id="node3" class="node">
<title>Node3</title>
<g id="a_node3"><a xlink:href="____va__arg_8h.html" target="_top" xlink:title=" ">
<polygon fill="white" stroke="black" points="1503,-56.5 1503,-86.5 1613,-86.5 1613,-56.5 1503,-56.5"/>
<text text-anchor="start" x="1511" y="-74.5" font-family="Helvetica,sans-Serif" font-size="10.00">Runtime.PPCEABI.H/</text>
<text text-anchor="middle" x="1558" y="-63.5" font-family="Helvetica,sans-Serif" font-size="10.00">__va_arg.h</text>
</a>
</g>
</g>
<!-- Node2&#45;&gt;Node3 -->
<g id="edge2" class="edge">
<title>Node2&#45;&gt;Node3</title>
<path fill="none" stroke="midnightblue" d="M931.3,-243.54C1059.96,-241.78 1438.24,-233.73 1556,-199 1609.88,-183.11 1686.34,-170.91 1657,-123 1648.28,-108.76 1634.14,-98.38 1619.25,-90.87"/>
<polygon fill="midnightblue" stroke="midnightblue" points="1620.46,-87.58 1609.91,-86.56 1617.52,-93.93 1620.46,-87.58"/>
</g>
<!-- Node5 -->
<g id="node5" class="node">
<title>Node5</title>
<g id="a_node5"><a xlink:href="dvd_8h.html" target="_top" xlink:title=" ">
<polygon fill="white" stroke="black" points="1632,-62 1632,-81 1724,-81 1724,-62 1632,-62"/>
<text text-anchor="middle" x="1678" y="-69" font-family="Helvetica,sans-Serif" font-size="10.00">dolphin/dvd/dvd.h</text>
</a>
</g>
</g>
<!-- Node2&#45;&gt;Node5 -->
<g id="edge4" class="edge">
<title>Node2&#45;&gt;Node5</title>
<path fill="none" stroke="midnightblue" d="M931.13,-242.78C1076.26,-238.49 1541.29,-222.98 1604,-199 1641.54,-184.64 1656.7,-178.78 1675,-143 1683.18,-127.01 1682.97,-106.21 1681.3,-91.35"/>
<polygon fill="midnightblue" stroke="midnightblue" points="1684.75,-90.73 1679.86,-81.33 1677.82,-91.73 1684.75,-90.73"/>
</g>
<!-- Node6 -->
<g id="node6" class="node">
<title>Node6</title>
<g id="a_node6"><a xlink:href="OSAlarm_8h.html" target="_top" xlink:title=" ">
<polygon fill="white" stroke="black" points="706.5,-179.5 706.5,-198.5 817.5,-198.5 817.5,-179.5 706.5,-179.5"/>
<text text-anchor="middle" x="762" y="-186.5" font-family="Helvetica,sans-Serif" font-size="10.00">dolphin/os/OSAlarm.h</text>
</a>
</g>
</g>
<!-- Node2&#45;&gt;Node6 -->
<g id="edge6" class="edge">
<title>Node2&#45;&gt;Node6</title>
<path fill="none" stroke="midnightblue" d="M868.03,-235.44C847.39,-226.6 814.94,-212.69 791.37,-202.59"/>
<polygon fill="midnightblue" stroke="midnightblue" points="792.44,-199.24 781.87,-198.52 789.68,-205.67 792.44,-199.24"/>
</g>
<!-- Node7 -->
<g id="node7" class="node">
<title>Node7</title>
<g id="a_node7"><a xlink:href="OSTime_8h.html" target="_top" xlink:title=" ">
<polygon fill="white" stroke="black" points="829.5,-123.5 829.5,-142.5 936.5,-142.5 936.5,-123.5 829.5,-123.5"/>
<text text-anchor="middle" x="883" y="-130.5" font-family="Helvetica,sans-Serif" font-size="10.00">dolphin/os/OSTime.h</text>
</a>
</g>
</g>
<!-- Node2&#45;&gt;Node7 -->
<g id="edge49" class="edge">
<title>Node2&#45;&gt;Node7</title>
<path fill="none" stroke="midnightblue" d="M881.9,-235.19C876.25,-226.46 868.24,-212.48 865,-199 861.15,-183.01 866.94,-165 872.96,-152"/>
<polygon fill="midnightblue" stroke="midnightblue" points="876.23,-153.28 877.65,-142.78 869.99,-150.11 876.23,-153.28"/>
</g>
<!-- Node8 -->
<g id="node8" class="node">
<title>Node8</title>
<g id="a_node8"><a xlink:href="OSError_8h.html" target="_top" xlink:title=" ">
<polygon fill="white" stroke="black" points="468,-123.5 468,-142.5 574,-142.5 574,-123.5 468,-123.5"/>
<text text-anchor="middle" x="521" y="-130.5" font-family="Helvetica,sans-Serif" font-size="10.00">dolphin/os/OSError.h</text>
</a>
</g>
</g>
<!-- Node2&#45;&gt;Node8 -->
<g id="edge21" class="edge">
<title>Node2&#45;&gt;Node8</title>
<path fill="none" stroke="midnightblue" d="M844.85,-240.79C772.99,-234.9 632.31,-220.93 588,-199 565.42,-187.82 545.55,-166.25 533.43,-151.02"/>
<polygon fill="midnightblue" stroke="midnightblue" points="536.09,-148.74 527.23,-142.92 530.53,-152.99 536.09,-148.74"/>
</g>
<!-- Node9 -->
<g id="node9" class="node">
<title>Node9</title>
<g id="a_node9"><a xlink:href="OSContext_8h.html" target="_top" xlink:title=" ">
<polygon fill="white" stroke="black" points="291.5,-62 291.5,-81 410.5,-81 410.5,-62 291.5,-62"/>
<text text-anchor="middle" x="351" y="-69" font-family="Helvetica,sans-Serif" font-size="10.00">dolphin/os/OSContext.h</text>
</a>
</g>
</g>
<!-- Node2&#45;&gt;Node9 -->
<g id="edge20" class="edge">
<title>Node2&#45;&gt;Node9</title>
<path fill="none" stroke="midnightblue" d="M844.94,-243.29C678.4,-240.35 84.33,-227.84 57,-199 -14.08,-123.97 173.33,-91.19 281.13,-78.87"/>
<polygon fill="midnightblue" stroke="midnightblue" points="281.75,-82.33 291.31,-77.74 280.98,-75.37 281.75,-82.33"/>
</g>
<!-- Node10 -->
<g id="node10" class="node">
<title>Node10</title>
<g id="a_node10"><a xlink:href="OSAlloc_8h.html" target="_top" xlink:title=" ">
<polygon fill="white" stroke="black" points="563.5,-62 563.5,-81 670.5,-81 670.5,-62 563.5,-62"/>
<text text-anchor="middle" x="617" y="-69" font-family="Helvetica,sans-Serif" font-size="10.00">dolphin/os/OSAlloc.h</text>
</a>
</g>
</g>
<!-- Node2&#45;&gt;Node10 -->
<g id="edge12" class="edge">
<title>Node2&#45;&gt;Node10</title>
<path fill="none" stroke="midnightblue" d="M844.8,-240.3C787.56,-234.58 690.7,-221.79 664,-199 631.58,-171.32 621.5,-119.09 618.39,-91.19"/>
<polygon fill="midnightblue" stroke="midnightblue" points="621.86,-90.8 617.45,-81.17 614.89,-91.45 621.86,-90.8"/>
</g>
<!-- Node11 -->
<g id="node11" class="node">
<title>Node11</title>
<g id="a_node11"><a xlink:href="OSArena_8h.html" target="_top" xlink:title=" ">
<polygon fill="white" stroke="black" points="704.5,-62 704.5,-81 815.5,-81 815.5,-62 704.5,-62"/>
<text text-anchor="middle" x="760" y="-69" font-family="Helvetica,sans-Serif" font-size="10.00">dolphin/os/OSArena.h</text>
</a>
</g>
</g>
<!-- Node2&#45;&gt;Node11 -->
<g id="edge14" class="edge">
<title>Node2&#45;&gt;Node11</title>
<path fill="none" stroke="midnightblue" d="M844.87,-244.28C801.39,-242.44 734.38,-233.54 689,-199 660.11,-177 639.91,-153.89 659,-123 670.69,-104.08 691.85,-92.01 711.8,-84.44"/>
<polygon fill="midnightblue" stroke="midnightblue" points="713.15,-87.67 721.44,-81.07 710.85,-81.06 713.15,-87.67"/>
</g>
<!-- Node12 -->
<g id="node12" class="node">
<title>Node12</title>
<g id="a_node12"><a xlink:href="OSAudioSystem_8h.html" target="_top" xlink:title=" ">
<polygon fill="white" stroke="black" points="668.5,-123.5 668.5,-142.5 811.5,-142.5 811.5,-123.5 668.5,-123.5"/>
<text text-anchor="middle" x="740" y="-130.5" font-family="Helvetica,sans-Serif" font-size="10.00">dolphin/os/OSAudioSystem.h</text>
</a>
</g>
</g>
<!-- Node2&#45;&gt;Node12 -->
<g id="edge16" class="edge">
<title>Node2&#45;&gt;Node12</title>
<path fill="none" stroke="midnightblue" d="M844.79,-239.96C794.23,-234.24 715.08,-221.84 697,-199 684.05,-182.65 702.28,-162.43 718.84,-148.92"/>
<polygon fill="midnightblue" stroke="midnightblue" points="721.37,-151.39 727.18,-142.52 717.11,-145.84 721.37,-151.39"/>
</g>
<!-- Node13 -->
<g id="node13" class="node">
<title>Node13</title>
<g id="a_node13"><a xlink:href="OSCache_8h.html" target="_top" xlink:title=" ">
<polygon fill="white" stroke="black" points="874.5,-179.5 874.5,-198.5 987.5,-198.5 987.5,-179.5 874.5,-179.5"/>
<text text-anchor="middle" x="931" y="-186.5" font-family="Helvetica,sans-Serif" font-size="10.00">dolphin/os/OSCache.h</text>
</a>
</g>
</g>
<!-- Node2&#45;&gt;Node13 -->
<g id="edge18" class="edge">
<title>Node2&#45;&gt;Node13</title>
<path fill="none" stroke="midnightblue" d="M895.1,-235.08C901.24,-227.38 910.27,-216.03 917.74,-206.65"/>
<polygon fill="midnightblue" stroke="midnightblue" points="920.54,-208.75 924.03,-198.75 915.06,-204.39 920.54,-208.75"/>
</g>
<!-- Node14 -->
<g id="node14" class="node">
<title>Node14</title>
<g id="a_node14"><a xlink:href="OSExec_8h.html" target="_top" xlink:title=" ">
<polygon fill="white" stroke="black" points="1005.5,-179.5 1005.5,-198.5 1112.5,-198.5 1112.5,-179.5 1005.5,-179.5"/>
<text text-anchor="middle" x="1059" y="-186.5" font-family="Helvetica,sans-Serif" font-size="10.00">dolphin/os/OSExec.h</text>
</a>
</g>
</g>
<!-- Node2&#45;&gt;Node14 -->
<g id="edge22" class="edge">
<title>Node2&#45;&gt;Node14</title>
<path fill="none" stroke="midnightblue" d="M915.1,-235.44C943.99,-226.32 989.92,-211.81 1022.11,-201.65"/>
<polygon fill="midnightblue" stroke="midnightblue" points="1023.55,-204.87 1032.03,-198.52 1021.44,-198.19 1023.55,-204.87"/>
</g>
<!-- Node15 -->
<g id="node15" class="node">
<title>Node15</title>
<g id="a_node15"><a xlink:href="OSFont_8h.html" target="_top" xlink:title=" ">
<polygon fill="white" stroke="black" points="1031.5,-62 1031.5,-81 1136.5,-81 1136.5,-62 1031.5,-62"/>
<text text-anchor="middle" x="1084" y="-69" font-family="Helvetica,sans-Serif" font-size="10.00">dolphin/os/OSFont.h</text>
</a>
</g>
</g>
<!-- Node2&#45;&gt;Node15 -->
<g id="edge24" class="edge">
<title>Node2&#45;&gt;Node15</title>
<path fill="none" stroke="midnightblue" d="M931.17,-242.02C991.79,-238.23 1097.4,-227.6 1121,-199 1147.71,-166.64 1117.17,-115.73 1097.69,-89.45"/>
<polygon fill="midnightblue" stroke="midnightblue" points="1100.25,-87.04 1091.38,-81.25 1094.71,-91.31 1100.25,-87.04"/>
</g>
<!-- Node16 -->
<g id="node16" class="node">
<title>Node16</title>
<g id="a_node16"><a xlink:href="OSInterrupt_8h.html" target="_top" xlink:title=" ">
<polygon fill="white" stroke="black" points="290,-123.5 290,-142.5 412,-142.5 412,-123.5 290,-123.5"/>
<text text-anchor="middle" x="351" y="-130.5" font-family="Helvetica,sans-Serif" font-size="10.00">dolphin/os/OSInterrupt.h</text>
</a>
</g>
</g>
<!-- Node2&#45;&gt;Node16 -->
<g id="edge26" class="edge">
<title>Node2&#45;&gt;Node16</title>
<path fill="none" stroke="midnightblue" d="M844.8,-244.03C741.41,-243.48 482.74,-238.09 407,-199 386.39,-188.36 370.14,-166.62 360.56,-151.22"/>
<polygon fill="midnightblue" stroke="midnightblue" points="363.58,-149.44 355.49,-142.6 357.55,-153 363.58,-149.44"/>
</g>
<!-- Node17 -->
<g id="node17" class="node">
<title>Node17</title>
<g id="a_node17"><a xlink:href="OSLink_8h.html" target="_top" xlink:title=" ">
<polygon fill="white" stroke="black" points="1169,-179.5 1169,-198.5 1273,-198.5 1273,-179.5 1169,-179.5"/>
<text text-anchor="middle" x="1221" y="-186.5" font-family="Helvetica,sans-Serif" font-size="10.00">dolphin/os/OSLink.h</text>
</a>
</g>
</g>
<!-- Node2&#45;&gt;Node17 -->
<g id="edge28" class="edge">
<title>Node2&#45;&gt;Node17</title>
<path fill="none" stroke="midnightblue" d="M931.19,-237C989.19,-227.59 1092.61,-210.82 1158.94,-200.06"/>
<polygon fill="midnightblue" stroke="midnightblue" points="1159.54,-203.51 1168.85,-198.46 1158.42,-196.6 1159.54,-203.51"/>
</g>
<!-- Node18 -->
<g id="node18" class="node">
<title>Node18</title>
<g id="a_node18"><a xlink:href="OSMemory_8h.html" target="_top" xlink:title=" ">
<polygon fill="white" stroke="black" points="416,-179.5 416,-198.5 536,-198.5 536,-179.5 416,-179.5"/>
<text text-anchor="middle" x="476" y="-186.5" font-family="Helvetica,sans-Serif" font-size="10.00">dolphin/os/OSMemory.h</text>
</a>
</g>
</g>
<!-- Node2&#45;&gt;Node18 -->
<g id="edge30" class="edge">
<title>Node2&#45;&gt;Node18</title>
<path fill="none" stroke="midnightblue" d="M844.69,-238.32C773.71,-229.02 632,-210.45 546.43,-199.23"/>
<polygon fill="midnightblue" stroke="midnightblue" points="546.65,-195.73 536.28,-197.9 545.74,-202.67 546.65,-195.73"/>
</g>
<!-- Node19 -->
<g id="node19" class="node">
<title>Node19</title>
<g id="a_node19"><a xlink:href="OSMessage_8h.html" target="_top" xlink:title=" ">
<polygon fill="white" stroke="black" points="66.5,-179.5 66.5,-198.5 191.5,-198.5 191.5,-179.5 66.5,-179.5"/>
<text text-anchor="middle" x="129" y="-186.5" font-family="Helvetica,sans-Serif" font-size="10.00">dolphin/os/OSMessage.h</text>
</a>
</g>
</g>
<!-- Node2&#45;&gt;Node19 -->
<g id="edge33" class="edge">
<title>Node2&#45;&gt;Node19</title>
<path fill="none" stroke="midnightblue" d="M844.92,-242.06C738.01,-237.06 451.72,-222.52 201.8,-199.02"/>
<polygon fill="midnightblue" stroke="midnightblue" points="202.09,-195.53 191.8,-198.07 201.43,-202.5 202.09,-195.53"/>
</g>
<!-- Node20 -->
<g id="node20" class="node">
<title>Node20</title>
<g id="a_node20"><a xlink:href="OSThread_8h.html" target="_top" xlink:title=" ">
<polygon fill="white" stroke="black" points="156,-123.5 156,-142.5 272,-142.5 272,-123.5 156,-123.5"/>
<text text-anchor="middle" x="214" y="-130.5" font-family="Helvetica,sans-Serif" font-size="10.00">dolphin/os/OSThread.h</text>
</a>
</g>
</g>
<!-- Node2&#45;&gt;Node20 -->
<g id="edge48" class="edge">
<title>Node2&#45;&gt;Node20</title>
<path fill="none" stroke="midnightblue" d="M844.82,-244.48C756.3,-244.54 548.43,-239.85 380,-199 357.14,-193.46 352.87,-187.67 331,-179 302.5,-167.7 269.93,-155.21 246.41,-146.26"/>
<polygon fill="midnightblue" stroke="midnightblue" points="247.51,-142.94 236.92,-142.66 245.03,-149.48 247.51,-142.94"/>
</g>
<!-- Node21 -->
<g id="node21" class="node">
<title>Node21</title>
<g id="a_node21"><a xlink:href="OSMutex_8h.html" target="_top" xlink:title=" ">
<polygon fill="white" stroke="black" points="210,-179.5 210,-198.5 322,-198.5 322,-179.5 210,-179.5"/>
<text text-anchor="middle" x="266" y="-186.5" font-family="Helvetica,sans-Serif" font-size="10.00">dolphin/os/OSMutex.h</text>
</a>
</g>
</g>
<!-- Node2&#45;&gt;Node21 -->
<g id="edge36" class="edge">
<title>Node2&#45;&gt;Node21</title>
<path fill="none" stroke="midnightblue" d="M844.99,-241.18C752,-234.93 525.34,-218.88 336,-199 334.73,-198.87 333.45,-198.73 332.16,-198.59"/>
<polygon fill="midnightblue" stroke="midnightblue" points="332.47,-195.1 322.14,-197.45 331.68,-202.06 332.47,-195.1"/>
</g>
<!-- Node22 -->
<g id="node22" class="node">
<title>Node22</title>
<g id="a_node22"><a xlink:href="OSReboot_8h.html" target="_top" xlink:title=" ">
<polygon fill="white" stroke="black" points="1291,-179.5 1291,-198.5 1407,-198.5 1407,-179.5 1291,-179.5"/>
<text text-anchor="middle" x="1349" y="-186.5" font-family="Helvetica,sans-Serif" font-size="10.00">dolphin/os/OSReboot.h</text>
</a>
</g>
</g>
<!-- Node2&#45;&gt;Node22 -->
<g id="edge38" class="edge">
<title>Node2&#45;&gt;Node22</title>
<path fill="none" stroke="midnightblue" d="M931.18,-239.35C1001.93,-231.67 1147.26,-215.64 1280.9,-199.12"/>
<polygon fill="midnightblue" stroke="midnightblue" points="1281.41,-202.58 1290.9,-197.88 1280.55,-195.63 1281.41,-202.58"/>
</g>
<!-- Node23 -->
<g id="node23" class="node">
<title>Node23</title>
<g id="a_node23"><a xlink:href="OSReset_8h.html" target="_top" xlink:title=" ">
<polygon fill="white" stroke="black" points="1228.5,-123.5 1228.5,-142.5 1339.5,-142.5 1339.5,-123.5 1228.5,-123.5"/>
<text text-anchor="middle" x="1284" y="-130.5" font-family="Helvetica,sans-Serif" font-size="10.00">dolphin/os/OSReset.h</text>
</a>
</g>
</g>
<!-- Node2&#45;&gt;Node23 -->
<g id="edge40" class="edge">
<title>Node2&#45;&gt;Node23</title>
<path fill="none" stroke="midnightblue" d="M931.14,-243.59C1051.35,-242.01 1383.45,-234.45 1416,-199 1441.35,-171.39 1394.28,-154.08 1349.47,-144.33"/>
<polygon fill="midnightblue" stroke="midnightblue" points="1350.18,-140.9 1339.67,-142.3 1348.76,-147.76 1350.18,-140.9"/>
</g>
<!-- Node24 -->
<g id="node24" class="node">
<title>Node24</title>
<g id="a_node24"><a xlink:href="OSResetSW_8h.html" target="_top" xlink:title=" ">
<polygon fill="white" stroke="black" points="1357.5,-123.5 1357.5,-142.5 1484.5,-142.5 1484.5,-123.5 1357.5,-123.5"/>
<text text-anchor="middle" x="1421" y="-130.5" font-family="Helvetica,sans-Serif" font-size="10.00">dolphin/os/OSResetSW.h</text>
</a>
</g>
</g>
<!-- Node2&#45;&gt;Node24 -->
<g id="edge42" class="edge">
<title>Node2&#45;&gt;Node24</title>
<path fill="none" stroke="midnightblue" d="M931.28,-243.72C1054.43,-242.48 1400.17,-235.73 1434,-199 1445.66,-186.34 1439.26,-166.3 1431.93,-151.82"/>
<polygon fill="midnightblue" stroke="midnightblue" points="1434.84,-149.86 1426.91,-142.84 1428.73,-153.27 1434.84,-149.86"/>
</g>
<!-- Node25 -->
<g id="node25" class="node">
<title>Node25</title>
<g id="a_node25"><a xlink:href="OSRtc_8h.html" target="_top" xlink:title=" ">
<polygon fill="white" stroke="black" points="1338.5,-62 1338.5,-81 1439.5,-81 1439.5,-62 1338.5,-62"/>
<text text-anchor="middle" x="1389" y="-69" font-family="Helvetica,sans-Serif" font-size="10.00">dolphin/os/OSRtc.h</text>
</a>
</g>
</g>
<!-- Node2&#45;&gt;Node25 -->
<g id="edge44" class="edge">
<title>Node2&#45;&gt;Node25</title>
<path fill="none" stroke="midnightblue" d="M931.28,-242.61C1055.46,-238.35 1406.92,-224.17 1452,-199 1485.51,-180.29 1513.37,-155.53 1493,-123 1484.98,-110.2 1450.44,-94.99 1423.34,-84.64"/>
<polygon fill="midnightblue" stroke="midnightblue" points="1424.34,-81.27 1413.75,-81.05 1421.89,-87.83 1424.34,-81.27"/>
</g>
<!-- Node26 -->
<g id="node26" class="node">
<title>Node26</title>
<g id="a_node26"><a xlink:href="OSSync_8h.html" target="_top" xlink:title=" ">
<polygon fill="white" stroke="black" points="1541.5,-123.5 1541.5,-142.5 1648.5,-142.5 1648.5,-123.5 1541.5,-123.5"/>
<text text-anchor="middle" x="1595" y="-130.5" font-family="Helvetica,sans-Serif" font-size="10.00">dolphin/os/OSSync.h</text>
</a>
</g>
</g>
<!-- Node2&#45;&gt;Node26 -->
<g id="edge46" class="edge">
<title>Node2&#45;&gt;Node26</title>
<path fill="none" stroke="midnightblue" d="M931.45,-242.65C1066.44,-238.2 1472.84,-222.96 1527,-199 1550.47,-188.61 1570.75,-166.48 1582.91,-150.94"/>
<polygon fill="midnightblue" stroke="midnightblue" points="1585.9,-152.79 1589.1,-142.69 1580.3,-148.59 1585.9,-152.79"/>
</g>
<!-- Node3&#45;&gt;Node4 -->
<g id="edge3" class="edge">
<title>Node3&#45;&gt;Node4</title>
<path fill="none" stroke="midnightblue" d="M1502.64,-58.84C1497.36,-57.84 1492.08,-56.87 1487,-56 1391.49,-39.59 1279.25,-24.95 1215.69,-17.09"/>
<polygon fill="midnightblue" stroke="midnightblue" points="1215.89,-13.59 1205.54,-15.84 1215.04,-20.53 1215.89,-13.59"/>
</g>
<!-- Node5&#45;&gt;Node4 -->
<g id="edge5" class="edge">
<title>Node5&#45;&gt;Node4</title>
<path fill="none" stroke="midnightblue" d="M1648.54,-61.96C1640.04,-59.74 1630.7,-57.55 1622,-56 1475.82,-30.04 1300.47,-18.04 1215.75,-13.42"/>
<polygon fill="midnightblue" stroke="midnightblue" points="1215.81,-9.92 1205.64,-12.88 1215.44,-16.91 1215.81,-9.92"/>
</g>
<!-- Node6&#45;&gt;Node7 -->
<g id="edge7" class="edge">
<title>Node6&#45;&gt;Node7</title>
<path fill="none" stroke="midnightblue" d="M781.17,-179.44C800.91,-170.64 831.89,-156.81 854.49,-146.72"/>
<polygon fill="midnightblue" stroke="midnightblue" points="856.21,-149.79 863.92,-142.52 853.36,-143.4 856.21,-149.79"/>
</g>
<!-- Node6&#45;&gt;Node8 -->
<g id="edge9" class="edge">
<title>Node6&#45;&gt;Node8</title>
<path fill="none" stroke="midnightblue" d="M723.81,-179.44C681.86,-170.04 614.41,-154.93 568.93,-144.74"/>
<polygon fill="midnightblue" stroke="midnightblue" points="569.53,-141.29 559.01,-142.52 568,-148.12 569.53,-141.29"/>
</g>
<!-- Node7&#45;&gt;Node4 -->
<g id="edge8" class="edge">
<title>Node7&#45;&gt;Node4</title>
<path fill="none" stroke="midnightblue" d="M888.11,-123.31C898.03,-107.26 921.57,-73.01 951,-56 1001.62,-26.74 1068.78,-16.4 1114.26,-12.8"/>
<polygon fill="midnightblue" stroke="midnightblue" points="1114.75,-16.28 1124.48,-12.08 1114.26,-9.3 1114.75,-16.28"/>
</g>
<!-- Node8&#45;&gt;Node9 -->
<g id="edge10" class="edge">
<title>Node8&#45;&gt;Node9</title>
<path fill="none" stroke="midnightblue" d="M496.64,-123.48C467.36,-113.22 418.03,-95.96 385,-84.4"/>
<polygon fill="midnightblue" stroke="midnightblue" points="385.91,-81.01 375.31,-81.01 383.59,-87.62 385.91,-81.01"/>
</g>
<!-- Node9&#45;&gt;Node4 -->
<g id="edge11" class="edge">
<title>Node9&#45;&gt;Node4</title>
<path fill="none" stroke="midnightblue" d="M390.16,-61.93C401.66,-59.69 414.29,-57.48 426,-56 683.42,-23.42 994.37,-14.24 1114.37,-11.82"/>
<polygon fill="midnightblue" stroke="midnightblue" points="1114.44,-15.31 1124.37,-11.62 1114.31,-8.32 1114.44,-15.31"/>
</g>
<!-- Node10&#45;&gt;Node4 -->
<g id="edge13" class="edge">
<title>Node10&#45;&gt;Node4</title>
<path fill="none" stroke="midnightblue" d="M658.99,-61.99C670.62,-59.83 683.27,-57.65 695,-56 846.91,-34.65 1027.89,-20.47 1114.25,-14.38"/>
<polygon fill="midnightblue" stroke="midnightblue" points="1114.58,-17.87 1124.31,-13.68 1114.09,-10.88 1114.58,-17.87"/>
</g>
<!-- Node11&#45;&gt;Node4 -->
<g id="edge15" class="edge">
<title>Node11&#45;&gt;Node4</title>
<path fill="none" stroke="midnightblue" d="M808.51,-61.97C820.43,-59.95 833.17,-57.84 845,-56 939.92,-41.23 1051.01,-26.09 1114.19,-17.68"/>
<polygon fill="midnightblue" stroke="midnightblue" points="1114.83,-21.12 1124.28,-16.34 1113.91,-14.19 1114.83,-21.12"/>
</g>
<!-- Node12&#45;&gt;Node4 -->
<g id="edge17" class="edge">
<title>Node12&#45;&gt;Node4</title>
<path fill="none" stroke="midnightblue" d="M756.1,-123.31C785.97,-107.54 852.36,-74.19 912,-56 980.47,-35.12 1062.49,-22.73 1114.19,-16.4"/>
<polygon fill="midnightblue" stroke="midnightblue" points="1114.91,-19.84 1124.42,-15.18 1114.08,-12.89 1114.91,-19.84"/>
</g>
<!-- Node13&#45;&gt;Node4 -->
<g id="edge19" class="edge">
<title>Node13&#45;&gt;Node4</title>
<path fill="none" stroke="midnightblue" d="M933.58,-179.39C941.09,-155.85 965.23,-89.9 1009,-56 1039.26,-32.56 1081.32,-21.33 1114.14,-15.94"/>
<polygon fill="midnightblue" stroke="midnightblue" points="1115.08,-19.34 1124.44,-14.39 1114.03,-12.42 1115.08,-19.34"/>
</g>
<!-- Node14&#45;&gt;Node4 -->
<g id="edge23" class="edge">
<title>Node14&#45;&gt;Node4</title>
<path fill="none" stroke="midnightblue" d="M1052,-179.38C1034.63,-156.91 993,-95.53 1022,-56 1042.98,-27.41 1082.13,-16.5 1114.18,-12.56"/>
<polygon fill="midnightblue" stroke="midnightblue" points="1114.71,-16.02 1124.3,-11.51 1113.99,-9.06 1114.71,-16.02"/>
</g>
<!-- Node15&#45;&gt;Node4 -->
<g id="edge25" class="edge">
<title>Node15&#45;&gt;Node4</title>
<path fill="none" stroke="midnightblue" d="M1095.61,-61.98C1108.48,-52.52 1129.47,-37.1 1145.01,-25.69"/>
<polygon fill="midnightblue" stroke="midnightblue" points="1147.43,-28.25 1153.42,-19.51 1143.28,-22.61 1147.43,-28.25"/>
</g>
<!-- Node16&#45;&gt;Node9 -->
<g id="edge27" class="edge">
<title>Node16&#45;&gt;Node9</title>
<path fill="none" stroke="midnightblue" d="M351,-123.48C351,-115.08 351,-101.98 351,-91.16"/>
<polygon fill="midnightblue" stroke="midnightblue" points="354.5,-91.01 351,-81.01 347.5,-91.01 354.5,-91.01"/>
</g>
<!-- Node17&#45;&gt;Node4 -->
<g id="edge29" class="edge">
<title>Node17&#45;&gt;Node4</title>
<path fill="none" stroke="midnightblue" d="M1211.96,-179.25C1203.8,-170.78 1192.15,-157.16 1186,-143 1169.59,-105.17 1165.84,-56.26 1165.09,-29.87"/>
<polygon fill="midnightblue" stroke="midnightblue" points="1168.58,-29.69 1164.91,-19.75 1161.58,-29.81 1168.58,-29.69"/>
</g>
<!-- Node18&#45;&gt;Node4 -->
<g id="edge31" class="edge">
<title>Node18&#45;&gt;Node4</title>
<path fill="none" stroke="midnightblue" d="M469.84,-179.14C461.67,-166.2 449.34,-141.64 459,-123 482.78,-77.13 505.36,-73.42 554,-56 656.63,-19.25 986.66,-12.5 1114.11,-11.27"/>
<polygon fill="midnightblue" stroke="midnightblue" points="1114.4,-14.77 1124.37,-11.18 1114.34,-7.77 1114.4,-14.77"/>
</g>
<!-- Node18&#45;&gt;Node16 -->
<g id="edge32" class="edge">
<title>Node18&#45;&gt;Node16</title>
<path fill="none" stroke="midnightblue" d="M456.19,-179.44C435.71,-170.6 403.52,-156.69 380.14,-146.59"/>
<polygon fill="midnightblue" stroke="midnightblue" points="381.28,-143.27 370.71,-142.52 378.51,-149.7 381.28,-143.27"/>
</g>
<!-- Node19&#45;&gt;Node20 -->
<g id="edge34" class="edge">
<title>Node19&#45;&gt;Node20</title>
<path fill="none" stroke="midnightblue" d="M142.66,-179.32C155.92,-170.9 176.27,-157.97 191.85,-148.07"/>
<polygon fill="midnightblue" stroke="midnightblue" points="193.81,-150.97 200.38,-142.65 190.06,-145.06 193.81,-150.97"/>
</g>
<!-- Node20&#45;&gt;Node9 -->
<g id="edge35" class="edge">
<title>Node20&#45;&gt;Node9</title>
<path fill="none" stroke="midnightblue" d="M233.63,-123.48C256.82,-113.4 295.62,-96.55 322.21,-85"/>
<polygon fill="midnightblue" stroke="midnightblue" points="323.63,-88.2 331.41,-81.01 320.84,-81.78 323.63,-88.2"/>
</g>
<!-- Node21&#45;&gt;Node20 -->
<g id="edge37" class="edge">
<title>Node21&#45;&gt;Node20</title>
<path fill="none" stroke="midnightblue" d="M257.41,-179.08C249.84,-171.22 238.62,-159.57 229.49,-150.08"/>
<polygon fill="midnightblue" stroke="midnightblue" points="231.88,-147.53 222.43,-142.75 226.84,-152.38 231.88,-147.53"/>
</g>
<!-- Node22&#45;&gt;Node4 -->
<g id="edge39" class="edge">
<title>Node22&#45;&gt;Node4</title>
<path fill="none" stroke="midnightblue" d="M1292.94,-179.43C1267.7,-173.07 1239.12,-162.04 1219,-143 1217.9,-141.95 1186.64,-64.67 1172.2,-28.86"/>
<polygon fill="midnightblue" stroke="midnightblue" points="1175.44,-27.54 1168.45,-19.58 1168.95,-30.16 1175.44,-27.54"/>
</g>
<!-- Node23&#45;&gt;Node4 -->
<g id="edge41" class="edge">
<title>Node23&#45;&gt;Node4</title>
<path fill="none" stroke="midnightblue" d="M1276.92,-123.23C1265.08,-108.71 1240.24,-79.03 1217,-56 1206.4,-45.5 1193.75,-34.52 1183.59,-26.04"/>
<polygon fill="midnightblue" stroke="midnightblue" points="1185.67,-23.22 1175.73,-19.57 1181.22,-28.63 1185.67,-23.22"/>
</g>
<!-- Node24&#45;&gt;Node4 -->
<g id="edge43" class="edge">
<title>Node24&#45;&gt;Node4</title>
<path fill="none" stroke="midnightblue" d="M1403,-123.49C1358.86,-102.63 1245.01,-48.82 1192.4,-23.95"/>
<polygon fill="midnightblue" stroke="midnightblue" points="1193.86,-20.77 1183.32,-19.66 1190.87,-27.1 1193.86,-20.77"/>
</g>
<!-- Node25&#45;&gt;Node4 -->
<g id="edge45" class="edge">
<title>Node25&#45;&gt;Node4</title>
<path fill="none" stroke="midnightblue" d="M1356.91,-61.98C1317.4,-51.48 1250.22,-33.64 1206.74,-22.09"/>
<polygon fill="midnightblue" stroke="midnightblue" points="1207.6,-18.69 1197.03,-19.51 1205.8,-25.46 1207.6,-18.69"/>
</g>
<!-- Node26&#45;&gt;Node4 -->
<g id="edge47" class="edge">
<title>Node26&#45;&gt;Node4</title>
<path fill="none" stroke="midnightblue" d="M1572.8,-123.41C1551.97,-115.05 1520.19,-101.52 1494,-87 1472.44,-75.05 1470.94,-65.04 1448,-56 1370.71,-25.55 1273.85,-15.68 1215.83,-12.49"/>
<polygon fill="midnightblue" stroke="midnightblue" points="1215.97,-9 1205.81,-11.99 1215.62,-15.99 1215.97,-9"/>
</g>
<!-- Node27&#45;&gt;Node4 -->
<g id="edge52" class="edge">
<title>Node27&#45;&gt;Node4</title>
<path fill="none" stroke="midnightblue" d="M1571.5,-235.33C1631.44,-208.86 1798.2,-126.57 1733,-56 1698.28,-18.42 1348.68,-12.19 1215.84,-11.18"/>
<polygon fill="midnightblue" stroke="midnightblue" points="1215.56,-7.68 1205.54,-11.11 1215.51,-14.68 1215.56,-7.68"/>
</g>
<!-- Node28&#45;&gt;Node4 -->
<g id="edge56" class="edge">
<title>Node28&#45;&gt;Node4</title>
<path fill="none" stroke="midnightblue" d="M1869.09,-123.32C1882.52,-107.86 1906.22,-75.39 1888,-56 1865,-31.52 1376.66,-16.55 1215.85,-12.28"/>
<polygon fill="midnightblue" stroke="midnightblue" points="1215.83,-8.77 1205.74,-12.01 1215.64,-15.77 1215.83,-8.77"/>
</g>
<!-- Node29 -->
<g id="node29" class="node">
<title>Node29</title>
<g id="a_node29"><a xlink:href="card_8h.html" target="_top" xlink:title=" ">
<polygon fill="white" stroke="black" points="1781,-62 1781,-81 1879,-81 1879,-62 1781,-62"/>
<text text-anchor="middle" x="1830" y="-69" font-family="Helvetica,sans-Serif" font-size="10.00">dolphin/card/card.h</text>
</a>
</g>
</g>
<!-- Node28&#45;&gt;Node29 -->
<g id="edge54" class="edge">
<title>Node28&#45;&gt;Node29</title>
<path fill="none" stroke="midnightblue" d="M1856.56,-123.48C1852.05,-114.82 1844.93,-101.15 1839.19,-90.15"/>
<polygon fill="midnightblue" stroke="midnightblue" points="1842.16,-88.26 1834.43,-81.01 1835.95,-91.49 1842.16,-88.26"/>
</g>
<!-- Node29&#45;&gt;Node4 -->
<g id="edge55" class="edge">
<title>Node29&#45;&gt;Node4</title>
<path fill="none" stroke="midnightblue" d="M1797.16,-61.95C1787.5,-59.71 1776.88,-57.5 1767,-56 1564.38,-25.29 1320.08,-15.24 1215.98,-12.21"/>
<polygon fill="midnightblue" stroke="midnightblue" points="1215.85,-8.7 1205.75,-11.92 1215.65,-15.7 1215.85,-8.7"/>
</g>
</g>
</svg>
        <g id="navigator" transform="translate(0 0)" fill="#404254">
                <rect fill="#f2f5e9" fill-opacity="0.5" stroke="#606060" stroke-width=".5" x="0" y="0" width="60" height="60"/>
                <use id="zoomplus" xlink:href="#zoomPlus" x="17" y="9" onmousedown="handleZoom(evt,'in')"/>
                <use id="zoomminus" xlink:href="#zoomMin" x="42" y="9" onmousedown="handleZoom(evt,'out')"/>
                <use id="reset" xlink:href="#resetDef" x="30" y="36" onmousedown="handleReset()"/>
                <g id="arrowUp" xlink:href="#dirArrow" transform="translate(30 24)" onmousedown="handlePan(0,-1)">
                  <use xlink:href="#rim" fill="#404040">
                        <set attributeName="fill" to="#808080" begin="arrowUp.mouseover" end="arrowUp.mouseout"/>
                  </use>
                  <path fill="none" stroke="white" stroke-width="1.5" d="M0,-3.0v7 M-2.5,-0.5L0,-3.0L2.5,-0.5"/>
                </g>
                <g id="arrowRight" xlink:href="#dirArrow" transform="rotate(90) translate(36 -43)" onmousedown="handlePan(1,0)">
                  <use xlink:href="#rim" fill="#404040">
                        <set attributeName="fill" to="#808080" begin="arrowRight.mouseover" end="arrowRight.mouseout"/>
                  </use>
                  <path fill="none" stroke="white" stroke-width="1.5" d="M0,-3.0v7 M-2.5,-0.5L0,-3.0L2.5,-0.5"/>
                </g>
                <g id="arrowDown" xlink:href="#dirArrow" transform="rotate(180) translate(-30 -48)" onmousedown="handlePan(0,1)">
                  <use xlink:href="#rim" fill="#404040">
                        <set attributeName="fill" to="#808080" begin="arrowDown.mouseover" end="arrowDown.mouseout"/>
                  </use>
                  <path fill="none" stroke="white" stroke-width="1.5" d="M0,-3.0v7 M-2.5,-0.5L0,-3.0L2.5,-0.5"/>
                </g>
                <g id="arrowLeft" xlink:href="#dirArrow" transform="rotate(270) translate(-36 17)" onmousedown="handlePan(-1,0)">
                  <use xlink:href="#rim" fill="#404040">
                        <set attributeName="fill" to="#808080" begin="arrowLeft.mouseover" end="arrowLeft.mouseout"/>
                  </use>
                  <path fill="none" stroke="white" stroke-width="1.5" d="M0,-3.0v7 M-2.5,-0.5L0,-3.0L2.5,-0.5"/>
                </g>
        </g>
        <svg viewBox="0 0 15 15" width="100%" height="30px" preserveAspectRatio="xMaxYMin meet">
         <g id="arrow_out" transform="scale(0.3 0.3)">
          <a xlink:href="m__Do__MemCard_8h__incl_org.svg" target="_base">
           <rect id="button" ry="5" rx="5" y="6" x="6" height="38" width="38"
                fill="#f2f5e9" fill-opacity="0.5" stroke="#606060" stroke-width="1.0"/>
           <path id="arrow"
             d="M 11.500037,31.436501 C 11.940474,20.09759 22.043105,11.32322 32.158766,21.979434 L 37.068811,17.246167 C 37.068811,17.246167 37.088388,32 37.088388,32 L 22.160133,31.978069 C 22.160133,31.978069 26.997745,27.140456 26.997745,27.140456 C 18.528582,18.264221 13.291696,25.230495 11.500037,31.436501 z"
             style="fill:#404040;"/>
          </a>
         </g>
        </svg>
</svg>
