<?xml version="1.0" encoding="UTF-8" standalone="no"?>
<!DOCTYPE svg PUBLIC "-//W3C//DTD SVG 1.1//EN"
 "http://www.w3.org/Graphics/SVG/1.1/DTD/svg11.dtd">
<!-- Generated by graphviz version 3.0.0 (20220413.0242)
 -->
<!-- Title: include/m_Do/m_Do_graphic.h Pages: 1 -->
<svg width="5133pt" height="430pt"
 viewBox="0.00 0.00 5132.59 430.00" xmlns="http://www.w3.org/2000/svg" xmlns:xlink="http://www.w3.org/1999/xlink">
<g id="graph0" class="graph" transform="scale(1 1) rotate(0) translate(4 426)">
<title>include/m_Do/m_Do_graphic.h</title>
<polygon fill="white" stroke="transparent" points="-4,4 -4,-426 5128.59,-426 5128.59,4 -4,4"/>
<!-- Node1 -->
<g id="node1" class="node">
<title>Node1</title>
<g id="a_node1"><a xlink:title=" ">
<polygon fill="#bfbfbf" stroke="black" points="4756.59,-402.5 4756.59,-421.5 4905.59,-421.5 4905.59,-402.5 4756.59,-402.5"/>
<text text-anchor="middle" x="4831.09" y="-409.5" font-family="Helvetica,sans-Serif" font-size="10.00">include/m_Do/m_Do_graphic.h</text>
</a>
</g>
</g>
<!-- Node2 -->
<g id="node2" class="node">
<title>Node2</title>
<g id="a_node2"><a xlink:href="d__menu__window_8h.html" target="_top" xlink:title=" ">
<polygon fill="white" stroke="black" points="3282.09,-335.5 3282.09,-365.5 3402.09,-365.5 3402.09,-335.5 3282.09,-335.5"/>
<text text-anchor="start" x="3290.09" y="-353.5" font-family="Helvetica,sans-Serif" font-size="10.00">include/d/menu/d_menu</text>
<text text-anchor="middle" x="3342.09" y="-342.5" font-family="Helvetica,sans-Serif" font-size="10.00">_window.h</text>
</a>
</g>
</g>
<!-- Node1&#45;&gt;Node2 -->
<g id="edge1" class="edge">
<title>Node1&#45;&gt;Node2</title>
<path fill="none" stroke="midnightblue" d="M4746.32,-407.61C4475.46,-396.79 3635.06,-363.21 3402.36,-353.91"/>
<polygon fill="midnightblue" stroke="midnightblue" points="4746.35,-411.12 4756.48,-408.02 4746.63,-404.12 4746.35,-411.12"/>
</g>
<!-- Node104 -->
<g id="node47" class="node">
<title>Node104</title>
<g id="a_node47"><a xlink:href="m__Do__graphic_8cpp.html" target="_top" xlink:title=" ">
<polygon fill="white" stroke="black" points="4511.09,-78.5 4511.09,-97.5 4653.09,-97.5 4653.09,-78.5 4511.09,-78.5"/>
<text text-anchor="middle" x="4582.09" y="-85.5" font-family="Helvetica,sans-Serif" font-size="10.00">src/m_Do/m_Do_graphic.cpp</text>
</a>
</g>
</g>
<!-- Node1&#45;&gt;Node104 -->
<g id="edge69" class="edge">
<title>Node1&#45;&gt;Node104</title>
<path fill="none" stroke="midnightblue" d="M4822.1,-393.11C4810.86,-369.05 4793.09,-324.65 4793.09,-284.5 4793.09,-284.5 4793.09,-284.5 4793.09,-221 4793.09,-176.82 4658.44,-118.99 4604.27,-97.51"/>
<polygon fill="midnightblue" stroke="midnightblue" points="4819.08,-394.9 4826.58,-402.37 4825.38,-391.85 4819.08,-394.9"/>
</g>
<!-- Node106 -->
<g id="node48" class="node">
<title>Node106</title>
<g id="a_node48"><a xlink:href="m__Do__main_8cpp.html" target="_top" xlink:title=" ">
<polygon fill="white" stroke="black" points="4671.59,-78.5 4671.59,-97.5 4802.59,-97.5 4802.59,-78.5 4671.59,-78.5"/>
<text text-anchor="middle" x="4737.09" y="-85.5" font-family="Helvetica,sans-Serif" font-size="10.00">src/m_Do/m_Do_main.cpp</text>
</a>
</g>
</g>
<!-- Node1&#45;&gt;Node106 -->
<g id="edge70" class="edge">
<title>Node1&#45;&gt;Node106</title>
<path fill="none" stroke="midnightblue" d="M4831.09,-392.3C4831.09,-367.62 4831.09,-322.8 4831.09,-284.5 4831.09,-284.5 4831.09,-284.5 4831.09,-221 4831.09,-185.58 4827.12,-174.22 4807.09,-145 4792.74,-124.08 4768.29,-107.09 4752.41,-97.52"/>
<polygon fill="midnightblue" stroke="midnightblue" points="4827.59,-392.41 4831.09,-402.41 4834.59,-392.41 4827.59,-392.41"/>
</g>
<!-- Node107 -->
<g id="node49" class="node">
<title>Node107</title>
<g id="a_node49"><a xlink:href="d__drawlist_8cpp.html" target="_top" xlink:title=" ">
<polygon fill="white" stroke="black" points="4859.09,-341 4859.09,-360 4963.09,-360 4963.09,-341 4859.09,-341"/>
<text text-anchor="middle" x="4911.09" y="-348" font-family="Helvetica,sans-Serif" font-size="10.00">src/d/d_drawlist.cpp</text>
</a>
</g>
</g>
<!-- Node1&#45;&gt;Node107 -->
<g id="edge67" class="edge">
<title>Node1&#45;&gt;Node107</title>
<path fill="none" stroke="midnightblue" d="M4850.86,-396.29C4866.21,-384.88 4886.94,-369.46 4899.65,-360.01"/>
<polygon fill="midnightblue" stroke="midnightblue" points="4848.49,-393.7 4842.55,-402.48 4852.66,-399.32 4848.49,-393.7"/>
</g>
<!-- Node108 -->
<g id="node50" class="node">
<title>Node108</title>
<g id="a_node50"><a xlink:href="d__pane__class_8cpp.html" target="_top" xlink:title=" ">
<polygon fill="white" stroke="black" points="4981.59,-341 4981.59,-360 5124.59,-360 5124.59,-341 4981.59,-341"/>
<text text-anchor="middle" x="5053.09" y="-348" font-family="Helvetica,sans-Serif" font-size="10.00">src/d/pane/d_pane_class.cpp</text>
</a>
</g>
</g>
<!-- Node1&#45;&gt;Node108 -->
<g id="edge68" class="edge">
<title>Node1&#45;&gt;Node108</title>
<path fill="none" stroke="midnightblue" d="M4872.79,-399.82C4915.92,-388.26 4982.3,-370.47 5021.34,-360.01"/>
<polygon fill="midnightblue" stroke="midnightblue" points="4871.65,-396.51 4862.9,-402.48 4873.46,-403.27 4871.65,-396.51"/>
</g>
<!-- Node3 -->
<g id="node3" class="node">
<title>Node3</title>
<g id="a_node3"><a xlink:href="d__meter2__info_8h.html" target="_top" xlink:title=" ">
<polygon fill="white" stroke="black" points="3278.59,-268.5 3278.59,-298.5 3405.59,-298.5 3405.59,-268.5 3278.59,-268.5"/>
<text text-anchor="start" x="3286.59" y="-286.5" font-family="Helvetica,sans-Serif" font-size="10.00">include/d/meter/d_meter2</text>
<text text-anchor="middle" x="3342.09" y="-275.5" font-family="Helvetica,sans-Serif" font-size="10.00">_info.h</text>
</a>
</g>
</g>
<!-- Node2&#45;&gt;Node3 -->
<g id="edge2" class="edge">
<title>Node2&#45;&gt;Node3</title>
<path fill="none" stroke="midnightblue" d="M3335.54,-325.4C3335.09,-316.37 3335.38,-306.41 3336.41,-298.58"/>
<polygon fill="midnightblue" stroke="midnightblue" points="3332.06,-325.74 3336.41,-335.4 3339.03,-325.13 3332.06,-325.74"/>
</g>
<!-- Node46 -->
<g id="node22" class="node">
<title>Node46</title>
<g id="a_node22"><a xlink:href="d__menu__window_8cpp.html" target="_top" xlink:title=" ">
<polygon fill="white" stroke="black" points="548.59,-6 548.59,-25 707.59,-25 707.59,-6 548.59,-6"/>
<text text-anchor="middle" x="628.09" y="-13" font-family="Helvetica,sans-Serif" font-size="10.00">src/d/menu/d_menu_window.cpp</text>
</a>
</g>
</g>
<!-- Node2&#45;&gt;Node46 -->
<g id="edge65" class="edge">
<title>Node2&#45;&gt;Node46</title>
<path fill="none" stroke="midnightblue" d="M3271.71,-348.7C2793.31,-343.05 38.09,-306.87 38.09,-223 38.09,-223 38.09,-223 38.09,-159.5 38.09,-117.53 25.76,-94.93 57.09,-67 66.15,-58.92 393.54,-33.79 548.42,-22.32"/>
<polygon fill="midnightblue" stroke="midnightblue" points="3271.88,-352.2 3281.92,-348.82 3271.96,-345.2 3271.88,-352.2"/>
</g>
<!-- Node47 -->
<g id="node23" class="node">
<title>Node47</title>
<g id="a_node23"><a xlink:href="d__meter__map_8cpp.html" target="_top" xlink:title=" ">
<polygon fill="white" stroke="black" points="310.09,-0.5 310.09,-30.5 414.09,-30.5 414.09,-0.5 310.09,-0.5"/>
<text text-anchor="start" x="318.09" y="-18.5" font-family="Helvetica,sans-Serif" font-size="10.00">src/d/meter/d_meter</text>
<text text-anchor="middle" x="362.09" y="-7.5" font-family="Helvetica,sans-Serif" font-size="10.00">_map.cpp</text>
</a>
</g>
</g>
<!-- Node2&#45;&gt;Node47 -->
<g id="edge66" class="edge">
<title>Node2&#45;&gt;Node47</title>
<path fill="none" stroke="midnightblue" d="M3271.63,-349.04C2850.42,-346.19 673.76,-330.07 378.09,-299 207.66,-281.09 0.09,-394.36 0.09,-223 0.09,-223 0.09,-223 0.09,-159.5 0.09,-116 -1.33,-94.85 32.09,-67 73.33,-32.63 227.69,-21.56 309.85,-18.06"/>
<polygon fill="midnightblue" stroke="midnightblue" points="3271.81,-352.54 3281.83,-349.11 3271.86,-345.54 3271.81,-352.54"/>
</g>
<!-- Node3&#45;&gt;Node2 -->
<g id="edge60" class="edge">
<title>Node3&#45;&gt;Node2</title>
<path fill="none" stroke="midnightblue" d="M3348.63,-308.57C3349.08,-317.6 3348.79,-327.56 3347.77,-335.4"/>
<polygon fill="midnightblue" stroke="midnightblue" points="3352.12,-308.24 3347.76,-298.58 3345.14,-308.84 3352.12,-308.24"/>
</g>
<!-- Node4 -->
<g id="node4" class="node">
<title>Node4</title>
<g id="a_node4"><a xlink:href="d__a__alink_8h.html" target="_top" xlink:title=" ">
<polygon fill="white" stroke="black" points="3284.09,-212.5 3284.09,-231.5 3400.09,-231.5 3400.09,-212.5 3284.09,-212.5"/>
<text text-anchor="middle" x="3342.09" y="-219.5" font-family="Helvetica,sans-Serif" font-size="10.00">include/d/a/d_a_alink.h</text>
</a>
</g>
</g>
<!-- Node3&#45;&gt;Node4 -->
<g id="edge3" class="edge">
<title>Node3&#45;&gt;Node4</title>
<path fill="none" stroke="midnightblue" d="M3342.09,-258.29C3342.09,-248.86 3342.09,-238.65 3342.09,-231.66"/>
<polygon fill="midnightblue" stroke="midnightblue" points="3338.59,-258.4 3342.09,-268.4 3345.59,-258.4 3338.59,-258.4"/>
</g>
<!-- Node11 -->
<g id="node7" class="node">
<title>Node11</title>
<g id="a_node7"><a xlink:href="d__meter2__info_8cpp.html" target="_top" xlink:title=" ">
<polygon fill="white" stroke="black" points="3585.09,-0.5 3585.09,-30.5 3695.09,-30.5 3695.09,-0.5 3585.09,-0.5"/>
<text text-anchor="start" x="3593.09" y="-18.5" font-family="Helvetica,sans-Serif" font-size="10.00">src/d/meter/d_meter2</text>
<text text-anchor="middle" x="3640.09" y="-7.5" font-family="Helvetica,sans-Serif" font-size="10.00">_info.cpp</text>
</a>
</g>
</g>
<!-- Node3&#45;&gt;Node11 -->
<g id="edge63" class="edge">
<title>Node3&#45;&gt;Node11</title>
<path fill="none" stroke="midnightblue" d="M3415.81,-279.75C3610.57,-270.78 4131.02,-235.23 4235.09,-109 4246.96,-94.6 4247.72,-80.75 4235.09,-67 4216.94,-47.25 3839.12,-26.42 3695.15,-19.17"/>
<polygon fill="midnightblue" stroke="midnightblue" points="3415.5,-276.26 3405.67,-280.2 3415.82,-283.25 3415.5,-276.26"/>
</g>
<!-- Node20 -->
<g id="node12" class="node">
<title>Node20</title>
<g id="a_node12"><a xlink:href="d__com__inf__game_8cpp.html" target="_top" xlink:title=" ">
<polygon fill="white" stroke="black" points="4429.09,-0.5 4429.09,-30.5 4537.09,-30.5 4537.09,-0.5 4429.09,-0.5"/>
<text text-anchor="start" x="4437.09" y="-18.5" font-family="Helvetica,sans-Serif" font-size="10.00">src/d/com/d_com_inf</text>
<text text-anchor="middle" x="4483.09" y="-7.5" font-family="Helvetica,sans-Serif" font-size="10.00">_game.cpp</text>
</a>
</g>
</g>
<!-- Node3&#45;&gt;Node20 -->
<g id="edge61" class="edge">
<title>Node3&#45;&gt;Node20</title>
<path fill="none" stroke="midnightblue" d="M3415.95,-279.49C3701.07,-267.14 4718.73,-215.79 4811.09,-109 4823.3,-94.88 4823.24,-81.17 4811.09,-67 4793.5,-46.5 4625.73,-28.94 4537.2,-21.01"/>
<polygon fill="midnightblue" stroke="midnightblue" points="3415.56,-276.01 3405.72,-279.93 3415.86,-283 3415.56,-276.01"/>
</g>
<!-- Node21 -->
<g id="node13" class="node">
<title>Node21</title>
<g id="a_node13"><a xlink:href="d__item_8cpp.html" target="_top" xlink:title=" ">
<polygon fill="white" stroke="black" points="4689.59,-6 4689.59,-25 4778.59,-25 4778.59,-6 4689.59,-6"/>
<text text-anchor="middle" x="4734.09" y="-13" font-family="Helvetica,sans-Serif" font-size="10.00">src/d/d_item.cpp</text>
</a>
</g>
</g>
<!-- Node3&#45;&gt;Node21 -->
<g id="edge62" class="edge">
<title>Node3&#45;&gt;Node21</title>
<path fill="none" stroke="midnightblue" d="M3415.95,-280.71C3661.3,-274.11 4447.3,-247.77 4689.09,-176 4755.6,-156.26 4793.02,-167.65 4830.09,-109 4840.06,-93.22 4839.74,-82.98 4830.09,-67 4816.95,-45.24 4790.97,-32.38 4769.35,-25.1"/>
<polygon fill="midnightblue" stroke="midnightblue" points="3415.62,-277.21 3405.71,-280.98 3415.8,-284.21 3415.62,-277.21"/>
</g>
<!-- Node97 -->
<g id="node46" class="node">
<title>Node97</title>
<g id="a_node46"><a xlink:href="d__save_8cpp.html" target="_top" xlink:title=" ">
<polygon fill="white" stroke="black" points="66.59,-78.5 66.59,-97.5 181.59,-97.5 181.59,-78.5 66.59,-78.5"/>
<text text-anchor="middle" x="124.09" y="-85.5" font-family="Helvetica,sans-Serif" font-size="10.00">src/d/save/d_save.cpp</text>
</a>
</g>
</g>
<!-- Node3&#45;&gt;Node97 -->
<g id="edge64" class="edge">
<title>Node3&#45;&gt;Node97</title>
<path fill="none" stroke="midnightblue" d="M3267.97,-282.14C2957.35,-280.06 1729.9,-266.27 726.09,-176 487.42,-154.54 425.59,-158.33 191.09,-109 177.07,-106.05 161.74,-101.57 149.29,-97.6"/>
<polygon fill="midnightblue" stroke="midnightblue" points="3268.18,-285.64 3278.2,-282.2 3268.22,-278.64 3268.18,-285.64"/>
</g>
<!-- Node5 -->
<g id="node5" class="node">
<title>Node5</title>
<g id="a_node5"><a xlink:href="d__com__inf__game_8h.html" target="_top" xlink:title=" ">
<polygon fill="white" stroke="red" points="2418.09,-145.5 2418.09,-175.5 2528.09,-175.5 2528.09,-145.5 2418.09,-145.5"/>
<text text-anchor="start" x="2426.09" y="-163.5" font-family="Helvetica,sans-Serif" font-size="10.00">include/d/com/d_com</text>
<text text-anchor="middle" x="2473.09" y="-152.5" font-family="Helvetica,sans-Serif" font-size="10.00">_inf_game.h</text>
</a>
</g>
</g>
<!-- Node4&#45;&gt;Node5 -->
<g id="edge4" class="edge">
<title>Node4&#45;&gt;Node5</title>
<path fill="none" stroke="midnightblue" d="M3273.92,-216.33C3107.03,-204.91 2680.47,-175.7 2528.16,-165.27"/>
<polygon fill="midnightblue" stroke="midnightblue" points="3273.84,-219.84 3284.06,-217.03 3274.32,-212.85 3273.84,-219.84"/>
</g>
<!-- Node15 -->
<g id="node10" class="node">
<title>Node15</title>
<g id="a_node10"><a xlink:href="d__a__alink_8cpp.html" target="_top" xlink:title=" ">
<polygon fill="white" stroke="black" points="3971.59,-6 3971.59,-25 4080.59,-25 4080.59,-6 3971.59,-6"/>
<text text-anchor="middle" x="4026.09" y="-13" font-family="Helvetica,sans-Serif" font-size="10.00">src/d/a/d_a_alink.cpp</text>
</a>
</g>
</g>
<!-- Node4&#45;&gt;Node15 -->
<g id="edge59" class="edge">
<title>Node4&#45;&gt;Node15</title>
<path fill="none" stroke="midnightblue" d="M3410.23,-217.56C3609.5,-206.8 4180.57,-170.79 4235.09,-109 4282.81,-54.93 4157.42,-31.01 4080.68,-21.68"/>
<polygon fill="midnightblue" stroke="midnightblue" points="3409.98,-214.07 3400.18,-218.1 3410.35,-221.06 3409.98,-214.07"/>
</g>
<!-- Node6 -->
<g id="node6" class="node">
<title>Node6</title>
<g id="a_node6"><a xlink:href="d__a__npc_8h.html" target="_top" xlink:title=" ">
<polygon fill="white" stroke="red" points="3717.59,-78.5 3717.59,-97.5 3828.59,-97.5 3828.59,-78.5 3717.59,-78.5"/>
<text text-anchor="middle" x="3773.09" y="-85.5" font-family="Helvetica,sans-Serif" font-size="10.00">include/d/a/d_a_npc.h</text>
</a>
</g>
</g>
<!-- Node5&#45;&gt;Node6 -->
<g id="edge5" class="edge">
<title>Node5&#45;&gt;Node6</title>
<path fill="none" stroke="midnightblue" d="M2538.31,-159.05C2759.49,-157.16 3479.98,-148.08 3708.09,-109 3722.4,-106.55 3737.97,-101.83 3750.28,-97.6"/>
<polygon fill="midnightblue" stroke="midnightblue" points="2538.13,-155.55 2528.16,-159.13 2538.18,-162.55 2538.13,-155.55"/>
</g>
<!-- Node5&#45;&gt;Node11 -->
<g id="edge54" class="edge">
<title>Node5&#45;&gt;Node11</title>
<path fill="none" stroke="midnightblue" d="M2538.66,-159.24C2755.75,-157.98 3442.33,-150.71 3532.09,-109 3555.19,-98.26 3552.06,-83.93 3571.09,-67 3586.17,-53.58 3604.7,-40.17 3618.76,-30.54"/>
<polygon fill="midnightblue" stroke="midnightblue" points="2538.36,-155.74 2528.38,-159.3 2538.4,-162.74 2538.36,-155.74"/>
</g>
<!-- Node12 -->
<g id="node8" class="node">
<title>Node12</title>
<g id="a_node8"><a xlink:href="d__cc__uty_8h.html" target="_top" xlink:title=" ">
<polygon fill="white" stroke="red" points="3580.59,-78.5 3580.59,-97.5 3699.59,-97.5 3699.59,-78.5 3580.59,-78.5"/>
<text text-anchor="middle" x="3640.09" y="-85.5" font-family="Helvetica,sans-Serif" font-size="10.00">include/d/cc/d_cc_uty.h</text>
</a>
</g>
</g>
<!-- Node5&#45;&gt;Node12 -->
<g id="edge7" class="edge">
<title>Node5&#45;&gt;Node12</title>
<path fill="none" stroke="midnightblue" d="M2538.54,-158.34C2742.74,-154.45 3366.28,-140.23 3566.09,-109 3582.26,-106.47 3599.98,-101.76 3614.02,-97.54"/>
<polygon fill="midnightblue" stroke="midnightblue" points="2538.21,-154.85 2528.28,-158.54 2538.34,-161.85 2538.21,-154.85"/>
</g>
<!-- Node18 -->
<g id="node9" class="node">
<title>Node18</title>
<g id="a_node9"><a xlink:href="d__item_8h.html" target="_top" xlink:title=" ">
<polygon fill="white" stroke="red" points="4359.59,-78.5 4359.59,-97.5 4454.59,-97.5 4454.59,-78.5 4359.59,-78.5"/>
<text text-anchor="middle" x="4407.09" y="-85.5" font-family="Helvetica,sans-Serif" font-size="10.00">include/d/d_item.h</text>
</a>
</g>
</g>
<!-- Node5&#45;&gt;Node18 -->
<g id="edge8" class="edge">
<title>Node5&#45;&gt;Node18</title>
<path fill="none" stroke="midnightblue" d="M2538.52,-158.84C2848.8,-155.56 4164.38,-139.93 4345.09,-109 4358.91,-106.63 4373.89,-101.87 4385.66,-97.58"/>
<polygon fill="midnightblue" stroke="midnightblue" points="2538.3,-155.34 2528.34,-158.95 2538.38,-162.34 2538.3,-155.34"/>
</g>
<!-- Node5&#45;&gt;Node15 -->
<g id="edge35" class="edge">
<title>Node5&#45;&gt;Node15</title>
<path fill="none" stroke="midnightblue" d="M2538.66,-158.47C2802.79,-154.12 3777.53,-136.29 3837.09,-109 3860.25,-98.39 3854.69,-80.82 3876.09,-67 3908.86,-45.83 3951.43,-32.6 3982.84,-25.03"/>
<polygon fill="midnightblue" stroke="midnightblue" points="2538.4,-154.97 2528.45,-158.63 2538.51,-161.97 2538.4,-154.97"/>
</g>
<!-- Node19 -->
<g id="node11" class="node">
<title>Node19</title>
<g id="a_node11"><a xlink:href="d__a__obj__item_8cpp.html" target="_top" xlink:title=" ">
<polygon fill="white" stroke="black" points="4276.59,-6 4276.59,-25 4401.59,-25 4401.59,-6 4276.59,-6"/>
<text text-anchor="middle" x="4339.09" y="-13" font-family="Helvetica,sans-Serif" font-size="10.00">src/d/a/d_a_obj_item.cpp</text>
</a>
</g>
</g>
<!-- Node5&#45;&gt;Node19 -->
<g id="edge38" class="edge">
<title>Node5&#45;&gt;Node19</title>
<path fill="none" stroke="midnightblue" d="M2538.49,-158.88C2848.09,-155.77 4154.89,-140.83 4235.09,-109 4280.01,-91.17 4318.22,-44.74 4332.78,-25.28"/>
<polygon fill="midnightblue" stroke="midnightblue" points="2538.29,-155.38 2528.33,-158.98 2538.36,-162.38 2538.29,-155.38"/>
</g>
<!-- Node5&#45;&gt;Node20 -->
<g id="edge44" class="edge">
<title>Node5&#45;&gt;Node20</title>
<path fill="none" stroke="midnightblue" d="M2538.43,-158.94C2877.8,-155.91 4425.18,-140.39 4463.09,-109 4485.99,-90.03 4486.51,-51.65 4484.84,-30.78"/>
<polygon fill="midnightblue" stroke="midnightblue" points="2538.25,-155.44 2528.28,-159.03 2538.31,-162.44 2538.25,-155.44"/>
</g>
<!-- Node23 -->
<g id="node14" class="node">
<title>Node23</title>
<g id="a_node14"><a xlink:href="d__kantera__icon__meter_8h.html" target="_top" xlink:title=" ">
<polygon fill="white" stroke="red" points="3885.59,-73 3885.59,-103 3986.59,-103 3986.59,-73 3885.59,-73"/>
<text text-anchor="start" x="3893.59" y="-91" font-family="Helvetica,sans-Serif" font-size="10.00">include/d/d_kantera</text>
<text text-anchor="middle" x="3936.09" y="-80" font-family="Helvetica,sans-Serif" font-size="10.00">_icon_meter.h</text>
</a>
</g>
</g>
<!-- Node5&#45;&gt;Node23 -->
<g id="edge13" class="edge">
<title>Node5&#45;&gt;Node23</title>
<path fill="none" stroke="midnightblue" d="M2538.66,-159.41C2778.82,-158.71 3609.9,-153.11 3871.09,-109 3879.35,-107.6 3888.04,-105.44 3896.26,-103.05"/>
<polygon fill="midnightblue" stroke="midnightblue" points="2538.34,-155.91 2528.35,-159.44 2538.36,-162.91 2538.34,-155.91"/>
</g>
<!-- Node26 -->
<g id="node15" class="node">
<title>Node26</title>
<g id="a_node15"><a xlink:href="d__model_8h.html" target="_top" xlink:title=" ">
<polygon fill="white" stroke="red" points="4004.59,-78.5 4004.59,-97.5 4107.59,-97.5 4107.59,-78.5 4004.59,-78.5"/>
<text text-anchor="middle" x="4056.09" y="-85.5" font-family="Helvetica,sans-Serif" font-size="10.00">include/d/d_model.h</text>
</a>
</g>
</g>
<!-- Node5&#45;&gt;Node26 -->
<g id="edge14" class="edge">
<title>Node5&#45;&gt;Node26</title>
<path fill="none" stroke="midnightblue" d="M2538.52,-159.79C2791.95,-160.53 3708.93,-159.59 3995.09,-109 4008.7,-106.59 4023.43,-101.83 4035.01,-97.55"/>
<polygon fill="midnightblue" stroke="midnightblue" points="2538.38,-156.29 2528.37,-159.76 2538.36,-163.29 2538.38,-156.29"/>
</g>
<!-- Node28 -->
<g id="node16" class="node">
<title>Node28</title>
<g id="a_node16"><a xlink:href="d__name_8h.html" target="_top" xlink:title=" ">
<polygon fill="white" stroke="red" points="4125.59,-78.5 4125.59,-97.5 4226.59,-97.5 4226.59,-78.5 4125.59,-78.5"/>
<text text-anchor="middle" x="4176.09" y="-85.5" font-family="Helvetica,sans-Serif" font-size="10.00">include/d/d_name.h</text>
</a>
</g>
</g>
<!-- Node5&#45;&gt;Node28 -->
<g id="edge15" class="edge">
<title>Node5&#45;&gt;Node28</title>
<path fill="none" stroke="midnightblue" d="M2538.74,-158.61C2825.29,-154.57 3959.2,-136.94 4116.09,-109 4129.49,-106.61 4143.99,-101.85 4155.37,-97.56"/>
<polygon fill="midnightblue" stroke="midnightblue" points="2538.45,-155.11 2528.5,-158.75 2538.55,-162.11 2538.45,-155.11"/>
</g>
<!-- Node30 -->
<g id="node17" class="node">
<title>Node30</title>
<g id="a_node17"><a xlink:href="d__file__sel__info_8h.html" target="_top" xlink:title=" ">
<polygon fill="white" stroke="red" points="390.09,-73 390.09,-103 486.09,-103 486.09,-73 390.09,-73"/>
<text text-anchor="start" x="398.09" y="-91" font-family="Helvetica,sans-Serif" font-size="10.00">include/d/file/d_file</text>
<text text-anchor="middle" x="438.09" y="-80" font-family="Helvetica,sans-Serif" font-size="10.00">_sel_info.h</text>
</a>
</g>
</g>
<!-- Node5&#45;&gt;Node30 -->
<g id="edge16" class="edge">
<title>Node5&#45;&gt;Node30</title>
<path fill="none" stroke="midnightblue" d="M2407.92,-157.97C2068.66,-150.01 519.16,-113.42 495.09,-109 487.66,-107.64 479.9,-105.46 472.59,-103.03"/>
<polygon fill="midnightblue" stroke="midnightblue" points="2407.99,-161.48 2418.07,-158.21 2408.16,-154.48 2407.99,-161.48"/>
</g>
<!-- Node33 -->
<g id="node18" class="node">
<title>Node33</title>
<g id="a_node18"><a xlink:href="d__file__sel__warning_8h.html" target="_top" xlink:title=" ">
<polygon fill="white" stroke="red" points="504.09,-73 504.09,-103 600.09,-103 600.09,-73 504.09,-73"/>
<text text-anchor="start" x="512.09" y="-91" font-family="Helvetica,sans-Serif" font-size="10.00">include/d/file/d_file</text>
<text text-anchor="middle" x="552.09" y="-80" font-family="Helvetica,sans-Serif" font-size="10.00">_sel_warning.h</text>
</a>
</g>
</g>
<!-- Node5&#45;&gt;Node33 -->
<g id="edge17" class="edge">
<title>Node5&#45;&gt;Node33</title>
<path fill="none" stroke="midnightblue" d="M2407.75,-157.98C2083.32,-150.4 659.2,-116.72 614.09,-109 606.06,-107.63 597.65,-105.44 589.69,-103.01"/>
<polygon fill="midnightblue" stroke="midnightblue" points="2407.85,-161.48 2417.93,-158.22 2408.02,-154.48 2407.85,-161.48"/>
</g>
<!-- Node35 -->
<g id="node19" class="node">
<title>Node35</title>
<g id="a_node19"><a xlink:href="d__meter2_8h.html" target="_top" xlink:title=" ">
<polygon fill="white" stroke="red" points="200.09,-78.5 200.09,-97.5 334.09,-97.5 334.09,-78.5 200.09,-78.5"/>
<text text-anchor="middle" x="267.09" y="-85.5" font-family="Helvetica,sans-Serif" font-size="10.00">include/d/meter/d_meter2.h</text>
</a>
</g>
</g>
<!-- Node5&#45;&gt;Node35 -->
<g id="edge18" class="edge">
<title>Node5&#45;&gt;Node35</title>
<path fill="none" stroke="midnightblue" d="M2407.92,-157.98C2051.57,-149.63 354.64,-109.88 348.09,-109 330.29,-106.62 310.73,-101.85 295.29,-97.57"/>
<polygon fill="midnightblue" stroke="midnightblue" points="2407.99,-161.48 2418.07,-158.21 2408.15,-154.48 2407.99,-161.48"/>
</g>
<!-- Node37 -->
<g id="node20" class="node">
<title>Node37</title>
<g id="a_node20"><a xlink:href="d__msg__object_8h.html" target="_top" xlink:title=" ">
<polygon fill="white" stroke="red" points="656.09,-73 656.09,-103 766.09,-103 766.09,-73 656.09,-73"/>
<text text-anchor="start" x="664.09" y="-91" font-family="Helvetica,sans-Serif" font-size="10.00">include/d/msg/d_msg</text>
<text text-anchor="middle" x="711.09" y="-80" font-family="Helvetica,sans-Serif" font-size="10.00">_object.h</text>
</a>
</g>
</g>
<!-- Node5&#45;&gt;Node37 -->
<g id="edge20" class="edge">
<title>Node5&#45;&gt;Node37</title>
<path fill="none" stroke="midnightblue" d="M2407.55,-158.01C2105.84,-151.08 861.73,-121.84 780.09,-109 771.34,-107.62 762.14,-105.47 753.41,-103.08"/>
<polygon fill="midnightblue" stroke="midnightblue" points="2407.81,-161.51 2417.88,-158.24 2407.97,-154.52 2407.81,-161.51"/>
</g>
<!-- Node42 -->
<g id="node21" class="node">
<title>Node42</title>
<g id="a_node21"><a xlink:href="d__demo_8cpp.html" target="_top" xlink:title=" ">
<polygon fill="white" stroke="black" points="737.09,-6 737.09,-25 831.09,-25 831.09,-6 737.09,-6"/>
<text text-anchor="middle" x="784.09" y="-13" font-family="Helvetica,sans-Serif" font-size="10.00">src/d/d_demo.cpp</text>
</a>
</g>
</g>
<!-- Node5&#45;&gt;Node42 -->
<g id="edge49" class="edge">
<title>Node5&#45;&gt;Node42</title>
<path fill="none" stroke="midnightblue" d="M2407.96,-158.03C2102.88,-151.06 829.27,-121.27 813.09,-109 786.4,-88.77 783.68,-44.1 783.79,-25.21"/>
<polygon fill="midnightblue" stroke="midnightblue" points="2407.9,-161.53 2417.98,-158.25 2408.06,-154.53 2407.9,-161.53"/>
</g>
<!-- Node5&#45;&gt;Node46 -->
<g id="edge53" class="edge">
<title>Node5&#45;&gt;Node46</title>
<path fill="none" stroke="midnightblue" d="M2407.52,-157.96C2082.09,-150.28 655.7,-116.22 647.09,-109 622.09,-88.03 624.48,-43.77 626.78,-25.1"/>
<polygon fill="midnightblue" stroke="midnightblue" points="2407.65,-161.46 2417.73,-158.2 2407.81,-154.47 2407.65,-161.46"/>
</g>
<!-- Node5&#45;&gt;Node47 -->
<g id="edge55" class="edge">
<title>Node5&#45;&gt;Node47</title>
<path fill="none" stroke="midnightblue" d="M2407.94,-158C2054.58,-149.83 383.58,-111.08 381.09,-109 358.32,-89.97 358.25,-51.61 360.16,-30.77"/>
<polygon fill="midnightblue" stroke="midnightblue" points="2407.93,-161.5 2418.01,-158.23 2408.09,-154.5 2407.93,-161.5"/>
</g>
<!-- Node53 -->
<g id="node24" class="node">
<title>Node53</title>
<g id="a_node24"><a xlink:href="d__s__logo_8h.html" target="_top" xlink:title=" ">
<polygon fill="white" stroke="red" points="822.59,-78.5 822.59,-97.5 935.59,-97.5 935.59,-78.5 822.59,-78.5"/>
<text text-anchor="middle" x="879.09" y="-85.5" font-family="Helvetica,sans-Serif" font-size="10.00">include/d/s/d_s_logo.h</text>
</a>
</g>
</g>
<!-- Node5&#45;&gt;Node53 -->
<g id="edge26" class="edge">
<title>Node5&#45;&gt;Node53</title>
<path fill="none" stroke="midnightblue" d="M2407.98,-157.83C2125.52,-150.53 1017.19,-121.23 944.09,-109 929.65,-106.58 913.95,-101.82 901.59,-97.54"/>
<polygon fill="midnightblue" stroke="midnightblue" points="2407.98,-161.33 2418.07,-158.09 2408.16,-154.34 2407.98,-161.33"/>
</g>
<!-- Node55 -->
<g id="node25" class="node">
<title>Node55</title>
<g id="a_node25"><a xlink:href="d__s__play_8h.html" target="_top" xlink:title=" ">
<polygon fill="white" stroke="red" points="953.59,-78.5 953.59,-97.5 1066.59,-97.5 1066.59,-78.5 953.59,-78.5"/>
<text text-anchor="middle" x="1010.09" y="-85.5" font-family="Helvetica,sans-Serif" font-size="10.00">include/d/s/d_s_play.h</text>
</a>
</g>
</g>
<!-- Node5&#45;&gt;Node55 -->
<g id="edge27" class="edge">
<title>Node5&#45;&gt;Node55</title>
<path fill="none" stroke="midnightblue" d="M2407.31,-158.14C2148.38,-152.64 1207.07,-131.29 1075.09,-109 1060.65,-106.56 1044.95,-101.79 1032.6,-97.52"/>
<polygon fill="midnightblue" stroke="midnightblue" points="2407.61,-161.64 2417.68,-158.36 2407.76,-154.65 2407.61,-161.64"/>
</g>
<!-- Node59 -->
<g id="node26" class="node">
<title>Node59</title>
<g id="a_node26"><a xlink:href="d__msg__scrn__base_8h.html" target="_top" xlink:title=" ">
<polygon fill="white" stroke="red" points="1084.59,-73 1084.59,-103 1183.59,-103 1183.59,-73 1084.59,-73"/>
<text text-anchor="start" x="1092.59" y="-91" font-family="Helvetica,sans-Serif" font-size="10.00">include/msg/scrn/d</text>
<text text-anchor="middle" x="1134.09" y="-80" font-family="Helvetica,sans-Serif" font-size="10.00">_msg_scrn_base.h</text>
</a>
</g>
</g>
<!-- Node5&#45;&gt;Node59 -->
<g id="edge28" class="edge">
<title>Node5&#45;&gt;Node59</title>
<path fill="none" stroke="midnightblue" d="M2407.57,-158.04C2163.06,-152.43 1311.77,-131.49 1192.09,-109 1184.66,-107.6 1176.89,-105.44 1169.53,-103.05"/>
<polygon fill="midnightblue" stroke="midnightblue" points="2407.65,-161.54 2417.73,-158.27 2407.81,-154.54 2407.65,-161.54"/>
</g>
<!-- Node63 -->
<g id="node27" class="node">
<title>Node63</title>
<g id="a_node27"><a xlink:href="d__a__b__zant_8h.html" target="_top" xlink:title=" ">
<polygon fill="white" stroke="black" points="1201.59,-73 1201.59,-103 1322.59,-103 1322.59,-73 1201.59,-73"/>
<text text-anchor="start" x="1209.59" y="-91" font-family="Helvetica,sans-Serif" font-size="10.00">include/rel/d/a/b/d</text>
<text text-anchor="middle" x="1262.09" y="-80" font-family="Helvetica,sans-Serif" font-size="10.00">_a_b_zant/d_a_b_zant.h</text>
</a>
</g>
</g>
<!-- Node5&#45;&gt;Node63 -->
<g id="edge29" class="edge">
<title>Node5&#45;&gt;Node63</title>
<path fill="none" stroke="midnightblue" d="M2407.56,-158.45C2198,-154.79 1545.64,-141.06 1337.09,-109 1327.76,-107.57 1317.93,-105.42 1308.57,-103.06"/>
<polygon fill="midnightblue" stroke="midnightblue" points="2407.74,-161.95 2417.79,-158.62 2407.86,-154.95 2407.74,-161.95"/>
</g>
<!-- Node64 -->
<g id="node28" class="node">
<title>Node64</title>
<g id="a_node28"><a xlink:href="d__a__spinner_8h.html" target="_top" xlink:title=" ">
<polygon fill="white" stroke="black" points="1379.09,-73 1379.09,-103 1495.09,-103 1495.09,-73 1379.09,-73"/>
<text text-anchor="start" x="1387.09" y="-91" font-family="Helvetica,sans-Serif" font-size="10.00">include/rel/d/a/d_a</text>
<text text-anchor="middle" x="1437.09" y="-80" font-family="Helvetica,sans-Serif" font-size="10.00">_spinner/d_a_spinner.h</text>
</a>
</g>
</g>
<!-- Node5&#45;&gt;Node64 -->
<g id="edge30" class="edge">
<title>Node5&#45;&gt;Node64</title>
<path fill="none" stroke="midnightblue" d="M2408.04,-158.13C2220.1,-153.84 1678.6,-139.15 1504.09,-109 1495.72,-107.55 1486.91,-105.4 1478.54,-103.04"/>
<polygon fill="midnightblue" stroke="midnightblue" points="2407.98,-161.63 2418.06,-158.35 2408.14,-154.63 2407.98,-161.63"/>
</g>
<!-- Node65 -->
<g id="node29" class="node">
<title>Node65</title>
<g id="a_node29"><a xlink:href="d__a__player_8cpp.html" target="_top" xlink:title=" ">
<polygon fill="white" stroke="black" points="1337.09,-6 1337.09,-25 1451.09,-25 1451.09,-6 1337.09,-6"/>
<text text-anchor="middle" x="1394.09" y="-13" font-family="Helvetica,sans-Serif" font-size="10.00">src/d/a/d_a_player.cpp</text>
</a>
</g>
</g>
<!-- Node5&#45;&gt;Node65 -->
<g id="edge39" class="edge">
<title>Node5&#45;&gt;Node65</title>
<path fill="none" stroke="midnightblue" d="M2407.82,-157.72C2173.58,-151.18 1388.11,-127.87 1370.09,-109 1347.51,-85.37 1373.89,-43.33 1387.25,-25.21"/>
<polygon fill="midnightblue" stroke="midnightblue" points="2407.81,-161.22 2417.9,-158 2408,-154.22 2407.81,-161.22"/>
</g>
<!-- Node66 -->
<g id="node30" class="node">
<title>Node66</title>
<g id="a_node30"><a xlink:href="d__a__obj__yobikusa_8h.html" target="_top" xlink:title=" ">
<polygon fill="white" stroke="black" points="1513.59,-67.5 1513.59,-108.5 1618.59,-108.5 1618.59,-67.5 1513.59,-67.5"/>
<text text-anchor="start" x="1521.59" y="-96.5" font-family="Helvetica,sans-Serif" font-size="10.00">include/rel/d/a/obj</text>
<text text-anchor="start" x="1521.59" y="-85.5" font-family="Helvetica,sans-Serif" font-size="10.00">/d_a_obj_yobikusa/d</text>
<text text-anchor="middle" x="1566.09" y="-74.5" font-family="Helvetica,sans-Serif" font-size="10.00">_a_obj_yobikusa.h</text>
</a>
</g>
</g>
<!-- Node5&#45;&gt;Node66 -->
<g id="edge32" class="edge">
<title>Node5&#45;&gt;Node66</title>
<path fill="none" stroke="midnightblue" d="M2407.94,-157.73C2236.8,-152.74 1777.41,-137.08 1628.09,-109 1624.98,-108.41 1621.8,-107.72 1618.62,-106.94"/>
<polygon fill="midnightblue" stroke="midnightblue" points="2407.97,-161.23 2418.06,-158.02 2408.17,-154.24 2407.97,-161.23"/>
</g>
<!-- Node67 -->
<g id="node31" class="node">
<title>Node67</title>
<g id="a_node31"><a xlink:href="d__a__tag__telop_8h.html" target="_top" xlink:title=" ">
<polygon fill="white" stroke="black" points="1637.09,-67.5 1637.09,-108.5 1755.09,-108.5 1755.09,-67.5 1637.09,-67.5"/>
<text text-anchor="start" x="1645.09" y="-96.5" font-family="Helvetica,sans-Serif" font-size="10.00">include/rel/d/a/tag</text>
<text text-anchor="start" x="1645.09" y="-85.5" font-family="Helvetica,sans-Serif" font-size="10.00">/d_a_tag_telop/d_a_tag</text>
<text text-anchor="middle" x="1696.09" y="-74.5" font-family="Helvetica,sans-Serif" font-size="10.00">_telop.h</text>
</a>
</g>
</g>
<!-- Node5&#45;&gt;Node67 -->
<g id="edge33" class="edge">
<title>Node5&#45;&gt;Node67</title>
<path fill="none" stroke="midnightblue" d="M2407.66,-159.51C2281.92,-158.51 1998.26,-151.27 1764.09,-109 1761.18,-108.48 1758.22,-107.87 1755.25,-107.21"/>
<polygon fill="midnightblue" stroke="midnightblue" points="2407.86,-163.02 2417.88,-159.58 2407.91,-156.02 2407.86,-163.02"/>
</g>
<!-- Node68 -->
<g id="node32" class="node">
<title>Node68</title>
<g id="a_node32"><a xlink:href="c__dylink_8cpp.html" target="_top" xlink:title=" ">
<polygon fill="white" stroke="black" points="1773.59,-78.5 1773.59,-97.5 1868.59,-97.5 1868.59,-78.5 1773.59,-78.5"/>
<text text-anchor="middle" x="1821.09" y="-85.5" font-family="Helvetica,sans-Serif" font-size="10.00">src/c/c_dylink.cpp</text>
</a>
</g>
</g>
<!-- Node5&#45;&gt;Node68 -->
<g id="edge34" class="edge">
<title>Node5&#45;&gt;Node68</title>
<path fill="none" stroke="midnightblue" d="M2407.54,-159.32C2297.08,-157.82 2067.37,-149.55 1878.09,-109 1865.68,-106.34 1852.27,-101.73 1841.57,-97.6"/>
<polygon fill="midnightblue" stroke="midnightblue" points="2407.81,-162.82 2417.86,-159.44 2407.9,-155.82 2407.81,-162.82"/>
</g>
<!-- Node69 -->
<g id="node33" class="node">
<title>Node69</title>
<g id="a_node33"><a xlink:href="d__a__itembase_8cpp.html" target="_top" xlink:title=" ">
<polygon fill="white" stroke="black" points="1887.09,-78.5 1887.09,-97.5 2015.09,-97.5 2015.09,-78.5 1887.09,-78.5"/>
<text text-anchor="middle" x="1951.09" y="-85.5" font-family="Helvetica,sans-Serif" font-size="10.00">src/d/a/d_a_itembase.cpp</text>
</a>
</g>
</g>
<!-- Node5&#45;&gt;Node69 -->
<g id="edge36" class="edge">
<title>Node5&#45;&gt;Node69</title>
<path fill="none" stroke="midnightblue" d="M2408,-155.37C2320.22,-149.07 2159.32,-134.97 2024.09,-109 2008.73,-106.05 1991.88,-101.52 1978.24,-97.52"/>
<polygon fill="midnightblue" stroke="midnightblue" points="2407.85,-158.86 2418.07,-156.08 2408.34,-151.88 2407.85,-158.86"/>
</g>
<!-- Node70 -->
<g id="node34" class="node">
<title>Node70</title>
<g id="a_node34"><a xlink:href="d__a__obj_8cpp.html" target="_top" xlink:title=" ">
<polygon fill="white" stroke="black" points="2033.59,-78.5 2033.59,-97.5 2134.59,-97.5 2134.59,-78.5 2033.59,-78.5"/>
<text text-anchor="middle" x="2084.09" y="-85.5" font-family="Helvetica,sans-Serif" font-size="10.00">src/d/a/d_a_obj.cpp</text>
</a>
</g>
</g>
<!-- Node5&#45;&gt;Node70 -->
<g id="edge37" class="edge">
<title>Node5&#45;&gt;Node70</title>
<path fill="none" stroke="midnightblue" d="M2407.84,-152.79C2341,-145.14 2234.38,-130.81 2144.09,-109 2131.49,-105.96 2117.76,-101.47 2106.62,-97.52"/>
<polygon fill="midnightblue" stroke="midnightblue" points="2407.48,-156.27 2417.81,-153.91 2408.27,-149.31 2407.48,-156.27"/>
</g>
<!-- Node71 -->
<g id="node35" class="node">
<title>Node71</title>
<g id="a_node35"><a xlink:href="d__bg__s_8cpp.html" target="_top" xlink:title=" ">
<polygon fill="white" stroke="black" points="2153.09,-78.5 2153.09,-97.5 2257.09,-97.5 2257.09,-78.5 2153.09,-78.5"/>
<text text-anchor="middle" x="2205.09" y="-85.5" font-family="Helvetica,sans-Serif" font-size="10.00">src/d/bg/d_bg_s.cpp</text>
</a>
</g>
</g>
<!-- Node5&#45;&gt;Node71 -->
<g id="edge40" class="edge">
<title>Node5&#45;&gt;Node71</title>
<path fill="none" stroke="midnightblue" d="M2408.02,-144.99C2367.07,-135.52 2313.24,-122.46 2266.09,-109 2253.98,-105.54 2240.67,-101.24 2229.59,-97.51"/>
<polygon fill="midnightblue" stroke="midnightblue" points="2407.34,-148.42 2417.87,-147.26 2408.91,-141.6 2407.34,-148.42"/>
</g>
<!-- Node72 -->
<g id="node36" class="node">
<title>Node72</title>
<g id="a_node36"><a xlink:href="d__bg__s__movebg__actor_8cpp.html" target="_top" xlink:title=" ">
<polygon fill="white" stroke="black" points="2275.09,-73 2275.09,-103 2401.09,-103 2401.09,-73 2275.09,-73"/>
<text text-anchor="start" x="2283.09" y="-91" font-family="Helvetica,sans-Serif" font-size="10.00">src/d/bg/d_bg_s_movebg</text>
<text text-anchor="middle" x="2338.09" y="-80" font-family="Helvetica,sans-Serif" font-size="10.00">_actor.cpp</text>
</a>
</g>
</g>
<!-- Node5&#45;&gt;Node72 -->
<g id="edge41" class="edge">
<title>Node5&#45;&gt;Node72</title>
<path fill="none" stroke="midnightblue" d="M2437.12,-140.72C2414.47,-128.89 2385.72,-113.87 2365.04,-103.07"/>
<polygon fill="midnightblue" stroke="midnightblue" points="2435.61,-143.88 2446.09,-145.4 2438.85,-137.67 2435.61,-143.88"/>
</g>
<!-- Node73 -->
<g id="node37" class="node">
<title>Node73</title>
<g id="a_node37"><a xlink:href="d__bg__w_8cpp.html" target="_top" xlink:title=" ">
<polygon fill="white" stroke="black" points="2419.59,-78.5 2419.59,-97.5 2526.59,-97.5 2526.59,-78.5 2419.59,-78.5"/>
<text text-anchor="middle" x="2473.09" y="-85.5" font-family="Helvetica,sans-Serif" font-size="10.00">src/d/bg/d_bg_w.cpp</text>
</a>
</g>
</g>
<!-- Node5&#45;&gt;Node73 -->
<g id="edge42" class="edge">
<title>Node5&#45;&gt;Node73</title>
<path fill="none" stroke="midnightblue" d="M2473.09,-135.09C2473.09,-122.21 2473.09,-107.2 2473.09,-97.89"/>
<polygon fill="midnightblue" stroke="midnightblue" points="2469.59,-135.23 2473.09,-145.23 2476.59,-135.23 2469.59,-135.23"/>
</g>
<!-- Node74 -->
<g id="node38" class="node">
<title>Node74</title>
<g id="a_node38"><a xlink:href="d__cc__s_8cpp.html" target="_top" xlink:title=" ">
<polygon fill="white" stroke="black" points="2545.09,-78.5 2545.09,-97.5 2649.09,-97.5 2649.09,-78.5 2545.09,-78.5"/>
<text text-anchor="middle" x="2597.09" y="-85.5" font-family="Helvetica,sans-Serif" font-size="10.00">src/d/cc/d_cc_s.cpp</text>
</a>
</g>
</g>
<!-- Node5&#45;&gt;Node74 -->
<g id="edge43" class="edge">
<title>Node5&#45;&gt;Node74</title>
<path fill="none" stroke="midnightblue" d="M2506.89,-140.28C2531.46,-126.31 2563.55,-108.07 2582.08,-97.53"/>
<polygon fill="midnightblue" stroke="midnightblue" points="2504.85,-137.42 2497.88,-145.4 2508.31,-143.5 2504.85,-137.42"/>
</g>
<!-- Node75 -->
<g id="node39" class="node">
<title>Node75</title>
<g id="a_node39"><a xlink:href="d__com__static_8cpp.html" target="_top" xlink:title=" ">
<polygon fill="white" stroke="black" points="2667.09,-78.5 2667.09,-97.5 2807.09,-97.5 2807.09,-78.5 2667.09,-78.5"/>
<text text-anchor="middle" x="2737.09" y="-85.5" font-family="Helvetica,sans-Serif" font-size="10.00">src/d/com/d_com_static.cpp</text>
</a>
</g>
</g>
<!-- Node5&#45;&gt;Node75 -->
<g id="edge45" class="edge">
<title>Node5&#45;&gt;Node75</title>
<path fill="none" stroke="midnightblue" d="M2535.25,-142.9C2588.5,-128.68 2663.06,-108.77 2705.05,-97.55"/>
<polygon fill="midnightblue" stroke="midnightblue" points="2534.32,-139.53 2525.56,-145.49 2536.13,-146.29 2534.32,-139.53"/>
</g>
<!-- Node76 -->
<g id="node40" class="node">
<title>Node76</title>
<g id="a_node40"><a xlink:href="d__attention_8cpp.html" target="_top" xlink:title=" ">
<polygon fill="white" stroke="black" points="2825.59,-78.5 2825.59,-97.5 2932.59,-97.5 2932.59,-78.5 2825.59,-78.5"/>
<text text-anchor="middle" x="2879.09" y="-85.5" font-family="Helvetica,sans-Serif" font-size="10.00">src/d/d_attention.cpp</text>
</a>
</g>
</g>
<!-- Node5&#45;&gt;Node76 -->
<g id="edge46" class="edge">
<title>Node5&#45;&gt;Node76</title>
<path fill="none" stroke="midnightblue" d="M2538.6,-153.03C2608.06,-145.44 2720.7,-131.01 2816.09,-109 2829.28,-105.96 2843.7,-101.47 2855.41,-97.52"/>
<polygon fill="midnightblue" stroke="midnightblue" points="2537.82,-149.6 2528.25,-154.15 2538.57,-156.56 2537.82,-149.6"/>
</g>
<!-- Node77 -->
<g id="node41" class="node">
<title>Node77</title>
<g id="a_node41"><a xlink:href="d__cam__param_8cpp.html" target="_top" xlink:title=" ">
<polygon fill="white" stroke="black" points="2950.59,-78.5 2950.59,-97.5 3071.59,-97.5 3071.59,-78.5 2950.59,-78.5"/>
<text text-anchor="middle" x="3011.09" y="-85.5" font-family="Helvetica,sans-Serif" font-size="10.00">src/d/d_cam_param.cpp</text>
</a>
</g>
</g>
<!-- Node5&#45;&gt;Node77 -->
<g id="edge47" class="edge">
<title>Node5&#45;&gt;Node77</title>
<path fill="none" stroke="midnightblue" d="M2538.46,-155.98C2629.42,-150.28 2798.99,-136.76 2941.09,-109 2955.85,-106.12 2972.01,-101.59 2985.09,-97.58"/>
<polygon fill="midnightblue" stroke="midnightblue" points="2538.07,-152.5 2528.3,-156.6 2538.5,-159.48 2538.07,-152.5"/>
</g>
<!-- Node78 -->
<g id="node42" class="node">
<title>Node78</title>
<g id="a_node42"><a xlink:href="d__camera_8cpp.html" target="_top" xlink:title=" ">
<polygon fill="white" stroke="black" points="3090.09,-78.5 3090.09,-97.5 3192.09,-97.5 3192.09,-78.5 3090.09,-78.5"/>
<text text-anchor="middle" x="3141.09" y="-85.5" font-family="Helvetica,sans-Serif" font-size="10.00">src/d/d_camera.cpp</text>
</a>
</g>
</g>
<!-- Node5&#45;&gt;Node78 -->
<g id="edge48" class="edge">
<title>Node5&#45;&gt;Node78</title>
<path fill="none" stroke="midnightblue" d="M2538.22,-159.05C2650.12,-157.18 2885.62,-148.4 3080.09,-109 3093.31,-106.32 3107.66,-101.71 3119.12,-97.59"/>
<polygon fill="midnightblue" stroke="midnightblue" points="2538.05,-155.55 2528.1,-159.21 2538.16,-162.55 2538.05,-155.55"/>
</g>
<!-- Node79 -->
<g id="node43" class="node">
<title>Node79</title>
<g id="a_node43"><a xlink:href="d__eye__hl_8cpp.html" target="_top" xlink:title=" ">
<polygon fill="white" stroke="black" points="3210.09,-78.5 3210.09,-97.5 3308.09,-97.5 3308.09,-78.5 3210.09,-78.5"/>
<text text-anchor="middle" x="3259.09" y="-85.5" font-family="Helvetica,sans-Serif" font-size="10.00">src/d/d_eye_hl.cpp</text>
</a>
</g>
</g>
<!-- Node5&#45;&gt;Node79 -->
<g id="edge50" class="edge">
<title>Node5&#45;&gt;Node79</title>
<path fill="none" stroke="midnightblue" d="M2538.5,-157.16C2692.68,-151.3 3075.33,-134.58 3201.09,-109 3213.82,-106.41 3227.59,-101.75 3238.52,-97.57"/>
<polygon fill="midnightblue" stroke="midnightblue" points="2538.1,-153.68 2528.24,-157.55 2538.36,-160.67 2538.1,-153.68"/>
</g>
<!-- Node80 -->
<g id="node44" class="node">
<title>Node80</title>
<g id="a_node44"><a xlink:href="d__kyeff_8cpp.html" target="_top" xlink:title=" ">
<polygon fill="white" stroke="black" points="3326.09,-78.5 3326.09,-97.5 3416.09,-97.5 3416.09,-78.5 3326.09,-78.5"/>
<text text-anchor="middle" x="3371.09" y="-85.5" font-family="Helvetica,sans-Serif" font-size="10.00">src/d/d_kyeff.cpp</text>
</a>
</g>
</g>
<!-- Node5&#45;&gt;Node80 -->
<g id="edge51" class="edge">
<title>Node5&#45;&gt;Node80</title>
<path fill="none" stroke="midnightblue" d="M2538.23,-158.08C2709.34,-153.95 3168.57,-140.23 3317.09,-109 3329.02,-106.49 3341.85,-101.83 3352,-97.64"/>
<polygon fill="midnightblue" stroke="midnightblue" points="2538.02,-154.58 2528.11,-158.32 2538.19,-161.58 2538.02,-154.58"/>
</g>
<!-- Node81 -->
<g id="node45" class="node">
<title>Node81</title>
<g id="a_node45"><a xlink:href="d__path_8cpp.html" target="_top" xlink:title=" ">
<polygon fill="white" stroke="black" points="3434.59,-78.5 3434.59,-97.5 3523.59,-97.5 3523.59,-78.5 3434.59,-78.5"/>
<text text-anchor="middle" x="3479.09" y="-85.5" font-family="Helvetica,sans-Serif" font-size="10.00">src/d/d_path.cpp</text>
</a>
</g>
</g>
<!-- Node5&#45;&gt;Node81 -->
<g id="edge52" class="edge">
<title>Node5&#45;&gt;Node81</title>
<path fill="none" stroke="midnightblue" d="M2538.34,-158.59C2724.41,-155.6 3255.08,-144.15 3425.09,-109 3437.03,-106.53 3449.86,-101.87 3460.01,-97.67"/>
<polygon fill="midnightblue" stroke="midnightblue" points="2538.11,-155.1 2528.17,-158.75 2538.22,-162.1 2538.11,-155.1"/>
</g>
<!-- Node5&#45;&gt;Node97 -->
<g id="edge56" class="edge">
<title>Node5&#45;&gt;Node97</title>
<path fill="none" stroke="midnightblue" d="M2407.78,-159.1C2058.11,-156.8 414.77,-144.2 191.09,-109 176.22,-106.66 160.03,-101.89 147.3,-97.6"/>
<polygon fill="midnightblue" stroke="midnightblue" points="2407.97,-162.6 2417.99,-159.16 2408.01,-155.6 2407.97,-162.6"/>
</g>
<!-- Node5&#45;&gt;Node104 -->
<g id="edge57" class="edge">
<title>Node5&#45;&gt;Node104</title>
<path fill="none" stroke="midnightblue" d="M2538.85,-159.68C2841.87,-160.23 4105.39,-159.42 4497.09,-109 4515.73,-106.6 4536.26,-101.83 4552.47,-97.55"/>
<polygon fill="midnightblue" stroke="midnightblue" points="2538.49,-156.18 2528.48,-159.66 2538.47,-163.18 2538.49,-156.18"/>
</g>
<!-- Node5&#45;&gt;Node106 -->
<g id="edge58" class="edge">
<title>Node5&#45;&gt;Node106</title>
<path fill="none" stroke="midnightblue" d="M2538.44,-158.92C2879.5,-155.75 4447.63,-139.62 4662.09,-109 4678.63,-106.64 4696.74,-101.87 4711.03,-97.58"/>
<polygon fill="midnightblue" stroke="midnightblue" points="2538.21,-155.42 2528.24,-159.01 2538.27,-162.42 2538.21,-155.42"/>
</g>
<!-- Node6&#45;&gt;Node11 -->
<g id="edge6" class="edge">
<title>Node6&#45;&gt;Node11</title>
<path fill="none" stroke="midnightblue" d="M3748.16,-73.78C3724.96,-61.49 3690.5,-43.22 3666.76,-30.64"/>
<polygon fill="midnightblue" stroke="midnightblue" points="3746.57,-76.9 3757.05,-78.5 3749.85,-70.72 3746.57,-76.9"/>
</g>
<!-- Node18&#45;&gt;Node15 -->
<g id="edge9" class="edge">
<title>Node18&#45;&gt;Node15</title>
<path fill="none" stroke="midnightblue" d="M4355.35,-76.45C4339.84,-73.34 4322.78,-69.98 4307.09,-67 4225.89,-51.58 4131.25,-34.83 4075.13,-25.01"/>
<polygon fill="midnightblue" stroke="midnightblue" points="4354.79,-79.91 4365.28,-78.45 4356.17,-73.05 4354.79,-79.91"/>
</g>
<!-- Node18&#45;&gt;Node19 -->
<g id="edge10" class="edge">
<title>Node18&#45;&gt;Node19</title>
<path fill="none" stroke="midnightblue" d="M4391.46,-70.8C4377.78,-56.62 4358.44,-36.56 4347.49,-25.22"/>
<polygon fill="midnightblue" stroke="midnightblue" points="4389.29,-73.59 4398.75,-78.36 4394.33,-68.73 4389.29,-73.59"/>
</g>
<!-- Node18&#45;&gt;Node20 -->
<g id="edge11" class="edge">
<title>Node18&#45;&gt;Node20</title>
<path fill="none" stroke="midnightblue" d="M4423.86,-71.44C4437.02,-59.23 4455.18,-42.39 4467.91,-30.58"/>
<polygon fill="midnightblue" stroke="midnightblue" points="4421.36,-68.99 4416.41,-78.36 4426.12,-74.12 4421.36,-68.99"/>
</g>
<!-- Node18&#45;&gt;Node21 -->
<g id="edge12" class="edge">
<title>Node18&#45;&gt;Node21</title>
<path fill="none" stroke="midnightblue" d="M4456.55,-76.34C4521.64,-62.3 4634.76,-37.91 4694.5,-25.03"/>
<polygon fill="midnightblue" stroke="midnightblue" points="4455.57,-72.97 4446.53,-78.5 4457.05,-79.81 4455.57,-72.97"/>
</g>
<!-- Node35&#45;&gt;Node3 -->
<g id="edge19" class="edge">
<title>Node35&#45;&gt;Node3</title>
<path fill="none" stroke="midnightblue" d="M309.72,-99.95C324.61,-103.38 341.5,-106.83 357.09,-109 950.44,-191.63 2900.36,-266.3 3278.32,-280.19"/>
<polygon fill="midnightblue" stroke="midnightblue" points="310.31,-96.49 299.77,-97.59 308.7,-103.3 310.31,-96.49"/>
</g>
<!-- Node37&#45;&gt;Node11 -->
<g id="edge24" class="edge">
<title>Node37&#45;&gt;Node11</title>
<path fill="none" stroke="midnightblue" d="M776.24,-72.46C788.43,-70.24 801.1,-68.27 813.09,-67 1098.04,-36.76 3215.08,-19.67 3585.02,-16.9"/>
<polygon fill="midnightblue" stroke="midnightblue" points="775.31,-69.07 766.14,-74.37 776.61,-75.95 775.31,-69.07"/>
</g>
<!-- Node37&#45;&gt;Node15 -->
<g id="edge21" class="edge">
<title>Node37&#45;&gt;Node15</title>
<path fill="none" stroke="midnightblue" d="M776.23,-72.41C788.42,-70.19 801.1,-68.24 813.09,-67 1132.63,-33.96 3382.97,-40.23 3704.09,-31 3798.06,-28.3 3907.37,-22.9 3971.41,-19.5"/>
<polygon fill="midnightblue" stroke="midnightblue" points="775.31,-69.02 766.13,-74.31 776.61,-75.9 775.31,-69.02"/>
</g>
<!-- Node37&#45;&gt;Node42 -->
<g id="edge22" class="edge">
<title>Node37&#45;&gt;Node42</title>
<path fill="none" stroke="midnightblue" d="M733.21,-65.64C747.17,-52.15 764.48,-35.44 774.88,-25.39"/>
<polygon fill="midnightblue" stroke="midnightblue" points="730.62,-63.27 725.86,-72.73 735.49,-68.3 730.62,-63.27"/>
</g>
<!-- Node37&#45;&gt;Node46 -->
<g id="edge23" class="edge">
<title>Node37&#45;&gt;Node46</title>
<path fill="none" stroke="midnightblue" d="M686.38,-66.01C670.43,-52.46 650.5,-35.53 638.56,-25.39"/>
<polygon fill="midnightblue" stroke="midnightblue" points="684.4,-68.93 694.29,-72.73 688.94,-63.59 684.4,-68.93"/>
</g>
<!-- Node37&#45;&gt;Node47 -->
<g id="edge25" class="edge">
<title>Node37&#45;&gt;Node47</title>
<path fill="none" stroke="midnightblue" d="M645.77,-73.81C578.81,-60.28 476.01,-39.51 414.28,-27.04"/>
<polygon fill="midnightblue" stroke="midnightblue" points="645.29,-77.28 655.79,-75.83 646.68,-70.42 645.29,-77.28"/>
</g>
<!-- Node64&#45;&gt;Node65 -->
<g id="edge31" class="edge">
<title>Node64&#45;&gt;Node65</title>
<path fill="none" stroke="midnightblue" d="M1423.14,-64.13C1415.08,-50.92 1405.41,-35.07 1399.51,-25.39"/>
<polygon fill="midnightblue" stroke="midnightblue" points="1420.19,-66.02 1428.39,-72.73 1426.17,-62.37 1420.19,-66.02"/>
</g>
</g>
</svg>
