<?xml version="1.0" encoding="UTF-8" standalone="no"?>
<!DOCTYPE svg PUBLIC "-//W3C//DTD SVG 1.1//EN"
 "http://www.w3.org/Graphics/SVG/1.1/DTD/svg11.dtd">
<!-- Generated by graphviz version 3.0.0 (20220413.0242)
 -->
<!-- Title: include/m_Do/m_Do_DVDError.h Pages: 1 -->
<!--zoomable 319 -->
<svg id="main" version="1.1" xmlns="http://www.w3.org/2000/svg" xmlns:xlink="http://www.w3.org/1999/xlink" xml:space="preserve" onload="init(evt)">
<style type="text/css"><![CDATA[
.edge:hover path { stroke: red; }
.edge:hover polygon { stroke: red; fill: red; }
]]></style>
<script type="text/javascript"><![CDATA[
var edges = document.getElementsByTagName('g');
if (edges && edges.length) {
  for (var i=0;i<edges.length;i++) {
    if (edges[i].id.substr(0,4)=='edge') {
      edges[i].setAttribute('class','edge');
    }
  }
}
]]></script>
        <defs>
                <circle id="rim" cx="0" cy="0" r="7"/>
                <circle id="rim2" cx="0" cy="0" r="3.5"/>
                <g id="zoomPlus">
                        <use xlink:href="#rim" fill="#404040">
                                <set attributeName="fill" to="#808080" begin="zoomplus.mouseover" end="zoomplus.mouseout"/>
                        </use>
                        <path d="M-4,0h8M0,-4v8" fill="none" stroke="white" stroke-width="1.5" pointer-events="none"/>
                </g>
                <g id="zoomMin">
                        <use xlink:href="#rim" fill="#404040">
                                <set attributeName="fill" to="#808080" begin="zoomminus.mouseover" end="zoomminus.mouseout"/>
                        </use>
                        <path d="M-4,0h8" fill="none" stroke="white" stroke-width="1.5" pointer-events="none"/>
                </g>
                <g id="dirArrow">
                        <path fill="none" stroke="white" stroke-width="1.5" d="M0,-3.0v7 M-2.5,-0.5L0,-3.0L2.5,-0.5"/>
                </g>
               <g id="resetDef">
                       <use xlink:href="#rim2" fill="#404040">
                               <set attributeName="fill" to="#808080" begin="reset.mouseover" end="reset.mouseout"/>
                       </use>
               </g>
        </defs>

<script type="text/javascript">
var viewWidth = 801;
var viewHeight = 319;
var sectionId = 'dynsection-0';
</script>
<script xlink:href="svgpan.js"/>
<svg id="graph" class="graph">
<g id="viewport">
<title>include/m_Do/m_Do_DVDError.h</title>
<polygon fill="white" stroke="transparent" points="-4,4 -4,-315 796.65,-315 796.65,4 -4,4"/>
<!-- Node1 -->
<g id="node1" class="node">
<title>Node1</title>
<g id="a_node1"><a xlink:title=" ">
<polygon fill="#bfbfbf" stroke="black" points="0,-291.5 0,-310.5 158,-310.5 158,-291.5 0,-291.5"/>
<text text-anchor="middle" x="79" y="-298.5" font-family="Helvetica,sans-Serif" font-size="10.00">include/m_Do/m_Do_DVDError.h</text>
</a>
</g>
</g>
<!-- Node2 -->
<g id="node2" class="node">
<title>Node2</title>
<g id="a_node2"><a xlink:href="JKRThread_8h.html" target="_top" xlink:title=" ">
<polygon fill="white" stroke="black" points="132,-235.5 132,-254.5 282,-254.5 282,-235.5 132,-235.5"/>
<text text-anchor="middle" x="207" y="-242.5" font-family="Helvetica,sans-Serif" font-size="10.00">JSystem/JKernel/JKRThread.h</text>
</a>
</g>
</g>
<!-- Node1&#45;&gt;Node2 -->
<g id="edge1" class="edge">
<title>Node1&#45;&gt;Node2</title>
<path fill="none" stroke="midnightblue" d="M99.28,-291.44C120.35,-282.56 153.52,-268.56 177.49,-258.45"/>
<polygon fill="midnightblue" stroke="midnightblue" points="178.96,-261.63 186.81,-254.52 176.24,-255.18 178.96,-261.63"/>
</g>
<!-- Node5 -->
<g id="node5" class="node">
<title>Node5</title>
<g id="a_node5"><a xlink:href="types_8h.html" target="_top" xlink:title=" ">
<polygon fill="white" stroke="black" points="315.5,-0.5 315.5,-19.5 396.5,-19.5 396.5,-0.5 315.5,-0.5"/>
<text text-anchor="middle" x="356" y="-7.5" font-family="Helvetica,sans-Serif" font-size="10.00">dolphin/types.h</text>
</a>
</g>
</g>
<!-- Node1&#45;&gt;Node5 -->
<g id="edge22" class="edge">
<title>Node1&#45;&gt;Node5</title>
<path fill="none" stroke="midnightblue" d="M68.06,-291.3C47.92,-274.2 7,-234.05 7,-190 7,-190 7,-190 7,-132 7,-97.18 0.07,-79.24 26,-56 66.16,-20.01 222.98,-12.58 305.15,-11.19"/>
<polygon fill="midnightblue" stroke="midnightblue" points="305.32,-14.69 315.27,-11.05 305.22,-7.69 305.32,-14.69"/>
</g>
<!-- Node3 -->
<g id="node3" class="node">
<title>Node3</title>
<g id="a_node3"><a xlink:href="JKRDisposer_8h.html" target="_top" xlink:title=" ">
<polygon fill="white" stroke="black" points="73,-123.5 73,-142.5 231,-142.5 231,-123.5 73,-123.5"/>
<text text-anchor="middle" x="152" y="-130.5" font-family="Helvetica,sans-Serif" font-size="10.00">JSystem/JKernel/JKRDisposer.h</text>
</a>
</g>
</g>
<!-- Node2&#45;&gt;Node3 -->
<g id="edge2" class="edge">
<title>Node2&#45;&gt;Node3</title>
<path fill="none" stroke="midnightblue" d="M200.14,-235.45C193.35,-226.68 182.99,-212.47 176,-199 168.21,-183.98 161.74,-165.85 157.48,-152.56"/>
<polygon fill="midnightblue" stroke="midnightblue" points="160.74,-151.23 154.45,-142.7 154.05,-153.29 160.74,-151.23"/>
</g>
<!-- Node4 -->
<g id="node4" class="node">
<title>Node4</title>
<g id="a_node4"><a xlink:href="JSUList_8h.html" target="_top" xlink:title=" ">
<polygon fill="white" stroke="black" points="35.5,-62 35.5,-81 178.5,-81 178.5,-62 35.5,-62"/>
<text text-anchor="middle" x="107" y="-69" font-family="Helvetica,sans-Serif" font-size="10.00">JSystem/JSupport/JSUList.h</text>
</a>
</g>
</g>
<!-- Node2&#45;&gt;Node4 -->
<g id="edge19" class="edge">
<title>Node2&#45;&gt;Node4</title>
<path fill="none" stroke="midnightblue" d="M183.33,-235.43C149.64,-221.78 89.16,-191.58 64,-143 53.84,-123.38 71.5,-101.83 87.16,-87.78"/>
<polygon fill="midnightblue" stroke="midnightblue" points="89.62,-90.29 95.02,-81.17 85.11,-84.94 89.62,-90.29"/>
</g>
<!-- Node2&#45;&gt;Node5 -->
<g id="edge21" class="edge">
<title>Node2&#45;&gt;Node5</title>
<path fill="none" stroke="midnightblue" d="M277.56,-235.49C417.92,-216.97 724.03,-168.02 786,-87 794.37,-76.06 795.22,-66.24 786,-56 761,-28.24 514.84,-16.44 406.62,-12.57"/>
<polygon fill="midnightblue" stroke="midnightblue" points="406.7,-9.07 396.58,-12.22 406.46,-16.06 406.7,-9.07"/>
</g>
<!-- Node6 -->
<g id="node6" class="node">
<title>Node6</title>
<g id="a_node6"><a xlink:href="JKRHeap_8h.html" target="_top" xlink:title=" ">
<polygon fill="white" stroke="black" points="184.5,-179.5 184.5,-198.5 327.5,-198.5 327.5,-179.5 184.5,-179.5"/>
<text text-anchor="middle" x="256" y="-186.5" font-family="Helvetica,sans-Serif" font-size="10.00">JSystem/JKernel/JKRHeap.h</text>
</a>
</g>
</g>
<!-- Node2&#45;&gt;Node6 -->
<g id="edge6" class="edge">
<title>Node2&#45;&gt;Node6</title>
<path fill="none" stroke="midnightblue" d="M215.09,-235.08C222.16,-227.3 232.59,-215.8 241.15,-206.37"/>
<polygon fill="midnightblue" stroke="midnightblue" points="243.93,-208.51 248.06,-198.75 238.75,-203.8 243.93,-208.51"/>
</g>
<!-- Node7 -->
<g id="node7" class="node">
<title>Node7</title>
<g id="a_node7"><a xlink:href="OS_8h.html" target="_top" xlink:title=" ">
<polygon fill="white" stroke="black" points="350,-123.5 350,-142.5 436,-142.5 436,-123.5 350,-123.5"/>
<text text-anchor="middle" x="393" y="-130.5" font-family="Helvetica,sans-Serif" font-size="10.00">dolphin/os/OS.h</text>
</a>
</g>
</g>
<!-- Node2&#45;&gt;Node7 -->
<g id="edge20" class="edge">
<title>Node2&#45;&gt;Node7</title>
<path fill="none" stroke="midnightblue" d="M248.8,-235.48C275.63,-228.63 310.32,-217.11 337,-199 355.6,-186.37 371.73,-166.04 381.84,-151.48"/>
<polygon fill="midnightblue" stroke="midnightblue" points="384.94,-153.14 387.58,-142.88 379.12,-149.25 384.94,-153.14"/>
</g>
<!-- Node3&#45;&gt;Node4 -->
<g id="edge3" class="edge">
<title>Node3&#45;&gt;Node4</title>
<path fill="none" stroke="midnightblue" d="M145.55,-123.48C138.8,-114.55 128.03,-100.31 119.59,-89.14"/>
<polygon fill="midnightblue" stroke="midnightblue" points="122.26,-86.87 113.44,-81.01 116.68,-91.1 122.26,-86.87"/>
</g>
<!-- Node3&#45;&gt;Node5 -->
<g id="edge5" class="edge">
<title>Node3&#45;&gt;Node5</title>
<path fill="none" stroke="midnightblue" d="M158.92,-123.25C171.64,-107.7 200.28,-75.08 231,-56 255.45,-40.81 285.77,-29.74 310.43,-22.38"/>
<polygon fill="midnightblue" stroke="midnightblue" points="311.62,-25.67 320.26,-19.54 309.69,-18.95 311.62,-25.67"/>
</g>
<!-- Node4&#45;&gt;Node5 -->
<g id="edge4" class="edge">
<title>Node4&#45;&gt;Node5</title>
<path fill="none" stroke="midnightblue" d="M142.68,-61.98C186.87,-51.42 262.21,-33.41 310.51,-21.87"/>
<polygon fill="midnightblue" stroke="midnightblue" points="311.48,-25.24 320.39,-19.51 309.85,-18.43 311.48,-25.24"/>
</g>
<!-- Node6&#45;&gt;Node3 -->
<g id="edge7" class="edge">
<title>Node6&#45;&gt;Node3</title>
<path fill="none" stroke="midnightblue" d="M239.29,-179.32C222.69,-170.7 197,-157.36 177.78,-147.39"/>
<polygon fill="midnightblue" stroke="midnightblue" points="179.16,-144.16 168.67,-142.65 175.93,-150.37 179.16,-144.16"/>
</g>
<!-- Node6&#45;&gt;Node5 -->
<g id="edge18" class="edge">
<title>Node6&#45;&gt;Node5</title>
<path fill="none" stroke="midnightblue" d="M253.79,-179.36C248.57,-156.84 237.76,-95.35 264,-56 274.39,-40.42 291.81,-30.04 308.71,-23.22"/>
<polygon fill="midnightblue" stroke="midnightblue" points="310.36,-26.34 318.54,-19.61 307.95,-19.77 310.36,-26.34"/>
</g>
<!-- Node6&#45;&gt;Node7 -->
<g id="edge8" class="edge">
<title>Node6&#45;&gt;Node7</title>
<path fill="none" stroke="midnightblue" d="M277.71,-179.44C300.35,-170.52 336.07,-156.44 361.75,-146.32"/>
<polygon fill="midnightblue" stroke="midnightblue" points="363.37,-149.44 371.39,-142.52 360.81,-142.93 363.37,-149.44"/>
</g>
<!-- Node7&#45;&gt;Node5 -->
<g id="edge11" class="edge">
<title>Node7&#45;&gt;Node5</title>
<path fill="none" stroke="midnightblue" d="M391.26,-123.46C388.29,-109.28 381.78,-80.07 374,-56 371.09,-46.99 367.26,-37.21 363.88,-29.08"/>
<polygon fill="midnightblue" stroke="midnightblue" points="367.08,-27.66 359.95,-19.83 360.64,-30.41 367.08,-27.66"/>
</g>
<!-- Node8 -->
<g id="node8" class="node">
<title>Node8</title>
<g id="a_node8"><a xlink:href="____va__arg_8h.html" target="_top" xlink:title=" ">
<polygon fill="white" stroke="black" points="421,-56.5 421,-86.5 531,-86.5 531,-56.5 421,-56.5"/>
<text text-anchor="start" x="429" y="-74.5" font-family="Helvetica,sans-Serif" font-size="10.00">Runtime.PPCEABI.H/</text>
<text text-anchor="middle" x="476" y="-63.5" font-family="Helvetica,sans-Serif" font-size="10.00">__va_arg.h</text>
</a>
</g>
</g>
<!-- Node7&#45;&gt;Node8 -->
<g id="edge9" class="edge">
<title>Node7&#45;&gt;Node8</title>
<path fill="none" stroke="midnightblue" d="M404.89,-123.48C416.13,-115.42 433.42,-103.02 448.14,-92.47"/>
<polygon fill="midnightblue" stroke="midnightblue" points="450.35,-95.19 456.44,-86.52 446.27,-89.5 450.35,-95.19"/>
</g>
<!-- Node9 -->
<g id="node9" class="node">
<title>Node9</title>
<g id="a_node9"><a xlink:href="OSError_8h.html" target="_top" xlink:title=" ">
<polygon fill="white" stroke="black" points="549,-62 549,-81 655,-81 655,-62 549,-62"/>
<text text-anchor="middle" x="602" y="-69" font-family="Helvetica,sans-Serif" font-size="10.00">dolphin/os/OSError.h</text>
</a>
</g>
</g>
<!-- Node7&#45;&gt;Node9 -->
<g id="edge12" class="edge">
<title>Node7&#45;&gt;Node9</title>
<path fill="none" stroke="midnightblue" d="M422.94,-123.48C459.57,-113.05 521.7,-95.36 562.28,-83.81"/>
<polygon fill="midnightblue" stroke="midnightblue" points="563.45,-87.11 572.11,-81.01 561.53,-80.38 563.45,-87.11"/>
</g>
<!-- Node10 -->
<g id="node10" class="node">
<title>Node10</title>
<g id="a_node10"><a xlink:href="OSLink_8h.html" target="_top" xlink:title=" ">
<polygon fill="white" stroke="black" points="673,-62 673,-81 777,-81 777,-62 673,-62"/>
<text text-anchor="middle" x="725" y="-69" font-family="Helvetica,sans-Serif" font-size="10.00">dolphin/os/OSLink.h</text>
</a>
</g>
</g>
<!-- Node7&#45;&gt;Node10 -->
<g id="edge14" class="edge">
<title>Node7&#45;&gt;Node10</title>
<path fill="none" stroke="midnightblue" d="M436.35,-125.74C490,-117.78 584.05,-103.12 664,-87 669.47,-85.9 675.19,-84.66 680.85,-83.37"/>
<polygon fill="midnightblue" stroke="midnightblue" points="681.94,-86.71 690.89,-81.04 680.36,-79.89 681.94,-86.71"/>
</g>
<!-- Node11 -->
<g id="node11" class="node">
<title>Node11</title>
<g id="a_node11"><a xlink:href="dvd_8h.html" target="_top" xlink:title=" ">
<polygon fill="white" stroke="black" points="273,-62 273,-81 365,-81 365,-62 273,-62"/>
<text text-anchor="middle" x="319" y="-69" font-family="Helvetica,sans-Serif" font-size="10.00">dolphin/dvd/dvd.h</text>
</a>
</g>
</g>
<!-- Node7&#45;&gt;Node11 -->
<g id="edge16" class="edge">
<title>Node7&#45;&gt;Node11</title>
<path fill="none" stroke="midnightblue" d="M382.4,-123.48C370.75,-114.11 351.81,-98.88 337.67,-87.51"/>
<polygon fill="midnightblue" stroke="midnightblue" points="339.57,-84.55 329.58,-81.01 335.18,-90 339.57,-84.55"/>
</g>
<!-- Node8&#45;&gt;Node5 -->
<g id="edge10" class="edge">
<title>Node8&#45;&gt;Node5</title>
<path fill="none" stroke="midnightblue" d="M447.56,-56.4C427.88,-46.64 401.86,-33.74 382.59,-24.18"/>
<polygon fill="midnightblue" stroke="midnightblue" points="383.98,-20.96 373.46,-19.66 380.87,-27.24 383.98,-20.96"/>
</g>
<!-- Node9&#45;&gt;Node5 -->
<g id="edge13" class="edge">
<title>Node9&#45;&gt;Node5</title>
<path fill="none" stroke="midnightblue" d="M566.75,-61.98C523.1,-51.42 448.66,-33.41 400.94,-21.87"/>
<polygon fill="midnightblue" stroke="midnightblue" points="401.72,-18.46 391.18,-19.51 400.08,-25.26 401.72,-18.46"/>
</g>
<!-- Node10&#45;&gt;Node5 -->
<g id="edge15" class="edge">
<title>Node10&#45;&gt;Node5</title>
<path fill="none" stroke="midnightblue" d="M691.55,-61.99C682.64,-59.87 672.98,-57.72 664,-56 573.94,-38.75 467.95,-24.6 406.72,-17.02"/>
<polygon fill="midnightblue" stroke="midnightblue" points="406.9,-13.51 396.55,-15.77 406.05,-20.46 406.9,-13.51"/>
</g>
<!-- Node11&#45;&gt;Node5 -->
<g id="edge17" class="edge">
<title>Node11&#45;&gt;Node5</title>
<path fill="none" stroke="midnightblue" d="M324.3,-61.98C329.74,-53.23 338.36,-39.37 345.24,-28.31"/>
<polygon fill="midnightblue" stroke="midnightblue" points="348.4,-29.85 350.71,-19.51 342.46,-26.15 348.4,-29.85"/>
</g>
</g>
</svg>
        <g id="navigator" transform="translate(0 0)" fill="#404254">
                <rect fill="#f2f5e9" fill-opacity="0.5" stroke="#606060" stroke-width=".5" x="0" y="0" width="60" height="60"/>
                <use id="zoomplus" xlink:href="#zoomPlus" x="17" y="9" onmousedown="handleZoom(evt,'in')"/>
                <use id="zoomminus" xlink:href="#zoomMin" x="42" y="9" onmousedown="handleZoom(evt,'out')"/>
                <use id="reset" xlink:href="#resetDef" x="30" y="36" onmousedown="handleReset()"/>
                <g id="arrowUp" xlink:href="#dirArrow" transform="translate(30 24)" onmousedown="handlePan(0,-1)">
                  <use xlink:href="#rim" fill="#404040">
                        <set attributeName="fill" to="#808080" begin="arrowUp.mouseover" end="arrowUp.mouseout"/>
                  </use>
                  <path fill="none" stroke="white" stroke-width="1.5" d="M0,-3.0v7 M-2.5,-0.5L0,-3.0L2.5,-0.5"/>
                </g>
                <g id="arrowRight" xlink:href="#dirArrow" transform="rotate(90) translate(36 -43)" onmousedown="handlePan(1,0)">
                  <use xlink:href="#rim" fill="#404040">
                        <set attributeName="fill" to="#808080" begin="arrowRight.mouseover" end="arrowRight.mouseout"/>
                  </use>
                  <path fill="none" stroke="white" stroke-width="1.5" d="M0,-3.0v7 M-2.5,-0.5L0,-3.0L2.5,-0.5"/>
                </g>
                <g id="arrowDown" xlink:href="#dirArrow" transform="rotate(180) translate(-30 -48)" onmousedown="handlePan(0,1)">
                  <use xlink:href="#rim" fill="#404040">
                        <set attributeName="fill" to="#808080" begin="arrowDown.mouseover" end="arrowDown.mouseout"/>
                  </use>
                  <path fill="none" stroke="white" stroke-width="1.5" d="M0,-3.0v7 M-2.5,-0.5L0,-3.0L2.5,-0.5"/>
                </g>
                <g id="arrowLeft" xlink:href="#dirArrow" transform="rotate(270) translate(-36 17)" onmousedown="handlePan(-1,0)">
                  <use xlink:href="#rim" fill="#404040">
                        <set attributeName="fill" to="#808080" begin="arrowLeft.mouseover" end="arrowLeft.mouseout"/>
                  </use>
                  <path fill="none" stroke="white" stroke-width="1.5" d="M0,-3.0v7 M-2.5,-0.5L0,-3.0L2.5,-0.5"/>
                </g>
        </g>
        <svg viewBox="0 0 15 15" width="100%" height="30px" preserveAspectRatio="xMaxYMin meet">
         <g id="arrow_out" transform="scale(0.3 0.3)">
          <a xlink:href="m__Do__DVDError_8h__incl_org.svg" target="_base">
           <rect id="button" ry="5" rx="5" y="6" x="6" height="38" width="38"
                fill="#f2f5e9" fill-opacity="0.5" stroke="#606060" stroke-width="1.0"/>
           <path id="arrow"
             d="M 11.500037,31.436501 C 11.940474,20.09759 22.043105,11.32322 32.158766,21.979434 L 37.068811,17.246167 C 37.068811,17.246167 37.088388,32 37.088388,32 L 22.160133,31.978069 C 22.160133,31.978069 26.997745,27.140456 26.997745,27.140456 C 18.528582,18.264221 13.291696,25.230495 11.500037,31.436501 z"
             style="fill:#404040;"/>
          </a>
         </g>
        </svg>
</svg>
