<?xml version="1.0" encoding="UTF-8" standalone="no"?>
<!DOCTYPE svg PUBLIC "-//W3C//DTD SVG 1.1//EN"
 "http://www.w3.org/Graphics/SVG/1.1/DTD/svg11.dtd">
<!-- Generated by graphviz version 3.0.0 (20220413.0242)
 -->
<!-- Title: src/m_Do/m_Do_lib.cpp Pages: 1 -->
<!--zoomable 498 -->
<svg id="main" version="1.1" xmlns="http://www.w3.org/2000/svg" xmlns:xlink="http://www.w3.org/1999/xlink" xml:space="preserve" onload="init(evt)">
<style type="text/css"><![CDATA[
.edge:hover path { stroke: red; }
.edge:hover polygon { stroke: red; fill: red; }
]]></style>
<script type="text/javascript"><![CDATA[
var edges = document.getElementsByTagName('g');
if (edges && edges.length) {
  for (var i=0;i<edges.length;i++) {
    if (edges[i].id.substr(0,4)=='edge') {
      edges[i].setAttribute('class','edge');
    }
  }
}
]]></script>
        <defs>
                <circle id="rim" cx="0" cy="0" r="7"/>
                <circle id="rim2" cx="0" cy="0" r="3.5"/>
                <g id="zoomPlus">
                        <use xlink:href="#rim" fill="#404040">
                                <set attributeName="fill" to="#808080" begin="zoomplus.mouseover" end="zoomplus.mouseout"/>
                        </use>
                        <path d="M-4,0h8M0,-4v8" fill="none" stroke="white" stroke-width="1.5" pointer-events="none"/>
                </g>
                <g id="zoomMin">
                        <use xlink:href="#rim" fill="#404040">
                                <set attributeName="fill" to="#808080" begin="zoomminus.mouseover" end="zoomminus.mouseout"/>
                        </use>
                        <path d="M-4,0h8" fill="none" stroke="white" stroke-width="1.5" pointer-events="none"/>
                </g>
                <g id="dirArrow">
                        <path fill="none" stroke="white" stroke-width="1.5" d="M0,-3.0v7 M-2.5,-0.5L0,-3.0L2.5,-0.5"/>
                </g>
               <g id="resetDef">
                       <use xlink:href="#rim2" fill="#404040">
                               <set attributeName="fill" to="#808080" begin="reset.mouseover" end="reset.mouseout"/>
                       </use>
               </g>
        </defs>

<script type="text/javascript">
var viewWidth = 1678;
var viewHeight = 498;
var sectionId = 'dynsection-0';
</script>
<script xlink:href="svgpan.js"/>
<svg id="graph" class="graph">
<g id="viewport">
<title>src/m_Do/m_Do_lib.cpp</title>
<polygon fill="white" stroke="transparent" points="-4,4 -4,-494 1674,-494 1674,4 -4,4"/>
<!-- Node1 -->
<g id="node1" class="node">
<title>Node1</title>
<g id="a_node1"><a xlink:title=" ">
<polygon fill="#bfbfbf" stroke="black" points="937,-470.5 937,-489.5 1057,-489.5 1057,-470.5 937,-470.5"/>
<text text-anchor="middle" x="997" y="-477.5" font-family="Helvetica,sans-Serif" font-size="10.00">src/m_Do/m_Do_lib.cpp</text>
</a>
</g>
</g>
<!-- Node2 -->
<g id="node2" class="node">
<title>Node2</title>
<g id="a_node2"><a xlink:href="m__Do__lib_8h.html" target="_top" xlink:title=" ">
<polygon fill="white" stroke="black" points="203.5,-403.5 203.5,-422.5 296.5,-422.5 296.5,-403.5 203.5,-403.5"/>
<text text-anchor="middle" x="250" y="-410.5" font-family="Helvetica,sans-Serif" font-size="10.00">m_Do/m_Do_lib.h</text>
</a>
</g>
</g>
<!-- Node1&#45;&gt;Node2 -->
<g id="edge1" class="edge">
<title>Node1&#45;&gt;Node2</title>
<path fill="none" stroke="midnightblue" d="M936.82,-473.76C795.72,-461.49 445.1,-430.98 307.1,-418.97"/>
<polygon fill="midnightblue" stroke="midnightblue" points="307.02,-415.45 296.76,-418.07 306.42,-422.42 307.02,-415.45"/>
</g>
<!-- Node5 -->
<g id="node5" class="node">
<title>Node5</title>
<g id="a_node5"><a xlink:href="types_8h.html" target="_top" xlink:title=" ">
<polygon fill="white" stroke="black" points="476.5,-0.5 476.5,-19.5 557.5,-19.5 557.5,-0.5 476.5,-0.5"/>
<text text-anchor="middle" x="517" y="-7.5" font-family="Helvetica,sans-Serif" font-size="10.00">dolphin/types.h</text>
</a>
</g>
</g>
<!-- Node1&#45;&gt;Node5 -->
<g id="edge38" class="edge">
<title>Node1&#45;&gt;Node5</title>
<path fill="none" stroke="midnightblue" d="M973.51,-470.39C956.52,-463.08 934.15,-451.03 920,-434 847.39,-346.61 902,-292.62 902,-179 902,-179 902,-179 902,-121 902,-88.19 894.04,-74.59 867,-56 819.51,-23.34 652.76,-14.38 567.71,-11.93"/>
<polygon fill="midnightblue" stroke="midnightblue" points="567.6,-8.42 557.51,-11.65 567.42,-15.42 567.6,-8.42"/>
</g>
<!-- Node6 -->
<g id="node6" class="node">
<title>Node6</title>
<g id="a_node6"><a xlink:href="JUTTexture_8h.html" target="_top" xlink:title=" ">
<polygon fill="white" stroke="black" points="323.5,-336.5 323.5,-355.5 472.5,-355.5 472.5,-336.5 323.5,-336.5"/>
<text text-anchor="middle" x="398" y="-343.5" font-family="Helvetica,sans-Serif" font-size="10.00">JSystem/JUtility/JUTTexture.h</text>
</a>
</g>
</g>
<!-- Node1&#45;&gt;Node6 -->
<g id="edge33" class="edge">
<title>Node1&#45;&gt;Node6</title>
<path fill="none" stroke="midnightblue" d="M958.16,-470.44C852.97,-447.26 562.7,-383.29 446.76,-357.75"/>
<polygon fill="midnightblue" stroke="midnightblue" points="447.27,-354.27 436.75,-355.54 445.76,-361.11 447.27,-354.27"/>
</g>
<!-- Node16 -->
<g id="node16" class="node">
<title>Node16</title>
<g id="a_node16"><a xlink:href="JMATrigonometric_8h.html" target="_top" xlink:title=" ">
<polygon fill="white" stroke="black" points="901.5,-336.5 901.5,-355.5 1076.5,-355.5 1076.5,-336.5 901.5,-336.5"/>
<text text-anchor="middle" x="989" y="-343.5" font-family="Helvetica,sans-Serif" font-size="10.00">JSystem/JMath/JMATrigonometric.h</text>
</a>
</g>
</g>
<!-- Node1&#45;&gt;Node16 -->
<g id="edge31" class="edge">
<title>Node1&#45;&gt;Node16</title>
<path fill="none" stroke="midnightblue" d="M974.21,-470.47C958.67,-463.32 939.29,-451.44 930,-434 921.22,-417.53 921.72,-408.73 930,-392 936.6,-378.66 949.26,-368.19 961.17,-360.73"/>
<polygon fill="midnightblue" stroke="midnightblue" points="963.12,-363.64 970.02,-355.6 959.61,-357.59 963.12,-363.64"/>
</g>
<!-- Node17 -->
<g id="node17" class="node">
<title>Node17</title>
<g id="a_node17"><a xlink:href="c__math_8h.html" target="_top" xlink:title=" ">
<polygon fill="white" stroke="black" points="939,-398 939,-428 1055,-428 1055,-398 939,-398"/>
<text text-anchor="start" x="947" y="-416" font-family="Helvetica,sans-Serif" font-size="10.00">SSystem/SComponent</text>
<text text-anchor="middle" x="997" y="-405" font-family="Helvetica,sans-Serif" font-size="10.00">/c_math.h</text>
</a>
</g>
</g>
<!-- Node1&#45;&gt;Node17 -->
<g id="edge34" class="edge">
<title>Node1&#45;&gt;Node17</title>
<path fill="none" stroke="midnightblue" d="M997,-470.23C997,-462.04 997,-449.42 997,-438.21"/>
<polygon fill="midnightblue" stroke="midnightblue" points="1000.5,-438.09 997,-428.09 993.5,-438.09 1000.5,-438.09"/>
</g>
<!-- Node18 -->
<g id="node18" class="node">
<title>Node18</title>
<g id="a_node18"><a xlink:href="dol2asm_8h.html" target="_top" xlink:title=" ">
<polygon fill="white" stroke="black" points="1073.5,-403.5 1073.5,-422.5 1134.5,-422.5 1134.5,-403.5 1073.5,-403.5"/>
<text text-anchor="middle" x="1104" y="-410.5" font-family="Helvetica,sans-Serif" font-size="10.00">dol2asm.h</text>
</a>
</g>
</g>
<!-- Node1&#45;&gt;Node18 -->
<g id="edge37" class="edge">
<title>Node1&#45;&gt;Node18</title>
<path fill="none" stroke="midnightblue" d="M1011.43,-470.23C1029.32,-459.37 1060.02,-440.72 1081.13,-427.89"/>
<polygon fill="midnightblue" stroke="midnightblue" points="1083.07,-430.81 1089.8,-422.63 1079.43,-424.83 1083.07,-430.81"/>
</g>
<!-- Node19 -->
<g id="node19" class="node">
<title>Node19</title>
<g id="a_node19"><a xlink:title=" ">
<polygon fill="white" stroke="#bfbfbf" points="1152.5,-392.5 1152.5,-433.5 1331.5,-433.5 1331.5,-392.5 1152.5,-392.5"/>
<text text-anchor="start" x="1160.5" y="-421.5" font-family="Helvetica,sans-Serif" font-size="10.00">asm/m_Do/m_Do_lib/mDoLib</text>
<text text-anchor="start" x="1160.5" y="-410.5" font-family="Helvetica,sans-Serif" font-size="10.00">_setResTimgObj__FPC7ResTIMGP9</text>
<text text-anchor="middle" x="1242" y="-399.5" font-family="Helvetica,sans-Serif" font-size="10.00">_GXTexObjUlP10_GXTlutObj.s</text>
</a>
</g>
</g>
<!-- Node1&#45;&gt;Node19 -->
<g id="edge39" class="edge">
<title>Node1&#45;&gt;Node19</title>
<path fill="none" stroke="midnightblue" d="M1029.28,-470.44C1062.02,-461.75 1114.05,-447.95 1158.45,-436.17"/>
<polygon fill="midnightblue" stroke="midnightblue" points="1159.62,-439.48 1168.38,-433.53 1157.82,-432.71 1159.62,-439.48"/>
</g>
<!-- Node20 -->
<g id="node20" class="node">
<title>Node20</title>
<g id="a_node20"><a xlink:title=" ">
<polygon fill="white" stroke="#bfbfbf" points="1350,-398 1350,-428 1494,-428 1494,-398 1350,-398"/>
<text text-anchor="start" x="1358" y="-416" font-family="Helvetica,sans-Serif" font-size="10.00">asm/m_Do/m_Do_lib/mDoLib</text>
<text text-anchor="middle" x="1422" y="-405" font-family="Helvetica,sans-Serif" font-size="10.00">_project__FP3VecP3Vec.s</text>
</a>
</g>
</g>
<!-- Node1&#45;&gt;Node20 -->
<g id="edge40" class="edge">
<title>Node1&#45;&gt;Node20</title>
<path fill="none" stroke="midnightblue" d="M1057.11,-473.12C1125.83,-465.93 1241.56,-452.41 1340,-434 1345.81,-432.91 1351.83,-431.67 1357.85,-430.35"/>
<polygon fill="midnightblue" stroke="midnightblue" points="1358.95,-433.69 1367.93,-428.07 1357.4,-426.86 1358.95,-433.69"/>
</g>
<!-- Node21 -->
<g id="node21" class="node">
<title>Node21</title>
<g id="a_node21"><a xlink:title=" ">
<polygon fill="white" stroke="#bfbfbf" points="1512,-398 1512,-428 1670,-428 1670,-398 1512,-398"/>
<text text-anchor="start" x="1520" y="-416" font-family="Helvetica,sans-Serif" font-size="10.00">asm/m_Do/m_Do_lib/mDoLib</text>
<text text-anchor="middle" x="1591" y="-405" font-family="Helvetica,sans-Serif" font-size="10.00">_pos2camera__FP3VecP3Vec.s</text>
</a>
</g>
</g>
<!-- Node1&#45;&gt;Node21 -->
<g id="edge41" class="edge">
<title>Node1&#45;&gt;Node21</title>
<path fill="none" stroke="midnightblue" d="M1057.3,-476.27C1152.47,-471.37 1343.13,-459.16 1503,-434 1510.02,-432.89 1517.32,-431.55 1524.58,-430.09"/>
<polygon fill="midnightblue" stroke="midnightblue" points="1525.34,-433.51 1534.41,-428.04 1523.91,-426.66 1525.34,-433.51"/>
</g>
<!-- Node3 -->
<g id="node3" class="node">
<title>Node3</title>
<g id="a_node3"><a xlink:href="J3DUClipper_8h.html" target="_top" xlink:title=" ">
<polygon fill="white" stroke="black" points="28,-112.5 28,-131.5 176,-131.5 176,-112.5 28,-112.5"/>
<text text-anchor="middle" x="102" y="-119.5" font-family="Helvetica,sans-Serif" font-size="10.00">JSystem/J3DU/J3DUClipper.h</text>
</a>
</g>
</g>
<!-- Node2&#45;&gt;Node3 -->
<g id="edge2" class="edge">
<title>Node2&#45;&gt;Node3</title>
<path fill="none" stroke="midnightblue" d="M231.62,-403.44C198.91,-386.79 134,-346.73 134,-291 134,-291 134,-291 134,-233 134,-199.33 120.01,-162.08 110.53,-140.72"/>
<polygon fill="midnightblue" stroke="midnightblue" points="113.68,-139.21 106.32,-131.59 107.33,-142.14 113.68,-139.21"/>
</g>
<!-- Node2&#45;&gt;Node5 -->
<g id="edge6" class="edge">
<title>Node2&#45;&gt;Node5</title>
<path fill="none" stroke="midnightblue" d="M203.27,-409.85C130.91,-403.73 0,-380.33 0,-291 0,-291 0,-291 0,-121 0,-26.29 336.1,-12.8 466.32,-11.12"/>
<polygon fill="midnightblue" stroke="midnightblue" points="466.47,-14.62 476.43,-11.01 466.39,-7.62 466.47,-14.62"/>
</g>
<!-- Node2&#45;&gt;Node6 -->
<g id="edge7" class="edge">
<title>Node2&#45;&gt;Node6</title>
<path fill="none" stroke="midnightblue" d="M269.65,-403.37C295.09,-392.2 339.6,-372.65 368.95,-359.76"/>
<polygon fill="midnightblue" stroke="midnightblue" points="370.52,-362.89 378.27,-355.67 367.7,-356.48 370.52,-362.89"/>
</g>
<!-- Node4 -->
<g id="node4" class="node">
<title>Node4</title>
<g id="a_node4"><a xlink:href="vec_8h.html" target="_top" xlink:title=" ">
<polygon fill="white" stroke="black" points="233,-56.5 233,-75.5 325,-75.5 325,-56.5 233,-56.5"/>
<text text-anchor="middle" x="279" y="-63.5" font-family="Helvetica,sans-Serif" font-size="10.00">dolphin/mtx/vec.h</text>
</a>
</g>
</g>
<!-- Node3&#45;&gt;Node4 -->
<g id="edge3" class="edge">
<title>Node3&#45;&gt;Node4</title>
<path fill="none" stroke="midnightblue" d="M130.05,-112.44C160.08,-103.28 207.91,-88.69 241.24,-78.52"/>
<polygon fill="midnightblue" stroke="midnightblue" points="242.54,-81.78 251.09,-75.52 240.5,-75.09 242.54,-81.78"/>
</g>
<!-- Node3&#45;&gt;Node5 -->
<g id="edge5" class="edge">
<title>Node3&#45;&gt;Node5</title>
<path fill="none" stroke="midnightblue" d="M110.8,-112.06C125.65,-97.6 157.28,-69.32 190,-56 282.33,-18.43 400.16,-11.14 466.21,-10.33"/>
<polygon fill="midnightblue" stroke="midnightblue" points="466.38,-13.82 476.35,-10.25 466.32,-6.82 466.38,-13.82"/>
</g>
<!-- Node4&#45;&gt;Node5 -->
<g id="edge4" class="edge">
<title>Node4&#45;&gt;Node5</title>
<path fill="none" stroke="midnightblue" d="M316.71,-56.44C358.14,-47.04 424.76,-31.93 469.67,-21.74"/>
<polygon fill="midnightblue" stroke="midnightblue" points="470.49,-25.14 479.46,-19.52 468.94,-18.32 470.49,-25.14"/>
</g>
<!-- Node6&#45;&gt;Node5 -->
<g id="edge30" class="edge">
<title>Node6&#45;&gt;Node5</title>
<path fill="none" stroke="midnightblue" d="M337.42,-336.5C280.49,-324.69 204,-297.24 204,-235 204,-235 204,-235 204,-121 204,-90.77 201.12,-75.76 224,-56 259.39,-25.44 392.15,-15.59 466.23,-12.45"/>
<polygon fill="midnightblue" stroke="midnightblue" points="466.42,-15.94 476.28,-12.05 466.15,-8.95 466.42,-15.94"/>
</g>
<!-- Node7 -->
<g id="node7" class="node">
<title>Node7</title>
<g id="a_node7"><a xlink:href="JUTPalette_8h.html" target="_top" xlink:title=" ">
<polygon fill="white" stroke="black" points="518,-280.5 518,-299.5 666,-299.5 666,-280.5 518,-280.5"/>
<text text-anchor="middle" x="592" y="-287.5" font-family="Helvetica,sans-Serif" font-size="10.00">JSystem/JUtility/JUTPalette.h</text>
</a>
</g>
</g>
<!-- Node6&#45;&gt;Node7 -->
<g id="edge8" class="edge">
<title>Node6&#45;&gt;Node7</title>
<path fill="none" stroke="midnightblue" d="M428.74,-336.44C461.94,-327.2 514.99,-312.44 551.56,-302.26"/>
<polygon fill="midnightblue" stroke="midnightblue" points="552.71,-305.57 561.4,-299.52 550.83,-298.83 552.71,-305.57"/>
</g>
<!-- Node7&#45;&gt;Node5 -->
<g id="edge29" class="edge">
<title>Node7&#45;&gt;Node5</title>
<path fill="none" stroke="midnightblue" d="M636.92,-280.48C714.17,-264.54 864,-227.39 864,-179 864,-179 864,-179 864,-121 864,-90.9 867.8,-75.65 845,-56 804.45,-21.05 649.24,-13.14 567.71,-11.42"/>
<polygon fill="midnightblue" stroke="midnightblue" points="567.73,-7.92 557.66,-11.23 567.6,-14.92 567.73,-7.92"/>
</g>
<!-- Node8 -->
<g id="node8" class="node">
<title>Node8</title>
<g id="a_node8"><a xlink:href="GX_8h.html" target="_top" xlink:title=" ">
<polygon fill="white" stroke="black" points="549.5,-224.5 549.5,-243.5 634.5,-243.5 634.5,-224.5 549.5,-224.5"/>
<text text-anchor="middle" x="592" y="-231.5" font-family="Helvetica,sans-Serif" font-size="10.00">dolphin/gx/GX.h</text>
</a>
</g>
</g>
<!-- Node7&#45;&gt;Node8 -->
<g id="edge9" class="edge">
<title>Node7&#45;&gt;Node8</title>
<path fill="none" stroke="midnightblue" d="M592,-280.08C592,-273.01 592,-262.86 592,-253.99"/>
<polygon fill="midnightblue" stroke="midnightblue" points="595.5,-253.75 592,-243.75 588.5,-253.75 595.5,-253.75"/>
</g>
<!-- Node8&#45;&gt;Node5 -->
<g id="edge27" class="edge">
<title>Node8&#45;&gt;Node5</title>
<path fill="none" stroke="midnightblue" d="M589.35,-224.35C582.65,-203.41 563.42,-149.02 534,-112 518.06,-91.95 500.1,-99.08 489,-76 481.14,-59.65 491.66,-40.53 501.98,-27.29"/>
<polygon fill="midnightblue" stroke="midnightblue" points="504.76,-29.42 508.53,-19.51 499.41,-24.9 504.76,-29.42"/>
</g>
<!-- Node9 -->
<g id="node9" class="node">
<title>Node9</title>
<g id="a_node9"><a xlink:href="GXDisplayList_8h.html" target="_top" xlink:title=" ">
<polygon fill="white" stroke="black" points="498.5,-56.5 498.5,-75.5 631.5,-75.5 631.5,-56.5 498.5,-56.5"/>
<text text-anchor="middle" x="565" y="-63.5" font-family="Helvetica,sans-Serif" font-size="10.00">dolphin/gx/GXDisplayList.h</text>
</a>
</g>
</g>
<!-- Node8&#45;&gt;Node9 -->
<g id="edge10" class="edge">
<title>Node8&#45;&gt;Node9</title>
<path fill="none" stroke="midnightblue" d="M590.55,-224.08C586.3,-197.95 573.82,-121.21 568.02,-85.58"/>
<polygon fill="midnightblue" stroke="midnightblue" points="571.45,-84.88 566.39,-75.57 564.54,-86 571.45,-84.88"/>
</g>
<!-- Node10 -->
<g id="node10" class="node">
<title>Node10</title>
<g id="a_node10"><a xlink:href="GXStruct_8h.html" target="_top" xlink:title=" ">
<polygon fill="white" stroke="black" points="620.5,-168.5 620.5,-187.5 731.5,-187.5 731.5,-168.5 620.5,-168.5"/>
<text text-anchor="middle" x="676" y="-175.5" font-family="Helvetica,sans-Serif" font-size="10.00">dolphin/gx/GXStruct.h</text>
</a>
</g>
</g>
<!-- Node8&#45;&gt;Node10 -->
<g id="edge12" class="edge">
<title>Node8&#45;&gt;Node10</title>
<path fill="none" stroke="midnightblue" d="M605.5,-224.32C618.6,-215.9 638.71,-202.97 654.11,-193.07"/>
<polygon fill="midnightblue" stroke="midnightblue" points="656.02,-196.01 662.54,-187.65 652.23,-190.12 656.02,-196.01"/>
</g>
<!-- Node11 -->
<g id="node11" class="node">
<title>Node11</title>
<g id="a_node11"><a xlink:href="global_8h.html" target="_top" xlink:title=" ">
<polygon fill="white" stroke="black" points="688,-112.5 688,-131.5 738,-131.5 738,-112.5 688,-112.5"/>
<text text-anchor="middle" x="713" y="-119.5" font-family="Helvetica,sans-Serif" font-size="10.00">global.h</text>
</a>
</g>
</g>
<!-- Node8&#45;&gt;Node11 -->
<g id="edge28" class="edge">
<title>Node8&#45;&gt;Node11</title>
<path fill="none" stroke="midnightblue" d="M634.77,-232.89C669.32,-230.25 716.01,-220.36 740,-188 750.97,-173.2 739.66,-153.3 728.51,-139.43"/>
<polygon fill="midnightblue" stroke="midnightblue" points="730.98,-136.94 721.78,-131.67 725.69,-141.52 730.98,-136.94"/>
</g>
<!-- Node12 -->
<g id="node12" class="node">
<title>Node12</title>
<g id="a_node12"><a xlink:href="GXEnum_8h.html" target="_top" xlink:title=" ">
<polygon fill="white" stroke="black" points="726,-56.5 726,-75.5 836,-75.5 836,-56.5 726,-56.5"/>
<text text-anchor="middle" x="781" y="-63.5" font-family="Helvetica,sans-Serif" font-size="10.00">dolphin/gx/GXEnum.h</text>
</a>
</g>
</g>
<!-- Node8&#45;&gt;Node12 -->
<g id="edge16" class="edge">
<title>Node8&#45;&gt;Node12</title>
<path fill="none" stroke="midnightblue" d="M634.86,-233.19C672.45,-230.94 725.83,-221.45 757,-188 783.07,-160.02 784.45,-112.2 782.9,-85.83"/>
<polygon fill="midnightblue" stroke="midnightblue" points="786.37,-85.36 782.09,-75.67 779.39,-85.92 786.37,-85.36"/>
</g>
<!-- Node13 -->
<g id="node13" class="node">
<title>Node13</title>
<g id="a_node13"><a xlink:href="mtx_8h.html" target="_top" xlink:title=" ">
<polygon fill="white" stroke="black" points="348,-168.5 348,-187.5 440,-187.5 440,-168.5 348,-168.5"/>
<text text-anchor="middle" x="394" y="-175.5" font-family="Helvetica,sans-Serif" font-size="10.00">dolphin/mtx/mtx.h</text>
</a>
</g>
</g>
<!-- Node8&#45;&gt;Node13 -->
<g id="edge18" class="edge">
<title>Node8&#45;&gt;Node13</title>
<path fill="none" stroke="midnightblue" d="M560.63,-224.44C526.74,-215.2 472.6,-200.44 435.28,-190.26"/>
<polygon fill="midnightblue" stroke="midnightblue" points="435.8,-186.77 425.23,-187.52 433.95,-193.52 435.8,-186.77"/>
</g>
<!-- Node14 -->
<g id="node14" class="node">
<title>Node14</title>
<g id="a_node14"><a xlink:href="mtx44_8h.html" target="_top" xlink:title=" ">
<polygon fill="white" stroke="black" points="422.5,-112.5 422.5,-131.5 525.5,-131.5 525.5,-112.5 422.5,-112.5"/>
<text text-anchor="middle" x="474" y="-119.5" font-family="Helvetica,sans-Serif" font-size="10.00">dolphin/mtx/mtx44.h</text>
</a>
</g>
</g>
<!-- Node8&#45;&gt;Node14 -->
<g id="edge26" class="edge">
<title>Node8&#45;&gt;Node14</title>
<path fill="none" stroke="midnightblue" d="M581.47,-224.23C570.84,-215.3 554.03,-200.96 540,-188 522.39,-171.74 502.91,-152.38 489.71,-139.04"/>
<polygon fill="midnightblue" stroke="midnightblue" points="491.88,-136.26 482.37,-131.59 486.9,-141.17 491.88,-136.26"/>
</g>
<!-- Node9&#45;&gt;Node5 -->
<g id="edge11" class="edge">
<title>Node9&#45;&gt;Node5</title>
<path fill="none" stroke="midnightblue" d="M557.07,-56.08C550.15,-48.3 539.93,-36.8 531.55,-27.37"/>
<polygon fill="midnightblue" stroke="midnightblue" points="534.04,-24.9 524.78,-19.75 528.81,-29.55 534.04,-24.9"/>
</g>
<!-- Node10&#45;&gt;Node5 -->
<g id="edge13" class="edge">
<title>Node10&#45;&gt;Node5</title>
<path fill="none" stroke="midnightblue" d="M675.95,-168.4C675.35,-146.63 670.78,-88.73 640,-56 621.11,-35.91 592.51,-24.75 567.64,-18.58"/>
<polygon fill="midnightblue" stroke="midnightblue" points="568.13,-15.1 557.61,-16.3 566.58,-21.93 568.13,-15.1"/>
</g>
<!-- Node10&#45;&gt;Node11 -->
<g id="edge14" class="edge">
<title>Node10&#45;&gt;Node11</title>
<path fill="none" stroke="midnightblue" d="M682.11,-168.08C687.28,-160.53 694.85,-149.49 701.19,-140.23"/>
<polygon fill="midnightblue" stroke="midnightblue" points="704.24,-141.98 707,-131.75 698.46,-138.02 704.24,-141.98"/>
</g>
<!-- Node11&#45;&gt;Node5 -->
<g id="edge15" class="edge">
<title>Node11&#45;&gt;Node5</title>
<path fill="none" stroke="midnightblue" d="M710.2,-112.42C705.21,-98.46 693.42,-70.91 674,-56 643.32,-32.45 600.77,-21.22 567.7,-15.87"/>
<polygon fill="midnightblue" stroke="midnightblue" points="568.18,-12.4 557.77,-14.39 567.14,-19.32 568.18,-12.4"/>
</g>
<!-- Node12&#45;&gt;Node5 -->
<g id="edge17" class="edge">
<title>Node12&#45;&gt;Node5</title>
<path fill="none" stroke="midnightblue" d="M739.17,-56.44C692.65,-46.93 617.51,-31.56 567.69,-21.37"/>
<polygon fill="midnightblue" stroke="midnightblue" points="568.27,-17.91 557.77,-19.34 566.86,-24.77 568.27,-17.91"/>
</g>
<!-- Node13&#45;&gt;Node4 -->
<g id="edge24" class="edge">
<title>Node13&#45;&gt;Node4</title>
<path fill="none" stroke="midnightblue" d="M347.77,-174.55C317.72,-170.27 280.61,-159.33 261,-132 250.91,-117.93 258.48,-98.43 266.68,-84.46"/>
<polygon fill="midnightblue" stroke="midnightblue" points="269.78,-86.12 272.24,-75.81 263.89,-82.33 269.78,-86.12"/>
</g>
<!-- Node13&#45;&gt;Node5 -->
<g id="edge25" class="edge">
<title>Node13&#45;&gt;Node5</title>
<path fill="none" stroke="midnightblue" d="M395.71,-168.31C398.39,-155.57 404.22,-131.25 413,-112 425.28,-85.08 428.22,-77.06 449,-56 461.36,-43.47 477.75,-32.5 491.34,-24.53"/>
<polygon fill="midnightblue" stroke="midnightblue" points="493.24,-27.48 500.22,-19.51 489.8,-21.38 493.24,-27.48"/>
</g>
<!-- Node13&#45;&gt;Node14 -->
<g id="edge19" class="edge">
<title>Node13&#45;&gt;Node14</title>
<path fill="none" stroke="midnightblue" d="M406.85,-168.32C419.22,-159.98 438.13,-147.21 452.74,-137.35"/>
<polygon fill="midnightblue" stroke="midnightblue" points="454.85,-140.15 461.18,-131.65 450.93,-134.35 454.85,-140.15"/>
</g>
<!-- Node15 -->
<g id="node15" class="node">
<title>Node15</title>
<g id="a_node15"><a xlink:href="quat_8h.html" target="_top" xlink:title=" ">
<polygon fill="white" stroke="black" points="270.5,-112.5 270.5,-131.5 365.5,-131.5 365.5,-112.5 270.5,-112.5"/>
<text text-anchor="middle" x="318" y="-119.5" font-family="Helvetica,sans-Serif" font-size="10.00">dolphin/mtx/quat.h</text>
</a>
</g>
</g>
<!-- Node13&#45;&gt;Node15 -->
<g id="edge21" class="edge">
<title>Node13&#45;&gt;Node15</title>
<path fill="none" stroke="midnightblue" d="M381.79,-168.32C370.22,-160.11 352.62,-147.6 338.84,-137.81"/>
<polygon fill="midnightblue" stroke="midnightblue" points="340.61,-134.77 330.43,-131.83 336.56,-140.48 340.61,-134.77"/>
</g>
<!-- Node14&#45;&gt;Node5 -->
<g id="edge20" class="edge">
<title>Node14&#45;&gt;Node5</title>
<path fill="none" stroke="midnightblue" d="M467.67,-112.19C459.26,-99.31 446.5,-74.81 456,-56 462.81,-42.52 475.77,-32.08 488,-24.67"/>
<polygon fill="midnightblue" stroke="midnightblue" points="490.07,-27.52 497.09,-19.59 486.66,-21.41 490.07,-27.52"/>
</g>
<!-- Node15&#45;&gt;Node4 -->
<g id="edge22" class="edge">
<title>Node15&#45;&gt;Node4</title>
<path fill="none" stroke="midnightblue" d="M311.56,-112.08C306.05,-104.46 297.97,-93.26 291.24,-83.94"/>
<polygon fill="midnightblue" stroke="midnightblue" points="294.01,-81.81 285.32,-75.75 288.34,-85.91 294.01,-81.81"/>
</g>
<!-- Node15&#45;&gt;Node5 -->
<g id="edge23" class="edge">
<title>Node15&#45;&gt;Node5</title>
<path fill="none" stroke="midnightblue" d="M324.2,-112.1C334.32,-98.2 355.74,-71.32 380,-56 406.28,-39.41 439.29,-28.33 466.32,-21.31"/>
<polygon fill="midnightblue" stroke="midnightblue" points="467.5,-24.63 476.36,-18.82 465.81,-17.83 467.5,-24.63"/>
</g>
<!-- Node16&#45;&gt;Node5 -->
<g id="edge32" class="edge">
<title>Node16&#45;&gt;Node5</title>
<path fill="none" stroke="midnightblue" d="M983.58,-336.25C972.86,-318.1 950,-274.71 950,-235 950,-235 950,-235 950,-121 950,-88.4 942.9,-74.42 916,-56 860.57,-18.03 662.37,-11.73 567.85,-10.93"/>
<polygon fill="midnightblue" stroke="midnightblue" points="567.69,-7.43 557.67,-10.86 567.65,-14.43 567.69,-7.43"/>
</g>
<!-- Node17&#45;&gt;Node5 -->
<g id="edge36" class="edge">
<title>Node17&#45;&gt;Node5</title>
<path fill="none" stroke="midnightblue" d="M1030.46,-397.83C1048.95,-388.43 1070.95,-374.43 1085,-356 1103.32,-331.96 1105,-321.23 1105,-291 1105,-291 1105,-291 1105,-121 1105,-42.59 1017.13,-74.75 941,-56 809.1,-23.51 648.43,-14.47 568.01,-11.96"/>
<polygon fill="midnightblue" stroke="midnightblue" points="567.77,-8.46 557.67,-11.66 567.57,-15.45 567.77,-8.46"/>
</g>
<!-- Node17&#45;&gt;Node16 -->
<g id="edge35" class="edge">
<title>Node17&#45;&gt;Node16</title>
<path fill="none" stroke="midnightblue" d="M995.26,-397.9C994.1,-388.46 992.56,-375.95 991.3,-365.69"/>
<polygon fill="midnightblue" stroke="midnightblue" points="994.77,-365.19 990.07,-355.69 987.82,-366.05 994.77,-365.19"/>
</g>
</g>
</svg>
        <g id="navigator" transform="translate(0 0)" fill="#404254">
                <rect fill="#f2f5e9" fill-opacity="0.5" stroke="#606060" stroke-width=".5" x="0" y="0" width="60" height="60"/>
                <use id="zoomplus" xlink:href="#zoomPlus" x="17" y="9" onmousedown="handleZoom(evt,'in')"/>
                <use id="zoomminus" xlink:href="#zoomMin" x="42" y="9" onmousedown="handleZoom(evt,'out')"/>
                <use id="reset" xlink:href="#resetDef" x="30" y="36" onmousedown="handleReset()"/>
                <g id="arrowUp" xlink:href="#dirArrow" transform="translate(30 24)" onmousedown="handlePan(0,-1)">
                  <use xlink:href="#rim" fill="#404040">
                        <set attributeName="fill" to="#808080" begin="arrowUp.mouseover" end="arrowUp.mouseout"/>
                  </use>
                  <path fill="none" stroke="white" stroke-width="1.5" d="M0,-3.0v7 M-2.5,-0.5L0,-3.0L2.5,-0.5"/>
                </g>
                <g id="arrowRight" xlink:href="#dirArrow" transform="rotate(90) translate(36 -43)" onmousedown="handlePan(1,0)">
                  <use xlink:href="#rim" fill="#404040">
                        <set attributeName="fill" to="#808080" begin="arrowRight.mouseover" end="arrowRight.mouseout"/>
                  </use>
                  <path fill="none" stroke="white" stroke-width="1.5" d="M0,-3.0v7 M-2.5,-0.5L0,-3.0L2.5,-0.5"/>
                </g>
                <g id="arrowDown" xlink:href="#dirArrow" transform="rotate(180) translate(-30 -48)" onmousedown="handlePan(0,1)">
                  <use xlink:href="#rim" fill="#404040">
                        <set attributeName="fill" to="#808080" begin="arrowDown.mouseover" end="arrowDown.mouseout"/>
                  </use>
                  <path fill="none" stroke="white" stroke-width="1.5" d="M0,-3.0v7 M-2.5,-0.5L0,-3.0L2.5,-0.5"/>
                </g>
                <g id="arrowLeft" xlink:href="#dirArrow" transform="rotate(270) translate(-36 17)" onmousedown="handlePan(-1,0)">
                  <use xlink:href="#rim" fill="#404040">
                        <set attributeName="fill" to="#808080" begin="arrowLeft.mouseover" end="arrowLeft.mouseout"/>
                  </use>
                  <path fill="none" stroke="white" stroke-width="1.5" d="M0,-3.0v7 M-2.5,-0.5L0,-3.0L2.5,-0.5"/>
                </g>
        </g>
        <svg viewBox="0 0 15 15" width="100%" height="30px" preserveAspectRatio="xMaxYMin meet">
         <g id="arrow_out" transform="scale(0.3 0.3)">
          <a xlink:href="m__Do__lib_8cpp__incl_org.svg" target="_base">
           <rect id="button" ry="5" rx="5" y="6" x="6" height="38" width="38"
                fill="#f2f5e9" fill-opacity="0.5" stroke="#606060" stroke-width="1.0"/>
           <path id="arrow"
             d="M 11.500037,31.436501 C 11.940474,20.09759 22.043105,11.32322 32.158766,21.979434 L 37.068811,17.246167 C 37.068811,17.246167 37.088388,32 37.088388,32 L 22.160133,31.978069 C 22.160133,31.978069 26.997745,27.140456 26.997745,27.140456 C 18.528582,18.264221 13.291696,25.230495 11.500037,31.436501 z"
             style="fill:#404040;"/>
          </a>
         </g>
        </svg>
</svg>
