<?xml version="1.0" encoding="UTF-8" standalone="no"?>
<!DOCTYPE svg PUBLIC "-//W3C//DTD SVG 1.1//EN"
 "http://www.w3.org/Graphics/SVG/1.1/DTD/svg11.dtd">
<!-- Generated by graphviz version 2.50.0 (20220203.2022)
 -->
<!-- Title: include/m_Do/m_Do_graphic.h Pages: 1 -->
<svg width="4301pt" height="419pt"
 viewBox="0.00 0.00 4300.50 419.00" xmlns="http://www.w3.org/2000/svg" xmlns:xlink="http://www.w3.org/1999/xlink">
<g id="graph0" class="graph" transform="scale(1 1) rotate(0) translate(4 415)">
<title>include/m_Do/m_Do_graphic.h</title>
<polygon fill="white" stroke="transparent" points="-4,4 -4,-415 4296.5,-415 4296.5,4 -4,4"/>
<!-- Node1 -->
<g id="node1" class="node">
<title>Node1</title>
<g id="a_node1"><a xlink:title=" ">
<polygon fill="#bfbfbf" stroke="black" points="4143.5,-391.5 4143.5,-410.5 4292.5,-410.5 4292.5,-391.5 4143.5,-391.5"/>
<text text-anchor="middle" x="4218" y="-398.5" font-family="Helvetica,sans-Serif" font-size="10.00">include/m_Do/m_Do_graphic.h</text>
</a>
</g>
</g>
<!-- Node2 -->
<g id="node2" class="node">
<title>Node2</title>
<g id="a_node2"><a xlink:href="d__menu__window_8h.html" target="_top" xlink:title=" ">
<polygon fill="white" stroke="black" points="4070,-324.5 4070,-354.5 4190,-354.5 4190,-324.5 4070,-324.5"/>
<text text-anchor="start" x="4078" y="-342.5" font-family="Helvetica,sans-Serif" font-size="10.00">include/d/menu/d_menu</text>
<text text-anchor="middle" x="4130" y="-331.5" font-family="Helvetica,sans-Serif" font-size="10.00">_window.h</text>
</a>
</g>
</g>
<!-- Node1&#45;&gt;Node2 -->
<g id="edge1" class="edge">
<title>Node1&#45;&gt;Node2</title>
<path fill="none" stroke="midnightblue" d="M4196.91,-385.74C4182.92,-376.28 4164.65,-363.93 4150.74,-354.52"/>
<polygon fill="midnightblue" stroke="midnightblue" points="4195.15,-388.77 4205.39,-391.48 4199.07,-382.97 4195.15,-388.77"/>
</g>
<!-- Node46 -->
<g id="node46" class="node">
<title>Node46</title>
<g id="a_node46"><a xlink:href="m__Do__graphic_8cpp.html" target="_top" xlink:title=" ">
<polygon fill="white" stroke="black" points="3898,-73 3898,-92 4040,-92 4040,-73 3898,-73"/>
<text text-anchor="middle" x="3969" y="-80" font-family="Helvetica,sans-Serif" font-size="10.00">src/m_Do/m_Do_graphic.cpp</text>
</a>
</g>
</g>
<!-- Node1&#45;&gt;Node46 -->
<g id="edge67" class="edge">
<title>Node1&#45;&gt;Node46</title>
<path fill="none" stroke="midnightblue" d="M4218,-381.3C4218,-356.62 4218,-311.8 4218,-273.5 4218,-273.5 4218,-273.5 4218,-210 4218,-129.63 4113.62,-100.3 4040.02,-89.61"/>
<polygon fill="midnightblue" stroke="midnightblue" points="4214.5,-381.41 4218,-391.41 4221.5,-381.41 4214.5,-381.41"/>
</g>
<!-- Node48 -->
<g id="node48" class="node">
<title>Node48</title>
<g id="a_node48"><a xlink:href="m__Do__main_8cpp.html" target="_top" xlink:title=" ">
<polygon fill="white" stroke="black" points="4096.5,-73 4096.5,-92 4227.5,-92 4227.5,-73 4096.5,-73"/>
<text text-anchor="middle" x="4162" y="-80" font-family="Helvetica,sans-Serif" font-size="10.00">src/m_Do/m_Do_main.cpp</text>
</a>
</g>
</g>
<!-- Node1&#45;&gt;Node48 -->
<g id="edge68" class="edge">
<title>Node1&#45;&gt;Node48</title>
<path fill="none" stroke="midnightblue" d="M4226.99,-382.11C4238.22,-358.05 4256,-313.65 4256,-273.5 4256,-273.5 4256,-273.5 4256,-210 4256,-174.58 4252.75,-162.71 4232,-134 4218.39,-115.18 4195.6,-100.63 4179.74,-92.09"/>
<polygon fill="midnightblue" stroke="midnightblue" points="4223.71,-380.85 4222.51,-391.37 4230.01,-383.9 4223.71,-380.85"/>
</g>
<!-- Node3 -->
<g id="node3" class="node">
<title>Node3</title>
<g id="a_node3"><a xlink:href="d__meter2__info_8h.html" target="_top" xlink:title=" ">
<polygon fill="white" stroke="black" points="309.5,-257.5 309.5,-287.5 436.5,-287.5 436.5,-257.5 309.5,-257.5"/>
<text text-anchor="start" x="317.5" y="-275.5" font-family="Helvetica,sans-Serif" font-size="10.00">include/d/meter/d_meter2</text>
<text text-anchor="middle" x="373" y="-264.5" font-family="Helvetica,sans-Serif" font-size="10.00">_info.h</text>
</a>
</g>
</g>
<!-- Node2&#45;&gt;Node3 -->
<g id="edge2" class="edge">
<title>Node2&#45;&gt;Node3</title>
<path fill="none" stroke="midnightblue" d="M4059.83,-337.32C3588.36,-329.27 887.72,-282.55 436.82,-274.64"/>
<polygon fill="midnightblue" stroke="midnightblue" points="4059.84,-340.82 4069.9,-337.49 4059.96,-333.82 4059.84,-340.82"/>
</g>
<!-- Node21 -->
<g id="node21" class="node">
<title>Node21</title>
<g id="a_node21"><a xlink:href="d__menu__window_8cpp.html" target="_top" xlink:title=" ">
<polygon fill="white" stroke="black" points="3146.5,-6 3146.5,-25 3305.5,-25 3305.5,-6 3146.5,-6"/>
<text text-anchor="middle" x="3226" y="-13" font-family="Helvetica,sans-Serif" font-size="10.00">src/d/menu/d_menu_window.cpp</text>
</a>
</g>
</g>
<!-- Node2&#45;&gt;Node21 -->
<g id="edge65" class="edge">
<title>Node2&#45;&gt;Node21</title>
<path fill="none" stroke="midnightblue" d="M4144.67,-315.78C4181.41,-257.52 4271.92,-104.76 4236,-67 4220.01,-50.19 3541.86,-26.71 3305.91,-19.04"/>
<polygon fill="midnightblue" stroke="midnightblue" points="4141.68,-313.97 4139.27,-324.29 4147.58,-317.72 4141.68,-313.97"/>
</g>
<!-- Node23 -->
<g id="node23" class="node">
<title>Node23</title>
<g id="a_node23"><a xlink:href="d__meter__map_8cpp.html" target="_top" xlink:title=" ">
<polygon fill="white" stroke="black" points="3818,-0.5 3818,-30.5 3922,-30.5 3922,-0.5 3818,-0.5"/>
<text text-anchor="start" x="3826" y="-18.5" font-family="Helvetica,sans-Serif" font-size="10.00">src/d/meter/d_meter</text>
<text text-anchor="middle" x="3870" y="-7.5" font-family="Helvetica,sans-Serif" font-size="10.00">_map.cpp</text>
</a>
</g>
</g>
<!-- Node2&#45;&gt;Node23 -->
<g id="edge66" class="edge">
<title>Node2&#45;&gt;Node23</title>
<path fill="none" stroke="midnightblue" d="M4155.87,-317.78C4213.25,-269.44 4340.7,-147.19 4270,-67 4247.35,-41.31 4025.46,-25.38 3922.28,-19.31"/>
<polygon fill="midnightblue" stroke="midnightblue" points="4153.4,-315.29 4147.94,-324.37 4157.87,-320.67 4153.4,-315.29"/>
</g>
<!-- Node3&#45;&gt;Node2 -->
<g id="edge60" class="edge">
<title>Node3&#45;&gt;Node2</title>
<path fill="none" stroke="midnightblue" d="M447.05,-274.75C930.57,-283 3631.24,-329.73 4069.82,-337.43"/>
<polygon fill="midnightblue" stroke="midnightblue" points="446.77,-271.24 436.71,-274.57 446.65,-278.24 446.77,-271.24"/>
</g>
<!-- Node4 -->
<g id="node4" class="node">
<title>Node4</title>
<g id="a_node4"><a xlink:href="d__a__alink_8h.html" target="_top" xlink:title=" ">
<polygon fill="white" stroke="black" points="358,-201.5 358,-220.5 474,-220.5 474,-201.5 358,-201.5"/>
<text text-anchor="middle" x="416" y="-208.5" font-family="Helvetica,sans-Serif" font-size="10.00">include/d/a/d_a_alink.h</text>
</a>
</g>
</g>
<!-- Node3&#45;&gt;Node4 -->
<g id="edge3" class="edge">
<title>Node3&#45;&gt;Node4</title>
<path fill="none" stroke="midnightblue" d="M389.19,-249.1C396.35,-239.19 404.36,-228.11 409.74,-220.66"/>
<polygon fill="midnightblue" stroke="midnightblue" points="386.21,-247.24 383.19,-257.4 391.88,-251.34 386.21,-247.24"/>
</g>
<!-- Node9 -->
<g id="node9" class="node">
<title>Node9</title>
<g id="a_node9"><a xlink:href="d__com__inf__game_8cpp.html" target="_top" xlink:title=" ">
<polygon fill="white" stroke="black" points="445,-0.5 445,-30.5 553,-30.5 553,-0.5 445,-0.5"/>
<text text-anchor="start" x="453" y="-18.5" font-family="Helvetica,sans-Serif" font-size="10.00">src/d/com/d_com_inf</text>
<text text-anchor="middle" x="499" y="-7.5" font-family="Helvetica,sans-Serif" font-size="10.00">_game.cpp</text>
</a>
</g>
</g>
<!-- Node3&#45;&gt;Node9 -->
<g id="edge61" class="edge">
<title>Node3&#45;&gt;Node9</title>
<path fill="none" stroke="midnightblue" d="M339.25,-252.18C278.99,-215.29 164.1,-132.69 219,-67 233.35,-49.83 367.74,-31.66 444.99,-22.51"/>
<polygon fill="midnightblue" stroke="midnightblue" points="337.7,-255.33 348.07,-257.49 341.31,-249.33 337.7,-255.33"/>
</g>
<!-- Node10 -->
<g id="node10" class="node">
<title>Node10</title>
<g id="a_node10"><a xlink:href="d__item_8cpp.html" target="_top" xlink:title=" ">
<polygon fill="white" stroke="black" points="243.5,-6 243.5,-25 332.5,-25 332.5,-6 243.5,-6"/>
<text text-anchor="middle" x="288" y="-13" font-family="Helvetica,sans-Serif" font-size="10.00">src/d/d_item.cpp</text>
</a>
</g>
</g>
<!-- Node3&#45;&gt;Node10 -->
<g id="edge62" class="edge">
<title>Node3&#45;&gt;Node10</title>
<path fill="none" stroke="midnightblue" d="M299.31,-260.92C253.25,-252.64 200.1,-239.41 186,-221 144.39,-166.66 149.9,-125.15 186,-67 199.7,-44.92 226.24,-32.2 248.81,-25.05"/>
<polygon fill="midnightblue" stroke="midnightblue" points="298.86,-264.4 309.31,-262.67 300.06,-257.5 298.86,-264.4"/>
</g>
<!-- Node22 -->
<g id="node22" class="node">
<title>Node22</title>
<g id="a_node22"><a xlink:href="d__meter2__info_8cpp.html" target="_top" xlink:title=" ">
<polygon fill="white" stroke="black" points="3018,-0.5 3018,-30.5 3128,-30.5 3128,-0.5 3018,-0.5"/>
<text text-anchor="start" x="3026" y="-18.5" font-family="Helvetica,sans-Serif" font-size="10.00">src/d/meter/d_meter2</text>
<text text-anchor="middle" x="3073" y="-7.5" font-family="Helvetica,sans-Serif" font-size="10.00">_info.cpp</text>
</a>
</g>
</g>
<!-- Node3&#45;&gt;Node22 -->
<g id="edge63" class="edge">
<title>Node3&#45;&gt;Node22</title>
<path fill="none" stroke="midnightblue" d="M446.83,-270.87C955.13,-266.21 3920,-233.23 4049,-98 4058.51,-88.03 4058.55,-76.93 4049,-67 4013.86,-30.45 3187.27,-37.63 3137,-31 3134.06,-30.61 3131.06,-30.15 3128.04,-29.64"/>
<polygon fill="midnightblue" stroke="midnightblue" points="446.65,-267.37 436.68,-270.97 446.71,-274.37 446.65,-267.37"/>
</g>
<!-- Node45 -->
<g id="node45" class="node">
<title>Node45</title>
<g id="a_node45"><a xlink:href="d__save_8cpp.html" target="_top" xlink:title=" ">
<polygon fill="white" stroke="black" points="228.5,-73 228.5,-92 343.5,-92 343.5,-73 228.5,-73"/>
<text text-anchor="middle" x="286" y="-80" font-family="Helvetica,sans-Serif" font-size="10.00">src/d/save/d_save.cpp</text>
</a>
</g>
</g>
<!-- Node3&#45;&gt;Node45 -->
<g id="edge64" class="edge">
<title>Node3&#45;&gt;Node45</title>
<path fill="none" stroke="midnightblue" d="M361.91,-248.33C357.82,-239.76 353.18,-229.95 349,-221 326.35,-172.46 299.79,-113.97 289.94,-92.21"/>
<polygon fill="midnightblue" stroke="midnightblue" points="358.76,-249.86 366.22,-257.38 365.07,-246.84 358.76,-249.86"/>
</g>
<!-- Node5 -->
<g id="node5" class="node">
<title>Node5</title>
<g id="a_node5"><a xlink:href="d__com__inf__game_8h.html" target="_top" xlink:title=" ">
<polygon fill="white" stroke="black" points="2183,-134.5 2183,-164.5 2293,-164.5 2293,-134.5 2183,-134.5"/>
<text text-anchor="start" x="2191" y="-152.5" font-family="Helvetica,sans-Serif" font-size="10.00">include/d/com/d_com</text>
<text text-anchor="middle" x="2238" y="-141.5" font-family="Helvetica,sans-Serif" font-size="10.00">_inf_game.h</text>
</a>
</g>
</g>
<!-- Node4&#45;&gt;Node5 -->
<g id="edge4" class="edge">
<title>Node4&#45;&gt;Node5</title>
<path fill="none" stroke="midnightblue" d="M484.06,-207.78C775.76,-198.25 1917.54,-160.97 2182.75,-152.3"/>
<polygon fill="midnightblue" stroke="midnightblue" points="483.93,-204.28 474.05,-208.1 484.16,-211.28 483.93,-204.28"/>
</g>
<!-- Node27 -->
<g id="node27" class="node">
<title>Node27</title>
<g id="a_node27"><a xlink:href="d__a__alink_8cpp.html" target="_top" xlink:title=" ">
<polygon fill="white" stroke="black" points="361.5,-73 361.5,-92 470.5,-92 470.5,-73 361.5,-73"/>
<text text-anchor="middle" x="416" y="-80" font-family="Helvetica,sans-Serif" font-size="10.00">src/d/a/d_a_alink.cpp</text>
</a>
</g>
</g>
<!-- Node4&#45;&gt;Node27 -->
<g id="edge59" class="edge">
<title>Node4&#45;&gt;Node27</title>
<path fill="none" stroke="midnightblue" d="M416,-190.94C416,-163.12 416,-112.54 416,-92.26"/>
<polygon fill="midnightblue" stroke="midnightblue" points="412.5,-191.31 416,-201.31 419.5,-191.31 412.5,-191.31"/>
</g>
<!-- Node6 -->
<g id="node6" class="node">
<title>Node6</title>
<g id="a_node6"><a xlink:href="d__cc__uty_8h.html" target="_top" xlink:title=" ">
<polygon fill="white" stroke="black" points="2604.5,-73 2604.5,-92 2723.5,-92 2723.5,-73 2604.5,-73"/>
<text text-anchor="middle" x="2664" y="-80" font-family="Helvetica,sans-Serif" font-size="10.00">include/d/cc/d_cc_uty.h</text>
</a>
</g>
</g>
<!-- Node5&#45;&gt;Node6 -->
<g id="edge5" class="edge">
<title>Node5&#45;&gt;Node6</title>
<path fill="none" stroke="midnightblue" d="M2303.46,-140.57C2375.22,-131.57 2493.63,-115.8 2595,-98 2605.01,-96.24 2615.78,-94.1 2625.77,-92.01"/>
<polygon fill="midnightblue" stroke="midnightblue" points="2302.71,-137.14 2293.22,-141.85 2303.58,-144.08 2302.71,-137.14"/>
</g>
<!-- Node8 -->
<g id="node8" class="node">
<title>Node8</title>
<g id="a_node8"><a xlink:href="d__item_8h.html" target="_top" xlink:title=" ">
<polygon fill="white" stroke="black" points="527.5,-73 527.5,-92 622.5,-92 622.5,-73 527.5,-73"/>
<text text-anchor="middle" x="575" y="-80" font-family="Helvetica,sans-Serif" font-size="10.00">include/d/d_item.h</text>
</a>
</g>
</g>
<!-- Node5&#45;&gt;Node8 -->
<g id="edge7" class="edge">
<title>Node5&#45;&gt;Node8</title>
<path fill="none" stroke="midnightblue" d="M2172.51,-148.38C1910.35,-147.59 936.04,-141.73 631,-98 621.75,-96.67 611.84,-94.4 602.95,-92.04"/>
<polygon fill="midnightblue" stroke="midnightblue" points="2172.62,-151.88 2182.63,-148.41 2172.64,-144.88 2172.62,-151.88"/>
</g>
<!-- Node5&#45;&gt;Node9 -->
<g id="edge37" class="edge">
<title>Node5&#45;&gt;Node9</title>
<path fill="none" stroke="midnightblue" d="M2172.6,-148.79C1866,-149.89 583.13,-151.27 518,-98 498.21,-81.81 496.65,-49.36 497.61,-30.66"/>
<polygon fill="midnightblue" stroke="midnightblue" points="2172.68,-152.29 2182.67,-148.76 2172.65,-145.29 2172.68,-152.29"/>
</g>
<!-- Node12 -->
<g id="node12" class="node">
<title>Node12</title>
<g id="a_node12"><a xlink:href="d__kantera__icon__meter_8h.html" target="_top" xlink:title=" ">
<polygon fill="white" stroke="black" points="640.5,-67.5 640.5,-97.5 741.5,-97.5 741.5,-67.5 640.5,-67.5"/>
<text text-anchor="start" x="648.5" y="-85.5" font-family="Helvetica,sans-Serif" font-size="10.00">include/d/d_kantera</text>
<text text-anchor="middle" x="691" y="-74.5" font-family="Helvetica,sans-Serif" font-size="10.00">_icon_meter.h</text>
</a>
</g>
</g>
<!-- Node5&#45;&gt;Node12 -->
<g id="edge11" class="edge">
<title>Node5&#45;&gt;Node12</title>
<path fill="none" stroke="midnightblue" d="M2172.55,-148.04C1923.08,-146.04 1031.7,-136.28 751,-98 747.92,-97.58 744.77,-97.07 741.6,-96.49"/>
<polygon fill="midnightblue" stroke="midnightblue" points="2172.87,-151.55 2182.9,-148.13 2172.93,-144.55 2172.87,-151.55"/>
</g>
<!-- Node14 -->
<g id="node14" class="node">
<title>Node14</title>
<g id="a_node14"><a xlink:href="d__meter2__draw_8cpp.html" target="_top" xlink:title=" ">
<polygon fill="white" stroke="black" points="2209,-0.5 2209,-30.5 2319,-30.5 2319,-0.5 2209,-0.5"/>
<text text-anchor="start" x="2217" y="-18.5" font-family="Helvetica,sans-Serif" font-size="10.00">src/d/meter/d_meter2</text>
<text text-anchor="middle" x="2264" y="-7.5" font-family="Helvetica,sans-Serif" font-size="10.00">_draw.cpp</text>
</a>
</g>
</g>
<!-- Node5&#45;&gt;Node14 -->
<g id="edge50" class="edge">
<title>Node5&#45;&gt;Node14</title>
<path fill="none" stroke="midnightblue" d="M2280.26,-129.08C2292.41,-121.25 2304.21,-110.96 2311,-98 2317.4,-85.8 2316.04,-79.82 2311,-67 2305.3,-52.51 2293.27,-39.71 2282.81,-30.63"/>
<polygon fill="midnightblue" stroke="midnightblue" points="2278.21,-126.22 2271.41,-134.34 2281.79,-132.23 2278.21,-126.22"/>
</g>
<!-- Node15 -->
<g id="node15" class="node">
<title>Node15</title>
<g id="a_node15"><a xlink:href="d__file__sel__info_8h.html" target="_top" xlink:title=" ">
<polygon fill="white" stroke="black" points="2359,-67.5 2359,-97.5 2455,-97.5 2455,-67.5 2359,-67.5"/>
<text text-anchor="start" x="2367" y="-85.5" font-family="Helvetica,sans-Serif" font-size="10.00">include/d/file/d_file</text>
<text text-anchor="middle" x="2407" y="-74.5" font-family="Helvetica,sans-Serif" font-size="10.00">_sel_info.h</text>
</a>
</g>
</g>
<!-- Node5&#45;&gt;Node15 -->
<g id="edge14" class="edge">
<title>Node5&#45;&gt;Node15</title>
<path fill="none" stroke="midnightblue" d="M2284.33,-130.68C2311.43,-120.26 2345.17,-107.28 2370.4,-97.58"/>
<polygon fill="midnightblue" stroke="midnightblue" points="2282.75,-127.54 2274.67,-134.4 2285.26,-134.07 2282.75,-127.54"/>
</g>
<!-- Node17 -->
<g id="node17" class="node">
<title>Node17</title>
<g id="a_node17"><a xlink:href="d__meter2_8h.html" target="_top" xlink:title=" ">
<polygon fill="white" stroke="black" points="0,-73 0,-92 134,-92 134,-73 0,-73"/>
<text text-anchor="middle" x="67" y="-80" font-family="Helvetica,sans-Serif" font-size="10.00">include/d/meter/d_meter2.h</text>
</a>
</g>
</g>
<!-- Node5&#45;&gt;Node17 -->
<g id="edge16" class="edge">
<title>Node5&#45;&gt;Node17</title>
<path fill="none" stroke="midnightblue" d="M2172.86,-148.53C1920.97,-148.29 986.67,-144.16 219,-98 191.22,-96.33 160.65,-93.59 134.26,-90.94"/>
<polygon fill="midnightblue" stroke="midnightblue" points="2172.93,-152.03 2182.94,-148.54 2172.94,-145.03 2172.93,-152.03"/>
</g>
<!-- Node19 -->
<g id="node19" class="node">
<title>Node19</title>
<g id="a_node19"><a xlink:href="d__msg__object_8h.html" target="_top" xlink:title=" ">
<polygon fill="white" stroke="black" points="2780,-67.5 2780,-97.5 2890,-97.5 2890,-67.5 2780,-67.5"/>
<text text-anchor="start" x="2788" y="-85.5" font-family="Helvetica,sans-Serif" font-size="10.00">include/d/msg/d_msg</text>
<text text-anchor="middle" x="2835" y="-74.5" font-family="Helvetica,sans-Serif" font-size="10.00">_object.h</text>
</a>
</g>
</g>
<!-- Node5&#45;&gt;Node19 -->
<g id="edge19" class="edge">
<title>Node5&#45;&gt;Node19</title>
<path fill="none" stroke="midnightblue" d="M2303.62,-144.59C2403.75,-138.09 2600.49,-123.23 2766,-98 2770.48,-97.32 2775.1,-96.53 2779.74,-95.68"/>
<polygon fill="midnightblue" stroke="midnightblue" points="2303.12,-141.12 2293.36,-145.25 2303.56,-148.1 2303.12,-141.12"/>
</g>
<!-- Node20 -->
<g id="node20" class="node">
<title>Node20</title>
<g id="a_node20"><a xlink:href="d__kankyo_8cpp.html" target="_top" xlink:title=" ">
<polygon fill="white" stroke="black" points="2706,-6 2706,-25 2840,-25 2840,-6 2706,-6"/>
<text text-anchor="middle" x="2773" y="-13" font-family="Helvetica,sans-Serif" font-size="10.00">src/d/kankyo/d_kankyo.cpp</text>
</a>
</g>
</g>
<!-- Node5&#45;&gt;Node20 -->
<g id="edge46" class="edge">
<title>Node5&#45;&gt;Node20</title>
<path fill="none" stroke="midnightblue" d="M2303.38,-149.42C2421.39,-149.86 2664.03,-144.83 2732,-98 2757.43,-80.48 2767.91,-42.36 2771.46,-25.19"/>
<polygon fill="midnightblue" stroke="midnightblue" points="2303.07,-145.92 2293.05,-149.36 2303.03,-152.92 2303.07,-145.92"/>
</g>
<!-- Node5&#45;&gt;Node21 -->
<g id="edge48" class="edge">
<title>Node5&#45;&gt;Node21</title>
<path fill="none" stroke="midnightblue" d="M2303.26,-148.56C2453.71,-147.92 2820.72,-141.78 2935,-98 2956,-89.95 2954.55,-76.35 2975,-67 2993.19,-58.68 3109.89,-37.09 3177.58,-25.01"/>
<polygon fill="midnightblue" stroke="midnightblue" points="2303.23,-145.06 2293.24,-148.59 2303.25,-152.06 2303.23,-145.06"/>
</g>
<!-- Node5&#45;&gt;Node22 -->
<g id="edge51" class="edge">
<title>Node5&#45;&gt;Node22</title>
<path fill="none" stroke="midnightblue" d="M2303.11,-147.99C2447.6,-146.13 2790.8,-137.55 2899,-98 2921.13,-89.91 2921.28,-78.22 2942,-67 2969.54,-52.09 3002.44,-39.42 3028.38,-30.5"/>
<polygon fill="midnightblue" stroke="midnightblue" points="2303.01,-144.49 2293.06,-148.11 2303.1,-151.49 2303.01,-144.49"/>
</g>
<!-- Node5&#45;&gt;Node23 -->
<g id="edge52" class="edge">
<title>Node5&#45;&gt;Node23</title>
<path fill="none" stroke="midnightblue" d="M2303.12,-148.66C2597.27,-149.1 3790.23,-147.8 3851,-98 3870.78,-81.79 3872.34,-49.35 3871.39,-30.65"/>
<polygon fill="midnightblue" stroke="midnightblue" points="2303.05,-145.16 2293.04,-148.64 2303.03,-152.16 2303.05,-145.16"/>
</g>
<!-- Node25 -->
<g id="node25" class="node">
<title>Node25</title>
<g id="a_node25"><a xlink:href="d__s__play_8h.html" target="_top" xlink:title=" ">
<polygon fill="white" stroke="black" points="2473.5,-73 2473.5,-92 2586.5,-92 2586.5,-73 2473.5,-73"/>
<text text-anchor="middle" x="2530" y="-80" font-family="Helvetica,sans-Serif" font-size="10.00">include/d/s/d_s_play.h</text>
</a>
</g>
</g>
<!-- Node5&#45;&gt;Node25 -->
<g id="edge27" class="edge">
<title>Node5&#45;&gt;Node25</title>
<path fill="none" stroke="midnightblue" d="M2303.06,-134.02C2361,-121.12 2443.8,-102.69 2491.71,-92.02"/>
<polygon fill="midnightblue" stroke="midnightblue" points="2302.27,-130.61 2293.27,-136.2 2303.79,-137.44 2302.27,-130.61"/>
</g>
<!-- Node26 -->
<g id="node26" class="node">
<title>Node26</title>
<g id="a_node26"><a xlink:href="c__dylink_8cpp.html" target="_top" xlink:title=" ">
<polygon fill="white" stroke="black" points="2984.5,-73 2984.5,-92 3079.5,-92 3079.5,-73 2984.5,-73"/>
<text text-anchor="middle" x="3032" y="-80" font-family="Helvetica,sans-Serif" font-size="10.00">src/c/c_dylink.cpp</text>
</a>
</g>
</g>
<!-- Node5&#45;&gt;Node26 -->
<g id="edge30" class="edge">
<title>Node5&#45;&gt;Node26</title>
<path fill="none" stroke="midnightblue" d="M2303.5,-147.51C2432.01,-144.78 2725.93,-134.72 2970,-98 2979.84,-96.52 2990.42,-94.29 3000.01,-92.02"/>
<polygon fill="midnightblue" stroke="midnightblue" points="2303.35,-144.01 2293.43,-147.71 2303.5,-151.01 2303.35,-144.01"/>
</g>
<!-- Node5&#45;&gt;Node27 -->
<g id="edge31" class="edge">
<title>Node5&#45;&gt;Node27</title>
<path fill="none" stroke="midnightblue" d="M2172.67,-148.18C1896.2,-146.57 821.2,-137.84 485,-98 473.7,-96.66 461.5,-94.38 450.55,-92.02"/>
<polygon fill="midnightblue" stroke="midnightblue" points="2172.92,-151.68 2182.94,-148.24 2172.96,-144.68 2172.92,-151.68"/>
</g>
<!-- Node28 -->
<g id="node28" class="node">
<title>Node28</title>
<g id="a_node28"><a xlink:href="d__a__player_8cpp.html" target="_top" xlink:title=" ">
<polygon fill="white" stroke="black" points="3098,-73 3098,-92 3212,-92 3212,-73 3098,-73"/>
<text text-anchor="middle" x="3155" y="-80" font-family="Helvetica,sans-Serif" font-size="10.00">src/d/a/d_a_player.cpp</text>
</a>
</g>
</g>
<!-- Node5&#45;&gt;Node28 -->
<g id="edge32" class="edge">
<title>Node5&#45;&gt;Node28</title>
<path fill="none" stroke="midnightblue" d="M2303.58,-148.03C2446.67,-146.26 2797.41,-137.84 3088,-98 3098.61,-96.55 3110.04,-94.32 3120.41,-92.05"/>
<polygon fill="midnightblue" stroke="midnightblue" points="2303.19,-144.54 2293.23,-148.15 2303.27,-151.53 2303.19,-144.54"/>
</g>
<!-- Node29 -->
<g id="node29" class="node">
<title>Node29</title>
<g id="a_node29"><a xlink:href="d__bg__s_8cpp.html" target="_top" xlink:title=" ">
<polygon fill="white" stroke="black" points="3230,-73 3230,-92 3334,-92 3334,-73 3230,-73"/>
<text text-anchor="middle" x="3282" y="-80" font-family="Helvetica,sans-Serif" font-size="10.00">src/d/bg/d_bg_s.cpp</text>
</a>
</g>
</g>
<!-- Node5&#45;&gt;Node29 -->
<g id="edge33" class="edge">
<title>Node5&#45;&gt;Node29</title>
<path fill="none" stroke="midnightblue" d="M2303.27,-149.23C2461.54,-150.13 2877.96,-147.17 3221,-98 3230.81,-96.59 3241.35,-94.36 3250.86,-92.05"/>
<polygon fill="midnightblue" stroke="midnightblue" points="2303.25,-145.73 2293.23,-149.17 2303.2,-152.73 2303.25,-145.73"/>
</g>
<!-- Node30 -->
<g id="node30" class="node">
<title>Node30</title>
<g id="a_node30"><a xlink:href="d__bg__s__movebg__actor_8cpp.html" target="_top" xlink:title=" ">
<polygon fill="white" stroke="black" points="3352,-67.5 3352,-97.5 3478,-97.5 3478,-67.5 3352,-67.5"/>
<text text-anchor="start" x="3360" y="-85.5" font-family="Helvetica,sans-Serif" font-size="10.00">src/d/bg/d_bg_s_movebg</text>
<text text-anchor="middle" x="3415" y="-74.5" font-family="Helvetica,sans-Serif" font-size="10.00">_actor.cpp</text>
</a>
</g>
</g>
<!-- Node5&#45;&gt;Node30 -->
<g id="edge34" class="edge">
<title>Node5&#45;&gt;Node30</title>
<path fill="none" stroke="midnightblue" d="M2303.26,-148.99C2474.49,-149.53 2950.5,-146.2 3343,-98 3345.91,-97.64 3348.88,-97.23 3351.87,-96.78"/>
<polygon fill="midnightblue" stroke="midnightblue" points="2303.16,-145.49 2293.15,-148.95 2303.14,-152.49 2303.16,-145.49"/>
</g>
<!-- Node31 -->
<g id="node31" class="node">
<title>Node31</title>
<g id="a_node31"><a xlink:href="d__bg__w_8cpp.html" target="_top" xlink:title=" ">
<polygon fill="white" stroke="black" points="3496.5,-73 3496.5,-92 3603.5,-92 3603.5,-73 3496.5,-73"/>
<text text-anchor="middle" x="3550" y="-80" font-family="Helvetica,sans-Serif" font-size="10.00">src/d/bg/d_bg_w.cpp</text>
</a>
</g>
</g>
<!-- Node5&#45;&gt;Node31 -->
<g id="edge35" class="edge">
<title>Node5&#45;&gt;Node31</title>
<path fill="none" stroke="midnightblue" d="M2303.48,-147.46C2526.41,-143.66 3254.89,-129.13 3487,-98 3497.23,-96.63 3508.25,-94.37 3518.16,-92.04"/>
<polygon fill="midnightblue" stroke="midnightblue" points="2303.19,-143.96 2293.25,-147.63 2303.31,-150.96 2303.19,-143.96"/>
</g>
<!-- Node32 -->
<g id="node32" class="node">
<title>Node32</title>
<g id="a_node32"><a xlink:href="d__cc__s_8cpp.html" target="_top" xlink:title=" ">
<polygon fill="white" stroke="black" points="3622,-73 3622,-92 3726,-92 3726,-73 3622,-73"/>
<text text-anchor="middle" x="3674" y="-80" font-family="Helvetica,sans-Serif" font-size="10.00">src/d/cc/d_cc_s.cpp</text>
</a>
</g>
</g>
<!-- Node5&#45;&gt;Node32 -->
<g id="edge36" class="edge">
<title>Node5&#45;&gt;Node32</title>
<path fill="none" stroke="midnightblue" d="M2303.56,-147.77C2540.85,-144.86 3354.4,-132.53 3612,-98 3622.08,-96.65 3632.92,-94.4 3642.68,-92.06"/>
<polygon fill="midnightblue" stroke="midnightblue" points="2303.32,-144.27 2293.37,-147.89 2303.41,-151.27 2303.32,-144.27"/>
</g>
<!-- Node33 -->
<g id="node33" class="node">
<title>Node33</title>
<g id="a_node33"><a xlink:href="d__eye__hl_8cpp.html" target="_top" xlink:title=" ">
<polygon fill="white" stroke="black" points="3744,-73 3744,-92 3842,-92 3842,-73 3744,-73"/>
<text text-anchor="middle" x="3793" y="-80" font-family="Helvetica,sans-Serif" font-size="10.00">src/d/d_eye_hl.cpp</text>
</a>
</g>
</g>
<!-- Node5&#45;&gt;Node33 -->
<g id="edge38" class="edge">
<title>Node5&#45;&gt;Node33</title>
<path fill="none" stroke="midnightblue" d="M2303.1,-148.13C2553.19,-146.44 3452.26,-137.66 3735,-98 3744.56,-96.66 3754.83,-94.38 3764.03,-92.02"/>
<polygon fill="midnightblue" stroke="midnightblue" points="2303.06,-144.63 2293.08,-148.2 2303.1,-151.63 2303.06,-144.63"/>
</g>
<!-- Node34 -->
<g id="node34" class="node">
<title>Node34</title>
<g id="a_node34"><a xlink:href="d__kyeff_8cpp.html" target="_top" xlink:title=" ">
<polygon fill="white" stroke="black" points="760,-73 760,-92 850,-92 850,-73 760,-73"/>
<text text-anchor="middle" x="805" y="-80" font-family="Helvetica,sans-Serif" font-size="10.00">src/d/d_kyeff.cpp</text>
</a>
</g>
</g>
<!-- Node5&#45;&gt;Node34 -->
<g id="edge39" class="edge">
<title>Node5&#45;&gt;Node34</title>
<path fill="none" stroke="midnightblue" d="M2172.56,-148.06C1934.8,-146.15 1117.08,-136.87 859,-98 850.07,-96.66 840.51,-94.37 831.94,-92.01"/>
<polygon fill="midnightblue" stroke="midnightblue" points="2172.75,-151.56 2182.78,-148.14 2172.81,-144.56 2172.75,-151.56"/>
</g>
<!-- Node35 -->
<g id="node35" class="node">
<title>Node35</title>
<g id="a_node35"><a xlink:href="d__resorce_8cpp.html" target="_top" xlink:title=" ">
<polygon fill="white" stroke="black" points="868,-73 868,-92 970,-92 970,-73 868,-73"/>
<text text-anchor="middle" x="919" y="-80" font-family="Helvetica,sans-Serif" font-size="10.00">src/d/d_resorce.cpp</text>
</a>
</g>
</g>
<!-- Node5&#45;&gt;Node35 -->
<g id="edge40" class="edge">
<title>Node5&#45;&gt;Node35</title>
<path fill="none" stroke="midnightblue" d="M2172.37,-147.57C1948.06,-144.15 1212.93,-130.63 979,-98 969.24,-96.64 958.74,-94.38 949.3,-92.05"/>
<polygon fill="midnightblue" stroke="midnightblue" points="2172.61,-151.08 2182.66,-147.73 2172.71,-144.08 2172.61,-151.08"/>
</g>
<!-- Node36 -->
<g id="node36" class="node">
<title>Node36</title>
<g id="a_node36"><a xlink:href="d__stage_8cpp.html" target="_top" xlink:title=" ">
<polygon fill="white" stroke="black" points="988,-73 988,-92 1082,-92 1082,-73 988,-73"/>
<text text-anchor="middle" x="1035" y="-80" font-family="Helvetica,sans-Serif" font-size="10.00">src/d/d_stage.cpp</text>
</a>
</g>
</g>
<!-- Node5&#45;&gt;Node36 -->
<g id="edge41" class="edge">
<title>Node5&#45;&gt;Node36</title>
<path fill="none" stroke="midnightblue" d="M2172.58,-147.42C1961.8,-143.66 1301.94,-129.6 1091,-98 1081.86,-96.63 1072.06,-94.37 1063.25,-92.04"/>
<polygon fill="midnightblue" stroke="midnightblue" points="2172.8,-150.92 2182.87,-147.6 2172.93,-143.93 2172.8,-150.92"/>
</g>
<!-- Node37 -->
<g id="node37" class="node">
<title>Node37</title>
<g id="a_node37"><a xlink:href="d__tresure_8cpp.html" target="_top" xlink:title=" ">
<polygon fill="white" stroke="black" points="1100,-73 1100,-92 1200,-92 1200,-73 1100,-73"/>
<text text-anchor="middle" x="1150" y="-80" font-family="Helvetica,sans-Serif" font-size="10.00">src/d/d_tresure.cpp</text>
</a>
</g>
</g>
<!-- Node5&#45;&gt;Node37 -->
<g id="edge42" class="edge">
<title>Node5&#45;&gt;Node37</title>
<path fill="none" stroke="midnightblue" d="M2172.75,-146.94C1976.91,-141.99 1396.24,-125.34 1209,-98 1199.4,-96.6 1189.08,-94.33 1179.79,-92"/>
<polygon fill="midnightblue" stroke="midnightblue" points="2172.8,-150.44 2182.88,-147.19 2172.97,-143.44 2172.8,-150.44"/>
</g>
<!-- Node38 -->
<g id="node38" class="node">
<title>Node38</title>
<g id="a_node38"><a xlink:href="d__event_8cpp.html" target="_top" xlink:title=" ">
<polygon fill="white" stroke="black" points="1218.5,-73 1218.5,-92 1339.5,-92 1339.5,-73 1218.5,-73"/>
<text text-anchor="middle" x="1279" y="-80" font-family="Helvetica,sans-Serif" font-size="10.00">src/d/event/d_event.cpp</text>
</a>
</g>
</g>
<!-- Node5&#45;&gt;Node38 -->
<g id="edge43" class="edge">
<title>Node5&#45;&gt;Node38</title>
<path fill="none" stroke="midnightblue" d="M2172.54,-148.15C2024.82,-146.62 1654.57,-138.68 1348,-98 1337.08,-96.55 1325.31,-94.33 1314.64,-92.06"/>
<polygon fill="midnightblue" stroke="midnightblue" points="2172.75,-151.65 2182.78,-148.25 2172.82,-144.65 2172.75,-151.65"/>
</g>
<!-- Node39 -->
<g id="node39" class="node">
<title>Node39</title>
<g id="a_node39"><a xlink:href="d__event__data_8cpp.html" target="_top" xlink:title=" ">
<polygon fill="white" stroke="black" points="1357.5,-67.5 1357.5,-97.5 1460.5,-97.5 1460.5,-67.5 1357.5,-67.5"/>
<text text-anchor="start" x="1365.5" y="-85.5" font-family="Helvetica,sans-Serif" font-size="10.00">src/d/event/d_event</text>
<text text-anchor="middle" x="1409" y="-74.5" font-family="Helvetica,sans-Serif" font-size="10.00">_data.cpp</text>
</a>
</g>
</g>
<!-- Node5&#45;&gt;Node39 -->
<g id="edge44" class="edge">
<title>Node5&#45;&gt;Node39</title>
<path fill="none" stroke="midnightblue" d="M2172.59,-147.98C2039.41,-146.08 1727.46,-137.42 1469,-98 1466.25,-97.58 1463.43,-97.1 1460.6,-96.56"/>
<polygon fill="midnightblue" stroke="midnightblue" points="2172.59,-151.48 2182.63,-148.11 2172.68,-144.48 2172.59,-151.48"/>
</g>
<!-- Node40 -->
<g id="node40" class="node">
<title>Node40</title>
<g id="a_node40"><a xlink:href="d__event__manager_8cpp.html" target="_top" xlink:title=" ">
<polygon fill="white" stroke="black" points="1478.5,-67.5 1478.5,-97.5 1581.5,-97.5 1581.5,-67.5 1478.5,-67.5"/>
<text text-anchor="start" x="1486.5" y="-85.5" font-family="Helvetica,sans-Serif" font-size="10.00">src/d/event/d_event</text>
<text text-anchor="middle" x="1530" y="-74.5" font-family="Helvetica,sans-Serif" font-size="10.00">_manager.cpp</text>
</a>
</g>
</g>
<!-- Node5&#45;&gt;Node40 -->
<g id="edge45" class="edge">
<title>Node5&#45;&gt;Node40</title>
<path fill="none" stroke="midnightblue" d="M2172.46,-146.75C2055.18,-142.87 1801.96,-131.1 1591,-98 1587.99,-97.53 1584.91,-96.98 1581.81,-96.39"/>
<polygon fill="midnightblue" stroke="midnightblue" points="2172.6,-150.25 2182.7,-147.08 2172.82,-143.26 2172.6,-150.25"/>
</g>
<!-- Node41 -->
<g id="node41" class="node">
<title>Node41</title>
<g id="a_node41"><a xlink:href="d__kankyo__wether_8cpp.html" target="_top" xlink:title=" ">
<polygon fill="white" stroke="black" points="1600,-67.5 1600,-97.5 1716,-97.5 1716,-67.5 1600,-67.5"/>
<text text-anchor="start" x="1608" y="-85.5" font-family="Helvetica,sans-Serif" font-size="10.00">src/d/kankyo/d_kankyo</text>
<text text-anchor="middle" x="1658" y="-74.5" font-family="Helvetica,sans-Serif" font-size="10.00">_wether.cpp</text>
</a>
</g>
</g>
<!-- Node5&#45;&gt;Node41 -->
<g id="edge47" class="edge">
<title>Node5&#45;&gt;Node41</title>
<path fill="none" stroke="midnightblue" d="M2172.67,-144.48C2074.89,-137.93 1884.89,-123.09 1725,-98 1722.06,-97.54 1719.06,-97.03 1716.03,-96.49"/>
<polygon fill="midnightblue" stroke="midnightblue" points="2172.49,-147.98 2182.7,-145.15 2172.95,-141 2172.49,-147.98"/>
</g>
<!-- Node42 -->
<g id="node42" class="node">
<title>Node42</title>
<g id="a_node42"><a xlink:href="d__menu__window__HIO_8cpp.html" target="_top" xlink:title=" ">
<polygon fill="white" stroke="black" points="1734.5,-67.5 1734.5,-97.5 1875.5,-97.5 1875.5,-67.5 1734.5,-67.5"/>
<text text-anchor="start" x="1742.5" y="-85.5" font-family="Helvetica,sans-Serif" font-size="10.00">src/d/menu/d_menu_window</text>
<text text-anchor="middle" x="1805" y="-74.5" font-family="Helvetica,sans-Serif" font-size="10.00">_HIO.cpp</text>
</a>
</g>
</g>
<!-- Node5&#45;&gt;Node42 -->
<g id="edge49" class="edge">
<title>Node5&#45;&gt;Node42</title>
<path fill="none" stroke="midnightblue" d="M2172.55,-139.96C2101.42,-130.49 1984.45,-114.38 1884,-98 1881.25,-97.55 1878.44,-97.08 1875.61,-96.6"/>
<polygon fill="midnightblue" stroke="midnightblue" points="2172.34,-143.46 2182.71,-141.31 2173.26,-136.52 2172.34,-143.46"/>
</g>
<!-- Node43 -->
<g id="node43" class="node">
<title>Node43</title>
<g id="a_node43"><a xlink:href="d__msg__flow_8cpp.html" target="_top" xlink:title=" ">
<polygon fill="white" stroke="black" points="1893.5,-73 1893.5,-92 2026.5,-92 2026.5,-73 1893.5,-73"/>
<text text-anchor="middle" x="1960" y="-80" font-family="Helvetica,sans-Serif" font-size="10.00">src/d/msg/d_msg_flow.cpp</text>
</a>
</g>
</g>
<!-- Node5&#45;&gt;Node43 -->
<g id="edge53" class="edge">
<title>Node5&#45;&gt;Node43</title>
<path fill="none" stroke="midnightblue" d="M2172.75,-133.24C2117.83,-120.4 2041.28,-102.5 1996.55,-92.05"/>
<polygon fill="midnightblue" stroke="midnightblue" points="2172.21,-136.71 2182.74,-135.58 2173.8,-129.9 2172.21,-136.71"/>
</g>
<!-- Node44 -->
<g id="node44" class="node">
<title>Node44</title>
<g id="a_node44"><a xlink:href="d__s__room_8cpp.html" target="_top" xlink:title=" ">
<polygon fill="white" stroke="black" points="2045,-73 2045,-92 2155,-92 2155,-73 2045,-73"/>
<text text-anchor="middle" x="2100" y="-80" font-family="Helvetica,sans-Serif" font-size="10.00">src/d/s/d_s_room.cpp</text>
</a>
</g>
</g>
<!-- Node5&#45;&gt;Node44 -->
<g id="edge54" class="edge">
<title>Node5&#45;&gt;Node44</title>
<path fill="none" stroke="midnightblue" d="M2199,-130.13C2172.44,-117.62 2138.51,-101.64 2118.06,-92.01"/>
<polygon fill="midnightblue" stroke="midnightblue" points="2197.52,-133.3 2208.06,-134.4 2200.5,-126.97 2197.52,-133.3"/>
</g>
<!-- Node5&#45;&gt;Node45 -->
<g id="edge55" class="edge">
<title>Node5&#45;&gt;Node45</title>
<path fill="none" stroke="midnightblue" d="M2172.53,-148.41C1882.95,-147.76 715.52,-142.39 352,-98 341.17,-96.68 329.5,-94.4 319.03,-92.04"/>
<polygon fill="midnightblue" stroke="midnightblue" points="2172.85,-151.91 2182.86,-148.43 2172.87,-144.91 2172.85,-151.91"/>
</g>
<!-- Node5&#45;&gt;Node46 -->
<g id="edge56" class="edge">
<title>Node5&#45;&gt;Node46</title>
<path fill="none" stroke="midnightblue" d="M2303.65,-147.7C2569.82,-144.27 3569.41,-129.51 3884,-98 3897.7,-96.63 3912.54,-94.37 3925.92,-92.04"/>
<polygon fill="midnightblue" stroke="midnightblue" points="2303.33,-144.2 2293.37,-147.83 2303.42,-151.2 2303.33,-144.2"/>
</g>
<!-- Node47 -->
<g id="node47" class="node">
<title>Node47</title>
<g id="a_node47"><a xlink:href="m__Do__machine__exception_8cpp.html" target="_top" xlink:title=" ">
<polygon fill="white" stroke="black" points="2173.5,-67.5 2173.5,-97.5 2302.5,-97.5 2302.5,-67.5 2173.5,-67.5"/>
<text text-anchor="start" x="2181.5" y="-85.5" font-family="Helvetica,sans-Serif" font-size="10.00">src/m_Do/m_Do_machine</text>
<text text-anchor="middle" x="2238" y="-74.5" font-family="Helvetica,sans-Serif" font-size="10.00">_exception.cpp</text>
</a>
</g>
</g>
<!-- Node5&#45;&gt;Node47 -->
<g id="edge57" class="edge">
<title>Node5&#45;&gt;Node47</title>
<path fill="none" stroke="midnightblue" d="M2238,-124.11C2238,-115.15 2238,-105.32 2238,-97.58"/>
<polygon fill="midnightblue" stroke="midnightblue" points="2234.5,-124.4 2238,-134.4 2241.5,-124.4 2234.5,-124.4"/>
</g>
<!-- Node5&#45;&gt;Node48 -->
<g id="edge58" class="edge">
<title>Node5&#45;&gt;Node48</title>
<path fill="none" stroke="midnightblue" d="M2303.43,-149.03C2539.31,-150.44 3368.07,-151.05 4049,-98 4067.04,-96.59 4086.62,-94.34 4104.34,-92.03"/>
<polygon fill="midnightblue" stroke="midnightblue" points="2303.33,-145.53 2293.3,-148.97 2303.28,-152.53 2303.33,-145.53"/>
</g>
<!-- Node7 -->
<g id="node7" class="node">
<title>Node7</title>
<g id="a_node7"><a xlink:href="d__cc__uty_8cpp.html" target="_top" xlink:title=" ">
<polygon fill="white" stroke="black" points="2576,-6 2576,-25 2688,-25 2688,-6 2576,-6"/>
<text text-anchor="middle" x="2632" y="-13" font-family="Helvetica,sans-Serif" font-size="10.00">src/d/cc/d_cc_uty.cpp</text>
</a>
</g>
</g>
<!-- Node6&#45;&gt;Node7 -->
<g id="edge6" class="edge">
<title>Node6&#45;&gt;Node7</title>
<path fill="none" stroke="midnightblue" d="M2655.22,-63.66C2649.05,-51.13 2641.06,-34.91 2636.25,-25.13"/>
<polygon fill="midnightblue" stroke="midnightblue" points="2652.13,-65.31 2659.68,-72.73 2658.41,-62.22 2652.13,-65.31"/>
</g>
<!-- Node8&#45;&gt;Node9 -->
<g id="edge8" class="edge">
<title>Node8&#45;&gt;Node9</title>
<path fill="none" stroke="midnightblue" d="M556.79,-65.93C544.22,-55.18 527.65,-41 515.47,-30.59"/>
<polygon fill="midnightblue" stroke="midnightblue" points="554.88,-68.89 564.75,-72.73 559.43,-63.57 554.88,-68.89"/>
</g>
<!-- Node8&#45;&gt;Node10 -->
<g id="edge9" class="edge">
<title>Node8&#45;&gt;Node10</title>
<path fill="none" stroke="midnightblue" d="M527.42,-70.72C470.9,-57.92 377.78,-36.83 325.9,-25.08"/>
<polygon fill="midnightblue" stroke="midnightblue" points="526.66,-74.14 537.18,-72.94 528.2,-67.31 526.66,-74.14"/>
</g>
<!-- Node11 -->
<g id="node11" class="node">
<title>Node11</title>
<g id="a_node11"><a xlink:href="d__s__play_8cpp.html" target="_top" xlink:title=" ">
<polygon fill="white" stroke="black" points="2452,-6 2452,-25 2558,-25 2558,-6 2452,-6"/>
<text text-anchor="middle" x="2505" y="-13" font-family="Helvetica,sans-Serif" font-size="10.00">src/d/s/d_s_play.cpp</text>
</a>
</g>
</g>
<!-- Node8&#45;&gt;Node11 -->
<g id="edge10" class="edge">
<title>Node8&#45;&gt;Node11</title>
<path fill="none" stroke="midnightblue" d="M612.65,-70.47C618.74,-69.06 625.01,-67.82 631,-67 1029.99,-12.15 2043.39,-81.13 2443,-31 2453.31,-29.71 2464.41,-27.41 2474.33,-25.02"/>
<polygon fill="midnightblue" stroke="midnightblue" points="611.51,-67.15 602.66,-72.97 613.21,-73.94 611.51,-67.15"/>
</g>
<!-- Node13 -->
<g id="node13" class="node">
<title>Node13</title>
<g id="a_node13"><a xlink:href="d__kantera__icon__meter_8cpp.html" target="_top" xlink:title=" ">
<polygon fill="white" stroke="black" points="637.5,-0.5 637.5,-30.5 744.5,-30.5 744.5,-0.5 637.5,-0.5"/>
<text text-anchor="start" x="645.5" y="-18.5" font-family="Helvetica,sans-Serif" font-size="10.00">src/d/d_kantera_icon</text>
<text text-anchor="middle" x="691" y="-7.5" font-family="Helvetica,sans-Serif" font-size="10.00">_meter.cpp</text>
</a>
</g>
</g>
<!-- Node12&#45;&gt;Node13 -->
<g id="edge12" class="edge">
<title>Node12&#45;&gt;Node13</title>
<path fill="none" stroke="midnightblue" d="M691,-57.11C691,-48.15 691,-38.32 691,-30.58"/>
<polygon fill="midnightblue" stroke="midnightblue" points="687.5,-57.4 691,-67.4 694.5,-57.4 687.5,-57.4"/>
</g>
<!-- Node12&#45;&gt;Node14 -->
<g id="edge13" class="edge">
<title>Node12&#45;&gt;Node14</title>
<path fill="none" stroke="midnightblue" d="M751.93,-67.14C1061.86,-27.33 1974.5,-18.5 2208.74,-16.84"/>
<polygon fill="midnightblue" stroke="midnightblue" points="751.05,-63.72 741.6,-68.5 751.97,-70.66 751.05,-63.72"/>
</g>
<!-- Node16 -->
<g id="node16" class="node">
<title>Node16</title>
<g id="a_node16"><a xlink:href="d__file__sel__info_8cpp.html" target="_top" xlink:title=" ">
<polygon fill="white" stroke="black" points="2337.5,-0.5 2337.5,-30.5 2434.5,-30.5 2434.5,-0.5 2337.5,-0.5"/>
<text text-anchor="start" x="2345.5" y="-18.5" font-family="Helvetica,sans-Serif" font-size="10.00">src/d/file/d_file_sel</text>
<text text-anchor="middle" x="2386" y="-7.5" font-family="Helvetica,sans-Serif" font-size="10.00">_info.cpp</text>
</a>
</g>
</g>
<!-- Node15&#45;&gt;Node16 -->
<g id="edge15" class="edge">
<title>Node15&#45;&gt;Node16</title>
<path fill="none" stroke="midnightblue" d="M2399.31,-57.7C2396.37,-48.59 2393.11,-38.49 2390.55,-30.58"/>
<polygon fill="midnightblue" stroke="midnightblue" points="2396.04,-58.96 2402.44,-67.4 2402.7,-56.8 2396.04,-58.96"/>
</g>
<!-- Node17&#45;&gt;Node3 -->
<g id="edge17" class="edge">
<title>Node17&#45;&gt;Node3</title>
<path fill="none" stroke="midnightblue" d="M72.49,-101.85C82.43,-131.73 106.32,-190.63 148,-221 194.92,-255.18 260.87,-266.84 309.24,-270.53"/>
<polygon fill="midnightblue" stroke="midnightblue" points="75.81,-100.73 69.46,-92.25 69.14,-102.84 75.81,-100.73"/>
</g>
<!-- Node18 -->
<g id="node18" class="node">
<title>Node18</title>
<g id="a_node18"><a xlink:href="d__meter2_8cpp.html" target="_top" xlink:title=" ">
<polygon fill="white" stroke="black" points="3,-6 3,-25 131,-25 131,-6 3,-6"/>
<text text-anchor="middle" x="67" y="-13" font-family="Helvetica,sans-Serif" font-size="10.00">src/d/meter/d_meter2.cpp</text>
</a>
</g>
</g>
<!-- Node17&#45;&gt;Node18 -->
<g id="edge18" class="edge">
<title>Node17&#45;&gt;Node18</title>
<path fill="none" stroke="midnightblue" d="M67,-62.54C67,-50.17 67,-34.62 67,-25.13"/>
<polygon fill="midnightblue" stroke="midnightblue" points="63.5,-62.73 67,-72.73 70.5,-62.73 63.5,-62.73"/>
</g>
<!-- Node19&#45;&gt;Node11 -->
<g id="edge26" class="edge">
<title>Node19&#45;&gt;Node11</title>
<path fill="none" stroke="midnightblue" d="M2770.09,-70.08C2715.72,-60.33 2636.12,-45.59 2567,-31 2558.35,-29.17 2549.05,-27.07 2540.35,-25.05"/>
<polygon fill="midnightblue" stroke="midnightblue" points="2769.48,-73.53 2779.94,-71.85 2770.71,-66.64 2769.48,-73.53"/>
</g>
<!-- Node19&#45;&gt;Node14 -->
<g id="edge22" class="edge">
<title>Node19&#45;&gt;Node14</title>
<path fill="none" stroke="midnightblue" d="M2769.82,-71.81C2757.28,-70.09 2744.24,-68.41 2732,-67 2552.91,-46.43 2506.08,-58.98 2328,-31 2325.07,-30.54 2322.08,-30.02 2319.07,-29.47"/>
<polygon fill="midnightblue" stroke="midnightblue" points="2769.35,-75.28 2779.74,-73.19 2770.32,-68.35 2769.35,-75.28"/>
</g>
<!-- Node19&#45;&gt;Node20 -->
<g id="edge20" class="edge">
<title>Node19&#45;&gt;Node20</title>
<path fill="none" stroke="midnightblue" d="M2814.49,-60C2803.17,-48.13 2789.74,-34.05 2781.29,-25.19"/>
<polygon fill="midnightblue" stroke="midnightblue" points="2812.11,-62.58 2821.55,-67.4 2817.18,-57.74 2812.11,-62.58"/>
</g>
<!-- Node19&#45;&gt;Node21 -->
<g id="edge21" class="edge">
<title>Node19&#45;&gt;Node21</title>
<path fill="none" stroke="midnightblue" d="M2900.28,-70.65C2977.48,-57.81 3104.37,-36.72 3174.82,-25.01"/>
<polygon fill="midnightblue" stroke="midnightblue" points="2899.48,-67.23 2890.19,-72.32 2900.63,-74.14 2899.48,-67.23"/>
</g>
<!-- Node19&#45;&gt;Node22 -->
<g id="edge23" class="edge">
<title>Node19&#45;&gt;Node22</title>
<path fill="none" stroke="midnightblue" d="M2896.46,-64.71C2935.19,-54.14 2984.63,-40.63 3021.33,-30.61"/>
<polygon fill="midnightblue" stroke="midnightblue" points="2895.07,-61.46 2886.35,-67.48 2896.92,-68.22 2895.07,-61.46"/>
</g>
<!-- Node19&#45;&gt;Node23 -->
<g id="edge24" class="edge">
<title>Node19&#45;&gt;Node23</title>
<path fill="none" stroke="midnightblue" d="M2900.34,-74.09C2923.86,-71.6 2950.6,-68.95 2975,-67 3294.96,-41.42 3680.3,-24.28 3817.99,-18.58"/>
<polygon fill="midnightblue" stroke="midnightblue" points="2899.7,-70.64 2890.13,-75.19 2900.45,-77.6 2899.7,-70.64"/>
</g>
<!-- Node24 -->
<g id="node24" class="node">
<title>Node24</title>
<g id="a_node24"><a xlink:href="d__msg__object_8cpp.html" target="_top" xlink:title=" ">
<polygon fill="white" stroke="black" points="2858,-6 2858,-25 3000,-25 3000,-6 2858,-6"/>
<text text-anchor="middle" x="2929" y="-13" font-family="Helvetica,sans-Serif" font-size="10.00">src/d/msg/d_msg_object.cpp</text>
</a>
</g>
</g>
<!-- Node19&#45;&gt;Node24 -->
<g id="edge25" class="edge">
<title>Node19&#45;&gt;Node24</title>
<path fill="none" stroke="midnightblue" d="M2863.72,-61.64C2881.46,-49.37 2903.31,-34.26 2916.7,-25.01"/>
<polygon fill="midnightblue" stroke="midnightblue" points="2861.63,-58.83 2855.4,-67.4 2865.61,-64.59 2861.63,-58.83"/>
</g>
<!-- Node25&#45;&gt;Node7 -->
<g id="edge28" class="edge">
<title>Node25&#45;&gt;Node7</title>
<path fill="none" stroke="midnightblue" d="M2552.33,-67.27C2572.52,-54.4 2601.59,-35.88 2618.46,-25.13"/>
<polygon fill="midnightblue" stroke="midnightblue" points="2550.31,-64.41 2543.76,-72.73 2554.07,-70.31 2550.31,-64.41"/>
</g>
<!-- Node25&#45;&gt;Node11 -->
<g id="edge29" class="edge">
<title>Node25&#45;&gt;Node11</title>
<path fill="none" stroke="midnightblue" d="M2523,-63.29C2518.2,-50.81 2512.04,-34.81 2508.32,-25.13"/>
<polygon fill="midnightblue" stroke="midnightblue" points="2519.77,-64.66 2526.63,-72.73 2526.31,-62.14 2519.77,-64.66"/>
</g>
</g>
</svg>
