<?xml version="1.0" encoding="UTF-8" standalone="no"?>
<!DOCTYPE svg PUBLIC "-//W3C//DTD SVG 1.1//EN"
 "http://www.w3.org/Graphics/SVG/1.1/DTD/svg11.dtd">
<!-- Generated by graphviz version 3.0.0 (20221109.1736)
 -->
<!-- Title: include/m_Do/m_Do_mtx.h Pages: 1 -->
<!--zoomable 341 -->
<svg id="main" version="1.1" xmlns="http://www.w3.org/2000/svg" xmlns:xlink="http://www.w3.org/1999/xlink" xml:space="preserve" onload="init(evt)">
<style type="text/css"><![CDATA[
.edge:hover path { stroke: red; }
.edge:hover polygon { stroke: red; fill: red; }
]]></style>
<script type="text/javascript"><![CDATA[
var edges = document.getElementsByTagName('g');
if (edges && edges.length) {
  for (var i=0;i<edges.length;i++) {
    if (edges[i].id.substr(0,4)=='edge') {
      edges[i].setAttribute('class','edge');
    }
  }
}
]]></script>
        <defs>
                <circle id="rim" cx="0" cy="0" r="7"/>
                <circle id="rim2" cx="0" cy="0" r="3.5"/>
                <g id="zoomPlus">
                        <use xlink:href="#rim" fill="#404040">
                                <set attributeName="fill" to="#808080" begin="zoomplus.mouseover" end="zoomplus.mouseout"/>
                        </use>
                        <path d="M-4,0h8M0,-4v8" fill="none" stroke="white" stroke-width="1.5" pointer-events="none"/>
                </g>
                <g id="zoomMin">
                        <use xlink:href="#rim" fill="#404040">
                                <set attributeName="fill" to="#808080" begin="zoomminus.mouseover" end="zoomminus.mouseout"/>
                        </use>
                        <path d="M-4,0h8" fill="none" stroke="white" stroke-width="1.5" pointer-events="none"/>
                </g>
                <g id="dirArrow">
                        <path fill="none" stroke="white" stroke-width="1.5" d="M0,-3.0v7 M-2.5,-0.5L0,-3.0L2.5,-0.5"/>
                </g>
               <g id="resetDef">
                       <use xlink:href="#rim2" fill="#404040">
                               <set attributeName="fill" to="#808080" begin="reset.mouseover" end="reset.mouseout"/>
                       </use>
               </g>
        </defs>

<script type="text/javascript">
var viewWidth = 651;
var viewHeight = 341;
var sectionId = 'dynsection-0';
</script>
<script xlink:href="svgpan.js"/>
<svg id="graph" class="graph">
<g id="viewport">
<title>include/m_Do/m_Do_mtx.h</title>
<polygon fill="white" stroke="transparent" points="-4,4 -4,-337 647,-337 647,4 -4,4"/>
<!-- Node1 -->
<g id="node1" class="node">
<title>Node1</title>
<g id="a_node1"><a xlink:title=" ">
<polygon fill="#bfbfbf" stroke="black" points="353.5,-313.5 353.5,-332.5 486.5,-332.5 486.5,-313.5 353.5,-313.5"/>
<text text-anchor="middle" x="420" y="-320.5" font-family="Helvetica,sans-Serif" font-size="10.00">include/m_Do/m_Do_mtx.h</text>
</a>
</g>
</g>
<!-- Node2 -->
<g id="node2" class="node">
<title>Node2</title>
<g id="a_node2"><a xlink:href="c__sxyz_8h.html" target="_top" xlink:title=" ">
<polygon fill="white" stroke="black" points="499,-123.5 499,-153.5 615,-153.5 615,-123.5 499,-123.5"/>
<text text-anchor="start" x="507" y="-141.5" font-family="Helvetica,sans-Serif" font-size="10.00">SSystem/SComponent</text>
<text text-anchor="middle" x="557" y="-130.5" font-family="Helvetica,sans-Serif" font-size="10.00">/c_sxyz.h</text>
</a>
</g>
</g>
<!-- Node1&#45;&gt;Node2 -->
<g id="edge1" class="edge">
<title>Node1&#45;&gt;Node2</title>
<path fill="none" stroke="midnightblue" d="M461.4,-313.5C483.01,-306.99 508.18,-295.82 524,-277 551.15,-244.7 556.72,-193.78 557.45,-163.81"/>
<polygon fill="midnightblue" stroke="midnightblue" points="560.95,-163.82 557.53,-153.79 553.95,-163.77 560.95,-163.82"/>
</g>
<!-- Node4 -->
<g id="node4" class="node">
<title>Node4</title>
<g id="a_node4"><a xlink:href="types_8h.html" target="_top" xlink:title=" ">
<polygon fill="white" stroke="black" points="323.5,-0.5 323.5,-19.5 404.5,-19.5 404.5,-0.5 323.5,-0.5"/>
<text text-anchor="middle" x="364" y="-7.5" font-family="Helvetica,sans-Serif" font-size="10.00">dolphin/types.h</text>
</a>
</g>
</g>
<!-- Node1&#45;&gt;Node4 -->
<g id="edge24" class="edge">
<title>Node1&#45;&gt;Node4</title>
<path fill="none" stroke="midnightblue" d="M486.61,-315.53C552.32,-305.04 643,-277.68 643,-206.5 643,-206.5 643,-206.5 643,-137.5 643,-38.5 495.49,-16.59 414.99,-12"/>
<polygon fill="midnightblue" stroke="midnightblue" points="414.73,-8.49 404.57,-11.48 414.38,-15.48 414.73,-8.49"/>
</g>
<!-- Node5 -->
<g id="node5" class="node">
<title>Node5</title>
<g id="a_node5"><a xlink:href="c__xyz_8h.html" target="_top" xlink:title=" ">
<polygon fill="white" stroke="black" points="165,-190.5 165,-220.5 281,-220.5 281,-190.5 165,-190.5"/>
<text text-anchor="start" x="173" y="-208.5" font-family="Helvetica,sans-Serif" font-size="10.00">SSystem/SComponent</text>
<text text-anchor="middle" x="223" y="-197.5" font-family="Helvetica,sans-Serif" font-size="10.00">/c_xyz.h</text>
</a>
</g>
</g>
<!-- Node1&#45;&gt;Node5 -->
<g id="edge5" class="edge">
<title>Node1&#45;&gt;Node5</title>
<path fill="none" stroke="midnightblue" d="M392.46,-313.44C369.32,-305.64 335.82,-292.93 309,-277 285.46,-263.02 261.61,-242.9 245.02,-227.73"/>
<polygon fill="midnightblue" stroke="midnightblue" points="247.2,-224.97 237.49,-220.73 242.43,-230.1 247.2,-224.97"/>
</g>
<!-- Node10 -->
<g id="node10" class="node">
<title>Node10</title>
<g id="a_node10"><a xlink:href="mtx_8h.html" target="_top" xlink:title=" ">
<polygon fill="white" stroke="black" points="368,-196 368,-215 460,-215 460,-196 368,-196"/>
<text text-anchor="middle" x="414" y="-203" font-family="Helvetica,sans-Serif" font-size="10.00">dolphin/mtx/mtx.h</text>
</a>
</g>
</g>
<!-- Node1&#45;&gt;Node10 -->
<g id="edge14" class="edge">
<title>Node1&#45;&gt;Node10</title>
<path fill="none" stroke="midnightblue" d="M414.36,-313.48C408.95,-304.74 401.14,-290.56 398,-277 393.86,-259.09 399.69,-238.6 405.44,-224.34"/>
<polygon fill="midnightblue" stroke="midnightblue" points="408.65,-225.75 409.47,-215.19 402.24,-222.93 408.65,-225.75"/>
</g>
<!-- Node12 -->
<g id="node12" class="node">
<title>Node12</title>
<g id="a_node12"><a xlink:href="quat_8h.html" target="_top" xlink:title=" ">
<polygon fill="white" stroke="black" points="271.5,-129 271.5,-148 366.5,-148 366.5,-129 271.5,-129"/>
<text text-anchor="middle" x="319" y="-136" font-family="Helvetica,sans-Serif" font-size="10.00">dolphin/mtx/quat.h</text>
</a>
</g>
</g>
<!-- Node1&#45;&gt;Node12 -->
<g id="edge23" class="edge">
<title>Node1&#45;&gt;Node12</title>
<path fill="none" stroke="midnightblue" d="M414.57,-313.41C408.88,-304.38 399.72,-289.75 392,-277 377.03,-252.29 372.71,-246.43 359,-221 347.36,-199.4 335.08,-173.93 327.25,-157.28"/>
<polygon fill="midnightblue" stroke="midnightblue" points="330.4,-155.75 322.99,-148.18 324.05,-158.72 330.4,-155.75"/>
</g>
<!-- Node13 -->
<g id="node13" class="node">
<title>Node13</title>
<g id="a_node13"><a xlink:href="mtxvec_8h.html" target="_top" xlink:title=" ">
<polygon fill="white" stroke="black" points="407,-257.5 407,-276.5 515,-276.5 515,-257.5 407,-257.5"/>
<text text-anchor="middle" x="461" y="-264.5" font-family="Helvetica,sans-Serif" font-size="10.00">dolphin/mtx/mtxvec.h</text>
</a>
</g>
</g>
<!-- Node1&#45;&gt;Node13 -->
<g id="edge21" class="edge">
<title>Node1&#45;&gt;Node13</title>
<path fill="none" stroke="midnightblue" d="M426.77,-313.08C432.56,-305.46 441.06,-294.26 448.14,-284.94"/>
<polygon fill="midnightblue" stroke="midnightblue" points="451.1,-286.83 454.36,-276.75 445.52,-282.6 451.1,-286.83"/>
</g>
<!-- Node3 -->
<g id="node3" class="node">
<title>Node3</title>
<g id="a_node3"><a xlink:href="vec_8h.html" target="_top" xlink:title=" ">
<polygon fill="white" stroke="black" points="260,-62 260,-81 352,-81 352,-62 260,-62"/>
<text text-anchor="middle" x="306" y="-69" font-family="Helvetica,sans-Serif" font-size="10.00">dolphin/mtx/vec.h</text>
</a>
</g>
</g>
<!-- Node2&#45;&gt;Node3 -->
<g id="edge2" class="edge">
<title>Node2&#45;&gt;Node3</title>
<path fill="none" stroke="midnightblue" d="M502.85,-123.48C456.68,-111.52 391.23,-94.57 348.7,-83.56"/>
<polygon fill="midnightblue" stroke="midnightblue" points="349.49,-80.15 338.93,-81.03 347.74,-86.92 349.49,-80.15"/>
</g>
<!-- Node2&#45;&gt;Node4 -->
<g id="edge4" class="edge">
<title>Node2&#45;&gt;Node4</title>
<path fill="none" stroke="midnightblue" d="M553.58,-123.21C548.49,-104.97 537.14,-73.68 516,-56 487.52,-32.19 446.84,-20.98 414.74,-15.7"/>
<polygon fill="midnightblue" stroke="midnightblue" points="415.05,-12.21 404.64,-14.18 414.01,-19.13 415.05,-12.21"/>
</g>
<!-- Node3&#45;&gt;Node4 -->
<g id="edge3" class="edge">
<title>Node3&#45;&gt;Node4</title>
<path fill="none" stroke="midnightblue" d="M314.31,-61.98C323.18,-52.87 337.45,-38.24 348.42,-26.98"/>
<polygon fill="midnightblue" stroke="midnightblue" points="351.23,-29.11 355.71,-19.51 346.22,-24.23 351.23,-29.11"/>
</g>
<!-- Node5&#45;&gt;Node3 -->
<g id="edge11" class="edge">
<title>Node5&#45;&gt;Node3</title>
<path fill="none" stroke="midnightblue" d="M228.41,-190.33C235.11,-173.57 247.44,-145.15 262,-123 270.1,-110.67 280.98,-98.17 289.89,-88.68"/>
<polygon fill="midnightblue" stroke="midnightblue" points="292.68,-90.83 297.1,-81.2 287.64,-85.97 292.68,-90.83"/>
</g>
<!-- Node6 -->
<g id="node6" class="node">
<title>Node6</title>
<g id="a_node6"><a xlink:href="math_8h.html" target="_top" xlink:title=" ">
<polygon fill="white" stroke="black" points="95,-129 95,-148 177,-148 177,-129 95,-129"/>
<text text-anchor="middle" x="136" y="-136" font-family="Helvetica,sans-Serif" font-size="10.00">MSL_C/math.h</text>
</a>
</g>
</g>
<!-- Node5&#45;&gt;Node6 -->
<g id="edge6" class="edge">
<title>Node5&#45;&gt;Node6</title>
<path fill="none" stroke="midnightblue" d="M204.12,-190.4C189.89,-179.76 170.4,-165.2 155.92,-154.38"/>
<polygon fill="midnightblue" stroke="midnightblue" points="157.74,-151.38 147.64,-148.19 153.55,-156.98 157.74,-151.38"/>
</g>
<!-- Node9 -->
<g id="node9" class="node">
<title>Node9</title>
<g id="a_node9"><a xlink:href="global_8h.html" target="_top" xlink:title=" ">
<polygon fill="white" stroke="black" points="192,-62 192,-81 242,-81 242,-62 192,-62"/>
<text text-anchor="middle" x="217" y="-69" font-family="Helvetica,sans-Serif" font-size="10.00">global.h</text>
</a>
</g>
</g>
<!-- Node5&#45;&gt;Node9 -->
<g id="edge12" class="edge">
<title>Node5&#45;&gt;Node9</title>
<path fill="none" stroke="midnightblue" d="M222.36,-190.37C221.27,-166.5 219.08,-118.18 217.86,-91.41"/>
<polygon fill="midnightblue" stroke="midnightblue" points="221.34,-90.93 217.39,-81.1 214.35,-91.25 221.34,-90.93"/>
</g>
<!-- Node6&#45;&gt;Node4 -->
<g id="edge10" class="edge">
<title>Node6&#45;&gt;Node4</title>
<path fill="none" stroke="midnightblue" d="M138.48,-128.83C143.75,-112.04 157.69,-75.07 183,-56 220.75,-27.56 274.29,-16.92 313.34,-13.03"/>
<polygon fill="midnightblue" stroke="midnightblue" points="313.79,-16.51 323.44,-12.14 313.18,-9.53 313.79,-16.51"/>
</g>
<!-- Node7 -->
<g id="node7" class="node">
<title>Node7</title>
<g id="a_node7"><a xlink:href="float_8h.html" target="_top" xlink:title=" ">
<polygon fill="white" stroke="black" points="0,-56.5 0,-86.5 136,-86.5 136,-56.5 0,-56.5"/>
<text text-anchor="start" x="8" y="-74.5" font-family="Helvetica,sans-Serif" font-size="10.00">MSL_C/MSL_Common/Src</text>
<text text-anchor="middle" x="68" y="-63.5" font-family="Helvetica,sans-Serif" font-size="10.00">/float.h</text>
</a>
</g>
</g>
<!-- Node6&#45;&gt;Node7 -->
<g id="edge7" class="edge">
<title>Node6&#45;&gt;Node7</title>
<path fill="none" stroke="midnightblue" d="M126.83,-128.73C117.46,-119.78 102.57,-105.54 90.11,-93.63"/>
<polygon fill="midnightblue" stroke="midnightblue" points="92.39,-90.97 82.74,-86.59 87.55,-96.03 92.39,-90.97"/>
</g>
<!-- Node7&#45;&gt;Node4 -->
<g id="edge8" class="edge">
<title>Node7&#45;&gt;Node4</title>
<path fill="none" stroke="midnightblue" d="M136.28,-56.77C190.32,-45.91 264.56,-30.99 313.38,-21.18"/>
<polygon fill="midnightblue" stroke="midnightblue" points="314.28,-24.56 323.4,-19.16 312.9,-17.7 314.28,-24.56"/>
</g>
<!-- Node8 -->
<g id="node8" class="node">
<title>Node8</title>
<g id="a_node8"><a xlink:href="fdlibm_8h.html" target="_top" xlink:title=" ">
<polygon fill="white" stroke="black" points="43,-0.5 43,-19.5 93,-19.5 93,-0.5 43,-0.5"/>
<text text-anchor="middle" x="68" y="-7.5" font-family="Helvetica,sans-Serif" font-size="10.00">fdlibm.h</text>
</a>
</g>
</g>
<!-- Node7&#45;&gt;Node8 -->
<g id="edge9" class="edge">
<title>Node7&#45;&gt;Node8</title>
<path fill="none" stroke="midnightblue" d="M68,-56.4C68,-48.47 68,-38.46 68,-29.86"/>
<polygon fill="midnightblue" stroke="midnightblue" points="71.5,-29.66 68,-19.66 64.5,-29.66 71.5,-29.66"/>
</g>
<!-- Node9&#45;&gt;Node4 -->
<g id="edge13" class="edge">
<title>Node9&#45;&gt;Node4</title>
<path fill="none" stroke="midnightblue" d="M236.74,-61.99C241.41,-60 246.37,-57.91 251,-56 278.38,-44.71 309.67,-32.29 332.38,-23.36"/>
<polygon fill="midnightblue" stroke="midnightblue" points="333.82,-26.55 341.85,-19.64 331.26,-20.03 333.82,-26.55"/>
</g>
<!-- Node10&#45;&gt;Node3 -->
<g id="edge19" class="edge">
<title>Node10&#45;&gt;Node3</title>
<path fill="none" stroke="midnightblue" d="M411.57,-195.85C406.8,-180.04 395,-145.98 376,-123 363.62,-108.03 345.83,-95.28 331.29,-86.33"/>
<polygon fill="midnightblue" stroke="midnightblue" points="332.68,-83.09 322.29,-81.01 329.12,-89.11 332.68,-83.09"/>
</g>
<!-- Node10&#45;&gt;Node4 -->
<g id="edge20" class="edge">
<title>Node10&#45;&gt;Node4</title>
<path fill="none" stroke="midnightblue" d="M423.91,-195.93C450.05,-172.28 516.61,-104.65 483,-56 467.61,-33.72 439.66,-22.46 414.72,-16.77"/>
<polygon fill="midnightblue" stroke="midnightblue" points="415.12,-13.28 404.62,-14.73 413.73,-20.14 415.12,-13.28"/>
</g>
<!-- Node11 -->
<g id="node11" class="node">
<title>Node11</title>
<g id="a_node11"><a xlink:href="mtx44_8h.html" target="_top" xlink:title=" ">
<polygon fill="white" stroke="black" points="370.5,-62 370.5,-81 473.5,-81 473.5,-62 370.5,-62"/>
<text text-anchor="middle" x="422" y="-69" font-family="Helvetica,sans-Serif" font-size="10.00">dolphin/mtx/mtx44.h</text>
</a>
</g>
</g>
<!-- Node10&#45;&gt;Node11 -->
<g id="edge15" class="edge">
<title>Node10&#45;&gt;Node11</title>
<path fill="none" stroke="midnightblue" d="M414.52,-195.84C415.81,-174.67 419.12,-119.95 420.88,-91.03"/>
<polygon fill="midnightblue" stroke="midnightblue" points="424.37,-91.21 421.48,-81.02 417.38,-90.79 424.37,-91.21"/>
</g>
<!-- Node10&#45;&gt;Node12 -->
<g id="edge17" class="edge">
<title>Node10&#45;&gt;Node12</title>
<path fill="none" stroke="midnightblue" d="M401.19,-195.73C385.52,-185.01 358.78,-166.72 340.07,-153.91"/>
<polygon fill="midnightblue" stroke="midnightblue" points="341.84,-150.89 331.61,-148.13 337.89,-156.66 341.84,-150.89"/>
</g>
<!-- Node11&#45;&gt;Node4 -->
<g id="edge16" class="edge">
<title>Node11&#45;&gt;Node4</title>
<path fill="none" stroke="midnightblue" d="M413.69,-61.98C404.82,-52.87 390.55,-38.24 379.58,-26.98"/>
<polygon fill="midnightblue" stroke="midnightblue" points="381.78,-24.23 372.29,-19.51 376.77,-29.11 381.78,-24.23"/>
</g>
<!-- Node12&#45;&gt;Node3 -->
<g id="edge18" class="edge">
<title>Node12&#45;&gt;Node3</title>
<path fill="none" stroke="midnightblue" d="M317.25,-128.73C315.34,-119.18 312.22,-103.62 309.76,-91.28"/>
<polygon fill="midnightblue" stroke="midnightblue" points="313.12,-90.25 307.73,-81.13 306.25,-91.62 313.12,-90.25"/>
</g>
<!-- Node13&#45;&gt;Node10 -->
<g id="edge22" class="edge">
<title>Node13&#45;&gt;Node10</title>
<path fill="none" stroke="midnightblue" d="M454.27,-257.48C447.22,-248.55 435.97,-234.31 427.15,-223.14"/>
<polygon fill="midnightblue" stroke="midnightblue" points="429.67,-220.69 420.72,-215.01 424.17,-225.03 429.67,-220.69"/>
</g>
</g>
</svg>
        <g id="navigator" transform="translate(0 0)" fill="#404254">
                <rect fill="#f2f5e9" fill-opacity="0.5" stroke="#606060" stroke-width=".5" x="0" y="0" width="60" height="60"/>
                <use id="zoomplus" xlink:href="#zoomPlus" x="17" y="9" onmousedown="handleZoom(evt,'in')"/>
                <use id="zoomminus" xlink:href="#zoomMin" x="42" y="9" onmousedown="handleZoom(evt,'out')"/>
                <use id="reset" xlink:href="#resetDef" x="30" y="36" onmousedown="handleReset()"/>
                <g id="arrowUp" xlink:href="#dirArrow" transform="translate(30 24)" onmousedown="handlePan(0,-1)">
                  <use xlink:href="#rim" fill="#404040">
                        <set attributeName="fill" to="#808080" begin="arrowUp.mouseover" end="arrowUp.mouseout"/>
                  </use>
                  <path fill="none" stroke="white" stroke-width="1.5" d="M0,-3.0v7 M-2.5,-0.5L0,-3.0L2.5,-0.5"/>
                </g>
                <g id="arrowRight" xlink:href="#dirArrow" transform="rotate(90) translate(36 -43)" onmousedown="handlePan(1,0)">
                  <use xlink:href="#rim" fill="#404040">
                        <set attributeName="fill" to="#808080" begin="arrowRight.mouseover" end="arrowRight.mouseout"/>
                  </use>
                  <path fill="none" stroke="white" stroke-width="1.5" d="M0,-3.0v7 M-2.5,-0.5L0,-3.0L2.5,-0.5"/>
                </g>
                <g id="arrowDown" xlink:href="#dirArrow" transform="rotate(180) translate(-30 -48)" onmousedown="handlePan(0,1)">
                  <use xlink:href="#rim" fill="#404040">
                        <set attributeName="fill" to="#808080" begin="arrowDown.mouseover" end="arrowDown.mouseout"/>
                  </use>
                  <path fill="none" stroke="white" stroke-width="1.5" d="M0,-3.0v7 M-2.5,-0.5L0,-3.0L2.5,-0.5"/>
                </g>
                <g id="arrowLeft" xlink:href="#dirArrow" transform="rotate(270) translate(-36 17)" onmousedown="handlePan(-1,0)">
                  <use xlink:href="#rim" fill="#404040">
                        <set attributeName="fill" to="#808080" begin="arrowLeft.mouseover" end="arrowLeft.mouseout"/>
                  </use>
                  <path fill="none" stroke="white" stroke-width="1.5" d="M0,-3.0v7 M-2.5,-0.5L0,-3.0L2.5,-0.5"/>
                </g>
        </g>
        <svg viewBox="0 0 15 15" width="100%" height="30px" preserveAspectRatio="xMaxYMin meet">
         <g id="arrow_out" transform="scale(0.3 0.3)">
          <a xlink:href="m__Do__mtx_8h__incl_org.svg" target="_base">
           <rect id="button" ry="5" rx="5" y="6" x="6" height="38" width="38"
                fill="#f2f5e9" fill-opacity="0.5" stroke="#606060" stroke-width="1.0"/>
           <path id="arrow"
             d="M 11.500037,31.436501 C 11.940474,20.09759 22.043105,11.32322 32.158766,21.979434 L 37.068811,17.246167 C 37.068811,17.246167 37.088388,32 37.088388,32 L 22.160133,31.978069 C 22.160133,31.978069 26.997745,27.140456 26.997745,27.140456 C 18.528582,18.264221 13.291696,25.230495 11.500037,31.436501 z"
             style="fill:#404040;"/>
          </a>
         </g>
        </svg>
</svg>
