<?xml version="1.0" encoding="UTF-8" standalone="no"?>
<!DOCTYPE svg PUBLIC "-//W3C//DTD SVG 1.1//EN"
 "http://www.w3.org/Graphics/SVG/1.1/DTD/svg11.dtd">
<!-- Generated by graphviz version 3.0.0 (20221109.1736)
 -->
<!-- Title: include/TRK_MINNOW_DOLPHIN/MetroTRK/Portable/msghndlr.h Pages: 1 -->
<svg width="209pt" height="173pt"
 viewBox="0.00 0.00 208.50 173.00" xmlns="http://www.w3.org/2000/svg" xmlns:xlink="http://www.w3.org/1999/xlink">
<g id="graph0" class="graph" transform="scale(1 1) rotate(0) translate(4 169)">
<title>include/TRK_MINNOW_DOLPHIN/MetroTRK/Portable/msghndlr.h</title>
<polygon fill="white" stroke="transparent" points="-4,4 -4,-169 204.5,-169 204.5,4 -4,4"/>
<!-- Node1 -->
<g id="node1" class="node">
<title>Node1</title>
<g id="a_node1"><a xlink:title=" ">
<polygon fill="#bfbfbf" stroke="black" points="0,-123.5 0,-164.5 153,-164.5 153,-123.5 0,-123.5"/>
<text text-anchor="start" x="8" y="-152.5" font-family="Helvetica,sans-Serif" font-size="10.00">include/TRK_MINNOW</text>
<text text-anchor="start" x="8" y="-141.5" font-family="Helvetica,sans-Serif" font-size="10.00">_DOLPHIN/MetroTRK/Portable</text>
<text text-anchor="middle" x="76.5" y="-130.5" font-family="Helvetica,sans-Serif" font-size="10.00">/msghndlr.h</text>
</a>
</g>
</g>
<!-- Node2 -->
<g id="node2" class="node">
<title>Node2</title>
<g id="a_node2"><a xlink:href="types_8h.html" target="_top" xlink:title=" ">
<polygon fill="white" stroke="black" points="36,-0.5 36,-19.5 117,-19.5 117,-0.5 36,-0.5"/>
<text text-anchor="middle" x="76.5" y="-7.5" font-family="Helvetica,sans-Serif" font-size="10.00">dolphin/types.h</text>
</a>
</g>
</g>
<!-- Node1&#45;&gt;Node2 -->
<g id="edge1" class="edge">
<title>Node1&#45;&gt;Node2</title>
<path fill="none" stroke="midnightblue" d="M61.94,-123.46C50.71,-105.93 38.21,-79.43 45.5,-56 48.73,-45.62 55.28,-35.52 61.52,-27.53"/>
<polygon fill="midnightblue" stroke="midnightblue" points="64.29,-29.68 68.02,-19.77 58.92,-25.19 64.29,-29.68"/>
</g>
<!-- Node3 -->
<g id="node3" class="node">
<title>Node3</title>
<g id="a_node3"><a xlink:href="msgbuf_8h.html" target="_top" xlink:title=" ">
<polygon fill="white" stroke="black" points="54.5,-56.5 54.5,-86.5 200.5,-86.5 200.5,-56.5 54.5,-56.5"/>
<text text-anchor="start" x="62.5" y="-74.5" font-family="Helvetica,sans-Serif" font-size="10.00">TRK_MINNOW_DOLPHIN</text>
<text text-anchor="middle" x="127.5" y="-63.5" font-family="Helvetica,sans-Serif" font-size="10.00">/MetroTRK/Portable/msgbuf.h</text>
</a>
</g>
</g>
<!-- Node1&#45;&gt;Node3 -->
<g id="edge2" class="edge">
<title>Node1&#45;&gt;Node3</title>
<path fill="none" stroke="midnightblue" d="M90.71,-123.36C97.05,-114.59 104.56,-104.21 111.14,-95.12"/>
<polygon fill="midnightblue" stroke="midnightblue" points="114.06,-97.05 117.09,-86.89 108.39,-92.94 114.06,-97.05"/>
</g>
<!-- Node3&#45;&gt;Node2 -->
<g id="edge3" class="edge">
<title>Node3&#45;&gt;Node2</title>
<path fill="none" stroke="midnightblue" d="M115.41,-56.4C107.93,-47.66 98.28,-36.41 90.47,-27.3"/>
<polygon fill="midnightblue" stroke="midnightblue" points="93.09,-24.97 83.92,-19.66 87.77,-29.53 93.09,-24.97"/>
</g>
</g>
</svg>
