<?xml version="1.0" encoding="UTF-8" standalone="no"?>
<!DOCTYPE svg PUBLIC "-//W3C//DTD SVG 1.1//EN"
 "http://www.w3.org/Graphics/SVG/1.1/DTD/svg11.dtd">
<!-- Generated by graphviz version 2.50.0 (20220203.2022)
 -->
<!-- Title: libs/dolphin/mtx/mtx44.cpp Pages: 1 -->
<svg width="600pt" height="218pt"
 viewBox="0.00 0.00 600.00 218.00" xmlns="http://www.w3.org/2000/svg" xmlns:xlink="http://www.w3.org/1999/xlink">
<g id="graph0" class="graph" transform="scale(1 1) rotate(0) translate(4 214)">
<title>libs/dolphin/mtx/mtx44.cpp</title>
<polygon fill="white" stroke="transparent" points="-4,4 -4,-214 596,-214 596,4 -4,4"/>
<!-- Node1 -->
<g id="node1" class="node">
<title>Node1</title>
<g id="a_node1"><a xlink:title=" ">
<polygon fill="#bfbfbf" stroke="black" points="170,-190.5 170,-209.5 301,-209.5 301,-190.5 170,-190.5"/>
<text text-anchor="middle" x="235.5" y="-197.5" font-family="Helvetica,sans-Serif" font-size="10.00">libs/dolphin/mtx/mtx44.cpp</text>
</a>
</g>
</g>
<!-- Node2 -->
<g id="node2" class="node">
<title>Node2</title>
<g id="a_node2"><a xlink:href="mtx44_8h.html" target="_top" xlink:title=" ">
<polygon fill="white" stroke="black" points="0,-62 0,-81 103,-81 103,-62 0,-62"/>
<text text-anchor="middle" x="51.5" y="-69" font-family="Helvetica,sans-Serif" font-size="10.00">dolphin/mtx/mtx44.h</text>
</a>
</g>
</g>
<!-- Node1&#45;&gt;Node2 -->
<g id="edge1" class="edge">
<title>Node1&#45;&gt;Node2</title>
<path fill="none" stroke="midnightblue" d="M199.01,-190.45C174.37,-183.45 142,-171.76 117.5,-154 93.62,-136.69 73.53,-108.65 62,-90.39"/>
<polygon fill="midnightblue" stroke="midnightblue" points="64.7,-88.1 56.51,-81.39 58.73,-91.75 64.7,-88.1"/>
</g>
<!-- Node3 -->
<g id="node3" class="node">
<title>Node3</title>
<g id="a_node3"><a xlink:href="types_8h.html" target="_top" xlink:title=" ">
<polygon fill="white" stroke="black" points="114,-0.5 114,-19.5 195,-19.5 195,-0.5 114,-0.5"/>
<text text-anchor="middle" x="154.5" y="-7.5" font-family="Helvetica,sans-Serif" font-size="10.00">dolphin/types.h</text>
</a>
</g>
</g>
<!-- Node1&#45;&gt;Node3 -->
<g id="edge4" class="edge">
<title>Node1&#45;&gt;Node3</title>
<path fill="none" stroke="midnightblue" d="M201.7,-190.39C183.11,-183.74 161.61,-172.45 150.5,-154 126.87,-114.76 139.37,-57.83 148.2,-29.08"/>
<polygon fill="midnightblue" stroke="midnightblue" points="151.54,-30.12 151.32,-19.53 144.89,-27.95 151.54,-30.12"/>
</g>
<!-- Node4 -->
<g id="node4" class="node">
<title>Node4</title>
<g id="a_node4"><a xlink:href="dol2asm_8h.html" target="_top" xlink:title=" ">
<polygon fill="white" stroke="black" points="160,-129 160,-148 221,-148 221,-129 160,-129"/>
<text text-anchor="middle" x="190.5" y="-136" font-family="Helvetica,sans-Serif" font-size="10.00">dol2asm.h</text>
</a>
</g>
</g>
<!-- Node1&#45;&gt;Node4 -->
<g id="edge3" class="edge">
<title>Node1&#45;&gt;Node4</title>
<path fill="none" stroke="midnightblue" d="M229.05,-190.48C222.3,-181.55 211.53,-167.31 203.09,-156.14"/>
<polygon fill="midnightblue" stroke="midnightblue" points="205.76,-153.87 196.94,-148.01 200.18,-158.1 205.76,-153.87"/>
</g>
<!-- Node5 -->
<g id="node5" class="node">
<title>Node5</title>
<g id="a_node5"><a xlink:href="math_8h.html" target="_top" xlink:title=" ">
<polygon fill="white" stroke="black" points="239.5,-129 239.5,-148 321.5,-148 321.5,-129 239.5,-129"/>
<text text-anchor="middle" x="280.5" y="-136" font-family="Helvetica,sans-Serif" font-size="10.00">MSL_C/math.h</text>
</a>
</g>
</g>
<!-- Node1&#45;&gt;Node5 -->
<g id="edge5" class="edge">
<title>Node1&#45;&gt;Node5</title>
<path fill="none" stroke="midnightblue" d="M241.95,-190.48C248.7,-181.55 259.47,-167.31 267.91,-156.14"/>
<polygon fill="midnightblue" stroke="midnightblue" points="270.82,-158.1 274.06,-148.01 265.24,-153.87 270.82,-158.1"/>
</g>
<!-- Node7 -->
<g id="node7" class="node">
<title>Node7</title>
<g id="a_node7"><a xlink:title=" ">
<polygon fill="white" stroke="#bfbfbf" points="340,-123.5 340,-153.5 457,-153.5 457,-123.5 340,-123.5"/>
<text text-anchor="start" x="348" y="-141.5" font-family="Helvetica,sans-Serif" font-size="10.00">asm/dolphin/mtx/mtx44</text>
<text text-anchor="middle" x="398.5" y="-130.5" font-family="Helvetica,sans-Serif" font-size="10.00">/C_MTXPerspective.s</text>
</a>
</g>
</g>
<!-- Node1&#45;&gt;Node7 -->
<g id="edge9" class="edge">
<title>Node1&#45;&gt;Node7</title>
<path fill="none" stroke="midnightblue" d="M258.85,-190.48C282.68,-181.78 320.35,-168.03 350.56,-157"/>
<polygon fill="midnightblue" stroke="midnightblue" points="351.89,-160.24 360.08,-153.52 349.49,-153.66 351.89,-160.24"/>
</g>
<!-- Node8 -->
<g id="node8" class="node">
<title>Node8</title>
<g id="a_node8"><a xlink:title=" ">
<polygon fill="white" stroke="#bfbfbf" points="475,-123.5 475,-153.5 592,-153.5 592,-123.5 475,-123.5"/>
<text text-anchor="start" x="483" y="-141.5" font-family="Helvetica,sans-Serif" font-size="10.00">asm/dolphin/mtx/mtx44</text>
<text text-anchor="middle" x="533.5" y="-130.5" font-family="Helvetica,sans-Serif" font-size="10.00">/C_MTXOrtho.s</text>
</a>
</g>
</g>
<!-- Node1&#45;&gt;Node8 -->
<g id="edge10" class="edge">
<title>Node1&#45;&gt;Node8</title>
<path fill="none" stroke="midnightblue" d="M280.7,-190.48C325.22,-182.03 395.41,-168.53 464.89,-154.31"/>
<polygon fill="midnightblue" stroke="midnightblue" points="465.6,-157.74 474.69,-152.3 464.19,-150.88 465.6,-157.74"/>
</g>
<!-- Node2&#45;&gt;Node3 -->
<g id="edge2" class="edge">
<title>Node2&#45;&gt;Node3</title>
<path fill="none" stroke="midnightblue" d="M66.26,-61.98C83.16,-52.21 111.08,-36.08 130.99,-24.58"/>
<polygon fill="midnightblue" stroke="midnightblue" points="132.86,-27.54 139.77,-19.51 129.36,-21.48 132.86,-27.54"/>
</g>
<!-- Node5&#45;&gt;Node3 -->
<g id="edge8" class="edge">
<title>Node5&#45;&gt;Node3</title>
<path fill="none" stroke="midnightblue" d="M261.35,-128.87C243.7,-120.2 217.57,-105.49 199.5,-87 182.97,-70.09 170.03,-45.97 162.35,-29.47"/>
<polygon fill="midnightblue" stroke="midnightblue" points="165.34,-27.59 158.07,-19.87 158.94,-30.43 165.34,-27.59"/>
</g>
<!-- Node6 -->
<g id="node6" class="node">
<title>Node6</title>
<g id="a_node6"><a xlink:href="float_8h.html" target="_top" xlink:title=" ">
<polygon fill="white" stroke="black" points="208.5,-56.5 208.5,-86.5 344.5,-86.5 344.5,-56.5 208.5,-56.5"/>
<text text-anchor="start" x="216.5" y="-74.5" font-family="Helvetica,sans-Serif" font-size="10.00">MSL_C/MSL_Common/Src</text>
<text text-anchor="middle" x="276.5" y="-63.5" font-family="Helvetica,sans-Serif" font-size="10.00">/float.h</text>
</a>
</g>
</g>
<!-- Node5&#45;&gt;Node6 -->
<g id="edge6" class="edge">
<title>Node5&#45;&gt;Node6</title>
<path fill="none" stroke="midnightblue" d="M279.96,-128.73C279.46,-120.54 278.68,-107.92 277.99,-96.71"/>
<polygon fill="midnightblue" stroke="midnightblue" points="281.47,-96.36 277.37,-86.59 274.49,-96.79 281.47,-96.36"/>
</g>
<!-- Node6&#45;&gt;Node3 -->
<g id="edge7" class="edge">
<title>Node6&#45;&gt;Node3</title>
<path fill="none" stroke="midnightblue" d="M247.59,-56.4C227.48,-46.59 200.88,-33.62 181.26,-24.05"/>
<polygon fill="midnightblue" stroke="midnightblue" points="182.77,-20.9 172.25,-19.66 179.71,-27.19 182.77,-20.9"/>
</g>
</g>
</svg>
