<?xml version="1.0" encoding="UTF-8" standalone="no"?>
<!DOCTYPE svg PUBLIC "-//W3C//DTD SVG 1.1//EN"
 "http://www.w3.org/Graphics/SVG/1.1/DTD/svg11.dtd">
<!-- Generated by graphviz version 3.0.0 (20220413.0242)
 -->
<!-- Title: libs/dolphin/os/OSAlarm.cpp Pages: 1 -->
<svg width="1728pt" height="207pt"
 viewBox="0.00 0.00 1728.22 207.00" xmlns="http://www.w3.org/2000/svg" xmlns:xlink="http://www.w3.org/1999/xlink">
<g id="graph0" class="graph" transform="scale(1 1) rotate(0) translate(4 203)">
<title>libs/dolphin/os/OSAlarm.cpp</title>
<polygon fill="white" stroke="transparent" points="-4,4 -4,-203 1724.22,-203 1724.22,4 -4,4"/>
<!-- Node1 -->
<g id="node1" class="node">
<title>Node1</title>
<g id="a_node1"><a xlink:title=" ">
<polygon fill="#bfbfbf" stroke="black" points="730.72,-179.5 730.72,-198.5 870.72,-198.5 870.72,-179.5 730.72,-179.5"/>
<text text-anchor="middle" x="800.72" y="-186.5" font-family="Helvetica,sans-Serif" font-size="10.00">libs/dolphin/os/OSAlarm.cpp</text>
</a>
</g>
</g>
<!-- Node2 -->
<g id="node2" class="node">
<title>Node2</title>
<g id="a_node2"><a xlink:href="OSAlarm_8h.html" target="_top" xlink:title=" ">
<polygon fill="white" stroke="black" points="74.22,-118 74.22,-137 185.22,-137 185.22,-118 74.22,-118"/>
<text text-anchor="middle" x="129.72" y="-125" font-family="Helvetica,sans-Serif" font-size="10.00">dolphin/os/OSAlarm.h</text>
</a>
</g>
</g>
<!-- Node1&#45;&gt;Node2 -->
<g id="edge1" class="edge">
<title>Node1&#45;&gt;Node2</title>
<path fill="none" stroke="midnightblue" d="M730.64,-182.8C627.44,-175.01 428.57,-159.44 259.72,-143 238.84,-140.97 216.1,-138.51 195.56,-136.21"/>
<polygon fill="midnightblue" stroke="midnightblue" points="195.69,-132.7 185.36,-135.05 194.9,-139.65 195.69,-132.7"/>
</g>
<!-- Node3 -->
<g id="node3" class="node">
<title>Node3</title>
<g id="a_node3"><a xlink:href="types_8h.html" target="_top" xlink:title=" ">
<polygon fill="white" stroke="black" points="90.22,-0.5 90.22,-19.5 171.22,-19.5 171.22,-0.5 90.22,-0.5"/>
<text text-anchor="middle" x="130.72" y="-7.5" font-family="Helvetica,sans-Serif" font-size="10.00">dolphin/types.h</text>
</a>
</g>
</g>
<!-- Node1&#45;&gt;Node3 -->
<g id="edge8" class="edge">
<title>Node1&#45;&gt;Node3</title>
<path fill="none" stroke="midnightblue" d="M730.54,-185.68C599.68,-180.79 328.5,-167.77 293.72,-143 259.21,-118.42 285.77,-84.84 254.72,-56 234.52,-37.23 205.89,-26.16 181.23,-19.7"/>
<polygon fill="midnightblue" stroke="midnightblue" points="181.84,-16.25 171.3,-17.29 180.19,-23.05 181.84,-16.25"/>
</g>
<!-- Node6 -->
<g id="node6" class="node">
<title>Node6</title>
<g id="a_node6"><a xlink:href="dol2asm_8h.html" target="_top" xlink:title=" ">
<polygon fill="white" stroke="black" points="302.22,-118 302.22,-137 363.22,-137 363.22,-118 302.22,-118"/>
<text text-anchor="middle" x="332.72" y="-125" font-family="Helvetica,sans-Serif" font-size="10.00">dol2asm.h</text>
</a>
</g>
</g>
<!-- Node1&#45;&gt;Node6 -->
<g id="edge7" class="edge">
<title>Node1&#45;&gt;Node6</title>
<path fill="none" stroke="midnightblue" d="M730.56,-185.84C645.06,-182.02 496.68,-171.54 372.72,-143 369.49,-142.25 366.15,-141.32 362.85,-140.29"/>
<polygon fill="midnightblue" stroke="midnightblue" points="363.79,-136.92 353.2,-137 361.53,-143.54 363.79,-136.92"/>
</g>
<!-- Node7 -->
<g id="node7" class="node">
<title>Node7</title>
<g id="a_node7"><a xlink:title=" ">
<polygon fill="white" stroke="#bfbfbf" points="381.22,-112.5 381.22,-142.5 506.22,-142.5 506.22,-112.5 381.22,-112.5"/>
<text text-anchor="start" x="389.22" y="-130.5" font-family="Helvetica,sans-Serif" font-size="10.00">asm/dolphin/os/OSAlarm</text>
<text text-anchor="middle" x="443.72" y="-119.5" font-family="Helvetica,sans-Serif" font-size="10.00">/OSInitAlarm.s</text>
</a>
</g>
</g>
<!-- Node1&#45;&gt;Node7 -->
<g id="edge9" class="edge">
<title>Node1&#45;&gt;Node7</title>
<path fill="none" stroke="midnightblue" d="M742.2,-179.5C686.7,-171.26 600.73,-158.08 516.52,-143.1"/>
<polygon fill="midnightblue" stroke="midnightblue" points="516.98,-139.63 506.52,-141.31 515.75,-146.52 516.98,-139.63"/>
</g>
<!-- Node8 -->
<g id="node8" class="node">
<title>Node8</title>
<g id="a_node8"><a xlink:title=" ">
<polygon fill="white" stroke="#bfbfbf" points="524.22,-112.5 524.22,-142.5 649.22,-142.5 649.22,-112.5 524.22,-112.5"/>
<text text-anchor="start" x="532.22" y="-130.5" font-family="Helvetica,sans-Serif" font-size="10.00">asm/dolphin/os/OSAlarm</text>
<text text-anchor="middle" x="586.72" y="-119.5" font-family="Helvetica,sans-Serif" font-size="10.00">/OSCreateAlarm.s</text>
</a>
</g>
</g>
<!-- Node1&#45;&gt;Node8 -->
<g id="edge10" class="edge">
<title>Node1&#45;&gt;Node8</title>
<path fill="none" stroke="midnightblue" d="M770.06,-179.48C738.03,-170.57 686.96,-156.37 646.84,-145.22"/>
<polygon fill="midnightblue" stroke="midnightblue" points="647.73,-141.83 637.16,-142.52 645.86,-148.57 647.73,-141.83"/>
</g>
<!-- Node9 -->
<g id="node9" class="node">
<title>Node9</title>
<g id="a_node9"><a xlink:title=" ">
<polygon fill="white" stroke="#bfbfbf" points="667.22,-112.5 667.22,-142.5 792.22,-142.5 792.22,-112.5 667.22,-112.5"/>
<text text-anchor="start" x="675.22" y="-130.5" font-family="Helvetica,sans-Serif" font-size="10.00">asm/dolphin/os/OSAlarm</text>
<text text-anchor="middle" x="729.72" y="-119.5" font-family="Helvetica,sans-Serif" font-size="10.00">/InsertAlarm.s</text>
</a>
</g>
</g>
<!-- Node1&#45;&gt;Node9 -->
<g id="edge11" class="edge">
<title>Node1&#45;&gt;Node9</title>
<path fill="none" stroke="midnightblue" d="M790.55,-179.48C781.12,-171.57 766.7,-159.48 754.27,-149.07"/>
<polygon fill="midnightblue" stroke="midnightblue" points="756.37,-146.26 746.46,-142.52 751.87,-151.63 756.37,-146.26"/>
</g>
<!-- Node10 -->
<g id="node10" class="node">
<title>Node10</title>
<g id="a_node10"><a xlink:title=" ">
<polygon fill="white" stroke="#bfbfbf" points="810.22,-112.5 810.22,-142.5 935.22,-142.5 935.22,-112.5 810.22,-112.5"/>
<text text-anchor="start" x="818.22" y="-130.5" font-family="Helvetica,sans-Serif" font-size="10.00">asm/dolphin/os/OSAlarm</text>
<text text-anchor="middle" x="872.72" y="-119.5" font-family="Helvetica,sans-Serif" font-size="10.00">/OSSetAlarm.s</text>
</a>
</g>
</g>
<!-- Node1&#45;&gt;Node10 -->
<g id="edge12" class="edge">
<title>Node1&#45;&gt;Node10</title>
<path fill="none" stroke="midnightblue" d="M811.04,-179.48C820.61,-171.57 835.23,-159.48 847.84,-149.07"/>
<polygon fill="midnightblue" stroke="midnightblue" points="850.28,-151.59 855.76,-142.52 845.82,-146.2 850.28,-151.59"/>
</g>
<!-- Node11 -->
<g id="node11" class="node">
<title>Node11</title>
<g id="a_node11"><a xlink:title=" ">
<polygon fill="white" stroke="#bfbfbf" points="953.22,-112.5 953.22,-142.5 1078.22,-142.5 1078.22,-112.5 953.22,-112.5"/>
<text text-anchor="start" x="961.22" y="-130.5" font-family="Helvetica,sans-Serif" font-size="10.00">asm/dolphin/os/OSAlarm</text>
<text text-anchor="middle" x="1015.72" y="-119.5" font-family="Helvetica,sans-Serif" font-size="10.00">/OSSetPeriodicAlarm.s</text>
</a>
</g>
</g>
<!-- Node1&#45;&gt;Node11 -->
<g id="edge13" class="edge">
<title>Node1&#45;&gt;Node11</title>
<path fill="none" stroke="midnightblue" d="M831.53,-179.48C863.71,-170.57 915.02,-156.37 955.33,-145.22"/>
<polygon fill="midnightblue" stroke="midnightblue" points="956.35,-148.56 965.05,-142.52 954.48,-141.82 956.35,-148.56"/>
</g>
<!-- Node12 -->
<g id="node12" class="node">
<title>Node12</title>
<g id="a_node12"><a xlink:title=" ">
<polygon fill="white" stroke="#bfbfbf" points="1096.22,-112.5 1096.22,-142.5 1221.22,-142.5 1221.22,-112.5 1096.22,-112.5"/>
<text text-anchor="start" x="1104.22" y="-130.5" font-family="Helvetica,sans-Serif" font-size="10.00">asm/dolphin/os/OSAlarm</text>
<text text-anchor="middle" x="1158.72" y="-119.5" font-family="Helvetica,sans-Serif" font-size="10.00">/OSCancelAlarm.s</text>
</a>
</g>
</g>
<!-- Node1&#45;&gt;Node12 -->
<g id="edge14" class="edge">
<title>Node1&#45;&gt;Node12</title>
<path fill="none" stroke="midnightblue" d="M860.22,-179.49C916.14,-171.3 1002.42,-158.19 1086.11,-143.25"/>
<polygon fill="midnightblue" stroke="midnightblue" points="1086.81,-146.68 1096.03,-141.47 1085.57,-139.79 1086.81,-146.68"/>
</g>
<!-- Node13 -->
<g id="node13" class="node">
<title>Node13</title>
<g id="a_node13"><a xlink:title=" ">
<polygon fill="white" stroke="#bfbfbf" points="1239.72,-112.5 1239.72,-142.5 1401.72,-142.5 1401.72,-112.5 1239.72,-112.5"/>
<text text-anchor="start" x="1247.72" y="-130.5" font-family="Helvetica,sans-Serif" font-size="10.00">asm/dolphin/os/OSAlarm</text>
<text text-anchor="middle" x="1320.72" y="-119.5" font-family="Helvetica,sans-Serif" font-size="10.00">/DecrementerExceptionCallback.s</text>
</a>
</g>
</g>
<!-- Node1&#45;&gt;Node13 -->
<g id="edge15" class="edge">
<title>Node1&#45;&gt;Node13</title>
<path fill="none" stroke="midnightblue" d="M870.88,-181.86C954.04,-174.32 1097.04,-160.49 1229.4,-143.13"/>
<polygon fill="midnightblue" stroke="midnightblue" points="1229.86,-146.6 1239.32,-141.82 1228.95,-139.66 1229.86,-146.6"/>
</g>
<!-- Node14 -->
<g id="node14" class="node">
<title>Node14</title>
<g id="a_node14"><a xlink:title=" ">
<polygon fill="white" stroke="#bfbfbf" points="1419.72,-112.5 1419.72,-142.5 1577.72,-142.5 1577.72,-112.5 1419.72,-112.5"/>
<text text-anchor="start" x="1427.72" y="-130.5" font-family="Helvetica,sans-Serif" font-size="10.00">asm/dolphin/os/OSAlarm</text>
<text text-anchor="middle" x="1498.72" y="-119.5" font-family="Helvetica,sans-Serif" font-size="10.00">/DecrementerExceptionHandler.s</text>
</a>
</g>
</g>
<!-- Node1&#45;&gt;Node14 -->
<g id="edge16" class="edge">
<title>Node1&#45;&gt;Node14</title>
<path fill="none" stroke="midnightblue" d="M870.91,-184.87C982.7,-179.44 1208.26,-166.62 1409.45,-143.08"/>
<polygon fill="midnightblue" stroke="midnightblue" points="1410.1,-146.53 1419.62,-141.88 1409.28,-139.58 1410.1,-146.53"/>
</g>
<!-- Node15 -->
<g id="node15" class="node">
<title>Node15</title>
<g id="a_node15"><a xlink:title=" ">
<polygon fill="white" stroke="#bfbfbf" points="1595.22,-112.5 1595.22,-142.5 1720.22,-142.5 1720.22,-112.5 1595.22,-112.5"/>
<text text-anchor="start" x="1603.22" y="-130.5" font-family="Helvetica,sans-Serif" font-size="10.00">asm/dolphin/os/OSAlarm</text>
<text text-anchor="middle" x="1657.72" y="-119.5" font-family="Helvetica,sans-Serif" font-size="10.00">/OnReset.s</text>
</a>
</g>
</g>
<!-- Node1&#45;&gt;Node15 -->
<g id="edge17" class="edge">
<title>Node1&#45;&gt;Node15</title>
<path fill="none" stroke="midnightblue" d="M870.96,-187.37C1007.11,-185.41 1316.44,-177.35 1585.14,-143.08"/>
<polygon fill="midnightblue" stroke="midnightblue" points="1585.62,-146.55 1595.09,-141.8 1584.72,-139.61 1585.62,-146.55"/>
</g>
<!-- Node2&#45;&gt;Node3 -->
<g id="edge2" class="edge">
<title>Node2&#45;&gt;Node3</title>
<path fill="none" stroke="midnightblue" d="M81.29,-117.96C37.41,-107.97 -17.13,-88.52 5.72,-56 22.48,-32.16 53.15,-20.89 79.91,-15.59"/>
<polygon fill="midnightblue" stroke="midnightblue" points="80.7,-19 89.94,-13.84 79.49,-12.11 80.7,-19"/>
</g>
<!-- Node4 -->
<g id="node4" class="node">
<title>Node4</title>
<g id="a_node4"><a xlink:href="OSTime_8h.html" target="_top" xlink:title=" ">
<polygon fill="white" stroke="black" points="15.22,-56.5 15.22,-75.5 122.22,-75.5 122.22,-56.5 15.22,-56.5"/>
<text text-anchor="middle" x="68.72" y="-63.5" font-family="Helvetica,sans-Serif" font-size="10.00">dolphin/os/OSTime.h</text>
</a>
</g>
</g>
<!-- Node2&#45;&gt;Node4 -->
<g id="edge3" class="edge">
<title>Node2&#45;&gt;Node4</title>
<path fill="none" stroke="midnightblue" d="M120.98,-117.98C111.56,-108.78 96.36,-93.96 84.78,-82.66"/>
<polygon fill="midnightblue" stroke="midnightblue" points="87.05,-79.99 77.45,-75.51 82.16,-85 87.05,-79.99"/>
</g>
<!-- Node5 -->
<g id="node5" class="node">
<title>Node5</title>
<g id="a_node5"><a xlink:href="OSError_8h.html" target="_top" xlink:title=" ">
<polygon fill="white" stroke="black" points="139.72,-56.5 139.72,-75.5 245.72,-75.5 245.72,-56.5 139.72,-56.5"/>
<text text-anchor="middle" x="192.72" y="-63.5" font-family="Helvetica,sans-Serif" font-size="10.00">dolphin/os/OSError.h</text>
</a>
</g>
</g>
<!-- Node2&#45;&gt;Node5 -->
<g id="edge5" class="edge">
<title>Node2&#45;&gt;Node5</title>
<path fill="none" stroke="midnightblue" d="M138.75,-117.98C148.48,-108.78 164.18,-93.96 176.15,-82.66"/>
<polygon fill="midnightblue" stroke="midnightblue" points="178.85,-84.92 183.71,-75.51 174.04,-79.83 178.85,-84.92"/>
</g>
<!-- Node4&#45;&gt;Node3 -->
<g id="edge4" class="edge">
<title>Node4&#45;&gt;Node3</title>
<path fill="none" stroke="midnightblue" d="M78.69,-56.32C87.85,-48.34 101.66,-36.31 112.75,-26.65"/>
<polygon fill="midnightblue" stroke="midnightblue" points="115.34,-29.04 120.58,-19.83 110.74,-23.76 115.34,-29.04"/>
</g>
<!-- Node5&#45;&gt;Node3 -->
<g id="edge6" class="edge">
<title>Node5&#45;&gt;Node3</title>
<path fill="none" stroke="midnightblue" d="M182.76,-56.32C173.6,-48.34 159.79,-36.31 148.7,-26.65"/>
<polygon fill="midnightblue" stroke="midnightblue" points="150.71,-23.76 140.87,-19.83 146.11,-29.04 150.71,-23.76"/>
</g>
</g>
</svg>
