<?xml version="1.0" encoding="UTF-8" standalone="no"?>
<!DOCTYPE svg PUBLIC "-//W3C//DTD SVG 1.1//EN"
 "http://www.w3.org/Graphics/SVG/1.1/DTD/svg11.dtd">
<!-- Generated by graphviz version 3.0.0 (20220413.0242)
 -->
<!-- Title: libs/dolphin/os/OSMemory.cpp Pages: 1 -->
<svg width="1334pt" height="207pt"
 viewBox="0.00 0.00 1334.38 207.00" xmlns="http://www.w3.org/2000/svg" xmlns:xlink="http://www.w3.org/1999/xlink">
<g id="graph0" class="graph" transform="scale(1 1) rotate(0) translate(4 203)">
<title>libs/dolphin/os/OSMemory.cpp</title>
<polygon fill="white" stroke="transparent" points="-4,4 -4,-203 1330.38,-203 1330.38,4 -4,4"/>
<!-- Node1 -->
<g id="node1" class="node">
<title>Node1</title>
<g id="a_node1"><a xlink:title=" ">
<polygon fill="#bfbfbf" stroke="black" points="490.88,-179.5 490.88,-198.5 639.88,-198.5 639.88,-179.5 490.88,-179.5"/>
<text text-anchor="middle" x="565.38" y="-186.5" font-family="Helvetica,sans-Serif" font-size="10.00">libs/dolphin/os/OSMemory.cpp</text>
</a>
</g>
</g>
<!-- Node2 -->
<g id="node2" class="node">
<title>Node2</title>
<g id="a_node2"><a xlink:href="OSMemory_8h.html" target="_top" xlink:title=" ">
<polygon fill="white" stroke="black" points="13.38,-118 13.38,-137 133.38,-137 133.38,-118 13.38,-118"/>
<text text-anchor="middle" x="73.38" y="-125" font-family="Helvetica,sans-Serif" font-size="10.00">dolphin/os/OSMemory.h</text>
</a>
</g>
</g>
<!-- Node1&#45;&gt;Node2 -->
<g id="edge1" class="edge">
<title>Node1&#45;&gt;Node2</title>
<path fill="none" stroke="midnightblue" d="M490.57,-181.82C406.92,-174.48 267.56,-160.92 148.38,-143 140.55,-141.82 132.28,-140.4 124.21,-138.92"/>
<polygon fill="midnightblue" stroke="midnightblue" points="124.62,-135.44 114.15,-137.02 123.33,-142.32 124.62,-135.44"/>
</g>
<!-- Node3 -->
<g id="node3" class="node">
<title>Node3</title>
<g id="a_node3"><a xlink:href="types_8h.html" target="_top" xlink:title=" ">
<polygon fill="white" stroke="black" points="32.88,-0.5 32.88,-19.5 113.88,-19.5 113.88,-0.5 32.88,-0.5"/>
<text text-anchor="middle" x="73.38" y="-7.5" font-family="Helvetica,sans-Serif" font-size="10.00">dolphin/types.h</text>
</a>
</g>
</g>
<!-- Node1&#45;&gt;Node3 -->
<g id="edge6" class="edge">
<title>Node1&#45;&gt;Node3</title>
<path fill="none" stroke="midnightblue" d="M490.88,-187.78C393.56,-186.08 229.95,-177.91 182.38,-143 148.22,-117.93 171.02,-88.12 143.38,-56 132.05,-42.83 115.92,-32.1 102,-24.43"/>
<polygon fill="midnightblue" stroke="midnightblue" points="103.28,-21.15 92.8,-19.61 100.04,-27.35 103.28,-21.15"/>
</g>
<!-- Node5 -->
<g id="node5" class="node">
<title>Node5</title>
<g id="a_node5"><a xlink:href="dol2asm_8h.html" target="_top" xlink:title=" ">
<polygon fill="white" stroke="black" points="190.88,-118 190.88,-137 251.88,-137 251.88,-118 190.88,-118"/>
<text text-anchor="middle" x="221.38" y="-125" font-family="Helvetica,sans-Serif" font-size="10.00">dol2asm.h</text>
</a>
</g>
</g>
<!-- Node1&#45;&gt;Node5 -->
<g id="edge5" class="edge">
<title>Node1&#45;&gt;Node5</title>
<path fill="none" stroke="midnightblue" d="M490.85,-181.19C428.8,-174.52 338.46,-162.46 261.38,-143 258.4,-142.25 255.33,-141.35 252.28,-140.39"/>
<polygon fill="midnightblue" stroke="midnightblue" points="253.32,-137.05 242.73,-137.13 251.06,-143.67 253.32,-137.05"/>
</g>
<!-- Node6 -->
<g id="node6" class="node">
<title>Node6</title>
<g id="a_node6"><a xlink:title=" ">
<polygon fill="white" stroke="#bfbfbf" points="270.38,-112.5 270.38,-142.5 404.38,-142.5 404.38,-112.5 270.38,-112.5"/>
<text text-anchor="start" x="278.38" y="-130.5" font-family="Helvetica,sans-Serif" font-size="10.00">asm/dolphin/os/OSMemory</text>
<text text-anchor="middle" x="337.38" y="-119.5" font-family="Helvetica,sans-Serif" font-size="10.00">/OnReset.s</text>
</a>
</g>
</g>
<!-- Node1&#45;&gt;Node6 -->
<g id="edge7" class="edge">
<title>Node1&#45;&gt;Node6</title>
<path fill="none" stroke="midnightblue" d="M532.72,-179.48C498.45,-170.53 443.71,-156.25 400.89,-145.07"/>
<polygon fill="midnightblue" stroke="midnightblue" points="401.68,-141.66 391.12,-142.52 399.91,-148.43 401.68,-141.66"/>
</g>
<!-- Node7 -->
<g id="node7" class="node">
<title>Node7</title>
<g id="a_node7"><a xlink:title=" ">
<polygon fill="white" stroke="#bfbfbf" points="422.38,-112.5 422.38,-142.5 556.38,-142.5 556.38,-112.5 422.38,-112.5"/>
<text text-anchor="start" x="430.38" y="-130.5" font-family="Helvetica,sans-Serif" font-size="10.00">asm/dolphin/os/OSMemory</text>
<text text-anchor="middle" x="489.38" y="-119.5" font-family="Helvetica,sans-Serif" font-size="10.00">/MEMIntrruptHandler.s</text>
</a>
</g>
</g>
<!-- Node1&#45;&gt;Node7 -->
<g id="edge8" class="edge">
<title>Node1&#45;&gt;Node7</title>
<path fill="none" stroke="midnightblue" d="M554.5,-179.48C544.3,-171.49 528.67,-159.25 515.28,-148.77"/>
<polygon fill="midnightblue" stroke="midnightblue" points="517.33,-145.93 507.3,-142.52 513.01,-151.44 517.33,-145.93"/>
</g>
<!-- Node8 -->
<g id="node8" class="node">
<title>Node8</title>
<g id="a_node8"><a xlink:title=" ">
<polygon fill="white" stroke="#bfbfbf" points="574.38,-112.5 574.38,-142.5 708.38,-142.5 708.38,-112.5 574.38,-112.5"/>
<text text-anchor="start" x="582.38" y="-130.5" font-family="Helvetica,sans-Serif" font-size="10.00">asm/dolphin/os/OSMemory</text>
<text text-anchor="middle" x="641.38" y="-119.5" font-family="Helvetica,sans-Serif" font-size="10.00">/OSProtectRange.s</text>
</a>
</g>
</g>
<!-- Node1&#45;&gt;Node8 -->
<g id="edge9" class="edge">
<title>Node1&#45;&gt;Node8</title>
<path fill="none" stroke="midnightblue" d="M576.27,-179.48C586.47,-171.49 602.1,-159.25 615.49,-148.77"/>
<polygon fill="midnightblue" stroke="midnightblue" points="617.76,-151.44 623.47,-142.52 613.44,-145.93 617.76,-151.44"/>
</g>
<!-- Node9 -->
<g id="node9" class="node">
<title>Node9</title>
<g id="a_node9"><a xlink:title=" ">
<polygon fill="white" stroke="#bfbfbf" points="726.38,-112.5 726.38,-142.5 860.38,-142.5 860.38,-112.5 726.38,-112.5"/>
<text text-anchor="start" x="734.38" y="-130.5" font-family="Helvetica,sans-Serif" font-size="10.00">asm/dolphin/os/OSMemory</text>
<text text-anchor="middle" x="793.38" y="-119.5" font-family="Helvetica,sans-Serif" font-size="10.00">/Config24MB.s</text>
</a>
</g>
</g>
<!-- Node1&#45;&gt;Node9 -->
<g id="edge10" class="edge">
<title>Node1&#45;&gt;Node9</title>
<path fill="none" stroke="midnightblue" d="M598.05,-179.48C632.32,-170.53 687.05,-156.25 729.87,-145.07"/>
<polygon fill="midnightblue" stroke="midnightblue" points="730.86,-148.43 739.65,-142.52 729.09,-141.66 730.86,-148.43"/>
</g>
<!-- Node10 -->
<g id="node10" class="node">
<title>Node10</title>
<g id="a_node10"><a xlink:title=" ">
<polygon fill="white" stroke="#bfbfbf" points="878.38,-112.5 878.38,-142.5 1012.38,-142.5 1012.38,-112.5 878.38,-112.5"/>
<text text-anchor="start" x="886.38" y="-130.5" font-family="Helvetica,sans-Serif" font-size="10.00">asm/dolphin/os/OSMemory</text>
<text text-anchor="middle" x="945.38" y="-119.5" font-family="Helvetica,sans-Serif" font-size="10.00">/Config48MB.s</text>
</a>
</g>
</g>
<!-- Node1&#45;&gt;Node10 -->
<g id="edge11" class="edge">
<title>Node1&#45;&gt;Node10</title>
<path fill="none" stroke="midnightblue" d="M628.09,-179.49C687.42,-171.27 779.21,-158.09 868.27,-143.15"/>
<polygon fill="midnightblue" stroke="midnightblue" points="869,-146.58 878.27,-141.46 867.83,-139.67 869,-146.58"/>
</g>
<!-- Node11 -->
<g id="node11" class="node">
<title>Node11</title>
<g id="a_node11"><a xlink:title=" ">
<polygon fill="white" stroke="#bfbfbf" points="1030.38,-112.5 1030.38,-142.5 1164.38,-142.5 1164.38,-112.5 1030.38,-112.5"/>
<text text-anchor="start" x="1038.38" y="-130.5" font-family="Helvetica,sans-Serif" font-size="10.00">asm/dolphin/os/OSMemory</text>
<text text-anchor="middle" x="1097.38" y="-119.5" font-family="Helvetica,sans-Serif" font-size="10.00">/RealMode.s</text>
</a>
</g>
</g>
<!-- Node1&#45;&gt;Node11 -->
<g id="edge12" class="edge">
<title>Node1&#45;&gt;Node11</title>
<path fill="none" stroke="midnightblue" d="M640.28,-182.69C728.71,-175.96 880.41,-162.93 1020.26,-143.08"/>
<polygon fill="midnightblue" stroke="midnightblue" points="1020.9,-146.52 1030.3,-141.64 1019.91,-139.59 1020.9,-146.52"/>
</g>
<!-- Node12 -->
<g id="node12" class="node">
<title>Node12</title>
<g id="a_node12"><a xlink:title=" ">
<polygon fill="white" stroke="#bfbfbf" points="1182.38,-112.5 1182.38,-142.5 1326.38,-142.5 1326.38,-112.5 1182.38,-112.5"/>
<text text-anchor="start" x="1190.38" y="-130.5" font-family="Helvetica,sans-Serif" font-size="10.00">asm/dolphin/os/OSMemory</text>
<text text-anchor="middle" x="1254.38" y="-119.5" font-family="Helvetica,sans-Serif" font-size="10.00">/__OSInitMemoryProtection.s</text>
</a>
</g>
</g>
<!-- Node1&#45;&gt;Node12 -->
<g id="edge13" class="edge">
<title>Node1&#45;&gt;Node12</title>
<path fill="none" stroke="midnightblue" d="M640.04,-184.96C753.06,-179.81 974.49,-167.56 1172.03,-143.09"/>
<polygon fill="midnightblue" stroke="midnightblue" points="1172.53,-146.55 1182.02,-141.84 1171.66,-139.61 1172.53,-146.55"/>
</g>
<!-- Node2&#45;&gt;Node3 -->
<g id="edge2" class="edge">
<title>Node2&#45;&gt;Node3</title>
<path fill="none" stroke="midnightblue" d="M52.89,-117.95C27.38,-105.98 -11.16,-82.64 3.38,-56 11.2,-41.68 25.75,-31.24 39.56,-24.04"/>
<polygon fill="midnightblue" stroke="midnightblue" points="41.4,-27.03 48.91,-19.56 38.38,-20.72 41.4,-27.03"/>
</g>
<!-- Node4 -->
<g id="node4" class="node">
<title>Node4</title>
<g id="a_node4"><a xlink:href="OSInterrupt_8h.html" target="_top" xlink:title=" ">
<polygon fill="white" stroke="black" points="12.38,-56.5 12.38,-75.5 134.38,-75.5 134.38,-56.5 12.38,-56.5"/>
<text text-anchor="middle" x="73.38" y="-63.5" font-family="Helvetica,sans-Serif" font-size="10.00">dolphin/os/OSInterrupt.h</text>
</a>
</g>
</g>
<!-- Node2&#45;&gt;Node4 -->
<g id="edge3" class="edge">
<title>Node2&#45;&gt;Node4</title>
<path fill="none" stroke="midnightblue" d="M73.38,-117.98C73.38,-109.58 73.38,-96.48 73.38,-85.66"/>
<polygon fill="midnightblue" stroke="midnightblue" points="76.88,-85.51 73.38,-75.51 69.88,-85.51 76.88,-85.51"/>
</g>
<!-- Node4&#45;&gt;Node3 -->
<g id="edge4" class="edge">
<title>Node4&#45;&gt;Node3</title>
<path fill="none" stroke="midnightblue" d="M73.38,-56.08C73.38,-49.01 73.38,-38.86 73.38,-29.99"/>
<polygon fill="midnightblue" stroke="midnightblue" points="76.88,-29.75 73.38,-19.75 69.88,-29.75 76.88,-29.75"/>
</g>
</g>
</svg>
