<?xml version="1.0" encoding="UTF-8" standalone="no"?>
<!DOCTYPE svg PUBLIC "-//W3C//DTD SVG 1.1//EN"
 "http://www.w3.org/Graphics/SVG/1.1/DTD/svg11.dtd">
<!-- Generated by graphviz version 3.0.0 (20221109.1736)
 -->
<!-- Title: libs/dolphin/os/OSMessage.c Pages: 1 -->
<svg width="884pt" height="263pt"
 viewBox="0.00 0.00 883.50 263.00" xmlns="http://www.w3.org/2000/svg" xmlns:xlink="http://www.w3.org/1999/xlink">
<g id="graph0" class="graph" transform="scale(1 1) rotate(0) translate(4 259)">
<title>libs/dolphin/os/OSMessage.c</title>
<polygon fill="white" stroke="transparent" points="-4,4 -4,-259 879.5,-259 879.5,4 -4,4"/>
<!-- Node1 -->
<g id="node1" class="node">
<title>Node1</title>
<g id="a_node1"><a xlink:title=" ">
<polygon fill="#bfbfbf" stroke="black" points="260,-235.5 260,-254.5 403,-254.5 403,-235.5 260,-235.5"/>
<text text-anchor="middle" x="331.5" y="-242.5" font-family="Helvetica,sans-Serif" font-size="10.00">libs/dolphin/os/OSMessage.c</text>
</a>
</g>
</g>
<!-- Node2 -->
<g id="node2" class="node">
<title>Node2</title>
<g id="a_node2"><a xlink:href="OSMessage_8h.html" target="_top" xlink:title=" ">
<polygon fill="white" stroke="black" points="0,-174 0,-193 125,-193 125,-174 0,-174"/>
<text text-anchor="middle" x="62.5" y="-181" font-family="Helvetica,sans-Serif" font-size="10.00">dolphin/os/OSMessage.h</text>
</a>
</g>
</g>
<!-- Node1&#45;&gt;Node2 -->
<g id="edge1" class="edge">
<title>Node1&#45;&gt;Node2</title>
<path fill="none" stroke="midnightblue" d="M292.96,-235.48C245.02,-224.87 163.14,-206.76 110.99,-195.22"/>
<polygon fill="midnightblue" stroke="midnightblue" points="111.49,-191.75 100.97,-193.01 109.98,-198.59 111.49,-191.75"/>
</g>
<!-- Node5 -->
<g id="node5" class="node">
<title>Node5</title>
<g id="a_node5"><a xlink:href="types_8h.html" target="_top" xlink:title=" ">
<polygon fill="white" stroke="black" points="68,-0.5 68,-19.5 149,-19.5 149,-0.5 68,-0.5"/>
<text text-anchor="middle" x="108.5" y="-7.5" font-family="Helvetica,sans-Serif" font-size="10.00">dolphin/types.h</text>
</a>
</g>
</g>
<!-- Node1&#45;&gt;Node5 -->
<g id="edge6" class="edge">
<title>Node1&#45;&gt;Node5</title>
<path fill="none" stroke="midnightblue" d="M259.63,-238.8C229.47,-233.1 196.21,-221.67 173.5,-199 126.71,-152.29 157.31,-117.29 132.5,-56 128.72,-46.66 123.56,-36.74 119,-28.59"/>
<polygon fill="midnightblue" stroke="midnightblue" points="121.89,-26.6 113.85,-19.7 115.83,-30.11 121.89,-26.6"/>
</g>
<!-- Node6 -->
<g id="node6" class="node">
<title>Node6</title>
<g id="a_node6"><a xlink:href="dol2asm_8h.html" target="_top" xlink:title=" ">
<polygon fill="white" stroke="black" points="182,-174 182,-193 243,-193 243,-174 182,-174"/>
<text text-anchor="middle" x="212.5" y="-181" font-family="Helvetica,sans-Serif" font-size="10.00">dol2asm.h</text>
</a>
</g>
</g>
<!-- Node1&#45;&gt;Node6 -->
<g id="edge5" class="edge">
<title>Node1&#45;&gt;Node6</title>
<path fill="none" stroke="midnightblue" d="M314.45,-235.48C294.66,-225.58 261.78,-209.14 238.73,-197.62"/>
<polygon fill="midnightblue" stroke="midnightblue" points="240.03,-194.35 229.52,-193.01 236.9,-200.61 240.03,-194.35"/>
</g>
<!-- Node7 -->
<g id="node7" class="node">
<title>Node7</title>
<g id="a_node7"><a xlink:title=" ">
<polygon fill="white" stroke="#bfbfbf" points="261.5,-168.5 261.5,-198.5 401.5,-198.5 401.5,-168.5 261.5,-168.5"/>
<text text-anchor="start" x="269.5" y="-186.5" font-family="Helvetica,sans-Serif" font-size="10.00">asm/dolphin/os/OSMessage</text>
<text text-anchor="middle" x="331.5" y="-175.5" font-family="Helvetica,sans-Serif" font-size="10.00">/OSInitMessageQueue.s</text>
</a>
</g>
</g>
<!-- Node1&#45;&gt;Node7 -->
<g id="edge7" class="edge">
<title>Node1&#45;&gt;Node7</title>
<path fill="none" stroke="midnightblue" d="M331.5,-235.48C331.5,-228.47 331.5,-218.19 331.5,-208.7"/>
<polygon fill="midnightblue" stroke="midnightblue" points="335,-208.52 331.5,-198.52 328,-208.52 335,-208.52"/>
</g>
<!-- Node8 -->
<g id="node8" class="node">
<title>Node8</title>
<g id="a_node8"><a xlink:title=" ">
<polygon fill="white" stroke="#bfbfbf" points="419.5,-168.5 419.5,-198.5 559.5,-198.5 559.5,-168.5 419.5,-168.5"/>
<text text-anchor="start" x="427.5" y="-186.5" font-family="Helvetica,sans-Serif" font-size="10.00">asm/dolphin/os/OSMessage</text>
<text text-anchor="middle" x="489.5" y="-175.5" font-family="Helvetica,sans-Serif" font-size="10.00">/OSSendMessage.s</text>
</a>
</g>
</g>
<!-- Node1&#45;&gt;Node8 -->
<g id="edge8" class="edge">
<title>Node1&#45;&gt;Node8</title>
<path fill="none" stroke="midnightblue" d="M354.14,-235.48C377.14,-226.81 413.43,-213.15 442.65,-202.14"/>
<polygon fill="midnightblue" stroke="midnightblue" points="444.14,-205.32 452.26,-198.52 441.67,-198.77 444.14,-205.32"/>
</g>
<!-- Node9 -->
<g id="node9" class="node">
<title>Node9</title>
<g id="a_node9"><a xlink:title=" ">
<polygon fill="white" stroke="#bfbfbf" points="577.5,-168.5 577.5,-198.5 717.5,-198.5 717.5,-168.5 577.5,-168.5"/>
<text text-anchor="start" x="585.5" y="-186.5" font-family="Helvetica,sans-Serif" font-size="10.00">asm/dolphin/os/OSMessage</text>
<text text-anchor="middle" x="647.5" y="-175.5" font-family="Helvetica,sans-Serif" font-size="10.00">/OSReceiveMessage.s</text>
</a>
</g>
</g>
<!-- Node1&#45;&gt;Node9 -->
<g id="edge9" class="edge">
<title>Node1&#45;&gt;Node9</title>
<path fill="none" stroke="midnightblue" d="M376.78,-235.48C426.4,-226.13 506.99,-210.96 567.36,-199.59"/>
<polygon fill="midnightblue" stroke="midnightblue" points="568.07,-203.02 577.25,-197.73 566.77,-196.14 568.07,-203.02"/>
</g>
<!-- Node10 -->
<g id="node10" class="node">
<title>Node10</title>
<g id="a_node10"><a xlink:title=" ">
<polygon fill="white" stroke="#bfbfbf" points="735.5,-168.5 735.5,-198.5 875.5,-198.5 875.5,-168.5 735.5,-168.5"/>
<text text-anchor="start" x="743.5" y="-186.5" font-family="Helvetica,sans-Serif" font-size="10.00">asm/dolphin/os/OSMessage</text>
<text text-anchor="middle" x="805.5" y="-175.5" font-family="Helvetica,sans-Serif" font-size="10.00">/OSJamMessage.s</text>
</a>
</g>
</g>
<!-- Node1&#45;&gt;Node10 -->
<g id="edge10" class="edge">
<title>Node1&#45;&gt;Node10</title>
<path fill="none" stroke="midnightblue" d="M403.05,-237.33C480.16,-229.8 606.7,-216.49 725.34,-199.11"/>
<polygon fill="midnightblue" stroke="midnightblue" points="725.95,-202.56 735.33,-197.64 724.93,-195.63 725.95,-202.56"/>
</g>
<!-- Node3 -->
<g id="node3" class="node">
<title>Node3</title>
<g id="a_node3"><a xlink:href="OSThread_8h.html" target="_top" xlink:title=" ">
<polygon fill="white" stroke="black" points="5.5,-112.5 5.5,-131.5 121.5,-131.5 121.5,-112.5 5.5,-112.5"/>
<text text-anchor="middle" x="63.5" y="-119.5" font-family="Helvetica,sans-Serif" font-size="10.00">dolphin/os/OSThread.h</text>
</a>
</g>
</g>
<!-- Node2&#45;&gt;Node3 -->
<g id="edge2" class="edge">
<title>Node2&#45;&gt;Node3</title>
<path fill="none" stroke="midnightblue" d="M62.64,-173.98C62.78,-165.58 63,-152.48 63.19,-141.66"/>
<polygon fill="midnightblue" stroke="midnightblue" points="66.69,-141.57 63.36,-131.51 59.69,-141.45 66.69,-141.57"/>
</g>
<!-- Node4 -->
<g id="node4" class="node">
<title>Node4</title>
<g id="a_node4"><a xlink:href="OSContext_8h.html" target="_top" xlink:title=" ">
<polygon fill="white" stroke="black" points="5,-56.5 5,-75.5 124,-75.5 124,-56.5 5,-56.5"/>
<text text-anchor="middle" x="64.5" y="-63.5" font-family="Helvetica,sans-Serif" font-size="10.00">dolphin/os/OSContext.h</text>
</a>
</g>
</g>
<!-- Node3&#45;&gt;Node4 -->
<g id="edge3" class="edge">
<title>Node3&#45;&gt;Node4</title>
<path fill="none" stroke="midnightblue" d="M63.67,-112.08C63.8,-105.01 63.98,-94.86 64.15,-85.99"/>
<polygon fill="midnightblue" stroke="midnightblue" points="67.65,-85.81 64.34,-75.75 60.65,-85.68 67.65,-85.81"/>
</g>
<!-- Node4&#45;&gt;Node5 -->
<g id="edge4" class="edge">
<title>Node4&#45;&gt;Node5</title>
<path fill="none" stroke="midnightblue" d="M71.77,-56.08C78.04,-48.38 87.29,-37.03 94.93,-27.65"/>
<polygon fill="midnightblue" stroke="midnightblue" points="97.77,-29.71 101.37,-19.75 92.34,-25.29 97.77,-29.71"/>
</g>
</g>
</svg>
