<?xml version="1.0" encoding="UTF-8" standalone="no"?>
<!DOCTYPE svg PUBLIC "-//W3C//DTD SVG 1.1//EN"
 "http://www.w3.org/Graphics/SVG/1.1/DTD/svg11.dtd">
<!-- Generated by graphviz version 3.0.0 (20221109.1736)
 -->
<!-- Title: libs/dolphin/os/OSMutex.c Pages: 1 -->
<!--zoomable 263 -->
<svg id="main" version="1.1" xmlns="http://www.w3.org/2000/svg" xmlns:xlink="http://www.w3.org/1999/xlink" xml:space="preserve" onload="init(evt)">
<style type="text/css"><![CDATA[
.edge:hover path { stroke: red; }
.edge:hover polygon { stroke: red; fill: red; }
]]></style>
<script type="text/javascript"><![CDATA[
var edges = document.getElementsByTagName('g');
if (edges && edges.length) {
  for (var i=0;i<edges.length;i++) {
    if (edges[i].id.substr(0,4)=='edge') {
      edges[i].setAttribute('class','edge');
    }
  }
}
]]></script>
        <defs>
                <circle id="rim" cx="0" cy="0" r="7"/>
                <circle id="rim2" cx="0" cy="0" r="3.5"/>
                <g id="zoomPlus">
                        <use xlink:href="#rim" fill="#404040">
                                <set attributeName="fill" to="#808080" begin="zoomplus.mouseover" end="zoomplus.mouseout"/>
                        </use>
                        <path d="M-4,0h8M0,-4v8" fill="none" stroke="white" stroke-width="1.5" pointer-events="none"/>
                </g>
                <g id="zoomMin">
                        <use xlink:href="#rim" fill="#404040">
                                <set attributeName="fill" to="#808080" begin="zoomminus.mouseover" end="zoomminus.mouseout"/>
                        </use>
                        <path d="M-4,0h8" fill="none" stroke="white" stroke-width="1.5" pointer-events="none"/>
                </g>
                <g id="dirArrow">
                        <path fill="none" stroke="white" stroke-width="1.5" d="M0,-3.0v7 M-2.5,-0.5L0,-3.0L2.5,-0.5"/>
                </g>
               <g id="resetDef">
                       <use xlink:href="#rim2" fill="#404040">
                               <set attributeName="fill" to="#808080" begin="reset.mouseover" end="reset.mouseout"/>
                       </use>
               </g>
        </defs>

<script type="text/javascript">
var viewWidth = 1830;
var viewHeight = 263;
var sectionId = 'dynsection-0';
</script>
<script xlink:href="svgpan.js"/>
<svg id="graph" class="graph">
<g id="viewport">
<title>libs/dolphin/os/OSMutex.c</title>
<polygon fill="white" stroke="transparent" points="-4,4 -4,-259 1825.5,-259 1825.5,4 -4,4"/>
<!-- Node1 -->
<g id="node1" class="node">
<title>Node1</title>
<g id="a_node1"><a xlink:title=" ">
<polygon fill="#bfbfbf" stroke="black" points="757.5,-235.5 757.5,-254.5 887.5,-254.5 887.5,-235.5 757.5,-235.5"/>
<text text-anchor="middle" x="822.5" y="-242.5" font-family="Helvetica,sans-Serif" font-size="10.00">libs/dolphin/os/OSMutex.c</text>
</a>
</g>
</g>
<!-- Node2 -->
<g id="node2" class="node">
<title>Node2</title>
<g id="a_node2"><a xlink:href="OSMutex_8h.html" target="_top" xlink:title=" ">
<polygon fill="white" stroke="black" points="6.5,-174 6.5,-193 118.5,-193 118.5,-174 6.5,-174"/>
<text text-anchor="middle" x="62.5" y="-181" font-family="Helvetica,sans-Serif" font-size="10.00">dolphin/os/OSMutex.h</text>
</a>
</g>
</g>
<!-- Node1&#45;&gt;Node2 -->
<g id="edge1" class="edge">
<title>Node1&#45;&gt;Node2</title>
<path fill="none" stroke="midnightblue" d="M757.14,-242.69C634.41,-239.59 361.32,-229.56 133.5,-199 125.7,-197.95 117.47,-196.55 109.48,-195.03"/>
<polygon fill="midnightblue" stroke="midnightblue" points="110.04,-191.58 99.55,-193.06 108.68,-198.44 110.04,-191.58"/>
</g>
<!-- Node5 -->
<g id="node5" class="node">
<title>Node5</title>
<g id="a_node5"><a xlink:href="types_8h.html" target="_top" xlink:title=" ">
<polygon fill="white" stroke="black" points="63,-0.5 63,-19.5 144,-19.5 144,-0.5 63,-0.5"/>
<text text-anchor="middle" x="103.5" y="-7.5" font-family="Helvetica,sans-Serif" font-size="10.00">dolphin/types.h</text>
</a>
</g>
</g>
<!-- Node1&#45;&gt;Node5 -->
<g id="edge6" class="edge">
<title>Node1&#45;&gt;Node5</title>
<path fill="none" stroke="midnightblue" d="M757.41,-243.72C600.79,-242.47 212.52,-235.66 167.5,-199 116.32,-157.33 152.06,-117.25 127.5,-56 123.75,-46.65 118.6,-36.73 114.02,-28.58"/>
<polygon fill="midnightblue" stroke="midnightblue" points="116.91,-26.59 108.87,-19.69 110.86,-30.1 116.91,-26.59"/>
</g>
<!-- Node6 -->
<g id="node6" class="node">
<title>Node6</title>
<g id="a_node6"><a xlink:href="dol2asm_8h.html" target="_top" xlink:title=" ">
<polygon fill="white" stroke="black" points="176,-174 176,-193 237,-193 237,-174 176,-174"/>
<text text-anchor="middle" x="206.5" y="-181" font-family="Helvetica,sans-Serif" font-size="10.00">dol2asm.h</text>
</a>
</g>
</g>
<!-- Node1&#45;&gt;Node6 -->
<g id="edge5" class="edge">
<title>Node1&#45;&gt;Node6</title>
<path fill="none" stroke="midnightblue" d="M757.32,-244.59C649.7,-244.29 428.61,-238.36 246.5,-199 243.25,-198.3 239.91,-197.39 236.61,-196.38"/>
<polygon fill="midnightblue" stroke="midnightblue" points="237.54,-193 226.95,-193.11 235.3,-199.63 237.54,-193"/>
</g>
<!-- Node7 -->
<g id="node7" class="node">
<title>Node7</title>
<g id="a_node7"><a xlink:title=" ">
<polygon fill="white" stroke="#bfbfbf" points="255.5,-168.5 255.5,-198.5 381.5,-198.5 381.5,-168.5 255.5,-168.5"/>
<text text-anchor="start" x="263.5" y="-186.5" font-family="Helvetica,sans-Serif" font-size="10.00">asm/dolphin/os/OSMutex</text>
<text text-anchor="middle" x="318.5" y="-175.5" font-family="Helvetica,sans-Serif" font-size="10.00">/OSInitMutex.s</text>
</a>
</g>
</g>
<!-- Node1&#45;&gt;Node7 -->
<g id="edge7" class="edge">
<title>Node1&#45;&gt;Node7</title>
<path fill="none" stroke="midnightblue" d="M757.48,-239.16C674.8,-232.58 527.44,-219.41 391.81,-199.11"/>
<polygon fill="midnightblue" stroke="midnightblue" points="392.07,-195.61 381.66,-197.57 391.02,-202.53 392.07,-195.61"/>
</g>
<!-- Node8 -->
<g id="node8" class="node">
<title>Node8</title>
<g id="a_node8"><a xlink:title=" ">
<polygon fill="white" stroke="#bfbfbf" points="399.5,-168.5 399.5,-198.5 525.5,-198.5 525.5,-168.5 399.5,-168.5"/>
<text text-anchor="start" x="407.5" y="-186.5" font-family="Helvetica,sans-Serif" font-size="10.00">asm/dolphin/os/OSMutex</text>
<text text-anchor="middle" x="462.5" y="-175.5" font-family="Helvetica,sans-Serif" font-size="10.00">/OSLockMutex.s</text>
</a>
</g>
</g>
<!-- Node1&#45;&gt;Node8 -->
<g id="edge8" class="edge">
<title>Node1&#45;&gt;Node8</title>
<path fill="none" stroke="midnightblue" d="M763.08,-235.49C706.98,-227.28 620.25,-214.14 535.72,-199.17"/>
<polygon fill="midnightblue" stroke="midnightblue" points="536.15,-195.7 525.69,-197.39 534.92,-202.59 536.15,-195.7"/>
</g>
<!-- Node9 -->
<g id="node9" class="node">
<title>Node9</title>
<g id="a_node9"><a xlink:title=" ">
<polygon fill="white" stroke="#bfbfbf" points="543.5,-168.5 543.5,-198.5 669.5,-198.5 669.5,-168.5 543.5,-168.5"/>
<text text-anchor="start" x="551.5" y="-186.5" font-family="Helvetica,sans-Serif" font-size="10.00">asm/dolphin/os/OSMutex</text>
<text text-anchor="middle" x="606.5" y="-175.5" font-family="Helvetica,sans-Serif" font-size="10.00">/OSUnlockMutex.s</text>
</a>
</g>
</g>
<!-- Node1&#45;&gt;Node9 -->
<g id="edge9" class="edge">
<title>Node1&#45;&gt;Node9</title>
<path fill="none" stroke="midnightblue" d="M791.55,-235.48C759.22,-226.57 707.67,-212.37 667.18,-201.22"/>
<polygon fill="midnightblue" stroke="midnightblue" points="667.98,-197.8 657.41,-198.52 666.12,-204.55 667.98,-197.8"/>
</g>
<!-- Node10 -->
<g id="node10" class="node">
<title>Node10</title>
<g id="a_node10"><a xlink:title=" ">
<polygon fill="white" stroke="#bfbfbf" points="687.5,-168.5 687.5,-198.5 813.5,-198.5 813.5,-168.5 687.5,-168.5"/>
<text text-anchor="start" x="695.5" y="-186.5" font-family="Helvetica,sans-Serif" font-size="10.00">asm/dolphin/os/OSMutex</text>
<text text-anchor="middle" x="750.5" y="-175.5" font-family="Helvetica,sans-Serif" font-size="10.00">/__OSUnlockAllMutex.s</text>
</a>
</g>
</g>
<!-- Node1&#45;&gt;Node10 -->
<g id="edge10" class="edge">
<title>Node1&#45;&gt;Node10</title>
<path fill="none" stroke="midnightblue" d="M812.18,-235.48C802.62,-227.57 787.99,-215.48 775.39,-205.07"/>
<polygon fill="midnightblue" stroke="midnightblue" points="777.41,-202.2 767.47,-198.52 772.95,-207.59 777.41,-202.2"/>
</g>
<!-- Node11 -->
<g id="node11" class="node">
<title>Node11</title>
<g id="a_node11"><a xlink:title=" ">
<polygon fill="white" stroke="#bfbfbf" points="831.5,-168.5 831.5,-198.5 957.5,-198.5 957.5,-168.5 831.5,-168.5"/>
<text text-anchor="start" x="839.5" y="-186.5" font-family="Helvetica,sans-Serif" font-size="10.00">asm/dolphin/os/OSMutex</text>
<text text-anchor="middle" x="894.5" y="-175.5" font-family="Helvetica,sans-Serif" font-size="10.00">/OSTryLockMutex.s</text>
</a>
</g>
</g>
<!-- Node1&#45;&gt;Node11 -->
<g id="edge11" class="edge">
<title>Node1&#45;&gt;Node11</title>
<path fill="none" stroke="midnightblue" d="M832.82,-235.48C842.38,-227.57 857.01,-215.48 869.61,-205.07"/>
<polygon fill="midnightblue" stroke="midnightblue" points="872.05,-207.59 877.53,-198.52 867.59,-202.2 872.05,-207.59"/>
</g>
<!-- Node12 -->
<g id="node12" class="node">
<title>Node12</title>
<g id="a_node12"><a xlink:title=" ">
<polygon fill="white" stroke="#bfbfbf" points="975.5,-168.5 975.5,-198.5 1101.5,-198.5 1101.5,-168.5 975.5,-168.5"/>
<text text-anchor="start" x="983.5" y="-186.5" font-family="Helvetica,sans-Serif" font-size="10.00">asm/dolphin/os/OSMutex</text>
<text text-anchor="middle" x="1038.5" y="-175.5" font-family="Helvetica,sans-Serif" font-size="10.00">/OSInitCond.s</text>
</a>
</g>
</g>
<!-- Node1&#45;&gt;Node12 -->
<g id="edge12" class="edge">
<title>Node1&#45;&gt;Node12</title>
<path fill="none" stroke="midnightblue" d="M853.45,-235.48C885.78,-226.57 937.33,-212.37 977.82,-201.22"/>
<polygon fill="midnightblue" stroke="midnightblue" points="978.88,-204.55 987.59,-198.52 977.02,-197.8 978.88,-204.55"/>
</g>
<!-- Node13 -->
<g id="node13" class="node">
<title>Node13</title>
<g id="a_node13"><a xlink:title=" ">
<polygon fill="white" stroke="#bfbfbf" points="1119.5,-168.5 1119.5,-198.5 1245.5,-198.5 1245.5,-168.5 1119.5,-168.5"/>
<text text-anchor="start" x="1127.5" y="-186.5" font-family="Helvetica,sans-Serif" font-size="10.00">asm/dolphin/os/OSMutex</text>
<text text-anchor="middle" x="1182.5" y="-175.5" font-family="Helvetica,sans-Serif" font-size="10.00">/OSWaitCond.s</text>
</a>
</g>
</g>
<!-- Node1&#45;&gt;Node13 -->
<g id="edge13" class="edge">
<title>Node1&#45;&gt;Node13</title>
<path fill="none" stroke="midnightblue" d="M881.92,-235.49C938.02,-227.28 1024.75,-214.14 1109.28,-199.17"/>
<polygon fill="midnightblue" stroke="midnightblue" points="1110.08,-202.59 1119.31,-197.39 1108.85,-195.7 1110.08,-202.59"/>
</g>
<!-- Node14 -->
<g id="node14" class="node">
<title>Node14</title>
<g id="a_node14"><a xlink:title=" ">
<polygon fill="white" stroke="#bfbfbf" points="1263.5,-168.5 1263.5,-198.5 1389.5,-198.5 1389.5,-168.5 1263.5,-168.5"/>
<text text-anchor="start" x="1271.5" y="-186.5" font-family="Helvetica,sans-Serif" font-size="10.00">asm/dolphin/os/OSMutex</text>
<text text-anchor="middle" x="1326.5" y="-175.5" font-family="Helvetica,sans-Serif" font-size="10.00">/OSSignalCond.s</text>
</a>
</g>
</g>
<!-- Node1&#45;&gt;Node14 -->
<g id="edge14" class="edge">
<title>Node1&#45;&gt;Node14</title>
<path fill="none" stroke="midnightblue" d="M887.52,-239.16C970.2,-232.58 1117.56,-219.41 1253.19,-199.11"/>
<polygon fill="midnightblue" stroke="midnightblue" points="1253.98,-202.53 1263.34,-197.57 1252.93,-195.61 1253.98,-202.53"/>
</g>
<!-- Node15 -->
<g id="node15" class="node">
<title>Node15</title>
<g id="a_node15"><a xlink:title=" ">
<polygon fill="white" stroke="#bfbfbf" points="1407.5,-168.5 1407.5,-198.5 1533.5,-198.5 1533.5,-168.5 1407.5,-168.5"/>
<text text-anchor="start" x="1415.5" y="-186.5" font-family="Helvetica,sans-Serif" font-size="10.00">asm/dolphin/os/OSMutex</text>
<text text-anchor="middle" x="1470.5" y="-175.5" font-family="Helvetica,sans-Serif" font-size="10.00">/__OSCheckMutex.s</text>
</a>
</g>
</g>
<!-- Node1&#45;&gt;Node15 -->
<g id="edge15" class="edge">
<title>Node1&#45;&gt;Node15</title>
<path fill="none" stroke="midnightblue" d="M887.56,-241.48C992.74,-236.84 1206.74,-225.07 1397.43,-199.04"/>
<polygon fill="midnightblue" stroke="midnightblue" points="1397.93,-202.5 1407.36,-197.66 1396.97,-195.57 1397.93,-202.5"/>
</g>
<!-- Node16 -->
<g id="node16" class="node">
<title>Node16</title>
<g id="a_node16"><a xlink:title=" ">
<polygon fill="white" stroke="#bfbfbf" points="1551.5,-168.5 1551.5,-198.5 1677.5,-198.5 1677.5,-168.5 1551.5,-168.5"/>
<text text-anchor="start" x="1559.5" y="-186.5" font-family="Helvetica,sans-Serif" font-size="10.00">asm/dolphin/os/OSMutex</text>
<text text-anchor="middle" x="1614.5" y="-175.5" font-family="Helvetica,sans-Serif" font-size="10.00">/__OSCheckDeadLock.s</text>
</a>
</g>
</g>
<!-- Node1&#45;&gt;Node16 -->
<g id="edge16" class="edge">
<title>Node1&#45;&gt;Node16</title>
<path fill="none" stroke="midnightblue" d="M887.82,-242.89C1012.83,-240.13 1294.68,-230.77 1541.14,-199.05"/>
<polygon fill="midnightblue" stroke="midnightblue" points="1541.9,-202.48 1551.37,-197.72 1541,-195.54 1541.9,-202.48"/>
</g>
<!-- Node17 -->
<g id="node17" class="node">
<title>Node17</title>
<g id="a_node17"><a xlink:title=" ">
<polygon fill="white" stroke="#bfbfbf" points="1695.5,-168.5 1695.5,-198.5 1821.5,-198.5 1821.5,-168.5 1695.5,-168.5"/>
<text text-anchor="start" x="1703.5" y="-186.5" font-family="Helvetica,sans-Serif" font-size="10.00">asm/dolphin/os/OSMutex</text>
<text text-anchor="middle" x="1758.5" y="-175.5" font-family="Helvetica,sans-Serif" font-size="10.00">/__OSCheckMutexes.s</text>
</a>
</g>
</g>
<!-- Node1&#45;&gt;Node17 -->
<g id="edge17" class="edge">
<title>Node1&#45;&gt;Node17</title>
<path fill="none" stroke="midnightblue" d="M887.55,-243.86C1030.28,-242.86 1381.74,-236.55 1685.05,-199.05"/>
<polygon fill="midnightblue" stroke="midnightblue" points="1685.88,-202.47 1695.37,-197.76 1685.01,-195.53 1685.88,-202.47"/>
</g>
<!-- Node3 -->
<g id="node3" class="node">
<title>Node3</title>
<g id="a_node3"><a xlink:href="OSThread_8h.html" target="_top" xlink:title=" ">
<polygon fill="white" stroke="black" points="2.5,-112.5 2.5,-131.5 118.5,-131.5 118.5,-112.5 2.5,-112.5"/>
<text text-anchor="middle" x="60.5" y="-119.5" font-family="Helvetica,sans-Serif" font-size="10.00">dolphin/os/OSThread.h</text>
</a>
</g>
</g>
<!-- Node2&#45;&gt;Node3 -->
<g id="edge2" class="edge">
<title>Node2&#45;&gt;Node3</title>
<path fill="none" stroke="midnightblue" d="M62.21,-173.98C61.93,-165.58 61.49,-152.48 61.13,-141.66"/>
<polygon fill="midnightblue" stroke="midnightblue" points="64.62,-141.39 60.79,-131.51 57.62,-141.62 64.62,-141.39"/>
</g>
<!-- Node4 -->
<g id="node4" class="node">
<title>Node4</title>
<g id="a_node4"><a xlink:href="OSContext_8h.html" target="_top" xlink:title=" ">
<polygon fill="white" stroke="black" points="0,-56.5 0,-75.5 119,-75.5 119,-56.5 0,-56.5"/>
<text text-anchor="middle" x="59.5" y="-63.5" font-family="Helvetica,sans-Serif" font-size="10.00">dolphin/os/OSContext.h</text>
</a>
</g>
</g>
<!-- Node3&#45;&gt;Node4 -->
<g id="edge3" class="edge">
<title>Node3&#45;&gt;Node4</title>
<path fill="none" stroke="midnightblue" d="M60.33,-112.08C60.2,-105.01 60.02,-94.86 59.85,-85.99"/>
<polygon fill="midnightblue" stroke="midnightblue" points="63.35,-85.68 59.66,-75.75 56.35,-85.81 63.35,-85.68"/>
</g>
<!-- Node4&#45;&gt;Node5 -->
<g id="edge4" class="edge">
<title>Node4&#45;&gt;Node5</title>
<path fill="none" stroke="midnightblue" d="M66.77,-56.08C73.04,-48.38 82.29,-37.03 89.93,-27.65"/>
<polygon fill="midnightblue" stroke="midnightblue" points="92.77,-29.71 96.37,-19.75 87.34,-25.29 92.77,-29.71"/>
</g>
</g>
</svg>
        <g id="navigator" transform="translate(0 0)" fill="#404254">
                <rect fill="#f2f5e9" fill-opacity="0.5" stroke="#606060" stroke-width=".5" x="0" y="0" width="60" height="60"/>
                <use id="zoomplus" xlink:href="#zoomPlus" x="17" y="9" onmousedown="handleZoom(evt,'in')"/>
                <use id="zoomminus" xlink:href="#zoomMin" x="42" y="9" onmousedown="handleZoom(evt,'out')"/>
                <use id="reset" xlink:href="#resetDef" x="30" y="36" onmousedown="handleReset()"/>
                <g id="arrowUp" xlink:href="#dirArrow" transform="translate(30 24)" onmousedown="handlePan(0,-1)">
                  <use xlink:href="#rim" fill="#404040">
                        <set attributeName="fill" to="#808080" begin="arrowUp.mouseover" end="arrowUp.mouseout"/>
                  </use>
                  <path fill="none" stroke="white" stroke-width="1.5" d="M0,-3.0v7 M-2.5,-0.5L0,-3.0L2.5,-0.5"/>
                </g>
                <g id="arrowRight" xlink:href="#dirArrow" transform="rotate(90) translate(36 -43)" onmousedown="handlePan(1,0)">
                  <use xlink:href="#rim" fill="#404040">
                        <set attributeName="fill" to="#808080" begin="arrowRight.mouseover" end="arrowRight.mouseout"/>
                  </use>
                  <path fill="none" stroke="white" stroke-width="1.5" d="M0,-3.0v7 M-2.5,-0.5L0,-3.0L2.5,-0.5"/>
                </g>
                <g id="arrowDown" xlink:href="#dirArrow" transform="rotate(180) translate(-30 -48)" onmousedown="handlePan(0,1)">
                  <use xlink:href="#rim" fill="#404040">
                        <set attributeName="fill" to="#808080" begin="arrowDown.mouseover" end="arrowDown.mouseout"/>
                  </use>
                  <path fill="none" stroke="white" stroke-width="1.5" d="M0,-3.0v7 M-2.5,-0.5L0,-3.0L2.5,-0.5"/>
                </g>
                <g id="arrowLeft" xlink:href="#dirArrow" transform="rotate(270) translate(-36 17)" onmousedown="handlePan(-1,0)">
                  <use xlink:href="#rim" fill="#404040">
                        <set attributeName="fill" to="#808080" begin="arrowLeft.mouseover" end="arrowLeft.mouseout"/>
                  </use>
                  <path fill="none" stroke="white" stroke-width="1.5" d="M0,-3.0v7 M-2.5,-0.5L0,-3.0L2.5,-0.5"/>
                </g>
        </g>
        <svg viewBox="0 0 15 15" width="100%" height="30px" preserveAspectRatio="xMaxYMin meet">
         <g id="arrow_out" transform="scale(0.3 0.3)">
          <a xlink:href="OSMutex_8c__incl_org.svg" target="_base">
           <rect id="button" ry="5" rx="5" y="6" x="6" height="38" width="38"
                fill="#f2f5e9" fill-opacity="0.5" stroke="#606060" stroke-width="1.0"/>
           <path id="arrow"
             d="M 11.500037,31.436501 C 11.940474,20.09759 22.043105,11.32322 32.158766,21.979434 L 37.068811,17.246167 C 37.068811,17.246167 37.088388,32 37.088388,32 L 22.160133,31.978069 C 22.160133,31.978069 26.997745,27.140456 26.997745,27.140456 C 18.528582,18.264221 13.291696,25.230495 11.500037,31.436501 z"
             style="fill:#404040;"/>
          </a>
         </g>
        </svg>
</svg>
