<?xml version="1.0" encoding="UTF-8" standalone="no"?>
<!DOCTYPE svg PUBLIC "-//W3C//DTD SVG 1.1//EN"
 "http://www.w3.org/Graphics/SVG/1.1/DTD/svg11.dtd">
<!-- Generated by graphviz version 7.0.4 (20221203.1631)
 -->
<!-- Title: include/dolphin/os/OSThread.h Pages: 1 -->
<svg width="4823pt" height="423pt"
 viewBox="0.00 0.00 4822.50 423.00" xmlns="http://www.w3.org/2000/svg" xmlns:xlink="http://www.w3.org/1999/xlink">
<g id="graph0" class="graph" transform="scale(1 1) rotate(0) translate(4 419)">
<title>include/dolphin/os/OSThread.h</title>
<!-- Node1 -->
<g id="node1" class="node">
<title>Node1</title>
<g id="a_node1"><a xlink:title=" ">
<polygon fill="#999999" stroke="#666666" points="2838,-415 2743,-415 2743,-385 2838,-385 2838,-415"/>
<text text-anchor="start" x="2751" y="-403" font-family="Helvetica,sans-Serif" font-size="10.00">include/dolphin/os</text>
<text text-anchor="middle" x="2790.5" y="-392" font-family="Helvetica,sans-Serif" font-size="10.00">/OSThread.h</text>
</a>
</g>
</g>
<!-- Node2 -->
<g id="node2" class="node">
<title>Node2</title>
<g id="a_node2"><a xlink:href="OS_8h.html" target="_top" xlink:title=" ">
<polygon fill="white" stroke="#666666" points="2745,-283 2626,-283 2626,-264 2745,-264 2745,-283"/>
<text text-anchor="middle" x="2685.5" y="-271" font-family="Helvetica,sans-Serif" font-size="10.00">include/dolphin/os/OS.h</text>
</a>
</g>
</g>
<!-- Node1&#45;&gt;Node2 -->
<g id="edge1" class="edge">
<title>Node1&#45;&gt;Node2</title>
<path fill="none" stroke="#63b8ff" d="M2774.91,-375.13C2763.81,-358.75 2748.14,-336.84 2732.5,-319 2720.79,-305.65 2705.63,-291.83 2695.74,-283.2"/>
<polygon fill="#63b8ff" stroke="#63b8ff" points="2771.89,-376.9 2780.35,-383.27 2777.71,-373.01 2771.89,-376.9"/>
</g>
<!-- Node518 -->
<g id="node46" class="node">
<title>Node518</title>
<g id="a_node46"><a xlink:href="OSMessage_8h.html" target="_top" xlink:title=" ">
<polygon fill="white" stroke="#666666" points="2724,-349 2629,-349 2629,-319 2724,-319 2724,-349"/>
<text text-anchor="start" x="2637" y="-337" font-family="Helvetica,sans-Serif" font-size="10.00">include/dolphin/os</text>
<text text-anchor="middle" x="2676.5" y="-326" font-family="Helvetica,sans-Serif" font-size="10.00">/OSMessage.h</text>
</a>
</g>
</g>
<!-- Node1&#45;&gt;Node518 -->
<g id="edge61" class="edge">
<title>Node1&#45;&gt;Node518</title>
<path fill="none" stroke="#63b8ff" d="M2755.2,-379.18C2737.99,-369.52 2717.68,-358.12 2702,-349.31"/>
<polygon fill="#63b8ff" stroke="#63b8ff" points="2753.16,-382.05 2763.6,-383.9 2756.59,-375.95 2753.16,-382.05"/>
</g>
<!-- Node520 -->
<g id="node48" class="node">
<title>Node520</title>
<g id="a_node48"><a xlink:href="OSMutex_8h.html" target="_top" xlink:title=" ">
<polygon fill="white" stroke="#666666" points="2876,-349 2781,-349 2781,-319 2876,-319 2876,-349"/>
<text text-anchor="start" x="2789" y="-337" font-family="Helvetica,sans-Serif" font-size="10.00">include/dolphin/os</text>
<text text-anchor="middle" x="2828.5" y="-326" font-family="Helvetica,sans-Serif" font-size="10.00">/OSMutex.h</text>
</a>
</g>
</g>
<!-- Node1&#45;&gt;Node520 -->
<g id="edge64" class="edge">
<title>Node1&#45;&gt;Node520</title>
<path fill="none" stroke="#63b8ff" d="M2804.68,-375.11C2809.87,-366.38 2815.57,-356.78 2820.09,-349.16"/>
<polygon fill="#63b8ff" stroke="#63b8ff" points="2801.8,-373.11 2799.71,-383.49 2807.82,-376.68 2801.8,-373.11"/>
</g>
<!-- Node522 -->
<g id="node50" class="node">
<title>Node522</title>
<g id="a_node50"><a xlink:href="OSThread_8c.html" target="_top" xlink:title=" ">
<polygon fill="white" stroke="#666666" points="3045.5,-283 2911.5,-283 2911.5,-264 3045.5,-264 3045.5,-283"/>
<text text-anchor="middle" x="2978.5" y="-271" font-family="Helvetica,sans-Serif" font-size="10.00">libs/dolphin/os/OSThread.c</text>
</a>
</g>
</g>
<!-- Node1&#45;&gt;Node522 -->
<g id="edge68" class="edge">
<title>Node1&#45;&gt;Node522</title>
<path fill="none" stroke="#63b8ff" d="M2831.54,-379.56C2848.65,-370.91 2868.46,-360.16 2885.5,-349 2917.69,-327.91 2952.2,-298.14 2968.66,-283.43"/>
<polygon fill="#63b8ff" stroke="#63b8ff" points="2830.04,-376.4 2822.64,-383.99 2833.16,-382.67 2830.04,-376.4"/>
</g>
<!-- Node3 -->
<g id="node3" class="node">
<title>Node3</title>
<g id="a_node3"><a xlink:href="J2DAnimation_8h.html" target="_top" xlink:title=" ">
<polygon fill="white" stroke="#666666" points="570,-228 435,-228 435,-198 570,-198 570,-228"/>
<text text-anchor="start" x="443" y="-216" font-family="Helvetica,sans-Serif" font-size="10.00">include/JSystem/J2DGraph</text>
<text text-anchor="middle" x="502.5" y="-205" font-family="Helvetica,sans-Serif" font-size="10.00">/J2DAnimation.h</text>
</a>
</g>
</g>
<!-- Node2&#45;&gt;Node3 -->
<g id="edge2" class="edge">
<title>Node2&#45;&gt;Node3</title>
<path fill="none" stroke="#63b8ff" d="M2614.39,-263.95C1849.29,-209.42 1653.72,-249.73 890.5,-228 778.32,-224.81 647.93,-219.84 570.48,-216.77"/>
<polygon fill="#63b8ff" stroke="#63b8ff" points="2613.96,-267.42 2624.19,-264.65 2614.46,-260.44 2613.96,-267.42"/>
</g>
<!-- Node207 -->
<g id="node10" class="node">
<title>Node207</title>
<g id="a_node10"><a xlink:href="JKRAramHeap_8h.html" target="_top" xlink:title=" ">
<polygon fill="white" stroke="#666666" points="1152,-228 1027,-228 1027,-198 1152,-198 1152,-228"/>
<text text-anchor="start" x="1035" y="-216" font-family="Helvetica,sans-Serif" font-size="10.00">include/JSystem/JKernel</text>
<text text-anchor="middle" x="1089.5" y="-205" font-family="Helvetica,sans-Serif" font-size="10.00">/JKRAramHeap.h</text>
</a>
</g>
</g>
<!-- Node2&#45;&gt;Node207 -->
<g id="edge10" class="edge">
<title>Node2&#45;&gt;Node207</title>
<path fill="none" stroke="#63b8ff" d="M2614.36,-263.93C2047.53,-221.59 1901.92,-251.87 1337.5,-228 1274.49,-225.34 1202.53,-221.15 1152.42,-218.04"/>
<polygon fill="#63b8ff" stroke="#63b8ff" points="2613.95,-267.41 2624.19,-264.67 2614.48,-260.43 2613.95,-267.41"/>
</g>
<!-- Node219 -->
<g id="node16" class="node">
<title>Node219</title>
<g id="a_node16"><a xlink:href="JKRAramPiece_8h.html" target="_top" xlink:title=" ">
<polygon fill="#fff0f0" stroke="red" points="1687,-228 1562,-228 1562,-198 1687,-198 1687,-228"/>
<text text-anchor="start" x="1570" y="-216" font-family="Helvetica,sans-Serif" font-size="10.00">include/JSystem/JKernel</text>
<text text-anchor="middle" x="1624.5" y="-205" font-family="Helvetica,sans-Serif" font-size="10.00">/JKRAramPiece.h</text>
</a>
</g>
</g>
<!-- Node2&#45;&gt;Node219 -->
<g id="edge17" class="edge">
<title>Node2&#45;&gt;Node219</title>
<path fill="none" stroke="#63b8ff" d="M2614.45,-263.92C2206.25,-231.73 2098.68,-275.34 1695.5,-228 1692.75,-227.68 1689.96,-227.31 1687.14,-226.9"/>
<polygon fill="#63b8ff" stroke="#63b8ff" points="2613.94,-267.39 2624.18,-264.7 2614.49,-260.42 2613.94,-267.39"/>
</g>
<!-- Node223 -->
<g id="node19" class="node">
<title>Node223</title>
<g id="a_node19"><a xlink:href="JKRDvdFile_8h.html" target="_top" xlink:title=" ">
<polygon fill="#fff0f0" stroke="red" points="1830,-228 1705,-228 1705,-198 1830,-198 1830,-228"/>
<text text-anchor="start" x="1713" y="-216" font-family="Helvetica,sans-Serif" font-size="10.00">include/JSystem/JKernel</text>
<text text-anchor="middle" x="1767.5" y="-205" font-family="Helvetica,sans-Serif" font-size="10.00">/JKRDvdFile.h</text>
</a>
</g>
</g>
<!-- Node2&#45;&gt;Node223 -->
<g id="edge22" class="edge">
<title>Node2&#45;&gt;Node223</title>
<path fill="none" stroke="#63b8ff" d="M2614.38,-263.9C2270.08,-235.57 2179.06,-268.66 1839.5,-228 1836.47,-227.64 1833.37,-227.22 1830.24,-226.76"/>
<polygon fill="#63b8ff" stroke="#63b8ff" points="2613.92,-267.38 2624.18,-264.72 2614.51,-260.4 2613.92,-267.38"/>
</g>
<!-- Node314 -->
<g id="node20" class="node">
<title>Node314</title>
<g id="a_node20"><a xlink:href="JKRHeap_8h.html" target="_top" xlink:title=" ">
<polygon fill="#fff0f0" stroke="red" points="1505,-228 1380,-228 1380,-198 1505,-198 1505,-228"/>
<text text-anchor="start" x="1388" y="-216" font-family="Helvetica,sans-Serif" font-size="10.00">include/JSystem/JKernel</text>
<text text-anchor="middle" x="1442.5" y="-205" font-family="Helvetica,sans-Serif" font-size="10.00">/JKRHeap.h</text>
</a>
</g>
</g>
<!-- Node2&#45;&gt;Node314 -->
<g id="edge23" class="edge">
<title>Node2&#45;&gt;Node314</title>
<path fill="none" stroke="#63b8ff" d="M2614.51,-263.94C2128.23,-226.95 2000.89,-279.38 1519.5,-228 1514.91,-227.51 1510.17,-226.9 1505.42,-226.22"/>
<polygon fill="#63b8ff" stroke="#63b8ff" points="2613.95,-267.4 2624.18,-264.68 2614.48,-260.43 2613.95,-267.4"/>
</g>
<!-- Node332 -->
<g id="node21" class="node">
<title>Node332</title>
<g id="a_node21"><a xlink:href="JKRThread_8h.html" target="_top" xlink:title=" ">
<polygon fill="#fff0f0" stroke="red" points="1414,-162 1289,-162 1289,-132 1414,-132 1414,-162"/>
<text text-anchor="start" x="1297" y="-150" font-family="Helvetica,sans-Serif" font-size="10.00">include/JSystem/JKernel</text>
<text text-anchor="middle" x="1351.5" y="-139" font-family="Helvetica,sans-Serif" font-size="10.00">/JKRThread.h</text>
</a>
</g>
</g>
<!-- Node2&#45;&gt;Node332 -->
<g id="edge35" class="edge">
<title>Node2&#45;&gt;Node332</title>
<path fill="none" stroke="#63b8ff" d="M2614.52,-264.24C2474.04,-259.56 1422.42,-270.27 1370.5,-228 1351.13,-212.23 1349.36,-180.64 1350.18,-162.22"/>
<polygon fill="#63b8ff" stroke="#63b8ff" points="2614.03,-267.72 2624.18,-264.71 2614.36,-260.73 2614.03,-267.72"/>
</g>
<!-- Node341 -->
<g id="node22" class="node">
<title>Node341</title>
<g id="a_node22"><a xlink:href="JUTException_8h.html" target="_top" xlink:title=" ">
<polygon fill="#fff0f0" stroke="red" points="1270.5,-96 1148.5,-96 1148.5,-66 1270.5,-66 1270.5,-96"/>
<text text-anchor="start" x="1156.5" y="-84" font-family="Helvetica,sans-Serif" font-size="10.00">include/JSystem/JUtility</text>
<text text-anchor="middle" x="1209.5" y="-73" font-family="Helvetica,sans-Serif" font-size="10.00">/JUTException.h</text>
</a>
</g>
</g>
<!-- Node2&#45;&gt;Node341 -->
<g id="edge36" class="edge">
<title>Node2&#45;&gt;Node341</title>
<path fill="none" stroke="#63b8ff" d="M2614.28,-264.34C2464.05,-260.65 1047.67,-258.39 1017.5,-228 987.44,-197.72 990.38,-165.74 1016.5,-132 1032.65,-111.13 1098.05,-97.38 1148.29,-89.68"/>
<polygon fill="#63b8ff" stroke="#63b8ff" points="2614.06,-267.83 2624.18,-264.71 2614.32,-260.84 2614.06,-267.83"/>
</g>
<!-- Node375 -->
<g id="node23" class="node">
<title>Node375</title>
<g id="a_node23"><a xlink:href="J3DShapeFactory_8cpp.html" target="_top" xlink:title=" ">
<polygon fill="white" stroke="#666666" points="1620,-162 1471,-162 1471,-132 1620,-132 1620,-162"/>
<text text-anchor="start" x="1479" y="-150" font-family="Helvetica,sans-Serif" font-size="10.00">libs/JSystem/J3DGraphLoader</text>
<text text-anchor="middle" x="1545.5" y="-139" font-family="Helvetica,sans-Serif" font-size="10.00">/J3DShapeFactory.cpp</text>
</a>
</g>
</g>
<!-- Node2&#45;&gt;Node375 -->
<g id="edge47" class="edge">
<title>Node2&#45;&gt;Node375</title>
<path fill="none" stroke="#63b8ff" d="M2614.51,-264.26C2487.39,-260 1593.83,-267.18 1552.5,-228 1534.89,-211.31 1537.99,-180.35 1541.78,-162.23"/>
<polygon fill="#63b8ff" stroke="#63b8ff" points="2614.02,-267.74 2624.18,-264.73 2614.36,-260.75 2614.02,-267.74"/>
</g>
<!-- Node379 -->
<g id="node24" class="node">
<title>Node379</title>
<g id="a_node24"><a xlink:href="JUTGamePad_8h.html" target="_top" xlink:title=" ">
<polygon fill="#fff0f0" stroke="red" points="940.5,-162 818.5,-162 818.5,-132 940.5,-132 940.5,-162"/>
<text text-anchor="start" x="826.5" y="-150" font-family="Helvetica,sans-Serif" font-size="10.00">include/JSystem/JUtility</text>
<text text-anchor="middle" x="879.5" y="-139" font-family="Helvetica,sans-Serif" font-size="10.00">/JUTGamePad.h</text>
</a>
</g>
</g>
<!-- Node2&#45;&gt;Node379 -->
<g id="edge37" class="edge">
<title>Node2&#45;&gt;Node379</title>
<path fill="none" stroke="#63b8ff" d="M2614.34,-264.18C2444.19,-257.76 1036.54,-264.6 954.5,-228 923.73,-214.27 899.65,-181.28 887.73,-162.23"/>
<polygon fill="#63b8ff" stroke="#63b8ff" points="2614.02,-267.67 2624.19,-264.68 2614.37,-260.68 2614.02,-267.67"/>
</g>
<!-- Node383 -->
<g id="node25" class="node">
<title>Node383</title>
<g id="a_node25"><a xlink:href="JUTVideo_8h.html" target="_top" xlink:title=" ">
<polygon fill="#fff0f0" stroke="red" points="1970.5,-228 1848.5,-228 1848.5,-198 1970.5,-198 1970.5,-228"/>
<text text-anchor="start" x="1856.5" y="-216" font-family="Helvetica,sans-Serif" font-size="10.00">include/JSystem/JUtility</text>
<text text-anchor="middle" x="1909.5" y="-205" font-family="Helvetica,sans-Serif" font-size="10.00">/JUTVideo.h</text>
</a>
</g>
</g>
<!-- Node2&#45;&gt;Node383 -->
<g id="edge39" class="edge">
<title>Node2&#45;&gt;Node383</title>
<path fill="none" stroke="#63b8ff" d="M2614.27,-263.88C2332.1,-239.31 2257.07,-263.42 1979.5,-228 1976.67,-227.64 1973.79,-227.23 1970.88,-226.78"/>
<polygon fill="#63b8ff" stroke="#63b8ff" points="2613.91,-267.36 2624.18,-264.75 2614.53,-260.38 2613.91,-267.36"/>
</g>
<!-- Node384 -->
<g id="node26" class="node">
<title>Node384</title>
<g id="a_node26"><a xlink:href="d__lib_8h.html" target="_top" xlink:title=" ">
<polygon fill="#fff0f0" stroke="red" points="2074.5,-222.5 1988.5,-222.5 1988.5,-203.5 2074.5,-203.5 2074.5,-222.5"/>
<text text-anchor="middle" x="2031.5" y="-210.5" font-family="Helvetica,sans-Serif" font-size="10.00">include/d/d_lib.h</text>
</a>
</g>
</g>
<!-- Node2&#45;&gt;Node384 -->
<g id="edge40" class="edge">
<title>Node2&#45;&gt;Node384</title>
<path fill="none" stroke="#63b8ff" d="M2614.31,-263.86C2378.15,-242.26 2314.04,-266.44 2083.5,-228 2076.03,-226.75 2068.08,-224.9 2060.7,-222.94"/>
<polygon fill="#63b8ff" stroke="#63b8ff" points="2613.89,-267.34 2624.18,-264.79 2614.55,-260.37 2613.89,-267.34"/>
</g>
<!-- Node385 -->
<g id="node27" class="node">
<title>Node385</title>
<g id="a_node27"><a xlink:href="d__save_8h.html" target="_top" xlink:title=" ">
<polygon fill="#fff0f0" stroke="red" points="2214.5,-222.5 2092.5,-222.5 2092.5,-203.5 2214.5,-203.5 2214.5,-222.5"/>
<text text-anchor="middle" x="2153.5" y="-210.5" font-family="Helvetica,sans-Serif" font-size="10.00">include/d/save/d_save.h</text>
</a>
</g>
</g>
<!-- Node2&#45;&gt;Node385 -->
<g id="edge41" class="edge">
<title>Node2&#45;&gt;Node385</title>
<path fill="none" stroke="#63b8ff" d="M2614.29,-263.81C2440.16,-245.59 2393.43,-252.7 2223.5,-228 2214.06,-226.63 2203.96,-224.81 2194.46,-222.95"/>
<polygon fill="#63b8ff" stroke="#63b8ff" points="2613.86,-267.28 2624.17,-264.85 2614.59,-260.32 2613.86,-267.28"/>
</g>
<!-- Node388 -->
<g id="node28" class="node">
<title>Node388</title>
<g id="a_node28"><a xlink:href="GXFifo_8h.html" target="_top" xlink:title=" ">
<polygon fill="#fff0f0" stroke="red" points="2326.5,-228 2232.5,-228 2232.5,-198 2326.5,-198 2326.5,-228"/>
<text text-anchor="start" x="2240.5" y="-216" font-family="Helvetica,sans-Serif" font-size="10.00">include/dolphin/gx</text>
<text text-anchor="middle" x="2279.5" y="-205" font-family="Helvetica,sans-Serif" font-size="10.00">/GXFifo.h</text>
</a>
</g>
</g>
<!-- Node2&#45;&gt;Node388 -->
<g id="edge42" class="edge">
<title>Node2&#45;&gt;Node388</title>
<path fill="none" stroke="#63b8ff" d="M2614.26,-263.66C2515.9,-251.43 2349.02,-230.54 2335.5,-228 2332.64,-227.46 2329.72,-226.87 2326.77,-226.24"/>
<polygon fill="#63b8ff" stroke="#63b8ff" points="2613.75,-267.13 2624.11,-264.89 2614.61,-260.18 2613.75,-267.13"/>
</g>
<!-- Node510 -->
<g id="node29" class="node">
<title>Node510</title>
<g id="a_node29"><a xlink:href="m__Do__MemCard_8h.html" target="_top" xlink:title=" ">
<polygon fill="#fff0f0" stroke="red" points="2504,-222.5 2345,-222.5 2345,-203.5 2504,-203.5 2504,-222.5"/>
<text text-anchor="middle" x="2424.5" y="-210.5" font-family="Helvetica,sans-Serif" font-size="10.00">include/m_Do/m_Do_MemCard.h</text>
</a>
</g>
</g>
<!-- Node2&#45;&gt;Node510 -->
<g id="edge43" class="edge">
<title>Node2&#45;&gt;Node510</title>
<path fill="none" stroke="#63b8ff" d="M2634.42,-261.05C2584.65,-249.89 2509.99,-233.16 2464.42,-222.95"/>
<polygon fill="#63b8ff" stroke="#63b8ff" points="2633.58,-264.45 2644.1,-263.22 2635.11,-257.62 2633.58,-264.45"/>
</g>
<!-- Node397 -->
<g id="node30" class="node">
<title>Node397</title>
<g id="a_node30"><a xlink:href="J3DModelData_8cpp.html" target="_top" xlink:title=" ">
<polygon fill="white" stroke="#666666" points="2680.5,-228 2522.5,-228 2522.5,-198 2680.5,-198 2680.5,-228"/>
<text text-anchor="start" x="2530.5" y="-216" font-family="Helvetica,sans-Serif" font-size="10.00">libs/JSystem/J3DGraphAnimator</text>
<text text-anchor="middle" x="2601.5" y="-205" font-family="Helvetica,sans-Serif" font-size="10.00">/J3DModelData.cpp</text>
</a>
</g>
</g>
<!-- Node2&#45;&gt;Node397 -->
<g id="edge44" class="edge">
<title>Node2&#45;&gt;Node397</title>
<path fill="none" stroke="#63b8ff" d="M2663.33,-257.06C2650.6,-248.2 2634.72,-237.13 2622.23,-228.44"/>
<polygon fill="#63b8ff" stroke="#63b8ff" points="2661.29,-259.91 2671.5,-262.75 2665.29,-254.16 2661.29,-259.91"/>
</g>
<!-- Node422 -->
<g id="node31" class="node">
<title>Node422</title>
<g id="a_node31"><a xlink:href="J3DShape_8cpp.html" target="_top" xlink:title=" ">
<polygon fill="white" stroke="#666666" points="2840.5,-228 2698.5,-228 2698.5,-198 2840.5,-198 2840.5,-228"/>
<text text-anchor="start" x="2706.5" y="-216" font-family="Helvetica,sans-Serif" font-size="10.00">libs/JSystem/J3DGraphBase</text>
<text text-anchor="middle" x="2769.5" y="-205" font-family="Helvetica,sans-Serif" font-size="10.00">/J3DShape.cpp</text>
</a>
</g>
</g>
<!-- Node2&#45;&gt;Node422 -->
<g id="edge45" class="edge">
<title>Node2&#45;&gt;Node422</title>
<path fill="none" stroke="#63b8ff" d="M2707.67,-257.06C2720.4,-248.2 2736.28,-237.13 2748.77,-228.44"/>
<polygon fill="#63b8ff" stroke="#63b8ff" points="2705.71,-254.16 2699.5,-262.75 2709.71,-259.91 2705.71,-254.16"/>
</g>
<!-- Node402 -->
<g id="node32" class="node">
<title>Node402</title>
<g id="a_node32"><a xlink:href="J3DSys_8cpp.html" target="_top" xlink:title=" ">
<polygon fill="white" stroke="#666666" points="3000.5,-228 2858.5,-228 2858.5,-198 3000.5,-198 3000.5,-228"/>
<text text-anchor="start" x="2866.5" y="-216" font-family="Helvetica,sans-Serif" font-size="10.00">libs/JSystem/J3DGraphBase</text>
<text text-anchor="middle" x="2929.5" y="-205" font-family="Helvetica,sans-Serif" font-size="10.00">/J3DSys.cpp</text>
</a>
</g>
</g>
<!-- Node2&#45;&gt;Node402 -->
<g id="edge46" class="edge">
<title>Node2&#45;&gt;Node402</title>
<path fill="none" stroke="#63b8ff" d="M2733.85,-260.91C2772.77,-251.58 2827.67,-238.41 2869.41,-228.41"/>
<polygon fill="#63b8ff" stroke="#63b8ff" points="2733.2,-257.46 2724.3,-263.2 2734.84,-264.27 2733.2,-257.46"/>
</g>
<!-- Node511 -->
<g id="node33" class="node">
<title>Node511</title>
<g id="a_node33"><a xlink:href="JASAudioReseter_8cpp.html" target="_top" xlink:title=" ">
<polygon fill="white" stroke="#666666" points="3134,-228 3019,-228 3019,-198 3134,-198 3134,-228"/>
<text text-anchor="start" x="3027" y="-216" font-family="Helvetica,sans-Serif" font-size="10.00">libs/JSystem/JAudio2</text>
<text text-anchor="middle" x="3076.5" y="-205" font-family="Helvetica,sans-Serif" font-size="10.00">/JASAudioReseter.cpp</text>
</a>
</g>
</g>
<!-- Node2&#45;&gt;Node511 -->
<g id="edge48" class="edge">
<title>Node2&#45;&gt;Node511</title>
<path fill="none" stroke="#63b8ff" d="M2756.22,-263.37C2836.45,-252.91 2962.28,-236.17 3009.5,-228 3012.54,-227.47 3015.66,-226.91 3018.81,-226.32"/>
<polygon fill="#63b8ff" stroke="#63b8ff" points="2756.18,-259.85 2746.71,-264.61 2757.08,-266.79 2756.18,-259.85"/>
</g>
<!-- Node437 -->
<g id="node34" class="node">
<title>Node437</title>
<g id="a_node34"><a xlink:href="JPAChildShape_8cpp.html" target="_top" xlink:title=" ">
<polygon fill="white" stroke="#666666" points="3266.5,-228 3152.5,-228 3152.5,-198 3266.5,-198 3266.5,-228"/>
<text text-anchor="start" x="3160.5" y="-216" font-family="Helvetica,sans-Serif" font-size="10.00">libs/JSystem/JParticle</text>
<text text-anchor="middle" x="3209.5" y="-205" font-family="Helvetica,sans-Serif" font-size="10.00">/JPAChildShape.cpp</text>
</a>
</g>
</g>
<!-- Node2&#45;&gt;Node437 -->
<g id="edge49" class="edge">
<title>Node2&#45;&gt;Node437</title>
<path fill="none" stroke="#63b8ff" d="M2756.6,-263.82C2929.06,-245.73 2975.44,-253.51 3143.5,-228 3146.4,-227.56 3149.35,-227.07 3152.34,-226.55"/>
<polygon fill="#63b8ff" stroke="#63b8ff" points="2756.4,-260.32 2746.83,-264.86 2757.15,-267.28 2756.4,-260.32"/>
</g>
<!-- Node446 -->
<g id="node35" class="node">
<title>Node446</title>
<g id="a_node35"><a xlink:href="JPAExtraShape_8cpp.html" target="_top" xlink:title=" ">
<polygon fill="white" stroke="#666666" points="3398.5,-228 3284.5,-228 3284.5,-198 3398.5,-198 3398.5,-228"/>
<text text-anchor="start" x="3292.5" y="-216" font-family="Helvetica,sans-Serif" font-size="10.00">libs/JSystem/JParticle</text>
<text text-anchor="middle" x="3341.5" y="-205" font-family="Helvetica,sans-Serif" font-size="10.00">/JPAExtraShape.cpp</text>
</a>
</g>
</g>
<!-- Node2&#45;&gt;Node446 -->
<g id="edge50" class="edge">
<title>Node2&#45;&gt;Node446</title>
<path fill="none" stroke="#63b8ff" d="M2756.45,-263.88C2987.46,-242.36 3049.22,-259.66 3275.5,-228 3278.4,-227.59 3281.36,-227.13 3284.35,-226.63"/>
<polygon fill="#63b8ff" stroke="#63b8ff" points="2756.45,-260.36 2746.82,-264.79 2757.11,-267.33 2756.45,-260.36"/>
</g>
<!-- Node494 -->
<g id="node36" class="node">
<title>Node494</title>
<g id="a_node36"><a xlink:href="JUTPalette_8cpp.html" target="_top" xlink:title=" ">
<polygon fill="white" stroke="#666666" points="3522.5,-228 3416.5,-228 3416.5,-198 3522.5,-198 3522.5,-228"/>
<text text-anchor="start" x="3424.5" y="-216" font-family="Helvetica,sans-Serif" font-size="10.00">libs/JSystem/JUtility</text>
<text text-anchor="middle" x="3469.5" y="-205" font-family="Helvetica,sans-Serif" font-size="10.00">/JUTPalette.cpp</text>
</a>
</g>
</g>
<!-- Node2&#45;&gt;Node494 -->
<g id="edge51" class="edge">
<title>Node2&#45;&gt;Node494</title>
<path fill="none" stroke="#63b8ff" d="M2756.58,-263.89C3045.97,-238.97 3123.28,-267.64 3407.5,-228 3410.34,-227.6 3413.25,-227.14 3416.17,-226.64"/>
<polygon fill="#63b8ff" stroke="#63b8ff" points="2756.48,-260.39 2746.82,-264.75 2757.09,-267.36 2756.48,-260.39"/>
</g>
<!-- Node512 -->
<g id="node37" class="node">
<title>Node512</title>
<g id="a_node37"><a xlink:href="GCN__Mem__Alloc_8c.html" target="_top" xlink:title=" ">
<polygon fill="white" stroke="#666666" points="3666,-228 3541,-228 3541,-198 3666,-198 3666,-228"/>
<text text-anchor="start" x="3549" y="-216" font-family="Helvetica,sans-Serif" font-size="10.00">libs/Runtime.PPCEABI.H</text>
<text text-anchor="middle" x="3603.5" y="-205" font-family="Helvetica,sans-Serif" font-size="10.00">/GCN_Mem_Alloc.c</text>
</a>
</g>
</g>
<!-- Node2&#45;&gt;Node512 -->
<g id="edge52" class="edge">
<title>Node2&#45;&gt;Node512</title>
<path fill="none" stroke="#63b8ff" d="M2756.62,-263.9C3100.92,-235.57 3191.94,-268.66 3531.5,-228 3534.53,-227.64 3537.63,-227.22 3540.76,-226.76"/>
<polygon fill="#63b8ff" stroke="#63b8ff" points="2756.49,-260.4 2746.82,-264.72 2757.08,-267.38 2756.49,-260.4"/>
</g>
<!-- Node513 -->
<g id="node38" class="node">
<title>Node513</title>
<g id="a_node38"><a xlink:href="MWCriticalSection__gc_8c.html" target="_top" xlink:title=" ">
<polygon fill="white" stroke="#666666" points="3842.5,-228 3684.5,-228 3684.5,-198 3842.5,-198 3842.5,-228"/>
<text text-anchor="start" x="3692.5" y="-216" font-family="Helvetica,sans-Serif" font-size="10.00">libs/TRK_MINNOW_DOLPHIN</text>
<text text-anchor="middle" x="3763.5" y="-205" font-family="Helvetica,sans-Serif" font-size="10.00">/utils/gc/MWCriticalSection_gc.c</text>
</a>
</g>
</g>
<!-- Node2&#45;&gt;Node513 -->
<g id="edge53" class="edge">
<title>Node2&#45;&gt;Node513</title>
<path fill="none" stroke="#63b8ff" d="M2756.55,-263.92C3164.73,-231.6 3271.52,-267.89 3675.5,-228 3678.43,-227.71 3681.4,-227.39 3684.4,-227.04"/>
<polygon fill="#63b8ff" stroke="#63b8ff" points="2756.5,-260.41 2746.82,-264.7 2757.06,-267.39 2756.5,-260.41"/>
</g>
<!-- Node514 -->
<g id="node39" class="node">
<title>Node514</title>
<g id="a_node39"><a xlink:href="GDBase_8c.html" target="_top" xlink:title=" ">
<polygon fill="white" stroke="#666666" points="3986.5,-222.5 3860.5,-222.5 3860.5,-203.5 3986.5,-203.5 3986.5,-222.5"/>
<text text-anchor="middle" x="3923.5" y="-210.5" font-family="Helvetica,sans-Serif" font-size="10.00">libs/dolphin/gd/GDBase.c</text>
</a>
</g>
</g>
<!-- Node2&#45;&gt;Node514 -->
<g id="edge54" class="edge">
<title>Node2&#45;&gt;Node514</title>
<path fill="none" stroke="#63b8ff" d="M2756.49,-263.94C3242.77,-226.99 3370.43,-282.31 3851.5,-228 3861.88,-226.83 3872.99,-224.97 3883.31,-222.99"/>
<polygon fill="#63b8ff" stroke="#63b8ff" points="2756.52,-260.43 2746.82,-264.68 2757.05,-267.41 2756.52,-260.43"/>
</g>
<!-- Node515 -->
<g id="node40" class="node">
<title>Node515</title>
<g id="a_node40"><a xlink:href="OS_8c.html" target="_top" xlink:title=" ">
<polygon fill="white" stroke="#666666" points="4108.5,-222.5 4004.5,-222.5 4004.5,-203.5 4108.5,-203.5 4108.5,-222.5"/>
<text text-anchor="middle" x="4056.5" y="-210.5" font-family="Helvetica,sans-Serif" font-size="10.00">libs/dolphin/os/OS.c</text>
</a>
</g>
</g>
<!-- Node2&#45;&gt;Node515 -->
<g id="edge55" class="edge">
<title>Node2&#45;&gt;Node515</title>
<path fill="none" stroke="#63b8ff" d="M2756.72,-263.93C3306.68,-223.25 3451.92,-297.57 3995.5,-228 4004.45,-226.86 4014,-224.98 4022.83,-222.97"/>
<polygon fill="#63b8ff" stroke="#63b8ff" points="2756.52,-260.43 2746.81,-264.67 2757.05,-267.41 2756.52,-260.43"/>
</g>
<!-- Node516 -->
<g id="node41" class="node">
<title>Node516</title>
<g id="a_node41"><a xlink:href="OSContext_8c.html" target="_top" xlink:title=" ">
<polygon fill="white" stroke="#666666" points="4264,-222.5 4127,-222.5 4127,-203.5 4264,-203.5 4264,-222.5"/>
<text text-anchor="middle" x="4195.5" y="-210.5" font-family="Helvetica,sans-Serif" font-size="10.00">libs/dolphin/os/OSContext.c</text>
</a>
</g>
</g>
<!-- Node2&#45;&gt;Node516 -->
<g id="edge56" class="edge">
<title>Node2&#45;&gt;Node516</title>
<path fill="none" stroke="#63b8ff" d="M2756.49,-263.95C3360.73,-219.76 3518.34,-289.33 4117.5,-228 4128.86,-226.84 4141.05,-224.96 4152.34,-222.95"/>
<polygon fill="#63b8ff" stroke="#63b8ff" points="2756.53,-260.44 2746.81,-264.66 2757.04,-267.42 2756.53,-260.44"/>
</g>
<!-- Node517 -->
<g id="node42" class="node">
<title>Node517</title>
<g id="a_node42"><a xlink:href="OSInterrupt_8c.html" target="_top" xlink:title=" ">
<polygon fill="white" stroke="#666666" points="4422.5,-222.5 4282.5,-222.5 4282.5,-203.5 4422.5,-203.5 4422.5,-222.5"/>
<text text-anchor="middle" x="4352.5" y="-210.5" font-family="Helvetica,sans-Serif" font-size="10.00">libs/dolphin/os/OSInterrupt.c</text>
</a>
</g>
</g>
<!-- Node2&#45;&gt;Node517 -->
<g id="edge57" class="edge">
<title>Node2&#45;&gt;Node517</title>
<path fill="none" stroke="#63b8ff" d="M2756.76,-263.93C3429.96,-215.56 3605.32,-294.73 4273.5,-228 4285,-226.85 4297.35,-224.98 4308.79,-222.97"/>
<polygon fill="#63b8ff" stroke="#63b8ff" points="2756.53,-260.44 2746.81,-264.66 2757.04,-267.42 2756.53,-260.44"/>
</g>
<!-- Node233 -->
<g id="node43" class="node">
<title>Node233</title>
<g id="a_node43"><a xlink:href="DynamicLink_8cpp.html" target="_top" xlink:title=" ">
<polygon fill="white" stroke="#666666" points="4548,-222.5 4441,-222.5 4441,-203.5 4548,-203.5 4548,-222.5"/>
<text text-anchor="middle" x="4494.5" y="-210.5" font-family="Helvetica,sans-Serif" font-size="10.00">src/DynamicLink.cpp</text>
</a>
</g>
</g>
<!-- Node2&#45;&gt;Node233 -->
<g id="edge58" class="edge">
<title>Node2&#45;&gt;Node233</title>
<path fill="none" stroke="#63b8ff" d="M2756.62,-263.97C3144.5,-237.86 4065.04,-272.21 4431.5,-228 4440.84,-226.87 4450.84,-224.98 4460.05,-222.94"/>
<polygon fill="#63b8ff" stroke="#63b8ff" points="2756.54,-260.46 2746.81,-264.65 2757.03,-267.45 2756.54,-260.46"/>
</g>
<!-- Node93 -->
<g id="node44" class="node">
<title>Node93</title>
<g id="a_node44"><a xlink:href="d__eye__hl_8cpp.html" target="_top" xlink:title=" ">
<polygon fill="white" stroke="#666666" points="4664.5,-222.5 4566.5,-222.5 4566.5,-203.5 4664.5,-203.5 4664.5,-222.5"/>
<text text-anchor="middle" x="4615.5" y="-210.5" font-family="Helvetica,sans-Serif" font-size="10.00">src/d/d_eye_hl.cpp</text>
</a>
</g>
</g>
<!-- Node2&#45;&gt;Node93 -->
<g id="edge59" class="edge">
<title>Node2&#45;&gt;Node93</title>
<path fill="none" stroke="#63b8ff" d="M2756.53,-263.98C3172.35,-236.25 4163.64,-278.85 4557.5,-228 4566.13,-226.89 4575.34,-225 4583.82,-222.96"/>
<polygon fill="#63b8ff" stroke="#63b8ff" points="2756.55,-260.47 2746.81,-264.65 2757.03,-267.45 2756.55,-260.47"/>
</g>
<!-- Node325 -->
<g id="node45" class="node">
<title>Node325</title>
<g id="a_node45"><a xlink:href="m__Do__printf_8cpp.html" target="_top" xlink:title=" ">
<polygon fill="white" stroke="#666666" points="4814.5,-222.5 4682.5,-222.5 4682.5,-203.5 4814.5,-203.5 4814.5,-222.5"/>
<text text-anchor="middle" x="4748.5" y="-210.5" font-family="Helvetica,sans-Serif" font-size="10.00">src/m_Do/m_Do_printf.cpp</text>
</a>
</g>
</g>
<!-- Node2&#45;&gt;Node325 -->
<g id="edge60" class="edge">
<title>Node2&#45;&gt;Node325</title>
<path fill="none" stroke="#63b8ff" d="M2756.6,-263.95C3607.35,-204.74 3828.59,-314.18 4673.5,-228 4684.57,-226.87 4696.45,-224.98 4707.42,-222.94"/>
<polygon fill="#63b8ff" stroke="#63b8ff" points="2756.54,-260.45 2746.81,-264.64 2757.03,-267.43 2756.54,-260.45"/>
</g>
<!-- Node4 -->
<g id="node4" class="node">
<title>Node4</title>
<g id="a_node4"><a xlink:href="J2DAnmLoader_8h.html" target="_top" xlink:title=" ">
<polygon fill="#fff0f0" stroke="red" points="570,-162 435,-162 435,-132 570,-132 570,-162"/>
<text text-anchor="start" x="443" y="-150" font-family="Helvetica,sans-Serif" font-size="10.00">include/JSystem/J2DGraph</text>
<text text-anchor="middle" x="502.5" y="-139" font-family="Helvetica,sans-Serif" font-size="10.00">/J2DAnmLoader.h</text>
</a>
</g>
</g>
<!-- Node3&#45;&gt;Node4 -->
<g id="edge3" class="edge">
<title>Node3&#45;&gt;Node4</title>
<path fill="none" stroke="#63b8ff" d="M502.5,-186.39C502.5,-178.13 502.5,-169.28 502.5,-162.16"/>
<polygon fill="#63b8ff" stroke="#63b8ff" points="499,-186.28 502.5,-196.28 506,-186.28 499,-186.28"/>
</g>
<!-- Node5 -->
<g id="node5" class="node">
<title>Node5</title>
<g id="a_node5"><a xlink:href="J2DAnmLoader__nonmatching_8cpp.html" target="_top" xlink:title=" ">
<polygon fill="white" stroke="#666666" points="633.5,-96 467.5,-96 467.5,-66 633.5,-66 633.5,-96"/>
<text text-anchor="start" x="475.5" y="-84" font-family="Helvetica,sans-Serif" font-size="10.00">libs/JSystem/J2DGraph</text>
<text text-anchor="middle" x="550.5" y="-73" font-family="Helvetica,sans-Serif" font-size="10.00">/J2DAnmLoader_nonmatching.cpp</text>
</a>
</g>
</g>
<!-- Node3&#45;&gt;Node5 -->
<g id="edge9" class="edge">
<title>Node3&#45;&gt;Node5</title>
<path fill="none" stroke="#63b8ff" d="M548.43,-191.97C560.37,-184.4 571.76,-174.51 578.5,-162 590.16,-140.37 574.69,-112.92 562.53,-96.44"/>
<polygon fill="#63b8ff" stroke="#63b8ff" points="547.02,-188.74 540.13,-196.78 550.54,-194.79 547.02,-188.74"/>
</g>
<!-- Node10 -->
<g id="node6" class="node">
<title>Node10</title>
<g id="a_node6"><a xlink:href="J2DMaterial_8h.html" target="_top" xlink:title=" ">
<polygon fill="#fff0f0" stroke="red" points="762,-162 627,-162 627,-132 762,-132 762,-162"/>
<text text-anchor="start" x="635" y="-150" font-family="Helvetica,sans-Serif" font-size="10.00">include/JSystem/J2DGraph</text>
<text text-anchor="middle" x="694.5" y="-139" font-family="Helvetica,sans-Serif" font-size="10.00">/J2DMaterial.h</text>
</a>
</g>
</g>
<!-- Node3&#45;&gt;Node10 -->
<g id="edge5" class="edge">
<title>Node3&#45;&gt;Node10</title>
<path fill="none" stroke="#63b8ff" d="M556.3,-194.07C586.28,-184.07 623.12,-171.79 651.22,-162.43"/>
<polygon fill="#63b8ff" stroke="#63b8ff" points="555.4,-190.68 547.02,-197.16 557.62,-197.32 555.4,-190.68"/>
</g>
<!-- Node206 -->
<g id="node7" class="node">
<title>Node206</title>
<g id="a_node7"><a xlink:href="J2DPane_8h.html" target="_top" xlink:title=" ">
<polygon fill="#fff0f0" stroke="red" points="135,-162 0,-162 0,-132 135,-132 135,-162"/>
<text text-anchor="start" x="8" y="-150" font-family="Helvetica,sans-Serif" font-size="10.00">include/JSystem/J2DGraph</text>
<text text-anchor="middle" x="67.5" y="-139" font-family="Helvetica,sans-Serif" font-size="10.00">/J2DPane.h</text>
</a>
</g>
</g>
<!-- Node3&#45;&gt;Node206 -->
<g id="edge6" class="edge">
<title>Node3&#45;&gt;Node206</title>
<path fill="none" stroke="#63b8ff" d="M423.19,-201.97C350.35,-192.51 239.47,-177.51 143.5,-162 140.85,-161.57 138.15,-161.13 135.43,-160.67"/>
<polygon fill="#63b8ff" stroke="#63b8ff" points="422.68,-205.43 433.04,-203.24 423.58,-198.49 422.68,-205.43"/>
</g>
<!-- Node183 -->
<g id="node8" class="node">
<title>Node183</title>
<g id="a_node8"><a xlink:href="d__meter2__draw_8h.html" target="_top" xlink:title=" ">
<polygon fill="#fff0f0" stroke="red" points="280,-162 153,-162 153,-132 280,-132 280,-162"/>
<text text-anchor="start" x="161" y="-150" font-family="Helvetica,sans-Serif" font-size="10.00">include/d/meter/d_meter2</text>
<text text-anchor="middle" x="216.5" y="-139" font-family="Helvetica,sans-Serif" font-size="10.00">_draw.h</text>
</a>
</g>
</g>
<!-- Node3&#45;&gt;Node183 -->
<g id="edge7" class="edge">
<title>Node3&#45;&gt;Node183</title>
<path fill="none" stroke="#63b8ff" d="M426.92,-195.09C381.25,-184.87 323.68,-171.99 280.31,-162.28"/>
<polygon fill="#63b8ff" stroke="#63b8ff" points="425.96,-198.46 436.48,-197.23 427.49,-191.63 425.96,-198.46"/>
</g>
<!-- Node193 -->
<g id="node9" class="node">
<title>Node193</title>
<g id="a_node9"><a xlink:href="J2DAnimation_8cpp.html" target="_top" xlink:title=" ">
<polygon fill="white" stroke="#666666" points="417,-162 298,-162 298,-132 417,-132 417,-162"/>
<text text-anchor="start" x="306" y="-150" font-family="Helvetica,sans-Serif" font-size="10.00">libs/JSystem/J2DGraph</text>
<text text-anchor="middle" x="357.5" y="-139" font-family="Helvetica,sans-Serif" font-size="10.00">/J2DAnimation.cpp</text>
</a>
</g>
</g>
<!-- Node3&#45;&gt;Node193 -->
<g id="edge8" class="edge">
<title>Node3&#45;&gt;Node193</title>
<path fill="none" stroke="#63b8ff" d="M459.47,-193.01C437.28,-183.22 410.66,-171.46 390.18,-162.43"/>
<polygon fill="#63b8ff" stroke="#63b8ff" points="458.01,-196.19 468.57,-197.03 460.84,-189.79 458.01,-196.19"/>
</g>
<!-- Node4&#45;&gt;Node5 -->
<g id="edge4" class="edge">
<title>Node4&#45;&gt;Node5</title>
<path fill="none" stroke="#63b8ff" d="M519.99,-122.68C526.65,-113.79 534.04,-103.95 539.88,-96.16"/>
<polygon fill="#63b8ff" stroke="#63b8ff" points="517.26,-120.49 514.06,-130.59 522.86,-124.69 517.26,-120.49"/>
</g>
<!-- Node208 -->
<g id="node11" class="node">
<title>Node208</title>
<g id="a_node11"><a xlink:href="JKRAram_8h.html" target="_top" xlink:title=" ">
<polygon fill="#fff0f0" stroke="red" points="1414,-96 1289,-96 1289,-66 1414,-66 1414,-96"/>
<text text-anchor="start" x="1297" y="-84" font-family="Helvetica,sans-Serif" font-size="10.00">include/JSystem/JKernel</text>
<text text-anchor="middle" x="1351.5" y="-73" font-family="Helvetica,sans-Serif" font-size="10.00">/JKRAram.h</text>
</a>
</g>
</g>
<!-- Node207&#45;&gt;Node208 -->
<g id="edge11" class="edge">
<title>Node207&#45;&gt;Node208</title>
<path fill="none" stroke="#63b8ff" d="M1054.73,-191.21C1031.65,-174.84 1008.49,-151.59 1025.5,-132 1062.88,-88.95 1223.28,-105.44 1279.5,-96 1282.51,-95.49 1285.6,-94.96 1288.71,-94.41"/>
<polygon fill="#63b8ff" stroke="#63b8ff" points="1052.65,-194.03 1062.9,-196.71 1056.56,-188.22 1052.65,-194.03"/>
</g>
<!-- Node212 -->
<g id="node12" class="node">
<title>Node212</title>
<g id="a_node12"><a xlink:href="JKRAram_8cpp.html" target="_top" xlink:title=" ">
<polygon fill="white" stroke="#666666" points="1317,-30 1208,-30 1208,0 1317,0 1317,-30"/>
<text text-anchor="start" x="1216" y="-18" font-family="Helvetica,sans-Serif" font-size="10.00">libs/JSystem/JKernel</text>
<text text-anchor="middle" x="1262.5" y="-7" font-family="Helvetica,sans-Serif" font-size="10.00">/JKRAram.cpp</text>
</a>
</g>
</g>
<!-- Node207&#45;&gt;Node212 -->
<g id="edge14" class="edge">
<title>Node207&#45;&gt;Node212</title>
<path fill="none" stroke="#63b8ff" d="M1015.57,-209.21C941.64,-204.67 835.32,-192.84 809.5,-162 800.94,-151.78 801.32,-142.53 809.5,-132 858.28,-69.15 1097.91,-34.54 1207.55,-21.77"/>
<polygon fill="#63b8ff" stroke="#63b8ff" points="1014.98,-212.68 1025.17,-209.76 1015.39,-205.69 1014.98,-212.68"/>
</g>
<!-- Node217 -->
<g id="node14" class="node">
<title>Node217</title>
<g id="a_node14"><a xlink:href="JKRAramBlock_8cpp.html" target="_top" xlink:title=" ">
<polygon fill="white" stroke="#666666" points="1144,-162 1035,-162 1035,-132 1144,-132 1144,-162"/>
<text text-anchor="start" x="1043" y="-150" font-family="Helvetica,sans-Serif" font-size="10.00">libs/JSystem/JKernel</text>
<text text-anchor="middle" x="1089.5" y="-139" font-family="Helvetica,sans-Serif" font-size="10.00">/JKRAramBlock.cpp</text>
</a>
</g>
</g>
<!-- Node207&#45;&gt;Node217 -->
<g id="edge15" class="edge">
<title>Node207&#45;&gt;Node217</title>
<path fill="none" stroke="#63b8ff" d="M1089.5,-186.39C1089.5,-178.13 1089.5,-169.28 1089.5,-162.16"/>
<polygon fill="#63b8ff" stroke="#63b8ff" points="1086,-186.28 1089.5,-196.28 1093,-186.28 1086,-186.28"/>
</g>
<!-- Node218 -->
<g id="node15" class="node">
<title>Node218</title>
<g id="a_node15"><a xlink:href="JKRAramHeap_8cpp.html" target="_top" xlink:title=" ">
<polygon fill="white" stroke="#666666" points="1271,-162 1162,-162 1162,-132 1271,-132 1271,-162"/>
<text text-anchor="start" x="1170" y="-150" font-family="Helvetica,sans-Serif" font-size="10.00">libs/JSystem/JKernel</text>
<text text-anchor="middle" x="1216.5" y="-139" font-family="Helvetica,sans-Serif" font-size="10.00">/JKRAramHeap.cpp</text>
</a>
</g>
</g>
<!-- Node207&#45;&gt;Node218 -->
<g id="edge16" class="edge">
<title>Node207&#45;&gt;Node218</title>
<path fill="none" stroke="#63b8ff" d="M1128.02,-192.59C1147.36,-182.84 1170.38,-171.24 1188.09,-162.31"/>
<polygon fill="#63b8ff" stroke="#63b8ff" points="1126.71,-189.33 1119.35,-196.96 1129.86,-195.58 1126.71,-189.33"/>
</g>
<!-- Node208&#45;&gt;Node212 -->
<g id="edge12" class="edge">
<title>Node208&#45;&gt;Node212</title>
<path fill="none" stroke="#63b8ff" d="M1322.64,-59.25C1309.53,-49.82 1294.34,-38.9 1282.5,-30.39"/>
<polygon fill="#63b8ff" stroke="#63b8ff" points="1320.36,-61.92 1330.52,-64.91 1324.44,-56.23 1320.36,-61.92"/>
</g>
<!-- Node214 -->
<g id="node13" class="node">
<title>Node214</title>
<g id="a_node13"><a xlink:href="JKRAramPiece_8cpp.html" target="_top" xlink:title=" ">
<polygon fill="white" stroke="#666666" points="1451,-30 1342,-30 1342,0 1451,0 1451,-30"/>
<text text-anchor="start" x="1350" y="-18" font-family="Helvetica,sans-Serif" font-size="10.00">libs/JSystem/JKernel</text>
<text text-anchor="middle" x="1396.5" y="-7" font-family="Helvetica,sans-Serif" font-size="10.00">/JKRAramPiece.cpp</text>
</a>
</g>
</g>
<!-- Node208&#45;&gt;Node214 -->
<g id="edge13" class="edge">
<title>Node208&#45;&gt;Node214</title>
<path fill="none" stroke="#63b8ff" d="M1368.1,-56.39C1374.29,-47.59 1381.13,-37.86 1386.54,-30.16"/>
<polygon fill="#63b8ff" stroke="#63b8ff" points="1365.25,-54.36 1362.36,-64.56 1370.97,-58.39 1365.25,-54.36"/>
</g>
<!-- Node219&#45;&gt;Node212 -->
<g id="edge18" class="edge">
<title>Node219&#45;&gt;Node212</title>
<path fill="none" stroke="#63b8ff" d="M1698.4,-197.65C1794.61,-182.41 1939.24,-197.79 1884.5,-132 1804.71,-36.11 1455,-53.57 1332.5,-30 1327.51,-29.04 1322.32,-28.03 1317.13,-27.01"/>
<polygon fill="#63b8ff" stroke="#63b8ff" points="1697.95,-194.18 1688.71,-199.35 1699.16,-201.07 1697.95,-194.18"/>
</g>
<!-- Node219&#45;&gt;Node214 -->
<g id="edge19" class="edge">
<title>Node219&#45;&gt;Node214</title>
<path fill="none" stroke="#63b8ff" d="M1698.55,-197.85C1761.59,-190.3 1887.93,-197.9 1918.5,-162 1946.16,-129.51 1947.2,-97.58 1918.5,-66 1887.5,-31.89 1578.93,-20.46 1451.3,-17.17"/>
<polygon fill="#63b8ff" stroke="#63b8ff" points="1698.08,-194.38 1688.7,-199.3 1699.1,-201.31 1698.08,-194.38"/>
</g>
<!-- Node220 -->
<g id="node17" class="node">
<title>Node220</title>
<g id="a_node17"><a xlink:href="JKRAramStream_8cpp.html" target="_top" xlink:title=" ">
<polygon fill="white" stroke="#666666" points="1749,-162 1638,-162 1638,-132 1749,-132 1749,-162"/>
<text text-anchor="start" x="1646" y="-150" font-family="Helvetica,sans-Serif" font-size="10.00">libs/JSystem/JKernel</text>
<text text-anchor="middle" x="1693.5" y="-139" font-family="Helvetica,sans-Serif" font-size="10.00">/JKRAramStream.cpp</text>
</a>
</g>
</g>
<!-- Node219&#45;&gt;Node220 -->
<g id="edge20" class="edge">
<title>Node219&#45;&gt;Node220</title>
<path fill="none" stroke="#63b8ff" d="M1648.12,-190.09C1658.09,-180.85 1669.39,-170.36 1678.23,-162.16"/>
<polygon fill="#63b8ff" stroke="#63b8ff" points="1645.87,-187.4 1640.92,-196.77 1650.63,-192.53 1645.87,-187.4"/>
</g>
<!-- Node221 -->
<g id="node18" class="node">
<title>Node221</title>
<g id="a_node18"><a xlink:href="JKRArchivePub_8cpp.html" target="_top" xlink:title=" ">
<polygon fill="white" stroke="#666666" points="1876,-162 1767,-162 1767,-132 1876,-132 1876,-162"/>
<text text-anchor="start" x="1775" y="-150" font-family="Helvetica,sans-Serif" font-size="10.00">libs/JSystem/JKernel</text>
<text text-anchor="middle" x="1821.5" y="-139" font-family="Helvetica,sans-Serif" font-size="10.00">/JKRArchivePub.cpp</text>
</a>
</g>
</g>
<!-- Node219&#45;&gt;Node221 -->
<g id="edge21" class="edge">
<title>Node219&#45;&gt;Node221</title>
<path fill="none" stroke="#63b8ff" d="M1679.29,-194.2C1710.13,-184.18 1748.14,-171.83 1777.1,-162.43"/>
<polygon fill="#63b8ff" stroke="#63b8ff" points="1678.58,-190.75 1670.15,-197.17 1680.74,-197.41 1678.58,-190.75"/>
</g>
<!-- Node314&#45;&gt;Node214 -->
<g id="edge32" class="edge">
<title>Node314&#45;&gt;Node214</title>
<path fill="none" stroke="#63b8ff" d="M1441.63,-186.16C1440.02,-156.52 1435.46,-106.75 1422.5,-66 1418.47,-53.32 1411.38,-40 1405.63,-30.3"/>
<polygon fill="#63b8ff" stroke="#63b8ff" points="1438.12,-186.21 1442.08,-196.04 1445.12,-185.89 1438.12,-186.21"/>
</g>
<!-- Node314&#45;&gt;Node217 -->
<g id="edge30" class="edge">
<title>Node314&#45;&gt;Node217</title>
<path fill="none" stroke="#63b8ff" d="M1368.52,-200.25C1309.81,-190.68 1225.72,-176.44 1152.5,-162 1149.86,-161.48 1147.16,-160.93 1144.44,-160.37"/>
<polygon fill="#63b8ff" stroke="#63b8ff" points="1367.62,-203.65 1378.05,-201.8 1368.74,-196.74 1367.62,-203.65"/>
</g>
<!-- Node314&#45;&gt;Node218 -->
<g id="edge31" class="edge">
<title>Node314&#45;&gt;Node218</title>
<path fill="none" stroke="#63b8ff" d="M1380.74,-194.51C1345.13,-184.43 1300.9,-171.9 1267.32,-162.39"/>
<polygon fill="#63b8ff" stroke="#63b8ff" points="1379.47,-197.79 1390.04,-197.14 1381.38,-191.05 1379.47,-197.79"/>
</g>
<!-- Node314&#45;&gt;Node220 -->
<g id="edge33" class="edge">
<title>Node314&#45;&gt;Node220</title>
<path fill="none" stroke="#63b8ff" d="M1510.14,-194.75C1550.16,-184.55 1600.23,-171.78 1637.93,-162.17"/>
<polygon fill="#63b8ff" stroke="#63b8ff" points="1509.43,-191.32 1500.61,-197.18 1511.16,-198.1 1509.43,-191.32"/>
</g>
<!-- Node314&#45;&gt;Node221 -->
<g id="edge34" class="edge">
<title>Node314&#45;&gt;Node221</title>
<path fill="none" stroke="#63b8ff" d="M1516.62,-201.47C1580.59,-192.09 1675.37,-177.49 1757.5,-162 1760.52,-161.43 1763.61,-160.83 1766.73,-160.2"/>
<polygon fill="#63b8ff" stroke="#63b8ff" points="1516.33,-197.98 1506.94,-202.89 1517.34,-204.91 1516.33,-197.98"/>
</g>
<!-- Node314&#45;&gt;Node332 -->
<g id="edge24" class="edge">
<title>Node314&#45;&gt;Node332</title>
<path fill="none" stroke="#63b8ff" d="M1413,-191.25C1399.59,-181.82 1384.05,-170.9 1371.95,-162.39"/>
<polygon fill="#63b8ff" stroke="#63b8ff" points="1410.87,-194.04 1421.07,-196.93 1414.9,-188.31 1410.87,-194.04"/>
</g>
<!-- Node314&#45;&gt;Node375 -->
<g id="edge29" class="edge">
<title>Node314&#45;&gt;Node375</title>
<path fill="none" stroke="#63b8ff" d="M1475.27,-191.64C1490.63,-182.09 1508.56,-170.95 1522.46,-162.31"/>
<polygon fill="#63b8ff" stroke="#63b8ff" points="1473.55,-188.59 1466.9,-196.84 1477.24,-194.53 1473.55,-188.59"/>
</g>
<!-- Node332&#45;&gt;Node208 -->
<g id="edge25" class="edge">
<title>Node332&#45;&gt;Node208</title>
<path fill="none" stroke="#63b8ff" d="M1351.5,-120.39C1351.5,-112.13 1351.5,-103.28 1351.5,-96.16"/>
<polygon fill="#63b8ff" stroke="#63b8ff" points="1348,-120.28 1351.5,-130.28 1355,-120.28 1348,-120.28"/>
</g>
<!-- Node332&#45;&gt;Node341 -->
<g id="edge26" class="edge">
<title>Node332&#45;&gt;Node341</title>
<path fill="none" stroke="#63b8ff" d="M1309.32,-126.99C1287.52,-117.16 1261.34,-105.36 1241.26,-96.31"/>
<polygon fill="#63b8ff" stroke="#63b8ff" points="1307.7,-130.1 1318.25,-131.02 1310.57,-123.72 1307.7,-130.1"/>
</g>
<!-- Node341&#45;&gt;Node212 -->
<g id="edge27" class="edge">
<title>Node341&#45;&gt;Node212</title>
<path fill="none" stroke="#63b8ff" d="M1228.58,-56.96C1236,-48 1244.26,-38.03 1250.77,-30.16"/>
<polygon fill="#63b8ff" stroke="#63b8ff" points="1225.91,-54.7 1222.23,-64.63 1231.3,-59.16 1225.91,-54.7"/>
</g>
<!-- Node341&#45;&gt;Node214 -->
<g id="edge28" class="edge">
<title>Node341&#45;&gt;Node214</title>
<path fill="none" stroke="#63b8ff" d="M1262.28,-61.94C1291.41,-51.97 1327.1,-39.75 1354.35,-30.43"/>
<polygon fill="#63b8ff" stroke="#63b8ff" points="1261.23,-58.6 1252.9,-65.15 1263.49,-65.22 1261.23,-58.6"/>
</g>
<!-- Node379&#45;&gt;Node341 -->
<g id="edge38" class="edge">
<title>Node379&#45;&gt;Node341</title>
<path fill="none" stroke="#63b8ff" d="M951.86,-131.97C1010.66,-120.56 1092.67,-104.66 1148.25,-93.88"/>
<polygon fill="#63b8ff" stroke="#63b8ff" points="951.43,-128.48 942.28,-133.82 952.77,-135.36 951.43,-128.48"/>
</g>
<!-- Node518&#45;&gt;Node2 -->
<g id="edge62" class="edge">
<title>Node518&#45;&gt;Node2</title>
<path fill="none" stroke="#63b8ff" d="M2680.45,-307.3C2681.79,-298.65 2683.18,-289.58 2684.17,-283.18"/>
<polygon fill="#63b8ff" stroke="#63b8ff" points="2677.02,-306.63 2678.95,-317.04 2683.93,-307.69 2677.02,-306.63"/>
</g>
<!-- Node519 -->
<g id="node47" class="node">
<title>Node519</title>
<g id="a_node47"><a xlink:href="OSMessage_8c.html" target="_top" xlink:title=" ">
<polygon fill="white" stroke="#666666" points="2608,-283 2465,-283 2465,-264 2608,-264 2608,-283"/>
<text text-anchor="middle" x="2536.5" y="-271" font-family="Helvetica,sans-Serif" font-size="10.00">libs/dolphin/os/OSMessage.c</text>
</a>
</g>
</g>
<!-- Node518&#45;&gt;Node519 -->
<g id="edge63" class="edge">
<title>Node518&#45;&gt;Node519</title>
<path fill="none" stroke="#63b8ff" d="M2631.28,-314.1C2606.56,-303.78 2577.11,-291.47 2557.67,-283.35"/>
<polygon fill="#63b8ff" stroke="#63b8ff" points="2629.92,-317.33 2640.5,-317.96 2632.62,-310.87 2629.92,-317.33"/>
</g>
<!-- Node520&#45;&gt;Node2 -->
<g id="edge65" class="edge">
<title>Node520&#45;&gt;Node2</title>
<path fill="none" stroke="#63b8ff" d="M2782.65,-314.24C2757.33,-303.89 2727.07,-291.51 2707.12,-283.35"/>
<polygon fill="#63b8ff" stroke="#63b8ff" points="2781.17,-317.42 2791.75,-317.97 2783.82,-310.94 2781.17,-317.42"/>
</g>
<!-- Node521 -->
<g id="node49" class="node">
<title>Node521</title>
<g id="a_node49"><a xlink:href="OSMutex_8c.html" target="_top" xlink:title=" ">
<polygon fill="white" stroke="#666666" points="2893.5,-283 2763.5,-283 2763.5,-264 2893.5,-264 2893.5,-283"/>
<text text-anchor="middle" x="2828.5" y="-271" font-family="Helvetica,sans-Serif" font-size="10.00">libs/dolphin/os/OSMutex.c</text>
</a>
</g>
</g>
<!-- Node520&#45;&gt;Node521 -->
<g id="edge66" class="edge">
<title>Node520&#45;&gt;Node521</title>
<path fill="none" stroke="#63b8ff" d="M2828.5,-307.3C2828.5,-298.65 2828.5,-289.58 2828.5,-283.18"/>
<polygon fill="#63b8ff" stroke="#63b8ff" points="2825,-307.03 2828.5,-317.03 2832,-307.03 2825,-307.03"/>
</g>
<!-- Node520&#45;&gt;Node522 -->
<g id="edge67" class="edge">
<title>Node520&#45;&gt;Node522</title>
<path fill="none" stroke="#63b8ff" d="M2876.24,-314.38C2902.87,-304 2934.8,-291.54 2955.82,-283.35"/>
<polygon fill="#63b8ff" stroke="#63b8ff" points="2875.03,-311.1 2866.99,-317.99 2877.58,-317.62 2875.03,-311.1"/>
</g>
</g>
</svg>
