<?xml version="1.0" encoding="UTF-8" standalone="no"?>
<!DOCTYPE svg PUBLIC "-//W3C//DTD SVG 1.1//EN"
 "http://www.w3.org/Graphics/SVG/1.1/DTD/svg11.dtd">
<!-- Generated by graphviz version 3.0.0 (20220413.0242)
 -->
<!-- Title: libs/dolphin/os/OSThread.cpp Pages: 1 -->
<!--zoomable 207 -->
<svg id="main" version="1.1" xmlns="http://www.w3.org/2000/svg" xmlns:xlink="http://www.w3.org/1999/xlink" xml:space="preserve" onload="init(evt)">
<style type="text/css"><![CDATA[
.edge:hover path { stroke: red; }
.edge:hover polygon { stroke: red; fill: red; }
]]></style>
<script type="text/javascript"><![CDATA[
var edges = document.getElementsByTagName('g');
if (edges && edges.length) {
  for (var i=0;i<edges.length;i++) {
    if (edges[i].id.substr(0,4)=='edge') {
      edges[i].setAttribute('class','edge');
    }
  }
}
]]></script>
        <defs>
                <circle id="rim" cx="0" cy="0" r="7"/>
                <circle id="rim2" cx="0" cy="0" r="3.5"/>
                <g id="zoomPlus">
                        <use xlink:href="#rim" fill="#404040">
                                <set attributeName="fill" to="#808080" begin="zoomplus.mouseover" end="zoomplus.mouseout"/>
                        </use>
                        <path d="M-4,0h8M0,-4v8" fill="none" stroke="white" stroke-width="1.5" pointer-events="none"/>
                </g>
                <g id="zoomMin">
                        <use xlink:href="#rim" fill="#404040">
                                <set attributeName="fill" to="#808080" begin="zoomminus.mouseover" end="zoomminus.mouseout"/>
                        </use>
                        <path d="M-4,0h8" fill="none" stroke="white" stroke-width="1.5" pointer-events="none"/>
                </g>
                <g id="dirArrow">
                        <path fill="none" stroke="white" stroke-width="1.5" d="M0,-3.0v7 M-2.5,-0.5L0,-3.0L2.5,-0.5"/>
                </g>
               <g id="resetDef">
                       <use xlink:href="#rim2" fill="#404040">
                               <set attributeName="fill" to="#808080" begin="reset.mouseover" end="reset.mouseout"/>
                       </use>
               </g>
        </defs>

<script type="text/javascript">
var viewWidth = 4418;
var viewHeight = 207;
var sectionId = 'dynsection-0';
</script>
<script xlink:href="svgpan.js"/>
<svg id="graph" class="graph">
<g id="viewport">
<title>libs/dolphin/os/OSThread.cpp</title>
<polygon fill="white" stroke="transparent" points="-4,4 -4,-203 4413.57,-203 4413.57,4 -4,4"/>
<!-- Node1 -->
<g id="node1" class="node">
<title>Node1</title>
<g id="a_node1"><a xlink:title=" ">
<polygon fill="#bfbfbf" stroke="black" points="2124.57,-179.5 2124.57,-198.5 2268.57,-198.5 2268.57,-179.5 2124.57,-179.5"/>
<text text-anchor="middle" x="2196.57" y="-186.5" font-family="Helvetica,sans-Serif" font-size="10.00">libs/dolphin/os/OSThread.cpp</text>
</a>
</g>
</g>
<!-- Node2 -->
<g id="node2" class="node">
<title>Node2</title>
<g id="a_node2"><a xlink:href="OSThread_8h.html" target="_top" xlink:title=" ">
<polygon fill="white" stroke="black" points="11.57,-118 11.57,-137 127.57,-137 127.57,-118 11.57,-118"/>
<text text-anchor="middle" x="69.57" y="-125" font-family="Helvetica,sans-Serif" font-size="10.00">dolphin/os/OSThread.h</text>
</a>
</g>
</g>
<!-- Node1&#45;&gt;Node2 -->
<g id="edge1" class="edge">
<title>Node1&#45;&gt;Node2</title>
<path fill="none" stroke="midnightblue" d="M2124.21,-187.51C1870.45,-185.52 997.45,-176.51 277.57,-143 230.9,-140.83 178.42,-137.16 137.85,-134.06"/>
<polygon fill="midnightblue" stroke="midnightblue" points="138.05,-130.56 127.81,-133.28 137.51,-137.54 138.05,-130.56"/>
</g>
<!-- Node3 -->
<g id="node3" class="node">
<title>Node3</title>
<g id="a_node3"><a xlink:href="types_8h.html" target="_top" xlink:title=" ">
<polygon fill="white" stroke="black" points="96.07,-0.5 96.07,-19.5 177.07,-19.5 177.07,-0.5 96.07,-0.5"/>
<text text-anchor="middle" x="136.57" y="-7.5" font-family="Helvetica,sans-Serif" font-size="10.00">dolphin/types.h</text>
</a>
</g>
</g>
<!-- Node1&#45;&gt;Node3 -->
<g id="edge9" class="edge">
<title>Node1&#45;&gt;Node3</title>
<path fill="none" stroke="midnightblue" d="M2124.31,-187.32C1783.32,-184 349.99,-168.54 311.57,-143 276.28,-119.54 304.02,-84.4 272.57,-56 249.06,-34.77 215.28,-23.53 187.27,-17.59"/>
<polygon fill="midnightblue" stroke="midnightblue" points="187.73,-14.11 177.24,-15.63 186.39,-20.98 187.73,-14.11"/>
</g>
<!-- Node6 -->
<g id="node6" class="node">
<title>Node6</title>
<g id="a_node6"><a xlink:href="dol2asm_8h.html" target="_top" xlink:title=" ">
<polygon fill="white" stroke="black" points="320.07,-118 320.07,-137 381.07,-137 381.07,-118 320.07,-118"/>
<text text-anchor="middle" x="350.57" y="-125" font-family="Helvetica,sans-Serif" font-size="10.00">dol2asm.h</text>
</a>
</g>
</g>
<!-- Node1&#45;&gt;Node6 -->
<g id="edge8" class="edge">
<title>Node1&#45;&gt;Node6</title>
<path fill="none" stroke="midnightblue" d="M2124.44,-187.57C1809.45,-185.53 562.69,-175.45 390.57,-143 387.05,-142.34 383.43,-141.4 379.88,-140.33"/>
<polygon fill="midnightblue" stroke="midnightblue" points="380.75,-136.93 370.15,-137.03 378.5,-143.56 380.75,-136.93"/>
</g>
<!-- Node7 -->
<g id="node7" class="node">
<title>Node7</title>
<g id="a_node7"><a xlink:title=" ">
<polygon fill="white" stroke="#bfbfbf" points="399.57,-112.5 399.57,-142.5 553.57,-142.5 553.57,-112.5 399.57,-112.5"/>
<text text-anchor="start" x="407.57" y="-130.5" font-family="Helvetica,sans-Serif" font-size="10.00">asm/dolphin/os/OSThread</text>
<text text-anchor="middle" x="476.57" y="-119.5" font-family="Helvetica,sans-Serif" font-size="10.00">/OSSetSwitchThreadCallback.s</text>
</a>
</g>
</g>
<!-- Node1&#45;&gt;Node7 -->
<g id="edge10" class="edge">
<title>Node1&#45;&gt;Node7</title>
<path fill="none" stroke="midnightblue" d="M2124.36,-187.35C1852.82,-184.71 892.18,-173.45 563.86,-143.01"/>
<polygon fill="midnightblue" stroke="midnightblue" points="564.14,-139.52 553.86,-142.05 563.48,-146.49 564.14,-139.52"/>
</g>
<!-- Node8 -->
<g id="node8" class="node">
<title>Node8</title>
<g id="a_node8"><a xlink:title=" ">
<polygon fill="white" stroke="#bfbfbf" points="571.57,-112.5 571.57,-142.5 701.57,-142.5 701.57,-112.5 571.57,-112.5"/>
<text text-anchor="start" x="579.57" y="-130.5" font-family="Helvetica,sans-Serif" font-size="10.00">asm/dolphin/os/OSThread</text>
<text text-anchor="middle" x="636.57" y="-119.5" font-family="Helvetica,sans-Serif" font-size="10.00">/__OSThreadInit.s</text>
</a>
</g>
</g>
<!-- Node1&#45;&gt;Node8 -->
<g id="edge11" class="edge">
<title>Node1&#45;&gt;Node8</title>
<path fill="none" stroke="midnightblue" d="M2124.33,-187.37C1869.13,-184.93 1009.81,-174.57 712.2,-143.02"/>
<polygon fill="midnightblue" stroke="midnightblue" points="712.17,-139.5 701.85,-141.89 711.41,-146.46 712.17,-139.5"/>
</g>
<!-- Node9 -->
<g id="node9" class="node">
<title>Node9</title>
<g id="a_node9"><a xlink:title=" ">
<polygon fill="white" stroke="#bfbfbf" points="719.57,-112.5 719.57,-142.5 849.57,-142.5 849.57,-112.5 719.57,-112.5"/>
<text text-anchor="start" x="727.57" y="-130.5" font-family="Helvetica,sans-Serif" font-size="10.00">asm/dolphin/os/OSThread</text>
<text text-anchor="middle" x="784.57" y="-119.5" font-family="Helvetica,sans-Serif" font-size="10.00">/OSInitThreadQueue.s</text>
</a>
</g>
</g>
<!-- Node1&#45;&gt;Node9 -->
<g id="edge12" class="edge">
<title>Node1&#45;&gt;Node9</title>
<path fill="none" stroke="midnightblue" d="M2124.55,-187.1C1886.69,-183.88 1126.73,-171.66 859.9,-142.99"/>
<polygon fill="midnightblue" stroke="midnightblue" points="860.18,-139.5 849.85,-141.88 859.41,-146.46 860.18,-139.5"/>
</g>
<!-- Node10 -->
<g id="node10" class="node">
<title>Node10</title>
<g id="a_node10"><a xlink:title=" ">
<polygon fill="white" stroke="#bfbfbf" points="867.57,-112.5 867.57,-142.5 997.57,-142.5 997.57,-112.5 867.57,-112.5"/>
<text text-anchor="start" x="875.57" y="-130.5" font-family="Helvetica,sans-Serif" font-size="10.00">asm/dolphin/os/OSThread</text>
<text text-anchor="middle" x="932.57" y="-119.5" font-family="Helvetica,sans-Serif" font-size="10.00">/OSGetCurrentThread.s</text>
</a>
</g>
</g>
<!-- Node1&#45;&gt;Node10 -->
<g id="edge13" class="edge">
<title>Node1&#45;&gt;Node10</title>
<path fill="none" stroke="midnightblue" d="M2124.46,-186.75C1904.73,-182.7 1244.62,-168.78 1008.12,-143.02"/>
<polygon fill="midnightblue" stroke="midnightblue" points="1008.18,-139.51 997.85,-141.86 1007.4,-146.46 1008.18,-139.51"/>
</g>
<!-- Node11 -->
<g id="node11" class="node">
<title>Node11</title>
<g id="a_node11"><a xlink:title=" ">
<polygon fill="white" stroke="#bfbfbf" points="1015.57,-112.5 1015.57,-142.5 1145.57,-142.5 1145.57,-112.5 1015.57,-112.5"/>
<text text-anchor="start" x="1023.57" y="-130.5" font-family="Helvetica,sans-Serif" font-size="10.00">asm/dolphin/os/OSThread</text>
<text text-anchor="middle" x="1080.57" y="-119.5" font-family="Helvetica,sans-Serif" font-size="10.00">/OSIsThreadTerminated.s</text>
</a>
</g>
</g>
<!-- Node1&#45;&gt;Node11 -->
<g id="edge14" class="edge">
<title>Node1&#45;&gt;Node11</title>
<path fill="none" stroke="midnightblue" d="M2124.26,-188.61C1955.93,-189.21 1524.76,-186.13 1155.93,-143.03"/>
<polygon fill="midnightblue" stroke="midnightblue" points="1156.2,-139.54 1145.86,-141.84 1155.38,-146.49 1156.2,-139.54"/>
</g>
<!-- Node12 -->
<g id="node12" class="node">
<title>Node12</title>
<g id="a_node12"><a xlink:title=" ">
<polygon fill="white" stroke="#bfbfbf" points="1163.57,-112.5 1163.57,-142.5 1293.57,-142.5 1293.57,-112.5 1163.57,-112.5"/>
<text text-anchor="start" x="1171.57" y="-130.5" font-family="Helvetica,sans-Serif" font-size="10.00">asm/dolphin/os/OSThread</text>
<text text-anchor="middle" x="1228.57" y="-119.5" font-family="Helvetica,sans-Serif" font-size="10.00">/OSDisableScheduler.s</text>
</a>
</g>
</g>
<!-- Node1&#45;&gt;Node12 -->
<g id="edge15" class="edge">
<title>Node1&#45;&gt;Node12</title>
<path fill="none" stroke="midnightblue" d="M2124.42,-187.86C1973.68,-186.82 1614.28,-180.37 1303.95,-143.05"/>
<polygon fill="midnightblue" stroke="midnightblue" points="1304.21,-139.55 1293.86,-141.82 1303.36,-146.5 1304.21,-139.55"/>
</g>
<!-- Node13 -->
<g id="node13" class="node">
<title>Node13</title>
<g id="a_node13"><a xlink:title=" ">
<polygon fill="white" stroke="#bfbfbf" points="1311.57,-112.5 1311.57,-142.5 1441.57,-142.5 1441.57,-112.5 1311.57,-112.5"/>
<text text-anchor="start" x="1319.57" y="-130.5" font-family="Helvetica,sans-Serif" font-size="10.00">asm/dolphin/os/OSThread</text>
<text text-anchor="middle" x="1376.57" y="-119.5" font-family="Helvetica,sans-Serif" font-size="10.00">/OSEnableScheduler.s</text>
</a>
</g>
</g>
<!-- Node1&#45;&gt;Node13 -->
<g id="edge16" class="edge">
<title>Node1&#45;&gt;Node13</title>
<path fill="none" stroke="midnightblue" d="M2124.52,-186.84C1992.82,-184.02 1704.3,-174.63 1451.96,-143.06"/>
<polygon fill="midnightblue" stroke="midnightblue" points="1452.22,-139.57 1441.86,-141.78 1451.35,-146.51 1452.22,-139.57"/>
</g>
<!-- Node14 -->
<g id="node14" class="node">
<title>Node14</title>
<g id="a_node14"><a xlink:title=" ">
<polygon fill="white" stroke="#bfbfbf" points="1459.57,-112.5 1459.57,-142.5 1589.57,-142.5 1589.57,-112.5 1459.57,-112.5"/>
<text text-anchor="start" x="1467.57" y="-130.5" font-family="Helvetica,sans-Serif" font-size="10.00">asm/dolphin/os/OSThread</text>
<text text-anchor="middle" x="1524.57" y="-119.5" font-family="Helvetica,sans-Serif" font-size="10.00">/UnsetRun.s</text>
</a>
</g>
</g>
<!-- Node1&#45;&gt;Node14 -->
<g id="edge17" class="edge">
<title>Node1&#45;&gt;Node14</title>
<path fill="none" stroke="midnightblue" d="M2124.15,-185.25C2013.47,-180.44 1795.45,-168.62 1600.11,-142.95"/>
<polygon fill="midnightblue" stroke="midnightblue" points="1600.32,-139.45 1589.94,-141.6 1599.4,-146.39 1600.32,-139.45"/>
</g>
<!-- Node15 -->
<g id="node15" class="node">
<title>Node15</title>
<g id="a_node15"><a xlink:title=" ">
<polygon fill="white" stroke="#bfbfbf" points="1608.07,-112.5 1608.07,-142.5 1743.07,-142.5 1743.07,-112.5 1608.07,-112.5"/>
<text text-anchor="start" x="1616.07" y="-130.5" font-family="Helvetica,sans-Serif" font-size="10.00">asm/dolphin/os/OSThread</text>
<text text-anchor="middle" x="1675.57" y="-119.5" font-family="Helvetica,sans-Serif" font-size="10.00">/__OSGetEffectivePriority.s</text>
</a>
</g>
</g>
<!-- Node1&#45;&gt;Node15 -->
<g id="edge18" class="edge">
<title>Node1&#45;&gt;Node15</title>
<path fill="none" stroke="midnightblue" d="M2124.44,-182.59C2038.55,-175.72 1890.57,-162.54 1753.4,-143.03"/>
<polygon fill="midnightblue" stroke="midnightblue" points="1753.52,-139.51 1743.12,-141.56 1752.52,-146.44 1753.52,-139.51"/>
</g>
<!-- Node16 -->
<g id="node16" class="node">
<title>Node16</title>
<g id="a_node16"><a xlink:title=" ">
<polygon fill="white" stroke="#bfbfbf" points="1761.57,-112.5 1761.57,-142.5 1891.57,-142.5 1891.57,-112.5 1761.57,-112.5"/>
<text text-anchor="start" x="1769.57" y="-130.5" font-family="Helvetica,sans-Serif" font-size="10.00">asm/dolphin/os/OSThread</text>
<text text-anchor="middle" x="1826.57" y="-119.5" font-family="Helvetica,sans-Serif" font-size="10.00">/SetEffectivePriority.s</text>
</a>
</g>
</g>
<!-- Node1&#45;&gt;Node16 -->
<g id="edge19" class="edge">
<title>Node1&#45;&gt;Node16</title>
<path fill="none" stroke="midnightblue" d="M2135.51,-179.49C2077.79,-171.28 1988.54,-158.12 1901.91,-143.19"/>
<polygon fill="midnightblue" stroke="midnightblue" points="1902.36,-139.72 1891.91,-141.46 1901.17,-146.62 1902.36,-139.72"/>
</g>
<!-- Node17 -->
<g id="node17" class="node">
<title>Node17</title>
<g id="a_node17"><a xlink:title=" ">
<polygon fill="white" stroke="#bfbfbf" points="1909.57,-112.5 1909.57,-142.5 2039.57,-142.5 2039.57,-112.5 1909.57,-112.5"/>
<text text-anchor="start" x="1917.57" y="-130.5" font-family="Helvetica,sans-Serif" font-size="10.00">asm/dolphin/os/OSThread</text>
<text text-anchor="middle" x="1974.57" y="-119.5" font-family="Helvetica,sans-Serif" font-size="10.00">/__OSPromoteThread.s</text>
</a>
</g>
</g>
<!-- Node1&#45;&gt;Node17 -->
<g id="edge20" class="edge">
<title>Node1&#45;&gt;Node17</title>
<path fill="none" stroke="midnightblue" d="M2164.76,-179.48C2131.47,-170.55 2078.33,-156.31 2036.67,-145.14"/>
<polygon fill="midnightblue" stroke="midnightblue" points="2037.46,-141.73 2026.89,-142.52 2035.64,-148.49 2037.46,-141.73"/>
</g>
<!-- Node18 -->
<g id="node18" class="node">
<title>Node18</title>
<g id="a_node18"><a xlink:title=" ">
<polygon fill="white" stroke="#bfbfbf" points="2057.57,-112.5 2057.57,-142.5 2187.57,-142.5 2187.57,-112.5 2057.57,-112.5"/>
<text text-anchor="start" x="2065.57" y="-130.5" font-family="Helvetica,sans-Serif" font-size="10.00">asm/dolphin/os/OSThread</text>
<text text-anchor="middle" x="2122.57" y="-119.5" font-family="Helvetica,sans-Serif" font-size="10.00">/SelectThread.s</text>
</a>
</g>
</g>
<!-- Node1&#45;&gt;Node18 -->
<g id="edge21" class="edge">
<title>Node1&#45;&gt;Node18</title>
<path fill="none" stroke="midnightblue" d="M2185.97,-179.48C2176.13,-171.57 2161.11,-159.48 2148.15,-149.07"/>
<polygon fill="midnightblue" stroke="midnightblue" points="2150,-146.06 2140.01,-142.52 2145.61,-151.52 2150,-146.06"/>
</g>
<!-- Node19 -->
<g id="node19" class="node">
<title>Node19</title>
<g id="a_node19"><a xlink:title=" ">
<polygon fill="white" stroke="#bfbfbf" points="2205.57,-112.5 2205.57,-142.5 2335.57,-142.5 2335.57,-112.5 2205.57,-112.5"/>
<text text-anchor="start" x="2213.57" y="-130.5" font-family="Helvetica,sans-Serif" font-size="10.00">asm/dolphin/os/OSThread</text>
<text text-anchor="middle" x="2270.57" y="-119.5" font-family="Helvetica,sans-Serif" font-size="10.00">/__OSReschedule.s</text>
</a>
</g>
</g>
<!-- Node1&#45;&gt;Node19 -->
<g id="edge22" class="edge">
<title>Node1&#45;&gt;Node19</title>
<path fill="none" stroke="midnightblue" d="M2207.17,-179.48C2217.01,-171.57 2232.03,-159.48 2244.99,-149.07"/>
<polygon fill="midnightblue" stroke="midnightblue" points="2247.53,-151.52 2253.13,-142.52 2243.14,-146.06 2247.53,-151.52"/>
</g>
<!-- Node20 -->
<g id="node20" class="node">
<title>Node20</title>
<g id="a_node20"><a xlink:title=" ">
<polygon fill="white" stroke="#bfbfbf" points="2353.57,-112.5 2353.57,-142.5 2483.57,-142.5 2483.57,-112.5 2353.57,-112.5"/>
<text text-anchor="start" x="2361.57" y="-130.5" font-family="Helvetica,sans-Serif" font-size="10.00">asm/dolphin/os/OSThread</text>
<text text-anchor="middle" x="2418.57" y="-119.5" font-family="Helvetica,sans-Serif" font-size="10.00">/OSYieldThread.s</text>
</a>
</g>
</g>
<!-- Node1&#45;&gt;Node20 -->
<g id="edge23" class="edge">
<title>Node1&#45;&gt;Node20</title>
<path fill="none" stroke="midnightblue" d="M2228.38,-179.48C2261.68,-170.55 2314.81,-156.31 2356.47,-145.14"/>
<polygon fill="midnightblue" stroke="midnightblue" points="2357.5,-148.49 2366.25,-142.52 2355.68,-141.73 2357.5,-148.49"/>
</g>
<!-- Node21 -->
<g id="node21" class="node">
<title>Node21</title>
<g id="a_node21"><a xlink:title=" ">
<polygon fill="white" stroke="#bfbfbf" points="2501.57,-112.5 2501.57,-142.5 2631.57,-142.5 2631.57,-112.5 2501.57,-112.5"/>
<text text-anchor="start" x="2509.57" y="-130.5" font-family="Helvetica,sans-Serif" font-size="10.00">asm/dolphin/os/OSThread</text>
<text text-anchor="middle" x="2566.57" y="-119.5" font-family="Helvetica,sans-Serif" font-size="10.00">/OSCreateThread.s</text>
</a>
</g>
</g>
<!-- Node1&#45;&gt;Node21 -->
<g id="edge24" class="edge">
<title>Node1&#45;&gt;Node21</title>
<path fill="none" stroke="midnightblue" d="M2257.64,-179.49C2315.35,-171.28 2404.6,-158.12 2491.23,-143.19"/>
<polygon fill="midnightblue" stroke="midnightblue" points="2491.97,-146.62 2501.23,-141.46 2490.78,-139.72 2491.97,-146.62"/>
</g>
<!-- Node22 -->
<g id="node22" class="node">
<title>Node22</title>
<g id="a_node22"><a xlink:title=" ">
<polygon fill="white" stroke="#bfbfbf" points="2649.57,-112.5 2649.57,-142.5 2779.57,-142.5 2779.57,-112.5 2649.57,-112.5"/>
<text text-anchor="start" x="2657.57" y="-130.5" font-family="Helvetica,sans-Serif" font-size="10.00">asm/dolphin/os/OSThread</text>
<text text-anchor="middle" x="2714.57" y="-119.5" font-family="Helvetica,sans-Serif" font-size="10.00">/OSExitThread.s</text>
</a>
</g>
</g>
<!-- Node1&#45;&gt;Node22 -->
<g id="edge25" class="edge">
<title>Node1&#45;&gt;Node22</title>
<path fill="none" stroke="midnightblue" d="M2268.73,-182.75C2354.64,-176.04 2502.64,-163.01 2639.04,-143.14"/>
<polygon fill="midnightblue" stroke="midnightblue" points="2639.87,-146.56 2649.26,-141.64 2638.85,-139.63 2639.87,-146.56"/>
</g>
<!-- Node23 -->
<g id="node23" class="node">
<title>Node23</title>
<g id="a_node23"><a xlink:title=" ">
<polygon fill="white" stroke="#bfbfbf" points="2797.57,-112.5 2797.57,-142.5 2927.57,-142.5 2927.57,-112.5 2797.57,-112.5"/>
<text text-anchor="start" x="2805.57" y="-130.5" font-family="Helvetica,sans-Serif" font-size="10.00">asm/dolphin/os/OSThread</text>
<text text-anchor="middle" x="2862.57" y="-119.5" font-family="Helvetica,sans-Serif" font-size="10.00">/OSCancelThread.s</text>
</a>
</g>
</g>
<!-- Node1&#45;&gt;Node23 -->
<g id="edge26" class="edge">
<title>Node1&#45;&gt;Node23</title>
<path fill="none" stroke="midnightblue" d="M2268.85,-185.25C2378.76,-180.46 2594.62,-168.67 2787.24,-143.08"/>
<polygon fill="midnightblue" stroke="midnightblue" points="2787.83,-146.53 2797.27,-141.73 2786.89,-139.59 2787.83,-146.53"/>
</g>
<!-- Node24 -->
<g id="node24" class="node">
<title>Node24</title>
<g id="a_node24"><a xlink:title=" ">
<polygon fill="white" stroke="#bfbfbf" points="2945.57,-112.5 2945.57,-142.5 3075.57,-142.5 3075.57,-112.5 2945.57,-112.5"/>
<text text-anchor="start" x="2953.57" y="-130.5" font-family="Helvetica,sans-Serif" font-size="10.00">asm/dolphin/os/OSThread</text>
<text text-anchor="middle" x="3010.57" y="-119.5" font-family="Helvetica,sans-Serif" font-size="10.00">/OSDetachThread.s</text>
</a>
</g>
</g>
<!-- Node1&#45;&gt;Node24 -->
<g id="edge27" class="edge">
<title>Node1&#45;&gt;Node24</title>
<path fill="none" stroke="midnightblue" d="M2268.82,-186.79C2399.83,-183.89 2685.38,-174.38 2935.28,-143.05"/>
<polygon fill="midnightblue" stroke="midnightblue" points="2935.8,-146.51 2945.28,-141.78 2934.92,-139.57 2935.8,-146.51"/>
</g>
<!-- Node25 -->
<g id="node25" class="node">
<title>Node25</title>
<g id="a_node25"><a xlink:title=" ">
<polygon fill="white" stroke="#bfbfbf" points="3093.57,-112.5 3093.57,-142.5 3223.57,-142.5 3223.57,-112.5 3093.57,-112.5"/>
<text text-anchor="start" x="3101.57" y="-130.5" font-family="Helvetica,sans-Serif" font-size="10.00">asm/dolphin/os/OSThread</text>
<text text-anchor="middle" x="3158.57" y="-119.5" font-family="Helvetica,sans-Serif" font-size="10.00">/OSResumeThread.s</text>
</a>
</g>
</g>
<!-- Node1&#45;&gt;Node25 -->
<g id="edge28" class="edge">
<title>Node1&#45;&gt;Node25</title>
<path fill="none" stroke="midnightblue" d="M2268.81,-187.83C2418.88,-186.71 2775.35,-180.12 3083.27,-143.04"/>
<polygon fill="midnightblue" stroke="midnightblue" points="3083.78,-146.5 3093.28,-141.82 3082.93,-139.55 3083.78,-146.5"/>
</g>
<!-- Node26 -->
<g id="node26" class="node">
<title>Node26</title>
<g id="a_node26"><a xlink:title=" ">
<polygon fill="white" stroke="#bfbfbf" points="3241.57,-112.5 3241.57,-142.5 3371.57,-142.5 3371.57,-112.5 3241.57,-112.5"/>
<text text-anchor="start" x="3249.57" y="-130.5" font-family="Helvetica,sans-Serif" font-size="10.00">asm/dolphin/os/OSThread</text>
<text text-anchor="middle" x="3306.57" y="-119.5" font-family="Helvetica,sans-Serif" font-size="10.00">/OSSuspendThread.s</text>
</a>
</g>
</g>
<!-- Node1&#45;&gt;Node26 -->
<g id="edge29" class="edge">
<title>Node1&#45;&gt;Node26</title>
<path fill="none" stroke="midnightblue" d="M2268.78,-188.58C2436.36,-189.12 2864.74,-185.9 3231.28,-143.03"/>
<polygon fill="midnightblue" stroke="midnightblue" points="3231.76,-146.49 3241.28,-141.84 3230.94,-139.54 3231.76,-146.49"/>
</g>
<!-- Node27 -->
<g id="node27" class="node">
<title>Node27</title>
<g id="a_node27"><a xlink:title=" ">
<polygon fill="white" stroke="#bfbfbf" points="3389.57,-112.5 3389.57,-142.5 3519.57,-142.5 3519.57,-112.5 3389.57,-112.5"/>
<text text-anchor="start" x="3397.57" y="-130.5" font-family="Helvetica,sans-Serif" font-size="10.00">asm/dolphin/os/OSThread</text>
<text text-anchor="middle" x="3454.57" y="-119.5" font-family="Helvetica,sans-Serif" font-size="10.00">/OSSleepThread.s</text>
</a>
</g>
</g>
<!-- Node1&#45;&gt;Node27 -->
<g id="edge30" class="edge">
<title>Node1&#45;&gt;Node27</title>
<path fill="none" stroke="midnightblue" d="M2268.71,-186.73C2487.72,-182.64 3143.87,-168.66 3379.08,-143.01"/>
<polygon fill="midnightblue" stroke="midnightblue" points="3379.74,-146.46 3389.29,-141.86 3378.96,-139.51 3379.74,-146.46"/>
</g>
<!-- Node28 -->
<g id="node28" class="node">
<title>Node28</title>
<g id="a_node28"><a xlink:title=" ">
<polygon fill="white" stroke="#bfbfbf" points="3537.57,-112.5 3537.57,-142.5 3667.57,-142.5 3667.57,-112.5 3537.57,-112.5"/>
<text text-anchor="start" x="3545.57" y="-130.5" font-family="Helvetica,sans-Serif" font-size="10.00">asm/dolphin/os/OSThread</text>
<text text-anchor="middle" x="3602.57" y="-119.5" font-family="Helvetica,sans-Serif" font-size="10.00">/OSWakeupThread.s</text>
</a>
</g>
</g>
<!-- Node1&#45;&gt;Node28 -->
<g id="edge31" class="edge">
<title>Node1&#45;&gt;Node28</title>
<path fill="none" stroke="midnightblue" d="M2268.69,-187.08C2505.95,-183.83 3261.77,-171.54 3527.29,-142.99"/>
<polygon fill="midnightblue" stroke="midnightblue" points="3527.74,-146.46 3537.29,-141.88 3526.96,-139.5 3527.74,-146.46"/>
</g>
<!-- Node29 -->
<g id="node29" class="node">
<title>Node29</title>
<g id="a_node29"><a xlink:title=" ">
<polygon fill="white" stroke="#bfbfbf" points="3685.57,-112.5 3685.57,-142.5 3815.57,-142.5 3815.57,-112.5 3685.57,-112.5"/>
<text text-anchor="start" x="3693.57" y="-130.5" font-family="Helvetica,sans-Serif" font-size="10.00">asm/dolphin/os/OSThread</text>
<text text-anchor="middle" x="3750.57" y="-119.5" font-family="Helvetica,sans-Serif" font-size="10.00">/OSSetThreadPriority.s</text>
</a>
</g>
</g>
<!-- Node1&#45;&gt;Node29 -->
<g id="edge32" class="edge">
<title>Node1&#45;&gt;Node29</title>
<path fill="none" stroke="midnightblue" d="M2268.96,-187.36C2523.68,-184.88 3378.72,-174.44 3674.99,-143.02"/>
<polygon fill="midnightblue" stroke="midnightblue" points="3675.73,-146.46 3685.29,-141.89 3674.97,-139.5 3675.73,-146.46"/>
</g>
<!-- Node30 -->
<g id="node30" class="node">
<title>Node30</title>
<g id="a_node30"><a xlink:title=" ">
<polygon fill="white" stroke="#bfbfbf" points="3833.57,-112.5 3833.57,-142.5 3963.57,-142.5 3963.57,-112.5 3833.57,-112.5"/>
<text text-anchor="start" x="3841.57" y="-130.5" font-family="Helvetica,sans-Serif" font-size="10.00">asm/dolphin/os/OSThread</text>
<text text-anchor="middle" x="3898.57" y="-119.5" font-family="Helvetica,sans-Serif" font-size="10.00">/OSGetThreadPriority.s</text>
</a>
</g>
</g>
<!-- Node1&#45;&gt;Node30 -->
<g id="edge33" class="edge">
<title>Node1&#45;&gt;Node30</title>
<path fill="none" stroke="midnightblue" d="M2269.01,-187.6C2540.29,-185.84 3496.79,-177.36 3823.35,-142.98"/>
<polygon fill="midnightblue" stroke="midnightblue" points="3823.73,-146.46 3833.29,-141.9 3822.97,-139.5 3823.73,-146.46"/>
</g>
<!-- Node31 -->
<g id="node31" class="node">
<title>Node31</title>
<g id="a_node31"><a xlink:title=" ">
<polygon fill="white" stroke="#bfbfbf" points="3981.57,-112.5 3981.57,-142.5 4111.57,-142.5 4111.57,-112.5 3981.57,-112.5"/>
<text text-anchor="start" x="3989.57" y="-130.5" font-family="Helvetica,sans-Serif" font-size="10.00">asm/dolphin/os/OSThread</text>
<text text-anchor="middle" x="4046.57" y="-119.5" font-family="Helvetica,sans-Serif" font-size="10.00">/CheckThreadQueue.s</text>
</a>
</g>
</g>
<!-- Node1&#45;&gt;Node31 -->
<g id="edge34" class="edge">
<title>Node1&#45;&gt;Node31</title>
<path fill="none" stroke="midnightblue" d="M2268.58,-187.79C2554.83,-186.72 3613.56,-180.32 3971.17,-142.99"/>
<polygon fill="midnightblue" stroke="midnightblue" points="3971.72,-146.46 3981.29,-141.91 3970.98,-139.5 3971.72,-146.46"/>
</g>
<!-- Node32 -->
<g id="node32" class="node">
<title>Node32</title>
<g id="a_node32"><a xlink:title=" ">
<polygon fill="white" stroke="#bfbfbf" points="4129.57,-112.5 4129.57,-142.5 4261.57,-142.5 4261.57,-112.5 4129.57,-112.5"/>
<text text-anchor="start" x="4137.57" y="-130.5" font-family="Helvetica,sans-Serif" font-size="10.00">asm/dolphin/os/OSThread</text>
<text text-anchor="middle" x="4195.57" y="-119.5" font-family="Helvetica,sans-Serif" font-size="10.00">/OSCheckActiveThreads.s</text>
</a>
</g>
</g>
<!-- Node1&#45;&gt;Node32 -->
<g id="edge35" class="edge">
<title>Node1&#45;&gt;Node32</title>
<path fill="none" stroke="midnightblue" d="M2268.83,-187.93C2570.42,-187.39 3730.77,-182.8 4119.26,-142.98"/>
<polygon fill="midnightblue" stroke="midnightblue" points="4119.83,-146.44 4129.41,-141.91 4119.1,-139.48 4119.83,-146.44"/>
</g>
<!-- Node33 -->
<g id="node33" class="node">
<title>Node33</title>
<g id="a_node33"><a xlink:title=" ">
<polygon fill="white" stroke="#bfbfbf" points="4279.57,-112.5 4279.57,-142.5 4409.57,-142.5 4409.57,-112.5 4279.57,-112.5"/>
<text text-anchor="start" x="4287.57" y="-130.5" font-family="Helvetica,sans-Serif" font-size="10.00">asm/dolphin/os/OSThread</text>
<text text-anchor="middle" x="4344.57" y="-119.5" font-family="Helvetica,sans-Serif" font-size="10.00">/OSClearStack.s</text>
</a>
</g>
</g>
<!-- Node1&#45;&gt;Node33 -->
<g id="edge36" class="edge">
<title>Node1&#45;&gt;Node33</title>
<path fill="none" stroke="midnightblue" d="M2268.75,-188.1C2584.86,-188.27 3849.7,-186.26 4269.24,-142.98"/>
<polygon fill="midnightblue" stroke="midnightblue" points="4269.72,-146.45 4279.29,-141.92 4268.98,-139.49 4269.72,-146.45"/>
</g>
<!-- Node2&#45;&gt;Node3 -->
<g id="edge2" class="edge">
<title>Node2&#45;&gt;Node3</title>
<path fill="none" stroke="midnightblue" d="M51.17,-117.99C26.35,-105.32 -12.87,-80.37 4.57,-56 22.97,-30.29 56.95,-19.1 85.83,-14.3"/>
<polygon fill="midnightblue" stroke="midnightblue" points="86.4,-17.76 95.79,-12.86 85.4,-10.83 86.4,-17.76"/>
</g>
<!-- Node4 -->
<g id="node4" class="node">
<title>Node4</title>
<g id="a_node4"><a xlink:href="OSMutex_8h.html" target="_top" xlink:title=" ">
<polygon fill="white" stroke="black" points="13.57,-56.5 13.57,-75.5 125.57,-75.5 125.57,-56.5 13.57,-56.5"/>
<text text-anchor="middle" x="69.57" y="-63.5" font-family="Helvetica,sans-Serif" font-size="10.00">dolphin/os/OSMutex.h</text>
</a>
</g>
</g>
<!-- Node2&#45;&gt;Node4 -->
<g id="edge3" class="edge">
<title>Node2&#45;&gt;Node4</title>
<path fill="none" stroke="midnightblue" d="M64.67,-117.98C62.84,-109.58 62.37,-96.48 63.26,-85.66"/>
<polygon fill="midnightblue" stroke="midnightblue" points="66.76,-85.9 64.67,-75.51 59.82,-84.93 66.76,-85.9"/>
</g>
<!-- Node5 -->
<g id="node5" class="node">
<title>Node5</title>
<g id="a_node5"><a xlink:href="OSContext_8h.html" target="_top" xlink:title=" ">
<polygon fill="white" stroke="black" points="144.07,-56.5 144.07,-75.5 263.07,-75.5 263.07,-56.5 144.07,-56.5"/>
<text text-anchor="middle" x="203.57" y="-63.5" font-family="Helvetica,sans-Serif" font-size="10.00">dolphin/os/OSContext.h</text>
</a>
</g>
</g>
<!-- Node2&#45;&gt;Node5 -->
<g id="edge6" class="edge">
<title>Node2&#45;&gt;Node5</title>
<path fill="none" stroke="midnightblue" d="M88.77,-117.98C111.36,-107.95 149.07,-91.2 175.07,-79.65"/>
<polygon fill="midnightblue" stroke="midnightblue" points="176.69,-82.77 184.41,-75.51 173.85,-76.37 176.69,-82.77"/>
</g>
<!-- Node4&#45;&gt;Node2 -->
<g id="edge5" class="edge">
<title>Node4&#45;&gt;Node2</title>
<path fill="none" stroke="midnightblue" d="M74.47,-75.51C76.3,-83.9 76.77,-97 75.89,-107.82"/>
<polygon fill="midnightblue" stroke="midnightblue" points="72.39,-107.59 74.47,-117.98 79.32,-108.55 72.39,-107.59"/>
</g>
<!-- Node4&#45;&gt;Node3 -->
<g id="edge4" class="edge">
<title>Node4&#45;&gt;Node3</title>
<path fill="none" stroke="midnightblue" d="M80.34,-56.32C90.34,-48.26 105.46,-36.08 117.5,-26.37"/>
<polygon fill="midnightblue" stroke="midnightblue" points="120.02,-28.83 125.61,-19.83 115.63,-23.38 120.02,-28.83"/>
</g>
<!-- Node5&#45;&gt;Node3 -->
<g id="edge7" class="edge">
<title>Node5&#45;&gt;Node3</title>
<path fill="none" stroke="midnightblue" d="M192.81,-56.32C182.8,-48.26 167.68,-36.08 155.64,-26.37"/>
<polygon fill="midnightblue" stroke="midnightblue" points="157.51,-23.38 147.53,-19.83 153.12,-28.83 157.51,-23.38"/>
</g>
</g>
</svg>
        <g id="navigator" transform="translate(0 0)" fill="#404254">
                <rect fill="#f2f5e9" fill-opacity="0.5" stroke="#606060" stroke-width=".5" x="0" y="0" width="60" height="60"/>
                <use id="zoomplus" xlink:href="#zoomPlus" x="17" y="9" onmousedown="handleZoom(evt,'in')"/>
                <use id="zoomminus" xlink:href="#zoomMin" x="42" y="9" onmousedown="handleZoom(evt,'out')"/>
                <use id="reset" xlink:href="#resetDef" x="30" y="36" onmousedown="handleReset()"/>
                <g id="arrowUp" xlink:href="#dirArrow" transform="translate(30 24)" onmousedown="handlePan(0,-1)">
                  <use xlink:href="#rim" fill="#404040">
                        <set attributeName="fill" to="#808080" begin="arrowUp.mouseover" end="arrowUp.mouseout"/>
                  </use>
                  <path fill="none" stroke="white" stroke-width="1.5" d="M0,-3.0v7 M-2.5,-0.5L0,-3.0L2.5,-0.5"/>
                </g>
                <g id="arrowRight" xlink:href="#dirArrow" transform="rotate(90) translate(36 -43)" onmousedown="handlePan(1,0)">
                  <use xlink:href="#rim" fill="#404040">
                        <set attributeName="fill" to="#808080" begin="arrowRight.mouseover" end="arrowRight.mouseout"/>
                  </use>
                  <path fill="none" stroke="white" stroke-width="1.5" d="M0,-3.0v7 M-2.5,-0.5L0,-3.0L2.5,-0.5"/>
                </g>
                <g id="arrowDown" xlink:href="#dirArrow" transform="rotate(180) translate(-30 -48)" onmousedown="handlePan(0,1)">
                  <use xlink:href="#rim" fill="#404040">
                        <set attributeName="fill" to="#808080" begin="arrowDown.mouseover" end="arrowDown.mouseout"/>
                  </use>
                  <path fill="none" stroke="white" stroke-width="1.5" d="M0,-3.0v7 M-2.5,-0.5L0,-3.0L2.5,-0.5"/>
                </g>
                <g id="arrowLeft" xlink:href="#dirArrow" transform="rotate(270) translate(-36 17)" onmousedown="handlePan(-1,0)">
                  <use xlink:href="#rim" fill="#404040">
                        <set attributeName="fill" to="#808080" begin="arrowLeft.mouseover" end="arrowLeft.mouseout"/>
                  </use>
                  <path fill="none" stroke="white" stroke-width="1.5" d="M0,-3.0v7 M-2.5,-0.5L0,-3.0L2.5,-0.5"/>
                </g>
        </g>
        <svg viewBox="0 0 15 15" width="100%" height="30px" preserveAspectRatio="xMaxYMin meet">
         <g id="arrow_out" transform="scale(0.3 0.3)">
          <a xlink:href="OSThread_8cpp__incl_org.svg" target="_base">
           <rect id="button" ry="5" rx="5" y="6" x="6" height="38" width="38"
                fill="#f2f5e9" fill-opacity="0.5" stroke="#606060" stroke-width="1.0"/>
           <path id="arrow"
             d="M 11.500037,31.436501 C 11.940474,20.09759 22.043105,11.32322 32.158766,21.979434 L 37.068811,17.246167 C 37.068811,17.246167 37.088388,32 37.088388,32 L 22.160133,31.978069 C 22.160133,31.978069 26.997745,27.140456 26.997745,27.140456 C 18.528582,18.264221 13.291696,25.230495 11.500037,31.436501 z"
             style="fill:#404040;"/>
          </a>
         </g>
        </svg>
</svg>
