<?xml version="1.0" encoding="UTF-8" standalone="no"?>
<!DOCTYPE svg PUBLIC "-//W3C//DTD SVG 1.1//EN"
 "http://www.w3.org/Graphics/SVG/1.1/DTD/svg11.dtd">
<!-- Generated by graphviz version 2.49.3 (20211027.1534)
 -->
<!-- Title: include/dolphin/pad/Pad.h Pages: 1 -->
<svg width="4083pt" height="575pt"
 viewBox="0.00 0.00 4083.50 575.00" xmlns="http://www.w3.org/2000/svg" xmlns:xlink="http://www.w3.org/1999/xlink">
<g id="graph0" class="graph" transform="scale(1 1) rotate(0) translate(4 571)">
<title>include/dolphin/pad/Pad.h</title>
<polygon fill="white" stroke="transparent" points="-4,4 -4,-571 4079.5,-571 4079.5,4 -4,4"/>
<!-- Node1 -->
<g id="node1" class="node">
<title>Node1</title>
<g id="a_node1"><a xlink:title=" ">
<polygon fill="#bfbfbf" stroke="black" points="1410,-536.5 1410,-566.5 1510,-566.5 1510,-536.5 1410,-536.5"/>
<text text-anchor="start" x="1418" y="-554.5" font-family="Helvetica,sans-Serif" font-size="10.00">include/dolphin/pad</text>
<text text-anchor="middle" x="1460" y="-543.5" font-family="Helvetica,sans-Serif" font-size="10.00">/Pad.h</text>
</a>
</g>
</g>
<!-- Node2 -->
<g id="node2" class="node">
<title>Node2</title>
<g id="a_node2"><a xlink:href="JUTGamePad_8h.html" target="_top" xlink:title=" ">
<polygon fill="white" stroke="black" points="1329,-469.5 1329,-499.5 1451,-499.5 1451,-469.5 1329,-469.5"/>
<text text-anchor="start" x="1337" y="-487.5" font-family="Helvetica,sans-Serif" font-size="10.00">include/JSystem/JUtility</text>
<text text-anchor="middle" x="1390" y="-476.5" font-family="Helvetica,sans-Serif" font-size="10.00">/JUTGamePad.h</text>
</a>
</g>
</g>
<!-- Node1&#45;&gt;Node2 -->
<g id="edge1" class="edge">
<title>Node1&#45;&gt;Node2</title>
<path fill="none" stroke="midnightblue" d="M1437.18,-529.31C1426.68,-519.56 1414.51,-508.26 1405.16,-499.58"/>
<polygon fill="midnightblue" stroke="midnightblue" points="1435.1,-532.16 1444.81,-536.4 1439.86,-527.03 1435.1,-532.16"/>
</g>
<!-- Node92 -->
<g id="node50" class="node">
<title>Node92</title>
<g id="a_node50"><a xlink:href="Pad_8cpp.html" target="_top" xlink:title=" ">
<polygon fill="white" stroke="black" points="1469,-475 1469,-494 1591,-494 1591,-475 1469,-475"/>
<text text-anchor="middle" x="1530" y="-482" font-family="Helvetica,sans-Serif" font-size="10.00">libs/dolphin/pad/Pad.cpp</text>
</a>
</g>
</g>
<!-- Node1&#45;&gt;Node92 -->
<g id="edge70" class="edge">
<title>Node1&#45;&gt;Node92</title>
<path fill="none" stroke="midnightblue" d="M1482.79,-529.34C1495.65,-517.4 1511.01,-503.14 1520.64,-494.19"/>
<polygon fill="midnightblue" stroke="midnightblue" points="1480.14,-527.03 1475.19,-536.4 1484.9,-532.16 1480.14,-527.03"/>
</g>
<!-- Node3 -->
<g id="node3" class="node">
<title>Node3</title>
<g id="a_node3"><a xlink:href="JUTException_8h.html" target="_top" xlink:title=" ">
<polygon fill="white" stroke="black" points="624,-402.5 624,-432.5 746,-432.5 746,-402.5 624,-402.5"/>
<text text-anchor="start" x="632" y="-420.5" font-family="Helvetica,sans-Serif" font-size="10.00">include/JSystem/JUtility</text>
<text text-anchor="middle" x="685" y="-409.5" font-family="Helvetica,sans-Serif" font-size="10.00">/JUTException.h</text>
</a>
</g>
</g>
<!-- Node2&#45;&gt;Node3 -->
<g id="edge2" class="edge">
<title>Node2&#45;&gt;Node3</title>
<path fill="none" stroke="midnightblue" d="M1318.88,-476.94C1180.26,-464.16 876.11,-436.12 746.01,-424.12"/>
<polygon fill="midnightblue" stroke="midnightblue" points="1318.7,-480.44 1328.98,-477.87 1319.34,-473.47 1318.7,-480.44"/>
</g>
<!-- Node4 -->
<g id="node4" class="node">
<title>Node4</title>
<g id="a_node4"><a xlink:href="JFWSystem_8cpp.html" target="_top" xlink:title=" ">
<polygon fill="white" stroke="black" points="0,-335.5 0,-365.5 130,-365.5 130,-335.5 0,-335.5"/>
<text text-anchor="start" x="8" y="-353.5" font-family="Helvetica,sans-Serif" font-size="10.00">libs/JSystem/JFramework</text>
<text text-anchor="middle" x="65" y="-342.5" font-family="Helvetica,sans-Serif" font-size="10.00">/JFWSystem.cpp</text>
</a>
</g>
</g>
<!-- Node2&#45;&gt;Node4 -->
<g id="edge67" class="edge">
<title>Node2&#45;&gt;Node4</title>
<path fill="none" stroke="midnightblue" d="M1318.23,-480.62C1181.25,-474.72 873.17,-459.54 615,-433 402.48,-411.15 349.68,-401.44 139,-366 136.16,-365.52 133.26,-365.02 130.34,-364.5"/>
<polygon fill="midnightblue" stroke="midnightblue" points="1318.44,-484.13 1328.58,-481.06 1318.74,-477.14 1318.44,-484.13"/>
</g>
<!-- Node15 -->
<g id="node15" class="node">
<title>Node15</title>
<g id="a_node15"><a xlink:href="m__Do__controller__pad_8h.html" target="_top" xlink:title=" ">
<polygon fill="white" stroke="black" points="1368.5,-402.5 1368.5,-432.5 1517.5,-432.5 1517.5,-402.5 1368.5,-402.5"/>
<text text-anchor="start" x="1376.5" y="-420.5" font-family="Helvetica,sans-Serif" font-size="10.00">include/m_Do/m_Do_controller</text>
<text text-anchor="middle" x="1443" y="-409.5" font-family="Helvetica,sans-Serif" font-size="10.00">_pad.h</text>
</a>
</g>
</g>
<!-- Node2&#45;&gt;Node15 -->
<g id="edge14" class="edge">
<title>Node2&#45;&gt;Node15</title>
<path fill="none" stroke="midnightblue" d="M1407.98,-461.45C1415.77,-451.9 1424.65,-441 1431.52,-432.58"/>
<polygon fill="midnightblue" stroke="midnightblue" points="1405.11,-459.43 1401.5,-469.4 1410.53,-463.86 1405.11,-459.43"/>
</g>
<!-- Node89 -->
<g id="node47" class="node">
<title>Node89</title>
<g id="a_node47"><a xlink:href="m__Do__machine_8h.html" target="_top" xlink:title=" ">
<polygon fill="white" stroke="black" points="1195,-151 1195,-170 1349,-170 1349,-151 1195,-151"/>
<text text-anchor="middle" x="1272" y="-158" font-family="Helvetica,sans-Serif" font-size="10.00">include/m_Do/m_Do_machine.h</text>
</a>
</g>
</g>
<!-- Node2&#45;&gt;Node89 -->
<g id="edge61" class="edge">
<title>Node2&#45;&gt;Node89</title>
<path fill="none" stroke="midnightblue" d="M1373.89,-460.64C1368.55,-452.25 1362.96,-442.48 1359,-433 1344.63,-398.58 1339,-388.8 1339,-351.5 1339,-351.5 1339,-351.5 1339,-282.5 1339,-235.2 1299.32,-189.04 1281.04,-170.28"/>
<polygon fill="midnightblue" stroke="midnightblue" points="1371.07,-462.72 1379.51,-469.12 1376.91,-458.85 1371.07,-462.72"/>
</g>
<!-- Node90 -->
<g id="node48" class="node">
<title>Node90</title>
<g id="a_node48"><a xlink:href="JUTGamePad_8cpp.html" target="_top" xlink:title=" ">
<polygon fill="white" stroke="black" points="1535,-402.5 1535,-432.5 1641,-432.5 1641,-402.5 1535,-402.5"/>
<text text-anchor="start" x="1543" y="-420.5" font-family="Helvetica,sans-Serif" font-size="10.00">libs/JSystem/JUtility</text>
<text text-anchor="middle" x="1588" y="-409.5" font-family="Helvetica,sans-Serif" font-size="10.00">/JUTGamePad.cpp</text>
</a>
</g>
</g>
<!-- Node2&#45;&gt;Node90 -->
<g id="edge68" class="edge">
<title>Node2&#45;&gt;Node90</title>
<path fill="none" stroke="midnightblue" d="M1442.61,-466.23C1474.64,-455.71 1515.04,-442.45 1545.12,-432.58"/>
<polygon fill="midnightblue" stroke="midnightblue" points="1441.37,-462.95 1432.96,-469.4 1443.56,-469.6 1441.37,-462.95"/>
</g>
<!-- Node91 -->
<g id="node49" class="node">
<title>Node91</title>
<g id="a_node49"><a xlink:href="m__Do__Reset_8cpp.html" target="_top" xlink:title=" ">
<polygon fill="white" stroke="black" points="1659,-408 1659,-427 1795,-427 1795,-408 1659,-408"/>
<text text-anchor="middle" x="1727" y="-415" font-family="Helvetica,sans-Serif" font-size="10.00">src/m_Do/m_Do_Reset.cpp</text>
</a>
</g>
</g>
<!-- Node2&#45;&gt;Node91 -->
<g id="edge69" class="edge">
<title>Node2&#45;&gt;Node91</title>
<path fill="none" stroke="midnightblue" d="M1461.05,-468.84C1499.19,-461.5 1616.39,-439.37 1681.92,-427.01"/>
<polygon fill="midnightblue" stroke="midnightblue" points="1460.22,-465.44 1451.07,-470.78 1461.56,-472.31 1460.22,-465.44"/>
</g>
<!-- Node3&#45;&gt;Node4 -->
<g id="edge3" class="edge">
<title>Node3&#45;&gt;Node4</title>
<path fill="none" stroke="midnightblue" d="M613.64,-412.21C509.11,-405.41 308.39,-390.36 139,-366 136.15,-365.59 133.24,-365.14 130.31,-364.67"/>
<polygon fill="midnightblue" stroke="midnightblue" points="613.55,-415.72 623.76,-412.87 614,-408.73 613.55,-415.72"/>
</g>
<!-- Node5 -->
<g id="node5" class="node">
<title>Node5</title>
<g id="a_node5"><a xlink:href="JKRAram_8cpp.html" target="_top" xlink:title=" ">
<polygon fill="white" stroke="black" points="439.5,-335.5 439.5,-365.5 548.5,-365.5 548.5,-335.5 439.5,-335.5"/>
<text text-anchor="start" x="447.5" y="-353.5" font-family="Helvetica,sans-Serif" font-size="10.00">libs/JSystem/JKernel</text>
<text text-anchor="middle" x="494" y="-342.5" font-family="Helvetica,sans-Serif" font-size="10.00">/JKRAram.cpp</text>
</a>
</g>
</g>
<!-- Node3&#45;&gt;Node5 -->
<g id="edge4" class="edge">
<title>Node3&#45;&gt;Node5</title>
<path fill="none" stroke="midnightblue" d="M633.85,-399.09C603.01,-388.6 564.25,-375.41 535.36,-365.58"/>
<polygon fill="midnightblue" stroke="midnightblue" points="632.96,-402.49 643.56,-402.4 635.22,-395.86 632.96,-402.49"/>
</g>
<!-- Node6 -->
<g id="node6" class="node">
<title>Node6</title>
<g id="a_node6"><a xlink:href="JKRAramPiece_8cpp.html" target="_top" xlink:title=" ">
<polygon fill="white" stroke="black" points="566.5,-335.5 566.5,-365.5 675.5,-365.5 675.5,-335.5 566.5,-335.5"/>
<text text-anchor="start" x="574.5" y="-353.5" font-family="Helvetica,sans-Serif" font-size="10.00">libs/JSystem/JKernel</text>
<text text-anchor="middle" x="621" y="-342.5" font-family="Helvetica,sans-Serif" font-size="10.00">/JKRAramPiece.cpp</text>
</a>
</g>
</g>
<!-- Node3&#45;&gt;Node6 -->
<g id="edge5" class="edge">
<title>Node3&#45;&gt;Node6</title>
<path fill="none" stroke="midnightblue" d="M663.85,-395.02C654.32,-385.34 643.33,-374.17 634.86,-365.58"/>
<polygon fill="midnightblue" stroke="midnightblue" points="661.6,-397.73 671.11,-402.4 666.59,-392.81 661.6,-397.73"/>
</g>
<!-- Node7 -->
<g id="node7" class="node">
<title>Node7</title>
<g id="a_node7"><a xlink:href="JKRDvdArchive_8cpp.html" target="_top" xlink:title=" ">
<polygon fill="white" stroke="black" points="693.5,-335.5 693.5,-365.5 802.5,-365.5 802.5,-335.5 693.5,-335.5"/>
<text text-anchor="start" x="701.5" y="-353.5" font-family="Helvetica,sans-Serif" font-size="10.00">libs/JSystem/JKernel</text>
<text text-anchor="middle" x="748" y="-342.5" font-family="Helvetica,sans-Serif" font-size="10.00">/JKRDvdArchive.cpp</text>
</a>
</g>
</g>
<!-- Node3&#45;&gt;Node7 -->
<g id="edge6" class="edge">
<title>Node3&#45;&gt;Node7</title>
<path fill="none" stroke="midnightblue" d="M705.81,-395.02C715.2,-385.34 726.02,-374.17 734.36,-365.58"/>
<polygon fill="midnightblue" stroke="midnightblue" points="703.12,-392.78 698.67,-402.4 708.14,-397.65 703.12,-392.78"/>
</g>
<!-- Node8 -->
<g id="node8" class="node">
<title>Node8</title>
<g id="a_node8"><a xlink:href="JKRDvdFile_8cpp.html" target="_top" xlink:title=" ">
<polygon fill="white" stroke="black" points="820.5,-335.5 820.5,-365.5 929.5,-365.5 929.5,-335.5 820.5,-335.5"/>
<text text-anchor="start" x="828.5" y="-353.5" font-family="Helvetica,sans-Serif" font-size="10.00">libs/JSystem/JKernel</text>
<text text-anchor="middle" x="875" y="-342.5" font-family="Helvetica,sans-Serif" font-size="10.00">/JKRDvdFile.cpp</text>
</a>
</g>
</g>
<!-- Node3&#45;&gt;Node8 -->
<g id="edge7" class="edge">
<title>Node3&#45;&gt;Node8</title>
<path fill="none" stroke="midnightblue" d="M735.89,-399.09C766.56,-388.6 805.11,-375.41 833.85,-365.58"/>
<polygon fill="midnightblue" stroke="midnightblue" points="734.56,-395.85 726.23,-402.4 736.82,-402.47 734.56,-395.85"/>
</g>
<!-- Node9 -->
<g id="node9" class="node">
<title>Node9</title>
<g id="a_node9"><a xlink:href="JKRDvdRipper_8cpp.html" target="_top" xlink:title=" ">
<polygon fill="white" stroke="black" points="947.5,-335.5 947.5,-365.5 1056.5,-365.5 1056.5,-335.5 947.5,-335.5"/>
<text text-anchor="start" x="955.5" y="-353.5" font-family="Helvetica,sans-Serif" font-size="10.00">libs/JSystem/JKernel</text>
<text text-anchor="middle" x="1002" y="-342.5" font-family="Helvetica,sans-Serif" font-size="10.00">/JKRDvdRipper.cpp</text>
</a>
</g>
</g>
<!-- Node3&#45;&gt;Node9 -->
<g id="edge8" class="edge">
<title>Node3&#45;&gt;Node9</title>
<path fill="none" stroke="midnightblue" d="M756.07,-402.82C806.83,-392.93 876.7,-379.06 938,-366 941.01,-365.36 944.09,-364.69 947.21,-364.01"/>
<polygon fill="midnightblue" stroke="midnightblue" points="755.33,-399.4 746.18,-404.75 756.67,-406.27 755.33,-399.4"/>
</g>
<!-- Node10 -->
<g id="node10" class="node">
<title>Node10</title>
<g id="a_node10"><a xlink:href="JKRExpHeap_8cpp.html" target="_top" xlink:title=" ">
<polygon fill="white" stroke="black" points="1074.5,-335.5 1074.5,-365.5 1183.5,-365.5 1183.5,-335.5 1074.5,-335.5"/>
<text text-anchor="start" x="1082.5" y="-353.5" font-family="Helvetica,sans-Serif" font-size="10.00">libs/JSystem/JKernel</text>
<text text-anchor="middle" x="1129" y="-342.5" font-family="Helvetica,sans-Serif" font-size="10.00">/JKRExpHeap.cpp</text>
</a>
</g>
</g>
<!-- Node3&#45;&gt;Node10 -->
<g id="edge9" class="edge">
<title>Node3&#45;&gt;Node10</title>
<path fill="none" stroke="midnightblue" d="M756.16,-409C832.73,-400.46 957.95,-385.2 1065,-366 1068.03,-365.46 1071.13,-364.87 1074.25,-364.25"/>
<polygon fill="midnightblue" stroke="midnightblue" points="755.7,-405.52 746.14,-410.1 756.47,-412.48 755.7,-405.52"/>
</g>
<!-- Node11 -->
<g id="node11" class="node">
<title>Node11</title>
<g id="a_node11"><a xlink:href="JKRHeap_8cpp.html" target="_top" xlink:title=" ">
<polygon fill="white" stroke="black" points="1201.5,-335.5 1201.5,-365.5 1310.5,-365.5 1310.5,-335.5 1201.5,-335.5"/>
<text text-anchor="start" x="1209.5" y="-353.5" font-family="Helvetica,sans-Serif" font-size="10.00">libs/JSystem/JKernel</text>
<text text-anchor="middle" x="1256" y="-342.5" font-family="Helvetica,sans-Serif" font-size="10.00">/JKRHeap.cpp</text>
</a>
</g>
</g>
<!-- Node3&#45;&gt;Node11 -->
<g id="edge10" class="edge">
<title>Node3&#45;&gt;Node11</title>
<path fill="none" stroke="midnightblue" d="M756.32,-412.18C854.78,-405.59 1037.68,-391.07 1192,-366 1195.04,-365.51 1198.14,-364.96 1201.27,-364.37"/>
<polygon fill="midnightblue" stroke="midnightblue" points="755.94,-408.7 746.19,-412.85 756.4,-415.69 755.94,-408.7"/>
</g>
<!-- Node12 -->
<g id="node12" class="node">
<title>Node12</title>
<g id="a_node12"><a xlink:href="JKRMemArchive_8cpp.html" target="_top" xlink:title=" ">
<polygon fill="white" stroke="black" points="148.5,-335.5 148.5,-365.5 259.5,-365.5 259.5,-335.5 148.5,-335.5"/>
<text text-anchor="start" x="156.5" y="-353.5" font-family="Helvetica,sans-Serif" font-size="10.00">libs/JSystem/JKernel</text>
<text text-anchor="middle" x="204" y="-342.5" font-family="Helvetica,sans-Serif" font-size="10.00">/JKRMemArchive.cpp</text>
</a>
</g>
</g>
<!-- Node3&#45;&gt;Node12 -->
<g id="edge11" class="edge">
<title>Node3&#45;&gt;Node12</title>
<path fill="none" stroke="midnightblue" d="M613.83,-410.12C530.57,-402.13 388.71,-386.93 268,-366 265.31,-365.53 262.55,-365.03 259.78,-364.49"/>
<polygon fill="midnightblue" stroke="midnightblue" points="613.66,-413.62 623.94,-411.08 614.32,-406.65 613.66,-413.62"/>
</g>
<!-- Node13 -->
<g id="node13" class="node">
<title>Node13</title>
<g id="a_node13"><a xlink:href="JUTException_8cpp.html" target="_top" xlink:title=" ">
<polygon fill="white" stroke="black" points="277,-335.5 277,-365.5 383,-365.5 383,-335.5 277,-335.5"/>
<text text-anchor="start" x="285" y="-353.5" font-family="Helvetica,sans-Serif" font-size="10.00">libs/JSystem/JUtility</text>
<text text-anchor="middle" x="330" y="-342.5" font-family="Helvetica,sans-Serif" font-size="10.00">/JUTException.cpp</text>
</a>
</g>
</g>
<!-- Node3&#45;&gt;Node13 -->
<g id="edge12" class="edge">
<title>Node3&#45;&gt;Node13</title>
<path fill="none" stroke="midnightblue" d="M613.69,-404.8C555.32,-395.03 470.66,-380.42 397,-366 392.56,-365.13 387.96,-364.2 383.35,-363.25"/>
<polygon fill="midnightblue" stroke="midnightblue" points="613.47,-408.31 623.91,-406.51 614.62,-401.41 613.47,-408.31"/>
</g>
<!-- Node14 -->
<g id="node14" class="node">
<title>Node14</title>
<g id="a_node14"><a xlink:href="m__Do__machine_8cpp.html" target="_top" xlink:title=" ">
<polygon fill="white" stroke="black" points="694.5,-78.5 694.5,-97.5 841.5,-97.5 841.5,-78.5 694.5,-78.5"/>
<text text-anchor="middle" x="768" y="-85.5" font-family="Helvetica,sans-Serif" font-size="10.00">src/m_Do/m_Do_machine.cpp</text>
</a>
</g>
</g>
<!-- Node3&#45;&gt;Node14 -->
<g id="edge13" class="edge">
<title>Node3&#45;&gt;Node14</title>
<path fill="none" stroke="midnightblue" d="M613.83,-410.97C547.73,-404.36 455.77,-390.92 430,-366 403.26,-340.14 411,-321.69 411,-284.5 411,-284.5 411,-284.5 411,-221 411,-157.32 613.38,-114.7 713.39,-97.53"/>
<polygon fill="midnightblue" stroke="midnightblue" points="613.5,-414.45 623.79,-411.93 614.17,-407.48 613.5,-414.45"/>
</g>
<!-- Node16 -->
<g id="node16" class="node">
<title>Node16</title>
<g id="a_node16"><a xlink:href="d__menu__window_8h.html" target="_top" xlink:title=" ">
<polygon fill="white" stroke="black" points="1691,-335.5 1691,-365.5 1811,-365.5 1811,-335.5 1691,-335.5"/>
<text text-anchor="start" x="1699" y="-353.5" font-family="Helvetica,sans-Serif" font-size="10.00">include/d/menu/d_menu</text>
<text text-anchor="middle" x="1751" y="-342.5" font-family="Helvetica,sans-Serif" font-size="10.00">_window.h</text>
</a>
</g>
</g>
<!-- Node15&#45;&gt;Node16 -->
<g id="edge15" class="edge">
<title>Node15&#45;&gt;Node16</title>
<path fill="none" stroke="midnightblue" d="M1519.48,-400.36C1572.43,-389.18 1641.94,-374.52 1690.93,-364.18"/>
<polygon fill="midnightblue" stroke="midnightblue" points="1518.51,-396.99 1509.45,-402.48 1519.96,-403.84 1518.51,-396.99"/>
</g>
<!-- Node84 -->
<g id="node43" class="node">
<title>Node84</title>
<g id="a_node43"><a xlink:href="m__Do__graphic_8cpp.html" target="_top" xlink:title=" ">
<polygon fill="white" stroke="black" points="1405,-78.5 1405,-97.5 1547,-97.5 1547,-78.5 1405,-78.5"/>
<text text-anchor="middle" x="1476" y="-85.5" font-family="Helvetica,sans-Serif" font-size="10.00">src/m_Do/m_Do_graphic.cpp</text>
</a>
</g>
</g>
<!-- Node15&#45;&gt;Node84 -->
<g id="edge59" class="edge">
<title>Node15&#45;&gt;Node84</title>
<path fill="none" stroke="midnightblue" d="M1523.73,-400.37C1575.71,-389.29 1635.16,-374.99 1644,-366 1670.07,-339.48 1663,-321.69 1663,-284.5 1663,-284.5 1663,-284.5 1663,-221 1663,-148.68 1568.48,-112.47 1513.84,-97.58"/>
<polygon fill="midnightblue" stroke="midnightblue" points="1522.85,-396.98 1513.79,-402.47 1524.3,-403.83 1522.85,-396.98"/>
</g>
<!-- Node86 -->
<g id="node44" class="node">
<title>Node86</title>
<g id="a_node44"><a xlink:href="m__Do__main_8cpp.html" target="_top" xlink:title=" ">
<polygon fill="white" stroke="black" points="1255.5,-78.5 1255.5,-97.5 1386.5,-97.5 1386.5,-78.5 1255.5,-78.5"/>
<text text-anchor="middle" x="1321" y="-85.5" font-family="Helvetica,sans-Serif" font-size="10.00">src/m_Do/m_Do_main.cpp</text>
</a>
</g>
</g>
<!-- Node15&#45;&gt;Node86 -->
<g id="edge60" class="edge">
<title>Node15&#45;&gt;Node86</title>
<path fill="none" stroke="midnightblue" d="M1418.44,-395.14C1410.21,-386.8 1401.69,-376.68 1396,-366 1378.52,-333.17 1377,-321.69 1377,-284.5 1377,-284.5 1377,-284.5 1377,-221 1377,-186.18 1372.02,-176.87 1358,-145 1350.02,-126.87 1336.32,-108.12 1328.02,-97.57"/>
<polygon fill="midnightblue" stroke="midnightblue" points="1416.2,-397.84 1425.83,-402.26 1421.06,-392.8 1416.2,-397.84"/>
</g>
<!-- Node87 -->
<g id="node45" class="node">
<title>Node87</title>
<g id="a_node45"><a xlink:href="d__lib_8cpp.html" target="_top" xlink:title=" ">
<polygon fill="white" stroke="black" points="1405,-341 1405,-360 1485,-360 1485,-341 1405,-341"/>
<text text-anchor="middle" x="1445" y="-348" font-family="Helvetica,sans-Serif" font-size="10.00">src/d/d_lib.cpp</text>
</a>
</g>
</g>
<!-- Node15&#45;&gt;Node87 -->
<g id="edge57" class="edge">
<title>Node15&#45;&gt;Node87</title>
<path fill="none" stroke="midnightblue" d="M1443.75,-392.25C1444.09,-381.02 1444.48,-368.38 1444.73,-360.19"/>
<polygon fill="midnightblue" stroke="midnightblue" points="1440.24,-392.29 1443.43,-402.4 1447.24,-392.51 1440.24,-392.29"/>
</g>
<!-- Node88 -->
<g id="node46" class="node">
<title>Node88</title>
<g id="a_node46"><a xlink:href="m__Do__controller__pad_8cpp.html" target="_top" xlink:title=" ">
<polygon fill="white" stroke="black" points="1503,-335.5 1503,-365.5 1635,-365.5 1635,-335.5 1503,-335.5"/>
<text text-anchor="start" x="1511" y="-353.5" font-family="Helvetica,sans-Serif" font-size="10.00">src/m_Do/m_Do_controller</text>
<text text-anchor="middle" x="1569" y="-342.5" font-family="Helvetica,sans-Serif" font-size="10.00">_pad.cpp</text>
</a>
</g>
</g>
<!-- Node15&#45;&gt;Node88 -->
<g id="edge58" class="edge">
<title>Node15&#45;&gt;Node88</title>
<path fill="none" stroke="midnightblue" d="M1479.42,-397.71C1499.29,-387.46 1523.48,-374.98 1541.71,-365.58"/>
<polygon fill="midnightblue" stroke="midnightblue" points="1477.62,-394.7 1470.34,-402.4 1480.83,-400.92 1477.62,-394.7"/>
</g>
<!-- Node17 -->
<g id="node17" class="node">
<title>Node17</title>
<g id="a_node17"><a xlink:href="d__meter2__info_8h.html" target="_top" xlink:title=" ">
<polygon fill="white" stroke="black" points="3754.5,-268.5 3754.5,-298.5 3881.5,-298.5 3881.5,-268.5 3754.5,-268.5"/>
<text text-anchor="start" x="3762.5" y="-286.5" font-family="Helvetica,sans-Serif" font-size="10.00">include/d/meter/d_meter2</text>
<text text-anchor="middle" x="3818" y="-275.5" font-family="Helvetica,sans-Serif" font-size="10.00">_info.h</text>
</a>
</g>
</g>
<!-- Node16&#45;&gt;Node17 -->
<g id="edge16" class="edge">
<title>Node16&#45;&gt;Node17</title>
<path fill="none" stroke="midnightblue" d="M1821.22,-347.21C2140.21,-337 3449.82,-295.82 3754.49,-286.42"/>
<polygon fill="midnightblue" stroke="midnightblue" points="1821.07,-343.71 1811.19,-347.53 1821.29,-350.71 1821.07,-343.71"/>
</g>
<!-- Node44 -->
<g id="node31" class="node">
<title>Node44</title>
<g id="a_node31"><a xlink:href="d__menu__window_8cpp.html" target="_top" xlink:title=" ">
<polygon fill="white" stroke="black" points="3165.5,-6 3165.5,-25 3324.5,-25 3324.5,-6 3165.5,-6"/>
<text text-anchor="middle" x="3245" y="-13" font-family="Helvetica,sans-Serif" font-size="10.00">src/d/menu/d_menu_window.cpp</text>
</a>
</g>
</g>
<!-- Node16&#45;&gt;Node44 -->
<g id="edge55" class="edge">
<title>Node16&#45;&gt;Node44</title>
<path fill="none" stroke="midnightblue" d="M1749.17,-325.28C1747.4,-299.83 1745,-258.62 1745,-223 1745,-223 1745,-223 1745,-159.5 1745,-117.53 1731.93,-94.07 1764,-67 1817.86,-21.53 2865.18,-16.9 3165.28,-16.51"/>
<polygon fill="midnightblue" stroke="midnightblue" points="1745.69,-325.75 1749.9,-335.47 1752.67,-325.25 1745.69,-325.75"/>
</g>
<!-- Node46 -->
<g id="node33" class="node">
<title>Node46</title>
<g id="a_node33"><a xlink:href="d__meter__map_8cpp.html" target="_top" xlink:title=" ">
<polygon fill="white" stroke="black" points="2015,-0.5 2015,-30.5 2119,-30.5 2119,-0.5 2015,-0.5"/>
<text text-anchor="start" x="2023" y="-18.5" font-family="Helvetica,sans-Serif" font-size="10.00">src/d/meter/d_meter</text>
<text text-anchor="middle" x="2067" y="-7.5" font-family="Helvetica,sans-Serif" font-size="10.00">_map.cpp</text>
</a>
</g>
</g>
<!-- Node16&#45;&gt;Node46 -->
<g id="edge56" class="edge">
<title>Node16&#45;&gt;Node46</title>
<path fill="none" stroke="midnightblue" d="M1737.66,-326.3C1724.72,-301.54 1707,-260.77 1707,-223 1707,-223 1707,-223 1707,-159.5 1707,-117.03 1699.44,-95.42 1731,-67 1771.82,-30.24 1931.09,-20.24 2014.85,-17.52"/>
<polygon fill="midnightblue" stroke="midnightblue" points="1734.68,-328.13 1742.52,-335.26 1740.84,-324.8 1734.68,-328.13"/>
</g>
<!-- Node17&#45;&gt;Node16 -->
<g id="edge50" class="edge">
<title>Node17&#45;&gt;Node16</title>
<path fill="none" stroke="midnightblue" d="M3744.08,-286.91C3417.58,-297.35 2108.25,-338.52 1811.14,-347.69"/>
<polygon fill="midnightblue" stroke="midnightblue" points="3744.48,-290.4 3754.36,-286.58 3744.26,-283.4 3744.48,-290.4"/>
</g>
<!-- Node18 -->
<g id="node18" class="node">
<title>Node18</title>
<g id="a_node18"><a xlink:href="d__a__alink_8h.html" target="_top" xlink:title=" ">
<polygon fill="white" stroke="black" points="3717,-212.5 3717,-231.5 3833,-231.5 3833,-212.5 3717,-212.5"/>
<text text-anchor="middle" x="3775" y="-219.5" font-family="Helvetica,sans-Serif" font-size="10.00">include/d/a/d_a_alink.h</text>
</a>
</g>
</g>
<!-- Node17&#45;&gt;Node18 -->
<g id="edge17" class="edge">
<title>Node17&#45;&gt;Node18</title>
<path fill="none" stroke="midnightblue" d="M3801.81,-260.1C3794.65,-250.19 3786.64,-239.11 3781.26,-231.66"/>
<polygon fill="midnightblue" stroke="midnightblue" points="3799.12,-262.34 3807.81,-268.4 3804.79,-258.24 3799.12,-262.34"/>
</g>
<!-- Node28 -->
<g id="node23" class="node">
<title>Node28</title>
<g id="a_node23"><a xlink:href="d__com__inf__game_8cpp.html" target="_top" xlink:title=" ">
<polygon fill="white" stroke="black" points="3607,-0.5 3607,-30.5 3715,-30.5 3715,-0.5 3607,-0.5"/>
<text text-anchor="start" x="3615" y="-18.5" font-family="Helvetica,sans-Serif" font-size="10.00">src/d/com/d_com_inf</text>
<text text-anchor="middle" x="3661" y="-7.5" font-family="Helvetica,sans-Serif" font-size="10.00">_game.cpp</text>
</a>
</g>
</g>
<!-- Node17&#45;&gt;Node28 -->
<g id="edge51" class="edge">
<title>Node17&#45;&gt;Node28</title>
<path fill="none" stroke="midnightblue" d="M3891.69,-271.92C3937.75,-263.64 3990.9,-250.41 4005,-232 4049.59,-173.78 4052.94,-122.49 4005,-67 3986.33,-45.39 3807.27,-28.13 3715.16,-20.6"/>
<polygon fill="midnightblue" stroke="midnightblue" points="3890.94,-268.5 3881.69,-273.67 3892.14,-275.4 3890.94,-268.5"/>
</g>
<!-- Node29 -->
<g id="node24" class="node">
<title>Node29</title>
<g id="a_node24"><a xlink:href="d__item_8cpp.html" target="_top" xlink:title=" ">
<polygon fill="white" stroke="black" points="3880.5,-6 3880.5,-25 3969.5,-25 3969.5,-6 3880.5,-6"/>
<text text-anchor="middle" x="3925" y="-13" font-family="Helvetica,sans-Serif" font-size="10.00">src/d/d_item.cpp</text>
</a>
</g>
</g>
<!-- Node17&#45;&gt;Node29 -->
<g id="edge52" class="edge">
<title>Node17&#45;&gt;Node29</title>
<path fill="none" stroke="midnightblue" d="M3891.86,-275.78C3949.99,-268.79 4024.21,-255.48 4043,-232 4088.83,-174.75 4083.38,-128.21 4043,-67 4026.74,-42.36 3995.7,-29.69 3969.54,-23.21"/>
<polygon fill="midnightblue" stroke="midnightblue" points="3891.11,-272.35 3881.58,-276.98 3891.92,-279.3 3891.11,-272.35"/>
</g>
<!-- Node45 -->
<g id="node32" class="node">
<title>Node45</title>
<g id="a_node32"><a xlink:href="d__meter2__info_8cpp.html" target="_top" xlink:title=" ">
<polygon fill="white" stroke="black" points="3479,-0.5 3479,-30.5 3589,-30.5 3589,-0.5 3479,-0.5"/>
<text text-anchor="start" x="3487" y="-18.5" font-family="Helvetica,sans-Serif" font-size="10.00">src/d/meter/d_meter2</text>
<text text-anchor="middle" x="3534" y="-7.5" font-family="Helvetica,sans-Serif" font-size="10.00">_info.cpp</text>
</a>
</g>
</g>
<!-- Node17&#45;&gt;Node45 -->
<g id="edge53" class="edge">
<title>Node17&#45;&gt;Node45</title>
<path fill="none" stroke="midnightblue" d="M3850.41,-262.88C3911.49,-223.59 4032.27,-133.34 3972,-67 3943.93,-36.1 3639.22,-37.63 3598,-31 3595.08,-30.53 3592.08,-30.01 3589.07,-29.44"/>
<polygon fill="midnightblue" stroke="midnightblue" points="3848.44,-259.99 3841.87,-268.3 3852.19,-265.9 3848.44,-259.99"/>
</g>
<!-- Node78 -->
<g id="node42" class="node">
<title>Node78</title>
<g id="a_node42"><a xlink:href="d__save_8cpp.html" target="_top" xlink:title=" ">
<polygon fill="white" stroke="black" points="3847.5,-78.5 3847.5,-97.5 3962.5,-97.5 3962.5,-78.5 3847.5,-78.5"/>
<text text-anchor="middle" x="3905" y="-85.5" font-family="Helvetica,sans-Serif" font-size="10.00">src/d/save/d_save.cpp</text>
</a>
</g>
</g>
<!-- Node17&#45;&gt;Node78 -->
<g id="edge54" class="edge">
<title>Node17&#45;&gt;Node78</title>
<path fill="none" stroke="midnightblue" d="M3829.17,-259.37C3833.26,-250.79 3837.89,-240.98 3842,-232 3865.15,-181.43 3891.62,-120.15 3901.25,-97.74"/>
<polygon fill="midnightblue" stroke="midnightblue" points="3826,-257.87 3824.83,-268.4 3832.31,-260.9 3826,-257.87"/>
</g>
<!-- Node19 -->
<g id="node19" class="node">
<title>Node19</title>
<g id="a_node19"><a xlink:href="d__com__inf__game_8h.html" target="_top" xlink:title=" ">
<polygon fill="white" stroke="red" points="2768,-145.5 2768,-175.5 2878,-175.5 2878,-145.5 2768,-145.5"/>
<text text-anchor="start" x="2776" y="-163.5" font-family="Helvetica,sans-Serif" font-size="10.00">include/d/com/d_com</text>
<text text-anchor="middle" x="2823" y="-152.5" font-family="Helvetica,sans-Serif" font-size="10.00">_inf_game.h</text>
</a>
</g>
</g>
<!-- Node18&#45;&gt;Node19 -->
<g id="edge18" class="edge">
<title>Node18&#45;&gt;Node19</title>
<path fill="none" stroke="midnightblue" d="M3706.75,-216.73C3526.88,-205.49 3042.43,-175.21 2878.27,-164.95"/>
<polygon fill="midnightblue" stroke="midnightblue" points="3706.68,-220.24 3716.88,-217.37 3707.12,-213.25 3706.68,-220.24"/>
</g>
<!-- Node56 -->
<g id="node39" class="node">
<title>Node56</title>
<g id="a_node39"><a xlink:href="d__a__alink_8cpp.html" target="_top" xlink:title=" ">
<polygon fill="white" stroke="black" points="3720.5,-78.5 3720.5,-97.5 3829.5,-97.5 3829.5,-78.5 3720.5,-78.5"/>
<text text-anchor="middle" x="3775" y="-85.5" font-family="Helvetica,sans-Serif" font-size="10.00">src/d/a/d_a_alink.cpp</text>
</a>
</g>
</g>
<!-- Node18&#45;&gt;Node56 -->
<g id="edge49" class="edge">
<title>Node18&#45;&gt;Node56</title>
<path fill="none" stroke="midnightblue" d="M3775,-202.28C3775,-173.25 3775,-118.54 3775,-97.52"/>
<polygon fill="midnightblue" stroke="midnightblue" points="3771.5,-202.34 3775,-212.34 3778.5,-202.34 3771.5,-202.34"/>
</g>
<!-- Node20 -->
<g id="node20" class="node">
<title>Node20</title>
<g id="a_node20"><a xlink:href="d__a__npc_8h.html" target="_top" xlink:title=" ">
<polygon fill="white" stroke="red" points="3401.5,-78.5 3401.5,-97.5 3512.5,-97.5 3512.5,-78.5 3401.5,-78.5"/>
<text text-anchor="middle" x="3457" y="-85.5" font-family="Helvetica,sans-Serif" font-size="10.00">include/d/a/d_a_npc.h</text>
</a>
</g>
</g>
<!-- Node19&#45;&gt;Node20 -->
<g id="edge19" class="edge">
<title>Node19&#45;&gt;Node20</title>
<path fill="none" stroke="midnightblue" d="M2888.33,-158.15C2994.78,-154.95 3211.87,-144.3 3392,-109 3406.02,-106.25 3421.31,-101.63 3433.53,-97.53"/>
<polygon fill="midnightblue" stroke="midnightblue" points="2887.96,-154.66 2878.07,-158.44 2888.16,-161.65 2887.96,-154.66"/>
</g>
<!-- Node25 -->
<g id="node21" class="node">
<title>Node25</title>
<g id="a_node21"><a xlink:href="d__cc__uty_8h.html" target="_top" xlink:title=" ">
<polygon fill="white" stroke="red" points="3097.5,-78.5 3097.5,-97.5 3216.5,-97.5 3216.5,-78.5 3097.5,-78.5"/>
<text text-anchor="middle" x="3157" y="-85.5" font-family="Helvetica,sans-Serif" font-size="10.00">include/d/cc/d_cc_uty.h</text>
</a>
</g>
</g>
<!-- Node19&#45;&gt;Node25 -->
<g id="edge20" class="edge">
<title>Node19&#45;&gt;Node25</title>
<path fill="none" stroke="midnightblue" d="M2888.23,-148.83C2942.1,-139.59 3020.4,-125.2 3088,-109 3101.83,-105.69 3117.02,-101.36 3129.63,-97.58"/>
<polygon fill="midnightblue" stroke="midnightblue" points="2887.4,-145.42 2878.13,-150.55 2888.58,-152.32 2887.4,-145.42"/>
</g>
<!-- Node27 -->
<g id="node22" class="node">
<title>Node27</title>
<g id="a_node22"><a xlink:href="d__item_8h.html" target="_top" xlink:title=" ">
<polygon fill="white" stroke="red" points="3607.5,-78.5 3607.5,-97.5 3702.5,-97.5 3702.5,-78.5 3607.5,-78.5"/>
<text text-anchor="middle" x="3655" y="-85.5" font-family="Helvetica,sans-Serif" font-size="10.00">include/d/d_item.h</text>
</a>
</g>
</g>
<!-- Node19&#45;&gt;Node27 -->
<g id="edge21" class="edge">
<title>Node19&#45;&gt;Node27</title>
<path fill="none" stroke="midnightblue" d="M2888.45,-157.28C3048.94,-151.51 3458.69,-134.66 3593,-109 3606.55,-106.41 3621.27,-101.75 3632.96,-97.57"/>
<polygon fill="midnightblue" stroke="midnightblue" points="2888.12,-153.79 2878.25,-157.65 2888.37,-160.79 2888.12,-153.79"/>
</g>
<!-- Node19&#45;&gt;Node28 -->
<g id="edge41" class="edge">
<title>Node19&#45;&gt;Node28</title>
<path fill="none" stroke="midnightblue" d="M2888.29,-159.82C3042.53,-159.78 3425.4,-154.93 3544,-109 3549.8,-106.76 3612.71,-55.85 3643.81,-30.53"/>
<polygon fill="midnightblue" stroke="midnightblue" points="2888.02,-156.32 2878.02,-159.81 2888.02,-163.32 2888.02,-156.32"/>
</g>
<!-- Node31 -->
<g id="node25" class="node">
<title>Node31</title>
<g id="a_node25"><a xlink:href="d__kantera__icon__meter_8h.html" target="_top" xlink:title=" ">
<polygon fill="white" stroke="red" points="2095.5,-73 2095.5,-103 2196.5,-103 2196.5,-73 2095.5,-73"/>
<text text-anchor="start" x="2103.5" y="-91" font-family="Helvetica,sans-Serif" font-size="10.00">include/d/d_kantera</text>
<text text-anchor="middle" x="2146" y="-80" font-family="Helvetica,sans-Serif" font-size="10.00">_icon_meter.h</text>
</a>
</g>
</g>
<!-- Node19&#45;&gt;Node31 -->
<g id="edge24" class="edge">
<title>Node19&#45;&gt;Node31</title>
<path fill="none" stroke="midnightblue" d="M2757.66,-159.28C2644.24,-157.75 2404.09,-149.51 2206,-109 2198.68,-107.5 2191.02,-105.39 2183.71,-103.1"/>
<polygon fill="midnightblue" stroke="midnightblue" points="2757.86,-162.78 2767.9,-159.4 2757.95,-155.78 2757.86,-162.78"/>
</g>
<!-- Node34 -->
<g id="node26" class="node">
<title>Node34</title>
<g id="a_node26"><a xlink:href="d__model_8h.html" target="_top" xlink:title=" ">
<polygon fill="white" stroke="red" points="2214.5,-78.5 2214.5,-97.5 2317.5,-97.5 2317.5,-78.5 2214.5,-78.5"/>
<text text-anchor="middle" x="2266" y="-85.5" font-family="Helvetica,sans-Serif" font-size="10.00">include/d/d_model.h</text>
</a>
</g>
</g>
<!-- Node19&#45;&gt;Node34 -->
<g id="edge25" class="edge">
<title>Node19&#45;&gt;Node34</title>
<path fill="none" stroke="midnightblue" d="M2757.63,-157.32C2662.1,-153.13 2479.15,-141.29 2327,-109 2313.92,-106.22 2299.7,-101.66 2288.28,-97.59"/>
<polygon fill="midnightblue" stroke="midnightblue" points="2757.58,-160.82 2767.72,-157.75 2757.88,-153.83 2757.58,-160.82"/>
</g>
<!-- Node36 -->
<g id="node27" class="node">
<title>Node36</title>
<g id="a_node27"><a xlink:href="d__name_8h.html" target="_top" xlink:title=" ">
<polygon fill="white" stroke="red" points="2335.5,-78.5 2335.5,-97.5 2436.5,-97.5 2436.5,-78.5 2335.5,-78.5"/>
<text text-anchor="middle" x="2386" y="-85.5" font-family="Helvetica,sans-Serif" font-size="10.00">include/d/d_name.h</text>
</a>
</g>
</g>
<!-- Node19&#45;&gt;Node36 -->
<g id="edge26" class="edge">
<title>Node19&#45;&gt;Node36</title>
<path fill="none" stroke="midnightblue" d="M2757.45,-154.5C2681.71,-147.84 2553.68,-133.92 2446,-109 2433.27,-106.05 2419.41,-101.52 2408.22,-97.52"/>
<polygon fill="midnightblue" stroke="midnightblue" points="2757.52,-158.01 2767.79,-155.39 2758.12,-151.04 2757.52,-158.01"/>
</g>
<!-- Node38 -->
<g id="node28" class="node">
<title>Node38</title>
<g id="a_node28"><a xlink:href="d__file__sel__info_8h.html" target="_top" xlink:title=" ">
<polygon fill="white" stroke="red" points="2455,-73 2455,-103 2551,-103 2551,-73 2455,-73"/>
<text text-anchor="start" x="2463" y="-91" font-family="Helvetica,sans-Serif" font-size="10.00">include/d/file/d_file</text>
<text text-anchor="middle" x="2503" y="-80" font-family="Helvetica,sans-Serif" font-size="10.00">_sel_info.h</text>
</a>
</g>
</g>
<!-- Node19&#45;&gt;Node38 -->
<g id="edge27" class="edge">
<title>Node19&#45;&gt;Node38</title>
<path fill="none" stroke="midnightblue" d="M2757.78,-149.57C2704.41,-140.81 2627.22,-126.7 2561,-109 2554.52,-107.27 2547.71,-105.18 2541.14,-103.01"/>
<polygon fill="midnightblue" stroke="midnightblue" points="2757.36,-153.05 2767.79,-151.19 2758.48,-146.14 2757.36,-153.05"/>
</g>
<!-- Node40 -->
<g id="node29" class="node">
<title>Node40</title>
<g id="a_node29"><a xlink:href="d__meter2_8h.html" target="_top" xlink:title=" ">
<polygon fill="white" stroke="red" points="1773,-78.5 1773,-97.5 1907,-97.5 1907,-78.5 1773,-78.5"/>
<text text-anchor="middle" x="1840" y="-85.5" font-family="Helvetica,sans-Serif" font-size="10.00">include/d/meter/d_meter2.h</text>
</a>
</g>
</g>
<!-- Node19&#45;&gt;Node40 -->
<g id="edge28" class="edge">
<title>Node19&#45;&gt;Node40</title>
<path fill="none" stroke="midnightblue" d="M2757.64,-157.54C2577.97,-151.89 2079.23,-134.33 1917,-109 1900.35,-106.4 1882.08,-101.74 1867.52,-97.57"/>
<polygon fill="midnightblue" stroke="midnightblue" points="2757.63,-161.04 2767.74,-157.86 2757.85,-154.05 2757.63,-161.04"/>
</g>
<!-- Node42 -->
<g id="node30" class="node">
<title>Node42</title>
<g id="a_node30"><a xlink:href="d__msg__object_8h.html" target="_top" xlink:title=" ">
<polygon fill="white" stroke="red" points="3273,-73 3273,-103 3383,-103 3383,-73 3273,-73"/>
<text text-anchor="start" x="3281" y="-91" font-family="Helvetica,sans-Serif" font-size="10.00">include/d/msg/d_msg</text>
<text text-anchor="middle" x="3328" y="-80" font-family="Helvetica,sans-Serif" font-size="10.00">_object.h</text>
</a>
</g>
</g>
<!-- Node19&#45;&gt;Node42 -->
<g id="edge30" class="edge">
<title>Node19&#45;&gt;Node42</title>
<path fill="none" stroke="midnightblue" d="M2888.28,-155.35C2974.01,-149.13 3128.89,-135.2 3259,-109 3267.07,-107.37 3275.56,-105.26 3283.73,-103.01"/>
<polygon fill="midnightblue" stroke="midnightblue" points="2887.91,-151.87 2878.18,-156.07 2888.4,-158.85 2887.91,-151.87"/>
</g>
<!-- Node19&#45;&gt;Node44 -->
<g id="edge42" class="edge">
<title>Node19&#45;&gt;Node44</title>
<path fill="none" stroke="midnightblue" d="M2888.31,-160.22C2989.68,-159.91 3178.21,-153.21 3226,-109 3249.83,-86.96 3248.16,-43.68 3246.19,-25.2"/>
<polygon fill="midnightblue" stroke="midnightblue" points="2888.18,-156.72 2878.19,-160.23 2888.19,-163.72 2888.18,-156.72"/>
</g>
<!-- Node19&#45;&gt;Node45 -->
<g id="edge43" class="edge">
<title>Node19&#45;&gt;Node45</title>
<path fill="none" stroke="midnightblue" d="M2888.1,-159.39C3052.85,-158.49 3476.52,-151.97 3522,-109 3543.19,-88.98 3540.51,-51.38 3537.06,-30.82"/>
<polygon fill="midnightblue" stroke="midnightblue" points="2888.08,-155.89 2878.1,-159.44 2888.12,-162.89 2888.08,-155.89"/>
</g>
<!-- Node19&#45;&gt;Node46 -->
<g id="edge44" class="edge">
<title>Node19&#45;&gt;Node46</title>
<path fill="none" stroke="midnightblue" d="M2757.69,-157.14C2582.24,-150.5 2112.18,-130.78 2087,-109 2064.51,-89.54 2063.82,-51.36 2065.35,-30.66"/>
<polygon fill="midnightblue" stroke="midnightblue" points="2757.69,-160.64 2767.82,-157.52 2757.96,-153.64 2757.69,-160.64"/>
</g>
<!-- Node49 -->
<g id="node34" class="node">
<title>Node49</title>
<g id="a_node34"><a xlink:href="d__s__logo_8h.html" target="_top" xlink:title=" ">
<polygon fill="white" stroke="black" points="1925.5,-78.5 1925.5,-97.5 2038.5,-97.5 2038.5,-78.5 1925.5,-78.5"/>
<text text-anchor="middle" x="1982" y="-85.5" font-family="Helvetica,sans-Serif" font-size="10.00">include/d/s/d_s_logo.h</text>
</a>
</g>
</g>
<!-- Node19&#45;&gt;Node49 -->
<g id="edge34" class="edge">
<title>Node19&#45;&gt;Node49</title>
<path fill="none" stroke="midnightblue" d="M2757.87,-159.8C2624.56,-159.41 2311.33,-153.35 2053,-109 2037.6,-106.36 2020.76,-101.69 2007.34,-97.53"/>
<polygon fill="midnightblue" stroke="midnightblue" points="2757.92,-163.3 2767.92,-159.82 2757.93,-156.3 2757.92,-163.3"/>
</g>
<!-- Node51 -->
<g id="node36" class="node">
<title>Node51</title>
<g id="a_node36"><a xlink:href="d__s__play_8h.html" target="_top" xlink:title=" ">
<polygon fill="white" stroke="red" points="2569.5,-78.5 2569.5,-97.5 2682.5,-97.5 2682.5,-78.5 2569.5,-78.5"/>
<text text-anchor="middle" x="2626" y="-85.5" font-family="Helvetica,sans-Serif" font-size="10.00">include/d/s/d_s_play.h</text>
</a>
</g>
</g>
<!-- Node19&#45;&gt;Node51 -->
<g id="edge36" class="edge">
<title>Node19&#45;&gt;Node51</title>
<path fill="none" stroke="midnightblue" d="M2774.14,-142.01C2734.56,-127.85 2680.52,-108.51 2649.85,-97.53"/>
<polygon fill="midnightblue" stroke="midnightblue" points="2773.01,-145.33 2783.61,-145.4 2775.37,-138.74 2773.01,-145.33"/>
</g>
<!-- Node54 -->
<g id="node37" class="node">
<title>Node54</title>
<g id="a_node37"><a xlink:href="d__a__tag__telop_8h.html" target="_top" xlink:title=" ">
<polygon fill="white" stroke="black" points="2701,-67.5 2701,-108.5 2819,-108.5 2819,-67.5 2701,-67.5"/>
<text text-anchor="start" x="2709" y="-96.5" font-family="Helvetica,sans-Serif" font-size="10.00">include/rel/d/a/tag</text>
<text text-anchor="start" x="2709" y="-85.5" font-family="Helvetica,sans-Serif" font-size="10.00">/d_a_tag_telop/d_a_tag</text>
<text text-anchor="middle" x="2760" y="-74.5" font-family="Helvetica,sans-Serif" font-size="10.00">_telop.h</text>
</a>
</g>
</g>
<!-- Node19&#45;&gt;Node54 -->
<g id="edge37" class="edge">
<title>Node19&#45;&gt;Node54</title>
<path fill="none" stroke="midnightblue" d="M2803.38,-137.54C2795.1,-128.28 2785.54,-117.58 2777.5,-108.59"/>
<polygon fill="midnightblue" stroke="midnightblue" points="2800.98,-140.11 2810.25,-145.23 2806.2,-135.44 2800.98,-140.11"/>
</g>
<!-- Node55 -->
<g id="node38" class="node">
<title>Node55</title>
<g id="a_node38"><a xlink:href="c__dylink_8cpp.html" target="_top" xlink:title=" ">
<polygon fill="white" stroke="black" points="2837.5,-78.5 2837.5,-97.5 2932.5,-97.5 2932.5,-78.5 2837.5,-78.5"/>
<text text-anchor="middle" x="2885" y="-85.5" font-family="Helvetica,sans-Serif" font-size="10.00">src/c/c_dylink.cpp</text>
</a>
</g>
</g>
<!-- Node19&#45;&gt;Node55 -->
<g id="edge38" class="edge">
<title>Node19&#45;&gt;Node55</title>
<path fill="none" stroke="midnightblue" d="M2842.45,-137.38C2854.19,-124.04 2868.51,-107.76 2877.18,-97.89"/>
<polygon fill="midnightblue" stroke="midnightblue" points="2839.52,-135.41 2835.55,-145.23 2844.78,-140.04 2839.52,-135.41"/>
</g>
<!-- Node19&#45;&gt;Node56 -->
<g id="edge39" class="edge">
<title>Node19&#45;&gt;Node56</title>
<path fill="none" stroke="midnightblue" d="M2888.41,-157.91C3065.91,-153.25 3553.9,-138.11 3712,-109 3725.88,-106.44 3740.97,-101.73 3752.9,-97.52"/>
<polygon fill="midnightblue" stroke="midnightblue" points="2888.08,-154.42 2878.18,-158.17 2888.27,-161.41 2888.08,-154.42"/>
</g>
<!-- Node57 -->
<g id="node40" class="node">
<title>Node57</title>
<g id="a_node40"><a xlink:href="d__a__itembase_8cpp.html" target="_top" xlink:title=" ">
<polygon fill="white" stroke="black" points="2951,-78.5 2951,-97.5 3079,-97.5 3079,-78.5 2951,-78.5"/>
<text text-anchor="middle" x="3015" y="-85.5" font-family="Helvetica,sans-Serif" font-size="10.00">src/d/a/d_a_itembase.cpp</text>
</a>
</g>
</g>
<!-- Node19&#45;&gt;Node57 -->
<g id="edge40" class="edge">
<title>Node19&#45;&gt;Node57</title>
<path fill="none" stroke="midnightblue" d="M2870.87,-141.92C2909.41,-127.77 2961.92,-108.49 2991.76,-97.53"/>
<polygon fill="midnightblue" stroke="midnightblue" points="2869.57,-138.67 2861.39,-145.4 2871.99,-145.24 2869.57,-138.67"/>
</g>
<!-- Node76 -->
<g id="node41" class="node">
<title>Node76</title>
<g id="a_node41"><a xlink:href="d__s__name_8cpp.html" target="_top" xlink:title=" ">
<polygon fill="white" stroke="black" points="1565.5,-78.5 1565.5,-97.5 1678.5,-97.5 1678.5,-78.5 1565.5,-78.5"/>
<text text-anchor="middle" x="1622" y="-85.5" font-family="Helvetica,sans-Serif" font-size="10.00">src/d/s/d_s_name.cpp</text>
</a>
</g>
</g>
<!-- Node19&#45;&gt;Node76 -->
<g id="edge45" class="edge">
<title>Node19&#45;&gt;Node76</title>
<path fill="none" stroke="midnightblue" d="M2757.69,-158.48C2591.5,-155.43 2139.15,-144.29 1764,-109 1734.13,-106.19 1700.92,-101.59 1674.13,-97.52"/>
<polygon fill="midnightblue" stroke="midnightblue" points="2757.69,-161.98 2767.75,-158.66 2757.81,-154.98 2757.69,-161.98"/>
</g>
<!-- Node19&#45;&gt;Node78 -->
<g id="edge46" class="edge">
<title>Node19&#45;&gt;Node78</title>
<path fill="none" stroke="midnightblue" d="M2888.18,-158.34C3082.4,-154.56 3655.13,-140.93 3839,-109 3853.51,-106.48 3869.31,-101.76 3881.82,-97.55"/>
<polygon fill="midnightblue" stroke="midnightblue" points="2888.05,-154.84 2878.12,-158.53 2888.19,-161.84 2888.05,-154.84"/>
</g>
<!-- Node19&#45;&gt;Node84 -->
<g id="edge47" class="edge">
<title>Node19&#45;&gt;Node84</title>
<path fill="none" stroke="midnightblue" d="M2757.38,-158.63C2532.27,-155.39 1792.28,-142.39 1557,-109 1539.36,-106.5 1519.97,-101.78 1504.59,-97.56"/>
<polygon fill="midnightblue" stroke="midnightblue" points="2757.66,-162.14 2767.71,-158.78 2757.76,-155.14 2757.66,-162.14"/>
</g>
<!-- Node19&#45;&gt;Node86 -->
<g id="edge48" class="edge">
<title>Node19&#45;&gt;Node86</title>
<path fill="none" stroke="midnightblue" d="M2757.72,-159.14C2514.89,-157.5 1664,-148.95 1396,-109 1379.47,-106.54 1361.36,-101.77 1347.07,-97.5"/>
<polygon fill="midnightblue" stroke="midnightblue" points="2757.78,-162.64 2767.8,-159.21 2757.83,-155.64 2757.78,-162.64"/>
</g>
<!-- Node27&#45;&gt;Node28 -->
<g id="edge22" class="edge">
<title>Node27&#45;&gt;Node28</title>
<path fill="none" stroke="midnightblue" d="M3656.6,-68.24C3657.6,-56.41 3658.88,-41.38 3659.8,-30.58"/>
<polygon fill="midnightblue" stroke="midnightblue" points="3653.1,-68.09 3655.74,-78.36 3660.07,-68.69 3653.1,-68.09"/>
</g>
<!-- Node27&#45;&gt;Node29 -->
<g id="edge23" class="edge">
<title>Node27&#45;&gt;Node29</title>
<path fill="none" stroke="midnightblue" d="M3687.05,-75.09C3695.14,-72.27 3703.84,-69.39 3712,-67 3770.9,-49.74 3840.25,-34.16 3883.43,-25.01"/>
<polygon fill="midnightblue" stroke="midnightblue" points="3685.81,-71.82 3677.57,-78.47 3688.16,-78.41 3685.81,-71.82"/>
</g>
<!-- Node40&#45;&gt;Node17 -->
<g id="edge29" class="edge">
<title>Node40&#45;&gt;Node17</title>
<path fill="none" stroke="midnightblue" d="M1878.21,-100.24C1890.5,-103.5 1904.24,-106.78 1917,-109 2631.18,-233.48 3512.87,-271.91 3754.33,-280.46"/>
<polygon fill="midnightblue" stroke="midnightblue" points="1878.85,-96.78 1868.28,-97.53 1877.01,-103.54 1878.85,-96.78"/>
</g>
<!-- Node42&#45;&gt;Node44 -->
<g id="edge31" class="edge">
<title>Node42&#45;&gt;Node44</title>
<path fill="none" stroke="midnightblue" d="M3303.29,-66.01C3287.34,-52.46 3267.41,-35.53 3255.47,-25.39"/>
<polygon fill="midnightblue" stroke="midnightblue" points="3301.32,-68.93 3311.2,-72.73 3305.85,-63.59 3301.32,-68.93"/>
</g>
<!-- Node42&#45;&gt;Node45 -->
<g id="edge32" class="edge">
<title>Node42&#45;&gt;Node45</title>
<path fill="none" stroke="midnightblue" d="M3378.79,-69.62C3413.91,-57.6 3460.06,-41.81 3492.88,-30.57"/>
<polygon fill="midnightblue" stroke="midnightblue" points="3377.52,-66.35 3369.19,-72.9 3379.79,-72.98 3377.52,-66.35"/>
</g>
<!-- Node42&#45;&gt;Node46 -->
<g id="edge33" class="edge">
<title>Node42&#45;&gt;Node46</title>
<path fill="none" stroke="midnightblue" d="M3262.82,-72.71C3250.64,-70.47 3237.97,-68.43 3226,-67 2801.02,-16.37 2282.99,-15 2119.21,-15.99"/>
<polygon fill="midnightblue" stroke="midnightblue" points="3262.44,-76.2 3272.92,-74.63 3263.75,-69.32 3262.44,-76.2"/>
</g>
<!-- Node50 -->
<g id="node35" class="node">
<title>Node50</title>
<g id="a_node35"><a xlink:href="d__s__logo_8cpp.html" target="_top" xlink:title=" ">
<polygon fill="white" stroke="black" points="1531.5,-6 1531.5,-25 1638.5,-25 1638.5,-6 1531.5,-6"/>
<text text-anchor="middle" x="1585" y="-13" font-family="Helvetica,sans-Serif" font-size="10.00">src/d/s/d_s_logo.cpp</text>
</a>
</g>
</g>
<!-- Node49&#45;&gt;Node50 -->
<g id="edge35" class="edge">
<title>Node49&#45;&gt;Node50</title>
<path fill="none" stroke="midnightblue" d="M1947.23,-75.45C1937.22,-72.4 1926.25,-69.32 1916,-67 1819.34,-45.1 1704.61,-29.97 1638.76,-22.31"/>
<polygon fill="midnightblue" stroke="midnightblue" points="1946.25,-78.81 1956.84,-78.45 1948.34,-72.13 1946.25,-78.81"/>
</g>
<!-- Node89&#45;&gt;Node14 -->
<g id="edge65" class="edge">
<title>Node89&#45;&gt;Node14</title>
<path fill="none" stroke="midnightblue" d="M1201.26,-149.6C1101.93,-135.71 922.8,-110.65 829.01,-97.53"/>
<polygon fill="midnightblue" stroke="midnightblue" points="1200.82,-153.08 1211.21,-151 1201.79,-146.14 1200.82,-153.08"/>
</g>
<!-- Node89&#45;&gt;Node50 -->
<g id="edge62" class="edge">
<title>Node89&#45;&gt;Node50</title>
<path fill="none" stroke="midnightblue" d="M1259.1,-142.77C1245.2,-122.55 1227.39,-88.58 1246,-67 1282.18,-25.03 1445.15,-17.4 1531.27,-16.36"/>
<polygon fill="midnightblue" stroke="midnightblue" points="1256.37,-144.95 1265.07,-150.99 1262.03,-140.84 1256.37,-144.95"/>
</g>
<!-- Node89&#45;&gt;Node76 -->
<g id="edge63" class="edge">
<title>Node89&#45;&gt;Node76</title>
<path fill="none" stroke="midnightblue" d="M1341.83,-149.44C1399.61,-140.56 1483.64,-126.33 1556,-109 1569.39,-105.79 1584.07,-101.43 1596.18,-97.6"/>
<polygon fill="midnightblue" stroke="midnightblue" points="1341.07,-146.02 1331.71,-150.98 1342.13,-152.94 1341.07,-146.02"/>
</g>
<!-- Node89&#45;&gt;Node84 -->
<g id="edge64" class="edge">
<title>Node89&#45;&gt;Node84</title>
<path fill="none" stroke="midnightblue" d="M1306.18,-147.69C1347.21,-133.51 1415.03,-110.07 1451.31,-97.53"/>
<polygon fill="midnightblue" stroke="midnightblue" points="1304.92,-144.42 1296.61,-151 1307.2,-151.04 1304.92,-144.42"/>
</g>
<!-- Node89&#45;&gt;Node86 -->
<g id="edge66" class="edge">
<title>Node89&#45;&gt;Node86</title>
<path fill="none" stroke="midnightblue" d="M1283.82,-142.5C1293.64,-128.37 1307.2,-108.85 1314.94,-97.72"/>
<polygon fill="midnightblue" stroke="midnightblue" points="1280.84,-140.65 1278.01,-150.86 1286.59,-144.64 1280.84,-140.65"/>
</g>
</g>
</svg>
