<?xml version="1.0" encoding="UTF-8" standalone="no"?>
<!DOCTYPE svg PUBLIC "-//W3C//DTD SVG 1.1//EN"
 "http://www.w3.org/Graphics/SVG/1.1/DTD/svg11.dtd">
<!-- Generated by graphviz version 3.0.0 (20220413.0242)
 -->
<!-- Title: include/MSL_C/MSL_Common/Src/printf.h Pages: 1 -->
<svg width="3580pt" height="586pt"
 viewBox="0.00 0.00 3580.00 586.00" xmlns="http://www.w3.org/2000/svg" xmlns:xlink="http://www.w3.org/1999/xlink">
<g id="graph0" class="graph" transform="scale(1 1) rotate(0) translate(4 582)">
<title>include/MSL_C/MSL_Common/Src/printf.h</title>
<polygon fill="white" stroke="transparent" points="-4,4 -4,-582 3576,-582 3576,4 -4,4"/>
<!-- Node1 -->
<g id="node1" class="node">
<title>Node1</title>
<g id="a_node1"><a xlink:title=" ">
<polygon fill="#bfbfbf" stroke="black" points="2791.5,-547.5 2791.5,-577.5 2943.5,-577.5 2943.5,-547.5 2791.5,-547.5"/>
<text text-anchor="start" x="2799.5" y="-565.5" font-family="Helvetica,sans-Serif" font-size="10.00">include/MSL_C/MSL_Common</text>
<text text-anchor="middle" x="2867.5" y="-554.5" font-family="Helvetica,sans-Serif" font-size="10.00">/Src/printf.h</text>
</a>
</g>
</g>
<!-- Node2 -->
<g id="node2" class="node">
<title>Node2</title>
<g id="a_node2"><a xlink:href="J2DPrint_8h.html" target="_top" xlink:title=" ">
<polygon fill="white" stroke="black" points="1065,-480.5 1065,-510.5 1200,-510.5 1200,-480.5 1065,-480.5"/>
<text text-anchor="start" x="1073" y="-498.5" font-family="Helvetica,sans-Serif" font-size="10.00">include/JSystem/J2DGraph</text>
<text text-anchor="middle" x="1132.5" y="-487.5" font-family="Helvetica,sans-Serif" font-size="10.00">/J2DPrint.h</text>
</a>
</g>
</g>
<!-- Node1&#45;&gt;Node2 -->
<g id="edge1" class="edge">
<title>Node1&#45;&gt;Node2</title>
<path fill="none" stroke="midnightblue" d="M2781.25,-558.27C2479.06,-546.95 1471.78,-509.21 1200.36,-499.04"/>
<polygon fill="midnightblue" stroke="midnightblue" points="2781.15,-561.77 2791.27,-558.64 2781.41,-554.77 2781.15,-561.77"/>
</g>
<!-- Node8 -->
<g id="node8" class="node">
<title>Node8</title>
<g id="a_node8"><a xlink:href="d__save_8h.html" target="_top" xlink:title=" ">
<polygon fill="white" stroke="black" points="1553.5,-486 1553.5,-505 1675.5,-505 1675.5,-486 1553.5,-486"/>
<text text-anchor="middle" x="1614.5" y="-493" font-family="Helvetica,sans-Serif" font-size="10.00">include/d/save/d_save.h</text>
</a>
</g>
</g>
<!-- Node1&#45;&gt;Node8 -->
<g id="edge7" class="edge">
<title>Node1&#45;&gt;Node8</title>
<path fill="none" stroke="midnightblue" d="M2781.49,-557.04C2543.54,-544.69 1880.62,-510.31 1675.67,-499.67"/>
<polygon fill="midnightblue" stroke="midnightblue" points="2781.31,-560.53 2791.47,-557.56 2781.67,-553.54 2781.31,-560.53"/>
</g>
<!-- Node99 -->
<g id="node32" class="node">
<title>Node99</title>
<g id="a_node32"><a xlink:href="m__Do__MemCardRWmng_8cpp.html" target="_top" xlink:title=" ">
<polygon fill="white" stroke="black" points="2491,-78.5 2491,-97.5 2678,-97.5 2678,-78.5 2491,-78.5"/>
<text text-anchor="middle" x="2584.5" y="-85.5" font-family="Helvetica,sans-Serif" font-size="10.00">src/m_Do/m_Do_MemCardRWmng.cpp</text>
</a>
</g>
</g>
<!-- Node1&#45;&gt;Node99 -->
<g id="edge67" class="edge">
<title>Node1&#45;&gt;Node99</title>
<path fill="none" stroke="midnightblue" d="M2780.98,-559.77C2690.77,-556.12 2557.46,-544.96 2520.5,-511 2493.11,-485.83 2501.5,-466.69 2501.5,-429.5 2501.5,-429.5 2501.5,-429.5 2501.5,-221 2501.5,-167.13 2551.65,-117.25 2573.99,-97.71"/>
<polygon fill="midnightblue" stroke="midnightblue" points="2781.08,-563.27 2791.21,-560.16 2781.35,-556.28 2781.08,-563.27"/>
</g>
<!-- Node149 -->
<g id="node42" class="node">
<title>Node149</title>
<g id="a_node42"><a xlink:href="m__Do__printf_8h.html" target="_top" xlink:title=" ">
<polygon fill="white" stroke="black" points="2530,-486 2530,-505 2669,-505 2669,-486 2530,-486"/>
<text text-anchor="middle" x="2599.5" y="-493" font-family="Helvetica,sans-Serif" font-size="10.00">include/m_Do/m_Do_printf.h</text>
</a>
</g>
</g>
<!-- Node1&#45;&gt;Node149 -->
<g id="edge58" class="edge">
<title>Node1&#45;&gt;Node149</title>
<path fill="none" stroke="midnightblue" d="M2799.76,-545.07C2747.2,-532.32 2676.48,-515.17 2634.66,-505.03"/>
<polygon fill="midnightblue" stroke="midnightblue" points="2799.13,-548.52 2809.68,-547.48 2800.78,-541.72 2799.13,-548.52"/>
</g>
<!-- Node151 -->
<g id="node44" class="node">
<title>Node151</title>
<g id="a_node44"><a xlink:href="JKRThread_8cpp.html" target="_top" xlink:title=" ">
<polygon fill="white" stroke="black" points="2687,-480.5 2687,-510.5 2796,-510.5 2796,-480.5 2687,-480.5"/>
<text text-anchor="start" x="2695" y="-498.5" font-family="Helvetica,sans-Serif" font-size="10.00">libs/JSystem/JKernel</text>
<text text-anchor="middle" x="2741.5" y="-487.5" font-family="Helvetica,sans-Serif" font-size="10.00">/JKRThread.cpp</text>
</a>
</g>
</g>
<!-- Node1&#45;&gt;Node151 -->
<g id="edge60" class="edge">
<title>Node1&#45;&gt;Node151</title>
<path fill="none" stroke="midnightblue" d="M2831.08,-542.71C2811.21,-532.46 2787.02,-519.98 2768.79,-510.58"/>
<polygon fill="midnightblue" stroke="midnightblue" points="2829.67,-545.92 2840.16,-547.4 2832.88,-539.7 2829.67,-545.92"/>
</g>
<!-- Node152 -->
<g id="node45" class="node">
<title>Node152</title>
<g id="a_node45"><a xlink:href="JUTConsole_8cpp.html" target="_top" xlink:title=" ">
<polygon fill="white" stroke="black" points="2814.5,-480.5 2814.5,-510.5 2920.5,-510.5 2920.5,-480.5 2814.5,-480.5"/>
<text text-anchor="start" x="2822.5" y="-498.5" font-family="Helvetica,sans-Serif" font-size="10.00">libs/JSystem/JUtility</text>
<text text-anchor="middle" x="2867.5" y="-487.5" font-family="Helvetica,sans-Serif" font-size="10.00">/JUTConsole.cpp</text>
</a>
</g>
</g>
<!-- Node1&#45;&gt;Node152 -->
<g id="edge61" class="edge">
<title>Node1&#45;&gt;Node152</title>
<path fill="none" stroke="midnightblue" d="M2867.5,-537.11C2867.5,-528.15 2867.5,-518.32 2867.5,-510.58"/>
<polygon fill="midnightblue" stroke="midnightblue" points="2864,-537.4 2867.5,-547.4 2871,-537.4 2864,-537.4"/>
</g>
<!-- Node153 -->
<g id="node46" class="node">
<title>Node153</title>
<g id="a_node46"><a xlink:href="JUTDbPrint_8cpp.html" target="_top" xlink:title=" ">
<polygon fill="white" stroke="black" points="2938.5,-480.5 2938.5,-510.5 3044.5,-510.5 3044.5,-480.5 2938.5,-480.5"/>
<text text-anchor="start" x="2946.5" y="-498.5" font-family="Helvetica,sans-Serif" font-size="10.00">libs/JSystem/JUtility</text>
<text text-anchor="middle" x="2991.5" y="-487.5" font-family="Helvetica,sans-Serif" font-size="10.00">/JUTDbPrint.cpp</text>
</a>
</g>
</g>
<!-- Node1&#45;&gt;Node153 -->
<g id="edge62" class="edge">
<title>Node1&#45;&gt;Node153</title>
<path fill="none" stroke="midnightblue" d="M2903.34,-542.71C2922.89,-532.46 2946.7,-519.98 2964.65,-510.58"/>
<polygon fill="midnightblue" stroke="midnightblue" points="2901.64,-539.65 2894.41,-547.4 2904.89,-545.85 2901.64,-539.65"/>
</g>
<!-- Node154 -->
<g id="node47" class="node">
<title>Node154</title>
<g id="a_node47"><a xlink:href="JUTDirectPrint_8cpp.html" target="_top" xlink:title=" ">
<polygon fill="white" stroke="black" points="3062.5,-480.5 3062.5,-510.5 3168.5,-510.5 3168.5,-480.5 3062.5,-480.5"/>
<text text-anchor="start" x="3070.5" y="-498.5" font-family="Helvetica,sans-Serif" font-size="10.00">libs/JSystem/JUtility</text>
<text text-anchor="middle" x="3115.5" y="-487.5" font-family="Helvetica,sans-Serif" font-size="10.00">/JUTDirectPrint.cpp</text>
</a>
</g>
</g>
<!-- Node1&#45;&gt;Node154 -->
<g id="edge63" class="edge">
<title>Node1&#45;&gt;Node154</title>
<path fill="none" stroke="midnightblue" d="M2930.8,-544.91C2971.42,-534.26 3023.57,-520.59 3062.09,-510.5"/>
<polygon fill="midnightblue" stroke="midnightblue" points="2929.79,-541.55 2921.01,-547.48 2931.57,-548.33 2929.79,-541.55"/>
</g>
<!-- Node155 -->
<g id="node48" class="node">
<title>Node155</title>
<g id="a_node48"><a xlink:href="JUTException_8cpp.html" target="_top" xlink:title=" ">
<polygon fill="white" stroke="black" points="3186.5,-480.5 3186.5,-510.5 3292.5,-510.5 3292.5,-480.5 3186.5,-480.5"/>
<text text-anchor="start" x="3194.5" y="-498.5" font-family="Helvetica,sans-Serif" font-size="10.00">libs/JSystem/JUtility</text>
<text text-anchor="middle" x="3239.5" y="-487.5" font-family="Helvetica,sans-Serif" font-size="10.00">/JUTException.cpp</text>
</a>
</g>
</g>
<!-- Node1&#45;&gt;Node155 -->
<g id="edge64" class="edge">
<title>Node1&#45;&gt;Node155</title>
<path fill="none" stroke="midnightblue" d="M2953.75,-549.06C3016.1,-539.68 3102.26,-525.91 3177.5,-511 3180.43,-510.42 3183.43,-509.8 3186.45,-509.16"/>
<polygon fill="midnightblue" stroke="midnightblue" points="2952.93,-545.65 2943.56,-550.59 2953.97,-552.57 2952.93,-545.65"/>
</g>
<!-- Node156 -->
<g id="node49" class="node">
<title>Node156</title>
<g id="a_node49"><a xlink:href="printf_8c.html" target="_top" xlink:title=" ">
<polygon fill="white" stroke="black" points="3310.5,-480.5 3310.5,-510.5 3446.5,-510.5 3446.5,-480.5 3310.5,-480.5"/>
<text text-anchor="start" x="3318.5" y="-498.5" font-family="Helvetica,sans-Serif" font-size="10.00">libs/MSL_C/MSL_Common</text>
<text text-anchor="middle" x="3378.5" y="-487.5" font-family="Helvetica,sans-Serif" font-size="10.00">/Src/printf.c</text>
</a>
</g>
</g>
<!-- Node1&#45;&gt;Node156 -->
<g id="edge65" class="edge">
<title>Node1&#45;&gt;Node156</title>
<path fill="none" stroke="midnightblue" d="M2953.94,-553.25C3041.7,-544.45 3181.39,-529.27 3301.5,-511 3304.32,-510.57 3307.2,-510.11 3310.11,-509.64"/>
<polygon fill="midnightblue" stroke="midnightblue" points="2953.37,-549.79 2943.76,-554.26 2954.06,-556.75 2953.37,-549.79"/>
</g>
<!-- Node157 -->
<g id="node50" class="node">
<title>Node157</title>
<g id="a_node50"><a xlink:href="DynamicLink_8cpp.html" target="_top" xlink:title=" ">
<polygon fill="white" stroke="black" points="3465,-486 3465,-505 3572,-505 3572,-486 3465,-486"/>
<text text-anchor="middle" x="3518.5" y="-493" font-family="Helvetica,sans-Serif" font-size="10.00">src/DynamicLink.cpp</text>
</a>
</g>
</g>
<!-- Node1&#45;&gt;Node157 -->
<g id="edge66" class="edge">
<title>Node1&#45;&gt;Node157</title>
<path fill="none" stroke="midnightblue" d="M2953.71,-557.89C3068.71,-552.22 3278.4,-538.84 3455.5,-511 3465.26,-509.47 3475.75,-507.27 3485.32,-505.06"/>
<polygon fill="midnightblue" stroke="midnightblue" points="2953.38,-554.41 2943.56,-558.39 2953.72,-561.4 2953.38,-554.41"/>
</g>
<!-- Node3 -->
<g id="node3" class="node">
<title>Node3</title>
<g id="a_node3"><a xlink:href="J2DTextBoxEx_8h.html" target="_top" xlink:title=" ">
<polygon fill="white" stroke="black" points="851,-413.5 851,-443.5 986,-443.5 986,-413.5 851,-413.5"/>
<text text-anchor="start" x="859" y="-431.5" font-family="Helvetica,sans-Serif" font-size="10.00">include/JSystem/J2DGraph</text>
<text text-anchor="middle" x="918.5" y="-420.5" font-family="Helvetica,sans-Serif" font-size="10.00">/J2DTextBoxEx.h</text>
</a>
</g>
</g>
<!-- Node2&#45;&gt;Node3 -->
<g id="edge2" class="edge">
<title>Node2&#45;&gt;Node3</title>
<path fill="none" stroke="midnightblue" d="M1076.35,-477.44C1041.66,-466.91 997.68,-453.55 964.96,-443.61"/>
<polygon fill="midnightblue" stroke="midnightblue" points="1075.74,-480.92 1086.33,-480.48 1077.78,-474.22 1075.74,-480.92"/>
</g>
<!-- Node6 -->
<g id="node6" class="node">
<title>Node6</title>
<g id="a_node6"><a xlink:href="J2DPrint_8cpp.html" target="_top" xlink:title=" ">
<polygon fill="white" stroke="black" points="1004,-413.5 1004,-443.5 1123,-443.5 1123,-413.5 1004,-413.5"/>
<text text-anchor="start" x="1012" y="-431.5" font-family="Helvetica,sans-Serif" font-size="10.00">libs/JSystem/J2DGraph</text>
<text text-anchor="middle" x="1063.5" y="-420.5" font-family="Helvetica,sans-Serif" font-size="10.00">/J2DPrint.cpp</text>
</a>
</g>
</g>
<!-- Node2&#45;&gt;Node6 -->
<g id="edge5" class="edge">
<title>Node2&#45;&gt;Node6</title>
<path fill="none" stroke="midnightblue" d="M1110.01,-473.31C1099.66,-463.56 1087.66,-452.26 1078.44,-443.58"/>
<polygon fill="midnightblue" stroke="midnightblue" points="1107.85,-476.09 1117.53,-480.4 1112.65,-470.99 1107.85,-476.09"/>
</g>
<!-- Node7 -->
<g id="node7" class="node">
<title>Node7</title>
<g id="a_node7"><a xlink:href="J2DTextBox_8cpp.html" target="_top" xlink:title=" ">
<polygon fill="white" stroke="black" points="1141,-413.5 1141,-443.5 1260,-443.5 1260,-413.5 1141,-413.5"/>
<text text-anchor="start" x="1149" y="-431.5" font-family="Helvetica,sans-Serif" font-size="10.00">libs/JSystem/J2DGraph</text>
<text text-anchor="middle" x="1200.5" y="-420.5" font-family="Helvetica,sans-Serif" font-size="10.00">/J2DTextBox.cpp</text>
</a>
</g>
</g>
<!-- Node2&#45;&gt;Node7 -->
<g id="edge6" class="edge">
<title>Node2&#45;&gt;Node7</title>
<path fill="none" stroke="midnightblue" d="M1154.67,-473.31C1164.87,-463.56 1176.69,-452.26 1185.77,-443.58"/>
<polygon fill="midnightblue" stroke="midnightblue" points="1152.07,-470.96 1147.25,-480.4 1156.9,-476.02 1152.07,-470.96"/>
</g>
<!-- Node4 -->
<g id="node4" class="node">
<title>Node4</title>
<g id="a_node4"><a xlink:href="J2DScreen_8cpp.html" target="_top" xlink:title=" ">
<polygon fill="white" stroke="black" points="928,-346.5 928,-376.5 1047,-376.5 1047,-346.5 928,-346.5"/>
<text text-anchor="start" x="936" y="-364.5" font-family="Helvetica,sans-Serif" font-size="10.00">libs/JSystem/J2DGraph</text>
<text text-anchor="middle" x="987.5" y="-353.5" font-family="Helvetica,sans-Serif" font-size="10.00">/J2DScreen.cpp</text>
</a>
</g>
</g>
<!-- Node3&#45;&gt;Node4 -->
<g id="edge3" class="edge">
<title>Node3&#45;&gt;Node4</title>
<path fill="none" stroke="midnightblue" d="M940.99,-406.31C951.34,-396.56 963.34,-385.26 972.56,-376.58"/>
<polygon fill="midnightblue" stroke="midnightblue" points="938.35,-403.99 933.47,-413.4 943.15,-409.09 938.35,-403.99"/>
</g>
<!-- Node5 -->
<g id="node5" class="node">
<title>Node5</title>
<g id="a_node5"><a xlink:href="J2DTextBoxEx_8cpp.html" target="_top" xlink:title=" ">
<polygon fill="white" stroke="black" points="791,-346.5 791,-376.5 910,-376.5 910,-346.5 791,-346.5"/>
<text text-anchor="start" x="799" y="-364.5" font-family="Helvetica,sans-Serif" font-size="10.00">libs/JSystem/J2DGraph</text>
<text text-anchor="middle" x="850.5" y="-353.5" font-family="Helvetica,sans-Serif" font-size="10.00">/J2DTextBoxEx.cpp</text>
</a>
</g>
</g>
<!-- Node3&#45;&gt;Node5 -->
<g id="edge4" class="edge">
<title>Node3&#45;&gt;Node5</title>
<path fill="none" stroke="midnightblue" d="M896.33,-406.31C886.13,-396.56 874.31,-385.26 865.23,-376.58"/>
<polygon fill="midnightblue" stroke="midnightblue" points="894.1,-409.02 903.75,-413.4 898.93,-403.96 894.1,-409.02"/>
</g>
<!-- Node9 -->
<g id="node9" class="node">
<title>Node9</title>
<g id="a_node9"><a xlink:href="d__a__player_8h.html" target="_top" xlink:title=" ">
<polygon fill="white" stroke="black" points="1851,-352 1851,-371 1972,-371 1972,-352 1851,-352"/>
<text text-anchor="middle" x="1911.5" y="-359" font-family="Helvetica,sans-Serif" font-size="10.00">include/d/a/d_a_player.h</text>
</a>
</g>
</g>
<!-- Node8&#45;&gt;Node9 -->
<g id="edge8" class="edge">
<title>Node8&#45;&gt;Node9</title>
<path fill="none" stroke="midnightblue" d="M1685.69,-487.52C1729.08,-480.95 1784.46,-468.29 1828.5,-444 1862.81,-425.08 1892.78,-388.03 1905.29,-371.2"/>
<polygon fill="midnightblue" stroke="midnightblue" points="1685.18,-484.06 1675.78,-488.95 1686.17,-490.99 1685.18,-484.06"/>
</g>
<!-- Node11 -->
<g id="node11" class="node">
<title>Node11</title>
<g id="a_node11"><a xlink:href="d__com__inf__game_8h.html" target="_top" xlink:title=" ">
<polygon fill="white" stroke="red" points="1403.5,-145.5 1403.5,-175.5 1513.5,-175.5 1513.5,-145.5 1403.5,-145.5"/>
<text text-anchor="start" x="1411.5" y="-163.5" font-family="Helvetica,sans-Serif" font-size="10.00">include/d/com/d_com</text>
<text text-anchor="middle" x="1458.5" y="-152.5" font-family="Helvetica,sans-Serif" font-size="10.00">_inf_game.h</text>
</a>
</g>
</g>
<!-- Node8&#45;&gt;Node11 -->
<g id="edge44" class="edge">
<title>Node8&#45;&gt;Node11</title>
<path fill="none" stroke="midnightblue" d="M1578.67,-482.32C1532.61,-464.12 1458.5,-425.1 1458.5,-362.5 1458.5,-362.5 1458.5,-362.5 1458.5,-288 1458.5,-247.15 1458.5,-198.88 1458.5,-175.54"/>
<polygon fill="midnightblue" stroke="midnightblue" points="1577.45,-485.6 1588.04,-485.89 1579.94,-479.06 1577.45,-485.6"/>
</g>
<!-- Node17 -->
<g id="node13" class="node">
<title>Node17</title>
<g id="a_node13"><a xlink:href="d__meter2__info_8cpp.html" target="_top" xlink:title=" ">
<polygon fill="white" stroke="black" points="2058.5,-0.5 2058.5,-30.5 2168.5,-30.5 2168.5,-0.5 2058.5,-0.5"/>
<text text-anchor="start" x="2066.5" y="-18.5" font-family="Helvetica,sans-Serif" font-size="10.00">src/d/meter/d_meter2</text>
<text text-anchor="middle" x="2113.5" y="-7.5" font-family="Helvetica,sans-Serif" font-size="10.00">_info.cpp</text>
</a>
</g>
</g>
<!-- Node8&#45;&gt;Node17 -->
<g id="edge55" class="edge">
<title>Node8&#45;&gt;Node17</title>
<path fill="none" stroke="midnightblue" d="M1685.58,-490.9C1889.76,-479.63 2463.5,-440.98 2463.5,-362.5 2463.5,-362.5 2463.5,-362.5 2463.5,-159.5 2463.5,-117.53 2474.93,-95.91 2444.5,-67 2405.83,-30.26 2252.53,-20.25 2168.8,-17.52"/>
<polygon fill="midnightblue" stroke="midnightblue" points="1685.35,-487.41 1675.56,-491.45 1685.73,-494.4 1685.35,-487.41"/>
</g>
<!-- Node43 -->
<g id="node31" class="node">
<title>Node43</title>
<g id="a_node31"><a xlink:href="d__save_8cpp.html" target="_top" xlink:title=" ">
<polygon fill="white" stroke="black" points="0,-78.5 0,-97.5 115,-97.5 115,-78.5 0,-78.5"/>
<text text-anchor="middle" x="57.5" y="-85.5" font-family="Helvetica,sans-Serif" font-size="10.00">src/d/save/d_save.cpp</text>
</a>
</g>
</g>
<!-- Node8&#45;&gt;Node43 -->
<g id="edge57" class="edge">
<title>Node8&#45;&gt;Node43</title>
<path fill="none" stroke="midnightblue" d="M1559,-483.92C1465.94,-464.59 1288.5,-420.16 1288.5,-362.5 1288.5,-362.5 1288.5,-362.5 1288.5,-221 1288.5,-90.96 251.08,-134.2 123.5,-109 109.4,-106.22 94.02,-101.65 81.66,-97.58"/>
<polygon fill="midnightblue" stroke="midnightblue" points="1558.33,-487.36 1568.83,-485.94 1559.73,-480.5 1558.33,-487.36"/>
</g>
<!-- Node134 -->
<g id="node34" class="node">
<title>Node134</title>
<g id="a_node34"><a xlink:href="d__attention_8h.html" target="_top" xlink:title=" ">
<polygon fill="white" stroke="red" points="1731.5,-279.5 1731.5,-298.5 1845.5,-298.5 1845.5,-279.5 1731.5,-279.5"/>
<text text-anchor="middle" x="1788.5" y="-286.5" font-family="Helvetica,sans-Serif" font-size="10.00">include/d/d_attention.h</text>
</a>
</g>
</g>
<!-- Node8&#45;&gt;Node134 -->
<g id="edge45" class="edge">
<title>Node8&#45;&gt;Node134</title>
<path fill="none" stroke="midnightblue" d="M1682.61,-484.1C1727.59,-475.67 1780.69,-462.22 1794.5,-444 1828.44,-399.22 1802.66,-324.28 1792.3,-298.79"/>
<polygon fill="midnightblue" stroke="midnightblue" points="1681.78,-480.69 1672.57,-485.92 1683.03,-487.58 1681.78,-480.69"/>
</g>
<!-- Node115 -->
<g id="node35" class="node">
<title>Node115</title>
<g id="a_node35"><a xlink:href="d__event_8h.html" target="_top" xlink:title=" ">
<polygon fill="white" stroke="red" points="1513.5,-279.5 1513.5,-298.5 1641.5,-298.5 1641.5,-279.5 1513.5,-279.5"/>
<text text-anchor="middle" x="1577.5" y="-286.5" font-family="Helvetica,sans-Serif" font-size="10.00">include/d/event/d_event.h</text>
</a>
</g>
</g>
<!-- Node8&#45;&gt;Node115 -->
<g id="edge53" class="edge">
<title>Node8&#45;&gt;Node115</title>
<path fill="none" stroke="midnightblue" d="M1589.93,-480.54C1575.8,-471.55 1558.52,-458.79 1546.5,-444 1525.8,-418.54 1522.55,-409.04 1515.5,-377 1512.54,-363.54 1509.91,-358.59 1515.5,-346 1524.98,-324.66 1547.06,-308.01 1562.14,-298.6"/>
<polygon fill="midnightblue" stroke="midnightblue" points="1588.32,-483.66 1598.68,-485.89 1591.97,-477.69 1588.32,-483.66"/>
</g>
<!-- Node139 -->
<g id="node38" class="node">
<title>Node139</title>
<g id="a_node38"><a xlink:href="d__stage_8h.html" target="_top" xlink:title=" ">
<polygon fill="white" stroke="red" points="1685,-419 1685,-438 1786,-438 1786,-419 1685,-419"/>
<text text-anchor="middle" x="1735.5" y="-426" font-family="Helvetica,sans-Serif" font-size="10.00">include/d/d_stage.h</text>
</a>
</g>
</g>
<!-- Node8&#45;&gt;Node139 -->
<g id="edge46" class="edge">
<title>Node8&#45;&gt;Node139</title>
<path fill="none" stroke="midnightblue" d="M1639.71,-480.96C1663.7,-468.07 1699.06,-449.07 1719.44,-438.13"/>
<polygon fill="midnightblue" stroke="midnightblue" points="1637.97,-477.92 1630.82,-485.73 1641.28,-484.08 1637.97,-477.92"/>
</g>
<!-- Node142 -->
<g id="node39" class="node">
<title>Node142</title>
<g id="a_node39"><a xlink:href="d__event__data_8h.html" target="_top" xlink:title=" ">
<polygon fill="white" stroke="red" points="1524.5,-346.5 1524.5,-376.5 1644.5,-376.5 1644.5,-346.5 1524.5,-346.5"/>
<text text-anchor="start" x="1532.5" y="-364.5" font-family="Helvetica,sans-Serif" font-size="10.00">include/d/event/d_event</text>
<text text-anchor="middle" x="1584.5" y="-353.5" font-family="Helvetica,sans-Serif" font-size="10.00">_data.h</text>
</a>
</g>
</g>
<!-- Node8&#45;&gt;Node142 -->
<g id="edge54" class="edge">
<title>Node8&#45;&gt;Node142</title>
<path fill="none" stroke="midnightblue" d="M1588.71,-480.6C1575.56,-471.98 1560.82,-459.57 1553.5,-444 1542.68,-420.99 1559.41,-393.08 1572.19,-376.61"/>
<polygon fill="midnightblue" stroke="midnightblue" points="1587.1,-483.72 1597.46,-485.96 1590.76,-477.75 1587.1,-483.72"/>
</g>
<!-- Node146 -->
<g id="node40" class="node">
<title>Node146</title>
<g id="a_node40"><a xlink:href="d__vibration_8h.html" target="_top" xlink:title=" ">
<polygon fill="white" stroke="red" points="1317,-212.5 1317,-231.5 1430,-231.5 1430,-212.5 1317,-212.5"/>
<text text-anchor="middle" x="1373.5" y="-219.5" font-family="Helvetica,sans-Serif" font-size="10.00">include/d/d_vibration.h</text>
</a>
</g>
</g>
<!-- Node8&#45;&gt;Node146 -->
<g id="edge51" class="edge">
<title>Node8&#45;&gt;Node146</title>
<path fill="none" stroke="midnightblue" d="M1543.25,-488.64C1509.42,-482.38 1470.74,-469.67 1444.5,-444 1381.41,-382.29 1374.3,-264.43 1373.57,-231.65"/>
<polygon fill="midnightblue" stroke="midnightblue" points="1542.67,-492.09 1553.11,-490.31 1543.84,-485.19 1542.67,-492.09"/>
</g>
<!-- Node148 -->
<g id="node41" class="node">
<title>Node148</title>
<g id="a_node41"><a xlink:href="d__meter__HIO_8cpp.html" target="_top" xlink:title=" ">
<polygon fill="white" stroke="black" points="1562.5,-413.5 1562.5,-443.5 1666.5,-443.5 1666.5,-413.5 1562.5,-413.5"/>
<text text-anchor="start" x="1570.5" y="-431.5" font-family="Helvetica,sans-Serif" font-size="10.00">src/d/meter/d_meter</text>
<text text-anchor="middle" x="1614.5" y="-420.5" font-family="Helvetica,sans-Serif" font-size="10.00">_HIO.cpp</text>
</a>
</g>
</g>
<!-- Node8&#45;&gt;Node148 -->
<g id="edge56" class="edge">
<title>Node8&#45;&gt;Node148</title>
<path fill="none" stroke="midnightblue" d="M1614.5,-475.41C1614.5,-465.22 1614.5,-452.9 1614.5,-443.59"/>
<polygon fill="midnightblue" stroke="midnightblue" points="1611,-475.73 1614.5,-485.73 1618,-475.73 1611,-475.73"/>
</g>
<!-- Node10 -->
<g id="node10" class="node">
<title>Node10</title>
<g id="a_node10"><a xlink:href="d__a__alink_8h.html" target="_top" xlink:title=" ">
<polygon fill="white" stroke="red" points="1872.5,-212.5 1872.5,-231.5 1988.5,-231.5 1988.5,-212.5 1872.5,-212.5"/>
<text text-anchor="middle" x="1930.5" y="-219.5" font-family="Helvetica,sans-Serif" font-size="10.00">include/d/a/d_a_alink.h</text>
</a>
</g>
</g>
<!-- Node9&#45;&gt;Node10 -->
<g id="edge9" class="edge">
<title>Node9&#45;&gt;Node10</title>
<path fill="none" stroke="midnightblue" d="M1935.75,-346.14C1948.03,-337.41 1961.73,-325.04 1968.5,-310 1976.16,-292.98 1974.91,-285.53 1968.5,-268 1963.09,-253.21 1950.44,-239.93 1941.21,-231.7"/>
<polygon fill="midnightblue" stroke="midnightblue" points="1933.57,-343.39 1927.19,-351.85 1937.45,-349.22 1933.57,-343.39"/>
</g>
<!-- Node74 -->
<g id="node30" class="node">
<title>Node74</title>
<g id="a_node30"><a xlink:href="d__a__player_8cpp.html" target="_top" xlink:title=" ">
<polygon fill="white" stroke="black" points="2321.5,-78.5 2321.5,-97.5 2435.5,-97.5 2435.5,-78.5 2321.5,-78.5"/>
<text text-anchor="middle" x="2378.5" y="-85.5" font-family="Helvetica,sans-Serif" font-size="10.00">src/d/a/d_a_player.cpp</text>
</a>
</g>
</g>
<!-- Node9&#45;&gt;Node74 -->
<g id="edge43" class="edge">
<title>Node9&#45;&gt;Node74</title>
<path fill="none" stroke="midnightblue" d="M1982.15,-358.3C2073.39,-354.16 2225.77,-342.48 2270.5,-310 2346.52,-254.8 2371.64,-131.26 2377.2,-97.61"/>
<polygon fill="midnightblue" stroke="midnightblue" points="1982,-354.8 1972.16,-358.73 1982.3,-361.79 1982,-354.8"/>
</g>
<!-- Node104 -->
<g id="node33" class="node">
<title>Node104</title>
<g id="a_node33"><a xlink:href="d__bg__s__acch_8h.html" target="_top" xlink:title=" ">
<polygon fill="white" stroke="red" points="2157.5,-274 2157.5,-304 2261.5,-304 2261.5,-274 2157.5,-274"/>
<text text-anchor="start" x="2165.5" y="-292" font-family="Helvetica,sans-Serif" font-size="10.00">include/d/bg/d_bg_s</text>
<text text-anchor="middle" x="2209.5" y="-281" font-family="Helvetica,sans-Serif" font-size="10.00">_acch.h</text>
</a>
</g>
</g>
<!-- Node9&#45;&gt;Node104 -->
<g id="edge34" class="edge">
<title>Node9&#45;&gt;Node104</title>
<path fill="none" stroke="midnightblue" d="M1968.56,-350.12C2016.83,-340.91 2087.64,-326.41 2148.5,-310 2155.06,-308.23 2161.96,-306.17 2168.67,-304.05"/>
<polygon fill="midnightblue" stroke="midnightblue" points="1967.79,-346.7 1958.62,-352 1969.1,-353.58 1967.79,-346.7"/>
</g>
<!-- Node9&#45;&gt;Node134 -->
<g id="edge35" class="edge">
<title>Node9&#45;&gt;Node134</title>
<path fill="none" stroke="midnightblue" d="M1887.62,-346.81C1862.8,-332.59 1824.71,-310.75 1803.71,-298.72"/>
<polygon fill="midnightblue" stroke="midnightblue" points="1886,-349.92 1896.42,-351.86 1889.48,-343.85 1886,-349.92"/>
</g>
<!-- Node9&#45;&gt;Node115 -->
<g id="edge38" class="edge">
<title>Node9&#45;&gt;Node115</title>
<path fill="none" stroke="midnightblue" d="M1861.39,-349.92C1794.97,-335.9 1679.08,-311.44 1617.93,-298.53"/>
<polygon fill="midnightblue" stroke="midnightblue" points="1860.7,-353.36 1871.21,-352 1862.15,-346.51 1860.7,-353.36"/>
</g>
<!-- Node137 -->
<g id="node36" class="node">
<title>Node137</title>
<g id="a_node36"><a xlink:href="d__a__crod_8h.html" target="_top" xlink:title=" ">
<polygon fill="white" stroke="red" points="1863.5,-274 1863.5,-304 1959.5,-304 1959.5,-274 1863.5,-274"/>
<text text-anchor="start" x="1871.5" y="-292" font-family="Helvetica,sans-Serif" font-size="10.00">include/rel/d/a/d_a</text>
<text text-anchor="middle" x="1911.5" y="-281" font-family="Helvetica,sans-Serif" font-size="10.00">_crod/d_a_crod.h</text>
</a>
</g>
</g>
<!-- Node9&#45;&gt;Node137 -->
<g id="edge40" class="edge">
<title>Node9&#45;&gt;Node137</title>
<path fill="none" stroke="midnightblue" d="M1911.5,-341.74C1911.5,-329.91 1911.5,-314.88 1911.5,-304.08"/>
<polygon fill="midnightblue" stroke="midnightblue" points="1908,-341.86 1911.5,-351.86 1915,-341.86 1908,-341.86"/>
</g>
<!-- Node138 -->
<g id="node37" class="node">
<title>Node138</title>
<g id="a_node37"><a xlink:href="d__a__tag__mmsg_8h.html" target="_top" xlink:title=" ">
<polygon fill="white" stroke="black" points="2015.5,-268.5 2015.5,-309.5 2139.5,-309.5 2139.5,-268.5 2015.5,-268.5"/>
<text text-anchor="start" x="2023.5" y="-297.5" font-family="Helvetica,sans-Serif" font-size="10.00">include/rel/d/a/tag</text>
<text text-anchor="start" x="2023.5" y="-286.5" font-family="Helvetica,sans-Serif" font-size="10.00">/d_a_tag_mmsg/d_a_tag</text>
<text text-anchor="middle" x="2077.5" y="-275.5" font-family="Helvetica,sans-Serif" font-size="10.00">_mmsg.h</text>
</a>
</g>
</g>
<!-- Node9&#45;&gt;Node138 -->
<g id="edge41" class="edge">
<title>Node9&#45;&gt;Node138</title>
<path fill="none" stroke="midnightblue" d="M1940.86,-348.03C1965.92,-337.39 2002.39,-321.9 2031.35,-309.6"/>
<polygon fill="midnightblue" stroke="midnightblue" points="1939.36,-344.87 1931.52,-352 1942.1,-351.31 1939.36,-344.87"/>
</g>
<!-- Node10&#45;&gt;Node11 -->
<g id="edge10" class="edge">
<title>Node10&#45;&gt;Node11</title>
<path fill="none" stroke="midnightblue" d="M1862.17,-212.39C1768.07,-200.52 1600.45,-179.39 1513.79,-168.47"/>
<polygon fill="midnightblue" stroke="midnightblue" points="1861.79,-215.87 1872.15,-213.64 1862.67,-208.92 1861.79,-215.87"/>
</g>
<!-- Node12 -->
<g id="node12" class="node">
<title>Node12</title>
<g id="a_node12"><a xlink:href="d__a__npc_8h.html" target="_top" xlink:title=" ">
<polygon fill="white" stroke="red" points="133,-78.5 133,-97.5 244,-97.5 244,-78.5 133,-78.5"/>
<text text-anchor="middle" x="188.5" y="-85.5" font-family="Helvetica,sans-Serif" font-size="10.00">include/d/a/d_a_npc.h</text>
</a>
</g>
</g>
<!-- Node11&#45;&gt;Node12 -->
<g id="edge11" class="edge">
<title>Node11&#45;&gt;Node12</title>
<path fill="none" stroke="midnightblue" d="M1393.29,-152.58C1365.36,-149.84 1332.36,-146.9 1302.5,-145 1069.5,-130.19 482.66,-148.17 252.5,-109 238.27,-106.58 222.81,-101.81 210.65,-97.54"/>
<polygon fill="midnightblue" stroke="midnightblue" points="1393.03,-156.07 1403.33,-153.58 1393.73,-149.11 1393.03,-156.07"/>
</g>
<!-- Node11&#45;&gt;Node17 -->
<g id="edge31" class="edge">
<title>Node11&#45;&gt;Node17</title>
<path fill="none" stroke="midnightblue" d="M1523.9,-159.56C1685.83,-159.04 2095.37,-153.31 2136.5,-109 2156.65,-87.29 2137.38,-50.72 2123.96,-30.68"/>
<polygon fill="midnightblue" stroke="midnightblue" points="1523.59,-156.06 1513.59,-159.59 1523.6,-163.06 1523.59,-156.06"/>
</g>
<!-- Node18 -->
<g id="node14" class="node">
<title>Node18</title>
<g id="a_node14"><a xlink:href="d__cc__uty_8h.html" target="_top" xlink:title=" ">
<polygon fill="white" stroke="red" points="2184,-78.5 2184,-97.5 2303,-97.5 2303,-78.5 2184,-78.5"/>
<text text-anchor="middle" x="2243.5" y="-85.5" font-family="Helvetica,sans-Serif" font-size="10.00">include/d/cc/d_cc_uty.h</text>
</a>
</g>
</g>
<!-- Node11&#45;&gt;Node18 -->
<g id="edge13" class="edge">
<title>Node11&#45;&gt;Node18</title>
<path fill="none" stroke="midnightblue" d="M1524.03,-159.06C1649.98,-157.28 1934.21,-148.77 2169.5,-109 2185.38,-106.32 2202.78,-101.7 2216.71,-97.58"/>
<polygon fill="midnightblue" stroke="midnightblue" points="1523.74,-155.56 1513.79,-159.19 1523.84,-162.56 1523.74,-155.56"/>
</g>
<!-- Node20 -->
<g id="node15" class="node">
<title>Node20</title>
<g id="a_node15"><a xlink:href="d__item_8h.html" target="_top" xlink:title=" ">
<polygon fill="white" stroke="red" points="262,-78.5 262,-97.5 357,-97.5 357,-78.5 262,-78.5"/>
<text text-anchor="middle" x="309.5" y="-85.5" font-family="Helvetica,sans-Serif" font-size="10.00">include/d/d_item.h</text>
</a>
</g>
</g>
<!-- Node11&#45;&gt;Node20 -->
<g id="edge14" class="edge">
<title>Node11&#45;&gt;Node20</title>
<path fill="none" stroke="midnightblue" d="M1393.28,-152.64C1365.35,-149.91 1332.35,-146.96 1302.5,-145 1094.57,-131.35 570.1,-148.5 365.5,-109 352.93,-106.57 339.4,-101.81 328.79,-97.53"/>
<polygon fill="midnightblue" stroke="midnightblue" points="1393.03,-156.13 1403.33,-153.64 1393.72,-149.17 1393.03,-156.13"/>
</g>
<!-- Node26 -->
<g id="node16" class="node">
<title>Node26</title>
<g id="a_node16"><a xlink:href="d__kantera__icon__meter_8h.html" target="_top" xlink:title=" ">
<polygon fill="white" stroke="red" points="375,-73 375,-103 476,-103 476,-73 375,-73"/>
<text text-anchor="start" x="383" y="-91" font-family="Helvetica,sans-Serif" font-size="10.00">include/d/d_kantera</text>
<text text-anchor="middle" x="425.5" y="-80" font-family="Helvetica,sans-Serif" font-size="10.00">_icon_meter.h</text>
</a>
</g>
</g>
<!-- Node11&#45;&gt;Node26 -->
<g id="edge15" class="edge">
<title>Node11&#45;&gt;Node26</title>
<path fill="none" stroke="midnightblue" d="M1393.28,-152.72C1365.35,-150.01 1332.35,-147.04 1302.5,-145 939.44,-120.15 842.17,-176.08 484.5,-109 476.95,-107.58 469.05,-105.42 461.58,-103.02"/>
<polygon fill="midnightblue" stroke="midnightblue" points="1393.03,-156.22 1403.32,-153.71 1393.71,-149.25 1393.03,-156.22"/>
</g>
<!-- Node29 -->
<g id="node17" class="node">
<title>Node29</title>
<g id="a_node17"><a xlink:href="d__model_8h.html" target="_top" xlink:title=" ">
<polygon fill="white" stroke="red" points="494,-78.5 494,-97.5 597,-97.5 597,-78.5 494,-78.5"/>
<text text-anchor="middle" x="545.5" y="-85.5" font-family="Helvetica,sans-Serif" font-size="10.00">include/d/d_model.h</text>
</a>
</g>
</g>
<!-- Node11&#45;&gt;Node29 -->
<g id="edge16" class="edge">
<title>Node11&#45;&gt;Node29</title>
<path fill="none" stroke="midnightblue" d="M1393.27,-152.83C1365.34,-150.14 1332.34,-147.16 1302.5,-145 993.12,-122.64 910.3,-166.57 605.5,-109 592.23,-106.49 577.86,-101.78 566.51,-97.56"/>
<polygon fill="midnightblue" stroke="midnightblue" points="1393.02,-156.33 1403.31,-153.81 1393.7,-149.36 1393.02,-156.33"/>
</g>
<!-- Node31 -->
<g id="node18" class="node">
<title>Node31</title>
<g id="a_node18"><a xlink:href="d__name_8h.html" target="_top" xlink:title=" ">
<polygon fill="white" stroke="red" points="615,-78.5 615,-97.5 716,-97.5 716,-78.5 615,-78.5"/>
<text text-anchor="middle" x="665.5" y="-85.5" font-family="Helvetica,sans-Serif" font-size="10.00">include/d/d_name.h</text>
</a>
</g>
</g>
<!-- Node11&#45;&gt;Node31 -->
<g id="edge17" class="edge">
<title>Node11&#45;&gt;Node31</title>
<path fill="none" stroke="midnightblue" d="M1393.26,-152.99C1365.32,-150.32 1332.33,-147.32 1302.5,-145 1046.33,-125.11 977.72,-158.04 725.5,-109 712.35,-106.44 698.11,-101.78 686.8,-97.6"/>
<polygon fill="midnightblue" stroke="midnightblue" points="1393.01,-156.48 1403.3,-153.96 1393.69,-149.52 1393.01,-156.48"/>
</g>
<!-- Node33 -->
<g id="node19" class="node">
<title>Node33</title>
<g id="a_node19"><a xlink:href="d__file__sel__info_8h.html" target="_top" xlink:title=" ">
<polygon fill="white" stroke="red" points="734.5,-73 734.5,-103 830.5,-103 830.5,-73 734.5,-73"/>
<text text-anchor="start" x="742.5" y="-91" font-family="Helvetica,sans-Serif" font-size="10.00">include/d/file/d_file</text>
<text text-anchor="middle" x="782.5" y="-80" font-family="Helvetica,sans-Serif" font-size="10.00">_sel_info.h</text>
</a>
</g>
</g>
<!-- Node11&#45;&gt;Node33 -->
<g id="edge18" class="edge">
<title>Node11&#45;&gt;Node33</title>
<path fill="none" stroke="midnightblue" d="M1393.24,-153.21C1365.3,-150.58 1332.31,-147.54 1302.5,-145 1096.85,-127.45 1041.47,-151.53 839.5,-109 832.42,-107.51 825.01,-105.37 817.97,-103.04"/>
<polygon fill="midnightblue" stroke="midnightblue" points="1393,-156.71 1403.29,-154.16 1393.66,-149.74 1393,-156.71"/>
</g>
<!-- Node36 -->
<g id="node20" class="node">
<title>Node36</title>
<g id="a_node20"><a xlink:href="d__file__sel__warning_8h.html" target="_top" xlink:title=" ">
<polygon fill="white" stroke="red" points="848.5,-73 848.5,-103 944.5,-103 944.5,-73 848.5,-73"/>
<text text-anchor="start" x="856.5" y="-91" font-family="Helvetica,sans-Serif" font-size="10.00">include/d/file/d_file</text>
<text text-anchor="middle" x="896.5" y="-80" font-family="Helvetica,sans-Serif" font-size="10.00">_sel_warning.h</text>
</a>
</g>
</g>
<!-- Node11&#45;&gt;Node36 -->
<g id="edge19" class="edge">
<title>Node11&#45;&gt;Node36</title>
<path fill="none" stroke="midnightblue" d="M1393.51,-153.41C1261.94,-141.04 974.67,-113.7 953.5,-109 946.54,-107.45 939.25,-105.32 932.31,-103.01"/>
<polygon fill="midnightblue" stroke="midnightblue" points="1393.19,-156.9 1403.47,-154.35 1393.84,-149.93 1393.19,-156.9"/>
</g>
<!-- Node38 -->
<g id="node21" class="node">
<title>Node38</title>
<g id="a_node21"><a xlink:href="d__meter2_8h.html" target="_top" xlink:title=" ">
<polygon fill="white" stroke="red" points="962.5,-78.5 962.5,-97.5 1096.5,-97.5 1096.5,-78.5 962.5,-78.5"/>
<text text-anchor="middle" x="1029.5" y="-85.5" font-family="Helvetica,sans-Serif" font-size="10.00">include/d/meter/d_meter2.h</text>
</a>
</g>
</g>
<!-- Node11&#45;&gt;Node38 -->
<g id="edge20" class="edge">
<title>Node11&#45;&gt;Node38</title>
<path fill="none" stroke="midnightblue" d="M1393.28,-152.45C1322.15,-144.23 1205.12,-129.16 1105.5,-109 1089.99,-105.86 1072.93,-101.46 1058.91,-97.59"/>
<polygon fill="midnightblue" stroke="midnightblue" points="1393.1,-155.95 1403.44,-153.61 1393.9,-149 1393.1,-155.95"/>
</g>
<!-- Node45 -->
<g id="node22" class="node">
<title>Node45</title>
<g id="a_node22"><a xlink:href="d__msg__object_8h.html" target="_top" xlink:title=" ">
<polygon fill="white" stroke="red" points="2017.5,-73 2017.5,-103 2127.5,-103 2127.5,-73 2017.5,-73"/>
<text text-anchor="start" x="2025.5" y="-91" font-family="Helvetica,sans-Serif" font-size="10.00">include/d/msg/d_msg</text>
<text text-anchor="middle" x="2072.5" y="-80" font-family="Helvetica,sans-Serif" font-size="10.00">_object.h</text>
</a>
</g>
</g>
<!-- Node11&#45;&gt;Node45 -->
<g id="edge21" class="edge">
<title>Node11&#45;&gt;Node45</title>
<path fill="none" stroke="midnightblue" d="M1523.87,-157.85C1627.4,-154.26 1835.02,-143.09 2007.5,-109 2015.26,-107.47 2023.41,-105.37 2031.22,-103.1"/>
<polygon fill="midnightblue" stroke="midnightblue" points="1523.46,-154.36 1513.58,-158.19 1523.69,-161.36 1523.46,-154.36"/>
</g>
<!-- Node59 -->
<g id="node23" class="node">
<title>Node59</title>
<g id="a_node23"><a xlink:href="d__s__logo_8h.html" target="_top" xlink:title=" ">
<polygon fill="white" stroke="red" points="1115,-78.5 1115,-97.5 1228,-97.5 1228,-78.5 1115,-78.5"/>
<text text-anchor="middle" x="1171.5" y="-85.5" font-family="Helvetica,sans-Serif" font-size="10.00">include/d/s/d_s_logo.h</text>
</a>
</g>
</g>
<!-- Node11&#45;&gt;Node59 -->
<g id="edge23" class="edge">
<title>Node11&#45;&gt;Node59</title>
<path fill="none" stroke="midnightblue" d="M1393.68,-146.09C1349.24,-136.57 1289.04,-123.04 1236.5,-109 1223.61,-105.56 1209.44,-101.26 1197.62,-97.53"/>
<polygon fill="midnightblue" stroke="midnightblue" points="1392.97,-149.52 1403.48,-148.18 1394.43,-142.67 1392.97,-149.52"/>
</g>
<!-- Node61 -->
<g id="node24" class="node">
<title>Node61</title>
<g id="a_node24"><a xlink:href="d__s__play_8h.html" target="_top" xlink:title=" ">
<polygon fill="white" stroke="red" points="1246,-78.5 1246,-97.5 1359,-97.5 1359,-78.5 1246,-78.5"/>
<text text-anchor="middle" x="1302.5" y="-85.5" font-family="Helvetica,sans-Serif" font-size="10.00">include/d/s/d_s_play.h</text>
</a>
</g>
</g>
<!-- Node11&#45;&gt;Node61 -->
<g id="edge24" class="edge">
<title>Node11&#45;&gt;Node61</title>
<path fill="none" stroke="midnightblue" d="M1418,-141.2C1386.85,-127.12 1345.21,-108.3 1321.38,-97.53"/>
<polygon fill="midnightblue" stroke="midnightblue" points="1416.75,-144.47 1427.31,-145.4 1419.63,-138.1 1416.75,-144.47"/>
</g>
<!-- Node65 -->
<g id="node25" class="node">
<title>Node65</title>
<g id="a_node25"><a xlink:href="d__msg__scrn__base_8h.html" target="_top" xlink:title=" ">
<polygon fill="white" stroke="red" points="1377,-73 1377,-103 1476,-103 1476,-73 1377,-73"/>
<text text-anchor="start" x="1385" y="-91" font-family="Helvetica,sans-Serif" font-size="10.00">include/msg/scrn/d</text>
<text text-anchor="middle" x="1426.5" y="-80" font-family="Helvetica,sans-Serif" font-size="10.00">_msg_scrn_base.h</text>
</a>
</g>
</g>
<!-- Node11&#45;&gt;Node65 -->
<g id="edge25" class="edge">
<title>Node11&#45;&gt;Node65</title>
<path fill="none" stroke="midnightblue" d="M1447.79,-135.9C1442.87,-125.08 1437.21,-112.61 1432.97,-103.25"/>
<polygon fill="midnightblue" stroke="midnightblue" points="1444.7,-137.57 1452.02,-145.23 1451.08,-134.68 1444.7,-137.57"/>
</g>
<!-- Node69 -->
<g id="node26" class="node">
<title>Node69</title>
<g id="a_node26"><a xlink:href="d__a__b__zant_8h.html" target="_top" xlink:title=" ">
<polygon fill="white" stroke="black" points="1494,-73 1494,-103 1615,-103 1615,-73 1494,-73"/>
<text text-anchor="start" x="1502" y="-91" font-family="Helvetica,sans-Serif" font-size="10.00">include/rel/d/a/b/d</text>
<text text-anchor="middle" x="1554.5" y="-80" font-family="Helvetica,sans-Serif" font-size="10.00">_a_b_zant/d_a_b_zant.h</text>
</a>
</g>
</g>
<!-- Node11&#45;&gt;Node69 -->
<g id="edge26" class="edge">
<title>Node11&#45;&gt;Node69</title>
<path fill="none" stroke="midnightblue" d="M1486.27,-139.11C1502.04,-127.53 1521.37,-113.33 1535.43,-103"/>
<polygon fill="midnightblue" stroke="midnightblue" points="1483.92,-136.49 1477.93,-145.23 1488.06,-142.14 1483.92,-136.49"/>
</g>
<!-- Node70 -->
<g id="node27" class="node">
<title>Node70</title>
<g id="a_node27"><a xlink:href="d__a__spinner_8h.html" target="_top" xlink:title=" ">
<polygon fill="white" stroke="black" points="1633.5,-73 1633.5,-103 1749.5,-103 1749.5,-73 1633.5,-73"/>
<text text-anchor="start" x="1641.5" y="-91" font-family="Helvetica,sans-Serif" font-size="10.00">include/rel/d/a/d_a</text>
<text text-anchor="middle" x="1691.5" y="-80" font-family="Helvetica,sans-Serif" font-size="10.00">_spinner/d_a_spinner.h</text>
</a>
</g>
</g>
<!-- Node11&#45;&gt;Node70 -->
<g id="edge27" class="edge">
<title>Node11&#45;&gt;Node70</title>
<path fill="none" stroke="midnightblue" d="M1514.39,-142.59C1554.27,-130.52 1607.27,-114.48 1644.88,-103.11"/>
<polygon fill="midnightblue" stroke="midnightblue" points="1513.37,-139.24 1504.81,-145.49 1515.4,-145.94 1513.37,-139.24"/>
</g>
<!-- Node71 -->
<g id="node28" class="node">
<title>Node71</title>
<g id="a_node28"><a xlink:href="d__a__tag__telop_8h.html" target="_top" xlink:title=" ">
<polygon fill="white" stroke="black" points="1767.5,-67.5 1767.5,-108.5 1885.5,-108.5 1885.5,-67.5 1767.5,-67.5"/>
<text text-anchor="start" x="1775.5" y="-96.5" font-family="Helvetica,sans-Serif" font-size="10.00">include/rel/d/a/tag</text>
<text text-anchor="start" x="1775.5" y="-85.5" font-family="Helvetica,sans-Serif" font-size="10.00">/d_a_tag_telop/d_a_tag</text>
<text text-anchor="middle" x="1826.5" y="-74.5" font-family="Helvetica,sans-Serif" font-size="10.00">_telop.h</text>
</a>
</g>
</g>
<!-- Node11&#45;&gt;Node71 -->
<g id="edge28" class="edge">
<title>Node11&#45;&gt;Node71</title>
<path fill="none" stroke="midnightblue" d="M1523.9,-150.79C1584.97,-142.11 1678.47,-127.44 1758.5,-109 1761.38,-108.34 1764.31,-107.62 1767.27,-106.87"/>
<polygon fill="midnightblue" stroke="midnightblue" points="1523.05,-147.37 1513.63,-152.23 1524.02,-154.3 1523.05,-147.37"/>
</g>
<!-- Node72 -->
<g id="node29" class="node">
<title>Node72</title>
<g id="a_node29"><a xlink:href="c__dylink_8cpp.html" target="_top" xlink:title=" ">
<polygon fill="white" stroke="black" points="1904,-78.5 1904,-97.5 1999,-97.5 1999,-78.5 1904,-78.5"/>
<text text-anchor="middle" x="1951.5" y="-85.5" font-family="Helvetica,sans-Serif" font-size="10.00">src/c/c_dylink.cpp</text>
</a>
</g>
</g>
<!-- Node11&#45;&gt;Node72 -->
<g id="edge29" class="edge">
<title>Node11&#45;&gt;Node72</title>
<path fill="none" stroke="midnightblue" d="M1523.67,-156.47C1609.58,-151.45 1764.99,-138.83 1894.5,-109 1906.76,-106.18 1920.05,-101.6 1930.72,-97.54"/>
<polygon fill="midnightblue" stroke="midnightblue" points="1523.33,-152.98 1513.54,-157.05 1523.72,-159.97 1523.33,-152.98"/>
</g>
<!-- Node11&#45;&gt;Node74 -->
<g id="edge30" class="edge">
<title>Node11&#45;&gt;Node74</title>
<path fill="none" stroke="midnightblue" d="M1523.92,-157.58C1696.36,-152.21 2160.37,-135.66 2311.5,-109 2326.08,-106.43 2341.98,-101.76 2354.63,-97.59"/>
<polygon fill="midnightblue" stroke="midnightblue" points="1523.61,-154.09 1513.73,-157.9 1523.83,-161.09 1523.61,-154.09"/>
</g>
<!-- Node11&#45;&gt;Node43 -->
<g id="edge32" class="edge">
<title>Node11&#45;&gt;Node43</title>
<path fill="none" stroke="midnightblue" d="M1393.29,-152.53C1365.36,-149.78 1332.36,-146.84 1302.5,-145 1040.88,-128.86 382.17,-151.38 123.5,-109 108.85,-106.6 92.91,-101.83 80.36,-97.55"/>
<polygon fill="midnightblue" stroke="midnightblue" points="1393.04,-156.02 1403.33,-153.53 1393.73,-149.05 1393.04,-156.02"/>
</g>
<!-- Node11&#45;&gt;Node99 -->
<g id="edge33" class="edge">
<title>Node11&#45;&gt;Node99</title>
<path fill="none" stroke="midnightblue" d="M1523.73,-158.2C1681.93,-154.62 2098.51,-142.5 2444.5,-109 2473.83,-106.16 2506.42,-101.59 2532.78,-97.53"/>
<polygon fill="midnightblue" stroke="midnightblue" points="1523.6,-154.71 1513.68,-158.43 1523.76,-161.7 1523.6,-154.71"/>
</g>
<!-- Node12&#45;&gt;Node17 -->
<g id="edge12" class="edge">
<title>Node12&#45;&gt;Node17</title>
<path fill="none" stroke="midnightblue" d="M220.31,-75.16C230.45,-71.9 241.82,-68.78 252.5,-67 434.23,-36.74 1768.42,-20.32 2058.1,-17.09"/>
<polygon fill="midnightblue" stroke="midnightblue" points="219,-71.91 210.64,-78.42 221.24,-78.54 219,-71.91"/>
</g>
<!-- Node45&#45;&gt;Node17 -->
<g id="edge22" class="edge">
<title>Node45&#45;&gt;Node17</title>
<path fill="none" stroke="midnightblue" d="M2085.84,-64.06C2092.22,-53.09 2099.66,-40.3 2105.22,-30.75"/>
<polygon fill="midnightblue" stroke="midnightblue" points="2082.8,-62.33 2080.8,-72.73 2088.85,-65.85 2082.8,-62.33"/>
</g>
<!-- Node134&#45;&gt;Node10 -->
<g id="edge36" class="edge">
<title>Node134&#45;&gt;Node10</title>
<path fill="none" stroke="midnightblue" d="M1816.65,-275.11C1844.78,-262.24 1887.23,-242.81 1911.57,-231.67"/>
<polygon fill="midnightblue" stroke="midnightblue" points="1814.99,-272.02 1807.36,-279.37 1817.91,-278.39 1814.99,-272.02"/>
</g>
<!-- Node134&#45;&gt;Node11 -->
<g id="edge37" class="edge">
<title>Node134&#45;&gt;Node11</title>
<path fill="none" stroke="midnightblue" d="M1777.16,-270.52C1764.72,-252.85 1743.09,-226.18 1717.5,-212 1653.49,-176.53 1568.51,-165.66 1513.66,-162.51"/>
<polygon fill="midnightblue" stroke="midnightblue" points="1774.59,-272.96 1783.09,-279.28 1780.38,-269.03 1774.59,-272.96"/>
</g>
<!-- Node115&#45;&gt;Node11 -->
<g id="edge39" class="edge">
<title>Node115&#45;&gt;Node11</title>
<path fill="none" stroke="midnightblue" d="M1562.25,-271.78C1538.82,-246.89 1494.38,-199.64 1472.03,-175.89"/>
<polygon fill="midnightblue" stroke="midnightblue" points="1559.92,-274.42 1569.32,-279.31 1565.02,-269.62 1559.92,-274.42"/>
</g>
<!-- Node138&#45;&gt;Node10 -->
<g id="edge42" class="edge">
<title>Node138&#45;&gt;Node10</title>
<path fill="none" stroke="midnightblue" d="M2024.08,-264.38C1998.28,-252.97 1968.92,-239.99 1950.07,-231.65"/>
<polygon fill="midnightblue" stroke="midnightblue" points="2022.83,-267.65 2033.4,-268.5 2025.66,-261.25 2022.83,-267.65"/>
</g>
<!-- Node139&#45;&gt;Node9 -->
<g id="edge47" class="edge">
<title>Node139&#45;&gt;Node9</title>
<path fill="none" stroke="midnightblue" d="M1768.61,-415.27C1803.54,-402.37 1857.68,-382.38 1888.31,-371.06"/>
<polygon fill="midnightblue" stroke="midnightblue" points="1767.04,-412.12 1758.87,-418.87 1769.46,-418.69 1767.04,-412.12"/>
</g>
<!-- Node139&#45;&gt;Node11 -->
<g id="edge48" class="edge">
<title>Node139&#45;&gt;Node11</title>
<path fill="none" stroke="midnightblue" d="M1729.58,-409C1718.52,-376.89 1692.02,-310.23 1650.5,-268 1606.67,-223.43 1540.2,-192.26 1498.09,-175.61"/>
<polygon fill="midnightblue" stroke="midnightblue" points="1726.37,-410.44 1732.85,-418.82 1733.01,-408.23 1726.37,-410.44"/>
</g>
<!-- Node139&#45;&gt;Node115 -->
<g id="edge49" class="edge">
<title>Node139&#45;&gt;Node115</title>
<path fill="none" stroke="midnightblue" d="M1720.81,-411.57C1704.88,-394.61 1678.38,-367.33 1653.5,-346 1632.35,-327.87 1605.77,-309.12 1590.31,-298.57"/>
<polygon fill="midnightblue" stroke="midnightblue" points="1718.36,-414.06 1727.73,-418.99 1723.48,-409.29 1718.36,-414.06"/>
</g>
<!-- Node139&#45;&gt;Node142 -->
<g id="edge50" class="edge">
<title>Node139&#45;&gt;Node142</title>
<path fill="none" stroke="midnightblue" d="M1706.26,-414.91C1680.69,-403.91 1643.6,-387.94 1617.09,-376.53"/>
<polygon fill="midnightblue" stroke="midnightblue" points="1704.88,-418.13 1715.45,-418.87 1707.65,-411.7 1704.88,-418.13"/>
</g>
<!-- Node146&#45;&gt;Node11 -->
<g id="edge52" class="edge">
<title>Node146&#45;&gt;Node11</title>
<path fill="none" stroke="midnightblue" d="M1393.87,-206.74C1407.38,-197.28 1425.03,-184.93 1438.47,-175.52"/>
<polygon fill="midnightblue" stroke="midnightblue" points="1391.86,-203.87 1385.68,-212.48 1395.88,-209.61 1391.86,-203.87"/>
</g>
<!-- Node150 -->
<g id="node43" class="node">
<title>Node150</title>
<g id="a_node43"><a xlink:href="m__Do__printf_8cpp.html" target="_top" xlink:title=" ">
<polygon fill="white" stroke="black" points="2533.5,-419 2533.5,-438 2665.5,-438 2665.5,-419 2533.5,-419"/>
<text text-anchor="middle" x="2599.5" y="-426" font-family="Helvetica,sans-Serif" font-size="10.00">src/m_Do/m_Do_printf.cpp</text>
</a>
</g>
</g>
<!-- Node149&#45;&gt;Node150 -->
<g id="edge59" class="edge">
<title>Node149&#45;&gt;Node150</title>
<path fill="none" stroke="midnightblue" d="M2599.5,-475.54C2599.5,-463.17 2599.5,-447.62 2599.5,-438.13"/>
<polygon fill="midnightblue" stroke="midnightblue" points="2596,-475.73 2599.5,-485.73 2603,-475.73 2596,-475.73"/>
</g>
</g>
</svg>
