<?xml version="1.0" encoding="UTF-8" standalone="no"?>
<!DOCTYPE svg PUBLIC "-//W3C//DTD SVG 1.1//EN"
 "http://www.w3.org/Graphics/SVG/1.1/DTD/svg11.dtd">
<!-- Generated by graphviz version 3.0.0 (20220413.0242)
 -->
<!-- Title: include/JSystem/JMessage/processor.h Pages: 1 -->
<svg width="3066pt" height="363pt"
 viewBox="0.00 0.00 3066.00 363.00" xmlns="http://www.w3.org/2000/svg" xmlns:xlink="http://www.w3.org/1999/xlink">
<g id="graph0" class="graph" transform="scale(1 1) rotate(0) translate(4 359)">
<title>include/JSystem/JMessage/processor.h</title>
<polygon fill="white" stroke="transparent" points="-4,4 -4,-359 3062,-359 3062,4 -4,4"/>
<!-- Node1 -->
<g id="node1" class="node">
<title>Node1</title>
<g id="a_node1"><a xlink:title=" ">
<polygon fill="#bfbfbf" stroke="black" points="2453,-324.5 2453,-354.5 2590,-354.5 2590,-324.5 2453,-324.5"/>
<text text-anchor="start" x="2461" y="-342.5" font-family="Helvetica,sans-Serif" font-size="10.00">include/JSystem/JMessage</text>
<text text-anchor="middle" x="2521.5" y="-331.5" font-family="Helvetica,sans-Serif" font-size="10.00">/processor.h</text>
</a>
</g>
</g>
<!-- Node2 -->
<g id="node2" class="node">
<title>Node2</title>
<g id="a_node2"><a xlink:href="JMessage_2control_8h.html" target="_top" xlink:title=" ">
<polygon fill="white" stroke="black" points="2405,-257.5 2405,-287.5 2542,-287.5 2542,-257.5 2405,-257.5"/>
<text text-anchor="start" x="2413" y="-275.5" font-family="Helvetica,sans-Serif" font-size="10.00">include/JSystem/JMessage</text>
<text text-anchor="middle" x="2473.5" y="-264.5" font-family="Helvetica,sans-Serif" font-size="10.00">/control.h</text>
</a>
</g>
</g>
<!-- Node1&#45;&gt;Node2 -->
<g id="edge1" class="edge">
<title>Node1&#45;&gt;Node2</title>
<path fill="none" stroke="midnightblue" d="M2505,-316.16C2498,-306.68 2490.06,-295.92 2483.89,-287.58"/>
<polygon fill="midnightblue" stroke="midnightblue" points="2502.33,-318.43 2511.08,-324.4 2507.96,-314.27 2502.33,-318.43"/>
</g>
<!-- Node11 -->
<g id="node11" class="node">
<title>Node11</title>
<g id="a_node11"><a xlink:href="d__msg__object_8h.html" target="_top" xlink:title=" ">
<polygon fill="white" stroke="black" points="1518.5,-190.5 1518.5,-220.5 1628.5,-220.5 1628.5,-190.5 1518.5,-190.5"/>
<text text-anchor="start" x="1526.5" y="-208.5" font-family="Helvetica,sans-Serif" font-size="10.00">include/d/msg/d_msg</text>
<text text-anchor="middle" x="1573.5" y="-197.5" font-family="Helvetica,sans-Serif" font-size="10.00">_object.h</text>
</a>
</g>
</g>
<!-- Node1&#45;&gt;Node11 -->
<g id="edge35" class="edge">
<title>Node1&#45;&gt;Node11</title>
<path fill="none" stroke="midnightblue" d="M2442.92,-327.56C2256.06,-301.54 1788.89,-236.49 1628.54,-214.16"/>
<polygon fill="midnightblue" stroke="midnightblue" points="2442.55,-331.04 2452.94,-328.95 2443.52,-324.11 2442.55,-331.04"/>
</g>
<!-- Node30 -->
<g id="node30" class="node">
<title>Node30</title>
<g id="a_node30"><a xlink:href="JMessage_2control_8cpp.html" target="_top" xlink:title=" ">
<polygon fill="white" stroke="black" points="2510,-190.5 2510,-220.5 2631,-220.5 2631,-190.5 2510,-190.5"/>
<text text-anchor="start" x="2518" y="-208.5" font-family="Helvetica,sans-Serif" font-size="10.00">libs/JSystem/JMessage</text>
<text text-anchor="middle" x="2570.5" y="-197.5" font-family="Helvetica,sans-Serif" font-size="10.00">/control.cpp</text>
</a>
</g>
</g>
<!-- Node1&#45;&gt;Node30 -->
<g id="edge36" class="edge">
<title>Node1&#45;&gt;Node30</title>
<path fill="none" stroke="midnightblue" d="M2536.29,-315.89C2541.35,-307.41 2546.69,-297.51 2550.5,-288 2559.6,-265.28 2565.37,-237.28 2568.26,-220.72"/>
<polygon fill="midnightblue" stroke="midnightblue" points="2533.28,-314.11 2531,-324.46 2539.23,-317.79 2533.28,-314.11"/>
</g>
<!-- Node31 -->
<g id="node31" class="node">
<title>Node31</title>
<g id="a_node31"><a xlink:href="processor_8cpp.html" target="_top" xlink:title=" ">
<polygon fill="white" stroke="black" points="2649,-190.5 2649,-220.5 2770,-220.5 2770,-190.5 2649,-190.5"/>
<text text-anchor="start" x="2657" y="-208.5" font-family="Helvetica,sans-Serif" font-size="10.00">libs/JSystem/JMessage</text>
<text text-anchor="middle" x="2709.5" y="-197.5" font-family="Helvetica,sans-Serif" font-size="10.00">/processor.cpp</text>
</a>
</g>
</g>
<!-- Node1&#45;&gt;Node31 -->
<g id="edge37" class="edge">
<title>Node1&#45;&gt;Node31</title>
<path fill="none" stroke="midnightblue" d="M2549.81,-318.62C2588.25,-291.64 2655.98,-244.08 2689.53,-220.52"/>
<polygon fill="midnightblue" stroke="midnightblue" points="2547.79,-315.76 2541.62,-324.37 2551.81,-321.49 2547.79,-315.76"/>
</g>
<!-- Node3 -->
<g id="node3" class="node">
<title>Node3</title>
<g id="a_node3"><a xlink:href="d__demo_8h.html" target="_top" xlink:title=" ">
<polygon fill="white" stroke="black" points="2391,-196 2391,-215 2492,-215 2492,-196 2391,-196"/>
<text text-anchor="middle" x="2441.5" y="-203" font-family="Helvetica,sans-Serif" font-size="10.00">include/d/d_demo.h</text>
</a>
</g>
</g>
<!-- Node2&#45;&gt;Node3 -->
<g id="edge2" class="edge">
<title>Node2&#45;&gt;Node3</title>
<path fill="none" stroke="midnightblue" d="M2462.07,-248.29C2456.42,-236.8 2449.93,-223.63 2445.78,-215.19"/>
<polygon fill="midnightblue" stroke="midnightblue" points="2459,-249.97 2466.56,-257.4 2465.28,-246.88 2459,-249.97"/>
</g>
<!-- Node2&#45;&gt;Node11 -->
<g id="edge10" class="edge">
<title>Node2&#45;&gt;Node11</title>
<path fill="none" stroke="midnightblue" d="M2394.61,-265.8C2215.65,-252.88 1782.52,-221.6 1628.77,-210.49"/>
<polygon fill="midnightblue" stroke="midnightblue" points="2394.52,-269.3 2404.74,-266.53 2395.02,-262.32 2394.52,-269.3"/>
</g>
<!-- Node2&#45;&gt;Node30 -->
<g id="edge33" class="edge">
<title>Node2&#45;&gt;Node30</title>
<path fill="none" stroke="midnightblue" d="M2503,-251.73C2518.01,-241.68 2535.9,-229.68 2549.49,-220.58"/>
<polygon fill="midnightblue" stroke="midnightblue" points="2500.91,-248.92 2494.55,-257.4 2504.8,-254.74 2500.91,-248.92"/>
</g>
<!-- Node2&#45;&gt;Node31 -->
<g id="edge34" class="edge">
<title>Node2&#45;&gt;Node31</title>
<path fill="none" stroke="midnightblue" d="M2534.44,-254.71C2572.85,-244.14 2621.87,-230.63 2658.27,-220.61"/>
<polygon fill="midnightblue" stroke="midnightblue" points="2533.13,-251.45 2524.42,-257.48 2534.99,-258.19 2533.13,-251.45"/>
</g>
<!-- Node4 -->
<g id="node4" class="node">
<title>Node4</title>
<g id="a_node4"><a xlink:href="d__com__static_8cpp.html" target="_top" xlink:title=" ">
<polygon fill="white" stroke="black" points="2646.5,-129 2646.5,-148 2786.5,-148 2786.5,-129 2646.5,-129"/>
<text text-anchor="middle" x="2716.5" y="-136" font-family="Helvetica,sans-Serif" font-size="10.00">src/d/com/d_com_static.cpp</text>
</a>
</g>
</g>
<!-- Node3&#45;&gt;Node4 -->
<g id="edge3" class="edge">
<title>Node3&#45;&gt;Node4</title>
<path fill="none" stroke="midnightblue" d="M2486.03,-193.5C2490.91,-192.31 2495.81,-191.12 2500.5,-190 2563.23,-174.96 2636.34,-157.98 2679.4,-148.04"/>
<polygon fill="midnightblue" stroke="midnightblue" points="2485,-190.15 2476.11,-195.92 2486.66,-196.95 2485,-190.15"/>
</g>
<!-- Node5 -->
<g id="node5" class="node">
<title>Node5</title>
<g id="a_node5"><a xlink:href="d__demo_8cpp.html" target="_top" xlink:title=" ">
<polygon fill="white" stroke="black" points="2394.5,-129 2394.5,-148 2488.5,-148 2488.5,-129 2394.5,-129"/>
<text text-anchor="middle" x="2441.5" y="-136" font-family="Helvetica,sans-Serif" font-size="10.00">src/d/d_demo.cpp</text>
</a>
</g>
</g>
<!-- Node3&#45;&gt;Node5 -->
<g id="edge4" class="edge">
<title>Node3&#45;&gt;Node5</title>
<path fill="none" stroke="midnightblue" d="M2441.5,-185.54C2441.5,-173.17 2441.5,-157.62 2441.5,-148.13"/>
<polygon fill="midnightblue" stroke="midnightblue" points="2438,-185.73 2441.5,-195.73 2445,-185.73 2438,-185.73"/>
</g>
<!-- Node6 -->
<g id="node6" class="node">
<title>Node6</title>
<g id="a_node6"><a xlink:href="d__event_8cpp.html" target="_top" xlink:title=" ">
<polygon fill="white" stroke="black" points="2507,-129 2507,-148 2628,-148 2628,-129 2507,-129"/>
<text text-anchor="middle" x="2567.5" y="-136" font-family="Helvetica,sans-Serif" font-size="10.00">src/d/event/d_event.cpp</text>
</a>
</g>
</g>
<!-- Node3&#45;&gt;Node6 -->
<g id="edge5" class="edge">
<title>Node3&#45;&gt;Node6</title>
<path fill="none" stroke="midnightblue" d="M2467.14,-191.27C2492.09,-178.4 2529.3,-159.21 2550.7,-148.17"/>
<polygon fill="midnightblue" stroke="midnightblue" points="2465.51,-188.17 2458.23,-195.87 2468.72,-194.39 2465.51,-188.17"/>
</g>
<!-- Node7 -->
<g id="node7" class="node">
<title>Node7</title>
<g id="a_node7"><a xlink:href="d__event__data_8cpp.html" target="_top" xlink:title=" ">
<polygon fill="white" stroke="black" points="2149,-123.5 2149,-153.5 2252,-153.5 2252,-123.5 2149,-123.5"/>
<text text-anchor="start" x="2157" y="-141.5" font-family="Helvetica,sans-Serif" font-size="10.00">src/d/event/d_event</text>
<text text-anchor="middle" x="2200.5" y="-130.5" font-family="Helvetica,sans-Serif" font-size="10.00">_data.cpp</text>
</a>
</g>
</g>
<!-- Node3&#45;&gt;Node7 -->
<g id="edge6" class="edge">
<title>Node3&#45;&gt;Node7</title>
<path fill="none" stroke="midnightblue" d="M2399.82,-193.26C2358.83,-182.2 2296.16,-165.3 2252.05,-153.4"/>
<polygon fill="midnightblue" stroke="midnightblue" points="2398.93,-196.64 2409.5,-195.87 2400.75,-189.89 2398.93,-196.64"/>
</g>
<!-- Node8 -->
<g id="node8" class="node">
<title>Node8</title>
<g id="a_node8"><a xlink:href="d__kankyo__rain_8cpp.html" target="_top" xlink:title=" ">
<polygon fill="white" stroke="black" points="2804.5,-123.5 2804.5,-153.5 2920.5,-153.5 2920.5,-123.5 2804.5,-123.5"/>
<text text-anchor="start" x="2812.5" y="-141.5" font-family="Helvetica,sans-Serif" font-size="10.00">src/d/kankyo/d_kankyo</text>
<text text-anchor="middle" x="2862.5" y="-130.5" font-family="Helvetica,sans-Serif" font-size="10.00">_rain.cpp</text>
</a>
</g>
</g>
<!-- Node3&#45;&gt;Node8 -->
<g id="edge7" class="edge">
<title>Node3&#45;&gt;Node8</title>
<path fill="none" stroke="midnightblue" d="M2483.35,-193.56C2489.09,-192.25 2494.92,-191.02 2500.5,-190 2630.42,-166.2 2665.26,-175.99 2795.5,-154 2798.43,-153.5 2801.43,-152.97 2804.46,-152.4"/>
<polygon fill="midnightblue" stroke="midnightblue" points="2482.12,-190.26 2473.19,-195.97 2483.73,-197.07 2482.12,-190.26"/>
</g>
<!-- Node9 -->
<g id="node9" class="node">
<title>Node9</title>
<g id="a_node9"><a xlink:href="d__s__play_8cpp.html" target="_top" xlink:title=" ">
<polygon fill="white" stroke="black" points="2270.5,-129 2270.5,-148 2376.5,-148 2376.5,-129 2270.5,-129"/>
<text text-anchor="middle" x="2323.5" y="-136" font-family="Helvetica,sans-Serif" font-size="10.00">src/d/s/d_s_play.cpp</text>
</a>
</g>
</g>
<!-- Node3&#45;&gt;Node9 -->
<g id="edge8" class="edge">
<title>Node3&#45;&gt;Node9</title>
<path fill="none" stroke="midnightblue" d="M2416.61,-190.79C2393.22,-177.9 2358.94,-159.02 2339.16,-148.13"/>
<polygon fill="midnightblue" stroke="midnightblue" points="2415.14,-193.97 2425.59,-195.73 2418.52,-187.84 2415.14,-193.97"/>
</g>
<!-- Node10 -->
<g id="node10" class="node">
<title>Node10</title>
<g id="a_node10"><a xlink:href="f__op__actor_8cpp.html" target="_top" xlink:title=" ">
<polygon fill="white" stroke="black" points="2939,-129 2939,-148 3058,-148 3058,-129 2939,-129"/>
<text text-anchor="middle" x="2998.5" y="-136" font-family="Helvetica,sans-Serif" font-size="10.00">src/f_op/f_op_actor.cpp</text>
</a>
</g>
</g>
<!-- Node3&#45;&gt;Node10 -->
<g id="edge9" class="edge">
<title>Node3&#45;&gt;Node10</title>
<path fill="none" stroke="midnightblue" d="M2482.27,-193.6C2488.35,-192.23 2494.57,-190.97 2500.5,-190 2689.32,-159.07 2740.18,-181.73 2929.5,-154 2940.16,-152.44 2951.64,-150.24 2962.12,-148.02"/>
<polygon fill="midnightblue" stroke="midnightblue" points="2481.16,-190.26 2472.24,-195.98 2482.78,-197.08 2481.16,-190.26"/>
</g>
<!-- Node11&#45;&gt;Node5 -->
<g id="edge17" class="edge">
<title>Node11&#45;&gt;Node5</title>
<path fill="none" stroke="midnightblue" d="M1638.56,-204.66C1776.93,-204.07 2110.27,-197.78 2385.5,-154 2394.53,-152.56 2404.21,-150.32 2412.95,-148.02"/>
<polygon fill="midnightblue" stroke="midnightblue" points="1638.53,-201.16 1628.55,-204.69 1638.56,-208.16 1638.53,-201.16"/>
</g>
<!-- Node11&#45;&gt;Node6 -->
<g id="edge18" class="edge">
<title>Node11&#45;&gt;Node6</title>
<path fill="none" stroke="midnightblue" d="M1638.77,-204.28C1790.26,-203.04 2177.27,-195.68 2497.5,-154 2508.58,-152.56 2520.52,-150.34 2531.34,-148.07"/>
<polygon fill="midnightblue" stroke="midnightblue" points="1638.67,-200.78 1628.7,-204.36 1638.73,-207.78 1638.67,-200.78"/>
</g>
<!-- Node11&#45;&gt;Node7 -->
<g id="edge19" class="edge">
<title>Node11&#45;&gt;Node7</title>
<path fill="none" stroke="midnightblue" d="M1639.07,-201.73C1744.92,-196.56 1959.74,-183.23 2139.5,-154 2142.51,-153.51 2145.59,-152.96 2148.69,-152.35"/>
<polygon fill="midnightblue" stroke="midnightblue" points="1638.69,-198.24 1628.87,-202.22 1639.02,-205.23 1638.69,-198.24"/>
</g>
<!-- Node11&#45;&gt;Node9 -->
<g id="edge28" class="edge">
<title>Node11&#45;&gt;Node9</title>
<path fill="none" stroke="midnightblue" d="M1638.92,-203.02C1761.49,-199.5 2033.85,-188.21 2260.5,-154 2270.38,-152.51 2281,-150.3 2290.66,-148.06"/>
<polygon fill="midnightblue" stroke="midnightblue" points="1638.48,-199.53 1628.58,-203.3 1638.68,-206.52 1638.48,-199.53"/>
</g>
<!-- Node12 -->
<g id="node12" class="node">
<title>Node12</title>
<g id="a_node12"><a xlink:href="d__msg__string__base_8h.html" target="_top" xlink:title=" ">
<polygon fill="white" stroke="black" points="166.5,-123.5 166.5,-153.5 276.5,-153.5 276.5,-123.5 166.5,-123.5"/>
<text text-anchor="start" x="174.5" y="-141.5" font-family="Helvetica,sans-Serif" font-size="10.00">include/d/msg/d_msg</text>
<text text-anchor="middle" x="221.5" y="-130.5" font-family="Helvetica,sans-Serif" font-size="10.00">_string_base.h</text>
</a>
</g>
</g>
<!-- Node11&#45;&gt;Node12 -->
<g id="edge11" class="edge">
<title>Node11&#45;&gt;Node12</title>
<path fill="none" stroke="midnightblue" d="M1508.27,-203.53C1281.14,-199.89 525.72,-185.65 285.5,-154 282.56,-153.61 279.56,-153.16 276.54,-152.64"/>
<polygon fill="midnightblue" stroke="midnightblue" points="1508.31,-207.03 1518.37,-203.69 1508.42,-200.03 1508.31,-207.03"/>
</g>
<!-- Node17 -->
<g id="node17" class="node">
<title>Node17</title>
<g id="a_node17"><a xlink:href="d__a__alink_8cpp.html" target="_top" xlink:title=" ">
<polygon fill="white" stroke="black" points="295,-129 295,-148 404,-148 404,-129 295,-129"/>
<text text-anchor="middle" x="349.5" y="-136" font-family="Helvetica,sans-Serif" font-size="10.00">src/d/a/d_a_alink.cpp</text>
</a>
</g>
</g>
<!-- Node11&#45;&gt;Node17 -->
<g id="edge16" class="edge">
<title>Node11&#45;&gt;Node17</title>
<path fill="none" stroke="midnightblue" d="M1508.42,-203.2C1296.52,-198.74 627.64,-182.68 413.5,-154 403.11,-152.61 391.92,-150.34 381.85,-148.01"/>
<polygon fill="midnightblue" stroke="midnightblue" points="1508.39,-206.7 1518.46,-203.41 1508.54,-199.7 1508.39,-206.7"/>
</g>
<!-- Node18 -->
<g id="node18" class="node">
<title>Node18</title>
<g id="a_node18"><a xlink:href="d__kankyo_8cpp.html" target="_top" xlink:title=" ">
<polygon fill="white" stroke="black" points="422.5,-129 422.5,-148 556.5,-148 556.5,-129 422.5,-129"/>
<text text-anchor="middle" x="489.5" y="-136" font-family="Helvetica,sans-Serif" font-size="10.00">src/d/kankyo/d_kankyo.cpp</text>
</a>
</g>
</g>
<!-- Node11&#45;&gt;Node18 -->
<g id="edge20" class="edge">
<title>Node11&#45;&gt;Node18</title>
<path fill="none" stroke="midnightblue" d="M1508.16,-204.35C1347.28,-203.31 919.38,-196.42 565.5,-154 553.5,-152.56 540.54,-150.34 528.78,-148.07"/>
<polygon fill="midnightblue" stroke="midnightblue" points="1508.35,-207.85 1518.37,-204.41 1508.39,-200.85 1508.35,-207.85"/>
</g>
<!-- Node19 -->
<g id="node19" class="node">
<title>Node19</title>
<g id="a_node19"><a xlink:href="d__menu__window_8cpp.html" target="_top" xlink:title=" ">
<polygon fill="white" stroke="black" points="575,-129 575,-148 734,-148 734,-129 575,-129"/>
<text text-anchor="middle" x="654.5" y="-136" font-family="Helvetica,sans-Serif" font-size="10.00">src/d/menu/d_menu_window.cpp</text>
</a>
</g>
</g>
<!-- Node11&#45;&gt;Node19 -->
<g id="edge21" class="edge">
<title>Node11&#45;&gt;Node19</title>
<path fill="none" stroke="midnightblue" d="M1508.31,-202.77C1368.04,-198.55 1027.29,-185.67 743.5,-154 729.81,-152.47 715.01,-150.28 701.49,-148.06"/>
<polygon fill="midnightblue" stroke="midnightblue" points="1508.36,-206.27 1518.46,-203.07 1508.57,-199.27 1508.36,-206.27"/>
</g>
<!-- Node20 -->
<g id="node20" class="node">
<title>Node20</title>
<g id="a_node20"><a xlink:href="d__meter2__draw_8cpp.html" target="_top" xlink:title=" ">
<polygon fill="white" stroke="black" points="752.5,-123.5 752.5,-153.5 862.5,-153.5 862.5,-123.5 752.5,-123.5"/>
<text text-anchor="start" x="760.5" y="-141.5" font-family="Helvetica,sans-Serif" font-size="10.00">src/d/meter/d_meter2</text>
<text text-anchor="middle" x="807.5" y="-130.5" font-family="Helvetica,sans-Serif" font-size="10.00">_draw.cpp</text>
</a>
</g>
</g>
<!-- Node11&#45;&gt;Node20 -->
<g id="edge22" class="edge">
<title>Node11&#45;&gt;Node20</title>
<path fill="none" stroke="midnightblue" d="M1507.99,-203.08C1383.4,-199.66 1103.98,-188.5 871.5,-154 868.57,-153.57 865.57,-153.07 862.56,-152.53"/>
<polygon fill="midnightblue" stroke="midnightblue" points="1508.04,-206.59 1518.13,-203.35 1508.22,-199.59 1508.04,-206.59"/>
</g>
<!-- Node21 -->
<g id="node21" class="node">
<title>Node21</title>
<g id="a_node21"><a xlink:href="d__meter2__info_8cpp.html" target="_top" xlink:title=" ">
<polygon fill="white" stroke="black" points="880.5,-123.5 880.5,-153.5 990.5,-153.5 990.5,-123.5 880.5,-123.5"/>
<text text-anchor="start" x="888.5" y="-141.5" font-family="Helvetica,sans-Serif" font-size="10.00">src/d/meter/d_meter2</text>
<text text-anchor="middle" x="935.5" y="-130.5" font-family="Helvetica,sans-Serif" font-size="10.00">_info.cpp</text>
</a>
</g>
</g>
<!-- Node11&#45;&gt;Node21 -->
<g id="edge23" class="edge">
<title>Node11&#45;&gt;Node21</title>
<path fill="none" stroke="midnightblue" d="M1508.2,-201.63C1401.33,-196.29 1182.61,-182.66 999.5,-154 996.57,-153.54 993.58,-153.03 990.57,-152.47"/>
<polygon fill="midnightblue" stroke="midnightblue" points="1508.03,-205.13 1518.19,-202.12 1508.37,-198.13 1508.03,-205.13"/>
</g>
<!-- Node22 -->
<g id="node22" class="node">
<title>Node22</title>
<g id="a_node22"><a xlink:href="d__meter__map_8cpp.html" target="_top" xlink:title=" ">
<polygon fill="white" stroke="black" points="1008.5,-123.5 1008.5,-153.5 1112.5,-153.5 1112.5,-123.5 1008.5,-123.5"/>
<text text-anchor="start" x="1016.5" y="-141.5" font-family="Helvetica,sans-Serif" font-size="10.00">src/d/meter/d_meter</text>
<text text-anchor="middle" x="1060.5" y="-130.5" font-family="Helvetica,sans-Serif" font-size="10.00">_map.cpp</text>
</a>
</g>
</g>
<!-- Node11&#45;&gt;Node22 -->
<g id="edge24" class="edge">
<title>Node11&#45;&gt;Node22</title>
<path fill="none" stroke="midnightblue" d="M1508.1,-199.71C1419.88,-192.69 1258.06,-177.77 1121.5,-154 1118.6,-153.5 1115.64,-152.94 1112.66,-152.34"/>
<polygon fill="midnightblue" stroke="midnightblue" points="1507.98,-203.22 1518.23,-200.51 1508.53,-196.24 1507.98,-203.22"/>
</g>
<!-- Node23 -->
<g id="node23" class="node">
<title>Node23</title>
<g id="a_node23"><a xlink:href="d__msg__flow_8cpp.html" target="_top" xlink:title=" ">
<polygon fill="white" stroke="black" points="1131,-129 1131,-148 1264,-148 1264,-129 1131,-129"/>
<text text-anchor="middle" x="1197.5" y="-136" font-family="Helvetica,sans-Serif" font-size="10.00">src/d/msg/d_msg_flow.cpp</text>
</a>
</g>
</g>
<!-- Node11&#45;&gt;Node23 -->
<g id="edge25" class="edge">
<title>Node11&#45;&gt;Node23</title>
<path fill="none" stroke="midnightblue" d="M1508.2,-193.93C1447.38,-183.98 1354.22,-168.49 1273.5,-154 1263.06,-152.12 1251.82,-150.03 1241.28,-148.02"/>
<polygon fill="midnightblue" stroke="midnightblue" points="1507.99,-197.44 1518.42,-195.6 1509.12,-190.53 1507.99,-197.44"/>
</g>
<!-- Node24 -->
<g id="node24" class="node">
<title>Node24</title>
<g id="a_node24"><a xlink:href="d__msg__object_8cpp.html" target="_top" xlink:title=" ">
<polygon fill="white" stroke="black" points="1282.5,-129 1282.5,-148 1424.5,-148 1424.5,-129 1282.5,-129"/>
<text text-anchor="middle" x="1353.5" y="-136" font-family="Helvetica,sans-Serif" font-size="10.00">src/d/msg/d_msg_object.cpp</text>
</a>
</g>
</g>
<!-- Node11&#45;&gt;Node24 -->
<g id="edge26" class="edge">
<title>Node11&#45;&gt;Node24</title>
<path fill="none" stroke="midnightblue" d="M1516.27,-187.59C1473.3,-174.9 1416.26,-158.04 1382.37,-148.03"/>
<polygon fill="midnightblue" stroke="midnightblue" points="1515.45,-191 1526.03,-190.48 1517.44,-184.29 1515.45,-191"/>
</g>
<!-- Node25 -->
<g id="node25" class="node">
<title>Node25</title>
<g id="a_node25"><a xlink:href="d__msg__out__font_8cpp.html" target="_top" xlink:title=" ">
<polygon fill="white" stroke="black" points="1443,-123.5 1443,-153.5 1554,-153.5 1554,-123.5 1443,-123.5"/>
<text text-anchor="start" x="1451" y="-141.5" font-family="Helvetica,sans-Serif" font-size="10.00">src/d/msg/d_msg_out</text>
<text text-anchor="middle" x="1498.5" y="-130.5" font-family="Helvetica,sans-Serif" font-size="10.00">_font.cpp</text>
</a>
</g>
</g>
<!-- Node11&#45;&gt;Node25 -->
<g id="edge27" class="edge">
<title>Node11&#45;&gt;Node25</title>
<path fill="none" stroke="midnightblue" d="M1549.38,-183.6C1538.06,-173.78 1524.86,-162.34 1514.74,-153.58"/>
<polygon fill="midnightblue" stroke="midnightblue" points="1547.38,-186.49 1557.23,-190.4 1551.96,-181.2 1547.38,-186.49"/>
</g>
<!-- Node26 -->
<g id="node26" class="node">
<title>Node26</title>
<g id="a_node26"><a xlink:href="d__shop__system_8cpp.html" target="_top" xlink:title=" ">
<polygon fill="white" stroke="black" points="1572.5,-129 1572.5,-148 1724.5,-148 1724.5,-129 1572.5,-129"/>
<text text-anchor="middle" x="1648.5" y="-136" font-family="Helvetica,sans-Serif" font-size="10.00">src/d/shop/d_shop_system.cpp</text>
</a>
</g>
</g>
<!-- Node11&#45;&gt;Node26 -->
<g id="edge29" class="edge">
<title>Node11&#45;&gt;Node26</title>
<path fill="none" stroke="midnightblue" d="M1597.53,-183.67C1611.38,-171.67 1628.05,-157.22 1638.47,-148.19"/>
<polygon fill="midnightblue" stroke="midnightblue" points="1595.04,-181.2 1589.77,-190.4 1599.62,-186.49 1595.04,-181.2"/>
</g>
<!-- Node27 -->
<g id="node27" class="node">
<title>Node27</title>
<g id="a_node27"><a xlink:href="f__op__msg__mng_8cpp.html" target="_top" xlink:title=" ">
<polygon fill="white" stroke="black" points="1742.5,-129 1742.5,-148 1882.5,-148 1882.5,-129 1742.5,-129"/>
<text text-anchor="middle" x="1812.5" y="-136" font-family="Helvetica,sans-Serif" font-size="10.00">src/f_op/f_op_msg_mng.cpp</text>
</a>
</g>
</g>
<!-- Node11&#45;&gt;Node27 -->
<g id="edge30" class="edge">
<title>Node11&#45;&gt;Node27</title>
<path fill="none" stroke="midnightblue" d="M1634.79,-187.83C1681.57,-175.11 1744.09,-158.11 1781.14,-148.03"/>
<polygon fill="midnightblue" stroke="midnightblue" points="1633.8,-184.47 1625.07,-190.48 1635.63,-191.23 1633.8,-184.47"/>
</g>
<!-- Node28 -->
<g id="node28" class="node">
<title>Node28</title>
<g id="a_node28"><a xlink:href="d__msg__scrn__base_8cpp.html" target="_top" xlink:title=" ">
<polygon fill="white" stroke="black" points="1900.5,-123.5 1900.5,-153.5 2006.5,-153.5 2006.5,-123.5 1900.5,-123.5"/>
<text text-anchor="start" x="1908.5" y="-141.5" font-family="Helvetica,sans-Serif" font-size="10.00">src/msg/scrn/d_msg</text>
<text text-anchor="middle" x="1953.5" y="-130.5" font-family="Helvetica,sans-Serif" font-size="10.00">_scrn_base.cpp</text>
</a>
</g>
</g>
<!-- Node11&#45;&gt;Node28 -->
<g id="edge31" class="edge">
<title>Node11&#45;&gt;Node28</title>
<path fill="none" stroke="midnightblue" d="M1638.6,-195.57C1703.04,-186.39 1804.41,-171.08 1891.5,-154 1894.43,-153.43 1897.43,-152.81 1900.45,-152.17"/>
<polygon fill="midnightblue" stroke="midnightblue" points="1637.99,-192.12 1628.58,-196.99 1638.97,-199.05 1637.99,-192.12"/>
</g>
<!-- Node29 -->
<g id="node29" class="node">
<title>Node29</title>
<g id="a_node29"><a xlink:href="d__msg__scrn__boss_8cpp.html" target="_top" xlink:title=" ">
<polygon fill="white" stroke="black" points="2024.5,-123.5 2024.5,-153.5 2130.5,-153.5 2130.5,-123.5 2024.5,-123.5"/>
<text text-anchor="start" x="2032.5" y="-141.5" font-family="Helvetica,sans-Serif" font-size="10.00">src/msg/scrn/d_msg</text>
<text text-anchor="middle" x="2077.5" y="-130.5" font-family="Helvetica,sans-Serif" font-size="10.00">_scrn_boss.cpp</text>
</a>
</g>
</g>
<!-- Node11&#45;&gt;Node29 -->
<g id="edge32" class="edge">
<title>Node11&#45;&gt;Node29</title>
<path fill="none" stroke="midnightblue" d="M1638.77,-199.43C1725.31,-192.16 1882.59,-177.05 2015.5,-154 2018.44,-153.49 2021.45,-152.93 2024.48,-152.33"/>
<polygon fill="midnightblue" stroke="midnightblue" points="1638.25,-195.96 1628.57,-200.27 1638.83,-202.93 1638.25,-195.96"/>
</g>
<!-- Node13 -->
<g id="node13" class="node">
<title>Node13</title>
<g id="a_node13"><a xlink:href="d__msg__string_8h.html" target="_top" xlink:title=" ">
<polygon fill="white" stroke="black" points="99.5,-56.5 99.5,-86.5 209.5,-86.5 209.5,-56.5 99.5,-56.5"/>
<text text-anchor="start" x="107.5" y="-74.5" font-family="Helvetica,sans-Serif" font-size="10.00">include/d/msg/d_msg</text>
<text text-anchor="middle" x="154.5" y="-63.5" font-family="Helvetica,sans-Serif" font-size="10.00">_string.h</text>
</a>
</g>
</g>
<!-- Node12&#45;&gt;Node13 -->
<g id="edge12" class="edge">
<title>Node12&#45;&gt;Node13</title>
<path fill="none" stroke="midnightblue" d="M199.66,-116.31C189.61,-106.56 177.96,-95.26 169.01,-86.58"/>
<polygon fill="midnightblue" stroke="midnightblue" points="197.35,-118.94 206.96,-123.4 202.22,-113.92 197.35,-118.94"/>
</g>
<!-- Node16 -->
<g id="node16" class="node">
<title>Node16</title>
<g id="a_node16"><a xlink:href="d__msg__string__base_8cpp.html" target="_top" xlink:title=" ">
<polygon fill="white" stroke="black" points="227.5,-56.5 227.5,-86.5 349.5,-86.5 349.5,-56.5 227.5,-56.5"/>
<text text-anchor="start" x="235.5" y="-74.5" font-family="Helvetica,sans-Serif" font-size="10.00">src/d/msg/d_msg_string</text>
<text text-anchor="middle" x="288.5" y="-63.5" font-family="Helvetica,sans-Serif" font-size="10.00">_base.cpp</text>
</a>
</g>
</g>
<!-- Node12&#45;&gt;Node16 -->
<g id="edge15" class="edge">
<title>Node12&#45;&gt;Node16</title>
<path fill="none" stroke="midnightblue" d="M243.34,-116.31C253.39,-106.56 265.04,-95.26 273.99,-86.58"/>
<polygon fill="midnightblue" stroke="midnightblue" points="240.78,-113.92 236.04,-123.4 245.65,-118.94 240.78,-113.92"/>
</g>
<!-- Node14 -->
<g id="node14" class="node">
<title>Node14</title>
<g id="a_node14"><a xlink:href="d__menu__save_8cpp.html" target="_top" xlink:title=" ">
<polygon fill="white" stroke="black" points="0,-0.5 0,-19.5 147,-19.5 147,-0.5 0,-0.5"/>
<text text-anchor="middle" x="73.5" y="-7.5" font-family="Helvetica,sans-Serif" font-size="10.00">src/d/menu/d_menu_save.cpp</text>
</a>
</g>
</g>
<!-- Node13&#45;&gt;Node14 -->
<g id="edge13" class="edge">
<title>Node13&#45;&gt;Node14</title>
<path fill="none" stroke="midnightblue" d="M126.85,-50.19C112.67,-39.77 96.14,-27.63 85.29,-19.66"/>
<polygon fill="midnightblue" stroke="midnightblue" points="125.17,-53.3 135.3,-56.4 129.32,-47.66 125.17,-53.3"/>
</g>
<!-- Node15 -->
<g id="node15" class="node">
<title>Node15</title>
<g id="a_node15"><a xlink:href="d__msg__string_8cpp.html" target="_top" xlink:title=" ">
<polygon fill="white" stroke="black" points="165.5,-0.5 165.5,-19.5 305.5,-19.5 305.5,-0.5 165.5,-0.5"/>
<text text-anchor="middle" x="235.5" y="-7.5" font-family="Helvetica,sans-Serif" font-size="10.00">src/d/msg/d_msg_string.cpp</text>
</a>
</g>
</g>
<!-- Node13&#45;&gt;Node15 -->
<g id="edge14" class="edge">
<title>Node13&#45;&gt;Node15</title>
<path fill="none" stroke="midnightblue" d="M182.15,-50.19C196.33,-39.77 212.86,-27.63 223.71,-19.66"/>
<polygon fill="midnightblue" stroke="midnightblue" points="179.68,-47.66 173.7,-56.4 183.83,-53.3 179.68,-47.66"/>
</g>
</g>
</svg>
