<?xml version="1.0" encoding="UTF-8" standalone="no"?>
<!DOCTYPE svg PUBLIC "-//W3C//DTD SVG 1.1//EN"
 "http://www.w3.org/Graphics/SVG/1.1/DTD/svg11.dtd">
<!-- Generated by graphviz version 2.50.0 (20220203.2022)
 -->
<!-- Title: libs/dolphin/mtx/quat.cpp Pages: 1 -->
<svg width="748pt" height="218pt"
 viewBox="0.00 0.00 748.00 218.00" xmlns="http://www.w3.org/2000/svg" xmlns:xlink="http://www.w3.org/1999/xlink">
<g id="graph0" class="graph" transform="scale(1 1) rotate(0) translate(4 214)">
<title>libs/dolphin/mtx/quat.cpp</title>
<polygon fill="white" stroke="transparent" points="-4,4 -4,-214 744,-214 744,4 -4,4"/>
<!-- Node1 -->
<g id="node1" class="node">
<title>Node1</title>
<g id="a_node1"><a xlink:title=" ">
<polygon fill="#bfbfbf" stroke="black" points="245,-190.5 245,-209.5 369,-209.5 369,-190.5 245,-190.5"/>
<text text-anchor="middle" x="307" y="-197.5" font-family="Helvetica,sans-Serif" font-size="10.00">libs/dolphin/mtx/quat.cpp</text>
</a>
</g>
</g>
<!-- Node2 -->
<g id="node2" class="node">
<title>Node2</title>
<g id="a_node2"><a xlink:href="quat_8h.html" target="_top" xlink:title=" ">
<polygon fill="white" stroke="black" points="34.5,-129 34.5,-148 129.5,-148 129.5,-129 34.5,-129"/>
<text text-anchor="middle" x="82" y="-136" font-family="Helvetica,sans-Serif" font-size="10.00">dolphin/mtx/quat.h</text>
</a>
</g>
</g>
<!-- Node1&#45;&gt;Node2 -->
<g id="edge1" class="edge">
<title>Node1&#45;&gt;Node2</title>
<path fill="none" stroke="midnightblue" d="M274.76,-190.48C235.08,-179.98 167.6,-162.14 123.93,-150.59"/>
<polygon fill="midnightblue" stroke="midnightblue" points="124.74,-147.18 114.18,-148.01 122.95,-153.95 124.74,-147.18"/>
</g>
<!-- Node4 -->
<g id="node4" class="node">
<title>Node4</title>
<g id="a_node4"><a xlink:href="types_8h.html" target="_top" xlink:title=" ">
<polygon fill="white" stroke="black" points="117.5,-0.5 117.5,-19.5 198.5,-19.5 198.5,-0.5 117.5,-0.5"/>
<text text-anchor="middle" x="158" y="-7.5" font-family="Helvetica,sans-Serif" font-size="10.00">dolphin/types.h</text>
</a>
</g>
</g>
<!-- Node1&#45;&gt;Node4 -->
<g id="edge6" class="edge">
<title>Node1&#45;&gt;Node4</title>
<path fill="none" stroke="midnightblue" d="M244.93,-191.72C220.2,-185.62 193.69,-174.44 177,-154 147.77,-118.21 150.8,-59.73 154.78,-29.85"/>
<polygon fill="midnightblue" stroke="midnightblue" points="158.3,-30 156.34,-19.59 151.38,-28.95 158.3,-30"/>
</g>
<!-- Node5 -->
<g id="node5" class="node">
<title>Node5</title>
<g id="a_node5"><a xlink:href="dol2asm_8h.html" target="_top" xlink:title=" ">
<polygon fill="white" stroke="black" points="186.5,-129 186.5,-148 247.5,-148 247.5,-129 186.5,-129"/>
<text text-anchor="middle" x="217" y="-136" font-family="Helvetica,sans-Serif" font-size="10.00">dol2asm.h</text>
</a>
</g>
</g>
<!-- Node1&#45;&gt;Node5 -->
<g id="edge5" class="edge">
<title>Node1&#45;&gt;Node5</title>
<path fill="none" stroke="midnightblue" d="M294.11,-190.48C279.54,-180.84 255.6,-165.02 238.25,-153.55"/>
<polygon fill="midnightblue" stroke="midnightblue" points="240.14,-150.6 229.87,-148.01 236.28,-156.44 240.14,-150.6"/>
</g>
<!-- Node6 -->
<g id="node6" class="node">
<title>Node6</title>
<g id="a_node6"><a xlink:href="math_8h.html" target="_top" xlink:title=" ">
<polygon fill="white" stroke="black" points="266,-129 266,-148 348,-148 348,-129 266,-129"/>
<text text-anchor="middle" x="307" y="-136" font-family="Helvetica,sans-Serif" font-size="10.00">MSL_C/math.h</text>
</a>
</g>
</g>
<!-- Node1&#45;&gt;Node6 -->
<g id="edge7" class="edge">
<title>Node1&#45;&gt;Node6</title>
<path fill="none" stroke="midnightblue" d="M307,-190.48C307,-182.08 307,-168.98 307,-158.16"/>
<polygon fill="midnightblue" stroke="midnightblue" points="310.5,-158.01 307,-148.01 303.5,-158.01 310.5,-158.01"/>
</g>
<!-- Node8 -->
<g id="node8" class="node">
<title>Node8</title>
<g id="a_node8"><a xlink:title=" ">
<polygon fill="white" stroke="#bfbfbf" points="366,-123.5 366,-153.5 476,-153.5 476,-123.5 366,-123.5"/>
<text text-anchor="start" x="374" y="-141.5" font-family="Helvetica,sans-Serif" font-size="10.00">asm/dolphin/mtx/quat</text>
<text text-anchor="middle" x="421" y="-130.5" font-family="Helvetica,sans-Serif" font-size="10.00">/PSQUATMultiply.s</text>
</a>
</g>
</g>
<!-- Node1&#45;&gt;Node8 -->
<g id="edge11" class="edge">
<title>Node1&#45;&gt;Node8</title>
<path fill="none" stroke="midnightblue" d="M323.33,-190.48C339.42,-182.08 364.53,-168.97 385.26,-158.15"/>
<polygon fill="midnightblue" stroke="midnightblue" points="386.89,-161.25 394.13,-153.52 383.65,-155.05 386.89,-161.25"/>
</g>
<!-- Node9 -->
<g id="node9" class="node">
<title>Node9</title>
<g id="a_node9"><a xlink:title=" ">
<polygon fill="white" stroke="#bfbfbf" points="494,-123.5 494,-153.5 612,-153.5 612,-123.5 494,-123.5"/>
<text text-anchor="start" x="502" y="-141.5" font-family="Helvetica,sans-Serif" font-size="10.00">asm/dolphin/mtx/quat</text>
<text text-anchor="middle" x="553" y="-130.5" font-family="Helvetica,sans-Serif" font-size="10.00">/C_QUATRotAxisRad.s</text>
</a>
</g>
</g>
<!-- Node1&#45;&gt;Node9 -->
<g id="edge12" class="edge">
<title>Node1&#45;&gt;Node9</title>
<path fill="none" stroke="midnightblue" d="M342.25,-190.48C379.38,-181.49 438.77,-167.13 485.06,-155.93"/>
<polygon fill="midnightblue" stroke="midnightblue" points="486.13,-159.28 495.02,-153.52 484.48,-152.47 486.13,-159.28"/>
</g>
<!-- Node10 -->
<g id="node10" class="node">
<title>Node10</title>
<g id="a_node10"><a xlink:title=" ">
<polygon fill="white" stroke="#bfbfbf" points="630,-123.5 630,-153.5 740,-153.5 740,-123.5 630,-123.5"/>
<text text-anchor="start" x="638" y="-141.5" font-family="Helvetica,sans-Serif" font-size="10.00">asm/dolphin/mtx/quat</text>
<text text-anchor="middle" x="685" y="-130.5" font-family="Helvetica,sans-Serif" font-size="10.00">/C_QUATSlerp.s</text>
</a>
</g>
</g>
<!-- Node1&#45;&gt;Node10 -->
<g id="edge13" class="edge">
<title>Node1&#45;&gt;Node10</title>
<path fill="none" stroke="midnightblue" d="M369.2,-191.59C430.55,-183.93 527.2,-170.97 620.06,-154.09"/>
<polygon fill="midnightblue" stroke="midnightblue" points="620.7,-157.53 629.9,-152.28 619.43,-150.64 620.7,-157.53"/>
</g>
<!-- Node3 -->
<g id="node3" class="node">
<title>Node3</title>
<g id="a_node3"><a xlink:href="vec_8h.html" target="_top" xlink:title=" ">
<polygon fill="white" stroke="black" points="0,-62 0,-81 92,-81 92,-62 0,-62"/>
<text text-anchor="middle" x="46" y="-69" font-family="Helvetica,sans-Serif" font-size="10.00">dolphin/mtx/vec.h</text>
</a>
</g>
</g>
<!-- Node2&#45;&gt;Node3 -->
<g id="edge2" class="edge">
<title>Node2&#45;&gt;Node3</title>
<path fill="none" stroke="midnightblue" d="M77.14,-128.73C71.69,-118.89 62.7,-102.66 55.78,-90.16"/>
<polygon fill="midnightblue" stroke="midnightblue" points="58.69,-88.18 50.78,-81.13 52.56,-91.57 58.69,-88.18"/>
</g>
<!-- Node2&#45;&gt;Node4 -->
<g id="edge4" class="edge">
<title>Node2&#45;&gt;Node4</title>
<path fill="none" stroke="midnightblue" d="M87.22,-128.81C99.59,-108.22 130.85,-56.19 147.38,-28.68"/>
<polygon fill="midnightblue" stroke="midnightblue" points="150.59,-30.13 152.74,-19.76 144.59,-26.53 150.59,-30.13"/>
</g>
<!-- Node3&#45;&gt;Node4 -->
<g id="edge3" class="edge">
<title>Node3&#45;&gt;Node4</title>
<path fill="none" stroke="midnightblue" d="M62.05,-61.98C80.59,-52.12 111.34,-35.79 133.02,-24.27"/>
<polygon fill="midnightblue" stroke="midnightblue" points="134.79,-27.29 141.98,-19.51 131.51,-21.11 134.79,-27.29"/>
</g>
<!-- Node6&#45;&gt;Node4 -->
<g id="edge10" class="edge">
<title>Node6&#45;&gt;Node4</title>
<path fill="none" stroke="midnightblue" d="M290.25,-128.89C273.19,-119.72 246.42,-104.17 226,-87 204.51,-68.92 183.54,-44.07 170.7,-27.78"/>
<polygon fill="midnightblue" stroke="midnightblue" points="173.34,-25.47 164.45,-19.7 167.81,-29.75 173.34,-25.47"/>
</g>
<!-- Node7 -->
<g id="node7" class="node">
<title>Node7</title>
<g id="a_node7"><a xlink:href="float_8h.html" target="_top" xlink:title=" ">
<polygon fill="white" stroke="black" points="235,-56.5 235,-86.5 371,-86.5 371,-56.5 235,-56.5"/>
<text text-anchor="start" x="243" y="-74.5" font-family="Helvetica,sans-Serif" font-size="10.00">MSL_C/MSL_Common/Src</text>
<text text-anchor="middle" x="303" y="-63.5" font-family="Helvetica,sans-Serif" font-size="10.00">/float.h</text>
</a>
</g>
</g>
<!-- Node6&#45;&gt;Node7 -->
<g id="edge8" class="edge">
<title>Node6&#45;&gt;Node7</title>
<path fill="none" stroke="midnightblue" d="M306.46,-128.73C305.96,-120.54 305.18,-107.92 304.49,-96.71"/>
<polygon fill="midnightblue" stroke="midnightblue" points="307.97,-96.36 303.87,-86.59 300.99,-96.79 307.97,-96.36"/>
</g>
<!-- Node7&#45;&gt;Node4 -->
<g id="edge9" class="edge">
<title>Node7&#45;&gt;Node4</title>
<path fill="none" stroke="midnightblue" d="M268.64,-56.4C244.31,-46.42 211.97,-33.15 188.54,-23.53"/>
<polygon fill="midnightblue" stroke="midnightblue" points="189.68,-20.22 179.1,-19.66 187.02,-26.69 189.68,-20.22"/>
</g>
</g>
</svg>
