<?xml version="1.0" encoding="UTF-8" standalone="no"?>
<!DOCTYPE svg PUBLIC "-//W3C//DTD SVG 1.1//EN"
 "http://www.w3.org/Graphics/SVG/1.1/DTD/svg11.dtd">
<!-- Generated by graphviz version 3.0.0 (20221109.1736)
 -->
<!-- Title: libs/dolphin/mtx/quat.c Pages: 1 -->
<svg width="676pt" height="218pt"
 viewBox="0.00 0.00 675.50 218.00" xmlns="http://www.w3.org/2000/svg" xmlns:xlink="http://www.w3.org/1999/xlink">
<g id="graph0" class="graph" transform="scale(1 1) rotate(0) translate(4 214)">
<title>libs/dolphin/mtx/quat.c</title>
<polygon fill="white" stroke="transparent" points="-4,4 -4,-214 671.5,-214 671.5,4 -4,4"/>
<!-- Node1 -->
<g id="node1" class="node">
<title>Node1</title>
<g id="a_node1"><a xlink:title=" ">
<polygon fill="#bfbfbf" stroke="black" points="240,-190.5 240,-209.5 353,-209.5 353,-190.5 240,-190.5"/>
<text text-anchor="middle" x="296.5" y="-197.5" font-family="Helvetica,sans-Serif" font-size="10.00">libs/dolphin/mtx/quat.c</text>
</a>
</g>
</g>
<!-- Node2 -->
<g id="node2" class="node">
<title>Node2</title>
<g id="a_node2"><a xlink:href="quat_8h.html" target="_top" xlink:title=" ">
<polygon fill="white" stroke="black" points="0,-129 0,-148 95,-148 95,-129 0,-129"/>
<text text-anchor="middle" x="47.5" y="-136" font-family="Helvetica,sans-Serif" font-size="10.00">dolphin/mtx/quat.h</text>
</a>
</g>
</g>
<!-- Node1&#45;&gt;Node2 -->
<g id="edge1" class="edge">
<title>Node1&#45;&gt;Node2</title>
<path fill="none" stroke="midnightblue" d="M259.28,-190.5C220.57,-181.6 158.21,-167.12 104.5,-154 99.91,-152.88 95.11,-151.69 90.33,-150.49"/>
<polygon fill="midnightblue" stroke="midnightblue" points="91.18,-147.09 80.63,-148.04 89.47,-153.88 91.18,-147.09"/>
</g>
<!-- Node5 -->
<g id="node5" class="node">
<title>Node5</title>
<g id="a_node5"><a xlink:href="math_8h.html" target="_top" xlink:title=" ">
<polygon fill="white" stroke="black" points="113.5,-129 113.5,-148 195.5,-148 195.5,-129 113.5,-129"/>
<text text-anchor="middle" x="154.5" y="-136" font-family="Helvetica,sans-Serif" font-size="10.00">MSL_C/math.h</text>
</a>
</g>
</g>
<!-- Node1&#45;&gt;Node5 -->
<g id="edge4" class="edge">
<title>Node1&#45;&gt;Node5</title>
<path fill="none" stroke="midnightblue" d="M276.15,-190.48C252.11,-180.4 211.9,-163.55 184.34,-152"/>
<polygon fill="midnightblue" stroke="midnightblue" points="185.38,-148.65 174.81,-148.01 182.68,-155.1 185.38,-148.65"/>
</g>
<!-- Node8 -->
<g id="node8" class="node">
<title>Node8</title>
<g id="a_node8"><a xlink:href="dol2asm_8h.html" target="_top" xlink:title=" ">
<polygon fill="white" stroke="black" points="214,-129 214,-148 275,-148 275,-129 214,-129"/>
<text text-anchor="middle" x="244.5" y="-136" font-family="Helvetica,sans-Serif" font-size="10.00">dol2asm.h</text>
</a>
</g>
</g>
<!-- Node1&#45;&gt;Node8 -->
<g id="edge9" class="edge">
<title>Node1&#45;&gt;Node8</title>
<path fill="none" stroke="midnightblue" d="M289.05,-190.48C281.17,-181.46 268.56,-167.02 258.76,-155.81"/>
<polygon fill="midnightblue" stroke="midnightblue" points="261.15,-153.24 251.94,-148.01 255.88,-157.84 261.15,-153.24"/>
</g>
<!-- Node9 -->
<g id="node9" class="node">
<title>Node9</title>
<g id="a_node9"><a xlink:title=" ">
<polygon fill="white" stroke="#bfbfbf" points="293.5,-123.5 293.5,-153.5 403.5,-153.5 403.5,-123.5 293.5,-123.5"/>
<text text-anchor="start" x="301.5" y="-141.5" font-family="Helvetica,sans-Serif" font-size="10.00">asm/dolphin/mtx/quat</text>
<text text-anchor="middle" x="348.5" y="-130.5" font-family="Helvetica,sans-Serif" font-size="10.00">/PSQUATMultiply.s</text>
</a>
</g>
</g>
<!-- Node1&#45;&gt;Node9 -->
<g id="edge10" class="edge">
<title>Node1&#45;&gt;Node9</title>
<path fill="none" stroke="midnightblue" d="M303.95,-190.48C310.6,-182.87 320.62,-171.4 329.48,-161.26"/>
<polygon fill="midnightblue" stroke="midnightblue" points="332.3,-163.36 336.24,-153.52 327.03,-158.75 332.3,-163.36"/>
</g>
<!-- Node10 -->
<g id="node10" class="node">
<title>Node10</title>
<g id="a_node10"><a xlink:title=" ">
<polygon fill="white" stroke="#bfbfbf" points="421.5,-123.5 421.5,-153.5 539.5,-153.5 539.5,-123.5 421.5,-123.5"/>
<text text-anchor="start" x="429.5" y="-141.5" font-family="Helvetica,sans-Serif" font-size="10.00">asm/dolphin/mtx/quat</text>
<text text-anchor="middle" x="480.5" y="-130.5" font-family="Helvetica,sans-Serif" font-size="10.00">/C_QUATRotAxisRad.s</text>
</a>
</g>
</g>
<!-- Node1&#45;&gt;Node10 -->
<g id="edge11" class="edge">
<title>Node1&#45;&gt;Node10</title>
<path fill="none" stroke="midnightblue" d="M322.86,-190.48C350,-181.7 393.02,-167.79 427.27,-156.71"/>
<polygon fill="midnightblue" stroke="midnightblue" points="428.7,-159.93 437.13,-153.52 426.54,-153.27 428.7,-159.93"/>
</g>
<!-- Node11 -->
<g id="node11" class="node">
<title>Node11</title>
<g id="a_node11"><a xlink:title=" ">
<polygon fill="white" stroke="#bfbfbf" points="557.5,-123.5 557.5,-153.5 667.5,-153.5 667.5,-123.5 557.5,-123.5"/>
<text text-anchor="start" x="565.5" y="-141.5" font-family="Helvetica,sans-Serif" font-size="10.00">asm/dolphin/mtx/quat</text>
<text text-anchor="middle" x="612.5" y="-130.5" font-family="Helvetica,sans-Serif" font-size="10.00">/C_QUATSlerp.s</text>
</a>
</g>
</g>
<!-- Node1&#45;&gt;Node11 -->
<g id="edge12" class="edge">
<title>Node1&#45;&gt;Node11</title>
<path fill="none" stroke="midnightblue" d="M348.27,-190.47C397.12,-182.27 472.63,-169.16 547.32,-154.19"/>
<polygon fill="midnightblue" stroke="midnightblue" points="548.27,-157.57 557.38,-152.16 546.88,-150.71 548.27,-157.57"/>
</g>
<!-- Node3 -->
<g id="node3" class="node">
<title>Node3</title>
<g id="a_node3"><a xlink:href="vec_8h.html" target="_top" xlink:title=" ">
<polygon fill="white" stroke="black" points="1.5,-62 1.5,-81 93.5,-81 93.5,-62 1.5,-62"/>
<text text-anchor="middle" x="47.5" y="-69" font-family="Helvetica,sans-Serif" font-size="10.00">dolphin/mtx/vec.h</text>
</a>
</g>
</g>
<!-- Node2&#45;&gt;Node3 -->
<g id="edge2" class="edge">
<title>Node2&#45;&gt;Node3</title>
<path fill="none" stroke="midnightblue" d="M47.5,-128.73C47.5,-119.18 47.5,-103.62 47.5,-91.28"/>
<polygon fill="midnightblue" stroke="midnightblue" points="51,-91.13 47.5,-81.13 44,-91.13 51,-91.13"/>
</g>
<!-- Node4 -->
<g id="node4" class="node">
<title>Node4</title>
<g id="a_node4"><a xlink:href="types_8h.html" target="_top" xlink:title=" ">
<polygon fill="white" stroke="black" points="81,-0.5 81,-19.5 162,-19.5 162,-0.5 81,-0.5"/>
<text text-anchor="middle" x="121.5" y="-7.5" font-family="Helvetica,sans-Serif" font-size="10.00">dolphin/types.h</text>
</a>
</g>
</g>
<!-- Node3&#45;&gt;Node4 -->
<g id="edge3" class="edge">
<title>Node3&#45;&gt;Node4</title>
<path fill="none" stroke="midnightblue" d="M58.1,-61.98C69.75,-52.61 88.69,-37.38 102.83,-26.01"/>
<polygon fill="midnightblue" stroke="midnightblue" points="105.32,-28.5 110.92,-19.51 100.93,-23.05 105.32,-28.5"/>
</g>
<!-- Node5&#45;&gt;Node4 -->
<g id="edge8" class="edge">
<title>Node5&#45;&gt;Node4</title>
<path fill="none" stroke="midnightblue" d="M152.06,-128.94C149.21,-118.91 144.4,-101.78 140.5,-87 135.37,-67.53 129.82,-45.16 126.05,-29.75"/>
<polygon fill="midnightblue" stroke="midnightblue" points="129.42,-28.8 123.65,-19.91 122.62,-30.46 129.42,-28.8"/>
</g>
<!-- Node6 -->
<g id="node6" class="node">
<title>Node6</title>
<g id="a_node6"><a xlink:href="float_8h.html" target="_top" xlink:title=" ">
<polygon fill="white" stroke="black" points="149.5,-56.5 149.5,-86.5 285.5,-86.5 285.5,-56.5 149.5,-56.5"/>
<text text-anchor="start" x="157.5" y="-74.5" font-family="Helvetica,sans-Serif" font-size="10.00">MSL_C/MSL_Common/Src</text>
<text text-anchor="middle" x="217.5" y="-63.5" font-family="Helvetica,sans-Serif" font-size="10.00">/float.h</text>
</a>
</g>
</g>
<!-- Node5&#45;&gt;Node6 -->
<g id="edge5" class="edge">
<title>Node5&#45;&gt;Node6</title>
<path fill="none" stroke="midnightblue" d="M163,-128.73C171.59,-119.86 185.21,-105.81 196.69,-93.97"/>
<polygon fill="midnightblue" stroke="midnightblue" points="199.4,-96.21 203.84,-86.59 194.37,-91.33 199.4,-96.21"/>
</g>
<!-- Node6&#45;&gt;Node4 -->
<g id="edge6" class="edge">
<title>Node6&#45;&gt;Node4</title>
<path fill="none" stroke="midnightblue" d="M194.75,-56.4C179.51,-46.95 159.51,-34.56 144.26,-25.11"/>
<polygon fill="midnightblue" stroke="midnightblue" points="145.81,-21.95 135.47,-19.66 142.12,-27.9 145.81,-21.95"/>
</g>
<!-- Node7 -->
<g id="node7" class="node">
<title>Node7</title>
<g id="a_node7"><a xlink:href="fdlibm_8h.html" target="_top" xlink:title=" ">
<polygon fill="white" stroke="black" points="192.5,-0.5 192.5,-19.5 242.5,-19.5 242.5,-0.5 192.5,-0.5"/>
<text text-anchor="middle" x="217.5" y="-7.5" font-family="Helvetica,sans-Serif" font-size="10.00">fdlibm.h</text>
</a>
</g>
</g>
<!-- Node6&#45;&gt;Node7 -->
<g id="edge7" class="edge">
<title>Node6&#45;&gt;Node7</title>
<path fill="none" stroke="midnightblue" d="M217.5,-56.4C217.5,-48.47 217.5,-38.46 217.5,-29.86"/>
<polygon fill="midnightblue" stroke="midnightblue" points="221,-29.66 217.5,-19.66 214,-29.66 221,-29.66"/>
</g>
</g>
</svg>
