<?xml version="1.0" encoding="UTF-8" standalone="no"?>
<!DOCTYPE svg PUBLIC "-//W3C//DTD SVG 1.1//EN"
 "http://www.w3.org/Graphics/SVG/1.1/DTD/svg11.dtd">
<!-- Generated by graphviz version 3.0.0 (20220413.0242)
 -->
<!-- Title: J3DMaterialTable Pages: 1 -->
<svg width="2039pt" height="669pt"
 viewBox="0.00 0.00 2039.00 669.00" xmlns="http://www.w3.org/2000/svg" xmlns:xlink="http://www.w3.org/1999/xlink">
<g id="graph0" class="graph" transform="scale(1 1) rotate(0) translate(4 665)">
<title>J3DMaterialTable</title>
<polygon fill="white" stroke="transparent" points="-4,4 -4,-665 2035,-665 2035,4 -4,4"/>
<!-- Node1 -->
<g id="node1" class="node">
<title>Node1</title>
<g id="a_node1"><a xlink:title=" ">
<polygon fill="#bfbfbf" stroke="black" points="1392.5,-328.5 1392.5,-347.5 1484.5,-347.5 1484.5,-328.5 1392.5,-328.5"/>
<text text-anchor="middle" x="1438.5" y="-335.5" font-family="Helvetica,sans-Serif" font-size="10.00">J3DMaterialTable</text>
</a>
</g>
</g>
<!-- Node2 -->
<g id="node2" class="node">
<title>Node2</title>
<g id="a_node2"><a xlink:href="structJ3DMaterial.html" target="_top" xlink:title=" ">
<polygon fill="white" stroke="black" points="1170.5,-395.5 1170.5,-414.5 1238.5,-414.5 1238.5,-395.5 1170.5,-395.5"/>
<text text-anchor="middle" x="1204.5" y="-402.5" font-family="Helvetica,sans-Serif" font-size="10.00">J3DMaterial</text>
</a>
</g>
</g>
<!-- Node2&#45;&gt;Node1 -->
<g id="edge1" class="edge">
<title>Node2&#45;&gt;Node1</title>
<path fill="none" stroke="#9a32cd" stroke-dasharray="5,2" d="M1248.78,-404.52C1282.73,-402.9 1330.66,-397.83 1370,-383 1391.88,-374.75 1413.76,-358.28 1426.45,-347.72"/>
<polygon fill="#9a32cd" stroke="#9a32cd" points="1248.57,-401.03 1238.71,-404.92 1248.84,-408.02 1248.57,-401.03"/>
<text text-anchor="middle" x="1320" y="-405" font-family="Helvetica,sans-Serif" font-size="10.00"> mMaterialNodePointer</text>
</g>
<!-- Node2&#45;&gt;Node2 -->
<g id="edge2" class="edge">
<title>Node2&#45;&gt;Node2</title>
<path fill="none" stroke="#9a32cd" stroke-dasharray="5,2" d="M1184.13,-424.4C1185.49,-429.31 1192.28,-433 1204.5,-433 1224.05,-433 1229.7,-423.57 1221.45,-414.76"/>
<polygon fill="#9a32cd" stroke="#9a32cd" points="1187.51,-425.35 1187.55,-414.76 1180.91,-423.01 1187.51,-425.35"/>
<text text-anchor="middle" x="1204.5" y="-447" font-family="Helvetica,sans-Serif" font-size="10.00"> mNext</text>
<text text-anchor="middle" x="1204.5" y="-436" font-family="Helvetica,sans-Serif" font-size="10.00">mpOrigMaterial</text>
</g>
<!-- Node3 -->
<g id="node3" class="node">
<title>Node3</title>
<g id="a_node3"><a xlink:href="structJ3DShape.html" target="_top" xlink:title=" ">
<polygon fill="white" stroke="black" points="1407.5,-201.5 1407.5,-220.5 1469.5,-220.5 1469.5,-201.5 1407.5,-201.5"/>
<text text-anchor="middle" x="1438.5" y="-208.5" font-family="Helvetica,sans-Serif" font-size="10.00">J3DShape</text>
</a>
</g>
</g>
<!-- Node2&#45;&gt;Node3 -->
<g id="edge4" class="edge">
<title>Node2&#45;&gt;Node3</title>
<path fill="none" stroke="#9a32cd" stroke-dasharray="5,2" d="M1230.81,-390.51C1242.58,-383.97 1256.86,-376.31 1270,-370 1313.46,-349.15 1333.84,-359.88 1370,-328 1405.36,-296.83 1426.8,-242.48 1434.39,-220.56"/>
<polygon fill="#9a32cd" stroke="#9a32cd" points="1228.97,-387.53 1221.97,-395.47 1232.4,-393.63 1228.97,-387.53"/>
<text text-anchor="middle" x="1320" y="-373" font-family="Helvetica,sans-Serif" font-size="10.00"> mMaterial</text>
</g>
<!-- Node15 -->
<g id="node15" class="node">
<title>Node15</title>
<g id="a_node15"><a xlink:href="structJ3DJoint.html" target="_top" xlink:title=" ">
<polygon fill="white" stroke="black" points="1411,-521.5 1411,-540.5 1466,-540.5 1466,-521.5 1411,-521.5"/>
<text text-anchor="middle" x="1438.5" y="-528.5" font-family="Helvetica,sans-Serif" font-size="10.00">J3DJoint</text>
</a>
</g>
</g>
<!-- Node2&#45;&gt;Node15 -->
<g id="edge34" class="edge">
<title>Node2&#45;&gt;Node15</title>
<path fill="none" stroke="#9a32cd" stroke-dasharray="5,2" d="M1248.52,-416.49C1283,-426.84 1331.76,-444.11 1370,-468 1394.2,-483.12 1417.38,-507.67 1429.26,-521.23"/>
<polygon fill="#9a32cd" stroke="#9a32cd" points="1249.33,-413.08 1238.75,-413.63 1247.37,-419.8 1249.33,-413.08"/>
<text text-anchor="middle" x="1320" y="-471" font-family="Helvetica,sans-Serif" font-size="10.00"> mMesh</text>
</g>
<!-- Node3&#45;&gt;Node2 -->
<g id="edge3" class="edge">
<title>Node3&#45;&gt;Node2</title>
<path fill="none" stroke="#9a32cd" stroke-dasharray="5,2" d="M1417.59,-226.71C1404.64,-236.3 1387.05,-248.17 1370,-256 1328.06,-275.26 1305.97,-255.09 1270,-284 1267.55,-285.97 1225.32,-366.89 1210.55,-395.28"/>
<polygon fill="#9a32cd" stroke="#9a32cd" points="1419.9,-229.36 1425.75,-220.52 1415.66,-223.78 1419.9,-229.36"/>
<text text-anchor="middle" x="1320" y="-287" font-family="Helvetica,sans-Serif" font-size="10.00"> mShape</text>
</g>
<!-- Node4 -->
<g id="node4" class="node">
<title>Node4</title>
<g id="a_node4"><a xlink:href="structVec.html" target="_top" xlink:title=" ">
<polygon fill="white" stroke="black" points="965,-562.5 965,-581.5 999,-581.5 999,-562.5 965,-562.5"/>
<text text-anchor="middle" x="982" y="-569.5" font-family="Helvetica,sans-Serif" font-size="10.00">Vec</text>
</a>
</g>
</g>
<!-- Node4&#45;&gt;Node3 -->
<g id="edge5" class="edge">
<title>Node4&#45;&gt;Node3</title>
<path fill="none" stroke="#9a32cd" stroke-dasharray="5,2" d="M1009.28,-567.75C1092.39,-554.09 1345.53,-510.51 1370,-483 1394.37,-455.61 1378.24,-354.34 1388,-319 1398.55,-280.83 1421.12,-239.16 1431.74,-220.72"/>
<polygon fill="#9a32cd" stroke="#9a32cd" points="1008.66,-564.31 999.36,-569.38 1009.79,-571.22 1008.66,-564.31"/>
<text text-anchor="middle" x="1204.5" y="-555" font-family="Helvetica,sans-Serif" font-size="10.00"> mMax</text>
<text text-anchor="middle" x="1204.5" y="-544" font-family="Helvetica,sans-Serif" font-size="10.00">mMin</text>
</g>
<!-- Node4&#45;&gt;Node15 -->
<g id="edge33" class="edge">
<title>Node4&#45;&gt;Node15</title>
<path fill="none" stroke="#9a32cd" stroke-dasharray="5,2" d="M1008.25,-582.61C1016.34,-586.71 1025.01,-591.9 1032,-598 1042.32,-607 1037.81,-616.76 1050,-623 1105.14,-651.24 1283.15,-644.03 1370,-602 1398.63,-588.15 1421.45,-556.65 1431.67,-540.67"/>
<polygon fill="#9a32cd" stroke="#9a32cd" points="1009.69,-579.42 999.15,-578.31 1006.7,-585.75 1009.69,-579.42"/>
<text text-anchor="middle" x="1204.5" y="-653" font-family="Helvetica,sans-Serif" font-size="10.00"> mMax</text>
<text text-anchor="middle" x="1204.5" y="-642" font-family="Helvetica,sans-Serif" font-size="10.00">mMin</text>
</g>
<!-- Node23 -->
<g id="node23" class="node">
<title>Node23</title>
<g id="a_node23"><a xlink:href="structJ3DTransformInfo.html" target="_top" xlink:title=" ">
<polygon fill="white" stroke="black" points="1157,-581.5 1157,-600.5 1252,-600.5 1252,-581.5 1157,-581.5"/>
<text text-anchor="middle" x="1204.5" y="-588.5" font-family="Helvetica,sans-Serif" font-size="10.00">J3DTransformInfo</text>
</a>
</g>
</g>
<!-- Node4&#45;&gt;Node23 -->
<g id="edge31" class="edge">
<title>Node4&#45;&gt;Node23</title>
<path fill="none" stroke="#9a32cd" stroke-dasharray="5,2" d="M1009.06,-570.07C1040.16,-568.25 1093.65,-566.64 1139,-573 1151.2,-574.71 1164.36,-578.09 1175.59,-581.46"/>
<polygon fill="#9a32cd" stroke="#9a32cd" points="1008.8,-566.58 999.05,-570.71 1009.25,-573.56 1008.8,-566.58"/>
<text text-anchor="middle" x="1094.5" y="-587" font-family="Helvetica,sans-Serif" font-size="10.00"> mScale</text>
<text text-anchor="middle" x="1094.5" y="-576" font-family="Helvetica,sans-Serif" font-size="10.00">mTranslate</text>
</g>
<!-- Node5 -->
<g id="node5" class="node">
<title>Node5</title>
<g id="a_node5"><a xlink:href="struct__GXVtxDescList.html" target="_top" xlink:title=" ">
<polygon fill="white" stroke="black" points="1050,-122.5 1050,-141.5 1139,-141.5 1139,-122.5 1050,-122.5"/>
<text text-anchor="middle" x="1094.5" y="-129.5" font-family="Helvetica,sans-Serif" font-size="10.00">_GXVtxDescList</text>
</a>
</g>
</g>
<!-- Node5&#45;&gt;Node3 -->
<g id="edge6" class="edge">
<title>Node5&#45;&gt;Node3</title>
<path fill="none" stroke="#9a32cd" stroke-dasharray="5,2" d="M1149.36,-131.17C1206.3,-132.11 1297.71,-138.88 1370,-169 1390.38,-177.49 1411.66,-191.78 1424.74,-201.29"/>
<polygon fill="#9a32cd" stroke="#9a32cd" points="1149.18,-127.67 1139.14,-131.06 1149.1,-134.67 1149.18,-127.67"/>
<text text-anchor="middle" x="1204.5" y="-141" font-family="Helvetica,sans-Serif" font-size="10.00"> mVtxDesc</text>
</g>
<!-- Node6 -->
<g id="node6" class="node">
<title>Node6</title>
<g id="a_node6"><a xlink:href="struct__GXAttr.html" target="_top" xlink:title=" ">
<polygon fill="white" stroke="black" points="743,-95.5 743,-114.5 795,-114.5 795,-95.5 743,-95.5"/>
<text text-anchor="middle" x="769" y="-102.5" font-family="Helvetica,sans-Serif" font-size="10.00">_GXAttr</text>
</a>
</g>
</g>
<!-- Node6&#45;&gt;Node5 -->
<g id="edge7" class="edge">
<title>Node6&#45;&gt;Node5</title>
<path fill="none" stroke="#9a32cd" stroke-dasharray="5,2" d="M805.14,-107.93C864.62,-112.9 984.95,-122.94 1049.77,-128.35"/>
<polygon fill="#9a32cd" stroke="#9a32cd" points="805.37,-104.44 795.12,-107.1 804.79,-111.42 805.37,-104.44"/>
<text text-anchor="middle" x="875.5" y="-119" font-family="Helvetica,sans-Serif" font-size="10.00"> attr</text>
</g>
<!-- Node12 -->
<g id="node12" class="node">
<title>Node12</title>
<g id="a_node12"><a xlink:href="struct__GXVtxAttrFmtList.html" target="_top" xlink:title=" ">
<polygon fill="white" stroke="black" points="932,-46.5 932,-65.5 1032,-65.5 1032,-46.5 932,-46.5"/>
<text text-anchor="middle" x="982" y="-53.5" font-family="Helvetica,sans-Serif" font-size="10.00">_GXVtxAttrFmtList</text>
</a>
</g>
</g>
<!-- Node6&#45;&gt;Node12 -->
<g id="edge14" class="edge">
<title>Node6&#45;&gt;Node12</title>
<path fill="none" stroke="#9a32cd" stroke-dasharray="5,2" d="M804.9,-96.89C842.05,-88.27 900.78,-74.63 940.08,-65.5"/>
<polygon fill="#9a32cd" stroke="#9a32cd" points="803.98,-93.52 795.03,-99.19 805.57,-100.33 803.98,-93.52"/>
<text text-anchor="middle" x="875.5" y="-92" font-family="Helvetica,sans-Serif" font-size="10.00"> mAttrib</text>
</g>
<!-- Node7 -->
<g id="node7" class="node">
<title>Node7</title>
<g id="a_node7"><a xlink:href="structJ3DShapeMtx.html" target="_top" xlink:title=" ">
<polygon fill="white" stroke="black" points="1166,-246.5 1166,-265.5 1243,-265.5 1243,-246.5 1166,-246.5"/>
<text text-anchor="middle" x="1204.5" y="-253.5" font-family="Helvetica,sans-Serif" font-size="10.00">J3DShapeMtx</text>
</a>
</g>
</g>
<!-- Node7&#45;&gt;Node3 -->
<g id="edge8" class="edge">
<title>Node7&#45;&gt;Node3</title>
<path fill="none" stroke="#9a32cd" stroke-dasharray="5,2" d="M1253.12,-246.76C1299.4,-237.79 1368.26,-224.43 1407.41,-216.84"/>
<polygon fill="#9a32cd" stroke="#9a32cd" points="1252.18,-243.38 1243.03,-248.72 1253.52,-250.25 1252.18,-243.38"/>
<text text-anchor="middle" x="1320" y="-245" font-family="Helvetica,sans-Serif" font-size="10.00"> mShapeMtx</text>
</g>
<!-- Node8 -->
<g id="node8" class="node">
<title>Node8</title>
<g id="a_node8"><a xlink:href="structJ3DShapeDraw.html" target="_top" xlink:title=" ">
<polygon fill="white" stroke="black" points="1162.5,-161.5 1162.5,-180.5 1246.5,-180.5 1246.5,-161.5 1162.5,-161.5"/>
<text text-anchor="middle" x="1204.5" y="-168.5" font-family="Helvetica,sans-Serif" font-size="10.00">J3DShapeDraw</text>
</a>
</g>
</g>
<!-- Node8&#45;&gt;Node3 -->
<g id="edge9" class="edge">
<title>Node8&#45;&gt;Node3</title>
<path fill="none" stroke="#9a32cd" stroke-dasharray="5,2" d="M1256.77,-172.2C1289.5,-173.82 1332.65,-177.54 1370,-186 1385.84,-189.59 1403,-195.98 1416.06,-201.4"/>
<polygon fill="#9a32cd" stroke="#9a32cd" points="1256.67,-168.7 1246.53,-171.75 1256.36,-175.69 1256.67,-168.7"/>
<text text-anchor="middle" x="1320" y="-189" font-family="Helvetica,sans-Serif" font-size="10.00"> mShapeDraw</text>
</g>
<!-- Node9 -->
<g id="node9" class="node">
<title>Node9</title>
<g id="a_node9"><a xlink:href="classJ3DCurrentMtx.html" target="_top" xlink:title=" ">
<polygon fill="white" stroke="black" points="941.5,-215.5 941.5,-234.5 1022.5,-234.5 1022.5,-215.5 941.5,-215.5"/>
<text text-anchor="middle" x="982" y="-222.5" font-family="Helvetica,sans-Serif" font-size="10.00">J3DCurrentMtx</text>
</a>
</g>
</g>
<!-- Node9&#45;&gt;Node2 -->
<g id="edge58" class="edge">
<title>Node9&#45;&gt;Node2</title>
<path fill="none" stroke="#9a32cd" stroke-dasharray="5,2" d="M1032.48,-236.11C1065.7,-245.62 1108.75,-262.13 1139,-289 1147.96,-296.96 1184.94,-368.56 1198.49,-395.13"/>
<polygon fill="#9a32cd" stroke="#9a32cd" points="1033.08,-232.65 1022.51,-233.39 1031.23,-239.4 1033.08,-232.65"/>
<text text-anchor="middle" x="1094.5" y="-292" font-family="Helvetica,sans-Serif" font-size="10.00"> mCurrentMtx</text>
</g>
<!-- Node9&#45;&gt;Node3 -->
<g id="edge10" class="edge">
<title>Node9&#45;&gt;Node3</title>
<path fill="none" stroke="#9a32cd" stroke-dasharray="5,2" d="M1032.7,-223.47C1127.25,-220.56 1330.44,-214.3 1407.25,-211.93"/>
<polygon fill="#9a32cd" stroke="#9a32cd" points="1032.43,-219.98 1022.54,-223.78 1032.64,-226.97 1032.43,-219.98"/>
<text text-anchor="middle" x="1204.5" y="-222" font-family="Helvetica,sans-Serif" font-size="10.00"> mCurrentMtx</text>
</g>
<!-- Node10 -->
<g id="node10" class="node">
<title>Node10</title>
<g id="a_node10"><a xlink:href="classJ3DCurrentMtxInfo.html" target="_top" xlink:title=" ">
<polygon fill="white" stroke="black" points="720,-215.5 720,-234.5 818,-234.5 818,-215.5 720,-215.5"/>
<text text-anchor="middle" x="769" y="-222.5" font-family="Helvetica,sans-Serif" font-size="10.00">J3DCurrentMtxInfo</text>
</a>
</g>
</g>
<!-- Node10&#45;&gt;Node9 -->
<g id="edge11" class="edge">
<title>Node10&#45;&gt;Node9</title>
<path fill="none" stroke="midnightblue" d="M828.48,-225C864.38,-225 909.4,-225 941.2,-225"/>
<polygon fill="midnightblue" stroke="midnightblue" points="828.14,-221.5 818.14,-225 828.14,-228.5 828.14,-221.5"/>
</g>
<!-- Node11 -->
<g id="node11" class="node">
<title>Node11</title>
<g id="a_node11"><a xlink:href="structJ3DVertexData.html" target="_top" xlink:title=" ">
<polygon fill="white" stroke="black" points="1163.5,-76.5 1163.5,-95.5 1245.5,-95.5 1245.5,-76.5 1163.5,-76.5"/>
<text text-anchor="middle" x="1204.5" y="-83.5" font-family="Helvetica,sans-Serif" font-size="10.00">J3DVertexData</text>
</a>
</g>
</g>
<!-- Node11&#45;&gt;Node3 -->
<g id="edge12" class="edge">
<title>Node11&#45;&gt;Node3</title>
<path fill="none" stroke="#9a32cd" stroke-dasharray="5,2" d="M1255.97,-90.3C1297.16,-94.58 1351.46,-102.23 1370,-114 1404.12,-135.66 1425.7,-181.43 1433.83,-201.37"/>
<polygon fill="#9a32cd" stroke="#9a32cd" points="1256.11,-86.79 1245.81,-89.28 1255.42,-93.76 1256.11,-86.79"/>
<text text-anchor="middle" x="1320" y="-117" font-family="Helvetica,sans-Serif" font-size="10.00"> mVertexData</text>
</g>
<!-- Node12&#45;&gt;Node11 -->
<g id="edge13" class="edge">
<title>Node12&#45;&gt;Node11</title>
<path fill="none" stroke="#9a32cd" stroke-dasharray="5,2" d="M1042.37,-61.2C1071.56,-64.08 1107.21,-68.07 1139,-73 1146.9,-74.22 1155.3,-75.75 1163.34,-77.32"/>
<polygon fill="#9a32cd" stroke="#9a32cd" points="1042.62,-57.71 1032.33,-60.23 1041.95,-64.67 1042.62,-57.71"/>
<text text-anchor="middle" x="1094.5" y="-76" font-family="Helvetica,sans-Serif" font-size="10.00"> mVtxAttrFmtList</text>
</g>
<!-- Node13 -->
<g id="node13" class="node">
<title>Node13</title>
<g id="a_node13"><a xlink:href="struct__GXColor.html" target="_top" xlink:title=" ">
<polygon fill="white" stroke="black" points="952.5,-84.5 952.5,-103.5 1011.5,-103.5 1011.5,-84.5 952.5,-84.5"/>
<text text-anchor="middle" x="982" y="-91.5" font-family="Helvetica,sans-Serif" font-size="10.00">_GXColor</text>
</a>
</g>
</g>
<!-- Node13&#45;&gt;Node11 -->
<g id="edge15" class="edge">
<title>Node13&#45;&gt;Node11</title>
<path fill="none" stroke="#9a32cd" stroke-dasharray="5,2" d="M1021.95,-92.59C1061.75,-91.14 1123.26,-88.91 1163.46,-87.45"/>
<polygon fill="#9a32cd" stroke="#9a32cd" points="1021.69,-89.09 1011.83,-92.95 1021.95,-96.09 1021.69,-89.09"/>
<text text-anchor="middle" x="1094.5" y="-94" font-family="Helvetica,sans-Serif" font-size="10.00"> mVtxColorArray</text>
</g>
<!-- Node14 -->
<g id="node14" class="node">
<title>Node14</title>
<g id="a_node14"><a xlink:href="structJ3DDrawMtxData.html" target="_top" xlink:title=" ">
<polygon fill="white" stroke="black" points="1158.5,-37.5 1158.5,-56.5 1250.5,-56.5 1250.5,-37.5 1158.5,-37.5"/>
<text text-anchor="middle" x="1204.5" y="-44.5" font-family="Helvetica,sans-Serif" font-size="10.00">J3DDrawMtxData</text>
</a>
</g>
</g>
<!-- Node14&#45;&gt;Node3 -->
<g id="edge16" class="edge">
<title>Node14&#45;&gt;Node3</title>
<path fill="none" stroke="#9a32cd" stroke-dasharray="5,2" d="M1260.74,-56.21C1306.76,-64.08 1365.52,-74.64 1370,-78 1412.67,-110.01 1430.37,-176.63 1435.66,-201.42"/>
<polygon fill="#9a32cd" stroke="#9a32cd" points="1261.28,-52.76 1250.84,-54.53 1260.11,-59.66 1261.28,-52.76"/>
<text text-anchor="middle" x="1320" y="-81" font-family="Helvetica,sans-Serif" font-size="10.00"> mDrawMtxData</text>
</g>
<!-- Node18 -->
<g id="node18" class="node">
<title>Node18</title>
<g id="a_node18"><a xlink:href="structJ3DJointTree.html" target="_top" xlink:title=" ">
<polygon fill="white" stroke="black" points="1611,-391.5 1611,-410.5 1685,-410.5 1685,-391.5 1611,-391.5"/>
<text text-anchor="middle" x="1648" y="-398.5" font-family="Helvetica,sans-Serif" font-size="10.00">J3DJointTree</text>
</a>
</g>
</g>
<!-- Node14&#45;&gt;Node18 -->
<g id="edge25" class="edge">
<title>Node14&#45;&gt;Node18</title>
<path fill="none" stroke="#9a32cd" stroke-dasharray="5,2" d="M1261,-41.92C1294.1,-41.14 1336.15,-44.21 1370,-60 1526.57,-133 1622.92,-343.76 1643.05,-391.37"/>
<polygon fill="#9a32cd" stroke="#9a32cd" points="1260.45,-38.43 1250.58,-42.29 1260.7,-45.43 1260.45,-38.43"/>
<text text-anchor="middle" x="1438.5" y="-148" font-family="Helvetica,sans-Serif" font-size="10.00"> mDrawMtxData</text>
</g>
<!-- Node15&#45;&gt;Node2 -->
<g id="edge17" class="edge">
<title>Node15&#45;&gt;Node2</title>
<path fill="none" stroke="#9a32cd" stroke-dasharray="5,2" d="M1400.79,-526.87C1364.99,-521.45 1310.2,-509.31 1270,-483 1242.36,-464.91 1220.53,-431.32 1210.88,-414.76"/>
<polygon fill="#9a32cd" stroke="#9a32cd" points="1400.42,-530.36 1410.81,-528.29 1401.4,-523.42 1400.42,-530.36"/>
<text text-anchor="middle" x="1320" y="-524" font-family="Helvetica,sans-Serif" font-size="10.00"> mJoint</text>
</g>
<!-- Node15&#45;&gt;Node15 -->
<g id="edge29" class="edge">
<title>Node15&#45;&gt;Node15</title>
<path fill="none" stroke="#9a32cd" stroke-dasharray="5,2" d="M1418.13,-550.4C1419.49,-555.31 1426.28,-559 1438.5,-559 1458.05,-559 1463.7,-549.57 1455.45,-540.76"/>
<polygon fill="#9a32cd" stroke="#9a32cd" points="1421.51,-551.35 1421.55,-540.76 1414.91,-549.01 1421.51,-551.35"/>
<text text-anchor="middle" x="1438.5" y="-584" font-family="Helvetica,sans-Serif" font-size="10.00"> mCallBack</text>
<text text-anchor="middle" x="1438.5" y="-573" font-family="Helvetica,sans-Serif" font-size="10.00">mChild</text>
<text text-anchor="middle" x="1438.5" y="-562" font-family="Helvetica,sans-Serif" font-size="10.00">mYounger</text>
</g>
<!-- Node16 -->
<g id="node16" class="node">
<title>Node16</title>
<g id="a_node16"><a xlink:href="structJ3DMtxCalc.html" target="_top" xlink:title=" ">
<polygon fill="white" stroke="black" points="1962,-456.5 1962,-475.5 2031,-475.5 2031,-456.5 1962,-456.5"/>
<text text-anchor="middle" x="1996.5" y="-463.5" font-family="Helvetica,sans-Serif" font-size="10.00">J3DMtxCalc</text>
</a>
</g>
</g>
<!-- Node15&#45;&gt;Node16 -->
<g id="edge19" class="edge">
<title>Node15&#45;&gt;Node16</title>
<path fill="none" stroke="#9a32cd" stroke-dasharray="5,2" d="M1476.28,-531.09C1560.37,-530.51 1772.65,-524.66 1944,-483 1952.33,-480.98 1961.24,-478.24 1969.27,-475.56"/>
<polygon fill="#9a32cd" stroke="#9a32cd" points="1476.19,-527.59 1466.2,-531.13 1476.22,-534.59 1476.19,-527.59"/>
<text text-anchor="middle" x="1742" y="-522" font-family="Helvetica,sans-Serif" font-size="10.00"> mJoint</text>
</g>
<!-- Node15&#45;&gt;Node18 -->
<g id="edge23" class="edge">
<title>Node15&#45;&gt;Node18</title>
<path fill="none" stroke="#9a32cd" stroke-dasharray="5,2" d="M1450.49,-512.74C1462.34,-494.48 1482.79,-466.79 1507,-450 1524.46,-437.89 1577.57,-421.04 1613.12,-410.58"/>
<polygon fill="#9a32cd" stroke="#9a32cd" points="1447.46,-510.98 1445.11,-521.31 1453.39,-514.7 1447.46,-510.98"/>
<text text-anchor="middle" x="1550" y="-464" font-family="Helvetica,sans-Serif" font-size="10.00"> mJointNodePointer</text>
<text text-anchor="middle" x="1550" y="-453" font-family="Helvetica,sans-Serif" font-size="10.00">mRootNode</text>
</g>
<!-- Node16&#45;&gt;Node15 -->
<g id="edge18" class="edge">
<title>Node16&#45;&gt;Node15</title>
<path fill="none" stroke="#9a32cd" stroke-dasharray="5,2" d="M1951.48,-468.06C1894.16,-470.99 1790.88,-477.14 1703,-487 1615.42,-496.83 1593.73,-501.38 1507,-517 1493.45,-519.44 1478.46,-522.51 1466.05,-525.16"/>
<polygon fill="#9a32cd" stroke="#9a32cd" points="1951.83,-471.54 1961.64,-467.55 1951.48,-464.55 1951.83,-471.54"/>
<text text-anchor="middle" x="1742" y="-501" font-family="Helvetica,sans-Serif" font-size="10.00"> mCurrentMtxCalc</text>
<text text-anchor="middle" x="1742" y="-490" font-family="Helvetica,sans-Serif" font-size="10.00">mMtxCalc</text>
</g>
<!-- Node16&#45;&gt;Node18 -->
<g id="edge24" class="edge">
<title>Node16&#45;&gt;Node18</title>
<path fill="none" stroke="#9a32cd" stroke-dasharray="5,2" d="M1951.78,-459.94C1894.36,-451.67 1790.56,-435.59 1703,-416 1695.88,-414.41 1688.3,-412.46 1681.13,-410.5"/>
<polygon fill="#9a32cd" stroke="#9a32cd" points="1951.55,-463.45 1961.95,-461.4 1952.54,-456.52 1951.55,-463.45"/>
<text text-anchor="middle" x="1836.5" y="-451" font-family="Helvetica,sans-Serif" font-size="10.00"> mBasicMtxCalc</text>
</g>
<!-- Node17 -->
<g id="node17" class="node">
<title>Node17</title>
<g id="a_node17"><a xlink:href="classJ3DMtxBuffer.html" target="_top" xlink:title=" ">
<polygon fill="white" stroke="black" points="1799,-391.5 1799,-410.5 1874,-410.5 1874,-391.5 1799,-391.5"/>
<text text-anchor="middle" x="1836.5" y="-398.5" font-family="Helvetica,sans-Serif" font-size="10.00">J3DMtxBuffer</text>
</a>
</g>
</g>
<!-- Node17&#45;&gt;Node16 -->
<g id="edge20" class="edge">
<title>Node17&#45;&gt;Node16</title>
<path fill="none" stroke="#9a32cd" stroke-dasharray="5,2" d="M1884.5,-405.01C1903.66,-407.96 1925.6,-413.09 1944,-422 1961.36,-430.4 1977.61,-446.1 1987.05,-456.29"/>
<polygon fill="#9a32cd" stroke="#9a32cd" points="1884.85,-401.52 1874.47,-403.62 1883.89,-408.46 1884.85,-401.52"/>
<text text-anchor="middle" x="1918" y="-425" font-family="Helvetica,sans-Serif" font-size="10.00"> mMtxBuffer</text>
</g>
<!-- Node18&#45;&gt;Node17 -->
<g id="edge21" class="edge">
<title>Node18&#45;&gt;Node17</title>
<path fill="none" stroke="#9a32cd" stroke-dasharray="5,2" d="M1695.4,-401C1727.37,-401 1769.25,-401 1798.87,-401"/>
<polygon fill="#9a32cd" stroke="#9a32cd" points="1695.4,-397.5 1685.4,-401 1695.4,-404.5 1695.4,-397.5"/>
<text text-anchor="middle" x="1742" y="-404" font-family="Helvetica,sans-Serif" font-size="10.00"> mJointTree</text>
</g>
<!-- Node19 -->
<g id="node19" class="node">
<title>Node19</title>
<g id="a_node19"><a xlink:href="structJ3DModelHierarchy.html" target="_top" xlink:title=" ">
<polygon fill="white" stroke="black" points="1388,-391.5 1388,-410.5 1489,-410.5 1489,-391.5 1388,-391.5"/>
<text text-anchor="middle" x="1438.5" y="-398.5" font-family="Helvetica,sans-Serif" font-size="10.00">J3DModelHierarchy</text>
</a>
</g>
</g>
<!-- Node19&#45;&gt;Node18 -->
<g id="edge22" class="edge">
<title>Node19&#45;&gt;Node18</title>
<path fill="none" stroke="#9a32cd" stroke-dasharray="5,2" d="M1499.58,-401C1535.53,-401 1580.05,-401 1610.7,-401"/>
<polygon fill="#9a32cd" stroke="#9a32cd" points="1499.2,-397.5 1489.2,-401 1499.2,-404.5 1499.2,-397.5"/>
<text text-anchor="middle" x="1550" y="-404" font-family="Helvetica,sans-Serif" font-size="10.00"> mHierarchy</text>
</g>
<!-- Node20 -->
<g id="node20" class="node">
<title>Node20</title>
<g id="a_node20"><a xlink:href="structJUTNameTab.html" target="_top" xlink:title=" ">
<polygon fill="white" stroke="black" points="322,-342.5 322,-361.5 400,-361.5 400,-342.5 322,-342.5"/>
<text text-anchor="middle" x="361" y="-349.5" font-family="Helvetica,sans-Serif" font-size="10.00">JUTNameTab</text>
</a>
</g>
</g>
<!-- Node20&#45;&gt;Node1 -->
<g id="edge61" class="edge">
<title>Node20&#45;&gt;Node1</title>
<path fill="none" stroke="#9a32cd" stroke-dasharray="5,2" d="M380.24,-335.87C411.19,-310.22 476.99,-263 542,-263 542,-263 542,-263 876.5,-263 994.32,-263 1032.74,-249.11 1139,-300 1148.65,-304.62 1147.15,-311.81 1157,-316 1234.53,-349 1334.94,-347.52 1392.19,-343.04"/>
<polygon fill="#9a32cd" stroke="#9a32cd" points="377.82,-333.33 372.46,-342.48 382.35,-338.67 377.82,-333.33"/>
<text text-anchor="middle" x="875.5" y="-277" font-family="Helvetica,sans-Serif" font-size="10.00"> mMaterialName</text>
<text text-anchor="middle" x="875.5" y="-266" font-family="Helvetica,sans-Serif" font-size="10.00">mTextureName</text>
</g>
<!-- Node20&#45;&gt;Node18 -->
<g id="edge26" class="edge">
<title>Node20&#45;&gt;Node18</title>
<path fill="none" stroke="#9a32cd" stroke-dasharray="5,2" d="M362.78,-331.86C366.87,-257.12 391.82,0 542,0 542,0 542,0 1439.5,0 1621.75,0 1644.11,-330.76 1646.68,-391.48"/>
<polygon fill="#9a32cd" stroke="#9a32cd" points="359.27,-332.06 362.29,-342.22 366.26,-332.4 359.27,-332.06"/>
<text text-anchor="middle" x="982" y="-3" font-family="Helvetica,sans-Serif" font-size="10.00"> mJointName</text>
</g>
<!-- Node32 -->
<g id="node32" class="node">
<title>Node32</title>
<g id="a_node32"><a xlink:href="classJ3DAnmColor.html" target="_top" xlink:title=" ">
<polygon fill="white" stroke="black" points="504.5,-481.5 504.5,-500.5 581.5,-500.5 581.5,-481.5 504.5,-481.5"/>
<text text-anchor="middle" x="543" y="-488.5" font-family="Helvetica,sans-Serif" font-size="10.00">J3DAnmColor</text>
</a>
</g>
</g>
<!-- Node20&#45;&gt;Node32 -->
<g id="edge44" class="edge">
<title>Node20&#45;&gt;Node32</title>
<path fill="none" stroke="#9a32cd" stroke-dasharray="5,2" d="M374.84,-369.96C385.54,-384.31 401.62,-404.51 418,-420 443.64,-444.25 451.15,-449.87 482,-467 492,-472.56 503.56,-477.49 513.85,-481.43"/>
<polygon fill="#9a32cd" stroke="#9a32cd" points="377.65,-367.88 368.92,-361.88 372.01,-372.02 377.65,-367.88"/>
<text text-anchor="middle" x="441" y="-459" font-family="Helvetica,sans-Serif" font-size="10.00"> field_0x1c</text>
</g>
<!-- Node35 -->
<g id="node35" class="node">
<title>Node35</title>
<g id="a_node35"><a xlink:href="structJ3DAnmTextureSRTKey.html" target="_top" xlink:title=" ">
<polygon fill="white" stroke="black" points="482,-379.5 482,-398.5 604,-398.5 604,-379.5 482,-379.5"/>
<text text-anchor="middle" x="543" y="-386.5" font-family="Helvetica,sans-Serif" font-size="10.00">J3DAnmTextureSRTKey</text>
</a>
</g>
</g>
<!-- Node20&#45;&gt;Node35 -->
<g id="edge48" class="edge">
<title>Node20&#45;&gt;Node35</title>
<path fill="none" stroke="#9a32cd" stroke-dasharray="5,2" d="M410.54,-348.33C427.62,-348.13 446.83,-349.14 464,-353 486.99,-358.17 511.31,-370.67 526.57,-379.48"/>
<polygon fill="#9a32cd" stroke="#9a32cd" points="410.13,-344.84 400.22,-348.6 410.31,-351.84 410.13,-344.84"/>
<text text-anchor="middle" x="441" y="-367" font-family="Helvetica,sans-Serif" font-size="10.00"> field_0x30</text>
<text text-anchor="middle" x="441" y="-356" font-family="Helvetica,sans-Serif" font-size="10.00">field_0x64</text>
</g>
<!-- Node37 -->
<g id="node37" class="node">
<title>Node37</title>
<g id="a_node37"><a xlink:href="structJ3DAnmTexPattern.html" target="_top" xlink:title=" ">
<polygon fill="white" stroke="black" points="492.5,-438.5 492.5,-457.5 593.5,-457.5 593.5,-438.5 492.5,-438.5"/>
<text text-anchor="middle" x="543" y="-445.5" font-family="Helvetica,sans-Serif" font-size="10.00">J3DAnmTexPattern</text>
</a>
</g>
</g>
<!-- Node20&#45;&gt;Node37 -->
<g id="edge52" class="edge">
<title>Node20&#45;&gt;Node37</title>
<path fill="none" stroke="#9a32cd" stroke-dasharray="5,2" d="M389.19,-366.5C426.5,-386.4 492.54,-421.62 524.16,-438.48"/>
<polygon fill="#9a32cd" stroke="#9a32cd" points="390.39,-363.17 379.92,-361.56 387.09,-369.35 390.39,-363.17"/>
<text text-anchor="middle" x="441" y="-408" font-family="Helvetica,sans-Serif" font-size="10.00"> field_0x1c</text>
</g>
<!-- Node21 -->
<g id="node21" class="node">
<title>Node21</title>
<g id="a_node21"><a xlink:href="structResNTAB.html" target="_top" xlink:title=" ">
<polygon fill="white" stroke="black" points="164,-342.5 164,-361.5 225,-361.5 225,-342.5 164,-342.5"/>
<text text-anchor="middle" x="194.5" y="-349.5" font-family="Helvetica,sans-Serif" font-size="10.00">ResNTAB</text>
</a>
</g>
</g>
<!-- Node21&#45;&gt;Node20 -->
<g id="edge27" class="edge">
<title>Node21&#45;&gt;Node20</title>
<path fill="none" stroke="#9a32cd" stroke-dasharray="5,2" d="M235.29,-352C261.56,-352 295.78,-352 321.73,-352"/>
<polygon fill="#9a32cd" stroke="#9a32cd" points="235.29,-348.5 225.29,-352 235.29,-355.5 235.29,-348.5"/>
<text text-anchor="middle" x="273.5" y="-355" font-family="Helvetica,sans-Serif" font-size="10.00"> mNameTable</text>
</g>
<!-- Node22 -->
<g id="node22" class="node">
<title>Node22</title>
<g id="a_node22"><a xlink:href="structResNTAB_1_1Entry.html" target="_top" xlink:title=" ">
<polygon fill="white" stroke="black" points="0,-342.5 0,-361.5 87,-361.5 87,-342.5 0,-342.5"/>
<text text-anchor="middle" x="43.5" y="-349.5" font-family="Helvetica,sans-Serif" font-size="10.00">ResNTAB::Entry</text>
</a>
</g>
</g>
<!-- Node22&#45;&gt;Node21 -->
<g id="edge28" class="edge">
<title>Node22&#45;&gt;Node21</title>
<path fill="none" stroke="#9a32cd" stroke-dasharray="5,2" d="M97.49,-352C119.68,-352 144.65,-352 163.56,-352"/>
<polygon fill="#9a32cd" stroke="#9a32cd" points="97.2,-348.5 87.2,-352 97.2,-355.5 97.2,-348.5"/>
<text text-anchor="middle" x="125.5" y="-355" font-family="Helvetica,sans-Serif" font-size="10.00"> mEntries</text>
</g>
<!-- Node23&#45;&gt;Node15 -->
<g id="edge30" class="edge">
<title>Node23&#45;&gt;Node15</title>
<path fill="none" stroke="#9a32cd" stroke-dasharray="5,2" d="M1262.45,-588.7C1294.68,-586.1 1335.36,-580.59 1370,-569 1390.02,-562.3 1410.87,-549.53 1424.01,-540.65"/>
<polygon fill="#9a32cd" stroke="#9a32cd" points="1262.01,-585.22 1252.3,-589.45 1262.53,-592.2 1262.01,-585.22"/>
<text text-anchor="middle" x="1320" y="-590" font-family="Helvetica,sans-Serif" font-size="10.00"> mTransformInfo</text>
</g>
<!-- Node24 -->
<g id="node24" class="node">
<title>Node24</title>
<g id="a_node24"><a xlink:href="structSVec.html" target="_top" xlink:title=" ">
<polygon fill="white" stroke="black" points="961.5,-607.5 961.5,-626.5 1002.5,-626.5 1002.5,-607.5 961.5,-607.5"/>
<text text-anchor="middle" x="982" y="-614.5" font-family="Helvetica,sans-Serif" font-size="10.00">SVec</text>
</a>
</g>
</g>
<!-- Node24&#45;&gt;Node23 -->
<g id="edge32" class="edge">
<title>Node24&#45;&gt;Node23</title>
<path fill="none" stroke="#9a32cd" stroke-dasharray="5,2" d="M1012.7,-613.5C1049.68,-609.14 1113.29,-601.64 1156.82,-596.5"/>
<polygon fill="#9a32cd" stroke="#9a32cd" points="1012.09,-610.05 1002.57,-614.69 1012.91,-617 1012.09,-610.05"/>
<text text-anchor="middle" x="1094.5" y="-611" font-family="Helvetica,sans-Serif" font-size="10.00"> mRotation</text>
</g>
<!-- Node25 -->
<g id="node25" class="node">
<title>Node25</title>
<g id="a_node25"><a xlink:href="structJ3DColorBlock.html" target="_top" xlink:title=" ">
<polygon fill="white" stroke="black" points="941.5,-481.5 941.5,-500.5 1022.5,-500.5 1022.5,-481.5 941.5,-481.5"/>
<text text-anchor="middle" x="982" y="-488.5" font-family="Helvetica,sans-Serif" font-size="10.00">J3DColorBlock</text>
</a>
</g>
</g>
<!-- Node25&#45;&gt;Node2 -->
<g id="edge35" class="edge">
<title>Node25&#45;&gt;Node2</title>
<path fill="none" stroke="#9a32cd" stroke-dasharray="5,2" d="M1032.77,-482.32C1071.05,-475.19 1120.43,-464.85 1139,-456 1160.91,-445.56 1182.16,-426.49 1193.97,-414.86"/>
<polygon fill="#9a32cd" stroke="#9a32cd" points="1032.01,-478.91 1022.81,-484.16 1033.28,-485.79 1032.01,-478.91"/>
<text text-anchor="middle" x="1094.5" y="-481" font-family="Helvetica,sans-Serif" font-size="10.00"> mColorBlock</text>
</g>
<!-- Node26 -->
<g id="node26" class="node">
<title>Node26</title>
<g id="a_node26"><a xlink:href="structJ3DTexGenBlock.html" target="_top" xlink:title=" ">
<polygon fill="white" stroke="black" points="936,-443.5 936,-462.5 1028,-462.5 1028,-443.5 936,-443.5"/>
<text text-anchor="middle" x="982" y="-450.5" font-family="Helvetica,sans-Serif" font-size="10.00">J3DTexGenBlock</text>
</a>
</g>
</g>
<!-- Node26&#45;&gt;Node2 -->
<g id="edge36" class="edge">
<title>Node26&#45;&gt;Node2</title>
<path fill="none" stroke="#9a32cd" stroke-dasharray="5,2" d="M1038.11,-443.54C1068.08,-438.11 1105.71,-430.83 1139,-423 1149.52,-420.52 1160.91,-417.47 1171.15,-414.59"/>
<polygon fill="#9a32cd" stroke="#9a32cd" points="1037.49,-440.1 1028.26,-445.31 1038.72,-446.99 1037.49,-440.1"/>
<text text-anchor="middle" x="1094.5" y="-444" font-family="Helvetica,sans-Serif" font-size="10.00"> mTexGenBlock</text>
</g>
<!-- Node27 -->
<g id="node27" class="node">
<title>Node27</title>
<g id="a_node27"><a xlink:href="structJ3DTevBlock.html" target="_top" xlink:title=" ">
<polygon fill="white" stroke="black" points="944.5,-405.5 944.5,-424.5 1019.5,-424.5 1019.5,-405.5 944.5,-405.5"/>
<text text-anchor="middle" x="982" y="-412.5" font-family="Helvetica,sans-Serif" font-size="10.00">J3DTevBlock</text>
</a>
</g>
</g>
<!-- Node27&#45;&gt;Node2 -->
<g id="edge37" class="edge">
<title>Node27&#45;&gt;Node2</title>
<path fill="none" stroke="#9a32cd" stroke-dasharray="5,2" d="M1029.95,-412.87C1072.17,-410.96 1133.14,-408.19 1170.44,-406.5"/>
<polygon fill="#9a32cd" stroke="#9a32cd" points="1029.74,-409.38 1019.91,-413.33 1030.06,-416.37 1029.74,-409.38"/>
<text text-anchor="middle" x="1094.5" y="-414" font-family="Helvetica,sans-Serif" font-size="10.00"> mTevBlock</text>
</g>
<!-- Node28 -->
<g id="node28" class="node">
<title>Node28</title>
<g id="a_node28"><a xlink:href="classJ3DIndBlock.html" target="_top" xlink:title=" ">
<polygon fill="white" stroke="black" points="946,-367.5 946,-386.5 1018,-386.5 1018,-367.5 946,-367.5"/>
<text text-anchor="middle" x="982" y="-374.5" font-family="Helvetica,sans-Serif" font-size="10.00">J3DIndBlock</text>
</a>
</g>
</g>
<!-- Node28&#45;&gt;Node2 -->
<g id="edge38" class="edge">
<title>Node28&#45;&gt;Node2</title>
<path fill="none" stroke="#9a32cd" stroke-dasharray="5,2" d="M1028.27,-380.11C1059.48,-382.56 1101.88,-386.49 1139,-392 1149.28,-393.53 1160.4,-395.61 1170.47,-397.66"/>
<polygon fill="#9a32cd" stroke="#9a32cd" points="1028.37,-376.61 1018.13,-379.34 1027.84,-383.59 1028.37,-376.61"/>
<text text-anchor="middle" x="1094.5" y="-395" font-family="Helvetica,sans-Serif" font-size="10.00"> mIndBlock</text>
</g>
<!-- Node29 -->
<g id="node29" class="node">
<title>Node29</title>
<g id="a_node29"><a xlink:href="structJ3DPEBlock.html" target="_top" xlink:title=" ">
<polygon fill="white" stroke="black" points="946.5,-329.5 946.5,-348.5 1017.5,-348.5 1017.5,-329.5 946.5,-329.5"/>
<text text-anchor="middle" x="982" y="-336.5" font-family="Helvetica,sans-Serif" font-size="10.00">J3DPEBlock</text>
</a>
</g>
</g>
<!-- Node29&#45;&gt;Node2 -->
<g id="edge39" class="edge">
<title>Node29&#45;&gt;Node2</title>
<path fill="none" stroke="#9a32cd" stroke-dasharray="5,2" d="M1028.06,-342.33C1059.86,-345.75 1103.03,-352.56 1139,-366 1158.37,-373.24 1178.4,-386.4 1190.89,-395.41"/>
<polygon fill="#9a32cd" stroke="#9a32cd" points="1028.04,-338.81 1017.74,-341.3 1027.34,-345.78 1028.04,-338.81"/>
<text text-anchor="middle" x="1094.5" y="-369" font-family="Helvetica,sans-Serif" font-size="10.00"> mPEBlock</text>
</g>
<!-- Node30 -->
<g id="node30" class="node">
<title>Node30</title>
<g id="a_node30"><a xlink:href="structJ3DMaterialAnm.html" target="_top" xlink:title=" ">
<polygon fill="white" stroke="black" points="937.5,-519.5 937.5,-538.5 1026.5,-538.5 1026.5,-519.5 937.5,-519.5"/>
<text text-anchor="middle" x="982" y="-526.5" font-family="Helvetica,sans-Serif" font-size="10.00">J3DMaterialAnm</text>
</a>
</g>
</g>
<!-- Node30&#45;&gt;Node2 -->
<g id="edge40" class="edge">
<title>Node30&#45;&gt;Node2</title>
<path fill="none" stroke="#9a32cd" stroke-dasharray="5,2" d="M1035.03,-517.21C1078.64,-507.19 1134.51,-493.96 1139,-491 1168.91,-471.27 1190.24,-432.76 1199.03,-414.74"/>
<polygon fill="#9a32cd" stroke="#9a32cd" points="1034.06,-513.84 1025.09,-519.49 1035.62,-520.66 1034.06,-513.84"/>
<text text-anchor="middle" x="1094.5" y="-515" font-family="Helvetica,sans-Serif" font-size="10.00"> mMaterialAnm</text>
</g>
<!-- Node31 -->
<g id="node31" class="node">
<title>Node31</title>
<g id="a_node31"><a xlink:href="structJ3DMatColorAnm.html" target="_top" xlink:title=" ">
<polygon fill="white" stroke="black" points="722.5,-481.5 722.5,-500.5 815.5,-500.5 815.5,-481.5 722.5,-481.5"/>
<text text-anchor="middle" x="769" y="-488.5" font-family="Helvetica,sans-Serif" font-size="10.00">J3DMatColorAnm</text>
</a>
</g>
</g>
<!-- Node31&#45;&gt;Node30 -->
<g id="edge41" class="edge">
<title>Node31&#45;&gt;Node30</title>
<path fill="none" stroke="#9a32cd" stroke-dasharray="5,2" d="M825.5,-499.04C852.3,-503.14 884.9,-508.42 914,-514 922.55,-515.64 931.67,-517.56 940.34,-519.47"/>
<polygon fill="#9a32cd" stroke="#9a32cd" points="825.94,-495.57 815.52,-497.53 824.89,-502.49 825.94,-495.57"/>
<text text-anchor="middle" x="875.5" y="-517" font-family="Helvetica,sans-Serif" font-size="10.00"> mMatColorAnm</text>
</g>
<!-- Node32&#45;&gt;Node31 -->
<g id="edge42" class="edge">
<title>Node32&#45;&gt;Node31</title>
<path fill="none" stroke="#9a32cd" stroke-dasharray="5,2" d="M592.2,-491C630.76,-491 684.47,-491 722.35,-491"/>
<polygon fill="#9a32cd" stroke="#9a32cd" points="591.75,-487.5 581.75,-491 591.75,-494.5 591.75,-487.5"/>
<text text-anchor="middle" x="661.5" y="-494" font-family="Helvetica,sans-Serif" font-size="10.00"> mAnmColor</text>
</g>
<!-- Node33 -->
<g id="node33" class="node">
<title>Node33</title>
<g id="a_node33"><a xlink:href="classJ3DAnmBase.html" target="_top" xlink:title=" ">
<polygon fill="white" stroke="black" points="322.5,-467.5 322.5,-486.5 399.5,-486.5 399.5,-467.5 322.5,-467.5"/>
<text text-anchor="middle" x="361" y="-474.5" font-family="Helvetica,sans-Serif" font-size="10.00">J3DAnmBase</text>
</a>
</g>
</g>
<!-- Node33&#45;&gt;Node32 -->
<g id="edge43" class="edge">
<title>Node33&#45;&gt;Node32</title>
<path fill="none" stroke="midnightblue" d="M399.58,-489.28C405.68,-490.82 411.97,-492.16 418,-493 446.79,-497.03 479.69,-496.25 504.37,-494.62"/>
<polygon fill="midnightblue" stroke="midnightblue" points="400.16,-485.81 389.59,-486.53 398.3,-492.56 400.16,-485.81"/>
</g>
<!-- Node33&#45;&gt;Node35 -->
<g id="edge47" class="edge">
<title>Node33&#45;&gt;Node35</title>
<path fill="none" stroke="midnightblue" d="M370.76,-458.03C379.91,-440.56 396,-415.53 418,-403 437.11,-392.12 460.56,-387.66 481.9,-386.25"/>
<polygon fill="midnightblue" stroke="midnightblue" points="367.48,-456.77 366.18,-467.28 373.75,-459.87 367.48,-456.77"/>
</g>
<!-- Node33&#45;&gt;Node37 -->
<g id="edge51" class="edge">
<title>Node33&#45;&gt;Node37</title>
<path fill="none" stroke="midnightblue" d="M404.32,-464.95C408.91,-463.86 413.54,-462.84 418,-462 442.27,-457.41 469.51,-454.13 492.27,-451.9"/>
<polygon fill="midnightblue" stroke="midnightblue" points="403.23,-461.62 394.38,-467.45 404.94,-468.4 403.23,-461.62"/>
</g>
<!-- Node39 -->
<g id="node39" class="node">
<title>Node39</title>
<g id="a_node39"><a xlink:href="structJ3DAnmTevRegKey.html" target="_top" xlink:title=" ">
<polygon fill="white" stroke="black" points="491,-522.5 491,-541.5 595,-541.5 595,-522.5 491,-522.5"/>
<text text-anchor="middle" x="543" y="-529.5" font-family="Helvetica,sans-Serif" font-size="10.00">J3DAnmTevRegKey</text>
</a>
</g>
</g>
<!-- Node33&#45;&gt;Node39 -->
<g id="edge55" class="edge">
<title>Node33&#45;&gt;Node39</title>
<path fill="none" stroke="midnightblue" d="M385.3,-492.06C395.07,-497.79 406.76,-503.92 418,-508 441.29,-516.46 468.18,-522.13 490.95,-525.82"/>
<polygon fill="midnightblue" stroke="midnightblue" points="386.96,-488.97 376.6,-486.76 383.33,-494.95 386.96,-488.97"/>
</g>
<!-- Node34 -->
<g id="node34" class="node">
<title>Node34</title>
<g id="a_node34"><a xlink:href="structJ3DTexMtxAnm.html" target="_top" xlink:title=" ">
<polygon fill="white" stroke="black" points="726,-400.5 726,-419.5 812,-419.5 812,-400.5 726,-400.5"/>
<text text-anchor="middle" x="769" y="-407.5" font-family="Helvetica,sans-Serif" font-size="10.00">J3DTexMtxAnm</text>
</a>
</g>
</g>
<!-- Node34&#45;&gt;Node30 -->
<g id="edge45" class="edge">
<title>Node34&#45;&gt;Node30</title>
<path fill="none" stroke="#9a32cd" stroke-dasharray="5,2" d="M822.36,-409.26C852.82,-411.63 889.86,-419.74 914,-443 936.2,-464.39 911.4,-487.06 932,-510 935.41,-513.8 939.68,-516.85 944.26,-519.29"/>
<polygon fill="#9a32cd" stroke="#9a32cd" points="822.5,-405.76 812.31,-408.66 822.08,-412.75 822.5,-405.76"/>
<text text-anchor="middle" x="875.5" y="-446" font-family="Helvetica,sans-Serif" font-size="10.00"> mTexMtxAnm</text>
</g>
<!-- Node35&#45;&gt;Node34 -->
<g id="edge46" class="edge">
<title>Node35&#45;&gt;Node34</title>
<path fill="none" stroke="#9a32cd" stroke-dasharray="5,2" d="M614.17,-395.58C650.83,-399.02 694.48,-403.11 725.9,-406.05"/>
<polygon fill="#9a32cd" stroke="#9a32cd" points="614.31,-392.08 604.03,-394.63 613.66,-399.05 614.31,-392.08"/>
<text text-anchor="middle" x="661.5" y="-406" font-family="Helvetica,sans-Serif" font-size="10.00"> mAnmTransform</text>
</g>
<!-- Node36 -->
<g id="node36" class="node">
<title>Node36</title>
<g id="a_node36"><a xlink:href="structJ3DTexNoAnm.html" target="_top" xlink:title=" ">
<polygon fill="white" stroke="black" points="727.5,-443.5 727.5,-462.5 810.5,-462.5 810.5,-443.5 727.5,-443.5"/>
<text text-anchor="middle" x="769" y="-450.5" font-family="Helvetica,sans-Serif" font-size="10.00">J3DTexNoAnm</text>
</a>
</g>
</g>
<!-- Node36&#45;&gt;Node30 -->
<g id="edge49" class="edge">
<title>Node36&#45;&gt;Node30</title>
<path fill="none" stroke="#9a32cd" stroke-dasharray="5,2" d="M820.8,-456.01C850.02,-459.76 886.3,-468 914,-486 925.18,-493.27 921.37,-501.95 932,-510 937.02,-513.8 942.89,-516.94 948.79,-519.48"/>
<polygon fill="#9a32cd" stroke="#9a32cd" points="821.12,-452.53 810.79,-454.87 820.33,-459.48 821.12,-452.53"/>
<text text-anchor="middle" x="875.5" y="-489" font-family="Helvetica,sans-Serif" font-size="10.00"> mTexNoAnm</text>
</g>
<!-- Node37&#45;&gt;Node36 -->
<g id="edge50" class="edge">
<title>Node37&#45;&gt;Node36</title>
<path fill="none" stroke="#9a32cd" stroke-dasharray="5,2" d="M603.91,-449.34C642.98,-450.21 692.93,-451.32 727.4,-452.09"/>
<polygon fill="#9a32cd" stroke="#9a32cd" points="603.79,-445.83 593.71,-449.11 603.63,-452.83 603.79,-445.83"/>
<text text-anchor="middle" x="661.5" y="-454" font-family="Helvetica,sans-Serif" font-size="10.00"> mAnmTexPattern</text>
</g>
<!-- Node38 -->
<g id="node38" class="node">
<title>Node38</title>
<g id="a_node38"><a xlink:href="structJ3DTevColorAnm.html" target="_top" xlink:title=" ">
<polygon fill="white" stroke="black" points="722.5,-519.5 722.5,-538.5 815.5,-538.5 815.5,-519.5 722.5,-519.5"/>
<text text-anchor="middle" x="769" y="-526.5" font-family="Helvetica,sans-Serif" font-size="10.00">J3DTevColorAnm</text>
</a>
</g>
</g>
<!-- Node38&#45;&gt;Node30 -->
<g id="edge53" class="edge">
<title>Node38&#45;&gt;Node30</title>
<path fill="none" stroke="#9a32cd" stroke-dasharray="5,2" d="M825.57,-529C860.52,-529 904.96,-529 937.36,-529"/>
<polygon fill="#9a32cd" stroke="#9a32cd" points="825.52,-525.5 815.52,-529 825.52,-532.5 825.52,-525.5"/>
<text text-anchor="middle" x="875.5" y="-532" font-family="Helvetica,sans-Serif" font-size="10.00"> mTevColorAnm</text>
</g>
<!-- Node39&#45;&gt;Node38 -->
<g id="edge54" class="edge">
<title>Node39&#45;&gt;Node38</title>
<path fill="none" stroke="#9a32cd" stroke-dasharray="5,2" d="M605.28,-531.18C642.29,-530.68 688.67,-530.06 722.43,-529.61"/>
<polygon fill="#9a32cd" stroke="#9a32cd" points="605.06,-527.68 595.11,-531.32 605.16,-534.68 605.06,-527.68"/>
<text text-anchor="middle" x="661.5" y="-533" font-family="Helvetica,sans-Serif" font-size="10.00"> mAnmTevReg</text>
</g>
<!-- Node40 -->
<g id="node40" class="node">
<title>Node40</title>
<g id="a_node40"><a xlink:href="structJ3DTevKColorAnm.html" target="_top" xlink:title=" ">
<polygon fill="white" stroke="black" points="719,-557.5 719,-576.5 819,-576.5 819,-557.5 719,-557.5"/>
<text text-anchor="middle" x="769" y="-564.5" font-family="Helvetica,sans-Serif" font-size="10.00">J3DTevKColorAnm</text>
</a>
</g>
</g>
<!-- Node39&#45;&gt;Node40 -->
<g id="edge57" class="edge">
<title>Node39&#45;&gt;Node40</title>
<path fill="none" stroke="#9a32cd" stroke-dasharray="5,2" d="M605.39,-541.59C641.02,-547.16 685.3,-554.08 718.65,-559.29"/>
<polygon fill="#9a32cd" stroke="#9a32cd" points="605.53,-538.07 595.11,-539.99 604.45,-544.99 605.53,-538.07"/>
<text text-anchor="middle" x="661.5" y="-558" font-family="Helvetica,sans-Serif" font-size="10.00"> mAnmTevReg</text>
</g>
<!-- Node40&#45;&gt;Node30 -->
<g id="edge56" class="edge">
<title>Node40&#45;&gt;Node30</title>
<path fill="none" stroke="#9a32cd" stroke-dasharray="5,2" d="M829.17,-557.7C855.23,-553.46 886.18,-548.22 914,-543 921.59,-541.57 929.65,-539.97 937.44,-538.37"/>
<polygon fill="#9a32cd" stroke="#9a32cd" points="828.39,-554.28 819.08,-559.33 829.51,-561.19 828.39,-554.28"/>
<text text-anchor="middle" x="875.5" y="-559" font-family="Helvetica,sans-Serif" font-size="10.00"> mTevKColorAnm</text>
</g>
<!-- Node41 -->
<g id="node41" class="node">
<title>Node41</title>
<g id="a_node41"><a xlink:href="structJ3DDisplayListObj.html" target="_top" xlink:title=" ">
<polygon fill="white" stroke="black" points="933.5,-291.5 933.5,-310.5 1030.5,-310.5 1030.5,-291.5 933.5,-291.5"/>
<text text-anchor="middle" x="982" y="-298.5" font-family="Helvetica,sans-Serif" font-size="10.00">J3DDisplayListObj</text>
</a>
</g>
</g>
<!-- Node41&#45;&gt;Node2 -->
<g id="edge59" class="edge">
<title>Node41&#45;&gt;Node2</title>
<path fill="none" stroke="#9a32cd" stroke-dasharray="5,2" d="M1040.72,-302.56C1071.6,-305.58 1109.29,-312.9 1139,-330 1140.84,-331.06 1178.42,-375.35 1195.35,-395.36"/>
<polygon fill="#9a32cd" stroke="#9a32cd" points="1040.78,-299.05 1030.52,-301.69 1040.19,-306.03 1040.78,-299.05"/>
<text text-anchor="middle" x="1094.5" y="-333" font-family="Helvetica,sans-Serif" font-size="10.00"> mSharedDLObj</text>
</g>
<!-- Node42 -->
<g id="node42" class="node">
<title>Node42</title>
<g id="a_node42"><a xlink:href="structGDLObj.html" target="_top" xlink:title=" ">
<polygon fill="white" stroke="black" points="743,-298.5 743,-317.5 795,-317.5 795,-298.5 743,-298.5"/>
<text text-anchor="middle" x="769" y="-305.5" font-family="Helvetica,sans-Serif" font-size="10.00">GDLObj</text>
</a>
</g>
</g>
<!-- Node42&#45;&gt;Node41 -->
<g id="edge60" class="edge">
<title>Node42&#45;&gt;Node41</title>
<path fill="none" stroke="#9a32cd" stroke-dasharray="5,2" d="M805.27,-306.83C840.32,-305.67 894.33,-303.88 933.22,-302.59"/>
<polygon fill="#9a32cd" stroke="#9a32cd" points="804.91,-303.34 795.03,-307.17 805.14,-310.34 804.91,-303.34"/>
<text text-anchor="middle" x="875.5" y="-308" font-family="Helvetica,sans-Serif" font-size="10.00"> sGDLObj</text>
</g>
<!-- Node43 -->
<g id="node43" class="node">
<title>Node43</title>
<g id="a_node43"><a xlink:href="structJ3DTexture.html" target="_top" xlink:title=" ">
<polygon fill="white" stroke="black" points="1171.5,-287.5 1171.5,-306.5 1237.5,-306.5 1237.5,-287.5 1171.5,-287.5"/>
<text text-anchor="middle" x="1204.5" y="-294.5" font-family="Helvetica,sans-Serif" font-size="10.00">J3DTexture</text>
</a>
</g>
</g>
<!-- Node43&#45;&gt;Node1 -->
<g id="edge62" class="edge">
<title>Node43&#45;&gt;Node1</title>
<path fill="none" stroke="#9a32cd" stroke-dasharray="5,2" d="M1248.09,-298.14C1281.59,-299.75 1329.25,-303.64 1370,-313 1385.83,-316.64 1402.99,-323.03 1416.05,-328.44"/>
<polygon fill="#9a32cd" stroke="#9a32cd" points="1247.88,-294.62 1237.73,-297.69 1247.57,-301.62 1247.88,-294.62"/>
<text text-anchor="middle" x="1320" y="-316" font-family="Helvetica,sans-Serif" font-size="10.00"> mTexture</text>
</g>
<!-- Node44 -->
<g id="node44" class="node">
<title>Node44</title>
<g id="a_node44"><a xlink:href="structResTIMG.html" target="_top" xlink:title=" ">
<polygon fill="white" stroke="black" points="952.5,-177.5 952.5,-196.5 1011.5,-196.5 1011.5,-177.5 952.5,-177.5"/>
<text text-anchor="middle" x="982" y="-184.5" font-family="Helvetica,sans-Serif" font-size="10.00">ResTIMG</text>
</a>
</g>
</g>
<!-- Node44&#45;&gt;Node43 -->
<g id="edge63" class="edge">
<title>Node44&#45;&gt;Node43</title>
<path fill="none" stroke="#9a32cd" stroke-dasharray="5,2" d="M1021.83,-184.01C1056.69,-183.51 1107.15,-188.5 1139,-217 1159.11,-235 1139.31,-254.62 1157,-275 1161.45,-280.13 1167.36,-284.15 1173.46,-287.27"/>
<polygon fill="#9a32cd" stroke="#9a32cd" points="1021.44,-180.52 1011.55,-184.32 1021.65,-187.52 1021.44,-180.52"/>
<text text-anchor="middle" x="1094.5" y="-220" font-family="Helvetica,sans-Serif" font-size="10.00"> mpRes</text>
</g>
</g>
</svg>
