<?xml version="1.0" encoding="UTF-8" standalone="no"?>
<!DOCTYPE svg PUBLIC "-//W3C//DTD SVG 1.1//EN"
 "http://www.w3.org/Graphics/SVG/1.1/DTD/svg11.dtd">
<!-- Generated by graphviz version 3.0.0 (20221109.1736)
 -->
<!-- Title: dCamera_monitoring_things Pages: 1 -->
<svg width="141pt" height="242pt"
 viewBox="0.00 0.00 141.00 242.00" xmlns="http://www.w3.org/2000/svg" xmlns:xlink="http://www.w3.org/1999/xlink">
<g id="graph0" class="graph" transform="scale(1 1) rotate(0) translate(4 238)">
<title>dCamera_monitoring_things</title>
<polygon fill="white" stroke="transparent" points="-4,4 -4,-238 137,-238 137,4 -4,4"/>
<!-- Node1 -->
<g id="node1" class="node">
<title>Node1</title>
<g id="a_node1"><a xlink:title=" ">
<polygon fill="#bfbfbf" stroke="black" points="0,-0.5 0,-30.5 106,-30.5 106,-0.5 0,-0.5"/>
<text text-anchor="start" x="8" y="-18.5" font-family="Helvetica,sans-Serif" font-size="10.00">dCamera_monitoring</text>
<text text-anchor="middle" x="53" y="-7.5" font-family="Helvetica,sans-Serif" font-size="10.00">_things</text>
</a>
</g>
</g>
<!-- Node2 -->
<g id="node2" class="node">
<title>Node2</title>
<g id="a_node2"><a xlink:href="structcXyz.html" target="_top" xlink:title=" ">
<polygon fill="white" stroke="black" points="34,-123.5 34,-142.5 72,-142.5 72,-123.5 34,-123.5"/>
<text text-anchor="middle" x="53" y="-130.5" font-family="Helvetica,sans-Serif" font-size="10.00">cXyz</text>
</a>
</g>
</g>
<!-- Node2&#45;&gt;Node1 -->
<g id="edge1" class="edge">
<title>Node2&#45;&gt;Node1</title>
<path fill="none" stroke="#9a32cd" stroke-dasharray="5,2" d="M53,-113.07C53,-89.9 53,-51.22 53,-30.55"/>
<polygon fill="#9a32cd" stroke="#9a32cd" points="49.5,-113.32 53,-123.32 56.5,-113.32 49.5,-113.32"/>
<text text-anchor="middle" x="74.5" y="-63" font-family="Helvetica,sans-Serif" font-size="10.00"> field_0x0</text>
<text text-anchor="middle" x="74.5" y="-52" font-family="Helvetica,sans-Serif" font-size="10.00">field_0x14</text>
</g>
<!-- Node2&#45;&gt;Node2 -->
<g id="edge3" class="edge">
<title>Node2&#45;&gt;Node2</title>
<path fill="none" stroke="#9a32cd" stroke-dasharray="5,2" d="M75.87,-144.62C83.7,-144.71 90,-140.83 90,-133 90,-121.98 77.53,-118.8 65.89,-123.44"/>
<polygon fill="#9a32cd" stroke="#9a32cd" points="76.4,-141.16 65.89,-142.56 74.98,-148.01 76.4,-141.16"/>
<text text-anchor="middle" x="111.5" y="-169" font-family="Helvetica,sans-Serif" font-size="10.00"> BaseX</text>
<text text-anchor="middle" x="111.5" y="-158" font-family="Helvetica,sans-Serif" font-size="10.00">BaseXY</text>
<text text-anchor="middle" x="111.5" y="-147" font-family="Helvetica,sans-Serif" font-size="10.00">BaseXYZ</text>
<text text-anchor="middle" x="111.5" y="-136" font-family="Helvetica,sans-Serif" font-size="10.00">BaseXZ</text>
<text text-anchor="middle" x="111.5" y="-125" font-family="Helvetica,sans-Serif" font-size="10.00">BaseY</text>
<text text-anchor="middle" x="111.5" y="-114" font-family="Helvetica,sans-Serif" font-size="10.00">BaseYZ</text>
<text text-anchor="middle" x="111.5" y="-103" font-family="Helvetica,sans-Serif" font-size="10.00">BaseZ</text>
<text text-anchor="middle" x="111.5" y="-92" font-family="Helvetica,sans-Serif" font-size="10.00">Zero</text>
</g>
<!-- Node3 -->
<g id="node3" class="node">
<title>Node3</title>
<g id="a_node3"><a xlink:href="structVec.html" target="_top" xlink:title=" ">
<polygon fill="white" stroke="black" points="36,-214.5 36,-233.5 70,-233.5 70,-214.5 36,-214.5"/>
<text text-anchor="middle" x="53" y="-221.5" font-family="Helvetica,sans-Serif" font-size="10.00">Vec</text>
</a>
</g>
</g>
<!-- Node3&#45;&gt;Node2 -->
<g id="edge2" class="edge">
<title>Node3&#45;&gt;Node2</title>
<path fill="none" stroke="midnightblue" d="M53,-204.35C53,-185.38 53,-156.83 53,-142.64"/>
<polygon fill="midnightblue" stroke="midnightblue" points="49.5,-204.47 53,-214.47 56.5,-204.47 49.5,-204.47"/>
</g>
</g>
</svg>
