<?xml version="1.0" encoding="UTF-8" standalone="no"?>
<!DOCTYPE svg PUBLIC "-//W3C//DTD SVG 1.1//EN"
 "http://www.w3.org/Graphics/SVG/1.1/DTD/svg11.dtd">
<!-- Generated by graphviz version 3.0.0 (20220413.0242)
 -->
<!-- Title: J3DLightObj Pages: 1 -->
<svg width="147pt" height="195pt"
 viewBox="0.00 0.00 146.50 195.00" xmlns="http://www.w3.org/2000/svg" xmlns:xlink="http://www.w3.org/1999/xlink">
<g id="graph0" class="graph" transform="scale(1 1) rotate(0) translate(4 191)">
<title>J3DLightObj</title>
<polygon fill="white" stroke="transparent" points="-4,4 -4,-191 142.5,-191 142.5,4 -4,4"/>
<!-- Node1 -->
<g id="node1" class="node">
<title>Node1</title>
<g id="a_node1"><a xlink:title=" ">
<polygon fill="#bfbfbf" stroke="black" points="27.5,-0.5 27.5,-19.5 98.5,-19.5 98.5,-0.5 27.5,-0.5"/>
<text text-anchor="middle" x="63" y="-7.5" font-family="Helvetica,sans-Serif" font-size="10.00">J3DLightObj</text>
</a>
</g>
</g>
<!-- Node2 -->
<g id="node2" class="node">
<title>Node2</title>
<g id="a_node2"><a xlink:href="structJ3DLightInfo.html" target="_top" xlink:title=" ">
<polygon fill="white" stroke="black" points="27,-67.5 27,-86.5 99,-86.5 99,-67.5 27,-67.5"/>
<text text-anchor="middle" x="63" y="-74.5" font-family="Helvetica,sans-Serif" font-size="10.00">J3DLightInfo</text>
</a>
</g>
</g>
<!-- Node2&#45;&gt;Node1 -->
<g id="edge1" class="edge">
<title>Node2&#45;&gt;Node1</title>
<path fill="none" stroke="#9a32cd" stroke-dasharray="5,2" d="M63,-57.04C63,-44.67 63,-29.12 63,-19.63"/>
<polygon fill="#9a32cd" stroke="#9a32cd" points="59.5,-57.23 63,-67.23 66.5,-57.23 59.5,-57.23"/>
<text text-anchor="middle" x="77" y="-41" font-family="Helvetica,sans-Serif" font-size="10.00"> mInfo</text>
</g>
<!-- Node3 -->
<g id="node3" class="node">
<title>Node3</title>
<g id="a_node3"><a xlink:href="structVec.html" target="_top" xlink:title=" ">
<polygon fill="white" stroke="black" points="0,-167.5 0,-186.5 34,-186.5 34,-167.5 0,-167.5"/>
<text text-anchor="middle" x="17" y="-174.5" font-family="Helvetica,sans-Serif" font-size="10.00">Vec</text>
</a>
</g>
</g>
<!-- Node3&#45;&gt;Node2 -->
<g id="edge2" class="edge">
<title>Node3&#45;&gt;Node2</title>
<path fill="none" stroke="#9a32cd" stroke-dasharray="5,2" d="M12.54,-157.26C9.99,-142.14 8.89,-120.84 18,-105 22.73,-96.79 31.04,-90.79 39.24,-86.57"/>
<polygon fill="#9a32cd" stroke="#9a32cd" points="9.18,-158.34 14.62,-167.44 16.04,-156.94 9.18,-158.34"/>
<text text-anchor="middle" x="52.5" y="-141" font-family="Helvetica,sans-Serif" font-size="10.00"> mCosAtten</text>
<text text-anchor="middle" x="52.5" y="-130" font-family="Helvetica,sans-Serif" font-size="10.00">mDistAtten</text>
<text text-anchor="middle" x="52.5" y="-119" font-family="Helvetica,sans-Serif" font-size="10.00">mLightDirection</text>
<text text-anchor="middle" x="52.5" y="-108" font-family="Helvetica,sans-Serif" font-size="10.00">mLightPosition</text>
</g>
<!-- Node4 -->
<g id="node4" class="node">
<title>Node4</title>
<g id="a_node4"><a xlink:href="struct__GXColor.html" target="_top" xlink:title=" ">
<polygon fill="white" stroke="black" points="79.5,-167.5 79.5,-186.5 138.5,-186.5 138.5,-167.5 79.5,-167.5"/>
<text text-anchor="middle" x="109" y="-174.5" font-family="Helvetica,sans-Serif" font-size="10.00">_GXColor</text>
</a>
</g>
</g>
<!-- Node4&#45;&gt;Node2 -->
<g id="edge3" class="edge">
<title>Node4&#45;&gt;Node2</title>
<path fill="none" stroke="#9a32cd" stroke-dasharray="5,2" d="M105.47,-157.22C102.16,-142.37 96.3,-121.48 87,-105 83.18,-98.23 77.43,-91.68 72.51,-86.73"/>
<polygon fill="#9a32cd" stroke="#9a32cd" points="102.09,-158.13 107.53,-167.22 108.94,-156.72 102.09,-158.13"/>
<text text-anchor="middle" x="120" y="-124.5" font-family="Helvetica,sans-Serif" font-size="10.00"> mColor</text>
</g>
</g>
</svg>
