<?xml version="1.0" encoding="UTF-8" standalone="no"?>
<!DOCTYPE svg PUBLIC "-//W3C//DTD SVG 1.1//EN"
 "http://www.w3.org/Graphics/SVG/1.1/DTD/svg11.dtd">
<!-- Generated by graphviz version 7.0.4 (20221203.1631)
 -->
<!-- Title: JSUList&lt; A0 &gt; Pages: 1 -->
<svg width="225pt" height="107pt"
 viewBox="0.00 0.00 224.50 107.00" xmlns="http://www.w3.org/2000/svg" xmlns:xlink="http://www.w3.org/1999/xlink">
<g id="graph0" class="graph" transform="scale(1 1) rotate(0) translate(4 103)">
<title>JSUList&lt; A0 &gt;</title>
<!-- Node1 -->
<g id="node1" class="node">
<title>Node1</title>
<g id="a_node1"><a xlink:title=" ">
<polygon fill="#999999" stroke="#666666" points="81,-20.5 0,-20.5 0,-1.5 81,-1.5 81,-20.5"/>
<text text-anchor="middle" x="40.5" y="-8.5" font-family="Helvetica,sans-Serif" font-size="10.00">JSUList&lt; A0 &gt;</text>
</a>
</g>
</g>
<!-- Node2 -->
<g id="node2" class="node">
<title>Node2</title>
<g id="a_node2"><a xlink:href="structJSUPtrList.html" target="_top" xlink:title=" ">
<polygon fill="white" stroke="#666666" points="115,-99 50,-99 50,-80 115,-80 115,-99"/>
<text text-anchor="middle" x="82.5" y="-87" font-family="Helvetica,sans-Serif" font-size="10.00">JSUPtrList</text>
</a>
</g>
</g>
<!-- Node2&#45;&gt;Node1 -->
<g id="edge1" class="edge">
<title>Node2&#45;&gt;Node1</title>
<path fill="none" stroke="#63b8ff" d="M66.79,-71.12C64.52,-68.18 62.34,-65.09 60.5,-62 52.47,-48.5 46.37,-31.19 43.12,-20.88"/>
<polygon fill="#63b8ff" stroke="#63b8ff" points="63.92,-73.14 73.04,-78.55 69.29,-68.64 63.92,-73.14"/>
</g>
<!-- Node3 -->
<g id="node3" class="node">
<title>Node3</title>
<g id="a_node3"><a xlink:href="structJSUPtrLink.html" target="_top" xlink:title=" ">
<polygon fill="white" stroke="#666666" points="167.5,-20.5 99.5,-20.5 99.5,-1.5 167.5,-1.5 167.5,-20.5"/>
<text text-anchor="middle" x="133.5" y="-8.5" font-family="Helvetica,sans-Serif" font-size="10.00">JSUPtrLink</text>
</a>
</g>
</g>
<!-- Node2&#45;&gt;Node3 -->
<g id="edge3" class="edge">
<title>Node2&#45;&gt;Node3</title>
<path fill="none" stroke="#9a32cd" stroke-dasharray="5,2" d="M76.26,-68.55C74.56,-59.25 74.38,-48.42 79.5,-40 84.77,-31.34 93.68,-25.23 102.76,-20.99"/>
<polygon fill="#9a32cd" stroke="#9a32cd" points="72.83,-69.25 78.7,-78.07 79.61,-67.52 72.83,-69.25"/>
<text text-anchor="middle" x="93.5" y="-48.5" font-family="Helvetica,sans-Serif" font-size="10.00"> mList</text>
</g>
<!-- Node3&#45;&gt;Node2 -->
<g id="edge2" class="edge">
<title>Node3&#45;&gt;Node2</title>
<path fill="none" stroke="#9a32cd" stroke-dasharray="5,2" d="M127.17,-31.3C123.46,-41.02 118.18,-52.69 111.5,-62 106.73,-68.65 100.06,-74.89 94.32,-79.64"/>
<polygon fill="#9a32cd" stroke="#9a32cd" points="130.38,-32.72 130.4,-22.13 123.78,-30.4 130.38,-32.72"/>
<text text-anchor="middle" x="139.5" y="-54" font-family="Helvetica,sans-Serif" font-size="10.00"> mHead</text>
<text text-anchor="middle" x="139.5" y="-43" font-family="Helvetica,sans-Serif" font-size="10.00">mTail</text>
</g>
<!-- Node3&#45;&gt;Node3 -->
<g id="edge4" class="edge">
<title>Node3&#45;&gt;Node3</title>
<path fill="none" stroke="#9a32cd" stroke-dasharray="5,2" d="M178.69,-16.99C182.87,-15.75 185.5,-13.76 185.5,-11 185.5,-6.23 177.63,-3.74 167.51,-3.52"/>
<polygon fill="#9a32cd" stroke="#9a32cd" points="178.46,-13.49 169.01,-18.28 179.38,-20.43 178.46,-13.49"/>
<text text-anchor="middle" x="201" y="-14" font-family="Helvetica,sans-Serif" font-size="10.00"> mNext</text>
<text text-anchor="middle" x="201" y="-3" font-family="Helvetica,sans-Serif" font-size="10.00">mPrev</text>
</g>
</g>
</svg>
