<?xml version="1.0" encoding="UTF-8" standalone="no"?>
<!DOCTYPE svg PUBLIC "-//W3C//DTD SVG 1.1//EN"
 "http://www.w3.org/Graphics/SVG/1.1/DTD/svg11.dtd">
<!-- Generated by graphviz version 3.0.0 (20220413.0242)
 -->
<!-- Title: JKRDvdFile Pages: 1 -->
<svg width="1479pt" height="659pt"
 viewBox="0.00 0.00 1479.00 659.00" xmlns="http://www.w3.org/2000/svg" xmlns:xlink="http://www.w3.org/1999/xlink">
<g id="graph0" class="graph" transform="scale(1 1) rotate(0) translate(4 655)">
<title>JKRDvdFile</title>
<polygon fill="white" stroke="transparent" points="-4,4 -4,-655 1475,-655 1475,4 -4,4"/>
<!-- Node1 -->
<g id="node1" class="node">
<title>Node1</title>
<g id="a_node1"><a xlink:title=" ">
<polygon fill="#bfbfbf" stroke="black" points="1403,-212.5 1403,-231.5 1471,-231.5 1471,-212.5 1403,-212.5"/>
<text text-anchor="middle" x="1437" y="-219.5" font-family="Helvetica,sans-Serif" font-size="10.00">JKRDvdFile</text>
</a>
</g>
</g>
<!-- Node1&#45;&gt;Node1 -->
<g id="edge42" class="edge">
<title>Node1&#45;&gt;Node1</title>
<path fill="none" stroke="#9a32cd" stroke-dasharray="5,2" d="M1419.59,-241.4C1420.76,-246.31 1426.56,-250 1437,-250 1453.71,-250 1458.54,-240.57 1451.49,-231.76"/>
<polygon fill="#9a32cd" stroke="#9a32cd" points="1422.97,-242.34 1422.51,-231.76 1416.27,-240.31 1422.97,-242.34"/>
<text text-anchor="middle" x="1437" y="-253" font-family="Helvetica,sans-Serif" font-size="10.00"> mDvdFile</text>
</g>
<!-- Node2 -->
<g id="node2" class="node">
<title>Node2</title>
<g id="a_node2"><a xlink:href="classJKRFile.html" target="_top" xlink:title=" ">
<polygon fill="white" stroke="black" points="970,-212.5 970,-231.5 1021,-231.5 1021,-212.5 970,-212.5"/>
<text text-anchor="middle" x="995.5" y="-219.5" font-family="Helvetica,sans-Serif" font-size="10.00">JKRFile</text>
</a>
</g>
</g>
<!-- Node2&#45;&gt;Node1 -->
<g id="edge1" class="edge">
<title>Node2&#45;&gt;Node1</title>
<path fill="none" stroke="midnightblue" d="M1031.21,-222C1113.93,-222 1321.85,-222 1402.91,-222"/>
<polygon fill="midnightblue" stroke="midnightblue" points="1031.07,-218.5 1021.07,-222 1031.07,-225.5 1031.07,-218.5"/>
</g>
<!-- Node20 -->
<g id="node20" class="node">
<title>Node20</title>
<g id="a_node20"><a xlink:href="structJSUFileInputStream.html" target="_top" xlink:title=" ">
<polygon fill="white" stroke="black" points="1177,-250.5 1177,-269.5 1282,-269.5 1282,-250.5 1177,-250.5"/>
<text text-anchor="middle" x="1229.5" y="-257.5" font-family="Helvetica,sans-Serif" font-size="10.00">JSUFileInputStream</text>
</a>
</g>
</g>
<!-- Node2&#45;&gt;Node20 -->
<g id="edge36" class="edge">
<title>Node2&#45;&gt;Node20</title>
<path fill="none" stroke="#9a32cd" stroke-dasharray="5,2" d="M1031.31,-228.27C1045.2,-230.74 1061.35,-233.56 1076,-236 1109.57,-241.6 1147.37,-247.55 1176.93,-252.12"/>
<polygon fill="#9a32cd" stroke="#9a32cd" points="1031.65,-224.78 1021.19,-226.47 1030.42,-231.67 1031.65,-224.78"/>
<text text-anchor="middle" x="1117.5" y="-252" font-family="Helvetica,sans-Serif" font-size="10.00"> mFile</text>
</g>
<!-- Node3 -->
<g id="node3" class="node">
<title>Node3</title>
<g id="a_node3"><a xlink:href="structJKRDisposer.html" target="_top" xlink:title=" ">
<polygon fill="white" stroke="black" points="680,-220.5 680,-239.5 754,-239.5 754,-220.5 680,-220.5"/>
<text text-anchor="middle" x="717" y="-227.5" font-family="Helvetica,sans-Serif" font-size="10.00">JKRDisposer</text>
</a>
</g>
</g>
<!-- Node3&#45;&gt;Node2 -->
<g id="edge2" class="edge">
<title>Node3&#45;&gt;Node2</title>
<path fill="none" stroke="midnightblue" d="M764.22,-224.23C773.41,-223.3 783,-222.49 792,-222 856.07,-218.55 931.7,-220.02 969.85,-221.15"/>
<polygon fill="midnightblue" stroke="midnightblue" points="763.64,-220.77 754.07,-225.31 764.39,-227.73 763.64,-220.77"/>
</g>
<!-- Node4 -->
<g id="node4" class="node">
<title>Node4</title>
<g id="a_node4"><a xlink:href="structJKRHeap.html" target="_top" xlink:title=" ">
<polygon fill="white" stroke="black" points="966,-282.5 966,-301.5 1025,-301.5 1025,-282.5 966,-282.5"/>
<text text-anchor="middle" x="995.5" y="-289.5" font-family="Helvetica,sans-Serif" font-size="10.00">JKRHeap</text>
</a>
</g>
</g>
<!-- Node3&#45;&gt;Node4 -->
<g id="edge4" class="edge">
<title>Node3&#45;&gt;Node4</title>
<path fill="none" stroke="midnightblue" d="M755.99,-242.7C767.48,-246.3 780.19,-250.04 792,-253 853.29,-268.38 926.33,-281.09 965.78,-287.5"/>
<polygon fill="midnightblue" stroke="midnightblue" points="756.85,-239.29 746.25,-239.59 754.72,-245.96 756.85,-239.29"/>
</g>
<!-- Node4&#45;&gt;Node3 -->
<g id="edge3" class="edge">
<title>Node4&#45;&gt;Node3</title>
<path fill="none" stroke="#9a32cd" stroke-dasharray="5,2" d="M975.2,-275.94C959.9,-264.24 937.45,-249.22 915,-242 861.01,-224.64 794.5,-224.71 754.21,-226.93"/>
<polygon fill="#9a32cd" stroke="#9a32cd" points="973.3,-278.91 983.32,-282.36 977.64,-273.42 973.3,-278.91"/>
<text text-anchor="middle" x="853.5" y="-245" font-family="Helvetica,sans-Serif" font-size="10.00"> mHeap</text>
</g>
<!-- Node4&#45;&gt;Node4 -->
<g id="edge5" class="edge">
<title>Node4&#45;&gt;Node4</title>
<path fill="none" stroke="#9a32cd" stroke-dasharray="5,2" d="M972.81,-311.03C974.04,-316.13 981.61,-320 995.5,-320 1017.18,-320 1023.45,-310.57 1014.3,-301.76"/>
<polygon fill="#9a32cd" stroke="#9a32cd" points="976.06,-312.33 976.7,-301.76 969.6,-309.62 976.06,-312.33"/>
<text text-anchor="middle" x="995.5" y="-345" font-family="Helvetica,sans-Serif" font-size="10.00"> sCurrentHeap</text>
<text text-anchor="middle" x="995.5" y="-334" font-family="Helvetica,sans-Serif" font-size="10.00">sRootHeap</text>
<text text-anchor="middle" x="995.5" y="-323" font-family="Helvetica,sans-Serif" font-size="10.00">sSystemHeap</text>
</g>
<!-- Node5 -->
<g id="node5" class="node">
<title>Node5</title>
<g id="a_node5"><a xlink:href="structOSMutex.html" target="_top" xlink:title=" ">
<polygon fill="white" stroke="black" points="140.5,-469.5 140.5,-488.5 197.5,-488.5 197.5,-469.5 140.5,-469.5"/>
<text text-anchor="middle" x="169" y="-476.5" font-family="Helvetica,sans-Serif" font-size="10.00">OSMutex</text>
</a>
</g>
</g>
<!-- Node5&#45;&gt;Node1 -->
<g id="edge19" class="edge">
<title>Node5&#45;&gt;Node1</title>
<path fill="none" stroke="#9a32cd" stroke-dasharray="5,2" d="M207.85,-474.88C246.17,-470.79 307.16,-464.5 360,-460 669.87,-433.64 756.3,-486.43 1058,-411 1212.41,-372.39 1250.17,-349.57 1385,-265 1400.5,-255.28 1416.3,-241.18 1426.12,-231.81"/>
<polygon fill="#9a32cd" stroke="#9a32cd" points="207.24,-471.43 197.67,-475.97 207.98,-478.39 207.24,-471.43"/>
<text text-anchor="middle" x="853.5" y="-466" font-family="Helvetica,sans-Serif" font-size="10.00"> mMutex1</text>
<text text-anchor="middle" x="853.5" y="-455" font-family="Helvetica,sans-Serif" font-size="10.00">mMutex2</text>
</g>
<!-- Node5&#45;&gt;Node4 -->
<g id="edge6" class="edge">
<title>Node5&#45;&gt;Node4</title>
<path fill="none" stroke="#9a32cd" stroke-dasharray="5,2" d="M183.54,-461.2C192.95,-449.96 206.37,-435.92 221,-427 276.21,-393.33 296.57,-396.58 360,-384 602.97,-335.82 677.22,-402.42 915,-333 939.15,-325.95 964.57,-311.4 979.98,-301.67"/>
<polygon fill="#9a32cd" stroke="#9a32cd" points="180.72,-459.14 177.19,-469.13 186.17,-463.52 180.72,-459.14"/>
<text text-anchor="middle" x="579" y="-369" font-family="Helvetica,sans-Serif" font-size="10.00"> mMutex</text>
</g>
<!-- Node15 -->
<g id="node15" class="node">
<title>Node15</title>
<g id="a_node15"><a xlink:href="structOSThread.html" target="_top" xlink:title=" ">
<polygon fill="white" stroke="black" points="686.5,-532.5 686.5,-551.5 747.5,-551.5 747.5,-532.5 686.5,-532.5"/>
<text text-anchor="middle" x="717" y="-539.5" font-family="Helvetica,sans-Serif" font-size="10.00">OSThread</text>
</a>
</g>
</g>
<!-- Node5&#45;&gt;Node15 -->
<g id="edge29" class="edge">
<title>Node5&#45;&gt;Node15</title>
<path fill="none" stroke="#9a32cd" stroke-dasharray="5,2" d="M182.75,-496.85C191.97,-508.21 205.49,-522.05 221,-529 383.37,-601.82 606.8,-565.38 686.38,-548.76"/>
<polygon fill="#9a32cd" stroke="#9a32cd" points="185.45,-494.6 176.58,-488.8 179.89,-498.86 185.45,-494.6"/>
<text text-anchor="middle" x="429" y="-575" font-family="Helvetica,sans-Serif" font-size="10.00"> mutex</text>
</g>
<!-- Node19 -->
<g id="node19" class="node">
<title>Node19</title>
<g id="a_node19"><a xlink:href="structOSMutexQueue.html" target="_top" xlink:title=" ">
<polygon fill="white" stroke="black" points="386,-507.5 386,-526.5 472,-526.5 472,-507.5 386,-507.5"/>
<text text-anchor="middle" x="429" y="-514.5" font-family="Helvetica,sans-Serif" font-size="10.00">OSMutexQueue</text>
</a>
</g>
</g>
<!-- Node5&#45;&gt;Node19 -->
<g id="edge31" class="edge">
<title>Node5&#45;&gt;Node19</title>
<path fill="none" stroke="#9a32cd" stroke-dasharray="5,2" d="M207.76,-484.56C255.16,-491.54 336.25,-503.49 385.69,-510.77"/>
<polygon fill="#9a32cd" stroke="#9a32cd" points="208.01,-481.06 197.61,-483.07 206.99,-487.99 208.01,-481.06"/>
<text text-anchor="middle" x="281.5" y="-517" font-family="Helvetica,sans-Serif" font-size="10.00"> next</text>
<text text-anchor="middle" x="281.5" y="-506" font-family="Helvetica,sans-Serif" font-size="10.00">prev</text>
</g>
<!-- Node6 -->
<g id="node6" class="node">
<title>Node6</title>
<g id="a_node6"><a xlink:href="classJSUTree.html" target="_top" xlink:title=" ">
<polygon fill="white" stroke="black" points="660,-317.5 660,-336.5 774,-336.5 774,-317.5 660,-317.5"/>
<text text-anchor="middle" x="717" y="-324.5" font-family="Helvetica,sans-Serif" font-size="10.00">JSUTree&lt; JKRHeap &gt;</text>
</a>
</g>
</g>
<!-- Node6&#45;&gt;Node4 -->
<g id="edge7" class="edge">
<title>Node6&#45;&gt;Node4</title>
<path fill="none" stroke="#9a32cd" stroke-dasharray="5,2" d="M784.1,-319.84C822.37,-315.56 871.45,-309.83 915,-304 931.88,-301.74 950.73,-298.91 965.83,-296.57"/>
<polygon fill="#9a32cd" stroke="#9a32cd" points="783.66,-316.37 774.11,-320.96 784.43,-323.33 783.66,-316.37"/>
<text text-anchor="middle" x="853.5" y="-321" font-family="Helvetica,sans-Serif" font-size="10.00"> mChildTree</text>
</g>
<!-- Node7 -->
<g id="node7" class="node">
<title>Node7</title>
<g id="a_node7"><a xlink:href="structJSUList.html" target="_top" xlink:title=" ">
<polygon fill="white" stroke="black" points="226,-317.5 226,-336.5 337,-336.5 337,-317.5 226,-317.5"/>
<text text-anchor="middle" x="281.5" y="-324.5" font-family="Helvetica,sans-Serif" font-size="10.00">JSUList&lt; JKRHeap &gt;</text>
</a>
</g>
</g>
<!-- Node7&#45;&gt;Node6 -->
<g id="edge8" class="edge">
<title>Node7&#45;&gt;Node6</title>
<path fill="none" stroke="midnightblue" d="M347.43,-327C432.3,-327 579.54,-327 659.83,-327"/>
<polygon fill="midnightblue" stroke="midnightblue" points="347.4,-323.5 337.4,-327 347.4,-330.5 347.4,-323.5"/>
</g>
<!-- Node8 -->
<g id="node8" class="node">
<title>Node8</title>
<g id="a_node8"><a xlink:href="structJSUPtrList.html" target="_top" xlink:title=" ">
<polygon fill="white" stroke="black" points="0,-246.5 0,-265.5 65,-265.5 65,-246.5 0,-246.5"/>
<text text-anchor="middle" x="32.5" y="-253.5" font-family="Helvetica,sans-Serif" font-size="10.00">JSUPtrList</text>
</a>
</g>
</g>
<!-- Node8&#45;&gt;Node7 -->
<g id="edge9" class="edge">
<title>Node8&#45;&gt;Node7</title>
<path fill="none" stroke="midnightblue" d="M47.01,-273.57C56.02,-283.94 68.79,-296.31 83,-303 127.84,-324.12 184.47,-329.1 225.58,-329.41"/>
<polygon fill="midnightblue" stroke="midnightblue" points="49.7,-271.33 40.64,-265.84 44.3,-275.78 49.7,-271.33"/>
</g>
<!-- Node9 -->
<g id="node9" class="node">
<title>Node9</title>
<g id="a_node9"><a xlink:href="structJSUPtrLink.html" target="_top" xlink:title=" ">
<polygon fill="white" stroke="black" points="135,-201.5 135,-220.5 203,-220.5 203,-201.5 135,-201.5"/>
<text text-anchor="middle" x="169" y="-208.5" font-family="Helvetica,sans-Serif" font-size="10.00">JSUPtrLink</text>
</a>
</g>
</g>
<!-- Node8&#45;&gt;Node9 -->
<g id="edge11" class="edge">
<title>Node8&#45;&gt;Node9</title>
<path fill="none" stroke="#9a32cd" stroke-dasharray="5,2" d="M75.18,-246.47C88.67,-243 103.6,-238.75 117,-234 127.8,-230.17 139.48,-224.99 148.94,-220.51"/>
<polygon fill="#9a32cd" stroke="#9a32cd" points="74.05,-243.14 65.2,-248.96 75.75,-249.93 74.05,-243.14"/>
<text text-anchor="middle" x="100" y="-247" font-family="Helvetica,sans-Serif" font-size="10.00"> mList</text>
</g>
<!-- Node11 -->
<g id="node11" class="node">
<title>Node11</title>
<g id="a_node11"><a xlink:href="structJSUList.html" target="_top" xlink:title=" ">
<polygon fill="white" stroke="black" points="516,-279.5 516,-298.5 642,-298.5 642,-279.5 516,-279.5"/>
<text text-anchor="middle" x="579" y="-286.5" font-family="Helvetica,sans-Serif" font-size="10.00">JSUList&lt; JKRDisposer &gt;</text>
</a>
</g>
</g>
<!-- Node8&#45;&gt;Node11 -->
<g id="edge16" class="edge">
<title>Node8&#45;&gt;Node11</title>
<path fill="none" stroke="midnightblue" d="M75.44,-262.69C93.7,-265.37 115.36,-268.23 135,-270 270.51,-282.22 430.08,-286.63 515.88,-288.18"/>
<polygon fill="midnightblue" stroke="midnightblue" points="75.82,-259.21 65.41,-261.19 74.78,-266.13 75.82,-259.21"/>
</g>
<!-- Node29 -->
<g id="node29" class="node">
<title>Node29</title>
<g id="a_node29"><a xlink:href="structJSUList.html" target="_top" xlink:title=" ">
<polygon fill="white" stroke="black" points="221,-96.5 221,-115.5 342,-115.5 342,-96.5 221,-96.5"/>
<text text-anchor="middle" x="281.5" y="-103.5" font-family="Helvetica,sans-Serif" font-size="10.00">JSUList&lt; JKRDvdFile &gt;</text>
</a>
</g>
</g>
<!-- Node8&#45;&gt;Node29 -->
<g id="edge48" class="edge">
<title>Node8&#45;&gt;Node29</title>
<path fill="none" stroke="midnightblue" d="M47.06,-238.15C56.36,-226.66 69.43,-211.89 83,-201 137.95,-156.91 156.01,-150.2 221,-123 227.64,-120.22 234.88,-117.73 241.95,-115.57"/>
<polygon fill="midnightblue" stroke="midnightblue" points="44.17,-236.15 40.74,-246.18 49.67,-240.48 44.17,-236.15"/>
</g>
<!-- Node9&#45;&gt;Node8 -->
<g id="edge10" class="edge">
<title>Node9&#45;&gt;Node8</title>
<path fill="none" stroke="#9a32cd" stroke-dasharray="5,2" d="M124.52,-205.68C110.84,-205.53 95.94,-206.99 83,-212 64.98,-218.97 49.3,-235.74 40.64,-246.45"/>
<polygon fill="#9a32cd" stroke="#9a32cd" points="124.56,-209.18 134.69,-206.08 124.83,-202.19 124.56,-209.18"/>
<text text-anchor="middle" x="100" y="-226" font-family="Helvetica,sans-Serif" font-size="10.00"> mHead</text>
<text text-anchor="middle" x="100" y="-215" font-family="Helvetica,sans-Serif" font-size="10.00">mTail</text>
</g>
<!-- Node9&#45;&gt;Node9 -->
<g id="edge12" class="edge">
<title>Node9&#45;&gt;Node9</title>
<path fill="none" stroke="#9a32cd" stroke-dasharray="5,2" d="M156.48,-230.77C157.46,-235.5 161.64,-239 169,-239 181.09,-239 184.58,-229.57 179.48,-220.76"/>
<polygon fill="#9a32cd" stroke="#9a32cd" points="159.95,-231.25 158.52,-220.76 153.09,-229.86 159.95,-231.25"/>
<text text-anchor="middle" x="169" y="-253" font-family="Helvetica,sans-Serif" font-size="10.00"> mNext</text>
<text text-anchor="middle" x="169" y="-242" font-family="Helvetica,sans-Serif" font-size="10.00">mPrev</text>
</g>
<!-- Node10 -->
<g id="node10" class="node">
<title>Node10</title>
<g id="a_node10"><a xlink:href="structJSULink.html" target="_top" xlink:title=" ">
<polygon fill="white" stroke="black" points="372.5,-241.5 372.5,-260.5 485.5,-260.5 485.5,-241.5 372.5,-241.5"/>
<text text-anchor="middle" x="429" y="-248.5" font-family="Helvetica,sans-Serif" font-size="10.00">JSULink&lt; JKRHeap &gt;</text>
</a>
</g>
</g>
<!-- Node9&#45;&gt;Node10 -->
<g id="edge14" class="edge">
<title>Node9&#45;&gt;Node10</title>
<path fill="none" stroke="midnightblue" d="M211.79,-222.99C214.9,-223.72 217.99,-224.4 221,-225 271.8,-235.11 330.44,-242.04 372.3,-246.18"/>
<polygon fill="midnightblue" stroke="midnightblue" points="212.49,-219.55 201.94,-220.52 210.79,-226.34 212.49,-219.55"/>
</g>
<!-- Node12 -->
<g id="node12" class="node">
<title>Node12</title>
<g id="a_node12"><a xlink:href="structJSULink.html" target="_top" xlink:title=" ">
<polygon fill="white" stroke="black" points="365,-203.5 365,-222.5 493,-222.5 493,-203.5 365,-203.5"/>
<text text-anchor="middle" x="429" y="-210.5" font-family="Helvetica,sans-Serif" font-size="10.00">JSULink&lt; JKRDisposer &gt;</text>
</a>
</g>
</g>
<!-- Node9&#45;&gt;Node12 -->
<g id="edge18" class="edge">
<title>Node9&#45;&gt;Node12</title>
<path fill="none" stroke="midnightblue" d="M213.25,-211.34C254.69,-211.66 317.71,-212.15 364.78,-212.51"/>
<polygon fill="midnightblue" stroke="midnightblue" points="213.23,-207.84 203.2,-211.26 213.17,-214.83 213.23,-207.84"/>
</g>
<!-- Node14 -->
<g id="node14" class="node">
<title>Node14</title>
<g id="a_node14"><a xlink:href="structJSULink.html" target="_top" xlink:title=" ">
<polygon fill="white" stroke="black" points="360,-165.5 360,-184.5 498,-184.5 498,-165.5 360,-165.5"/>
<text text-anchor="middle" x="429" y="-172.5" font-family="Helvetica,sans-Serif" font-size="10.00">JSULink&lt; JKRAramBlock &gt;</text>
</a>
</g>
</g>
<!-- Node9&#45;&gt;Node14 -->
<g id="edge22" class="edge">
<title>Node9&#45;&gt;Node14</title>
<path fill="none" stroke="midnightblue" d="M213.17,-204.98C253.18,-199.39 313.36,-191 359.86,-184.51"/>
<polygon fill="midnightblue" stroke="midnightblue" points="212.62,-201.52 203.2,-206.37 213.59,-208.45 212.62,-201.52"/>
</g>
<!-- Node28 -->
<g id="node28" class="node">
<title>Node28</title>
<g id="a_node28"><a xlink:href="structJSULink.html" target="_top" xlink:title=" ">
<polygon fill="white" stroke="black" points="792,-127.5 792,-146.5 915,-146.5 915,-127.5 792,-127.5"/>
<text text-anchor="middle" x="853.5" y="-134.5" font-family="Helvetica,sans-Serif" font-size="10.00">JSULink&lt; JKRDvdFile &gt;</text>
</a>
</g>
</g>
<!-- Node9&#45;&gt;Node28 -->
<g id="edge46" class="edge">
<title>Node9&#45;&gt;Node28</title>
<path fill="none" stroke="midnightblue" d="M193.45,-196.13C201.88,-191.34 211.61,-186.39 221,-183 280.18,-161.6 297.48,-163.23 360,-156 514.91,-138.07 698.87,-136.04 792,-136.36"/>
<polygon fill="midnightblue" stroke="midnightblue" points="191.41,-193.28 184.6,-201.39 194.98,-199.3 191.41,-193.28"/>
</g>
<!-- Node10&#45;&gt;Node6 -->
<g id="edge13" class="edge">
<title>Node10&#45;&gt;Node6</title>
<path fill="none" stroke="midnightblue" d="M495.82,-243.82C540.34,-242.22 598.69,-246.74 642,-274 654.84,-282.08 648.5,-293.11 660,-303 667.06,-309.07 675.88,-313.8 684.42,-317.4"/>
<polygon fill="midnightblue" stroke="midnightblue" points="495.5,-240.33 485.68,-244.3 495.83,-247.32 495.5,-240.33"/>
</g>
<!-- Node11&#45;&gt;Node4 -->
<g id="edge15" class="edge">
<title>Node11&#45;&gt;Node4</title>
<path fill="none" stroke="#9a32cd" stroke-dasharray="5,2" d="M652.21,-289.52C744.94,-290.19 901.57,-291.33 965.76,-291.79"/>
<polygon fill="#9a32cd" stroke="#9a32cd" points="652.08,-286.02 642.05,-289.45 652.03,-293.02 652.08,-286.02"/>
<text text-anchor="middle" x="717" y="-293" font-family="Helvetica,sans-Serif" font-size="10.00"> mDisposerList</text>
</g>
<!-- Node12&#45;&gt;Node3 -->
<g id="edge17" class="edge">
<title>Node12&#45;&gt;Node3</title>
<path fill="none" stroke="#9a32cd" stroke-dasharray="5,2" d="M503.43,-217.36C559.9,-220.72 635.51,-225.22 679.67,-227.84"/>
<polygon fill="#9a32cd" stroke="#9a32cd" points="503.31,-213.85 493.12,-216.75 502.89,-220.84 503.31,-213.85"/>
<text text-anchor="middle" x="579" y="-228" font-family="Helvetica,sans-Serif" font-size="10.00"> mLink</text>
</g>
<!-- Node13 -->
<g id="node13" class="node">
<title>Node13</title>
<g id="a_node13"><a xlink:href="classJKRAramBlock.html" target="_top" xlink:title=" ">
<polygon fill="white" stroke="black" points="1076,-173.5 1076,-192.5 1159,-192.5 1159,-173.5 1076,-173.5"/>
<text text-anchor="middle" x="1117.5" y="-180.5" font-family="Helvetica,sans-Serif" font-size="10.00">JKRAramBlock</text>
</a>
</g>
</g>
<!-- Node13&#45;&gt;Node1 -->
<g id="edge20" class="edge">
<title>Node13&#45;&gt;Node1</title>
<path fill="none" stroke="#9a32cd" stroke-dasharray="5,2" d="M1169.33,-184.94C1223.25,-187.65 1310.73,-193.94 1385,-208 1391.31,-209.2 1397.99,-210.78 1404.36,-212.46"/>
<polygon fill="#9a32cd" stroke="#9a32cd" points="1169.17,-181.43 1159.01,-184.44 1168.83,-188.42 1169.17,-181.43"/>
<text text-anchor="middle" x="1229.5" y="-196" font-family="Helvetica,sans-Serif" font-size="10.00"> mBlock</text>
</g>
<!-- Node14&#45;&gt;Node13 -->
<g id="edge21" class="edge">
<title>Node14&#45;&gt;Node13</title>
<path fill="none" stroke="#9a32cd" stroke-dasharray="5,2" d="M508.27,-175.91C654.61,-177.62 964.9,-181.23 1075.93,-182.53"/>
<polygon fill="#9a32cd" stroke="#9a32cd" points="508.06,-172.41 498.02,-175.79 507.98,-179.41 508.06,-172.41"/>
<text text-anchor="middle" x="717" y="-182" font-family="Helvetica,sans-Serif" font-size="10.00"> mBlockLink</text>
</g>
<!-- Node15&#45;&gt;Node1 -->
<g id="edge23" class="edge">
<title>Node15&#45;&gt;Node1</title>
<path fill="none" stroke="#9a32cd" stroke-dasharray="5,2" d="M735.91,-525.59C750.03,-513.72 770.81,-498.51 792,-491 854.29,-468.93 1334.96,-488.16 1385,-445 1418.23,-416.34 1432.09,-270.97 1435.26,-231.76"/>
<polygon fill="#9a32cd" stroke="#9a32cd" points="733.28,-523.24 728.04,-532.44 737.88,-528.52 733.28,-523.24"/>
<text text-anchor="middle" x="1117.5" y="-490" font-family="Helvetica,sans-Serif" font-size="10.00"> field_0x50</text>
<text text-anchor="middle" x="1117.5" y="-479" font-family="Helvetica,sans-Serif" font-size="10.00">mOSThread</text>
</g>
<!-- Node17 -->
<g id="node17" class="node">
<title>Node17</title>
<g id="a_node17"><a xlink:href="structOSThreadQueue.html" target="_top" xlink:title=" ">
<polygon fill="white" stroke="black" points="951,-504.5 951,-523.5 1040,-523.5 1040,-504.5 951,-504.5"/>
<text text-anchor="middle" x="995.5" y="-511.5" font-family="Helvetica,sans-Serif" font-size="10.00">OSThreadQueue</text>
</a>
</g>
</g>
<!-- Node15&#45;&gt;Node17 -->
<g id="edge26" class="edge">
<title>Node15&#45;&gt;Node17</title>
<path fill="none" stroke="#9a32cd" stroke-dasharray="5,2" d="M757.85,-539.17C797.69,-536.19 860.67,-531.1 915,-525 926.63,-523.69 939.19,-522.06 950.81,-520.46"/>
<polygon fill="#9a32cd" stroke="#9a32cd" points="757.47,-535.68 747.75,-539.91 757.98,-542.67 757.47,-535.68"/>
<text text-anchor="middle" x="853.5" y="-550" font-family="Helvetica,sans-Serif" font-size="10.00"> head</text>
<text text-anchor="middle" x="853.5" y="-539" font-family="Helvetica,sans-Serif" font-size="10.00">tail</text>
</g>
<!-- Node18 -->
<g id="node18" class="node">
<title>Node18</title>
<g id="a_node18"><a xlink:href="structOSThreadLink.html" target="_top" xlink:title=" ">
<polygon fill="white" stroke="black" points="955.5,-604.5 955.5,-623.5 1035.5,-623.5 1035.5,-604.5 955.5,-604.5"/>
<text text-anchor="middle" x="995.5" y="-611.5" font-family="Helvetica,sans-Serif" font-size="10.00">OSThreadLink</text>
</a>
</g>
</g>
<!-- Node15&#45;&gt;Node18 -->
<g id="edge28" class="edge">
<title>Node15&#45;&gt;Node18</title>
<path fill="none" stroke="#9a32cd" stroke-dasharray="5,2" d="M729.92,-560.16C742.8,-577.96 765.13,-603.98 792,-615 845.18,-636.82 913.03,-630.36 955.12,-622.84"/>
<polygon fill="#9a32cd" stroke="#9a32cd" points="732.64,-557.95 724.07,-551.72 726.89,-561.94 732.64,-557.95"/>
<text text-anchor="middle" x="853.5" y="-643" font-family="Helvetica,sans-Serif" font-size="10.00"> next</text>
<text text-anchor="middle" x="853.5" y="-632" font-family="Helvetica,sans-Serif" font-size="10.00">prev</text>
</g>
<!-- Node16 -->
<g id="node16" class="node">
<title>Node16</title>
<g id="a_node16"><a xlink:href="structOSContext.html" target="_top" xlink:title=" ">
<polygon fill="white" stroke="black" points="397,-469.5 397,-488.5 461,-488.5 461,-469.5 397,-469.5"/>
<text text-anchor="middle" x="429" y="-476.5" font-family="Helvetica,sans-Serif" font-size="10.00">OSContext</text>
</a>
</g>
</g>
<!-- Node16&#45;&gt;Node15 -->
<g id="edge24" class="edge">
<title>Node16&#45;&gt;Node15</title>
<path fill="none" stroke="#9a32cd" stroke-dasharray="5,2" d="M471.21,-481.8C514.42,-485.48 583.99,-493.53 642,-510 661.66,-515.58 682.96,-525.21 697.64,-532.44"/>
<polygon fill="#9a32cd" stroke="#9a32cd" points="471.33,-478.3 461.08,-480.98 470.76,-485.28 471.33,-478.3"/>
<text text-anchor="middle" x="579" y="-513" font-family="Helvetica,sans-Serif" font-size="10.00"> context</text>
</g>
<!-- Node17&#45;&gt;Node15 -->
<g id="edge25" class="edge">
<title>Node17&#45;&gt;Node15</title>
<path fill="none" stroke="#9a32cd" stroke-dasharray="5,2" d="M941.68,-502.75C900.35,-495.93 841.73,-490.7 792,-503 769.16,-508.65 745.6,-522.77 731.37,-532.37"/>
<polygon fill="#9a32cd" stroke="#9a32cd" points="941.09,-506.19 951.54,-504.45 942.28,-499.3 941.09,-506.19"/>
<text text-anchor="middle" x="853.5" y="-517" font-family="Helvetica,sans-Serif" font-size="10.00"> join_queue</text>
<text text-anchor="middle" x="853.5" y="-506" font-family="Helvetica,sans-Serif" font-size="10.00">queue</text>
</g>
<!-- Node27 -->
<g id="node27" class="node">
<title>Node27</title>
<g id="a_node27"><a xlink:href="structOSMessageQueue.html" target="_top" xlink:title=" ">
<polygon fill="white" stroke="black" points="1180,-501.5 1180,-520.5 1279,-520.5 1279,-501.5 1180,-501.5"/>
<text text-anchor="middle" x="1229.5" y="-508.5" font-family="Helvetica,sans-Serif" font-size="10.00">OSMessageQueue</text>
</a>
</g>
</g>
<!-- Node17&#45;&gt;Node27 -->
<g id="edge44" class="edge">
<title>Node17&#45;&gt;Node27</title>
<path fill="none" stroke="#9a32cd" stroke-dasharray="5,2" d="M1050.29,-513.3C1089.42,-512.8 1141.96,-512.12 1179.85,-511.63"/>
<polygon fill="#9a32cd" stroke="#9a32cd" points="1050.09,-509.81 1040.14,-513.44 1050.18,-516.81 1050.09,-509.81"/>
<text text-anchor="middle" x="1117.5" y="-526" font-family="Helvetica,sans-Serif" font-size="10.00"> receiving_queue</text>
<text text-anchor="middle" x="1117.5" y="-515" font-family="Helvetica,sans-Serif" font-size="10.00">sending_queue</text>
</g>
<!-- Node18&#45;&gt;Node15 -->
<g id="edge27" class="edge">
<title>Node18&#45;&gt;Node15</title>
<path fill="none" stroke="#9a32cd" stroke-dasharray="5,2" d="M948.64,-601.79C937.63,-598.89 925.9,-595.81 915,-593 860.41,-578.91 846.55,-576.24 792,-562 777.45,-558.2 761.33,-553.86 747.85,-550.19"/>
<polygon fill="#9a32cd" stroke="#9a32cd" points="947.95,-605.23 958.51,-604.4 949.74,-598.46 947.95,-605.23"/>
<text text-anchor="middle" x="853.5" y="-607" font-family="Helvetica,sans-Serif" font-size="10.00"> active_threads_link</text>
<text text-anchor="middle" x="853.5" y="-596" font-family="Helvetica,sans-Serif" font-size="10.00">link</text>
</g>
<!-- Node19&#45;&gt;Node15 -->
<g id="edge30" class="edge">
<title>Node19&#45;&gt;Node15</title>
<path fill="none" stroke="#9a32cd" stroke-dasharray="5,2" d="M482.21,-521.56C542.05,-526.79 638.07,-535.19 686.31,-539.4"/>
<polygon fill="#9a32cd" stroke="#9a32cd" points="482.47,-518.07 472.2,-520.69 481.86,-525.05 482.47,-518.07"/>
<text text-anchor="middle" x="579" y="-538" font-family="Helvetica,sans-Serif" font-size="10.00"> owned_mutexes</text>
</g>
<!-- Node20&#45;&gt;Node1 -->
<g id="edge32" class="edge">
<title>Node20&#45;&gt;Node1</title>
<path fill="none" stroke="#9a32cd" stroke-dasharray="5,2" d="M1292.44,-252.02C1320.79,-247.95 1354.74,-242.48 1385,-236 1391.02,-234.71 1397.38,-233.14 1403.49,-231.52"/>
<polygon fill="#9a32cd" stroke="#9a32cd" points="1291.68,-248.59 1282.27,-253.46 1292.66,-255.53 1291.68,-248.59"/>
<text text-anchor="middle" x="1342.5" y="-253" font-family="Helvetica,sans-Serif" font-size="10.00"> mFileStream</text>
</g>
<!-- Node21 -->
<g id="node21" class="node">
<title>Node21</title>
<g id="a_node21"><a xlink:href="classJSURandomInputStream.html" target="_top" xlink:title=" ">
<polygon fill="white" stroke="black" points="933,-382.5 933,-401.5 1058,-401.5 1058,-382.5 933,-382.5"/>
<text text-anchor="middle" x="995.5" y="-389.5" font-family="Helvetica,sans-Serif" font-size="10.00">JSURandomInputStream</text>
</a>
</g>
</g>
<!-- Node21&#45;&gt;Node20 -->
<g id="edge33" class="edge">
<title>Node21&#45;&gt;Node20</title>
<path fill="none" stroke="midnightblue" d="M1026.48,-378.01C1036.58,-373.13 1047.87,-367.49 1058,-362 1116.53,-330.29 1183.72,-288.42 1213.24,-269.73"/>
<polygon fill="midnightblue" stroke="midnightblue" points="1024.74,-374.96 1017.22,-382.43 1027.75,-381.28 1024.74,-374.96"/>
</g>
<!-- Node22 -->
<g id="node22" class="node">
<title>Node22</title>
<g id="a_node22"><a xlink:href="structJSUInputStream.html" target="_top" xlink:title=" ">
<polygon fill="white" stroke="black" points="672.5,-393.5 672.5,-412.5 761.5,-412.5 761.5,-393.5 672.5,-393.5"/>
<text text-anchor="middle" x="717" y="-400.5" font-family="Helvetica,sans-Serif" font-size="10.00">JSUInputStream</text>
</a>
</g>
</g>
<!-- Node22&#45;&gt;Node21 -->
<g id="edge34" class="edge">
<title>Node22&#45;&gt;Node21</title>
<path fill="none" stroke="midnightblue" d="M771.61,-400.87C817.77,-399.03 884.39,-396.38 932.76,-394.46"/>
<polygon fill="midnightblue" stroke="midnightblue" points="771.36,-397.37 761.51,-401.27 771.64,-404.37 771.36,-397.37"/>
</g>
<!-- Node23 -->
<g id="node23" class="node">
<title>Node23</title>
<g id="a_node23"><a xlink:href="classJSUIosBase.html" target="_top" xlink:title=" ">
<polygon fill="white" stroke="black" points="393,-393.5 393,-412.5 465,-412.5 465,-393.5 393,-393.5"/>
<text text-anchor="middle" x="429" y="-400.5" font-family="Helvetica,sans-Serif" font-size="10.00">JSUIosBase</text>
</a>
</g>
</g>
<!-- Node23&#45;&gt;Node22 -->
<g id="edge35" class="edge">
<title>Node23&#45;&gt;Node22</title>
<path fill="none" stroke="midnightblue" d="M475.37,-403C529.38,-403 618.92,-403 672.21,-403"/>
<polygon fill="midnightblue" stroke="midnightblue" points="475.07,-399.5 465.07,-403 475.07,-406.5 475.07,-399.5"/>
</g>
<!-- Node24 -->
<g id="node24" class="node">
<title>Node24</title>
<g id="a_node24"><a xlink:href="structDVDFileInfo.html" target="_top" xlink:title=" ">
<polygon fill="white" stroke="black" points="1195,-17.5 1195,-36.5 1264,-36.5 1264,-17.5 1195,-17.5"/>
<text text-anchor="middle" x="1229.5" y="-24.5" font-family="Helvetica,sans-Serif" font-size="10.00">DVDFileInfo</text>
</a>
</g>
</g>
<!-- Node24&#45;&gt;Node1 -->
<g id="edge37" class="edge">
<title>Node24&#45;&gt;Node1</title>
<path fill="none" stroke="#9a32cd" stroke-dasharray="5,2" d="M1274.35,-29.72C1308.62,-34.1 1355.28,-45.34 1385,-74 1425.7,-113.23 1433.93,-186.42 1435.59,-212.48"/>
<polygon fill="#9a32cd" stroke="#9a32cd" points="1274.48,-26.22 1264.15,-28.57 1273.69,-33.17 1274.48,-26.22"/>
<text text-anchor="middle" x="1342.5" y="-77" font-family="Helvetica,sans-Serif" font-size="10.00"> mFileInfo</text>
</g>
<!-- Node24&#45;&gt;Node24 -->
<g id="edge41" class="edge">
<title>Node24&#45;&gt;Node24</title>
<path fill="none" stroke="#9a32cd" stroke-dasharray="5,2" d="M1208.76,-46.4C1210.15,-51.31 1217.06,-55 1229.5,-55 1249.41,-55 1255.16,-45.57 1246.76,-36.76"/>
<polygon fill="#9a32cd" stroke="#9a32cd" points="1212.14,-47.35 1212.24,-36.76 1205.55,-44.98 1212.14,-47.35"/>
<text text-anchor="middle" x="1229.5" y="-58" font-family="Helvetica,sans-Serif" font-size="10.00"> callback</text>
</g>
<!-- Node25 -->
<g id="node25" class="node">
<title>Node25</title>
<g id="a_node25"><a xlink:href="structDVDCommandBlock.html" target="_top" xlink:title=" ">
<polygon fill="white" stroke="black" points="942.5,-0.5 942.5,-19.5 1048.5,-19.5 1048.5,-0.5 942.5,-0.5"/>
<text text-anchor="middle" x="995.5" y="-7.5" font-family="Helvetica,sans-Serif" font-size="10.00">DVDCommandBlock</text>
</a>
</g>
</g>
<!-- Node25&#45;&gt;Node24 -->
<g id="edge38" class="edge">
<title>Node25&#45;&gt;Node24</title>
<path fill="none" stroke="#9a32cd" stroke-dasharray="5,2" d="M1058.54,-14.55C1102.33,-17.75 1159.31,-21.93 1194.9,-24.54"/>
<polygon fill="#9a32cd" stroke="#9a32cd" points="1058.79,-11.06 1048.57,-13.82 1058.28,-18.04 1058.79,-11.06"/>
<text text-anchor="middle" x="1117.5" y="-25" font-family="Helvetica,sans-Serif" font-size="10.00"> block</text>
</g>
<!-- Node25&#45;&gt;Node25 -->
<g id="edge39" class="edge">
<title>Node25&#45;&gt;Node25</title>
<path fill="none" stroke="#9a32cd" stroke-dasharray="5,2" d="M972.81,-29.03C974.04,-34.13 981.61,-38 995.5,-38 1017.18,-38 1023.45,-28.57 1014.3,-19.76"/>
<polygon fill="#9a32cd" stroke="#9a32cd" points="976.06,-30.33 976.7,-19.76 969.6,-27.62 976.06,-30.33"/>
<text text-anchor="middle" x="995.5" y="-63" font-family="Helvetica,sans-Serif" font-size="10.00"> callback</text>
<text text-anchor="middle" x="995.5" y="-52" font-family="Helvetica,sans-Serif" font-size="10.00">next</text>
<text text-anchor="middle" x="995.5" y="-41" font-family="Helvetica,sans-Serif" font-size="10.00">prev</text>
</g>
<!-- Node26 -->
<g id="node26" class="node">
<title>Node26</title>
<g id="a_node26"><a xlink:href="structDVDDiskID.html" target="_top" xlink:title=" ">
<polygon fill="white" stroke="black" points="684,-0.5 684,-19.5 750,-19.5 750,-0.5 684,-0.5"/>
<text text-anchor="middle" x="717" y="-7.5" font-family="Helvetica,sans-Serif" font-size="10.00">DVDDiskID</text>
</a>
</g>
</g>
<!-- Node26&#45;&gt;Node25 -->
<g id="edge40" class="edge">
<title>Node26&#45;&gt;Node25</title>
<path fill="none" stroke="#9a32cd" stroke-dasharray="5,2" d="M760.5,-10C809.43,-10 889.81,-10 942.44,-10"/>
<polygon fill="#9a32cd" stroke="#9a32cd" points="760.26,-6.5 750.26,-10 760.26,-13.5 760.26,-6.5"/>
<text text-anchor="middle" x="853.5" y="-13" font-family="Helvetica,sans-Serif" font-size="10.00"> disk_id</text>
</g>
<!-- Node27&#45;&gt;Node1 -->
<g id="edge43" class="edge">
<title>Node27&#45;&gt;Node1</title>
<path fill="none" stroke="#9a32cd" stroke-dasharray="5,2" d="M1289.36,-515.37C1321.73,-514.47 1360.22,-507.44 1385,-483 1421.81,-446.69 1433.25,-274.09 1435.53,-231.51"/>
<polygon fill="#9a32cd" stroke="#9a32cd" points="1289.06,-511.87 1279.09,-515.46 1289.12,-518.87 1289.06,-511.87"/>
<text text-anchor="middle" x="1342.5" y="-528" font-family="Helvetica,sans-Serif" font-size="10.00"> mMessageQueue1</text>
<text text-anchor="middle" x="1342.5" y="-517" font-family="Helvetica,sans-Serif" font-size="10.00">mMessageQueue2</text>
</g>
<!-- Node28&#45;&gt;Node1 -->
<g id="edge45" class="edge">
<title>Node28&#45;&gt;Node1</title>
<path fill="none" stroke="#9a32cd" stroke-dasharray="5,2" d="M925.28,-133.09C1029.46,-129.78 1228.62,-132.78 1385,-191 1398.98,-196.21 1413.37,-205.36 1423.29,-212.38"/>
<polygon fill="#9a32cd" stroke="#9a32cd" points="925.07,-129.6 915.2,-133.44 925.31,-136.6 925.07,-129.6"/>
<text text-anchor="middle" x="1117.5" y="-143" font-family="Helvetica,sans-Serif" font-size="10.00"> mDvdLink</text>
</g>
<!-- Node29&#45;&gt;Node1 -->
<g id="edge47" class="edge">
<title>Node29&#45;&gt;Node1</title>
<path fill="none" stroke="#9a32cd" stroke-dasharray="5,2" d="M352.3,-103.41C412.17,-101.42 500.75,-99 578,-99 578,-99 578,-99 1230.5,-99 1304.66,-99 1324.94,-118.51 1385,-162 1404.49,-176.11 1421.29,-199.18 1429.88,-212.22"/>
<polygon fill="#9a32cd" stroke="#9a32cd" points="352.08,-99.92 342.2,-103.76 352.31,-106.92 352.08,-99.92"/>
<text text-anchor="middle" x="853.5" y="-102" font-family="Helvetica,sans-Serif" font-size="10.00"> sDvdList</text>
</g>
</g>
</svg>
