<?xml version="1.0" encoding="UTF-8" standalone="no"?>
<!DOCTYPE svg PUBLIC "-//W3C//DTD SVG 1.1//EN"
 "http://www.w3.org/Graphics/SVG/1.1/DTD/svg11.dtd">
<!-- Generated by graphviz version 3.0.0 (20221109.1736)
 -->
<!-- Title: JStudio::TVariableValue Pages: 1 -->
<svg width="268pt" height="106pt"
 viewBox="0.00 0.00 268.00 106.00" xmlns="http://www.w3.org/2000/svg" xmlns:xlink="http://www.w3.org/1999/xlink">
<g id="graph0" class="graph" transform="scale(1 1) rotate(0) translate(4 102)">
<title>JStudio::TVariableValue</title>
<polygon fill="white" stroke="transparent" points="-4,4 -4,-102 264,-102 264,4 -4,4"/>
<!-- Node1 -->
<g id="node1" class="node">
<title>Node1</title>
<g id="a_node1"><a xlink:title=" ">
<polygon fill="#bfbfbf" stroke="black" points="70,-0.5 70,-19.5 190,-19.5 190,-0.5 70,-0.5"/>
<text text-anchor="middle" x="130" y="-7.5" font-family="Helvetica,sans-Serif" font-size="10.00">JStudio::TVariableValue</text>
</a>
</g>
</g>
<!-- Node2 -->
<g id="node2" class="node">
<title>Node2</title>
<g id="a_node2"><a xlink:href="classJStudio_1_1TFunctionValue.html" target="_top" xlink:title=" ">
<polygon fill="white" stroke="black" points="0,-73 0,-92 122,-92 122,-73 0,-73"/>
<text text-anchor="middle" x="61" y="-80" font-family="Helvetica,sans-Serif" font-size="10.00">JStudio::TFunctionValue</text>
</a>
</g>
</g>
<!-- Node2&#45;&gt;Node1 -->
<g id="edge1" class="edge">
<title>Node2&#45;&gt;Node1</title>
<path fill="none" stroke="#9a32cd" stroke-dasharray="5,2" d="M76.47,-65.69C90.37,-51.49 110.26,-31.17 121.47,-19.72"/>
<polygon fill="#9a32cd" stroke="#9a32cd" points="73.95,-63.26 69.46,-72.86 78.96,-68.16 73.95,-63.26"/>
<text text-anchor="middle" x="122" y="-41" font-family="Helvetica,sans-Serif" font-size="10.00"> field_0xc</text>
</g>
<!-- Node3 -->
<g id="node3" class="node">
<title>Node3</title>
<g id="a_node3"><a xlink:href="structJStudio_1_1TVariableValue_1_1TOutput.html" target="_top" xlink:title=" ">
<polygon fill="white" stroke="black" points="140,-67.5 140,-97.5 260,-97.5 260,-67.5 140,-67.5"/>
<text text-anchor="start" x="148" y="-85.5" font-family="Helvetica,sans-Serif" font-size="10.00">JStudio::TVariableValue</text>
<text text-anchor="middle" x="200" y="-74.5" font-family="Helvetica,sans-Serif" font-size="10.00">::TOutput</text>
</a>
</g>
</g>
<!-- Node3&#45;&gt;Node1 -->
<g id="edge2" class="edge">
<title>Node3&#45;&gt;Node1</title>
<path fill="none" stroke="#9a32cd" stroke-dasharray="5,2" d="M178.79,-60.14C165.4,-46.65 148.81,-29.94 138.83,-19.89"/>
<polygon fill="#9a32cd" stroke="#9a32cd" points="176.3,-62.6 185.83,-67.23 181.27,-57.67 176.3,-62.6"/>
<text text-anchor="middle" x="188.5" y="-41" font-family="Helvetica,sans-Serif" font-size="10.00"> pOutput_</text>
</g>
</g>
</svg>
