<?xml version="1.0" encoding="UTF-8" standalone="no"?>
<!DOCTYPE svg PUBLIC "-//W3C//DTD SVG 1.1//EN"
 "http://www.w3.org/Graphics/SVG/1.1/DTD/svg11.dtd">
<!-- Generated by graphviz version 3.0.0 (20221109.1736)
 -->
<!-- Title: JStudio_JStage::TAdaptor_actor Pages: 1 -->
<svg width="278pt" height="162pt"
 viewBox="0.00 0.00 277.50 162.00" xmlns="http://www.w3.org/2000/svg" xmlns:xlink="http://www.w3.org/1999/xlink">
<g id="graph0" class="graph" transform="scale(1 1) rotate(0) translate(4 158)">
<title>JStudio_JStage::TAdaptor_actor</title>
<polygon fill="white" stroke="transparent" points="-4,4 -4,-158 273.5,-158 273.5,4 -4,4"/>
<!-- Node1 -->
<g id="node1" class="node">
<title>Node1</title>
<g id="a_node1"><a xlink:title=" ">
<polygon fill="#bfbfbf" stroke="black" points="67.5,-0.5 67.5,-30.5 197.5,-30.5 197.5,-0.5 67.5,-0.5"/>
<text text-anchor="start" x="75.5" y="-18.5" font-family="Helvetica,sans-Serif" font-size="10.00">JStudio_JStage::TAdaptor</text>
<text text-anchor="middle" x="132.5" y="-7.5" font-family="Helvetica,sans-Serif" font-size="10.00">_actor</text>
</a>
</g>
</g>
<!-- Node2 -->
<g id="node2" class="node">
<title>Node2</title>
<g id="a_node2"><a xlink:href="structJStudio_1_1TAdaptor__actor.html" target="_top" xlink:title=" ">
<polygon fill="white" stroke="black" points="0,-73 0,-92 121,-92 121,-73 0,-73"/>
<text text-anchor="middle" x="60.5" y="-80" font-family="Helvetica,sans-Serif" font-size="10.00">JStudio::TAdaptor_actor</text>
</a>
</g>
</g>
<!-- Node2&#45;&gt;Node1 -->
<g id="edge1" class="edge">
<title>Node2&#45;&gt;Node1</title>
<path fill="none" stroke="midnightblue" d="M77.75,-65.93C89.66,-55.18 105.36,-41 116.89,-30.59"/>
<polygon fill="midnightblue" stroke="midnightblue" points="75.29,-63.43 70.21,-72.73 79.98,-68.63 75.29,-63.43"/>
</g>
<!-- Node3 -->
<g id="node3" class="node">
<title>Node3</title>
<g id="a_node3"><a xlink:href="structJStudio_1_1TAdaptor.html" target="_top" xlink:title=" ">
<polygon fill="white" stroke="black" points="13.5,-134.5 13.5,-153.5 107.5,-153.5 107.5,-134.5 13.5,-134.5"/>
<text text-anchor="middle" x="60.5" y="-141.5" font-family="Helvetica,sans-Serif" font-size="10.00">JStudio::TAdaptor</text>
</a>
</g>
</g>
<!-- Node3&#45;&gt;Node2 -->
<g id="edge2" class="edge">
<title>Node3&#45;&gt;Node2</title>
<path fill="none" stroke="midnightblue" d="M60.5,-124.32C60.5,-113.5 60.5,-100.4 60.5,-92.01"/>
<polygon fill="midnightblue" stroke="midnightblue" points="57,-124.48 60.5,-134.48 64,-124.48 57,-124.48"/>
</g>
<!-- Node4 -->
<g id="node4" class="node">
<title>Node4</title>
<g id="a_node4"><a xlink:href="structJStudio__JStage_1_1TAdaptor__object__.html" target="_top" xlink:title=" ">
<polygon fill="white" stroke="black" points="139.5,-67.5 139.5,-97.5 269.5,-97.5 269.5,-67.5 139.5,-67.5"/>
<text text-anchor="start" x="147.5" y="-85.5" font-family="Helvetica,sans-Serif" font-size="10.00">JStudio_JStage::TAdaptor</text>
<text text-anchor="middle" x="204.5" y="-74.5" font-family="Helvetica,sans-Serif" font-size="10.00">_object_</text>
</a>
</g>
</g>
<!-- Node4&#45;&gt;Node1 -->
<g id="edge3" class="edge">
<title>Node4&#45;&gt;Node1</title>
<path fill="none" stroke="midnightblue" d="M181.35,-60.6C170.48,-50.78 157.8,-39.34 148.09,-30.58"/>
<polygon fill="midnightblue" stroke="midnightblue" points="179.11,-63.29 188.88,-67.4 183.8,-58.1 179.11,-63.29"/>
</g>
</g>
</svg>
