<?xml version="1.0" encoding="UTF-8" standalone="no"?>
<!DOCTYPE svg PUBLIC "-//W3C//DTD SVG 1.1//EN"
 "http://www.w3.org/Graphics/SVG/1.1/DTD/svg11.dtd">
<!-- Generated by graphviz version 3.0.0 (20220413.0242)
 -->
<!-- Title: dDlst_base_c Pages: 1 -->
<svg width="1412pt" height="902pt"
 viewBox="0.00 0.00 1412.00 902.00" xmlns="http://www.w3.org/2000/svg" xmlns:xlink="http://www.w3.org/1999/xlink">
<g id="graph0" class="graph" transform="scale(1 1) rotate(0) translate(4 898)">
<title>dDlst_base_c</title>
<polygon fill="white" stroke="transparent" points="-4,4 -4,-898 1408,-898 1408,4 -4,4"/>
<!-- Node1 -->
<g id="node1" class="node">
<title>Node1</title>
<g id="a_node1"><a xlink:title=" ">
<polygon fill="#bfbfbf" stroke="black" points="0,-437.5 0,-456.5 76,-456.5 76,-437.5 0,-437.5"/>
<text text-anchor="middle" x="38" y="-444.5" font-family="Helvetica,sans-Serif" font-size="10.00">dDlst_base_c</text>
</a>
</g>
</g>
<!-- Node2 -->
<g id="node2" class="node">
<title>Node2</title>
<g id="a_node2"><a xlink:href="classdDlst__2D__c.html" target="_top" xlink:title=" ">
<polygon fill="white" stroke="black" points="146.5,-874.5 146.5,-893.5 213.5,-893.5 213.5,-874.5 146.5,-874.5"/>
<text text-anchor="middle" x="180" y="-881.5" font-family="Helvetica,sans-Serif" font-size="10.00">dDlst_2D_c</text>
</a>
</g>
</g>
<!-- Node1&#45;&gt;Node2 -->
<g id="edge1" class="edge">
<title>Node1&#45;&gt;Node2</title>
<path fill="none" stroke="midnightblue" d="M39.76,-467.13C42.99,-542.27 58.04,-805.14 112,-865 120.74,-874.7 134.03,-879.6 146.48,-882.02"/>
<polygon fill="midnightblue" stroke="midnightblue" points="43.24,-466.59 39.34,-456.74 36.24,-466.87 43.24,-466.59"/>
</g>
<!-- Node3 -->
<g id="node3" class="node">
<title>Node3</title>
<g id="a_node3"><a xlink:href="classdDlst__FileInfo__c.html" target="_top" xlink:title=" ">
<polygon fill="white" stroke="black" points="136.5,-836.5 136.5,-855.5 223.5,-855.5 223.5,-836.5 136.5,-836.5"/>
<text text-anchor="middle" x="180" y="-843.5" font-family="Helvetica,sans-Serif" font-size="10.00">dDlst_FileInfo_c</text>
</a>
</g>
</g>
<!-- Node1&#45;&gt;Node3 -->
<g id="edge2" class="edge">
<title>Node1&#45;&gt;Node3</title>
<path fill="none" stroke="midnightblue" d="M40.11,-466.64C44.47,-536.73 62.65,-773.18 112,-827 118.46,-834.04 127.31,-838.54 136.46,-841.41"/>
<polygon fill="midnightblue" stroke="midnightblue" points="43.6,-466.32 39.51,-456.55 36.61,-466.74 43.6,-466.32"/>
</g>
<!-- Node4 -->
<g id="node4" class="node">
<title>Node4</title>
<g id="a_node4"><a xlink:href="classdDlst__KanteraIcon__c.html" target="_top" xlink:title=" ">
<polygon fill="white" stroke="black" points="126.5,-798.5 126.5,-817.5 233.5,-817.5 233.5,-798.5 126.5,-798.5"/>
<text text-anchor="middle" x="180" y="-805.5" font-family="Helvetica,sans-Serif" font-size="10.00">dDlst_KanteraIcon_c</text>
</a>
</g>
</g>
<!-- Node1&#45;&gt;Node4 -->
<g id="edge3" class="edge">
<title>Node1&#45;&gt;Node4</title>
<path fill="none" stroke="midnightblue" d="M40.58,-466.76C46.21,-532.35 67.38,-741.33 112,-789 116.05,-793.33 121,-796.69 126.37,-799.31"/>
<polygon fill="midnightblue" stroke="midnightblue" points="44.05,-466.24 39.73,-456.57 37.07,-466.82 44.05,-466.24"/>
</g>
<!-- Node5 -->
<g id="node5" class="node">
<title>Node5</title>
<g id="a_node5"><a xlink:href="classdDlst__MENU__CAPTURE__c.html" target="_top" xlink:title=" ">
<polygon fill="white" stroke="black" points="112,-760.5 112,-779.5 248,-779.5 248,-760.5 112,-760.5"/>
<text text-anchor="middle" x="180" y="-767.5" font-family="Helvetica,sans-Serif" font-size="10.00">dDlst_MENU_CAPTURE_c</text>
</a>
</g>
</g>
<!-- Node1&#45;&gt;Node5 -->
<g id="edge4" class="edge">
<title>Node1&#45;&gt;Node5</title>
<path fill="none" stroke="midnightblue" d="M41.17,-466.9C48.17,-527.71 72.09,-709.44 112,-751 115.68,-754.84 120.08,-757.92 124.84,-760.39"/>
<polygon fill="midnightblue" stroke="midnightblue" points="44.62,-466.27 40.02,-456.72 37.66,-467.05 44.62,-466.27"/>
</g>
<!-- Node6 -->
<g id="node6" class="node">
<title>Node6</title>
<g id="a_node6"><a xlink:href="classdDlst__MenuSaveExplain__c.html" target="_top" xlink:title=" ">
<polygon fill="white" stroke="black" points="114,-722.5 114,-741.5 246,-741.5 246,-722.5 114,-722.5"/>
<text text-anchor="middle" x="180" y="-729.5" font-family="Helvetica,sans-Serif" font-size="10.00">dDlst_MenuSaveExplain_c</text>
</a>
</g>
</g>
<!-- Node1&#45;&gt;Node6 -->
<g id="edge5" class="edge">
<title>Node1&#45;&gt;Node6</title>
<path fill="none" stroke="midnightblue" d="M38.3,-466.78C37.69,-515.74 43.17,-643.58 112,-713 115.83,-716.86 120.39,-719.96 125.29,-722.43"/>
<polygon fill="midnightblue" stroke="midnightblue" points="41.8,-466.68 38.53,-456.6 34.8,-466.52 41.8,-466.68"/>
</g>
<!-- Node7 -->
<g id="node7" class="node">
<title>Node7</title>
<g id="a_node7"><a xlink:href="classdDlst__MenuSave__c.html" target="_top" xlink:title=" ">
<polygon fill="white" stroke="black" points="129.5,-684.5 129.5,-703.5 230.5,-703.5 230.5,-684.5 129.5,-684.5"/>
<text text-anchor="middle" x="180" y="-691.5" font-family="Helvetica,sans-Serif" font-size="10.00">dDlst_MenuSave_c</text>
</a>
</g>
</g>
<!-- Node1&#45;&gt;Node7 -->
<g id="edge6" class="edge">
<title>Node1&#45;&gt;Node7</title>
<path fill="none" stroke="midnightblue" d="M39.38,-466.91C41.34,-510.96 52.36,-617.32 112,-675 116.95,-679.79 123.02,-683.39 129.47,-686.09"/>
<polygon fill="midnightblue" stroke="midnightblue" points="42.88,-466.78 39.05,-456.9 35.89,-467.01 42.88,-466.78"/>
</g>
<!-- Node8 -->
<g id="node8" class="node">
<title>Node8</title>
<g id="a_node8"><a xlink:href="classdDlst__NameIN__c.html" target="_top" xlink:title=" ">
<polygon fill="white" stroke="black" points="134,-646.5 134,-665.5 226,-665.5 226,-646.5 134,-646.5"/>
<text text-anchor="middle" x="180" y="-653.5" font-family="Helvetica,sans-Serif" font-size="10.00">dDlst_NameIN_c</text>
</a>
</g>
</g>
<!-- Node1&#45;&gt;Node8 -->
<g id="edge7" class="edge">
<title>Node1&#45;&gt;Node8</title>
<path fill="none" stroke="midnightblue" d="M40.87,-466.94C45.57,-505.55 61.4,-590.78 112,-637 118.16,-642.63 125.87,-646.6 133.84,-649.4"/>
<polygon fill="midnightblue" stroke="midnightblue" points="44.3,-466.11 39.74,-456.55 37.34,-466.87 44.3,-466.11"/>
</g>
<!-- Node9 -->
<g id="node9" class="node">
<title>Node9</title>
<g id="a_node9"><a xlink:href="structdDrawPath__c.html" target="_top" xlink:title=" ">
<polygon fill="white" stroke="black" points="142.5,-608.5 142.5,-627.5 217.5,-627.5 217.5,-608.5 142.5,-608.5"/>
<text text-anchor="middle" x="180" y="-615.5" font-family="Helvetica,sans-Serif" font-size="10.00">dDrawPath_c</text>
</a>
</g>
</g>
<!-- Node1&#45;&gt;Node9 -->
<g id="edge8" class="edge">
<title>Node1&#45;&gt;Node9</title>
<path fill="none" stroke="midnightblue" d="M42.93,-466.51C50.48,-498.92 70.13,-563.75 112,-599 120.51,-606.16 131.56,-610.63 142.22,-613.42"/>
<polygon fill="midnightblue" stroke="midnightblue" points="46.3,-465.53 40.75,-456.5 39.46,-467.02 46.3,-465.53"/>
</g>
<!-- Node18 -->
<g id="node18" class="node">
<title>Node18</title>
<g id="a_node18"><a xlink:href="classdMenu__Collect2DTop__c.html" target="_top" xlink:title=" ">
<polygon fill="white" stroke="black" points="120,-570.5 120,-589.5 240,-589.5 240,-570.5 120,-570.5"/>
<text text-anchor="middle" x="180" y="-577.5" font-family="Helvetica,sans-Serif" font-size="10.00">dMenu_Collect2DTop_c</text>
</a>
</g>
</g>
<!-- Node1&#45;&gt;Node18 -->
<g id="edge17" class="edge">
<title>Node1&#45;&gt;Node18</title>
<path fill="none" stroke="midnightblue" d="M46.08,-465.93C56.58,-491.37 78.67,-536.25 112,-561 117.24,-564.89 123.25,-567.99 129.48,-570.45"/>
<polygon fill="midnightblue" stroke="midnightblue" points="49.34,-464.64 42.41,-456.62 42.83,-467.21 49.34,-464.64"/>
</g>
<!-- Node19 -->
<g id="node19" class="node">
<title>Node19</title>
<g id="a_node19"><a xlink:href="classdMenu__Collect2D__c.html" target="_top" xlink:title=" ">
<polygon fill="white" stroke="black" points="128,-532.5 128,-551.5 232,-551.5 232,-532.5 128,-532.5"/>
<text text-anchor="middle" x="180" y="-539.5" font-family="Helvetica,sans-Serif" font-size="10.00">dMenu_Collect2D_c</text>
</a>
</g>
</g>
<!-- Node1&#45;&gt;Node19 -->
<g id="edge18" class="edge">
<title>Node1&#45;&gt;Node19</title>
<path fill="none" stroke="midnightblue" d="M51.7,-464.93C64.88,-482.25 87.03,-508 112,-523 118.43,-526.86 125.67,-529.96 132.96,-532.45"/>
<polygon fill="midnightblue" stroke="midnightblue" points="54.41,-462.72 45.66,-456.75 48.78,-466.87 54.41,-462.72"/>
</g>
<!-- Node20 -->
<g id="node20" class="node">
<title>Node20</title>
<g id="a_node20"><a xlink:href="structdMenu__Fishing__c.html" target="_top" xlink:title=" ">
<polygon fill="white" stroke="black" points="133.5,-494.5 133.5,-513.5 226.5,-513.5 226.5,-494.5 133.5,-494.5"/>
<text text-anchor="middle" x="180" y="-501.5" font-family="Helvetica,sans-Serif" font-size="10.00">dMenu_Fishing_c</text>
</a>
</g>
</g>
<!-- Node1&#45;&gt;Node20 -->
<g id="edge19" class="edge">
<title>Node1&#45;&gt;Node20</title>
<path fill="none" stroke="midnightblue" d="M63.97,-461.62C77.8,-469.29 95.49,-478.44 112,-485 120.99,-488.57 130.9,-491.77 140.29,-494.47"/>
<polygon fill="midnightblue" stroke="midnightblue" points="65.5,-458.46 55.08,-456.58 62.06,-464.55 65.5,-458.46"/>
</g>
<!-- Node21 -->
<g id="node21" class="node">
<title>Node21</title>
<g id="a_node21"><a xlink:href="structdMenu__Insect__c.html" target="_top" xlink:title=" ">
<polygon fill="white" stroke="black" points="135.5,-456.5 135.5,-475.5 224.5,-475.5 224.5,-456.5 135.5,-456.5"/>
<text text-anchor="middle" x="180" y="-463.5" font-family="Helvetica,sans-Serif" font-size="10.00">dMenu_Insect_c</text>
</a>
</g>
</g>
<!-- Node1&#45;&gt;Node21 -->
<g id="edge20" class="edge">
<title>Node1&#45;&gt;Node21</title>
<path fill="none" stroke="midnightblue" d="M86.31,-453.42C102.21,-455.58 119.86,-457.97 135.46,-460.09"/>
<polygon fill="midnightblue" stroke="midnightblue" points="86.53,-449.92 76.15,-452.04 85.59,-456.85 86.53,-449.92"/>
</g>
<!-- Node22 -->
<g id="node22" class="node">
<title>Node22</title>
<g id="a_node22"><a xlink:href="structdMenu__Letter__c.html" target="_top" xlink:title=" ">
<polygon fill="white" stroke="black" points="136.5,-418.5 136.5,-437.5 223.5,-437.5 223.5,-418.5 136.5,-418.5"/>
<text text-anchor="middle" x="180" y="-425.5" font-family="Helvetica,sans-Serif" font-size="10.00">dMenu_Letter_c</text>
</a>
</g>
</g>
<!-- Node1&#45;&gt;Node22 -->
<g id="edge21" class="edge">
<title>Node1&#45;&gt;Node22</title>
<path fill="none" stroke="midnightblue" d="M86.49,-440.55C102.69,-438.36 120.69,-435.91 136.47,-433.77"/>
<polygon fill="midnightblue" stroke="midnightblue" points="85.59,-437.15 76.15,-441.96 86.53,-444.08 85.59,-437.15"/>
</g>
<!-- Node23 -->
<g id="node23" class="node">
<title>Node23</title>
<g id="a_node23"><a xlink:href="structdMenu__Option__c.html" target="_top" xlink:title=" ">
<polygon fill="white" stroke="black" points="135,-380.5 135,-399.5 225,-399.5 225,-380.5 135,-380.5"/>
<text text-anchor="middle" x="180" y="-387.5" font-family="Helvetica,sans-Serif" font-size="10.00">dMenu_Option_c</text>
</a>
</g>
</g>
<!-- Node1&#45;&gt;Node23 -->
<g id="edge22" class="edge">
<title>Node1&#45;&gt;Node23</title>
<path fill="none" stroke="midnightblue" d="M63.97,-432.38C77.8,-424.71 95.49,-415.56 112,-409 120.99,-405.43 130.9,-402.23 140.29,-399.53"/>
<polygon fill="midnightblue" stroke="midnightblue" points="62.06,-429.45 55.08,-437.42 65.5,-435.54 62.06,-429.45"/>
</g>
<!-- Node24 -->
<g id="node24" class="node">
<title>Node24</title>
<g id="a_node24"><a xlink:href="classdMenu__Ring__c.html" target="_top" xlink:title=" ">
<polygon fill="white" stroke="black" points="139.5,-342.5 139.5,-361.5 220.5,-361.5 220.5,-342.5 139.5,-342.5"/>
<text text-anchor="middle" x="180" y="-349.5" font-family="Helvetica,sans-Serif" font-size="10.00">dMenu_Ring_c</text>
</a>
</g>
</g>
<!-- Node1&#45;&gt;Node24 -->
<g id="edge23" class="edge">
<title>Node1&#45;&gt;Node24</title>
<path fill="none" stroke="midnightblue" d="M51.7,-429.07C64.88,-411.75 87.03,-386 112,-371 120.29,-366.02 129.94,-362.3 139.3,-359.53"/>
<polygon fill="midnightblue" stroke="midnightblue" points="48.78,-427.13 45.66,-437.25 54.41,-431.28 48.78,-427.13"/>
</g>
<!-- Node25 -->
<g id="node25" class="node">
<title>Node25</title>
<g id="a_node25"><a xlink:href="structdMenu__Skill__c.html" target="_top" xlink:title=" ">
<polygon fill="white" stroke="black" points="140,-304.5 140,-323.5 220,-323.5 220,-304.5 140,-304.5"/>
<text text-anchor="middle" x="180" y="-311.5" font-family="Helvetica,sans-Serif" font-size="10.00">dMenu_Skill_c</text>
</a>
</g>
</g>
<!-- Node1&#45;&gt;Node25 -->
<g id="edge24" class="edge">
<title>Node1&#45;&gt;Node25</title>
<path fill="none" stroke="midnightblue" d="M46.08,-428.07C56.58,-402.63 78.67,-357.75 112,-333 120.15,-326.94 130.17,-322.82 139.95,-320.01"/>
<polygon fill="midnightblue" stroke="midnightblue" points="42.83,-426.79 42.41,-437.38 49.34,-429.36 42.83,-426.79"/>
</g>
<!-- Node26 -->
<g id="node26" class="node">
<title>Node26</title>
<g id="a_node26"><a xlink:href="structdMeter2Draw__c.html" target="_top" xlink:title=" ">
<polygon fill="white" stroke="black" points="137.5,-266.5 137.5,-285.5 222.5,-285.5 222.5,-266.5 137.5,-266.5"/>
<text text-anchor="middle" x="180" y="-273.5" font-family="Helvetica,sans-Serif" font-size="10.00">dMeter2Draw_c</text>
</a>
</g>
</g>
<!-- Node1&#45;&gt;Node26 -->
<g id="edge25" class="edge">
<title>Node1&#45;&gt;Node26</title>
<path fill="none" stroke="midnightblue" d="M42.93,-427.49C50.48,-395.08 70.13,-330.25 112,-295 119.21,-288.93 128.25,-284.79 137.33,-281.97"/>
<polygon fill="midnightblue" stroke="midnightblue" points="39.46,-426.98 40.75,-437.5 46.3,-428.47 39.46,-426.98"/>
</g>
<!-- Node27 -->
<g id="node27" class="node">
<title>Node27</title>
<g id="a_node27"><a xlink:href="structdMeterButton__c.html" target="_top" xlink:title=" ">
<polygon fill="white" stroke="black" points="137,-228.5 137,-247.5 223,-247.5 223,-228.5 137,-228.5"/>
<text text-anchor="middle" x="180" y="-235.5" font-family="Helvetica,sans-Serif" font-size="10.00">dMeterButton_c</text>
</a>
</g>
</g>
<!-- Node1&#45;&gt;Node27 -->
<g id="edge26" class="edge">
<title>Node1&#45;&gt;Node27</title>
<path fill="none" stroke="midnightblue" d="M40.87,-427.06C45.57,-388.45 61.4,-303.22 112,-257 118.96,-250.64 127.9,-246.39 136.97,-243.56"/>
<polygon fill="midnightblue" stroke="midnightblue" points="37.34,-427.13 39.74,-437.45 44.3,-427.89 37.34,-427.13"/>
</g>
<!-- Node28 -->
<g id="node28" class="node">
<title>Node28</title>
<g id="a_node28"><a xlink:href="structdMeterMap__c.html" target="_top" xlink:title=" ">
<polygon fill="white" stroke="black" points="142,-190.5 142,-209.5 218,-209.5 218,-190.5 142,-190.5"/>
<text text-anchor="middle" x="180" y="-197.5" font-family="Helvetica,sans-Serif" font-size="10.00">dMeterMap_c</text>
</a>
</g>
</g>
<!-- Node1&#45;&gt;Node28 -->
<g id="edge27" class="edge">
<title>Node1&#45;&gt;Node28</title>
<path fill="none" stroke="midnightblue" d="M39.38,-427.09C41.34,-383.04 52.36,-276.68 112,-219 120.08,-211.18 131.14,-206.54 141.93,-203.79"/>
<polygon fill="midnightblue" stroke="midnightblue" points="35.89,-426.99 39.05,-437.1 42.88,-427.22 35.89,-426.99"/>
</g>
<!-- Node29 -->
<g id="node29" class="node">
<title>Node29</title>
<g id="a_node29"><a xlink:href="structdMeterSub__c.html" target="_top" xlink:title=" ">
<polygon fill="white" stroke="black" points="143,-152.5 143,-171.5 217,-171.5 217,-152.5 143,-152.5"/>
<text text-anchor="middle" x="180" y="-159.5" font-family="Helvetica,sans-Serif" font-size="10.00">dMeterSub_c</text>
</a>
</g>
</g>
<!-- Node1&#45;&gt;Node29 -->
<g id="edge28" class="edge">
<title>Node1&#45;&gt;Node29</title>
<path fill="none" stroke="midnightblue" d="M38.3,-427.22C37.69,-378.26 43.17,-250.42 112,-181 120.17,-172.76 131.64,-168.03 142.78,-165.33"/>
<polygon fill="midnightblue" stroke="midnightblue" points="34.8,-427.48 38.53,-437.4 41.8,-427.32 34.8,-427.48"/>
</g>
<!-- Node32 -->
<g id="node32" class="node">
<title>Node32</title>
<g id="a_node32"><a xlink:href="structdMsgScrnBase__c.html" target="_top" xlink:title=" ">
<polygon fill="white" stroke="black" points="133,-114.5 133,-133.5 227,-133.5 227,-114.5 133,-114.5"/>
<text text-anchor="middle" x="180" y="-121.5" font-family="Helvetica,sans-Serif" font-size="10.00">dMsgScrnBase_c</text>
</a>
</g>
</g>
<!-- Node1&#45;&gt;Node32 -->
<g id="edge31" class="edge">
<title>Node1&#45;&gt;Node32</title>
<path fill="none" stroke="midnightblue" d="M41.17,-427.1C48.17,-366.29 72.09,-184.56 112,-143 117.69,-137.07 125.09,-132.95 132.88,-130.1"/>
<polygon fill="midnightblue" stroke="midnightblue" points="37.66,-426.95 40.02,-437.28 44.62,-427.73 37.66,-426.95"/>
</g>
<!-- Node34 -->
<g id="node34" class="node">
<title>Node34</title>
<g id="a_node34"><a xlink:href="structdSelect__cursor__c.html" target="_top" xlink:title=" ">
<polygon fill="white" stroke="black" points="134,-76.5 134,-95.5 226,-95.5 226,-76.5 134,-76.5"/>
<text text-anchor="middle" x="180" y="-83.5" font-family="Helvetica,sans-Serif" font-size="10.00">dSelect_cursor_c</text>
</a>
</g>
</g>
<!-- Node1&#45;&gt;Node34 -->
<g id="edge33" class="edge">
<title>Node1&#45;&gt;Node34</title>
<path fill="none" stroke="midnightblue" d="M40.58,-427.24C46.21,-361.65 67.38,-152.67 112,-105 117.87,-98.73 125.63,-94.48 133.79,-91.61"/>
<polygon fill="midnightblue" stroke="midnightblue" points="37.07,-427.18 39.73,-437.43 44.05,-427.76 37.07,-427.18"/>
</g>
<!-- Node35 -->
<g id="node35" class="node">
<title>Node35</title>
<g id="a_node35"><a xlink:href="classdaAlink__lockCursor__c.html" target="_top" xlink:title=" ">
<polygon fill="white" stroke="black" points="124.5,-38.5 124.5,-57.5 235.5,-57.5 235.5,-38.5 124.5,-38.5"/>
<text text-anchor="middle" x="180" y="-45.5" font-family="Helvetica,sans-Serif" font-size="10.00">daAlink_lockCursor_c</text>
</a>
</g>
</g>
<!-- Node1&#45;&gt;Node35 -->
<g id="edge34" class="edge">
<title>Node1&#45;&gt;Node35</title>
<path fill="none" stroke="midnightblue" d="M40.11,-427.36C44.47,-357.27 62.65,-120.82 112,-67 115.51,-63.17 119.74,-60.09 124.33,-57.61"/>
<polygon fill="midnightblue" stroke="midnightblue" points="36.61,-427.26 39.51,-437.45 43.6,-427.68 36.61,-427.26"/>
</g>
<!-- Node36 -->
<g id="node36" class="node">
<title>Node36</title>
<g id="a_node36"><a xlink:href="classdaPy__sightPacket__c.html" target="_top" xlink:title=" ">
<polygon fill="white" stroke="black" points="127,-0.5 127,-19.5 233,-19.5 233,-0.5 127,-0.5"/>
<text text-anchor="middle" x="180" y="-7.5" font-family="Helvetica,sans-Serif" font-size="10.00">daPy_sightPacket_c</text>
</a>
</g>
</g>
<!-- Node1&#45;&gt;Node36 -->
<g id="edge35" class="edge">
<title>Node1&#45;&gt;Node36</title>
<path fill="none" stroke="midnightblue" d="M39.76,-426.87C42.99,-351.73 58.04,-88.86 112,-29 116.13,-24.42 121.27,-20.91 126.86,-18.23"/>
<polygon fill="midnightblue" stroke="midnightblue" points="36.24,-427.13 39.34,-437.26 43.24,-427.41 36.24,-427.13"/>
</g>
<!-- Node10 -->
<g id="node10" class="node">
<title>Node10</title>
<g id="a_node10"><a xlink:href="structdDrawPathWithNormalPattern__c.html" target="_top" xlink:title=" ">
<polygon fill="white" stroke="black" points="284,-608.5 284,-627.5 442,-627.5 442,-608.5 284,-608.5"/>
<text text-anchor="middle" x="363" y="-615.5" font-family="Helvetica,sans-Serif" font-size="10.00">dDrawPathWithNormalPattern_c</text>
</a>
</g>
</g>
<!-- Node9&#45;&gt;Node10 -->
<g id="edge9" class="edge">
<title>Node9&#45;&gt;Node10</title>
<path fill="none" stroke="midnightblue" d="M227.9,-618C245.01,-618 264.85,-618 283.94,-618"/>
<polygon fill="midnightblue" stroke="midnightblue" points="227.63,-614.5 217.63,-618 227.63,-621.5 227.63,-614.5"/>
</g>
<!-- Node11 -->
<g id="node11" class="node">
<title>Node11</title>
<g id="a_node11"><a xlink:href="structdRenderingMap__c.html" target="_top" xlink:title=" ">
<polygon fill="white" stroke="black" points="478,-608.5 478,-627.5 573,-627.5 573,-608.5 478,-608.5"/>
<text text-anchor="middle" x="525.5" y="-615.5" font-family="Helvetica,sans-Serif" font-size="10.00">dRenderingMap_c</text>
</a>
</g>
</g>
<!-- Node10&#45;&gt;Node11 -->
<g id="edge10" class="edge">
<title>Node10&#45;&gt;Node11</title>
<path fill="none" stroke="midnightblue" d="M452.56,-618C461.22,-618 469.74,-618 477.73,-618"/>
<polygon fill="midnightblue" stroke="midnightblue" points="452.37,-614.5 442.37,-618 452.37,-621.5 452.37,-614.5"/>
</g>
<!-- Node12 -->
<g id="node12" class="node">
<title>Node12</title>
<g id="a_node12"><a xlink:href="structdRenderingFDAmap__c.html" target="_top" xlink:title=" ">
<polygon fill="white" stroke="black" points="609,-608.5 609,-627.5 723,-627.5 723,-608.5 609,-608.5"/>
<text text-anchor="middle" x="666" y="-615.5" font-family="Helvetica,sans-Serif" font-size="10.00">dRenderingFDAmap_c</text>
</a>
</g>
</g>
<!-- Node11&#45;&gt;Node12 -->
<g id="edge11" class="edge">
<title>Node11&#45;&gt;Node12</title>
<path fill="none" stroke="midnightblue" d="M583.15,-618C591.61,-618 600.32,-618 608.77,-618"/>
<polygon fill="midnightblue" stroke="midnightblue" points="583,-614.5 573,-618 583,-621.5 583,-614.5"/>
</g>
<!-- Node13 -->
<g id="node13" class="node">
<title>Node13</title>
<g id="a_node13"><a xlink:href="structrenderingDAmap__c.html" target="_top" xlink:title=" ">
<polygon fill="white" stroke="black" points="759,-608.5 759,-627.5 858,-627.5 858,-608.5 759,-608.5"/>
<text text-anchor="middle" x="808.5" y="-615.5" font-family="Helvetica,sans-Serif" font-size="10.00">renderingDAmap_c</text>
</a>
</g>
</g>
<!-- Node12&#45;&gt;Node13 -->
<g id="edge12" class="edge">
<title>Node12&#45;&gt;Node13</title>
<path fill="none" stroke="midnightblue" d="M733.35,-618C741.95,-618 750.61,-618 758.84,-618"/>
<polygon fill="midnightblue" stroke="midnightblue" points="733.34,-614.5 723.34,-618 733.34,-621.5 733.34,-614.5"/>
</g>
<!-- Node14 -->
<g id="node14" class="node">
<title>Node14</title>
<g id="a_node14"><a xlink:href="structrenderingPlusDoor__c.html" target="_top" xlink:title=" ">
<polygon fill="white" stroke="black" points="894,-608.5 894,-627.5 1001,-627.5 1001,-608.5 894,-608.5"/>
<text text-anchor="middle" x="947.5" y="-615.5" font-family="Helvetica,sans-Serif" font-size="10.00">renderingPlusDoor_c</text>
</a>
</g>
</g>
<!-- Node13&#45;&gt;Node14 -->
<g id="edge13" class="edge">
<title>Node13&#45;&gt;Node14</title>
<path fill="none" stroke="midnightblue" d="M868.36,-618C876.81,-618 885.46,-618 893.79,-618"/>
<polygon fill="midnightblue" stroke="midnightblue" points="868.19,-614.5 858.19,-618 868.19,-621.5 868.19,-614.5"/>
</g>
<!-- Node15 -->
<g id="node15" class="node">
<title>Node15</title>
<g id="a_node15"><a xlink:href="structrenderingPlusDoorAndCursor__c.html" target="_top" xlink:title=" ">
<polygon fill="white" stroke="black" points="1037,-608.5 1037,-627.5 1189,-627.5 1189,-608.5 1037,-608.5"/>
<text text-anchor="middle" x="1113" y="-615.5" font-family="Helvetica,sans-Serif" font-size="10.00">renderingPlusDoorAndCursor_c</text>
</a>
</g>
</g>
<!-- Node14&#45;&gt;Node15 -->
<g id="edge14" class="edge">
<title>Node14&#45;&gt;Node15</title>
<path fill="none" stroke="midnightblue" d="M1011.2,-618C1019.59,-618 1028.26,-618 1036.84,-618"/>
<polygon fill="midnightblue" stroke="midnightblue" points="1011.13,-614.5 1001.13,-618 1011.13,-621.5 1011.13,-614.5"/>
</g>
<!-- Node16 -->
<g id="node16" class="node">
<title>Node16</title>
<g id="a_node16"><a xlink:href="structrenderingAmap__c.html" target="_top" xlink:title=" ">
<polygon fill="white" stroke="black" points="1225,-608.5 1225,-627.5 1317,-627.5 1317,-608.5 1225,-608.5"/>
<text text-anchor="middle" x="1271" y="-615.5" font-family="Helvetica,sans-Serif" font-size="10.00">renderingAmap_c</text>
</a>
</g>
</g>
<!-- Node15&#45;&gt;Node16 -->
<g id="edge15" class="edge">
<title>Node15&#45;&gt;Node16</title>
<path fill="none" stroke="midnightblue" d="M1199.51,-618C1208.21,-618 1216.79,-618 1224.81,-618"/>
<polygon fill="midnightblue" stroke="midnightblue" points="1199.26,-614.5 1189.26,-618 1199.26,-621.5 1199.26,-614.5"/>
</g>
<!-- Node17 -->
<g id="node17" class="node">
<title>Node17</title>
<g id="a_node17"><a xlink:href="structdMap__c.html" target="_top" xlink:title=" ">
<polygon fill="white" stroke="black" points="1353,-608.5 1353,-627.5 1404,-627.5 1404,-608.5 1353,-608.5"/>
<text text-anchor="middle" x="1378.5" y="-615.5" font-family="Helvetica,sans-Serif" font-size="10.00">dMap_c</text>
</a>
</g>
</g>
<!-- Node16&#45;&gt;Node17 -->
<g id="edge16" class="edge">
<title>Node16&#45;&gt;Node17</title>
<path fill="none" stroke="midnightblue" d="M1327.23,-618C1336.26,-618 1345.19,-618 1352.96,-618"/>
<polygon fill="midnightblue" stroke="midnightblue" points="1327.05,-614.5 1317.05,-618 1327.05,-621.5 1327.05,-614.5"/>
</g>
<!-- Node30 -->
<g id="node30" class="node">
<title>Node30</title>
<g id="a_node30"><a xlink:href="structdMeterHaihai__c.html" target="_top" xlink:title=" ">
<polygon fill="white" stroke="black" points="320.5,-190.5 320.5,-209.5 405.5,-209.5 405.5,-190.5 320.5,-190.5"/>
<text text-anchor="middle" x="363" y="-197.5" font-family="Helvetica,sans-Serif" font-size="10.00">dMeterHaihai_c</text>
</a>
</g>
</g>
<!-- Node29&#45;&gt;Node30 -->
<g id="edge29" class="edge">
<title>Node29&#45;&gt;Node30</title>
<path fill="none" stroke="midnightblue" d="M227.02,-171.66C255.81,-177.7 292.59,-185.43 320.49,-191.28"/>
<polygon fill="midnightblue" stroke="midnightblue" points="227.7,-168.23 217.19,-169.6 226.26,-175.08 227.7,-168.23"/>
</g>
<!-- Node31 -->
<g id="node31" class="node">
<title>Node31</title>
<g id="a_node31"><a xlink:href="structdMeterString__c.html" target="_top" xlink:title=" ">
<polygon fill="white" stroke="black" points="321.5,-152.5 321.5,-171.5 404.5,-171.5 404.5,-152.5 321.5,-152.5"/>
<text text-anchor="middle" x="363" y="-159.5" font-family="Helvetica,sans-Serif" font-size="10.00">dMeterString_c</text>
</a>
</g>
</g>
<!-- Node29&#45;&gt;Node31 -->
<g id="edge30" class="edge">
<title>Node29&#45;&gt;Node31</title>
<path fill="none" stroke="midnightblue" d="M227.5,-162C256.55,-162 293.6,-162 321.45,-162"/>
<polygon fill="midnightblue" stroke="midnightblue" points="227.19,-158.5 217.19,-162 227.19,-165.5 227.19,-158.5"/>
</g>
<!-- Node33 -->
<g id="node33" class="node">
<title>Node33</title>
<g id="a_node33"><a xlink:href="structdMsgScrnBoss__c.html" target="_top" xlink:title=" ">
<polygon fill="white" stroke="black" points="316,-114.5 316,-133.5 410,-133.5 410,-114.5 316,-114.5"/>
<text text-anchor="middle" x="363" y="-121.5" font-family="Helvetica,sans-Serif" font-size="10.00">dMsgScrnBoss_c</text>
</a>
</g>
</g>
<!-- Node32&#45;&gt;Node33 -->
<g id="edge32" class="edge">
<title>Node32&#45;&gt;Node33</title>
<path fill="none" stroke="midnightblue" d="M237.32,-124C262.59,-124 292.02,-124 315.94,-124"/>
<polygon fill="midnightblue" stroke="midnightblue" points="237.14,-120.5 227.14,-124 237.14,-127.5 237.14,-120.5"/>
</g>
<!-- Node37 -->
<g id="node37" class="node">
<title>Node37</title>
<g id="a_node37"><a xlink:href="classdaAlink__sight__c.html" target="_top" xlink:title=" ">
<polygon fill="white" stroke="black" points="320,-0.5 320,-19.5 406,-19.5 406,-0.5 320,-0.5"/>
<text text-anchor="middle" x="363" y="-7.5" font-family="Helvetica,sans-Serif" font-size="10.00">daAlink_sight_c</text>
</a>
</g>
</g>
<!-- Node36&#45;&gt;Node37 -->
<g id="edge36" class="edge">
<title>Node36&#45;&gt;Node37</title>
<path fill="none" stroke="midnightblue" d="M243.56,-10C268.74,-10 297.13,-10 319.8,-10"/>
<polygon fill="midnightblue" stroke="midnightblue" points="243.35,-6.5 233.35,-10 243.35,-13.5 243.35,-6.5"/>
</g>
</g>
</svg>
