<?xml version="1.0" encoding="UTF-8" standalone="no"?>
<!DOCTYPE svg PUBLIC "-//W3C//DTD SVG 1.1//EN"
 "http://www.w3.org/Graphics/SVG/1.1/DTD/svg11.dtd">
<!-- Generated by graphviz version 3.0.0 (20220413.0242)
 -->
<!-- Title: dRes_info_c Pages: 1 -->
<svg width="932pt" height="610pt"
 viewBox="0.00 0.00 932.00 610.00" xmlns="http://www.w3.org/2000/svg" xmlns:xlink="http://www.w3.org/1999/xlink">
<g id="graph0" class="graph" transform="scale(1 1) rotate(0) translate(4 606)">
<title>dRes_info_c</title>
<polygon fill="white" stroke="transparent" points="-4,4 -4,-606 928,-606 928,4 -4,4"/>
<!-- Node1 -->
<g id="node1" class="node">
<title>Node1</title>
<g id="a_node1"><a xlink:title=" ">
<polygon fill="#bfbfbf" stroke="black" points="608.5,-0.5 608.5,-19.5 679.5,-19.5 679.5,-0.5 608.5,-0.5"/>
<text text-anchor="middle" x="644" y="-7.5" font-family="Helvetica,sans-Serif" font-size="10.00">dRes_info_c</text>
</a>
</g>
</g>
<!-- Node2 -->
<g id="node2" class="node">
<title>Node2</title>
<g id="a_node2"><a xlink:href="structmDoDvdThd__mountArchive__c.html" target="_top" xlink:title=" ">
<polygon fill="white" stroke="black" points="481,-67.5 481,-86.5 627,-86.5 627,-67.5 481,-67.5"/>
<text text-anchor="middle" x="554" y="-74.5" font-family="Helvetica,sans-Serif" font-size="10.00">mDoDvdThd_mountArchive_c</text>
</a>
</g>
</g>
<!-- Node2&#45;&gt;Node1 -->
<g id="edge1" class="edge">
<title>Node2&#45;&gt;Node1</title>
<path fill="none" stroke="#9a32cd" stroke-dasharray="5,2" d="M564.68,-59.05C569.85,-51.86 576.55,-43.82 584,-38 594.09,-30.13 606.83,-23.98 617.98,-19.55"/>
<polygon fill="#9a32cd" stroke="#9a32cd" points="561.7,-57.22 559.02,-67.47 567.51,-61.13 561.7,-57.22"/>
<text text-anchor="middle" x="619" y="-41" font-family="Helvetica,sans-Serif" font-size="10.00"> mDMCommand</text>
</g>
<!-- Node3 -->
<g id="node3" class="node">
<title>Node3</title>
<g id="a_node3"><a xlink:href="classmDoDvdThd__command__c.html" target="_top" xlink:title=" ">
<polygon fill="white" stroke="black" points="460.5,-134.5 460.5,-153.5 589.5,-153.5 589.5,-134.5 460.5,-134.5"/>
<text text-anchor="middle" x="525" y="-141.5" font-family="Helvetica,sans-Serif" font-size="10.00">mDoDvdThd_command_c</text>
</a>
</g>
</g>
<!-- Node3&#45;&gt;Node2 -->
<g id="edge2" class="edge">
<title>Node3&#45;&gt;Node2</title>
<path fill="none" stroke="midnightblue" d="M533.12,-124.79C538.69,-112.31 545.83,-96.31 550.15,-86.63"/>
<polygon fill="midnightblue" stroke="midnightblue" points="529.79,-123.68 528.91,-134.23 536.18,-126.53 529.79,-123.68"/>
</g>
<!-- Node4 -->
<g id="node4" class="node">
<title>Node4</title>
<g id="a_node4"><a xlink:href="structnode__class.html" target="_top" xlink:title=" ">
<polygon fill="white" stroke="black" points="448,-202.5 448,-221.5 514,-221.5 514,-202.5 448,-202.5"/>
<text text-anchor="middle" x="481" y="-209.5" font-family="Helvetica,sans-Serif" font-size="10.00">node_class</text>
</a>
</g>
</g>
<!-- Node4&#45;&gt;Node3 -->
<g id="edge3" class="edge">
<title>Node4&#45;&gt;Node3</title>
<path fill="none" stroke="midnightblue" d="M492.37,-193.94C500.93,-181.11 512.29,-164.06 519.11,-153.84"/>
<polygon fill="midnightblue" stroke="midnightblue" points="489.39,-192.11 486.75,-202.37 495.21,-195.99 489.39,-192.11"/>
</g>
<!-- Node4&#45;&gt;Node4 -->
<g id="edge4" class="edge">
<title>Node4&#45;&gt;Node4</title>
<path fill="none" stroke="#9a32cd" stroke-dasharray="5,2" d="M524.65,-217.25C529.13,-216.22 532,-214.47 532,-212 532,-207.95 524.28,-205.83 514.35,-205.64"/>
<polygon fill="#9a32cd" stroke="#9a32cd" points="523.92,-213.81 514.35,-218.36 524.67,-220.77 523.92,-213.81"/>
<text text-anchor="middle" x="562" y="-215" font-family="Helvetica,sans-Serif" font-size="10.00"> mpNextNode</text>
<text text-anchor="middle" x="562" y="-204" font-family="Helvetica,sans-Serif" font-size="10.00">mpPrevNode</text>
</g>
<!-- Node5 -->
<g id="node5" class="node">
<title>Node5</title>
<g id="a_node5"><a xlink:href="structJKRMemArchive.html" target="_top" xlink:title=" ">
<polygon fill="white" stroke="black" points="350,-134.5 350,-153.5 440,-153.5 440,-134.5 350,-134.5"/>
<text text-anchor="middle" x="395" y="-141.5" font-family="Helvetica,sans-Serif" font-size="10.00">JKRMemArchive</text>
</a>
</g>
</g>
<!-- Node5&#45;&gt;Node2 -->
<g id="edge5" class="edge">
<title>Node5&#45;&gt;Node2</title>
<path fill="none" stroke="#9a32cd" stroke-dasharray="5,2" d="M425.73,-130.44C457.31,-117.53 505.62,-97.78 533.05,-86.56"/>
<polygon fill="#9a32cd" stroke="#9a32cd" points="424.05,-127.34 416.11,-134.37 426.69,-133.82 424.05,-127.34"/>
<text text-anchor="middle" x="506" y="-108" font-family="Helvetica,sans-Serif" font-size="10.00"> mArchive</text>
</g>
<!-- Node6 -->
<g id="node6" class="node">
<title>Node6</title>
<g id="a_node6"><a xlink:href="structJKRArchive.html" target="_top" xlink:title=" ">
<polygon fill="white" stroke="black" points="274,-202.5 274,-221.5 342,-221.5 342,-202.5 274,-202.5"/>
<text text-anchor="middle" x="308" y="-209.5" font-family="Helvetica,sans-Serif" font-size="10.00">JKRArchive</text>
</a>
</g>
</g>
<!-- Node6&#45;&gt;Node1 -->
<g id="edge36" class="edge">
<title>Node6&#45;&gt;Node1</title>
<path fill="none" stroke="#9a32cd" stroke-dasharray="5,2" d="M312.09,-192.47C316.66,-175.5 325.52,-150.56 341,-134 414.45,-55.39 545.19,-25.76 608.15,-15.67"/>
<polygon fill="#9a32cd" stroke="#9a32cd" points="308.66,-191.77 309.69,-202.31 315.46,-193.43 308.66,-191.77"/>
<text text-anchor="middle" x="393" y="-108" font-family="Helvetica,sans-Serif" font-size="10.00"> mArchive</text>
</g>
<!-- Node6&#45;&gt;Node5 -->
<g id="edge6" class="edge">
<title>Node6&#45;&gt;Node5</title>
<path fill="none" stroke="midnightblue" d="M327.65,-196.1C344.91,-183 369.42,-164.4 383.62,-153.63"/>
<polygon fill="midnightblue" stroke="midnightblue" points="325.23,-193.54 319.37,-202.37 329.46,-199.12 325.23,-193.54"/>
</g>
<!-- Node7 -->
<g id="node7" class="node">
<title>Node7</title>
<g id="a_node7"><a xlink:href="structJKRFileLoader.html" target="_top" xlink:title=" ">
<polygon fill="white" stroke="black" points="21.5,-277 21.5,-296 102.5,-296 102.5,-277 21.5,-277"/>
<text text-anchor="middle" x="62" y="-284" font-family="Helvetica,sans-Serif" font-size="10.00">JKRFileLoader</text>
</a>
</g>
</g>
<!-- Node7&#45;&gt;Node6 -->
<g id="edge7" class="edge">
<title>Node7&#45;&gt;Node6</title>
<path fill="none" stroke="midnightblue" d="M100.88,-274.04C150.33,-259.47 234.58,-234.64 278.85,-221.59"/>
<polygon fill="midnightblue" stroke="midnightblue" points="99.79,-270.71 91.19,-276.9 101.77,-277.43 99.79,-270.71"/>
</g>
<!-- Node7&#45;&gt;Node7 -->
<g id="edge29" class="edge">
<title>Node7&#45;&gt;Node7</title>
<path fill="none" stroke="#9a32cd" stroke-dasharray="5,2" d="M112.82,-292.49C117.53,-291.26 120.5,-289.26 120.5,-286.5 120.5,-282.09 112.9,-279.62 102.73,-279.1"/>
<polygon fill="#9a32cd" stroke="#9a32cd" points="112.16,-289.05 102.73,-293.9 113.12,-295.99 112.16,-289.05"/>
<text text-anchor="middle" x="157" y="-284" font-family="Helvetica,sans-Serif" font-size="10.00"> sCurrentVolume</text>
</g>
<!-- Node8 -->
<g id="node8" class="node">
<title>Node8</title>
<g id="a_node8"><a xlink:href="structJKRDisposer.html" target="_top" xlink:title=" ">
<polygon fill="white" stroke="black" points="313,-350.5 313,-369.5 387,-369.5 387,-350.5 313,-350.5"/>
<text text-anchor="middle" x="350" y="-357.5" font-family="Helvetica,sans-Serif" font-size="10.00">JKRDisposer</text>
</a>
</g>
</g>
<!-- Node8&#45;&gt;Node7 -->
<g id="edge8" class="edge">
<title>Node8&#45;&gt;Node7</title>
<path fill="none" stroke="midnightblue" d="M305.75,-348.01C275.2,-340.42 233.63,-330.09 197,-321 162.78,-312.51 123.68,-302.8 96.4,-296.03"/>
<polygon fill="midnightblue" stroke="midnightblue" points="305.12,-351.46 315.67,-350.47 306.81,-344.66 305.12,-351.46"/>
</g>
<!-- Node9 -->
<g id="node9" class="node">
<title>Node9</title>
<g id="a_node9"><a xlink:href="structJKRHeap.html" target="_top" xlink:title=" ">
<polygon fill="white" stroke="black" points="590.5,-277 590.5,-296 649.5,-296 649.5,-277 590.5,-277"/>
<text text-anchor="middle" x="620" y="-284" font-family="Helvetica,sans-Serif" font-size="10.00">JKRHeap</text>
</a>
</g>
</g>
<!-- Node8&#45;&gt;Node9 -->
<g id="edge10" class="edge">
<title>Node8&#45;&gt;Node9</title>
<path fill="none" stroke="midnightblue" d="M370.78,-344.72C383.99,-336.38 401.79,-326.45 419,-321 488.48,-299 511.36,-320.94 582,-303 588.63,-301.32 595.63,-298.72 601.79,-296.12"/>
<polygon fill="midnightblue" stroke="midnightblue" points="368.5,-342.03 362.04,-350.43 372.33,-347.89 368.5,-342.03"/>
</g>
<!-- Node9&#45;&gt;Node1 -->
<g id="edge37" class="edge">
<title>Node9&#45;&gt;Node1</title>
<path fill="none" stroke="#9a32cd" stroke-dasharray="5,2" d="M638.2,-269.82C651.78,-256.31 668,-235.46 668,-213 668,-213 668,-213 668,-76 668,-54.83 656.66,-32.05 649.57,-19.87"/>
<polygon fill="#9a32cd" stroke="#9a32cd" points="635.56,-267.5 630.65,-276.89 640.34,-272.61 635.56,-267.5"/>
<text text-anchor="middle" x="680" y="-141.5" font-family="Helvetica,sans-Serif" font-size="10.00"> heap</text>
</g>
<!-- Node9&#45;&gt;Node2 -->
<g id="edge35" class="edge">
<title>Node9&#45;&gt;Node2</title>
<path fill="none" stroke="#9a32cd" stroke-dasharray="5,2" d="M620.55,-266.75C620.73,-237.26 618.32,-178.77 599,-134 590.8,-114.99 574.31,-97.09 563.73,-86.85"/>
<polygon fill="#9a32cd" stroke="#9a32cd" points="617.04,-266.81 620.37,-276.87 624.04,-266.93 617.04,-266.81"/>
<text text-anchor="middle" x="630" y="-175" font-family="Helvetica,sans-Serif" font-size="10.00"> mHeap</text>
</g>
<!-- Node9&#45;&gt;Node6 -->
<g id="edge30" class="edge">
<title>Node9&#45;&gt;Node6</title>
<path fill="none" stroke="#9a32cd" stroke-dasharray="5,2" d="M591.56,-273.29C588.36,-272.1 585.13,-270.97 582,-270 481.96,-238.86 453.59,-244.24 351,-223 348.15,-222.41 345.2,-221.77 342.23,-221.12"/>
<polygon fill="#9a32cd" stroke="#9a32cd" points="590.31,-276.56 600.9,-276.97 592.88,-270.05 590.31,-276.56"/>
<text text-anchor="middle" x="528" y="-244" font-family="Helvetica,sans-Serif" font-size="10.00"> mHeap</text>
</g>
<!-- Node9&#45;&gt;Node8 -->
<g id="edge9" class="edge">
<title>Node9&#45;&gt;Node8</title>
<path fill="none" stroke="#9a32cd" stroke-dasharray="5,2" d="M591.83,-299.86C588.56,-301.04 585.23,-302.12 582,-303 529.13,-317.45 513.24,-308 460,-321 428.4,-328.72 393.04,-341.76 371.15,-350.37"/>
<polygon fill="#9a32cd" stroke="#9a32cd" points="593.32,-303.03 601.37,-296.14 590.78,-296.51 593.32,-303.03"/>
<text text-anchor="middle" x="477" y="-324" font-family="Helvetica,sans-Serif" font-size="10.00"> mHeap</text>
</g>
<!-- Node9&#45;&gt;Node9 -->
<g id="edge11" class="edge">
<title>Node9&#45;&gt;Node9</title>
<path fill="none" stroke="#9a32cd" stroke-dasharray="5,2" d="M659.67,-292.95C664.41,-291.77 667.5,-289.62 667.5,-286.5 667.5,-281.5 659.58,-279 649.69,-279"/>
<polygon fill="#9a32cd" stroke="#9a32cd" points="659.26,-289.47 649.69,-294 660,-296.43 659.26,-289.47"/>
<text text-anchor="middle" x="699" y="-295" font-family="Helvetica,sans-Serif" font-size="10.00"> sCurrentHeap</text>
<text text-anchor="middle" x="699" y="-284" font-family="Helvetica,sans-Serif" font-size="10.00">sRootHeap</text>
<text text-anchor="middle" x="699" y="-273" font-family="Helvetica,sans-Serif" font-size="10.00">sSystemHeap</text>
</g>
<!-- Node24 -->
<g id="node24" class="node">
<title>Node24</title>
<g id="a_node24"><a xlink:href="structJKRSolidHeap.html" target="_top" xlink:title=" ">
<polygon fill="white" stroke="black" points="696,-202.5 696,-221.5 776,-221.5 776,-202.5 696,-202.5"/>
<text text-anchor="middle" x="736" y="-209.5" font-family="Helvetica,sans-Serif" font-size="10.00">JKRSolidHeap</text>
</a>
</g>
</g>
<!-- Node9&#45;&gt;Node24 -->
<g id="edge39" class="edge">
<title>Node9&#45;&gt;Node24</title>
<path fill="none" stroke="midnightblue" d="M646.09,-272.37C657.33,-266.47 670.5,-259.21 682,-252 697.48,-242.29 714.42,-229.71 725.12,-221.5"/>
<polygon fill="midnightblue" stroke="midnightblue" points="644.45,-269.28 637.18,-276.98 647.67,-275.49 644.45,-269.28"/>
</g>
<!-- Node10 -->
<g id="node10" class="node">
<title>Node10</title>
<g id="a_node10"><a xlink:href="structOSMutex.html" target="_top" xlink:title=" ">
<polygon fill="white" stroke="black" points="601.5,-350.5 601.5,-369.5 658.5,-369.5 658.5,-350.5 601.5,-350.5"/>
<text text-anchor="middle" x="630" y="-357.5" font-family="Helvetica,sans-Serif" font-size="10.00">OSMutex</text>
</a>
</g>
</g>
<!-- Node10&#45;&gt;Node9 -->
<g id="edge12" class="edge">
<title>Node10&#45;&gt;Node9</title>
<path fill="none" stroke="#9a32cd" stroke-dasharray="5,2" d="M627.36,-340.09C625.38,-325.93 622.76,-307.2 621.24,-296.34"/>
<polygon fill="#9a32cd" stroke="#9a32cd" points="623.92,-340.81 628.77,-350.23 630.85,-339.84 623.92,-340.81"/>
<text text-anchor="middle" x="644.5" y="-324" font-family="Helvetica,sans-Serif" font-size="10.00"> mMutex</text>
</g>
<!-- Node11 -->
<g id="node11" class="node">
<title>Node11</title>
<g id="a_node11"><a xlink:href="classJSUTree.html" target="_top" xlink:title=" ">
<polygon fill="white" stroke="black" points="431,-350.5 431,-369.5 545,-369.5 545,-350.5 431,-350.5"/>
<text text-anchor="middle" x="488" y="-357.5" font-family="Helvetica,sans-Serif" font-size="10.00">JSUTree&lt; JKRHeap &gt;</text>
</a>
</g>
</g>
<!-- Node11&#45;&gt;Node9 -->
<g id="edge13" class="edge">
<title>Node11&#45;&gt;Node9</title>
<path fill="none" stroke="#9a32cd" stroke-dasharray="5,2" d="M493.39,-340.72C496.34,-333.61 500.71,-325.99 507,-321 533.84,-299.68 549.37,-313.5 582,-303 588.1,-301.04 594.61,-298.54 600.49,-296.12"/>
<polygon fill="#9a32cd" stroke="#9a32cd" points="490,-339.8 490.02,-350.4 496.61,-342.1 490,-339.8"/>
<text text-anchor="middle" x="533" y="-324" font-family="Helvetica,sans-Serif" font-size="10.00"> mChildTree</text>
</g>
<!-- Node12 -->
<g id="node12" class="node">
<title>Node12</title>
<g id="a_node12"><a xlink:href="structJSUList.html" target="_top" xlink:title=" ">
<polygon fill="white" stroke="black" points="387.5,-464.5 387.5,-483.5 498.5,-483.5 498.5,-464.5 387.5,-464.5"/>
<text text-anchor="middle" x="443" y="-471.5" font-family="Helvetica,sans-Serif" font-size="10.00">JSUList&lt; JKRHeap &gt;</text>
</a>
</g>
</g>
<!-- Node12&#45;&gt;Node11 -->
<g id="edge14" class="edge">
<title>Node12&#45;&gt;Node11</title>
<path fill="none" stroke="midnightblue" d="M491.97,-459.82C497.9,-456.26 503.19,-451.74 507,-446 523.05,-421.81 504.34,-386.09 493.98,-369.75"/>
<polygon fill="midnightblue" stroke="midnightblue" points="490.28,-456.76 482.93,-464.39 493.44,-463 490.28,-456.76"/>
</g>
<!-- Node13 -->
<g id="node13" class="node">
<title>Node13</title>
<g id="a_node13"><a xlink:href="structJSUPtrList.html" target="_top" xlink:title=" ">
<polygon fill="white" stroke="black" points="336.5,-582.5 336.5,-601.5 401.5,-601.5 401.5,-582.5 336.5,-582.5"/>
<text text-anchor="middle" x="369" y="-589.5" font-family="Helvetica,sans-Serif" font-size="10.00">JSUPtrList</text>
</a>
</g>
</g>
<!-- Node13&#45;&gt;Node12 -->
<g id="edge15" class="edge">
<title>Node13&#45;&gt;Node12</title>
<path fill="none" stroke="midnightblue" d="M383.85,-574.54C386.68,-571.14 389.52,-567.53 392,-564 411.67,-536.03 430.52,-499.95 438.72,-483.66"/>
<polygon fill="midnightblue" stroke="midnightblue" points="381,-572.48 377.1,-582.34 386.29,-577.07 381,-572.48"/>
</g>
<!-- Node14 -->
<g id="node14" class="node">
<title>Node14</title>
<g id="a_node14"><a xlink:href="structJSUPtrLink.html" target="_top" xlink:title=" ">
<polygon fill="white" stroke="black" points="278,-503.5 278,-522.5 346,-522.5 346,-503.5 278,-503.5"/>
<text text-anchor="middle" x="312" y="-510.5" font-family="Helvetica,sans-Serif" font-size="10.00">JSUPtrLink</text>
</a>
</g>
</g>
<!-- Node13&#45;&gt;Node14 -->
<g id="edge17" class="edge">
<title>Node13&#45;&gt;Node14</title>
<path fill="none" stroke="#9a32cd" stroke-dasharray="5,2" d="M363.21,-572.84C359.54,-563.08 354.13,-551.2 347,-542 341.09,-534.37 332.7,-527.56 325.61,-522.57"/>
<polygon fill="#9a32cd" stroke="#9a32cd" points="359.93,-574.06 366.51,-582.37 366.54,-571.77 359.93,-574.06"/>
<text text-anchor="middle" x="374" y="-550.5" font-family="Helvetica,sans-Serif" font-size="10.00"> mList</text>
</g>
<!-- Node16 -->
<g id="node16" class="node">
<title>Node16</title>
<g id="a_node16"><a xlink:href="structJSUList.html" target="_top" xlink:title=" ">
<polygon fill="white" stroke="black" points="508,-464.5 508,-483.5 634,-483.5 634,-464.5 508,-464.5"/>
<text text-anchor="middle" x="571" y="-471.5" font-family="Helvetica,sans-Serif" font-size="10.00">JSUList&lt; JKRDisposer &gt;</text>
</a>
</g>
</g>
<!-- Node13&#45;&gt;Node16 -->
<g id="edge22" class="edge">
<title>Node13&#45;&gt;Node16</title>
<path fill="none" stroke="midnightblue" d="M392.58,-577.46C434.63,-553.31 521.37,-503.5 556.12,-483.54"/>
<polygon fill="midnightblue" stroke="midnightblue" points="390.78,-574.46 383.85,-582.47 394.27,-580.53 390.78,-574.46"/>
</g>
<!-- Node18 -->
<g id="node18" class="node">
<title>Node18</title>
<g id="a_node18"><a xlink:href="structJSUList.html" target="_top" xlink:title=" ">
<polygon fill="white" stroke="black" points="0,-388.5 0,-407.5 134,-407.5 134,-388.5 0,-388.5"/>
<text text-anchor="middle" x="67" y="-395.5" font-family="Helvetica,sans-Serif" font-size="10.00">JSUList&lt; JKRFileLoader &gt;</text>
</a>
</g>
</g>
<!-- Node13&#45;&gt;Node18 -->
<g id="edge26" class="edge">
<title>Node13&#45;&gt;Node18</title>
<path fill="none" stroke="midnightblue" d="M335.44,-578.66C325.14,-574.45 313.91,-569.43 304,-564 211.21,-513.2 110.38,-434.05 77.79,-407.79"/>
<polygon fill="midnightblue" stroke="midnightblue" points="334.38,-582.01 344.96,-582.44 336.96,-575.5 334.38,-582.01"/>
</g>
<!-- Node14&#45;&gt;Node13 -->
<g id="edge16" class="edge">
<title>Node14&#45;&gt;Node13</title>
<path fill="none" stroke="#9a32cd" stroke-dasharray="5,2" d="M307.91,-532.71C306.76,-542.74 307.14,-554.87 313,-564 318.42,-572.45 327.3,-578.32 336.4,-582.37"/>
<polygon fill="#9a32cd" stroke="#9a32cd" points="311.41,-533.01 309.65,-522.56 304.51,-531.83 311.41,-533.01"/>
<text text-anchor="middle" x="330" y="-556" font-family="Helvetica,sans-Serif" font-size="10.00"> mHead</text>
<text text-anchor="middle" x="330" y="-545" font-family="Helvetica,sans-Serif" font-size="10.00">mTail</text>
</g>
<!-- Node14&#45;&gt;Node14 -->
<g id="edge18" class="edge">
<title>Node14&#45;&gt;Node14</title>
<path fill="none" stroke="#9a32cd" stroke-dasharray="5,2" d="M356.15,-518.96C360.92,-517.82 364,-515.83 364,-513 364,-508.47 356.13,-506.1 346.01,-505.89"/>
<polygon fill="#9a32cd" stroke="#9a32cd" points="355.55,-515.51 346.01,-520.11 356.34,-522.46 355.55,-515.51"/>
<text text-anchor="middle" x="379.5" y="-516" font-family="Helvetica,sans-Serif" font-size="10.00"> mNext</text>
<text text-anchor="middle" x="379.5" y="-505" font-family="Helvetica,sans-Serif" font-size="10.00">mPrev</text>
</g>
<!-- Node15 -->
<g id="node15" class="node">
<title>Node15</title>
<g id="a_node15"><a xlink:href="structJSULink.html" target="_top" xlink:title=" ">
<polygon fill="white" stroke="black" points="384.5,-426.5 384.5,-445.5 497.5,-445.5 497.5,-426.5 384.5,-426.5"/>
<text text-anchor="middle" x="441" y="-433.5" font-family="Helvetica,sans-Serif" font-size="10.00">JSULink&lt; JKRHeap &gt;</text>
</a>
</g>
</g>
<!-- Node14&#45;&gt;Node15 -->
<g id="edge20" class="edge">
<title>Node14&#45;&gt;Node15</title>
<path fill="none" stroke="midnightblue" d="M330.6,-497.05C343.67,-486.96 361.81,-473.76 379,-464 391.56,-456.87 406.36,-450.36 418.35,-445.52"/>
<polygon fill="midnightblue" stroke="midnightblue" points="328.14,-494.52 322.44,-503.45 332.47,-500.03 328.14,-494.52"/>
</g>
<!-- Node17 -->
<g id="node17" class="node">
<title>Node17</title>
<g id="a_node17"><a xlink:href="structJSULink.html" target="_top" xlink:title=" ">
<polygon fill="white" stroke="black" points="238,-426.5 238,-445.5 366,-445.5 366,-426.5 238,-426.5"/>
<text text-anchor="middle" x="302" y="-433.5" font-family="Helvetica,sans-Serif" font-size="10.00">JSULink&lt; JKRDisposer &gt;</text>
</a>
</g>
</g>
<!-- Node14&#45;&gt;Node17 -->
<g id="edge24" class="edge">
<title>Node14&#45;&gt;Node17</title>
<path fill="none" stroke="midnightblue" d="M309.53,-493.47C307.49,-478.15 304.68,-457.09 303.13,-445.5"/>
<polygon fill="midnightblue" stroke="midnightblue" points="306.06,-493.95 310.85,-503.4 313,-493.02 306.06,-493.95"/>
</g>
<!-- Node19 -->
<g id="node19" class="node">
<title>Node19</title>
<g id="a_node19"><a xlink:href="structJSULink.html" target="_top" xlink:title=" ">
<polygon fill="white" stroke="black" points="139,-388.5 139,-407.5 275,-407.5 275,-388.5 139,-388.5"/>
<text text-anchor="middle" x="207" y="-395.5" font-family="Helvetica,sans-Serif" font-size="10.00">JSULink&lt; JKRFileLoader &gt;</text>
</a>
</g>
</g>
<!-- Node14&#45;&gt;Node19 -->
<g id="edge28" class="edge">
<title>Node14&#45;&gt;Node19</title>
<path fill="none" stroke="midnightblue" d="M288.6,-497.71C270.47,-485.71 245.71,-467.16 229,-446 219.62,-434.12 213.08,-417.59 209.69,-407.63"/>
<polygon fill="midnightblue" stroke="midnightblue" points="287.09,-500.91 297.39,-503.37 290.88,-495.02 287.09,-500.91"/>
</g>
<!-- Node15&#45;&gt;Node11 -->
<g id="edge19" class="edge">
<title>Node15&#45;&gt;Node11</title>
<path fill="none" stroke="midnightblue" d="M452.2,-417.37C461.73,-402.37 475.01,-381.44 482.43,-369.77"/>
<polygon fill="midnightblue" stroke="midnightblue" points="448.98,-415.9 446.58,-426.22 454.89,-419.66 448.98,-415.9"/>
</g>
<!-- Node16&#45;&gt;Node9 -->
<g id="edge21" class="edge">
<title>Node16&#45;&gt;Node9</title>
<path fill="none" stroke="#9a32cd" stroke-dasharray="5,2" d="M572.96,-454.51C575.84,-430.17 582.1,-386.22 593,-350 599,-330.08 609.51,-308.01 615.49,-296.16"/>
<polygon fill="#9a32cd" stroke="#9a32cd" points="569.47,-454.16 571.84,-464.49 576.43,-454.94 569.47,-454.16"/>
<text text-anchor="middle" x="616" y="-395.5" font-family="Helvetica,sans-Serif" font-size="10.00"> mDisposerList</text>
</g>
<!-- Node17&#45;&gt;Node8 -->
<g id="edge23" class="edge">
<title>Node17&#45;&gt;Node8</title>
<path fill="none" stroke="#9a32cd" stroke-dasharray="5,2" d="M313.16,-417.8C322.91,-402.77 336.67,-381.56 344.31,-369.77"/>
<polygon fill="#9a32cd" stroke="#9a32cd" points="310.2,-415.93 307.69,-426.22 316.07,-419.74 310.2,-415.93"/>
<text text-anchor="middle" x="347" y="-395.5" font-family="Helvetica,sans-Serif" font-size="10.00"> mLink</text>
</g>
<!-- Node18&#45;&gt;Node7 -->
<g id="edge25" class="edge">
<title>Node18&#45;&gt;Node7</title>
<path fill="none" stroke="#9a32cd" stroke-dasharray="5,2" d="M66.14,-378.11C65.04,-354.08 63.19,-313.61 62.39,-296.05"/>
<polygon fill="#9a32cd" stroke="#9a32cd" points="62.66,-378.58 66.61,-388.41 69.65,-378.26 62.66,-378.58"/>
<text text-anchor="middle" x="95" y="-357.5" font-family="Helvetica,sans-Serif" font-size="10.00"> sVolumeList</text>
</g>
<!-- Node19&#45;&gt;Node7 -->
<g id="edge27" class="edge">
<title>Node19&#45;&gt;Node7</title>
<path fill="none" stroke="#9a32cd" stroke-dasharray="5,2" d="M187.38,-382.19C156.6,-358.94 97.95,-314.65 73.33,-296.05"/>
<polygon fill="#9a32cd" stroke="#9a32cd" points="185.53,-385.17 195.62,-388.41 189.75,-379.59 185.53,-385.17"/>
<text text-anchor="middle" x="209" y="-357.5" font-family="Helvetica,sans-Serif" font-size="10.00"> mFileLoaderLink</text>
</g>
<!-- Node20 -->
<g id="node20" class="node">
<title>Node20</title>
<g id="a_node20"><a xlink:href="structSArcDataInfo.html" target="_top" xlink:title=" ">
<polygon fill="white" stroke="black" points="211.5,-277 211.5,-296 286.5,-296 286.5,-277 211.5,-277"/>
<text text-anchor="middle" x="249" y="-284" font-family="Helvetica,sans-Serif" font-size="10.00">SArcDataInfo</text>
</a>
</g>
</g>
<!-- Node20&#45;&gt;Node6 -->
<g id="edge31" class="edge">
<title>Node20&#45;&gt;Node6</title>
<path fill="none" stroke="#9a32cd" stroke-dasharray="5,2" d="M250.84,-266.64C252.43,-258.13 255.42,-248.36 261,-241 267.42,-232.52 277.22,-226.1 286.22,-221.56"/>
<polygon fill="#9a32cd" stroke="#9a32cd" points="247.33,-266.41 249.43,-276.79 254.27,-267.37 247.33,-266.41"/>
<text text-anchor="middle" x="294.5" y="-244" font-family="Helvetica,sans-Serif" font-size="10.00"> mArcInfoBlock</text>
</g>
<!-- Node21 -->
<g id="node21" class="node">
<title>Node21</title>
<g id="a_node21"><a xlink:href="structJKRArchive_1_1SDIDirEntry.html" target="_top" xlink:title=" ">
<polygon fill="white" stroke="black" points="304.5,-277 304.5,-296 427.5,-296 427.5,-277 304.5,-277"/>
<text text-anchor="middle" x="366" y="-284" font-family="Helvetica,sans-Serif" font-size="10.00">JKRArchive::SDIDirEntry</text>
</a>
</g>
</g>
<!-- Node21&#45;&gt;Node6 -->
<g id="edge32" class="edge">
<title>Node21&#45;&gt;Node6</title>
<path fill="none" stroke="#9a32cd" stroke-dasharray="5,2" d="M352.85,-269.06C341.05,-254.31 324.2,-233.25 314.87,-221.59"/>
<polygon fill="#9a32cd" stroke="#9a32cd" points="350.14,-271.28 359.12,-276.9 355.6,-266.9 350.14,-271.28"/>
<text text-anchor="middle" x="359" y="-244" font-family="Helvetica,sans-Serif" font-size="10.00"> mNodes</text>
</g>
<!-- Node22 -->
<g id="node22" class="node">
<title>Node22</title>
<g id="a_node22"><a xlink:href="structJKRArchive_1_1SDIFileEntry.html" target="_top" xlink:title=" ">
<polygon fill="white" stroke="black" points="445.5,-277 445.5,-296 572.5,-296 572.5,-277 445.5,-277"/>
<text text-anchor="middle" x="509" y="-284" font-family="Helvetica,sans-Serif" font-size="10.00">JKRArchive::SDIFileEntry</text>
</a>
</g>
</g>
<!-- Node22&#45;&gt;Node6 -->
<g id="edge33" class="edge">
<title>Node22&#45;&gt;Node6</title>
<path fill="none" stroke="#9a32cd" stroke-dasharray="5,2" d="M475.7,-273.49C435.11,-258.85 367.53,-234.47 331.82,-221.59"/>
<polygon fill="#9a32cd" stroke="#9a32cd" points="474.56,-276.8 485.15,-276.9 476.93,-270.21 474.56,-276.8"/>
<text text-anchor="middle" x="430" y="-244" font-family="Helvetica,sans-Serif" font-size="10.00"> mFiles</text>
</g>
<!-- Node23 -->
<g id="node23" class="node">
<title>Node23</title>
<g id="a_node23"><a xlink:href="structSArcHeader.html" target="_top" xlink:title=" ">
<polygon fill="white" stroke="black" points="360,-202.5 360,-221.5 430,-221.5 430,-202.5 360,-202.5"/>
<text text-anchor="middle" x="395" y="-209.5" font-family="Helvetica,sans-Serif" font-size="10.00">SArcHeader</text>
</a>
</g>
</g>
<!-- Node23&#45;&gt;Node5 -->
<g id="edge34" class="edge">
<title>Node23&#45;&gt;Node5</title>
<path fill="none" stroke="#9a32cd" stroke-dasharray="5,2" d="M395,-192.04C395,-179.47 395,-163.56 395,-153.84"/>
<polygon fill="#9a32cd" stroke="#9a32cd" points="391.5,-192.37 395,-202.37 398.5,-192.37 391.5,-192.37"/>
<text text-anchor="middle" x="424" y="-175" font-family="Helvetica,sans-Serif" font-size="10.00"> mArcHeader</text>
</g>
<!-- Node24&#45;&gt;Node1 -->
<g id="edge38" class="edge">
<title>Node24&#45;&gt;Node1</title>
<path fill="none" stroke="#9a32cd" stroke-dasharray="5,2" d="M734.06,-191.89C729.8,-157.97 717.05,-86.29 682,-38 676.49,-30.4 668.17,-24.15 660.72,-19.58"/>
<polygon fill="#9a32cd" stroke="#9a32cd" points="730.63,-192.67 735.23,-202.21 737.58,-191.88 730.63,-192.67"/>
<text text-anchor="middle" x="744.5" y="-108" font-family="Helvetica,sans-Serif" font-size="10.00"> mDataHeap</text>
</g>
<!-- Node25 -->
<g id="node25" class="node">
<title>Node25</title>
<g id="a_node25"><a xlink:href="structJKRSolidHeap_1_1Unknown.html" target="_top" xlink:title=" ">
<polygon fill="white" stroke="black" points="749,-277 749,-296 875,-296 875,-277 749,-277"/>
<text text-anchor="middle" x="812" y="-284" font-family="Helvetica,sans-Serif" font-size="10.00">JKRSolidHeap::Unknown</text>
</a>
</g>
</g>
<!-- Node25&#45;&gt;Node24 -->
<g id="edge40" class="edge">
<title>Node25&#45;&gt;Node24</title>
<path fill="none" stroke="#9a32cd" stroke-dasharray="5,2" d="M795.63,-269.88C780.14,-255.1 757.45,-233.47 745,-221.59"/>
<polygon fill="#9a32cd" stroke="#9a32cd" points="793.33,-272.53 802.98,-276.9 798.16,-267.46 793.33,-272.53"/>
<text text-anchor="middle" x="799" y="-244" font-family="Helvetica,sans-Serif" font-size="10.00"> field_0x78</text>
</g>
<!-- Node25&#45;&gt;Node25 -->
<g id="edge41" class="edge">
<title>Node25&#45;&gt;Node25</title>
<path fill="none" stroke="#9a32cd" stroke-dasharray="5,2" d="M885.09,-291.9C890.01,-290.65 893,-288.85 893,-286.5 893,-282.83 885.72,-280.5 875.17,-279.53"/>
<polygon fill="#9a32cd" stroke="#9a32cd" points="884.5,-288.45 875.17,-293.47 885.59,-295.36 884.5,-288.45"/>
<text text-anchor="middle" x="908.5" y="-284" font-family="Helvetica,sans-Serif" font-size="10.00"> mNext</text>
</g>
</g>
</svg>
