<?xml version="1.0" encoding="UTF-8" standalone="no"?>
<!DOCTYPE svg PUBLIC "-//W3C//DTD SVG 1.1//EN"
 "http://www.w3.org/Graphics/SVG/1.1/DTD/svg11.dtd">
<!-- Generated by graphviz version 3.0.0 (20220413.0242)
 -->
<!-- Title: dRes_control_c Pages: 1 -->
<!--zoomable 688 -->
<svg id="main" version="1.1" xmlns="http://www.w3.org/2000/svg" xmlns:xlink="http://www.w3.org/1999/xlink" xml:space="preserve" onload="init(evt)">
<style type="text/css"><![CDATA[
.edge:hover path { stroke: red; }
.edge:hover polygon { stroke: red; fill: red; }
]]></style>
<script type="text/javascript"><![CDATA[
var edges = document.getElementsByTagName('g');
if (edges && edges.length) {
  for (var i=0;i<edges.length;i++) {
    if (edges[i].id.substr(0,4)=='edge') {
      edges[i].setAttribute('class','edge');
    }
  }
}
]]></script>
        <defs>
                <circle id="rim" cx="0" cy="0" r="7"/>
                <circle id="rim2" cx="0" cy="0" r="3.5"/>
                <g id="zoomPlus">
                        <use xlink:href="#rim" fill="#404040">
                                <set attributeName="fill" to="#808080" begin="zoomplus.mouseover" end="zoomplus.mouseout"/>
                        </use>
                        <path d="M-4,0h8M0,-4v8" fill="none" stroke="white" stroke-width="1.5" pointer-events="none"/>
                </g>
                <g id="zoomMin">
                        <use xlink:href="#rim" fill="#404040">
                                <set attributeName="fill" to="#808080" begin="zoomminus.mouseover" end="zoomminus.mouseout"/>
                        </use>
                        <path d="M-4,0h8" fill="none" stroke="white" stroke-width="1.5" pointer-events="none"/>
                </g>
                <g id="dirArrow">
                        <path fill="none" stroke="white" stroke-width="1.5" d="M0,-3.0v7 M-2.5,-0.5L0,-3.0L2.5,-0.5"/>
                </g>
               <g id="resetDef">
                       <use xlink:href="#rim2" fill="#404040">
                               <set attributeName="fill" to="#808080" begin="reset.mouseover" end="reset.mouseout"/>
                       </use>
               </g>
        </defs>

<script type="text/javascript">
var viewWidth = 932;
var viewHeight = 688;
var sectionId = 'dynsection-0';
</script>
<script xlink:href="svgpan.js"/>
<svg id="graph" class="graph">
<g id="viewport">
<title>dRes_control_c</title>
<polygon fill="white" stroke="transparent" points="-4,4 -4,-684 928,-684 928,4 -4,4"/>
<!-- Node1 -->
<g id="node1" class="node">
<title>Node1</title>
<g id="a_node1"><a xlink:title=" ">
<polygon fill="#bfbfbf" stroke="black" points="602,-0.5 602,-19.5 686,-19.5 686,-0.5 602,-0.5"/>
<text text-anchor="middle" x="644" y="-7.5" font-family="Helvetica,sans-Serif" font-size="10.00">dRes_control_c</text>
</a>
</g>
</g>
<!-- Node2 -->
<g id="node2" class="node">
<title>Node2</title>
<g id="a_node2"><a xlink:href="structdRes__info__c.html" target="_top" xlink:title=" ">
<polygon fill="white" stroke="black" points="608.5,-78.5 608.5,-97.5 679.5,-97.5 679.5,-78.5 608.5,-78.5"/>
<text text-anchor="middle" x="644" y="-85.5" font-family="Helvetica,sans-Serif" font-size="10.00">dRes_info_c</text>
</a>
</g>
</g>
<!-- Node2&#45;&gt;Node1 -->
<g id="edge1" class="edge">
<title>Node2&#45;&gt;Node1</title>
<path fill="none" stroke="#9a32cd" stroke-dasharray="5,2" d="M644,-68.22C644,-52.7 644,-31.36 644,-19.62"/>
<polygon fill="#9a32cd" stroke="#9a32cd" points="640.5,-68.28 644,-78.28 647.5,-68.28 640.5,-68.28"/>
<text text-anchor="middle" x="672" y="-52" font-family="Helvetica,sans-Serif" font-size="10.00"> mObjectInfo</text>
<text text-anchor="middle" x="672" y="-41" font-family="Helvetica,sans-Serif" font-size="10.00">mStageInfo</text>
</g>
<!-- Node3 -->
<g id="node3" class="node">
<title>Node3</title>
<g id="a_node3"><a xlink:href="structmDoDvdThd__mountArchive__c.html" target="_top" xlink:title=" ">
<polygon fill="white" stroke="black" points="481,-145.5 481,-164.5 627,-164.5 627,-145.5 481,-145.5"/>
<text text-anchor="middle" x="554" y="-152.5" font-family="Helvetica,sans-Serif" font-size="10.00">mDoDvdThd_mountArchive_c</text>
</a>
</g>
</g>
<!-- Node3&#45;&gt;Node2 -->
<g id="edge2" class="edge">
<title>Node3&#45;&gt;Node2</title>
<path fill="none" stroke="#9a32cd" stroke-dasharray="5,2" d="M564.68,-137.05C569.85,-129.86 576.55,-121.82 584,-116 594.09,-108.13 606.83,-101.98 617.98,-97.55"/>
<polygon fill="#9a32cd" stroke="#9a32cd" points="561.7,-135.22 559.02,-145.47 567.51,-139.13 561.7,-135.22"/>
<text text-anchor="middle" x="619" y="-119" font-family="Helvetica,sans-Serif" font-size="10.00"> mDMCommand</text>
</g>
<!-- Node4 -->
<g id="node4" class="node">
<title>Node4</title>
<g id="a_node4"><a xlink:href="classmDoDvdThd__command__c.html" target="_top" xlink:title=" ">
<polygon fill="white" stroke="black" points="460.5,-212.5 460.5,-231.5 589.5,-231.5 589.5,-212.5 460.5,-212.5"/>
<text text-anchor="middle" x="525" y="-219.5" font-family="Helvetica,sans-Serif" font-size="10.00">mDoDvdThd_command_c</text>
</a>
</g>
</g>
<!-- Node4&#45;&gt;Node3 -->
<g id="edge3" class="edge">
<title>Node4&#45;&gt;Node3</title>
<path fill="none" stroke="midnightblue" d="M533.12,-202.79C538.69,-190.31 545.83,-174.31 550.15,-164.63"/>
<polygon fill="midnightblue" stroke="midnightblue" points="529.79,-201.68 528.91,-212.23 536.18,-204.53 529.79,-201.68"/>
</g>
<!-- Node5 -->
<g id="node5" class="node">
<title>Node5</title>
<g id="a_node5"><a xlink:href="structnode__class.html" target="_top" xlink:title=" ">
<polygon fill="white" stroke="black" points="448,-280.5 448,-299.5 514,-299.5 514,-280.5 448,-280.5"/>
<text text-anchor="middle" x="481" y="-287.5" font-family="Helvetica,sans-Serif" font-size="10.00">node_class</text>
</a>
</g>
</g>
<!-- Node5&#45;&gt;Node4 -->
<g id="edge4" class="edge">
<title>Node5&#45;&gt;Node4</title>
<path fill="none" stroke="midnightblue" d="M492.37,-271.94C500.93,-259.11 512.29,-242.06 519.11,-231.84"/>
<polygon fill="midnightblue" stroke="midnightblue" points="489.39,-270.11 486.75,-280.37 495.21,-273.99 489.39,-270.11"/>
</g>
<!-- Node5&#45;&gt;Node5 -->
<g id="edge5" class="edge">
<title>Node5&#45;&gt;Node5</title>
<path fill="none" stroke="#9a32cd" stroke-dasharray="5,2" d="M524.65,-295.25C529.13,-294.22 532,-292.47 532,-290 532,-285.95 524.28,-283.83 514.35,-283.64"/>
<polygon fill="#9a32cd" stroke="#9a32cd" points="523.92,-291.81 514.35,-296.36 524.67,-298.77 523.92,-291.81"/>
<text text-anchor="middle" x="562" y="-293" font-family="Helvetica,sans-Serif" font-size="10.00"> mpNextNode</text>
<text text-anchor="middle" x="562" y="-282" font-family="Helvetica,sans-Serif" font-size="10.00">mpPrevNode</text>
</g>
<!-- Node6 -->
<g id="node6" class="node">
<title>Node6</title>
<g id="a_node6"><a xlink:href="structJKRMemArchive.html" target="_top" xlink:title=" ">
<polygon fill="white" stroke="black" points="350,-212.5 350,-231.5 440,-231.5 440,-212.5 350,-212.5"/>
<text text-anchor="middle" x="395" y="-219.5" font-family="Helvetica,sans-Serif" font-size="10.00">JKRMemArchive</text>
</a>
</g>
</g>
<!-- Node6&#45;&gt;Node3 -->
<g id="edge6" class="edge">
<title>Node6&#45;&gt;Node3</title>
<path fill="none" stroke="#9a32cd" stroke-dasharray="5,2" d="M425.73,-208.44C457.31,-195.53 505.62,-175.78 533.05,-164.56"/>
<polygon fill="#9a32cd" stroke="#9a32cd" points="424.05,-205.34 416.11,-212.37 426.69,-211.82 424.05,-205.34"/>
<text text-anchor="middle" x="506" y="-186" font-family="Helvetica,sans-Serif" font-size="10.00"> mArchive</text>
</g>
<!-- Node7 -->
<g id="node7" class="node">
<title>Node7</title>
<g id="a_node7"><a xlink:href="structJKRArchive.html" target="_top" xlink:title=" ">
<polygon fill="white" stroke="black" points="274,-280.5 274,-299.5 342,-299.5 342,-280.5 274,-280.5"/>
<text text-anchor="middle" x="308" y="-287.5" font-family="Helvetica,sans-Serif" font-size="10.00">JKRArchive</text>
</a>
</g>
</g>
<!-- Node7&#45;&gt;Node2 -->
<g id="edge37" class="edge">
<title>Node7&#45;&gt;Node2</title>
<path fill="none" stroke="#9a32cd" stroke-dasharray="5,2" d="M312.09,-270.47C316.66,-253.5 325.52,-228.56 341,-212 414.45,-133.39 545.19,-103.76 608.15,-93.67"/>
<polygon fill="#9a32cd" stroke="#9a32cd" points="308.66,-269.77 309.69,-280.31 315.46,-271.43 308.66,-269.77"/>
<text text-anchor="middle" x="393" y="-186" font-family="Helvetica,sans-Serif" font-size="10.00"> mArchive</text>
</g>
<!-- Node7&#45;&gt;Node6 -->
<g id="edge7" class="edge">
<title>Node7&#45;&gt;Node6</title>
<path fill="none" stroke="midnightblue" d="M327.65,-274.1C344.91,-261 369.42,-242.4 383.62,-231.63"/>
<polygon fill="midnightblue" stroke="midnightblue" points="325.23,-271.54 319.37,-280.37 329.46,-277.12 325.23,-271.54"/>
</g>
<!-- Node8 -->
<g id="node8" class="node">
<title>Node8</title>
<g id="a_node8"><a xlink:href="structJKRFileLoader.html" target="_top" xlink:title=" ">
<polygon fill="white" stroke="black" points="21.5,-355 21.5,-374 102.5,-374 102.5,-355 21.5,-355"/>
<text text-anchor="middle" x="62" y="-362" font-family="Helvetica,sans-Serif" font-size="10.00">JKRFileLoader</text>
</a>
</g>
</g>
<!-- Node8&#45;&gt;Node7 -->
<g id="edge8" class="edge">
<title>Node8&#45;&gt;Node7</title>
<path fill="none" stroke="midnightblue" d="M100.88,-352.04C150.33,-337.47 234.58,-312.64 278.85,-299.59"/>
<polygon fill="midnightblue" stroke="midnightblue" points="99.79,-348.71 91.19,-354.9 101.77,-355.43 99.79,-348.71"/>
</g>
<!-- Node8&#45;&gt;Node8 -->
<g id="edge30" class="edge">
<title>Node8&#45;&gt;Node8</title>
<path fill="none" stroke="#9a32cd" stroke-dasharray="5,2" d="M112.82,-370.49C117.53,-369.26 120.5,-367.26 120.5,-364.5 120.5,-360.09 112.9,-357.62 102.73,-357.1"/>
<polygon fill="#9a32cd" stroke="#9a32cd" points="112.16,-367.05 102.73,-371.9 113.12,-373.99 112.16,-367.05"/>
<text text-anchor="middle" x="157" y="-362" font-family="Helvetica,sans-Serif" font-size="10.00"> sCurrentVolume</text>
</g>
<!-- Node9 -->
<g id="node9" class="node">
<title>Node9</title>
<g id="a_node9"><a xlink:href="structJKRDisposer.html" target="_top" xlink:title=" ">
<polygon fill="white" stroke="black" points="313,-428.5 313,-447.5 387,-447.5 387,-428.5 313,-428.5"/>
<text text-anchor="middle" x="350" y="-435.5" font-family="Helvetica,sans-Serif" font-size="10.00">JKRDisposer</text>
</a>
</g>
</g>
<!-- Node9&#45;&gt;Node8 -->
<g id="edge9" class="edge">
<title>Node9&#45;&gt;Node8</title>
<path fill="none" stroke="midnightblue" d="M305.75,-426.01C275.2,-418.42 233.63,-408.09 197,-399 162.78,-390.51 123.68,-380.8 96.4,-374.03"/>
<polygon fill="midnightblue" stroke="midnightblue" points="305.12,-429.46 315.67,-428.47 306.81,-422.66 305.12,-429.46"/>
</g>
<!-- Node10 -->
<g id="node10" class="node">
<title>Node10</title>
<g id="a_node10"><a xlink:href="structJKRHeap.html" target="_top" xlink:title=" ">
<polygon fill="white" stroke="black" points="590.5,-355 590.5,-374 649.5,-374 649.5,-355 590.5,-355"/>
<text text-anchor="middle" x="620" y="-362" font-family="Helvetica,sans-Serif" font-size="10.00">JKRHeap</text>
</a>
</g>
</g>
<!-- Node9&#45;&gt;Node10 -->
<g id="edge11" class="edge">
<title>Node9&#45;&gt;Node10</title>
<path fill="none" stroke="midnightblue" d="M370.78,-422.72C383.99,-414.38 401.79,-404.45 419,-399 488.48,-377 511.36,-398.94 582,-381 588.63,-379.32 595.63,-376.72 601.79,-374.12"/>
<polygon fill="midnightblue" stroke="midnightblue" points="368.5,-420.03 362.04,-428.43 372.33,-425.89 368.5,-420.03"/>
</g>
<!-- Node10&#45;&gt;Node2 -->
<g id="edge38" class="edge">
<title>Node10&#45;&gt;Node2</title>
<path fill="none" stroke="#9a32cd" stroke-dasharray="5,2" d="M638.2,-347.82C651.78,-334.31 668,-313.46 668,-291 668,-291 668,-291 668,-154 668,-132.83 656.66,-110.05 649.57,-97.87"/>
<polygon fill="#9a32cd" stroke="#9a32cd" points="635.56,-345.5 630.65,-354.89 640.34,-350.61 635.56,-345.5"/>
<text text-anchor="middle" x="680" y="-219.5" font-family="Helvetica,sans-Serif" font-size="10.00"> heap</text>
</g>
<!-- Node10&#45;&gt;Node3 -->
<g id="edge36" class="edge">
<title>Node10&#45;&gt;Node3</title>
<path fill="none" stroke="#9a32cd" stroke-dasharray="5,2" d="M620.55,-344.75C620.73,-315.26 618.32,-256.77 599,-212 590.8,-192.99 574.31,-175.09 563.73,-164.85"/>
<polygon fill="#9a32cd" stroke="#9a32cd" points="617.04,-344.81 620.37,-354.87 624.04,-344.93 617.04,-344.81"/>
<text text-anchor="middle" x="630" y="-253" font-family="Helvetica,sans-Serif" font-size="10.00"> mHeap</text>
</g>
<!-- Node10&#45;&gt;Node7 -->
<g id="edge31" class="edge">
<title>Node10&#45;&gt;Node7</title>
<path fill="none" stroke="#9a32cd" stroke-dasharray="5,2" d="M591.56,-351.29C588.36,-350.1 585.13,-348.97 582,-348 481.96,-316.86 453.59,-322.24 351,-301 348.15,-300.41 345.2,-299.77 342.23,-299.12"/>
<polygon fill="#9a32cd" stroke="#9a32cd" points="590.31,-354.56 600.9,-354.97 592.88,-348.05 590.31,-354.56"/>
<text text-anchor="middle" x="528" y="-322" font-family="Helvetica,sans-Serif" font-size="10.00"> mHeap</text>
</g>
<!-- Node10&#45;&gt;Node9 -->
<g id="edge10" class="edge">
<title>Node10&#45;&gt;Node9</title>
<path fill="none" stroke="#9a32cd" stroke-dasharray="5,2" d="M591.83,-377.86C588.56,-379.04 585.23,-380.12 582,-381 529.13,-395.45 513.24,-386 460,-399 428.4,-406.72 393.04,-419.76 371.15,-428.37"/>
<polygon fill="#9a32cd" stroke="#9a32cd" points="593.32,-381.03 601.37,-374.14 590.78,-374.51 593.32,-381.03"/>
<text text-anchor="middle" x="477" y="-402" font-family="Helvetica,sans-Serif" font-size="10.00"> mHeap</text>
</g>
<!-- Node10&#45;&gt;Node10 -->
<g id="edge12" class="edge">
<title>Node10&#45;&gt;Node10</title>
<path fill="none" stroke="#9a32cd" stroke-dasharray="5,2" d="M659.67,-370.95C664.41,-369.77 667.5,-367.62 667.5,-364.5 667.5,-359.5 659.58,-357 649.69,-357"/>
<polygon fill="#9a32cd" stroke="#9a32cd" points="659.26,-367.47 649.69,-372 660,-374.43 659.26,-367.47"/>
<text text-anchor="middle" x="699" y="-373" font-family="Helvetica,sans-Serif" font-size="10.00"> sCurrentHeap</text>
<text text-anchor="middle" x="699" y="-362" font-family="Helvetica,sans-Serif" font-size="10.00">sRootHeap</text>
<text text-anchor="middle" x="699" y="-351" font-family="Helvetica,sans-Serif" font-size="10.00">sSystemHeap</text>
</g>
<!-- Node25 -->
<g id="node25" class="node">
<title>Node25</title>
<g id="a_node25"><a xlink:href="structJKRSolidHeap.html" target="_top" xlink:title=" ">
<polygon fill="white" stroke="black" points="696,-280.5 696,-299.5 776,-299.5 776,-280.5 696,-280.5"/>
<text text-anchor="middle" x="736" y="-287.5" font-family="Helvetica,sans-Serif" font-size="10.00">JKRSolidHeap</text>
</a>
</g>
</g>
<!-- Node10&#45;&gt;Node25 -->
<g id="edge40" class="edge">
<title>Node10&#45;&gt;Node25</title>
<path fill="none" stroke="midnightblue" d="M646.09,-350.37C657.33,-344.47 670.5,-337.21 682,-330 697.48,-320.29 714.42,-307.71 725.12,-299.5"/>
<polygon fill="midnightblue" stroke="midnightblue" points="644.45,-347.28 637.18,-354.98 647.67,-353.49 644.45,-347.28"/>
</g>
<!-- Node11 -->
<g id="node11" class="node">
<title>Node11</title>
<g id="a_node11"><a xlink:href="structOSMutex.html" target="_top" xlink:title=" ">
<polygon fill="white" stroke="black" points="601.5,-428.5 601.5,-447.5 658.5,-447.5 658.5,-428.5 601.5,-428.5"/>
<text text-anchor="middle" x="630" y="-435.5" font-family="Helvetica,sans-Serif" font-size="10.00">OSMutex</text>
</a>
</g>
</g>
<!-- Node11&#45;&gt;Node10 -->
<g id="edge13" class="edge">
<title>Node11&#45;&gt;Node10</title>
<path fill="none" stroke="#9a32cd" stroke-dasharray="5,2" d="M627.36,-418.09C625.38,-403.93 622.76,-385.2 621.24,-374.34"/>
<polygon fill="#9a32cd" stroke="#9a32cd" points="623.92,-418.81 628.77,-428.23 630.85,-417.84 623.92,-418.81"/>
<text text-anchor="middle" x="644.5" y="-402" font-family="Helvetica,sans-Serif" font-size="10.00"> mMutex</text>
</g>
<!-- Node12 -->
<g id="node12" class="node">
<title>Node12</title>
<g id="a_node12"><a xlink:href="classJSUTree.html" target="_top" xlink:title=" ">
<polygon fill="white" stroke="black" points="431,-428.5 431,-447.5 545,-447.5 545,-428.5 431,-428.5"/>
<text text-anchor="middle" x="488" y="-435.5" font-family="Helvetica,sans-Serif" font-size="10.00">JSUTree&lt; JKRHeap &gt;</text>
</a>
</g>
</g>
<!-- Node12&#45;&gt;Node10 -->
<g id="edge14" class="edge">
<title>Node12&#45;&gt;Node10</title>
<path fill="none" stroke="#9a32cd" stroke-dasharray="5,2" d="M493.39,-418.72C496.34,-411.61 500.71,-403.99 507,-399 533.84,-377.68 549.37,-391.5 582,-381 588.1,-379.04 594.61,-376.54 600.49,-374.12"/>
<polygon fill="#9a32cd" stroke="#9a32cd" points="490,-417.8 490.02,-428.4 496.61,-420.1 490,-417.8"/>
<text text-anchor="middle" x="533" y="-402" font-family="Helvetica,sans-Serif" font-size="10.00"> mChildTree</text>
</g>
<!-- Node13 -->
<g id="node13" class="node">
<title>Node13</title>
<g id="a_node13"><a xlink:href="structJSUList.html" target="_top" xlink:title=" ">
<polygon fill="white" stroke="black" points="387.5,-542.5 387.5,-561.5 498.5,-561.5 498.5,-542.5 387.5,-542.5"/>
<text text-anchor="middle" x="443" y="-549.5" font-family="Helvetica,sans-Serif" font-size="10.00">JSUList&lt; JKRHeap &gt;</text>
</a>
</g>
</g>
<!-- Node13&#45;&gt;Node12 -->
<g id="edge15" class="edge">
<title>Node13&#45;&gt;Node12</title>
<path fill="none" stroke="midnightblue" d="M491.97,-537.82C497.9,-534.26 503.19,-529.74 507,-524 523.05,-499.81 504.34,-464.09 493.98,-447.75"/>
<polygon fill="midnightblue" stroke="midnightblue" points="490.28,-534.76 482.93,-542.39 493.44,-541 490.28,-534.76"/>
</g>
<!-- Node14 -->
<g id="node14" class="node">
<title>Node14</title>
<g id="a_node14"><a xlink:href="structJSUPtrList.html" target="_top" xlink:title=" ">
<polygon fill="white" stroke="black" points="336.5,-660.5 336.5,-679.5 401.5,-679.5 401.5,-660.5 336.5,-660.5"/>
<text text-anchor="middle" x="369" y="-667.5" font-family="Helvetica,sans-Serif" font-size="10.00">JSUPtrList</text>
</a>
</g>
</g>
<!-- Node14&#45;&gt;Node13 -->
<g id="edge16" class="edge">
<title>Node14&#45;&gt;Node13</title>
<path fill="none" stroke="midnightblue" d="M383.85,-652.54C386.68,-649.14 389.52,-645.53 392,-642 411.67,-614.03 430.52,-577.95 438.72,-561.66"/>
<polygon fill="midnightblue" stroke="midnightblue" points="381,-650.48 377.1,-660.34 386.29,-655.07 381,-650.48"/>
</g>
<!-- Node15 -->
<g id="node15" class="node">
<title>Node15</title>
<g id="a_node15"><a xlink:href="structJSUPtrLink.html" target="_top" xlink:title=" ">
<polygon fill="white" stroke="black" points="278,-581.5 278,-600.5 346,-600.5 346,-581.5 278,-581.5"/>
<text text-anchor="middle" x="312" y="-588.5" font-family="Helvetica,sans-Serif" font-size="10.00">JSUPtrLink</text>
</a>
</g>
</g>
<!-- Node14&#45;&gt;Node15 -->
<g id="edge18" class="edge">
<title>Node14&#45;&gt;Node15</title>
<path fill="none" stroke="#9a32cd" stroke-dasharray="5,2" d="M363.21,-650.84C359.54,-641.08 354.13,-629.2 347,-620 341.09,-612.37 332.7,-605.56 325.61,-600.57"/>
<polygon fill="#9a32cd" stroke="#9a32cd" points="359.93,-652.06 366.51,-660.37 366.54,-649.77 359.93,-652.06"/>
<text text-anchor="middle" x="374" y="-628.5" font-family="Helvetica,sans-Serif" font-size="10.00"> mList</text>
</g>
<!-- Node17 -->
<g id="node17" class="node">
<title>Node17</title>
<g id="a_node17"><a xlink:href="structJSUList.html" target="_top" xlink:title=" ">
<polygon fill="white" stroke="black" points="508,-542.5 508,-561.5 634,-561.5 634,-542.5 508,-542.5"/>
<text text-anchor="middle" x="571" y="-549.5" font-family="Helvetica,sans-Serif" font-size="10.00">JSUList&lt; JKRDisposer &gt;</text>
</a>
</g>
</g>
<!-- Node14&#45;&gt;Node17 -->
<g id="edge23" class="edge">
<title>Node14&#45;&gt;Node17</title>
<path fill="none" stroke="midnightblue" d="M392.58,-655.46C434.63,-631.31 521.37,-581.5 556.12,-561.54"/>
<polygon fill="midnightblue" stroke="midnightblue" points="390.78,-652.46 383.85,-660.47 394.27,-658.53 390.78,-652.46"/>
</g>
<!-- Node19 -->
<g id="node19" class="node">
<title>Node19</title>
<g id="a_node19"><a xlink:href="structJSUList.html" target="_top" xlink:title=" ">
<polygon fill="white" stroke="black" points="0,-466.5 0,-485.5 134,-485.5 134,-466.5 0,-466.5"/>
<text text-anchor="middle" x="67" y="-473.5" font-family="Helvetica,sans-Serif" font-size="10.00">JSUList&lt; JKRFileLoader &gt;</text>
</a>
</g>
</g>
<!-- Node14&#45;&gt;Node19 -->
<g id="edge27" class="edge">
<title>Node14&#45;&gt;Node19</title>
<path fill="none" stroke="midnightblue" d="M335.44,-656.66C325.14,-652.45 313.91,-647.43 304,-642 211.21,-591.2 110.38,-512.05 77.79,-485.79"/>
<polygon fill="midnightblue" stroke="midnightblue" points="334.38,-660.01 344.96,-660.44 336.96,-653.5 334.38,-660.01"/>
</g>
<!-- Node15&#45;&gt;Node14 -->
<g id="edge17" class="edge">
<title>Node15&#45;&gt;Node14</title>
<path fill="none" stroke="#9a32cd" stroke-dasharray="5,2" d="M307.91,-610.71C306.76,-620.74 307.14,-632.87 313,-642 318.42,-650.45 327.3,-656.32 336.4,-660.37"/>
<polygon fill="#9a32cd" stroke="#9a32cd" points="311.41,-611.01 309.65,-600.56 304.51,-609.83 311.41,-611.01"/>
<text text-anchor="middle" x="330" y="-634" font-family="Helvetica,sans-Serif" font-size="10.00"> mHead</text>
<text text-anchor="middle" x="330" y="-623" font-family="Helvetica,sans-Serif" font-size="10.00">mTail</text>
</g>
<!-- Node15&#45;&gt;Node15 -->
<g id="edge19" class="edge">
<title>Node15&#45;&gt;Node15</title>
<path fill="none" stroke="#9a32cd" stroke-dasharray="5,2" d="M356.15,-596.96C360.92,-595.82 364,-593.83 364,-591 364,-586.47 356.13,-584.1 346.01,-583.89"/>
<polygon fill="#9a32cd" stroke="#9a32cd" points="355.55,-593.51 346.01,-598.11 356.34,-600.46 355.55,-593.51"/>
<text text-anchor="middle" x="379.5" y="-594" font-family="Helvetica,sans-Serif" font-size="10.00"> mNext</text>
<text text-anchor="middle" x="379.5" y="-583" font-family="Helvetica,sans-Serif" font-size="10.00">mPrev</text>
</g>
<!-- Node16 -->
<g id="node16" class="node">
<title>Node16</title>
<g id="a_node16"><a xlink:href="structJSULink.html" target="_top" xlink:title=" ">
<polygon fill="white" stroke="black" points="384.5,-504.5 384.5,-523.5 497.5,-523.5 497.5,-504.5 384.5,-504.5"/>
<text text-anchor="middle" x="441" y="-511.5" font-family="Helvetica,sans-Serif" font-size="10.00">JSULink&lt; JKRHeap &gt;</text>
</a>
</g>
</g>
<!-- Node15&#45;&gt;Node16 -->
<g id="edge21" class="edge">
<title>Node15&#45;&gt;Node16</title>
<path fill="none" stroke="midnightblue" d="M330.6,-575.05C343.67,-564.96 361.81,-551.76 379,-542 391.56,-534.87 406.36,-528.36 418.35,-523.52"/>
<polygon fill="midnightblue" stroke="midnightblue" points="328.14,-572.52 322.44,-581.45 332.47,-578.03 328.14,-572.52"/>
</g>
<!-- Node18 -->
<g id="node18" class="node">
<title>Node18</title>
<g id="a_node18"><a xlink:href="structJSULink.html" target="_top" xlink:title=" ">
<polygon fill="white" stroke="black" points="238,-504.5 238,-523.5 366,-523.5 366,-504.5 238,-504.5"/>
<text text-anchor="middle" x="302" y="-511.5" font-family="Helvetica,sans-Serif" font-size="10.00">JSULink&lt; JKRDisposer &gt;</text>
</a>
</g>
</g>
<!-- Node15&#45;&gt;Node18 -->
<g id="edge25" class="edge">
<title>Node15&#45;&gt;Node18</title>
<path fill="none" stroke="midnightblue" d="M309.53,-571.47C307.49,-556.15 304.68,-535.09 303.13,-523.5"/>
<polygon fill="midnightblue" stroke="midnightblue" points="306.06,-571.95 310.85,-581.4 313,-571.02 306.06,-571.95"/>
</g>
<!-- Node20 -->
<g id="node20" class="node">
<title>Node20</title>
<g id="a_node20"><a xlink:href="structJSULink.html" target="_top" xlink:title=" ">
<polygon fill="white" stroke="black" points="139,-466.5 139,-485.5 275,-485.5 275,-466.5 139,-466.5"/>
<text text-anchor="middle" x="207" y="-473.5" font-family="Helvetica,sans-Serif" font-size="10.00">JSULink&lt; JKRFileLoader &gt;</text>
</a>
</g>
</g>
<!-- Node15&#45;&gt;Node20 -->
<g id="edge29" class="edge">
<title>Node15&#45;&gt;Node20</title>
<path fill="none" stroke="midnightblue" d="M288.6,-575.71C270.47,-563.71 245.71,-545.16 229,-524 219.62,-512.12 213.08,-495.59 209.69,-485.63"/>
<polygon fill="midnightblue" stroke="midnightblue" points="287.09,-578.91 297.39,-581.37 290.88,-573.02 287.09,-578.91"/>
</g>
<!-- Node16&#45;&gt;Node12 -->
<g id="edge20" class="edge">
<title>Node16&#45;&gt;Node12</title>
<path fill="none" stroke="midnightblue" d="M452.2,-495.37C461.73,-480.37 475.01,-459.44 482.43,-447.77"/>
<polygon fill="midnightblue" stroke="midnightblue" points="448.98,-493.9 446.58,-504.22 454.89,-497.66 448.98,-493.9"/>
</g>
<!-- Node17&#45;&gt;Node10 -->
<g id="edge22" class="edge">
<title>Node17&#45;&gt;Node10</title>
<path fill="none" stroke="#9a32cd" stroke-dasharray="5,2" d="M572.96,-532.51C575.84,-508.17 582.1,-464.22 593,-428 599,-408.08 609.51,-386.01 615.49,-374.16"/>
<polygon fill="#9a32cd" stroke="#9a32cd" points="569.47,-532.16 571.84,-542.49 576.43,-532.94 569.47,-532.16"/>
<text text-anchor="middle" x="616" y="-473.5" font-family="Helvetica,sans-Serif" font-size="10.00"> mDisposerList</text>
</g>
<!-- Node18&#45;&gt;Node9 -->
<g id="edge24" class="edge">
<title>Node18&#45;&gt;Node9</title>
<path fill="none" stroke="#9a32cd" stroke-dasharray="5,2" d="M313.16,-495.8C322.91,-480.77 336.67,-459.56 344.31,-447.77"/>
<polygon fill="#9a32cd" stroke="#9a32cd" points="310.2,-493.93 307.69,-504.22 316.07,-497.74 310.2,-493.93"/>
<text text-anchor="middle" x="347" y="-473.5" font-family="Helvetica,sans-Serif" font-size="10.00"> mLink</text>
</g>
<!-- Node19&#45;&gt;Node8 -->
<g id="edge26" class="edge">
<title>Node19&#45;&gt;Node8</title>
<path fill="none" stroke="#9a32cd" stroke-dasharray="5,2" d="M66.14,-456.11C65.04,-432.08 63.19,-391.61 62.39,-374.05"/>
<polygon fill="#9a32cd" stroke="#9a32cd" points="62.66,-456.58 66.61,-466.41 69.65,-456.26 62.66,-456.58"/>
<text text-anchor="middle" x="95" y="-435.5" font-family="Helvetica,sans-Serif" font-size="10.00"> sVolumeList</text>
</g>
<!-- Node20&#45;&gt;Node8 -->
<g id="edge28" class="edge">
<title>Node20&#45;&gt;Node8</title>
<path fill="none" stroke="#9a32cd" stroke-dasharray="5,2" d="M187.38,-460.19C156.6,-436.94 97.95,-392.65 73.33,-374.05"/>
<polygon fill="#9a32cd" stroke="#9a32cd" points="185.53,-463.17 195.62,-466.41 189.75,-457.59 185.53,-463.17"/>
<text text-anchor="middle" x="209" y="-435.5" font-family="Helvetica,sans-Serif" font-size="10.00"> mFileLoaderLink</text>
</g>
<!-- Node21 -->
<g id="node21" class="node">
<title>Node21</title>
<g id="a_node21"><a xlink:href="structSArcDataInfo.html" target="_top" xlink:title=" ">
<polygon fill="white" stroke="black" points="211.5,-355 211.5,-374 286.5,-374 286.5,-355 211.5,-355"/>
<text text-anchor="middle" x="249" y="-362" font-family="Helvetica,sans-Serif" font-size="10.00">SArcDataInfo</text>
</a>
</g>
</g>
<!-- Node21&#45;&gt;Node7 -->
<g id="edge32" class="edge">
<title>Node21&#45;&gt;Node7</title>
<path fill="none" stroke="#9a32cd" stroke-dasharray="5,2" d="M250.84,-344.64C252.43,-336.13 255.42,-326.36 261,-319 267.42,-310.52 277.22,-304.1 286.22,-299.56"/>
<polygon fill="#9a32cd" stroke="#9a32cd" points="247.33,-344.41 249.43,-354.79 254.27,-345.37 247.33,-344.41"/>
<text text-anchor="middle" x="294.5" y="-322" font-family="Helvetica,sans-Serif" font-size="10.00"> mArcInfoBlock</text>
</g>
<!-- Node22 -->
<g id="node22" class="node">
<title>Node22</title>
<g id="a_node22"><a xlink:href="structJKRArchive_1_1SDIDirEntry.html" target="_top" xlink:title=" ">
<polygon fill="white" stroke="black" points="304.5,-355 304.5,-374 427.5,-374 427.5,-355 304.5,-355"/>
<text text-anchor="middle" x="366" y="-362" font-family="Helvetica,sans-Serif" font-size="10.00">JKRArchive::SDIDirEntry</text>
</a>
</g>
</g>
<!-- Node22&#45;&gt;Node7 -->
<g id="edge33" class="edge">
<title>Node22&#45;&gt;Node7</title>
<path fill="none" stroke="#9a32cd" stroke-dasharray="5,2" d="M352.85,-347.06C341.05,-332.31 324.2,-311.25 314.87,-299.59"/>
<polygon fill="#9a32cd" stroke="#9a32cd" points="350.14,-349.28 359.12,-354.9 355.6,-344.9 350.14,-349.28"/>
<text text-anchor="middle" x="359" y="-322" font-family="Helvetica,sans-Serif" font-size="10.00"> mNodes</text>
</g>
<!-- Node23 -->
<g id="node23" class="node">
<title>Node23</title>
<g id="a_node23"><a xlink:href="structJKRArchive_1_1SDIFileEntry.html" target="_top" xlink:title=" ">
<polygon fill="white" stroke="black" points="445.5,-355 445.5,-374 572.5,-374 572.5,-355 445.5,-355"/>
<text text-anchor="middle" x="509" y="-362" font-family="Helvetica,sans-Serif" font-size="10.00">JKRArchive::SDIFileEntry</text>
</a>
</g>
</g>
<!-- Node23&#45;&gt;Node7 -->
<g id="edge34" class="edge">
<title>Node23&#45;&gt;Node7</title>
<path fill="none" stroke="#9a32cd" stroke-dasharray="5,2" d="M475.7,-351.49C435.11,-336.85 367.53,-312.47 331.82,-299.59"/>
<polygon fill="#9a32cd" stroke="#9a32cd" points="474.56,-354.8 485.15,-354.9 476.93,-348.21 474.56,-354.8"/>
<text text-anchor="middle" x="430" y="-322" font-family="Helvetica,sans-Serif" font-size="10.00"> mFiles</text>
</g>
<!-- Node24 -->
<g id="node24" class="node">
<title>Node24</title>
<g id="a_node24"><a xlink:href="structSArcHeader.html" target="_top" xlink:title=" ">
<polygon fill="white" stroke="black" points="360,-280.5 360,-299.5 430,-299.5 430,-280.5 360,-280.5"/>
<text text-anchor="middle" x="395" y="-287.5" font-family="Helvetica,sans-Serif" font-size="10.00">SArcHeader</text>
</a>
</g>
</g>
<!-- Node24&#45;&gt;Node6 -->
<g id="edge35" class="edge">
<title>Node24&#45;&gt;Node6</title>
<path fill="none" stroke="#9a32cd" stroke-dasharray="5,2" d="M395,-270.04C395,-257.47 395,-241.56 395,-231.84"/>
<polygon fill="#9a32cd" stroke="#9a32cd" points="391.5,-270.37 395,-280.37 398.5,-270.37 391.5,-270.37"/>
<text text-anchor="middle" x="424" y="-253" font-family="Helvetica,sans-Serif" font-size="10.00"> mArcHeader</text>
</g>
<!-- Node25&#45;&gt;Node2 -->
<g id="edge39" class="edge">
<title>Node25&#45;&gt;Node2</title>
<path fill="none" stroke="#9a32cd" stroke-dasharray="5,2" d="M734.06,-269.89C729.8,-235.97 717.05,-164.29 682,-116 676.49,-108.4 668.17,-102.15 660.72,-97.58"/>
<polygon fill="#9a32cd" stroke="#9a32cd" points="730.63,-270.67 735.23,-280.21 737.58,-269.88 730.63,-270.67"/>
<text text-anchor="middle" x="744.5" y="-186" font-family="Helvetica,sans-Serif" font-size="10.00"> mDataHeap</text>
</g>
<!-- Node26 -->
<g id="node26" class="node">
<title>Node26</title>
<g id="a_node26"><a xlink:href="structJKRSolidHeap_1_1Unknown.html" target="_top" xlink:title=" ">
<polygon fill="white" stroke="black" points="749,-355 749,-374 875,-374 875,-355 749,-355"/>
<text text-anchor="middle" x="812" y="-362" font-family="Helvetica,sans-Serif" font-size="10.00">JKRSolidHeap::Unknown</text>
</a>
</g>
</g>
<!-- Node26&#45;&gt;Node25 -->
<g id="edge41" class="edge">
<title>Node26&#45;&gt;Node25</title>
<path fill="none" stroke="#9a32cd" stroke-dasharray="5,2" d="M795.63,-347.88C780.14,-333.1 757.45,-311.47 745,-299.59"/>
<polygon fill="#9a32cd" stroke="#9a32cd" points="793.33,-350.53 802.98,-354.9 798.16,-345.46 793.33,-350.53"/>
<text text-anchor="middle" x="799" y="-322" font-family="Helvetica,sans-Serif" font-size="10.00"> field_0x78</text>
</g>
<!-- Node26&#45;&gt;Node26 -->
<g id="edge42" class="edge">
<title>Node26&#45;&gt;Node26</title>
<path fill="none" stroke="#9a32cd" stroke-dasharray="5,2" d="M885.09,-369.9C890.01,-368.65 893,-366.85 893,-364.5 893,-360.83 885.72,-358.5 875.17,-357.53"/>
<polygon fill="#9a32cd" stroke="#9a32cd" points="884.5,-366.45 875.17,-371.47 885.59,-373.36 884.5,-366.45"/>
<text text-anchor="middle" x="908.5" y="-362" font-family="Helvetica,sans-Serif" font-size="10.00"> mNext</text>
</g>
</g>
</svg>
        <g id="navigator" transform="translate(0 0)" fill="#404254">
                <rect fill="#f2f5e9" fill-opacity="0.5" stroke="#606060" stroke-width=".5" x="0" y="0" width="60" height="60"/>
                <use id="zoomplus" xlink:href="#zoomPlus" x="17" y="9" onmousedown="handleZoom(evt,'in')"/>
                <use id="zoomminus" xlink:href="#zoomMin" x="42" y="9" onmousedown="handleZoom(evt,'out')"/>
                <use id="reset" xlink:href="#resetDef" x="30" y="36" onmousedown="handleReset()"/>
                <g id="arrowUp" xlink:href="#dirArrow" transform="translate(30 24)" onmousedown="handlePan(0,-1)">
                  <use xlink:href="#rim" fill="#404040">
                        <set attributeName="fill" to="#808080" begin="arrowUp.mouseover" end="arrowUp.mouseout"/>
                  </use>
                  <path fill="none" stroke="white" stroke-width="1.5" d="M0,-3.0v7 M-2.5,-0.5L0,-3.0L2.5,-0.5"/>
                </g>
                <g id="arrowRight" xlink:href="#dirArrow" transform="rotate(90) translate(36 -43)" onmousedown="handlePan(1,0)">
                  <use xlink:href="#rim" fill="#404040">
                        <set attributeName="fill" to="#808080" begin="arrowRight.mouseover" end="arrowRight.mouseout"/>
                  </use>
                  <path fill="none" stroke="white" stroke-width="1.5" d="M0,-3.0v7 M-2.5,-0.5L0,-3.0L2.5,-0.5"/>
                </g>
                <g id="arrowDown" xlink:href="#dirArrow" transform="rotate(180) translate(-30 -48)" onmousedown="handlePan(0,1)">
                  <use xlink:href="#rim" fill="#404040">
                        <set attributeName="fill" to="#808080" begin="arrowDown.mouseover" end="arrowDown.mouseout"/>
                  </use>
                  <path fill="none" stroke="white" stroke-width="1.5" d="M0,-3.0v7 M-2.5,-0.5L0,-3.0L2.5,-0.5"/>
                </g>
                <g id="arrowLeft" xlink:href="#dirArrow" transform="rotate(270) translate(-36 17)" onmousedown="handlePan(-1,0)">
                  <use xlink:href="#rim" fill="#404040">
                        <set attributeName="fill" to="#808080" begin="arrowLeft.mouseover" end="arrowLeft.mouseout"/>
                  </use>
                  <path fill="none" stroke="white" stroke-width="1.5" d="M0,-3.0v7 M-2.5,-0.5L0,-3.0L2.5,-0.5"/>
                </g>
        </g>
        <svg viewBox="0 0 15 15" width="100%" height="30px" preserveAspectRatio="xMaxYMin meet">
         <g id="arrow_out" transform="scale(0.3 0.3)">
          <a xlink:href="structdRes__control__c__coll__graph_org.svg" target="_base">
           <rect id="button" ry="5" rx="5" y="6" x="6" height="38" width="38"
                fill="#f2f5e9" fill-opacity="0.5" stroke="#606060" stroke-width="1.0"/>
           <path id="arrow"
             d="M 11.500037,31.436501 C 11.940474,20.09759 22.043105,11.32322 32.158766,21.979434 L 37.068811,17.246167 C 37.068811,17.246167 37.088388,32 37.088388,32 L 22.160133,31.978069 C 22.160133,31.978069 26.997745,27.140456 26.997745,27.140456 C 18.528582,18.264221 13.291696,25.230495 11.500037,31.436501 z"
             style="fill:#404040;"/>
          </a>
         </g>
        </svg>
</svg>
