<?xml version="1.0" encoding="UTF-8" standalone="no"?>
<!DOCTYPE svg PUBLIC "-//W3C//DTD SVG 1.1//EN"
 "http://www.w3.org/Graphics/SVG/1.1/DTD/svg11.dtd">
<!-- Generated by graphviz version 3.0.0 (20220413.0242)
 -->
<!-- Title: JStudio_JStage::TCreateObject Pages: 1 -->
<svg width="283pt" height="164pt"
 viewBox="0.00 0.00 283.00 164.00" xmlns="http://www.w3.org/2000/svg" xmlns:xlink="http://www.w3.org/1999/xlink">
<g id="graph0" class="graph" transform="scale(1 1) rotate(0) translate(4 160)">
<title>JStudio_JStage::TCreateObject</title>
<polygon fill="white" stroke="transparent" points="-4,4 -4,-160 279,-160 279,4 -4,4"/>
<!-- Node1 -->
<g id="node1" class="node">
<title>Node1</title>
<g id="a_node1"><a xlink:title=" ">
<polygon fill="#bfbfbf" stroke="black" points="63.5,-0.5 63.5,-19.5 216.5,-19.5 216.5,-0.5 63.5,-0.5"/>
<text text-anchor="middle" x="140" y="-7.5" font-family="Helvetica,sans-Serif" font-size="10.00">JStudio_JStage::TCreateObject</text>
</a>
</g>
</g>
<!-- Node2 -->
<g id="node2" class="node">
<title>Node2</title>
<g id="a_node2"><a xlink:href="structJStudio_1_1TCreateObject.html" target="_top" xlink:title=" ">
<polygon fill="white" stroke="black" points="21.5,-67.5 21.5,-86.5 138.5,-86.5 138.5,-67.5 21.5,-67.5"/>
<text text-anchor="middle" x="80" y="-74.5" font-family="Helvetica,sans-Serif" font-size="10.00">JStudio::TCreateObject</text>
</a>
</g>
</g>
<!-- Node2&#45;&gt;Node1 -->
<g id="edge1" class="edge">
<title>Node2&#45;&gt;Node1</title>
<path fill="none" stroke="midnightblue" d="M95.11,-59.63C106.84,-46.92 122.65,-29.8 132.04,-19.63"/>
<polygon fill="midnightblue" stroke="midnightblue" points="92.3,-57.51 88.09,-67.23 97.45,-62.26 92.3,-57.51"/>
</g>
<!-- Node3 -->
<g id="node3" class="node">
<title>Node3</title>
<g id="a_node3"><a xlink:href="structJGadget_1_1TLinkListNode.html" target="_top" xlink:title=" ">
<polygon fill="white" stroke="black" points="0,-135.5 0,-154.5 122,-154.5 122,-135.5 0,-135.5"/>
<text text-anchor="middle" x="61" y="-142.5" font-family="Helvetica,sans-Serif" font-size="10.00">JGadget::TLinkListNode</text>
</a>
</g>
</g>
<!-- Node3&#45;&gt;Node2 -->
<g id="edge2" class="edge">
<title>Node3&#45;&gt;Node2</title>
<path fill="none" stroke="#9a32cd" stroke-dasharray="5,2" d="M66.35,-125.42C69.98,-112.8 74.63,-96.66 77.45,-86.84"/>
<polygon fill="#9a32cd" stroke="#9a32cd" points="62.89,-124.79 63.48,-135.37 69.61,-126.73 62.89,-124.79"/>
<text text-anchor="middle" x="90" y="-108" font-family="Helvetica,sans-Serif" font-size="10.00"> mNode</text>
</g>
<!-- Node3&#45;&gt;Node3 -->
<g id="edge3" class="edge">
<title>Node3&#45;&gt;Node3</title>
<path fill="none" stroke="#9a32cd" stroke-dasharray="5,2" d="M132.49,-149.54C137.17,-148.49 140,-146.97 140,-145 140,-141.85 132.75,-139.86 122.28,-139.05"/>
<polygon fill="#9a32cd" stroke="#9a32cd" points="131.71,-146.12 122.28,-150.95 132.66,-153.05 131.71,-146.12"/>
<text text-anchor="middle" x="155.5" y="-148" font-family="Helvetica,sans-Serif" font-size="10.00"> mNext</text>
<text text-anchor="middle" x="155.5" y="-137" font-family="Helvetica,sans-Serif" font-size="10.00">mPrev</text>
</g>
<!-- Node4 -->
<g id="node4" class="node">
<title>Node4</title>
<g id="a_node4"><a xlink:href="structJStage_1_1TSystem.html" target="_top" xlink:title=" ">
<polygon fill="white" stroke="black" points="180.5,-67.5 180.5,-86.5 271.5,-86.5 271.5,-67.5 180.5,-67.5"/>
<text text-anchor="middle" x="226" y="-74.5" font-family="Helvetica,sans-Serif" font-size="10.00">JStage::TSystem</text>
</a>
</g>
</g>
<!-- Node4&#45;&gt;Node1 -->
<g id="edge4" class="edge">
<title>Node4&#45;&gt;Node1</title>
<path fill="none" stroke="#9a32cd" stroke-dasharray="5,2" d="M206.24,-61.07C189.27,-48.24 165.38,-30.19 151.41,-19.63"/>
<polygon fill="#9a32cd" stroke="#9a32cd" points="204.31,-64 214.4,-67.23 208.53,-58.41 204.31,-64"/>
<text text-anchor="middle" x="221" y="-41" font-family="Helvetica,sans-Serif" font-size="10.00"> pJSGSystem_</text>
</g>
<!-- Node5 -->
<g id="node5" class="node">
<title>Node5</title>
<g id="a_node5"><a xlink:href="structJStage_1_1TObject.html" target="_top" xlink:title=" ">
<polygon fill="white" stroke="black" points="189,-135.5 189,-154.5 275,-154.5 275,-135.5 189,-135.5"/>
<text text-anchor="middle" x="232" y="-142.5" font-family="Helvetica,sans-Serif" font-size="10.00">JStage::TObject</text>
</a>
</g>
</g>
<!-- Node5&#45;&gt;Node4 -->
<g id="edge5" class="edge">
<title>Node5&#45;&gt;Node4</title>
<path fill="none" stroke="midnightblue" d="M230.28,-125.04C229.13,-112.47 227.69,-96.56 226.8,-86.84"/>
<polygon fill="midnightblue" stroke="midnightblue" points="226.82,-125.73 231.22,-135.37 233.8,-125.1 226.82,-125.73"/>
</g>
</g>
</svg>
