<?xml version="1.0" encoding="UTF-8" standalone="no"?>
<!DOCTYPE svg PUBLIC "-//W3C//DTD SVG 1.1//EN"
 "http://www.w3.org/Graphics/SVG/1.1/DTD/svg11.dtd">
<!-- Generated by graphviz version 7.0.4 (20221203.1631)
 -->
<!-- Title: J2DPicture Pages: 1 -->
<svg width="1073pt" height="396pt"
 viewBox="0.00 0.00 1073.00 395.50" xmlns="http://www.w3.org/2000/svg" xmlns:xlink="http://www.w3.org/1999/xlink">
<g id="graph0" class="graph" transform="scale(1 1) rotate(0) translate(4 391.5)">
<title>J2DPicture</title>
<!-- Node1 -->
<g id="node1" class="node">
<title>Node1</title>
<g id="a_node1"><a xlink:title=" ">
<polygon fill="#999999" stroke="#666666" points="1065,-133 1000,-133 1000,-114 1065,-114 1065,-133"/>
<text text-anchor="middle" x="1032.5" y="-121" font-family="Helvetica,sans-Serif" font-size="10.00">J2DPicture</text>
</a>
</g>
</g>
<!-- Node2 -->
<g id="node2" class="node">
<title>Node2</title>
<g id="a_node2"><a xlink:href="structJ2DPane.html" target="_top" xlink:title=" ">
<polygon fill="white" stroke="#666666" points="867.5,-301 811.5,-301 811.5,-282 867.5,-282 867.5,-301"/>
<text text-anchor="middle" x="839.5" y="-289" font-family="Helvetica,sans-Serif" font-size="10.00">J2DPane</text>
</a>
</g>
</g>
<!-- Node2&#45;&gt;Node1 -->
<g id="edge1" class="edge">
<title>Node2&#45;&gt;Node1</title>
<path fill="none" stroke="#63b8ff" d="M862.51,-274.82C890.95,-252.97 941.6,-213.01 982,-175.5 996.98,-161.59 1013.08,-144.16 1022.72,-133.43"/>
<polygon fill="#63b8ff" stroke="#63b8ff" points="860.45,-271.99 854.63,-280.84 864.71,-277.55 860.45,-271.99"/>
</g>
<!-- Node3 -->
<g id="node3" class="node">
<title>Node3</title>
<g id="a_node3"><a xlink:href="structJGeometry_1_1TBox2.html" target="_top" xlink:title=" ">
<polygon fill="white" stroke="#666666" points="668,-380 542,-380 542,-361 668,-361 668,-380"/>
<text text-anchor="middle" x="605" y="-368" font-family="Helvetica,sans-Serif" font-size="10.00">JGeometry::TBox2&lt; f32 &gt;</text>
</a>
</g>
</g>
<!-- Node3&#45;&gt;Node2 -->
<g id="edge2" class="edge">
<title>Node3&#45;&gt;Node2</title>
<path fill="none" stroke="#9a32cd" stroke-dasharray="5,2" d="M645.71,-357.01C692.93,-340.96 770.46,-314.62 811.33,-300.73"/>
<polygon fill="#9a32cd" stroke="#9a32cd" points="644.75,-353.64 636.41,-360.17 647,-360.26 644.75,-353.64"/>
<text text-anchor="middle" x="721.5" y="-378.5" font-family="Helvetica,sans-Serif" font-size="10.00"> mBounds</text>
<text text-anchor="middle" x="721.5" y="-367.5" font-family="Helvetica,sans-Serif" font-size="10.00">mClipRect</text>
<text text-anchor="middle" x="721.5" y="-356.5" font-family="Helvetica,sans-Serif" font-size="10.00">mGlobalBounds</text>
<text text-anchor="middle" x="721.5" y="-345.5" font-family="Helvetica,sans-Serif" font-size="10.00">static_mBounds</text>
</g>
<!-- Node4 -->
<g id="node4" class="node">
<title>Node4</title>
<g id="a_node4"><a xlink:href="structJGeometry_1_1TBox.html" target="_top" xlink:title=" ">
<polygon fill="white" stroke="#666666" points="448,-387.5 320,-387.5 320,-357.5 448,-357.5 448,-387.5"/>
<text text-anchor="start" x="328" y="-375.5" font-family="Helvetica,sans-Serif" font-size="10.00">JGeometry::TBox&lt; TVec2</text>
<text text-anchor="middle" x="384" y="-364.5" font-family="Helvetica,sans-Serif" font-size="10.00">&lt; T &gt; &gt;</text>
</a>
</g>
</g>
<!-- Node4&#45;&gt;Node3 -->
<g id="edge3" class="edge">
<title>Node4&#45;&gt;Node3</title>
<path fill="none" stroke="#63b8ff" d="M459.57,-371.82C486.24,-371.58 516.01,-371.3 541.55,-371.07"/>
<polygon fill="#63b8ff" stroke="#63b8ff" points="459.82,-368.32 449.86,-371.91 459.89,-375.32 459.82,-368.32"/>
</g>
<!-- Node5 -->
<g id="node5" class="node">
<title>Node5</title>
<g id="a_node5"><a xlink:href="classJSUTree.html" target="_top" xlink:title=" ">
<polygon fill="white" stroke="#666666" points="661,-320 549,-320 549,-301 661,-301 661,-320"/>
<text text-anchor="middle" x="605" y="-308" font-family="Helvetica,sans-Serif" font-size="10.00">JSUTree&lt; J2DPane &gt;</text>
</a>
</g>
</g>
<!-- Node5&#45;&gt;Node2 -->
<g id="edge4" class="edge">
<title>Node5&#45;&gt;Node2</title>
<path fill="none" stroke="#9a32cd" stroke-dasharray="5,2" d="M672.79,-305.04C718.8,-301.28 777.51,-296.48 811.27,-293.72"/>
<polygon fill="#9a32cd" stroke="#9a32cd" points="672.58,-301.55 662.9,-305.85 673.15,-308.52 672.58,-301.55"/>
<text text-anchor="middle" x="721.5" y="-306.5" font-family="Helvetica,sans-Serif" font-size="10.00"> mPaneTree</text>
</g>
<!-- Node6 -->
<g id="node6" class="node">
<title>Node6</title>
<g id="a_node6"><a xlink:href="structJSUList.html" target="_top" xlink:title=" ">
<polygon fill="white" stroke="#666666" points="302,-349 221,-349 221,-330 302,-330 302,-349"/>
<text text-anchor="middle" x="261.5" y="-337" font-family="Helvetica,sans-Serif" font-size="10.00">JSUList&lt; A0 &gt;</text>
</a>
</g>
</g>
<!-- Node6&#45;&gt;Node5 -->
<g id="edge5" class="edge">
<title>Node6&#45;&gt;Node5</title>
<path fill="none" stroke="#63b8ff" d="M313.59,-335.16C376.69,-329.8 483.62,-320.72 548.63,-315.2"/>
<polygon fill="#63b8ff" stroke="#63b8ff" points="313.52,-331.65 303.85,-335.99 314.11,-338.63 313.52,-331.65"/>
</g>
<!-- Node7 -->
<g id="node7" class="node">
<title>Node7</title>
<g id="a_node7"><a xlink:href="structJSUPtrList.html" target="_top" xlink:title=" ">
<polygon fill="white" stroke="#666666" points="65,-321 0,-321 0,-302 65,-302 65,-321"/>
<text text-anchor="middle" x="32.5" y="-309" font-family="Helvetica,sans-Serif" font-size="10.00">JSUPtrList</text>
</a>
</g>
</g>
<!-- Node7&#45;&gt;Node6 -->
<g id="edge6" class="edge">
<title>Node7&#45;&gt;Node6</title>
<path fill="none" stroke="#63b8ff" d="M76.79,-317.72C94.78,-320.24 115.89,-323.12 135,-325.5 163.61,-329.07 195.94,-332.66 220.62,-335.32"/>
<polygon fill="#63b8ff" stroke="#63b8ff" points="77.36,-314.27 66.97,-316.34 76.38,-321.2 77.36,-314.27"/>
</g>
<!-- Node8 -->
<g id="node8" class="node">
<title>Node8</title>
<g id="a_node8"><a xlink:href="structJSUPtrLink.html" target="_top" xlink:title=" ">
<polygon fill="white" stroke="#666666" points="203,-276 135,-276 135,-257 203,-257 203,-276"/>
<text text-anchor="middle" x="169" y="-264" font-family="Helvetica,sans-Serif" font-size="10.00">JSUPtrLink</text>
</a>
</g>
</g>
<!-- Node7&#45;&gt;Node8 -->
<g id="edge8" class="edge">
<title>Node7&#45;&gt;Node8</title>
<path fill="none" stroke="#9a32cd" stroke-dasharray="5,2" d="M75.98,-301.76C89.26,-298.33 103.86,-294.16 117,-289.5 127.44,-285.8 138.69,-280.84 147.97,-276.46"/>
<polygon fill="#9a32cd" stroke="#9a32cd" points="75.52,-298.27 66.67,-304.09 77.22,-305.06 75.52,-298.27"/>
<text text-anchor="middle" x="100" y="-302.5" font-family="Helvetica,sans-Serif" font-size="10.00"> mList</text>
</g>
<!-- Node8&#45;&gt;Node7 -->
<g id="edge7" class="edge">
<title>Node8&#45;&gt;Node7</title>
<path fill="none" stroke="#9a32cd" stroke-dasharray="5,2" d="M123.31,-261.17C109.97,-261.12 95.56,-262.64 83,-267.5 65.2,-274.39 49.67,-290.84 40.95,-301.56"/>
<polygon fill="#9a32cd" stroke="#9a32cd" points="123.06,-264.66 133.18,-261.53 123.31,-257.67 123.06,-264.66"/>
<text text-anchor="middle" x="100" y="-281.5" font-family="Helvetica,sans-Serif" font-size="10.00"> mHead</text>
<text text-anchor="middle" x="100" y="-270.5" font-family="Helvetica,sans-Serif" font-size="10.00">mTail</text>
</g>
<!-- Node8&#45;&gt;Node8 -->
<g id="edge9" class="edge">
<title>Node8&#45;&gt;Node8</title>
<path fill="none" stroke="#9a32cd" stroke-dasharray="5,2" d="M156.89,-287.76C158.52,-291.44 162.56,-294 169,-294 181.13,-294 184.73,-284.94 179.8,-276.37"/>
<polygon fill="#9a32cd" stroke="#9a32cd" points="160.36,-288.21 158.03,-277.87 153.41,-287.41 160.36,-288.21"/>
<text text-anchor="middle" x="169" y="-308" font-family="Helvetica,sans-Serif" font-size="10.00"> mNext</text>
<text text-anchor="middle" x="169" y="-297" font-family="Helvetica,sans-Serif" font-size="10.00">mPrev</text>
</g>
<!-- Node9 -->
<g id="node9" class="node">
<title>Node9</title>
<g id="a_node9"><a xlink:href="structJSULink.html" target="_top" xlink:title=" ">
<polygon fill="white" stroke="#666666" points="425.5,-301 342.5,-301 342.5,-282 425.5,-282 425.5,-301"/>
<text text-anchor="middle" x="384" y="-289" font-family="Helvetica,sans-Serif" font-size="10.00">JSULink&lt; A0 &gt;</text>
</a>
</g>
</g>
<!-- Node8&#45;&gt;Node9 -->
<g id="edge11" class="edge">
<title>Node8&#45;&gt;Node9</title>
<path fill="none" stroke="#63b8ff" d="M214.43,-271.71C252.11,-276.14 305.73,-282.43 342.31,-286.72"/>
<polygon fill="#63b8ff" stroke="#63b8ff" points="215.12,-268.27 204.78,-270.58 214.31,-275.22 215.12,-268.27"/>
</g>
<!-- Node9&#45;&gt;Node5 -->
<g id="edge10" class="edge">
<title>Node9&#45;&gt;Node5</title>
<path fill="none" stroke="#63b8ff" d="M437.38,-296.04C471.02,-298.96 514.63,-302.75 548.8,-305.71"/>
<polygon fill="#63b8ff" stroke="#63b8ff" points="437.71,-292.56 427.44,-295.18 437.1,-299.53 437.71,-292.56"/>
</g>
<!-- Node10 -->
<g id="node10" class="node">
<title>Node10</title>
<g id="a_node10"><a xlink:href="structJ2DAnmTransform.html" target="_top" xlink:title=" ">
<polygon fill="white" stroke="#666666" points="654,-283 556,-283 556,-264 654,-264 654,-283"/>
<text text-anchor="middle" x="605" y="-271" font-family="Helvetica,sans-Serif" font-size="10.00">J2DAnmTransform</text>
</a>
</g>
</g>
<!-- Node10&#45;&gt;Node2 -->
<g id="edge12" class="edge">
<title>Node10&#45;&gt;Node2</title>
<path fill="none" stroke="#9a32cd" stroke-dasharray="5,2" d="M665.56,-272.46C693.4,-272.55 726.96,-273.46 757,-276.5 775.18,-278.34 795.38,-282.05 811.12,-285.31"/>
<polygon fill="#9a32cd" stroke="#9a32cd" points="665.91,-268.96 655.92,-272.47 665.92,-275.96 665.91,-268.96"/>
<text text-anchor="middle" x="721.5" y="-279.5" font-family="Helvetica,sans-Serif" font-size="10.00"> mTransform</text>
</g>
<!-- Node11 -->
<g id="node11" class="node">
<title>Node11</title>
<g id="a_node11"><a xlink:href="structJ2DAnmBase.html" target="_top" xlink:title=" ">
<polygon fill="white" stroke="#666666" points="422.5,-264 345.5,-264 345.5,-245 422.5,-245 422.5,-264"/>
<text text-anchor="middle" x="384" y="-252" font-family="Helvetica,sans-Serif" font-size="10.00">J2DAnmBase</text>
</a>
</g>
</g>
<!-- Node11&#45;&gt;Node10 -->
<g id="edge13" class="edge">
<title>Node11&#45;&gt;Node10</title>
<path fill="none" stroke="#63b8ff" d="M433.95,-258.75C470.28,-261.9 519.58,-266.18 555.74,-269.31"/>
<polygon fill="#63b8ff" stroke="#63b8ff" points="434.42,-255.27 424.16,-257.9 433.82,-262.25 434.42,-255.27"/>
</g>
<!-- Node12 -->
<g id="node12" class="node">
<title>Node12</title>
<g id="a_node12"><a xlink:href="classJUTTexture.html" target="_top" xlink:title=" ">
<polygon fill="white" stroke="#666666" points="873.5,-200 805.5,-200 805.5,-181 873.5,-181 873.5,-200"/>
<text text-anchor="middle" x="839.5" y="-188" font-family="Helvetica,sans-Serif" font-size="10.00">JUTTexture</text>
</a>
</g>
</g>
<!-- Node12&#45;&gt;Node1 -->
<g id="edge14" class="edge">
<title>Node12&#45;&gt;Node1</title>
<path fill="none" stroke="#9a32cd" stroke-dasharray="5,2" d="M879.49,-176.82C916.24,-163.93 970.42,-144.92 1003.2,-133.43"/>
<polygon fill="#9a32cd" stroke="#9a32cd" points="878.39,-173.5 870.11,-180.11 880.71,-180.11 878.39,-173.5"/>
<text text-anchor="middle" x="952" y="-163.5" font-family="Helvetica,sans-Serif" font-size="10.00"> mTexture</text>
</g>
<!-- Node13 -->
<g id="node13" class="node">
<title>Node13</title>
<g id="a_node13"><a xlink:href="struct__GXTexObj.html" target="_top" xlink:title=" ">
<polygon fill="white" stroke="#666666" points="638.5,-246 571.5,-246 571.5,-227 638.5,-227 638.5,-246"/>
<text text-anchor="middle" x="605" y="-234" font-family="Helvetica,sans-Serif" font-size="10.00">_GXTexObj</text>
</a>
</g>
</g>
<!-- Node13&#45;&gt;Node12 -->
<g id="edge15" class="edge">
<title>Node13&#45;&gt;Node12</title>
<path fill="none" stroke="#9a32cd" stroke-dasharray="5,2" d="M649.84,-229.78C680.06,-224.95 721.09,-217.99 757,-210.5 772.97,-207.17 790.57,-202.92 805.31,-199.2"/>
<polygon fill="#9a32cd" stroke="#9a32cd" points="649.65,-226.27 640.32,-231.29 650.74,-233.19 649.65,-226.27"/>
<text text-anchor="middle" x="721.5" y="-226.5" font-family="Helvetica,sans-Serif" font-size="10.00"> mTexObj</text>
</g>
<!-- Node14 -->
<g id="node14" class="node">
<title>Node14</title>
<g id="a_node14"><a xlink:href="structResTIMG.html" target="_top" xlink:title=" ">
<polygon fill="white" stroke="#666666" points="634.5,-209 575.5,-209 575.5,-190 634.5,-190 634.5,-209"/>
<text text-anchor="middle" x="605" y="-197" font-family="Helvetica,sans-Serif" font-size="10.00">ResTIMG</text>
</a>
</g>
</g>
<!-- Node14&#45;&gt;Node12 -->
<g id="edge16" class="edge">
<title>Node14&#45;&gt;Node12</title>
<path fill="none" stroke="#9a32cd" stroke-dasharray="5,2" d="M646.34,-197.94C691.26,-196.2 763.07,-193.42 805.02,-191.8"/>
<polygon fill="#9a32cd" stroke="#9a32cd" points="646.35,-194.44 636.49,-198.32 646.62,-201.43 646.35,-194.44"/>
<text text-anchor="middle" x="721.5" y="-198.5" font-family="Helvetica,sans-Serif" font-size="10.00"> mTexInfo</text>
</g>
<!-- Node15 -->
<g id="node15" class="node">
<title>Node15</title>
<g id="a_node15"><a xlink:href="classJUTPalette.html" target="_top" xlink:title=" ">
<polygon fill="white" stroke="#666666" points="638,-150 572,-150 572,-131 638,-131 638,-150"/>
<text text-anchor="middle" x="605" y="-138" font-family="Helvetica,sans-Serif" font-size="10.00">JUTPalette</text>
</a>
</g>
</g>
<!-- Node15&#45;&gt;Node1 -->
<g id="edge21" class="edge">
<title>Node15&#45;&gt;Node1</title>
<path fill="none" stroke="#9a32cd" stroke-dasharray="5,2" d="M649.73,-138.75C735.55,-135.32 924.18,-127.79 999.51,-124.78"/>
<polygon fill="#9a32cd" stroke="#9a32cd" points="649.7,-135.25 639.84,-139.15 649.98,-142.25 649.7,-135.25"/>
<text text-anchor="middle" x="839.5" y="-136.5" font-family="Helvetica,sans-Serif" font-size="10.00"> mPalette</text>
</g>
<!-- Node15&#45;&gt;Node12 -->
<g id="edge17" class="edge">
<title>Node15&#45;&gt;Node12</title>
<path fill="none" stroke="#9a32cd" stroke-dasharray="5,2" d="M649.33,-147.09C679.64,-151.98 720.98,-159.22 757,-167.5 773.33,-171.26 791.28,-176.23 806.17,-180.59"/>
<polygon fill="#9a32cd" stroke="#9a32cd" points="650.21,-143.69 639.79,-145.57 649.11,-150.6 650.21,-143.69"/>
<text text-anchor="middle" x="721.5" y="-181.5" font-family="Helvetica,sans-Serif" font-size="10.00"> field_0x2c</text>
<text text-anchor="middle" x="721.5" y="-170.5" font-family="Helvetica,sans-Serif" font-size="10.00">mEmbPalette</text>
</g>
<!-- Node16 -->
<g id="node16" class="node">
<title>Node16</title>
<g id="a_node16"><a xlink:href="struct__GXTlutObj.html" target="_top" xlink:title=" ">
<polygon fill="white" stroke="#666666" points="418,-169 350,-169 350,-150 418,-150 418,-169"/>
<text text-anchor="middle" x="384" y="-157" font-family="Helvetica,sans-Serif" font-size="10.00">_GXTlutObj</text>
</a>
</g>
</g>
<!-- Node16&#45;&gt;Node15 -->
<g id="edge18" class="edge">
<title>Node16&#45;&gt;Node15</title>
<path fill="none" stroke="#9a32cd" stroke-dasharray="5,2" d="M429.61,-155.63C471.86,-151.96 534.28,-146.55 571.85,-143.29"/>
<polygon fill="#9a32cd" stroke="#9a32cd" points="429.43,-152.13 419.77,-156.48 430.03,-159.11 429.43,-152.13"/>
<text text-anchor="middle" x="495" y="-154.5" font-family="Helvetica,sans-Serif" font-size="10.00"> mTlutObj</text>
</g>
<!-- Node17 -->
<g id="node17" class="node">
<title>Node17</title>
<g id="a_node17"><a xlink:href="structResTLUT.html" target="_top" xlink:title=" ">
<polygon fill="white" stroke="#666666" points="413.5,-132 354.5,-132 354.5,-113 413.5,-113 413.5,-132"/>
<text text-anchor="middle" x="384" y="-120" font-family="Helvetica,sans-Serif" font-size="10.00">ResTLUT</text>
</a>
</g>
</g>
<!-- Node17&#45;&gt;Node15 -->
<g id="edge19" class="edge">
<title>Node17&#45;&gt;Node15</title>
<path fill="none" stroke="#9a32cd" stroke-dasharray="5,2" d="M425.09,-122.12C452.91,-122.24 490.79,-123.13 524,-126.5 539.85,-128.11 557.3,-131.02 571.84,-133.78"/>
<polygon fill="#9a32cd" stroke="#9a32cd" points="425.34,-118.62 415.34,-122.12 425.34,-125.62 425.34,-118.62"/>
<text text-anchor="middle" x="495" y="-129.5" font-family="Helvetica,sans-Serif" font-size="10.00"> mColorTable</text>
</g>
<!-- Node18 -->
<g id="node18" class="node">
<title>Node18</title>
<g id="a_node18"><a xlink:href="structJGeometry_1_1TVec2.html" target="_top" xlink:title=" ">
<polygon fill="white" stroke="#666666" points="904,-87 775,-87 775,-68 904,-68 904,-87"/>
<text text-anchor="middle" x="839.5" y="-75" font-family="Helvetica,sans-Serif" font-size="10.00">JGeometry::TVec2&lt; s16 &gt;</text>
</a>
</g>
</g>
<!-- Node18&#45;&gt;Node1 -->
<g id="edge20" class="edge">
<title>Node18&#45;&gt;Node1</title>
<path fill="none" stroke="#9a32cd" stroke-dasharray="5,2" d="M915.39,-84.07C937.19,-87.19 960.84,-91.78 982,-98.5 993.56,-102.17 1005.73,-108.29 1015.11,-113.55"/>
<polygon fill="#9a32cd" stroke="#9a32cd" points="916.05,-80.62 905.67,-82.76 915.12,-87.56 916.05,-80.62"/>
<text text-anchor="middle" x="952" y="-101.5" font-family="Helvetica,sans-Serif" font-size="10.00"> field_0x10a</text>
</g>
<!-- Node19 -->
<g id="node19" class="node">
<title>Node19</title>
<g id="a_node19"><a xlink:href="structJUtility_1_1TColor.html" target="_top" xlink:title=" ">
<polygon fill="white" stroke="#666666" points="879.5,-19 799.5,-19 799.5,0 879.5,0 879.5,-19"/>
<text text-anchor="middle" x="839.5" y="-7" font-family="Helvetica,sans-Serif" font-size="10.00">JUtility::TColor</text>
</a>
</g>
</g>
<!-- Node19&#45;&gt;Node1 -->
<g id="edge22" class="edge">
<title>Node19&#45;&gt;Node1</title>
<path fill="none" stroke="#9a32cd" stroke-dasharray="5,2" d="M890.87,-3.96C919.91,-3.35 955.75,-7.24 982,-25.5 1012.82,-46.94 1025.52,-93.42 1029.74,-113.7"/>
<polygon fill="#9a32cd" stroke="#9a32cd" points="891.06,-0.45 881.21,-4.36 891.35,-7.45 891.06,-0.45"/>
<text text-anchor="middle" x="952" y="-72.5" font-family="Helvetica,sans-Serif" font-size="10.00"> field_0x148</text>
<text text-anchor="middle" x="952" y="-61.5" font-family="Helvetica,sans-Serif" font-size="10.00">field_0x14c</text>
<text text-anchor="middle" x="952" y="-50.5" font-family="Helvetica,sans-Serif" font-size="10.00">mBlack</text>
<text text-anchor="middle" x="952" y="-39.5" font-family="Helvetica,sans-Serif" font-size="10.00">mCornerColor</text>
<text text-anchor="middle" x="952" y="-28.5" font-family="Helvetica,sans-Serif" font-size="10.00">mWhite</text>
</g>
<!-- Node20 -->
<g id="node20" class="node">
<title>Node20</title>
<g id="a_node20"><a xlink:href="struct__GXColor.html" target="_top" xlink:title=" ">
<polygon fill="white" stroke="#666666" points="631.5,-19 578.5,-19 578.5,0 631.5,0 631.5,-19"/>
<text text-anchor="middle" x="605" y="-7" font-family="Helvetica,sans-Serif" font-size="10.00">GXColor</text>
</a>
</g>
</g>
<!-- Node20&#45;&gt;Node19 -->
<g id="edge23" class="edge">
<title>Node20&#45;&gt;Node19</title>
<path fill="none" stroke="#63b8ff" d="M643.03,-9.5C685.67,-9.5 755.42,-9.5 799.05,-9.5"/>
<polygon fill="#63b8ff" stroke="#63b8ff" points="643.28,-6 633.28,-9.5 643.28,-13 643.28,-6"/>
</g>
</g>
</svg>
