<?xml version="1.0" encoding="UTF-8" standalone="no"?>
<!DOCTYPE svg PUBLIC "-//W3C//DTD SVG 1.1//EN"
 "http://www.w3.org/Graphics/SVG/1.1/DTD/svg11.dtd">
<!-- Generated by graphviz version 3.0.0 (20220413.0242)
 -->
<!-- Title: standard_create_request_class Pages: 1 -->
<svg width="1598pt" height="602pt"
 viewBox="0.00 0.00 1598.00 602.00" xmlns="http://www.w3.org/2000/svg" xmlns:xlink="http://www.w3.org/1999/xlink">
<g id="graph0" class="graph" transform="scale(1 1) rotate(0) translate(4 598)">
<title>standard_create_request_class</title>
<polygon fill="white" stroke="transparent" points="-4,4 -4,-598 1594,-598 1594,4 -4,4"/>
<!-- Node1 -->
<g id="node1" class="node">
<title>Node1</title>
<g id="a_node1"><a xlink:title=" ">
<polygon fill="#bfbfbf" stroke="black" points="875,-420 875,-450 999,-450 999,-420 875,-420"/>
<text text-anchor="start" x="883" y="-438" font-family="Helvetica,sans-Serif" font-size="10.00">standard_create_request</text>
<text text-anchor="middle" x="937" y="-427" font-family="Helvetica,sans-Serif" font-size="10.00">_class</text>
</a>
</g>
</g>
<!-- Node2 -->
<g id="node2" class="node">
<title>Node2</title>
<g id="a_node2"><a xlink:href="structcreate__request.html" target="_top" xlink:title=" ">
<polygon fill="white" stroke="black" points="675.5,-377.5 675.5,-396.5 756.5,-396.5 756.5,-377.5 675.5,-377.5"/>
<text text-anchor="middle" x="716" y="-384.5" font-family="Helvetica,sans-Serif" font-size="10.00">create_request</text>
</a>
</g>
</g>
<!-- Node2&#45;&gt;Node1 -->
<g id="edge1" class="edge">
<title>Node2&#45;&gt;Node1</title>
<path fill="none" stroke="#9a32cd" stroke-dasharray="5,2" d="M766.69,-397.89C798.73,-404.91 840.62,-414.09 874.71,-421.57"/>
<polygon fill="#9a32cd" stroke="#9a32cd" points="767.18,-394.41 756.66,-395.69 765.68,-401.25 767.18,-394.41"/>
<text text-anchor="middle" x="829" y="-419" font-family="Helvetica,sans-Serif" font-size="10.00"> mBase</text>
</g>
<!-- Node8 -->
<g id="node8" class="node">
<title>Node8</title>
<g id="a_node8"><a xlink:href="structbase__process__class.html" target="_top" xlink:title=" ">
<polygon fill="white" stroke="black" points="884,-283.5 884,-302.5 990,-302.5 990,-283.5 884,-283.5"/>
<text text-anchor="middle" x="937" y="-290.5" font-family="Helvetica,sans-Serif" font-size="10.00">base_process_class</text>
</a>
</g>
</g>
<!-- Node2&#45;&gt;Node8 -->
<g id="edge14" class="edge">
<title>Node2&#45;&gt;Node8</title>
<path fill="none" stroke="#9a32cd" stroke-dasharray="5,2" d="M734.88,-370.8C751.05,-356.97 776.07,-337.55 801,-326 827.05,-313.93 858.05,-305.95 883.77,-300.87"/>
<polygon fill="#9a32cd" stroke="#9a32cd" points="732.5,-368.23 727.28,-377.45 737.11,-373.5 732.5,-368.23"/>
<text text-anchor="middle" x="829" y="-329" font-family="Helvetica,sans-Serif" font-size="10.00"> mpCtRq</text>
</g>
<!-- Node3 -->
<g id="node3" class="node">
<title>Node3</title>
<g id="a_node3"><a xlink:href="structcreate__tag.html" target="_top" xlink:title=" ">
<polygon fill="white" stroke="black" points="388.5,-421.5 388.5,-440.5 450.5,-440.5 450.5,-421.5 388.5,-421.5"/>
<text text-anchor="middle" x="419.5" y="-428.5" font-family="Helvetica,sans-Serif" font-size="10.00">create_tag</text>
</a>
</g>
</g>
<!-- Node3&#45;&gt;Node2 -->
<g id="edge2" class="edge">
<title>Node3&#45;&gt;Node2</title>
<path fill="none" stroke="#9a32cd" stroke-dasharray="5,2" d="M460.46,-425.98C502.85,-420.53 571.75,-411.37 631,-402 645.49,-399.71 661.33,-396.95 675.32,-394.42"/>
<polygon fill="#9a32cd" stroke="#9a32cd" points="460.01,-422.51 450.53,-427.24 460.9,-429.45 460.01,-422.51"/>
<text text-anchor="middle" x="568.5" y="-422" font-family="Helvetica,sans-Serif" font-size="10.00"> mBase</text>
</g>
<!-- Node4 -->
<g id="node4" class="node">
<title>Node4</title>
<g id="a_node4"><a xlink:href="structcreate__tag__class.html" target="_top" xlink:title=" ">
<polygon fill="white" stroke="black" points="155,-328.5 155,-347.5 246,-347.5 246,-328.5 155,-328.5"/>
<text text-anchor="middle" x="200.5" y="-335.5" font-family="Helvetica,sans-Serif" font-size="10.00">create_tag_class</text>
</a>
</g>
</g>
<!-- Node4&#45;&gt;Node3 -->
<g id="edge3" class="edge">
<title>Node4&#45;&gt;Node3</title>
<path fill="none" stroke="#9a32cd" stroke-dasharray="5,2" d="M227.29,-352.6C256.57,-368.75 306.12,-394.75 351,-412 362.93,-416.59 376.43,-420.61 388.2,-423.75"/>
<polygon fill="#9a32cd" stroke="#9a32cd" points="228.96,-349.53 218.52,-347.73 225.56,-355.65 228.96,-349.53"/>
<text text-anchor="middle" x="305" y="-406" font-family="Helvetica,sans-Serif" font-size="10.00"> mBase</text>
</g>
<!-- Node6 -->
<g id="node6" class="node">
<title>Node6</title>
<g id="a_node6"><a xlink:href="structprocess__method__tag__class.html" target="_top" xlink:title=" ">
<polygon fill="white" stroke="black" points="366,-323 366,-353 473,-353 473,-323 366,-323"/>
<text text-anchor="start" x="374" y="-341" font-family="Helvetica,sans-Serif" font-size="10.00">process_method_tag</text>
<text text-anchor="middle" x="419.5" y="-330" font-family="Helvetica,sans-Serif" font-size="10.00">_class</text>
</a>
</g>
</g>
<!-- Node4&#45;&gt;Node6 -->
<g id="edge7" class="edge">
<title>Node4&#45;&gt;Node6</title>
<path fill="none" stroke="#9a32cd" stroke-dasharray="5,2" d="M256.31,-338C289.89,-338 332.65,-338 365.83,-338"/>
<polygon fill="#9a32cd" stroke="#9a32cd" points="256.2,-334.5 246.2,-338 256.2,-341.5 256.2,-334.5"/>
<text text-anchor="middle" x="305" y="-341" font-family="Helvetica,sans-Serif" font-size="10.00"> mCreateTag</text>
</g>
<!-- Node12 -->
<g id="node12" class="node">
<title>Node12</title>
<g id="a_node12"><a xlink:href="structlayer__management__tag__class.html" target="_top" xlink:title=" ">
<polygon fill="white" stroke="black" points="1473,-240 1473,-270 1590,-270 1590,-240 1473,-240"/>
<text text-anchor="start" x="1481" y="-258" font-family="Helvetica,sans-Serif" font-size="10.00">layer_management_tag</text>
<text text-anchor="middle" x="1531.5" y="-247" font-family="Helvetica,sans-Serif" font-size="10.00">_class</text>
</a>
</g>
</g>
<!-- Node4&#45;&gt;Node12 -->
<g id="edge16" class="edge">
<title>Node4&#45;&gt;Node12</title>
<path fill="none" stroke="#9a32cd" stroke-dasharray="5,2" d="M211.01,-319.14C223.46,-296.03 247.25,-256.87 277,-232 386.52,-140.45 424.75,-95 567.5,-95 567.5,-95 567.5,-95 1365.5,-95 1448.3,-95 1505.28,-200.12 1523.89,-239.95"/>
<polygon fill="#9a32cd" stroke="#9a32cd" points="207.78,-317.77 206.24,-328.25 213.98,-321.02 207.78,-317.77"/>
<text text-anchor="middle" x="937" y="-98" font-family="Helvetica,sans-Serif" font-size="10.00"> mCreateTag</text>
</g>
<!-- Node18 -->
<g id="node18" class="node">
<title>Node18</title>
<g id="a_node18"><a xlink:href="structline__tag.html" target="_top" xlink:title=" ">
<polygon fill="white" stroke="black" points="543.5,-202.5 543.5,-221.5 593.5,-221.5 593.5,-202.5 543.5,-202.5"/>
<text text-anchor="middle" x="568.5" y="-209.5" font-family="Helvetica,sans-Serif" font-size="10.00">line_tag</text>
</a>
</g>
</g>
<!-- Node4&#45;&gt;Node18 -->
<g id="edge30" class="edge">
<title>Node4&#45;&gt;Node18</title>
<path fill="none" stroke="#9a32cd" stroke-dasharray="5,2" d="M216.83,-320.73C241.78,-294.18 294.1,-244.65 351,-228 418.46,-208.26 502.53,-208.79 543.21,-210.53"/>
<polygon fill="#9a32cd" stroke="#9a32cd" points="214.19,-318.44 210,-328.17 219.34,-323.17 214.19,-318.44"/>
<text text-anchor="middle" x="305" y="-270" font-family="Helvetica,sans-Serif" font-size="10.00"> mBase</text>
</g>
<!-- Node19 -->
<g id="node19" class="node">
<title>Node19</title>
<g id="a_node19"><a xlink:href="structdelete__tag__class.html" target="_top" xlink:title=" ">
<polygon fill="white" stroke="black" points="1486.5,-377.5 1486.5,-396.5 1576.5,-396.5 1576.5,-377.5 1486.5,-377.5"/>
<text text-anchor="middle" x="1531.5" y="-384.5" font-family="Helvetica,sans-Serif" font-size="10.00">delete_tag_class</text>
</a>
</g>
</g>
<!-- Node4&#45;&gt;Node19 -->
<g id="edge32" class="edge">
<title>Node4&#45;&gt;Node19</title>
<path fill="none" stroke="#9a32cd" stroke-dasharray="5,2" d="M214.81,-355.88C228.71,-373.57 251.96,-400.45 277,-418 306.34,-438.56 317.22,-438.05 351,-450 558.49,-523.4 607.91,-583 828,-583 828,-583 828,-583 1365.5,-583 1464.02,-583 1515.58,-436.27 1527.69,-396.72"/>
<polygon fill="#9a32cd" stroke="#9a32cd" points="217.29,-353.37 208.43,-347.57 211.74,-357.64 217.29,-353.37"/>
<text text-anchor="middle" x="937" y="-586" font-family="Helvetica,sans-Serif" font-size="10.00"> mBase</text>
</g>
<!-- Node20 -->
<g id="node20" class="node">
<title>Node20</title>
<g id="a_node20"><a xlink:href="structprocess__priority__class.html" target="_top" xlink:title=" ">
<polygon fill="white" stroke="black" points="659.5,-283.5 659.5,-302.5 772.5,-302.5 772.5,-283.5 659.5,-283.5"/>
<text text-anchor="middle" x="716" y="-290.5" font-family="Helvetica,sans-Serif" font-size="10.00">process_priority_class</text>
</a>
</g>
</g>
<!-- Node4&#45;&gt;Node20 -->
<g id="edge35" class="edge">
<title>Node4&#45;&gt;Node20</title>
<path fill="none" stroke="#9a32cd" stroke-dasharray="5,2" d="M243.83,-325.67C273.54,-317.62 314.35,-307.74 351,-303 459.46,-288.96 587.56,-289.33 659.23,-291.04"/>
<polygon fill="#9a32cd" stroke="#9a32cd" points="242.53,-322.4 233.82,-328.43 244.39,-329.15 242.53,-322.4"/>
<text text-anchor="middle" x="419.5" y="-306" font-family="Helvetica,sans-Serif" font-size="10.00"> mBase</text>
</g>
<!-- Node5 -->
<g id="node5" class="node">
<title>Node5</title>
<g id="a_node5"><a xlink:href="structnode__class.html" target="_top" xlink:title=" ">
<polygon fill="white" stroke="black" points="0,-497.5 0,-516.5 66,-516.5 66,-497.5 0,-497.5"/>
<text text-anchor="middle" x="33" y="-504.5" font-family="Helvetica,sans-Serif" font-size="10.00">node_class</text>
</a>
</g>
</g>
<!-- Node5&#45;&gt;Node4 -->
<g id="edge4" class="edge">
<title>Node5&#45;&gt;Node4</title>
<path fill="none" stroke="#9a32cd" stroke-dasharray="5,2" d="M50.76,-489.89C85.11,-454.81 162.59,-375.69 189.82,-347.89"/>
<polygon fill="#9a32cd" stroke="#9a32cd" points="47.87,-487.84 43.37,-497.43 52.87,-492.73 47.87,-487.84"/>
<text text-anchor="middle" x="104" y="-455" font-family="Helvetica,sans-Serif" font-size="10.00"> mpNode</text>
</g>
<!-- Node5&#45;&gt;Node5 -->
<g id="edge5" class="edge">
<title>Node5&#45;&gt;Node5</title>
<path fill="none" stroke="#9a32cd" stroke-dasharray="5,2" d="M20.11,-526.77C21.12,-531.5 25.42,-535 33,-535 45.44,-535 49.04,-525.57 43.79,-516.76"/>
<polygon fill="#9a32cd" stroke="#9a32cd" points="23.58,-527.26 22.21,-516.76 16.73,-525.82 23.58,-527.26"/>
<text text-anchor="middle" x="33" y="-549" font-family="Helvetica,sans-Serif" font-size="10.00"> mpNextNode</text>
<text text-anchor="middle" x="33" y="-538" font-family="Helvetica,sans-Serif" font-size="10.00">mpPrevNode</text>
</g>
<!-- Node13 -->
<g id="node13" class="node">
<title>Node13</title>
<g id="a_node13"><a xlink:href="structlayer__class.html" target="_top" xlink:title=" ">
<polygon fill="white" stroke="black" points="1332,-377.5 1332,-396.5 1397,-396.5 1397,-377.5 1332,-377.5"/>
<text text-anchor="middle" x="1364.5" y="-384.5" font-family="Helvetica,sans-Serif" font-size="10.00">layer_class</text>
</a>
</g>
</g>
<!-- Node5&#45;&gt;Node13 -->
<g id="edge18" class="edge">
<title>Node5&#45;&gt;Node13</title>
<path fill="none" stroke="#9a32cd" stroke-dasharray="5,2" d="M76.61,-507.58C212.12,-508.86 645.08,-508.59 999,-460 1140.11,-440.63 1175.33,-433.53 1314,-401 1319.83,-399.63 1325.99,-398.02 1331.92,-396.39"/>
<polygon fill="#9a32cd" stroke="#9a32cd" points="76.3,-504.08 66.26,-507.47 76.22,-511.08 76.3,-504.08"/>
<text text-anchor="middle" x="716" y="-496" font-family="Helvetica,sans-Serif" font-size="10.00"> mNode</text>
</g>
<!-- Node15 -->
<g id="node15" class="node">
<title>Node15</title>
<g id="a_node15"><a xlink:href="structnode__list__class.html" target="_top" xlink:title=" ">
<polygon fill="white" stroke="black" points="895,-522.5 895,-541.5 979,-541.5 979,-522.5 895,-522.5"/>
<text text-anchor="middle" x="937" y="-529.5" font-family="Helvetica,sans-Serif" font-size="10.00">node_list_class</text>
</a>
</g>
</g>
<!-- Node5&#45;&gt;Node15 -->
<g id="edge21" class="edge">
<title>Node5&#45;&gt;Node15</title>
<path fill="none" stroke="#9a32cd" stroke-dasharray="5,2" d="M72.85,-518.93C76.59,-519.76 80.35,-520.47 84,-521 392.95,-565.47 771.41,-544.11 894.92,-535.22"/>
<polygon fill="#9a32cd" stroke="#9a32cd" points="73.62,-515.52 63.07,-516.51 71.94,-522.31 73.62,-515.52"/>
<text text-anchor="middle" x="419.5" y="-562" font-family="Helvetica,sans-Serif" font-size="10.00"> mpHead</text>
<text text-anchor="middle" x="419.5" y="-551" font-family="Helvetica,sans-Serif" font-size="10.00">mpTail</text>
</g>
<!-- Node6&#45;&gt;Node2 -->
<g id="edge6" class="edge">
<title>Node6&#45;&gt;Node2</title>
<path fill="none" stroke="#9a32cd" stroke-dasharray="5,2" d="M483.36,-347.87C525.22,-354.52 581.44,-363.57 631,-372 645.46,-374.46 661.3,-377.26 675.28,-379.77"/>
<polygon fill="#9a32cd" stroke="#9a32cd" points="483.73,-344.39 473.31,-346.28 482.64,-351.3 483.73,-344.39"/>
<text text-anchor="middle" x="568.5" y="-375" font-family="Helvetica,sans-Serif" font-size="10.00"> mMtdTg</text>
</g>
<!-- Node6&#45;&gt;Node20 -->
<g id="edge36" class="edge">
<title>Node6&#45;&gt;Node20</title>
<path fill="none" stroke="#9a32cd" stroke-dasharray="5,2" d="M483.3,-328.4C535.52,-320.42 609.15,-309.17 659.3,-301.51"/>
<polygon fill="#9a32cd" stroke="#9a32cd" points="482.51,-324.98 473.15,-329.95 483.56,-331.9 482.51,-324.98"/>
<text text-anchor="middle" x="568.5" y="-328" font-family="Helvetica,sans-Serif" font-size="10.00"> mMtdTag</text>
</g>
<!-- Node7 -->
<g id="node7" class="node">
<title>Node7</title>
<g id="a_node7"><a xlink:href="structcreate__request__method__class.html" target="_top" xlink:title=" ">
<polygon fill="white" stroke="black" points="360,-372 360,-402 479,-402 479,-372 360,-372"/>
<text text-anchor="start" x="368" y="-390" font-family="Helvetica,sans-Serif" font-size="10.00">create_request_method</text>
<text text-anchor="middle" x="419.5" y="-379" font-family="Helvetica,sans-Serif" font-size="10.00">_class</text>
</a>
</g>
</g>
<!-- Node7&#45;&gt;Node2 -->
<g id="edge8" class="edge">
<title>Node7&#45;&gt;Node2</title>
<path fill="none" stroke="#9a32cd" stroke-dasharray="5,2" d="M489.2,-387C547.06,-387 627.8,-387 675.41,-387"/>
<polygon fill="#9a32cd" stroke="#9a32cd" points="489.04,-383.5 479.04,-387 489.04,-390.5 489.04,-383.5"/>
<text text-anchor="middle" x="568.5" y="-390" font-family="Helvetica,sans-Serif" font-size="10.00"> mpCtRqMtd</text>
</g>
<!-- Node8&#45;&gt;Node2 -->
<g id="edge9" class="edge">
<title>Node8&#45;&gt;Node2</title>
<path fill="none" stroke="#9a32cd" stroke-dasharray="5,2" d="M912.79,-308.15C897.38,-317.79 876.48,-330.09 857,-339 821.83,-355.08 779.63,-368.84 750.81,-377.45"/>
<polygon fill="#9a32cd" stroke="#9a32cd" points="915.05,-310.86 921.61,-302.54 911.3,-304.95 915.05,-310.86"/>
<text text-anchor="middle" x="829" y="-363" font-family="Helvetica,sans-Serif" font-size="10.00"> mpRes</text>
</g>
<!-- Node16 -->
<g id="node16" class="node">
<title>Node16</title>
<g id="a_node16"><a xlink:href="structprocess__node__class.html" target="_top" xlink:title=" ">
<polygon fill="white" stroke="black" points="1117.5,-321.5 1117.5,-340.5 1223.5,-340.5 1223.5,-321.5 1117.5,-321.5"/>
<text text-anchor="middle" x="1170.5" y="-328.5" font-family="Helvetica,sans-Serif" font-size="10.00">process_node_class</text>
</a>
</g>
</g>
<!-- Node8&#45;&gt;Node16 -->
<g id="edge23" class="edge">
<title>Node8&#45;&gt;Node16</title>
<path fill="none" stroke="#9a32cd" stroke-dasharray="5,2" d="M1000.35,-304.16C1005.98,-305.14 1011.59,-306.1 1017,-307 1050.31,-312.57 1087.77,-318.47 1117.23,-323.03"/>
<polygon fill="#9a32cd" stroke="#9a32cd" points="1000.7,-300.67 990.24,-302.41 999.5,-307.57 1000.7,-300.67"/>
<text text-anchor="middle" x="1057" y="-323" font-family="Helvetica,sans-Serif" font-size="10.00"> mBase</text>
</g>
<!-- Node9 -->
<g id="node9" class="node">
<title>Node9</title>
<g id="a_node9"><a xlink:href="structprocess__profile__definition.html" target="_top" xlink:title=" ">
<polygon fill="white" stroke="black" points="653.5,-46.5 653.5,-65.5 778.5,-65.5 778.5,-46.5 653.5,-46.5"/>
<text text-anchor="middle" x="716" y="-53.5" font-family="Helvetica,sans-Serif" font-size="10.00">process_profile_definition</text>
</a>
</g>
</g>
<!-- Node9&#45;&gt;Node8 -->
<g id="edge10" class="edge">
<title>Node9&#45;&gt;Node8</title>
<path fill="none" stroke="#9a32cd" stroke-dasharray="5,2" d="M757.08,-69C787.69,-80.63 829.21,-100.31 857,-129 902.96,-176.44 926.53,-255.73 933.64,-283.24"/>
<polygon fill="#9a32cd" stroke="#9a32cd" points="758.15,-65.66 747.56,-65.5 755.74,-72.23 758.15,-65.66"/>
<text text-anchor="middle" x="829" y="-132" font-family="Helvetica,sans-Serif" font-size="10.00"> mpProf</text>
</g>
<!-- Node10 -->
<g id="node10" class="node">
<title>Node10</title>
<g id="a_node10"><a xlink:href="structprocess__method__class.html" target="_top" xlink:title=" ">
<polygon fill="white" stroke="black" points="142,-81.5 142,-100.5 259,-100.5 259,-81.5 142,-81.5"/>
<text text-anchor="middle" x="200.5" y="-88.5" font-family="Helvetica,sans-Serif" font-size="10.00">process_method_class</text>
</a>
</g>
</g>
<!-- Node10&#45;&gt;Node8 -->
<g id="edge38" class="edge">
<title>Node10&#45;&gt;Node8</title>
<path fill="none" stroke="#9a32cd" stroke-dasharray="5,2" d="M228.42,-105.21C242.54,-112.13 260.33,-120 277,-125 429.64,-170.78 475.61,-146.64 631,-182 699.7,-197.63 716.76,-203 783,-227 831.69,-244.64 887.09,-269.88 916.02,-283.47"/>
<polygon fill="#9a32cd" stroke="#9a32cd" points="229.8,-101.99 219.29,-100.63 226.66,-108.24 229.8,-101.99"/>
<text text-anchor="middle" x="568.5" y="-185" font-family="Helvetica,sans-Serif" font-size="10.00"> mpPcMtd</text>
</g>
<!-- Node10&#45;&gt;Node9 -->
<g id="edge11" class="edge">
<title>Node10&#45;&gt;Node9</title>
<path fill="none" stroke="#9a32cd" stroke-dasharray="5,2" d="M269.17,-80.02C294.75,-76.26 324.15,-72.4 351,-70 456.98,-60.54 580.88,-57.47 653.37,-56.47"/>
<polygon fill="#9a32cd" stroke="#9a32cd" points="268.58,-76.57 259.2,-81.51 269.61,-83.49 268.58,-76.57"/>
<text text-anchor="middle" x="419.5" y="-73" font-family="Helvetica,sans-Serif" font-size="10.00"> mpPcMtd</text>
</g>
<!-- Node11 -->
<g id="node11" class="node">
<title>Node11</title>
<g id="a_node11"><a xlink:href="structleafdraw__method__class.html" target="_top" xlink:title=" ">
<polygon fill="white" stroke="black" points="360,-0.5 360,-19.5 479,-19.5 479,-0.5 360,-0.5"/>
<text text-anchor="middle" x="419.5" y="-7.5" font-family="Helvetica,sans-Serif" font-size="10.00">leafdraw_method_class</text>
</a>
</g>
</g>
<!-- Node10&#45;&gt;Node11 -->
<g id="edge13" class="edge">
<title>Node10&#45;&gt;Node11</title>
<path fill="none" stroke="#9a32cd" stroke-dasharray="5,2" d="M217.23,-74.32C231.45,-60.35 253.67,-41.12 277,-31 302.86,-19.78 333.6,-14.38 359.82,-11.85"/>
<polygon fill="#9a32cd" stroke="#9a32cd" points="214.73,-71.87 210.2,-81.45 219.72,-76.79 214.73,-71.87"/>
<text text-anchor="middle" x="305" y="-34" font-family="Helvetica,sans-Serif" font-size="10.00"> mBase</text>
</g>
<!-- Node17 -->
<g id="node17" class="node">
<title>Node17</title>
<g id="a_node17"><a xlink:href="structnodedraw__method__class.html" target="_top" xlink:title=" ">
<polygon fill="white" stroke="black" points="506,-133.5 506,-152.5 631,-152.5 631,-133.5 506,-133.5"/>
<text text-anchor="middle" x="568.5" y="-140.5" font-family="Helvetica,sans-Serif" font-size="10.00">nodedraw_method_class</text>
</a>
</g>
</g>
<!-- Node10&#45;&gt;Node17 -->
<g id="edge25" class="edge">
<title>Node10&#45;&gt;Node17</title>
<path fill="none" stroke="#9a32cd" stroke-dasharray="5,2" d="M269.24,-100.62C337.04,-110.26 440.45,-124.95 505.97,-134.26"/>
<polygon fill="#9a32cd" stroke="#9a32cd" points="269.48,-97.12 259.09,-99.18 268.5,-104.05 269.48,-97.12"/>
<text text-anchor="middle" x="305" y="-113" font-family="Helvetica,sans-Serif" font-size="10.00"> mBase</text>
</g>
<!-- Node11&#45;&gt;Node9 -->
<g id="edge12" class="edge">
<title>Node11&#45;&gt;Node9</title>
<path fill="none" stroke="#9a32cd" stroke-dasharray="5,2" d="M489.35,-7.13C530.88,-6.91 584.56,-9.31 631,-20 655.12,-25.55 681.04,-37.7 697.6,-46.35"/>
<polygon fill="#9a32cd" stroke="#9a32cd" points="489.3,-3.63 479.34,-7.24 489.37,-10.63 489.3,-3.63"/>
<text text-anchor="middle" x="568.5" y="-34" font-family="Helvetica,sans-Serif" font-size="10.00"> mLfDrwMth</text>
<text text-anchor="middle" x="568.5" y="-23" font-family="Helvetica,sans-Serif" font-size="10.00">mMethods</text>
</g>
<!-- Node12&#45;&gt;Node8 -->
<g id="edge15" class="edge">
<title>Node12&#45;&gt;Node8</title>
<path fill="none" stroke="#9a32cd" stroke-dasharray="5,2" d="M1462.74,-254.61C1364.19,-254.85 1175.77,-258.33 1017,-279 1007.47,-280.24 997.34,-281.83 987.62,-283.49"/>
<polygon fill="#9a32cd" stroke="#9a32cd" points="1462.86,-258.11 1472.85,-254.6 1462.85,-251.11 1462.86,-258.11"/>
<text text-anchor="middle" x="1279" y="-263" font-family="Helvetica,sans-Serif" font-size="10.00"> mLyTg</text>
</g>
<!-- Node13&#45;&gt;Node2 -->
<g id="edge39" class="edge">
<title>Node13&#45;&gt;Node2</title>
<path fill="none" stroke="#9a32cd" stroke-dasharray="5,2" d="M1321.62,-387C1204.07,-387 872.13,-387 756.95,-387"/>
<polygon fill="#9a32cd" stroke="#9a32cd" points="1321.67,-390.5 1331.67,-387 1321.67,-383.5 1321.67,-390.5"/>
<text text-anchor="middle" x="1057" y="-390" font-family="Helvetica,sans-Serif" font-size="10.00"> mpLayer</text>
</g>
<!-- Node13&#45;&gt;Node12 -->
<g id="edge17" class="edge">
<title>Node13&#45;&gt;Node12</title>
<path fill="none" stroke="#9a32cd" stroke-dasharray="5,2" d="M1385.47,-371.02C1417.6,-345.32 1480.34,-295.13 1511.71,-270.04"/>
<polygon fill="#9a32cd" stroke="#9a32cd" points="1383.26,-368.31 1377.63,-377.29 1387.63,-373.78 1383.26,-368.31"/>
<text text-anchor="middle" x="1435" y="-347" font-family="Helvetica,sans-Serif" font-size="10.00"> mpLayer</text>
</g>
<!-- Node13&#45;&gt;Node16 -->
<g id="edge26" class="edge">
<title>Node13&#45;&gt;Node16</title>
<path fill="none" stroke="#9a32cd" stroke-dasharray="5,2" d="M1337.99,-372.57C1330.44,-368.72 1322.04,-364.85 1314,-362 1284.89,-351.67 1251.16,-344.15 1223.83,-339.1"/>
<polygon fill="#9a32cd" stroke="#9a32cd" points="1336.54,-375.76 1347.01,-377.35 1339.81,-369.57 1336.54,-375.76"/>
<text text-anchor="middle" x="1279" y="-365" font-family="Helvetica,sans-Serif" font-size="10.00"> mLayer</text>
</g>
<!-- Node13&#45;&gt;Node19 -->
<g id="edge33" class="edge">
<title>Node13&#45;&gt;Node19</title>
<path fill="none" stroke="#9a32cd" stroke-dasharray="5,2" d="M1407.57,-387C1431.66,-387 1461.87,-387 1486.31,-387"/>
<polygon fill="#9a32cd" stroke="#9a32cd" points="1407.31,-383.5 1397.31,-387 1407.31,-390.5 1407.31,-383.5"/>
<text text-anchor="middle" x="1435" y="-390" font-family="Helvetica,sans-Serif" font-size="10.00"> mpLayer</text>
</g>
<!-- Node14 -->
<g id="node14" class="node">
<title>Node14</title>
<g id="a_node14"><a xlink:href="structnode__lists__tree__class.html" target="_top" xlink:title=" ">
<polygon fill="white" stroke="black" points="1115,-484.5 1115,-503.5 1226,-503.5 1226,-484.5 1115,-484.5"/>
<text text-anchor="middle" x="1170.5" y="-491.5" font-family="Helvetica,sans-Serif" font-size="10.00">node_lists_tree_class</text>
</a>
</g>
</g>
<!-- Node14&#45;&gt;Node13 -->
<g id="edge19" class="edge">
<title>Node14&#45;&gt;Node13</title>
<path fill="none" stroke="#9a32cd" stroke-dasharray="5,2" d="M1236.38,-491.69C1262.36,-488.12 1291.42,-480.55 1314,-465 1338.97,-447.81 1354.05,-413.49 1360.23,-396.7"/>
<polygon fill="#9a32cd" stroke="#9a32cd" points="1235.72,-488.25 1226.21,-492.91 1236.56,-495.2 1235.72,-488.25"/>
<text text-anchor="middle" x="1279" y="-493" font-family="Helvetica,sans-Serif" font-size="10.00"> mNodeListTree</text>
</g>
<!-- Node15&#45;&gt;Node13 -->
<g id="edge28" class="edge">
<title>Node15&#45;&gt;Node13</title>
<path fill="none" stroke="#9a32cd" stroke-dasharray="5,2" d="M986.15,-543.65C1063.63,-559.39 1217.09,-577.78 1314,-505 1350.06,-477.92 1360.06,-419.59 1362.65,-396.6"/>
<polygon fill="#9a32cd" stroke="#9a32cd" points="986.69,-540.19 976.18,-541.56 985.25,-547.04 986.69,-540.19"/>
<text text-anchor="middle" x="1170.5" y="-560" font-family="Helvetica,sans-Serif" font-size="10.00"> mCancelList</text>
</g>
<!-- Node15&#45;&gt;Node14 -->
<g id="edge20" class="edge">
<title>Node15&#45;&gt;Node14</title>
<path fill="none" stroke="#9a32cd" stroke-dasharray="5,2" d="M988.96,-523.61C998.28,-522.08 1007.93,-520.49 1017,-519 1049.43,-513.67 1085.74,-507.72 1114.8,-502.96"/>
<polygon fill="#9a32cd" stroke="#9a32cd" points="988.3,-520.17 979,-525.25 989.44,-527.08 988.3,-520.17"/>
<text text-anchor="middle" x="1057" y="-522" font-family="Helvetica,sans-Serif" font-size="10.00"> mpLists</text>
</g>
<!-- Node15&#45;&gt;Node16 -->
<g id="edge27" class="edge">
<title>Node15&#45;&gt;Node16</title>
<path fill="none" stroke="#9a32cd" stroke-dasharray="5,2" d="M958.97,-515.83C989.86,-491.8 1049.12,-444.86 1097,-402 1120.36,-381.08 1146.29,-354.93 1159.92,-340.93"/>
<polygon fill="#9a32cd" stroke="#9a32cd" points="956.44,-513.36 950.69,-522.26 960.73,-518.89 956.44,-513.36"/>
<text text-anchor="middle" x="1057" y="-470" font-family="Helvetica,sans-Serif" font-size="10.00"> mLayerNodeLists</text>
</g>
<!-- Node16&#45;&gt;Node13 -->
<g id="edge22" class="edge">
<title>Node16&#45;&gt;Node13</title>
<path fill="none" stroke="#9a32cd" stroke-dasharray="5,2" d="M1219.28,-319.75C1248.04,-315.4 1284.64,-314.31 1314,-328 1335.81,-338.17 1351.42,-363.21 1358.77,-377.18"/>
<polygon fill="#9a32cd" stroke="#9a32cd" points="1218.35,-316.35 1209.07,-321.47 1219.52,-323.26 1218.35,-316.35"/>
<text text-anchor="middle" x="1279" y="-331" font-family="Helvetica,sans-Serif" font-size="10.00"> mpPcNode</text>
</g>
<!-- Node17&#45;&gt;Node16 -->
<g id="edge24" class="edge">
<title>Node17&#45;&gt;Node16</title>
<path fill="none" stroke="#9a32cd" stroke-dasharray="5,2" d="M641.41,-141.51C700.45,-142.1 785.65,-147.19 857,-168 981.54,-204.32 1114.12,-292.27 1156.02,-321.43"/>
<polygon fill="#9a32cd" stroke="#9a32cd" points="641.09,-138 631.07,-141.44 641.05,-145 641.09,-138"/>
<text text-anchor="middle" x="829" y="-171" font-family="Helvetica,sans-Serif" font-size="10.00"> mpNodeMtd</text>
</g>
<!-- Node18&#45;&gt;Node8 -->
<g id="edge29" class="edge">
<title>Node18&#45;&gt;Node8</title>
<path fill="none" stroke="#9a32cd" stroke-dasharray="5,2" d="M603.56,-219.53C670.49,-234.32 819.01,-267.14 892.74,-283.44"/>
<polygon fill="#9a32cd" stroke="#9a32cd" points="604.07,-216.06 593.55,-217.31 602.56,-222.89 604.07,-216.06"/>
<text text-anchor="middle" x="716" y="-261" font-family="Helvetica,sans-Serif" font-size="10.00"> mLnTg</text>
</g>
<!-- Node19&#45;&gt;Node8 -->
<g id="edge31" class="edge">
<title>Node19&#45;&gt;Node8</title>
<path fill="none" stroke="#9a32cd" stroke-dasharray="5,2" d="M1517.84,-369.03C1504.44,-351.6 1481.57,-326.08 1455,-314 1373.33,-276.87 1104.35,-284.9 990.08,-290.22"/>
<polygon fill="#9a32cd" stroke="#9a32cd" points="1515.19,-371.33 1523.95,-377.29 1520.82,-367.17 1515.19,-371.33"/>
<text text-anchor="middle" x="1279" y="-293" font-family="Helvetica,sans-Serif" font-size="10.00"> mDtTg</text>
</g>
<!-- Node20&#45;&gt;Node8 -->
<g id="edge34" class="edge">
<title>Node20&#45;&gt;Node8</title>
<path fill="none" stroke="#9a32cd" stroke-dasharray="5,2" d="M782.82,-293C815.18,-293 853.62,-293 883.9,-293"/>
<polygon fill="#9a32cd" stroke="#9a32cd" points="782.55,-289.5 772.55,-293 782.55,-296.5 782.55,-289.5"/>
<text text-anchor="middle" x="829" y="-296" font-family="Helvetica,sans-Serif" font-size="10.00"> mPi</text>
</g>
<!-- Node21 -->
<g id="node21" class="node">
<title>Node21</title>
<g id="a_node21"><a xlink:href="structprocess__priority__queue__info.html" target="_top" xlink:title=" ">
<polygon fill="white" stroke="black" points="351,-237.5 351,-256.5 488,-256.5 488,-237.5 351,-237.5"/>
<text text-anchor="middle" x="419.5" y="-244.5" font-family="Helvetica,sans-Serif" font-size="10.00">process_priority_queue_info</text>
</a>
</g>
</g>
<!-- Node21&#45;&gt;Node20 -->
<g id="edge37" class="edge">
<title>Node21&#45;&gt;Node20</title>
<path fill="none" stroke="#9a32cd" stroke-dasharray="5,2" d="M498.41,-244.13C538.5,-244.3 587.87,-247.07 631,-257 655.12,-262.55 681.04,-274.7 697.6,-283.35"/>
<polygon fill="#9a32cd" stroke="#9a32cd" points="498.16,-240.63 488.17,-244.14 498.17,-247.63 498.16,-240.63"/>
<text text-anchor="middle" x="568.5" y="-271" font-family="Helvetica,sans-Serif" font-size="10.00"> mInfoCurr</text>
<text text-anchor="middle" x="568.5" y="-260" font-family="Helvetica,sans-Serif" font-size="10.00">mInfoQ</text>
</g>
<!-- Node22 -->
<g id="node22" class="node">
<title>Node22</title>
<g id="a_node22"><a xlink:href="structrequest__of__phase__process__class.html" target="_top" xlink:title=" ">
<polygon fill="white" stroke="black" points="649,-439 649,-469 783,-469 783,-439 649,-439"/>
<text text-anchor="start" x="657" y="-457" font-family="Helvetica,sans-Serif" font-size="10.00">request_of_phase_process</text>
<text text-anchor="middle" x="716" y="-446" font-family="Helvetica,sans-Serif" font-size="10.00">_class</text>
</a>
</g>
</g>
<!-- Node22&#45;&gt;Node1 -->
<g id="edge40" class="edge">
<title>Node22&#45;&gt;Node1</title>
<path fill="none" stroke="#9a32cd" stroke-dasharray="5,2" d="M793.11,-447.4C819.89,-445.07 849.62,-442.49 874.99,-440.29"/>
<polygon fill="#9a32cd" stroke="#9a32cd" points="792.66,-443.92 783,-448.27 793.27,-450.9 792.66,-443.92"/>
<text text-anchor="middle" x="829" y="-449" font-family="Helvetica,sans-Serif" font-size="10.00"> unk_0x48</text>
</g>
</g>
</svg>
