<?xml version="1.0" encoding="UTF-8" standalone="no"?>
<!DOCTYPE svg PUBLIC "-//W3C//DTD SVG 1.1//EN"
 "http://www.w3.org/Graphics/SVG/1.1/DTD/svg11.dtd">
<!-- Generated by graphviz version 3.0.0 (20221109.1736)
 -->
<!-- Title: pkcdata Pages: 1 -->
<svg width="179pt" height="117pt"
 viewBox="0.00 0.00 179.00 117.00" xmlns="http://www.w3.org/2000/svg" xmlns:xlink="http://www.w3.org/1999/xlink">
<g id="graph0" class="graph" transform="scale(1 1) rotate(0) translate(4 113)">
<title>pkcdata</title>
<polygon fill="white" stroke="transparent" points="-4,4 -4,-113 175,-113 175,4 -4,4"/>
<!-- Node1 -->
<g id="node1" class="node">
<title>Node1</title>
<g id="a_node1"><a xlink:title=" ">
<polygon fill="#bfbfbf" stroke="black" points="40.5,-0.5 40.5,-19.5 91.5,-19.5 91.5,-0.5 40.5,-0.5"/>
<text text-anchor="middle" x="66" y="-7.5" font-family="Helvetica,sans-Serif" font-size="10.00">pkcdata</text>
</a>
</g>
</g>
<!-- Node2 -->
<g id="node2" class="node">
<title>Node2</title>
<g id="a_node2"><a xlink:href="structVec.html" target="_top" xlink:title=" ">
<polygon fill="white" stroke="black" points="0,-89.5 0,-108.5 34,-108.5 34,-89.5 0,-89.5"/>
<text text-anchor="middle" x="17" y="-96.5" font-family="Helvetica,sans-Serif" font-size="10.00">Vec</text>
</a>
</g>
</g>
<!-- Node2&#45;&gt;Node1 -->
<g id="edge1" class="edge">
<title>Node2&#45;&gt;Node1</title>
<path fill="none" stroke="#9a32cd" stroke-dasharray="5,2" d="M12.74,-79.29C10.92,-66.74 10.66,-50.32 18,-38 23.04,-29.54 31.8,-23.52 40.46,-19.34"/>
<polygon fill="#9a32cd" stroke="#9a32cd" points="9.3,-79.94 14.58,-89.12 16.18,-78.65 9.3,-79.94"/>
<text text-anchor="middle" x="55.5" y="-63" font-family="Helvetica,sans-Serif" font-size="10.00"> field_0x0</text>
<text text-anchor="middle" x="55.5" y="-52" font-family="Helvetica,sans-Serif" font-size="10.00">field_0x4</text>
<text text-anchor="middle" x="55.5" y="-41" font-family="Helvetica,sans-Serif" font-size="10.00">m_area_min_pos</text>
</g>
<!-- Node3 -->
<g id="node3" class="node">
<title>Node3</title>
<g id="a_node3"><a xlink:href="structKC__PrismData.html" target="_top" xlink:title=" ">
<polygon fill="white" stroke="black" points="74.5,-89.5 74.5,-108.5 155.5,-108.5 155.5,-89.5 74.5,-89.5"/>
<text text-anchor="middle" x="115" y="-96.5" font-family="Helvetica,sans-Serif" font-size="10.00">KC_PrismData</text>
</a>
</g>
</g>
<!-- Node3&#45;&gt;Node1 -->
<g id="edge2" class="edge">
<title>Node3&#45;&gt;Node1</title>
<path fill="none" stroke="#9a32cd" stroke-dasharray="5,2" d="M110.51,-79.64C106.96,-67.25 101.22,-50.87 93,-38 88.58,-31.07 82.1,-24.52 76.6,-19.61"/>
<polygon fill="#9a32cd" stroke="#9a32cd" points="107.13,-80.55 113.08,-89.32 113.9,-78.76 107.13,-80.55"/>
<text text-anchor="middle" x="139" y="-57.5" font-family="Helvetica,sans-Serif" font-size="10.00"> m_block_data</text>
<text text-anchor="middle" x="139" y="-46.5" font-family="Helvetica,sans-Serif" font-size="10.00">m_prism_data</text>
</g>
</g>
</svg>
