<?xml version="1.0" encoding="UTF-8" standalone="no"?>
<!DOCTYPE svg PUBLIC "-//W3C//DTD SVG 1.1//EN"
 "http://www.w3.org/Graphics/SVG/1.1/DTD/svg11.dtd">
<!-- Generated by graphviz version 3.0.0 (20220413.0242)
 -->
<!-- Title: JUTGamePad Pages: 1 -->
<!--zoomable 533 -->
<svg id="main" version="1.1" xmlns="http://www.w3.org/2000/svg" xmlns:xlink="http://www.w3.org/1999/xlink" xml:space="preserve" onload="init(evt)">
<style type="text/css"><![CDATA[
.edge:hover path { stroke: red; }
.edge:hover polygon { stroke: red; fill: red; }
]]></style>
<script type="text/javascript"><![CDATA[
var edges = document.getElementsByTagName('g');
if (edges && edges.length) {
  for (var i=0;i<edges.length;i++) {
    if (edges[i].id.substr(0,4)=='edge') {
      edges[i].setAttribute('class','edge');
    }
  }
}
]]></script>
        <defs>
                <circle id="rim" cx="0" cy="0" r="7"/>
                <circle id="rim2" cx="0" cy="0" r="3.5"/>
                <g id="zoomPlus">
                        <use xlink:href="#rim" fill="#404040">
                                <set attributeName="fill" to="#808080" begin="zoomplus.mouseover" end="zoomplus.mouseout"/>
                        </use>
                        <path d="M-4,0h8M0,-4v8" fill="none" stroke="white" stroke-width="1.5" pointer-events="none"/>
                </g>
                <g id="zoomMin">
                        <use xlink:href="#rim" fill="#404040">
                                <set attributeName="fill" to="#808080" begin="zoomminus.mouseover" end="zoomminus.mouseout"/>
                        </use>
                        <path d="M-4,0h8" fill="none" stroke="white" stroke-width="1.5" pointer-events="none"/>
                </g>
                <g id="dirArrow">
                        <path fill="none" stroke="white" stroke-width="1.5" d="M0,-3.0v7 M-2.5,-0.5L0,-3.0L2.5,-0.5"/>
                </g>
               <g id="resetDef">
                       <use xlink:href="#rim2" fill="#404040">
                               <set attributeName="fill" to="#808080" begin="reset.mouseover" end="reset.mouseout"/>
                       </use>
               </g>
        </defs>

<script type="text/javascript">
var viewWidth = 1005;
var viewHeight = 533;
var sectionId = 'dynsection-1';
</script>
<script xlink:href="svgpan.js"/>
<svg id="graph" class="graph">
<g id="viewport">
<title>JUTGamePad</title>
<polygon fill="white" stroke="transparent" points="-4,4 -4,-529 1001,-529 1001,4 -4,4"/>
<!-- Node1 -->
<g id="node1" class="node">
<title>Node1</title>
<g id="a_node1"><a xlink:title=" ">
<polygon fill="#bfbfbf" stroke="black" points="918,-343.5 918,-362.5 997,-362.5 997,-343.5 918,-343.5"/>
<text text-anchor="middle" x="957.5" y="-350.5" font-family="Helvetica,sans-Serif" font-size="10.00">JUTGamePad</text>
</a>
</g>
</g>
<!-- Node2 -->
<g id="node2" class="node">
<title>Node2</title>
<g id="a_node2"><a xlink:href="structJKRDisposer.html" target="_top" xlink:title=" ">
<polygon fill="white" stroke="black" points="705.5,-152.5 705.5,-171.5 779.5,-171.5 779.5,-152.5 705.5,-152.5"/>
<text text-anchor="middle" x="742.5" y="-159.5" font-family="Helvetica,sans-Serif" font-size="10.00">JKRDisposer</text>
</a>
</g>
</g>
<!-- Node2&#45;&gt;Node1 -->
<g id="edge1" class="edge">
<title>Node2&#45;&gt;Node1</title>
<path fill="none" stroke="midnightblue" d="M789.75,-158.91C824,-159.14 869.78,-165.07 900,-191 947.47,-231.74 955.08,-314.65 956.28,-343.13"/>
<polygon fill="midnightblue" stroke="midnightblue" points="789.48,-155.42 779.52,-159.01 789.55,-162.42 789.48,-155.42"/>
</g>
<!-- Node3 -->
<g id="node3" class="node">
<title>Node3</title>
<g id="a_node3"><a xlink:href="structJKRHeap.html" target="_top" xlink:title=" ">
<polygon fill="white" stroke="black" points="928,-79.5 928,-98.5 987,-98.5 987,-79.5 928,-79.5"/>
<text text-anchor="middle" x="957.5" y="-86.5" font-family="Helvetica,sans-Serif" font-size="10.00">JKRHeap</text>
</a>
</g>
</g>
<!-- Node2&#45;&gt;Node3 -->
<g id="edge3" class="edge">
<title>Node2&#45;&gt;Node3</title>
<path fill="none" stroke="midnightblue" d="M778.96,-148.95C795.89,-142.79 816.45,-135.4 835,-129 866.7,-118.07 903.28,-106.12 927.95,-98.15"/>
<polygon fill="midnightblue" stroke="midnightblue" points="777.65,-145.7 769.46,-152.42 780.06,-152.27 777.65,-145.7"/>
</g>
<!-- Node3&#45;&gt;Node2 -->
<g id="edge2" class="edge">
<title>Node3&#45;&gt;Node2</title>
<path fill="none" stroke="#9a32cd" stroke-dasharray="5,2" d="M936.33,-104.73C925.97,-112.13 912.85,-120.52 900,-126 860.63,-142.78 812.21,-152.38 779.74,-157.38"/>
<polygon fill="#9a32cd" stroke="#9a32cd" points="938.7,-107.33 944.65,-98.57 934.53,-101.71 938.7,-107.33"/>
<text text-anchor="middle" x="867.5" y="-149" font-family="Helvetica,sans-Serif" font-size="10.00"> mHeap</text>
</g>
<!-- Node3&#45;&gt;Node3 -->
<g id="edge4" class="edge">
<title>Node3&#45;&gt;Node3</title>
<path fill="none" stroke="#9a32cd" stroke-dasharray="5,2" d="M940.83,-108.4C941.95,-113.31 947.5,-117 957.5,-117 973.5,-117 978.12,-107.57 971.37,-98.76"/>
<polygon fill="#9a32cd" stroke="#9a32cd" points="944.21,-109.34 943.63,-98.76 937.48,-107.39 944.21,-109.34"/>
<text text-anchor="middle" x="957.5" y="-142" font-family="Helvetica,sans-Serif" font-size="10.00"> sCurrentHeap</text>
<text text-anchor="middle" x="957.5" y="-131" font-family="Helvetica,sans-Serif" font-size="10.00">sRootHeap</text>
<text text-anchor="middle" x="957.5" y="-120" font-family="Helvetica,sans-Serif" font-size="10.00">sSystemHeap</text>
</g>
<!-- Node4 -->
<g id="node4" class="node">
<title>Node4</title>
<g id="a_node4"><a xlink:href="structOSMutex.html" target="_top" xlink:title=" ">
<polygon fill="white" stroke="black" points="714,-0.5 714,-19.5 771,-19.5 771,-0.5 714,-0.5"/>
<text text-anchor="middle" x="742.5" y="-7.5" font-family="Helvetica,sans-Serif" font-size="10.00">OSMutex</text>
</a>
</g>
</g>
<!-- Node4&#45;&gt;Node3 -->
<g id="edge5" class="edge">
<title>Node4&#45;&gt;Node3</title>
<path fill="none" stroke="#9a32cd" stroke-dasharray="5,2" d="M781.25,-8.31C814.27,-8.36 862.65,-12.22 900,-31 922.35,-42.24 940.94,-65.89 950.19,-79.26"/>
<polygon fill="#9a32cd" stroke="#9a32cd" points="781.06,-4.81 771.1,-8.42 781.13,-11.81 781.06,-4.81"/>
<text text-anchor="middle" x="867.5" y="-34" font-family="Helvetica,sans-Serif" font-size="10.00"> mMutex</text>
</g>
<!-- Node5 -->
<g id="node5" class="node">
<title>Node5</title>
<g id="a_node5"><a xlink:href="classJSUTree.html" target="_top" xlink:title=" ">
<polygon fill="white" stroke="black" points="685.5,-85.5 685.5,-104.5 799.5,-104.5 799.5,-85.5 685.5,-85.5"/>
<text text-anchor="middle" x="742.5" y="-92.5" font-family="Helvetica,sans-Serif" font-size="10.00">JSUTree&lt; JKRHeap &gt;</text>
</a>
</g>
</g>
<!-- Node5&#45;&gt;Node3 -->
<g id="edge6" class="edge">
<title>Node5&#45;&gt;Node3</title>
<path fill="none" stroke="#9a32cd" stroke-dasharray="5,2" d="M809.86,-91.01C818.32,-90.61 826.86,-90.26 835,-90 866.63,-89.01 902.9,-88.83 927.52,-88.86"/>
<polygon fill="#9a32cd" stroke="#9a32cd" points="809.43,-87.53 799.61,-91.52 809.78,-94.52 809.43,-87.53"/>
<text text-anchor="middle" x="867.5" y="-93" font-family="Helvetica,sans-Serif" font-size="10.00"> mChildTree</text>
</g>
<!-- Node6 -->
<g id="node6" class="node">
<title>Node6</title>
<g id="a_node6"><a xlink:href="structJSUList.html" target="_top" xlink:title=" ">
<polygon fill="white" stroke="black" points="231,-84.5 231,-103.5 342,-103.5 342,-84.5 231,-84.5"/>
<text text-anchor="middle" x="286.5" y="-91.5" font-family="Helvetica,sans-Serif" font-size="10.00">JSUList&lt; JKRHeap &gt;</text>
</a>
</g>
</g>
<!-- Node6&#45;&gt;Node5 -->
<g id="edge7" class="edge">
<title>Node6&#45;&gt;Node5</title>
<path fill="none" stroke="midnightblue" d="M352.27,-94.14C441.57,-94.34 601.04,-94.69 685.48,-94.88"/>
<polygon fill="midnightblue" stroke="midnightblue" points="352.27,-90.64 342.26,-94.12 352.26,-97.64 352.27,-90.64"/>
</g>
<!-- Node7 -->
<g id="node7" class="node">
<title>Node7</title>
<g id="a_node7"><a xlink:href="structJSUPtrList.html" target="_top" xlink:title=" ">
<polygon fill="white" stroke="black" points="0,-117.5 0,-136.5 65,-136.5 65,-117.5 0,-117.5"/>
<text text-anchor="middle" x="32.5" y="-124.5" font-family="Helvetica,sans-Serif" font-size="10.00">JSUPtrList</text>
</a>
</g>
</g>
<!-- Node7&#45;&gt;Node6 -->
<g id="edge8" class="edge">
<title>Node7&#45;&gt;Node6</title>
<path fill="none" stroke="midnightblue" d="M75.25,-119.22C77.87,-118.79 80.47,-118.38 83,-118 132.89,-110.52 189.98,-103.93 230.8,-99.56"/>
<polygon fill="midnightblue" stroke="midnightblue" points="74.41,-115.81 65.14,-120.95 75.59,-122.71 74.41,-115.81"/>
</g>
<!-- Node8 -->
<g id="node8" class="node">
<title>Node8</title>
<g id="a_node8"><a xlink:href="structJSUPtrLink.html" target="_top" xlink:title=" ">
<polygon fill="white" stroke="black" points="135,-160.5 135,-179.5 203,-179.5 203,-160.5 135,-160.5"/>
<text text-anchor="middle" x="169" y="-167.5" font-family="Helvetica,sans-Serif" font-size="10.00">JSUPtrLink</text>
</a>
</g>
</g>
<!-- Node7&#45;&gt;Node8 -->
<g id="edge10" class="edge">
<title>Node7&#45;&gt;Node8</title>
<path fill="none" stroke="#9a32cd" stroke-dasharray="5,2" d="M61.07,-141.02C68.1,-144.26 75.73,-147.49 83,-150 99.76,-155.8 118.96,-160.47 134.86,-163.84"/>
<polygon fill="#9a32cd" stroke="#9a32cd" points="62.46,-137.81 51.93,-136.66 59.45,-144.12 62.46,-137.81"/>
<text text-anchor="middle" x="100" y="-162" font-family="Helvetica,sans-Serif" font-size="10.00"> mList</text>
</g>
<!-- Node10 -->
<g id="node10" class="node">
<title>Node10</title>
<g id="a_node10"><a xlink:href="structJSUList.html" target="_top" xlink:title=" ">
<polygon fill="white" stroke="black" points="520,-46.5 520,-65.5 646,-65.5 646,-46.5 520,-46.5"/>
<text text-anchor="middle" x="583" y="-53.5" font-family="Helvetica,sans-Serif" font-size="10.00">JSUList&lt; JKRDisposer &gt;</text>
</a>
</g>
</g>
<!-- Node7&#45;&gt;Node10 -->
<g id="edge15" class="edge">
<title>Node7&#45;&gt;Node10</title>
<path fill="none" stroke="midnightblue" d="M67.78,-114C72.85,-112.23 78.04,-110.51 83,-109 143.44,-90.62 158.51,-84.26 221,-75 324.99,-59.59 447.44,-56.21 519.68,-55.72"/>
<polygon fill="midnightblue" stroke="midnightblue" points="66.49,-110.74 58.25,-117.41 68.85,-117.33 66.49,-110.74"/>
</g>
<!-- Node18 -->
<g id="node18" class="node">
<title>Node18</title>
<g id="a_node18"><a xlink:href="structJSUList.html" target="_top" xlink:title=" ">
<polygon fill="white" stroke="black" points="221,-360.5 221,-379.5 352,-379.5 352,-360.5 221,-360.5"/>
<text text-anchor="middle" x="286.5" y="-367.5" font-family="Helvetica,sans-Serif" font-size="10.00">JSUList&lt; JUTGamePad &gt;</text>
</a>
</g>
</g>
<!-- Node7&#45;&gt;Node18 -->
<g id="edge26" class="edge">
<title>Node7&#45;&gt;Node18</title>
<path fill="none" stroke="midnightblue" d="M50.02,-143.97C69.97,-164.36 104.61,-199.51 135,-229 186.65,-279.12 249.97,-337.46 274.8,-360.21"/>
<polygon fill="midnightblue" stroke="midnightblue" points="52.4,-141.38 42.9,-136.67 47.39,-146.27 52.4,-141.38"/>
</g>
<!-- Node8&#45;&gt;Node7 -->
<g id="edge9" class="edge">
<title>Node8&#45;&gt;Node7</title>
<path fill="none" stroke="#9a32cd" stroke-dasharray="5,2" d="M152.87,-152.81C143.56,-143.56 130.8,-133.05 117,-128 100.66,-122.03 81.29,-121.43 65.32,-122.49"/>
<polygon fill="#9a32cd" stroke="#9a32cd" points="150.4,-155.29 159.82,-160.13 155.47,-150.47 150.4,-155.29"/>
<text text-anchor="middle" x="100" y="-142" font-family="Helvetica,sans-Serif" font-size="10.00"> mHead</text>
<text text-anchor="middle" x="100" y="-131" font-family="Helvetica,sans-Serif" font-size="10.00">mTail</text>
</g>
<!-- Node8&#45;&gt;Node8 -->
<g id="edge11" class="edge">
<title>Node8&#45;&gt;Node8</title>
<path fill="none" stroke="#9a32cd" stroke-dasharray="5,2" d="M156.48,-189.77C157.46,-194.5 161.64,-198 169,-198 181.09,-198 184.58,-188.57 179.48,-179.76"/>
<polygon fill="#9a32cd" stroke="#9a32cd" points="159.95,-190.25 158.52,-179.76 153.09,-188.86 159.95,-190.25"/>
<text text-anchor="middle" x="169" y="-212" font-family="Helvetica,sans-Serif" font-size="10.00"> mNext</text>
<text text-anchor="middle" x="169" y="-201" font-family="Helvetica,sans-Serif" font-size="10.00">mPrev</text>
</g>
<!-- Node9 -->
<g id="node9" class="node">
<title>Node9</title>
<g id="a_node9"><a xlink:href="structJSULink.html" target="_top" xlink:title=" ">
<polygon fill="white" stroke="black" points="377.5,-122.5 377.5,-141.5 490.5,-141.5 490.5,-122.5 377.5,-122.5"/>
<text text-anchor="middle" x="434" y="-129.5" font-family="Helvetica,sans-Serif" font-size="10.00">JSULink&lt; JKRHeap &gt;</text>
</a>
</g>
</g>
<!-- Node8&#45;&gt;Node9 -->
<g id="edge13" class="edge">
<title>Node8&#45;&gt;Node9</title>
<path fill="none" stroke="midnightblue" d="M213.03,-163.78C257.88,-157.3 328.33,-147.12 377.37,-140.04"/>
<polygon fill="midnightblue" stroke="midnightblue" points="212.44,-160.33 203.04,-165.23 213.44,-167.26 212.44,-160.33"/>
</g>
<!-- Node11 -->
<g id="node11" class="node">
<title>Node11</title>
<g id="a_node11"><a xlink:href="structJSULink.html" target="_top" xlink:title=" ">
<polygon fill="white" stroke="black" points="370,-160.5 370,-179.5 498,-179.5 498,-160.5 370,-160.5"/>
<text text-anchor="middle" x="434" y="-167.5" font-family="Helvetica,sans-Serif" font-size="10.00">JSULink&lt; JKRDisposer &gt;</text>
</a>
</g>
</g>
<!-- Node8&#45;&gt;Node11 -->
<g id="edge17" class="edge">
<title>Node8&#45;&gt;Node11</title>
<path fill="none" stroke="midnightblue" d="M213.1,-170C255.73,-170 321.47,-170 369.97,-170"/>
<polygon fill="midnightblue" stroke="midnightblue" points="213.04,-166.5 203.04,-170 213.04,-173.5 213.04,-166.5"/>
</g>
<!-- Node15 -->
<g id="node15" class="node">
<title>Node15</title>
<g id="a_node15"><a xlink:href="structJSULink.html" target="_top" xlink:title=" ">
<polygon fill="white" stroke="black" points="516,-329.5 516,-348.5 650,-348.5 650,-329.5 516,-329.5"/>
<text text-anchor="middle" x="583" y="-336.5" font-family="Helvetica,sans-Serif" font-size="10.00">JSULink&lt; JUTGamePad &gt;</text>
</a>
</g>
</g>
<!-- Node8&#45;&gt;Node15 -->
<g id="edge22" class="edge">
<title>Node8&#45;&gt;Node15</title>
<path fill="none" stroke="midnightblue" d="M202.97,-183.52C283.6,-216.6 489.21,-300.94 558.67,-329.43"/>
<polygon fill="midnightblue" stroke="midnightblue" points="203.91,-180.13 193.33,-179.57 201.25,-186.6 203.91,-180.13"/>
</g>
<!-- Node9&#45;&gt;Node5 -->
<g id="edge12" class="edge">
<title>Node9&#45;&gt;Node5</title>
<path fill="none" stroke="midnightblue" d="M500.7,-125.18C543.3,-120.63 599.98,-114.34 650,-108 661.46,-106.55 673.71,-104.88 685.4,-103.24"/>
<polygon fill="midnightblue" stroke="midnightblue" points="500.31,-121.7 490.74,-126.24 501.05,-128.66 500.31,-121.7"/>
</g>
<!-- Node10&#45;&gt;Node3 -->
<g id="edge14" class="edge">
<title>Node10&#45;&gt;Node3</title>
<path fill="none" stroke="#9a32cd" stroke-dasharray="5,2" d="M656.65,-56.35C702.71,-57.18 763.48,-59.39 817,-65 855.62,-69.05 899.7,-77.24 927.8,-82.92"/>
<polygon fill="#9a32cd" stroke="#9a32cd" points="656.52,-52.85 646.46,-56.18 656.4,-59.84 656.52,-52.85"/>
<text text-anchor="middle" x="742.5" y="-68" font-family="Helvetica,sans-Serif" font-size="10.00"> mDisposerList</text>
</g>
<!-- Node11&#45;&gt;Node2 -->
<g id="edge16" class="edge">
<title>Node11&#45;&gt;Node2</title>
<path fill="none" stroke="#9a32cd" stroke-dasharray="5,2" d="M508.28,-168.09C570.45,-166.46 657.02,-164.21 705.29,-162.95"/>
<polygon fill="#9a32cd" stroke="#9a32cd" points="508.04,-164.59 498.14,-168.35 508.22,-171.59 508.04,-164.59"/>
<text text-anchor="middle" x="583" y="-170" font-family="Helvetica,sans-Serif" font-size="10.00"> mLink</text>
</g>
<!-- Node12 -->
<g id="node12" class="node">
<title>Node12</title>
<g id="a_node12"><a xlink:href="structJUTGamePad_1_1CButton.html" target="_top" xlink:title=" ">
<polygon fill="white" stroke="black" points="683,-285.5 683,-304.5 802,-304.5 802,-285.5 683,-285.5"/>
<text text-anchor="middle" x="742.5" y="-292.5" font-family="Helvetica,sans-Serif" font-size="10.00">JUTGamePad::CButton</text>
</a>
</g>
</g>
<!-- Node12&#45;&gt;Node1 -->
<g id="edge18" class="edge">
<title>Node12&#45;&gt;Node1</title>
<path fill="none" stroke="#9a32cd" stroke-dasharray="5,2" d="M812.36,-296.9C840.27,-299.43 872.37,-304.61 900,-315 917.48,-321.57 934.91,-334.51 945.69,-343.45"/>
<polygon fill="#9a32cd" stroke="#9a32cd" points="812.53,-293.41 802.28,-296.09 811.97,-300.38 812.53,-293.41"/>
<text text-anchor="middle" x="867.5" y="-329" font-family="Helvetica,sans-Serif" font-size="10.00"> mButton</text>
<text text-anchor="middle" x="867.5" y="-318" font-family="Helvetica,sans-Serif" font-size="10.00">mPadButton</text>
</g>
<!-- Node13 -->
<g id="node13" class="node">
<title>Node13</title>
<g id="a_node13"><a xlink:href="structJUTGamePad_1_1CStick.html" target="_top" xlink:title=" ">
<polygon fill="white" stroke="black" points="686,-233.5 686,-252.5 799,-252.5 799,-233.5 686,-233.5"/>
<text text-anchor="middle" x="742.5" y="-240.5" font-family="Helvetica,sans-Serif" font-size="10.00">JUTGamePad::CStick</text>
</a>
</g>
</g>
<!-- Node13&#45;&gt;Node1 -->
<g id="edge19" class="edge">
<title>Node13&#45;&gt;Node1</title>
<path fill="none" stroke="#9a32cd" stroke-dasharray="5,2" d="M806.02,-232.72C836.49,-230.9 872.42,-233.79 900,-251 934.17,-272.33 949.36,-322.13 954.43,-343.25"/>
<polygon fill="#9a32cd" stroke="#9a32cd" points="805.61,-229.24 795.91,-233.5 806.15,-236.22 805.61,-229.24"/>
<text text-anchor="middle" x="867.5" y="-287" font-family="Helvetica,sans-Serif" font-size="10.00"> mMainStick</text>
<text text-anchor="middle" x="867.5" y="-276" font-family="Helvetica,sans-Serif" font-size="10.00">mPadMStick</text>
<text text-anchor="middle" x="867.5" y="-265" font-family="Helvetica,sans-Serif" font-size="10.00">mPadSStick</text>
<text text-anchor="middle" x="867.5" y="-254" font-family="Helvetica,sans-Serif" font-size="10.00">mSubStick</text>
</g>
<!-- Node14 -->
<g id="node14" class="node">
<title>Node14</title>
<g id="a_node14"><a xlink:href="structJUTGamePad_1_1CRumble.html" target="_top" xlink:title=" ">
<polygon fill="white" stroke="black" points="681,-195.5 681,-214.5 804,-214.5 804,-195.5 681,-195.5"/>
<text text-anchor="middle" x="742.5" y="-202.5" font-family="Helvetica,sans-Serif" font-size="10.00">JUTGamePad::CRumble</text>
</a>
</g>
</g>
<!-- Node14&#45;&gt;Node1 -->
<g id="edge20" class="edge">
<title>Node14&#45;&gt;Node1</title>
<path fill="none" stroke="#9a32cd" stroke-dasharray="5,2" d="M813.38,-195.12C842.61,-194.62 875.42,-199.2 900,-217 942.86,-248.04 953.35,-317.8 955.79,-343.37"/>
<polygon fill="#9a32cd" stroke="#9a32cd" points="813.07,-191.63 803.21,-195.49 813.33,-198.62 813.07,-191.63"/>
<text text-anchor="middle" x="867.5" y="-220" font-family="Helvetica,sans-Serif" font-size="10.00"> mRumble</text>
</g>
<!-- Node15&#45;&gt;Node1 -->
<g id="edge21" class="edge">
<title>Node15&#45;&gt;Node1</title>
<path fill="none" stroke="#9a32cd" stroke-dasharray="5,2" d="M651.1,-349.96C656.8,-350.72 662.5,-351.41 668,-352 770.62,-362.99 797.11,-370.14 900,-362 905.84,-361.54 911.99,-360.81 918,-359.96"/>
<polygon fill="#9a32cd" stroke="#9a32cd" points="651.22,-346.44 640.84,-348.53 650.26,-353.38 651.22,-346.44"/>
<text text-anchor="middle" x="742.5" y="-368" font-family="Helvetica,sans-Serif" font-size="10.00"> mLink</text>
</g>
<!-- Node16 -->
<g id="node16" class="node">
<title>Node16</title>
<g id="a_node16"><a xlink:href="structJUTGamePadRecordBase.html" target="_top" xlink:title=" ">
<polygon fill="white" stroke="black" points="676.5,-446.5 676.5,-465.5 808.5,-465.5 808.5,-446.5 676.5,-446.5"/>
<text text-anchor="middle" x="742.5" y="-453.5" font-family="Helvetica,sans-Serif" font-size="10.00">JUTGamePadRecordBase</text>
</a>
</g>
</g>
<!-- Node16&#45;&gt;Node1 -->
<g id="edge23" class="edge">
<title>Node16&#45;&gt;Node1</title>
<path fill="none" stroke="#9a32cd" stroke-dasharray="5,2" d="M818.79,-451.94C845.94,-447.77 875.82,-439.84 900,-425 925.19,-409.54 943.6,-378.54 951.79,-362.74"/>
<polygon fill="#9a32cd" stroke="#9a32cd" points="817.96,-448.52 808.54,-453.36 818.92,-455.45 817.96,-448.52"/>
<text text-anchor="middle" x="867.5" y="-462" font-family="Helvetica,sans-Serif" font-size="10.00"> mPadRecord</text>
<text text-anchor="middle" x="867.5" y="-451" font-family="Helvetica,sans-Serif" font-size="10.00">mPadReplay</text>
</g>
<!-- Node17 -->
<g id="node17" class="node">
<title>Node17</title>
<g id="a_node17"><a xlink:href="structJUTGamePad_1_1C3ButtonReset.html" target="_top" xlink:title=" ">
<polygon fill="white" stroke="black" points="668,-408.5 668,-427.5 817,-427.5 817,-408.5 668,-408.5"/>
<text text-anchor="middle" x="742.5" y="-415.5" font-family="Helvetica,sans-Serif" font-size="10.00">JUTGamePad::C3ButtonReset</text>
</a>
</g>
</g>
<!-- Node17&#45;&gt;Node1 -->
<g id="edge24" class="edge">
<title>Node17&#45;&gt;Node1</title>
<path fill="none" stroke="#9a32cd" stroke-dasharray="5,2" d="M827.26,-411.8C851.36,-408.12 877.26,-402.27 900,-393 917.81,-385.74 935.42,-371.93 946.13,-362.59"/>
<polygon fill="#9a32cd" stroke="#9a32cd" points="826.46,-408.38 817.05,-413.25 827.44,-415.31 826.46,-408.38"/>
<text text-anchor="middle" x="867.5" y="-413" font-family="Helvetica,sans-Serif" font-size="10.00"> mButtonReset</text>
</g>
<!-- Node18&#45;&gt;Node1 -->
<g id="edge25" class="edge">
<title>Node18&#45;&gt;Node1</title>
<path fill="none" stroke="#9a32cd" stroke-dasharray="5,2" d="M311.43,-384.93C398.38,-437.07 702.81,-601.23 900,-474 939.74,-448.36 952.02,-386.75 955.37,-362.78"/>
<polygon fill="#9a32cd" stroke="#9a32cd" points="313.17,-381.89 302.81,-379.69 309.54,-387.87 313.17,-381.89"/>
<text text-anchor="middle" x="583" y="-517" font-family="Helvetica,sans-Serif" font-size="10.00"> mPadList</text>
</g>
<!-- Node19 -->
<g id="node19" class="node">
<title>Node19</title>
<g id="a_node19"><a xlink:href="structPADStatus.html" target="_top" xlink:title=" ">
<polygon fill="white" stroke="black" points="710,-323.5 710,-342.5 775,-342.5 775,-323.5 710,-323.5"/>
<text text-anchor="middle" x="742.5" y="-330.5" font-family="Helvetica,sans-Serif" font-size="10.00">PADStatus</text>
</a>
</g>
</g>
<!-- Node19&#45;&gt;Node1 -->
<g id="edge27" class="edge">
<title>Node19&#45;&gt;Node1</title>
<path fill="none" stroke="#9a32cd" stroke-dasharray="5,2" d="M785.74,-336.97C824.22,-340.58 880.58,-345.87 917.89,-349.37"/>
<polygon fill="#9a32cd" stroke="#9a32cd" points="785.67,-333.44 775.39,-335.99 785.02,-340.41 785.67,-333.44"/>
<text text-anchor="middle" x="867.5" y="-350" font-family="Helvetica,sans-Serif" font-size="10.00"> mPadStatus</text>
</g>
</g>
</svg>
        <g id="navigator" transform="translate(0 0)" fill="#404254">
                <rect fill="#f2f5e9" fill-opacity="0.5" stroke="#606060" stroke-width=".5" x="0" y="0" width="60" height="60"/>
                <use id="zoomplus" xlink:href="#zoomPlus" x="17" y="9" onmousedown="handleZoom(evt,'in')"/>
                <use id="zoomminus" xlink:href="#zoomMin" x="42" y="9" onmousedown="handleZoom(evt,'out')"/>
                <use id="reset" xlink:href="#resetDef" x="30" y="36" onmousedown="handleReset()"/>
                <g id="arrowUp" xlink:href="#dirArrow" transform="translate(30 24)" onmousedown="handlePan(0,-1)">
                  <use xlink:href="#rim" fill="#404040">
                        <set attributeName="fill" to="#808080" begin="arrowUp.mouseover" end="arrowUp.mouseout"/>
                  </use>
                  <path fill="none" stroke="white" stroke-width="1.5" d="M0,-3.0v7 M-2.5,-0.5L0,-3.0L2.5,-0.5"/>
                </g>
                <g id="arrowRight" xlink:href="#dirArrow" transform="rotate(90) translate(36 -43)" onmousedown="handlePan(1,0)">
                  <use xlink:href="#rim" fill="#404040">
                        <set attributeName="fill" to="#808080" begin="arrowRight.mouseover" end="arrowRight.mouseout"/>
                  </use>
                  <path fill="none" stroke="white" stroke-width="1.5" d="M0,-3.0v7 M-2.5,-0.5L0,-3.0L2.5,-0.5"/>
                </g>
                <g id="arrowDown" xlink:href="#dirArrow" transform="rotate(180) translate(-30 -48)" onmousedown="handlePan(0,1)">
                  <use xlink:href="#rim" fill="#404040">
                        <set attributeName="fill" to="#808080" begin="arrowDown.mouseover" end="arrowDown.mouseout"/>
                  </use>
                  <path fill="none" stroke="white" stroke-width="1.5" d="M0,-3.0v7 M-2.5,-0.5L0,-3.0L2.5,-0.5"/>
                </g>
                <g id="arrowLeft" xlink:href="#dirArrow" transform="rotate(270) translate(-36 17)" onmousedown="handlePan(-1,0)">
                  <use xlink:href="#rim" fill="#404040">
                        <set attributeName="fill" to="#808080" begin="arrowLeft.mouseover" end="arrowLeft.mouseout"/>
                  </use>
                  <path fill="none" stroke="white" stroke-width="1.5" d="M0,-3.0v7 M-2.5,-0.5L0,-3.0L2.5,-0.5"/>
                </g>
        </g>
        <svg viewBox="0 0 15 15" width="100%" height="30px" preserveAspectRatio="xMaxYMin meet">
         <g id="arrow_out" transform="scale(0.3 0.3)">
          <a xlink:href="structJUTGamePad__coll__graph_org.svg" target="_base">
           <rect id="button" ry="5" rx="5" y="6" x="6" height="38" width="38"
                fill="#f2f5e9" fill-opacity="0.5" stroke="#606060" stroke-width="1.0"/>
           <path id="arrow"
             d="M 11.500037,31.436501 C 11.940474,20.09759 22.043105,11.32322 32.158766,21.979434 L 37.068811,17.246167 C 37.068811,17.246167 37.088388,32 37.088388,32 L 22.160133,31.978069 C 22.160133,31.978069 26.997745,27.140456 26.997745,27.140456 C 18.528582,18.264221 13.291696,25.230495 11.500037,31.436501 z"
             style="fill:#404040;"/>
          </a>
         </g>
        </svg>
</svg>
