<?xml version="1.0" encoding="UTF-8" standalone="no"?>
<!DOCTYPE svg PUBLIC "-//W3C//DTD SVG 1.1//EN"
 "http://www.w3.org/Graphics/SVG/1.1/DTD/svg11.dtd">
<!-- Generated by graphviz version 3.0.0 (20220413.0242)
 -->
<!-- Title: mDoDvdThd_mountArchive_c Pages: 1 -->
<!--zoomable 543 -->
<svg id="main" version="1.1" xmlns="http://www.w3.org/2000/svg" xmlns:xlink="http://www.w3.org/1999/xlink" xml:space="preserve" onload="init(evt)">
<style type="text/css"><![CDATA[
.edge:hover path { stroke: red; }
.edge:hover polygon { stroke: red; fill: red; }
]]></style>
<script type="text/javascript"><![CDATA[
var edges = document.getElementsByTagName('g');
if (edges && edges.length) {
  for (var i=0;i<edges.length;i++) {
    if (edges[i].id.substr(0,4)=='edge') {
      edges[i].setAttribute('class','edge');
    }
  }
}
]]></script>
        <defs>
                <circle id="rim" cx="0" cy="0" r="7"/>
                <circle id="rim2" cx="0" cy="0" r="3.5"/>
                <g id="zoomPlus">
                        <use xlink:href="#rim" fill="#404040">
                                <set attributeName="fill" to="#808080" begin="zoomplus.mouseover" end="zoomplus.mouseout"/>
                        </use>
                        <path d="M-4,0h8M0,-4v8" fill="none" stroke="white" stroke-width="1.5" pointer-events="none"/>
                </g>
                <g id="zoomMin">
                        <use xlink:href="#rim" fill="#404040">
                                <set attributeName="fill" to="#808080" begin="zoomminus.mouseover" end="zoomminus.mouseout"/>
                        </use>
                        <path d="M-4,0h8" fill="none" stroke="white" stroke-width="1.5" pointer-events="none"/>
                </g>
                <g id="dirArrow">
                        <path fill="none" stroke="white" stroke-width="1.5" d="M0,-3.0v7 M-2.5,-0.5L0,-3.0L2.5,-0.5"/>
                </g>
               <g id="resetDef">
                       <use xlink:href="#rim2" fill="#404040">
                               <set attributeName="fill" to="#808080" begin="reset.mouseover" end="reset.mouseout"/>
                       </use>
               </g>
        </defs>

<script type="text/javascript">
var viewWidth = 784;
var viewHeight = 543;
var sectionId = 'dynsection-1';
</script>
<script xlink:href="svgpan.js"/>
<svg id="graph" class="graph">
<g id="viewport">
<title>mDoDvdThd_mountArchive_c</title>
<polygon fill="white" stroke="transparent" points="-4,4 -4,-539 779.5,-539 779.5,4 -4,4"/>
<!-- Node1 -->
<g id="node1" class="node">
<title>Node1</title>
<g id="a_node1"><a xlink:title=" ">
<polygon fill="#bfbfbf" stroke="black" points="121,-0.5 121,-19.5 267,-19.5 267,-0.5 121,-0.5"/>
<text text-anchor="middle" x="194" y="-7.5" font-family="Helvetica,sans-Serif" font-size="10.00">mDoDvdThd_mountArchive_c</text>
</a>
</g>
</g>
<!-- Node2 -->
<g id="node2" class="node">
<title>Node2</title>
<g id="a_node2"><a xlink:href="classmDoDvdThd__command__c.html" target="_top" xlink:title=" ">
<polygon fill="white" stroke="black" points="25.5,-67.5 25.5,-86.5 154.5,-86.5 154.5,-67.5 25.5,-67.5"/>
<text text-anchor="middle" x="90" y="-74.5" font-family="Helvetica,sans-Serif" font-size="10.00">mDoDvdThd_command_c</text>
</a>
</g>
</g>
<!-- Node2&#45;&gt;Node1 -->
<g id="edge1" class="edge">
<title>Node2&#45;&gt;Node1</title>
<path fill="none" stroke="midnightblue" d="M112.77,-61.77C133.36,-48.9 162.99,-30.38 180.2,-19.63"/>
<polygon fill="midnightblue" stroke="midnightblue" points="110.65,-58.97 104.03,-67.23 114.36,-64.9 110.65,-58.97"/>
</g>
<!-- Node3 -->
<g id="node3" class="node">
<title>Node3</title>
<g id="a_node3"><a xlink:href="structnode__class.html" target="_top" xlink:title=" ">
<polygon fill="white" stroke="black" points="22,-135.5 22,-154.5 88,-154.5 88,-135.5 22,-135.5"/>
<text text-anchor="middle" x="55" y="-142.5" font-family="Helvetica,sans-Serif" font-size="10.00">node_class</text>
</a>
</g>
</g>
<!-- Node3&#45;&gt;Node2 -->
<g id="edge2" class="edge">
<title>Node3&#45;&gt;Node2</title>
<path fill="none" stroke="midnightblue" d="M64.45,-126.19C71.2,-113.45 80,-96.86 85.31,-86.84"/>
<polygon fill="midnightblue" stroke="midnightblue" points="61.17,-124.9 59.58,-135.37 67.35,-128.18 61.17,-124.9"/>
</g>
<!-- Node3&#45;&gt;Node3 -->
<g id="edge3" class="edge">
<title>Node3&#45;&gt;Node3</title>
<path fill="none" stroke="#9a32cd" stroke-dasharray="5,2" d="M98.65,-150.25C103.13,-149.22 106,-147.47 106,-145 106,-140.95 98.28,-138.83 88.35,-138.64"/>
<polygon fill="#9a32cd" stroke="#9a32cd" points="97.92,-146.81 88.35,-151.36 98.67,-153.77 97.92,-146.81"/>
<text text-anchor="middle" x="136" y="-148" font-family="Helvetica,sans-Serif" font-size="10.00"> mpNextNode</text>
<text text-anchor="middle" x="136" y="-137" font-family="Helvetica,sans-Serif" font-size="10.00">mpPrevNode</text>
</g>
<!-- Node4 -->
<g id="node4" class="node">
<title>Node4</title>
<g id="a_node4"><a xlink:href="structJKRMemArchive.html" target="_top" xlink:title=" ">
<polygon fill="white" stroke="black" points="233,-67.5 233,-86.5 323,-86.5 323,-67.5 233,-67.5"/>
<text text-anchor="middle" x="278" y="-74.5" font-family="Helvetica,sans-Serif" font-size="10.00">JKRMemArchive</text>
</a>
</g>
</g>
<!-- Node4&#45;&gt;Node1 -->
<g id="edge4" class="edge">
<title>Node4&#45;&gt;Node1</title>
<path fill="none" stroke="#9a32cd" stroke-dasharray="5,2" d="M258.7,-61.07C242.12,-48.24 218.79,-30.19 205.15,-19.63"/>
<polygon fill="#9a32cd" stroke="#9a32cd" points="256.62,-63.88 266.67,-67.23 260.9,-58.35 256.62,-63.88"/>
<text text-anchor="middle" x="264" y="-41" font-family="Helvetica,sans-Serif" font-size="10.00"> mArchive</text>
</g>
<!-- Node5 -->
<g id="node5" class="node">
<title>Node5</title>
<g id="a_node5"><a xlink:href="structJKRArchive.html" target="_top" xlink:title=" ">
<polygon fill="white" stroke="black" points="342,-135.5 342,-154.5 410,-154.5 410,-135.5 342,-135.5"/>
<text text-anchor="middle" x="376" y="-142.5" font-family="Helvetica,sans-Serif" font-size="10.00">JKRArchive</text>
</a>
</g>
</g>
<!-- Node5&#45;&gt;Node4 -->
<g id="edge5" class="edge">
<title>Node5&#45;&gt;Node4</title>
<path fill="none" stroke="midnightblue" d="M363.13,-127.13C356.78,-119.63 348.64,-111.14 340,-105 329.09,-97.24 315.6,-91.04 304,-86.55"/>
<polygon fill="midnightblue" stroke="midnightblue" points="360.68,-129.67 369.68,-135.26 366.13,-125.28 360.68,-129.67"/>
</g>
<!-- Node6 -->
<g id="node6" class="node">
<title>Node6</title>
<g id="a_node6"><a xlink:href="structJKRFileLoader.html" target="_top" xlink:title=" ">
<polygon fill="white" stroke="black" points="603.5,-210 603.5,-229 684.5,-229 684.5,-210 603.5,-210"/>
<text text-anchor="middle" x="644" y="-217" font-family="Helvetica,sans-Serif" font-size="10.00">JKRFileLoader</text>
</a>
</g>
</g>
<!-- Node6&#45;&gt;Node5 -->
<g id="edge6" class="edge">
<title>Node6&#45;&gt;Node5</title>
<path fill="none" stroke="midnightblue" d="M607.76,-206.86C603.47,-205.53 599.14,-204.22 595,-203 530.18,-183.89 453.6,-164.73 410.33,-154.21"/>
<polygon fill="midnightblue" stroke="midnightblue" points="607.02,-210.3 617.61,-209.94 609.11,-203.62 607.02,-210.3"/>
</g>
<!-- Node6&#45;&gt;Node6 -->
<g id="edge28" class="edge">
<title>Node6&#45;&gt;Node6</title>
<path fill="none" stroke="#9a32cd" stroke-dasharray="5,2" d="M694.82,-225.49C699.53,-224.26 702.5,-222.26 702.5,-219.5 702.5,-215.09 694.9,-212.62 684.73,-212.1"/>
<polygon fill="#9a32cd" stroke="#9a32cd" points="694.16,-222.05 684.73,-226.9 695.12,-228.99 694.16,-222.05"/>
<text text-anchor="middle" x="739" y="-217" font-family="Helvetica,sans-Serif" font-size="10.00"> sCurrentVolume</text>
</g>
<!-- Node7 -->
<g id="node7" class="node">
<title>Node7</title>
<g id="a_node7"><a xlink:href="structJKRDisposer.html" target="_top" xlink:title=" ">
<polygon fill="white" stroke="black" points="326,-283.5 326,-302.5 400,-302.5 400,-283.5 326,-283.5"/>
<text text-anchor="middle" x="363" y="-290.5" font-family="Helvetica,sans-Serif" font-size="10.00">JKRDisposer</text>
</a>
</g>
</g>
<!-- Node7&#45;&gt;Node6 -->
<g id="edge7" class="edge">
<title>Node7&#45;&gt;Node6</title>
<path fill="none" stroke="midnightblue" d="M406.01,-280.96C436.41,-273.23 478.15,-262.75 515,-254 550.46,-245.58 559.82,-245.5 595,-236 602.67,-233.93 610.92,-231.42 618.44,-229.04"/>
<polygon fill="midnightblue" stroke="midnightblue" points="404.98,-277.61 396.15,-283.47 406.71,-284.39 404.98,-277.61"/>
</g>
<!-- Node8 -->
<g id="node8" class="node">
<title>Node8</title>
<g id="a_node8"><a xlink:href="structJKRHeap.html" target="_top" xlink:title=" ">
<polygon fill="white" stroke="black" points="159.5,-210 159.5,-229 218.5,-229 218.5,-210 159.5,-210"/>
<text text-anchor="middle" x="189" y="-217" font-family="Helvetica,sans-Serif" font-size="10.00">JKRHeap</text>
</a>
</g>
</g>
<!-- Node7&#45;&gt;Node8 -->
<g id="edge9" class="edge">
<title>Node7&#45;&gt;Node8</title>
<path fill="none" stroke="midnightblue" d="M346.17,-276.58C336.95,-268.85 324.99,-259.89 313,-254 282.58,-239.05 244.57,-230.04 218.71,-225.19"/>
<polygon fill="midnightblue" stroke="midnightblue" points="343.95,-279.29 353.78,-283.22 348.55,-274.01 343.95,-279.29"/>
</g>
<!-- Node8&#45;&gt;Node1 -->
<g id="edge34" class="edge">
<title>Node8&#45;&gt;Node1</title>
<path fill="none" stroke="#9a32cd" stroke-dasharray="5,2" d="M189.45,-199.85C190.49,-156.58 193.04,-50.73 193.79,-19.69"/>
<polygon fill="#9a32cd" stroke="#9a32cd" points="185.95,-199.77 189.21,-209.85 192.95,-199.94 185.95,-199.77"/>
<text text-anchor="middle" x="209" y="-108" font-family="Helvetica,sans-Serif" font-size="10.00"> mHeap</text>
</g>
<!-- Node8&#45;&gt;Node5 -->
<g id="edge29" class="edge">
<title>Node8&#45;&gt;Node5</title>
<path fill="none" stroke="#9a32cd" stroke-dasharray="5,2" d="M220.7,-206.21C258.54,-191.54 320.82,-167.39 353.84,-154.59"/>
<polygon fill="#9a32cd" stroke="#9a32cd" points="219.24,-203.02 211.19,-209.9 221.77,-209.55 219.24,-203.02"/>
<text text-anchor="middle" x="316" y="-177" font-family="Helvetica,sans-Serif" font-size="10.00"> mHeap</text>
</g>
<!-- Node8&#45;&gt;Node7 -->
<g id="edge8" class="edge">
<title>Node8&#45;&gt;Node7</title>
<path fill="none" stroke="#9a32cd" stroke-dasharray="5,2" d="M213.74,-233.97C231.57,-243.37 256.37,-255.83 279,-265 296.46,-272.08 316.53,-278.59 332.68,-283.44"/>
<polygon fill="#9a32cd" stroke="#9a32cd" points="215.08,-230.72 204.61,-229.1 211.78,-236.9 215.08,-230.72"/>
<text text-anchor="middle" x="296" y="-257" font-family="Helvetica,sans-Serif" font-size="10.00"> mHeap</text>
</g>
<!-- Node8&#45;&gt;Node8 -->
<g id="edge10" class="edge">
<title>Node8&#45;&gt;Node8</title>
<path fill="none" stroke="#9a32cd" stroke-dasharray="5,2" d="M228.67,-225.95C233.41,-224.77 236.5,-222.62 236.5,-219.5 236.5,-214.5 228.58,-212 218.69,-212"/>
<polygon fill="#9a32cd" stroke="#9a32cd" points="228.26,-222.47 218.69,-227 229,-229.43 228.26,-222.47"/>
<text text-anchor="middle" x="268" y="-228" font-family="Helvetica,sans-Serif" font-size="10.00"> sCurrentHeap</text>
<text text-anchor="middle" x="268" y="-217" font-family="Helvetica,sans-Serif" font-size="10.00">sRootHeap</text>
<text text-anchor="middle" x="268" y="-206" font-family="Helvetica,sans-Serif" font-size="10.00">sSystemHeap</text>
</g>
<!-- Node9 -->
<g id="node9" class="node">
<title>Node9</title>
<g id="a_node9"><a xlink:href="structOSMutex.html" target="_top" xlink:title=" ">
<polygon fill="white" stroke="black" points="132.5,-283.5 132.5,-302.5 189.5,-302.5 189.5,-283.5 132.5,-283.5"/>
<text text-anchor="middle" x="161" y="-290.5" font-family="Helvetica,sans-Serif" font-size="10.00">OSMutex</text>
</a>
</g>
</g>
<!-- Node9&#45;&gt;Node8 -->
<g id="edge11" class="edge">
<title>Node9&#45;&gt;Node8</title>
<path fill="none" stroke="#9a32cd" stroke-dasharray="5,2" d="M162.39,-273.08C163.26,-266.86 164.68,-260 167,-254 170.56,-244.78 176.94,-235.48 181.92,-229.03"/>
<polygon fill="#9a32cd" stroke="#9a32cd" points="158.88,-272.97 161.33,-283.28 165.84,-273.69 158.88,-272.97"/>
<text text-anchor="middle" x="185.5" y="-257" font-family="Helvetica,sans-Serif" font-size="10.00"> mMutex</text>
</g>
<!-- Node10 -->
<g id="node10" class="node">
<title>Node10</title>
<g id="a_node10"><a xlink:href="classJSUTree.html" target="_top" xlink:title=" ">
<polygon fill="white" stroke="black" points="0,-283.5 0,-302.5 114,-302.5 114,-283.5 0,-283.5"/>
<text text-anchor="middle" x="57" y="-290.5" font-family="Helvetica,sans-Serif" font-size="10.00">JSUTree&lt; JKRHeap &gt;</text>
</a>
</g>
</g>
<!-- Node10&#45;&gt;Node8 -->
<g id="edge12" class="edge">
<title>Node10&#45;&gt;Node8</title>
<path fill="none" stroke="#9a32cd" stroke-dasharray="5,2" d="M75.31,-276.98C84.96,-269.5 97.22,-260.65 109,-254 114.41,-250.95 146.08,-237.91 167.91,-229.03"/>
<polygon fill="#9a32cd" stroke="#9a32cd" points="72.92,-274.41 67.26,-283.37 77.27,-279.9 72.92,-274.41"/>
<text text-anchor="middle" x="135" y="-257" font-family="Helvetica,sans-Serif" font-size="10.00"> mChildTree</text>
</g>
<!-- Node11 -->
<g id="node11" class="node">
<title>Node11</title>
<g id="a_node11"><a xlink:href="structJSUList.html" target="_top" xlink:title=" ">
<polygon fill="white" stroke="black" points="110.5,-397.5 110.5,-416.5 221.5,-416.5 221.5,-397.5 110.5,-397.5"/>
<text text-anchor="middle" x="166" y="-404.5" font-family="Helvetica,sans-Serif" font-size="10.00">JSUList&lt; JKRHeap &gt;</text>
</a>
</g>
</g>
<!-- Node11&#45;&gt;Node10 -->
<g id="edge13" class="edge">
<title>Node11&#45;&gt;Node10</title>
<path fill="none" stroke="midnightblue" d="M150.35,-389.92C126.99,-365.91 83.78,-321.52 65.51,-302.75"/>
<polygon fill="midnightblue" stroke="midnightblue" points="147.96,-392.49 157.45,-397.21 152.98,-387.6 147.96,-392.49"/>
</g>
<!-- Node12 -->
<g id="node12" class="node">
<title>Node12</title>
<g id="a_node12"><a xlink:href="structJSUPtrList.html" target="_top" xlink:title=" ">
<polygon fill="white" stroke="black" points="329.5,-515.5 329.5,-534.5 394.5,-534.5 394.5,-515.5 329.5,-515.5"/>
<text text-anchor="middle" x="362" y="-522.5" font-family="Helvetica,sans-Serif" font-size="10.00">JSUPtrList</text>
</a>
</g>
</g>
<!-- Node12&#45;&gt;Node11 -->
<g id="edge14" class="edge">
<title>Node12&#45;&gt;Node11</title>
<path fill="none" stroke="midnightblue" d="M338.86,-510.3C297.97,-486.1 214.08,-436.46 180.43,-416.54"/>
<polygon fill="midnightblue" stroke="midnightblue" points="337.2,-513.39 347.59,-515.47 340.76,-507.36 337.2,-513.39"/>
</g>
<!-- Node13 -->
<g id="node13" class="node">
<title>Node13</title>
<g id="a_node13"><a xlink:href="structJSUPtrLink.html" target="_top" xlink:title=" ">
<polygon fill="white" stroke="black" points="379,-436.5 379,-455.5 447,-455.5 447,-436.5 379,-436.5"/>
<text text-anchor="middle" x="413" y="-443.5" font-family="Helvetica,sans-Serif" font-size="10.00">JSUPtrLink</text>
</a>
</g>
</g>
<!-- Node12&#45;&gt;Node13 -->
<g id="edge16" class="edge">
<title>Node12&#45;&gt;Node13</title>
<path fill="none" stroke="#9a32cd" stroke-dasharray="5,2" d="M356.03,-505.44C354.04,-495.72 353.53,-484 359,-475 364.43,-466.07 373.74,-459.86 383.11,-455.6"/>
<polygon fill="#9a32cd" stroke="#9a32cd" points="352.7,-506.56 358.66,-515.32 359.47,-504.75 352.7,-506.56"/>
<text text-anchor="middle" x="373" y="-483.5" font-family="Helvetica,sans-Serif" font-size="10.00"> mList</text>
</g>
<!-- Node15 -->
<g id="node15" class="node">
<title>Node15</title>
<g id="a_node15"><a xlink:href="structJSUList.html" target="_top" xlink:title=" ">
<polygon fill="white" stroke="black" points="234,-397.5 234,-416.5 360,-416.5 360,-397.5 234,-397.5"/>
<text text-anchor="middle" x="297" y="-404.5" font-family="Helvetica,sans-Serif" font-size="10.00">JSUList&lt; JKRDisposer &gt;</text>
</a>
</g>
</g>
<!-- Node12&#45;&gt;Node15 -->
<g id="edge21" class="edge">
<title>Node12&#45;&gt;Node15</title>
<path fill="none" stroke="midnightblue" d="M352.13,-506.39C337.95,-481.07 312.34,-435.37 301.77,-416.5"/>
<polygon fill="midnightblue" stroke="midnightblue" points="349.17,-508.27 357.11,-515.28 355.28,-504.85 349.17,-508.27"/>
</g>
<!-- Node17 -->
<g id="node17" class="node">
<title>Node17</title>
<g id="a_node17"><a xlink:href="structJSUList.html" target="_top" xlink:title=" ">
<polygon fill="white" stroke="black" points="595,-321.5 595,-340.5 729,-340.5 729,-321.5 595,-321.5"/>
<text text-anchor="middle" x="662" y="-328.5" font-family="Helvetica,sans-Serif" font-size="10.00">JSUList&lt; JKRFileLoader &gt;</text>
</a>
</g>
</g>
<!-- Node12&#45;&gt;Node17 -->
<g id="edge25" class="edge">
<title>Node12&#45;&gt;Node17</title>
<path fill="none" stroke="midnightblue" d="M401.27,-512.27C413.88,-508.02 427.74,-502.81 440,-497 532.44,-453.21 624.74,-368.06 653.14,-340.7"/>
<polygon fill="midnightblue" stroke="midnightblue" points="399.91,-509.03 391.49,-515.47 402.09,-515.69 399.91,-509.03"/>
</g>
<!-- Node13&#45;&gt;Node12 -->
<g id="edge15" class="edge">
<title>Node13&#45;&gt;Node12</title>
<path fill="none" stroke="#9a32cd" stroke-dasharray="5,2" d="M406.99,-465.32C403.26,-475.22 397.86,-487.35 391,-497 386.06,-503.95 379.1,-510.51 373.24,-515.41"/>
<polygon fill="#9a32cd" stroke="#9a32cd" points="410.37,-466.28 410.38,-455.69 403.76,-463.96 410.37,-466.28"/>
<text text-anchor="middle" x="419" y="-489" font-family="Helvetica,sans-Serif" font-size="10.00"> mHead</text>
<text text-anchor="middle" x="419" y="-478" font-family="Helvetica,sans-Serif" font-size="10.00">mTail</text>
</g>
<!-- Node13&#45;&gt;Node13 -->
<g id="edge17" class="edge">
<title>Node13&#45;&gt;Node13</title>
<path fill="none" stroke="#9a32cd" stroke-dasharray="5,2" d="M457.15,-451.96C461.92,-450.82 465,-448.83 465,-446 465,-441.47 457.13,-439.1 447.01,-438.89"/>
<polygon fill="#9a32cd" stroke="#9a32cd" points="456.55,-448.51 447.01,-453.11 457.34,-455.46 456.55,-448.51"/>
<text text-anchor="middle" x="480.5" y="-449" font-family="Helvetica,sans-Serif" font-size="10.00"> mNext</text>
<text text-anchor="middle" x="480.5" y="-438" font-family="Helvetica,sans-Serif" font-size="10.00">mPrev</text>
</g>
<!-- Node14 -->
<g id="node14" class="node">
<title>Node14</title>
<g id="a_node14"><a xlink:href="structJSULink.html" target="_top" xlink:title=" ">
<polygon fill="white" stroke="black" points="246.5,-359.5 246.5,-378.5 359.5,-378.5 359.5,-359.5 246.5,-359.5"/>
<text text-anchor="middle" x="303" y="-366.5" font-family="Helvetica,sans-Serif" font-size="10.00">JSULink&lt; JKRHeap &gt;</text>
</a>
</g>
</g>
<!-- Node13&#45;&gt;Node14 -->
<g id="edge19" class="edge">
<title>Node13&#45;&gt;Node14</title>
<path fill="none" stroke="midnightblue" d="M400.84,-428.37C392.74,-418.22 381.34,-405.6 369,-397 357.73,-389.14 343.82,-383.02 331.68,-378.61"/>
<polygon fill="midnightblue" stroke="midnightblue" points="398.19,-430.67 407.05,-436.48 403.75,-426.41 398.19,-430.67"/>
</g>
<!-- Node16 -->
<g id="node16" class="node">
<title>Node16</title>
<g id="a_node16"><a xlink:href="structJSULink.html" target="_top" xlink:title=" ">
<polygon fill="white" stroke="black" points="378,-359.5 378,-378.5 506,-378.5 506,-359.5 378,-359.5"/>
<text text-anchor="middle" x="442" y="-366.5" font-family="Helvetica,sans-Serif" font-size="10.00">JSULink&lt; JKRDisposer &gt;</text>
</a>
</g>
</g>
<!-- Node13&#45;&gt;Node16 -->
<g id="edge23" class="edge">
<title>Node13&#45;&gt;Node16</title>
<path fill="none" stroke="midnightblue" d="M419.99,-426.92C425.93,-411.56 434.19,-390.2 438.71,-378.5"/>
<polygon fill="midnightblue" stroke="midnightblue" points="416.67,-425.81 416.33,-436.4 423.2,-428.33 416.67,-425.81"/>
</g>
<!-- Node18 -->
<g id="node18" class="node">
<title>Node18</title>
<g id="a_node18"><a xlink:href="structJSULink.html" target="_top" xlink:title=" ">
<polygon fill="white" stroke="black" points="454,-321.5 454,-340.5 590,-340.5 590,-321.5 454,-321.5"/>
<text text-anchor="middle" x="522" y="-328.5" font-family="Helvetica,sans-Serif" font-size="10.00">JSULink&lt; JKRFileLoader &gt;</text>
</a>
</g>
</g>
<!-- Node13&#45;&gt;Node18 -->
<g id="edge27" class="edge">
<title>Node13&#45;&gt;Node18</title>
<path fill="none" stroke="midnightblue" d="M446.14,-432.32C469.28,-421.67 498.81,-404.14 515,-379 522.5,-367.35 523.17,-350.75 522.75,-340.71"/>
<polygon fill="midnightblue" stroke="midnightblue" points="444.43,-429.24 436.67,-436.46 447.24,-435.66 444.43,-429.24"/>
</g>
<!-- Node14&#45;&gt;Node10 -->
<g id="edge18" class="edge">
<title>Node14&#45;&gt;Node10</title>
<path fill="none" stroke="midnightblue" d="M301.32,-348.96C299.41,-339.1 295.4,-327.74 287,-321 258.4,-298.06 159.39,-307.48 123,-303 120.13,-302.65 117.19,-302.28 114.23,-301.9"/>
<polygon fill="midnightblue" stroke="midnightblue" points="297.89,-349.7 302.7,-359.14 304.82,-348.76 297.89,-349.7"/>
</g>
<!-- Node15&#45;&gt;Node8 -->
<g id="edge20" class="edge">
<title>Node15&#45;&gt;Node8</title>
<path fill="none" stroke="#9a32cd" stroke-dasharray="5,2" d="M255.17,-393.08C248.36,-389.43 241.92,-384.81 237,-379 199.85,-335.17 223.14,-308.18 204,-254 200.94,-245.35 196.58,-235.83 193.35,-229.16"/>
<polygon fill="#9a32cd" stroke="#9a32cd" points="254.06,-396.42 264.6,-397.47 257.02,-390.08 254.06,-396.42"/>
<text text-anchor="middle" x="250" y="-328.5" font-family="Helvetica,sans-Serif" font-size="10.00"> mDisposerList</text>
</g>
<!-- Node16&#45;&gt;Node7 -->
<g id="edge22" class="edge">
<title>Node16&#45;&gt;Node7</title>
<path fill="none" stroke="#9a32cd" stroke-dasharray="5,2" d="M424.98,-352.06C408.88,-336.98 385.3,-314.89 372.36,-302.77"/>
<polygon fill="#9a32cd" stroke="#9a32cd" points="422.94,-354.94 432.63,-359.22 427.72,-349.83 422.94,-354.94"/>
<text text-anchor="middle" x="426" y="-328.5" font-family="Helvetica,sans-Serif" font-size="10.00"> mLink</text>
</g>
<!-- Node17&#45;&gt;Node6 -->
<g id="edge24" class="edge">
<title>Node17&#45;&gt;Node6</title>
<path fill="none" stroke="#9a32cd" stroke-dasharray="5,2" d="M658.95,-311.43C655.01,-287.45 648.3,-246.69 645.41,-229.05"/>
<polygon fill="#9a32cd" stroke="#9a32cd" points="655.51,-312.11 660.59,-321.41 662.42,-310.97 655.51,-312.11"/>
<text text-anchor="middle" x="686" y="-290.5" font-family="Helvetica,sans-Serif" font-size="10.00"> sVolumeList</text>
</g>
<!-- Node18&#45;&gt;Node6 -->
<g id="edge26" class="edge">
<title>Node18&#45;&gt;Node6</title>
<path fill="none" stroke="#9a32cd" stroke-dasharray="5,2" d="M539.28,-314.33C549.39,-305.18 562.4,-293.42 574,-283 595.33,-263.84 620.42,-241.48 634.01,-229.38"/>
<polygon fill="#9a32cd" stroke="#9a32cd" points="536.63,-312.01 531.57,-321.32 541.33,-317.2 536.63,-312.01"/>
<text text-anchor="middle" x="612" y="-290.5" font-family="Helvetica,sans-Serif" font-size="10.00"> mFileLoaderLink</text>
</g>
<!-- Node19 -->
<g id="node19" class="node">
<title>Node19</title>
<g id="a_node19"><a xlink:href="structSArcDataInfo.html" target="_top" xlink:title=" ">
<polygon fill="white" stroke="black" points="66.5,-210 66.5,-229 141.5,-229 141.5,-210 66.5,-210"/>
<text text-anchor="middle" x="104" y="-217" font-family="Helvetica,sans-Serif" font-size="10.00">SArcDataInfo</text>
</a>
</g>
</g>
<!-- Node19&#45;&gt;Node5 -->
<g id="edge30" class="edge">
<title>Node19&#45;&gt;Node5</title>
<path fill="none" stroke="#9a32cd" stroke-dasharray="5,2" d="M129.27,-205.29C149.51,-195.25 178.89,-181.87 206,-174 256.1,-159.45 270.57,-164.75 322,-156 328.39,-154.91 335.2,-153.7 341.75,-152.5"/>
<polygon fill="#9a32cd" stroke="#9a32cd" points="127.47,-202.28 120.12,-209.91 130.62,-208.53 127.47,-202.28"/>
<text text-anchor="middle" x="239.5" y="-177" font-family="Helvetica,sans-Serif" font-size="10.00"> mArcInfoBlock</text>
</g>
<!-- Node20 -->
<g id="node20" class="node">
<title>Node20</title>
<g id="a_node20"><a xlink:href="structJKRArchive_1_1SDIDirEntry.html" target="_top" xlink:title=" ">
<polygon fill="white" stroke="black" points="317.5,-210 317.5,-229 440.5,-229 440.5,-210 317.5,-210"/>
<text text-anchor="middle" x="379" y="-217" font-family="Helvetica,sans-Serif" font-size="10.00">JKRArchive::SDIDirEntry</text>
</a>
</g>
</g>
<!-- Node20&#45;&gt;Node5 -->
<g id="edge31" class="edge">
<title>Node20&#45;&gt;Node5</title>
<path fill="none" stroke="#9a32cd" stroke-dasharray="5,2" d="M378.21,-199.53C377.61,-184.98 376.81,-165.59 376.36,-154.59"/>
<polygon fill="#9a32cd" stroke="#9a32cd" points="374.73,-200.05 378.64,-209.9 381.73,-199.76 374.73,-200.05"/>
<text text-anchor="middle" x="397" y="-177" font-family="Helvetica,sans-Serif" font-size="10.00"> mNodes</text>
</g>
<!-- Node21 -->
<g id="node21" class="node">
<title>Node21</title>
<g id="a_node21"><a xlink:href="structJKRArchive_1_1SDIFileEntry.html" target="_top" xlink:title=" ">
<polygon fill="white" stroke="black" points="458.5,-210 458.5,-229 585.5,-229 585.5,-210 458.5,-210"/>
<text text-anchor="middle" x="522" y="-217" font-family="Helvetica,sans-Serif" font-size="10.00">JKRArchive::SDIFileEntry</text>
</a>
</g>
</g>
<!-- Node21&#45;&gt;Node5 -->
<g id="edge32" class="edge">
<title>Node21&#45;&gt;Node5</title>
<path fill="none" stroke="#9a32cd" stroke-dasharray="5,2" d="M495.72,-205.45C466.06,-190.72 418.64,-167.17 393.3,-154.59"/>
<polygon fill="#9a32cd" stroke="#9a32cd" points="494.17,-208.59 504.68,-209.9 497.28,-202.32 494.17,-208.59"/>
<text text-anchor="middle" x="469" y="-177" font-family="Helvetica,sans-Serif" font-size="10.00"> mFiles</text>
</g>
<!-- Node22 -->
<g id="node22" class="node">
<title>Node22</title>
<g id="a_node22"><a xlink:href="structSArcHeader.html" target="_top" xlink:title=" ">
<polygon fill="white" stroke="black" points="243,-135.5 243,-154.5 313,-154.5 313,-135.5 243,-135.5"/>
<text text-anchor="middle" x="278" y="-142.5" font-family="Helvetica,sans-Serif" font-size="10.00">SArcHeader</text>
</a>
</g>
</g>
<!-- Node22&#45;&gt;Node4 -->
<g id="edge33" class="edge">
<title>Node22&#45;&gt;Node4</title>
<path fill="none" stroke="#9a32cd" stroke-dasharray="5,2" d="M278,-125.04C278,-112.47 278,-96.56 278,-86.84"/>
<polygon fill="#9a32cd" stroke="#9a32cd" points="274.5,-125.37 278,-135.37 281.5,-125.37 274.5,-125.37"/>
<text text-anchor="middle" x="307" y="-108" font-family="Helvetica,sans-Serif" font-size="10.00"> mArcHeader</text>
</g>
</g>
</svg>
        <g id="navigator" transform="translate(0 0)" fill="#404254">
                <rect fill="#f2f5e9" fill-opacity="0.5" stroke="#606060" stroke-width=".5" x="0" y="0" width="60" height="60"/>
                <use id="zoomplus" xlink:href="#zoomPlus" x="17" y="9" onmousedown="handleZoom(evt,'in')"/>
                <use id="zoomminus" xlink:href="#zoomMin" x="42" y="9" onmousedown="handleZoom(evt,'out')"/>
                <use id="reset" xlink:href="#resetDef" x="30" y="36" onmousedown="handleReset()"/>
                <g id="arrowUp" xlink:href="#dirArrow" transform="translate(30 24)" onmousedown="handlePan(0,-1)">
                  <use xlink:href="#rim" fill="#404040">
                        <set attributeName="fill" to="#808080" begin="arrowUp.mouseover" end="arrowUp.mouseout"/>
                  </use>
                  <path fill="none" stroke="white" stroke-width="1.5" d="M0,-3.0v7 M-2.5,-0.5L0,-3.0L2.5,-0.5"/>
                </g>
                <g id="arrowRight" xlink:href="#dirArrow" transform="rotate(90) translate(36 -43)" onmousedown="handlePan(1,0)">
                  <use xlink:href="#rim" fill="#404040">
                        <set attributeName="fill" to="#808080" begin="arrowRight.mouseover" end="arrowRight.mouseout"/>
                  </use>
                  <path fill="none" stroke="white" stroke-width="1.5" d="M0,-3.0v7 M-2.5,-0.5L0,-3.0L2.5,-0.5"/>
                </g>
                <g id="arrowDown" xlink:href="#dirArrow" transform="rotate(180) translate(-30 -48)" onmousedown="handlePan(0,1)">
                  <use xlink:href="#rim" fill="#404040">
                        <set attributeName="fill" to="#808080" begin="arrowDown.mouseover" end="arrowDown.mouseout"/>
                  </use>
                  <path fill="none" stroke="white" stroke-width="1.5" d="M0,-3.0v7 M-2.5,-0.5L0,-3.0L2.5,-0.5"/>
                </g>
                <g id="arrowLeft" xlink:href="#dirArrow" transform="rotate(270) translate(-36 17)" onmousedown="handlePan(-1,0)">
                  <use xlink:href="#rim" fill="#404040">
                        <set attributeName="fill" to="#808080" begin="arrowLeft.mouseover" end="arrowLeft.mouseout"/>
                  </use>
                  <path fill="none" stroke="white" stroke-width="1.5" d="M0,-3.0v7 M-2.5,-0.5L0,-3.0L2.5,-0.5"/>
                </g>
        </g>
        <svg viewBox="0 0 15 15" width="100%" height="30px" preserveAspectRatio="xMaxYMin meet">
         <g id="arrow_out" transform="scale(0.3 0.3)">
          <a xlink:href="structmDoDvdThd__mountArchive__c__coll__graph_org.svg" target="_base">
           <rect id="button" ry="5" rx="5" y="6" x="6" height="38" width="38"
                fill="#f2f5e9" fill-opacity="0.5" stroke="#606060" stroke-width="1.0"/>
           <path id="arrow"
             d="M 11.500037,31.436501 C 11.940474,20.09759 22.043105,11.32322 32.158766,21.979434 L 37.068811,17.246167 C 37.068811,17.246167 37.088388,32 37.088388,32 L 22.160133,31.978069 C 22.160133,31.978069 26.997745,27.140456 26.997745,27.140456 C 18.528582,18.264221 13.291696,25.230495 11.500037,31.436501 z"
             style="fill:#404040;"/>
          </a>
         </g>
        </svg>
</svg>
