<?xml version="1.0" encoding="UTF-8" standalone="no"?>
<!DOCTYPE svg PUBLIC "-//W3C//DTD SVG 1.1//EN"
 "http://www.w3.org/Graphics/SVG/1.1/DTD/svg11.dtd">
<!-- Generated by graphviz version 3.0.0 (20220413.0242)
 -->
<!-- Title: JSUPtrLink Pages: 1 -->
<!--zoomable 660 -->
<svg id="main" version="1.1" xmlns="http://www.w3.org/2000/svg" xmlns:xlink="http://www.w3.org/1999/xlink" xml:space="preserve" onload="init(evt)">
<style type="text/css"><![CDATA[
.edge:hover path { stroke: red; }
.edge:hover polygon { stroke: red; fill: red; }
]]></style>
<script type="text/javascript"><![CDATA[
var edges = document.getElementsByTagName('g');
if (edges && edges.length) {
  for (var i=0;i<edges.length;i++) {
    if (edges[i].id.substr(0,4)=='edge') {
      edges[i].setAttribute('class','edge');
    }
  }
}
]]></script>
        <defs>
                <circle id="rim" cx="0" cy="0" r="7"/>
                <circle id="rim2" cx="0" cy="0" r="3.5"/>
                <g id="zoomPlus">
                        <use xlink:href="#rim" fill="#404040">
                                <set attributeName="fill" to="#808080" begin="zoomplus.mouseover" end="zoomplus.mouseout"/>
                        </use>
                        <path d="M-4,0h8M0,-4v8" fill="none" stroke="white" stroke-width="1.5" pointer-events="none"/>
                </g>
                <g id="zoomMin">
                        <use xlink:href="#rim" fill="#404040">
                                <set attributeName="fill" to="#808080" begin="zoomminus.mouseover" end="zoomminus.mouseout"/>
                        </use>
                        <path d="M-4,0h8" fill="none" stroke="white" stroke-width="1.5" pointer-events="none"/>
                </g>
                <g id="dirArrow">
                        <path fill="none" stroke="white" stroke-width="1.5" d="M0,-3.0v7 M-2.5,-0.5L0,-3.0L2.5,-0.5"/>
                </g>
               <g id="resetDef">
                       <use xlink:href="#rim2" fill="#404040">
                               <set attributeName="fill" to="#808080" begin="reset.mouseover" end="reset.mouseout"/>
                       </use>
               </g>
        </defs>

<script type="text/javascript">
var viewWidth = 423;
var viewHeight = 660;
var sectionId = 'dynsection-0';
</script>
<script xlink:href="svgpan.js"/>
<svg id="graph" class="graph">
<g id="viewport">
<title>JSUPtrLink</title>
<polygon fill="white" stroke="transparent" points="-4,4 -4,-656 419,-656 419,4 -4,4"/>
<!-- Node1 -->
<g id="node1" class="node">
<title>Node1</title>
<g id="a_node1"><a xlink:title=" ">
<polygon fill="#bfbfbf" stroke="black" points="0,-328.5 0,-347.5 68,-347.5 68,-328.5 0,-328.5"/>
<text text-anchor="middle" x="34" y="-335.5" font-family="Helvetica,sans-Serif" font-size="10.00">JSUPtrLink</text>
</a>
</g>
</g>
<!-- Node2 -->
<g id="node2" class="node">
<title>Node2</title>
<g id="a_node2"><a xlink:href="structJSULink.html" target="_top" xlink:title=" ">
<polygon fill="white" stroke="black" points="146,-632.5 146,-651.5 223,-651.5 223,-632.5 146,-632.5"/>
<text text-anchor="middle" x="184.5" y="-639.5" font-family="Helvetica,sans-Serif" font-size="10.00">JSULink&lt; T &gt;</text>
</a>
</g>
</g>
<!-- Node1&#45;&gt;Node2 -->
<g id="edge1" class="edge">
<title>Node1&#45;&gt;Node2</title>
<path fill="none" stroke="midnightblue" d="M37.13,-357.86C43.77,-416.16 65.98,-585.09 104,-623 114.95,-633.92 130.99,-638.99 145.8,-641.2"/>
<polygon fill="midnightblue" stroke="midnightblue" points="40.59,-357.3 36.01,-347.75 33.63,-358.07 40.59,-357.3"/>
</g>
<!-- Node4 -->
<g id="node4" class="node">
<title>Node4</title>
<g id="a_node4"><a xlink:href="structJSULink.html" target="_top" xlink:title=" ">
<polygon fill="white" stroke="black" points="104,-594.5 104,-613.5 265,-613.5 265,-594.5 104,-594.5"/>
<text text-anchor="middle" x="184.5" y="-601.5" font-family="Helvetica,sans-Serif" font-size="10.00">JSULink&lt; Z2SoundHandlePool &gt;</text>
</a>
</g>
</g>
<!-- Node1&#45;&gt;Node4 -->
<g id="edge3" class="edge">
<title>Node1&#45;&gt;Node4</title>
<path fill="none" stroke="midnightblue" d="M34.27,-357.79C33.69,-404.52 39.11,-522.52 104,-585 107.99,-588.84 112.6,-591.95 117.57,-594.46"/>
<polygon fill="midnightblue" stroke="midnightblue" points="37.77,-357.83 34.51,-347.75 30.77,-357.66 37.77,-357.83"/>
</g>
<!-- Node6 -->
<g id="node6" class="node">
<title>Node6</title>
<g id="a_node6"><a xlink:href="structJSULink.html" target="_top" xlink:title=" ">
<polygon fill="white" stroke="black" points="129,-556.5 129,-575.5 240,-575.5 240,-556.5 129,-556.5"/>
<text text-anchor="middle" x="184.5" y="-563.5" font-family="Helvetica,sans-Serif" font-size="10.00">JSULink&lt; J2DPane &gt;</text>
</a>
</g>
</g>
<!-- Node1&#45;&gt;Node6 -->
<g id="edge5" class="edge">
<title>Node1&#45;&gt;Node6</title>
<path fill="none" stroke="midnightblue" d="M35.46,-357.79C37.54,-399.33 48.45,-495.95 104,-547 111,-553.43 119.78,-557.8 128.93,-560.74"/>
<polygon fill="midnightblue" stroke="midnightblue" points="38.95,-357.48 35.08,-347.62 31.96,-357.75 38.95,-357.48"/>
</g>
<!-- Node8 -->
<g id="node8" class="node">
<title>Node8</title>
<g id="a_node8"><a xlink:href="structJSULink.html" target="_top" xlink:title=" ">
<polygon fill="white" stroke="black" points="126,-518.5 126,-537.5 243,-537.5 243,-518.5 126,-518.5"/>
<text text-anchor="middle" x="184.5" y="-525.5" font-family="Helvetica,sans-Serif" font-size="10.00">JSULink&lt; JFWAlarm &gt;</text>
</a>
</g>
</g>
<!-- Node1&#45;&gt;Node8 -->
<g id="edge7" class="edge">
<title>Node1&#45;&gt;Node8</title>
<path fill="none" stroke="midnightblue" d="M37.17,-358.1C42.16,-394.03 57.81,-469.23 104,-509 110.34,-514.46 117.99,-518.42 125.99,-521.27"/>
<polygon fill="midnightblue" stroke="midnightblue" points="40.61,-357.4 35.9,-347.91 33.67,-358.26 40.61,-357.4"/>
</g>
<!-- Node9 -->
<g id="node9" class="node">
<title>Node9</title>
<g id="a_node9"><a xlink:href="structJSULink.html" target="_top" xlink:title=" ">
<polygon fill="white" stroke="black" points="110.5,-480.5 110.5,-499.5 258.5,-499.5 258.5,-480.5 110.5,-480.5"/>
<text text-anchor="middle" x="184.5" y="-487.5" font-family="Helvetica,sans-Serif" font-size="10.00">JSULink&lt; JKRADCommand &gt;</text>
</a>
</g>
</g>
<!-- Node1&#45;&gt;Node9 -->
<g id="edge8" class="edge">
<title>Node1&#45;&gt;Node9</title>
<path fill="none" stroke="midnightblue" d="M39.64,-357.71C47.61,-387.06 66.74,-441.88 104,-471 108.92,-474.85 114.5,-477.93 120.36,-480.4"/>
<polygon fill="midnightblue" stroke="midnightblue" points="42.98,-356.65 37.12,-347.82 36.2,-358.38 42.98,-356.65"/>
</g>
<!-- Node10 -->
<g id="node10" class="node">
<title>Node10</title>
<g id="a_node10"><a xlink:href="structJSULink.html" target="_top" xlink:title=" ">
<polygon fill="white" stroke="black" points="110,-442.5 110,-461.5 259,-461.5 259,-442.5 110,-442.5"/>
<text text-anchor="middle" x="184.5" y="-449.5" font-family="Helvetica,sans-Serif" font-size="10.00">JSULink&lt; JKRAMCommand &gt;</text>
</a>
</g>
</g>
<!-- Node1&#45;&gt;Node10 -->
<g id="edge9" class="edge">
<title>Node1&#45;&gt;Node10</title>
<path fill="none" stroke="midnightblue" d="M43.52,-356.75C54.4,-378.51 75.31,-413.85 104,-433 109.78,-436.86 116.27,-439.94 122.97,-442.39"/>
<polygon fill="midnightblue" stroke="midnightblue" points="46.59,-355.06 39.12,-347.55 40.28,-358.08 46.59,-355.06"/>
</g>
<!-- Node11 -->
<g id="node11" class="node">
<title>Node11</title>
<g id="a_node11"><a xlink:href="structJSULink.html" target="_top" xlink:title=" ">
<polygon fill="white" stroke="black" points="115.5,-404.5 115.5,-423.5 253.5,-423.5 253.5,-404.5 115.5,-404.5"/>
<text text-anchor="middle" x="184.5" y="-411.5" font-family="Helvetica,sans-Serif" font-size="10.00">JSULink&lt; JKRAramBlock &gt;</text>
</a>
</g>
</g>
<!-- Node1&#45;&gt;Node11 -->
<g id="edge10" class="edge">
<title>Node1&#45;&gt;Node11</title>
<path fill="none" stroke="midnightblue" d="M51.09,-354.99C64.18,-367.82 83.73,-384.89 104,-395 111.75,-398.86 120.32,-401.96 128.87,-404.45"/>
<polygon fill="midnightblue" stroke="midnightblue" points="53.35,-352.3 43.83,-347.65 48.38,-357.22 53.35,-352.3"/>
</g>
<!-- Node12 -->
<g id="node12" class="node">
<title>Node12</title>
<g id="a_node12"><a xlink:href="structJSULink.html" target="_top" xlink:title=" ">
<polygon fill="white" stroke="black" points="120.5,-366.5 120.5,-385.5 248.5,-385.5 248.5,-366.5 120.5,-366.5"/>
<text text-anchor="middle" x="184.5" y="-373.5" font-family="Helvetica,sans-Serif" font-size="10.00">JSULink&lt; JKRDisposer &gt;</text>
</a>
</g>
</g>
<!-- Node1&#45;&gt;Node12 -->
<g id="edge11" class="edge">
<title>Node1&#45;&gt;Node12</title>
<path fill="none" stroke="midnightblue" d="M78.11,-350.11C86.67,-352.45 95.61,-354.84 104,-357 116.37,-360.18 129.87,-363.47 142.17,-366.41"/>
<polygon fill="midnightblue" stroke="midnightblue" points="78.85,-346.69 68.28,-347.41 76.99,-353.44 78.85,-346.69"/>
</g>
<!-- Node13 -->
<g id="node13" class="node">
<title>Node13</title>
<g id="a_node13"><a xlink:href="structJSULink.html" target="_top" xlink:title=" ">
<polygon fill="white" stroke="black" points="123,-328.5 123,-347.5 246,-347.5 246,-328.5 123,-328.5"/>
<text text-anchor="middle" x="184.5" y="-335.5" font-family="Helvetica,sans-Serif" font-size="10.00">JSULink&lt; JKRDvdFile &gt;</text>
</a>
</g>
</g>
<!-- Node1&#45;&gt;Node13 -->
<g id="edge12" class="edge">
<title>Node1&#45;&gt;Node13</title>
<path fill="none" stroke="midnightblue" d="M78.54,-338C92.4,-338 107.98,-338 122.82,-338"/>
<polygon fill="midnightblue" stroke="midnightblue" points="78.33,-334.5 68.33,-338 78.33,-341.5 78.33,-334.5"/>
</g>
<!-- Node14 -->
<g id="node14" class="node">
<title>Node14</title>
<g id="a_node14"><a xlink:href="structJSULink.html" target="_top" xlink:title=" ">
<polygon fill="white" stroke="black" points="122,-279 122,-309 247,-309 247,-279 122,-279"/>
<text text-anchor="start" x="130" y="-297" font-family="Helvetica,sans-Serif" font-size="10.00">JSULink&lt; JKRFileCache</text>
<text text-anchor="middle" x="184.5" y="-286" font-family="Helvetica,sans-Serif" font-size="10.00">::CCacheBlock &gt;</text>
</a>
</g>
</g>
<!-- Node1&#45;&gt;Node14 -->
<g id="edge13" class="edge">
<title>Node1&#45;&gt;Node14</title>
<path fill="none" stroke="midnightblue" d="M77.04,-325.54C94.34,-320.42 114.53,-314.44 132.65,-309.07"/>
<polygon fill="midnightblue" stroke="midnightblue" points="75.82,-322.26 67.22,-328.45 77.8,-328.97 75.82,-322.26"/>
</g>
<!-- Node15 -->
<g id="node15" class="node">
<title>Node15</title>
<g id="a_node15"><a xlink:href="structJSULink.html" target="_top" xlink:title=" ">
<polygon fill="white" stroke="black" points="116.5,-240.5 116.5,-259.5 252.5,-259.5 252.5,-240.5 116.5,-240.5"/>
<text text-anchor="middle" x="184.5" y="-247.5" font-family="Helvetica,sans-Serif" font-size="10.00">JSULink&lt; JKRFileLoader &gt;</text>
</a>
</g>
</g>
<!-- Node1&#45;&gt;Node15 -->
<g id="edge14" class="edge">
<title>Node1&#45;&gt;Node15</title>
<path fill="none" stroke="midnightblue" d="M48.43,-320.21C61.09,-304.67 81.45,-282.68 104,-270 111.69,-265.67 120.32,-262.27 128.98,-259.6"/>
<polygon fill="midnightblue" stroke="midnightblue" points="45.34,-318.47 41.9,-328.49 50.84,-322.8 45.34,-318.47"/>
</g>
<!-- Node16 -->
<g id="node16" class="node">
<title>Node16</title>
<g id="a_node16"><a xlink:href="structJSULink.html" target="_top" xlink:title=" ">
<polygon fill="white" stroke="black" points="128,-202.5 128,-221.5 241,-221.5 241,-202.5 128,-202.5"/>
<text text-anchor="middle" x="184.5" y="-209.5" font-family="Helvetica,sans-Serif" font-size="10.00">JSULink&lt; JKRHeap &gt;</text>
</a>
</g>
</g>
<!-- Node1&#45;&gt;Node16 -->
<g id="edge15" class="edge">
<title>Node1&#45;&gt;Node16</title>
<path fill="none" stroke="midnightblue" d="M42.16,-318.67C52.17,-294.36 72.73,-253.15 104,-231 111.06,-226 119.27,-222.3 127.69,-219.57"/>
<polygon fill="midnightblue" stroke="midnightblue" points="38.8,-317.64 38.4,-328.23 45.31,-320.2 38.8,-317.64"/>
</g>
<!-- Node18 -->
<g id="node18" class="node">
<title>Node18</title>
<g id="a_node18"><a xlink:href="structJSULink.html" target="_top" xlink:title=" ">
<polygon fill="white" stroke="black" points="124.5,-164.5 124.5,-183.5 244.5,-183.5 244.5,-164.5 124.5,-164.5"/>
<text text-anchor="middle" x="184.5" y="-171.5" font-family="Helvetica,sans-Serif" font-size="10.00">JSULink&lt; JKRThread &gt;</text>
</a>
</g>
</g>
<!-- Node1&#45;&gt;Node18 -->
<g id="edge17" class="edge">
<title>Node1&#45;&gt;Node18</title>
<path fill="none" stroke="midnightblue" d="M38.7,-318.34C45.68,-286.89 63.86,-225.5 104,-193 109.96,-188.18 116.94,-184.54 124.24,-181.81"/>
<polygon fill="midnightblue" stroke="midnightblue" points="35.2,-317.97 36.61,-328.47 42.06,-319.38 35.2,-317.97"/>
</g>
<!-- Node19 -->
<g id="node19" class="node">
<title>Node19</title>
<g id="a_node19"><a xlink:href="structJSULink.html" target="_top" xlink:title=" ">
<polygon fill="white" stroke="black" points="113,-126.5 113,-145.5 256,-145.5 256,-126.5 113,-126.5"/>
<text text-anchor="middle" x="184.5" y="-133.5" font-family="Helvetica,sans-Serif" font-size="10.00">JSULink&lt; JPABaseEmitter &gt;</text>
</a>
</g>
</g>
<!-- Node1&#45;&gt;Node19 -->
<g id="edge18" class="edge">
<title>Node1&#45;&gt;Node19</title>
<path fill="none" stroke="midnightblue" d="M36.55,-318.1C40.58,-280.37 54.83,-198.34 104,-155 108.36,-151.15 113.37,-148.05 118.7,-145.55"/>
<polygon fill="midnightblue" stroke="midnightblue" points="33.04,-318.01 35.59,-328.29 40.01,-318.66 33.04,-318.01"/>
</g>
<!-- Node20 -->
<g id="node20" class="node">
<title>Node20</title>
<g id="a_node20"><a xlink:href="structJSULink.html" target="_top" xlink:title=" ">
<polygon fill="white" stroke="black" points="122.5,-77 122.5,-107 246.5,-107 246.5,-77 122.5,-77"/>
<text text-anchor="start" x="130.5" y="-95" font-family="Helvetica,sans-Serif" font-size="10.00">JSULink&lt; JUTException</text>
<text text-anchor="middle" x="184.5" y="-84" font-family="Helvetica,sans-Serif" font-size="10.00">::JUTExMapFile &gt;</text>
</a>
</g>
</g>
<!-- Node1&#45;&gt;Node20 -->
<g id="edge19" class="edge">
<title>Node1&#45;&gt;Node20</title>
<path fill="none" stroke="midnightblue" d="M35.34,-318.29C37.17,-275.52 47.56,-173.55 104,-117 109.21,-111.78 115.5,-107.64 122.24,-104.37"/>
<polygon fill="midnightblue" stroke="midnightblue" points="31.84,-318.37 35.03,-328.47 38.83,-318.59 31.84,-318.37"/>
</g>
<!-- Node21 -->
<g id="node21" class="node">
<title>Node21</title>
<g id="a_node21"><a xlink:href="structJSULink.html" target="_top" xlink:title=" ">
<polygon fill="white" stroke="black" points="117.5,-38.5 117.5,-57.5 251.5,-57.5 251.5,-38.5 117.5,-38.5"/>
<text text-anchor="middle" x="184.5" y="-45.5" font-family="Helvetica,sans-Serif" font-size="10.00">JSULink&lt; JUTGamePad &gt;</text>
</a>
</g>
</g>
<!-- Node1&#45;&gt;Node21 -->
<g id="edge20" class="edge">
<title>Node1&#45;&gt;Node21</title>
<path fill="none" stroke="midnightblue" d="M37.36,-318.38C44.51,-262.26 67.68,-102.79 104,-67 107.94,-63.12 112.53,-59.97 117.47,-57.44"/>
<polygon fill="midnightblue" stroke="midnightblue" points="33.87,-318.08 36.11,-328.44 40.82,-318.95 33.87,-318.08"/>
</g>
<!-- Node22 -->
<g id="node22" class="node">
<title>Node22</title>
<g id="a_node22"><a xlink:href="structJSULink.html" target="_top" xlink:title=" ">
<polygon fill="white" stroke="black" points="143,-0.5 143,-19.5 226,-19.5 226,-0.5 143,-0.5"/>
<text text-anchor="middle" x="184.5" y="-7.5" font-family="Helvetica,sans-Serif" font-size="10.00">JSULink&lt; A0 &gt;</text>
</a>
</g>
</g>
<!-- Node1&#45;&gt;Node22 -->
<g id="edge21" class="edge">
<title>Node1&#45;&gt;Node22</title>
<path fill="none" stroke="midnightblue" d="M36.73,-318.12C42.47,-256.55 62.96,-70.66 104,-29 114.16,-18.69 128.84,-13.58 142.83,-11.16"/>
<polygon fill="midnightblue" stroke="midnightblue" points="33.21,-318.13 35.8,-328.4 40.18,-318.76 33.21,-318.13"/>
</g>
<!-- Node3 -->
<g id="node3" class="node">
<title>Node3</title>
<g id="a_node3"><a xlink:href="classJSUTree.html" target="_top" xlink:title=" ">
<polygon fill="white" stroke="black" points="319,-632.5 319,-651.5 397,-651.5 397,-632.5 319,-632.5"/>
<text text-anchor="middle" x="358" y="-639.5" font-family="Helvetica,sans-Serif" font-size="10.00">JSUTree&lt; T &gt;</text>
</a>
</g>
</g>
<!-- Node2&#45;&gt;Node3 -->
<g id="edge2" class="edge">
<title>Node2&#45;&gt;Node3</title>
<path fill="none" stroke="midnightblue" d="M233.16,-642C260.19,-642 293.57,-642 318.86,-642"/>
<polygon fill="midnightblue" stroke="midnightblue" points="233.14,-638.5 223.14,-642 233.14,-645.5 233.14,-638.5"/>
</g>
<!-- Node5 -->
<g id="node5" class="node">
<title>Node5</title>
<g id="a_node5"><a xlink:href="classZ2SoundHandlePool.html" target="_top" xlink:title=" ">
<polygon fill="white" stroke="black" points="305,-594.5 305,-613.5 411,-613.5 411,-594.5 305,-594.5"/>
<text text-anchor="middle" x="358" y="-601.5" font-family="Helvetica,sans-Serif" font-size="10.00">Z2SoundHandlePool</text>
</a>
</g>
</g>
<!-- Node4&#45;&gt;Node5 -->
<g id="edge4" class="edge">
<title>Node4&#45;&gt;Node5</title>
<path fill="none" stroke="#8b1a1a" d="M275.34,-604C285.46,-604 295.5,-604 304.9,-604"/>
<polygon fill="#8b1a1a" stroke="#8b1a1a" points="275.23,-600.5 265.23,-604 275.23,-607.5 275.23,-600.5"/>
</g>
<!-- Node7 -->
<g id="node7" class="node">
<title>Node7</title>
<g id="a_node7"><a xlink:href="classJSUTree.html" target="_top" xlink:title=" ">
<polygon fill="white" stroke="black" points="302,-556.5 302,-575.5 414,-575.5 414,-556.5 302,-556.5"/>
<text text-anchor="middle" x="358" y="-563.5" font-family="Helvetica,sans-Serif" font-size="10.00">JSUTree&lt; J2DPane &gt;</text>
</a>
</g>
</g>
<!-- Node6&#45;&gt;Node7 -->
<g id="edge6" class="edge">
<title>Node6&#45;&gt;Node7</title>
<path fill="none" stroke="midnightblue" d="M250.59,-566C267.51,-566 285.56,-566 301.9,-566"/>
<polygon fill="midnightblue" stroke="midnightblue" points="250.24,-562.5 240.24,-566 250.24,-569.5 250.24,-562.5"/>
</g>
<!-- Node17 -->
<g id="node17" class="node">
<title>Node17</title>
<g id="a_node17"><a xlink:href="classJSUTree.html" target="_top" xlink:title=" ">
<polygon fill="white" stroke="black" points="301,-202.5 301,-221.5 415,-221.5 415,-202.5 301,-202.5"/>
<text text-anchor="middle" x="358" y="-209.5" font-family="Helvetica,sans-Serif" font-size="10.00">JSUTree&lt; JKRHeap &gt;</text>
</a>
</g>
</g>
<!-- Node16&#45;&gt;Node17 -->
<g id="edge16" class="edge">
<title>Node16&#45;&gt;Node17</title>
<path fill="none" stroke="midnightblue" d="M251.19,-212C267.52,-212 284.88,-212 300.72,-212"/>
<polygon fill="midnightblue" stroke="midnightblue" points="251.18,-208.5 241.18,-212 251.18,-215.5 251.18,-208.5"/>
</g>
</g>
</svg>
        <g id="navigator" transform="translate(0 0)" fill="#404254">
                <rect fill="#f2f5e9" fill-opacity="0.5" stroke="#606060" stroke-width=".5" x="0" y="0" width="60" height="60"/>
                <use id="zoomplus" xlink:href="#zoomPlus" x="17" y="9" onmousedown="handleZoom(evt,'in')"/>
                <use id="zoomminus" xlink:href="#zoomMin" x="42" y="9" onmousedown="handleZoom(evt,'out')"/>
                <use id="reset" xlink:href="#resetDef" x="30" y="36" onmousedown="handleReset()"/>
                <g id="arrowUp" xlink:href="#dirArrow" transform="translate(30 24)" onmousedown="handlePan(0,-1)">
                  <use xlink:href="#rim" fill="#404040">
                        <set attributeName="fill" to="#808080" begin="arrowUp.mouseover" end="arrowUp.mouseout"/>
                  </use>
                  <path fill="none" stroke="white" stroke-width="1.5" d="M0,-3.0v7 M-2.5,-0.5L0,-3.0L2.5,-0.5"/>
                </g>
                <g id="arrowRight" xlink:href="#dirArrow" transform="rotate(90) translate(36 -43)" onmousedown="handlePan(1,0)">
                  <use xlink:href="#rim" fill="#404040">
                        <set attributeName="fill" to="#808080" begin="arrowRight.mouseover" end="arrowRight.mouseout"/>
                  </use>
                  <path fill="none" stroke="white" stroke-width="1.5" d="M0,-3.0v7 M-2.5,-0.5L0,-3.0L2.5,-0.5"/>
                </g>
                <g id="arrowDown" xlink:href="#dirArrow" transform="rotate(180) translate(-30 -48)" onmousedown="handlePan(0,1)">
                  <use xlink:href="#rim" fill="#404040">
                        <set attributeName="fill" to="#808080" begin="arrowDown.mouseover" end="arrowDown.mouseout"/>
                  </use>
                  <path fill="none" stroke="white" stroke-width="1.5" d="M0,-3.0v7 M-2.5,-0.5L0,-3.0L2.5,-0.5"/>
                </g>
                <g id="arrowLeft" xlink:href="#dirArrow" transform="rotate(270) translate(-36 17)" onmousedown="handlePan(-1,0)">
                  <use xlink:href="#rim" fill="#404040">
                        <set attributeName="fill" to="#808080" begin="arrowLeft.mouseover" end="arrowLeft.mouseout"/>
                  </use>
                  <path fill="none" stroke="white" stroke-width="1.5" d="M0,-3.0v7 M-2.5,-0.5L0,-3.0L2.5,-0.5"/>
                </g>
        </g>
        <svg viewBox="0 0 15 15" width="100%" height="30px" preserveAspectRatio="xMaxYMin meet">
         <g id="arrow_out" transform="scale(0.3 0.3)">
          <a xlink:href="structJSUPtrLink__inherit__graph_org.svg" target="_base">
           <rect id="button" ry="5" rx="5" y="6" x="6" height="38" width="38"
                fill="#f2f5e9" fill-opacity="0.5" stroke="#606060" stroke-width="1.0"/>
           <path id="arrow"
             d="M 11.500037,31.436501 C 11.940474,20.09759 22.043105,11.32322 32.158766,21.979434 L 37.068811,17.246167 C 37.068811,17.246167 37.088388,32 37.088388,32 L 22.160133,31.978069 C 22.160133,31.978069 26.997745,27.140456 26.997745,27.140456 C 18.528582,18.264221 13.291696,25.230495 11.500037,31.436501 z"
             style="fill:#404040;"/>
          </a>
         </g>
        </svg>
</svg>
