<?xml version="1.0" encoding="UTF-8" standalone="no"?>
<!DOCTYPE svg PUBLIC "-//W3C//DTD SVG 1.1//EN"
 "http://www.w3.org/Graphics/SVG/1.1/DTD/svg11.dtd">
<!-- Generated by graphviz version 2.49.3 (20211027.1534)
 -->
<!-- Title: JMath Pages: 1 -->
<svg width="279pt" height="95pt"
 viewBox="0.00 0.00 279.00 95.00" xmlns="http://www.w3.org/2000/svg" xmlns:xlink="http://www.w3.org/1999/xlink">
<g id="graph0" class="graph" transform="scale(1 1) rotate(0) translate(4 91)">
<title>JMath</title>
<polygon fill="white" stroke="transparent" points="-4,4 -4,-91 275,-91 275,4 -4,4"/>
<!-- Node1 -->
<g id="node1" class="node">
<title>Node1</title>
<g id="a_node1"><a xlink:title=" ">
<polygon fill="#bfbfbf" stroke="black" points="108,-0.5 108,-19.5 152,-19.5 152,-0.5 108,-0.5"/>
<text text-anchor="middle" x="130" y="-7.5" font-family="Helvetica,sans-Serif" font-size="10.00">JMath</text>
</a>
</g>
</g>
<!-- Node2 -->
<g id="node2" class="node">
<title>Node2</title>
<g id="a_node2"><a xlink:href="structTSinCosTable.html" target="_top" xlink:title=" ">
<polygon fill="white" stroke="black" points="0,-67.5 0,-86.5 78,-86.5 78,-67.5 0,-67.5"/>
<text text-anchor="middle" x="39" y="-74.5" font-family="Helvetica,sans-Serif" font-size="10.00">TSinCosTable</text>
</a>
</g>
</g>
<!-- Node2&#45;&gt;Node1 -->
<g id="edge1" class="edge">
<title>Node2&#45;&gt;Node1</title>
<path fill="none" stroke="#9a32cd" stroke-dasharray="5,2" d="M48.06,-58.43C52.41,-51.34 58.18,-43.54 65,-38 77.52,-27.83 94.41,-20.97 107.83,-16.71"/>
<polygon fill="#9a32cd" stroke="#9a32cd" points="44.88,-56.95 43.04,-67.38 50.99,-60.37 44.88,-56.95"/>
<text text-anchor="middle" x="95.5" y="-41" font-family="Helvetica,sans-Serif" font-size="10.00"> sincosTable_</text>
</g>
<!-- Node3 -->
<g id="node3" class="node">
<title>Node3</title>
<g id="a_node3"><a xlink:href="structTAtanTable.html" target="_top" xlink:title=" ">
<polygon fill="white" stroke="black" points="96.5,-67.5 96.5,-86.5 163.5,-86.5 163.5,-67.5 96.5,-67.5"/>
<text text-anchor="middle" x="130" y="-74.5" font-family="Helvetica,sans-Serif" font-size="10.00">TAtanTable</text>
</a>
</g>
</g>
<!-- Node3&#45;&gt;Node1 -->
<g id="edge2" class="edge">
<title>Node3&#45;&gt;Node1</title>
<path fill="none" stroke="#9a32cd" stroke-dasharray="5,2" d="M130,-57.04C130,-44.67 130,-29.12 130,-19.63"/>
<polygon fill="#9a32cd" stroke="#9a32cd" points="126.5,-57.23 130,-67.23 133.5,-57.23 126.5,-57.23"/>
<text text-anchor="middle" x="155.5" y="-41" font-family="Helvetica,sans-Serif" font-size="10.00"> atanTable_</text>
</g>
<!-- Node4 -->
<g id="node4" class="node">
<title>Node4</title>
<g id="a_node4"><a xlink:href="structTAsinAcosTable.html" target="_top" xlink:title=" ">
<polygon fill="white" stroke="black" points="181.5,-67.5 181.5,-86.5 270.5,-86.5 270.5,-67.5 181.5,-67.5"/>
<text text-anchor="middle" x="226" y="-74.5" font-family="Helvetica,sans-Serif" font-size="10.00">TAsinAcosTable</text>
</a>
</g>
</g>
<!-- Node4&#45;&gt;Node1 -->
<g id="edge3" class="edge">
<title>Node4&#45;&gt;Node1</title>
<path fill="none" stroke="#9a32cd" stroke-dasharray="5,2" d="M210.96,-60.06C203.57,-52.78 194.28,-44.38 185,-38 174.39,-30.71 161.52,-24.28 150.9,-19.53"/>
<polygon fill="#9a32cd" stroke="#9a32cd" points="208.63,-62.69 218.13,-67.37 213.63,-57.78 208.63,-62.69"/>
<text text-anchor="middle" x="234.5" y="-41" font-family="Helvetica,sans-Serif" font-size="10.00"> asinAcosTable_</text>
</g>
</g>
</svg>
