<?xml version="1.0" encoding="UTF-8" standalone="no"?>
<!DOCTYPE svg PUBLIC "-//W3C//DTD SVG 1.1//EN"
 "http://www.w3.org/Graphics/SVG/1.1/DTD/svg11.dtd">
<!-- Generated by graphviz version 3.0.0 (20220413.0242)
 -->
<!-- Title: JStudio::TAdaptor_message Pages: 1 -->
<svg width="999pt" height="271pt"
 viewBox="0.00 0.00 999.00 270.50" xmlns="http://www.w3.org/2000/svg" xmlns:xlink="http://www.w3.org/1999/xlink">
<g id="graph0" class="graph" transform="scale(1 1) rotate(0) translate(4 266.5)">
<title>JStudio::TAdaptor_message</title>
<polygon fill="white" stroke="transparent" points="-4,4 -4,-266.5 995,-266.5 995,4 -4,4"/>
<!-- Node1 -->
<g id="node1" class="node">
<title>Node1</title>
<g id="a_node1"><a xlink:title=" ">
<polygon fill="#bfbfbf" stroke="black" points="626,-243 626,-262 765,-262 765,-243 626,-243"/>
<text text-anchor="middle" x="695.5" y="-250" font-family="Helvetica,sans-Serif" font-size="10.00">JStudio::TAdaptor_message</text>
</a>
</g>
</g>
<!-- Node2 -->
<g id="node2" class="node">
<title>Node2</title>
<g id="a_node2"><a xlink:href="structJStudio_1_1TAdaptor.html" target="_top" xlink:title=" ">
<polygon fill="white" stroke="black" points="432,-217 432,-236 526,-236 526,-217 432,-217"/>
<text text-anchor="middle" x="479" y="-224" font-family="Helvetica,sans-Serif" font-size="10.00">JStudio::TAdaptor</text>
</a>
</g>
</g>
<!-- Node2&#45;&gt;Node1 -->
<g id="edge1" class="edge">
<title>Node2&#45;&gt;Node1</title>
<path fill="none" stroke="midnightblue" d="M536.08,-235.48C543.45,-236.55 550.9,-237.59 558,-238.5 579.98,-241.32 604,-243.93 625.68,-246.12"/>
<polygon fill="midnightblue" stroke="midnightblue" points="536.55,-232.01 526.14,-233.99 535.51,-238.93 536.55,-232.01"/>
</g>
<!-- Node3 -->
<g id="node3" class="node">
<title>Node3</title>
<g id="a_node3"><a xlink:href="classJStudio_1_1TObject.html" target="_top" xlink:title=" ">
<polygon fill="white" stroke="black" points="651,-185 651,-204 740,-204 740,-185 651,-185"/>
<text text-anchor="middle" x="695.5" y="-192" font-family="Helvetica,sans-Serif" font-size="10.00">JStudio::TObject</text>
</a>
</g>
</g>
<!-- Node2&#45;&gt;Node3 -->
<g id="edge15" class="edge">
<title>Node2&#45;&gt;Node3</title>
<path fill="none" stroke="#9a32cd" stroke-dasharray="5,2" d="M505.41,-212.24C520.25,-204.75 539.61,-196.33 558,-192.5 588.51,-186.14 623.69,-186.84 650.7,-189.03"/>
<polygon fill="#9a32cd" stroke="#9a32cd" points="503.61,-209.24 496.38,-216.98 506.86,-215.44 503.61,-209.24"/>
<text text-anchor="middle" x="583" y="-195.5" font-family="Helvetica,sans-Serif" font-size="10.00"> mpAdaptor</text>
</g>
<!-- Node3&#45;&gt;Node2 -->
<g id="edge2" class="edge">
<title>Node3&#45;&gt;Node2</title>
<path fill="none" stroke="#9a32cd" stroke-dasharray="5,2" d="M640.62,-202.54C605.31,-207.81 559.63,-214.62 526.02,-219.64"/>
<polygon fill="#9a32cd" stroke="#9a32cd" points="641.38,-205.96 650.76,-201.03 640.35,-199.04 641.38,-205.96"/>
<text text-anchor="middle" x="583" y="-216.5" font-family="Helvetica,sans-Serif" font-size="10.00"> pObject_</text>
</g>
<!-- Node4 -->
<g id="node4" class="node">
<title>Node4</title>
<g id="a_node4"><a xlink:href="classJStudio_1_1stb_1_1TObject.html" target="_top" xlink:title=" ">
<polygon fill="white" stroke="black" points="425.5,-116 425.5,-135 532.5,-135 532.5,-116 425.5,-116"/>
<text text-anchor="middle" x="479" y="-123" font-family="Helvetica,sans-Serif" font-size="10.00">JStudio::stb::TObject</text>
</a>
</g>
</g>
<!-- Node4&#45;&gt;Node3 -->
<g id="edge3" class="edge">
<title>Node4&#45;&gt;Node3</title>
<path fill="none" stroke="midnightblue" d="M516.8,-138.3C546.25,-148.44 588.64,-162.78 626,-174.5 637.35,-178.06 649.82,-181.76 660.97,-185"/>
<polygon fill="midnightblue" stroke="midnightblue" points="517.94,-134.99 507.34,-135.04 515.65,-141.61 517.94,-134.99"/>
</g>
<!-- Node12 -->
<g id="node12" class="node">
<title>Node12</title>
<g id="a_node12"><a xlink:href="classJStudio_1_1stb_1_1TObject__control.html" target="_top" xlink:title=" ">
<polygon fill="white" stroke="black" points="642,-135.5 642,-165.5 749,-165.5 749,-135.5 642,-135.5"/>
<text text-anchor="start" x="650" y="-153.5" font-family="Helvetica,sans-Serif" font-size="10.00">JStudio::stb::TObject</text>
<text text-anchor="middle" x="695.5" y="-142.5" font-family="Helvetica,sans-Serif" font-size="10.00">_control</text>
</a>
</g>
</g>
<!-- Node4&#45;&gt;Node12 -->
<g id="edge14" class="edge">
<title>Node4&#45;&gt;Node12</title>
<path fill="none" stroke="midnightblue" d="M542.74,-132.81C574.25,-136.49 611.99,-140.88 641.96,-144.38"/>
<polygon fill="midnightblue" stroke="midnightblue" points="543.09,-129.33 532.75,-131.65 542.27,-136.28 543.09,-129.33"/>
</g>
<!-- Node5 -->
<g id="node5" class="node">
<title>Node5</title>
<g id="a_node5"><a xlink:href="structJStudio_1_1object_1_1TObject__ID.html" target="_top" xlink:title=" ">
<polygon fill="white" stroke="black" points="201,-116 201,-135 335,-135 335,-116 201,-116"/>
<text text-anchor="middle" x="268" y="-123" font-family="Helvetica,sans-Serif" font-size="10.00">JStudio::object::TObject_ID</text>
</a>
</g>
</g>
<!-- Node5&#45;&gt;Node4 -->
<g id="edge4" class="edge">
<title>Node5&#45;&gt;Node4</title>
<path fill="none" stroke="midnightblue" d="M345.17,-125.5C371.73,-125.5 400.95,-125.5 425.19,-125.5"/>
<polygon fill="midnightblue" stroke="midnightblue" points="345.13,-122 335.13,-125.5 345.13,-129 345.13,-122"/>
</g>
<!-- Node6 -->
<g id="node6" class="node">
<title>Node6</title>
<g id="a_node6"><a xlink:href="structJStudio_1_1object_1_1TIDData.html" target="_top" xlink:title=" ">
<polygon fill="white" stroke="black" points="0.5,-116 0.5,-135 121.5,-135 121.5,-116 0.5,-116"/>
<text text-anchor="middle" x="61" y="-123" font-family="Helvetica,sans-Serif" font-size="10.00">JStudio::object::TIDData</text>
</a>
</g>
</g>
<!-- Node6&#45;&gt;Node5 -->
<g id="edge5" class="edge">
<title>Node6&#45;&gt;Node5</title>
<path fill="none" stroke="midnightblue" d="M131.66,-125.5C154.02,-125.5 178.71,-125.5 200.81,-125.5"/>
<polygon fill="midnightblue" stroke="midnightblue" points="131.57,-122 121.57,-125.5 131.57,-129 131.57,-122"/>
</g>
<!-- Node7 -->
<g id="node7" class="node">
<title>Node7</title>
<g id="a_node7"><a xlink:href="structJGadget_1_1TLinkListNode.html" target="_top" xlink:title=" ">
<polygon fill="white" stroke="black" points="207,-34 207,-53 329,-53 329,-34 207,-34"/>
<text text-anchor="middle" x="268" y="-41" font-family="Helvetica,sans-Serif" font-size="10.00">JGadget::TLinkListNode</text>
</a>
</g>
</g>
<!-- Node7&#45;&gt;Node4 -->
<g id="edge6" class="edge">
<title>Node7&#45;&gt;Node4</title>
<path fill="none" stroke="#9a32cd" stroke-dasharray="5,2" d="M302.71,-56.72C345,-73.32 416.5,-101.37 453.77,-115.99"/>
<polygon fill="#9a32cd" stroke="#9a32cd" points="303.97,-53.46 293.38,-53.07 301.41,-59.98 303.97,-53.46"/>
<text text-anchor="middle" x="376.5" y="-97.5" font-family="Helvetica,sans-Serif" font-size="10.00"> ocObject_</text>
</g>
<!-- Node7&#45;&gt;Node7 -->
<g id="edge7" class="edge">
<title>Node7&#45;&gt;Node7</title>
<path fill="none" stroke="#9a32cd" stroke-dasharray="5,2" d="M248.37,-62.9C249.68,-67.81 256.23,-71.5 268,-71.5 286.84,-71.5 292.29,-62.07 284.34,-53.26"/>
<polygon fill="#9a32cd" stroke="#9a32cd" points="251.74,-63.85 251.66,-53.26 245.12,-61.59 251.74,-63.85"/>
<text text-anchor="middle" x="268" y="-85.5" font-family="Helvetica,sans-Serif" font-size="10.00"> mNext</text>
<text text-anchor="middle" x="268" y="-74.5" font-family="Helvetica,sans-Serif" font-size="10.00">mPrev</text>
</g>
<!-- Node11 -->
<g id="node11" class="node">
<title>Node11</title>
<g id="a_node11"><a xlink:href="structJGadget_1_1TNodeLinkList.html" target="_top" xlink:title=" ">
<polygon fill="white" stroke="black" points="418,-24 418,-43 540,-43 540,-24 418,-24"/>
<text text-anchor="middle" x="479" y="-31" font-family="Helvetica,sans-Serif" font-size="10.00">JGadget::TNodeLinkList</text>
</a>
</g>
</g>
<!-- Node7&#45;&gt;Node11 -->
<g id="edge12" class="edge">
<title>Node7&#45;&gt;Node11</title>
<path fill="none" stroke="#9a32cd" stroke-dasharray="5,2" d="M339.16,-40.14C364.69,-38.92 393.31,-37.55 417.89,-36.38"/>
<polygon fill="#9a32cd" stroke="#9a32cd" points="338.99,-36.65 329.17,-40.62 339.33,-43.64 338.99,-36.65"/>
<text text-anchor="middle" x="376.5" y="-42.5" font-family="Helvetica,sans-Serif" font-size="10.00"> ocObject_</text>
</g>
<!-- Node8 -->
<g id="node8" class="node">
<title>Node8</title>
<g id="a_node8"><a xlink:href="classJStudio_1_1stb_1_1TControl.html" target="_top" xlink:title=" ">
<polygon fill="white" stroke="black" points="882,-77 882,-96 991,-96 991,-77 882,-77"/>
<text text-anchor="middle" x="936.5" y="-84" font-family="Helvetica,sans-Serif" font-size="10.00">JStudio::stb::TControl</text>
</a>
</g>
</g>
<!-- Node8&#45;&gt;Node4 -->
<g id="edge8" class="edge">
<title>Node8&#45;&gt;Node4</title>
<path fill="none" stroke="#9a32cd" stroke-dasharray="5,2" d="M871.81,-77.3C808.91,-69.89 710.18,-62.75 626,-76.5 580.09,-84 529.14,-103.94 501.21,-115.95"/>
<polygon fill="#9a32cd" stroke="#9a32cd" points="871.62,-80.8 881.97,-78.54 872.47,-73.85 871.62,-80.8"/>
<text text-anchor="middle" x="695.5" y="-79.5" font-family="Helvetica,sans-Serif" font-size="10.00"> pControl</text>
</g>
<!-- Node9 -->
<g id="node9" class="node">
<title>Node9</title>
<g id="a_node9"><a xlink:href="classJStudio_1_1stb_1_1TFactory.html" target="_top" xlink:title=" ">
<polygon fill="white" stroke="black" points="640.5,-97 640.5,-116 750.5,-116 750.5,-97 640.5,-97"/>
<text text-anchor="middle" x="695.5" y="-104" font-family="Helvetica,sans-Serif" font-size="10.00">JStudio::stb::TFactory</text>
</a>
</g>
</g>
<!-- Node9&#45;&gt;Node8 -->
<g id="edge9" class="edge">
<title>Node9&#45;&gt;Node8</title>
<path fill="none" stroke="#9a32cd" stroke-dasharray="5,2" d="M761.14,-101.09C798.96,-97.93 846.15,-93.98 881.89,-90.99"/>
<polygon fill="#9a32cd" stroke="#9a32cd" points="760.41,-97.64 750.73,-101.96 760.99,-104.62 760.41,-97.64"/>
<text text-anchor="middle" x="823.5" y="-102.5" font-family="Helvetica,sans-Serif" font-size="10.00"> pFactory</text>
</g>
<!-- Node10 -->
<g id="node10" class="node">
<title>Node10</title>
<g id="a_node10"><a xlink:href="structJGadget_1_1TLinkList.html" target="_top" xlink:title=" ">
<polygon fill="white" stroke="black" points="626,-0.5 626,-30.5 765,-30.5 765,-0.5 626,-0.5"/>
<text text-anchor="start" x="634" y="-18.5" font-family="Helvetica,sans-Serif" font-size="10.00">JGadget::TLinkList</text>
<text text-anchor="middle" x="695.5" y="-7.5" font-family="Helvetica,sans-Serif" font-size="10.00">&lt; JStudio::stb::TObject, 12 &gt;</text>
</a>
</g>
</g>
<!-- Node10&#45;&gt;Node8 -->
<g id="edge10" class="edge">
<title>Node10&#45;&gt;Node8</title>
<path fill="none" stroke="#9a32cd" stroke-dasharray="5,2" d="M775.24,-21.75C803.82,-25.68 835.97,-32.08 864,-42.5 886.41,-50.83 909.45,-66.54 923.12,-76.76"/>
<polygon fill="#9a32cd" stroke="#9a32cd" points="775.66,-18.28 765.29,-20.46 774.76,-25.22 775.66,-18.28"/>
<text text-anchor="middle" x="823.5" y="-45.5" font-family="Helvetica,sans-Serif" font-size="10.00"> mObjectContainer</text>
</g>
<!-- Node11&#45;&gt;Node10 -->
<g id="edge11" class="edge">
<title>Node11&#45;&gt;Node10</title>
<path fill="none" stroke="midnightblue" d="M550.24,-27.61C574.5,-25.57 601.64,-23.29 625.77,-21.27"/>
<polygon fill="midnightblue" stroke="midnightblue" points="549.71,-24.14 540.04,-28.46 550.29,-31.11 549.71,-24.14"/>
</g>
<!-- Node12&#45;&gt;Node8 -->
<g id="edge13" class="edge">
<title>Node12&#45;&gt;Node8</title>
<path fill="none" stroke="#9a32cd" stroke-dasharray="5,2" d="M759.15,-139.53C790.88,-133.35 829.82,-124.79 864,-114.5 881.11,-109.35 899.89,-101.92 913.92,-96.01"/>
<polygon fill="#9a32cd" stroke="#9a32cd" points="758.27,-136.13 749.11,-141.45 759.59,-143.01 758.27,-136.13"/>
<text text-anchor="middle" x="823.5" y="-137.5" font-family="Helvetica,sans-Serif" font-size="10.00"> mObject_control</text>
</g>
<!-- Node13 -->
<g id="node13" class="node">
<title>Node13</title>
<g id="a_node13"><a xlink:href="structJStudio_1_1TVariableValue.html" target="_top" xlink:title=" ">
<polygon fill="white" stroke="black" points="208,-217 208,-236 328,-236 328,-217 208,-217"/>
<text text-anchor="middle" x="268" y="-224" font-family="Helvetica,sans-Serif" font-size="10.00">JStudio::TVariableValue</text>
</a>
</g>
</g>
<!-- Node13&#45;&gt;Node2 -->
<g id="edge16" class="edge">
<title>Node13&#45;&gt;Node2</title>
<path fill="none" stroke="#9a32cd" stroke-dasharray="5,2" d="M338.27,-226.5C368.97,-226.5 404.25,-226.5 431.69,-226.5"/>
<polygon fill="#9a32cd" stroke="#9a32cd" points="338.05,-223 328.05,-226.5 338.05,-230 338.05,-223"/>
<text text-anchor="middle" x="376.5" y="-229.5" font-family="Helvetica,sans-Serif" font-size="10.00"> pValue_</text>
</g>
<!-- Node14 -->
<g id="node14" class="node">
<title>Node14</title>
<g id="a_node14"><a xlink:href="classJStudio_1_1TFunctionValue.html" target="_top" xlink:title=" ">
<polygon fill="white" stroke="black" points="0,-239 0,-258 122,-258 122,-239 0,-239"/>
<text text-anchor="middle" x="61" y="-246" font-family="Helvetica,sans-Serif" font-size="10.00">JStudio::TFunctionValue</text>
</a>
</g>
</g>
<!-- Node14&#45;&gt;Node13 -->
<g id="edge17" class="edge">
<title>Node14&#45;&gt;Node13</title>
<path fill="none" stroke="#9a32cd" stroke-dasharray="5,2" d="M132.14,-240.97C156.81,-238.32 184.27,-235.38 207.94,-232.84"/>
<polygon fill="#9a32cd" stroke="#9a32cd" points="131.69,-237.5 122.12,-242.05 132.44,-244.46 131.69,-237.5"/>
<text text-anchor="middle" x="161.5" y="-242.5" font-family="Helvetica,sans-Serif" font-size="10.00"> field_0xc</text>
</g>
<!-- Node15 -->
<g id="node15" class="node">
<title>Node15</title>
<g id="a_node15"><a xlink:href="structJStudio_1_1TVariableValue_1_1TOutput.html" target="_top" xlink:title=" ">
<polygon fill="white" stroke="black" points="1,-189.5 1,-219.5 121,-219.5 121,-189.5 1,-189.5"/>
<text text-anchor="start" x="9" y="-207.5" font-family="Helvetica,sans-Serif" font-size="10.00">JStudio::TVariableValue</text>
<text text-anchor="middle" x="61" y="-196.5" font-family="Helvetica,sans-Serif" font-size="10.00">::TOutput</text>
</a>
</g>
</g>
<!-- Node15&#45;&gt;Node13 -->
<g id="edge18" class="edge">
<title>Node15&#45;&gt;Node13</title>
<path fill="none" stroke="#9a32cd" stroke-dasharray="5,2" d="M131.11,-211.92C155.96,-214.58 183.74,-217.57 207.69,-220.13"/>
<polygon fill="#9a32cd" stroke="#9a32cd" points="131.34,-208.42 121.02,-210.83 130.59,-215.38 131.34,-208.42"/>
<text text-anchor="middle" x="161.5" y="-219.5" font-family="Helvetica,sans-Serif" font-size="10.00"> pOutput_</text>
</g>
</g>
</svg>
