<?xml version="1.0" encoding="UTF-8" standalone="no"?>
<!DOCTYPE svg PUBLIC "-//W3C//DTD SVG 1.1//EN"
 "http://www.w3.org/Graphics/SVG/1.1/DTD/svg11.dtd">
<!-- Generated by graphviz version 3.0.0 (20221109.1736)
 -->
<!-- Title: J3DJoint Pages: 1 -->
<svg width="1617pt" height="663pt"
 viewBox="0.00 0.00 1617.00 663.00" xmlns="http://www.w3.org/2000/svg" xmlns:xlink="http://www.w3.org/1999/xlink">
<g id="graph0" class="graph" transform="scale(1 1) rotate(0) translate(4 659)">
<title>J3DJoint</title>
<polygon fill="white" stroke="transparent" points="-4,4 -4,-659 1613,-659 1613,4 -4,4"/>
<!-- Node1 -->
<g id="node1" class="node">
<title>Node1</title>
<g id="a_node1"><a xlink:title=" ">
<polygon fill="#bfbfbf" stroke="black" points="961.5,-497.5 961.5,-516.5 1016.5,-516.5 1016.5,-497.5 961.5,-497.5"/>
<text text-anchor="middle" x="989" y="-504.5" font-family="Helvetica,sans-Serif" font-size="10.00">J3DJoint</text>
</a>
</g>
</g>
<!-- Node1&#45;&gt;Node1 -->
<g id="edge12" class="edge">
<title>Node1&#45;&gt;Node1</title>
<path fill="none" stroke="#9a32cd" stroke-dasharray="5,2" d="M969.37,-526.4C970.68,-531.31 977.23,-535 989,-535 1007.84,-535 1013.29,-525.57 1005.34,-516.76"/>
<polygon fill="#9a32cd" stroke="#9a32cd" points="972.74,-527.35 972.66,-516.76 966.12,-525.09 972.74,-527.35"/>
<text text-anchor="middle" x="989" y="-560" font-family="Helvetica,sans-Serif" font-size="10.00"> mCallBack</text>
<text text-anchor="middle" x="989" y="-549" font-family="Helvetica,sans-Serif" font-size="10.00">mChild</text>
<text text-anchor="middle" x="989" y="-538" font-family="Helvetica,sans-Serif" font-size="10.00">mYounger</text>
</g>
<!-- Node2 -->
<g id="node2" class="node">
<title>Node2</title>
<g id="a_node2"><a xlink:href="structJ3DMtxCalc.html" target="_top" xlink:title=" ">
<polygon fill="white" stroke="black" points="1180,-596.5 1180,-615.5 1249,-615.5 1249,-596.5 1180,-596.5"/>
<text text-anchor="middle" x="1214.5" y="-603.5" font-family="Helvetica,sans-Serif" font-size="10.00">J3DMtxCalc</text>
</a>
</g>
</g>
<!-- Node1&#45;&gt;Node2 -->
<g id="edge2" class="edge">
<title>Node1&#45;&gt;Node2</title>
<path fill="none" stroke="#9a32cd" stroke-dasharray="5,2" d="M1001.56,-525C1013.37,-541.81 1033.31,-566.18 1057,-579 1095.55,-599.87 1146.59,-605.23 1179.73,-606.3"/>
<polygon fill="#9a32cd" stroke="#9a32cd" points="1004.35,-522.89 995.86,-516.56 998.55,-526.81 1004.35,-522.89"/>
<text text-anchor="middle" x="1101.5" y="-606" font-family="Helvetica,sans-Serif" font-size="10.00"> mJoint</text>
</g>
<!-- Node4 -->
<g id="node4" class="node">
<title>Node4</title>
<g id="a_node4"><a xlink:href="structJ3DJointTree.html" target="_top" xlink:title=" ">
<polygon fill="white" stroke="black" points="1372,-556.5 1372,-575.5 1446,-575.5 1446,-556.5 1372,-556.5"/>
<text text-anchor="middle" x="1409" y="-563.5" font-family="Helvetica,sans-Serif" font-size="10.00">J3DJointTree</text>
</a>
</g>
</g>
<!-- Node1&#45;&gt;Node4 -->
<g id="edge6" class="edge">
<title>Node1&#45;&gt;Node4</title>
<path fill="none" stroke="#9a32cd" stroke-dasharray="5,2" d="M1027.02,-507.42C1080.09,-508.54 1180.69,-512.58 1265,-527 1305.33,-533.9 1350.73,-547.27 1379.34,-556.42"/>
<polygon fill="#9a32cd" stroke="#9a32cd" points="1026.82,-503.92 1016.75,-507.23 1026.69,-510.92 1026.82,-503.92"/>
<text text-anchor="middle" x="1214.5" y="-541" font-family="Helvetica,sans-Serif" font-size="10.00"> mJointNodePointer</text>
<text text-anchor="middle" x="1214.5" y="-530" font-family="Helvetica,sans-Serif" font-size="10.00">mRootNode</text>
</g>
<!-- Node14 -->
<g id="node14" class="node">
<title>Node14</title>
<g id="a_node14"><a xlink:href="structJ3DMaterial.html" target="_top" xlink:title=" ">
<polygon fill="white" stroke="black" points="1180.5,-313.5 1180.5,-332.5 1248.5,-332.5 1248.5,-313.5 1180.5,-313.5"/>
<text text-anchor="middle" x="1214.5" y="-320.5" font-family="Helvetica,sans-Serif" font-size="10.00">J3DMaterial</text>
</a>
</g>
</g>
<!-- Node1&#45;&gt;Node14 -->
<g id="edge33" class="edge">
<title>Node1&#45;&gt;Node14</title>
<path fill="none" stroke="#9a32cd" stroke-dasharray="5,2" d="M1026.77,-499.68C1071.45,-490.64 1141.49,-475.98 1146,-472 1163.71,-456.37 1154.7,-443.71 1164,-422 1178.37,-388.44 1198.68,-350.16 1208.19,-332.66"/>
<polygon fill="#9a32cd" stroke="#9a32cd" points="1025.94,-496.27 1016.83,-501.68 1027.32,-503.13 1025.94,-496.27"/>
<text text-anchor="middle" x="1101.5" y="-495" font-family="Helvetica,sans-Serif" font-size="10.00"> mJoint</text>
</g>
<!-- Node2&#45;&gt;Node1 -->
<g id="edge1" class="edge">
<title>Node2&#45;&gt;Node1</title>
<path fill="none" stroke="#9a32cd" stroke-dasharray="5,2" d="M1170.55,-591.71C1168.24,-590.27 1166.04,-588.71 1164,-587 1152.09,-577 1158.41,-566.37 1146,-557 1113.31,-532.31 1095.93,-545.76 1057,-533 1042.06,-528.1 1025.6,-521.73 1012.73,-516.52"/>
<polygon fill="#9a32cd" stroke="#9a32cd" points="1169.38,-595.04 1179.86,-596.59 1172.64,-588.85 1169.38,-595.04"/>
<text text-anchor="middle" x="1101.5" y="-571" font-family="Helvetica,sans-Serif" font-size="10.00"> mCurrentMtxCalc</text>
<text text-anchor="middle" x="1101.5" y="-560" font-family="Helvetica,sans-Serif" font-size="10.00">mMtxCalc</text>
</g>
<!-- Node2&#45;&gt;Node4 -->
<g id="edge7" class="edge">
<title>Node2&#45;&gt;Node4</title>
<path fill="none" stroke="#9a32cd" stroke-dasharray="5,2" d="M1259.16,-596.93C1293.22,-589.85 1339.95,-580.14 1371.91,-573.5"/>
<polygon fill="#9a32cd" stroke="#9a32cd" points="1258.11,-593.57 1249.03,-599.03 1259.53,-600.42 1258.11,-593.57"/>
<text text-anchor="middle" x="1318.5" y="-594" font-family="Helvetica,sans-Serif" font-size="10.00"> mBasicMtxCalc</text>
</g>
<!-- Node3 -->
<g id="node3" class="node">
<title>Node3</title>
<g id="a_node3"><a xlink:href="classJ3DMtxBuffer.html" target="_top" xlink:title=" ">
<polygon fill="white" stroke="black" points="1534,-589.5 1534,-608.5 1609,-608.5 1609,-589.5 1534,-589.5"/>
<text text-anchor="middle" x="1571.5" y="-596.5" font-family="Helvetica,sans-Serif" font-size="10.00">J3DMtxBuffer</text>
</a>
</g>
</g>
<!-- Node3&#45;&gt;Node2 -->
<g id="edge3" class="edge">
<title>Node3&#45;&gt;Node2</title>
<path fill="none" stroke="#9a32cd" stroke-dasharray="5,2" d="M1523.74,-601.69C1521.12,-601.8 1518.53,-601.91 1516,-602 1419.28,-605.56 1304.95,-606.06 1249.31,-606.07"/>
<polygon fill="#9a32cd" stroke="#9a32cd" points="1524.04,-605.17 1533.86,-601.2 1523.71,-598.18 1524.04,-605.17"/>
<text text-anchor="middle" x="1409" y="-608" font-family="Helvetica,sans-Serif" font-size="10.00"> mMtxBuffer</text>
</g>
<!-- Node4&#45;&gt;Node3 -->
<g id="edge4" class="edge">
<title>Node4&#45;&gt;Node3</title>
<path fill="none" stroke="#9a32cd" stroke-dasharray="5,2" d="M1455.89,-575.44C1480.59,-580.51 1510.63,-586.69 1533.77,-591.45"/>
<polygon fill="#9a32cd" stroke="#9a32cd" points="1456.52,-571.99 1446.02,-573.41 1455.11,-578.85 1456.52,-571.99"/>
<text text-anchor="middle" x="1490" y="-590" font-family="Helvetica,sans-Serif" font-size="10.00"> mJointTree</text>
</g>
<!-- Node5 -->
<g id="node5" class="node">
<title>Node5</title>
<g id="a_node5"><a xlink:href="structJ3DModelHierarchy.html" target="_top" xlink:title=" ">
<polygon fill="white" stroke="black" points="1164,-558.5 1164,-577.5 1265,-577.5 1265,-558.5 1164,-558.5"/>
<text text-anchor="middle" x="1214.5" y="-565.5" font-family="Helvetica,sans-Serif" font-size="10.00">J3DModelHierarchy</text>
</a>
</g>
</g>
<!-- Node5&#45;&gt;Node4 -->
<g id="edge5" class="edge">
<title>Node5&#45;&gt;Node4</title>
<path fill="none" stroke="#9a32cd" stroke-dasharray="5,2" d="M1275.3,-560.53C1277.9,-560.33 1280.47,-560.15 1283,-560 1314.5,-558.14 1322.49,-558.25 1354,-560 1359.75,-560.32 1365.82,-560.83 1371.74,-561.41"/>
<polygon fill="#9a32cd" stroke="#9a32cd" points="1274.85,-557.06 1265.21,-561.44 1275.48,-564.03 1274.85,-557.06"/>
<text text-anchor="middle" x="1318.5" y="-563" font-family="Helvetica,sans-Serif" font-size="10.00"> mHierarchy</text>
</g>
<!-- Node6 -->
<g id="node6" class="node">
<title>Node6</title>
<g id="a_node6"><a xlink:href="structJ3DDrawMtxData.html" target="_top" xlink:title=" ">
<polygon fill="white" stroke="black" points="1168.5,-431.5 1168.5,-450.5 1260.5,-450.5 1260.5,-431.5 1168.5,-431.5"/>
<text text-anchor="middle" x="1214.5" y="-438.5" font-family="Helvetica,sans-Serif" font-size="10.00">J3DDrawMtxData</text>
</a>
</g>
</g>
<!-- Node6&#45;&gt;Node4 -->
<g id="edge8" class="edge">
<title>Node6&#45;&gt;Node4</title>
<path fill="none" stroke="#9a32cd" stroke-dasharray="5,2" d="M1269.05,-453.31C1296.35,-461.43 1328.99,-474.12 1354,-493 1377.15,-510.47 1394.92,-540.54 1403.08,-556.07"/>
<polygon fill="#9a32cd" stroke="#9a32cd" points="1269.83,-449.89 1259.25,-450.52 1267.91,-456.62 1269.83,-449.89"/>
<text text-anchor="middle" x="1318.5" y="-496" font-family="Helvetica,sans-Serif" font-size="10.00"> mDrawMtxData</text>
</g>
<!-- Node15 -->
<g id="node15" class="node">
<title>Node15</title>
<g id="a_node15"><a xlink:href="classJ3DShape.html" target="_top" xlink:title=" ">
<polygon fill="white" stroke="black" points="1378,-204.5 1378,-223.5 1440,-223.5 1440,-204.5 1378,-204.5"/>
<text text-anchor="middle" x="1409" y="-211.5" font-family="Helvetica,sans-Serif" font-size="10.00">J3DShape</text>
</a>
</g>
</g>
<!-- Node6&#45;&gt;Node15 -->
<g id="edge32" class="edge">
<title>Node6&#45;&gt;Node15</title>
<path fill="none" stroke="#9a32cd" stroke-dasharray="5,2" d="M1242.38,-426.29C1272.93,-408.42 1322.61,-375.67 1354,-336 1382.75,-299.67 1399.54,-245.64 1405.51,-223.74"/>
<polygon fill="#9a32cd" stroke="#9a32cd" points="1240.49,-423.34 1233.56,-431.35 1243.97,-429.41 1240.49,-423.34"/>
<text text-anchor="middle" x="1318.5" y="-402" font-family="Helvetica,sans-Serif" font-size="10.00"> mDrawMtxData</text>
</g>
<!-- Node7 -->
<g id="node7" class="node">
<title>Node7</title>
<g id="a_node7"><a xlink:href="structJUTNameTab.html" target="_top" xlink:title=" ">
<polygon fill="white" stroke="black" points="322,-403.5 322,-422.5 400,-422.5 400,-403.5 322,-403.5"/>
<text text-anchor="middle" x="361" y="-410.5" font-family="Helvetica,sans-Serif" font-size="10.00">JUTNameTab</text>
</a>
</g>
</g>
<!-- Node7&#45;&gt;Node4 -->
<g id="edge9" class="edge">
<title>Node7&#45;&gt;Node4</title>
<path fill="none" stroke="#9a32cd" stroke-dasharray="5,2" d="M367.12,-432.32C383.12,-487.86 437.7,-644 545.5,-644 545.5,-644 545.5,-644 1215.5,-644 1279.33,-644 1296.6,-633.92 1354,-606 1370.58,-597.94 1387.26,-584.59 1397.61,-575.55"/>
<polygon fill="#9a32cd" stroke="#9a32cd" points="370.48,-431.33 364.43,-422.63 363.73,-433.2 370.48,-431.33"/>
<text text-anchor="middle" x="882.5" y="-647" font-family="Helvetica,sans-Serif" font-size="10.00"> mJointName</text>
</g>
<!-- Node32 -->
<g id="node32" class="node">
<title>Node32</title>
<g id="a_node32"><a xlink:href="classJ3DAnmColor.html" target="_top" xlink:title=" ">
<polygon fill="white" stroke="black" points="508,-270.5 508,-289.5 585,-289.5 585,-270.5 508,-270.5"/>
<text text-anchor="middle" x="546.5" y="-277.5" font-family="Helvetica,sans-Serif" font-size="10.00">J3DAnmColor</text>
</a>
</g>
</g>
<!-- Node7&#45;&gt;Node32 -->
<g id="edge43" class="edge">
<title>Node7&#45;&gt;Node32</title>
<path fill="none" stroke="#9a32cd" stroke-dasharray="5,2" d="M375.01,-395.28C394.94,-369.55 435.64,-322.38 482,-299 490.01,-294.96 499.04,-291.62 507.72,-288.92"/>
<polygon fill="#9a32cd" stroke="#9a32cd" points="372.1,-393.33 368.85,-403.41 377.68,-397.55 372.1,-393.33"/>
<text text-anchor="middle" x="441" y="-347" font-family="Helvetica,sans-Serif" font-size="10.00"> field_0x1c</text>
</g>
<!-- Node35 -->
<g id="node35" class="node">
<title>Node35</title>
<g id="a_node35"><a xlink:href="structJ3DAnmTextureSRTKey.html" target="_top" xlink:title=" ">
<polygon fill="white" stroke="black" points="485.5,-308.5 485.5,-327.5 607.5,-327.5 607.5,-308.5 485.5,-308.5"/>
<text text-anchor="middle" x="546.5" y="-315.5" font-family="Helvetica,sans-Serif" font-size="10.00">J3DAnmTextureSRTKey</text>
</a>
</g>
</g>
<!-- Node7&#45;&gt;Node35 -->
<g id="edge47" class="edge">
<title>Node7&#45;&gt;Node35</title>
<path fill="none" stroke="#9a32cd" stroke-dasharray="5,2" d="M389.58,-398.72C427.52,-379.08 494.77,-344.26 527.12,-327.52"/>
<polygon fill="#9a32cd" stroke="#9a32cd" points="387.88,-395.66 380.6,-403.37 391.09,-401.88 387.88,-395.66"/>
<text text-anchor="middle" x="441" y="-396" font-family="Helvetica,sans-Serif" font-size="10.00"> field_0x30</text>
<text text-anchor="middle" x="441" y="-385" font-family="Helvetica,sans-Serif" font-size="10.00">field_0x64</text>
</g>
<!-- Node37 -->
<g id="node37" class="node">
<title>Node37</title>
<g id="a_node37"><a xlink:href="structJ3DAnmTexPattern.html" target="_top" xlink:title=" ">
<polygon fill="white" stroke="black" points="496,-384.5 496,-403.5 597,-403.5 597,-384.5 496,-384.5"/>
<text text-anchor="middle" x="546.5" y="-391.5" font-family="Helvetica,sans-Serif" font-size="10.00">J3DAnmTexPattern</text>
</a>
</g>
</g>
<!-- Node7&#45;&gt;Node37 -->
<g id="edge51" class="edge">
<title>Node7&#45;&gt;Node37</title>
<path fill="none" stroke="#9a32cd" stroke-dasharray="5,2" d="M410.32,-413.92C412.92,-413.95 415.49,-413.98 418,-414 438.44,-414.18 443.7,-416.45 464,-414 480.78,-411.97 499.08,-407.67 514.09,-403.58"/>
<polygon fill="#9a32cd" stroke="#9a32cd" points="410.3,-410.42 400.26,-413.77 410.21,-417.42 410.3,-410.42"/>
<text text-anchor="middle" x="441" y="-418" font-family="Helvetica,sans-Serif" font-size="10.00"> field_0x1c</text>
</g>
<!-- Node8 -->
<g id="node8" class="node">
<title>Node8</title>
<g id="a_node8"><a xlink:href="structResNTAB.html" target="_top" xlink:title=" ">
<polygon fill="white" stroke="black" points="164,-403.5 164,-422.5 225,-422.5 225,-403.5 164,-403.5"/>
<text text-anchor="middle" x="194.5" y="-410.5" font-family="Helvetica,sans-Serif" font-size="10.00">ResNTAB</text>
</a>
</g>
</g>
<!-- Node8&#45;&gt;Node7 -->
<g id="edge10" class="edge">
<title>Node8&#45;&gt;Node7</title>
<path fill="none" stroke="#9a32cd" stroke-dasharray="5,2" d="M235.29,-413C261.56,-413 295.78,-413 321.73,-413"/>
<polygon fill="#9a32cd" stroke="#9a32cd" points="235.29,-409.5 225.29,-413 235.29,-416.5 235.29,-409.5"/>
<text text-anchor="middle" x="273.5" y="-416" font-family="Helvetica,sans-Serif" font-size="10.00"> mNameTable</text>
</g>
<!-- Node9 -->
<g id="node9" class="node">
<title>Node9</title>
<g id="a_node9"><a xlink:href="structResNTAB_1_1Entry.html" target="_top" xlink:title=" ">
<polygon fill="white" stroke="black" points="0,-403.5 0,-422.5 87,-422.5 87,-403.5 0,-403.5"/>
<text text-anchor="middle" x="43.5" y="-410.5" font-family="Helvetica,sans-Serif" font-size="10.00">ResNTAB::Entry</text>
</a>
</g>
</g>
<!-- Node9&#45;&gt;Node8 -->
<g id="edge11" class="edge">
<title>Node9&#45;&gt;Node8</title>
<path fill="none" stroke="#9a32cd" stroke-dasharray="5,2" d="M97.49,-413C119.68,-413 144.65,-413 163.56,-413"/>
<polygon fill="#9a32cd" stroke="#9a32cd" points="97.2,-409.5 87.2,-413 97.2,-416.5 97.2,-409.5"/>
<text text-anchor="middle" x="125.5" y="-416" font-family="Helvetica,sans-Serif" font-size="10.00"> mEntries</text>
</g>
<!-- Node10 -->
<g id="node10" class="node">
<title>Node10</title>
<g id="a_node10"><a xlink:href="structJ3DTransformInfo.html" target="_top" xlink:title=" ">
<polygon fill="white" stroke="black" points="728.5,-497.5 728.5,-516.5 823.5,-516.5 823.5,-497.5 728.5,-497.5"/>
<text text-anchor="middle" x="776" y="-504.5" font-family="Helvetica,sans-Serif" font-size="10.00">J3DTransformInfo</text>
</a>
</g>
</g>
<!-- Node10&#45;&gt;Node1 -->
<g id="edge13" class="edge">
<title>Node10&#45;&gt;Node1</title>
<path fill="none" stroke="#9a32cd" stroke-dasharray="5,2" d="M833.81,-507C875.29,-507 929.64,-507 961.49,-507"/>
<polygon fill="#9a32cd" stroke="#9a32cd" points="833.57,-503.5 823.57,-507 833.57,-510.5 833.57,-503.5"/>
<text text-anchor="middle" x="882.5" y="-510" font-family="Helvetica,sans-Serif" font-size="10.00"> mTransformInfo</text>
</g>
<!-- Node11 -->
<g id="node11" class="node">
<title>Node11</title>
<g id="a_node11"><a xlink:href="structJGeometry_1_1TVec3_3_01f32_01_4.html" target="_top" xlink:title=" ">
<polygon fill="white" stroke="black" points="483,-475.5 483,-494.5 610,-494.5 610,-475.5 483,-475.5"/>
<text text-anchor="middle" x="546.5" y="-482.5" font-family="Helvetica,sans-Serif" font-size="10.00">JGeometry::TVec3&lt; f32 &gt;</text>
</a>
</g>
</g>
<!-- Node11&#45;&gt;Node10 -->
<g id="edge14" class="edge">
<title>Node11&#45;&gt;Node10</title>
<path fill="none" stroke="#9a32cd" stroke-dasharray="5,2" d="M620.69,-480.9C648.21,-480.55 679.68,-481.58 708,-486 722.45,-488.26 738.08,-493.01 750.6,-497.43"/>
<polygon fill="#9a32cd" stroke="#9a32cd" points="620.28,-477.4 610.35,-481.09 620.41,-484.4 620.28,-477.4"/>
<text text-anchor="middle" x="668.5" y="-500" font-family="Helvetica,sans-Serif" font-size="10.00"> mScale</text>
<text text-anchor="middle" x="668.5" y="-489" font-family="Helvetica,sans-Serif" font-size="10.00">mTranslate</text>
</g>
<!-- Node12 -->
<g id="node12" class="node">
<title>Node12</title>
<g id="a_node12"><a xlink:href="structJGeometry_1_1TVec3_3_01s16_01_4.html" target="_top" xlink:title=" ">
<polygon fill="white" stroke="black" points="482,-520.5 482,-539.5 611,-539.5 611,-520.5 482,-520.5"/>
<text text-anchor="middle" x="546.5" y="-527.5" font-family="Helvetica,sans-Serif" font-size="10.00">JGeometry::TVec3&lt; s16 &gt;</text>
</a>
</g>
</g>
<!-- Node12&#45;&gt;Node10 -->
<g id="edge15" class="edge">
<title>Node12&#45;&gt;Node10</title>
<path fill="none" stroke="#9a32cd" stroke-dasharray="5,2" d="M621.4,-522.53C656.56,-518.97 697.54,-514.83 728.32,-511.72"/>
<polygon fill="#9a32cd" stroke="#9a32cd" points="620.77,-519.07 611.17,-523.56 621.48,-526.04 620.77,-519.07"/>
<text text-anchor="middle" x="668.5" y="-524" font-family="Helvetica,sans-Serif" font-size="10.00"> mRotation</text>
</g>
<!-- Node13 -->
<g id="node13" class="node">
<title>Node13</title>
<g id="a_node13"><a xlink:href="structVec.html" target="_top" xlink:title=" ">
<polygon fill="white" stroke="black" points="759,-346.5 759,-365.5 793,-365.5 793,-346.5 759,-346.5"/>
<text text-anchor="middle" x="776" y="-353.5" font-family="Helvetica,sans-Serif" font-size="10.00">Vec</text>
</a>
</g>
</g>
<!-- Node13&#45;&gt;Node1 -->
<g id="edge16" class="edge">
<title>Node13&#45;&gt;Node1</title>
<path fill="none" stroke="#9a32cd" stroke-dasharray="5,2" d="M803.06,-360.41C834.92,-367.08 888.58,-382.7 921,-416 936.03,-431.44 926.86,-443.21 939,-461 948.86,-475.46 963.99,-488.77 974.83,-497.31"/>
<polygon fill="#9a32cd" stroke="#9a32cd" points="803.64,-356.95 793.16,-358.47 802.3,-363.82 803.64,-356.95"/>
<text text-anchor="middle" x="882.5" y="-430" font-family="Helvetica,sans-Serif" font-size="10.00"> mMax</text>
<text text-anchor="middle" x="882.5" y="-419" font-family="Helvetica,sans-Serif" font-size="10.00">mMin</text>
</g>
<!-- Node13&#45;&gt;Node15 -->
<g id="edge21" class="edge">
<title>Node13&#45;&gt;Node15</title>
<path fill="none" stroke="#9a32cd" stroke-dasharray="5,2" d="M802.96,-351.47C811.53,-348.69 820.32,-344.21 826,-337 863.18,-289.8 800.47,-244.43 844,-203 920.89,-129.83 1271.89,-188.45 1377.71,-208.14"/>
<polygon fill="#9a32cd" stroke="#9a32cd" points="801.99,-348.11 793.2,-354.01 803.76,-354.88 801.99,-348.11"/>
<text text-anchor="middle" x="1101.5" y="-189" font-family="Helvetica,sans-Serif" font-size="10.00"> mMax</text>
<text text-anchor="middle" x="1101.5" y="-178" font-family="Helvetica,sans-Serif" font-size="10.00">mMin</text>
</g>
<!-- Node14&#45;&gt;Node1 -->
<g id="edge17" class="edge">
<title>Node14&#45;&gt;Node1</title>
<path fill="none" stroke="#9a32cd" stroke-dasharray="5,2" d="M1207.35,-342.54C1198.2,-368.37 1178.5,-413.47 1146,-438 1113.39,-462.61 1094.18,-444.07 1057,-461 1035.94,-470.59 1014.37,-486.77 1001.58,-497.16"/>
<polygon fill="#9a32cd" stroke="#9a32cd" points="1210.77,-343.36 1210.64,-332.76 1204.13,-341.13 1210.77,-343.36"/>
<text text-anchor="middle" x="1101.5" y="-464" font-family="Helvetica,sans-Serif" font-size="10.00"> mMesh</text>
</g>
<!-- Node14&#45;&gt;Node14 -->
<g id="edge18" class="edge">
<title>Node14&#45;&gt;Node14</title>
<path fill="none" stroke="#9a32cd" stroke-dasharray="5,2" d="M1195.24,-342.4C1196.53,-347.31 1202.95,-351 1214.5,-351 1232.98,-351 1238.33,-341.57 1230.53,-332.76"/>
<polygon fill="#9a32cd" stroke="#9a32cd" points="1198.61,-343.35 1198.47,-332.76 1191.98,-341.13 1198.61,-343.35"/>
<text text-anchor="middle" x="1214.5" y="-365" font-family="Helvetica,sans-Serif" font-size="10.00"> mNext</text>
<text text-anchor="middle" x="1214.5" y="-354" font-family="Helvetica,sans-Serif" font-size="10.00">mpOrigMaterial</text>
</g>
<!-- Node14&#45;&gt;Node15 -->
<g id="edge20" class="edge">
<title>Node14&#45;&gt;Node15</title>
<path fill="none" stroke="#9a32cd" stroke-dasharray="5,2" d="M1259.05,-324.3C1288.15,-323.17 1326.06,-317.63 1354,-299 1382.07,-280.28 1398.51,-241.47 1404.9,-223.51"/>
<polygon fill="#9a32cd" stroke="#9a32cd" points="1258.68,-320.81 1248.76,-324.54 1258.84,-327.81 1258.68,-320.81"/>
<text text-anchor="middle" x="1318.5" y="-324" font-family="Helvetica,sans-Serif" font-size="10.00"> mMaterial</text>
</g>
<!-- Node15&#45;&gt;Node14 -->
<g id="edge19" class="edge">
<title>Node15&#45;&gt;Node14</title>
<path fill="none" stroke="#9a32cd" stroke-dasharray="5,2" d="M1389.75,-230.51C1379.68,-239.1 1366.67,-249.37 1354,-257 1324.5,-274.76 1314.08,-273.18 1283,-288 1265.84,-296.18 1246.63,-306.23 1233.1,-313.46"/>
<polygon fill="#9a32cd" stroke="#9a32cd" points="1392.22,-233 1397.45,-223.79 1387.62,-227.73 1392.22,-233"/>
<text text-anchor="middle" x="1318.5" y="-291" font-family="Helvetica,sans-Serif" font-size="10.00"> mShape</text>
</g>
<!-- Node16 -->
<g id="node16" class="node">
<title>Node16</title>
<g id="a_node16"><a xlink:href="struct__GXVtxDescList.html" target="_top" xlink:title=" ">
<polygon fill="white" stroke="black" points="1057,-0.5 1057,-19.5 1146,-19.5 1146,-0.5 1057,-0.5"/>
<text text-anchor="middle" x="1101.5" y="-7.5" font-family="Helvetica,sans-Serif" font-size="10.00">_GXVtxDescList</text>
</a>
</g>
</g>
<!-- Node16&#45;&gt;Node15 -->
<g id="edge22" class="edge">
<title>Node16&#45;&gt;Node15</title>
<path fill="none" stroke="#9a32cd" stroke-dasharray="5,2" d="M1156.66,-4.55C1213.24,-2.01 1300.99,-7.47 1354,-57 1398.02,-98.13 1406.16,-176.75 1407.66,-204.23"/>
<polygon fill="#9a32cd" stroke="#9a32cd" points="1156.27,-1.06 1146.48,-5.1 1156.66,-8.05 1156.27,-1.06"/>
<text text-anchor="middle" x="1214.5" y="-16" font-family="Helvetica,sans-Serif" font-size="10.00"> mVtxDesc</text>
</g>
<!-- Node17 -->
<g id="node17" class="node">
<title>Node17</title>
<g id="a_node17"><a xlink:href="struct__GXAttr.html" target="_top" xlink:title=" ">
<polygon fill="white" stroke="black" points="750,-17.5 750,-36.5 802,-36.5 802,-17.5 750,-17.5"/>
<text text-anchor="middle" x="776" y="-24.5" font-family="Helvetica,sans-Serif" font-size="10.00">_GXAttr</text>
</a>
</g>
</g>
<!-- Node17&#45;&gt;Node16 -->
<g id="edge23" class="edge">
<title>Node17&#45;&gt;Node16</title>
<path fill="none" stroke="#9a32cd" stroke-dasharray="5,2" d="M812.3,-22.22C822.51,-20.99 833.68,-19.8 844,-19 918.64,-13.24 1005.78,-11.17 1056.87,-10.42"/>
<polygon fill="#9a32cd" stroke="#9a32cd" points="811.57,-18.79 802.09,-23.5 812.44,-25.73 811.57,-18.79"/>
<text text-anchor="middle" x="882.5" y="-22" font-family="Helvetica,sans-Serif" font-size="10.00"> attr</text>
</g>
<!-- Node23 -->
<g id="node23" class="node">
<title>Node23</title>
<g id="a_node23"><a xlink:href="struct__GXVtxAttrFmtList.html" target="_top" xlink:title=" ">
<polygon fill="white" stroke="black" points="939,-36.5 939,-55.5 1039,-55.5 1039,-36.5 939,-36.5"/>
<text text-anchor="middle" x="989" y="-43.5" font-family="Helvetica,sans-Serif" font-size="10.00">_GXVtxAttrFmtList</text>
</a>
</g>
</g>
<!-- Node17&#45;&gt;Node23 -->
<g id="edge30" class="edge">
<title>Node17&#45;&gt;Node23</title>
<path fill="none" stroke="#9a32cd" stroke-dasharray="5,2" d="M812.16,-30.17C846.84,-33.29 900.14,-38.09 938.97,-41.59"/>
<polygon fill="#9a32cd" stroke="#9a32cd" points="812.31,-26.67 802.03,-29.25 811.68,-33.64 812.31,-26.67"/>
<text text-anchor="middle" x="882.5" y="-43" font-family="Helvetica,sans-Serif" font-size="10.00"> mAttrib</text>
</g>
<!-- Node18 -->
<g id="node18" class="node">
<title>Node18</title>
<g id="a_node18"><a xlink:href="structJ3DShapeMtx.html" target="_top" xlink:title=" ">
<polygon fill="white" stroke="black" points="1176,-242.5 1176,-261.5 1253,-261.5 1253,-242.5 1176,-242.5"/>
<text text-anchor="middle" x="1214.5" y="-249.5" font-family="Helvetica,sans-Serif" font-size="10.00">J3DShapeMtx</text>
</a>
</g>
</g>
<!-- Node18&#45;&gt;Node15 -->
<g id="edge24" class="edge">
<title>Node18&#45;&gt;Node15</title>
<path fill="none" stroke="#9a32cd" stroke-dasharray="5,2" d="M1262.95,-245.4C1289.8,-241.34 1323.93,-235.65 1354,-229 1361.79,-227.28 1370.13,-225.12 1377.87,-222.98"/>
<polygon fill="#9a32cd" stroke="#9a32cd" points="1262.41,-241.94 1253.03,-246.87 1263.44,-248.86 1262.41,-241.94"/>
<text text-anchor="middle" x="1318.5" y="-245" font-family="Helvetica,sans-Serif" font-size="10.00"> mShapeMtx</text>
</g>
<!-- Node19 -->
<g id="node19" class="node">
<title>Node19</title>
<g id="a_node19"><a xlink:href="classJ3DShapeDraw.html" target="_top" xlink:title=" ">
<polygon fill="white" stroke="black" points="1172.5,-204.5 1172.5,-223.5 1256.5,-223.5 1256.5,-204.5 1172.5,-204.5"/>
<text text-anchor="middle" x="1214.5" y="-211.5" font-family="Helvetica,sans-Serif" font-size="10.00">J3DShapeDraw</text>
</a>
</g>
</g>
<!-- Node19&#45;&gt;Node15 -->
<g id="edge25" class="edge">
<title>Node19&#45;&gt;Node15</title>
<path fill="none" stroke="#9a32cd" stroke-dasharray="5,2" d="M1266.95,-214C1302.34,-214 1348.14,-214 1377.79,-214"/>
<polygon fill="#9a32cd" stroke="#9a32cd" points="1266.8,-210.5 1256.8,-214 1266.8,-217.5 1266.8,-210.5"/>
<text text-anchor="middle" x="1318.5" y="-217" font-family="Helvetica,sans-Serif" font-size="10.00"> mShapeDraw</text>
</g>
<!-- Node20 -->
<g id="node20" class="node">
<title>Node20</title>
<g id="a_node20"><a xlink:href="classJ3DCurrentMtx.html" target="_top" xlink:title=" ">
<polygon fill="white" stroke="black" points="948.5,-120.5 948.5,-139.5 1029.5,-139.5 1029.5,-120.5 948.5,-120.5"/>
<text text-anchor="middle" x="989" y="-127.5" font-family="Helvetica,sans-Serif" font-size="10.00">J3DCurrentMtx</text>
</a>
</g>
</g>
<!-- Node20&#45;&gt;Node14 -->
<g id="edge57" class="edge">
<title>Node20&#45;&gt;Node14</title>
<path fill="none" stroke="#9a32cd" stroke-dasharray="5,2" d="M1039.78,-127.65C1079.58,-126.92 1131.1,-128.92 1146,-143 1187.75,-182.46 1139,-219.28 1164,-271 1172.46,-288.51 1188.99,-303.99 1200.62,-313.41"/>
<polygon fill="#9a32cd" stroke="#9a32cd" points="1039.6,-124.16 1029.69,-127.9 1039.77,-131.15 1039.6,-124.16"/>
<text text-anchor="middle" x="1101.5" y="-146" font-family="Helvetica,sans-Serif" font-size="10.00"> mCurrentMtx</text>
</g>
<!-- Node20&#45;&gt;Node15 -->
<g id="edge26" class="edge">
<title>Node20&#45;&gt;Node15</title>
<path fill="none" stroke="#9a32cd" stroke-dasharray="5,2" d="M1039.86,-123.06C1113.12,-115.28 1252.17,-109.81 1354,-162 1373.92,-172.21 1391.45,-192.17 1400.81,-204.18"/>
<polygon fill="#9a32cd" stroke="#9a32cd" points="1039.09,-119.63 1029.54,-124.22 1039.87,-126.59 1039.09,-119.63"/>
<text text-anchor="middle" x="1214.5" y="-134" font-family="Helvetica,sans-Serif" font-size="10.00"> mCurrentMtx</text>
</g>
<!-- Node21 -->
<g id="node21" class="node">
<title>Node21</title>
<g id="a_node21"><a xlink:href="classJ3DCurrentMtxInfo.html" target="_top" xlink:title=" ">
<polygon fill="white" stroke="black" points="727,-120.5 727,-139.5 825,-139.5 825,-120.5 727,-120.5"/>
<text text-anchor="middle" x="776" y="-127.5" font-family="Helvetica,sans-Serif" font-size="10.00">J3DCurrentMtxInfo</text>
</a>
</g>
</g>
<!-- Node21&#45;&gt;Node20 -->
<g id="edge27" class="edge">
<title>Node21&#45;&gt;Node20</title>
<path fill="none" stroke="midnightblue" d="M835.48,-130C871.38,-130 916.4,-130 948.2,-130"/>
<polygon fill="midnightblue" stroke="midnightblue" points="835.14,-126.5 825.14,-130 835.14,-133.5 835.14,-126.5"/>
</g>
<!-- Node22 -->
<g id="node22" class="node">
<title>Node22</title>
<g id="a_node22"><a xlink:href="structJ3DVertexData.html" target="_top" xlink:title=" ">
<polygon fill="white" stroke="black" points="1173.5,-53.5 1173.5,-72.5 1255.5,-72.5 1255.5,-53.5 1173.5,-53.5"/>
<text text-anchor="middle" x="1214.5" y="-60.5" font-family="Helvetica,sans-Serif" font-size="10.00">J3DVertexData</text>
</a>
</g>
</g>
<!-- Node22&#45;&gt;Node15 -->
<g id="edge28" class="edge">
<title>Node22&#45;&gt;Node15</title>
<path fill="none" stroke="#9a32cd" stroke-dasharray="5,2" d="M1265.9,-59.11C1294.48,-59.51 1329.35,-64.72 1354,-84 1393.46,-114.87 1404.35,-179.66 1407.12,-204.25"/>
<polygon fill="#9a32cd" stroke="#9a32cd" points="1265.66,-55.61 1255.68,-59.16 1265.7,-62.61 1265.66,-55.61"/>
<text text-anchor="middle" x="1318.5" y="-87" font-family="Helvetica,sans-Serif" font-size="10.00"> mVertexData</text>
</g>
<!-- Node23&#45;&gt;Node22 -->
<g id="edge29" class="edge">
<title>Node23&#45;&gt;Node22</title>
<path fill="none" stroke="#9a32cd" stroke-dasharray="5,2" d="M1049.36,-45.23C1078.54,-45.44 1114.2,-46.55 1146,-50 1154.9,-50.96 1164.38,-52.48 1173.33,-54.14"/>
<polygon fill="#9a32cd" stroke="#9a32cd" points="1049.33,-41.73 1039.32,-45.19 1049.31,-48.73 1049.33,-41.73"/>
<text text-anchor="middle" x="1101.5" y="-53" font-family="Helvetica,sans-Serif" font-size="10.00"> mVtxAttrFmtList</text>
</g>
<!-- Node24 -->
<g id="node24" class="node">
<title>Node24</title>
<g id="a_node24"><a xlink:href="struct__GXColor.html" target="_top" xlink:title=" ">
<polygon fill="white" stroke="black" points="959.5,-74.5 959.5,-93.5 1018.5,-93.5 1018.5,-74.5 959.5,-74.5"/>
<text text-anchor="middle" x="989" y="-81.5" font-family="Helvetica,sans-Serif" font-size="10.00">_GXColor</text>
</a>
</g>
</g>
<!-- Node24&#45;&gt;Node22 -->
<g id="edge31" class="edge">
<title>Node24&#45;&gt;Node22</title>
<path fill="none" stroke="#9a32cd" stroke-dasharray="5,2" d="M1028.77,-80.36C1069.16,-76.56 1132.16,-70.64 1173.13,-66.79"/>
<polygon fill="#9a32cd" stroke="#9a32cd" points="1028.39,-76.88 1018.76,-81.3 1029.04,-83.85 1028.39,-76.88"/>
<text text-anchor="middle" x="1101.5" y="-81" font-family="Helvetica,sans-Serif" font-size="10.00"> mVtxColorArray</text>
</g>
<!-- Node25 -->
<g id="node25" class="node">
<title>Node25</title>
<g id="a_node25"><a xlink:href="structJ3DColorBlock.html" target="_top" xlink:title=" ">
<polygon fill="white" stroke="black" points="948.5,-394.5 948.5,-413.5 1029.5,-413.5 1029.5,-394.5 948.5,-394.5"/>
<text text-anchor="middle" x="989" y="-401.5" font-family="Helvetica,sans-Serif" font-size="10.00">J3DColorBlock</text>
</a>
</g>
</g>
<!-- Node25&#45;&gt;Node14 -->
<g id="edge34" class="edge">
<title>Node25&#45;&gt;Node14</title>
<path fill="none" stroke="#9a32cd" stroke-dasharray="5,2" d="M1039.59,-394.57C1077.76,-386.95 1127.08,-376.16 1146,-368 1167.21,-358.85 1188.94,-342.95 1201.83,-332.71"/>
<polygon fill="#9a32cd" stroke="#9a32cd" points="1038.78,-391.17 1029.65,-396.54 1040.14,-398.03 1038.78,-391.17"/>
<text text-anchor="middle" x="1101.5" y="-393" font-family="Helvetica,sans-Serif" font-size="10.00"> mColorBlock</text>
</g>
<!-- Node26 -->
<g id="node26" class="node">
<title>Node26</title>
<g id="a_node26"><a xlink:href="structJ3DTexGenBlock.html" target="_top" xlink:title=" ">
<polygon fill="white" stroke="black" points="943,-356.5 943,-375.5 1035,-375.5 1035,-356.5 943,-356.5"/>
<text text-anchor="middle" x="989" y="-363.5" font-family="Helvetica,sans-Serif" font-size="10.00">J3DTexGenBlock</text>
</a>
</g>
</g>
<!-- Node26&#45;&gt;Node14 -->
<g id="edge35" class="edge">
<title>Node26&#45;&gt;Node14</title>
<path fill="none" stroke="#9a32cd" stroke-dasharray="5,2" d="M1044.88,-355.45C1074.78,-349.7 1112.42,-342.46 1146,-336 1157.13,-333.86 1169.3,-331.51 1180.2,-329.42"/>
<polygon fill="#9a32cd" stroke="#9a32cd" points="1044.22,-352.01 1035.06,-357.34 1045.54,-358.89 1044.22,-352.01"/>
<text text-anchor="middle" x="1101.5" y="-356" font-family="Helvetica,sans-Serif" font-size="10.00"> mTexGenBlock</text>
</g>
<!-- Node27 -->
<g id="node27" class="node">
<title>Node27</title>
<g id="a_node27"><a xlink:href="structJ3DTevBlock.html" target="_top" xlink:title=" ">
<polygon fill="white" stroke="black" points="951.5,-318.5 951.5,-337.5 1026.5,-337.5 1026.5,-318.5 951.5,-318.5"/>
<text text-anchor="middle" x="989" y="-325.5" font-family="Helvetica,sans-Serif" font-size="10.00">J3DTevBlock</text>
</a>
</g>
</g>
<!-- Node27&#45;&gt;Node14 -->
<g id="edge36" class="edge">
<title>Node27&#45;&gt;Node14</title>
<path fill="none" stroke="#9a32cd" stroke-dasharray="5,2" d="M1036.93,-325.71C1043.66,-325.43 1050.51,-325.19 1057,-325 1099.51,-323.78 1148.53,-323.3 1180.22,-323.12"/>
<polygon fill="#9a32cd" stroke="#9a32cd" points="1036.35,-322.23 1026.5,-326.15 1036.64,-329.22 1036.35,-322.23"/>
<text text-anchor="middle" x="1101.5" y="-328" font-family="Helvetica,sans-Serif" font-size="10.00"> mTevBlock</text>
</g>
<!-- Node28 -->
<g id="node28" class="node">
<title>Node28</title>
<g id="a_node28"><a xlink:href="classJ3DIndBlock.html" target="_top" xlink:title=" ">
<polygon fill="white" stroke="black" points="953,-280.5 953,-299.5 1025,-299.5 1025,-280.5 953,-280.5"/>
<text text-anchor="middle" x="989" y="-287.5" font-family="Helvetica,sans-Serif" font-size="10.00">J3DIndBlock</text>
</a>
</g>
</g>
<!-- Node28&#45;&gt;Node14 -->
<g id="edge37" class="edge">
<title>Node28&#45;&gt;Node14</title>
<path fill="none" stroke="#9a32cd" stroke-dasharray="5,2" d="M1035.29,-293.97C1066.52,-297.02 1108.92,-301.76 1146,-308 1157.25,-309.89 1169.44,-312.45 1180.33,-314.91"/>
<polygon fill="#9a32cd" stroke="#9a32cd" points="1035.44,-290.47 1025.15,-293.01 1034.77,-297.44 1035.44,-290.47"/>
<text text-anchor="middle" x="1101.5" y="-311" font-family="Helvetica,sans-Serif" font-size="10.00"> mIndBlock</text>
</g>
<!-- Node29 -->
<g id="node29" class="node">
<title>Node29</title>
<g id="a_node29"><a xlink:href="structJ3DPEBlock.html" target="_top" xlink:title=" ">
<polygon fill="white" stroke="black" points="953.5,-242.5 953.5,-261.5 1024.5,-261.5 1024.5,-242.5 953.5,-242.5"/>
<text text-anchor="middle" x="989" y="-249.5" font-family="Helvetica,sans-Serif" font-size="10.00">J3DPEBlock</text>
</a>
</g>
</g>
<!-- Node29&#45;&gt;Node14 -->
<g id="edge38" class="edge">
<title>Node29&#45;&gt;Node14</title>
<path fill="none" stroke="#9a32cd" stroke-dasharray="5,2" d="M1035.12,-255.9C1066.94,-259.71 1110.12,-267.08 1146,-281 1166.84,-289.09 1188.34,-303.76 1201.31,-313.44"/>
<polygon fill="#9a32cd" stroke="#9a32cd" points="1035.12,-252.37 1024.79,-254.73 1034.33,-259.33 1035.12,-252.37"/>
<text text-anchor="middle" x="1101.5" y="-284" font-family="Helvetica,sans-Serif" font-size="10.00"> mPEBlock</text>
</g>
<!-- Node30 -->
<g id="node30" class="node">
<title>Node30</title>
<g id="a_node30"><a xlink:href="structJ3DMaterialAnm.html" target="_top" xlink:title=" ">
<polygon fill="white" stroke="black" points="944.5,-204.5 944.5,-223.5 1033.5,-223.5 1033.5,-204.5 944.5,-204.5"/>
<text text-anchor="middle" x="989" y="-211.5" font-family="Helvetica,sans-Serif" font-size="10.00">J3DMaterialAnm</text>
</a>
</g>
</g>
<!-- Node30&#45;&gt;Node14 -->
<g id="edge39" class="edge">
<title>Node30&#45;&gt;Node14</title>
<path fill="none" stroke="#9a32cd" stroke-dasharray="5,2" d="M1043.74,-214.77C1075.71,-217.52 1115.79,-225.18 1146,-245 1157.75,-252.71 1155.13,-260.1 1164,-271 1176.75,-286.66 1193.18,-303.32 1203.53,-313.45"/>
<polygon fill="#9a32cd" stroke="#9a32cd" points="1043.9,-211.27 1033.67,-214.04 1043.39,-218.25 1043.9,-211.27"/>
<text text-anchor="middle" x="1101.5" y="-248" font-family="Helvetica,sans-Serif" font-size="10.00"> mMaterialAnm</text>
</g>
<!-- Node31 -->
<g id="node31" class="node">
<title>Node31</title>
<g id="a_node31"><a xlink:href="structJ3DMatColorAnm.html" target="_top" xlink:title=" ">
<polygon fill="white" stroke="black" points="729.5,-270.5 729.5,-289.5 822.5,-289.5 822.5,-270.5 729.5,-270.5"/>
<text text-anchor="middle" x="776" y="-277.5" font-family="Helvetica,sans-Serif" font-size="10.00">J3DMatColorAnm</text>
</a>
</g>
</g>
<!-- Node31&#45;&gt;Node30 -->
<g id="edge40" class="edge">
<title>Node31&#45;&gt;Node30</title>
<path fill="none" stroke="#9a32cd" stroke-dasharray="5,2" d="M832.53,-273.95C860.17,-269.4 893.47,-261.53 921,-248 930.35,-243.41 930.03,-238.29 939,-233 945.13,-229.39 952.08,-226.21 958.77,-223.54"/>
<polygon fill="#9a32cd" stroke="#9a32cd" points="831.98,-270.5 822.63,-275.48 833.05,-277.41 831.98,-270.5"/>
<text text-anchor="middle" x="882.5" y="-274" font-family="Helvetica,sans-Serif" font-size="10.00"> mMatColorAnm</text>
</g>
<!-- Node32&#45;&gt;Node31 -->
<g id="edge41" class="edge">
<title>Node32&#45;&gt;Node31</title>
<path fill="none" stroke="#9a32cd" stroke-dasharray="5,2" d="M595.22,-280C634.64,-280 690.23,-280 729.13,-280"/>
<polygon fill="#9a32cd" stroke="#9a32cd" points="595.07,-276.5 585.07,-280 595.07,-283.5 595.07,-276.5"/>
<text text-anchor="middle" x="668.5" y="-283" font-family="Helvetica,sans-Serif" font-size="10.00"> mAnmColor</text>
</g>
<!-- Node33 -->
<g id="node33" class="node">
<title>Node33</title>
<g id="a_node33"><a xlink:href="classJ3DAnmBase.html" target="_top" xlink:title=" ">
<polygon fill="white" stroke="black" points="322.5,-277.5 322.5,-296.5 399.5,-296.5 399.5,-277.5 322.5,-277.5"/>
<text text-anchor="middle" x="361" y="-284.5" font-family="Helvetica,sans-Serif" font-size="10.00">J3DAnmBase</text>
</a>
</g>
</g>
<!-- Node33&#45;&gt;Node32 -->
<g id="edge42" class="edge">
<title>Node33&#45;&gt;Node32</title>
<path fill="none" stroke="midnightblue" d="M409.61,-285.18C440.26,-284.01 479.54,-282.52 507.97,-281.43"/>
<polygon fill="midnightblue" stroke="midnightblue" points="409.44,-281.69 399.58,-285.57 409.7,-288.68 409.44,-281.69"/>
</g>
<!-- Node33&#45;&gt;Node35 -->
<g id="edge46" class="edge">
<title>Node33&#45;&gt;Node35</title>
<path fill="none" stroke="midnightblue" d="M409.64,-295.05C433.96,-299.16 463.7,-304.18 489.15,-308.48"/>
<polygon fill="midnightblue" stroke="midnightblue" points="410.02,-291.56 399.58,-293.35 408.85,-298.47 410.02,-291.56"/>
</g>
<!-- Node33&#45;&gt;Node37 -->
<g id="edge50" class="edge">
<title>Node33&#45;&gt;Node37</title>
<path fill="none" stroke="midnightblue" d="M375.79,-304.55C386.27,-316.93 401.64,-333.19 418,-344 446.46,-362.81 483.08,-376.24 509.76,-384.42"/>
<polygon fill="midnightblue" stroke="midnightblue" points="378.4,-302.22 369.36,-296.7 372.99,-306.65 378.4,-302.22"/>
</g>
<!-- Node39 -->
<g id="node39" class="node">
<title>Node39</title>
<g id="a_node39"><a xlink:href="structJ3DAnmTevRegKey.html" target="_top" xlink:title=" ">
<polygon fill="white" stroke="black" points="494.5,-232.5 494.5,-251.5 598.5,-251.5 598.5,-232.5 494.5,-232.5"/>
<text text-anchor="middle" x="546.5" y="-239.5" font-family="Helvetica,sans-Serif" font-size="10.00">J3DAnmTevRegKey</text>
</a>
</g>
</g>
<!-- Node33&#45;&gt;Node39 -->
<g id="edge54" class="edge">
<title>Node33&#45;&gt;Node39</title>
<path fill="none" stroke="midnightblue" d="M409.47,-275.36C439.69,-267.95 478.34,-258.47 506.71,-251.51"/>
<polygon fill="midnightblue" stroke="midnightblue" points="408.46,-272 399.58,-277.78 410.12,-278.8 408.46,-272"/>
</g>
<!-- Node34 -->
<g id="node34" class="node">
<title>Node34</title>
<g id="a_node34"><a xlink:href="structJ3DTexMtxAnm.html" target="_top" xlink:title=" ">
<polygon fill="white" stroke="black" points="733,-308.5 733,-327.5 819,-327.5 819,-308.5 733,-308.5"/>
<text text-anchor="middle" x="776" y="-315.5" font-family="Helvetica,sans-Serif" font-size="10.00">J3DTexMtxAnm</text>
</a>
</g>
</g>
<!-- Node34&#45;&gt;Node30 -->
<g id="edge44" class="edge">
<title>Node34&#45;&gt;Node30</title>
<path fill="none" stroke="#9a32cd" stroke-dasharray="5,2" d="M829.5,-318.51C859.63,-316.1 896.27,-308.18 921,-286 939.52,-269.39 921.79,-250.96 939,-233 942.66,-229.18 947.18,-226.11 951.98,-223.66"/>
<polygon fill="#9a32cd" stroke="#9a32cd" points="828.91,-315.04 819.15,-319.15 829.34,-322.03 828.91,-315.04"/>
<text text-anchor="middle" x="882.5" y="-319" font-family="Helvetica,sans-Serif" font-size="10.00"> mTexMtxAnm</text>
</g>
<!-- Node35&#45;&gt;Node34 -->
<g id="edge45" class="edge">
<title>Node35&#45;&gt;Node34</title>
<path fill="none" stroke="#9a32cd" stroke-dasharray="5,2" d="M617.98,-318C655.66,-318 700.78,-318 732.97,-318"/>
<polygon fill="#9a32cd" stroke="#9a32cd" points="617.57,-314.5 607.57,-318 617.57,-321.5 617.57,-314.5"/>
<text text-anchor="middle" x="668.5" y="-321" font-family="Helvetica,sans-Serif" font-size="10.00"> mAnmTransform</text>
</g>
<!-- Node36 -->
<g id="node36" class="node">
<title>Node36</title>
<g id="a_node36"><a xlink:href="structJ3DTexNoAnm.html" target="_top" xlink:title=" ">
<polygon fill="white" stroke="black" points="734.5,-384.5 734.5,-403.5 817.5,-403.5 817.5,-384.5 734.5,-384.5"/>
<text text-anchor="middle" x="776" y="-391.5" font-family="Helvetica,sans-Serif" font-size="10.00">J3DTexNoAnm</text>
</a>
</g>
</g>
<!-- Node36&#45;&gt;Node30 -->
<g id="edge48" class="edge">
<title>Node36&#45;&gt;Node30</title>
<path fill="none" stroke="#9a32cd" stroke-dasharray="5,2" d="M816.72,-380.27C819.95,-378.66 823.08,-376.9 826,-375 835.48,-368.82 834.39,-362.97 844,-357 874.69,-337.95 897.36,-358.31 921,-331 949.98,-297.51 910.77,-267.12 939,-233 942.14,-229.2 946.14,-226.16 950.49,-223.73"/>
<polygon fill="#9a32cd" stroke="#9a32cd" points="815.18,-377.13 807.51,-384.44 818.06,-383.51 815.18,-377.13"/>
<text text-anchor="middle" x="882.5" y="-360" font-family="Helvetica,sans-Serif" font-size="10.00"> mTexNoAnm</text>
</g>
<!-- Node37&#45;&gt;Node36 -->
<g id="edge49" class="edge">
<title>Node37&#45;&gt;Node36</title>
<path fill="none" stroke="#9a32cd" stroke-dasharray="5,2" d="M607.31,-394C647.3,-394 698.87,-394 734.2,-394"/>
<polygon fill="#9a32cd" stroke="#9a32cd" points="607.14,-390.5 597.14,-394 607.14,-397.5 607.14,-390.5"/>
<text text-anchor="middle" x="668.5" y="-397" font-family="Helvetica,sans-Serif" font-size="10.00"> mAnmTexPattern</text>
</g>
<!-- Node38 -->
<g id="node38" class="node">
<title>Node38</title>
<g id="a_node38"><a xlink:href="structJ3DTevColorAnm.html" target="_top" xlink:title=" ">
<polygon fill="white" stroke="black" points="729.5,-194.5 729.5,-213.5 822.5,-213.5 822.5,-194.5 729.5,-194.5"/>
<text text-anchor="middle" x="776" y="-201.5" font-family="Helvetica,sans-Serif" font-size="10.00">J3DTevColorAnm</text>
</a>
</g>
</g>
<!-- Node38&#45;&gt;Node30 -->
<g id="edge52" class="edge">
<title>Node38&#45;&gt;Node30</title>
<path fill="none" stroke="#9a32cd" stroke-dasharray="5,2" d="M833.02,-206.1C859.68,-207.16 891.99,-208.53 921,-210 928.56,-210.38 936.61,-210.83 944.4,-211.28"/>
<polygon fill="#9a32cd" stroke="#9a32cd" points="832.86,-202.59 822.73,-205.7 832.59,-209.59 832.86,-202.59"/>
<text text-anchor="middle" x="882.5" y="-213" font-family="Helvetica,sans-Serif" font-size="10.00"> mTevColorAnm</text>
</g>
<!-- Node39&#45;&gt;Node38 -->
<g id="edge53" class="edge">
<title>Node39&#45;&gt;Node38</title>
<path fill="none" stroke="#9a32cd" stroke-dasharray="5,2" d="M608.43,-230.61C615.36,-229.37 622.33,-228.14 629,-227 662.51,-221.28 700.45,-215.32 729.25,-210.9"/>
<polygon fill="#9a32cd" stroke="#9a32cd" points="607.55,-227.21 598.33,-232.44 608.79,-234.1 607.55,-227.21"/>
<text text-anchor="middle" x="668.5" y="-230" font-family="Helvetica,sans-Serif" font-size="10.00"> mAnmTevReg</text>
</g>
<!-- Node40 -->
<g id="node40" class="node">
<title>Node40</title>
<g id="a_node40"><a xlink:href="structJ3DTevKColorAnm.html" target="_top" xlink:title=" ">
<polygon fill="white" stroke="black" points="726,-232.5 726,-251.5 826,-251.5 826,-232.5 726,-232.5"/>
<text text-anchor="middle" x="776" y="-239.5" font-family="Helvetica,sans-Serif" font-size="10.00">J3DTevKColorAnm</text>
</a>
</g>
</g>
<!-- Node39&#45;&gt;Node40 -->
<g id="edge56" class="edge">
<title>Node39&#45;&gt;Node40</title>
<path fill="none" stroke="#9a32cd" stroke-dasharray="5,2" d="M608.63,-242C645.31,-242 691.34,-242 725.68,-242"/>
<polygon fill="#9a32cd" stroke="#9a32cd" points="608.56,-238.5 598.56,-242 608.56,-245.5 608.56,-238.5"/>
<text text-anchor="middle" x="668.5" y="-245" font-family="Helvetica,sans-Serif" font-size="10.00"> mAnmTevReg</text>
</g>
<!-- Node40&#45;&gt;Node30 -->
<g id="edge55" class="edge">
<title>Node40&#45;&gt;Node30</title>
<path fill="none" stroke="#9a32cd" stroke-dasharray="5,2" d="M836.13,-234.15C870.53,-229.59 913.13,-223.94 944.45,-219.78"/>
<polygon fill="#9a32cd" stroke="#9a32cd" points="835.66,-230.69 826.2,-235.47 836.58,-237.62 835.66,-230.69"/>
<text text-anchor="middle" x="882.5" y="-236" font-family="Helvetica,sans-Serif" font-size="10.00"> mTevKColorAnm</text>
</g>
<!-- Node41 -->
<g id="node41" class="node">
<title>Node41</title>
<g id="a_node41"><a xlink:href="structJ3DDisplayListObj.html" target="_top" xlink:title=" ">
<polygon fill="white" stroke="black" points="940.5,-432.5 940.5,-451.5 1037.5,-451.5 1037.5,-432.5 940.5,-432.5"/>
<text text-anchor="middle" x="989" y="-439.5" font-family="Helvetica,sans-Serif" font-size="10.00">J3DDisplayListObj</text>
</a>
</g>
</g>
<!-- Node41&#45;&gt;Node14 -->
<g id="edge58" class="edge">
<title>Node41&#45;&gt;Node14</title>
<path fill="none" stroke="#9a32cd" stroke-dasharray="5,2" d="M1042,-430.15C1085.58,-420.09 1141.43,-406.85 1146,-404 1175.51,-385.6 1198.4,-349.89 1208.24,-332.71"/>
<polygon fill="#9a32cd" stroke="#9a32cd" points="1041.02,-426.79 1032.06,-432.44 1042.59,-433.61 1041.02,-426.79"/>
<text text-anchor="middle" x="1101.5" y="-428" font-family="Helvetica,sans-Serif" font-size="10.00"> mSharedDLObj</text>
</g>
<!-- Node42 -->
<g id="node42" class="node">
<title>Node42</title>
<g id="a_node42"><a xlink:href="structGDLObj.html" target="_top" xlink:title=" ">
<polygon fill="white" stroke="black" points="750,-432.5 750,-451.5 802,-451.5 802,-432.5 750,-432.5"/>
<text text-anchor="middle" x="776" y="-439.5" font-family="Helvetica,sans-Serif" font-size="10.00">GDLObj</text>
</a>
</g>
</g>
<!-- Node42&#45;&gt;Node41 -->
<g id="edge59" class="edge">
<title>Node42&#45;&gt;Node41</title>
<path fill="none" stroke="#9a32cd" stroke-dasharray="5,2" d="M812.27,-442C847.32,-442 901.33,-442 940.22,-442"/>
<polygon fill="#9a32cd" stroke="#9a32cd" points="812.03,-438.5 802.03,-442 812.03,-445.5 812.03,-438.5"/>
<text text-anchor="middle" x="882.5" y="-445" font-family="Helvetica,sans-Serif" font-size="10.00"> sGDLObj</text>
</g>
</g>
</svg>
