<?xml version="1.0" encoding="UTF-8" standalone="no"?>
<!DOCTYPE svg PUBLIC "-//W3C//DTD SVG 1.1//EN"
 "http://www.w3.org/Graphics/SVG/1.1/DTD/svg11.dtd">
<!-- Generated by graphviz version 3.0.0 (20221109.1736)
 -->
<!-- Title: leaf_process_profile_definition Pages: 1 -->
<svg width="237pt" height="251pt"
 viewBox="0.00 0.00 237.00 251.00" xmlns="http://www.w3.org/2000/svg" xmlns:xlink="http://www.w3.org/1999/xlink">
<g id="graph0" class="graph" transform="scale(1 1) rotate(0) translate(4 247)">
<title>leaf_process_profile_definition</title>
<polygon fill="white" stroke="transparent" points="-4,4 -4,-247 233,-247 233,4 -4,4"/>
<!-- Node1 -->
<g id="node1" class="node">
<title>Node1</title>
<g id="a_node1"><a xlink:title=" ">
<polygon fill="#bfbfbf" stroke="black" points="11,-0.5 11,-30.5 114,-30.5 114,-0.5 11,-0.5"/>
<text text-anchor="start" x="19" y="-18.5" font-family="Helvetica,sans-Serif" font-size="10.00">leaf_process_profile</text>
<text text-anchor="middle" x="62.5" y="-7.5" font-family="Helvetica,sans-Serif" font-size="10.00">_definition</text>
</a>
</g>
</g>
<!-- Node2 -->
<g id="node2" class="node">
<title>Node2</title>
<g id="a_node2"><a xlink:href="structprocess__profile__definition.html" target="_top" xlink:title=" ">
<polygon fill="white" stroke="black" points="0,-78.5 0,-97.5 125,-97.5 125,-78.5 0,-78.5"/>
<text text-anchor="middle" x="62.5" y="-85.5" font-family="Helvetica,sans-Serif" font-size="10.00">process_profile_definition</text>
</a>
</g>
</g>
<!-- Node2&#45;&gt;Node1 -->
<g id="edge1" class="edge">
<title>Node2&#45;&gt;Node1</title>
<path fill="none" stroke="#9a32cd" stroke-dasharray="5,2" d="M62.5,-68.24C62.5,-56.41 62.5,-41.38 62.5,-30.58"/>
<polygon fill="#9a32cd" stroke="#9a32cd" points="59,-68.36 62.5,-78.36 66,-68.36 59,-68.36"/>
<text text-anchor="middle" x="79.5" y="-52" font-family="Helvetica,sans-Serif" font-size="10.00"> mBase</text>
</g>
<!-- Node3 -->
<g id="node3" class="node">
<title>Node3</title>
<g id="a_node3"><a xlink:href="structprocess__method__class.html" target="_top" xlink:title=" ">
<polygon fill="white" stroke="black" points="4,-223.5 4,-242.5 121,-242.5 121,-223.5 4,-223.5"/>
<text text-anchor="middle" x="62.5" y="-230.5" font-family="Helvetica,sans-Serif" font-size="10.00">process_method_class</text>
</a>
</g>
</g>
<!-- Node3&#45;&gt;Node2 -->
<g id="edge2" class="edge">
<title>Node3&#45;&gt;Node2</title>
<path fill="none" stroke="#9a32cd" stroke-dasharray="5,2" d="M59.99,-213.29C58.66,-202.42 57.17,-188.46 56.5,-176 54.97,-147.27 59.01,-113.27 61.2,-97.64"/>
<polygon fill="#9a32cd" stroke="#9a32cd" points="56.53,-213.82 61.28,-223.29 63.47,-212.93 56.53,-213.82"/>
<text text-anchor="middle" x="79" y="-163.5" font-family="Helvetica,sans-Serif" font-size="10.00"> mpPcMtd</text>
</g>
<!-- Node4 -->
<g id="node4" class="node">
<title>Node4</title>
<g id="a_node4"><a xlink:href="structleafdraw__method__class.html" target="_top" xlink:title=" ">
<polygon fill="white" stroke="black" points="110,-156.5 110,-175.5 229,-175.5 229,-156.5 110,-156.5"/>
<text text-anchor="middle" x="169.5" y="-163.5" font-family="Helvetica,sans-Serif" font-size="10.00">leafdraw_method_class</text>
</a>
</g>
</g>
<!-- Node3&#45;&gt;Node4 -->
<g id="edge4" class="edge">
<title>Node3&#45;&gt;Node4</title>
<path fill="none" stroke="#9a32cd" stroke-dasharray="5,2" d="M85.64,-217.94C106.83,-205.07 137.52,-186.43 155.3,-175.63"/>
<polygon fill="#9a32cd" stroke="#9a32cd" points="83.66,-215.05 76.93,-223.23 87.29,-221.03 83.66,-215.05"/>
<text text-anchor="middle" x="138.5" y="-197" font-family="Helvetica,sans-Serif" font-size="10.00"> mBase</text>
</g>
<!-- Node4&#45;&gt;Node2 -->
<g id="edge3" class="edge">
<title>Node4&#45;&gt;Node2</title>
<path fill="none" stroke="#9a32cd" stroke-dasharray="5,2" d="M148.89,-150.36C126.86,-134.72 92.69,-110.44 74.63,-97.62"/>
<polygon fill="#9a32cd" stroke="#9a32cd" points="147.05,-153.34 157.23,-156.28 151.1,-147.64 147.05,-153.34"/>
<text text-anchor="middle" x="155.5" y="-130" font-family="Helvetica,sans-Serif" font-size="10.00"> mLfDrwMth</text>
<text text-anchor="middle" x="155.5" y="-119" font-family="Helvetica,sans-Serif" font-size="10.00">mMethods</text>
</g>
</g>
</svg>
