<?xml version="1.0" encoding="UTF-8" standalone="no"?>
<!DOCTYPE svg PUBLIC "-//W3C//DTD SVG 1.1//EN"
 "http://www.w3.org/Graphics/SVG/1.1/DTD/svg11.dtd">
<!-- Generated by graphviz version 3.0.0 (20221109.1736)
 -->
<!-- Title: delete_tag_class Pages: 1 -->
<svg width="1646pt" height="577pt"
 viewBox="0.00 0.00 1646.00 577.00" xmlns="http://www.w3.org/2000/svg" xmlns:xlink="http://www.w3.org/1999/xlink">
<g id="graph0" class="graph" transform="scale(1 1) rotate(0) translate(4 573)">
<title>delete_tag_class</title>
<polygon fill="white" stroke="transparent" points="-4,4 -4,-573 1642,-573 1642,4 -4,4"/>
<!-- Node1 -->
<g id="node1" class="node">
<title>Node1</title>
<g id="a_node1"><a xlink:title=" ">
<polygon fill="#bfbfbf" stroke="black" points="374.5,-244.5 374.5,-263.5 464.5,-263.5 464.5,-244.5 374.5,-244.5"/>
<text text-anchor="middle" x="419.5" y="-251.5" font-family="Helvetica,sans-Serif" font-size="10.00">delete_tag_class</text>
</a>
</g>
</g>
<!-- Node8 -->
<g id="node8" class="node">
<title>Node8</title>
<g id="a_node8"><a xlink:href="structbase__process__class.html" target="_top" xlink:title=" ">
<polygon fill="white" stroke="black" points="872,-226.5 872,-245.5 978,-245.5 978,-226.5 872,-226.5"/>
<text text-anchor="middle" x="925" y="-233.5" font-family="Helvetica,sans-Serif" font-size="10.00">base_process_class</text>
</a>
</g>
</g>
<!-- Node1&#45;&gt;Node8 -->
<g id="edge28" class="edge">
<title>Node1&#45;&gt;Node8</title>
<path fill="none" stroke="#9a32cd" stroke-dasharray="5,2" d="M474.98,-252.05C572.57,-248.56 775.97,-241.29 871.85,-237.86"/>
<polygon fill="#9a32cd" stroke="#9a32cd" points="474.61,-248.56 464.74,-252.42 474.86,-255.56 474.61,-248.56"/>
<text text-anchor="middle" x="711.5" y="-249" font-family="Helvetica,sans-Serif" font-size="10.00"> mDtTg</text>
</g>
<!-- Node2 -->
<g id="node2" class="node">
<title>Node2</title>
<g id="a_node2"><a xlink:href="structcreate__tag__class.html" target="_top" xlink:title=" ">
<polygon fill="white" stroke="black" points="155,-206.5 155,-225.5 246,-225.5 246,-206.5 155,-206.5"/>
<text text-anchor="middle" x="200.5" y="-213.5" font-family="Helvetica,sans-Serif" font-size="10.00">create_tag_class</text>
</a>
</g>
</g>
<!-- Node2&#45;&gt;Node1 -->
<g id="edge1" class="edge">
<title>Node2&#45;&gt;Node1</title>
<path fill="none" stroke="#9a32cd" stroke-dasharray="5,2" d="M256.3,-226.26C263.27,-227.54 270.3,-228.81 277,-230 309.63,-235.79 346.55,-242.04 374.49,-246.71"/>
<polygon fill="#9a32cd" stroke="#9a32cd" points="256.66,-222.77 246.19,-224.4 255.39,-229.66 256.66,-222.77"/>
<text text-anchor="middle" x="305" y="-243" font-family="Helvetica,sans-Serif" font-size="10.00"> mBase</text>
</g>
<!-- Node13 -->
<g id="node13" class="node">
<title>Node13</title>
<g id="a_node13"><a xlink:href="structcreate__tag.html" target="_top" xlink:title=" ">
<polygon fill="white" stroke="black" points="792,-14.5 792,-33.5 854,-33.5 854,-14.5 792,-14.5"/>
<text text-anchor="middle" x="823" y="-21.5" font-family="Helvetica,sans-Serif" font-size="10.00">create_tag</text>
</a>
</g>
</g>
<!-- Node2&#45;&gt;Node13 -->
<g id="edge17" class="edge">
<title>Node2&#45;&gt;Node13</title>
<path fill="none" stroke="#9a32cd" stroke-dasharray="5,2" d="M209.01,-196.88C220.32,-170.11 243.97,-121.26 277,-90 304,-64.44 315.18,-60.96 351,-51 512.18,-6.19 715.99,-15.7 791.8,-21.37"/>
<polygon fill="#9a32cd" stroke="#9a32cd" points="205.71,-195.69 205.17,-206.27 212.19,-198.34 205.71,-195.69"/>
<text text-anchor="middle" x="419.5" y="-54" font-family="Helvetica,sans-Serif" font-size="10.00"> mBase</text>
</g>
<!-- Node14 -->
<g id="node14" class="node">
<title>Node14</title>
<g id="a_node14"><a xlink:href="structprocess__method__tag__class.html" target="_top" xlink:title=" ">
<polygon fill="white" stroke="black" points="366,-72 366,-102 473,-102 473,-72 366,-72"/>
<text text-anchor="start" x="374" y="-90" font-family="Helvetica,sans-Serif" font-size="10.00">process_method_tag</text>
<text text-anchor="middle" x="419.5" y="-79" font-family="Helvetica,sans-Serif" font-size="10.00">_class</text>
</a>
</g>
</g>
<!-- Node2&#45;&gt;Node14 -->
<g id="edge19" class="edge">
<title>Node2&#45;&gt;Node14</title>
<path fill="none" stroke="#9a32cd" stroke-dasharray="5,2" d="M210.09,-196.97C221.73,-173.49 244.83,-134.22 277,-114 303.36,-97.43 337.55,-90.59 365.72,-87.94"/>
<polygon fill="#9a32cd" stroke="#9a32cd" points="206.82,-195.71 205.68,-206.24 213.14,-198.71 206.82,-195.71"/>
<text text-anchor="middle" x="305" y="-117" font-family="Helvetica,sans-Serif" font-size="10.00"> mCreateTag</text>
</g>
<!-- Node16 -->
<g id="node16" class="node">
<title>Node16</title>
<g id="a_node16"><a xlink:href="structlayer__management__tag__class.html" target="_top" xlink:title=" ">
<polygon fill="white" stroke="black" points="1521,-335 1521,-365 1638,-365 1638,-335 1521,-335"/>
<text text-anchor="start" x="1529" y="-353" font-family="Helvetica,sans-Serif" font-size="10.00">layer_management_tag</text>
<text text-anchor="middle" x="1579.5" y="-342" font-family="Helvetica,sans-Serif" font-size="10.00">_class</text>
</a>
</g>
</g>
<!-- Node2&#45;&gt;Node16 -->
<g id="edge24" class="edge">
<title>Node2&#45;&gt;Node16</title>
<path fill="none" stroke="#9a32cd" stroke-dasharray="5,2" d="M227.69,-230.62C279.1,-258.34 397.65,-317.51 506,-337 703.36,-372.5 1327.75,-357.47 1520.96,-351.8"/>
<polygon fill="#9a32cd" stroke="#9a32cd" points="229.07,-227.38 218.61,-225.67 225.72,-233.53 229.07,-227.38"/>
<text text-anchor="middle" x="925" y="-363" font-family="Helvetica,sans-Serif" font-size="10.00"> mCreateTag</text>
</g>
<!-- Node17 -->
<g id="node17" class="node">
<title>Node17</title>
<g id="a_node17"><a xlink:href="structline__tag.html" target="_top" xlink:title=" ">
<polygon fill="white" stroke="black" points="543.5,-201.5 543.5,-220.5 593.5,-220.5 593.5,-201.5 543.5,-201.5"/>
<text text-anchor="middle" x="568.5" y="-208.5" font-family="Helvetica,sans-Serif" font-size="10.00">line_tag</text>
</a>
</g>
</g>
<!-- Node2&#45;&gt;Node17 -->
<g id="edge27" class="edge">
<title>Node2&#45;&gt;Node17</title>
<path fill="none" stroke="#9a32cd" stroke-dasharray="5,2" d="M256.49,-215.25C337.38,-214.14 485.12,-212.13 543.16,-211.33"/>
<polygon fill="#9a32cd" stroke="#9a32cd" points="255.96,-211.76 246.01,-215.39 256.06,-218.75 255.96,-211.76"/>
<text text-anchor="middle" x="305" y="-218" font-family="Helvetica,sans-Serif" font-size="10.00"> mBase</text>
</g>
<!-- Node18 -->
<g id="node18" class="node">
<title>Node18</title>
<g id="a_node18"><a xlink:href="structprocess__priority__class.html" target="_top" xlink:title=" ">
<polygon fill="white" stroke="black" points="655,-132.5 655,-151.5 768,-151.5 768,-132.5 655,-132.5"/>
<text text-anchor="middle" x="711.5" y="-139.5" font-family="Helvetica,sans-Serif" font-size="10.00">process_priority_class</text>
</a>
</g>
</g>
<!-- Node2&#45;&gt;Node18 -->
<g id="edge30" class="edge">
<title>Node2&#45;&gt;Node18</title>
<path fill="none" stroke="#9a32cd" stroke-dasharray="5,2" d="M225.78,-201.16C254.48,-184.53 304.27,-158.54 351,-148 456.34,-124.25 583.49,-129.86 654.86,-135.99"/>
<polygon fill="#9a32cd" stroke="#9a32cd" points="223.73,-198.3 216.89,-206.4 227.28,-204.33 223.73,-198.3"/>
<text text-anchor="middle" x="419.5" y="-151" font-family="Helvetica,sans-Serif" font-size="10.00"> mBase</text>
</g>
<!-- Node3 -->
<g id="node3" class="node">
<title>Node3</title>
<g id="a_node3"><a xlink:href="structnode__class.html" target="_top" xlink:title=" ">
<polygon fill="white" stroke="black" points="0,-489.5 0,-508.5 66,-508.5 66,-489.5 0,-489.5"/>
<text text-anchor="middle" x="33" y="-496.5" font-family="Helvetica,sans-Serif" font-size="10.00">node_class</text>
</a>
</g>
</g>
<!-- Node3&#45;&gt;Node2 -->
<g id="edge2" class="edge">
<title>Node3&#45;&gt;Node2</title>
<path fill="none" stroke="#9a32cd" stroke-dasharray="5,2" d="M44.94,-480.29C76.99,-425.48 169.9,-266.61 193.83,-225.7"/>
<polygon fill="#9a32cd" stroke="#9a32cd" points="41.72,-478.86 39.7,-489.26 47.77,-482.39 41.72,-478.86"/>
<text text-anchor="middle" x="104" y="-411" font-family="Helvetica,sans-Serif" font-size="10.00"> mpNode</text>
</g>
<!-- Node3&#45;&gt;Node3 -->
<g id="edge3" class="edge">
<title>Node3&#45;&gt;Node3</title>
<path fill="none" stroke="#9a32cd" stroke-dasharray="5,2" d="M20.11,-518.77C21.12,-523.5 25.42,-527 33,-527 45.44,-527 49.04,-517.57 43.79,-508.76"/>
<polygon fill="#9a32cd" stroke="#9a32cd" points="23.58,-519.26 22.21,-508.76 16.73,-517.82 23.58,-519.26"/>
<text text-anchor="middle" x="33" y="-541" font-family="Helvetica,sans-Serif" font-size="10.00"> mpNextNode</text>
<text text-anchor="middle" x="33" y="-530" font-family="Helvetica,sans-Serif" font-size="10.00">mpPrevNode</text>
</g>
<!-- Node4 -->
<g id="node4" class="node">
<title>Node4</title>
<g id="a_node4"><a xlink:href="structlayer__class.html" target="_top" xlink:title=" ">
<polygon fill="white" stroke="black" points="1338,-440.5 1338,-459.5 1403,-459.5 1403,-440.5 1338,-440.5"/>
<text text-anchor="middle" x="1370.5" y="-447.5" font-family="Helvetica,sans-Serif" font-size="10.00">layer_class</text>
</a>
</g>
</g>
<!-- Node3&#45;&gt;Node4 -->
<g id="edge5" class="edge">
<title>Node3&#45;&gt;Node4</title>
<path fill="none" stroke="#9a32cd" stroke-dasharray="5,2" d="M58.71,-513.83C90.24,-531.31 146.98,-558 199.5,-558 199.5,-558 199.5,-558 1150.5,-558 1215.31,-558 1236.16,-558.16 1293,-527 1324.23,-509.88 1351.04,-476.07 1362.94,-459.54"/>
<polygon fill="#9a32cd" stroke="#9a32cd" points="60.19,-510.65 49.77,-508.74 56.73,-516.73 60.19,-510.65"/>
<text text-anchor="middle" x="711.5" y="-561" font-family="Helvetica,sans-Serif" font-size="10.00"> mNode</text>
</g>
<!-- Node6 -->
<g id="node6" class="node">
<title>Node6</title>
<g id="a_node6"><a xlink:href="structnode__list__class.html" target="_top" xlink:title=" ">
<polygon fill="white" stroke="black" points="883,-483.5 883,-502.5 967,-502.5 967,-483.5 883,-483.5"/>
<text text-anchor="middle" x="925" y="-490.5" font-family="Helvetica,sans-Serif" font-size="10.00">node_list_class</text>
</a>
</g>
</g>
<!-- Node3&#45;&gt;Node6 -->
<g id="edge8" class="edge">
<title>Node3&#45;&gt;Node6</title>
<path fill="none" stroke="#9a32cd" stroke-dasharray="5,2" d="M76.36,-499C109.8,-499 157.63,-499 199.5,-499 199.5,-499 199.5,-499 712.5,-499 771.64,-499 840.05,-496.63 882.67,-494.87"/>
<polygon fill="#9a32cd" stroke="#9a32cd" points="76.04,-495.5 66.04,-499 76.04,-502.5 76.04,-495.5"/>
<text text-anchor="middle" x="419.5" y="-513" font-family="Helvetica,sans-Serif" font-size="10.00"> mpHead</text>
<text text-anchor="middle" x="419.5" y="-502" font-family="Helvetica,sans-Serif" font-size="10.00">mpTail</text>
</g>
<!-- Node4&#45;&gt;Node1 -->
<g id="edge4" class="edge">
<title>Node4&#45;&gt;Node1</title>
<path fill="none" stroke="#9a32cd" stroke-dasharray="5,2" d="M1343.88,-435.63C1329.37,-428.09 1310.63,-419.33 1293,-414 1229.13,-394.7 1048.04,-411.75 996,-370 978.55,-356 995.61,-336.79 978,-323 967.86,-315.06 594.83,-273.24 464.72,-258.86"/>
<polygon fill="#9a32cd" stroke="#9a32cd" points="1342.28,-438.74 1352.75,-440.36 1345.58,-432.57 1342.28,-438.74"/>
<text text-anchor="middle" x="925" y="-326" font-family="Helvetica,sans-Serif" font-size="10.00"> mpLayer</text>
</g>
<!-- Node7 -->
<g id="node7" class="node">
<title>Node7</title>
<g id="a_node7"><a xlink:href="structprocess__node__class.html" target="_top" xlink:title=" ">
<polygon fill="white" stroke="black" points="1096.5,-417.5 1096.5,-436.5 1202.5,-436.5 1202.5,-417.5 1096.5,-417.5"/>
<text text-anchor="middle" x="1149.5" y="-424.5" font-family="Helvetica,sans-Serif" font-size="10.00">process_node_class</text>
</a>
</g>
</g>
<!-- Node4&#45;&gt;Node7 -->
<g id="edge36" class="edge">
<title>Node4&#45;&gt;Node7</title>
<path fill="none" stroke="#9a32cd" stroke-dasharray="5,2" d="M1341.08,-436.41C1326.97,-430.4 1309.46,-424.02 1293,-421 1263.41,-415.58 1229.81,-416.66 1202.67,-419.28"/>
<polygon fill="#9a32cd" stroke="#9a32cd" points="1339.69,-439.62 1350.25,-440.46 1342.52,-433.22 1339.69,-439.62"/>
<text text-anchor="middle" x="1258" y="-424" font-family="Helvetica,sans-Serif" font-size="10.00"> mLayer</text>
</g>
<!-- Node12 -->
<g id="node12" class="node">
<title>Node12</title>
<g id="a_node12"><a xlink:href="structcreate__request.html" target="_top" xlink:title=" ">
<polygon fill="white" stroke="black" points="1539,-111.5 1539,-130.5 1620,-130.5 1620,-111.5 1539,-111.5"/>
<text text-anchor="middle" x="1579.5" y="-118.5" font-family="Helvetica,sans-Serif" font-size="10.00">create_request</text>
</a>
</g>
</g>
<!-- Node4&#45;&gt;Node12 -->
<g id="edge22" class="edge">
<title>Node4&#45;&gt;Node12</title>
<path fill="none" stroke="#9a32cd" stroke-dasharray="5,2" d="M1383.11,-431.55C1421.49,-370.55 1543.46,-176.7 1572.33,-130.81"/>
<polygon fill="#9a32cd" stroke="#9a32cd" points="1380.06,-429.83 1377.7,-440.15 1385.98,-433.55 1380.06,-429.83"/>
<text text-anchor="middle" x="1475.5" y="-328" font-family="Helvetica,sans-Serif" font-size="10.00"> mpLayer</text>
</g>
<!-- Node4&#45;&gt;Node16 -->
<g id="edge25" class="edge">
<title>Node4&#45;&gt;Node16</title>
<path fill="none" stroke="#9a32cd" stroke-dasharray="5,2" d="M1413.25,-444.76C1440.06,-440.16 1474.98,-431.8 1503,-417 1528.1,-403.74 1551.67,-380.43 1565.59,-365.1"/>
<polygon fill="#9a32cd" stroke="#9a32cd" points="1412.36,-441.36 1403.04,-446.4 1413.47,-448.27 1412.36,-441.36"/>
<text text-anchor="middle" x="1475.5" y="-440" font-family="Helvetica,sans-Serif" font-size="10.00"> mpLayer</text>
</g>
<!-- Node5 -->
<g id="node5" class="node">
<title>Node5</title>
<g id="a_node5"><a xlink:href="structnode__lists__tree__class.html" target="_top" xlink:title=" ">
<polygon fill="white" stroke="black" points="1094,-510.5 1094,-529.5 1205,-529.5 1205,-510.5 1094,-510.5"/>
<text text-anchor="middle" x="1149.5" y="-517.5" font-family="Helvetica,sans-Serif" font-size="10.00">node_lists_tree_class</text>
</a>
</g>
</g>
<!-- Node5&#45;&gt;Node4 -->
<g id="edge6" class="edge">
<title>Node5&#45;&gt;Node4</title>
<path fill="none" stroke="#9a32cd" stroke-dasharray="5,2" d="M1215.21,-513.63C1240.05,-509.91 1268.35,-504.07 1293,-495 1316.86,-486.22 1341.74,-470.06 1356.42,-459.69"/>
<polygon fill="#9a32cd" stroke="#9a32cd" points="1214.56,-510.19 1205.15,-515.05 1215.54,-517.12 1214.56,-510.19"/>
<text text-anchor="middle" x="1258" y="-515" font-family="Helvetica,sans-Serif" font-size="10.00"> mNodeListTree</text>
</g>
<!-- Node6&#45;&gt;Node4 -->
<g id="edge38" class="edge">
<title>Node6&#45;&gt;Node4</title>
<path fill="none" stroke="#9a32cd" stroke-dasharray="5,2" d="M977.3,-488.03C1069.86,-479.05 1262.19,-460.4 1337.9,-453.06"/>
<polygon fill="#9a32cd" stroke="#9a32cd" points="976.94,-484.54 967.33,-488.99 977.62,-491.51 976.94,-484.54"/>
<text text-anchor="middle" x="1149.5" y="-480" font-family="Helvetica,sans-Serif" font-size="10.00"> mCancelList</text>
</g>
<!-- Node6&#45;&gt;Node5 -->
<g id="edge7" class="edge">
<title>Node6&#45;&gt;Node5</title>
<path fill="none" stroke="#9a32cd" stroke-dasharray="5,2" d="M977.05,-499.2C1011.96,-503.43 1058.17,-509.04 1093.82,-513.37"/>
<polygon fill="#9a32cd" stroke="#9a32cd" points="977.42,-495.71 967.07,-497.98 976.57,-502.66 977.42,-495.71"/>
<text text-anchor="middle" x="1036" y="-513" font-family="Helvetica,sans-Serif" font-size="10.00"> mpLists</text>
</g>
<!-- Node6&#45;&gt;Node7 -->
<g id="edge37" class="edge">
<title>Node6&#45;&gt;Node7</title>
<path fill="none" stroke="#9a32cd" stroke-dasharray="5,2" d="M953.41,-478.86C966.11,-472.72 981.57,-465.85 996,-461 1028.66,-450.03 1066.44,-441.58 1096.23,-435.84"/>
<polygon fill="#9a32cd" stroke="#9a32cd" points="951.71,-475.79 944.29,-483.36 954.8,-482.07 951.71,-475.79"/>
<text text-anchor="middle" x="1036" y="-464" font-family="Helvetica,sans-Serif" font-size="10.00"> mLayerNodeLists</text>
</g>
<!-- Node7&#45;&gt;Node4 -->
<g id="edge9" class="edge">
<title>Node7&#45;&gt;Node4</title>
<path fill="none" stroke="#9a32cd" stroke-dasharray="5,2" d="M1212.79,-433.54C1253.56,-437.82 1305.12,-443.24 1337.72,-446.66"/>
<polygon fill="#9a32cd" stroke="#9a32cd" points="1212.99,-430.04 1202.68,-432.48 1212.26,-437.01 1212.99,-430.04"/>
<text text-anchor="middle" x="1258" y="-445" font-family="Helvetica,sans-Serif" font-size="10.00"> mpPcNode</text>
</g>
<!-- Node8&#45;&gt;Node7 -->
<g id="edge10" class="edge">
<title>Node8&#45;&gt;Node7</title>
<path fill="none" stroke="#9a32cd" stroke-dasharray="5,2" d="M945.17,-252.46C990.15,-291.07 1101.36,-386.53 1137.18,-417.29"/>
<polygon fill="#9a32cd" stroke="#9a32cd" points="947.21,-249.59 937.34,-245.73 942.65,-254.9 947.21,-249.59"/>
<text text-anchor="middle" x="1036" y="-363" font-family="Helvetica,sans-Serif" font-size="10.00"> mBase</text>
</g>
<!-- Node8&#45;&gt;Node12 -->
<g id="edge21" class="edge">
<title>Node8&#45;&gt;Node12</title>
<path fill="none" stroke="#9a32cd" stroke-dasharray="5,2" d="M988.25,-227.75C1094.43,-213.22 1317.1,-180.83 1503,-141 1516.92,-138.02 1532.12,-134.12 1545.22,-130.55"/>
<polygon fill="#9a32cd" stroke="#9a32cd" points="987.47,-224.32 978.04,-229.14 988.42,-231.26 987.47,-224.32"/>
<text text-anchor="middle" x="1258" y="-196" font-family="Helvetica,sans-Serif" font-size="10.00"> mpRes</text>
</g>
<!-- Node9 -->
<g id="node9" class="node">
<title>Node9</title>
<g id="a_node9"><a xlink:href="structprocess__profile__definition.html" target="_top" xlink:title=" ">
<polygon fill="white" stroke="black" points="649,-379.5 649,-398.5 774,-398.5 774,-379.5 649,-379.5"/>
<text text-anchor="middle" x="711.5" y="-386.5" font-family="Helvetica,sans-Serif" font-size="10.00">process_profile_definition</text>
</a>
</g>
</g>
<!-- Node9&#45;&gt;Node8 -->
<g id="edge11" class="edge">
<title>Node9&#45;&gt;Node8</title>
<path fill="none" stroke="#9a32cd" stroke-dasharray="5,2" d="M734.55,-373.75C762.52,-354.33 812.16,-319.61 854,-289 874.42,-274.06 897.79,-256.21 911.7,-245.51"/>
<polygon fill="#9a32cd" stroke="#9a32cd" points="732.49,-370.92 726.27,-379.49 736.48,-376.67 732.49,-370.92"/>
<text text-anchor="middle" x="823" y="-337" font-family="Helvetica,sans-Serif" font-size="10.00"> mpProf</text>
</g>
<!-- Node10 -->
<g id="node10" class="node">
<title>Node10</title>
<g id="a_node10"><a xlink:href="structprocess__method__class.html" target="_top" xlink:title=" ">
<polygon fill="white" stroke="black" points="142,-384.5 142,-403.5 259,-403.5 259,-384.5 142,-384.5"/>
<text text-anchor="middle" x="200.5" y="-391.5" font-family="Helvetica,sans-Serif" font-size="10.00">process_method_class</text>
</a>
</g>
</g>
<!-- Node10&#45;&gt;Node8 -->
<g id="edge33" class="edge">
<title>Node10&#45;&gt;Node8</title>
<path fill="none" stroke="#9a32cd" stroke-dasharray="5,2" d="M259.04,-382.47C372.94,-359.46 635.07,-305.61 854,-254 865.11,-251.38 877.17,-248.35 888.1,-245.53"/>
<polygon fill="#9a32cd" stroke="#9a32cd" points="258.24,-379.06 249.13,-384.47 259.63,-385.92 258.24,-379.06"/>
<text text-anchor="middle" x="568.5" y="-335" font-family="Helvetica,sans-Serif" font-size="10.00"> mpPcMtd</text>
</g>
<!-- Node10&#45;&gt;Node9 -->
<g id="edge12" class="edge">
<title>Node10&#45;&gt;Node9</title>
<path fill="none" stroke="#9a32cd" stroke-dasharray="5,2" d="M269.64,-389.03C295.15,-387.4 324.39,-385.8 351,-385 455.5,-381.86 577.16,-384.54 648.78,-386.77"/>
<polygon fill="#9a32cd" stroke="#9a32cd" points="269.07,-385.56 259.32,-389.71 269.53,-392.55 269.07,-385.56"/>
<text text-anchor="middle" x="419.5" y="-388" font-family="Helvetica,sans-Serif" font-size="10.00"> mpPcMtd</text>
</g>
<!-- Node11 -->
<g id="node11" class="node">
<title>Node11</title>
<g id="a_node11"><a xlink:href="structleafdraw__method__class.html" target="_top" xlink:title=" ">
<polygon fill="white" stroke="black" points="360,-405.5 360,-424.5 479,-424.5 479,-405.5 360,-405.5"/>
<text text-anchor="middle" x="419.5" y="-412.5" font-family="Helvetica,sans-Serif" font-size="10.00">leafdraw_method_class</text>
</a>
</g>
</g>
<!-- Node10&#45;&gt;Node11 -->
<g id="edge14" class="edge">
<title>Node10&#45;&gt;Node11</title>
<path fill="none" stroke="#9a32cd" stroke-dasharray="5,2" d="M269.16,-400.55C298.24,-403.36 331.9,-406.62 359.89,-409.33"/>
<polygon fill="#9a32cd" stroke="#9a32cd" points="269.37,-397.05 259.08,-399.57 268.7,-404.02 269.37,-397.05"/>
<text text-anchor="middle" x="305" y="-410" font-family="Helvetica,sans-Serif" font-size="10.00"> mBase</text>
</g>
<!-- Node20 -->
<g id="node20" class="node">
<title>Node20</title>
<g id="a_node20"><a xlink:href="structnodedraw__method__class.html" target="_top" xlink:title=" ">
<polygon fill="white" stroke="black" points="506,-441.5 506,-460.5 631,-460.5 631,-441.5 506,-441.5"/>
<text text-anchor="middle" x="568.5" y="-448.5" font-family="Helvetica,sans-Serif" font-size="10.00">nodedraw_method_class</text>
</a>
</g>
</g>
<!-- Node10&#45;&gt;Node20 -->
<g id="edge35" class="edge">
<title>Node10&#45;&gt;Node20</title>
<path fill="none" stroke="#9a32cd" stroke-dasharray="5,2" d="M233.54,-407.45C246.81,-412.61 262.46,-418.16 277,-422 354.19,-442.36 446.36,-448.65 505.86,-450.47"/>
<polygon fill="#9a32cd" stroke="#9a32cd" points="234.51,-404.07 223.93,-403.63 231.92,-410.58 234.51,-404.07"/>
<text text-anchor="middle" x="305" y="-438" font-family="Helvetica,sans-Serif" font-size="10.00"> mBase</text>
</g>
<!-- Node11&#45;&gt;Node9 -->
<g id="edge13" class="edge">
<title>Node11&#45;&gt;Node9</title>
<path fill="none" stroke="#9a32cd" stroke-dasharray="5,2" d="M489.28,-408.83C537.75,-404.49 602.1,-398.72 648.9,-394.52"/>
<polygon fill="#9a32cd" stroke="#9a32cd" points="488.83,-405.36 479.19,-409.74 489.46,-412.33 488.83,-405.36"/>
<text text-anchor="middle" x="568.5" y="-422" font-family="Helvetica,sans-Serif" font-size="10.00"> mLfDrwMth</text>
<text text-anchor="middle" x="568.5" y="-411" font-family="Helvetica,sans-Serif" font-size="10.00">mMethods</text>
</g>
<!-- Node12&#45;&gt;Node8 -->
<g id="edge15" class="edge">
<title>Node12&#45;&gt;Node8</title>
<path fill="none" stroke="#9a32cd" stroke-dasharray="5,2" d="M1528.76,-122.98C1426.81,-128.13 1187.58,-145.79 996,-203 976.95,-208.69 956.53,-218.83 942.69,-226.37"/>
<polygon fill="#9a32cd" stroke="#9a32cd" points="1528.96,-126.48 1538.78,-122.49 1528.62,-119.48 1528.96,-126.48"/>
<text text-anchor="middle" x="1258" y="-157" font-family="Helvetica,sans-Serif" font-size="10.00"> mpCtRq</text>
</g>
<!-- Node13&#45;&gt;Node12 -->
<g id="edge16" class="edge">
<title>Node13&#45;&gt;Node12</title>
<path fill="none" stroke="#9a32cd" stroke-dasharray="5,2" d="M864.19,-16.69C906.53,-9.63 975.22,0 1035,0 1035,0 1035,0 1371.5,0 1382.71,0 1500.67,-43.52 1503,-45 1532.37,-63.63 1559.12,-95.6 1571.4,-111.47"/>
<polygon fill="#9a32cd" stroke="#9a32cd" points="863.55,-13.25 854.28,-18.37 864.72,-20.15 863.55,-13.25"/>
<text text-anchor="middle" x="1149.5" y="-3" font-family="Helvetica,sans-Serif" font-size="10.00"> mBase</text>
</g>
<!-- Node14&#45;&gt;Node12 -->
<g id="edge18" class="edge">
<title>Node14&#45;&gt;Node12</title>
<path fill="none" stroke="#9a32cd" stroke-dasharray="5,2" d="M483.52,-88.85C693.84,-95.03 1368.01,-114.82 1538.86,-119.84"/>
<polygon fill="#9a32cd" stroke="#9a32cd" points="483.36,-85.34 473.27,-88.55 483.16,-92.34 483.36,-85.34"/>
<text text-anchor="middle" x="1036" y="-110" font-family="Helvetica,sans-Serif" font-size="10.00"> mMtdTg</text>
</g>
<!-- Node14&#45;&gt;Node18 -->
<g id="edge31" class="edge">
<title>Node14&#45;&gt;Node18</title>
<path fill="none" stroke="#9a32cd" stroke-dasharray="5,2" d="M483.42,-92.69C525.54,-97.22 582.02,-104.71 631,-116 649.4,-120.24 669.61,-126.88 685.05,-132.39"/>
<polygon fill="#9a32cd" stroke="#9a32cd" points="483.62,-89.19 473.31,-91.63 482.89,-96.15 483.62,-89.19"/>
<text text-anchor="middle" x="568.5" y="-119" font-family="Helvetica,sans-Serif" font-size="10.00"> mMtdTag</text>
</g>
<!-- Node15 -->
<g id="node15" class="node">
<title>Node15</title>
<g id="a_node15"><a xlink:href="structcreate__request__method__class.html" target="_top" xlink:title=" ">
<polygon fill="white" stroke="black" points="1311,-29 1311,-59 1430,-59 1430,-29 1311,-29"/>
<text text-anchor="start" x="1319" y="-47" font-family="Helvetica,sans-Serif" font-size="10.00">create_request_method</text>
<text text-anchor="middle" x="1370.5" y="-36" font-family="Helvetica,sans-Serif" font-size="10.00">_class</text>
</a>
</g>
</g>
<!-- Node15&#45;&gt;Node12 -->
<g id="edge20" class="edge">
<title>Node15&#45;&gt;Node12</title>
<path fill="none" stroke="#9a32cd" stroke-dasharray="5,2" d="M1440.22,-47.25C1460.99,-49.98 1483.46,-54.75 1503,-63 1530.11,-74.44 1556.02,-98.01 1569.29,-111.31"/>
<polygon fill="#9a32cd" stroke="#9a32cd" points="1440.52,-43.76 1430.18,-46.07 1439.7,-50.71 1440.52,-43.76"/>
<text text-anchor="middle" x="1475.5" y="-66" font-family="Helvetica,sans-Serif" font-size="10.00"> mpCtRqMtd</text>
</g>
<!-- Node16&#45;&gt;Node8 -->
<g id="edge23" class="edge">
<title>Node16&#45;&gt;Node8</title>
<path fill="none" stroke="#9a32cd" stroke-dasharray="5,2" d="M1510.7,-337.39C1508.1,-336.92 1505.53,-336.45 1503,-336 1309.61,-301.31 1079.39,-262.01 978.15,-244.83"/>
<polygon fill="#9a32cd" stroke="#9a32cd" points="1510.34,-340.88 1520.8,-339.23 1511.59,-333.99 1510.34,-340.88"/>
<text text-anchor="middle" x="1258" y="-302" font-family="Helvetica,sans-Serif" font-size="10.00"> mLyTg</text>
</g>
<!-- Node17&#45;&gt;Node8 -->
<g id="edge26" class="edge">
<title>Node17&#45;&gt;Node8</title>
<path fill="none" stroke="#9a32cd" stroke-dasharray="5,2" d="M603.96,-206.77C617.92,-205.26 634.21,-203.74 649,-203 704.49,-200.22 718.77,-197 774,-203 814.69,-207.42 860.51,-218.41 890.69,-226.49"/>
<polygon fill="#9a32cd" stroke="#9a32cd" points="603.35,-203.32 593.81,-207.92 604.14,-210.27 603.35,-203.32"/>
<text text-anchor="middle" x="711.5" y="-206" font-family="Helvetica,sans-Serif" font-size="10.00"> mLnTg</text>
</g>
<!-- Node18&#45;&gt;Node8 -->
<g id="edge29" class="edge">
<title>Node18&#45;&gt;Node8</title>
<path fill="none" stroke="#9a32cd" stroke-dasharray="5,2" d="M778.2,-143.46C803.05,-146.21 830.9,-152.07 854,-164 882.96,-178.96 906.96,-210.48 917.8,-226.39"/>
<polygon fill="#9a32cd" stroke="#9a32cd" points="778.41,-139.96 768.12,-142.49 777.74,-146.93 778.41,-139.96"/>
<text text-anchor="middle" x="823" y="-167" font-family="Helvetica,sans-Serif" font-size="10.00"> mPi</text>
</g>
<!-- Node19 -->
<g id="node19" class="node">
<title>Node19</title>
<g id="a_node19"><a xlink:href="structprocess__priority__queue__info.html" target="_top" xlink:title=" ">
<polygon fill="white" stroke="black" points="351,-168.5 351,-187.5 488,-187.5 488,-168.5 351,-168.5"/>
<text text-anchor="middle" x="419.5" y="-175.5" font-family="Helvetica,sans-Serif" font-size="10.00">process_priority_queue_info</text>
</a>
</g>
</g>
<!-- Node19&#45;&gt;Node18 -->
<g id="edge32" class="edge">
<title>Node19&#45;&gt;Node18</title>
<path fill="none" stroke="#9a32cd" stroke-dasharray="5,2" d="M498.43,-168.42C538.12,-163.53 587.13,-157.47 631,-152 638.73,-151.04 646.88,-150.02 654.9,-149.01"/>
<polygon fill="#9a32cd" stroke="#9a32cd" points="497.78,-164.97 488.29,-169.67 498.64,-171.92 497.78,-164.97"/>
<text text-anchor="middle" x="568.5" y="-181" font-family="Helvetica,sans-Serif" font-size="10.00"> mInfoCurr</text>
<text text-anchor="middle" x="568.5" y="-170" font-family="Helvetica,sans-Serif" font-size="10.00">mInfoQ</text>
</g>
<!-- Node20&#45;&gt;Node7 -->
<g id="edge34" class="edge">
<title>Node20&#45;&gt;Node7</title>
<path fill="none" stroke="#9a32cd" stroke-dasharray="5,2" d="M641.22,-448.03C759.39,-443.13 992.24,-433.48 1096.21,-429.17"/>
<polygon fill="#9a32cd" stroke="#9a32cd" points="641.04,-444.53 631.19,-448.44 641.33,-451.53 641.04,-444.53"/>
<text text-anchor="middle" x="823" y="-445" font-family="Helvetica,sans-Serif" font-size="10.00"> mpNodeMtd</text>
</g>
</g>
</svg>
