<?xml version="1.0" encoding="UTF-8" standalone="no"?>
<!DOCTYPE svg PUBLIC "-//W3C//DTD SVG 1.1//EN"
 "http://www.w3.org/Graphics/SVG/1.1/DTD/svg11.dtd">
<!-- Generated by graphviz version 2.50.0 (20220203.2022)
 -->
<!-- Title: libs/Z2AudioLib/Z2Calc.cpp Pages: 1 -->
<svg width="439pt" height="207pt"
 viewBox="0.00 0.00 438.50 207.00" xmlns="http://www.w3.org/2000/svg" xmlns:xlink="http://www.w3.org/1999/xlink">
<g id="graph0" class="graph" transform="scale(1 1) rotate(0) translate(4 203)">
<title>libs/Z2AudioLib/Z2Calc.cpp</title>
<polygon fill="white" stroke="transparent" points="-4,4 -4,-203 434.5,-203 434.5,4 -4,4"/>
<!-- Node1 -->
<g id="node1" class="node">
<title>Node1</title>
<g id="a_node1"><a xlink:title=" ">
<polygon fill="#bfbfbf" stroke="black" points="166.5,-179.5 166.5,-198.5 302.5,-198.5 302.5,-179.5 166.5,-179.5"/>
<text text-anchor="middle" x="234.5" y="-186.5" font-family="Helvetica,sans-Serif" font-size="10.00">libs/Z2AudioLib/Z2Calc.cpp</text>
</a>
</g>
</g>
<!-- Node2 -->
<g id="node2" class="node">
<title>Node2</title>
<g id="a_node2"><a xlink:href="Z2Calc_8h.html" target="_top" xlink:title=" ">
<polygon fill="white" stroke="black" points="0,-62 0,-81 107,-81 107,-62 0,-62"/>
<text text-anchor="middle" x="53.5" y="-69" font-family="Helvetica,sans-Serif" font-size="10.00">Z2AudioLib/Z2Calc.h</text>
</a>
</g>
</g>
<!-- Node1&#45;&gt;Node2 -->
<g id="edge1" class="edge">
<title>Node1&#45;&gt;Node2</title>
<path fill="none" stroke="midnightblue" d="M166.36,-180.35C119.51,-173.52 63.19,-161.67 48.5,-143 37.03,-128.43 40.85,-106.49 45.9,-90.96"/>
<polygon fill="midnightblue" stroke="midnightblue" points="49.24,-92 49.42,-81.41 42.68,-89.58 49.24,-92"/>
</g>
<!-- Node4 -->
<g id="node4" class="node">
<title>Node4</title>
<g id="a_node4"><a xlink:href="random_8h.html" target="_top" xlink:title=" ">
<polygon fill="white" stroke="black" points="57.5,-123.5 57.5,-142.5 185.5,-142.5 185.5,-123.5 57.5,-123.5"/>
<text text-anchor="middle" x="121.5" y="-130.5" font-family="Helvetica,sans-Serif" font-size="10.00">JSystem/JMath/random.h</text>
</a>
</g>
</g>
<!-- Node1&#45;&gt;Node4 -->
<g id="edge3" class="edge">
<title>Node1&#45;&gt;Node4</title>
<path fill="none" stroke="midnightblue" d="M216.59,-179.44C198.25,-170.68 169.49,-156.94 148.41,-146.86"/>
<polygon fill="midnightblue" stroke="midnightblue" points="149.85,-143.67 139.32,-142.52 146.83,-149.99 149.85,-143.67"/>
</g>
<!-- Node5 -->
<g id="node5" class="node">
<title>Node5</title>
<g id="a_node5"><a xlink:href="dol2asm_8h.html" target="_top" xlink:title=" ">
<polygon fill="white" stroke="black" points="204,-123.5 204,-142.5 265,-142.5 265,-123.5 204,-123.5"/>
<text text-anchor="middle" x="234.5" y="-130.5" font-family="Helvetica,sans-Serif" font-size="10.00">dol2asm.h</text>
</a>
</g>
</g>
<!-- Node1&#45;&gt;Node5 -->
<g id="edge5" class="edge">
<title>Node1&#45;&gt;Node5</title>
<path fill="none" stroke="midnightblue" d="M234.5,-179.08C234.5,-172.01 234.5,-161.86 234.5,-152.99"/>
<polygon fill="midnightblue" stroke="midnightblue" points="238,-152.75 234.5,-142.75 231,-152.75 238,-152.75"/>
</g>
<!-- Node6 -->
<g id="node6" class="node">
<title>Node6</title>
<g id="a_node6"><a xlink:href="global_8h.html" target="_top" xlink:title=" ">
<polygon fill="white" stroke="black" points="188.5,-62 188.5,-81 238.5,-81 238.5,-62 188.5,-62"/>
<text text-anchor="middle" x="213.5" y="-69" font-family="Helvetica,sans-Serif" font-size="10.00">global.h</text>
</a>
</g>
</g>
<!-- Node1&#45;&gt;Node6 -->
<g id="edge6" class="edge">
<title>Node1&#45;&gt;Node6</title>
<path fill="none" stroke="midnightblue" d="M245.91,-179.49C260.67,-167.37 283.38,-144.24 273.5,-123 266.31,-107.55 251.82,-95.14 238.87,-86.49"/>
<polygon fill="midnightblue" stroke="midnightblue" points="240.61,-83.44 230.27,-81.11 236.89,-89.38 240.61,-83.44"/>
</g>
<!-- Node7 -->
<g id="node7" class="node">
<title>Node7</title>
<g id="a_node7"><a xlink:href="math_8h.html" target="_top" xlink:title=" ">
<polygon fill="white" stroke="black" points="321.5,-123.5 321.5,-142.5 403.5,-142.5 403.5,-123.5 321.5,-123.5"/>
<text text-anchor="middle" x="362.5" y="-130.5" font-family="Helvetica,sans-Serif" font-size="10.00">MSL_C/math.h</text>
</a>
</g>
</g>
<!-- Node1&#45;&gt;Node7 -->
<g id="edge8" class="edge">
<title>Node1&#45;&gt;Node7</title>
<path fill="none" stroke="midnightblue" d="M254.78,-179.44C275.85,-170.56 309.02,-156.56 332.99,-146.45"/>
<polygon fill="midnightblue" stroke="midnightblue" points="334.46,-149.63 342.31,-142.52 331.74,-143.18 334.46,-149.63"/>
</g>
<!-- Node3 -->
<g id="node3" class="node">
<title>Node3</title>
<g id="a_node3"><a xlink:href="types_8h.html" target="_top" xlink:title=" ">
<polygon fill="white" stroke="black" points="173,-0.5 173,-19.5 254,-19.5 254,-0.5 173,-0.5"/>
<text text-anchor="middle" x="213.5" y="-7.5" font-family="Helvetica,sans-Serif" font-size="10.00">dolphin/types.h</text>
</a>
</g>
</g>
<!-- Node2&#45;&gt;Node3 -->
<g id="edge2" class="edge">
<title>Node2&#45;&gt;Node3</title>
<path fill="none" stroke="midnightblue" d="M76.42,-61.98C103.87,-51.77 150.02,-34.61 181.1,-23.05"/>
<polygon fill="midnightblue" stroke="midnightblue" points="182.47,-26.28 190.62,-19.51 180.03,-19.71 182.47,-26.28"/>
</g>
<!-- Node4&#45;&gt;Node3 -->
<g id="edge4" class="edge">
<title>Node4&#45;&gt;Node3</title>
<path fill="none" stroke="midnightblue" d="M128.12,-123.3C143.3,-103.33 180.87,-53.92 200.72,-27.8"/>
<polygon fill="midnightblue" stroke="midnightblue" points="203.68,-29.7 206.94,-19.62 198.1,-25.47 203.68,-29.7"/>
</g>
<!-- Node6&#45;&gt;Node3 -->
<g id="edge7" class="edge">
<title>Node6&#45;&gt;Node3</title>
<path fill="none" stroke="midnightblue" d="M213.5,-61.98C213.5,-53.58 213.5,-40.48 213.5,-29.66"/>
<polygon fill="midnightblue" stroke="midnightblue" points="217,-29.51 213.5,-19.51 210,-29.51 217,-29.51"/>
</g>
<!-- Node7&#45;&gt;Node3 -->
<g id="edge11" class="edge">
<title>Node7&#45;&gt;Node3</title>
<path fill="none" stroke="midnightblue" d="M344.78,-123.48C328.56,-115.27 304.3,-101.92 285.5,-87 262.91,-69.08 240.67,-44.19 227.02,-27.85"/>
<polygon fill="midnightblue" stroke="midnightblue" points="229.42,-25.25 220.38,-19.74 224.01,-29.69 229.42,-25.25"/>
</g>
<!-- Node8 -->
<g id="node8" class="node">
<title>Node8</title>
<g id="a_node8"><a xlink:href="float_8h.html" target="_top" xlink:title=" ">
<polygon fill="white" stroke="black" points="294.5,-56.5 294.5,-86.5 430.5,-86.5 430.5,-56.5 294.5,-56.5"/>
<text text-anchor="start" x="302.5" y="-74.5" font-family="Helvetica,sans-Serif" font-size="10.00">MSL_C/MSL_Common/Src</text>
<text text-anchor="middle" x="362.5" y="-63.5" font-family="Helvetica,sans-Serif" font-size="10.00">/float.h</text>
</a>
</g>
</g>
<!-- Node7&#45;&gt;Node8 -->
<g id="edge9" class="edge">
<title>Node7&#45;&gt;Node8</title>
<path fill="none" stroke="midnightblue" d="M362.5,-123.48C362.5,-116.47 362.5,-106.19 362.5,-96.7"/>
<polygon fill="midnightblue" stroke="midnightblue" points="366,-96.52 362.5,-86.52 359,-96.52 366,-96.52"/>
</g>
<!-- Node8&#45;&gt;Node3 -->
<g id="edge10" class="edge">
<title>Node8&#45;&gt;Node3</title>
<path fill="none" stroke="midnightblue" d="M327.19,-56.4C302.08,-46.37 268.66,-33.03 244.56,-23.4"/>
<polygon fill="midnightblue" stroke="midnightblue" points="245.77,-20.12 235.18,-19.66 243.17,-26.62 245.77,-20.12"/>
</g>
</g>
</svg>
