<?xml version="1.0" encoding="UTF-8" standalone="no"?>
<!DOCTYPE svg PUBLIC "-//W3C//DTD SVG 1.1//EN"
 "http://www.w3.org/Graphics/SVG/1.1/DTD/svg11.dtd">
<!-- Generated by graphviz version 2.50.0 (20220203.2022)
 -->
<!-- Title: include/Z2AudioLib/Z2Creature.h Pages: 1 -->
<svg width="4882pt" height="307pt"
 viewBox="0.00 0.00 4882.00 307.00" xmlns="http://www.w3.org/2000/svg" xmlns:xlink="http://www.w3.org/1999/xlink">
<g id="graph0" class="graph" transform="scale(1 1) rotate(0) translate(4 303)">
<title>include/Z2AudioLib/Z2Creature.h</title>
<polygon fill="white" stroke="transparent" points="-4,4 -4,-303 4878,-303 4878,4 -4,4"/>
<!-- Node1 -->
<g id="node1" class="node">
<title>Node1</title>
<g id="a_node1"><a xlink:title=" ">
<polygon fill="#bfbfbf" stroke="black" points="4432,-268.5 4432,-298.5 4532,-298.5 4532,-268.5 4432,-268.5"/>
<text text-anchor="start" x="4440" y="-286.5" font-family="Helvetica,sans-Serif" font-size="10.00">include/Z2AudioLib</text>
<text text-anchor="middle" x="4482" y="-275.5" font-family="Helvetica,sans-Serif" font-size="10.00">/Z2Creature.h</text>
</a>
</g>
</g>
<!-- Node2 -->
<g id="node2" class="node">
<title>Node2</title>
<g id="a_node2"><a xlink:href="Z2SoundObjMgr_8h.html" target="_top" xlink:title=" ">
<polygon fill="white" stroke="black" points="1420,-201.5 1420,-231.5 1520,-231.5 1520,-201.5 1420,-201.5"/>
<text text-anchor="start" x="1428" y="-219.5" font-family="Helvetica,sans-Serif" font-size="10.00">include/Z2AudioLib</text>
<text text-anchor="middle" x="1470" y="-208.5" font-family="Helvetica,sans-Serif" font-size="10.00">/Z2SoundObjMgr.h</text>
</a>
</g>
</g>
<!-- Node1&#45;&gt;Node2 -->
<g id="edge1" class="edge">
<title>Node1&#45;&gt;Node2</title>
<path fill="none" stroke="midnightblue" d="M4421.72,-281.2C4032.32,-272.8 1877.12,-226.29 1520.11,-218.58"/>
<polygon fill="midnightblue" stroke="midnightblue" points="4421.85,-284.7 4431.92,-281.42 4422,-277.7 4421.85,-284.7"/>
</g>
<!-- Node16 -->
<g id="node13" class="node">
<title>Node16</title>
<g id="a_node13"><a xlink:href="d__a__alink_8h.html" target="_top" xlink:title=" ">
<polygon fill="white" stroke="black" points="4258,-207 4258,-226 4374,-226 4374,-207 4258,-207"/>
<text text-anchor="middle" x="4316" y="-214" font-family="Helvetica,sans-Serif" font-size="10.00">include/d/a/d_a_alink.h</text>
</a>
</g>
</g>
<!-- Node1&#45;&gt;Node16 -->
<g id="edge13" class="edge">
<title>Node1&#45;&gt;Node16</title>
<path fill="none" stroke="midnightblue" d="M4436.34,-264.62C4404.21,-252.04 4362.65,-235.77 4337.73,-226.01"/>
<polygon fill="midnightblue" stroke="midnightblue" points="4435.39,-268.01 4445.98,-268.4 4437.95,-261.49 4435.39,-268.01"/>
</g>
<!-- Node55 -->
<g id="node45" class="node">
<title>Node55</title>
<g id="a_node45"><a xlink:href="d__a__horse_8h.html" target="_top" xlink:title=" ">
<polygon fill="white" stroke="black" points="4392.5,-201.5 4392.5,-231.5 4493.5,-231.5 4493.5,-201.5 4392.5,-201.5"/>
<text text-anchor="start" x="4400.5" y="-219.5" font-family="Helvetica,sans-Serif" font-size="10.00">include/rel/d/a/d_a</text>
<text text-anchor="middle" x="4443" y="-208.5" font-family="Helvetica,sans-Serif" font-size="10.00">_horse/d_a_horse.h</text>
</a>
</g>
</g>
<!-- Node1&#45;&gt;Node55 -->
<g id="edge59" class="edge">
<title>Node1&#45;&gt;Node55</title>
<path fill="none" stroke="midnightblue" d="M4468.25,-259.58C4462.64,-250.24 4456.35,-239.75 4451.45,-231.58"/>
<polygon fill="midnightblue" stroke="midnightblue" points="4465.39,-261.62 4473.54,-268.4 4471.39,-258.02 4465.39,-261.62"/>
</g>
<!-- Node56 -->
<g id="node46" class="node">
<title>Node56</title>
<g id="a_node46"><a xlink:href="d__a__e__wb_8h.html" target="_top" xlink:title=" ">
<polygon fill="white" stroke="black" points="4469,-134.5 4469,-164.5 4579,-164.5 4579,-134.5 4469,-134.5"/>
<text text-anchor="start" x="4477" y="-152.5" font-family="Helvetica,sans-Serif" font-size="10.00">include/rel/d/a/e/d</text>
<text text-anchor="middle" x="4524" y="-141.5" font-family="Helvetica,sans-Serif" font-size="10.00">_a_e_wb/d_a_e_wb.h</text>
</a>
</g>
</g>
<!-- Node1&#45;&gt;Node56 -->
<g id="edge65" class="edge">
<title>Node1&#45;&gt;Node56</title>
<path fill="none" stroke="midnightblue" d="M4492.11,-258.59C4495.47,-250.25 4499.09,-240.78 4502,-232 4509.71,-208.77 4516.72,-181.17 4520.67,-164.78"/>
<polygon fill="midnightblue" stroke="midnightblue" points="4488.78,-257.5 4488.22,-268.08 4495.25,-260.15 4488.78,-257.5"/>
</g>
<!-- Node59 -->
<g id="node49" class="node">
<title>Node59</title>
<g id="a_node49"><a xlink:href="Z2Creature_8cpp.html" target="_top" xlink:title=" ">
<polygon fill="white" stroke="black" points="4550.5,-207 4550.5,-226 4703.5,-226 4703.5,-207 4550.5,-207"/>
<text text-anchor="middle" x="4627" y="-214" font-family="Helvetica,sans-Serif" font-size="10.00">libs/Z2AudioLib/Z2Creature.cpp</text>
</a>
</g>
</g>
<!-- Node1&#45;&gt;Node59 -->
<g id="edge66" class="edge">
<title>Node1&#45;&gt;Node59</title>
<path fill="none" stroke="midnightblue" d="M4522.61,-264.3C4550.57,-251.76 4586.44,-235.68 4608.02,-226.01"/>
<polygon fill="midnightblue" stroke="midnightblue" points="4521.16,-261.11 4513.46,-268.4 4524.02,-267.5 4521.16,-261.11"/>
</g>
<!-- Node60 -->
<g id="node50" class="node">
<title>Node60</title>
<g id="a_node50"><a xlink:href="Z2LinkMgr_8cpp.html" target="_top" xlink:title=" ">
<polygon fill="white" stroke="black" points="4722,-207 4722,-226 4874,-226 4874,-207 4722,-207"/>
<text text-anchor="middle" x="4798" y="-214" font-family="Helvetica,sans-Serif" font-size="10.00">libs/Z2AudioLib/Z2LinkMgr.cpp</text>
</a>
</g>
</g>
<!-- Node1&#45;&gt;Node60 -->
<g id="edge67" class="edge">
<title>Node1&#45;&gt;Node60</title>
<path fill="none" stroke="midnightblue" d="M4542.21,-270.11C4604.9,-257.22 4701.44,-237.36 4756.24,-226.09"/>
<polygon fill="midnightblue" stroke="midnightblue" points="4541.16,-266.76 4532.07,-272.2 4542.57,-273.61 4541.16,-266.76"/>
</g>
<!-- Node3 -->
<g id="node3" class="node">
<title>Node3</title>
<g id="a_node3"><a xlink:href="Z2AudioMgr_8h.html" target="_top" xlink:title=" ">
<polygon fill="white" stroke="black" points="332,-134.5 332,-164.5 432,-164.5 432,-134.5 332,-134.5"/>
<text text-anchor="start" x="340" y="-152.5" font-family="Helvetica,sans-Serif" font-size="10.00">include/Z2AudioLib</text>
<text text-anchor="middle" x="382" y="-141.5" font-family="Helvetica,sans-Serif" font-size="10.00">/Z2AudioMgr.h</text>
</a>
</g>
</g>
<!-- Node2&#45;&gt;Node3 -->
<g id="edge2" class="edge">
<title>Node2&#45;&gt;Node3</title>
<path fill="none" stroke="midnightblue" d="M1409.7,-211.9C1215.8,-200.31 610.63,-164.16 432.07,-153.49"/>
<polygon fill="midnightblue" stroke="midnightblue" points="1409.51,-215.39 1419.71,-212.5 1409.93,-208.41 1409.51,-215.39"/>
</g>
<!-- Node15 -->
<g id="node12" class="node">
<title>Node15</title>
<g id="a_node12"><a xlink:href="Z2SoundObjMgr_8cpp.html" target="_top" xlink:title=" ">
<polygon fill="white" stroke="black" points="1399.5,-134.5 1399.5,-164.5 1540.5,-164.5 1540.5,-134.5 1399.5,-134.5"/>
<text text-anchor="start" x="1407.5" y="-152.5" font-family="Helvetica,sans-Serif" font-size="10.00">libs/Z2AudioLib/Z2SoundObj</text>
<text text-anchor="middle" x="1470" y="-141.5" font-family="Helvetica,sans-Serif" font-size="10.00">Mgr.cpp</text>
</a>
</g>
</g>
<!-- Node2&#45;&gt;Node15 -->
<g id="edge12" class="edge">
<title>Node2&#45;&gt;Node15</title>
<path fill="none" stroke="midnightblue" d="M1470,-191.11C1470,-182.15 1470,-172.32 1470,-164.58"/>
<polygon fill="midnightblue" stroke="midnightblue" points="1466.5,-191.4 1470,-201.4 1473.5,-191.4 1466.5,-191.4"/>
</g>
<!-- Node4 -->
<g id="node4" class="node">
<title>Node4</title>
<g id="a_node4"><a xlink:href="m__Do__audio_8h.html" target="_top" xlink:title=" ">
<polygon fill="white" stroke="red" points="176,-73 176,-92 316,-92 316,-73 176,-73"/>
<text text-anchor="middle" x="246" y="-80" font-family="Helvetica,sans-Serif" font-size="10.00">include/m_Do/m_Do_audio.h</text>
</a>
</g>
</g>
<!-- Node3&#45;&gt;Node4 -->
<g id="edge3" class="edge">
<title>Node3&#45;&gt;Node4</title>
<path fill="none" stroke="midnightblue" d="M343.22,-129.97C317.1,-117.48 283.87,-101.6 263.8,-92.01"/>
<polygon fill="midnightblue" stroke="midnightblue" points="341.96,-133.24 352.49,-134.4 344.98,-126.93 341.96,-133.24"/>
</g>
<!-- Node5 -->
<g id="node5" class="node">
<title>Node5</title>
<g id="a_node5"><a xlink:href="d__a__alink_8cpp.html" target="_top" xlink:title=" ">
<polygon fill="white" stroke="black" points="4062.5,-6 4062.5,-25 4171.5,-25 4171.5,-6 4062.5,-6"/>
<text text-anchor="middle" x="4117" y="-13" font-family="Helvetica,sans-Serif" font-size="10.00">src/d/a/d_a_alink.cpp</text>
</a>
</g>
</g>
<!-- Node3&#45;&gt;Node5 -->
<g id="edge8" class="edge">
<title>Node3&#45;&gt;Node5</title>
<path fill="none" stroke="midnightblue" d="M391.16,-124.98C400.13,-105.54 415.85,-79.22 439,-67 521.62,-23.4 3708.62,-33.65 3802,-31 3893.39,-28.41 3999.59,-23.03 4062.39,-19.6"/>
<polygon fill="midnightblue" stroke="midnightblue" points="387.84,-123.84 387.08,-134.41 394.26,-126.62 387.84,-123.84"/>
</g>
<!-- Node11 -->
<g id="node8" class="node">
<title>Node11</title>
<g id="a_node8"><a xlink:href="Z2AudioMgr_8cpp.html" target="_top" xlink:title=" ">
<polygon fill="white" stroke="black" points="0,-73 0,-92 158,-92 158,-73 0,-73"/>
<text text-anchor="middle" x="79" y="-80" font-family="Helvetica,sans-Serif" font-size="10.00">libs/Z2AudioLib/Z2AudioMgr.cpp</text>
</a>
</g>
</g>
<!-- Node3&#45;&gt;Node11 -->
<g id="edge7" class="edge">
<title>Node3&#45;&gt;Node11</title>
<path fill="none" stroke="midnightblue" d="M321.84,-135.59C261.65,-122.68 170.76,-103.18 118.94,-92.07"/>
<polygon fill="midnightblue" stroke="midnightblue" points="321.45,-139.09 331.97,-137.77 322.92,-132.25 321.45,-139.09"/>
</g>
<!-- Node12 -->
<g id="node9" class="node">
<title>Node12</title>
<g id="a_node9"><a xlink:href="d__menu__window_8cpp.html" target="_top" xlink:title=" ">
<polygon fill="white" stroke="black" points="651.5,-6 651.5,-25 810.5,-25 810.5,-6 651.5,-6"/>
<text text-anchor="middle" x="731" y="-13" font-family="Helvetica,sans-Serif" font-size="10.00">src/d/menu/d_menu_window.cpp</text>
</a>
</g>
</g>
<!-- Node3&#45;&gt;Node12 -->
<g id="edge9" class="edge">
<title>Node3&#45;&gt;Node12</title>
<path fill="none" stroke="midnightblue" d="M368.81,-125.01C360.67,-107.04 354.18,-82.75 368,-67 408.5,-20.83 581.24,-39.94 642,-31 654.39,-29.18 667.73,-27.08 680.21,-25.05"/>
<polygon fill="midnightblue" stroke="midnightblue" points="365.8,-126.83 373.37,-134.24 372.08,-123.73 365.8,-126.83"/>
</g>
<!-- Node13 -->
<g id="node10" class="node">
<title>Node13</title>
<g id="a_node10"><a xlink:href="d__meter__map_8cpp.html" target="_top" xlink:title=" ">
<polygon fill="white" stroke="black" points="2931,-0.5 2931,-30.5 3035,-30.5 3035,-0.5 2931,-0.5"/>
<text text-anchor="start" x="2939" y="-18.5" font-family="Helvetica,sans-Serif" font-size="10.00">src/d/meter/d_meter</text>
<text text-anchor="middle" x="2983" y="-7.5" font-family="Helvetica,sans-Serif" font-size="10.00">_map.cpp</text>
</a>
</g>
</g>
<!-- Node3&#45;&gt;Node13 -->
<g id="edge10" class="edge">
<title>Node3&#45;&gt;Node13</title>
<path fill="none" stroke="midnightblue" d="M381.97,-123.96C383.4,-105.12 388.75,-80.17 406,-67 458.05,-27.27 2570.31,-17.97 2930.91,-16.67"/>
<polygon fill="midnightblue" stroke="midnightblue" points="378.46,-124.07 381.52,-134.21 385.46,-124.38 378.46,-124.07"/>
</g>
<!-- Node14 -->
<g id="node11" class="node">
<title>Node14</title>
<g id="a_node11"><a xlink:href="d__save_8cpp.html" target="_top" xlink:title=" ">
<polygon fill="white" stroke="black" points="448.5,-73 448.5,-92 563.5,-92 563.5,-73 448.5,-73"/>
<text text-anchor="middle" x="506" y="-80" font-family="Helvetica,sans-Serif" font-size="10.00">src/d/save/d_save.cpp</text>
</a>
</g>
</g>
<!-- Node3&#45;&gt;Node14 -->
<g id="edge11" class="edge">
<title>Node3&#45;&gt;Node14</title>
<path fill="none" stroke="midnightblue" d="M417.98,-129.64C441.71,-117.2 471.64,-101.51 489.77,-92.01"/>
<polygon fill="midnightblue" stroke="midnightblue" points="416.14,-126.65 408.91,-134.4 419.39,-132.85 416.14,-126.65"/>
</g>
<!-- Node4&#45;&gt;Node5 -->
<g id="edge4" class="edge">
<title>Node4&#45;&gt;Node5</title>
<path fill="none" stroke="midnightblue" d="M326.01,-72.99C351.54,-70.61 379.93,-68.32 406,-67 1913.49,9.18 2293.19,-73.71 3802,-31 3893.39,-28.41 3999.59,-23.03 4062.39,-19.6"/>
<polygon fill="midnightblue" stroke="midnightblue" points="325.63,-69.51 316.01,-73.94 326.3,-76.48 325.63,-69.51"/>
</g>
<!-- Node6 -->
<g id="node6" class="node">
<title>Node6</title>
<g id="a_node6"><a xlink:href="d__kankyo_8cpp.html" target="_top" xlink:title=" ">
<polygon fill="white" stroke="black" points="499,-6 499,-25 633,-25 633,-6 499,-6"/>
<text text-anchor="middle" x="566" y="-13" font-family="Helvetica,sans-Serif" font-size="10.00">src/d/kankyo/d_kankyo.cpp</text>
</a>
</g>
</g>
<!-- Node4&#45;&gt;Node6 -->
<g id="edge5" class="edge">
<title>Node4&#45;&gt;Node6</title>
<path fill="none" stroke="midnightblue" d="M298.29,-70.88C361.31,-58.08 465.97,-36.82 524,-25.03"/>
<polygon fill="midnightblue" stroke="midnightblue" points="297.27,-67.51 288.16,-72.94 298.66,-74.37 297.27,-67.51"/>
</g>
<!-- Node7 -->
<g id="node7" class="node">
<title>Node7</title>
<g id="a_node7"><a xlink:href="d__kankyo__wether_8cpp.html" target="_top" xlink:title=" ">
<polygon fill="white" stroke="black" points="308,-0.5 308,-30.5 424,-30.5 424,-0.5 308,-0.5"/>
<text text-anchor="start" x="316" y="-18.5" font-family="Helvetica,sans-Serif" font-size="10.00">src/d/kankyo/d_kankyo</text>
<text text-anchor="middle" x="366" y="-7.5" font-family="Helvetica,sans-Serif" font-size="10.00">_wether.cpp</text>
</a>
</g>
</g>
<!-- Node4&#45;&gt;Node7 -->
<g id="edge6" class="edge">
<title>Node4&#45;&gt;Node7</title>
<path fill="none" stroke="midnightblue" d="M271.1,-67.9C291.29,-56.97 319.56,-41.65 339.99,-30.59"/>
<polygon fill="midnightblue" stroke="midnightblue" points="269.31,-64.89 262.18,-72.73 272.64,-71.05 269.31,-64.89"/>
</g>
<!-- Node16&#45;&gt;Node5 -->
<g id="edge58" class="edge">
<title>Node16&#45;&gt;Node5</title>
<path fill="none" stroke="midnightblue" d="M4333.21,-200.09C4363.2,-171.4 4418.71,-108.89 4384,-67 4357.59,-35.12 4241.91,-23.22 4171.76,-18.88"/>
<polygon fill="midnightblue" stroke="midnightblue" points="4330.79,-197.56 4325.86,-206.94 4335.56,-202.68 4330.79,-197.56"/>
</g>
<!-- Node17 -->
<g id="node14" class="node">
<title>Node17</title>
<g id="a_node14"><a xlink:href="d__com__inf__game_8h.html" target="_top" xlink:title=" ">
<polygon fill="white" stroke="black" points="2508,-134.5 2508,-164.5 2618,-164.5 2618,-134.5 2508,-134.5"/>
<text text-anchor="start" x="2516" y="-152.5" font-family="Helvetica,sans-Serif" font-size="10.00">include/d/com/d_com</text>
<text text-anchor="middle" x="2563" y="-141.5" font-family="Helvetica,sans-Serif" font-size="10.00">_inf_game.h</text>
</a>
</g>
</g>
<!-- Node16&#45;&gt;Node17 -->
<g id="edge14" class="edge">
<title>Node16&#45;&gt;Node17</title>
<path fill="none" stroke="midnightblue" d="M4247.49,-212.96C3962.75,-202.4 2875.73,-162.1 2618.02,-152.54"/>
<polygon fill="midnightblue" stroke="midnightblue" points="4247.55,-216.46 4257.67,-213.34 4247.81,-209.47 4247.55,-216.46"/>
</g>
<!-- Node17&#45;&gt;Node5 -->
<g id="edge30" class="edge">
<title>Node17&#45;&gt;Node5</title>
<path fill="none" stroke="midnightblue" d="M2628.3,-148.27C2871.96,-147.11 3719.82,-140.04 3833,-98 3853.76,-90.29 3851.94,-76.38 3872,-67 3933.37,-38.3 4010.92,-25.83 4062.15,-20.46"/>
<polygon fill="midnightblue" stroke="midnightblue" points="2628.16,-144.77 2618.18,-148.32 2628.2,-151.77 2628.16,-144.77"/>
</g>
<!-- Node17&#45;&gt;Node6 -->
<g id="edge45" class="edge">
<title>Node17&#45;&gt;Node6</title>
<path fill="none" stroke="midnightblue" d="M2497.83,-147.85C2175.64,-144.48 764.79,-128.08 677,-98 632.44,-82.74 590.73,-42.7 573.87,-25.06"/>
<polygon fill="midnightblue" stroke="midnightblue" points="2497.91,-151.35 2507.94,-147.95 2497.98,-144.35 2497.91,-151.35"/>
</g>
<!-- Node17&#45;&gt;Node7 -->
<g id="edge46" class="edge">
<title>Node17&#45;&gt;Node7</title>
<path fill="none" stroke="midnightblue" d="M2497.33,-147.3C2162.98,-141.12 663.73,-112.62 618,-98 594.52,-90.49 594.54,-76.98 572,-67 524.35,-45.91 466.44,-32.71 424.17,-25.11"/>
<polygon fill="midnightblue" stroke="midnightblue" points="2497.75,-150.81 2507.81,-147.49 2497.88,-143.81 2497.75,-150.81"/>
</g>
<!-- Node17&#45;&gt;Node12 -->
<g id="edge47" class="edge">
<title>Node17&#45;&gt;Node12</title>
<path fill="none" stroke="midnightblue" d="M2497.54,-147.35C2167.74,-141.5 703.13,-114.57 687,-98 665.47,-75.88 700.98,-41.1 720.09,-25.09"/>
<polygon fill="midnightblue" stroke="midnightblue" points="2497.82,-150.86 2507.88,-147.54 2497.95,-143.86 2497.82,-150.86"/>
</g>
<!-- Node17&#45;&gt;Node13 -->
<g id="edge51" class="edge">
<title>Node17&#45;&gt;Node13</title>
<path fill="none" stroke="midnightblue" d="M2628.62,-146.5C2755.22,-141.97 3023.22,-128.8 3051,-98 3071.73,-75.01 3035.97,-47.1 3008.93,-30.62"/>
<polygon fill="midnightblue" stroke="midnightblue" points="2628.16,-143.02 2618.29,-146.86 2628.4,-150.01 2628.16,-143.02"/>
</g>
<!-- Node17&#45;&gt;Node14 -->
<g id="edge54" class="edge">
<title>Node17&#45;&gt;Node14</title>
<path fill="none" stroke="midnightblue" d="M2497.9,-147.52C2177.08,-142.57 772.01,-119.84 578,-98 566.22,-96.67 553.49,-94.4 542.07,-92.04"/>
<polygon fill="midnightblue" stroke="midnightblue" points="2497.91,-151.02 2507.96,-147.67 2498.02,-144.02 2497.91,-151.02"/>
</g>
<!-- Node18 -->
<g id="node15" class="node">
<title>Node18</title>
<g id="a_node15"><a xlink:href="d__cc__uty_8h.html" target="_top" xlink:title=" ">
<polygon fill="white" stroke="red" points="2794.5,-73 2794.5,-92 2913.5,-92 2913.5,-73 2794.5,-73"/>
<text text-anchor="middle" x="2854" y="-80" font-family="Helvetica,sans-Serif" font-size="10.00">include/d/cc/d_cc_uty.h</text>
</a>
</g>
</g>
<!-- Node17&#45;&gt;Node18 -->
<g id="edge15" class="edge">
<title>Node17&#45;&gt;Node18</title>
<path fill="none" stroke="midnightblue" d="M2627.84,-134.02C2685.58,-121.12 2768.09,-102.69 2815.84,-92.02"/>
<polygon fill="midnightblue" stroke="midnightblue" points="2627.07,-130.6 2618.08,-136.2 2628.6,-137.43 2627.07,-130.6"/>
</g>
<!-- Node20 -->
<g id="node16" class="node">
<title>Node20</title>
<g id="a_node16"><a xlink:href="d__item_8h.html" target="_top" xlink:title=" ">
<polygon fill="white" stroke="red" points="3729.5,-73 3729.5,-92 3824.5,-92 3824.5,-73 3729.5,-73"/>
<text text-anchor="middle" x="3777" y="-80" font-family="Helvetica,sans-Serif" font-size="10.00">include/d/d_item.h</text>
</a>
</g>
</g>
<!-- Node17&#45;&gt;Node20 -->
<g id="edge16" class="edge">
<title>Node17&#45;&gt;Node20</title>
<path fill="none" stroke="midnightblue" d="M2628.31,-147.23C2839.53,-142.89 3502.66,-127.23 3715,-98 3725.08,-96.61 3735.92,-94.35 3745.67,-92.02"/>
<polygon fill="midnightblue" stroke="midnightblue" points="2627.93,-143.74 2618.01,-147.45 2628.08,-150.74 2627.93,-143.74"/>
</g>
<!-- Node21 -->
<g id="node17" class="node">
<title>Node21</title>
<g id="a_node17"><a xlink:href="d__com__inf__game_8cpp.html" target="_top" xlink:title=" ">
<polygon fill="white" stroke="black" points="3685,-0.5 3685,-30.5 3793,-30.5 3793,-0.5 3685,-0.5"/>
<text text-anchor="start" x="3693" y="-18.5" font-family="Helvetica,sans-Serif" font-size="10.00">src/d/com/d_com_inf</text>
<text text-anchor="middle" x="3739" y="-7.5" font-family="Helvetica,sans-Serif" font-size="10.00">_game.cpp</text>
</a>
</g>
</g>
<!-- Node17&#45;&gt;Node21 -->
<g id="edge36" class="edge">
<title>Node17&#45;&gt;Node21</title>
<path fill="none" stroke="midnightblue" d="M2628.47,-148.36C2850.96,-147.49 3569.32,-141.31 3663,-98 3694.26,-83.55 3718.79,-49.79 3730.84,-30.56"/>
<polygon fill="midnightblue" stroke="midnightblue" points="2628.25,-144.86 2618.26,-148.4 2628.27,-151.86 2628.25,-144.86"/>
</g>
<!-- Node23 -->
<g id="node18" class="node">
<title>Node23</title>
<g id="a_node18"><a xlink:href="d__kantera__icon__meter_8h.html" target="_top" xlink:title=" ">
<polygon fill="white" stroke="red" points="3402.5,-67.5 3402.5,-97.5 3503.5,-97.5 3503.5,-67.5 3402.5,-67.5"/>
<text text-anchor="start" x="3410.5" y="-85.5" font-family="Helvetica,sans-Serif" font-size="10.00">include/d/d_kantera</text>
<text text-anchor="middle" x="3453" y="-74.5" font-family="Helvetica,sans-Serif" font-size="10.00">_icon_meter.h</text>
</a>
</g>
</g>
<!-- Node17&#45;&gt;Node23 -->
<g id="edge18" class="edge">
<title>Node17&#45;&gt;Node23</title>
<path fill="none" stroke="midnightblue" d="M2628.4,-148.43C2769.09,-147.42 3110.61,-140.37 3393,-98 3396.07,-97.54 3399.22,-97 3402.38,-96.4"/>
<polygon fill="midnightblue" stroke="midnightblue" points="2628.2,-144.93 2618.22,-148.49 2628.25,-151.93 2628.2,-144.93"/>
</g>
<!-- Node25 -->
<g id="node19" class="node">
<title>Node25</title>
<g id="a_node19"><a xlink:href="d__meter2__draw_8cpp.html" target="_top" xlink:title=" ">
<polygon fill="white" stroke="black" points="3398,-0.5 3398,-30.5 3508,-30.5 3508,-0.5 3398,-0.5"/>
<text text-anchor="start" x="3406" y="-18.5" font-family="Helvetica,sans-Serif" font-size="10.00">src/d/meter/d_meter2</text>
<text text-anchor="middle" x="3453" y="-7.5" font-family="Helvetica,sans-Serif" font-size="10.00">_draw.cpp</text>
</a>
</g>
</g>
<!-- Node17&#45;&gt;Node25 -->
<g id="edge49" class="edge">
<title>Node17&#45;&gt;Node25</title>
<path fill="none" stroke="midnightblue" d="M2628.38,-147.9C2856.87,-145.5 3607.86,-134.82 3643,-98 3686.98,-51.91 3578.63,-30.55 3508.05,-21.79"/>
<polygon fill="midnightblue" stroke="midnightblue" points="2628.18,-144.4 2618.22,-148.01 2628.25,-151.4 2628.18,-144.4"/>
</g>
<!-- Node26 -->
<g id="node20" class="node">
<title>Node26</title>
<g id="a_node20"><a xlink:href="d__file__sel__info_8h.html" target="_top" xlink:title=" ">
<polygon fill="white" stroke="red" points="3136,-67.5 3136,-97.5 3232,-97.5 3232,-67.5 3136,-67.5"/>
<text text-anchor="start" x="3144" y="-85.5" font-family="Helvetica,sans-Serif" font-size="10.00">include/d/file/d_file</text>
<text text-anchor="middle" x="3184" y="-74.5" font-family="Helvetica,sans-Serif" font-size="10.00">_sel_info.h</text>
</a>
</g>
</g>
<!-- Node17&#45;&gt;Node26 -->
<g id="edge20" class="edge">
<title>Node17&#45;&gt;Node26</title>
<path fill="none" stroke="midnightblue" d="M2628.16,-145.57C2732.82,-140.2 2944.64,-126.61 3122,-98 3126.47,-97.28 3131.11,-96.42 3135.73,-95.48"/>
<polygon fill="midnightblue" stroke="midnightblue" points="2627.88,-142.08 2618.07,-146.08 2628.23,-149.07 2627.88,-142.08"/>
</g>
<!-- Node28 -->
<g id="node21" class="node">
<title>Node28</title>
<g id="a_node21"><a xlink:href="d__meter2_8h.html" target="_top" xlink:title=" ">
<polygon fill="white" stroke="red" points="3250,-73 3250,-92 3384,-92 3384,-73 3250,-73"/>
<text text-anchor="middle" x="3317" y="-80" font-family="Helvetica,sans-Serif" font-size="10.00">include/d/meter/d_meter2.h</text>
</a>
</g>
</g>
<!-- Node17&#45;&gt;Node28 -->
<g id="edge21" class="edge">
<title>Node17&#45;&gt;Node28</title>
<path fill="none" stroke="midnightblue" d="M2628.37,-146.11C2749.59,-141.14 3017.29,-127.57 3241,-98 3252.72,-96.45 3265.36,-94.25 3276.91,-92.04"/>
<polygon fill="midnightblue" stroke="midnightblue" points="2628,-142.63 2618.15,-146.53 2628.28,-149.62 2628,-142.63"/>
</g>
<!-- Node32 -->
<g id="node22" class="node">
<title>Node32</title>
<g id="a_node22"><a xlink:href="d__msg__object_8h.html" target="_top" xlink:title=" ">
<polygon fill="white" stroke="red" points="2932,-67.5 2932,-97.5 3042,-97.5 3042,-67.5 2932,-67.5"/>
<text text-anchor="start" x="2940" y="-85.5" font-family="Helvetica,sans-Serif" font-size="10.00">include/d/msg/d_msg</text>
<text text-anchor="middle" x="2987" y="-74.5" font-family="Helvetica,sans-Serif" font-size="10.00">_object.h</text>
</a>
</g>
</g>
<!-- Node17&#45;&gt;Node32 -->
<g id="edge22" class="edge">
<title>Node17&#45;&gt;Node32</title>
<path fill="none" stroke="midnightblue" d="M2628.56,-140.87C2700.72,-132.1 2820.04,-116.51 2922,-98 2925.19,-97.42 2928.45,-96.8 2931.74,-96.14"/>
<polygon fill="midnightblue" stroke="midnightblue" points="2627.77,-137.44 2618.26,-142.11 2628.61,-144.39 2627.77,-137.44"/>
</g>
<!-- Node31 -->
<g id="node23" class="node">
<title>Node31</title>
<g id="a_node23"><a xlink:href="d__meter2__info_8cpp.html" target="_top" xlink:title=" ">
<polygon fill="white" stroke="black" points="3053,-0.5 3053,-30.5 3163,-30.5 3163,-0.5 3053,-0.5"/>
<text text-anchor="start" x="3061" y="-18.5" font-family="Helvetica,sans-Serif" font-size="10.00">src/d/meter/d_meter2</text>
<text text-anchor="middle" x="3108" y="-7.5" font-family="Helvetica,sans-Serif" font-size="10.00">_info.cpp</text>
</a>
</g>
</g>
<!-- Node17&#45;&gt;Node31 -->
<g id="edge50" class="edge">
<title>Node17&#45;&gt;Node31</title>
<path fill="none" stroke="midnightblue" d="M2628.11,-145.54C2756.64,-139.2 3033.65,-122.81 3069,-98 3091.6,-82.14 3101.56,-49.57 3105.57,-30.76"/>
<polygon fill="midnightblue" stroke="midnightblue" points="2627.82,-142.05 2618,-146.04 2628.16,-149.05 2627.82,-142.05"/>
</g>
<!-- Node34 -->
<g id="node24" class="node">
<title>Node34</title>
<g id="a_node24"><a xlink:href="d__s__play_8h.html" target="_top" xlink:title=" ">
<polygon fill="white" stroke="red" points="3521.5,-73 3521.5,-92 3634.5,-92 3634.5,-73 3521.5,-73"/>
<text text-anchor="middle" x="3578" y="-80" font-family="Helvetica,sans-Serif" font-size="10.00">include/d/s/d_s_play.h</text>
</a>
</g>
</g>
<!-- Node17&#45;&gt;Node34 -->
<g id="edge28" class="edge">
<title>Node17&#45;&gt;Node34</title>
<path fill="none" stroke="midnightblue" d="M2628.37,-148.68C2782.84,-148.31 3182.17,-142.7 3512,-98 3522.58,-96.57 3533.98,-94.32 3544.27,-92.02"/>
<polygon fill="midnightblue" stroke="midnightblue" points="2628.11,-145.18 2618.12,-148.7 2628.13,-152.18 2628.11,-145.18"/>
</g>
<!-- Node35 -->
<g id="node25" class="node">
<title>Node35</title>
<g id="a_node25"><a xlink:href="c__dylink_8cpp.html" target="_top" xlink:title=" ">
<polygon fill="white" stroke="black" points="3881.5,-73 3881.5,-92 3976.5,-92 3976.5,-73 3881.5,-73"/>
<text text-anchor="middle" x="3929" y="-80" font-family="Helvetica,sans-Serif" font-size="10.00">src/c/c_dylink.cpp</text>
</a>
</g>
</g>
<!-- Node17&#45;&gt;Node35 -->
<g id="edge29" class="edge">
<title>Node17&#45;&gt;Node35</title>
<path fill="none" stroke="midnightblue" d="M2628.26,-147.62C2857.29,-144.28 3623.63,-130.86 3867,-98 3877.08,-96.64 3887.92,-94.38 3897.68,-92.05"/>
<polygon fill="midnightblue" stroke="midnightblue" points="2628.04,-144.12 2618.09,-147.77 2628.14,-151.12 2628.04,-144.12"/>
</g>
<!-- Node36 -->
<g id="node26" class="node">
<title>Node36</title>
<g id="a_node26"><a xlink:href="d__a__player_8cpp.html" target="_top" xlink:title=" ">
<polygon fill="white" stroke="black" points="3995,-73 3995,-92 4109,-92 4109,-73 3995,-73"/>
<text text-anchor="middle" x="4052" y="-80" font-family="Helvetica,sans-Serif" font-size="10.00">src/d/a/d_a_player.cpp</text>
</a>
</g>
</g>
<!-- Node17&#45;&gt;Node36 -->
<g id="edge31" class="edge">
<title>Node17&#45;&gt;Node36</title>
<path fill="none" stroke="midnightblue" d="M2628.4,-147.72C2870.73,-144.59 3717.22,-131.46 3985,-98 3995.86,-96.64 4007.57,-94.39 4018.12,-92.06"/>
<polygon fill="midnightblue" stroke="midnightblue" points="2628.29,-144.22 2618.34,-147.85 2628.38,-151.22 2628.29,-144.22"/>
</g>
<!-- Node37 -->
<g id="node27" class="node">
<title>Node37</title>
<g id="a_node27"><a xlink:href="d__bg__s_8cpp.html" target="_top" xlink:title=" ">
<polygon fill="white" stroke="black" points="4127,-73 4127,-92 4231,-92 4231,-73 4127,-73"/>
<text text-anchor="middle" x="4179" y="-80" font-family="Helvetica,sans-Serif" font-size="10.00">src/d/bg/d_bg_s.cpp</text>
</a>
</g>
</g>
<!-- Node17&#45;&gt;Node37 -->
<g id="edge32" class="edge">
<title>Node17&#45;&gt;Node37</title>
<path fill="none" stroke="midnightblue" d="M2628.44,-148.13C2885.08,-146.39 3823.24,-137.41 4118,-98 4128.03,-96.66 4138.83,-94.38 4148.51,-92.02"/>
<polygon fill="midnightblue" stroke="midnightblue" points="2628.14,-144.63 2618.16,-148.19 2628.19,-151.63 2628.14,-144.63"/>
</g>
<!-- Node38 -->
<g id="node28" class="node">
<title>Node38</title>
<g id="a_node28"><a xlink:href="d__bg__s__movebg__actor_8cpp.html" target="_top" xlink:title=" ">
<polygon fill="white" stroke="black" points="4249,-67.5 4249,-97.5 4375,-97.5 4375,-67.5 4249,-67.5"/>
<text text-anchor="start" x="4257" y="-85.5" font-family="Helvetica,sans-Serif" font-size="10.00">src/d/bg/d_bg_s_movebg</text>
<text text-anchor="middle" x="4312" y="-74.5" font-family="Helvetica,sans-Serif" font-size="10.00">_actor.cpp</text>
</a>
</g>
</g>
<!-- Node17&#45;&gt;Node38 -->
<g id="edge33" class="edge">
<title>Node17&#45;&gt;Node38</title>
<path fill="none" stroke="midnightblue" d="M2628.55,-148C2897.8,-145.74 3919.46,-134.84 4240,-98 4242.91,-97.67 4245.88,-97.27 4248.88,-96.84"/>
<polygon fill="midnightblue" stroke="midnightblue" points="2628.14,-144.51 2618.17,-148.09 2628.2,-151.51 2628.14,-144.51"/>
</g>
<!-- Node39 -->
<g id="node29" class="node">
<title>Node39</title>
<g id="a_node29"><a xlink:href="d__bg__w_8cpp.html" target="_top" xlink:title=" ">
<polygon fill="white" stroke="black" points="696.5,-73 696.5,-92 803.5,-92 803.5,-73 696.5,-73"/>
<text text-anchor="middle" x="750" y="-80" font-family="Helvetica,sans-Serif" font-size="10.00">src/d/bg/d_bg_w.cpp</text>
</a>
</g>
</g>
<!-- Node17&#45;&gt;Node39 -->
<g id="edge34" class="edge">
<title>Node17&#45;&gt;Node39</title>
<path fill="none" stroke="midnightblue" d="M2497.57,-147.38C2200.07,-142.17 982.18,-119.69 813,-98 802.65,-96.67 791.5,-94.4 781.51,-92.03"/>
<polygon fill="midnightblue" stroke="midnightblue" points="2497.7,-150.88 2507.76,-147.56 2497.83,-143.88 2497.7,-150.88"/>
</g>
<!-- Node40 -->
<g id="node30" class="node">
<title>Node40</title>
<g id="a_node30"><a xlink:href="d__cc__s_8cpp.html" target="_top" xlink:title=" ">
<polygon fill="white" stroke="black" points="822,-73 822,-92 926,-92 926,-73 822,-73"/>
<text text-anchor="middle" x="874" y="-80" font-family="Helvetica,sans-Serif" font-size="10.00">src/d/cc/d_cc_s.cpp</text>
</a>
</g>
</g>
<!-- Node17&#45;&gt;Node40 -->
<g id="edge35" class="edge">
<title>Node17&#45;&gt;Node40</title>
<path fill="none" stroke="midnightblue" d="M2497.57,-148.24C2233.39,-146.9 1244.81,-139.19 935,-98 924.96,-96.67 914.17,-94.39 904.49,-92.03"/>
<polygon fill="midnightblue" stroke="midnightblue" points="2497.75,-151.74 2507.76,-148.29 2497.78,-144.74 2497.75,-151.74"/>
</g>
<!-- Node41 -->
<g id="node31" class="node">
<title>Node41</title>
<g id="a_node31"><a xlink:href="d__eye__hl_8cpp.html" target="_top" xlink:title=" ">
<polygon fill="white" stroke="black" points="944,-73 944,-92 1042,-92 1042,-73 944,-73"/>
<text text-anchor="middle" x="993" y="-80" font-family="Helvetica,sans-Serif" font-size="10.00">src/d/d_eye_hl.cpp</text>
</a>
</g>
</g>
<!-- Node17&#45;&gt;Node41 -->
<g id="edge37" class="edge">
<title>Node17&#45;&gt;Node41</title>
<path fill="none" stroke="midnightblue" d="M2497.67,-148.16C2245.68,-146.55 1336.73,-138.03 1051,-98 1041.44,-96.66 1031.17,-94.38 1021.97,-92.02"/>
<polygon fill="midnightblue" stroke="midnightblue" points="2497.74,-151.66 2507.77,-148.22 2497.79,-144.66 2497.74,-151.66"/>
</g>
<!-- Node42 -->
<g id="node32" class="node">
<title>Node42</title>
<g id="a_node32"><a xlink:href="d__kyeff_8cpp.html" target="_top" xlink:title=" ">
<polygon fill="white" stroke="black" points="1060,-73 1060,-92 1150,-92 1150,-73 1060,-73"/>
<text text-anchor="middle" x="1105" y="-80" font-family="Helvetica,sans-Serif" font-size="10.00">src/d/d_kyeff.cpp</text>
</a>
</g>
</g>
<!-- Node17&#45;&gt;Node42 -->
<g id="edge38" class="edge">
<title>Node17&#45;&gt;Node42</title>
<path fill="none" stroke="midnightblue" d="M2497.6,-148.11C2257.13,-146.37 1422.22,-137.55 1159,-98 1150.07,-96.66 1140.5,-94.38 1131.94,-92.02"/>
<polygon fill="midnightblue" stroke="midnightblue" points="2497.91,-151.61 2507.93,-148.18 2497.96,-144.61 2497.91,-151.61"/>
</g>
<!-- Node43 -->
<g id="node33" class="node">
<title>Node43</title>
<g id="a_node33"><a xlink:href="d__resorce_8cpp.html" target="_top" xlink:title=" ">
<polygon fill="white" stroke="black" points="1168,-73 1168,-92 1270,-92 1270,-73 1168,-73"/>
<text text-anchor="middle" x="1219" y="-80" font-family="Helvetica,sans-Serif" font-size="10.00">src/d/d_resorce.cpp</text>
</a>
</g>
</g>
<!-- Node17&#45;&gt;Node43 -->
<g id="edge39" class="edge">
<title>Node17&#45;&gt;Node43</title>
<path fill="none" stroke="midnightblue" d="M2497.57,-147.64C2270.62,-144.38 1518.11,-131.26 1279,-98 1269.23,-96.64 1258.74,-94.39 1249.3,-92.06"/>
<polygon fill="midnightblue" stroke="midnightblue" points="2497.61,-151.14 2507.66,-147.78 2497.71,-144.14 2497.61,-151.14"/>
</g>
<!-- Node44 -->
<g id="node34" class="node">
<title>Node44</title>
<g id="a_node34"><a xlink:href="d__stage_8cpp.html" target="_top" xlink:title=" ">
<polygon fill="white" stroke="black" points="1288,-73 1288,-92 1382,-92 1382,-73 1288,-73"/>
<text text-anchor="middle" x="1335" y="-80" font-family="Helvetica,sans-Serif" font-size="10.00">src/d/d_stage.cpp</text>
</a>
</g>
</g>
<!-- Node17&#45;&gt;Node44 -->
<g id="edge40" class="edge">
<title>Node17&#45;&gt;Node44</title>
<path fill="none" stroke="midnightblue" d="M2497.58,-147.49C2283.78,-143.91 1607.02,-130.25 1391,-98 1381.86,-96.64 1372.06,-94.38 1363.25,-92.05"/>
<polygon fill="midnightblue" stroke="midnightblue" points="2497.65,-150.99 2507.71,-147.66 2497.77,-143.99 2497.65,-150.99"/>
</g>
<!-- Node45 -->
<g id="node35" class="node">
<title>Node45</title>
<g id="a_node35"><a xlink:href="d__tresure_8cpp.html" target="_top" xlink:title=" ">
<polygon fill="white" stroke="black" points="1400,-73 1400,-92 1500,-92 1500,-73 1400,-73"/>
<text text-anchor="middle" x="1450" y="-80" font-family="Helvetica,sans-Serif" font-size="10.00">src/d/d_tresure.cpp</text>
</a>
</g>
</g>
<!-- Node17&#45;&gt;Node45 -->
<g id="edge41" class="edge">
<title>Node17&#45;&gt;Node45</title>
<path fill="none" stroke="midnightblue" d="M2497.85,-147.03C2298.93,-142.27 1701.33,-125.97 1509,-98 1499.4,-96.6 1489.08,-94.34 1479.79,-92.01"/>
<polygon fill="midnightblue" stroke="midnightblue" points="2497.78,-150.53 2507.86,-147.26 2497.94,-143.53 2497.78,-150.53"/>
</g>
<!-- Node46 -->
<g id="node36" class="node">
<title>Node46</title>
<g id="a_node36"><a xlink:href="d__event_8cpp.html" target="_top" xlink:title=" ">
<polygon fill="white" stroke="black" points="1518.5,-73 1518.5,-92 1639.5,-92 1639.5,-73 1518.5,-73"/>
<text text-anchor="middle" x="1579" y="-80" font-family="Helvetica,sans-Serif" font-size="10.00">src/d/event/d_event.cpp</text>
</a>
</g>
</g>
<!-- Node17&#45;&gt;Node46 -->
<g id="edge42" class="edge">
<title>Node17&#45;&gt;Node46</title>
<path fill="none" stroke="midnightblue" d="M2497.36,-148.29C2346.63,-147.07 1964.35,-139.72 1648,-98 1637.08,-96.56 1625.31,-94.34 1614.63,-92.07"/>
<polygon fill="midnightblue" stroke="midnightblue" points="2497.78,-151.79 2507.81,-148.37 2497.84,-144.79 2497.78,-151.79"/>
</g>
<!-- Node47 -->
<g id="node37" class="node">
<title>Node47</title>
<g id="a_node37"><a xlink:href="d__event__data_8cpp.html" target="_top" xlink:title=" ">
<polygon fill="white" stroke="black" points="1657.5,-67.5 1657.5,-97.5 1760.5,-97.5 1760.5,-67.5 1657.5,-67.5"/>
<text text-anchor="start" x="1665.5" y="-85.5" font-family="Helvetica,sans-Serif" font-size="10.00">src/d/event/d_event</text>
<text text-anchor="middle" x="1709" y="-74.5" font-family="Helvetica,sans-Serif" font-size="10.00">_data.cpp</text>
</a>
</g>
</g>
<!-- Node17&#45;&gt;Node47 -->
<g id="edge43" class="edge">
<title>Node17&#45;&gt;Node47</title>
<path fill="none" stroke="midnightblue" d="M2497.51,-148.17C2361.17,-146.64 2037.2,-138.62 1769,-98 1766.25,-97.58 1763.43,-97.1 1760.6,-96.57"/>
<polygon fill="midnightblue" stroke="midnightblue" points="2497.74,-151.67 2507.78,-148.28 2497.82,-144.67 2497.74,-151.67"/>
</g>
<!-- Node48 -->
<g id="node38" class="node">
<title>Node48</title>
<g id="a_node38"><a xlink:href="d__event__manager_8cpp.html" target="_top" xlink:title=" ">
<polygon fill="white" stroke="black" points="1778.5,-67.5 1778.5,-97.5 1881.5,-97.5 1881.5,-67.5 1778.5,-67.5"/>
<text text-anchor="start" x="1786.5" y="-85.5" font-family="Helvetica,sans-Serif" font-size="10.00">src/d/event/d_event</text>
<text text-anchor="middle" x="1830" y="-74.5" font-family="Helvetica,sans-Serif" font-size="10.00">_manager.cpp</text>
</a>
</g>
</g>
<!-- Node17&#45;&gt;Node48 -->
<g id="edge44" class="edge">
<title>Node17&#45;&gt;Node48</title>
<path fill="none" stroke="midnightblue" d="M2497.5,-147.11C2376.71,-143.76 2111,-132.76 1890,-98 1887.25,-97.57 1884.44,-97.07 1881.6,-96.53"/>
<polygon fill="midnightblue" stroke="midnightblue" points="2497.6,-150.61 2507.69,-147.38 2497.79,-143.61 2497.6,-150.61"/>
</g>
<!-- Node49 -->
<g id="node39" class="node">
<title>Node49</title>
<g id="a_node39"><a xlink:href="d__menu__window__HIO_8cpp.html" target="_top" xlink:title=" ">
<polygon fill="white" stroke="black" points="1899.5,-67.5 1899.5,-97.5 2040.5,-97.5 2040.5,-67.5 1899.5,-67.5"/>
<text text-anchor="start" x="1907.5" y="-85.5" font-family="Helvetica,sans-Serif" font-size="10.00">src/d/menu/d_menu_window</text>
<text text-anchor="middle" x="1970" y="-74.5" font-family="Helvetica,sans-Serif" font-size="10.00">_HIO.cpp</text>
</a>
</g>
</g>
<!-- Node17&#45;&gt;Node49 -->
<g id="edge48" class="edge">
<title>Node17&#45;&gt;Node49</title>
<path fill="none" stroke="midnightblue" d="M2497.64,-143.84C2399.8,-136.46 2209.58,-120.58 2049,-98 2046.24,-97.61 2043.43,-97.2 2040.59,-96.76"/>
<polygon fill="midnightblue" stroke="midnightblue" points="2497.44,-147.33 2507.67,-144.59 2497.96,-140.35 2497.44,-147.33"/>
</g>
<!-- Node50 -->
<g id="node40" class="node">
<title>Node50</title>
<g id="a_node40"><a xlink:href="d__msg__flow_8cpp.html" target="_top" xlink:title=" ">
<polygon fill="white" stroke="black" points="2058.5,-73 2058.5,-92 2191.5,-92 2191.5,-73 2058.5,-73"/>
<text text-anchor="middle" x="2125" y="-80" font-family="Helvetica,sans-Serif" font-size="10.00">src/d/msg/d_msg_flow.cpp</text>
</a>
</g>
</g>
<!-- Node17&#45;&gt;Node50 -->
<g id="edge52" class="edge">
<title>Node17&#45;&gt;Node50</title>
<path fill="none" stroke="midnightblue" d="M2497.62,-140.38C2425.01,-131.12 2304.39,-115.06 2201,-98 2190.13,-96.21 2178.43,-94.07 2167.54,-92"/>
<polygon fill="midnightblue" stroke="midnightblue" points="2497.62,-143.91 2507.98,-141.69 2498.5,-136.96 2497.62,-143.91"/>
</g>
<!-- Node51 -->
<g id="node41" class="node">
<title>Node51</title>
<g id="a_node41"><a xlink:href="d__s__room_8cpp.html" target="_top" xlink:title=" ">
<polygon fill="white" stroke="black" points="2210,-73 2210,-92 2320,-92 2320,-73 2210,-73"/>
<text text-anchor="middle" x="2265" y="-80" font-family="Helvetica,sans-Serif" font-size="10.00">src/d/s/d_s_room.cpp</text>
</a>
</g>
</g>
<!-- Node17&#45;&gt;Node51 -->
<g id="edge53" class="edge">
<title>Node17&#45;&gt;Node51</title>
<path fill="none" stroke="midnightblue" d="M2497.61,-134.58C2450.66,-124.53 2385.9,-110.58 2329,-98 2320.43,-96.11 2311.23,-94.04 2302.55,-92.08"/>
<polygon fill="midnightblue" stroke="midnightblue" points="2497.14,-138.05 2507.65,-136.72 2498.6,-131.21 2497.14,-138.05"/>
</g>
<!-- Node52 -->
<g id="node42" class="node">
<title>Node52</title>
<g id="a_node42"><a xlink:href="m__Do__graphic_8cpp.html" target="_top" xlink:title=" ">
<polygon fill="white" stroke="black" points="2338,-73 2338,-92 2480,-92 2480,-73 2338,-73"/>
<text text-anchor="middle" x="2409" y="-80" font-family="Helvetica,sans-Serif" font-size="10.00">src/m_Do/m_Do_graphic.cpp</text>
</a>
</g>
</g>
<!-- Node17&#45;&gt;Node52 -->
<g id="edge55" class="edge">
<title>Node17&#45;&gt;Node52</title>
<path fill="none" stroke="midnightblue" d="M2520.26,-130.46C2490.5,-117.9 2452.18,-101.72 2429.16,-92.01"/>
<polygon fill="midnightblue" stroke="midnightblue" points="2519.01,-133.73 2529.58,-134.4 2521.73,-127.28 2519.01,-133.73"/>
</g>
<!-- Node53 -->
<g id="node43" class="node">
<title>Node53</title>
<g id="a_node43"><a xlink:href="m__Do__machine__exception_8cpp.html" target="_top" xlink:title=" ">
<polygon fill="white" stroke="black" points="2498.5,-67.5 2498.5,-97.5 2627.5,-97.5 2627.5,-67.5 2498.5,-67.5"/>
<text text-anchor="start" x="2506.5" y="-85.5" font-family="Helvetica,sans-Serif" font-size="10.00">src/m_Do/m_Do_machine</text>
<text text-anchor="middle" x="2563" y="-74.5" font-family="Helvetica,sans-Serif" font-size="10.00">_exception.cpp</text>
</a>
</g>
</g>
<!-- Node17&#45;&gt;Node53 -->
<g id="edge56" class="edge">
<title>Node17&#45;&gt;Node53</title>
<path fill="none" stroke="midnightblue" d="M2563,-124.11C2563,-115.15 2563,-105.32 2563,-97.58"/>
<polygon fill="midnightblue" stroke="midnightblue" points="2559.5,-124.4 2563,-134.4 2566.5,-124.4 2559.5,-124.4"/>
</g>
<!-- Node54 -->
<g id="node44" class="node">
<title>Node54</title>
<g id="a_node44"><a xlink:href="m__Do__main_8cpp.html" target="_top" xlink:title=" ">
<polygon fill="white" stroke="black" points="2645.5,-73 2645.5,-92 2776.5,-92 2776.5,-73 2645.5,-73"/>
<text text-anchor="middle" x="2711" y="-80" font-family="Helvetica,sans-Serif" font-size="10.00">src/m_Do/m_Do_main.cpp</text>
</a>
</g>
</g>
<!-- Node17&#45;&gt;Node54 -->
<g id="edge57" class="edge">
<title>Node17&#45;&gt;Node54</title>
<path fill="none" stroke="midnightblue" d="M2604.45,-130.3C2632.99,-117.76 2669.6,-101.68 2691.63,-92.01"/>
<polygon fill="midnightblue" stroke="midnightblue" points="2602.86,-127.17 2595.11,-134.4 2605.68,-133.58 2602.86,-127.17"/>
</g>
<!-- Node20&#45;&gt;Node21 -->
<g id="edge17" class="edge">
<title>Node20&#45;&gt;Node21</title>
<path fill="none" stroke="midnightblue" d="M3766.79,-64.03C3760.66,-53.56 3752.97,-40.4 3747.24,-30.59"/>
<polygon fill="midnightblue" stroke="midnightblue" points="3763.81,-65.87 3771.88,-72.73 3769.85,-62.33 3763.81,-65.87"/>
</g>
<!-- Node23&#45;&gt;Node25 -->
<g id="edge19" class="edge">
<title>Node23&#45;&gt;Node25</title>
<path fill="none" stroke="midnightblue" d="M3453,-57.11C3453,-48.15 3453,-38.32 3453,-30.58"/>
<polygon fill="midnightblue" stroke="midnightblue" points="3449.5,-57.4 3453,-67.4 3456.5,-57.4 3449.5,-57.4"/>
</g>
<!-- Node32&#45;&gt;Node6 -->
<g id="edge23" class="edge">
<title>Node32&#45;&gt;Node6</title>
<path fill="none" stroke="midnightblue" d="M2921.57,-67.2C2402.03,-8.51 1142.77,-82.33 642,-31 629.44,-29.71 615.86,-27.42 603.69,-25.02"/>
<polygon fill="midnightblue" stroke="midnightblue" points="2921.48,-70.71 2931.81,-68.39 2922.28,-63.76 2921.48,-70.71"/>
</g>
<!-- Node32&#45;&gt;Node12 -->
<g id="edge24" class="edge">
<title>Node32&#45;&gt;Node12</title>
<path fill="none" stroke="midnightblue" d="M2921.88,-67.23C2480.88,-15.72 1150.57,-15.46 810.71,-16.24"/>
<polygon fill="midnightblue" stroke="midnightblue" points="2921.47,-70.7 2931.81,-68.41 2922.3,-63.75 2921.47,-70.7"/>
</g>
<!-- Node32&#45;&gt;Node13 -->
<g id="edge27" class="edge">
<title>Node32&#45;&gt;Node13</title>
<path fill="none" stroke="midnightblue" d="M2985.52,-57.4C2984.96,-48.37 2984.35,-38.41 2983.87,-30.58"/>
<polygon fill="midnightblue" stroke="midnightblue" points="2982.02,-57.63 2986.13,-67.4 2989.01,-57.2 2982.02,-57.63"/>
</g>
<!-- Node32&#45;&gt;Node25 -->
<g id="edge25" class="edge">
<title>Node32&#45;&gt;Node25</title>
<path fill="none" stroke="midnightblue" d="M3052.34,-72.39C3144.59,-59.52 3311.39,-36.25 3397.79,-24.2"/>
<polygon fill="midnightblue" stroke="midnightblue" points="3051.71,-68.94 3042.29,-73.79 3052.67,-75.87 3051.71,-68.94"/>
</g>
<!-- Node32&#45;&gt;Node31 -->
<g id="edge26" class="edge">
<title>Node32&#45;&gt;Node31</title>
<path fill="none" stroke="midnightblue" d="M3022.23,-62.57C3041.26,-52.35 3064.37,-39.94 3081.8,-30.58"/>
<polygon fill="midnightblue" stroke="midnightblue" points="3020.41,-59.58 3013.26,-67.4 3023.72,-65.75 3020.41,-59.58"/>
</g>
<!-- Node55&#45;&gt;Node5 -->
<g id="edge64" class="edge">
<title>Node55&#45;&gt;Node5</title>
<path fill="none" stroke="midnightblue" d="M4444.07,-190.93C4444.07,-157.71 4438.71,-98.95 4404,-67 4370.92,-36.55 4245.41,-24.04 4171.78,-19.23"/>
<polygon fill="midnightblue" stroke="midnightblue" points="4440.56,-191.08 4443.9,-201.14 4447.56,-191.2 4440.56,-191.08"/>
</g>
<!-- Node55&#45;&gt;Node56 -->
<g id="edge60" class="edge">
<title>Node55&#45;&gt;Node56</title>
<path fill="none" stroke="midnightblue" d="M4468.69,-194.88C4481,-185.01 4495.43,-173.43 4506.46,-164.58"/>
<polygon fill="midnightblue" stroke="midnightblue" points="4466.18,-192.41 4460.58,-201.4 4470.57,-197.87 4466.18,-192.41"/>
</g>
<!-- Node57 -->
<g id="node47" class="node">
<title>Node57</title>
<g id="a_node47"><a xlink:href="d__a__horse__static_8h.html" target="_top" xlink:title=" ">
<polygon fill="white" stroke="black" points="4469,-67.5 4469,-97.5 4581,-97.5 4581,-67.5 4469,-67.5"/>
<text text-anchor="start" x="4477" y="-85.5" font-family="Helvetica,sans-Serif" font-size="10.00">include/d/a/d_a_horse</text>
<text text-anchor="middle" x="4525" y="-74.5" font-family="Helvetica,sans-Serif" font-size="10.00">_static.h</text>
</a>
</g>
</g>
<!-- Node56&#45;&gt;Node57 -->
<g id="edge61" class="edge">
<title>Node56&#45;&gt;Node57</title>
<path fill="none" stroke="midnightblue" d="M4524.38,-124.11C4524.51,-115.15 4524.66,-105.32 4524.78,-97.58"/>
<polygon fill="midnightblue" stroke="midnightblue" points="4520.87,-124.34 4524.22,-134.4 4527.87,-124.45 4520.87,-124.34"/>
</g>
<!-- Node57&#45;&gt;Node5 -->
<g id="edge62" class="edge">
<title>Node57&#45;&gt;Node5</title>
<path fill="none" stroke="midnightblue" d="M4458.85,-67.7C4457.56,-67.46 4456.27,-67.23 4455,-67 4355.41,-49.26 4238.55,-32.75 4171.6,-23.7"/>
<polygon fill="midnightblue" stroke="midnightblue" points="4458.41,-71.18 4468.89,-69.59 4459.71,-64.3 4458.41,-71.18"/>
</g>
<!-- Node58 -->
<g id="node48" class="node">
<title>Node58</title>
<g id="a_node48"><a xlink:href="d__a__horse__static_8cpp.html" target="_top" xlink:title=" ">
<polygon fill="white" stroke="black" points="4454,-6 4454,-25 4596,-25 4596,-6 4454,-6"/>
<text text-anchor="middle" x="4525" y="-13" font-family="Helvetica,sans-Serif" font-size="10.00">src/d/a/d_a_horse_static.cpp</text>
</a>
</g>
</g>
<!-- Node57&#45;&gt;Node58 -->
<g id="edge63" class="edge">
<title>Node57&#45;&gt;Node58</title>
<path fill="none" stroke="midnightblue" d="M4525,-57.25C4525,-46.02 4525,-33.38 4525,-25.19"/>
<polygon fill="midnightblue" stroke="midnightblue" points="4521.5,-57.4 4525,-67.4 4528.5,-57.4 4521.5,-57.4"/>
</g>
</g>
</svg>
