<?xml version="1.0" encoding="UTF-8" standalone="no"?>
<!DOCTYPE svg PUBLIC "-//W3C//DTD SVG 1.1//EN"
 "http://www.w3.org/Graphics/SVG/1.1/DTD/svg11.dtd">
<!-- Generated by graphviz version 2.49.3 (20211027.1534)
 -->
<!-- Title: include/Z2AudioLib/Z2SoundObjMgr.h Pages: 1 -->
<!--zoomable 240 -->
<svg id="main" version="1.1" xmlns="http://www.w3.org/2000/svg" xmlns:xlink="http://www.w3.org/1999/xlink" xml:space="preserve" onload="init(evt)">
<style type="text/css"><![CDATA[
.edge:hover path { stroke: red; }
.edge:hover polygon { stroke: red; fill: red; }
]]></style>
<script type="text/javascript"><![CDATA[
var edges = document.getElementsByTagName('g');
if (edges && edges.length) {
  for (var i=0;i<edges.length;i++) {
    if (edges[i].id.substr(0,4)=='edge') {
      edges[i].setAttribute('class','edge');
    }
  }
}
]]></script>
        <defs>
                <circle id="rim" cx="0" cy="0" r="7"/>
                <circle id="rim2" cx="0" cy="0" r="3.5"/>
                <g id="zoomPlus">
                        <use xlink:href="#rim" fill="#404040">
                                <set attributeName="fill" to="#808080" begin="zoomplus.mouseover" end="zoomplus.mouseout"/>
                        </use>
                        <path d="M-4,0h8M0,-4v8" fill="none" stroke="white" stroke-width="1.5" pointer-events="none"/>
                </g>
                <g id="zoomMin">
                        <use xlink:href="#rim" fill="#404040">
                                <set attributeName="fill" to="#808080" begin="zoomminus.mouseover" end="zoomminus.mouseout"/>
                        </use>
                        <path d="M-4,0h8" fill="none" stroke="white" stroke-width="1.5" pointer-events="none"/>
                </g>
                <g id="dirArrow">
                        <path fill="none" stroke="white" stroke-width="1.5" d="M0,-3.0v7 M-2.5,-0.5L0,-3.0L2.5,-0.5"/>
                </g>
               <g id="resetDef">
                       <use xlink:href="#rim2" fill="#404040">
                               <set attributeName="fill" to="#808080" begin="reset.mouseover" end="reset.mouseout"/>
                       </use>
               </g>
        </defs>

<script type="text/javascript">
var viewWidth = 1914;
var viewHeight = 240;
var sectionId = 'dynsection-1';
</script>
<script xlink:href="svgpan.js"/>
<svg id="graph" class="graph">
<g id="viewport">
<title>include/Z2AudioLib/Z2SoundObjMgr.h</title>
<polygon fill="white" stroke="transparent" points="-4,4 -4,-236 1910,-236 1910,4 -4,4"/>
<!-- Node1 -->
<g id="node1" class="node">
<title>Node1</title>
<g id="a_node1"><a xlink:title=" ">
<polygon fill="#bfbfbf" stroke="black" points="970.5,-201.5 970.5,-231.5 1070.5,-231.5 1070.5,-201.5 970.5,-201.5"/>
<text text-anchor="start" x="978.5" y="-219.5" font-family="Helvetica,sans-Serif" font-size="10.00">include/Z2AudioLib</text>
<text text-anchor="middle" x="1020.5" y="-208.5" font-family="Helvetica,sans-Serif" font-size="10.00">/Z2SoundObjMgr.h</text>
</a>
</g>
</g>
<!-- Node2 -->
<g id="node2" class="node">
<title>Node2</title>
<g id="a_node2"><a xlink:href="Z2AudioMgr_8h.html" target="_top" xlink:title=" ">
<polygon fill="white" stroke="black" points="901.5,-134.5 901.5,-164.5 1001.5,-164.5 1001.5,-134.5 901.5,-134.5"/>
<text text-anchor="start" x="909.5" y="-152.5" font-family="Helvetica,sans-Serif" font-size="10.00">include/Z2AudioLib</text>
<text text-anchor="middle" x="951.5" y="-141.5" font-family="Helvetica,sans-Serif" font-size="10.00">/Z2AudioMgr.h</text>
</a>
</g>
</g>
<!-- Node1&#45;&gt;Node2 -->
<g id="edge1" class="edge">
<title>Node1&#45;&gt;Node2</title>
<path fill="none" stroke="midnightblue" d="M998.01,-194.31C987.66,-184.56 975.66,-173.26 966.44,-164.58"/>
<polygon fill="midnightblue" stroke="midnightblue" points="995.85,-197.09 1005.53,-201.4 1000.65,-191.99 995.85,-197.09"/>
</g>
<!-- Node22 -->
<g id="node22" class="node">
<title>Node22</title>
<g id="a_node22"><a xlink:href="Z2SoundObjMgr_8cpp.html" target="_top" xlink:title=" ">
<polygon fill="white" stroke="black" points="1020,-134.5 1020,-164.5 1161,-164.5 1161,-134.5 1020,-134.5"/>
<text text-anchor="start" x="1028" y="-152.5" font-family="Helvetica,sans-Serif" font-size="10.00">libs/Z2AudioLib/Z2SoundObj</text>
<text text-anchor="middle" x="1090.5" y="-141.5" font-family="Helvetica,sans-Serif" font-size="10.00">Mgr.cpp</text>
</a>
</g>
</g>
<!-- Node1&#45;&gt;Node22 -->
<g id="edge23" class="edge">
<title>Node1&#45;&gt;Node22</title>
<path fill="none" stroke="midnightblue" d="M1043.32,-194.31C1053.82,-184.56 1065.99,-173.26 1075.34,-164.58"/>
<polygon fill="midnightblue" stroke="midnightblue" points="1040.64,-192.03 1035.69,-201.4 1045.4,-197.16 1040.64,-192.03"/>
</g>
<!-- Node3 -->
<g id="node3" class="node">
<title>Node3</title>
<g id="a_node3"><a xlink:href="m__Do__audio_8h.html" target="_top" xlink:title=" ">
<polygon fill="white" stroke="black" points="714.5,-73 714.5,-92 854.5,-92 854.5,-73 714.5,-73"/>
<text text-anchor="middle" x="784.5" y="-80" font-family="Helvetica,sans-Serif" font-size="10.00">include/m_Do/m_Do_audio.h</text>
</a>
</g>
</g>
<!-- Node2&#45;&gt;Node3 -->
<g id="edge2" class="edge">
<title>Node2&#45;&gt;Node3</title>
<path fill="none" stroke="midnightblue" d="M905.57,-130.62C873.24,-118.04 831.43,-101.77 806.36,-92.01"/>
<polygon fill="midnightblue" stroke="midnightblue" points="904.67,-134.03 915.26,-134.4 907.21,-127.51 904.67,-134.03"/>
</g>
<!-- Node4 -->
<g id="node4" class="node">
<title>Node4</title>
<g id="a_node4"><a xlink:href="d__a__alink_8cpp.html" target="_top" xlink:title=" ">
<polygon fill="white" stroke="black" points="0,-6 0,-25 109,-25 109,-6 0,-6"/>
<text text-anchor="middle" x="54.5" y="-13" font-family="Helvetica,sans-Serif" font-size="10.00">src/d/a/d_a_alink.cpp</text>
</a>
</g>
</g>
<!-- Node2&#45;&gt;Node4 -->
<g id="edge18" class="edge">
<title>Node2&#45;&gt;Node4</title>
<path fill="none" stroke="midnightblue" d="M890.98,-144.91C793.41,-138.63 595.52,-123.77 429.5,-98 289.35,-76.25 255.94,-61.8 117.5,-31 108.95,-29.1 99.77,-27.01 91.12,-25.03"/>
<polygon fill="midnightblue" stroke="midnightblue" points="891.03,-148.43 901.23,-145.57 891.48,-141.44 891.03,-148.43"/>
</g>
<!-- Node7 -->
<g id="node7" class="node">
<title>Node7</title>
<g id="a_node7"><a xlink:href="d__event__manager_8cpp.html" target="_top" xlink:title=" ">
<polygon fill="white" stroke="black" points="127,-0.5 127,-30.5 230,-30.5 230,-0.5 127,-0.5"/>
<text text-anchor="start" x="135" y="-18.5" font-family="Helvetica,sans-Serif" font-size="10.00">src/d/event/d_event</text>
<text text-anchor="middle" x="178.5" y="-7.5" font-family="Helvetica,sans-Serif" font-size="10.00">_manager.cpp</text>
</a>
</g>
</g>
<!-- Node2&#45;&gt;Node7 -->
<g id="edge19" class="edge">
<title>Node2&#45;&gt;Node7</title>
<path fill="none" stroke="midnightblue" d="M891.24,-140.01C768.24,-122.35 479.63,-79.29 239.5,-31 236.41,-30.38 233.23,-29.71 230.03,-29.02"/>
<polygon fill="midnightblue" stroke="midnightblue" points="890.82,-143.48 901.21,-141.43 891.81,-136.55 890.82,-143.48"/>
</g>
<!-- Node18 -->
<g id="node18" class="node">
<title>Node18</title>
<g id="a_node18"><a xlink:href="Z2AudioMgr_8cpp.html" target="_top" xlink:title=" ">
<polygon fill="white" stroke="black" points="872.5,-73 872.5,-92 1030.5,-92 1030.5,-73 872.5,-73"/>
<text text-anchor="middle" x="951.5" y="-80" font-family="Helvetica,sans-Serif" font-size="10.00">libs/Z2AudioLib/Z2AudioMgr.cpp</text>
</a>
</g>
</g>
<!-- Node2&#45;&gt;Node18 -->
<g id="edge17" class="edge">
<title>Node2&#45;&gt;Node18</title>
<path fill="none" stroke="midnightblue" d="M951.5,-124.25C951.5,-113.02 951.5,-100.38 951.5,-92.19"/>
<polygon fill="midnightblue" stroke="midnightblue" points="948,-124.4 951.5,-134.4 955,-124.4 948,-124.4"/>
</g>
<!-- Node19 -->
<g id="node19" class="node">
<title>Node19</title>
<g id="a_node19"><a xlink:href="d__menu__window_8cpp.html" target="_top" xlink:title=" ">
<polygon fill="white" stroke="black" points="1048,-73 1048,-92 1207,-92 1207,-73 1048,-73"/>
<text text-anchor="middle" x="1127.5" y="-80" font-family="Helvetica,sans-Serif" font-size="10.00">src/d/menu/d_menu_window.cpp</text>
</a>
</g>
</g>
<!-- Node2&#45;&gt;Node19 -->
<g id="edge20" class="edge">
<title>Node2&#45;&gt;Node19</title>
<path fill="none" stroke="midnightblue" d="M999.47,-130.78C1033.6,-118.18 1077.93,-101.81 1104.47,-92.01"/>
<polygon fill="midnightblue" stroke="midnightblue" points="997.86,-127.65 989.69,-134.4 1000.28,-134.21 997.86,-127.65"/>
</g>
<!-- Node20 -->
<g id="node20" class="node">
<title>Node20</title>
<g id="a_node20"><a xlink:href="d__meter__map_8cpp.html" target="_top" xlink:title=" ">
<polygon fill="white" stroke="black" points="1225.5,-67.5 1225.5,-97.5 1329.5,-97.5 1329.5,-67.5 1225.5,-67.5"/>
<text text-anchor="start" x="1233.5" y="-85.5" font-family="Helvetica,sans-Serif" font-size="10.00">src/d/meter/d_meter</text>
<text text-anchor="middle" x="1277.5" y="-74.5" font-family="Helvetica,sans-Serif" font-size="10.00">_map.cpp</text>
</a>
</g>
</g>
<!-- Node2&#45;&gt;Node20 -->
<g id="edge21" class="edge">
<title>Node2&#45;&gt;Node20</title>
<path fill="none" stroke="midnightblue" d="M1011.19,-134.06C1011.3,-134.04 1011.4,-134.02 1011.5,-134 1102.06,-115.13 1125.91,-116.7 1216.5,-98 1219.38,-97.41 1222.33,-96.78 1225.3,-96.12"/>
<polygon fill="midnightblue" stroke="midnightblue" points="1010.57,-130.62 1001.54,-136.16 1012.05,-137.46 1010.57,-130.62"/>
</g>
<!-- Node21 -->
<g id="node21" class="node">
<title>Node21</title>
<g id="a_node21"><a xlink:href="d__save_8cpp.html" target="_top" xlink:title=" ">
<polygon fill="white" stroke="black" points="1348,-73 1348,-92 1463,-92 1463,-73 1348,-73"/>
<text text-anchor="middle" x="1405.5" y="-80" font-family="Helvetica,sans-Serif" font-size="10.00">src/d/save/d_save.cpp</text>
</a>
</g>
</g>
<!-- Node2&#45;&gt;Node21 -->
<g id="edge22" class="edge">
<title>Node2&#45;&gt;Node21</title>
<path fill="none" stroke="midnightblue" d="M1012,-134.08C1157.31,-109.33 1197.43,-120.97 1338.5,-98 1348.6,-96.36 1359.48,-94.18 1369.47,-92.01"/>
<polygon fill="midnightblue" stroke="midnightblue" points="1011.07,-130.69 1001.82,-135.85 1012.27,-137.59 1011.07,-130.69"/>
</g>
<!-- Node3&#45;&gt;Node4 -->
<g id="edge3" class="edge">
<title>Node3&#45;&gt;Node4</title>
<path fill="none" stroke="midnightblue" d="M704.19,-79.32C578.44,-75.04 327.72,-62.96 117.5,-31 107.62,-29.5 97,-27.29 87.34,-25.04"/>
<polygon fill="midnightblue" stroke="midnightblue" points="704.38,-82.83 714.49,-79.67 704.61,-75.84 704.38,-82.83"/>
</g>
<!-- Node5 -->
<g id="node5" class="node">
<title>Node5</title>
<g id="a_node5"><a xlink:href="d__com__inf__game_8cpp.html" target="_top" xlink:title=" ">
<polygon fill="white" stroke="black" points="1102.5,-0.5 1102.5,-30.5 1210.5,-30.5 1210.5,-0.5 1102.5,-0.5"/>
<text text-anchor="start" x="1110.5" y="-18.5" font-family="Helvetica,sans-Serif" font-size="10.00">src/d/com/d_com_inf</text>
<text text-anchor="middle" x="1156.5" y="-7.5" font-family="Helvetica,sans-Serif" font-size="10.00">_game.cpp</text>
</a>
</g>
</g>
<!-- Node3&#45;&gt;Node5 -->
<g id="edge4" class="edge">
<title>Node3&#45;&gt;Node5</title>
<path fill="none" stroke="midnightblue" d="M839.91,-71.14C847.82,-69.72 855.86,-68.3 863.5,-67 965.5,-49.66 991.91,-50.62 1093.5,-31 1096.37,-30.45 1099.3,-29.86 1102.26,-29.24"/>
<polygon fill="midnightblue" stroke="midnightblue" points="839.21,-67.71 830,-72.94 840.46,-74.6 839.21,-67.71"/>
</g>
<!-- Node6 -->
<g id="node6" class="node">
<title>Node6</title>
<g id="a_node6"><a xlink:href="d__name_8cpp.html" target="_top" xlink:title=" ">
<polygon fill="white" stroke="black" points="1228.5,-6 1228.5,-25 1322.5,-25 1322.5,-6 1228.5,-6"/>
<text text-anchor="middle" x="1275.5" y="-13" font-family="Helvetica,sans-Serif" font-size="10.00">src/d/d_name.cpp</text>
</a>
</g>
</g>
<!-- Node3&#45;&gt;Node6 -->
<g id="edge5" class="edge">
<title>Node3&#45;&gt;Node6</title>
<path fill="none" stroke="midnightblue" d="M837.48,-71.17C846.16,-69.65 855.07,-68.2 863.5,-67 1020.95,-44.63 1062.96,-59.01 1219.5,-31 1228.2,-29.44 1237.54,-27.24 1246.04,-25.03"/>
<polygon fill="midnightblue" stroke="midnightblue" points="836.67,-67.76 827.45,-72.97 837.91,-74.65 836.67,-67.76"/>
</g>
<!-- Node3&#45;&gt;Node7 -->
<g id="edge6" class="edge">
<title>Node3&#45;&gt;Node7</title>
<path fill="none" stroke="midnightblue" d="M704.02,-75.45C574.79,-65.49 326.69,-45.33 239.5,-31 236.49,-30.51 233.41,-29.95 230.31,-29.34"/>
<polygon fill="midnightblue" stroke="midnightblue" points="704.02,-78.96 714.26,-76.23 704.55,-71.98 704.02,-78.96"/>
</g>
<!-- Node8 -->
<g id="node8" class="node">
<title>Node8</title>
<g id="a_node8"><a xlink:href="d__kankyo_8cpp.html" target="_top" xlink:title=" ">
<polygon fill="white" stroke="black" points="1340.5,-6 1340.5,-25 1474.5,-25 1474.5,-6 1340.5,-6"/>
<text text-anchor="middle" x="1407.5" y="-13" font-family="Helvetica,sans-Serif" font-size="10.00">src/d/kankyo/d_kankyo.cpp</text>
</a>
</g>
</g>
<!-- Node3&#45;&gt;Node8 -->
<g id="edge7" class="edge">
<title>Node3&#45;&gt;Node8</title>
<path fill="none" stroke="midnightblue" d="M836.56,-71.15C845.52,-69.59 854.76,-68.14 863.5,-67 1070.38,-40.13 1124.72,-58.59 1331.5,-31 1343.22,-29.44 1355.86,-27.23 1367.41,-25.02"/>
<polygon fill="midnightblue" stroke="midnightblue" points="835.83,-67.72 826.6,-72.93 837.06,-74.61 835.83,-67.72"/>
</g>
<!-- Node9 -->
<g id="node9" class="node">
<title>Node9</title>
<g id="a_node9"><a xlink:href="d__kankyo__wether_8cpp.html" target="_top" xlink:title=" ">
<polygon fill="white" stroke="black" points="1492.5,-0.5 1492.5,-30.5 1608.5,-30.5 1608.5,-0.5 1492.5,-0.5"/>
<text text-anchor="start" x="1500.5" y="-18.5" font-family="Helvetica,sans-Serif" font-size="10.00">src/d/kankyo/d_kankyo</text>
<text text-anchor="middle" x="1550.5" y="-7.5" font-family="Helvetica,sans-Serif" font-size="10.00">_wether.cpp</text>
</a>
</g>
</g>
<!-- Node3&#45;&gt;Node9 -->
<g id="edge8" class="edge">
<title>Node3&#45;&gt;Node9</title>
<path fill="none" stroke="midnightblue" d="M835.63,-71.16C844.87,-69.57 854.45,-68.09 863.5,-67 1137.54,-34.02 1210.01,-68.3 1483.5,-31 1486.45,-30.6 1489.46,-30.14 1492.49,-29.63"/>
<polygon fill="midnightblue" stroke="midnightblue" points="834.99,-67.72 825.76,-72.93 836.22,-74.61 834.99,-67.72"/>
</g>
<!-- Node10 -->
<g id="node10" class="node">
<title>Node10</title>
<g id="a_node10"><a xlink:href="d__meter2_8cpp.html" target="_top" xlink:title=" ">
<polygon fill="white" stroke="black" points="1626.5,-6 1626.5,-25 1754.5,-25 1754.5,-6 1626.5,-6"/>
<text text-anchor="middle" x="1690.5" y="-13" font-family="Helvetica,sans-Serif" font-size="10.00">src/d/meter/d_meter2.cpp</text>
</a>
</g>
</g>
<!-- Node3&#45;&gt;Node10 -->
<g id="edge9" class="edge">
<title>Node3&#45;&gt;Node10</title>
<path fill="none" stroke="midnightblue" d="M835.31,-71.14C844.65,-69.53 854.34,-68.05 863.5,-67 1196.79,-28.63 1284.5,-71.79 1617.5,-31 1629.17,-29.57 1641.77,-27.32 1653.16,-25.02"/>
<polygon fill="midnightblue" stroke="midnightblue" points="834.57,-67.72 825.35,-72.93 835.81,-74.61 834.57,-67.72"/>
</g>
<!-- Node11 -->
<g id="node11" class="node">
<title>Node11</title>
<g id="a_node11"><a xlink:href="d__msg__flow_8cpp.html" target="_top" xlink:title=" ">
<polygon fill="white" stroke="black" points="1773,-6 1773,-25 1906,-25 1906,-6 1773,-6"/>
<text text-anchor="middle" x="1839.5" y="-13" font-family="Helvetica,sans-Serif" font-size="10.00">src/d/msg/d_msg_flow.cpp</text>
</a>
</g>
</g>
<!-- Node3&#45;&gt;Node11 -->
<g id="edge10" class="edge">
<title>Node3&#45;&gt;Node11</title>
<path fill="none" stroke="midnightblue" d="M834.99,-71.14C844.43,-69.51 854.24,-68.03 863.5,-67 1261.37,-22.75 1365.79,-76.64 1763.5,-31 1775.64,-29.61 1788.76,-27.37 1800.62,-25.07"/>
<polygon fill="midnightblue" stroke="midnightblue" points="834.16,-67.73 824.93,-72.94 835.39,-74.62 834.16,-67.73"/>
</g>
<!-- Node12 -->
<g id="node12" class="node">
<title>Node12</title>
<g id="a_node12"><a xlink:href="d__s__logo_8cpp.html" target="_top" xlink:title=" ">
<polygon fill="white" stroke="black" points="248,-6 248,-25 355,-25 355,-6 248,-6"/>
<text text-anchor="middle" x="301.5" y="-13" font-family="Helvetica,sans-Serif" font-size="10.00">src/d/s/d_s_logo.cpp</text>
</a>
</g>
</g>
<!-- Node3&#45;&gt;Node12 -->
<g id="edge11" class="edge">
<title>Node3&#45;&gt;Node12</title>
<path fill="none" stroke="midnightblue" d="M704.23,-74.41C619.43,-66.33 481.99,-51.52 364.5,-31 355.1,-29.36 345,-27.21 335.7,-25.07"/>
<polygon fill="midnightblue" stroke="midnightblue" points="704.03,-77.91 714.31,-75.37 704.68,-70.94 704.03,-77.91"/>
</g>
<!-- Node13 -->
<g id="node13" class="node">
<title>Node13</title>
<g id="a_node13"><a xlink:href="d__s__name_8cpp.html" target="_top" xlink:title=" ">
<polygon fill="white" stroke="black" points="373,-6 373,-25 486,-25 486,-6 373,-6"/>
<text text-anchor="middle" x="429.5" y="-13" font-family="Helvetica,sans-Serif" font-size="10.00">src/d/s/d_s_name.cpp</text>
</a>
</g>
</g>
<!-- Node3&#45;&gt;Node13 -->
<g id="edge12" class="edge">
<title>Node3&#45;&gt;Node13</title>
<path fill="none" stroke="midnightblue" d="M721.42,-71.28C662.77,-61.6 573.05,-46.29 495.5,-31 486.29,-29.18 476.39,-27.09 467.14,-25.06"/>
<polygon fill="midnightblue" stroke="midnightblue" points="721.2,-74.8 731.64,-72.97 722.34,-67.89 721.2,-74.8"/>
</g>
<!-- Node14 -->
<g id="node14" class="node">
<title>Node14</title>
<g id="a_node14"><a xlink:href="d__s__play_8cpp.html" target="_top" xlink:title=" ">
<polygon fill="white" stroke="black" points="504.5,-6 504.5,-25 610.5,-25 610.5,-6 504.5,-6"/>
<text text-anchor="middle" x="557.5" y="-13" font-family="Helvetica,sans-Serif" font-size="10.00">src/d/s/d_s_play.cpp</text>
</a>
</g>
</g>
<!-- Node3&#45;&gt;Node14 -->
<g id="edge13" class="edge">
<title>Node3&#45;&gt;Node14</title>
<path fill="none" stroke="midnightblue" d="M744.66,-70.09C699.75,-57.23 627.76,-36.62 587.41,-25.06"/>
<polygon fill="midnightblue" stroke="midnightblue" points="743.78,-73.48 754.36,-72.87 745.71,-66.75 743.78,-73.48"/>
</g>
<!-- Node15 -->
<g id="node15" class="node">
<title>Node15</title>
<g id="a_node15"><a xlink:href="d__shop__system_8cpp.html" target="_top" xlink:title=" ">
<polygon fill="white" stroke="black" points="628.5,-6 628.5,-25 780.5,-25 780.5,-6 628.5,-6"/>
<text text-anchor="middle" x="704.5" y="-13" font-family="Helvetica,sans-Serif" font-size="10.00">src/d/shop/d_shop_system.cpp</text>
</a>
</g>
</g>
<!-- Node3&#45;&gt;Node15 -->
<g id="edge14" class="edge">
<title>Node3&#45;&gt;Node15</title>
<path fill="none" stroke="midnightblue" d="M765.69,-66.21C749.92,-53.41 727.99,-35.59 715.12,-25.13"/>
<polygon fill="midnightblue" stroke="midnightblue" points="763.74,-69.14 773.71,-72.73 768.16,-63.71 763.74,-69.14"/>
</g>
<!-- Node16 -->
<g id="node16" class="node">
<title>Node16</title>
<g id="a_node16"><a xlink:href="f__pc__manager_8cpp.html" target="_top" xlink:title=" ">
<polygon fill="white" stroke="black" points="798.5,-6 798.5,-25 932.5,-25 932.5,-6 798.5,-6"/>
<text text-anchor="middle" x="865.5" y="-13" font-family="Helvetica,sans-Serif" font-size="10.00">src/f_pc/f_pc_manager.cpp</text>
</a>
</g>
</g>
<!-- Node3&#45;&gt;Node16 -->
<g id="edge15" class="edge">
<title>Node3&#45;&gt;Node16</title>
<path fill="none" stroke="midnightblue" d="M803.55,-66.21C819.51,-53.41 841.71,-35.59 854.75,-25.13"/>
<polygon fill="midnightblue" stroke="midnightblue" points="801.03,-63.75 795.42,-72.73 805.41,-69.2 801.03,-63.75"/>
</g>
<!-- Node17 -->
<g id="node17" class="node">
<title>Node17</title>
<g id="a_node17"><a xlink:href="m__Do__audio_8cpp.html" target="_top" xlink:title=" ">
<polygon fill="white" stroke="black" points="950.5,-6 950.5,-25 1084.5,-25 1084.5,-6 950.5,-6"/>
<text text-anchor="middle" x="1017.5" y="-13" font-family="Helvetica,sans-Serif" font-size="10.00">src/m_Do/m_Do_audio.cpp</text>
</a>
</g>
</g>
<!-- Node3&#45;&gt;Node17 -->
<g id="edge16" class="edge">
<title>Node3&#45;&gt;Node17</title>
<path fill="none" stroke="midnightblue" d="M825.11,-70.17C871.18,-57.32 945.3,-36.64 986.8,-25.06"/>
<polygon fill="midnightblue" stroke="midnightblue" points="824.13,-66.81 815.44,-72.87 826.01,-73.55 824.13,-66.81"/>
</g>
</g>
</svg>
        <g id="navigator" transform="translate(0 0)" fill="#404254">
                <rect fill="#f2f5e9" fill-opacity="0.5" stroke="#606060" stroke-width=".5" x="0" y="0" width="60" height="60"/>
                <use id="zoomplus" xlink:href="#zoomPlus" x="17" y="9" onmousedown="handleZoom(evt,'in')"/>
                <use id="zoomminus" xlink:href="#zoomMin" x="42" y="9" onmousedown="handleZoom(evt,'out')"/>
                <use id="reset" xlink:href="#resetDef" x="30" y="36" onmousedown="handleReset()"/>
                <g id="arrowUp" xlink:href="#dirArrow" transform="translate(30 24)" onmousedown="handlePan(0,-1)">
                  <use xlink:href="#rim" fill="#404040">
                        <set attributeName="fill" to="#808080" begin="arrowUp.mouseover" end="arrowUp.mouseout"/>
                  </use>
                  <path fill="none" stroke="white" stroke-width="1.5" d="M0,-3.0v7 M-2.5,-0.5L0,-3.0L2.5,-0.5"/>
                </g>
                <g id="arrowRight" xlink:href="#dirArrow" transform="rotate(90) translate(36 -43)" onmousedown="handlePan(1,0)">
                  <use xlink:href="#rim" fill="#404040">
                        <set attributeName="fill" to="#808080" begin="arrowRight.mouseover" end="arrowRight.mouseout"/>
                  </use>
                  <path fill="none" stroke="white" stroke-width="1.5" d="M0,-3.0v7 M-2.5,-0.5L0,-3.0L2.5,-0.5"/>
                </g>
                <g id="arrowDown" xlink:href="#dirArrow" transform="rotate(180) translate(-30 -48)" onmousedown="handlePan(0,1)">
                  <use xlink:href="#rim" fill="#404040">
                        <set attributeName="fill" to="#808080" begin="arrowDown.mouseover" end="arrowDown.mouseout"/>
                  </use>
                  <path fill="none" stroke="white" stroke-width="1.5" d="M0,-3.0v7 M-2.5,-0.5L0,-3.0L2.5,-0.5"/>
                </g>
                <g id="arrowLeft" xlink:href="#dirArrow" transform="rotate(270) translate(-36 17)" onmousedown="handlePan(-1,0)">
                  <use xlink:href="#rim" fill="#404040">
                        <set attributeName="fill" to="#808080" begin="arrowLeft.mouseover" end="arrowLeft.mouseout"/>
                  </use>
                  <path fill="none" stroke="white" stroke-width="1.5" d="M0,-3.0v7 M-2.5,-0.5L0,-3.0L2.5,-0.5"/>
                </g>
        </g>
        <svg viewBox="0 0 15 15" width="100%" height="30px" preserveAspectRatio="xMaxYMin meet">
         <g id="arrow_out" transform="scale(0.3 0.3)">
          <a xlink:href="Z2SoundObjMgr_8h__dep__incl_org.svg" target="_base">
           <rect id="button" ry="5" rx="5" y="6" x="6" height="38" width="38"
                fill="#f2f5e9" fill-opacity="0.5" stroke="#606060" stroke-width="1.0"/>
           <path id="arrow"
             d="M 11.500037,31.436501 C 11.940474,20.09759 22.043105,11.32322 32.158766,21.979434 L 37.068811,17.246167 C 37.068811,17.246167 37.088388,32 37.088388,32 L 22.160133,31.978069 C 22.160133,31.978069 26.997745,27.140456 26.997745,27.140456 C 18.528582,18.264221 13.291696,25.230495 11.500037,31.436501 z"
             style="fill:#404040;"/>
          </a>
         </g>
        </svg>
</svg>
