<?xml version="1.0" encoding="UTF-8" standalone="no"?>
<!DOCTYPE svg PUBLIC "-//W3C//DTD SVG 1.1//EN"
 "http://www.w3.org/Graphics/SVG/1.1/DTD/svg11.dtd">
<!-- Generated by graphviz version 3.0.0 (20220413.0242)
 -->
<!-- Title: libs/Z2AudioLib/Z2SoundObjMgr.cpp Pages: 1 -->
<!--zoomable 665 -->
<svg id="main" version="1.1" xmlns="http://www.w3.org/2000/svg" xmlns:xlink="http://www.w3.org/1999/xlink" xml:space="preserve" onload="init(evt)">
<style type="text/css"><![CDATA[
.edge:hover path { stroke: red; }
.edge:hover polygon { stroke: red; fill: red; }
]]></style>
<script type="text/javascript"><![CDATA[
var edges = document.getElementsByTagName('g');
if (edges && edges.length) {
  for (var i=0;i<edges.length;i++) {
    if (edges[i].id.substr(0,4)=='edge') {
      edges[i].setAttribute('class','edge');
    }
  }
}
]]></script>
        <defs>
                <circle id="rim" cx="0" cy="0" r="7"/>
                <circle id="rim2" cx="0" cy="0" r="3.5"/>
                <g id="zoomPlus">
                        <use xlink:href="#rim" fill="#404040">
                                <set attributeName="fill" to="#808080" begin="zoomplus.mouseover" end="zoomplus.mouseout"/>
                        </use>
                        <path d="M-4,0h8M0,-4v8" fill="none" stroke="white" stroke-width="1.5" pointer-events="none"/>
                </g>
                <g id="zoomMin">
                        <use xlink:href="#rim" fill="#404040">
                                <set attributeName="fill" to="#808080" begin="zoomminus.mouseover" end="zoomminus.mouseout"/>
                        </use>
                        <path d="M-4,0h8" fill="none" stroke="white" stroke-width="1.5" pointer-events="none"/>
                </g>
                <g id="dirArrow">
                        <path fill="none" stroke="white" stroke-width="1.5" d="M0,-3.0v7 M-2.5,-0.5L0,-3.0L2.5,-0.5"/>
                </g>
               <g id="resetDef">
                       <use xlink:href="#rim2" fill="#404040">
                               <set attributeName="fill" to="#808080" begin="reset.mouseover" end="reset.mouseout"/>
                       </use>
               </g>
        </defs>

<script type="text/javascript">
var viewWidth = 3392;
var viewHeight = 665;
var sectionId = 'dynsection-0';
</script>
<script xlink:href="svgpan.js"/>
<svg id="graph" class="graph">
<g id="viewport">
<title>libs/Z2AudioLib/Z2SoundObjMgr.cpp</title>
<polygon fill="white" stroke="transparent" points="-4,4 -4,-661 3387.5,-661 3387.5,4 -4,4"/>
<!-- Node1 -->
<g id="node1" class="node">
<title>Node1</title>
<g id="a_node1"><a xlink:title=" ">
<polygon fill="#bfbfbf" stroke="black" points="2170.5,-626.5 2170.5,-656.5 2311.5,-656.5 2311.5,-626.5 2170.5,-626.5"/>
<text text-anchor="start" x="2178.5" y="-644.5" font-family="Helvetica,sans-Serif" font-size="10.00">libs/Z2AudioLib/Z2SoundObj</text>
<text text-anchor="middle" x="2241" y="-633.5" font-family="Helvetica,sans-Serif" font-size="10.00">Mgr.cpp</text>
</a>
</g>
</g>
<!-- Node2 -->
<g id="node2" class="node">
<title>Node2</title>
<g id="a_node2"><a xlink:href="Z2SoundObjMgr_8h.html" target="_top" xlink:title=" ">
<polygon fill="white" stroke="black" points="1483.5,-559.5 1483.5,-578.5 1630.5,-578.5 1630.5,-559.5 1483.5,-559.5"/>
<text text-anchor="middle" x="1557" y="-566.5" font-family="Helvetica,sans-Serif" font-size="10.00">Z2AudioLib/Z2SoundObjMgr.h</text>
</a>
</g>
</g>
<!-- Node1&#45;&gt;Node2 -->
<g id="edge1" class="edge">
<title>Node1&#45;&gt;Node2</title>
<path fill="none" stroke="midnightblue" d="M2170.29,-637.29C2059.23,-631.61 1837.34,-617.69 1651,-590 1634.89,-587.61 1617.4,-584.13 1601.92,-580.74"/>
<polygon fill="midnightblue" stroke="midnightblue" points="1602.6,-577.31 1592.08,-578.55 1601.07,-584.14 1602.6,-577.31"/>
</g>
<!-- Node4 -->
<g id="node4" class="node">
<title>Node4</title>
<g id="a_node4"><a xlink:href="types_8h.html" target="_top" xlink:title=" ">
<polygon fill="white" stroke="black" points="968.5,-0.5 968.5,-19.5 1049.5,-19.5 1049.5,-0.5 968.5,-0.5"/>
<text text-anchor="middle" x="1009" y="-7.5" font-family="Helvetica,sans-Serif" font-size="10.00">dolphin/types.h</text>
</a>
</g>
</g>
<!-- Node1&#45;&gt;Node4 -->
<g id="edge63" class="edge">
<title>Node1&#45;&gt;Node4</title>
<path fill="none" stroke="midnightblue" d="M2170.4,-638.65C2028.86,-634.29 1720.85,-621.29 1685,-590 1655.11,-563.91 1665,-542.68 1665,-503 1665,-503 1665,-503 1665,-137.5 1665,-94.29 1649.18,-78 1612,-56 1565.06,-28.22 1196.89,-15.89 1060.02,-12.23"/>
<polygon fill="midnightblue" stroke="midnightblue" points="1059.89,-8.72 1049.8,-11.96 1059.71,-15.72 1059.89,-8.72"/>
</g>
<!-- Node27 -->
<g id="node27" class="node">
<title>Node27</title>
<g id="a_node27"><a xlink:href="Z2SeqMgr_8h.html" target="_top" xlink:title=" ">
<polygon fill="white" stroke="black" points="0,-319 0,-338 122,-338 122,-319 0,-319"/>
<text text-anchor="middle" x="61" y="-326" font-family="Helvetica,sans-Serif" font-size="10.00">Z2AudioLib/Z2SeqMgr.h</text>
</a>
</g>
</g>
<!-- Node1&#45;&gt;Node27 -->
<g id="edge59" class="edge">
<title>Node1&#45;&gt;Node27</title>
<path fill="none" stroke="midnightblue" d="M2170.33,-639.5C1811.14,-633.99 205,-603.69 205,-503 205,-503 205,-503 205,-445 205,-390.59 141.67,-357.55 99,-341.46"/>
<polygon fill="midnightblue" stroke="midnightblue" points="100.04,-338.12 89.45,-338.01 97.67,-344.7 100.04,-338.12"/>
</g>
<!-- Node28 -->
<g id="node28" class="node">
<title>Node28</title>
<g id="a_node28"><a xlink:href="dol2asm_8h.html" target="_top" xlink:title=" ">
<polygon fill="white" stroke="black" points="1693.5,-559.5 1693.5,-578.5 1754.5,-578.5 1754.5,-559.5 1693.5,-559.5"/>
<text text-anchor="middle" x="1724" y="-566.5" font-family="Helvetica,sans-Serif" font-size="10.00">dol2asm.h</text>
</a>
</g>
</g>
<!-- Node1&#45;&gt;Node28 -->
<g id="edge62" class="edge">
<title>Node1&#45;&gt;Node28</title>
<path fill="none" stroke="midnightblue" d="M2170.37,-640.83C2075.9,-639.51 1904.07,-630.97 1764,-590 1758.32,-588.34 1752.47,-585.89 1747.06,-583.28"/>
<polygon fill="midnightblue" stroke="midnightblue" points="1748.42,-580.03 1737.93,-578.52 1745.18,-586.24 1748.42,-580.03"/>
</g>
<!-- Node29 -->
<g id="node29" class="node">
<title>Node29</title>
<g id="a_node29"><a xlink:title=" ">
<polygon fill="white" stroke="#bfbfbf" points="1772.5,-554 1772.5,-584 1937.5,-584 1937.5,-554 1772.5,-554"/>
<text text-anchor="start" x="1780.5" y="-572" font-family="Helvetica,sans-Serif" font-size="10.00">asm/Z2AudioLib/Z2SoundObj</text>
<text text-anchor="middle" x="1855" y="-561" font-family="Helvetica,sans-Serif" font-size="10.00">Mgr/__ct__13Z2SoundObjMgrFv.s</text>
</a>
</g>
</g>
<!-- Node1&#45;&gt;Node29 -->
<g id="edge64" class="edge">
<title>Node1&#45;&gt;Node29</title>
<path fill="none" stroke="midnightblue" d="M2170.45,-629.27C2110.79,-619.57 2023.13,-604.81 1947,-590 1940.79,-588.79 1934.35,-587.49 1927.9,-586.15"/>
<polygon fill="midnightblue" stroke="midnightblue" points="1928.28,-582.66 1917.78,-584.03 1926.84,-589.51 1928.28,-582.66"/>
</g>
<!-- Node30 -->
<g id="node30" class="node">
<title>Node30</title>
<g id="a_node30"><a xlink:title=" ">
<polygon fill="white" stroke="#bfbfbf" points="1955.5,-548.5 1955.5,-589.5 2120.5,-589.5 2120.5,-548.5 1955.5,-548.5"/>
<text text-anchor="start" x="1963.5" y="-577.5" font-family="Helvetica,sans-Serif" font-size="10.00">asm/Z2AudioLib/Z2SoundObj</text>
<text text-anchor="start" x="1963.5" y="-566.5" font-family="Helvetica,sans-Serif" font-size="10.00">Mgr/setForceBattleArea</text>
<text text-anchor="middle" x="2038" y="-555.5" font-family="Helvetica,sans-Serif" font-size="10.00">__13Z2SoundObjMgrFbUsUsUs.s</text>
</a>
</g>
</g>
<!-- Node1&#45;&gt;Node30 -->
<g id="edge65" class="edge">
<title>Node1&#45;&gt;Node30</title>
<path fill="none" stroke="midnightblue" d="M2200.41,-626.4C2172.83,-616.83 2135.73,-603.94 2103.96,-592.91"/>
<polygon fill="midnightblue" stroke="midnightblue" points="2104.88,-589.52 2094.28,-589.55 2102.58,-596.13 2104.88,-589.52"/>
</g>
<!-- Node31 -->
<g id="node31" class="node">
<title>Node31</title>
<g id="a_node31"><a xlink:title=" ">
<polygon fill="white" stroke="#bfbfbf" points="2138.5,-554 2138.5,-584 2343.5,-584 2343.5,-554 2138.5,-554"/>
<text text-anchor="start" x="2146.5" y="-572" font-family="Helvetica,sans-Serif" font-size="10.00">asm/Z2AudioLib/Z2SoundObj</text>
<text text-anchor="middle" x="2241" y="-561" font-family="Helvetica,sans-Serif" font-size="10.00">Mgr/searchEnemy__13Z2SoundObjMgrFv.s</text>
</a>
</g>
</g>
<!-- Node1&#45;&gt;Node31 -->
<g id="edge66" class="edge">
<title>Node1&#45;&gt;Node31</title>
<path fill="none" stroke="midnightblue" d="M2241,-626.23C2241,-617.16 2241,-605.16 2241,-594.58"/>
<polygon fill="midnightblue" stroke="midnightblue" points="2244.5,-594.25 2241,-584.25 2237.5,-594.25 2244.5,-594.25"/>
</g>
<!-- Node32 -->
<g id="node32" class="node">
<title>Node32</title>
<g id="a_node32"><a xlink:title=" ">
<polygon fill="white" stroke="#bfbfbf" points="2361.5,-554 2361.5,-584 2506.5,-584 2506.5,-554 2361.5,-554"/>
<text text-anchor="start" x="2369.5" y="-572" font-family="Helvetica,sans-Serif" font-size="10.00">asm/Z2AudioLib/Z2SoundObj</text>
<text text-anchor="middle" x="2434" y="-561" font-family="Helvetica,sans-Serif" font-size="10.00">Mgr/func_802C0074.s</text>
</a>
</g>
</g>
<!-- Node1&#45;&gt;Node32 -->
<g id="edge67" class="edge">
<title>Node1&#45;&gt;Node32</title>
<path fill="none" stroke="midnightblue" d="M2279.59,-626.4C2310.23,-615.21 2353.22,-599.51 2386.07,-587.51"/>
<polygon fill="midnightblue" stroke="midnightblue" points="2387.28,-590.79 2395.47,-584.07 2384.88,-584.22 2387.28,-590.79"/>
</g>
<!-- Node33 -->
<g id="node33" class="node">
<title>Node33</title>
<g id="a_node33"><a xlink:title=" ">
<polygon fill="white" stroke="#bfbfbf" points="2525,-548.5 2525,-589.5 2689,-589.5 2689,-548.5 2525,-548.5"/>
<text text-anchor="start" x="2533" y="-577.5" font-family="Helvetica,sans-Serif" font-size="10.00">asm/Z2AudioLib/Z2SoundObj</text>
<text text-anchor="start" x="2533" y="-566.5" font-family="Helvetica,sans-Serif" font-size="10.00">Mgr/setBattleInit__13Z2SoundObj</text>
<text text-anchor="middle" x="2607" y="-555.5" font-family="Helvetica,sans-Serif" font-size="10.00">MgrFv.s</text>
</a>
</g>
</g>
<!-- Node1&#45;&gt;Node33 -->
<g id="edge68" class="edge">
<title>Node1&#45;&gt;Node33</title>
<path fill="none" stroke="midnightblue" d="M2311.78,-628.2C2365.01,-618.79 2439.99,-605.19 2514.64,-590.25"/>
<polygon fill="midnightblue" stroke="midnightblue" points="2515.57,-593.63 2524.69,-588.22 2514.19,-586.76 2515.57,-593.63"/>
</g>
<!-- Node34 -->
<g id="node34" class="node">
<title>Node34</title>
<g id="a_node34"><a xlink:title=" ">
<polygon fill="white" stroke="#bfbfbf" points="2707.5,-548.5 2707.5,-589.5 2852.5,-589.5 2852.5,-548.5 2707.5,-548.5"/>
<text text-anchor="start" x="2715.5" y="-577.5" font-family="Helvetica,sans-Serif" font-size="10.00">asm/Z2AudioLib/Z2SoundObj</text>
<text text-anchor="start" x="2715.5" y="-566.5" font-family="Helvetica,sans-Serif" font-size="10.00">Mgr/checkBattleFinish_</text>
<text text-anchor="middle" x="2780" y="-555.5" font-family="Helvetica,sans-Serif" font-size="10.00">_13Z2SoundObjMgrFv.s</text>
</a>
</g>
</g>
<!-- Node1&#45;&gt;Node34 -->
<g id="edge69" class="edge">
<title>Node1&#45;&gt;Node34</title>
<path fill="none" stroke="midnightblue" d="M2311.86,-635.52C2399.93,-628.7 2554.92,-614.61 2697.02,-590.05"/>
<polygon fill="midnightblue" stroke="midnightblue" points="2697.98,-593.44 2707.23,-588.27 2696.77,-586.54 2697.98,-593.44"/>
</g>
<!-- Node35 -->
<g id="node35" class="node">
<title>Node35</title>
<g id="a_node35"><a xlink:title=" ">
<polygon fill="white" stroke="#bfbfbf" points="2870.5,-554 2870.5,-584 3015.5,-584 3015.5,-554 2870.5,-554"/>
<text text-anchor="start" x="2878.5" y="-572" font-family="Helvetica,sans-Serif" font-size="10.00">asm/Z2AudioLib/Z2SoundObj</text>
<text text-anchor="middle" x="2943" y="-561" font-family="Helvetica,sans-Serif" font-size="10.00">Mgr/func_802C0190.s</text>
</a>
</g>
</g>
<!-- Node1&#45;&gt;Node35 -->
<g id="edge70" class="edge">
<title>Node1&#45;&gt;Node35</title>
<path fill="none" stroke="midnightblue" d="M2311.76,-638.45C2427.5,-634.27 2664.23,-622.24 2862,-590 2868.29,-588.98 2874.8,-587.71 2881.28,-586.32"/>
<polygon fill="midnightblue" stroke="midnightblue" points="2882.41,-589.66 2891.4,-584.05 2880.88,-582.83 2882.41,-589.66"/>
</g>
<!-- Node36 -->
<g id="node36" class="node">
<title>Node36</title>
<g id="a_node36"><a xlink:title=" ">
<polygon fill="white" stroke="#bfbfbf" points="3033.5,-548.5 3033.5,-589.5 3196.5,-589.5 3196.5,-548.5 3033.5,-548.5"/>
<text text-anchor="start" x="3041.5" y="-577.5" font-family="Helvetica,sans-Serif" font-size="10.00">asm/Z2AudioLib/Z2SoundObj</text>
<text text-anchor="start" x="3041.5" y="-566.5" font-family="Helvetica,sans-Serif" font-size="10.00">Mgr/isTwilightBattle__13Z2Sound</text>
<text text-anchor="middle" x="3115" y="-555.5" font-family="Helvetica,sans-Serif" font-size="10.00">ObjMgrFv.s</text>
</a>
</g>
</g>
<!-- Node1&#45;&gt;Node36 -->
<g id="edge71" class="edge">
<title>Node1&#45;&gt;Node36</title>
<path fill="none" stroke="midnightblue" d="M2311.65,-639.59C2447.75,-637.06 2755.77,-627.47 3022.9,-590.2"/>
<polygon fill="midnightblue" stroke="midnightblue" points="3023.77,-593.61 3033.18,-588.74 3022.79,-586.68 3023.77,-593.61"/>
</g>
<!-- Node37 -->
<g id="node37" class="node">
<title>Node37</title>
<g id="a_node37"><a xlink:title=" ">
<polygon fill="white" stroke="#bfbfbf" points="3214.5,-554 3214.5,-584 3383.5,-584 3383.5,-554 3214.5,-554"/>
<text text-anchor="start" x="3222.5" y="-572" font-family="Helvetica,sans-Serif" font-size="10.00">asm/Z2AudioLib/Z2SoundObj</text>
<text text-anchor="middle" x="3299" y="-561" font-family="Helvetica,sans-Serif" font-size="10.00">Mgr/__sinit_Z2SoundObjMgr_cpp.s</text>
</a>
</g>
</g>
<!-- Node1&#45;&gt;Node37 -->
<g id="edge72" class="edge">
<title>Node1&#45;&gt;Node37</title>
<path fill="none" stroke="midnightblue" d="M2311.58,-640.65C2471.5,-640.15 2873.39,-634.18 3206,-590 3214.03,-588.93 3222.4,-587.54 3230.68,-585.99"/>
<polygon fill="midnightblue" stroke="midnightblue" points="3231.57,-589.38 3240.71,-584.02 3230.22,-582.51 3231.57,-589.38"/>
</g>
<!-- Node3 -->
<g id="node3" class="node">
<title>Node3</title>
<g id="a_node3"><a xlink:href="JSUList_8h.html" target="_top" xlink:title=" ">
<polygon fill="white" stroke="black" points="1417.5,-257.5 1417.5,-276.5 1560.5,-276.5 1560.5,-257.5 1417.5,-257.5"/>
<text text-anchor="middle" x="1489" y="-264.5" font-family="Helvetica,sans-Serif" font-size="10.00">JSystem/JSupport/JSUList.h</text>
</a>
</g>
</g>
<!-- Node2&#45;&gt;Node3 -->
<g id="edge2" class="edge">
<title>Node2&#45;&gt;Node3</title>
<path fill="none" stroke="midnightblue" d="M1555.04,-559.35C1545.77,-518.46 1506.27,-344.21 1493.21,-286.59"/>
<polygon fill="midnightblue" stroke="midnightblue" points="1496.59,-285.67 1490.97,-276.69 1489.77,-287.22 1496.59,-285.67"/>
</g>
<!-- Node2&#45;&gt;Node4 -->
<g id="edge58" class="edge">
<title>Node2&#45;&gt;Node4</title>
<path fill="none" stroke="midnightblue" d="M1566.44,-559.3C1585.55,-540.69 1627,-494.81 1627,-447 1627,-447 1627,-447 1627,-137.5 1627,-95.91 1616.07,-78.37 1581,-56 1537.61,-28.33 1191.54,-16.01 1059.73,-12.29"/>
<polygon fill="midnightblue" stroke="midnightblue" points="1059.6,-8.78 1049.5,-12 1059.4,-15.78 1059.6,-8.78"/>
</g>
<!-- Node5 -->
<g id="node5" class="node">
<title>Node5</title>
<g id="a_node5"><a xlink:href="Z2Creature_8h.html" target="_top" xlink:title=" ">
<polygon fill="white" stroke="black" points="1326.5,-492.5 1326.5,-511.5 1451.5,-511.5 1451.5,-492.5 1326.5,-492.5"/>
<text text-anchor="middle" x="1389" y="-499.5" font-family="Helvetica,sans-Serif" font-size="10.00">Z2AudioLib/Z2Creature.h</text>
</a>
</g>
</g>
<!-- Node2&#45;&gt;Node5 -->
<g id="edge4" class="edge">
<title>Node2&#45;&gt;Node5</title>
<path fill="none" stroke="midnightblue" d="M1534.69,-559.37C1505.49,-548.07 1454.12,-528.2 1420.84,-515.32"/>
<polygon fill="midnightblue" stroke="midnightblue" points="1421.72,-511.91 1411.13,-511.56 1419.2,-518.44 1421.72,-511.91"/>
</g>
<!-- Node3&#45;&gt;Node4 -->
<g id="edge3" class="edge">
<title>Node3&#45;&gt;Node4</title>
<path fill="none" stroke="midnightblue" d="M1495.19,-257.44C1517.1,-226.03 1586.85,-115.77 1532,-56 1500.46,-21.63 1184.83,-13.45 1059.71,-11.56"/>
<polygon fill="midnightblue" stroke="midnightblue" points="1059.67,-8.06 1049.62,-11.41 1059.57,-15.05 1059.67,-8.06"/>
</g>
<!-- Node5&#45;&gt;Node4 -->
<g id="edge57" class="edge">
<title>Node5&#45;&gt;Node4</title>
<path fill="none" stroke="midnightblue" d="M1405.37,-492.36C1453.13,-465.83 1589,-380.48 1589,-268 1589,-268 1589,-268 1589,-137.5 1589,-98.08 1586,-79.03 1554,-56 1514.46,-27.55 1188.05,-15.79 1060.14,-12.25"/>
<polygon fill="midnightblue" stroke="midnightblue" points="1059.92,-8.74 1049.83,-11.97 1059.73,-15.74 1059.92,-8.74"/>
</g>
<!-- Node6 -->
<g id="node6" class="node">
<title>Node6</title>
<g id="a_node6"><a xlink:href="c__xyz_8h.html" target="_top" xlink:title=" ">
<polygon fill="white" stroke="black" points="1153,-190.5 1153,-220.5 1269,-220.5 1269,-190.5 1153,-190.5"/>
<text text-anchor="start" x="1161" y="-208.5" font-family="Helvetica,sans-Serif" font-size="10.00">SSystem/SComponent</text>
<text text-anchor="middle" x="1211" y="-197.5" font-family="Helvetica,sans-Serif" font-size="10.00">/c_xyz.h</text>
</a>
</g>
</g>
<!-- Node5&#45;&gt;Node6 -->
<g id="edge5" class="edge">
<title>Node5&#45;&gt;Node6</title>
<path fill="none" stroke="midnightblue" d="M1326.32,-497.48C1293.66,-492.48 1255.36,-481.15 1230,-456 1208.63,-434.81 1211,-421.1 1211,-391 1211,-391 1211,-391 1211,-327.5 1211,-293.98 1211,-255.24 1211,-230.81"/>
<polygon fill="midnightblue" stroke="midnightblue" points="1214.5,-230.66 1211,-220.66 1207.5,-230.66 1214.5,-230.66"/>
</g>
<!-- Node11 -->
<g id="node11" class="node">
<title>Node11</title>
<g id="a_node11"><a xlink:href="Z2SoundObject_8h.html" target="_top" xlink:title=" ">
<polygon fill="white" stroke="black" points="1239,-436.5 1239,-455.5 1383,-455.5 1383,-436.5 1239,-436.5"/>
<text text-anchor="middle" x="1311" y="-443.5" font-family="Helvetica,sans-Serif" font-size="10.00">Z2AudioLib/Z2SoundObject.h</text>
</a>
</g>
</g>
<!-- Node5&#45;&gt;Node11 -->
<g id="edge14" class="edge">
<title>Node5&#45;&gt;Node11</title>
<path fill="none" stroke="midnightblue" d="M1376.47,-492.32C1364.41,-483.98 1345.97,-471.21 1331.73,-461.35"/>
<polygon fill="midnightblue" stroke="midnightblue" points="1333.72,-458.47 1323.5,-455.65 1329.73,-464.22 1333.72,-458.47"/>
</g>
<!-- Node7 -->
<g id="node7" class="node">
<title>Node7</title>
<g id="a_node7"><a xlink:href="math_8h.html" target="_top" xlink:title=" ">
<polygon fill="white" stroke="black" points="1363,-129 1363,-148 1445,-148 1445,-129 1363,-129"/>
<text text-anchor="middle" x="1404" y="-136" font-family="Helvetica,sans-Serif" font-size="10.00">MSL_C/math.h</text>
</a>
</g>
</g>
<!-- Node6&#45;&gt;Node7 -->
<g id="edge6" class="edge">
<title>Node6&#45;&gt;Node7</title>
<path fill="none" stroke="midnightblue" d="M1252.88,-190.4C1287.64,-178.69 1336.51,-162.23 1369.16,-151.23"/>
<polygon fill="midnightblue" stroke="midnightblue" points="1370.38,-154.52 1378.74,-148.01 1368.15,-147.88 1370.38,-154.52"/>
</g>
<!-- Node9 -->
<g id="node9" class="node">
<title>Node9</title>
<g id="a_node9"><a xlink:href="vec_8h.html" target="_top" xlink:title=" ">
<polygon fill="white" stroke="black" points="889,-62 889,-81 981,-81 981,-62 889,-62"/>
<text text-anchor="middle" x="935" y="-69" font-family="Helvetica,sans-Serif" font-size="10.00">dolphin/mtx/vec.h</text>
</a>
</g>
</g>
<!-- Node6&#45;&gt;Node9 -->
<g id="edge10" class="edge">
<title>Node6&#45;&gt;Node9</title>
<path fill="none" stroke="midnightblue" d="M1186.48,-190.46C1156.58,-173.57 1104.3,-144.77 1058,-123 1027.76,-108.78 992.38,-94.49 967.35,-84.76"/>
<polygon fill="midnightblue" stroke="midnightblue" points="968.55,-81.47 957.96,-81.14 966.03,-88 968.55,-81.47"/>
</g>
<!-- Node10 -->
<g id="node10" class="node">
<title>Node10</title>
<g id="a_node10"><a xlink:href="global_8h.html" target="_top" xlink:title=" ">
<polygon fill="white" stroke="black" points="1219,-129 1219,-148 1269,-148 1269,-129 1219,-129"/>
<text text-anchor="middle" x="1244" y="-136" font-family="Helvetica,sans-Serif" font-size="10.00">global.h</text>
</a>
</g>
</g>
<!-- Node6&#45;&gt;Node10 -->
<g id="edge12" class="edge">
<title>Node6&#45;&gt;Node10</title>
<path fill="none" stroke="midnightblue" d="M1218.16,-190.4C1223.1,-180.66 1229.71,-167.65 1235.01,-157.21"/>
<polygon fill="midnightblue" stroke="midnightblue" points="1238.18,-158.7 1239.59,-148.19 1231.94,-155.53 1238.18,-158.7"/>
</g>
<!-- Node7&#45;&gt;Node4 -->
<g id="edge9" class="edge">
<title>Node7&#45;&gt;Node4</title>
<path fill="none" stroke="midnightblue" d="M1399.51,-128.79C1390.13,-111.59 1366.68,-73.42 1335,-56 1288.76,-30.58 1139.54,-18.41 1060.01,-13.61"/>
<polygon fill="midnightblue" stroke="midnightblue" points="1059.92,-10.1 1049.73,-13.01 1059.51,-17.09 1059.92,-10.1"/>
</g>
<!-- Node8 -->
<g id="node8" class="node">
<title>Node8</title>
<g id="a_node8"><a xlink:href="float_8h.html" target="_top" xlink:title=" ">
<polygon fill="white" stroke="black" points="1387,-56.5 1387,-86.5 1523,-86.5 1523,-56.5 1387,-56.5"/>
<text text-anchor="start" x="1395" y="-74.5" font-family="Helvetica,sans-Serif" font-size="10.00">MSL_C/MSL_Common/Src</text>
<text text-anchor="middle" x="1455" y="-63.5" font-family="Helvetica,sans-Serif" font-size="10.00">/float.h</text>
</a>
</g>
</g>
<!-- Node7&#45;&gt;Node8 -->
<g id="edge7" class="edge">
<title>Node7&#45;&gt;Node8</title>
<path fill="none" stroke="midnightblue" d="M1410.88,-128.73C1417.7,-120.03 1428.44,-106.34 1437.62,-94.65"/>
<polygon fill="midnightblue" stroke="midnightblue" points="1440.53,-96.62 1443.95,-86.59 1435.02,-92.3 1440.53,-96.62"/>
</g>
<!-- Node8&#45;&gt;Node4 -->
<g id="edge8" class="edge">
<title>Node8&#45;&gt;Node4</title>
<path fill="none" stroke="midnightblue" d="M1386.59,-58.13C1381.99,-57.38 1377.43,-56.67 1373,-56 1261.74,-39.3 1130.68,-24.22 1060.14,-16.47"/>
<polygon fill="midnightblue" stroke="midnightblue" points="1060.08,-12.95 1049.76,-15.34 1059.32,-19.9 1060.08,-12.95"/>
</g>
<!-- Node9&#45;&gt;Node4 -->
<g id="edge11" class="edge">
<title>Node9&#45;&gt;Node4</title>
<path fill="none" stroke="midnightblue" d="M945.6,-61.98C957.25,-52.61 976.19,-37.38 990.33,-26.01"/>
<polygon fill="midnightblue" stroke="midnightblue" points="992.82,-28.5 998.42,-19.51 988.43,-23.05 992.82,-28.5"/>
</g>
<!-- Node10&#45;&gt;Node4 -->
<g id="edge13" class="edge">
<title>Node10&#45;&gt;Node4</title>
<path fill="none" stroke="midnightblue" d="M1244.27,-128.9C1244.29,-112.25 1241.82,-75.49 1221,-56 1198.1,-34.56 1115.08,-21.96 1059.98,-15.78"/>
<polygon fill="midnightblue" stroke="midnightblue" points="1060.02,-12.26 1049.7,-14.66 1059.26,-19.22 1060.02,-12.26"/>
</g>
<!-- Node11&#45;&gt;Node4 -->
<g id="edge56" class="edge">
<title>Node11&#45;&gt;Node4</title>
<path fill="none" stroke="midnightblue" d="M1309.23,-436.35C1305.46,-417.19 1297,-369.7 1297,-329.5 1297,-329.5 1297,-329.5 1297,-204.5 1297,-134.27 1299.34,-97.92 1243,-56 1214.61,-34.87 1119.64,-21.88 1059.77,-15.59"/>
<polygon fill="midnightblue" stroke="midnightblue" points="1060.06,-12.11 1049.75,-14.57 1059.34,-19.07 1060.06,-12.11"/>
</g>
<!-- Node12 -->
<g id="node12" class="node">
<title>Node12</title>
<g id="a_node12"><a xlink:href="Z2SoundHandles_8h.html" target="_top" xlink:title=" ">
<polygon fill="white" stroke="black" points="1325,-319 1325,-338 1477,-338 1477,-319 1325,-319"/>
<text text-anchor="middle" x="1401" y="-326" font-family="Helvetica,sans-Serif" font-size="10.00">Z2AudioLib/Z2SoundHandles.h</text>
</a>
</g>
</g>
<!-- Node11&#45;&gt;Node12 -->
<g id="edge15" class="edge">
<title>Node11&#45;&gt;Node12</title>
<path fill="none" stroke="midnightblue" d="M1317.76,-436.32C1332.62,-417.26 1368.31,-371.45 1387.79,-346.46"/>
<polygon fill="midnightblue" stroke="midnightblue" points="1390.77,-348.32 1394.16,-338.28 1385.25,-344.02 1390.77,-348.32"/>
</g>
<!-- Node21 -->
<g id="node21" class="node">
<title>Node21</title>
<g id="a_node21"><a xlink:href="Z2SoundStarter_8h.html" target="_top" xlink:title=" ">
<polygon fill="white" stroke="black" points="432.5,-380.5 432.5,-399.5 577.5,-399.5 577.5,-380.5 432.5,-380.5"/>
<text text-anchor="middle" x="505" y="-387.5" font-family="Helvetica,sans-Serif" font-size="10.00">Z2AudioLib/Z2SoundStarter.h</text>
</a>
</g>
</g>
<!-- Node11&#45;&gt;Node21 -->
<g id="edge39" class="edge">
<title>Node11&#45;&gt;Node21</title>
<path fill="none" stroke="midnightblue" d="M1238.76,-440.16C1089.13,-430.14 746.09,-407.15 587.81,-396.55"/>
<polygon fill="midnightblue" stroke="midnightblue" points="587.87,-393.04 577.65,-395.87 587.4,-400.03 587.87,-393.04"/>
</g>
<!-- Node23 -->
<g id="node23" class="node">
<title>Node23</title>
<g id="a_node23"><a xlink:href="mtxvec_8h.html" target="_top" xlink:title=" ">
<polygon fill="white" stroke="black" points="996,-257.5 996,-276.5 1104,-276.5 1104,-257.5 996,-257.5"/>
<text text-anchor="middle" x="1050" y="-264.5" font-family="Helvetica,sans-Serif" font-size="10.00">dolphin/mtx/mtxvec.h</text>
</a>
</g>
</g>
<!-- Node11&#45;&gt;Node23 -->
<g id="edge45" class="edge">
<title>Node11&#45;&gt;Node23</title>
<path fill="none" stroke="midnightblue" d="M1298.41,-436.46C1256.82,-408.26 1123.48,-317.83 1071.26,-282.42"/>
<polygon fill="midnightblue" stroke="midnightblue" points="1073.01,-279.37 1062.77,-276.66 1069.08,-285.17 1073.01,-279.37"/>
</g>
<!-- Node12&#45;&gt;Node3 -->
<g id="edge37" class="edge">
<title>Node12&#45;&gt;Node3</title>
<path fill="none" stroke="midnightblue" d="M1413.61,-318.98C1427.72,-309.43 1450.83,-293.81 1467.75,-282.37"/>
<polygon fill="midnightblue" stroke="midnightblue" points="1470.09,-285.01 1476.42,-276.51 1466.17,-279.21 1470.09,-285.01"/>
</g>
<!-- Node12&#45;&gt;Node4 -->
<g id="edge38" class="edge">
<title>Node12&#45;&gt;Node4</title>
<path fill="none" stroke="midnightblue" d="M1398.95,-318.95C1388.66,-276.82 1341.45,-91.94 1297,-56 1261.46,-27.26 1132.71,-16.68 1059.97,-12.93"/>
<polygon fill="midnightblue" stroke="midnightblue" points="1059.82,-9.42 1049.66,-12.43 1059.47,-16.41 1059.82,-9.42"/>
</g>
<!-- Node13 -->
<g id="node13" class="node">
<title>Node13</title>
<g id="a_node13"><a xlink:href="JAISound_8h.html" target="_top" xlink:title=" ">
<polygon fill="white" stroke="black" points="481,-257.5 481,-276.5 627,-276.5 627,-257.5 481,-257.5"/>
<text text-anchor="middle" x="554" y="-264.5" font-family="Helvetica,sans-Serif" font-size="10.00">JSystem/JAudio2/JAISound.h</text>
</a>
</g>
</g>
<!-- Node12&#45;&gt;Node13 -->
<g id="edge16" class="edge">
<title>Node12&#45;&gt;Node13</title>
<path fill="none" stroke="midnightblue" d="M1324.72,-322.14C1166.09,-311 801.8,-285.41 637.31,-273.85"/>
<polygon fill="midnightblue" stroke="midnightblue" points="637.46,-270.35 627.24,-273.15 636.97,-277.34 637.46,-270.35"/>
</g>
<!-- Node13&#45;&gt;Node4 -->
<g id="edge35" class="edge">
<title>Node13&#45;&gt;Node4</title>
<path fill="none" stroke="midnightblue" d="M480.85,-260.49C415.63,-254.29 326.25,-242.19 298,-221 234.82,-173.61 177.79,-113.44 232,-56 256.97,-29.55 789.84,-15.75 958.37,-12.04"/>
<polygon fill="midnightblue" stroke="midnightblue" points="958.55,-15.54 968.47,-11.82 958.4,-8.54 958.55,-15.54"/>
</g>
<!-- Node13&#45;&gt;Node10 -->
<g id="edge36" class="edge">
<title>Node13&#45;&gt;Node10</title>
<path fill="none" stroke="midnightblue" d="M627.28,-262.7C748.84,-256.72 986.85,-242.63 1068,-221 1098.2,-212.95 1177.13,-173.73 1218.25,-152.77"/>
<polygon fill="midnightblue" stroke="midnightblue" points="1220.06,-155.77 1227.37,-148.1 1216.87,-149.54 1220.06,-155.77"/>
</g>
<!-- Node14 -->
<g id="node14" class="node">
<title>Node14</title>
<g id="a_node14"><a xlink:href="JAIAudience_8h.html" target="_top" xlink:title=" ">
<polygon fill="white" stroke="black" points="307.5,-196 307.5,-215 466.5,-215 466.5,-196 307.5,-196"/>
<text text-anchor="middle" x="387" y="-203" font-family="Helvetica,sans-Serif" font-size="10.00">JSystem/JAudio2/JAIAudience.h</text>
</a>
</g>
</g>
<!-- Node13&#45;&gt;Node14 -->
<g id="edge17" class="edge">
<title>Node13&#45;&gt;Node14</title>
<path fill="none" stroke="midnightblue" d="M525.17,-257.48C494.43,-247.31 446.34,-230.26 415.67,-218.7"/>
<polygon fill="midnightblue" stroke="midnightblue" points="416.58,-215.3 405.99,-215.01 414.08,-221.84 416.58,-215.3"/>
</g>
<!-- Node16 -->
<g id="node16" class="node">
<title>Node16</title>
<g id="a_node16"><a xlink:href="JGeometry_8h.html" target="_top" xlink:title=" ">
<polygon fill="white" stroke="black" points="588.5,-129 588.5,-148 701.5,-148 701.5,-129 588.5,-129"/>
<text text-anchor="middle" x="645" y="-136" font-family="Helvetica,sans-Serif" font-size="10.00">JSystem/JGeometry.h</text>
</a>
</g>
</g>
<!-- Node13&#45;&gt;Node16 -->
<g id="edge34" class="edge">
<title>Node13&#45;&gt;Node16</title>
<path fill="none" stroke="midnightblue" d="M580.64,-257.46C598.06,-250.46 619.77,-238.77 632,-221 644.73,-202.51 646.75,-176.12 646.4,-158.43"/>
<polygon fill="midnightblue" stroke="midnightblue" points="649.88,-158.06 645.91,-148.23 642.89,-158.39 649.88,-158.06"/>
</g>
<!-- Node17 -->
<g id="node17" class="node">
<title>Node17</title>
<g id="a_node17"><a xlink:href="JAISoundHandles_8h.html" target="_top" xlink:title=" ">
<polygon fill="white" stroke="black" points="484.5,-190.5 484.5,-220.5 623.5,-220.5 623.5,-190.5 484.5,-190.5"/>
<text text-anchor="start" x="492.5" y="-208.5" font-family="Helvetica,sans-Serif" font-size="10.00">JSystem/JAudio2/JAISound</text>
<text text-anchor="middle" x="554" y="-197.5" font-family="Helvetica,sans-Serif" font-size="10.00">Handles.h</text>
</a>
</g>
</g>
<!-- Node13&#45;&gt;Node17 -->
<g id="edge25" class="edge">
<title>Node13&#45;&gt;Node17</title>
<path fill="none" stroke="midnightblue" d="M549.1,-257.48C547.57,-250.47 546.99,-240.19 547.36,-230.7"/>
<polygon fill="midnightblue" stroke="midnightblue" points="550.86,-230.77 548.17,-220.52 543.88,-230.21 550.86,-230.77"/>
</g>
<!-- Node19 -->
<g id="node19" class="node">
<title>Node19</title>
<g id="a_node19"><a xlink:href="JAISoundParams_8h.html" target="_top" xlink:title=" ">
<polygon fill="white" stroke="black" points="719.5,-123.5 719.5,-153.5 858.5,-153.5 858.5,-123.5 719.5,-123.5"/>
<text text-anchor="start" x="727.5" y="-141.5" font-family="Helvetica,sans-Serif" font-size="10.00">JSystem/JAudio2/JAISound</text>
<text text-anchor="middle" x="789" y="-130.5" font-family="Helvetica,sans-Serif" font-size="10.00">Params.h</text>
</a>
</g>
</g>
<!-- Node13&#45;&gt;Node19 -->
<g id="edge30" class="edge">
<title>Node13&#45;&gt;Node19</title>
<path fill="none" stroke="midnightblue" d="M574.2,-257.48C594.22,-248.85 625.65,-234.84 652,-221 689.42,-201.35 730.96,-176.13 758.38,-158.99"/>
<polygon fill="midnightblue" stroke="midnightblue" points="760.5,-161.79 767.11,-153.51 756.78,-155.86 760.5,-161.79"/>
</g>
<!-- Node14&#45;&gt;Node4 -->
<g id="edge24" class="edge">
<title>Node14&#45;&gt;Node4</title>
<path fill="none" stroke="midnightblue" d="M387.08,-195.97C387.81,-169.97 393.92,-91.28 440,-56 480.65,-24.88 826.45,-14.68 958.26,-11.9"/>
<polygon fill="midnightblue" stroke="midnightblue" points="958.56,-15.4 968.48,-11.69 958.41,-8.4 958.56,-15.4"/>
</g>
<!-- Node14&#45;&gt;Node13 -->
<g id="edge20" class="edge">
<title>Node14&#45;&gt;Node13</title>
<path fill="none" stroke="midnightblue" d="M415.78,-215.01C446.5,-225.16 494.6,-242.22 525.28,-253.78"/>
<polygon fill="midnightblue" stroke="midnightblue" points="524.38,-257.18 534.97,-257.48 526.88,-250.64 524.38,-257.18"/>
</g>
<!-- Node15 -->
<g id="node15" class="node">
<title>Node15</title>
<g id="a_node15"><a xlink:href="JAIAudible_8h.html" target="_top" xlink:title=" ">
<polygon fill="white" stroke="black" points="241.5,-62 241.5,-81 392.5,-81 392.5,-62 241.5,-62"/>
<text text-anchor="middle" x="317" y="-69" font-family="Helvetica,sans-Serif" font-size="10.00">JSystem/JAudio2/JAIAudible.h</text>
</a>
</g>
</g>
<!-- Node14&#45;&gt;Node15 -->
<g id="edge18" class="edge">
<title>Node14&#45;&gt;Node15</title>
<path fill="none" stroke="midnightblue" d="M382.41,-195.84C371.03,-174.39 341.39,-118.49 326.22,-89.9"/>
<polygon fill="midnightblue" stroke="midnightblue" points="329.3,-88.22 321.52,-81.02 323.11,-91.5 329.3,-88.22"/>
</g>
<!-- Node14&#45;&gt;Node16 -->
<g id="edge21" class="edge">
<title>Node14&#45;&gt;Node16</title>
<path fill="none" stroke="midnightblue" d="M420.99,-195.94C467.3,-184.27 550.27,-163.37 601.19,-150.54"/>
<polygon fill="midnightblue" stroke="midnightblue" points="602.09,-153.92 610.93,-148.08 600.38,-147.13 602.09,-153.92"/>
</g>
<!-- Node15&#45;&gt;Node4 -->
<g id="edge19" class="edge">
<title>Node15&#45;&gt;Node4</title>
<path fill="none" stroke="midnightblue" d="M365,-61.99C378.55,-59.8 393.33,-57.61 407,-56 610.53,-32.04 854.35,-18.43 958.18,-13.34"/>
<polygon fill="midnightblue" stroke="midnightblue" points="958.55,-16.82 968.37,-12.84 958.21,-9.83 958.55,-16.82"/>
</g>
<!-- Node16&#45;&gt;Node4 -->
<g id="edge23" class="edge">
<title>Node16&#45;&gt;Node4</title>
<path fill="none" stroke="midnightblue" d="M645.94,-128.92C648.31,-111.95 656.11,-74.19 680,-56 722.67,-23.52 877.08,-14.48 958.28,-11.97"/>
<polygon fill="midnightblue" stroke="midnightblue" points="958.39,-15.47 968.29,-11.68 958.19,-8.47 958.39,-15.47"/>
</g>
<!-- Node16&#45;&gt;Node9 -->
<g id="edge22" class="edge">
<title>Node16&#45;&gt;Node9</title>
<path fill="none" stroke="midnightblue" d="M683.21,-128.94C735.59,-117.2 829.68,-96.11 886.83,-83.3"/>
<polygon fill="midnightblue" stroke="midnightblue" points="887.71,-86.69 896.7,-81.08 886.18,-79.86 887.71,-86.69"/>
</g>
<!-- Node17&#45;&gt;Node4 -->
<g id="edge29" class="edge">
<title>Node17&#45;&gt;Node4</title>
<path fill="none" stroke="midnightblue" d="M555.97,-190.26C558.86,-173.17 565.43,-144.19 579,-123 603.11,-85.36 613.33,-74.54 654,-56 707.11,-31.79 873.53,-18.88 958.29,-13.72"/>
<polygon fill="midnightblue" stroke="midnightblue" points="958.68,-17.2 968.46,-13.11 958.27,-10.21 958.68,-17.2"/>
</g>
<!-- Node17&#45;&gt;Node13 -->
<g id="edge26" class="edge">
<title>Node17&#45;&gt;Node13</title>
<path fill="none" stroke="midnightblue" d="M559.83,-220.52C560.87,-228.59 561.03,-238.81 560.3,-247.53"/>
<polygon fill="midnightblue" stroke="midnightblue" points="556.83,-247.09 558.9,-257.48 563.76,-248.06 556.83,-247.09"/>
</g>
<!-- Node18 -->
<g id="node18" class="node">
<title>Node18</title>
<g id="a_node18"><a xlink:href="JUTAssert_8h.html" target="_top" xlink:title=" ">
<polygon fill="white" stroke="black" points="449,-62 449,-81 595,-81 595,-62 449,-62"/>
<text text-anchor="middle" x="522" y="-69" font-family="Helvetica,sans-Serif" font-size="10.00">JSystem/JUtility/JUTAssert.h</text>
</a>
</g>
</g>
<!-- Node17&#45;&gt;Node18 -->
<g id="edge27" class="edge">
<title>Node17&#45;&gt;Node18</title>
<path fill="none" stroke="midnightblue" d="M550.58,-190.37C544.76,-166.4 532.97,-117.75 526.5,-91.06"/>
<polygon fill="midnightblue" stroke="midnightblue" points="529.84,-89.99 524.08,-81.1 523.04,-91.64 529.84,-89.99"/>
</g>
<!-- Node18&#45;&gt;Node4 -->
<g id="edge28" class="edge">
<title>Node18&#45;&gt;Node4</title>
<path fill="none" stroke="midnightblue" d="M570.25,-61.99C582.84,-59.9 596.41,-57.76 609,-56 734.1,-38.55 881.95,-23.31 958.06,-15.86"/>
<polygon fill="midnightblue" stroke="midnightblue" points="958.7,-19.31 968.31,-14.86 958.02,-12.34 958.7,-19.31"/>
</g>
<!-- Node19&#45;&gt;Node4 -->
<g id="edge33" class="edge">
<title>Node19&#45;&gt;Node4</title>
<path fill="none" stroke="midnightblue" d="M803.25,-123.47C824.4,-102.86 863.38,-65.81 880,-56 905.7,-40.84 937.29,-29.71 962.78,-22.31"/>
<polygon fill="midnightblue" stroke="midnightblue" points="963.9,-25.64 972.58,-19.57 962.01,-18.9 963.9,-25.64"/>
</g>
<!-- Node20 -->
<g id="node20" class="node">
<title>Node20</title>
<g id="a_node20"><a xlink:href="JASSoundParams_8h.html" target="_top" xlink:title=" ">
<polygon fill="white" stroke="black" points="689.5,-56.5 689.5,-86.5 832.5,-86.5 832.5,-56.5 689.5,-56.5"/>
<text text-anchor="start" x="697.5" y="-74.5" font-family="Helvetica,sans-Serif" font-size="10.00">JSystem/JAudio2/JASSound</text>
<text text-anchor="middle" x="761" y="-63.5" font-family="Helvetica,sans-Serif" font-size="10.00">Params.h</text>
</a>
</g>
</g>
<!-- Node19&#45;&gt;Node20 -->
<g id="edge31" class="edge">
<title>Node19&#45;&gt;Node20</title>
<path fill="none" stroke="midnightblue" d="M782.92,-123.4C779.48,-115.39 775.07,-105.16 771.11,-95.98"/>
<polygon fill="midnightblue" stroke="midnightblue" points="774.23,-94.38 767.06,-86.58 767.81,-97.15 774.23,-94.38"/>
</g>
<!-- Node20&#45;&gt;Node4 -->
<g id="edge32" class="edge">
<title>Node20&#45;&gt;Node4</title>
<path fill="none" stroke="midnightblue" d="M819.46,-56.47C863.55,-45.9 923.16,-31.59 963.68,-21.87"/>
<polygon fill="midnightblue" stroke="midnightblue" points="964.64,-25.24 973.54,-19.51 963,-18.44 964.64,-25.24"/>
</g>
<!-- Node21&#45;&gt;Node4 -->
<g id="edge44" class="edge">
<title>Node21&#45;&gt;Node4</title>
<path fill="none" stroke="midnightblue" d="M432.3,-384.78C325.05,-374.19 137,-337 137,-206.5 137,-206.5 137,-206.5 137,-137.5 137,-96.75 144.79,-78.15 179,-56 244.26,-13.75 787.75,-10.74 958.12,-10.85"/>
<polygon fill="midnightblue" stroke="midnightblue" points="958.32,-14.35 968.33,-10.86 958.33,-7.35 958.32,-14.35"/>
</g>
<!-- Node21&#45;&gt;Node13 -->
<g id="edge40" class="edge">
<title>Node21&#45;&gt;Node13</title>
<path fill="none" stroke="midnightblue" d="M511.89,-380.17C518.42,-371.43 528.08,-357.44 534,-344 542.23,-325.31 547.67,-302.5 550.78,-286.77"/>
<polygon fill="midnightblue" stroke="midnightblue" points="554.26,-287.2 552.63,-276.73 547.37,-285.93 554.26,-287.2"/>
</g>
<!-- Node22 -->
<g id="node22" class="node">
<title>Node22</title>
<g id="a_node22"><a xlink:href="JAISoundStarter_8h.html" target="_top" xlink:title=" ">
<polygon fill="white" stroke="black" points="386.5,-313.5 386.5,-343.5 525.5,-343.5 525.5,-313.5 386.5,-313.5"/>
<text text-anchor="start" x="394.5" y="-331.5" font-family="Helvetica,sans-Serif" font-size="10.00">JSystem/JAudio2/JAISound</text>
<text text-anchor="middle" x="456" y="-320.5" font-family="Helvetica,sans-Serif" font-size="10.00">Starter.h</text>
</a>
</g>
</g>
<!-- Node21&#45;&gt;Node22 -->
<g id="edge41" class="edge">
<title>Node21&#45;&gt;Node22</title>
<path fill="none" stroke="midnightblue" d="M497.98,-380.48C491.72,-372.87 482.27,-361.4 473.92,-351.26"/>
<polygon fill="midnightblue" stroke="midnightblue" points="476.61,-349.02 467.55,-343.52 471.2,-353.47 476.61,-349.02"/>
</g>
<!-- Node22&#45;&gt;Node4 -->
<g id="edge42" class="edge">
<title>Node22&#45;&gt;Node4</title>
<path fill="none" stroke="midnightblue" d="M386.18,-326.54C302.96,-321.28 175,-298.26 175,-206.5 175,-206.5 175,-206.5 175,-137.5 175,-98.08 177.7,-78.61 210,-56 271.08,-13.24 791.52,-10.55 958.01,-10.8"/>
<polygon fill="midnightblue" stroke="midnightblue" points="958.44,-14.3 968.45,-10.82 958.46,-7.3 958.44,-14.3"/>
</g>
<!-- Node22&#45;&gt;Node13 -->
<g id="edge43" class="edge">
<title>Node22&#45;&gt;Node13</title>
<path fill="none" stroke="midnightblue" d="M479.22,-313.4C494.79,-303.95 515.2,-291.56 530.76,-282.11"/>
<polygon fill="midnightblue" stroke="midnightblue" points="533.01,-284.84 539.74,-276.66 529.38,-278.86 533.01,-284.84"/>
</g>
<!-- Node23&#45;&gt;Node4 -->
<g id="edge55" class="edge">
<title>Node23&#45;&gt;Node4</title>
<path fill="none" stroke="midnightblue" d="M1058.7,-257.43C1093.26,-222.9 1217.64,-94.02 1188,-56 1172.31,-35.87 1106.82,-23.37 1059.6,-16.79"/>
<polygon fill="midnightblue" stroke="midnightblue" points="1059.9,-13.3 1049.53,-15.44 1058.97,-20.24 1059.9,-13.3"/>
</g>
<!-- Node23&#45;&gt;Node9 -->
<g id="edge54" class="edge">
<title>Node23&#45;&gt;Node9</title>
<path fill="none" stroke="midnightblue" d="M1019.6,-257.43C999.78,-250.47 974.59,-238.83 958,-221 924.76,-185.28 927.81,-122.49 931.87,-91.25"/>
<polygon fill="midnightblue" stroke="midnightblue" points="935.34,-91.68 933.35,-81.28 928.42,-90.66 935.34,-91.68"/>
</g>
<!-- Node24 -->
<g id="node24" class="node">
<title>Node24</title>
<g id="a_node24"><a xlink:href="mtx_8h.html" target="_top" xlink:title=" ">
<polygon fill="white" stroke="black" points="967,-196 967,-215 1059,-215 1059,-196 967,-196"/>
<text text-anchor="middle" x="1013" y="-203" font-family="Helvetica,sans-Serif" font-size="10.00">dolphin/mtx/mtx.h</text>
</a>
</g>
</g>
<!-- Node23&#45;&gt;Node24 -->
<g id="edge46" class="edge">
<title>Node23&#45;&gt;Node24</title>
<path fill="none" stroke="midnightblue" d="M1044.7,-257.48C1039.26,-248.73 1030.64,-234.87 1023.76,-223.81"/>
<polygon fill="midnightblue" stroke="midnightblue" points="1026.54,-221.65 1018.29,-215.01 1020.6,-225.35 1026.54,-221.65"/>
</g>
<!-- Node24&#45;&gt;Node4 -->
<g id="edge53" class="edge">
<title>Node24&#45;&gt;Node4</title>
<path fill="none" stroke="midnightblue" d="M1024.42,-195.93C1035.41,-186.9 1051.31,-171.56 1058,-154 1062.9,-141.12 1060.82,-136.49 1058,-123 1050.61,-87.67 1031.41,-49.85 1019.36,-28.44"/>
<polygon fill="midnightblue" stroke="midnightblue" points="1022.27,-26.49 1014.24,-19.58 1016.21,-29.99 1022.27,-26.49"/>
</g>
<!-- Node24&#45;&gt;Node9 -->
<g id="edge52" class="edge">
<title>Node24&#45;&gt;Node9</title>
<path fill="none" stroke="midnightblue" d="M994.33,-196C978.4,-187.69 956.32,-173.45 945,-154 933.77,-134.7 932.54,-108.49 933.27,-91.07"/>
<polygon fill="midnightblue" stroke="midnightblue" points="936.77,-91.26 933.96,-81.04 929.79,-90.78 936.77,-91.26"/>
</g>
<!-- Node25 -->
<g id="node25" class="node">
<title>Node25</title>
<g id="a_node25"><a xlink:href="mtx44_8h.html" target="_top" xlink:title=" ">
<polygon fill="white" stroke="black" points="1075.5,-62 1075.5,-81 1178.5,-81 1178.5,-62 1075.5,-62"/>
<text text-anchor="middle" x="1127" y="-69" font-family="Helvetica,sans-Serif" font-size="10.00">dolphin/mtx/mtx44.h</text>
</a>
</g>
</g>
<!-- Node24&#45;&gt;Node25 -->
<g id="edge47" class="edge">
<title>Node24&#45;&gt;Node25</title>
<path fill="none" stroke="midnightblue" d="M1032.6,-195.84C1049.93,-187.34 1074.88,-172.9 1091,-154 1106.88,-135.38 1116.88,-108.66 1122.2,-90.95"/>
<polygon fill="midnightblue" stroke="midnightblue" points="1125.59,-91.82 1124.92,-81.25 1118.85,-89.93 1125.59,-91.82"/>
</g>
<!-- Node26 -->
<g id="node26" class="node">
<title>Node26</title>
<g id="a_node26"><a xlink:href="quat_8h.html" target="_top" xlink:title=" ">
<polygon fill="white" stroke="black" points="953.5,-129 953.5,-148 1048.5,-148 1048.5,-129 953.5,-129"/>
<text text-anchor="middle" x="1001" y="-136" font-family="Helvetica,sans-Serif" font-size="10.00">dolphin/mtx/quat.h</text>
</a>
</g>
</g>
<!-- Node24&#45;&gt;Node26 -->
<g id="edge49" class="edge">
<title>Node24&#45;&gt;Node26</title>
<path fill="none" stroke="midnightblue" d="M1011.38,-195.73C1009.62,-186.18 1006.74,-170.62 1004.47,-158.28"/>
<polygon fill="midnightblue" stroke="midnightblue" points="1007.85,-157.33 1002.59,-148.13 1000.97,-158.6 1007.85,-157.33"/>
</g>
<!-- Node25&#45;&gt;Node4 -->
<g id="edge48" class="edge">
<title>Node25&#45;&gt;Node4</title>
<path fill="none" stroke="midnightblue" d="M1110.09,-61.98C1090.47,-52.08 1057.87,-35.64 1035.01,-24.12"/>
<polygon fill="midnightblue" stroke="midnightblue" points="1036.38,-20.89 1025.88,-19.51 1033.23,-27.14 1036.38,-20.89"/>
</g>
<!-- Node26&#45;&gt;Node4 -->
<g id="edge51" class="edge">
<title>Node26&#45;&gt;Node4</title>
<path fill="none" stroke="midnightblue" d="M1001.55,-128.81C1002.83,-108.49 1006.06,-57.55 1007.81,-29.78"/>
<polygon fill="midnightblue" stroke="midnightblue" points="1011.31,-29.96 1008.45,-19.76 1004.32,-29.51 1011.31,-29.96"/>
</g>
<!-- Node26&#45;&gt;Node9 -->
<g id="edge50" class="edge">
<title>Node26&#45;&gt;Node9</title>
<path fill="none" stroke="midnightblue" d="M992.1,-128.73C981.61,-118.4 963.98,-101.04 951.08,-88.33"/>
<polygon fill="midnightblue" stroke="midnightblue" points="953.34,-85.65 943.76,-81.13 948.43,-90.64 953.34,-85.65"/>
</g>
<!-- Node27&#45;&gt;Node4 -->
<g id="edge61" class="edge">
<title>Node27&#45;&gt;Node4</title>
<path fill="none" stroke="midnightblue" d="M64.07,-318.82C70.74,-299.12 86,-249.4 86,-206.5 86,-206.5 86,-206.5 86,-137.5 86,-97.72 90.12,-78.39 123,-56 192.05,-9 780.27,-9.34 958.21,-10.54"/>
<polygon fill="midnightblue" stroke="midnightblue" points="958.32,-14.04 968.35,-10.61 958.37,-7.04 958.32,-14.04"/>
</g>
<!-- Node27&#45;&gt;Node13 -->
<g id="edge60" class="edge">
<title>Node27&#45;&gt;Node13</title>
<path fill="none" stroke="midnightblue" d="M122.44,-320.08C211.07,-309.39 374.9,-289.62 473.22,-277.75"/>
<polygon fill="midnightblue" stroke="midnightblue" points="473.9,-281.19 483.41,-276.52 473.06,-274.24 473.9,-281.19"/>
</g>
</g>
</svg>
        <g id="navigator" transform="translate(0 0)" fill="#404254">
                <rect fill="#f2f5e9" fill-opacity="0.5" stroke="#606060" stroke-width=".5" x="0" y="0" width="60" height="60"/>
                <use id="zoomplus" xlink:href="#zoomPlus" x="17" y="9" onmousedown="handleZoom(evt,'in')"/>
                <use id="zoomminus" xlink:href="#zoomMin" x="42" y="9" onmousedown="handleZoom(evt,'out')"/>
                <use id="reset" xlink:href="#resetDef" x="30" y="36" onmousedown="handleReset()"/>
                <g id="arrowUp" xlink:href="#dirArrow" transform="translate(30 24)" onmousedown="handlePan(0,-1)">
                  <use xlink:href="#rim" fill="#404040">
                        <set attributeName="fill" to="#808080" begin="arrowUp.mouseover" end="arrowUp.mouseout"/>
                  </use>
                  <path fill="none" stroke="white" stroke-width="1.5" d="M0,-3.0v7 M-2.5,-0.5L0,-3.0L2.5,-0.5"/>
                </g>
                <g id="arrowRight" xlink:href="#dirArrow" transform="rotate(90) translate(36 -43)" onmousedown="handlePan(1,0)">
                  <use xlink:href="#rim" fill="#404040">
                        <set attributeName="fill" to="#808080" begin="arrowRight.mouseover" end="arrowRight.mouseout"/>
                  </use>
                  <path fill="none" stroke="white" stroke-width="1.5" d="M0,-3.0v7 M-2.5,-0.5L0,-3.0L2.5,-0.5"/>
                </g>
                <g id="arrowDown" xlink:href="#dirArrow" transform="rotate(180) translate(-30 -48)" onmousedown="handlePan(0,1)">
                  <use xlink:href="#rim" fill="#404040">
                        <set attributeName="fill" to="#808080" begin="arrowDown.mouseover" end="arrowDown.mouseout"/>
                  </use>
                  <path fill="none" stroke="white" stroke-width="1.5" d="M0,-3.0v7 M-2.5,-0.5L0,-3.0L2.5,-0.5"/>
                </g>
                <g id="arrowLeft" xlink:href="#dirArrow" transform="rotate(270) translate(-36 17)" onmousedown="handlePan(-1,0)">
                  <use xlink:href="#rim" fill="#404040">
                        <set attributeName="fill" to="#808080" begin="arrowLeft.mouseover" end="arrowLeft.mouseout"/>
                  </use>
                  <path fill="none" stroke="white" stroke-width="1.5" d="M0,-3.0v7 M-2.5,-0.5L0,-3.0L2.5,-0.5"/>
                </g>
        </g>
        <svg viewBox="0 0 15 15" width="100%" height="30px" preserveAspectRatio="xMaxYMin meet">
         <g id="arrow_out" transform="scale(0.3 0.3)">
          <a xlink:href="Z2SoundObjMgr_8cpp__incl_org.svg" target="_base">
           <rect id="button" ry="5" rx="5" y="6" x="6" height="38" width="38"
                fill="#f2f5e9" fill-opacity="0.5" stroke="#606060" stroke-width="1.0"/>
           <path id="arrow"
             d="M 11.500037,31.436501 C 11.940474,20.09759 22.043105,11.32322 32.158766,21.979434 L 37.068811,17.246167 C 37.068811,17.246167 37.088388,32 37.088388,32 L 22.160133,31.978069 C 22.160133,31.978069 26.997745,27.140456 26.997745,27.140456 C 18.528582,18.264221 13.291696,25.230495 11.500037,31.436501 z"
             style="fill:#404040;"/>
          </a>
         </g>
        </svg>
</svg>
