<?xml version="1.0" encoding="UTF-8" standalone="no"?>
<!DOCTYPE svg PUBLIC "-//W3C//DTD SVG 1.1//EN"
 "http://www.w3.org/Graphics/SVG/1.1/DTD/svg11.dtd">
<!-- Generated by graphviz version 2.50.0 (20220203.2022)
 -->
<!-- Title: include/Z2AudioLib/Z2SoundObjMgr.h Pages: 1 -->
<svg width="1462pt" height="520pt"
 viewBox="0.00 0.00 1462.38 520.00" xmlns="http://www.w3.org/2000/svg" xmlns:xlink="http://www.w3.org/1999/xlink">
<g id="graph0" class="graph" transform="scale(1 1) rotate(0) translate(4 516)">
<title>include/Z2AudioLib/Z2SoundObjMgr.h</title>
<polygon fill="white" stroke="transparent" points="-4,4 -4,-516 1458.38,-516 1458.38,4 -4,4"/>
<!-- Node1 -->
<g id="node1" class="node">
<title>Node1</title>
<g id="a_node1"><a xlink:title=" ">
<polygon fill="#bfbfbf" stroke="black" points="158,-481.5 158,-511.5 258,-511.5 258,-481.5 158,-481.5"/>
<text text-anchor="start" x="166" y="-499.5" font-family="Helvetica,sans-Serif" font-size="10.00">include/Z2AudioLib</text>
<text text-anchor="middle" x="208" y="-488.5" font-family="Helvetica,sans-Serif" font-size="10.00">/Z2SoundObjMgr.h</text>
</a>
</g>
</g>
<!-- Node2 -->
<g id="node2" class="node">
<title>Node2</title>
<g id="a_node2"><a xlink:href="JSUList_8h.html" target="_top" xlink:title=" ">
<polygon fill="white" stroke="black" points="136.5,-257.5 136.5,-276.5 279.5,-276.5 279.5,-257.5 136.5,-257.5"/>
<text text-anchor="middle" x="208" y="-264.5" font-family="Helvetica,sans-Serif" font-size="10.00">JSystem/JSupport/JSUList.h</text>
</a>
</g>
</g>
<!-- Node1&#45;&gt;Node2 -->
<g id="edge1" class="edge">
<title>Node1&#45;&gt;Node2</title>
<path fill="none" stroke="midnightblue" d="M208,-481.27C208,-441.89 208,-331.49 208,-286.97"/>
<polygon fill="midnightblue" stroke="midnightblue" points="211.5,-286.93 208,-276.93 204.5,-286.93 211.5,-286.93"/>
</g>
<!-- Node3 -->
<g id="node3" class="node">
<title>Node3</title>
<g id="a_node3"><a xlink:href="types_8h.html" target="_top" xlink:title=" ">
<polygon fill="white" stroke="black" points="547.5,-0.5 547.5,-19.5 628.5,-19.5 628.5,-0.5 547.5,-0.5"/>
<text text-anchor="middle" x="588" y="-7.5" font-family="Helvetica,sans-Serif" font-size="10.00">dolphin/types.h</text>
</a>
</g>
</g>
<!-- Node1&#45;&gt;Node3 -->
<g id="edge54" class="edge">
<title>Node1&#45;&gt;Node3</title>
<path fill="none" stroke="midnightblue" d="M157.91,-489.71C96.37,-479.48 0,-451.97 0,-380 0,-380 0,-380 0,-137.5 0,-93.3 18.7,-78.06 57,-56 97.99,-32.39 412.34,-17.79 537.16,-12.86"/>
<polygon fill="midnightblue" stroke="midnightblue" points="537.37,-16.36 547.22,-12.47 537.09,-9.36 537.37,-16.36"/>
</g>
<!-- Node4 -->
<g id="node4" class="node">
<title>Node4</title>
<g id="a_node4"><a xlink:href="Z2Creature_8h.html" target="_top" xlink:title=" ">
<polygon fill="white" stroke="black" points="995.5,-425.5 995.5,-444.5 1120.5,-444.5 1120.5,-425.5 995.5,-425.5"/>
<text text-anchor="middle" x="1058" y="-432.5" font-family="Helvetica,sans-Serif" font-size="10.00">Z2AudioLib/Z2Creature.h</text>
</a>
</g>
</g>
<!-- Node1&#45;&gt;Node4 -->
<g id="edge3" class="edge">
<title>Node1&#45;&gt;Node4</title>
<path fill="none" stroke="midnightblue" d="M258.31,-491.98C402.3,-481.9 816.49,-452.91 985.19,-441.1"/>
<polygon fill="midnightblue" stroke="midnightblue" points="985.48,-444.58 995.21,-440.39 984.99,-437.6 985.48,-444.58"/>
</g>
<!-- Node2&#45;&gt;Node3 -->
<g id="edge2" class="edge">
<title>Node2&#45;&gt;Node3</title>
<path fill="none" stroke="midnightblue" d="M199.52,-257.19C170.32,-225.81 78.78,-118.08 135,-56 161.59,-26.64 424.38,-15.67 537.09,-12.29"/>
<polygon fill="midnightblue" stroke="midnightblue" points="537.3,-15.78 547.2,-11.99 537.1,-8.79 537.3,-15.78"/>
</g>
<!-- Node4&#45;&gt;Node3 -->
<g id="edge53" class="edge">
<title>Node4&#45;&gt;Node3</title>
<path fill="none" stroke="midnightblue" d="M1120.87,-429.48C1232.1,-419.75 1452,-391.91 1452,-324 1452,-324 1452,-324 1452,-137.5 1452,-100.31 1461.51,-79.89 1433,-56 1402.47,-30.41 816.93,-15.88 638.91,-12.04"/>
<polygon fill="midnightblue" stroke="midnightblue" points="638.83,-8.53 628.76,-11.82 638.68,-15.53 638.83,-8.53"/>
</g>
<!-- Node5 -->
<g id="node5" class="node">
<title>Node5</title>
<g id="a_node5"><a xlink:href="c__xyz_8h.html" target="_top" xlink:title=" ">
<polygon fill="white" stroke="black" points="1078,-190.5 1078,-220.5 1194,-220.5 1194,-190.5 1078,-190.5"/>
<text text-anchor="start" x="1086" y="-208.5" font-family="Helvetica,sans-Serif" font-size="10.00">SSystem/SComponent</text>
<text text-anchor="middle" x="1136" y="-197.5" font-family="Helvetica,sans-Serif" font-size="10.00">/c_xyz.h</text>
</a>
</g>
</g>
<!-- Node4&#45;&gt;Node5 -->
<g id="edge4" class="edge">
<title>Node4&#45;&gt;Node5</title>
<path fill="none" stroke="midnightblue" d="M1060.96,-425.36C1071.98,-393.23 1110.81,-279.96 1127.87,-230.22"/>
<polygon fill="midnightblue" stroke="midnightblue" points="1131.23,-231.22 1131.16,-220.62 1124.6,-228.95 1131.23,-231.22"/>
</g>
<!-- Node10 -->
<g id="node10" class="node">
<title>Node10</title>
<g id="a_node10"><a xlink:href="Z2SoundObject_8h.html" target="_top" xlink:title=" ">
<polygon fill="white" stroke="black" points="766,-369.5 766,-388.5 910,-388.5 910,-369.5 766,-369.5"/>
<text text-anchor="middle" x="838" y="-376.5" font-family="Helvetica,sans-Serif" font-size="10.00">Z2AudioLib/Z2SoundObject.h</text>
</a>
</g>
</g>
<!-- Node4&#45;&gt;Node10 -->
<g id="edge13" class="edge">
<title>Node4&#45;&gt;Node10</title>
<path fill="none" stroke="midnightblue" d="M1023.14,-425.44C985.08,-416.1 924.04,-401.12 882.54,-390.93"/>
<polygon fill="midnightblue" stroke="midnightblue" points="883.24,-387.5 872.7,-388.52 881.57,-394.3 883.24,-387.5"/>
</g>
<!-- Node6 -->
<g id="node6" class="node">
<title>Node6</title>
<g id="a_node6"><a xlink:href="vec_8h.html" target="_top" xlink:title=" ">
<polygon fill="white" stroke="black" points="340,-62 340,-81 432,-81 432,-62 340,-62"/>
<text text-anchor="middle" x="386" y="-69" font-family="Helvetica,sans-Serif" font-size="10.00">dolphin/mtx/vec.h</text>
</a>
</g>
</g>
<!-- Node5&#45;&gt;Node6 -->
<g id="edge5" class="edge">
<title>Node5&#45;&gt;Node6</title>
<path fill="none" stroke="midnightblue" d="M1077.77,-194.25C937.25,-169.52 580.95,-106.81 442.36,-82.42"/>
<polygon fill="midnightblue" stroke="midnightblue" points="442.83,-78.95 432.37,-80.66 441.62,-85.84 442.83,-78.95"/>
</g>
<!-- Node7 -->
<g id="node7" class="node">
<title>Node7</title>
<g id="a_node7"><a xlink:href="global_8h.html" target="_top" xlink:title=" ">
<polygon fill="white" stroke="black" points="1106,-129 1106,-148 1156,-148 1156,-129 1106,-129"/>
<text text-anchor="middle" x="1131" y="-136" font-family="Helvetica,sans-Serif" font-size="10.00">global.h</text>
</a>
</g>
</g>
<!-- Node5&#45;&gt;Node7 -->
<g id="edge7" class="edge">
<title>Node5&#45;&gt;Node7</title>
<path fill="none" stroke="midnightblue" d="M1134.92,-190.4C1134.19,-180.96 1133.23,-168.45 1132.44,-158.19"/>
<polygon fill="midnightblue" stroke="midnightblue" points="1135.93,-157.9 1131.67,-148.19 1128.95,-158.43 1135.93,-157.9"/>
</g>
<!-- Node8 -->
<g id="node8" class="node">
<title>Node8</title>
<g id="a_node8"><a xlink:href="math_8h.html" target="_top" xlink:title=" ">
<polygon fill="white" stroke="black" points="1250,-129 1250,-148 1332,-148 1332,-129 1250,-129"/>
<text text-anchor="middle" x="1291" y="-136" font-family="Helvetica,sans-Serif" font-size="10.00">MSL_C/math.h</text>
</a>
</g>
</g>
<!-- Node5&#45;&gt;Node8 -->
<g id="edge9" class="edge">
<title>Node5&#45;&gt;Node8</title>
<path fill="none" stroke="midnightblue" d="M1169.63,-190.4C1196.95,-178.94 1235.11,-162.94 1261.31,-151.95"/>
<polygon fill="midnightblue" stroke="midnightblue" points="1262.85,-155.1 1270.71,-148.01 1260.14,-148.65 1262.85,-155.1"/>
</g>
<!-- Node6&#45;&gt;Node3 -->
<g id="edge6" class="edge">
<title>Node6&#45;&gt;Node3</title>
<path fill="none" stroke="midnightblue" d="M414.94,-61.98C450.27,-51.57 510.13,-33.94 549.36,-22.38"/>
<polygon fill="midnightblue" stroke="midnightblue" points="550.51,-25.69 559.11,-19.51 548.53,-18.98 550.51,-25.69"/>
</g>
<!-- Node7&#45;&gt;Node3 -->
<g id="edge8" class="edge">
<title>Node7&#45;&gt;Node3</title>
<path fill="none" stroke="midnightblue" d="M1131.24,-128.91C1131.2,-111.93 1128.44,-74.14 1106,-56 1070.19,-27.05 762.36,-15.66 638.91,-12.23"/>
<polygon fill="midnightblue" stroke="midnightblue" points="638.69,-8.72 628.59,-11.95 638.5,-15.72 638.69,-8.72"/>
</g>
<!-- Node8&#45;&gt;Node3 -->
<g id="edge12" class="edge">
<title>Node8&#45;&gt;Node3</title>
<path fill="none" stroke="midnightblue" d="M1288.13,-128.92C1281.82,-111.61 1264.98,-72.72 1236,-56 1184.84,-26.49 783.41,-15.14 639.29,-11.99"/>
<polygon fill="midnightblue" stroke="midnightblue" points="639.04,-8.49 628.97,-11.77 638.89,-15.49 639.04,-8.49"/>
</g>
<!-- Node9 -->
<g id="node9" class="node">
<title>Node9</title>
<g id="a_node9"><a xlink:href="float_8h.html" target="_top" xlink:title=" ">
<polygon fill="white" stroke="black" points="1288,-56.5 1288,-86.5 1424,-86.5 1424,-56.5 1288,-56.5"/>
<text text-anchor="start" x="1296" y="-74.5" font-family="Helvetica,sans-Serif" font-size="10.00">MSL_C/MSL_Common/Src</text>
<text text-anchor="middle" x="1356" y="-63.5" font-family="Helvetica,sans-Serif" font-size="10.00">/float.h</text>
</a>
</g>
</g>
<!-- Node8&#45;&gt;Node9 -->
<g id="edge10" class="edge">
<title>Node8&#45;&gt;Node9</title>
<path fill="none" stroke="midnightblue" d="M1299.77,-128.73C1308.64,-119.86 1322.69,-105.81 1334.53,-93.97"/>
<polygon fill="midnightblue" stroke="midnightblue" points="1337.31,-96.13 1341.91,-86.59 1332.37,-91.19 1337.31,-96.13"/>
</g>
<!-- Node9&#45;&gt;Node3 -->
<g id="edge11" class="edge">
<title>Node9&#45;&gt;Node3</title>
<path fill="none" stroke="midnightblue" d="M1287.63,-57.83C1283.02,-57.16 1278.45,-56.54 1274,-56 1037.59,-27.43 752.99,-16.06 638.92,-12.43"/>
<polygon fill="midnightblue" stroke="midnightblue" points="638.84,-8.93 628.74,-12.12 638.62,-15.93 638.84,-8.93"/>
</g>
<!-- Node10&#45;&gt;Node3 -->
<g id="edge52" class="edge">
<title>Node10&#45;&gt;Node3</title>
<path fill="none" stroke="midnightblue" d="M910.23,-372.11C1021.46,-361.03 1222,-332.15 1222,-268 1222,-268 1222,-268 1222,-137.5 1222,-90.89 1197.24,-77.71 1156,-56 1110.88,-32.25 770.05,-17.57 639.06,-12.75"/>
<polygon fill="midnightblue" stroke="midnightblue" points="639.01,-9.25 628.89,-12.38 638.76,-16.24 639.01,-9.25"/>
</g>
<!-- Node11 -->
<g id="node11" class="node">
<title>Node11</title>
<g id="a_node11"><a xlink:href="Z2SoundHandles_8h.html" target="_top" xlink:title=" ">
<polygon fill="white" stroke="black" points="762,-313.5 762,-332.5 914,-332.5 914,-313.5 762,-313.5"/>
<text text-anchor="middle" x="838" y="-320.5" font-family="Helvetica,sans-Serif" font-size="10.00">Z2AudioLib/Z2SoundHandles.h</text>
</a>
</g>
</g>
<!-- Node10&#45;&gt;Node11 -->
<g id="edge14" class="edge">
<title>Node10&#45;&gt;Node11</title>
<path fill="none" stroke="midnightblue" d="M838,-369.08C838,-362.01 838,-351.86 838,-342.99"/>
<polygon fill="midnightblue" stroke="midnightblue" points="841.5,-342.75 838,-332.75 834.5,-342.75 841.5,-342.75"/>
</g>
<!-- Node20 -->
<g id="node20" class="node">
<title>Node20</title>
<g id="a_node20"><a xlink:href="Z2SoundStarter_8h.html" target="_top" xlink:title=" ">
<polygon fill="white" stroke="black" points="560.5,-313.5 560.5,-332.5 705.5,-332.5 705.5,-313.5 560.5,-313.5"/>
<text text-anchor="middle" x="633" y="-320.5" font-family="Helvetica,sans-Serif" font-size="10.00">Z2AudioLib/Z2SoundStarter.h</text>
</a>
</g>
</g>
<!-- Node10&#45;&gt;Node20 -->
<g id="edge38" class="edge">
<title>Node10&#45;&gt;Node20</title>
<path fill="none" stroke="midnightblue" d="M805.52,-369.44C770.28,-360.16 713.9,-345.31 675.24,-335.13"/>
<polygon fill="midnightblue" stroke="midnightblue" points="675.89,-331.68 665.33,-332.52 674.11,-338.45 675.89,-331.68"/>
</g>
<!-- Node21 -->
<g id="node21" class="node">
<title>Node21</title>
<g id="a_node21"><a xlink:href="mtxvec_8h.html" target="_top" xlink:title=" ">
<polygon fill="white" stroke="black" points="333,-257.5 333,-276.5 441,-276.5 441,-257.5 333,-257.5"/>
<text text-anchor="middle" x="387" y="-264.5" font-family="Helvetica,sans-Serif" font-size="10.00">dolphin/mtx/mtxvec.h</text>
</a>
</g>
</g>
<!-- Node10&#45;&gt;Node21 -->
<g id="edge41" class="edge">
<title>Node10&#45;&gt;Node21</title>
<path fill="none" stroke="midnightblue" d="M821.73,-369.38C788.74,-351.91 716.85,-313.91 714,-313 625.62,-284.71 518.21,-274.2 451.2,-270.3"/>
<polygon fill="midnightblue" stroke="midnightblue" points="451.39,-266.81 441.21,-269.75 451,-273.8 451.39,-266.81"/>
</g>
<!-- Node11&#45;&gt;Node2 -->
<g id="edge36" class="edge">
<title>Node11&#45;&gt;Node2</title>
<path fill="none" stroke="midnightblue" d="M761.69,-315.46C642.36,-305.23 412.57,-285.53 289.89,-275.02"/>
<polygon fill="midnightblue" stroke="midnightblue" points="290.07,-271.52 279.81,-274.15 289.47,-278.5 290.07,-271.52"/>
</g>
<!-- Node11&#45;&gt;Node3 -->
<g id="edge37" class="edge">
<title>Node11&#45;&gt;Node3</title>
<path fill="none" stroke="midnightblue" d="M851.14,-313.49C885.78,-291.27 982.87,-230.44 1069,-190 1110.25,-170.63 1139.04,-191.45 1165,-154 1187.65,-121.31 1132.19,-57.46 1130,-56 1089.64,-29.2 765.65,-16.45 638.73,-12.45"/>
<polygon fill="midnightblue" stroke="midnightblue" points="638.61,-8.94 628.51,-12.13 638.39,-15.94 638.61,-8.94"/>
</g>
<!-- Node12 -->
<g id="node12" class="node">
<title>Node12</title>
<g id="a_node12"><a xlink:href="JAISound_8h.html" target="_top" xlink:title=" ">
<polygon fill="white" stroke="black" points="663,-257.5 663,-276.5 809,-276.5 809,-257.5 663,-257.5"/>
<text text-anchor="middle" x="736" y="-264.5" font-family="Helvetica,sans-Serif" font-size="10.00">JSystem/JAudio2/JAISound.h</text>
</a>
</g>
</g>
<!-- Node11&#45;&gt;Node12 -->
<g id="edge15" class="edge">
<title>Node11&#45;&gt;Node12</title>
<path fill="none" stroke="midnightblue" d="M821.61,-313.32C805.33,-304.7 780.13,-291.36 761.28,-281.39"/>
<polygon fill="midnightblue" stroke="midnightblue" points="762.82,-278.24 752.35,-276.65 759.55,-284.43 762.82,-278.24"/>
</g>
<!-- Node12&#45;&gt;Node3 -->
<g id="edge34" class="edge">
<title>Node12&#45;&gt;Node3</title>
<path fill="none" stroke="midnightblue" d="M662.99,-260.43C597.58,-250.81 507.66,-224.7 479,-154 461.63,-111.14 482.38,-89.75 514,-56 526.48,-42.68 543.77,-31.87 558.49,-24.19"/>
<polygon fill="midnightblue" stroke="midnightblue" points="560.33,-27.19 567.73,-19.6 557.21,-20.92 560.33,-27.19"/>
</g>
<!-- Node12&#45;&gt;Node7 -->
<g id="edge35" class="edge">
<title>Node12&#45;&gt;Node7</title>
<path fill="none" stroke="midnightblue" d="M785.13,-257.43C826.01,-249.71 885.48,-237.11 936,-221 997.78,-201.31 1067.18,-169.97 1104.25,-152.44"/>
<polygon fill="midnightblue" stroke="midnightblue" points="1105.86,-155.55 1113.38,-148.1 1102.85,-149.23 1105.86,-155.55"/>
</g>
<!-- Node13 -->
<g id="node13" class="node">
<title>Node13</title>
<g id="a_node13"><a xlink:href="JAIAudience_8h.html" target="_top" xlink:title=" ">
<polygon fill="white" stroke="black" points="572.5,-196 572.5,-215 731.5,-215 731.5,-196 572.5,-196"/>
<text text-anchor="middle" x="652" y="-203" font-family="Helvetica,sans-Serif" font-size="10.00">JSystem/JAudio2/JAIAudience.h</text>
</a>
</g>
</g>
<!-- Node12&#45;&gt;Node13 -->
<g id="edge16" class="edge">
<title>Node12&#45;&gt;Node13</title>
<path fill="none" stroke="midnightblue" d="M719.06,-257.48C703.8,-248.11 681.95,-232.88 667.24,-221.51"/>
<polygon fill="midnightblue" stroke="midnightblue" points="669.11,-218.52 659.12,-215.01 664.74,-223.99 669.11,-218.52"/>
</g>
<!-- Node15 -->
<g id="node15" class="node">
<title>Node15</title>
<g id="a_node15"><a xlink:href="JGeometry_8h.html" target="_top" xlink:title=" ">
<polygon fill="white" stroke="black" points="488.5,-129 488.5,-148 601.5,-148 601.5,-129 488.5,-129"/>
<text text-anchor="middle" x="545" y="-136" font-family="Helvetica,sans-Serif" font-size="10.00">JSystem/JGeometry.h</text>
</a>
</g>
</g>
<!-- Node12&#45;&gt;Node15 -->
<g id="edge33" class="edge">
<title>Node12&#45;&gt;Node15</title>
<path fill="none" stroke="midnightblue" d="M677.67,-257.48C633.89,-249.91 578.88,-237.48 563,-221 546.93,-204.32 543.91,-176.7 543.91,-158.3"/>
<polygon fill="midnightblue" stroke="midnightblue" points="547.41,-158.32 544.21,-148.22 540.41,-158.11 547.41,-158.32"/>
</g>
<!-- Node16 -->
<g id="node16" class="node">
<title>Node16</title>
<g id="a_node16"><a xlink:href="JAISoundHandles_8h.html" target="_top" xlink:title=" ">
<polygon fill="white" stroke="black" points="749.5,-190.5 749.5,-220.5 888.5,-220.5 888.5,-190.5 749.5,-190.5"/>
<text text-anchor="start" x="757.5" y="-208.5" font-family="Helvetica,sans-Serif" font-size="10.00">JSystem/JAudio2/JAISound</text>
<text text-anchor="middle" x="819" y="-197.5" font-family="Helvetica,sans-Serif" font-size="10.00">Handles.h</text>
</a>
</g>
</g>
<!-- Node12&#45;&gt;Node16 -->
<g id="edge24" class="edge">
<title>Node12&#45;&gt;Node16</title>
<path fill="none" stroke="midnightblue" d="M742.99,-257.48C752.56,-249.34 769.57,-236.79 785.16,-226.18"/>
<polygon fill="midnightblue" stroke="midnightblue" points="787.24,-228.99 793.61,-220.52 783.35,-223.17 787.24,-228.99"/>
</g>
<!-- Node18 -->
<g id="node18" class="node">
<title>Node18</title>
<g id="a_node18"><a xlink:href="JAISoundParams_8h.html" target="_top" xlink:title=" ">
<polygon fill="white" stroke="black" points="938.5,-123.5 938.5,-153.5 1077.5,-153.5 1077.5,-123.5 938.5,-123.5"/>
<text text-anchor="start" x="946.5" y="-141.5" font-family="Helvetica,sans-Serif" font-size="10.00">JSystem/JAudio2/JAISound</text>
<text text-anchor="middle" x="1008" y="-130.5" font-family="Helvetica,sans-Serif" font-size="10.00">Params.h</text>
</a>
</g>
</g>
<!-- Node12&#45;&gt;Node18 -->
<g id="edge29" class="edge">
<title>Node12&#45;&gt;Node18</title>
<path fill="none" stroke="midnightblue" d="M783.42,-257.46C816.38,-250.4 860.73,-238.65 897,-221 930.17,-204.86 963.67,-178.57 985.06,-160.23"/>
<polygon fill="midnightblue" stroke="midnightblue" points="987.4,-162.83 992.64,-153.63 982.8,-157.56 987.4,-162.83"/>
</g>
<!-- Node13&#45;&gt;Node3 -->
<g id="edge23" class="edge">
<title>Node13&#45;&gt;Node3</title>
<path fill="none" stroke="midnightblue" d="M649.19,-195.77C643.72,-179.84 630.35,-145.58 610,-123 590.44,-101.3 568.89,-112.7 555,-87 544.26,-67.14 559.09,-43.07 572.18,-27.41"/>
<polygon fill="midnightblue" stroke="midnightblue" points="575.05,-29.45 579.09,-19.66 569.82,-24.79 575.05,-29.45"/>
</g>
<!-- Node13&#45;&gt;Node12 -->
<g id="edge19" class="edge">
<title>Node13&#45;&gt;Node12</title>
<path fill="none" stroke="midnightblue" d="M668.91,-215.01C684.17,-224.37 706.01,-239.59 720.74,-250.97"/>
<polygon fill="midnightblue" stroke="midnightblue" points="718.87,-253.96 728.87,-257.48 723.24,-248.49 718.87,-253.96"/>
</g>
<!-- Node14 -->
<g id="node14" class="node">
<title>Node14</title>
<g id="a_node14"><a xlink:href="JAIAudible_8h.html" target="_top" xlink:title=" ">
<polygon fill="white" stroke="black" points="564.5,-62 564.5,-81 715.5,-81 715.5,-62 564.5,-62"/>
<text text-anchor="middle" x="640" y="-69" font-family="Helvetica,sans-Serif" font-size="10.00">JSystem/JAudio2/JAIAudible.h</text>
</a>
</g>
</g>
<!-- Node13&#45;&gt;Node14 -->
<g id="edge17" class="edge">
<title>Node13&#45;&gt;Node14</title>
<path fill="none" stroke="midnightblue" d="M651.21,-195.84C649.29,-174.67 644.31,-119.95 641.68,-91.03"/>
<polygon fill="midnightblue" stroke="midnightblue" points="645.17,-90.66 640.77,-81.02 638.19,-91.3 645.17,-90.66"/>
</g>
<!-- Node13&#45;&gt;Node15 -->
<g id="edge20" class="edge">
<title>Node13&#45;&gt;Node15</title>
<path fill="none" stroke="midnightblue" d="M637.57,-195.73C619.68,-184.87 588.98,-166.22 567.87,-153.39"/>
<polygon fill="midnightblue" stroke="midnightblue" points="569.57,-150.33 559.2,-148.13 565.93,-156.31 569.57,-150.33"/>
</g>
<!-- Node14&#45;&gt;Node3 -->
<g id="edge18" class="edge">
<title>Node14&#45;&gt;Node3</title>
<path fill="none" stroke="midnightblue" d="M632.55,-61.98C624.67,-52.96 612.06,-38.52 602.26,-27.31"/>
<polygon fill="midnightblue" stroke="midnightblue" points="604.65,-24.74 595.44,-19.51 599.38,-29.34 604.65,-24.74"/>
</g>
<!-- Node15&#45;&gt;Node3 -->
<g id="edge22" class="edge">
<title>Node15&#45;&gt;Node3</title>
<path fill="none" stroke="midnightblue" d="M538.6,-128.97C527.94,-113.63 508.95,-80.7 522,-56 529.42,-41.95 543.42,-31.47 556.62,-24.17"/>
<polygon fill="midnightblue" stroke="midnightblue" points="558.22,-27.28 565.54,-19.62 555.04,-21.04 558.22,-27.28"/>
</g>
<!-- Node15&#45;&gt;Node6 -->
<g id="edge21" class="edge">
<title>Node15&#45;&gt;Node6</title>
<path fill="none" stroke="midnightblue" d="M523.89,-128.87C496.37,-117.62 448.05,-97.87 416.54,-84.99"/>
<polygon fill="midnightblue" stroke="midnightblue" points="417.53,-81.61 406.95,-81.06 414.88,-88.09 417.53,-81.61"/>
</g>
<!-- Node16&#45;&gt;Node3 -->
<g id="edge28" class="edge">
<title>Node16&#45;&gt;Node3</title>
<path fill="none" stroke="midnightblue" d="M813.77,-190.37C802.2,-160.99 771.61,-93 724,-56 699.25,-36.77 665.91,-25.57 638.44,-19.15"/>
<polygon fill="midnightblue" stroke="midnightblue" points="639.12,-15.72 628.61,-16.99 637.62,-22.55 639.12,-15.72"/>
</g>
<!-- Node16&#45;&gt;Node12 -->
<g id="edge25" class="edge">
<title>Node16&#45;&gt;Node12</title>
<path fill="none" stroke="midnightblue" d="M805.27,-220.52C793.25,-230.02 775.81,-242.52 761.34,-252.01"/>
<polygon fill="midnightblue" stroke="midnightblue" points="759.33,-249.14 752.79,-257.48 763.1,-255.04 759.33,-249.14"/>
</g>
<!-- Node17 -->
<g id="node17" class="node">
<title>Node17</title>
<g id="a_node17"><a xlink:href="JUTAssert_8h.html" target="_top" xlink:title=" ">
<polygon fill="white" stroke="black" points="772,-62 772,-81 918,-81 918,-62 772,-62"/>
<text text-anchor="middle" x="845" y="-69" font-family="Helvetica,sans-Serif" font-size="10.00">JSystem/JUtility/JUTAssert.h</text>
</a>
</g>
</g>
<!-- Node16&#45;&gt;Node17 -->
<g id="edge26" class="edge">
<title>Node16&#45;&gt;Node17</title>
<path fill="none" stroke="midnightblue" d="M821.78,-190.37C826.51,-166.4 836.09,-117.75 841.35,-91.06"/>
<polygon fill="midnightblue" stroke="midnightblue" points="844.81,-91.59 843.31,-81.1 837.94,-90.23 844.81,-91.59"/>
</g>
<!-- Node17&#45;&gt;Node3 -->
<g id="edge27" class="edge">
<title>Node17&#45;&gt;Node3</title>
<path fill="none" stroke="midnightblue" d="M808.18,-61.98C762.47,-51.39 684.47,-33.34 634.63,-21.8"/>
<polygon fill="midnightblue" stroke="midnightblue" points="635.29,-18.35 624.75,-19.51 633.71,-25.17 635.29,-18.35"/>
</g>
<!-- Node18&#45;&gt;Node3 -->
<g id="edge32" class="edge">
<title>Node18&#45;&gt;Node3</title>
<path fill="none" stroke="midnightblue" d="M1038.94,-123.37C1069.98,-107.35 1110.21,-80.29 1088,-56 1058.11,-23.3 760.3,-14.16 639,-11.78"/>
<polygon fill="midnightblue" stroke="midnightblue" points="638.92,-8.28 628.86,-11.59 638.79,-15.27 638.92,-8.28"/>
</g>
<!-- Node19 -->
<g id="node19" class="node">
<title>Node19</title>
<g id="a_node19"><a xlink:href="JASSoundParams_8h.html" target="_top" xlink:title=" ">
<polygon fill="white" stroke="black" points="936.5,-56.5 936.5,-86.5 1079.5,-86.5 1079.5,-56.5 936.5,-56.5"/>
<text text-anchor="start" x="944.5" y="-74.5" font-family="Helvetica,sans-Serif" font-size="10.00">JSystem/JAudio2/JASSound</text>
<text text-anchor="middle" x="1008" y="-63.5" font-family="Helvetica,sans-Serif" font-size="10.00">Params.h</text>
</a>
</g>
</g>
<!-- Node18&#45;&gt;Node19 -->
<g id="edge30" class="edge">
<title>Node18&#45;&gt;Node19</title>
<path fill="none" stroke="midnightblue" d="M1008,-123.4C1008,-115.64 1008,-105.81 1008,-96.86"/>
<polygon fill="midnightblue" stroke="midnightblue" points="1011.5,-96.58 1008,-86.58 1004.5,-96.58 1011.5,-96.58"/>
</g>
<!-- Node19&#45;&gt;Node3 -->
<g id="edge31" class="edge">
<title>Node19&#45;&gt;Node3</title>
<path fill="none" stroke="midnightblue" d="M936.48,-57.52C933.28,-56.99 930.11,-56.48 927,-56 824.96,-40.1 705.08,-25.03 638.71,-17.01"/>
<polygon fill="midnightblue" stroke="midnightblue" points="638.87,-13.5 628.53,-15.78 638.04,-20.45 638.87,-13.5"/>
</g>
<!-- Node20&#45;&gt;Node3 -->
<g id="edge40" class="edge">
<title>Node20&#45;&gt;Node3</title>
<path fill="none" stroke="midnightblue" d="M560.34,-322.94C401.61,-323.05 38,-311.79 38,-206.5 38,-206.5 38,-206.5 38,-137.5 38,-87.36 70.88,-77.86 116,-56 189.21,-20.53 430.77,-13 537.05,-11.42"/>
<polygon fill="midnightblue" stroke="midnightblue" points="537.26,-14.92 547.21,-11.28 537.16,-7.92 537.26,-14.92"/>
</g>
<!-- Node20&#45;&gt;Node12 -->
<g id="edge39" class="edge">
<title>Node20&#45;&gt;Node12</title>
<path fill="none" stroke="midnightblue" d="M649.55,-313.32C665.99,-304.7 691.43,-291.36 710.47,-281.39"/>
<polygon fill="midnightblue" stroke="midnightblue" points="712.26,-284.4 719.49,-276.65 709.01,-278.2 712.26,-284.4"/>
</g>
<!-- Node21&#45;&gt;Node3 -->
<g id="edge51" class="edge">
<title>Node21&#45;&gt;Node3</title>
<path fill="none" stroke="midnightblue" d="M349.26,-257.5C321.48,-250.27 283.4,-238.28 253,-221 179.04,-178.97 99.05,-119.19 156,-56 181.12,-28.12 428.42,-16.39 537.15,-12.55"/>
<polygon fill="midnightblue" stroke="midnightblue" points="537.35,-16.05 547.23,-12.2 537.11,-9.05 537.35,-16.05"/>
</g>
<!-- Node21&#45;&gt;Node6 -->
<g id="edge50" class="edge">
<title>Node21&#45;&gt;Node6</title>
<path fill="none" stroke="midnightblue" d="M386.96,-257.44C386.81,-228.29 386.31,-132.47 386.1,-91.43"/>
<polygon fill="midnightblue" stroke="midnightblue" points="389.6,-91.39 386.05,-81.41 382.6,-91.42 389.6,-91.39"/>
</g>
<!-- Node22 -->
<g id="node22" class="node">
<title>Node22</title>
<g id="a_node22"><a xlink:href="mtx_8h.html" target="_top" xlink:title=" ">
<polygon fill="white" stroke="black" points="262,-196 262,-215 354,-215 354,-196 262,-196"/>
<text text-anchor="middle" x="308" y="-203" font-family="Helvetica,sans-Serif" font-size="10.00">dolphin/mtx/mtx.h</text>
</a>
</g>
</g>
<!-- Node21&#45;&gt;Node22 -->
<g id="edge42" class="edge">
<title>Node21&#45;&gt;Node22</title>
<path fill="none" stroke="midnightblue" d="M375.68,-257.48C363.13,-248.02 342.65,-232.6 327.5,-221.19"/>
<polygon fill="midnightblue" stroke="midnightblue" points="329.39,-218.23 319.3,-215.01 325.18,-223.82 329.39,-218.23"/>
</g>
<!-- Node22&#45;&gt;Node3 -->
<g id="edge49" class="edge">
<title>Node22&#45;&gt;Node3</title>
<path fill="none" stroke="midnightblue" d="M288.84,-195.87C240.85,-173.16 122.72,-109.77 171,-56 195.07,-29.19 431.15,-16.94 537.05,-12.76"/>
<polygon fill="midnightblue" stroke="midnightblue" points="537.32,-16.25 547.18,-12.37 537.05,-9.26 537.32,-16.25"/>
</g>
<!-- Node22&#45;&gt;Node6 -->
<g id="edge48" class="edge">
<title>Node22&#45;&gt;Node6</title>
<path fill="none" stroke="midnightblue" d="M321.58,-195.72C334.39,-186.73 353.18,-171.63 364,-154 375.95,-134.53 381.5,-108.56 384.02,-91.22"/>
<polygon fill="midnightblue" stroke="midnightblue" points="387.5,-91.58 385.27,-81.23 380.55,-90.71 387.5,-91.58"/>
</g>
<!-- Node23 -->
<g id="node23" class="node">
<title>Node23</title>
<g id="a_node23"><a xlink:href="mtx44_8h.html" target="_top" xlink:title=" ">
<polygon fill="white" stroke="black" points="180.5,-62 180.5,-81 283.5,-81 283.5,-62 180.5,-62"/>
<text text-anchor="middle" x="232" y="-69" font-family="Helvetica,sans-Serif" font-size="10.00">dolphin/mtx/mtx44.h</text>
</a>
</g>
</g>
<!-- Node22&#45;&gt;Node23 -->
<g id="edge43" class="edge">
<title>Node22&#45;&gt;Node23</title>
<path fill="none" stroke="midnightblue" d="M294.04,-195.85C280.9,-186.98 261.69,-171.94 251,-154 239.41,-134.55 234.89,-108.57 233.13,-91.23"/>
<polygon fill="midnightblue" stroke="midnightblue" points="236.61,-90.92 232.32,-81.23 229.64,-91.48 236.61,-90.92"/>
</g>
<!-- Node24 -->
<g id="node24" class="node">
<title>Node24</title>
<g id="a_node24"><a xlink:href="quat_8h.html" target="_top" xlink:title=" ">
<polygon fill="white" stroke="black" points="260.5,-129 260.5,-148 355.5,-148 355.5,-129 260.5,-129"/>
<text text-anchor="middle" x="308" y="-136" font-family="Helvetica,sans-Serif" font-size="10.00">dolphin/mtx/quat.h</text>
</a>
</g>
</g>
<!-- Node22&#45;&gt;Node24 -->
<g id="edge45" class="edge">
<title>Node22&#45;&gt;Node24</title>
<path fill="none" stroke="midnightblue" d="M308,-195.73C308,-186.18 308,-170.62 308,-158.28"/>
<polygon fill="midnightblue" stroke="midnightblue" points="311.5,-158.13 308,-148.13 304.5,-158.13 311.5,-158.13"/>
</g>
<!-- Node23&#45;&gt;Node3 -->
<g id="edge44" class="edge">
<title>Node23&#45;&gt;Node3</title>
<path fill="none" stroke="midnightblue" d="M268.92,-61.96C278.37,-59.89 288.54,-57.77 298,-56 381.38,-40.39 478.98,-26.05 537.02,-17.93"/>
<polygon fill="midnightblue" stroke="midnightblue" points="537.62,-21.38 547.04,-16.54 536.65,-14.45 537.62,-21.38"/>
</g>
<!-- Node24&#45;&gt;Node3 -->
<g id="edge47" class="edge">
<title>Node24&#45;&gt;Node3</title>
<path fill="none" stroke="midnightblue" d="M307.67,-128.84C307.54,-112.06 309.83,-75.12 331,-56 360.6,-29.27 471.06,-18.02 537.15,-13.6"/>
<polygon fill="midnightblue" stroke="midnightblue" points="537.6,-17.08 547.36,-12.95 537.15,-10.1 537.6,-17.08"/>
</g>
<!-- Node24&#45;&gt;Node6 -->
<g id="edge46" class="edge">
<title>Node24&#45;&gt;Node6</title>
<path fill="none" stroke="midnightblue" d="M318.52,-128.73C331.15,-118.21 352.54,-100.38 367.86,-87.62"/>
<polygon fill="midnightblue" stroke="midnightblue" points="370.21,-90.22 375.65,-81.13 365.72,-84.84 370.21,-90.22"/>
</g>
</g>
</svg>
